<?xml version="1.0" encoding="UTF-8" standalone="no"?>
<!DOCTYPE svg PUBLIC "-//W3C//DTD SVG 1.1//EN"
 "http://www.w3.org/Graphics/SVG/1.1/DTD/svg11.dtd">
<!-- Generated by graphviz version 5.0.0 (20220707.1540)
 -->
<!-- Title: dependencies Pages: 1 -->
<svg width="326pt" height="247pt"
 viewBox="0.00 0.00 326.00 246.80" xmlns="http://www.w3.org/2000/svg" xmlns:xlink="http://www.w3.org/1999/xlink">
<g id="graph0" class="graph" transform="scale(1 1) rotate(0) translate(4 242.8)">
<title>dependencies</title>
<polygon fill="white" stroke="transparent" points="-4,4 -4,-242.8 322,-242.8 322,4 -4,4"/>
<text text-anchor="middle" x="159" y="-8.2" font-family="sans-serif" font-size="14.00">dependencies</text>
<g id="clust1" class="cluster">
<title>cluster_KeycloakAdministrationModule</title>
<polygon fill="none" stroke="black" stroke-dasharray="1,5" points="8,-32.8 8,-230.8 310,-230.8 310,-32.8 8,-32.8"/>
</g>
<g id="clust4" class="cluster">
<title>cluster_KeycloakAdministrationModule_exports</title>
<polygon fill="none" stroke="black" points="51,-170.8 51,-222.8 267,-222.8 267,-170.8 51,-170.8"/>
</g>
<g id="clust6" class="cluster">
<title>cluster_KeycloakAdministrationModule_providers</title>
<polygon fill="none" stroke="black" points="16,-40.8 16,-92.8 302,-92.8 302,-40.8 16,-40.8"/>
</g>
<!-- KeycloakAdministrationService  -->
<g id="node1" class="node">
<title>KeycloakAdministrationService </title>
<polygon fill="#fb8072" stroke="black" points="258.89,-214.8 59.11,-214.8 59.11,-178.8 258.89,-178.8 258.89,-214.8"/>
<text text-anchor="middle" x="159" y="-192.6" font-family="Times,serif" font-size="14.00">KeycloakAdministrationService </text>
</g>
<!-- KeycloakAdministrationModule -->
<g id="node2" class="node">
<title>KeycloakAdministrationModule</title>
<polygon fill="#8dd3c7" stroke="black" points="257.97,-149.8 254.97,-153.8 233.97,-153.8 230.97,-149.8 60.03,-149.8 60.03,-113.8 257.97,-113.8 257.97,-149.8"/>
<text text-anchor="middle" x="159" y="-127.6" font-family="Times,serif" font-size="14.00">KeycloakAdministrationModule</text>
</g>
<!-- KeycloakAdministrationModule&#45;&gt;KeycloakAdministrationService  -->
<g id="edge1" class="edge">
<title>KeycloakAdministrationModule&#45;&gt;KeycloakAdministrationService </title>
<path fill="none" stroke="black" stroke-dasharray="5,2" d="M159,-149.91C159,-149.91 159,-168.79 159,-168.79"/>
<polygon fill="black" stroke="black" points="155.5,-168.79 159,-178.79 162.5,-168.79 155.5,-168.79"/>
</g>
<!-- KeycloakAdministrationService -->
<g id="node3" class="node">
<title>KeycloakAdministrationService</title>
<ellipse fill="#fdb462" stroke="black" cx="159" cy="-66.8" rx="135.44" ry="18"/>
<text text-anchor="middle" x="159" y="-62.6" font-family="Times,serif" font-size="14.00">KeycloakAdministrationService</text>
</g>
<!-- KeycloakAdministrationService&#45;&gt;KeycloakAdministrationModule -->
<g id="edge2" class="edge">
<title>KeycloakAdministrationService&#45;&gt;KeycloakAdministrationModule</title>
<path fill="none" stroke="black" d="M159,-84.91C159,-84.91 159,-103.79 159,-103.79"/>
<polygon fill="black" stroke="black" points="155.5,-103.79 159,-113.79 162.5,-103.79 155.5,-103.79"/>
</g>
</g>
</svg>
