<?xml version="1.0" encoding="UTF-8" standalone="no"?>
<!DOCTYPE svg PUBLIC "-//W3C//DTD SVG 1.1//EN"
 "http://www.w3.org/Graphics/SVG/1.1/DTD/svg11.dtd">
<!-- Generated by graphviz version 2.47.0 (20210316.0004)
 -->
<!-- Title: dependencies Pages: 1 -->
<svg width="2512pt" height="284pt"
 viewBox="0.00 0.00 2512.00 284.00" xmlns="http://www.w3.org/2000/svg" xmlns:xlink="http://www.w3.org/1999/xlink">
<g id="graph0" class="graph" transform="scale(1 1) rotate(0) translate(4 280)">
<title>dependencies</title>
<polygon fill="white" stroke="transparent" points="-4,4 -4,-280 2508,-280 2508,4 -4,4"/>
<text text-anchor="start" x="1231.01" y="-42.4" font-family="Times-12" font-weight="bold" font-size="14.00">Legend</text>
<polygon fill="#ffffb3" stroke="transparent" points="1018,-10 1018,-30 1038,-30 1038,-10 1018,-10"/>
<text text-anchor="start" x="1041.63" y="-15.4" font-family="Times-12" font-size="14.00"> &#160;Declarations</text>
<polygon fill="#8dd3c7" stroke="transparent" points="1131,-10 1131,-30 1151,-30 1151,-10 1131,-10"/>
<text text-anchor="start" x="1154.73" y="-15.4" font-family="Times-12" font-size="14.00"> &#160;Module</text>
<polygon fill="#80b1d3" stroke="transparent" points="1217,-10 1217,-30 1237,-30 1237,-10 1217,-10"/>
<text text-anchor="start" x="1240.78" y="-15.4" font-family="Times-12" font-size="14.00"> &#160;Bootstrap</text>
<polygon fill="#fdb462" stroke="transparent" points="1314,-10 1314,-30 1334,-30 1334,-10 1314,-10"/>
<text text-anchor="start" x="1337.67" y="-15.4" font-family="Times-12" font-size="14.00"> &#160;Providers</text>
<polygon fill="#fb8072" stroke="transparent" points="1410,-10 1410,-30 1430,-30 1430,-10 1410,-10"/>
<text text-anchor="start" x="1433.73" y="-15.4" font-family="Times-12" font-size="14.00"> &#160;Exports</text>
<g id="clust1" class="cluster">
<title>cluster_AuthenticationModule</title>
<polygon fill="none" stroke="black" stroke-dasharray="1,5" points="8,-70 8,-268 2496,-268 2496,-70 8,-70"/>
</g>
<g id="clust3" class="cluster">
<title>cluster_AuthenticationModule_imports</title>
<polygon fill="none" stroke="black" points="1558,-78 1558,-130 2488,-130 2488,-78 1558,-78"/>
</g>
<g id="clust4" class="cluster">
<title>cluster_AuthenticationModule_exports</title>
<polygon fill="none" stroke="black" points="1193,-208 1193,-260 1353,-260 1353,-208 1193,-208"/>
</g>
<g id="clust6" class="cluster">
<title>cluster_AuthenticationModule_providers</title>
<polygon fill="none" stroke="black" points="16,-78 16,-130 1550,-130 1550,-78 16,-78"/>
</g>
<!-- AccountModule -->
<g id="node1" class="node">
<title>AccountModule</title>
<polygon fill="#8dd3c7" stroke="black" points="2480.48,-122 2477.48,-126 2456.48,-126 2453.48,-122 2373.52,-122 2373.52,-86 2480.48,-86 2480.48,-122"/>
<text text-anchor="middle" x="2427" y="-99.8" font-family="Times,serif" font-size="14.00">AccountModule</text>
</g>
<!-- AuthenticationModule -->
<g id="node8" class="node">
<title>AuthenticationModule</title>
<polygon fill="#8dd3c7" stroke="black" points="1344.25,-187 1341.25,-191 1320.25,-191 1317.25,-187 1201.75,-187 1201.75,-151 1344.25,-151 1344.25,-187"/>
<text text-anchor="middle" x="1273" y="-164.8" font-family="Times,serif" font-size="14.00">AuthenticationModule</text>
</g>
<!-- AccountModule&#45;&gt;AuthenticationModule -->
<g id="edge1" class="edge">
<title>AccountModule&#45;&gt;AuthenticationModule</title>
<path fill="none" stroke="black" d="M2427,-122.32C2427,-145.66 2427,-183 2427,-183 2427,-183 1354.32,-183 1354.32,-183"/>
<polygon fill="black" stroke="black" points="1354.32,-179.5 1344.32,-183 1354.32,-186.5 1354.32,-179.5"/>
</g>
<!-- CacheWrapperModule -->
<g id="node2" class="node">
<title>CacheWrapperModule</title>
<polygon fill="#8dd3c7" stroke="black" points="2356,-122 2353,-126 2332,-126 2329,-122 2212,-122 2212,-86 2356,-86 2356,-122"/>
<text text-anchor="middle" x="2284" y="-99.8" font-family="Times,serif" font-size="14.00">CacheWrapperModule</text>
</g>
<!-- CacheWrapperModule&#45;&gt;AuthenticationModule -->
<g id="edge2" class="edge">
<title>CacheWrapperModule&#45;&gt;AuthenticationModule</title>
<path fill="none" stroke="black" d="M2284,-122.29C2284,-144.21 2284,-178 2284,-178 2284,-178 1354.49,-178 1354.49,-178"/>
<polygon fill="black" stroke="black" points="1354.49,-174.5 1344.49,-178 1354.49,-181.5 1354.49,-174.5"/>
</g>
<!-- IdentityManagementModule -->
<g id="node3" class="node">
<title>IdentityManagementModule</title>
<polygon fill="#8dd3c7" stroke="black" points="2194.18,-122 2191.18,-126 2170.18,-126 2167.18,-122 2017.82,-122 2017.82,-86 2194.18,-86 2194.18,-122"/>
<text text-anchor="middle" x="2106" y="-99.8" font-family="Times,serif" font-size="14.00">IdentityManagementModule</text>
</g>
<!-- IdentityManagementModule&#45;&gt;AuthenticationModule -->
<g id="edge3" class="edge">
<title>IdentityManagementModule&#45;&gt;AuthenticationModule</title>
<path fill="none" stroke="black" d="M2106,-122.03C2106,-142.77 2106,-174 2106,-174 2106,-174 1354.38,-174 1354.38,-174"/>
<polygon fill="black" stroke="black" points="1354.38,-170.5 1344.38,-174 1354.38,-177.5 1354.38,-170.5"/>
</g>
<!-- LoggerModule -->
<g id="node4" class="node">
<title>LoggerModule</title>
<polygon fill="#8dd3c7" stroke="black" points="1999.98,-122 1996.98,-126 1975.98,-126 1972.98,-122 1900.02,-122 1900.02,-86 1999.98,-86 1999.98,-122"/>
<text text-anchor="middle" x="1950" y="-99.8" font-family="Times,serif" font-size="14.00">LoggerModule</text>
</g>
<!-- LoggerModule&#45;&gt;AuthenticationModule -->
<g id="edge4" class="edge">
<title>LoggerModule&#45;&gt;AuthenticationModule</title>
<path fill="none" stroke="black" d="M1950,-122.11C1950,-141.34 1950,-169 1950,-169 1950,-169 1354.49,-169 1354.49,-169"/>
<polygon fill="black" stroke="black" points="1354.49,-165.5 1344.49,-169 1354.49,-172.5 1354.49,-165.5"/>
</g>
<!-- OauthModule -->
<g id="node5" class="node">
<title>OauthModule</title>
<polygon fill="#8dd3c7" stroke="black" points="1881.76,-122 1878.76,-126 1857.76,-126 1854.76,-122 1788.24,-122 1788.24,-86 1881.76,-86 1881.76,-122"/>
<text text-anchor="middle" x="1835" y="-99.8" font-family="Times,serif" font-size="14.00">OauthModule</text>
</g>
<!-- OauthModule&#45;&gt;AuthenticationModule -->
<g id="edge5" class="edge">
<title>OauthModule&#45;&gt;AuthenticationModule</title>
<path fill="none" stroke="black" d="M1835,-122.3C1835,-140.27 1835,-165 1835,-165 1835,-165 1354.46,-165 1354.46,-165"/>
<polygon fill="black" stroke="black" points="1354.46,-161.5 1344.46,-165 1354.46,-168.5 1354.46,-161.5"/>
</g>
<!-- RoleModule -->
<g id="node6" class="node">
<title>RoleModule</title>
<polygon fill="#8dd3c7" stroke="black" points="1769.99,-122 1766.99,-126 1745.99,-126 1742.99,-122 1684.01,-122 1684.01,-86 1769.99,-86 1769.99,-122"/>
<text text-anchor="middle" x="1727" y="-99.8" font-family="Times,serif" font-size="14.00">RoleModule</text>
</g>
<!-- RoleModule&#45;&gt;AuthenticationModule -->
<g id="edge6" class="edge">
<title>RoleModule&#45;&gt;AuthenticationModule</title>
<path fill="none" stroke="black" d="M1727,-122.03C1727,-138.4 1727,-160 1727,-160 1727,-160 1354.44,-160 1354.44,-160"/>
<polygon fill="black" stroke="black" points="1354.44,-156.5 1344.44,-160 1354.44,-163.5 1354.44,-156.5"/>
</g>
<!-- SystemModule -->
<g id="node7" class="node">
<title>SystemModule</title>
<polygon fill="#8dd3c7" stroke="black" points="1666.27,-122 1663.27,-126 1642.27,-126 1639.27,-122 1565.73,-122 1565.73,-86 1666.27,-86 1666.27,-122"/>
<text text-anchor="middle" x="1616" y="-99.8" font-family="Times,serif" font-size="14.00">SystemModule</text>
</g>
<!-- SystemModule&#45;&gt;AuthenticationModule -->
<g id="edge7" class="edge">
<title>SystemModule&#45;&gt;AuthenticationModule</title>
<path fill="none" stroke="black" d="M1616,-122.19C1616,-137.18 1616,-156 1616,-156 1616,-156 1354.49,-156 1354.49,-156"/>
<polygon fill="black" stroke="black" points="1354.49,-152.5 1344.49,-156 1354.49,-159.5 1354.49,-152.5"/>
</g>
<!-- AuthenticationService  -->
<g id="node9" class="node">
<title>AuthenticationService </title>
<polygon fill="#fb8072" stroke="black" points="1345.18,-252 1200.82,-252 1200.82,-216 1345.18,-216 1345.18,-252"/>
<text text-anchor="middle" x="1273" y="-229.8" font-family="Times,serif" font-size="14.00">AuthenticationService </text>
</g>
<!-- AuthenticationModule&#45;&gt;AuthenticationService  -->
<g id="edge8" class="edge">
<title>AuthenticationModule&#45;&gt;AuthenticationService </title>
<path fill="none" stroke="black" stroke-dasharray="5,2" d="M1273,-187.11C1273,-187.11 1273,-205.99 1273,-205.99"/>
<polygon fill="black" stroke="black" points="1269.5,-205.99 1273,-215.99 1276.5,-205.99 1269.5,-205.99"/>
</g>
<!-- AuthenticationService -->
<g id="node10" class="node">
<title>AuthenticationService</title>
<ellipse fill="#fdb462" stroke="black" cx="1445" cy="-104" rx="97.27" ry="18"/>
<text text-anchor="middle" x="1445" y="-99.8" font-family="Times,serif" font-size="14.00">AuthenticationService</text>
</g>
<!-- AuthenticationService&#45;&gt;AuthenticationModule -->
<g id="edge9" class="edge">
<title>AuthenticationService&#45;&gt;AuthenticationModule</title>
<path fill="none" stroke="black" d="M1347.36,-104C1340.96,-104 1337,-104 1337,-104 1337,-104 1337,-140.89 1337,-140.89"/>
<polygon fill="black" stroke="black" points="1333.5,-140.89 1337,-150.89 1340.5,-140.89 1333.5,-140.89"/>
</g>
<!-- JwtStrategy -->
<g id="node11" class="node">
<title>JwtStrategy</title>
<ellipse fill="#fdb462" stroke="black" cx="1273" cy="-104" rx="56.76" ry="18"/>
<text text-anchor="middle" x="1273" y="-99.8" font-family="Times,serif" font-size="14.00">JwtStrategy</text>
</g>
<!-- JwtStrategy&#45;&gt;AuthenticationModule -->
<g id="edge10" class="edge">
<title>JwtStrategy&#45;&gt;AuthenticationModule</title>
<path fill="none" stroke="black" d="M1273,-122.11C1273,-122.11 1273,-140.99 1273,-140.99"/>
<polygon fill="black" stroke="black" points="1269.5,-140.99 1273,-150.99 1276.5,-140.99 1269.5,-140.99"/>
</g>
<!-- JwtValidationAdapter -->
<g id="node12" class="node">
<title>JwtValidationAdapter</title>
<ellipse fill="#fdb462" stroke="black" cx="1102" cy="-104" rx="96.12" ry="18"/>
<text text-anchor="middle" x="1102" y="-99.8" font-family="Times,serif" font-size="14.00">JwtValidationAdapter</text>
</g>
<!-- JwtValidationAdapter&#45;&gt;AuthenticationModule -->
<g id="edge11" class="edge">
<title>JwtValidationAdapter&#45;&gt;AuthenticationModule</title>
<path fill="none" stroke="black" d="M1198.35,-104C1204.92,-104 1209,-104 1209,-104 1209,-104 1209,-140.89 1209,-140.89"/>
<polygon fill="black" stroke="black" points="1205.5,-140.89 1209,-150.89 1212.5,-140.89 1205.5,-140.89"/>
</g>
<!-- LdapService -->
<g id="node13" class="node">
<title>LdapService</title>
<ellipse fill="#fdb462" stroke="black" cx="928" cy="-104" rx="59.67" ry="18"/>
<text text-anchor="middle" x="928" y="-99.8" font-family="Times,serif" font-size="14.00">LdapService</text>
</g>
<!-- LdapService&#45;&gt;AuthenticationModule -->
<g id="edge12" class="edge">
<title>LdapService&#45;&gt;AuthenticationModule</title>
<path fill="none" stroke="black" d="M928,-122.19C928,-137.18 928,-156 928,-156 928,-156 1191.52,-156 1191.52,-156"/>
<polygon fill="black" stroke="black" points="1191.52,-159.5 1201.52,-156 1191.52,-152.5 1191.52,-159.5"/>
</g>
<!-- LdapStrategy -->
<g id="node14" class="node">
<title>LdapStrategy</title>
<ellipse fill="#fdb462" stroke="black" cx="787" cy="-104" rx="63.12" ry="18"/>
<text text-anchor="middle" x="787" y="-99.8" font-family="Times,serif" font-size="14.00">LdapStrategy</text>
</g>
<!-- LdapStrategy&#45;&gt;AuthenticationModule -->
<g id="edge13" class="edge">
<title>LdapStrategy&#45;&gt;AuthenticationModule</title>
<path fill="none" stroke="black" d="M787,-122.03C787,-138.4 787,-160 787,-160 787,-160 1191.55,-160 1191.55,-160"/>
<polygon fill="black" stroke="black" points="1191.55,-163.5 1201.55,-160 1191.55,-156.5 1191.55,-163.5"/>
</g>
<!-- LocalStrategy -->
<g id="node15" class="node">
<title>LocalStrategy</title>
<ellipse fill="#fdb462" stroke="black" cx="641" cy="-104" rx="65.41" ry="18"/>
<text text-anchor="middle" x="641" y="-99.8" font-family="Times,serif" font-size="14.00">LocalStrategy</text>
</g>
<!-- LocalStrategy&#45;&gt;AuthenticationModule -->
<g id="edge14" class="edge">
<title>LocalStrategy&#45;&gt;AuthenticationModule</title>
<path fill="none" stroke="black" d="M641,-122.3C641,-140.27 641,-165 641,-165 641,-165 1191.73,-165 1191.73,-165"/>
<polygon fill="black" stroke="black" points="1191.73,-168.5 1201.73,-165 1191.73,-161.5 1191.73,-168.5"/>
</g>
<!-- Oauth2Strategy -->
<g id="node16" class="node">
<title>Oauth2Strategy</title>
<ellipse fill="#fdb462" stroke="black" cx="486" cy="-104" rx="71.79" ry="18"/>
<text text-anchor="middle" x="486" y="-99.8" font-family="Times,serif" font-size="14.00">Oauth2Strategy</text>
</g>
<!-- Oauth2Strategy&#45;&gt;AuthenticationModule -->
<g id="edge15" class="edge">
<title>Oauth2Strategy&#45;&gt;AuthenticationModule</title>
<path fill="none" stroke="black" d="M486,-122.11C486,-141.34 486,-169 486,-169 486,-169 1191.42,-169 1191.42,-169"/>
<polygon fill="black" stroke="black" points="1191.42,-172.5 1201.42,-169 1191.42,-165.5 1191.42,-172.5"/>
</g>
<!-- SchoolRepo -->
<g id="node17" class="node">
<title>SchoolRepo</title>
<ellipse fill="#fdb462" stroke="black" cx="338" cy="-104" rx="58.49" ry="18"/>
<text text-anchor="middle" x="338" y="-99.8" font-family="Times,serif" font-size="14.00">SchoolRepo</text>
</g>
<!-- SchoolRepo&#45;&gt;AuthenticationModule -->
<g id="edge16" class="edge">
<title>SchoolRepo&#45;&gt;AuthenticationModule</title>
<path fill="none" stroke="black" d="M338,-122.03C338,-142.77 338,-174 338,-174 338,-174 1191.57,-174 1191.57,-174"/>
<polygon fill="black" stroke="black" points="1191.57,-177.5 1201.57,-174 1191.57,-170.5 1191.57,-177.5"/>
</g>
<!-- SystemRepo -->
<g id="node18" class="node">
<title>SystemRepo</title>
<ellipse fill="#fdb462" stroke="black" cx="202" cy="-104" rx="59.71" ry="18"/>
<text text-anchor="middle" x="202" y="-99.8" font-family="Times,serif" font-size="14.00">SystemRepo</text>
</g>
<!-- SystemRepo&#45;&gt;AuthenticationModule -->
<g id="edge17" class="edge">
<title>SystemRepo&#45;&gt;AuthenticationModule</title>
<path fill="none" stroke="black" d="M202,-122.29C202,-144.21 202,-178 202,-178 202,-178 1191.48,-178 1191.48,-178"/>
<polygon fill="black" stroke="black" points="1191.48,-181.5 1201.48,-178 1191.48,-174.5 1191.48,-181.5"/>
</g>
<!-- UserRepo -->
<g id="node19" class="node">
<title>UserRepo</title>
<ellipse fill="#fdb462" stroke="black" cx="74" cy="-104" rx="49.8" ry="18"/>
<text text-anchor="middle" x="74" y="-99.8" font-family="Times,serif" font-size="14.00">UserRepo</text>
</g>
<!-- UserRepo&#45;&gt;AuthenticationModule -->
<g id="edge18" class="edge">
<title>UserRepo&#45;&gt;AuthenticationModule</title>
<path fill="none" stroke="black" d="M74,-122.32C74,-145.66 74,-183 74,-183 74,-183 1191.59,-183 1191.59,-183"/>
<polygon fill="black" stroke="black" points="1191.59,-186.5 1201.59,-183 1191.59,-179.5 1191.59,-186.5"/>
</g>
</g>
</svg>
