<?xml version="1.0" encoding="UTF-8" standalone="no"?>
<!DOCTYPE svg PUBLIC "-//W3C//DTD SVG 1.1//EN"
 "http://www.w3.org/Graphics/SVG/1.1/DTD/svg11.dtd">
<!-- Generated by graphviz version 2.47.0 (20210316.0004)
 -->
<!-- Title: dependencies Pages: 1 -->
<svg width="2961pt" height="284pt"
 viewBox="0.00 0.00 2961.00 284.00" xmlns="http://www.w3.org/2000/svg" xmlns:xlink="http://www.w3.org/1999/xlink">
<g id="graph0" class="graph" transform="scale(1 1) rotate(0) translate(4 280)">
<title>dependencies</title>
<polygon fill="white" stroke="transparent" points="-4,4 -4,-280 2957,-280 2957,4 -4,4"/>
<text text-anchor="start" x="1455.51" y="-42.4" font-family="Times-12" font-weight="bold" font-size="14.00">Legend</text>
<polygon fill="#ffffb3" stroke="transparent" points="1242.5,-10 1242.5,-30 1262.5,-30 1262.5,-10 1242.5,-10"/>
<text text-anchor="start" x="1266.13" y="-15.4" font-family="Times-12" font-size="14.00"> &#160;Declarations</text>
<polygon fill="#8dd3c7" stroke="transparent" points="1355.5,-10 1355.5,-30 1375.5,-30 1375.5,-10 1355.5,-10"/>
<text text-anchor="start" x="1379.23" y="-15.4" font-family="Times-12" font-size="14.00"> &#160;Module</text>
<polygon fill="#80b1d3" stroke="transparent" points="1441.5,-10 1441.5,-30 1461.5,-30 1461.5,-10 1441.5,-10"/>
<text text-anchor="start" x="1465.28" y="-15.4" font-family="Times-12" font-size="14.00"> &#160;Bootstrap</text>
<polygon fill="#fdb462" stroke="transparent" points="1538.5,-10 1538.5,-30 1558.5,-30 1558.5,-10 1538.5,-10"/>
<text text-anchor="start" x="1562.17" y="-15.4" font-family="Times-12" font-size="14.00"> &#160;Providers</text>
<polygon fill="#fb8072" stroke="transparent" points="1634.5,-10 1634.5,-30 1654.5,-30 1654.5,-10 1634.5,-10"/>
<text text-anchor="start" x="1658.23" y="-15.4" font-family="Times-12" font-size="14.00"> &#160;Exports</text>
<g id="clust1" class="cluster">
<title>cluster_AuthenticationModule</title>
<polygon fill="none" stroke="black" stroke-dasharray="1,5" points="8,-70 8,-268 2945,-268 2945,-70 8,-70"/>
</g>
<g id="clust6" class="cluster">
<title>cluster_AuthenticationModule_providers</title>
<polygon fill="none" stroke="black" points="954,-78 954,-130 2937,-130 2937,-78 954,-78"/>
</g>
<g id="clust4" class="cluster">
<title>cluster_AuthenticationModule_exports</title>
<polygon fill="none" stroke="black" points="1268,-208 1268,-260 1428,-260 1428,-208 1268,-208"/>
</g>
<g id="clust3" class="cluster">
<title>cluster_AuthenticationModule_imports</title>
<polygon fill="none" stroke="black" points="16,-78 16,-130 946,-130 946,-78 16,-78"/>
</g>
<!-- AccountModule -->
<g id="node1" class="node">
<title>AccountModule</title>
<polygon fill="#8dd3c7" stroke="black" points="938.48,-122 935.48,-126 914.48,-126 911.48,-122 831.52,-122 831.52,-86 938.48,-86 938.48,-122"/>
<text text-anchor="middle" x="885" y="-99.8" font-family="Times,serif" font-size="14.00">AccountModule</text>
</g>
<!-- AuthenticationModule -->
<g id="node8" class="node">
<title>AuthenticationModule</title>
<polygon fill="#8dd3c7" stroke="black" points="1419.25,-187 1416.25,-191 1395.25,-191 1392.25,-187 1276.75,-187 1276.75,-151 1419.25,-151 1419.25,-187"/>
<text text-anchor="middle" x="1348" y="-164.8" font-family="Times,serif" font-size="14.00">AuthenticationModule</text>
</g>
<!-- AccountModule&#45;&gt;AuthenticationModule -->
<g id="edge1" class="edge">
<title>AccountModule&#45;&gt;AuthenticationModule</title>
<path fill="none" stroke="black" d="M885,-122.01C885,-138.05 885,-159 885,-159 885,-159 1266.67,-159 1266.67,-159"/>
<polygon fill="black" stroke="black" points="1266.67,-162.5 1276.67,-159 1266.67,-155.5 1266.67,-162.5"/>
</g>
<!-- CacheWrapperModule -->
<g id="node2" class="node">
<title>CacheWrapperModule</title>
<polygon fill="#8dd3c7" stroke="black" points="814,-122 811,-126 790,-126 787,-122 670,-122 670,-86 814,-86 814,-122"/>
<text text-anchor="middle" x="742" y="-99.8" font-family="Times,serif" font-size="14.00">CacheWrapperModule</text>
</g>
<!-- CacheWrapperModule&#45;&gt;AuthenticationModule -->
<g id="edge2" class="edge">
<title>CacheWrapperModule&#45;&gt;AuthenticationModule</title>
<path fill="none" stroke="black" d="M742,-122.02C742,-139.37 742,-163 742,-163 742,-163 1266.7,-163 1266.7,-163"/>
<polygon fill="black" stroke="black" points="1266.7,-166.5 1276.7,-163 1266.7,-159.5 1266.7,-166.5"/>
</g>
<!-- IdentityManagementModule -->
<g id="node3" class="node">
<title>IdentityManagementModule</title>
<polygon fill="#8dd3c7" stroke="black" points="652.18,-122 649.18,-126 628.18,-126 625.18,-122 475.82,-122 475.82,-86 652.18,-86 652.18,-122"/>
<text text-anchor="middle" x="564" y="-99.8" font-family="Times,serif" font-size="14.00">IdentityManagementModule</text>
</g>
<!-- IdentityManagementModule&#45;&gt;AuthenticationModule -->
<g id="edge3" class="edge">
<title>IdentityManagementModule&#45;&gt;AuthenticationModule</title>
<path fill="none" stroke="black" d="M564,-122.22C564,-140.83 564,-167 564,-167 564,-167 1266.7,-167 1266.7,-167"/>
<polygon fill="black" stroke="black" points="1266.7,-170.5 1276.7,-167 1266.69,-163.5 1266.7,-170.5"/>
</g>
<!-- LoggerModule -->
<g id="node4" class="node">
<title>LoggerModule</title>
<polygon fill="#8dd3c7" stroke="black" points="457.98,-122 454.98,-126 433.98,-126 430.98,-122 358.02,-122 358.02,-86 457.98,-86 457.98,-122"/>
<text text-anchor="middle" x="408" y="-99.8" font-family="Times,serif" font-size="14.00">LoggerModule</text>
</g>
<!-- LoggerModule&#45;&gt;AuthenticationModule -->
<g id="edge4" class="edge">
<title>LoggerModule&#45;&gt;AuthenticationModule</title>
<path fill="none" stroke="black" d="M408,-122.31C408,-142.15 408,-171 408,-171 408,-171 1266.58,-171 1266.58,-171"/>
<polygon fill="black" stroke="black" points="1266.58,-174.5 1276.58,-171 1266.58,-167.5 1266.58,-174.5"/>
</g>
<!-- OauthModule -->
<g id="node5" class="node">
<title>OauthModule</title>
<polygon fill="#8dd3c7" stroke="black" points="339.76,-122 336.76,-126 315.76,-126 312.76,-122 246.24,-122 246.24,-86 339.76,-86 339.76,-122"/>
<text text-anchor="middle" x="293" y="-99.8" font-family="Times,serif" font-size="14.00">OauthModule</text>
</g>
<!-- OauthModule&#45;&gt;AuthenticationModule -->
<g id="edge5" class="edge">
<title>OauthModule&#45;&gt;AuthenticationModule</title>
<path fill="none" stroke="black" d="M293,-122.28C293,-143.32 293,-175 293,-175 293,-175 1266.73,-175 1266.73,-175"/>
<polygon fill="black" stroke="black" points="1266.73,-178.5 1276.73,-175 1266.73,-171.5 1266.73,-178.5"/>
</g>
<!-- RoleModule -->
<g id="node6" class="node">
<title>RoleModule</title>
<polygon fill="#8dd3c7" stroke="black" points="227.99,-122 224.99,-126 203.99,-126 200.99,-122 142.01,-122 142.01,-86 227.99,-86 227.99,-122"/>
<text text-anchor="middle" x="185" y="-99.8" font-family="Times,serif" font-size="14.00">RoleModule</text>
</g>
<!-- RoleModule&#45;&gt;AuthenticationModule -->
<g id="edge6" class="edge">
<title>RoleModule&#45;&gt;AuthenticationModule</title>
<path fill="none" stroke="black" d="M185,-122.16C185,-144.35 185,-179 185,-179 185,-179 1266.56,-179 1266.56,-179"/>
<polygon fill="black" stroke="black" points="1266.56,-182.5 1276.56,-179 1266.56,-175.5 1266.56,-182.5"/>
</g>
<!-- SystemModule -->
<g id="node7" class="node">
<title>SystemModule</title>
<polygon fill="#8dd3c7" stroke="black" points="124.27,-122 121.27,-126 100.27,-126 97.27,-122 23.73,-122 23.73,-86 124.27,-86 124.27,-122"/>
<text text-anchor="middle" x="74" y="-99.8" font-family="Times,serif" font-size="14.00">SystemModule</text>
</g>
<!-- SystemModule&#45;&gt;AuthenticationModule -->
<g id="edge7" class="edge">
<title>SystemModule&#45;&gt;AuthenticationModule</title>
<path fill="none" stroke="black" d="M74,-122.32C74,-145.66 74,-183 74,-183 74,-183 1266.31,-183 1266.31,-183"/>
<polygon fill="black" stroke="black" points="1266.31,-186.5 1276.31,-183 1266.31,-179.5 1266.31,-186.5"/>
</g>
<!-- AuthenticationService  -->
<g id="node9" class="node">
<title>AuthenticationService </title>
<polygon fill="#fb8072" stroke="black" points="1420.18,-252 1275.82,-252 1275.82,-216 1420.18,-216 1420.18,-252"/>
<text text-anchor="middle" x="1348" y="-229.8" font-family="Times,serif" font-size="14.00">AuthenticationService </text>
</g>
<!-- AuthenticationModule&#45;&gt;AuthenticationService  -->
<g id="edge8" class="edge">
<title>AuthenticationModule&#45;&gt;AuthenticationService </title>
<path fill="none" stroke="black" stroke-dasharray="5,2" d="M1348,-187.11C1348,-187.11 1348,-205.99 1348,-205.99"/>
<polygon fill="black" stroke="black" points="1344.5,-205.99 1348,-215.99 1351.5,-205.99 1344.5,-205.99"/>
</g>
<!-- AuthenticationService -->
<g id="node10" class="node">
<title>AuthenticationService</title>
<ellipse fill="#fdb462" stroke="black" cx="2832" cy="-104" rx="97.27" ry="18"/>
<text text-anchor="middle" x="2832" y="-99.8" font-family="Times,serif" font-size="14.00">AuthenticationService</text>
</g>
<!-- AuthenticationService&#45;&gt;AuthenticationModule -->
<g id="edge9" class="edge">
<title>AuthenticationService&#45;&gt;AuthenticationModule</title>
<path fill="none" stroke="black" d="M2832,-122.32C2832,-145.66 2832,-183 2832,-183 2832,-183 1429.58,-183 1429.58,-183"/>
<polygon fill="black" stroke="black" points="1429.58,-179.5 1419.58,-183 1429.58,-186.5 1429.58,-179.5"/>
</g>
<!-- JwtStrategy -->
<g id="node11" class="node">
<title>JwtStrategy</title>
<ellipse fill="#fdb462" stroke="black" cx="2660" cy="-104" rx="56.76" ry="18"/>
<text text-anchor="middle" x="2660" y="-99.8" font-family="Times,serif" font-size="14.00">JwtStrategy</text>
</g>
<!-- JwtStrategy&#45;&gt;AuthenticationModule -->
<g id="edge10" class="edge">
<title>JwtStrategy&#45;&gt;AuthenticationModule</title>
<path fill="none" stroke="black" d="M2660,-122.16C2660,-144.35 2660,-179 2660,-179 2660,-179 1429.47,-179 1429.47,-179"/>
<polygon fill="black" stroke="black" points="1429.47,-175.5 1419.47,-179 1429.47,-182.5 1429.47,-175.5"/>
</g>
<!-- JwtValidationAdapter -->
<g id="node12" class="node">
<title>JwtValidationAdapter</title>
<ellipse fill="#fdb462" stroke="black" cx="2489" cy="-104" rx="96.12" ry="18"/>
<text text-anchor="middle" x="2489" y="-99.8" font-family="Times,serif" font-size="14.00">JwtValidationAdapter</text>
</g>
<!-- JwtValidationAdapter&#45;&gt;AuthenticationModule -->
<g id="edge11" class="edge">
<title>JwtValidationAdapter&#45;&gt;AuthenticationModule</title>
<path fill="none" stroke="black" d="M2489,-122.28C2489,-143.32 2489,-175 2489,-175 2489,-175 1429.37,-175 1429.37,-175"/>
<polygon fill="black" stroke="black" points="1429.37,-171.5 1419.37,-175 1429.37,-178.5 1429.37,-171.5"/>
</g>
<!-- LdapService -->
<g id="node13" class="node">
<title>LdapService</title>
<ellipse fill="#fdb462" stroke="black" cx="2315" cy="-104" rx="59.67" ry="18"/>
<text text-anchor="middle" x="2315" y="-99.8" font-family="Times,serif" font-size="14.00">LdapService</text>
</g>
<!-- LdapService&#45;&gt;AuthenticationModule -->
<g id="edge12" class="edge">
<title>LdapService&#45;&gt;AuthenticationModule</title>
<path fill="none" stroke="black" d="M2315,-122.31C2315,-142.15 2315,-171 2315,-171 2315,-171 1429.5,-171 1429.5,-171"/>
<polygon fill="black" stroke="black" points="1429.5,-167.5 1419.5,-171 1429.5,-174.5 1429.5,-167.5"/>
</g>
<!-- LdapStrategy -->
<g id="node14" class="node">
<title>LdapStrategy</title>
<ellipse fill="#fdb462" stroke="black" cx="2174" cy="-104" rx="63.12" ry="18"/>
<text text-anchor="middle" x="2174" y="-99.8" font-family="Times,serif" font-size="14.00">LdapStrategy</text>
</g>
<!-- LdapStrategy&#45;&gt;AuthenticationModule -->
<g id="edge13" class="edge">
<title>LdapStrategy&#45;&gt;AuthenticationModule</title>
<path fill="none" stroke="black" d="M2174,-122.22C2174,-140.83 2174,-167 2174,-167 2174,-167 1429.5,-167 1429.5,-167"/>
<polygon fill="black" stroke="black" points="1429.5,-163.5 1419.5,-167 1429.5,-170.5 1429.5,-163.5"/>
</g>
<!-- LegacySchoolRepo -->
<g id="node15" class="node">
<title>LegacySchoolRepo</title>
<ellipse fill="#fdb462" stroke="black" cx="2006" cy="-104" rx="86.82" ry="18"/>
<text text-anchor="middle" x="2006" y="-99.8" font-family="Times,serif" font-size="14.00">LegacySchoolRepo</text>
</g>
<!-- LegacySchoolRepo&#45;&gt;AuthenticationModule -->
<g id="edge14" class="edge">
<title>LegacySchoolRepo&#45;&gt;AuthenticationModule</title>
<path fill="none" stroke="black" d="M2006,-122.02C2006,-139.37 2006,-163 2006,-163 2006,-163 1429.36,-163 1429.36,-163"/>
<polygon fill="black" stroke="black" points="1429.36,-159.5 1419.36,-163 1429.36,-166.5 1429.36,-159.5"/>
</g>
<!-- LegacySystemRepo -->
<g id="node16" class="node">
<title>LegacySystemRepo</title>
<ellipse fill="#fdb462" stroke="black" cx="1813" cy="-104" rx="88.04" ry="18"/>
<text text-anchor="middle" x="1813" y="-99.8" font-family="Times,serif" font-size="14.00">LegacySystemRepo</text>
</g>
<!-- LegacySystemRepo&#45;&gt;AuthenticationModule -->
<g id="edge15" class="edge">
<title>LegacySystemRepo&#45;&gt;AuthenticationModule</title>
<path fill="none" stroke="black" d="M1813,-122.01C1813,-138.05 1813,-159 1813,-159 1813,-159 1429.38,-159 1429.38,-159"/>
<polygon fill="black" stroke="black" points="1429.38,-155.5 1419.38,-159 1429.38,-162.5 1429.38,-155.5"/>
</g>
<!-- LocalStrategy -->
<g id="node17" class="node">
<title>LocalStrategy</title>
<ellipse fill="#fdb462" stroke="black" cx="1642" cy="-104" rx="65.41" ry="18"/>
<text text-anchor="middle" x="1642" y="-99.8" font-family="Times,serif" font-size="14.00">LocalStrategy</text>
</g>
<!-- LocalStrategy&#45;&gt;AuthenticationModule -->
<g id="edge16" class="edge">
<title>LocalStrategy&#45;&gt;AuthenticationModule</title>
<path fill="none" stroke="black" d="M1642,-122.12C1642,-136.78 1642,-155 1642,-155 1642,-155 1429.54,-155 1429.54,-155"/>
<polygon fill="black" stroke="black" points="1429.54,-151.5 1419.54,-155 1429.54,-158.5 1429.54,-151.5"/>
</g>
<!-- Oauth2Strategy -->
<g id="node18" class="node">
<title>Oauth2Strategy</title>
<ellipse fill="#fdb462" stroke="black" cx="1487" cy="-104" rx="71.79" ry="18"/>
<text text-anchor="middle" x="1487" y="-99.8" font-family="Times,serif" font-size="14.00">Oauth2Strategy</text>
</g>
<!-- Oauth2Strategy&#45;&gt;AuthenticationModule -->
<g id="edge17" class="edge">
<title>Oauth2Strategy&#45;&gt;AuthenticationModule</title>
<path fill="none" stroke="black" d="M1415.12,-104C1409.82,-104 1406.5,-104 1406.5,-104 1406.5,-104 1406.5,-140.89 1406.5,-140.89"/>
<polygon fill="black" stroke="black" points="1403,-140.89 1406.5,-150.89 1410,-140.89 1403,-140.89"/>
</g>
<!-- UserRepo -->
<g id="node19" class="node">
<title>UserRepo</title>
<ellipse fill="#fdb462" stroke="black" cx="1348" cy="-104" rx="49.8" ry="18"/>
<text text-anchor="middle" x="1348" y="-99.8" font-family="Times,serif" font-size="14.00">UserRepo</text>
</g>
<!-- UserRepo&#45;&gt;AuthenticationModule -->
<g id="edge18" class="edge">
<title>UserRepo&#45;&gt;AuthenticationModule</title>
<path fill="none" stroke="black" d="M1348,-122.11C1348,-122.11 1348,-140.99 1348,-140.99"/>
<polygon fill="black" stroke="black" points="1344.5,-140.99 1348,-150.99 1351.5,-140.99 1344.5,-140.99"/>
</g>
<!-- WsJwtStrategy -->
<g id="node20" class="node">
<title>WsJwtStrategy</title>
<ellipse fill="#fdb462" stroke="black" cx="1211" cy="-104" rx="69.5" ry="18"/>
<text text-anchor="middle" x="1211" y="-99.8" font-family="Times,serif" font-size="14.00">WsJwtStrategy</text>
</g>
<!-- WsJwtStrategy&#45;&gt;AuthenticationModule -->
<g id="edge19" class="edge">
<title>WsJwtStrategy&#45;&gt;AuthenticationModule</title>
<path fill="none" stroke="black" d="M1280.73,-104C1286.06,-104 1289.42,-104 1289.42,-104 1289.42,-104 1289.42,-140.89 1289.42,-140.89"/>
<polygon fill="black" stroke="black" points="1285.93,-140.89 1289.42,-150.89 1292.93,-140.89 1285.93,-140.89"/>
</g>
<!-- XApiKeyStrategy -->
<g id="node21" class="node">
<title>XApiKeyStrategy</title>
<ellipse fill="#fdb462" stroke="black" cx="1043" cy="-104" rx="80.52" ry="18"/>
<text text-anchor="middle" x="1043" y="-99.8" font-family="Times,serif" font-size="14.00">XApiKeyStrategy</text>
</g>
<!-- XApiKeyStrategy&#45;&gt;AuthenticationModule -->
<g id="edge20" class="edge">
<title>XApiKeyStrategy&#45;&gt;AuthenticationModule</title>
<path fill="none" stroke="black" d="M1043,-122.12C1043,-136.78 1043,-155 1043,-155 1043,-155 1266.49,-155 1266.49,-155"/>
<polygon fill="black" stroke="black" points="1266.49,-158.5 1276.49,-155 1266.49,-151.5 1266.49,-158.5"/>
</g>
</g>
</svg>
