<?xml version="1.0" encoding="UTF-8" standalone="no"?>
<!DOCTYPE svg PUBLIC "-//W3C//DTD SVG 1.1//EN"
 "http://www.w3.org/Graphics/SVG/1.1/DTD/svg11.dtd">
<!-- Generated by graphviz version 2.47.0 (20210316.0004)
 -->
<!-- Title: dependencies Pages: 1 -->
<svg width="2625pt" height="284pt"
 viewBox="0.00 0.00 2625.00 284.00" xmlns="http://www.w3.org/2000/svg" xmlns:xlink="http://www.w3.org/1999/xlink">
<g id="graph0" class="graph" transform="scale(1 1) rotate(0) translate(4 280)">
<title>dependencies</title>
<polygon fill="white" stroke="transparent" points="-4,4 -4,-280 2621,-280 2621,4 -4,4"/>
<text text-anchor="start" x="1287.51" y="-42.4" font-family="Times-12" font-weight="bold" font-size="14.00">Legend</text>
<polygon fill="#ffffb3" stroke="transparent" points="1074.5,-10 1074.5,-30 1094.5,-30 1094.5,-10 1074.5,-10"/>
<text text-anchor="start" x="1098.13" y="-15.4" font-family="Times-12" font-size="14.00"> &#160;Declarations</text>
<polygon fill="#8dd3c7" stroke="transparent" points="1187.5,-10 1187.5,-30 1207.5,-30 1207.5,-10 1187.5,-10"/>
<text text-anchor="start" x="1211.23" y="-15.4" font-family="Times-12" font-size="14.00"> &#160;Module</text>
<polygon fill="#80b1d3" stroke="transparent" points="1273.5,-10 1273.5,-30 1293.5,-30 1293.5,-10 1273.5,-10"/>
<text text-anchor="start" x="1297.28" y="-15.4" font-family="Times-12" font-size="14.00"> &#160;Bootstrap</text>
<polygon fill="#fdb462" stroke="transparent" points="1370.5,-10 1370.5,-30 1390.5,-30 1390.5,-10 1370.5,-10"/>
<text text-anchor="start" x="1394.17" y="-15.4" font-family="Times-12" font-size="14.00"> &#160;Providers</text>
<polygon fill="#fb8072" stroke="transparent" points="1466.5,-10 1466.5,-30 1486.5,-30 1486.5,-10 1466.5,-10"/>
<text text-anchor="start" x="1490.23" y="-15.4" font-family="Times-12" font-size="14.00"> &#160;Exports</text>
<g id="clust1" class="cluster">
<title>cluster_AuthenticationModule</title>
<polygon fill="none" stroke="black" stroke-dasharray="1,5" points="8,-70 8,-268 2609,-268 2609,-70 8,-70"/>
</g>
<g id="clust6" class="cluster">
<title>cluster_AuthenticationModule_providers</title>
<polygon fill="none" stroke="black" points="954,-78 954,-130 2601,-130 2601,-78 954,-78"/>
</g>
<g id="clust4" class="cluster">
<title>cluster_AuthenticationModule_exports</title>
<polygon fill="none" stroke="black" points="1071,-208 1071,-260 1231,-260 1231,-208 1071,-208"/>
</g>
<g id="clust3" class="cluster">
<title>cluster_AuthenticationModule_imports</title>
<polygon fill="none" stroke="black" points="16,-78 16,-130 946,-130 946,-78 16,-78"/>
</g>
<!-- AccountModule -->
<g id="node1" class="node">
<title>AccountModule</title>
<polygon fill="#8dd3c7" stroke="black" points="938.48,-122 935.48,-126 914.48,-126 911.48,-122 831.52,-122 831.52,-86 938.48,-86 938.48,-122"/>
<text text-anchor="middle" x="885" y="-99.8" font-family="Times,serif" font-size="14.00">AccountModule</text>
</g>
<!-- AuthenticationModule -->
<g id="node8" class="node">
<title>AuthenticationModule</title>
<polygon fill="#8dd3c7" stroke="black" points="1222.25,-187 1219.25,-191 1198.25,-191 1195.25,-187 1079.75,-187 1079.75,-151 1222.25,-151 1222.25,-187"/>
<text text-anchor="middle" x="1151" y="-164.8" font-family="Times,serif" font-size="14.00">AuthenticationModule</text>
</g>
<!-- AccountModule&#45;&gt;AuthenticationModule -->
<g id="edge1" class="edge">
<title>AccountModule&#45;&gt;AuthenticationModule</title>
<path fill="none" stroke="black" d="M885,-122.01C885,-138.05 885,-159 885,-159 885,-159 1069.72,-159 1069.72,-159"/>
<polygon fill="black" stroke="black" points="1069.72,-162.5 1079.72,-159 1069.72,-155.5 1069.72,-162.5"/>
</g>
<!-- CacheWrapperModule -->
<g id="node2" class="node">
<title>CacheWrapperModule</title>
<polygon fill="#8dd3c7" stroke="black" points="814,-122 811,-126 790,-126 787,-122 670,-122 670,-86 814,-86 814,-122"/>
<text text-anchor="middle" x="742" y="-99.8" font-family="Times,serif" font-size="14.00">CacheWrapperModule</text>
</g>
<!-- CacheWrapperModule&#45;&gt;AuthenticationModule -->
<g id="edge2" class="edge">
<title>CacheWrapperModule&#45;&gt;AuthenticationModule</title>
<path fill="none" stroke="black" d="M742,-122.02C742,-139.37 742,-163 742,-163 742,-163 1069.29,-163 1069.29,-163"/>
<polygon fill="black" stroke="black" points="1069.29,-166.5 1079.29,-163 1069.29,-159.5 1069.29,-166.5"/>
</g>
<!-- IdentityManagementModule -->
<g id="node3" class="node">
<title>IdentityManagementModule</title>
<polygon fill="#8dd3c7" stroke="black" points="652.18,-122 649.18,-126 628.18,-126 625.18,-122 475.82,-122 475.82,-86 652.18,-86 652.18,-122"/>
<text text-anchor="middle" x="564" y="-99.8" font-family="Times,serif" font-size="14.00">IdentityManagementModule</text>
</g>
<!-- IdentityManagementModule&#45;&gt;AuthenticationModule -->
<g id="edge3" class="edge">
<title>IdentityManagementModule&#45;&gt;AuthenticationModule</title>
<path fill="none" stroke="black" d="M564,-122.22C564,-140.83 564,-167 564,-167 564,-167 1069.61,-167 1069.61,-167"/>
<polygon fill="black" stroke="black" points="1069.61,-170.5 1079.61,-167 1069.61,-163.5 1069.61,-170.5"/>
</g>
<!-- LoggerModule -->
<g id="node4" class="node">
<title>LoggerModule</title>
<polygon fill="#8dd3c7" stroke="black" points="457.98,-122 454.98,-126 433.98,-126 430.98,-122 358.02,-122 358.02,-86 457.98,-86 457.98,-122"/>
<text text-anchor="middle" x="408" y="-99.8" font-family="Times,serif" font-size="14.00">LoggerModule</text>
</g>
<!-- LoggerModule&#45;&gt;AuthenticationModule -->
<g id="edge4" class="edge">
<title>LoggerModule&#45;&gt;AuthenticationModule</title>
<path fill="none" stroke="black" d="M408,-122.31C408,-142.15 408,-171 408,-171 408,-171 1069.42,-171 1069.42,-171"/>
<polygon fill="black" stroke="black" points="1069.42,-174.5 1079.42,-171 1069.42,-167.5 1069.42,-174.5"/>
</g>
<!-- OauthModule -->
<g id="node5" class="node">
<title>OauthModule</title>
<polygon fill="#8dd3c7" stroke="black" points="339.76,-122 336.76,-126 315.76,-126 312.76,-122 246.24,-122 246.24,-86 339.76,-86 339.76,-122"/>
<text text-anchor="middle" x="293" y="-99.8" font-family="Times,serif" font-size="14.00">OauthModule</text>
</g>
<!-- OauthModule&#45;&gt;AuthenticationModule -->
<g id="edge5" class="edge">
<title>OauthModule&#45;&gt;AuthenticationModule</title>
<path fill="none" stroke="black" d="M293,-122.28C293,-143.32 293,-175 293,-175 293,-175 1069.69,-175 1069.69,-175"/>
<polygon fill="black" stroke="black" points="1069.69,-178.5 1079.69,-175 1069.69,-171.5 1069.69,-178.5"/>
</g>
<!-- RoleModule -->
<g id="node6" class="node">
<title>RoleModule</title>
<polygon fill="#8dd3c7" stroke="black" points="227.99,-122 224.99,-126 203.99,-126 200.99,-122 142.01,-122 142.01,-86 227.99,-86 227.99,-122"/>
<text text-anchor="middle" x="185" y="-99.8" font-family="Times,serif" font-size="14.00">RoleModule</text>
</g>
<!-- RoleModule&#45;&gt;AuthenticationModule -->
<g id="edge6" class="edge">
<title>RoleModule&#45;&gt;AuthenticationModule</title>
<path fill="none" stroke="black" d="M185,-122.16C185,-144.35 185,-179 185,-179 185,-179 1069.58,-179 1069.58,-179"/>
<polygon fill="black" stroke="black" points="1069.58,-182.5 1079.58,-179 1069.58,-175.5 1069.58,-182.5"/>
</g>
<!-- SystemModule -->
<g id="node7" class="node">
<title>SystemModule</title>
<polygon fill="#8dd3c7" stroke="black" points="124.27,-122 121.27,-126 100.27,-126 97.27,-122 23.73,-122 23.73,-86 124.27,-86 124.27,-122"/>
<text text-anchor="middle" x="74" y="-99.8" font-family="Times,serif" font-size="14.00">SystemModule</text>
</g>
<!-- SystemModule&#45;&gt;AuthenticationModule -->
<g id="edge7" class="edge">
<title>SystemModule&#45;&gt;AuthenticationModule</title>
<path fill="none" stroke="black" d="M74,-122.32C74,-145.66 74,-183 74,-183 74,-183 1069.5,-183 1069.5,-183"/>
<polygon fill="black" stroke="black" points="1069.5,-186.5 1079.5,-183 1069.5,-179.5 1069.5,-186.5"/>
</g>
<!-- AuthenticationService  -->
<g id="node9" class="node">
<title>AuthenticationService </title>
<polygon fill="#fb8072" stroke="black" points="1223.18,-252 1078.82,-252 1078.82,-216 1223.18,-216 1223.18,-252"/>
<text text-anchor="middle" x="1151" y="-229.8" font-family="Times,serif" font-size="14.00">AuthenticationService </text>
</g>
<!-- AuthenticationModule&#45;&gt;AuthenticationService  -->
<g id="edge8" class="edge">
<title>AuthenticationModule&#45;&gt;AuthenticationService </title>
<path fill="none" stroke="black" stroke-dasharray="5,2" d="M1151,-187.11C1151,-187.11 1151,-205.99 1151,-205.99"/>
<polygon fill="black" stroke="black" points="1147.5,-205.99 1151,-215.99 1154.5,-205.99 1147.5,-205.99"/>
</g>
<!-- AuthenticationService -->
<g id="node10" class="node">
<title>AuthenticationService</title>
<ellipse fill="#fdb462" stroke="black" cx="2496" cy="-104" rx="97.27" ry="18"/>
<text text-anchor="middle" x="2496" y="-99.8" font-family="Times,serif" font-size="14.00">AuthenticationService</text>
</g>
<!-- AuthenticationService&#45;&gt;AuthenticationModule -->
<g id="edge9" class="edge">
<title>AuthenticationService&#45;&gt;AuthenticationModule</title>
<path fill="none" stroke="black" d="M2496,-122.32C2496,-145.66 2496,-183 2496,-183 2496,-183 1232.36,-183 1232.36,-183"/>
<polygon fill="black" stroke="black" points="1232.36,-179.5 1222.36,-183 1232.36,-186.5 1232.36,-179.5"/>
</g>
<!-- JwtStrategy -->
<g id="node11" class="node">
<title>JwtStrategy</title>
<ellipse fill="#fdb462" stroke="black" cx="2324" cy="-104" rx="56.76" ry="18"/>
<text text-anchor="middle" x="2324" y="-99.8" font-family="Times,serif" font-size="14.00">JwtStrategy</text>
</g>
<!-- JwtStrategy&#45;&gt;AuthenticationModule -->
<g id="edge10" class="edge">
<title>JwtStrategy&#45;&gt;AuthenticationModule</title>
<path fill="none" stroke="black" d="M2324,-122.16C2324,-144.35 2324,-179 2324,-179 2324,-179 1232.61,-179 1232.61,-179"/>
<polygon fill="black" stroke="black" points="1232.61,-175.5 1222.61,-179 1232.61,-182.5 1232.61,-175.5"/>
</g>
<!-- JwtValidationAdapter -->
<g id="node12" class="node">
<title>JwtValidationAdapter</title>
<ellipse fill="#fdb462" stroke="black" cx="2153" cy="-104" rx="96.12" ry="18"/>
<text text-anchor="middle" x="2153" y="-99.8" font-family="Times,serif" font-size="14.00">JwtValidationAdapter</text>
</g>
<!-- JwtValidationAdapter&#45;&gt;AuthenticationModule -->
<g id="edge11" class="edge">
<title>JwtValidationAdapter&#45;&gt;AuthenticationModule</title>
<path fill="none" stroke="black" d="M2153,-122.28C2153,-143.32 2153,-175 2153,-175 2153,-175 1232.26,-175 1232.26,-175"/>
<polygon fill="black" stroke="black" points="1232.26,-171.5 1222.26,-175 1232.26,-178.5 1232.26,-171.5"/>
</g>
<!-- LdapService -->
<g id="node13" class="node">
<title>LdapService</title>
<ellipse fill="#fdb462" stroke="black" cx="1979" cy="-104" rx="59.67" ry="18"/>
<text text-anchor="middle" x="1979" y="-99.8" font-family="Times,serif" font-size="14.00">LdapService</text>
</g>
<!-- LdapService&#45;&gt;AuthenticationModule -->
<g id="edge12" class="edge">
<title>LdapService&#45;&gt;AuthenticationModule</title>
<path fill="none" stroke="black" d="M1979,-122.31C1979,-142.15 1979,-171 1979,-171 1979,-171 1232.31,-171 1232.31,-171"/>
<polygon fill="black" stroke="black" points="1232.31,-167.5 1222.31,-171 1232.31,-174.5 1232.31,-167.5"/>
</g>
<!-- LdapStrategy -->
<g id="node14" class="node">
<title>LdapStrategy</title>
<ellipse fill="#fdb462" stroke="black" cx="1838" cy="-104" rx="63.12" ry="18"/>
<text text-anchor="middle" x="1838" y="-99.8" font-family="Times,serif" font-size="14.00">LdapStrategy</text>
</g>
<!-- LdapStrategy&#45;&gt;AuthenticationModule -->
<g id="edge13" class="edge">
<title>LdapStrategy&#45;&gt;AuthenticationModule</title>
<path fill="none" stroke="black" d="M1838,-122.22C1838,-140.83 1838,-167 1838,-167 1838,-167 1232.25,-167 1232.25,-167"/>
<polygon fill="black" stroke="black" points="1232.25,-163.5 1222.25,-167 1232.25,-170.5 1232.25,-163.5"/>
</g>
<!-- LegacySchoolRepo -->
<g id="node15" class="node">
<title>LegacySchoolRepo</title>
<ellipse fill="#fdb462" stroke="black" cx="1670" cy="-104" rx="86.82" ry="18"/>
<text text-anchor="middle" x="1670" y="-99.8" font-family="Times,serif" font-size="14.00">LegacySchoolRepo</text>
</g>
<!-- LegacySchoolRepo&#45;&gt;AuthenticationModule -->
<g id="edge14" class="edge">
<title>LegacySchoolRepo&#45;&gt;AuthenticationModule</title>
<path fill="none" stroke="black" d="M1670,-122.02C1670,-139.37 1670,-163 1670,-163 1670,-163 1232.35,-163 1232.35,-163"/>
<polygon fill="black" stroke="black" points="1232.35,-159.5 1222.35,-163 1232.35,-166.5 1232.35,-159.5"/>
</g>
<!-- LegacySystemRepo -->
<g id="node16" class="node">
<title>LegacySystemRepo</title>
<ellipse fill="#fdb462" stroke="black" cx="1477" cy="-104" rx="88.04" ry="18"/>
<text text-anchor="middle" x="1477" y="-99.8" font-family="Times,serif" font-size="14.00">LegacySystemRepo</text>
</g>
<!-- LegacySystemRepo&#45;&gt;AuthenticationModule -->
<g id="edge15" class="edge">
<title>LegacySystemRepo&#45;&gt;AuthenticationModule</title>
<path fill="none" stroke="black" d="M1477,-122.01C1477,-138.05 1477,-159 1477,-159 1477,-159 1232.54,-159 1232.54,-159"/>
<polygon fill="black" stroke="black" points="1232.54,-155.5 1222.54,-159 1232.54,-162.5 1232.54,-155.5"/>
</g>
<!-- LocalStrategy -->
<g id="node17" class="node">
<title>LocalStrategy</title>
<ellipse fill="#fdb462" stroke="black" cx="1306" cy="-104" rx="65.41" ry="18"/>
<text text-anchor="middle" x="1306" y="-99.8" font-family="Times,serif" font-size="14.00">LocalStrategy</text>
</g>
<!-- LocalStrategy&#45;&gt;AuthenticationModule -->
<g id="edge16" class="edge">
<title>LocalStrategy&#45;&gt;AuthenticationModule</title>
<path fill="none" stroke="black" d="M1306,-122.12C1306,-136.78 1306,-155 1306,-155 1306,-155 1232.6,-155 1232.6,-155"/>
<polygon fill="black" stroke="black" points="1232.6,-151.5 1222.6,-155 1232.6,-158.5 1232.6,-151.5"/>
</g>
<!-- Oauth2Strategy -->
<g id="node18" class="node">
<title>Oauth2Strategy</title>
<ellipse fill="#fdb462" stroke="black" cx="1151" cy="-104" rx="71.79" ry="18"/>
<text text-anchor="middle" x="1151" y="-99.8" font-family="Times,serif" font-size="14.00">Oauth2Strategy</text>
</g>
<!-- Oauth2Strategy&#45;&gt;AuthenticationModule -->
<g id="edge17" class="edge">
<title>Oauth2Strategy&#45;&gt;AuthenticationModule</title>
<path fill="none" stroke="black" d="M1151,-122.11C1151,-122.11 1151,-140.99 1151,-140.99"/>
<polygon fill="black" stroke="black" points="1147.5,-140.99 1151,-150.99 1154.5,-140.99 1147.5,-140.99"/>
</g>
<!-- UserRepo -->
<g id="node19" class="node">
<title>UserRepo</title>
<ellipse fill="#fdb462" stroke="black" cx="1012" cy="-104" rx="49.8" ry="18"/>
<text text-anchor="middle" x="1012" y="-99.8" font-family="Times,serif" font-size="14.00">UserRepo</text>
</g>
<!-- UserRepo&#45;&gt;AuthenticationModule -->
<g id="edge18" class="edge">
<title>UserRepo&#45;&gt;AuthenticationModule</title>
<path fill="none" stroke="black" d="M1012,-122.12C1012,-136.78 1012,-155 1012,-155 1012,-155 1069.46,-155 1069.46,-155"/>
<polygon fill="black" stroke="black" points="1069.46,-158.5 1079.46,-155 1069.46,-151.5 1069.46,-158.5"/>
</g>
</g>
</svg>
