<?xml version="1.0" encoding="UTF-8" standalone="no"?>
<!DOCTYPE svg PUBLIC "-//W3C//DTD SVG 1.1//EN"
 "http://www.w3.org/Graphics/SVG/1.1/DTD/svg11.dtd">
<!-- Generated by graphviz version 2.47.0 (20210316.0004)
 -->
<!-- Title: dependencies Pages: 1 -->
<svg width="2961pt" height="284pt"
 viewBox="0.00 0.00 2961.00 284.00" xmlns="http://www.w3.org/2000/svg" xmlns:xlink="http://www.w3.org/1999/xlink">
<g id="graph0" class="graph" transform="scale(1 1) rotate(0) translate(4 280)">
<title>dependencies</title>
<polygon fill="white" stroke="transparent" points="-4,4 -4,-280 2957,-280 2957,4 -4,4"/>
<text text-anchor="start" x="1455.51" y="-42.4" font-family="Times-12" font-weight="bold" font-size="14.00">Legend</text>
<polygon fill="#ffffb3" stroke="transparent" points="1242.5,-10 1242.5,-30 1262.5,-30 1262.5,-10 1242.5,-10"/>
<text text-anchor="start" x="1266.13" y="-15.4" font-family="Times-12" font-size="14.00"> &#160;Declarations</text>
<polygon fill="#8dd3c7" stroke="transparent" points="1355.5,-10 1355.5,-30 1375.5,-30 1375.5,-10 1355.5,-10"/>
<text text-anchor="start" x="1379.23" y="-15.4" font-family="Times-12" font-size="14.00"> &#160;Module</text>
<polygon fill="#80b1d3" stroke="transparent" points="1441.5,-10 1441.5,-30 1461.5,-30 1461.5,-10 1441.5,-10"/>
<text text-anchor="start" x="1465.28" y="-15.4" font-family="Times-12" font-size="14.00"> &#160;Bootstrap</text>
<polygon fill="#fdb462" stroke="transparent" points="1538.5,-10 1538.5,-30 1558.5,-30 1558.5,-10 1538.5,-10"/>
<text text-anchor="start" x="1562.17" y="-15.4" font-family="Times-12" font-size="14.00"> &#160;Providers</text>
<polygon fill="#fb8072" stroke="transparent" points="1634.5,-10 1634.5,-30 1654.5,-30 1654.5,-10 1634.5,-10"/>
<text text-anchor="start" x="1658.23" y="-15.4" font-family="Times-12" font-size="14.00"> &#160;Exports</text>
<g id="clust1" class="cluster">
<title>cluster_AuthenticationModule</title>
<polygon fill="none" stroke="black" stroke-dasharray="1,5" points="8,-70 8,-268 2945,-268 2945,-70 8,-70"/>
</g>
<g id="clust4" class="cluster">
<title>cluster_AuthenticationModule_exports</title>
<polygon fill="none" stroke="black" points="1471,-208 1471,-260 1631,-260 1631,-208 1471,-208"/>
</g>
<g id="clust3" class="cluster">
<title>cluster_AuthenticationModule_imports</title>
<polygon fill="none" stroke="black" points="2007,-78 2007,-130 2937,-130 2937,-78 2007,-78"/>
</g>
<g id="clust6" class="cluster">
<title>cluster_AuthenticationModule_providers</title>
<polygon fill="none" stroke="black" points="16,-78 16,-130 1999,-130 1999,-78 16,-78"/>
</g>
<!-- AccountModule -->
<g id="node1" class="node">
<title>AccountModule</title>
<polygon fill="#8dd3c7" stroke="black" points="2929.48,-122 2926.48,-126 2905.48,-126 2902.48,-122 2822.52,-122 2822.52,-86 2929.48,-86 2929.48,-122"/>
<text text-anchor="middle" x="2876" y="-99.8" font-family="Times,serif" font-size="14.00">AccountModule</text>
</g>
<!-- AuthenticationModule -->
<g id="node8" class="node">
<title>AuthenticationModule</title>
<polygon fill="#8dd3c7" stroke="black" points="1622.25,-187 1619.25,-191 1598.25,-191 1595.25,-187 1479.75,-187 1479.75,-151 1622.25,-151 1622.25,-187"/>
<text text-anchor="middle" x="1551" y="-164.8" font-family="Times,serif" font-size="14.00">AuthenticationModule</text>
</g>
<!-- AccountModule&#45;&gt;AuthenticationModule -->
<g id="edge1" class="edge">
<title>AccountModule&#45;&gt;AuthenticationModule</title>
<path fill="none" stroke="black" d="M2876,-122.15C2876,-145.76 2876,-184 2876,-184 2876,-184 1632.71,-184 1632.71,-184"/>
<polygon fill="black" stroke="black" points="1632.71,-180.5 1622.71,-184 1632.71,-187.5 1632.71,-180.5"/>
</g>
<!-- CacheWrapperModule -->
<g id="node2" class="node">
<title>CacheWrapperModule</title>
<polygon fill="#8dd3c7" stroke="black" points="2805,-122 2802,-126 2781,-126 2778,-122 2661,-122 2661,-86 2805,-86 2805,-122"/>
<text text-anchor="middle" x="2733" y="-99.8" font-family="Times,serif" font-size="14.00">CacheWrapperModule</text>
</g>
<!-- CacheWrapperModule&#45;&gt;AuthenticationModule -->
<g id="edge2" class="edge">
<title>CacheWrapperModule&#45;&gt;AuthenticationModule</title>
<path fill="none" stroke="black" d="M2733,-122.01C2733,-144.49 2733,-180 2733,-180 2733,-180 1632.28,-180 1632.28,-180"/>
<polygon fill="black" stroke="black" points="1632.28,-176.5 1622.28,-180 1632.28,-183.5 1632.28,-176.5"/>
</g>
<!-- IdentityManagementModule -->
<g id="node3" class="node">
<title>IdentityManagementModule</title>
<polygon fill="#8dd3c7" stroke="black" points="2643.18,-122 2640.18,-126 2619.18,-126 2616.18,-122 2466.82,-122 2466.82,-86 2643.18,-86 2643.18,-122"/>
<text text-anchor="middle" x="2555" y="-99.8" font-family="Times,serif" font-size="14.00">IdentityManagementModule</text>
</g>
<!-- IdentityManagementModule&#45;&gt;AuthenticationModule -->
<g id="edge3" class="edge">
<title>IdentityManagementModule&#45;&gt;AuthenticationModule</title>
<path fill="none" stroke="black" d="M2555,-122.04C2555,-143.66 2555,-177 2555,-177 2555,-177 1632.4,-177 1632.4,-177"/>
<polygon fill="black" stroke="black" points="1632.4,-173.5 1622.4,-177 1632.4,-180.5 1632.4,-173.5"/>
</g>
<!-- LoggerModule -->
<g id="node4" class="node">
<title>LoggerModule</title>
<polygon fill="#8dd3c7" stroke="black" points="2448.98,-122 2445.98,-126 2424.98,-126 2421.98,-122 2349.02,-122 2349.02,-86 2448.98,-86 2448.98,-122"/>
<text text-anchor="middle" x="2399" y="-99.8" font-family="Times,serif" font-size="14.00">LoggerModule</text>
</g>
<!-- LoggerModule&#45;&gt;AuthenticationModule -->
<g id="edge4" class="edge">
<title>LoggerModule&#45;&gt;AuthenticationModule</title>
<path fill="none" stroke="black" d="M2399,-122.13C2399,-142.57 2399,-173 2399,-173 2399,-173 1632.57,-173 1632.57,-173"/>
<polygon fill="black" stroke="black" points="1632.57,-169.5 1622.57,-173 1632.57,-176.5 1632.57,-169.5"/>
</g>
<!-- OauthModule -->
<g id="node5" class="node">
<title>OauthModule</title>
<polygon fill="#8dd3c7" stroke="black" points="2330.76,-122 2327.76,-126 2306.76,-126 2303.76,-122 2237.24,-122 2237.24,-86 2330.76,-86 2330.76,-122"/>
<text text-anchor="middle" x="2284" y="-99.8" font-family="Times,serif" font-size="14.00">OauthModule</text>
</g>
<!-- OauthModule&#45;&gt;AuthenticationModule -->
<g id="edge5" class="edge">
<title>OauthModule&#45;&gt;AuthenticationModule</title>
<path fill="none" stroke="black" d="M2284,-122.11C2284,-141.34 2284,-169 2284,-169 2284,-169 1632.28,-169 1632.28,-169"/>
<polygon fill="black" stroke="black" points="1632.28,-165.5 1622.28,-169 1632.28,-172.5 1632.28,-165.5"/>
</g>
<!-- RoleModule -->
<g id="node6" class="node">
<title>RoleModule</title>
<polygon fill="#8dd3c7" stroke="black" points="2218.99,-122 2215.99,-126 2194.99,-126 2191.99,-122 2133.01,-122 2133.01,-86 2218.99,-86 2218.99,-122"/>
<text text-anchor="middle" x="2176" y="-99.8" font-family="Times,serif" font-size="14.00">RoleModule</text>
</g>
<!-- RoleModule&#45;&gt;AuthenticationModule -->
<g id="edge6" class="edge">
<title>RoleModule&#45;&gt;AuthenticationModule</title>
<path fill="none" stroke="black" d="M2176,-122.27C2176,-140.56 2176,-166 2176,-166 2176,-166 1632.39,-166 1632.39,-166"/>
<polygon fill="black" stroke="black" points="1632.39,-162.5 1622.39,-166 1632.39,-169.5 1632.39,-162.5"/>
</g>
<!-- SystemModule -->
<g id="node7" class="node">
<title>SystemModule</title>
<polygon fill="#8dd3c7" stroke="black" points="2115.27,-122 2112.27,-126 2091.27,-126 2088.27,-122 2014.73,-122 2014.73,-86 2115.27,-86 2115.27,-122"/>
<text text-anchor="middle" x="2065" y="-99.8" font-family="Times,serif" font-size="14.00">SystemModule</text>
</g>
<!-- SystemModule&#45;&gt;AuthenticationModule -->
<g id="edge7" class="edge">
<title>SystemModule&#45;&gt;AuthenticationModule</title>
<path fill="none" stroke="black" d="M2065,-122.03C2065,-139.06 2065,-162 2065,-162 2065,-162 1632.47,-162 1632.47,-162"/>
<polygon fill="black" stroke="black" points="1632.47,-158.5 1622.47,-162 1632.47,-165.5 1632.47,-158.5"/>
</g>
<!-- AuthenticationService  -->
<g id="node9" class="node">
<title>AuthenticationService </title>
<polygon fill="#fb8072" stroke="black" points="1623.18,-252 1478.82,-252 1478.82,-216 1623.18,-216 1623.18,-252"/>
<text text-anchor="middle" x="1551" y="-229.8" font-family="Times,serif" font-size="14.00">AuthenticationService </text>
</g>
<!-- AuthenticationModule&#45;&gt;AuthenticationService  -->
<g id="edge8" class="edge">
<title>AuthenticationModule&#45;&gt;AuthenticationService </title>
<path fill="none" stroke="black" stroke-dasharray="5,2" d="M1551,-187.11C1551,-187.11 1551,-205.99 1551,-205.99"/>
<polygon fill="black" stroke="black" points="1547.5,-205.99 1551,-215.99 1554.5,-205.99 1547.5,-205.99"/>
</g>
<!-- AuthenticationService -->
<g id="node10" class="node">
<title>AuthenticationService</title>
<ellipse fill="#fdb462" stroke="black" cx="1894" cy="-104" rx="97.27" ry="18"/>
<text text-anchor="middle" x="1894" y="-99.8" font-family="Times,serif" font-size="14.00">AuthenticationService</text>
</g>
<!-- AuthenticationService&#45;&gt;AuthenticationModule -->
<g id="edge9" class="edge">
<title>AuthenticationService&#45;&gt;AuthenticationModule</title>
<path fill="none" stroke="black" d="M1894,-122.01C1894,-138.05 1894,-159 1894,-159 1894,-159 1632.49,-159 1632.49,-159"/>
<polygon fill="black" stroke="black" points="1632.49,-155.5 1622.49,-159 1632.49,-162.5 1632.49,-155.5"/>
</g>
<!-- JwtStrategy -->
<g id="node11" class="node">
<title>JwtStrategy</title>
<ellipse fill="#fdb462" stroke="black" cx="1722" cy="-104" rx="56.76" ry="18"/>
<text text-anchor="middle" x="1722" y="-99.8" font-family="Times,serif" font-size="14.00">JwtStrategy</text>
</g>
<!-- JwtStrategy&#45;&gt;AuthenticationModule -->
<g id="edge10" class="edge">
<title>JwtStrategy&#45;&gt;AuthenticationModule</title>
<path fill="none" stroke="black" d="M1722,-122.12C1722,-136.78 1722,-155 1722,-155 1722,-155 1632.53,-155 1632.53,-155"/>
<polygon fill="black" stroke="black" points="1632.53,-151.5 1622.53,-155 1632.53,-158.5 1632.53,-151.5"/>
</g>
<!-- JwtValidationAdapter -->
<g id="node12" class="node">
<title>JwtValidationAdapter</title>
<ellipse fill="#fdb462" stroke="black" cx="1551" cy="-104" rx="96.12" ry="18"/>
<text text-anchor="middle" x="1551" y="-99.8" font-family="Times,serif" font-size="14.00">JwtValidationAdapter</text>
</g>
<!-- JwtValidationAdapter&#45;&gt;AuthenticationModule -->
<g id="edge11" class="edge">
<title>JwtValidationAdapter&#45;&gt;AuthenticationModule</title>
<path fill="none" stroke="black" d="M1551,-122.11C1551,-122.11 1551,-140.99 1551,-140.99"/>
<polygon fill="black" stroke="black" points="1547.5,-140.99 1551,-150.99 1554.5,-140.99 1547.5,-140.99"/>
</g>
<!-- LdapService -->
<g id="node13" class="node">
<title>LdapService</title>
<ellipse fill="#fdb462" stroke="black" cx="1377" cy="-104" rx="59.67" ry="18"/>
<text text-anchor="middle" x="1377" y="-99.8" font-family="Times,serif" font-size="14.00">LdapService</text>
</g>
<!-- LdapService&#45;&gt;AuthenticationModule -->
<g id="edge12" class="edge">
<title>LdapService&#45;&gt;AuthenticationModule</title>
<path fill="none" stroke="black" d="M1377,-122.12C1377,-136.78 1377,-155 1377,-155 1377,-155 1469.73,-155 1469.73,-155"/>
<polygon fill="black" stroke="black" points="1469.73,-158.5 1479.73,-155 1469.73,-151.5 1469.73,-158.5"/>
</g>
<!-- LdapStrategy -->
<g id="node14" class="node">
<title>LdapStrategy</title>
<ellipse fill="#fdb462" stroke="black" cx="1236" cy="-104" rx="63.12" ry="18"/>
<text text-anchor="middle" x="1236" y="-99.8" font-family="Times,serif" font-size="14.00">LdapStrategy</text>
</g>
<!-- LdapStrategy&#45;&gt;AuthenticationModule -->
<g id="edge13" class="edge">
<title>LdapStrategy&#45;&gt;AuthenticationModule</title>
<path fill="none" stroke="black" d="M1236,-122.01C1236,-138.05 1236,-159 1236,-159 1236,-159 1469.52,-159 1469.52,-159"/>
<polygon fill="black" stroke="black" points="1469.52,-162.5 1479.52,-159 1469.52,-155.5 1469.52,-162.5"/>
</g>
<!-- LegacySchoolRepo -->
<g id="node15" class="node">
<title>LegacySchoolRepo</title>
<ellipse fill="#fdb462" stroke="black" cx="1068" cy="-104" rx="86.82" ry="18"/>
<text text-anchor="middle" x="1068" y="-99.8" font-family="Times,serif" font-size="14.00">LegacySchoolRepo</text>
</g>
<!-- LegacySchoolRepo&#45;&gt;AuthenticationModule -->
<g id="edge14" class="edge">
<title>LegacySchoolRepo&#45;&gt;AuthenticationModule</title>
<path fill="none" stroke="black" d="M1068,-122.03C1068,-139.06 1068,-162 1068,-162 1068,-162 1469.73,-162 1469.73,-162"/>
<polygon fill="black" stroke="black" points="1469.73,-165.5 1479.73,-162 1469.73,-158.5 1469.73,-165.5"/>
</g>
<!-- LegacySystemRepo -->
<g id="node16" class="node">
<title>LegacySystemRepo</title>
<ellipse fill="#fdb462" stroke="black" cx="875" cy="-104" rx="88.04" ry="18"/>
<text text-anchor="middle" x="875" y="-99.8" font-family="Times,serif" font-size="14.00">LegacySystemRepo</text>
</g>
<!-- LegacySystemRepo&#45;&gt;AuthenticationModule -->
<g id="edge15" class="edge">
<title>LegacySystemRepo&#45;&gt;AuthenticationModule</title>
<path fill="none" stroke="black" d="M875,-122.27C875,-140.56 875,-166 875,-166 875,-166 1469.62,-166 1469.62,-166"/>
<polygon fill="black" stroke="black" points="1469.62,-169.5 1479.62,-166 1469.62,-162.5 1469.62,-169.5"/>
</g>
<!-- LocalStrategy -->
<g id="node17" class="node">
<title>LocalStrategy</title>
<ellipse fill="#fdb462" stroke="black" cx="704" cy="-104" rx="65.41" ry="18"/>
<text text-anchor="middle" x="704" y="-99.8" font-family="Times,serif" font-size="14.00">LocalStrategy</text>
</g>
<!-- LocalStrategy&#45;&gt;AuthenticationModule -->
<g id="edge16" class="edge">
<title>LocalStrategy&#45;&gt;AuthenticationModule</title>
<path fill="none" stroke="black" d="M704,-122.11C704,-141.34 704,-169 704,-169 704,-169 1469.52,-169 1469.52,-169"/>
<polygon fill="black" stroke="black" points="1469.52,-172.5 1479.52,-169 1469.52,-165.5 1469.52,-172.5"/>
</g>
<!-- Oauth2Strategy -->
<g id="node18" class="node">
<title>Oauth2Strategy</title>
<ellipse fill="#fdb462" stroke="black" cx="549" cy="-104" rx="71.79" ry="18"/>
<text text-anchor="middle" x="549" y="-99.8" font-family="Times,serif" font-size="14.00">Oauth2Strategy</text>
</g>
<!-- Oauth2Strategy&#45;&gt;AuthenticationModule -->
<g id="edge17" class="edge">
<title>Oauth2Strategy&#45;&gt;AuthenticationModule</title>
<path fill="none" stroke="black" d="M549,-122.13C549,-142.57 549,-173 549,-173 549,-173 1469.74,-173 1469.74,-173"/>
<polygon fill="black" stroke="black" points="1469.74,-176.5 1479.74,-173 1469.74,-169.5 1469.74,-176.5"/>
</g>
<!-- UserRepo -->
<g id="node19" class="node">
<title>UserRepo</title>
<ellipse fill="#fdb462" stroke="black" cx="410" cy="-104" rx="49.8" ry="18"/>
<text text-anchor="middle" x="410" y="-99.8" font-family="Times,serif" font-size="14.00">UserRepo</text>
</g>
<!-- UserRepo&#45;&gt;AuthenticationModule -->
<g id="edge18" class="edge">
<title>UserRepo&#45;&gt;AuthenticationModule</title>
<path fill="none" stroke="black" d="M410,-122.04C410,-143.66 410,-177 410,-177 410,-177 1469.63,-177 1469.63,-177"/>
<polygon fill="black" stroke="black" points="1469.63,-180.5 1479.63,-177 1469.63,-173.5 1469.63,-180.5"/>
</g>
<!-- WsJwtStrategy -->
<g id="node20" class="node">
<title>WsJwtStrategy</title>
<ellipse fill="#fdb462" stroke="black" cx="273" cy="-104" rx="69.5" ry="18"/>
<text text-anchor="middle" x="273" y="-99.8" font-family="Times,serif" font-size="14.00">WsJwtStrategy</text>
</g>
<!-- WsJwtStrategy&#45;&gt;AuthenticationModule -->
<g id="edge19" class="edge">
<title>WsJwtStrategy&#45;&gt;AuthenticationModule</title>
<path fill="none" stroke="black" d="M273,-122.01C273,-144.49 273,-180 273,-180 273,-180 1469.55,-180 1469.55,-180"/>
<polygon fill="black" stroke="black" points="1469.55,-183.5 1479.55,-180 1469.55,-176.5 1469.55,-183.5"/>
</g>
<!-- XApiKeyStrategy -->
<g id="node21" class="node">
<title>XApiKeyStrategy</title>
<ellipse fill="#fdb462" stroke="black" cx="105" cy="-104" rx="80.52" ry="18"/>
<text text-anchor="middle" x="105" y="-99.8" font-family="Times,serif" font-size="14.00">XApiKeyStrategy</text>
</g>
<!-- XApiKeyStrategy&#45;&gt;AuthenticationModule -->
<g id="edge20" class="edge">
<title>XApiKeyStrategy&#45;&gt;AuthenticationModule</title>
<path fill="none" stroke="black" d="M105,-122.15C105,-145.76 105,-184 105,-184 105,-184 1469.29,-184 1469.29,-184"/>
<polygon fill="black" stroke="black" points="1469.29,-187.5 1479.29,-184 1469.29,-180.5 1469.29,-187.5"/>
</g>
</g>
</svg>
