<?xml version="1.0" encoding="UTF-8" standalone="no"?>
<!DOCTYPE svg PUBLIC "-//W3C//DTD SVG 1.1//EN"
 "http://www.w3.org/Graphics/SVG/1.1/DTD/svg11.dtd">
<!-- Generated by graphviz version 2.47.0 (20210316.0004)
 -->
<!-- Title: dependencies Pages: 1 -->
<svg width="2569pt" height="284pt"
 viewBox="0.00 0.00 2569.00 284.00" xmlns="http://www.w3.org/2000/svg" xmlns:xlink="http://www.w3.org/1999/xlink">
<g id="graph0" class="graph" transform="scale(1 1) rotate(0) translate(4 280)">
<title>dependencies</title>
<polygon fill="white" stroke="transparent" points="-4,4 -4,-280 2565,-280 2565,4 -4,4"/>
<text text-anchor="start" x="1259.51" y="-42.4" font-family="Times-12" font-weight="bold" font-size="14.00">Legend</text>
<polygon fill="#ffffb3" stroke="transparent" points="1046.5,-10 1046.5,-30 1066.5,-30 1066.5,-10 1046.5,-10"/>
<text text-anchor="start" x="1070.13" y="-15.4" font-family="Times-12" font-size="14.00"> &#160;Declarations</text>
<polygon fill="#8dd3c7" stroke="transparent" points="1159.5,-10 1159.5,-30 1179.5,-30 1179.5,-10 1159.5,-10"/>
<text text-anchor="start" x="1183.23" y="-15.4" font-family="Times-12" font-size="14.00"> &#160;Module</text>
<polygon fill="#80b1d3" stroke="transparent" points="1245.5,-10 1245.5,-30 1265.5,-30 1265.5,-10 1245.5,-10"/>
<text text-anchor="start" x="1269.28" y="-15.4" font-family="Times-12" font-size="14.00"> &#160;Bootstrap</text>
<polygon fill="#fdb462" stroke="transparent" points="1342.5,-10 1342.5,-30 1362.5,-30 1362.5,-10 1342.5,-10"/>
<text text-anchor="start" x="1366.17" y="-15.4" font-family="Times-12" font-size="14.00"> &#160;Providers</text>
<polygon fill="#fb8072" stroke="transparent" points="1438.5,-10 1438.5,-30 1458.5,-30 1458.5,-10 1438.5,-10"/>
<text text-anchor="start" x="1462.23" y="-15.4" font-family="Times-12" font-size="14.00"> &#160;Exports</text>
<g id="clust1" class="cluster">
<title>cluster_AuthenticationModule</title>
<polygon fill="none" stroke="black" stroke-dasharray="1,5" points="8,-70 8,-268 2553,-268 2553,-70 8,-70"/>
</g>
<g id="clust6" class="cluster">
<title>cluster_AuthenticationModule_providers</title>
<polygon fill="none" stroke="black" points="954,-78 954,-130 2545,-130 2545,-78 954,-78"/>
</g>
<g id="clust4" class="cluster">
<title>cluster_AuthenticationModule_exports</title>
<polygon fill="none" stroke="black" points="1060,-208 1060,-260 1220,-260 1220,-208 1060,-208"/>
</g>
<g id="clust3" class="cluster">
<title>cluster_AuthenticationModule_imports</title>
<polygon fill="none" stroke="black" points="16,-78 16,-130 946,-130 946,-78 16,-78"/>
</g>
<!-- AccountModule -->
<g id="node1" class="node">
<title>AccountModule</title>
<polygon fill="#8dd3c7" stroke="black" points="938.48,-122 935.48,-126 914.48,-126 911.48,-122 831.52,-122 831.52,-86 938.48,-86 938.48,-122"/>
<text text-anchor="middle" x="885" y="-99.8" font-family="Times,serif" font-size="14.00">AccountModule</text>
</g>
<!-- AuthenticationModule -->
<g id="node8" class="node">
<title>AuthenticationModule</title>
<polygon fill="#8dd3c7" stroke="black" points="1211.25,-187 1208.25,-191 1187.25,-191 1184.25,-187 1068.75,-187 1068.75,-151 1211.25,-151 1211.25,-187"/>
<text text-anchor="middle" x="1140" y="-164.8" font-family="Times,serif" font-size="14.00">AuthenticationModule</text>
</g>
<!-- AccountModule&#45;&gt;AuthenticationModule -->
<g id="edge1" class="edge">
<title>AccountModule&#45;&gt;AuthenticationModule</title>
<path fill="none" stroke="black" d="M885,-122.19C885,-137.18 885,-156 885,-156 885,-156 1058.63,-156 1058.63,-156"/>
<polygon fill="black" stroke="black" points="1058.63,-159.5 1068.63,-156 1058.63,-152.5 1058.63,-159.5"/>
</g>
<!-- CacheWrapperModule -->
<g id="node2" class="node">
<title>CacheWrapperModule</title>
<polygon fill="#8dd3c7" stroke="black" points="814,-122 811,-126 790,-126 787,-122 670,-122 670,-86 814,-86 814,-122"/>
<text text-anchor="middle" x="742" y="-99.8" font-family="Times,serif" font-size="14.00">CacheWrapperModule</text>
</g>
<!-- CacheWrapperModule&#45;&gt;AuthenticationModule -->
<g id="edge2" class="edge">
<title>CacheWrapperModule&#45;&gt;AuthenticationModule</title>
<path fill="none" stroke="black" d="M742,-122.03C742,-138.4 742,-160 742,-160 742,-160 1058.39,-160 1058.39,-160"/>
<polygon fill="black" stroke="black" points="1058.39,-163.5 1068.39,-160 1058.39,-156.5 1058.39,-163.5"/>
</g>
<!-- IdentityManagementModule -->
<g id="node3" class="node">
<title>IdentityManagementModule</title>
<polygon fill="#8dd3c7" stroke="black" points="652.18,-122 649.18,-126 628.18,-126 625.18,-122 475.82,-122 475.82,-86 652.18,-86 652.18,-122"/>
<text text-anchor="middle" x="564" y="-99.8" font-family="Times,serif" font-size="14.00">IdentityManagementModule</text>
</g>
<!-- IdentityManagementModule&#45;&gt;AuthenticationModule -->
<g id="edge3" class="edge">
<title>IdentityManagementModule&#45;&gt;AuthenticationModule</title>
<path fill="none" stroke="black" d="M564,-122.3C564,-140.27 564,-165 564,-165 564,-165 1058.5,-165 1058.5,-165"/>
<polygon fill="black" stroke="black" points="1058.5,-168.5 1068.5,-165 1058.5,-161.5 1058.5,-168.5"/>
</g>
<!-- LoggerModule -->
<g id="node4" class="node">
<title>LoggerModule</title>
<polygon fill="#8dd3c7" stroke="black" points="457.98,-122 454.98,-126 433.98,-126 430.98,-122 358.02,-122 358.02,-86 457.98,-86 457.98,-122"/>
<text text-anchor="middle" x="408" y="-99.8" font-family="Times,serif" font-size="14.00">LoggerModule</text>
</g>
<!-- LoggerModule&#45;&gt;AuthenticationModule -->
<g id="edge4" class="edge">
<title>LoggerModule&#45;&gt;AuthenticationModule</title>
<path fill="none" stroke="black" d="M408,-122.11C408,-141.34 408,-169 408,-169 408,-169 1058.48,-169 1058.48,-169"/>
<polygon fill="black" stroke="black" points="1058.48,-172.5 1068.48,-169 1058.48,-165.5 1058.48,-172.5"/>
</g>
<!-- OauthModule -->
<g id="node5" class="node">
<title>OauthModule</title>
<polygon fill="#8dd3c7" stroke="black" points="339.76,-122 336.76,-126 315.76,-126 312.76,-122 246.24,-122 246.24,-86 339.76,-86 339.76,-122"/>
<text text-anchor="middle" x="293" y="-99.8" font-family="Times,serif" font-size="14.00">OauthModule</text>
</g>
<!-- OauthModule&#45;&gt;AuthenticationModule -->
<g id="edge5" class="edge">
<title>OauthModule&#45;&gt;AuthenticationModule</title>
<path fill="none" stroke="black" d="M293,-122.03C293,-142.77 293,-174 293,-174 293,-174 1058.52,-174 1058.52,-174"/>
<polygon fill="black" stroke="black" points="1058.52,-177.5 1068.52,-174 1058.52,-170.5 1058.52,-177.5"/>
</g>
<!-- RoleModule -->
<g id="node6" class="node">
<title>RoleModule</title>
<polygon fill="#8dd3c7" stroke="black" points="227.99,-122 224.99,-126 203.99,-126 200.99,-122 142.01,-122 142.01,-86 227.99,-86 227.99,-122"/>
<text text-anchor="middle" x="185" y="-99.8" font-family="Times,serif" font-size="14.00">RoleModule</text>
</g>
<!-- RoleModule&#45;&gt;AuthenticationModule -->
<g id="edge6" class="edge">
<title>RoleModule&#45;&gt;AuthenticationModule</title>
<path fill="none" stroke="black" d="M185,-122.29C185,-144.21 185,-178 185,-178 185,-178 1058.61,-178 1058.61,-178"/>
<polygon fill="black" stroke="black" points="1058.61,-181.5 1068.61,-178 1058.61,-174.5 1058.61,-181.5"/>
</g>
<!-- SystemModule -->
<g id="node7" class="node">
<title>SystemModule</title>
<polygon fill="#8dd3c7" stroke="black" points="124.27,-122 121.27,-126 100.27,-126 97.27,-122 23.73,-122 23.73,-86 124.27,-86 124.27,-122"/>
<text text-anchor="middle" x="74" y="-99.8" font-family="Times,serif" font-size="14.00">SystemModule</text>
</g>
<!-- SystemModule&#45;&gt;AuthenticationModule -->
<g id="edge7" class="edge">
<title>SystemModule&#45;&gt;AuthenticationModule</title>
<path fill="none" stroke="black" d="M74,-122.32C74,-145.66 74,-183 74,-183 74,-183 1058.4,-183 1058.4,-183"/>
<polygon fill="black" stroke="black" points="1058.4,-186.5 1068.4,-183 1058.4,-179.5 1058.4,-186.5"/>
</g>
<!-- AuthenticationService  -->
<g id="node9" class="node">
<title>AuthenticationService </title>
<polygon fill="#fb8072" stroke="black" points="1212.18,-252 1067.82,-252 1067.82,-216 1212.18,-216 1212.18,-252"/>
<text text-anchor="middle" x="1140" y="-229.8" font-family="Times,serif" font-size="14.00">AuthenticationService </text>
</g>
<!-- AuthenticationModule&#45;&gt;AuthenticationService  -->
<g id="edge8" class="edge">
<title>AuthenticationModule&#45;&gt;AuthenticationService </title>
<path fill="none" stroke="black" stroke-dasharray="5,2" d="M1140,-187.11C1140,-187.11 1140,-205.99 1140,-205.99"/>
<polygon fill="black" stroke="black" points="1136.5,-205.99 1140,-215.99 1143.5,-205.99 1136.5,-205.99"/>
</g>
<!-- AuthenticationService -->
<g id="node10" class="node">
<title>AuthenticationService</title>
<ellipse fill="#fdb462" stroke="black" cx="2440" cy="-104" rx="97.27" ry="18"/>
<text text-anchor="middle" x="2440" y="-99.8" font-family="Times,serif" font-size="14.00">AuthenticationService</text>
</g>
<!-- AuthenticationService&#45;&gt;AuthenticationModule -->
<g id="edge9" class="edge">
<title>AuthenticationService&#45;&gt;AuthenticationModule</title>
<path fill="none" stroke="black" d="M2440,-122.32C2440,-145.66 2440,-183 2440,-183 2440,-183 1221.28,-183 1221.28,-183"/>
<polygon fill="black" stroke="black" points="1221.28,-179.5 1211.28,-183 1221.28,-186.5 1221.28,-179.5"/>
</g>
<!-- JwtStrategy -->
<g id="node11" class="node">
<title>JwtStrategy</title>
<ellipse fill="#fdb462" stroke="black" cx="2268" cy="-104" rx="56.76" ry="18"/>
<text text-anchor="middle" x="2268" y="-99.8" font-family="Times,serif" font-size="14.00">JwtStrategy</text>
</g>
<!-- JwtStrategy&#45;&gt;AuthenticationModule -->
<g id="edge10" class="edge">
<title>JwtStrategy&#45;&gt;AuthenticationModule</title>
<path fill="none" stroke="black" d="M2268,-122.29C2268,-144.21 2268,-178 2268,-178 2268,-178 1221.42,-178 1221.42,-178"/>
<polygon fill="black" stroke="black" points="1221.42,-174.5 1211.42,-178 1221.42,-181.5 1221.42,-174.5"/>
</g>
<!-- JwtValidationAdapter -->
<g id="node12" class="node">
<title>JwtValidationAdapter</title>
<ellipse fill="#fdb462" stroke="black" cx="2097" cy="-104" rx="96.12" ry="18"/>
<text text-anchor="middle" x="2097" y="-99.8" font-family="Times,serif" font-size="14.00">JwtValidationAdapter</text>
</g>
<!-- JwtValidationAdapter&#45;&gt;AuthenticationModule -->
<g id="edge11" class="edge">
<title>JwtValidationAdapter&#45;&gt;AuthenticationModule</title>
<path fill="none" stroke="black" d="M2097,-122.03C2097,-142.77 2097,-174 2097,-174 2097,-174 1221.54,-174 1221.54,-174"/>
<polygon fill="black" stroke="black" points="1221.54,-170.5 1211.54,-174 1221.54,-177.5 1221.54,-170.5"/>
</g>
<!-- LdapService -->
<g id="node13" class="node">
<title>LdapService</title>
<ellipse fill="#fdb462" stroke="black" cx="1923" cy="-104" rx="59.67" ry="18"/>
<text text-anchor="middle" x="1923" y="-99.8" font-family="Times,serif" font-size="14.00">LdapService</text>
</g>
<!-- LdapService&#45;&gt;AuthenticationModule -->
<g id="edge12" class="edge">
<title>LdapService&#45;&gt;AuthenticationModule</title>
<path fill="none" stroke="black" d="M1923,-122.11C1923,-141.34 1923,-169 1923,-169 1923,-169 1221.56,-169 1221.56,-169"/>
<polygon fill="black" stroke="black" points="1221.56,-165.5 1211.56,-169 1221.56,-172.5 1221.56,-165.5"/>
</g>
<!-- LdapStrategy -->
<g id="node14" class="node">
<title>LdapStrategy</title>
<ellipse fill="#fdb462" stroke="black" cx="1782" cy="-104" rx="63.12" ry="18"/>
<text text-anchor="middle" x="1782" y="-99.8" font-family="Times,serif" font-size="14.00">LdapStrategy</text>
</g>
<!-- LdapStrategy&#45;&gt;AuthenticationModule -->
<g id="edge13" class="edge">
<title>LdapStrategy&#45;&gt;AuthenticationModule</title>
<path fill="none" stroke="black" d="M1782,-122.3C1782,-140.27 1782,-165 1782,-165 1782,-165 1221.47,-165 1221.47,-165"/>
<polygon fill="black" stroke="black" points="1221.47,-161.5 1211.47,-165 1221.47,-168.5 1221.47,-161.5"/>
</g>
<!-- LegacySchoolRepo -->
<g id="node15" class="node">
<title>LegacySchoolRepo</title>
<ellipse fill="#fdb462" stroke="black" cx="1614" cy="-104" rx="86.82" ry="18"/>
<text text-anchor="middle" x="1614" y="-99.8" font-family="Times,serif" font-size="14.00">LegacySchoolRepo</text>
</g>
<!-- LegacySchoolRepo&#45;&gt;AuthenticationModule -->
<g id="edge14" class="edge">
<title>LegacySchoolRepo&#45;&gt;AuthenticationModule</title>
<path fill="none" stroke="black" d="M1614,-122.03C1614,-138.4 1614,-160 1614,-160 1614,-160 1221.48,-160 1221.48,-160"/>
<polygon fill="black" stroke="black" points="1221.48,-156.5 1211.48,-160 1221.48,-163.5 1221.48,-156.5"/>
</g>
<!-- LocalStrategy -->
<g id="node16" class="node">
<title>LocalStrategy</title>
<ellipse fill="#fdb462" stroke="black" cx="1444" cy="-104" rx="65.41" ry="18"/>
<text text-anchor="middle" x="1444" y="-99.8" font-family="Times,serif" font-size="14.00">LocalStrategy</text>
</g>
<!-- LocalStrategy&#45;&gt;AuthenticationModule -->
<g id="edge15" class="edge">
<title>LocalStrategy&#45;&gt;AuthenticationModule</title>
<path fill="none" stroke="black" d="M1444,-122.19C1444,-137.18 1444,-156 1444,-156 1444,-156 1221.27,-156 1221.27,-156"/>
<polygon fill="black" stroke="black" points="1221.27,-152.5 1211.27,-156 1221.27,-159.5 1221.27,-152.5"/>
</g>
<!-- Oauth2Strategy -->
<g id="node17" class="node">
<title>Oauth2Strategy</title>
<ellipse fill="#fdb462" stroke="black" cx="1289" cy="-104" rx="71.79" ry="18"/>
<text text-anchor="middle" x="1289" y="-99.8" font-family="Times,serif" font-size="14.00">Oauth2Strategy</text>
</g>
<!-- Oauth2Strategy&#45;&gt;AuthenticationModule -->
<g id="edge16" class="edge">
<title>Oauth2Strategy&#45;&gt;AuthenticationModule</title>
<path fill="none" stroke="black" d="M1217.21,-104C1210.2,-104 1205.62,-104 1205.62,-104 1205.62,-104 1205.62,-140.89 1205.62,-140.89"/>
<polygon fill="black" stroke="black" points="1202.12,-140.89 1205.62,-150.89 1209.12,-140.89 1202.12,-140.89"/>
</g>
<!-- SystemRepo -->
<g id="node18" class="node">
<title>SystemRepo</title>
<ellipse fill="#fdb462" stroke="black" cx="1140" cy="-104" rx="59.71" ry="18"/>
<text text-anchor="middle" x="1140" y="-99.8" font-family="Times,serif" font-size="14.00">SystemRepo</text>
</g>
<!-- SystemRepo&#45;&gt;AuthenticationModule -->
<g id="edge17" class="edge">
<title>SystemRepo&#45;&gt;AuthenticationModule</title>
<path fill="none" stroke="black" d="M1140,-122.11C1140,-122.11 1140,-140.99 1140,-140.99"/>
<polygon fill="black" stroke="black" points="1136.5,-140.99 1140,-150.99 1143.5,-140.99 1136.5,-140.99"/>
</g>
<!-- UserRepo -->
<g id="node19" class="node">
<title>UserRepo</title>
<ellipse fill="#fdb462" stroke="black" cx="1012" cy="-104" rx="49.8" ry="18"/>
<text text-anchor="middle" x="1012" y="-99.8" font-family="Times,serif" font-size="14.00">UserRepo</text>
</g>
<!-- UserRepo&#45;&gt;AuthenticationModule -->
<g id="edge18" class="edge">
<title>UserRepo&#45;&gt;AuthenticationModule</title>
<path fill="none" stroke="black" d="M1061.76,-104C1069.17,-104 1074.38,-104 1074.38,-104 1074.38,-104 1074.38,-140.89 1074.38,-140.89"/>
<polygon fill="black" stroke="black" points="1070.88,-140.89 1074.38,-150.89 1077.88,-140.89 1070.88,-140.89"/>
</g>
</g>
</svg>
