<?xml version="1.0" encoding="UTF-8" standalone="no"?>
<!DOCTYPE svg PUBLIC "-//W3C//DTD SVG 1.1//EN"
 "http://www.w3.org/Graphics/SVG/1.1/DTD/svg11.dtd">
<!-- Generated by graphviz version 2.47.0 (20210316.0004)
 -->
<!-- Title: dependencies Pages: 1 -->
<svg width="2569pt" height="284pt"
 viewBox="0.00 0.00 2569.00 284.00" xmlns="http://www.w3.org/2000/svg" xmlns:xlink="http://www.w3.org/1999/xlink">
<g id="graph0" class="graph" transform="scale(1 1) rotate(0) translate(4 280)">
<title>dependencies</title>
<polygon fill="white" stroke="transparent" points="-4,4 -4,-280 2565,-280 2565,4 -4,4"/>
<text text-anchor="start" x="1259.51" y="-42.4" font-family="Times-12" font-weight="bold" font-size="14.00">Legend</text>
<polygon fill="#ffffb3" stroke="transparent" points="1046.5,-10 1046.5,-30 1066.5,-30 1066.5,-10 1046.5,-10"/>
<text text-anchor="start" x="1070.13" y="-15.4" font-family="Times-12" font-size="14.00"> &#160;Declarations</text>
<polygon fill="#8dd3c7" stroke="transparent" points="1159.5,-10 1159.5,-30 1179.5,-30 1179.5,-10 1159.5,-10"/>
<text text-anchor="start" x="1183.23" y="-15.4" font-family="Times-12" font-size="14.00"> &#160;Module</text>
<polygon fill="#80b1d3" stroke="transparent" points="1245.5,-10 1245.5,-30 1265.5,-30 1265.5,-10 1245.5,-10"/>
<text text-anchor="start" x="1269.28" y="-15.4" font-family="Times-12" font-size="14.00"> &#160;Bootstrap</text>
<polygon fill="#fdb462" stroke="transparent" points="1342.5,-10 1342.5,-30 1362.5,-30 1362.5,-10 1342.5,-10"/>
<text text-anchor="start" x="1366.17" y="-15.4" font-family="Times-12" font-size="14.00"> &#160;Providers</text>
<polygon fill="#fb8072" stroke="transparent" points="1438.5,-10 1438.5,-30 1458.5,-30 1458.5,-10 1438.5,-10"/>
<text text-anchor="start" x="1462.23" y="-15.4" font-family="Times-12" font-size="14.00"> &#160;Exports</text>
<g id="clust1" class="cluster">
<title>cluster_AuthenticationModule</title>
<polygon fill="none" stroke="black" stroke-dasharray="1,5" points="8,-70 8,-268 2553,-268 2553,-70 8,-70"/>
</g>
<g id="clust3" class="cluster">
<title>cluster_AuthenticationModule_imports</title>
<polygon fill="none" stroke="black" points="1615,-78 1615,-130 2545,-130 2545,-78 1615,-78"/>
</g>
<g id="clust4" class="cluster">
<title>cluster_AuthenticationModule_exports</title>
<polygon fill="none" stroke="black" points="1250,-208 1250,-260 1410,-260 1410,-208 1250,-208"/>
</g>
<g id="clust6" class="cluster">
<title>cluster_AuthenticationModule_providers</title>
<polygon fill="none" stroke="black" points="16,-78 16,-130 1607,-130 1607,-78 16,-78"/>
</g>
<!-- AccountModule -->
<g id="node1" class="node">
<title>AccountModule</title>
<polygon fill="#8dd3c7" stroke="black" points="2537.48,-122 2534.48,-126 2513.48,-126 2510.48,-122 2430.52,-122 2430.52,-86 2537.48,-86 2537.48,-122"/>
<text text-anchor="middle" x="2484" y="-99.8" font-family="Times,serif" font-size="14.00">AccountModule</text>
</g>
<!-- AuthenticationModule -->
<g id="node8" class="node">
<title>AuthenticationModule</title>
<polygon fill="#8dd3c7" stroke="black" points="1401.25,-187 1398.25,-191 1377.25,-191 1374.25,-187 1258.75,-187 1258.75,-151 1401.25,-151 1401.25,-187"/>
<text text-anchor="middle" x="1330" y="-164.8" font-family="Times,serif" font-size="14.00">AuthenticationModule</text>
</g>
<!-- AccountModule&#45;&gt;AuthenticationModule -->
<g id="edge1" class="edge">
<title>AccountModule&#45;&gt;AuthenticationModule</title>
<path fill="none" stroke="black" d="M2484,-122.32C2484,-145.66 2484,-183 2484,-183 2484,-183 1411.32,-183 1411.32,-183"/>
<polygon fill="black" stroke="black" points="1411.32,-179.5 1401.32,-183 1411.32,-186.5 1411.32,-179.5"/>
</g>
<!-- CacheWrapperModule -->
<g id="node2" class="node">
<title>CacheWrapperModule</title>
<polygon fill="#8dd3c7" stroke="black" points="2413,-122 2410,-126 2389,-126 2386,-122 2269,-122 2269,-86 2413,-86 2413,-122"/>
<text text-anchor="middle" x="2341" y="-99.8" font-family="Times,serif" font-size="14.00">CacheWrapperModule</text>
</g>
<!-- CacheWrapperModule&#45;&gt;AuthenticationModule -->
<g id="edge2" class="edge">
<title>CacheWrapperModule&#45;&gt;AuthenticationModule</title>
<path fill="none" stroke="black" d="M2341,-122.29C2341,-144.21 2341,-178 2341,-178 2341,-178 1411.49,-178 1411.49,-178"/>
<polygon fill="black" stroke="black" points="1411.49,-174.5 1401.49,-178 1411.49,-181.5 1411.49,-174.5"/>
</g>
<!-- IdentityManagementModule -->
<g id="node3" class="node">
<title>IdentityManagementModule</title>
<polygon fill="#8dd3c7" stroke="black" points="2251.18,-122 2248.18,-126 2227.18,-126 2224.18,-122 2074.82,-122 2074.82,-86 2251.18,-86 2251.18,-122"/>
<text text-anchor="middle" x="2163" y="-99.8" font-family="Times,serif" font-size="14.00">IdentityManagementModule</text>
</g>
<!-- IdentityManagementModule&#45;&gt;AuthenticationModule -->
<g id="edge3" class="edge">
<title>IdentityManagementModule&#45;&gt;AuthenticationModule</title>
<path fill="none" stroke="black" d="M2163,-122.03C2163,-142.77 2163,-174 2163,-174 2163,-174 1411.38,-174 1411.38,-174"/>
<polygon fill="black" stroke="black" points="1411.38,-170.5 1401.38,-174 1411.38,-177.5 1411.38,-170.5"/>
</g>
<!-- LoggerModule -->
<g id="node4" class="node">
<title>LoggerModule</title>
<polygon fill="#8dd3c7" stroke="black" points="2056.98,-122 2053.98,-126 2032.98,-126 2029.98,-122 1957.02,-122 1957.02,-86 2056.98,-86 2056.98,-122"/>
<text text-anchor="middle" x="2007" y="-99.8" font-family="Times,serif" font-size="14.00">LoggerModule</text>
</g>
<!-- LoggerModule&#45;&gt;AuthenticationModule -->
<g id="edge4" class="edge">
<title>LoggerModule&#45;&gt;AuthenticationModule</title>
<path fill="none" stroke="black" d="M2007,-122.11C2007,-141.34 2007,-169 2007,-169 2007,-169 1411.49,-169 1411.49,-169"/>
<polygon fill="black" stroke="black" points="1411.49,-165.5 1401.49,-169 1411.49,-172.5 1411.49,-165.5"/>
</g>
<!-- OauthModule -->
<g id="node5" class="node">
<title>OauthModule</title>
<polygon fill="#8dd3c7" stroke="black" points="1938.76,-122 1935.76,-126 1914.76,-126 1911.76,-122 1845.24,-122 1845.24,-86 1938.76,-86 1938.76,-122"/>
<text text-anchor="middle" x="1892" y="-99.8" font-family="Times,serif" font-size="14.00">OauthModule</text>
</g>
<!-- OauthModule&#45;&gt;AuthenticationModule -->
<g id="edge5" class="edge">
<title>OauthModule&#45;&gt;AuthenticationModule</title>
<path fill="none" stroke="black" d="M1892,-122.3C1892,-140.27 1892,-165 1892,-165 1892,-165 1411.46,-165 1411.46,-165"/>
<polygon fill="black" stroke="black" points="1411.46,-161.5 1401.46,-165 1411.46,-168.5 1411.46,-161.5"/>
</g>
<!-- RoleModule -->
<g id="node6" class="node">
<title>RoleModule</title>
<polygon fill="#8dd3c7" stroke="black" points="1826.99,-122 1823.99,-126 1802.99,-126 1799.99,-122 1741.01,-122 1741.01,-86 1826.99,-86 1826.99,-122"/>
<text text-anchor="middle" x="1784" y="-99.8" font-family="Times,serif" font-size="14.00">RoleModule</text>
</g>
<!-- RoleModule&#45;&gt;AuthenticationModule -->
<g id="edge6" class="edge">
<title>RoleModule&#45;&gt;AuthenticationModule</title>
<path fill="none" stroke="black" d="M1784,-122.03C1784,-138.4 1784,-160 1784,-160 1784,-160 1411.44,-160 1411.44,-160"/>
<polygon fill="black" stroke="black" points="1411.44,-156.5 1401.44,-160 1411.44,-163.5 1411.44,-156.5"/>
</g>
<!-- SystemModule -->
<g id="node7" class="node">
<title>SystemModule</title>
<polygon fill="#8dd3c7" stroke="black" points="1723.27,-122 1720.27,-126 1699.27,-126 1696.27,-122 1622.73,-122 1622.73,-86 1723.27,-86 1723.27,-122"/>
<text text-anchor="middle" x="1673" y="-99.8" font-family="Times,serif" font-size="14.00">SystemModule</text>
</g>
<!-- SystemModule&#45;&gt;AuthenticationModule -->
<g id="edge7" class="edge">
<title>SystemModule&#45;&gt;AuthenticationModule</title>
<path fill="none" stroke="black" d="M1673,-122.19C1673,-137.18 1673,-156 1673,-156 1673,-156 1411.49,-156 1411.49,-156"/>
<polygon fill="black" stroke="black" points="1411.49,-152.5 1401.49,-156 1411.49,-159.5 1411.49,-152.5"/>
</g>
<!-- AuthenticationService  -->
<g id="node9" class="node">
<title>AuthenticationService </title>
<polygon fill="#fb8072" stroke="black" points="1402.18,-252 1257.82,-252 1257.82,-216 1402.18,-216 1402.18,-252"/>
<text text-anchor="middle" x="1330" y="-229.8" font-family="Times,serif" font-size="14.00">AuthenticationService </text>
</g>
<!-- AuthenticationModule&#45;&gt;AuthenticationService  -->
<g id="edge8" class="edge">
<title>AuthenticationModule&#45;&gt;AuthenticationService </title>
<path fill="none" stroke="black" stroke-dasharray="5,2" d="M1330,-187.11C1330,-187.11 1330,-205.99 1330,-205.99"/>
<polygon fill="black" stroke="black" points="1326.5,-205.99 1330,-215.99 1333.5,-205.99 1326.5,-205.99"/>
</g>
<!-- AuthenticationService -->
<g id="node10" class="node">
<title>AuthenticationService</title>
<ellipse fill="#fdb462" stroke="black" cx="1502" cy="-104" rx="97.27" ry="18"/>
<text text-anchor="middle" x="1502" y="-99.8" font-family="Times,serif" font-size="14.00">AuthenticationService</text>
</g>
<!-- AuthenticationService&#45;&gt;AuthenticationModule -->
<g id="edge9" class="edge">
<title>AuthenticationService&#45;&gt;AuthenticationModule</title>
<path fill="none" stroke="black" d="M1404.36,-104C1397.96,-104 1394,-104 1394,-104 1394,-104 1394,-140.89 1394,-140.89"/>
<polygon fill="black" stroke="black" points="1390.5,-140.89 1394,-150.89 1397.5,-140.89 1390.5,-140.89"/>
</g>
<!-- JwtStrategy -->
<g id="node11" class="node">
<title>JwtStrategy</title>
<ellipse fill="#fdb462" stroke="black" cx="1330" cy="-104" rx="56.76" ry="18"/>
<text text-anchor="middle" x="1330" y="-99.8" font-family="Times,serif" font-size="14.00">JwtStrategy</text>
</g>
<!-- JwtStrategy&#45;&gt;AuthenticationModule -->
<g id="edge10" class="edge">
<title>JwtStrategy&#45;&gt;AuthenticationModule</title>
<path fill="none" stroke="black" d="M1330,-122.11C1330,-122.11 1330,-140.99 1330,-140.99"/>
<polygon fill="black" stroke="black" points="1326.5,-140.99 1330,-150.99 1333.5,-140.99 1326.5,-140.99"/>
</g>
<!-- JwtValidationAdapter -->
<g id="node12" class="node">
<title>JwtValidationAdapter</title>
<ellipse fill="#fdb462" stroke="black" cx="1159" cy="-104" rx="96.12" ry="18"/>
<text text-anchor="middle" x="1159" y="-99.8" font-family="Times,serif" font-size="14.00">JwtValidationAdapter</text>
</g>
<!-- JwtValidationAdapter&#45;&gt;AuthenticationModule -->
<g id="edge11" class="edge">
<title>JwtValidationAdapter&#45;&gt;AuthenticationModule</title>
<path fill="none" stroke="black" d="M1255.35,-104C1261.92,-104 1266,-104 1266,-104 1266,-104 1266,-140.89 1266,-140.89"/>
<polygon fill="black" stroke="black" points="1262.5,-140.89 1266,-150.89 1269.5,-140.89 1262.5,-140.89"/>
</g>
<!-- LdapService -->
<g id="node13" class="node">
<title>LdapService</title>
<ellipse fill="#fdb462" stroke="black" cx="985" cy="-104" rx="59.67" ry="18"/>
<text text-anchor="middle" x="985" y="-99.8" font-family="Times,serif" font-size="14.00">LdapService</text>
</g>
<!-- LdapService&#45;&gt;AuthenticationModule -->
<g id="edge12" class="edge">
<title>LdapService&#45;&gt;AuthenticationModule</title>
<path fill="none" stroke="black" d="M985,-122.19C985,-137.18 985,-156 985,-156 985,-156 1248.52,-156 1248.52,-156"/>
<polygon fill="black" stroke="black" points="1248.52,-159.5 1258.52,-156 1248.52,-152.5 1248.52,-159.5"/>
</g>
<!-- LdapStrategy -->
<g id="node14" class="node">
<title>LdapStrategy</title>
<ellipse fill="#fdb462" stroke="black" cx="844" cy="-104" rx="63.12" ry="18"/>
<text text-anchor="middle" x="844" y="-99.8" font-family="Times,serif" font-size="14.00">LdapStrategy</text>
</g>
<!-- LdapStrategy&#45;&gt;AuthenticationModule -->
<g id="edge13" class="edge">
<title>LdapStrategy&#45;&gt;AuthenticationModule</title>
<path fill="none" stroke="black" d="M844,-122.03C844,-138.4 844,-160 844,-160 844,-160 1248.55,-160 1248.55,-160"/>
<polygon fill="black" stroke="black" points="1248.55,-163.5 1258.55,-160 1248.55,-156.5 1248.55,-163.5"/>
</g>
<!-- LegacySchoolRepo -->
<g id="node15" class="node">
<title>LegacySchoolRepo</title>
<ellipse fill="#fdb462" stroke="black" cx="676" cy="-104" rx="86.82" ry="18"/>
<text text-anchor="middle" x="676" y="-99.8" font-family="Times,serif" font-size="14.00">LegacySchoolRepo</text>
</g>
<!-- LegacySchoolRepo&#45;&gt;AuthenticationModule -->
<g id="edge14" class="edge">
<title>LegacySchoolRepo&#45;&gt;AuthenticationModule</title>
<path fill="none" stroke="black" d="M676,-122.3C676,-140.27 676,-165 676,-165 676,-165 1248.45,-165 1248.45,-165"/>
<polygon fill="black" stroke="black" points="1248.45,-168.5 1258.45,-165 1248.45,-161.5 1248.45,-168.5"/>
</g>
<!-- LocalStrategy -->
<g id="node16" class="node">
<title>LocalStrategy</title>
<ellipse fill="#fdb462" stroke="black" cx="506" cy="-104" rx="65.41" ry="18"/>
<text text-anchor="middle" x="506" y="-99.8" font-family="Times,serif" font-size="14.00">LocalStrategy</text>
</g>
<!-- LocalStrategy&#45;&gt;AuthenticationModule -->
<g id="edge15" class="edge">
<title>LocalStrategy&#45;&gt;AuthenticationModule</title>
<path fill="none" stroke="black" d="M506,-122.11C506,-141.34 506,-169 506,-169 506,-169 1248.68,-169 1248.68,-169"/>
<polygon fill="black" stroke="black" points="1248.68,-172.5 1258.68,-169 1248.68,-165.5 1248.68,-172.5"/>
</g>
<!-- Oauth2Strategy -->
<g id="node17" class="node">
<title>Oauth2Strategy</title>
<ellipse fill="#fdb462" stroke="black" cx="351" cy="-104" rx="71.79" ry="18"/>
<text text-anchor="middle" x="351" y="-99.8" font-family="Times,serif" font-size="14.00">Oauth2Strategy</text>
</g>
<!-- Oauth2Strategy&#45;&gt;AuthenticationModule -->
<g id="edge16" class="edge">
<title>Oauth2Strategy&#45;&gt;AuthenticationModule</title>
<path fill="none" stroke="black" d="M351,-122.03C351,-142.77 351,-174 351,-174 351,-174 1248.41,-174 1248.41,-174"/>
<polygon fill="black" stroke="black" points="1248.41,-177.5 1258.41,-174 1248.41,-170.5 1248.41,-177.5"/>
</g>
<!-- SystemRepo -->
<g id="node18" class="node">
<title>SystemRepo</title>
<ellipse fill="#fdb462" stroke="black" cx="202" cy="-104" rx="59.71" ry="18"/>
<text text-anchor="middle" x="202" y="-99.8" font-family="Times,serif" font-size="14.00">SystemRepo</text>
</g>
<!-- SystemRepo&#45;&gt;AuthenticationModule -->
<g id="edge17" class="edge">
<title>SystemRepo&#45;&gt;AuthenticationModule</title>
<path fill="none" stroke="black" d="M202,-122.29C202,-144.21 202,-178 202,-178 202,-178 1248.58,-178 1248.58,-178"/>
<polygon fill="black" stroke="black" points="1248.58,-181.5 1258.58,-178 1248.58,-174.5 1248.58,-181.5"/>
</g>
<!-- UserRepo -->
<g id="node19" class="node">
<title>UserRepo</title>
<ellipse fill="#fdb462" stroke="black" cx="74" cy="-104" rx="49.8" ry="18"/>
<text text-anchor="middle" x="74" y="-99.8" font-family="Times,serif" font-size="14.00">UserRepo</text>
</g>
<!-- UserRepo&#45;&gt;AuthenticationModule -->
<g id="edge18" class="edge">
<title>UserRepo&#45;&gt;AuthenticationModule</title>
<path fill="none" stroke="black" d="M74,-122.32C74,-145.66 74,-183 74,-183 74,-183 1248.42,-183 1248.42,-183"/>
<polygon fill="black" stroke="black" points="1248.42,-186.5 1258.42,-183 1248.42,-179.5 1248.42,-186.5"/>
</g>
</g>
</svg>
