<?xml version="1.0" encoding="UTF-8" standalone="no"?>
<!DOCTYPE svg PUBLIC "-//W3C//DTD SVG 1.1//EN"
 "http://www.w3.org/Graphics/SVG/1.1/DTD/svg11.dtd">
<!-- Generated by graphviz version 2.47.0 (20210316.0004)
 -->
<!-- Title: dependencies Pages: 1 -->
<svg width="2767pt" height="284pt"
 viewBox="0.00 0.00 2767.00 284.00" xmlns="http://www.w3.org/2000/svg" xmlns:xlink="http://www.w3.org/1999/xlink">
<g id="graph0" class="graph" transform="scale(1 1) rotate(0) translate(4 280)">
<title>dependencies</title>
<polygon fill="white" stroke="transparent" points="-4,4 -4,-280 2763,-280 2763,4 -4,4"/>
<text text-anchor="start" x="1358.51" y="-42.4" font-family="Times-12" font-weight="bold" font-size="14.00">Legend</text>
<polygon fill="#ffffb3" stroke="transparent" points="1145.5,-10 1145.5,-30 1165.5,-30 1165.5,-10 1145.5,-10"/>
<text text-anchor="start" x="1169.13" y="-15.4" font-family="Times-12" font-size="14.00"> &#160;Declarations</text>
<polygon fill="#8dd3c7" stroke="transparent" points="1258.5,-10 1258.5,-30 1278.5,-30 1278.5,-10 1258.5,-10"/>
<text text-anchor="start" x="1282.23" y="-15.4" font-family="Times-12" font-size="14.00"> &#160;Module</text>
<polygon fill="#80b1d3" stroke="transparent" points="1344.5,-10 1344.5,-30 1364.5,-30 1364.5,-10 1344.5,-10"/>
<text text-anchor="start" x="1368.28" y="-15.4" font-family="Times-12" font-size="14.00"> &#160;Bootstrap</text>
<polygon fill="#fdb462" stroke="transparent" points="1441.5,-10 1441.5,-30 1461.5,-30 1461.5,-10 1441.5,-10"/>
<text text-anchor="start" x="1465.17" y="-15.4" font-family="Times-12" font-size="14.00"> &#160;Providers</text>
<polygon fill="#fb8072" stroke="transparent" points="1537.5,-10 1537.5,-30 1557.5,-30 1557.5,-10 1537.5,-10"/>
<text text-anchor="start" x="1561.23" y="-15.4" font-family="Times-12" font-size="14.00"> &#160;Exports</text>
<g id="clust1" class="cluster">
<title>cluster_AuthenticationModule</title>
<polygon fill="none" stroke="black" stroke-dasharray="1,5" points="8,-70 8,-268 2751,-268 2751,-70 8,-70"/>
</g>
<g id="clust6" class="cluster">
<title>cluster_AuthenticationModule_providers</title>
<polygon fill="none" stroke="black" points="954,-78 954,-130 2743,-130 2743,-78 954,-78"/>
</g>
<g id="clust4" class="cluster">
<title>cluster_AuthenticationModule_exports</title>
<polygon fill="none" stroke="black" points="1199,-208 1199,-260 1359,-260 1359,-208 1199,-208"/>
</g>
<g id="clust3" class="cluster">
<title>cluster_AuthenticationModule_imports</title>
<polygon fill="none" stroke="black" points="16,-78 16,-130 946,-130 946,-78 16,-78"/>
</g>
<!-- AccountModule -->
<g id="node1" class="node">
<title>AccountModule</title>
<polygon fill="#8dd3c7" stroke="black" points="938.48,-122 935.48,-126 914.48,-126 911.48,-122 831.52,-122 831.52,-86 938.48,-86 938.48,-122"/>
<text text-anchor="middle" x="885" y="-99.8" font-family="Times,serif" font-size="14.00">AccountModule</text>
</g>
<!-- AuthenticationModule -->
<g id="node8" class="node">
<title>AuthenticationModule</title>
<polygon fill="#8dd3c7" stroke="black" points="1350.25,-187 1347.25,-191 1326.25,-191 1323.25,-187 1207.75,-187 1207.75,-151 1350.25,-151 1350.25,-187"/>
<text text-anchor="middle" x="1279" y="-164.8" font-family="Times,serif" font-size="14.00">AuthenticationModule</text>
</g>
<!-- AccountModule&#45;&gt;AuthenticationModule -->
<g id="edge1" class="edge">
<title>AccountModule&#45;&gt;AuthenticationModule</title>
<path fill="none" stroke="black" d="M885,-122.01C885,-138.05 885,-159 885,-159 885,-159 1197.65,-159 1197.65,-159"/>
<polygon fill="black" stroke="black" points="1197.65,-162.5 1207.65,-159 1197.65,-155.5 1197.65,-162.5"/>
</g>
<!-- CacheWrapperModule -->
<g id="node2" class="node">
<title>CacheWrapperModule</title>
<polygon fill="#8dd3c7" stroke="black" points="814,-122 811,-126 790,-126 787,-122 670,-122 670,-86 814,-86 814,-122"/>
<text text-anchor="middle" x="742" y="-99.8" font-family="Times,serif" font-size="14.00">CacheWrapperModule</text>
</g>
<!-- CacheWrapperModule&#45;&gt;AuthenticationModule -->
<g id="edge2" class="edge">
<title>CacheWrapperModule&#45;&gt;AuthenticationModule</title>
<path fill="none" stroke="black" d="M742,-122.02C742,-139.37 742,-163 742,-163 742,-163 1197.69,-163 1197.69,-163"/>
<polygon fill="black" stroke="black" points="1197.69,-166.5 1207.69,-163 1197.69,-159.5 1197.69,-166.5"/>
</g>
<!-- IdentityManagementModule -->
<g id="node3" class="node">
<title>IdentityManagementModule</title>
<polygon fill="#8dd3c7" stroke="black" points="652.18,-122 649.18,-126 628.18,-126 625.18,-122 475.82,-122 475.82,-86 652.18,-86 652.18,-122"/>
<text text-anchor="middle" x="564" y="-99.8" font-family="Times,serif" font-size="14.00">IdentityManagementModule</text>
</g>
<!-- IdentityManagementModule&#45;&gt;AuthenticationModule -->
<g id="edge3" class="edge">
<title>IdentityManagementModule&#45;&gt;AuthenticationModule</title>
<path fill="none" stroke="black" d="M564,-122.22C564,-140.83 564,-167 564,-167 564,-167 1197.5,-167 1197.5,-167"/>
<polygon fill="black" stroke="black" points="1197.5,-170.5 1207.5,-167 1197.5,-163.5 1197.5,-170.5"/>
</g>
<!-- LoggerModule -->
<g id="node4" class="node">
<title>LoggerModule</title>
<polygon fill="#8dd3c7" stroke="black" points="457.98,-122 454.98,-126 433.98,-126 430.98,-122 358.02,-122 358.02,-86 457.98,-86 457.98,-122"/>
<text text-anchor="middle" x="408" y="-99.8" font-family="Times,serif" font-size="14.00">LoggerModule</text>
</g>
<!-- LoggerModule&#45;&gt;AuthenticationModule -->
<g id="edge4" class="edge">
<title>LoggerModule&#45;&gt;AuthenticationModule</title>
<path fill="none" stroke="black" d="M408,-122.31C408,-142.15 408,-171 408,-171 408,-171 1197.72,-171 1197.72,-171"/>
<polygon fill="black" stroke="black" points="1197.72,-174.5 1207.72,-171 1197.72,-167.5 1197.72,-174.5"/>
</g>
<!-- OauthModule -->
<g id="node5" class="node">
<title>OauthModule</title>
<polygon fill="#8dd3c7" stroke="black" points="339.76,-122 336.76,-126 315.76,-126 312.76,-122 246.24,-122 246.24,-86 339.76,-86 339.76,-122"/>
<text text-anchor="middle" x="293" y="-99.8" font-family="Times,serif" font-size="14.00">OauthModule</text>
</g>
<!-- OauthModule&#45;&gt;AuthenticationModule -->
<g id="edge5" class="edge">
<title>OauthModule&#45;&gt;AuthenticationModule</title>
<path fill="none" stroke="black" d="M293,-122.28C293,-143.32 293,-175 293,-175 293,-175 1197.69,-175 1197.69,-175"/>
<polygon fill="black" stroke="black" points="1197.69,-178.5 1207.69,-175 1197.69,-171.5 1197.69,-178.5"/>
</g>
<!-- RoleModule -->
<g id="node6" class="node">
<title>RoleModule</title>
<polygon fill="#8dd3c7" stroke="black" points="227.99,-122 224.99,-126 203.99,-126 200.99,-122 142.01,-122 142.01,-86 227.99,-86 227.99,-122"/>
<text text-anchor="middle" x="185" y="-99.8" font-family="Times,serif" font-size="14.00">RoleModule</text>
</g>
<!-- RoleModule&#45;&gt;AuthenticationModule -->
<g id="edge6" class="edge">
<title>RoleModule&#45;&gt;AuthenticationModule</title>
<path fill="none" stroke="black" d="M185,-122.16C185,-144.35 185,-179 185,-179 185,-179 1197.64,-179 1197.64,-179"/>
<polygon fill="black" stroke="black" points="1197.64,-182.5 1207.64,-179 1197.64,-175.5 1197.64,-182.5"/>
</g>
<!-- SystemModule -->
<g id="node7" class="node">
<title>SystemModule</title>
<polygon fill="#8dd3c7" stroke="black" points="124.27,-122 121.27,-126 100.27,-126 97.27,-122 23.73,-122 23.73,-86 124.27,-86 124.27,-122"/>
<text text-anchor="middle" x="74" y="-99.8" font-family="Times,serif" font-size="14.00">SystemModule</text>
</g>
<!-- SystemModule&#45;&gt;AuthenticationModule -->
<g id="edge7" class="edge">
<title>SystemModule&#45;&gt;AuthenticationModule</title>
<path fill="none" stroke="black" d="M74,-122.32C74,-145.66 74,-183 74,-183 74,-183 1197.68,-183 1197.68,-183"/>
<polygon fill="black" stroke="black" points="1197.68,-186.5 1207.68,-183 1197.68,-179.5 1197.68,-186.5"/>
</g>
<!-- AuthenticationService  -->
<g id="node9" class="node">
<title>AuthenticationService </title>
<polygon fill="#fb8072" stroke="black" points="1351.18,-252 1206.82,-252 1206.82,-216 1351.18,-216 1351.18,-252"/>
<text text-anchor="middle" x="1279" y="-229.8" font-family="Times,serif" font-size="14.00">AuthenticationService </text>
</g>
<!-- AuthenticationModule&#45;&gt;AuthenticationService  -->
<g id="edge8" class="edge">
<title>AuthenticationModule&#45;&gt;AuthenticationService </title>
<path fill="none" stroke="black" stroke-dasharray="5,2" d="M1279,-187.11C1279,-187.11 1279,-205.99 1279,-205.99"/>
<polygon fill="black" stroke="black" points="1275.5,-205.99 1279,-215.99 1282.5,-205.99 1275.5,-205.99"/>
</g>
<!-- AuthenticationService -->
<g id="node10" class="node">
<title>AuthenticationService</title>
<ellipse fill="#fdb462" stroke="black" cx="2638" cy="-104" rx="97.27" ry="18"/>
<text text-anchor="middle" x="2638" y="-99.8" font-family="Times,serif" font-size="14.00">AuthenticationService</text>
</g>
<!-- AuthenticationService&#45;&gt;AuthenticationModule -->
<g id="edge9" class="edge">
<title>AuthenticationService&#45;&gt;AuthenticationModule</title>
<path fill="none" stroke="black" d="M2638,-122.32C2638,-145.66 2638,-183 2638,-183 2638,-183 1360.63,-183 1360.63,-183"/>
<polygon fill="black" stroke="black" points="1360.63,-179.5 1350.63,-183 1360.63,-186.5 1360.63,-179.5"/>
</g>
<!-- JwtStrategy -->
<g id="node11" class="node">
<title>JwtStrategy</title>
<ellipse fill="#fdb462" stroke="black" cx="2466" cy="-104" rx="56.76" ry="18"/>
<text text-anchor="middle" x="2466" y="-99.8" font-family="Times,serif" font-size="14.00">JwtStrategy</text>
</g>
<!-- JwtStrategy&#45;&gt;AuthenticationModule -->
<g id="edge10" class="edge">
<title>JwtStrategy&#45;&gt;AuthenticationModule</title>
<path fill="none" stroke="black" d="M2466,-122.16C2466,-144.35 2466,-179 2466,-179 2466,-179 1360.58,-179 1360.58,-179"/>
<polygon fill="black" stroke="black" points="1360.58,-175.5 1350.58,-179 1360.58,-182.5 1360.58,-175.5"/>
</g>
<!-- JwtValidationAdapter -->
<g id="node12" class="node">
<title>JwtValidationAdapter</title>
<ellipse fill="#fdb462" stroke="black" cx="2295" cy="-104" rx="96.12" ry="18"/>
<text text-anchor="middle" x="2295" y="-99.8" font-family="Times,serif" font-size="14.00">JwtValidationAdapter</text>
</g>
<!-- JwtValidationAdapter&#45;&gt;AuthenticationModule -->
<g id="edge11" class="edge">
<title>JwtValidationAdapter&#45;&gt;AuthenticationModule</title>
<path fill="none" stroke="black" d="M2295,-122.28C2295,-143.32 2295,-175 2295,-175 2295,-175 1360.44,-175 1360.44,-175"/>
<polygon fill="black" stroke="black" points="1360.44,-171.5 1350.44,-175 1360.44,-178.5 1360.44,-171.5"/>
</g>
<!-- LdapService -->
<g id="node13" class="node">
<title>LdapService</title>
<ellipse fill="#fdb462" stroke="black" cx="2121" cy="-104" rx="59.67" ry="18"/>
<text text-anchor="middle" x="2121" y="-99.8" font-family="Times,serif" font-size="14.00">LdapService</text>
</g>
<!-- LdapService&#45;&gt;AuthenticationModule -->
<g id="edge12" class="edge">
<title>LdapService&#45;&gt;AuthenticationModule</title>
<path fill="none" stroke="black" d="M2121,-122.31C2121,-142.15 2121,-171 2121,-171 2121,-171 1360.43,-171 1360.43,-171"/>
<polygon fill="black" stroke="black" points="1360.43,-167.5 1350.43,-171 1360.43,-174.5 1360.43,-167.5"/>
</g>
<!-- LdapStrategy -->
<g id="node14" class="node">
<title>LdapStrategy</title>
<ellipse fill="#fdb462" stroke="black" cx="1980" cy="-104" rx="63.12" ry="18"/>
<text text-anchor="middle" x="1980" y="-99.8" font-family="Times,serif" font-size="14.00">LdapStrategy</text>
</g>
<!-- LdapStrategy&#45;&gt;AuthenticationModule -->
<g id="edge13" class="edge">
<title>LdapStrategy&#45;&gt;AuthenticationModule</title>
<path fill="none" stroke="black" d="M1980,-122.22C1980,-140.83 1980,-167 1980,-167 1980,-167 1360.4,-167 1360.4,-167"/>
<polygon fill="black" stroke="black" points="1360.4,-163.5 1350.4,-167 1360.4,-170.5 1360.4,-163.5"/>
</g>
<!-- LegacySchoolRepo -->
<g id="node15" class="node">
<title>LegacySchoolRepo</title>
<ellipse fill="#fdb462" stroke="black" cx="1812" cy="-104" rx="86.82" ry="18"/>
<text text-anchor="middle" x="1812" y="-99.8" font-family="Times,serif" font-size="14.00">LegacySchoolRepo</text>
</g>
<!-- LegacySchoolRepo&#45;&gt;AuthenticationModule -->
<g id="edge14" class="edge">
<title>LegacySchoolRepo&#45;&gt;AuthenticationModule</title>
<path fill="none" stroke="black" d="M1812,-122.02C1812,-139.37 1812,-163 1812,-163 1812,-163 1360.33,-163 1360.33,-163"/>
<polygon fill="black" stroke="black" points="1360.33,-159.5 1350.33,-163 1360.33,-166.5 1360.33,-159.5"/>
</g>
<!-- LocalStrategy -->
<g id="node16" class="node">
<title>LocalStrategy</title>
<ellipse fill="#fdb462" stroke="black" cx="1642" cy="-104" rx="65.41" ry="18"/>
<text text-anchor="middle" x="1642" y="-99.8" font-family="Times,serif" font-size="14.00">LocalStrategy</text>
</g>
<!-- LocalStrategy&#45;&gt;AuthenticationModule -->
<g id="edge15" class="edge">
<title>LocalStrategy&#45;&gt;AuthenticationModule</title>
<path fill="none" stroke="black" d="M1642,-122.01C1642,-138.05 1642,-159 1642,-159 1642,-159 1360.28,-159 1360.28,-159"/>
<polygon fill="black" stroke="black" points="1360.28,-155.5 1350.28,-159 1360.28,-162.5 1360.28,-155.5"/>
</g>
<!-- Oauth2Strategy -->
<g id="node17" class="node">
<title>Oauth2Strategy</title>
<ellipse fill="#fdb462" stroke="black" cx="1487" cy="-104" rx="71.79" ry="18"/>
<text text-anchor="middle" x="1487" y="-99.8" font-family="Times,serif" font-size="14.00">Oauth2Strategy</text>
</g>
<!-- Oauth2Strategy&#45;&gt;AuthenticationModule -->
<g id="edge16" class="edge">
<title>Oauth2Strategy&#45;&gt;AuthenticationModule</title>
<path fill="none" stroke="black" d="M1487,-122.12C1487,-136.78 1487,-155 1487,-155 1487,-155 1360.29,-155 1360.29,-155"/>
<polygon fill="black" stroke="black" points="1360.29,-151.5 1350.29,-155 1360.29,-158.5 1360.29,-151.5"/>
</g>
<!-- UserRepo -->
<g id="node18" class="node">
<title>UserRepo</title>
<ellipse fill="#fdb462" stroke="black" cx="1348" cy="-104" rx="49.8" ry="18"/>
<text text-anchor="middle" x="1348" y="-99.8" font-family="Times,serif" font-size="14.00">UserRepo</text>
</g>
<!-- UserRepo&#45;&gt;AuthenticationModule -->
<g id="edge17" class="edge">
<title>UserRepo&#45;&gt;AuthenticationModule</title>
<path fill="none" stroke="black" d="M1324.36,-120.07C1324.36,-120.07 1324.36,-140.82 1324.36,-140.82"/>
<polygon fill="black" stroke="black" points="1320.86,-140.82 1324.36,-150.82 1327.86,-140.82 1320.86,-140.82"/>
</g>
<!-- WsJwtStrategy -->
<g id="node19" class="node">
<title>WsJwtStrategy</title>
<ellipse fill="#fdb462" stroke="black" cx="1211" cy="-104" rx="69.5" ry="18"/>
<text text-anchor="middle" x="1211" y="-99.8" font-family="Times,serif" font-size="14.00">WsJwtStrategy</text>
</g>
<!-- WsJwtStrategy&#45;&gt;AuthenticationModule -->
<g id="edge18" class="edge">
<title>WsJwtStrategy&#45;&gt;AuthenticationModule</title>
<path fill="none" stroke="black" d="M1244.06,-120.07C1244.06,-120.07 1244.06,-140.82 1244.06,-140.82"/>
<polygon fill="black" stroke="black" points="1240.56,-140.82 1244.06,-150.82 1247.56,-140.82 1240.56,-140.82"/>
</g>
<!-- XApiKeyStrategy -->
<g id="node20" class="node">
<title>XApiKeyStrategy</title>
<ellipse fill="#fdb462" stroke="black" cx="1043" cy="-104" rx="80.52" ry="18"/>
<text text-anchor="middle" x="1043" y="-99.8" font-family="Times,serif" font-size="14.00">XApiKeyStrategy</text>
</g>
<!-- XApiKeyStrategy&#45;&gt;AuthenticationModule -->
<g id="edge19" class="edge">
<title>XApiKeyStrategy&#45;&gt;AuthenticationModule</title>
<path fill="none" stroke="black" d="M1043,-122.12C1043,-136.78 1043,-155 1043,-155 1043,-155 1197.55,-155 1197.55,-155"/>
<polygon fill="black" stroke="black" points="1197.55,-158.5 1207.55,-155 1197.55,-151.5 1197.55,-158.5"/>
</g>
</g>
</svg>
