<?xml version="1.0" encoding="UTF-8" standalone="no"?>
<!DOCTYPE svg PUBLIC "-//W3C//DTD SVG 1.1//EN"
 "http://www.w3.org/Graphics/SVG/1.1/DTD/svg11.dtd">
<!-- Generated by graphviz version 5.0.0 (20220707.1540)
 -->
<!-- Title: dependencies Pages: 1 -->
<svg width="2502pt" height="247pt"
 viewBox="0.00 0.00 2502.00 246.80" xmlns="http://www.w3.org/2000/svg" xmlns:xlink="http://www.w3.org/1999/xlink">
<g id="graph0" class="graph" transform="scale(1 1) rotate(0) translate(4 242.8)">
<title>dependencies</title>
<polygon fill="white" stroke="transparent" points="-4,4 -4,-242.8 2498,-242.8 2498,4 -4,4"/>
<text text-anchor="middle" x="1247" y="-8.2" font-family="sans-serif" font-size="14.00">dependencies</text>
<g id="clust1" class="cluster">
<title>cluster_AuthenticationModule</title>
<polygon fill="none" stroke="black" stroke-dasharray="1,5" points="8,-32.8 8,-230.8 2486,-230.8 2486,-32.8 8,-32.8"/>
</g>
<g id="clust6" class="cluster">
<title>cluster_AuthenticationModule_providers</title>
<polygon fill="none" stroke="black" points="954,-40.8 954,-92.8 2478,-92.8 2478,-40.8 954,-40.8"/>
</g>
<g id="clust4" class="cluster">
<title>cluster_AuthenticationModule_exports</title>
<polygon fill="none" stroke="black" points="1060,-170.8 1060,-222.8 1220,-222.8 1220,-170.8 1060,-170.8"/>
</g>
<g id="clust3" class="cluster">
<title>cluster_AuthenticationModule_imports</title>
<polygon fill="none" stroke="black" points="16,-40.8 16,-92.8 946,-92.8 946,-40.8 16,-40.8"/>
</g>
<!-- AccountModule -->
<g id="node1" class="node">
<title>AccountModule</title>
<polygon fill="#8dd3c7" stroke="black" points="938.48,-84.8 935.48,-88.8 914.48,-88.8 911.48,-84.8 831.52,-84.8 831.52,-48.8 938.48,-48.8 938.48,-84.8"/>
<text text-anchor="middle" x="885" y="-62.6" font-family="Times,serif" font-size="14.00">AccountModule</text>
</g>
<!-- AuthenticationModule -->
<g id="node8" class="node">
<title>AuthenticationModule</title>
<polygon fill="#8dd3c7" stroke="black" points="1211.25,-149.8 1208.25,-153.8 1187.25,-153.8 1184.25,-149.8 1068.75,-149.8 1068.75,-113.8 1211.25,-113.8 1211.25,-149.8"/>
<text text-anchor="middle" x="1140" y="-127.6" font-family="Times,serif" font-size="14.00">AuthenticationModule</text>
</g>
<!-- AccountModule&#45;&gt;AuthenticationModule -->
<g id="edge1" class="edge">
<title>AccountModule&#45;&gt;AuthenticationModule</title>
<path fill="none" stroke="black" d="M885,-84.99C885,-99.98 885,-118.8 885,-118.8 885,-118.8 1058.63,-118.8 1058.63,-118.8"/>
<polygon fill="black" stroke="black" points="1058.63,-122.3 1068.63,-118.8 1058.63,-115.3 1058.63,-122.3"/>
</g>
<!-- CacheWrapperModule -->
<g id="node2" class="node">
<title>CacheWrapperModule</title>
<polygon fill="#8dd3c7" stroke="black" points="814,-84.8 811,-88.8 790,-88.8 787,-84.8 670,-84.8 670,-48.8 814,-48.8 814,-84.8"/>
<text text-anchor="middle" x="742" y="-62.6" font-family="Times,serif" font-size="14.00">CacheWrapperModule</text>
</g>
<!-- CacheWrapperModule&#45;&gt;AuthenticationModule -->
<g id="edge2" class="edge">
<title>CacheWrapperModule&#45;&gt;AuthenticationModule</title>
<path fill="none" stroke="black" d="M742,-84.83C742,-101.2 742,-122.8 742,-122.8 742,-122.8 1058.39,-122.8 1058.39,-122.8"/>
<polygon fill="black" stroke="black" points="1058.39,-126.3 1068.39,-122.8 1058.39,-119.3 1058.39,-126.3"/>
</g>
<!-- IdentityManagementModule -->
<g id="node3" class="node">
<title>IdentityManagementModule</title>
<polygon fill="#8dd3c7" stroke="black" points="652.18,-84.8 649.18,-88.8 628.18,-88.8 625.18,-84.8 475.82,-84.8 475.82,-48.8 652.18,-48.8 652.18,-84.8"/>
<text text-anchor="middle" x="564" y="-62.6" font-family="Times,serif" font-size="14.00">IdentityManagementModule</text>
</g>
<!-- IdentityManagementModule&#45;&gt;AuthenticationModule -->
<g id="edge3" class="edge">
<title>IdentityManagementModule&#45;&gt;AuthenticationModule</title>
<path fill="none" stroke="black" d="M564,-85.1C564,-103.07 564,-127.8 564,-127.8 564,-127.8 1058.5,-127.8 1058.5,-127.8"/>
<polygon fill="black" stroke="black" points="1058.5,-131.3 1068.5,-127.8 1058.5,-124.3 1058.5,-131.3"/>
</g>
<!-- LoggerModule -->
<g id="node4" class="node">
<title>LoggerModule</title>
<polygon fill="#8dd3c7" stroke="black" points="457.98,-84.8 454.98,-88.8 433.98,-88.8 430.98,-84.8 358.02,-84.8 358.02,-48.8 457.98,-48.8 457.98,-84.8"/>
<text text-anchor="middle" x="408" y="-62.6" font-family="Times,serif" font-size="14.00">LoggerModule</text>
</g>
<!-- LoggerModule&#45;&gt;AuthenticationModule -->
<g id="edge4" class="edge">
<title>LoggerModule&#45;&gt;AuthenticationModule</title>
<path fill="none" stroke="black" d="M408,-84.91C408,-104.14 408,-131.8 408,-131.8 408,-131.8 1058.48,-131.8 1058.48,-131.8"/>
<polygon fill="black" stroke="black" points="1058.48,-135.3 1068.48,-131.8 1058.48,-128.3 1058.48,-135.3"/>
</g>
<!-- OauthModule -->
<g id="node5" class="node">
<title>OauthModule</title>
<polygon fill="#8dd3c7" stroke="black" points="339.77,-84.8 336.77,-88.8 315.77,-88.8 312.77,-84.8 246.23,-84.8 246.23,-48.8 339.77,-48.8 339.77,-84.8"/>
<text text-anchor="middle" x="293" y="-62.6" font-family="Times,serif" font-size="14.00">OauthModule</text>
</g>
<!-- OauthModule&#45;&gt;AuthenticationModule -->
<g id="edge5" class="edge">
<title>OauthModule&#45;&gt;AuthenticationModule</title>
<path fill="none" stroke="black" d="M293,-84.83C293,-105.57 293,-136.8 293,-136.8 293,-136.8 1058.52,-136.8 1058.52,-136.8"/>
<polygon fill="black" stroke="black" points="1058.52,-140.3 1068.52,-136.8 1058.52,-133.3 1058.52,-140.3"/>
</g>
<!-- RoleModule -->
<g id="node6" class="node">
<title>RoleModule</title>
<polygon fill="#8dd3c7" stroke="black" points="227.99,-84.8 224.99,-88.8 203.99,-88.8 200.99,-84.8 142.01,-84.8 142.01,-48.8 227.99,-48.8 227.99,-84.8"/>
<text text-anchor="middle" x="185" y="-62.6" font-family="Times,serif" font-size="14.00">RoleModule</text>
</g>
<!-- RoleModule&#45;&gt;AuthenticationModule -->
<g id="edge6" class="edge">
<title>RoleModule&#45;&gt;AuthenticationModule</title>
<path fill="none" stroke="black" d="M185,-85.09C185,-107.01 185,-140.8 185,-140.8 185,-140.8 1058.61,-140.8 1058.61,-140.8"/>
<polygon fill="black" stroke="black" points="1058.61,-144.3 1068.61,-140.8 1058.61,-137.3 1058.61,-144.3"/>
</g>
<!-- SystemModule -->
<g id="node7" class="node">
<title>SystemModule</title>
<polygon fill="#8dd3c7" stroke="black" points="124.28,-84.8 121.28,-88.8 100.28,-88.8 97.28,-84.8 23.72,-84.8 23.72,-48.8 124.28,-48.8 124.28,-84.8"/>
<text text-anchor="middle" x="74" y="-62.6" font-family="Times,serif" font-size="14.00">SystemModule</text>
</g>
<!-- SystemModule&#45;&gt;AuthenticationModule -->
<g id="edge7" class="edge">
<title>SystemModule&#45;&gt;AuthenticationModule</title>
<path fill="none" stroke="black" d="M74,-85.12C74,-108.46 74,-145.8 74,-145.8 74,-145.8 1058.4,-145.8 1058.4,-145.8"/>
<polygon fill="black" stroke="black" points="1058.4,-149.3 1068.4,-145.8 1058.4,-142.3 1058.4,-149.3"/>
</g>
<!-- AuthenticationService  -->
<g id="node9" class="node">
<title>AuthenticationService </title>
<polygon fill="#fb8072" stroke="black" points="1212.18,-214.8 1067.82,-214.8 1067.82,-178.8 1212.18,-178.8 1212.18,-214.8"/>
<text text-anchor="middle" x="1140" y="-192.6" font-family="Times,serif" font-size="14.00">AuthenticationService </text>
</g>
<!-- AuthenticationModule&#45;&gt;AuthenticationService  -->
<g id="edge8" class="edge">
<title>AuthenticationModule&#45;&gt;AuthenticationService </title>
<path fill="none" stroke="black" stroke-dasharray="5,2" d="M1140,-149.91C1140,-149.91 1140,-168.79 1140,-168.79"/>
<polygon fill="black" stroke="black" points="1136.5,-168.79 1140,-178.79 1143.5,-168.79 1136.5,-168.79"/>
</g>
<!-- AuthenticationService -->
<g id="node10" class="node">
<title>AuthenticationService</title>
<ellipse fill="#fdb462" stroke="black" cx="2373" cy="-66.8" rx="97.27" ry="18"/>
<text text-anchor="middle" x="2373" y="-62.6" font-family="Times,serif" font-size="14.00">AuthenticationService</text>
</g>
<!-- AuthenticationService&#45;&gt;AuthenticationModule -->
<g id="edge9" class="edge">
<title>AuthenticationService&#45;&gt;AuthenticationModule</title>
<path fill="none" stroke="black" d="M2373,-85.12C2373,-108.46 2373,-145.8 2373,-145.8 2373,-145.8 1221.62,-145.8 1221.62,-145.8"/>
<polygon fill="black" stroke="black" points="1221.62,-142.3 1211.62,-145.8 1221.62,-149.3 1221.62,-142.3"/>
</g>
<!-- JwtStrategy -->
<g id="node11" class="node">
<title>JwtStrategy</title>
<ellipse fill="#fdb462" stroke="black" cx="2201" cy="-66.8" rx="56.77" ry="18"/>
<text text-anchor="middle" x="2201" y="-62.6" font-family="Times,serif" font-size="14.00">JwtStrategy</text>
</g>
<!-- JwtStrategy&#45;&gt;AuthenticationModule -->
<g id="edge10" class="edge">
<title>JwtStrategy&#45;&gt;AuthenticationModule</title>
<path fill="none" stroke="black" d="M2201,-85.09C2201,-107.01 2201,-140.8 2201,-140.8 2201,-140.8 1221.26,-140.8 1221.26,-140.8"/>
<polygon fill="black" stroke="black" points="1221.26,-137.3 1211.26,-140.8 1221.26,-144.3 1221.26,-137.3"/>
</g>
<!-- JwtValidationAdapter -->
<g id="node12" class="node">
<title>JwtValidationAdapter</title>
<ellipse fill="#fdb462" stroke="black" cx="2030" cy="-66.8" rx="96.14" ry="18"/>
<text text-anchor="middle" x="2030" y="-62.6" font-family="Times,serif" font-size="14.00">JwtValidationAdapter</text>
</g>
<!-- JwtValidationAdapter&#45;&gt;AuthenticationModule -->
<g id="edge11" class="edge">
<title>JwtValidationAdapter&#45;&gt;AuthenticationModule</title>
<path fill="none" stroke="black" d="M2030,-84.83C2030,-105.57 2030,-136.8 2030,-136.8 2030,-136.8 1221.33,-136.8 1221.33,-136.8"/>
<polygon fill="black" stroke="black" points="1221.33,-133.3 1211.33,-136.8 1221.33,-140.3 1221.33,-133.3"/>
</g>
<!-- LdapService -->
<g id="node13" class="node">
<title>LdapService</title>
<ellipse fill="#fdb462" stroke="black" cx="1856" cy="-66.8" rx="59.67" ry="18"/>
<text text-anchor="middle" x="1856" y="-62.6" font-family="Times,serif" font-size="14.00">LdapService</text>
</g>
<!-- LdapService&#45;&gt;AuthenticationModule -->
<g id="edge12" class="edge">
<title>LdapService&#45;&gt;AuthenticationModule</title>
<path fill="none" stroke="black" d="M1856,-84.91C1856,-104.14 1856,-131.8 1856,-131.8 1856,-131.8 1221.27,-131.8 1221.27,-131.8"/>
<polygon fill="black" stroke="black" points="1221.27,-128.3 1211.27,-131.8 1221.27,-135.3 1221.27,-128.3"/>
</g>
<!-- LdapStrategy -->
<g id="node14" class="node">
<title>LdapStrategy</title>
<ellipse fill="#fdb462" stroke="black" cx="1715" cy="-66.8" rx="63.12" ry="18"/>
<text text-anchor="middle" x="1715" y="-62.6" font-family="Times,serif" font-size="14.00">LdapStrategy</text>
</g>
<!-- LdapStrategy&#45;&gt;AuthenticationModule -->
<g id="edge13" class="edge">
<title>LdapStrategy&#45;&gt;AuthenticationModule</title>
<path fill="none" stroke="black" d="M1715,-85.1C1715,-103.07 1715,-127.8 1715,-127.8 1715,-127.8 1221.37,-127.8 1221.37,-127.8"/>
<polygon fill="black" stroke="black" points="1221.37,-124.3 1211.37,-127.8 1221.37,-131.3 1221.37,-124.3"/>
</g>
<!-- LocalStrategy -->
<g id="node15" class="node">
<title>LocalStrategy</title>
<ellipse fill="#fdb462" stroke="black" cx="1569" cy="-66.8" rx="65.4" ry="18"/>
<text text-anchor="middle" x="1569" y="-62.6" font-family="Times,serif" font-size="14.00">LocalStrategy</text>
</g>
<!-- LocalStrategy&#45;&gt;AuthenticationModule -->
<g id="edge14" class="edge">
<title>LocalStrategy&#45;&gt;AuthenticationModule</title>
<path fill="none" stroke="black" d="M1569,-84.83C1569,-101.2 1569,-122.8 1569,-122.8 1569,-122.8 1221.32,-122.8 1221.32,-122.8"/>
<polygon fill="black" stroke="black" points="1221.32,-119.3 1211.32,-122.8 1221.32,-126.3 1221.32,-119.3"/>
</g>
<!-- OauthStrategy -->
<g id="node16" class="node">
<title>OauthStrategy</title>
<ellipse fill="#fdb462" stroke="black" cx="1419" cy="-66.8" rx="66.64" ry="18"/>
<text text-anchor="middle" x="1419" y="-62.6" font-family="Times,serif" font-size="14.00">OauthStrategy</text>
</g>
<!-- OauthStrategy&#45;&gt;AuthenticationModule -->
<g id="edge15" class="edge">
<title>OauthStrategy&#45;&gt;AuthenticationModule</title>
<path fill="none" stroke="black" d="M1419,-84.99C1419,-99.98 1419,-118.8 1419,-118.8 1419,-118.8 1221.49,-118.8 1221.49,-118.8"/>
<polygon fill="black" stroke="black" points="1221.49,-115.3 1211.49,-118.8 1221.49,-122.3 1221.49,-115.3"/>
</g>
<!-- SchoolRepo -->
<g id="node17" class="node">
<title>SchoolRepo</title>
<ellipse fill="#fdb462" stroke="black" cx="1276" cy="-66.8" rx="58.49" ry="18"/>
<text text-anchor="middle" x="1276" y="-62.6" font-family="Times,serif" font-size="14.00">SchoolRepo</text>
</g>
<!-- SchoolRepo&#45;&gt;AuthenticationModule -->
<g id="edge16" class="edge">
<title>SchoolRepo&#45;&gt;AuthenticationModule</title>
<path fill="none" stroke="black" d="M1217.56,-66.8C1210.44,-66.8 1205.62,-66.8 1205.62,-66.8 1205.62,-66.8 1205.62,-103.69 1205.62,-103.69"/>
<polygon fill="black" stroke="black" points="1202.12,-103.69 1205.62,-113.69 1209.12,-103.69 1202.12,-103.69"/>
</g>
<!-- SystemRepo -->
<g id="node18" class="node">
<title>SystemRepo</title>
<ellipse fill="#fdb462" stroke="black" cx="1140" cy="-66.8" rx="59.72" ry="18"/>
<text text-anchor="middle" x="1140" y="-62.6" font-family="Times,serif" font-size="14.00">SystemRepo</text>
</g>
<!-- SystemRepo&#45;&gt;AuthenticationModule -->
<g id="edge17" class="edge">
<title>SystemRepo&#45;&gt;AuthenticationModule</title>
<path fill="none" stroke="black" d="M1140,-84.91C1140,-84.91 1140,-103.79 1140,-103.79"/>
<polygon fill="black" stroke="black" points="1136.5,-103.79 1140,-113.79 1143.5,-103.79 1136.5,-103.79"/>
</g>
<!-- UserRepo -->
<g id="node19" class="node">
<title>UserRepo</title>
<ellipse fill="#fdb462" stroke="black" cx="1012" cy="-66.8" rx="49.81" ry="18"/>
<text text-anchor="middle" x="1012" y="-62.6" font-family="Times,serif" font-size="14.00">UserRepo</text>
</g>
<!-- UserRepo&#45;&gt;AuthenticationModule -->
<g id="edge18" class="edge">
<title>UserRepo&#45;&gt;AuthenticationModule</title>
<path fill="none" stroke="black" d="M1061.76,-66.8C1069.17,-66.8 1074.38,-66.8 1074.38,-66.8 1074.38,-66.8 1074.38,-103.69 1074.38,-103.69"/>
<polygon fill="black" stroke="black" points="1070.88,-103.69 1074.38,-113.69 1077.88,-103.69 1070.88,-103.69"/>
</g>
</g>
</svg>
