<?xml version="1.0" encoding="UTF-8" standalone="no"?>
<!DOCTYPE svg PUBLIC "-//W3C//DTD SVG 1.1//EN"
 "http://www.w3.org/Graphics/SVG/1.1/DTD/svg11.dtd">
<!-- Generated by graphviz version 5.0.0 (20220707.1540)
 -->
<!-- Title: dependencies Pages: 1 -->
<svg width="2512pt" height="247pt"
 viewBox="0.00 0.00 2512.00 246.80" xmlns="http://www.w3.org/2000/svg" xmlns:xlink="http://www.w3.org/1999/xlink">
<g id="graph0" class="graph" transform="scale(1 1) rotate(0) translate(4 242.8)">
<title>dependencies</title>
<polygon fill="white" stroke="transparent" points="-4,4 -4,-242.8 2508,-242.8 2508,4 -4,4"/>
<text text-anchor="middle" x="1252" y="-8.2" font-family="sans-serif" font-size="14.00">dependencies</text>
<g id="clust1" class="cluster">
<title>cluster_AuthenticationModule</title>
<polygon fill="none" stroke="black" stroke-dasharray="1,5" points="8,-32.8 8,-230.8 2496,-230.8 2496,-32.8 8,-32.8"/>
</g>
<g id="clust3" class="cluster">
<title>cluster_AuthenticationModule_imports</title>
<polygon fill="none" stroke="black" points="1558,-40.8 1558,-92.8 2488,-92.8 2488,-40.8 1558,-40.8"/>
</g>
<g id="clust6" class="cluster">
<title>cluster_AuthenticationModule_providers</title>
<polygon fill="none" stroke="black" points="16,-40.8 16,-92.8 1550,-92.8 1550,-40.8 16,-40.8"/>
</g>
<g id="clust4" class="cluster">
<title>cluster_AuthenticationModule_exports</title>
<polygon fill="none" stroke="black" points="1193,-170.8 1193,-222.8 1353,-222.8 1353,-170.8 1193,-170.8"/>
</g>
<!-- AccountModule -->
<g id="node1" class="node">
<title>AccountModule</title>
<polygon fill="#8dd3c7" stroke="black" points="2480.48,-84.8 2477.48,-88.8 2456.48,-88.8 2453.48,-84.8 2373.52,-84.8 2373.52,-48.8 2480.48,-48.8 2480.48,-84.8"/>
<text text-anchor="middle" x="2427" y="-62.6" font-family="Times,serif" font-size="14.00">AccountModule</text>
</g>
<!-- AuthenticationModule -->
<g id="node8" class="node">
<title>AuthenticationModule</title>
<polygon fill="#8dd3c7" stroke="black" points="1344.25,-149.8 1341.25,-153.8 1320.25,-153.8 1317.25,-149.8 1201.75,-149.8 1201.75,-113.8 1344.25,-113.8 1344.25,-149.8"/>
<text text-anchor="middle" x="1273" y="-127.6" font-family="Times,serif" font-size="14.00">AuthenticationModule</text>
</g>
<!-- AccountModule&#45;&gt;AuthenticationModule -->
<g id="edge1" class="edge">
<title>AccountModule&#45;&gt;AuthenticationModule</title>
<path fill="none" stroke="black" d="M2427,-85.12C2427,-108.46 2427,-145.8 2427,-145.8 2427,-145.8 1354.32,-145.8 1354.32,-145.8"/>
<polygon fill="black" stroke="black" points="1354.32,-142.3 1344.32,-145.8 1354.32,-149.3 1354.32,-142.3"/>
</g>
<!-- CacheWrapperModule -->
<g id="node2" class="node">
<title>CacheWrapperModule</title>
<polygon fill="#8dd3c7" stroke="black" points="2356,-84.8 2353,-88.8 2332,-88.8 2329,-84.8 2212,-84.8 2212,-48.8 2356,-48.8 2356,-84.8"/>
<text text-anchor="middle" x="2284" y="-62.6" font-family="Times,serif" font-size="14.00">CacheWrapperModule</text>
</g>
<!-- CacheWrapperModule&#45;&gt;AuthenticationModule -->
<g id="edge2" class="edge">
<title>CacheWrapperModule&#45;&gt;AuthenticationModule</title>
<path fill="none" stroke="black" d="M2284,-85.09C2284,-107.01 2284,-140.8 2284,-140.8 2284,-140.8 1354.49,-140.8 1354.49,-140.8"/>
<polygon fill="black" stroke="black" points="1354.49,-137.3 1344.49,-140.8 1354.49,-144.3 1354.49,-137.3"/>
</g>
<!-- IdentityManagementModule -->
<g id="node3" class="node">
<title>IdentityManagementModule</title>
<polygon fill="#8dd3c7" stroke="black" points="2194.18,-84.8 2191.18,-88.8 2170.18,-88.8 2167.18,-84.8 2017.82,-84.8 2017.82,-48.8 2194.18,-48.8 2194.18,-84.8"/>
<text text-anchor="middle" x="2106" y="-62.6" font-family="Times,serif" font-size="14.00">IdentityManagementModule</text>
</g>
<!-- IdentityManagementModule&#45;&gt;AuthenticationModule -->
<g id="edge3" class="edge">
<title>IdentityManagementModule&#45;&gt;AuthenticationModule</title>
<path fill="none" stroke="black" d="M2106,-84.83C2106,-105.57 2106,-136.8 2106,-136.8 2106,-136.8 1354.38,-136.8 1354.38,-136.8"/>
<polygon fill="black" stroke="black" points="1354.38,-133.3 1344.38,-136.8 1354.38,-140.3 1354.38,-133.3"/>
</g>
<!-- LoggerModule -->
<g id="node4" class="node">
<title>LoggerModule</title>
<polygon fill="#8dd3c7" stroke="black" points="1999.98,-84.8 1996.98,-88.8 1975.98,-88.8 1972.98,-84.8 1900.02,-84.8 1900.02,-48.8 1999.98,-48.8 1999.98,-84.8"/>
<text text-anchor="middle" x="1950" y="-62.6" font-family="Times,serif" font-size="14.00">LoggerModule</text>
</g>
<!-- LoggerModule&#45;&gt;AuthenticationModule -->
<g id="edge4" class="edge">
<title>LoggerModule&#45;&gt;AuthenticationModule</title>
<path fill="none" stroke="black" d="M1950,-84.91C1950,-104.14 1950,-131.8 1950,-131.8 1950,-131.8 1354.49,-131.8 1354.49,-131.8"/>
<polygon fill="black" stroke="black" points="1354.49,-128.3 1344.49,-131.8 1354.49,-135.3 1354.49,-128.3"/>
</g>
<!-- OauthModule -->
<g id="node5" class="node">
<title>OauthModule</title>
<polygon fill="#8dd3c7" stroke="black" points="1881.77,-84.8 1878.77,-88.8 1857.77,-88.8 1854.77,-84.8 1788.23,-84.8 1788.23,-48.8 1881.77,-48.8 1881.77,-84.8"/>
<text text-anchor="middle" x="1835" y="-62.6" font-family="Times,serif" font-size="14.00">OauthModule</text>
</g>
<!-- OauthModule&#45;&gt;AuthenticationModule -->
<g id="edge5" class="edge">
<title>OauthModule&#45;&gt;AuthenticationModule</title>
<path fill="none" stroke="black" d="M1835,-85.1C1835,-103.07 1835,-127.8 1835,-127.8 1835,-127.8 1354.46,-127.8 1354.46,-127.8"/>
<polygon fill="black" stroke="black" points="1354.46,-124.3 1344.46,-127.8 1354.46,-131.3 1354.46,-124.3"/>
</g>
<!-- RoleModule -->
<g id="node6" class="node">
<title>RoleModule</title>
<polygon fill="#8dd3c7" stroke="black" points="1769.99,-84.8 1766.99,-88.8 1745.99,-88.8 1742.99,-84.8 1684.01,-84.8 1684.01,-48.8 1769.99,-48.8 1769.99,-84.8"/>
<text text-anchor="middle" x="1727" y="-62.6" font-family="Times,serif" font-size="14.00">RoleModule</text>
</g>
<!-- RoleModule&#45;&gt;AuthenticationModule -->
<g id="edge6" class="edge">
<title>RoleModule&#45;&gt;AuthenticationModule</title>
<path fill="none" stroke="black" d="M1727,-84.83C1727,-101.2 1727,-122.8 1727,-122.8 1727,-122.8 1354.44,-122.8 1354.44,-122.8"/>
<polygon fill="black" stroke="black" points="1354.44,-119.3 1344.44,-122.8 1354.44,-126.3 1354.44,-119.3"/>
</g>
<!-- SystemModule -->
<g id="node7" class="node">
<title>SystemModule</title>
<polygon fill="#8dd3c7" stroke="black" points="1666.28,-84.8 1663.28,-88.8 1642.28,-88.8 1639.28,-84.8 1565.72,-84.8 1565.72,-48.8 1666.28,-48.8 1666.28,-84.8"/>
<text text-anchor="middle" x="1616" y="-62.6" font-family="Times,serif" font-size="14.00">SystemModule</text>
</g>
<!-- SystemModule&#45;&gt;AuthenticationModule -->
<g id="edge7" class="edge">
<title>SystemModule&#45;&gt;AuthenticationModule</title>
<path fill="none" stroke="black" d="M1616,-84.99C1616,-99.98 1616,-118.8 1616,-118.8 1616,-118.8 1354.49,-118.8 1354.49,-118.8"/>
<polygon fill="black" stroke="black" points="1354.49,-115.3 1344.49,-118.8 1354.49,-122.3 1354.49,-115.3"/>
</g>
<!-- AuthenticationService  -->
<g id="node9" class="node">
<title>AuthenticationService </title>
<polygon fill="#fb8072" stroke="black" points="1345.18,-214.8 1200.82,-214.8 1200.82,-178.8 1345.18,-178.8 1345.18,-214.8"/>
<text text-anchor="middle" x="1273" y="-192.6" font-family="Times,serif" font-size="14.00">AuthenticationService </text>
</g>
<!-- AuthenticationModule&#45;&gt;AuthenticationService  -->
<g id="edge8" class="edge">
<title>AuthenticationModule&#45;&gt;AuthenticationService </title>
<path fill="none" stroke="black" stroke-dasharray="5,2" d="M1273,-149.91C1273,-149.91 1273,-168.79 1273,-168.79"/>
<polygon fill="black" stroke="black" points="1269.5,-168.79 1273,-178.79 1276.5,-168.79 1269.5,-168.79"/>
</g>
<!-- AuthenticationService -->
<g id="node10" class="node">
<title>AuthenticationService</title>
<ellipse fill="#fdb462" stroke="black" cx="1445" cy="-66.8" rx="97.27" ry="18"/>
<text text-anchor="middle" x="1445" y="-62.6" font-family="Times,serif" font-size="14.00">AuthenticationService</text>
</g>
<!-- AuthenticationService&#45;&gt;AuthenticationModule -->
<g id="edge9" class="edge">
<title>AuthenticationService&#45;&gt;AuthenticationModule</title>
<path fill="none" stroke="black" d="M1347.36,-66.8C1340.96,-66.8 1337,-66.8 1337,-66.8 1337,-66.8 1337,-103.69 1337,-103.69"/>
<polygon fill="black" stroke="black" points="1333.5,-103.69 1337,-113.69 1340.5,-103.69 1333.5,-103.69"/>
</g>
<!-- JwtStrategy -->
<g id="node11" class="node">
<title>JwtStrategy</title>
<ellipse fill="#fdb462" stroke="black" cx="1273" cy="-66.8" rx="56.77" ry="18"/>
<text text-anchor="middle" x="1273" y="-62.6" font-family="Times,serif" font-size="14.00">JwtStrategy</text>
</g>
<!-- JwtStrategy&#45;&gt;AuthenticationModule -->
<g id="edge10" class="edge">
<title>JwtStrategy&#45;&gt;AuthenticationModule</title>
<path fill="none" stroke="black" d="M1273,-84.91C1273,-84.91 1273,-103.79 1273,-103.79"/>
<polygon fill="black" stroke="black" points="1269.5,-103.79 1273,-113.79 1276.5,-103.79 1269.5,-103.79"/>
</g>
<!-- JwtValidationAdapter -->
<g id="node12" class="node">
<title>JwtValidationAdapter</title>
<ellipse fill="#fdb462" stroke="black" cx="1102" cy="-66.8" rx="96.14" ry="18"/>
<text text-anchor="middle" x="1102" y="-62.6" font-family="Times,serif" font-size="14.00">JwtValidationAdapter</text>
</g>
<!-- JwtValidationAdapter&#45;&gt;AuthenticationModule -->
<g id="edge11" class="edge">
<title>JwtValidationAdapter&#45;&gt;AuthenticationModule</title>
<path fill="none" stroke="black" d="M1198.34,-66.8C1204.91,-66.8 1209,-66.8 1209,-66.8 1209,-66.8 1209,-103.69 1209,-103.69"/>
<polygon fill="black" stroke="black" points="1205.5,-103.69 1209,-113.69 1212.5,-103.69 1205.5,-103.69"/>
</g>
<!-- LdapService -->
<g id="node13" class="node">
<title>LdapService</title>
<ellipse fill="#fdb462" stroke="black" cx="928" cy="-66.8" rx="59.67" ry="18"/>
<text text-anchor="middle" x="928" y="-62.6" font-family="Times,serif" font-size="14.00">LdapService</text>
</g>
<!-- LdapService&#45;&gt;AuthenticationModule -->
<g id="edge12" class="edge">
<title>LdapService&#45;&gt;AuthenticationModule</title>
<path fill="none" stroke="black" d="M928,-84.99C928,-99.98 928,-118.8 928,-118.8 928,-118.8 1191.52,-118.8 1191.52,-118.8"/>
<polygon fill="black" stroke="black" points="1191.52,-122.3 1201.52,-118.8 1191.52,-115.3 1191.52,-122.3"/>
</g>
<!-- LdapStrategy -->
<g id="node14" class="node">
<title>LdapStrategy</title>
<ellipse fill="#fdb462" stroke="black" cx="787" cy="-66.8" rx="63.12" ry="18"/>
<text text-anchor="middle" x="787" y="-62.6" font-family="Times,serif" font-size="14.00">LdapStrategy</text>
</g>
<!-- LdapStrategy&#45;&gt;AuthenticationModule -->
<g id="edge13" class="edge">
<title>LdapStrategy&#45;&gt;AuthenticationModule</title>
<path fill="none" stroke="black" d="M787,-84.83C787,-101.2 787,-122.8 787,-122.8 787,-122.8 1191.55,-122.8 1191.55,-122.8"/>
<polygon fill="black" stroke="black" points="1191.55,-126.3 1201.55,-122.8 1191.55,-119.3 1191.55,-126.3"/>
</g>
<!-- LocalStrategy -->
<g id="node15" class="node">
<title>LocalStrategy</title>
<ellipse fill="#fdb462" stroke="black" cx="641" cy="-66.8" rx="65.4" ry="18"/>
<text text-anchor="middle" x="641" y="-62.6" font-family="Times,serif" font-size="14.00">LocalStrategy</text>
</g>
<!-- LocalStrategy&#45;&gt;AuthenticationModule -->
<g id="edge14" class="edge">
<title>LocalStrategy&#45;&gt;AuthenticationModule</title>
<path fill="none" stroke="black" d="M641,-85.1C641,-103.07 641,-127.8 641,-127.8 641,-127.8 1191.73,-127.8 1191.73,-127.8"/>
<polygon fill="black" stroke="black" points="1191.73,-131.3 1201.73,-127.8 1191.73,-124.3 1191.73,-131.3"/>
</g>
<!-- Oauth2Strategy -->
<g id="node16" class="node">
<title>Oauth2Strategy</title>
<ellipse fill="#fdb462" stroke="black" cx="486" cy="-66.8" rx="71.79" ry="18"/>
<text text-anchor="middle" x="486" y="-62.6" font-family="Times,serif" font-size="14.00">Oauth2Strategy</text>
</g>
<!-- Oauth2Strategy&#45;&gt;AuthenticationModule -->
<g id="edge15" class="edge">
<title>Oauth2Strategy&#45;&gt;AuthenticationModule</title>
<path fill="none" stroke="black" d="M486,-84.91C486,-104.14 486,-131.8 486,-131.8 486,-131.8 1191.42,-131.8 1191.42,-131.8"/>
<polygon fill="black" stroke="black" points="1191.42,-135.3 1201.42,-131.8 1191.42,-128.3 1191.42,-135.3"/>
</g>
<!-- SchoolRepo -->
<g id="node17" class="node">
<title>SchoolRepo</title>
<ellipse fill="#fdb462" stroke="black" cx="338" cy="-66.8" rx="58.49" ry="18"/>
<text text-anchor="middle" x="338" y="-62.6" font-family="Times,serif" font-size="14.00">SchoolRepo</text>
</g>
<!-- SchoolRepo&#45;&gt;AuthenticationModule -->
<g id="edge16" class="edge">
<title>SchoolRepo&#45;&gt;AuthenticationModule</title>
<path fill="none" stroke="black" d="M338,-84.83C338,-105.57 338,-136.8 338,-136.8 338,-136.8 1191.57,-136.8 1191.57,-136.8"/>
<polygon fill="black" stroke="black" points="1191.57,-140.3 1201.57,-136.8 1191.57,-133.3 1191.57,-140.3"/>
</g>
<!-- SystemRepo -->
<g id="node18" class="node">
<title>SystemRepo</title>
<ellipse fill="#fdb462" stroke="black" cx="202" cy="-66.8" rx="59.72" ry="18"/>
<text text-anchor="middle" x="202" y="-62.6" font-family="Times,serif" font-size="14.00">SystemRepo</text>
</g>
<!-- SystemRepo&#45;&gt;AuthenticationModule -->
<g id="edge17" class="edge">
<title>SystemRepo&#45;&gt;AuthenticationModule</title>
<path fill="none" stroke="black" d="M202,-85.09C202,-107.01 202,-140.8 202,-140.8 202,-140.8 1191.48,-140.8 1191.48,-140.8"/>
<polygon fill="black" stroke="black" points="1191.48,-144.3 1201.48,-140.8 1191.48,-137.3 1191.48,-144.3"/>
</g>
<!-- UserRepo -->
<g id="node19" class="node">
<title>UserRepo</title>
<ellipse fill="#fdb462" stroke="black" cx="74" cy="-66.8" rx="49.81" ry="18"/>
<text text-anchor="middle" x="74" y="-62.6" font-family="Times,serif" font-size="14.00">UserRepo</text>
</g>
<!-- UserRepo&#45;&gt;AuthenticationModule -->
<g id="edge18" class="edge">
<title>UserRepo&#45;&gt;AuthenticationModule</title>
<path fill="none" stroke="black" d="M74,-85.12C74,-108.46 74,-145.8 74,-145.8 74,-145.8 1191.59,-145.8 1191.59,-145.8"/>
<polygon fill="black" stroke="black" points="1191.59,-149.3 1201.59,-145.8 1191.59,-142.3 1191.59,-149.3"/>
</g>
</g>
</svg>
