<?xml version="1.0" encoding="UTF-8" standalone="no"?>
<!DOCTYPE svg PUBLIC "-//W3C//DTD SVG 1.1//EN"
 "http://www.w3.org/Graphics/SVG/1.1/DTD/svg11.dtd">
<!-- Generated by graphviz version 2.47.0 (20210316.0004)
 -->
<!-- Title: dependencies Pages: 1 -->
<svg width="504pt" height="284pt"
 viewBox="0.00 0.00 504.00 284.00" xmlns="http://www.w3.org/2000/svg" xmlns:xlink="http://www.w3.org/1999/xlink">
<g id="graph0" class="graph" transform="scale(1 1) rotate(0) translate(4 280)">
<title>dependencies</title>
<polygon fill="white" stroke="transparent" points="-4,4 -4,-280 500,-280 500,4 -4,4"/>
<text text-anchor="start" x="227.01" y="-42.4" font-family="Times-12" font-weight="bold" font-size="14.00">Legend</text>
<polygon fill="#ffffb3" stroke="transparent" points="14,-10 14,-30 34,-30 34,-10 14,-10"/>
<text text-anchor="start" x="37.63" y="-15.4" font-family="Times-12" font-size="14.00"> &#160;Declarations</text>
<polygon fill="#8dd3c7" stroke="transparent" points="127,-10 127,-30 147,-30 147,-10 127,-10"/>
<text text-anchor="start" x="150.73" y="-15.4" font-family="Times-12" font-size="14.00"> &#160;Module</text>
<polygon fill="#80b1d3" stroke="transparent" points="213,-10 213,-30 233,-30 233,-10 213,-10"/>
<text text-anchor="start" x="236.78" y="-15.4" font-family="Times-12" font-size="14.00"> &#160;Bootstrap</text>
<polygon fill="#fdb462" stroke="transparent" points="310,-10 310,-30 330,-30 330,-10 310,-10"/>
<text text-anchor="start" x="333.67" y="-15.4" font-family="Times-12" font-size="14.00"> &#160;Providers</text>
<polygon fill="#fb8072" stroke="transparent" points="406,-10 406,-30 426,-30 426,-10 406,-10"/>
<text text-anchor="start" x="429.73" y="-15.4" font-family="Times-12" font-size="14.00"> &#160;Exports</text>
<g id="clust1" class="cluster">
<title>cluster_ClassModule</title>
<polygon fill="none" stroke="black" stroke-dasharray="1,5" points="102,-70 102,-268 394,-268 394,-70 102,-70"/>
</g>
<g id="clust6" class="cluster">
<title>cluster_ClassModule_providers</title>
<polygon fill="none" stroke="black" points="110,-78 110,-130 386,-130 386,-78 110,-78"/>
</g>
<g id="clust4" class="cluster">
<title>cluster_ClassModule_exports</title>
<polygon fill="none" stroke="black" points="193,-208 193,-260 301,-260 301,-208 193,-208"/>
</g>
<!-- ClassService  -->
<g id="node1" class="node">
<title>ClassService </title>
<polygon fill="#fb8072" stroke="black" points="292.81,-252 201.19,-252 201.19,-216 292.81,-216 292.81,-252"/>
<text text-anchor="middle" x="247" y="-229.8" font-family="Times,serif" font-size="14.00">ClassService </text>
</g>
<!-- ClassModule -->
<g id="node2" class="node">
<title>ClassModule</title>
<polygon fill="#8dd3c7" stroke="black" points="291.88,-187 288.88,-191 267.88,-191 264.88,-187 202.12,-187 202.12,-151 291.88,-151 291.88,-187"/>
<text text-anchor="middle" x="247" y="-164.8" font-family="Times,serif" font-size="14.00">ClassModule</text>
</g>
<!-- ClassModule&#45;&gt;ClassService  -->
<g id="edge1" class="edge">
<title>ClassModule&#45;&gt;ClassService </title>
<path fill="none" stroke="black" stroke-dasharray="5,2" d="M247,-187.11C247,-187.11 247,-205.99 247,-205.99"/>
<polygon fill="black" stroke="black" points="243.5,-205.99 247,-215.99 250.5,-205.99 243.5,-205.99"/>
</g>
<!-- ClassService -->
<g id="node3" class="node">
<title>ClassService</title>
<ellipse fill="#fdb462" stroke="black" cx="317" cy="-104" rx="60.83" ry="18"/>
<text text-anchor="middle" x="317" y="-99.8" font-family="Times,serif" font-size="14.00">ClassService</text>
</g>
<!-- ClassService&#45;&gt;ClassModule -->
<g id="edge2" class="edge">
<title>ClassService&#45;&gt;ClassModule</title>
<path fill="none" stroke="black" d="M274.01,-116.84C274.01,-116.84 274.01,-140.52 274.01,-140.52"/>
<polygon fill="black" stroke="black" points="270.51,-140.52 274.01,-150.52 277.51,-140.52 270.51,-140.52"/>
</g>
<!-- ClassesRepo -->
<g id="node4" class="node">
<title>ClassesRepo</title>
<ellipse fill="#fdb462" stroke="black" cx="178" cy="-104" rx="60.27" ry="18"/>
<text text-anchor="middle" x="178" y="-99.8" font-family="Times,serif" font-size="14.00">ClassesRepo</text>
</g>
<!-- ClassesRepo&#45;&gt;ClassModule -->
<g id="edge3" class="edge">
<title>ClassesRepo&#45;&gt;ClassModule</title>
<path fill="none" stroke="black" d="M220.22,-117.15C220.22,-117.15 220.22,-140.69 220.22,-140.69"/>
<polygon fill="black" stroke="black" points="216.72,-140.69 220.22,-150.69 223.72,-140.69 216.72,-140.69"/>
</g>
</g>
</svg>
