<?xml version="1.0" encoding="UTF-8" standalone="no"?>
<!DOCTYPE svg PUBLIC "-//W3C//DTD SVG 1.1//EN"
 "http://www.w3.org/Graphics/SVG/1.1/DTD/svg11.dtd">
<!-- Generated by graphviz version 2.47.0 (20210316.0004)
 -->
<!-- Title: dependencies Pages: 1 -->
<svg width="504pt" height="284pt"
 viewBox="0.00 0.00 504.00 284.00" xmlns="http://www.w3.org/2000/svg" xmlns:xlink="http://www.w3.org/1999/xlink">
<g id="graph0" class="graph" transform="scale(1 1) rotate(0) translate(4 280)">
<title>dependencies</title>
<polygon fill="white" stroke="transparent" points="-4,4 -4,-280 500,-280 500,4 -4,4"/>
<text text-anchor="start" x="227.01" y="-42.4" font-family="Times-12" font-weight="bold" font-size="14.00">Legend</text>
<polygon fill="#ffffb3" stroke="transparent" points="14,-10 14,-30 34,-30 34,-10 14,-10"/>
<text text-anchor="start" x="37.63" y="-15.4" font-family="Times-12" font-size="14.00"> &#160;Declarations</text>
<polygon fill="#8dd3c7" stroke="transparent" points="127,-10 127,-30 147,-30 147,-10 127,-10"/>
<text text-anchor="start" x="150.73" y="-15.4" font-family="Times-12" font-size="14.00"> &#160;Module</text>
<polygon fill="#80b1d3" stroke="transparent" points="213,-10 213,-30 233,-30 233,-10 213,-10"/>
<text text-anchor="start" x="236.78" y="-15.4" font-family="Times-12" font-size="14.00"> &#160;Bootstrap</text>
<polygon fill="#fdb462" stroke="transparent" points="310,-10 310,-30 330,-30 330,-10 310,-10"/>
<text text-anchor="start" x="333.67" y="-15.4" font-family="Times-12" font-size="14.00"> &#160;Providers</text>
<polygon fill="#fb8072" stroke="transparent" points="406,-10 406,-30 426,-30 426,-10 406,-10"/>
<text text-anchor="start" x="429.73" y="-15.4" font-family="Times-12" font-size="14.00"> &#160;Exports</text>
<g id="clust1" class="cluster">
<title>cluster_ClassModule</title>
<polygon fill="none" stroke="black" stroke-dasharray="1,5" points="40,-70 40,-268 456,-268 456,-70 40,-70"/>
</g>
<g id="clust3" class="cluster">
<title>cluster_ClassModule_imports</title>
<polygon fill="none" stroke="black" points="332,-78 332,-130 448,-130 448,-78 332,-78"/>
</g>
<g id="clust6" class="cluster">
<title>cluster_ClassModule_providers</title>
<polygon fill="none" stroke="black" points="48,-78 48,-130 324,-130 324,-78 48,-78"/>
</g>
<g id="clust4" class="cluster">
<title>cluster_ClassModule_exports</title>
<polygon fill="none" stroke="black" points="201,-208 201,-260 309,-260 309,-208 201,-208"/>
</g>
<!-- LoggerModule -->
<g id="node1" class="node">
<title>LoggerModule</title>
<polygon fill="#8dd3c7" stroke="black" points="439.98,-122 436.98,-126 415.98,-126 412.98,-122 340.02,-122 340.02,-86 439.98,-86 439.98,-122"/>
<text text-anchor="middle" x="390" y="-99.8" font-family="Times,serif" font-size="14.00">LoggerModule</text>
</g>
<!-- ClassModule -->
<g id="node2" class="node">
<title>ClassModule</title>
<polygon fill="#8dd3c7" stroke="black" points="299.88,-187 296.88,-191 275.88,-191 272.88,-187 210.12,-187 210.12,-151 299.88,-151 299.88,-187"/>
<text text-anchor="middle" x="255" y="-164.8" font-family="Times,serif" font-size="14.00">ClassModule</text>
</g>
<!-- LoggerModule&#45;&gt;ClassModule -->
<g id="edge1" class="edge">
<title>LoggerModule&#45;&gt;ClassModule</title>
<path fill="none" stroke="black" d="M390,-122.11C390,-141.34 390,-169 390,-169 390,-169 309.95,-169 309.95,-169"/>
<polygon fill="black" stroke="black" points="309.95,-165.5 299.95,-169 309.95,-172.5 309.95,-165.5"/>
</g>
<!-- ClassService  -->
<g id="node3" class="node">
<title>ClassService </title>
<polygon fill="#fb8072" stroke="black" points="300.81,-252 209.19,-252 209.19,-216 300.81,-216 300.81,-252"/>
<text text-anchor="middle" x="255" y="-229.8" font-family="Times,serif" font-size="14.00">ClassService </text>
</g>
<!-- ClassModule&#45;&gt;ClassService  -->
<g id="edge2" class="edge">
<title>ClassModule&#45;&gt;ClassService </title>
<path fill="none" stroke="black" stroke-dasharray="5,2" d="M255,-187.11C255,-187.11 255,-205.99 255,-205.99"/>
<polygon fill="black" stroke="black" points="251.5,-205.99 255,-215.99 258.5,-205.99 251.5,-205.99"/>
</g>
<!-- ClassService -->
<g id="node4" class="node">
<title>ClassService</title>
<ellipse fill="#fdb462" stroke="black" cx="255" cy="-104" rx="60.83" ry="18"/>
<text text-anchor="middle" x="255" y="-99.8" font-family="Times,serif" font-size="14.00">ClassService</text>
</g>
<!-- ClassService&#45;&gt;ClassModule -->
<g id="edge3" class="edge">
<title>ClassService&#45;&gt;ClassModule</title>
<path fill="none" stroke="black" d="M255,-122.11C255,-122.11 255,-140.99 255,-140.99"/>
<polygon fill="black" stroke="black" points="251.5,-140.99 255,-150.99 258.5,-140.99 251.5,-140.99"/>
</g>
<!-- ClassesRepo -->
<g id="node5" class="node">
<title>ClassesRepo</title>
<ellipse fill="#fdb462" stroke="black" cx="116" cy="-104" rx="60.27" ry="18"/>
<text text-anchor="middle" x="116" y="-99.8" font-family="Times,serif" font-size="14.00">ClassesRepo</text>
</g>
<!-- ClassesRepo&#45;&gt;ClassModule -->
<g id="edge4" class="edge">
<title>ClassesRepo&#45;&gt;ClassModule</title>
<path fill="none" stroke="black" d="M116,-122.11C116,-141.34 116,-169 116,-169 116,-169 199.87,-169 199.87,-169"/>
<polygon fill="black" stroke="black" points="199.87,-172.5 209.87,-169 199.87,-165.5 199.87,-172.5"/>
</g>
</g>
</svg>
