<?xml version="1.0" encoding="UTF-8" standalone="no"?>
<!DOCTYPE svg PUBLIC "-//W3C//DTD SVG 1.1//EN"
 "http://www.w3.org/Graphics/SVG/1.1/DTD/svg11.dtd">
<!-- Generated by graphviz version 2.47.0 (20210316.0004)
 -->
<!-- Title: dependencies Pages: 1 -->
<svg width="504pt" height="284pt"
 viewBox="0.00 0.00 504.00 284.00" xmlns="http://www.w3.org/2000/svg" xmlns:xlink="http://www.w3.org/1999/xlink">
<g id="graph0" class="graph" transform="scale(1 1) rotate(0) translate(4 280)">
<title>dependencies</title>
<polygon fill="white" stroke="transparent" points="-4,4 -4,-280 500,-280 500,4 -4,4"/>
<text text-anchor="start" x="227.01" y="-42.4" font-family="Times-12" font-weight="bold" font-size="14.00">Legend</text>
<polygon fill="#ffffb3" stroke="transparent" points="14,-10 14,-30 34,-30 34,-10 14,-10"/>
<text text-anchor="start" x="37.63" y="-15.4" font-family="Times-12" font-size="14.00"> &#160;Declarations</text>
<polygon fill="#8dd3c7" stroke="transparent" points="127,-10 127,-30 147,-30 147,-10 127,-10"/>
<text text-anchor="start" x="150.73" y="-15.4" font-family="Times-12" font-size="14.00"> &#160;Module</text>
<polygon fill="#80b1d3" stroke="transparent" points="213,-10 213,-30 233,-30 233,-10 213,-10"/>
<text text-anchor="start" x="236.78" y="-15.4" font-family="Times-12" font-size="14.00"> &#160;Bootstrap</text>
<polygon fill="#fdb462" stroke="transparent" points="310,-10 310,-30 330,-30 330,-10 310,-10"/>
<text text-anchor="start" x="333.67" y="-15.4" font-family="Times-12" font-size="14.00"> &#160;Providers</text>
<polygon fill="#fb8072" stroke="transparent" points="406,-10 406,-30 426,-30 426,-10 406,-10"/>
<text text-anchor="start" x="429.73" y="-15.4" font-family="Times-12" font-size="14.00"> &#160;Exports</text>
<g id="clust1" class="cluster">
<title>cluster_ClassModule</title>
<polygon fill="none" stroke="black" stroke-dasharray="1,5" points="40,-70 40,-268 456,-268 456,-70 40,-70"/>
</g>
<g id="clust4" class="cluster">
<title>cluster_ClassModule_exports</title>
<polygon fill="none" stroke="black" points="186,-208 186,-260 294,-260 294,-208 186,-208"/>
</g>
<g id="clust6" class="cluster">
<title>cluster_ClassModule_providers</title>
<polygon fill="none" stroke="black" points="172,-78 172,-130 448,-130 448,-78 172,-78"/>
</g>
<g id="clust3" class="cluster">
<title>cluster_ClassModule_imports</title>
<polygon fill="none" stroke="black" points="48,-78 48,-130 164,-130 164,-78 48,-78"/>
</g>
<!-- LoggerModule -->
<g id="node1" class="node">
<title>LoggerModule</title>
<polygon fill="#8dd3c7" stroke="black" points="155.98,-122 152.98,-126 131.98,-126 128.98,-122 56.02,-122 56.02,-86 155.98,-86 155.98,-122"/>
<text text-anchor="middle" x="106" y="-99.8" font-family="Times,serif" font-size="14.00">LoggerModule</text>
</g>
<!-- ClassModule -->
<g id="node2" class="node">
<title>ClassModule</title>
<polygon fill="#8dd3c7" stroke="black" points="284.88,-187 281.88,-191 260.88,-191 257.88,-187 195.12,-187 195.12,-151 284.88,-151 284.88,-187"/>
<text text-anchor="middle" x="240" y="-164.8" font-family="Times,serif" font-size="14.00">ClassModule</text>
</g>
<!-- LoggerModule&#45;&gt;ClassModule -->
<g id="edge1" class="edge">
<title>LoggerModule&#45;&gt;ClassModule</title>
<path fill="none" stroke="black" d="M106,-122.11C106,-141.34 106,-169 106,-169 106,-169 185.01,-169 185.01,-169"/>
<polygon fill="black" stroke="black" points="185.01,-172.5 195.01,-169 185.01,-165.5 185.01,-172.5"/>
</g>
<!-- ClassService  -->
<g id="node3" class="node">
<title>ClassService </title>
<polygon fill="#fb8072" stroke="black" points="285.81,-252 194.19,-252 194.19,-216 285.81,-216 285.81,-252"/>
<text text-anchor="middle" x="240" y="-229.8" font-family="Times,serif" font-size="14.00">ClassService </text>
</g>
<!-- ClassModule&#45;&gt;ClassService  -->
<g id="edge2" class="edge">
<title>ClassModule&#45;&gt;ClassService </title>
<path fill="none" stroke="black" stroke-dasharray="5,2" d="M240,-187.11C240,-187.11 240,-205.99 240,-205.99"/>
<polygon fill="black" stroke="black" points="236.5,-205.99 240,-215.99 243.5,-205.99 236.5,-205.99"/>
</g>
<!-- ClassService -->
<g id="node4" class="node">
<title>ClassService</title>
<ellipse fill="#fdb462" stroke="black" cx="379" cy="-104" rx="60.83" ry="18"/>
<text text-anchor="middle" x="379" y="-99.8" font-family="Times,serif" font-size="14.00">ClassService</text>
</g>
<!-- ClassService&#45;&gt;ClassModule -->
<g id="edge3" class="edge">
<title>ClassService&#45;&gt;ClassModule</title>
<path fill="none" stroke="black" d="M379,-122.11C379,-141.34 379,-169 379,-169 379,-169 295.13,-169 295.13,-169"/>
<polygon fill="black" stroke="black" points="295.13,-165.5 285.13,-169 295.13,-172.5 295.13,-165.5"/>
</g>
<!-- ClassesRepo -->
<g id="node5" class="node">
<title>ClassesRepo</title>
<ellipse fill="#fdb462" stroke="black" cx="240" cy="-104" rx="60.27" ry="18"/>
<text text-anchor="middle" x="240" y="-99.8" font-family="Times,serif" font-size="14.00">ClassesRepo</text>
</g>
<!-- ClassesRepo&#45;&gt;ClassModule -->
<g id="edge4" class="edge">
<title>ClassesRepo&#45;&gt;ClassModule</title>
<path fill="none" stroke="black" d="M240,-122.11C240,-122.11 240,-140.99 240,-140.99"/>
<polygon fill="black" stroke="black" points="236.5,-140.99 240,-150.99 243.5,-140.99 236.5,-140.99"/>
</g>
</g>
</svg>
