<?xml version="1.0" encoding="UTF-8" standalone="no"?>
<!DOCTYPE svg PUBLIC "-//W3C//DTD SVG 1.1//EN"
 "http://www.w3.org/Graphics/SVG/1.1/DTD/svg11.dtd">
<!-- Generated by graphviz version 2.47.0 (20210316.0004)
 -->
<!-- Title: dependencies Pages: 1 -->
<svg width="1401pt" height="211pt"
 viewBox="0.00 0.00 1401.00 211.00" xmlns="http://www.w3.org/2000/svg" xmlns:xlink="http://www.w3.org/1999/xlink">
<g id="graph0" class="graph" transform="scale(1 1) rotate(0) translate(4 207)">
<title>dependencies</title>
<polygon fill="white" stroke="transparent" points="-4,4 -4,-207 1397,-207 1397,4 -4,4"/>
<text text-anchor="start" x="675.51" y="-42.4" font-family="Times-12" font-weight="bold" font-size="14.00">Legend</text>
<polygon fill="#ffffb3" stroke="transparent" points="462.5,-10 462.5,-30 482.5,-30 482.5,-10 462.5,-10"/>
<text text-anchor="start" x="486.13" y="-15.4" font-family="Times-12" font-size="14.00"> &#160;Declarations</text>
<polygon fill="#8dd3c7" stroke="transparent" points="575.5,-10 575.5,-30 595.5,-30 595.5,-10 575.5,-10"/>
<text text-anchor="start" x="599.23" y="-15.4" font-family="Times-12" font-size="14.00"> &#160;Module</text>
<polygon fill="#80b1d3" stroke="transparent" points="661.5,-10 661.5,-30 681.5,-30 681.5,-10 661.5,-10"/>
<text text-anchor="start" x="685.28" y="-15.4" font-family="Times-12" font-size="14.00"> &#160;Bootstrap</text>
<polygon fill="#fdb462" stroke="transparent" points="758.5,-10 758.5,-30 778.5,-30 778.5,-10 758.5,-10"/>
<text text-anchor="start" x="782.17" y="-15.4" font-family="Times-12" font-size="14.00"> &#160;Providers</text>
<polygon fill="#fb8072" stroke="transparent" points="854.5,-10 854.5,-30 874.5,-30 874.5,-10 854.5,-10"/>
<text text-anchor="start" x="878.23" y="-15.4" font-family="Times-12" font-size="14.00"> &#160;Exports</text>
<g id="clust1" class="cluster">
<title>cluster_SharingApiModule</title>
<polygon fill="none" stroke="black" stroke-dasharray="1,5" points="8,-70 8,-195 1385,-195 1385,-70 8,-70"/>
</g>
<g id="clust3" class="cluster">
<title>cluster_SharingApiModule_imports</title>
<polygon fill="none" stroke="black" points="182,-78 182,-130 1377,-130 1377,-78 182,-78"/>
</g>
<g id="clust6" class="cluster">
<title>cluster_SharingApiModule_providers</title>
<polygon fill="none" stroke="black" points="16,-78 16,-130 174,-130 174,-78 16,-78"/>
</g>
<!-- AuthorizationModule -->
<g id="node1" class="node">
<title>AuthorizationModule</title>
<polygon fill="#8dd3c7" stroke="black" points="1368.81,-122 1365.81,-126 1344.81,-126 1341.81,-122 1231.19,-122 1231.19,-86 1368.81,-86 1368.81,-122"/>
<text text-anchor="middle" x="1300" y="-99.8" font-family="Times,serif" font-size="14.00">AuthorizationModule</text>
</g>
<!-- SharingApiModule -->
<g id="node10" class="node">
<title>SharingApiModule</title>
<polygon fill="#8dd3c7" stroke="black" points="703.1,-187 700.1,-191 679.1,-191 676.1,-187 578.9,-187 578.9,-151 703.1,-151 703.1,-187"/>
<text text-anchor="middle" x="641" y="-164.8" font-family="Times,serif" font-size="14.00">SharingApiModule</text>
</g>
<!-- AuthorizationModule&#45;&gt;SharingApiModule -->
<g id="edge1" class="edge">
<title>AuthorizationModule&#45;&gt;SharingApiModule</title>
<path fill="none" stroke="black" d="M1300,-122.01C1300,-144.49 1300,-180 1300,-180 1300,-180 713.29,-180 713.29,-180"/>
<polygon fill="black" stroke="black" points="713.29,-176.5 703.29,-180 713.29,-183.5 713.29,-176.5"/>
</g>
<!-- AuthorizationReferenceModule -->
<g id="node2" class="node">
<title>AuthorizationReferenceModule</title>
<polygon fill="#8dd3c7" stroke="black" points="1213.04,-122 1210.04,-126 1189.04,-126 1186.04,-122 1018.96,-122 1018.96,-86 1213.04,-86 1213.04,-122"/>
<text text-anchor="middle" x="1116" y="-99.8" font-family="Times,serif" font-size="14.00">AuthorizationReferenceModule</text>
</g>
<!-- AuthorizationReferenceModule&#45;&gt;SharingApiModule -->
<g id="edge2" class="edge">
<title>AuthorizationReferenceModule&#45;&gt;SharingApiModule</title>
<path fill="none" stroke="black" d="M1116,-122.13C1116,-142.57 1116,-173 1116,-173 1116,-173 713.1,-173 713.1,-173"/>
<polygon fill="black" stroke="black" points="713.1,-169.5 703.1,-173 713.1,-176.5 713.1,-169.5"/>
</g>
<!-- BoardModule -->
<g id="node3" class="node">
<title>BoardModule</title>
<polygon fill="#8dd3c7" stroke="black" points="1000.76,-122 997.76,-126 976.76,-126 973.76,-122 907.24,-122 907.24,-86 1000.76,-86 1000.76,-122"/>
<text text-anchor="middle" x="954" y="-99.8" font-family="Times,serif" font-size="14.00">BoardModule</text>
</g>
<!-- BoardModule&#45;&gt;SharingApiModule -->
<g id="edge3" class="edge">
<title>BoardModule&#45;&gt;SharingApiModule</title>
<path fill="none" stroke="black" d="M954,-122.27C954,-140.56 954,-166 954,-166 954,-166 713.21,-166 713.21,-166"/>
<polygon fill="black" stroke="black" points="713.21,-162.5 703.21,-166 713.21,-169.5 713.21,-162.5"/>
</g>
<!-- LearnroomModule -->
<g id="node4" class="node">
<title>LearnroomModule</title>
<polygon fill="#8dd3c7" stroke="black" points="888.74,-122 885.74,-126 864.74,-126 861.74,-122 767.26,-122 767.26,-86 888.74,-86 888.74,-122"/>
<text text-anchor="middle" x="828" y="-99.8" font-family="Times,serif" font-size="14.00">LearnroomModule</text>
</g>
<!-- LearnroomModule&#45;&gt;SharingApiModule -->
<g id="edge4" class="edge">
<title>LearnroomModule&#45;&gt;SharingApiModule</title>
<path fill="none" stroke="black" d="M828,-122.01C828,-138.05 828,-159 828,-159 828,-159 713.27,-159 713.27,-159"/>
<polygon fill="black" stroke="black" points="713.27,-155.5 703.27,-159 713.27,-162.5 713.27,-155.5"/>
</g>
<!-- LessonModule -->
<g id="node5" class="node">
<title>LessonModule</title>
<polygon fill="#8dd3c7" stroke="black" points="749.71,-122 746.71,-126 725.71,-126 722.71,-122 650.29,-122 650.29,-86 749.71,-86 749.71,-122"/>
<text text-anchor="middle" x="700" y="-99.8" font-family="Times,serif" font-size="14.00">LessonModule</text>
</g>
<!-- LessonModule&#45;&gt;SharingApiModule -->
<g id="edge5" class="edge">
<title>LessonModule&#45;&gt;SharingApiModule</title>
<path fill="none" stroke="black" d="M676.72,-122.11C676.72,-122.11 676.72,-140.99 676.72,-140.99"/>
<polygon fill="black" stroke="black" points="673.22,-140.99 676.72,-150.99 680.22,-140.99 673.22,-140.99"/>
</g>
<!-- LoggerModule -->
<g id="node6" class="node">
<title>LoggerModule</title>
<polygon fill="#8dd3c7" stroke="black" points="631.98,-122 628.98,-126 607.98,-126 604.98,-122 532.02,-122 532.02,-86 631.98,-86 631.98,-122"/>
<text text-anchor="middle" x="582" y="-99.8" font-family="Times,serif" font-size="14.00">LoggerModule</text>
</g>
<!-- LoggerModule&#45;&gt;SharingApiModule -->
<g id="edge6" class="edge">
<title>LoggerModule&#45;&gt;SharingApiModule</title>
<path fill="none" stroke="black" d="M605.47,-122.11C605.47,-122.11 605.47,-140.99 605.47,-140.99"/>
<polygon fill="black" stroke="black" points="601.97,-140.99 605.47,-150.99 608.97,-140.99 601.97,-140.99"/>
</g>
<!-- SchoolModule -->
<g id="node7" class="node">
<title>SchoolModule</title>
<polygon fill="#8dd3c7" stroke="black" points="514.44,-122 511.44,-126 490.44,-126 487.44,-122 415.56,-122 415.56,-86 514.44,-86 514.44,-122"/>
<text text-anchor="middle" x="465" y="-99.8" font-family="Times,serif" font-size="14.00">SchoolModule</text>
</g>
<!-- SchoolModule&#45;&gt;SharingApiModule -->
<g id="edge7" class="edge">
<title>SchoolModule&#45;&gt;SharingApiModule</title>
<path fill="none" stroke="black" d="M465,-122.01C465,-138.05 465,-159 465,-159 465,-159 568.95,-159 568.95,-159"/>
<polygon fill="black" stroke="black" points="568.95,-162.5 578.95,-159 568.95,-155.5 568.95,-162.5"/>
</g>
<!-- SharingModule -->
<g id="node8" class="node">
<title>SharingModule</title>
<polygon fill="#8dd3c7" stroke="black" points="397.6,-122 394.6,-126 373.6,-126 370.6,-122 294.4,-122 294.4,-86 397.6,-86 397.6,-122"/>
<text text-anchor="middle" x="346" y="-99.8" font-family="Times,serif" font-size="14.00">SharingModule</text>
</g>
<!-- SharingModule&#45;&gt;SharingApiModule -->
<g id="edge8" class="edge">
<title>SharingModule&#45;&gt;SharingApiModule</title>
<path fill="none" stroke="black" d="M346,-122.27C346,-140.56 346,-166 346,-166 346,-166 568.8,-166 568.8,-166"/>
<polygon fill="black" stroke="black" points="568.8,-169.5 578.8,-166 568.8,-162.5 568.8,-169.5"/>
</g>
<!-- TaskModule -->
<g id="node9" class="node">
<title>TaskModule</title>
<polygon fill="#8dd3c7" stroke="black" points="276.26,-122 273.26,-126 252.26,-126 249.26,-122 189.74,-122 189.74,-86 276.26,-86 276.26,-122"/>
<text text-anchor="middle" x="233" y="-99.8" font-family="Times,serif" font-size="14.00">TaskModule</text>
</g>
<!-- TaskModule&#45;&gt;SharingApiModule -->
<g id="edge9" class="edge">
<title>TaskModule&#45;&gt;SharingApiModule</title>
<path fill="none" stroke="black" d="M233,-122.13C233,-142.57 233,-173 233,-173 233,-173 568.59,-173 568.59,-173"/>
<polygon fill="black" stroke="black" points="568.59,-176.5 578.59,-173 568.59,-169.5 568.59,-176.5"/>
</g>
<!-- ShareTokenUC -->
<g id="node11" class="node">
<title>ShareTokenUC</title>
<ellipse fill="#fdb462" stroke="black" cx="95" cy="-104" rx="71.21" ry="18"/>
<text text-anchor="middle" x="95" y="-99.8" font-family="Times,serif" font-size="14.00">ShareTokenUC</text>
</g>
<!-- ShareTokenUC&#45;&gt;SharingApiModule -->
<g id="edge10" class="edge">
<title>ShareTokenUC&#45;&gt;SharingApiModule</title>
<path fill="none" stroke="black" d="M95,-122.01C95,-144.49 95,-180 95,-180 95,-180 568.9,-180 568.9,-180"/>
<polygon fill="black" stroke="black" points="568.9,-183.5 578.9,-180 568.9,-176.5 568.9,-183.5"/>
</g>
</g>
</svg>
