<?xml version="1.0" encoding="UTF-8" standalone="no"?>
<!DOCTYPE svg PUBLIC "-//W3C//DTD SVG 1.1//EN"
 "http://www.w3.org/Graphics/SVG/1.1/DTD/svg11.dtd">
<!-- Generated by graphviz version 2.47.0 (20210316.0004)
 -->
<!-- Title: dependencies Pages: 1 -->
<svg width="1285pt" height="211pt"
 viewBox="0.00 0.00 1285.00 211.00" xmlns="http://www.w3.org/2000/svg" xmlns:xlink="http://www.w3.org/1999/xlink">
<g id="graph0" class="graph" transform="scale(1 1) rotate(0) translate(4 207)">
<title>dependencies</title>
<polygon fill="white" stroke="transparent" points="-4,4 -4,-207 1281,-207 1281,4 -4,4"/>
<text text-anchor="start" x="617.51" y="-42.4" font-family="Times-12" font-weight="bold" font-size="14.00">Legend</text>
<polygon fill="#ffffb3" stroke="transparent" points="404.5,-10 404.5,-30 424.5,-30 424.5,-10 404.5,-10"/>
<text text-anchor="start" x="428.13" y="-15.4" font-family="Times-12" font-size="14.00"> &#160;Declarations</text>
<polygon fill="#8dd3c7" stroke="transparent" points="517.5,-10 517.5,-30 537.5,-30 537.5,-10 517.5,-10"/>
<text text-anchor="start" x="541.23" y="-15.4" font-family="Times-12" font-size="14.00"> &#160;Module</text>
<polygon fill="#80b1d3" stroke="transparent" points="603.5,-10 603.5,-30 623.5,-30 623.5,-10 603.5,-10"/>
<text text-anchor="start" x="627.28" y="-15.4" font-family="Times-12" font-size="14.00"> &#160;Bootstrap</text>
<polygon fill="#fdb462" stroke="transparent" points="700.5,-10 700.5,-30 720.5,-30 720.5,-10 700.5,-10"/>
<text text-anchor="start" x="724.17" y="-15.4" font-family="Times-12" font-size="14.00"> &#160;Providers</text>
<polygon fill="#fb8072" stroke="transparent" points="796.5,-10 796.5,-30 816.5,-30 816.5,-10 796.5,-10"/>
<text text-anchor="start" x="820.23" y="-15.4" font-family="Times-12" font-size="14.00"> &#160;Exports</text>
<g id="clust1" class="cluster">
<title>cluster_SharingApiModule</title>
<polygon fill="none" stroke="black" stroke-dasharray="1,5" points="8,-70 8,-195 1269,-195 1269,-70 8,-70"/>
</g>
<g id="clust6" class="cluster">
<title>cluster_SharingApiModule_providers</title>
<polygon fill="none" stroke="black" points="1103,-78 1103,-130 1261,-130 1261,-78 1103,-78"/>
</g>
<g id="clust3" class="cluster">
<title>cluster_SharingApiModule_imports</title>
<polygon fill="none" stroke="black" points="16,-78 16,-130 1095,-130 1095,-78 16,-78"/>
</g>
<!-- AuthorizationModule -->
<g id="node1" class="node">
<title>AuthorizationModule</title>
<polygon fill="#8dd3c7" stroke="black" points="1086.81,-122 1083.81,-126 1062.81,-126 1059.81,-122 949.19,-122 949.19,-86 1086.81,-86 1086.81,-122"/>
<text text-anchor="middle" x="1018" y="-99.8" font-family="Times,serif" font-size="14.00">AuthorizationModule</text>
</g>
<!-- SharingApiModule -->
<g id="node9" class="node">
<title>SharingApiModule</title>
<polygon fill="#8dd3c7" stroke="black" points="608.1,-187 605.1,-191 584.1,-191 581.1,-187 483.9,-187 483.9,-151 608.1,-151 608.1,-187"/>
<text text-anchor="middle" x="546" y="-164.8" font-family="Times,serif" font-size="14.00">SharingApiModule</text>
</g>
<!-- AuthorizationModule&#45;&gt;SharingApiModule -->
<g id="edge1" class="edge">
<title>AuthorizationModule&#45;&gt;SharingApiModule</title>
<path fill="none" stroke="black" d="M1018,-122.13C1018,-142.57 1018,-173 1018,-173 1018,-173 618.19,-173 618.19,-173"/>
<polygon fill="black" stroke="black" points="618.19,-169.5 608.19,-173 618.19,-176.5 618.19,-169.5"/>
</g>
<!-- AuthorizationReferenceModule -->
<g id="node2" class="node">
<title>AuthorizationReferenceModule</title>
<polygon fill="#8dd3c7" stroke="black" points="931.04,-122 928.04,-126 907.04,-126 904.04,-122 736.96,-122 736.96,-86 931.04,-86 931.04,-122"/>
<text text-anchor="middle" x="834" y="-99.8" font-family="Times,serif" font-size="14.00">AuthorizationReferenceModule</text>
</g>
<!-- AuthorizationReferenceModule&#45;&gt;SharingApiModule -->
<g id="edge2" class="edge">
<title>AuthorizationReferenceModule&#45;&gt;SharingApiModule</title>
<path fill="none" stroke="black" d="M834,-122.27C834,-140.56 834,-166 834,-166 834,-166 618.14,-166 618.14,-166"/>
<polygon fill="black" stroke="black" points="618.14,-162.5 608.14,-166 618.14,-169.5 618.14,-162.5"/>
</g>
<!-- BoardModule -->
<g id="node3" class="node">
<title>BoardModule</title>
<polygon fill="#8dd3c7" stroke="black" points="718.76,-122 715.76,-126 694.76,-126 691.76,-122 625.24,-122 625.24,-86 718.76,-86 718.76,-122"/>
<text text-anchor="middle" x="672" y="-99.8" font-family="Times,serif" font-size="14.00">BoardModule</text>
</g>
<!-- BoardModule&#45;&gt;SharingApiModule -->
<g id="edge3" class="edge">
<title>BoardModule&#45;&gt;SharingApiModule</title>
<path fill="none" stroke="black" d="M672,-122.01C672,-138.05 672,-159 672,-159 672,-159 618.26,-159 618.26,-159"/>
<polygon fill="black" stroke="black" points="618.26,-155.5 608.26,-159 618.26,-162.5 618.26,-155.5"/>
</g>
<!-- LearnroomModule -->
<g id="node4" class="node">
<title>LearnroomModule</title>
<polygon fill="#8dd3c7" stroke="black" points="606.74,-122 603.74,-126 582.74,-126 579.74,-122 485.26,-122 485.26,-86 606.74,-86 606.74,-122"/>
<text text-anchor="middle" x="546" y="-99.8" font-family="Times,serif" font-size="14.00">LearnroomModule</text>
</g>
<!-- LearnroomModule&#45;&gt;SharingApiModule -->
<g id="edge4" class="edge">
<title>LearnroomModule&#45;&gt;SharingApiModule</title>
<path fill="none" stroke="black" d="M546,-122.11C546,-122.11 546,-140.99 546,-140.99"/>
<polygon fill="black" stroke="black" points="542.5,-140.99 546,-150.99 549.5,-140.99 542.5,-140.99"/>
</g>
<!-- LessonModule -->
<g id="node5" class="node">
<title>LessonModule</title>
<polygon fill="#8dd3c7" stroke="black" points="467.71,-122 464.71,-126 443.71,-126 440.71,-122 368.29,-122 368.29,-86 467.71,-86 467.71,-122"/>
<text text-anchor="middle" x="418" y="-99.8" font-family="Times,serif" font-size="14.00">LessonModule</text>
</g>
<!-- LessonModule&#45;&gt;SharingApiModule -->
<g id="edge5" class="edge">
<title>LessonModule&#45;&gt;SharingApiModule</title>
<path fill="none" stroke="black" d="M418,-122.01C418,-138.05 418,-159 418,-159 418,-159 473.87,-159 473.87,-159"/>
<polygon fill="black" stroke="black" points="473.87,-162.5 483.87,-159 473.87,-155.5 473.87,-162.5"/>
</g>
<!-- LoggerModule -->
<g id="node6" class="node">
<title>LoggerModule</title>
<polygon fill="#8dd3c7" stroke="black" points="349.98,-122 346.98,-126 325.98,-126 322.98,-122 250.02,-122 250.02,-86 349.98,-86 349.98,-122"/>
<text text-anchor="middle" x="300" y="-99.8" font-family="Times,serif" font-size="14.00">LoggerModule</text>
</g>
<!-- LoggerModule&#45;&gt;SharingApiModule -->
<g id="edge6" class="edge">
<title>LoggerModule&#45;&gt;SharingApiModule</title>
<path fill="none" stroke="black" d="M300,-122.27C300,-140.56 300,-166 300,-166 300,-166 473.92,-166 473.92,-166"/>
<polygon fill="black" stroke="black" points="473.92,-169.5 483.92,-166 473.92,-162.5 473.92,-169.5"/>
</g>
<!-- SharingModule -->
<g id="node7" class="node">
<title>SharingModule</title>
<polygon fill="#8dd3c7" stroke="black" points="231.6,-122 228.6,-126 207.6,-126 204.6,-122 128.4,-122 128.4,-86 231.6,-86 231.6,-122"/>
<text text-anchor="middle" x="180" y="-99.8" font-family="Times,serif" font-size="14.00">SharingModule</text>
</g>
<!-- SharingModule&#45;&gt;SharingApiModule -->
<g id="edge7" class="edge">
<title>SharingModule&#45;&gt;SharingApiModule</title>
<path fill="none" stroke="black" d="M180,-122.13C180,-142.57 180,-173 180,-173 180,-173 473.91,-173 473.91,-173"/>
<polygon fill="black" stroke="black" points="473.91,-176.5 483.91,-173 473.91,-169.5 473.91,-176.5"/>
</g>
<!-- TaskModule -->
<g id="node8" class="node">
<title>TaskModule</title>
<polygon fill="#8dd3c7" stroke="black" points="110.26,-122 107.26,-126 86.26,-126 83.26,-122 23.74,-122 23.74,-86 110.26,-86 110.26,-122"/>
<text text-anchor="middle" x="67" y="-99.8" font-family="Times,serif" font-size="14.00">TaskModule</text>
</g>
<!-- TaskModule&#45;&gt;SharingApiModule -->
<g id="edge8" class="edge">
<title>TaskModule&#45;&gt;SharingApiModule</title>
<path fill="none" stroke="black" d="M67,-122.01C67,-144.49 67,-180 67,-180 67,-180 473.87,-180 473.87,-180"/>
<polygon fill="black" stroke="black" points="473.87,-183.5 483.87,-180 473.87,-176.5 473.87,-183.5"/>
</g>
<!-- ShareTokenUC -->
<g id="node10" class="node">
<title>ShareTokenUC</title>
<ellipse fill="#fdb462" stroke="black" cx="1182" cy="-104" rx="71.21" ry="18"/>
<text text-anchor="middle" x="1182" y="-99.8" font-family="Times,serif" font-size="14.00">ShareTokenUC</text>
</g>
<!-- ShareTokenUC&#45;&gt;SharingApiModule -->
<g id="edge9" class="edge">
<title>ShareTokenUC&#45;&gt;SharingApiModule</title>
<path fill="none" stroke="black" d="M1182,-122.01C1182,-144.49 1182,-180 1182,-180 1182,-180 618.14,-180 618.14,-180"/>
<polygon fill="black" stroke="black" points="618.14,-176.5 608.14,-180 618.14,-183.5 618.14,-176.5"/>
</g>
</g>
</svg>
