<?xml version="1.0" encoding="UTF-8" standalone="no"?>
<!DOCTYPE svg PUBLIC "-//W3C//DTD SVG 1.1//EN"
 "http://www.w3.org/Graphics/SVG/1.1/DTD/svg11.dtd">
<!-- Generated by graphviz version 2.47.0 (20210316.0004)
 -->
<!-- Title: dependencies Pages: 1 -->
<svg width="1285pt" height="211pt"
 viewBox="0.00 0.00 1285.00 211.00" xmlns="http://www.w3.org/2000/svg" xmlns:xlink="http://www.w3.org/1999/xlink">
<g id="graph0" class="graph" transform="scale(1 1) rotate(0) translate(4 207)">
<title>dependencies</title>
<polygon fill="white" stroke="transparent" points="-4,4 -4,-207 1281,-207 1281,4 -4,4"/>
<text text-anchor="start" x="617.51" y="-42.4" font-family="Times-12" font-weight="bold" font-size="14.00">Legend</text>
<polygon fill="#ffffb3" stroke="transparent" points="404.5,-10 404.5,-30 424.5,-30 424.5,-10 404.5,-10"/>
<text text-anchor="start" x="428.13" y="-15.4" font-family="Times-12" font-size="14.00"> &#160;Declarations</text>
<polygon fill="#8dd3c7" stroke="transparent" points="517.5,-10 517.5,-30 537.5,-30 537.5,-10 517.5,-10"/>
<text text-anchor="start" x="541.23" y="-15.4" font-family="Times-12" font-size="14.00"> &#160;Module</text>
<polygon fill="#80b1d3" stroke="transparent" points="603.5,-10 603.5,-30 623.5,-30 623.5,-10 603.5,-10"/>
<text text-anchor="start" x="627.28" y="-15.4" font-family="Times-12" font-size="14.00"> &#160;Bootstrap</text>
<polygon fill="#fdb462" stroke="transparent" points="700.5,-10 700.5,-30 720.5,-30 720.5,-10 700.5,-10"/>
<text text-anchor="start" x="724.17" y="-15.4" font-family="Times-12" font-size="14.00"> &#160;Providers</text>
<polygon fill="#fb8072" stroke="transparent" points="796.5,-10 796.5,-30 816.5,-30 816.5,-10 796.5,-10"/>
<text text-anchor="start" x="820.23" y="-15.4" font-family="Times-12" font-size="14.00"> &#160;Exports</text>
<g id="clust1" class="cluster">
<title>cluster_SharingApiModule</title>
<polygon fill="none" stroke="black" stroke-dasharray="1,5" points="8,-70 8,-195 1269,-195 1269,-70 8,-70"/>
</g>
<g id="clust3" class="cluster">
<title>cluster_SharingApiModule_imports</title>
<polygon fill="none" stroke="black" points="182,-78 182,-130 1261,-130 1261,-78 182,-78"/>
</g>
<g id="clust6" class="cluster">
<title>cluster_SharingApiModule_providers</title>
<polygon fill="none" stroke="black" points="16,-78 16,-130 174,-130 174,-78 16,-78"/>
</g>
<!-- AuthorizationModule -->
<g id="node1" class="node">
<title>AuthorizationModule</title>
<polygon fill="#8dd3c7" stroke="black" points="1252.81,-122 1249.81,-126 1228.81,-126 1225.81,-122 1115.19,-122 1115.19,-86 1252.81,-86 1252.81,-122"/>
<text text-anchor="middle" x="1184" y="-99.8" font-family="Times,serif" font-size="14.00">AuthorizationModule</text>
</g>
<!-- SharingApiModule -->
<g id="node9" class="node">
<title>SharingApiModule</title>
<polygon fill="#8dd3c7" stroke="black" points="646.1,-187 643.1,-191 622.1,-191 619.1,-187 521.9,-187 521.9,-151 646.1,-151 646.1,-187"/>
<text text-anchor="middle" x="584" y="-164.8" font-family="Times,serif" font-size="14.00">SharingApiModule</text>
</g>
<!-- AuthorizationModule&#45;&gt;SharingApiModule -->
<g id="edge1" class="edge">
<title>AuthorizationModule&#45;&gt;SharingApiModule</title>
<path fill="none" stroke="black" d="M1184,-122.29C1184,-144.21 1184,-178 1184,-178 1184,-178 656.23,-178 656.23,-178"/>
<polygon fill="black" stroke="black" points="656.23,-174.5 646.23,-178 656.23,-181.5 656.23,-174.5"/>
</g>
<!-- AuthorizationReferenceModule -->
<g id="node2" class="node">
<title>AuthorizationReferenceModule</title>
<polygon fill="#8dd3c7" stroke="black" points="1097.04,-122 1094.04,-126 1073.04,-126 1070.04,-122 902.96,-122 902.96,-86 1097.04,-86 1097.04,-122"/>
<text text-anchor="middle" x="1000" y="-99.8" font-family="Times,serif" font-size="14.00">AuthorizationReferenceModule</text>
</g>
<!-- AuthorizationReferenceModule&#45;&gt;SharingApiModule -->
<g id="edge2" class="edge">
<title>AuthorizationReferenceModule&#45;&gt;SharingApiModule</title>
<path fill="none" stroke="black" d="M1000,-122.11C1000,-141.34 1000,-169 1000,-169 1000,-169 656.28,-169 656.28,-169"/>
<polygon fill="black" stroke="black" points="656.28,-165.5 646.28,-169 656.28,-172.5 656.28,-165.5"/>
</g>
<!-- BoardModule -->
<g id="node3" class="node">
<title>BoardModule</title>
<polygon fill="#8dd3c7" stroke="black" points="884.76,-122 881.76,-126 860.76,-126 857.76,-122 791.24,-122 791.24,-86 884.76,-86 884.76,-122"/>
<text text-anchor="middle" x="838" y="-99.8" font-family="Times,serif" font-size="14.00">BoardModule</text>
</g>
<!-- BoardModule&#45;&gt;SharingApiModule -->
<g id="edge3" class="edge">
<title>BoardModule&#45;&gt;SharingApiModule</title>
<path fill="none" stroke="black" d="M838,-122.03C838,-138.4 838,-160 838,-160 838,-160 656.14,-160 656.14,-160"/>
<polygon fill="black" stroke="black" points="656.14,-156.5 646.14,-160 656.14,-163.5 656.14,-156.5"/>
</g>
<!-- LearnroomModule -->
<g id="node4" class="node">
<title>LearnroomModule</title>
<polygon fill="#8dd3c7" stroke="black" points="772.74,-122 769.74,-126 748.74,-126 745.74,-122 651.26,-122 651.26,-86 772.74,-86 772.74,-122"/>
<text text-anchor="middle" x="712" y="-99.8" font-family="Times,serif" font-size="14.00">LearnroomModule</text>
</g>
<!-- LearnroomModule&#45;&gt;SharingApiModule -->
<g id="edge4" class="edge">
<title>LearnroomModule&#45;&gt;SharingApiModule</title>
<path fill="none" stroke="black" d="M651.1,-104C644.34,-104 639.83,-104 639.83,-104 639.83,-104 639.83,-140.89 639.83,-140.89"/>
<polygon fill="black" stroke="black" points="636.33,-140.89 639.83,-150.89 643.33,-140.89 636.33,-140.89"/>
</g>
<!-- LessonModule -->
<g id="node5" class="node">
<title>LessonModule</title>
<polygon fill="#8dd3c7" stroke="black" points="633.71,-122 630.71,-126 609.71,-126 606.71,-122 534.29,-122 534.29,-86 633.71,-86 633.71,-122"/>
<text text-anchor="middle" x="584" y="-99.8" font-family="Times,serif" font-size="14.00">LessonModule</text>
</g>
<!-- LessonModule&#45;&gt;SharingApiModule -->
<g id="edge5" class="edge">
<title>LessonModule&#45;&gt;SharingApiModule</title>
<path fill="none" stroke="black" d="M584,-122.11C584,-122.11 584,-140.99 584,-140.99"/>
<polygon fill="black" stroke="black" points="580.5,-140.99 584,-150.99 587.5,-140.99 580.5,-140.99"/>
</g>
<!-- LoggerModule -->
<g id="node6" class="node">
<title>LoggerModule</title>
<polygon fill="#8dd3c7" stroke="black" points="515.98,-122 512.98,-126 491.98,-126 488.98,-122 416.02,-122 416.02,-86 515.98,-86 515.98,-122"/>
<text text-anchor="middle" x="466" y="-99.8" font-family="Times,serif" font-size="14.00">LoggerModule</text>
</g>
<!-- LoggerModule&#45;&gt;SharingApiModule -->
<g id="edge6" class="edge">
<title>LoggerModule&#45;&gt;SharingApiModule</title>
<path fill="none" stroke="black" d="M516.19,-104C523.26,-104 528.17,-104 528.17,-104 528.17,-104 528.17,-140.89 528.17,-140.89"/>
<polygon fill="black" stroke="black" points="524.67,-140.89 528.17,-150.89 531.67,-140.89 524.67,-140.89"/>
</g>
<!-- SharingModule -->
<g id="node7" class="node">
<title>SharingModule</title>
<polygon fill="#8dd3c7" stroke="black" points="397.6,-122 394.6,-126 373.6,-126 370.6,-122 294.4,-122 294.4,-86 397.6,-86 397.6,-122"/>
<text text-anchor="middle" x="346" y="-99.8" font-family="Times,serif" font-size="14.00">SharingModule</text>
</g>
<!-- SharingModule&#45;&gt;SharingApiModule -->
<g id="edge7" class="edge">
<title>SharingModule&#45;&gt;SharingApiModule</title>
<path fill="none" stroke="black" d="M346,-122.03C346,-138.4 346,-160 346,-160 346,-160 511.78,-160 511.78,-160"/>
<polygon fill="black" stroke="black" points="511.78,-163.5 521.78,-160 511.78,-156.5 511.78,-163.5"/>
</g>
<!-- TaskModule -->
<g id="node8" class="node">
<title>TaskModule</title>
<polygon fill="#8dd3c7" stroke="black" points="276.26,-122 273.26,-126 252.26,-126 249.26,-122 189.74,-122 189.74,-86 276.26,-86 276.26,-122"/>
<text text-anchor="middle" x="233" y="-99.8" font-family="Times,serif" font-size="14.00">TaskModule</text>
</g>
<!-- TaskModule&#45;&gt;SharingApiModule -->
<g id="edge8" class="edge">
<title>TaskModule&#45;&gt;SharingApiModule</title>
<path fill="none" stroke="black" d="M233,-122.11C233,-141.34 233,-169 233,-169 233,-169 511.65,-169 511.65,-169"/>
<polygon fill="black" stroke="black" points="511.65,-172.5 521.65,-169 511.65,-165.5 511.65,-172.5"/>
</g>
<!-- ShareTokenUC -->
<g id="node10" class="node">
<title>ShareTokenUC</title>
<ellipse fill="#fdb462" stroke="black" cx="95" cy="-104" rx="71.21" ry="18"/>
<text text-anchor="middle" x="95" y="-99.8" font-family="Times,serif" font-size="14.00">ShareTokenUC</text>
</g>
<!-- ShareTokenUC&#45;&gt;SharingApiModule -->
<g id="edge9" class="edge">
<title>ShareTokenUC&#45;&gt;SharingApiModule</title>
<path fill="none" stroke="black" d="M95,-122.29C95,-144.21 95,-178 95,-178 95,-178 511.57,-178 511.57,-178"/>
<polygon fill="black" stroke="black" points="511.57,-181.5 521.57,-178 511.57,-174.5 511.57,-181.5"/>
</g>
</g>
</svg>
