<?xml version="1.0" encoding="UTF-8" standalone="no"?>
<!DOCTYPE svg PUBLIC "-//W3C//DTD SVG 1.1//EN"
 "http://www.w3.org/Graphics/SVG/1.1/DTD/svg11.dtd">
<!-- Generated by graphviz version 2.47.0 (20210316.0004)
 -->
<!-- Title: dependencies Pages: 1 -->
<svg width="1401pt" height="211pt"
 viewBox="0.00 0.00 1401.00 211.00" xmlns="http://www.w3.org/2000/svg" xmlns:xlink="http://www.w3.org/1999/xlink">
<g id="graph0" class="graph" transform="scale(1 1) rotate(0) translate(4 207)">
<title>dependencies</title>
<polygon fill="white" stroke="transparent" points="-4,4 -4,-207 1397,-207 1397,4 -4,4"/>
<text text-anchor="start" x="675.51" y="-42.4" font-family="Times-12" font-weight="bold" font-size="14.00">Legend</text>
<polygon fill="#ffffb3" stroke="transparent" points="462.5,-10 462.5,-30 482.5,-30 482.5,-10 462.5,-10"/>
<text text-anchor="start" x="486.13" y="-15.4" font-family="Times-12" font-size="14.00"> &#160;Declarations</text>
<polygon fill="#8dd3c7" stroke="transparent" points="575.5,-10 575.5,-30 595.5,-30 595.5,-10 575.5,-10"/>
<text text-anchor="start" x="599.23" y="-15.4" font-family="Times-12" font-size="14.00"> &#160;Module</text>
<polygon fill="#80b1d3" stroke="transparent" points="661.5,-10 661.5,-30 681.5,-30 681.5,-10 661.5,-10"/>
<text text-anchor="start" x="685.28" y="-15.4" font-family="Times-12" font-size="14.00"> &#160;Bootstrap</text>
<polygon fill="#fdb462" stroke="transparent" points="758.5,-10 758.5,-30 778.5,-30 778.5,-10 758.5,-10"/>
<text text-anchor="start" x="782.17" y="-15.4" font-family="Times-12" font-size="14.00"> &#160;Providers</text>
<polygon fill="#fb8072" stroke="transparent" points="854.5,-10 854.5,-30 874.5,-30 874.5,-10 854.5,-10"/>
<text text-anchor="start" x="878.23" y="-15.4" font-family="Times-12" font-size="14.00"> &#160;Exports</text>
<g id="clust1" class="cluster">
<title>cluster_SharingApiModule</title>
<polygon fill="none" stroke="black" stroke-dasharray="1,5" points="8,-70 8,-195 1385,-195 1385,-70 8,-70"/>
</g>
<g id="clust6" class="cluster">
<title>cluster_SharingApiModule_providers</title>
<polygon fill="none" stroke="black" points="1219,-78 1219,-130 1377,-130 1377,-78 1219,-78"/>
</g>
<g id="clust3" class="cluster">
<title>cluster_SharingApiModule_imports</title>
<polygon fill="none" stroke="black" points="16,-78 16,-130 1211,-130 1211,-78 16,-78"/>
</g>
<!-- AuthorizationModule -->
<g id="node1" class="node">
<title>AuthorizationModule</title>
<polygon fill="#8dd3c7" stroke="black" points="1202.81,-122 1199.81,-126 1178.81,-126 1175.81,-122 1065.19,-122 1065.19,-86 1202.81,-86 1202.81,-122"/>
<text text-anchor="middle" x="1134" y="-99.8" font-family="Times,serif" font-size="14.00">AuthorizationModule</text>
</g>
<!-- SharingApiModule -->
<g id="node10" class="node">
<title>SharingApiModule</title>
<polygon fill="#8dd3c7" stroke="black" points="660.1,-187 657.1,-191 636.1,-191 633.1,-187 535.9,-187 535.9,-151 660.1,-151 660.1,-187"/>
<text text-anchor="middle" x="598" y="-164.8" font-family="Times,serif" font-size="14.00">SharingApiModule</text>
</g>
<!-- AuthorizationModule&#45;&gt;SharingApiModule -->
<g id="edge1" class="edge">
<title>AuthorizationModule&#45;&gt;SharingApiModule</title>
<path fill="none" stroke="black" d="M1134,-122.13C1134,-142.57 1134,-173 1134,-173 1134,-173 670.27,-173 670.27,-173"/>
<polygon fill="black" stroke="black" points="670.27,-169.5 660.27,-173 670.27,-176.5 670.27,-169.5"/>
</g>
<!-- AuthorizationReferenceModule -->
<g id="node2" class="node">
<title>AuthorizationReferenceModule</title>
<polygon fill="#8dd3c7" stroke="black" points="1047.04,-122 1044.04,-126 1023.04,-126 1020.04,-122 852.96,-122 852.96,-86 1047.04,-86 1047.04,-122"/>
<text text-anchor="middle" x="950" y="-99.8" font-family="Times,serif" font-size="14.00">AuthorizationReferenceModule</text>
</g>
<!-- AuthorizationReferenceModule&#45;&gt;SharingApiModule -->
<g id="edge2" class="edge">
<title>AuthorizationReferenceModule&#45;&gt;SharingApiModule</title>
<path fill="none" stroke="black" d="M950,-122.27C950,-140.56 950,-166 950,-166 950,-166 670.12,-166 670.12,-166"/>
<polygon fill="black" stroke="black" points="670.12,-162.5 660.12,-166 670.12,-169.5 670.12,-162.5"/>
</g>
<!-- BoardModule -->
<g id="node3" class="node">
<title>BoardModule</title>
<polygon fill="#8dd3c7" stroke="black" points="834.76,-122 831.76,-126 810.76,-126 807.76,-122 741.24,-122 741.24,-86 834.76,-86 834.76,-122"/>
<text text-anchor="middle" x="788" y="-99.8" font-family="Times,serif" font-size="14.00">BoardModule</text>
</g>
<!-- BoardModule&#45;&gt;SharingApiModule -->
<g id="edge3" class="edge">
<title>BoardModule&#45;&gt;SharingApiModule</title>
<path fill="none" stroke="black" d="M788,-122.01C788,-138.05 788,-159 788,-159 788,-159 670.21,-159 670.21,-159"/>
<polygon fill="black" stroke="black" points="670.21,-155.5 660.21,-159 670.21,-162.5 670.21,-155.5"/>
</g>
<!-- LearnroomModule -->
<g id="node4" class="node">
<title>LearnroomModule</title>
<polygon fill="#8dd3c7" stroke="black" points="722.74,-122 719.74,-126 698.74,-126 695.74,-122 601.26,-122 601.26,-86 722.74,-86 722.74,-122"/>
<text text-anchor="middle" x="662" y="-99.8" font-family="Times,serif" font-size="14.00">LearnroomModule</text>
</g>
<!-- LearnroomModule&#45;&gt;SharingApiModule -->
<g id="edge4" class="edge">
<title>LearnroomModule&#45;&gt;SharingApiModule</title>
<path fill="none" stroke="black" d="M630.59,-122.11C630.59,-122.11 630.59,-140.99 630.59,-140.99"/>
<polygon fill="black" stroke="black" points="627.09,-140.99 630.59,-150.99 634.09,-140.99 627.09,-140.99"/>
</g>
<!-- LessonModule -->
<g id="node5" class="node">
<title>LessonModule</title>
<polygon fill="#8dd3c7" stroke="black" points="583.71,-122 580.71,-126 559.71,-126 556.71,-122 484.29,-122 484.29,-86 583.71,-86 583.71,-122"/>
<text text-anchor="middle" x="534" y="-99.8" font-family="Times,serif" font-size="14.00">LessonModule</text>
</g>
<!-- LessonModule&#45;&gt;SharingApiModule -->
<g id="edge5" class="edge">
<title>LessonModule&#45;&gt;SharingApiModule</title>
<path fill="none" stroke="black" d="M559.78,-122.11C559.78,-122.11 559.78,-140.99 559.78,-140.99"/>
<polygon fill="black" stroke="black" points="556.28,-140.99 559.78,-150.99 563.28,-140.99 556.28,-140.99"/>
</g>
<!-- LoggerModule -->
<g id="node6" class="node">
<title>LoggerModule</title>
<polygon fill="#8dd3c7" stroke="black" points="465.98,-122 462.98,-126 441.98,-126 438.98,-122 366.02,-122 366.02,-86 465.98,-86 465.98,-122"/>
<text text-anchor="middle" x="416" y="-99.8" font-family="Times,serif" font-size="14.00">LoggerModule</text>
</g>
<!-- LoggerModule&#45;&gt;SharingApiModule -->
<g id="edge6" class="edge">
<title>LoggerModule&#45;&gt;SharingApiModule</title>
<path fill="none" stroke="black" d="M416,-122.01C416,-138.05 416,-159 416,-159 416,-159 525.87,-159 525.87,-159"/>
<polygon fill="black" stroke="black" points="525.87,-162.5 535.87,-159 525.87,-155.5 525.87,-162.5"/>
</g>
<!-- SchoolModule -->
<g id="node7" class="node">
<title>SchoolModule</title>
<polygon fill="#8dd3c7" stroke="black" points="348.44,-122 345.44,-126 324.44,-126 321.44,-122 249.56,-122 249.56,-86 348.44,-86 348.44,-122"/>
<text text-anchor="middle" x="299" y="-99.8" font-family="Times,serif" font-size="14.00">SchoolModule</text>
</g>
<!-- SchoolModule&#45;&gt;SharingApiModule -->
<g id="edge7" class="edge">
<title>SchoolModule&#45;&gt;SharingApiModule</title>
<path fill="none" stroke="black" d="M299,-122.27C299,-140.56 299,-166 299,-166 299,-166 525.68,-166 525.68,-166"/>
<polygon fill="black" stroke="black" points="525.68,-169.5 535.68,-166 525.68,-162.5 525.68,-169.5"/>
</g>
<!-- SharingModule -->
<g id="node8" class="node">
<title>SharingModule</title>
<polygon fill="#8dd3c7" stroke="black" points="231.6,-122 228.6,-126 207.6,-126 204.6,-122 128.4,-122 128.4,-86 231.6,-86 231.6,-122"/>
<text text-anchor="middle" x="180" y="-99.8" font-family="Times,serif" font-size="14.00">SharingModule</text>
</g>
<!-- SharingModule&#45;&gt;SharingApiModule -->
<g id="edge8" class="edge">
<title>SharingModule&#45;&gt;SharingApiModule</title>
<path fill="none" stroke="black" d="M180,-122.13C180,-142.57 180,-173 180,-173 180,-173 525.87,-173 525.87,-173"/>
<polygon fill="black" stroke="black" points="525.87,-176.5 535.87,-173 525.87,-169.5 525.87,-176.5"/>
</g>
<!-- TaskModule -->
<g id="node9" class="node">
<title>TaskModule</title>
<polygon fill="#8dd3c7" stroke="black" points="110.26,-122 107.26,-126 86.26,-126 83.26,-122 23.74,-122 23.74,-86 110.26,-86 110.26,-122"/>
<text text-anchor="middle" x="67" y="-99.8" font-family="Times,serif" font-size="14.00">TaskModule</text>
</g>
<!-- TaskModule&#45;&gt;SharingApiModule -->
<g id="edge9" class="edge">
<title>TaskModule&#45;&gt;SharingApiModule</title>
<path fill="none" stroke="black" d="M67,-122.01C67,-144.49 67,-180 67,-180 67,-180 525.79,-180 525.79,-180"/>
<polygon fill="black" stroke="black" points="525.79,-183.5 535.79,-180 525.79,-176.5 525.79,-183.5"/>
</g>
<!-- ShareTokenUC -->
<g id="node11" class="node">
<title>ShareTokenUC</title>
<ellipse fill="#fdb462" stroke="black" cx="1298" cy="-104" rx="71.21" ry="18"/>
<text text-anchor="middle" x="1298" y="-99.8" font-family="Times,serif" font-size="14.00">ShareTokenUC</text>
</g>
<!-- ShareTokenUC&#45;&gt;SharingApiModule -->
<g id="edge10" class="edge">
<title>ShareTokenUC&#45;&gt;SharingApiModule</title>
<path fill="none" stroke="black" d="M1298,-122.01C1298,-144.49 1298,-180 1298,-180 1298,-180 670.12,-180 670.12,-180"/>
<polygon fill="black" stroke="black" points="670.12,-176.5 660.12,-180 670.12,-183.5 670.12,-176.5"/>
</g>
</g>
</svg>
