<?xml version="1.0" encoding="UTF-8" standalone="no"?>
<!DOCTYPE svg PUBLIC "-//W3C//DTD SVG 1.1//EN"
 "http://www.w3.org/Graphics/SVG/1.1/DTD/svg11.dtd">
<!-- Generated by graphviz version 2.47.0 (20210316.0004)
 -->
<!-- Title: dependencies Pages: 1 -->
<svg width="1173pt" height="211pt"
 viewBox="0.00 0.00 1173.00 211.00" xmlns="http://www.w3.org/2000/svg" xmlns:xlink="http://www.w3.org/1999/xlink">
<g id="graph0" class="graph" transform="scale(1 1) rotate(0) translate(4 207)">
<title>dependencies</title>
<polygon fill="white" stroke="transparent" points="-4,4 -4,-207 1169,-207 1169,4 -4,4"/>
<text text-anchor="start" x="561.51" y="-42.4" font-family="Times-12" font-weight="bold" font-size="14.00">Legend</text>
<polygon fill="#ffffb3" stroke="transparent" points="348.5,-10 348.5,-30 368.5,-30 368.5,-10 348.5,-10"/>
<text text-anchor="start" x="372.13" y="-15.4" font-family="Times-12" font-size="14.00"> &#160;Declarations</text>
<polygon fill="#8dd3c7" stroke="transparent" points="461.5,-10 461.5,-30 481.5,-30 481.5,-10 461.5,-10"/>
<text text-anchor="start" x="485.23" y="-15.4" font-family="Times-12" font-size="14.00"> &#160;Module</text>
<polygon fill="#80b1d3" stroke="transparent" points="547.5,-10 547.5,-30 567.5,-30 567.5,-10 547.5,-10"/>
<text text-anchor="start" x="571.28" y="-15.4" font-family="Times-12" font-size="14.00"> &#160;Bootstrap</text>
<polygon fill="#fdb462" stroke="transparent" points="644.5,-10 644.5,-30 664.5,-30 664.5,-10 644.5,-10"/>
<text text-anchor="start" x="668.17" y="-15.4" font-family="Times-12" font-size="14.00"> &#160;Providers</text>
<polygon fill="#fb8072" stroke="transparent" points="740.5,-10 740.5,-30 760.5,-30 760.5,-10 740.5,-10"/>
<text text-anchor="start" x="764.23" y="-15.4" font-family="Times-12" font-size="14.00"> &#160;Exports</text>
<g id="clust1" class="cluster">
<title>cluster_SharingApiModule</title>
<polygon fill="none" stroke="black" stroke-dasharray="1,5" points="8,-70 8,-195 1157,-195 1157,-70 8,-70"/>
</g>
<g id="clust6" class="cluster">
<title>cluster_SharingApiModule_providers</title>
<polygon fill="none" stroke="black" points="991,-78 991,-130 1149,-130 1149,-78 991,-78"/>
</g>
<g id="clust3" class="cluster">
<title>cluster_SharingApiModule_imports</title>
<polygon fill="none" stroke="black" points="16,-78 16,-130 983,-130 983,-78 16,-78"/>
</g>
<!-- AuthorizationModule -->
<g id="node1" class="node">
<title>AuthorizationModule</title>
<polygon fill="#8dd3c7" stroke="black" points="974.81,-122 971.81,-126 950.81,-126 947.81,-122 837.19,-122 837.19,-86 974.81,-86 974.81,-122"/>
<text text-anchor="middle" x="906" y="-99.8" font-family="Times,serif" font-size="14.00">AuthorizationModule</text>
</g>
<!-- SharingApiModule -->
<g id="node8" class="node">
<title>SharingApiModule</title>
<polygon fill="#8dd3c7" stroke="black" points="544.1,-187 541.1,-191 520.1,-191 517.1,-187 419.9,-187 419.9,-151 544.1,-151 544.1,-187"/>
<text text-anchor="middle" x="482" y="-164.8" font-family="Times,serif" font-size="14.00">SharingApiModule</text>
</g>
<!-- AuthorizationModule&#45;&gt;SharingApiModule -->
<g id="edge1" class="edge">
<title>AuthorizationModule&#45;&gt;SharingApiModule</title>
<path fill="none" stroke="black" d="M906,-122.11C906,-141.34 906,-169 906,-169 906,-169 554.11,-169 554.11,-169"/>
<polygon fill="black" stroke="black" points="554.11,-165.5 544.11,-169 554.11,-172.5 554.11,-165.5"/>
</g>
<!-- AuthorizationReferenceModule -->
<g id="node2" class="node">
<title>AuthorizationReferenceModule</title>
<polygon fill="#8dd3c7" stroke="black" points="819.04,-122 816.04,-126 795.04,-126 792.04,-122 624.96,-122 624.96,-86 819.04,-86 819.04,-122"/>
<text text-anchor="middle" x="722" y="-99.8" font-family="Times,serif" font-size="14.00">AuthorizationReferenceModule</text>
</g>
<!-- AuthorizationReferenceModule&#45;&gt;SharingApiModule -->
<g id="edge2" class="edge">
<title>AuthorizationReferenceModule&#45;&gt;SharingApiModule</title>
<path fill="none" stroke="black" d="M722,-122.03C722,-138.4 722,-160 722,-160 722,-160 554.12,-160 554.12,-160"/>
<polygon fill="black" stroke="black" points="554.12,-156.5 544.12,-160 554.12,-163.5 554.12,-156.5"/>
</g>
<!-- LearnroomModule -->
<g id="node3" class="node">
<title>LearnroomModule</title>
<polygon fill="#8dd3c7" stroke="black" points="606.74,-122 603.74,-126 582.74,-126 579.74,-122 485.26,-122 485.26,-86 606.74,-86 606.74,-122"/>
<text text-anchor="middle" x="546" y="-99.8" font-family="Times,serif" font-size="14.00">LearnroomModule</text>
</g>
<!-- LearnroomModule&#45;&gt;SharingApiModule -->
<g id="edge3" class="edge">
<title>LearnroomModule&#45;&gt;SharingApiModule</title>
<path fill="none" stroke="black" d="M514.59,-122.11C514.59,-122.11 514.59,-140.99 514.59,-140.99"/>
<polygon fill="black" stroke="black" points="511.09,-140.99 514.59,-150.99 518.09,-140.99 511.09,-140.99"/>
</g>
<!-- LessonModule -->
<g id="node4" class="node">
<title>LessonModule</title>
<polygon fill="#8dd3c7" stroke="black" points="467.71,-122 464.71,-126 443.71,-126 440.71,-122 368.29,-122 368.29,-86 467.71,-86 467.71,-122"/>
<text text-anchor="middle" x="418" y="-99.8" font-family="Times,serif" font-size="14.00">LessonModule</text>
</g>
<!-- LessonModule&#45;&gt;SharingApiModule -->
<g id="edge4" class="edge">
<title>LessonModule&#45;&gt;SharingApiModule</title>
<path fill="none" stroke="black" d="M443.78,-122.11C443.78,-122.11 443.78,-140.99 443.78,-140.99"/>
<polygon fill="black" stroke="black" points="440.28,-140.99 443.78,-150.99 447.28,-140.99 440.28,-140.99"/>
</g>
<!-- LoggerModule -->
<g id="node5" class="node">
<title>LoggerModule</title>
<polygon fill="#8dd3c7" stroke="black" points="349.98,-122 346.98,-126 325.98,-126 322.98,-122 250.02,-122 250.02,-86 349.98,-86 349.98,-122"/>
<text text-anchor="middle" x="300" y="-99.8" font-family="Times,serif" font-size="14.00">LoggerModule</text>
</g>
<!-- LoggerModule&#45;&gt;SharingApiModule -->
<g id="edge5" class="edge">
<title>LoggerModule&#45;&gt;SharingApiModule</title>
<path fill="none" stroke="black" d="M300,-122.03C300,-138.4 300,-160 300,-160 300,-160 409.87,-160 409.87,-160"/>
<polygon fill="black" stroke="black" points="409.87,-163.5 419.87,-160 409.87,-156.5 409.87,-163.5"/>
</g>
<!-- SharingModule -->
<g id="node6" class="node">
<title>SharingModule</title>
<polygon fill="#8dd3c7" stroke="black" points="231.6,-122 228.6,-126 207.6,-126 204.6,-122 128.4,-122 128.4,-86 231.6,-86 231.6,-122"/>
<text text-anchor="middle" x="180" y="-99.8" font-family="Times,serif" font-size="14.00">SharingModule</text>
</g>
<!-- SharingModule&#45;&gt;SharingApiModule -->
<g id="edge6" class="edge">
<title>SharingModule&#45;&gt;SharingApiModule</title>
<path fill="none" stroke="black" d="M180,-122.11C180,-141.34 180,-169 180,-169 180,-169 409.79,-169 409.79,-169"/>
<polygon fill="black" stroke="black" points="409.79,-172.5 419.79,-169 409.79,-165.5 409.79,-172.5"/>
</g>
<!-- TaskModule -->
<g id="node7" class="node">
<title>TaskModule</title>
<polygon fill="#8dd3c7" stroke="black" points="110.26,-122 107.26,-126 86.26,-126 83.26,-122 23.74,-122 23.74,-86 110.26,-86 110.26,-122"/>
<text text-anchor="middle" x="67" y="-99.8" font-family="Times,serif" font-size="14.00">TaskModule</text>
</g>
<!-- TaskModule&#45;&gt;SharingApiModule -->
<g id="edge7" class="edge">
<title>TaskModule&#45;&gt;SharingApiModule</title>
<path fill="none" stroke="black" d="M67,-122.29C67,-144.21 67,-178 67,-178 67,-178 409.87,-178 409.87,-178"/>
<polygon fill="black" stroke="black" points="409.87,-181.5 419.87,-178 409.87,-174.5 409.87,-181.5"/>
</g>
<!-- ShareTokenUC -->
<g id="node9" class="node">
<title>ShareTokenUC</title>
<ellipse fill="#fdb462" stroke="black" cx="1070" cy="-104" rx="71.21" ry="18"/>
<text text-anchor="middle" x="1070" y="-99.8" font-family="Times,serif" font-size="14.00">ShareTokenUC</text>
</g>
<!-- ShareTokenUC&#45;&gt;SharingApiModule -->
<g id="edge8" class="edge">
<title>ShareTokenUC&#45;&gt;SharingApiModule</title>
<path fill="none" stroke="black" d="M1070,-122.29C1070,-144.21 1070,-178 1070,-178 1070,-178 554.09,-178 554.09,-178"/>
<polygon fill="black" stroke="black" points="554.09,-174.5 544.09,-178 554.09,-181.5 554.09,-174.5"/>
</g>
</g>
</svg>
