<?xml version="1.0" encoding="UTF-8" standalone="no"?>
<!DOCTYPE svg PUBLIC "-//W3C//DTD SVG 1.1//EN"
 "http://www.w3.org/Graphics/SVG/1.1/DTD/svg11.dtd">
<!-- Generated by graphviz version 5.0.0 (20220707.1540)
 -->
<!-- Title: dependencies Pages: 1 -->
<svg width="961pt" height="174pt"
 viewBox="0.00 0.00 961.00 173.80" xmlns="http://www.w3.org/2000/svg" xmlns:xlink="http://www.w3.org/1999/xlink">
<g id="graph0" class="graph" transform="scale(1 1) rotate(0) translate(4 169.8)">
<title>dependencies</title>
<polygon fill="white" stroke="transparent" points="-4,4 -4,-169.8 957,-169.8 957,4 -4,4"/>
<text text-anchor="middle" x="476.5" y="-8.2" font-family="sans-serif" font-size="14.00">dependencies</text>
<g id="clust1" class="cluster">
<title>cluster_SharingApiModule</title>
<polygon fill="none" stroke="black" stroke-dasharray="1,5" points="8,-32.8 8,-157.8 945,-157.8 945,-32.8 8,-32.8"/>
</g>
<g id="clust6" class="cluster">
<title>cluster_SharingApiModule_providers</title>
<polygon fill="none" stroke="black" points="779,-40.8 779,-92.8 937,-92.8 937,-40.8 779,-40.8"/>
</g>
<g id="clust3" class="cluster">
<title>cluster_SharingApiModule_imports</title>
<polygon fill="none" stroke="black" points="16,-40.8 16,-92.8 771,-92.8 771,-40.8 16,-40.8"/>
</g>
<!-- AuthorizationModule -->
<g id="node1" class="node">
<title>AuthorizationModule</title>
<polygon fill="#8dd3c7" stroke="black" points="762.81,-84.8 759.81,-88.8 738.81,-88.8 735.81,-84.8 625.19,-84.8 625.19,-48.8 762.81,-48.8 762.81,-84.8"/>
<text text-anchor="middle" x="694" y="-62.6" font-family="Times,serif" font-size="14.00">AuthorizationModule</text>
</g>
<!-- SharingApiModule -->
<g id="node7" class="node">
<title>SharingApiModule</title>
<polygon fill="#8dd3c7" stroke="black" points="480.1,-149.8 477.1,-153.8 456.1,-153.8 453.1,-149.8 355.9,-149.8 355.9,-113.8 480.1,-113.8 480.1,-149.8"/>
<text text-anchor="middle" x="418" y="-127.6" font-family="Times,serif" font-size="14.00">SharingApiModule</text>
</g>
<!-- AuthorizationModule&#45;&gt;SharingApiModule -->
<g id="edge1" class="edge">
<title>AuthorizationModule&#45;&gt;SharingApiModule</title>
<path fill="none" stroke="black" d="M694,-84.82C694,-102.17 694,-125.8 694,-125.8 694,-125.8 490.28,-125.8 490.28,-125.8"/>
<polygon fill="black" stroke="black" points="490.28,-122.3 480.28,-125.8 490.28,-129.3 490.28,-122.3"/>
</g>
<!-- LearnroomModule -->
<g id="node2" class="node">
<title>LearnroomModule</title>
<polygon fill="#8dd3c7" stroke="black" points="606.75,-84.8 603.75,-88.8 582.75,-88.8 579.75,-84.8 485.25,-84.8 485.25,-48.8 606.75,-48.8 606.75,-84.8"/>
<text text-anchor="middle" x="546" y="-62.6" font-family="Times,serif" font-size="14.00">LearnroomModule</text>
</g>
<!-- LearnroomModule&#45;&gt;SharingApiModule -->
<g id="edge2" class="edge">
<title>LearnroomModule&#45;&gt;SharingApiModule</title>
<path fill="none" stroke="black" d="M485.11,-66.8C478.34,-66.8 473.83,-66.8 473.83,-66.8 473.83,-66.8 473.83,-103.69 473.83,-103.69"/>
<polygon fill="black" stroke="black" points="470.33,-103.69 473.83,-113.69 477.33,-103.69 470.33,-103.69"/>
</g>
<!-- LessonModule -->
<g id="node3" class="node">
<title>LessonModule</title>
<polygon fill="#8dd3c7" stroke="black" points="467.71,-84.8 464.71,-88.8 443.71,-88.8 440.71,-84.8 368.29,-84.8 368.29,-48.8 467.71,-48.8 467.71,-84.8"/>
<text text-anchor="middle" x="418" y="-62.6" font-family="Times,serif" font-size="14.00">LessonModule</text>
</g>
<!-- LessonModule&#45;&gt;SharingApiModule -->
<g id="edge3" class="edge">
<title>LessonModule&#45;&gt;SharingApiModule</title>
<path fill="none" stroke="black" d="M418,-84.91C418,-84.91 418,-103.79 418,-103.79"/>
<polygon fill="black" stroke="black" points="414.5,-103.79 418,-113.79 421.5,-103.79 414.5,-103.79"/>
</g>
<!-- LoggerModule -->
<g id="node4" class="node">
<title>LoggerModule</title>
<polygon fill="#8dd3c7" stroke="black" points="349.98,-84.8 346.98,-88.8 325.98,-88.8 322.98,-84.8 250.02,-84.8 250.02,-48.8 349.98,-48.8 349.98,-84.8"/>
<text text-anchor="middle" x="300" y="-62.6" font-family="Times,serif" font-size="14.00">LoggerModule</text>
</g>
<!-- LoggerModule&#45;&gt;SharingApiModule -->
<g id="edge4" class="edge">
<title>LoggerModule&#45;&gt;SharingApiModule</title>
<path fill="none" stroke="black" d="M350.18,-66.8C357.25,-66.8 362.17,-66.8 362.17,-66.8 362.17,-66.8 362.17,-103.69 362.17,-103.69"/>
<polygon fill="black" stroke="black" points="358.67,-103.69 362.17,-113.69 365.67,-103.69 358.67,-103.69"/>
</g>
<!-- SharingModule -->
<g id="node5" class="node">
<title>SharingModule</title>
<polygon fill="#8dd3c7" stroke="black" points="231.6,-84.8 228.6,-88.8 207.6,-88.8 204.6,-84.8 128.4,-84.8 128.4,-48.8 231.6,-48.8 231.6,-84.8"/>
<text text-anchor="middle" x="180" y="-62.6" font-family="Times,serif" font-size="14.00">SharingModule</text>
</g>
<!-- SharingModule&#45;&gt;SharingApiModule -->
<g id="edge5" class="edge">
<title>SharingModule&#45;&gt;SharingApiModule</title>
<path fill="none" stroke="black" d="M180,-84.82C180,-102.17 180,-125.8 180,-125.8 180,-125.8 345.78,-125.8 345.78,-125.8"/>
<polygon fill="black" stroke="black" points="345.78,-129.3 355.78,-125.8 345.78,-122.3 345.78,-129.3"/>
</g>
<!-- TaskModule -->
<g id="node6" class="node">
<title>TaskModule</title>
<polygon fill="#8dd3c7" stroke="black" points="110.27,-84.8 107.27,-88.8 86.27,-88.8 83.27,-84.8 23.73,-84.8 23.73,-48.8 110.27,-48.8 110.27,-84.8"/>
<text text-anchor="middle" x="67" y="-62.6" font-family="Times,serif" font-size="14.00">TaskModule</text>
</g>
<!-- TaskModule&#45;&gt;SharingApiModule -->
<g id="edge6" class="edge">
<title>TaskModule&#45;&gt;SharingApiModule</title>
<path fill="none" stroke="black" d="M67,-85.08C67,-106.12 67,-137.8 67,-137.8 67,-137.8 345.65,-137.8 345.65,-137.8"/>
<polygon fill="black" stroke="black" points="345.65,-141.3 355.65,-137.8 345.65,-134.3 345.65,-141.3"/>
</g>
<!-- ShareTokenUC -->
<g id="node8" class="node">
<title>ShareTokenUC</title>
<ellipse fill="#fdb462" stroke="black" cx="858" cy="-66.8" rx="71.22" ry="18"/>
<text text-anchor="middle" x="858" y="-62.6" font-family="Times,serif" font-size="14.00">ShareTokenUC</text>
</g>
<!-- ShareTokenUC&#45;&gt;SharingApiModule -->
<g id="edge7" class="edge">
<title>ShareTokenUC&#45;&gt;SharingApiModule</title>
<path fill="none" stroke="black" d="M858,-85.08C858,-106.12 858,-137.8 858,-137.8 858,-137.8 490.11,-137.8 490.11,-137.8"/>
<polygon fill="black" stroke="black" points="490.11,-134.3 480.11,-137.8 490.11,-141.3 490.11,-134.3"/>
</g>
</g>
</svg>
