<?xml version="1.0" encoding="UTF-8" standalone="no"?>
<!DOCTYPE svg PUBLIC "-//W3C//DTD SVG 1.1//EN"
 "http://www.w3.org/Graphics/SVG/1.1/DTD/svg11.dtd">
<!-- Generated by graphviz version 2.47.0 (20210316.0004)
 -->
<!-- Title: dependencies Pages: 1 -->
<svg width="961pt" height="211pt"
 viewBox="0.00 0.00 961.00 211.00" xmlns="http://www.w3.org/2000/svg" xmlns:xlink="http://www.w3.org/1999/xlink">
<g id="graph0" class="graph" transform="scale(1 1) rotate(0) translate(4 207)">
<title>dependencies</title>
<polygon fill="white" stroke="transparent" points="-4,4 -4,-207 957,-207 957,4 -4,4"/>
<text text-anchor="start" x="455.51" y="-42.4" font-family="Times-12" font-weight="bold" font-size="14.00">Legend</text>
<polygon fill="#ffffb3" stroke="transparent" points="242.5,-10 242.5,-30 262.5,-30 262.5,-10 242.5,-10"/>
<text text-anchor="start" x="266.13" y="-15.4" font-family="Times-12" font-size="14.00"> &#160;Declarations</text>
<polygon fill="#8dd3c7" stroke="transparent" points="355.5,-10 355.5,-30 375.5,-30 375.5,-10 355.5,-10"/>
<text text-anchor="start" x="379.23" y="-15.4" font-family="Times-12" font-size="14.00"> &#160;Module</text>
<polygon fill="#80b1d3" stroke="transparent" points="441.5,-10 441.5,-30 461.5,-30 461.5,-10 441.5,-10"/>
<text text-anchor="start" x="465.28" y="-15.4" font-family="Times-12" font-size="14.00"> &#160;Bootstrap</text>
<polygon fill="#fdb462" stroke="transparent" points="538.5,-10 538.5,-30 558.5,-30 558.5,-10 538.5,-10"/>
<text text-anchor="start" x="562.17" y="-15.4" font-family="Times-12" font-size="14.00"> &#160;Providers</text>
<polygon fill="#fb8072" stroke="transparent" points="634.5,-10 634.5,-30 654.5,-30 654.5,-10 634.5,-10"/>
<text text-anchor="start" x="658.23" y="-15.4" font-family="Times-12" font-size="14.00"> &#160;Exports</text>
<g id="clust1" class="cluster">
<title>cluster_SharingApiModule</title>
<polygon fill="none" stroke="black" stroke-dasharray="1,5" points="8,-70 8,-195 945,-195 945,-70 8,-70"/>
</g>
<g id="clust6" class="cluster">
<title>cluster_SharingApiModule_providers</title>
<polygon fill="none" stroke="black" points="779,-78 779,-130 937,-130 937,-78 779,-78"/>
</g>
<g id="clust3" class="cluster">
<title>cluster_SharingApiModule_imports</title>
<polygon fill="none" stroke="black" points="16,-78 16,-130 771,-130 771,-78 16,-78"/>
</g>
<!-- AuthorizationModule -->
<g id="node1" class="node">
<title>AuthorizationModule</title>
<polygon fill="#8dd3c7" stroke="black" points="762.81,-122 759.81,-126 738.81,-126 735.81,-122 625.19,-122 625.19,-86 762.81,-86 762.81,-122"/>
<text text-anchor="middle" x="694" y="-99.8" font-family="Times,serif" font-size="14.00">AuthorizationModule</text>
</g>
<!-- SharingApiModule -->
<g id="node7" class="node">
<title>SharingApiModule</title>
<polygon fill="#8dd3c7" stroke="black" points="480.1,-187 477.1,-191 456.1,-191 453.1,-187 355.9,-187 355.9,-151 480.1,-151 480.1,-187"/>
<text text-anchor="middle" x="418" y="-164.8" font-family="Times,serif" font-size="14.00">SharingApiModule</text>
</g>
<!-- AuthorizationModule&#45;&gt;SharingApiModule -->
<g id="edge1" class="edge">
<title>AuthorizationModule&#45;&gt;SharingApiModule</title>
<path fill="none" stroke="black" d="M694,-122.02C694,-139.37 694,-163 694,-163 694,-163 490.28,-163 490.28,-163"/>
<polygon fill="black" stroke="black" points="490.28,-159.5 480.28,-163 490.28,-166.5 490.28,-159.5"/>
</g>
<!-- LearnroomModule -->
<g id="node2" class="node">
<title>LearnroomModule</title>
<polygon fill="#8dd3c7" stroke="black" points="606.74,-122 603.74,-126 582.74,-126 579.74,-122 485.26,-122 485.26,-86 606.74,-86 606.74,-122"/>
<text text-anchor="middle" x="546" y="-99.8" font-family="Times,serif" font-size="14.00">LearnroomModule</text>
</g>
<!-- LearnroomModule&#45;&gt;SharingApiModule -->
<g id="edge2" class="edge">
<title>LearnroomModule&#45;&gt;SharingApiModule</title>
<path fill="none" stroke="black" d="M485.1,-104C478.34,-104 473.83,-104 473.83,-104 473.83,-104 473.83,-140.89 473.83,-140.89"/>
<polygon fill="black" stroke="black" points="470.33,-140.89 473.83,-150.89 477.33,-140.89 470.33,-140.89"/>
</g>
<!-- LessonModule -->
<g id="node3" class="node">
<title>LessonModule</title>
<polygon fill="#8dd3c7" stroke="black" points="467.71,-122 464.71,-126 443.71,-126 440.71,-122 368.29,-122 368.29,-86 467.71,-86 467.71,-122"/>
<text text-anchor="middle" x="418" y="-99.8" font-family="Times,serif" font-size="14.00">LessonModule</text>
</g>
<!-- LessonModule&#45;&gt;SharingApiModule -->
<g id="edge3" class="edge">
<title>LessonModule&#45;&gt;SharingApiModule</title>
<path fill="none" stroke="black" d="M418,-122.11C418,-122.11 418,-140.99 418,-140.99"/>
<polygon fill="black" stroke="black" points="414.5,-140.99 418,-150.99 421.5,-140.99 414.5,-140.99"/>
</g>
<!-- LoggerModule -->
<g id="node4" class="node">
<title>LoggerModule</title>
<polygon fill="#8dd3c7" stroke="black" points="349.98,-122 346.98,-126 325.98,-126 322.98,-122 250.02,-122 250.02,-86 349.98,-86 349.98,-122"/>
<text text-anchor="middle" x="300" y="-99.8" font-family="Times,serif" font-size="14.00">LoggerModule</text>
</g>
<!-- LoggerModule&#45;&gt;SharingApiModule -->
<g id="edge4" class="edge">
<title>LoggerModule&#45;&gt;SharingApiModule</title>
<path fill="none" stroke="black" d="M350.19,-104C357.26,-104 362.17,-104 362.17,-104 362.17,-104 362.17,-140.89 362.17,-140.89"/>
<polygon fill="black" stroke="black" points="358.67,-140.89 362.17,-150.89 365.67,-140.89 358.67,-140.89"/>
</g>
<!-- SharingModule -->
<g id="node5" class="node">
<title>SharingModule</title>
<polygon fill="#8dd3c7" stroke="black" points="231.6,-122 228.6,-126 207.6,-126 204.6,-122 128.4,-122 128.4,-86 231.6,-86 231.6,-122"/>
<text text-anchor="middle" x="180" y="-99.8" font-family="Times,serif" font-size="14.00">SharingModule</text>
</g>
<!-- SharingModule&#45;&gt;SharingApiModule -->
<g id="edge5" class="edge">
<title>SharingModule&#45;&gt;SharingApiModule</title>
<path fill="none" stroke="black" d="M180,-122.02C180,-139.37 180,-163 180,-163 180,-163 345.78,-163 345.78,-163"/>
<polygon fill="black" stroke="black" points="345.78,-166.5 355.78,-163 345.78,-159.5 345.78,-166.5"/>
</g>
<!-- TaskModule -->
<g id="node6" class="node">
<title>TaskModule</title>
<polygon fill="#8dd3c7" stroke="black" points="110.26,-122 107.26,-126 86.26,-126 83.26,-122 23.74,-122 23.74,-86 110.26,-86 110.26,-122"/>
<text text-anchor="middle" x="67" y="-99.8" font-family="Times,serif" font-size="14.00">TaskModule</text>
</g>
<!-- TaskModule&#45;&gt;SharingApiModule -->
<g id="edge6" class="edge">
<title>TaskModule&#45;&gt;SharingApiModule</title>
<path fill="none" stroke="black" d="M67,-122.28C67,-143.32 67,-175 67,-175 67,-175 345.65,-175 345.65,-175"/>
<polygon fill="black" stroke="black" points="345.65,-178.5 355.65,-175 345.65,-171.5 345.65,-178.5"/>
</g>
<!-- ShareTokenUC -->
<g id="node8" class="node">
<title>ShareTokenUC</title>
<ellipse fill="#fdb462" stroke="black" cx="858" cy="-104" rx="71.21" ry="18"/>
<text text-anchor="middle" x="858" y="-99.8" font-family="Times,serif" font-size="14.00">ShareTokenUC</text>
</g>
<!-- ShareTokenUC&#45;&gt;SharingApiModule -->
<g id="edge7" class="edge">
<title>ShareTokenUC&#45;&gt;SharingApiModule</title>
<path fill="none" stroke="black" d="M858,-122.28C858,-143.32 858,-175 858,-175 858,-175 490.11,-175 490.11,-175"/>
<polygon fill="black" stroke="black" points="490.11,-171.5 480.11,-175 490.11,-178.5 490.11,-171.5"/>
</g>
</g>
</svg>
