<?xml version="1.0" encoding="UTF-8" standalone="no"?>
<!DOCTYPE svg PUBLIC "-//W3C//DTD SVG 1.1//EN"
 "http://www.w3.org/Graphics/SVG/1.1/DTD/svg11.dtd">
<!-- Generated by graphviz version 5.0.0 (20220707.1540)
 -->
<!-- Title: dependencies Pages: 1 -->
<svg width="961pt" height="174pt"
 viewBox="0.00 0.00 961.00 173.80" xmlns="http://www.w3.org/2000/svg" xmlns:xlink="http://www.w3.org/1999/xlink">
<g id="graph0" class="graph" transform="scale(1 1) rotate(0) translate(4 169.8)">
<title>dependencies</title>
<polygon fill="white" stroke="transparent" points="-4,4 -4,-169.8 957,-169.8 957,4 -4,4"/>
<text text-anchor="middle" x="476.5" y="-8.2" font-family="sans-serif" font-size="14.00">dependencies</text>
<g id="clust1" class="cluster">
<title>cluster_SharingApiModule</title>
<polygon fill="none" stroke="black" stroke-dasharray="1,5" points="8,-32.8 8,-157.8 945,-157.8 945,-32.8 8,-32.8"/>
</g>
<g id="clust3" class="cluster">
<title>cluster_SharingApiModule_imports</title>
<polygon fill="none" stroke="black" points="182,-40.8 182,-92.8 937,-92.8 937,-40.8 182,-40.8"/>
</g>
<g id="clust6" class="cluster">
<title>cluster_SharingApiModule_providers</title>
<polygon fill="none" stroke="black" points="16,-40.8 16,-92.8 174,-92.8 174,-40.8 16,-40.8"/>
</g>
<!-- AuthorizationModule -->
<g id="node1" class="node">
<title>AuthorizationModule</title>
<polygon fill="#8dd3c7" stroke="black" points="928.81,-84.8 925.81,-88.8 904.81,-88.8 901.81,-84.8 791.19,-84.8 791.19,-48.8 928.81,-48.8 928.81,-84.8"/>
<text text-anchor="middle" x="860" y="-62.6" font-family="Times,serif" font-size="14.00">AuthorizationModule</text>
</g>
<!-- SharingApiModule -->
<g id="node7" class="node">
<title>SharingApiModule</title>
<polygon fill="#8dd3c7" stroke="black" points="528.1,-149.8 525.1,-153.8 504.1,-153.8 501.1,-149.8 403.9,-149.8 403.9,-113.8 528.1,-113.8 528.1,-149.8"/>
<text text-anchor="middle" x="466" y="-127.6" font-family="Times,serif" font-size="14.00">SharingApiModule</text>
</g>
<!-- AuthorizationModule&#45;&gt;SharingApiModule -->
<g id="edge1" class="edge">
<title>AuthorizationModule&#45;&gt;SharingApiModule</title>
<path fill="none" stroke="black" d="M860,-85.08C860,-106.12 860,-137.8 860,-137.8 860,-137.8 538.43,-137.8 538.43,-137.8"/>
<polygon fill="black" stroke="black" points="538.43,-134.3 528.43,-137.8 538.43,-141.3 538.43,-134.3"/>
</g>
<!-- LearnroomModule -->
<g id="node2" class="node">
<title>LearnroomModule</title>
<polygon fill="#8dd3c7" stroke="black" points="772.75,-84.8 769.75,-88.8 748.75,-88.8 745.75,-84.8 651.25,-84.8 651.25,-48.8 772.75,-48.8 772.75,-84.8"/>
<text text-anchor="middle" x="712" y="-62.6" font-family="Times,serif" font-size="14.00">LearnroomModule</text>
</g>
<!-- LearnroomModule&#45;&gt;SharingApiModule -->
<g id="edge2" class="edge">
<title>LearnroomModule&#45;&gt;SharingApiModule</title>
<path fill="none" stroke="black" d="M712,-84.82C712,-102.17 712,-125.8 712,-125.8 712,-125.8 538.08,-125.8 538.08,-125.8"/>
<polygon fill="black" stroke="black" points="538.08,-122.3 528.08,-125.8 538.08,-129.3 538.08,-122.3"/>
</g>
<!-- LessonModule -->
<g id="node3" class="node">
<title>LessonModule</title>
<polygon fill="#8dd3c7" stroke="black" points="633.71,-84.8 630.71,-88.8 609.71,-88.8 606.71,-84.8 534.29,-84.8 534.29,-48.8 633.71,-48.8 633.71,-84.8"/>
<text text-anchor="middle" x="584" y="-62.6" font-family="Times,serif" font-size="14.00">LessonModule</text>
</g>
<!-- LessonModule&#45;&gt;SharingApiModule -->
<g id="edge3" class="edge">
<title>LessonModule&#45;&gt;SharingApiModule</title>
<path fill="none" stroke="black" d="M534.27,-66.8C527.06,-66.8 522.02,-66.8 522.02,-66.8 522.02,-66.8 522.02,-103.69 522.02,-103.69"/>
<polygon fill="black" stroke="black" points="518.52,-103.69 522.02,-113.69 525.52,-103.69 518.52,-103.69"/>
</g>
<!-- LoggerModule -->
<g id="node4" class="node">
<title>LoggerModule</title>
<polygon fill="#8dd3c7" stroke="black" points="515.98,-84.8 512.98,-88.8 491.98,-88.8 488.98,-84.8 416.02,-84.8 416.02,-48.8 515.98,-48.8 515.98,-84.8"/>
<text text-anchor="middle" x="466" y="-62.6" font-family="Times,serif" font-size="14.00">LoggerModule</text>
</g>
<!-- LoggerModule&#45;&gt;SharingApiModule -->
<g id="edge4" class="edge">
<title>LoggerModule&#45;&gt;SharingApiModule</title>
<path fill="none" stroke="black" d="M466,-84.91C466,-84.91 466,-103.79 466,-103.79"/>
<polygon fill="black" stroke="black" points="462.5,-103.79 466,-113.79 469.5,-103.79 462.5,-103.79"/>
</g>
<!-- SharingModule -->
<g id="node5" class="node">
<title>SharingModule</title>
<polygon fill="#8dd3c7" stroke="black" points="397.6,-84.8 394.6,-88.8 373.6,-88.8 370.6,-84.8 294.4,-84.8 294.4,-48.8 397.6,-48.8 397.6,-84.8"/>
<text text-anchor="middle" x="346" y="-62.6" font-family="Times,serif" font-size="14.00">SharingModule</text>
</g>
<!-- SharingModule&#45;&gt;SharingApiModule -->
<g id="edge5" class="edge">
<title>SharingModule&#45;&gt;SharingApiModule</title>
<path fill="none" stroke="black" d="M397.64,-66.8C404.92,-66.8 409.98,-66.8 409.98,-66.8 409.98,-66.8 409.98,-103.69 409.98,-103.69"/>
<polygon fill="black" stroke="black" points="406.48,-103.69 409.98,-113.69 413.48,-103.69 406.48,-103.69"/>
</g>
<!-- TaskModule -->
<g id="node6" class="node">
<title>TaskModule</title>
<polygon fill="#8dd3c7" stroke="black" points="276.27,-84.8 273.27,-88.8 252.27,-88.8 249.27,-84.8 189.73,-84.8 189.73,-48.8 276.27,-48.8 276.27,-84.8"/>
<text text-anchor="middle" x="233" y="-62.6" font-family="Times,serif" font-size="14.00">TaskModule</text>
</g>
<!-- TaskModule&#45;&gt;SharingApiModule -->
<g id="edge6" class="edge">
<title>TaskModule&#45;&gt;SharingApiModule</title>
<path fill="none" stroke="black" d="M233,-84.82C233,-102.17 233,-125.8 233,-125.8 233,-125.8 393.87,-125.8 393.87,-125.8"/>
<polygon fill="black" stroke="black" points="393.87,-129.3 403.87,-125.8 393.87,-122.3 393.87,-129.3"/>
</g>
<!-- ShareTokenUC -->
<g id="node8" class="node">
<title>ShareTokenUC</title>
<ellipse fill="#fdb462" stroke="black" cx="95" cy="-66.8" rx="71.22" ry="18"/>
<text text-anchor="middle" x="95" y="-62.6" font-family="Times,serif" font-size="14.00">ShareTokenUC</text>
</g>
<!-- ShareTokenUC&#45;&gt;SharingApiModule -->
<g id="edge7" class="edge">
<title>ShareTokenUC&#45;&gt;SharingApiModule</title>
<path fill="none" stroke="black" d="M95,-85.08C95,-106.12 95,-137.8 95,-137.8 95,-137.8 393.9,-137.8 393.9,-137.8"/>
<polygon fill="black" stroke="black" points="393.9,-141.3 403.9,-137.8 393.9,-134.3 393.9,-141.3"/>
</g>
</g>
</svg>
