<?xml version="1.0" encoding="UTF-8" standalone="no"?>
<!DOCTYPE svg PUBLIC "-//W3C//DTD SVG 1.1//EN"
 "http://www.w3.org/Graphics/SVG/1.1/DTD/svg11.dtd">
<!-- Generated by graphviz version 2.47.0 (20210316.0004)
 -->
<!-- Title: dependencies Pages: 1 -->
<svg width="1388pt" height="211pt"
 viewBox="0.00 0.00 1388.00 211.00" xmlns="http://www.w3.org/2000/svg" xmlns:xlink="http://www.w3.org/1999/xlink">
<g id="graph0" class="graph" transform="scale(1 1) rotate(0) translate(4 207)">
<title>dependencies</title>
<polygon fill="white" stroke="transparent" points="-4,4 -4,-207 1384,-207 1384,4 -4,4"/>
<text text-anchor="start" x="669.01" y="-42.4" font-family="Times-12" font-weight="bold" font-size="14.00">Legend</text>
<polygon fill="#ffffb3" stroke="transparent" points="456,-10 456,-30 476,-30 476,-10 456,-10"/>
<text text-anchor="start" x="479.63" y="-15.4" font-family="Times-12" font-size="14.00"> &#160;Declarations</text>
<polygon fill="#8dd3c7" stroke="transparent" points="569,-10 569,-30 589,-30 589,-10 569,-10"/>
<text text-anchor="start" x="592.73" y="-15.4" font-family="Times-12" font-size="14.00"> &#160;Module</text>
<polygon fill="#80b1d3" stroke="transparent" points="655,-10 655,-30 675,-30 675,-10 655,-10"/>
<text text-anchor="start" x="678.78" y="-15.4" font-family="Times-12" font-size="14.00"> &#160;Bootstrap</text>
<polygon fill="#fdb462" stroke="transparent" points="752,-10 752,-30 772,-30 772,-10 752,-10"/>
<text text-anchor="start" x="775.67" y="-15.4" font-family="Times-12" font-size="14.00"> &#160;Providers</text>
<polygon fill="#fb8072" stroke="transparent" points="848,-10 848,-30 868,-30 868,-10 848,-10"/>
<text text-anchor="start" x="871.73" y="-15.4" font-family="Times-12" font-size="14.00"> &#160;Exports</text>
<g id="clust1" class="cluster">
<title>cluster_MediaBoardApiModule</title>
<polygon fill="none" stroke="black" stroke-dasharray="1,5" points="8,-70 8,-195 1372,-195 1372,-70 8,-70"/>
</g>
<g id="clust6" class="cluster">
<title>cluster_MediaBoardApiModule_providers</title>
<polygon fill="none" stroke="black" points="660,-78 660,-130 1364,-130 1364,-78 660,-78"/>
</g>
<g id="clust3" class="cluster">
<title>cluster_MediaBoardApiModule_imports</title>
<polygon fill="none" stroke="black" points="16,-78 16,-130 652,-130 652,-78 16,-78"/>
</g>
<!-- AuthorizationModule -->
<g id="node1" class="node">
<title>AuthorizationModule</title>
<polygon fill="#8dd3c7" stroke="black" points="643.81,-122 640.81,-126 619.81,-126 616.81,-122 506.19,-122 506.19,-86 643.81,-86 643.81,-122"/>
<text text-anchor="middle" x="575" y="-99.8" font-family="Times,serif" font-size="14.00">AuthorizationModule</text>
</g>
<!-- MediaBoardApiModule -->
<g id="node6" class="node">
<title>MediaBoardApiModule</title>
<polygon fill="#8dd3c7" stroke="black" points="650.02,-187 647.02,-191 626.02,-191 623.02,-187 499.98,-187 499.98,-151 650.02,-151 650.02,-187"/>
<text text-anchor="middle" x="575" y="-164.8" font-family="Times,serif" font-size="14.00">MediaBoardApiModule</text>
</g>
<!-- AuthorizationModule&#45;&gt;MediaBoardApiModule -->
<g id="edge1" class="edge">
<title>AuthorizationModule&#45;&gt;MediaBoardApiModule</title>
<path fill="none" stroke="black" d="M575,-122.11C575,-122.11 575,-140.99 575,-140.99"/>
<polygon fill="black" stroke="black" points="571.5,-140.99 575,-150.99 578.5,-140.99 571.5,-140.99"/>
</g>
<!-- BoardModule -->
<g id="node2" class="node">
<title>BoardModule</title>
<polygon fill="#8dd3c7" stroke="black" points="487.76,-122 484.76,-126 463.76,-126 460.76,-122 394.24,-122 394.24,-86 487.76,-86 487.76,-122"/>
<text text-anchor="middle" x="441" y="-99.8" font-family="Times,serif" font-size="14.00">BoardModule</text>
</g>
<!-- BoardModule&#45;&gt;MediaBoardApiModule -->
<g id="edge2" class="edge">
<title>BoardModule&#45;&gt;MediaBoardApiModule</title>
<path fill="none" stroke="black" d="M441,-122.01C441,-138.05 441,-159 441,-159 441,-159 489.77,-159 489.77,-159"/>
<polygon fill="black" stroke="black" points="489.77,-162.5 499.77,-159 489.77,-155.5 489.77,-162.5"/>
</g>
<!-- LoggerModule -->
<g id="node3" class="node">
<title>LoggerModule</title>
<polygon fill="#8dd3c7" stroke="black" points="375.98,-122 372.98,-126 351.98,-126 348.98,-122 276.02,-122 276.02,-86 375.98,-86 375.98,-122"/>
<text text-anchor="middle" x="326" y="-99.8" font-family="Times,serif" font-size="14.00">LoggerModule</text>
</g>
<!-- LoggerModule&#45;&gt;MediaBoardApiModule -->
<g id="edge3" class="edge">
<title>LoggerModule&#45;&gt;MediaBoardApiModule</title>
<path fill="none" stroke="black" d="M326,-122.27C326,-140.56 326,-166 326,-166 326,-166 489.95,-166 489.95,-166"/>
<polygon fill="black" stroke="black" points="489.95,-169.5 499.95,-166 489.95,-162.5 489.95,-169.5"/>
</g>
<!-- MediaBoardModule -->
<g id="node4" class="node">
<title>MediaBoardModule</title>
<polygon fill="#8dd3c7" stroke="black" points="257.53,-122 254.53,-126 233.53,-126 230.53,-122 128.47,-122 128.47,-86 257.53,-86 257.53,-122"/>
<text text-anchor="middle" x="193" y="-99.8" font-family="Times,serif" font-size="14.00">MediaBoardModule</text>
</g>
<!-- MediaBoardModule&#45;&gt;MediaBoardApiModule -->
<g id="edge4" class="edge">
<title>MediaBoardModule&#45;&gt;MediaBoardApiModule</title>
<path fill="none" stroke="black" d="M193,-122.13C193,-142.57 193,-173 193,-173 193,-173 489.53,-173 489.53,-173"/>
<polygon fill="black" stroke="black" points="489.53,-176.5 499.53,-173 489.53,-169.5 489.53,-176.5"/>
</g>
<!-- ToolModule -->
<g id="node5" class="node">
<title>ToolModule</title>
<polygon fill="#8dd3c7" stroke="black" points="109.99,-122 106.99,-126 85.99,-126 82.99,-122 24.01,-122 24.01,-86 109.99,-86 109.99,-122"/>
<text text-anchor="middle" x="67" y="-99.8" font-family="Times,serif" font-size="14.00">ToolModule</text>
</g>
<!-- ToolModule&#45;&gt;MediaBoardApiModule -->
<g id="edge5" class="edge">
<title>ToolModule&#45;&gt;MediaBoardApiModule</title>
<path fill="none" stroke="black" d="M67,-122.01C67,-144.49 67,-180 67,-180 67,-180 489.77,-180 489.77,-180"/>
<polygon fill="black" stroke="black" points="489.77,-183.5 499.77,-180 489.77,-176.5 489.77,-183.5"/>
</g>
<!-- MediaAvailableLineUc -->
<g id="node7" class="node">
<title>MediaAvailableLineUc</title>
<ellipse fill="#fdb462" stroke="black" cx="1254" cy="-104" rx="102.4" ry="18"/>
<text text-anchor="middle" x="1254" y="-99.8" font-family="Times,serif" font-size="14.00">MediaAvailableLineUc</text>
</g>
<!-- MediaAvailableLineUc&#45;&gt;MediaBoardApiModule -->
<g id="edge6" class="edge">
<title>MediaAvailableLineUc&#45;&gt;MediaBoardApiModule</title>
<path fill="none" stroke="black" d="M1254,-122.01C1254,-144.49 1254,-180 1254,-180 1254,-180 660.26,-180 660.26,-180"/>
<polygon fill="black" stroke="black" points="660.26,-176.5 650.26,-180 660.26,-183.5 660.26,-176.5"/>
</g>
<!-- MediaBoardUc -->
<g id="node8" class="node">
<title>MediaBoardUc</title>
<ellipse fill="#fdb462" stroke="black" cx="1063" cy="-104" rx="70.63" ry="18"/>
<text text-anchor="middle" x="1063" y="-99.8" font-family="Times,serif" font-size="14.00">MediaBoardUc</text>
</g>
<!-- MediaBoardUc&#45;&gt;MediaBoardApiModule -->
<g id="edge7" class="edge">
<title>MediaBoardUc&#45;&gt;MediaBoardApiModule</title>
<path fill="none" stroke="black" d="M1063,-122.13C1063,-142.57 1063,-173 1063,-173 1063,-173 660.18,-173 660.18,-173"/>
<polygon fill="black" stroke="black" points="660.18,-169.5 650.18,-173 660.18,-176.5 660.18,-169.5"/>
</g>
<!-- MediaElementUc -->
<g id="node9" class="node">
<title>MediaElementUc</title>
<ellipse fill="#fdb462" stroke="black" cx="895" cy="-104" rx="79.29" ry="18"/>
<text text-anchor="middle" x="895" y="-99.8" font-family="Times,serif" font-size="14.00">MediaElementUc</text>
</g>
<!-- MediaElementUc&#45;&gt;MediaBoardApiModule -->
<g id="edge8" class="edge">
<title>MediaElementUc&#45;&gt;MediaBoardApiModule</title>
<path fill="none" stroke="black" d="M895,-122.27C895,-140.56 895,-166 895,-166 895,-166 660.03,-166 660.03,-166"/>
<polygon fill="black" stroke="black" points="660.03,-162.5 650.03,-166 660.03,-169.5 660.03,-162.5"/>
</g>
<!-- MediaLineUc -->
<g id="node10" class="node">
<title>MediaLineUc</title>
<ellipse fill="#fdb462" stroke="black" cx="733" cy="-104" rx="64.83" ry="18"/>
<text text-anchor="middle" x="733" y="-99.8" font-family="Times,serif" font-size="14.00">MediaLineUc</text>
</g>
<!-- MediaLineUc&#45;&gt;MediaBoardApiModule -->
<g id="edge9" class="edge">
<title>MediaLineUc&#45;&gt;MediaBoardApiModule</title>
<path fill="none" stroke="black" d="M733,-122.01C733,-138.05 733,-159 733,-159 733,-159 660.3,-159 660.3,-159"/>
<polygon fill="black" stroke="black" points="660.3,-155.5 650.3,-159 660.3,-162.5 660.3,-155.5"/>
</g>
</g>
</svg>
