<?xml version="1.0" encoding="UTF-8" standalone="no"?>
<!DOCTYPE svg PUBLIC "-//W3C//DTD SVG 1.1//EN"
 "http://www.w3.org/Graphics/SVG/1.1/DTD/svg11.dtd">
<!-- Generated by graphviz version 2.47.0 (20210316.0004)
 -->
<!-- Title: dependencies Pages: 1 -->
<svg width="1388pt" height="211pt"
 viewBox="0.00 0.00 1388.00 211.00" xmlns="http://www.w3.org/2000/svg" xmlns:xlink="http://www.w3.org/1999/xlink">
<g id="graph0" class="graph" transform="scale(1 1) rotate(0) translate(4 207)">
<title>dependencies</title>
<polygon fill="white" stroke="transparent" points="-4,4 -4,-207 1384,-207 1384,4 -4,4"/>
<text text-anchor="start" x="669.01" y="-42.4" font-family="Times-12" font-weight="bold" font-size="14.00">Legend</text>
<polygon fill="#ffffb3" stroke="transparent" points="456,-10 456,-30 476,-30 476,-10 456,-10"/>
<text text-anchor="start" x="479.63" y="-15.4" font-family="Times-12" font-size="14.00"> &#160;Declarations</text>
<polygon fill="#8dd3c7" stroke="transparent" points="569,-10 569,-30 589,-30 589,-10 569,-10"/>
<text text-anchor="start" x="592.73" y="-15.4" font-family="Times-12" font-size="14.00"> &#160;Module</text>
<polygon fill="#80b1d3" stroke="transparent" points="655,-10 655,-30 675,-30 675,-10 655,-10"/>
<text text-anchor="start" x="678.78" y="-15.4" font-family="Times-12" font-size="14.00"> &#160;Bootstrap</text>
<polygon fill="#fdb462" stroke="transparent" points="752,-10 752,-30 772,-30 772,-10 752,-10"/>
<text text-anchor="start" x="775.67" y="-15.4" font-family="Times-12" font-size="14.00"> &#160;Providers</text>
<polygon fill="#fb8072" stroke="transparent" points="848,-10 848,-30 868,-30 868,-10 848,-10"/>
<text text-anchor="start" x="871.73" y="-15.4" font-family="Times-12" font-size="14.00"> &#160;Exports</text>
<g id="clust1" class="cluster">
<title>cluster_MediaBoardApiModule</title>
<polygon fill="none" stroke="black" stroke-dasharray="1,5" points="8,-70 8,-195 1372,-195 1372,-70 8,-70"/>
</g>
<g id="clust3" class="cluster">
<title>cluster_MediaBoardApiModule_imports</title>
<polygon fill="none" stroke="black" points="728,-78 728,-130 1364,-130 1364,-78 728,-78"/>
</g>
<g id="clust6" class="cluster">
<title>cluster_MediaBoardApiModule_providers</title>
<polygon fill="none" stroke="black" points="16,-78 16,-130 720,-130 720,-78 16,-78"/>
</g>
<!-- AuthorizationModule -->
<g id="node1" class="node">
<title>AuthorizationModule</title>
<polygon fill="#8dd3c7" stroke="black" points="1355.81,-122 1352.81,-126 1331.81,-126 1328.81,-122 1218.19,-122 1218.19,-86 1355.81,-86 1355.81,-122"/>
<text text-anchor="middle" x="1287" y="-99.8" font-family="Times,serif" font-size="14.00">AuthorizationModule</text>
</g>
<!-- MediaBoardApiModule -->
<g id="node6" class="node">
<title>MediaBoardApiModule</title>
<polygon fill="#8dd3c7" stroke="black" points="854.02,-187 851.02,-191 830.02,-191 827.02,-187 703.98,-187 703.98,-151 854.02,-151 854.02,-187"/>
<text text-anchor="middle" x="779" y="-164.8" font-family="Times,serif" font-size="14.00">MediaBoardApiModule</text>
</g>
<!-- AuthorizationModule&#45;&gt;MediaBoardApiModule -->
<g id="edge1" class="edge">
<title>AuthorizationModule&#45;&gt;MediaBoardApiModule</title>
<path fill="none" stroke="black" d="M1287,-122.29C1287,-144.21 1287,-178 1287,-178 1287,-178 864.23,-178 864.23,-178"/>
<polygon fill="black" stroke="black" points="864.23,-174.5 854.23,-178 864.23,-181.5 864.23,-174.5"/>
</g>
<!-- BoardModule -->
<g id="node2" class="node">
<title>BoardModule</title>
<polygon fill="#8dd3c7" stroke="black" points="1199.76,-122 1196.76,-126 1175.76,-126 1172.76,-122 1106.24,-122 1106.24,-86 1199.76,-86 1199.76,-122"/>
<text text-anchor="middle" x="1153" y="-99.8" font-family="Times,serif" font-size="14.00">BoardModule</text>
</g>
<!-- BoardModule&#45;&gt;MediaBoardApiModule -->
<g id="edge2" class="edge">
<title>BoardModule&#45;&gt;MediaBoardApiModule</title>
<path fill="none" stroke="black" d="M1153,-122.11C1153,-141.34 1153,-169 1153,-169 1153,-169 864.23,-169 864.23,-169"/>
<polygon fill="black" stroke="black" points="864.23,-165.5 854.23,-169 864.23,-172.5 864.23,-165.5"/>
</g>
<!-- LoggerModule -->
<g id="node3" class="node">
<title>LoggerModule</title>
<polygon fill="#8dd3c7" stroke="black" points="1087.98,-122 1084.98,-126 1063.98,-126 1060.98,-122 988.02,-122 988.02,-86 1087.98,-86 1087.98,-122"/>
<text text-anchor="middle" x="1038" y="-99.8" font-family="Times,serif" font-size="14.00">LoggerModule</text>
</g>
<!-- LoggerModule&#45;&gt;MediaBoardApiModule -->
<g id="edge3" class="edge">
<title>LoggerModule&#45;&gt;MediaBoardApiModule</title>
<path fill="none" stroke="black" d="M1038,-122.03C1038,-138.4 1038,-160 1038,-160 1038,-160 864.26,-160 864.26,-160"/>
<polygon fill="black" stroke="black" points="864.26,-156.5 854.26,-160 864.26,-163.5 864.26,-156.5"/>
</g>
<!-- MediaBoardModule -->
<g id="node4" class="node">
<title>MediaBoardModule</title>
<polygon fill="#8dd3c7" stroke="black" points="969.53,-122 966.53,-126 945.53,-126 942.53,-122 840.47,-122 840.47,-86 969.53,-86 969.53,-122"/>
<text text-anchor="middle" x="905" y="-99.8" font-family="Times,serif" font-size="14.00">MediaBoardModule</text>
</g>
<!-- MediaBoardModule&#45;&gt;MediaBoardApiModule -->
<g id="edge4" class="edge">
<title>MediaBoardModule&#45;&gt;MediaBoardApiModule</title>
<path fill="none" stroke="black" d="M847.25,-122.11C847.25,-122.11 847.25,-140.99 847.25,-140.99"/>
<polygon fill="black" stroke="black" points="843.75,-140.99 847.25,-150.99 850.75,-140.99 843.75,-140.99"/>
</g>
<!-- ToolModule -->
<g id="node5" class="node">
<title>ToolModule</title>
<polygon fill="#8dd3c7" stroke="black" points="821.99,-122 818.99,-126 797.99,-126 794.99,-122 736.01,-122 736.01,-86 821.99,-86 821.99,-122"/>
<text text-anchor="middle" x="779" y="-99.8" font-family="Times,serif" font-size="14.00">ToolModule</text>
</g>
<!-- ToolModule&#45;&gt;MediaBoardApiModule -->
<g id="edge5" class="edge">
<title>ToolModule&#45;&gt;MediaBoardApiModule</title>
<path fill="none" stroke="black" d="M779,-122.11C779,-122.11 779,-140.99 779,-140.99"/>
<polygon fill="black" stroke="black" points="775.5,-140.99 779,-150.99 782.5,-140.99 775.5,-140.99"/>
</g>
<!-- MediaAvailableLineUc -->
<g id="node7" class="node">
<title>MediaAvailableLineUc</title>
<ellipse fill="#fdb462" stroke="black" cx="610" cy="-104" rx="102.4" ry="18"/>
<text text-anchor="middle" x="610" y="-99.8" font-family="Times,serif" font-size="14.00">MediaAvailableLineUc</text>
</g>
<!-- MediaAvailableLineUc&#45;&gt;MediaBoardApiModule -->
<g id="edge6" class="edge">
<title>MediaAvailableLineUc&#45;&gt;MediaBoardApiModule</title>
<path fill="none" stroke="black" d="M707.97,-109.54C707.97,-109.54 707.97,-140.75 707.97,-140.75"/>
<polygon fill="black" stroke="black" points="704.47,-140.75 707.97,-150.75 711.47,-140.75 704.47,-140.75"/>
</g>
<!-- MediaBoardUc -->
<g id="node8" class="node">
<title>MediaBoardUc</title>
<ellipse fill="#fdb462" stroke="black" cx="419" cy="-104" rx="70.63" ry="18"/>
<text text-anchor="middle" x="419" y="-99.8" font-family="Times,serif" font-size="14.00">MediaBoardUc</text>
</g>
<!-- MediaBoardUc&#45;&gt;MediaBoardApiModule -->
<g id="edge7" class="edge">
<title>MediaBoardUc&#45;&gt;MediaBoardApiModule</title>
<path fill="none" stroke="black" d="M419,-122.03C419,-138.4 419,-160 419,-160 419,-160 693.97,-160 693.97,-160"/>
<polygon fill="black" stroke="black" points="693.97,-163.5 703.97,-160 693.97,-156.5 693.97,-163.5"/>
</g>
<!-- MediaElementUc -->
<g id="node9" class="node">
<title>MediaElementUc</title>
<ellipse fill="#fdb462" stroke="black" cx="251" cy="-104" rx="79.29" ry="18"/>
<text text-anchor="middle" x="251" y="-99.8" font-family="Times,serif" font-size="14.00">MediaElementUc</text>
</g>
<!-- MediaElementUc&#45;&gt;MediaBoardApiModule -->
<g id="edge8" class="edge">
<title>MediaElementUc&#45;&gt;MediaBoardApiModule</title>
<path fill="none" stroke="black" d="M251,-122.11C251,-141.34 251,-169 251,-169 251,-169 693.91,-169 693.91,-169"/>
<polygon fill="black" stroke="black" points="693.91,-172.5 703.91,-169 693.91,-165.5 693.91,-172.5"/>
</g>
<!-- MediaLineUc -->
<g id="node10" class="node">
<title>MediaLineUc</title>
<ellipse fill="#fdb462" stroke="black" cx="89" cy="-104" rx="64.83" ry="18"/>
<text text-anchor="middle" x="89" y="-99.8" font-family="Times,serif" font-size="14.00">MediaLineUc</text>
</g>
<!-- MediaLineUc&#45;&gt;MediaBoardApiModule -->
<g id="edge9" class="edge">
<title>MediaLineUc&#45;&gt;MediaBoardApiModule</title>
<path fill="none" stroke="black" d="M89,-122.29C89,-144.21 89,-178 89,-178 89,-178 693.84,-178 693.84,-178"/>
<polygon fill="black" stroke="black" points="693.84,-181.5 703.84,-178 693.84,-174.5 693.84,-181.5"/>
</g>
</g>
</svg>
