<?xml version="1.0" encoding="UTF-8" standalone="no"?>
<!DOCTYPE svg PUBLIC "-//W3C//DTD SVG 1.1//EN"
 "http://www.w3.org/Graphics/SVG/1.1/DTD/svg11.dtd">
<!-- Generated by graphviz version 2.47.0 (20210316.0004)
 -->
<!-- Title: dependencies Pages: 1 -->
<svg width="1653pt" height="211pt"
 viewBox="0.00 0.00 1653.00 211.00" xmlns="http://www.w3.org/2000/svg" xmlns:xlink="http://www.w3.org/1999/xlink">
<g id="graph0" class="graph" transform="scale(1 1) rotate(0) translate(4 207)">
<title>dependencies</title>
<polygon fill="white" stroke="transparent" points="-4,4 -4,-207 1649,-207 1649,4 -4,4"/>
<text text-anchor="start" x="801.51" y="-42.4" font-family="Times-12" font-weight="bold" font-size="14.00">Legend</text>
<polygon fill="#ffffb3" stroke="transparent" points="588.5,-10 588.5,-30 608.5,-30 608.5,-10 588.5,-10"/>
<text text-anchor="start" x="612.13" y="-15.4" font-family="Times-12" font-size="14.00"> &#160;Declarations</text>
<polygon fill="#8dd3c7" stroke="transparent" points="701.5,-10 701.5,-30 721.5,-30 721.5,-10 701.5,-10"/>
<text text-anchor="start" x="725.23" y="-15.4" font-family="Times-12" font-size="14.00"> &#160;Module</text>
<polygon fill="#80b1d3" stroke="transparent" points="787.5,-10 787.5,-30 807.5,-30 807.5,-10 787.5,-10"/>
<text text-anchor="start" x="811.28" y="-15.4" font-family="Times-12" font-size="14.00"> &#160;Bootstrap</text>
<polygon fill="#fdb462" stroke="transparent" points="884.5,-10 884.5,-30 904.5,-30 904.5,-10 884.5,-10"/>
<text text-anchor="start" x="908.17" y="-15.4" font-family="Times-12" font-size="14.00"> &#160;Providers</text>
<polygon fill="#fb8072" stroke="transparent" points="980.5,-10 980.5,-30 1000.5,-30 1000.5,-10 980.5,-10"/>
<text text-anchor="start" x="1004.23" y="-15.4" font-family="Times-12" font-size="14.00"> &#160;Exports</text>
<g id="clust1" class="cluster">
<title>cluster_MediaBoardApiModule</title>
<polygon fill="none" stroke="black" stroke-dasharray="1,5" points="8,-70 8,-195 1637,-195 1637,-70 8,-70"/>
</g>
<g id="clust3" class="cluster">
<title>cluster_MediaBoardApiModule_imports</title>
<polygon fill="none" stroke="black" points="1001,-78 1001,-130 1629,-130 1629,-78 1001,-78"/>
</g>
<g id="clust6" class="cluster">
<title>cluster_MediaBoardApiModule_providers</title>
<polygon fill="none" stroke="black" points="16,-78 16,-130 993,-130 993,-78 16,-78"/>
</g>
<!-- BoardModule -->
<g id="node1" class="node">
<title>BoardModule</title>
<polygon fill="#8dd3c7" stroke="black" points="1620.76,-122 1617.76,-126 1596.76,-126 1593.76,-122 1527.24,-122 1527.24,-86 1620.76,-86 1620.76,-122"/>
<text text-anchor="middle" x="1574" y="-99.8" font-family="Times,serif" font-size="14.00">BoardModule</text>
</g>
<!-- MediaBoardApiModule -->
<g id="node6" class="node">
<title>MediaBoardApiModule</title>
<polygon fill="#8dd3c7" stroke="black" points="1041.02,-187 1038.02,-191 1017.02,-191 1014.02,-187 890.98,-187 890.98,-151 1041.02,-151 1041.02,-187"/>
<text text-anchor="middle" x="966" y="-164.8" font-family="Times,serif" font-size="14.00">MediaBoardApiModule</text>
</g>
<!-- BoardModule&#45;&gt;MediaBoardApiModule -->
<g id="edge1" class="edge">
<title>BoardModule&#45;&gt;MediaBoardApiModule</title>
<path fill="none" stroke="black" d="M1574,-122.01C1574,-144.49 1574,-180 1574,-180 1574,-180 1051.16,-180 1051.16,-180"/>
<polygon fill="black" stroke="black" points="1051.16,-176.5 1041.16,-180 1051.16,-183.5 1051.16,-176.5"/>
</g>
<!-- LoggerModule -->
<g id="node2" class="node">
<title>LoggerModule</title>
<polygon fill="#8dd3c7" stroke="black" points="1508.98,-122 1505.98,-126 1484.98,-126 1481.98,-122 1409.02,-122 1409.02,-86 1508.98,-86 1508.98,-122"/>
<text text-anchor="middle" x="1459" y="-99.8" font-family="Times,serif" font-size="14.00">LoggerModule</text>
</g>
<!-- LoggerModule&#45;&gt;MediaBoardApiModule -->
<g id="edge2" class="edge">
<title>LoggerModule&#45;&gt;MediaBoardApiModule</title>
<path fill="none" stroke="black" d="M1459,-122.13C1459,-142.57 1459,-173 1459,-173 1459,-173 1051.14,-173 1051.14,-173"/>
<polygon fill="black" stroke="black" points="1051.14,-169.5 1041.14,-173 1051.14,-176.5 1051.14,-169.5"/>
</g>
<!-- MediaBoardModule -->
<g id="node3" class="node">
<title>MediaBoardModule</title>
<polygon fill="#8dd3c7" stroke="black" points="1390.53,-122 1387.53,-126 1366.53,-126 1363.53,-122 1261.47,-122 1261.47,-86 1390.53,-86 1390.53,-122"/>
<text text-anchor="middle" x="1326" y="-99.8" font-family="Times,serif" font-size="14.00">MediaBoardModule</text>
</g>
<!-- MediaBoardModule&#45;&gt;MediaBoardApiModule -->
<g id="edge3" class="edge">
<title>MediaBoardModule&#45;&gt;MediaBoardApiModule</title>
<path fill="none" stroke="black" d="M1326,-122.27C1326,-140.56 1326,-166 1326,-166 1326,-166 1051.03,-166 1051.03,-166"/>
<polygon fill="black" stroke="black" points="1051.03,-162.5 1041.03,-166 1051.03,-169.5 1051.03,-162.5"/>
</g>
<!-- ToolModule -->
<g id="node4" class="node">
<title>ToolModule</title>
<polygon fill="#8dd3c7" stroke="black" points="1242.99,-122 1239.99,-126 1218.99,-126 1215.99,-122 1157.01,-122 1157.01,-86 1242.99,-86 1242.99,-122"/>
<text text-anchor="middle" x="1200" y="-99.8" font-family="Times,serif" font-size="14.00">ToolModule</text>
</g>
<!-- ToolModule&#45;&gt;MediaBoardApiModule -->
<g id="edge4" class="edge">
<title>ToolModule&#45;&gt;MediaBoardApiModule</title>
<path fill="none" stroke="black" d="M1200,-122.01C1200,-138.05 1200,-159 1200,-159 1200,-159 1051.33,-159 1051.33,-159"/>
<polygon fill="black" stroke="black" points="1051.33,-155.5 1041.33,-159 1051.33,-162.5 1051.33,-155.5"/>
</g>
<!-- UserLicenseModule -->
<g id="node5" class="node">
<title>UserLicenseModule</title>
<polygon fill="#8dd3c7" stroke="black" points="1138.51,-122 1135.51,-126 1114.51,-126 1111.51,-122 1009.49,-122 1009.49,-86 1138.51,-86 1138.51,-122"/>
<text text-anchor="middle" x="1074" y="-99.8" font-family="Times,serif" font-size="14.00">UserLicenseModule</text>
</g>
<!-- UserLicenseModule&#45;&gt;MediaBoardApiModule -->
<g id="edge5" class="edge">
<title>UserLicenseModule&#45;&gt;MediaBoardApiModule</title>
<path fill="none" stroke="black" d="M1025.25,-122.11C1025.25,-122.11 1025.25,-140.99 1025.25,-140.99"/>
<polygon fill="black" stroke="black" points="1021.75,-140.99 1025.25,-150.99 1028.75,-140.99 1021.75,-140.99"/>
</g>
<!-- BoardNodePermissionService -->
<g id="node7" class="node">
<title>BoardNodePermissionService</title>
<ellipse fill="#fdb462" stroke="black" cx="858" cy="-104" rx="127.35" ry="18"/>
<text text-anchor="middle" x="858" y="-99.8" font-family="Times,serif" font-size="14.00">BoardNodePermissionService</text>
</g>
<!-- BoardNodePermissionService&#45;&gt;MediaBoardApiModule -->
<g id="edge6" class="edge">
<title>BoardNodePermissionService&#45;&gt;MediaBoardApiModule</title>
<path fill="none" stroke="black" d="M938.08,-118.1C938.08,-118.1 938.08,-140.72 938.08,-140.72"/>
<polygon fill="black" stroke="black" points="934.58,-140.72 938.08,-150.72 941.58,-140.72 934.58,-140.72"/>
</g>
<!-- MediaAvailableLineUc -->
<g id="node8" class="node">
<title>MediaAvailableLineUc</title>
<ellipse fill="#fdb462" stroke="black" cx="610" cy="-104" rx="102.4" ry="18"/>
<text text-anchor="middle" x="610" y="-99.8" font-family="Times,serif" font-size="14.00">MediaAvailableLineUc</text>
</g>
<!-- MediaAvailableLineUc&#45;&gt;MediaBoardApiModule -->
<g id="edge7" class="edge">
<title>MediaAvailableLineUc&#45;&gt;MediaBoardApiModule</title>
<path fill="none" stroke="black" d="M610,-122.01C610,-138.05 610,-159 610,-159 610,-159 880.94,-159 880.94,-159"/>
<polygon fill="black" stroke="black" points="880.94,-162.5 890.94,-159 880.94,-155.5 880.94,-162.5"/>
</g>
<!-- MediaBoardUc -->
<g id="node9" class="node">
<title>MediaBoardUc</title>
<ellipse fill="#fdb462" stroke="black" cx="419" cy="-104" rx="70.63" ry="18"/>
<text text-anchor="middle" x="419" y="-99.8" font-family="Times,serif" font-size="14.00">MediaBoardUc</text>
</g>
<!-- MediaBoardUc&#45;&gt;MediaBoardApiModule -->
<g id="edge8" class="edge">
<title>MediaBoardUc&#45;&gt;MediaBoardApiModule</title>
<path fill="none" stroke="black" d="M419,-122.27C419,-140.56 419,-166 419,-166 419,-166 880.8,-166 880.8,-166"/>
<polygon fill="black" stroke="black" points="880.8,-169.5 890.8,-166 880.8,-162.5 880.8,-169.5"/>
</g>
<!-- MediaElementUc -->
<g id="node10" class="node">
<title>MediaElementUc</title>
<ellipse fill="#fdb462" stroke="black" cx="251" cy="-104" rx="79.29" ry="18"/>
<text text-anchor="middle" x="251" y="-99.8" font-family="Times,serif" font-size="14.00">MediaElementUc</text>
</g>
<!-- MediaElementUc&#45;&gt;MediaBoardApiModule -->
<g id="edge9" class="edge">
<title>MediaElementUc&#45;&gt;MediaBoardApiModule</title>
<path fill="none" stroke="black" d="M251,-122.13C251,-142.57 251,-173 251,-173 251,-173 880.83,-173 880.83,-173"/>
<polygon fill="black" stroke="black" points="880.83,-176.5 890.83,-173 880.83,-169.5 880.83,-176.5"/>
</g>
<!-- MediaLineUc -->
<g id="node11" class="node">
<title>MediaLineUc</title>
<ellipse fill="#fdb462" stroke="black" cx="89" cy="-104" rx="64.83" ry="18"/>
<text text-anchor="middle" x="89" y="-99.8" font-family="Times,serif" font-size="14.00">MediaLineUc</text>
</g>
<!-- MediaLineUc&#45;&gt;MediaBoardApiModule -->
<g id="edge10" class="edge">
<title>MediaLineUc&#45;&gt;MediaBoardApiModule</title>
<path fill="none" stroke="black" d="M89,-122.01C89,-144.49 89,-180 89,-180 89,-180 880.85,-180 880.85,-180"/>
<polygon fill="black" stroke="black" points="880.85,-183.5 890.85,-180 880.85,-176.5 880.85,-183.5"/>
</g>
</g>
</svg>
