<?xml version="1.0" encoding="UTF-8" standalone="no"?>
<!DOCTYPE svg PUBLIC "-//W3C//DTD SVG 1.1//EN"
 "http://www.w3.org/Graphics/SVG/1.1/DTD/svg11.dtd">
<!-- Generated by graphviz version 2.47.0 (20210316.0004)
 -->
<!-- Title: dependencies Pages: 1 -->
<svg width="1653pt" height="211pt"
 viewBox="0.00 0.00 1653.00 211.00" xmlns="http://www.w3.org/2000/svg" xmlns:xlink="http://www.w3.org/1999/xlink">
<g id="graph0" class="graph" transform="scale(1 1) rotate(0) translate(4 207)">
<title>dependencies</title>
<polygon fill="white" stroke="transparent" points="-4,4 -4,-207 1649,-207 1649,4 -4,4"/>
<text text-anchor="start" x="801.51" y="-42.4" font-family="Times-12" font-weight="bold" font-size="14.00">Legend</text>
<polygon fill="#ffffb3" stroke="transparent" points="588.5,-10 588.5,-30 608.5,-30 608.5,-10 588.5,-10"/>
<text text-anchor="start" x="612.13" y="-15.4" font-family="Times-12" font-size="14.00"> &#160;Declarations</text>
<polygon fill="#8dd3c7" stroke="transparent" points="701.5,-10 701.5,-30 721.5,-30 721.5,-10 701.5,-10"/>
<text text-anchor="start" x="725.23" y="-15.4" font-family="Times-12" font-size="14.00"> &#160;Module</text>
<polygon fill="#80b1d3" stroke="transparent" points="787.5,-10 787.5,-30 807.5,-30 807.5,-10 787.5,-10"/>
<text text-anchor="start" x="811.28" y="-15.4" font-family="Times-12" font-size="14.00"> &#160;Bootstrap</text>
<polygon fill="#fdb462" stroke="transparent" points="884.5,-10 884.5,-30 904.5,-30 904.5,-10 884.5,-10"/>
<text text-anchor="start" x="908.17" y="-15.4" font-family="Times-12" font-size="14.00"> &#160;Providers</text>
<polygon fill="#fb8072" stroke="transparent" points="980.5,-10 980.5,-30 1000.5,-30 1000.5,-10 980.5,-10"/>
<text text-anchor="start" x="1004.23" y="-15.4" font-family="Times-12" font-size="14.00"> &#160;Exports</text>
<g id="clust1" class="cluster">
<title>cluster_MediaBoardApiModule</title>
<polygon fill="none" stroke="black" stroke-dasharray="1,5" points="8,-70 8,-195 1637,-195 1637,-70 8,-70"/>
</g>
<g id="clust6" class="cluster">
<title>cluster_MediaBoardApiModule_providers</title>
<polygon fill="none" stroke="black" points="652,-78 652,-130 1629,-130 1629,-78 652,-78"/>
</g>
<g id="clust3" class="cluster">
<title>cluster_MediaBoardApiModule_imports</title>
<polygon fill="none" stroke="black" points="16,-78 16,-130 644,-130 644,-78 16,-78"/>
</g>
<!-- BoardModule -->
<g id="node1" class="node">
<title>BoardModule</title>
<polygon fill="#8dd3c7" stroke="black" points="635.76,-122 632.76,-126 611.76,-126 608.76,-122 542.24,-122 542.24,-86 635.76,-86 635.76,-122"/>
<text text-anchor="middle" x="589" y="-99.8" font-family="Times,serif" font-size="14.00">BoardModule</text>
</g>
<!-- MediaBoardApiModule -->
<g id="node6" class="node">
<title>MediaBoardApiModule</title>
<polygon fill="#8dd3c7" stroke="black" points="732.02,-187 729.02,-191 708.02,-191 705.02,-187 581.98,-187 581.98,-151 732.02,-151 732.02,-187"/>
<text text-anchor="middle" x="657" y="-164.8" font-family="Times,serif" font-size="14.00">MediaBoardApiModule</text>
</g>
<!-- BoardModule&#45;&gt;MediaBoardApiModule -->
<g id="edge1" class="edge">
<title>BoardModule&#45;&gt;MediaBoardApiModule</title>
<path fill="none" stroke="black" d="M608.81,-122.11C608.81,-122.11 608.81,-140.99 608.81,-140.99"/>
<polygon fill="black" stroke="black" points="605.31,-140.99 608.81,-150.99 612.31,-140.99 605.31,-140.99"/>
</g>
<!-- LoggerModule -->
<g id="node2" class="node">
<title>LoggerModule</title>
<polygon fill="#8dd3c7" stroke="black" points="523.98,-122 520.98,-126 499.98,-126 496.98,-122 424.02,-122 424.02,-86 523.98,-86 523.98,-122"/>
<text text-anchor="middle" x="474" y="-99.8" font-family="Times,serif" font-size="14.00">LoggerModule</text>
</g>
<!-- LoggerModule&#45;&gt;MediaBoardApiModule -->
<g id="edge2" class="edge">
<title>LoggerModule&#45;&gt;MediaBoardApiModule</title>
<path fill="none" stroke="black" d="M474,-122.01C474,-138.05 474,-159 474,-159 474,-159 571.77,-159 571.77,-159"/>
<polygon fill="black" stroke="black" points="571.77,-162.5 581.77,-159 571.77,-155.5 571.77,-162.5"/>
</g>
<!-- MediaBoardModule -->
<g id="node3" class="node">
<title>MediaBoardModule</title>
<polygon fill="#8dd3c7" stroke="black" points="405.53,-122 402.53,-126 381.53,-126 378.53,-122 276.47,-122 276.47,-86 405.53,-86 405.53,-122"/>
<text text-anchor="middle" x="341" y="-99.8" font-family="Times,serif" font-size="14.00">MediaBoardModule</text>
</g>
<!-- MediaBoardModule&#45;&gt;MediaBoardApiModule -->
<g id="edge3" class="edge">
<title>MediaBoardModule&#45;&gt;MediaBoardApiModule</title>
<path fill="none" stroke="black" d="M341,-122.27C341,-140.56 341,-166 341,-166 341,-166 571.71,-166 571.71,-166"/>
<polygon fill="black" stroke="black" points="571.71,-169.5 581.71,-166 571.71,-162.5 571.71,-169.5"/>
</g>
<!-- ToolModule -->
<g id="node4" class="node">
<title>ToolModule</title>
<polygon fill="#8dd3c7" stroke="black" points="257.99,-122 254.99,-126 233.99,-126 230.99,-122 172.01,-122 172.01,-86 257.99,-86 257.99,-122"/>
<text text-anchor="middle" x="215" y="-99.8" font-family="Times,serif" font-size="14.00">ToolModule</text>
</g>
<!-- ToolModule&#45;&gt;MediaBoardApiModule -->
<g id="edge4" class="edge">
<title>ToolModule&#45;&gt;MediaBoardApiModule</title>
<path fill="none" stroke="black" d="M215,-122.13C215,-142.57 215,-173 215,-173 215,-173 571.77,-173 571.77,-173"/>
<polygon fill="black" stroke="black" points="571.77,-176.5 581.77,-173 571.77,-169.5 571.77,-176.5"/>
</g>
<!-- UserLicenseModule -->
<g id="node5" class="node">
<title>UserLicenseModule</title>
<polygon fill="#8dd3c7" stroke="black" points="153.51,-122 150.51,-126 129.51,-126 126.51,-122 24.49,-122 24.49,-86 153.51,-86 153.51,-122"/>
<text text-anchor="middle" x="89" y="-99.8" font-family="Times,serif" font-size="14.00">UserLicenseModule</text>
</g>
<!-- UserLicenseModule&#45;&gt;MediaBoardApiModule -->
<g id="edge5" class="edge">
<title>UserLicenseModule&#45;&gt;MediaBoardApiModule</title>
<path fill="none" stroke="black" d="M89,-122.01C89,-144.49 89,-180 89,-180 89,-180 571.87,-180 571.87,-180"/>
<polygon fill="black" stroke="black" points="571.87,-183.5 581.87,-180 571.87,-176.5 571.87,-183.5"/>
</g>
<!-- BoardNodePermissionService -->
<g id="node7" class="node">
<title>BoardNodePermissionService</title>
<ellipse fill="#fdb462" stroke="black" cx="1494" cy="-104" rx="127.35" ry="18"/>
<text text-anchor="middle" x="1494" y="-99.8" font-family="Times,serif" font-size="14.00">BoardNodePermissionService</text>
</g>
<!-- BoardNodePermissionService&#45;&gt;MediaBoardApiModule -->
<g id="edge6" class="edge">
<title>BoardNodePermissionService&#45;&gt;MediaBoardApiModule</title>
<path fill="none" stroke="black" d="M1494,-122.01C1494,-144.49 1494,-180 1494,-180 1494,-180 742.38,-180 742.38,-180"/>
<polygon fill="black" stroke="black" points="742.38,-176.5 732.38,-180 742.38,-183.5 742.38,-176.5"/>
</g>
<!-- MediaAvailableLineUc -->
<g id="node8" class="node">
<title>MediaAvailableLineUc</title>
<ellipse fill="#fdb462" stroke="black" cx="1246" cy="-104" rx="102.4" ry="18"/>
<text text-anchor="middle" x="1246" y="-99.8" font-family="Times,serif" font-size="14.00">MediaAvailableLineUc</text>
</g>
<!-- MediaAvailableLineUc&#45;&gt;MediaBoardApiModule -->
<g id="edge7" class="edge">
<title>MediaAvailableLineUc&#45;&gt;MediaBoardApiModule</title>
<path fill="none" stroke="black" d="M1246,-122.13C1246,-142.57 1246,-173 1246,-173 1246,-173 742.2,-173 742.2,-173"/>
<polygon fill="black" stroke="black" points="742.2,-169.5 732.2,-173 742.2,-176.5 742.2,-169.5"/>
</g>
<!-- MediaBoardUc -->
<g id="node9" class="node">
<title>MediaBoardUc</title>
<ellipse fill="#fdb462" stroke="black" cx="1055" cy="-104" rx="70.63" ry="18"/>
<text text-anchor="middle" x="1055" y="-99.8" font-family="Times,serif" font-size="14.00">MediaBoardUc</text>
</g>
<!-- MediaBoardUc&#45;&gt;MediaBoardApiModule -->
<g id="edge8" class="edge">
<title>MediaBoardUc&#45;&gt;MediaBoardApiModule</title>
<path fill="none" stroke="black" d="M1055,-122.27C1055,-140.56 1055,-166 1055,-166 1055,-166 742.33,-166 742.33,-166"/>
<polygon fill="black" stroke="black" points="742.33,-162.5 732.33,-166 742.33,-169.5 742.33,-162.5"/>
</g>
<!-- MediaElementUc -->
<g id="node10" class="node">
<title>MediaElementUc</title>
<ellipse fill="#fdb462" stroke="black" cx="887" cy="-104" rx="79.29" ry="18"/>
<text text-anchor="middle" x="887" y="-99.8" font-family="Times,serif" font-size="14.00">MediaElementUc</text>
</g>
<!-- MediaElementUc&#45;&gt;MediaBoardApiModule -->
<g id="edge9" class="edge">
<title>MediaElementUc&#45;&gt;MediaBoardApiModule</title>
<path fill="none" stroke="black" d="M887,-122.01C887,-138.05 887,-159 887,-159 887,-159 742.31,-159 742.31,-159"/>
<polygon fill="black" stroke="black" points="742.31,-155.5 732.31,-159 742.31,-162.5 742.31,-155.5"/>
</g>
<!-- MediaLineUc -->
<g id="node11" class="node">
<title>MediaLineUc</title>
<ellipse fill="#fdb462" stroke="black" cx="725" cy="-104" rx="64.83" ry="18"/>
<text text-anchor="middle" x="725" y="-99.8" font-family="Times,serif" font-size="14.00">MediaLineUc</text>
</g>
<!-- MediaLineUc&#45;&gt;MediaBoardApiModule -->
<g id="edge10" class="edge">
<title>MediaLineUc&#45;&gt;MediaBoardApiModule</title>
<path fill="none" stroke="black" d="M696.3,-120.4C696.3,-120.4 696.3,-140.54 696.3,-140.54"/>
<polygon fill="black" stroke="black" points="692.8,-140.54 696.3,-150.54 699.8,-140.54 692.8,-140.54"/>
</g>
</g>
</svg>
