<?xml version="1.0" encoding="UTF-8" standalone="no"?>
<!DOCTYPE svg PUBLIC "-//W3C//DTD SVG 1.1//EN"
 "http://www.w3.org/Graphics/SVG/1.1/DTD/svg11.dtd">
<!-- Generated by graphviz version 2.47.0 (20210316.0004)
 -->
<!-- Title: dependencies Pages: 1 -->
<svg width="914pt" height="211pt"
 viewBox="0.00 0.00 914.00 211.00" xmlns="http://www.w3.org/2000/svg" xmlns:xlink="http://www.w3.org/1999/xlink">
<g id="graph0" class="graph" transform="scale(1 1) rotate(0) translate(4 207)">
<title>dependencies</title>
<polygon fill="white" stroke="transparent" points="-4,4 -4,-207 910,-207 910,4 -4,4"/>
<text text-anchor="start" x="432.01" y="-42.4" font-family="Times-12" font-weight="bold" font-size="14.00">Legend</text>
<polygon fill="#ffffb3" stroke="transparent" points="219,-10 219,-30 239,-30 239,-10 219,-10"/>
<text text-anchor="start" x="242.63" y="-15.4" font-family="Times-12" font-size="14.00"> &#160;Declarations</text>
<polygon fill="#8dd3c7" stroke="transparent" points="332,-10 332,-30 352,-30 352,-10 332,-10"/>
<text text-anchor="start" x="355.73" y="-15.4" font-family="Times-12" font-size="14.00"> &#160;Module</text>
<polygon fill="#80b1d3" stroke="transparent" points="418,-10 418,-30 438,-30 438,-10 418,-10"/>
<text text-anchor="start" x="441.78" y="-15.4" font-family="Times-12" font-size="14.00"> &#160;Bootstrap</text>
<polygon fill="#fdb462" stroke="transparent" points="515,-10 515,-30 535,-30 535,-10 515,-10"/>
<text text-anchor="start" x="538.67" y="-15.4" font-family="Times-12" font-size="14.00"> &#160;Providers</text>
<polygon fill="#fb8072" stroke="transparent" points="611,-10 611,-30 631,-30 631,-10 611,-10"/>
<text text-anchor="start" x="634.73" y="-15.4" font-family="Times-12" font-size="14.00"> &#160;Exports</text>
<g id="clust1" class="cluster">
<title>cluster_MediaBoardApiModule</title>
<polygon fill="none" stroke="black" stroke-dasharray="1,5" points="8,-70 8,-195 898,-195 898,-70 8,-70"/>
</g>
<g id="clust3" class="cluster">
<title>cluster_MediaBoardApiModule_imports</title>
<polygon fill="none" stroke="black" points="506,-78 506,-130 890,-130 890,-78 506,-78"/>
</g>
<g id="clust6" class="cluster">
<title>cluster_MediaBoardApiModule_providers</title>
<polygon fill="none" stroke="black" points="16,-78 16,-130 498,-130 498,-78 16,-78"/>
</g>
<!-- AuthorizationModule -->
<g id="node1" class="node">
<title>AuthorizationModule</title>
<polygon fill="#8dd3c7" stroke="black" points="881.81,-122 878.81,-126 857.81,-126 854.81,-122 744.19,-122 744.19,-86 881.81,-86 881.81,-122"/>
<text text-anchor="middle" x="813" y="-99.8" font-family="Times,serif" font-size="14.00">AuthorizationModule</text>
</g>
<!-- MediaBoardApiModule -->
<g id="node4" class="node">
<title>MediaBoardApiModule</title>
<polygon fill="#8dd3c7" stroke="black" points="566.02,-187 563.02,-191 542.02,-191 539.02,-187 415.98,-187 415.98,-151 566.02,-151 566.02,-187"/>
<text text-anchor="middle" x="491" y="-164.8" font-family="Times,serif" font-size="14.00">MediaBoardApiModule</text>
</g>
<!-- AuthorizationModule&#45;&gt;MediaBoardApiModule -->
<g id="edge1" class="edge">
<title>AuthorizationModule&#45;&gt;MediaBoardApiModule</title>
<path fill="none" stroke="black" d="M813,-122.28C813,-143.32 813,-175 813,-175 813,-175 576.09,-175 576.09,-175"/>
<polygon fill="black" stroke="black" points="576.09,-171.5 566.09,-175 576.09,-178.5 576.09,-171.5"/>
</g>
<!-- BoardModule -->
<g id="node2" class="node">
<title>BoardModule</title>
<polygon fill="#8dd3c7" stroke="black" points="725.76,-122 722.76,-126 701.76,-126 698.76,-122 632.24,-122 632.24,-86 725.76,-86 725.76,-122"/>
<text text-anchor="middle" x="679" y="-99.8" font-family="Times,serif" font-size="14.00">BoardModule</text>
</g>
<!-- BoardModule&#45;&gt;MediaBoardApiModule -->
<g id="edge2" class="edge">
<title>BoardModule&#45;&gt;MediaBoardApiModule</title>
<path fill="none" stroke="black" d="M679,-122.02C679,-139.37 679,-163 679,-163 679,-163 576.11,-163 576.11,-163"/>
<polygon fill="black" stroke="black" points="576.11,-159.5 566.11,-163 576.11,-166.5 576.11,-159.5"/>
</g>
<!-- LoggerModule -->
<g id="node3" class="node">
<title>LoggerModule</title>
<polygon fill="#8dd3c7" stroke="black" points="613.98,-122 610.98,-126 589.98,-126 586.98,-122 514.02,-122 514.02,-86 613.98,-86 613.98,-122"/>
<text text-anchor="middle" x="564" y="-99.8" font-family="Times,serif" font-size="14.00">LoggerModule</text>
</g>
<!-- LoggerModule&#45;&gt;MediaBoardApiModule -->
<g id="edge3" class="edge">
<title>LoggerModule&#45;&gt;MediaBoardApiModule</title>
<path fill="none" stroke="black" d="M540.14,-122.11C540.14,-122.11 540.14,-140.99 540.14,-140.99"/>
<polygon fill="black" stroke="black" points="536.64,-140.99 540.14,-150.99 543.64,-140.99 536.64,-140.99"/>
</g>
<!-- MediaBoardUc -->
<g id="node5" class="node">
<title>MediaBoardUc</title>
<ellipse fill="#fdb462" stroke="black" cx="419" cy="-104" rx="70.63" ry="18"/>
<text text-anchor="middle" x="419" y="-99.8" font-family="Times,serif" font-size="14.00">MediaBoardUc</text>
</g>
<!-- MediaBoardUc&#45;&gt;MediaBoardApiModule -->
<g id="edge4" class="edge">
<title>MediaBoardUc&#45;&gt;MediaBoardApiModule</title>
<path fill="none" stroke="black" d="M452.65,-120.07C452.65,-120.07 452.65,-140.82 452.65,-140.82"/>
<polygon fill="black" stroke="black" points="449.15,-140.82 452.65,-150.82 456.15,-140.82 449.15,-140.82"/>
</g>
<!-- MediaElementUc -->
<g id="node6" class="node">
<title>MediaElementUc</title>
<ellipse fill="#fdb462" stroke="black" cx="251" cy="-104" rx="79.29" ry="18"/>
<text text-anchor="middle" x="251" y="-99.8" font-family="Times,serif" font-size="14.00">MediaElementUc</text>
</g>
<!-- MediaElementUc&#45;&gt;MediaBoardApiModule -->
<g id="edge5" class="edge">
<title>MediaElementUc&#45;&gt;MediaBoardApiModule</title>
<path fill="none" stroke="black" d="M251,-122.02C251,-139.37 251,-163 251,-163 251,-163 405.72,-163 405.72,-163"/>
<polygon fill="black" stroke="black" points="405.72,-166.5 415.72,-163 405.72,-159.5 405.72,-166.5"/>
</g>
<!-- MediaLineUc -->
<g id="node7" class="node">
<title>MediaLineUc</title>
<ellipse fill="#fdb462" stroke="black" cx="89" cy="-104" rx="64.83" ry="18"/>
<text text-anchor="middle" x="89" y="-99.8" font-family="Times,serif" font-size="14.00">MediaLineUc</text>
</g>
<!-- MediaLineUc&#45;&gt;MediaBoardApiModule -->
<g id="edge6" class="edge">
<title>MediaLineUc&#45;&gt;MediaBoardApiModule</title>
<path fill="none" stroke="black" d="M89,-122.28C89,-143.32 89,-175 89,-175 89,-175 405.86,-175 405.86,-175"/>
<polygon fill="black" stroke="black" points="405.86,-178.5 415.86,-175 405.86,-171.5 405.86,-178.5"/>
</g>
</g>
</svg>
