<?xml version="1.0" encoding="UTF-8" standalone="no"?>
<!DOCTYPE svg PUBLIC "-//W3C//DTD SVG 1.1//EN"
 "http://www.w3.org/Graphics/SVG/1.1/DTD/svg11.dtd">
<!-- Generated by graphviz version 2.47.0 (20210316.0004)
 -->
<!-- Title: dependencies Pages: 1 -->
<svg width="504pt" height="211pt"
 viewBox="0.00 0.00 504.00 211.00" xmlns="http://www.w3.org/2000/svg" xmlns:xlink="http://www.w3.org/1999/xlink">
<g id="graph0" class="graph" transform="scale(1 1) rotate(0) translate(4 207)">
<title>dependencies</title>
<polygon fill="white" stroke="transparent" points="-4,4 -4,-207 500,-207 500,4 -4,4"/>
<text text-anchor="start" x="227.01" y="-42.4" font-family="Times-12" font-weight="bold" font-size="14.00">Legend</text>
<polygon fill="#ffffb3" stroke="transparent" points="14,-10 14,-30 34,-30 34,-10 14,-10"/>
<text text-anchor="start" x="37.63" y="-15.4" font-family="Times-12" font-size="14.00"> &#160;Declarations</text>
<polygon fill="#8dd3c7" stroke="transparent" points="127,-10 127,-30 147,-30 147,-10 127,-10"/>
<text text-anchor="start" x="150.73" y="-15.4" font-family="Times-12" font-size="14.00"> &#160;Module</text>
<polygon fill="#80b1d3" stroke="transparent" points="213,-10 213,-30 233,-30 233,-10 213,-10"/>
<text text-anchor="start" x="236.78" y="-15.4" font-family="Times-12" font-size="14.00"> &#160;Bootstrap</text>
<polygon fill="#fdb462" stroke="transparent" points="310,-10 310,-30 330,-30 330,-10 310,-10"/>
<text text-anchor="start" x="333.67" y="-15.4" font-family="Times-12" font-size="14.00"> &#160;Providers</text>
<polygon fill="#fb8072" stroke="transparent" points="406,-10 406,-30 426,-30 426,-10 406,-10"/>
<text text-anchor="start" x="429.73" y="-15.4" font-family="Times-12" font-size="14.00"> &#160;Exports</text>
<g id="clust1" class="cluster">
<title>cluster_SystemApiModule</title>
<polygon fill="none" stroke="black" stroke-dasharray="1,5" points="41,-70 41,-195 455,-195 455,-70 41,-70"/>
</g>
<g id="clust3" class="cluster">
<title>cluster_SystemApiModule_imports</title>
<polygon fill="none" stroke="black" points="175,-78 175,-130 447,-130 447,-78 175,-78"/>
</g>
<g id="clust6" class="cluster">
<title>cluster_SystemApiModule_providers</title>
<polygon fill="none" stroke="black" points="49,-78 49,-130 167,-130 167,-78 49,-78"/>
</g>
<!-- AuthorizationModule -->
<g id="node1" class="node">
<title>AuthorizationModule</title>
<polygon fill="#8dd3c7" stroke="black" points="438.81,-122 435.81,-126 414.81,-126 411.81,-122 301.19,-122 301.19,-86 438.81,-86 438.81,-122"/>
<text text-anchor="middle" x="370" y="-99.8" font-family="Times,serif" font-size="14.00">AuthorizationModule</text>
</g>
<!-- SystemApiModule -->
<g id="node3" class="node">
<title>SystemApiModule</title>
<polygon fill="#8dd3c7" stroke="black" points="293.77,-187 290.77,-191 269.77,-191 266.77,-187 172.23,-187 172.23,-151 293.77,-151 293.77,-187"/>
<text text-anchor="middle" x="233" y="-164.8" font-family="Times,serif" font-size="14.00">SystemApiModule</text>
</g>
<!-- AuthorizationModule&#45;&gt;SystemApiModule -->
<g id="edge1" class="edge">
<title>AuthorizationModule&#45;&gt;SystemApiModule</title>
<path fill="none" stroke="black" d="M300.99,-104C293.56,-104 288.64,-104 288.64,-104 288.64,-104 288.64,-140.89 288.64,-140.89"/>
<polygon fill="black" stroke="black" points="285.14,-140.89 288.64,-150.89 292.14,-140.89 285.14,-140.89"/>
</g>
<!-- SystemModule -->
<g id="node2" class="node">
<title>SystemModule</title>
<polygon fill="#8dd3c7" stroke="black" points="283.27,-122 280.27,-126 259.27,-126 256.27,-122 182.73,-122 182.73,-86 283.27,-86 283.27,-122"/>
<text text-anchor="middle" x="233" y="-99.8" font-family="Times,serif" font-size="14.00">SystemModule</text>
</g>
<!-- SystemModule&#45;&gt;SystemApiModule -->
<g id="edge2" class="edge">
<title>SystemModule&#45;&gt;SystemApiModule</title>
<path fill="none" stroke="black" d="M233,-122.11C233,-122.11 233,-140.99 233,-140.99"/>
<polygon fill="black" stroke="black" points="229.5,-140.99 233,-150.99 236.5,-140.99 229.5,-140.99"/>
</g>
<!-- SystemUc -->
<g id="node4" class="node">
<title>SystemUc</title>
<ellipse fill="#fdb462" stroke="black" cx="108" cy="-104" rx="50.96" ry="18"/>
<text text-anchor="middle" x="108" y="-99.8" font-family="Times,serif" font-size="14.00">SystemUc</text>
</g>
<!-- SystemUc&#45;&gt;SystemApiModule -->
<g id="edge3" class="edge">
<title>SystemUc&#45;&gt;SystemApiModule</title>
<path fill="none" stroke="black" d="M158.78,-104C169.35,-104 177.36,-104 177.36,-104 177.36,-104 177.36,-140.89 177.36,-140.89"/>
<polygon fill="black" stroke="black" points="173.86,-140.89 177.36,-150.89 180.86,-140.89 173.86,-140.89"/>
</g>
</g>
</svg>
