<?xml version="1.0" encoding="UTF-8" standalone="no"?>
<!DOCTYPE svg PUBLIC "-//W3C//DTD SVG 1.1//EN"
 "http://www.w3.org/Graphics/SVG/1.1/DTD/svg11.dtd">
<!-- Generated by graphviz version 5.0.0 (20220707.1540)
 -->
<!-- Title: dependencies Pages: 1 -->
<svg width="282pt" height="174pt"
 viewBox="0.00 0.00 282.00 173.80" xmlns="http://www.w3.org/2000/svg" xmlns:xlink="http://www.w3.org/1999/xlink">
<g id="graph0" class="graph" transform="scale(1 1) rotate(0) translate(4 169.8)">
<title>dependencies</title>
<polygon fill="white" stroke="transparent" points="-4,4 -4,-169.8 278,-169.8 278,4 -4,4"/>
<text text-anchor="middle" x="137" y="-8.2" font-family="sans-serif" font-size="14.00">dependencies</text>
<g id="clust1" class="cluster">
<title>cluster_SystemApiModule</title>
<polygon fill="none" stroke="black" stroke-dasharray="1,5" points="8,-32.8 8,-157.8 266,-157.8 266,-32.8 8,-32.8"/>
</g>
<g id="clust3" class="cluster">
<title>cluster_SystemApiModule_imports</title>
<polygon fill="none" stroke="black" points="142,-40.8 142,-92.8 258,-92.8 258,-40.8 142,-40.8"/>
</g>
<g id="clust6" class="cluster">
<title>cluster_SystemApiModule_providers</title>
<polygon fill="none" stroke="black" points="16,-40.8 16,-92.8 134,-92.8 134,-40.8 16,-40.8"/>
</g>
<!-- SystemModule -->
<g id="node1" class="node">
<title>SystemModule</title>
<polygon fill="#8dd3c7" stroke="black" points="250.28,-84.8 247.28,-88.8 226.28,-88.8 223.28,-84.8 149.72,-84.8 149.72,-48.8 250.28,-48.8 250.28,-84.8"/>
<text text-anchor="middle" x="200" y="-62.6" font-family="Times,serif" font-size="14.00">SystemModule</text>
</g>
<!-- SystemApiModule -->
<g id="node2" class="node">
<title>SystemApiModule</title>
<polygon fill="#8dd3c7" stroke="black" points="197.78,-149.8 194.78,-153.8 173.78,-153.8 170.78,-149.8 76.22,-149.8 76.22,-113.8 197.78,-113.8 197.78,-149.8"/>
<text text-anchor="middle" x="137" y="-127.6" font-family="Times,serif" font-size="14.00">SystemApiModule</text>
</g>
<!-- SystemModule&#45;&gt;SystemApiModule -->
<g id="edge1" class="edge">
<title>SystemModule&#45;&gt;SystemApiModule</title>
<path fill="none" stroke="black" d="M173.75,-84.91C173.75,-84.91 173.75,-103.79 173.75,-103.79"/>
<polygon fill="black" stroke="black" points="170.25,-103.79 173.75,-113.79 177.25,-103.79 170.25,-103.79"/>
</g>
<!-- SystemUc -->
<g id="node3" class="node">
<title>SystemUc</title>
<ellipse fill="#fdb462" stroke="black" cx="75" cy="-66.8" rx="50.97" ry="18"/>
<text text-anchor="middle" x="75" y="-62.6" font-family="Times,serif" font-size="14.00">SystemUc</text>
</g>
<!-- SystemUc&#45;&gt;SystemApiModule -->
<g id="edge2" class="edge">
<title>SystemUc&#45;&gt;SystemApiModule</title>
<path fill="none" stroke="black" d="M100.92,-82.53C100.92,-82.53 100.92,-103.45 100.92,-103.45"/>
<polygon fill="black" stroke="black" points="97.42,-103.45 100.92,-113.45 104.42,-103.45 97.42,-103.45"/>
</g>
</g>
</svg>
