<?xml version="1.0" encoding="UTF-8" standalone="no"?>
<!DOCTYPE svg PUBLIC "-//W3C//DTD SVG 1.1//EN"
 "http://www.w3.org/Graphics/SVG/1.1/DTD/svg11.dtd">
<!-- Generated by graphviz version 2.47.0 (20210316.0004)
 -->
<!-- Title: dependencies Pages: 1 -->
<svg width="595pt" height="211pt"
 viewBox="0.00 0.00 595.00 211.00" xmlns="http://www.w3.org/2000/svg" xmlns:xlink="http://www.w3.org/1999/xlink">
<g id="graph0" class="graph" transform="scale(1 1) rotate(0) translate(4 207)">
<title>dependencies</title>
<polygon fill="white" stroke="transparent" points="-4,4 -4,-207 591,-207 591,4 -4,4"/>
<text text-anchor="start" x="272.51" y="-42.4" font-family="Times-12" font-weight="bold" font-size="14.00">Legend</text>
<polygon fill="#ffffb3" stroke="transparent" points="59.5,-10 59.5,-30 79.5,-30 79.5,-10 59.5,-10"/>
<text text-anchor="start" x="83.13" y="-15.4" font-family="Times-12" font-size="14.00"> &#160;Declarations</text>
<polygon fill="#8dd3c7" stroke="transparent" points="172.5,-10 172.5,-30 192.5,-30 192.5,-10 172.5,-10"/>
<text text-anchor="start" x="196.23" y="-15.4" font-family="Times-12" font-size="14.00"> &#160;Module</text>
<polygon fill="#80b1d3" stroke="transparent" points="258.5,-10 258.5,-30 278.5,-30 278.5,-10 258.5,-10"/>
<text text-anchor="start" x="282.28" y="-15.4" font-family="Times-12" font-size="14.00"> &#160;Bootstrap</text>
<polygon fill="#fdb462" stroke="transparent" points="355.5,-10 355.5,-30 375.5,-30 375.5,-10 355.5,-10"/>
<text text-anchor="start" x="379.17" y="-15.4" font-family="Times-12" font-size="14.00"> &#160;Providers</text>
<polygon fill="#fb8072" stroke="transparent" points="451.5,-10 451.5,-30 471.5,-30 471.5,-10 451.5,-10"/>
<text text-anchor="start" x="475.23" y="-15.4" font-family="Times-12" font-size="14.00"> &#160;Exports</text>
<g id="clust1" class="cluster">
<title>cluster_SystemApiModule</title>
<polygon fill="none" stroke="black" stroke-dasharray="1,5" points="8,-70 8,-195 579,-195 579,-70 8,-70"/>
</g>
<g id="clust6" class="cluster">
<title>cluster_SystemApiModule_providers</title>
<polygon fill="none" stroke="black" points="453,-78 453,-130 571,-130 571,-78 453,-78"/>
</g>
<g id="clust3" class="cluster">
<title>cluster_SystemApiModule_imports</title>
<polygon fill="none" stroke="black" points="16,-78 16,-130 445,-130 445,-78 16,-78"/>
</g>
<!-- AuthorizationModule -->
<g id="node1" class="node">
<title>AuthorizationModule</title>
<polygon fill="#8dd3c7" stroke="black" points="436.81,-122 433.81,-126 412.81,-126 409.81,-122 299.19,-122 299.19,-86 436.81,-86 436.81,-122"/>
<text text-anchor="middle" x="368" y="-99.8" font-family="Times,serif" font-size="14.00">AuthorizationModule</text>
</g>
<!-- SystemApiModule -->
<g id="node4" class="node">
<title>SystemApiModule</title>
<polygon fill="#8dd3c7" stroke="black" points="350.77,-187 347.77,-191 326.77,-191 323.77,-187 229.23,-187 229.23,-151 350.77,-151 350.77,-187"/>
<text text-anchor="middle" x="290" y="-164.8" font-family="Times,serif" font-size="14.00">SystemApiModule</text>
</g>
<!-- AuthorizationModule&#45;&gt;SystemApiModule -->
<g id="edge1" class="edge">
<title>AuthorizationModule&#45;&gt;SystemApiModule</title>
<path fill="none" stroke="black" d="M325.12,-122.11C325.12,-122.11 325.12,-140.99 325.12,-140.99"/>
<polygon fill="black" stroke="black" points="321.62,-140.99 325.12,-150.99 328.62,-140.99 321.62,-140.99"/>
</g>
<!-- LegacySchoolModule -->
<g id="node2" class="node">
<title>LegacySchoolModule</title>
<polygon fill="#8dd3c7" stroke="black" points="281.63,-122 278.63,-126 257.63,-126 254.63,-122 142.37,-122 142.37,-86 281.63,-86 281.63,-122"/>
<text text-anchor="middle" x="212" y="-99.8" font-family="Times,serif" font-size="14.00">LegacySchoolModule</text>
</g>
<!-- LegacySchoolModule&#45;&gt;SystemApiModule -->
<g id="edge2" class="edge">
<title>LegacySchoolModule&#45;&gt;SystemApiModule</title>
<path fill="none" stroke="black" d="M255.47,-122.11C255.47,-122.11 255.47,-140.99 255.47,-140.99"/>
<polygon fill="black" stroke="black" points="251.97,-140.99 255.47,-150.99 258.97,-140.99 251.97,-140.99"/>
</g>
<!-- SystemModule -->
<g id="node3" class="node">
<title>SystemModule</title>
<polygon fill="#8dd3c7" stroke="black" points="124.27,-122 121.27,-126 100.27,-126 97.27,-122 23.73,-122 23.73,-86 124.27,-86 124.27,-122"/>
<text text-anchor="middle" x="74" y="-99.8" font-family="Times,serif" font-size="14.00">SystemModule</text>
</g>
<!-- SystemModule&#45;&gt;SystemApiModule -->
<g id="edge3" class="edge">
<title>SystemModule&#45;&gt;SystemApiModule</title>
<path fill="none" stroke="black" d="M74,-122.11C74,-141.34 74,-169 74,-169 74,-169 218.97,-169 218.97,-169"/>
<polygon fill="black" stroke="black" points="218.97,-172.5 228.97,-169 218.97,-165.5 218.97,-172.5"/>
</g>
<!-- SystemUc -->
<g id="node5" class="node">
<title>SystemUc</title>
<ellipse fill="#fdb462" stroke="black" cx="512" cy="-104" rx="50.96" ry="18"/>
<text text-anchor="middle" x="512" y="-99.8" font-family="Times,serif" font-size="14.00">SystemUc</text>
</g>
<!-- SystemUc&#45;&gt;SystemApiModule -->
<g id="edge4" class="edge">
<title>SystemUc&#45;&gt;SystemApiModule</title>
<path fill="none" stroke="black" d="M512,-122.11C512,-141.34 512,-169 512,-169 512,-169 360.96,-169 360.96,-169"/>
<polygon fill="black" stroke="black" points="360.96,-165.5 350.96,-169 360.96,-172.5 360.96,-165.5"/>
</g>
</g>
</svg>
