<?xml version="1.0" encoding="UTF-8" standalone="no"?>
<!DOCTYPE svg PUBLIC "-//W3C//DTD SVG 1.1//EN"
 "http://www.w3.org/Graphics/SVG/1.1/DTD/svg11.dtd">
<!-- Generated by graphviz version 2.47.0 (20210316.0004)
 -->
<!-- Title: dependencies Pages: 1 -->
<svg width="595pt" height="211pt"
 viewBox="0.00 0.00 595.00 211.00" xmlns="http://www.w3.org/2000/svg" xmlns:xlink="http://www.w3.org/1999/xlink">
<g id="graph0" class="graph" transform="scale(1 1) rotate(0) translate(4 207)">
<title>dependencies</title>
<polygon fill="white" stroke="transparent" points="-4,4 -4,-207 591,-207 591,4 -4,4"/>
<text text-anchor="start" x="272.51" y="-42.4" font-family="Times-12" font-weight="bold" font-size="14.00">Legend</text>
<polygon fill="#ffffb3" stroke="transparent" points="59.5,-10 59.5,-30 79.5,-30 79.5,-10 59.5,-10"/>
<text text-anchor="start" x="83.13" y="-15.4" font-family="Times-12" font-size="14.00"> &#160;Declarations</text>
<polygon fill="#8dd3c7" stroke="transparent" points="172.5,-10 172.5,-30 192.5,-30 192.5,-10 172.5,-10"/>
<text text-anchor="start" x="196.23" y="-15.4" font-family="Times-12" font-size="14.00"> &#160;Module</text>
<polygon fill="#80b1d3" stroke="transparent" points="258.5,-10 258.5,-30 278.5,-30 278.5,-10 258.5,-10"/>
<text text-anchor="start" x="282.28" y="-15.4" font-family="Times-12" font-size="14.00"> &#160;Bootstrap</text>
<polygon fill="#fdb462" stroke="transparent" points="355.5,-10 355.5,-30 375.5,-30 375.5,-10 355.5,-10"/>
<text text-anchor="start" x="379.17" y="-15.4" font-family="Times-12" font-size="14.00"> &#160;Providers</text>
<polygon fill="#fb8072" stroke="transparent" points="451.5,-10 451.5,-30 471.5,-30 471.5,-10 451.5,-10"/>
<text text-anchor="start" x="475.23" y="-15.4" font-family="Times-12" font-size="14.00"> &#160;Exports</text>
<g id="clust1" class="cluster">
<title>cluster_SystemApiModule</title>
<polygon fill="none" stroke="black" stroke-dasharray="1,5" points="8,-70 8,-195 579,-195 579,-70 8,-70"/>
</g>
<g id="clust3" class="cluster">
<title>cluster_SystemApiModule_imports</title>
<polygon fill="none" stroke="black" points="142,-78 142,-130 571,-130 571,-78 142,-78"/>
</g>
<g id="clust6" class="cluster">
<title>cluster_SystemApiModule_providers</title>
<polygon fill="none" stroke="black" points="16,-78 16,-130 134,-130 134,-78 16,-78"/>
</g>
<!-- AuthorizationModule -->
<g id="node1" class="node">
<title>AuthorizationModule</title>
<polygon fill="#8dd3c7" stroke="black" points="562.81,-122 559.81,-126 538.81,-126 535.81,-122 425.19,-122 425.19,-86 562.81,-86 562.81,-122"/>
<text text-anchor="middle" x="494" y="-99.8" font-family="Times,serif" font-size="14.00">AuthorizationModule</text>
</g>
<!-- SystemApiModule -->
<g id="node4" class="node">
<title>SystemApiModule</title>
<polygon fill="#8dd3c7" stroke="black" points="329.77,-187 326.77,-191 305.77,-191 302.77,-187 208.23,-187 208.23,-151 329.77,-151 329.77,-187"/>
<text text-anchor="middle" x="269" y="-164.8" font-family="Times,serif" font-size="14.00">SystemApiModule</text>
</g>
<!-- AuthorizationModule&#45;&gt;SystemApiModule -->
<g id="edge1" class="edge">
<title>AuthorizationModule&#45;&gt;SystemApiModule</title>
<path fill="none" stroke="black" d="M494,-122.11C494,-141.34 494,-169 494,-169 494,-169 339.89,-169 339.89,-169"/>
<polygon fill="black" stroke="black" points="339.89,-165.5 329.89,-169 339.89,-172.5 339.89,-165.5"/>
</g>
<!-- LegacySchoolModule -->
<g id="node2" class="node">
<title>LegacySchoolModule</title>
<polygon fill="#8dd3c7" stroke="black" points="407.63,-122 404.63,-126 383.63,-126 380.63,-122 268.37,-122 268.37,-86 407.63,-86 407.63,-122"/>
<text text-anchor="middle" x="338" y="-99.8" font-family="Times,serif" font-size="14.00">LegacySchoolModule</text>
</g>
<!-- LegacySchoolModule&#45;&gt;SystemApiModule -->
<g id="edge2" class="edge">
<title>LegacySchoolModule&#45;&gt;SystemApiModule</title>
<path fill="none" stroke="black" d="M299.03,-122.11C299.03,-122.11 299.03,-140.99 299.03,-140.99"/>
<polygon fill="black" stroke="black" points="295.53,-140.99 299.03,-150.99 302.53,-140.99 295.53,-140.99"/>
</g>
<!-- SystemModule -->
<g id="node3" class="node">
<title>SystemModule</title>
<polygon fill="#8dd3c7" stroke="black" points="250.27,-122 247.27,-126 226.27,-126 223.27,-122 149.73,-122 149.73,-86 250.27,-86 250.27,-122"/>
<text text-anchor="middle" x="200" y="-99.8" font-family="Times,serif" font-size="14.00">SystemModule</text>
</g>
<!-- SystemModule&#45;&gt;SystemApiModule -->
<g id="edge3" class="edge">
<title>SystemModule&#45;&gt;SystemApiModule</title>
<path fill="none" stroke="black" d="M229.25,-122.11C229.25,-122.11 229.25,-140.99 229.25,-140.99"/>
<polygon fill="black" stroke="black" points="225.75,-140.99 229.25,-150.99 232.75,-140.99 225.75,-140.99"/>
</g>
<!-- SystemUc -->
<g id="node5" class="node">
<title>SystemUc</title>
<ellipse fill="#fdb462" stroke="black" cx="75" cy="-104" rx="50.96" ry="18"/>
<text text-anchor="middle" x="75" y="-99.8" font-family="Times,serif" font-size="14.00">SystemUc</text>
</g>
<!-- SystemUc&#45;&gt;SystemApiModule -->
<g id="edge4" class="edge">
<title>SystemUc&#45;&gt;SystemApiModule</title>
<path fill="none" stroke="black" d="M75,-122.11C75,-141.34 75,-169 75,-169 75,-169 198.15,-169 198.15,-169"/>
<polygon fill="black" stroke="black" points="198.15,-172.5 208.15,-169 198.15,-165.5 198.15,-172.5"/>
</g>
</g>
</svg>
