<?xml version="1.0" encoding="UTF-8" standalone="no"?>
<!DOCTYPE svg PUBLIC "-//W3C//DTD SVG 1.1//EN"
 "http://www.w3.org/Graphics/SVG/1.1/DTD/svg11.dtd">
<!-- Generated by graphviz version 2.47.0 (20210316.0004)
 -->
<!-- Title: dependencies Pages: 1 -->
<svg width="832pt" height="211pt"
 viewBox="0.00 0.00 832.00 211.00" xmlns="http://www.w3.org/2000/svg" xmlns:xlink="http://www.w3.org/1999/xlink">
<g id="graph0" class="graph" transform="scale(1 1) rotate(0) translate(4 207)">
<title>dependencies</title>
<polygon fill="white" stroke="transparent" points="-4,4 -4,-207 828,-207 828,4 -4,4"/>
<text text-anchor="start" x="391.01" y="-42.4" font-family="Times-12" font-weight="bold" font-size="14.00">Legend</text>
<polygon fill="#ffffb3" stroke="transparent" points="178,-10 178,-30 198,-30 198,-10 178,-10"/>
<text text-anchor="start" x="201.63" y="-15.4" font-family="Times-12" font-size="14.00"> &#160;Declarations</text>
<polygon fill="#8dd3c7" stroke="transparent" points="291,-10 291,-30 311,-30 311,-10 291,-10"/>
<text text-anchor="start" x="314.73" y="-15.4" font-family="Times-12" font-size="14.00"> &#160;Module</text>
<polygon fill="#80b1d3" stroke="transparent" points="377,-10 377,-30 397,-30 397,-10 377,-10"/>
<text text-anchor="start" x="400.78" y="-15.4" font-family="Times-12" font-size="14.00"> &#160;Bootstrap</text>
<polygon fill="#fdb462" stroke="transparent" points="474,-10 474,-30 494,-30 494,-10 474,-10"/>
<text text-anchor="start" x="497.67" y="-15.4" font-family="Times-12" font-size="14.00"> &#160;Providers</text>
<polygon fill="#fb8072" stroke="transparent" points="570,-10 570,-30 590,-30 590,-10 570,-10"/>
<text text-anchor="start" x="593.73" y="-15.4" font-family="Times-12" font-size="14.00"> &#160;Exports</text>
<g id="clust1" class="cluster">
<title>cluster_FilesStorageApiModule</title>
<polygon fill="none" stroke="black" stroke-dasharray="1,5" points="8,-70 8,-195 816,-195 816,-70 8,-70"/>
</g>
<g id="clust6" class="cluster">
<title>cluster_FilesStorageApiModule_providers</title>
<polygon fill="none" stroke="black" points="646,-78 646,-130 808,-130 808,-78 646,-78"/>
</g>
<g id="clust3" class="cluster">
<title>cluster_FilesStorageApiModule_imports</title>
<polygon fill="none" stroke="black" points="16,-78 16,-130 638,-130 638,-78 16,-78"/>
</g>
<!-- AuthenticationModule -->
<g id="node1" class="node">
<title>AuthenticationModule</title>
<polygon fill="#8dd3c7" stroke="black" points="630.25,-122 627.25,-126 606.25,-126 603.25,-122 487.75,-122 487.75,-86 630.25,-86 630.25,-122"/>
<text text-anchor="middle" x="559" y="-99.8" font-family="Times,serif" font-size="14.00">AuthenticationModule</text>
</g>
<!-- FilesStorageApiModule -->
<g id="node5" class="node">
<title>FilesStorageApiModule</title>
<polygon fill="#8dd3c7" stroke="black" points="448.03,-187 445.03,-191 424.03,-191 421.03,-187 297.97,-187 297.97,-151 448.03,-151 448.03,-187"/>
<text text-anchor="middle" x="373" y="-164.8" font-family="Times,serif" font-size="14.00">FilesStorageApiModule</text>
</g>
<!-- AuthenticationModule&#45;&gt;FilesStorageApiModule -->
<g id="edge1" class="edge">
<title>AuthenticationModule&#45;&gt;FilesStorageApiModule</title>
<path fill="none" stroke="black" d="M559,-122.02C559,-139.37 559,-163 559,-163 559,-163 458.12,-163 458.12,-163"/>
<polygon fill="black" stroke="black" points="458.12,-159.5 448.12,-163 458.12,-166.5 458.12,-159.5"/>
</g>
<!-- AuthorizationReferenceModule -->
<g id="node2" class="node">
<title>AuthorizationReferenceModule</title>
<polygon fill="#8dd3c7" stroke="black" points="470.04,-122 467.04,-126 446.04,-126 443.04,-122 275.96,-122 275.96,-86 470.04,-86 470.04,-122"/>
<text text-anchor="middle" x="373" y="-99.8" font-family="Times,serif" font-size="14.00">AuthorizationReferenceModule</text>
</g>
<!-- AuthorizationReferenceModule&#45;&gt;FilesStorageApiModule -->
<g id="edge2" class="edge">
<title>AuthorizationReferenceModule&#45;&gt;FilesStorageApiModule</title>
<path fill="none" stroke="black" d="M373,-122.11C373,-122.11 373,-140.99 373,-140.99"/>
<polygon fill="black" stroke="black" points="369.5,-140.99 373,-150.99 376.5,-140.99 369.5,-140.99"/>
</g>
<!-- CoreModule -->
<g id="node3" class="node">
<title>CoreModule</title>
<polygon fill="#8dd3c7" stroke="black" points="258.26,-122 255.26,-126 234.26,-126 231.26,-122 171.74,-122 171.74,-86 258.26,-86 258.26,-122"/>
<text text-anchor="middle" x="215" y="-99.8" font-family="Times,serif" font-size="14.00">CoreModule</text>
</g>
<!-- CoreModule&#45;&gt;FilesStorageApiModule -->
<g id="edge3" class="edge">
<title>CoreModule&#45;&gt;FilesStorageApiModule</title>
<path fill="none" stroke="black" d="M215,-122.02C215,-139.37 215,-163 215,-163 215,-163 287.7,-163 287.7,-163"/>
<polygon fill="black" stroke="black" points="287.7,-166.5 297.7,-163 287.7,-159.5 287.7,-166.5"/>
</g>
<!-- FilesStorageModule -->
<g id="node4" class="node">
<title>FilesStorageModule</title>
<polygon fill="#8dd3c7" stroke="black" points="153.54,-122 150.54,-126 129.54,-126 126.54,-122 24.46,-122 24.46,-86 153.54,-86 153.54,-122"/>
<text text-anchor="middle" x="89" y="-99.8" font-family="Times,serif" font-size="14.00">FilesStorageModule</text>
</g>
<!-- FilesStorageModule&#45;&gt;FilesStorageApiModule -->
<g id="edge4" class="edge">
<title>FilesStorageModule&#45;&gt;FilesStorageApiModule</title>
<path fill="none" stroke="black" d="M89,-122.28C89,-143.32 89,-175 89,-175 89,-175 287.64,-175 287.64,-175"/>
<polygon fill="black" stroke="black" points="287.64,-178.5 297.64,-175 287.64,-171.5 287.64,-178.5"/>
</g>
<!-- FilesStorageUC -->
<g id="node6" class="node">
<title>FilesStorageUC</title>
<ellipse fill="#fdb462" stroke="black" cx="727" cy="-104" rx="72.95" ry="18"/>
<text text-anchor="middle" x="727" y="-99.8" font-family="Times,serif" font-size="14.00">FilesStorageUC</text>
</g>
<!-- FilesStorageUC&#45;&gt;FilesStorageApiModule -->
<g id="edge5" class="edge">
<title>FilesStorageUC&#45;&gt;FilesStorageApiModule</title>
<path fill="none" stroke="black" d="M727,-122.28C727,-143.32 727,-175 727,-175 727,-175 458.07,-175 458.07,-175"/>
<polygon fill="black" stroke="black" points="458.07,-171.5 448.07,-175 458.07,-178.5 458.07,-171.5"/>
</g>
</g>
</svg>
