<?xml version="1.0" encoding="UTF-8" standalone="no"?>
<!DOCTYPE svg PUBLIC "-//W3C//DTD SVG 1.1//EN"
 "http://www.w3.org/Graphics/SVG/1.1/DTD/svg11.dtd">
<!-- Generated by graphviz version 5.0.0 (20220707.1540)
 -->
<!-- Title: dependencies Pages: 1 -->
<svg width="776pt" height="174pt"
 viewBox="0.00 0.00 776.00 173.80" xmlns="http://www.w3.org/2000/svg" xmlns:xlink="http://www.w3.org/1999/xlink">
<g id="graph0" class="graph" transform="scale(1 1) rotate(0) translate(4 169.8)">
<title>dependencies</title>
<polygon fill="white" stroke="transparent" points="-4,4 -4,-169.8 772,-169.8 772,4 -4,4"/>
<text text-anchor="middle" x="384" y="-8.2" font-family="sans-serif" font-size="14.00">dependencies</text>
<g id="clust1" class="cluster">
<title>cluster_FilesStorageApiModule</title>
<polygon fill="none" stroke="black" stroke-dasharray="1,5" points="8,-32.8 8,-157.8 760,-157.8 760,-32.8 8,-32.8"/>
</g>
<g id="clust6" class="cluster">
<title>cluster_FilesStorageApiModule_providers</title>
<polygon fill="none" stroke="black" points="590,-40.8 590,-92.8 752,-92.8 752,-40.8 590,-40.8"/>
</g>
<g id="clust3" class="cluster">
<title>cluster_FilesStorageApiModule_imports</title>
<polygon fill="none" stroke="black" points="16,-40.8 16,-92.8 582,-92.8 582,-40.8 16,-40.8"/>
</g>
<!-- AuthenticationModule -->
<g id="node1" class="node">
<title>AuthenticationModule</title>
<polygon fill="#8dd3c7" stroke="black" points="574.25,-84.8 571.25,-88.8 550.25,-88.8 547.25,-84.8 431.75,-84.8 431.75,-48.8 574.25,-48.8 574.25,-84.8"/>
<text text-anchor="middle" x="503" y="-62.6" font-family="Times,serif" font-size="14.00">AuthenticationModule</text>
</g>
<!-- FilesStorageApiModule -->
<g id="node5" class="node">
<title>FilesStorageApiModule</title>
<polygon fill="#8dd3c7" stroke="black" points="420.05,-149.8 417.05,-153.8 396.05,-153.8 393.05,-149.8 269.95,-149.8 269.95,-113.8 420.05,-113.8 420.05,-149.8"/>
<text text-anchor="middle" x="345" y="-127.6" font-family="Times,serif" font-size="14.00">FilesStorageApiModule</text>
</g>
<!-- AuthenticationModule&#45;&gt;FilesStorageApiModule -->
<g id="edge1" class="edge">
<title>AuthenticationModule&#45;&gt;FilesStorageApiModule</title>
<path fill="none" stroke="black" d="M503,-84.82C503,-102.17 503,-125.8 503,-125.8 503,-125.8 430.3,-125.8 430.3,-125.8"/>
<polygon fill="black" stroke="black" points="430.3,-122.3 420.3,-125.8 430.3,-129.3 430.3,-122.3"/>
</g>
<!-- AuthorizationModule -->
<g id="node2" class="node">
<title>AuthorizationModule</title>
<polygon fill="#8dd3c7" stroke="black" points="413.81,-84.8 410.81,-88.8 389.81,-88.8 386.81,-84.8 276.19,-84.8 276.19,-48.8 413.81,-48.8 413.81,-84.8"/>
<text text-anchor="middle" x="345" y="-62.6" font-family="Times,serif" font-size="14.00">AuthorizationModule</text>
</g>
<!-- AuthorizationModule&#45;&gt;FilesStorageApiModule -->
<g id="edge2" class="edge">
<title>AuthorizationModule&#45;&gt;FilesStorageApiModule</title>
<path fill="none" stroke="black" d="M345,-84.91C345,-84.91 345,-103.79 345,-103.79"/>
<polygon fill="black" stroke="black" points="341.5,-103.79 345,-113.79 348.5,-103.79 341.5,-103.79"/>
</g>
<!-- CoreModule -->
<g id="node3" class="node">
<title>CoreModule</title>
<polygon fill="#8dd3c7" stroke="black" points="258.27,-84.8 255.27,-88.8 234.27,-88.8 231.27,-84.8 171.73,-84.8 171.73,-48.8 258.27,-48.8 258.27,-84.8"/>
<text text-anchor="middle" x="215" y="-62.6" font-family="Times,serif" font-size="14.00">CoreModule</text>
</g>
<!-- CoreModule&#45;&gt;FilesStorageApiModule -->
<g id="edge3" class="edge">
<title>CoreModule&#45;&gt;FilesStorageApiModule</title>
<path fill="none" stroke="black" d="M215,-84.82C215,-102.17 215,-125.8 215,-125.8 215,-125.8 259.75,-125.8 259.75,-125.8"/>
<polygon fill="black" stroke="black" points="259.75,-129.3 269.75,-125.8 259.75,-122.3 259.75,-129.3"/>
</g>
<!-- FilesStorageModule -->
<g id="node4" class="node">
<title>FilesStorageModule</title>
<polygon fill="#8dd3c7" stroke="black" points="153.55,-84.8 150.55,-88.8 129.55,-88.8 126.55,-84.8 24.45,-84.8 24.45,-48.8 153.55,-48.8 153.55,-84.8"/>
<text text-anchor="middle" x="89" y="-62.6" font-family="Times,serif" font-size="14.00">FilesStorageModule</text>
</g>
<!-- FilesStorageModule&#45;&gt;FilesStorageApiModule -->
<g id="edge4" class="edge">
<title>FilesStorageModule&#45;&gt;FilesStorageApiModule</title>
<path fill="none" stroke="black" d="M89,-85.08C89,-106.12 89,-137.8 89,-137.8 89,-137.8 259.92,-137.8 259.92,-137.8"/>
<polygon fill="black" stroke="black" points="259.92,-141.3 269.92,-137.8 259.92,-134.3 259.92,-141.3"/>
</g>
<!-- FilesStorageUC -->
<g id="node6" class="node">
<title>FilesStorageUC</title>
<ellipse fill="#fdb462" stroke="black" cx="671" cy="-66.8" rx="72.96" ry="18"/>
<text text-anchor="middle" x="671" y="-62.6" font-family="Times,serif" font-size="14.00">FilesStorageUC</text>
</g>
<!-- FilesStorageUC&#45;&gt;FilesStorageApiModule -->
<g id="edge5" class="edge">
<title>FilesStorageUC&#45;&gt;FilesStorageApiModule</title>
<path fill="none" stroke="black" d="M671,-85.08C671,-106.12 671,-137.8 671,-137.8 671,-137.8 430.2,-137.8 430.2,-137.8"/>
<polygon fill="black" stroke="black" points="430.2,-134.3 420.2,-137.8 430.2,-141.3 430.2,-134.3"/>
</g>
</g>
</svg>
