<?xml version="1.0" encoding="UTF-8" standalone="no"?>
<!DOCTYPE svg PUBLIC "-//W3C//DTD SVG 1.1//EN"
 "http://www.w3.org/Graphics/SVG/1.1/DTD/svg11.dtd">
<!-- Generated by graphviz version 2.47.0 (20210316.0004)
 -->
<!-- Title: dependencies Pages: 1 -->
<svg width="776pt" height="211pt"
 viewBox="0.00 0.00 776.00 211.00" xmlns="http://www.w3.org/2000/svg" xmlns:xlink="http://www.w3.org/1999/xlink">
<g id="graph0" class="graph" transform="scale(1 1) rotate(0) translate(4 207)">
<title>dependencies</title>
<polygon fill="white" stroke="transparent" points="-4,4 -4,-207 772,-207 772,4 -4,4"/>
<text text-anchor="start" x="363.01" y="-42.4" font-family="Times-12" font-weight="bold" font-size="14.00">Legend</text>
<polygon fill="#ffffb3" stroke="transparent" points="150,-10 150,-30 170,-30 170,-10 150,-10"/>
<text text-anchor="start" x="173.63" y="-15.4" font-family="Times-12" font-size="14.00"> &#160;Declarations</text>
<polygon fill="#8dd3c7" stroke="transparent" points="263,-10 263,-30 283,-30 283,-10 263,-10"/>
<text text-anchor="start" x="286.73" y="-15.4" font-family="Times-12" font-size="14.00"> &#160;Module</text>
<polygon fill="#80b1d3" stroke="transparent" points="349,-10 349,-30 369,-30 369,-10 349,-10"/>
<text text-anchor="start" x="372.78" y="-15.4" font-family="Times-12" font-size="14.00"> &#160;Bootstrap</text>
<polygon fill="#fdb462" stroke="transparent" points="446,-10 446,-30 466,-30 466,-10 446,-10"/>
<text text-anchor="start" x="469.67" y="-15.4" font-family="Times-12" font-size="14.00"> &#160;Providers</text>
<polygon fill="#fb8072" stroke="transparent" points="542,-10 542,-30 562,-30 562,-10 542,-10"/>
<text text-anchor="start" x="565.73" y="-15.4" font-family="Times-12" font-size="14.00"> &#160;Exports</text>
<g id="clust1" class="cluster">
<title>cluster_FilesStorageApiModule</title>
<polygon fill="none" stroke="black" stroke-dasharray="1,5" points="8,-70 8,-195 760,-195 760,-70 8,-70"/>
</g>
<g id="clust6" class="cluster">
<title>cluster_FilesStorageApiModule_providers</title>
<polygon fill="none" stroke="black" points="590,-78 590,-130 752,-130 752,-78 590,-78"/>
</g>
<g id="clust3" class="cluster">
<title>cluster_FilesStorageApiModule_imports</title>
<polygon fill="none" stroke="black" points="16,-78 16,-130 582,-130 582,-78 16,-78"/>
</g>
<!-- AuthenticationModule -->
<g id="node1" class="node">
<title>AuthenticationModule</title>
<polygon fill="#8dd3c7" stroke="black" points="574.25,-122 571.25,-126 550.25,-126 547.25,-122 431.75,-122 431.75,-86 574.25,-86 574.25,-122"/>
<text text-anchor="middle" x="503" y="-99.8" font-family="Times,serif" font-size="14.00">AuthenticationModule</text>
</g>
<!-- FilesStorageApiModule -->
<g id="node5" class="node">
<title>FilesStorageApiModule</title>
<polygon fill="#8dd3c7" stroke="black" points="420.03,-187 417.03,-191 396.03,-191 393.03,-187 269.97,-187 269.97,-151 420.03,-151 420.03,-187"/>
<text text-anchor="middle" x="345" y="-164.8" font-family="Times,serif" font-size="14.00">FilesStorageApiModule</text>
</g>
<!-- AuthenticationModule&#45;&gt;FilesStorageApiModule -->
<g id="edge1" class="edge">
<title>AuthenticationModule&#45;&gt;FilesStorageApiModule</title>
<path fill="none" stroke="black" d="M503,-122.02C503,-139.37 503,-163 503,-163 503,-163 430.3,-163 430.3,-163"/>
<polygon fill="black" stroke="black" points="430.3,-159.5 420.3,-163 430.3,-166.5 430.3,-159.5"/>
</g>
<!-- AuthorizationModule -->
<g id="node2" class="node">
<title>AuthorizationModule</title>
<polygon fill="#8dd3c7" stroke="black" points="413.81,-122 410.81,-126 389.81,-126 386.81,-122 276.19,-122 276.19,-86 413.81,-86 413.81,-122"/>
<text text-anchor="middle" x="345" y="-99.8" font-family="Times,serif" font-size="14.00">AuthorizationModule</text>
</g>
<!-- AuthorizationModule&#45;&gt;FilesStorageApiModule -->
<g id="edge2" class="edge">
<title>AuthorizationModule&#45;&gt;FilesStorageApiModule</title>
<path fill="none" stroke="black" d="M345,-122.11C345,-122.11 345,-140.99 345,-140.99"/>
<polygon fill="black" stroke="black" points="341.5,-140.99 345,-150.99 348.5,-140.99 341.5,-140.99"/>
</g>
<!-- CoreModule -->
<g id="node3" class="node">
<title>CoreModule</title>
<polygon fill="#8dd3c7" stroke="black" points="258.26,-122 255.26,-126 234.26,-126 231.26,-122 171.74,-122 171.74,-86 258.26,-86 258.26,-122"/>
<text text-anchor="middle" x="215" y="-99.8" font-family="Times,serif" font-size="14.00">CoreModule</text>
</g>
<!-- CoreModule&#45;&gt;FilesStorageApiModule -->
<g id="edge3" class="edge">
<title>CoreModule&#45;&gt;FilesStorageApiModule</title>
<path fill="none" stroke="black" d="M215,-122.02C215,-139.37 215,-163 215,-163 215,-163 259.75,-163 259.75,-163"/>
<polygon fill="black" stroke="black" points="259.75,-166.5 269.75,-163 259.75,-159.5 259.75,-166.5"/>
</g>
<!-- FilesStorageModule -->
<g id="node4" class="node">
<title>FilesStorageModule</title>
<polygon fill="#8dd3c7" stroke="black" points="153.54,-122 150.54,-126 129.54,-126 126.54,-122 24.46,-122 24.46,-86 153.54,-86 153.54,-122"/>
<text text-anchor="middle" x="89" y="-99.8" font-family="Times,serif" font-size="14.00">FilesStorageModule</text>
</g>
<!-- FilesStorageModule&#45;&gt;FilesStorageApiModule -->
<g id="edge4" class="edge">
<title>FilesStorageModule&#45;&gt;FilesStorageApiModule</title>
<path fill="none" stroke="black" d="M89,-122.28C89,-143.32 89,-175 89,-175 89,-175 259.92,-175 259.92,-175"/>
<polygon fill="black" stroke="black" points="259.92,-178.5 269.92,-175 259.92,-171.5 259.92,-178.5"/>
</g>
<!-- FilesStorageUC -->
<g id="node6" class="node">
<title>FilesStorageUC</title>
<ellipse fill="#fdb462" stroke="black" cx="671" cy="-104" rx="72.95" ry="18"/>
<text text-anchor="middle" x="671" y="-99.8" font-family="Times,serif" font-size="14.00">FilesStorageUC</text>
</g>
<!-- FilesStorageUC&#45;&gt;FilesStorageApiModule -->
<g id="edge5" class="edge">
<title>FilesStorageUC&#45;&gt;FilesStorageApiModule</title>
<path fill="none" stroke="black" d="M671,-122.28C671,-143.32 671,-175 671,-175 671,-175 430.2,-175 430.2,-175"/>
<polygon fill="black" stroke="black" points="430.2,-171.5 420.2,-175 430.2,-178.5 430.2,-171.5"/>
</g>
</g>
</svg>
