<?xml version="1.0" encoding="UTF-8" standalone="no"?>
<!DOCTYPE svg PUBLIC "-//W3C//DTD SVG 1.1//EN"
 "http://www.w3.org/Graphics/SVG/1.1/DTD/svg11.dtd">
<!-- Generated by graphviz version 5.0.0 (20220707.1540)
 -->
<!-- Title: dependencies Pages: 1 -->
<svg width="776pt" height="174pt"
 viewBox="0.00 0.00 776.00 173.80" xmlns="http://www.w3.org/2000/svg" xmlns:xlink="http://www.w3.org/1999/xlink">
<g id="graph0" class="graph" transform="scale(1 1) rotate(0) translate(4 169.8)">
<title>dependencies</title>
<polygon fill="white" stroke="transparent" points="-4,4 -4,-169.8 772,-169.8 772,4 -4,4"/>
<text text-anchor="middle" x="384" y="-8.2" font-family="sans-serif" font-size="14.00">dependencies</text>
<g id="clust1" class="cluster">
<title>cluster_FilesStorageApiModule</title>
<polygon fill="none" stroke="black" stroke-dasharray="1,5" points="8,-32.8 8,-157.8 760,-157.8 760,-32.8 8,-32.8"/>
</g>
<g id="clust3" class="cluster">
<title>cluster_FilesStorageApiModule_imports</title>
<polygon fill="none" stroke="black" points="186,-40.8 186,-92.8 752,-92.8 752,-40.8 186,-40.8"/>
</g>
<g id="clust6" class="cluster">
<title>cluster_FilesStorageApiModule_providers</title>
<polygon fill="none" stroke="black" points="16,-40.8 16,-92.8 178,-92.8 178,-40.8 16,-40.8"/>
</g>
<!-- AuthenticationModule -->
<g id="node1" class="node">
<title>AuthenticationModule</title>
<polygon fill="#8dd3c7" stroke="black" points="744.25,-84.8 741.25,-88.8 720.25,-88.8 717.25,-84.8 601.75,-84.8 601.75,-48.8 744.25,-48.8 744.25,-84.8"/>
<text text-anchor="middle" x="673" y="-62.6" font-family="Times,serif" font-size="14.00">AuthenticationModule</text>
</g>
<!-- FilesStorageApiModule -->
<g id="node5" class="node">
<title>FilesStorageApiModule</title>
<polygon fill="#8dd3c7" stroke="black" points="460.05,-149.8 457.05,-153.8 436.05,-153.8 433.05,-149.8 309.95,-149.8 309.95,-113.8 460.05,-113.8 460.05,-149.8"/>
<text text-anchor="middle" x="385" y="-127.6" font-family="Times,serif" font-size="14.00">FilesStorageApiModule</text>
</g>
<!-- AuthenticationModule&#45;&gt;FilesStorageApiModule -->
<g id="edge1" class="edge">
<title>AuthenticationModule&#45;&gt;FilesStorageApiModule</title>
<path fill="none" stroke="black" d="M673,-84.91C673,-104.14 673,-131.8 673,-131.8 673,-131.8 470.29,-131.8 470.29,-131.8"/>
<polygon fill="black" stroke="black" points="470.29,-128.3 460.29,-131.8 470.29,-135.3 470.29,-128.3"/>
</g>
<!-- AuthorizationModule -->
<g id="node2" class="node">
<title>AuthorizationModule</title>
<polygon fill="#8dd3c7" stroke="black" points="583.81,-84.8 580.81,-88.8 559.81,-88.8 556.81,-84.8 446.19,-84.8 446.19,-48.8 583.81,-48.8 583.81,-84.8"/>
<text text-anchor="middle" x="515" y="-62.6" font-family="Times,serif" font-size="14.00">AuthorizationModule</text>
</g>
<!-- AuthorizationModule&#45;&gt;FilesStorageApiModule -->
<g id="edge2" class="edge">
<title>AuthorizationModule&#45;&gt;FilesStorageApiModule</title>
<path fill="none" stroke="black" d="M453.31,-84.91C453.31,-84.91 453.31,-103.79 453.31,-103.79"/>
<polygon fill="black" stroke="black" points="449.81,-103.79 453.31,-113.79 456.81,-103.79 449.81,-103.79"/>
</g>
<!-- CoreModule -->
<g id="node3" class="node">
<title>CoreModule</title>
<polygon fill="#8dd3c7" stroke="black" points="428.27,-84.8 425.27,-88.8 404.27,-88.8 401.27,-84.8 341.73,-84.8 341.73,-48.8 428.27,-48.8 428.27,-84.8"/>
<text text-anchor="middle" x="385" y="-62.6" font-family="Times,serif" font-size="14.00">CoreModule</text>
</g>
<!-- CoreModule&#45;&gt;FilesStorageApiModule -->
<g id="edge3" class="edge">
<title>CoreModule&#45;&gt;FilesStorageApiModule</title>
<path fill="none" stroke="black" d="M385,-84.91C385,-84.91 385,-103.79 385,-103.79"/>
<polygon fill="black" stroke="black" points="381.5,-103.79 385,-113.79 388.5,-103.79 381.5,-103.79"/>
</g>
<!-- FilesStorageModule -->
<g id="node4" class="node">
<title>FilesStorageModule</title>
<polygon fill="#8dd3c7" stroke="black" points="323.55,-84.8 320.55,-88.8 299.55,-88.8 296.55,-84.8 194.45,-84.8 194.45,-48.8 323.55,-48.8 323.55,-84.8"/>
<text text-anchor="middle" x="259" y="-62.6" font-family="Times,serif" font-size="14.00">FilesStorageModule</text>
</g>
<!-- FilesStorageModule&#45;&gt;FilesStorageApiModule -->
<g id="edge4" class="edge">
<title>FilesStorageModule&#45;&gt;FilesStorageApiModule</title>
<path fill="none" stroke="black" d="M316.75,-84.91C316.75,-84.91 316.75,-103.79 316.75,-103.79"/>
<polygon fill="black" stroke="black" points="313.25,-103.79 316.75,-113.79 320.25,-103.79 313.25,-103.79"/>
</g>
<!-- FilesStorageUC -->
<g id="node6" class="node">
<title>FilesStorageUC</title>
<ellipse fill="#fdb462" stroke="black" cx="97" cy="-66.8" rx="72.96" ry="18"/>
<text text-anchor="middle" x="97" y="-62.6" font-family="Times,serif" font-size="14.00">FilesStorageUC</text>
</g>
<!-- FilesStorageUC&#45;&gt;FilesStorageApiModule -->
<g id="edge5" class="edge">
<title>FilesStorageUC&#45;&gt;FilesStorageApiModule</title>
<path fill="none" stroke="black" d="M97,-84.91C97,-104.14 97,-131.8 97,-131.8 97,-131.8 299.71,-131.8 299.71,-131.8"/>
<polygon fill="black" stroke="black" points="299.71,-135.3 309.71,-131.8 299.71,-128.3 299.71,-135.3"/>
</g>
</g>
</svg>
