<?xml version="1.0" encoding="UTF-8" standalone="no"?>
<!DOCTYPE svg PUBLIC "-//W3C//DTD SVG 1.1//EN"
 "http://www.w3.org/Graphics/SVG/1.1/DTD/svg11.dtd">
<!-- Generated by graphviz version 2.47.0 (20210316.0004)
 -->
<!-- Title: dependencies Pages: 1 -->
<svg width="832pt" height="211pt"
 viewBox="0.00 0.00 832.00 211.00" xmlns="http://www.w3.org/2000/svg" xmlns:xlink="http://www.w3.org/1999/xlink">
<g id="graph0" class="graph" transform="scale(1 1) rotate(0) translate(4 207)">
<title>dependencies</title>
<polygon fill="white" stroke="transparent" points="-4,4 -4,-207 828,-207 828,4 -4,4"/>
<text text-anchor="start" x="391.01" y="-42.4" font-family="Times-12" font-weight="bold" font-size="14.00">Legend</text>
<polygon fill="#ffffb3" stroke="transparent" points="178,-10 178,-30 198,-30 198,-10 178,-10"/>
<text text-anchor="start" x="201.63" y="-15.4" font-family="Times-12" font-size="14.00"> &#160;Declarations</text>
<polygon fill="#8dd3c7" stroke="transparent" points="291,-10 291,-30 311,-30 311,-10 291,-10"/>
<text text-anchor="start" x="314.73" y="-15.4" font-family="Times-12" font-size="14.00"> &#160;Module</text>
<polygon fill="#80b1d3" stroke="transparent" points="377,-10 377,-30 397,-30 397,-10 377,-10"/>
<text text-anchor="start" x="400.78" y="-15.4" font-family="Times-12" font-size="14.00"> &#160;Bootstrap</text>
<polygon fill="#fdb462" stroke="transparent" points="474,-10 474,-30 494,-30 494,-10 474,-10"/>
<text text-anchor="start" x="497.67" y="-15.4" font-family="Times-12" font-size="14.00"> &#160;Providers</text>
<polygon fill="#fb8072" stroke="transparent" points="570,-10 570,-30 590,-30 590,-10 570,-10"/>
<text text-anchor="start" x="593.73" y="-15.4" font-family="Times-12" font-size="14.00"> &#160;Exports</text>
<g id="clust1" class="cluster">
<title>cluster_FilesStorageApiModule</title>
<polygon fill="none" stroke="black" stroke-dasharray="1,5" points="8,-70 8,-195 816,-195 816,-70 8,-70"/>
</g>
<g id="clust3" class="cluster">
<title>cluster_FilesStorageApiModule_imports</title>
<polygon fill="none" stroke="black" points="186,-78 186,-130 808,-130 808,-78 186,-78"/>
</g>
<g id="clust6" class="cluster">
<title>cluster_FilesStorageApiModule_providers</title>
<polygon fill="none" stroke="black" points="16,-78 16,-130 178,-130 178,-78 16,-78"/>
</g>
<!-- AuthenticationModule -->
<g id="node1" class="node">
<title>AuthenticationModule</title>
<polygon fill="#8dd3c7" stroke="black" points="800.25,-122 797.25,-126 776.25,-126 773.25,-122 657.75,-122 657.75,-86 800.25,-86 800.25,-122"/>
<text text-anchor="middle" x="729" y="-99.8" font-family="Times,serif" font-size="14.00">AuthenticationModule</text>
</g>
<!-- FilesStorageApiModule -->
<g id="node5" class="node">
<title>FilesStorageApiModule</title>
<polygon fill="#8dd3c7" stroke="black" points="460.03,-187 457.03,-191 436.03,-191 433.03,-187 309.97,-187 309.97,-151 460.03,-151 460.03,-187"/>
<text text-anchor="middle" x="385" y="-164.8" font-family="Times,serif" font-size="14.00">FilesStorageApiModule</text>
</g>
<!-- AuthenticationModule&#45;&gt;FilesStorageApiModule -->
<g id="edge1" class="edge">
<title>AuthenticationModule&#45;&gt;FilesStorageApiModule</title>
<path fill="none" stroke="black" d="M729,-122.11C729,-141.34 729,-169 729,-169 729,-169 470.07,-169 470.07,-169"/>
<polygon fill="black" stroke="black" points="470.07,-165.5 460.07,-169 470.07,-172.5 470.07,-165.5"/>
</g>
<!-- AuthorizationReferenceModule -->
<g id="node2" class="node">
<title>AuthorizationReferenceModule</title>
<polygon fill="#8dd3c7" stroke="black" points="640.04,-122 637.04,-126 616.04,-126 613.04,-122 445.96,-122 445.96,-86 640.04,-86 640.04,-122"/>
<text text-anchor="middle" x="543" y="-99.8" font-family="Times,serif" font-size="14.00">AuthorizationReferenceModule</text>
</g>
<!-- AuthorizationReferenceModule&#45;&gt;FilesStorageApiModule -->
<g id="edge2" class="edge">
<title>AuthorizationReferenceModule&#45;&gt;FilesStorageApiModule</title>
<path fill="none" stroke="black" d="M453.12,-122.11C453.12,-122.11 453.12,-140.99 453.12,-140.99"/>
<polygon fill="black" stroke="black" points="449.62,-140.99 453.12,-150.99 456.62,-140.99 449.62,-140.99"/>
</g>
<!-- CoreModule -->
<g id="node3" class="node">
<title>CoreModule</title>
<polygon fill="#8dd3c7" stroke="black" points="428.26,-122 425.26,-126 404.26,-126 401.26,-122 341.74,-122 341.74,-86 428.26,-86 428.26,-122"/>
<text text-anchor="middle" x="385" y="-99.8" font-family="Times,serif" font-size="14.00">CoreModule</text>
</g>
<!-- CoreModule&#45;&gt;FilesStorageApiModule -->
<g id="edge3" class="edge">
<title>CoreModule&#45;&gt;FilesStorageApiModule</title>
<path fill="none" stroke="black" d="M385,-122.11C385,-122.11 385,-140.99 385,-140.99"/>
<polygon fill="black" stroke="black" points="381.5,-140.99 385,-150.99 388.5,-140.99 381.5,-140.99"/>
</g>
<!-- FilesStorageModule -->
<g id="node4" class="node">
<title>FilesStorageModule</title>
<polygon fill="#8dd3c7" stroke="black" points="323.54,-122 320.54,-126 299.54,-126 296.54,-122 194.46,-122 194.46,-86 323.54,-86 323.54,-122"/>
<text text-anchor="middle" x="259" y="-99.8" font-family="Times,serif" font-size="14.00">FilesStorageModule</text>
</g>
<!-- FilesStorageModule&#45;&gt;FilesStorageApiModule -->
<g id="edge4" class="edge">
<title>FilesStorageModule&#45;&gt;FilesStorageApiModule</title>
<path fill="none" stroke="black" d="M316.75,-122.11C316.75,-122.11 316.75,-140.99 316.75,-140.99"/>
<polygon fill="black" stroke="black" points="313.25,-140.99 316.75,-150.99 320.25,-140.99 313.25,-140.99"/>
</g>
<!-- FilesStorageUC -->
<g id="node6" class="node">
<title>FilesStorageUC</title>
<ellipse fill="#fdb462" stroke="black" cx="97" cy="-104" rx="72.95" ry="18"/>
<text text-anchor="middle" x="97" y="-99.8" font-family="Times,serif" font-size="14.00">FilesStorageUC</text>
</g>
<!-- FilesStorageUC&#45;&gt;FilesStorageApiModule -->
<g id="edge5" class="edge">
<title>FilesStorageUC&#45;&gt;FilesStorageApiModule</title>
<path fill="none" stroke="black" d="M97,-122.11C97,-141.34 97,-169 97,-169 97,-169 299.71,-169 299.71,-169"/>
<polygon fill="black" stroke="black" points="299.71,-172.5 309.71,-169 299.71,-165.5 299.71,-172.5"/>
</g>
</g>
</svg>
