<?xml version="1.0" encoding="UTF-8" standalone="no"?>
<!DOCTYPE svg PUBLIC "-//W3C//DTD SVG 1.1//EN"
 "http://www.w3.org/Graphics/SVG/1.1/DTD/svg11.dtd">
<!-- Generated by graphviz version 2.47.0 (20210316.0004)
 -->
<!-- Title: dependencies Pages: 1 -->
<svg width="504pt" height="211pt"
 viewBox="0.00 0.00 504.00 211.00" xmlns="http://www.w3.org/2000/svg" xmlns:xlink="http://www.w3.org/1999/xlink">
<g id="graph0" class="graph" transform="scale(1 1) rotate(0) translate(4 207)">
<title>dependencies</title>
<polygon fill="white" stroke="transparent" points="-4,4 -4,-207 500,-207 500,4 -4,4"/>
<text text-anchor="start" x="227.01" y="-42.4" font-family="Times-12" font-weight="bold" font-size="14.00">Legend</text>
<polygon fill="#ffffb3" stroke="transparent" points="14,-10 14,-30 34,-30 34,-10 14,-10"/>
<text text-anchor="start" x="37.63" y="-15.4" font-family="Times-12" font-size="14.00"> &#160;Declarations</text>
<polygon fill="#8dd3c7" stroke="transparent" points="127,-10 127,-30 147,-30 147,-10 127,-10"/>
<text text-anchor="start" x="150.73" y="-15.4" font-family="Times-12" font-size="14.00"> &#160;Module</text>
<polygon fill="#80b1d3" stroke="transparent" points="213,-10 213,-30 233,-30 233,-10 213,-10"/>
<text text-anchor="start" x="236.78" y="-15.4" font-family="Times-12" font-size="14.00"> &#160;Bootstrap</text>
<polygon fill="#fdb462" stroke="transparent" points="310,-10 310,-30 330,-30 330,-10 310,-10"/>
<text text-anchor="start" x="333.67" y="-15.4" font-family="Times-12" font-size="14.00"> &#160;Providers</text>
<polygon fill="#fb8072" stroke="transparent" points="406,-10 406,-30 426,-30 426,-10 406,-10"/>
<text text-anchor="start" x="429.73" y="-15.4" font-family="Times-12" font-size="14.00"> &#160;Exports</text>
<g id="clust1" class="cluster">
<title>cluster_InternalServerTestModule</title>
<polygon fill="none" stroke="black" stroke-dasharray="1,5" points="64,-70 64,-195 432,-195 432,-70 64,-70"/>
</g>
<g id="clust3" class="cluster">
<title>cluster_InternalServerTestModule_imports</title>
<polygon fill="none" stroke="black" points="72,-78 72,-130 424,-130 424,-78 72,-78"/>
</g>
<!-- HealthApiModule -->
<g id="node1" class="node">
<title>HealthApiModule</title>
<polygon fill="#8dd3c7" stroke="black" points="415.86,-122 412.86,-126 391.86,-126 388.86,-122 298.14,-122 298.14,-86 415.86,-86 415.86,-122"/>
<text text-anchor="middle" x="357" y="-99.8" font-family="Times,serif" font-size="14.00">HealthApiModule</text>
</g>
<!-- InternalServerTestModule -->
<g id="node3" class="node">
<title>InternalServerTestModule</title>
<polygon fill="#8dd3c7" stroke="black" points="342.72,-187 339.72,-191 318.72,-191 315.72,-187 179.28,-187 179.28,-151 342.72,-151 342.72,-187"/>
<text text-anchor="middle" x="261" y="-164.8" font-family="Times,serif" font-size="14.00">InternalServerTestModule</text>
</g>
<!-- HealthApiModule&#45;&gt;InternalServerTestModule -->
<g id="edge1" class="edge">
<title>HealthApiModule&#45;&gt;InternalServerTestModule</title>
<path fill="none" stroke="black" d="M320.46,-122.11C320.46,-122.11 320.46,-140.99 320.46,-140.99"/>
<polygon fill="black" stroke="black" points="316.96,-140.99 320.46,-150.99 323.96,-140.99 316.96,-140.99"/>
</g>
<!-- MongoMemoryDatabaseModule -->
<g id="node2" class="node">
<title>MongoMemoryDatabaseModule</title>
<polygon fill="#8dd3c7" stroke="black" points="279.51,-122 276.51,-126 255.51,-126 252.51,-122 80.49,-122 80.49,-86 279.51,-86 279.51,-122"/>
<text text-anchor="middle" x="180" y="-99.8" font-family="Times,serif" font-size="14.00">MongoMemoryDatabaseModule</text>
</g>
<!-- MongoMemoryDatabaseModule&#45;&gt;InternalServerTestModule -->
<g id="edge2" class="edge">
<title>MongoMemoryDatabaseModule&#45;&gt;InternalServerTestModule</title>
<path fill="none" stroke="black" d="M229.45,-122.11C229.45,-122.11 229.45,-140.99 229.45,-140.99"/>
<polygon fill="black" stroke="black" points="225.95,-140.99 229.45,-150.99 232.95,-140.99 225.95,-140.99"/>
</g>
</g>
</svg>
