<?xml version="1.0" encoding="UTF-8" standalone="no"?>
<!DOCTYPE svg PUBLIC "-//W3C//DTD SVG 1.1//EN"
 "http://www.w3.org/Graphics/SVG/1.1/DTD/svg11.dtd">
<!-- Generated by graphviz version 2.47.0 (20210316.0004)
 -->
<!-- Title: dependencies Pages: 1 -->
<svg width="526pt" height="284pt"
 viewBox="0.00 0.00 526.00 284.00" xmlns="http://www.w3.org/2000/svg" xmlns:xlink="http://www.w3.org/1999/xlink">
<g id="graph0" class="graph" transform="scale(1 1) rotate(0) translate(4 280)">
<title>dependencies</title>
<polygon fill="white" stroke="transparent" points="-4,4 -4,-280 522,-280 522,4 -4,4"/>
<text text-anchor="start" x="238.01" y="-42.4" font-family="Times-12" font-weight="bold" font-size="14.00">Legend</text>
<polygon fill="#ffffb3" stroke="transparent" points="25,-10 25,-30 45,-30 45,-10 25,-10"/>
<text text-anchor="start" x="48.63" y="-15.4" font-family="Times-12" font-size="14.00"> &#160;Declarations</text>
<polygon fill="#8dd3c7" stroke="transparent" points="138,-10 138,-30 158,-30 158,-10 138,-10"/>
<text text-anchor="start" x="161.73" y="-15.4" font-family="Times-12" font-size="14.00"> &#160;Module</text>
<polygon fill="#80b1d3" stroke="transparent" points="224,-10 224,-30 244,-30 244,-10 224,-10"/>
<text text-anchor="start" x="247.78" y="-15.4" font-family="Times-12" font-size="14.00"> &#160;Bootstrap</text>
<polygon fill="#fdb462" stroke="transparent" points="321,-10 321,-30 341,-30 341,-10 321,-10"/>
<text text-anchor="start" x="344.67" y="-15.4" font-family="Times-12" font-size="14.00"> &#160;Providers</text>
<polygon fill="#fb8072" stroke="transparent" points="417,-10 417,-30 437,-30 437,-10 417,-10"/>
<text text-anchor="start" x="440.73" y="-15.4" font-family="Times-12" font-size="14.00"> &#160;Exports</text>
<g id="clust1" class="cluster">
<title>cluster_IdentityManagementModule</title>
<polygon fill="none" stroke="black" stroke-dasharray="1,5" points="8,-70 8,-268 510,-268 510,-70 8,-70"/>
</g>
<g id="clust3" class="cluster">
<title>cluster_IdentityManagementModule_imports</title>
<polygon fill="none" stroke="black" points="16,-78 16,-130 502,-130 502,-78 16,-78"/>
</g>
<g id="clust4" class="cluster">
<title>cluster_IdentityManagementModule_exports</title>
<polygon fill="none" stroke="black" points="47,-208 47,-260 471,-260 471,-208 47,-208"/>
</g>
<!-- EncryptionModule -->
<g id="node1" class="node">
<title>EncryptionModule</title>
<polygon fill="#8dd3c7" stroke="black" points="493.76,-122 490.76,-126 469.76,-126 466.76,-122 372.24,-122 372.24,-86 493.76,-86 493.76,-122"/>
<text text-anchor="middle" x="433" y="-99.8" font-family="Times,serif" font-size="14.00">EncryptionModule</text>
</g>
<!-- IdentityManagementModule -->
<g id="node4" class="node">
<title>IdentityManagementModule</title>
<polygon fill="#8dd3c7" stroke="black" points="343.18,-187 340.18,-191 319.18,-191 316.18,-187 166.82,-187 166.82,-151 343.18,-151 343.18,-187"/>
<text text-anchor="middle" x="255" y="-164.8" font-family="Times,serif" font-size="14.00">IdentityManagementModule</text>
</g>
<!-- EncryptionModule&#45;&gt;IdentityManagementModule -->
<g id="edge1" class="edge">
<title>EncryptionModule&#45;&gt;IdentityManagementModule</title>
<path fill="none" stroke="black" d="M417.64,-122.11C417.64,-141.34 417.64,-169 417.64,-169 417.64,-169 353.46,-169 353.46,-169"/>
<polygon fill="black" stroke="black" points="353.46,-165.5 343.46,-169 353.46,-172.5 353.46,-165.5"/>
</g>
<!-- KeycloakAdministrationModule -->
<g id="node2" class="node">
<title>KeycloakAdministrationModule</title>
<polygon fill="#8dd3c7" stroke="black" points="353.96,-122 350.96,-126 329.96,-126 326.96,-122 156.04,-122 156.04,-86 353.96,-86 353.96,-122"/>
<text text-anchor="middle" x="255" y="-99.8" font-family="Times,serif" font-size="14.00">KeycloakAdministrationModule</text>
</g>
<!-- KeycloakAdministrationModule&#45;&gt;IdentityManagementModule -->
<g id="edge2" class="edge">
<title>KeycloakAdministrationModule&#45;&gt;IdentityManagementModule</title>
<path fill="none" stroke="black" d="M255,-122.11C255,-122.11 255,-140.99 255,-140.99"/>
<polygon fill="black" stroke="black" points="251.5,-140.99 255,-150.99 258.5,-140.99 251.5,-140.99"/>
</g>
<!-- KeycloakModule -->
<g id="node3" class="node">
<title>KeycloakModule</title>
<polygon fill="#8dd3c7" stroke="black" points="137.69,-122 134.69,-126 113.69,-126 110.69,-122 24.31,-122 24.31,-86 137.69,-86 137.69,-122"/>
<text text-anchor="middle" x="81" y="-99.8" font-family="Times,serif" font-size="14.00">KeycloakModule</text>
</g>
<!-- KeycloakModule&#45;&gt;IdentityManagementModule -->
<g id="edge3" class="edge">
<title>KeycloakModule&#45;&gt;IdentityManagementModule</title>
<path fill="none" stroke="black" d="M96.27,-122.11C96.27,-141.34 96.27,-169 96.27,-169 96.27,-169 156.82,-169 156.82,-169"/>
<polygon fill="black" stroke="black" points="156.82,-172.5 166.82,-169 156.82,-165.5 156.82,-172.5"/>
</g>
<!-- IdentityManagementOauthService  -->
<g id="node5" class="node">
<title>IdentityManagementOauthService </title>
<polygon fill="#fb8072" stroke="black" points="463.32,-252 250.68,-252 250.68,-216 463.32,-216 463.32,-252"/>
<text text-anchor="middle" x="357" y="-229.8" font-family="Times,serif" font-size="14.00">IdentityManagementOauthService </text>
</g>
<!-- IdentityManagementModule&#45;&gt;IdentityManagementOauthService  -->
<g id="edge4" class="edge">
<title>IdentityManagementModule&#45;&gt;IdentityManagementOauthService </title>
<path fill="none" stroke="black" stroke-dasharray="5,2" d="M296.97,-187.11C296.97,-187.11 296.97,-205.99 296.97,-205.99"/>
<polygon fill="black" stroke="black" points="293.47,-205.99 296.97,-215.99 300.47,-205.99 293.47,-205.99"/>
</g>
<!-- IdentityManagementService  -->
<g id="node6" class="node">
<title>IdentityManagementService </title>
<polygon fill="#fb8072" stroke="black" points="233.11,-252 54.89,-252 54.89,-216 233.11,-216 233.11,-252"/>
<text text-anchor="middle" x="144" y="-229.8" font-family="Times,serif" font-size="14.00">IdentityManagementService </text>
</g>
<!-- IdentityManagementModule&#45;&gt;IdentityManagementService  -->
<g id="edge5" class="edge">
<title>IdentityManagementModule&#45;&gt;IdentityManagementService </title>
<path fill="none" stroke="black" stroke-dasharray="5,2" d="M199.98,-187.11C199.98,-187.11 199.98,-205.99 199.98,-205.99"/>
<polygon fill="black" stroke="black" points="196.48,-205.99 199.98,-215.99 203.48,-205.99 196.48,-205.99"/>
</g>
</g>
</svg>
