<?xml version="1.0" encoding="UTF-8" standalone="no"?>
<!DOCTYPE svg PUBLIC "-//W3C//DTD SVG 1.1//EN"
 "http://www.w3.org/Graphics/SVG/1.1/DTD/svg11.dtd">
<!-- Generated by graphviz version 5.0.0 (20220707.1540)
 -->
<!-- Title: dependencies Pages: 1 -->
<svg width="526pt" height="247pt"
 viewBox="0.00 0.00 526.00 246.80" xmlns="http://www.w3.org/2000/svg" xmlns:xlink="http://www.w3.org/1999/xlink">
<g id="graph0" class="graph" transform="scale(1 1) rotate(0) translate(4 242.8)">
<title>dependencies</title>
<polygon fill="white" stroke="transparent" points="-4,4 -4,-242.8 522,-242.8 522,4 -4,4"/>
<text text-anchor="middle" x="259" y="-8.2" font-family="sans-serif" font-size="14.00">dependencies</text>
<g id="clust1" class="cluster">
<title>cluster_IdentityManagementModule</title>
<polygon fill="none" stroke="black" stroke-dasharray="1,5" points="8,-32.8 8,-230.8 510,-230.8 510,-32.8 8,-32.8"/>
</g>
<g id="clust4" class="cluster">
<title>cluster_IdentityManagementModule_exports</title>
<polygon fill="none" stroke="black" points="47,-170.8 47,-222.8 471,-222.8 471,-170.8 47,-170.8"/>
</g>
<g id="clust3" class="cluster">
<title>cluster_IdentityManagementModule_imports</title>
<polygon fill="none" stroke="black" points="16,-40.8 16,-92.8 502,-92.8 502,-40.8 16,-40.8"/>
</g>
<!-- EncryptionModule -->
<g id="node1" class="node">
<title>EncryptionModule</title>
<polygon fill="#8dd3c7" stroke="black" points="493.76,-84.8 490.76,-88.8 469.76,-88.8 466.76,-84.8 372.24,-84.8 372.24,-48.8 493.76,-48.8 493.76,-84.8"/>
<text text-anchor="middle" x="433" y="-62.6" font-family="Times,serif" font-size="14.00">EncryptionModule</text>
</g>
<!-- IdentityManagementModule -->
<g id="node4" class="node">
<title>IdentityManagementModule</title>
<polygon fill="#8dd3c7" stroke="black" points="343.18,-149.8 340.18,-153.8 319.18,-153.8 316.18,-149.8 166.82,-149.8 166.82,-113.8 343.18,-113.8 343.18,-149.8"/>
<text text-anchor="middle" x="255" y="-127.6" font-family="Times,serif" font-size="14.00">IdentityManagementModule</text>
</g>
<!-- EncryptionModule&#45;&gt;IdentityManagementModule -->
<g id="edge1" class="edge">
<title>EncryptionModule&#45;&gt;IdentityManagementModule</title>
<path fill="none" stroke="black" d="M417.64,-84.91C417.64,-104.14 417.64,-131.8 417.64,-131.8 417.64,-131.8 353.46,-131.8 353.46,-131.8"/>
<polygon fill="black" stroke="black" points="353.46,-128.3 343.46,-131.8 353.46,-135.3 353.46,-128.3"/>
</g>
<!-- KeycloakAdministrationModule -->
<g id="node2" class="node">
<title>KeycloakAdministrationModule</title>
<polygon fill="#8dd3c7" stroke="black" points="353.97,-84.8 350.97,-88.8 329.97,-88.8 326.97,-84.8 156.03,-84.8 156.03,-48.8 353.97,-48.8 353.97,-84.8"/>
<text text-anchor="middle" x="255" y="-62.6" font-family="Times,serif" font-size="14.00">KeycloakAdministrationModule</text>
</g>
<!-- KeycloakAdministrationModule&#45;&gt;IdentityManagementModule -->
<g id="edge2" class="edge">
<title>KeycloakAdministrationModule&#45;&gt;IdentityManagementModule</title>
<path fill="none" stroke="black" d="M255,-84.91C255,-84.91 255,-103.79 255,-103.79"/>
<polygon fill="black" stroke="black" points="251.5,-103.79 255,-113.79 258.5,-103.79 251.5,-103.79"/>
</g>
<!-- KeycloakModule -->
<g id="node3" class="node">
<title>KeycloakModule</title>
<polygon fill="#8dd3c7" stroke="black" points="137.69,-84.8 134.69,-88.8 113.69,-88.8 110.69,-84.8 24.31,-84.8 24.31,-48.8 137.69,-48.8 137.69,-84.8"/>
<text text-anchor="middle" x="81" y="-62.6" font-family="Times,serif" font-size="14.00">KeycloakModule</text>
</g>
<!-- KeycloakModule&#45;&gt;IdentityManagementModule -->
<g id="edge3" class="edge">
<title>KeycloakModule&#45;&gt;IdentityManagementModule</title>
<path fill="none" stroke="black" d="M96.27,-84.91C96.27,-104.14 96.27,-131.8 96.27,-131.8 96.27,-131.8 156.82,-131.8 156.82,-131.8"/>
<polygon fill="black" stroke="black" points="156.82,-135.3 166.82,-131.8 156.82,-128.3 156.82,-135.3"/>
</g>
<!-- IdentityManagementOauthService  -->
<g id="node5" class="node">
<title>IdentityManagementOauthService </title>
<polygon fill="#fb8072" stroke="black" points="463.32,-214.8 250.68,-214.8 250.68,-178.8 463.32,-178.8 463.32,-214.8"/>
<text text-anchor="middle" x="357" y="-192.6" font-family="Times,serif" font-size="14.00">IdentityManagementOauthService </text>
</g>
<!-- IdentityManagementModule&#45;&gt;IdentityManagementOauthService  -->
<g id="edge4" class="edge">
<title>IdentityManagementModule&#45;&gt;IdentityManagementOauthService </title>
<path fill="none" stroke="black" stroke-dasharray="5,2" d="M296.96,-149.91C296.96,-149.91 296.96,-168.79 296.96,-168.79"/>
<polygon fill="black" stroke="black" points="293.46,-168.79 296.96,-178.79 300.46,-168.79 293.46,-168.79"/>
</g>
<!-- IdentityManagementService  -->
<g id="node6" class="node">
<title>IdentityManagementService </title>
<polygon fill="#fb8072" stroke="black" points="233.11,-214.8 54.89,-214.8 54.89,-178.8 233.11,-178.8 233.11,-214.8"/>
<text text-anchor="middle" x="144" y="-192.6" font-family="Times,serif" font-size="14.00">IdentityManagementService </text>
</g>
<!-- IdentityManagementModule&#45;&gt;IdentityManagementService  -->
<g id="edge5" class="edge">
<title>IdentityManagementModule&#45;&gt;IdentityManagementService </title>
<path fill="none" stroke="black" stroke-dasharray="5,2" d="M199.98,-149.91C199.98,-149.91 199.98,-168.79 199.98,-168.79"/>
<polygon fill="black" stroke="black" points="196.48,-168.79 199.98,-178.79 203.48,-168.79 196.48,-168.79"/>
</g>
</g>
</svg>
