<?xml version="1.0" encoding="UTF-8" standalone="no"?>
<!DOCTYPE svg PUBLIC "-//W3C//DTD SVG 1.1//EN"
 "http://www.w3.org/Graphics/SVG/1.1/DTD/svg11.dtd">
<!-- Generated by graphviz version 2.47.0 (20210316.0004)
 -->
<!-- Title: dependencies Pages: 1 -->
<svg width="644pt" height="284pt"
 viewBox="0.00 0.00 644.00 284.00" xmlns="http://www.w3.org/2000/svg" xmlns:xlink="http://www.w3.org/1999/xlink">
<g id="graph0" class="graph" transform="scale(1 1) rotate(0) translate(4 280)">
<title>dependencies</title>
<polygon fill="white" stroke="transparent" points="-4,4 -4,-280 640,-280 640,4 -4,4"/>
<text text-anchor="start" x="297.01" y="-42.4" font-family="Times-12" font-weight="bold" font-size="14.00">Legend</text>
<polygon fill="#ffffb3" stroke="transparent" points="84,-10 84,-30 104,-30 104,-10 84,-10"/>
<text text-anchor="start" x="107.63" y="-15.4" font-family="Times-12" font-size="14.00"> &#160;Declarations</text>
<polygon fill="#8dd3c7" stroke="transparent" points="197,-10 197,-30 217,-30 217,-10 197,-10"/>
<text text-anchor="start" x="220.73" y="-15.4" font-family="Times-12" font-size="14.00"> &#160;Module</text>
<polygon fill="#80b1d3" stroke="transparent" points="283,-10 283,-30 303,-30 303,-10 283,-10"/>
<text text-anchor="start" x="306.78" y="-15.4" font-family="Times-12" font-size="14.00"> &#160;Bootstrap</text>
<polygon fill="#fdb462" stroke="transparent" points="380,-10 380,-30 400,-30 400,-10 380,-10"/>
<text text-anchor="start" x="403.67" y="-15.4" font-family="Times-12" font-size="14.00"> &#160;Providers</text>
<polygon fill="#fb8072" stroke="transparent" points="476,-10 476,-30 496,-30 496,-10 476,-10"/>
<text text-anchor="start" x="499.73" y="-15.4" font-family="Times-12" font-size="14.00"> &#160;Exports</text>
<g id="clust1" class="cluster">
<title>cluster_IdentityManagementModule</title>
<polygon fill="none" stroke="black" stroke-dasharray="1,5" points="8,-70 8,-268 628,-268 628,-70 8,-70"/>
</g>
<g id="clust3" class="cluster">
<title>cluster_IdentityManagementModule_imports</title>
<polygon fill="none" stroke="black" points="16,-78 16,-130 620,-130 620,-78 16,-78"/>
</g>
<g id="clust4" class="cluster">
<title>cluster_IdentityManagementModule_exports</title>
<polygon fill="none" stroke="black" points="83,-208 83,-260 507,-260 507,-208 83,-208"/>
</g>
<!-- EncryptionModule -->
<g id="node1" class="node">
<title>EncryptionModule</title>
<polygon fill="#8dd3c7" stroke="black" points="611.76,-122 608.76,-126 587.76,-126 584.76,-122 490.24,-122 490.24,-86 611.76,-86 611.76,-122"/>
<text text-anchor="middle" x="551" y="-99.8" font-family="Times,serif" font-size="14.00">EncryptionModule</text>
</g>
<!-- IdentityManagementModule -->
<g id="node5" class="node">
<title>IdentityManagementModule</title>
<polygon fill="#8dd3c7" stroke="black" points="334.18,-187 331.18,-191 310.18,-191 307.18,-187 157.82,-187 157.82,-151 334.18,-151 334.18,-187"/>
<text text-anchor="middle" x="246" y="-164.8" font-family="Times,serif" font-size="14.00">IdentityManagementModule</text>
</g>
<!-- EncryptionModule&#45;&gt;IdentityManagementModule -->
<g id="edge1" class="edge">
<title>EncryptionModule&#45;&gt;IdentityManagementModule</title>
<path fill="none" stroke="black" d="M494.64,-122.11C494.64,-141.34 494.64,-169 494.64,-169 494.64,-169 344.36,-169 344.36,-169"/>
<polygon fill="black" stroke="black" points="344.36,-165.5 334.36,-169 344.36,-172.5 344.36,-165.5"/>
</g>
<!-- KeycloakAdministrationModule -->
<g id="node2" class="node">
<title>KeycloakAdministrationModule</title>
<polygon fill="#8dd3c7" stroke="black" points="471.96,-122 468.96,-126 447.96,-126 444.96,-122 274.04,-122 274.04,-86 471.96,-86 471.96,-122"/>
<text text-anchor="middle" x="373" y="-99.8" font-family="Times,serif" font-size="14.00">KeycloakAdministrationModule</text>
</g>
<!-- KeycloakAdministrationModule&#45;&gt;IdentityManagementModule -->
<g id="edge2" class="edge">
<title>KeycloakAdministrationModule&#45;&gt;IdentityManagementModule</title>
<path fill="none" stroke="black" d="M304.06,-122.11C304.06,-122.11 304.06,-140.99 304.06,-140.99"/>
<polygon fill="black" stroke="black" points="300.56,-140.99 304.06,-150.99 307.56,-140.99 300.56,-140.99"/>
</g>
<!-- KeycloakModule -->
<g id="node3" class="node">
<title>KeycloakModule</title>
<polygon fill="#8dd3c7" stroke="black" points="255.69,-122 252.69,-126 231.69,-126 228.69,-122 142.31,-122 142.31,-86 255.69,-86 255.69,-122"/>
<text text-anchor="middle" x="199" y="-99.8" font-family="Times,serif" font-size="14.00">KeycloakModule</text>
</g>
<!-- KeycloakModule&#45;&gt;IdentityManagementModule -->
<g id="edge3" class="edge">
<title>KeycloakModule&#45;&gt;IdentityManagementModule</title>
<path fill="none" stroke="black" d="M206.75,-122.11C206.75,-122.11 206.75,-140.99 206.75,-140.99"/>
<polygon fill="black" stroke="black" points="203.25,-140.99 206.75,-150.99 210.25,-140.99 203.25,-140.99"/>
</g>
<!-- LoggerModule -->
<g id="node4" class="node">
<title>LoggerModule</title>
<polygon fill="#8dd3c7" stroke="black" points="123.98,-122 120.98,-126 99.98,-126 96.98,-122 24.02,-122 24.02,-86 123.98,-86 123.98,-122"/>
<text text-anchor="middle" x="74" y="-99.8" font-family="Times,serif" font-size="14.00">LoggerModule</text>
</g>
<!-- LoggerModule&#45;&gt;IdentityManagementModule -->
<g id="edge4" class="edge">
<title>LoggerModule&#45;&gt;IdentityManagementModule</title>
<path fill="none" stroke="black" d="M107.47,-122.11C107.47,-141.34 107.47,-169 107.47,-169 107.47,-169 147.87,-169 147.87,-169"/>
<polygon fill="black" stroke="black" points="147.87,-172.5 157.87,-169 147.87,-165.5 147.87,-172.5"/>
</g>
<!-- IdentityManagementOauthService  -->
<g id="node6" class="node">
<title>IdentityManagementOauthService </title>
<polygon fill="#fb8072" stroke="black" points="499.32,-252 286.68,-252 286.68,-216 499.32,-216 499.32,-252"/>
<text text-anchor="middle" x="393" y="-229.8" font-family="Times,serif" font-size="14.00">IdentityManagementOauthService </text>
</g>
<!-- IdentityManagementModule&#45;&gt;IdentityManagementOauthService  -->
<g id="edge5" class="edge">
<title>IdentityManagementModule&#45;&gt;IdentityManagementOauthService </title>
<path fill="none" stroke="black" stroke-dasharray="5,2" d="M310.47,-187.11C310.47,-187.11 310.47,-205.99 310.47,-205.99"/>
<polygon fill="black" stroke="black" points="306.97,-205.99 310.47,-215.99 313.97,-205.99 306.97,-205.99"/>
</g>
<!-- IdentityManagementService  -->
<g id="node7" class="node">
<title>IdentityManagementService </title>
<polygon fill="#fb8072" stroke="black" points="269.11,-252 90.89,-252 90.89,-216 269.11,-216 269.11,-252"/>
<text text-anchor="middle" x="180" y="-229.8" font-family="Times,serif" font-size="14.00">IdentityManagementService </text>
</g>
<!-- IdentityManagementModule&#45;&gt;IdentityManagementService  -->
<g id="edge6" class="edge">
<title>IdentityManagementModule&#45;&gt;IdentityManagementService </title>
<path fill="none" stroke="black" stroke-dasharray="5,2" d="M213.48,-187.11C213.48,-187.11 213.48,-205.99 213.48,-205.99"/>
<polygon fill="black" stroke="black" points="209.98,-205.99 213.48,-215.99 216.98,-205.99 209.98,-205.99"/>
</g>
</g>
</svg>
