<?xml version="1.0" encoding="UTF-8" standalone="no"?>
<!DOCTYPE svg PUBLIC "-//W3C//DTD SVG 1.1//EN"
 "http://www.w3.org/Graphics/SVG/1.1/DTD/svg11.dtd">
<!-- Generated by graphviz version 2.47.0 (20210316.0004)
 -->
<!-- Title: dependencies Pages: 1 -->
<svg width="504pt" height="211pt"
 viewBox="0.00 0.00 504.00 211.00" xmlns="http://www.w3.org/2000/svg" xmlns:xlink="http://www.w3.org/1999/xlink">
<g id="graph0" class="graph" transform="scale(1 1) rotate(0) translate(4 207)">
<title>dependencies</title>
<polygon fill="white" stroke="transparent" points="-4,4 -4,-207 500,-207 500,4 -4,4"/>
<text text-anchor="start" x="227.01" y="-42.4" font-family="Times-12" font-weight="bold" font-size="14.00">Legend</text>
<polygon fill="#ffffb3" stroke="transparent" points="14,-10 14,-30 34,-30 34,-10 14,-10"/>
<text text-anchor="start" x="37.63" y="-15.4" font-family="Times-12" font-size="14.00"> &#160;Declarations</text>
<polygon fill="#8dd3c7" stroke="transparent" points="127,-10 127,-30 147,-30 147,-10 127,-10"/>
<text text-anchor="start" x="150.73" y="-15.4" font-family="Times-12" font-size="14.00"> &#160;Module</text>
<polygon fill="#80b1d3" stroke="transparent" points="213,-10 213,-30 233,-30 233,-10 213,-10"/>
<text text-anchor="start" x="236.78" y="-15.4" font-family="Times-12" font-size="14.00"> &#160;Bootstrap</text>
<polygon fill="#fdb462" stroke="transparent" points="310,-10 310,-30 330,-30 330,-10 310,-10"/>
<text text-anchor="start" x="333.67" y="-15.4" font-family="Times-12" font-size="14.00"> &#160;Providers</text>
<polygon fill="#fb8072" stroke="transparent" points="406,-10 406,-30 426,-30 426,-10 406,-10"/>
<text text-anchor="start" x="429.73" y="-15.4" font-family="Times-12" font-size="14.00"> &#160;Exports</text>
<g id="clust1" class="cluster">
<title>cluster_S3ClientModule</title>
<polygon fill="none" stroke="black" stroke-dasharray="1,5" points="94,-70 94,-195 402,-195 402,-70 94,-70"/>
</g>
<g id="clust3" class="cluster">
<title>cluster_S3ClientModule_imports</title>
<polygon fill="none" stroke="black" points="278,-78 278,-130 394,-130 394,-78 278,-78"/>
</g>
<g id="clust6" class="cluster">
<title>cluster_S3ClientModule_providers</title>
<polygon fill="none" stroke="black" points="102,-78 102,-130 270,-130 270,-78 102,-78"/>
</g>
<!-- LoggerModule -->
<g id="node1" class="node">
<title>LoggerModule</title>
<polygon fill="#8dd3c7" stroke="black" points="385.98,-122 382.98,-126 361.98,-126 358.98,-122 286.02,-122 286.02,-86 385.98,-86 385.98,-122"/>
<text text-anchor="middle" x="336" y="-99.8" font-family="Times,serif" font-size="14.00">LoggerModule</text>
</g>
<!-- S3ClientModule -->
<g id="node2" class="node">
<title>S3ClientModule</title>
<polygon fill="#8dd3c7" stroke="black" points="315.06,-187 312.06,-191 291.06,-191 288.06,-187 206.94,-187 206.94,-151 315.06,-151 315.06,-187"/>
<text text-anchor="middle" x="261" y="-164.8" font-family="Times,serif" font-size="14.00">S3ClientModule</text>
</g>
<!-- LoggerModule&#45;&gt;S3ClientModule -->
<g id="edge1" class="edge">
<title>LoggerModule&#45;&gt;S3ClientModule</title>
<path fill="none" stroke="black" d="M300.64,-122.11C300.64,-122.11 300.64,-140.99 300.64,-140.99"/>
<polygon fill="black" stroke="black" points="297.14,-140.99 300.64,-150.99 304.14,-140.99 297.14,-140.99"/>
</g>
<!-- S3ClientAdapter -->
<g id="node3" class="node">
<title>S3ClientAdapter</title>
<ellipse fill="#fdb462" stroke="black" cx="186" cy="-104" rx="75.88" ry="18"/>
<text text-anchor="middle" x="186" y="-99.8" font-family="Times,serif" font-size="14.00">S3ClientAdapter</text>
</g>
<!-- S3ClientAdapter&#45;&gt;S3ClientModule -->
<g id="edge2" class="edge">
<title>S3ClientAdapter&#45;&gt;S3ClientModule</title>
<path fill="none" stroke="black" d="M234.33,-118.1C234.33,-118.1 234.33,-140.72 234.33,-140.72"/>
<polygon fill="black" stroke="black" points="230.83,-140.72 234.33,-150.72 237.83,-140.72 230.83,-140.72"/>
</g>
</g>
</svg>
