<?xml version="1.0" encoding="UTF-8" standalone="no"?>
<!DOCTYPE svg PUBLIC "-//W3C//DTD SVG 1.1//EN"
 "http://www.w3.org/Graphics/SVG/1.1/DTD/svg11.dtd">
<!-- Generated by graphviz version 2.47.0 (20210316.0004)
 -->
<!-- Title: dependencies Pages: 1 -->
<svg width="1122pt" height="211pt"
 viewBox="0.00 0.00 1122.00 211.00" xmlns="http://www.w3.org/2000/svg" xmlns:xlink="http://www.w3.org/1999/xlink">
<g id="graph0" class="graph" transform="scale(1 1) rotate(0) translate(4 207)">
<title>dependencies</title>
<polygon fill="white" stroke="transparent" points="-4,4 -4,-207 1118,-207 1118,4 -4,4"/>
<text text-anchor="start" x="536.01" y="-42.4" font-family="Times-12" font-weight="bold" font-size="14.00">Legend</text>
<polygon fill="#ffffb3" stroke="transparent" points="323,-10 323,-30 343,-30 343,-10 323,-10"/>
<text text-anchor="start" x="346.63" y="-15.4" font-family="Times-12" font-size="14.00"> &#160;Declarations</text>
<polygon fill="#8dd3c7" stroke="transparent" points="436,-10 436,-30 456,-30 456,-10 436,-10"/>
<text text-anchor="start" x="459.73" y="-15.4" font-family="Times-12" font-size="14.00"> &#160;Module</text>
<polygon fill="#80b1d3" stroke="transparent" points="522,-10 522,-30 542,-30 542,-10 522,-10"/>
<text text-anchor="start" x="545.78" y="-15.4" font-family="Times-12" font-size="14.00"> &#160;Bootstrap</text>
<polygon fill="#fdb462" stroke="transparent" points="619,-10 619,-30 639,-30 639,-10 619,-10"/>
<text text-anchor="start" x="642.67" y="-15.4" font-family="Times-12" font-size="14.00"> &#160;Providers</text>
<polygon fill="#fb8072" stroke="transparent" points="715,-10 715,-30 735,-30 735,-10 715,-10"/>
<text text-anchor="start" x="738.73" y="-15.4" font-family="Times-12" font-size="14.00"> &#160;Exports</text>
<g id="clust1" class="cluster">
<title>cluster_TldrawApiTestModule</title>
<polygon fill="none" stroke="black" stroke-dasharray="1,5" points="8,-70 8,-195 1106,-195 1106,-70 8,-70"/>
</g>
<g id="clust6" class="cluster">
<title>cluster_TldrawApiTestModule_providers</title>
<polygon fill="none" stroke="black" points="358,-78 358,-130 1098,-130 1098,-78 358,-78"/>
</g>
<g id="clust3" class="cluster">
<title>cluster_TldrawApiTestModule_imports</title>
<polygon fill="none" stroke="black" points="16,-78 16,-130 350,-130 350,-78 16,-78"/>
</g>
<!-- LoggerModule -->
<g id="node1" class="node">
<title>LoggerModule</title>
<polygon fill="#8dd3c7" stroke="black" points="341.98,-122 338.98,-126 317.98,-126 314.98,-122 242.02,-122 242.02,-86 341.98,-86 341.98,-122"/>
<text text-anchor="middle" x="292" y="-99.8" font-family="Times,serif" font-size="14.00">LoggerModule</text>
</g>
<!-- TldrawApiTestModule -->
<g id="node3" class="node">
<title>TldrawApiTestModule</title>
<polygon fill="#8dd3c7" stroke="black" points="651.57,-187 648.57,-191 627.57,-191 624.57,-187 506.43,-187 506.43,-151 651.57,-151 651.57,-187"/>
<text text-anchor="middle" x="579" y="-164.8" font-family="Times,serif" font-size="14.00">TldrawApiTestModule</text>
</g>
<!-- LoggerModule&#45;&gt;TldrawApiTestModule -->
<g id="edge1" class="edge">
<title>LoggerModule&#45;&gt;TldrawApiTestModule</title>
<path fill="none" stroke="black" d="M292,-122.02C292,-139.37 292,-163 292,-163 292,-163 496.21,-163 496.21,-163"/>
<polygon fill="black" stroke="black" points="496.21,-166.5 506.21,-163 496.21,-159.5 496.21,-166.5"/>
</g>
<!-- MongoMemoryDatabaseModule -->
<g id="node2" class="node">
<title>MongoMemoryDatabaseModule</title>
<polygon fill="#8dd3c7" stroke="black" points="223.51,-122 220.51,-126 199.51,-126 196.51,-122 24.49,-122 24.49,-86 223.51,-86 223.51,-122"/>
<text text-anchor="middle" x="124" y="-99.8" font-family="Times,serif" font-size="14.00">MongoMemoryDatabaseModule</text>
</g>
<!-- MongoMemoryDatabaseModule&#45;&gt;TldrawApiTestModule -->
<g id="edge2" class="edge">
<title>MongoMemoryDatabaseModule&#45;&gt;TldrawApiTestModule</title>
<path fill="none" stroke="black" d="M124,-122.28C124,-143.32 124,-175 124,-175 124,-175 496.4,-175 496.4,-175"/>
<polygon fill="black" stroke="black" points="496.4,-178.5 506.4,-175 496.4,-171.5 496.4,-178.5"/>
</g>
<!-- Logger -->
<g id="node4" class="node">
<title>Logger</title>
<ellipse fill="#fdb462" stroke="black" cx="1051" cy="-104" rx="38.85" ry="18"/>
<text text-anchor="middle" x="1051" y="-99.8" font-family="Times,serif" font-size="14.00">Logger</text>
</g>
<!-- Logger&#45;&gt;TldrawApiTestModule -->
<g id="edge3" class="edge">
<title>Logger&#45;&gt;TldrawApiTestModule</title>
<path fill="none" stroke="black" d="M1051,-122.28C1051,-143.32 1051,-175 1051,-175 1051,-175 661.72,-175 661.72,-175"/>
<polygon fill="black" stroke="black" points="661.72,-171.5 651.72,-175 661.72,-178.5 661.72,-171.5"/>
</g>
<!-- MetricsService -->
<g id="node5" class="node">
<title>MetricsService</title>
<ellipse fill="#fdb462" stroke="black" cx="925" cy="-104" rx="69.47" ry="18"/>
<text text-anchor="middle" x="925" y="-99.8" font-family="Times,serif" font-size="14.00">MetricsService</text>
</g>
<!-- MetricsService&#45;&gt;TldrawApiTestModule -->
<g id="edge4" class="edge">
<title>MetricsService&#45;&gt;TldrawApiTestModule</title>
<path fill="none" stroke="black" d="M925,-122.02C925,-139.37 925,-163 925,-163 925,-163 661.95,-163 661.95,-163"/>
<polygon fill="black" stroke="black" points="661.95,-159.5 651.95,-163 661.95,-166.5 661.95,-159.5"/>
</g>
<!-- TldrawRedisFactory -->
<g id="node6" class="node">
<title>TldrawRedisFactory</title>
<ellipse fill="#fdb462" stroke="black" cx="747" cy="-104" rx="90.33" ry="18"/>
<text text-anchor="middle" x="747" y="-99.8" font-family="Times,serif" font-size="14.00">TldrawRedisFactory</text>
</g>
<!-- TldrawRedisFactory&#45;&gt;TldrawApiTestModule -->
<g id="edge5" class="edge">
<title>TldrawRedisFactory&#45;&gt;TldrawApiTestModule</title>
<path fill="none" stroke="black" d="M656.24,-104C649.3,-104 644.92,-104 644.92,-104 644.92,-104 644.92,-140.89 644.92,-140.89"/>
<polygon fill="black" stroke="black" points="641.42,-140.89 644.92,-150.89 648.42,-140.89 641.42,-140.89"/>
</g>
<!-- TldrawRepo -->
<g id="node7" class="node">
<title>TldrawRepo</title>
<ellipse fill="#fdb462" stroke="black" cx="579" cy="-104" rx="59.11" ry="18"/>
<text text-anchor="middle" x="579" y="-99.8" font-family="Times,serif" font-size="14.00">TldrawRepo</text>
</g>
<!-- TldrawRepo&#45;&gt;TldrawApiTestModule -->
<g id="edge6" class="edge">
<title>TldrawRepo&#45;&gt;TldrawApiTestModule</title>
<path fill="none" stroke="black" d="M579,-122.11C579,-122.11 579,-140.99 579,-140.99"/>
<polygon fill="black" stroke="black" points="575.5,-140.99 579,-150.99 582.5,-140.99 575.5,-140.99"/>
</g>
<!-- TldrawService -->
<g id="node8" class="node">
<title>TldrawService</title>
<ellipse fill="#fdb462" stroke="black" cx="434" cy="-104" rx="67.75" ry="18"/>
<text text-anchor="middle" x="434" y="-99.8" font-family="Times,serif" font-size="14.00">TldrawService</text>
</g>
<!-- TldrawService&#45;&gt;TldrawApiTestModule -->
<g id="edge7" class="edge">
<title>TldrawService&#45;&gt;TldrawApiTestModule</title>
<path fill="none" stroke="black" d="M502.08,-104C508.74,-104 513.08,-104 513.08,-104 513.08,-104 513.08,-140.89 513.08,-140.89"/>
<polygon fill="black" stroke="black" points="509.58,-140.89 513.08,-150.89 516.58,-140.89 509.58,-140.89"/>
</g>
</g>
</svg>
