<?xml version="1.0" encoding="UTF-8" standalone="no"?>
<!DOCTYPE svg PUBLIC "-//W3C//DTD SVG 1.1//EN"
 "http://www.w3.org/Graphics/SVG/1.1/DTD/svg11.dtd">
<!-- Generated by graphviz version 2.47.0 (20210316.0004)
 -->
<!-- Title: dependencies Pages: 1 -->
<svg width="1319pt" height="211pt"
 viewBox="0.00 0.00 1319.00 211.00" xmlns="http://www.w3.org/2000/svg" xmlns:xlink="http://www.w3.org/1999/xlink">
<g id="graph0" class="graph" transform="scale(1 1) rotate(0) translate(4 207)">
<title>dependencies</title>
<polygon fill="white" stroke="transparent" points="-4,4 -4,-207 1315,-207 1315,4 -4,4"/>
<text text-anchor="start" x="634.51" y="-42.4" font-family="Times-12" font-weight="bold" font-size="14.00">Legend</text>
<polygon fill="#ffffb3" stroke="transparent" points="421.5,-10 421.5,-30 441.5,-30 441.5,-10 421.5,-10"/>
<text text-anchor="start" x="445.13" y="-15.4" font-family="Times-12" font-size="14.00"> &#160;Declarations</text>
<polygon fill="#8dd3c7" stroke="transparent" points="534.5,-10 534.5,-30 554.5,-30 554.5,-10 534.5,-10"/>
<text text-anchor="start" x="558.23" y="-15.4" font-family="Times-12" font-size="14.00"> &#160;Module</text>
<polygon fill="#80b1d3" stroke="transparent" points="620.5,-10 620.5,-30 640.5,-30 640.5,-10 620.5,-10"/>
<text text-anchor="start" x="644.28" y="-15.4" font-family="Times-12" font-size="14.00"> &#160;Bootstrap</text>
<polygon fill="#fdb462" stroke="transparent" points="717.5,-10 717.5,-30 737.5,-30 737.5,-10 717.5,-10"/>
<text text-anchor="start" x="741.17" y="-15.4" font-family="Times-12" font-size="14.00"> &#160;Providers</text>
<polygon fill="#fb8072" stroke="transparent" points="813.5,-10 813.5,-30 833.5,-30 833.5,-10 813.5,-10"/>
<text text-anchor="start" x="837.23" y="-15.4" font-family="Times-12" font-size="14.00"> &#160;Exports</text>
<g id="clust1" class="cluster">
<title>cluster_TldrawApiTestModule</title>
<polygon fill="none" stroke="black" stroke-dasharray="1,5" points="8,-70 8,-195 1303,-195 1303,-70 8,-70"/>
</g>
<g id="clust3" class="cluster">
<title>cluster_TldrawApiTestModule_imports</title>
<polygon fill="none" stroke="black" points="961,-78 961,-130 1295,-130 1295,-78 961,-78"/>
</g>
<g id="clust6" class="cluster">
<title>cluster_TldrawApiTestModule_providers</title>
<polygon fill="none" stroke="black" points="16,-78 16,-130 953,-130 953,-78 16,-78"/>
</g>
<!-- LoggerModule -->
<g id="node1" class="node">
<title>LoggerModule</title>
<polygon fill="#8dd3c7" stroke="black" points="1286.98,-122 1283.98,-126 1262.98,-126 1259.98,-122 1187.02,-122 1187.02,-86 1286.98,-86 1286.98,-122"/>
<text text-anchor="middle" x="1237" y="-99.8" font-family="Times,serif" font-size="14.00">LoggerModule</text>
</g>
<!-- TldrawApiTestModule -->
<g id="node3" class="node">
<title>TldrawApiTestModule</title>
<polygon fill="#8dd3c7" stroke="black" points="763.57,-187 760.57,-191 739.57,-191 736.57,-187 618.43,-187 618.43,-151 763.57,-151 763.57,-187"/>
<text text-anchor="middle" x="691" y="-164.8" font-family="Times,serif" font-size="14.00">TldrawApiTestModule</text>
</g>
<!-- LoggerModule&#45;&gt;TldrawApiTestModule -->
<g id="edge1" class="edge">
<title>LoggerModule&#45;&gt;TldrawApiTestModule</title>
<path fill="none" stroke="black" d="M1237,-122.29C1237,-144.21 1237,-178 1237,-178 1237,-178 773.79,-178 773.79,-178"/>
<polygon fill="black" stroke="black" points="773.79,-174.5 763.79,-178 773.79,-181.5 773.79,-174.5"/>
</g>
<!-- MongoMemoryDatabaseModule -->
<g id="node2" class="node">
<title>MongoMemoryDatabaseModule</title>
<polygon fill="#8dd3c7" stroke="black" points="1168.51,-122 1165.51,-126 1144.51,-126 1141.51,-122 969.49,-122 969.49,-86 1168.51,-86 1168.51,-122"/>
<text text-anchor="middle" x="1069" y="-99.8" font-family="Times,serif" font-size="14.00">MongoMemoryDatabaseModule</text>
</g>
<!-- MongoMemoryDatabaseModule&#45;&gt;TldrawApiTestModule -->
<g id="edge2" class="edge">
<title>MongoMemoryDatabaseModule&#45;&gt;TldrawApiTestModule</title>
<path fill="none" stroke="black" d="M1069,-122.11C1069,-141.34 1069,-169 1069,-169 1069,-169 773.88,-169 773.88,-169"/>
<polygon fill="black" stroke="black" points="773.88,-165.5 763.88,-169 773.88,-172.5 773.88,-165.5"/>
</g>
<!-- Logger -->
<g id="node4" class="node">
<title>Logger</title>
<ellipse fill="#fdb462" stroke="black" cx="906" cy="-104" rx="38.85" ry="18"/>
<text text-anchor="middle" x="906" y="-99.8" font-family="Times,serif" font-size="14.00">Logger</text>
</g>
<!-- Logger&#45;&gt;TldrawApiTestModule -->
<g id="edge3" class="edge">
<title>Logger&#45;&gt;TldrawApiTestModule</title>
<path fill="none" stroke="black" d="M906,-122.03C906,-138.4 906,-160 906,-160 906,-160 773.79,-160 773.79,-160"/>
<polygon fill="black" stroke="black" points="773.79,-156.5 763.79,-160 773.79,-163.5 773.79,-156.5"/>
</g>
<!-- MetricsService -->
<g id="node5" class="node">
<title>MetricsService</title>
<ellipse fill="#fdb462" stroke="black" cx="780" cy="-104" rx="69.47" ry="18"/>
<text text-anchor="middle" x="780" y="-99.8" font-family="Times,serif" font-size="14.00">MetricsService</text>
</g>
<!-- MetricsService&#45;&gt;TldrawApiTestModule -->
<g id="edge4" class="edge">
<title>MetricsService&#45;&gt;TldrawApiTestModule</title>
<path fill="none" stroke="black" d="M737.03,-118.43C737.03,-118.43 737.03,-140.89 737.03,-140.89"/>
<polygon fill="black" stroke="black" points="733.53,-140.89 737.03,-150.89 740.53,-140.89 733.53,-140.89"/>
</g>
<!-- TldrawRedisFactory -->
<g id="node6" class="node">
<title>TldrawRedisFactory</title>
<ellipse fill="#fdb462" stroke="black" cx="602" cy="-104" rx="90.33" ry="18"/>
<text text-anchor="middle" x="602" y="-99.8" font-family="Times,serif" font-size="14.00">TldrawRedisFactory</text>
</g>
<!-- TldrawRedisFactory&#45;&gt;TldrawApiTestModule -->
<g id="edge5" class="edge">
<title>TldrawRedisFactory&#45;&gt;TldrawApiTestModule</title>
<path fill="none" stroke="black" d="M655.44,-118.75C655.44,-118.75 655.44,-140.59 655.44,-140.59"/>
<polygon fill="black" stroke="black" points="651.94,-140.59 655.44,-150.59 658.94,-140.59 651.94,-140.59"/>
</g>
<!-- TldrawRedisService -->
<g id="node7" class="node">
<title>TldrawRedisService</title>
<ellipse fill="#fdb462" stroke="black" cx="404" cy="-104" rx="89.74" ry="18"/>
<text text-anchor="middle" x="404" y="-99.8" font-family="Times,serif" font-size="14.00">TldrawRedisService</text>
</g>
<!-- TldrawRedisService&#45;&gt;TldrawApiTestModule -->
<g id="edge6" class="edge">
<title>TldrawRedisService&#45;&gt;TldrawApiTestModule</title>
<path fill="none" stroke="black" d="M404,-122.03C404,-138.4 404,-160 404,-160 404,-160 608.21,-160 608.21,-160"/>
<polygon fill="black" stroke="black" points="608.21,-163.5 618.21,-160 608.21,-156.5 608.21,-163.5"/>
</g>
<!-- TldrawRepo -->
<g id="node8" class="node">
<title>TldrawRepo</title>
<ellipse fill="#fdb462" stroke="black" cx="237" cy="-104" rx="59.11" ry="18"/>
<text text-anchor="middle" x="237" y="-99.8" font-family="Times,serif" font-size="14.00">TldrawRepo</text>
</g>
<!-- TldrawRepo&#45;&gt;TldrawApiTestModule -->
<g id="edge7" class="edge">
<title>TldrawRepo&#45;&gt;TldrawApiTestModule</title>
<path fill="none" stroke="black" d="M237,-122.11C237,-141.34 237,-169 237,-169 237,-169 608.31,-169 608.31,-169"/>
<polygon fill="black" stroke="black" points="608.31,-172.5 618.31,-169 608.31,-165.5 608.31,-172.5"/>
</g>
<!-- TldrawService -->
<g id="node9" class="node">
<title>TldrawService</title>
<ellipse fill="#fdb462" stroke="black" cx="92" cy="-104" rx="67.75" ry="18"/>
<text text-anchor="middle" x="92" y="-99.8" font-family="Times,serif" font-size="14.00">TldrawService</text>
</g>
<!-- TldrawService&#45;&gt;TldrawApiTestModule -->
<g id="edge8" class="edge">
<title>TldrawService&#45;&gt;TldrawApiTestModule</title>
<path fill="none" stroke="black" d="M92,-122.29C92,-144.21 92,-178 92,-178 92,-178 608.45,-178 608.45,-178"/>
<polygon fill="black" stroke="black" points="608.45,-181.5 618.45,-178 608.45,-174.5 608.45,-181.5"/>
</g>
</g>
</svg>
