<?xml version="1.0" encoding="UTF-8" standalone="no"?>
<!DOCTYPE svg PUBLIC "-//W3C//DTD SVG 1.1//EN"
 "http://www.w3.org/Graphics/SVG/1.1/DTD/svg11.dtd">
<!-- Generated by graphviz version 2.47.0 (20210316.0004)
 -->
<!-- Title: dependencies Pages: 1 -->
<svg width="1319pt" height="211pt"
 viewBox="0.00 0.00 1319.00 211.00" xmlns="http://www.w3.org/2000/svg" xmlns:xlink="http://www.w3.org/1999/xlink">
<g id="graph0" class="graph" transform="scale(1 1) rotate(0) translate(4 207)">
<title>dependencies</title>
<polygon fill="white" stroke="transparent" points="-4,4 -4,-207 1315,-207 1315,4 -4,4"/>
<text text-anchor="start" x="634.51" y="-42.4" font-family="Times-12" font-weight="bold" font-size="14.00">Legend</text>
<polygon fill="#ffffb3" stroke="transparent" points="421.5,-10 421.5,-30 441.5,-30 441.5,-10 421.5,-10"/>
<text text-anchor="start" x="445.13" y="-15.4" font-family="Times-12" font-size="14.00"> &#160;Declarations</text>
<polygon fill="#8dd3c7" stroke="transparent" points="534.5,-10 534.5,-30 554.5,-30 554.5,-10 534.5,-10"/>
<text text-anchor="start" x="558.23" y="-15.4" font-family="Times-12" font-size="14.00"> &#160;Module</text>
<polygon fill="#80b1d3" stroke="transparent" points="620.5,-10 620.5,-30 640.5,-30 640.5,-10 620.5,-10"/>
<text text-anchor="start" x="644.28" y="-15.4" font-family="Times-12" font-size="14.00"> &#160;Bootstrap</text>
<polygon fill="#fdb462" stroke="transparent" points="717.5,-10 717.5,-30 737.5,-30 737.5,-10 717.5,-10"/>
<text text-anchor="start" x="741.17" y="-15.4" font-family="Times-12" font-size="14.00"> &#160;Providers</text>
<polygon fill="#fb8072" stroke="transparent" points="813.5,-10 813.5,-30 833.5,-30 833.5,-10 813.5,-10"/>
<text text-anchor="start" x="837.23" y="-15.4" font-family="Times-12" font-size="14.00"> &#160;Exports</text>
<g id="clust1" class="cluster">
<title>cluster_TldrawApiTestModule</title>
<polygon fill="none" stroke="black" stroke-dasharray="1,5" points="8,-70 8,-195 1303,-195 1303,-70 8,-70"/>
</g>
<g id="clust6" class="cluster">
<title>cluster_TldrawApiTestModule_providers</title>
<polygon fill="none" stroke="black" points="358,-78 358,-130 1295,-130 1295,-78 358,-78"/>
</g>
<g id="clust3" class="cluster">
<title>cluster_TldrawApiTestModule_imports</title>
<polygon fill="none" stroke="black" points="16,-78 16,-130 350,-130 350,-78 16,-78"/>
</g>
<!-- LoggerModule -->
<g id="node1" class="node">
<title>LoggerModule</title>
<polygon fill="#8dd3c7" stroke="black" points="341.98,-122 338.98,-126 317.98,-126 314.98,-122 242.02,-122 242.02,-86 341.98,-86 341.98,-122"/>
<text text-anchor="middle" x="292" y="-99.8" font-family="Times,serif" font-size="14.00">LoggerModule</text>
</g>
<!-- TldrawApiTestModule -->
<g id="node3" class="node">
<title>TldrawApiTestModule</title>
<polygon fill="#8dd3c7" stroke="black" points="734.57,-187 731.57,-191 710.57,-191 707.57,-187 589.43,-187 589.43,-151 734.57,-151 734.57,-187"/>
<text text-anchor="middle" x="662" y="-164.8" font-family="Times,serif" font-size="14.00">TldrawApiTestModule</text>
</g>
<!-- LoggerModule&#45;&gt;TldrawApiTestModule -->
<g id="edge1" class="edge">
<title>LoggerModule&#45;&gt;TldrawApiTestModule</title>
<path fill="none" stroke="black" d="M292,-122.11C292,-141.34 292,-169 292,-169 292,-169 579.34,-169 579.34,-169"/>
<polygon fill="black" stroke="black" points="579.34,-172.5 589.34,-169 579.34,-165.5 579.34,-172.5"/>
</g>
<!-- MongoMemoryDatabaseModule -->
<g id="node2" class="node">
<title>MongoMemoryDatabaseModule</title>
<polygon fill="#8dd3c7" stroke="black" points="223.51,-122 220.51,-126 199.51,-126 196.51,-122 24.49,-122 24.49,-86 223.51,-86 223.51,-122"/>
<text text-anchor="middle" x="124" y="-99.8" font-family="Times,serif" font-size="14.00">MongoMemoryDatabaseModule</text>
</g>
<!-- MongoMemoryDatabaseModule&#45;&gt;TldrawApiTestModule -->
<g id="edge2" class="edge">
<title>MongoMemoryDatabaseModule&#45;&gt;TldrawApiTestModule</title>
<path fill="none" stroke="black" d="M124,-122.29C124,-144.21 124,-178 124,-178 124,-178 579.44,-178 579.44,-178"/>
<polygon fill="black" stroke="black" points="579.44,-181.5 589.44,-178 579.44,-174.5 579.44,-181.5"/>
</g>
<!-- Logger -->
<g id="node4" class="node">
<title>Logger</title>
<ellipse fill="#fdb462" stroke="black" cx="1248" cy="-104" rx="38.85" ry="18"/>
<text text-anchor="middle" x="1248" y="-99.8" font-family="Times,serif" font-size="14.00">Logger</text>
</g>
<!-- Logger&#45;&gt;TldrawApiTestModule -->
<g id="edge3" class="edge">
<title>Logger&#45;&gt;TldrawApiTestModule</title>
<path fill="none" stroke="black" d="M1248,-122.29C1248,-144.21 1248,-178 1248,-178 1248,-178 744.74,-178 744.74,-178"/>
<polygon fill="black" stroke="black" points="744.74,-174.5 734.74,-178 744.74,-181.5 744.74,-174.5"/>
</g>
<!-- MetricsService -->
<g id="node5" class="node">
<title>MetricsService</title>
<ellipse fill="#fdb462" stroke="black" cx="1122" cy="-104" rx="69.47" ry="18"/>
<text text-anchor="middle" x="1122" y="-99.8" font-family="Times,serif" font-size="14.00">MetricsService</text>
</g>
<!-- MetricsService&#45;&gt;TldrawApiTestModule -->
<g id="edge4" class="edge">
<title>MetricsService&#45;&gt;TldrawApiTestModule</title>
<path fill="none" stroke="black" d="M1122,-122.11C1122,-141.34 1122,-169 1122,-169 1122,-169 744.63,-169 744.63,-169"/>
<polygon fill="black" stroke="black" points="744.63,-165.5 734.63,-169 744.63,-172.5 744.63,-165.5"/>
</g>
<!-- TldrawRedisFactory -->
<g id="node6" class="node">
<title>TldrawRedisFactory</title>
<ellipse fill="#fdb462" stroke="black" cx="944" cy="-104" rx="90.33" ry="18"/>
<text text-anchor="middle" x="944" y="-99.8" font-family="Times,serif" font-size="14.00">TldrawRedisFactory</text>
</g>
<!-- TldrawRedisFactory&#45;&gt;TldrawApiTestModule -->
<g id="edge5" class="edge">
<title>TldrawRedisFactory&#45;&gt;TldrawApiTestModule</title>
<path fill="none" stroke="black" d="M944,-122.03C944,-138.4 944,-160 944,-160 944,-160 744.62,-160 744.62,-160"/>
<polygon fill="black" stroke="black" points="744.62,-156.5 734.62,-160 744.62,-163.5 744.62,-156.5"/>
</g>
<!-- TldrawRedisService -->
<g id="node7" class="node">
<title>TldrawRedisService</title>
<ellipse fill="#fdb462" stroke="black" cx="746" cy="-104" rx="89.74" ry="18"/>
<text text-anchor="middle" x="746" y="-99.8" font-family="Times,serif" font-size="14.00">TldrawRedisService</text>
</g>
<!-- TldrawRedisService&#45;&gt;TldrawApiTestModule -->
<g id="edge6" class="edge">
<title>TldrawRedisService&#45;&gt;TldrawApiTestModule</title>
<path fill="none" stroke="black" d="M695.33,-119.08C695.33,-119.08 695.33,-140.76 695.33,-140.76"/>
<polygon fill="black" stroke="black" points="691.83,-140.76 695.33,-150.76 698.83,-140.76 691.83,-140.76"/>
</g>
<!-- TldrawRepo -->
<g id="node8" class="node">
<title>TldrawRepo</title>
<ellipse fill="#fdb462" stroke="black" cx="579" cy="-104" rx="59.11" ry="18"/>
<text text-anchor="middle" x="579" y="-99.8" font-family="Times,serif" font-size="14.00">TldrawRepo</text>
</g>
<!-- TldrawRepo&#45;&gt;TldrawApiTestModule -->
<g id="edge7" class="edge">
<title>TldrawRepo&#45;&gt;TldrawApiTestModule</title>
<path fill="none" stroke="black" d="M613.88,-118.75C613.88,-118.75 613.88,-140.59 613.88,-140.59"/>
<polygon fill="black" stroke="black" points="610.38,-140.59 613.88,-150.59 617.38,-140.59 610.38,-140.59"/>
</g>
<!-- TldrawService -->
<g id="node9" class="node">
<title>TldrawService</title>
<ellipse fill="#fdb462" stroke="black" cx="434" cy="-104" rx="67.75" ry="18"/>
<text text-anchor="middle" x="434" y="-99.8" font-family="Times,serif" font-size="14.00">TldrawService</text>
</g>
<!-- TldrawService&#45;&gt;TldrawApiTestModule -->
<g id="edge8" class="edge">
<title>TldrawService&#45;&gt;TldrawApiTestModule</title>
<path fill="none" stroke="black" d="M434,-122.03C434,-138.4 434,-160 434,-160 434,-160 579.23,-160 579.23,-160"/>
<polygon fill="black" stroke="black" points="579.23,-163.5 589.23,-160 579.23,-156.5 579.23,-163.5"/>
</g>
</g>
</svg>
