<?xml version="1.0" encoding="UTF-8" standalone="no"?>
<!DOCTYPE svg PUBLIC "-//W3C//DTD SVG 1.1//EN"
 "http://www.w3.org/Graphics/SVG/1.1/DTD/svg11.dtd">
<!-- Generated by graphviz version 2.47.0 (20210316.0004)
 -->
<!-- Title: dependencies Pages: 1 -->
<svg width="504pt" height="211pt"
 viewBox="0.00 0.00 504.00 211.00" xmlns="http://www.w3.org/2000/svg" xmlns:xlink="http://www.w3.org/1999/xlink">
<g id="graph0" class="graph" transform="scale(1 1) rotate(0) translate(4 207)">
<title>dependencies</title>
<polygon fill="white" stroke="transparent" points="-4,4 -4,-207 500,-207 500,4 -4,4"/>
<text text-anchor="start" x="227.01" y="-42.4" font-family="Times-12" font-weight="bold" font-size="14.00">Legend</text>
<polygon fill="#ffffb3" stroke="transparent" points="14,-10 14,-30 34,-30 34,-10 14,-10"/>
<text text-anchor="start" x="37.63" y="-15.4" font-family="Times-12" font-size="14.00"> &#160;Declarations</text>
<polygon fill="#8dd3c7" stroke="transparent" points="127,-10 127,-30 147,-30 147,-10 127,-10"/>
<text text-anchor="start" x="150.73" y="-15.4" font-family="Times-12" font-size="14.00"> &#160;Module</text>
<polygon fill="#80b1d3" stroke="transparent" points="213,-10 213,-30 233,-30 233,-10 213,-10"/>
<text text-anchor="start" x="236.78" y="-15.4" font-family="Times-12" font-size="14.00"> &#160;Bootstrap</text>
<polygon fill="#fdb462" stroke="transparent" points="310,-10 310,-30 330,-30 330,-10 310,-10"/>
<text text-anchor="start" x="333.67" y="-15.4" font-family="Times-12" font-size="14.00"> &#160;Providers</text>
<polygon fill="#fb8072" stroke="transparent" points="406,-10 406,-30 426,-30 426,-10 406,-10"/>
<text text-anchor="start" x="429.73" y="-15.4" font-family="Times-12" font-size="14.00"> &#160;Exports</text>
<g id="clust1" class="cluster">
<title>cluster_HealthApiModule</title>
<polygon fill="none" stroke="black" stroke-dasharray="1,5" points="16,-70 16,-195 480,-195 480,-70 16,-70"/>
</g>
<g id="clust6" class="cluster">
<title>cluster_HealthApiModule_providers</title>
<polygon fill="none" stroke="black" points="24,-78 24,-130 472,-130 472,-78 24,-78"/>
</g>
<!-- HealthCheckRepo -->
<g id="node1" class="node">
<title>HealthCheckRepo</title>
<ellipse fill="#fdb462" stroke="black" cx="382" cy="-104" rx="81.66" ry="18"/>
<text text-anchor="middle" x="382" y="-99.8" font-family="Times,serif" font-size="14.00">HealthCheckRepo</text>
</g>
<!-- HealthApiModule -->
<g id="node4" class="node">
<title>HealthApiModule</title>
<polygon fill="#8dd3c7" stroke="black" points="274.86,-187 271.86,-191 250.86,-191 247.86,-187 157.14,-187 157.14,-151 274.86,-151 274.86,-187"/>
<text text-anchor="middle" x="216" y="-164.8" font-family="Times,serif" font-size="14.00">HealthApiModule</text>
</g>
<!-- HealthCheckRepo&#45;&gt;HealthApiModule -->
<g id="edge1" class="edge">
<title>HealthCheckRepo&#45;&gt;HealthApiModule</title>
<path fill="none" stroke="black" d="M382,-122.11C382,-141.34 382,-169 382,-169 382,-169 284.99,-169 284.99,-169"/>
<polygon fill="black" stroke="black" points="284.99,-165.5 274.99,-169 284.99,-172.5 284.99,-165.5"/>
</g>
<!-- HealthService -->
<g id="node2" class="node">
<title>HealthService</title>
<ellipse fill="#fdb462" stroke="black" cx="216" cy="-104" rx="65.97" ry="18"/>
<text text-anchor="middle" x="216" y="-99.8" font-family="Times,serif" font-size="14.00">HealthService</text>
</g>
<!-- HealthService&#45;&gt;HealthApiModule -->
<g id="edge2" class="edge">
<title>HealthService&#45;&gt;HealthApiModule</title>
<path fill="none" stroke="black" d="M216,-122.11C216,-122.11 216,-140.99 216,-140.99"/>
<polygon fill="black" stroke="black" points="212.5,-140.99 216,-150.99 219.5,-140.99 212.5,-140.99"/>
</g>
<!-- HealthUC -->
<g id="node3" class="node">
<title>HealthUC</title>
<ellipse fill="#fdb462" stroke="black" cx="82" cy="-104" rx="50.38" ry="18"/>
<text text-anchor="middle" x="82" y="-99.8" font-family="Times,serif" font-size="14.00">HealthUC</text>
</g>
<!-- HealthUC&#45;&gt;HealthApiModule -->
<g id="edge3" class="edge">
<title>HealthUC&#45;&gt;HealthApiModule</title>
<path fill="none" stroke="black" d="M82,-122.11C82,-141.34 82,-169 82,-169 82,-169 146.84,-169 146.84,-169"/>
<polygon fill="black" stroke="black" points="146.84,-172.5 156.84,-169 146.84,-165.5 146.84,-172.5"/>
</g>
</g>
</svg>
