<?xml version="1.0" encoding="UTF-8" standalone="no"?>
<!DOCTYPE svg PUBLIC "-//W3C//DTD SVG 1.1//EN"
 "http://www.w3.org/Graphics/SVG/1.1/DTD/svg11.dtd">
<!-- Generated by graphviz version 2.47.0 (20210316.0004)
 -->
<!-- Title: dependencies Pages: 1 -->
<svg width="2467pt" height="284pt"
 viewBox="0.00 0.00 2467.00 284.00" xmlns="http://www.w3.org/2000/svg" xmlns:xlink="http://www.w3.org/1999/xlink">
<g id="graph0" class="graph" transform="scale(1 1) rotate(0) translate(4 280)">
<title>dependencies</title>
<polygon fill="white" stroke="transparent" points="-4,4 -4,-280 2463,-280 2463,4 -4,4"/>
<text text-anchor="start" x="1208.51" y="-42.4" font-family="Times-12" font-weight="bold" font-size="14.00">Legend</text>
<polygon fill="#ffffb3" stroke="transparent" points="995.5,-10 995.5,-30 1015.5,-30 1015.5,-10 995.5,-10"/>
<text text-anchor="start" x="1019.13" y="-15.4" font-family="Times-12" font-size="14.00"> &#160;Declarations</text>
<polygon fill="#8dd3c7" stroke="transparent" points="1108.5,-10 1108.5,-30 1128.5,-30 1128.5,-10 1108.5,-10"/>
<text text-anchor="start" x="1132.23" y="-15.4" font-family="Times-12" font-size="14.00"> &#160;Module</text>
<polygon fill="#80b1d3" stroke="transparent" points="1194.5,-10 1194.5,-30 1214.5,-30 1214.5,-10 1194.5,-10"/>
<text text-anchor="start" x="1218.28" y="-15.4" font-family="Times-12" font-size="14.00"> &#160;Bootstrap</text>
<polygon fill="#fdb462" stroke="transparent" points="1291.5,-10 1291.5,-30 1311.5,-30 1311.5,-10 1291.5,-10"/>
<text text-anchor="start" x="1315.17" y="-15.4" font-family="Times-12" font-size="14.00"> &#160;Providers</text>
<polygon fill="#fb8072" stroke="transparent" points="1387.5,-10 1387.5,-30 1407.5,-30 1407.5,-10 1387.5,-10"/>
<text text-anchor="start" x="1411.23" y="-15.4" font-family="Times-12" font-size="14.00"> &#160;Exports</text>
<g id="clust1" class="cluster">
<title>cluster_UserLoginMigrationModule</title>
<polygon fill="none" stroke="black" stroke-dasharray="1,5" points="8,-70 8,-268 2451,-268 2451,-70 8,-70"/>
</g>
<g id="clust3" class="cluster">
<title>cluster_UserLoginMigrationModule_imports</title>
<polygon fill="none" stroke="black" points="1823,-78 1823,-130 2443,-130 2443,-78 1823,-78"/>
</g>
<g id="clust6" class="cluster">
<title>cluster_UserLoginMigrationModule_providers</title>
<polygon fill="none" stroke="black" points="16,-78 16,-130 1815,-130 1815,-78 16,-78"/>
</g>
<g id="clust4" class="cluster">
<title>cluster_UserLoginMigrationModule_exports</title>
<polygon fill="none" stroke="black" points="991,-208 991,-260 2172,-260 2172,-208 991,-208"/>
</g>
<!-- AccountModule -->
<g id="node1" class="node">
<title>AccountModule</title>
<polygon fill="#8dd3c7" stroke="black" points="2435.48,-122 2432.48,-126 2411.48,-126 2408.48,-122 2328.52,-122 2328.52,-86 2435.48,-86 2435.48,-122"/>
<text text-anchor="middle" x="2382" y="-99.8" font-family="Times,serif" font-size="14.00">AccountModule</text>
</g>
<!-- UserLoginMigrationModule -->
<g id="node6" class="node">
<title>UserLoginMigrationModule</title>
<polygon fill="#8dd3c7" stroke="black" points="1677.91,-187 1674.91,-191 1653.91,-191 1650.91,-187 1502.09,-187 1502.09,-151 1677.91,-151 1677.91,-187"/>
<text text-anchor="middle" x="1590" y="-164.8" font-family="Times,serif" font-size="14.00">UserLoginMigrationModule</text>
</g>
<!-- AccountModule&#45;&gt;UserLoginMigrationModule -->
<g id="edge1" class="edge">
<title>AccountModule&#45;&gt;UserLoginMigrationModule</title>
<path fill="none" stroke="black" d="M2382,-122.03C2382,-142.77 2382,-174 2382,-174 2382,-174 1687.78,-174 1687.78,-174"/>
<polygon fill="black" stroke="black" points="1687.78,-170.5 1677.78,-174 1687.78,-177.5 1687.78,-170.5"/>
</g>
<!-- LegacySchoolModule -->
<g id="node2" class="node">
<title>LegacySchoolModule</title>
<polygon fill="#8dd3c7" stroke="black" points="2310.63,-122 2307.63,-126 2286.63,-126 2283.63,-122 2171.37,-122 2171.37,-86 2310.63,-86 2310.63,-122"/>
<text text-anchor="middle" x="2241" y="-99.8" font-family="Times,serif" font-size="14.00">LegacySchoolModule</text>
</g>
<!-- LegacySchoolModule&#45;&gt;UserLoginMigrationModule -->
<g id="edge2" class="edge">
<title>LegacySchoolModule&#45;&gt;UserLoginMigrationModule</title>
<path fill="none" stroke="black" d="M2241,-122.11C2241,-141.34 2241,-169 2241,-169 2241,-169 1687.8,-169 1687.8,-169"/>
<polygon fill="black" stroke="black" points="1687.8,-165.5 1677.8,-169 1687.8,-172.5 1687.8,-165.5"/>
</g>
<!-- LoggerModule -->
<g id="node3" class="node">
<title>LoggerModule</title>
<polygon fill="#8dd3c7" stroke="black" points="2152.98,-122 2149.98,-126 2128.98,-126 2125.98,-122 2053.02,-122 2053.02,-86 2152.98,-86 2152.98,-122"/>
<text text-anchor="middle" x="2103" y="-99.8" font-family="Times,serif" font-size="14.00">LoggerModule</text>
</g>
<!-- LoggerModule&#45;&gt;UserLoginMigrationModule -->
<g id="edge3" class="edge">
<title>LoggerModule&#45;&gt;UserLoginMigrationModule</title>
<path fill="none" stroke="black" d="M2103,-122.3C2103,-140.27 2103,-165 2103,-165 2103,-165 1687.9,-165 1687.9,-165"/>
<polygon fill="black" stroke="black" points="1687.9,-161.5 1677.9,-165 1687.9,-168.5 1687.9,-161.5"/>
</g>
<!-- SystemModule -->
<g id="node4" class="node">
<title>SystemModule</title>
<polygon fill="#8dd3c7" stroke="black" points="2035.27,-122 2032.27,-126 2011.27,-126 2008.27,-122 1934.73,-122 1934.73,-86 2035.27,-86 2035.27,-122"/>
<text text-anchor="middle" x="1985" y="-99.8" font-family="Times,serif" font-size="14.00">SystemModule</text>
</g>
<!-- SystemModule&#45;&gt;UserLoginMigrationModule -->
<g id="edge4" class="edge">
<title>SystemModule&#45;&gt;UserLoginMigrationModule</title>
<path fill="none" stroke="black" d="M1963.4,-122.03C1963.4,-138.4 1963.4,-160 1963.4,-160 1963.4,-160 1688.02,-160 1688.02,-160"/>
<polygon fill="black" stroke="black" points="1688.02,-156.5 1678.02,-160 1688.02,-163.5 1688.02,-156.5"/>
</g>
<!-- UserModule -->
<g id="node5" class="node">
<title>UserModule</title>
<polygon fill="#8dd3c7" stroke="black" points="1916.98,-122 1913.98,-126 1892.98,-126 1889.98,-122 1831.02,-122 1831.02,-86 1916.98,-86 1916.98,-122"/>
<text text-anchor="middle" x="1874" y="-99.8" font-family="Times,serif" font-size="14.00">UserModule</text>
</g>
<!-- UserModule&#45;&gt;UserLoginMigrationModule -->
<g id="edge5" class="edge">
<title>UserModule&#45;&gt;UserLoginMigrationModule</title>
<path fill="none" stroke="black" d="M1889.93,-122.19C1889.93,-137.18 1889.93,-156 1889.93,-156 1889.93,-156 1687.96,-156 1687.96,-156"/>
<polygon fill="black" stroke="black" points="1687.96,-152.5 1677.96,-156 1687.96,-159.5 1687.96,-152.5"/>
</g>
<!-- MigrationCheckService  -->
<g id="node7" class="node">
<title>MigrationCheckService </title>
<polygon fill="#fb8072" stroke="black" points="2163.74,-252 2010.26,-252 2010.26,-216 2163.74,-216 2163.74,-252"/>
<text text-anchor="middle" x="2087" y="-229.8" font-family="Times,serif" font-size="14.00">MigrationCheckService </text>
</g>
<!-- UserLoginMigrationModule&#45;&gt;MigrationCheckService  -->
<g id="edge6" class="edge">
<title>UserLoginMigrationModule&#45;&gt;MigrationCheckService </title>
<path fill="none" stroke="black" stroke-dasharray="5,2" d="M1677.86,-178C1804.39,-178 2022.88,-178 2022.88,-178 2022.88,-178 2022.88,-205.97 2022.88,-205.97"/>
<polygon fill="black" stroke="black" points="2019.38,-205.97 2022.88,-215.97 2026.38,-205.97 2019.38,-205.97"/>
</g>
<!-- SchoolMigrationService  -->
<g id="node8" class="node">
<title>SchoolMigrationService </title>
<polygon fill="#fb8072" stroke="black" points="1992.36,-252 1835.64,-252 1835.64,-216 1992.36,-216 1992.36,-252"/>
<text text-anchor="middle" x="1914" y="-229.8" font-family="Times,serif" font-size="14.00">SchoolMigrationService </text>
</g>
<!-- UserLoginMigrationModule&#45;&gt;SchoolMigrationService  -->
<g id="edge7" class="edge">
<title>UserLoginMigrationModule&#45;&gt;SchoolMigrationService </title>
<path fill="none" stroke="black" stroke-dasharray="5,2" d="M1677.84,-183C1757.61,-183 1862.88,-183 1862.88,-183 1862.88,-183 1862.88,-205.88 1862.88,-205.88"/>
<polygon fill="black" stroke="black" points="1859.38,-205.88 1862.88,-215.88 1866.38,-205.88 1859.38,-205.88"/>
</g>
<!-- UserLoginMigrationRevertService  -->
<g id="node9" class="node">
<title>UserLoginMigrationRevertService </title>
<polygon fill="#fb8072" stroke="black" points="1817.16,-252 1602.84,-252 1602.84,-216 1817.16,-216 1817.16,-252"/>
<text text-anchor="middle" x="1710" y="-229.8" font-family="Times,serif" font-size="14.00">UserLoginMigrationRevertService </text>
</g>
<!-- UserLoginMigrationModule&#45;&gt;UserLoginMigrationRevertService  -->
<g id="edge8" class="edge">
<title>UserLoginMigrationModule&#45;&gt;UserLoginMigrationRevertService </title>
<path fill="none" stroke="black" stroke-dasharray="5,2" d="M1640.19,-187.11C1640.19,-187.11 1640.19,-205.99 1640.19,-205.99"/>
<polygon fill="black" stroke="black" points="1636.69,-205.99 1640.19,-215.99 1643.69,-205.99 1636.69,-205.99"/>
</g>
<!-- UserLoginMigrationRollbackService  -->
<g id="node10" class="node">
<title>UserLoginMigrationRollbackService </title>
<polygon fill="#fb8072" stroke="black" points="1584.89,-252 1357.11,-252 1357.11,-216 1584.89,-216 1584.89,-252"/>
<text text-anchor="middle" x="1471" y="-229.8" font-family="Times,serif" font-size="14.00">UserLoginMigrationRollbackService </text>
</g>
<!-- UserLoginMigrationModule&#45;&gt;UserLoginMigrationRollbackService  -->
<g id="edge9" class="edge">
<title>UserLoginMigrationModule&#45;&gt;UserLoginMigrationRollbackService </title>
<path fill="none" stroke="black" stroke-dasharray="5,2" d="M1543.62,-187.11C1543.62,-187.11 1543.62,-205.99 1543.62,-205.99"/>
<polygon fill="black" stroke="black" points="1540.12,-205.99 1543.62,-215.99 1547.12,-205.99 1540.12,-205.99"/>
</g>
<!-- UserLoginMigrationService  -->
<g id="node11" class="node">
<title>UserLoginMigrationService </title>
<polygon fill="#fb8072" stroke="black" points="1338.84,-252 1161.16,-252 1161.16,-216 1338.84,-216 1338.84,-252"/>
<text text-anchor="middle" x="1250" y="-229.8" font-family="Times,serif" font-size="14.00">UserLoginMigrationService </text>
</g>
<!-- UserLoginMigrationModule&#45;&gt;UserLoginMigrationService  -->
<g id="edge10" class="edge">
<title>UserLoginMigrationModule&#45;&gt;UserLoginMigrationService </title>
<path fill="none" stroke="black" stroke-dasharray="5,2" d="M1502,-183C1401.26,-183 1250,-183 1250,-183 1250,-183 1250,-205.88 1250,-205.88"/>
<polygon fill="black" stroke="black" points="1246.5,-205.88 1250,-215.88 1253.5,-205.88 1246.5,-205.88"/>
</g>
<!-- UserMigrationService  -->
<g id="node12" class="node">
<title>UserMigrationService </title>
<polygon fill="#fb8072" stroke="black" points="1142.9,-252 999.1,-252 999.1,-216 1142.9,-216 1142.9,-252"/>
<text text-anchor="middle" x="1071" y="-229.8" font-family="Times,serif" font-size="14.00">UserMigrationService </text>
</g>
<!-- UserLoginMigrationModule&#45;&gt;UserMigrationService  -->
<g id="edge11" class="edge">
<title>UserLoginMigrationModule&#45;&gt;UserMigrationService </title>
<path fill="none" stroke="black" stroke-dasharray="5,2" d="M1502.08,-178C1370.29,-178 1136.8,-178 1136.8,-178 1136.8,-178 1136.8,-205.97 1136.8,-205.97"/>
<polygon fill="black" stroke="black" points="1133.3,-205.97 1136.8,-215.97 1140.3,-205.97 1133.3,-205.97"/>
</g>
<!-- MigrationCheckService -->
<g id="node13" class="node">
<title>MigrationCheckService</title>
<ellipse fill="#fdb462" stroke="black" cx="1704" cy="-104" rx="103.07" ry="18"/>
<text text-anchor="middle" x="1704" y="-99.8" font-family="Times,serif" font-size="14.00">MigrationCheckService</text>
</g>
<!-- MigrationCheckService&#45;&gt;UserLoginMigrationModule -->
<g id="edge12" class="edge">
<title>MigrationCheckService&#45;&gt;UserLoginMigrationModule</title>
<path fill="none" stroke="black" d="M1639.21,-118.1C1639.21,-118.1 1639.21,-140.72 1639.21,-140.72"/>
<polygon fill="black" stroke="black" points="1635.71,-140.72 1639.21,-150.72 1642.71,-140.72 1635.71,-140.72"/>
</g>
<!-- SchoolMigrationService -->
<g id="node14" class="node">
<title>SchoolMigrationService</title>
<ellipse fill="#fdb462" stroke="black" cx="1477" cy="-104" rx="105.38" ry="18"/>
<text text-anchor="middle" x="1477" y="-99.8" font-family="Times,serif" font-size="14.00">SchoolMigrationService</text>
</g>
<!-- SchoolMigrationService&#45;&gt;UserLoginMigrationModule -->
<g id="edge13" class="edge">
<title>SchoolMigrationService&#45;&gt;UserLoginMigrationModule</title>
<path fill="none" stroke="black" d="M1542.37,-118.43C1542.37,-118.43 1542.37,-140.89 1542.37,-140.89"/>
<polygon fill="black" stroke="black" points="1538.87,-140.89 1542.37,-150.89 1545.87,-140.89 1538.87,-140.89"/>
</g>
<!-- UserLoginMigrationRepo -->
<g id="node15" class="node">
<title>UserLoginMigrationRepo</title>
<ellipse fill="#fdb462" stroke="black" cx="1242" cy="-104" rx="111.18" ry="18"/>
<text text-anchor="middle" x="1242" y="-99.8" font-family="Times,serif" font-size="14.00">UserLoginMigrationRepo</text>
</g>
<!-- UserLoginMigrationRepo&#45;&gt;UserLoginMigrationModule -->
<g id="edge14" class="edge">
<title>UserLoginMigrationRepo&#45;&gt;UserLoginMigrationModule</title>
<path fill="none" stroke="black" d="M1346,-110.8C1346,-124.89 1346,-156 1346,-156 1346,-156 1492.26,-156 1492.26,-156"/>
<polygon fill="black" stroke="black" points="1492.26,-159.5 1502.26,-156 1492.26,-152.5 1492.26,-159.5"/>
</g>
<!-- UserLoginMigrationRevertService -->
<g id="node16" class="node">
<title>UserLoginMigrationRevertService</title>
<ellipse fill="#fdb462" stroke="black" cx="967" cy="-104" rx="145.8" ry="18"/>
<text text-anchor="middle" x="967" y="-99.8" font-family="Times,serif" font-size="14.00">UserLoginMigrationRevertService</text>
</g>
<!-- UserLoginMigrationRevertService&#45;&gt;UserLoginMigrationModule -->
<g id="edge15" class="edge">
<title>UserLoginMigrationRevertService&#45;&gt;UserLoginMigrationModule</title>
<path fill="none" stroke="black" d="M1055.85,-118.42C1055.85,-135.01 1055.85,-160 1055.85,-160 1055.85,-160 1492.1,-160 1492.1,-160"/>
<polygon fill="black" stroke="black" points="1492.1,-163.5 1502.1,-160 1492.1,-156.5 1492.1,-163.5"/>
</g>
<!-- UserLoginMigrationRollbackService -->
<g id="node17" class="node">
<title>UserLoginMigrationRollbackService</title>
<ellipse fill="#fdb462" stroke="black" cx="649" cy="-104" rx="154.55" ry="18"/>
<text text-anchor="middle" x="649" y="-99.8" font-family="Times,serif" font-size="14.00">UserLoginMigrationRollbackService</text>
</g>
<!-- UserLoginMigrationRollbackService&#45;&gt;UserLoginMigrationModule -->
<g id="edge16" class="edge">
<title>UserLoginMigrationRollbackService&#45;&gt;UserLoginMigrationModule</title>
<path fill="none" stroke="black" d="M649,-122.3C649,-140.27 649,-165 649,-165 649,-165 1491.9,-165 1491.9,-165"/>
<polygon fill="black" stroke="black" points="1491.9,-168.5 1501.9,-165 1491.9,-161.5 1491.9,-168.5"/>
</g>
<!-- UserLoginMigrationService -->
<g id="node18" class="node">
<title>UserLoginMigrationService</title>
<ellipse fill="#fdb462" stroke="black" cx="356" cy="-104" rx="119.82" ry="18"/>
<text text-anchor="middle" x="356" y="-99.8" font-family="Times,serif" font-size="14.00">UserLoginMigrationService</text>
</g>
<!-- UserLoginMigrationService&#45;&gt;UserLoginMigrationModule -->
<g id="edge17" class="edge">
<title>UserLoginMigrationService&#45;&gt;UserLoginMigrationModule</title>
<path fill="none" stroke="black" d="M356,-122.11C356,-141.34 356,-169 356,-169 356,-169 1492.24,-169 1492.24,-169"/>
<polygon fill="black" stroke="black" points="1492.24,-172.5 1502.24,-169 1492.24,-165.5 1492.24,-172.5"/>
</g>
<!-- UserMigrationService -->
<g id="node19" class="node">
<title>UserMigrationService</title>
<ellipse fill="#fdb462" stroke="black" cx="121" cy="-104" rx="96.68" ry="18"/>
<text text-anchor="middle" x="121" y="-99.8" font-family="Times,serif" font-size="14.00">UserMigrationService</text>
</g>
<!-- UserMigrationService&#45;&gt;UserLoginMigrationModule -->
<g id="edge18" class="edge">
<title>UserMigrationService&#45;&gt;UserLoginMigrationModule</title>
<path fill="none" stroke="black" d="M121,-122.03C121,-142.77 121,-174 121,-174 121,-174 1492.23,-174 1492.23,-174"/>
<polygon fill="black" stroke="black" points="1492.23,-177.5 1502.23,-174 1492.23,-170.5 1492.23,-177.5"/>
</g>
</g>
</svg>
