<?xml version="1.0" encoding="UTF-8" standalone="no"?>
<!DOCTYPE svg PUBLIC "-//W3C//DTD SVG 1.1//EN"
 "http://www.w3.org/Graphics/SVG/1.1/DTD/svg11.dtd">
<!-- Generated by graphviz version 2.47.0 (20210316.0004)
 -->
<!-- Title: dependencies Pages: 1 -->
<svg width="2288pt" height="284pt"
 viewBox="0.00 0.00 2288.00 284.00" xmlns="http://www.w3.org/2000/svg" xmlns:xlink="http://www.w3.org/1999/xlink">
<g id="graph0" class="graph" transform="scale(1 1) rotate(0) translate(4 280)">
<title>dependencies</title>
<polygon fill="white" stroke="transparent" points="-4,4 -4,-280 2284,-280 2284,4 -4,4"/>
<text text-anchor="start" x="1119.01" y="-42.4" font-family="Times-12" font-weight="bold" font-size="14.00">Legend</text>
<polygon fill="#ffffb3" stroke="transparent" points="906,-10 906,-30 926,-30 926,-10 906,-10"/>
<text text-anchor="start" x="929.63" y="-15.4" font-family="Times-12" font-size="14.00"> &#160;Declarations</text>
<polygon fill="#8dd3c7" stroke="transparent" points="1019,-10 1019,-30 1039,-30 1039,-10 1019,-10"/>
<text text-anchor="start" x="1042.73" y="-15.4" font-family="Times-12" font-size="14.00"> &#160;Module</text>
<polygon fill="#80b1d3" stroke="transparent" points="1105,-10 1105,-30 1125,-30 1125,-10 1105,-10"/>
<text text-anchor="start" x="1128.78" y="-15.4" font-family="Times-12" font-size="14.00"> &#160;Bootstrap</text>
<polygon fill="#fdb462" stroke="transparent" points="1202,-10 1202,-30 1222,-30 1222,-10 1202,-10"/>
<text text-anchor="start" x="1225.67" y="-15.4" font-family="Times-12" font-size="14.00"> &#160;Providers</text>
<polygon fill="#fb8072" stroke="transparent" points="1298,-10 1298,-30 1318,-30 1318,-10 1298,-10"/>
<text text-anchor="start" x="1321.73" y="-15.4" font-family="Times-12" font-size="14.00"> &#160;Exports</text>
<g id="clust1" class="cluster">
<title>cluster_UserLoginMigrationModule</title>
<polygon fill="none" stroke="black" stroke-dasharray="1,5" points="8,-70 8,-268 2272,-268 2272,-70 8,-70"/>
</g>
<g id="clust6" class="cluster">
<title>cluster_UserLoginMigrationModule_providers</title>
<polygon fill="none" stroke="black" points="759,-78 759,-130 2264,-130 2264,-78 759,-78"/>
</g>
<g id="clust4" class="cluster">
<title>cluster_UserLoginMigrationModule_exports</title>
<polygon fill="none" stroke="black" points="292,-208 292,-260 1251,-260 1251,-208 292,-208"/>
</g>
<g id="clust3" class="cluster">
<title>cluster_UserLoginMigrationModule_imports</title>
<polygon fill="none" stroke="black" points="16,-78 16,-130 751,-130 751,-78 16,-78"/>
</g>
<!-- AccountModule -->
<g id="node1" class="node">
<title>AccountModule</title>
<polygon fill="#8dd3c7" stroke="black" points="743.48,-122 740.48,-126 719.48,-126 716.48,-122 636.52,-122 636.52,-86 743.48,-86 743.48,-122"/>
<text text-anchor="middle" x="690" y="-99.8" font-family="Times,serif" font-size="14.00">AccountModule</text>
</g>
<!-- UserLoginMigrationModule -->
<g id="node7" class="node">
<title>UserLoginMigrationModule</title>
<polygon fill="#8dd3c7" stroke="black" points="864.91,-187 861.91,-191 840.91,-191 837.91,-187 689.09,-187 689.09,-151 864.91,-151 864.91,-187"/>
<text text-anchor="middle" x="777" y="-164.8" font-family="Times,serif" font-size="14.00">UserLoginMigrationModule</text>
</g>
<!-- AccountModule&#45;&gt;UserLoginMigrationModule -->
<g id="edge1" class="edge">
<title>AccountModule&#45;&gt;UserLoginMigrationModule</title>
<path fill="none" stroke="black" d="M716.39,-122.11C716.39,-122.11 716.39,-140.99 716.39,-140.99"/>
<polygon fill="black" stroke="black" points="712.89,-140.99 716.39,-150.99 719.89,-140.99 712.89,-140.99"/>
</g>
<!-- AuthorizationModule -->
<g id="node2" class="node">
<title>AuthorizationModule</title>
<polygon fill="#8dd3c7" stroke="black" points="618.81,-122 615.81,-126 594.81,-126 591.81,-122 481.19,-122 481.19,-86 618.81,-86 618.81,-122"/>
<text text-anchor="middle" x="550" y="-99.8" font-family="Times,serif" font-size="14.00">AuthorizationModule</text>
</g>
<!-- AuthorizationModule&#45;&gt;UserLoginMigrationModule -->
<g id="edge2" class="edge">
<title>AuthorizationModule&#45;&gt;UserLoginMigrationModule</title>
<path fill="none" stroke="black" d="M550,-122.19C550,-137.18 550,-156 550,-156 550,-156 679.24,-156 679.24,-156"/>
<polygon fill="black" stroke="black" points="679.24,-159.5 689.24,-156 679.24,-152.5 679.24,-159.5"/>
</g>
<!-- LoggerModule -->
<g id="node3" class="node">
<title>LoggerModule</title>
<polygon fill="#8dd3c7" stroke="black" points="462.98,-122 459.98,-126 438.98,-126 435.98,-122 363.02,-122 363.02,-86 462.98,-86 462.98,-122"/>
<text text-anchor="middle" x="413" y="-99.8" font-family="Times,serif" font-size="14.00">LoggerModule</text>
</g>
<!-- LoggerModule&#45;&gt;UserLoginMigrationModule -->
<g id="edge3" class="edge">
<title>LoggerModule&#45;&gt;UserLoginMigrationModule</title>
<path fill="none" stroke="black" d="M453.14,-122.03C453.14,-138.4 453.14,-160 453.14,-160 453.14,-160 678.93,-160 678.93,-160"/>
<polygon fill="black" stroke="black" points="678.93,-163.5 688.93,-160 678.93,-156.5 678.93,-163.5"/>
</g>
<!-- SchoolModule -->
<g id="node4" class="node">
<title>SchoolModule</title>
<polygon fill="#8dd3c7" stroke="black" points="345.44,-122 342.44,-126 321.44,-126 318.44,-122 246.56,-122 246.56,-86 345.44,-86 345.44,-122"/>
<text text-anchor="middle" x="296" y="-99.8" font-family="Times,serif" font-size="14.00">SchoolModule</text>
</g>
<!-- SchoolModule&#45;&gt;UserLoginMigrationModule -->
<g id="edge4" class="edge">
<title>SchoolModule&#45;&gt;UserLoginMigrationModule</title>
<path fill="none" stroke="black" d="M322.64,-122.3C322.64,-140.27 322.64,-165 322.64,-165 322.64,-165 679.12,-165 679.12,-165"/>
<polygon fill="black" stroke="black" points="679.12,-168.5 689.12,-165 679.12,-161.5 679.12,-168.5"/>
</g>
<!-- SystemModule -->
<g id="node5" class="node">
<title>SystemModule</title>
<polygon fill="#8dd3c7" stroke="black" points="228.27,-122 225.27,-126 204.27,-126 201.27,-122 127.73,-122 127.73,-86 228.27,-86 228.27,-122"/>
<text text-anchor="middle" x="178" y="-99.8" font-family="Times,serif" font-size="14.00">SystemModule</text>
</g>
<!-- SystemModule&#45;&gt;UserLoginMigrationModule -->
<g id="edge5" class="edge">
<title>SystemModule&#45;&gt;UserLoginMigrationModule</title>
<path fill="none" stroke="black" d="M178,-122.11C178,-141.34 178,-169 178,-169 178,-169 679.26,-169 679.26,-169"/>
<polygon fill="black" stroke="black" points="679.26,-172.5 689.26,-169 679.26,-165.5 679.26,-172.5"/>
</g>
<!-- UserModule -->
<g id="node6" class="node">
<title>UserModule</title>
<polygon fill="#8dd3c7" stroke="black" points="109.98,-122 106.98,-126 85.98,-126 82.98,-122 24.02,-122 24.02,-86 109.98,-86 109.98,-122"/>
<text text-anchor="middle" x="67" y="-99.8" font-family="Times,serif" font-size="14.00">UserModule</text>
</g>
<!-- UserModule&#45;&gt;UserLoginMigrationModule -->
<g id="edge6" class="edge">
<title>UserModule&#45;&gt;UserLoginMigrationModule</title>
<path fill="none" stroke="black" d="M67,-122.03C67,-142.77 67,-174 67,-174 67,-174 679.23,-174 679.23,-174"/>
<polygon fill="black" stroke="black" points="679.23,-177.5 689.23,-174 679.23,-170.5 679.23,-177.5"/>
</g>
<!-- MigrationCheckService  -->
<g id="node8" class="node">
<title>MigrationCheckService </title>
<polygon fill="#fb8072" stroke="black" points="1242.74,-252 1089.26,-252 1089.26,-216 1242.74,-216 1242.74,-252"/>
<text text-anchor="middle" x="1166" y="-229.8" font-family="Times,serif" font-size="14.00">MigrationCheckService </text>
</g>
<!-- UserLoginMigrationModule&#45;&gt;MigrationCheckService  -->
<g id="edge7" class="edge">
<title>UserLoginMigrationModule&#45;&gt;MigrationCheckService </title>
<path fill="none" stroke="black" stroke-dasharray="5,2" d="M864.95,-178C976.39,-178 1154.15,-178 1154.15,-178 1154.15,-178 1154.15,-205.97 1154.15,-205.97"/>
<polygon fill="black" stroke="black" points="1150.65,-205.97 1154.15,-215.97 1157.65,-205.97 1150.65,-205.97"/>
</g>
<!-- SchoolMigrationService  -->
<g id="node9" class="node">
<title>SchoolMigrationService </title>
<polygon fill="#fb8072" stroke="black" points="1071.36,-252 914.64,-252 914.64,-216 1071.36,-216 1071.36,-252"/>
<text text-anchor="middle" x="993" y="-229.8" font-family="Times,serif" font-size="14.00">SchoolMigrationService </text>
</g>
<!-- UserLoginMigrationModule&#45;&gt;SchoolMigrationService  -->
<g id="edge8" class="edge">
<title>UserLoginMigrationModule&#45;&gt;SchoolMigrationService </title>
<path fill="none" stroke="black" stroke-dasharray="5,2" d="M864.95,-183C902.49,-183 937.83,-183 937.83,-183 937.83,-183 937.83,-205.88 937.83,-205.88"/>
<polygon fill="black" stroke="black" points="934.33,-205.88 937.83,-215.88 941.33,-205.88 934.33,-205.88"/>
</g>
<!-- StartUserLoginMigrationCheckService  -->
<g id="node10" class="node">
<title>StartUserLoginMigrationCheckService </title>
<polygon fill="#fb8072" stroke="black" points="896.54,-252 657.46,-252 657.46,-216 896.54,-216 896.54,-252"/>
<text text-anchor="middle" x="777" y="-229.8" font-family="Times,serif" font-size="14.00">StartUserLoginMigrationCheckService </text>
</g>
<!-- UserLoginMigrationModule&#45;&gt;StartUserLoginMigrationCheckService  -->
<g id="edge9" class="edge">
<title>UserLoginMigrationModule&#45;&gt;StartUserLoginMigrationCheckService </title>
<path fill="none" stroke="black" stroke-dasharray="5,2" d="M777,-187.11C777,-187.11 777,-205.99 777,-205.99"/>
<polygon fill="black" stroke="black" points="773.5,-205.99 777,-215.99 780.5,-205.99 773.5,-205.99"/>
</g>
<!-- UserLoginMigrationService  -->
<g id="node11" class="node">
<title>UserLoginMigrationService </title>
<polygon fill="#fb8072" stroke="black" points="639.84,-252 462.16,-252 462.16,-216 639.84,-216 639.84,-252"/>
<text text-anchor="middle" x="551" y="-229.8" font-family="Times,serif" font-size="14.00">UserLoginMigrationService </text>
</g>
<!-- UserLoginMigrationModule&#45;&gt;UserLoginMigrationService  -->
<g id="edge10" class="edge">
<title>UserLoginMigrationModule&#45;&gt;UserLoginMigrationService </title>
<path fill="none" stroke="black" stroke-dasharray="5,2" d="M689.22,-183C656.7,-183 627.58,-183 627.58,-183 627.58,-183 627.58,-205.88 627.58,-205.88"/>
<polygon fill="black" stroke="black" points="624.08,-205.88 627.58,-215.88 631.08,-205.88 624.08,-205.88"/>
</g>
<!-- UserMigrationService  -->
<g id="node12" class="node">
<title>UserMigrationService </title>
<polygon fill="#fb8072" stroke="black" points="443.9,-252 300.1,-252 300.1,-216 443.9,-216 443.9,-252"/>
<text text-anchor="middle" x="372" y="-229.8" font-family="Times,serif" font-size="14.00">UserMigrationService </text>
</g>
<!-- UserLoginMigrationModule&#45;&gt;UserMigrationService  -->
<g id="edge11" class="edge">
<title>UserLoginMigrationModule&#45;&gt;UserMigrationService </title>
<path fill="none" stroke="black" stroke-dasharray="5,2" d="M688.95,-178C578.52,-178 403.48,-178 403.48,-178 403.48,-178 403.48,-205.97 403.48,-205.97"/>
<polygon fill="black" stroke="black" points="399.98,-205.97 403.48,-215.97 406.98,-205.97 399.98,-205.97"/>
</g>
<!-- MigrationCheckService -->
<g id="node13" class="node">
<title>MigrationCheckService</title>
<ellipse fill="#fdb462" stroke="black" cx="2153" cy="-104" rx="103.07" ry="18"/>
<text text-anchor="middle" x="2153" y="-99.8" font-family="Times,serif" font-size="14.00">MigrationCheckService</text>
</g>
<!-- MigrationCheckService&#45;&gt;UserLoginMigrationModule -->
<g id="edge12" class="edge">
<title>MigrationCheckService&#45;&gt;UserLoginMigrationModule</title>
<path fill="none" stroke="black" d="M2153,-122.03C2153,-142.77 2153,-174 2153,-174 2153,-174 874.91,-174 874.91,-174"/>
<polygon fill="black" stroke="black" points="874.91,-170.5 864.91,-174 874.91,-177.5 874.91,-170.5"/>
</g>
<!-- SchoolMigrationService -->
<g id="node14" class="node">
<title>SchoolMigrationService</title>
<ellipse fill="#fdb462" stroke="black" cx="1926" cy="-104" rx="105.38" ry="18"/>
<text text-anchor="middle" x="1926" y="-99.8" font-family="Times,serif" font-size="14.00">SchoolMigrationService</text>
</g>
<!-- SchoolMigrationService&#45;&gt;UserLoginMigrationModule -->
<g id="edge13" class="edge">
<title>SchoolMigrationService&#45;&gt;UserLoginMigrationModule</title>
<path fill="none" stroke="black" d="M1926,-122.11C1926,-141.34 1926,-169 1926,-169 1926,-169 874.78,-169 874.78,-169"/>
<polygon fill="black" stroke="black" points="874.78,-165.5 864.78,-169 874.78,-172.5 874.78,-165.5"/>
</g>
<!-- StartUserLoginMigrationCheckService -->
<g id="node15" class="node">
<title>StartUserLoginMigrationCheckService</title>
<ellipse fill="#fdb462" stroke="black" cx="1640" cy="-104" rx="162.64" ry="18"/>
<text text-anchor="middle" x="1640" y="-99.8" font-family="Times,serif" font-size="14.00">StartUserLoginMigrationCheckService</text>
</g>
<!-- StartUserLoginMigrationCheckService&#45;&gt;UserLoginMigrationModule -->
<g id="edge14" class="edge">
<title>StartUserLoginMigrationCheckService&#45;&gt;UserLoginMigrationModule</title>
<path fill="none" stroke="black" d="M1640,-122.3C1640,-140.27 1640,-165 1640,-165 1640,-165 874.9,-165 874.9,-165"/>
<polygon fill="black" stroke="black" points="874.9,-161.5 864.9,-165 874.9,-168.5 874.9,-161.5"/>
</g>
<!-- UserLoginMigrationRepo -->
<g id="node16" class="node">
<title>UserLoginMigrationRepo</title>
<ellipse fill="#fdb462" stroke="black" cx="1348" cy="-104" rx="111.18" ry="18"/>
<text text-anchor="middle" x="1348" y="-99.8" font-family="Times,serif" font-size="14.00">UserLoginMigrationRepo</text>
</g>
<!-- UserLoginMigrationRepo&#45;&gt;UserLoginMigrationModule -->
<g id="edge15" class="edge">
<title>UserLoginMigrationRepo&#45;&gt;UserLoginMigrationModule</title>
<path fill="none" stroke="black" d="M1350.98,-122.03C1350.98,-138.4 1350.98,-160 1350.98,-160 1350.98,-160 874.8,-160 874.8,-160"/>
<polygon fill="black" stroke="black" points="874.8,-156.5 864.8,-160 874.8,-163.5 874.8,-156.5"/>
</g>
<!-- UserLoginMigrationService -->
<g id="node17" class="node">
<title>UserLoginMigrationService</title>
<ellipse fill="#fdb462" stroke="black" cx="1099" cy="-104" rx="119.82" ry="18"/>
<text text-anchor="middle" x="1099" y="-99.8" font-family="Times,serif" font-size="14.00">UserLoginMigrationService</text>
</g>
<!-- UserLoginMigrationService&#45;&gt;UserLoginMigrationModule -->
<g id="edge16" class="edge">
<title>UserLoginMigrationService&#45;&gt;UserLoginMigrationModule</title>
<path fill="none" stroke="black" d="M1025.13,-118.21C1025.13,-133.61 1025.13,-156 1025.13,-156 1025.13,-156 874.83,-156 874.83,-156"/>
<polygon fill="black" stroke="black" points="874.83,-152.5 864.83,-156 874.83,-159.5 874.83,-152.5"/>
</g>
<!-- UserMigrationService -->
<g id="node18" class="node">
<title>UserMigrationService</title>
<ellipse fill="#fdb462" stroke="black" cx="864" cy="-104" rx="96.68" ry="18"/>
<text text-anchor="middle" x="864" y="-99.8" font-family="Times,serif" font-size="14.00">UserMigrationService</text>
</g>
<!-- UserMigrationService&#45;&gt;UserLoginMigrationModule -->
<g id="edge17" class="edge">
<title>UserMigrationService&#45;&gt;UserLoginMigrationModule</title>
<path fill="none" stroke="black" d="M815.93,-119.73C815.93,-119.73 815.93,-140.65 815.93,-140.65"/>
<polygon fill="black" stroke="black" points="812.43,-140.65 815.93,-150.65 819.43,-140.65 812.43,-140.65"/>
</g>
</g>
</svg>
