<?xml version="1.0" encoding="UTF-8" standalone="no"?>
<!DOCTYPE svg PUBLIC "-//W3C//DTD SVG 1.1//EN"
 "http://www.w3.org/Graphics/SVG/1.1/DTD/svg11.dtd">
<!-- Generated by graphviz version 2.47.0 (20210316.0004)
 -->
<!-- Title: dependencies Pages: 1 -->
<svg width="2598pt" height="284pt"
 viewBox="0.00 0.00 2598.00 284.00" xmlns="http://www.w3.org/2000/svg" xmlns:xlink="http://www.w3.org/1999/xlink">
<g id="graph0" class="graph" transform="scale(1 1) rotate(0) translate(4 280)">
<title>dependencies</title>
<polygon fill="white" stroke="transparent" points="-4,4 -4,-280 2594,-280 2594,4 -4,4"/>
<text text-anchor="start" x="1274.01" y="-42.4" font-family="Times-12" font-weight="bold" font-size="14.00">Legend</text>
<polygon fill="#ffffb3" stroke="transparent" points="1061,-10 1061,-30 1081,-30 1081,-10 1061,-10"/>
<text text-anchor="start" x="1084.63" y="-15.4" font-family="Times-12" font-size="14.00"> &#160;Declarations</text>
<polygon fill="#8dd3c7" stroke="transparent" points="1174,-10 1174,-30 1194,-30 1194,-10 1174,-10"/>
<text text-anchor="start" x="1197.73" y="-15.4" font-family="Times-12" font-size="14.00"> &#160;Module</text>
<polygon fill="#80b1d3" stroke="transparent" points="1260,-10 1260,-30 1280,-30 1280,-10 1260,-10"/>
<text text-anchor="start" x="1283.78" y="-15.4" font-family="Times-12" font-size="14.00"> &#160;Bootstrap</text>
<polygon fill="#fdb462" stroke="transparent" points="1357,-10 1357,-30 1377,-30 1377,-10 1357,-10"/>
<text text-anchor="start" x="1380.67" y="-15.4" font-family="Times-12" font-size="14.00"> &#160;Providers</text>
<polygon fill="#fb8072" stroke="transparent" points="1453,-10 1453,-30 1473,-30 1473,-10 1453,-10"/>
<text text-anchor="start" x="1476.73" y="-15.4" font-family="Times-12" font-size="14.00"> &#160;Exports</text>
<g id="clust1" class="cluster">
<title>cluster_UserLoginMigrationModule</title>
<polygon fill="none" stroke="black" stroke-dasharray="1,5" points="8,-70 8,-268 2582,-268 2582,-70 8,-70"/>
</g>
<g id="clust4" class="cluster">
<title>cluster_UserLoginMigrationModule_exports</title>
<polygon fill="none" stroke="black" points="269,-208 269,-260 1461,-260 1461,-208 269,-208"/>
</g>
<g id="clust6" class="cluster">
<title>cluster_UserLoginMigrationModule_providers</title>
<polygon fill="none" stroke="black" points="759,-78 759,-130 2574,-130 2574,-78 759,-78"/>
</g>
<g id="clust3" class="cluster">
<title>cluster_UserLoginMigrationModule_imports</title>
<polygon fill="none" stroke="black" points="16,-78 16,-130 751,-130 751,-78 16,-78"/>
</g>
<!-- AccountModule -->
<g id="node1" class="node">
<title>AccountModule</title>
<polygon fill="#8dd3c7" stroke="black" points="743.48,-122 740.48,-126 719.48,-126 716.48,-122 636.52,-122 636.52,-86 743.48,-86 743.48,-122"/>
<text text-anchor="middle" x="690" y="-99.8" font-family="Times,serif" font-size="14.00">AccountModule</text>
</g>
<!-- UserLoginMigrationModule -->
<g id="node7" class="node">
<title>UserLoginMigrationModule</title>
<polygon fill="#8dd3c7" stroke="black" points="951.91,-187 948.91,-191 927.91,-191 924.91,-187 776.09,-187 776.09,-151 951.91,-151 951.91,-187"/>
<text text-anchor="middle" x="864" y="-164.8" font-family="Times,serif" font-size="14.00">UserLoginMigrationModule</text>
</g>
<!-- AccountModule&#45;&gt;UserLoginMigrationModule -->
<g id="edge1" class="edge">
<title>AccountModule&#45;&gt;UserLoginMigrationModule</title>
<path fill="none" stroke="black" d="M690,-122.12C690,-136.78 690,-155 690,-155 690,-155 766.24,-155 766.24,-155"/>
<polygon fill="black" stroke="black" points="766.24,-158.5 776.24,-155 766.24,-151.5 766.24,-158.5"/>
</g>
<!-- AuthorizationModule -->
<g id="node2" class="node">
<title>AuthorizationModule</title>
<polygon fill="#8dd3c7" stroke="black" points="618.81,-122 615.81,-126 594.81,-126 591.81,-122 481.19,-122 481.19,-86 618.81,-86 618.81,-122"/>
<text text-anchor="middle" x="550" y="-99.8" font-family="Times,serif" font-size="14.00">AuthorizationModule</text>
</g>
<!-- AuthorizationModule&#45;&gt;UserLoginMigrationModule -->
<g id="edge2" class="edge">
<title>AuthorizationModule&#45;&gt;UserLoginMigrationModule</title>
<path fill="none" stroke="black" d="M571.56,-122.01C571.56,-138.05 571.56,-159 571.56,-159 571.56,-159 766.26,-159 766.26,-159"/>
<polygon fill="black" stroke="black" points="766.26,-162.5 776.26,-159 766.26,-155.5 766.26,-162.5"/>
</g>
<!-- LoggerModule -->
<g id="node3" class="node">
<title>LoggerModule</title>
<polygon fill="#8dd3c7" stroke="black" points="462.98,-122 459.98,-126 438.98,-126 435.98,-122 363.02,-122 363.02,-86 462.98,-86 462.98,-122"/>
<text text-anchor="middle" x="413" y="-99.8" font-family="Times,serif" font-size="14.00">LoggerModule</text>
</g>
<!-- LoggerModule&#45;&gt;UserLoginMigrationModule -->
<g id="edge3" class="edge">
<title>LoggerModule&#45;&gt;UserLoginMigrationModule</title>
<path fill="none" stroke="black" d="M451.16,-122.02C451.16,-139.37 451.16,-163 451.16,-163 451.16,-163 766.19,-163 766.19,-163"/>
<polygon fill="black" stroke="black" points="766.19,-166.5 776.19,-163 766.19,-159.5 766.19,-166.5"/>
</g>
<!-- SchoolModule -->
<g id="node4" class="node">
<title>SchoolModule</title>
<polygon fill="#8dd3c7" stroke="black" points="345.44,-122 342.44,-126 321.44,-126 318.44,-122 246.56,-122 246.56,-86 345.44,-86 345.44,-122"/>
<text text-anchor="middle" x="296" y="-99.8" font-family="Times,serif" font-size="14.00">SchoolModule</text>
</g>
<!-- SchoolModule&#45;&gt;UserLoginMigrationModule -->
<g id="edge4" class="edge">
<title>SchoolModule&#45;&gt;UserLoginMigrationModule</title>
<path fill="none" stroke="black" d="M311.14,-122.22C311.14,-140.83 311.14,-167 311.14,-167 311.14,-167 766.09,-167 766.09,-167"/>
<polygon fill="black" stroke="black" points="766.09,-170.5 776.09,-167 766.09,-163.5 766.09,-170.5"/>
</g>
<!-- SystemModule -->
<g id="node5" class="node">
<title>SystemModule</title>
<polygon fill="#8dd3c7" stroke="black" points="228.27,-122 225.27,-126 204.27,-126 201.27,-122 127.73,-122 127.73,-86 228.27,-86 228.27,-122"/>
<text text-anchor="middle" x="178" y="-99.8" font-family="Times,serif" font-size="14.00">SystemModule</text>
</g>
<!-- SystemModule&#45;&gt;UserLoginMigrationModule -->
<g id="edge5" class="edge">
<title>SystemModule&#45;&gt;UserLoginMigrationModule</title>
<path fill="none" stroke="black" d="M178,-122.31C178,-142.15 178,-171 178,-171 178,-171 766.07,-171 766.07,-171"/>
<polygon fill="black" stroke="black" points="766.07,-174.5 776.07,-171 766.07,-167.5 766.07,-174.5"/>
</g>
<!-- UserModule -->
<g id="node6" class="node">
<title>UserModule</title>
<polygon fill="#8dd3c7" stroke="black" points="109.98,-122 106.98,-126 85.98,-126 82.98,-122 24.02,-122 24.02,-86 109.98,-86 109.98,-122"/>
<text text-anchor="middle" x="67" y="-99.8" font-family="Times,serif" font-size="14.00">UserModule</text>
</g>
<!-- UserModule&#45;&gt;UserLoginMigrationModule -->
<g id="edge6" class="edge">
<title>UserModule&#45;&gt;UserLoginMigrationModule</title>
<path fill="none" stroke="black" d="M67,-122.28C67,-143.32 67,-175 67,-175 67,-175 766.04,-175 766.04,-175"/>
<polygon fill="black" stroke="black" points="766.04,-178.5 776.04,-175 766.04,-171.5 766.04,-178.5"/>
</g>
<!-- MigrationCheckService  -->
<g id="node8" class="node">
<title>MigrationCheckService </title>
<polygon fill="#fb8072" stroke="black" points="1452.74,-252 1299.26,-252 1299.26,-216 1452.74,-216 1452.74,-252"/>
<text text-anchor="middle" x="1376" y="-229.8" font-family="Times,serif" font-size="14.00">MigrationCheckService </text>
</g>
<!-- UserLoginMigrationModule&#45;&gt;MigrationCheckService  -->
<g id="edge7" class="edge">
<title>UserLoginMigrationModule&#45;&gt;MigrationCheckService </title>
<path fill="none" stroke="black" stroke-dasharray="5,2" d="M951.72,-179C1098.04,-179 1376,-179 1376,-179 1376,-179 1376,-205.99 1376,-205.99"/>
<polygon fill="black" stroke="black" points="1372.5,-205.99 1376,-215.99 1379.5,-205.99 1372.5,-205.99"/>
</g>
<!-- SchoolMigrationService  -->
<g id="node9" class="node">
<title>SchoolMigrationService </title>
<polygon fill="#fb8072" stroke="black" points="1281.36,-252 1124.64,-252 1124.64,-216 1281.36,-216 1281.36,-252"/>
<text text-anchor="middle" x="1203" y="-229.8" font-family="Times,serif" font-size="14.00">SchoolMigrationService </text>
</g>
<!-- UserLoginMigrationModule&#45;&gt;SchoolMigrationService  -->
<g id="edge8" class="edge">
<title>UserLoginMigrationModule&#45;&gt;SchoolMigrationService </title>
<path fill="none" stroke="black" stroke-dasharray="5,2" d="M951.81,-183C1042.81,-183 1171.87,-183 1171.87,-183 1171.87,-183 1171.87,-205.88 1171.87,-205.88"/>
<polygon fill="black" stroke="black" points="1168.37,-205.88 1171.87,-215.88 1175.37,-205.88 1168.37,-205.88"/>
</g>
<!-- StartUserLoginMigrationCheckService  -->
<g id="node10" class="node">
<title>StartUserLoginMigrationCheckService </title>
<polygon fill="#fb8072" stroke="black" points="1106.54,-252 867.46,-252 867.46,-216 1106.54,-216 1106.54,-252"/>
<text text-anchor="middle" x="987" y="-229.8" font-family="Times,serif" font-size="14.00">StartUserLoginMigrationCheckService </text>
</g>
<!-- UserLoginMigrationModule&#45;&gt;StartUserLoginMigrationCheckService  -->
<g id="edge9" class="edge">
<title>UserLoginMigrationModule&#45;&gt;StartUserLoginMigrationCheckService </title>
<path fill="none" stroke="black" stroke-dasharray="5,2" d="M909.47,-187.11C909.47,-187.11 909.47,-205.99 909.47,-205.99"/>
<polygon fill="black" stroke="black" points="905.97,-205.99 909.47,-215.99 912.97,-205.99 905.97,-205.99"/>
</g>
<!-- UserLoginMigrationRevertService  -->
<g id="node11" class="node">
<title>UserLoginMigrationRevertService </title>
<polygon fill="#fb8072" stroke="black" points="849.16,-252 634.84,-252 634.84,-216 849.16,-216 849.16,-252"/>
<text text-anchor="middle" x="742" y="-229.8" font-family="Times,serif" font-size="14.00">UserLoginMigrationRevertService </text>
</g>
<!-- UserLoginMigrationModule&#45;&gt;UserLoginMigrationRevertService  -->
<g id="edge10" class="edge">
<title>UserLoginMigrationModule&#45;&gt;UserLoginMigrationRevertService </title>
<path fill="none" stroke="black" stroke-dasharray="5,2" d="M812.81,-187.11C812.81,-187.11 812.81,-205.99 812.81,-205.99"/>
<polygon fill="black" stroke="black" points="809.31,-205.99 812.81,-215.99 816.31,-205.99 809.31,-205.99"/>
</g>
<!-- UserLoginMigrationService  -->
<g id="node12" class="node">
<title>UserLoginMigrationService </title>
<polygon fill="#fb8072" stroke="black" points="616.84,-252 439.16,-252 439.16,-216 616.84,-216 616.84,-252"/>
<text text-anchor="middle" x="528" y="-229.8" font-family="Times,serif" font-size="14.00">UserLoginMigrationService </text>
</g>
<!-- UserLoginMigrationModule&#45;&gt;UserLoginMigrationService  -->
<g id="edge11" class="edge">
<title>UserLoginMigrationModule&#45;&gt;UserLoginMigrationService </title>
<path fill="none" stroke="black" stroke-dasharray="5,2" d="M776.19,-183C676.18,-183 526.45,-183 526.45,-183 526.45,-183 526.45,-205.88 526.45,-205.88"/>
<polygon fill="black" stroke="black" points="522.95,-205.88 526.45,-215.88 529.95,-205.88 522.95,-205.88"/>
</g>
<!-- UserMigrationService  -->
<g id="node13" class="node">
<title>UserMigrationService </title>
<polygon fill="#fb8072" stroke="black" points="420.9,-252 277.1,-252 277.1,-216 420.9,-216 420.9,-252"/>
<text text-anchor="middle" x="349" y="-229.8" font-family="Times,serif" font-size="14.00">UserMigrationService </text>
</g>
<!-- UserLoginMigrationModule&#45;&gt;UserMigrationService  -->
<g id="edge12" class="edge">
<title>UserLoginMigrationModule&#45;&gt;UserMigrationService </title>
<path fill="none" stroke="black" stroke-dasharray="5,2" d="M776.05,-179C639.48,-179 391.98,-179 391.98,-179 391.98,-179 391.98,-205.99 391.98,-205.99"/>
<polygon fill="black" stroke="black" points="388.48,-205.99 391.98,-215.99 395.48,-205.99 388.48,-205.99"/>
</g>
<!-- MigrationCheckService -->
<g id="node14" class="node">
<title>MigrationCheckService</title>
<ellipse fill="#fdb462" stroke="black" cx="2463" cy="-104" rx="103.07" ry="18"/>
<text text-anchor="middle" x="2463" y="-99.8" font-family="Times,serif" font-size="14.00">MigrationCheckService</text>
</g>
<!-- MigrationCheckService&#45;&gt;UserLoginMigrationModule -->
<g id="edge13" class="edge">
<title>MigrationCheckService&#45;&gt;UserLoginMigrationModule</title>
<path fill="none" stroke="black" d="M2463,-122.28C2463,-143.32 2463,-175 2463,-175 2463,-175 961.96,-175 961.96,-175"/>
<polygon fill="black" stroke="black" points="961.96,-171.5 951.96,-175 961.96,-178.5 961.96,-171.5"/>
</g>
<!-- SchoolMigrationService -->
<g id="node15" class="node">
<title>SchoolMigrationService</title>
<ellipse fill="#fdb462" stroke="black" cx="2236" cy="-104" rx="105.38" ry="18"/>
<text text-anchor="middle" x="2236" y="-99.8" font-family="Times,serif" font-size="14.00">SchoolMigrationService</text>
</g>
<!-- SchoolMigrationService&#45;&gt;UserLoginMigrationModule -->
<g id="edge14" class="edge">
<title>SchoolMigrationService&#45;&gt;UserLoginMigrationModule</title>
<path fill="none" stroke="black" d="M2236,-122.31C2236,-142.15 2236,-171 2236,-171 2236,-171 961.91,-171 961.91,-171"/>
<polygon fill="black" stroke="black" points="961.91,-167.5 951.91,-171 961.91,-174.5 961.91,-167.5"/>
</g>
<!-- StartUserLoginMigrationCheckService -->
<g id="node16" class="node">
<title>StartUserLoginMigrationCheckService</title>
<ellipse fill="#fdb462" stroke="black" cx="1950" cy="-104" rx="162.64" ry="18"/>
<text text-anchor="middle" x="1950" y="-99.8" font-family="Times,serif" font-size="14.00">StartUserLoginMigrationCheckService</text>
</g>
<!-- StartUserLoginMigrationCheckService&#45;&gt;UserLoginMigrationModule -->
<g id="edge15" class="edge">
<title>StartUserLoginMigrationCheckService&#45;&gt;UserLoginMigrationModule</title>
<path fill="none" stroke="black" d="M1950,-122.22C1950,-140.83 1950,-167 1950,-167 1950,-167 961.95,-167 961.95,-167"/>
<polygon fill="black" stroke="black" points="961.95,-163.5 951.95,-167 961.95,-170.5 961.95,-163.5"/>
</g>
<!-- UserLoginMigrationRepo -->
<g id="node17" class="node">
<title>UserLoginMigrationRepo</title>
<ellipse fill="#fdb462" stroke="black" cx="1658" cy="-104" rx="111.18" ry="18"/>
<text text-anchor="middle" x="1658" y="-99.8" font-family="Times,serif" font-size="14.00">UserLoginMigrationRepo</text>
</g>
<!-- UserLoginMigrationRepo&#45;&gt;UserLoginMigrationModule -->
<g id="edge16" class="edge">
<title>UserLoginMigrationRepo&#45;&gt;UserLoginMigrationModule</title>
<path fill="none" stroke="black" d="M1658,-122.02C1658,-139.37 1658,-163 1658,-163 1658,-163 962.01,-163 962.01,-163"/>
<polygon fill="black" stroke="black" points="962.01,-159.5 952.01,-163 962.01,-166.5 962.01,-159.5"/>
</g>
<!-- UserLoginMigrationRevertService -->
<g id="node18" class="node">
<title>UserLoginMigrationRevertService</title>
<ellipse fill="#fdb462" stroke="black" cx="1383" cy="-104" rx="145.8" ry="18"/>
<text text-anchor="middle" x="1383" y="-99.8" font-family="Times,serif" font-size="14.00">UserLoginMigrationRevertService</text>
</g>
<!-- UserLoginMigrationRevertService&#45;&gt;UserLoginMigrationModule -->
<g id="edge17" class="edge">
<title>UserLoginMigrationRevertService&#45;&gt;UserLoginMigrationModule</title>
<path fill="none" stroke="black" d="M1259.26,-113.58C1259.26,-129.34 1259.26,-159 1259.26,-159 1259.26,-159 961.72,-159 961.72,-159"/>
<polygon fill="black" stroke="black" points="961.72,-155.5 951.72,-159 961.72,-162.5 961.72,-155.5"/>
</g>
<!-- UserLoginMigrationService -->
<g id="node19" class="node">
<title>UserLoginMigrationService</title>
<ellipse fill="#fdb462" stroke="black" cx="1099" cy="-104" rx="119.82" ry="18"/>
<text text-anchor="middle" x="1099" y="-99.8" font-family="Times,serif" font-size="14.00">UserLoginMigrationService</text>
</g>
<!-- UserLoginMigrationService&#45;&gt;UserLoginMigrationModule -->
<g id="edge18" class="edge">
<title>UserLoginMigrationService&#45;&gt;UserLoginMigrationModule</title>
<path fill="none" stroke="black" d="M1042.93,-120.14C1042.93,-135.08 1042.93,-155 1042.93,-155 1042.93,-155 961.89,-155 961.89,-155"/>
<polygon fill="black" stroke="black" points="961.89,-151.5 951.89,-155 961.89,-158.5 961.89,-151.5"/>
</g>
<!-- UserMigrationService -->
<g id="node20" class="node">
<title>UserMigrationService</title>
<ellipse fill="#fdb462" stroke="black" cx="864" cy="-104" rx="96.68" ry="18"/>
<text text-anchor="middle" x="864" y="-99.8" font-family="Times,serif" font-size="14.00">UserMigrationService</text>
</g>
<!-- UserMigrationService&#45;&gt;UserLoginMigrationModule -->
<g id="edge19" class="edge">
<title>UserMigrationService&#45;&gt;UserLoginMigrationModule</title>
<path fill="none" stroke="black" d="M864,-122.11C864,-122.11 864,-140.99 864,-140.99"/>
<polygon fill="black" stroke="black" points="860.5,-140.99 864,-150.99 867.5,-140.99 860.5,-140.99"/>
</g>
</g>
</svg>
