<?xml version="1.0" encoding="UTF-8" standalone="no"?>
<!DOCTYPE svg PUBLIC "-//W3C//DTD SVG 1.1//EN"
 "http://www.w3.org/Graphics/SVG/1.1/DTD/svg11.dtd">
<!-- Generated by graphviz version 2.47.0 (20210316.0004)
 -->
<!-- Title: dependencies Pages: 1 -->
<svg width="2140pt" height="284pt"
 viewBox="0.00 0.00 2140.00 284.00" xmlns="http://www.w3.org/2000/svg" xmlns:xlink="http://www.w3.org/1999/xlink">
<g id="graph0" class="graph" transform="scale(1 1) rotate(0) translate(4 280)">
<title>dependencies</title>
<polygon fill="white" stroke="transparent" points="-4,4 -4,-280 2136,-280 2136,4 -4,4"/>
<text text-anchor="start" x="1045.01" y="-42.4" font-family="Times-12" font-weight="bold" font-size="14.00">Legend</text>
<polygon fill="#ffffb3" stroke="transparent" points="832,-10 832,-30 852,-30 852,-10 832,-10"/>
<text text-anchor="start" x="855.63" y="-15.4" font-family="Times-12" font-size="14.00"> &#160;Declarations</text>
<polygon fill="#8dd3c7" stroke="transparent" points="945,-10 945,-30 965,-30 965,-10 945,-10"/>
<text text-anchor="start" x="968.73" y="-15.4" font-family="Times-12" font-size="14.00"> &#160;Module</text>
<polygon fill="#80b1d3" stroke="transparent" points="1031,-10 1031,-30 1051,-30 1051,-10 1031,-10"/>
<text text-anchor="start" x="1054.78" y="-15.4" font-family="Times-12" font-size="14.00"> &#160;Bootstrap</text>
<polygon fill="#fdb462" stroke="transparent" points="1128,-10 1128,-30 1148,-30 1148,-10 1128,-10"/>
<text text-anchor="start" x="1151.67" y="-15.4" font-family="Times-12" font-size="14.00"> &#160;Providers</text>
<polygon fill="#fb8072" stroke="transparent" points="1224,-10 1224,-30 1244,-30 1244,-10 1224,-10"/>
<text text-anchor="start" x="1247.73" y="-15.4" font-family="Times-12" font-size="14.00"> &#160;Exports</text>
<g id="clust1" class="cluster">
<title>cluster_UserLoginMigrationModule</title>
<polygon fill="none" stroke="black" stroke-dasharray="1,5" points="8,-70 8,-268 2124,-268 2124,-70 8,-70"/>
</g>
<g id="clust6" class="cluster">
<title>cluster_UserLoginMigrationModule_providers</title>
<polygon fill="none" stroke="black" points="644,-78 644,-130 2116,-130 2116,-78 644,-78"/>
</g>
<g id="clust3" class="cluster">
<title>cluster_UserLoginMigrationModule_imports</title>
<polygon fill="none" stroke="black" points="16,-78 16,-130 636,-130 636,-78 16,-78"/>
</g>
<g id="clust4" class="cluster">
<title>cluster_UserLoginMigrationModule_exports</title>
<polygon fill="none" stroke="black" points="276,-208 276,-260 1211,-260 1211,-208 276,-208"/>
</g>
<!-- AccountModule -->
<g id="node1" class="node">
<title>AccountModule</title>
<polygon fill="#8dd3c7" stroke="black" points="628.48,-122 625.48,-126 604.48,-126 601.48,-122 521.52,-122 521.52,-86 628.48,-86 628.48,-122"/>
<text text-anchor="middle" x="575" y="-99.8" font-family="Times,serif" font-size="14.00">AccountModule</text>
</g>
<!-- UserLoginMigrationModule -->
<g id="node6" class="node">
<title>UserLoginMigrationModule</title>
<polygon fill="#8dd3c7" stroke="black" points="836.91,-187 833.91,-191 812.91,-191 809.91,-187 661.09,-187 661.09,-151 836.91,-151 836.91,-187"/>
<text text-anchor="middle" x="749" y="-164.8" font-family="Times,serif" font-size="14.00">UserLoginMigrationModule</text>
</g>
<!-- AccountModule&#45;&gt;UserLoginMigrationModule -->
<g id="edge1" class="edge">
<title>AccountModule&#45;&gt;UserLoginMigrationModule</title>
<path fill="none" stroke="black" d="M589.62,-122.19C589.62,-137.18 589.62,-156 589.62,-156 589.62,-156 650.92,-156 650.92,-156"/>
<polygon fill="black" stroke="black" points="650.92,-159.5 660.92,-156 650.92,-152.5 650.92,-159.5"/>
</g>
<!-- LegacySchoolModule -->
<g id="node2" class="node">
<title>LegacySchoolModule</title>
<polygon fill="#8dd3c7" stroke="black" points="503.63,-122 500.63,-126 479.63,-126 476.63,-122 364.37,-122 364.37,-86 503.63,-86 503.63,-122"/>
<text text-anchor="middle" x="434" y="-99.8" font-family="Times,serif" font-size="14.00">LegacySchoolModule</text>
</g>
<!-- LegacySchoolModule&#45;&gt;UserLoginMigrationModule -->
<g id="edge2" class="edge">
<title>LegacySchoolModule&#45;&gt;UserLoginMigrationModule</title>
<path fill="none" stroke="black" d="M475.07,-122.03C475.07,-138.4 475.07,-160 475.07,-160 475.07,-160 651.2,-160 651.2,-160"/>
<polygon fill="black" stroke="black" points="651.2,-163.5 661.2,-160 651.2,-156.5 651.2,-163.5"/>
</g>
<!-- LoggerModule -->
<g id="node3" class="node">
<title>LoggerModule</title>
<polygon fill="#8dd3c7" stroke="black" points="345.98,-122 342.98,-126 321.98,-126 318.98,-122 246.02,-122 246.02,-86 345.98,-86 345.98,-122"/>
<text text-anchor="middle" x="296" y="-99.8" font-family="Times,serif" font-size="14.00">LoggerModule</text>
</g>
<!-- LoggerModule&#45;&gt;UserLoginMigrationModule -->
<g id="edge3" class="edge">
<title>LoggerModule&#45;&gt;UserLoginMigrationModule</title>
<path fill="none" stroke="black" d="M315.02,-122.3C315.02,-140.27 315.02,-165 315.02,-165 315.02,-165 651.18,-165 651.18,-165"/>
<polygon fill="black" stroke="black" points="651.18,-168.5 661.18,-165 651.18,-161.5 651.18,-168.5"/>
</g>
<!-- SystemModule -->
<g id="node4" class="node">
<title>SystemModule</title>
<polygon fill="#8dd3c7" stroke="black" points="228.27,-122 225.27,-126 204.27,-126 201.27,-122 127.73,-122 127.73,-86 228.27,-86 228.27,-122"/>
<text text-anchor="middle" x="178" y="-99.8" font-family="Times,serif" font-size="14.00">SystemModule</text>
</g>
<!-- SystemModule&#45;&gt;UserLoginMigrationModule -->
<g id="edge4" class="edge">
<title>SystemModule&#45;&gt;UserLoginMigrationModule</title>
<path fill="none" stroke="black" d="M178,-122.11C178,-141.34 178,-169 178,-169 178,-169 651.03,-169 651.03,-169"/>
<polygon fill="black" stroke="black" points="651.03,-172.5 661.03,-169 651.03,-165.5 651.03,-172.5"/>
</g>
<!-- UserModule -->
<g id="node5" class="node">
<title>UserModule</title>
<polygon fill="#8dd3c7" stroke="black" points="109.98,-122 106.98,-126 85.98,-126 82.98,-122 24.02,-122 24.02,-86 109.98,-86 109.98,-122"/>
<text text-anchor="middle" x="67" y="-99.8" font-family="Times,serif" font-size="14.00">UserModule</text>
</g>
<!-- UserModule&#45;&gt;UserLoginMigrationModule -->
<g id="edge5" class="edge">
<title>UserModule&#45;&gt;UserLoginMigrationModule</title>
<path fill="none" stroke="black" d="M67,-122.03C67,-142.77 67,-174 67,-174 67,-174 651.24,-174 651.24,-174"/>
<polygon fill="black" stroke="black" points="651.24,-177.5 661.24,-174 651.24,-170.5 651.24,-177.5"/>
</g>
<!-- MigrationCheckService  -->
<g id="node7" class="node">
<title>MigrationCheckService </title>
<polygon fill="#fb8072" stroke="black" points="1202.74,-252 1049.26,-252 1049.26,-216 1202.74,-216 1202.74,-252"/>
<text text-anchor="middle" x="1126" y="-229.8" font-family="Times,serif" font-size="14.00">MigrationCheckService </text>
</g>
<!-- UserLoginMigrationModule&#45;&gt;MigrationCheckService  -->
<g id="edge6" class="edge">
<title>UserLoginMigrationModule&#45;&gt;MigrationCheckService </title>
<path fill="none" stroke="black" stroke-dasharray="5,2" d="M836.8,-178C933.86,-178 1076.65,-178 1076.65,-178 1076.65,-178 1076.65,-205.97 1076.65,-205.97"/>
<polygon fill="black" stroke="black" points="1073.15,-205.97 1076.65,-215.97 1080.15,-205.97 1073.15,-205.97"/>
</g>
<!-- SchoolMigrationService  -->
<g id="node8" class="node">
<title>SchoolMigrationService </title>
<polygon fill="#fb8072" stroke="black" points="1031.36,-252 874.64,-252 874.64,-216 1031.36,-216 1031.36,-252"/>
<text text-anchor="middle" x="953" y="-229.8" font-family="Times,serif" font-size="14.00">SchoolMigrationService </text>
</g>
<!-- UserLoginMigrationModule&#45;&gt;SchoolMigrationService  -->
<g id="edge7" class="edge">
<title>UserLoginMigrationModule&#45;&gt;SchoolMigrationService </title>
<path fill="none" stroke="black" stroke-dasharray="5,2" d="M836.99,-183C892.21,-183 953,-183 953,-183 953,-183 953,-205.88 953,-205.88"/>
<polygon fill="black" stroke="black" points="949.5,-205.88 953,-215.88 956.5,-205.88 949.5,-205.88"/>
</g>
<!-- UserLoginMigrationRevertService  -->
<g id="node9" class="node">
<title>UserLoginMigrationRevertService </title>
<polygon fill="#fb8072" stroke="black" points="856.16,-252 641.84,-252 641.84,-216 856.16,-216 856.16,-252"/>
<text text-anchor="middle" x="749" y="-229.8" font-family="Times,serif" font-size="14.00">UserLoginMigrationRevertService </text>
</g>
<!-- UserLoginMigrationModule&#45;&gt;UserLoginMigrationRevertService  -->
<g id="edge8" class="edge">
<title>UserLoginMigrationModule&#45;&gt;UserLoginMigrationRevertService </title>
<path fill="none" stroke="black" stroke-dasharray="5,2" d="M749,-187.11C749,-187.11 749,-205.99 749,-205.99"/>
<polygon fill="black" stroke="black" points="745.5,-205.99 749,-215.99 752.5,-205.99 745.5,-205.99"/>
</g>
<!-- UserLoginMigrationService  -->
<g id="node10" class="node">
<title>UserLoginMigrationService </title>
<polygon fill="#fb8072" stroke="black" points="623.84,-252 446.16,-252 446.16,-216 623.84,-216 623.84,-252"/>
<text text-anchor="middle" x="535" y="-229.8" font-family="Times,serif" font-size="14.00">UserLoginMigrationService </text>
</g>
<!-- UserLoginMigrationModule&#45;&gt;UserLoginMigrationService  -->
<g id="edge9" class="edge">
<title>UserLoginMigrationModule&#45;&gt;UserLoginMigrationService </title>
<path fill="none" stroke="black" stroke-dasharray="5,2" d="M661.06,-183C609.96,-183 555.56,-183 555.56,-183 555.56,-183 555.56,-205.88 555.56,-205.88"/>
<polygon fill="black" stroke="black" points="552.06,-205.88 555.56,-215.88 559.06,-205.88 552.06,-205.88"/>
</g>
<!-- UserMigrationService  -->
<g id="node11" class="node">
<title>UserMigrationService </title>
<polygon fill="#fb8072" stroke="black" points="427.9,-252 284.1,-252 284.1,-216 427.9,-216 427.9,-252"/>
<text text-anchor="middle" x="356" y="-229.8" font-family="Times,serif" font-size="14.00">UserMigrationService </text>
</g>
<!-- UserLoginMigrationModule&#45;&gt;UserMigrationService  -->
<g id="edge10" class="edge">
<title>UserLoginMigrationModule&#45;&gt;UserMigrationService </title>
<path fill="none" stroke="black" stroke-dasharray="5,2" d="M660.85,-178C556.31,-178 396.07,-178 396.07,-178 396.07,-178 396.07,-205.97 396.07,-205.97"/>
<polygon fill="black" stroke="black" points="392.57,-205.97 396.07,-215.97 399.57,-205.97 392.57,-205.97"/>
</g>
<!-- MigrationCheckService -->
<g id="node12" class="node">
<title>MigrationCheckService</title>
<ellipse fill="#fdb462" stroke="black" cx="2005" cy="-104" rx="103.07" ry="18"/>
<text text-anchor="middle" x="2005" y="-99.8" font-family="Times,serif" font-size="14.00">MigrationCheckService</text>
</g>
<!-- MigrationCheckService&#45;&gt;UserLoginMigrationModule -->
<g id="edge11" class="edge">
<title>MigrationCheckService&#45;&gt;UserLoginMigrationModule</title>
<path fill="none" stroke="black" d="M2005,-122.03C2005,-142.77 2005,-174 2005,-174 2005,-174 846.82,-174 846.82,-174"/>
<polygon fill="black" stroke="black" points="846.82,-170.5 836.82,-174 846.82,-177.5 846.82,-170.5"/>
</g>
<!-- SchoolMigrationService -->
<g id="node13" class="node">
<title>SchoolMigrationService</title>
<ellipse fill="#fdb462" stroke="black" cx="1778" cy="-104" rx="105.38" ry="18"/>
<text text-anchor="middle" x="1778" y="-99.8" font-family="Times,serif" font-size="14.00">SchoolMigrationService</text>
</g>
<!-- SchoolMigrationService&#45;&gt;UserLoginMigrationModule -->
<g id="edge12" class="edge">
<title>SchoolMigrationService&#45;&gt;UserLoginMigrationModule</title>
<path fill="none" stroke="black" d="M1778,-122.11C1778,-141.34 1778,-169 1778,-169 1778,-169 846.73,-169 846.73,-169"/>
<polygon fill="black" stroke="black" points="846.73,-165.5 836.73,-169 846.73,-172.5 846.73,-165.5"/>
</g>
<!-- UserLoginMigrationRepo -->
<g id="node14" class="node">
<title>UserLoginMigrationRepo</title>
<ellipse fill="#fdb462" stroke="black" cx="1543" cy="-104" rx="111.18" ry="18"/>
<text text-anchor="middle" x="1543" y="-99.8" font-family="Times,serif" font-size="14.00">UserLoginMigrationRepo</text>
</g>
<!-- UserLoginMigrationRepo&#45;&gt;UserLoginMigrationModule -->
<g id="edge13" class="edge">
<title>UserLoginMigrationRepo&#45;&gt;UserLoginMigrationModule</title>
<path fill="none" stroke="black" d="M1543,-122.3C1543,-140.27 1543,-165 1543,-165 1543,-165 847.01,-165 847.01,-165"/>
<polygon fill="black" stroke="black" points="847.01,-161.5 837.01,-165 847.01,-168.5 847.01,-161.5"/>
</g>
<!-- UserLoginMigrationRevertService -->
<g id="node15" class="node">
<title>UserLoginMigrationRevertService</title>
<ellipse fill="#fdb462" stroke="black" cx="1268" cy="-104" rx="145.8" ry="18"/>
<text text-anchor="middle" x="1268" y="-99.8" font-family="Times,serif" font-size="14.00">UserLoginMigrationRevertService</text>
</g>
<!-- UserLoginMigrationRevertService&#45;&gt;UserLoginMigrationModule -->
<g id="edge14" class="edge">
<title>UserLoginMigrationRevertService&#45;&gt;UserLoginMigrationModule</title>
<path fill="none" stroke="black" d="M1162.48,-116.43C1162.48,-132.93 1162.48,-160 1162.48,-160 1162.48,-160 846.94,-160 846.94,-160"/>
<polygon fill="black" stroke="black" points="846.94,-156.5 836.94,-160 846.94,-163.5 846.94,-156.5"/>
</g>
<!-- UserLoginMigrationService -->
<g id="node16" class="node">
<title>UserLoginMigrationService</title>
<ellipse fill="#fdb462" stroke="black" cx="984" cy="-104" rx="119.82" ry="18"/>
<text text-anchor="middle" x="984" y="-99.8" font-family="Times,serif" font-size="14.00">UserLoginMigrationService</text>
</g>
<!-- UserLoginMigrationService&#45;&gt;UserLoginMigrationModule -->
<g id="edge15" class="edge">
<title>UserLoginMigrationService&#45;&gt;UserLoginMigrationModule</title>
<path fill="none" stroke="black" d="M869.46,-109.56C869.46,-122.98 869.46,-156 869.46,-156 869.46,-156 846.86,-156 846.86,-156"/>
<polygon fill="black" stroke="black" points="846.86,-152.5 836.86,-156 846.86,-159.5 846.86,-152.5"/>
</g>
<!-- UserMigrationService -->
<g id="node17" class="node">
<title>UserMigrationService</title>
<ellipse fill="#fdb462" stroke="black" cx="749" cy="-104" rx="96.68" ry="18"/>
<text text-anchor="middle" x="749" y="-99.8" font-family="Times,serif" font-size="14.00">UserMigrationService</text>
</g>
<!-- UserMigrationService&#45;&gt;UserLoginMigrationModule -->
<g id="edge16" class="edge">
<title>UserMigrationService&#45;&gt;UserLoginMigrationModule</title>
<path fill="none" stroke="black" d="M749,-122.11C749,-122.11 749,-140.99 749,-140.99"/>
<polygon fill="black" stroke="black" points="745.5,-140.99 749,-150.99 752.5,-140.99 745.5,-140.99"/>
</g>
</g>
</svg>
