<?xml version="1.0" encoding="UTF-8" standalone="no"?>
<!DOCTYPE svg PUBLIC "-//W3C//DTD SVG 1.1//EN"
 "http://www.w3.org/Graphics/SVG/1.1/DTD/svg11.dtd">
<!-- Generated by graphviz version 2.47.0 (20210316.0004)
 -->
<!-- Title: dependencies Pages: 1 -->
<svg width="2598pt" height="284pt"
 viewBox="0.00 0.00 2598.00 284.00" xmlns="http://www.w3.org/2000/svg" xmlns:xlink="http://www.w3.org/1999/xlink">
<g id="graph0" class="graph" transform="scale(1 1) rotate(0) translate(4 280)">
<title>dependencies</title>
<polygon fill="white" stroke="transparent" points="-4,4 -4,-280 2594,-280 2594,4 -4,4"/>
<text text-anchor="start" x="1274.01" y="-42.4" font-family="Times-12" font-weight="bold" font-size="14.00">Legend</text>
<polygon fill="#ffffb3" stroke="transparent" points="1061,-10 1061,-30 1081,-30 1081,-10 1061,-10"/>
<text text-anchor="start" x="1084.63" y="-15.4" font-family="Times-12" font-size="14.00"> &#160;Declarations</text>
<polygon fill="#8dd3c7" stroke="transparent" points="1174,-10 1174,-30 1194,-30 1194,-10 1174,-10"/>
<text text-anchor="start" x="1197.73" y="-15.4" font-family="Times-12" font-size="14.00"> &#160;Module</text>
<polygon fill="#80b1d3" stroke="transparent" points="1260,-10 1260,-30 1280,-30 1280,-10 1260,-10"/>
<text text-anchor="start" x="1283.78" y="-15.4" font-family="Times-12" font-size="14.00"> &#160;Bootstrap</text>
<polygon fill="#fdb462" stroke="transparent" points="1357,-10 1357,-30 1377,-30 1377,-10 1357,-10"/>
<text text-anchor="start" x="1380.67" y="-15.4" font-family="Times-12" font-size="14.00"> &#160;Providers</text>
<polygon fill="#fb8072" stroke="transparent" points="1453,-10 1453,-30 1473,-30 1473,-10 1453,-10"/>
<text text-anchor="start" x="1476.73" y="-15.4" font-family="Times-12" font-size="14.00"> &#160;Exports</text>
<g id="clust1" class="cluster">
<title>cluster_UserLoginMigrationModule</title>
<polygon fill="none" stroke="black" stroke-dasharray="1,5" points="8,-70 8,-268 2582,-268 2582,-70 8,-70"/>
</g>
<g id="clust4" class="cluster">
<title>cluster_UserLoginMigrationModule_exports</title>
<polygon fill="none" stroke="black" points="1125,-208 1125,-260 2317,-260 2317,-208 1125,-208"/>
</g>
<g id="clust3" class="cluster">
<title>cluster_UserLoginMigrationModule_imports</title>
<polygon fill="none" stroke="black" points="1839,-78 1839,-130 2574,-130 2574,-78 1839,-78"/>
</g>
<g id="clust6" class="cluster">
<title>cluster_UserLoginMigrationModule_providers</title>
<polygon fill="none" stroke="black" points="16,-78 16,-130 1831,-130 1831,-78 16,-78"/>
</g>
<!-- AccountModule -->
<g id="node1" class="node">
<title>AccountModule</title>
<polygon fill="#8dd3c7" stroke="black" points="2566.48,-122 2563.48,-126 2542.48,-126 2539.48,-122 2459.52,-122 2459.52,-86 2566.48,-86 2566.48,-122"/>
<text text-anchor="middle" x="2513" y="-99.8" font-family="Times,serif" font-size="14.00">AccountModule</text>
</g>
<!-- UserLoginMigrationModule -->
<g id="node7" class="node">
<title>UserLoginMigrationModule</title>
<polygon fill="#8dd3c7" stroke="black" points="1807.91,-187 1804.91,-191 1783.91,-191 1780.91,-187 1632.09,-187 1632.09,-151 1807.91,-151 1807.91,-187"/>
<text text-anchor="middle" x="1720" y="-164.8" font-family="Times,serif" font-size="14.00">UserLoginMigrationModule</text>
</g>
<!-- AccountModule&#45;&gt;UserLoginMigrationModule -->
<g id="edge1" class="edge">
<title>AccountModule&#45;&gt;UserLoginMigrationModule</title>
<path fill="none" stroke="black" d="M2513,-122.28C2513,-143.32 2513,-175 2513,-175 2513,-175 1817.89,-175 1817.89,-175"/>
<polygon fill="black" stroke="black" points="1817.89,-171.5 1807.89,-175 1817.89,-178.5 1817.89,-171.5"/>
</g>
<!-- AuthorizationModule -->
<g id="node2" class="node">
<title>AuthorizationModule</title>
<polygon fill="#8dd3c7" stroke="black" points="2441.81,-122 2438.81,-126 2417.81,-126 2414.81,-122 2304.19,-122 2304.19,-86 2441.81,-86 2441.81,-122"/>
<text text-anchor="middle" x="2373" y="-99.8" font-family="Times,serif" font-size="14.00">AuthorizationModule</text>
</g>
<!-- AuthorizationModule&#45;&gt;UserLoginMigrationModule -->
<g id="edge2" class="edge">
<title>AuthorizationModule&#45;&gt;UserLoginMigrationModule</title>
<path fill="none" stroke="black" d="M2375.14,-122.31C2375.14,-142.15 2375.14,-171 2375.14,-171 2375.14,-171 1818.01,-171 1818.01,-171"/>
<polygon fill="black" stroke="black" points="1818.01,-167.5 1808.01,-171 1818.01,-174.5 1818.01,-167.5"/>
</g>
<!-- LoggerModule -->
<g id="node3" class="node">
<title>LoggerModule</title>
<polygon fill="#8dd3c7" stroke="black" points="2285.98,-122 2282.98,-126 2261.98,-126 2258.98,-122 2186.02,-122 2186.02,-86 2285.98,-86 2285.98,-122"/>
<text text-anchor="middle" x="2236" y="-99.8" font-family="Times,serif" font-size="14.00">LoggerModule</text>
</g>
<!-- LoggerModule&#45;&gt;UserLoginMigrationModule -->
<g id="edge3" class="edge">
<title>LoggerModule&#45;&gt;UserLoginMigrationModule</title>
<path fill="none" stroke="black" d="M2236,-122.22C2236,-140.83 2236,-167 2236,-167 2236,-167 1817.82,-167 1817.82,-167"/>
<polygon fill="black" stroke="black" points="1817.82,-163.5 1807.82,-167 1817.82,-170.5 1817.82,-163.5"/>
</g>
<!-- SchoolModule -->
<g id="node4" class="node">
<title>SchoolModule</title>
<polygon fill="#8dd3c7" stroke="black" points="2168.44,-122 2165.44,-126 2144.44,-126 2141.44,-122 2069.56,-122 2069.56,-86 2168.44,-86 2168.44,-122"/>
<text text-anchor="middle" x="2119" y="-99.8" font-family="Times,serif" font-size="14.00">SchoolModule</text>
</g>
<!-- SchoolModule&#45;&gt;UserLoginMigrationModule -->
<g id="edge4" class="edge">
<title>SchoolModule&#45;&gt;UserLoginMigrationModule</title>
<path fill="none" stroke="black" d="M2103.48,-122.02C2103.48,-139.37 2103.48,-163 2103.48,-163 2103.48,-163 1817.98,-163 1817.98,-163"/>
<polygon fill="black" stroke="black" points="1817.98,-159.5 1807.98,-163 1817.98,-166.5 1817.98,-159.5"/>
</g>
<!-- SystemModule -->
<g id="node5" class="node">
<title>SystemModule</title>
<polygon fill="#8dd3c7" stroke="black" points="2051.27,-122 2048.27,-126 2027.27,-126 2024.27,-122 1950.73,-122 1950.73,-86 2051.27,-86 2051.27,-122"/>
<text text-anchor="middle" x="2001" y="-99.8" font-family="Times,serif" font-size="14.00">SystemModule</text>
</g>
<!-- SystemModule&#45;&gt;UserLoginMigrationModule -->
<g id="edge5" class="edge">
<title>SystemModule&#45;&gt;UserLoginMigrationModule</title>
<path fill="none" stroke="black" d="M1956.69,-122.01C1956.69,-138.05 1956.69,-159 1956.69,-159 1956.69,-159 1817.8,-159 1817.8,-159"/>
<polygon fill="black" stroke="black" points="1817.8,-155.5 1807.8,-159 1817.8,-162.5 1817.8,-155.5"/>
</g>
<!-- UserModule -->
<g id="node6" class="node">
<title>UserModule</title>
<polygon fill="#8dd3c7" stroke="black" points="1932.98,-122 1929.98,-126 1908.98,-126 1905.98,-122 1847.02,-122 1847.02,-86 1932.98,-86 1932.98,-122"/>
<text text-anchor="middle" x="1890" y="-99.8" font-family="Times,serif" font-size="14.00">UserModule</text>
</g>
<!-- UserModule&#45;&gt;UserLoginMigrationModule -->
<g id="edge6" class="edge">
<title>UserModule&#45;&gt;UserLoginMigrationModule</title>
<path fill="none" stroke="black" d="M1890,-122.12C1890,-136.78 1890,-155 1890,-155 1890,-155 1817.99,-155 1817.99,-155"/>
<polygon fill="black" stroke="black" points="1817.99,-151.5 1807.99,-155 1817.99,-158.5 1817.99,-151.5"/>
</g>
<!-- MigrationCheckService  -->
<g id="node8" class="node">
<title>MigrationCheckService </title>
<polygon fill="#fb8072" stroke="black" points="2308.74,-252 2155.26,-252 2155.26,-216 2308.74,-216 2308.74,-252"/>
<text text-anchor="middle" x="2232" y="-229.8" font-family="Times,serif" font-size="14.00">MigrationCheckService </text>
</g>
<!-- UserLoginMigrationModule&#45;&gt;MigrationCheckService  -->
<g id="edge7" class="edge">
<title>UserLoginMigrationModule&#45;&gt;MigrationCheckService </title>
<path fill="none" stroke="black" stroke-dasharray="5,2" d="M1807.81,-179C1936.66,-179 2161.8,-179 2161.8,-179 2161.8,-179 2161.8,-205.99 2161.8,-205.99"/>
<polygon fill="black" stroke="black" points="2158.3,-205.99 2161.8,-215.99 2165.3,-205.99 2158.3,-205.99"/>
</g>
<!-- SchoolMigrationService  -->
<g id="node9" class="node">
<title>SchoolMigrationService </title>
<polygon fill="#fb8072" stroke="black" points="2137.36,-252 1980.64,-252 1980.64,-216 2137.36,-216 2137.36,-252"/>
<text text-anchor="middle" x="2059" y="-229.8" font-family="Times,serif" font-size="14.00">SchoolMigrationService </text>
</g>
<!-- UserLoginMigrationModule&#45;&gt;SchoolMigrationService  -->
<g id="edge8" class="edge">
<title>UserLoginMigrationModule&#45;&gt;SchoolMigrationService </title>
<path fill="none" stroke="black" stroke-dasharray="5,2" d="M1808.04,-183C1895.32,-183 2016.1,-183 2016.1,-183 2016.1,-183 2016.1,-205.88 2016.1,-205.88"/>
<polygon fill="black" stroke="black" points="2012.6,-205.88 2016.1,-215.88 2019.6,-205.88 2012.6,-205.88"/>
</g>
<!-- StartUserLoginMigrationCheckService  -->
<g id="node10" class="node">
<title>StartUserLoginMigrationCheckService </title>
<polygon fill="#fb8072" stroke="black" points="1962.54,-252 1723.46,-252 1723.46,-216 1962.54,-216 1962.54,-252"/>
<text text-anchor="middle" x="1843" y="-229.8" font-family="Times,serif" font-size="14.00">StartUserLoginMigrationCheckService </text>
</g>
<!-- UserLoginMigrationModule&#45;&gt;StartUserLoginMigrationCheckService  -->
<g id="edge9" class="edge">
<title>UserLoginMigrationModule&#45;&gt;StartUserLoginMigrationCheckService </title>
<path fill="none" stroke="black" stroke-dasharray="5,2" d="M1765.47,-187.11C1765.47,-187.11 1765.47,-205.99 1765.47,-205.99"/>
<polygon fill="black" stroke="black" points="1761.97,-205.99 1765.47,-215.99 1768.97,-205.99 1761.97,-205.99"/>
</g>
<!-- UserLoginMigrationRevertService  -->
<g id="node11" class="node">
<title>UserLoginMigrationRevertService </title>
<polygon fill="#fb8072" stroke="black" points="1705.16,-252 1490.84,-252 1490.84,-216 1705.16,-216 1705.16,-252"/>
<text text-anchor="middle" x="1598" y="-229.8" font-family="Times,serif" font-size="14.00">UserLoginMigrationRevertService </text>
</g>
<!-- UserLoginMigrationModule&#45;&gt;UserLoginMigrationRevertService  -->
<g id="edge10" class="edge">
<title>UserLoginMigrationModule&#45;&gt;UserLoginMigrationRevertService </title>
<path fill="none" stroke="black" stroke-dasharray="5,2" d="M1668.81,-187.11C1668.81,-187.11 1668.81,-205.99 1668.81,-205.99"/>
<polygon fill="black" stroke="black" points="1665.31,-205.99 1668.81,-215.99 1672.31,-205.99 1665.31,-205.99"/>
</g>
<!-- UserLoginMigrationService  -->
<g id="node12" class="node">
<title>UserLoginMigrationService </title>
<polygon fill="#fb8072" stroke="black" points="1472.84,-252 1295.16,-252 1295.16,-216 1472.84,-216 1472.84,-252"/>
<text text-anchor="middle" x="1384" y="-229.8" font-family="Times,serif" font-size="14.00">UserLoginMigrationService </text>
</g>
<!-- UserLoginMigrationModule&#45;&gt;UserLoginMigrationService  -->
<g id="edge11" class="edge">
<title>UserLoginMigrationModule&#45;&gt;UserLoginMigrationService </title>
<path fill="none" stroke="black" stroke-dasharray="5,2" d="M1632.24,-183C1546.92,-183 1430.12,-183 1430.12,-183 1430.12,-183 1430.12,-205.88 1430.12,-205.88"/>
<polygon fill="black" stroke="black" points="1426.62,-205.88 1430.12,-215.88 1433.62,-205.88 1426.62,-205.88"/>
</g>
<!-- UserMigrationService  -->
<g id="node13" class="node">
<title>UserMigrationService </title>
<polygon fill="#fb8072" stroke="black" points="1276.9,-252 1133.1,-252 1133.1,-216 1276.9,-216 1276.9,-252"/>
<text text-anchor="middle" x="1205" y="-229.8" font-family="Times,serif" font-size="14.00">UserMigrationService </text>
</g>
<!-- UserLoginMigrationModule&#45;&gt;UserMigrationService  -->
<g id="edge12" class="edge">
<title>UserLoginMigrationModule&#45;&gt;UserMigrationService </title>
<path fill="none" stroke="black" stroke-dasharray="5,2" d="M1632.05,-179C1484.96,-179 1205,-179 1205,-179 1205,-179 1205,-205.99 1205,-205.99"/>
<polygon fill="black" stroke="black" points="1201.5,-205.99 1205,-215.99 1208.5,-205.99 1201.5,-205.99"/>
</g>
<!-- MigrationCheckService -->
<g id="node14" class="node">
<title>MigrationCheckService</title>
<ellipse fill="#fdb462" stroke="black" cx="1720" cy="-104" rx="103.07" ry="18"/>
<text text-anchor="middle" x="1720" y="-99.8" font-family="Times,serif" font-size="14.00">MigrationCheckService</text>
</g>
<!-- MigrationCheckService&#45;&gt;UserLoginMigrationModule -->
<g id="edge13" class="edge">
<title>MigrationCheckService&#45;&gt;UserLoginMigrationModule</title>
<path fill="none" stroke="black" d="M1720,-122.11C1720,-122.11 1720,-140.99 1720,-140.99"/>
<polygon fill="black" stroke="black" points="1716.5,-140.99 1720,-150.99 1723.5,-140.99 1716.5,-140.99"/>
</g>
<!-- SchoolMigrationService -->
<g id="node15" class="node">
<title>SchoolMigrationService</title>
<ellipse fill="#fdb462" stroke="black" cx="1493" cy="-104" rx="105.38" ry="18"/>
<text text-anchor="middle" x="1493" y="-99.8" font-family="Times,serif" font-size="14.00">SchoolMigrationService</text>
</g>
<!-- SchoolMigrationService&#45;&gt;UserLoginMigrationModule -->
<g id="edge14" class="edge">
<title>SchoolMigrationService&#45;&gt;UserLoginMigrationModule</title>
<path fill="none" stroke="black" d="M1544.56,-119.86C1544.56,-134.83 1544.56,-155 1544.56,-155 1544.56,-155 1622.28,-155 1622.28,-155"/>
<polygon fill="black" stroke="black" points="1622.28,-158.5 1632.28,-155 1622.28,-151.5 1622.28,-158.5"/>
</g>
<!-- StartUserLoginMigrationCheckService -->
<g id="node16" class="node">
<title>StartUserLoginMigrationCheckService</title>
<ellipse fill="#fdb462" stroke="black" cx="1207" cy="-104" rx="162.64" ry="18"/>
<text text-anchor="middle" x="1207" y="-99.8" font-family="Times,serif" font-size="14.00">StartUserLoginMigrationCheckService</text>
</g>
<!-- StartUserLoginMigrationCheckService&#45;&gt;UserLoginMigrationModule -->
<g id="edge15" class="edge">
<title>StartUserLoginMigrationCheckService&#45;&gt;UserLoginMigrationModule</title>
<path fill="none" stroke="black" d="M1332.57,-115.66C1332.57,-131.81 1332.57,-159 1332.57,-159 1332.57,-159 1622.09,-159 1622.09,-159"/>
<polygon fill="black" stroke="black" points="1622.09,-162.5 1632.09,-159 1622.09,-155.5 1622.09,-162.5"/>
</g>
<!-- UserLoginMigrationRepo -->
<g id="node17" class="node">
<title>UserLoginMigrationRepo</title>
<ellipse fill="#fdb462" stroke="black" cx="915" cy="-104" rx="111.18" ry="18"/>
<text text-anchor="middle" x="915" y="-99.8" font-family="Times,serif" font-size="14.00">UserLoginMigrationRepo</text>
</g>
<!-- UserLoginMigrationRepo&#45;&gt;UserLoginMigrationModule -->
<g id="edge16" class="edge">
<title>UserLoginMigrationRepo&#45;&gt;UserLoginMigrationModule</title>
<path fill="none" stroke="black" d="M915,-122.02C915,-139.37 915,-163 915,-163 915,-163 1621.93,-163 1621.93,-163"/>
<polygon fill="black" stroke="black" points="1621.93,-166.5 1631.93,-163 1621.93,-159.5 1621.93,-166.5"/>
</g>
<!-- UserLoginMigrationRevertService -->
<g id="node18" class="node">
<title>UserLoginMigrationRevertService</title>
<ellipse fill="#fdb462" stroke="black" cx="640" cy="-104" rx="145.8" ry="18"/>
<text text-anchor="middle" x="640" y="-99.8" font-family="Times,serif" font-size="14.00">UserLoginMigrationRevertService</text>
</g>
<!-- UserLoginMigrationRevertService&#45;&gt;UserLoginMigrationModule -->
<g id="edge17" class="edge">
<title>UserLoginMigrationRevertService&#45;&gt;UserLoginMigrationModule</title>
<path fill="none" stroke="black" d="M640,-122.22C640,-140.83 640,-167 640,-167 640,-167 1622.08,-167 1622.08,-167"/>
<polygon fill="black" stroke="black" points="1622.08,-170.5 1632.08,-167 1622.08,-163.5 1622.08,-170.5"/>
</g>
<!-- UserLoginMigrationService -->
<g id="node19" class="node">
<title>UserLoginMigrationService</title>
<ellipse fill="#fdb462" stroke="black" cx="356" cy="-104" rx="119.82" ry="18"/>
<text text-anchor="middle" x="356" y="-99.8" font-family="Times,serif" font-size="14.00">UserLoginMigrationService</text>
</g>
<!-- UserLoginMigrationService&#45;&gt;UserLoginMigrationModule -->
<g id="edge18" class="edge">
<title>UserLoginMigrationService&#45;&gt;UserLoginMigrationModule</title>
<path fill="none" stroke="black" d="M356,-122.31C356,-142.15 356,-171 356,-171 356,-171 1622.08,-171 1622.08,-171"/>
<polygon fill="black" stroke="black" points="1622.08,-174.5 1632.08,-171 1622.08,-167.5 1622.08,-174.5"/>
</g>
<!-- UserMigrationService -->
<g id="node20" class="node">
<title>UserMigrationService</title>
<ellipse fill="#fdb462" stroke="black" cx="121" cy="-104" rx="96.68" ry="18"/>
<text text-anchor="middle" x="121" y="-99.8" font-family="Times,serif" font-size="14.00">UserMigrationService</text>
</g>
<!-- UserMigrationService&#45;&gt;UserLoginMigrationModule -->
<g id="edge19" class="edge">
<title>UserMigrationService&#45;&gt;UserLoginMigrationModule</title>
<path fill="none" stroke="black" d="M121,-122.28C121,-143.32 121,-175 121,-175 121,-175 1622.04,-175 1622.04,-175"/>
<polygon fill="black" stroke="black" points="1622.04,-178.5 1632.04,-175 1622.04,-171.5 1622.04,-178.5"/>
</g>
</g>
</svg>
