<?xml version="1.0" encoding="UTF-8" standalone="no"?>
<!DOCTYPE svg PUBLIC "-//W3C//DTD SVG 1.1//EN"
 "http://www.w3.org/Graphics/SVG/1.1/DTD/svg11.dtd">
<!-- Generated by graphviz version 2.47.0 (20210316.0004)
 -->
<!-- Title: dependencies Pages: 1 -->
<svg width="1789pt" height="284pt"
 viewBox="0.00 0.00 1789.00 284.00" xmlns="http://www.w3.org/2000/svg" xmlns:xlink="http://www.w3.org/1999/xlink">
<g id="graph0" class="graph" transform="scale(1 1) rotate(0) translate(4 280)">
<title>dependencies</title>
<polygon fill="white" stroke="transparent" points="-4,4 -4,-280 1785,-280 1785,4 -4,4"/>
<text text-anchor="start" x="869.51" y="-42.4" font-family="Times-12" font-weight="bold" font-size="14.00">Legend</text>
<polygon fill="#ffffb3" stroke="transparent" points="656.5,-10 656.5,-30 676.5,-30 676.5,-10 656.5,-10"/>
<text text-anchor="start" x="680.13" y="-15.4" font-family="Times-12" font-size="14.00"> &#160;Declarations</text>
<polygon fill="#8dd3c7" stroke="transparent" points="769.5,-10 769.5,-30 789.5,-30 789.5,-10 769.5,-10"/>
<text text-anchor="start" x="793.23" y="-15.4" font-family="Times-12" font-size="14.00"> &#160;Module</text>
<polygon fill="#80b1d3" stroke="transparent" points="855.5,-10 855.5,-30 875.5,-30 875.5,-10 855.5,-10"/>
<text text-anchor="start" x="879.28" y="-15.4" font-family="Times-12" font-size="14.00"> &#160;Bootstrap</text>
<polygon fill="#fdb462" stroke="transparent" points="952.5,-10 952.5,-30 972.5,-30 972.5,-10 952.5,-10"/>
<text text-anchor="start" x="976.17" y="-15.4" font-family="Times-12" font-size="14.00"> &#160;Providers</text>
<polygon fill="#fb8072" stroke="transparent" points="1048.5,-10 1048.5,-30 1068.5,-30 1068.5,-10 1048.5,-10"/>
<text text-anchor="start" x="1072.23" y="-15.4" font-family="Times-12" font-size="14.00"> &#160;Exports</text>
<g id="clust1" class="cluster">
<title>cluster_UserLoginMigrationModule</title>
<polygon fill="none" stroke="black" stroke-dasharray="1,5" points="8,-70 8,-268 1773,-268 1773,-70 8,-70"/>
</g>
<g id="clust3" class="cluster">
<title>cluster_UserLoginMigrationModule_imports</title>
<polygon fill="none" stroke="black" points="1186,-78 1186,-130 1765,-130 1765,-78 1186,-78"/>
</g>
<g id="clust4" class="cluster">
<title>cluster_UserLoginMigrationModule_exports</title>
<polygon fill="none" stroke="black" points="801,-208 801,-260 1503,-260 1503,-208 801,-208"/>
</g>
<g id="clust6" class="cluster">
<title>cluster_UserLoginMigrationModule_providers</title>
<polygon fill="none" stroke="black" points="16,-78 16,-130 1178,-130 1178,-78 16,-78"/>
</g>
<!-- AccountModule -->
<g id="node1" class="node">
<title>AccountModule</title>
<polygon fill="#8dd3c7" stroke="black" points="1757.48,-122 1754.48,-126 1733.48,-126 1730.48,-122 1650.52,-122 1650.52,-86 1757.48,-86 1757.48,-122"/>
<text text-anchor="middle" x="1704" y="-99.8" font-family="Times,serif" font-size="14.00">AccountModule</text>
</g>
<!-- UserLoginMigrationModule -->
<g id="node6" class="node">
<title>UserLoginMigrationModule</title>
<polygon fill="#8dd3c7" stroke="black" points="1239.91,-187 1236.91,-191 1215.91,-191 1212.91,-187 1064.09,-187 1064.09,-151 1239.91,-151 1239.91,-187"/>
<text text-anchor="middle" x="1152" y="-164.8" font-family="Times,serif" font-size="14.00">UserLoginMigrationModule</text>
</g>
<!-- AccountModule&#45;&gt;UserLoginMigrationModule -->
<g id="edge1" class="edge">
<title>AccountModule&#45;&gt;UserLoginMigrationModule</title>
<path fill="none" stroke="black" d="M1704,-122.28C1704,-143.32 1704,-175 1704,-175 1704,-175 1249.77,-175 1249.77,-175"/>
<polygon fill="black" stroke="black" points="1249.77,-171.5 1239.77,-175 1249.77,-178.5 1249.77,-171.5"/>
</g>
<!-- LoggerModule -->
<g id="node2" class="node">
<title>LoggerModule</title>
<polygon fill="#8dd3c7" stroke="black" points="1632.98,-122 1629.98,-126 1608.98,-126 1605.98,-122 1533.02,-122 1533.02,-86 1632.98,-86 1632.98,-122"/>
<text text-anchor="middle" x="1583" y="-99.8" font-family="Times,serif" font-size="14.00">LoggerModule</text>
</g>
<!-- LoggerModule&#45;&gt;UserLoginMigrationModule -->
<g id="edge2" class="edge">
<title>LoggerModule&#45;&gt;UserLoginMigrationModule</title>
<path fill="none" stroke="black" d="M1583,-122.11C1583,-141.34 1583,-169 1583,-169 1583,-169 1249.74,-169 1249.74,-169"/>
<polygon fill="black" stroke="black" points="1249.74,-165.5 1239.74,-169 1249.74,-172.5 1249.74,-165.5"/>
</g>
<!-- SchoolModule -->
<g id="node3" class="node">
<title>SchoolModule</title>
<polygon fill="#8dd3c7" stroke="black" points="1515.44,-122 1512.44,-126 1491.44,-126 1488.44,-122 1416.56,-122 1416.56,-86 1515.44,-86 1515.44,-122"/>
<text text-anchor="middle" x="1466" y="-99.8" font-family="Times,serif" font-size="14.00">SchoolModule</text>
</g>
<!-- SchoolModule&#45;&gt;UserLoginMigrationModule -->
<g id="edge3" class="edge">
<title>SchoolModule&#45;&gt;UserLoginMigrationModule</title>
<path fill="none" stroke="black" d="M1455.7,-122.02C1455.7,-139.37 1455.7,-163 1455.7,-163 1455.7,-163 1249.84,-163 1249.84,-163"/>
<polygon fill="black" stroke="black" points="1249.84,-159.5 1239.84,-163 1249.84,-166.5 1249.84,-159.5"/>
</g>
<!-- SystemModule -->
<g id="node4" class="node">
<title>SystemModule</title>
<polygon fill="#8dd3c7" stroke="black" points="1398.27,-122 1395.27,-126 1374.27,-126 1371.27,-122 1297.73,-122 1297.73,-86 1398.27,-86 1398.27,-122"/>
<text text-anchor="middle" x="1348" y="-99.8" font-family="Times,serif" font-size="14.00">SystemModule</text>
</g>
<!-- SystemModule&#45;&gt;UserLoginMigrationModule -->
<g id="edge4" class="edge">
<title>SystemModule&#45;&gt;UserLoginMigrationModule</title>
<path fill="none" stroke="black" d="M1310.4,-122.24C1310.4,-137.57 1310.4,-157 1310.4,-157 1310.4,-157 1250,-157 1250,-157"/>
<polygon fill="black" stroke="black" points="1250,-153.5 1240,-157 1250,-160.5 1250,-153.5"/>
</g>
<!-- UserModule -->
<g id="node5" class="node">
<title>UserModule</title>
<polygon fill="#8dd3c7" stroke="black" points="1279.98,-122 1276.98,-126 1255.98,-126 1252.98,-122 1194.02,-122 1194.02,-86 1279.98,-86 1279.98,-122"/>
<text text-anchor="middle" x="1237" y="-99.8" font-family="Times,serif" font-size="14.00">UserModule</text>
</g>
<!-- UserModule&#45;&gt;UserLoginMigrationModule -->
<g id="edge5" class="edge">
<title>UserModule&#45;&gt;UserLoginMigrationModule</title>
<path fill="none" stroke="black" d="M1216.86,-122.11C1216.86,-122.11 1216.86,-140.99 1216.86,-140.99"/>
<polygon fill="black" stroke="black" points="1213.36,-140.99 1216.86,-150.99 1220.36,-140.99 1213.36,-140.99"/>
</g>
<!-- MigrationCheckService  -->
<g id="node7" class="node">
<title>MigrationCheckService </title>
<polygon fill="#fb8072" stroke="black" points="1494.74,-252 1341.26,-252 1341.26,-216 1494.74,-216 1494.74,-252"/>
<text text-anchor="middle" x="1418" y="-229.8" font-family="Times,serif" font-size="14.00">MigrationCheckService </text>
</g>
<!-- UserLoginMigrationModule&#45;&gt;MigrationCheckService  -->
<g id="edge6" class="edge">
<title>UserLoginMigrationModule&#45;&gt;MigrationCheckService </title>
<path fill="none" stroke="black" stroke-dasharray="5,2" d="M1239.99,-181C1300.46,-181 1369.88,-181 1369.88,-181 1369.88,-181 1369.88,-205.76 1369.88,-205.76"/>
<polygon fill="black" stroke="black" points="1366.38,-205.76 1369.88,-215.76 1373.38,-205.76 1366.38,-205.76"/>
</g>
<!-- SchoolMigrationService  -->
<g id="node8" class="node">
<title>SchoolMigrationService </title>
<polygon fill="#fb8072" stroke="black" points="1323.36,-252 1166.64,-252 1166.64,-216 1323.36,-216 1323.36,-252"/>
<text text-anchor="middle" x="1245" y="-229.8" font-family="Times,serif" font-size="14.00">SchoolMigrationService </text>
</g>
<!-- UserLoginMigrationModule&#45;&gt;SchoolMigrationService  -->
<g id="edge7" class="edge">
<title>UserLoginMigrationModule&#45;&gt;SchoolMigrationService </title>
<path fill="none" stroke="black" stroke-dasharray="5,2" d="M1203.26,-187.11C1203.26,-187.11 1203.26,-205.99 1203.26,-205.99"/>
<polygon fill="black" stroke="black" points="1199.76,-205.99 1203.26,-215.99 1206.76,-205.99 1199.76,-205.99"/>
</g>
<!-- UserLoginMigrationService  -->
<g id="node9" class="node">
<title>UserLoginMigrationService </title>
<polygon fill="#fb8072" stroke="black" points="1148.84,-252 971.16,-252 971.16,-216 1148.84,-216 1148.84,-252"/>
<text text-anchor="middle" x="1060" y="-229.8" font-family="Times,serif" font-size="14.00">UserLoginMigrationService </text>
</g>
<!-- UserLoginMigrationModule&#45;&gt;UserLoginMigrationService  -->
<g id="edge8" class="edge">
<title>UserLoginMigrationModule&#45;&gt;UserLoginMigrationService </title>
<path fill="none" stroke="black" stroke-dasharray="5,2" d="M1106.48,-187.11C1106.48,-187.11 1106.48,-205.99 1106.48,-205.99"/>
<polygon fill="black" stroke="black" points="1102.98,-205.99 1106.48,-215.99 1109.98,-205.99 1102.98,-205.99"/>
</g>
<!-- UserMigrationService  -->
<g id="node10" class="node">
<title>UserMigrationService </title>
<polygon fill="#fb8072" stroke="black" points="952.9,-252 809.1,-252 809.1,-216 952.9,-216 952.9,-252"/>
<text text-anchor="middle" x="881" y="-229.8" font-family="Times,serif" font-size="14.00">UserMigrationService </text>
</g>
<!-- UserLoginMigrationModule&#45;&gt;UserMigrationService  -->
<g id="edge9" class="edge">
<title>UserLoginMigrationModule&#45;&gt;UserMigrationService </title>
<path fill="none" stroke="black" stroke-dasharray="5,2" d="M1064.23,-181C1009.41,-181 949.19,-181 949.19,-181 949.19,-181 949.19,-205.76 949.19,-205.76"/>
<polygon fill="black" stroke="black" points="945.69,-205.76 949.19,-215.76 952.69,-205.76 945.69,-205.76"/>
</g>
<!-- MigrationCheckService -->
<g id="node11" class="node">
<title>MigrationCheckService</title>
<ellipse fill="#fdb462" stroke="black" cx="1067" cy="-104" rx="103.07" ry="18"/>
<text text-anchor="middle" x="1067" y="-99.8" font-family="Times,serif" font-size="14.00">MigrationCheckService</text>
</g>
<!-- MigrationCheckService&#45;&gt;UserLoginMigrationModule -->
<g id="edge10" class="edge">
<title>MigrationCheckService&#45;&gt;UserLoginMigrationModule</title>
<path fill="none" stroke="black" d="M1117.29,-119.73C1117.29,-119.73 1117.29,-140.65 1117.29,-140.65"/>
<polygon fill="black" stroke="black" points="1113.79,-140.65 1117.29,-150.65 1120.79,-140.65 1113.79,-140.65"/>
</g>
<!-- SchoolMigrationService -->
<g id="node12" class="node">
<title>SchoolMigrationService</title>
<ellipse fill="#fdb462" stroke="black" cx="840" cy="-104" rx="105.38" ry="18"/>
<text text-anchor="middle" x="840" y="-99.8" font-family="Times,serif" font-size="14.00">SchoolMigrationService</text>
</g>
<!-- SchoolMigrationService&#45;&gt;UserLoginMigrationModule -->
<g id="edge11" class="edge">
<title>SchoolMigrationService&#45;&gt;UserLoginMigrationModule</title>
<path fill="none" stroke="black" d="M877.25,-121.06C877.25,-136.55 877.25,-157 877.25,-157 877.25,-157 1053.93,-157 1053.93,-157"/>
<polygon fill="black" stroke="black" points="1053.93,-160.5 1063.93,-157 1053.93,-153.5 1053.93,-160.5"/>
</g>
<!-- UserLoginMigrationRepo -->
<g id="node13" class="node">
<title>UserLoginMigrationRepo</title>
<ellipse fill="#fdb462" stroke="black" cx="605" cy="-104" rx="111.18" ry="18"/>
<text text-anchor="middle" x="605" y="-99.8" font-family="Times,serif" font-size="14.00">UserLoginMigrationRepo</text>
</g>
<!-- UserLoginMigrationRepo&#45;&gt;UserLoginMigrationModule -->
<g id="edge12" class="edge">
<title>UserLoginMigrationRepo&#45;&gt;UserLoginMigrationModule</title>
<path fill="none" stroke="black" d="M605,-122.02C605,-139.37 605,-163 605,-163 605,-163 1054.11,-163 1054.11,-163"/>
<polygon fill="black" stroke="black" points="1054.12,-166.5 1064.11,-163 1054.11,-159.5 1054.12,-166.5"/>
</g>
<!-- UserLoginMigrationService -->
<g id="node14" class="node">
<title>UserLoginMigrationService</title>
<ellipse fill="#fdb462" stroke="black" cx="356" cy="-104" rx="119.82" ry="18"/>
<text text-anchor="middle" x="356" y="-99.8" font-family="Times,serif" font-size="14.00">UserLoginMigrationService</text>
</g>
<!-- UserLoginMigrationService&#45;&gt;UserLoginMigrationModule -->
<g id="edge13" class="edge">
<title>UserLoginMigrationService&#45;&gt;UserLoginMigrationModule</title>
<path fill="none" stroke="black" d="M356,-122.11C356,-141.34 356,-169 356,-169 356,-169 1054.16,-169 1054.16,-169"/>
<polygon fill="black" stroke="black" points="1054.16,-172.5 1064.16,-169 1054.16,-165.5 1054.16,-172.5"/>
</g>
<!-- UserMigrationService -->
<g id="node15" class="node">
<title>UserMigrationService</title>
<ellipse fill="#fdb462" stroke="black" cx="121" cy="-104" rx="96.68" ry="18"/>
<text text-anchor="middle" x="121" y="-99.8" font-family="Times,serif" font-size="14.00">UserMigrationService</text>
</g>
<!-- UserMigrationService&#45;&gt;UserLoginMigrationModule -->
<g id="edge14" class="edge">
<title>UserMigrationService&#45;&gt;UserLoginMigrationModule</title>
<path fill="none" stroke="black" d="M121,-122.28C121,-143.32 121,-175 121,-175 121,-175 1054.1,-175 1054.1,-175"/>
<polygon fill="black" stroke="black" points="1054.1,-178.5 1064.1,-175 1054.1,-171.5 1054.1,-178.5"/>
</g>
</g>
</svg>
