<?xml version="1.0" encoding="UTF-8" standalone="no"?>
<!DOCTYPE svg PUBLIC "-//W3C//DTD SVG 1.1//EN"
 "http://www.w3.org/Graphics/SVG/1.1/DTD/svg11.dtd">
<!-- Generated by graphviz version 5.0.0 (20220707.1540)
 -->
<!-- Title: dependencies Pages: 1 -->
<svg width="1548pt" height="247pt"
 viewBox="0.00 0.00 1548.00 246.80" xmlns="http://www.w3.org/2000/svg" xmlns:xlink="http://www.w3.org/1999/xlink">
<g id="graph0" class="graph" transform="scale(1 1) rotate(0) translate(4 242.8)">
<title>dependencies</title>
<polygon fill="white" stroke="transparent" points="-4,4 -4,-242.8 1544,-242.8 1544,4 -4,4"/>
<text text-anchor="middle" x="770" y="-8.2" font-family="sans-serif" font-size="14.00">dependencies</text>
<g id="clust1" class="cluster">
<title>cluster_UserLoginMigrationModule</title>
<polygon fill="none" stroke="black" stroke-dasharray="1,5" points="8,-32.8 8,-230.8 1532,-230.8 1532,-32.8 8,-32.8"/>
</g>
<g id="clust4" class="cluster">
<title>cluster_UserLoginMigrationModule_exports</title>
<polygon fill="none" stroke="black" points="183,-170.8 183,-222.8 885,-222.8 885,-170.8 183,-170.8"/>
</g>
<g id="clust6" class="cluster">
<title>cluster_UserLoginMigrationModule_providers</title>
<polygon fill="none" stroke="black" points="603,-40.8 603,-92.8 1524,-92.8 1524,-40.8 603,-40.8"/>
</g>
<g id="clust3" class="cluster">
<title>cluster_UserLoginMigrationModule_imports</title>
<polygon fill="none" stroke="black" points="16,-40.8 16,-92.8 595,-92.8 595,-40.8 16,-40.8"/>
</g>
<!-- AccountModule -->
<g id="node1" class="node">
<title>AccountModule</title>
<polygon fill="#8dd3c7" stroke="black" points="587.48,-84.8 584.48,-88.8 563.48,-88.8 560.48,-84.8 480.52,-84.8 480.52,-48.8 587.48,-48.8 587.48,-84.8"/>
<text text-anchor="middle" x="534" y="-62.6" font-family="Times,serif" font-size="14.00">AccountModule</text>
</g>
<!-- UserLoginMigrationModule -->
<g id="node6" class="node">
<title>UserLoginMigrationModule</title>
<polygon fill="#8dd3c7" stroke="black" points="621.92,-149.8 618.92,-153.8 597.92,-153.8 594.92,-149.8 446.08,-149.8 446.08,-113.8 621.92,-113.8 621.92,-149.8"/>
<text text-anchor="middle" x="534" y="-127.6" font-family="Times,serif" font-size="14.00">UserLoginMigrationModule</text>
</g>
<!-- AccountModule&#45;&gt;UserLoginMigrationModule -->
<g id="edge1" class="edge">
<title>AccountModule&#45;&gt;UserLoginMigrationModule</title>
<path fill="none" stroke="black" d="M534,-84.91C534,-84.91 534,-103.79 534,-103.79"/>
<polygon fill="black" stroke="black" points="530.5,-103.79 534,-113.79 537.5,-103.79 530.5,-103.79"/>
</g>
<!-- LoggerModule -->
<g id="node2" class="node">
<title>LoggerModule</title>
<polygon fill="#8dd3c7" stroke="black" points="462.98,-84.8 459.98,-88.8 438.98,-88.8 435.98,-84.8 363.02,-84.8 363.02,-48.8 462.98,-48.8 462.98,-84.8"/>
<text text-anchor="middle" x="413" y="-62.6" font-family="Times,serif" font-size="14.00">LoggerModule</text>
</g>
<!-- LoggerModule&#45;&gt;UserLoginMigrationModule -->
<g id="edge2" class="edge">
<title>LoggerModule&#45;&gt;UserLoginMigrationModule</title>
<path fill="none" stroke="black" d="M454.64,-84.91C454.64,-84.91 454.64,-103.79 454.64,-103.79"/>
<polygon fill="black" stroke="black" points="451.14,-103.79 454.64,-113.79 458.14,-103.79 451.14,-103.79"/>
</g>
<!-- SchoolModule -->
<g id="node3" class="node">
<title>SchoolModule</title>
<polygon fill="#8dd3c7" stroke="black" points="345.44,-84.8 342.44,-88.8 321.44,-88.8 318.44,-84.8 246.56,-84.8 246.56,-48.8 345.44,-48.8 345.44,-84.8"/>
<text text-anchor="middle" x="296" y="-62.6" font-family="Times,serif" font-size="14.00">SchoolModule</text>
</g>
<!-- SchoolModule&#45;&gt;UserLoginMigrationModule -->
<g id="edge3" class="edge">
<title>SchoolModule&#45;&gt;UserLoginMigrationModule</title>
<path fill="none" stroke="black" d="M340.09,-84.81C340.09,-100.85 340.09,-121.8 340.09,-121.8 340.09,-121.8 436.12,-121.8 436.12,-121.8"/>
<polygon fill="black" stroke="black" points="436.12,-125.3 446.12,-121.8 436.12,-118.3 436.12,-125.3"/>
</g>
<!-- SystemModule -->
<g id="node4" class="node">
<title>SystemModule</title>
<polygon fill="#8dd3c7" stroke="black" points="228.28,-84.8 225.28,-88.8 204.28,-88.8 201.28,-84.8 127.72,-84.8 127.72,-48.8 228.28,-48.8 228.28,-84.8"/>
<text text-anchor="middle" x="178" y="-62.6" font-family="Times,serif" font-size="14.00">SystemModule</text>
</g>
<!-- SystemModule&#45;&gt;UserLoginMigrationModule -->
<g id="edge4" class="edge">
<title>SystemModule&#45;&gt;UserLoginMigrationModule</title>
<path fill="none" stroke="black" d="M209.72,-85.07C209.72,-103.36 209.72,-128.8 209.72,-128.8 209.72,-128.8 436.24,-128.8 436.24,-128.8"/>
<polygon fill="black" stroke="black" points="436.24,-132.3 446.24,-128.8 436.24,-125.3 436.24,-132.3"/>
</g>
<!-- UserModule -->
<g id="node5" class="node">
<title>UserModule</title>
<polygon fill="#8dd3c7" stroke="black" points="109.99,-84.8 106.99,-88.8 85.99,-88.8 82.99,-84.8 24.01,-84.8 24.01,-48.8 109.99,-48.8 109.99,-84.8"/>
<text text-anchor="middle" x="67" y="-62.6" font-family="Times,serif" font-size="14.00">UserModule</text>
</g>
<!-- UserModule&#45;&gt;UserLoginMigrationModule -->
<g id="edge5" class="edge">
<title>UserModule&#45;&gt;UserLoginMigrationModule</title>
<path fill="none" stroke="black" d="M67,-84.93C67,-105.37 67,-135.8 67,-135.8 67,-135.8 436.16,-135.8 436.16,-135.8"/>
<polygon fill="black" stroke="black" points="436.16,-139.3 446.16,-135.8 436.16,-132.3 436.16,-139.3"/>
</g>
<!-- MigrationCheckService  -->
<g id="node7" class="node">
<title>MigrationCheckService </title>
<polygon fill="#fb8072" stroke="black" points="876.74,-214.8 723.26,-214.8 723.26,-178.8 876.74,-178.8 876.74,-214.8"/>
<text text-anchor="middle" x="800" y="-192.6" font-family="Times,serif" font-size="14.00">MigrationCheckService </text>
</g>
<!-- UserLoginMigrationModule&#45;&gt;MigrationCheckService  -->
<g id="edge6" class="edge">
<title>UserLoginMigrationModule&#45;&gt;MigrationCheckService </title>
<path fill="none" stroke="black" stroke-dasharray="5,2" d="M621.98,-142.8C686.94,-142.8 764.12,-142.8 764.12,-142.8 764.12,-142.8 764.12,-168.52 764.12,-168.52"/>
<polygon fill="black" stroke="black" points="760.62,-168.52 764.12,-178.52 767.62,-168.52 760.62,-168.52"/>
</g>
<!-- SchoolMigrationService  -->
<g id="node8" class="node">
<title>SchoolMigrationService </title>
<polygon fill="#fb8072" stroke="black" points="705.36,-214.8 548.64,-214.8 548.64,-178.8 705.36,-178.8 705.36,-214.8"/>
<text text-anchor="middle" x="627" y="-192.6" font-family="Times,serif" font-size="14.00">SchoolMigrationService </text>
</g>
<!-- UserLoginMigrationModule&#45;&gt;SchoolMigrationService  -->
<g id="edge7" class="edge">
<title>UserLoginMigrationModule&#45;&gt;SchoolMigrationService </title>
<path fill="none" stroke="black" stroke-dasharray="5,2" d="M585.26,-149.91C585.26,-149.91 585.26,-168.79 585.26,-168.79"/>
<polygon fill="black" stroke="black" points="581.76,-168.79 585.26,-178.79 588.76,-168.79 581.76,-168.79"/>
</g>
<!-- UserLoginMigrationService  -->
<g id="node9" class="node">
<title>UserLoginMigrationService </title>
<polygon fill="#fb8072" stroke="black" points="530.85,-214.8 353.15,-214.8 353.15,-178.8 530.85,-178.8 530.85,-214.8"/>
<text text-anchor="middle" x="442" y="-192.6" font-family="Times,serif" font-size="14.00">UserLoginMigrationService </text>
</g>
<!-- UserLoginMigrationModule&#45;&gt;UserLoginMigrationService  -->
<g id="edge8" class="edge">
<title>UserLoginMigrationModule&#45;&gt;UserLoginMigrationService </title>
<path fill="none" stroke="black" stroke-dasharray="5,2" d="M488.48,-149.91C488.48,-149.91 488.48,-168.79 488.48,-168.79"/>
<polygon fill="black" stroke="black" points="484.98,-168.79 488.48,-178.79 491.98,-168.79 484.98,-168.79"/>
</g>
<!-- UserMigrationService  -->
<g id="node10" class="node">
<title>UserMigrationService </title>
<polygon fill="#fb8072" stroke="black" points="334.91,-214.8 191.09,-214.8 191.09,-178.8 334.91,-178.8 334.91,-214.8"/>
<text text-anchor="middle" x="263" y="-192.6" font-family="Times,serif" font-size="14.00">UserMigrationService </text>
</g>
<!-- UserLoginMigrationModule&#45;&gt;UserMigrationService  -->
<g id="edge9" class="edge">
<title>UserLoginMigrationModule&#45;&gt;UserMigrationService </title>
<path fill="none" stroke="black" stroke-dasharray="5,2" d="M446.22,-142.8C376.58,-142.8 290.87,-142.8 290.87,-142.8 290.87,-142.8 290.87,-168.52 290.87,-168.52"/>
<polygon fill="black" stroke="black" points="287.37,-168.52 290.87,-178.52 294.37,-168.52 287.37,-168.52"/>
</g>
<!-- MigrationCheckService -->
<g id="node11" class="node">
<title>MigrationCheckService</title>
<ellipse fill="#fdb462" stroke="black" cx="1413" cy="-66.8" rx="103.07" ry="18"/>
<text text-anchor="middle" x="1413" y="-62.6" font-family="Times,serif" font-size="14.00">MigrationCheckService</text>
</g>
<!-- MigrationCheckService&#45;&gt;UserLoginMigrationModule -->
<g id="edge10" class="edge">
<title>MigrationCheckService&#45;&gt;UserLoginMigrationModule</title>
<path fill="none" stroke="black" d="M1413,-84.93C1413,-105.37 1413,-135.8 1413,-135.8 1413,-135.8 631.9,-135.8 631.9,-135.8"/>
<polygon fill="black" stroke="black" points="631.9,-132.3 621.9,-135.8 631.9,-139.3 631.9,-132.3"/>
</g>
<!-- SchoolMigrationService -->
<g id="node12" class="node">
<title>SchoolMigrationService</title>
<ellipse fill="#fdb462" stroke="black" cx="1186" cy="-66.8" rx="105.38" ry="18"/>
<text text-anchor="middle" x="1186" y="-62.6" font-family="Times,serif" font-size="14.00">SchoolMigrationService</text>
</g>
<!-- SchoolMigrationService&#45;&gt;UserLoginMigrationModule -->
<g id="edge11" class="edge">
<title>SchoolMigrationService&#45;&gt;UserLoginMigrationModule</title>
<path fill="none" stroke="black" d="M1186,-85.07C1186,-103.36 1186,-128.8 1186,-128.8 1186,-128.8 631.93,-128.8 631.93,-128.8"/>
<polygon fill="black" stroke="black" points="631.93,-125.3 621.93,-128.8 631.93,-132.3 631.93,-125.3"/>
</g>
<!-- UserLoginMigrationService -->
<g id="node13" class="node">
<title>UserLoginMigrationService</title>
<ellipse fill="#fdb462" stroke="black" cx="943" cy="-66.8" rx="119.84" ry="18"/>
<text text-anchor="middle" x="943" y="-62.6" font-family="Times,serif" font-size="14.00">UserLoginMigrationService</text>
</g>
<!-- UserLoginMigrationService&#45;&gt;UserLoginMigrationModule -->
<g id="edge12" class="edge">
<title>UserLoginMigrationService&#45;&gt;UserLoginMigrationModule</title>
<path fill="none" stroke="black" d="M849.85,-78.2C849.85,-94.31 849.85,-121.8 849.85,-121.8 849.85,-121.8 631.98,-121.8 631.98,-121.8"/>
<polygon fill="black" stroke="black" points="631.98,-118.3 621.98,-121.8 631.98,-125.3 631.98,-118.3"/>
</g>
<!-- UserMigrationService -->
<g id="node14" class="node">
<title>UserMigrationService</title>
<ellipse fill="#fdb462" stroke="black" cx="708" cy="-66.8" rx="96.7" ry="18"/>
<text text-anchor="middle" x="708" y="-62.6" font-family="Times,serif" font-size="14.00">UserMigrationService</text>
</g>
<!-- UserMigrationService&#45;&gt;UserLoginMigrationModule -->
<g id="edge13" class="edge">
<title>UserMigrationService&#45;&gt;UserLoginMigrationModule</title>
<path fill="none" stroke="black" d="M616.43,-72.8C616.43,-72.8 616.43,-103.56 616.43,-103.56"/>
<polygon fill="black" stroke="black" points="612.93,-103.56 616.43,-113.56 619.93,-103.56 612.93,-103.56"/>
</g>
</g>
</svg>
