<?xml version="1.0" encoding="UTF-8" standalone="no"?>
<!DOCTYPE svg PUBLIC "-//W3C//DTD SVG 1.1//EN"
 "http://www.w3.org/Graphics/SVG/1.1/DTD/svg11.dtd">
<!-- Generated by graphviz version 5.0.0 (20220707.1540)
 -->
<!-- Title: dependencies Pages: 1 -->
<svg width="1548pt" height="247pt"
 viewBox="0.00 0.00 1548.00 246.80" xmlns="http://www.w3.org/2000/svg" xmlns:xlink="http://www.w3.org/1999/xlink">
<g id="graph0" class="graph" transform="scale(1 1) rotate(0) translate(4 242.8)">
<title>dependencies</title>
<polygon fill="white" stroke="transparent" points="-4,4 -4,-242.8 1544,-242.8 1544,4 -4,4"/>
<text text-anchor="middle" x="770" y="-8.2" font-family="sans-serif" font-size="14.00">dependencies</text>
<g id="clust1" class="cluster">
<title>cluster_UserLoginMigrationModule</title>
<polygon fill="none" stroke="black" stroke-dasharray="1,5" points="8,-32.8 8,-230.8 1532,-230.8 1532,-32.8 8,-32.8"/>
</g>
<g id="clust3" class="cluster">
<title>cluster_UserLoginMigrationModule_imports</title>
<polygon fill="none" stroke="black" points="945,-40.8 945,-92.8 1524,-92.8 1524,-40.8 945,-40.8"/>
</g>
<g id="clust4" class="cluster">
<title>cluster_UserLoginMigrationModule_exports</title>
<polygon fill="none" stroke="black" points="645,-170.8 645,-222.8 1347,-222.8 1347,-170.8 645,-170.8"/>
</g>
<g id="clust6" class="cluster">
<title>cluster_UserLoginMigrationModule_providers</title>
<polygon fill="none" stroke="black" points="16,-40.8 16,-92.8 937,-92.8 937,-40.8 16,-40.8"/>
</g>
<!-- AccountModule -->
<g id="node1" class="node">
<title>AccountModule</title>
<polygon fill="#8dd3c7" stroke="black" points="1516.48,-84.8 1513.48,-88.8 1492.48,-88.8 1489.48,-84.8 1409.52,-84.8 1409.52,-48.8 1516.48,-48.8 1516.48,-84.8"/>
<text text-anchor="middle" x="1463" y="-62.6" font-family="Times,serif" font-size="14.00">AccountModule</text>
</g>
<!-- UserLoginMigrationModule -->
<g id="node6" class="node">
<title>UserLoginMigrationModule</title>
<polygon fill="#8dd3c7" stroke="black" points="1083.92,-149.8 1080.92,-153.8 1059.92,-153.8 1056.92,-149.8 908.08,-149.8 908.08,-113.8 1083.92,-113.8 1083.92,-149.8"/>
<text text-anchor="middle" x="996" y="-127.6" font-family="Times,serif" font-size="14.00">UserLoginMigrationModule</text>
</g>
<!-- AccountModule&#45;&gt;UserLoginMigrationModule -->
<g id="edge1" class="edge">
<title>AccountModule&#45;&gt;UserLoginMigrationModule</title>
<path fill="none" stroke="black" d="M1463,-84.93C1463,-105.37 1463,-135.8 1463,-135.8 1463,-135.8 1093.84,-135.8 1093.84,-135.8"/>
<polygon fill="black" stroke="black" points="1093.84,-132.3 1083.84,-135.8 1093.84,-139.3 1093.84,-132.3"/>
</g>
<!-- LoggerModule -->
<g id="node2" class="node">
<title>LoggerModule</title>
<polygon fill="#8dd3c7" stroke="black" points="1391.98,-84.8 1388.98,-88.8 1367.98,-88.8 1364.98,-84.8 1292.02,-84.8 1292.02,-48.8 1391.98,-48.8 1391.98,-84.8"/>
<text text-anchor="middle" x="1342" y="-62.6" font-family="Times,serif" font-size="14.00">LoggerModule</text>
</g>
<!-- LoggerModule&#45;&gt;UserLoginMigrationModule -->
<g id="edge2" class="edge">
<title>LoggerModule&#45;&gt;UserLoginMigrationModule</title>
<path fill="none" stroke="black" d="M1315.31,-85.07C1315.31,-103.36 1315.31,-128.8 1315.31,-128.8 1315.31,-128.8 1094.1,-128.8 1094.1,-128.8"/>
<polygon fill="black" stroke="black" points="1094.1,-125.3 1084.1,-128.8 1094.1,-132.3 1094.1,-125.3"/>
</g>
<!-- SchoolModule -->
<g id="node3" class="node">
<title>SchoolModule</title>
<polygon fill="#8dd3c7" stroke="black" points="1274.44,-84.8 1271.44,-88.8 1250.44,-88.8 1247.44,-84.8 1175.56,-84.8 1175.56,-48.8 1274.44,-48.8 1274.44,-84.8"/>
<text text-anchor="middle" x="1225" y="-62.6" font-family="Times,serif" font-size="14.00">SchoolModule</text>
</g>
<!-- SchoolModule&#45;&gt;UserLoginMigrationModule -->
<g id="edge3" class="edge">
<title>SchoolModule&#45;&gt;UserLoginMigrationModule</title>
<path fill="none" stroke="black" d="M1180.58,-84.81C1180.58,-100.85 1180.58,-121.8 1180.58,-121.8 1180.58,-121.8 1093.97,-121.8 1093.97,-121.8"/>
<polygon fill="black" stroke="black" points="1093.97,-118.3 1083.97,-121.8 1093.97,-125.3 1093.97,-118.3"/>
</g>
<!-- SystemModule -->
<g id="node4" class="node">
<title>SystemModule</title>
<polygon fill="#8dd3c7" stroke="black" points="1157.28,-84.8 1154.28,-88.8 1133.28,-88.8 1130.28,-84.8 1056.72,-84.8 1056.72,-48.8 1157.28,-48.8 1157.28,-84.8"/>
<text text-anchor="middle" x="1107" y="-62.6" font-family="Times,serif" font-size="14.00">SystemModule</text>
</g>
<!-- SystemModule&#45;&gt;UserLoginMigrationModule -->
<g id="edge4" class="edge">
<title>SystemModule&#45;&gt;UserLoginMigrationModule</title>
<path fill="none" stroke="black" d="M1070.16,-84.91C1070.16,-84.91 1070.16,-103.79 1070.16,-103.79"/>
<polygon fill="black" stroke="black" points="1066.66,-103.79 1070.16,-113.79 1073.66,-103.79 1066.66,-103.79"/>
</g>
<!-- UserModule -->
<g id="node5" class="node">
<title>UserModule</title>
<polygon fill="#8dd3c7" stroke="black" points="1038.99,-84.8 1035.99,-88.8 1014.99,-88.8 1011.99,-84.8 953.01,-84.8 953.01,-48.8 1038.99,-48.8 1038.99,-84.8"/>
<text text-anchor="middle" x="996" y="-62.6" font-family="Times,serif" font-size="14.00">UserModule</text>
</g>
<!-- UserModule&#45;&gt;UserLoginMigrationModule -->
<g id="edge5" class="edge">
<title>UserModule&#45;&gt;UserLoginMigrationModule</title>
<path fill="none" stroke="black" d="M996,-84.91C996,-84.91 996,-103.79 996,-103.79"/>
<polygon fill="black" stroke="black" points="992.5,-103.79 996,-113.79 999.5,-103.79 992.5,-103.79"/>
</g>
<!-- MigrationCheckService  -->
<g id="node7" class="node">
<title>MigrationCheckService </title>
<polygon fill="#fb8072" stroke="black" points="1338.74,-214.8 1185.26,-214.8 1185.26,-178.8 1338.74,-178.8 1338.74,-214.8"/>
<text text-anchor="middle" x="1262" y="-192.6" font-family="Times,serif" font-size="14.00">MigrationCheckService </text>
</g>
<!-- UserLoginMigrationModule&#45;&gt;MigrationCheckService  -->
<g id="edge6" class="edge">
<title>UserLoginMigrationModule&#45;&gt;MigrationCheckService </title>
<path fill="none" stroke="black" stroke-dasharray="5,2" d="M1083.72,-142.8C1150.07,-142.8 1229.8,-142.8 1229.8,-142.8 1229.8,-142.8 1229.8,-168.52 1229.8,-168.52"/>
<polygon fill="black" stroke="black" points="1226.3,-168.52 1229.8,-178.52 1233.3,-168.52 1226.3,-168.52"/>
</g>
<!-- SchoolMigrationService  -->
<g id="node8" class="node">
<title>SchoolMigrationService </title>
<polygon fill="#fb8072" stroke="black" points="1167.36,-214.8 1010.64,-214.8 1010.64,-178.8 1167.36,-178.8 1167.36,-214.8"/>
<text text-anchor="middle" x="1089" y="-192.6" font-family="Times,serif" font-size="14.00">SchoolMigrationService </text>
</g>
<!-- UserLoginMigrationModule&#45;&gt;SchoolMigrationService  -->
<g id="edge7" class="edge">
<title>UserLoginMigrationModule&#45;&gt;SchoolMigrationService </title>
<path fill="none" stroke="black" stroke-dasharray="5,2" d="M1047.26,-149.91C1047.26,-149.91 1047.26,-168.79 1047.26,-168.79"/>
<polygon fill="black" stroke="black" points="1043.76,-168.79 1047.26,-178.79 1050.76,-168.79 1043.76,-168.79"/>
</g>
<!-- UserLoginMigrationService  -->
<g id="node9" class="node">
<title>UserLoginMigrationService </title>
<polygon fill="#fb8072" stroke="black" points="992.85,-214.8 815.15,-214.8 815.15,-178.8 992.85,-178.8 992.85,-214.8"/>
<text text-anchor="middle" x="904" y="-192.6" font-family="Times,serif" font-size="14.00">UserLoginMigrationService </text>
</g>
<!-- UserLoginMigrationModule&#45;&gt;UserLoginMigrationService  -->
<g id="edge8" class="edge">
<title>UserLoginMigrationModule&#45;&gt;UserLoginMigrationService </title>
<path fill="none" stroke="black" stroke-dasharray="5,2" d="M950.48,-149.91C950.48,-149.91 950.48,-168.79 950.48,-168.79"/>
<polygon fill="black" stroke="black" points="946.98,-168.79 950.48,-178.79 953.98,-168.79 946.98,-168.79"/>
</g>
<!-- UserMigrationService  -->
<g id="node10" class="node">
<title>UserMigrationService </title>
<polygon fill="#fb8072" stroke="black" points="796.91,-214.8 653.09,-214.8 653.09,-178.8 796.91,-178.8 796.91,-214.8"/>
<text text-anchor="middle" x="725" y="-192.6" font-family="Times,serif" font-size="14.00">UserMigrationService </text>
</g>
<!-- UserLoginMigrationModule&#45;&gt;UserMigrationService  -->
<g id="edge9" class="edge">
<title>UserLoginMigrationModule&#45;&gt;UserMigrationService </title>
<path fill="none" stroke="black" stroke-dasharray="5,2" d="M908.06,-142.8C840.91,-142.8 759.83,-142.8 759.83,-142.8 759.83,-142.8 759.83,-168.52 759.83,-168.52"/>
<polygon fill="black" stroke="black" points="756.33,-168.52 759.83,-178.52 763.33,-168.52 756.33,-168.52"/>
</g>
<!-- MigrationCheckService -->
<g id="node11" class="node">
<title>MigrationCheckService</title>
<ellipse fill="#fdb462" stroke="black" cx="826" cy="-66.8" rx="103.07" ry="18"/>
<text text-anchor="middle" x="826" y="-62.6" font-family="Times,serif" font-size="14.00">MigrationCheckService</text>
</g>
<!-- MigrationCheckService&#45;&gt;UserLoginMigrationModule -->
<g id="edge10" class="edge">
<title>MigrationCheckService&#45;&gt;UserLoginMigrationModule</title>
<path fill="none" stroke="black" d="M918.79,-74.77C918.79,-74.77 918.79,-103.67 918.79,-103.67"/>
<polygon fill="black" stroke="black" points="915.29,-103.67 918.79,-113.67 922.29,-103.67 915.29,-103.67"/>
</g>
<!-- SchoolMigrationService -->
<g id="node12" class="node">
<title>SchoolMigrationService</title>
<ellipse fill="#fdb462" stroke="black" cx="599" cy="-66.8" rx="105.38" ry="18"/>
<text text-anchor="middle" x="599" y="-62.6" font-family="Times,serif" font-size="14.00">SchoolMigrationService</text>
</g>
<!-- SchoolMigrationService&#45;&gt;UserLoginMigrationModule -->
<g id="edge11" class="edge">
<title>SchoolMigrationService&#45;&gt;UserLoginMigrationModule</title>
<path fill="none" stroke="black" d="M678.74,-78.73C678.74,-94.91 678.74,-121.8 678.74,-121.8 678.74,-121.8 898.05,-121.8 898.05,-121.8"/>
<polygon fill="black" stroke="black" points="898.05,-125.3 908.05,-121.8 898.05,-118.3 898.05,-125.3"/>
</g>
<!-- UserLoginMigrationService -->
<g id="node13" class="node">
<title>UserLoginMigrationService</title>
<ellipse fill="#fdb462" stroke="black" cx="356" cy="-66.8" rx="119.84" ry="18"/>
<text text-anchor="middle" x="356" y="-62.6" font-family="Times,serif" font-size="14.00">UserLoginMigrationService</text>
</g>
<!-- UserLoginMigrationService&#45;&gt;UserLoginMigrationModule -->
<g id="edge12" class="edge">
<title>UserLoginMigrationService&#45;&gt;UserLoginMigrationModule</title>
<path fill="none" stroke="black" d="M356,-85.07C356,-103.36 356,-128.8 356,-128.8 356,-128.8 898.02,-128.8 898.02,-128.8"/>
<polygon fill="black" stroke="black" points="898.02,-132.3 908.02,-128.8 898.02,-125.3 898.02,-132.3"/>
</g>
<!-- UserMigrationService -->
<g id="node14" class="node">
<title>UserMigrationService</title>
<ellipse fill="#fdb462" stroke="black" cx="121" cy="-66.8" rx="96.7" ry="18"/>
<text text-anchor="middle" x="121" y="-62.6" font-family="Times,serif" font-size="14.00">UserMigrationService</text>
</g>
<!-- UserMigrationService&#45;&gt;UserLoginMigrationModule -->
<g id="edge13" class="edge">
<title>UserMigrationService&#45;&gt;UserLoginMigrationModule</title>
<path fill="none" stroke="black" d="M121,-84.93C121,-105.37 121,-135.8 121,-135.8 121,-135.8 898.1,-135.8 898.1,-135.8"/>
<polygon fill="black" stroke="black" points="898.1,-139.3 908.1,-135.8 898.1,-132.3 898.1,-139.3"/>
</g>
</g>
</svg>
