<?xml version="1.0" encoding="UTF-8" standalone="no"?>
<!DOCTYPE svg PUBLIC "-//W3C//DTD SVG 1.1//EN"
 "http://www.w3.org/Graphics/SVG/1.1/DTD/svg11.dtd">
<!-- Generated by graphviz version 2.47.0 (20210316.0004)
 -->
<!-- Title: dependencies Pages: 1 -->
<svg width="1548pt" height="284pt"
 viewBox="0.00 0.00 1548.00 284.00" xmlns="http://www.w3.org/2000/svg" xmlns:xlink="http://www.w3.org/1999/xlink">
<g id="graph0" class="graph" transform="scale(1 1) rotate(0) translate(4 280)">
<title>dependencies</title>
<polygon fill="white" stroke="transparent" points="-4,4 -4,-280 1544,-280 1544,4 -4,4"/>
<text text-anchor="start" x="749.01" y="-42.4" font-family="Times-12" font-weight="bold" font-size="14.00">Legend</text>
<polygon fill="#ffffb3" stroke="transparent" points="536,-10 536,-30 556,-30 556,-10 536,-10"/>
<text text-anchor="start" x="559.63" y="-15.4" font-family="Times-12" font-size="14.00"> &#160;Declarations</text>
<polygon fill="#8dd3c7" stroke="transparent" points="649,-10 649,-30 669,-30 669,-10 649,-10"/>
<text text-anchor="start" x="672.73" y="-15.4" font-family="Times-12" font-size="14.00"> &#160;Module</text>
<polygon fill="#80b1d3" stroke="transparent" points="735,-10 735,-30 755,-30 755,-10 735,-10"/>
<text text-anchor="start" x="758.78" y="-15.4" font-family="Times-12" font-size="14.00"> &#160;Bootstrap</text>
<polygon fill="#fdb462" stroke="transparent" points="832,-10 832,-30 852,-30 852,-10 832,-10"/>
<text text-anchor="start" x="855.67" y="-15.4" font-family="Times-12" font-size="14.00"> &#160;Providers</text>
<polygon fill="#fb8072" stroke="transparent" points="928,-10 928,-30 948,-30 948,-10 928,-10"/>
<text text-anchor="start" x="951.73" y="-15.4" font-family="Times-12" font-size="14.00"> &#160;Exports</text>
<g id="clust1" class="cluster">
<title>cluster_UserLoginMigrationModule</title>
<polygon fill="none" stroke="black" stroke-dasharray="1,5" points="8,-70 8,-268 1532,-268 1532,-70 8,-70"/>
</g>
<g id="clust3" class="cluster">
<title>cluster_UserLoginMigrationModule_imports</title>
<polygon fill="none" stroke="black" points="945,-78 945,-130 1524,-130 1524,-78 945,-78"/>
</g>
<g id="clust4" class="cluster">
<title>cluster_UserLoginMigrationModule_exports</title>
<polygon fill="none" stroke="black" points="645,-208 645,-260 1347,-260 1347,-208 645,-208"/>
</g>
<g id="clust6" class="cluster">
<title>cluster_UserLoginMigrationModule_providers</title>
<polygon fill="none" stroke="black" points="16,-78 16,-130 937,-130 937,-78 16,-78"/>
</g>
<!-- AccountModule -->
<g id="node1" class="node">
<title>AccountModule</title>
<polygon fill="#8dd3c7" stroke="black" points="1516.48,-122 1513.48,-126 1492.48,-126 1489.48,-122 1409.52,-122 1409.52,-86 1516.48,-86 1516.48,-122"/>
<text text-anchor="middle" x="1463" y="-99.8" font-family="Times,serif" font-size="14.00">AccountModule</text>
</g>
<!-- UserLoginMigrationModule -->
<g id="node6" class="node">
<title>UserLoginMigrationModule</title>
<polygon fill="#8dd3c7" stroke="black" points="1083.91,-187 1080.91,-191 1059.91,-191 1056.91,-187 908.09,-187 908.09,-151 1083.91,-151 1083.91,-187"/>
<text text-anchor="middle" x="996" y="-164.8" font-family="Times,serif" font-size="14.00">UserLoginMigrationModule</text>
</g>
<!-- AccountModule&#45;&gt;UserLoginMigrationModule -->
<g id="edge1" class="edge">
<title>AccountModule&#45;&gt;UserLoginMigrationModule</title>
<path fill="none" stroke="black" d="M1463,-122.13C1463,-142.57 1463,-173 1463,-173 1463,-173 1093.84,-173 1093.84,-173"/>
<polygon fill="black" stroke="black" points="1093.84,-169.5 1083.84,-173 1093.84,-176.5 1093.84,-169.5"/>
</g>
<!-- LoggerModule -->
<g id="node2" class="node">
<title>LoggerModule</title>
<polygon fill="#8dd3c7" stroke="black" points="1391.98,-122 1388.98,-126 1367.98,-126 1364.98,-122 1292.02,-122 1292.02,-86 1391.98,-86 1391.98,-122"/>
<text text-anchor="middle" x="1342" y="-99.8" font-family="Times,serif" font-size="14.00">LoggerModule</text>
</g>
<!-- LoggerModule&#45;&gt;UserLoginMigrationModule -->
<g id="edge2" class="edge">
<title>LoggerModule&#45;&gt;UserLoginMigrationModule</title>
<path fill="none" stroke="black" d="M1315.31,-122.27C1315.31,-140.56 1315.31,-166 1315.31,-166 1315.31,-166 1094.1,-166 1094.1,-166"/>
<polygon fill="black" stroke="black" points="1094.1,-162.5 1084.1,-166 1094.1,-169.5 1094.1,-162.5"/>
</g>
<!-- SchoolModule -->
<g id="node3" class="node">
<title>SchoolModule</title>
<polygon fill="#8dd3c7" stroke="black" points="1274.44,-122 1271.44,-126 1250.44,-126 1247.44,-122 1175.56,-122 1175.56,-86 1274.44,-86 1274.44,-122"/>
<text text-anchor="middle" x="1225" y="-99.8" font-family="Times,serif" font-size="14.00">SchoolModule</text>
</g>
<!-- SchoolModule&#45;&gt;UserLoginMigrationModule -->
<g id="edge3" class="edge">
<title>SchoolModule&#45;&gt;UserLoginMigrationModule</title>
<path fill="none" stroke="black" d="M1180.58,-122.01C1180.58,-138.05 1180.58,-159 1180.58,-159 1180.58,-159 1093.97,-159 1093.97,-159"/>
<polygon fill="black" stroke="black" points="1093.97,-155.5 1083.97,-159 1093.97,-162.5 1093.97,-155.5"/>
</g>
<!-- SystemModule -->
<g id="node4" class="node">
<title>SystemModule</title>
<polygon fill="#8dd3c7" stroke="black" points="1157.27,-122 1154.27,-126 1133.27,-126 1130.27,-122 1056.73,-122 1056.73,-86 1157.27,-86 1157.27,-122"/>
<text text-anchor="middle" x="1107" y="-99.8" font-family="Times,serif" font-size="14.00">SystemModule</text>
</g>
<!-- SystemModule&#45;&gt;UserLoginMigrationModule -->
<g id="edge4" class="edge">
<title>SystemModule&#45;&gt;UserLoginMigrationModule</title>
<path fill="none" stroke="black" d="M1070.16,-122.11C1070.16,-122.11 1070.16,-140.99 1070.16,-140.99"/>
<polygon fill="black" stroke="black" points="1066.66,-140.99 1070.16,-150.99 1073.66,-140.99 1066.66,-140.99"/>
</g>
<!-- UserModule -->
<g id="node5" class="node">
<title>UserModule</title>
<polygon fill="#8dd3c7" stroke="black" points="1038.98,-122 1035.98,-126 1014.98,-126 1011.98,-122 953.02,-122 953.02,-86 1038.98,-86 1038.98,-122"/>
<text text-anchor="middle" x="996" y="-99.8" font-family="Times,serif" font-size="14.00">UserModule</text>
</g>
<!-- UserModule&#45;&gt;UserLoginMigrationModule -->
<g id="edge5" class="edge">
<title>UserModule&#45;&gt;UserLoginMigrationModule</title>
<path fill="none" stroke="black" d="M996,-122.11C996,-122.11 996,-140.99 996,-140.99"/>
<polygon fill="black" stroke="black" points="992.5,-140.99 996,-150.99 999.5,-140.99 992.5,-140.99"/>
</g>
<!-- MigrationCheckService  -->
<g id="node7" class="node">
<title>MigrationCheckService </title>
<polygon fill="#fb8072" stroke="black" points="1338.74,-252 1185.26,-252 1185.26,-216 1338.74,-216 1338.74,-252"/>
<text text-anchor="middle" x="1262" y="-229.8" font-family="Times,serif" font-size="14.00">MigrationCheckService </text>
</g>
<!-- UserLoginMigrationModule&#45;&gt;MigrationCheckService  -->
<g id="edge6" class="edge">
<title>UserLoginMigrationModule&#45;&gt;MigrationCheckService </title>
<path fill="none" stroke="black" stroke-dasharray="5,2" d="M1083.72,-180C1150.07,-180 1229.8,-180 1229.8,-180 1229.8,-180 1229.8,-205.72 1229.8,-205.72"/>
<polygon fill="black" stroke="black" points="1226.3,-205.72 1229.8,-215.72 1233.3,-205.72 1226.3,-205.72"/>
</g>
<!-- SchoolMigrationService  -->
<g id="node8" class="node">
<title>SchoolMigrationService </title>
<polygon fill="#fb8072" stroke="black" points="1167.36,-252 1010.64,-252 1010.64,-216 1167.36,-216 1167.36,-252"/>
<text text-anchor="middle" x="1089" y="-229.8" font-family="Times,serif" font-size="14.00">SchoolMigrationService </text>
</g>
<!-- UserLoginMigrationModule&#45;&gt;SchoolMigrationService  -->
<g id="edge7" class="edge">
<title>UserLoginMigrationModule&#45;&gt;SchoolMigrationService </title>
<path fill="none" stroke="black" stroke-dasharray="5,2" d="M1047.26,-187.11C1047.26,-187.11 1047.26,-205.99 1047.26,-205.99"/>
<polygon fill="black" stroke="black" points="1043.76,-205.99 1047.26,-215.99 1050.76,-205.99 1043.76,-205.99"/>
</g>
<!-- UserLoginMigrationService  -->
<g id="node9" class="node">
<title>UserLoginMigrationService </title>
<polygon fill="#fb8072" stroke="black" points="992.84,-252 815.16,-252 815.16,-216 992.84,-216 992.84,-252"/>
<text text-anchor="middle" x="904" y="-229.8" font-family="Times,serif" font-size="14.00">UserLoginMigrationService </text>
</g>
<!-- UserLoginMigrationModule&#45;&gt;UserLoginMigrationService  -->
<g id="edge8" class="edge">
<title>UserLoginMigrationModule&#45;&gt;UserLoginMigrationService </title>
<path fill="none" stroke="black" stroke-dasharray="5,2" d="M950.48,-187.11C950.48,-187.11 950.48,-205.99 950.48,-205.99"/>
<polygon fill="black" stroke="black" points="946.98,-205.99 950.48,-215.99 953.98,-205.99 946.98,-205.99"/>
</g>
<!-- UserMigrationService  -->
<g id="node10" class="node">
<title>UserMigrationService </title>
<polygon fill="#fb8072" stroke="black" points="796.9,-252 653.1,-252 653.1,-216 796.9,-216 796.9,-252"/>
<text text-anchor="middle" x="725" y="-229.8" font-family="Times,serif" font-size="14.00">UserMigrationService </text>
</g>
<!-- UserLoginMigrationModule&#45;&gt;UserMigrationService  -->
<g id="edge9" class="edge">
<title>UserLoginMigrationModule&#45;&gt;UserMigrationService </title>
<path fill="none" stroke="black" stroke-dasharray="5,2" d="M908.06,-180C840.91,-180 759.83,-180 759.83,-180 759.83,-180 759.83,-205.72 759.83,-205.72"/>
<polygon fill="black" stroke="black" points="756.33,-205.72 759.83,-215.72 763.33,-205.72 756.33,-205.72"/>
</g>
<!-- MigrationCheckService -->
<g id="node11" class="node">
<title>MigrationCheckService</title>
<ellipse fill="#fdb462" stroke="black" cx="826" cy="-104" rx="103.07" ry="18"/>
<text text-anchor="middle" x="826" y="-99.8" font-family="Times,serif" font-size="14.00">MigrationCheckService</text>
</g>
<!-- MigrationCheckService&#45;&gt;UserLoginMigrationModule -->
<g id="edge10" class="edge">
<title>MigrationCheckService&#45;&gt;UserLoginMigrationModule</title>
<path fill="none" stroke="black" d="M918.79,-111.97C918.79,-111.97 918.79,-140.87 918.79,-140.87"/>
<polygon fill="black" stroke="black" points="915.29,-140.87 918.79,-150.87 922.29,-140.87 915.29,-140.87"/>
</g>
<!-- SchoolMigrationService -->
<g id="node12" class="node">
<title>SchoolMigrationService</title>
<ellipse fill="#fdb462" stroke="black" cx="599" cy="-104" rx="105.38" ry="18"/>
<text text-anchor="middle" x="599" y="-99.8" font-family="Times,serif" font-size="14.00">SchoolMigrationService</text>
</g>
<!-- SchoolMigrationService&#45;&gt;UserLoginMigrationModule -->
<g id="edge11" class="edge">
<title>SchoolMigrationService&#45;&gt;UserLoginMigrationModule</title>
<path fill="none" stroke="black" d="M678.75,-115.93C678.75,-132.11 678.75,-159 678.75,-159 678.75,-159 898.05,-159 898.05,-159"/>
<polygon fill="black" stroke="black" points="898.05,-162.5 908.05,-159 898.05,-155.5 898.05,-162.5"/>
</g>
<!-- UserLoginMigrationService -->
<g id="node13" class="node">
<title>UserLoginMigrationService</title>
<ellipse fill="#fdb462" stroke="black" cx="356" cy="-104" rx="119.82" ry="18"/>
<text text-anchor="middle" x="356" y="-99.8" font-family="Times,serif" font-size="14.00">UserLoginMigrationService</text>
</g>
<!-- UserLoginMigrationService&#45;&gt;UserLoginMigrationModule -->
<g id="edge12" class="edge">
<title>UserLoginMigrationService&#45;&gt;UserLoginMigrationModule</title>
<path fill="none" stroke="black" d="M356,-122.27C356,-140.56 356,-166 356,-166 356,-166 898.02,-166 898.02,-166"/>
<polygon fill="black" stroke="black" points="898.02,-169.5 908.02,-166 898.02,-162.5 898.02,-169.5"/>
</g>
<!-- UserMigrationService -->
<g id="node14" class="node">
<title>UserMigrationService</title>
<ellipse fill="#fdb462" stroke="black" cx="121" cy="-104" rx="96.68" ry="18"/>
<text text-anchor="middle" x="121" y="-99.8" font-family="Times,serif" font-size="14.00">UserMigrationService</text>
</g>
<!-- UserMigrationService&#45;&gt;UserLoginMigrationModule -->
<g id="edge13" class="edge">
<title>UserMigrationService&#45;&gt;UserLoginMigrationModule</title>
<path fill="none" stroke="black" d="M121,-122.13C121,-142.57 121,-173 121,-173 121,-173 898.1,-173 898.1,-173"/>
<polygon fill="black" stroke="black" points="898.1,-176.5 908.1,-173 898.1,-169.5 898.1,-176.5"/>
</g>
</g>
</svg>
