<?xml version="1.0" encoding="UTF-8" standalone="no"?>
<!DOCTYPE svg PUBLIC "-//W3C//DTD SVG 1.1//EN"
 "http://www.w3.org/Graphics/SVG/1.1/DTD/svg11.dtd">
<!-- Generated by graphviz version 2.47.0 (20210316.0004)
 -->
<!-- Title: dependencies Pages: 1 -->
<svg width="1789pt" height="284pt"
 viewBox="0.00 0.00 1789.00 284.00" xmlns="http://www.w3.org/2000/svg" xmlns:xlink="http://www.w3.org/1999/xlink">
<g id="graph0" class="graph" transform="scale(1 1) rotate(0) translate(4 280)">
<title>dependencies</title>
<polygon fill="white" stroke="transparent" points="-4,4 -4,-280 1785,-280 1785,4 -4,4"/>
<text text-anchor="start" x="869.51" y="-42.4" font-family="Times-12" font-weight="bold" font-size="14.00">Legend</text>
<polygon fill="#ffffb3" stroke="transparent" points="656.5,-10 656.5,-30 676.5,-30 676.5,-10 656.5,-10"/>
<text text-anchor="start" x="680.13" y="-15.4" font-family="Times-12" font-size="14.00"> &#160;Declarations</text>
<polygon fill="#8dd3c7" stroke="transparent" points="769.5,-10 769.5,-30 789.5,-30 789.5,-10 769.5,-10"/>
<text text-anchor="start" x="793.23" y="-15.4" font-family="Times-12" font-size="14.00"> &#160;Module</text>
<polygon fill="#80b1d3" stroke="transparent" points="855.5,-10 855.5,-30 875.5,-30 875.5,-10 855.5,-10"/>
<text text-anchor="start" x="879.28" y="-15.4" font-family="Times-12" font-size="14.00"> &#160;Bootstrap</text>
<polygon fill="#fdb462" stroke="transparent" points="952.5,-10 952.5,-30 972.5,-30 972.5,-10 952.5,-10"/>
<text text-anchor="start" x="976.17" y="-15.4" font-family="Times-12" font-size="14.00"> &#160;Providers</text>
<polygon fill="#fb8072" stroke="transparent" points="1048.5,-10 1048.5,-30 1068.5,-30 1068.5,-10 1048.5,-10"/>
<text text-anchor="start" x="1072.23" y="-15.4" font-family="Times-12" font-size="14.00"> &#160;Exports</text>
<g id="clust1" class="cluster">
<title>cluster_UserLoginMigrationModule</title>
<polygon fill="none" stroke="black" stroke-dasharray="1,5" points="8,-70 8,-268 1773,-268 1773,-70 8,-70"/>
</g>
<g id="clust6" class="cluster">
<title>cluster_UserLoginMigrationModule_providers</title>
<polygon fill="none" stroke="black" points="603,-78 603,-130 1765,-130 1765,-78 603,-78"/>
</g>
<g id="clust3" class="cluster">
<title>cluster_UserLoginMigrationModule_imports</title>
<polygon fill="none" stroke="black" points="16,-78 16,-130 595,-130 595,-78 16,-78"/>
</g>
<g id="clust4" class="cluster">
<title>cluster_UserLoginMigrationModule_exports</title>
<polygon fill="none" stroke="black" points="270,-208 270,-260 972,-260 972,-208 270,-208"/>
</g>
<!-- AccountModule -->
<g id="node1" class="node">
<title>AccountModule</title>
<polygon fill="#8dd3c7" stroke="black" points="587.48,-122 584.48,-126 563.48,-126 560.48,-122 480.52,-122 480.52,-86 587.48,-86 587.48,-122"/>
<text text-anchor="middle" x="534" y="-99.8" font-family="Times,serif" font-size="14.00">AccountModule</text>
</g>
<!-- UserLoginMigrationModule -->
<g id="node6" class="node">
<title>UserLoginMigrationModule</title>
<polygon fill="#8dd3c7" stroke="black" points="708.91,-187 705.91,-191 684.91,-191 681.91,-187 533.09,-187 533.09,-151 708.91,-151 708.91,-187"/>
<text text-anchor="middle" x="621" y="-164.8" font-family="Times,serif" font-size="14.00">UserLoginMigrationModule</text>
</g>
<!-- AccountModule&#45;&gt;UserLoginMigrationModule -->
<g id="edge1" class="edge">
<title>AccountModule&#45;&gt;UserLoginMigrationModule</title>
<path fill="none" stroke="black" d="M560.39,-122.11C560.39,-122.11 560.39,-140.99 560.39,-140.99"/>
<polygon fill="black" stroke="black" points="556.89,-140.99 560.39,-150.99 563.89,-140.99 556.89,-140.99"/>
</g>
<!-- LoggerModule -->
<g id="node2" class="node">
<title>LoggerModule</title>
<polygon fill="#8dd3c7" stroke="black" points="462.98,-122 459.98,-126 438.98,-126 435.98,-122 363.02,-122 363.02,-86 462.98,-86 462.98,-122"/>
<text text-anchor="middle" x="413" y="-99.8" font-family="Times,serif" font-size="14.00">LoggerModule</text>
</g>
<!-- LoggerModule&#45;&gt;UserLoginMigrationModule -->
<g id="edge2" class="edge">
<title>LoggerModule&#45;&gt;UserLoginMigrationModule</title>
<path fill="none" stroke="black" d="M451.66,-122.24C451.66,-137.57 451.66,-157 451.66,-157 451.66,-157 522.86,-157 522.86,-157"/>
<polygon fill="black" stroke="black" points="522.86,-160.5 532.86,-157 522.86,-153.5 522.86,-160.5"/>
</g>
<!-- SchoolModule -->
<g id="node3" class="node">
<title>SchoolModule</title>
<polygon fill="#8dd3c7" stroke="black" points="345.44,-122 342.44,-126 321.44,-126 318.44,-122 246.56,-122 246.56,-86 345.44,-86 345.44,-122"/>
<text text-anchor="middle" x="296" y="-99.8" font-family="Times,serif" font-size="14.00">SchoolModule</text>
</g>
<!-- SchoolModule&#45;&gt;UserLoginMigrationModule -->
<g id="edge3" class="edge">
<title>SchoolModule&#45;&gt;UserLoginMigrationModule</title>
<path fill="none" stroke="black" d="M311.64,-122.02C311.64,-139.37 311.64,-163 311.64,-163 311.64,-163 523.18,-163 523.18,-163"/>
<polygon fill="black" stroke="black" points="523.18,-166.5 533.18,-163 523.18,-159.5 523.18,-166.5"/>
</g>
<!-- SystemModule -->
<g id="node4" class="node">
<title>SystemModule</title>
<polygon fill="#8dd3c7" stroke="black" points="228.27,-122 225.27,-126 204.27,-126 201.27,-122 127.73,-122 127.73,-86 228.27,-86 228.27,-122"/>
<text text-anchor="middle" x="178" y="-99.8" font-family="Times,serif" font-size="14.00">SystemModule</text>
</g>
<!-- SystemModule&#45;&gt;UserLoginMigrationModule -->
<g id="edge4" class="edge">
<title>SystemModule&#45;&gt;UserLoginMigrationModule</title>
<path fill="none" stroke="black" d="M178,-122.11C178,-141.34 178,-169 178,-169 178,-169 523.21,-169 523.21,-169"/>
<polygon fill="black" stroke="black" points="523.21,-172.5 533.21,-169 523.21,-165.5 523.21,-172.5"/>
</g>
<!-- UserModule -->
<g id="node5" class="node">
<title>UserModule</title>
<polygon fill="#8dd3c7" stroke="black" points="109.98,-122 106.98,-126 85.98,-126 82.98,-122 24.02,-122 24.02,-86 109.98,-86 109.98,-122"/>
<text text-anchor="middle" x="67" y="-99.8" font-family="Times,serif" font-size="14.00">UserModule</text>
</g>
<!-- UserModule&#45;&gt;UserLoginMigrationModule -->
<g id="edge5" class="edge">
<title>UserModule&#45;&gt;UserLoginMigrationModule</title>
<path fill="none" stroke="black" d="M67,-122.28C67,-143.32 67,-175 67,-175 67,-175 523.22,-175 523.22,-175"/>
<polygon fill="black" stroke="black" points="523.22,-178.5 533.22,-175 523.22,-171.5 523.22,-178.5"/>
</g>
<!-- MigrationCheckService  -->
<g id="node7" class="node">
<title>MigrationCheckService </title>
<polygon fill="#fb8072" stroke="black" points="963.74,-252 810.26,-252 810.26,-216 963.74,-216 963.74,-252"/>
<text text-anchor="middle" x="887" y="-229.8" font-family="Times,serif" font-size="14.00">MigrationCheckService </text>
</g>
<!-- UserLoginMigrationModule&#45;&gt;MigrationCheckService  -->
<g id="edge6" class="edge">
<title>UserLoginMigrationModule&#45;&gt;MigrationCheckService </title>
<path fill="none" stroke="black" stroke-dasharray="5,2" d="M708.85,-181C760.88,-181 816.74,-181 816.74,-181 816.74,-181 816.74,-205.76 816.74,-205.76"/>
<polygon fill="black" stroke="black" points="813.24,-205.76 816.74,-215.76 820.24,-205.76 813.24,-205.76"/>
</g>
<!-- SchoolMigrationService  -->
<g id="node8" class="node">
<title>SchoolMigrationService </title>
<polygon fill="#fb8072" stroke="black" points="792.36,-252 635.64,-252 635.64,-216 792.36,-216 792.36,-252"/>
<text text-anchor="middle" x="714" y="-229.8" font-family="Times,serif" font-size="14.00">SchoolMigrationService </text>
</g>
<!-- UserLoginMigrationModule&#45;&gt;SchoolMigrationService  -->
<g id="edge7" class="edge">
<title>UserLoginMigrationModule&#45;&gt;SchoolMigrationService </title>
<path fill="none" stroke="black" stroke-dasharray="5,2" d="M672.26,-187.11C672.26,-187.11 672.26,-205.99 672.26,-205.99"/>
<polygon fill="black" stroke="black" points="668.76,-205.99 672.26,-215.99 675.76,-205.99 668.76,-205.99"/>
</g>
<!-- UserLoginMigrationService  -->
<g id="node9" class="node">
<title>UserLoginMigrationService </title>
<polygon fill="#fb8072" stroke="black" points="617.84,-252 440.16,-252 440.16,-216 617.84,-216 617.84,-252"/>
<text text-anchor="middle" x="529" y="-229.8" font-family="Times,serif" font-size="14.00">UserLoginMigrationService </text>
</g>
<!-- UserLoginMigrationModule&#45;&gt;UserLoginMigrationService  -->
<g id="edge8" class="edge">
<title>UserLoginMigrationModule&#45;&gt;UserLoginMigrationService </title>
<path fill="none" stroke="black" stroke-dasharray="5,2" d="M575.48,-187.11C575.48,-187.11 575.48,-205.99 575.48,-205.99"/>
<polygon fill="black" stroke="black" points="571.98,-205.99 575.48,-215.99 578.98,-205.99 571.98,-205.99"/>
</g>
<!-- UserMigrationService  -->
<g id="node10" class="node">
<title>UserMigrationService </title>
<polygon fill="#fb8072" stroke="black" points="421.9,-252 278.1,-252 278.1,-216 421.9,-216 421.9,-252"/>
<text text-anchor="middle" x="350" y="-229.8" font-family="Times,serif" font-size="14.00">UserMigrationService </text>
</g>
<!-- UserLoginMigrationModule&#45;&gt;UserMigrationService  -->
<g id="edge9" class="edge">
<title>UserLoginMigrationModule&#45;&gt;UserMigrationService </title>
<path fill="none" stroke="black" stroke-dasharray="5,2" d="M532.97,-181C468.6,-181 392.48,-181 392.48,-181 392.48,-181 392.48,-205.76 392.48,-205.76"/>
<polygon fill="black" stroke="black" points="388.98,-205.76 392.48,-215.76 395.98,-205.76 388.98,-205.76"/>
</g>
<!-- MigrationCheckService -->
<g id="node11" class="node">
<title>MigrationCheckService</title>
<ellipse fill="#fdb462" stroke="black" cx="1654" cy="-104" rx="103.07" ry="18"/>
<text text-anchor="middle" x="1654" y="-99.8" font-family="Times,serif" font-size="14.00">MigrationCheckService</text>
</g>
<!-- MigrationCheckService&#45;&gt;UserLoginMigrationModule -->
<g id="edge10" class="edge">
<title>MigrationCheckService&#45;&gt;UserLoginMigrationModule</title>
<path fill="none" stroke="black" d="M1654,-122.28C1654,-143.32 1654,-175 1654,-175 1654,-175 719.07,-175 719.07,-175"/>
<polygon fill="black" stroke="black" points="719.07,-171.5 709.07,-175 719.07,-178.5 719.07,-171.5"/>
</g>
<!-- SchoolMigrationService -->
<g id="node12" class="node">
<title>SchoolMigrationService</title>
<ellipse fill="#fdb462" stroke="black" cx="1427" cy="-104" rx="105.38" ry="18"/>
<text text-anchor="middle" x="1427" y="-99.8" font-family="Times,serif" font-size="14.00">SchoolMigrationService</text>
</g>
<!-- SchoolMigrationService&#45;&gt;UserLoginMigrationModule -->
<g id="edge11" class="edge">
<title>SchoolMigrationService&#45;&gt;UserLoginMigrationModule</title>
<path fill="none" stroke="black" d="M1427,-122.11C1427,-141.34 1427,-169 1427,-169 1427,-169 718.79,-169 718.79,-169"/>
<polygon fill="black" stroke="black" points="718.79,-165.5 708.79,-169 718.79,-172.5 718.79,-165.5"/>
</g>
<!-- UserLoginMigrationRepo -->
<g id="node13" class="node">
<title>UserLoginMigrationRepo</title>
<ellipse fill="#fdb462" stroke="black" cx="1192" cy="-104" rx="111.18" ry="18"/>
<text text-anchor="middle" x="1192" y="-99.8" font-family="Times,serif" font-size="14.00">UserLoginMigrationRepo</text>
</g>
<!-- UserLoginMigrationRepo&#45;&gt;UserLoginMigrationModule -->
<g id="edge12" class="edge">
<title>UserLoginMigrationRepo&#45;&gt;UserLoginMigrationModule</title>
<path fill="none" stroke="black" d="M1192,-122.02C1192,-139.37 1192,-163 1192,-163 1192,-163 718.97,-163 718.97,-163"/>
<polygon fill="black" stroke="black" points="718.97,-159.5 708.97,-163 718.97,-166.5 718.97,-159.5"/>
</g>
<!-- UserLoginMigrationService -->
<g id="node14" class="node">
<title>UserLoginMigrationService</title>
<ellipse fill="#fdb462" stroke="black" cx="943" cy="-104" rx="119.82" ry="18"/>
<text text-anchor="middle" x="943" y="-99.8" font-family="Times,serif" font-size="14.00">UserLoginMigrationService</text>
</g>
<!-- UserLoginMigrationService&#45;&gt;UserLoginMigrationModule -->
<g id="edge13" class="edge">
<title>UserLoginMigrationService&#45;&gt;UserLoginMigrationModule</title>
<path fill="none" stroke="black" d="M893.35,-120.48C893.35,-136.04 893.35,-157 893.35,-157 893.35,-157 719.05,-157 719.05,-157"/>
<polygon fill="black" stroke="black" points="719.05,-153.5 709.05,-157 719.05,-160.5 719.05,-153.5"/>
</g>
<!-- UserMigrationService -->
<g id="node15" class="node">
<title>UserMigrationService</title>
<ellipse fill="#fdb462" stroke="black" cx="708" cy="-104" rx="96.68" ry="18"/>
<text text-anchor="middle" x="708" y="-99.8" font-family="Times,serif" font-size="14.00">UserMigrationService</text>
</g>
<!-- UserMigrationService&#45;&gt;UserLoginMigrationModule -->
<g id="edge14" class="edge">
<title>UserMigrationService&#45;&gt;UserLoginMigrationModule</title>
<path fill="none" stroke="black" d="M659.93,-119.73C659.93,-119.73 659.93,-140.65 659.93,-140.65"/>
<polygon fill="black" stroke="black" points="656.43,-140.65 659.93,-150.65 663.43,-140.65 656.43,-140.65"/>
</g>
</g>
</svg>
