<?xml version="1.0" encoding="UTF-8" standalone="no"?>
<!DOCTYPE svg PUBLIC "-//W3C//DTD SVG 1.1//EN"
 "http://www.w3.org/Graphics/SVG/1.1/DTD/svg11.dtd">
<!-- Generated by graphviz version 2.47.0 (20210316.0004)
 -->
<!-- Title: dependencies Pages: 1 -->
<svg width="2099pt" height="284pt"
 viewBox="0.00 0.00 2099.00 284.00" xmlns="http://www.w3.org/2000/svg" xmlns:xlink="http://www.w3.org/1999/xlink">
<g id="graph0" class="graph" transform="scale(1 1) rotate(0) translate(4 280)">
<title>dependencies</title>
<polygon fill="white" stroke="transparent" points="-4,4 -4,-280 2095,-280 2095,4 -4,4"/>
<text text-anchor="start" x="1024.51" y="-42.4" font-family="Times-12" font-weight="bold" font-size="14.00">Legend</text>
<polygon fill="#ffffb3" stroke="transparent" points="811.5,-10 811.5,-30 831.5,-30 831.5,-10 811.5,-10"/>
<text text-anchor="start" x="835.13" y="-15.4" font-family="Times-12" font-size="14.00"> &#160;Declarations</text>
<polygon fill="#8dd3c7" stroke="transparent" points="924.5,-10 924.5,-30 944.5,-30 944.5,-10 924.5,-10"/>
<text text-anchor="start" x="948.23" y="-15.4" font-family="Times-12" font-size="14.00"> &#160;Module</text>
<polygon fill="#80b1d3" stroke="transparent" points="1010.5,-10 1010.5,-30 1030.5,-30 1030.5,-10 1010.5,-10"/>
<text text-anchor="start" x="1034.28" y="-15.4" font-family="Times-12" font-size="14.00"> &#160;Bootstrap</text>
<polygon fill="#fdb462" stroke="transparent" points="1107.5,-10 1107.5,-30 1127.5,-30 1127.5,-10 1107.5,-10"/>
<text text-anchor="start" x="1131.17" y="-15.4" font-family="Times-12" font-size="14.00"> &#160;Providers</text>
<polygon fill="#fb8072" stroke="transparent" points="1203.5,-10 1203.5,-30 1223.5,-30 1223.5,-10 1203.5,-10"/>
<text text-anchor="start" x="1227.23" y="-15.4" font-family="Times-12" font-size="14.00"> &#160;Exports</text>
<g id="clust1" class="cluster">
<title>cluster_UserLoginMigrationModule</title>
<polygon fill="none" stroke="black" stroke-dasharray="1,5" points="8,-70 8,-268 2083,-268 2083,-70 8,-70"/>
</g>
<g id="clust6" class="cluster">
<title>cluster_UserLoginMigrationModule_providers</title>
<polygon fill="none" stroke="black" points="603,-78 603,-130 2075,-130 2075,-78 603,-78"/>
</g>
<g id="clust4" class="cluster">
<title>cluster_UserLoginMigrationModule_exports</title>
<polygon fill="none" stroke="black" points="235,-208 235,-260 1170,-260 1170,-208 235,-208"/>
</g>
<g id="clust3" class="cluster">
<title>cluster_UserLoginMigrationModule_imports</title>
<polygon fill="none" stroke="black" points="16,-78 16,-130 595,-130 595,-78 16,-78"/>
</g>
<!-- AccountModule -->
<g id="node1" class="node">
<title>AccountModule</title>
<polygon fill="#8dd3c7" stroke="black" points="587.48,-122 584.48,-126 563.48,-126 560.48,-122 480.52,-122 480.52,-86 587.48,-86 587.48,-122"/>
<text text-anchor="middle" x="534" y="-99.8" font-family="Times,serif" font-size="14.00">AccountModule</text>
</g>
<!-- UserLoginMigrationModule -->
<g id="node6" class="node">
<title>UserLoginMigrationModule</title>
<polygon fill="#8dd3c7" stroke="black" points="795.91,-187 792.91,-191 771.91,-191 768.91,-187 620.09,-187 620.09,-151 795.91,-151 795.91,-187"/>
<text text-anchor="middle" x="708" y="-164.8" font-family="Times,serif" font-size="14.00">UserLoginMigrationModule</text>
</g>
<!-- AccountModule&#45;&gt;UserLoginMigrationModule -->
<g id="edge1" class="edge">
<title>AccountModule&#45;&gt;UserLoginMigrationModule</title>
<path fill="none" stroke="black" d="M548.62,-122.19C548.62,-137.18 548.62,-156 548.62,-156 548.62,-156 609.92,-156 609.92,-156"/>
<polygon fill="black" stroke="black" points="609.92,-159.5 619.92,-156 609.92,-152.5 609.92,-159.5"/>
</g>
<!-- LoggerModule -->
<g id="node2" class="node">
<title>LoggerModule</title>
<polygon fill="#8dd3c7" stroke="black" points="462.98,-122 459.98,-126 438.98,-126 435.98,-122 363.02,-122 363.02,-86 462.98,-86 462.98,-122"/>
<text text-anchor="middle" x="413" y="-99.8" font-family="Times,serif" font-size="14.00">LoggerModule</text>
</g>
<!-- LoggerModule&#45;&gt;UserLoginMigrationModule -->
<g id="edge2" class="edge">
<title>LoggerModule&#45;&gt;UserLoginMigrationModule</title>
<path fill="none" stroke="black" d="M434.16,-122.03C434.16,-138.4 434.16,-160 434.16,-160 434.16,-160 610.23,-160 610.23,-160"/>
<polygon fill="black" stroke="black" points="610.23,-163.5 620.23,-160 610.23,-156.5 610.23,-163.5"/>
</g>
<!-- SchoolModule -->
<g id="node3" class="node">
<title>SchoolModule</title>
<polygon fill="#8dd3c7" stroke="black" points="345.44,-122 342.44,-126 321.44,-126 318.44,-122 246.56,-122 246.56,-86 345.44,-86 345.44,-122"/>
<text text-anchor="middle" x="296" y="-99.8" font-family="Times,serif" font-size="14.00">SchoolModule</text>
</g>
<!-- SchoolModule&#45;&gt;UserLoginMigrationModule -->
<g id="edge3" class="edge">
<title>SchoolModule&#45;&gt;UserLoginMigrationModule</title>
<path fill="none" stroke="black" d="M296,-122.3C296,-140.27 296,-165 296,-165 296,-165 610.12,-165 610.12,-165"/>
<polygon fill="black" stroke="black" points="610.12,-168.5 620.12,-165 610.12,-161.5 610.12,-168.5"/>
</g>
<!-- SystemModule -->
<g id="node4" class="node">
<title>SystemModule</title>
<polygon fill="#8dd3c7" stroke="black" points="228.27,-122 225.27,-126 204.27,-126 201.27,-122 127.73,-122 127.73,-86 228.27,-86 228.27,-122"/>
<text text-anchor="middle" x="178" y="-99.8" font-family="Times,serif" font-size="14.00">SystemModule</text>
</g>
<!-- SystemModule&#45;&gt;UserLoginMigrationModule -->
<g id="edge4" class="edge">
<title>SystemModule&#45;&gt;UserLoginMigrationModule</title>
<path fill="none" stroke="black" d="M178,-122.11C178,-141.34 178,-169 178,-169 178,-169 610.18,-169 610.18,-169"/>
<polygon fill="black" stroke="black" points="610.18,-172.5 620.18,-169 610.18,-165.5 610.18,-172.5"/>
</g>
<!-- UserModule -->
<g id="node5" class="node">
<title>UserModule</title>
<polygon fill="#8dd3c7" stroke="black" points="109.98,-122 106.98,-126 85.98,-126 82.98,-122 24.02,-122 24.02,-86 109.98,-86 109.98,-122"/>
<text text-anchor="middle" x="67" y="-99.8" font-family="Times,serif" font-size="14.00">UserModule</text>
</g>
<!-- UserModule&#45;&gt;UserLoginMigrationModule -->
<g id="edge5" class="edge">
<title>UserModule&#45;&gt;UserLoginMigrationModule</title>
<path fill="none" stroke="black" d="M67,-122.03C67,-142.77 67,-174 67,-174 67,-174 610.22,-174 610.22,-174"/>
<polygon fill="black" stroke="black" points="610.22,-177.5 620.22,-174 610.22,-170.5 610.22,-177.5"/>
</g>
<!-- MigrationCheckService  -->
<g id="node7" class="node">
<title>MigrationCheckService </title>
<polygon fill="#fb8072" stroke="black" points="1161.74,-252 1008.26,-252 1008.26,-216 1161.74,-216 1161.74,-252"/>
<text text-anchor="middle" x="1085" y="-229.8" font-family="Times,serif" font-size="14.00">MigrationCheckService </text>
</g>
<!-- UserLoginMigrationModule&#45;&gt;MigrationCheckService  -->
<g id="edge6" class="edge">
<title>UserLoginMigrationModule&#45;&gt;MigrationCheckService </title>
<path fill="none" stroke="black" stroke-dasharray="5,2" d="M795.8,-178C892.86,-178 1035.65,-178 1035.65,-178 1035.65,-178 1035.65,-205.97 1035.65,-205.97"/>
<polygon fill="black" stroke="black" points="1032.15,-205.97 1035.65,-215.97 1039.15,-205.97 1032.15,-205.97"/>
</g>
<!-- SchoolMigrationService  -->
<g id="node8" class="node">
<title>SchoolMigrationService </title>
<polygon fill="#fb8072" stroke="black" points="990.36,-252 833.64,-252 833.64,-216 990.36,-216 990.36,-252"/>
<text text-anchor="middle" x="912" y="-229.8" font-family="Times,serif" font-size="14.00">SchoolMigrationService </text>
</g>
<!-- UserLoginMigrationModule&#45;&gt;SchoolMigrationService  -->
<g id="edge7" class="edge">
<title>UserLoginMigrationModule&#45;&gt;SchoolMigrationService </title>
<path fill="none" stroke="black" stroke-dasharray="5,2" d="M795.99,-183C851.21,-183 912,-183 912,-183 912,-183 912,-205.88 912,-205.88"/>
<polygon fill="black" stroke="black" points="908.5,-205.88 912,-215.88 915.5,-205.88 908.5,-205.88"/>
</g>
<!-- UserLoginMigrationRevertService  -->
<g id="node9" class="node">
<title>UserLoginMigrationRevertService </title>
<polygon fill="#fb8072" stroke="black" points="815.16,-252 600.84,-252 600.84,-216 815.16,-216 815.16,-252"/>
<text text-anchor="middle" x="708" y="-229.8" font-family="Times,serif" font-size="14.00">UserLoginMigrationRevertService </text>
</g>
<!-- UserLoginMigrationModule&#45;&gt;UserLoginMigrationRevertService  -->
<g id="edge8" class="edge">
<title>UserLoginMigrationModule&#45;&gt;UserLoginMigrationRevertService </title>
<path fill="none" stroke="black" stroke-dasharray="5,2" d="M708,-187.11C708,-187.11 708,-205.99 708,-205.99"/>
<polygon fill="black" stroke="black" points="704.5,-205.99 708,-215.99 711.5,-205.99 704.5,-205.99"/>
</g>
<!-- UserLoginMigrationService  -->
<g id="node10" class="node">
<title>UserLoginMigrationService </title>
<polygon fill="#fb8072" stroke="black" points="582.84,-252 405.16,-252 405.16,-216 582.84,-216 582.84,-252"/>
<text text-anchor="middle" x="494" y="-229.8" font-family="Times,serif" font-size="14.00">UserLoginMigrationService </text>
</g>
<!-- UserLoginMigrationModule&#45;&gt;UserLoginMigrationService  -->
<g id="edge9" class="edge">
<title>UserLoginMigrationModule&#45;&gt;UserLoginMigrationService </title>
<path fill="none" stroke="black" stroke-dasharray="5,2" d="M620.06,-183C568.96,-183 514.56,-183 514.56,-183 514.56,-183 514.56,-205.88 514.56,-205.88"/>
<polygon fill="black" stroke="black" points="511.06,-205.88 514.56,-215.88 518.06,-205.88 511.06,-205.88"/>
</g>
<!-- UserMigrationService  -->
<g id="node11" class="node">
<title>UserMigrationService </title>
<polygon fill="#fb8072" stroke="black" points="386.9,-252 243.1,-252 243.1,-216 386.9,-216 386.9,-252"/>
<text text-anchor="middle" x="315" y="-229.8" font-family="Times,serif" font-size="14.00">UserMigrationService </text>
</g>
<!-- UserLoginMigrationModule&#45;&gt;UserMigrationService  -->
<g id="edge10" class="edge">
<title>UserLoginMigrationModule&#45;&gt;UserMigrationService </title>
<path fill="none" stroke="black" stroke-dasharray="5,2" d="M620.07,-178C521.4,-178 374.98,-178 374.98,-178 374.98,-178 374.98,-205.97 374.98,-205.97"/>
<polygon fill="black" stroke="black" points="371.48,-205.97 374.98,-215.97 378.48,-205.97 371.48,-205.97"/>
</g>
<!-- MigrationCheckService -->
<g id="node12" class="node">
<title>MigrationCheckService</title>
<ellipse fill="#fdb462" stroke="black" cx="1964" cy="-104" rx="103.07" ry="18"/>
<text text-anchor="middle" x="1964" y="-99.8" font-family="Times,serif" font-size="14.00">MigrationCheckService</text>
</g>
<!-- MigrationCheckService&#45;&gt;UserLoginMigrationModule -->
<g id="edge11" class="edge">
<title>MigrationCheckService&#45;&gt;UserLoginMigrationModule</title>
<path fill="none" stroke="black" d="M1964,-122.03C1964,-142.77 1964,-174 1964,-174 1964,-174 805.82,-174 805.82,-174"/>
<polygon fill="black" stroke="black" points="805.82,-170.5 795.82,-174 805.82,-177.5 805.82,-170.5"/>
</g>
<!-- SchoolMigrationService -->
<g id="node13" class="node">
<title>SchoolMigrationService</title>
<ellipse fill="#fdb462" stroke="black" cx="1737" cy="-104" rx="105.38" ry="18"/>
<text text-anchor="middle" x="1737" y="-99.8" font-family="Times,serif" font-size="14.00">SchoolMigrationService</text>
</g>
<!-- SchoolMigrationService&#45;&gt;UserLoginMigrationModule -->
<g id="edge12" class="edge">
<title>SchoolMigrationService&#45;&gt;UserLoginMigrationModule</title>
<path fill="none" stroke="black" d="M1737,-122.11C1737,-141.34 1737,-169 1737,-169 1737,-169 805.73,-169 805.73,-169"/>
<polygon fill="black" stroke="black" points="805.73,-165.5 795.73,-169 805.73,-172.5 805.73,-165.5"/>
</g>
<!-- UserLoginMigrationRepo -->
<g id="node14" class="node">
<title>UserLoginMigrationRepo</title>
<ellipse fill="#fdb462" stroke="black" cx="1502" cy="-104" rx="111.18" ry="18"/>
<text text-anchor="middle" x="1502" y="-99.8" font-family="Times,serif" font-size="14.00">UserLoginMigrationRepo</text>
</g>
<!-- UserLoginMigrationRepo&#45;&gt;UserLoginMigrationModule -->
<g id="edge13" class="edge">
<title>UserLoginMigrationRepo&#45;&gt;UserLoginMigrationModule</title>
<path fill="none" stroke="black" d="M1502,-122.3C1502,-140.27 1502,-165 1502,-165 1502,-165 806.01,-165 806.01,-165"/>
<polygon fill="black" stroke="black" points="806.01,-161.5 796.01,-165 806.01,-168.5 806.01,-161.5"/>
</g>
<!-- UserLoginMigrationRevertService -->
<g id="node15" class="node">
<title>UserLoginMigrationRevertService</title>
<ellipse fill="#fdb462" stroke="black" cx="1227" cy="-104" rx="145.8" ry="18"/>
<text text-anchor="middle" x="1227" y="-99.8" font-family="Times,serif" font-size="14.00">UserLoginMigrationRevertService</text>
</g>
<!-- UserLoginMigrationRevertService&#45;&gt;UserLoginMigrationModule -->
<g id="edge14" class="edge">
<title>UserLoginMigrationRevertService&#45;&gt;UserLoginMigrationModule</title>
<path fill="none" stroke="black" d="M1121.48,-116.43C1121.48,-132.93 1121.48,-160 1121.48,-160 1121.48,-160 805.94,-160 805.94,-160"/>
<polygon fill="black" stroke="black" points="805.94,-156.5 795.94,-160 805.94,-163.5 805.94,-156.5"/>
</g>
<!-- UserLoginMigrationService -->
<g id="node16" class="node">
<title>UserLoginMigrationService</title>
<ellipse fill="#fdb462" stroke="black" cx="943" cy="-104" rx="119.82" ry="18"/>
<text text-anchor="middle" x="943" y="-99.8" font-family="Times,serif" font-size="14.00">UserLoginMigrationService</text>
</g>
<!-- UserLoginMigrationService&#45;&gt;UserLoginMigrationModule -->
<g id="edge15" class="edge">
<title>UserLoginMigrationService&#45;&gt;UserLoginMigrationModule</title>
<path fill="none" stroke="black" d="M828.46,-109.56C828.46,-122.98 828.46,-156 828.46,-156 828.46,-156 805.86,-156 805.86,-156"/>
<polygon fill="black" stroke="black" points="805.86,-152.5 795.86,-156 805.86,-159.5 805.86,-152.5"/>
</g>
<!-- UserMigrationService -->
<g id="node17" class="node">
<title>UserMigrationService</title>
<ellipse fill="#fdb462" stroke="black" cx="708" cy="-104" rx="96.68" ry="18"/>
<text text-anchor="middle" x="708" y="-99.8" font-family="Times,serif" font-size="14.00">UserMigrationService</text>
</g>
<!-- UserMigrationService&#45;&gt;UserLoginMigrationModule -->
<g id="edge16" class="edge">
<title>UserMigrationService&#45;&gt;UserLoginMigrationModule</title>
<path fill="none" stroke="black" d="M708,-122.11C708,-122.11 708,-140.99 708,-140.99"/>
<polygon fill="black" stroke="black" points="704.5,-140.99 708,-150.99 711.5,-140.99 704.5,-140.99"/>
</g>
</g>
</svg>
