<?xml version="1.0" encoding="UTF-8" standalone="no"?>
<!DOCTYPE svg PUBLIC "-//W3C//DTD SVG 1.1//EN"
 "http://www.w3.org/Graphics/SVG/1.1/DTD/svg11.dtd">
<!-- Generated by graphviz version 2.47.0 (20210316.0004)
 -->
<!-- Title: dependencies Pages: 1 -->
<svg width="764pt" height="211pt"
 viewBox="0.00 0.00 764.00 211.00" xmlns="http://www.w3.org/2000/svg" xmlns:xlink="http://www.w3.org/1999/xlink">
<g id="graph0" class="graph" transform="scale(1 1) rotate(0) translate(4 207)">
<title>dependencies</title>
<polygon fill="white" stroke="transparent" points="-4,4 -4,-207 760,-207 760,4 -4,4"/>
<text text-anchor="start" x="357.01" y="-42.4" font-family="Times-12" font-weight="bold" font-size="14.00">Legend</text>
<polygon fill="#ffffb3" stroke="transparent" points="144,-10 144,-30 164,-30 164,-10 144,-10"/>
<text text-anchor="start" x="167.63" y="-15.4" font-family="Times-12" font-size="14.00"> &#160;Declarations</text>
<polygon fill="#8dd3c7" stroke="transparent" points="257,-10 257,-30 277,-30 277,-10 257,-10"/>
<text text-anchor="start" x="280.73" y="-15.4" font-family="Times-12" font-size="14.00"> &#160;Module</text>
<polygon fill="#80b1d3" stroke="transparent" points="343,-10 343,-30 363,-30 363,-10 343,-10"/>
<text text-anchor="start" x="366.78" y="-15.4" font-family="Times-12" font-size="14.00"> &#160;Bootstrap</text>
<polygon fill="#fdb462" stroke="transparent" points="440,-10 440,-30 460,-30 460,-10 440,-10"/>
<text text-anchor="start" x="463.67" y="-15.4" font-family="Times-12" font-size="14.00"> &#160;Providers</text>
<polygon fill="#fb8072" stroke="transparent" points="536,-10 536,-30 556,-30 556,-10 536,-10"/>
<text text-anchor="start" x="559.73" y="-15.4" font-family="Times-12" font-size="14.00"> &#160;Exports</text>
<g id="clust1" class="cluster">
<title>cluster_TldrawWsModule</title>
<polygon fill="none" stroke="black" stroke-dasharray="1,5" points="8,-70 8,-195 748,-195 748,-70 8,-70"/>
</g>
<g id="clust3" class="cluster">
<title>cluster_TldrawWsModule_imports</title>
<polygon fill="none" stroke="black" points="638,-78 638,-130 740,-130 740,-78 638,-78"/>
</g>
<g id="clust6" class="cluster">
<title>cluster_TldrawWsModule_providers</title>
<polygon fill="none" stroke="black" points="16,-78 16,-130 630,-130 630,-78 16,-78"/>
</g>
<!-- CoreModule -->
<g id="node1" class="node">
<title>CoreModule</title>
<polygon fill="#8dd3c7" stroke="black" points="732.26,-122 729.26,-126 708.26,-126 705.26,-122 645.74,-122 645.74,-86 732.26,-86 732.26,-122"/>
<text text-anchor="middle" x="689" y="-99.8" font-family="Times,serif" font-size="14.00">CoreModule</text>
</g>
<!-- TldrawWsModule -->
<g id="node2" class="node">
<title>TldrawWsModule</title>
<polygon fill="#8dd3c7" stroke="black" points="516.13,-187 513.13,-191 492.13,-191 489.13,-187 397.87,-187 397.87,-151 516.13,-151 516.13,-187"/>
<text text-anchor="middle" x="457" y="-164.8" font-family="Times,serif" font-size="14.00">TldrawWsModule</text>
</g>
<!-- CoreModule&#45;&gt;TldrawWsModule -->
<g id="edge1" class="edge">
<title>CoreModule&#45;&gt;TldrawWsModule</title>
<path fill="none" stroke="black" d="M689,-122.28C689,-143.32 689,-175 689,-175 689,-175 526.14,-175 526.14,-175"/>
<polygon fill="black" stroke="black" points="526.14,-171.5 516.14,-175 526.14,-178.5 526.14,-171.5"/>
</g>
<!-- Logger -->
<g id="node3" class="node">
<title>Logger</title>
<ellipse fill="#fdb462" stroke="black" cx="583" cy="-104" rx="38.85" ry="18"/>
<text text-anchor="middle" x="583" y="-99.8" font-family="Times,serif" font-size="14.00">Logger</text>
</g>
<!-- Logger&#45;&gt;TldrawWsModule -->
<g id="edge2" class="edge">
<title>Logger&#45;&gt;TldrawWsModule</title>
<path fill="none" stroke="black" d="M583,-122.02C583,-139.37 583,-163 583,-163 583,-163 526.31,-163 526.31,-163"/>
<polygon fill="black" stroke="black" points="526.31,-159.5 516.31,-163 526.31,-166.5 526.31,-159.5"/>
</g>
<!-- MetricsService -->
<g id="node4" class="node">
<title>MetricsService</title>
<ellipse fill="#fdb462" stroke="black" cx="457" cy="-104" rx="69.47" ry="18"/>
<text text-anchor="middle" x="457" y="-99.8" font-family="Times,serif" font-size="14.00">MetricsService</text>
</g>
<!-- MetricsService&#45;&gt;TldrawWsModule -->
<g id="edge3" class="edge">
<title>MetricsService&#45;&gt;TldrawWsModule</title>
<path fill="none" stroke="black" d="M457,-122.11C457,-122.11 457,-140.99 457,-140.99"/>
<polygon fill="black" stroke="black" points="453.5,-140.99 457,-150.99 460.5,-140.99 453.5,-140.99"/>
</g>
<!-- TldrawBoardRepo -->
<g id="node5" class="node">
<title>TldrawBoardRepo</title>
<ellipse fill="#fdb462" stroke="black" cx="287" cy="-104" rx="82.81" ry="18"/>
<text text-anchor="middle" x="287" y="-99.8" font-family="Times,serif" font-size="14.00">TldrawBoardRepo</text>
</g>
<!-- TldrawBoardRepo&#45;&gt;TldrawWsModule -->
<g id="edge4" class="edge">
<title>TldrawBoardRepo&#45;&gt;TldrawWsModule</title>
<path fill="none" stroke="black" d="M287,-122.02C287,-139.37 287,-163 287,-163 287,-163 387.54,-163 387.54,-163"/>
<polygon fill="black" stroke="black" points="387.54,-166.5 397.54,-163 387.54,-159.5 387.54,-166.5"/>
</g>
<!-- TldrawWsService -->
<g id="node6" class="node">
<title>TldrawWsService</title>
<ellipse fill="#fdb462" stroke="black" cx="105" cy="-104" rx="80.99" ry="18"/>
<text text-anchor="middle" x="105" y="-99.8" font-family="Times,serif" font-size="14.00">TldrawWsService</text>
</g>
<!-- TldrawWsService&#45;&gt;TldrawWsModule -->
<g id="edge5" class="edge">
<title>TldrawWsService&#45;&gt;TldrawWsModule</title>
<path fill="none" stroke="black" d="M105,-122.28C105,-143.32 105,-175 105,-175 105,-175 387.69,-175 387.69,-175"/>
<polygon fill="black" stroke="black" points="387.69,-178.5 397.69,-175 387.69,-171.5 387.69,-178.5"/>
</g>
</g>
</svg>
