<?xml version="1.0" encoding="UTF-8" standalone="no"?>
<!DOCTYPE svg PUBLIC "-//W3C//DTD SVG 1.1//EN"
 "http://www.w3.org/Graphics/SVG/1.1/DTD/svg11.dtd">
<!-- Generated by graphviz version 2.47.0 (20210316.0004)
 -->
<!-- Title: dependencies Pages: 1 -->
<svg width="608pt" height="211pt"
 viewBox="0.00 0.00 608.00 211.00" xmlns="http://www.w3.org/2000/svg" xmlns:xlink="http://www.w3.org/1999/xlink">
<g id="graph0" class="graph" transform="scale(1 1) rotate(0) translate(4 207)">
<title>dependencies</title>
<polygon fill="white" stroke="transparent" points="-4,4 -4,-207 604,-207 604,4 -4,4"/>
<text text-anchor="start" x="279.01" y="-42.4" font-family="Times-12" font-weight="bold" font-size="14.00">Legend</text>
<polygon fill="#ffffb3" stroke="transparent" points="66,-10 66,-30 86,-30 86,-10 66,-10"/>
<text text-anchor="start" x="89.63" y="-15.4" font-family="Times-12" font-size="14.00"> &#160;Declarations</text>
<polygon fill="#8dd3c7" stroke="transparent" points="179,-10 179,-30 199,-30 199,-10 179,-10"/>
<text text-anchor="start" x="202.73" y="-15.4" font-family="Times-12" font-size="14.00"> &#160;Module</text>
<polygon fill="#80b1d3" stroke="transparent" points="265,-10 265,-30 285,-30 285,-10 265,-10"/>
<text text-anchor="start" x="288.78" y="-15.4" font-family="Times-12" font-size="14.00"> &#160;Bootstrap</text>
<polygon fill="#fdb462" stroke="transparent" points="362,-10 362,-30 382,-30 382,-10 362,-10"/>
<text text-anchor="start" x="385.67" y="-15.4" font-family="Times-12" font-size="14.00"> &#160;Providers</text>
<polygon fill="#fb8072" stroke="transparent" points="458,-10 458,-30 478,-30 478,-10 458,-10"/>
<text text-anchor="start" x="481.73" y="-15.4" font-family="Times-12" font-size="14.00"> &#160;Exports</text>
<g id="clust1" class="cluster">
<title>cluster_TldrawWsModule</title>
<polygon fill="none" stroke="black" stroke-dasharray="1,5" points="8,-70 8,-195 592,-195 592,-70 8,-70"/>
</g>
<g id="clust6" class="cluster">
<title>cluster_TldrawWsModule_providers</title>
<polygon fill="none" stroke="black" points="126,-78 126,-130 584,-130 584,-78 126,-78"/>
</g>
<g id="clust3" class="cluster">
<title>cluster_TldrawWsModule_imports</title>
<polygon fill="none" stroke="black" points="16,-78 16,-130 118,-130 118,-78 16,-78"/>
</g>
<!-- CoreModule -->
<g id="node1" class="node">
<title>CoreModule</title>
<polygon fill="#8dd3c7" stroke="black" points="110.26,-122 107.26,-126 86.26,-126 83.26,-122 23.74,-122 23.74,-86 110.26,-86 110.26,-122"/>
<text text-anchor="middle" x="67" y="-99.8" font-family="Times,serif" font-size="14.00">CoreModule</text>
</g>
<!-- TldrawWsModule -->
<g id="node2" class="node">
<title>TldrawWsModule</title>
<polygon fill="#8dd3c7" stroke="black" points="365.13,-187 362.13,-191 341.13,-191 338.13,-187 246.87,-187 246.87,-151 365.13,-151 365.13,-187"/>
<text text-anchor="middle" x="306" y="-164.8" font-family="Times,serif" font-size="14.00">TldrawWsModule</text>
</g>
<!-- CoreModule&#45;&gt;TldrawWsModule -->
<g id="edge1" class="edge">
<title>CoreModule&#45;&gt;TldrawWsModule</title>
<path fill="none" stroke="black" d="M67,-122.11C67,-141.34 67,-169 67,-169 67,-169 236.61,-169 236.61,-169"/>
<polygon fill="black" stroke="black" points="236.61,-172.5 246.61,-169 236.61,-165.5 236.61,-172.5"/>
</g>
<!-- Logger -->
<g id="node3" class="node">
<title>Logger</title>
<ellipse fill="#fdb462" stroke="black" cx="537" cy="-104" rx="38.85" ry="18"/>
<text text-anchor="middle" x="537" y="-99.8" font-family="Times,serif" font-size="14.00">Logger</text>
</g>
<!-- Logger&#45;&gt;TldrawWsModule -->
<g id="edge2" class="edge">
<title>Logger&#45;&gt;TldrawWsModule</title>
<path fill="none" stroke="black" d="M537,-122.11C537,-141.34 537,-169 537,-169 537,-169 375.19,-169 375.19,-169"/>
<polygon fill="black" stroke="black" points="375.19,-165.5 365.19,-169 375.19,-172.5 375.19,-165.5"/>
</g>
<!-- TldrawBoardRepo -->
<g id="node4" class="node">
<title>TldrawBoardRepo</title>
<ellipse fill="#fdb462" stroke="black" cx="397" cy="-104" rx="82.81" ry="18"/>
<text text-anchor="middle" x="397" y="-99.8" font-family="Times,serif" font-size="14.00">TldrawBoardRepo</text>
</g>
<!-- TldrawBoardRepo&#45;&gt;TldrawWsModule -->
<g id="edge3" class="edge">
<title>TldrawBoardRepo&#45;&gt;TldrawWsModule</title>
<path fill="none" stroke="black" d="M339.71,-117.15C339.71,-117.15 339.71,-140.69 339.71,-140.69"/>
<polygon fill="black" stroke="black" points="336.21,-140.69 339.71,-150.69 343.21,-140.69 336.21,-140.69"/>
</g>
<!-- TldrawWsService -->
<g id="node5" class="node">
<title>TldrawWsService</title>
<ellipse fill="#fdb462" stroke="black" cx="215" cy="-104" rx="80.99" ry="18"/>
<text text-anchor="middle" x="215" y="-99.8" font-family="Times,serif" font-size="14.00">TldrawWsService</text>
</g>
<!-- TldrawWsService&#45;&gt;TldrawWsModule -->
<g id="edge4" class="edge">
<title>TldrawWsService&#45;&gt;TldrawWsModule</title>
<path fill="none" stroke="black" d="M271.22,-117.15C271.22,-117.15 271.22,-140.69 271.22,-140.69"/>
<polygon fill="black" stroke="black" points="267.72,-140.69 271.22,-150.69 274.72,-140.69 267.72,-140.69"/>
</g>
</g>
</svg>
