<?xml version="1.0" encoding="UTF-8" standalone="no"?>
<!DOCTYPE svg PUBLIC "-//W3C//DTD SVG 1.1//EN"
 "http://www.w3.org/Graphics/SVG/1.1/DTD/svg11.dtd">
<!-- Generated by graphviz version 2.47.0 (20210316.0004)
 -->
<!-- Title: dependencies Pages: 1 -->
<svg width="1250pt" height="211pt"
 viewBox="0.00 0.00 1250.00 211.00" xmlns="http://www.w3.org/2000/svg" xmlns:xlink="http://www.w3.org/1999/xlink">
<g id="graph0" class="graph" transform="scale(1 1) rotate(0) translate(4 207)">
<title>dependencies</title>
<polygon fill="white" stroke="transparent" points="-4,4 -4,-207 1246,-207 1246,4 -4,4"/>
<text text-anchor="start" x="600.01" y="-42.4" font-family="Times-12" font-weight="bold" font-size="14.00">Legend</text>
<polygon fill="#ffffb3" stroke="transparent" points="387,-10 387,-30 407,-30 407,-10 387,-10"/>
<text text-anchor="start" x="410.63" y="-15.4" font-family="Times-12" font-size="14.00"> &#160;Declarations</text>
<polygon fill="#8dd3c7" stroke="transparent" points="500,-10 500,-30 520,-30 520,-10 500,-10"/>
<text text-anchor="start" x="523.73" y="-15.4" font-family="Times-12" font-size="14.00"> &#160;Module</text>
<polygon fill="#80b1d3" stroke="transparent" points="586,-10 586,-30 606,-30 606,-10 586,-10"/>
<text text-anchor="start" x="609.78" y="-15.4" font-family="Times-12" font-size="14.00"> &#160;Bootstrap</text>
<polygon fill="#fdb462" stroke="transparent" points="683,-10 683,-30 703,-30 703,-10 683,-10"/>
<text text-anchor="start" x="706.67" y="-15.4" font-family="Times-12" font-size="14.00"> &#160;Providers</text>
<polygon fill="#fb8072" stroke="transparent" points="779,-10 779,-30 799,-30 799,-10 779,-10"/>
<text text-anchor="start" x="802.73" y="-15.4" font-family="Times-12" font-size="14.00"> &#160;Exports</text>
<g id="clust1" class="cluster">
<title>cluster_TldrawWsModule</title>
<polygon fill="none" stroke="black" stroke-dasharray="1,5" points="8,-70 8,-195 1234,-195 1234,-70 8,-70"/>
</g>
<g id="clust6" class="cluster">
<title>cluster_TldrawWsModule_providers</title>
<polygon fill="none" stroke="black" points="244,-78 244,-130 1226,-130 1226,-78 244,-78"/>
</g>
<g id="clust3" class="cluster">
<title>cluster_TldrawWsModule_imports</title>
<polygon fill="none" stroke="black" points="16,-78 16,-130 236,-130 236,-78 16,-78"/>
</g>
<!-- CoreModule -->
<g id="node1" class="node">
<title>CoreModule</title>
<polygon fill="#8dd3c7" stroke="black" points="228.26,-122 225.26,-126 204.26,-126 201.26,-122 141.74,-122 141.74,-86 228.26,-86 228.26,-122"/>
<text text-anchor="middle" x="185" y="-99.8" font-family="Times,serif" font-size="14.00">CoreModule</text>
</g>
<!-- TldrawWsModule -->
<g id="node3" class="node">
<title>TldrawWsModule</title>
<polygon fill="#8dd3c7" stroke="black" points="600.13,-187 597.13,-191 576.13,-191 573.13,-187 481.87,-187 481.87,-151 600.13,-151 600.13,-187"/>
<text text-anchor="middle" x="541" y="-164.8" font-family="Times,serif" font-size="14.00">TldrawWsModule</text>
</g>
<!-- CoreModule&#45;&gt;TldrawWsModule -->
<g id="edge1" class="edge">
<title>CoreModule&#45;&gt;TldrawWsModule</title>
<path fill="none" stroke="black" d="M185,-122.11C185,-141.34 185,-169 185,-169 185,-169 471.81,-169 471.81,-169"/>
<polygon fill="black" stroke="black" points="471.81,-172.5 481.81,-169 471.81,-165.5 471.81,-172.5"/>
</g>
<!-- LoggerModule -->
<g id="node2" class="node">
<title>LoggerModule</title>
<polygon fill="#8dd3c7" stroke="black" points="123.98,-122 120.98,-126 99.98,-126 96.98,-122 24.02,-122 24.02,-86 123.98,-86 123.98,-122"/>
<text text-anchor="middle" x="74" y="-99.8" font-family="Times,serif" font-size="14.00">LoggerModule</text>
</g>
<!-- LoggerModule&#45;&gt;TldrawWsModule -->
<g id="edge2" class="edge">
<title>LoggerModule&#45;&gt;TldrawWsModule</title>
<path fill="none" stroke="black" d="M74,-122.29C74,-144.21 74,-178 74,-178 74,-178 471.85,-178 471.85,-178"/>
<polygon fill="black" stroke="black" points="471.85,-181.5 481.85,-178 471.85,-174.5 471.85,-181.5"/>
</g>
<!-- MetricsService -->
<g id="node4" class="node">
<title>MetricsService</title>
<ellipse fill="#fdb462" stroke="black" cx="1149" cy="-104" rx="69.47" ry="18"/>
<text text-anchor="middle" x="1149" y="-99.8" font-family="Times,serif" font-size="14.00">MetricsService</text>
</g>
<!-- MetricsService&#45;&gt;TldrawWsModule -->
<g id="edge3" class="edge">
<title>MetricsService&#45;&gt;TldrawWsModule</title>
<path fill="none" stroke="black" d="M1149,-122.29C1149,-144.21 1149,-178 1149,-178 1149,-178 610.4,-178 610.4,-178"/>
<polygon fill="black" stroke="black" points="610.4,-174.5 600.4,-178 610.4,-181.5 610.4,-174.5"/>
</g>
<!-- TldrawBoardRepo -->
<g id="node5" class="node">
<title>TldrawBoardRepo</title>
<ellipse fill="#fdb462" stroke="black" cx="979" cy="-104" rx="82.81" ry="18"/>
<text text-anchor="middle" x="979" y="-99.8" font-family="Times,serif" font-size="14.00">TldrawBoardRepo</text>
</g>
<!-- TldrawBoardRepo&#45;&gt;TldrawWsModule -->
<g id="edge4" class="edge">
<title>TldrawBoardRepo&#45;&gt;TldrawWsModule</title>
<path fill="none" stroke="black" d="M979,-122.11C979,-141.34 979,-169 979,-169 979,-169 610.53,-169 610.53,-169"/>
<polygon fill="black" stroke="black" points="610.53,-165.5 600.53,-169 610.53,-172.5 610.53,-165.5"/>
</g>
<!-- TldrawRedisFactory -->
<g id="node6" class="node">
<title>TldrawRedisFactory</title>
<ellipse fill="#fdb462" stroke="black" cx="788" cy="-104" rx="90.33" ry="18"/>
<text text-anchor="middle" x="788" y="-99.8" font-family="Times,serif" font-size="14.00">TldrawRedisFactory</text>
</g>
<!-- TldrawRedisFactory&#45;&gt;TldrawWsModule -->
<g id="edge5" class="edge">
<title>TldrawRedisFactory&#45;&gt;TldrawWsModule</title>
<path fill="none" stroke="black" d="M788,-122.03C788,-138.4 788,-160 788,-160 788,-160 610.16,-160 610.16,-160"/>
<polygon fill="black" stroke="black" points="610.16,-156.5 600.16,-160 610.16,-163.5 610.16,-156.5"/>
</g>
<!-- TldrawRepo -->
<g id="node7" class="node">
<title>TldrawRepo</title>
<ellipse fill="#fdb462" stroke="black" cx="620" cy="-104" rx="59.11" ry="18"/>
<text text-anchor="middle" x="620" y="-99.8" font-family="Times,serif" font-size="14.00">TldrawRepo</text>
</g>
<!-- TldrawRepo&#45;&gt;TldrawWsModule -->
<g id="edge6" class="edge">
<title>TldrawRepo&#45;&gt;TldrawWsModule</title>
<path fill="none" stroke="black" d="M580.51,-117.47C580.51,-117.47 580.51,-140.86 580.51,-140.86"/>
<polygon fill="black" stroke="black" points="577.01,-140.86 580.51,-150.86 584.01,-140.86 577.01,-140.86"/>
</g>
<!-- TldrawWsService -->
<g id="node8" class="node">
<title>TldrawWsService</title>
<ellipse fill="#fdb462" stroke="black" cx="462" cy="-104" rx="80.99" ry="18"/>
<text text-anchor="middle" x="462" y="-99.8" font-family="Times,serif" font-size="14.00">TldrawWsService</text>
</g>
<!-- TldrawWsService&#45;&gt;TldrawWsModule -->
<g id="edge7" class="edge">
<title>TldrawWsService&#45;&gt;TldrawWsModule</title>
<path fill="none" stroke="black" d="M512.22,-118.1C512.22,-118.1 512.22,-140.72 512.22,-140.72"/>
<polygon fill="black" stroke="black" points="508.72,-140.72 512.22,-150.72 515.72,-140.72 508.72,-140.72"/>
</g>
<!-- YMongodb -->
<g id="node9" class="node">
<title>YMongodb</title>
<ellipse fill="#fdb462" stroke="black" cx="308" cy="-104" rx="55.63" ry="18"/>
<text text-anchor="middle" x="308" y="-99.8" font-family="Times,serif" font-size="14.00">YMongodb</text>
</g>
<!-- YMongodb&#45;&gt;TldrawWsModule -->
<g id="edge8" class="edge">
<title>YMongodb&#45;&gt;TldrawWsModule</title>
<path fill="none" stroke="black" d="M308,-122.03C308,-138.4 308,-160 308,-160 308,-160 471.6,-160 471.6,-160"/>
<polygon fill="black" stroke="black" points="471.6,-163.5 481.6,-160 471.6,-156.5 471.6,-163.5"/>
</g>
</g>
</svg>
