<?xml version="1.0" encoding="UTF-8" standalone="no"?>
<!DOCTYPE svg PUBLIC "-//W3C//DTD SVG 1.1//EN"
 "http://www.w3.org/Graphics/SVG/1.1/DTD/svg11.dtd">
<!-- Generated by graphviz version 2.47.0 (20210316.0004)
 -->
<!-- Title: dependencies Pages: 1 -->
<svg width="1447pt" height="211pt"
 viewBox="0.00 0.00 1447.00 211.00" xmlns="http://www.w3.org/2000/svg" xmlns:xlink="http://www.w3.org/1999/xlink">
<g id="graph0" class="graph" transform="scale(1 1) rotate(0) translate(4 207)">
<title>dependencies</title>
<polygon fill="white" stroke="transparent" points="-4,4 -4,-207 1443,-207 1443,4 -4,4"/>
<text text-anchor="start" x="698.51" y="-42.4" font-family="Times-12" font-weight="bold" font-size="14.00">Legend</text>
<polygon fill="#ffffb3" stroke="transparent" points="485.5,-10 485.5,-30 505.5,-30 505.5,-10 485.5,-10"/>
<text text-anchor="start" x="509.13" y="-15.4" font-family="Times-12" font-size="14.00"> &#160;Declarations</text>
<polygon fill="#8dd3c7" stroke="transparent" points="598.5,-10 598.5,-30 618.5,-30 618.5,-10 598.5,-10"/>
<text text-anchor="start" x="622.23" y="-15.4" font-family="Times-12" font-size="14.00"> &#160;Module</text>
<polygon fill="#80b1d3" stroke="transparent" points="684.5,-10 684.5,-30 704.5,-30 704.5,-10 684.5,-10"/>
<text text-anchor="start" x="708.28" y="-15.4" font-family="Times-12" font-size="14.00"> &#160;Bootstrap</text>
<polygon fill="#fdb462" stroke="transparent" points="781.5,-10 781.5,-30 801.5,-30 801.5,-10 781.5,-10"/>
<text text-anchor="start" x="805.17" y="-15.4" font-family="Times-12" font-size="14.00"> &#160;Providers</text>
<polygon fill="#fb8072" stroke="transparent" points="877.5,-10 877.5,-30 897.5,-30 897.5,-10 877.5,-10"/>
<text text-anchor="start" x="901.23" y="-15.4" font-family="Times-12" font-size="14.00"> &#160;Exports</text>
<g id="clust1" class="cluster">
<title>cluster_TldrawWsModule</title>
<polygon fill="none" stroke="black" stroke-dasharray="1,5" points="8,-70 8,-195 1431,-195 1431,-70 8,-70"/>
</g>
<g id="clust6" class="cluster">
<title>cluster_TldrawWsModule_providers</title>
<polygon fill="none" stroke="black" points="244,-78 244,-130 1423,-130 1423,-78 244,-78"/>
</g>
<g id="clust3" class="cluster">
<title>cluster_TldrawWsModule_imports</title>
<polygon fill="none" stroke="black" points="16,-78 16,-130 236,-130 236,-78 16,-78"/>
</g>
<!-- CoreModule -->
<g id="node1" class="node">
<title>CoreModule</title>
<polygon fill="#8dd3c7" stroke="black" points="228.26,-122 225.26,-126 204.26,-126 201.26,-122 141.74,-122 141.74,-86 228.26,-86 228.26,-122"/>
<text text-anchor="middle" x="185" y="-99.8" font-family="Times,serif" font-size="14.00">CoreModule</text>
</g>
<!-- TldrawWsModule -->
<g id="node3" class="node">
<title>TldrawWsModule</title>
<polygon fill="#8dd3c7" stroke="black" points="679.13,-187 676.13,-191 655.13,-191 652.13,-187 560.87,-187 560.87,-151 679.13,-151 679.13,-187"/>
<text text-anchor="middle" x="620" y="-164.8" font-family="Times,serif" font-size="14.00">TldrawWsModule</text>
</g>
<!-- CoreModule&#45;&gt;TldrawWsModule -->
<g id="edge1" class="edge">
<title>CoreModule&#45;&gt;TldrawWsModule</title>
<path fill="none" stroke="black" d="M185,-122.13C185,-142.57 185,-173 185,-173 185,-173 550.43,-173 550.43,-173"/>
<polygon fill="black" stroke="black" points="550.43,-176.5 560.43,-173 550.43,-169.5 550.43,-176.5"/>
</g>
<!-- LoggerModule -->
<g id="node2" class="node">
<title>LoggerModule</title>
<polygon fill="#8dd3c7" stroke="black" points="123.98,-122 120.98,-126 99.98,-126 96.98,-122 24.02,-122 24.02,-86 123.98,-86 123.98,-122"/>
<text text-anchor="middle" x="74" y="-99.8" font-family="Times,serif" font-size="14.00">LoggerModule</text>
</g>
<!-- LoggerModule&#45;&gt;TldrawWsModule -->
<g id="edge2" class="edge">
<title>LoggerModule&#45;&gt;TldrawWsModule</title>
<path fill="none" stroke="black" d="M74,-122.01C74,-144.49 74,-180 74,-180 74,-180 550.79,-180 550.79,-180"/>
<polygon fill="black" stroke="black" points="550.79,-183.5 560.79,-180 550.79,-176.5 550.79,-183.5"/>
</g>
<!-- MetricsService -->
<g id="node4" class="node">
<title>MetricsService</title>
<ellipse fill="#fdb462" stroke="black" cx="1346" cy="-104" rx="69.47" ry="18"/>
<text text-anchor="middle" x="1346" y="-99.8" font-family="Times,serif" font-size="14.00">MetricsService</text>
</g>
<!-- MetricsService&#45;&gt;TldrawWsModule -->
<g id="edge3" class="edge">
<title>MetricsService&#45;&gt;TldrawWsModule</title>
<path fill="none" stroke="black" d="M1346,-122.01C1346,-144.49 1346,-180 1346,-180 1346,-180 689.41,-180 689.41,-180"/>
<polygon fill="black" stroke="black" points="689.41,-176.5 679.41,-180 689.41,-183.5 689.41,-176.5"/>
</g>
<!-- TldrawBoardRepo -->
<g id="node5" class="node">
<title>TldrawBoardRepo</title>
<ellipse fill="#fdb462" stroke="black" cx="1176" cy="-104" rx="82.81" ry="18"/>
<text text-anchor="middle" x="1176" y="-99.8" font-family="Times,serif" font-size="14.00">TldrawBoardRepo</text>
</g>
<!-- TldrawBoardRepo&#45;&gt;TldrawWsModule -->
<g id="edge4" class="edge">
<title>TldrawBoardRepo&#45;&gt;TldrawWsModule</title>
<path fill="none" stroke="black" d="M1176,-122.13C1176,-142.57 1176,-173 1176,-173 1176,-173 689.24,-173 689.24,-173"/>
<polygon fill="black" stroke="black" points="689.24,-169.5 679.24,-173 689.24,-176.5 689.24,-169.5"/>
</g>
<!-- TldrawRedisFactory -->
<g id="node6" class="node">
<title>TldrawRedisFactory</title>
<ellipse fill="#fdb462" stroke="black" cx="985" cy="-104" rx="90.33" ry="18"/>
<text text-anchor="middle" x="985" y="-99.8" font-family="Times,serif" font-size="14.00">TldrawRedisFactory</text>
</g>
<!-- TldrawRedisFactory&#45;&gt;TldrawWsModule -->
<g id="edge5" class="edge">
<title>TldrawRedisFactory&#45;&gt;TldrawWsModule</title>
<path fill="none" stroke="black" d="M985,-122.27C985,-140.56 985,-166 985,-166 985,-166 689.46,-166 689.46,-166"/>
<polygon fill="black" stroke="black" points="689.46,-162.5 679.46,-166 689.46,-169.5 689.46,-162.5"/>
</g>
<!-- TldrawRedisService -->
<g id="node7" class="node">
<title>TldrawRedisService</title>
<ellipse fill="#fdb462" stroke="black" cx="787" cy="-104" rx="89.74" ry="18"/>
<text text-anchor="middle" x="787" y="-99.8" font-family="Times,serif" font-size="14.00">TldrawRedisService</text>
</g>
<!-- TldrawRedisService&#45;&gt;TldrawWsModule -->
<g id="edge6" class="edge">
<title>TldrawRedisService&#45;&gt;TldrawWsModule</title>
<path fill="none" stroke="black" d="M787,-122.01C787,-138.05 787,-159 787,-159 787,-159 689.35,-159 689.35,-159"/>
<polygon fill="black" stroke="black" points="689.35,-155.5 679.35,-159 689.35,-162.5 689.35,-155.5"/>
</g>
<!-- TldrawRepo -->
<g id="node8" class="node">
<title>TldrawRepo</title>
<ellipse fill="#fdb462" stroke="black" cx="620" cy="-104" rx="59.11" ry="18"/>
<text text-anchor="middle" x="620" y="-99.8" font-family="Times,serif" font-size="14.00">TldrawRepo</text>
</g>
<!-- TldrawRepo&#45;&gt;TldrawWsModule -->
<g id="edge7" class="edge">
<title>TldrawRepo&#45;&gt;TldrawWsModule</title>
<path fill="none" stroke="black" d="M620,-122.11C620,-122.11 620,-140.99 620,-140.99"/>
<polygon fill="black" stroke="black" points="616.5,-140.99 620,-150.99 623.5,-140.99 616.5,-140.99"/>
</g>
<!-- TldrawWsService -->
<g id="node9" class="node">
<title>TldrawWsService</title>
<ellipse fill="#fdb462" stroke="black" cx="462" cy="-104" rx="80.99" ry="18"/>
<text text-anchor="middle" x="462" y="-99.8" font-family="Times,serif" font-size="14.00">TldrawWsService</text>
</g>
<!-- TldrawWsService&#45;&gt;TldrawWsModule -->
<g id="edge8" class="edge">
<title>TldrawWsService&#45;&gt;TldrawWsModule</title>
<path fill="none" stroke="black" d="M462,-122.01C462,-138.05 462,-159 462,-159 462,-159 550.72,-159 550.72,-159"/>
<polygon fill="black" stroke="black" points="550.72,-162.5 560.72,-159 550.72,-155.5 550.72,-162.5"/>
</g>
<!-- YMongodb -->
<g id="node10" class="node">
<title>YMongodb</title>
<ellipse fill="#fdb462" stroke="black" cx="308" cy="-104" rx="55.63" ry="18"/>
<text text-anchor="middle" x="308" y="-99.8" font-family="Times,serif" font-size="14.00">YMongodb</text>
</g>
<!-- YMongodb&#45;&gt;TldrawWsModule -->
<g id="edge9" class="edge">
<title>YMongodb&#45;&gt;TldrawWsModule</title>
<path fill="none" stroke="black" d="M308,-122.27C308,-140.56 308,-166 308,-166 308,-166 550.58,-166 550.58,-166"/>
<polygon fill="black" stroke="black" points="550.58,-169.5 560.58,-166 550.58,-162.5 550.58,-169.5"/>
</g>
</g>
</svg>
