<?xml version="1.0" encoding="UTF-8" standalone="no"?>
<!DOCTYPE svg PUBLIC "-//W3C//DTD SVG 1.1//EN"
 "http://www.w3.org/Graphics/SVG/1.1/DTD/svg11.dtd">
<!-- Generated by graphviz version 2.47.0 (20210316.0004)
 -->
<!-- Title: dependencies Pages: 1 -->
<svg width="1447pt" height="211pt"
 viewBox="0.00 0.00 1447.00 211.00" xmlns="http://www.w3.org/2000/svg" xmlns:xlink="http://www.w3.org/1999/xlink">
<g id="graph0" class="graph" transform="scale(1 1) rotate(0) translate(4 207)">
<title>dependencies</title>
<polygon fill="white" stroke="transparent" points="-4,4 -4,-207 1443,-207 1443,4 -4,4"/>
<text text-anchor="start" x="698.51" y="-42.4" font-family="Times-12" font-weight="bold" font-size="14.00">Legend</text>
<polygon fill="#ffffb3" stroke="transparent" points="485.5,-10 485.5,-30 505.5,-30 505.5,-10 485.5,-10"/>
<text text-anchor="start" x="509.13" y="-15.4" font-family="Times-12" font-size="14.00"> &#160;Declarations</text>
<polygon fill="#8dd3c7" stroke="transparent" points="598.5,-10 598.5,-30 618.5,-30 618.5,-10 598.5,-10"/>
<text text-anchor="start" x="622.23" y="-15.4" font-family="Times-12" font-size="14.00"> &#160;Module</text>
<polygon fill="#80b1d3" stroke="transparent" points="684.5,-10 684.5,-30 704.5,-30 704.5,-10 684.5,-10"/>
<text text-anchor="start" x="708.28" y="-15.4" font-family="Times-12" font-size="14.00"> &#160;Bootstrap</text>
<polygon fill="#fdb462" stroke="transparent" points="781.5,-10 781.5,-30 801.5,-30 801.5,-10 781.5,-10"/>
<text text-anchor="start" x="805.17" y="-15.4" font-family="Times-12" font-size="14.00"> &#160;Providers</text>
<polygon fill="#fb8072" stroke="transparent" points="877.5,-10 877.5,-30 897.5,-30 897.5,-10 877.5,-10"/>
<text text-anchor="start" x="901.23" y="-15.4" font-family="Times-12" font-size="14.00"> &#160;Exports</text>
<g id="clust1" class="cluster">
<title>cluster_TldrawWsModule</title>
<polygon fill="none" stroke="black" stroke-dasharray="1,5" points="8,-70 8,-195 1431,-195 1431,-70 8,-70"/>
</g>
<g id="clust3" class="cluster">
<title>cluster_TldrawWsModule_imports</title>
<polygon fill="none" stroke="black" points="1203,-78 1203,-130 1423,-130 1423,-78 1203,-78"/>
</g>
<g id="clust6" class="cluster">
<title>cluster_TldrawWsModule_providers</title>
<polygon fill="none" stroke="black" points="16,-78 16,-130 1195,-130 1195,-78 16,-78"/>
</g>
<!-- CoreModule -->
<g id="node1" class="node">
<title>CoreModule</title>
<polygon fill="#8dd3c7" stroke="black" points="1415.26,-122 1412.26,-126 1391.26,-126 1388.26,-122 1328.74,-122 1328.74,-86 1415.26,-86 1415.26,-122"/>
<text text-anchor="middle" x="1372" y="-99.8" font-family="Times,serif" font-size="14.00">CoreModule</text>
</g>
<!-- TldrawWsModule -->
<g id="node3" class="node">
<title>TldrawWsModule</title>
<polygon fill="#8dd3c7" stroke="black" points="816.13,-187 813.13,-191 792.13,-191 789.13,-187 697.87,-187 697.87,-151 816.13,-151 816.13,-187"/>
<text text-anchor="middle" x="757" y="-164.8" font-family="Times,serif" font-size="14.00">TldrawWsModule</text>
</g>
<!-- CoreModule&#45;&gt;TldrawWsModule -->
<g id="edge1" class="edge">
<title>CoreModule&#45;&gt;TldrawWsModule</title>
<path fill="none" stroke="black" d="M1372,-122.01C1372,-144.49 1372,-180 1372,-180 1372,-180 826.25,-180 826.25,-180"/>
<polygon fill="black" stroke="black" points="826.25,-176.5 816.25,-180 826.25,-183.5 826.25,-176.5"/>
</g>
<!-- LoggerModule -->
<g id="node2" class="node">
<title>LoggerModule</title>
<polygon fill="#8dd3c7" stroke="black" points="1310.98,-122 1307.98,-126 1286.98,-126 1283.98,-122 1211.02,-122 1211.02,-86 1310.98,-86 1310.98,-122"/>
<text text-anchor="middle" x="1261" y="-99.8" font-family="Times,serif" font-size="14.00">LoggerModule</text>
</g>
<!-- LoggerModule&#45;&gt;TldrawWsModule -->
<g id="edge2" class="edge">
<title>LoggerModule&#45;&gt;TldrawWsModule</title>
<path fill="none" stroke="black" d="M1261,-122.13C1261,-142.57 1261,-173 1261,-173 1261,-173 826.3,-173 826.3,-173"/>
<polygon fill="black" stroke="black" points="826.3,-169.5 816.3,-173 826.3,-176.5 826.3,-169.5"/>
</g>
<!-- MetricsService -->
<g id="node4" class="node">
<title>MetricsService</title>
<ellipse fill="#fdb462" stroke="black" cx="1118" cy="-104" rx="69.47" ry="18"/>
<text text-anchor="middle" x="1118" y="-99.8" font-family="Times,serif" font-size="14.00">MetricsService</text>
</g>
<!-- MetricsService&#45;&gt;TldrawWsModule -->
<g id="edge3" class="edge">
<title>MetricsService&#45;&gt;TldrawWsModule</title>
<path fill="none" stroke="black" d="M1118,-122.27C1118,-140.56 1118,-166 1118,-166 1118,-166 826.21,-166 826.21,-166"/>
<polygon fill="black" stroke="black" points="826.21,-162.5 816.21,-166 826.21,-169.5 826.21,-162.5"/>
</g>
<!-- TldrawBoardRepo -->
<g id="node5" class="node">
<title>TldrawBoardRepo</title>
<ellipse fill="#fdb462" stroke="black" cx="948" cy="-104" rx="82.81" ry="18"/>
<text text-anchor="middle" x="948" y="-99.8" font-family="Times,serif" font-size="14.00">TldrawBoardRepo</text>
</g>
<!-- TldrawBoardRepo&#45;&gt;TldrawWsModule -->
<g id="edge4" class="edge">
<title>TldrawBoardRepo&#45;&gt;TldrawWsModule</title>
<path fill="none" stroke="black" d="M948,-122.01C948,-138.05 948,-159 948,-159 948,-159 826.39,-159 826.39,-159"/>
<polygon fill="black" stroke="black" points="826.39,-155.5 816.39,-159 826.39,-162.5 826.39,-155.5"/>
</g>
<!-- TldrawRedisFactory -->
<g id="node6" class="node">
<title>TldrawRedisFactory</title>
<ellipse fill="#fdb462" stroke="black" cx="757" cy="-104" rx="90.33" ry="18"/>
<text text-anchor="middle" x="757" y="-99.8" font-family="Times,serif" font-size="14.00">TldrawRedisFactory</text>
</g>
<!-- TldrawRedisFactory&#45;&gt;TldrawWsModule -->
<g id="edge5" class="edge">
<title>TldrawRedisFactory&#45;&gt;TldrawWsModule</title>
<path fill="none" stroke="black" d="M757,-122.11C757,-122.11 757,-140.99 757,-140.99"/>
<polygon fill="black" stroke="black" points="753.5,-140.99 757,-150.99 760.5,-140.99 753.5,-140.99"/>
</g>
<!-- TldrawRedisService -->
<g id="node7" class="node">
<title>TldrawRedisService</title>
<ellipse fill="#fdb462" stroke="black" cx="559" cy="-104" rx="89.74" ry="18"/>
<text text-anchor="middle" x="559" y="-99.8" font-family="Times,serif" font-size="14.00">TldrawRedisService</text>
</g>
<!-- TldrawRedisService&#45;&gt;TldrawWsModule -->
<g id="edge6" class="edge">
<title>TldrawRedisService&#45;&gt;TldrawWsModule</title>
<path fill="none" stroke="black" d="M559,-122.01C559,-138.05 559,-159 559,-159 559,-159 687.86,-159 687.86,-159"/>
<polygon fill="black" stroke="black" points="687.86,-162.5 697.86,-159 687.86,-155.5 687.86,-162.5"/>
</g>
<!-- TldrawRepo -->
<g id="node8" class="node">
<title>TldrawRepo</title>
<ellipse fill="#fdb462" stroke="black" cx="392" cy="-104" rx="59.11" ry="18"/>
<text text-anchor="middle" x="392" y="-99.8" font-family="Times,serif" font-size="14.00">TldrawRepo</text>
</g>
<!-- TldrawRepo&#45;&gt;TldrawWsModule -->
<g id="edge7" class="edge">
<title>TldrawRepo&#45;&gt;TldrawWsModule</title>
<path fill="none" stroke="black" d="M392,-122.27C392,-140.56 392,-166 392,-166 392,-166 687.54,-166 687.54,-166"/>
<polygon fill="black" stroke="black" points="687.54,-169.5 697.54,-166 687.54,-162.5 687.54,-169.5"/>
</g>
<!-- TldrawWsService -->
<g id="node9" class="node">
<title>TldrawWsService</title>
<ellipse fill="#fdb462" stroke="black" cx="234" cy="-104" rx="80.99" ry="18"/>
<text text-anchor="middle" x="234" y="-99.8" font-family="Times,serif" font-size="14.00">TldrawWsService</text>
</g>
<!-- TldrawWsService&#45;&gt;TldrawWsModule -->
<g id="edge8" class="edge">
<title>TldrawWsService&#45;&gt;TldrawWsModule</title>
<path fill="none" stroke="black" d="M234,-122.13C234,-142.57 234,-173 234,-173 234,-173 687.77,-173 687.77,-173"/>
<polygon fill="black" stroke="black" points="687.77,-176.5 697.77,-173 687.77,-169.5 687.77,-176.5"/>
</g>
<!-- YMongodb -->
<g id="node10" class="node">
<title>YMongodb</title>
<ellipse fill="#fdb462" stroke="black" cx="80" cy="-104" rx="55.63" ry="18"/>
<text text-anchor="middle" x="80" y="-99.8" font-family="Times,serif" font-size="14.00">YMongodb</text>
</g>
<!-- YMongodb&#45;&gt;TldrawWsModule -->
<g id="edge9" class="edge">
<title>YMongodb&#45;&gt;TldrawWsModule</title>
<path fill="none" stroke="black" d="M80,-122.01C80,-144.49 80,-180 80,-180 80,-180 687.81,-180 687.81,-180"/>
<polygon fill="black" stroke="black" points="687.81,-183.5 697.81,-180 687.81,-176.5 687.81,-183.5"/>
</g>
</g>
</svg>
