<?xml version="1.0" encoding="UTF-8" standalone="no"?>
<!DOCTYPE svg PUBLIC "-//W3C//DTD SVG 1.1//EN"
 "http://www.w3.org/Graphics/SVG/1.1/DTD/svg11.dtd">
<!-- Generated by graphviz version 2.47.0 (20210316.0004)
 -->
<!-- Title: dependencies Pages: 1 -->
<svg width="1931pt" height="211pt"
 viewBox="0.00 0.00 1931.00 211.00" xmlns="http://www.w3.org/2000/svg" xmlns:xlink="http://www.w3.org/1999/xlink">
<g id="graph0" class="graph" transform="scale(1 1) rotate(0) translate(4 207)">
<title>dependencies</title>
<polygon fill="white" stroke="transparent" points="-4,4 -4,-207 1927,-207 1927,4 -4,4"/>
<text text-anchor="start" x="940.51" y="-42.4" font-family="Times-12" font-weight="bold" font-size="14.00">Legend</text>
<polygon fill="#ffffb3" stroke="transparent" points="727.5,-10 727.5,-30 747.5,-30 747.5,-10 727.5,-10"/>
<text text-anchor="start" x="751.13" y="-15.4" font-family="Times-12" font-size="14.00"> &#160;Declarations</text>
<polygon fill="#8dd3c7" stroke="transparent" points="840.5,-10 840.5,-30 860.5,-30 860.5,-10 840.5,-10"/>
<text text-anchor="start" x="864.23" y="-15.4" font-family="Times-12" font-size="14.00"> &#160;Module</text>
<polygon fill="#80b1d3" stroke="transparent" points="926.5,-10 926.5,-30 946.5,-30 946.5,-10 926.5,-10"/>
<text text-anchor="start" x="950.28" y="-15.4" font-family="Times-12" font-size="14.00"> &#160;Bootstrap</text>
<polygon fill="#fdb462" stroke="transparent" points="1023.5,-10 1023.5,-30 1043.5,-30 1043.5,-10 1023.5,-10"/>
<text text-anchor="start" x="1047.17" y="-15.4" font-family="Times-12" font-size="14.00"> &#160;Providers</text>
<polygon fill="#fb8072" stroke="transparent" points="1119.5,-10 1119.5,-30 1139.5,-30 1139.5,-10 1119.5,-10"/>
<text text-anchor="start" x="1143.23" y="-15.4" font-family="Times-12" font-size="14.00"> &#160;Exports</text>
<g id="clust1" class="cluster">
<title>cluster_TldrawWsModule</title>
<polygon fill="none" stroke="black" stroke-dasharray="1,5" points="8,-70 8,-195 1915,-195 1915,-70 8,-70"/>
</g>
<g id="clust3" class="cluster">
<title>cluster_TldrawWsModule_imports</title>
<polygon fill="none" stroke="black" points="1319,-78 1319,-130 1907,-130 1907,-78 1319,-78"/>
</g>
<g id="clust6" class="cluster">
<title>cluster_TldrawWsModule_providers</title>
<polygon fill="none" stroke="black" points="16,-78 16,-130 1311,-130 1311,-78 16,-78"/>
</g>
<!-- CoreModule -->
<g id="node1" class="node">
<title>CoreModule</title>
<polygon fill="#8dd3c7" stroke="black" points="1899.26,-122 1896.26,-126 1875.26,-126 1872.26,-122 1812.74,-122 1812.74,-86 1899.26,-86 1899.26,-122"/>
<text text-anchor="middle" x="1856" y="-99.8" font-family="Times,serif" font-size="14.00">CoreModule</text>
</g>
<!-- TldrawWsModule -->
<g id="node5" class="node">
<title>TldrawWsModule</title>
<polygon fill="#8dd3c7" stroke="black" points="1123.13,-187 1120.13,-191 1099.13,-191 1096.13,-187 1004.87,-187 1004.87,-151 1123.13,-151 1123.13,-187"/>
<text text-anchor="middle" x="1064" y="-164.8" font-family="Times,serif" font-size="14.00">TldrawWsModule</text>
</g>
<!-- CoreModule&#45;&gt;TldrawWsModule -->
<g id="edge1" class="edge">
<title>CoreModule&#45;&gt;TldrawWsModule</title>
<path fill="none" stroke="black" d="M1856,-122.09C1856,-145.13 1856,-182 1856,-182 1856,-182 1133.2,-182 1133.2,-182"/>
<polygon fill="black" stroke="black" points="1133.2,-178.5 1123.2,-182 1133.2,-185.5 1133.2,-178.5"/>
</g>
<!-- FilesStorageClientModule -->
<g id="node2" class="node">
<title>FilesStorageClientModule</title>
<polygon fill="#8dd3c7" stroke="black" points="1794.76,-122 1791.76,-126 1770.76,-126 1767.76,-122 1631.24,-122 1631.24,-86 1794.76,-86 1794.76,-122"/>
<text text-anchor="middle" x="1713" y="-99.8" font-family="Times,serif" font-size="14.00">FilesStorageClientModule</text>
</g>
<!-- FilesStorageClientModule&#45;&gt;TldrawWsModule -->
<g id="edge2" class="edge">
<title>FilesStorageClientModule&#45;&gt;TldrawWsModule</title>
<path fill="none" stroke="black" d="M1713,-122.28C1713,-143.32 1713,-175 1713,-175 1713,-175 1133.31,-175 1133.31,-175"/>
<polygon fill="black" stroke="black" points="1133.31,-171.5 1123.31,-175 1133.31,-178.5 1133.31,-171.5"/>
</g>
<!-- LoggerModule -->
<g id="node3" class="node">
<title>LoggerModule</title>
<polygon fill="#8dd3c7" stroke="black" points="1612.98,-122 1609.98,-126 1588.98,-126 1585.98,-122 1513.02,-122 1513.02,-86 1612.98,-86 1612.98,-122"/>
<text text-anchor="middle" x="1563" y="-99.8" font-family="Times,serif" font-size="14.00">LoggerModule</text>
</g>
<!-- LoggerModule&#45;&gt;TldrawWsModule -->
<g id="edge3" class="edge">
<title>LoggerModule&#45;&gt;TldrawWsModule</title>
<path fill="none" stroke="black" d="M1563,-122.11C1563,-141.34 1563,-169 1563,-169 1563,-169 1133.2,-169 1133.2,-169"/>
<polygon fill="black" stroke="black" points="1133.2,-165.5 1123.2,-169 1133.2,-172.5 1133.2,-165.5"/>
</g>
<!-- RabbitMQWrapperModule -->
<g id="node4" class="node">
<title>RabbitMQWrapperModule</title>
<polygon fill="#8dd3c7" stroke="black" points="1495.4,-122 1492.4,-126 1471.4,-126 1468.4,-122 1326.6,-122 1326.6,-86 1495.4,-86 1495.4,-122"/>
<text text-anchor="middle" x="1411" y="-99.8" font-family="Times,serif" font-size="14.00">RabbitMQWrapperModule</text>
</g>
<!-- RabbitMQWrapperModule&#45;&gt;TldrawWsModule -->
<g id="edge4" class="edge">
<title>RabbitMQWrapperModule&#45;&gt;TldrawWsModule</title>
<path fill="none" stroke="black" d="M1411,-122.02C1411,-139.37 1411,-163 1411,-163 1411,-163 1133.26,-163 1133.26,-163"/>
<polygon fill="black" stroke="black" points="1133.26,-159.5 1123.26,-163 1133.26,-166.5 1133.26,-159.5"/>
</g>
<!-- MetricsService -->
<g id="node6" class="node">
<title>MetricsService</title>
<ellipse fill="#fdb462" stroke="black" cx="1234" cy="-104" rx="69.47" ry="18"/>
<text text-anchor="middle" x="1234" y="-99.8" font-family="Times,serif" font-size="14.00">MetricsService</text>
</g>
<!-- MetricsService&#45;&gt;TldrawWsModule -->
<g id="edge5" class="edge">
<title>MetricsService&#45;&gt;TldrawWsModule</title>
<path fill="none" stroke="black" d="M1234,-122.24C1234,-137.57 1234,-157 1234,-157 1234,-157 1133.46,-157 1133.46,-157"/>
<polygon fill="black" stroke="black" points="1133.46,-153.5 1123.46,-157 1133.46,-160.5 1133.46,-153.5"/>
</g>
<!-- TldrawBoardRepo -->
<g id="node7" class="node">
<title>TldrawBoardRepo</title>
<ellipse fill="#fdb462" stroke="black" cx="1064" cy="-104" rx="82.81" ry="18"/>
<text text-anchor="middle" x="1064" y="-99.8" font-family="Times,serif" font-size="14.00">TldrawBoardRepo</text>
</g>
<!-- TldrawBoardRepo&#45;&gt;TldrawWsModule -->
<g id="edge6" class="edge">
<title>TldrawBoardRepo&#45;&gt;TldrawWsModule</title>
<path fill="none" stroke="black" d="M1064,-122.11C1064,-122.11 1064,-140.99 1064,-140.99"/>
<polygon fill="black" stroke="black" points="1060.5,-140.99 1064,-150.99 1067.5,-140.99 1060.5,-140.99"/>
</g>
<!-- TldrawFilesStorageAdapterService -->
<g id="node8" class="node">
<title>TldrawFilesStorageAdapterService</title>
<ellipse fill="#fdb462" stroke="black" cx="816" cy="-104" rx="147" ry="18"/>
<text text-anchor="middle" x="816" y="-99.8" font-family="Times,serif" font-size="14.00">TldrawFilesStorageAdapterService</text>
</g>
<!-- TldrawFilesStorageAdapterService&#45;&gt;TldrawWsModule -->
<g id="edge7" class="edge">
<title>TldrawFilesStorageAdapterService&#45;&gt;TldrawWsModule</title>
<path fill="none" stroke="black" d="M816,-122.24C816,-137.57 816,-157 816,-157 816,-157 994.6,-157 994.6,-157"/>
<polygon fill="black" stroke="black" points="994.6,-160.5 1004.6,-157 994.6,-153.5 994.6,-160.5"/>
</g>
<!-- TldrawRedisFactory -->
<g id="node9" class="node">
<title>TldrawRedisFactory</title>
<ellipse fill="#fdb462" stroke="black" cx="560" cy="-104" rx="90.33" ry="18"/>
<text text-anchor="middle" x="560" y="-99.8" font-family="Times,serif" font-size="14.00">TldrawRedisFactory</text>
</g>
<!-- TldrawRedisFactory&#45;&gt;TldrawWsModule -->
<g id="edge8" class="edge">
<title>TldrawRedisFactory&#45;&gt;TldrawWsModule</title>
<path fill="none" stroke="black" d="M560,-122.02C560,-139.37 560,-163 560,-163 560,-163 994.7,-163 994.7,-163"/>
<polygon fill="black" stroke="black" points="994.7,-166.5 1004.7,-163 994.7,-159.5 994.7,-166.5"/>
</g>
<!-- TldrawRepo -->
<g id="node10" class="node">
<title>TldrawRepo</title>
<ellipse fill="#fdb462" stroke="black" cx="392" cy="-104" rx="59.11" ry="18"/>
<text text-anchor="middle" x="392" y="-99.8" font-family="Times,serif" font-size="14.00">TldrawRepo</text>
</g>
<!-- TldrawRepo&#45;&gt;TldrawWsModule -->
<g id="edge9" class="edge">
<title>TldrawRepo&#45;&gt;TldrawWsModule</title>
<path fill="none" stroke="black" d="M392,-122.11C392,-141.34 392,-169 392,-169 392,-169 994.66,-169 994.66,-169"/>
<polygon fill="black" stroke="black" points="994.66,-172.5 1004.66,-169 994.66,-165.5 994.66,-172.5"/>
</g>
<!-- TldrawWsService -->
<g id="node11" class="node">
<title>TldrawWsService</title>
<ellipse fill="#fdb462" stroke="black" cx="234" cy="-104" rx="80.99" ry="18"/>
<text text-anchor="middle" x="234" y="-99.8" font-family="Times,serif" font-size="14.00">TldrawWsService</text>
</g>
<!-- TldrawWsService&#45;&gt;TldrawWsModule -->
<g id="edge10" class="edge">
<title>TldrawWsService&#45;&gt;TldrawWsModule</title>
<path fill="none" stroke="black" d="M234,-122.28C234,-143.32 234,-175 234,-175 234,-175 994.64,-175 994.64,-175"/>
<polygon fill="black" stroke="black" points="994.64,-178.5 1004.64,-175 994.64,-171.5 994.64,-178.5"/>
</g>
<!-- YMongodb -->
<g id="node12" class="node">
<title>YMongodb</title>
<ellipse fill="#fdb462" stroke="black" cx="80" cy="-104" rx="55.63" ry="18"/>
<text text-anchor="middle" x="80" y="-99.8" font-family="Times,serif" font-size="14.00">YMongodb</text>
</g>
<!-- YMongodb&#45;&gt;TldrawWsModule -->
<g id="edge11" class="edge">
<title>YMongodb&#45;&gt;TldrawWsModule</title>
<path fill="none" stroke="black" d="M80,-122.09C80,-145.13 80,-182 80,-182 80,-182 994.66,-182 994.66,-182"/>
<polygon fill="black" stroke="black" points="994.66,-185.5 1004.66,-182 994.66,-178.5 994.66,-185.5"/>
</g>
</g>
</svg>
