<?xml version="1.0" encoding="UTF-8" standalone="no"?>
<!DOCTYPE svg PUBLIC "-//W3C//DTD SVG 1.1//EN"
 "http://www.w3.org/Graphics/SVG/1.1/DTD/svg11.dtd">
<!-- Generated by graphviz version 2.47.0 (20210316.0004)
 -->
<!-- Title: dependencies Pages: 1 -->
<svg width="1250pt" height="211pt"
 viewBox="0.00 0.00 1250.00 211.00" xmlns="http://www.w3.org/2000/svg" xmlns:xlink="http://www.w3.org/1999/xlink">
<g id="graph0" class="graph" transform="scale(1 1) rotate(0) translate(4 207)">
<title>dependencies</title>
<polygon fill="white" stroke="transparent" points="-4,4 -4,-207 1246,-207 1246,4 -4,4"/>
<text text-anchor="start" x="600.01" y="-42.4" font-family="Times-12" font-weight="bold" font-size="14.00">Legend</text>
<polygon fill="#ffffb3" stroke="transparent" points="387,-10 387,-30 407,-30 407,-10 387,-10"/>
<text text-anchor="start" x="410.63" y="-15.4" font-family="Times-12" font-size="14.00"> &#160;Declarations</text>
<polygon fill="#8dd3c7" stroke="transparent" points="500,-10 500,-30 520,-30 520,-10 500,-10"/>
<text text-anchor="start" x="523.73" y="-15.4" font-family="Times-12" font-size="14.00"> &#160;Module</text>
<polygon fill="#80b1d3" stroke="transparent" points="586,-10 586,-30 606,-30 606,-10 586,-10"/>
<text text-anchor="start" x="609.78" y="-15.4" font-family="Times-12" font-size="14.00"> &#160;Bootstrap</text>
<polygon fill="#fdb462" stroke="transparent" points="683,-10 683,-30 703,-30 703,-10 683,-10"/>
<text text-anchor="start" x="706.67" y="-15.4" font-family="Times-12" font-size="14.00"> &#160;Providers</text>
<polygon fill="#fb8072" stroke="transparent" points="779,-10 779,-30 799,-30 799,-10 779,-10"/>
<text text-anchor="start" x="802.73" y="-15.4" font-family="Times-12" font-size="14.00"> &#160;Exports</text>
<g id="clust1" class="cluster">
<title>cluster_TldrawWsModule</title>
<polygon fill="none" stroke="black" stroke-dasharray="1,5" points="8,-70 8,-195 1234,-195 1234,-70 8,-70"/>
</g>
<g id="clust3" class="cluster">
<title>cluster_TldrawWsModule_imports</title>
<polygon fill="none" stroke="black" points="1006,-78 1006,-130 1226,-130 1226,-78 1006,-78"/>
</g>
<g id="clust6" class="cluster">
<title>cluster_TldrawWsModule_providers</title>
<polygon fill="none" stroke="black" points="16,-78 16,-130 998,-130 998,-78 16,-78"/>
</g>
<!-- CoreModule -->
<g id="node1" class="node">
<title>CoreModule</title>
<polygon fill="#8dd3c7" stroke="black" points="1218.26,-122 1215.26,-126 1194.26,-126 1191.26,-122 1131.74,-122 1131.74,-86 1218.26,-86 1218.26,-122"/>
<text text-anchor="middle" x="1175" y="-99.8" font-family="Times,serif" font-size="14.00">CoreModule</text>
</g>
<!-- TldrawWsModule -->
<g id="node3" class="node">
<title>TldrawWsModule</title>
<polygon fill="#8dd3c7" stroke="black" points="714.13,-187 711.13,-191 690.13,-191 687.13,-187 595.87,-187 595.87,-151 714.13,-151 714.13,-187"/>
<text text-anchor="middle" x="655" y="-164.8" font-family="Times,serif" font-size="14.00">TldrawWsModule</text>
</g>
<!-- CoreModule&#45;&gt;TldrawWsModule -->
<g id="edge1" class="edge">
<title>CoreModule&#45;&gt;TldrawWsModule</title>
<path fill="none" stroke="black" d="M1175,-122.29C1175,-144.21 1175,-178 1175,-178 1175,-178 724.14,-178 724.14,-178"/>
<polygon fill="black" stroke="black" points="724.14,-174.5 714.14,-178 724.14,-181.5 724.14,-174.5"/>
</g>
<!-- LoggerModule -->
<g id="node2" class="node">
<title>LoggerModule</title>
<polygon fill="#8dd3c7" stroke="black" points="1113.98,-122 1110.98,-126 1089.98,-126 1086.98,-122 1014.02,-122 1014.02,-86 1113.98,-86 1113.98,-122"/>
<text text-anchor="middle" x="1064" y="-99.8" font-family="Times,serif" font-size="14.00">LoggerModule</text>
</g>
<!-- LoggerModule&#45;&gt;TldrawWsModule -->
<g id="edge2" class="edge">
<title>LoggerModule&#45;&gt;TldrawWsModule</title>
<path fill="none" stroke="black" d="M1064,-122.11C1064,-141.34 1064,-169 1064,-169 1064,-169 724.47,-169 724.47,-169"/>
<polygon fill="black" stroke="black" points="724.47,-165.5 714.47,-169 724.47,-172.5 724.47,-165.5"/>
</g>
<!-- MetricsService -->
<g id="node4" class="node">
<title>MetricsService</title>
<ellipse fill="#fdb462" stroke="black" cx="921" cy="-104" rx="69.47" ry="18"/>
<text text-anchor="middle" x="921" y="-99.8" font-family="Times,serif" font-size="14.00">MetricsService</text>
</g>
<!-- MetricsService&#45;&gt;TldrawWsModule -->
<g id="edge3" class="edge">
<title>MetricsService&#45;&gt;TldrawWsModule</title>
<path fill="none" stroke="black" d="M921,-122.03C921,-138.4 921,-160 921,-160 921,-160 724.36,-160 724.36,-160"/>
<polygon fill="black" stroke="black" points="724.36,-156.5 714.36,-160 724.36,-163.5 724.36,-156.5"/>
</g>
<!-- TldrawBoardRepo -->
<g id="node5" class="node">
<title>TldrawBoardRepo</title>
<ellipse fill="#fdb462" stroke="black" cx="751" cy="-104" rx="82.81" ry="18"/>
<text text-anchor="middle" x="751" y="-99.8" font-family="Times,serif" font-size="14.00">TldrawBoardRepo</text>
</g>
<!-- TldrawBoardRepo&#45;&gt;TldrawWsModule -->
<g id="edge4" class="edge">
<title>TldrawBoardRepo&#45;&gt;TldrawWsModule</title>
<path fill="none" stroke="black" d="M691.21,-116.53C691.21,-116.53 691.21,-140.85 691.21,-140.85"/>
<polygon fill="black" stroke="black" points="687.71,-140.85 691.21,-150.85 694.71,-140.85 687.71,-140.85"/>
</g>
<!-- TldrawRedisFactory -->
<g id="node6" class="node">
<title>TldrawRedisFactory</title>
<ellipse fill="#fdb462" stroke="black" cx="560" cy="-104" rx="90.33" ry="18"/>
<text text-anchor="middle" x="560" y="-99.8" font-family="Times,serif" font-size="14.00">TldrawRedisFactory</text>
</g>
<!-- TldrawRedisFactory&#45;&gt;TldrawWsModule -->
<g id="edge5" class="edge">
<title>TldrawRedisFactory&#45;&gt;TldrawWsModule</title>
<path fill="none" stroke="black" d="M623.05,-117.15C623.05,-117.15 623.05,-140.69 623.05,-140.69"/>
<polygon fill="black" stroke="black" points="619.55,-140.69 623.05,-150.69 626.55,-140.69 619.55,-140.69"/>
</g>
<!-- TldrawRepo -->
<g id="node7" class="node">
<title>TldrawRepo</title>
<ellipse fill="#fdb462" stroke="black" cx="392" cy="-104" rx="59.11" ry="18"/>
<text text-anchor="middle" x="392" y="-99.8" font-family="Times,serif" font-size="14.00">TldrawRepo</text>
</g>
<!-- TldrawRepo&#45;&gt;TldrawWsModule -->
<g id="edge6" class="edge">
<title>TldrawRepo&#45;&gt;TldrawWsModule</title>
<path fill="none" stroke="black" d="M392,-122.03C392,-138.4 392,-160 392,-160 392,-160 585.65,-160 585.65,-160"/>
<polygon fill="black" stroke="black" points="585.65,-163.5 595.65,-160 585.65,-156.5 585.65,-163.5"/>
</g>
<!-- TldrawWsService -->
<g id="node8" class="node">
<title>TldrawWsService</title>
<ellipse fill="#fdb462" stroke="black" cx="234" cy="-104" rx="80.99" ry="18"/>
<text text-anchor="middle" x="234" y="-99.8" font-family="Times,serif" font-size="14.00">TldrawWsService</text>
</g>
<!-- TldrawWsService&#45;&gt;TldrawWsModule -->
<g id="edge7" class="edge">
<title>TldrawWsService&#45;&gt;TldrawWsModule</title>
<path fill="none" stroke="black" d="M234,-122.11C234,-141.34 234,-169 234,-169 234,-169 585.57,-169 585.57,-169"/>
<polygon fill="black" stroke="black" points="585.57,-172.5 595.57,-169 585.57,-165.5 585.57,-172.5"/>
</g>
<!-- YMongodb -->
<g id="node9" class="node">
<title>YMongodb</title>
<ellipse fill="#fdb462" stroke="black" cx="80" cy="-104" rx="55.63" ry="18"/>
<text text-anchor="middle" x="80" y="-99.8" font-family="Times,serif" font-size="14.00">YMongodb</text>
</g>
<!-- YMongodb&#45;&gt;TldrawWsModule -->
<g id="edge8" class="edge">
<title>YMongodb&#45;&gt;TldrawWsModule</title>
<path fill="none" stroke="black" d="M80,-122.29C80,-144.21 80,-178 80,-178 80,-178 585.63,-178 585.63,-178"/>
<polygon fill="black" stroke="black" points="585.63,-181.5 595.63,-178 585.63,-174.5 585.63,-181.5"/>
</g>
</g>
</svg>
