<?xml version="1.0" encoding="UTF-8" standalone="no"?>
<!DOCTYPE svg PUBLIC "-//W3C//DTD SVG 1.1//EN"
 "http://www.w3.org/Graphics/SVG/1.1/DTD/svg11.dtd">
<!-- Generated by graphviz version 2.47.0 (20210316.0004)
 -->
<!-- Title: dependencies Pages: 1 -->
<svg width="608pt" height="211pt"
 viewBox="0.00 0.00 608.00 211.00" xmlns="http://www.w3.org/2000/svg" xmlns:xlink="http://www.w3.org/1999/xlink">
<g id="graph0" class="graph" transform="scale(1 1) rotate(0) translate(4 207)">
<title>dependencies</title>
<polygon fill="white" stroke="transparent" points="-4,4 -4,-207 604,-207 604,4 -4,4"/>
<text text-anchor="start" x="279.01" y="-42.4" font-family="Times-12" font-weight="bold" font-size="14.00">Legend</text>
<polygon fill="#ffffb3" stroke="transparent" points="66,-10 66,-30 86,-30 86,-10 66,-10"/>
<text text-anchor="start" x="89.63" y="-15.4" font-family="Times-12" font-size="14.00"> &#160;Declarations</text>
<polygon fill="#8dd3c7" stroke="transparent" points="179,-10 179,-30 199,-30 199,-10 179,-10"/>
<text text-anchor="start" x="202.73" y="-15.4" font-family="Times-12" font-size="14.00"> &#160;Module</text>
<polygon fill="#80b1d3" stroke="transparent" points="265,-10 265,-30 285,-30 285,-10 265,-10"/>
<text text-anchor="start" x="288.78" y="-15.4" font-family="Times-12" font-size="14.00"> &#160;Bootstrap</text>
<polygon fill="#fdb462" stroke="transparent" points="362,-10 362,-30 382,-30 382,-10 362,-10"/>
<text text-anchor="start" x="385.67" y="-15.4" font-family="Times-12" font-size="14.00"> &#160;Providers</text>
<polygon fill="#fb8072" stroke="transparent" points="458,-10 458,-30 478,-30 478,-10 458,-10"/>
<text text-anchor="start" x="481.73" y="-15.4" font-family="Times-12" font-size="14.00"> &#160;Exports</text>
<g id="clust1" class="cluster">
<title>cluster_TldrawWsModule</title>
<polygon fill="none" stroke="black" stroke-dasharray="1,5" points="8,-70 8,-195 592,-195 592,-70 8,-70"/>
</g>
<g id="clust3" class="cluster">
<title>cluster_TldrawWsModule_imports</title>
<polygon fill="none" stroke="black" points="482,-78 482,-130 584,-130 584,-78 482,-78"/>
</g>
<g id="clust6" class="cluster">
<title>cluster_TldrawWsModule_providers</title>
<polygon fill="none" stroke="black" points="16,-78 16,-130 474,-130 474,-78 16,-78"/>
</g>
<!-- CoreModule -->
<g id="node1" class="node">
<title>CoreModule</title>
<polygon fill="#8dd3c7" stroke="black" points="576.26,-122 573.26,-126 552.26,-126 549.26,-122 489.74,-122 489.74,-86 576.26,-86 576.26,-122"/>
<text text-anchor="middle" x="533" y="-99.8" font-family="Times,serif" font-size="14.00">CoreModule</text>
</g>
<!-- TldrawWsModule -->
<g id="node2" class="node">
<title>TldrawWsModule</title>
<polygon fill="#8dd3c7" stroke="black" points="416.13,-187 413.13,-191 392.13,-191 389.13,-187 297.87,-187 297.87,-151 416.13,-151 416.13,-187"/>
<text text-anchor="middle" x="357" y="-164.8" font-family="Times,serif" font-size="14.00">TldrawWsModule</text>
</g>
<!-- CoreModule&#45;&gt;TldrawWsModule -->
<g id="edge1" class="edge">
<title>CoreModule&#45;&gt;TldrawWsModule</title>
<path fill="none" stroke="black" d="M533,-122.11C533,-141.34 533,-169 533,-169 533,-169 426.59,-169 426.59,-169"/>
<polygon fill="black" stroke="black" points="426.59,-165.5 416.59,-169 426.59,-172.5 426.59,-165.5"/>
</g>
<!-- Logger -->
<g id="node3" class="node">
<title>Logger</title>
<ellipse fill="#fdb462" stroke="black" cx="427" cy="-104" rx="38.85" ry="18"/>
<text text-anchor="middle" x="427" y="-99.8" font-family="Times,serif" font-size="14.00">Logger</text>
</g>
<!-- Logger&#45;&gt;TldrawWsModule -->
<g id="edge2" class="edge">
<title>Logger&#45;&gt;TldrawWsModule</title>
<path fill="none" stroke="black" d="M402.2,-118.1C402.2,-118.1 402.2,-140.72 402.2,-140.72"/>
<polygon fill="black" stroke="black" points="398.7,-140.72 402.2,-150.72 405.7,-140.72 398.7,-140.72"/>
</g>
<!-- TldrawBoardRepo -->
<g id="node4" class="node">
<title>TldrawBoardRepo</title>
<ellipse fill="#fdb462" stroke="black" cx="287" cy="-104" rx="82.81" ry="18"/>
<text text-anchor="middle" x="287" y="-99.8" font-family="Times,serif" font-size="14.00">TldrawBoardRepo</text>
</g>
<!-- TldrawBoardRepo&#45;&gt;TldrawWsModule -->
<g id="edge3" class="edge">
<title>TldrawBoardRepo&#45;&gt;TldrawWsModule</title>
<path fill="none" stroke="black" d="M333.79,-119.08C333.79,-119.08 333.79,-140.76 333.79,-140.76"/>
<polygon fill="black" stroke="black" points="330.29,-140.76 333.79,-150.76 337.29,-140.76 330.29,-140.76"/>
</g>
<!-- TldrawWsService -->
<g id="node5" class="node">
<title>TldrawWsService</title>
<ellipse fill="#fdb462" stroke="black" cx="105" cy="-104" rx="80.99" ry="18"/>
<text text-anchor="middle" x="105" y="-99.8" font-family="Times,serif" font-size="14.00">TldrawWsService</text>
</g>
<!-- TldrawWsService&#45;&gt;TldrawWsModule -->
<g id="edge4" class="edge">
<title>TldrawWsService&#45;&gt;TldrawWsModule</title>
<path fill="none" stroke="black" d="M105,-122.11C105,-141.34 105,-169 105,-169 105,-169 287.6,-169 287.6,-169"/>
<polygon fill="black" stroke="black" points="287.6,-172.5 297.6,-169 287.6,-165.5 287.6,-172.5"/>
</g>
</g>
</svg>
