<?xml version="1.0" encoding="UTF-8" standalone="no"?>
<!DOCTYPE svg PUBLIC "-//W3C//DTD SVG 1.1//EN"
 "http://www.w3.org/Graphics/SVG/1.1/DTD/svg11.dtd">
<!-- Generated by graphviz version 2.47.0 (20210316.0004)
 -->
<!-- Title: dependencies Pages: 1 -->
<svg width="1931pt" height="211pt"
 viewBox="0.00 0.00 1931.00 211.00" xmlns="http://www.w3.org/2000/svg" xmlns:xlink="http://www.w3.org/1999/xlink">
<g id="graph0" class="graph" transform="scale(1 1) rotate(0) translate(4 207)">
<title>dependencies</title>
<polygon fill="white" stroke="transparent" points="-4,4 -4,-207 1927,-207 1927,4 -4,4"/>
<text text-anchor="start" x="940.51" y="-42.4" font-family="Times-12" font-weight="bold" font-size="14.00">Legend</text>
<polygon fill="#ffffb3" stroke="transparent" points="727.5,-10 727.5,-30 747.5,-30 747.5,-10 727.5,-10"/>
<text text-anchor="start" x="751.13" y="-15.4" font-family="Times-12" font-size="14.00"> &#160;Declarations</text>
<polygon fill="#8dd3c7" stroke="transparent" points="840.5,-10 840.5,-30 860.5,-30 860.5,-10 840.5,-10"/>
<text text-anchor="start" x="864.23" y="-15.4" font-family="Times-12" font-size="14.00"> &#160;Module</text>
<polygon fill="#80b1d3" stroke="transparent" points="926.5,-10 926.5,-30 946.5,-30 946.5,-10 926.5,-10"/>
<text text-anchor="start" x="950.28" y="-15.4" font-family="Times-12" font-size="14.00"> &#160;Bootstrap</text>
<polygon fill="#fdb462" stroke="transparent" points="1023.5,-10 1023.5,-30 1043.5,-30 1043.5,-10 1023.5,-10"/>
<text text-anchor="start" x="1047.17" y="-15.4" font-family="Times-12" font-size="14.00"> &#160;Providers</text>
<polygon fill="#fb8072" stroke="transparent" points="1119.5,-10 1119.5,-30 1139.5,-30 1139.5,-10 1119.5,-10"/>
<text text-anchor="start" x="1143.23" y="-15.4" font-family="Times-12" font-size="14.00"> &#160;Exports</text>
<g id="clust1" class="cluster">
<title>cluster_TldrawWsModule</title>
<polygon fill="none" stroke="black" stroke-dasharray="1,5" points="8,-70 8,-195 1915,-195 1915,-70 8,-70"/>
</g>
<g id="clust6" class="cluster">
<title>cluster_TldrawWsModule_providers</title>
<polygon fill="none" stroke="black" points="612,-78 612,-130 1907,-130 1907,-78 612,-78"/>
</g>
<g id="clust3" class="cluster">
<title>cluster_TldrawWsModule_imports</title>
<polygon fill="none" stroke="black" points="16,-78 16,-130 604,-130 604,-78 16,-78"/>
</g>
<!-- CoreModule -->
<g id="node1" class="node">
<title>CoreModule</title>
<polygon fill="#8dd3c7" stroke="black" points="596.26,-122 593.26,-126 572.26,-126 569.26,-122 509.74,-122 509.74,-86 596.26,-86 596.26,-122"/>
<text text-anchor="middle" x="553" y="-99.8" font-family="Times,serif" font-size="14.00">CoreModule</text>
</g>
<!-- TldrawWsModule -->
<g id="node5" class="node">
<title>TldrawWsModule</title>
<polygon fill="#8dd3c7" stroke="black" points="889.13,-187 886.13,-191 865.13,-191 862.13,-187 770.87,-187 770.87,-151 889.13,-151 889.13,-187"/>
<text text-anchor="middle" x="830" y="-164.8" font-family="Times,serif" font-size="14.00">TldrawWsModule</text>
</g>
<!-- CoreModule&#45;&gt;TldrawWsModule -->
<g id="edge1" class="edge">
<title>CoreModule&#45;&gt;TldrawWsModule</title>
<path fill="none" stroke="black" d="M553,-122.02C553,-139.37 553,-163 553,-163 553,-163 760.58,-163 760.58,-163"/>
<polygon fill="black" stroke="black" points="760.58,-166.5 770.58,-163 760.58,-159.5 760.58,-166.5"/>
</g>
<!-- FilesStorageClientModule -->
<g id="node2" class="node">
<title>FilesStorageClientModule</title>
<polygon fill="#8dd3c7" stroke="black" points="491.76,-122 488.76,-126 467.76,-126 464.76,-122 328.24,-122 328.24,-86 491.76,-86 491.76,-122"/>
<text text-anchor="middle" x="410" y="-99.8" font-family="Times,serif" font-size="14.00">FilesStorageClientModule</text>
</g>
<!-- FilesStorageClientModule&#45;&gt;TldrawWsModule -->
<g id="edge2" class="edge">
<title>FilesStorageClientModule&#45;&gt;TldrawWsModule</title>
<path fill="none" stroke="black" d="M410,-122.11C410,-141.34 410,-169 410,-169 410,-169 760.72,-169 760.72,-169"/>
<polygon fill="black" stroke="black" points="760.72,-172.5 770.72,-169 760.72,-165.5 760.72,-172.5"/>
</g>
<!-- LoggerModule -->
<g id="node3" class="node">
<title>LoggerModule</title>
<polygon fill="#8dd3c7" stroke="black" points="309.98,-122 306.98,-126 285.98,-126 282.98,-122 210.02,-122 210.02,-86 309.98,-86 309.98,-122"/>
<text text-anchor="middle" x="260" y="-99.8" font-family="Times,serif" font-size="14.00">LoggerModule</text>
</g>
<!-- LoggerModule&#45;&gt;TldrawWsModule -->
<g id="edge3" class="edge">
<title>LoggerModule&#45;&gt;TldrawWsModule</title>
<path fill="none" stroke="black" d="M260,-122.28C260,-143.32 260,-175 260,-175 260,-175 760.61,-175 760.61,-175"/>
<polygon fill="black" stroke="black" points="760.61,-178.5 770.61,-175 760.61,-171.5 760.61,-178.5"/>
</g>
<!-- RabbitMQWrapperModule -->
<g id="node4" class="node">
<title>RabbitMQWrapperModule</title>
<polygon fill="#8dd3c7" stroke="black" points="192.4,-122 189.4,-126 168.4,-126 165.4,-122 23.6,-122 23.6,-86 192.4,-86 192.4,-122"/>
<text text-anchor="middle" x="108" y="-99.8" font-family="Times,serif" font-size="14.00">RabbitMQWrapperModule</text>
</g>
<!-- RabbitMQWrapperModule&#45;&gt;TldrawWsModule -->
<g id="edge4" class="edge">
<title>RabbitMQWrapperModule&#45;&gt;TldrawWsModule</title>
<path fill="none" stroke="black" d="M108,-122.09C108,-145.13 108,-182 108,-182 108,-182 760.61,-182 760.61,-182"/>
<polygon fill="black" stroke="black" points="760.61,-185.5 770.61,-182 760.61,-178.5 760.61,-185.5"/>
</g>
<!-- MetricsService -->
<g id="node6" class="node">
<title>MetricsService</title>
<ellipse fill="#fdb462" stroke="black" cx="1830" cy="-104" rx="69.47" ry="18"/>
<text text-anchor="middle" x="1830" y="-99.8" font-family="Times,serif" font-size="14.00">MetricsService</text>
</g>
<!-- MetricsService&#45;&gt;TldrawWsModule -->
<g id="edge5" class="edge">
<title>MetricsService&#45;&gt;TldrawWsModule</title>
<path fill="none" stroke="black" d="M1830,-122.09C1830,-145.13 1830,-182 1830,-182 1830,-182 899.19,-182 899.19,-182"/>
<polygon fill="black" stroke="black" points="899.19,-178.5 889.19,-182 899.19,-185.5 899.19,-178.5"/>
</g>
<!-- TldrawBoardRepo -->
<g id="node7" class="node">
<title>TldrawBoardRepo</title>
<ellipse fill="#fdb462" stroke="black" cx="1660" cy="-104" rx="82.81" ry="18"/>
<text text-anchor="middle" x="1660" y="-99.8" font-family="Times,serif" font-size="14.00">TldrawBoardRepo</text>
</g>
<!-- TldrawBoardRepo&#45;&gt;TldrawWsModule -->
<g id="edge6" class="edge">
<title>TldrawBoardRepo&#45;&gt;TldrawWsModule</title>
<path fill="none" stroke="black" d="M1660,-122.28C1660,-143.32 1660,-175 1660,-175 1660,-175 899.36,-175 899.36,-175"/>
<polygon fill="black" stroke="black" points="899.36,-171.5 889.36,-175 899.36,-178.5 899.36,-171.5"/>
</g>
<!-- TldrawFilesStorageAdapterService -->
<g id="node8" class="node">
<title>TldrawFilesStorageAdapterService</title>
<ellipse fill="#fdb462" stroke="black" cx="1412" cy="-104" rx="147" ry="18"/>
<text text-anchor="middle" x="1412" y="-99.8" font-family="Times,serif" font-size="14.00">TldrawFilesStorageAdapterService</text>
</g>
<!-- TldrawFilesStorageAdapterService&#45;&gt;TldrawWsModule -->
<g id="edge7" class="edge">
<title>TldrawFilesStorageAdapterService&#45;&gt;TldrawWsModule</title>
<path fill="none" stroke="black" d="M1412,-122.11C1412,-141.34 1412,-169 1412,-169 1412,-169 899.28,-169 899.28,-169"/>
<polygon fill="black" stroke="black" points="899.28,-165.5 889.28,-169 899.28,-172.5 899.28,-165.5"/>
</g>
<!-- TldrawRedisFactory -->
<g id="node9" class="node">
<title>TldrawRedisFactory</title>
<ellipse fill="#fdb462" stroke="black" cx="1156" cy="-104" rx="90.33" ry="18"/>
<text text-anchor="middle" x="1156" y="-99.8" font-family="Times,serif" font-size="14.00">TldrawRedisFactory</text>
</g>
<!-- TldrawRedisFactory&#45;&gt;TldrawWsModule -->
<g id="edge8" class="edge">
<title>TldrawRedisFactory&#45;&gt;TldrawWsModule</title>
<path fill="none" stroke="black" d="M1156,-122.02C1156,-139.37 1156,-163 1156,-163 1156,-163 899.41,-163 899.41,-163"/>
<polygon fill="black" stroke="black" points="899.41,-159.5 889.41,-163 899.41,-166.5 899.41,-159.5"/>
</g>
<!-- TldrawRepo -->
<g id="node10" class="node">
<title>TldrawRepo</title>
<ellipse fill="#fdb462" stroke="black" cx="988" cy="-104" rx="59.11" ry="18"/>
<text text-anchor="middle" x="988" y="-99.8" font-family="Times,serif" font-size="14.00">TldrawRepo</text>
</g>
<!-- TldrawRepo&#45;&gt;TldrawWsModule -->
<g id="edge9" class="edge">
<title>TldrawRepo&#45;&gt;TldrawWsModule</title>
<path fill="none" stroke="black" d="M988,-122.24C988,-137.57 988,-157 988,-157 988,-157 899.28,-157 899.28,-157"/>
<polygon fill="black" stroke="black" points="899.28,-153.5 889.28,-157 899.28,-160.5 899.28,-153.5"/>
</g>
<!-- TldrawWsService -->
<g id="node11" class="node">
<title>TldrawWsService</title>
<ellipse fill="#fdb462" stroke="black" cx="830" cy="-104" rx="80.99" ry="18"/>
<text text-anchor="middle" x="830" y="-99.8" font-family="Times,serif" font-size="14.00">TldrawWsService</text>
</g>
<!-- TldrawWsService&#45;&gt;TldrawWsModule -->
<g id="edge10" class="edge">
<title>TldrawWsService&#45;&gt;TldrawWsModule</title>
<path fill="none" stroke="black" d="M830,-122.11C830,-122.11 830,-140.99 830,-140.99"/>
<polygon fill="black" stroke="black" points="826.5,-140.99 830,-150.99 833.5,-140.99 826.5,-140.99"/>
</g>
<!-- YMongodb -->
<g id="node12" class="node">
<title>YMongodb</title>
<ellipse fill="#fdb462" stroke="black" cx="676" cy="-104" rx="55.63" ry="18"/>
<text text-anchor="middle" x="676" y="-99.8" font-family="Times,serif" font-size="14.00">YMongodb</text>
</g>
<!-- YMongodb&#45;&gt;TldrawWsModule -->
<g id="edge11" class="edge">
<title>YMongodb&#45;&gt;TldrawWsModule</title>
<path fill="none" stroke="black" d="M676,-122.24C676,-137.57 676,-157 676,-157 676,-157 760.46,-157 760.46,-157"/>
<polygon fill="black" stroke="black" points="760.46,-160.5 770.46,-157 760.46,-153.5 760.46,-160.5"/>
</g>
</g>
</svg>
