<?xml version="1.0" encoding="UTF-8" standalone="no"?>
<!DOCTYPE svg PUBLIC "-//W3C//DTD SVG 1.1//EN"
 "http://www.w3.org/Graphics/SVG/1.1/DTD/svg11.dtd">
<!-- Generated by graphviz version 5.0.0 (20220707.1540)
 -->
<!-- Title: dependencies Pages: 1 -->
<svg width="1648pt" height="247pt"
 viewBox="0.00 0.00 1648.00 246.80" xmlns="http://www.w3.org/2000/svg" xmlns:xlink="http://www.w3.org/1999/xlink">
<g id="graph0" class="graph" transform="scale(1 1) rotate(0) translate(4 242.8)">
<title>dependencies</title>
<polygon fill="white" stroke="transparent" points="-4,4 -4,-242.8 1644,-242.8 1644,4 -4,4"/>
<text text-anchor="middle" x="820" y="-8.2" font-family="sans-serif" font-size="14.00">dependencies</text>
<g id="clust1" class="cluster">
<title>cluster_LessonModule</title>
<polygon fill="none" stroke="black" stroke-dasharray="1,5" points="8,-32.8 8,-230.8 1632,-230.8 1632,-32.8 8,-32.8"/>
</g>
<g id="clust4" class="cluster">
<title>cluster_LessonModule_exports</title>
<polygon fill="none" stroke="black" points="759,-170.8 759,-222.8 1026,-222.8 1026,-170.8 759,-170.8"/>
</g>
<g id="clust3" class="cluster">
<title>cluster_LessonModule_imports</title>
<polygon fill="none" stroke="black" points="1076,-40.8 1076,-92.8 1624,-92.8 1624,-40.8 1076,-40.8"/>
</g>
<g id="clust6" class="cluster">
<title>cluster_LessonModule_providers</title>
<polygon fill="none" stroke="black" points="16,-40.8 16,-92.8 1068,-92.8 1068,-40.8 16,-40.8"/>
</g>
<!-- CopyHelperModule -->
<g id="node1" class="node">
<title>CopyHelperModule</title>
<polygon fill="#8dd3c7" stroke="black" points="1615.98,-84.8 1612.98,-88.8 1591.98,-88.8 1588.98,-84.8 1488.02,-84.8 1488.02,-48.8 1615.98,-48.8 1615.98,-84.8"/>
<text text-anchor="middle" x="1552" y="-62.6" font-family="Times,serif" font-size="14.00">CopyHelperModule</text>
</g>
<!-- LessonModule -->
<g id="node5" class="node">
<title>LessonModule</title>
<polygon fill="#8dd3c7" stroke="black" points="934.71,-149.8 931.71,-153.8 910.71,-153.8 907.71,-149.8 835.29,-149.8 835.29,-113.8 934.71,-113.8 934.71,-149.8"/>
<text text-anchor="middle" x="885" y="-127.6" font-family="Times,serif" font-size="14.00">LessonModule</text>
</g>
<!-- CopyHelperModule&#45;&gt;LessonModule -->
<g id="edge1" class="edge">
<title>CopyHelperModule&#45;&gt;LessonModule</title>
<path fill="none" stroke="black" d="M1552,-84.81C1552,-107.29 1552,-142.8 1552,-142.8 1552,-142.8 944.86,-142.8 944.86,-142.8"/>
<polygon fill="black" stroke="black" points="944.86,-139.3 934.86,-142.8 944.86,-146.3 944.86,-139.3"/>
</g>
<!-- FilesStorageClientModule -->
<g id="node2" class="node">
<title>FilesStorageClientModule</title>
<polygon fill="#8dd3c7" stroke="black" points="1469.77,-84.8 1466.77,-88.8 1445.77,-88.8 1442.77,-84.8 1306.23,-84.8 1306.23,-48.8 1469.77,-48.8 1469.77,-84.8"/>
<text text-anchor="middle" x="1388" y="-62.6" font-family="Times,serif" font-size="14.00">FilesStorageClientModule</text>
</g>
<!-- FilesStorageClientModule&#45;&gt;LessonModule -->
<g id="edge2" class="edge">
<title>FilesStorageClientModule&#45;&gt;LessonModule</title>
<path fill="none" stroke="black" d="M1388,-84.93C1388,-105.37 1388,-135.8 1388,-135.8 1388,-135.8 945.07,-135.8 945.07,-135.8"/>
<polygon fill="black" stroke="black" points="945.07,-132.3 935.07,-135.8 945.07,-139.3 945.07,-132.3"/>
</g>
<!-- LoggerModule -->
<g id="node3" class="node">
<title>LoggerModule</title>
<polygon fill="#8dd3c7" stroke="black" points="1287.98,-84.8 1284.98,-88.8 1263.98,-88.8 1260.98,-84.8 1188.02,-84.8 1188.02,-48.8 1287.98,-48.8 1287.98,-84.8"/>
<text text-anchor="middle" x="1238" y="-62.6" font-family="Times,serif" font-size="14.00">LoggerModule</text>
</g>
<!-- LoggerModule&#45;&gt;LessonModule -->
<g id="edge3" class="edge">
<title>LoggerModule&#45;&gt;LessonModule</title>
<path fill="none" stroke="black" d="M1238,-85.07C1238,-103.36 1238,-128.8 1238,-128.8 1238,-128.8 944.83,-128.8 944.83,-128.8"/>
<polygon fill="black" stroke="black" points="944.83,-125.3 934.83,-128.8 944.83,-132.3 944.83,-125.3"/>
</g>
<!-- TaskModule -->
<g id="node4" class="node">
<title>TaskModule</title>
<polygon fill="#8dd3c7" stroke="black" points="1170.27,-84.8 1167.27,-88.8 1146.27,-88.8 1143.27,-84.8 1083.73,-84.8 1083.73,-48.8 1170.27,-48.8 1170.27,-84.8"/>
<text text-anchor="middle" x="1127" y="-62.6" font-family="Times,serif" font-size="14.00">TaskModule</text>
</g>
<!-- TaskModule&#45;&gt;LessonModule -->
<g id="edge4" class="edge">
<title>TaskModule&#45;&gt;LessonModule</title>
<path fill="none" stroke="black" d="M1127,-84.81C1127,-100.85 1127,-121.8 1127,-121.8 1127,-121.8 944.85,-121.8 944.85,-121.8"/>
<polygon fill="black" stroke="black" points="944.85,-118.3 934.85,-121.8 944.85,-125.3 944.85,-118.3"/>
</g>
<!-- LessonCopyService  -->
<g id="node6" class="node">
<title>LessonCopyService </title>
<polygon fill="#fb8072" stroke="black" points="1017.98,-214.8 886.02,-214.8 886.02,-178.8 1017.98,-178.8 1017.98,-214.8"/>
<text text-anchor="middle" x="952" y="-192.6" font-family="Times,serif" font-size="14.00">LessonCopyService </text>
</g>
<!-- LessonModule&#45;&gt;LessonCopyService  -->
<g id="edge5" class="edge">
<title>LessonModule&#45;&gt;LessonCopyService </title>
<path fill="none" stroke="black" stroke-dasharray="5,2" d="M910.43,-149.91C910.43,-149.91 910.43,-168.79 910.43,-168.79"/>
<polygon fill="black" stroke="black" points="906.93,-168.79 910.43,-178.79 913.93,-168.79 906.93,-168.79"/>
</g>
<!-- LessonService  -->
<g id="node7" class="node">
<title>LessonService </title>
<polygon fill="#fb8072" stroke="black" points="868.64,-214.8 767.36,-214.8 767.36,-178.8 868.64,-178.8 868.64,-214.8"/>
<text text-anchor="middle" x="818" y="-192.6" font-family="Times,serif" font-size="14.00">LessonService </text>
</g>
<!-- LessonModule&#45;&gt;LessonService  -->
<g id="edge6" class="edge">
<title>LessonModule&#45;&gt;LessonService </title>
<path fill="none" stroke="black" stroke-dasharray="5,2" d="M851.98,-149.91C851.98,-149.91 851.98,-168.79 851.98,-168.79"/>
<polygon fill="black" stroke="black" points="848.48,-168.79 851.98,-178.79 855.48,-168.79 848.48,-168.79"/>
</g>
<!-- EtherpadService -->
<g id="node8" class="node">
<title>EtherpadService</title>
<ellipse fill="#fdb462" stroke="black" cx="985" cy="-66.8" rx="74.7" ry="18"/>
<text text-anchor="middle" x="985" y="-62.6" font-family="Times,serif" font-size="14.00">EtherpadService</text>
</g>
<!-- EtherpadService&#45;&gt;LessonModule -->
<g id="edge7" class="edge">
<title>EtherpadService&#45;&gt;LessonModule</title>
<path fill="none" stroke="black" d="M922.38,-76.67C922.38,-76.67 922.38,-103.71 922.38,-103.71"/>
<polygon fill="black" stroke="black" points="918.88,-103.71 922.38,-113.71 925.88,-103.71 918.88,-103.71"/>
</g>
<!-- FeathersServiceProvider -->
<g id="node9" class="node">
<title>FeathersServiceProvider</title>
<ellipse fill="#fdb462" stroke="black" cx="786" cy="-66.8" rx="105.93" ry="18"/>
<text text-anchor="middle" x="786" y="-62.6" font-family="Times,serif" font-size="14.00">FeathersServiceProvider</text>
</g>
<!-- FeathersServiceProvider&#45;&gt;LessonModule -->
<g id="edge8" class="edge">
<title>FeathersServiceProvider&#45;&gt;LessonModule</title>
<path fill="none" stroke="black" d="M863.68,-79.33C863.68,-79.33 863.68,-103.65 863.68,-103.65"/>
<polygon fill="black" stroke="black" points="860.18,-103.65 863.68,-113.65 867.18,-103.65 860.18,-103.65"/>
</g>
<!-- LessonCopyService -->
<g id="node10" class="node">
<title>LessonCopyService</title>
<ellipse fill="#fdb462" stroke="black" cx="574" cy="-66.8" rx="88.06" ry="18"/>
<text text-anchor="middle" x="574" y="-62.6" font-family="Times,serif" font-size="14.00">LessonCopyService</text>
</g>
<!-- LessonCopyService&#45;&gt;LessonModule -->
<g id="edge9" class="edge">
<title>LessonCopyService&#45;&gt;LessonModule</title>
<path fill="none" stroke="black" d="M574,-84.81C574,-100.85 574,-121.8 574,-121.8 574,-121.8 825.38,-121.8 825.38,-121.8"/>
<polygon fill="black" stroke="black" points="825.38,-125.3 835.38,-121.8 825.38,-118.3 825.38,-125.3"/>
</g>
<!-- LessonRepo -->
<g id="node11" class="node">
<title>LessonRepo</title>
<ellipse fill="#fdb462" stroke="black" cx="409" cy="-66.8" rx="58.56" ry="18"/>
<text text-anchor="middle" x="409" y="-62.6" font-family="Times,serif" font-size="14.00">LessonRepo</text>
</g>
<!-- LessonRepo&#45;&gt;LessonModule -->
<g id="edge10" class="edge">
<title>LessonRepo&#45;&gt;LessonModule</title>
<path fill="none" stroke="black" d="M409,-85.07C409,-103.36 409,-128.8 409,-128.8 409,-128.8 824.96,-128.8 824.96,-128.8"/>
<polygon fill="black" stroke="black" points="824.96,-132.3 834.96,-128.8 824.96,-125.3 824.96,-132.3"/>
</g>
<!-- LessonService -->
<g id="node12" class="node">
<title>LessonService</title>
<ellipse fill="#fdb462" stroke="black" cx="265" cy="-66.8" rx="67.2" ry="18"/>
<text text-anchor="middle" x="265" y="-62.6" font-family="Times,serif" font-size="14.00">LessonService</text>
</g>
<!-- LessonService&#45;&gt;LessonModule -->
<g id="edge11" class="edge">
<title>LessonService&#45;&gt;LessonModule</title>
<path fill="none" stroke="black" d="M265,-84.93C265,-105.37 265,-135.8 265,-135.8 265,-135.8 825.31,-135.8 825.31,-135.8"/>
<polygon fill="black" stroke="black" points="825.31,-139.3 835.31,-135.8 825.31,-132.3 825.31,-139.3"/>
</g>
<!-- NexboardService -->
<g id="node13" class="node">
<title>NexboardService</title>
<ellipse fill="#fdb462" stroke="black" cx="102" cy="-66.8" rx="78.14" ry="18"/>
<text text-anchor="middle" x="102" y="-62.6" font-family="Times,serif" font-size="14.00">NexboardService</text>
</g>
<!-- NexboardService&#45;&gt;LessonModule -->
<g id="edge12" class="edge">
<title>NexboardService&#45;&gt;LessonModule</title>
<path fill="none" stroke="black" d="M102,-84.81C102,-107.29 102,-142.8 102,-142.8 102,-142.8 825.13,-142.8 825.13,-142.8"/>
<polygon fill="black" stroke="black" points="825.13,-146.3 835.13,-142.8 825.13,-139.3 825.13,-146.3"/>
</g>
</g>
</svg>
