<?xml version="1.0" encoding="UTF-8" standalone="no"?>
<!DOCTYPE svg PUBLIC "-//W3C//DTD SVG 1.1//EN"
 "http://www.w3.org/Graphics/SVG/1.1/DTD/svg11.dtd">
<!-- Generated by graphviz version 2.47.0 (20210316.0004)
 -->
<!-- Title: dependencies Pages: 1 -->
<svg width="1648pt" height="284pt"
 viewBox="0.00 0.00 1648.00 284.00" xmlns="http://www.w3.org/2000/svg" xmlns:xlink="http://www.w3.org/1999/xlink">
<g id="graph0" class="graph" transform="scale(1 1) rotate(0) translate(4 280)">
<title>dependencies</title>
<polygon fill="white" stroke="transparent" points="-4,4 -4,-280 1644,-280 1644,4 -4,4"/>
<text text-anchor="start" x="799.01" y="-42.4" font-family="Times-12" font-weight="bold" font-size="14.00">Legend</text>
<polygon fill="#ffffb3" stroke="transparent" points="586,-10 586,-30 606,-30 606,-10 586,-10"/>
<text text-anchor="start" x="609.63" y="-15.4" font-family="Times-12" font-size="14.00"> &#160;Declarations</text>
<polygon fill="#8dd3c7" stroke="transparent" points="699,-10 699,-30 719,-30 719,-10 699,-10"/>
<text text-anchor="start" x="722.73" y="-15.4" font-family="Times-12" font-size="14.00"> &#160;Module</text>
<polygon fill="#80b1d3" stroke="transparent" points="785,-10 785,-30 805,-30 805,-10 785,-10"/>
<text text-anchor="start" x="808.78" y="-15.4" font-family="Times-12" font-size="14.00"> &#160;Bootstrap</text>
<polygon fill="#fdb462" stroke="transparent" points="882,-10 882,-30 902,-30 902,-10 882,-10"/>
<text text-anchor="start" x="905.67" y="-15.4" font-family="Times-12" font-size="14.00"> &#160;Providers</text>
<polygon fill="#fb8072" stroke="transparent" points="978,-10 978,-30 998,-30 998,-10 978,-10"/>
<text text-anchor="start" x="1001.73" y="-15.4" font-family="Times-12" font-size="14.00"> &#160;Exports</text>
<g id="clust1" class="cluster">
<title>cluster_LessonModule</title>
<polygon fill="none" stroke="black" stroke-dasharray="1,5" points="8,-70 8,-268 1632,-268 1632,-70 8,-70"/>
</g>
<g id="clust4" class="cluster">
<title>cluster_LessonModule_exports</title>
<polygon fill="none" stroke="black" points="759,-208 759,-260 1026,-260 1026,-208 759,-208"/>
</g>
<g id="clust3" class="cluster">
<title>cluster_LessonModule_imports</title>
<polygon fill="none" stroke="black" points="1076,-78 1076,-130 1624,-130 1624,-78 1076,-78"/>
</g>
<g id="clust6" class="cluster">
<title>cluster_LessonModule_providers</title>
<polygon fill="none" stroke="black" points="16,-78 16,-130 1068,-130 1068,-78 16,-78"/>
</g>
<!-- CopyHelperModule -->
<g id="node1" class="node">
<title>CopyHelperModule</title>
<polygon fill="#8dd3c7" stroke="black" points="1615.97,-122 1612.97,-126 1591.97,-126 1588.97,-122 1488.03,-122 1488.03,-86 1615.97,-86 1615.97,-122"/>
<text text-anchor="middle" x="1552" y="-99.8" font-family="Times,serif" font-size="14.00">CopyHelperModule</text>
</g>
<!-- LessonModule -->
<g id="node5" class="node">
<title>LessonModule</title>
<polygon fill="#8dd3c7" stroke="black" points="934.71,-187 931.71,-191 910.71,-191 907.71,-187 835.29,-187 835.29,-151 934.71,-151 934.71,-187"/>
<text text-anchor="middle" x="885" y="-164.8" font-family="Times,serif" font-size="14.00">LessonModule</text>
</g>
<!-- CopyHelperModule&#45;&gt;LessonModule -->
<g id="edge1" class="edge">
<title>CopyHelperModule&#45;&gt;LessonModule</title>
<path fill="none" stroke="black" d="M1552,-122.01C1552,-144.49 1552,-180 1552,-180 1552,-180 944.86,-180 944.86,-180"/>
<polygon fill="black" stroke="black" points="944.86,-176.5 934.86,-180 944.86,-183.5 944.86,-176.5"/>
</g>
<!-- FilesStorageClientModule -->
<g id="node2" class="node">
<title>FilesStorageClientModule</title>
<polygon fill="#8dd3c7" stroke="black" points="1469.76,-122 1466.76,-126 1445.76,-126 1442.76,-122 1306.24,-122 1306.24,-86 1469.76,-86 1469.76,-122"/>
<text text-anchor="middle" x="1388" y="-99.8" font-family="Times,serif" font-size="14.00">FilesStorageClientModule</text>
</g>
<!-- FilesStorageClientModule&#45;&gt;LessonModule -->
<g id="edge2" class="edge">
<title>FilesStorageClientModule&#45;&gt;LessonModule</title>
<path fill="none" stroke="black" d="M1388,-122.13C1388,-142.57 1388,-173 1388,-173 1388,-173 944.61,-173 944.61,-173"/>
<polygon fill="black" stroke="black" points="944.61,-169.5 934.61,-173 944.61,-176.5 944.61,-169.5"/>
</g>
<!-- LoggerModule -->
<g id="node3" class="node">
<title>LoggerModule</title>
<polygon fill="#8dd3c7" stroke="black" points="1287.98,-122 1284.98,-126 1263.98,-126 1260.98,-122 1188.02,-122 1188.02,-86 1287.98,-86 1287.98,-122"/>
<text text-anchor="middle" x="1238" y="-99.8" font-family="Times,serif" font-size="14.00">LoggerModule</text>
</g>
<!-- LoggerModule&#45;&gt;LessonModule -->
<g id="edge3" class="edge">
<title>LoggerModule&#45;&gt;LessonModule</title>
<path fill="none" stroke="black" d="M1238,-122.27C1238,-140.56 1238,-166 1238,-166 1238,-166 944.83,-166 944.83,-166"/>
<polygon fill="black" stroke="black" points="944.83,-162.5 934.83,-166 944.83,-169.5 944.83,-162.5"/>
</g>
<!-- TaskModule -->
<g id="node4" class="node">
<title>TaskModule</title>
<polygon fill="#8dd3c7" stroke="black" points="1170.26,-122 1167.26,-126 1146.26,-126 1143.26,-122 1083.74,-122 1083.74,-86 1170.26,-86 1170.26,-122"/>
<text text-anchor="middle" x="1127" y="-99.8" font-family="Times,serif" font-size="14.00">TaskModule</text>
</g>
<!-- TaskModule&#45;&gt;LessonModule -->
<g id="edge4" class="edge">
<title>TaskModule&#45;&gt;LessonModule</title>
<path fill="none" stroke="black" d="M1127,-122.01C1127,-138.05 1127,-159 1127,-159 1127,-159 944.85,-159 944.85,-159"/>
<polygon fill="black" stroke="black" points="944.85,-155.5 934.85,-159 944.85,-162.5 944.85,-155.5"/>
</g>
<!-- LessonCopyService  -->
<g id="node6" class="node">
<title>LessonCopyService </title>
<polygon fill="#fb8072" stroke="black" points="1017.97,-252 886.03,-252 886.03,-216 1017.97,-216 1017.97,-252"/>
<text text-anchor="middle" x="952" y="-229.8" font-family="Times,serif" font-size="14.00">LessonCopyService </text>
</g>
<!-- LessonModule&#45;&gt;LessonCopyService  -->
<g id="edge5" class="edge">
<title>LessonModule&#45;&gt;LessonCopyService </title>
<path fill="none" stroke="black" stroke-dasharray="5,2" d="M910.43,-187.11C910.43,-187.11 910.43,-205.99 910.43,-205.99"/>
<polygon fill="black" stroke="black" points="906.93,-205.99 910.43,-215.99 913.93,-205.99 906.93,-205.99"/>
</g>
<!-- LessonService  -->
<g id="node7" class="node">
<title>LessonService </title>
<polygon fill="#fb8072" stroke="black" points="868.63,-252 767.37,-252 767.37,-216 868.63,-216 868.63,-252"/>
<text text-anchor="middle" x="818" y="-229.8" font-family="Times,serif" font-size="14.00">LessonService </text>
</g>
<!-- LessonModule&#45;&gt;LessonService  -->
<g id="edge6" class="edge">
<title>LessonModule&#45;&gt;LessonService </title>
<path fill="none" stroke="black" stroke-dasharray="5,2" d="M851.98,-187.11C851.98,-187.11 851.98,-205.99 851.98,-205.99"/>
<polygon fill="black" stroke="black" points="848.48,-205.99 851.98,-215.99 855.48,-205.99 848.48,-205.99"/>
</g>
<!-- EtherpadService -->
<g id="node8" class="node">
<title>EtherpadService</title>
<ellipse fill="#fdb462" stroke="black" cx="985" cy="-104" rx="74.7" ry="18"/>
<text text-anchor="middle" x="985" y="-99.8" font-family="Times,serif" font-size="14.00">EtherpadService</text>
</g>
<!-- EtherpadService&#45;&gt;LessonModule -->
<g id="edge7" class="edge">
<title>EtherpadService&#45;&gt;LessonModule</title>
<path fill="none" stroke="black" d="M922.38,-113.87C922.38,-113.87 922.38,-140.91 922.38,-140.91"/>
<polygon fill="black" stroke="black" points="918.88,-140.91 922.38,-150.91 925.88,-140.91 918.88,-140.91"/>
</g>
<!-- FeathersServiceProvider -->
<g id="node9" class="node">
<title>FeathersServiceProvider</title>
<ellipse fill="#fdb462" stroke="black" cx="786" cy="-104" rx="105.91" ry="18"/>
<text text-anchor="middle" x="786" y="-99.8" font-family="Times,serif" font-size="14.00">FeathersServiceProvider</text>
</g>
<!-- FeathersServiceProvider&#45;&gt;LessonModule -->
<g id="edge8" class="edge">
<title>FeathersServiceProvider&#45;&gt;LessonModule</title>
<path fill="none" stroke="black" d="M863.68,-116.53C863.68,-116.53 863.68,-140.85 863.68,-140.85"/>
<polygon fill="black" stroke="black" points="860.18,-140.85 863.68,-150.85 867.18,-140.85 860.18,-140.85"/>
</g>
<!-- LessonCopyService -->
<g id="node10" class="node">
<title>LessonCopyService</title>
<ellipse fill="#fdb462" stroke="black" cx="574" cy="-104" rx="88.04" ry="18"/>
<text text-anchor="middle" x="574" y="-99.8" font-family="Times,serif" font-size="14.00">LessonCopyService</text>
</g>
<!-- LessonCopyService&#45;&gt;LessonModule -->
<g id="edge9" class="edge">
<title>LessonCopyService&#45;&gt;LessonModule</title>
<path fill="none" stroke="black" d="M574,-122.01C574,-138.05 574,-159 574,-159 574,-159 825.38,-159 825.38,-159"/>
<polygon fill="black" stroke="black" points="825.38,-162.5 835.38,-159 825.38,-155.5 825.38,-162.5"/>
</g>
<!-- LessonRepo -->
<g id="node11" class="node">
<title>LessonRepo</title>
<ellipse fill="#fdb462" stroke="black" cx="409" cy="-104" rx="58.55" ry="18"/>
<text text-anchor="middle" x="409" y="-99.8" font-family="Times,serif" font-size="14.00">LessonRepo</text>
</g>
<!-- LessonRepo&#45;&gt;LessonModule -->
<g id="edge10" class="edge">
<title>LessonRepo&#45;&gt;LessonModule</title>
<path fill="none" stroke="black" d="M409,-122.27C409,-140.56 409,-166 409,-166 409,-166 824.96,-166 824.96,-166"/>
<polygon fill="black" stroke="black" points="824.96,-169.5 834.96,-166 824.96,-162.5 824.96,-169.5"/>
</g>
<!-- LessonService -->
<g id="node12" class="node">
<title>LessonService</title>
<ellipse fill="#fdb462" stroke="black" cx="265" cy="-104" rx="67.19" ry="18"/>
<text text-anchor="middle" x="265" y="-99.8" font-family="Times,serif" font-size="14.00">LessonService</text>
</g>
<!-- LessonService&#45;&gt;LessonModule -->
<g id="edge11" class="edge">
<title>LessonService&#45;&gt;LessonModule</title>
<path fill="none" stroke="black" d="M265,-122.13C265,-142.57 265,-173 265,-173 265,-173 825.31,-173 825.31,-173"/>
<polygon fill="black" stroke="black" points="825.31,-176.5 835.31,-173 825.31,-169.5 825.31,-176.5"/>
</g>
<!-- NexboardService -->
<g id="node13" class="node">
<title>NexboardService</title>
<ellipse fill="#fdb462" stroke="black" cx="102" cy="-104" rx="78.13" ry="18"/>
<text text-anchor="middle" x="102" y="-99.8" font-family="Times,serif" font-size="14.00">NexboardService</text>
</g>
<!-- NexboardService&#45;&gt;LessonModule -->
<g id="edge12" class="edge">
<title>NexboardService&#45;&gt;LessonModule</title>
<path fill="none" stroke="black" d="M102,-122.01C102,-144.49 102,-180 102,-180 102,-180 825.13,-180 825.13,-180"/>
<polygon fill="black" stroke="black" points="825.13,-183.5 835.13,-180 825.13,-176.5 825.13,-183.5"/>
</g>
</g>
</svg>
