<?xml version="1.0" encoding="UTF-8" standalone="no"?>
<!DOCTYPE svg PUBLIC "-//W3C//DTD SVG 1.1//EN"
 "http://www.w3.org/Graphics/SVG/1.1/DTD/svg11.dtd">
<!-- Generated by graphviz version 5.0.0 (20220707.1540)
 -->
<!-- Title: dependencies Pages: 1 -->
<svg width="1648pt" height="247pt"
 viewBox="0.00 0.00 1648.00 246.80" xmlns="http://www.w3.org/2000/svg" xmlns:xlink="http://www.w3.org/1999/xlink">
<g id="graph0" class="graph" transform="scale(1 1) rotate(0) translate(4 242.8)">
<title>dependencies</title>
<polygon fill="white" stroke="transparent" points="-4,4 -4,-242.8 1644,-242.8 1644,4 -4,4"/>
<text text-anchor="middle" x="820" y="-8.2" font-family="sans-serif" font-size="14.00">dependencies</text>
<g id="clust1" class="cluster">
<title>cluster_LessonModule</title>
<polygon fill="none" stroke="black" stroke-dasharray="1,5" points="8,-32.8 8,-230.8 1632,-230.8 1632,-32.8 8,-32.8"/>
</g>
<g id="clust6" class="cluster">
<title>cluster_LessonModule_providers</title>
<polygon fill="none" stroke="black" points="572,-40.8 572,-92.8 1624,-92.8 1624,-40.8 572,-40.8"/>
</g>
<g id="clust3" class="cluster">
<title>cluster_LessonModule_imports</title>
<polygon fill="none" stroke="black" points="16,-40.8 16,-92.8 564,-92.8 564,-40.8 16,-40.8"/>
</g>
<g id="clust4" class="cluster">
<title>cluster_LessonModule_exports</title>
<polygon fill="none" stroke="black" points="613,-170.8 613,-222.8 880,-222.8 880,-170.8 613,-170.8"/>
</g>
<!-- CopyHelperModule -->
<g id="node1" class="node">
<title>CopyHelperModule</title>
<polygon fill="#8dd3c7" stroke="black" points="555.98,-84.8 552.98,-88.8 531.98,-88.8 528.98,-84.8 428.02,-84.8 428.02,-48.8 555.98,-48.8 555.98,-84.8"/>
<text text-anchor="middle" x="492" y="-62.6" font-family="Times,serif" font-size="14.00">CopyHelperModule</text>
</g>
<!-- LessonModule -->
<g id="node5" class="node">
<title>LessonModule</title>
<polygon fill="#8dd3c7" stroke="black" points="788.71,-149.8 785.71,-153.8 764.71,-153.8 761.71,-149.8 689.29,-149.8 689.29,-113.8 788.71,-113.8 788.71,-149.8"/>
<text text-anchor="middle" x="739" y="-127.6" font-family="Times,serif" font-size="14.00">LessonModule</text>
</g>
<!-- CopyHelperModule&#45;&gt;LessonModule -->
<g id="edge1" class="edge">
<title>CopyHelperModule&#45;&gt;LessonModule</title>
<path fill="none" stroke="black" d="M492,-84.81C492,-100.85 492,-121.8 492,-121.8 492,-121.8 679.31,-121.8 679.31,-121.8"/>
<polygon fill="black" stroke="black" points="679.31,-125.3 689.31,-121.8 679.31,-118.3 679.31,-125.3"/>
</g>
<!-- FilesStorageClientModule -->
<g id="node2" class="node">
<title>FilesStorageClientModule</title>
<polygon fill="#8dd3c7" stroke="black" points="409.77,-84.8 406.77,-88.8 385.77,-88.8 382.77,-84.8 246.23,-84.8 246.23,-48.8 409.77,-48.8 409.77,-84.8"/>
<text text-anchor="middle" x="328" y="-62.6" font-family="Times,serif" font-size="14.00">FilesStorageClientModule</text>
</g>
<!-- FilesStorageClientModule&#45;&gt;LessonModule -->
<g id="edge2" class="edge">
<title>FilesStorageClientModule&#45;&gt;LessonModule</title>
<path fill="none" stroke="black" d="M328,-85.07C328,-103.36 328,-128.8 328,-128.8 328,-128.8 679.01,-128.8 679.01,-128.8"/>
<polygon fill="black" stroke="black" points="679.01,-132.3 689.01,-128.8 679.01,-125.3 679.01,-132.3"/>
</g>
<!-- LoggerModule -->
<g id="node3" class="node">
<title>LoggerModule</title>
<polygon fill="#8dd3c7" stroke="black" points="227.98,-84.8 224.98,-88.8 203.98,-88.8 200.98,-84.8 128.02,-84.8 128.02,-48.8 227.98,-48.8 227.98,-84.8"/>
<text text-anchor="middle" x="178" y="-62.6" font-family="Times,serif" font-size="14.00">LoggerModule</text>
</g>
<!-- LoggerModule&#45;&gt;LessonModule -->
<g id="edge3" class="edge">
<title>LoggerModule&#45;&gt;LessonModule</title>
<path fill="none" stroke="black" d="M178,-84.93C178,-105.37 178,-135.8 178,-135.8 178,-135.8 679.21,-135.8 679.21,-135.8"/>
<polygon fill="black" stroke="black" points="679.22,-139.3 689.21,-135.8 679.21,-132.3 679.22,-139.3"/>
</g>
<!-- TaskModule -->
<g id="node4" class="node">
<title>TaskModule</title>
<polygon fill="#8dd3c7" stroke="black" points="110.27,-84.8 107.27,-88.8 86.27,-88.8 83.27,-84.8 23.73,-84.8 23.73,-48.8 110.27,-48.8 110.27,-84.8"/>
<text text-anchor="middle" x="67" y="-62.6" font-family="Times,serif" font-size="14.00">TaskModule</text>
</g>
<!-- TaskModule&#45;&gt;LessonModule -->
<g id="edge4" class="edge">
<title>TaskModule&#45;&gt;LessonModule</title>
<path fill="none" stroke="black" d="M67,-84.81C67,-107.29 67,-142.8 67,-142.8 67,-142.8 679.31,-142.8 679.31,-142.8"/>
<polygon fill="black" stroke="black" points="679.31,-146.3 689.31,-142.8 679.31,-139.3 679.31,-146.3"/>
</g>
<!-- LessonCopyService  -->
<g id="node6" class="node">
<title>LessonCopyService </title>
<polygon fill="#fb8072" stroke="black" points="871.98,-214.8 740.02,-214.8 740.02,-178.8 871.98,-178.8 871.98,-214.8"/>
<text text-anchor="middle" x="806" y="-192.6" font-family="Times,serif" font-size="14.00">LessonCopyService </text>
</g>
<!-- LessonModule&#45;&gt;LessonCopyService  -->
<g id="edge5" class="edge">
<title>LessonModule&#45;&gt;LessonCopyService </title>
<path fill="none" stroke="black" stroke-dasharray="5,2" d="M764.43,-149.91C764.43,-149.91 764.43,-168.79 764.43,-168.79"/>
<polygon fill="black" stroke="black" points="760.93,-168.79 764.43,-178.79 767.93,-168.79 760.93,-168.79"/>
</g>
<!-- LessonService  -->
<g id="node7" class="node">
<title>LessonService </title>
<polygon fill="#fb8072" stroke="black" points="722.64,-214.8 621.36,-214.8 621.36,-178.8 722.64,-178.8 722.64,-214.8"/>
<text text-anchor="middle" x="672" y="-192.6" font-family="Times,serif" font-size="14.00">LessonService </text>
</g>
<!-- LessonModule&#45;&gt;LessonService  -->
<g id="edge6" class="edge">
<title>LessonModule&#45;&gt;LessonService </title>
<path fill="none" stroke="black" stroke-dasharray="5,2" d="M705.98,-149.91C705.98,-149.91 705.98,-168.79 705.98,-168.79"/>
<polygon fill="black" stroke="black" points="702.48,-168.79 705.98,-178.79 709.48,-168.79 702.48,-168.79"/>
</g>
<!-- EtherpadService -->
<g id="node8" class="node">
<title>EtherpadService</title>
<ellipse fill="#fdb462" stroke="black" cx="1541" cy="-66.8" rx="74.7" ry="18"/>
<text text-anchor="middle" x="1541" y="-62.6" font-family="Times,serif" font-size="14.00">EtherpadService</text>
</g>
<!-- EtherpadService&#45;&gt;LessonModule -->
<g id="edge7" class="edge">
<title>EtherpadService&#45;&gt;LessonModule</title>
<path fill="none" stroke="black" d="M1541,-84.81C1541,-107.29 1541,-142.8 1541,-142.8 1541,-142.8 798.87,-142.8 798.87,-142.8"/>
<polygon fill="black" stroke="black" points="798.87,-139.3 788.87,-142.8 798.87,-146.3 798.87,-139.3"/>
</g>
<!-- FeathersServiceProvider -->
<g id="node9" class="node">
<title>FeathersServiceProvider</title>
<ellipse fill="#fdb462" stroke="black" cx="1342" cy="-66.8" rx="105.93" ry="18"/>
<text text-anchor="middle" x="1342" y="-62.6" font-family="Times,serif" font-size="14.00">FeathersServiceProvider</text>
</g>
<!-- FeathersServiceProvider&#45;&gt;LessonModule -->
<g id="edge8" class="edge">
<title>FeathersServiceProvider&#45;&gt;LessonModule</title>
<path fill="none" stroke="black" d="M1342,-84.93C1342,-105.37 1342,-135.8 1342,-135.8 1342,-135.8 798.86,-135.8 798.86,-135.8"/>
<polygon fill="black" stroke="black" points="798.86,-132.3 788.86,-135.8 798.86,-139.3 798.86,-132.3"/>
</g>
<!-- LessonCopyService -->
<g id="node10" class="node">
<title>LessonCopyService</title>
<ellipse fill="#fdb462" stroke="black" cx="1130" cy="-66.8" rx="88.06" ry="18"/>
<text text-anchor="middle" x="1130" y="-62.6" font-family="Times,serif" font-size="14.00">LessonCopyService</text>
</g>
<!-- LessonCopyService&#45;&gt;LessonModule -->
<g id="edge9" class="edge">
<title>LessonCopyService&#45;&gt;LessonModule</title>
<path fill="none" stroke="black" d="M1130,-85.07C1130,-103.36 1130,-128.8 1130,-128.8 1130,-128.8 798.92,-128.8 798.92,-128.8"/>
<polygon fill="black" stroke="black" points="798.92,-125.3 788.92,-128.8 798.92,-132.3 798.92,-125.3"/>
</g>
<!-- LessonRepo -->
<g id="node11" class="node">
<title>LessonRepo</title>
<ellipse fill="#fdb462" stroke="black" cx="965" cy="-66.8" rx="58.56" ry="18"/>
<text text-anchor="middle" x="965" y="-62.6" font-family="Times,serif" font-size="14.00">LessonRepo</text>
</g>
<!-- LessonRepo&#45;&gt;LessonModule -->
<g id="edge10" class="edge">
<title>LessonRepo&#45;&gt;LessonModule</title>
<path fill="none" stroke="black" d="M965,-84.81C965,-100.85 965,-121.8 965,-121.8 965,-121.8 798.88,-121.8 798.88,-121.8"/>
<polygon fill="black" stroke="black" points="798.88,-118.3 788.88,-121.8 798.88,-125.3 798.88,-118.3"/>
</g>
<!-- LessonService -->
<g id="node12" class="node">
<title>LessonService</title>
<ellipse fill="#fdb462" stroke="black" cx="821" cy="-66.8" rx="67.2" ry="18"/>
<text text-anchor="middle" x="821" y="-62.6" font-family="Times,serif" font-size="14.00">LessonService</text>
</g>
<!-- LessonService&#45;&gt;LessonModule -->
<g id="edge11" class="edge">
<title>LessonService&#45;&gt;LessonModule</title>
<path fill="none" stroke="black" d="M771.13,-79.03C771.13,-79.03 771.13,-103.48 771.13,-103.48"/>
<polygon fill="black" stroke="black" points="767.63,-103.48 771.13,-113.48 774.63,-103.48 767.63,-103.48"/>
</g>
<!-- NexboardService -->
<g id="node13" class="node">
<title>NexboardService</title>
<ellipse fill="#fdb462" stroke="black" cx="658" cy="-66.8" rx="78.14" ry="18"/>
<text text-anchor="middle" x="658" y="-62.6" font-family="Times,serif" font-size="14.00">NexboardService</text>
</g>
<!-- NexboardService&#45;&gt;LessonModule -->
<g id="edge12" class="edge">
<title>NexboardService&#45;&gt;LessonModule</title>
<path fill="none" stroke="black" d="M712.73,-79.64C712.73,-79.64 712.73,-103.32 712.73,-103.32"/>
<polygon fill="black" stroke="black" points="709.23,-103.32 712.73,-113.32 716.23,-103.32 709.23,-103.32"/>
</g>
</g>
</svg>
