<?xml version="1.0" encoding="UTF-8" standalone="no"?>
<!DOCTYPE svg PUBLIC "-//W3C//DTD SVG 1.1//EN"
 "http://www.w3.org/Graphics/SVG/1.1/DTD/svg11.dtd">
<!-- Generated by graphviz version 2.47.0 (20210316.0004)
 -->
<!-- Title: dependencies Pages: 1 -->
<svg width="582pt" height="284pt"
 viewBox="0.00 0.00 582.00 284.00" xmlns="http://www.w3.org/2000/svg" xmlns:xlink="http://www.w3.org/1999/xlink">
<g id="graph0" class="graph" transform="scale(1 1) rotate(0) translate(4 280)">
<title>dependencies</title>
<polygon fill="white" stroke="transparent" points="-4,4 -4,-280 578,-280 578,4 -4,4"/>
<text text-anchor="start" x="266.01" y="-42.4" font-family="Times-12" font-weight="bold" font-size="14.00">Legend</text>
<polygon fill="#ffffb3" stroke="transparent" points="53,-10 53,-30 73,-30 73,-10 53,-10"/>
<text text-anchor="start" x="76.63" y="-15.4" font-family="Times-12" font-size="14.00"> &#160;Declarations</text>
<polygon fill="#8dd3c7" stroke="transparent" points="166,-10 166,-30 186,-30 186,-10 166,-10"/>
<text text-anchor="start" x="189.73" y="-15.4" font-family="Times-12" font-size="14.00"> &#160;Module</text>
<polygon fill="#80b1d3" stroke="transparent" points="252,-10 252,-30 272,-30 272,-10 252,-10"/>
<text text-anchor="start" x="275.78" y="-15.4" font-family="Times-12" font-size="14.00"> &#160;Bootstrap</text>
<polygon fill="#fdb462" stroke="transparent" points="349,-10 349,-30 369,-30 369,-10 349,-10"/>
<text text-anchor="start" x="372.67" y="-15.4" font-family="Times-12" font-size="14.00"> &#160;Providers</text>
<polygon fill="#fb8072" stroke="transparent" points="445,-10 445,-30 465,-30 465,-10 445,-10"/>
<text text-anchor="start" x="468.73" y="-15.4" font-family="Times-12" font-size="14.00"> &#160;Exports</text>
<g id="clust1" class="cluster">
<title>cluster_RegistrationPinModule</title>
<polygon fill="none" stroke="black" stroke-dasharray="1,5" points="8,-70 8,-268 566,-268 566,-70 8,-70"/>
</g>
<g id="clust3" class="cluster">
<title>cluster_RegistrationPinModule_imports</title>
<polygon fill="none" stroke="black" points="442,-78 442,-130 558,-130 558,-78 442,-78"/>
</g>
<g id="clust6" class="cluster">
<title>cluster_RegistrationPinModule_providers</title>
<polygon fill="none" stroke="black" points="16,-78 16,-130 434,-130 434,-78 16,-78"/>
</g>
<g id="clust4" class="cluster">
<title>cluster_RegistrationPinModule_exports</title>
<polygon fill="none" stroke="black" points="252,-208 252,-260 416,-260 416,-208 252,-208"/>
</g>
<!-- LoggerModule -->
<g id="node1" class="node">
<title>LoggerModule</title>
<polygon fill="#8dd3c7" stroke="black" points="549.98,-122 546.98,-126 525.98,-126 522.98,-122 450.02,-122 450.02,-86 549.98,-86 549.98,-122"/>
<text text-anchor="middle" x="500" y="-99.8" font-family="Times,serif" font-size="14.00">LoggerModule</text>
</g>
<!-- RegistrationPinModule -->
<g id="node2" class="node">
<title>RegistrationPinModule</title>
<polygon fill="#8dd3c7" stroke="black" points="407.16,-187 404.16,-191 383.16,-191 380.16,-187 260.84,-187 260.84,-151 407.16,-151 407.16,-187"/>
<text text-anchor="middle" x="334" y="-164.8" font-family="Times,serif" font-size="14.00">RegistrationPinModule</text>
</g>
<!-- LoggerModule&#45;&gt;RegistrationPinModule -->
<g id="edge1" class="edge">
<title>LoggerModule&#45;&gt;RegistrationPinModule</title>
<path fill="none" stroke="black" d="M500,-122.11C500,-141.34 500,-169 500,-169 500,-169 417.29,-169 417.29,-169"/>
<polygon fill="black" stroke="black" points="417.29,-165.5 407.29,-169 417.29,-172.5 417.29,-165.5"/>
</g>
<!-- RegistrationPinService  -->
<g id="node3" class="node">
<title>RegistrationPinService </title>
<polygon fill="#fb8072" stroke="black" points="408.08,-252 259.92,-252 259.92,-216 408.08,-216 408.08,-252"/>
<text text-anchor="middle" x="334" y="-229.8" font-family="Times,serif" font-size="14.00">RegistrationPinService </text>
</g>
<!-- RegistrationPinModule&#45;&gt;RegistrationPinService  -->
<g id="edge2" class="edge">
<title>RegistrationPinModule&#45;&gt;RegistrationPinService </title>
<path fill="none" stroke="black" stroke-dasharray="5,2" d="M334,-187.11C334,-187.11 334,-205.99 334,-205.99"/>
<polygon fill="black" stroke="black" points="330.5,-205.99 334,-215.99 337.5,-205.99 330.5,-205.99"/>
</g>
<!-- RegistrationPinRepo -->
<g id="node4" class="node">
<title>RegistrationPinRepo</title>
<ellipse fill="#fdb462" stroke="black" cx="334" cy="-104" rx="91.51" ry="18"/>
<text text-anchor="middle" x="334" y="-99.8" font-family="Times,serif" font-size="14.00">RegistrationPinRepo</text>
</g>
<!-- RegistrationPinRepo&#45;&gt;RegistrationPinModule -->
<g id="edge3" class="edge">
<title>RegistrationPinRepo&#45;&gt;RegistrationPinModule</title>
<path fill="none" stroke="black" d="M334,-122.11C334,-122.11 334,-140.99 334,-140.99"/>
<polygon fill="black" stroke="black" points="330.5,-140.99 334,-150.99 337.5,-140.99 330.5,-140.99"/>
</g>
<!-- RegistrationPinService -->
<g id="node5" class="node">
<title>RegistrationPinService</title>
<ellipse fill="#fdb462" stroke="black" cx="124" cy="-104" rx="100.15" ry="18"/>
<text text-anchor="middle" x="124" y="-99.8" font-family="Times,serif" font-size="14.00">RegistrationPinService</text>
</g>
<!-- RegistrationPinService&#45;&gt;RegistrationPinModule -->
<g id="edge4" class="edge">
<title>RegistrationPinService&#45;&gt;RegistrationPinModule</title>
<path fill="none" stroke="black" d="M124,-122.11C124,-141.34 124,-169 124,-169 124,-169 250.55,-169 250.55,-169"/>
<polygon fill="black" stroke="black" points="250.55,-172.5 260.55,-169 250.55,-165.5 250.55,-172.5"/>
</g>
</g>
</svg>
