<?xml version="1.0" encoding="UTF-8" standalone="no"?>
<!DOCTYPE svg PUBLIC "-//W3C//DTD SVG 1.1//EN"
 "http://www.w3.org/Graphics/SVG/1.1/DTD/svg11.dtd">
<!-- Generated by graphviz version 2.47.0 (20210316.0004)
 -->
<!-- Title: dependencies Pages: 1 -->
<svg width="582pt" height="284pt"
 viewBox="0.00 0.00 582.00 284.00" xmlns="http://www.w3.org/2000/svg" xmlns:xlink="http://www.w3.org/1999/xlink">
<g id="graph0" class="graph" transform="scale(1 1) rotate(0) translate(4 280)">
<title>dependencies</title>
<polygon fill="white" stroke="transparent" points="-4,4 -4,-280 578,-280 578,4 -4,4"/>
<text text-anchor="start" x="266.01" y="-42.4" font-family="Times-12" font-weight="bold" font-size="14.00">Legend</text>
<polygon fill="#ffffb3" stroke="transparent" points="53,-10 53,-30 73,-30 73,-10 53,-10"/>
<text text-anchor="start" x="76.63" y="-15.4" font-family="Times-12" font-size="14.00"> &#160;Declarations</text>
<polygon fill="#8dd3c7" stroke="transparent" points="166,-10 166,-30 186,-30 186,-10 166,-10"/>
<text text-anchor="start" x="189.73" y="-15.4" font-family="Times-12" font-size="14.00"> &#160;Module</text>
<polygon fill="#80b1d3" stroke="transparent" points="252,-10 252,-30 272,-30 272,-10 252,-10"/>
<text text-anchor="start" x="275.78" y="-15.4" font-family="Times-12" font-size="14.00"> &#160;Bootstrap</text>
<polygon fill="#fdb462" stroke="transparent" points="349,-10 349,-30 369,-30 369,-10 349,-10"/>
<text text-anchor="start" x="372.67" y="-15.4" font-family="Times-12" font-size="14.00"> &#160;Providers</text>
<polygon fill="#fb8072" stroke="transparent" points="445,-10 445,-30 465,-30 465,-10 445,-10"/>
<text text-anchor="start" x="468.73" y="-15.4" font-family="Times-12" font-size="14.00"> &#160;Exports</text>
<g id="clust1" class="cluster">
<title>cluster_RegistrationPinModule</title>
<polygon fill="none" stroke="black" stroke-dasharray="1,5" points="8,-70 8,-268 566,-268 566,-70 8,-70"/>
</g>
<g id="clust4" class="cluster">
<title>cluster_RegistrationPinModule_exports</title>
<polygon fill="none" stroke="black" points="166,-208 166,-260 330,-260 330,-208 166,-208"/>
</g>
<g id="clust6" class="cluster">
<title>cluster_RegistrationPinModule_providers</title>
<polygon fill="none" stroke="black" points="140,-78 140,-130 558,-130 558,-78 140,-78"/>
</g>
<g id="clust3" class="cluster">
<title>cluster_RegistrationPinModule_imports</title>
<polygon fill="none" stroke="black" points="16,-78 16,-130 132,-130 132,-78 16,-78"/>
</g>
<!-- LoggerModule -->
<g id="node1" class="node">
<title>LoggerModule</title>
<polygon fill="#8dd3c7" stroke="black" points="123.98,-122 120.98,-126 99.98,-126 96.98,-122 24.02,-122 24.02,-86 123.98,-86 123.98,-122"/>
<text text-anchor="middle" x="74" y="-99.8" font-family="Times,serif" font-size="14.00">LoggerModule</text>
</g>
<!-- RegistrationPinModule -->
<g id="node2" class="node">
<title>RegistrationPinModule</title>
<polygon fill="#8dd3c7" stroke="black" points="321.16,-187 318.16,-191 297.16,-191 294.16,-187 174.84,-187 174.84,-151 321.16,-151 321.16,-187"/>
<text text-anchor="middle" x="248" y="-164.8" font-family="Times,serif" font-size="14.00">RegistrationPinModule</text>
</g>
<!-- LoggerModule&#45;&gt;RegistrationPinModule -->
<g id="edge1" class="edge">
<title>LoggerModule&#45;&gt;RegistrationPinModule</title>
<path fill="none" stroke="black" d="M74,-122.11C74,-141.34 74,-169 74,-169 74,-169 164.71,-169 164.71,-169"/>
<polygon fill="black" stroke="black" points="164.71,-172.5 174.71,-169 164.71,-165.5 164.71,-172.5"/>
</g>
<!-- RegistrationPinService  -->
<g id="node3" class="node">
<title>RegistrationPinService </title>
<polygon fill="#fb8072" stroke="black" points="322.08,-252 173.92,-252 173.92,-216 322.08,-216 322.08,-252"/>
<text text-anchor="middle" x="248" y="-229.8" font-family="Times,serif" font-size="14.00">RegistrationPinService </text>
</g>
<!-- RegistrationPinModule&#45;&gt;RegistrationPinService  -->
<g id="edge2" class="edge">
<title>RegistrationPinModule&#45;&gt;RegistrationPinService </title>
<path fill="none" stroke="black" stroke-dasharray="5,2" d="M248,-187.11C248,-187.11 248,-205.99 248,-205.99"/>
<polygon fill="black" stroke="black" points="244.5,-205.99 248,-215.99 251.5,-205.99 244.5,-205.99"/>
</g>
<!-- RegistrationPinRepo -->
<g id="node4" class="node">
<title>RegistrationPinRepo</title>
<ellipse fill="#fdb462" stroke="black" cx="458" cy="-104" rx="91.51" ry="18"/>
<text text-anchor="middle" x="458" y="-99.8" font-family="Times,serif" font-size="14.00">RegistrationPinRepo</text>
</g>
<!-- RegistrationPinRepo&#45;&gt;RegistrationPinModule -->
<g id="edge3" class="edge">
<title>RegistrationPinRepo&#45;&gt;RegistrationPinModule</title>
<path fill="none" stroke="black" d="M458,-122.11C458,-141.34 458,-169 458,-169 458,-169 331.45,-169 331.45,-169"/>
<polygon fill="black" stroke="black" points="331.45,-165.5 321.45,-169 331.45,-172.5 331.45,-165.5"/>
</g>
<!-- RegistrationPinService -->
<g id="node5" class="node">
<title>RegistrationPinService</title>
<ellipse fill="#fdb462" stroke="black" cx="248" cy="-104" rx="100.15" ry="18"/>
<text text-anchor="middle" x="248" y="-99.8" font-family="Times,serif" font-size="14.00">RegistrationPinService</text>
</g>
<!-- RegistrationPinService&#45;&gt;RegistrationPinModule -->
<g id="edge4" class="edge">
<title>RegistrationPinService&#45;&gt;RegistrationPinModule</title>
<path fill="none" stroke="black" d="M248,-122.11C248,-122.11 248,-140.99 248,-140.99"/>
<polygon fill="black" stroke="black" points="244.5,-140.99 248,-150.99 251.5,-140.99 244.5,-140.99"/>
</g>
</g>
</svg>
