<?xml version="1.0" encoding="UTF-8" standalone="no"?>
<!DOCTYPE svg PUBLIC "-//W3C//DTD SVG 1.1//EN"
 "http://www.w3.org/Graphics/SVG/1.1/DTD/svg11.dtd">
<!-- Generated by graphviz version 2.47.0 (20210316.0004)
 -->
<!-- Title: dependencies Pages: 1 -->
<svg width="3296pt" height="211pt"
 viewBox="0.00 0.00 3296.00 211.00" xmlns="http://www.w3.org/2000/svg" xmlns:xlink="http://www.w3.org/1999/xlink">
<g id="graph0" class="graph" transform="scale(1 1) rotate(0) translate(4 207)">
<title>dependencies</title>
<polygon fill="white" stroke="transparent" points="-4,4 -4,-207 3292,-207 3292,4 -4,4"/>
<text text-anchor="start" x="1623.01" y="-42.4" font-family="Times-12" font-weight="bold" font-size="14.00">Legend</text>
<polygon fill="#ffffb3" stroke="transparent" points="1410,-10 1410,-30 1430,-30 1430,-10 1410,-10"/>
<text text-anchor="start" x="1433.63" y="-15.4" font-family="Times-12" font-size="14.00"> &#160;Declarations</text>
<polygon fill="#8dd3c7" stroke="transparent" points="1523,-10 1523,-30 1543,-30 1543,-10 1523,-10"/>
<text text-anchor="start" x="1546.73" y="-15.4" font-family="Times-12" font-size="14.00"> &#160;Module</text>
<polygon fill="#80b1d3" stroke="transparent" points="1609,-10 1609,-30 1629,-30 1629,-10 1609,-10"/>
<text text-anchor="start" x="1632.78" y="-15.4" font-family="Times-12" font-size="14.00"> &#160;Bootstrap</text>
<polygon fill="#fdb462" stroke="transparent" points="1706,-10 1706,-30 1726,-30 1726,-10 1706,-10"/>
<text text-anchor="start" x="1729.67" y="-15.4" font-family="Times-12" font-size="14.00"> &#160;Providers</text>
<polygon fill="#fb8072" stroke="transparent" points="1802,-10 1802,-30 1822,-30 1822,-10 1802,-10"/>
<text text-anchor="start" x="1825.73" y="-15.4" font-family="Times-12" font-size="14.00"> &#160;Exports</text>
<g id="clust1" class="cluster">
<title>cluster_LearnroomApiModule</title>
<polygon fill="none" stroke="black" stroke-dasharray="1,5" points="8,-70 8,-195 3280,-195 3280,-70 8,-70"/>
</g>
<g id="clust6" class="cluster">
<title>cluster_LearnroomApiModule_providers</title>
<polygon fill="none" stroke="black" points="793,-78 793,-130 3272,-130 3272,-78 793,-78"/>
</g>
<g id="clust3" class="cluster">
<title>cluster_LearnroomApiModule_imports</title>
<polygon fill="none" stroke="black" points="16,-78 16,-130 785,-130 785,-78 16,-78"/>
</g>
<!-- AuthorizationModule -->
<g id="node1" class="node">
<title>AuthorizationModule</title>
<polygon fill="#8dd3c7" stroke="black" points="776.81,-122 773.81,-126 752.81,-126 749.81,-122 639.19,-122 639.19,-86 776.81,-86 776.81,-122"/>
<text text-anchor="middle" x="708" y="-99.8" font-family="Times,serif" font-size="14.00">AuthorizationModule</text>
</g>
<!-- LearnroomApiModule -->
<g id="node6" class="node">
<title>LearnroomApiModule</title>
<polygon fill="#8dd3c7" stroke="black" points="1742.24,-187 1739.24,-191 1718.24,-191 1715.24,-187 1599.76,-187 1599.76,-151 1742.24,-151 1742.24,-187"/>
<text text-anchor="middle" x="1671" y="-164.8" font-family="Times,serif" font-size="14.00">LearnroomApiModule</text>
</g>
<!-- AuthorizationModule&#45;&gt;LearnroomApiModule -->
<g id="edge1" class="edge">
<title>AuthorizationModule&#45;&gt;LearnroomApiModule</title>
<path fill="none" stroke="black" d="M708,-122.11C708,-141.34 708,-169 708,-169 708,-169 1589.41,-169 1589.41,-169"/>
<polygon fill="black" stroke="black" points="1589.41,-172.5 1599.41,-169 1589.41,-165.5 1589.41,-172.5"/>
</g>
<!-- AuthorizationReferenceModule -->
<g id="node2" class="node">
<title>AuthorizationReferenceModule</title>
<polygon fill="#8dd3c7" stroke="black" points="621.04,-122 618.04,-126 597.04,-126 594.04,-122 426.96,-122 426.96,-86 621.04,-86 621.04,-122"/>
<text text-anchor="middle" x="524" y="-99.8" font-family="Times,serif" font-size="14.00">AuthorizationReferenceModule</text>
</g>
<!-- AuthorizationReferenceModule&#45;&gt;LearnroomApiModule -->
<g id="edge2" class="edge">
<title>AuthorizationReferenceModule&#45;&gt;LearnroomApiModule</title>
<path fill="none" stroke="black" d="M524,-122.13C524,-142.57 524,-173 524,-173 524,-173 1589.68,-173 1589.68,-173"/>
<polygon fill="black" stroke="black" points="1589.68,-176.5 1599.68,-173 1589.68,-169.5 1589.68,-176.5"/>
</g>
<!-- CopyHelperModule -->
<g id="node3" class="node">
<title>CopyHelperModule</title>
<polygon fill="#8dd3c7" stroke="black" points="408.97,-122 405.97,-126 384.97,-126 381.97,-122 281.03,-122 281.03,-86 408.97,-86 408.97,-122"/>
<text text-anchor="middle" x="345" y="-99.8" font-family="Times,serif" font-size="14.00">CopyHelperModule</text>
</g>
<!-- CopyHelperModule&#45;&gt;LearnroomApiModule -->
<g id="edge3" class="edge">
<title>CopyHelperModule&#45;&gt;LearnroomApiModule</title>
<path fill="none" stroke="black" d="M345,-122.04C345,-143.66 345,-177 345,-177 345,-177 1589.71,-177 1589.71,-177"/>
<polygon fill="black" stroke="black" points="1589.71,-180.5 1599.71,-177 1589.71,-173.5 1589.71,-180.5"/>
</g>
<!-- LearnroomModule -->
<g id="node4" class="node">
<title>LearnroomModule</title>
<polygon fill="#8dd3c7" stroke="black" points="262.74,-122 259.74,-126 238.74,-126 235.74,-122 141.26,-122 141.26,-86 262.74,-86 262.74,-122"/>
<text text-anchor="middle" x="202" y="-99.8" font-family="Times,serif" font-size="14.00">LearnroomModule</text>
</g>
<!-- LearnroomModule&#45;&gt;LearnroomApiModule -->
<g id="edge4" class="edge">
<title>LearnroomModule&#45;&gt;LearnroomApiModule</title>
<path fill="none" stroke="black" d="M202,-122.01C202,-144.49 202,-180 202,-180 202,-180 1589.65,-180 1589.65,-180"/>
<polygon fill="black" stroke="black" points="1589.65,-183.5 1599.65,-180 1589.65,-176.5 1589.65,-183.5"/>
</g>
<!-- LessonModule -->
<g id="node5" class="node">
<title>LessonModule</title>
<polygon fill="#8dd3c7" stroke="black" points="123.71,-122 120.71,-126 99.71,-126 96.71,-122 24.29,-122 24.29,-86 123.71,-86 123.71,-122"/>
<text text-anchor="middle" x="74" y="-99.8" font-family="Times,serif" font-size="14.00">LessonModule</text>
</g>
<!-- LessonModule&#45;&gt;LearnroomApiModule -->
<g id="edge5" class="edge">
<title>LessonModule&#45;&gt;LearnroomApiModule</title>
<path fill="none" stroke="black" d="M74,-122.15C74,-145.76 74,-184 74,-184 74,-184 1589.54,-184 1589.54,-184"/>
<polygon fill="black" stroke="black" points="1589.54,-187.5 1599.54,-184 1589.54,-180.5 1589.54,-187.5"/>
</g>
<!-- CourseCopyUC -->
<g id="node7" class="node">
<title>CourseCopyUC</title>
<ellipse fill="#fdb462" stroke="black" cx="3191" cy="-104" rx="72.96" ry="18"/>
<text text-anchor="middle" x="3191" y="-99.8" font-family="Times,serif" font-size="14.00">CourseCopyUC</text>
</g>
<!-- CourseCopyUC&#45;&gt;LearnroomApiModule -->
<g id="edge6" class="edge">
<title>CourseCopyUC&#45;&gt;LearnroomApiModule</title>
<path fill="none" stroke="black" d="M3191,-122.15C3191,-145.76 3191,-184 3191,-184 3191,-184 1752.27,-184 1752.27,-184"/>
<polygon fill="black" stroke="black" points="1752.27,-180.5 1742.27,-184 1752.27,-187.5 1752.27,-180.5"/>
</g>
<!-- CourseExportUc -->
<g id="node8" class="node">
<title>CourseExportUc</title>
<ellipse fill="#fdb462" stroke="black" cx="3024" cy="-104" rx="75.86" ry="18"/>
<text text-anchor="middle" x="3024" y="-99.8" font-family="Times,serif" font-size="14.00">CourseExportUc</text>
</g>
<!-- CourseExportUc&#45;&gt;LearnroomApiModule -->
<g id="edge7" class="edge">
<title>CourseExportUc&#45;&gt;LearnroomApiModule</title>
<path fill="none" stroke="black" d="M3024,-122.01C3024,-144.49 3024,-180 3024,-180 3024,-180 1752.31,-180 1752.31,-180"/>
<polygon fill="black" stroke="black" points="1752.31,-176.5 1742.31,-180 1752.31,-183.5 1752.31,-176.5"/>
</g>
<!-- CourseImportUc -->
<g id="node9" class="node">
<title>CourseImportUc</title>
<ellipse fill="#fdb462" stroke="black" cx="2854" cy="-104" rx="75.86" ry="18"/>
<text text-anchor="middle" x="2854" y="-99.8" font-family="Times,serif" font-size="14.00">CourseImportUc</text>
</g>
<!-- CourseImportUc&#45;&gt;LearnroomApiModule -->
<g id="edge8" class="edge">
<title>CourseImportUc&#45;&gt;LearnroomApiModule</title>
<path fill="none" stroke="black" d="M2854,-122.04C2854,-143.66 2854,-177 2854,-177 2854,-177 1752.34,-177 1752.34,-177"/>
<polygon fill="black" stroke="black" points="1752.34,-173.5 1742.34,-177 1752.34,-180.5 1752.34,-173.5"/>
</g>
<!-- CourseRepo -->
<g id="node10" class="node">
<title>CourseRepo</title>
<ellipse fill="#fdb462" stroke="black" cx="2701" cy="-104" rx="58.55" ry="18"/>
<text text-anchor="middle" x="2701" y="-99.8" font-family="Times,serif" font-size="14.00">CourseRepo</text>
</g>
<!-- CourseRepo&#45;&gt;LearnroomApiModule -->
<g id="edge9" class="edge">
<title>CourseRepo&#45;&gt;LearnroomApiModule</title>
<path fill="none" stroke="black" d="M2701,-122.13C2701,-142.57 2701,-173 2701,-173 2701,-173 1752.61,-173 1752.61,-173"/>
<polygon fill="black" stroke="black" points="1752.61,-169.5 1742.61,-173 1752.61,-176.5 1752.61,-169.5"/>
</g>
<!-- CourseUc -->
<g id="node11" class="node">
<title>CourseUc</title>
<ellipse fill="#fdb462" stroke="black" cx="2575" cy="-104" rx="49.8" ry="18"/>
<text text-anchor="middle" x="2575" y="-99.8" font-family="Times,serif" font-size="14.00">CourseUc</text>
</g>
<!-- CourseUc&#45;&gt;LearnroomApiModule -->
<g id="edge10" class="edge">
<title>CourseUc&#45;&gt;LearnroomApiModule</title>
<path fill="none" stroke="black" d="M2575,-122.11C2575,-141.34 2575,-169 2575,-169 2575,-169 1752.31,-169 1752.31,-169"/>
<polygon fill="black" stroke="black" points="1752.31,-165.5 1742.31,-169 1752.31,-172.5 1752.31,-165.5"/>
</g>
<!-- DashboardModelMapper -->
<g id="node12" class="node">
<title>DashboardModelMapper</title>
<ellipse fill="#fdb462" stroke="black" cx="2399" cy="-104" rx="108.21" ry="18"/>
<text text-anchor="middle" x="2399" y="-99.8" font-family="Times,serif" font-size="14.00">DashboardModelMapper</text>
</g>
<!-- DashboardModelMapper&#45;&gt;LearnroomApiModule -->
<g id="edge11" class="edge">
<title>DashboardModelMapper&#45;&gt;LearnroomApiModule</title>
<path fill="none" stroke="black" d="M2399,-122.27C2399,-140.56 2399,-166 2399,-166 2399,-166 1752.46,-166 1752.46,-166"/>
<polygon fill="black" stroke="black" points="1752.46,-162.5 1742.46,-166 1752.46,-169.5 1752.46,-162.5"/>
</g>
<!-- DashboardUc -->
<g id="node13" class="node">
<title>DashboardUc</title>
<ellipse fill="#fdb462" stroke="black" cx="2209" cy="-104" rx="64.25" ry="18"/>
<text text-anchor="middle" x="2209" y="-99.8" font-family="Times,serif" font-size="14.00">DashboardUc</text>
</g>
<!-- DashboardUc&#45;&gt;LearnroomApiModule -->
<g id="edge12" class="edge">
<title>DashboardUc&#45;&gt;LearnroomApiModule</title>
<path fill="none" stroke="black" d="M2209,-122.03C2209,-139.06 2209,-162 2209,-162 2209,-162 1752.44,-162 1752.44,-162"/>
<polygon fill="black" stroke="black" points="1752.44,-158.5 1742.44,-162 1752.44,-165.5 1752.44,-158.5"/>
</g>
<!-- LegacyBoardRepo -->
<g id="node14" class="node">
<title>LegacyBoardRepo</title>
<ellipse fill="#fdb462" stroke="black" cx="2043" cy="-104" rx="83.37" ry="18"/>
<text text-anchor="middle" x="2043" y="-99.8" font-family="Times,serif" font-size="14.00">LegacyBoardRepo</text>
</g>
<!-- LegacyBoardRepo&#45;&gt;LearnroomApiModule -->
<g id="edge13" class="edge">
<title>LegacyBoardRepo&#45;&gt;LearnroomApiModule</title>
<path fill="none" stroke="black" d="M2043,-122.01C2043,-138.05 2043,-159 2043,-159 2043,-159 1752.29,-159 1752.29,-159"/>
<polygon fill="black" stroke="black" points="1752.29,-155.5 1742.29,-159 1752.29,-162.5 1752.29,-155.5"/>
</g>
<!-- LessonCopyUC -->
<g id="node15" class="node">
<title>LessonCopyUC</title>
<ellipse fill="#fdb462" stroke="black" cx="1869" cy="-104" rx="72.96" ry="18"/>
<text text-anchor="middle" x="1869" y="-99.8" font-family="Times,serif" font-size="14.00">LessonCopyUC</text>
</g>
<!-- LessonCopyUC&#45;&gt;LearnroomApiModule -->
<g id="edge14" class="edge">
<title>LessonCopyUC&#45;&gt;LearnroomApiModule</title>
<path fill="none" stroke="black" d="M1869,-122.12C1869,-136.78 1869,-155 1869,-155 1869,-155 1752.48,-155 1752.48,-155"/>
<polygon fill="black" stroke="black" points="1752.48,-151.5 1742.48,-155 1752.48,-158.5 1752.48,-151.5"/>
</g>
<!-- RoomBoardDTOFactory -->
<g id="node16" class="node">
<title>RoomBoardDTOFactory</title>
<ellipse fill="#fdb462" stroke="black" cx="1671" cy="-104" rx="107.67" ry="18"/>
<text text-anchor="middle" x="1671" y="-99.8" font-family="Times,serif" font-size="14.00">RoomBoardDTOFactory</text>
</g>
<!-- RoomBoardDTOFactory&#45;&gt;LearnroomApiModule -->
<g id="edge15" class="edge">
<title>RoomBoardDTOFactory&#45;&gt;LearnroomApiModule</title>
<path fill="none" stroke="black" d="M1671,-122.11C1671,-122.11 1671,-140.99 1671,-140.99"/>
<polygon fill="black" stroke="black" points="1667.5,-140.99 1671,-150.99 1674.5,-140.99 1667.5,-140.99"/>
</g>
<!-- RoomBoardResponseMapper -->
<g id="node17" class="node">
<title>RoomBoardResponseMapper</title>
<ellipse fill="#fdb462" stroke="black" cx="1420" cy="-104" rx="125.07" ry="18"/>
<text text-anchor="middle" x="1420" y="-99.8" font-family="Times,serif" font-size="14.00">RoomBoardResponseMapper</text>
</g>
<!-- RoomBoardResponseMapper&#45;&gt;LearnroomApiModule -->
<g id="edge16" class="edge">
<title>RoomBoardResponseMapper&#45;&gt;LearnroomApiModule</title>
<path fill="none" stroke="black" d="M1420,-122.12C1420,-136.78 1420,-155 1420,-155 1420,-155 1589.74,-155 1589.74,-155"/>
<polygon fill="black" stroke="black" points="1589.74,-158.5 1599.74,-155 1589.74,-151.5 1589.74,-158.5"/>
</g>
<!-- RoomsAuthorisationService -->
<g id="node18" class="node">
<title>RoomsAuthorisationService</title>
<ellipse fill="#fdb462" stroke="black" cx="1156" cy="-104" rx="120.42" ry="18"/>
<text text-anchor="middle" x="1156" y="-99.8" font-family="Times,serif" font-size="14.00">RoomsAuthorisationService</text>
</g>
<!-- RoomsAuthorisationService&#45;&gt;LearnroomApiModule -->
<g id="edge17" class="edge">
<title>RoomsAuthorisationService&#45;&gt;LearnroomApiModule</title>
<path fill="none" stroke="black" d="M1156,-122.01C1156,-138.05 1156,-159 1156,-159 1156,-159 1589.66,-159 1589.66,-159"/>
<polygon fill="black" stroke="black" points="1589.66,-162.5 1599.66,-159 1589.66,-155.5 1589.66,-162.5"/>
</g>
<!-- RoomsUc -->
<g id="node19" class="node">
<title>RoomsUc</title>
<ellipse fill="#fdb462" stroke="black" cx="968" cy="-104" rx="49.82" ry="18"/>
<text text-anchor="middle" x="968" y="-99.8" font-family="Times,serif" font-size="14.00">RoomsUc</text>
</g>
<!-- RoomsUc&#45;&gt;LearnroomApiModule -->
<g id="edge18" class="edge">
<title>RoomsUc&#45;&gt;LearnroomApiModule</title>
<path fill="none" stroke="black" d="M968,-122.03C968,-139.06 968,-162 968,-162 968,-162 1589.72,-162 1589.72,-162"/>
<polygon fill="black" stroke="black" points="1589.72,-165.5 1599.72,-162 1589.72,-158.5 1589.72,-165.5"/>
</g>
<!-- UserRepo -->
<g id="node20" class="node">
<title>UserRepo</title>
<ellipse fill="#fdb462" stroke="black" cx="851" cy="-104" rx="49.8" ry="18"/>
<text text-anchor="middle" x="851" y="-99.8" font-family="Times,serif" font-size="14.00">UserRepo</text>
</g>
<!-- UserRepo&#45;&gt;LearnroomApiModule -->
<g id="edge19" class="edge">
<title>UserRepo&#45;&gt;LearnroomApiModule</title>
<path fill="none" stroke="black" d="M851,-122.27C851,-140.56 851,-166 851,-166 851,-166 1589.66,-166 1589.66,-166"/>
<polygon fill="black" stroke="black" points="1589.66,-169.5 1599.66,-166 1589.66,-162.5 1589.66,-169.5"/>
</g>
</g>
</svg>
