<?xml version="1.0" encoding="UTF-8" standalone="no"?>
<!DOCTYPE svg PUBLIC "-//W3C//DTD SVG 1.1//EN"
 "http://www.w3.org/Graphics/SVG/1.1/DTD/svg11.dtd">
<!-- Generated by graphviz version 2.47.0 (20210316.0004)
 -->
<!-- Title: dependencies Pages: 1 -->
<svg width="3239pt" height="211pt"
 viewBox="0.00 0.00 3239.00 211.00" xmlns="http://www.w3.org/2000/svg" xmlns:xlink="http://www.w3.org/1999/xlink">
<g id="graph0" class="graph" transform="scale(1 1) rotate(0) translate(4 207)">
<title>dependencies</title>
<polygon fill="white" stroke="transparent" points="-4,4 -4,-207 3235,-207 3235,4 -4,4"/>
<text text-anchor="start" x="1594.51" y="-42.4" font-family="Times-12" font-weight="bold" font-size="14.00">Legend</text>
<polygon fill="#ffffb3" stroke="transparent" points="1381.5,-10 1381.5,-30 1401.5,-30 1401.5,-10 1381.5,-10"/>
<text text-anchor="start" x="1405.13" y="-15.4" font-family="Times-12" font-size="14.00"> &#160;Declarations</text>
<polygon fill="#8dd3c7" stroke="transparent" points="1494.5,-10 1494.5,-30 1514.5,-30 1514.5,-10 1494.5,-10"/>
<text text-anchor="start" x="1518.23" y="-15.4" font-family="Times-12" font-size="14.00"> &#160;Module</text>
<polygon fill="#80b1d3" stroke="transparent" points="1580.5,-10 1580.5,-30 1600.5,-30 1600.5,-10 1580.5,-10"/>
<text text-anchor="start" x="1604.28" y="-15.4" font-family="Times-12" font-size="14.00"> &#160;Bootstrap</text>
<polygon fill="#fdb462" stroke="transparent" points="1677.5,-10 1677.5,-30 1697.5,-30 1697.5,-10 1677.5,-10"/>
<text text-anchor="start" x="1701.17" y="-15.4" font-family="Times-12" font-size="14.00"> &#160;Providers</text>
<polygon fill="#fb8072" stroke="transparent" points="1773.5,-10 1773.5,-30 1793.5,-30 1793.5,-10 1773.5,-10"/>
<text text-anchor="start" x="1797.23" y="-15.4" font-family="Times-12" font-size="14.00"> &#160;Exports</text>
<g id="clust1" class="cluster">
<title>cluster_LearnroomApiModule</title>
<polygon fill="none" stroke="black" stroke-dasharray="1,5" points="8,-70 8,-195 3223,-195 3223,-70 8,-70"/>
</g>
<g id="clust3" class="cluster">
<title>cluster_LearnroomApiModule_imports</title>
<polygon fill="none" stroke="black" points="2446,-78 2446,-130 3215,-130 3215,-78 2446,-78"/>
</g>
<g id="clust6" class="cluster">
<title>cluster_LearnroomApiModule_providers</title>
<polygon fill="none" stroke="black" points="16,-78 16,-130 2438,-130 2438,-78 16,-78"/>
</g>
<!-- AuthorizationModule -->
<g id="node1" class="node">
<title>AuthorizationModule</title>
<polygon fill="#8dd3c7" stroke="black" points="3206.81,-122 3203.81,-126 3182.81,-126 3179.81,-122 3069.19,-122 3069.19,-86 3206.81,-86 3206.81,-122"/>
<text text-anchor="middle" x="3138" y="-99.8" font-family="Times,serif" font-size="14.00">AuthorizationModule</text>
</g>
<!-- LearnroomApiModule -->
<g id="node6" class="node">
<title>LearnroomApiModule</title>
<polygon fill="#8dd3c7" stroke="black" points="1810.24,-187 1807.24,-191 1786.24,-191 1783.24,-187 1667.76,-187 1667.76,-151 1810.24,-151 1810.24,-187"/>
<text text-anchor="middle" x="1739" y="-164.8" font-family="Times,serif" font-size="14.00">LearnroomApiModule</text>
</g>
<!-- AuthorizationModule&#45;&gt;LearnroomApiModule -->
<g id="edge1" class="edge">
<title>AuthorizationModule&#45;&gt;LearnroomApiModule</title>
<path fill="none" stroke="black" d="M3138,-122.32C3138,-145.66 3138,-183 3138,-183 3138,-183 1820.3,-183 1820.3,-183"/>
<polygon fill="black" stroke="black" points="1820.3,-179.5 1810.3,-183 1820.3,-186.5 1820.3,-179.5"/>
</g>
<!-- AuthorizationReferenceModule -->
<g id="node2" class="node">
<title>AuthorizationReferenceModule</title>
<polygon fill="#8dd3c7" stroke="black" points="3051.04,-122 3048.04,-126 3027.04,-126 3024.04,-122 2856.96,-122 2856.96,-86 3051.04,-86 3051.04,-122"/>
<text text-anchor="middle" x="2954" y="-99.8" font-family="Times,serif" font-size="14.00">AuthorizationReferenceModule</text>
</g>
<!-- AuthorizationReferenceModule&#45;&gt;LearnroomApiModule -->
<g id="edge2" class="edge">
<title>AuthorizationReferenceModule&#45;&gt;LearnroomApiModule</title>
<path fill="none" stroke="black" d="M2954,-122.16C2954,-144.35 2954,-179 2954,-179 2954,-179 1820.47,-179 1820.47,-179"/>
<polygon fill="black" stroke="black" points="1820.47,-175.5 1810.47,-179 1820.47,-182.5 1820.47,-175.5"/>
</g>
<!-- CopyHelperModule -->
<g id="node3" class="node">
<title>CopyHelperModule</title>
<polygon fill="#8dd3c7" stroke="black" points="2838.97,-122 2835.97,-126 2814.97,-126 2811.97,-122 2711.03,-122 2711.03,-86 2838.97,-86 2838.97,-122"/>
<text text-anchor="middle" x="2775" y="-99.8" font-family="Times,serif" font-size="14.00">CopyHelperModule</text>
</g>
<!-- CopyHelperModule&#45;&gt;LearnroomApiModule -->
<g id="edge3" class="edge">
<title>CopyHelperModule&#45;&gt;LearnroomApiModule</title>
<path fill="none" stroke="black" d="M2775,-122.28C2775,-143.32 2775,-175 2775,-175 2775,-175 1820.62,-175 1820.62,-175"/>
<polygon fill="black" stroke="black" points="1820.62,-171.5 1810.62,-175 1820.62,-178.5 1820.62,-171.5"/>
</g>
<!-- LearnroomModule -->
<g id="node4" class="node">
<title>LearnroomModule</title>
<polygon fill="#8dd3c7" stroke="black" points="2692.74,-122 2689.74,-126 2668.74,-126 2665.74,-122 2571.26,-122 2571.26,-86 2692.74,-86 2692.74,-122"/>
<text text-anchor="middle" x="2632" y="-99.8" font-family="Times,serif" font-size="14.00">LearnroomModule</text>
</g>
<!-- LearnroomModule&#45;&gt;LearnroomApiModule -->
<g id="edge4" class="edge">
<title>LearnroomModule&#45;&gt;LearnroomApiModule</title>
<path fill="none" stroke="black" d="M2632,-122.31C2632,-142.15 2632,-171 2632,-171 2632,-171 1820.57,-171 1820.57,-171"/>
<polygon fill="black" stroke="black" points="1820.57,-167.5 1810.57,-171 1820.57,-174.5 1820.57,-167.5"/>
</g>
<!-- LessonModule -->
<g id="node5" class="node">
<title>LessonModule</title>
<polygon fill="#8dd3c7" stroke="black" points="2553.71,-122 2550.71,-126 2529.71,-126 2526.71,-122 2454.29,-122 2454.29,-86 2553.71,-86 2553.71,-122"/>
<text text-anchor="middle" x="2504" y="-99.8" font-family="Times,serif" font-size="14.00">LessonModule</text>
</g>
<!-- LessonModule&#45;&gt;LearnroomApiModule -->
<g id="edge5" class="edge">
<title>LessonModule&#45;&gt;LearnroomApiModule</title>
<path fill="none" stroke="black" d="M2504,-122.22C2504,-140.83 2504,-167 2504,-167 2504,-167 1820.28,-167 1820.28,-167"/>
<polygon fill="black" stroke="black" points="1820.28,-163.5 1810.28,-167 1820.28,-170.5 1820.28,-163.5"/>
</g>
<!-- BoardRepo -->
<g id="node7" class="node">
<title>BoardRepo</title>
<ellipse fill="#fdb462" stroke="black" cx="2375" cy="-104" rx="55.04" ry="18"/>
<text text-anchor="middle" x="2375" y="-99.8" font-family="Times,serif" font-size="14.00">BoardRepo</text>
</g>
<!-- BoardRepo&#45;&gt;LearnroomApiModule -->
<g id="edge6" class="edge">
<title>BoardRepo&#45;&gt;LearnroomApiModule</title>
<path fill="none" stroke="black" d="M2375,-122.02C2375,-139.37 2375,-163 2375,-163 2375,-163 1820.41,-163 1820.41,-163"/>
<polygon fill="black" stroke="black" points="1820.41,-159.5 1810.41,-163 1820.41,-166.5 1820.41,-159.5"/>
</g>
<!-- CourseCopyUC -->
<g id="node8" class="node">
<title>CourseCopyUC</title>
<ellipse fill="#fdb462" stroke="black" cx="2229" cy="-104" rx="72.96" ry="18"/>
<text text-anchor="middle" x="2229" y="-99.8" font-family="Times,serif" font-size="14.00">CourseCopyUC</text>
</g>
<!-- CourseCopyUC&#45;&gt;LearnroomApiModule -->
<g id="edge7" class="edge">
<title>CourseCopyUC&#45;&gt;LearnroomApiModule</title>
<path fill="none" stroke="black" d="M2229,-122.01C2229,-138.05 2229,-159 2229,-159 2229,-159 1820.25,-159 1820.25,-159"/>
<polygon fill="black" stroke="black" points="1820.25,-155.5 1810.25,-159 1820.25,-162.5 1820.25,-155.5"/>
</g>
<!-- CourseExportUc -->
<g id="node9" class="node">
<title>CourseExportUc</title>
<ellipse fill="#fdb462" stroke="black" cx="2062" cy="-104" rx="75.86" ry="18"/>
<text text-anchor="middle" x="2062" y="-99.8" font-family="Times,serif" font-size="14.00">CourseExportUc</text>
</g>
<!-- CourseExportUc&#45;&gt;LearnroomApiModule -->
<g id="edge8" class="edge">
<title>CourseExportUc&#45;&gt;LearnroomApiModule</title>
<path fill="none" stroke="black" d="M2062,-122.12C2062,-136.78 2062,-155 2062,-155 2062,-155 1820.28,-155 1820.28,-155"/>
<polygon fill="black" stroke="black" points="1820.28,-151.5 1810.28,-155 1820.28,-158.5 1820.28,-151.5"/>
</g>
<!-- CourseImportUc -->
<g id="node10" class="node">
<title>CourseImportUc</title>
<ellipse fill="#fdb462" stroke="black" cx="1892" cy="-104" rx="75.86" ry="18"/>
<text text-anchor="middle" x="1892" y="-99.8" font-family="Times,serif" font-size="14.00">CourseImportUc</text>
</g>
<!-- CourseImportUc&#45;&gt;LearnroomApiModule -->
<g id="edge9" class="edge">
<title>CourseImportUc&#45;&gt;LearnroomApiModule</title>
<path fill="none" stroke="black" d="M1815.93,-104C1808.74,-104 1804.07,-104 1804.07,-104 1804.07,-104 1804.07,-140.89 1804.07,-140.89"/>
<polygon fill="black" stroke="black" points="1800.57,-140.89 1804.07,-150.89 1807.57,-140.89 1800.57,-140.89"/>
</g>
<!-- CourseRepo -->
<g id="node11" class="node">
<title>CourseRepo</title>
<ellipse fill="#fdb462" stroke="black" cx="1739" cy="-104" rx="58.55" ry="18"/>
<text text-anchor="middle" x="1739" y="-99.8" font-family="Times,serif" font-size="14.00">CourseRepo</text>
</g>
<!-- CourseRepo&#45;&gt;LearnroomApiModule -->
<g id="edge10" class="edge">
<title>CourseRepo&#45;&gt;LearnroomApiModule</title>
<path fill="none" stroke="black" d="M1739,-122.11C1739,-122.11 1739,-140.99 1739,-140.99"/>
<polygon fill="black" stroke="black" points="1735.5,-140.99 1739,-150.99 1742.5,-140.99 1735.5,-140.99"/>
</g>
<!-- CourseUc -->
<g id="node12" class="node">
<title>CourseUc</title>
<ellipse fill="#fdb462" stroke="black" cx="1613" cy="-104" rx="49.8" ry="18"/>
<text text-anchor="middle" x="1613" y="-99.8" font-family="Times,serif" font-size="14.00">CourseUc</text>
</g>
<!-- CourseUc&#45;&gt;LearnroomApiModule -->
<g id="edge11" class="edge">
<title>CourseUc&#45;&gt;LearnroomApiModule</title>
<path fill="none" stroke="black" d="M1662.75,-104C1669.37,-104 1673.93,-104 1673.93,-104 1673.93,-104 1673.93,-140.89 1673.93,-140.89"/>
<polygon fill="black" stroke="black" points="1670.43,-140.89 1673.93,-150.89 1677.43,-140.89 1670.43,-140.89"/>
</g>
<!-- DashboardModelMapper -->
<g id="node13" class="node">
<title>DashboardModelMapper</title>
<ellipse fill="#fdb462" stroke="black" cx="1437" cy="-104" rx="108.21" ry="18"/>
<text text-anchor="middle" x="1437" y="-99.8" font-family="Times,serif" font-size="14.00">DashboardModelMapper</text>
</g>
<!-- DashboardModelMapper&#45;&gt;LearnroomApiModule -->
<g id="edge12" class="edge">
<title>DashboardModelMapper&#45;&gt;LearnroomApiModule</title>
<path fill="none" stroke="black" d="M1437,-122.12C1437,-136.78 1437,-155 1437,-155 1437,-155 1657.43,-155 1657.43,-155"/>
<polygon fill="black" stroke="black" points="1657.43,-158.5 1667.43,-155 1657.43,-151.5 1657.43,-158.5"/>
</g>
<!-- DashboardUc -->
<g id="node14" class="node">
<title>DashboardUc</title>
<ellipse fill="#fdb462" stroke="black" cx="1247" cy="-104" rx="64.25" ry="18"/>
<text text-anchor="middle" x="1247" y="-99.8" font-family="Times,serif" font-size="14.00">DashboardUc</text>
</g>
<!-- DashboardUc&#45;&gt;LearnroomApiModule -->
<g id="edge13" class="edge">
<title>DashboardUc&#45;&gt;LearnroomApiModule</title>
<path fill="none" stroke="black" d="M1247,-122.01C1247,-138.05 1247,-159 1247,-159 1247,-159 1657.72,-159 1657.72,-159"/>
<polygon fill="black" stroke="black" points="1657.72,-162.5 1667.72,-159 1657.72,-155.5 1657.72,-162.5"/>
</g>
<!-- LessonCopyUC -->
<g id="node15" class="node">
<title>LessonCopyUC</title>
<ellipse fill="#fdb462" stroke="black" cx="1092" cy="-104" rx="72.96" ry="18"/>
<text text-anchor="middle" x="1092" y="-99.8" font-family="Times,serif" font-size="14.00">LessonCopyUC</text>
</g>
<!-- LessonCopyUC&#45;&gt;LearnroomApiModule -->
<g id="edge14" class="edge">
<title>LessonCopyUC&#45;&gt;LearnroomApiModule</title>
<path fill="none" stroke="black" d="M1092,-122.02C1092,-139.37 1092,-163 1092,-163 1092,-163 1657.6,-163 1657.6,-163"/>
<polygon fill="black" stroke="black" points="1657.6,-166.5 1667.6,-163 1657.6,-159.5 1657.6,-166.5"/>
</g>
<!-- RoomBoardDTOFactory -->
<g id="node16" class="node">
<title>RoomBoardDTOFactory</title>
<ellipse fill="#fdb462" stroke="black" cx="894" cy="-104" rx="107.67" ry="18"/>
<text text-anchor="middle" x="894" y="-99.8" font-family="Times,serif" font-size="14.00">RoomBoardDTOFactory</text>
</g>
<!-- RoomBoardDTOFactory&#45;&gt;LearnroomApiModule -->
<g id="edge15" class="edge">
<title>RoomBoardDTOFactory&#45;&gt;LearnroomApiModule</title>
<path fill="none" stroke="black" d="M894,-122.22C894,-140.83 894,-167 894,-167 894,-167 1657.68,-167 1657.68,-167"/>
<polygon fill="black" stroke="black" points="1657.68,-170.5 1667.68,-167 1657.68,-163.5 1657.68,-170.5"/>
</g>
<!-- RoomBoardResponseMapper -->
<g id="node17" class="node">
<title>RoomBoardResponseMapper</title>
<ellipse fill="#fdb462" stroke="black" cx="643" cy="-104" rx="125.07" ry="18"/>
<text text-anchor="middle" x="643" y="-99.8" font-family="Times,serif" font-size="14.00">RoomBoardResponseMapper</text>
</g>
<!-- RoomBoardResponseMapper&#45;&gt;LearnroomApiModule -->
<g id="edge16" class="edge">
<title>RoomBoardResponseMapper&#45;&gt;LearnroomApiModule</title>
<path fill="none" stroke="black" d="M643,-122.31C643,-142.15 643,-171 643,-171 643,-171 1657.51,-171 1657.51,-171"/>
<polygon fill="black" stroke="black" points="1657.51,-174.5 1667.51,-171 1657.51,-167.5 1657.51,-174.5"/>
</g>
<!-- RoomsAuthorisationService -->
<g id="node18" class="node">
<title>RoomsAuthorisationService</title>
<ellipse fill="#fdb462" stroke="black" cx="379" cy="-104" rx="120.42" ry="18"/>
<text text-anchor="middle" x="379" y="-99.8" font-family="Times,serif" font-size="14.00">RoomsAuthorisationService</text>
</g>
<!-- RoomsAuthorisationService&#45;&gt;LearnroomApiModule -->
<g id="edge17" class="edge">
<title>RoomsAuthorisationService&#45;&gt;LearnroomApiModule</title>
<path fill="none" stroke="black" d="M379,-122.28C379,-143.32 379,-175 379,-175 379,-175 1657.32,-175 1657.32,-175"/>
<polygon fill="black" stroke="black" points="1657.32,-178.5 1667.32,-175 1657.32,-171.5 1657.32,-178.5"/>
</g>
<!-- RoomsUc -->
<g id="node19" class="node">
<title>RoomsUc</title>
<ellipse fill="#fdb462" stroke="black" cx="191" cy="-104" rx="49.82" ry="18"/>
<text text-anchor="middle" x="191" y="-99.8" font-family="Times,serif" font-size="14.00">RoomsUc</text>
</g>
<!-- RoomsUc&#45;&gt;LearnroomApiModule -->
<g id="edge18" class="edge">
<title>RoomsUc&#45;&gt;LearnroomApiModule</title>
<path fill="none" stroke="black" d="M191,-122.16C191,-144.35 191,-179 191,-179 191,-179 1657.7,-179 1657.7,-179"/>
<polygon fill="black" stroke="black" points="1657.7,-182.5 1667.7,-179 1657.7,-175.5 1657.7,-182.5"/>
</g>
<!-- UserRepo -->
<g id="node20" class="node">
<title>UserRepo</title>
<ellipse fill="#fdb462" stroke="black" cx="74" cy="-104" rx="49.8" ry="18"/>
<text text-anchor="middle" x="74" y="-99.8" font-family="Times,serif" font-size="14.00">UserRepo</text>
</g>
<!-- UserRepo&#45;&gt;LearnroomApiModule -->
<g id="edge19" class="edge">
<title>UserRepo&#45;&gt;LearnroomApiModule</title>
<path fill="none" stroke="black" d="M74,-122.32C74,-145.66 74,-183 74,-183 74,-183 1657.72,-183 1657.72,-183"/>
<polygon fill="black" stroke="black" points="1657.72,-186.5 1667.72,-183 1657.72,-179.5 1657.72,-186.5"/>
</g>
</g>
</svg>
