<?xml version="1.0" encoding="UTF-8" standalone="no"?>
<!DOCTYPE svg PUBLIC "-//W3C//DTD SVG 1.1//EN"
 "http://www.w3.org/Graphics/SVG/1.1/DTD/svg11.dtd">
<!-- Generated by graphviz version 2.47.0 (20210316.0004)
 -->
<!-- Title: dependencies Pages: 1 -->
<svg width="3557pt" height="211pt"
 viewBox="0.00 0.00 3557.00 211.00" xmlns="http://www.w3.org/2000/svg" xmlns:xlink="http://www.w3.org/1999/xlink">
<g id="graph0" class="graph" transform="scale(1 1) rotate(0) translate(4 207)">
<title>dependencies</title>
<polygon fill="white" stroke="transparent" points="-4,4 -4,-207 3553,-207 3553,4 -4,4"/>
<text text-anchor="start" x="1753.51" y="-42.4" font-family="Times-12" font-weight="bold" font-size="14.00">Legend</text>
<polygon fill="#ffffb3" stroke="transparent" points="1540.5,-10 1540.5,-30 1560.5,-30 1560.5,-10 1540.5,-10"/>
<text text-anchor="start" x="1564.13" y="-15.4" font-family="Times-12" font-size="14.00"> &#160;Declarations</text>
<polygon fill="#8dd3c7" stroke="transparent" points="1653.5,-10 1653.5,-30 1673.5,-30 1673.5,-10 1653.5,-10"/>
<text text-anchor="start" x="1677.23" y="-15.4" font-family="Times-12" font-size="14.00"> &#160;Module</text>
<polygon fill="#80b1d3" stroke="transparent" points="1739.5,-10 1739.5,-30 1759.5,-30 1759.5,-10 1739.5,-10"/>
<text text-anchor="start" x="1763.28" y="-15.4" font-family="Times-12" font-size="14.00"> &#160;Bootstrap</text>
<polygon fill="#fdb462" stroke="transparent" points="1836.5,-10 1836.5,-30 1856.5,-30 1856.5,-10 1836.5,-10"/>
<text text-anchor="start" x="1860.17" y="-15.4" font-family="Times-12" font-size="14.00"> &#160;Providers</text>
<polygon fill="#fb8072" stroke="transparent" points="1932.5,-10 1932.5,-30 1952.5,-30 1952.5,-10 1932.5,-10"/>
<text text-anchor="start" x="1956.23" y="-15.4" font-family="Times-12" font-size="14.00"> &#160;Exports</text>
<g id="clust1" class="cluster">
<title>cluster_LearnroomApiModule</title>
<polygon fill="none" stroke="black" stroke-dasharray="1,5" points="8,-70 8,-195 3541,-195 3541,-70 8,-70"/>
</g>
<g id="clust3" class="cluster">
<title>cluster_LearnroomApiModule_imports</title>
<polygon fill="none" stroke="black" points="2660,-78 2660,-130 3533,-130 3533,-78 2660,-78"/>
</g>
<g id="clust6" class="cluster">
<title>cluster_LearnroomApiModule_providers</title>
<polygon fill="none" stroke="black" points="16,-78 16,-130 2652,-130 2652,-78 16,-78"/>
</g>
<!-- AuthorizationModule -->
<g id="node1" class="node">
<title>AuthorizationModule</title>
<polygon fill="#8dd3c7" stroke="black" points="3524.81,-122 3521.81,-126 3500.81,-126 3497.81,-122 3387.19,-122 3387.19,-86 3524.81,-86 3524.81,-122"/>
<text text-anchor="middle" x="3456" y="-99.8" font-family="Times,serif" font-size="14.00">AuthorizationModule</text>
</g>
<!-- LearnroomApiModule -->
<g id="node7" class="node">
<title>LearnroomApiModule</title>
<polygon fill="#8dd3c7" stroke="black" points="2006.24,-187 2003.24,-191 1982.24,-191 1979.24,-187 1863.76,-187 1863.76,-151 2006.24,-151 2006.24,-187"/>
<text text-anchor="middle" x="1935" y="-164.8" font-family="Times,serif" font-size="14.00">LearnroomApiModule</text>
</g>
<!-- AuthorizationModule&#45;&gt;LearnroomApiModule -->
<g id="edge1" class="edge">
<title>AuthorizationModule&#45;&gt;LearnroomApiModule</title>
<path fill="none" stroke="black" d="M3456,-122.15C3456,-145.76 3456,-184 3456,-184 3456,-184 2016.32,-184 2016.32,-184"/>
<polygon fill="black" stroke="black" points="2016.32,-180.5 2006.32,-184 2016.32,-187.5 2016.32,-180.5"/>
</g>
<!-- AuthorizationReferenceModule -->
<g id="node2" class="node">
<title>AuthorizationReferenceModule</title>
<polygon fill="#8dd3c7" stroke="black" points="3369.04,-122 3366.04,-126 3345.04,-126 3342.04,-122 3174.96,-122 3174.96,-86 3369.04,-86 3369.04,-122"/>
<text text-anchor="middle" x="3272" y="-99.8" font-family="Times,serif" font-size="14.00">AuthorizationReferenceModule</text>
</g>
<!-- AuthorizationReferenceModule&#45;&gt;LearnroomApiModule -->
<g id="edge2" class="edge">
<title>AuthorizationReferenceModule&#45;&gt;LearnroomApiModule</title>
<path fill="none" stroke="black" d="M3272,-122.25C3272,-145.02 3272,-181 3272,-181 3272,-181 2016.41,-181 2016.41,-181"/>
<polygon fill="black" stroke="black" points="2016.41,-177.5 2006.41,-181 2016.41,-184.5 2016.41,-177.5"/>
</g>
<!-- CopyHelperModule -->
<g id="node3" class="node">
<title>CopyHelperModule</title>
<polygon fill="#8dd3c7" stroke="black" points="3156.97,-122 3153.97,-126 3132.97,-126 3129.97,-122 3029.03,-122 3029.03,-86 3156.97,-86 3156.97,-122"/>
<text text-anchor="middle" x="3093" y="-99.8" font-family="Times,serif" font-size="14.00">CopyHelperModule</text>
</g>
<!-- CopyHelperModule&#45;&gt;LearnroomApiModule -->
<g id="edge3" class="edge">
<title>CopyHelperModule&#45;&gt;LearnroomApiModule</title>
<path fill="none" stroke="black" d="M3093,-122.29C3093,-144.21 3093,-178 3093,-178 3093,-178 2016.56,-178 2016.56,-178"/>
<polygon fill="black" stroke="black" points="2016.56,-174.5 2006.56,-178 2016.56,-181.5 2016.56,-174.5"/>
</g>
<!-- LearnroomModule -->
<g id="node4" class="node">
<title>LearnroomModule</title>
<polygon fill="#8dd3c7" stroke="black" points="3010.74,-122 3007.74,-126 2986.74,-126 2983.74,-122 2889.26,-122 2889.26,-86 3010.74,-86 3010.74,-122"/>
<text text-anchor="middle" x="2950" y="-99.8" font-family="Times,serif" font-size="14.00">LearnroomModule</text>
</g>
<!-- LearnroomModule&#45;&gt;LearnroomApiModule -->
<g id="edge4" class="edge">
<title>LearnroomModule&#45;&gt;LearnroomApiModule</title>
<path fill="none" stroke="black" d="M2950,-122.03C2950,-142.77 2950,-174 2950,-174 2950,-174 2016.37,-174 2016.37,-174"/>
<polygon fill="black" stroke="black" points="2016.37,-170.5 2006.37,-174 2016.37,-177.5 2016.37,-170.5"/>
</g>
<!-- LessonModule -->
<g id="node5" class="node">
<title>LessonModule</title>
<polygon fill="#8dd3c7" stroke="black" points="2871.71,-122 2868.71,-126 2847.71,-126 2844.71,-122 2772.29,-122 2772.29,-86 2871.71,-86 2871.71,-122"/>
<text text-anchor="middle" x="2822" y="-99.8" font-family="Times,serif" font-size="14.00">LessonModule</text>
</g>
<!-- LessonModule&#45;&gt;LearnroomApiModule -->
<g id="edge5" class="edge">
<title>LessonModule&#45;&gt;LearnroomApiModule</title>
<path fill="none" stroke="black" d="M2822,-122.31C2822,-142.15 2822,-171 2822,-171 2822,-171 2016.46,-171 2016.46,-171"/>
<polygon fill="black" stroke="black" points="2016.46,-167.5 2006.46,-171 2016.46,-174.5 2016.46,-167.5"/>
</g>
<!-- RoleModule -->
<g id="node6" class="node">
<title>RoleModule</title>
<polygon fill="#8dd3c7" stroke="black" points="2753.99,-122 2750.99,-126 2729.99,-126 2726.99,-122 2668.01,-122 2668.01,-86 2753.99,-86 2753.99,-122"/>
<text text-anchor="middle" x="2711" y="-99.8" font-family="Times,serif" font-size="14.00">RoleModule</text>
</g>
<!-- RoleModule&#45;&gt;LearnroomApiModule -->
<g id="edge6" class="edge">
<title>RoleModule&#45;&gt;LearnroomApiModule</title>
<path fill="none" stroke="black" d="M2711,-122.17C2711,-141.09 2711,-168 2711,-168 2711,-168 2016.27,-168 2016.27,-168"/>
<polygon fill="black" stroke="black" points="2016.27,-164.5 2006.27,-168 2016.27,-171.5 2016.27,-164.5"/>
</g>
<!-- CourseCopyUC -->
<g id="node8" class="node">
<title>CourseCopyUC</title>
<ellipse fill="#fdb462" stroke="black" cx="2571" cy="-104" rx="72.96" ry="18"/>
<text text-anchor="middle" x="2571" y="-99.8" font-family="Times,serif" font-size="14.00">CourseCopyUC</text>
</g>
<!-- CourseCopyUC&#45;&gt;LearnroomApiModule -->
<g id="edge7" class="edge">
<title>CourseCopyUC&#45;&gt;LearnroomApiModule</title>
<path fill="none" stroke="black" d="M2571,-122.3C2571,-140.27 2571,-165 2571,-165 2571,-165 2016.41,-165 2016.41,-165"/>
<polygon fill="black" stroke="black" points="2016.41,-161.5 2006.41,-165 2016.41,-168.5 2016.41,-161.5"/>
</g>
<!-- CourseExportUc -->
<g id="node9" class="node">
<title>CourseExportUc</title>
<ellipse fill="#fdb462" stroke="black" cx="2404" cy="-104" rx="75.86" ry="18"/>
<text text-anchor="middle" x="2404" y="-99.8" font-family="Times,serif" font-size="14.00">CourseExportUc</text>
</g>
<!-- CourseExportUc&#45;&gt;LearnroomApiModule -->
<g id="edge8" class="edge">
<title>CourseExportUc&#45;&gt;LearnroomApiModule</title>
<path fill="none" stroke="black" d="M2404,-122.04C2404,-138.73 2404,-161 2404,-161 2404,-161 2016.49,-161 2016.49,-161"/>
<polygon fill="black" stroke="black" points="2016.49,-157.5 2006.49,-161 2016.49,-164.5 2016.49,-157.5"/>
</g>
<!-- CourseImportUc -->
<g id="node10" class="node">
<title>CourseImportUc</title>
<ellipse fill="#fdb462" stroke="black" cx="2234" cy="-104" rx="75.86" ry="18"/>
<text text-anchor="middle" x="2234" y="-99.8" font-family="Times,serif" font-size="14.00">CourseImportUc</text>
</g>
<!-- CourseImportUc&#45;&gt;LearnroomApiModule -->
<g id="edge9" class="edge">
<title>CourseImportUc&#45;&gt;LearnroomApiModule</title>
<path fill="none" stroke="black" d="M2234,-122.28C2234,-137.95 2234,-158 2234,-158 2234,-158 2016.62,-158 2016.62,-158"/>
<polygon fill="black" stroke="black" points="2016.62,-154.5 2006.62,-158 2016.62,-161.5 2016.62,-154.5"/>
</g>
<!-- CourseRepo -->
<g id="node11" class="node">
<title>CourseRepo</title>
<ellipse fill="#fdb462" stroke="black" cx="2081" cy="-104" rx="58.55" ry="18"/>
<text text-anchor="middle" x="2081" y="-99.8" font-family="Times,serif" font-size="14.00">CourseRepo</text>
</g>
<!-- CourseRepo&#45;&gt;LearnroomApiModule -->
<g id="edge10" class="edge">
<title>CourseRepo&#45;&gt;LearnroomApiModule</title>
<path fill="none" stroke="black" d="M2081,-122.12C2081,-136.78 2081,-155 2081,-155 2081,-155 2016.29,-155 2016.29,-155"/>
<polygon fill="black" stroke="black" points="2016.29,-151.5 2006.29,-155 2016.29,-158.5 2016.29,-151.5"/>
</g>
<!-- CourseSyncUc -->
<g id="node12" class="node">
<title>CourseSyncUc</title>
<ellipse fill="#fdb462" stroke="black" cx="1935" cy="-104" rx="68.92" ry="18"/>
<text text-anchor="middle" x="1935" y="-99.8" font-family="Times,serif" font-size="14.00">CourseSyncUc</text>
</g>
<!-- CourseSyncUc&#45;&gt;LearnroomApiModule -->
<g id="edge11" class="edge">
<title>CourseSyncUc&#45;&gt;LearnroomApiModule</title>
<path fill="none" stroke="black" d="M1935,-122.11C1935,-122.11 1935,-140.99 1935,-140.99"/>
<polygon fill="black" stroke="black" points="1931.5,-140.99 1935,-150.99 1938.5,-140.99 1931.5,-140.99"/>
</g>
<!-- CourseUc -->
<g id="node13" class="node">
<title>CourseUc</title>
<ellipse fill="#fdb462" stroke="black" cx="1798" cy="-104" rx="49.8" ry="18"/>
<text text-anchor="middle" x="1798" y="-99.8" font-family="Times,serif" font-size="14.00">CourseUc</text>
</g>
<!-- CourseUc&#45;&gt;LearnroomApiModule -->
<g id="edge12" class="edge">
<title>CourseUc&#45;&gt;LearnroomApiModule</title>
<path fill="none" stroke="black" d="M1798,-122.12C1798,-136.78 1798,-155 1798,-155 1798,-155 1853.69,-155 1853.69,-155"/>
<polygon fill="black" stroke="black" points="1853.69,-158.5 1863.69,-155 1853.69,-151.5 1853.69,-158.5"/>
</g>
<!-- DashboardModelMapper -->
<g id="node14" class="node">
<title>DashboardModelMapper</title>
<ellipse fill="#fdb462" stroke="black" cx="1622" cy="-104" rx="108.21" ry="18"/>
<text text-anchor="middle" x="1622" y="-99.8" font-family="Times,serif" font-size="14.00">DashboardModelMapper</text>
</g>
<!-- DashboardModelMapper&#45;&gt;LearnroomApiModule -->
<g id="edge13" class="edge">
<title>DashboardModelMapper&#45;&gt;LearnroomApiModule</title>
<path fill="none" stroke="black" d="M1622,-122.28C1622,-137.95 1622,-158 1622,-158 1622,-158 1853.58,-158 1853.58,-158"/>
<polygon fill="black" stroke="black" points="1853.58,-161.5 1863.58,-158 1853.58,-154.5 1853.58,-161.5"/>
</g>
<!-- DashboardUc -->
<g id="node15" class="node">
<title>DashboardUc</title>
<ellipse fill="#fdb462" stroke="black" cx="1432" cy="-104" rx="64.25" ry="18"/>
<text text-anchor="middle" x="1432" y="-99.8" font-family="Times,serif" font-size="14.00">DashboardUc</text>
</g>
<!-- DashboardUc&#45;&gt;LearnroomApiModule -->
<g id="edge14" class="edge">
<title>DashboardUc&#45;&gt;LearnroomApiModule</title>
<path fill="none" stroke="black" d="M1432,-122.04C1432,-138.73 1432,-161 1432,-161 1432,-161 1853.73,-161 1853.73,-161"/>
<polygon fill="black" stroke="black" points="1853.73,-164.5 1863.73,-161 1853.73,-157.5 1853.73,-164.5"/>
</g>
<!-- LegacyBoardRepo -->
<g id="node16" class="node">
<title>LegacyBoardRepo</title>
<ellipse fill="#fdb462" stroke="black" cx="1266" cy="-104" rx="83.37" ry="18"/>
<text text-anchor="middle" x="1266" y="-99.8" font-family="Times,serif" font-size="14.00">LegacyBoardRepo</text>
</g>
<!-- LegacyBoardRepo&#45;&gt;LearnroomApiModule -->
<g id="edge15" class="edge">
<title>LegacyBoardRepo&#45;&gt;LearnroomApiModule</title>
<path fill="none" stroke="black" d="M1266,-122.3C1266,-140.27 1266,-165 1266,-165 1266,-165 1853.72,-165 1853.72,-165"/>
<polygon fill="black" stroke="black" points="1853.72,-168.5 1863.72,-165 1853.72,-161.5 1853.72,-168.5"/>
</g>
<!-- LessonCopyUC -->
<g id="node17" class="node">
<title>LessonCopyUC</title>
<ellipse fill="#fdb462" stroke="black" cx="1092" cy="-104" rx="72.96" ry="18"/>
<text text-anchor="middle" x="1092" y="-99.8" font-family="Times,serif" font-size="14.00">LessonCopyUC</text>
</g>
<!-- LessonCopyUC&#45;&gt;LearnroomApiModule -->
<g id="edge16" class="edge">
<title>LessonCopyUC&#45;&gt;LearnroomApiModule</title>
<path fill="none" stroke="black" d="M1092,-122.17C1092,-141.09 1092,-168 1092,-168 1092,-168 1853.49,-168 1853.49,-168"/>
<polygon fill="black" stroke="black" points="1853.49,-171.5 1863.49,-168 1853.49,-164.5 1853.49,-171.5"/>
</g>
<!-- RoomBoardDTOFactory -->
<g id="node18" class="node">
<title>RoomBoardDTOFactory</title>
<ellipse fill="#fdb462" stroke="black" cx="894" cy="-104" rx="107.67" ry="18"/>
<text text-anchor="middle" x="894" y="-99.8" font-family="Times,serif" font-size="14.00">RoomBoardDTOFactory</text>
</g>
<!-- RoomBoardDTOFactory&#45;&gt;LearnroomApiModule -->
<g id="edge17" class="edge">
<title>RoomBoardDTOFactory&#45;&gt;LearnroomApiModule</title>
<path fill="none" stroke="black" d="M894,-122.31C894,-142.15 894,-171 894,-171 894,-171 1853.45,-171 1853.45,-171"/>
<polygon fill="black" stroke="black" points="1853.45,-174.5 1863.45,-171 1853.45,-167.5 1853.45,-174.5"/>
</g>
<!-- RoomBoardResponseMapper -->
<g id="node19" class="node">
<title>RoomBoardResponseMapper</title>
<ellipse fill="#fdb462" stroke="black" cx="643" cy="-104" rx="125.07" ry="18"/>
<text text-anchor="middle" x="643" y="-99.8" font-family="Times,serif" font-size="14.00">RoomBoardResponseMapper</text>
</g>
<!-- RoomBoardResponseMapper&#45;&gt;LearnroomApiModule -->
<g id="edge18" class="edge">
<title>RoomBoardResponseMapper&#45;&gt;LearnroomApiModule</title>
<path fill="none" stroke="black" d="M643,-122.03C643,-142.77 643,-174 643,-174 643,-174 1853.7,-174 1853.7,-174"/>
<polygon fill="black" stroke="black" points="1853.7,-177.5 1863.7,-174 1853.7,-170.5 1853.7,-177.5"/>
</g>
<!-- RoomsAuthorisationService -->
<g id="node20" class="node">
<title>RoomsAuthorisationService</title>
<ellipse fill="#fdb462" stroke="black" cx="379" cy="-104" rx="120.42" ry="18"/>
<text text-anchor="middle" x="379" y="-99.8" font-family="Times,serif" font-size="14.00">RoomsAuthorisationService</text>
</g>
<!-- RoomsAuthorisationService&#45;&gt;LearnroomApiModule -->
<g id="edge19" class="edge">
<title>RoomsAuthorisationService&#45;&gt;LearnroomApiModule</title>
<path fill="none" stroke="black" d="M379,-122.29C379,-144.21 379,-178 379,-178 379,-178 1853.59,-178 1853.59,-178"/>
<polygon fill="black" stroke="black" points="1853.59,-181.5 1863.59,-178 1853.59,-174.5 1853.59,-181.5"/>
</g>
<!-- RoomsUc -->
<g id="node21" class="node">
<title>RoomsUc</title>
<ellipse fill="#fdb462" stroke="black" cx="191" cy="-104" rx="49.82" ry="18"/>
<text text-anchor="middle" x="191" y="-99.8" font-family="Times,serif" font-size="14.00">RoomsUc</text>
</g>
<!-- RoomsUc&#45;&gt;LearnroomApiModule -->
<g id="edge20" class="edge">
<title>RoomsUc&#45;&gt;LearnroomApiModule</title>
<path fill="none" stroke="black" d="M191,-122.25C191,-145.02 191,-181 191,-181 191,-181 1853.66,-181 1853.66,-181"/>
<polygon fill="black" stroke="black" points="1853.66,-184.5 1863.66,-181 1853.66,-177.5 1853.66,-184.5"/>
</g>
<!-- UserRepo -->
<g id="node22" class="node">
<title>UserRepo</title>
<ellipse fill="#fdb462" stroke="black" cx="74" cy="-104" rx="49.8" ry="18"/>
<text text-anchor="middle" x="74" y="-99.8" font-family="Times,serif" font-size="14.00">UserRepo</text>
</g>
<!-- UserRepo&#45;&gt;LearnroomApiModule -->
<g id="edge21" class="edge">
<title>UserRepo&#45;&gt;LearnroomApiModule</title>
<path fill="none" stroke="black" d="M74,-122.15C74,-145.76 74,-184 74,-184 74,-184 1853.75,-184 1853.75,-184"/>
<polygon fill="black" stroke="black" points="1853.75,-187.5 1863.75,-184 1853.75,-180.5 1853.75,-187.5"/>
</g>
</g>
</svg>
