<?xml version="1.0" encoding="UTF-8" standalone="no"?>
<!DOCTYPE svg PUBLIC "-//W3C//DTD SVG 1.1//EN"
 "http://www.w3.org/Graphics/SVG/1.1/DTD/svg11.dtd">
<!-- Generated by graphviz version 2.47.0 (20210316.0004)
 -->
<!-- Title: dependencies Pages: 1 -->
<svg width="3453pt" height="211pt"
 viewBox="0.00 0.00 3453.00 211.00" xmlns="http://www.w3.org/2000/svg" xmlns:xlink="http://www.w3.org/1999/xlink">
<g id="graph0" class="graph" transform="scale(1 1) rotate(0) translate(4 207)">
<title>dependencies</title>
<polygon fill="white" stroke="transparent" points="-4,4 -4,-207 3449,-207 3449,4 -4,4"/>
<text text-anchor="start" x="1701.51" y="-42.4" font-family="Times-12" font-weight="bold" font-size="14.00">Legend</text>
<polygon fill="#ffffb3" stroke="transparent" points="1488.5,-10 1488.5,-30 1508.5,-30 1508.5,-10 1488.5,-10"/>
<text text-anchor="start" x="1512.13" y="-15.4" font-family="Times-12" font-size="14.00"> &#160;Declarations</text>
<polygon fill="#8dd3c7" stroke="transparent" points="1601.5,-10 1601.5,-30 1621.5,-30 1621.5,-10 1601.5,-10"/>
<text text-anchor="start" x="1625.23" y="-15.4" font-family="Times-12" font-size="14.00"> &#160;Module</text>
<polygon fill="#80b1d3" stroke="transparent" points="1687.5,-10 1687.5,-30 1707.5,-30 1707.5,-10 1687.5,-10"/>
<text text-anchor="start" x="1711.28" y="-15.4" font-family="Times-12" font-size="14.00"> &#160;Bootstrap</text>
<polygon fill="#fdb462" stroke="transparent" points="1784.5,-10 1784.5,-30 1804.5,-30 1804.5,-10 1784.5,-10"/>
<text text-anchor="start" x="1808.17" y="-15.4" font-family="Times-12" font-size="14.00"> &#160;Providers</text>
<polygon fill="#fb8072" stroke="transparent" points="1880.5,-10 1880.5,-30 1900.5,-30 1900.5,-10 1880.5,-10"/>
<text text-anchor="start" x="1904.23" y="-15.4" font-family="Times-12" font-size="14.00"> &#160;Exports</text>
<g id="clust1" class="cluster">
<title>cluster_LearnroomApiModule</title>
<polygon fill="none" stroke="black" stroke-dasharray="1,5" points="8,-70 8,-195 3437,-195 3437,-70 8,-70"/>
</g>
<g id="clust3" class="cluster">
<title>cluster_LearnroomApiModule_imports</title>
<polygon fill="none" stroke="black" points="2660,-78 2660,-130 3429,-130 3429,-78 2660,-78"/>
</g>
<g id="clust6" class="cluster">
<title>cluster_LearnroomApiModule_providers</title>
<polygon fill="none" stroke="black" points="16,-78 16,-130 2652,-130 2652,-78 16,-78"/>
</g>
<!-- AuthorizationModule -->
<g id="node1" class="node">
<title>AuthorizationModule</title>
<polygon fill="#8dd3c7" stroke="black" points="3420.81,-122 3417.81,-126 3396.81,-126 3393.81,-122 3283.19,-122 3283.19,-86 3420.81,-86 3420.81,-122"/>
<text text-anchor="middle" x="3352" y="-99.8" font-family="Times,serif" font-size="14.00">AuthorizationModule</text>
</g>
<!-- LearnroomApiModule -->
<g id="node6" class="node">
<title>LearnroomApiModule</title>
<polygon fill="#8dd3c7" stroke="black" points="1937.24,-187 1934.24,-191 1913.24,-191 1910.24,-187 1794.76,-187 1794.76,-151 1937.24,-151 1937.24,-187"/>
<text text-anchor="middle" x="1866" y="-164.8" font-family="Times,serif" font-size="14.00">LearnroomApiModule</text>
</g>
<!-- AuthorizationModule&#45;&gt;LearnroomApiModule -->
<g id="edge1" class="edge">
<title>AuthorizationModule&#45;&gt;LearnroomApiModule</title>
<path fill="none" stroke="black" d="M3352,-122.15C3352,-145.76 3352,-184 3352,-184 3352,-184 1947.67,-184 1947.67,-184"/>
<polygon fill="black" stroke="black" points="1947.67,-180.5 1937.67,-184 1947.67,-187.5 1947.67,-180.5"/>
</g>
<!-- AuthorizationReferenceModule -->
<g id="node2" class="node">
<title>AuthorizationReferenceModule</title>
<polygon fill="#8dd3c7" stroke="black" points="3265.04,-122 3262.04,-126 3241.04,-126 3238.04,-122 3070.96,-122 3070.96,-86 3265.04,-86 3265.04,-122"/>
<text text-anchor="middle" x="3168" y="-99.8" font-family="Times,serif" font-size="14.00">AuthorizationReferenceModule</text>
</g>
<!-- AuthorizationReferenceModule&#45;&gt;LearnroomApiModule -->
<g id="edge2" class="edge">
<title>AuthorizationReferenceModule&#45;&gt;LearnroomApiModule</title>
<path fill="none" stroke="black" d="M3168,-122.01C3168,-144.49 3168,-180 3168,-180 3168,-180 1947.39,-180 1947.39,-180"/>
<polygon fill="black" stroke="black" points="1947.39,-176.5 1937.39,-180 1947.39,-183.5 1947.39,-176.5"/>
</g>
<!-- CopyHelperModule -->
<g id="node3" class="node">
<title>CopyHelperModule</title>
<polygon fill="#8dd3c7" stroke="black" points="3052.97,-122 3049.97,-126 3028.97,-126 3025.97,-122 2925.03,-122 2925.03,-86 3052.97,-86 3052.97,-122"/>
<text text-anchor="middle" x="2989" y="-99.8" font-family="Times,serif" font-size="14.00">CopyHelperModule</text>
</g>
<!-- CopyHelperModule&#45;&gt;LearnroomApiModule -->
<g id="edge3" class="edge">
<title>CopyHelperModule&#45;&gt;LearnroomApiModule</title>
<path fill="none" stroke="black" d="M2989,-122.04C2989,-143.66 2989,-177 2989,-177 2989,-177 1947.53,-177 1947.53,-177"/>
<polygon fill="black" stroke="black" points="1947.53,-173.5 1937.53,-177 1947.53,-180.5 1947.53,-173.5"/>
</g>
<!-- LearnroomModule -->
<g id="node4" class="node">
<title>LearnroomModule</title>
<polygon fill="#8dd3c7" stroke="black" points="2906.74,-122 2903.74,-126 2882.74,-126 2879.74,-122 2785.26,-122 2785.26,-86 2906.74,-86 2906.74,-122"/>
<text text-anchor="middle" x="2846" y="-99.8" font-family="Times,serif" font-size="14.00">LearnroomModule</text>
</g>
<!-- LearnroomModule&#45;&gt;LearnroomApiModule -->
<g id="edge4" class="edge">
<title>LearnroomModule&#45;&gt;LearnroomApiModule</title>
<path fill="none" stroke="black" d="M2846,-122.13C2846,-142.57 2846,-173 2846,-173 2846,-173 1947.27,-173 1947.27,-173"/>
<polygon fill="black" stroke="black" points="1947.27,-169.5 1937.27,-173 1947.27,-176.5 1947.27,-169.5"/>
</g>
<!-- LessonModule -->
<g id="node5" class="node">
<title>LessonModule</title>
<polygon fill="#8dd3c7" stroke="black" points="2767.71,-122 2764.71,-126 2743.71,-126 2740.71,-122 2668.29,-122 2668.29,-86 2767.71,-86 2767.71,-122"/>
<text text-anchor="middle" x="2718" y="-99.8" font-family="Times,serif" font-size="14.00">LessonModule</text>
</g>
<!-- LessonModule&#45;&gt;LearnroomApiModule -->
<g id="edge5" class="edge">
<title>LessonModule&#45;&gt;LearnroomApiModule</title>
<path fill="none" stroke="black" d="M2718,-122.11C2718,-141.34 2718,-169 2718,-169 2718,-169 1947.54,-169 1947.54,-169"/>
<polygon fill="black" stroke="black" points="1947.54,-165.5 1937.54,-169 1947.54,-172.5 1947.54,-165.5"/>
</g>
<!-- CourseCopyUC -->
<g id="node7" class="node">
<title>CourseCopyUC</title>
<ellipse fill="#fdb462" stroke="black" cx="2571" cy="-104" rx="72.96" ry="18"/>
<text text-anchor="middle" x="2571" y="-99.8" font-family="Times,serif" font-size="14.00">CourseCopyUC</text>
</g>
<!-- CourseCopyUC&#45;&gt;LearnroomApiModule -->
<g id="edge6" class="edge">
<title>CourseCopyUC&#45;&gt;LearnroomApiModule</title>
<path fill="none" stroke="black" d="M2571,-122.27C2571,-140.56 2571,-166 2571,-166 2571,-166 1947.48,-166 1947.48,-166"/>
<polygon fill="black" stroke="black" points="1947.48,-162.5 1937.48,-166 1947.48,-169.5 1947.48,-162.5"/>
</g>
<!-- CourseExportUc -->
<g id="node8" class="node">
<title>CourseExportUc</title>
<ellipse fill="#fdb462" stroke="black" cx="2404" cy="-104" rx="75.86" ry="18"/>
<text text-anchor="middle" x="2404" y="-99.8" font-family="Times,serif" font-size="14.00">CourseExportUc</text>
</g>
<!-- CourseExportUc&#45;&gt;LearnroomApiModule -->
<g id="edge7" class="edge">
<title>CourseExportUc&#45;&gt;LearnroomApiModule</title>
<path fill="none" stroke="black" d="M2404,-122.03C2404,-139.06 2404,-162 2404,-162 2404,-162 1947.44,-162 1947.44,-162"/>
<polygon fill="black" stroke="black" points="1947.44,-158.5 1937.44,-162 1947.44,-165.5 1947.44,-158.5"/>
</g>
<!-- CourseImportUc -->
<g id="node9" class="node">
<title>CourseImportUc</title>
<ellipse fill="#fdb462" stroke="black" cx="2234" cy="-104" rx="75.86" ry="18"/>
<text text-anchor="middle" x="2234" y="-99.8" font-family="Times,serif" font-size="14.00">CourseImportUc</text>
</g>
<!-- CourseImportUc&#45;&gt;LearnroomApiModule -->
<g id="edge8" class="edge">
<title>CourseImportUc&#45;&gt;LearnroomApiModule</title>
<path fill="none" stroke="black" d="M2234,-122.01C2234,-138.05 2234,-159 2234,-159 2234,-159 1947.39,-159 1947.39,-159"/>
<polygon fill="black" stroke="black" points="1947.39,-155.5 1937.39,-159 1947.39,-162.5 1947.39,-155.5"/>
</g>
<!-- CourseRepo -->
<g id="node10" class="node">
<title>CourseRepo</title>
<ellipse fill="#fdb462" stroke="black" cx="2081" cy="-104" rx="58.55" ry="18"/>
<text text-anchor="middle" x="2081" y="-99.8" font-family="Times,serif" font-size="14.00">CourseRepo</text>
</g>
<!-- CourseRepo&#45;&gt;LearnroomApiModule -->
<g id="edge9" class="edge">
<title>CourseRepo&#45;&gt;LearnroomApiModule</title>
<path fill="none" stroke="black" d="M2081,-122.12C2081,-136.78 2081,-155 2081,-155 2081,-155 1947.29,-155 1947.29,-155"/>
<polygon fill="black" stroke="black" points="1947.29,-151.5 1937.29,-155 1947.29,-158.5 1947.29,-151.5"/>
</g>
<!-- CourseSyncUc -->
<g id="node11" class="node">
<title>CourseSyncUc</title>
<ellipse fill="#fdb462" stroke="black" cx="1935" cy="-104" rx="68.92" ry="18"/>
<text text-anchor="middle" x="1935" y="-99.8" font-family="Times,serif" font-size="14.00">CourseSyncUc</text>
</g>
<!-- CourseSyncUc&#45;&gt;LearnroomApiModule -->
<g id="edge10" class="edge">
<title>CourseSyncUc&#45;&gt;LearnroomApiModule</title>
<path fill="none" stroke="black" d="M1901.7,-120.07C1901.7,-120.07 1901.7,-140.82 1901.7,-140.82"/>
<polygon fill="black" stroke="black" points="1898.2,-140.82 1901.7,-150.82 1905.2,-140.82 1898.2,-140.82"/>
</g>
<!-- CourseUc -->
<g id="node12" class="node">
<title>CourseUc</title>
<ellipse fill="#fdb462" stroke="black" cx="1798" cy="-104" rx="49.8" ry="18"/>
<text text-anchor="middle" x="1798" y="-99.8" font-family="Times,serif" font-size="14.00">CourseUc</text>
</g>
<!-- CourseUc&#45;&gt;LearnroomApiModule -->
<g id="edge11" class="edge">
<title>CourseUc&#45;&gt;LearnroomApiModule</title>
<path fill="none" stroke="black" d="M1821.14,-120.07C1821.14,-120.07 1821.14,-140.82 1821.14,-140.82"/>
<polygon fill="black" stroke="black" points="1817.64,-140.82 1821.14,-150.82 1824.64,-140.82 1817.64,-140.82"/>
</g>
<!-- DashboardModelMapper -->
<g id="node13" class="node">
<title>DashboardModelMapper</title>
<ellipse fill="#fdb462" stroke="black" cx="1622" cy="-104" rx="108.21" ry="18"/>
<text text-anchor="middle" x="1622" y="-99.8" font-family="Times,serif" font-size="14.00">DashboardModelMapper</text>
</g>
<!-- DashboardModelMapper&#45;&gt;LearnroomApiModule -->
<g id="edge12" class="edge">
<title>DashboardModelMapper&#45;&gt;LearnroomApiModule</title>
<path fill="none" stroke="black" d="M1622,-122.12C1622,-136.78 1622,-155 1622,-155 1622,-155 1784.44,-155 1784.44,-155"/>
<polygon fill="black" stroke="black" points="1784.44,-158.5 1794.44,-155 1784.44,-151.5 1784.44,-158.5"/>
</g>
<!-- DashboardUc -->
<g id="node14" class="node">
<title>DashboardUc</title>
<ellipse fill="#fdb462" stroke="black" cx="1432" cy="-104" rx="64.25" ry="18"/>
<text text-anchor="middle" x="1432" y="-99.8" font-family="Times,serif" font-size="14.00">DashboardUc</text>
</g>
<!-- DashboardUc&#45;&gt;LearnroomApiModule -->
<g id="edge13" class="edge">
<title>DashboardUc&#45;&gt;LearnroomApiModule</title>
<path fill="none" stroke="black" d="M1432,-122.01C1432,-138.05 1432,-159 1432,-159 1432,-159 1784.33,-159 1784.33,-159"/>
<polygon fill="black" stroke="black" points="1784.33,-162.5 1794.33,-159 1784.33,-155.5 1784.33,-162.5"/>
</g>
<!-- LegacyBoardRepo -->
<g id="node15" class="node">
<title>LegacyBoardRepo</title>
<ellipse fill="#fdb462" stroke="black" cx="1266" cy="-104" rx="83.37" ry="18"/>
<text text-anchor="middle" x="1266" y="-99.8" font-family="Times,serif" font-size="14.00">LegacyBoardRepo</text>
</g>
<!-- LegacyBoardRepo&#45;&gt;LearnroomApiModule -->
<g id="edge14" class="edge">
<title>LegacyBoardRepo&#45;&gt;LearnroomApiModule</title>
<path fill="none" stroke="black" d="M1266,-122.03C1266,-139.06 1266,-162 1266,-162 1266,-162 1784.52,-162 1784.52,-162"/>
<polygon fill="black" stroke="black" points="1784.52,-165.5 1794.52,-162 1784.52,-158.5 1784.52,-165.5"/>
</g>
<!-- LessonCopyUC -->
<g id="node16" class="node">
<title>LessonCopyUC</title>
<ellipse fill="#fdb462" stroke="black" cx="1092" cy="-104" rx="72.96" ry="18"/>
<text text-anchor="middle" x="1092" y="-99.8" font-family="Times,serif" font-size="14.00">LessonCopyUC</text>
</g>
<!-- LessonCopyUC&#45;&gt;LearnroomApiModule -->
<g id="edge15" class="edge">
<title>LessonCopyUC&#45;&gt;LearnroomApiModule</title>
<path fill="none" stroke="black" d="M1092,-122.27C1092,-140.56 1092,-166 1092,-166 1092,-166 1784.57,-166 1784.57,-166"/>
<polygon fill="black" stroke="black" points="1784.57,-169.5 1794.57,-166 1784.57,-162.5 1784.57,-169.5"/>
</g>
<!-- RoomBoardDTOFactory -->
<g id="node17" class="node">
<title>RoomBoardDTOFactory</title>
<ellipse fill="#fdb462" stroke="black" cx="894" cy="-104" rx="107.67" ry="18"/>
<text text-anchor="middle" x="894" y="-99.8" font-family="Times,serif" font-size="14.00">RoomBoardDTOFactory</text>
</g>
<!-- RoomBoardDTOFactory&#45;&gt;LearnroomApiModule -->
<g id="edge16" class="edge">
<title>RoomBoardDTOFactory&#45;&gt;LearnroomApiModule</title>
<path fill="none" stroke="black" d="M894,-122.11C894,-141.34 894,-169 894,-169 894,-169 1784.53,-169 1784.53,-169"/>
<polygon fill="black" stroke="black" points="1784.53,-172.5 1794.53,-169 1784.53,-165.5 1784.53,-172.5"/>
</g>
<!-- RoomBoardResponseMapper -->
<g id="node18" class="node">
<title>RoomBoardResponseMapper</title>
<ellipse fill="#fdb462" stroke="black" cx="643" cy="-104" rx="125.07" ry="18"/>
<text text-anchor="middle" x="643" y="-99.8" font-family="Times,serif" font-size="14.00">RoomBoardResponseMapper</text>
</g>
<!-- RoomBoardResponseMapper&#45;&gt;LearnroomApiModule -->
<g id="edge17" class="edge">
<title>RoomBoardResponseMapper&#45;&gt;LearnroomApiModule</title>
<path fill="none" stroke="black" d="M643,-122.13C643,-142.57 643,-173 643,-173 643,-173 1784.51,-173 1784.51,-173"/>
<polygon fill="black" stroke="black" points="1784.51,-176.5 1794.51,-173 1784.51,-169.5 1784.51,-176.5"/>
</g>
<!-- RoomsAuthorisationService -->
<g id="node19" class="node">
<title>RoomsAuthorisationService</title>
<ellipse fill="#fdb462" stroke="black" cx="379" cy="-104" rx="120.42" ry="18"/>
<text text-anchor="middle" x="379" y="-99.8" font-family="Times,serif" font-size="14.00">RoomsAuthorisationService</text>
</g>
<!-- RoomsAuthorisationService&#45;&gt;LearnroomApiModule -->
<g id="edge18" class="edge">
<title>RoomsAuthorisationService&#45;&gt;LearnroomApiModule</title>
<path fill="none" stroke="black" d="M379,-122.04C379,-143.66 379,-177 379,-177 379,-177 1784.28,-177 1784.28,-177"/>
<polygon fill="black" stroke="black" points="1784.28,-180.5 1794.28,-177 1784.28,-173.5 1784.28,-180.5"/>
</g>
<!-- RoomsUc -->
<g id="node20" class="node">
<title>RoomsUc</title>
<ellipse fill="#fdb462" stroke="black" cx="191" cy="-104" rx="49.82" ry="18"/>
<text text-anchor="middle" x="191" y="-99.8" font-family="Times,serif" font-size="14.00">RoomsUc</text>
</g>
<!-- RoomsUc&#45;&gt;LearnroomApiModule -->
<g id="edge19" class="edge">
<title>RoomsUc&#45;&gt;LearnroomApiModule</title>
<path fill="none" stroke="black" d="M191,-122.01C191,-144.49 191,-180 191,-180 191,-180 1784.56,-180 1784.56,-180"/>
<polygon fill="black" stroke="black" points="1784.56,-183.5 1794.56,-180 1784.56,-176.5 1784.56,-183.5"/>
</g>
<!-- UserRepo -->
<g id="node21" class="node">
<title>UserRepo</title>
<ellipse fill="#fdb462" stroke="black" cx="74" cy="-104" rx="49.8" ry="18"/>
<text text-anchor="middle" x="74" y="-99.8" font-family="Times,serif" font-size="14.00">UserRepo</text>
</g>
<!-- UserRepo&#45;&gt;LearnroomApiModule -->
<g id="edge20" class="edge">
<title>UserRepo&#45;&gt;LearnroomApiModule</title>
<path fill="none" stroke="black" d="M74,-122.15C74,-145.76 74,-184 74,-184 74,-184 1784.65,-184 1784.65,-184"/>
<polygon fill="black" stroke="black" points="1784.65,-187.5 1794.65,-184 1784.65,-180.5 1784.65,-187.5"/>
</g>
</g>
</svg>
