<?xml version="1.0" encoding="UTF-8" standalone="no"?>
<!DOCTYPE svg PUBLIC "-//W3C//DTD SVG 1.1//EN"
 "http://www.w3.org/Graphics/SVG/1.1/DTD/svg11.dtd">
<!-- Generated by graphviz version 2.47.0 (20210316.0004)
 -->
<!-- Title: dependencies Pages: 1 -->
<svg width="3205pt" height="211pt"
 viewBox="0.00 0.00 3205.00 211.00" xmlns="http://www.w3.org/2000/svg" xmlns:xlink="http://www.w3.org/1999/xlink">
<g id="graph0" class="graph" transform="scale(1 1) rotate(0) translate(4 207)">
<title>dependencies</title>
<polygon fill="white" stroke="transparent" points="-4,4 -4,-207 3201,-207 3201,4 -4,4"/>
<text text-anchor="start" x="1577.51" y="-42.4" font-family="Times-12" font-weight="bold" font-size="14.00">Legend</text>
<polygon fill="#ffffb3" stroke="transparent" points="1364.5,-10 1364.5,-30 1384.5,-30 1384.5,-10 1364.5,-10"/>
<text text-anchor="start" x="1388.13" y="-15.4" font-family="Times-12" font-size="14.00"> &#160;Declarations</text>
<polygon fill="#8dd3c7" stroke="transparent" points="1477.5,-10 1477.5,-30 1497.5,-30 1497.5,-10 1477.5,-10"/>
<text text-anchor="start" x="1501.23" y="-15.4" font-family="Times-12" font-size="14.00"> &#160;Module</text>
<polygon fill="#80b1d3" stroke="transparent" points="1563.5,-10 1563.5,-30 1583.5,-30 1583.5,-10 1563.5,-10"/>
<text text-anchor="start" x="1587.28" y="-15.4" font-family="Times-12" font-size="14.00"> &#160;Bootstrap</text>
<polygon fill="#fdb462" stroke="transparent" points="1660.5,-10 1660.5,-30 1680.5,-30 1680.5,-10 1660.5,-10"/>
<text text-anchor="start" x="1684.17" y="-15.4" font-family="Times-12" font-size="14.00"> &#160;Providers</text>
<polygon fill="#fb8072" stroke="transparent" points="1756.5,-10 1756.5,-30 1776.5,-30 1776.5,-10 1756.5,-10"/>
<text text-anchor="start" x="1780.23" y="-15.4" font-family="Times-12" font-size="14.00"> &#160;Exports</text>
<g id="clust1" class="cluster">
<title>cluster_LearnroomApiModule</title>
<polygon fill="none" stroke="black" stroke-dasharray="1,5" points="8,-70 8,-195 3189,-195 3189,-70 8,-70"/>
</g>
<g id="clust3" class="cluster">
<title>cluster_LearnroomApiModule_imports</title>
<polygon fill="none" stroke="black" points="2412,-78 2412,-130 3181,-130 3181,-78 2412,-78"/>
</g>
<g id="clust6" class="cluster">
<title>cluster_LearnroomApiModule_providers</title>
<polygon fill="none" stroke="black" points="16,-78 16,-130 2404,-130 2404,-78 16,-78"/>
</g>
<!-- AuthorizationModule -->
<g id="node1" class="node">
<title>AuthorizationModule</title>
<polygon fill="#8dd3c7" stroke="black" points="3172.81,-122 3169.81,-126 3148.81,-126 3145.81,-122 3035.19,-122 3035.19,-86 3172.81,-86 3172.81,-122"/>
<text text-anchor="middle" x="3104" y="-99.8" font-family="Times,serif" font-size="14.00">AuthorizationModule</text>
</g>
<!-- LearnroomApiModule -->
<g id="node6" class="node">
<title>LearnroomApiModule</title>
<polygon fill="#8dd3c7" stroke="black" points="1820.24,-187 1817.24,-191 1796.24,-191 1793.24,-187 1677.76,-187 1677.76,-151 1820.24,-151 1820.24,-187"/>
<text text-anchor="middle" x="1749" y="-164.8" font-family="Times,serif" font-size="14.00">LearnroomApiModule</text>
</g>
<!-- AuthorizationModule&#45;&gt;LearnroomApiModule -->
<g id="edge1" class="edge">
<title>AuthorizationModule&#45;&gt;LearnroomApiModule</title>
<path fill="none" stroke="black" d="M3104,-122.32C3104,-145.66 3104,-183 3104,-183 3104,-183 1830.42,-183 1830.42,-183"/>
<polygon fill="black" stroke="black" points="1830.42,-179.5 1820.42,-183 1830.42,-186.5 1830.42,-179.5"/>
</g>
<!-- AuthorizationReferenceModule -->
<g id="node2" class="node">
<title>AuthorizationReferenceModule</title>
<polygon fill="#8dd3c7" stroke="black" points="3017.04,-122 3014.04,-126 2993.04,-126 2990.04,-122 2822.96,-122 2822.96,-86 3017.04,-86 3017.04,-122"/>
<text text-anchor="middle" x="2920" y="-99.8" font-family="Times,serif" font-size="14.00">AuthorizationReferenceModule</text>
</g>
<!-- AuthorizationReferenceModule&#45;&gt;LearnroomApiModule -->
<g id="edge2" class="edge">
<title>AuthorizationReferenceModule&#45;&gt;LearnroomApiModule</title>
<path fill="none" stroke="black" d="M2920,-122.16C2920,-144.35 2920,-179 2920,-179 2920,-179 1830.49,-179 1830.49,-179"/>
<polygon fill="black" stroke="black" points="1830.49,-175.5 1820.49,-179 1830.49,-182.5 1830.49,-175.5"/>
</g>
<!-- CopyHelperModule -->
<g id="node3" class="node">
<title>CopyHelperModule</title>
<polygon fill="#8dd3c7" stroke="black" points="2804.97,-122 2801.97,-126 2780.97,-126 2777.97,-122 2677.03,-122 2677.03,-86 2804.97,-86 2804.97,-122"/>
<text text-anchor="middle" x="2741" y="-99.8" font-family="Times,serif" font-size="14.00">CopyHelperModule</text>
</g>
<!-- CopyHelperModule&#45;&gt;LearnroomApiModule -->
<g id="edge3" class="edge">
<title>CopyHelperModule&#45;&gt;LearnroomApiModule</title>
<path fill="none" stroke="black" d="M2741,-122.28C2741,-143.32 2741,-175 2741,-175 2741,-175 1830.34,-175 1830.34,-175"/>
<polygon fill="black" stroke="black" points="1830.34,-171.5 1820.34,-175 1830.34,-178.5 1830.34,-171.5"/>
</g>
<!-- LearnroomModule -->
<g id="node4" class="node">
<title>LearnroomModule</title>
<polygon fill="#8dd3c7" stroke="black" points="2658.74,-122 2655.74,-126 2634.74,-126 2631.74,-122 2537.26,-122 2537.26,-86 2658.74,-86 2658.74,-122"/>
<text text-anchor="middle" x="2598" y="-99.8" font-family="Times,serif" font-size="14.00">LearnroomModule</text>
</g>
<!-- LearnroomModule&#45;&gt;LearnroomApiModule -->
<g id="edge4" class="edge">
<title>LearnroomModule&#45;&gt;LearnroomApiModule</title>
<path fill="none" stroke="black" d="M2598,-122.31C2598,-142.15 2598,-171 2598,-171 2598,-171 1830.29,-171 1830.29,-171"/>
<polygon fill="black" stroke="black" points="1830.29,-167.5 1820.29,-171 1830.29,-174.5 1830.29,-167.5"/>
</g>
<!-- LessonModule -->
<g id="node5" class="node">
<title>LessonModule</title>
<polygon fill="#8dd3c7" stroke="black" points="2519.71,-122 2516.71,-126 2495.71,-126 2492.71,-122 2420.29,-122 2420.29,-86 2519.71,-86 2519.71,-122"/>
<text text-anchor="middle" x="2470" y="-99.8" font-family="Times,serif" font-size="14.00">LessonModule</text>
</g>
<!-- LessonModule&#45;&gt;LearnroomApiModule -->
<g id="edge5" class="edge">
<title>LessonModule&#45;&gt;LearnroomApiModule</title>
<path fill="none" stroke="black" d="M2470,-122.22C2470,-140.83 2470,-167 2470,-167 2470,-167 1830.44,-167 1830.44,-167"/>
<polygon fill="black" stroke="black" points="1830.44,-163.5 1820.44,-167 1830.44,-170.5 1830.44,-163.5"/>
</g>
<!-- BoardRepo -->
<g id="node7" class="node">
<title>BoardRepo</title>
<ellipse fill="#fdb462" stroke="black" cx="2341" cy="-104" rx="55.04" ry="18"/>
<text text-anchor="middle" x="2341" y="-99.8" font-family="Times,serif" font-size="14.00">BoardRepo</text>
</g>
<!-- BoardRepo&#45;&gt;LearnroomApiModule -->
<g id="edge6" class="edge">
<title>BoardRepo&#45;&gt;LearnroomApiModule</title>
<path fill="none" stroke="black" d="M2341,-122.02C2341,-139.37 2341,-163 2341,-163 2341,-163 1830.41,-163 1830.41,-163"/>
<polygon fill="black" stroke="black" points="1830.41,-159.5 1820.41,-163 1830.41,-166.5 1830.41,-159.5"/>
</g>
<!-- CourseCopyUC -->
<g id="node8" class="node">
<title>CourseCopyUC</title>
<ellipse fill="#fdb462" stroke="black" cx="2195" cy="-104" rx="72.96" ry="18"/>
<text text-anchor="middle" x="2195" y="-99.8" font-family="Times,serif" font-size="14.00">CourseCopyUC</text>
</g>
<!-- CourseCopyUC&#45;&gt;LearnroomApiModule -->
<g id="edge7" class="edge">
<title>CourseCopyUC&#45;&gt;LearnroomApiModule</title>
<path fill="none" stroke="black" d="M2195,-122.01C2195,-138.05 2195,-159 2195,-159 2195,-159 1830.66,-159 1830.66,-159"/>
<polygon fill="black" stroke="black" points="1830.66,-155.5 1820.66,-159 1830.66,-162.5 1830.66,-155.5"/>
</g>
<!-- CourseExportUc -->
<g id="node9" class="node">
<title>CourseExportUc</title>
<ellipse fill="#fdb462" stroke="black" cx="2028" cy="-104" rx="75.86" ry="18"/>
<text text-anchor="middle" x="2028" y="-99.8" font-family="Times,serif" font-size="14.00">CourseExportUc</text>
</g>
<!-- CourseExportUc&#45;&gt;LearnroomApiModule -->
<g id="edge8" class="edge">
<title>CourseExportUc&#45;&gt;LearnroomApiModule</title>
<path fill="none" stroke="black" d="M2028,-122.12C2028,-136.78 2028,-155 2028,-155 2028,-155 1830.49,-155 1830.49,-155"/>
<polygon fill="black" stroke="black" points="1830.49,-151.5 1820.49,-155 1830.49,-158.5 1830.49,-151.5"/>
</g>
<!-- CourseRepo -->
<g id="node10" class="node">
<title>CourseRepo</title>
<ellipse fill="#fdb462" stroke="black" cx="1875" cy="-104" rx="58.55" ry="18"/>
<text text-anchor="middle" x="1875" y="-99.8" font-family="Times,serif" font-size="14.00">CourseRepo</text>
</g>
<!-- CourseRepo&#45;&gt;LearnroomApiModule -->
<g id="edge9" class="edge">
<title>CourseRepo&#45;&gt;LearnroomApiModule</title>
<path fill="none" stroke="black" d="M1815.99,-104C1810.79,-104 1807.44,-104 1807.44,-104 1807.44,-104 1807.44,-140.89 1807.44,-140.89"/>
<polygon fill="black" stroke="black" points="1803.94,-140.89 1807.44,-150.89 1810.94,-140.89 1803.94,-140.89"/>
</g>
<!-- CourseUc -->
<g id="node11" class="node">
<title>CourseUc</title>
<ellipse fill="#fdb462" stroke="black" cx="1749" cy="-104" rx="49.8" ry="18"/>
<text text-anchor="middle" x="1749" y="-99.8" font-family="Times,serif" font-size="14.00">CourseUc</text>
</g>
<!-- CourseUc&#45;&gt;LearnroomApiModule -->
<g id="edge10" class="edge">
<title>CourseUc&#45;&gt;LearnroomApiModule</title>
<path fill="none" stroke="black" d="M1749,-122.11C1749,-122.11 1749,-140.99 1749,-140.99"/>
<polygon fill="black" stroke="black" points="1745.5,-140.99 1749,-150.99 1752.5,-140.99 1745.5,-140.99"/>
</g>
<!-- DashboardModelMapper -->
<g id="node12" class="node">
<title>DashboardModelMapper</title>
<ellipse fill="#fdb462" stroke="black" cx="1573" cy="-104" rx="108.21" ry="18"/>
<text text-anchor="middle" x="1573" y="-99.8" font-family="Times,serif" font-size="14.00">DashboardModelMapper</text>
</g>
<!-- DashboardModelMapper&#45;&gt;LearnroomApiModule -->
<g id="edge11" class="edge">
<title>DashboardModelMapper&#45;&gt;LearnroomApiModule</title>
<path fill="none" stroke="black" d="M1681.42,-104C1686.92,-104 1690.23,-104 1690.23,-104 1690.23,-104 1690.23,-140.89 1690.23,-140.89"/>
<polygon fill="black" stroke="black" points="1686.73,-140.89 1690.23,-150.89 1693.73,-140.89 1686.73,-140.89"/>
</g>
<!-- DashboardUc -->
<g id="node13" class="node">
<title>DashboardUc</title>
<ellipse fill="#fdb462" stroke="black" cx="1383" cy="-104" rx="64.25" ry="18"/>
<text text-anchor="middle" x="1383" y="-99.8" font-family="Times,serif" font-size="14.00">DashboardUc</text>
</g>
<!-- DashboardUc&#45;&gt;LearnroomApiModule -->
<g id="edge12" class="edge">
<title>DashboardUc&#45;&gt;LearnroomApiModule</title>
<path fill="none" stroke="black" d="M1383,-122.12C1383,-136.78 1383,-155 1383,-155 1383,-155 1667.56,-155 1667.56,-155"/>
<polygon fill="black" stroke="black" points="1667.56,-158.5 1677.56,-155 1667.56,-151.5 1667.56,-158.5"/>
</g>
<!-- LessonCopyUC -->
<g id="node14" class="node">
<title>LessonCopyUC</title>
<ellipse fill="#fdb462" stroke="black" cx="1228" cy="-104" rx="72.96" ry="18"/>
<text text-anchor="middle" x="1228" y="-99.8" font-family="Times,serif" font-size="14.00">LessonCopyUC</text>
</g>
<!-- LessonCopyUC&#45;&gt;LearnroomApiModule -->
<g id="edge13" class="edge">
<title>LessonCopyUC&#45;&gt;LearnroomApiModule</title>
<path fill="none" stroke="black" d="M1228,-122.01C1228,-138.05 1228,-159 1228,-159 1228,-159 1667.65,-159 1667.65,-159"/>
<polygon fill="black" stroke="black" points="1667.65,-162.5 1677.65,-159 1667.65,-155.5 1667.65,-162.5"/>
</g>
<!-- LessonRepo -->
<g id="node15" class="node">
<title>LessonRepo</title>
<ellipse fill="#fdb462" stroke="black" cx="1078" cy="-104" rx="58.55" ry="18"/>
<text text-anchor="middle" x="1078" y="-99.8" font-family="Times,serif" font-size="14.00">LessonRepo</text>
</g>
<!-- LessonRepo&#45;&gt;LearnroomApiModule -->
<g id="edge14" class="edge">
<title>LessonRepo&#45;&gt;LearnroomApiModule</title>
<path fill="none" stroke="black" d="M1078,-122.02C1078,-139.37 1078,-163 1078,-163 1078,-163 1667.51,-163 1667.51,-163"/>
<polygon fill="black" stroke="black" points="1667.51,-166.5 1677.51,-163 1667.51,-159.5 1667.51,-166.5"/>
</g>
<!-- RoomBoardDTOFactory -->
<g id="node16" class="node">
<title>RoomBoardDTOFactory</title>
<ellipse fill="#fdb462" stroke="black" cx="894" cy="-104" rx="107.67" ry="18"/>
<text text-anchor="middle" x="894" y="-99.8" font-family="Times,serif" font-size="14.00">RoomBoardDTOFactory</text>
</g>
<!-- RoomBoardDTOFactory&#45;&gt;LearnroomApiModule -->
<g id="edge15" class="edge">
<title>RoomBoardDTOFactory&#45;&gt;LearnroomApiModule</title>
<path fill="none" stroke="black" d="M894,-122.22C894,-140.83 894,-167 894,-167 894,-167 1667.57,-167 1667.57,-167"/>
<polygon fill="black" stroke="black" points="1667.57,-170.5 1677.57,-167 1667.57,-163.5 1667.57,-170.5"/>
</g>
<!-- RoomBoardResponseMapper -->
<g id="node17" class="node">
<title>RoomBoardResponseMapper</title>
<ellipse fill="#fdb462" stroke="black" cx="643" cy="-104" rx="125.07" ry="18"/>
<text text-anchor="middle" x="643" y="-99.8" font-family="Times,serif" font-size="14.00">RoomBoardResponseMapper</text>
</g>
<!-- RoomBoardResponseMapper&#45;&gt;LearnroomApiModule -->
<g id="edge16" class="edge">
<title>RoomBoardResponseMapper&#45;&gt;LearnroomApiModule</title>
<path fill="none" stroke="black" d="M643,-122.31C643,-142.15 643,-171 643,-171 643,-171 1667.71,-171 1667.71,-171"/>
<polygon fill="black" stroke="black" points="1667.71,-174.5 1677.71,-171 1667.71,-167.5 1667.71,-174.5"/>
</g>
<!-- RoomsAuthorisationService -->
<g id="node18" class="node">
<title>RoomsAuthorisationService</title>
<ellipse fill="#fdb462" stroke="black" cx="379" cy="-104" rx="120.42" ry="18"/>
<text text-anchor="middle" x="379" y="-99.8" font-family="Times,serif" font-size="14.00">RoomsAuthorisationService</text>
</g>
<!-- RoomsAuthorisationService&#45;&gt;LearnroomApiModule -->
<g id="edge17" class="edge">
<title>RoomsAuthorisationService&#45;&gt;LearnroomApiModule</title>
<path fill="none" stroke="black" d="M379,-122.28C379,-143.32 379,-175 379,-175 379,-175 1667.75,-175 1667.75,-175"/>
<polygon fill="black" stroke="black" points="1667.75,-178.5 1677.75,-175 1667.75,-171.5 1667.75,-178.5"/>
</g>
<!-- RoomsUc -->
<g id="node19" class="node">
<title>RoomsUc</title>
<ellipse fill="#fdb462" stroke="black" cx="191" cy="-104" rx="49.82" ry="18"/>
<text text-anchor="middle" x="191" y="-99.8" font-family="Times,serif" font-size="14.00">RoomsUc</text>
</g>
<!-- RoomsUc&#45;&gt;LearnroomApiModule -->
<g id="edge18" class="edge">
<title>RoomsUc&#45;&gt;LearnroomApiModule</title>
<path fill="none" stroke="black" d="M191,-122.16C191,-144.35 191,-179 191,-179 191,-179 1667.75,-179 1667.75,-179"/>
<polygon fill="black" stroke="black" points="1667.75,-182.5 1677.75,-179 1667.75,-175.5 1667.75,-182.5"/>
</g>
<!-- UserRepo -->
<g id="node20" class="node">
<title>UserRepo</title>
<ellipse fill="#fdb462" stroke="black" cx="74" cy="-104" rx="49.8" ry="18"/>
<text text-anchor="middle" x="74" y="-99.8" font-family="Times,serif" font-size="14.00">UserRepo</text>
</g>
<!-- UserRepo&#45;&gt;LearnroomApiModule -->
<g id="edge19" class="edge">
<title>UserRepo&#45;&gt;LearnroomApiModule</title>
<path fill="none" stroke="black" d="M74,-122.32C74,-145.66 74,-183 74,-183 74,-183 1667.56,-183 1667.56,-183"/>
<polygon fill="black" stroke="black" points="1667.56,-186.5 1677.56,-183 1667.56,-179.5 1667.56,-186.5"/>
</g>
</g>
</svg>
