<?xml version="1.0" encoding="UTF-8" standalone="no"?>
<!DOCTYPE svg PUBLIC "-//W3C//DTD SVG 1.1//EN"
 "http://www.w3.org/Graphics/SVG/1.1/DTD/svg11.dtd">
<!-- Generated by graphviz version 2.47.0 (20210316.0004)
 -->
<!-- Title: dependencies Pages: 1 -->
<svg width="2993pt" height="211pt"
 viewBox="0.00 0.00 2993.00 211.00" xmlns="http://www.w3.org/2000/svg" xmlns:xlink="http://www.w3.org/1999/xlink">
<g id="graph0" class="graph" transform="scale(1 1) rotate(0) translate(4 207)">
<title>dependencies</title>
<polygon fill="white" stroke="transparent" points="-4,4 -4,-207 2989,-207 2989,4 -4,4"/>
<text text-anchor="start" x="1471.51" y="-42.4" font-family="Times-12" font-weight="bold" font-size="14.00">Legend</text>
<polygon fill="#ffffb3" stroke="transparent" points="1258.5,-10 1258.5,-30 1278.5,-30 1278.5,-10 1258.5,-10"/>
<text text-anchor="start" x="1282.13" y="-15.4" font-family="Times-12" font-size="14.00"> &#160;Declarations</text>
<polygon fill="#8dd3c7" stroke="transparent" points="1371.5,-10 1371.5,-30 1391.5,-30 1391.5,-10 1371.5,-10"/>
<text text-anchor="start" x="1395.23" y="-15.4" font-family="Times-12" font-size="14.00"> &#160;Module</text>
<polygon fill="#80b1d3" stroke="transparent" points="1457.5,-10 1457.5,-30 1477.5,-30 1477.5,-10 1457.5,-10"/>
<text text-anchor="start" x="1481.28" y="-15.4" font-family="Times-12" font-size="14.00"> &#160;Bootstrap</text>
<polygon fill="#fdb462" stroke="transparent" points="1554.5,-10 1554.5,-30 1574.5,-30 1574.5,-10 1554.5,-10"/>
<text text-anchor="start" x="1578.17" y="-15.4" font-family="Times-12" font-size="14.00"> &#160;Providers</text>
<polygon fill="#fb8072" stroke="transparent" points="1650.5,-10 1650.5,-30 1670.5,-30 1670.5,-10 1650.5,-10"/>
<text text-anchor="start" x="1674.23" y="-15.4" font-family="Times-12" font-size="14.00"> &#160;Exports</text>
<g id="clust1" class="cluster">
<title>cluster_LearnroomApiModule</title>
<polygon fill="none" stroke="black" stroke-dasharray="1,5" points="8,-70 8,-195 2977,-195 2977,-70 8,-70"/>
</g>
<g id="clust6" class="cluster">
<title>cluster_LearnroomApiModule_providers</title>
<polygon fill="none" stroke="black" points="581,-78 581,-130 2969,-130 2969,-78 581,-78"/>
</g>
<g id="clust3" class="cluster">
<title>cluster_LearnroomApiModule_imports</title>
<polygon fill="none" stroke="black" points="16,-78 16,-130 573,-130 573,-78 16,-78"/>
</g>
<!-- AuthorizationModule -->
<g id="node1" class="node">
<title>AuthorizationModule</title>
<polygon fill="#8dd3c7" stroke="black" points="564.81,-122 561.81,-126 540.81,-126 537.81,-122 427.19,-122 427.19,-86 564.81,-86 564.81,-122"/>
<text text-anchor="middle" x="496" y="-99.8" font-family="Times,serif" font-size="14.00">AuthorizationModule</text>
</g>
<!-- LearnroomApiModule -->
<g id="node5" class="node">
<title>LearnroomApiModule</title>
<polygon fill="#8dd3c7" stroke="black" points="1622.24,-187 1619.24,-191 1598.24,-191 1595.24,-187 1479.76,-187 1479.76,-151 1622.24,-151 1622.24,-187"/>
<text text-anchor="middle" x="1551" y="-164.8" font-family="Times,serif" font-size="14.00">LearnroomApiModule</text>
</g>
<!-- AuthorizationModule&#45;&gt;LearnroomApiModule -->
<g id="edge1" class="edge">
<title>AuthorizationModule&#45;&gt;LearnroomApiModule</title>
<path fill="none" stroke="black" d="M496,-122.31C496,-142.15 496,-171 496,-171 496,-171 1469.73,-171 1469.73,-171"/>
<polygon fill="black" stroke="black" points="1469.73,-174.5 1479.73,-171 1469.73,-167.5 1469.73,-174.5"/>
</g>
<!-- CopyHelperModule -->
<g id="node2" class="node">
<title>CopyHelperModule</title>
<polygon fill="#8dd3c7" stroke="black" points="408.97,-122 405.97,-126 384.97,-126 381.97,-122 281.03,-122 281.03,-86 408.97,-86 408.97,-122"/>
<text text-anchor="middle" x="345" y="-99.8" font-family="Times,serif" font-size="14.00">CopyHelperModule</text>
</g>
<!-- CopyHelperModule&#45;&gt;LearnroomApiModule -->
<g id="edge2" class="edge">
<title>CopyHelperModule&#45;&gt;LearnroomApiModule</title>
<path fill="none" stroke="black" d="M345,-122.28C345,-143.32 345,-175 345,-175 345,-175 1469.62,-175 1469.62,-175"/>
<polygon fill="black" stroke="black" points="1469.62,-178.5 1479.62,-175 1469.62,-171.5 1469.62,-178.5"/>
</g>
<!-- LearnroomModule -->
<g id="node3" class="node">
<title>LearnroomModule</title>
<polygon fill="#8dd3c7" stroke="black" points="262.74,-122 259.74,-126 238.74,-126 235.74,-122 141.26,-122 141.26,-86 262.74,-86 262.74,-122"/>
<text text-anchor="middle" x="202" y="-99.8" font-family="Times,serif" font-size="14.00">LearnroomModule</text>
</g>
<!-- LearnroomModule&#45;&gt;LearnroomApiModule -->
<g id="edge3" class="edge">
<title>LearnroomModule&#45;&gt;LearnroomApiModule</title>
<path fill="none" stroke="black" d="M202,-122.16C202,-144.35 202,-179 202,-179 202,-179 1469.42,-179 1469.42,-179"/>
<polygon fill="black" stroke="black" points="1469.42,-182.5 1479.42,-179 1469.42,-175.5 1469.42,-182.5"/>
</g>
<!-- LessonModule -->
<g id="node4" class="node">
<title>LessonModule</title>
<polygon fill="#8dd3c7" stroke="black" points="123.71,-122 120.71,-126 99.71,-126 96.71,-122 24.29,-122 24.29,-86 123.71,-86 123.71,-122"/>
<text text-anchor="middle" x="74" y="-99.8" font-family="Times,serif" font-size="14.00">LessonModule</text>
</g>
<!-- LessonModule&#45;&gt;LearnroomApiModule -->
<g id="edge4" class="edge">
<title>LessonModule&#45;&gt;LearnroomApiModule</title>
<path fill="none" stroke="black" d="M74,-122.32C74,-145.66 74,-183 74,-183 74,-183 1469.51,-183 1469.51,-183"/>
<polygon fill="black" stroke="black" points="1469.51,-186.5 1479.51,-183 1469.51,-179.5 1469.51,-186.5"/>
</g>
<!-- BoardRepo -->
<g id="node6" class="node">
<title>BoardRepo</title>
<ellipse fill="#fdb462" stroke="black" cx="2906" cy="-104" rx="55.04" ry="18"/>
<text text-anchor="middle" x="2906" y="-99.8" font-family="Times,serif" font-size="14.00">BoardRepo</text>
</g>
<!-- BoardRepo&#45;&gt;LearnroomApiModule -->
<g id="edge5" class="edge">
<title>BoardRepo&#45;&gt;LearnroomApiModule</title>
<path fill="none" stroke="black" d="M2906,-122.32C2906,-145.66 2906,-183 2906,-183 2906,-183 1632.42,-183 1632.42,-183"/>
<polygon fill="black" stroke="black" points="1632.42,-179.5 1622.42,-183 1632.42,-186.5 1632.42,-179.5"/>
</g>
<!-- CourseCopyUC -->
<g id="node7" class="node">
<title>CourseCopyUC</title>
<ellipse fill="#fdb462" stroke="black" cx="2760" cy="-104" rx="72.96" ry="18"/>
<text text-anchor="middle" x="2760" y="-99.8" font-family="Times,serif" font-size="14.00">CourseCopyUC</text>
</g>
<!-- CourseCopyUC&#45;&gt;LearnroomApiModule -->
<g id="edge6" class="edge">
<title>CourseCopyUC&#45;&gt;LearnroomApiModule</title>
<path fill="none" stroke="black" d="M2760,-122.16C2760,-144.35 2760,-179 2760,-179 2760,-179 1632.56,-179 1632.56,-179"/>
<polygon fill="black" stroke="black" points="1632.56,-175.5 1622.56,-179 1632.56,-182.5 1632.56,-175.5"/>
</g>
<!-- CourseExportUc -->
<g id="node8" class="node">
<title>CourseExportUc</title>
<ellipse fill="#fdb462" stroke="black" cx="2593" cy="-104" rx="75.86" ry="18"/>
<text text-anchor="middle" x="2593" y="-99.8" font-family="Times,serif" font-size="14.00">CourseExportUc</text>
</g>
<!-- CourseExportUc&#45;&gt;LearnroomApiModule -->
<g id="edge7" class="edge">
<title>CourseExportUc&#45;&gt;LearnroomApiModule</title>
<path fill="none" stroke="black" d="M2593,-122.28C2593,-143.32 2593,-175 2593,-175 2593,-175 1632.62,-175 1632.62,-175"/>
<polygon fill="black" stroke="black" points="1632.62,-171.5 1622.62,-175 1632.62,-178.5 1632.62,-171.5"/>
</g>
<!-- CourseRepo -->
<g id="node9" class="node">
<title>CourseRepo</title>
<ellipse fill="#fdb462" stroke="black" cx="2440" cy="-104" rx="58.55" ry="18"/>
<text text-anchor="middle" x="2440" y="-99.8" font-family="Times,serif" font-size="14.00">CourseRepo</text>
</g>
<!-- CourseRepo&#45;&gt;LearnroomApiModule -->
<g id="edge8" class="edge">
<title>CourseRepo&#45;&gt;LearnroomApiModule</title>
<path fill="none" stroke="black" d="M2440,-122.31C2440,-142.15 2440,-171 2440,-171 2440,-171 1632.25,-171 1632.25,-171"/>
<polygon fill="black" stroke="black" points="1632.25,-167.5 1622.25,-171 1632.25,-174.5 1632.25,-167.5"/>
</g>
<!-- CourseUc -->
<g id="node10" class="node">
<title>CourseUc</title>
<ellipse fill="#fdb462" stroke="black" cx="2314" cy="-104" rx="49.8" ry="18"/>
<text text-anchor="middle" x="2314" y="-99.8" font-family="Times,serif" font-size="14.00">CourseUc</text>
</g>
<!-- CourseUc&#45;&gt;LearnroomApiModule -->
<g id="edge9" class="edge">
<title>CourseUc&#45;&gt;LearnroomApiModule</title>
<path fill="none" stroke="black" d="M2314,-122.22C2314,-140.83 2314,-167 2314,-167 2314,-167 1632.44,-167 1632.44,-167"/>
<polygon fill="black" stroke="black" points="1632.44,-163.5 1622.44,-167 1632.44,-170.5 1632.44,-163.5"/>
</g>
<!-- DashboardModelMapper -->
<g id="node11" class="node">
<title>DashboardModelMapper</title>
<ellipse fill="#fdb462" stroke="black" cx="2138" cy="-104" rx="108.21" ry="18"/>
<text text-anchor="middle" x="2138" y="-99.8" font-family="Times,serif" font-size="14.00">DashboardModelMapper</text>
</g>
<!-- DashboardModelMapper&#45;&gt;LearnroomApiModule -->
<g id="edge10" class="edge">
<title>DashboardModelMapper&#45;&gt;LearnroomApiModule</title>
<path fill="none" stroke="black" d="M2138,-122.02C2138,-139.37 2138,-163 2138,-163 2138,-163 1632.39,-163 1632.39,-163"/>
<polygon fill="black" stroke="black" points="1632.39,-159.5 1622.39,-163 1632.39,-166.5 1632.39,-159.5"/>
</g>
<!-- DashboardUc -->
<g id="node12" class="node">
<title>DashboardUc</title>
<ellipse fill="#fdb462" stroke="black" cx="1948" cy="-104" rx="64.25" ry="18"/>
<text text-anchor="middle" x="1948" y="-99.8" font-family="Times,serif" font-size="14.00">DashboardUc</text>
</g>
<!-- DashboardUc&#45;&gt;LearnroomApiModule -->
<g id="edge11" class="edge">
<title>DashboardUc&#45;&gt;LearnroomApiModule</title>
<path fill="none" stroke="black" d="M1948,-122.01C1948,-138.05 1948,-159 1948,-159 1948,-159 1632.43,-159 1632.43,-159"/>
<polygon fill="black" stroke="black" points="1632.43,-155.5 1622.43,-159 1632.43,-162.5 1632.43,-155.5"/>
</g>
<!-- LessonCopyUC -->
<g id="node13" class="node">
<title>LessonCopyUC</title>
<ellipse fill="#fdb462" stroke="black" cx="1793" cy="-104" rx="72.96" ry="18"/>
<text text-anchor="middle" x="1793" y="-99.8" font-family="Times,serif" font-size="14.00">LessonCopyUC</text>
</g>
<!-- LessonCopyUC&#45;&gt;LearnroomApiModule -->
<g id="edge12" class="edge">
<title>LessonCopyUC&#45;&gt;LearnroomApiModule</title>
<path fill="none" stroke="black" d="M1793,-122.12C1793,-136.78 1793,-155 1793,-155 1793,-155 1632.3,-155 1632.3,-155"/>
<polygon fill="black" stroke="black" points="1632.3,-151.5 1622.3,-155 1632.3,-158.5 1632.3,-151.5"/>
</g>
<!-- LessonRepo -->
<g id="node14" class="node">
<title>LessonRepo</title>
<ellipse fill="#fdb462" stroke="black" cx="1643" cy="-104" rx="58.55" ry="18"/>
<text text-anchor="middle" x="1643" y="-99.8" font-family="Times,serif" font-size="14.00">LessonRepo</text>
</g>
<!-- LessonRepo&#45;&gt;LearnroomApiModule -->
<g id="edge13" class="edge">
<title>LessonRepo&#45;&gt;LearnroomApiModule</title>
<path fill="none" stroke="black" d="M1603.3,-117.47C1603.3,-117.47 1603.3,-140.86 1603.3,-140.86"/>
<polygon fill="black" stroke="black" points="1599.8,-140.86 1603.3,-150.86 1606.8,-140.86 1599.8,-140.86"/>
</g>
<!-- RoomBoardDTOFactory -->
<g id="node15" class="node">
<title>RoomBoardDTOFactory</title>
<ellipse fill="#fdb462" stroke="black" cx="1459" cy="-104" rx="107.67" ry="18"/>
<text text-anchor="middle" x="1459" y="-99.8" font-family="Times,serif" font-size="14.00">RoomBoardDTOFactory</text>
</g>
<!-- RoomBoardDTOFactory&#45;&gt;LearnroomApiModule -->
<g id="edge14" class="edge">
<title>RoomBoardDTOFactory&#45;&gt;LearnroomApiModule</title>
<path fill="none" stroke="black" d="M1523.11,-118.75C1523.11,-118.75 1523.11,-140.59 1523.11,-140.59"/>
<polygon fill="black" stroke="black" points="1519.61,-140.59 1523.11,-150.59 1526.61,-140.59 1519.61,-140.59"/>
</g>
<!-- RoomBoardResponseMapper -->
<g id="node16" class="node">
<title>RoomBoardResponseMapper</title>
<ellipse fill="#fdb462" stroke="black" cx="1208" cy="-104" rx="125.07" ry="18"/>
<text text-anchor="middle" x="1208" y="-99.8" font-family="Times,serif" font-size="14.00">RoomBoardResponseMapper</text>
</g>
<!-- RoomBoardResponseMapper&#45;&gt;LearnroomApiModule -->
<g id="edge15" class="edge">
<title>RoomBoardResponseMapper&#45;&gt;LearnroomApiModule</title>
<path fill="none" stroke="black" d="M1208,-122.12C1208,-136.78 1208,-155 1208,-155 1208,-155 1469.51,-155 1469.51,-155"/>
<polygon fill="black" stroke="black" points="1469.51,-158.5 1479.51,-155 1469.51,-151.5 1469.51,-158.5"/>
</g>
<!-- RoomsAuthorisationService -->
<g id="node17" class="node">
<title>RoomsAuthorisationService</title>
<ellipse fill="#fdb462" stroke="black" cx="944" cy="-104" rx="120.42" ry="18"/>
<text text-anchor="middle" x="944" y="-99.8" font-family="Times,serif" font-size="14.00">RoomsAuthorisationService</text>
</g>
<!-- RoomsAuthorisationService&#45;&gt;LearnroomApiModule -->
<g id="edge16" class="edge">
<title>RoomsAuthorisationService&#45;&gt;LearnroomApiModule</title>
<path fill="none" stroke="black" d="M944,-122.01C944,-138.05 944,-159 944,-159 944,-159 1469.58,-159 1469.58,-159"/>
<polygon fill="black" stroke="black" points="1469.58,-162.5 1479.58,-159 1469.58,-155.5 1469.58,-162.5"/>
</g>
<!-- RoomsUc -->
<g id="node18" class="node">
<title>RoomsUc</title>
<ellipse fill="#fdb462" stroke="black" cx="756" cy="-104" rx="49.82" ry="18"/>
<text text-anchor="middle" x="756" y="-99.8" font-family="Times,serif" font-size="14.00">RoomsUc</text>
</g>
<!-- RoomsUc&#45;&gt;LearnroomApiModule -->
<g id="edge17" class="edge">
<title>RoomsUc&#45;&gt;LearnroomApiModule</title>
<path fill="none" stroke="black" d="M756,-122.02C756,-139.37 756,-163 756,-163 756,-163 1469.75,-163 1469.75,-163"/>
<polygon fill="black" stroke="black" points="1469.75,-166.5 1479.75,-163 1469.75,-159.5 1469.75,-166.5"/>
</g>
<!-- UserRepo -->
<g id="node19" class="node">
<title>UserRepo</title>
<ellipse fill="#fdb462" stroke="black" cx="639" cy="-104" rx="49.8" ry="18"/>
<text text-anchor="middle" x="639" y="-99.8" font-family="Times,serif" font-size="14.00">UserRepo</text>
</g>
<!-- UserRepo&#45;&gt;LearnroomApiModule -->
<g id="edge18" class="edge">
<title>UserRepo&#45;&gt;LearnroomApiModule</title>
<path fill="none" stroke="black" d="M639,-122.22C639,-140.83 639,-167 639,-167 639,-167 1469.44,-167 1469.44,-167"/>
<polygon fill="black" stroke="black" points="1469.44,-170.5 1479.44,-167 1469.44,-163.5 1469.44,-170.5"/>
</g>
</g>
</svg>
