<?xml version="1.0" encoding="UTF-8" standalone="no"?>
<!DOCTYPE svg PUBLIC "-//W3C//DTD SVG 1.1//EN"
 "http://www.w3.org/Graphics/SVG/1.1/DTD/svg11.dtd">
<!-- Generated by graphviz version 2.47.0 (20210316.0004)
 -->
<!-- Title: dependencies Pages: 1 -->
<svg width="1394pt" height="211pt"
 viewBox="0.00 0.00 1394.00 211.00" xmlns="http://www.w3.org/2000/svg" xmlns:xlink="http://www.w3.org/1999/xlink">
<g id="graph0" class="graph" transform="scale(1 1) rotate(0) translate(4 207)">
<title>dependencies</title>
<polygon fill="white" stroke="transparent" points="-4,4 -4,-207 1390,-207 1390,4 -4,4"/>
<text text-anchor="start" x="672.01" y="-42.4" font-family="Times-12" font-weight="bold" font-size="14.00">Legend</text>
<polygon fill="#ffffb3" stroke="transparent" points="459,-10 459,-30 479,-30 479,-10 459,-10"/>
<text text-anchor="start" x="482.63" y="-15.4" font-family="Times-12" font-size="14.00"> &#160;Declarations</text>
<polygon fill="#8dd3c7" stroke="transparent" points="572,-10 572,-30 592,-30 592,-10 572,-10"/>
<text text-anchor="start" x="595.73" y="-15.4" font-family="Times-12" font-size="14.00"> &#160;Module</text>
<polygon fill="#80b1d3" stroke="transparent" points="658,-10 658,-30 678,-30 678,-10 658,-10"/>
<text text-anchor="start" x="681.78" y="-15.4" font-family="Times-12" font-size="14.00"> &#160;Bootstrap</text>
<polygon fill="#fdb462" stroke="transparent" points="755,-10 755,-30 775,-30 775,-10 755,-10"/>
<text text-anchor="start" x="778.67" y="-15.4" font-family="Times-12" font-size="14.00"> &#160;Providers</text>
<polygon fill="#fb8072" stroke="transparent" points="851,-10 851,-30 871,-30 871,-10 851,-10"/>
<text text-anchor="start" x="874.73" y="-15.4" font-family="Times-12" font-size="14.00"> &#160;Exports</text>
<g id="clust1" class="cluster">
<title>cluster_ServerTestModule</title>
<polygon fill="none" stroke="black" stroke-dasharray="1,5" points="8,-70 8,-195 1378,-195 1378,-70 8,-70"/>
</g>
<g id="clust3" class="cluster">
<title>cluster_ServerTestModule_imports</title>
<polygon fill="none" stroke="black" points="134,-78 134,-130 1370,-130 1370,-78 134,-78"/>
</g>
<g id="clust6" class="cluster">
<title>cluster_ServerTestModule_providers</title>
<polygon fill="none" stroke="black" points="16,-78 16,-130 126,-130 126,-78 16,-78"/>
</g>
<!-- DeletionApiModule -->
<g id="node1" class="node">
<title>DeletionApiModule</title>
<polygon fill="#8dd3c7" stroke="black" points="1362.25,-122 1359.25,-126 1338.25,-126 1335.25,-122 1233.75,-122 1233.75,-86 1362.25,-86 1362.25,-122"/>
<text text-anchor="middle" x="1298" y="-99.8" font-family="Times,serif" font-size="14.00">DeletionApiModule</text>
</g>
<!-- ServerTestModule -->
<g id="node8" class="node">
<title>ServerTestModule</title>
<polygon fill="#8dd3c7" stroke="black" points="733.19,-187 730.19,-191 709.19,-191 706.19,-187 612.81,-187 612.81,-151 733.19,-151 733.19,-187"/>
<text text-anchor="middle" x="673" y="-164.8" font-family="Times,serif" font-size="14.00">ServerTestModule</text>
</g>
<!-- DeletionApiModule&#45;&gt;ServerTestModule -->
<g id="edge1" class="edge">
<title>DeletionApiModule&#45;&gt;ServerTestModule</title>
<path fill="none" stroke="black" d="M1298,-122.29C1298,-144.21 1298,-178 1298,-178 1298,-178 743.21,-178 743.21,-178"/>
<polygon fill="black" stroke="black" points="743.21,-174.5 733.21,-178 743.21,-181.5 743.21,-174.5"/>
</g>
<!-- LegacySchoolAdminApiModule -->
<g id="node2" class="node">
<title>LegacySchoolAdminApiModule</title>
<polygon fill="#8dd3c7" stroke="black" points="1215.52,-122 1212.52,-126 1191.52,-126 1188.52,-122 1016.48,-122 1016.48,-86 1215.52,-86 1215.52,-122"/>
<text text-anchor="middle" x="1116" y="-99.8" font-family="Times,serif" font-size="14.00">LegacySchoolAdminApiModule</text>
</g>
<!-- LegacySchoolAdminApiModule&#45;&gt;ServerTestModule -->
<g id="edge2" class="edge">
<title>LegacySchoolAdminApiModule&#45;&gt;ServerTestModule</title>
<path fill="none" stroke="black" d="M1116,-122.11C1116,-141.34 1116,-169 1116,-169 1116,-169 743.21,-169 743.21,-169"/>
<polygon fill="black" stroke="black" points="743.21,-165.5 733.21,-169 743.21,-172.5 743.21,-165.5"/>
</g>
<!-- LoggerModule -->
<g id="node3" class="node">
<title>LoggerModule</title>
<polygon fill="#8dd3c7" stroke="black" points="997.98,-122 994.98,-126 973.98,-126 970.98,-122 898.02,-122 898.02,-86 997.98,-86 997.98,-122"/>
<text text-anchor="middle" x="948" y="-99.8" font-family="Times,serif" font-size="14.00">LoggerModule</text>
</g>
<!-- LoggerModule&#45;&gt;ServerTestModule -->
<g id="edge3" class="edge">
<title>LoggerModule&#45;&gt;ServerTestModule</title>
<path fill="none" stroke="black" d="M948,-122.03C948,-138.4 948,-160 948,-160 948,-160 743.35,-160 743.35,-160"/>
<polygon fill="black" stroke="black" points="743.35,-156.5 733.35,-160 743.35,-163.5 743.35,-156.5"/>
</g>
<!-- MongoMemoryDatabaseModule -->
<g id="node4" class="node">
<title>MongoMemoryDatabaseModule</title>
<polygon fill="#8dd3c7" stroke="black" points="879.51,-122 876.51,-126 855.51,-126 852.51,-122 680.49,-122 680.49,-86 879.51,-86 879.51,-122"/>
<text text-anchor="middle" x="780" y="-99.8" font-family="Times,serif" font-size="14.00">MongoMemoryDatabaseModule</text>
</g>
<!-- MongoMemoryDatabaseModule&#45;&gt;ServerTestModule -->
<g id="edge4" class="edge">
<title>MongoMemoryDatabaseModule&#45;&gt;ServerTestModule</title>
<path fill="none" stroke="black" d="M706.67,-122.11C706.67,-122.11 706.67,-140.99 706.67,-140.99"/>
<polygon fill="black" stroke="black" points="703.17,-140.99 706.67,-150.99 710.17,-140.99 703.17,-140.99"/>
</g>
<!-- RabbitMQWrapperTestModule -->
<g id="node5" class="node">
<title>RabbitMQWrapperTestModule</title>
<polygon fill="#8dd3c7" stroke="black" points="662,-122 659,-126 638,-126 635,-122 470,-122 470,-86 662,-86 662,-122"/>
<text text-anchor="middle" x="566" y="-99.8" font-family="Times,serif" font-size="14.00">RabbitMQWrapperTestModule</text>
</g>
<!-- RabbitMQWrapperTestModule&#45;&gt;ServerTestModule -->
<g id="edge5" class="edge">
<title>RabbitMQWrapperTestModule&#45;&gt;ServerTestModule</title>
<path fill="none" stroke="black" d="M637.58,-122.11C637.58,-122.11 637.58,-140.99 637.58,-140.99"/>
<polygon fill="black" stroke="black" points="634.08,-140.99 637.58,-150.99 641.08,-140.99 634.08,-140.99"/>
</g>
<!-- ToolAdminApiModule -->
<g id="node6" class="node">
<title>ToolAdminApiModule</title>
<polygon fill="#8dd3c7" stroke="black" points="451.88,-122 448.88,-126 427.88,-126 424.88,-122 306.12,-122 306.12,-86 451.88,-86 451.88,-122"/>
<text text-anchor="middle" x="379" y="-99.8" font-family="Times,serif" font-size="14.00">ToolAdminApiModule</text>
</g>
<!-- ToolAdminApiModule&#45;&gt;ServerTestModule -->
<g id="edge6" class="edge">
<title>ToolAdminApiModule&#45;&gt;ServerTestModule</title>
<path fill="none" stroke="black" d="M379,-122.03C379,-138.4 379,-160 379,-160 379,-160 602.8,-160 602.8,-160"/>
<polygon fill="black" stroke="black" points="602.8,-163.5 612.8,-160 602.8,-156.5 602.8,-163.5"/>
</g>
<!-- UserAdminApiModule -->
<g id="node7" class="node">
<title>UserAdminApiModule</title>
<polygon fill="#8dd3c7" stroke="black" points="287.86,-122 284.86,-126 263.86,-126 260.86,-122 142.14,-122 142.14,-86 287.86,-86 287.86,-122"/>
<text text-anchor="middle" x="215" y="-99.8" font-family="Times,serif" font-size="14.00">UserAdminApiModule</text>
</g>
<!-- UserAdminApiModule&#45;&gt;ServerTestModule -->
<g id="edge7" class="edge">
<title>UserAdminApiModule&#45;&gt;ServerTestModule</title>
<path fill="none" stroke="black" d="M215,-122.11C215,-141.34 215,-169 215,-169 215,-169 602.65,-169 602.65,-169"/>
<polygon fill="black" stroke="black" points="602.65,-172.5 612.65,-169 602.65,-165.5 602.65,-172.5"/>
</g>
<!-- ServerUc -->
<g id="node9" class="node">
<title>ServerUc</title>
<ellipse fill="#fdb462" stroke="black" cx="71" cy="-104" rx="47.49" ry="18"/>
<text text-anchor="middle" x="71" y="-99.8" font-family="Times,serif" font-size="14.00">ServerUc</text>
</g>
<!-- ServerUc&#45;&gt;ServerTestModule -->
<g id="edge8" class="edge">
<title>ServerUc&#45;&gt;ServerTestModule</title>
<path fill="none" stroke="black" d="M71,-122.29C71,-144.21 71,-178 71,-178 71,-178 602.8,-178 602.8,-178"/>
<polygon fill="black" stroke="black" points="602.8,-181.5 612.8,-178 602.8,-174.5 602.8,-181.5"/>
</g>
</g>
</svg>
