<?xml version="1.0" encoding="UTF-8" standalone="no"?>
<!DOCTYPE svg PUBLIC "-//W3C//DTD SVG 1.1//EN"
 "http://www.w3.org/Graphics/SVG/1.1/DTD/svg11.dtd">
<!-- Generated by graphviz version 2.47.0 (20210316.0004)
 -->
<!-- Title: dependencies Pages: 1 -->
<svg width="4319pt" height="211pt"
 viewBox="0.00 0.00 4319.00 211.00" xmlns="http://www.w3.org/2000/svg" xmlns:xlink="http://www.w3.org/1999/xlink">
<g id="graph0" class="graph" transform="scale(1 1) rotate(0) translate(4 207)">
<title>dependencies</title>
<polygon fill="white" stroke="transparent" points="-4,4 -4,-207 4315,-207 4315,4 -4,4"/>
<text text-anchor="start" x="2134.51" y="-42.4" font-family="Times-12" font-weight="bold" font-size="14.00">Legend</text>
<polygon fill="#ffffb3" stroke="transparent" points="1921.5,-10 1921.5,-30 1941.5,-30 1941.5,-10 1921.5,-10"/>
<text text-anchor="start" x="1945.13" y="-15.4" font-family="Times-12" font-size="14.00"> &#160;Declarations</text>
<polygon fill="#8dd3c7" stroke="transparent" points="2034.5,-10 2034.5,-30 2054.5,-30 2054.5,-10 2034.5,-10"/>
<text text-anchor="start" x="2058.23" y="-15.4" font-family="Times-12" font-size="14.00"> &#160;Module</text>
<polygon fill="#80b1d3" stroke="transparent" points="2120.5,-10 2120.5,-30 2140.5,-30 2140.5,-10 2120.5,-10"/>
<text text-anchor="start" x="2144.28" y="-15.4" font-family="Times-12" font-size="14.00"> &#160;Bootstrap</text>
<polygon fill="#fdb462" stroke="transparent" points="2217.5,-10 2217.5,-30 2237.5,-30 2237.5,-10 2217.5,-10"/>
<text text-anchor="start" x="2241.17" y="-15.4" font-family="Times-12" font-size="14.00"> &#160;Providers</text>
<polygon fill="#fb8072" stroke="transparent" points="2313.5,-10 2313.5,-30 2333.5,-30 2333.5,-10 2313.5,-10"/>
<text text-anchor="start" x="2337.23" y="-15.4" font-family="Times-12" font-size="14.00"> &#160;Exports</text>
<g id="clust1" class="cluster">
<title>cluster_ServerTestModule</title>
<polygon fill="none" stroke="black" stroke-dasharray="1,5" points="8,-70 8,-195 4303,-195 4303,-70 8,-70"/>
</g>
<g id="clust3" class="cluster">
<title>cluster_ServerTestModule_imports</title>
<polygon fill="none" stroke="black" points="16,-78 16,-130 4295,-130 4295,-78 16,-78"/>
</g>
<!-- AccountApiModule -->
<g id="node1" class="node">
<title>AccountApiModule</title>
<polygon fill="#8dd3c7" stroke="black" points="4286.97,-122 4283.97,-126 4262.97,-126 4259.97,-122 4159.03,-122 4159.03,-86 4286.97,-86 4286.97,-122"/>
<text text-anchor="middle" x="4223" y="-99.8" font-family="Times,serif" font-size="14.00">AccountApiModule</text>
</g>
<!-- ServerTestModule -->
<g id="node30" class="node">
<title>ServerTestModule</title>
<polygon fill="#8dd3c7" stroke="black" points="2224.19,-187 2221.19,-191 2200.19,-191 2197.19,-187 2103.81,-187 2103.81,-151 2224.19,-151 2224.19,-187"/>
<text text-anchor="middle" x="2164" y="-164.8" font-family="Times,serif" font-size="14.00">ServerTestModule</text>
</g>
<!-- AccountApiModule&#45;&gt;ServerTestModule -->
<g id="edge1" class="edge">
<title>AccountApiModule&#45;&gt;ServerTestModule</title>
<path fill="none" stroke="black" d="M4223,-122.38C4223,-146.28 4223,-185 4223,-185 4223,-185 2234.23,-185 2234.23,-185"/>
<polygon fill="black" stroke="black" points="2234.23,-181.5 2224.23,-185 2234.23,-188.5 2234.23,-181.5"/>
</g>
<!-- AuthenticationApiModule -->
<g id="node2" class="node">
<title>AuthenticationApiModule</title>
<polygon fill="#8dd3c7" stroke="black" points="4140.75,-122 4137.75,-126 4116.75,-126 4113.75,-122 3977.25,-122 3977.25,-86 4140.75,-86 4140.75,-122"/>
<text text-anchor="middle" x="4059" y="-99.8" font-family="Times,serif" font-size="14.00">AuthenticationApiModule</text>
</g>
<!-- AuthenticationApiModule&#45;&gt;ServerTestModule -->
<g id="edge2" class="edge">
<title>AuthenticationApiModule&#45;&gt;ServerTestModule</title>
<path fill="none" stroke="black" d="M4059,-122.32C4059,-145.66 4059,-183 4059,-183 4059,-183 2234.11,-183 2234.11,-183"/>
<polygon fill="black" stroke="black" points="2234.11,-179.5 2224.11,-183 2234.11,-186.5 2234.11,-179.5"/>
</g>
<!-- BoardApiModule -->
<g id="node3" class="node">
<title>BoardApiModule</title>
<polygon fill="#8dd3c7" stroke="black" points="3959.26,-122 3956.26,-126 3935.26,-126 3932.26,-122 3844.74,-122 3844.74,-86 3959.26,-86 3959.26,-122"/>
<text text-anchor="middle" x="3902" y="-99.8" font-family="Times,serif" font-size="14.00">BoardApiModule</text>
</g>
<!-- BoardApiModule&#45;&gt;ServerTestModule -->
<g id="edge3" class="edge">
<title>BoardApiModule&#45;&gt;ServerTestModule</title>
<path fill="none" stroke="black" d="M3902,-122.01C3902,-144.49 3902,-180 3902,-180 3902,-180 2234.33,-180 2234.33,-180"/>
<polygon fill="black" stroke="black" points="2234.33,-176.5 2224.33,-180 2234.33,-183.5 2234.33,-176.5"/>
</g>
<!-- BoardModule -->
<g id="node4" class="node">
<title>BoardModule</title>
<polygon fill="#8dd3c7" stroke="black" points="3826.76,-122 3823.76,-126 3802.76,-126 3799.76,-122 3733.24,-122 3733.24,-86 3826.76,-86 3826.76,-122"/>
<text text-anchor="middle" x="3780" y="-99.8" font-family="Times,serif" font-size="14.00">BoardModule</text>
</g>
<!-- BoardModule&#45;&gt;ServerTestModule -->
<g id="edge4" class="edge">
<title>BoardModule&#45;&gt;ServerTestModule</title>
<path fill="none" stroke="black" d="M3780,-122.29C3780,-144.21 3780,-178 3780,-178 3780,-178 2234.4,-178 2234.4,-178"/>
<polygon fill="black" stroke="black" points="2234.4,-174.5 2224.4,-178 2234.4,-181.5 2234.4,-174.5"/>
</g>
<!-- CollaborativeStorageModule -->
<g id="node5" class="node">
<title>CollaborativeStorageModule</title>
<polygon fill="#8dd3c7" stroke="black" points="3715.02,-122 3712.02,-126 3691.02,-126 3688.02,-122 3536.98,-122 3536.98,-86 3715.02,-86 3715.02,-122"/>
<text text-anchor="middle" x="3626" y="-99.8" font-family="Times,serif" font-size="14.00">CollaborativeStorageModule</text>
</g>
<!-- CollaborativeStorageModule&#45;&gt;ServerTestModule -->
<g id="edge5" class="edge">
<title>CollaborativeStorageModule&#45;&gt;ServerTestModule</title>
<path fill="none" stroke="black" d="M3626,-122.28C3626,-143.32 3626,-175 3626,-175 3626,-175 2234.5,-175 2234.5,-175"/>
<polygon fill="black" stroke="black" points="2234.5,-171.5 2224.5,-175 2234.5,-178.5 2234.5,-171.5"/>
</g>
<!-- CoreModule -->
<g id="node6" class="node">
<title>CoreModule</title>
<polygon fill="#8dd3c7" stroke="black" points="3518.26,-122 3515.26,-126 3494.26,-126 3491.26,-122 3431.74,-122 3431.74,-86 3518.26,-86 3518.26,-122"/>
<text text-anchor="middle" x="3475" y="-99.8" font-family="Times,serif" font-size="14.00">CoreModule</text>
</g>
<!-- CoreModule&#45;&gt;ServerTestModule -->
<g id="edge6" class="edge">
<title>CoreModule&#45;&gt;ServerTestModule</title>
<path fill="none" stroke="black" d="M3475,-122.13C3475,-142.57 3475,-173 3475,-173 3475,-173 2234.17,-173 2234.17,-173"/>
<polygon fill="black" stroke="black" points="2234.17,-169.5 2224.17,-173 2234.17,-176.5 2234.17,-169.5"/>
</g>
<!-- FilesStorageClientModule -->
<g id="node7" class="node">
<title>FilesStorageClientModule</title>
<polygon fill="#8dd3c7" stroke="black" points="3413.76,-122 3410.76,-126 3389.76,-126 3386.76,-122 3250.24,-122 3250.24,-86 3413.76,-86 3413.76,-122"/>
<text text-anchor="middle" x="3332" y="-99.8" font-family="Times,serif" font-size="14.00">FilesStorageClientModule</text>
</g>
<!-- FilesStorageClientModule&#45;&gt;ServerTestModule -->
<g id="edge7" class="edge">
<title>FilesStorageClientModule&#45;&gt;ServerTestModule</title>
<path fill="none" stroke="black" d="M3332,-122.31C3332,-142.15 3332,-171 3332,-171 3332,-171 2234.34,-171 2234.34,-171"/>
<polygon fill="black" stroke="black" points="2234.34,-167.5 2224.34,-171 2234.34,-174.5 2234.34,-167.5"/>
</g>
<!-- ImportUserModule -->
<g id="node8" class="node">
<title>ImportUserModule</title>
<polygon fill="#8dd3c7" stroke="black" points="3232.08,-122 3229.08,-126 3208.08,-126 3205.08,-122 3107.92,-122 3107.92,-86 3232.08,-86 3232.08,-122"/>
<text text-anchor="middle" x="3170" y="-99.8" font-family="Times,serif" font-size="14.00">ImportUserModule</text>
</g>
<!-- ImportUserModule&#45;&gt;ServerTestModule -->
<g id="edge8" class="edge">
<title>ImportUserModule&#45;&gt;ServerTestModule</title>
<path fill="none" stroke="black" d="M3170,-122.17C3170,-141.09 3170,-168 3170,-168 3170,-168 2234.29,-168 2234.29,-168"/>
<polygon fill="black" stroke="black" points="2234.29,-164.5 2224.29,-168 2234.29,-171.5 2234.29,-164.5"/>
</g>
<!-- LearnroomModule -->
<g id="node9" class="node">
<title>LearnroomModule</title>
<polygon fill="#8dd3c7" stroke="black" points="3089.74,-122 3086.74,-126 3065.74,-126 3062.74,-122 2968.26,-122 2968.26,-86 3089.74,-86 3089.74,-122"/>
<text text-anchor="middle" x="3029" y="-99.8" font-family="Times,serif" font-size="14.00">LearnroomModule</text>
</g>
<!-- LearnroomModule&#45;&gt;ServerTestModule -->
<g id="edge9" class="edge">
<title>LearnroomModule&#45;&gt;ServerTestModule</title>
<path fill="none" stroke="black" d="M3029,-122.27C3029,-140.56 3029,-166 3029,-166 3029,-166 2234.14,-166 2234.14,-166"/>
<polygon fill="black" stroke="black" points="2234.14,-162.5 2224.14,-166 2234.14,-169.5 2234.14,-162.5"/>
</g>
<!-- LessonApiModule -->
<g id="node10" class="node">
<title>LessonApiModule</title>
<polygon fill="#8dd3c7" stroke="black" points="2950.2,-122 2947.2,-126 2926.2,-126 2923.2,-122 2829.8,-122 2829.8,-86 2950.2,-86 2950.2,-122"/>
<text text-anchor="middle" x="2890" y="-99.8" font-family="Times,serif" font-size="14.00">LessonApiModule</text>
</g>
<!-- LessonApiModule&#45;&gt;ServerTestModule -->
<g id="edge10" class="edge">
<title>LessonApiModule&#45;&gt;ServerTestModule</title>
<path fill="none" stroke="black" d="M2890,-122.02C2890,-139.37 2890,-163 2890,-163 2890,-163 2234.34,-163 2234.34,-163"/>
<polygon fill="black" stroke="black" points="2234.34,-159.5 2224.34,-163 2234.34,-166.5 2234.34,-159.5"/>
</g>
<!-- LoggerModule -->
<g id="node11" class="node">
<title>LoggerModule</title>
<polygon fill="#8dd3c7" stroke="black" points="2811.98,-122 2808.98,-126 2787.98,-126 2784.98,-122 2712.02,-122 2712.02,-86 2811.98,-86 2811.98,-122"/>
<text text-anchor="middle" x="2762" y="-99.8" font-family="Times,serif" font-size="14.00">LoggerModule</text>
</g>
<!-- LoggerModule&#45;&gt;ServerTestModule -->
<g id="edge11" class="edge">
<title>LoggerModule&#45;&gt;ServerTestModule</title>
<path fill="none" stroke="black" d="M2762,-122.04C2762,-138.73 2762,-161 2762,-161 2762,-161 2234.35,-161 2234.35,-161"/>
<polygon fill="black" stroke="black" points="2234.35,-157.5 2224.35,-161 2234.35,-164.5 2234.35,-157.5"/>
</g>
<!-- MongoMemoryDatabaseModule -->
<g id="node12" class="node">
<title>MongoMemoryDatabaseModule</title>
<polygon fill="#8dd3c7" stroke="black" points="2693.51,-122 2690.51,-126 2669.51,-126 2666.51,-122 2494.49,-122 2494.49,-86 2693.51,-86 2693.51,-122"/>
<text text-anchor="middle" x="2594" y="-99.8" font-family="Times,serif" font-size="14.00">MongoMemoryDatabaseModule</text>
</g>
<!-- MongoMemoryDatabaseModule&#45;&gt;ServerTestModule -->
<g id="edge12" class="edge">
<title>MongoMemoryDatabaseModule&#45;&gt;ServerTestModule</title>
<path fill="none" stroke="black" d="M2594,-122.01C2594,-138.05 2594,-159 2594,-159 2594,-159 2234.24,-159 2234.24,-159"/>
<polygon fill="black" stroke="black" points="2234.24,-155.5 2224.24,-159 2234.24,-162.5 2234.24,-155.5"/>
</g>
<!-- NewsModule -->
<g id="node13" class="node">
<title>NewsModule</title>
<polygon fill="#8dd3c7" stroke="black" points="2476.92,-122 2473.92,-126 2452.92,-126 2449.92,-122 2385.08,-122 2385.08,-86 2476.92,-86 2476.92,-122"/>
<text text-anchor="middle" x="2431" y="-99.8" font-family="Times,serif" font-size="14.00">NewsModule</text>
</g>
<!-- NewsModule&#45;&gt;ServerTestModule -->
<g id="edge13" class="edge">
<title>NewsModule&#45;&gt;ServerTestModule</title>
<path fill="none" stroke="black" d="M2431,-122.19C2431,-137.18 2431,-156 2431,-156 2431,-156 2234.25,-156 2234.25,-156"/>
<polygon fill="black" stroke="black" points="2234.25,-152.5 2224.25,-156 2234.25,-159.5 2234.25,-152.5"/>
</g>
<!-- OauthApiModule -->
<g id="node14" class="node">
<title>OauthApiModule</title>
<polygon fill="#8dd3c7" stroke="black" points="2367.26,-122 2364.26,-126 2343.26,-126 2340.26,-122 2252.74,-122 2252.74,-86 2367.26,-86 2367.26,-122"/>
<text text-anchor="middle" x="2310" y="-99.8" font-family="Times,serif" font-size="14.00">OauthApiModule</text>
</g>
<!-- OauthApiModule&#45;&gt;ServerTestModule -->
<g id="edge14" class="edge">
<title>OauthApiModule&#45;&gt;ServerTestModule</title>
<path fill="none" stroke="black" d="M2310,-122.05C2310,-136.37 2310,-154 2310,-154 2310,-154 2234.23,-154 2234.23,-154"/>
<polygon fill="black" stroke="black" points="2234.23,-150.5 2224.23,-154 2234.23,-157.5 2234.23,-150.5"/>
</g>
<!-- OauthProviderModule -->
<g id="node15" class="node">
<title>OauthProviderModule</title>
<polygon fill="#8dd3c7" stroke="black" points="2234.97,-122 2231.97,-126 2210.97,-126 2207.97,-122 2093.03,-122 2093.03,-86 2234.97,-86 2234.97,-122"/>
<text text-anchor="middle" x="2164" y="-99.8" font-family="Times,serif" font-size="14.00">OauthProviderModule</text>
</g>
<!-- OauthProviderModule&#45;&gt;ServerTestModule -->
<g id="edge15" class="edge">
<title>OauthProviderModule&#45;&gt;ServerTestModule</title>
<path fill="none" stroke="black" d="M2164,-122.11C2164,-122.11 2164,-140.99 2164,-140.99"/>
<polygon fill="black" stroke="black" points="2160.5,-140.99 2164,-150.99 2167.5,-140.99 2160.5,-140.99"/>
</g>
<!-- ProvisioningModule -->
<g id="node16" class="node">
<title>ProvisioningModule</title>
<polygon fill="#8dd3c7" stroke="black" points="2074.61,-122 2071.61,-126 2050.61,-126 2047.61,-122 1943.39,-122 1943.39,-86 2074.61,-86 2074.61,-122"/>
<text text-anchor="middle" x="2009" y="-99.8" font-family="Times,serif" font-size="14.00">ProvisioningModule</text>
</g>
<!-- ProvisioningModule&#45;&gt;ServerTestModule -->
<g id="edge16" class="edge">
<title>ProvisioningModule&#45;&gt;ServerTestModule</title>
<path fill="none" stroke="black" d="M2009,-122.05C2009,-136.37 2009,-154 2009,-154 2009,-154 2093.63,-154 2093.63,-154"/>
<polygon fill="black" stroke="black" points="2093.63,-157.5 2103.63,-154 2093.63,-150.5 2093.63,-157.5"/>
</g>
<!-- RabbitMQWrapperTestModule -->
<g id="node17" class="node">
<title>RabbitMQWrapperTestModule</title>
<polygon fill="#8dd3c7" stroke="black" points="1925,-122 1922,-126 1901,-126 1898,-122 1733,-122 1733,-86 1925,-86 1925,-122"/>
<text text-anchor="middle" x="1829" y="-99.8" font-family="Times,serif" font-size="14.00">RabbitMQWrapperTestModule</text>
</g>
<!-- RabbitMQWrapperTestModule&#45;&gt;ServerTestModule -->
<g id="edge17" class="edge">
<title>RabbitMQWrapperTestModule&#45;&gt;ServerTestModule</title>
<path fill="none" stroke="black" d="M1829,-122.19C1829,-137.18 1829,-156 1829,-156 1829,-156 2093.72,-156 2093.72,-156"/>
<polygon fill="black" stroke="black" points="2093.72,-159.5 2103.72,-156 2093.72,-152.5 2093.72,-159.5"/>
</g>
<!-- RedisModule -->
<g id="node18" class="node">
<title>RedisModule</title>
<polygon fill="#8dd3c7" stroke="black" points="1714.94,-122 1711.94,-126 1690.94,-126 1687.94,-122 1623.06,-122 1623.06,-86 1714.94,-86 1714.94,-122"/>
<text text-anchor="middle" x="1669" y="-99.8" font-family="Times,serif" font-size="14.00">RedisModule</text>
</g>
<!-- RedisModule&#45;&gt;ServerTestModule -->
<g id="edge18" class="edge">
<title>RedisModule&#45;&gt;ServerTestModule</title>
<path fill="none" stroke="black" d="M1669,-122.01C1669,-138.05 1669,-159 1669,-159 1669,-159 2093.8,-159 2093.8,-159"/>
<polygon fill="black" stroke="black" points="2093.8,-162.5 2103.8,-159 2093.8,-155.5 2093.8,-162.5"/>
</g>
<!-- RoleModule -->
<g id="node19" class="node">
<title>RoleModule</title>
<polygon fill="#8dd3c7" stroke="black" points="1604.99,-122 1601.99,-126 1580.99,-126 1577.99,-122 1519.01,-122 1519.01,-86 1604.99,-86 1604.99,-122"/>
<text text-anchor="middle" x="1562" y="-99.8" font-family="Times,serif" font-size="14.00">RoleModule</text>
</g>
<!-- RoleModule&#45;&gt;ServerTestModule -->
<g id="edge19" class="edge">
<title>RoleModule&#45;&gt;ServerTestModule</title>
<path fill="none" stroke="black" d="M1562,-122.04C1562,-138.73 1562,-161 1562,-161 1562,-161 2093.8,-161 2093.8,-161"/>
<polygon fill="black" stroke="black" points="2093.8,-164.5 2103.8,-161 2093.8,-157.5 2093.8,-164.5"/>
</g>
<!-- SchoolApiModule -->
<g id="node20" class="node">
<title>SchoolApiModule</title>
<polygon fill="#8dd3c7" stroke="black" points="1500.94,-122 1497.94,-126 1476.94,-126 1473.94,-122 1381.06,-122 1381.06,-86 1500.94,-86 1500.94,-122"/>
<text text-anchor="middle" x="1441" y="-99.8" font-family="Times,serif" font-size="14.00">SchoolApiModule</text>
</g>
<!-- SchoolApiModule&#45;&gt;ServerTestModule -->
<g id="edge20" class="edge">
<title>SchoolApiModule&#45;&gt;ServerTestModule</title>
<path fill="none" stroke="black" d="M1441,-122.02C1441,-139.37 1441,-163 1441,-163 1441,-163 2093.6,-163 2093.6,-163"/>
<polygon fill="black" stroke="black" points="2093.6,-166.5 2103.6,-163 2093.6,-159.5 2093.6,-166.5"/>
</g>
<!-- SharingApiModule -->
<g id="node21" class="node">
<title>SharingApiModule</title>
<polygon fill="#8dd3c7" stroke="black" points="1363.1,-122 1360.1,-126 1339.1,-126 1336.1,-122 1238.9,-122 1238.9,-86 1363.1,-86 1363.1,-122"/>
<text text-anchor="middle" x="1301" y="-99.8" font-family="Times,serif" font-size="14.00">SharingApiModule</text>
</g>
<!-- SharingApiModule&#45;&gt;ServerTestModule -->
<g id="edge21" class="edge">
<title>SharingApiModule&#45;&gt;ServerTestModule</title>
<path fill="none" stroke="black" d="M1301,-122.27C1301,-140.56 1301,-166 1301,-166 1301,-166 2093.66,-166 2093.66,-166"/>
<polygon fill="black" stroke="black" points="2093.66,-169.5 2103.66,-166 2093.66,-162.5 2093.66,-169.5"/>
</g>
<!-- SystemApiModule -->
<g id="node22" class="node">
<title>SystemApiModule</title>
<polygon fill="#8dd3c7" stroke="black" points="1220.77,-122 1217.77,-126 1196.77,-126 1193.77,-122 1099.23,-122 1099.23,-86 1220.77,-86 1220.77,-122"/>
<text text-anchor="middle" x="1160" y="-99.8" font-family="Times,serif" font-size="14.00">SystemApiModule</text>
</g>
<!-- SystemApiModule&#45;&gt;ServerTestModule -->
<g id="edge22" class="edge">
<title>SystemApiModule&#45;&gt;ServerTestModule</title>
<path fill="none" stroke="black" d="M1160,-122.17C1160,-141.09 1160,-168 1160,-168 1160,-168 2093.83,-168 2093.83,-168"/>
<polygon fill="black" stroke="black" points="2093.83,-171.5 2103.83,-168 2093.83,-164.5 2093.83,-171.5"/>
</g>
<!-- TaskCardModule -->
<g id="node23" class="node">
<title>TaskCardModule</title>
<polygon fill="#8dd3c7" stroke="black" points="1080.97,-122 1077.97,-126 1056.97,-126 1053.97,-122 967.03,-122 967.03,-86 1080.97,-86 1080.97,-122"/>
<text text-anchor="middle" x="1024" y="-99.8" font-family="Times,serif" font-size="14.00">TaskCardModule</text>
</g>
<!-- TaskCardModule&#45;&gt;ServerTestModule -->
<g id="edge23" class="edge">
<title>TaskCardModule&#45;&gt;ServerTestModule</title>
<path fill="none" stroke="black" d="M1024,-122.31C1024,-142.15 1024,-171 1024,-171 1024,-171 2093.51,-171 2093.51,-171"/>
<polygon fill="black" stroke="black" points="2093.51,-174.5 2103.51,-171 2093.51,-167.5 2093.51,-174.5"/>
</g>
<!-- TaskModule -->
<g id="node24" class="node">
<title>TaskModule</title>
<polygon fill="#8dd3c7" stroke="black" points="949.26,-122 946.26,-126 925.26,-126 922.26,-122 862.74,-122 862.74,-86 949.26,-86 949.26,-122"/>
<text text-anchor="middle" x="906" y="-99.8" font-family="Times,serif" font-size="14.00">TaskModule</text>
</g>
<!-- TaskModule&#45;&gt;ServerTestModule -->
<g id="edge24" class="edge">
<title>TaskModule&#45;&gt;ServerTestModule</title>
<path fill="none" stroke="black" d="M906,-122.13C906,-142.57 906,-173 906,-173 906,-173 2093.75,-173 2093.75,-173"/>
<polygon fill="black" stroke="black" points="2093.75,-176.5 2103.75,-173 2093.75,-169.5 2093.75,-176.5"/>
</g>
<!-- ToolApiModule -->
<g id="node25" class="node">
<title>ToolApiModule</title>
<polygon fill="#8dd3c7" stroke="black" points="844.49,-122 841.49,-126 820.49,-126 817.49,-122 737.51,-122 737.51,-86 844.49,-86 844.49,-122"/>
<text text-anchor="middle" x="791" y="-99.8" font-family="Times,serif" font-size="14.00">ToolApiModule</text>
</g>
<!-- ToolApiModule&#45;&gt;ServerTestModule -->
<g id="edge25" class="edge">
<title>ToolApiModule&#45;&gt;ServerTestModule</title>
<path fill="none" stroke="black" d="M791,-122.28C791,-143.32 791,-175 791,-175 791,-175 2093.68,-175 2093.68,-175"/>
<polygon fill="black" stroke="black" points="2093.68,-178.5 2103.68,-175 2093.68,-171.5 2093.68,-178.5"/>
</g>
<!-- UserApiModule -->
<g id="node26" class="node">
<title>UserApiModule</title>
<polygon fill="#8dd3c7" stroke="black" points="719.47,-122 716.47,-126 695.47,-126 692.47,-122 612.53,-122 612.53,-86 719.47,-86 719.47,-122"/>
<text text-anchor="middle" x="666" y="-99.8" font-family="Times,serif" font-size="14.00">UserApiModule</text>
</g>
<!-- UserApiModule&#45;&gt;ServerTestModule -->
<g id="edge26" class="edge">
<title>UserApiModule&#45;&gt;ServerTestModule</title>
<path fill="none" stroke="black" d="M666,-122.29C666,-144.21 666,-178 666,-178 666,-178 2093.89,-178 2093.89,-178"/>
<polygon fill="black" stroke="black" points="2093.89,-181.5 2103.89,-178 2093.89,-174.5 2093.89,-181.5"/>
</g>
<!-- UserLoginMigrationApiModule -->
<g id="node27" class="node">
<title>UserLoginMigrationApiModule</title>
<polygon fill="#8dd3c7" stroke="black" points="594.41,-122 591.41,-126 570.41,-126 567.41,-122 397.59,-122 397.59,-86 594.41,-86 594.41,-122"/>
<text text-anchor="middle" x="496" y="-99.8" font-family="Times,serif" font-size="14.00">UserLoginMigrationApiModule</text>
</g>
<!-- UserLoginMigrationApiModule&#45;&gt;ServerTestModule -->
<g id="edge27" class="edge">
<title>UserLoginMigrationApiModule&#45;&gt;ServerTestModule</title>
<path fill="none" stroke="black" d="M496,-122.01C496,-144.49 496,-180 496,-180 496,-180 2093.65,-180 2093.65,-180"/>
<polygon fill="black" stroke="black" points="2093.65,-183.5 2103.65,-180 2093.65,-176.5 2093.65,-183.5"/>
</g>
<!-- VideoConferenceApiModule -->
<g id="node28" class="node">
<title>VideoConferenceApiModule</title>
<polygon fill="#8dd3c7" stroke="black" points="379.78,-122 376.78,-126 355.78,-126 352.78,-122 200.22,-122 200.22,-86 379.78,-86 379.78,-122"/>
<text text-anchor="middle" x="290" y="-99.8" font-family="Times,serif" font-size="14.00">VideoConferenceApiModule</text>
</g>
<!-- VideoConferenceApiModule&#45;&gt;ServerTestModule -->
<g id="edge28" class="edge">
<title>VideoConferenceApiModule&#45;&gt;ServerTestModule</title>
<path fill="none" stroke="black" d="M290,-122.32C290,-145.66 290,-183 290,-183 290,-183 2093.77,-183 2093.77,-183"/>
<polygon fill="black" stroke="black" points="2093.77,-186.5 2103.77,-183 2093.77,-179.5 2093.77,-186.5"/>
</g>
<!-- VideoConferenceModule -->
<g id="node29" class="node">
<title>VideoConferenceModule</title>
<polygon fill="#8dd3c7" stroke="black" points="182.28,-122 179.28,-126 158.28,-126 155.28,-122 23.72,-122 23.72,-86 182.28,-86 182.28,-122"/>
<text text-anchor="middle" x="103" y="-99.8" font-family="Times,serif" font-size="14.00">VideoConferenceModule</text>
</g>
<!-- VideoConferenceModule&#45;&gt;ServerTestModule -->
<g id="edge29" class="edge">
<title>VideoConferenceModule&#45;&gt;ServerTestModule</title>
<path fill="none" stroke="black" d="M103,-122.38C103,-146.28 103,-185 103,-185 103,-185 2093.71,-185 2093.71,-185"/>
<polygon fill="black" stroke="black" points="2093.71,-188.5 2103.71,-185 2093.71,-181.5 2093.71,-188.5"/>
</g>
</g>
</svg>
