<?xml version="1.0" encoding="UTF-8" standalone="no"?>
<!DOCTYPE svg PUBLIC "-//W3C//DTD SVG 1.1//EN"
 "http://www.w3.org/Graphics/SVG/1.1/DTD/svg11.dtd">
<!-- Generated by graphviz version 2.47.0 (20210316.0004)
 -->
<!-- Title: dependencies Pages: 1 -->
<svg width="4386pt" height="211pt"
 viewBox="0.00 0.00 4386.00 211.00" xmlns="http://www.w3.org/2000/svg" xmlns:xlink="http://www.w3.org/1999/xlink">
<g id="graph0" class="graph" transform="scale(1 1) rotate(0) translate(4 207)">
<title>dependencies</title>
<polygon fill="white" stroke="transparent" points="-4,4 -4,-207 4382,-207 4382,4 -4,4"/>
<text text-anchor="start" x="2168.01" y="-42.4" font-family="Times-12" font-weight="bold" font-size="14.00">Legend</text>
<polygon fill="#ffffb3" stroke="transparent" points="1955,-10 1955,-30 1975,-30 1975,-10 1955,-10"/>
<text text-anchor="start" x="1978.63" y="-15.4" font-family="Times-12" font-size="14.00"> &#160;Declarations</text>
<polygon fill="#8dd3c7" stroke="transparent" points="2068,-10 2068,-30 2088,-30 2088,-10 2068,-10"/>
<text text-anchor="start" x="2091.73" y="-15.4" font-family="Times-12" font-size="14.00"> &#160;Module</text>
<polygon fill="#80b1d3" stroke="transparent" points="2154,-10 2154,-30 2174,-30 2174,-10 2154,-10"/>
<text text-anchor="start" x="2177.78" y="-15.4" font-family="Times-12" font-size="14.00"> &#160;Bootstrap</text>
<polygon fill="#fdb462" stroke="transparent" points="2251,-10 2251,-30 2271,-30 2271,-10 2251,-10"/>
<text text-anchor="start" x="2274.67" y="-15.4" font-family="Times-12" font-size="14.00"> &#160;Providers</text>
<polygon fill="#fb8072" stroke="transparent" points="2347,-10 2347,-30 2367,-30 2367,-10 2347,-10"/>
<text text-anchor="start" x="2370.73" y="-15.4" font-family="Times-12" font-size="14.00"> &#160;Exports</text>
<g id="clust1" class="cluster">
<title>cluster_ServerTestModule</title>
<polygon fill="none" stroke="black" stroke-dasharray="1,5" points="8,-70 8,-195 4370,-195 4370,-70 8,-70"/>
</g>
<g id="clust3" class="cluster">
<title>cluster_ServerTestModule_imports</title>
<polygon fill="none" stroke="black" points="16,-78 16,-130 4362,-130 4362,-78 16,-78"/>
</g>
<!-- AccountApiModule -->
<g id="node1" class="node">
<title>AccountApiModule</title>
<polygon fill="#8dd3c7" stroke="black" points="4353.97,-122 4350.97,-126 4329.97,-126 4326.97,-122 4226.03,-122 4226.03,-86 4353.97,-86 4353.97,-122"/>
<text text-anchor="middle" x="4290" y="-99.8" font-family="Times,serif" font-size="14.00">AccountApiModule</text>
</g>
<!-- ServerTestModule -->
<g id="node29" class="node">
<title>ServerTestModule</title>
<polygon fill="#8dd3c7" stroke="black" points="2214.19,-187 2211.19,-191 2190.19,-191 2187.19,-187 2093.81,-187 2093.81,-151 2214.19,-151 2214.19,-187"/>
<text text-anchor="middle" x="2154" y="-164.8" font-family="Times,serif" font-size="14.00">ServerTestModule</text>
</g>
<!-- AccountApiModule&#45;&gt;ServerTestModule -->
<g id="edge1" class="edge">
<title>AccountApiModule&#45;&gt;ServerTestModule</title>
<path fill="none" stroke="black" d="M4290,-122.38C4290,-146.28 4290,-185 4290,-185 4290,-185 2224.2,-185 2224.2,-185"/>
<polygon fill="black" stroke="black" points="2224.2,-181.5 2214.2,-185 2224.2,-188.5 2224.2,-181.5"/>
</g>
<!-- AuthenticationApiModule -->
<g id="node2" class="node">
<title>AuthenticationApiModule</title>
<polygon fill="#8dd3c7" stroke="black" points="4207.75,-122 4204.75,-126 4183.75,-126 4180.75,-122 4044.25,-122 4044.25,-86 4207.75,-86 4207.75,-122"/>
<text text-anchor="middle" x="4126" y="-99.8" font-family="Times,serif" font-size="14.00">AuthenticationApiModule</text>
</g>
<!-- AuthenticationApiModule&#45;&gt;ServerTestModule -->
<g id="edge2" class="edge">
<title>AuthenticationApiModule&#45;&gt;ServerTestModule</title>
<path fill="none" stroke="black" d="M4126,-122.09C4126,-145.13 4126,-182 4126,-182 4126,-182 2224.09,-182 2224.09,-182"/>
<polygon fill="black" stroke="black" points="2224.09,-178.5 2214.09,-182 2224.09,-185.5 2224.09,-178.5"/>
</g>
<!-- BoardApiModule -->
<g id="node3" class="node">
<title>BoardApiModule</title>
<polygon fill="#8dd3c7" stroke="black" points="4026.26,-122 4023.26,-126 4002.26,-126 3999.26,-122 3911.74,-122 3911.74,-86 4026.26,-86 4026.26,-122"/>
<text text-anchor="middle" x="3969" y="-99.8" font-family="Times,serif" font-size="14.00">BoardApiModule</text>
</g>
<!-- BoardApiModule&#45;&gt;ServerTestModule -->
<g id="edge3" class="edge">
<title>BoardApiModule&#45;&gt;ServerTestModule</title>
<path fill="none" stroke="black" d="M3969,-122.01C3969,-144.49 3969,-180 3969,-180 3969,-180 2224.13,-180 2224.13,-180"/>
<polygon fill="black" stroke="black" points="2224.13,-176.5 2214.13,-180 2224.13,-183.5 2224.13,-176.5"/>
</g>
<!-- CollaborativeStorageModule -->
<g id="node4" class="node">
<title>CollaborativeStorageModule</title>
<polygon fill="#8dd3c7" stroke="black" points="3893.02,-122 3890.02,-126 3869.02,-126 3866.02,-122 3714.98,-122 3714.98,-86 3893.02,-86 3893.02,-122"/>
<text text-anchor="middle" x="3804" y="-99.8" font-family="Times,serif" font-size="14.00">CollaborativeStorageModule</text>
</g>
<!-- CollaborativeStorageModule&#45;&gt;ServerTestModule -->
<g id="edge4" class="edge">
<title>CollaborativeStorageModule&#45;&gt;ServerTestModule</title>
<path fill="none" stroke="black" d="M3804,-122.04C3804,-143.66 3804,-177 3804,-177 3804,-177 2224.19,-177 2224.19,-177"/>
<polygon fill="black" stroke="black" points="2224.19,-173.5 2214.19,-177 2224.19,-180.5 2224.19,-173.5"/>
</g>
<!-- CoreModule -->
<g id="node5" class="node">
<title>CoreModule</title>
<polygon fill="#8dd3c7" stroke="black" points="3696.26,-122 3693.26,-126 3672.26,-126 3669.26,-122 3609.74,-122 3609.74,-86 3696.26,-86 3696.26,-122"/>
<text text-anchor="middle" x="3653" y="-99.8" font-family="Times,serif" font-size="14.00">CoreModule</text>
</g>
<!-- CoreModule&#45;&gt;ServerTestModule -->
<g id="edge5" class="edge">
<title>CoreModule&#45;&gt;ServerTestModule</title>
<path fill="none" stroke="black" d="M3653,-122.28C3653,-143.32 3653,-175 3653,-175 3653,-175 2224.15,-175 2224.15,-175"/>
<polygon fill="black" stroke="black" points="2224.15,-171.5 2214.15,-175 2224.15,-178.5 2224.15,-171.5"/>
</g>
<!-- FilesStorageClientModule -->
<g id="node6" class="node">
<title>FilesStorageClientModule</title>
<polygon fill="#8dd3c7" stroke="black" points="3591.76,-122 3588.76,-126 3567.76,-126 3564.76,-122 3428.24,-122 3428.24,-86 3591.76,-86 3591.76,-122"/>
<text text-anchor="middle" x="3510" y="-99.8" font-family="Times,serif" font-size="14.00">FilesStorageClientModule</text>
</g>
<!-- FilesStorageClientModule&#45;&gt;ServerTestModule -->
<g id="edge6" class="edge">
<title>FilesStorageClientModule&#45;&gt;ServerTestModule</title>
<path fill="none" stroke="black" d="M3510,-122.22C3510,-142.37 3510,-172 3510,-172 3510,-172 2224.46,-172 2224.46,-172"/>
<polygon fill="black" stroke="black" points="2224.46,-168.5 2214.46,-172 2224.46,-175.5 2224.46,-168.5"/>
</g>
<!-- GroupApiModule -->
<g id="node7" class="node">
<title>GroupApiModule</title>
<polygon fill="#8dd3c7" stroke="black" points="3410.31,-122 3407.31,-126 3386.31,-126 3383.31,-122 3293.69,-122 3293.69,-86 3410.31,-86 3410.31,-122"/>
<text text-anchor="middle" x="3352" y="-99.8" font-family="Times,serif" font-size="14.00">GroupApiModule</text>
</g>
<!-- GroupApiModule&#45;&gt;ServerTestModule -->
<g id="edge7" class="edge">
<title>GroupApiModule&#45;&gt;ServerTestModule</title>
<path fill="none" stroke="black" d="M3352,-122.11C3352,-141.34 3352,-169 3352,-169 3352,-169 2224.23,-169 2224.23,-169"/>
<polygon fill="black" stroke="black" points="2224.23,-165.5 2214.23,-169 2224.23,-172.5 2224.23,-165.5"/>
</g>
<!-- ImportUserModule -->
<g id="node8" class="node">
<title>ImportUserModule</title>
<polygon fill="#8dd3c7" stroke="black" points="3276.08,-122 3273.08,-126 3252.08,-126 3249.08,-122 3151.92,-122 3151.92,-86 3276.08,-86 3276.08,-122"/>
<text text-anchor="middle" x="3214" y="-99.8" font-family="Times,serif" font-size="14.00">ImportUserModule</text>
</g>
<!-- ImportUserModule&#45;&gt;ServerTestModule -->
<g id="edge8" class="edge">
<title>ImportUserModule&#45;&gt;ServerTestModule</title>
<path fill="none" stroke="black" d="M3214,-122.22C3214,-140.83 3214,-167 3214,-167 3214,-167 2224.41,-167 2224.41,-167"/>
<polygon fill="black" stroke="black" points="2224.41,-163.5 2214.41,-167 2224.41,-170.5 2224.41,-163.5"/>
</g>
<!-- LearnroomApiModule -->
<g id="node9" class="node">
<title>LearnroomApiModule</title>
<polygon fill="#8dd3c7" stroke="black" points="3134.24,-122 3131.24,-126 3110.24,-126 3107.24,-122 2991.76,-122 2991.76,-86 3134.24,-86 3134.24,-122"/>
<text text-anchor="middle" x="3063" y="-99.8" font-family="Times,serif" font-size="14.00">LearnroomApiModule</text>
</g>
<!-- LearnroomApiModule&#45;&gt;ServerTestModule -->
<g id="edge9" class="edge">
<title>LearnroomApiModule&#45;&gt;ServerTestModule</title>
<path fill="none" stroke="black" d="M3063,-122C3063,-139.68 3063,-164 3063,-164 3063,-164 2224.35,-164 2224.35,-164"/>
<polygon fill="black" stroke="black" points="2224.35,-160.5 2214.35,-164 2224.35,-167.5 2224.35,-160.5"/>
</g>
<!-- LessonApiModule -->
<g id="node10" class="node">
<title>LessonApiModule</title>
<polygon fill="#8dd3c7" stroke="black" points="2974.2,-122 2971.2,-126 2950.2,-126 2947.2,-122 2853.8,-122 2853.8,-86 2974.2,-86 2974.2,-122"/>
<text text-anchor="middle" x="2914" y="-99.8" font-family="Times,serif" font-size="14.00">LessonApiModule</text>
</g>
<!-- LessonApiModule&#45;&gt;ServerTestModule -->
<g id="edge10" class="edge">
<title>LessonApiModule&#45;&gt;ServerTestModule</title>
<path fill="none" stroke="black" d="M2914,-122.03C2914,-139.06 2914,-162 2914,-162 2914,-162 2224.27,-162 2224.27,-162"/>
<polygon fill="black" stroke="black" points="2224.27,-158.5 2214.27,-162 2224.27,-165.5 2224.27,-158.5"/>
</g>
<!-- LoggerModule -->
<g id="node11" class="node">
<title>LoggerModule</title>
<polygon fill="#8dd3c7" stroke="black" points="2835.98,-122 2832.98,-126 2811.98,-126 2808.98,-122 2736.02,-122 2736.02,-86 2835.98,-86 2835.98,-122"/>
<text text-anchor="middle" x="2786" y="-99.8" font-family="Times,serif" font-size="14.00">LoggerModule</text>
</g>
<!-- LoggerModule&#45;&gt;ServerTestModule -->
<g id="edge11" class="edge">
<title>LoggerModule&#45;&gt;ServerTestModule</title>
<path fill="none" stroke="black" d="M2786,-122.01C2786,-138.05 2786,-159 2786,-159 2786,-159 2224.31,-159 2224.31,-159"/>
<polygon fill="black" stroke="black" points="2224.31,-155.5 2214.31,-159 2224.31,-162.5 2224.31,-155.5"/>
</g>
<!-- MetaTagExtractorApiModule -->
<g id="node12" class="node">
<title>MetaTagExtractorApiModule</title>
<polygon fill="#8dd3c7" stroke="black" points="2717.66,-122 2714.66,-126 2693.66,-126 2690.66,-122 2534.34,-122 2534.34,-86 2717.66,-86 2717.66,-122"/>
<text text-anchor="middle" x="2626" y="-99.8" font-family="Times,serif" font-size="14.00">MetaTagExtractorApiModule</text>
</g>
<!-- MetaTagExtractorApiModule&#45;&gt;ServerTestModule -->
<g id="edge12" class="edge">
<title>MetaTagExtractorApiModule&#45;&gt;ServerTestModule</title>
<path fill="none" stroke="black" d="M2626,-122.24C2626,-137.57 2626,-157 2626,-157 2626,-157 2224.26,-157 2224.26,-157"/>
<polygon fill="black" stroke="black" points="2224.26,-153.5 2214.26,-157 2224.26,-160.5 2224.26,-153.5"/>
</g>
<!-- MetaTagExtractorModule -->
<g id="node13" class="node">
<title>MetaTagExtractorModule</title>
<polygon fill="#8dd3c7" stroke="black" points="2516.17,-122 2513.17,-126 2492.17,-126 2489.17,-122 2353.83,-122 2353.83,-86 2516.17,-86 2516.17,-122"/>
<text text-anchor="middle" x="2435" y="-99.8" font-family="Times,serif" font-size="14.00">MetaTagExtractorModule</text>
</g>
<!-- MetaTagExtractorModule&#45;&gt;ServerTestModule -->
<g id="edge13" class="edge">
<title>MetaTagExtractorModule&#45;&gt;ServerTestModule</title>
<path fill="none" stroke="black" d="M2435,-122.05C2435,-136.37 2435,-154 2435,-154 2435,-154 2224.28,-154 2224.28,-154"/>
<polygon fill="black" stroke="black" points="2224.28,-150.5 2214.28,-154 2224.28,-157.5 2224.28,-150.5"/>
</g>
<!-- MongoMemoryDatabaseModule -->
<g id="node14" class="node">
<title>MongoMemoryDatabaseModule</title>
<polygon fill="#8dd3c7" stroke="black" points="2335.51,-122 2332.51,-126 2311.51,-126 2308.51,-122 2136.49,-122 2136.49,-86 2335.51,-86 2335.51,-122"/>
<text text-anchor="middle" x="2236" y="-99.8" font-family="Times,serif" font-size="14.00">MongoMemoryDatabaseModule</text>
</g>
<!-- MongoMemoryDatabaseModule&#45;&gt;ServerTestModule -->
<g id="edge14" class="edge">
<title>MongoMemoryDatabaseModule&#45;&gt;ServerTestModule</title>
<path fill="none" stroke="black" d="M2175.17,-122.11C2175.17,-122.11 2175.17,-140.99 2175.17,-140.99"/>
<polygon fill="black" stroke="black" points="2171.67,-140.99 2175.17,-150.99 2178.67,-140.99 2171.67,-140.99"/>
</g>
<!-- NewsModule -->
<g id="node15" class="node">
<title>NewsModule</title>
<polygon fill="#8dd3c7" stroke="black" points="2118.92,-122 2115.92,-126 2094.92,-126 2091.92,-122 2027.08,-122 2027.08,-86 2118.92,-86 2118.92,-122"/>
<text text-anchor="middle" x="2073" y="-99.8" font-family="Times,serif" font-size="14.00">NewsModule</text>
</g>
<!-- NewsModule&#45;&gt;ServerTestModule -->
<g id="edge15" class="edge">
<title>NewsModule&#45;&gt;ServerTestModule</title>
<path fill="none" stroke="black" d="M2106.31,-122.11C2106.31,-122.11 2106.31,-140.99 2106.31,-140.99"/>
<polygon fill="black" stroke="black" points="2102.81,-140.99 2106.31,-150.99 2109.81,-140.99 2102.81,-140.99"/>
</g>
<!-- OauthApiModule -->
<g id="node16" class="node">
<title>OauthApiModule</title>
<polygon fill="#8dd3c7" stroke="black" points="2009.26,-122 2006.26,-126 1985.26,-126 1982.26,-122 1894.74,-122 1894.74,-86 2009.26,-86 2009.26,-122"/>
<text text-anchor="middle" x="1952" y="-99.8" font-family="Times,serif" font-size="14.00">OauthApiModule</text>
</g>
<!-- OauthApiModule&#45;&gt;ServerTestModule -->
<g id="edge16" class="edge">
<title>OauthApiModule&#45;&gt;ServerTestModule</title>
<path fill="none" stroke="black" d="M1952,-122.05C1952,-136.37 1952,-154 1952,-154 1952,-154 2083.67,-154 2083.67,-154"/>
<polygon fill="black" stroke="black" points="2083.67,-157.5 2093.67,-154 2083.67,-150.5 2083.67,-157.5"/>
</g>
<!-- OauthProviderApiModule -->
<g id="node17" class="node">
<title>OauthProviderApiModule</title>
<polygon fill="#8dd3c7" stroke="black" points="1876.47,-122 1873.47,-126 1852.47,-126 1849.47,-122 1713.53,-122 1713.53,-86 1876.47,-86 1876.47,-122"/>
<text text-anchor="middle" x="1795" y="-99.8" font-family="Times,serif" font-size="14.00">OauthProviderApiModule</text>
</g>
<!-- OauthProviderApiModule&#45;&gt;ServerTestModule -->
<g id="edge17" class="edge">
<title>OauthProviderApiModule&#45;&gt;ServerTestModule</title>
<path fill="none" stroke="black" d="M1795,-122.24C1795,-137.57 1795,-157 1795,-157 1795,-157 2083.51,-157 2083.51,-157"/>
<polygon fill="black" stroke="black" points="2083.51,-160.5 2093.51,-157 2083.51,-153.5 2083.51,-160.5"/>
</g>
<!-- PseudonymApiModule -->
<g id="node18" class="node">
<title>PseudonymApiModule</title>
<polygon fill="#8dd3c7" stroke="black" points="1695.88,-122 1692.88,-126 1671.88,-126 1668.88,-122 1550.12,-122 1550.12,-86 1695.88,-86 1695.88,-122"/>
<text text-anchor="middle" x="1623" y="-99.8" font-family="Times,serif" font-size="14.00">PseudonymApiModule</text>
</g>
<!-- PseudonymApiModule&#45;&gt;ServerTestModule -->
<g id="edge18" class="edge">
<title>PseudonymApiModule&#45;&gt;ServerTestModule</title>
<path fill="none" stroke="black" d="M1623,-122.01C1623,-138.05 1623,-159 1623,-159 1623,-159 2083.86,-159 2083.86,-159"/>
<polygon fill="black" stroke="black" points="2083.86,-162.5 2093.86,-159 2083.86,-155.5 2083.86,-162.5"/>
</g>
<!-- RabbitMQWrapperTestModule -->
<g id="node19" class="node">
<title>RabbitMQWrapperTestModule</title>
<polygon fill="#8dd3c7" stroke="black" points="1532,-122 1529,-126 1508,-126 1505,-122 1340,-122 1340,-86 1532,-86 1532,-122"/>
<text text-anchor="middle" x="1436" y="-99.8" font-family="Times,serif" font-size="14.00">RabbitMQWrapperTestModule</text>
</g>
<!-- RabbitMQWrapperTestModule&#45;&gt;ServerTestModule -->
<g id="edge19" class="edge">
<title>RabbitMQWrapperTestModule&#45;&gt;ServerTestModule</title>
<path fill="none" stroke="black" d="M1436,-122.03C1436,-139.06 1436,-162 1436,-162 1436,-162 2083.71,-162 2083.71,-162"/>
<polygon fill="black" stroke="black" points="2083.71,-165.5 2093.71,-162 2083.71,-158.5 2083.71,-165.5"/>
</g>
<!-- RedisModule -->
<g id="node20" class="node">
<title>RedisModule</title>
<polygon fill="#8dd3c7" stroke="black" points="1321.94,-122 1318.94,-126 1297.94,-126 1294.94,-122 1230.06,-122 1230.06,-86 1321.94,-86 1321.94,-122"/>
<text text-anchor="middle" x="1276" y="-99.8" font-family="Times,serif" font-size="14.00">RedisModule</text>
</g>
<!-- RedisModule&#45;&gt;ServerTestModule -->
<g id="edge20" class="edge">
<title>RedisModule&#45;&gt;ServerTestModule</title>
<path fill="none" stroke="black" d="M1276,-122C1276,-139.68 1276,-164 1276,-164 1276,-164 2083.65,-164 2083.65,-164"/>
<polygon fill="black" stroke="black" points="2083.65,-167.5 2093.65,-164 2083.65,-160.5 2083.65,-167.5"/>
</g>
<!-- SharingApiModule -->
<g id="node21" class="node">
<title>SharingApiModule</title>
<polygon fill="#8dd3c7" stroke="black" points="1212.1,-122 1209.1,-126 1188.1,-126 1185.1,-122 1087.9,-122 1087.9,-86 1212.1,-86 1212.1,-122"/>
<text text-anchor="middle" x="1150" y="-99.8" font-family="Times,serif" font-size="14.00">SharingApiModule</text>
</g>
<!-- SharingApiModule&#45;&gt;ServerTestModule -->
<g id="edge21" class="edge">
<title>SharingApiModule&#45;&gt;ServerTestModule</title>
<path fill="none" stroke="black" d="M1150,-122.22C1150,-140.83 1150,-167 1150,-167 1150,-167 2083.83,-167 2083.83,-167"/>
<polygon fill="black" stroke="black" points="2083.83,-170.5 2093.83,-167 2083.83,-163.5 2083.83,-170.5"/>
</g>
<!-- SystemApiModule -->
<g id="node22" class="node">
<title>SystemApiModule</title>
<polygon fill="#8dd3c7" stroke="black" points="1069.77,-122 1066.77,-126 1045.77,-126 1042.77,-122 948.23,-122 948.23,-86 1069.77,-86 1069.77,-122"/>
<text text-anchor="middle" x="1009" y="-99.8" font-family="Times,serif" font-size="14.00">SystemApiModule</text>
</g>
<!-- SystemApiModule&#45;&gt;ServerTestModule -->
<g id="edge22" class="edge">
<title>SystemApiModule&#45;&gt;ServerTestModule</title>
<path fill="none" stroke="black" d="M1009,-122.11C1009,-141.34 1009,-169 1009,-169 1009,-169 2083.65,-169 2083.65,-169"/>
<polygon fill="black" stroke="black" points="2083.65,-172.5 2093.65,-169 2083.65,-165.5 2083.65,-172.5"/>
</g>
<!-- TaskApiModule -->
<g id="node23" class="node">
<title>TaskApiModule</title>
<polygon fill="#8dd3c7" stroke="black" points="929.76,-122 926.76,-126 905.76,-126 902.76,-122 822.24,-122 822.24,-86 929.76,-86 929.76,-122"/>
<text text-anchor="middle" x="876" y="-99.8" font-family="Times,serif" font-size="14.00">TaskApiModule</text>
</g>
<!-- TaskApiModule&#45;&gt;ServerTestModule -->
<g id="edge23" class="edge">
<title>TaskApiModule&#45;&gt;ServerTestModule</title>
<path fill="none" stroke="black" d="M876,-122.22C876,-142.37 876,-172 876,-172 876,-172 2083.65,-172 2083.65,-172"/>
<polygon fill="black" stroke="black" points="2083.65,-175.5 2093.65,-172 2083.65,-168.5 2083.65,-175.5"/>
</g>
<!-- TeamsApiModule -->
<g id="node24" class="node">
<title>TeamsApiModule</title>
<polygon fill="#8dd3c7" stroke="black" points="803.86,-122 800.86,-126 779.86,-126 776.86,-122 686.14,-122 686.14,-86 803.86,-86 803.86,-122"/>
<text text-anchor="middle" x="745" y="-99.8" font-family="Times,serif" font-size="14.00">TeamsApiModule</text>
</g>
<!-- TeamsApiModule&#45;&gt;ServerTestModule -->
<g id="edge24" class="edge">
<title>TeamsApiModule&#45;&gt;ServerTestModule</title>
<path fill="none" stroke="black" d="M745,-122.28C745,-143.32 745,-175 745,-175 745,-175 2083.46,-175 2083.46,-175"/>
<polygon fill="black" stroke="black" points="2083.46,-178.5 2093.46,-175 2083.46,-171.5 2083.46,-178.5"/>
</g>
<!-- ToolApiModule -->
<g id="node25" class="node">
<title>ToolApiModule</title>
<polygon fill="#8dd3c7" stroke="black" points="668.49,-122 665.49,-126 644.49,-126 641.49,-122 561.51,-122 561.51,-86 668.49,-86 668.49,-122"/>
<text text-anchor="middle" x="615" y="-99.8" font-family="Times,serif" font-size="14.00">ToolApiModule</text>
</g>
<!-- ToolApiModule&#45;&gt;ServerTestModule -->
<g id="edge25" class="edge">
<title>ToolApiModule&#45;&gt;ServerTestModule</title>
<path fill="none" stroke="black" d="M615,-122.04C615,-143.66 615,-177 615,-177 615,-177 2083.67,-177 2083.67,-177"/>
<polygon fill="black" stroke="black" points="2083.67,-180.5 2093.67,-177 2083.67,-173.5 2083.67,-180.5"/>
</g>
<!-- UserApiModule -->
<g id="node26" class="node">
<title>UserApiModule</title>
<polygon fill="#8dd3c7" stroke="black" points="543.47,-122 540.47,-126 519.47,-126 516.47,-122 436.53,-122 436.53,-86 543.47,-86 543.47,-122"/>
<text text-anchor="middle" x="490" y="-99.8" font-family="Times,serif" font-size="14.00">UserApiModule</text>
</g>
<!-- UserApiModule&#45;&gt;ServerTestModule -->
<g id="edge26" class="edge">
<title>UserApiModule&#45;&gt;ServerTestModule</title>
<path fill="none" stroke="black" d="M490,-122.01C490,-144.49 490,-180 490,-180 490,-180 2083.79,-180 2083.79,-180"/>
<polygon fill="black" stroke="black" points="2083.79,-183.5 2093.79,-180 2083.79,-176.5 2083.79,-183.5"/>
</g>
<!-- UserLoginMigrationApiModule -->
<g id="node27" class="node">
<title>UserLoginMigrationApiModule</title>
<polygon fill="#8dd3c7" stroke="black" points="418.41,-122 415.41,-126 394.41,-126 391.41,-122 221.59,-122 221.59,-86 418.41,-86 418.41,-122"/>
<text text-anchor="middle" x="320" y="-99.8" font-family="Times,serif" font-size="14.00">UserLoginMigrationApiModule</text>
</g>
<!-- UserLoginMigrationApiModule&#45;&gt;ServerTestModule -->
<g id="edge27" class="edge">
<title>UserLoginMigrationApiModule&#45;&gt;ServerTestModule</title>
<path fill="none" stroke="black" d="M320,-122.09C320,-145.13 320,-182 320,-182 320,-182 2083.76,-182 2083.76,-182"/>
<polygon fill="black" stroke="black" points="2083.76,-185.5 2093.76,-182 2083.76,-178.5 2083.76,-185.5"/>
</g>
<!-- VideoConferenceApiModule -->
<g id="node28" class="node">
<title>VideoConferenceApiModule</title>
<polygon fill="#8dd3c7" stroke="black" points="203.78,-122 200.78,-126 179.78,-126 176.78,-122 24.22,-122 24.22,-86 203.78,-86 203.78,-122"/>
<text text-anchor="middle" x="114" y="-99.8" font-family="Times,serif" font-size="14.00">VideoConferenceApiModule</text>
</g>
<!-- VideoConferenceApiModule&#45;&gt;ServerTestModule -->
<g id="edge28" class="edge">
<title>VideoConferenceApiModule&#45;&gt;ServerTestModule</title>
<path fill="none" stroke="black" d="M114,-122.38C114,-146.28 114,-185 114,-185 114,-185 2083.78,-185 2083.78,-185"/>
<polygon fill="black" stroke="black" points="2083.78,-188.5 2093.78,-185 2083.78,-181.5 2083.78,-188.5"/>
</g>
</g>
</svg>
