<?xml version="1.0" encoding="UTF-8" standalone="no"?>
<!DOCTYPE svg PUBLIC "-//W3C//DTD SVG 1.1//EN"
 "http://www.w3.org/Graphics/SVG/1.1/DTD/svg11.dtd">
<!-- Generated by graphviz version 2.47.0 (20210316.0004)
 -->
<!-- Title: dependencies Pages: 1 -->
<svg width="4183pt" height="211pt"
 viewBox="0.00 0.00 4183.00 211.00" xmlns="http://www.w3.org/2000/svg" xmlns:xlink="http://www.w3.org/1999/xlink">
<g id="graph0" class="graph" transform="scale(1 1) rotate(0) translate(4 207)">
<title>dependencies</title>
<polygon fill="white" stroke="transparent" points="-4,4 -4,-207 4179,-207 4179,4 -4,4"/>
<text text-anchor="start" x="2066.51" y="-42.4" font-family="Times-12" font-weight="bold" font-size="14.00">Legend</text>
<polygon fill="#ffffb3" stroke="transparent" points="1853.5,-10 1853.5,-30 1873.5,-30 1873.5,-10 1853.5,-10"/>
<text text-anchor="start" x="1877.13" y="-15.4" font-family="Times-12" font-size="14.00"> &#160;Declarations</text>
<polygon fill="#8dd3c7" stroke="transparent" points="1966.5,-10 1966.5,-30 1986.5,-30 1986.5,-10 1966.5,-10"/>
<text text-anchor="start" x="1990.23" y="-15.4" font-family="Times-12" font-size="14.00"> &#160;Module</text>
<polygon fill="#80b1d3" stroke="transparent" points="2052.5,-10 2052.5,-30 2072.5,-30 2072.5,-10 2052.5,-10"/>
<text text-anchor="start" x="2076.28" y="-15.4" font-family="Times-12" font-size="14.00"> &#160;Bootstrap</text>
<polygon fill="#fdb462" stroke="transparent" points="2149.5,-10 2149.5,-30 2169.5,-30 2169.5,-10 2149.5,-10"/>
<text text-anchor="start" x="2173.17" y="-15.4" font-family="Times-12" font-size="14.00"> &#160;Providers</text>
<polygon fill="#fb8072" stroke="transparent" points="2245.5,-10 2245.5,-30 2265.5,-30 2265.5,-10 2245.5,-10"/>
<text text-anchor="start" x="2269.23" y="-15.4" font-family="Times-12" font-size="14.00"> &#160;Exports</text>
<g id="clust1" class="cluster">
<title>cluster_ServerTestModule</title>
<polygon fill="none" stroke="black" stroke-dasharray="1,5" points="8,-70 8,-195 4167,-195 4167,-70 8,-70"/>
</g>
<g id="clust3" class="cluster">
<title>cluster_ServerTestModule_imports</title>
<polygon fill="none" stroke="black" points="16,-78 16,-130 4159,-130 4159,-78 16,-78"/>
</g>
<!-- AccountApiModule -->
<g id="node1" class="node">
<title>AccountApiModule</title>
<polygon fill="#8dd3c7" stroke="black" points="4150.97,-122 4147.97,-126 4126.97,-126 4123.97,-122 4023.03,-122 4023.03,-86 4150.97,-86 4150.97,-122"/>
<text text-anchor="middle" x="4087" y="-99.8" font-family="Times,serif" font-size="14.00">AccountApiModule</text>
</g>
<!-- ServerTestModule -->
<g id="node28" class="node">
<title>ServerTestModule</title>
<polygon fill="#8dd3c7" stroke="black" points="2133.19,-187 2130.19,-191 2109.19,-191 2106.19,-187 2012.81,-187 2012.81,-151 2133.19,-151 2133.19,-187"/>
<text text-anchor="middle" x="2073" y="-164.8" font-family="Times,serif" font-size="14.00">ServerTestModule</text>
</g>
<!-- AccountApiModule&#45;&gt;ServerTestModule -->
<g id="edge1" class="edge">
<title>AccountApiModule&#45;&gt;ServerTestModule</title>
<path fill="none" stroke="black" d="M4087,-122.38C4087,-146.28 4087,-185 4087,-185 4087,-185 2143.28,-185 2143.28,-185"/>
<polygon fill="black" stroke="black" points="2143.28,-181.5 2133.28,-185 2143.27,-188.5 2143.28,-181.5"/>
</g>
<!-- AuthenticationApiModule -->
<g id="node2" class="node">
<title>AuthenticationApiModule</title>
<polygon fill="#8dd3c7" stroke="black" points="4004.75,-122 4001.75,-126 3980.75,-126 3977.75,-122 3841.25,-122 3841.25,-86 4004.75,-86 4004.75,-122"/>
<text text-anchor="middle" x="3923" y="-99.8" font-family="Times,serif" font-size="14.00">AuthenticationApiModule</text>
</g>
<!-- AuthenticationApiModule&#45;&gt;ServerTestModule -->
<g id="edge2" class="edge">
<title>AuthenticationApiModule&#45;&gt;ServerTestModule</title>
<path fill="none" stroke="black" d="M3923,-122.09C3923,-145.13 3923,-182 3923,-182 3923,-182 2143.24,-182 2143.24,-182"/>
<polygon fill="black" stroke="black" points="2143.24,-178.5 2133.24,-182 2143.24,-185.5 2143.24,-178.5"/>
</g>
<!-- BoardApiModule -->
<g id="node3" class="node">
<title>BoardApiModule</title>
<polygon fill="#8dd3c7" stroke="black" points="3823.26,-122 3820.26,-126 3799.26,-126 3796.26,-122 3708.74,-122 3708.74,-86 3823.26,-86 3823.26,-122"/>
<text text-anchor="middle" x="3766" y="-99.8" font-family="Times,serif" font-size="14.00">BoardApiModule</text>
</g>
<!-- BoardApiModule&#45;&gt;ServerTestModule -->
<g id="edge3" class="edge">
<title>BoardApiModule&#45;&gt;ServerTestModule</title>
<path fill="none" stroke="black" d="M3766,-122.16C3766,-144.35 3766,-179 3766,-179 3766,-179 2143.25,-179 2143.25,-179"/>
<polygon fill="black" stroke="black" points="2143.25,-175.5 2133.25,-179 2143.25,-182.5 2143.25,-175.5"/>
</g>
<!-- CollaborativeStorageModule -->
<g id="node4" class="node">
<title>CollaborativeStorageModule</title>
<polygon fill="#8dd3c7" stroke="black" points="3690.02,-122 3687.02,-126 3666.02,-126 3663.02,-122 3511.98,-122 3511.98,-86 3690.02,-86 3690.02,-122"/>
<text text-anchor="middle" x="3601" y="-99.8" font-family="Times,serif" font-size="14.00">CollaborativeStorageModule</text>
</g>
<!-- CollaborativeStorageModule&#45;&gt;ServerTestModule -->
<g id="edge4" class="edge">
<title>CollaborativeStorageModule&#45;&gt;ServerTestModule</title>
<path fill="none" stroke="black" d="M3601,-122.17C3601,-143.5 3601,-176 3601,-176 3601,-176 2143.37,-176 2143.37,-176"/>
<polygon fill="black" stroke="black" points="2143.37,-172.5 2133.37,-176 2143.37,-179.5 2143.37,-172.5"/>
</g>
<!-- CoreModule -->
<g id="node5" class="node">
<title>CoreModule</title>
<polygon fill="#8dd3c7" stroke="black" points="3493.26,-122 3490.26,-126 3469.26,-126 3466.26,-122 3406.74,-122 3406.74,-86 3493.26,-86 3493.26,-122"/>
<text text-anchor="middle" x="3450" y="-99.8" font-family="Times,serif" font-size="14.00">CoreModule</text>
</g>
<!-- CoreModule&#45;&gt;ServerTestModule -->
<g id="edge5" class="edge">
<title>CoreModule&#45;&gt;ServerTestModule</title>
<path fill="none" stroke="black" d="M3450,-122.03C3450,-142.77 3450,-174 3450,-174 3450,-174 2143.5,-174 2143.5,-174"/>
<polygon fill="black" stroke="black" points="2143.5,-170.5 2133.5,-174 2143.5,-177.5 2143.5,-170.5"/>
</g>
<!-- FilesStorageClientModule -->
<g id="node6" class="node">
<title>FilesStorageClientModule</title>
<polygon fill="#8dd3c7" stroke="black" points="3388.76,-122 3385.76,-126 3364.76,-126 3361.76,-122 3225.24,-122 3225.24,-86 3388.76,-86 3388.76,-122"/>
<text text-anchor="middle" x="3307" y="-99.8" font-family="Times,serif" font-size="14.00">FilesStorageClientModule</text>
</g>
<!-- FilesStorageClientModule&#45;&gt;ServerTestModule -->
<g id="edge6" class="edge">
<title>FilesStorageClientModule&#45;&gt;ServerTestModule</title>
<path fill="none" stroke="black" d="M3307,-122.31C3307,-142.15 3307,-171 3307,-171 3307,-171 2143.35,-171 2143.35,-171"/>
<polygon fill="black" stroke="black" points="2143.35,-167.5 2133.35,-171 2143.35,-174.5 2143.35,-167.5"/>
</g>
<!-- GroupApiModule -->
<g id="node7" class="node">
<title>GroupApiModule</title>
<polygon fill="#8dd3c7" stroke="black" points="3207.31,-122 3204.31,-126 3183.31,-126 3180.31,-122 3090.69,-122 3090.69,-86 3207.31,-86 3207.31,-122"/>
<text text-anchor="middle" x="3149" y="-99.8" font-family="Times,serif" font-size="14.00">GroupApiModule</text>
</g>
<!-- GroupApiModule&#45;&gt;ServerTestModule -->
<g id="edge7" class="edge">
<title>GroupApiModule&#45;&gt;ServerTestModule</title>
<path fill="none" stroke="black" d="M3149,-122.17C3149,-141.09 3149,-168 3149,-168 3149,-168 2143.16,-168 2143.16,-168"/>
<polygon fill="black" stroke="black" points="2143.16,-164.5 2133.16,-168 2143.16,-171.5 2143.16,-164.5"/>
</g>
<!-- ImportUserModule -->
<g id="node8" class="node">
<title>ImportUserModule</title>
<polygon fill="#8dd3c7" stroke="black" points="3073.08,-122 3070.08,-126 3049.08,-126 3046.08,-122 2948.92,-122 2948.92,-86 3073.08,-86 3073.08,-122"/>
<text text-anchor="middle" x="3011" y="-99.8" font-family="Times,serif" font-size="14.00">ImportUserModule</text>
</g>
<!-- ImportUserModule&#45;&gt;ServerTestModule -->
<g id="edge8" class="edge">
<title>ImportUserModule&#45;&gt;ServerTestModule</title>
<path fill="none" stroke="black" d="M3011,-122.3C3011,-140.27 3011,-165 3011,-165 3011,-165 2143.1,-165 2143.1,-165"/>
<polygon fill="black" stroke="black" points="2143.1,-161.5 2133.1,-165 2143.1,-168.5 2143.1,-161.5"/>
</g>
<!-- LearnroomApiModule -->
<g id="node9" class="node">
<title>LearnroomApiModule</title>
<polygon fill="#8dd3c7" stroke="black" points="2931.24,-122 2928.24,-126 2907.24,-126 2904.24,-122 2788.76,-122 2788.76,-86 2931.24,-86 2931.24,-122"/>
<text text-anchor="middle" x="2860" y="-99.8" font-family="Times,serif" font-size="14.00">LearnroomApiModule</text>
</g>
<!-- LearnroomApiModule&#45;&gt;ServerTestModule -->
<g id="edge9" class="edge">
<title>LearnroomApiModule&#45;&gt;ServerTestModule</title>
<path fill="none" stroke="black" d="M2860,-122.02C2860,-139.37 2860,-163 2860,-163 2860,-163 2143.12,-163 2143.12,-163"/>
<polygon fill="black" stroke="black" points="2143.12,-159.5 2133.12,-163 2143.12,-166.5 2143.12,-159.5"/>
</g>
<!-- LegacySchoolApiModule -->
<g id="node10" class="node">
<title>LegacySchoolApiModule</title>
<polygon fill="#8dd3c7" stroke="black" points="2770.13,-122 2767.13,-126 2746.13,-126 2743.13,-122 2609.87,-122 2609.87,-86 2770.13,-86 2770.13,-122"/>
<text text-anchor="middle" x="2690" y="-99.8" font-family="Times,serif" font-size="14.00">LegacySchoolApiModule</text>
</g>
<!-- LegacySchoolApiModule&#45;&gt;ServerTestModule -->
<g id="edge10" class="edge">
<title>LegacySchoolApiModule&#45;&gt;ServerTestModule</title>
<path fill="none" stroke="black" d="M2690,-122.03C2690,-138.4 2690,-160 2690,-160 2690,-160 2143.28,-160 2143.28,-160"/>
<polygon fill="black" stroke="black" points="2143.28,-156.5 2133.28,-160 2143.28,-163.5 2143.28,-156.5"/>
</g>
<!-- LessonApiModule -->
<g id="node11" class="node">
<title>LessonApiModule</title>
<polygon fill="#8dd3c7" stroke="black" points="2592.2,-122 2589.2,-126 2568.2,-126 2565.2,-122 2471.8,-122 2471.8,-86 2592.2,-86 2592.2,-122"/>
<text text-anchor="middle" x="2532" y="-99.8" font-family="Times,serif" font-size="14.00">LessonApiModule</text>
</g>
<!-- LessonApiModule&#45;&gt;ServerTestModule -->
<g id="edge11" class="edge">
<title>LessonApiModule&#45;&gt;ServerTestModule</title>
<path fill="none" stroke="black" d="M2532,-122.24C2532,-137.57 2532,-157 2532,-157 2532,-157 2143.48,-157 2143.48,-157"/>
<polygon fill="black" stroke="black" points="2143.48,-153.5 2133.48,-157 2143.48,-160.5 2143.48,-153.5"/>
</g>
<!-- LoggerModule -->
<g id="node12" class="node">
<title>LoggerModule</title>
<polygon fill="#8dd3c7" stroke="black" points="2453.98,-122 2450.98,-126 2429.98,-126 2426.98,-122 2354.02,-122 2354.02,-86 2453.98,-86 2453.98,-122"/>
<text text-anchor="middle" x="2404" y="-99.8" font-family="Times,serif" font-size="14.00">LoggerModule</text>
</g>
<!-- LoggerModule&#45;&gt;ServerTestModule -->
<g id="edge12" class="edge">
<title>LoggerModule&#45;&gt;ServerTestModule</title>
<path fill="none" stroke="black" d="M2404,-122.05C2404,-136.37 2404,-154 2404,-154 2404,-154 2143.33,-154 2143.33,-154"/>
<polygon fill="black" stroke="black" points="2143.33,-150.5 2133.33,-154 2143.33,-157.5 2143.33,-150.5"/>
</g>
<!-- MongoMemoryDatabaseModule -->
<g id="node13" class="node">
<title>MongoMemoryDatabaseModule</title>
<polygon fill="#8dd3c7" stroke="black" points="2335.51,-122 2332.51,-126 2311.51,-126 2308.51,-122 2136.49,-122 2136.49,-86 2335.51,-86 2335.51,-122"/>
<text text-anchor="middle" x="2236" y="-99.8" font-family="Times,serif" font-size="14.00">MongoMemoryDatabaseModule</text>
</g>
<!-- MongoMemoryDatabaseModule&#45;&gt;ServerTestModule -->
<g id="edge13" class="edge">
<title>MongoMemoryDatabaseModule&#45;&gt;ServerTestModule</title>
<path fill="none" stroke="black" d="M2136.46,-104C2129.94,-104 2125.9,-104 2125.9,-104 2125.9,-104 2125.9,-140.89 2125.9,-140.89"/>
<polygon fill="black" stroke="black" points="2122.4,-140.89 2125.9,-150.89 2129.4,-140.89 2122.4,-140.89"/>
</g>
<!-- NewsModule -->
<g id="node14" class="node">
<title>NewsModule</title>
<polygon fill="#8dd3c7" stroke="black" points="2118.92,-122 2115.92,-126 2094.92,-126 2091.92,-122 2027.08,-122 2027.08,-86 2118.92,-86 2118.92,-122"/>
<text text-anchor="middle" x="2073" y="-99.8" font-family="Times,serif" font-size="14.00">NewsModule</text>
</g>
<!-- NewsModule&#45;&gt;ServerTestModule -->
<g id="edge14" class="edge">
<title>NewsModule&#45;&gt;ServerTestModule</title>
<path fill="none" stroke="black" d="M2073,-122.11C2073,-122.11 2073,-140.99 2073,-140.99"/>
<polygon fill="black" stroke="black" points="2069.5,-140.99 2073,-150.99 2076.5,-140.99 2069.5,-140.99"/>
</g>
<!-- OauthApiModule -->
<g id="node15" class="node">
<title>OauthApiModule</title>
<polygon fill="#8dd3c7" stroke="black" points="2009.26,-122 2006.26,-126 1985.26,-126 1982.26,-122 1894.74,-122 1894.74,-86 2009.26,-86 2009.26,-122"/>
<text text-anchor="middle" x="1952" y="-99.8" font-family="Times,serif" font-size="14.00">OauthApiModule</text>
</g>
<!-- OauthApiModule&#45;&gt;ServerTestModule -->
<g id="edge15" class="edge">
<title>OauthApiModule&#45;&gt;ServerTestModule</title>
<path fill="none" stroke="black" d="M2009.46,-104C2015.84,-104 2020.1,-104 2020.1,-104 2020.1,-104 2020.1,-140.89 2020.1,-140.89"/>
<polygon fill="black" stroke="black" points="2016.6,-140.89 2020.1,-150.89 2023.6,-140.89 2016.6,-140.89"/>
</g>
<!-- OauthProviderApiModule -->
<g id="node16" class="node">
<title>OauthProviderApiModule</title>
<polygon fill="#8dd3c7" stroke="black" points="1876.47,-122 1873.47,-126 1852.47,-126 1849.47,-122 1713.53,-122 1713.53,-86 1876.47,-86 1876.47,-122"/>
<text text-anchor="middle" x="1795" y="-99.8" font-family="Times,serif" font-size="14.00">OauthProviderApiModule</text>
</g>
<!-- OauthProviderApiModule&#45;&gt;ServerTestModule -->
<g id="edge16" class="edge">
<title>OauthProviderApiModule&#45;&gt;ServerTestModule</title>
<path fill="none" stroke="black" d="M1795,-122.05C1795,-136.37 1795,-154 1795,-154 1795,-154 2002.68,-154 2002.68,-154"/>
<polygon fill="black" stroke="black" points="2002.68,-157.5 2012.68,-154 2002.68,-150.5 2002.68,-157.5"/>
</g>
<!-- PseudonymApiModule -->
<g id="node17" class="node">
<title>PseudonymApiModule</title>
<polygon fill="#8dd3c7" stroke="black" points="1695.88,-122 1692.88,-126 1671.88,-126 1668.88,-122 1550.12,-122 1550.12,-86 1695.88,-86 1695.88,-122"/>
<text text-anchor="middle" x="1623" y="-99.8" font-family="Times,serif" font-size="14.00">PseudonymApiModule</text>
</g>
<!-- PseudonymApiModule&#45;&gt;ServerTestModule -->
<g id="edge17" class="edge">
<title>PseudonymApiModule&#45;&gt;ServerTestModule</title>
<path fill="none" stroke="black" d="M1623,-122.24C1623,-137.57 1623,-157 1623,-157 1623,-157 2002.78,-157 2002.78,-157"/>
<polygon fill="black" stroke="black" points="2002.78,-160.5 2012.78,-157 2002.78,-153.5 2002.78,-160.5"/>
</g>
<!-- RabbitMQWrapperTestModule -->
<g id="node18" class="node">
<title>RabbitMQWrapperTestModule</title>
<polygon fill="#8dd3c7" stroke="black" points="1532,-122 1529,-126 1508,-126 1505,-122 1340,-122 1340,-86 1532,-86 1532,-122"/>
<text text-anchor="middle" x="1436" y="-99.8" font-family="Times,serif" font-size="14.00">RabbitMQWrapperTestModule</text>
</g>
<!-- RabbitMQWrapperTestModule&#45;&gt;ServerTestModule -->
<g id="edge18" class="edge">
<title>RabbitMQWrapperTestModule&#45;&gt;ServerTestModule</title>
<path fill="none" stroke="black" d="M1436,-122.03C1436,-138.4 1436,-160 1436,-160 1436,-160 2002.79,-160 2002.79,-160"/>
<polygon fill="black" stroke="black" points="2002.79,-163.5 2012.79,-160 2002.79,-156.5 2002.79,-163.5"/>
</g>
<!-- RedisModule -->
<g id="node19" class="node">
<title>RedisModule</title>
<polygon fill="#8dd3c7" stroke="black" points="1321.94,-122 1318.94,-126 1297.94,-126 1294.94,-122 1230.06,-122 1230.06,-86 1321.94,-86 1321.94,-122"/>
<text text-anchor="middle" x="1276" y="-99.8" font-family="Times,serif" font-size="14.00">RedisModule</text>
</g>
<!-- RedisModule&#45;&gt;ServerTestModule -->
<g id="edge19" class="edge">
<title>RedisModule&#45;&gt;ServerTestModule</title>
<path fill="none" stroke="black" d="M1276,-122.02C1276,-139.37 1276,-163 1276,-163 1276,-163 2002.77,-163 2002.77,-163"/>
<polygon fill="black" stroke="black" points="2002.77,-166.5 2012.77,-163 2002.77,-159.5 2002.77,-166.5"/>
</g>
<!-- SharingApiModule -->
<g id="node20" class="node">
<title>SharingApiModule</title>
<polygon fill="#8dd3c7" stroke="black" points="1212.1,-122 1209.1,-126 1188.1,-126 1185.1,-122 1087.9,-122 1087.9,-86 1212.1,-86 1212.1,-122"/>
<text text-anchor="middle" x="1150" y="-99.8" font-family="Times,serif" font-size="14.00">SharingApiModule</text>
</g>
<!-- SharingApiModule&#45;&gt;ServerTestModule -->
<g id="edge20" class="edge">
<title>SharingApiModule&#45;&gt;ServerTestModule</title>
<path fill="none" stroke="black" d="M1150,-122.3C1150,-140.27 1150,-165 1150,-165 1150,-165 2002.8,-165 2002.8,-165"/>
<polygon fill="black" stroke="black" points="2002.8,-168.5 2012.8,-165 2002.8,-161.5 2002.8,-168.5"/>
</g>
<!-- SystemApiModule -->
<g id="node21" class="node">
<title>SystemApiModule</title>
<polygon fill="#8dd3c7" stroke="black" points="1069.77,-122 1066.77,-126 1045.77,-126 1042.77,-122 948.23,-122 948.23,-86 1069.77,-86 1069.77,-122"/>
<text text-anchor="middle" x="1009" y="-99.8" font-family="Times,serif" font-size="14.00">SystemApiModule</text>
</g>
<!-- SystemApiModule&#45;&gt;ServerTestModule -->
<g id="edge21" class="edge">
<title>SystemApiModule&#45;&gt;ServerTestModule</title>
<path fill="none" stroke="black" d="M1009,-122.17C1009,-141.09 1009,-168 1009,-168 1009,-168 2002.75,-168 2002.75,-168"/>
<polygon fill="black" stroke="black" points="2002.75,-171.5 2012.75,-168 2002.75,-164.5 2002.75,-171.5"/>
</g>
<!-- TaskApiModule -->
<g id="node22" class="node">
<title>TaskApiModule</title>
<polygon fill="#8dd3c7" stroke="black" points="929.76,-122 926.76,-126 905.76,-126 902.76,-122 822.24,-122 822.24,-86 929.76,-86 929.76,-122"/>
<text text-anchor="middle" x="876" y="-99.8" font-family="Times,serif" font-size="14.00">TaskApiModule</text>
</g>
<!-- TaskApiModule&#45;&gt;ServerTestModule -->
<g id="edge22" class="edge">
<title>TaskApiModule&#45;&gt;ServerTestModule</title>
<path fill="none" stroke="black" d="M876,-122.31C876,-142.15 876,-171 876,-171 876,-171 2002.82,-171 2002.82,-171"/>
<polygon fill="black" stroke="black" points="2002.82,-174.5 2012.82,-171 2002.82,-167.5 2002.82,-174.5"/>
</g>
<!-- TeamsApiModule -->
<g id="node23" class="node">
<title>TeamsApiModule</title>
<polygon fill="#8dd3c7" stroke="black" points="803.86,-122 800.86,-126 779.86,-126 776.86,-122 686.14,-122 686.14,-86 803.86,-86 803.86,-122"/>
<text text-anchor="middle" x="745" y="-99.8" font-family="Times,serif" font-size="14.00">TeamsApiModule</text>
</g>
<!-- TeamsApiModule&#45;&gt;ServerTestModule -->
<g id="edge23" class="edge">
<title>TeamsApiModule&#45;&gt;ServerTestModule</title>
<path fill="none" stroke="black" d="M745,-122.03C745,-142.77 745,-174 745,-174 745,-174 2002.49,-174 2002.49,-174"/>
<polygon fill="black" stroke="black" points="2002.49,-177.5 2012.49,-174 2002.49,-170.5 2002.49,-177.5"/>
</g>
<!-- ToolApiModule -->
<g id="node24" class="node">
<title>ToolApiModule</title>
<polygon fill="#8dd3c7" stroke="black" points="668.49,-122 665.49,-126 644.49,-126 641.49,-122 561.51,-122 561.51,-86 668.49,-86 668.49,-122"/>
<text text-anchor="middle" x="615" y="-99.8" font-family="Times,serif" font-size="14.00">ToolApiModule</text>
</g>
<!-- ToolApiModule&#45;&gt;ServerTestModule -->
<g id="edge24" class="edge">
<title>ToolApiModule&#45;&gt;ServerTestModule</title>
<path fill="none" stroke="black" d="M615,-122.17C615,-143.5 615,-176 615,-176 615,-176 2002.67,-176 2002.67,-176"/>
<polygon fill="black" stroke="black" points="2002.67,-179.5 2012.67,-176 2002.67,-172.5 2002.67,-179.5"/>
</g>
<!-- UserApiModule -->
<g id="node25" class="node">
<title>UserApiModule</title>
<polygon fill="#8dd3c7" stroke="black" points="543.47,-122 540.47,-126 519.47,-126 516.47,-122 436.53,-122 436.53,-86 543.47,-86 543.47,-122"/>
<text text-anchor="middle" x="490" y="-99.8" font-family="Times,serif" font-size="14.00">UserApiModule</text>
</g>
<!-- UserApiModule&#45;&gt;ServerTestModule -->
<g id="edge25" class="edge">
<title>UserApiModule&#45;&gt;ServerTestModule</title>
<path fill="none" stroke="black" d="M490,-122.16C490,-144.35 490,-179 490,-179 490,-179 2002.88,-179 2002.88,-179"/>
<polygon fill="black" stroke="black" points="2002.88,-182.5 2012.88,-179 2002.88,-175.5 2002.88,-182.5"/>
</g>
<!-- UserLoginMigrationApiModule -->
<g id="node26" class="node">
<title>UserLoginMigrationApiModule</title>
<polygon fill="#8dd3c7" stroke="black" points="418.41,-122 415.41,-126 394.41,-126 391.41,-122 221.59,-122 221.59,-86 418.41,-86 418.41,-122"/>
<text text-anchor="middle" x="320" y="-99.8" font-family="Times,serif" font-size="14.00">UserLoginMigrationApiModule</text>
</g>
<!-- UserLoginMigrationApiModule&#45;&gt;ServerTestModule -->
<g id="edge26" class="edge">
<title>UserLoginMigrationApiModule&#45;&gt;ServerTestModule</title>
<path fill="none" stroke="black" d="M320,-122.09C320,-145.13 320,-182 320,-182 320,-182 2002.66,-182 2002.66,-182"/>
<polygon fill="black" stroke="black" points="2002.66,-185.5 2012.66,-182 2002.66,-178.5 2002.66,-185.5"/>
</g>
<!-- VideoConferenceApiModule -->
<g id="node27" class="node">
<title>VideoConferenceApiModule</title>
<polygon fill="#8dd3c7" stroke="black" points="203.78,-122 200.78,-126 179.78,-126 176.78,-122 24.22,-122 24.22,-86 203.78,-86 203.78,-122"/>
<text text-anchor="middle" x="114" y="-99.8" font-family="Times,serif" font-size="14.00">VideoConferenceApiModule</text>
</g>
<!-- VideoConferenceApiModule&#45;&gt;ServerTestModule -->
<g id="edge27" class="edge">
<title>VideoConferenceApiModule&#45;&gt;ServerTestModule</title>
<path fill="none" stroke="black" d="M114,-122.38C114,-146.28 114,-185 114,-185 114,-185 2002.76,-185 2002.76,-185"/>
<polygon fill="black" stroke="black" points="2002.76,-188.5 2012.76,-185 2002.76,-181.5 2002.76,-188.5"/>
</g>
</g>
</svg>
