<?xml version="1.0" encoding="UTF-8" standalone="no"?>
<!DOCTYPE svg PUBLIC "-//W3C//DTD SVG 1.1//EN"
 "http://www.w3.org/Graphics/SVG/1.1/DTD/svg11.dtd">
<!-- Generated by graphviz version 2.47.0 (20210316.0004)
 -->
<!-- Title: dependencies Pages: 1 -->
<svg width="3840pt" height="211pt"
 viewBox="0.00 0.00 3840.00 211.00" xmlns="http://www.w3.org/2000/svg" xmlns:xlink="http://www.w3.org/1999/xlink">
<g id="graph0" class="graph" transform="scale(1 1) rotate(0) translate(4 207)">
<title>dependencies</title>
<polygon fill="white" stroke="transparent" points="-4,4 -4,-207 3836,-207 3836,4 -4,4"/>
<text text-anchor="start" x="1895.01" y="-42.4" font-family="Times-12" font-weight="bold" font-size="14.00">Legend</text>
<polygon fill="#ffffb3" stroke="transparent" points="1682,-10 1682,-30 1702,-30 1702,-10 1682,-10"/>
<text text-anchor="start" x="1705.63" y="-15.4" font-family="Times-12" font-size="14.00"> &#160;Declarations</text>
<polygon fill="#8dd3c7" stroke="transparent" points="1795,-10 1795,-30 1815,-30 1815,-10 1795,-10"/>
<text text-anchor="start" x="1818.73" y="-15.4" font-family="Times-12" font-size="14.00"> &#160;Module</text>
<polygon fill="#80b1d3" stroke="transparent" points="1881,-10 1881,-30 1901,-30 1901,-10 1881,-10"/>
<text text-anchor="start" x="1904.78" y="-15.4" font-family="Times-12" font-size="14.00"> &#160;Bootstrap</text>
<polygon fill="#fdb462" stroke="transparent" points="1978,-10 1978,-30 1998,-30 1998,-10 1978,-10"/>
<text text-anchor="start" x="2001.67" y="-15.4" font-family="Times-12" font-size="14.00"> &#160;Providers</text>
<polygon fill="#fb8072" stroke="transparent" points="2074,-10 2074,-30 2094,-30 2094,-10 2074,-10"/>
<text text-anchor="start" x="2097.73" y="-15.4" font-family="Times-12" font-size="14.00"> &#160;Exports</text>
<g id="clust1" class="cluster">
<title>cluster_ServerTestModule</title>
<polygon fill="none" stroke="black" stroke-dasharray="1,5" points="8,-70 8,-195 3824,-195 3824,-70 8,-70"/>
</g>
<g id="clust3" class="cluster">
<title>cluster_ServerTestModule_imports</title>
<polygon fill="none" stroke="black" points="16,-78 16,-130 3816,-130 3816,-78 16,-78"/>
</g>
<!-- AccountApiModule -->
<g id="node1" class="node">
<title>AccountApiModule</title>
<polygon fill="#8dd3c7" stroke="black" points="3807.97,-122 3804.97,-126 3783.97,-126 3780.97,-122 3680.03,-122 3680.03,-86 3807.97,-86 3807.97,-122"/>
<text text-anchor="middle" x="3744" y="-99.8" font-family="Times,serif" font-size="14.00">AccountApiModule</text>
</g>
<!-- ServerTestModule -->
<g id="node26" class="node">
<title>ServerTestModule</title>
<polygon fill="#8dd3c7" stroke="black" points="1982.19,-187 1979.19,-191 1958.19,-191 1955.19,-187 1861.81,-187 1861.81,-151 1982.19,-151 1982.19,-187"/>
<text text-anchor="middle" x="1922" y="-164.8" font-family="Times,serif" font-size="14.00">ServerTestModule</text>
</g>
<!-- AccountApiModule&#45;&gt;ServerTestModule -->
<g id="edge1" class="edge">
<title>AccountApiModule&#45;&gt;ServerTestModule</title>
<path fill="none" stroke="black" d="M3744,-122.38C3744,-146.28 3744,-185 3744,-185 3744,-185 1992.1,-185 1992.1,-185"/>
<polygon fill="black" stroke="black" points="1992.1,-181.5 1982.1,-185 1992.1,-188.5 1992.1,-181.5"/>
</g>
<!-- AuthenticationApiModule -->
<g id="node2" class="node">
<title>AuthenticationApiModule</title>
<polygon fill="#8dd3c7" stroke="black" points="3661.75,-122 3658.75,-126 3637.75,-126 3634.75,-122 3498.25,-122 3498.25,-86 3661.75,-86 3661.75,-122"/>
<text text-anchor="middle" x="3580" y="-99.8" font-family="Times,serif" font-size="14.00">AuthenticationApiModule</text>
</g>
<!-- AuthenticationApiModule&#45;&gt;ServerTestModule -->
<g id="edge2" class="edge">
<title>AuthenticationApiModule&#45;&gt;ServerTestModule</title>
<path fill="none" stroke="black" d="M3580,-122.09C3580,-145.13 3580,-182 3580,-182 3580,-182 1992.48,-182 1992.48,-182"/>
<polygon fill="black" stroke="black" points="1992.48,-178.5 1982.48,-182 1992.48,-185.5 1992.48,-178.5"/>
</g>
<!-- BoardApiModule -->
<g id="node3" class="node">
<title>BoardApiModule</title>
<polygon fill="#8dd3c7" stroke="black" points="3480.26,-122 3477.26,-126 3456.26,-126 3453.26,-122 3365.74,-122 3365.74,-86 3480.26,-86 3480.26,-122"/>
<text text-anchor="middle" x="3423" y="-99.8" font-family="Times,serif" font-size="14.00">BoardApiModule</text>
</g>
<!-- BoardApiModule&#45;&gt;ServerTestModule -->
<g id="edge3" class="edge">
<title>BoardApiModule&#45;&gt;ServerTestModule</title>
<path fill="none" stroke="black" d="M3423,-122.16C3423,-144.35 3423,-179 3423,-179 3423,-179 1992.23,-179 1992.23,-179"/>
<polygon fill="black" stroke="black" points="1992.23,-175.5 1982.23,-179 1992.23,-182.5 1992.23,-175.5"/>
</g>
<!-- CollaborativeStorageModule -->
<g id="node4" class="node">
<title>CollaborativeStorageModule</title>
<polygon fill="#8dd3c7" stroke="black" points="3347.02,-122 3344.02,-126 3323.02,-126 3320.02,-122 3168.98,-122 3168.98,-86 3347.02,-86 3347.02,-122"/>
<text text-anchor="middle" x="3258" y="-99.8" font-family="Times,serif" font-size="14.00">CollaborativeStorageModule</text>
</g>
<!-- CollaborativeStorageModule&#45;&gt;ServerTestModule -->
<g id="edge4" class="edge">
<title>CollaborativeStorageModule&#45;&gt;ServerTestModule</title>
<path fill="none" stroke="black" d="M3258,-122.17C3258,-143.5 3258,-176 3258,-176 3258,-176 1992.44,-176 1992.44,-176"/>
<polygon fill="black" stroke="black" points="1992.44,-172.5 1982.44,-176 1992.44,-179.5 1992.44,-172.5"/>
</g>
<!-- CoreModule -->
<g id="node5" class="node">
<title>CoreModule</title>
<polygon fill="#8dd3c7" stroke="black" points="3150.26,-122 3147.26,-126 3126.26,-126 3123.26,-122 3063.74,-122 3063.74,-86 3150.26,-86 3150.26,-122"/>
<text text-anchor="middle" x="3107" y="-99.8" font-family="Times,serif" font-size="14.00">CoreModule</text>
</g>
<!-- CoreModule&#45;&gt;ServerTestModule -->
<g id="edge5" class="edge">
<title>CoreModule&#45;&gt;ServerTestModule</title>
<path fill="none" stroke="black" d="M3107,-122.03C3107,-142.77 3107,-174 3107,-174 3107,-174 1992.39,-174 1992.39,-174"/>
<polygon fill="black" stroke="black" points="1992.39,-170.5 1982.39,-174 1992.39,-177.5 1992.39,-170.5"/>
</g>
<!-- FilesStorageClientModule -->
<g id="node6" class="node">
<title>FilesStorageClientModule</title>
<polygon fill="#8dd3c7" stroke="black" points="3045.76,-122 3042.76,-126 3021.76,-126 3018.76,-122 2882.24,-122 2882.24,-86 3045.76,-86 3045.76,-122"/>
<text text-anchor="middle" x="2964" y="-99.8" font-family="Times,serif" font-size="14.00">FilesStorageClientModule</text>
</g>
<!-- FilesStorageClientModule&#45;&gt;ServerTestModule -->
<g id="edge6" class="edge">
<title>FilesStorageClientModule&#45;&gt;ServerTestModule</title>
<path fill="none" stroke="black" d="M2964,-122.31C2964,-142.15 2964,-171 2964,-171 2964,-171 1992.15,-171 1992.15,-171"/>
<polygon fill="black" stroke="black" points="1992.15,-167.5 1982.15,-171 1992.15,-174.5 1992.15,-167.5"/>
</g>
<!-- ImportUserModule -->
<g id="node7" class="node">
<title>ImportUserModule</title>
<polygon fill="#8dd3c7" stroke="black" points="2864.08,-122 2861.08,-126 2840.08,-126 2837.08,-122 2739.92,-122 2739.92,-86 2864.08,-86 2864.08,-122"/>
<text text-anchor="middle" x="2802" y="-99.8" font-family="Times,serif" font-size="14.00">ImportUserModule</text>
</g>
<!-- ImportUserModule&#45;&gt;ServerTestModule -->
<g id="edge7" class="edge">
<title>ImportUserModule&#45;&gt;ServerTestModule</title>
<path fill="none" stroke="black" d="M2802,-122.17C2802,-141.09 2802,-168 2802,-168 2802,-168 1992.14,-168 1992.14,-168"/>
<polygon fill="black" stroke="black" points="1992.14,-164.5 1982.14,-168 1992.14,-171.5 1992.14,-164.5"/>
</g>
<!-- LearnroomApiModule -->
<g id="node8" class="node">
<title>LearnroomApiModule</title>
<polygon fill="#8dd3c7" stroke="black" points="2722.24,-122 2719.24,-126 2698.24,-126 2695.24,-122 2579.76,-122 2579.76,-86 2722.24,-86 2722.24,-122"/>
<text text-anchor="middle" x="2651" y="-99.8" font-family="Times,serif" font-size="14.00">LearnroomApiModule</text>
</g>
<!-- LearnroomApiModule&#45;&gt;ServerTestModule -->
<g id="edge8" class="edge">
<title>LearnroomApiModule&#45;&gt;ServerTestModule</title>
<path fill="none" stroke="black" d="M2651,-122.3C2651,-140.27 2651,-165 2651,-165 2651,-165 1992.28,-165 1992.28,-165"/>
<polygon fill="black" stroke="black" points="1992.28,-161.5 1982.28,-165 1992.28,-168.5 1992.28,-161.5"/>
</g>
<!-- LessonApiModule -->
<g id="node9" class="node">
<title>LessonApiModule</title>
<polygon fill="#8dd3c7" stroke="black" points="2562.2,-122 2559.2,-126 2538.2,-126 2535.2,-122 2441.8,-122 2441.8,-86 2562.2,-86 2562.2,-122"/>
<text text-anchor="middle" x="2502" y="-99.8" font-family="Times,serif" font-size="14.00">LessonApiModule</text>
</g>
<!-- LessonApiModule&#45;&gt;ServerTestModule -->
<g id="edge9" class="edge">
<title>LessonApiModule&#45;&gt;ServerTestModule</title>
<path fill="none" stroke="black" d="M2502,-122.02C2502,-139.37 2502,-163 2502,-163 2502,-163 1992.16,-163 1992.16,-163"/>
<polygon fill="black" stroke="black" points="1992.16,-159.5 1982.16,-163 1992.16,-166.5 1992.16,-159.5"/>
</g>
<!-- LoggerModule -->
<g id="node10" class="node">
<title>LoggerModule</title>
<polygon fill="#8dd3c7" stroke="black" points="2423.98,-122 2420.98,-126 2399.98,-126 2396.98,-122 2324.02,-122 2324.02,-86 2423.98,-86 2423.98,-122"/>
<text text-anchor="middle" x="2374" y="-99.8" font-family="Times,serif" font-size="14.00">LoggerModule</text>
</g>
<!-- LoggerModule&#45;&gt;ServerTestModule -->
<g id="edge10" class="edge">
<title>LoggerModule&#45;&gt;ServerTestModule</title>
<path fill="none" stroke="black" d="M2374,-122.03C2374,-138.4 2374,-160 2374,-160 2374,-160 1992.49,-160 1992.49,-160"/>
<polygon fill="black" stroke="black" points="1992.49,-156.5 1982.49,-160 1992.49,-163.5 1992.49,-156.5"/>
</g>
<!-- MongoMemoryDatabaseModule -->
<g id="node11" class="node">
<title>MongoMemoryDatabaseModule</title>
<polygon fill="#8dd3c7" stroke="black" points="2305.51,-122 2302.51,-126 2281.51,-126 2278.51,-122 2106.49,-122 2106.49,-86 2305.51,-86 2305.51,-122"/>
<text text-anchor="middle" x="2206" y="-99.8" font-family="Times,serif" font-size="14.00">MongoMemoryDatabaseModule</text>
</g>
<!-- MongoMemoryDatabaseModule&#45;&gt;ServerTestModule -->
<g id="edge11" class="edge">
<title>MongoMemoryDatabaseModule&#45;&gt;ServerTestModule</title>
<path fill="none" stroke="black" d="M2206,-122.24C2206,-137.57 2206,-157 2206,-157 2206,-157 1992.23,-157 1992.23,-157"/>
<polygon fill="black" stroke="black" points="1992.23,-153.5 1982.23,-157 1992.23,-160.5 1992.23,-153.5"/>
</g>
<!-- NewsModule -->
<g id="node12" class="node">
<title>NewsModule</title>
<polygon fill="#8dd3c7" stroke="black" points="2088.92,-122 2085.92,-126 2064.92,-126 2061.92,-122 1997.08,-122 1997.08,-86 2088.92,-86 2088.92,-122"/>
<text text-anchor="middle" x="2043" y="-99.8" font-family="Times,serif" font-size="14.00">NewsModule</text>
</g>
<!-- NewsModule&#45;&gt;ServerTestModule -->
<g id="edge12" class="edge">
<title>NewsModule&#45;&gt;ServerTestModule</title>
<path fill="none" stroke="black" d="M2043,-122.05C2043,-136.37 2043,-154 2043,-154 2043,-154 1992.15,-154 1992.15,-154"/>
<polygon fill="black" stroke="black" points="1992.15,-150.5 1982.15,-154 1992.15,-157.5 1992.15,-150.5"/>
</g>
<!-- OauthApiModule -->
<g id="node13" class="node">
<title>OauthApiModule</title>
<polygon fill="#8dd3c7" stroke="black" points="1979.26,-122 1976.26,-126 1955.26,-126 1952.26,-122 1864.74,-122 1864.74,-86 1979.26,-86 1979.26,-122"/>
<text text-anchor="middle" x="1922" y="-99.8" font-family="Times,serif" font-size="14.00">OauthApiModule</text>
</g>
<!-- OauthApiModule&#45;&gt;ServerTestModule -->
<g id="edge13" class="edge">
<title>OauthApiModule&#45;&gt;ServerTestModule</title>
<path fill="none" stroke="black" d="M1922,-122.11C1922,-122.11 1922,-140.99 1922,-140.99"/>
<polygon fill="black" stroke="black" points="1918.5,-140.99 1922,-150.99 1925.5,-140.99 1918.5,-140.99"/>
</g>
<!-- OauthProviderApiModule -->
<g id="node14" class="node">
<title>OauthProviderApiModule</title>
<polygon fill="#8dd3c7" stroke="black" points="1846.47,-122 1843.47,-126 1822.47,-126 1819.47,-122 1683.53,-122 1683.53,-86 1846.47,-86 1846.47,-122"/>
<text text-anchor="middle" x="1765" y="-99.8" font-family="Times,serif" font-size="14.00">OauthProviderApiModule</text>
</g>
<!-- OauthProviderApiModule&#45;&gt;ServerTestModule -->
<g id="edge14" class="edge">
<title>OauthProviderApiModule&#45;&gt;ServerTestModule</title>
<path fill="none" stroke="black" d="M1765,-122.05C1765,-136.37 1765,-154 1765,-154 1765,-154 1851.75,-154 1851.75,-154"/>
<polygon fill="black" stroke="black" points="1851.75,-157.5 1861.75,-154 1851.75,-150.5 1851.75,-157.5"/>
</g>
<!-- RabbitMQWrapperTestModule -->
<g id="node15" class="node">
<title>RabbitMQWrapperTestModule</title>
<polygon fill="#8dd3c7" stroke="black" points="1665,-122 1662,-126 1641,-126 1638,-122 1473,-122 1473,-86 1665,-86 1665,-122"/>
<text text-anchor="middle" x="1569" y="-99.8" font-family="Times,serif" font-size="14.00">RabbitMQWrapperTestModule</text>
</g>
<!-- RabbitMQWrapperTestModule&#45;&gt;ServerTestModule -->
<g id="edge15" class="edge">
<title>RabbitMQWrapperTestModule&#45;&gt;ServerTestModule</title>
<path fill="none" stroke="black" d="M1569,-122.24C1569,-137.57 1569,-157 1569,-157 1569,-157 1851.72,-157 1851.72,-157"/>
<polygon fill="black" stroke="black" points="1851.72,-160.5 1861.72,-157 1851.72,-153.5 1851.72,-160.5"/>
</g>
<!-- RedisModule -->
<g id="node16" class="node">
<title>RedisModule</title>
<polygon fill="#8dd3c7" stroke="black" points="1454.94,-122 1451.94,-126 1430.94,-126 1427.94,-122 1363.06,-122 1363.06,-86 1454.94,-86 1454.94,-122"/>
<text text-anchor="middle" x="1409" y="-99.8" font-family="Times,serif" font-size="14.00">RedisModule</text>
</g>
<!-- RedisModule&#45;&gt;ServerTestModule -->
<g id="edge16" class="edge">
<title>RedisModule&#45;&gt;ServerTestModule</title>
<path fill="none" stroke="black" d="M1409,-122.03C1409,-138.4 1409,-160 1409,-160 1409,-160 1851.9,-160 1851.9,-160"/>
<polygon fill="black" stroke="black" points="1851.9,-163.5 1861.9,-160 1851.9,-156.5 1851.9,-163.5"/>
</g>
<!-- SchoolApiModule -->
<g id="node17" class="node">
<title>SchoolApiModule</title>
<polygon fill="#8dd3c7" stroke="black" points="1345.94,-122 1342.94,-126 1321.94,-126 1318.94,-122 1226.06,-122 1226.06,-86 1345.94,-86 1345.94,-122"/>
<text text-anchor="middle" x="1286" y="-99.8" font-family="Times,serif" font-size="14.00">SchoolApiModule</text>
</g>
<!-- SchoolApiModule&#45;&gt;ServerTestModule -->
<g id="edge17" class="edge">
<title>SchoolApiModule&#45;&gt;ServerTestModule</title>
<path fill="none" stroke="black" d="M1286,-122.02C1286,-139.37 1286,-163 1286,-163 1286,-163 1851.88,-163 1851.88,-163"/>
<polygon fill="black" stroke="black" points="1851.88,-166.5 1861.88,-163 1851.88,-159.5 1851.88,-166.5"/>
</g>
<!-- SharingApiModule -->
<g id="node18" class="node">
<title>SharingApiModule</title>
<polygon fill="#8dd3c7" stroke="black" points="1208.1,-122 1205.1,-126 1184.1,-126 1181.1,-122 1083.9,-122 1083.9,-86 1208.1,-86 1208.1,-122"/>
<text text-anchor="middle" x="1146" y="-99.8" font-family="Times,serif" font-size="14.00">SharingApiModule</text>
</g>
<!-- SharingApiModule&#45;&gt;ServerTestModule -->
<g id="edge18" class="edge">
<title>SharingApiModule&#45;&gt;ServerTestModule</title>
<path fill="none" stroke="black" d="M1146,-122.3C1146,-140.27 1146,-165 1146,-165 1146,-165 1851.75,-165 1851.75,-165"/>
<polygon fill="black" stroke="black" points="1851.75,-168.5 1861.75,-165 1851.75,-161.5 1851.75,-168.5"/>
</g>
<!-- SystemApiModule -->
<g id="node19" class="node">
<title>SystemApiModule</title>
<polygon fill="#8dd3c7" stroke="black" points="1065.77,-122 1062.77,-126 1041.77,-126 1038.77,-122 944.23,-122 944.23,-86 1065.77,-86 1065.77,-122"/>
<text text-anchor="middle" x="1005" y="-99.8" font-family="Times,serif" font-size="14.00">SystemApiModule</text>
</g>
<!-- SystemApiModule&#45;&gt;ServerTestModule -->
<g id="edge19" class="edge">
<title>SystemApiModule&#45;&gt;ServerTestModule</title>
<path fill="none" stroke="black" d="M1005,-122.17C1005,-141.09 1005,-168 1005,-168 1005,-168 1851.83,-168 1851.83,-168"/>
<polygon fill="black" stroke="black" points="1851.83,-171.5 1861.83,-168 1851.83,-164.5 1851.83,-171.5"/>
</g>
<!-- TaskApiModule -->
<g id="node20" class="node">
<title>TaskApiModule</title>
<polygon fill="#8dd3c7" stroke="black" points="925.76,-122 922.76,-126 901.76,-126 898.76,-122 818.24,-122 818.24,-86 925.76,-86 925.76,-122"/>
<text text-anchor="middle" x="872" y="-99.8" font-family="Times,serif" font-size="14.00">TaskApiModule</text>
</g>
<!-- TaskApiModule&#45;&gt;ServerTestModule -->
<g id="edge20" class="edge">
<title>TaskApiModule&#45;&gt;ServerTestModule</title>
<path fill="none" stroke="black" d="M872,-122.31C872,-142.15 872,-171 872,-171 872,-171 1851.78,-171 1851.78,-171"/>
<polygon fill="black" stroke="black" points="1851.78,-174.5 1861.78,-171 1851.78,-167.5 1851.78,-174.5"/>
</g>
<!-- TaskCardModule -->
<g id="node21" class="node">
<title>TaskCardModule</title>
<polygon fill="#8dd3c7" stroke="black" points="799.97,-122 796.97,-126 775.97,-126 772.97,-122 686.03,-122 686.03,-86 799.97,-86 799.97,-122"/>
<text text-anchor="middle" x="743" y="-99.8" font-family="Times,serif" font-size="14.00">TaskCardModule</text>
</g>
<!-- TaskCardModule&#45;&gt;ServerTestModule -->
<g id="edge21" class="edge">
<title>TaskCardModule&#45;&gt;ServerTestModule</title>
<path fill="none" stroke="black" d="M743,-122.03C743,-142.77 743,-174 743,-174 743,-174 1851.5,-174 1851.5,-174"/>
<polygon fill="black" stroke="black" points="1851.5,-177.5 1861.5,-174 1851.5,-170.5 1851.5,-177.5"/>
</g>
<!-- ToolApiModule -->
<g id="node22" class="node">
<title>ToolApiModule</title>
<polygon fill="#8dd3c7" stroke="black" points="668.49,-122 665.49,-126 644.49,-126 641.49,-122 561.51,-122 561.51,-86 668.49,-86 668.49,-122"/>
<text text-anchor="middle" x="615" y="-99.8" font-family="Times,serif" font-size="14.00">ToolApiModule</text>
</g>
<!-- ToolApiModule&#45;&gt;ServerTestModule -->
<g id="edge22" class="edge">
<title>ToolApiModule&#45;&gt;ServerTestModule</title>
<path fill="none" stroke="black" d="M615,-122.17C615,-143.5 615,-176 615,-176 615,-176 1851.58,-176 1851.58,-176"/>
<polygon fill="black" stroke="black" points="1851.58,-179.5 1861.58,-176 1851.58,-172.5 1851.58,-179.5"/>
</g>
<!-- UserApiModule -->
<g id="node23" class="node">
<title>UserApiModule</title>
<polygon fill="#8dd3c7" stroke="black" points="543.47,-122 540.47,-126 519.47,-126 516.47,-122 436.53,-122 436.53,-86 543.47,-86 543.47,-122"/>
<text text-anchor="middle" x="490" y="-99.8" font-family="Times,serif" font-size="14.00">UserApiModule</text>
</g>
<!-- UserApiModule&#45;&gt;ServerTestModule -->
<g id="edge23" class="edge">
<title>UserApiModule&#45;&gt;ServerTestModule</title>
<path fill="none" stroke="black" d="M490,-122.16C490,-144.35 490,-179 490,-179 490,-179 1851.84,-179 1851.84,-179"/>
<polygon fill="black" stroke="black" points="1851.84,-182.5 1861.84,-179 1851.84,-175.5 1851.84,-182.5"/>
</g>
<!-- UserLoginMigrationApiModule -->
<g id="node24" class="node">
<title>UserLoginMigrationApiModule</title>
<polygon fill="#8dd3c7" stroke="black" points="418.41,-122 415.41,-126 394.41,-126 391.41,-122 221.59,-122 221.59,-86 418.41,-86 418.41,-122"/>
<text text-anchor="middle" x="320" y="-99.8" font-family="Times,serif" font-size="14.00">UserLoginMigrationApiModule</text>
</g>
<!-- UserLoginMigrationApiModule&#45;&gt;ServerTestModule -->
<g id="edge24" class="edge">
<title>UserLoginMigrationApiModule&#45;&gt;ServerTestModule</title>
<path fill="none" stroke="black" d="M320,-122.09C320,-145.13 320,-182 320,-182 320,-182 1851.64,-182 1851.64,-182"/>
<polygon fill="black" stroke="black" points="1851.64,-185.5 1861.64,-182 1851.64,-178.5 1851.64,-185.5"/>
</g>
<!-- VideoConferenceApiModule -->
<g id="node25" class="node">
<title>VideoConferenceApiModule</title>
<polygon fill="#8dd3c7" stroke="black" points="203.78,-122 200.78,-126 179.78,-126 176.78,-122 24.22,-122 24.22,-86 203.78,-86 203.78,-122"/>
<text text-anchor="middle" x="114" y="-99.8" font-family="Times,serif" font-size="14.00">VideoConferenceApiModule</text>
</g>
<!-- VideoConferenceApiModule&#45;&gt;ServerTestModule -->
<g id="edge25" class="edge">
<title>VideoConferenceApiModule&#45;&gt;ServerTestModule</title>
<path fill="none" stroke="black" d="M114,-122.38C114,-146.28 114,-185 114,-185 114,-185 1851.84,-185 1851.84,-185"/>
<polygon fill="black" stroke="black" points="1851.84,-188.5 1861.84,-185 1851.84,-181.5 1851.84,-188.5"/>
</g>
</g>
</svg>
