<?xml version="1.0" encoding="UTF-8" standalone="no"?>
<!DOCTYPE svg PUBLIC "-//W3C//DTD SVG 1.1//EN"
 "http://www.w3.org/Graphics/SVG/1.1/DTD/svg11.dtd">
<!-- Generated by graphviz version 2.47.0 (20210316.0004)
 -->
<!-- Title: dependencies Pages: 1 -->
<svg width="4020pt" height="211pt"
 viewBox="0.00 0.00 4020.00 211.00" xmlns="http://www.w3.org/2000/svg" xmlns:xlink="http://www.w3.org/1999/xlink">
<g id="graph0" class="graph" transform="scale(1 1) rotate(0) translate(4 207)">
<title>dependencies</title>
<polygon fill="white" stroke="transparent" points="-4,4 -4,-207 4016,-207 4016,4 -4,4"/>
<text text-anchor="start" x="1985.01" y="-42.4" font-family="Times-12" font-weight="bold" font-size="14.00">Legend</text>
<polygon fill="#ffffb3" stroke="transparent" points="1772,-10 1772,-30 1792,-30 1792,-10 1772,-10"/>
<text text-anchor="start" x="1795.63" y="-15.4" font-family="Times-12" font-size="14.00"> &#160;Declarations</text>
<polygon fill="#8dd3c7" stroke="transparent" points="1885,-10 1885,-30 1905,-30 1905,-10 1885,-10"/>
<text text-anchor="start" x="1908.73" y="-15.4" font-family="Times-12" font-size="14.00"> &#160;Module</text>
<polygon fill="#80b1d3" stroke="transparent" points="1971,-10 1971,-30 1991,-30 1991,-10 1971,-10"/>
<text text-anchor="start" x="1994.78" y="-15.4" font-family="Times-12" font-size="14.00"> &#160;Bootstrap</text>
<polygon fill="#fdb462" stroke="transparent" points="2068,-10 2068,-30 2088,-30 2088,-10 2068,-10"/>
<text text-anchor="start" x="2091.67" y="-15.4" font-family="Times-12" font-size="14.00"> &#160;Providers</text>
<polygon fill="#fb8072" stroke="transparent" points="2164,-10 2164,-30 2184,-30 2184,-10 2164,-10"/>
<text text-anchor="start" x="2187.73" y="-15.4" font-family="Times-12" font-size="14.00"> &#160;Exports</text>
<g id="clust1" class="cluster">
<title>cluster_ServerTestModule</title>
<polygon fill="none" stroke="black" stroke-dasharray="1,5" points="8,-70 8,-195 4004,-195 4004,-70 8,-70"/>
</g>
<g id="clust3" class="cluster">
<title>cluster_ServerTestModule_imports</title>
<polygon fill="none" stroke="black" points="16,-78 16,-130 3996,-130 3996,-78 16,-78"/>
</g>
<!-- AccountApiModule -->
<g id="node1" class="node">
<title>AccountApiModule</title>
<polygon fill="#8dd3c7" stroke="black" points="3987.97,-122 3984.97,-126 3963.97,-126 3960.97,-122 3860.03,-122 3860.03,-86 3987.97,-86 3987.97,-122"/>
<text text-anchor="middle" x="3924" y="-99.8" font-family="Times,serif" font-size="14.00">AccountApiModule</text>
</g>
<!-- ServerTestModule -->
<g id="node27" class="node">
<title>ServerTestModule</title>
<polygon fill="#8dd3c7" stroke="black" points="2051.19,-187 2048.19,-191 2027.19,-191 2024.19,-187 1930.81,-187 1930.81,-151 2051.19,-151 2051.19,-187"/>
<text text-anchor="middle" x="1991" y="-164.8" font-family="Times,serif" font-size="14.00">ServerTestModule</text>
</g>
<!-- AccountApiModule&#45;&gt;ServerTestModule -->
<g id="edge1" class="edge">
<title>AccountApiModule&#45;&gt;ServerTestModule</title>
<path fill="none" stroke="black" d="M3924,-122.38C3924,-146.28 3924,-185 3924,-185 3924,-185 2061.24,-185 2061.24,-185"/>
<polygon fill="black" stroke="black" points="2061.24,-181.5 2051.24,-185 2061.24,-188.5 2061.24,-181.5"/>
</g>
<!-- AuthenticationApiModule -->
<g id="node2" class="node">
<title>AuthenticationApiModule</title>
<polygon fill="#8dd3c7" stroke="black" points="3841.75,-122 3838.75,-126 3817.75,-126 3814.75,-122 3678.25,-122 3678.25,-86 3841.75,-86 3841.75,-122"/>
<text text-anchor="middle" x="3760" y="-99.8" font-family="Times,serif" font-size="14.00">AuthenticationApiModule</text>
</g>
<!-- AuthenticationApiModule&#45;&gt;ServerTestModule -->
<g id="edge2" class="edge">
<title>AuthenticationApiModule&#45;&gt;ServerTestModule</title>
<path fill="none" stroke="black" d="M3760,-122.09C3760,-145.13 3760,-182 3760,-182 3760,-182 2061.13,-182 2061.13,-182"/>
<polygon fill="black" stroke="black" points="2061.13,-178.5 2051.13,-182 2061.13,-185.5 2061.13,-178.5"/>
</g>
<!-- BoardApiModule -->
<g id="node3" class="node">
<title>BoardApiModule</title>
<polygon fill="#8dd3c7" stroke="black" points="3660.26,-122 3657.26,-126 3636.26,-126 3633.26,-122 3545.74,-122 3545.74,-86 3660.26,-86 3660.26,-122"/>
<text text-anchor="middle" x="3603" y="-99.8" font-family="Times,serif" font-size="14.00">BoardApiModule</text>
</g>
<!-- BoardApiModule&#45;&gt;ServerTestModule -->
<g id="edge3" class="edge">
<title>BoardApiModule&#45;&gt;ServerTestModule</title>
<path fill="none" stroke="black" d="M3603,-122.16C3603,-144.35 3603,-179 3603,-179 3603,-179 2061.25,-179 2061.25,-179"/>
<polygon fill="black" stroke="black" points="2061.25,-175.5 2051.25,-179 2061.25,-182.5 2061.25,-175.5"/>
</g>
<!-- CollaborativeStorageModule -->
<g id="node4" class="node">
<title>CollaborativeStorageModule</title>
<polygon fill="#8dd3c7" stroke="black" points="3527.02,-122 3524.02,-126 3503.02,-126 3500.02,-122 3348.98,-122 3348.98,-86 3527.02,-86 3527.02,-122"/>
<text text-anchor="middle" x="3438" y="-99.8" font-family="Times,serif" font-size="14.00">CollaborativeStorageModule</text>
</g>
<!-- CollaborativeStorageModule&#45;&gt;ServerTestModule -->
<g id="edge4" class="edge">
<title>CollaborativeStorageModule&#45;&gt;ServerTestModule</title>
<path fill="none" stroke="black" d="M3438,-122.17C3438,-143.5 3438,-176 3438,-176 3438,-176 2061.33,-176 2061.33,-176"/>
<polygon fill="black" stroke="black" points="2061.33,-172.5 2051.33,-176 2061.33,-179.5 2061.33,-172.5"/>
</g>
<!-- CoreModule -->
<g id="node5" class="node">
<title>CoreModule</title>
<polygon fill="#8dd3c7" stroke="black" points="3330.26,-122 3327.26,-126 3306.26,-126 3303.26,-122 3243.74,-122 3243.74,-86 3330.26,-86 3330.26,-122"/>
<text text-anchor="middle" x="3287" y="-99.8" font-family="Times,serif" font-size="14.00">CoreModule</text>
</g>
<!-- CoreModule&#45;&gt;ServerTestModule -->
<g id="edge5" class="edge">
<title>CoreModule&#45;&gt;ServerTestModule</title>
<path fill="none" stroke="black" d="M3287,-122.03C3287,-142.77 3287,-174 3287,-174 3287,-174 2061.34,-174 2061.34,-174"/>
<polygon fill="black" stroke="black" points="2061.34,-170.5 2051.34,-174 2061.34,-177.5 2061.34,-170.5"/>
</g>
<!-- FilesStorageClientModule -->
<g id="node6" class="node">
<title>FilesStorageClientModule</title>
<polygon fill="#8dd3c7" stroke="black" points="3225.76,-122 3222.76,-126 3201.76,-126 3198.76,-122 3062.24,-122 3062.24,-86 3225.76,-86 3225.76,-122"/>
<text text-anchor="middle" x="3144" y="-99.8" font-family="Times,serif" font-size="14.00">FilesStorageClientModule</text>
</g>
<!-- FilesStorageClientModule&#45;&gt;ServerTestModule -->
<g id="edge6" class="edge">
<title>FilesStorageClientModule&#45;&gt;ServerTestModule</title>
<path fill="none" stroke="black" d="M3144,-122.31C3144,-142.15 3144,-171 3144,-171 3144,-171 2061.37,-171 2061.37,-171"/>
<polygon fill="black" stroke="black" points="2061.37,-167.5 2051.37,-171 2061.37,-174.5 2061.37,-167.5"/>
</g>
<!-- GroupApiModule -->
<g id="node7" class="node">
<title>GroupApiModule</title>
<polygon fill="#8dd3c7" stroke="black" points="3044.31,-122 3041.31,-126 3020.31,-126 3017.31,-122 2927.69,-122 2927.69,-86 3044.31,-86 3044.31,-122"/>
<text text-anchor="middle" x="2986" y="-99.8" font-family="Times,serif" font-size="14.00">GroupApiModule</text>
</g>
<!-- GroupApiModule&#45;&gt;ServerTestModule -->
<g id="edge7" class="edge">
<title>GroupApiModule&#45;&gt;ServerTestModule</title>
<path fill="none" stroke="black" d="M2986,-122.17C2986,-141.09 2986,-168 2986,-168 2986,-168 2061.37,-168 2061.37,-168"/>
<polygon fill="black" stroke="black" points="2061.37,-164.5 2051.37,-168 2061.37,-171.5 2061.37,-164.5"/>
</g>
<!-- ImportUserModule -->
<g id="node8" class="node">
<title>ImportUserModule</title>
<polygon fill="#8dd3c7" stroke="black" points="2910.08,-122 2907.08,-126 2886.08,-126 2883.08,-122 2785.92,-122 2785.92,-86 2910.08,-86 2910.08,-122"/>
<text text-anchor="middle" x="2848" y="-99.8" font-family="Times,serif" font-size="14.00">ImportUserModule</text>
</g>
<!-- ImportUserModule&#45;&gt;ServerTestModule -->
<g id="edge8" class="edge">
<title>ImportUserModule&#45;&gt;ServerTestModule</title>
<path fill="none" stroke="black" d="M2848,-122.3C2848,-140.27 2848,-165 2848,-165 2848,-165 2061.26,-165 2061.26,-165"/>
<polygon fill="black" stroke="black" points="2061.26,-161.5 2051.26,-165 2061.26,-168.5 2061.26,-161.5"/>
</g>
<!-- LearnroomApiModule -->
<g id="node9" class="node">
<title>LearnroomApiModule</title>
<polygon fill="#8dd3c7" stroke="black" points="2768.24,-122 2765.24,-126 2744.24,-126 2741.24,-122 2625.76,-122 2625.76,-86 2768.24,-86 2768.24,-122"/>
<text text-anchor="middle" x="2697" y="-99.8" font-family="Times,serif" font-size="14.00">LearnroomApiModule</text>
</g>
<!-- LearnroomApiModule&#45;&gt;ServerTestModule -->
<g id="edge9" class="edge">
<title>LearnroomApiModule&#45;&gt;ServerTestModule</title>
<path fill="none" stroke="black" d="M2697,-122.02C2697,-139.37 2697,-163 2697,-163 2697,-163 2061.19,-163 2061.19,-163"/>
<polygon fill="black" stroke="black" points="2061.19,-159.5 2051.19,-163 2061.19,-166.5 2061.19,-159.5"/>
</g>
<!-- LegacySchoolApiModule -->
<g id="node10" class="node">
<title>LegacySchoolApiModule</title>
<polygon fill="#8dd3c7" stroke="black" points="2607.13,-122 2604.13,-126 2583.13,-126 2580.13,-122 2446.87,-122 2446.87,-86 2607.13,-86 2607.13,-122"/>
<text text-anchor="middle" x="2527" y="-99.8" font-family="Times,serif" font-size="14.00">LegacySchoolApiModule</text>
</g>
<!-- LegacySchoolApiModule&#45;&gt;ServerTestModule -->
<g id="edge10" class="edge">
<title>LegacySchoolApiModule&#45;&gt;ServerTestModule</title>
<path fill="none" stroke="black" d="M2527,-122.03C2527,-138.4 2527,-160 2527,-160 2527,-160 2061.18,-160 2061.18,-160"/>
<polygon fill="black" stroke="black" points="2061.18,-156.5 2051.18,-160 2061.18,-163.5 2061.18,-156.5"/>
</g>
<!-- LessonApiModule -->
<g id="node11" class="node">
<title>LessonApiModule</title>
<polygon fill="#8dd3c7" stroke="black" points="2429.2,-122 2426.2,-126 2405.2,-126 2402.2,-122 2308.8,-122 2308.8,-86 2429.2,-86 2429.2,-122"/>
<text text-anchor="middle" x="2369" y="-99.8" font-family="Times,serif" font-size="14.00">LessonApiModule</text>
</g>
<!-- LessonApiModule&#45;&gt;ServerTestModule -->
<g id="edge11" class="edge">
<title>LessonApiModule&#45;&gt;ServerTestModule</title>
<path fill="none" stroke="black" d="M2369,-122.24C2369,-137.57 2369,-157 2369,-157 2369,-157 2061.31,-157 2061.31,-157"/>
<polygon fill="black" stroke="black" points="2061.31,-153.5 2051.31,-157 2061.31,-160.5 2061.31,-153.5"/>
</g>
<!-- LoggerModule -->
<g id="node12" class="node">
<title>LoggerModule</title>
<polygon fill="#8dd3c7" stroke="black" points="2290.98,-122 2287.98,-126 2266.98,-126 2263.98,-122 2191.02,-122 2191.02,-86 2290.98,-86 2290.98,-122"/>
<text text-anchor="middle" x="2241" y="-99.8" font-family="Times,serif" font-size="14.00">LoggerModule</text>
</g>
<!-- LoggerModule&#45;&gt;ServerTestModule -->
<g id="edge12" class="edge">
<title>LoggerModule&#45;&gt;ServerTestModule</title>
<path fill="none" stroke="black" d="M2241,-122.05C2241,-136.37 2241,-154 2241,-154 2241,-154 2061.2,-154 2061.2,-154"/>
<polygon fill="black" stroke="black" points="2061.2,-150.5 2051.2,-154 2061.2,-157.5 2061.2,-150.5"/>
</g>
<!-- MongoMemoryDatabaseModule -->
<g id="node13" class="node">
<title>MongoMemoryDatabaseModule</title>
<polygon fill="#8dd3c7" stroke="black" points="2172.51,-122 2169.51,-126 2148.51,-126 2145.51,-122 1973.49,-122 1973.49,-86 2172.51,-86 2172.51,-122"/>
<text text-anchor="middle" x="2073" y="-99.8" font-family="Times,serif" font-size="14.00">MongoMemoryDatabaseModule</text>
</g>
<!-- MongoMemoryDatabaseModule&#45;&gt;ServerTestModule -->
<g id="edge13" class="edge">
<title>MongoMemoryDatabaseModule&#45;&gt;ServerTestModule</title>
<path fill="none" stroke="black" d="M2012.17,-122.11C2012.17,-122.11 2012.17,-140.99 2012.17,-140.99"/>
<polygon fill="black" stroke="black" points="2008.67,-140.99 2012.17,-150.99 2015.67,-140.99 2008.67,-140.99"/>
</g>
<!-- NewsModule -->
<g id="node14" class="node">
<title>NewsModule</title>
<polygon fill="#8dd3c7" stroke="black" points="1955.92,-122 1952.92,-126 1931.92,-126 1928.92,-122 1864.08,-122 1864.08,-86 1955.92,-86 1955.92,-122"/>
<text text-anchor="middle" x="1910" y="-99.8" font-family="Times,serif" font-size="14.00">NewsModule</text>
</g>
<!-- NewsModule&#45;&gt;ServerTestModule -->
<g id="edge14" class="edge">
<title>NewsModule&#45;&gt;ServerTestModule</title>
<path fill="none" stroke="black" d="M1943.31,-122.11C1943.31,-122.11 1943.31,-140.99 1943.31,-140.99"/>
<polygon fill="black" stroke="black" points="1939.81,-140.99 1943.31,-150.99 1946.81,-140.99 1939.81,-140.99"/>
</g>
<!-- OauthApiModule -->
<g id="node15" class="node">
<title>OauthApiModule</title>
<polygon fill="#8dd3c7" stroke="black" points="1846.26,-122 1843.26,-126 1822.26,-126 1819.26,-122 1731.74,-122 1731.74,-86 1846.26,-86 1846.26,-122"/>
<text text-anchor="middle" x="1789" y="-99.8" font-family="Times,serif" font-size="14.00">OauthApiModule</text>
</g>
<!-- OauthApiModule&#45;&gt;ServerTestModule -->
<g id="edge15" class="edge">
<title>OauthApiModule&#45;&gt;ServerTestModule</title>
<path fill="none" stroke="black" d="M1789,-122.05C1789,-136.37 1789,-154 1789,-154 1789,-154 1920.67,-154 1920.67,-154"/>
<polygon fill="black" stroke="black" points="1920.67,-157.5 1930.67,-154 1920.67,-150.5 1920.67,-157.5"/>
</g>
<!-- OauthProviderApiModule -->
<g id="node16" class="node">
<title>OauthProviderApiModule</title>
<polygon fill="#8dd3c7" stroke="black" points="1713.47,-122 1710.47,-126 1689.47,-126 1686.47,-122 1550.53,-122 1550.53,-86 1713.47,-86 1713.47,-122"/>
<text text-anchor="middle" x="1632" y="-99.8" font-family="Times,serif" font-size="14.00">OauthProviderApiModule</text>
</g>
<!-- OauthProviderApiModule&#45;&gt;ServerTestModule -->
<g id="edge16" class="edge">
<title>OauthProviderApiModule&#45;&gt;ServerTestModule</title>
<path fill="none" stroke="black" d="M1632,-122.24C1632,-137.57 1632,-157 1632,-157 1632,-157 1920.51,-157 1920.51,-157"/>
<polygon fill="black" stroke="black" points="1920.51,-160.5 1930.51,-157 1920.51,-153.5 1920.51,-160.5"/>
</g>
<!-- RabbitMQWrapperTestModule -->
<g id="node17" class="node">
<title>RabbitMQWrapperTestModule</title>
<polygon fill="#8dd3c7" stroke="black" points="1532,-122 1529,-126 1508,-126 1505,-122 1340,-122 1340,-86 1532,-86 1532,-122"/>
<text text-anchor="middle" x="1436" y="-99.8" font-family="Times,serif" font-size="14.00">RabbitMQWrapperTestModule</text>
</g>
<!-- RabbitMQWrapperTestModule&#45;&gt;ServerTestModule -->
<g id="edge17" class="edge">
<title>RabbitMQWrapperTestModule&#45;&gt;ServerTestModule</title>
<path fill="none" stroke="black" d="M1436,-122.03C1436,-138.4 1436,-160 1436,-160 1436,-160 1920.81,-160 1920.81,-160"/>
<polygon fill="black" stroke="black" points="1920.81,-163.5 1930.81,-160 1920.81,-156.5 1920.81,-163.5"/>
</g>
<!-- RedisModule -->
<g id="node18" class="node">
<title>RedisModule</title>
<polygon fill="#8dd3c7" stroke="black" points="1321.94,-122 1318.94,-126 1297.94,-126 1294.94,-122 1230.06,-122 1230.06,-86 1321.94,-86 1321.94,-122"/>
<text text-anchor="middle" x="1276" y="-99.8" font-family="Times,serif" font-size="14.00">RedisModule</text>
</g>
<!-- RedisModule&#45;&gt;ServerTestModule -->
<g id="edge18" class="edge">
<title>RedisModule&#45;&gt;ServerTestModule</title>
<path fill="none" stroke="black" d="M1276,-122.02C1276,-139.37 1276,-163 1276,-163 1276,-163 1920.66,-163 1920.66,-163"/>
<polygon fill="black" stroke="black" points="1920.66,-166.5 1930.66,-163 1920.66,-159.5 1920.66,-166.5"/>
</g>
<!-- SharingApiModule -->
<g id="node19" class="node">
<title>SharingApiModule</title>
<polygon fill="#8dd3c7" stroke="black" points="1212.1,-122 1209.1,-126 1188.1,-126 1185.1,-122 1087.9,-122 1087.9,-86 1212.1,-86 1212.1,-122"/>
<text text-anchor="middle" x="1150" y="-99.8" font-family="Times,serif" font-size="14.00">SharingApiModule</text>
</g>
<!-- SharingApiModule&#45;&gt;ServerTestModule -->
<g id="edge19" class="edge">
<title>SharingApiModule&#45;&gt;ServerTestModule</title>
<path fill="none" stroke="black" d="M1150,-122.3C1150,-140.27 1150,-165 1150,-165 1150,-165 1920.85,-165 1920.85,-165"/>
<polygon fill="black" stroke="black" points="1920.85,-168.5 1930.85,-165 1920.85,-161.5 1920.85,-168.5"/>
</g>
<!-- SystemApiModule -->
<g id="node20" class="node">
<title>SystemApiModule</title>
<polygon fill="#8dd3c7" stroke="black" points="1069.77,-122 1066.77,-126 1045.77,-126 1042.77,-122 948.23,-122 948.23,-86 1069.77,-86 1069.77,-122"/>
<text text-anchor="middle" x="1009" y="-99.8" font-family="Times,serif" font-size="14.00">SystemApiModule</text>
</g>
<!-- SystemApiModule&#45;&gt;ServerTestModule -->
<g id="edge20" class="edge">
<title>SystemApiModule&#45;&gt;ServerTestModule</title>
<path fill="none" stroke="black" d="M1009,-122.17C1009,-141.09 1009,-168 1009,-168 1009,-168 1920.68,-168 1920.68,-168"/>
<polygon fill="black" stroke="black" points="1920.68,-171.5 1930.68,-168 1920.68,-164.5 1920.68,-171.5"/>
</g>
<!-- TaskApiModule -->
<g id="node21" class="node">
<title>TaskApiModule</title>
<polygon fill="#8dd3c7" stroke="black" points="929.76,-122 926.76,-126 905.76,-126 902.76,-122 822.24,-122 822.24,-86 929.76,-86 929.76,-122"/>
<text text-anchor="middle" x="876" y="-99.8" font-family="Times,serif" font-size="14.00">TaskApiModule</text>
</g>
<!-- TaskApiModule&#45;&gt;ServerTestModule -->
<g id="edge21" class="edge">
<title>TaskApiModule&#45;&gt;ServerTestModule</title>
<path fill="none" stroke="black" d="M876,-122.31C876,-142.15 876,-171 876,-171 876,-171 1920.66,-171 1920.66,-171"/>
<polygon fill="black" stroke="black" points="1920.66,-174.5 1930.66,-171 1920.66,-167.5 1920.66,-174.5"/>
</g>
<!-- TeamsApiModule -->
<g id="node22" class="node">
<title>TeamsApiModule</title>
<polygon fill="#8dd3c7" stroke="black" points="803.86,-122 800.86,-126 779.86,-126 776.86,-122 686.14,-122 686.14,-86 803.86,-86 803.86,-122"/>
<text text-anchor="middle" x="745" y="-99.8" font-family="Times,serif" font-size="14.00">TeamsApiModule</text>
</g>
<!-- TeamsApiModule&#45;&gt;ServerTestModule -->
<g id="edge22" class="edge">
<title>TeamsApiModule&#45;&gt;ServerTestModule</title>
<path fill="none" stroke="black" d="M745,-122.03C745,-142.77 745,-174 745,-174 745,-174 1920.9,-174 1920.9,-174"/>
<polygon fill="black" stroke="black" points="1920.9,-177.5 1930.9,-174 1920.9,-170.5 1920.9,-177.5"/>
</g>
<!-- ToolApiModule -->
<g id="node23" class="node">
<title>ToolApiModule</title>
<polygon fill="#8dd3c7" stroke="black" points="668.49,-122 665.49,-126 644.49,-126 641.49,-122 561.51,-122 561.51,-86 668.49,-86 668.49,-122"/>
<text text-anchor="middle" x="615" y="-99.8" font-family="Times,serif" font-size="14.00">ToolApiModule</text>
</g>
<!-- ToolApiModule&#45;&gt;ServerTestModule -->
<g id="edge23" class="edge">
<title>ToolApiModule&#45;&gt;ServerTestModule</title>
<path fill="none" stroke="black" d="M615,-122.17C615,-143.5 615,-176 615,-176 615,-176 1920.55,-176 1920.55,-176"/>
<polygon fill="black" stroke="black" points="1920.55,-179.5 1930.55,-176 1920.55,-172.5 1920.55,-179.5"/>
</g>
<!-- UserApiModule -->
<g id="node24" class="node">
<title>UserApiModule</title>
<polygon fill="#8dd3c7" stroke="black" points="543.47,-122 540.47,-126 519.47,-126 516.47,-122 436.53,-122 436.53,-86 543.47,-86 543.47,-122"/>
<text text-anchor="middle" x="490" y="-99.8" font-family="Times,serif" font-size="14.00">UserApiModule</text>
</g>
<!-- UserApiModule&#45;&gt;ServerTestModule -->
<g id="edge24" class="edge">
<title>UserApiModule&#45;&gt;ServerTestModule</title>
<path fill="none" stroke="black" d="M490,-122.16C490,-144.35 490,-179 490,-179 490,-179 1920.77,-179 1920.77,-179"/>
<polygon fill="black" stroke="black" points="1920.77,-182.5 1930.77,-179 1920.77,-175.5 1920.77,-182.5"/>
</g>
<!-- UserLoginMigrationApiModule -->
<g id="node25" class="node">
<title>UserLoginMigrationApiModule</title>
<polygon fill="#8dd3c7" stroke="black" points="418.41,-122 415.41,-126 394.41,-126 391.41,-122 221.59,-122 221.59,-86 418.41,-86 418.41,-122"/>
<text text-anchor="middle" x="320" y="-99.8" font-family="Times,serif" font-size="14.00">UserLoginMigrationApiModule</text>
</g>
<!-- UserLoginMigrationApiModule&#45;&gt;ServerTestModule -->
<g id="edge25" class="edge">
<title>UserLoginMigrationApiModule&#45;&gt;ServerTestModule</title>
<path fill="none" stroke="black" d="M320,-122.09C320,-145.13 320,-182 320,-182 320,-182 1920.54,-182 1920.54,-182"/>
<polygon fill="black" stroke="black" points="1920.54,-185.5 1930.54,-182 1920.54,-178.5 1920.54,-185.5"/>
</g>
<!-- VideoConferenceApiModule -->
<g id="node26" class="node">
<title>VideoConferenceApiModule</title>
<polygon fill="#8dd3c7" stroke="black" points="203.78,-122 200.78,-126 179.78,-126 176.78,-122 24.22,-122 24.22,-86 203.78,-86 203.78,-122"/>
<text text-anchor="middle" x="114" y="-99.8" font-family="Times,serif" font-size="14.00">VideoConferenceApiModule</text>
</g>
<!-- VideoConferenceApiModule&#45;&gt;ServerTestModule -->
<g id="edge26" class="edge">
<title>VideoConferenceApiModule&#45;&gt;ServerTestModule</title>
<path fill="none" stroke="black" d="M114,-122.38C114,-146.28 114,-185 114,-185 114,-185 1920.67,-185 1920.67,-185"/>
<polygon fill="black" stroke="black" points="1920.67,-188.5 1930.67,-185 1920.67,-181.5 1920.67,-188.5"/>
</g>
</g>
</svg>
