<?xml version="1.0" encoding="UTF-8" standalone="no"?>
<!DOCTYPE svg PUBLIC "-//W3C//DTD SVG 1.1//EN"
 "http://www.w3.org/Graphics/SVG/1.1/DTD/svg11.dtd">
<!-- Generated by graphviz version 2.47.0 (20210316.0004)
 -->
<!-- Title: dependencies Pages: 1 -->
<svg width="3842pt" height="211pt"
 viewBox="0.00 0.00 3842.00 211.00" xmlns="http://www.w3.org/2000/svg" xmlns:xlink="http://www.w3.org/1999/xlink">
<g id="graph0" class="graph" transform="scale(1 1) rotate(0) translate(4 207)">
<title>dependencies</title>
<polygon fill="white" stroke="transparent" points="-4,4 -4,-207 3838,-207 3838,4 -4,4"/>
<text text-anchor="start" x="1896.01" y="-42.4" font-family="Times-12" font-weight="bold" font-size="14.00">Legend</text>
<polygon fill="#ffffb3" stroke="transparent" points="1683,-10 1683,-30 1703,-30 1703,-10 1683,-10"/>
<text text-anchor="start" x="1706.63" y="-15.4" font-family="Times-12" font-size="14.00"> &#160;Declarations</text>
<polygon fill="#8dd3c7" stroke="transparent" points="1796,-10 1796,-30 1816,-30 1816,-10 1796,-10"/>
<text text-anchor="start" x="1819.73" y="-15.4" font-family="Times-12" font-size="14.00"> &#160;Module</text>
<polygon fill="#80b1d3" stroke="transparent" points="1882,-10 1882,-30 1902,-30 1902,-10 1882,-10"/>
<text text-anchor="start" x="1905.78" y="-15.4" font-family="Times-12" font-size="14.00"> &#160;Bootstrap</text>
<polygon fill="#fdb462" stroke="transparent" points="1979,-10 1979,-30 1999,-30 1999,-10 1979,-10"/>
<text text-anchor="start" x="2002.67" y="-15.4" font-family="Times-12" font-size="14.00"> &#160;Providers</text>
<polygon fill="#fb8072" stroke="transparent" points="2075,-10 2075,-30 2095,-30 2095,-10 2075,-10"/>
<text text-anchor="start" x="2098.73" y="-15.4" font-family="Times-12" font-size="14.00"> &#160;Exports</text>
<g id="clust1" class="cluster">
<title>cluster_ServerTestModule</title>
<polygon fill="none" stroke="black" stroke-dasharray="1,5" points="8,-70 8,-195 3826,-195 3826,-70 8,-70"/>
</g>
<g id="clust3" class="cluster">
<title>cluster_ServerTestModule_imports</title>
<polygon fill="none" stroke="black" points="16,-78 16,-130 3818,-130 3818,-78 16,-78"/>
</g>
<!-- AccountApiModule -->
<g id="node1" class="node">
<title>AccountApiModule</title>
<polygon fill="#8dd3c7" stroke="black" points="3809.97,-122 3806.97,-126 3785.97,-126 3782.97,-122 3682.03,-122 3682.03,-86 3809.97,-86 3809.97,-122"/>
<text text-anchor="middle" x="3746" y="-99.8" font-family="Times,serif" font-size="14.00">AccountApiModule</text>
</g>
<!-- ServerTestModule -->
<g id="node26" class="node">
<title>ServerTestModule</title>
<polygon fill="#8dd3c7" stroke="black" points="1971.19,-187 1968.19,-191 1947.19,-191 1944.19,-187 1850.81,-187 1850.81,-151 1971.19,-151 1971.19,-187"/>
<text text-anchor="middle" x="1911" y="-164.8" font-family="Times,serif" font-size="14.00">ServerTestModule</text>
</g>
<!-- AccountApiModule&#45;&gt;ServerTestModule -->
<g id="edge1" class="edge">
<title>AccountApiModule&#45;&gt;ServerTestModule</title>
<path fill="none" stroke="black" d="M3746,-122.15C3746,-145.76 3746,-184 3746,-184 3746,-184 1981.27,-184 1981.27,-184"/>
<polygon fill="black" stroke="black" points="1981.27,-180.5 1971.27,-184 1981.27,-187.5 1981.27,-180.5"/>
</g>
<!-- AuthenticationApiModule -->
<g id="node2" class="node">
<title>AuthenticationApiModule</title>
<polygon fill="#8dd3c7" stroke="black" points="3663.75,-122 3660.75,-126 3639.75,-126 3636.75,-122 3500.25,-122 3500.25,-86 3663.75,-86 3663.75,-122"/>
<text text-anchor="middle" x="3582" y="-99.8" font-family="Times,serif" font-size="14.00">AuthenticationApiModule</text>
</g>
<!-- AuthenticationApiModule&#45;&gt;ServerTestModule -->
<g id="edge2" class="edge">
<title>AuthenticationApiModule&#45;&gt;ServerTestModule</title>
<path fill="none" stroke="black" d="M3582,-122.09C3582,-145.13 3582,-182 3582,-182 3582,-182 1981.46,-182 1981.46,-182"/>
<polygon fill="black" stroke="black" points="1981.46,-178.5 1971.46,-182 1981.46,-185.5 1981.46,-178.5"/>
</g>
<!-- BoardApiModule -->
<g id="node3" class="node">
<title>BoardApiModule</title>
<polygon fill="#8dd3c7" stroke="black" points="3482.26,-122 3479.26,-126 3458.26,-126 3455.26,-122 3367.74,-122 3367.74,-86 3482.26,-86 3482.26,-122"/>
<text text-anchor="middle" x="3425" y="-99.8" font-family="Times,serif" font-size="14.00">BoardApiModule</text>
</g>
<!-- BoardApiModule&#45;&gt;ServerTestModule -->
<g id="edge3" class="edge">
<title>BoardApiModule&#45;&gt;ServerTestModule</title>
<path fill="none" stroke="black" d="M3425,-122.29C3425,-144.21 3425,-178 3425,-178 3425,-178 1981.28,-178 1981.28,-178"/>
<polygon fill="black" stroke="black" points="1981.28,-174.5 1971.28,-178 1981.28,-181.5 1981.28,-174.5"/>
</g>
<!-- CollaborativeStorageModule -->
<g id="node4" class="node">
<title>CollaborativeStorageModule</title>
<polygon fill="#8dd3c7" stroke="black" points="3349.02,-122 3346.02,-126 3325.02,-126 3322.02,-122 3170.98,-122 3170.98,-86 3349.02,-86 3349.02,-122"/>
<text text-anchor="middle" x="3260" y="-99.8" font-family="Times,serif" font-size="14.00">CollaborativeStorageModule</text>
</g>
<!-- CollaborativeStorageModule&#45;&gt;ServerTestModule -->
<g id="edge4" class="edge">
<title>CollaborativeStorageModule&#45;&gt;ServerTestModule</title>
<path fill="none" stroke="black" d="M3260,-122.28C3260,-143.32 3260,-175 3260,-175 3260,-175 1981.14,-175 1981.14,-175"/>
<polygon fill="black" stroke="black" points="1981.14,-171.5 1971.14,-175 1981.14,-178.5 1981.14,-171.5"/>
</g>
<!-- CoreModule -->
<g id="node5" class="node">
<title>CoreModule</title>
<polygon fill="#8dd3c7" stroke="black" points="3152.26,-122 3149.26,-126 3128.26,-126 3125.26,-122 3065.74,-122 3065.74,-86 3152.26,-86 3152.26,-122"/>
<text text-anchor="middle" x="3109" y="-99.8" font-family="Times,serif" font-size="14.00">CoreModule</text>
</g>
<!-- CoreModule&#45;&gt;ServerTestModule -->
<g id="edge5" class="edge">
<title>CoreModule&#45;&gt;ServerTestModule</title>
<path fill="none" stroke="black" d="M3109,-122.22C3109,-142.37 3109,-172 3109,-172 3109,-172 1981.23,-172 1981.23,-172"/>
<polygon fill="black" stroke="black" points="1981.23,-168.5 1971.23,-172 1981.23,-175.5 1981.23,-168.5"/>
</g>
<!-- FilesStorageClientModule -->
<g id="node6" class="node">
<title>FilesStorageClientModule</title>
<polygon fill="#8dd3c7" stroke="black" points="3047.76,-122 3044.76,-126 3023.76,-126 3020.76,-122 2884.24,-122 2884.24,-86 3047.76,-86 3047.76,-122"/>
<text text-anchor="middle" x="2966" y="-99.8" font-family="Times,serif" font-size="14.00">FilesStorageClientModule</text>
</g>
<!-- FilesStorageClientModule&#45;&gt;ServerTestModule -->
<g id="edge6" class="edge">
<title>FilesStorageClientModule&#45;&gt;ServerTestModule</title>
<path fill="none" stroke="black" d="M2966,-122.11C2966,-141.34 2966,-169 2966,-169 2966,-169 1981.13,-169 1981.13,-169"/>
<polygon fill="black" stroke="black" points="1981.13,-165.5 1971.13,-169 1981.13,-172.5 1981.13,-165.5"/>
</g>
<!-- GroupApiModule -->
<g id="node7" class="node">
<title>GroupApiModule</title>
<polygon fill="#8dd3c7" stroke="black" points="2866.31,-122 2863.31,-126 2842.31,-126 2839.31,-122 2749.69,-122 2749.69,-86 2866.31,-86 2866.31,-122"/>
<text text-anchor="middle" x="2808" y="-99.8" font-family="Times,serif" font-size="14.00">GroupApiModule</text>
</g>
<!-- GroupApiModule&#45;&gt;ServerTestModule -->
<g id="edge7" class="edge">
<title>GroupApiModule&#45;&gt;ServerTestModule</title>
<path fill="none" stroke="black" d="M2808,-122.22C2808,-140.83 2808,-167 2808,-167 2808,-167 1981.25,-167 1981.25,-167"/>
<polygon fill="black" stroke="black" points="1981.25,-163.5 1971.25,-167 1981.25,-170.5 1981.25,-163.5"/>
</g>
<!-- ImportUserModule -->
<g id="node8" class="node">
<title>ImportUserModule</title>
<polygon fill="#8dd3c7" stroke="black" points="2732.08,-122 2729.08,-126 2708.08,-126 2705.08,-122 2607.92,-122 2607.92,-86 2732.08,-86 2732.08,-122"/>
<text text-anchor="middle" x="2670" y="-99.8" font-family="Times,serif" font-size="14.00">ImportUserModule</text>
</g>
<!-- ImportUserModule&#45;&gt;ServerTestModule -->
<g id="edge8" class="edge">
<title>ImportUserModule&#45;&gt;ServerTestModule</title>
<path fill="none" stroke="black" d="M2670,-122.02C2670,-139.37 2670,-163 2670,-163 2670,-163 1981.19,-163 1981.19,-163"/>
<polygon fill="black" stroke="black" points="1981.19,-159.5 1971.19,-163 1981.19,-166.5 1981.19,-159.5"/>
</g>
<!-- LearnroomApiModule -->
<g id="node9" class="node">
<title>LearnroomApiModule</title>
<polygon fill="#8dd3c7" stroke="black" points="2590.24,-122 2587.24,-126 2566.24,-126 2563.24,-122 2447.76,-122 2447.76,-86 2590.24,-86 2590.24,-122"/>
<text text-anchor="middle" x="2519" y="-99.8" font-family="Times,serif" font-size="14.00">LearnroomApiModule</text>
</g>
<!-- LearnroomApiModule&#45;&gt;ServerTestModule -->
<g id="edge9" class="edge">
<title>LearnroomApiModule&#45;&gt;ServerTestModule</title>
<path fill="none" stroke="black" d="M2519,-122.03C2519,-138.4 2519,-160 2519,-160 2519,-160 1981.24,-160 1981.24,-160"/>
<polygon fill="black" stroke="black" points="1981.24,-156.5 1971.24,-160 1981.24,-163.5 1981.24,-156.5"/>
</g>
<!-- LessonApiModule -->
<g id="node10" class="node">
<title>LessonApiModule</title>
<polygon fill="#8dd3c7" stroke="black" points="2430.2,-122 2427.2,-126 2406.2,-126 2403.2,-122 2309.8,-122 2309.8,-86 2430.2,-86 2430.2,-122"/>
<text text-anchor="middle" x="2370" y="-99.8" font-family="Times,serif" font-size="14.00">LessonApiModule</text>
</g>
<!-- LessonApiModule&#45;&gt;ServerTestModule -->
<g id="edge10" class="edge">
<title>LessonApiModule&#45;&gt;ServerTestModule</title>
<path fill="none" stroke="black" d="M2370,-122.24C2370,-137.57 2370,-157 2370,-157 2370,-157 1981.48,-157 1981.48,-157"/>
<polygon fill="black" stroke="black" points="1981.48,-153.5 1971.48,-157 1981.48,-160.5 1981.48,-153.5"/>
</g>
<!-- LoggerModule -->
<g id="node11" class="node">
<title>LoggerModule</title>
<polygon fill="#8dd3c7" stroke="black" points="2291.98,-122 2288.98,-126 2267.98,-126 2264.98,-122 2192.02,-122 2192.02,-86 2291.98,-86 2291.98,-122"/>
<text text-anchor="middle" x="2242" y="-99.8" font-family="Times,serif" font-size="14.00">LoggerModule</text>
</g>
<!-- LoggerModule&#45;&gt;ServerTestModule -->
<g id="edge11" class="edge">
<title>LoggerModule&#45;&gt;ServerTestModule</title>
<path fill="none" stroke="black" d="M2242,-122.05C2242,-136.37 2242,-154 2242,-154 2242,-154 1981.33,-154 1981.33,-154"/>
<polygon fill="black" stroke="black" points="1981.33,-150.5 1971.33,-154 1981.33,-157.5 1981.33,-150.5"/>
</g>
<!-- MongoMemoryDatabaseModule -->
<g id="node12" class="node">
<title>MongoMemoryDatabaseModule</title>
<polygon fill="#8dd3c7" stroke="black" points="2173.51,-122 2170.51,-126 2149.51,-126 2146.51,-122 1974.49,-122 1974.49,-86 2173.51,-86 2173.51,-122"/>
<text text-anchor="middle" x="2074" y="-99.8" font-family="Times,serif" font-size="14.00">MongoMemoryDatabaseModule</text>
</g>
<!-- MongoMemoryDatabaseModule&#45;&gt;ServerTestModule -->
<g id="edge12" class="edge">
<title>MongoMemoryDatabaseModule&#45;&gt;ServerTestModule</title>
<path fill="none" stroke="black" d="M1974.46,-104C1967.94,-104 1963.9,-104 1963.9,-104 1963.9,-104 1963.9,-140.89 1963.9,-140.89"/>
<polygon fill="black" stroke="black" points="1960.4,-140.89 1963.9,-150.89 1967.4,-140.89 1960.4,-140.89"/>
</g>
<!-- NewsModule -->
<g id="node13" class="node">
<title>NewsModule</title>
<polygon fill="#8dd3c7" stroke="black" points="1956.92,-122 1953.92,-126 1932.92,-126 1929.92,-122 1865.08,-122 1865.08,-86 1956.92,-86 1956.92,-122"/>
<text text-anchor="middle" x="1911" y="-99.8" font-family="Times,serif" font-size="14.00">NewsModule</text>
</g>
<!-- NewsModule&#45;&gt;ServerTestModule -->
<g id="edge13" class="edge">
<title>NewsModule&#45;&gt;ServerTestModule</title>
<path fill="none" stroke="black" d="M1911,-122.11C1911,-122.11 1911,-140.99 1911,-140.99"/>
<polygon fill="black" stroke="black" points="1907.5,-140.99 1911,-150.99 1914.5,-140.99 1907.5,-140.99"/>
</g>
<!-- OauthApiModule -->
<g id="node14" class="node">
<title>OauthApiModule</title>
<polygon fill="#8dd3c7" stroke="black" points="1847.26,-122 1844.26,-126 1823.26,-126 1820.26,-122 1732.74,-122 1732.74,-86 1847.26,-86 1847.26,-122"/>
<text text-anchor="middle" x="1790" y="-99.8" font-family="Times,serif" font-size="14.00">OauthApiModule</text>
</g>
<!-- OauthApiModule&#45;&gt;ServerTestModule -->
<g id="edge14" class="edge">
<title>OauthApiModule&#45;&gt;ServerTestModule</title>
<path fill="none" stroke="black" d="M1847.46,-104C1853.84,-104 1858.1,-104 1858.1,-104 1858.1,-104 1858.1,-140.89 1858.1,-140.89"/>
<polygon fill="black" stroke="black" points="1854.6,-140.89 1858.1,-150.89 1861.6,-140.89 1854.6,-140.89"/>
</g>
<!-- OauthProviderApiModule -->
<g id="node15" class="node">
<title>OauthProviderApiModule</title>
<polygon fill="#8dd3c7" stroke="black" points="1714.47,-122 1711.47,-126 1690.47,-126 1687.47,-122 1551.53,-122 1551.53,-86 1714.47,-86 1714.47,-122"/>
<text text-anchor="middle" x="1633" y="-99.8" font-family="Times,serif" font-size="14.00">OauthProviderApiModule</text>
</g>
<!-- OauthProviderApiModule&#45;&gt;ServerTestModule -->
<g id="edge15" class="edge">
<title>OauthProviderApiModule&#45;&gt;ServerTestModule</title>
<path fill="none" stroke="black" d="M1633,-122.05C1633,-136.37 1633,-154 1633,-154 1633,-154 1840.68,-154 1840.68,-154"/>
<polygon fill="black" stroke="black" points="1840.68,-157.5 1850.68,-154 1840.68,-150.5 1840.68,-157.5"/>
</g>
<!-- RabbitMQWrapperTestModule -->
<g id="node16" class="node">
<title>RabbitMQWrapperTestModule</title>
<polygon fill="#8dd3c7" stroke="black" points="1533,-122 1530,-126 1509,-126 1506,-122 1341,-122 1341,-86 1533,-86 1533,-122"/>
<text text-anchor="middle" x="1437" y="-99.8" font-family="Times,serif" font-size="14.00">RabbitMQWrapperTestModule</text>
</g>
<!-- RabbitMQWrapperTestModule&#45;&gt;ServerTestModule -->
<g id="edge16" class="edge">
<title>RabbitMQWrapperTestModule&#45;&gt;ServerTestModule</title>
<path fill="none" stroke="black" d="M1437,-122.24C1437,-137.57 1437,-157 1437,-157 1437,-157 1840.49,-157 1840.49,-157"/>
<polygon fill="black" stroke="black" points="1840.49,-160.5 1850.49,-157 1840.49,-153.5 1840.49,-160.5"/>
</g>
<!-- RedisModule -->
<g id="node17" class="node">
<title>RedisModule</title>
<polygon fill="#8dd3c7" stroke="black" points="1322.94,-122 1319.94,-126 1298.94,-126 1295.94,-122 1231.06,-122 1231.06,-86 1322.94,-86 1322.94,-122"/>
<text text-anchor="middle" x="1277" y="-99.8" font-family="Times,serif" font-size="14.00">RedisModule</text>
</g>
<!-- RedisModule&#45;&gt;ServerTestModule -->
<g id="edge17" class="edge">
<title>RedisModule&#45;&gt;ServerTestModule</title>
<path fill="none" stroke="black" d="M1277,-122.03C1277,-138.4 1277,-160 1277,-160 1277,-160 1840.78,-160 1840.78,-160"/>
<polygon fill="black" stroke="black" points="1840.78,-163.5 1850.78,-160 1840.78,-156.5 1840.78,-163.5"/>
</g>
<!-- SchoolApiModule -->
<g id="node18" class="node">
<title>SchoolApiModule</title>
<polygon fill="#8dd3c7" stroke="black" points="1213.94,-122 1210.94,-126 1189.94,-126 1186.94,-122 1094.06,-122 1094.06,-86 1213.94,-86 1213.94,-122"/>
<text text-anchor="middle" x="1154" y="-99.8" font-family="Times,serif" font-size="14.00">SchoolApiModule</text>
</g>
<!-- SchoolApiModule&#45;&gt;ServerTestModule -->
<g id="edge18" class="edge">
<title>SchoolApiModule&#45;&gt;ServerTestModule</title>
<path fill="none" stroke="black" d="M1154,-122.02C1154,-139.37 1154,-163 1154,-163 1154,-163 1840.65,-163 1840.65,-163"/>
<polygon fill="black" stroke="black" points="1840.65,-166.5 1850.65,-163 1840.65,-159.5 1840.65,-166.5"/>
</g>
<!-- SharingApiModule -->
<g id="node19" class="node">
<title>SharingApiModule</title>
<polygon fill="#8dd3c7" stroke="black" points="1076.1,-122 1073.1,-126 1052.1,-126 1049.1,-122 951.9,-122 951.9,-86 1076.1,-86 1076.1,-122"/>
<text text-anchor="middle" x="1014" y="-99.8" font-family="Times,serif" font-size="14.00">SharingApiModule</text>
</g>
<!-- SharingApiModule&#45;&gt;ServerTestModule -->
<g id="edge19" class="edge">
<title>SharingApiModule&#45;&gt;ServerTestModule</title>
<path fill="none" stroke="black" d="M1014,-122.22C1014,-140.83 1014,-167 1014,-167 1014,-167 1840.75,-167 1840.75,-167"/>
<polygon fill="black" stroke="black" points="1840.75,-170.5 1850.75,-167 1840.75,-163.5 1840.75,-170.5"/>
</g>
<!-- SystemApiModule -->
<g id="node20" class="node">
<title>SystemApiModule</title>
<polygon fill="#8dd3c7" stroke="black" points="933.77,-122 930.77,-126 909.77,-126 906.77,-122 812.23,-122 812.23,-86 933.77,-86 933.77,-122"/>
<text text-anchor="middle" x="873" y="-99.8" font-family="Times,serif" font-size="14.00">SystemApiModule</text>
</g>
<!-- SystemApiModule&#45;&gt;ServerTestModule -->
<g id="edge20" class="edge">
<title>SystemApiModule&#45;&gt;ServerTestModule</title>
<path fill="none" stroke="black" d="M873,-122.11C873,-141.34 873,-169 873,-169 873,-169 1840.71,-169 1840.71,-169"/>
<polygon fill="black" stroke="black" points="1840.71,-172.5 1850.71,-169 1840.71,-165.5 1840.71,-172.5"/>
</g>
<!-- TaskApiModule -->
<g id="node21" class="node">
<title>TaskApiModule</title>
<polygon fill="#8dd3c7" stroke="black" points="793.76,-122 790.76,-126 769.76,-126 766.76,-122 686.24,-122 686.24,-86 793.76,-86 793.76,-122"/>
<text text-anchor="middle" x="740" y="-99.8" font-family="Times,serif" font-size="14.00">TaskApiModule</text>
</g>
<!-- TaskApiModule&#45;&gt;ServerTestModule -->
<g id="edge21" class="edge">
<title>TaskApiModule&#45;&gt;ServerTestModule</title>
<path fill="none" stroke="black" d="M740,-122.22C740,-142.37 740,-172 740,-172 740,-172 1840.51,-172 1840.51,-172"/>
<polygon fill="black" stroke="black" points="1840.51,-175.5 1850.51,-172 1840.51,-168.5 1840.51,-175.5"/>
</g>
<!-- ToolApiModule -->
<g id="node22" class="node">
<title>ToolApiModule</title>
<polygon fill="#8dd3c7" stroke="black" points="668.49,-122 665.49,-126 644.49,-126 641.49,-122 561.51,-122 561.51,-86 668.49,-86 668.49,-122"/>
<text text-anchor="middle" x="615" y="-99.8" font-family="Times,serif" font-size="14.00">ToolApiModule</text>
</g>
<!-- ToolApiModule&#45;&gt;ServerTestModule -->
<g id="edge22" class="edge">
<title>ToolApiModule&#45;&gt;ServerTestModule</title>
<path fill="none" stroke="black" d="M615,-122.28C615,-143.32 615,-175 615,-175 615,-175 1840.66,-175 1840.66,-175"/>
<polygon fill="black" stroke="black" points="1840.66,-178.5 1850.66,-175 1840.66,-171.5 1840.66,-178.5"/>
</g>
<!-- UserApiModule -->
<g id="node23" class="node">
<title>UserApiModule</title>
<polygon fill="#8dd3c7" stroke="black" points="543.47,-122 540.47,-126 519.47,-126 516.47,-122 436.53,-122 436.53,-86 543.47,-86 543.47,-122"/>
<text text-anchor="middle" x="490" y="-99.8" font-family="Times,serif" font-size="14.00">UserApiModule</text>
</g>
<!-- UserApiModule&#45;&gt;ServerTestModule -->
<g id="edge23" class="edge">
<title>UserApiModule&#45;&gt;ServerTestModule</title>
<path fill="none" stroke="black" d="M490,-122.29C490,-144.21 490,-178 490,-178 490,-178 1840.85,-178 1840.85,-178"/>
<polygon fill="black" stroke="black" points="1840.85,-181.5 1850.85,-178 1840.85,-174.5 1840.85,-181.5"/>
</g>
<!-- UserLoginMigrationApiModule -->
<g id="node24" class="node">
<title>UserLoginMigrationApiModule</title>
<polygon fill="#8dd3c7" stroke="black" points="418.41,-122 415.41,-126 394.41,-126 391.41,-122 221.59,-122 221.59,-86 418.41,-86 418.41,-122"/>
<text text-anchor="middle" x="320" y="-99.8" font-family="Times,serif" font-size="14.00">UserLoginMigrationApiModule</text>
</g>
<!-- UserLoginMigrationApiModule&#45;&gt;ServerTestModule -->
<g id="edge24" class="edge">
<title>UserLoginMigrationApiModule&#45;&gt;ServerTestModule</title>
<path fill="none" stroke="black" d="M320,-122.09C320,-145.13 320,-182 320,-182 320,-182 1840.57,-182 1840.57,-182"/>
<polygon fill="black" stroke="black" points="1840.57,-185.5 1850.57,-182 1840.57,-178.5 1840.57,-185.5"/>
</g>
<!-- VideoConferenceApiModule -->
<g id="node25" class="node">
<title>VideoConferenceApiModule</title>
<polygon fill="#8dd3c7" stroke="black" points="203.78,-122 200.78,-126 179.78,-126 176.78,-122 24.22,-122 24.22,-86 203.78,-86 203.78,-122"/>
<text text-anchor="middle" x="114" y="-99.8" font-family="Times,serif" font-size="14.00">VideoConferenceApiModule</text>
</g>
<!-- VideoConferenceApiModule&#45;&gt;ServerTestModule -->
<g id="edge25" class="edge">
<title>VideoConferenceApiModule&#45;&gt;ServerTestModule</title>
<path fill="none" stroke="black" d="M114,-122.15C114,-145.76 114,-184 114,-184 114,-184 1840.7,-184 1840.7,-184"/>
<polygon fill="black" stroke="black" points="1840.7,-187.5 1850.7,-184 1840.7,-180.5 1840.7,-187.5"/>
</g>
</g>
</svg>
