<?xml version="1.0" encoding="UTF-8" standalone="no"?>
<!DOCTYPE svg PUBLIC "-//W3C//DTD SVG 1.1//EN"
 "http://www.w3.org/Graphics/SVG/1.1/DTD/svg11.dtd">
<!-- Generated by graphviz version 5.0.0 (20220707.1540)
 -->
<!-- Title: dependencies Pages: 1 -->
<svg width="4121pt" height="174pt"
 viewBox="0.00 0.00 4121.00 173.80" xmlns="http://www.w3.org/2000/svg" xmlns:xlink="http://www.w3.org/1999/xlink">
<g id="graph0" class="graph" transform="scale(1 1) rotate(0) translate(4 169.8)">
<title>dependencies</title>
<polygon fill="white" stroke="transparent" points="-4,4 -4,-169.8 4117,-169.8 4117,4 -4,4"/>
<text text-anchor="middle" x="2056.5" y="-8.2" font-family="sans-serif" font-size="14.00">dependencies</text>
<g id="clust1" class="cluster">
<title>cluster_ServerTestModule</title>
<polygon fill="none" stroke="black" stroke-dasharray="1,5" points="8,-32.8 8,-157.8 4105,-157.8 4105,-32.8 8,-32.8"/>
</g>
<g id="clust3" class="cluster">
<title>cluster_ServerTestModule_imports</title>
<polygon fill="none" stroke="black" points="16,-40.8 16,-92.8 4097,-92.8 4097,-40.8 16,-40.8"/>
</g>
<!-- AccountApiModule -->
<g id="node1" class="node">
<title>AccountApiModule</title>
<polygon fill="#8dd3c7" stroke="black" points="4088.98,-84.8 4085.98,-88.8 4064.98,-88.8 4061.98,-84.8 3961.02,-84.8 3961.02,-48.8 4088.98,-48.8 4088.98,-84.8"/>
<text text-anchor="middle" x="4025" y="-62.6" font-family="Times,serif" font-size="14.00">AccountApiModule</text>
</g>
<!-- ServerTestModule -->
<g id="node29" class="node">
<title>ServerTestModule</title>
<polygon fill="#8dd3c7" stroke="black" points="2099.19,-149.8 2096.19,-153.8 2075.19,-153.8 2072.19,-149.8 1978.81,-149.8 1978.81,-113.8 2099.19,-113.8 2099.19,-149.8"/>
<text text-anchor="middle" x="2039" y="-127.6" font-family="Times,serif" font-size="14.00">ServerTestModule</text>
</g>
<!-- AccountApiModule&#45;&gt;ServerTestModule -->
<g id="edge1" class="edge">
<title>AccountApiModule&#45;&gt;ServerTestModule</title>
<path fill="none" stroke="black" d="M4025,-85.18C4025,-109.08 4025,-147.8 4025,-147.8 4025,-147.8 2109.25,-147.8 2109.25,-147.8"/>
<polygon fill="black" stroke="black" points="2109.25,-144.3 2099.25,-147.8 2109.25,-151.3 2109.25,-144.3"/>
</g>
<!-- AuthenticationApiModule -->
<g id="node2" class="node">
<title>AuthenticationApiModule</title>
<polygon fill="#8dd3c7" stroke="black" points="3942.75,-84.8 3939.75,-88.8 3918.75,-88.8 3915.75,-84.8 3779.25,-84.8 3779.25,-48.8 3942.75,-48.8 3942.75,-84.8"/>
<text text-anchor="middle" x="3861" y="-62.6" font-family="Times,serif" font-size="14.00">AuthenticationApiModule</text>
</g>
<!-- AuthenticationApiModule&#45;&gt;ServerTestModule -->
<g id="edge2" class="edge">
<title>AuthenticationApiModule&#45;&gt;ServerTestModule</title>
<path fill="none" stroke="black" d="M3861,-84.89C3861,-107.93 3861,-144.8 3861,-144.8 3861,-144.8 2109.1,-144.8 2109.1,-144.8"/>
<polygon fill="black" stroke="black" points="2109.1,-141.3 2099.1,-144.8 2109.1,-148.3 2109.1,-141.3"/>
</g>
<!-- BoardApiModule -->
<g id="node3" class="node">
<title>BoardApiModule</title>
<polygon fill="#8dd3c7" stroke="black" points="3761.27,-84.8 3758.27,-88.8 3737.27,-88.8 3734.27,-84.8 3646.73,-84.8 3646.73,-48.8 3761.27,-48.8 3761.27,-84.8"/>
<text text-anchor="middle" x="3704" y="-62.6" font-family="Times,serif" font-size="14.00">BoardApiModule</text>
</g>
<!-- BoardApiModule&#45;&gt;ServerTestModule -->
<g id="edge3" class="edge">
<title>BoardApiModule&#45;&gt;ServerTestModule</title>
<path fill="none" stroke="black" d="M3704,-84.81C3704,-107.29 3704,-142.8 3704,-142.8 3704,-142.8 2109.24,-142.8 2109.24,-142.8"/>
<polygon fill="black" stroke="black" points="2109.24,-139.3 2099.24,-142.8 2109.24,-146.3 2109.24,-139.3"/>
</g>
<!-- BoardModule -->
<g id="node4" class="node">
<title>BoardModule</title>
<polygon fill="#8dd3c7" stroke="black" points="3628.77,-84.8 3625.77,-88.8 3604.77,-88.8 3601.77,-84.8 3535.23,-84.8 3535.23,-48.8 3628.77,-48.8 3628.77,-84.8"/>
<text text-anchor="middle" x="3582" y="-62.6" font-family="Times,serif" font-size="14.00">BoardModule</text>
</g>
<!-- BoardModule&#45;&gt;ServerTestModule -->
<g id="edge4" class="edge">
<title>BoardModule&#45;&gt;ServerTestModule</title>
<path fill="none" stroke="black" d="M3582,-84.84C3582,-106.46 3582,-139.8 3582,-139.8 3582,-139.8 2109.49,-139.8 2109.49,-139.8"/>
<polygon fill="black" stroke="black" points="2109.49,-136.3 2099.49,-139.8 2109.49,-143.3 2109.49,-136.3"/>
</g>
<!-- CollaborativeStorageModule -->
<g id="node5" class="node">
<title>CollaborativeStorageModule</title>
<polygon fill="#8dd3c7" stroke="black" points="3517.02,-84.8 3514.02,-88.8 3493.02,-88.8 3490.02,-84.8 3338.98,-84.8 3338.98,-48.8 3517.02,-48.8 3517.02,-84.8"/>
<text text-anchor="middle" x="3428" y="-62.6" font-family="Times,serif" font-size="14.00">CollaborativeStorageModule</text>
</g>
<!-- CollaborativeStorageModule&#45;&gt;ServerTestModule -->
<g id="edge5" class="edge">
<title>CollaborativeStorageModule&#45;&gt;ServerTestModule</title>
<path fill="none" stroke="black" d="M3428,-85.08C3428,-106.12 3428,-137.8 3428,-137.8 3428,-137.8 2109.13,-137.8 2109.13,-137.8"/>
<polygon fill="black" stroke="black" points="2109.13,-134.3 2099.13,-137.8 2109.13,-141.3 2109.13,-134.3"/>
</g>
<!-- CoreModule -->
<g id="node6" class="node">
<title>CoreModule</title>
<polygon fill="#8dd3c7" stroke="black" points="3320.27,-84.8 3317.27,-88.8 3296.27,-88.8 3293.27,-84.8 3233.73,-84.8 3233.73,-48.8 3320.27,-48.8 3320.27,-84.8"/>
<text text-anchor="middle" x="3277" y="-62.6" font-family="Times,serif" font-size="14.00">CoreModule</text>
</g>
<!-- CoreModule&#45;&gt;ServerTestModule -->
<g id="edge6" class="edge">
<title>CoreModule&#45;&gt;ServerTestModule</title>
<path fill="none" stroke="black" d="M3277,-85.02C3277,-105.17 3277,-134.8 3277,-134.8 3277,-134.8 2109.13,-134.8 2109.13,-134.8"/>
<polygon fill="black" stroke="black" points="2109.13,-131.3 2099.13,-134.8 2109.13,-138.3 2109.13,-131.3"/>
</g>
<!-- FilesStorageClientModule -->
<g id="node7" class="node">
<title>FilesStorageClientModule</title>
<polygon fill="#8dd3c7" stroke="black" points="3215.77,-84.8 3212.77,-88.8 3191.77,-88.8 3188.77,-84.8 3052.23,-84.8 3052.23,-48.8 3215.77,-48.8 3215.77,-84.8"/>
<text text-anchor="middle" x="3134" y="-62.6" font-family="Times,serif" font-size="14.00">FilesStorageClientModule</text>
</g>
<!-- FilesStorageClientModule&#45;&gt;ServerTestModule -->
<g id="edge7" class="edge">
<title>FilesStorageClientModule&#45;&gt;ServerTestModule</title>
<path fill="none" stroke="black" d="M3134,-84.91C3134,-104.14 3134,-131.8 3134,-131.8 3134,-131.8 2109.43,-131.8 2109.43,-131.8"/>
<polygon fill="black" stroke="black" points="2109.43,-128.3 2099.43,-131.8 2109.43,-135.3 2109.43,-128.3"/>
</g>
<!-- ImportUserModule -->
<g id="node8" class="node">
<title>ImportUserModule</title>
<polygon fill="#8dd3c7" stroke="black" points="3034.09,-84.8 3031.09,-88.8 3010.09,-88.8 3007.09,-84.8 2909.91,-84.8 2909.91,-48.8 3034.09,-48.8 3034.09,-84.8"/>
<text text-anchor="middle" x="2972" y="-62.6" font-family="Times,serif" font-size="14.00">ImportUserModule</text>
</g>
<!-- ImportUserModule&#45;&gt;ServerTestModule -->
<g id="edge8" class="edge">
<title>ImportUserModule&#45;&gt;ServerTestModule</title>
<path fill="none" stroke="black" d="M2972,-85.02C2972,-103.63 2972,-129.8 2972,-129.8 2972,-129.8 2109.14,-129.8 2109.14,-129.8"/>
<polygon fill="black" stroke="black" points="2109.14,-126.3 2099.14,-129.8 2109.14,-133.3 2109.14,-126.3"/>
</g>
<!-- LearnroomModule -->
<g id="node9" class="node">
<title>LearnroomModule</title>
<polygon fill="#8dd3c7" stroke="black" points="2891.75,-84.8 2888.75,-88.8 2867.75,-88.8 2864.75,-84.8 2770.25,-84.8 2770.25,-48.8 2891.75,-48.8 2891.75,-84.8"/>
<text text-anchor="middle" x="2831" y="-62.6" font-family="Times,serif" font-size="14.00">LearnroomModule</text>
</g>
<!-- LearnroomModule&#45;&gt;ServerTestModule -->
<g id="edge9" class="edge">
<title>LearnroomModule&#45;&gt;ServerTestModule</title>
<path fill="none" stroke="black" d="M2831,-84.8C2831,-102.48 2831,-126.8 2831,-126.8 2831,-126.8 2109.18,-126.8 2109.18,-126.8"/>
<polygon fill="black" stroke="black" points="2109.18,-123.3 2099.18,-126.8 2109.18,-130.3 2109.18,-123.3"/>
</g>
<!-- LessonApiModule -->
<g id="node10" class="node">
<title>LessonApiModule</title>
<polygon fill="#8dd3c7" stroke="black" points="2752.21,-84.8 2749.21,-88.8 2728.21,-88.8 2725.21,-84.8 2631.79,-84.8 2631.79,-48.8 2752.21,-48.8 2752.21,-84.8"/>
<text text-anchor="middle" x="2692" y="-62.6" font-family="Times,serif" font-size="14.00">LessonApiModule</text>
</g>
<!-- LessonApiModule&#45;&gt;ServerTestModule -->
<g id="edge10" class="edge">
<title>LessonApiModule&#45;&gt;ServerTestModule</title>
<path fill="none" stroke="black" d="M2692,-84.83C2692,-101.86 2692,-124.8 2692,-124.8 2692,-124.8 2109.26,-124.8 2109.26,-124.8"/>
<polygon fill="black" stroke="black" points="2109.26,-121.3 2099.26,-124.8 2109.26,-128.3 2109.26,-121.3"/>
</g>
<!-- LoggerModule -->
<g id="node11" class="node">
<title>LoggerModule</title>
<polygon fill="#8dd3c7" stroke="black" points="2613.98,-84.8 2610.98,-88.8 2589.98,-88.8 2586.98,-84.8 2514.02,-84.8 2514.02,-48.8 2613.98,-48.8 2613.98,-84.8"/>
<text text-anchor="middle" x="2564" y="-62.6" font-family="Times,serif" font-size="14.00">LoggerModule</text>
</g>
<!-- LoggerModule&#45;&gt;ServerTestModule -->
<g id="edge11" class="edge">
<title>LoggerModule&#45;&gt;ServerTestModule</title>
<path fill="none" stroke="black" d="M2564,-84.81C2564,-100.85 2564,-121.8 2564,-121.8 2564,-121.8 2109.22,-121.8 2109.22,-121.8"/>
<polygon fill="black" stroke="black" points="2109.22,-118.3 2099.22,-121.8 2109.22,-125.3 2109.22,-118.3"/>
</g>
<!-- MongoMemoryDatabaseModule -->
<g id="node12" class="node">
<title>MongoMemoryDatabaseModule</title>
<polygon fill="#8dd3c7" stroke="black" points="2495.52,-84.8 2492.52,-88.8 2471.52,-88.8 2468.52,-84.8 2296.48,-84.8 2296.48,-48.8 2495.52,-48.8 2495.52,-84.8"/>
<text text-anchor="middle" x="2396" y="-62.6" font-family="Times,serif" font-size="14.00">MongoMemoryDatabaseModule</text>
</g>
<!-- MongoMemoryDatabaseModule&#45;&gt;ServerTestModule -->
<g id="edge12" class="edge">
<title>MongoMemoryDatabaseModule&#45;&gt;ServerTestModule</title>
<path fill="none" stroke="black" d="M2396,-85.04C2396,-100.37 2396,-119.8 2396,-119.8 2396,-119.8 2109.16,-119.8 2109.16,-119.8"/>
<polygon fill="black" stroke="black" points="2109.16,-116.3 2099.16,-119.8 2109.16,-123.3 2109.16,-116.3"/>
</g>
<!-- NewsModule -->
<g id="node13" class="node">
<title>NewsModule</title>
<polygon fill="#8dd3c7" stroke="black" points="2278.94,-84.8 2275.94,-88.8 2254.94,-88.8 2251.94,-84.8 2187.06,-84.8 2187.06,-48.8 2278.94,-48.8 2278.94,-84.8"/>
<text text-anchor="middle" x="2233" y="-62.6" font-family="Times,serif" font-size="14.00">NewsModule</text>
</g>
<!-- NewsModule&#45;&gt;ServerTestModule -->
<g id="edge13" class="edge">
<title>NewsModule&#45;&gt;ServerTestModule</title>
<path fill="none" stroke="black" d="M2233,-84.85C2233,-99.17 2233,-116.8 2233,-116.8 2233,-116.8 2109.32,-116.8 2109.32,-116.8"/>
<polygon fill="black" stroke="black" points="2109.32,-113.3 2099.32,-116.8 2109.32,-120.3 2109.32,-113.3"/>
</g>
<!-- OauthApiModule -->
<g id="node14" class="node">
<title>OauthApiModule</title>
<polygon fill="#8dd3c7" stroke="black" points="2169.27,-84.8 2166.27,-88.8 2145.27,-88.8 2142.27,-84.8 2054.73,-84.8 2054.73,-48.8 2169.27,-48.8 2169.27,-84.8"/>
<text text-anchor="middle" x="2112" y="-62.6" font-family="Times,serif" font-size="14.00">OauthApiModule</text>
</g>
<!-- OauthApiModule&#45;&gt;ServerTestModule -->
<g id="edge14" class="edge">
<title>OauthApiModule&#45;&gt;ServerTestModule</title>
<path fill="none" stroke="black" d="M2076.86,-84.91C2076.86,-84.91 2076.86,-103.79 2076.86,-103.79"/>
<polygon fill="black" stroke="black" points="2073.36,-103.79 2076.86,-113.79 2080.36,-103.79 2073.36,-103.79"/>
</g>
<!-- OauthProviderModule -->
<g id="node15" class="node">
<title>OauthProviderModule</title>
<polygon fill="#8dd3c7" stroke="black" points="2036.98,-84.8 2033.98,-88.8 2012.98,-88.8 2009.98,-84.8 1895.02,-84.8 1895.02,-48.8 2036.98,-48.8 2036.98,-84.8"/>
<text text-anchor="middle" x="1966" y="-62.6" font-family="Times,serif" font-size="14.00">OauthProviderModule</text>
</g>
<!-- OauthProviderModule&#45;&gt;ServerTestModule -->
<g id="edge15" class="edge">
<title>OauthProviderModule&#45;&gt;ServerTestModule</title>
<path fill="none" stroke="black" d="M2007.95,-84.91C2007.95,-84.91 2007.95,-103.79 2007.95,-103.79"/>
<polygon fill="black" stroke="black" points="2004.45,-103.79 2007.95,-113.79 2011.45,-103.79 2004.45,-103.79"/>
</g>
<!-- ProvisioningModule -->
<g id="node16" class="node">
<title>ProvisioningModule</title>
<polygon fill="#8dd3c7" stroke="black" points="1876.62,-84.8 1873.62,-88.8 1852.62,-88.8 1849.62,-84.8 1745.38,-84.8 1745.38,-48.8 1876.62,-48.8 1876.62,-84.8"/>
<text text-anchor="middle" x="1811" y="-62.6" font-family="Times,serif" font-size="14.00">ProvisioningModule</text>
</g>
<!-- ProvisioningModule&#45;&gt;ServerTestModule -->
<g id="edge16" class="edge">
<title>ProvisioningModule&#45;&gt;ServerTestModule</title>
<path fill="none" stroke="black" d="M1811,-84.85C1811,-99.17 1811,-116.8 1811,-116.8 1811,-116.8 1968.8,-116.8 1968.8,-116.8"/>
<polygon fill="black" stroke="black" points="1968.8,-120.3 1978.8,-116.8 1968.8,-113.3 1968.8,-120.3"/>
</g>
<!-- RabbitMQWrapperTestModule -->
<g id="node17" class="node">
<title>RabbitMQWrapperTestModule</title>
<polygon fill="#8dd3c7" stroke="black" points="1727.01,-84.8 1724.01,-88.8 1703.01,-88.8 1700.01,-84.8 1534.99,-84.8 1534.99,-48.8 1727.01,-48.8 1727.01,-84.8"/>
<text text-anchor="middle" x="1631" y="-62.6" font-family="Times,serif" font-size="14.00">RabbitMQWrapperTestModule</text>
</g>
<!-- RabbitMQWrapperTestModule&#45;&gt;ServerTestModule -->
<g id="edge17" class="edge">
<title>RabbitMQWrapperTestModule&#45;&gt;ServerTestModule</title>
<path fill="none" stroke="black" d="M1631,-85.04C1631,-100.37 1631,-119.8 1631,-119.8 1631,-119.8 1968.8,-119.8 1968.8,-119.8"/>
<polygon fill="black" stroke="black" points="1968.8,-123.3 1978.8,-119.8 1968.8,-116.3 1968.8,-123.3"/>
</g>
<!-- RedisModule -->
<g id="node18" class="node">
<title>RedisModule</title>
<polygon fill="#8dd3c7" stroke="black" points="1516.94,-84.8 1513.94,-88.8 1492.94,-88.8 1489.94,-84.8 1425.06,-84.8 1425.06,-48.8 1516.94,-48.8 1516.94,-84.8"/>
<text text-anchor="middle" x="1471" y="-62.6" font-family="Times,serif" font-size="14.00">RedisModule</text>
</g>
<!-- RedisModule&#45;&gt;ServerTestModule -->
<g id="edge18" class="edge">
<title>RedisModule&#45;&gt;ServerTestModule</title>
<path fill="none" stroke="black" d="M1471,-84.81C1471,-100.85 1471,-121.8 1471,-121.8 1471,-121.8 1968.75,-121.8 1968.75,-121.8"/>
<polygon fill="black" stroke="black" points="1968.75,-125.3 1978.75,-121.8 1968.75,-118.3 1968.75,-125.3"/>
</g>
<!-- RoleModule -->
<g id="node19" class="node">
<title>RoleModule</title>
<polygon fill="#8dd3c7" stroke="black" points="1406.99,-84.8 1403.99,-88.8 1382.99,-88.8 1379.99,-84.8 1321.01,-84.8 1321.01,-48.8 1406.99,-48.8 1406.99,-84.8"/>
<text text-anchor="middle" x="1364" y="-62.6" font-family="Times,serif" font-size="14.00">RoleModule</text>
</g>
<!-- RoleModule&#45;&gt;ServerTestModule -->
<g id="edge19" class="edge">
<title>RoleModule&#45;&gt;ServerTestModule</title>
<path fill="none" stroke="black" d="M1364,-84.83C1364,-101.86 1364,-124.8 1364,-124.8 1364,-124.8 1968.8,-124.8 1968.8,-124.8"/>
<polygon fill="black" stroke="black" points="1968.8,-128.3 1978.8,-124.8 1968.8,-121.3 1968.8,-128.3"/>
</g>
<!-- SchoolApiModule -->
<g id="node20" class="node">
<title>SchoolApiModule</title>
<polygon fill="#8dd3c7" stroke="black" points="1302.94,-84.8 1299.94,-88.8 1278.94,-88.8 1275.94,-84.8 1183.06,-84.8 1183.06,-48.8 1302.94,-48.8 1302.94,-84.8"/>
<text text-anchor="middle" x="1243" y="-62.6" font-family="Times,serif" font-size="14.00">SchoolApiModule</text>
</g>
<!-- SchoolApiModule&#45;&gt;ServerTestModule -->
<g id="edge20" class="edge">
<title>SchoolApiModule&#45;&gt;ServerTestModule</title>
<path fill="none" stroke="black" d="M1243,-84.8C1243,-102.48 1243,-126.8 1243,-126.8 1243,-126.8 1968.84,-126.8 1968.84,-126.8"/>
<polygon fill="black" stroke="black" points="1968.84,-130.3 1978.84,-126.8 1968.84,-123.3 1968.84,-130.3"/>
</g>
<!-- SharingApiModule -->
<g id="node21" class="node">
<title>SharingApiModule</title>
<polygon fill="#8dd3c7" stroke="black" points="1165.1,-84.8 1162.1,-88.8 1141.1,-88.8 1138.1,-84.8 1040.9,-84.8 1040.9,-48.8 1165.1,-48.8 1165.1,-84.8"/>
<text text-anchor="middle" x="1103" y="-62.6" font-family="Times,serif" font-size="14.00">SharingApiModule</text>
</g>
<!-- SharingApiModule&#45;&gt;ServerTestModule -->
<g id="edge21" class="edge">
<title>SharingApiModule&#45;&gt;ServerTestModule</title>
<path fill="none" stroke="black" d="M1103,-85.02C1103,-103.63 1103,-129.8 1103,-129.8 1103,-129.8 1968.67,-129.8 1968.67,-129.8"/>
<polygon fill="black" stroke="black" points="1968.67,-133.3 1978.67,-129.8 1968.67,-126.3 1968.67,-133.3"/>
</g>
<!-- SystemApiModule -->
<g id="node22" class="node">
<title>SystemApiModule</title>
<polygon fill="#8dd3c7" stroke="black" points="1022.78,-84.8 1019.78,-88.8 998.78,-88.8 995.78,-84.8 901.22,-84.8 901.22,-48.8 1022.78,-48.8 1022.78,-84.8"/>
<text text-anchor="middle" x="962" y="-62.6" font-family="Times,serif" font-size="14.00">SystemApiModule</text>
</g>
<!-- SystemApiModule&#45;&gt;ServerTestModule -->
<g id="edge22" class="edge">
<title>SystemApiModule&#45;&gt;ServerTestModule</title>
<path fill="none" stroke="black" d="M962,-84.91C962,-104.14 962,-131.8 962,-131.8 962,-131.8 1968.79,-131.8 1968.79,-131.8"/>
<polygon fill="black" stroke="black" points="1968.79,-135.3 1978.79,-131.8 1968.79,-128.3 1968.79,-135.3"/>
</g>
<!-- TaskCardModule -->
<g id="node23" class="node">
<title>TaskCardModule</title>
<polygon fill="#8dd3c7" stroke="black" points="882.98,-84.8 879.98,-88.8 858.98,-88.8 855.98,-84.8 769.02,-84.8 769.02,-48.8 882.98,-48.8 882.98,-84.8"/>
<text text-anchor="middle" x="826" y="-62.6" font-family="Times,serif" font-size="14.00">TaskCardModule</text>
</g>
<!-- TaskCardModule&#45;&gt;ServerTestModule -->
<g id="edge23" class="edge">
<title>TaskCardModule&#45;&gt;ServerTestModule</title>
<path fill="none" stroke="black" d="M826,-85.02C826,-105.17 826,-134.8 826,-134.8 826,-134.8 1968.85,-134.8 1968.85,-134.8"/>
<polygon fill="black" stroke="black" points="1968.85,-138.3 1978.85,-134.8 1968.85,-131.3 1968.85,-138.3"/>
</g>
<!-- TaskModule -->
<g id="node24" class="node">
<title>TaskModule</title>
<polygon fill="#8dd3c7" stroke="black" points="751.27,-84.8 748.27,-88.8 727.27,-88.8 724.27,-84.8 664.73,-84.8 664.73,-48.8 751.27,-48.8 751.27,-84.8"/>
<text text-anchor="middle" x="708" y="-62.6" font-family="Times,serif" font-size="14.00">TaskModule</text>
</g>
<!-- TaskModule&#45;&gt;ServerTestModule -->
<g id="edge24" class="edge">
<title>TaskModule&#45;&gt;ServerTestModule</title>
<path fill="none" stroke="black" d="M708,-85.08C708,-106.12 708,-137.8 708,-137.8 708,-137.8 1968.79,-137.8 1968.79,-137.8"/>
<polygon fill="black" stroke="black" points="1968.79,-141.3 1978.79,-137.8 1968.79,-134.3 1968.79,-141.3"/>
</g>
<!-- ToolApiModule -->
<g id="node25" class="node">
<title>ToolApiModule</title>
<polygon fill="#8dd3c7" stroke="black" points="646.49,-84.8 643.49,-88.8 622.49,-88.8 619.49,-84.8 539.51,-84.8 539.51,-48.8 646.49,-48.8 646.49,-84.8"/>
<text text-anchor="middle" x="593" y="-62.6" font-family="Times,serif" font-size="14.00">ToolApiModule</text>
</g>
<!-- ToolApiModule&#45;&gt;ServerTestModule -->
<g id="edge25" class="edge">
<title>ToolApiModule&#45;&gt;ServerTestModule</title>
<path fill="none" stroke="black" d="M593,-84.84C593,-106.46 593,-139.8 593,-139.8 593,-139.8 1968.71,-139.8 1968.71,-139.8"/>
<polygon fill="black" stroke="black" points="1968.71,-143.3 1978.71,-139.8 1968.71,-136.3 1968.71,-143.3"/>
</g>
<!-- UserApiModule -->
<g id="node26" class="node">
<title>UserApiModule</title>
<polygon fill="#8dd3c7" stroke="black" points="521.49,-84.8 518.49,-88.8 497.49,-88.8 494.49,-84.8 414.51,-84.8 414.51,-48.8 521.49,-48.8 521.49,-84.8"/>
<text text-anchor="middle" x="468" y="-62.6" font-family="Times,serif" font-size="14.00">UserApiModule</text>
</g>
<!-- UserApiModule&#45;&gt;ServerTestModule -->
<g id="edge26" class="edge">
<title>UserApiModule&#45;&gt;ServerTestModule</title>
<path fill="none" stroke="black" d="M468,-84.81C468,-107.29 468,-142.8 468,-142.8 468,-142.8 1968.86,-142.8 1968.86,-142.8"/>
<polygon fill="black" stroke="black" points="1968.86,-146.3 1978.86,-142.8 1968.86,-139.3 1968.86,-146.3"/>
</g>
<!-- UserLoginMigrationApiModule -->
<g id="node27" class="node">
<title>UserLoginMigrationApiModule</title>
<polygon fill="#8dd3c7" stroke="black" points="396.42,-84.8 393.42,-88.8 372.42,-88.8 369.42,-84.8 199.58,-84.8 199.58,-48.8 396.42,-48.8 396.42,-84.8"/>
<text text-anchor="middle" x="298" y="-62.6" font-family="Times,serif" font-size="14.00">UserLoginMigrationApiModule</text>
</g>
<!-- UserLoginMigrationApiModule&#45;&gt;ServerTestModule -->
<g id="edge27" class="edge">
<title>UserLoginMigrationApiModule&#45;&gt;ServerTestModule</title>
<path fill="none" stroke="black" d="M298,-84.89C298,-107.93 298,-144.8 298,-144.8 298,-144.8 1968.82,-144.8 1968.82,-144.8"/>
<polygon fill="black" stroke="black" points="1968.82,-148.3 1978.82,-144.8 1968.82,-141.3 1968.82,-148.3"/>
</g>
<!-- VideoConferenceModule -->
<g id="node28" class="node">
<title>VideoConferenceModule</title>
<polygon fill="#8dd3c7" stroke="black" points="182.28,-84.8 179.28,-88.8 158.28,-88.8 155.28,-84.8 23.72,-84.8 23.72,-48.8 182.28,-48.8 182.28,-84.8"/>
<text text-anchor="middle" x="103" y="-62.6" font-family="Times,serif" font-size="14.00">VideoConferenceModule</text>
</g>
<!-- VideoConferenceModule&#45;&gt;ServerTestModule -->
<g id="edge28" class="edge">
<title>VideoConferenceModule&#45;&gt;ServerTestModule</title>
<path fill="none" stroke="black" d="M103,-85.18C103,-109.08 103,-147.8 103,-147.8 103,-147.8 1968.67,-147.8 1968.67,-147.8"/>
<polygon fill="black" stroke="black" points="1968.67,-151.3 1978.67,-147.8 1968.67,-144.3 1968.67,-151.3"/>
</g>
</g>
</svg>
