<?xml version="1.0" encoding="UTF-8" standalone="no"?>
<!DOCTYPE svg PUBLIC "-//W3C//DTD SVG 1.1//EN"
 "http://www.w3.org/Graphics/SVG/1.1/DTD/svg11.dtd">
<!-- Generated by graphviz version 2.47.0 (20210316.0004)
 -->
<!-- Title: dependencies Pages: 1 -->
<svg width="4565pt" height="211pt"
 viewBox="0.00 0.00 4565.00 211.00" xmlns="http://www.w3.org/2000/svg" xmlns:xlink="http://www.w3.org/1999/xlink">
<g id="graph0" class="graph" transform="scale(1 1) rotate(0) translate(4 207)">
<title>dependencies</title>
<polygon fill="white" stroke="transparent" points="-4,4 -4,-207 4561,-207 4561,4 -4,4"/>
<text text-anchor="start" x="2257.51" y="-42.4" font-family="Times-12" font-weight="bold" font-size="14.00">Legend</text>
<polygon fill="#ffffb3" stroke="transparent" points="2044.5,-10 2044.5,-30 2064.5,-30 2064.5,-10 2044.5,-10"/>
<text text-anchor="start" x="2068.13" y="-15.4" font-family="Times-12" font-size="14.00"> &#160;Declarations</text>
<polygon fill="#8dd3c7" stroke="transparent" points="2157.5,-10 2157.5,-30 2177.5,-30 2177.5,-10 2157.5,-10"/>
<text text-anchor="start" x="2181.23" y="-15.4" font-family="Times-12" font-size="14.00"> &#160;Module</text>
<polygon fill="#80b1d3" stroke="transparent" points="2243.5,-10 2243.5,-30 2263.5,-30 2263.5,-10 2243.5,-10"/>
<text text-anchor="start" x="2267.28" y="-15.4" font-family="Times-12" font-size="14.00"> &#160;Bootstrap</text>
<polygon fill="#fdb462" stroke="transparent" points="2340.5,-10 2340.5,-30 2360.5,-30 2360.5,-10 2340.5,-10"/>
<text text-anchor="start" x="2364.17" y="-15.4" font-family="Times-12" font-size="14.00"> &#160;Providers</text>
<polygon fill="#fb8072" stroke="transparent" points="2436.5,-10 2436.5,-30 2456.5,-30 2456.5,-10 2436.5,-10"/>
<text text-anchor="start" x="2460.23" y="-15.4" font-family="Times-12" font-size="14.00"> &#160;Exports</text>
<g id="clust1" class="cluster">
<title>cluster_ServerTestModule</title>
<polygon fill="none" stroke="black" stroke-dasharray="1,5" points="8,-70 8,-195 4549,-195 4549,-70 8,-70"/>
</g>
<g id="clust3" class="cluster">
<title>cluster_ServerTestModule_imports</title>
<polygon fill="none" stroke="black" points="16,-78 16,-130 4541,-130 4541,-78 16,-78"/>
</g>
<!-- AccountApiModule -->
<g id="node1" class="node">
<title>AccountApiModule</title>
<polygon fill="#8dd3c7" stroke="black" points="4532.97,-122 4529.97,-126 4508.97,-126 4505.97,-122 4405.03,-122 4405.03,-86 4532.97,-86 4532.97,-122"/>
<text text-anchor="middle" x="4469" y="-99.8" font-family="Times,serif" font-size="14.00">AccountApiModule</text>
</g>
<!-- ServerTestModule -->
<g id="node30" class="node">
<title>ServerTestModule</title>
<polygon fill="#8dd3c7" stroke="black" points="2296.19,-187 2293.19,-191 2272.19,-191 2269.19,-187 2175.81,-187 2175.81,-151 2296.19,-151 2296.19,-187"/>
<text text-anchor="middle" x="2236" y="-164.8" font-family="Times,serif" font-size="14.00">ServerTestModule</text>
</g>
<!-- AccountApiModule&#45;&gt;ServerTestModule -->
<g id="edge1" class="edge">
<title>AccountApiModule&#45;&gt;ServerTestModule</title>
<path fill="none" stroke="black" d="M4469,-122.38C4469,-146.28 4469,-185 4469,-185 4469,-185 2306.31,-185 2306.31,-185"/>
<polygon fill="black" stroke="black" points="2306.31,-181.5 2296.31,-185 2306.31,-188.5 2306.31,-181.5"/>
</g>
<!-- AuthenticationApiModule -->
<g id="node2" class="node">
<title>AuthenticationApiModule</title>
<polygon fill="#8dd3c7" stroke="black" points="4386.75,-122 4383.75,-126 4362.75,-126 4359.75,-122 4223.25,-122 4223.25,-86 4386.75,-86 4386.75,-122"/>
<text text-anchor="middle" x="4305" y="-99.8" font-family="Times,serif" font-size="14.00">AuthenticationApiModule</text>
</g>
<!-- AuthenticationApiModule&#45;&gt;ServerTestModule -->
<g id="edge2" class="edge">
<title>AuthenticationApiModule&#45;&gt;ServerTestModule</title>
<path fill="none" stroke="black" d="M4305,-122.32C4305,-145.66 4305,-183 4305,-183 4305,-183 2306.24,-183 2306.24,-183"/>
<polygon fill="black" stroke="black" points="2306.24,-179.5 2296.24,-183 2306.24,-186.5 2306.24,-179.5"/>
</g>
<!-- BoardApiModule -->
<g id="node3" class="node">
<title>BoardApiModule</title>
<polygon fill="#8dd3c7" stroke="black" points="4205.26,-122 4202.26,-126 4181.26,-126 4178.26,-122 4090.74,-122 4090.74,-86 4205.26,-86 4205.26,-122"/>
<text text-anchor="middle" x="4148" y="-99.8" font-family="Times,serif" font-size="14.00">BoardApiModule</text>
</g>
<!-- BoardApiModule&#45;&gt;ServerTestModule -->
<g id="edge3" class="edge">
<title>BoardApiModule&#45;&gt;ServerTestModule</title>
<path fill="none" stroke="black" d="M4148,-122.01C4148,-144.49 4148,-180 4148,-180 4148,-180 2306.11,-180 2306.11,-180"/>
<polygon fill="black" stroke="black" points="2306.11,-176.5 2296.11,-180 2306.11,-183.5 2306.11,-176.5"/>
</g>
<!-- CollaborativeStorageModule -->
<g id="node4" class="node">
<title>CollaborativeStorageModule</title>
<polygon fill="#8dd3c7" stroke="black" points="4072.02,-122 4069.02,-126 4048.02,-126 4045.02,-122 3893.98,-122 3893.98,-86 4072.02,-86 4072.02,-122"/>
<text text-anchor="middle" x="3983" y="-99.8" font-family="Times,serif" font-size="14.00">CollaborativeStorageModule</text>
</g>
<!-- CollaborativeStorageModule&#45;&gt;ServerTestModule -->
<g id="edge4" class="edge">
<title>CollaborativeStorageModule&#45;&gt;ServerTestModule</title>
<path fill="none" stroke="black" d="M3983,-122.29C3983,-144.21 3983,-178 3983,-178 3983,-178 2306.14,-178 2306.14,-178"/>
<polygon fill="black" stroke="black" points="2306.14,-174.5 2296.14,-178 2306.14,-181.5 2306.14,-174.5"/>
</g>
<!-- CoreModule -->
<g id="node5" class="node">
<title>CoreModule</title>
<polygon fill="#8dd3c7" stroke="black" points="3875.26,-122 3872.26,-126 3851.26,-126 3848.26,-122 3788.74,-122 3788.74,-86 3875.26,-86 3875.26,-122"/>
<text text-anchor="middle" x="3832" y="-99.8" font-family="Times,serif" font-size="14.00">CoreModule</text>
</g>
<!-- CoreModule&#45;&gt;ServerTestModule -->
<g id="edge5" class="edge">
<title>CoreModule&#45;&gt;ServerTestModule</title>
<path fill="none" stroke="black" d="M3832,-122.28C3832,-143.32 3832,-175 3832,-175 3832,-175 2306.13,-175 2306.13,-175"/>
<polygon fill="black" stroke="black" points="2306.13,-171.5 2296.13,-175 2306.13,-178.5 2306.13,-171.5"/>
</g>
<!-- FilesStorageClientModule -->
<g id="node6" class="node">
<title>FilesStorageClientModule</title>
<polygon fill="#8dd3c7" stroke="black" points="3770.76,-122 3767.76,-126 3746.76,-126 3743.76,-122 3607.24,-122 3607.24,-86 3770.76,-86 3770.76,-122"/>
<text text-anchor="middle" x="3689" y="-99.8" font-family="Times,serif" font-size="14.00">FilesStorageClientModule</text>
</g>
<!-- FilesStorageClientModule&#45;&gt;ServerTestModule -->
<g id="edge6" class="edge">
<title>FilesStorageClientModule&#45;&gt;ServerTestModule</title>
<path fill="none" stroke="black" d="M3689,-122.13C3689,-142.57 3689,-173 3689,-173 3689,-173 2306.13,-173 2306.13,-173"/>
<polygon fill="black" stroke="black" points="2306.13,-169.5 2296.13,-173 2306.13,-176.5 2306.13,-169.5"/>
</g>
<!-- GroupApiModule -->
<g id="node7" class="node">
<title>GroupApiModule</title>
<polygon fill="#8dd3c7" stroke="black" points="3589.31,-122 3586.31,-126 3565.31,-126 3562.31,-122 3472.69,-122 3472.69,-86 3589.31,-86 3589.31,-122"/>
<text text-anchor="middle" x="3531" y="-99.8" font-family="Times,serif" font-size="14.00">GroupApiModule</text>
</g>
<!-- GroupApiModule&#45;&gt;ServerTestModule -->
<g id="edge7" class="edge">
<title>GroupApiModule&#45;&gt;ServerTestModule</title>
<path fill="none" stroke="black" d="M3531,-122.31C3531,-142.15 3531,-171 3531,-171 3531,-171 2306.29,-171 2306.29,-171"/>
<polygon fill="black" stroke="black" points="2306.29,-167.5 2296.29,-171 2306.29,-174.5 2306.29,-167.5"/>
</g>
<!-- ImportUserModule -->
<g id="node8" class="node">
<title>ImportUserModule</title>
<polygon fill="#8dd3c7" stroke="black" points="3455.08,-122 3452.08,-126 3431.08,-126 3428.08,-122 3330.92,-122 3330.92,-86 3455.08,-86 3455.08,-122"/>
<text text-anchor="middle" x="3393" y="-99.8" font-family="Times,serif" font-size="14.00">ImportUserModule</text>
</g>
<!-- ImportUserModule&#45;&gt;ServerTestModule -->
<g id="edge8" class="edge">
<title>ImportUserModule&#45;&gt;ServerTestModule</title>
<path fill="none" stroke="black" d="M3393,-122.17C3393,-141.09 3393,-168 3393,-168 3393,-168 2306.17,-168 2306.17,-168"/>
<polygon fill="black" stroke="black" points="2306.17,-164.5 2296.17,-168 2306.17,-171.5 2306.17,-164.5"/>
</g>
<!-- LearnroomApiModule -->
<g id="node9" class="node">
<title>LearnroomApiModule</title>
<polygon fill="#8dd3c7" stroke="black" points="3313.24,-122 3310.24,-126 3289.24,-126 3286.24,-122 3170.76,-122 3170.76,-86 3313.24,-86 3313.24,-122"/>
<text text-anchor="middle" x="3242" y="-99.8" font-family="Times,serif" font-size="14.00">LearnroomApiModule</text>
</g>
<!-- LearnroomApiModule&#45;&gt;ServerTestModule -->
<g id="edge9" class="edge">
<title>LearnroomApiModule&#45;&gt;ServerTestModule</title>
<path fill="none" stroke="black" d="M3242,-122.27C3242,-140.56 3242,-166 3242,-166 3242,-166 2306.29,-166 2306.29,-166"/>
<polygon fill="black" stroke="black" points="2306.29,-162.5 2296.29,-166 2306.29,-169.5 2306.29,-162.5"/>
</g>
<!-- LegacySchoolApiModule -->
<g id="node10" class="node">
<title>LegacySchoolApiModule</title>
<polygon fill="#8dd3c7" stroke="black" points="3152.13,-122 3149.13,-126 3128.13,-126 3125.13,-122 2991.87,-122 2991.87,-86 3152.13,-86 3152.13,-122"/>
<text text-anchor="middle" x="3072" y="-99.8" font-family="Times,serif" font-size="14.00">LegacySchoolApiModule</text>
</g>
<!-- LegacySchoolApiModule&#45;&gt;ServerTestModule -->
<g id="edge10" class="edge">
<title>LegacySchoolApiModule&#45;&gt;ServerTestModule</title>
<path fill="none" stroke="black" d="M3072,-122.02C3072,-139.37 3072,-163 3072,-163 3072,-163 2306.12,-163 2306.12,-163"/>
<polygon fill="black" stroke="black" points="2306.12,-159.5 2296.12,-163 2306.12,-166.5 2306.12,-159.5"/>
</g>
<!-- LessonApiModule -->
<g id="node11" class="node">
<title>LessonApiModule</title>
<polygon fill="#8dd3c7" stroke="black" points="2974.2,-122 2971.2,-126 2950.2,-126 2947.2,-122 2853.8,-122 2853.8,-86 2974.2,-86 2974.2,-122"/>
<text text-anchor="middle" x="2914" y="-99.8" font-family="Times,serif" font-size="14.00">LessonApiModule</text>
</g>
<!-- LessonApiModule&#45;&gt;ServerTestModule -->
<g id="edge11" class="edge">
<title>LessonApiModule&#45;&gt;ServerTestModule</title>
<path fill="none" stroke="black" d="M2914,-122.04C2914,-138.73 2914,-161 2914,-161 2914,-161 2306.17,-161 2306.17,-161"/>
<polygon fill="black" stroke="black" points="2306.17,-157.5 2296.17,-161 2306.17,-164.5 2306.17,-157.5"/>
</g>
<!-- LoggerModule -->
<g id="node12" class="node">
<title>LoggerModule</title>
<polygon fill="#8dd3c7" stroke="black" points="2835.98,-122 2832.98,-126 2811.98,-126 2808.98,-122 2736.02,-122 2736.02,-86 2835.98,-86 2835.98,-122"/>
<text text-anchor="middle" x="2786" y="-99.8" font-family="Times,serif" font-size="14.00">LoggerModule</text>
</g>
<!-- LoggerModule&#45;&gt;ServerTestModule -->
<g id="edge12" class="edge">
<title>LoggerModule&#45;&gt;ServerTestModule</title>
<path fill="none" stroke="black" d="M2786,-122.01C2786,-138.05 2786,-159 2786,-159 2786,-159 2306.17,-159 2306.17,-159"/>
<polygon fill="black" stroke="black" points="2306.17,-155.5 2296.17,-159 2306.17,-162.5 2306.17,-155.5"/>
</g>
<!-- MetaTagExtractorApiModule -->
<g id="node13" class="node">
<title>MetaTagExtractorApiModule</title>
<polygon fill="#8dd3c7" stroke="black" points="2717.66,-122 2714.66,-126 2693.66,-126 2690.66,-122 2534.34,-122 2534.34,-86 2717.66,-86 2717.66,-122"/>
<text text-anchor="middle" x="2626" y="-99.8" font-family="Times,serif" font-size="14.00">MetaTagExtractorApiModule</text>
</g>
<!-- MetaTagExtractorApiModule&#45;&gt;ServerTestModule -->
<g id="edge13" class="edge">
<title>MetaTagExtractorApiModule&#45;&gt;ServerTestModule</title>
<path fill="none" stroke="black" d="M2626,-122.19C2626,-137.18 2626,-156 2626,-156 2626,-156 2306.51,-156 2306.51,-156"/>
<polygon fill="black" stroke="black" points="2306.51,-152.5 2296.51,-156 2306.51,-159.5 2306.51,-152.5"/>
</g>
<!-- MetaTagExtractorModule -->
<g id="node14" class="node">
<title>MetaTagExtractorModule</title>
<polygon fill="#8dd3c7" stroke="black" points="2516.17,-122 2513.17,-126 2492.17,-126 2489.17,-122 2353.83,-122 2353.83,-86 2516.17,-86 2516.17,-122"/>
<text text-anchor="middle" x="2435" y="-99.8" font-family="Times,serif" font-size="14.00">MetaTagExtractorModule</text>
</g>
<!-- MetaTagExtractorModule&#45;&gt;ServerTestModule -->
<g id="edge14" class="edge">
<title>MetaTagExtractorModule&#45;&gt;ServerTestModule</title>
<path fill="none" stroke="black" d="M2435,-122.05C2435,-136.37 2435,-154 2435,-154 2435,-154 2306.25,-154 2306.25,-154"/>
<polygon fill="black" stroke="black" points="2306.25,-150.5 2296.25,-154 2306.25,-157.5 2306.25,-150.5"/>
</g>
<!-- MongoMemoryDatabaseModule -->
<g id="node15" class="node">
<title>MongoMemoryDatabaseModule</title>
<polygon fill="#8dd3c7" stroke="black" points="2335.51,-122 2332.51,-126 2311.51,-126 2308.51,-122 2136.49,-122 2136.49,-86 2335.51,-86 2335.51,-122"/>
<text text-anchor="middle" x="2236" y="-99.8" font-family="Times,serif" font-size="14.00">MongoMemoryDatabaseModule</text>
</g>
<!-- MongoMemoryDatabaseModule&#45;&gt;ServerTestModule -->
<g id="edge15" class="edge">
<title>MongoMemoryDatabaseModule&#45;&gt;ServerTestModule</title>
<path fill="none" stroke="black" d="M2236,-122.11C2236,-122.11 2236,-140.99 2236,-140.99"/>
<polygon fill="black" stroke="black" points="2232.5,-140.99 2236,-150.99 2239.5,-140.99 2232.5,-140.99"/>
</g>
<!-- NewsModule -->
<g id="node16" class="node">
<title>NewsModule</title>
<polygon fill="#8dd3c7" stroke="black" points="2118.92,-122 2115.92,-126 2094.92,-126 2091.92,-122 2027.08,-122 2027.08,-86 2118.92,-86 2118.92,-122"/>
<text text-anchor="middle" x="2073" y="-99.8" font-family="Times,serif" font-size="14.00">NewsModule</text>
</g>
<!-- NewsModule&#45;&gt;ServerTestModule -->
<g id="edge16" class="edge">
<title>NewsModule&#45;&gt;ServerTestModule</title>
<path fill="none" stroke="black" d="M2073,-122.05C2073,-136.37 2073,-154 2073,-154 2073,-154 2165.77,-154 2165.77,-154"/>
<polygon fill="black" stroke="black" points="2165.77,-157.5 2175.77,-154 2165.77,-150.5 2165.77,-157.5"/>
</g>
<!-- OauthApiModule -->
<g id="node17" class="node">
<title>OauthApiModule</title>
<polygon fill="#8dd3c7" stroke="black" points="2009.26,-122 2006.26,-126 1985.26,-126 1982.26,-122 1894.74,-122 1894.74,-86 2009.26,-86 2009.26,-122"/>
<text text-anchor="middle" x="1952" y="-99.8" font-family="Times,serif" font-size="14.00">OauthApiModule</text>
</g>
<!-- OauthApiModule&#45;&gt;ServerTestModule -->
<g id="edge17" class="edge">
<title>OauthApiModule&#45;&gt;ServerTestModule</title>
<path fill="none" stroke="black" d="M1952,-122.19C1952,-137.18 1952,-156 1952,-156 1952,-156 2165.77,-156 2165.77,-156"/>
<polygon fill="black" stroke="black" points="2165.77,-159.5 2175.77,-156 2165.77,-152.5 2165.77,-159.5"/>
</g>
<!-- OauthProviderApiModule -->
<g id="node18" class="node">
<title>OauthProviderApiModule</title>
<polygon fill="#8dd3c7" stroke="black" points="1876.47,-122 1873.47,-126 1852.47,-126 1849.47,-122 1713.53,-122 1713.53,-86 1876.47,-86 1876.47,-122"/>
<text text-anchor="middle" x="1795" y="-99.8" font-family="Times,serif" font-size="14.00">OauthProviderApiModule</text>
</g>
<!-- OauthProviderApiModule&#45;&gt;ServerTestModule -->
<g id="edge18" class="edge">
<title>OauthProviderApiModule&#45;&gt;ServerTestModule</title>
<path fill="none" stroke="black" d="M1795,-122.01C1795,-138.05 1795,-159 1795,-159 1795,-159 2165.61,-159 2165.61,-159"/>
<polygon fill="black" stroke="black" points="2165.61,-162.5 2175.61,-159 2165.61,-155.5 2165.61,-162.5"/>
</g>
<!-- PseudonymApiModule -->
<g id="node19" class="node">
<title>PseudonymApiModule</title>
<polygon fill="#8dd3c7" stroke="black" points="1695.88,-122 1692.88,-126 1671.88,-126 1668.88,-122 1550.12,-122 1550.12,-86 1695.88,-86 1695.88,-122"/>
<text text-anchor="middle" x="1623" y="-99.8" font-family="Times,serif" font-size="14.00">PseudonymApiModule</text>
</g>
<!-- PseudonymApiModule&#45;&gt;ServerTestModule -->
<g id="edge19" class="edge">
<title>PseudonymApiModule&#45;&gt;ServerTestModule</title>
<path fill="none" stroke="black" d="M1623,-122.04C1623,-138.73 1623,-161 1623,-161 1623,-161 2165.83,-161 2165.83,-161"/>
<polygon fill="black" stroke="black" points="2165.83,-164.5 2175.83,-161 2165.83,-157.5 2165.83,-164.5"/>
</g>
<!-- RabbitMQWrapperTestModule -->
<g id="node20" class="node">
<title>RabbitMQWrapperTestModule</title>
<polygon fill="#8dd3c7" stroke="black" points="1532,-122 1529,-126 1508,-126 1505,-122 1340,-122 1340,-86 1532,-86 1532,-122"/>
<text text-anchor="middle" x="1436" y="-99.8" font-family="Times,serif" font-size="14.00">RabbitMQWrapperTestModule</text>
</g>
<!-- RabbitMQWrapperTestModule&#45;&gt;ServerTestModule -->
<g id="edge20" class="edge">
<title>RabbitMQWrapperTestModule&#45;&gt;ServerTestModule</title>
<path fill="none" stroke="black" d="M1436,-122.02C1436,-139.37 1436,-163 1436,-163 1436,-163 2165.87,-163 2165.87,-163"/>
<polygon fill="black" stroke="black" points="2165.87,-166.5 2175.87,-163 2165.87,-159.5 2165.87,-166.5"/>
</g>
<!-- RedisModule -->
<g id="node21" class="node">
<title>RedisModule</title>
<polygon fill="#8dd3c7" stroke="black" points="1321.94,-122 1318.94,-126 1297.94,-126 1294.94,-122 1230.06,-122 1230.06,-86 1321.94,-86 1321.94,-122"/>
<text text-anchor="middle" x="1276" y="-99.8" font-family="Times,serif" font-size="14.00">RedisModule</text>
</g>
<!-- RedisModule&#45;&gt;ServerTestModule -->
<g id="edge21" class="edge">
<title>RedisModule&#45;&gt;ServerTestModule</title>
<path fill="none" stroke="black" d="M1276,-122.27C1276,-140.56 1276,-166 1276,-166 1276,-166 2165.58,-166 2165.58,-166"/>
<polygon fill="black" stroke="black" points="2165.58,-169.5 2175.58,-166 2165.58,-162.5 2165.58,-169.5"/>
</g>
<!-- SharingApiModule -->
<g id="node22" class="node">
<title>SharingApiModule</title>
<polygon fill="#8dd3c7" stroke="black" points="1212.1,-122 1209.1,-126 1188.1,-126 1185.1,-122 1087.9,-122 1087.9,-86 1212.1,-86 1212.1,-122"/>
<text text-anchor="middle" x="1150" y="-99.8" font-family="Times,serif" font-size="14.00">SharingApiModule</text>
</g>
<!-- SharingApiModule&#45;&gt;ServerTestModule -->
<g id="edge22" class="edge">
<title>SharingApiModule&#45;&gt;ServerTestModule</title>
<path fill="none" stroke="black" d="M1150,-122.17C1150,-141.09 1150,-168 1150,-168 1150,-168 2165.68,-168 2165.68,-168"/>
<polygon fill="black" stroke="black" points="2165.68,-171.5 2175.68,-168 2165.68,-164.5 2165.68,-171.5"/>
</g>
<!-- SystemApiModule -->
<g id="node23" class="node">
<title>SystemApiModule</title>
<polygon fill="#8dd3c7" stroke="black" points="1069.77,-122 1066.77,-126 1045.77,-126 1042.77,-122 948.23,-122 948.23,-86 1069.77,-86 1069.77,-122"/>
<text text-anchor="middle" x="1009" y="-99.8" font-family="Times,serif" font-size="14.00">SystemApiModule</text>
</g>
<!-- SystemApiModule&#45;&gt;ServerTestModule -->
<g id="edge23" class="edge">
<title>SystemApiModule&#45;&gt;ServerTestModule</title>
<path fill="none" stroke="black" d="M1009,-122.31C1009,-142.15 1009,-171 1009,-171 1009,-171 2165.57,-171 2165.57,-171"/>
<polygon fill="black" stroke="black" points="2165.57,-174.5 2175.57,-171 2165.57,-167.5 2165.57,-174.5"/>
</g>
<!-- TaskApiModule -->
<g id="node24" class="node">
<title>TaskApiModule</title>
<polygon fill="#8dd3c7" stroke="black" points="929.76,-122 926.76,-126 905.76,-126 902.76,-122 822.24,-122 822.24,-86 929.76,-86 929.76,-122"/>
<text text-anchor="middle" x="876" y="-99.8" font-family="Times,serif" font-size="14.00">TaskApiModule</text>
</g>
<!-- TaskApiModule&#45;&gt;ServerTestModule -->
<g id="edge24" class="edge">
<title>TaskApiModule&#45;&gt;ServerTestModule</title>
<path fill="none" stroke="black" d="M876,-122.13C876,-142.57 876,-173 876,-173 876,-173 2165.81,-173 2165.81,-173"/>
<polygon fill="black" stroke="black" points="2165.81,-176.5 2175.81,-173 2165.81,-169.5 2165.81,-176.5"/>
</g>
<!-- TeamsApiModule -->
<g id="node25" class="node">
<title>TeamsApiModule</title>
<polygon fill="#8dd3c7" stroke="black" points="803.86,-122 800.86,-126 779.86,-126 776.86,-122 686.14,-122 686.14,-86 803.86,-86 803.86,-122"/>
<text text-anchor="middle" x="745" y="-99.8" font-family="Times,serif" font-size="14.00">TeamsApiModule</text>
</g>
<!-- TeamsApiModule&#45;&gt;ServerTestModule -->
<g id="edge25" class="edge">
<title>TeamsApiModule&#45;&gt;ServerTestModule</title>
<path fill="none" stroke="black" d="M745,-122.28C745,-143.32 745,-175 745,-175 745,-175 2165.7,-175 2165.7,-175"/>
<polygon fill="black" stroke="black" points="2165.7,-178.5 2175.7,-175 2165.7,-171.5 2165.7,-178.5"/>
</g>
<!-- ToolApiModule -->
<g id="node26" class="node">
<title>ToolApiModule</title>
<polygon fill="#8dd3c7" stroke="black" points="668.49,-122 665.49,-126 644.49,-126 641.49,-122 561.51,-122 561.51,-86 668.49,-86 668.49,-122"/>
<text text-anchor="middle" x="615" y="-99.8" font-family="Times,serif" font-size="14.00">ToolApiModule</text>
</g>
<!-- ToolApiModule&#45;&gt;ServerTestModule -->
<g id="edge26" class="edge">
<title>ToolApiModule&#45;&gt;ServerTestModule</title>
<path fill="none" stroke="black" d="M615,-122.29C615,-144.21 615,-178 615,-178 615,-178 2165.9,-178 2165.9,-178"/>
<polygon fill="black" stroke="black" points="2165.9,-181.5 2175.9,-178 2165.9,-174.5 2165.9,-181.5"/>
</g>
<!-- UserApiModule -->
<g id="node27" class="node">
<title>UserApiModule</title>
<polygon fill="#8dd3c7" stroke="black" points="543.47,-122 540.47,-126 519.47,-126 516.47,-122 436.53,-122 436.53,-86 543.47,-86 543.47,-122"/>
<text text-anchor="middle" x="490" y="-99.8" font-family="Times,serif" font-size="14.00">UserApiModule</text>
</g>
<!-- UserApiModule&#45;&gt;ServerTestModule -->
<g id="edge27" class="edge">
<title>UserApiModule&#45;&gt;ServerTestModule</title>
<path fill="none" stroke="black" d="M490,-122.01C490,-144.49 490,-180 490,-180 490,-180 2165.9,-180 2165.9,-180"/>
<polygon fill="black" stroke="black" points="2165.9,-183.5 2175.9,-180 2165.9,-176.5 2165.9,-183.5"/>
</g>
<!-- UserLoginMigrationApiModule -->
<g id="node28" class="node">
<title>UserLoginMigrationApiModule</title>
<polygon fill="#8dd3c7" stroke="black" points="418.41,-122 415.41,-126 394.41,-126 391.41,-122 221.59,-122 221.59,-86 418.41,-86 418.41,-122"/>
<text text-anchor="middle" x="320" y="-99.8" font-family="Times,serif" font-size="14.00">UserLoginMigrationApiModule</text>
</g>
<!-- UserLoginMigrationApiModule&#45;&gt;ServerTestModule -->
<g id="edge28" class="edge">
<title>UserLoginMigrationApiModule&#45;&gt;ServerTestModule</title>
<path fill="none" stroke="black" d="M320,-122.32C320,-145.66 320,-183 320,-183 320,-183 2165.76,-183 2165.76,-183"/>
<polygon fill="black" stroke="black" points="2165.76,-186.5 2175.76,-183 2165.76,-179.5 2165.76,-186.5"/>
</g>
<!-- VideoConferenceApiModule -->
<g id="node29" class="node">
<title>VideoConferenceApiModule</title>
<polygon fill="#8dd3c7" stroke="black" points="203.78,-122 200.78,-126 179.78,-126 176.78,-122 24.22,-122 24.22,-86 203.78,-86 203.78,-122"/>
<text text-anchor="middle" x="114" y="-99.8" font-family="Times,serif" font-size="14.00">VideoConferenceApiModule</text>
</g>
<!-- VideoConferenceApiModule&#45;&gt;ServerTestModule -->
<g id="edge29" class="edge">
<title>VideoConferenceApiModule&#45;&gt;ServerTestModule</title>
<path fill="none" stroke="black" d="M114,-122.38C114,-146.28 114,-185 114,-185 114,-185 2165.63,-185 2165.63,-185"/>
<polygon fill="black" stroke="black" points="2165.63,-188.5 2175.63,-185 2165.63,-181.5 2165.63,-188.5"/>
</g>
</g>
</svg>
