<?xml version="1.0" encoding="UTF-8" standalone="no"?>
<!DOCTYPE svg PUBLIC "-//W3C//DTD SVG 1.1//EN"
 "http://www.w3.org/Graphics/SVG/1.1/DTD/svg11.dtd">
<!-- Generated by graphviz version 2.47.0 (20210316.0004)
 -->
<!-- Title: dependencies Pages: 1 -->
<svg width="4121pt" height="211pt"
 viewBox="0.00 0.00 4121.00 211.00" xmlns="http://www.w3.org/2000/svg" xmlns:xlink="http://www.w3.org/1999/xlink">
<g id="graph0" class="graph" transform="scale(1 1) rotate(0) translate(4 207)">
<title>dependencies</title>
<polygon fill="white" stroke="transparent" points="-4,4 -4,-207 4117,-207 4117,4 -4,4"/>
<text text-anchor="start" x="2035.51" y="-42.4" font-family="Times-12" font-weight="bold" font-size="14.00">Legend</text>
<polygon fill="#ffffb3" stroke="transparent" points="1822.5,-10 1822.5,-30 1842.5,-30 1842.5,-10 1822.5,-10"/>
<text text-anchor="start" x="1846.13" y="-15.4" font-family="Times-12" font-size="14.00"> &#160;Declarations</text>
<polygon fill="#8dd3c7" stroke="transparent" points="1935.5,-10 1935.5,-30 1955.5,-30 1955.5,-10 1935.5,-10"/>
<text text-anchor="start" x="1959.23" y="-15.4" font-family="Times-12" font-size="14.00"> &#160;Module</text>
<polygon fill="#80b1d3" stroke="transparent" points="2021.5,-10 2021.5,-30 2041.5,-30 2041.5,-10 2021.5,-10"/>
<text text-anchor="start" x="2045.28" y="-15.4" font-family="Times-12" font-size="14.00"> &#160;Bootstrap</text>
<polygon fill="#fdb462" stroke="transparent" points="2118.5,-10 2118.5,-30 2138.5,-30 2138.5,-10 2118.5,-10"/>
<text text-anchor="start" x="2142.17" y="-15.4" font-family="Times-12" font-size="14.00"> &#160;Providers</text>
<polygon fill="#fb8072" stroke="transparent" points="2214.5,-10 2214.5,-30 2234.5,-30 2234.5,-10 2214.5,-10"/>
<text text-anchor="start" x="2238.23" y="-15.4" font-family="Times-12" font-size="14.00"> &#160;Exports</text>
<g id="clust1" class="cluster">
<title>cluster_ServerTestModule</title>
<polygon fill="none" stroke="black" stroke-dasharray="1,5" points="8,-70 8,-195 4105,-195 4105,-70 8,-70"/>
</g>
<g id="clust3" class="cluster">
<title>cluster_ServerTestModule_imports</title>
<polygon fill="none" stroke="black" points="16,-78 16,-130 4097,-130 4097,-78 16,-78"/>
</g>
<!-- AccountApiModule -->
<g id="node1" class="node">
<title>AccountApiModule</title>
<polygon fill="#8dd3c7" stroke="black" points="4088.97,-122 4085.97,-126 4064.97,-126 4061.97,-122 3961.03,-122 3961.03,-86 4088.97,-86 4088.97,-122"/>
<text text-anchor="middle" x="4025" y="-99.8" font-family="Times,serif" font-size="14.00">AccountApiModule</text>
</g>
<!-- ServerTestModule -->
<g id="node29" class="node">
<title>ServerTestModule</title>
<polygon fill="#8dd3c7" stroke="black" points="2099.19,-187 2096.19,-191 2075.19,-191 2072.19,-187 1978.81,-187 1978.81,-151 2099.19,-151 2099.19,-187"/>
<text text-anchor="middle" x="2039" y="-164.8" font-family="Times,serif" font-size="14.00">ServerTestModule</text>
</g>
<!-- AccountApiModule&#45;&gt;ServerTestModule -->
<g id="edge1" class="edge">
<title>AccountApiModule&#45;&gt;ServerTestModule</title>
<path fill="none" stroke="black" d="M4025,-122.38C4025,-146.28 4025,-185 4025,-185 4025,-185 2109.25,-185 2109.25,-185"/>
<polygon fill="black" stroke="black" points="2109.25,-181.5 2099.25,-185 2109.25,-188.5 2109.25,-181.5"/>
</g>
<!-- AuthenticationApiModule -->
<g id="node2" class="node">
<title>AuthenticationApiModule</title>
<polygon fill="#8dd3c7" stroke="black" points="3942.75,-122 3939.75,-126 3918.75,-126 3915.75,-122 3779.25,-122 3779.25,-86 3942.75,-86 3942.75,-122"/>
<text text-anchor="middle" x="3861" y="-99.8" font-family="Times,serif" font-size="14.00">AuthenticationApiModule</text>
</g>
<!-- AuthenticationApiModule&#45;&gt;ServerTestModule -->
<g id="edge2" class="edge">
<title>AuthenticationApiModule&#45;&gt;ServerTestModule</title>
<path fill="none" stroke="black" d="M3861,-122.09C3861,-145.13 3861,-182 3861,-182 3861,-182 2109.1,-182 2109.1,-182"/>
<polygon fill="black" stroke="black" points="2109.1,-178.5 2099.1,-182 2109.1,-185.5 2109.1,-178.5"/>
</g>
<!-- BoardApiModule -->
<g id="node3" class="node">
<title>BoardApiModule</title>
<polygon fill="#8dd3c7" stroke="black" points="3761.26,-122 3758.26,-126 3737.26,-126 3734.26,-122 3646.74,-122 3646.74,-86 3761.26,-86 3761.26,-122"/>
<text text-anchor="middle" x="3704" y="-99.8" font-family="Times,serif" font-size="14.00">BoardApiModule</text>
</g>
<!-- BoardApiModule&#45;&gt;ServerTestModule -->
<g id="edge3" class="edge">
<title>BoardApiModule&#45;&gt;ServerTestModule</title>
<path fill="none" stroke="black" d="M3704,-122.01C3704,-144.49 3704,-180 3704,-180 3704,-180 2109.24,-180 2109.24,-180"/>
<polygon fill="black" stroke="black" points="2109.24,-176.5 2099.24,-180 2109.24,-183.5 2109.24,-176.5"/>
</g>
<!-- BoardModule -->
<g id="node4" class="node">
<title>BoardModule</title>
<polygon fill="#8dd3c7" stroke="black" points="3628.76,-122 3625.76,-126 3604.76,-126 3601.76,-122 3535.24,-122 3535.24,-86 3628.76,-86 3628.76,-122"/>
<text text-anchor="middle" x="3582" y="-99.8" font-family="Times,serif" font-size="14.00">BoardModule</text>
</g>
<!-- BoardModule&#45;&gt;ServerTestModule -->
<g id="edge4" class="edge">
<title>BoardModule&#45;&gt;ServerTestModule</title>
<path fill="none" stroke="black" d="M3582,-122.04C3582,-143.66 3582,-177 3582,-177 3582,-177 2109.49,-177 2109.49,-177"/>
<polygon fill="black" stroke="black" points="2109.49,-173.5 2099.49,-177 2109.49,-180.5 2109.49,-173.5"/>
</g>
<!-- CollaborativeStorageModule -->
<g id="node5" class="node">
<title>CollaborativeStorageModule</title>
<polygon fill="#8dd3c7" stroke="black" points="3517.02,-122 3514.02,-126 3493.02,-126 3490.02,-122 3338.98,-122 3338.98,-86 3517.02,-86 3517.02,-122"/>
<text text-anchor="middle" x="3428" y="-99.8" font-family="Times,serif" font-size="14.00">CollaborativeStorageModule</text>
</g>
<!-- CollaborativeStorageModule&#45;&gt;ServerTestModule -->
<g id="edge5" class="edge">
<title>CollaborativeStorageModule&#45;&gt;ServerTestModule</title>
<path fill="none" stroke="black" d="M3428,-122.28C3428,-143.32 3428,-175 3428,-175 3428,-175 2109.13,-175 2109.13,-175"/>
<polygon fill="black" stroke="black" points="2109.13,-171.5 2099.13,-175 2109.13,-178.5 2109.13,-171.5"/>
</g>
<!-- CoreModule -->
<g id="node6" class="node">
<title>CoreModule</title>
<polygon fill="#8dd3c7" stroke="black" points="3320.26,-122 3317.26,-126 3296.26,-126 3293.26,-122 3233.74,-122 3233.74,-86 3320.26,-86 3320.26,-122"/>
<text text-anchor="middle" x="3277" y="-99.8" font-family="Times,serif" font-size="14.00">CoreModule</text>
</g>
<!-- CoreModule&#45;&gt;ServerTestModule -->
<g id="edge6" class="edge">
<title>CoreModule&#45;&gt;ServerTestModule</title>
<path fill="none" stroke="black" d="M3277,-122.22C3277,-142.37 3277,-172 3277,-172 3277,-172 2109.13,-172 2109.13,-172"/>
<polygon fill="black" stroke="black" points="2109.13,-168.5 2099.13,-172 2109.13,-175.5 2109.13,-168.5"/>
</g>
<!-- FilesStorageClientModule -->
<g id="node7" class="node">
<title>FilesStorageClientModule</title>
<polygon fill="#8dd3c7" stroke="black" points="3215.76,-122 3212.76,-126 3191.76,-126 3188.76,-122 3052.24,-122 3052.24,-86 3215.76,-86 3215.76,-122"/>
<text text-anchor="middle" x="3134" y="-99.8" font-family="Times,serif" font-size="14.00">FilesStorageClientModule</text>
</g>
<!-- FilesStorageClientModule&#45;&gt;ServerTestModule -->
<g id="edge7" class="edge">
<title>FilesStorageClientModule&#45;&gt;ServerTestModule</title>
<path fill="none" stroke="black" d="M3134,-122.11C3134,-141.34 3134,-169 3134,-169 3134,-169 2109.43,-169 2109.43,-169"/>
<polygon fill="black" stroke="black" points="2109.43,-165.5 2099.43,-169 2109.43,-172.5 2109.43,-165.5"/>
</g>
<!-- ImportUserModule -->
<g id="node8" class="node">
<title>ImportUserModule</title>
<polygon fill="#8dd3c7" stroke="black" points="3034.08,-122 3031.08,-126 3010.08,-126 3007.08,-122 2909.92,-122 2909.92,-86 3034.08,-86 3034.08,-122"/>
<text text-anchor="middle" x="2972" y="-99.8" font-family="Times,serif" font-size="14.00">ImportUserModule</text>
</g>
<!-- ImportUserModule&#45;&gt;ServerTestModule -->
<g id="edge8" class="edge">
<title>ImportUserModule&#45;&gt;ServerTestModule</title>
<path fill="none" stroke="black" d="M2972,-122.22C2972,-140.83 2972,-167 2972,-167 2972,-167 2109.14,-167 2109.14,-167"/>
<polygon fill="black" stroke="black" points="2109.14,-163.5 2099.14,-167 2109.14,-170.5 2109.14,-163.5"/>
</g>
<!-- LearnroomModule -->
<g id="node9" class="node">
<title>LearnroomModule</title>
<polygon fill="#8dd3c7" stroke="black" points="2891.74,-122 2888.74,-126 2867.74,-126 2864.74,-122 2770.26,-122 2770.26,-86 2891.74,-86 2891.74,-122"/>
<text text-anchor="middle" x="2831" y="-99.8" font-family="Times,serif" font-size="14.00">LearnroomModule</text>
</g>
<!-- LearnroomModule&#45;&gt;ServerTestModule -->
<g id="edge9" class="edge">
<title>LearnroomModule&#45;&gt;ServerTestModule</title>
<path fill="none" stroke="black" d="M2831,-122C2831,-139.68 2831,-164 2831,-164 2831,-164 2109.18,-164 2109.18,-164"/>
<polygon fill="black" stroke="black" points="2109.18,-160.5 2099.18,-164 2109.18,-167.5 2109.18,-160.5"/>
</g>
<!-- LessonApiModule -->
<g id="node10" class="node">
<title>LessonApiModule</title>
<polygon fill="#8dd3c7" stroke="black" points="2752.2,-122 2749.2,-126 2728.2,-126 2725.2,-122 2631.8,-122 2631.8,-86 2752.2,-86 2752.2,-122"/>
<text text-anchor="middle" x="2692" y="-99.8" font-family="Times,serif" font-size="14.00">LessonApiModule</text>
</g>
<!-- LessonApiModule&#45;&gt;ServerTestModule -->
<g id="edge10" class="edge">
<title>LessonApiModule&#45;&gt;ServerTestModule</title>
<path fill="none" stroke="black" d="M2692,-122.03C2692,-139.06 2692,-162 2692,-162 2692,-162 2109.26,-162 2109.26,-162"/>
<polygon fill="black" stroke="black" points="2109.26,-158.5 2099.26,-162 2109.26,-165.5 2109.26,-158.5"/>
</g>
<!-- LoggerModule -->
<g id="node11" class="node">
<title>LoggerModule</title>
<polygon fill="#8dd3c7" stroke="black" points="2613.98,-122 2610.98,-126 2589.98,-126 2586.98,-122 2514.02,-122 2514.02,-86 2613.98,-86 2613.98,-122"/>
<text text-anchor="middle" x="2564" y="-99.8" font-family="Times,serif" font-size="14.00">LoggerModule</text>
</g>
<!-- LoggerModule&#45;&gt;ServerTestModule -->
<g id="edge11" class="edge">
<title>LoggerModule&#45;&gt;ServerTestModule</title>
<path fill="none" stroke="black" d="M2564,-122.01C2564,-138.05 2564,-159 2564,-159 2564,-159 2109.22,-159 2109.22,-159"/>
<polygon fill="black" stroke="black" points="2109.22,-155.5 2099.22,-159 2109.22,-162.5 2109.22,-155.5"/>
</g>
<!-- MongoMemoryDatabaseModule -->
<g id="node12" class="node">
<title>MongoMemoryDatabaseModule</title>
<polygon fill="#8dd3c7" stroke="black" points="2495.51,-122 2492.51,-126 2471.51,-126 2468.51,-122 2296.49,-122 2296.49,-86 2495.51,-86 2495.51,-122"/>
<text text-anchor="middle" x="2396" y="-99.8" font-family="Times,serif" font-size="14.00">MongoMemoryDatabaseModule</text>
</g>
<!-- MongoMemoryDatabaseModule&#45;&gt;ServerTestModule -->
<g id="edge12" class="edge">
<title>MongoMemoryDatabaseModule&#45;&gt;ServerTestModule</title>
<path fill="none" stroke="black" d="M2396,-122.24C2396,-137.57 2396,-157 2396,-157 2396,-157 2109.16,-157 2109.16,-157"/>
<polygon fill="black" stroke="black" points="2109.16,-153.5 2099.16,-157 2109.16,-160.5 2109.16,-153.5"/>
</g>
<!-- NewsModule -->
<g id="node13" class="node">
<title>NewsModule</title>
<polygon fill="#8dd3c7" stroke="black" points="2278.92,-122 2275.92,-126 2254.92,-126 2251.92,-122 2187.08,-122 2187.08,-86 2278.92,-86 2278.92,-122"/>
<text text-anchor="middle" x="2233" y="-99.8" font-family="Times,serif" font-size="14.00">NewsModule</text>
</g>
<!-- NewsModule&#45;&gt;ServerTestModule -->
<g id="edge13" class="edge">
<title>NewsModule&#45;&gt;ServerTestModule</title>
<path fill="none" stroke="black" d="M2233,-122.05C2233,-136.37 2233,-154 2233,-154 2233,-154 2109.32,-154 2109.32,-154"/>
<polygon fill="black" stroke="black" points="2109.32,-150.5 2099.32,-154 2109.32,-157.5 2109.32,-150.5"/>
</g>
<!-- OauthApiModule -->
<g id="node14" class="node">
<title>OauthApiModule</title>
<polygon fill="#8dd3c7" stroke="black" points="2169.26,-122 2166.26,-126 2145.26,-126 2142.26,-122 2054.74,-122 2054.74,-86 2169.26,-86 2169.26,-122"/>
<text text-anchor="middle" x="2112" y="-99.8" font-family="Times,serif" font-size="14.00">OauthApiModule</text>
</g>
<!-- OauthApiModule&#45;&gt;ServerTestModule -->
<g id="edge14" class="edge">
<title>OauthApiModule&#45;&gt;ServerTestModule</title>
<path fill="none" stroke="black" d="M2076.86,-122.11C2076.86,-122.11 2076.86,-140.99 2076.86,-140.99"/>
<polygon fill="black" stroke="black" points="2073.36,-140.99 2076.86,-150.99 2080.36,-140.99 2073.36,-140.99"/>
</g>
<!-- OauthProviderModule -->
<g id="node15" class="node">
<title>OauthProviderModule</title>
<polygon fill="#8dd3c7" stroke="black" points="2036.97,-122 2033.97,-126 2012.97,-126 2009.97,-122 1895.03,-122 1895.03,-86 2036.97,-86 2036.97,-122"/>
<text text-anchor="middle" x="1966" y="-99.8" font-family="Times,serif" font-size="14.00">OauthProviderModule</text>
</g>
<!-- OauthProviderModule&#45;&gt;ServerTestModule -->
<g id="edge15" class="edge">
<title>OauthProviderModule&#45;&gt;ServerTestModule</title>
<path fill="none" stroke="black" d="M2007.95,-122.11C2007.95,-122.11 2007.95,-140.99 2007.95,-140.99"/>
<polygon fill="black" stroke="black" points="2004.45,-140.99 2007.95,-150.99 2011.45,-140.99 2004.45,-140.99"/>
</g>
<!-- ProvisioningModule -->
<g id="node16" class="node">
<title>ProvisioningModule</title>
<polygon fill="#8dd3c7" stroke="black" points="1876.61,-122 1873.61,-126 1852.61,-126 1849.61,-122 1745.39,-122 1745.39,-86 1876.61,-86 1876.61,-122"/>
<text text-anchor="middle" x="1811" y="-99.8" font-family="Times,serif" font-size="14.00">ProvisioningModule</text>
</g>
<!-- ProvisioningModule&#45;&gt;ServerTestModule -->
<g id="edge16" class="edge">
<title>ProvisioningModule&#45;&gt;ServerTestModule</title>
<path fill="none" stroke="black" d="M1811,-122.05C1811,-136.37 1811,-154 1811,-154 1811,-154 1968.8,-154 1968.8,-154"/>
<polygon fill="black" stroke="black" points="1968.8,-157.5 1978.8,-154 1968.8,-150.5 1968.8,-157.5"/>
</g>
<!-- RabbitMQWrapperTestModule -->
<g id="node17" class="node">
<title>RabbitMQWrapperTestModule</title>
<polygon fill="#8dd3c7" stroke="black" points="1727,-122 1724,-126 1703,-126 1700,-122 1535,-122 1535,-86 1727,-86 1727,-122"/>
<text text-anchor="middle" x="1631" y="-99.8" font-family="Times,serif" font-size="14.00">RabbitMQWrapperTestModule</text>
</g>
<!-- RabbitMQWrapperTestModule&#45;&gt;ServerTestModule -->
<g id="edge17" class="edge">
<title>RabbitMQWrapperTestModule&#45;&gt;ServerTestModule</title>
<path fill="none" stroke="black" d="M1631,-122.24C1631,-137.57 1631,-157 1631,-157 1631,-157 1968.8,-157 1968.8,-157"/>
<polygon fill="black" stroke="black" points="1968.8,-160.5 1978.8,-157 1968.8,-153.5 1968.8,-160.5"/>
</g>
<!-- RedisModule -->
<g id="node18" class="node">
<title>RedisModule</title>
<polygon fill="#8dd3c7" stroke="black" points="1516.94,-122 1513.94,-126 1492.94,-126 1489.94,-122 1425.06,-122 1425.06,-86 1516.94,-86 1516.94,-122"/>
<text text-anchor="middle" x="1471" y="-99.8" font-family="Times,serif" font-size="14.00">RedisModule</text>
</g>
<!-- RedisModule&#45;&gt;ServerTestModule -->
<g id="edge18" class="edge">
<title>RedisModule&#45;&gt;ServerTestModule</title>
<path fill="none" stroke="black" d="M1471,-122.01C1471,-138.05 1471,-159 1471,-159 1471,-159 1968.75,-159 1968.75,-159"/>
<polygon fill="black" stroke="black" points="1968.75,-162.5 1978.75,-159 1968.75,-155.5 1968.75,-162.5"/>
</g>
<!-- RoleModule -->
<g id="node19" class="node">
<title>RoleModule</title>
<polygon fill="#8dd3c7" stroke="black" points="1406.99,-122 1403.99,-126 1382.99,-126 1379.99,-122 1321.01,-122 1321.01,-86 1406.99,-86 1406.99,-122"/>
<text text-anchor="middle" x="1364" y="-99.8" font-family="Times,serif" font-size="14.00">RoleModule</text>
</g>
<!-- RoleModule&#45;&gt;ServerTestModule -->
<g id="edge19" class="edge">
<title>RoleModule&#45;&gt;ServerTestModule</title>
<path fill="none" stroke="black" d="M1364,-122.03C1364,-139.06 1364,-162 1364,-162 1364,-162 1968.8,-162 1968.8,-162"/>
<polygon fill="black" stroke="black" points="1968.8,-165.5 1978.8,-162 1968.8,-158.5 1968.8,-165.5"/>
</g>
<!-- SchoolApiModule -->
<g id="node20" class="node">
<title>SchoolApiModule</title>
<polygon fill="#8dd3c7" stroke="black" points="1302.94,-122 1299.94,-126 1278.94,-126 1275.94,-122 1183.06,-122 1183.06,-86 1302.94,-86 1302.94,-122"/>
<text text-anchor="middle" x="1243" y="-99.8" font-family="Times,serif" font-size="14.00">SchoolApiModule</text>
</g>
<!-- SchoolApiModule&#45;&gt;ServerTestModule -->
<g id="edge20" class="edge">
<title>SchoolApiModule&#45;&gt;ServerTestModule</title>
<path fill="none" stroke="black" d="M1243,-122C1243,-139.68 1243,-164 1243,-164 1243,-164 1968.84,-164 1968.84,-164"/>
<polygon fill="black" stroke="black" points="1968.84,-167.5 1978.84,-164 1968.84,-160.5 1968.84,-167.5"/>
</g>
<!-- SharingApiModule -->
<g id="node21" class="node">
<title>SharingApiModule</title>
<polygon fill="#8dd3c7" stroke="black" points="1165.1,-122 1162.1,-126 1141.1,-126 1138.1,-122 1040.9,-122 1040.9,-86 1165.1,-86 1165.1,-122"/>
<text text-anchor="middle" x="1103" y="-99.8" font-family="Times,serif" font-size="14.00">SharingApiModule</text>
</g>
<!-- SharingApiModule&#45;&gt;ServerTestModule -->
<g id="edge21" class="edge">
<title>SharingApiModule&#45;&gt;ServerTestModule</title>
<path fill="none" stroke="black" d="M1103,-122.22C1103,-140.83 1103,-167 1103,-167 1103,-167 1968.67,-167 1968.67,-167"/>
<polygon fill="black" stroke="black" points="1968.67,-170.5 1978.67,-167 1968.67,-163.5 1968.67,-170.5"/>
</g>
<!-- SystemApiModule -->
<g id="node22" class="node">
<title>SystemApiModule</title>
<polygon fill="#8dd3c7" stroke="black" points="1022.77,-122 1019.77,-126 998.77,-126 995.77,-122 901.23,-122 901.23,-86 1022.77,-86 1022.77,-122"/>
<text text-anchor="middle" x="962" y="-99.8" font-family="Times,serif" font-size="14.00">SystemApiModule</text>
</g>
<!-- SystemApiModule&#45;&gt;ServerTestModule -->
<g id="edge22" class="edge">
<title>SystemApiModule&#45;&gt;ServerTestModule</title>
<path fill="none" stroke="black" d="M962,-122.11C962,-141.34 962,-169 962,-169 962,-169 1968.79,-169 1968.79,-169"/>
<polygon fill="black" stroke="black" points="1968.79,-172.5 1978.79,-169 1968.79,-165.5 1968.79,-172.5"/>
</g>
<!-- TaskCardModule -->
<g id="node23" class="node">
<title>TaskCardModule</title>
<polygon fill="#8dd3c7" stroke="black" points="882.97,-122 879.97,-126 858.97,-126 855.97,-122 769.03,-122 769.03,-86 882.97,-86 882.97,-122"/>
<text text-anchor="middle" x="826" y="-99.8" font-family="Times,serif" font-size="14.00">TaskCardModule</text>
</g>
<!-- TaskCardModule&#45;&gt;ServerTestModule -->
<g id="edge23" class="edge">
<title>TaskCardModule&#45;&gt;ServerTestModule</title>
<path fill="none" stroke="black" d="M826,-122.22C826,-142.37 826,-172 826,-172 826,-172 1968.85,-172 1968.85,-172"/>
<polygon fill="black" stroke="black" points="1968.85,-175.5 1978.85,-172 1968.85,-168.5 1968.85,-175.5"/>
</g>
<!-- TaskModule -->
<g id="node24" class="node">
<title>TaskModule</title>
<polygon fill="#8dd3c7" stroke="black" points="751.26,-122 748.26,-126 727.26,-126 724.26,-122 664.74,-122 664.74,-86 751.26,-86 751.26,-122"/>
<text text-anchor="middle" x="708" y="-99.8" font-family="Times,serif" font-size="14.00">TaskModule</text>
</g>
<!-- TaskModule&#45;&gt;ServerTestModule -->
<g id="edge24" class="edge">
<title>TaskModule&#45;&gt;ServerTestModule</title>
<path fill="none" stroke="black" d="M708,-122.28C708,-143.32 708,-175 708,-175 708,-175 1968.79,-175 1968.79,-175"/>
<polygon fill="black" stroke="black" points="1968.79,-178.5 1978.79,-175 1968.79,-171.5 1968.79,-178.5"/>
</g>
<!-- ToolApiModule -->
<g id="node25" class="node">
<title>ToolApiModule</title>
<polygon fill="#8dd3c7" stroke="black" points="646.49,-122 643.49,-126 622.49,-126 619.49,-122 539.51,-122 539.51,-86 646.49,-86 646.49,-122"/>
<text text-anchor="middle" x="593" y="-99.8" font-family="Times,serif" font-size="14.00">ToolApiModule</text>
</g>
<!-- ToolApiModule&#45;&gt;ServerTestModule -->
<g id="edge25" class="edge">
<title>ToolApiModule&#45;&gt;ServerTestModule</title>
<path fill="none" stroke="black" d="M593,-122.04C593,-143.66 593,-177 593,-177 593,-177 1968.71,-177 1968.71,-177"/>
<polygon fill="black" stroke="black" points="1968.71,-180.5 1978.71,-177 1968.71,-173.5 1968.71,-180.5"/>
</g>
<!-- UserApiModule -->
<g id="node26" class="node">
<title>UserApiModule</title>
<polygon fill="#8dd3c7" stroke="black" points="521.47,-122 518.47,-126 497.47,-126 494.47,-122 414.53,-122 414.53,-86 521.47,-86 521.47,-122"/>
<text text-anchor="middle" x="468" y="-99.8" font-family="Times,serif" font-size="14.00">UserApiModule</text>
</g>
<!-- UserApiModule&#45;&gt;ServerTestModule -->
<g id="edge26" class="edge">
<title>UserApiModule&#45;&gt;ServerTestModule</title>
<path fill="none" stroke="black" d="M468,-122.01C468,-144.49 468,-180 468,-180 468,-180 1968.86,-180 1968.86,-180"/>
<polygon fill="black" stroke="black" points="1968.86,-183.5 1978.86,-180 1968.86,-176.5 1968.86,-183.5"/>
</g>
<!-- UserLoginMigrationApiModule -->
<g id="node27" class="node">
<title>UserLoginMigrationApiModule</title>
<polygon fill="#8dd3c7" stroke="black" points="396.41,-122 393.41,-126 372.41,-126 369.41,-122 199.59,-122 199.59,-86 396.41,-86 396.41,-122"/>
<text text-anchor="middle" x="298" y="-99.8" font-family="Times,serif" font-size="14.00">UserLoginMigrationApiModule</text>
</g>
<!-- UserLoginMigrationApiModule&#45;&gt;ServerTestModule -->
<g id="edge27" class="edge">
<title>UserLoginMigrationApiModule&#45;&gt;ServerTestModule</title>
<path fill="none" stroke="black" d="M298,-122.09C298,-145.13 298,-182 298,-182 298,-182 1968.82,-182 1968.82,-182"/>
<polygon fill="black" stroke="black" points="1968.82,-185.5 1978.82,-182 1968.82,-178.5 1968.82,-185.5"/>
</g>
<!-- VideoConferenceModule -->
<g id="node28" class="node">
<title>VideoConferenceModule</title>
<polygon fill="#8dd3c7" stroke="black" points="182.28,-122 179.28,-126 158.28,-126 155.28,-122 23.72,-122 23.72,-86 182.28,-86 182.28,-122"/>
<text text-anchor="middle" x="103" y="-99.8" font-family="Times,serif" font-size="14.00">VideoConferenceModule</text>
</g>
<!-- VideoConferenceModule&#45;&gt;ServerTestModule -->
<g id="edge28" class="edge">
<title>VideoConferenceModule&#45;&gt;ServerTestModule</title>
<path fill="none" stroke="black" d="M103,-122.38C103,-146.28 103,-185 103,-185 103,-185 1968.67,-185 1968.67,-185"/>
<polygon fill="black" stroke="black" points="1968.67,-188.5 1978.67,-185 1968.67,-181.5 1968.67,-188.5"/>
</g>
</g>
</svg>
