<?xml version="1.0" encoding="UTF-8" standalone="no"?>
<!DOCTYPE svg PUBLIC "-//W3C//DTD SVG 1.1//EN"
 "http://www.w3.org/Graphics/SVG/1.1/DTD/svg11.dtd">
<!-- Generated by graphviz version 2.47.0 (20210316.0004)
 -->
<!-- Title: dependencies Pages: 1 -->
<svg width="1230pt" height="211pt"
 viewBox="0.00 0.00 1230.00 211.00" xmlns="http://www.w3.org/2000/svg" xmlns:xlink="http://www.w3.org/1999/xlink">
<g id="graph0" class="graph" transform="scale(1 1) rotate(0) translate(4 207)">
<title>dependencies</title>
<polygon fill="white" stroke="transparent" points="-4,4 -4,-207 1226,-207 1226,4 -4,4"/>
<text text-anchor="start" x="590.01" y="-42.4" font-family="Times-12" font-weight="bold" font-size="14.00">Legend</text>
<polygon fill="#ffffb3" stroke="transparent" points="377,-10 377,-30 397,-30 397,-10 377,-10"/>
<text text-anchor="start" x="400.63" y="-15.4" font-family="Times-12" font-size="14.00"> &#160;Declarations</text>
<polygon fill="#8dd3c7" stroke="transparent" points="490,-10 490,-30 510,-30 510,-10 490,-10"/>
<text text-anchor="start" x="513.73" y="-15.4" font-family="Times-12" font-size="14.00"> &#160;Module</text>
<polygon fill="#80b1d3" stroke="transparent" points="576,-10 576,-30 596,-30 596,-10 576,-10"/>
<text text-anchor="start" x="599.78" y="-15.4" font-family="Times-12" font-size="14.00"> &#160;Bootstrap</text>
<polygon fill="#fdb462" stroke="transparent" points="673,-10 673,-30 693,-30 693,-10 673,-10"/>
<text text-anchor="start" x="696.67" y="-15.4" font-family="Times-12" font-size="14.00"> &#160;Providers</text>
<polygon fill="#fb8072" stroke="transparent" points="769,-10 769,-30 789,-30 789,-10 769,-10"/>
<text text-anchor="start" x="792.73" y="-15.4" font-family="Times-12" font-size="14.00"> &#160;Exports</text>
<g id="clust1" class="cluster">
<title>cluster_ServerTestModule</title>
<polygon fill="none" stroke="black" stroke-dasharray="1,5" points="8,-70 8,-195 1214,-195 1214,-70 8,-70"/>
</g>
<g id="clust6" class="cluster">
<title>cluster_ServerTestModule_providers</title>
<polygon fill="none" stroke="black" points="1096,-78 1096,-130 1206,-130 1206,-78 1096,-78"/>
</g>
<g id="clust3" class="cluster">
<title>cluster_ServerTestModule_imports</title>
<polygon fill="none" stroke="black" points="16,-78 16,-130 1088,-130 1088,-78 16,-78"/>
</g>
<!-- DeletionApiModule -->
<g id="node1" class="node">
<title>DeletionApiModule</title>
<polygon fill="#8dd3c7" stroke="black" points="1080.25,-122 1077.25,-126 1056.25,-126 1053.25,-122 951.75,-122 951.75,-86 1080.25,-86 1080.25,-122"/>
<text text-anchor="middle" x="1016" y="-99.8" font-family="Times,serif" font-size="14.00">DeletionApiModule</text>
</g>
<!-- ServerTestModule -->
<g id="node7" class="node">
<title>ServerTestModule</title>
<polygon fill="#8dd3c7" stroke="black" points="726.19,-187 723.19,-191 702.19,-191 699.19,-187 605.81,-187 605.81,-151 726.19,-151 726.19,-187"/>
<text text-anchor="middle" x="666" y="-164.8" font-family="Times,serif" font-size="14.00">ServerTestModule</text>
</g>
<!-- DeletionApiModule&#45;&gt;ServerTestModule -->
<g id="edge1" class="edge">
<title>DeletionApiModule&#45;&gt;ServerTestModule</title>
<path fill="none" stroke="black" d="M1016,-122.02C1016,-139.37 1016,-163 1016,-163 1016,-163 736.17,-163 736.17,-163"/>
<polygon fill="black" stroke="black" points="736.17,-159.5 726.17,-163 736.17,-166.5 736.17,-159.5"/>
</g>
<!-- LegacySchoolAdminApiModule -->
<g id="node2" class="node">
<title>LegacySchoolAdminApiModule</title>
<polygon fill="#8dd3c7" stroke="black" points="933.52,-122 930.52,-126 909.52,-126 906.52,-122 734.48,-122 734.48,-86 933.52,-86 933.52,-122"/>
<text text-anchor="middle" x="834" y="-99.8" font-family="Times,serif" font-size="14.00">LegacySchoolAdminApiModule</text>
</g>
<!-- LegacySchoolAdminApiModule&#45;&gt;ServerTestModule -->
<g id="edge2" class="edge">
<title>LegacySchoolAdminApiModule&#45;&gt;ServerTestModule</title>
<path fill="none" stroke="black" d="M734.44,-104C726.25,-104 721.04,-104 721.04,-104 721.04,-104 721.04,-140.89 721.04,-140.89"/>
<polygon fill="black" stroke="black" points="717.54,-140.89 721.04,-150.89 724.54,-140.89 717.54,-140.89"/>
</g>
<!-- LoggerModule -->
<g id="node3" class="node">
<title>LoggerModule</title>
<polygon fill="#8dd3c7" stroke="black" points="715.98,-122 712.98,-126 691.98,-126 688.98,-122 616.02,-122 616.02,-86 715.98,-86 715.98,-122"/>
<text text-anchor="middle" x="666" y="-99.8" font-family="Times,serif" font-size="14.00">LoggerModule</text>
</g>
<!-- LoggerModule&#45;&gt;ServerTestModule -->
<g id="edge3" class="edge">
<title>LoggerModule&#45;&gt;ServerTestModule</title>
<path fill="none" stroke="black" d="M666,-122.11C666,-122.11 666,-140.99 666,-140.99"/>
<polygon fill="black" stroke="black" points="662.5,-140.99 666,-150.99 669.5,-140.99 662.5,-140.99"/>
</g>
<!-- MongoMemoryDatabaseModule -->
<g id="node4" class="node">
<title>MongoMemoryDatabaseModule</title>
<polygon fill="#8dd3c7" stroke="black" points="597.51,-122 594.51,-126 573.51,-126 570.51,-122 398.49,-122 398.49,-86 597.51,-86 597.51,-122"/>
<text text-anchor="middle" x="498" y="-99.8" font-family="Times,serif" font-size="14.00">MongoMemoryDatabaseModule</text>
</g>
<!-- MongoMemoryDatabaseModule&#45;&gt;ServerTestModule -->
<g id="edge4" class="edge">
<title>MongoMemoryDatabaseModule&#45;&gt;ServerTestModule</title>
<path fill="none" stroke="black" d="M597.56,-104C605.75,-104 610.96,-104 610.96,-104 610.96,-104 610.96,-140.89 610.96,-140.89"/>
<polygon fill="black" stroke="black" points="607.46,-140.89 610.96,-150.89 614.46,-140.89 607.46,-140.89"/>
</g>
<!-- RabbitMQWrapperTestModule -->
<g id="node5" class="node">
<title>RabbitMQWrapperTestModule</title>
<polygon fill="#8dd3c7" stroke="black" points="380,-122 377,-126 356,-126 353,-122 188,-122 188,-86 380,-86 380,-122"/>
<text text-anchor="middle" x="284" y="-99.8" font-family="Times,serif" font-size="14.00">RabbitMQWrapperTestModule</text>
</g>
<!-- RabbitMQWrapperTestModule&#45;&gt;ServerTestModule -->
<g id="edge5" class="edge">
<title>RabbitMQWrapperTestModule&#45;&gt;ServerTestModule</title>
<path fill="none" stroke="black" d="M284,-122.02C284,-139.37 284,-163 284,-163 284,-163 595.89,-163 595.89,-163"/>
<polygon fill="black" stroke="black" points="595.89,-166.5 605.89,-163 595.89,-159.5 595.89,-166.5"/>
</g>
<!-- UserAdminApiModule -->
<g id="node6" class="node">
<title>UserAdminApiModule</title>
<polygon fill="#8dd3c7" stroke="black" points="169.86,-122 166.86,-126 145.86,-126 142.86,-122 24.14,-122 24.14,-86 169.86,-86 169.86,-122"/>
<text text-anchor="middle" x="97" y="-99.8" font-family="Times,serif" font-size="14.00">UserAdminApiModule</text>
</g>
<!-- UserAdminApiModule&#45;&gt;ServerTestModule -->
<g id="edge6" class="edge">
<title>UserAdminApiModule&#45;&gt;ServerTestModule</title>
<path fill="none" stroke="black" d="M97,-122.28C97,-143.32 97,-175 97,-175 97,-175 595.65,-175 595.65,-175"/>
<polygon fill="black" stroke="black" points="595.65,-178.5 605.65,-175 595.65,-171.5 595.65,-178.5"/>
</g>
<!-- ServerUc -->
<g id="node8" class="node">
<title>ServerUc</title>
<ellipse fill="#fdb462" stroke="black" cx="1151" cy="-104" rx="47.49" ry="18"/>
<text text-anchor="middle" x="1151" y="-99.8" font-family="Times,serif" font-size="14.00">ServerUc</text>
</g>
<!-- ServerUc&#45;&gt;ServerTestModule -->
<g id="edge7" class="edge">
<title>ServerUc&#45;&gt;ServerTestModule</title>
<path fill="none" stroke="black" d="M1151,-122.28C1151,-143.32 1151,-175 1151,-175 1151,-175 736.44,-175 736.44,-175"/>
<polygon fill="black" stroke="black" points="736.44,-171.5 726.44,-175 736.44,-178.5 736.44,-171.5"/>
</g>
</g>
</svg>
