<?xml version="1.0" encoding="UTF-8" standalone="no"?>
<!DOCTYPE svg PUBLIC "-//W3C//DTD SVG 1.1//EN"
 "http://www.w3.org/Graphics/SVG/1.1/DTD/svg11.dtd">
<!-- Generated by graphviz version 2.47.0 (20210316.0004)
 -->
<!-- Title: dependencies Pages: 1 -->
<svg width="3708pt" height="211pt"
 viewBox="0.00 0.00 3708.00 211.00" xmlns="http://www.w3.org/2000/svg" xmlns:xlink="http://www.w3.org/1999/xlink">
<g id="graph0" class="graph" transform="scale(1 1) rotate(0) translate(4 207)">
<title>dependencies</title>
<polygon fill="white" stroke="transparent" points="-4,4 -4,-207 3704,-207 3704,4 -4,4"/>
<text text-anchor="start" x="1829.01" y="-42.4" font-family="Times-12" font-weight="bold" font-size="14.00">Legend</text>
<polygon fill="#ffffb3" stroke="transparent" points="1616,-10 1616,-30 1636,-30 1636,-10 1616,-10"/>
<text text-anchor="start" x="1639.63" y="-15.4" font-family="Times-12" font-size="14.00"> &#160;Declarations</text>
<polygon fill="#8dd3c7" stroke="transparent" points="1729,-10 1729,-30 1749,-30 1749,-10 1729,-10"/>
<text text-anchor="start" x="1752.73" y="-15.4" font-family="Times-12" font-size="14.00"> &#160;Module</text>
<polygon fill="#80b1d3" stroke="transparent" points="1815,-10 1815,-30 1835,-30 1835,-10 1815,-10"/>
<text text-anchor="start" x="1838.78" y="-15.4" font-family="Times-12" font-size="14.00"> &#160;Bootstrap</text>
<polygon fill="#fdb462" stroke="transparent" points="1912,-10 1912,-30 1932,-30 1932,-10 1912,-10"/>
<text text-anchor="start" x="1935.67" y="-15.4" font-family="Times-12" font-size="14.00"> &#160;Providers</text>
<polygon fill="#fb8072" stroke="transparent" points="2008,-10 2008,-30 2028,-30 2028,-10 2008,-10"/>
<text text-anchor="start" x="2031.73" y="-15.4" font-family="Times-12" font-size="14.00"> &#160;Exports</text>
<g id="clust1" class="cluster">
<title>cluster_ServerTestModule</title>
<polygon fill="none" stroke="black" stroke-dasharray="1,5" points="8,-70 8,-195 3692,-195 3692,-70 8,-70"/>
</g>
<g id="clust3" class="cluster">
<title>cluster_ServerTestModule_imports</title>
<polygon fill="none" stroke="black" points="16,-78 16,-130 3684,-130 3684,-78 16,-78"/>
</g>
<!-- AccountApiModule -->
<g id="node1" class="node">
<title>AccountApiModule</title>
<polygon fill="#8dd3c7" stroke="black" points="3675.97,-122 3672.97,-126 3651.97,-126 3648.97,-122 3548.03,-122 3548.03,-86 3675.97,-86 3675.97,-122"/>
<text text-anchor="middle" x="3612" y="-99.8" font-family="Times,serif" font-size="14.00">AccountApiModule</text>
</g>
<!-- ServerTestModule -->
<g id="node25" class="node">
<title>ServerTestModule</title>
<polygon fill="#8dd3c7" stroke="black" points="1910.19,-187 1907.19,-191 1886.19,-191 1883.19,-187 1789.81,-187 1789.81,-151 1910.19,-151 1910.19,-187"/>
<text text-anchor="middle" x="1850" y="-164.8" font-family="Times,serif" font-size="14.00">ServerTestModule</text>
</g>
<!-- AccountApiModule&#45;&gt;ServerTestModule -->
<g id="edge1" class="edge">
<title>AccountApiModule&#45;&gt;ServerTestModule</title>
<path fill="none" stroke="black" d="M3612,-122.15C3612,-145.76 3612,-184 3612,-184 3612,-184 1920.14,-184 1920.14,-184"/>
<polygon fill="black" stroke="black" points="1920.14,-180.5 1910.14,-184 1920.14,-187.5 1920.14,-180.5"/>
</g>
<!-- AuthenticationApiModule -->
<g id="node2" class="node">
<title>AuthenticationApiModule</title>
<polygon fill="#8dd3c7" stroke="black" points="3529.75,-122 3526.75,-126 3505.75,-126 3502.75,-122 3366.25,-122 3366.25,-86 3529.75,-86 3529.75,-122"/>
<text text-anchor="middle" x="3448" y="-99.8" font-family="Times,serif" font-size="14.00">AuthenticationApiModule</text>
</g>
<!-- AuthenticationApiModule&#45;&gt;ServerTestModule -->
<g id="edge2" class="edge">
<title>AuthenticationApiModule&#45;&gt;ServerTestModule</title>
<path fill="none" stroke="black" d="M3448,-122.09C3448,-145.13 3448,-182 3448,-182 3448,-182 1920.21,-182 1920.21,-182"/>
<polygon fill="black" stroke="black" points="1920.21,-178.5 1910.21,-182 1920.21,-185.5 1920.21,-178.5"/>
</g>
<!-- BoardApiModule -->
<g id="node3" class="node">
<title>BoardApiModule</title>
<polygon fill="#8dd3c7" stroke="black" points="3348.26,-122 3345.26,-126 3324.26,-126 3321.26,-122 3233.74,-122 3233.74,-86 3348.26,-86 3348.26,-122"/>
<text text-anchor="middle" x="3291" y="-99.8" font-family="Times,serif" font-size="14.00">BoardApiModule</text>
</g>
<!-- BoardApiModule&#45;&gt;ServerTestModule -->
<g id="edge3" class="edge">
<title>BoardApiModule&#45;&gt;ServerTestModule</title>
<path fill="none" stroke="black" d="M3291,-122.29C3291,-144.21 3291,-178 3291,-178 3291,-178 1920.54,-178 1920.54,-178"/>
<polygon fill="black" stroke="black" points="1920.54,-174.5 1910.54,-178 1920.54,-181.5 1920.54,-174.5"/>
</g>
<!-- CollaborativeStorageModule -->
<g id="node4" class="node">
<title>CollaborativeStorageModule</title>
<polygon fill="#8dd3c7" stroke="black" points="3215.02,-122 3212.02,-126 3191.02,-126 3188.02,-122 3036.98,-122 3036.98,-86 3215.02,-86 3215.02,-122"/>
<text text-anchor="middle" x="3126" y="-99.8" font-family="Times,serif" font-size="14.00">CollaborativeStorageModule</text>
</g>
<!-- CollaborativeStorageModule&#45;&gt;ServerTestModule -->
<g id="edge4" class="edge">
<title>CollaborativeStorageModule&#45;&gt;ServerTestModule</title>
<path fill="none" stroke="black" d="M3126,-122.28C3126,-143.32 3126,-175 3126,-175 3126,-175 1920.26,-175 1920.26,-175"/>
<polygon fill="black" stroke="black" points="1920.26,-171.5 1910.26,-175 1920.26,-178.5 1920.26,-171.5"/>
</g>
<!-- CoreModule -->
<g id="node5" class="node">
<title>CoreModule</title>
<polygon fill="#8dd3c7" stroke="black" points="3018.26,-122 3015.26,-126 2994.26,-126 2991.26,-122 2931.74,-122 2931.74,-86 3018.26,-86 3018.26,-122"/>
<text text-anchor="middle" x="2975" y="-99.8" font-family="Times,serif" font-size="14.00">CoreModule</text>
</g>
<!-- CoreModule&#45;&gt;ServerTestModule -->
<g id="edge5" class="edge">
<title>CoreModule&#45;&gt;ServerTestModule</title>
<path fill="none" stroke="black" d="M2975,-122.22C2975,-142.37 2975,-172 2975,-172 2975,-172 1920.48,-172 1920.48,-172"/>
<polygon fill="black" stroke="black" points="1920.48,-168.5 1910.48,-172 1920.48,-175.5 1920.48,-168.5"/>
</g>
<!-- FilesStorageClientModule -->
<g id="node6" class="node">
<title>FilesStorageClientModule</title>
<polygon fill="#8dd3c7" stroke="black" points="2913.76,-122 2910.76,-126 2889.76,-126 2886.76,-122 2750.24,-122 2750.24,-86 2913.76,-86 2913.76,-122"/>
<text text-anchor="middle" x="2832" y="-99.8" font-family="Times,serif" font-size="14.00">FilesStorageClientModule</text>
</g>
<!-- FilesStorageClientModule&#45;&gt;ServerTestModule -->
<g id="edge6" class="edge">
<title>FilesStorageClientModule&#45;&gt;ServerTestModule</title>
<path fill="none" stroke="black" d="M2832,-122.11C2832,-141.34 2832,-169 2832,-169 2832,-169 1920.32,-169 1920.32,-169"/>
<polygon fill="black" stroke="black" points="1920.32,-165.5 1910.32,-169 1920.32,-172.5 1920.32,-165.5"/>
</g>
<!-- ImportUserModule -->
<g id="node7" class="node">
<title>ImportUserModule</title>
<polygon fill="#8dd3c7" stroke="black" points="2732.08,-122 2729.08,-126 2708.08,-126 2705.08,-122 2607.92,-122 2607.92,-86 2732.08,-86 2732.08,-122"/>
<text text-anchor="middle" x="2670" y="-99.8" font-family="Times,serif" font-size="14.00">ImportUserModule</text>
</g>
<!-- ImportUserModule&#45;&gt;ServerTestModule -->
<g id="edge7" class="edge">
<title>ImportUserModule&#45;&gt;ServerTestModule</title>
<path fill="none" stroke="black" d="M2670,-122.22C2670,-140.83 2670,-167 2670,-167 2670,-167 1920.3,-167 1920.3,-167"/>
<polygon fill="black" stroke="black" points="1920.3,-163.5 1910.3,-167 1920.3,-170.5 1920.3,-163.5"/>
</g>
<!-- LearnroomApiModule -->
<g id="node8" class="node">
<title>LearnroomApiModule</title>
<polygon fill="#8dd3c7" stroke="black" points="2590.24,-122 2587.24,-126 2566.24,-126 2563.24,-122 2447.76,-122 2447.76,-86 2590.24,-86 2590.24,-122"/>
<text text-anchor="middle" x="2519" y="-99.8" font-family="Times,serif" font-size="14.00">LearnroomApiModule</text>
</g>
<!-- LearnroomApiModule&#45;&gt;ServerTestModule -->
<g id="edge8" class="edge">
<title>LearnroomApiModule&#45;&gt;ServerTestModule</title>
<path fill="none" stroke="black" d="M2519,-122.02C2519,-139.37 2519,-163 2519,-163 2519,-163 1920.25,-163 1920.25,-163"/>
<polygon fill="black" stroke="black" points="1920.25,-159.5 1910.25,-163 1920.25,-166.5 1920.25,-159.5"/>
</g>
<!-- LessonApiModule -->
<g id="node9" class="node">
<title>LessonApiModule</title>
<polygon fill="#8dd3c7" stroke="black" points="2430.2,-122 2427.2,-126 2406.2,-126 2403.2,-122 2309.8,-122 2309.8,-86 2430.2,-86 2430.2,-122"/>
<text text-anchor="middle" x="2370" y="-99.8" font-family="Times,serif" font-size="14.00">LessonApiModule</text>
</g>
<!-- LessonApiModule&#45;&gt;ServerTestModule -->
<g id="edge9" class="edge">
<title>LessonApiModule&#45;&gt;ServerTestModule</title>
<path fill="none" stroke="black" d="M2370,-122.03C2370,-138.4 2370,-160 2370,-160 2370,-160 1920.16,-160 1920.16,-160"/>
<polygon fill="black" stroke="black" points="1920.16,-156.5 1910.16,-160 1920.16,-163.5 1920.16,-156.5"/>
</g>
<!-- LoggerModule -->
<g id="node10" class="node">
<title>LoggerModule</title>
<polygon fill="#8dd3c7" stroke="black" points="2291.98,-122 2288.98,-126 2267.98,-126 2264.98,-122 2192.02,-122 2192.02,-86 2291.98,-86 2291.98,-122"/>
<text text-anchor="middle" x="2242" y="-99.8" font-family="Times,serif" font-size="14.00">LoggerModule</text>
</g>
<!-- LoggerModule&#45;&gt;ServerTestModule -->
<g id="edge10" class="edge">
<title>LoggerModule&#45;&gt;ServerTestModule</title>
<path fill="none" stroke="black" d="M2242,-122.24C2242,-137.57 2242,-157 2242,-157 2242,-157 1920.39,-157 1920.39,-157"/>
<polygon fill="black" stroke="black" points="1920.39,-153.5 1910.39,-157 1920.39,-160.5 1920.39,-153.5"/>
</g>
<!-- MongoMemoryDatabaseModule -->
<g id="node11" class="node">
<title>MongoMemoryDatabaseModule</title>
<polygon fill="#8dd3c7" stroke="black" points="2173.51,-122 2170.51,-126 2149.51,-126 2146.51,-122 1974.49,-122 1974.49,-86 2173.51,-86 2173.51,-122"/>
<text text-anchor="middle" x="2074" y="-99.8" font-family="Times,serif" font-size="14.00">MongoMemoryDatabaseModule</text>
</g>
<!-- MongoMemoryDatabaseModule&#45;&gt;ServerTestModule -->
<g id="edge11" class="edge">
<title>MongoMemoryDatabaseModule&#45;&gt;ServerTestModule</title>
<path fill="none" stroke="black" d="M2074,-122.05C2074,-136.37 2074,-154 2074,-154 2074,-154 1920.32,-154 1920.32,-154"/>
<polygon fill="black" stroke="black" points="1920.32,-150.5 1910.32,-154 1920.32,-157.5 1920.32,-150.5"/>
</g>
<!-- NewsModule -->
<g id="node12" class="node">
<title>NewsModule</title>
<polygon fill="#8dd3c7" stroke="black" points="1956.92,-122 1953.92,-126 1932.92,-126 1929.92,-122 1865.08,-122 1865.08,-86 1956.92,-86 1956.92,-122"/>
<text text-anchor="middle" x="1911" y="-99.8" font-family="Times,serif" font-size="14.00">NewsModule</text>
</g>
<!-- NewsModule&#45;&gt;ServerTestModule -->
<g id="edge12" class="edge">
<title>NewsModule&#45;&gt;ServerTestModule</title>
<path fill="none" stroke="black" d="M1887.69,-122.11C1887.69,-122.11 1887.69,-140.99 1887.69,-140.99"/>
<polygon fill="black" stroke="black" points="1884.19,-140.99 1887.69,-150.99 1891.19,-140.99 1884.19,-140.99"/>
</g>
<!-- OauthApiModule -->
<g id="node13" class="node">
<title>OauthApiModule</title>
<polygon fill="#8dd3c7" stroke="black" points="1847.26,-122 1844.26,-126 1823.26,-126 1820.26,-122 1732.74,-122 1732.74,-86 1847.26,-86 1847.26,-122"/>
<text text-anchor="middle" x="1790" y="-99.8" font-family="Times,serif" font-size="14.00">OauthApiModule</text>
</g>
<!-- OauthApiModule&#45;&gt;ServerTestModule -->
<g id="edge13" class="edge">
<title>OauthApiModule&#45;&gt;ServerTestModule</title>
<path fill="none" stroke="black" d="M1818.64,-122.11C1818.64,-122.11 1818.64,-140.99 1818.64,-140.99"/>
<polygon fill="black" stroke="black" points="1815.14,-140.99 1818.64,-150.99 1822.14,-140.99 1815.14,-140.99"/>
</g>
<!-- OauthProviderApiModule -->
<g id="node14" class="node">
<title>OauthProviderApiModule</title>
<polygon fill="#8dd3c7" stroke="black" points="1714.47,-122 1711.47,-126 1690.47,-126 1687.47,-122 1551.53,-122 1551.53,-86 1714.47,-86 1714.47,-122"/>
<text text-anchor="middle" x="1633" y="-99.8" font-family="Times,serif" font-size="14.00">OauthProviderApiModule</text>
</g>
<!-- OauthProviderApiModule&#45;&gt;ServerTestModule -->
<g id="edge14" class="edge">
<title>OauthProviderApiModule&#45;&gt;ServerTestModule</title>
<path fill="none" stroke="black" d="M1633,-122.05C1633,-136.37 1633,-154 1633,-154 1633,-154 1779.84,-154 1779.84,-154"/>
<polygon fill="black" stroke="black" points="1779.84,-157.5 1789.84,-154 1779.84,-150.5 1779.84,-157.5"/>
</g>
<!-- RabbitMQWrapperTestModule -->
<g id="node15" class="node">
<title>RabbitMQWrapperTestModule</title>
<polygon fill="#8dd3c7" stroke="black" points="1533,-122 1530,-126 1509,-126 1506,-122 1341,-122 1341,-86 1533,-86 1533,-122"/>
<text text-anchor="middle" x="1437" y="-99.8" font-family="Times,serif" font-size="14.00">RabbitMQWrapperTestModule</text>
</g>
<!-- RabbitMQWrapperTestModule&#45;&gt;ServerTestModule -->
<g id="edge15" class="edge">
<title>RabbitMQWrapperTestModule&#45;&gt;ServerTestModule</title>
<path fill="none" stroke="black" d="M1437,-122.24C1437,-137.57 1437,-157 1437,-157 1437,-157 1779.5,-157 1779.5,-157"/>
<polygon fill="black" stroke="black" points="1779.5,-160.5 1789.5,-157 1779.5,-153.5 1779.5,-160.5"/>
</g>
<!-- RedisModule -->
<g id="node16" class="node">
<title>RedisModule</title>
<polygon fill="#8dd3c7" stroke="black" points="1322.94,-122 1319.94,-126 1298.94,-126 1295.94,-122 1231.06,-122 1231.06,-86 1322.94,-86 1322.94,-122"/>
<text text-anchor="middle" x="1277" y="-99.8" font-family="Times,serif" font-size="14.00">RedisModule</text>
</g>
<!-- RedisModule&#45;&gt;ServerTestModule -->
<g id="edge16" class="edge">
<title>RedisModule&#45;&gt;ServerTestModule</title>
<path fill="none" stroke="black" d="M1277,-122.03C1277,-138.4 1277,-160 1277,-160 1277,-160 1779.76,-160 1779.76,-160"/>
<polygon fill="black" stroke="black" points="1779.76,-163.5 1789.76,-160 1779.76,-156.5 1779.76,-163.5"/>
</g>
<!-- SchoolApiModule -->
<g id="node17" class="node">
<title>SchoolApiModule</title>
<polygon fill="#8dd3c7" stroke="black" points="1213.94,-122 1210.94,-126 1189.94,-126 1186.94,-122 1094.06,-122 1094.06,-86 1213.94,-86 1213.94,-122"/>
<text text-anchor="middle" x="1154" y="-99.8" font-family="Times,serif" font-size="14.00">SchoolApiModule</text>
</g>
<!-- SchoolApiModule&#45;&gt;ServerTestModule -->
<g id="edge17" class="edge">
<title>SchoolApiModule&#45;&gt;ServerTestModule</title>
<path fill="none" stroke="black" d="M1154,-122.02C1154,-139.37 1154,-163 1154,-163 1154,-163 1779.75,-163 1779.75,-163"/>
<polygon fill="black" stroke="black" points="1779.75,-166.5 1789.75,-163 1779.75,-159.5 1779.75,-166.5"/>
</g>
<!-- SharingApiModule -->
<g id="node18" class="node">
<title>SharingApiModule</title>
<polygon fill="#8dd3c7" stroke="black" points="1076.1,-122 1073.1,-126 1052.1,-126 1049.1,-122 951.9,-122 951.9,-86 1076.1,-86 1076.1,-122"/>
<text text-anchor="middle" x="1014" y="-99.8" font-family="Times,serif" font-size="14.00">SharingApiModule</text>
</g>
<!-- SharingApiModule&#45;&gt;ServerTestModule -->
<g id="edge18" class="edge">
<title>SharingApiModule&#45;&gt;ServerTestModule</title>
<path fill="none" stroke="black" d="M1014,-122.22C1014,-140.83 1014,-167 1014,-167 1014,-167 1779.88,-167 1779.88,-167"/>
<polygon fill="black" stroke="black" points="1779.88,-170.5 1789.88,-167 1779.88,-163.5 1779.88,-170.5"/>
</g>
<!-- SystemApiModule -->
<g id="node19" class="node">
<title>SystemApiModule</title>
<polygon fill="#8dd3c7" stroke="black" points="933.77,-122 930.77,-126 909.77,-126 906.77,-122 812.23,-122 812.23,-86 933.77,-86 933.77,-122"/>
<text text-anchor="middle" x="873" y="-99.8" font-family="Times,serif" font-size="14.00">SystemApiModule</text>
</g>
<!-- SystemApiModule&#45;&gt;ServerTestModule -->
<g id="edge19" class="edge">
<title>SystemApiModule&#45;&gt;ServerTestModule</title>
<path fill="none" stroke="black" d="M873,-122.11C873,-141.34 873,-169 873,-169 873,-169 1779.62,-169 1779.62,-169"/>
<polygon fill="black" stroke="black" points="1779.62,-172.5 1789.62,-169 1779.62,-165.5 1779.62,-172.5"/>
</g>
<!-- TaskApiModule -->
<g id="node20" class="node">
<title>TaskApiModule</title>
<polygon fill="#8dd3c7" stroke="black" points="793.76,-122 790.76,-126 769.76,-126 766.76,-122 686.24,-122 686.24,-86 793.76,-86 793.76,-122"/>
<text text-anchor="middle" x="740" y="-99.8" font-family="Times,serif" font-size="14.00">TaskApiModule</text>
</g>
<!-- TaskApiModule&#45;&gt;ServerTestModule -->
<g id="edge20" class="edge">
<title>TaskApiModule&#45;&gt;ServerTestModule</title>
<path fill="none" stroke="black" d="M740,-122.22C740,-142.37 740,-172 740,-172 740,-172 1779.53,-172 1779.53,-172"/>
<polygon fill="black" stroke="black" points="1779.53,-175.5 1789.53,-172 1779.53,-168.5 1779.53,-175.5"/>
</g>
<!-- ToolApiModule -->
<g id="node21" class="node">
<title>ToolApiModule</title>
<polygon fill="#8dd3c7" stroke="black" points="668.49,-122 665.49,-126 644.49,-126 641.49,-122 561.51,-122 561.51,-86 668.49,-86 668.49,-122"/>
<text text-anchor="middle" x="615" y="-99.8" font-family="Times,serif" font-size="14.00">ToolApiModule</text>
</g>
<!-- ToolApiModule&#45;&gt;ServerTestModule -->
<g id="edge21" class="edge">
<title>ToolApiModule&#45;&gt;ServerTestModule</title>
<path fill="none" stroke="black" d="M615,-122.28C615,-143.32 615,-175 615,-175 615,-175 1779.6,-175 1779.6,-175"/>
<polygon fill="black" stroke="black" points="1779.6,-178.5 1789.6,-175 1779.6,-171.5 1779.6,-178.5"/>
</g>
<!-- UserApiModule -->
<g id="node22" class="node">
<title>UserApiModule</title>
<polygon fill="#8dd3c7" stroke="black" points="543.47,-122 540.47,-126 519.47,-126 516.47,-122 436.53,-122 436.53,-86 543.47,-86 543.47,-122"/>
<text text-anchor="middle" x="490" y="-99.8" font-family="Times,serif" font-size="14.00">UserApiModule</text>
</g>
<!-- UserApiModule&#45;&gt;ServerTestModule -->
<g id="edge22" class="edge">
<title>UserApiModule&#45;&gt;ServerTestModule</title>
<path fill="none" stroke="black" d="M490,-122.29C490,-144.21 490,-178 490,-178 490,-178 1779.81,-178 1779.81,-178"/>
<polygon fill="black" stroke="black" points="1779.81,-181.5 1789.81,-178 1779.81,-174.5 1779.81,-181.5"/>
</g>
<!-- UserLoginMigrationApiModule -->
<g id="node23" class="node">
<title>UserLoginMigrationApiModule</title>
<polygon fill="#8dd3c7" stroke="black" points="418.41,-122 415.41,-126 394.41,-126 391.41,-122 221.59,-122 221.59,-86 418.41,-86 418.41,-122"/>
<text text-anchor="middle" x="320" y="-99.8" font-family="Times,serif" font-size="14.00">UserLoginMigrationApiModule</text>
</g>
<!-- UserLoginMigrationApiModule&#45;&gt;ServerTestModule -->
<g id="edge23" class="edge">
<title>UserLoginMigrationApiModule&#45;&gt;ServerTestModule</title>
<path fill="none" stroke="black" d="M320,-122.09C320,-145.13 320,-182 320,-182 320,-182 1779.55,-182 1779.55,-182"/>
<polygon fill="black" stroke="black" points="1779.55,-185.5 1789.55,-182 1779.55,-178.5 1779.55,-185.5"/>
</g>
<!-- VideoConferenceApiModule -->
<g id="node24" class="node">
<title>VideoConferenceApiModule</title>
<polygon fill="#8dd3c7" stroke="black" points="203.78,-122 200.78,-126 179.78,-126 176.78,-122 24.22,-122 24.22,-86 203.78,-86 203.78,-122"/>
<text text-anchor="middle" x="114" y="-99.8" font-family="Times,serif" font-size="14.00">VideoConferenceApiModule</text>
</g>
<!-- VideoConferenceApiModule&#45;&gt;ServerTestModule -->
<g id="edge24" class="edge">
<title>VideoConferenceApiModule&#45;&gt;ServerTestModule</title>
<path fill="none" stroke="black" d="M114,-122.15C114,-145.76 114,-184 114,-184 114,-184 1779.74,-184 1779.74,-184"/>
<polygon fill="black" stroke="black" points="1779.74,-187.5 1789.74,-184 1779.74,-180.5 1779.74,-187.5"/>
</g>
</g>
</svg>
