<?xml version="1.0" encoding="UTF-8" standalone="no"?>
<!DOCTYPE svg PUBLIC "-//W3C//DTD SVG 1.1//EN"
 "http://www.w3.org/Graphics/SVG/1.1/DTD/svg11.dtd">
<!-- Generated by graphviz version 2.47.0 (20210316.0004)
 -->
<!-- Title: dependencies Pages: 1 -->
<svg width="3978pt" height="211pt"
 viewBox="0.00 0.00 3978.00 211.00" xmlns="http://www.w3.org/2000/svg" xmlns:xlink="http://www.w3.org/1999/xlink">
<g id="graph0" class="graph" transform="scale(1 1) rotate(0) translate(4 207)">
<title>dependencies</title>
<polygon fill="white" stroke="transparent" points="-4,4 -4,-207 3974,-207 3974,4 -4,4"/>
<text text-anchor="start" x="1964.01" y="-42.4" font-family="Times-12" font-weight="bold" font-size="14.00">Legend</text>
<polygon fill="#ffffb3" stroke="transparent" points="1751,-10 1751,-30 1771,-30 1771,-10 1751,-10"/>
<text text-anchor="start" x="1774.63" y="-15.4" font-family="Times-12" font-size="14.00"> &#160;Declarations</text>
<polygon fill="#8dd3c7" stroke="transparent" points="1864,-10 1864,-30 1884,-30 1884,-10 1864,-10"/>
<text text-anchor="start" x="1887.73" y="-15.4" font-family="Times-12" font-size="14.00"> &#160;Module</text>
<polygon fill="#80b1d3" stroke="transparent" points="1950,-10 1950,-30 1970,-30 1970,-10 1950,-10"/>
<text text-anchor="start" x="1973.78" y="-15.4" font-family="Times-12" font-size="14.00"> &#160;Bootstrap</text>
<polygon fill="#fdb462" stroke="transparent" points="2047,-10 2047,-30 2067,-30 2067,-10 2047,-10"/>
<text text-anchor="start" x="2070.67" y="-15.4" font-family="Times-12" font-size="14.00"> &#160;Providers</text>
<polygon fill="#fb8072" stroke="transparent" points="2143,-10 2143,-30 2163,-30 2163,-10 2143,-10"/>
<text text-anchor="start" x="2166.73" y="-15.4" font-family="Times-12" font-size="14.00"> &#160;Exports</text>
<g id="clust1" class="cluster">
<title>cluster_ServerTestModule</title>
<polygon fill="none" stroke="black" stroke-dasharray="1,5" points="8,-70 8,-195 3962,-195 3962,-70 8,-70"/>
</g>
<g id="clust3" class="cluster">
<title>cluster_ServerTestModule_imports</title>
<polygon fill="none" stroke="black" points="16,-78 16,-130 3954,-130 3954,-78 16,-78"/>
</g>
<!-- AccountApiModule -->
<g id="node1" class="node">
<title>AccountApiModule</title>
<polygon fill="#8dd3c7" stroke="black" points="3945.97,-122 3942.97,-126 3921.97,-126 3918.97,-122 3818.03,-122 3818.03,-86 3945.97,-86 3945.97,-122"/>
<text text-anchor="middle" x="3882" y="-99.8" font-family="Times,serif" font-size="14.00">AccountApiModule</text>
</g>
<!-- ServerTestModule -->
<g id="node27" class="node">
<title>ServerTestModule</title>
<polygon fill="#8dd3c7" stroke="black" points="2046.19,-187 2043.19,-191 2022.19,-191 2019.19,-187 1925.81,-187 1925.81,-151 2046.19,-151 2046.19,-187"/>
<text text-anchor="middle" x="1986" y="-164.8" font-family="Times,serif" font-size="14.00">ServerTestModule</text>
</g>
<!-- AccountApiModule&#45;&gt;ServerTestModule -->
<g id="edge1" class="edge">
<title>AccountApiModule&#45;&gt;ServerTestModule</title>
<path fill="none" stroke="black" d="M3882,-122.38C3882,-146.28 3882,-185 3882,-185 3882,-185 2056.14,-185 2056.14,-185"/>
<polygon fill="black" stroke="black" points="2056.14,-181.5 2046.14,-185 2056.14,-188.5 2056.14,-181.5"/>
</g>
<!-- AuthenticationApiModule -->
<g id="node2" class="node">
<title>AuthenticationApiModule</title>
<polygon fill="#8dd3c7" stroke="black" points="3799.75,-122 3796.75,-126 3775.75,-126 3772.75,-122 3636.25,-122 3636.25,-86 3799.75,-86 3799.75,-122"/>
<text text-anchor="middle" x="3718" y="-99.8" font-family="Times,serif" font-size="14.00">AuthenticationApiModule</text>
</g>
<!-- AuthenticationApiModule&#45;&gt;ServerTestModule -->
<g id="edge2" class="edge">
<title>AuthenticationApiModule&#45;&gt;ServerTestModule</title>
<path fill="none" stroke="black" d="M3718,-122.09C3718,-145.13 3718,-182 3718,-182 3718,-182 2056.12,-182 2056.12,-182"/>
<polygon fill="black" stroke="black" points="2056.12,-178.5 2046.12,-182 2056.12,-185.5 2056.12,-178.5"/>
</g>
<!-- BoardApiModule -->
<g id="node3" class="node">
<title>BoardApiModule</title>
<polygon fill="#8dd3c7" stroke="black" points="3618.26,-122 3615.26,-126 3594.26,-126 3591.26,-122 3503.74,-122 3503.74,-86 3618.26,-86 3618.26,-122"/>
<text text-anchor="middle" x="3561" y="-99.8" font-family="Times,serif" font-size="14.00">BoardApiModule</text>
</g>
<!-- BoardApiModule&#45;&gt;ServerTestModule -->
<g id="edge3" class="edge">
<title>BoardApiModule&#45;&gt;ServerTestModule</title>
<path fill="none" stroke="black" d="M3561,-122.16C3561,-144.35 3561,-179 3561,-179 3561,-179 2056.3,-179 2056.3,-179"/>
<polygon fill="black" stroke="black" points="2056.3,-175.5 2046.3,-179 2056.3,-182.5 2056.3,-175.5"/>
</g>
<!-- CollaborativeStorageModule -->
<g id="node4" class="node">
<title>CollaborativeStorageModule</title>
<polygon fill="#8dd3c7" stroke="black" points="3485.02,-122 3482.02,-126 3461.02,-126 3458.02,-122 3306.98,-122 3306.98,-86 3485.02,-86 3485.02,-122"/>
<text text-anchor="middle" x="3396" y="-99.8" font-family="Times,serif" font-size="14.00">CollaborativeStorageModule</text>
</g>
<!-- CollaborativeStorageModule&#45;&gt;ServerTestModule -->
<g id="edge4" class="edge">
<title>CollaborativeStorageModule&#45;&gt;ServerTestModule</title>
<path fill="none" stroke="black" d="M3396,-122.17C3396,-143.5 3396,-176 3396,-176 3396,-176 2056.13,-176 2056.13,-176"/>
<polygon fill="black" stroke="black" points="2056.13,-172.5 2046.13,-176 2056.13,-179.5 2056.13,-172.5"/>
</g>
<!-- CoreModule -->
<g id="node5" class="node">
<title>CoreModule</title>
<polygon fill="#8dd3c7" stroke="black" points="3288.26,-122 3285.26,-126 3264.26,-126 3261.26,-122 3201.74,-122 3201.74,-86 3288.26,-86 3288.26,-122"/>
<text text-anchor="middle" x="3245" y="-99.8" font-family="Times,serif" font-size="14.00">CoreModule</text>
</g>
<!-- CoreModule&#45;&gt;ServerTestModule -->
<g id="edge5" class="edge">
<title>CoreModule&#45;&gt;ServerTestModule</title>
<path fill="none" stroke="black" d="M3245,-122.03C3245,-142.77 3245,-174 3245,-174 3245,-174 2056.3,-174 2056.3,-174"/>
<polygon fill="black" stroke="black" points="2056.3,-170.5 2046.3,-174 2056.3,-177.5 2056.3,-170.5"/>
</g>
<!-- FilesStorageClientModule -->
<g id="node6" class="node">
<title>FilesStorageClientModule</title>
<polygon fill="#8dd3c7" stroke="black" points="3183.76,-122 3180.76,-126 3159.76,-126 3156.76,-122 3020.24,-122 3020.24,-86 3183.76,-86 3183.76,-122"/>
<text text-anchor="middle" x="3102" y="-99.8" font-family="Times,serif" font-size="14.00">FilesStorageClientModule</text>
</g>
<!-- FilesStorageClientModule&#45;&gt;ServerTestModule -->
<g id="edge6" class="edge">
<title>FilesStorageClientModule&#45;&gt;ServerTestModule</title>
<path fill="none" stroke="black" d="M3102,-122.31C3102,-142.15 3102,-171 3102,-171 3102,-171 2056.4,-171 2056.4,-171"/>
<polygon fill="black" stroke="black" points="2056.4,-167.5 2046.4,-171 2056.4,-174.5 2056.4,-167.5"/>
</g>
<!-- GroupApiModule -->
<g id="node7" class="node">
<title>GroupApiModule</title>
<polygon fill="#8dd3c7" stroke="black" points="3002.31,-122 2999.31,-126 2978.31,-126 2975.31,-122 2885.69,-122 2885.69,-86 3002.31,-86 3002.31,-122"/>
<text text-anchor="middle" x="2944" y="-99.8" font-family="Times,serif" font-size="14.00">GroupApiModule</text>
</g>
<!-- GroupApiModule&#45;&gt;ServerTestModule -->
<g id="edge7" class="edge">
<title>GroupApiModule&#45;&gt;ServerTestModule</title>
<path fill="none" stroke="black" d="M2944,-122.17C2944,-141.09 2944,-168 2944,-168 2944,-168 2056.29,-168 2056.29,-168"/>
<polygon fill="black" stroke="black" points="2056.29,-164.5 2046.29,-168 2056.29,-171.5 2056.29,-164.5"/>
</g>
<!-- ImportUserModule -->
<g id="node8" class="node">
<title>ImportUserModule</title>
<polygon fill="#8dd3c7" stroke="black" points="2868.08,-122 2865.08,-126 2844.08,-126 2841.08,-122 2743.92,-122 2743.92,-86 2868.08,-86 2868.08,-122"/>
<text text-anchor="middle" x="2806" y="-99.8" font-family="Times,serif" font-size="14.00">ImportUserModule</text>
</g>
<!-- ImportUserModule&#45;&gt;ServerTestModule -->
<g id="edge8" class="edge">
<title>ImportUserModule&#45;&gt;ServerTestModule</title>
<path fill="none" stroke="black" d="M2806,-122.3C2806,-140.27 2806,-165 2806,-165 2806,-165 2056.3,-165 2056.3,-165"/>
<polygon fill="black" stroke="black" points="2056.3,-161.5 2046.3,-165 2056.3,-168.5 2056.3,-161.5"/>
</g>
<!-- LearnroomApiModule -->
<g id="node9" class="node">
<title>LearnroomApiModule</title>
<polygon fill="#8dd3c7" stroke="black" points="2726.24,-122 2723.24,-126 2702.24,-126 2699.24,-122 2583.76,-122 2583.76,-86 2726.24,-86 2726.24,-122"/>
<text text-anchor="middle" x="2655" y="-99.8" font-family="Times,serif" font-size="14.00">LearnroomApiModule</text>
</g>
<!-- LearnroomApiModule&#45;&gt;ServerTestModule -->
<g id="edge9" class="edge">
<title>LearnroomApiModule&#45;&gt;ServerTestModule</title>
<path fill="none" stroke="black" d="M2655,-122.02C2655,-139.37 2655,-163 2655,-163 2655,-163 2056.25,-163 2056.25,-163"/>
<polygon fill="black" stroke="black" points="2056.25,-159.5 2046.25,-163 2056.25,-166.5 2056.25,-159.5"/>
</g>
<!-- LessonApiModule -->
<g id="node10" class="node">
<title>LessonApiModule</title>
<polygon fill="#8dd3c7" stroke="black" points="2566.2,-122 2563.2,-126 2542.2,-126 2539.2,-122 2445.8,-122 2445.8,-86 2566.2,-86 2566.2,-122"/>
<text text-anchor="middle" x="2506" y="-99.8" font-family="Times,serif" font-size="14.00">LessonApiModule</text>
</g>
<!-- LessonApiModule&#45;&gt;ServerTestModule -->
<g id="edge10" class="edge">
<title>LessonApiModule&#45;&gt;ServerTestModule</title>
<path fill="none" stroke="black" d="M2506,-122.03C2506,-138.4 2506,-160 2506,-160 2506,-160 2056.16,-160 2056.16,-160"/>
<polygon fill="black" stroke="black" points="2056.16,-156.5 2046.16,-160 2056.16,-163.5 2056.16,-156.5"/>
</g>
<!-- LoggerModule -->
<g id="node11" class="node">
<title>LoggerModule</title>
<polygon fill="#8dd3c7" stroke="black" points="2427.98,-122 2424.98,-126 2403.98,-126 2400.98,-122 2328.02,-122 2328.02,-86 2427.98,-86 2427.98,-122"/>
<text text-anchor="middle" x="2378" y="-99.8" font-family="Times,serif" font-size="14.00">LoggerModule</text>
</g>
<!-- LoggerModule&#45;&gt;ServerTestModule -->
<g id="edge11" class="edge">
<title>LoggerModule&#45;&gt;ServerTestModule</title>
<path fill="none" stroke="black" d="M2378,-122.24C2378,-137.57 2378,-157 2378,-157 2378,-157 2056.39,-157 2056.39,-157"/>
<polygon fill="black" stroke="black" points="2056.39,-153.5 2046.39,-157 2056.39,-160.5 2056.39,-153.5"/>
</g>
<!-- MongoMemoryDatabaseModule -->
<g id="node12" class="node">
<title>MongoMemoryDatabaseModule</title>
<polygon fill="#8dd3c7" stroke="black" points="2309.51,-122 2306.51,-126 2285.51,-126 2282.51,-122 2110.49,-122 2110.49,-86 2309.51,-86 2309.51,-122"/>
<text text-anchor="middle" x="2210" y="-99.8" font-family="Times,serif" font-size="14.00">MongoMemoryDatabaseModule</text>
</g>
<!-- MongoMemoryDatabaseModule&#45;&gt;ServerTestModule -->
<g id="edge12" class="edge">
<title>MongoMemoryDatabaseModule&#45;&gt;ServerTestModule</title>
<path fill="none" stroke="black" d="M2210,-122.05C2210,-136.37 2210,-154 2210,-154 2210,-154 2056.32,-154 2056.32,-154"/>
<polygon fill="black" stroke="black" points="2056.32,-150.5 2046.32,-154 2056.32,-157.5 2056.32,-150.5"/>
</g>
<!-- NewsModule -->
<g id="node13" class="node">
<title>NewsModule</title>
<polygon fill="#8dd3c7" stroke="black" points="2092.92,-122 2089.92,-126 2068.92,-126 2065.92,-122 2001.08,-122 2001.08,-86 2092.92,-86 2092.92,-122"/>
<text text-anchor="middle" x="2047" y="-99.8" font-family="Times,serif" font-size="14.00">NewsModule</text>
</g>
<!-- NewsModule&#45;&gt;ServerTestModule -->
<g id="edge13" class="edge">
<title>NewsModule&#45;&gt;ServerTestModule</title>
<path fill="none" stroke="black" d="M2023.69,-122.11C2023.69,-122.11 2023.69,-140.99 2023.69,-140.99"/>
<polygon fill="black" stroke="black" points="2020.19,-140.99 2023.69,-150.99 2027.19,-140.99 2020.19,-140.99"/>
</g>
<!-- OauthApiModule -->
<g id="node14" class="node">
<title>OauthApiModule</title>
<polygon fill="#8dd3c7" stroke="black" points="1983.26,-122 1980.26,-126 1959.26,-126 1956.26,-122 1868.74,-122 1868.74,-86 1983.26,-86 1983.26,-122"/>
<text text-anchor="middle" x="1926" y="-99.8" font-family="Times,serif" font-size="14.00">OauthApiModule</text>
</g>
<!-- OauthApiModule&#45;&gt;ServerTestModule -->
<g id="edge14" class="edge">
<title>OauthApiModule&#45;&gt;ServerTestModule</title>
<path fill="none" stroke="black" d="M1954.64,-122.11C1954.64,-122.11 1954.64,-140.99 1954.64,-140.99"/>
<polygon fill="black" stroke="black" points="1951.14,-140.99 1954.64,-150.99 1958.14,-140.99 1951.14,-140.99"/>
</g>
<!-- OauthProviderApiModule -->
<g id="node15" class="node">
<title>OauthProviderApiModule</title>
<polygon fill="#8dd3c7" stroke="black" points="1850.47,-122 1847.47,-126 1826.47,-126 1823.47,-122 1687.53,-122 1687.53,-86 1850.47,-86 1850.47,-122"/>
<text text-anchor="middle" x="1769" y="-99.8" font-family="Times,serif" font-size="14.00">OauthProviderApiModule</text>
</g>
<!-- OauthProviderApiModule&#45;&gt;ServerTestModule -->
<g id="edge15" class="edge">
<title>OauthProviderApiModule&#45;&gt;ServerTestModule</title>
<path fill="none" stroke="black" d="M1769,-122.05C1769,-136.37 1769,-154 1769,-154 1769,-154 1915.84,-154 1915.84,-154"/>
<polygon fill="black" stroke="black" points="1915.84,-157.5 1925.84,-154 1915.84,-150.5 1915.84,-157.5"/>
</g>
<!-- RabbitMQWrapperTestModule -->
<g id="node16" class="node">
<title>RabbitMQWrapperTestModule</title>
<polygon fill="#8dd3c7" stroke="black" points="1669,-122 1666,-126 1645,-126 1642,-122 1477,-122 1477,-86 1669,-86 1669,-122"/>
<text text-anchor="middle" x="1573" y="-99.8" font-family="Times,serif" font-size="14.00">RabbitMQWrapperTestModule</text>
</g>
<!-- RabbitMQWrapperTestModule&#45;&gt;ServerTestModule -->
<g id="edge16" class="edge">
<title>RabbitMQWrapperTestModule&#45;&gt;ServerTestModule</title>
<path fill="none" stroke="black" d="M1573,-122.24C1573,-137.57 1573,-157 1573,-157 1573,-157 1915.5,-157 1915.5,-157"/>
<polygon fill="black" stroke="black" points="1915.5,-160.5 1925.5,-157 1915.5,-153.5 1915.5,-160.5"/>
</g>
<!-- RedisModule -->
<g id="node17" class="node">
<title>RedisModule</title>
<polygon fill="#8dd3c7" stroke="black" points="1458.94,-122 1455.94,-126 1434.94,-126 1431.94,-122 1367.06,-122 1367.06,-86 1458.94,-86 1458.94,-122"/>
<text text-anchor="middle" x="1413" y="-99.8" font-family="Times,serif" font-size="14.00">RedisModule</text>
</g>
<!-- RedisModule&#45;&gt;ServerTestModule -->
<g id="edge17" class="edge">
<title>RedisModule&#45;&gt;ServerTestModule</title>
<path fill="none" stroke="black" d="M1413,-122.03C1413,-138.4 1413,-160 1413,-160 1413,-160 1915.76,-160 1915.76,-160"/>
<polygon fill="black" stroke="black" points="1915.76,-163.5 1925.76,-160 1915.76,-156.5 1915.76,-163.5"/>
</g>
<!-- SchoolApiModule -->
<g id="node18" class="node">
<title>SchoolApiModule</title>
<polygon fill="#8dd3c7" stroke="black" points="1349.94,-122 1346.94,-126 1325.94,-126 1322.94,-122 1230.06,-122 1230.06,-86 1349.94,-86 1349.94,-122"/>
<text text-anchor="middle" x="1290" y="-99.8" font-family="Times,serif" font-size="14.00">SchoolApiModule</text>
</g>
<!-- SchoolApiModule&#45;&gt;ServerTestModule -->
<g id="edge18" class="edge">
<title>SchoolApiModule&#45;&gt;ServerTestModule</title>
<path fill="none" stroke="black" d="M1290,-122.02C1290,-139.37 1290,-163 1290,-163 1290,-163 1915.75,-163 1915.75,-163"/>
<polygon fill="black" stroke="black" points="1915.75,-166.5 1925.75,-163 1915.75,-159.5 1915.75,-166.5"/>
</g>
<!-- SharingApiModule -->
<g id="node19" class="node">
<title>SharingApiModule</title>
<polygon fill="#8dd3c7" stroke="black" points="1212.1,-122 1209.1,-126 1188.1,-126 1185.1,-122 1087.9,-122 1087.9,-86 1212.1,-86 1212.1,-122"/>
<text text-anchor="middle" x="1150" y="-99.8" font-family="Times,serif" font-size="14.00">SharingApiModule</text>
</g>
<!-- SharingApiModule&#45;&gt;ServerTestModule -->
<g id="edge19" class="edge">
<title>SharingApiModule&#45;&gt;ServerTestModule</title>
<path fill="none" stroke="black" d="M1150,-122.3C1150,-140.27 1150,-165 1150,-165 1150,-165 1915.88,-165 1915.88,-165"/>
<polygon fill="black" stroke="black" points="1915.88,-168.5 1925.88,-165 1915.88,-161.5 1915.88,-168.5"/>
</g>
<!-- SystemApiModule -->
<g id="node20" class="node">
<title>SystemApiModule</title>
<polygon fill="#8dd3c7" stroke="black" points="1069.77,-122 1066.77,-126 1045.77,-126 1042.77,-122 948.23,-122 948.23,-86 1069.77,-86 1069.77,-122"/>
<text text-anchor="middle" x="1009" y="-99.8" font-family="Times,serif" font-size="14.00">SystemApiModule</text>
</g>
<!-- SystemApiModule&#45;&gt;ServerTestModule -->
<g id="edge20" class="edge">
<title>SystemApiModule&#45;&gt;ServerTestModule</title>
<path fill="none" stroke="black" d="M1009,-122.17C1009,-141.09 1009,-168 1009,-168 1009,-168 1915.62,-168 1915.62,-168"/>
<polygon fill="black" stroke="black" points="1915.62,-171.5 1925.62,-168 1915.62,-164.5 1915.62,-171.5"/>
</g>
<!-- TaskApiModule -->
<g id="node21" class="node">
<title>TaskApiModule</title>
<polygon fill="#8dd3c7" stroke="black" points="929.76,-122 926.76,-126 905.76,-126 902.76,-122 822.24,-122 822.24,-86 929.76,-86 929.76,-122"/>
<text text-anchor="middle" x="876" y="-99.8" font-family="Times,serif" font-size="14.00">TaskApiModule</text>
</g>
<!-- TaskApiModule&#45;&gt;ServerTestModule -->
<g id="edge21" class="edge">
<title>TaskApiModule&#45;&gt;ServerTestModule</title>
<path fill="none" stroke="black" d="M876,-122.31C876,-142.15 876,-171 876,-171 876,-171 1915.53,-171 1915.53,-171"/>
<polygon fill="black" stroke="black" points="1915.53,-174.5 1925.53,-171 1915.53,-167.5 1915.53,-174.5"/>
</g>
<!-- TeamsApiModule -->
<g id="node22" class="node">
<title>TeamsApiModule</title>
<polygon fill="#8dd3c7" stroke="black" points="803.86,-122 800.86,-126 779.86,-126 776.86,-122 686.14,-122 686.14,-86 803.86,-86 803.86,-122"/>
<text text-anchor="middle" x="745" y="-99.8" font-family="Times,serif" font-size="14.00">TeamsApiModule</text>
</g>
<!-- TeamsApiModule&#45;&gt;ServerTestModule -->
<g id="edge22" class="edge">
<title>TeamsApiModule&#45;&gt;ServerTestModule</title>
<path fill="none" stroke="black" d="M745,-122.03C745,-142.77 745,-174 745,-174 745,-174 1915.72,-174 1915.72,-174"/>
<polygon fill="black" stroke="black" points="1915.72,-177.5 1925.72,-174 1915.72,-170.5 1915.72,-177.5"/>
</g>
<!-- ToolApiModule -->
<g id="node23" class="node">
<title>ToolApiModule</title>
<polygon fill="#8dd3c7" stroke="black" points="668.49,-122 665.49,-126 644.49,-126 641.49,-122 561.51,-122 561.51,-86 668.49,-86 668.49,-122"/>
<text text-anchor="middle" x="615" y="-99.8" font-family="Times,serif" font-size="14.00">ToolApiModule</text>
</g>
<!-- ToolApiModule&#45;&gt;ServerTestModule -->
<g id="edge23" class="edge">
<title>ToolApiModule&#45;&gt;ServerTestModule</title>
<path fill="none" stroke="black" d="M615,-122.17C615,-143.5 615,-176 615,-176 615,-176 1915.77,-176 1915.77,-176"/>
<polygon fill="black" stroke="black" points="1915.77,-179.5 1925.77,-176 1915.77,-172.5 1915.77,-179.5"/>
</g>
<!-- UserApiModule -->
<g id="node24" class="node">
<title>UserApiModule</title>
<polygon fill="#8dd3c7" stroke="black" points="543.47,-122 540.47,-126 519.47,-126 516.47,-122 436.53,-122 436.53,-86 543.47,-86 543.47,-122"/>
<text text-anchor="middle" x="490" y="-99.8" font-family="Times,serif" font-size="14.00">UserApiModule</text>
</g>
<!-- UserApiModule&#45;&gt;ServerTestModule -->
<g id="edge24" class="edge">
<title>UserApiModule&#45;&gt;ServerTestModule</title>
<path fill="none" stroke="black" d="M490,-122.16C490,-144.35 490,-179 490,-179 490,-179 1915.5,-179 1915.5,-179"/>
<polygon fill="black" stroke="black" points="1915.5,-182.5 1925.5,-179 1915.5,-175.5 1915.5,-182.5"/>
</g>
<!-- UserLoginMigrationApiModule -->
<g id="node25" class="node">
<title>UserLoginMigrationApiModule</title>
<polygon fill="#8dd3c7" stroke="black" points="418.41,-122 415.41,-126 394.41,-126 391.41,-122 221.59,-122 221.59,-86 418.41,-86 418.41,-122"/>
<text text-anchor="middle" x="320" y="-99.8" font-family="Times,serif" font-size="14.00">UserLoginMigrationApiModule</text>
</g>
<!-- UserLoginMigrationApiModule&#45;&gt;ServerTestModule -->
<g id="edge25" class="edge">
<title>UserLoginMigrationApiModule&#45;&gt;ServerTestModule</title>
<path fill="none" stroke="black" d="M320,-122.09C320,-145.13 320,-182 320,-182 320,-182 1915.72,-182 1915.72,-182"/>
<polygon fill="black" stroke="black" points="1915.72,-185.5 1925.72,-182 1915.72,-178.5 1915.72,-185.5"/>
</g>
<!-- VideoConferenceApiModule -->
<g id="node26" class="node">
<title>VideoConferenceApiModule</title>
<polygon fill="#8dd3c7" stroke="black" points="203.78,-122 200.78,-126 179.78,-126 176.78,-122 24.22,-122 24.22,-86 203.78,-86 203.78,-122"/>
<text text-anchor="middle" x="114" y="-99.8" font-family="Times,serif" font-size="14.00">VideoConferenceApiModule</text>
</g>
<!-- VideoConferenceApiModule&#45;&gt;ServerTestModule -->
<g id="edge26" class="edge">
<title>VideoConferenceApiModule&#45;&gt;ServerTestModule</title>
<path fill="none" stroke="black" d="M114,-122.38C114,-146.28 114,-185 114,-185 114,-185 1915.84,-185 1915.84,-185"/>
<polygon fill="black" stroke="black" points="1915.84,-188.5 1925.84,-185 1915.84,-181.5 1915.84,-188.5"/>
</g>
</g>
</svg>
