<?xml version="1.0" encoding="UTF-8" standalone="no"?>
<!DOCTYPE svg PUBLIC "-//W3C//DTD SVG 1.1//EN"
 "http://www.w3.org/Graphics/SVG/1.1/DTD/svg11.dtd">
<!-- Generated by graphviz version 2.47.0 (20210316.0004)
 -->
<!-- Title: dependencies Pages: 1 -->
<svg width="1230pt" height="211pt"
 viewBox="0.00 0.00 1230.00 211.00" xmlns="http://www.w3.org/2000/svg" xmlns:xlink="http://www.w3.org/1999/xlink">
<g id="graph0" class="graph" transform="scale(1 1) rotate(0) translate(4 207)">
<title>dependencies</title>
<polygon fill="white" stroke="transparent" points="-4,4 -4,-207 1226,-207 1226,4 -4,4"/>
<text text-anchor="start" x="590.01" y="-42.4" font-family="Times-12" font-weight="bold" font-size="14.00">Legend</text>
<polygon fill="#ffffb3" stroke="transparent" points="377,-10 377,-30 397,-30 397,-10 377,-10"/>
<text text-anchor="start" x="400.63" y="-15.4" font-family="Times-12" font-size="14.00"> &#160;Declarations</text>
<polygon fill="#8dd3c7" stroke="transparent" points="490,-10 490,-30 510,-30 510,-10 490,-10"/>
<text text-anchor="start" x="513.73" y="-15.4" font-family="Times-12" font-size="14.00"> &#160;Module</text>
<polygon fill="#80b1d3" stroke="transparent" points="576,-10 576,-30 596,-30 596,-10 576,-10"/>
<text text-anchor="start" x="599.78" y="-15.4" font-family="Times-12" font-size="14.00"> &#160;Bootstrap</text>
<polygon fill="#fdb462" stroke="transparent" points="673,-10 673,-30 693,-30 693,-10 673,-10"/>
<text text-anchor="start" x="696.67" y="-15.4" font-family="Times-12" font-size="14.00"> &#160;Providers</text>
<polygon fill="#fb8072" stroke="transparent" points="769,-10 769,-30 789,-30 789,-10 769,-10"/>
<text text-anchor="start" x="792.73" y="-15.4" font-family="Times-12" font-size="14.00"> &#160;Exports</text>
<g id="clust1" class="cluster">
<title>cluster_ServerTestModule</title>
<polygon fill="none" stroke="black" stroke-dasharray="1,5" points="8,-70 8,-195 1214,-195 1214,-70 8,-70"/>
</g>
<g id="clust3" class="cluster">
<title>cluster_ServerTestModule_imports</title>
<polygon fill="none" stroke="black" points="134,-78 134,-130 1206,-130 1206,-78 134,-78"/>
</g>
<g id="clust6" class="cluster">
<title>cluster_ServerTestModule_providers</title>
<polygon fill="none" stroke="black" points="16,-78 16,-130 126,-130 126,-78 16,-78"/>
</g>
<!-- DeletionApiModule -->
<g id="node1" class="node">
<title>DeletionApiModule</title>
<polygon fill="#8dd3c7" stroke="black" points="1198.25,-122 1195.25,-126 1174.25,-126 1171.25,-122 1069.75,-122 1069.75,-86 1198.25,-86 1198.25,-122"/>
<text text-anchor="middle" x="1134" y="-99.8" font-family="Times,serif" font-size="14.00">DeletionApiModule</text>
</g>
<!-- ServerTestModule -->
<g id="node7" class="node">
<title>ServerTestModule</title>
<polygon fill="#8dd3c7" stroke="black" points="676.19,-187 673.19,-191 652.19,-191 649.19,-187 555.81,-187 555.81,-151 676.19,-151 676.19,-187"/>
<text text-anchor="middle" x="616" y="-164.8" font-family="Times,serif" font-size="14.00">ServerTestModule</text>
</g>
<!-- DeletionApiModule&#45;&gt;ServerTestModule -->
<g id="edge1" class="edge">
<title>DeletionApiModule&#45;&gt;ServerTestModule</title>
<path fill="none" stroke="black" d="M1134,-122.29C1134,-144.21 1134,-178 1134,-178 1134,-178 686.18,-178 686.18,-178"/>
<polygon fill="black" stroke="black" points="686.18,-174.5 676.18,-178 686.18,-181.5 686.18,-174.5"/>
</g>
<!-- LegacySchoolAdminApiModule -->
<g id="node2" class="node">
<title>LegacySchoolAdminApiModule</title>
<polygon fill="#8dd3c7" stroke="black" points="1051.52,-122 1048.52,-126 1027.52,-126 1024.52,-122 852.48,-122 852.48,-86 1051.52,-86 1051.52,-122"/>
<text text-anchor="middle" x="952" y="-99.8" font-family="Times,serif" font-size="14.00">LegacySchoolAdminApiModule</text>
</g>
<!-- LegacySchoolAdminApiModule&#45;&gt;ServerTestModule -->
<g id="edge2" class="edge">
<title>LegacySchoolAdminApiModule&#45;&gt;ServerTestModule</title>
<path fill="none" stroke="black" d="M952,-122.11C952,-141.34 952,-169 952,-169 952,-169 686.46,-169 686.46,-169"/>
<polygon fill="black" stroke="black" points="686.46,-165.5 676.46,-169 686.46,-172.5 686.46,-165.5"/>
</g>
<!-- LoggerModule -->
<g id="node3" class="node">
<title>LoggerModule</title>
<polygon fill="#8dd3c7" stroke="black" points="833.98,-122 830.98,-126 809.98,-126 806.98,-122 734.02,-122 734.02,-86 833.98,-86 833.98,-122"/>
<text text-anchor="middle" x="784" y="-99.8" font-family="Times,serif" font-size="14.00">LoggerModule</text>
</g>
<!-- LoggerModule&#45;&gt;ServerTestModule -->
<g id="edge3" class="edge">
<title>LoggerModule&#45;&gt;ServerTestModule</title>
<path fill="none" stroke="black" d="M784,-122.03C784,-138.4 784,-160 784,-160 784,-160 686.18,-160 686.18,-160"/>
<polygon fill="black" stroke="black" points="686.18,-156.5 676.18,-160 686.18,-163.5 686.18,-156.5"/>
</g>
<!-- MongoMemoryDatabaseModule -->
<g id="node4" class="node">
<title>MongoMemoryDatabaseModule</title>
<polygon fill="#8dd3c7" stroke="black" points="715.51,-122 712.51,-126 691.51,-126 688.51,-122 516.49,-122 516.49,-86 715.51,-86 715.51,-122"/>
<text text-anchor="middle" x="616" y="-99.8" font-family="Times,serif" font-size="14.00">MongoMemoryDatabaseModule</text>
</g>
<!-- MongoMemoryDatabaseModule&#45;&gt;ServerTestModule -->
<g id="edge4" class="edge">
<title>MongoMemoryDatabaseModule&#45;&gt;ServerTestModule</title>
<path fill="none" stroke="black" d="M616,-122.11C616,-122.11 616,-140.99 616,-140.99"/>
<polygon fill="black" stroke="black" points="612.5,-140.99 616,-150.99 619.5,-140.99 612.5,-140.99"/>
</g>
<!-- RabbitMQWrapperTestModule -->
<g id="node5" class="node">
<title>RabbitMQWrapperTestModule</title>
<polygon fill="#8dd3c7" stroke="black" points="498,-122 495,-126 474,-126 471,-122 306,-122 306,-86 498,-86 498,-122"/>
<text text-anchor="middle" x="402" y="-99.8" font-family="Times,serif" font-size="14.00">RabbitMQWrapperTestModule</text>
</g>
<!-- RabbitMQWrapperTestModule&#45;&gt;ServerTestModule -->
<g id="edge5" class="edge">
<title>RabbitMQWrapperTestModule&#45;&gt;ServerTestModule</title>
<path fill="none" stroke="black" d="M402,-122.03C402,-138.4 402,-160 402,-160 402,-160 545.82,-160 545.82,-160"/>
<polygon fill="black" stroke="black" points="545.82,-163.5 555.82,-160 545.82,-156.5 545.82,-163.5"/>
</g>
<!-- UserAdminApiModule -->
<g id="node6" class="node">
<title>UserAdminApiModule</title>
<polygon fill="#8dd3c7" stroke="black" points="287.86,-122 284.86,-126 263.86,-126 260.86,-122 142.14,-122 142.14,-86 287.86,-86 287.86,-122"/>
<text text-anchor="middle" x="215" y="-99.8" font-family="Times,serif" font-size="14.00">UserAdminApiModule</text>
</g>
<!-- UserAdminApiModule&#45;&gt;ServerTestModule -->
<g id="edge6" class="edge">
<title>UserAdminApiModule&#45;&gt;ServerTestModule</title>
<path fill="none" stroke="black" d="M215,-122.11C215,-141.34 215,-169 215,-169 215,-169 545.53,-169 545.53,-169"/>
<polygon fill="black" stroke="black" points="545.53,-172.5 555.53,-169 545.53,-165.5 545.53,-172.5"/>
</g>
<!-- ServerUc -->
<g id="node8" class="node">
<title>ServerUc</title>
<ellipse fill="#fdb462" stroke="black" cx="71" cy="-104" rx="47.49" ry="18"/>
<text text-anchor="middle" x="71" y="-99.8" font-family="Times,serif" font-size="14.00">ServerUc</text>
</g>
<!-- ServerUc&#45;&gt;ServerTestModule -->
<g id="edge7" class="edge">
<title>ServerUc&#45;&gt;ServerTestModule</title>
<path fill="none" stroke="black" d="M71,-122.29C71,-144.21 71,-178 71,-178 71,-178 545.86,-178 545.86,-178"/>
<polygon fill="black" stroke="black" points="545.86,-181.5 555.86,-178 545.85,-174.5 545.86,-181.5"/>
</g>
</g>
</svg>
