<?xml version="1.0" encoding="UTF-8" standalone="no"?>
<!DOCTYPE svg PUBLIC "-//W3C//DTD SVG 1.1//EN"
 "http://www.w3.org/Graphics/SVG/1.1/DTD/svg11.dtd">
<!-- Generated by graphviz version 2.47.0 (20210316.0004)
 -->
<!-- Title: dependencies Pages: 1 -->
<svg width="2934pt" height="284pt"
 viewBox="0.00 0.00 2934.00 284.00" xmlns="http://www.w3.org/2000/svg" xmlns:xlink="http://www.w3.org/1999/xlink">
<g id="graph0" class="graph" transform="scale(1 1) rotate(0) translate(4 280)">
<title>dependencies</title>
<polygon fill="white" stroke="transparent" points="-4,4 -4,-280 2930,-280 2930,4 -4,4"/>
<text text-anchor="start" x="1442.01" y="-42.4" font-family="Times-12" font-weight="bold" font-size="14.00">Legend</text>
<polygon fill="#ffffb3" stroke="transparent" points="1229,-10 1229,-30 1249,-30 1249,-10 1229,-10"/>
<text text-anchor="start" x="1252.63" y="-15.4" font-family="Times-12" font-size="14.00"> &#160;Declarations</text>
<polygon fill="#8dd3c7" stroke="transparent" points="1342,-10 1342,-30 1362,-30 1362,-10 1342,-10"/>
<text text-anchor="start" x="1365.73" y="-15.4" font-family="Times-12" font-size="14.00"> &#160;Module</text>
<polygon fill="#80b1d3" stroke="transparent" points="1428,-10 1428,-30 1448,-30 1448,-10 1428,-10"/>
<text text-anchor="start" x="1451.78" y="-15.4" font-family="Times-12" font-size="14.00"> &#160;Bootstrap</text>
<polygon fill="#fdb462" stroke="transparent" points="1525,-10 1525,-30 1545,-30 1545,-10 1525,-10"/>
<text text-anchor="start" x="1548.67" y="-15.4" font-family="Times-12" font-size="14.00"> &#160;Providers</text>
<polygon fill="#fb8072" stroke="transparent" points="1621,-10 1621,-30 1641,-30 1641,-10 1621,-10"/>
<text text-anchor="start" x="1644.73" y="-15.4" font-family="Times-12" font-size="14.00"> &#160;Exports</text>
<g id="clust1" class="cluster">
<title>cluster_ExternalToolModule</title>
<polygon fill="none" stroke="black" stroke-dasharray="1,5" points="8,-70 8,-268 2918,-268 2918,-70 8,-70"/>
</g>
<g id="clust6" class="cluster">
<title>cluster_ExternalToolModule_providers</title>
<polygon fill="none" stroke="black" points="780,-78 780,-130 2910,-130 2910,-78 780,-78"/>
</g>
<g id="clust3" class="cluster">
<title>cluster_ExternalToolModule_imports</title>
<polygon fill="none" stroke="black" points="16,-78 16,-130 772,-130 772,-78 16,-78"/>
</g>
<g id="clust4" class="cluster">
<title>cluster_ExternalToolModule_exports</title>
<polygon fill="none" stroke="black" points="633,-208 633,-260 1819,-260 1819,-208 633,-208"/>
</g>
<!-- CommonToolModule -->
<g id="node1" class="node">
<title>CommonToolModule</title>
<polygon fill="#8dd3c7" stroke="black" points="764.11,-122 761.11,-126 740.11,-126 737.11,-122 625.89,-122 625.89,-86 764.11,-86 764.11,-122"/>
<text text-anchor="middle" x="695" y="-99.8" font-family="Times,serif" font-size="14.00">CommonToolModule</text>
</g>
<!-- ExternalToolModule -->
<g id="node6" class="node">
<title>ExternalToolModule</title>
<polygon fill="#8dd3c7" stroke="black" points="1325.92,-187 1322.92,-191 1301.92,-191 1298.92,-187 1192.08,-187 1192.08,-151 1325.92,-151 1325.92,-187"/>
<text text-anchor="middle" x="1259" y="-164.8" font-family="Times,serif" font-size="14.00">ExternalToolModule</text>
</g>
<!-- CommonToolModule&#45;&gt;ExternalToolModule -->
<g id="edge1" class="edge">
<title>CommonToolModule&#45;&gt;ExternalToolModule</title>
<path fill="none" stroke="black" d="M702.43,-122.01C702.43,-138.05 702.43,-159 702.43,-159 702.43,-159 1182.14,-159 1182.14,-159"/>
<polygon fill="black" stroke="black" points="1182.14,-162.5 1192.14,-159 1182.14,-155.5 1182.14,-162.5"/>
</g>
<!-- EncryptionModule -->
<g id="node2" class="node">
<title>EncryptionModule</title>
<polygon fill="#8dd3c7" stroke="black" points="607.76,-122 604.76,-126 583.76,-126 580.76,-122 486.24,-122 486.24,-86 607.76,-86 607.76,-122"/>
<text text-anchor="middle" x="547" y="-99.8" font-family="Times,serif" font-size="14.00">EncryptionModule</text>
</g>
<!-- EncryptionModule&#45;&gt;ExternalToolModule -->
<g id="edge2" class="edge">
<title>EncryptionModule&#45;&gt;ExternalToolModule</title>
<path fill="none" stroke="black" d="M547,-122.02C547,-139.37 547,-163 547,-163 547,-163 1182.02,-163 1182.02,-163"/>
<polygon fill="black" stroke="black" points="1182.02,-166.5 1192.02,-163 1182.02,-159.5 1182.02,-166.5"/>
</g>
<!-- LoggerModule -->
<g id="node3" class="node">
<title>LoggerModule</title>
<polygon fill="#8dd3c7" stroke="black" points="467.98,-122 464.98,-126 443.98,-126 440.98,-122 368.02,-122 368.02,-86 467.98,-86 467.98,-122"/>
<text text-anchor="middle" x="418" y="-99.8" font-family="Times,serif" font-size="14.00">LoggerModule</text>
</g>
<!-- LoggerModule&#45;&gt;ExternalToolModule -->
<g id="edge3" class="edge">
<title>LoggerModule&#45;&gt;ExternalToolModule</title>
<path fill="none" stroke="black" d="M418,-122.22C418,-140.83 418,-167 418,-167 418,-167 1181.95,-167 1181.95,-167"/>
<polygon fill="black" stroke="black" points="1181.95,-170.5 1191.95,-167 1181.95,-163.5 1181.95,-170.5"/>
</g>
<!-- OauthProviderServiceModule -->
<g id="node4" class="node">
<title>OauthProviderServiceModule</title>
<polygon fill="#8dd3c7" stroke="black" points="349.95,-122 346.95,-126 325.95,-126 322.95,-122 166.05,-122 166.05,-86 349.95,-86 349.95,-122"/>
<text text-anchor="middle" x="258" y="-99.8" font-family="Times,serif" font-size="14.00">OauthProviderServiceModule</text>
</g>
<!-- OauthProviderServiceModule&#45;&gt;ExternalToolModule -->
<g id="edge4" class="edge">
<title>OauthProviderServiceModule&#45;&gt;ExternalToolModule</title>
<path fill="none" stroke="black" d="M258,-122.31C258,-142.15 258,-171 258,-171 258,-171 1182.16,-171 1182.16,-171"/>
<polygon fill="black" stroke="black" points="1182.16,-174.5 1192.16,-171 1182.16,-167.5 1182.16,-174.5"/>
</g>
<!-- ToolConfigModule -->
<g id="node5" class="node">
<title>ToolConfigModule</title>
<polygon fill="#8dd3c7" stroke="black" points="148.38,-122 145.38,-126 124.38,-126 121.38,-122 23.62,-122 23.62,-86 148.38,-86 148.38,-122"/>
<text text-anchor="middle" x="86" y="-99.8" font-family="Times,serif" font-size="14.00">ToolConfigModule</text>
</g>
<!-- ToolConfigModule&#45;&gt;ExternalToolModule -->
<g id="edge5" class="edge">
<title>ToolConfigModule&#45;&gt;ExternalToolModule</title>
<path fill="none" stroke="black" d="M86,-122.28C86,-143.32 86,-175 86,-175 86,-175 1182.15,-175 1182.15,-175"/>
<polygon fill="black" stroke="black" points="1182.15,-178.5 1192.15,-175 1182.15,-171.5 1182.15,-178.5"/>
</g>
<!-- DatasheetPdfService  -->
<g id="node7" class="node">
<title>DatasheetPdfService </title>
<polygon fill="#fb8072" stroke="black" points="1811.11,-252 1674.89,-252 1674.89,-216 1811.11,-216 1811.11,-252"/>
<text text-anchor="middle" x="1743" y="-229.8" font-family="Times,serif" font-size="14.00">DatasheetPdfService </text>
</g>
<!-- ExternalToolModule&#45;&gt;DatasheetPdfService  -->
<g id="edge6" class="edge">
<title>ExternalToolModule&#45;&gt;DatasheetPdfService </title>
<path fill="none" stroke="black" stroke-dasharray="5,2" d="M1325.76,-179C1463.35,-179 1765.69,-179 1765.69,-179 1765.69,-179 1765.69,-205.99 1765.69,-205.99"/>
<polygon fill="black" stroke="black" points="1762.19,-205.99 1765.69,-215.99 1769.19,-205.99 1762.19,-205.99"/>
</g>
<!-- ExternalToolConfigurationService  -->
<g id="node8" class="node">
<title>ExternalToolConfigurationService </title>
<polygon fill="#fb8072" stroke="black" points="1656.89,-252 1443.11,-252 1443.11,-216 1656.89,-216 1656.89,-252"/>
<text text-anchor="middle" x="1550" y="-229.8" font-family="Times,serif" font-size="14.00">ExternalToolConfigurationService </text>
</g>
<!-- ExternalToolModule&#45;&gt;ExternalToolConfigurationService  -->
<g id="edge7" class="edge">
<title>ExternalToolModule&#45;&gt;ExternalToolConfigurationService </title>
<path fill="none" stroke="black" stroke-dasharray="5,2" d="M1325.8,-183C1410.88,-183 1547.01,-183 1547.01,-183 1547.01,-183 1547.01,-205.88 1547.01,-205.88"/>
<polygon fill="black" stroke="black" points="1543.51,-205.88 1547.01,-215.88 1550.51,-205.88 1543.51,-205.88"/>
</g>
<!-- ExternalToolLogoService  -->
<g id="node9" class="node">
<title>ExternalToolLogoService </title>
<polygon fill="#fb8072" stroke="black" points="1425.4,-252 1260.6,-252 1260.6,-216 1425.4,-216 1425.4,-252"/>
<text text-anchor="middle" x="1343" y="-229.8" font-family="Times,serif" font-size="14.00">ExternalToolLogoService </text>
</g>
<!-- ExternalToolModule&#45;&gt;ExternalToolLogoService  -->
<g id="edge8" class="edge">
<title>ExternalToolModule&#45;&gt;ExternalToolLogoService </title>
<path fill="none" stroke="black" stroke-dasharray="5,2" d="M1293.13,-187.11C1293.13,-187.11 1293.13,-205.99 1293.13,-205.99"/>
<polygon fill="black" stroke="black" points="1289.63,-205.99 1293.13,-215.99 1296.63,-205.99 1289.63,-205.99"/>
</g>
<!-- ExternalToolService  -->
<g id="node10" class="node">
<title>ExternalToolService </title>
<polygon fill="#fb8072" stroke="black" points="1242.84,-252 1107.16,-252 1107.16,-216 1242.84,-216 1242.84,-252"/>
<text text-anchor="middle" x="1175" y="-229.8" font-family="Times,serif" font-size="14.00">ExternalToolService </text>
</g>
<!-- ExternalToolModule&#45;&gt;ExternalToolService  -->
<g id="edge9" class="edge">
<title>ExternalToolModule&#45;&gt;ExternalToolService </title>
<path fill="none" stroke="black" stroke-dasharray="5,2" d="M1217.48,-187.11C1217.48,-187.11 1217.48,-205.99 1217.48,-205.99"/>
<polygon fill="black" stroke="black" points="1213.98,-205.99 1217.48,-215.99 1220.98,-205.99 1213.98,-205.99"/>
</g>
<!-- ExternalToolValidationService  -->
<g id="node11" class="node">
<title>ExternalToolValidationService </title>
<polygon fill="#fb8072" stroke="black" points="1089.44,-252 894.56,-252 894.56,-216 1089.44,-216 1089.44,-252"/>
<text text-anchor="middle" x="992" y="-229.8" font-family="Times,serif" font-size="14.00">ExternalToolValidationService </text>
</g>
<!-- ExternalToolModule&#45;&gt;ExternalToolValidationService  -->
<g id="edge10" class="edge">
<title>ExternalToolModule&#45;&gt;ExternalToolValidationService </title>
<path fill="none" stroke="black" stroke-dasharray="5,2" d="M1191.97,-183C1112.88,-183 992,-183 992,-183 992,-183 992,-205.88 992,-205.88"/>
<polygon fill="black" stroke="black" points="988.5,-205.88 992,-215.88 995.5,-205.88 988.5,-205.88"/>
</g>
<!-- ExternalToolVersionIncrementService  -->
<g id="node12" class="node">
<title>ExternalToolVersionIncrementService </title>
<polygon fill="#fb8072" stroke="black" points="877.41,-252 640.59,-252 640.59,-216 877.41,-216 877.41,-252"/>
<text text-anchor="middle" x="759" y="-229.8" font-family="Times,serif" font-size="14.00">ExternalToolVersionIncrementService </text>
</g>
<!-- ExternalToolModule&#45;&gt;ExternalToolVersionIncrementService  -->
<g id="edge11" class="edge">
<title>ExternalToolModule&#45;&gt;ExternalToolVersionIncrementService </title>
<path fill="none" stroke="black" stroke-dasharray="5,2" d="M1191.93,-179C1071.9,-179 832.77,-179 832.77,-179 832.77,-179 832.77,-205.99 832.77,-205.99"/>
<polygon fill="black" stroke="black" points="829.27,-205.99 832.77,-215.99 836.27,-205.99 829.27,-205.99"/>
</g>
<!-- DatasheetPdfService -->
<g id="node13" class="node">
<title>DatasheetPdfService</title>
<ellipse fill="#fdb462" stroke="black" cx="2811" cy="-104" rx="91.45" ry="18"/>
<text text-anchor="middle" x="2811" y="-99.8" font-family="Times,serif" font-size="14.00">DatasheetPdfService</text>
</g>
<!-- DatasheetPdfService&#45;&gt;ExternalToolModule -->
<g id="edge12" class="edge">
<title>DatasheetPdfService&#45;&gt;ExternalToolModule</title>
<path fill="none" stroke="black" d="M2811,-122.28C2811,-143.32 2811,-175 2811,-175 2811,-175 1336.19,-175 1336.19,-175"/>
<polygon fill="black" stroke="black" points="1336.19,-171.5 1326.19,-175 1336.19,-178.5 1336.19,-171.5"/>
</g>
<!-- ExternalToolConfigurationService -->
<g id="node14" class="node">
<title>ExternalToolConfigurationService</title>
<ellipse fill="#fdb462" stroke="black" cx="2556" cy="-104" rx="145.24" ry="18"/>
<text text-anchor="middle" x="2556" y="-99.8" font-family="Times,serif" font-size="14.00">ExternalToolConfigurationService</text>
</g>
<!-- ExternalToolConfigurationService&#45;&gt;ExternalToolModule -->
<g id="edge13" class="edge">
<title>ExternalToolConfigurationService&#45;&gt;ExternalToolModule</title>
<path fill="none" stroke="black" d="M2556,-122.31C2556,-142.15 2556,-171 2556,-171 2556,-171 1336,-171 1336,-171"/>
<polygon fill="black" stroke="black" points="1336,-167.5 1326,-171 1336,-174.5 1336,-167.5"/>
</g>
<!-- ExternalToolParameterValidationService -->
<g id="node15" class="node">
<title>ExternalToolParameterValidationService</title>
<ellipse fill="#fdb462" stroke="black" cx="2222" cy="-104" rx="170.7" ry="18"/>
<text text-anchor="middle" x="2222" y="-99.8" font-family="Times,serif" font-size="14.00">ExternalToolParameterValidationService</text>
</g>
<!-- ExternalToolParameterValidationService&#45;&gt;ExternalToolModule -->
<g id="edge14" class="edge">
<title>ExternalToolParameterValidationService&#45;&gt;ExternalToolModule</title>
<path fill="none" stroke="black" d="M2222,-122.22C2222,-140.83 2222,-167 2222,-167 2222,-167 1335.95,-167 1335.95,-167"/>
<polygon fill="black" stroke="black" points="1335.95,-163.5 1325.95,-167 1335.95,-170.5 1335.95,-163.5"/>
</g>
<!-- ExternalToolRepo -->
<g id="node16" class="node">
<title>ExternalToolRepo</title>
<ellipse fill="#fdb462" stroke="black" cx="1951" cy="-104" rx="82.24" ry="18"/>
<text text-anchor="middle" x="1951" y="-99.8" font-family="Times,serif" font-size="14.00">ExternalToolRepo</text>
</g>
<!-- ExternalToolRepo&#45;&gt;ExternalToolModule -->
<g id="edge15" class="edge">
<title>ExternalToolRepo&#45;&gt;ExternalToolModule</title>
<path fill="none" stroke="black" d="M1951,-122.02C1951,-139.37 1951,-163 1951,-163 1951,-163 1335.98,-163 1335.98,-163"/>
<polygon fill="black" stroke="black" points="1335.98,-159.5 1325.98,-163 1335.98,-166.5 1335.98,-159.5"/>
</g>
<!-- ExternalToolService -->
<g id="node17" class="node">
<title>ExternalToolService</title>
<ellipse fill="#fdb462" stroke="black" cx="1760" cy="-104" rx="90.89" ry="18"/>
<text text-anchor="middle" x="1760" y="-99.8" font-family="Times,serif" font-size="14.00">ExternalToolService</text>
</g>
<!-- ExternalToolService&#45;&gt;ExternalToolModule -->
<g id="edge16" class="edge">
<title>ExternalToolService&#45;&gt;ExternalToolModule</title>
<path fill="none" stroke="black" d="M1720.31,-120.2C1720.31,-136.43 1720.31,-159 1720.31,-159 1720.31,-159 1336.08,-159 1336.08,-159"/>
<polygon fill="black" stroke="black" points="1336.08,-155.5 1326.08,-159 1336.08,-162.5 1336.08,-155.5"/>
</g>
<!-- ExternalToolServiceMapper -->
<g id="node18" class="node">
<title>ExternalToolServiceMapper</title>
<ellipse fill="#fdb462" stroke="black" cx="1530" cy="-104" rx="120.95" ry="18"/>
<text text-anchor="middle" x="1530" y="-99.8" font-family="Times,serif" font-size="14.00">ExternalToolServiceMapper</text>
</g>
<!-- ExternalToolServiceMapper&#45;&gt;ExternalToolModule -->
<g id="edge17" class="edge">
<title>ExternalToolServiceMapper&#45;&gt;ExternalToolModule</title>
<path fill="none" stroke="black" d="M1417.24,-110.67C1417.24,-124.49 1417.24,-155 1417.24,-155 1417.24,-155 1336.11,-155 1336.11,-155"/>
<polygon fill="black" stroke="black" points="1336.11,-151.5 1326.11,-155 1336.11,-158.5 1336.11,-151.5"/>
</g>
<!-- ExternalToolValidationService -->
<g id="node19" class="node">
<title>ExternalToolValidationService</title>
<ellipse fill="#fdb462" stroke="black" cx="1259" cy="-104" rx="131.92" ry="18"/>
<text text-anchor="middle" x="1259" y="-99.8" font-family="Times,serif" font-size="14.00">ExternalToolValidationService</text>
</g>
<!-- ExternalToolValidationService&#45;&gt;ExternalToolModule -->
<g id="edge18" class="edge">
<title>ExternalToolValidationService&#45;&gt;ExternalToolModule</title>
<path fill="none" stroke="black" d="M1259,-122.11C1259,-122.11 1259,-140.99 1259,-140.99"/>
<polygon fill="black" stroke="black" points="1255.5,-140.99 1259,-150.99 1262.5,-140.99 1255.5,-140.99"/>
</g>
<!-- ExternalToolVersionIncrementService -->
<g id="node20" class="node">
<title>ExternalToolVersionIncrementService</title>
<ellipse fill="#fdb462" stroke="black" cx="949" cy="-104" rx="160.81" ry="18"/>
<text text-anchor="middle" x="949" y="-99.8" font-family="Times,serif" font-size="14.00">ExternalToolVersionIncrementService</text>
</g>
<!-- ExternalToolVersionIncrementService&#45;&gt;ExternalToolModule -->
<g id="edge19" class="edge">
<title>ExternalToolVersionIncrementService&#45;&gt;ExternalToolModule</title>
<path fill="none" stroke="black" d="M1098.27,-110.67C1098.27,-124.49 1098.27,-155 1098.27,-155 1098.27,-155 1182.23,-155 1182.23,-155"/>
<polygon fill="black" stroke="black" points="1182.23,-158.5 1192.23,-155 1182.23,-151.5 1182.23,-158.5"/>
</g>
</g>
</svg>
