<?xml version="1.0" encoding="UTF-8" standalone="no"?>
<!DOCTYPE svg PUBLIC "-//W3C//DTD SVG 1.1//EN"
 "http://www.w3.org/Graphics/SVG/1.1/DTD/svg11.dtd">
<!-- Generated by graphviz version 2.47.0 (20210316.0004)
 -->
<!-- Title: dependencies Pages: 1 -->
<svg width="2934pt" height="284pt"
 viewBox="0.00 0.00 2934.00 284.00" xmlns="http://www.w3.org/2000/svg" xmlns:xlink="http://www.w3.org/1999/xlink">
<g id="graph0" class="graph" transform="scale(1 1) rotate(0) translate(4 280)">
<title>dependencies</title>
<polygon fill="white" stroke="transparent" points="-4,4 -4,-280 2930,-280 2930,4 -4,4"/>
<text text-anchor="start" x="1442.01" y="-42.4" font-family="Times-12" font-weight="bold" font-size="14.00">Legend</text>
<polygon fill="#ffffb3" stroke="transparent" points="1229,-10 1229,-30 1249,-30 1249,-10 1229,-10"/>
<text text-anchor="start" x="1252.63" y="-15.4" font-family="Times-12" font-size="14.00"> &#160;Declarations</text>
<polygon fill="#8dd3c7" stroke="transparent" points="1342,-10 1342,-30 1362,-30 1362,-10 1342,-10"/>
<text text-anchor="start" x="1365.73" y="-15.4" font-family="Times-12" font-size="14.00"> &#160;Module</text>
<polygon fill="#80b1d3" stroke="transparent" points="1428,-10 1428,-30 1448,-30 1448,-10 1428,-10"/>
<text text-anchor="start" x="1451.78" y="-15.4" font-family="Times-12" font-size="14.00"> &#160;Bootstrap</text>
<polygon fill="#fdb462" stroke="transparent" points="1525,-10 1525,-30 1545,-30 1545,-10 1525,-10"/>
<text text-anchor="start" x="1548.67" y="-15.4" font-family="Times-12" font-size="14.00"> &#160;Providers</text>
<polygon fill="#fb8072" stroke="transparent" points="1621,-10 1621,-30 1641,-30 1641,-10 1621,-10"/>
<text text-anchor="start" x="1644.73" y="-15.4" font-family="Times-12" font-size="14.00"> &#160;Exports</text>
<g id="clust1" class="cluster">
<title>cluster_ExternalToolModule</title>
<polygon fill="none" stroke="black" stroke-dasharray="1,5" points="8,-70 8,-268 2918,-268 2918,-70 8,-70"/>
</g>
<g id="clust3" class="cluster">
<title>cluster_ExternalToolModule_imports</title>
<polygon fill="none" stroke="black" points="2154,-78 2154,-130 2910,-130 2910,-78 2154,-78"/>
</g>
<g id="clust6" class="cluster">
<title>cluster_ExternalToolModule_providers</title>
<polygon fill="none" stroke="black" points="16,-78 16,-130 2146,-130 2146,-78 16,-78"/>
</g>
<g id="clust4" class="cluster">
<title>cluster_ExternalToolModule_exports</title>
<polygon fill="none" stroke="black" points="1166,-208 1166,-260 2352,-260 2352,-208 1166,-208"/>
</g>
<!-- CommonToolModule -->
<g id="node1" class="node">
<title>CommonToolModule</title>
<polygon fill="#8dd3c7" stroke="black" points="2902.11,-122 2899.11,-126 2878.11,-126 2875.11,-122 2763.89,-122 2763.89,-86 2902.11,-86 2902.11,-122"/>
<text text-anchor="middle" x="2833" y="-99.8" font-family="Times,serif" font-size="14.00">CommonToolModule</text>
</g>
<!-- ExternalToolModule -->
<g id="node6" class="node">
<title>ExternalToolModule</title>
<polygon fill="#8dd3c7" stroke="black" points="1858.92,-187 1855.92,-191 1834.92,-191 1831.92,-187 1725.08,-187 1725.08,-151 1858.92,-151 1858.92,-187"/>
<text text-anchor="middle" x="1792" y="-164.8" font-family="Times,serif" font-size="14.00">ExternalToolModule</text>
</g>
<!-- CommonToolModule&#45;&gt;ExternalToolModule -->
<g id="edge1" class="edge">
<title>CommonToolModule&#45;&gt;ExternalToolModule</title>
<path fill="none" stroke="black" d="M2833,-122.28C2833,-143.32 2833,-175 2833,-175 2833,-175 1869.1,-175 1869.1,-175"/>
<polygon fill="black" stroke="black" points="1869.1,-171.5 1859.1,-175 1869.1,-178.5 1869.1,-171.5"/>
</g>
<!-- EncryptionModule -->
<g id="node2" class="node">
<title>EncryptionModule</title>
<polygon fill="#8dd3c7" stroke="black" points="2745.76,-122 2742.76,-126 2721.76,-126 2718.76,-122 2624.24,-122 2624.24,-86 2745.76,-86 2745.76,-122"/>
<text text-anchor="middle" x="2685" y="-99.8" font-family="Times,serif" font-size="14.00">EncryptionModule</text>
</g>
<!-- EncryptionModule&#45;&gt;ExternalToolModule -->
<g id="edge2" class="edge">
<title>EncryptionModule&#45;&gt;ExternalToolModule</title>
<path fill="none" stroke="black" d="M2685,-122.31C2685,-142.15 2685,-171 2685,-171 2685,-171 1868.75,-171 1868.75,-171"/>
<polygon fill="black" stroke="black" points="1868.75,-167.5 1858.75,-171 1868.75,-174.5 1868.75,-167.5"/>
</g>
<!-- LoggerModule -->
<g id="node3" class="node">
<title>LoggerModule</title>
<polygon fill="#8dd3c7" stroke="black" points="2605.98,-122 2602.98,-126 2581.98,-126 2578.98,-122 2506.02,-122 2506.02,-86 2605.98,-86 2605.98,-122"/>
<text text-anchor="middle" x="2556" y="-99.8" font-family="Times,serif" font-size="14.00">LoggerModule</text>
</g>
<!-- LoggerModule&#45;&gt;ExternalToolModule -->
<g id="edge3" class="edge">
<title>LoggerModule&#45;&gt;ExternalToolModule</title>
<path fill="none" stroke="black" d="M2556,-122.22C2556,-140.83 2556,-167 2556,-167 2556,-167 1868.8,-167 1868.8,-167"/>
<polygon fill="black" stroke="black" points="1868.8,-163.5 1858.8,-167 1868.8,-170.5 1868.8,-163.5"/>
</g>
<!-- OauthProviderServiceModule -->
<g id="node4" class="node">
<title>OauthProviderServiceModule</title>
<polygon fill="#8dd3c7" stroke="black" points="2487.95,-122 2484.95,-126 2463.95,-126 2460.95,-122 2304.05,-122 2304.05,-86 2487.95,-86 2487.95,-122"/>
<text text-anchor="middle" x="2396" y="-99.8" font-family="Times,serif" font-size="14.00">OauthProviderServiceModule</text>
</g>
<!-- OauthProviderServiceModule&#45;&gt;ExternalToolModule -->
<g id="edge4" class="edge">
<title>OauthProviderServiceModule&#45;&gt;ExternalToolModule</title>
<path fill="none" stroke="black" d="M2324.04,-122.02C2324.04,-139.37 2324.04,-163 2324.04,-163 2324.04,-163 1868.84,-163 1868.84,-163"/>
<polygon fill="black" stroke="black" points="1868.84,-159.5 1858.84,-163 1868.84,-166.5 1868.84,-159.5"/>
</g>
<!-- ToolConfigModule -->
<g id="node5" class="node">
<title>ToolConfigModule</title>
<polygon fill="#8dd3c7" stroke="black" points="2286.38,-122 2283.38,-126 2262.38,-126 2259.38,-122 2161.62,-122 2161.62,-86 2286.38,-86 2286.38,-122"/>
<text text-anchor="middle" x="2224" y="-99.8" font-family="Times,serif" font-size="14.00">ToolConfigModule</text>
</g>
<!-- ToolConfigModule&#45;&gt;ExternalToolModule -->
<g id="edge5" class="edge">
<title>ToolConfigModule&#45;&gt;ExternalToolModule</title>
<path fill="none" stroke="black" d="M2175.75,-122.01C2175.75,-138.05 2175.75,-159 2175.75,-159 2175.75,-159 1868.84,-159 1868.84,-159"/>
<polygon fill="black" stroke="black" points="1868.84,-155.5 1858.84,-159 1868.84,-162.5 1868.84,-155.5"/>
</g>
<!-- DatasheetPdfService  -->
<g id="node7" class="node">
<title>DatasheetPdfService </title>
<polygon fill="#fb8072" stroke="black" points="2344.11,-252 2207.89,-252 2207.89,-216 2344.11,-216 2344.11,-252"/>
<text text-anchor="middle" x="2276" y="-229.8" font-family="Times,serif" font-size="14.00">DatasheetPdfService </text>
</g>
<!-- ExternalToolModule&#45;&gt;DatasheetPdfService  -->
<g id="edge6" class="edge">
<title>ExternalToolModule&#45;&gt;DatasheetPdfService </title>
<path fill="none" stroke="black" stroke-dasharray="5,2" d="M1859.17,-179C1985.78,-179 2247.19,-179 2247.19,-179 2247.19,-179 2247.19,-205.99 2247.19,-205.99"/>
<polygon fill="black" stroke="black" points="2243.69,-205.99 2247.19,-215.99 2250.69,-205.99 2243.69,-205.99"/>
</g>
<!-- ExternalToolConfigurationService  -->
<g id="node8" class="node">
<title>ExternalToolConfigurationService </title>
<polygon fill="#fb8072" stroke="black" points="2189.89,-252 1976.11,-252 1976.11,-216 2189.89,-216 2189.89,-252"/>
<text text-anchor="middle" x="2083" y="-229.8" font-family="Times,serif" font-size="14.00">ExternalToolConfigurationService </text>
</g>
<!-- ExternalToolModule&#45;&gt;ExternalToolConfigurationService  -->
<g id="edge7" class="edge">
<title>ExternalToolModule&#45;&gt;ExternalToolConfigurationService </title>
<path fill="none" stroke="black" stroke-dasharray="5,2" d="M1858.94,-183C1937.52,-183 2057.26,-183 2057.26,-183 2057.26,-183 2057.26,-205.88 2057.26,-205.88"/>
<polygon fill="black" stroke="black" points="2053.76,-205.88 2057.26,-215.88 2060.76,-205.88 2053.76,-205.88"/>
</g>
<!-- ExternalToolLogoService  -->
<g id="node9" class="node">
<title>ExternalToolLogoService </title>
<polygon fill="#fb8072" stroke="black" points="1958.4,-252 1793.6,-252 1793.6,-216 1958.4,-216 1958.4,-252"/>
<text text-anchor="middle" x="1876" y="-229.8" font-family="Times,serif" font-size="14.00">ExternalToolLogoService </text>
</g>
<!-- ExternalToolModule&#45;&gt;ExternalToolLogoService  -->
<g id="edge8" class="edge">
<title>ExternalToolModule&#45;&gt;ExternalToolLogoService </title>
<path fill="none" stroke="black" stroke-dasharray="5,2" d="M1826.13,-187.11C1826.13,-187.11 1826.13,-205.99 1826.13,-205.99"/>
<polygon fill="black" stroke="black" points="1822.63,-205.99 1826.13,-215.99 1829.63,-205.99 1822.63,-205.99"/>
</g>
<!-- ExternalToolService  -->
<g id="node10" class="node">
<title>ExternalToolService </title>
<polygon fill="#fb8072" stroke="black" points="1775.84,-252 1640.16,-252 1640.16,-216 1775.84,-216 1775.84,-252"/>
<text text-anchor="middle" x="1708" y="-229.8" font-family="Times,serif" font-size="14.00">ExternalToolService </text>
</g>
<!-- ExternalToolModule&#45;&gt;ExternalToolService  -->
<g id="edge9" class="edge">
<title>ExternalToolModule&#45;&gt;ExternalToolService </title>
<path fill="none" stroke="black" stroke-dasharray="5,2" d="M1750.48,-187.11C1750.48,-187.11 1750.48,-205.99 1750.48,-205.99"/>
<polygon fill="black" stroke="black" points="1746.98,-205.99 1750.48,-215.99 1753.98,-205.99 1746.98,-205.99"/>
</g>
<!-- ExternalToolValidationService  -->
<g id="node11" class="node">
<title>ExternalToolValidationService </title>
<polygon fill="#fb8072" stroke="black" points="1622.44,-252 1427.56,-252 1427.56,-216 1622.44,-216 1622.44,-252"/>
<text text-anchor="middle" x="1525" y="-229.8" font-family="Times,serif" font-size="14.00">ExternalToolValidationService </text>
</g>
<!-- ExternalToolModule&#45;&gt;ExternalToolValidationService  -->
<g id="edge10" class="edge">
<title>ExternalToolModule&#45;&gt;ExternalToolValidationService </title>
<path fill="none" stroke="black" stroke-dasharray="5,2" d="M1725.09,-183C1655.75,-183 1557.41,-183 1557.41,-183 1557.41,-183 1557.41,-205.88 1557.41,-205.88"/>
<polygon fill="black" stroke="black" points="1553.91,-205.88 1557.41,-215.88 1560.91,-205.88 1553.91,-205.88"/>
</g>
<!-- ExternalToolVersionIncrementService  -->
<g id="node12" class="node">
<title>ExternalToolVersionIncrementService </title>
<polygon fill="#fb8072" stroke="black" points="1410.41,-252 1173.59,-252 1173.59,-216 1410.41,-216 1410.41,-252"/>
<text text-anchor="middle" x="1292" y="-229.8" font-family="Times,serif" font-size="14.00">ExternalToolVersionIncrementService </text>
</g>
<!-- ExternalToolModule&#45;&gt;ExternalToolVersionIncrementService  -->
<g id="edge11" class="edge">
<title>ExternalToolModule&#45;&gt;ExternalToolVersionIncrementService </title>
<path fill="none" stroke="black" stroke-dasharray="5,2" d="M1725.15,-179C1601.3,-179 1348.68,-179 1348.68,-179 1348.68,-179 1348.68,-205.99 1348.68,-205.99"/>
<polygon fill="black" stroke="black" points="1345.18,-205.99 1348.68,-215.99 1352.18,-205.99 1345.18,-205.99"/>
</g>
<!-- DatasheetPdfService -->
<g id="node13" class="node">
<title>DatasheetPdfService</title>
<ellipse fill="#fdb462" stroke="black" cx="2047" cy="-104" rx="91.45" ry="18"/>
<text text-anchor="middle" x="2047" y="-99.8" font-family="Times,serif" font-size="14.00">DatasheetPdfService</text>
</g>
<!-- DatasheetPdfService&#45;&gt;ExternalToolModule -->
<g id="edge12" class="edge">
<title>DatasheetPdfService&#45;&gt;ExternalToolModule</title>
<path fill="none" stroke="black" d="M1967.25,-112.88C1967.25,-127.5 1967.25,-155 1967.25,-155 1967.25,-155 1868.76,-155 1868.76,-155"/>
<polygon fill="black" stroke="black" points="1868.76,-151.5 1858.76,-155 1868.76,-158.5 1868.76,-151.5"/>
</g>
<!-- ExternalToolConfigurationService -->
<g id="node14" class="node">
<title>ExternalToolConfigurationService</title>
<ellipse fill="#fdb462" stroke="black" cx="1792" cy="-104" rx="145.24" ry="18"/>
<text text-anchor="middle" x="1792" y="-99.8" font-family="Times,serif" font-size="14.00">ExternalToolConfigurationService</text>
</g>
<!-- ExternalToolConfigurationService&#45;&gt;ExternalToolModule -->
<g id="edge13" class="edge">
<title>ExternalToolConfigurationService&#45;&gt;ExternalToolModule</title>
<path fill="none" stroke="black" d="M1792,-122.11C1792,-122.11 1792,-140.99 1792,-140.99"/>
<polygon fill="black" stroke="black" points="1788.5,-140.99 1792,-150.99 1795.5,-140.99 1788.5,-140.99"/>
</g>
<!-- ExternalToolParameterValidationService -->
<g id="node15" class="node">
<title>ExternalToolParameterValidationService</title>
<ellipse fill="#fdb462" stroke="black" cx="1458" cy="-104" rx="170.7" ry="18"/>
<text text-anchor="middle" x="1458" y="-99.8" font-family="Times,serif" font-size="14.00">ExternalToolParameterValidationService</text>
</g>
<!-- ExternalToolParameterValidationService&#45;&gt;ExternalToolModule -->
<g id="edge14" class="edge">
<title>ExternalToolParameterValidationService&#45;&gt;ExternalToolModule</title>
<path fill="none" stroke="black" d="M1492.59,-121.84C1492.59,-136.54 1492.59,-155 1492.59,-155 1492.59,-155 1715.18,-155 1715.18,-155"/>
<polygon fill="black" stroke="black" points="1715.18,-158.5 1725.18,-155 1715.18,-151.5 1715.18,-158.5"/>
</g>
<!-- ExternalToolRepo -->
<g id="node16" class="node">
<title>ExternalToolRepo</title>
<ellipse fill="#fdb462" stroke="black" cx="1187" cy="-104" rx="82.24" ry="18"/>
<text text-anchor="middle" x="1187" y="-99.8" font-family="Times,serif" font-size="14.00">ExternalToolRepo</text>
</g>
<!-- ExternalToolRepo&#45;&gt;ExternalToolModule -->
<g id="edge15" class="edge">
<title>ExternalToolRepo&#45;&gt;ExternalToolModule</title>
<path fill="none" stroke="black" d="M1221.58,-120.5C1221.58,-136.7 1221.58,-159 1221.58,-159 1221.58,-159 1715.17,-159 1715.17,-159"/>
<polygon fill="black" stroke="black" points="1715.17,-162.5 1725.17,-159 1715.17,-155.5 1715.17,-162.5"/>
</g>
<!-- ExternalToolService -->
<g id="node17" class="node">
<title>ExternalToolService</title>
<ellipse fill="#fdb462" stroke="black" cx="996" cy="-104" rx="90.89" ry="18"/>
<text text-anchor="middle" x="996" y="-99.8" font-family="Times,serif" font-size="14.00">ExternalToolService</text>
</g>
<!-- ExternalToolService&#45;&gt;ExternalToolModule -->
<g id="edge16" class="edge">
<title>ExternalToolService&#45;&gt;ExternalToolModule</title>
<path fill="none" stroke="black" d="M996,-122.02C996,-139.37 996,-163 996,-163 996,-163 1715.16,-163 1715.16,-163"/>
<polygon fill="black" stroke="black" points="1715.16,-166.5 1725.16,-163 1715.16,-159.5 1715.16,-166.5"/>
</g>
<!-- ExternalToolServiceMapper -->
<g id="node18" class="node">
<title>ExternalToolServiceMapper</title>
<ellipse fill="#fdb462" stroke="black" cx="766" cy="-104" rx="120.95" ry="18"/>
<text text-anchor="middle" x="766" y="-99.8" font-family="Times,serif" font-size="14.00">ExternalToolServiceMapper</text>
</g>
<!-- ExternalToolServiceMapper&#45;&gt;ExternalToolModule -->
<g id="edge17" class="edge">
<title>ExternalToolServiceMapper&#45;&gt;ExternalToolModule</title>
<path fill="none" stroke="black" d="M766,-122.22C766,-140.83 766,-167 766,-167 766,-167 1715.08,-167 1715.08,-167"/>
<polygon fill="black" stroke="black" points="1715.08,-170.5 1725.08,-167 1715.08,-163.5 1715.08,-170.5"/>
</g>
<!-- ExternalToolValidationService -->
<g id="node19" class="node">
<title>ExternalToolValidationService</title>
<ellipse fill="#fdb462" stroke="black" cx="495" cy="-104" rx="131.92" ry="18"/>
<text text-anchor="middle" x="495" y="-99.8" font-family="Times,serif" font-size="14.00">ExternalToolValidationService</text>
</g>
<!-- ExternalToolValidationService&#45;&gt;ExternalToolModule -->
<g id="edge18" class="edge">
<title>ExternalToolValidationService&#45;&gt;ExternalToolModule</title>
<path fill="none" stroke="black" d="M495,-122.31C495,-142.15 495,-171 495,-171 495,-171 1715,-171 1715,-171"/>
<polygon fill="black" stroke="black" points="1715,-174.5 1725,-171 1715,-167.5 1715,-174.5"/>
</g>
<!-- ExternalToolVersionIncrementService -->
<g id="node20" class="node">
<title>ExternalToolVersionIncrementService</title>
<ellipse fill="#fdb462" stroke="black" cx="185" cy="-104" rx="160.81" ry="18"/>
<text text-anchor="middle" x="185" y="-99.8" font-family="Times,serif" font-size="14.00">ExternalToolVersionIncrementService</text>
</g>
<!-- ExternalToolVersionIncrementService&#45;&gt;ExternalToolModule -->
<g id="edge19" class="edge">
<title>ExternalToolVersionIncrementService&#45;&gt;ExternalToolModule</title>
<path fill="none" stroke="black" d="M185,-122.28C185,-143.32 185,-175 185,-175 185,-175 1715.25,-175 1715.25,-175"/>
<polygon fill="black" stroke="black" points="1715.25,-178.5 1725.25,-175 1715.25,-171.5 1715.25,-178.5"/>
</g>
</g>
</svg>
