<?xml version="1.0" encoding="UTF-8" standalone="no"?>
<!DOCTYPE svg PUBLIC "-//W3C//DTD SVG 1.1//EN"
 "http://www.w3.org/Graphics/SVG/1.1/DTD/svg11.dtd">
<!-- Generated by graphviz version 2.47.0 (20210316.0004)
 -->
<!-- Title: dependencies Pages: 1 -->
<svg width="2595pt" height="284pt"
 viewBox="0.00 0.00 2595.00 284.00" xmlns="http://www.w3.org/2000/svg" xmlns:xlink="http://www.w3.org/1999/xlink">
<g id="graph0" class="graph" transform="scale(1 1) rotate(0) translate(4 280)">
<title>dependencies</title>
<polygon fill="white" stroke="transparent" points="-4,4 -4,-280 2591,-280 2591,4 -4,4"/>
<text text-anchor="start" x="1272.51" y="-42.4" font-family="Times-12" font-weight="bold" font-size="14.00">Legend</text>
<polygon fill="#ffffb3" stroke="transparent" points="1059.5,-10 1059.5,-30 1079.5,-30 1079.5,-10 1059.5,-10"/>
<text text-anchor="start" x="1083.13" y="-15.4" font-family="Times-12" font-size="14.00"> &#160;Declarations</text>
<polygon fill="#8dd3c7" stroke="transparent" points="1172.5,-10 1172.5,-30 1192.5,-30 1192.5,-10 1172.5,-10"/>
<text text-anchor="start" x="1196.23" y="-15.4" font-family="Times-12" font-size="14.00"> &#160;Module</text>
<polygon fill="#80b1d3" stroke="transparent" points="1258.5,-10 1258.5,-30 1278.5,-30 1278.5,-10 1258.5,-10"/>
<text text-anchor="start" x="1282.28" y="-15.4" font-family="Times-12" font-size="14.00"> &#160;Bootstrap</text>
<polygon fill="#fdb462" stroke="transparent" points="1355.5,-10 1355.5,-30 1375.5,-30 1375.5,-10 1355.5,-10"/>
<text text-anchor="start" x="1379.17" y="-15.4" font-family="Times-12" font-size="14.00"> &#160;Providers</text>
<polygon fill="#fb8072" stroke="transparent" points="1451.5,-10 1451.5,-30 1471.5,-30 1471.5,-10 1451.5,-10"/>
<text text-anchor="start" x="1475.23" y="-15.4" font-family="Times-12" font-size="14.00"> &#160;Exports</text>
<g id="clust1" class="cluster">
<title>cluster_ExternalToolModule</title>
<polygon fill="none" stroke="black" stroke-dasharray="1,5" points="8,-70 8,-268 2579,-268 2579,-70 8,-70"/>
</g>
<g id="clust4" class="cluster">
<title>cluster_ExternalToolModule_exports</title>
<polygon fill="none" stroke="black" points="1124,-208 1124,-260 2056,-260 2056,-208 1124,-208"/>
</g>
<g id="clust3" class="cluster">
<title>cluster_ExternalToolModule_imports</title>
<polygon fill="none" stroke="black" points="1815,-78 1815,-130 2571,-130 2571,-78 1815,-78"/>
</g>
<g id="clust6" class="cluster">
<title>cluster_ExternalToolModule_providers</title>
<polygon fill="none" stroke="black" points="16,-78 16,-130 1807,-130 1807,-78 16,-78"/>
</g>
<!-- CommonToolModule -->
<g id="node1" class="node">
<title>CommonToolModule</title>
<polygon fill="#8dd3c7" stroke="black" points="2563.11,-122 2560.11,-126 2539.11,-126 2536.11,-122 2424.89,-122 2424.89,-86 2563.11,-86 2563.11,-122"/>
<text text-anchor="middle" x="2494" y="-99.8" font-family="Times,serif" font-size="14.00">CommonToolModule</text>
</g>
<!-- ExternalToolModule -->
<g id="node6" class="node">
<title>ExternalToolModule</title>
<polygon fill="#8dd3c7" stroke="black" points="1646.92,-187 1643.92,-191 1622.92,-191 1619.92,-187 1513.08,-187 1513.08,-151 1646.92,-151 1646.92,-187"/>
<text text-anchor="middle" x="1580" y="-164.8" font-family="Times,serif" font-size="14.00">ExternalToolModule</text>
</g>
<!-- CommonToolModule&#45;&gt;ExternalToolModule -->
<g id="edge1" class="edge">
<title>CommonToolModule&#45;&gt;ExternalToolModule</title>
<path fill="none" stroke="black" d="M2494,-122.03C2494,-142.77 2494,-174 2494,-174 2494,-174 1656.84,-174 1656.84,-174"/>
<polygon fill="black" stroke="black" points="1656.84,-170.5 1646.84,-174 1656.84,-177.5 1656.84,-170.5"/>
</g>
<!-- EncryptionModule -->
<g id="node2" class="node">
<title>EncryptionModule</title>
<polygon fill="#8dd3c7" stroke="black" points="2406.76,-122 2403.76,-126 2382.76,-126 2379.76,-122 2285.24,-122 2285.24,-86 2406.76,-86 2406.76,-122"/>
<text text-anchor="middle" x="2346" y="-99.8" font-family="Times,serif" font-size="14.00">EncryptionModule</text>
</g>
<!-- EncryptionModule&#45;&gt;ExternalToolModule -->
<g id="edge2" class="edge">
<title>EncryptionModule&#45;&gt;ExternalToolModule</title>
<path fill="none" stroke="black" d="M2346,-122.11C2346,-141.34 2346,-169 2346,-169 2346,-169 1656.97,-169 1656.97,-169"/>
<polygon fill="black" stroke="black" points="1656.97,-165.5 1646.97,-169 1656.97,-172.5 1656.97,-165.5"/>
</g>
<!-- LoggerModule -->
<g id="node3" class="node">
<title>LoggerModule</title>
<polygon fill="#8dd3c7" stroke="black" points="2266.98,-122 2263.98,-126 2242.98,-126 2239.98,-122 2167.02,-122 2167.02,-86 2266.98,-86 2266.98,-122"/>
<text text-anchor="middle" x="2217" y="-99.8" font-family="Times,serif" font-size="14.00">LoggerModule</text>
</g>
<!-- LoggerModule&#45;&gt;ExternalToolModule -->
<g id="edge3" class="edge">
<title>LoggerModule&#45;&gt;ExternalToolModule</title>
<path fill="none" stroke="black" d="M2217,-122.3C2217,-140.27 2217,-165 2217,-165 2217,-165 1656.97,-165 1656.97,-165"/>
<polygon fill="black" stroke="black" points="1656.97,-161.5 1646.97,-165 1656.97,-168.5 1656.97,-161.5"/>
</g>
<!-- OauthProviderServiceModule -->
<g id="node4" class="node">
<title>OauthProviderServiceModule</title>
<polygon fill="#8dd3c7" stroke="black" points="2148.95,-122 2145.95,-126 2124.95,-126 2121.95,-122 1965.05,-122 1965.05,-86 2148.95,-86 2148.95,-122"/>
<text text-anchor="middle" x="2057" y="-99.8" font-family="Times,serif" font-size="14.00">OauthProviderServiceModule</text>
</g>
<!-- OauthProviderServiceModule&#45;&gt;ExternalToolModule -->
<g id="edge4" class="edge">
<title>OauthProviderServiceModule&#45;&gt;ExternalToolModule</title>
<path fill="none" stroke="black" d="M2006.54,-122.03C2006.54,-138.4 2006.54,-160 2006.54,-160 2006.54,-160 1657.12,-160 1657.12,-160"/>
<polygon fill="black" stroke="black" points="1657.12,-156.5 1647.12,-160 1657.12,-163.5 1657.12,-156.5"/>
</g>
<!-- ToolConfigModule -->
<g id="node5" class="node">
<title>ToolConfigModule</title>
<polygon fill="#8dd3c7" stroke="black" points="1947.38,-122 1944.38,-126 1923.38,-126 1920.38,-122 1822.62,-122 1822.62,-86 1947.38,-86 1947.38,-122"/>
<text text-anchor="middle" x="1885" y="-99.8" font-family="Times,serif" font-size="14.00">ToolConfigModule</text>
</g>
<!-- ToolConfigModule&#45;&gt;ExternalToolModule -->
<g id="edge5" class="edge">
<title>ToolConfigModule&#45;&gt;ExternalToolModule</title>
<path fill="none" stroke="black" d="M1858.25,-122.19C1858.25,-137.18 1858.25,-156 1858.25,-156 1858.25,-156 1657,-156 1657,-156"/>
<polygon fill="black" stroke="black" points="1657,-152.5 1647,-156 1657,-159.5 1657,-152.5"/>
</g>
<!-- DatasheetPdfService  -->
<g id="node7" class="node">
<title>DatasheetPdfService </title>
<polygon fill="#fb8072" stroke="black" points="2048.11,-252 1911.89,-252 1911.89,-216 2048.11,-216 2048.11,-252"/>
<text text-anchor="middle" x="1980" y="-229.8" font-family="Times,serif" font-size="14.00">DatasheetPdfService </text>
</g>
<!-- ExternalToolModule&#45;&gt;DatasheetPdfService  -->
<g id="edge6" class="edge">
<title>ExternalToolModule&#45;&gt;DatasheetPdfService </title>
<path fill="none" stroke="black" stroke-dasharray="5,2" d="M1647.01,-178C1748.55,-178 1929.69,-178 1929.69,-178 1929.69,-178 1929.69,-205.97 1929.69,-205.97"/>
<polygon fill="black" stroke="black" points="1926.19,-205.97 1929.69,-215.97 1933.19,-205.97 1926.19,-205.97"/>
</g>
<!-- ExternalToolConfigurationService  -->
<g id="node8" class="node">
<title>ExternalToolConfigurationService </title>
<polygon fill="#fb8072" stroke="black" points="1893.89,-252 1680.11,-252 1680.11,-216 1893.89,-216 1893.89,-252"/>
<text text-anchor="middle" x="1787" y="-229.8" font-family="Times,serif" font-size="14.00">ExternalToolConfigurationService </text>
</g>
<!-- ExternalToolModule&#45;&gt;ExternalToolConfigurationService  -->
<g id="edge7" class="edge">
<title>ExternalToolModule&#45;&gt;ExternalToolConfigurationService </title>
<path fill="none" stroke="black" stroke-dasharray="5,2" d="M1646.83,-183C1690.61,-183 1739.76,-183 1739.76,-183 1739.76,-183 1739.76,-205.88 1739.76,-205.88"/>
<polygon fill="black" stroke="black" points="1736.26,-205.88 1739.76,-215.88 1743.26,-205.88 1736.26,-205.88"/>
</g>
<!-- ExternalToolLogoService  -->
<g id="node9" class="node">
<title>ExternalToolLogoService </title>
<polygon fill="#fb8072" stroke="black" points="1662.4,-252 1497.6,-252 1497.6,-216 1662.4,-216 1662.4,-252"/>
<text text-anchor="middle" x="1580" y="-229.8" font-family="Times,serif" font-size="14.00">ExternalToolLogoService </text>
</g>
<!-- ExternalToolModule&#45;&gt;ExternalToolLogoService  -->
<g id="edge8" class="edge">
<title>ExternalToolModule&#45;&gt;ExternalToolLogoService </title>
<path fill="none" stroke="black" stroke-dasharray="5,2" d="M1580,-187.11C1580,-187.11 1580,-205.99 1580,-205.99"/>
<polygon fill="black" stroke="black" points="1576.5,-205.99 1580,-215.99 1583.5,-205.99 1576.5,-205.99"/>
</g>
<!-- ExternalToolService  -->
<g id="node10" class="node">
<title>ExternalToolService </title>
<polygon fill="#fb8072" stroke="black" points="1479.84,-252 1344.16,-252 1344.16,-216 1479.84,-216 1479.84,-252"/>
<text text-anchor="middle" x="1412" y="-229.8" font-family="Times,serif" font-size="14.00">ExternalToolService </text>
</g>
<!-- ExternalToolModule&#45;&gt;ExternalToolService  -->
<g id="edge9" class="edge">
<title>ExternalToolModule&#45;&gt;ExternalToolService </title>
<path fill="none" stroke="black" stroke-dasharray="5,2" d="M1513.12,-183C1466.27,-183 1412,-183 1412,-183 1412,-183 1412,-205.88 1412,-205.88"/>
<polygon fill="black" stroke="black" points="1408.5,-205.88 1412,-215.88 1415.5,-205.88 1408.5,-205.88"/>
</g>
<!-- ExternalToolValidationService  -->
<g id="node11" class="node">
<title>ExternalToolValidationService </title>
<polygon fill="#fb8072" stroke="black" points="1326.44,-252 1131.56,-252 1131.56,-216 1326.44,-216 1326.44,-252"/>
<text text-anchor="middle" x="1229" y="-229.8" font-family="Times,serif" font-size="14.00">ExternalToolValidationService </text>
</g>
<!-- ExternalToolModule&#45;&gt;ExternalToolValidationService  -->
<g id="edge10" class="edge">
<title>ExternalToolModule&#45;&gt;ExternalToolValidationService </title>
<path fill="none" stroke="black" stroke-dasharray="5,2" d="M1512.97,-178C1435.06,-178 1317.05,-178 1317.05,-178 1317.05,-178 1317.05,-205.97 1317.05,-205.97"/>
<polygon fill="black" stroke="black" points="1313.55,-205.97 1317.05,-215.97 1320.55,-205.97 1313.55,-205.97"/>
</g>
<!-- DatasheetPdfService -->
<g id="node12" class="node">
<title>DatasheetPdfService</title>
<ellipse fill="#fdb462" stroke="black" cx="1708" cy="-104" rx="91.45" ry="18"/>
<text text-anchor="middle" x="1708" y="-99.8" font-family="Times,serif" font-size="14.00">DatasheetPdfService</text>
</g>
<!-- DatasheetPdfService&#45;&gt;ExternalToolModule -->
<g id="edge11" class="edge">
<title>DatasheetPdfService&#45;&gt;ExternalToolModule</title>
<path fill="none" stroke="black" d="M1631.62,-114.16C1631.62,-114.16 1631.62,-140.81 1631.62,-140.81"/>
<polygon fill="black" stroke="black" points="1628.12,-140.81 1631.62,-150.81 1635.12,-140.81 1628.12,-140.81"/>
</g>
<!-- ExternalToolConfigurationService -->
<g id="node13" class="node">
<title>ExternalToolConfigurationService</title>
<ellipse fill="#fdb462" stroke="black" cx="1453" cy="-104" rx="145.24" ry="18"/>
<text text-anchor="middle" x="1453" y="-99.8" font-family="Times,serif" font-size="14.00">ExternalToolConfigurationService</text>
</g>
<!-- ExternalToolConfigurationService&#45;&gt;ExternalToolModule -->
<g id="edge12" class="edge">
<title>ExternalToolConfigurationService&#45;&gt;ExternalToolModule</title>
<path fill="none" stroke="black" d="M1555.71,-116.84C1555.71,-116.84 1555.71,-140.52 1555.71,-140.52"/>
<polygon fill="black" stroke="black" points="1552.21,-140.52 1555.71,-150.52 1559.21,-140.52 1552.21,-140.52"/>
</g>
<!-- ExternalToolParameterValidationService -->
<g id="node14" class="node">
<title>ExternalToolParameterValidationService</title>
<ellipse fill="#fdb462" stroke="black" cx="1119" cy="-104" rx="170.7" ry="18"/>
<text text-anchor="middle" x="1119" y="-99.8" font-family="Times,serif" font-size="14.00">ExternalToolParameterValidationService</text>
</g>
<!-- ExternalToolParameterValidationService&#45;&gt;ExternalToolModule -->
<g id="edge13" class="edge">
<title>ExternalToolParameterValidationService&#45;&gt;ExternalToolModule</title>
<path fill="none" stroke="black" d="M1210.81,-119.32C1210.81,-134.66 1210.81,-156 1210.81,-156 1210.81,-156 1503.14,-156 1503.14,-156"/>
<polygon fill="black" stroke="black" points="1503.14,-159.5 1513.14,-156 1503.14,-152.5 1503.14,-159.5"/>
</g>
<!-- ExternalToolRepo -->
<g id="node15" class="node">
<title>ExternalToolRepo</title>
<ellipse fill="#fdb462" stroke="black" cx="848" cy="-104" rx="82.24" ry="18"/>
<text text-anchor="middle" x="848" y="-99.8" font-family="Times,serif" font-size="14.00">ExternalToolRepo</text>
</g>
<!-- ExternalToolRepo&#45;&gt;ExternalToolModule -->
<g id="edge14" class="edge">
<title>ExternalToolRepo&#45;&gt;ExternalToolModule</title>
<path fill="none" stroke="black" d="M848,-122.03C848,-138.4 848,-160 848,-160 848,-160 1503.1,-160 1503.1,-160"/>
<polygon fill="black" stroke="black" points="1503.1,-163.5 1513.1,-160 1503.1,-156.5 1503.1,-163.5"/>
</g>
<!-- ExternalToolService -->
<g id="node16" class="node">
<title>ExternalToolService</title>
<ellipse fill="#fdb462" stroke="black" cx="657" cy="-104" rx="90.89" ry="18"/>
<text text-anchor="middle" x="657" y="-99.8" font-family="Times,serif" font-size="14.00">ExternalToolService</text>
</g>
<!-- ExternalToolService&#45;&gt;ExternalToolModule -->
<g id="edge15" class="edge">
<title>ExternalToolService&#45;&gt;ExternalToolModule</title>
<path fill="none" stroke="black" d="M657,-122.3C657,-140.27 657,-165 657,-165 657,-165 1503.25,-165 1503.25,-165"/>
<polygon fill="black" stroke="black" points="1503.25,-168.5 1513.25,-165 1503.25,-161.5 1503.25,-168.5"/>
</g>
<!-- ExternalToolServiceMapper -->
<g id="node17" class="node">
<title>ExternalToolServiceMapper</title>
<ellipse fill="#fdb462" stroke="black" cx="427" cy="-104" rx="120.95" ry="18"/>
<text text-anchor="middle" x="427" y="-99.8" font-family="Times,serif" font-size="14.00">ExternalToolServiceMapper</text>
</g>
<!-- ExternalToolServiceMapper&#45;&gt;ExternalToolModule -->
<g id="edge16" class="edge">
<title>ExternalToolServiceMapper&#45;&gt;ExternalToolModule</title>
<path fill="none" stroke="black" d="M427,-122.11C427,-141.34 427,-169 427,-169 427,-169 1503.03,-169 1503.03,-169"/>
<polygon fill="black" stroke="black" points="1503.03,-172.5 1513.03,-169 1503.03,-165.5 1503.03,-172.5"/>
</g>
<!-- ExternalToolValidationService -->
<g id="node18" class="node">
<title>ExternalToolValidationService</title>
<ellipse fill="#fdb462" stroke="black" cx="156" cy="-104" rx="131.92" ry="18"/>
<text text-anchor="middle" x="156" y="-99.8" font-family="Times,serif" font-size="14.00">ExternalToolValidationService</text>
</g>
<!-- ExternalToolValidationService&#45;&gt;ExternalToolModule -->
<g id="edge17" class="edge">
<title>ExternalToolValidationService&#45;&gt;ExternalToolModule</title>
<path fill="none" stroke="black" d="M156,-122.03C156,-142.77 156,-174 156,-174 156,-174 1503.23,-174 1503.23,-174"/>
<polygon fill="black" stroke="black" points="1503.23,-177.5 1513.23,-174 1503.23,-170.5 1503.23,-177.5"/>
</g>
</g>
</svg>
