<?xml version="1.0" encoding="UTF-8" standalone="no"?>
<!DOCTYPE svg PUBLIC "-//W3C//DTD SVG 1.1//EN"
 "http://www.w3.org/Graphics/SVG/1.1/DTD/svg11.dtd">
<!-- Generated by graphviz version 2.47.0 (20210316.0004)
 -->
<!-- Title: dependencies Pages: 1 -->
<svg width="2347pt" height="284pt"
 viewBox="0.00 0.00 2347.00 284.00" xmlns="http://www.w3.org/2000/svg" xmlns:xlink="http://www.w3.org/1999/xlink">
<g id="graph0" class="graph" transform="scale(1 1) rotate(0) translate(4 280)">
<title>dependencies</title>
<polygon fill="white" stroke="transparent" points="-4,4 -4,-280 2343,-280 2343,4 -4,4"/>
<text text-anchor="start" x="1148.51" y="-42.4" font-family="Times-12" font-weight="bold" font-size="14.00">Legend</text>
<polygon fill="#ffffb3" stroke="transparent" points="935.5,-10 935.5,-30 955.5,-30 955.5,-10 935.5,-10"/>
<text text-anchor="start" x="959.13" y="-15.4" font-family="Times-12" font-size="14.00"> &#160;Declarations</text>
<polygon fill="#8dd3c7" stroke="transparent" points="1048.5,-10 1048.5,-30 1068.5,-30 1068.5,-10 1048.5,-10"/>
<text text-anchor="start" x="1072.23" y="-15.4" font-family="Times-12" font-size="14.00"> &#160;Module</text>
<polygon fill="#80b1d3" stroke="transparent" points="1134.5,-10 1134.5,-30 1154.5,-30 1154.5,-10 1134.5,-10"/>
<text text-anchor="start" x="1158.28" y="-15.4" font-family="Times-12" font-size="14.00"> &#160;Bootstrap</text>
<polygon fill="#fdb462" stroke="transparent" points="1231.5,-10 1231.5,-30 1251.5,-30 1251.5,-10 1231.5,-10"/>
<text text-anchor="start" x="1255.17" y="-15.4" font-family="Times-12" font-size="14.00"> &#160;Providers</text>
<polygon fill="#fb8072" stroke="transparent" points="1327.5,-10 1327.5,-30 1347.5,-30 1347.5,-10 1327.5,-10"/>
<text text-anchor="start" x="1351.23" y="-15.4" font-family="Times-12" font-size="14.00"> &#160;Exports</text>
<g id="clust1" class="cluster">
<title>cluster_ExternalToolModule</title>
<polygon fill="none" stroke="black" stroke-dasharray="1,5" points="8,-70 8,-268 2331,-268 2331,-70 8,-70"/>
</g>
<g id="clust3" class="cluster">
<title>cluster_ExternalToolModule_imports</title>
<polygon fill="none" stroke="black" points="1567,-78 1567,-130 2323,-130 2323,-78 1567,-78"/>
</g>
<g id="clust6" class="cluster">
<title>cluster_ExternalToolModule_providers</title>
<polygon fill="none" stroke="black" points="16,-78 16,-130 1559,-130 1559,-78 16,-78"/>
</g>
<g id="clust4" class="cluster">
<title>cluster_ExternalToolModule_exports</title>
<polygon fill="none" stroke="black" points="1077,-208 1077,-260 1639,-260 1639,-208 1077,-208"/>
</g>
<!-- CommonToolModule -->
<g id="node1" class="node">
<title>CommonToolModule</title>
<polygon fill="#8dd3c7" stroke="black" points="2315.11,-122 2312.11,-126 2291.11,-126 2288.11,-122 2176.89,-122 2176.89,-86 2315.11,-86 2315.11,-122"/>
<text text-anchor="middle" x="2246" y="-99.8" font-family="Times,serif" font-size="14.00">CommonToolModule</text>
</g>
<!-- ExternalToolModule -->
<g id="node6" class="node">
<title>ExternalToolModule</title>
<polygon fill="#8dd3c7" stroke="black" points="1446.92,-187 1443.92,-191 1422.92,-191 1419.92,-187 1313.08,-187 1313.08,-151 1446.92,-151 1446.92,-187"/>
<text text-anchor="middle" x="1380" y="-164.8" font-family="Times,serif" font-size="14.00">ExternalToolModule</text>
</g>
<!-- CommonToolModule&#45;&gt;ExternalToolModule -->
<g id="edge1" class="edge">
<title>CommonToolModule&#45;&gt;ExternalToolModule</title>
<path fill="none" stroke="black" d="M2246,-122.04C2246,-143.66 2246,-177 2246,-177 2246,-177 1456.87,-177 1456.87,-177"/>
<polygon fill="black" stroke="black" points="1456.87,-173.5 1446.87,-177 1456.87,-180.5 1456.87,-173.5"/>
</g>
<!-- EncryptionModule -->
<g id="node2" class="node">
<title>EncryptionModule</title>
<polygon fill="#8dd3c7" stroke="black" points="2158.76,-122 2155.76,-126 2134.76,-126 2131.76,-122 2037.24,-122 2037.24,-86 2158.76,-86 2158.76,-122"/>
<text text-anchor="middle" x="2098" y="-99.8" font-family="Times,serif" font-size="14.00">EncryptionModule</text>
</g>
<!-- EncryptionModule&#45;&gt;ExternalToolModule -->
<g id="edge2" class="edge">
<title>EncryptionModule&#45;&gt;ExternalToolModule</title>
<path fill="none" stroke="black" d="M2098,-122.22C2098,-142.37 2098,-172 2098,-172 2098,-172 1456.9,-172 1456.9,-172"/>
<polygon fill="black" stroke="black" points="1456.9,-168.5 1446.9,-172 1456.9,-175.5 1456.9,-168.5"/>
</g>
<!-- LoggerModule -->
<g id="node3" class="node">
<title>LoggerModule</title>
<polygon fill="#8dd3c7" stroke="black" points="2018.98,-122 2015.98,-126 1994.98,-126 1991.98,-122 1919.02,-122 1919.02,-86 2018.98,-86 2018.98,-122"/>
<text text-anchor="middle" x="1969" y="-99.8" font-family="Times,serif" font-size="14.00">LoggerModule</text>
</g>
<!-- LoggerModule&#45;&gt;ExternalToolModule -->
<g id="edge3" class="edge">
<title>LoggerModule&#45;&gt;ExternalToolModule</title>
<path fill="none" stroke="black" d="M1969,-122.22C1969,-140.83 1969,-167 1969,-167 1969,-167 1456.99,-167 1456.99,-167"/>
<polygon fill="black" stroke="black" points="1456.99,-163.5 1446.99,-167 1456.99,-170.5 1456.99,-163.5"/>
</g>
<!-- OauthProviderServiceModule -->
<g id="node4" class="node">
<title>OauthProviderServiceModule</title>
<polygon fill="#8dd3c7" stroke="black" points="1900.95,-122 1897.95,-126 1876.95,-126 1873.95,-122 1717.05,-122 1717.05,-86 1900.95,-86 1900.95,-122"/>
<text text-anchor="middle" x="1809" y="-99.8" font-family="Times,serif" font-size="14.00">OauthProviderServiceModule</text>
</g>
<!-- OauthProviderServiceModule&#45;&gt;ExternalToolModule -->
<g id="edge4" class="edge">
<title>OauthProviderServiceModule&#45;&gt;ExternalToolModule</title>
<path fill="none" stroke="black" d="M1809,-122.03C1809,-139.06 1809,-162 1809,-162 1809,-162 1457.03,-162 1457.03,-162"/>
<polygon fill="black" stroke="black" points="1457.03,-158.5 1447.03,-162 1457.03,-165.5 1457.03,-158.5"/>
</g>
<!-- ToolConfigModule -->
<g id="node5" class="node">
<title>ToolConfigModule</title>
<polygon fill="#8dd3c7" stroke="black" points="1699.38,-122 1696.38,-126 1675.38,-126 1672.38,-122 1574.62,-122 1574.62,-86 1699.38,-86 1699.38,-122"/>
<text text-anchor="middle" x="1637" y="-99.8" font-family="Times,serif" font-size="14.00">ToolConfigModule</text>
</g>
<!-- ToolConfigModule&#45;&gt;ExternalToolModule -->
<g id="edge5" class="edge">
<title>ToolConfigModule&#45;&gt;ExternalToolModule</title>
<path fill="none" stroke="black" d="M1602.62,-122.24C1602.62,-137.57 1602.62,-157 1602.62,-157 1602.62,-157 1456.79,-157 1456.79,-157"/>
<polygon fill="black" stroke="black" points="1456.79,-153.5 1446.79,-157 1456.79,-160.5 1456.79,-153.5"/>
</g>
<!-- ExternalToolService  -->
<g id="node7" class="node">
<title>ExternalToolService </title>
<polygon fill="#fb8072" stroke="black" points="1630.84,-252 1495.16,-252 1495.16,-216 1630.84,-216 1630.84,-252"/>
<text text-anchor="middle" x="1563" y="-229.8" font-family="Times,serif" font-size="14.00">ExternalToolService </text>
</g>
<!-- ExternalToolModule&#45;&gt;ExternalToolService  -->
<g id="edge6" class="edge">
<title>ExternalToolModule&#45;&gt;ExternalToolService </title>
<path fill="none" stroke="black" stroke-dasharray="5,2" d="M1446.94,-182C1484.18,-182 1523.09,-182 1523.09,-182 1523.09,-182 1523.09,-205.81 1523.09,-205.81"/>
<polygon fill="black" stroke="black" points="1519.59,-205.81 1523.09,-215.81 1526.59,-205.81 1519.59,-205.81"/>
</g>
<!-- ExternalToolValidationService  -->
<g id="node8" class="node">
<title>ExternalToolValidationService </title>
<polygon fill="#fb8072" stroke="black" points="1477.44,-252 1282.56,-252 1282.56,-216 1477.44,-216 1477.44,-252"/>
<text text-anchor="middle" x="1380" y="-229.8" font-family="Times,serif" font-size="14.00">ExternalToolValidationService </text>
</g>
<!-- ExternalToolModule&#45;&gt;ExternalToolValidationService  -->
<g id="edge7" class="edge">
<title>ExternalToolModule&#45;&gt;ExternalToolValidationService </title>
<path fill="none" stroke="black" stroke-dasharray="5,2" d="M1380,-187.11C1380,-187.11 1380,-205.99 1380,-205.99"/>
<polygon fill="black" stroke="black" points="1376.5,-205.99 1380,-215.99 1383.5,-205.99 1376.5,-205.99"/>
</g>
<!-- ExternalToolVersionService  -->
<g id="node9" class="node">
<title>ExternalToolVersionService </title>
<polygon fill="#fb8072" stroke="black" points="1264.66,-252 1085.34,-252 1085.34,-216 1264.66,-216 1264.66,-252"/>
<text text-anchor="middle" x="1175" y="-229.8" font-family="Times,serif" font-size="14.00">ExternalToolVersionService </text>
</g>
<!-- ExternalToolModule&#45;&gt;ExternalToolVersionService  -->
<g id="edge8" class="edge">
<title>ExternalToolModule&#45;&gt;ExternalToolVersionService </title>
<path fill="none" stroke="black" stroke-dasharray="5,2" d="M1313.1,-182C1275.88,-182 1236.99,-182 1236.99,-182 1236.99,-182 1236.99,-205.81 1236.99,-205.81"/>
<polygon fill="black" stroke="black" points="1233.49,-205.81 1236.99,-215.81 1240.49,-205.81 1233.49,-205.81"/>
</g>
<!-- ExternalToolParameterValidationService -->
<g id="node10" class="node">
<title>ExternalToolParameterValidationService</title>
<ellipse fill="#fdb462" stroke="black" cx="1380" cy="-104" rx="170.7" ry="18"/>
<text text-anchor="middle" x="1380" y="-99.8" font-family="Times,serif" font-size="14.00">ExternalToolParameterValidationService</text>
</g>
<!-- ExternalToolParameterValidationService&#45;&gt;ExternalToolModule -->
<g id="edge9" class="edge">
<title>ExternalToolParameterValidationService&#45;&gt;ExternalToolModule</title>
<path fill="none" stroke="black" d="M1380,-122.11C1380,-122.11 1380,-140.99 1380,-140.99"/>
<polygon fill="black" stroke="black" points="1376.5,-140.99 1380,-150.99 1383.5,-140.99 1376.5,-140.99"/>
</g>
<!-- ExternalToolRepo -->
<g id="node11" class="node">
<title>ExternalToolRepo</title>
<ellipse fill="#fdb462" stroke="black" cx="1109" cy="-104" rx="82.24" ry="18"/>
<text text-anchor="middle" x="1109" y="-99.8" font-family="Times,serif" font-size="14.00">ExternalToolRepo</text>
</g>
<!-- ExternalToolRepo&#45;&gt;ExternalToolModule -->
<g id="edge10" class="edge">
<title>ExternalToolRepo&#45;&gt;ExternalToolModule</title>
<path fill="none" stroke="black" d="M1138.27,-121.06C1138.27,-136.55 1138.27,-157 1138.27,-157 1138.27,-157 1302.99,-157 1302.99,-157"/>
<polygon fill="black" stroke="black" points="1302.99,-160.5 1312.99,-157 1302.99,-153.5 1302.99,-160.5"/>
</g>
<!-- ExternalToolService -->
<g id="node12" class="node">
<title>ExternalToolService</title>
<ellipse fill="#fdb462" stroke="black" cx="918" cy="-104" rx="90.89" ry="18"/>
<text text-anchor="middle" x="918" y="-99.8" font-family="Times,serif" font-size="14.00">ExternalToolService</text>
</g>
<!-- ExternalToolService&#45;&gt;ExternalToolModule -->
<g id="edge11" class="edge">
<title>ExternalToolService&#45;&gt;ExternalToolModule</title>
<path fill="none" stroke="black" d="M918,-122.03C918,-139.06 918,-162 918,-162 918,-162 1302.82,-162 1302.82,-162"/>
<polygon fill="black" stroke="black" points="1302.82,-165.5 1312.82,-162 1302.82,-158.5 1302.82,-165.5"/>
</g>
<!-- ExternalToolServiceMapper -->
<g id="node13" class="node">
<title>ExternalToolServiceMapper</title>
<ellipse fill="#fdb462" stroke="black" cx="688" cy="-104" rx="120.95" ry="18"/>
<text text-anchor="middle" x="688" y="-99.8" font-family="Times,serif" font-size="14.00">ExternalToolServiceMapper</text>
</g>
<!-- ExternalToolServiceMapper&#45;&gt;ExternalToolModule -->
<g id="edge12" class="edge">
<title>ExternalToolServiceMapper&#45;&gt;ExternalToolModule</title>
<path fill="none" stroke="black" d="M688,-122.22C688,-140.83 688,-167 688,-167 688,-167 1303.02,-167 1303.02,-167"/>
<polygon fill="black" stroke="black" points="1303.02,-170.5 1313.02,-167 1303.02,-163.5 1303.02,-170.5"/>
</g>
<!-- ExternalToolValidationService -->
<g id="node14" class="node">
<title>ExternalToolValidationService</title>
<ellipse fill="#fdb462" stroke="black" cx="417" cy="-104" rx="131.92" ry="18"/>
<text text-anchor="middle" x="417" y="-99.8" font-family="Times,serif" font-size="14.00">ExternalToolValidationService</text>
</g>
<!-- ExternalToolValidationService&#45;&gt;ExternalToolModule -->
<g id="edge13" class="edge">
<title>ExternalToolValidationService&#45;&gt;ExternalToolModule</title>
<path fill="none" stroke="black" d="M417,-122.22C417,-142.37 417,-172 417,-172 417,-172 1303.05,-172 1303.05,-172"/>
<polygon fill="black" stroke="black" points="1303.05,-175.5 1313.05,-172 1303.05,-168.5 1303.05,-175.5"/>
</g>
<!-- ExternalToolVersionService -->
<g id="node15" class="node">
<title>ExternalToolVersionService</title>
<ellipse fill="#fdb462" stroke="black" cx="146" cy="-104" rx="121.53" ry="18"/>
<text text-anchor="middle" x="146" y="-99.8" font-family="Times,serif" font-size="14.00">ExternalToolVersionService</text>
</g>
<!-- ExternalToolVersionService&#45;&gt;ExternalToolModule -->
<g id="edge14" class="edge">
<title>ExternalToolVersionService&#45;&gt;ExternalToolModule</title>
<path fill="none" stroke="black" d="M146,-122.04C146,-143.66 146,-177 146,-177 146,-177 1303.22,-177 1303.22,-177"/>
<polygon fill="black" stroke="black" points="1303.22,-180.5 1313.22,-177 1303.22,-173.5 1303.22,-180.5"/>
</g>
</g>
</svg>
