<?xml version="1.0" encoding="UTF-8" standalone="no"?>
<!DOCTYPE svg PUBLIC "-//W3C//DTD SVG 1.1//EN"
 "http://www.w3.org/Graphics/SVG/1.1/DTD/svg11.dtd">
<!-- Generated by graphviz version 2.47.0 (20210316.0004)
 -->
<!-- Title: dependencies Pages: 1 -->
<svg width="2205pt" height="284pt"
 viewBox="0.00 0.00 2205.00 284.00" xmlns="http://www.w3.org/2000/svg" xmlns:xlink="http://www.w3.org/1999/xlink">
<g id="graph0" class="graph" transform="scale(1 1) rotate(0) translate(4 280)">
<title>dependencies</title>
<polygon fill="white" stroke="transparent" points="-4,4 -4,-280 2201,-280 2201,4 -4,4"/>
<text text-anchor="start" x="1077.51" y="-42.4" font-family="Times-12" font-weight="bold" font-size="14.00">Legend</text>
<polygon fill="#ffffb3" stroke="transparent" points="864.5,-10 864.5,-30 884.5,-30 884.5,-10 864.5,-10"/>
<text text-anchor="start" x="888.13" y="-15.4" font-family="Times-12" font-size="14.00"> &#160;Declarations</text>
<polygon fill="#8dd3c7" stroke="transparent" points="977.5,-10 977.5,-30 997.5,-30 997.5,-10 977.5,-10"/>
<text text-anchor="start" x="1001.23" y="-15.4" font-family="Times-12" font-size="14.00"> &#160;Module</text>
<polygon fill="#80b1d3" stroke="transparent" points="1063.5,-10 1063.5,-30 1083.5,-30 1083.5,-10 1063.5,-10"/>
<text text-anchor="start" x="1087.28" y="-15.4" font-family="Times-12" font-size="14.00"> &#160;Bootstrap</text>
<polygon fill="#fdb462" stroke="transparent" points="1160.5,-10 1160.5,-30 1180.5,-30 1180.5,-10 1160.5,-10"/>
<text text-anchor="start" x="1184.17" y="-15.4" font-family="Times-12" font-size="14.00"> &#160;Providers</text>
<polygon fill="#fb8072" stroke="transparent" points="1256.5,-10 1256.5,-30 1276.5,-30 1276.5,-10 1256.5,-10"/>
<text text-anchor="start" x="1280.23" y="-15.4" font-family="Times-12" font-size="14.00"> &#160;Exports</text>
<g id="clust1" class="cluster">
<title>cluster_ExternalToolModule</title>
<polygon fill="none" stroke="black" stroke-dasharray="1,5" points="8,-70 8,-268 2189,-268 2189,-70 8,-70"/>
</g>
<g id="clust6" class="cluster">
<title>cluster_ExternalToolModule_providers</title>
<polygon fill="none" stroke="black" points="638,-78 638,-130 2181,-130 2181,-78 638,-78"/>
</g>
<g id="clust4" class="cluster">
<title>cluster_ExternalToolModule_exports</title>
<polygon fill="none" stroke="black" points="600,-208 600,-260 1162,-260 1162,-208 600,-208"/>
</g>
<g id="clust3" class="cluster">
<title>cluster_ExternalToolModule_imports</title>
<polygon fill="none" stroke="black" points="16,-78 16,-130 630,-130 630,-78 16,-78"/>
</g>
<!-- CommonToolModule -->
<g id="node1" class="node">
<title>CommonToolModule</title>
<polygon fill="#8dd3c7" stroke="black" points="622.11,-122 619.11,-126 598.11,-126 595.11,-122 483.89,-122 483.89,-86 622.11,-86 622.11,-122"/>
<text text-anchor="middle" x="553" y="-99.8" font-family="Times,serif" font-size="14.00">CommonToolModule</text>
</g>
<!-- ExternalToolModule -->
<g id="node5" class="node">
<title>ExternalToolModule</title>
<polygon fill="#8dd3c7" stroke="black" points="969.92,-187 966.92,-191 945.92,-191 942.92,-187 836.08,-187 836.08,-151 969.92,-151 969.92,-187"/>
<text text-anchor="middle" x="903" y="-164.8" font-family="Times,serif" font-size="14.00">ExternalToolModule</text>
</g>
<!-- CommonToolModule&#45;&gt;ExternalToolModule -->
<g id="edge1" class="edge">
<title>CommonToolModule&#45;&gt;ExternalToolModule</title>
<path fill="none" stroke="black" d="M615.11,-122.24C615.11,-137.57 615.11,-157 615.11,-157 615.11,-157 826.23,-157 826.23,-157"/>
<polygon fill="black" stroke="black" points="826.23,-160.5 836.23,-157 826.23,-153.5 826.23,-160.5"/>
</g>
<!-- EncryptionModule -->
<g id="node2" class="node">
<title>EncryptionModule</title>
<polygon fill="#8dd3c7" stroke="black" points="465.76,-122 462.76,-126 441.76,-126 438.76,-122 344.24,-122 344.24,-86 465.76,-86 465.76,-122"/>
<text text-anchor="middle" x="405" y="-99.8" font-family="Times,serif" font-size="14.00">EncryptionModule</text>
</g>
<!-- EncryptionModule&#45;&gt;ExternalToolModule -->
<g id="edge2" class="edge">
<title>EncryptionModule&#45;&gt;ExternalToolModule</title>
<path fill="none" stroke="black" d="M405,-122.02C405,-139.37 405,-163 405,-163 405,-163 826.1,-163 826.1,-163"/>
<polygon fill="black" stroke="black" points="826.1,-166.5 836.1,-163 826.1,-159.5 826.1,-166.5"/>
</g>
<!-- LoggerModule -->
<g id="node3" class="node">
<title>LoggerModule</title>
<polygon fill="#8dd3c7" stroke="black" points="325.98,-122 322.98,-126 301.98,-126 298.98,-122 226.02,-122 226.02,-86 325.98,-86 325.98,-122"/>
<text text-anchor="middle" x="276" y="-99.8" font-family="Times,serif" font-size="14.00">LoggerModule</text>
</g>
<!-- LoggerModule&#45;&gt;ExternalToolModule -->
<g id="edge3" class="edge">
<title>LoggerModule&#45;&gt;ExternalToolModule</title>
<path fill="none" stroke="black" d="M276,-122.11C276,-141.34 276,-169 276,-169 276,-169 826.2,-169 826.2,-169"/>
<polygon fill="black" stroke="black" points="826.2,-172.5 836.2,-169 826.2,-165.5 826.2,-172.5"/>
</g>
<!-- OauthProviderServiceModule -->
<g id="node4" class="node">
<title>OauthProviderServiceModule</title>
<polygon fill="#8dd3c7" stroke="black" points="207.95,-122 204.95,-126 183.95,-126 180.95,-122 24.05,-122 24.05,-86 207.95,-86 207.95,-122"/>
<text text-anchor="middle" x="116" y="-99.8" font-family="Times,serif" font-size="14.00">OauthProviderServiceModule</text>
</g>
<!-- OauthProviderServiceModule&#45;&gt;ExternalToolModule -->
<g id="edge4" class="edge">
<title>OauthProviderServiceModule&#45;&gt;ExternalToolModule</title>
<path fill="none" stroke="black" d="M116,-122.28C116,-143.32 116,-175 116,-175 116,-175 826.24,-175 826.24,-175"/>
<polygon fill="black" stroke="black" points="826.24,-178.5 836.24,-175 826.24,-171.5 826.24,-178.5"/>
</g>
<!-- ExternalToolService  -->
<g id="node6" class="node">
<title>ExternalToolService </title>
<polygon fill="#fb8072" stroke="black" points="1153.84,-252 1018.16,-252 1018.16,-216 1153.84,-216 1153.84,-252"/>
<text text-anchor="middle" x="1086" y="-229.8" font-family="Times,serif" font-size="14.00">ExternalToolService </text>
</g>
<!-- ExternalToolModule&#45;&gt;ExternalToolService  -->
<g id="edge5" class="edge">
<title>ExternalToolModule&#45;&gt;ExternalToolService </title>
<path fill="none" stroke="black" stroke-dasharray="5,2" d="M969.84,-181C1022.12,-181 1086,-181 1086,-181 1086,-181 1086,-205.76 1086,-205.76"/>
<polygon fill="black" stroke="black" points="1082.5,-205.76 1086,-215.76 1089.5,-205.76 1082.5,-205.76"/>
</g>
<!-- ExternalToolValidationService  -->
<g id="node7" class="node">
<title>ExternalToolValidationService </title>
<polygon fill="#fb8072" stroke="black" points="1000.44,-252 805.56,-252 805.56,-216 1000.44,-216 1000.44,-252"/>
<text text-anchor="middle" x="903" y="-229.8" font-family="Times,serif" font-size="14.00">ExternalToolValidationService </text>
</g>
<!-- ExternalToolModule&#45;&gt;ExternalToolValidationService  -->
<g id="edge6" class="edge">
<title>ExternalToolModule&#45;&gt;ExternalToolValidationService </title>
<path fill="none" stroke="black" stroke-dasharray="5,2" d="M903,-187.11C903,-187.11 903,-205.99 903,-205.99"/>
<polygon fill="black" stroke="black" points="899.5,-205.99 903,-215.99 906.5,-205.99 899.5,-205.99"/>
</g>
<!-- ExternalToolVersionService  -->
<g id="node8" class="node">
<title>ExternalToolVersionService </title>
<polygon fill="#fb8072" stroke="black" points="787.66,-252 608.34,-252 608.34,-216 787.66,-216 787.66,-252"/>
<text text-anchor="middle" x="698" y="-229.8" font-family="Times,serif" font-size="14.00">ExternalToolVersionService </text>
</g>
<!-- ExternalToolModule&#45;&gt;ExternalToolVersionService  -->
<g id="edge7" class="edge">
<title>ExternalToolModule&#45;&gt;ExternalToolVersionService </title>
<path fill="none" stroke="black" stroke-dasharray="5,2" d="M836.17,-181C782.89,-181 717.16,-181 717.16,-181 717.16,-181 717.16,-205.76 717.16,-205.76"/>
<polygon fill="black" stroke="black" points="713.66,-205.76 717.16,-215.76 720.66,-205.76 713.66,-205.76"/>
</g>
<!-- ExternalToolParameterValidationService -->
<g id="node9" class="node">
<title>ExternalToolParameterValidationService</title>
<ellipse fill="#fdb462" stroke="black" cx="2002" cy="-104" rx="170.7" ry="18"/>
<text text-anchor="middle" x="2002" y="-99.8" font-family="Times,serif" font-size="14.00">ExternalToolParameterValidationService</text>
</g>
<!-- ExternalToolParameterValidationService&#45;&gt;ExternalToolModule -->
<g id="edge8" class="edge">
<title>ExternalToolParameterValidationService&#45;&gt;ExternalToolModule</title>
<path fill="none" stroke="black" d="M2002,-122.28C2002,-143.32 2002,-175 2002,-175 2002,-175 980.09,-175 980.09,-175"/>
<polygon fill="black" stroke="black" points="980.09,-171.5 970.09,-175 980.09,-178.5 980.09,-171.5"/>
</g>
<!-- ExternalToolRepo -->
<g id="node10" class="node">
<title>ExternalToolRepo</title>
<ellipse fill="#fdb462" stroke="black" cx="1731" cy="-104" rx="82.24" ry="18"/>
<text text-anchor="middle" x="1731" y="-99.8" font-family="Times,serif" font-size="14.00">ExternalToolRepo</text>
</g>
<!-- ExternalToolRepo&#45;&gt;ExternalToolModule -->
<g id="edge9" class="edge">
<title>ExternalToolRepo&#45;&gt;ExternalToolModule</title>
<path fill="none" stroke="black" d="M1731,-122.11C1731,-141.34 1731,-169 1731,-169 1731,-169 980.06,-169 980.06,-169"/>
<polygon fill="black" stroke="black" points="980.06,-165.5 970.06,-169 980.06,-172.5 980.06,-165.5"/>
</g>
<!-- ExternalToolService -->
<g id="node11" class="node">
<title>ExternalToolService</title>
<ellipse fill="#fdb462" stroke="black" cx="1540" cy="-104" rx="90.89" ry="18"/>
<text text-anchor="middle" x="1540" y="-99.8" font-family="Times,serif" font-size="14.00">ExternalToolService</text>
</g>
<!-- ExternalToolService&#45;&gt;ExternalToolModule -->
<g id="edge10" class="edge">
<title>ExternalToolService&#45;&gt;ExternalToolModule</title>
<path fill="none" stroke="black" d="M1540,-122.02C1540,-139.37 1540,-163 1540,-163 1540,-163 979.97,-163 979.97,-163"/>
<polygon fill="black" stroke="black" points="979.97,-159.5 969.97,-163 979.97,-166.5 979.97,-159.5"/>
</g>
<!-- ExternalToolServiceMapper -->
<g id="node12" class="node">
<title>ExternalToolServiceMapper</title>
<ellipse fill="#fdb462" stroke="black" cx="1310" cy="-104" rx="120.95" ry="18"/>
<text text-anchor="middle" x="1310" y="-99.8" font-family="Times,serif" font-size="14.00">ExternalToolServiceMapper</text>
</g>
<!-- ExternalToolServiceMapper&#45;&gt;ExternalToolModule -->
<g id="edge11" class="edge">
<title>ExternalToolServiceMapper&#45;&gt;ExternalToolModule</title>
<path fill="none" stroke="black" d="M1310,-122.24C1310,-137.57 1310,-157 1310,-157 1310,-157 979.75,-157 979.75,-157"/>
<polygon fill="black" stroke="black" points="979.75,-153.5 969.75,-157 979.75,-160.5 979.75,-153.5"/>
</g>
<!-- ExternalToolValidationService -->
<g id="node13" class="node">
<title>ExternalToolValidationService</title>
<ellipse fill="#fdb462" stroke="black" cx="1039" cy="-104" rx="131.92" ry="18"/>
<text text-anchor="middle" x="1039" y="-99.8" font-family="Times,serif" font-size="14.00">ExternalToolValidationService</text>
</g>
<!-- ExternalToolValidationService&#45;&gt;ExternalToolModule -->
<g id="edge12" class="edge">
<title>ExternalToolValidationService&#45;&gt;ExternalToolModule</title>
<path fill="none" stroke="black" d="M938.5,-115.92C938.5,-115.92 938.5,-140.77 938.5,-140.77"/>
<polygon fill="black" stroke="black" points="935,-140.77 938.5,-150.77 942,-140.77 935,-140.77"/>
</g>
<!-- ExternalToolVersionService -->
<g id="node14" class="node">
<title>ExternalToolVersionService</title>
<ellipse fill="#fdb462" stroke="black" cx="768" cy="-104" rx="121.53" ry="18"/>
<text text-anchor="middle" x="768" y="-99.8" font-family="Times,serif" font-size="14.00">ExternalToolVersionService</text>
</g>
<!-- ExternalToolVersionService&#45;&gt;ExternalToolModule -->
<g id="edge13" class="edge">
<title>ExternalToolVersionService&#45;&gt;ExternalToolModule</title>
<path fill="none" stroke="black" d="M862.9,-115.32C862.9,-115.32 862.9,-140.94 862.9,-140.94"/>
<polygon fill="black" stroke="black" points="859.4,-140.94 862.9,-150.94 866.4,-140.94 859.4,-140.94"/>
</g>
</g>
</svg>
