<?xml version="1.0" encoding="UTF-8" standalone="no"?>
<!DOCTYPE svg PUBLIC "-//W3C//DTD SVG 1.1//EN"
 "http://www.w3.org/Graphics/SVG/1.1/DTD/svg11.dtd">
<!-- Generated by graphviz version 2.47.0 (20210316.0004)
 -->
<!-- Title: dependencies Pages: 1 -->
<svg width="2205pt" height="284pt"
 viewBox="0.00 0.00 2205.00 284.00" xmlns="http://www.w3.org/2000/svg" xmlns:xlink="http://www.w3.org/1999/xlink">
<g id="graph0" class="graph" transform="scale(1 1) rotate(0) translate(4 280)">
<title>dependencies</title>
<polygon fill="white" stroke="transparent" points="-4,4 -4,-280 2201,-280 2201,4 -4,4"/>
<text text-anchor="start" x="1077.51" y="-42.4" font-family="Times-12" font-weight="bold" font-size="14.00">Legend</text>
<polygon fill="#ffffb3" stroke="transparent" points="864.5,-10 864.5,-30 884.5,-30 884.5,-10 864.5,-10"/>
<text text-anchor="start" x="888.13" y="-15.4" font-family="Times-12" font-size="14.00"> &#160;Declarations</text>
<polygon fill="#8dd3c7" stroke="transparent" points="977.5,-10 977.5,-30 997.5,-30 997.5,-10 977.5,-10"/>
<text text-anchor="start" x="1001.23" y="-15.4" font-family="Times-12" font-size="14.00"> &#160;Module</text>
<polygon fill="#80b1d3" stroke="transparent" points="1063.5,-10 1063.5,-30 1083.5,-30 1083.5,-10 1063.5,-10"/>
<text text-anchor="start" x="1087.28" y="-15.4" font-family="Times-12" font-size="14.00"> &#160;Bootstrap</text>
<polygon fill="#fdb462" stroke="transparent" points="1160.5,-10 1160.5,-30 1180.5,-30 1180.5,-10 1160.5,-10"/>
<text text-anchor="start" x="1184.17" y="-15.4" font-family="Times-12" font-size="14.00"> &#160;Providers</text>
<polygon fill="#fb8072" stroke="transparent" points="1256.5,-10 1256.5,-30 1276.5,-30 1276.5,-10 1256.5,-10"/>
<text text-anchor="start" x="1280.23" y="-15.4" font-family="Times-12" font-size="14.00"> &#160;Exports</text>
<g id="clust1" class="cluster">
<title>cluster_ExternalToolModule</title>
<polygon fill="none" stroke="black" stroke-dasharray="1,5" points="8,-70 8,-268 2189,-268 2189,-70 8,-70"/>
</g>
<g id="clust4" class="cluster">
<title>cluster_ExternalToolModule_exports</title>
<polygon fill="none" stroke="black" points="941,-208 941,-260 1503,-260 1503,-208 941,-208"/>
</g>
<g id="clust3" class="cluster">
<title>cluster_ExternalToolModule_imports</title>
<polygon fill="none" stroke="black" points="1567,-78 1567,-130 2181,-130 2181,-78 1567,-78"/>
</g>
<g id="clust6" class="cluster">
<title>cluster_ExternalToolModule_providers</title>
<polygon fill="none" stroke="black" points="16,-78 16,-130 1559,-130 1559,-78 16,-78"/>
</g>
<!-- CommonToolModule -->
<g id="node1" class="node">
<title>CommonToolModule</title>
<polygon fill="#8dd3c7" stroke="black" points="2173.11,-122 2170.11,-126 2149.11,-126 2146.11,-122 2034.89,-122 2034.89,-86 2173.11,-86 2173.11,-122"/>
<text text-anchor="middle" x="2104" y="-99.8" font-family="Times,serif" font-size="14.00">CommonToolModule</text>
</g>
<!-- ExternalToolModule -->
<g id="node5" class="node">
<title>ExternalToolModule</title>
<polygon fill="#8dd3c7" stroke="black" points="1310.92,-187 1307.92,-191 1286.92,-191 1283.92,-187 1177.08,-187 1177.08,-151 1310.92,-151 1310.92,-187"/>
<text text-anchor="middle" x="1244" y="-164.8" font-family="Times,serif" font-size="14.00">ExternalToolModule</text>
</g>
<!-- CommonToolModule&#45;&gt;ExternalToolModule -->
<g id="edge1" class="edge">
<title>CommonToolModule&#45;&gt;ExternalToolModule</title>
<path fill="none" stroke="black" d="M2104,-122.28C2104,-143.32 2104,-175 2104,-175 2104,-175 1320.77,-175 1320.77,-175"/>
<polygon fill="black" stroke="black" points="1320.77,-171.5 1310.77,-175 1320.77,-178.5 1320.77,-171.5"/>
</g>
<!-- EncryptionModule -->
<g id="node2" class="node">
<title>EncryptionModule</title>
<polygon fill="#8dd3c7" stroke="black" points="2016.76,-122 2013.76,-126 1992.76,-126 1989.76,-122 1895.24,-122 1895.24,-86 2016.76,-86 2016.76,-122"/>
<text text-anchor="middle" x="1956" y="-99.8" font-family="Times,serif" font-size="14.00">EncryptionModule</text>
</g>
<!-- EncryptionModule&#45;&gt;ExternalToolModule -->
<g id="edge2" class="edge">
<title>EncryptionModule&#45;&gt;ExternalToolModule</title>
<path fill="none" stroke="black" d="M1956,-122.11C1956,-141.34 1956,-169 1956,-169 1956,-169 1320.98,-169 1320.98,-169"/>
<polygon fill="black" stroke="black" points="1320.98,-165.5 1310.98,-169 1320.98,-172.5 1320.98,-165.5"/>
</g>
<!-- LoggerModule -->
<g id="node3" class="node">
<title>LoggerModule</title>
<polygon fill="#8dd3c7" stroke="black" points="1876.98,-122 1873.98,-126 1852.98,-126 1849.98,-122 1777.02,-122 1777.02,-86 1876.98,-86 1876.98,-122"/>
<text text-anchor="middle" x="1827" y="-99.8" font-family="Times,serif" font-size="14.00">LoggerModule</text>
</g>
<!-- LoggerModule&#45;&gt;ExternalToolModule -->
<g id="edge3" class="edge">
<title>LoggerModule&#45;&gt;ExternalToolModule</title>
<path fill="none" stroke="black" d="M1827,-122.02C1827,-139.37 1827,-163 1827,-163 1827,-163 1320.88,-163 1320.88,-163"/>
<polygon fill="black" stroke="black" points="1320.88,-159.5 1310.88,-163 1320.88,-166.5 1320.88,-159.5"/>
</g>
<!-- OauthProviderServiceModule -->
<g id="node4" class="node">
<title>OauthProviderServiceModule</title>
<polygon fill="#8dd3c7" stroke="black" points="1758.95,-122 1755.95,-126 1734.95,-126 1731.95,-122 1575.05,-122 1575.05,-86 1758.95,-86 1758.95,-122"/>
<text text-anchor="middle" x="1667" y="-99.8" font-family="Times,serif" font-size="14.00">OauthProviderServiceModule</text>
</g>
<!-- OauthProviderServiceModule&#45;&gt;ExternalToolModule -->
<g id="edge4" class="edge">
<title>OauthProviderServiceModule&#45;&gt;ExternalToolModule</title>
<path fill="none" stroke="black" d="M1667,-122.24C1667,-137.57 1667,-157 1667,-157 1667,-157 1321.03,-157 1321.03,-157"/>
<polygon fill="black" stroke="black" points="1321.03,-153.5 1311.03,-157 1321.03,-160.5 1321.03,-153.5"/>
</g>
<!-- ExternalToolService  -->
<g id="node6" class="node">
<title>ExternalToolService </title>
<polygon fill="#fb8072" stroke="black" points="1494.84,-252 1359.16,-252 1359.16,-216 1494.84,-216 1494.84,-252"/>
<text text-anchor="middle" x="1427" y="-229.8" font-family="Times,serif" font-size="14.00">ExternalToolService </text>
</g>
<!-- ExternalToolModule&#45;&gt;ExternalToolService  -->
<g id="edge5" class="edge">
<title>ExternalToolModule&#45;&gt;ExternalToolService </title>
<path fill="none" stroke="black" stroke-dasharray="5,2" d="M1310.84,-181C1363.12,-181 1427,-181 1427,-181 1427,-181 1427,-205.76 1427,-205.76"/>
<polygon fill="black" stroke="black" points="1423.5,-205.76 1427,-215.76 1430.5,-205.76 1423.5,-205.76"/>
</g>
<!-- ExternalToolValidationService  -->
<g id="node7" class="node">
<title>ExternalToolValidationService </title>
<polygon fill="#fb8072" stroke="black" points="1341.44,-252 1146.56,-252 1146.56,-216 1341.44,-216 1341.44,-252"/>
<text text-anchor="middle" x="1244" y="-229.8" font-family="Times,serif" font-size="14.00">ExternalToolValidationService </text>
</g>
<!-- ExternalToolModule&#45;&gt;ExternalToolValidationService  -->
<g id="edge6" class="edge">
<title>ExternalToolModule&#45;&gt;ExternalToolValidationService </title>
<path fill="none" stroke="black" stroke-dasharray="5,2" d="M1244,-187.11C1244,-187.11 1244,-205.99 1244,-205.99"/>
<polygon fill="black" stroke="black" points="1240.5,-205.99 1244,-215.99 1247.5,-205.99 1240.5,-205.99"/>
</g>
<!-- ExternalToolVersionService  -->
<g id="node8" class="node">
<title>ExternalToolVersionService </title>
<polygon fill="#fb8072" stroke="black" points="1128.66,-252 949.34,-252 949.34,-216 1128.66,-216 1128.66,-252"/>
<text text-anchor="middle" x="1039" y="-229.8" font-family="Times,serif" font-size="14.00">ExternalToolVersionService </text>
</g>
<!-- ExternalToolModule&#45;&gt;ExternalToolVersionService  -->
<g id="edge7" class="edge">
<title>ExternalToolModule&#45;&gt;ExternalToolVersionService </title>
<path fill="none" stroke="black" stroke-dasharray="5,2" d="M1176.85,-181C1130.7,-181 1077.73,-181 1077.73,-181 1077.73,-181 1077.73,-205.76 1077.73,-205.76"/>
<polygon fill="black" stroke="black" points="1074.23,-205.76 1077.73,-215.76 1081.23,-205.76 1074.23,-205.76"/>
</g>
<!-- ExternalToolParameterValidationService -->
<g id="node9" class="node">
<title>ExternalToolParameterValidationService</title>
<ellipse fill="#fdb462" stroke="black" cx="1380" cy="-104" rx="170.7" ry="18"/>
<text text-anchor="middle" x="1380" y="-99.8" font-family="Times,serif" font-size="14.00">ExternalToolParameterValidationService</text>
</g>
<!-- ExternalToolParameterValidationService&#45;&gt;ExternalToolModule -->
<g id="edge8" class="edge">
<title>ExternalToolParameterValidationService&#45;&gt;ExternalToolModule</title>
<path fill="none" stroke="black" d="M1259.93,-116.84C1259.93,-116.84 1259.93,-140.52 1259.93,-140.52"/>
<polygon fill="black" stroke="black" points="1256.43,-140.52 1259.93,-150.52 1263.43,-140.52 1256.43,-140.52"/>
</g>
<!-- ExternalToolRepo -->
<g id="node10" class="node">
<title>ExternalToolRepo</title>
<ellipse fill="#fdb462" stroke="black" cx="1109" cy="-104" rx="82.24" ry="18"/>
<text text-anchor="middle" x="1109" y="-99.8" font-family="Times,serif" font-size="14.00">ExternalToolRepo</text>
</g>
<!-- ExternalToolRepo&#45;&gt;ExternalToolModule -->
<g id="edge9" class="edge">
<title>ExternalToolRepo&#45;&gt;ExternalToolModule</title>
<path fill="none" stroke="black" d="M1184.33,-111.46C1184.33,-111.46 1184.33,-140.84 1184.33,-140.84"/>
<polygon fill="black" stroke="black" points="1180.83,-140.84 1184.33,-150.84 1187.83,-140.84 1180.83,-140.84"/>
</g>
<!-- ExternalToolService -->
<g id="node11" class="node">
<title>ExternalToolService</title>
<ellipse fill="#fdb462" stroke="black" cx="918" cy="-104" rx="90.89" ry="18"/>
<text text-anchor="middle" x="918" y="-99.8" font-family="Times,serif" font-size="14.00">ExternalToolService</text>
</g>
<!-- ExternalToolService&#45;&gt;ExternalToolModule -->
<g id="edge10" class="edge">
<title>ExternalToolService&#45;&gt;ExternalToolModule</title>
<path fill="none" stroke="black" d="M979.06,-117.37C979.06,-133.07 979.06,-157 979.06,-157 979.06,-157 1167.14,-157 1167.14,-157"/>
<polygon fill="black" stroke="black" points="1167.14,-160.5 1177.14,-157 1167.14,-153.5 1167.14,-160.5"/>
</g>
<!-- ExternalToolServiceMapper -->
<g id="node12" class="node">
<title>ExternalToolServiceMapper</title>
<ellipse fill="#fdb462" stroke="black" cx="688" cy="-104" rx="120.95" ry="18"/>
<text text-anchor="middle" x="688" y="-99.8" font-family="Times,serif" font-size="14.00">ExternalToolServiceMapper</text>
</g>
<!-- ExternalToolServiceMapper&#45;&gt;ExternalToolModule -->
<g id="edge11" class="edge">
<title>ExternalToolServiceMapper&#45;&gt;ExternalToolModule</title>
<path fill="none" stroke="black" d="M688,-122.02C688,-139.37 688,-163 688,-163 688,-163 1167.21,-163 1167.21,-163"/>
<polygon fill="black" stroke="black" points="1167.21,-166.5 1177.21,-163 1167.21,-159.5 1167.21,-166.5"/>
</g>
<!-- ExternalToolValidationService -->
<g id="node13" class="node">
<title>ExternalToolValidationService</title>
<ellipse fill="#fdb462" stroke="black" cx="417" cy="-104" rx="131.92" ry="18"/>
<text text-anchor="middle" x="417" y="-99.8" font-family="Times,serif" font-size="14.00">ExternalToolValidationService</text>
</g>
<!-- ExternalToolValidationService&#45;&gt;ExternalToolModule -->
<g id="edge12" class="edge">
<title>ExternalToolValidationService&#45;&gt;ExternalToolModule</title>
<path fill="none" stroke="black" d="M417,-122.11C417,-141.34 417,-169 417,-169 417,-169 1167.02,-169 1167.02,-169"/>
<polygon fill="black" stroke="black" points="1167.02,-172.5 1177.02,-169 1167.02,-165.5 1167.02,-172.5"/>
</g>
<!-- ExternalToolVersionService -->
<g id="node14" class="node">
<title>ExternalToolVersionService</title>
<ellipse fill="#fdb462" stroke="black" cx="146" cy="-104" rx="121.53" ry="18"/>
<text text-anchor="middle" x="146" y="-99.8" font-family="Times,serif" font-size="14.00">ExternalToolVersionService</text>
</g>
<!-- ExternalToolVersionService&#45;&gt;ExternalToolModule -->
<g id="edge13" class="edge">
<title>ExternalToolVersionService&#45;&gt;ExternalToolModule</title>
<path fill="none" stroke="black" d="M146,-122.28C146,-143.32 146,-175 146,-175 146,-175 1166.97,-175 1166.97,-175"/>
<polygon fill="black" stroke="black" points="1166.97,-178.5 1176.97,-175 1166.97,-171.5 1166.97,-178.5"/>
</g>
</g>
</svg>
