<?xml version="1.0" encoding="UTF-8" standalone="no"?>
<!DOCTYPE svg PUBLIC "-//W3C//DTD SVG 1.1//EN"
 "http://www.w3.org/Graphics/SVG/1.1/DTD/svg11.dtd">
<!-- Generated by graphviz version 2.47.0 (20210316.0004)
 -->
<!-- Title: dependencies Pages: 1 -->
<svg width="2993pt" height="284pt"
 viewBox="0.00 0.00 2993.00 284.00" xmlns="http://www.w3.org/2000/svg" xmlns:xlink="http://www.w3.org/1999/xlink">
<g id="graph0" class="graph" transform="scale(1 1) rotate(0) translate(4 280)">
<title>dependencies</title>
<polygon fill="white" stroke="transparent" points="-4,4 -4,-280 2989,-280 2989,4 -4,4"/>
<text text-anchor="start" x="1471.51" y="-42.4" font-family="Times-12" font-weight="bold" font-size="14.00">Legend</text>
<polygon fill="#ffffb3" stroke="transparent" points="1258.5,-10 1258.5,-30 1278.5,-30 1278.5,-10 1258.5,-10"/>
<text text-anchor="start" x="1282.13" y="-15.4" font-family="Times-12" font-size="14.00"> &#160;Declarations</text>
<polygon fill="#8dd3c7" stroke="transparent" points="1371.5,-10 1371.5,-30 1391.5,-30 1391.5,-10 1371.5,-10"/>
<text text-anchor="start" x="1395.23" y="-15.4" font-family="Times-12" font-size="14.00"> &#160;Module</text>
<polygon fill="#80b1d3" stroke="transparent" points="1457.5,-10 1457.5,-30 1477.5,-30 1477.5,-10 1457.5,-10"/>
<text text-anchor="start" x="1481.28" y="-15.4" font-family="Times-12" font-size="14.00"> &#160;Bootstrap</text>
<polygon fill="#fdb462" stroke="transparent" points="1554.5,-10 1554.5,-30 1574.5,-30 1574.5,-10 1554.5,-10"/>
<text text-anchor="start" x="1578.17" y="-15.4" font-family="Times-12" font-size="14.00"> &#160;Providers</text>
<polygon fill="#fb8072" stroke="transparent" points="1650.5,-10 1650.5,-30 1670.5,-30 1670.5,-10 1650.5,-10"/>
<text text-anchor="start" x="1674.23" y="-15.4" font-family="Times-12" font-size="14.00"> &#160;Exports</text>
<g id="clust1" class="cluster">
<title>cluster_ExternalToolModule</title>
<polygon fill="none" stroke="black" stroke-dasharray="1,5" points="8,-70 8,-268 2977,-268 2977,-70 8,-70"/>
</g>
<g id="clust4" class="cluster">
<title>cluster_ExternalToolModule_exports</title>
<polygon fill="none" stroke="black" points="720,-208 720,-260 1878,-260 1878,-208 720,-208"/>
</g>
<g id="clust6" class="cluster">
<title>cluster_ExternalToolModule_providers</title>
<polygon fill="none" stroke="black" points="638,-78 638,-130 2969,-130 2969,-78 638,-78"/>
</g>
<g id="clust3" class="cluster">
<title>cluster_ExternalToolModule_imports</title>
<polygon fill="none" stroke="black" points="16,-78 16,-130 630,-130 630,-78 16,-78"/>
</g>
<!-- CommonToolModule -->
<g id="node1" class="node">
<title>CommonToolModule</title>
<polygon fill="#8dd3c7" stroke="black" points="622.11,-122 619.11,-126 598.11,-126 595.11,-122 483.89,-122 483.89,-86 622.11,-86 622.11,-122"/>
<text text-anchor="middle" x="553" y="-99.8" font-family="Times,serif" font-size="14.00">CommonToolModule</text>
</g>
<!-- ExternalToolModule -->
<g id="node5" class="node">
<title>ExternalToolModule</title>
<polygon fill="#8dd3c7" stroke="black" points="1345.92,-187 1342.92,-191 1321.92,-191 1318.92,-187 1212.08,-187 1212.08,-151 1345.92,-151 1345.92,-187"/>
<text text-anchor="middle" x="1279" y="-164.8" font-family="Times,serif" font-size="14.00">ExternalToolModule</text>
</g>
<!-- CommonToolModule&#45;&gt;ExternalToolModule -->
<g id="edge1" class="edge">
<title>CommonToolModule&#45;&gt;ExternalToolModule</title>
<path fill="none" stroke="black" d="M553,-122.02C553,-139.37 553,-163 553,-163 553,-163 1202,-163 1202,-163"/>
<polygon fill="black" stroke="black" points="1202,-166.5 1212,-163 1202,-159.5 1202,-166.5"/>
</g>
<!-- EncryptionModule -->
<g id="node2" class="node">
<title>EncryptionModule</title>
<polygon fill="#8dd3c7" stroke="black" points="465.76,-122 462.76,-126 441.76,-126 438.76,-122 344.24,-122 344.24,-86 465.76,-86 465.76,-122"/>
<text text-anchor="middle" x="405" y="-99.8" font-family="Times,serif" font-size="14.00">EncryptionModule</text>
</g>
<!-- EncryptionModule&#45;&gt;ExternalToolModule -->
<g id="edge2" class="edge">
<title>EncryptionModule&#45;&gt;ExternalToolModule</title>
<path fill="none" stroke="black" d="M405,-122.22C405,-140.83 405,-167 405,-167 405,-167 1202.23,-167 1202.23,-167"/>
<polygon fill="black" stroke="black" points="1202.23,-170.5 1212.23,-167 1202.23,-163.5 1202.23,-170.5"/>
</g>
<!-- LoggerModule -->
<g id="node3" class="node">
<title>LoggerModule</title>
<polygon fill="#8dd3c7" stroke="black" points="325.98,-122 322.98,-126 301.98,-126 298.98,-122 226.02,-122 226.02,-86 325.98,-86 325.98,-122"/>
<text text-anchor="middle" x="276" y="-99.8" font-family="Times,serif" font-size="14.00">LoggerModule</text>
</g>
<!-- LoggerModule&#45;&gt;ExternalToolModule -->
<g id="edge3" class="edge">
<title>LoggerModule&#45;&gt;ExternalToolModule</title>
<path fill="none" stroke="black" d="M276,-122.31C276,-142.15 276,-171 276,-171 276,-171 1202.02,-171 1202.02,-171"/>
<polygon fill="black" stroke="black" points="1202.02,-174.5 1212.02,-171 1202.02,-167.5 1202.02,-174.5"/>
</g>
<!-- OauthProviderServiceModule -->
<g id="node4" class="node">
<title>OauthProviderServiceModule</title>
<polygon fill="#8dd3c7" stroke="black" points="207.95,-122 204.95,-126 183.95,-126 180.95,-122 24.05,-122 24.05,-86 207.95,-86 207.95,-122"/>
<text text-anchor="middle" x="116" y="-99.8" font-family="Times,serif" font-size="14.00">OauthProviderServiceModule</text>
</g>
<!-- OauthProviderServiceModule&#45;&gt;ExternalToolModule -->
<g id="edge4" class="edge">
<title>OauthProviderServiceModule&#45;&gt;ExternalToolModule</title>
<path fill="none" stroke="black" d="M116,-122.28C116,-143.32 116,-175 116,-175 116,-175 1201.87,-175 1201.87,-175"/>
<polygon fill="black" stroke="black" points="1201.87,-178.5 1211.87,-175 1201.87,-171.5 1201.87,-178.5"/>
</g>
<!-- DatasheetPdfService  -->
<g id="node6" class="node">
<title>DatasheetPdfService </title>
<polygon fill="#fb8072" stroke="black" points="1870.11,-252 1733.89,-252 1733.89,-216 1870.11,-216 1870.11,-252"/>
<text text-anchor="middle" x="1802" y="-229.8" font-family="Times,serif" font-size="14.00">DatasheetPdfService </text>
</g>
<!-- ExternalToolModule&#45;&gt;DatasheetPdfService  -->
<g id="edge5" class="edge">
<title>ExternalToolModule&#45;&gt;DatasheetPdfService </title>
<path fill="none" stroke="black" stroke-dasharray="5,2" d="M1345.77,-179C1486.76,-179 1802,-179 1802,-179 1802,-179 1802,-205.99 1802,-205.99"/>
<polygon fill="black" stroke="black" points="1798.5,-205.99 1802,-215.99 1805.5,-205.99 1798.5,-205.99"/>
</g>
<!-- ExternalToolAuthorizableService  -->
<g id="node7" class="node">
<title>ExternalToolAuthorizableService </title>
<polygon fill="#fb8072" stroke="black" points="1716.43,-252 1507.57,-252 1507.57,-216 1716.43,-216 1716.43,-252"/>
<text text-anchor="middle" x="1612" y="-229.8" font-family="Times,serif" font-size="14.00">ExternalToolAuthorizableService </text>
</g>
<!-- ExternalToolModule&#45;&gt;ExternalToolAuthorizableService  -->
<g id="edge6" class="edge">
<title>ExternalToolModule&#45;&gt;ExternalToolAuthorizableService </title>
<path fill="none" stroke="black" stroke-dasharray="5,2" d="M1345.95,-183C1420.33,-183 1530.08,-183 1530.08,-183 1530.08,-183 1530.08,-205.88 1530.08,-205.88"/>
<polygon fill="black" stroke="black" points="1526.58,-205.88 1530.08,-215.88 1533.58,-205.88 1526.58,-205.88"/>
</g>
<!-- ExternalToolConfigurationService  -->
<g id="node8" class="node">
<title>ExternalToolConfigurationService </title>
<polygon fill="#fb8072" stroke="black" points="1489.89,-252 1276.11,-252 1276.11,-216 1489.89,-216 1489.89,-252"/>
<text text-anchor="middle" x="1383" y="-229.8" font-family="Times,serif" font-size="14.00">ExternalToolConfigurationService </text>
</g>
<!-- ExternalToolModule&#45;&gt;ExternalToolConfigurationService  -->
<g id="edge7" class="edge">
<title>ExternalToolModule&#45;&gt;ExternalToolConfigurationService </title>
<path fill="none" stroke="black" stroke-dasharray="5,2" d="M1310.88,-187.11C1310.88,-187.11 1310.88,-205.99 1310.88,-205.99"/>
<polygon fill="black" stroke="black" points="1307.38,-205.99 1310.88,-215.99 1314.38,-205.99 1307.38,-205.99"/>
</g>
<!-- ExternalToolLogoService  -->
<g id="node9" class="node">
<title>ExternalToolLogoService </title>
<polygon fill="#fb8072" stroke="black" points="1258.4,-252 1093.6,-252 1093.6,-216 1258.4,-216 1258.4,-252"/>
<text text-anchor="middle" x="1176" y="-229.8" font-family="Times,serif" font-size="14.00">ExternalToolLogoService </text>
</g>
<!-- ExternalToolModule&#45;&gt;ExternalToolLogoService  -->
<g id="edge8" class="edge">
<title>ExternalToolModule&#45;&gt;ExternalToolLogoService </title>
<path fill="none" stroke="black" stroke-dasharray="5,2" d="M1235.37,-187.11C1235.37,-187.11 1235.37,-205.99 1235.37,-205.99"/>
<polygon fill="black" stroke="black" points="1231.87,-205.99 1235.37,-215.99 1238.87,-205.99 1231.87,-205.99"/>
</g>
<!-- ExternalToolService  -->
<g id="node10" class="node">
<title>ExternalToolService </title>
<polygon fill="#fb8072" stroke="black" points="1075.84,-252 940.16,-252 940.16,-216 1075.84,-216 1075.84,-252"/>
<text text-anchor="middle" x="1008" y="-229.8" font-family="Times,serif" font-size="14.00">ExternalToolService </text>
</g>
<!-- ExternalToolModule&#45;&gt;ExternalToolService  -->
<g id="edge9" class="edge">
<title>ExternalToolModule&#45;&gt;ExternalToolService </title>
<path fill="none" stroke="black" stroke-dasharray="5,2" d="M1212.01,-183C1131.76,-183 1008,-183 1008,-183 1008,-183 1008,-205.88 1008,-205.88"/>
<polygon fill="black" stroke="black" points="1004.5,-205.88 1008,-215.88 1011.5,-205.88 1004.5,-205.88"/>
</g>
<!-- ExternalToolValidationService  -->
<g id="node11" class="node">
<title>ExternalToolValidationService </title>
<polygon fill="#fb8072" stroke="black" points="922.44,-252 727.56,-252 727.56,-216 922.44,-216 922.44,-252"/>
<text text-anchor="middle" x="825" y="-229.8" font-family="Times,serif" font-size="14.00">ExternalToolValidationService </text>
</g>
<!-- ExternalToolModule&#45;&gt;ExternalToolValidationService  -->
<g id="edge10" class="edge">
<title>ExternalToolModule&#45;&gt;ExternalToolValidationService </title>
<path fill="none" stroke="black" stroke-dasharray="5,2" d="M1211.99,-179C1107.09,-179 915.97,-179 915.97,-179 915.97,-179 915.97,-205.99 915.97,-205.99"/>
<polygon fill="black" stroke="black" points="912.47,-205.99 915.97,-215.99 919.47,-205.99 912.47,-205.99"/>
</g>
<!-- DatasheetPdfService -->
<g id="node12" class="node">
<title>DatasheetPdfService</title>
<ellipse fill="#fdb462" stroke="black" cx="2870" cy="-104" rx="91.45" ry="18"/>
<text text-anchor="middle" x="2870" y="-99.8" font-family="Times,serif" font-size="14.00">DatasheetPdfService</text>
</g>
<!-- DatasheetPdfService&#45;&gt;ExternalToolModule -->
<g id="edge11" class="edge">
<title>DatasheetPdfService&#45;&gt;ExternalToolModule</title>
<path fill="none" stroke="black" d="M2870,-122.28C2870,-143.32 2870,-175 2870,-175 2870,-175 1355.84,-175 1355.84,-175"/>
<polygon fill="black" stroke="black" points="1355.84,-171.5 1345.84,-175 1355.84,-178.5 1355.84,-171.5"/>
</g>
<!-- ExternalToolAuthorizableService -->
<g id="node13" class="node">
<title>ExternalToolAuthorizableService</title>
<ellipse fill="#fdb462" stroke="black" cx="2619" cy="-104" rx="141.21" ry="18"/>
<text text-anchor="middle" x="2619" y="-99.8" font-family="Times,serif" font-size="14.00">ExternalToolAuthorizableService</text>
</g>
<!-- ExternalToolAuthorizableService&#45;&gt;ExternalToolModule -->
<g id="edge12" class="edge">
<title>ExternalToolAuthorizableService&#45;&gt;ExternalToolModule</title>
<path fill="none" stroke="black" d="M2619,-122.31C2619,-142.15 2619,-171 2619,-171 2619,-171 1355.91,-171 1355.91,-171"/>
<polygon fill="black" stroke="black" points="1355.91,-167.5 1345.91,-171 1355.91,-174.5 1355.91,-167.5"/>
</g>
<!-- ExternalToolConfigurationService -->
<g id="node14" class="node">
<title>ExternalToolConfigurationService</title>
<ellipse fill="#fdb462" stroke="black" cx="2315" cy="-104" rx="145.24" ry="18"/>
<text text-anchor="middle" x="2315" y="-99.8" font-family="Times,serif" font-size="14.00">ExternalToolConfigurationService</text>
</g>
<!-- ExternalToolConfigurationService&#45;&gt;ExternalToolModule -->
<g id="edge13" class="edge">
<title>ExternalToolConfigurationService&#45;&gt;ExternalToolModule</title>
<path fill="none" stroke="black" d="M2315,-122.22C2315,-140.83 2315,-167 2315,-167 2315,-167 1355.78,-167 1355.78,-167"/>
<polygon fill="black" stroke="black" points="1355.78,-163.5 1345.78,-167 1355.78,-170.5 1355.78,-163.5"/>
</g>
<!-- ExternalToolLogoService -->
<g id="node15" class="node">
<title>ExternalToolLogoService</title>
<ellipse fill="#fdb462" stroke="black" cx="2041" cy="-104" rx="111.16" ry="18"/>
<text text-anchor="middle" x="2041" y="-99.8" font-family="Times,serif" font-size="14.00">ExternalToolLogoService</text>
</g>
<!-- ExternalToolLogoService&#45;&gt;ExternalToolModule -->
<g id="edge14" class="edge">
<title>ExternalToolLogoService&#45;&gt;ExternalToolModule</title>
<path fill="none" stroke="black" d="M2041,-122.02C2041,-139.37 2041,-163 2041,-163 2041,-163 1355.95,-163 1355.95,-163"/>
<polygon fill="black" stroke="black" points="1355.95,-159.5 1345.95,-163 1355.95,-166.5 1355.95,-159.5"/>
</g>
<!-- ExternalToolParameterValidationService -->
<g id="node16" class="node">
<title>ExternalToolParameterValidationService</title>
<ellipse fill="#fdb462" stroke="black" cx="1741" cy="-104" rx="170.7" ry="18"/>
<text text-anchor="middle" x="1741" y="-99.8" font-family="Times,serif" font-size="14.00">ExternalToolParameterValidationService</text>
</g>
<!-- ExternalToolParameterValidationService&#45;&gt;ExternalToolModule -->
<g id="edge15" class="edge">
<title>ExternalToolParameterValidationService&#45;&gt;ExternalToolModule</title>
<path fill="none" stroke="black" d="M1643.18,-119.03C1643.18,-135.31 1643.18,-159 1643.18,-159 1643.18,-159 1355.8,-159 1355.8,-159"/>
<polygon fill="black" stroke="black" points="1355.8,-155.5 1345.8,-159 1355.8,-162.5 1355.8,-155.5"/>
</g>
<!-- ExternalToolRepo -->
<g id="node17" class="node">
<title>ExternalToolRepo</title>
<ellipse fill="#fdb462" stroke="black" cx="1470" cy="-104" rx="82.24" ry="18"/>
<text text-anchor="middle" x="1470" y="-99.8" font-family="Times,serif" font-size="14.00">ExternalToolRepo</text>
</g>
<!-- ExternalToolRepo&#45;&gt;ExternalToolModule -->
<g id="edge16" class="edge">
<title>ExternalToolRepo&#45;&gt;ExternalToolModule</title>
<path fill="none" stroke="black" d="M1438.79,-120.7C1438.79,-135.57 1438.79,-155 1438.79,-155 1438.79,-155 1355.84,-155 1355.84,-155"/>
<polygon fill="black" stroke="black" points="1355.84,-151.5 1345.84,-155 1355.84,-158.5 1355.84,-151.5"/>
</g>
<!-- ExternalToolService -->
<g id="node18" class="node">
<title>ExternalToolService</title>
<ellipse fill="#fdb462" stroke="black" cx="1279" cy="-104" rx="90.89" ry="18"/>
<text text-anchor="middle" x="1279" y="-99.8" font-family="Times,serif" font-size="14.00">ExternalToolService</text>
</g>
<!-- ExternalToolService&#45;&gt;ExternalToolModule -->
<g id="edge17" class="edge">
<title>ExternalToolService&#45;&gt;ExternalToolModule</title>
<path fill="none" stroke="black" d="M1279,-122.11C1279,-122.11 1279,-140.99 1279,-140.99"/>
<polygon fill="black" stroke="black" points="1275.5,-140.99 1279,-150.99 1282.5,-140.99 1275.5,-140.99"/>
</g>
<!-- ExternalToolServiceMapper -->
<g id="node19" class="node">
<title>ExternalToolServiceMapper</title>
<ellipse fill="#fdb462" stroke="black" cx="1049" cy="-104" rx="120.95" ry="18"/>
<text text-anchor="middle" x="1049" y="-99.8" font-family="Times,serif" font-size="14.00">ExternalToolServiceMapper</text>
</g>
<!-- ExternalToolServiceMapper&#45;&gt;ExternalToolModule -->
<g id="edge18" class="edge">
<title>ExternalToolServiceMapper&#45;&gt;ExternalToolModule</title>
<path fill="none" stroke="black" d="M1131.76,-117.13C1131.76,-132.24 1131.76,-155 1131.76,-155 1131.76,-155 1202.27,-155 1202.27,-155"/>
<polygon fill="black" stroke="black" points="1202.27,-158.5 1212.27,-155 1202.27,-151.5 1202.27,-158.5"/>
</g>
<!-- ExternalToolValidationService -->
<g id="node20" class="node">
<title>ExternalToolValidationService</title>
<ellipse fill="#fdb462" stroke="black" cx="778" cy="-104" rx="131.92" ry="18"/>
<text text-anchor="middle" x="778" y="-99.8" font-family="Times,serif" font-size="14.00">ExternalToolValidationService</text>
</g>
<!-- ExternalToolValidationService&#45;&gt;ExternalToolModule -->
<g id="edge19" class="edge">
<title>ExternalToolValidationService&#45;&gt;ExternalToolModule</title>
<path fill="none" stroke="black" d="M818.74,-121.4C818.74,-137.52 818.74,-159 818.74,-159 818.74,-159 1202.07,-159 1202.07,-159"/>
<polygon fill="black" stroke="black" points="1202.07,-162.5 1212.07,-159 1202.07,-155.5 1202.07,-162.5"/>
</g>
</g>
</svg>
