<?xml version="1.0" encoding="UTF-8" standalone="no"?>
<!DOCTYPE svg PUBLIC "-//W3C//DTD SVG 1.1//EN"
 "http://www.w3.org/Graphics/SVG/1.1/DTD/svg11.dtd">
<!-- Generated by graphviz version 2.47.0 (20210316.0004)
 -->
<!-- Title: dependencies Pages: 1 -->
<svg width="2895pt" height="284pt"
 viewBox="0.00 0.00 2895.00 284.00" xmlns="http://www.w3.org/2000/svg" xmlns:xlink="http://www.w3.org/1999/xlink">
<g id="graph0" class="graph" transform="scale(1 1) rotate(0) translate(4 280)">
<title>dependencies</title>
<polygon fill="white" stroke="transparent" points="-4,4 -4,-280 2891,-280 2891,4 -4,4"/>
<text text-anchor="start" x="1422.51" y="-42.4" font-family="Times-12" font-weight="bold" font-size="14.00">Legend</text>
<polygon fill="#ffffb3" stroke="transparent" points="1209.5,-10 1209.5,-30 1229.5,-30 1229.5,-10 1209.5,-10"/>
<text text-anchor="start" x="1233.13" y="-15.4" font-family="Times-12" font-size="14.00"> &#160;Declarations</text>
<polygon fill="#8dd3c7" stroke="transparent" points="1322.5,-10 1322.5,-30 1342.5,-30 1342.5,-10 1322.5,-10"/>
<text text-anchor="start" x="1346.23" y="-15.4" font-family="Times-12" font-size="14.00"> &#160;Module</text>
<polygon fill="#80b1d3" stroke="transparent" points="1408.5,-10 1408.5,-30 1428.5,-30 1428.5,-10 1408.5,-10"/>
<text text-anchor="start" x="1432.28" y="-15.4" font-family="Times-12" font-size="14.00"> &#160;Bootstrap</text>
<polygon fill="#fdb462" stroke="transparent" points="1505.5,-10 1505.5,-30 1525.5,-30 1525.5,-10 1505.5,-10"/>
<text text-anchor="start" x="1529.17" y="-15.4" font-family="Times-12" font-size="14.00"> &#160;Providers</text>
<polygon fill="#fb8072" stroke="transparent" points="1601.5,-10 1601.5,-30 1621.5,-30 1621.5,-10 1601.5,-10"/>
<text text-anchor="start" x="1625.23" y="-15.4" font-family="Times-12" font-size="14.00"> &#160;Exports</text>
<g id="clust1" class="cluster">
<title>cluster_ExternalToolModule</title>
<polygon fill="none" stroke="black" stroke-dasharray="1,5" points="8,-70 8,-268 2879,-268 2879,-70 8,-70"/>
</g>
<g id="clust4" class="cluster">
<title>cluster_ExternalToolModule_exports</title>
<polygon fill="none" stroke="black" points="1198,-208 1198,-260 2356,-260 2356,-208 1198,-208"/>
</g>
<g id="clust3" class="cluster">
<title>cluster_ExternalToolModule_imports</title>
<polygon fill="none" stroke="black" points="2115,-78 2115,-130 2871,-130 2871,-78 2115,-78"/>
</g>
<g id="clust6" class="cluster">
<title>cluster_ExternalToolModule_providers</title>
<polygon fill="none" stroke="black" points="16,-78 16,-130 2107,-130 2107,-78 16,-78"/>
</g>
<!-- CommonToolModule -->
<g id="node1" class="node">
<title>CommonToolModule</title>
<polygon fill="#8dd3c7" stroke="black" points="2863.11,-122 2860.11,-126 2839.11,-126 2836.11,-122 2724.89,-122 2724.89,-86 2863.11,-86 2863.11,-122"/>
<text text-anchor="middle" x="2794" y="-99.8" font-family="Times,serif" font-size="14.00">CommonToolModule</text>
</g>
<!-- ExternalToolModule -->
<g id="node6" class="node">
<title>ExternalToolModule</title>
<polygon fill="#8dd3c7" stroke="black" points="1823.92,-187 1820.92,-191 1799.92,-191 1796.92,-187 1690.08,-187 1690.08,-151 1823.92,-151 1823.92,-187"/>
<text text-anchor="middle" x="1757" y="-164.8" font-family="Times,serif" font-size="14.00">ExternalToolModule</text>
</g>
<!-- CommonToolModule&#45;&gt;ExternalToolModule -->
<g id="edge1" class="edge">
<title>CommonToolModule&#45;&gt;ExternalToolModule</title>
<path fill="none" stroke="black" d="M2794,-122.28C2794,-143.32 2794,-175 2794,-175 2794,-175 1833.84,-175 1833.84,-175"/>
<polygon fill="black" stroke="black" points="1833.84,-171.5 1823.84,-175 1833.84,-178.5 1833.84,-171.5"/>
</g>
<!-- EncryptionModule -->
<g id="node2" class="node">
<title>EncryptionModule</title>
<polygon fill="#8dd3c7" stroke="black" points="2706.76,-122 2703.76,-126 2682.76,-126 2679.76,-122 2585.24,-122 2585.24,-86 2706.76,-86 2706.76,-122"/>
<text text-anchor="middle" x="2646" y="-99.8" font-family="Times,serif" font-size="14.00">EncryptionModule</text>
</g>
<!-- EncryptionModule&#45;&gt;ExternalToolModule -->
<g id="edge2" class="edge">
<title>EncryptionModule&#45;&gt;ExternalToolModule</title>
<path fill="none" stroke="black" d="M2646,-122.31C2646,-142.15 2646,-171 2646,-171 2646,-171 1833.82,-171 1833.82,-171"/>
<polygon fill="black" stroke="black" points="1833.82,-167.5 1823.82,-171 1833.82,-174.5 1833.82,-167.5"/>
</g>
<!-- LoggerModule -->
<g id="node3" class="node">
<title>LoggerModule</title>
<polygon fill="#8dd3c7" stroke="black" points="2566.98,-122 2563.98,-126 2542.98,-126 2539.98,-122 2467.02,-122 2467.02,-86 2566.98,-86 2566.98,-122"/>
<text text-anchor="middle" x="2517" y="-99.8" font-family="Times,serif" font-size="14.00">LoggerModule</text>
</g>
<!-- LoggerModule&#45;&gt;ExternalToolModule -->
<g id="edge3" class="edge">
<title>LoggerModule&#45;&gt;ExternalToolModule</title>
<path fill="none" stroke="black" d="M2517,-122.22C2517,-140.83 2517,-167 2517,-167 2517,-167 1833.78,-167 1833.78,-167"/>
<polygon fill="black" stroke="black" points="1833.78,-163.5 1823.78,-167 1833.78,-170.5 1833.78,-163.5"/>
</g>
<!-- OauthProviderServiceModule -->
<g id="node4" class="node">
<title>OauthProviderServiceModule</title>
<polygon fill="#8dd3c7" stroke="black" points="2448.95,-122 2445.95,-126 2424.95,-126 2421.95,-122 2265.05,-122 2265.05,-86 2448.95,-86 2448.95,-122"/>
<text text-anchor="middle" x="2357" y="-99.8" font-family="Times,serif" font-size="14.00">OauthProviderServiceModule</text>
</g>
<!-- OauthProviderServiceModule&#45;&gt;ExternalToolModule -->
<g id="edge4" class="edge">
<title>OauthProviderServiceModule&#45;&gt;ExternalToolModule</title>
<path fill="none" stroke="black" d="M2306.54,-122.02C2306.54,-139.37 2306.54,-163 2306.54,-163 2306.54,-163 1833.84,-163 1833.84,-163"/>
<polygon fill="black" stroke="black" points="1833.84,-159.5 1823.84,-163 1833.84,-166.5 1833.84,-159.5"/>
</g>
<!-- ToolConfigModule -->
<g id="node5" class="node">
<title>ToolConfigModule</title>
<polygon fill="#8dd3c7" stroke="black" points="2247.38,-122 2244.38,-126 2223.38,-126 2220.38,-122 2122.62,-122 2122.62,-86 2247.38,-86 2247.38,-122"/>
<text text-anchor="middle" x="2185" y="-99.8" font-family="Times,serif" font-size="14.00">ToolConfigModule</text>
</g>
<!-- ToolConfigModule&#45;&gt;ExternalToolModule -->
<g id="edge5" class="edge">
<title>ToolConfigModule&#45;&gt;ExternalToolModule</title>
<path fill="none" stroke="black" d="M2158.39,-122.01C2158.39,-138.05 2158.39,-159 2158.39,-159 2158.39,-159 1833.73,-159 1833.73,-159"/>
<polygon fill="black" stroke="black" points="1833.73,-155.5 1823.73,-159 1833.73,-162.5 1833.73,-155.5"/>
</g>
<!-- DatasheetPdfService  -->
<g id="node7" class="node">
<title>DatasheetPdfService </title>
<polygon fill="#fb8072" stroke="black" points="2348.11,-252 2211.89,-252 2211.89,-216 2348.11,-216 2348.11,-252"/>
<text text-anchor="middle" x="2280" y="-229.8" font-family="Times,serif" font-size="14.00">DatasheetPdfService </text>
</g>
<!-- ExternalToolModule&#45;&gt;DatasheetPdfService  -->
<g id="edge6" class="edge">
<title>ExternalToolModule&#45;&gt;DatasheetPdfService </title>
<path fill="none" stroke="black" stroke-dasharray="5,2" d="M1823.72,-179C1954.02,-179 2229.69,-179 2229.69,-179 2229.69,-179 2229.69,-205.99 2229.69,-205.99"/>
<polygon fill="black" stroke="black" points="2226.19,-205.99 2229.69,-215.99 2233.19,-205.99 2226.19,-205.99"/>
</g>
<!-- ExternalToolAuthorizableService  -->
<g id="node8" class="node">
<title>ExternalToolAuthorizableService </title>
<polygon fill="#fb8072" stroke="black" points="2194.43,-252 1985.57,-252 1985.57,-216 2194.43,-216 2194.43,-252"/>
<text text-anchor="middle" x="2090" y="-229.8" font-family="Times,serif" font-size="14.00">ExternalToolAuthorizableService </text>
</g>
<!-- ExternalToolModule&#45;&gt;ExternalToolAuthorizableService  -->
<g id="edge7" class="edge">
<title>ExternalToolModule&#45;&gt;ExternalToolAuthorizableService </title>
<path fill="none" stroke="black" stroke-dasharray="5,2" d="M1823.97,-183C1908.39,-183 2042.63,-183 2042.63,-183 2042.63,-183 2042.63,-205.88 2042.63,-205.88"/>
<polygon fill="black" stroke="black" points="2039.13,-205.88 2042.63,-215.88 2046.13,-205.88 2039.13,-205.88"/>
</g>
<!-- ExternalToolConfigurationService  -->
<g id="node9" class="node">
<title>ExternalToolConfigurationService </title>
<polygon fill="#fb8072" stroke="black" points="1967.89,-252 1754.11,-252 1754.11,-216 1967.89,-216 1967.89,-252"/>
<text text-anchor="middle" x="1861" y="-229.8" font-family="Times,serif" font-size="14.00">ExternalToolConfigurationService </text>
</g>
<!-- ExternalToolModule&#45;&gt;ExternalToolConfigurationService  -->
<g id="edge8" class="edge">
<title>ExternalToolModule&#45;&gt;ExternalToolConfigurationService </title>
<path fill="none" stroke="black" stroke-dasharray="5,2" d="M1788.88,-187.11C1788.88,-187.11 1788.88,-205.99 1788.88,-205.99"/>
<polygon fill="black" stroke="black" points="1785.38,-205.99 1788.88,-215.99 1792.38,-205.99 1785.38,-205.99"/>
</g>
<!-- ExternalToolLogoService  -->
<g id="node10" class="node">
<title>ExternalToolLogoService </title>
<polygon fill="#fb8072" stroke="black" points="1736.4,-252 1571.6,-252 1571.6,-216 1736.4,-216 1736.4,-252"/>
<text text-anchor="middle" x="1654" y="-229.8" font-family="Times,serif" font-size="14.00">ExternalToolLogoService </text>
</g>
<!-- ExternalToolModule&#45;&gt;ExternalToolLogoService  -->
<g id="edge9" class="edge">
<title>ExternalToolModule&#45;&gt;ExternalToolLogoService </title>
<path fill="none" stroke="black" stroke-dasharray="5,2" d="M1713.37,-187.11C1713.37,-187.11 1713.37,-205.99 1713.37,-205.99"/>
<polygon fill="black" stroke="black" points="1709.87,-205.99 1713.37,-215.99 1716.87,-205.99 1709.87,-205.99"/>
</g>
<!-- ExternalToolService  -->
<g id="node11" class="node">
<title>ExternalToolService </title>
<polygon fill="#fb8072" stroke="black" points="1553.84,-252 1418.16,-252 1418.16,-216 1553.84,-216 1553.84,-252"/>
<text text-anchor="middle" x="1486" y="-229.8" font-family="Times,serif" font-size="14.00">ExternalToolService </text>
</g>
<!-- ExternalToolModule&#45;&gt;ExternalToolService  -->
<g id="edge10" class="edge">
<title>ExternalToolModule&#45;&gt;ExternalToolService </title>
<path fill="none" stroke="black" stroke-dasharray="5,2" d="M1690.01,-183C1609.76,-183 1486,-183 1486,-183 1486,-183 1486,-205.88 1486,-205.88"/>
<polygon fill="black" stroke="black" points="1482.5,-205.88 1486,-215.88 1489.5,-205.88 1482.5,-205.88"/>
</g>
<!-- ExternalToolValidationService  -->
<g id="node12" class="node">
<title>ExternalToolValidationService </title>
<polygon fill="#fb8072" stroke="black" points="1400.44,-252 1205.56,-252 1205.56,-216 1400.44,-216 1400.44,-252"/>
<text text-anchor="middle" x="1303" y="-229.8" font-family="Times,serif" font-size="14.00">ExternalToolValidationService </text>
</g>
<!-- ExternalToolModule&#45;&gt;ExternalToolValidationService  -->
<g id="edge11" class="edge">
<title>ExternalToolModule&#45;&gt;ExternalToolValidationService </title>
<path fill="none" stroke="black" stroke-dasharray="5,2" d="M1690.01,-179C1575.43,-179 1354.05,-179 1354.05,-179 1354.05,-179 1354.05,-205.99 1354.05,-205.99"/>
<polygon fill="black" stroke="black" points="1350.55,-205.99 1354.05,-215.99 1357.55,-205.99 1350.55,-205.99"/>
</g>
<!-- DatasheetPdfService -->
<g id="node13" class="node">
<title>DatasheetPdfService</title>
<ellipse fill="#fdb462" stroke="black" cx="2008" cy="-104" rx="91.45" ry="18"/>
<text text-anchor="middle" x="2008" y="-99.8" font-family="Times,serif" font-size="14.00">DatasheetPdfService</text>
</g>
<!-- DatasheetPdfService&#45;&gt;ExternalToolModule -->
<g id="edge12" class="edge">
<title>DatasheetPdfService&#45;&gt;ExternalToolModule</title>
<path fill="none" stroke="black" d="M1942.24,-116.61C1942.24,-131.71 1942.24,-155 1942.24,-155 1942.24,-155 1833.87,-155 1833.87,-155"/>
<polygon fill="black" stroke="black" points="1833.87,-151.5 1823.87,-155 1833.87,-158.5 1833.87,-151.5"/>
</g>
<!-- ExternalToolAuthorizableService -->
<g id="node14" class="node">
<title>ExternalToolAuthorizableService</title>
<ellipse fill="#fdb462" stroke="black" cx="1757" cy="-104" rx="141.21" ry="18"/>
<text text-anchor="middle" x="1757" y="-99.8" font-family="Times,serif" font-size="14.00">ExternalToolAuthorizableService</text>
</g>
<!-- ExternalToolAuthorizableService&#45;&gt;ExternalToolModule -->
<g id="edge13" class="edge">
<title>ExternalToolAuthorizableService&#45;&gt;ExternalToolModule</title>
<path fill="none" stroke="black" d="M1757,-122.11C1757,-122.11 1757,-140.99 1757,-140.99"/>
<polygon fill="black" stroke="black" points="1753.5,-140.99 1757,-150.99 1760.5,-140.99 1753.5,-140.99"/>
</g>
<!-- ExternalToolConfigurationService -->
<g id="node15" class="node">
<title>ExternalToolConfigurationService</title>
<ellipse fill="#fdb462" stroke="black" cx="1453" cy="-104" rx="145.24" ry="18"/>
<text text-anchor="middle" x="1453" y="-99.8" font-family="Times,serif" font-size="14.00">ExternalToolConfigurationService</text>
</g>
<!-- ExternalToolConfigurationService&#45;&gt;ExternalToolModule -->
<g id="edge14" class="edge">
<title>ExternalToolConfigurationService&#45;&gt;ExternalToolModule</title>
<path fill="none" stroke="black" d="M1584.84,-111.53C1584.84,-125.71 1584.84,-155 1584.84,-155 1584.84,-155 1679.94,-155 1679.94,-155"/>
<polygon fill="black" stroke="black" points="1679.94,-158.5 1689.94,-155 1679.94,-151.5 1679.94,-158.5"/>
</g>
<!-- ExternalToolParameterValidationService -->
<g id="node16" class="node">
<title>ExternalToolParameterValidationService</title>
<ellipse fill="#fdb462" stroke="black" cx="1119" cy="-104" rx="170.7" ry="18"/>
<text text-anchor="middle" x="1119" y="-99.8" font-family="Times,serif" font-size="14.00">ExternalToolParameterValidationService</text>
</g>
<!-- ExternalToolParameterValidationService&#45;&gt;ExternalToolModule -->
<g id="edge15" class="edge">
<title>ExternalToolParameterValidationService&#45;&gt;ExternalToolModule</title>
<path fill="none" stroke="black" d="M1247.81,-115.93C1247.81,-132.11 1247.81,-159 1247.81,-159 1247.81,-159 1680.17,-159 1680.17,-159"/>
<polygon fill="black" stroke="black" points="1680.17,-162.5 1690.17,-159 1680.17,-155.5 1680.17,-162.5"/>
</g>
<!-- ExternalToolRepo -->
<g id="node17" class="node">
<title>ExternalToolRepo</title>
<ellipse fill="#fdb462" stroke="black" cx="848" cy="-104" rx="82.24" ry="18"/>
<text text-anchor="middle" x="848" y="-99.8" font-family="Times,serif" font-size="14.00">ExternalToolRepo</text>
</g>
<!-- ExternalToolRepo&#45;&gt;ExternalToolModule -->
<g id="edge16" class="edge">
<title>ExternalToolRepo&#45;&gt;ExternalToolModule</title>
<path fill="none" stroke="black" d="M848,-122.02C848,-139.37 848,-163 848,-163 848,-163 1680.16,-163 1680.16,-163"/>
<polygon fill="black" stroke="black" points="1680.16,-166.5 1690.16,-163 1680.16,-159.5 1680.16,-166.5"/>
</g>
<!-- ExternalToolService -->
<g id="node18" class="node">
<title>ExternalToolService</title>
<ellipse fill="#fdb462" stroke="black" cx="657" cy="-104" rx="90.89" ry="18"/>
<text text-anchor="middle" x="657" y="-99.8" font-family="Times,serif" font-size="14.00">ExternalToolService</text>
</g>
<!-- ExternalToolService&#45;&gt;ExternalToolModule -->
<g id="edge17" class="edge">
<title>ExternalToolService&#45;&gt;ExternalToolModule</title>
<path fill="none" stroke="black" d="M657,-122.22C657,-140.83 657,-167 657,-167 657,-167 1680.26,-167 1680.26,-167"/>
<polygon fill="black" stroke="black" points="1680.26,-170.5 1690.26,-167 1680.26,-163.5 1680.26,-170.5"/>
</g>
<!-- ExternalToolServiceMapper -->
<g id="node19" class="node">
<title>ExternalToolServiceMapper</title>
<ellipse fill="#fdb462" stroke="black" cx="427" cy="-104" rx="120.95" ry="18"/>
<text text-anchor="middle" x="427" y="-99.8" font-family="Times,serif" font-size="14.00">ExternalToolServiceMapper</text>
</g>
<!-- ExternalToolServiceMapper&#45;&gt;ExternalToolModule -->
<g id="edge18" class="edge">
<title>ExternalToolServiceMapper&#45;&gt;ExternalToolModule</title>
<path fill="none" stroke="black" d="M427,-122.31C427,-142.15 427,-171 427,-171 427,-171 1680.13,-171 1680.13,-171"/>
<polygon fill="black" stroke="black" points="1680.13,-174.5 1690.13,-171 1680.13,-167.5 1680.13,-174.5"/>
</g>
<!-- ExternalToolValidationService -->
<g id="node20" class="node">
<title>ExternalToolValidationService</title>
<ellipse fill="#fdb462" stroke="black" cx="156" cy="-104" rx="131.92" ry="18"/>
<text text-anchor="middle" x="156" y="-99.8" font-family="Times,serif" font-size="14.00">ExternalToolValidationService</text>
</g>
<!-- ExternalToolValidationService&#45;&gt;ExternalToolModule -->
<g id="edge19" class="edge">
<title>ExternalToolValidationService&#45;&gt;ExternalToolModule</title>
<path fill="none" stroke="black" d="M156,-122.28C156,-143.32 156,-175 156,-175 156,-175 1680.25,-175 1680.25,-175"/>
<polygon fill="black" stroke="black" points="1680.25,-178.5 1690.25,-175 1680.25,-171.5 1680.25,-178.5"/>
</g>
</g>
</svg>
