<?xml version="1.0" encoding="UTF-8" standalone="no"?>
<!DOCTYPE svg PUBLIC "-//W3C//DTD SVG 1.1//EN"
 "http://www.w3.org/Graphics/SVG/1.1/DTD/svg11.dtd">
<!-- Generated by graphviz version 2.47.0 (20210316.0004)
 -->
<!-- Title: dependencies Pages: 1 -->
<svg width="2733pt" height="284pt"
 viewBox="0.00 0.00 2733.00 284.00" xmlns="http://www.w3.org/2000/svg" xmlns:xlink="http://www.w3.org/1999/xlink">
<g id="graph0" class="graph" transform="scale(1 1) rotate(0) translate(4 280)">
<title>dependencies</title>
<polygon fill="white" stroke="transparent" points="-4,4 -4,-280 2729,-280 2729,4 -4,4"/>
<text text-anchor="start" x="1341.51" y="-42.4" font-family="Times-12" font-weight="bold" font-size="14.00">Legend</text>
<polygon fill="#ffffb3" stroke="transparent" points="1128.5,-10 1128.5,-30 1148.5,-30 1148.5,-10 1128.5,-10"/>
<text text-anchor="start" x="1152.13" y="-15.4" font-family="Times-12" font-size="14.00"> &#160;Declarations</text>
<polygon fill="#8dd3c7" stroke="transparent" points="1241.5,-10 1241.5,-30 1261.5,-30 1261.5,-10 1241.5,-10"/>
<text text-anchor="start" x="1265.23" y="-15.4" font-family="Times-12" font-size="14.00"> &#160;Module</text>
<polygon fill="#80b1d3" stroke="transparent" points="1327.5,-10 1327.5,-30 1347.5,-30 1347.5,-10 1327.5,-10"/>
<text text-anchor="start" x="1351.28" y="-15.4" font-family="Times-12" font-size="14.00"> &#160;Bootstrap</text>
<polygon fill="#fdb462" stroke="transparent" points="1424.5,-10 1424.5,-30 1444.5,-30 1444.5,-10 1424.5,-10"/>
<text text-anchor="start" x="1448.17" y="-15.4" font-family="Times-12" font-size="14.00"> &#160;Providers</text>
<polygon fill="#fb8072" stroke="transparent" points="1520.5,-10 1520.5,-30 1540.5,-30 1540.5,-10 1520.5,-10"/>
<text text-anchor="start" x="1544.23" y="-15.4" font-family="Times-12" font-size="14.00"> &#160;Exports</text>
<g id="clust1" class="cluster">
<title>cluster_ExternalToolModule</title>
<polygon fill="none" stroke="black" stroke-dasharray="1,5" points="8,-70 8,-268 2717,-268 2717,-70 8,-70"/>
</g>
<g id="clust3" class="cluster">
<title>cluster_ExternalToolModule_imports</title>
<polygon fill="none" stroke="black" points="1953,-78 1953,-130 2709,-130 2709,-78 1953,-78"/>
</g>
<g id="clust4" class="cluster">
<title>cluster_ExternalToolModule_exports</title>
<polygon fill="none" stroke="black" points="1083,-208 1083,-260 2115,-260 2115,-208 1083,-208"/>
</g>
<g id="clust6" class="cluster">
<title>cluster_ExternalToolModule_providers</title>
<polygon fill="none" stroke="black" points="16,-78 16,-130 1945,-130 1945,-78 16,-78"/>
</g>
<!-- CommonToolModule -->
<g id="node1" class="node">
<title>CommonToolModule</title>
<polygon fill="#8dd3c7" stroke="black" points="2701.11,-122 2698.11,-126 2677.11,-126 2674.11,-122 2562.89,-122 2562.89,-86 2701.11,-86 2701.11,-122"/>
<text text-anchor="middle" x="2632" y="-99.8" font-family="Times,serif" font-size="14.00">CommonToolModule</text>
</g>
<!-- ExternalToolModule -->
<g id="node6" class="node">
<title>ExternalToolModule</title>
<polygon fill="#8dd3c7" stroke="black" points="1691.92,-187 1688.92,-191 1667.92,-191 1664.92,-187 1558.08,-187 1558.08,-151 1691.92,-151 1691.92,-187"/>
<text text-anchor="middle" x="1625" y="-164.8" font-family="Times,serif" font-size="14.00">ExternalToolModule</text>
</g>
<!-- CommonToolModule&#45;&gt;ExternalToolModule -->
<g id="edge1" class="edge">
<title>CommonToolModule&#45;&gt;ExternalToolModule</title>
<path fill="none" stroke="black" d="M2632,-122.03C2632,-142.77 2632,-174 2632,-174 2632,-174 1701.85,-174 1701.85,-174"/>
<polygon fill="black" stroke="black" points="1701.85,-170.5 1691.85,-174 1701.85,-177.5 1701.85,-170.5"/>
</g>
<!-- EncryptionModule -->
<g id="node2" class="node">
<title>EncryptionModule</title>
<polygon fill="#8dd3c7" stroke="black" points="2544.76,-122 2541.76,-126 2520.76,-126 2517.76,-122 2423.24,-122 2423.24,-86 2544.76,-86 2544.76,-122"/>
<text text-anchor="middle" x="2484" y="-99.8" font-family="Times,serif" font-size="14.00">EncryptionModule</text>
</g>
<!-- EncryptionModule&#45;&gt;ExternalToolModule -->
<g id="edge2" class="edge">
<title>EncryptionModule&#45;&gt;ExternalToolModule</title>
<path fill="none" stroke="black" d="M2484,-122.11C2484,-141.34 2484,-169 2484,-169 2484,-169 1702.05,-169 1702.05,-169"/>
<polygon fill="black" stroke="black" points="1702.05,-165.5 1692.05,-169 1702.05,-172.5 1702.05,-165.5"/>
</g>
<!-- LoggerModule -->
<g id="node3" class="node">
<title>LoggerModule</title>
<polygon fill="#8dd3c7" stroke="black" points="2404.98,-122 2401.98,-126 2380.98,-126 2377.98,-122 2305.02,-122 2305.02,-86 2404.98,-86 2404.98,-122"/>
<text text-anchor="middle" x="2355" y="-99.8" font-family="Times,serif" font-size="14.00">LoggerModule</text>
</g>
<!-- LoggerModule&#45;&gt;ExternalToolModule -->
<g id="edge3" class="edge">
<title>LoggerModule&#45;&gt;ExternalToolModule</title>
<path fill="none" stroke="black" d="M2355,-122.3C2355,-140.27 2355,-165 2355,-165 2355,-165 1701.72,-165 1701.72,-165"/>
<polygon fill="black" stroke="black" points="1701.72,-161.5 1691.72,-165 1701.72,-168.5 1701.72,-161.5"/>
</g>
<!-- OauthProviderServiceModule -->
<g id="node4" class="node">
<title>OauthProviderServiceModule</title>
<polygon fill="#8dd3c7" stroke="black" points="2286.95,-122 2283.95,-126 2262.95,-126 2259.95,-122 2103.05,-122 2103.05,-86 2286.95,-86 2286.95,-122"/>
<text text-anchor="middle" x="2195" y="-99.8" font-family="Times,serif" font-size="14.00">OauthProviderServiceModule</text>
</g>
<!-- OauthProviderServiceModule&#45;&gt;ExternalToolModule -->
<g id="edge4" class="edge">
<title>OauthProviderServiceModule&#45;&gt;ExternalToolModule</title>
<path fill="none" stroke="black" d="M2196.96,-122.03C2196.96,-138.4 2196.96,-160 2196.96,-160 2196.96,-160 1701.73,-160 1701.73,-160"/>
<polygon fill="black" stroke="black" points="1701.73,-156.5 1691.73,-160 1701.73,-163.5 1701.73,-156.5"/>
</g>
<!-- ToolConfigModule -->
<g id="node5" class="node">
<title>ToolConfigModule</title>
<polygon fill="#8dd3c7" stroke="black" points="2085.38,-122 2082.38,-126 2061.38,-126 2058.38,-122 1960.62,-122 1960.62,-86 2085.38,-86 2085.38,-122"/>
<text text-anchor="middle" x="2023" y="-99.8" font-family="Times,serif" font-size="14.00">ToolConfigModule</text>
</g>
<!-- ToolConfigModule&#45;&gt;ExternalToolModule -->
<g id="edge5" class="edge">
<title>ToolConfigModule&#45;&gt;ExternalToolModule</title>
<path fill="none" stroke="black" d="M2023,-122.19C2023,-137.18 2023,-156 2023,-156 2023,-156 1702.07,-156 1702.07,-156"/>
<polygon fill="black" stroke="black" points="1702.07,-152.5 1692.07,-156 1702.07,-159.5 1702.07,-152.5"/>
</g>
<!-- ExternalToolConfigurationService  -->
<g id="node7" class="node">
<title>ExternalToolConfigurationService </title>
<polygon fill="#fb8072" stroke="black" points="2106.89,-252 1893.11,-252 1893.11,-216 2106.89,-216 2106.89,-252"/>
<text text-anchor="middle" x="2000" y="-229.8" font-family="Times,serif" font-size="14.00">ExternalToolConfigurationService </text>
</g>
<!-- ExternalToolModule&#45;&gt;ExternalToolConfigurationService  -->
<g id="edge6" class="edge">
<title>ExternalToolModule&#45;&gt;ExternalToolConfigurationService </title>
<path fill="none" stroke="black" stroke-dasharray="5,2" d="M1691.92,-178C1777.59,-178 1915.09,-178 1915.09,-178 1915.09,-178 1915.09,-205.97 1915.09,-205.97"/>
<polygon fill="black" stroke="black" points="1911.59,-205.97 1915.09,-215.97 1918.59,-205.97 1911.59,-205.97"/>
</g>
<!-- ExternalToolLogoService  -->
<g id="node8" class="node">
<title>ExternalToolLogoService </title>
<polygon fill="#fb8072" stroke="black" points="1875.4,-252 1710.6,-252 1710.6,-216 1875.4,-216 1875.4,-252"/>
<text text-anchor="middle" x="1793" y="-229.8" font-family="Times,serif" font-size="14.00">ExternalToolLogoService </text>
</g>
<!-- ExternalToolModule&#45;&gt;ExternalToolLogoService  -->
<g id="edge7" class="edge">
<title>ExternalToolModule&#45;&gt;ExternalToolLogoService </title>
<path fill="none" stroke="black" stroke-dasharray="5,2" d="M1691.88,-183C1738.73,-183 1793,-183 1793,-183 1793,-183 1793,-205.88 1793,-205.88"/>
<polygon fill="black" stroke="black" points="1789.5,-205.88 1793,-215.88 1796.5,-205.88 1789.5,-205.88"/>
</g>
<!-- ExternalToolService  -->
<g id="node9" class="node">
<title>ExternalToolService </title>
<polygon fill="#fb8072" stroke="black" points="1692.84,-252 1557.16,-252 1557.16,-216 1692.84,-216 1692.84,-252"/>
<text text-anchor="middle" x="1625" y="-229.8" font-family="Times,serif" font-size="14.00">ExternalToolService </text>
</g>
<!-- ExternalToolModule&#45;&gt;ExternalToolService  -->
<g id="edge8" class="edge">
<title>ExternalToolModule&#45;&gt;ExternalToolService </title>
<path fill="none" stroke="black" stroke-dasharray="5,2" d="M1625,-187.11C1625,-187.11 1625,-205.99 1625,-205.99"/>
<polygon fill="black" stroke="black" points="1621.5,-205.99 1625,-215.99 1628.5,-205.99 1621.5,-205.99"/>
</g>
<!-- ExternalToolValidationService  -->
<g id="node10" class="node">
<title>ExternalToolValidationService </title>
<polygon fill="#fb8072" stroke="black" points="1539.44,-252 1344.56,-252 1344.56,-216 1539.44,-216 1539.44,-252"/>
<text text-anchor="middle" x="1442" y="-229.8" font-family="Times,serif" font-size="14.00">ExternalToolValidationService </text>
</g>
<!-- ExternalToolModule&#45;&gt;ExternalToolValidationService  -->
<g id="edge9" class="edge">
<title>ExternalToolModule&#45;&gt;ExternalToolValidationService </title>
<path fill="none" stroke="black" stroke-dasharray="5,2" d="M1558.16,-183C1505.88,-183 1442,-183 1442,-183 1442,-183 1442,-205.88 1442,-205.88"/>
<polygon fill="black" stroke="black" points="1438.5,-205.88 1442,-215.88 1445.5,-205.88 1438.5,-205.88"/>
</g>
<!-- ExternalToolVersionIncrementService  -->
<g id="node11" class="node">
<title>ExternalToolVersionIncrementService </title>
<polygon fill="#fb8072" stroke="black" points="1327.41,-252 1090.59,-252 1090.59,-216 1327.41,-216 1327.41,-252"/>
<text text-anchor="middle" x="1209" y="-229.8" font-family="Times,serif" font-size="14.00">ExternalToolVersionIncrementService </text>
</g>
<!-- ExternalToolModule&#45;&gt;ExternalToolVersionIncrementService  -->
<g id="edge10" class="edge">
<title>ExternalToolModule&#45;&gt;ExternalToolVersionIncrementService </title>
<path fill="none" stroke="black" stroke-dasharray="5,2" d="M1557.99,-178C1464.74,-178 1307.18,-178 1307.18,-178 1307.18,-178 1307.18,-205.97 1307.18,-205.97"/>
<polygon fill="black" stroke="black" points="1303.68,-205.97 1307.18,-215.97 1310.68,-205.97 1303.68,-205.97"/>
</g>
<!-- ExternalToolConfigurationService -->
<g id="node12" class="node">
<title>ExternalToolConfigurationService</title>
<ellipse fill="#fdb462" stroke="black" cx="1792" cy="-104" rx="145.24" ry="18"/>
<text text-anchor="middle" x="1792" y="-99.8" font-family="Times,serif" font-size="14.00">ExternalToolConfigurationService</text>
</g>
<!-- ExternalToolConfigurationService&#45;&gt;ExternalToolModule -->
<g id="edge11" class="edge">
<title>ExternalToolConfigurationService&#45;&gt;ExternalToolModule</title>
<path fill="none" stroke="black" d="M1669.29,-113.87C1669.29,-113.87 1669.29,-140.91 1669.29,-140.91"/>
<polygon fill="black" stroke="black" points="1665.79,-140.91 1669.29,-150.91 1672.79,-140.91 1665.79,-140.91"/>
</g>
<!-- ExternalToolParameterValidationService -->
<g id="node13" class="node">
<title>ExternalToolParameterValidationService</title>
<ellipse fill="#fdb462" stroke="black" cx="1458" cy="-104" rx="170.7" ry="18"/>
<text text-anchor="middle" x="1458" y="-99.8" font-family="Times,serif" font-size="14.00">ExternalToolParameterValidationService</text>
</g>
<!-- ExternalToolParameterValidationService&#45;&gt;ExternalToolModule -->
<g id="edge12" class="edge">
<title>ExternalToolParameterValidationService&#45;&gt;ExternalToolModule</title>
<path fill="none" stroke="black" d="M1593.57,-115.03C1593.57,-115.03 1593.57,-140.78 1593.57,-140.78"/>
<polygon fill="black" stroke="black" points="1590.07,-140.78 1593.57,-150.78 1597.07,-140.78 1590.07,-140.78"/>
</g>
<!-- ExternalToolRepo -->
<g id="node14" class="node">
<title>ExternalToolRepo</title>
<ellipse fill="#fdb462" stroke="black" cx="1187" cy="-104" rx="82.24" ry="18"/>
<text text-anchor="middle" x="1187" y="-99.8" font-family="Times,serif" font-size="14.00">ExternalToolRepo</text>
</g>
<!-- ExternalToolRepo&#45;&gt;ExternalToolModule -->
<g id="edge13" class="edge">
<title>ExternalToolRepo&#45;&gt;ExternalToolModule</title>
<path fill="none" stroke="black" d="M1187,-122.19C1187,-137.18 1187,-156 1187,-156 1187,-156 1548,-156 1548,-156"/>
<polygon fill="black" stroke="black" points="1548,-159.5 1558,-156 1548,-152.5 1548,-159.5"/>
</g>
<!-- ExternalToolService -->
<g id="node15" class="node">
<title>ExternalToolService</title>
<ellipse fill="#fdb462" stroke="black" cx="996" cy="-104" rx="90.89" ry="18"/>
<text text-anchor="middle" x="996" y="-99.8" font-family="Times,serif" font-size="14.00">ExternalToolService</text>
</g>
<!-- ExternalToolService&#45;&gt;ExternalToolModule -->
<g id="edge14" class="edge">
<title>ExternalToolService&#45;&gt;ExternalToolModule</title>
<path fill="none" stroke="black" d="M996,-122.03C996,-138.4 996,-160 996,-160 996,-160 1548.28,-160 1548.28,-160"/>
<polygon fill="black" stroke="black" points="1548.28,-163.5 1558.28,-160 1548.28,-156.5 1548.28,-163.5"/>
</g>
<!-- ExternalToolServiceMapper -->
<g id="node16" class="node">
<title>ExternalToolServiceMapper</title>
<ellipse fill="#fdb462" stroke="black" cx="766" cy="-104" rx="120.95" ry="18"/>
<text text-anchor="middle" x="766" y="-99.8" font-family="Times,serif" font-size="14.00">ExternalToolServiceMapper</text>
</g>
<!-- ExternalToolServiceMapper&#45;&gt;ExternalToolModule -->
<g id="edge15" class="edge">
<title>ExternalToolServiceMapper&#45;&gt;ExternalToolModule</title>
<path fill="none" stroke="black" d="M766,-122.3C766,-140.27 766,-165 766,-165 766,-165 1547.95,-165 1547.95,-165"/>
<polygon fill="black" stroke="black" points="1547.95,-168.5 1557.95,-165 1547.95,-161.5 1547.95,-168.5"/>
</g>
<!-- ExternalToolValidationService -->
<g id="node17" class="node">
<title>ExternalToolValidationService</title>
<ellipse fill="#fdb462" stroke="black" cx="495" cy="-104" rx="131.92" ry="18"/>
<text text-anchor="middle" x="495" y="-99.8" font-family="Times,serif" font-size="14.00">ExternalToolValidationService</text>
</g>
<!-- ExternalToolValidationService&#45;&gt;ExternalToolModule -->
<g id="edge16" class="edge">
<title>ExternalToolValidationService&#45;&gt;ExternalToolModule</title>
<path fill="none" stroke="black" d="M495,-122.11C495,-141.34 495,-169 495,-169 495,-169 1548.12,-169 1548.12,-169"/>
<polygon fill="black" stroke="black" points="1548.12,-172.5 1558.12,-169 1548.12,-165.5 1548.12,-172.5"/>
</g>
<!-- ExternalToolVersionIncrementService -->
<g id="node18" class="node">
<title>ExternalToolVersionIncrementService</title>
<ellipse fill="#fdb462" stroke="black" cx="185" cy="-104" rx="160.81" ry="18"/>
<text text-anchor="middle" x="185" y="-99.8" font-family="Times,serif" font-size="14.00">ExternalToolVersionIncrementService</text>
</g>
<!-- ExternalToolVersionIncrementService&#45;&gt;ExternalToolModule -->
<g id="edge17" class="edge">
<title>ExternalToolVersionIncrementService&#45;&gt;ExternalToolModule</title>
<path fill="none" stroke="black" d="M185,-122.03C185,-142.77 185,-174 185,-174 185,-174 1547.96,-174 1547.96,-174"/>
<polygon fill="black" stroke="black" points="1547.96,-177.5 1557.96,-174 1547.96,-170.5 1547.96,-177.5"/>
</g>
</g>
</svg>
