<?xml version="1.0" encoding="UTF-8" standalone="no"?>
<!DOCTYPE svg PUBLIC "-//W3C//DTD SVG 1.1//EN"
 "http://www.w3.org/Graphics/SVG/1.1/DTD/svg11.dtd">
<!-- Generated by graphviz version 2.47.0 (20210316.0004)
 -->
<!-- Title: dependencies Pages: 1 -->
<svg width="2655pt" height="284pt"
 viewBox="0.00 0.00 2655.00 284.00" xmlns="http://www.w3.org/2000/svg" xmlns:xlink="http://www.w3.org/1999/xlink">
<g id="graph0" class="graph" transform="scale(1 1) rotate(0) translate(4 280)">
<title>dependencies</title>
<polygon fill="white" stroke="transparent" points="-4,4 -4,-280 2651,-280 2651,4 -4,4"/>
<text text-anchor="start" x="1302.51" y="-42.4" font-family="Times-12" font-weight="bold" font-size="14.00">Legend</text>
<polygon fill="#ffffb3" stroke="transparent" points="1089.5,-10 1089.5,-30 1109.5,-30 1109.5,-10 1089.5,-10"/>
<text text-anchor="start" x="1113.13" y="-15.4" font-family="Times-12" font-size="14.00"> &#160;Declarations</text>
<polygon fill="#8dd3c7" stroke="transparent" points="1202.5,-10 1202.5,-30 1222.5,-30 1222.5,-10 1202.5,-10"/>
<text text-anchor="start" x="1226.23" y="-15.4" font-family="Times-12" font-size="14.00"> &#160;Module</text>
<polygon fill="#80b1d3" stroke="transparent" points="1288.5,-10 1288.5,-30 1308.5,-30 1308.5,-10 1288.5,-10"/>
<text text-anchor="start" x="1312.28" y="-15.4" font-family="Times-12" font-size="14.00"> &#160;Bootstrap</text>
<polygon fill="#fdb462" stroke="transparent" points="1385.5,-10 1385.5,-30 1405.5,-30 1405.5,-10 1385.5,-10"/>
<text text-anchor="start" x="1409.17" y="-15.4" font-family="Times-12" font-size="14.00"> &#160;Providers</text>
<polygon fill="#fb8072" stroke="transparent" points="1481.5,-10 1481.5,-30 1501.5,-30 1501.5,-10 1481.5,-10"/>
<text text-anchor="start" x="1505.23" y="-15.4" font-family="Times-12" font-size="14.00"> &#160;Exports</text>
<g id="clust1" class="cluster">
<title>cluster_ExternalToolModule</title>
<polygon fill="none" stroke="black" stroke-dasharray="1,5" points="8,-70 8,-268 2639,-268 2639,-70 8,-70"/>
</g>
<g id="clust3" class="cluster">
<title>cluster_ExternalToolModule_imports</title>
<polygon fill="none" stroke="black" points="1875,-78 1875,-130 2631,-130 2631,-78 1875,-78"/>
</g>
<g id="clust6" class="cluster">
<title>cluster_ExternalToolModule_providers</title>
<polygon fill="none" stroke="black" points="16,-78 16,-130 1867,-130 1867,-78 16,-78"/>
</g>
<g id="clust4" class="cluster">
<title>cluster_ExternalToolModule_exports</title>
<polygon fill="none" stroke="black" points="1153,-208 1153,-260 1947,-260 1947,-208 1153,-208"/>
</g>
<!-- CommonToolModule -->
<g id="node1" class="node">
<title>CommonToolModule</title>
<polygon fill="#8dd3c7" stroke="black" points="2623.11,-122 2620.11,-126 2599.11,-126 2596.11,-122 2484.89,-122 2484.89,-86 2623.11,-86 2623.11,-122"/>
<text text-anchor="middle" x="2554" y="-99.8" font-family="Times,serif" font-size="14.00">CommonToolModule</text>
</g>
<!-- ExternalToolModule -->
<g id="node6" class="node">
<title>ExternalToolModule</title>
<polygon fill="#8dd3c7" stroke="black" points="1613.92,-187 1610.92,-191 1589.92,-191 1586.92,-187 1480.08,-187 1480.08,-151 1613.92,-151 1613.92,-187"/>
<text text-anchor="middle" x="1547" y="-164.8" font-family="Times,serif" font-size="14.00">ExternalToolModule</text>
</g>
<!-- CommonToolModule&#45;&gt;ExternalToolModule -->
<g id="edge1" class="edge">
<title>CommonToolModule&#45;&gt;ExternalToolModule</title>
<path fill="none" stroke="black" d="M2554,-122.04C2554,-143.66 2554,-177 2554,-177 2554,-177 1623.85,-177 1623.85,-177"/>
<polygon fill="black" stroke="black" points="1623.85,-173.5 1613.85,-177 1623.85,-180.5 1623.85,-173.5"/>
</g>
<!-- EncryptionModule -->
<g id="node2" class="node">
<title>EncryptionModule</title>
<polygon fill="#8dd3c7" stroke="black" points="2466.76,-122 2463.76,-126 2442.76,-126 2439.76,-122 2345.24,-122 2345.24,-86 2466.76,-86 2466.76,-122"/>
<text text-anchor="middle" x="2406" y="-99.8" font-family="Times,serif" font-size="14.00">EncryptionModule</text>
</g>
<!-- EncryptionModule&#45;&gt;ExternalToolModule -->
<g id="edge2" class="edge">
<title>EncryptionModule&#45;&gt;ExternalToolModule</title>
<path fill="none" stroke="black" d="M2406,-122.22C2406,-142.37 2406,-172 2406,-172 2406,-172 1624.05,-172 1624.05,-172"/>
<polygon fill="black" stroke="black" points="1624.05,-168.5 1614.05,-172 1624.05,-175.5 1624.05,-168.5"/>
</g>
<!-- LoggerModule -->
<g id="node3" class="node">
<title>LoggerModule</title>
<polygon fill="#8dd3c7" stroke="black" points="2326.98,-122 2323.98,-126 2302.98,-126 2299.98,-122 2227.02,-122 2227.02,-86 2326.98,-86 2326.98,-122"/>
<text text-anchor="middle" x="2277" y="-99.8" font-family="Times,serif" font-size="14.00">LoggerModule</text>
</g>
<!-- LoggerModule&#45;&gt;ExternalToolModule -->
<g id="edge3" class="edge">
<title>LoggerModule&#45;&gt;ExternalToolModule</title>
<path fill="none" stroke="black" d="M2277,-122.22C2277,-140.83 2277,-167 2277,-167 2277,-167 1623.72,-167 1623.72,-167"/>
<polygon fill="black" stroke="black" points="1623.72,-163.5 1613.72,-167 1623.72,-170.5 1623.72,-163.5"/>
</g>
<!-- OauthProviderServiceModule -->
<g id="node4" class="node">
<title>OauthProviderServiceModule</title>
<polygon fill="#8dd3c7" stroke="black" points="2208.95,-122 2205.95,-126 2184.95,-126 2181.95,-122 2025.05,-122 2025.05,-86 2208.95,-86 2208.95,-122"/>
<text text-anchor="middle" x="2117" y="-99.8" font-family="Times,serif" font-size="14.00">OauthProviderServiceModule</text>
</g>
<!-- OauthProviderServiceModule&#45;&gt;ExternalToolModule -->
<g id="edge4" class="edge">
<title>OauthProviderServiceModule&#45;&gt;ExternalToolModule</title>
<path fill="none" stroke="black" d="M2117,-122.03C2117,-139.06 2117,-162 2117,-162 2117,-162 1623.78,-162 1623.78,-162"/>
<polygon fill="black" stroke="black" points="1623.78,-158.5 1613.78,-162 1623.78,-165.5 1623.78,-158.5"/>
</g>
<!-- ToolConfigModule -->
<g id="node5" class="node">
<title>ToolConfigModule</title>
<polygon fill="#8dd3c7" stroke="black" points="2007.38,-122 2004.38,-126 1983.38,-126 1980.38,-122 1882.62,-122 1882.62,-86 2007.38,-86 2007.38,-122"/>
<text text-anchor="middle" x="1945" y="-99.8" font-family="Times,serif" font-size="14.00">ToolConfigModule</text>
</g>
<!-- ToolConfigModule&#45;&gt;ExternalToolModule -->
<g id="edge5" class="edge">
<title>ToolConfigModule&#45;&gt;ExternalToolModule</title>
<path fill="none" stroke="black" d="M1910.75,-122.24C1910.75,-137.57 1910.75,-157 1910.75,-157 1910.75,-157 1623.72,-157 1623.72,-157"/>
<polygon fill="black" stroke="black" points="1623.72,-153.5 1613.72,-157 1623.72,-160.5 1623.72,-153.5"/>
</g>
<!-- ExternalToolConfigurationService  -->
<g id="node7" class="node">
<title>ExternalToolConfigurationService </title>
<polygon fill="#fb8072" stroke="black" points="1938.89,-252 1725.11,-252 1725.11,-216 1938.89,-216 1938.89,-252"/>
<text text-anchor="middle" x="1832" y="-229.8" font-family="Times,serif" font-size="14.00">ExternalToolConfigurationService </text>
</g>
<!-- ExternalToolModule&#45;&gt;ExternalToolConfigurationService  -->
<g id="edge6" class="edge">
<title>ExternalToolModule&#45;&gt;ExternalToolConfigurationService </title>
<path fill="none" stroke="black" stroke-dasharray="5,2" d="M1613.97,-182C1686.54,-182 1792.09,-182 1792.09,-182 1792.09,-182 1792.09,-205.81 1792.09,-205.81"/>
<polygon fill="black" stroke="black" points="1788.59,-205.81 1792.09,-215.81 1795.59,-205.81 1788.59,-205.81"/>
</g>
<!-- ExternalToolService  -->
<g id="node8" class="node">
<title>ExternalToolService </title>
<polygon fill="#fb8072" stroke="black" points="1706.84,-252 1571.16,-252 1571.16,-216 1706.84,-216 1706.84,-252"/>
<text text-anchor="middle" x="1639" y="-229.8" font-family="Times,serif" font-size="14.00">ExternalToolService </text>
</g>
<!-- ExternalToolModule&#45;&gt;ExternalToolService  -->
<g id="edge7" class="edge">
<title>ExternalToolModule&#45;&gt;ExternalToolService </title>
<path fill="none" stroke="black" stroke-dasharray="5,2" d="M1592.52,-187.11C1592.52,-187.11 1592.52,-205.99 1592.52,-205.99"/>
<polygon fill="black" stroke="black" points="1589.02,-205.99 1592.52,-215.99 1596.02,-205.99 1589.02,-205.99"/>
</g>
<!-- ExternalToolValidationService  -->
<g id="node9" class="node">
<title>ExternalToolValidationService </title>
<polygon fill="#fb8072" stroke="black" points="1553.44,-252 1358.56,-252 1358.56,-216 1553.44,-216 1553.44,-252"/>
<text text-anchor="middle" x="1456" y="-229.8" font-family="Times,serif" font-size="14.00">ExternalToolValidationService </text>
</g>
<!-- ExternalToolModule&#45;&gt;ExternalToolValidationService  -->
<g id="edge8" class="edge">
<title>ExternalToolModule&#45;&gt;ExternalToolValidationService </title>
<path fill="none" stroke="black" stroke-dasharray="5,2" d="M1516.76,-187.11C1516.76,-187.11 1516.76,-205.99 1516.76,-205.99"/>
<polygon fill="black" stroke="black" points="1513.26,-205.99 1516.76,-215.99 1520.26,-205.99 1513.26,-205.99"/>
</g>
<!-- ExternalToolVersionService  -->
<g id="node10" class="node">
<title>ExternalToolVersionService </title>
<polygon fill="#fb8072" stroke="black" points="1340.66,-252 1161.34,-252 1161.34,-216 1340.66,-216 1340.66,-252"/>
<text text-anchor="middle" x="1251" y="-229.8" font-family="Times,serif" font-size="14.00">ExternalToolVersionService </text>
</g>
<!-- ExternalToolModule&#45;&gt;ExternalToolVersionService  -->
<g id="edge9" class="edge">
<title>ExternalToolModule&#45;&gt;ExternalToolVersionService </title>
<path fill="none" stroke="black" stroke-dasharray="5,2" d="M1480.11,-182C1399.57,-182 1274.99,-182 1274.99,-182 1274.99,-182 1274.99,-205.81 1274.99,-205.81"/>
<polygon fill="black" stroke="black" points="1271.49,-205.81 1274.99,-215.81 1278.49,-205.81 1271.49,-205.81"/>
</g>
<!-- ExternalToolConfigurationService -->
<g id="node11" class="node">
<title>ExternalToolConfigurationService</title>
<ellipse fill="#fdb462" stroke="black" cx="1714" cy="-104" rx="145.24" ry="18"/>
<text text-anchor="middle" x="1714" y="-99.8" font-family="Times,serif" font-size="14.00">ExternalToolConfigurationService</text>
</g>
<!-- ExternalToolConfigurationService&#45;&gt;ExternalToolModule -->
<g id="edge10" class="edge">
<title>ExternalToolConfigurationService&#45;&gt;ExternalToolModule</title>
<path fill="none" stroke="black" d="M1591.29,-113.87C1591.29,-113.87 1591.29,-140.91 1591.29,-140.91"/>
<polygon fill="black" stroke="black" points="1587.79,-140.91 1591.29,-150.91 1594.79,-140.91 1587.79,-140.91"/>
</g>
<!-- ExternalToolParameterValidationService -->
<g id="node12" class="node">
<title>ExternalToolParameterValidationService</title>
<ellipse fill="#fdb462" stroke="black" cx="1380" cy="-104" rx="170.7" ry="18"/>
<text text-anchor="middle" x="1380" y="-99.8" font-family="Times,serif" font-size="14.00">ExternalToolParameterValidationService</text>
</g>
<!-- ExternalToolParameterValidationService&#45;&gt;ExternalToolModule -->
<g id="edge11" class="edge">
<title>ExternalToolParameterValidationService&#45;&gt;ExternalToolModule</title>
<path fill="none" stroke="black" d="M1515.57,-115.03C1515.57,-115.03 1515.57,-140.78 1515.57,-140.78"/>
<polygon fill="black" stroke="black" points="1512.07,-140.78 1515.57,-150.78 1519.07,-140.78 1512.07,-140.78"/>
</g>
<!-- ExternalToolRepo -->
<g id="node13" class="node">
<title>ExternalToolRepo</title>
<ellipse fill="#fdb462" stroke="black" cx="1109" cy="-104" rx="82.24" ry="18"/>
<text text-anchor="middle" x="1109" y="-99.8" font-family="Times,serif" font-size="14.00">ExternalToolRepo</text>
</g>
<!-- ExternalToolRepo&#45;&gt;ExternalToolModule -->
<g id="edge12" class="edge">
<title>ExternalToolRepo&#45;&gt;ExternalToolModule</title>
<path fill="none" stroke="black" d="M1176.27,-114.47C1176.27,-129.92 1176.27,-157 1176.27,-157 1176.27,-157 1469.86,-157 1469.86,-157"/>
<polygon fill="black" stroke="black" points="1469.86,-160.5 1479.86,-157 1469.86,-153.5 1469.86,-160.5"/>
</g>
<!-- ExternalToolService -->
<g id="node14" class="node">
<title>ExternalToolService</title>
<ellipse fill="#fdb462" stroke="black" cx="918" cy="-104" rx="90.89" ry="18"/>
<text text-anchor="middle" x="918" y="-99.8" font-family="Times,serif" font-size="14.00">ExternalToolService</text>
</g>
<!-- ExternalToolService&#45;&gt;ExternalToolModule -->
<g id="edge13" class="edge">
<title>ExternalToolService&#45;&gt;ExternalToolModule</title>
<path fill="none" stroke="black" d="M918,-122.03C918,-139.06 918,-162 918,-162 918,-162 1470.28,-162 1470.28,-162"/>
<polygon fill="black" stroke="black" points="1470.28,-165.5 1480.28,-162 1470.28,-158.5 1470.28,-165.5"/>
</g>
<!-- ExternalToolServiceMapper -->
<g id="node15" class="node">
<title>ExternalToolServiceMapper</title>
<ellipse fill="#fdb462" stroke="black" cx="688" cy="-104" rx="120.95" ry="18"/>
<text text-anchor="middle" x="688" y="-99.8" font-family="Times,serif" font-size="14.00">ExternalToolServiceMapper</text>
</g>
<!-- ExternalToolServiceMapper&#45;&gt;ExternalToolModule -->
<g id="edge14" class="edge">
<title>ExternalToolServiceMapper&#45;&gt;ExternalToolModule</title>
<path fill="none" stroke="black" d="M688,-122.22C688,-140.83 688,-167 688,-167 688,-167 1469.95,-167 1469.95,-167"/>
<polygon fill="black" stroke="black" points="1469.95,-170.5 1479.95,-167 1469.95,-163.5 1469.95,-170.5"/>
</g>
<!-- ExternalToolValidationService -->
<g id="node16" class="node">
<title>ExternalToolValidationService</title>
<ellipse fill="#fdb462" stroke="black" cx="417" cy="-104" rx="131.92" ry="18"/>
<text text-anchor="middle" x="417" y="-99.8" font-family="Times,serif" font-size="14.00">ExternalToolValidationService</text>
</g>
<!-- ExternalToolValidationService&#45;&gt;ExternalToolModule -->
<g id="edge15" class="edge">
<title>ExternalToolValidationService&#45;&gt;ExternalToolModule</title>
<path fill="none" stroke="black" d="M417,-122.22C417,-142.37 417,-172 417,-172 417,-172 1470.12,-172 1470.12,-172"/>
<polygon fill="black" stroke="black" points="1470.12,-175.5 1480.12,-172 1470.12,-168.5 1470.12,-175.5"/>
</g>
<!-- ExternalToolVersionService -->
<g id="node17" class="node">
<title>ExternalToolVersionService</title>
<ellipse fill="#fdb462" stroke="black" cx="146" cy="-104" rx="121.53" ry="18"/>
<text text-anchor="middle" x="146" y="-99.8" font-family="Times,serif" font-size="14.00">ExternalToolVersionService</text>
</g>
<!-- ExternalToolVersionService&#45;&gt;ExternalToolModule -->
<g id="edge16" class="edge">
<title>ExternalToolVersionService&#45;&gt;ExternalToolModule</title>
<path fill="none" stroke="black" d="M146,-122.04C146,-143.66 146,-177 146,-177 146,-177 1469.9,-177 1469.9,-177"/>
<polygon fill="black" stroke="black" points="1469.9,-180.5 1479.9,-177 1469.9,-173.5 1469.9,-180.5"/>
</g>
</g>
</svg>
