<?xml version="1.0" encoding="UTF-8" standalone="no"?>
<!DOCTYPE svg PUBLIC "-//W3C//DTD SVG 1.1//EN"
 "http://www.w3.org/Graphics/SVG/1.1/DTD/svg11.dtd">
<!-- Generated by graphviz version 2.47.0 (20210316.0004)
 -->
<!-- Title: dependencies Pages: 1 -->
<svg width="2993pt" height="284pt"
 viewBox="0.00 0.00 2993.00 284.00" xmlns="http://www.w3.org/2000/svg" xmlns:xlink="http://www.w3.org/1999/xlink">
<g id="graph0" class="graph" transform="scale(1 1) rotate(0) translate(4 280)">
<title>dependencies</title>
<polygon fill="white" stroke="transparent" points="-4,4 -4,-280 2989,-280 2989,4 -4,4"/>
<text text-anchor="start" x="1471.51" y="-42.4" font-family="Times-12" font-weight="bold" font-size="14.00">Legend</text>
<polygon fill="#ffffb3" stroke="transparent" points="1258.5,-10 1258.5,-30 1278.5,-30 1278.5,-10 1258.5,-10"/>
<text text-anchor="start" x="1282.13" y="-15.4" font-family="Times-12" font-size="14.00"> &#160;Declarations</text>
<polygon fill="#8dd3c7" stroke="transparent" points="1371.5,-10 1371.5,-30 1391.5,-30 1391.5,-10 1371.5,-10"/>
<text text-anchor="start" x="1395.23" y="-15.4" font-family="Times-12" font-size="14.00"> &#160;Module</text>
<polygon fill="#80b1d3" stroke="transparent" points="1457.5,-10 1457.5,-30 1477.5,-30 1477.5,-10 1457.5,-10"/>
<text text-anchor="start" x="1481.28" y="-15.4" font-family="Times-12" font-size="14.00"> &#160;Bootstrap</text>
<polygon fill="#fdb462" stroke="transparent" points="1554.5,-10 1554.5,-30 1574.5,-30 1574.5,-10 1554.5,-10"/>
<text text-anchor="start" x="1578.17" y="-15.4" font-family="Times-12" font-size="14.00"> &#160;Providers</text>
<polygon fill="#fb8072" stroke="transparent" points="1650.5,-10 1650.5,-30 1670.5,-30 1670.5,-10 1650.5,-10"/>
<text text-anchor="start" x="1674.23" y="-15.4" font-family="Times-12" font-size="14.00"> &#160;Exports</text>
<g id="clust1" class="cluster">
<title>cluster_ExternalToolModule</title>
<polygon fill="none" stroke="black" stroke-dasharray="1,5" points="8,-70 8,-268 2977,-268 2977,-70 8,-70"/>
</g>
<g id="clust4" class="cluster">
<title>cluster_ExternalToolModule_exports</title>
<polygon fill="none" stroke="black" points="1134,-208 1134,-260 2292,-260 2292,-208 1134,-208"/>
</g>
<g id="clust3" class="cluster">
<title>cluster_ExternalToolModule_imports</title>
<polygon fill="none" stroke="black" points="2355,-78 2355,-130 2969,-130 2969,-78 2355,-78"/>
</g>
<g id="clust6" class="cluster">
<title>cluster_ExternalToolModule_providers</title>
<polygon fill="none" stroke="black" points="16,-78 16,-130 2347,-130 2347,-78 16,-78"/>
</g>
<!-- CommonToolModule -->
<g id="node1" class="node">
<title>CommonToolModule</title>
<polygon fill="#8dd3c7" stroke="black" points="2961.11,-122 2958.11,-126 2937.11,-126 2934.11,-122 2822.89,-122 2822.89,-86 2961.11,-86 2961.11,-122"/>
<text text-anchor="middle" x="2892" y="-99.8" font-family="Times,serif" font-size="14.00">CommonToolModule</text>
</g>
<!-- ExternalToolModule -->
<g id="node5" class="node">
<title>ExternalToolModule</title>
<polygon fill="#8dd3c7" stroke="black" points="1759.92,-187 1756.92,-191 1735.92,-191 1732.92,-187 1626.08,-187 1626.08,-151 1759.92,-151 1759.92,-187"/>
<text text-anchor="middle" x="1693" y="-164.8" font-family="Times,serif" font-size="14.00">ExternalToolModule</text>
</g>
<!-- CommonToolModule&#45;&gt;ExternalToolModule -->
<g id="edge1" class="edge">
<title>CommonToolModule&#45;&gt;ExternalToolModule</title>
<path fill="none" stroke="black" d="M2892,-122.28C2892,-143.32 2892,-175 2892,-175 2892,-175 1770.03,-175 1770.03,-175"/>
<polygon fill="black" stroke="black" points="1770.03,-171.5 1760.03,-175 1770.03,-178.5 1770.03,-171.5"/>
</g>
<!-- EncryptionModule -->
<g id="node2" class="node">
<title>EncryptionModule</title>
<polygon fill="#8dd3c7" stroke="black" points="2804.76,-122 2801.76,-126 2780.76,-126 2777.76,-122 2683.24,-122 2683.24,-86 2804.76,-86 2804.76,-122"/>
<text text-anchor="middle" x="2744" y="-99.8" font-family="Times,serif" font-size="14.00">EncryptionModule</text>
</g>
<!-- EncryptionModule&#45;&gt;ExternalToolModule -->
<g id="edge2" class="edge">
<title>EncryptionModule&#45;&gt;ExternalToolModule</title>
<path fill="none" stroke="black" d="M2744,-122.31C2744,-142.15 2744,-171 2744,-171 2744,-171 1769.94,-171 1769.94,-171"/>
<polygon fill="black" stroke="black" points="1769.94,-167.5 1759.94,-171 1769.94,-174.5 1769.94,-167.5"/>
</g>
<!-- LoggerModule -->
<g id="node3" class="node">
<title>LoggerModule</title>
<polygon fill="#8dd3c7" stroke="black" points="2664.98,-122 2661.98,-126 2640.98,-126 2637.98,-122 2565.02,-122 2565.02,-86 2664.98,-86 2664.98,-122"/>
<text text-anchor="middle" x="2615" y="-99.8" font-family="Times,serif" font-size="14.00">LoggerModule</text>
</g>
<!-- LoggerModule&#45;&gt;ExternalToolModule -->
<g id="edge3" class="edge">
<title>LoggerModule&#45;&gt;ExternalToolModule</title>
<path fill="none" stroke="black" d="M2615,-122.22C2615,-140.83 2615,-167 2615,-167 2615,-167 1770.05,-167 1770.05,-167"/>
<polygon fill="black" stroke="black" points="1770.05,-163.5 1760.05,-167 1770.05,-170.5 1770.05,-163.5"/>
</g>
<!-- OauthProviderServiceModule -->
<g id="node4" class="node">
<title>OauthProviderServiceModule</title>
<polygon fill="#8dd3c7" stroke="black" points="2546.95,-122 2543.95,-126 2522.95,-126 2519.95,-122 2363.05,-122 2363.05,-86 2546.95,-86 2546.95,-122"/>
<text text-anchor="middle" x="2455" y="-99.8" font-family="Times,serif" font-size="14.00">OauthProviderServiceModule</text>
</g>
<!-- OauthProviderServiceModule&#45;&gt;ExternalToolModule -->
<g id="edge4" class="edge">
<title>OauthProviderServiceModule&#45;&gt;ExternalToolModule</title>
<path fill="none" stroke="black" d="M2455,-122.02C2455,-139.37 2455,-163 2455,-163 2455,-163 1769.95,-163 1769.95,-163"/>
<polygon fill="black" stroke="black" points="1769.95,-159.5 1759.95,-163 1769.95,-166.5 1769.95,-159.5"/>
</g>
<!-- DatasheetPdfService  -->
<g id="node6" class="node">
<title>DatasheetPdfService </title>
<polygon fill="#fb8072" stroke="black" points="2284.11,-252 2147.89,-252 2147.89,-216 2284.11,-216 2284.11,-252"/>
<text text-anchor="middle" x="2216" y="-229.8" font-family="Times,serif" font-size="14.00">DatasheetPdfService </text>
</g>
<!-- ExternalToolModule&#45;&gt;DatasheetPdfService  -->
<g id="edge5" class="edge">
<title>ExternalToolModule&#45;&gt;DatasheetPdfService </title>
<path fill="none" stroke="black" stroke-dasharray="5,2" d="M1759.78,-179C1887.14,-179 2152.24,-179 2152.24,-179 2152.24,-179 2152.24,-205.99 2152.24,-205.99"/>
<polygon fill="black" stroke="black" points="2148.74,-205.99 2152.24,-215.99 2155.74,-205.99 2148.74,-205.99"/>
</g>
<!-- ExternalToolAuthorizableService  -->
<g id="node7" class="node">
<title>ExternalToolAuthorizableService </title>
<polygon fill="#fb8072" stroke="black" points="2130.43,-252 1921.57,-252 1921.57,-216 2130.43,-216 2130.43,-252"/>
<text text-anchor="middle" x="2026" y="-229.8" font-family="Times,serif" font-size="14.00">ExternalToolAuthorizableService </text>
</g>
<!-- ExternalToolModule&#45;&gt;ExternalToolAuthorizableService  -->
<g id="edge6" class="edge">
<title>ExternalToolModule&#45;&gt;ExternalToolAuthorizableService </title>
<path fill="none" stroke="black" stroke-dasharray="5,2" d="M1759.99,-183C1857.23,-183 2026,-183 2026,-183 2026,-183 2026,-205.88 2026,-205.88"/>
<polygon fill="black" stroke="black" points="2022.5,-205.88 2026,-215.88 2029.5,-205.88 2022.5,-205.88"/>
</g>
<!-- ExternalToolConfigurationService  -->
<g id="node8" class="node">
<title>ExternalToolConfigurationService </title>
<polygon fill="#fb8072" stroke="black" points="1903.89,-252 1690.11,-252 1690.11,-216 1903.89,-216 1903.89,-252"/>
<text text-anchor="middle" x="1797" y="-229.8" font-family="Times,serif" font-size="14.00">ExternalToolConfigurationService </text>
</g>
<!-- ExternalToolModule&#45;&gt;ExternalToolConfigurationService  -->
<g id="edge7" class="edge">
<title>ExternalToolModule&#45;&gt;ExternalToolConfigurationService </title>
<path fill="none" stroke="black" stroke-dasharray="5,2" d="M1724.88,-187.11C1724.88,-187.11 1724.88,-205.99 1724.88,-205.99"/>
<polygon fill="black" stroke="black" points="1721.38,-205.99 1724.88,-215.99 1728.38,-205.99 1721.38,-205.99"/>
</g>
<!-- ExternalToolLogoService  -->
<g id="node9" class="node">
<title>ExternalToolLogoService </title>
<polygon fill="#fb8072" stroke="black" points="1672.4,-252 1507.6,-252 1507.6,-216 1672.4,-216 1672.4,-252"/>
<text text-anchor="middle" x="1590" y="-229.8" font-family="Times,serif" font-size="14.00">ExternalToolLogoService </text>
</g>
<!-- ExternalToolModule&#45;&gt;ExternalToolLogoService  -->
<g id="edge8" class="edge">
<title>ExternalToolModule&#45;&gt;ExternalToolLogoService </title>
<path fill="none" stroke="black" stroke-dasharray="5,2" d="M1649.37,-187.11C1649.37,-187.11 1649.37,-205.99 1649.37,-205.99"/>
<polygon fill="black" stroke="black" points="1645.87,-205.99 1649.37,-215.99 1652.87,-205.99 1645.87,-205.99"/>
</g>
<!-- ExternalToolService  -->
<g id="node10" class="node">
<title>ExternalToolService </title>
<polygon fill="#fb8072" stroke="black" points="1489.84,-252 1354.16,-252 1354.16,-216 1489.84,-216 1489.84,-252"/>
<text text-anchor="middle" x="1422" y="-229.8" font-family="Times,serif" font-size="14.00">ExternalToolService </text>
</g>
<!-- ExternalToolModule&#45;&gt;ExternalToolService  -->
<g id="edge9" class="edge">
<title>ExternalToolModule&#45;&gt;ExternalToolService </title>
<path fill="none" stroke="black" stroke-dasharray="5,2" d="M1626.01,-183C1545.76,-183 1422,-183 1422,-183 1422,-183 1422,-205.88 1422,-205.88"/>
<polygon fill="black" stroke="black" points="1418.5,-205.88 1422,-215.88 1425.5,-205.88 1418.5,-205.88"/>
</g>
<!-- ExternalToolValidationService  -->
<g id="node11" class="node">
<title>ExternalToolValidationService </title>
<polygon fill="#fb8072" stroke="black" points="1336.44,-252 1141.56,-252 1141.56,-216 1336.44,-216 1336.44,-252"/>
<text text-anchor="middle" x="1239" y="-229.8" font-family="Times,serif" font-size="14.00">ExternalToolValidationService </text>
</g>
<!-- ExternalToolModule&#45;&gt;ExternalToolValidationService  -->
<g id="edge10" class="edge">
<title>ExternalToolModule&#45;&gt;ExternalToolValidationService </title>
<path fill="none" stroke="black" stroke-dasharray="5,2" d="M1626.23,-179C1519.41,-179 1321.95,-179 1321.95,-179 1321.95,-179 1321.95,-205.99 1321.95,-205.99"/>
<polygon fill="black" stroke="black" points="1318.45,-205.99 1321.95,-215.99 1325.45,-205.99 1318.45,-205.99"/>
</g>
<!-- DatasheetPdfService -->
<g id="node12" class="node">
<title>DatasheetPdfService</title>
<ellipse fill="#fdb462" stroke="black" cx="2248" cy="-104" rx="91.45" ry="18"/>
<text text-anchor="middle" x="2248" y="-99.8" font-family="Times,serif" font-size="14.00">DatasheetPdfService</text>
</g>
<!-- DatasheetPdfService&#45;&gt;ExternalToolModule -->
<g id="edge11" class="edge">
<title>DatasheetPdfService&#45;&gt;ExternalToolModule</title>
<path fill="none" stroke="black" d="M2220.29,-121.4C2220.29,-137.52 2220.29,-159 2220.29,-159 2220.29,-159 1769.78,-159 1769.78,-159"/>
<polygon fill="black" stroke="black" points="1769.78,-155.5 1759.78,-159 1769.78,-162.5 1769.78,-155.5"/>
</g>
<!-- ExternalToolAuthorizableService -->
<g id="node13" class="node">
<title>ExternalToolAuthorizableService</title>
<ellipse fill="#fdb462" stroke="black" cx="1997" cy="-104" rx="141.21" ry="18"/>
<text text-anchor="middle" x="1997" y="-99.8" font-family="Times,serif" font-size="14.00">ExternalToolAuthorizableService</text>
</g>
<!-- ExternalToolAuthorizableService&#45;&gt;ExternalToolModule -->
<g id="edge12" class="edge">
<title>ExternalToolAuthorizableService&#45;&gt;ExternalToolModule</title>
<path fill="none" stroke="black" d="M1879.79,-114.32C1879.79,-129.22 1879.79,-155 1879.79,-155 1879.79,-155 1769.91,-155 1769.91,-155"/>
<polygon fill="black" stroke="black" points="1769.91,-151.5 1759.91,-155 1769.91,-158.5 1769.91,-151.5"/>
</g>
<!-- ExternalToolConfigurationService -->
<g id="node14" class="node">
<title>ExternalToolConfigurationService</title>
<ellipse fill="#fdb462" stroke="black" cx="1693" cy="-104" rx="145.24" ry="18"/>
<text text-anchor="middle" x="1693" y="-99.8" font-family="Times,serif" font-size="14.00">ExternalToolConfigurationService</text>
</g>
<!-- ExternalToolConfigurationService&#45;&gt;ExternalToolModule -->
<g id="edge13" class="edge">
<title>ExternalToolConfigurationService&#45;&gt;ExternalToolModule</title>
<path fill="none" stroke="black" d="M1693,-122.11C1693,-122.11 1693,-140.99 1693,-140.99"/>
<polygon fill="black" stroke="black" points="1689.5,-140.99 1693,-150.99 1696.5,-140.99 1689.5,-140.99"/>
</g>
<!-- ExternalToolLogoService -->
<g id="node15" class="node">
<title>ExternalToolLogoService</title>
<ellipse fill="#fdb462" stroke="black" cx="1419" cy="-104" rx="111.16" ry="18"/>
<text text-anchor="middle" x="1419" y="-99.8" font-family="Times,serif" font-size="14.00">ExternalToolLogoService</text>
</g>
<!-- ExternalToolLogoService&#45;&gt;ExternalToolModule -->
<g id="edge14" class="edge">
<title>ExternalToolLogoService&#45;&gt;ExternalToolModule</title>
<path fill="none" stroke="black" d="M1518.94,-111.97C1518.94,-126.31 1518.94,-155 1518.94,-155 1518.94,-155 1616.2,-155 1616.2,-155"/>
<polygon fill="black" stroke="black" points="1616.2,-158.5 1626.2,-155 1616.2,-151.5 1616.2,-158.5"/>
</g>
<!-- ExternalToolParameterValidationService -->
<g id="node16" class="node">
<title>ExternalToolParameterValidationService</title>
<ellipse fill="#fdb462" stroke="black" cx="1119" cy="-104" rx="170.7" ry="18"/>
<text text-anchor="middle" x="1119" y="-99.8" font-family="Times,serif" font-size="14.00">ExternalToolParameterValidationService</text>
</g>
<!-- ExternalToolParameterValidationService&#45;&gt;ExternalToolModule -->
<g id="edge15" class="edge">
<title>ExternalToolParameterValidationService&#45;&gt;ExternalToolModule</title>
<path fill="none" stroke="black" d="M1215.81,-119.03C1215.81,-135.31 1215.81,-159 1215.81,-159 1215.81,-159 1616.15,-159 1616.15,-159"/>
<polygon fill="black" stroke="black" points="1616.15,-162.5 1626.15,-159 1616.15,-155.5 1616.15,-162.5"/>
</g>
<!-- ExternalToolRepo -->
<g id="node17" class="node">
<title>ExternalToolRepo</title>
<ellipse fill="#fdb462" stroke="black" cx="848" cy="-104" rx="82.24" ry="18"/>
<text text-anchor="middle" x="848" y="-99.8" font-family="Times,serif" font-size="14.00">ExternalToolRepo</text>
</g>
<!-- ExternalToolRepo&#45;&gt;ExternalToolModule -->
<g id="edge16" class="edge">
<title>ExternalToolRepo&#45;&gt;ExternalToolModule</title>
<path fill="none" stroke="black" d="M848,-122.02C848,-139.37 848,-163 848,-163 848,-163 1615.99,-163 1615.99,-163"/>
<polygon fill="black" stroke="black" points="1615.99,-166.5 1625.99,-163 1615.99,-159.5 1615.99,-166.5"/>
</g>
<!-- ExternalToolService -->
<g id="node18" class="node">
<title>ExternalToolService</title>
<ellipse fill="#fdb462" stroke="black" cx="657" cy="-104" rx="90.89" ry="18"/>
<text text-anchor="middle" x="657" y="-99.8" font-family="Times,serif" font-size="14.00">ExternalToolService</text>
</g>
<!-- ExternalToolService&#45;&gt;ExternalToolModule -->
<g id="edge17" class="edge">
<title>ExternalToolService&#45;&gt;ExternalToolModule</title>
<path fill="none" stroke="black" d="M657,-122.22C657,-140.83 657,-167 657,-167 657,-167 1616.22,-167 1616.22,-167"/>
<polygon fill="black" stroke="black" points="1616.22,-170.5 1626.22,-167 1616.22,-163.5 1616.22,-170.5"/>
</g>
<!-- ExternalToolServiceMapper -->
<g id="node19" class="node">
<title>ExternalToolServiceMapper</title>
<ellipse fill="#fdb462" stroke="black" cx="427" cy="-104" rx="120.95" ry="18"/>
<text text-anchor="middle" x="427" y="-99.8" font-family="Times,serif" font-size="14.00">ExternalToolServiceMapper</text>
</g>
<!-- ExternalToolServiceMapper&#45;&gt;ExternalToolModule -->
<g id="edge18" class="edge">
<title>ExternalToolServiceMapper&#45;&gt;ExternalToolModule</title>
<path fill="none" stroke="black" d="M427,-122.31C427,-142.15 427,-171 427,-171 427,-171 1616.27,-171 1616.27,-171"/>
<polygon fill="black" stroke="black" points="1616.27,-174.5 1626.27,-171 1616.27,-167.5 1616.27,-174.5"/>
</g>
<!-- ExternalToolValidationService -->
<g id="node20" class="node">
<title>ExternalToolValidationService</title>
<ellipse fill="#fdb462" stroke="black" cx="156" cy="-104" rx="131.92" ry="18"/>
<text text-anchor="middle" x="156" y="-99.8" font-family="Times,serif" font-size="14.00">ExternalToolValidationService</text>
</g>
<!-- ExternalToolValidationService&#45;&gt;ExternalToolModule -->
<g id="edge19" class="edge">
<title>ExternalToolValidationService&#45;&gt;ExternalToolModule</title>
<path fill="none" stroke="black" d="M156,-122.28C156,-143.32 156,-175 156,-175 156,-175 1615.97,-175 1615.97,-175"/>
<polygon fill="black" stroke="black" points="1615.97,-178.5 1625.97,-175 1615.97,-171.5 1615.97,-178.5"/>
</g>
</g>
</svg>
