<?xml version="1.0" encoding="UTF-8" standalone="no"?>
<!DOCTYPE svg PUBLIC "-//W3C//DTD SVG 1.1//EN"
 "http://www.w3.org/Graphics/SVG/1.1/DTD/svg11.dtd">
<!-- Generated by graphviz version 2.47.0 (20210316.0004)
 -->
<!-- Title: dependencies Pages: 1 -->
<svg width="2655pt" height="284pt"
 viewBox="0.00 0.00 2655.00 284.00" xmlns="http://www.w3.org/2000/svg" xmlns:xlink="http://www.w3.org/1999/xlink">
<g id="graph0" class="graph" transform="scale(1 1) rotate(0) translate(4 280)">
<title>dependencies</title>
<polygon fill="white" stroke="transparent" points="-4,4 -4,-280 2651,-280 2651,4 -4,4"/>
<text text-anchor="start" x="1302.51" y="-42.4" font-family="Times-12" font-weight="bold" font-size="14.00">Legend</text>
<polygon fill="#ffffb3" stroke="transparent" points="1089.5,-10 1089.5,-30 1109.5,-30 1109.5,-10 1089.5,-10"/>
<text text-anchor="start" x="1113.13" y="-15.4" font-family="Times-12" font-size="14.00"> &#160;Declarations</text>
<polygon fill="#8dd3c7" stroke="transparent" points="1202.5,-10 1202.5,-30 1222.5,-30 1222.5,-10 1202.5,-10"/>
<text text-anchor="start" x="1226.23" y="-15.4" font-family="Times-12" font-size="14.00"> &#160;Module</text>
<polygon fill="#80b1d3" stroke="transparent" points="1288.5,-10 1288.5,-30 1308.5,-30 1308.5,-10 1288.5,-10"/>
<text text-anchor="start" x="1312.28" y="-15.4" font-family="Times-12" font-size="14.00"> &#160;Bootstrap</text>
<polygon fill="#fdb462" stroke="transparent" points="1385.5,-10 1385.5,-30 1405.5,-30 1405.5,-10 1385.5,-10"/>
<text text-anchor="start" x="1409.17" y="-15.4" font-family="Times-12" font-size="14.00"> &#160;Providers</text>
<polygon fill="#fb8072" stroke="transparent" points="1481.5,-10 1481.5,-30 1501.5,-30 1501.5,-10 1481.5,-10"/>
<text text-anchor="start" x="1505.23" y="-15.4" font-family="Times-12" font-size="14.00"> &#160;Exports</text>
<g id="clust1" class="cluster">
<title>cluster_ExternalToolModule</title>
<polygon fill="none" stroke="black" stroke-dasharray="1,5" points="8,-70 8,-268 2639,-268 2639,-70 8,-70"/>
</g>
<g id="clust6" class="cluster">
<title>cluster_ExternalToolModule_providers</title>
<polygon fill="none" stroke="black" points="780,-78 780,-130 2631,-130 2631,-78 780,-78"/>
</g>
<g id="clust3" class="cluster">
<title>cluster_ExternalToolModule_imports</title>
<polygon fill="none" stroke="black" points="16,-78 16,-130 772,-130 772,-78 16,-78"/>
</g>
<g id="clust4" class="cluster">
<title>cluster_ExternalToolModule_exports</title>
<polygon fill="none" stroke="black" points="651,-208 651,-260 1445,-260 1445,-208 651,-208"/>
</g>
<!-- CommonToolModule -->
<g id="node1" class="node">
<title>CommonToolModule</title>
<polygon fill="#8dd3c7" stroke="black" points="764.11,-122 761.11,-126 740.11,-126 737.11,-122 625.89,-122 625.89,-86 764.11,-86 764.11,-122"/>
<text text-anchor="middle" x="695" y="-99.8" font-family="Times,serif" font-size="14.00">CommonToolModule</text>
</g>
<!-- ExternalToolModule -->
<g id="node6" class="node">
<title>ExternalToolModule</title>
<polygon fill="#8dd3c7" stroke="black" points="1111.92,-187 1108.92,-191 1087.92,-191 1084.92,-187 978.08,-187 978.08,-151 1111.92,-151 1111.92,-187"/>
<text text-anchor="middle" x="1045" y="-164.8" font-family="Times,serif" font-size="14.00">ExternalToolModule</text>
</g>
<!-- CommonToolModule&#45;&gt;ExternalToolModule -->
<g id="edge1" class="edge">
<title>CommonToolModule&#45;&gt;ExternalToolModule</title>
<path fill="none" stroke="black" d="M711.61,-122.24C711.61,-137.57 711.61,-157 711.61,-157 711.61,-157 967.94,-157 967.94,-157"/>
<polygon fill="black" stroke="black" points="967.94,-160.5 977.94,-157 967.94,-153.5 967.94,-160.5"/>
</g>
<!-- EncryptionModule -->
<g id="node2" class="node">
<title>EncryptionModule</title>
<polygon fill="#8dd3c7" stroke="black" points="607.76,-122 604.76,-126 583.76,-126 580.76,-122 486.24,-122 486.24,-86 607.76,-86 607.76,-122"/>
<text text-anchor="middle" x="547" y="-99.8" font-family="Times,serif" font-size="14.00">EncryptionModule</text>
</g>
<!-- EncryptionModule&#45;&gt;ExternalToolModule -->
<g id="edge2" class="edge">
<title>EncryptionModule&#45;&gt;ExternalToolModule</title>
<path fill="none" stroke="black" d="M547,-122.03C547,-139.06 547,-162 547,-162 547,-162 968.1,-162 968.1,-162"/>
<polygon fill="black" stroke="black" points="968.1,-165.5 978.1,-162 968.1,-158.5 968.1,-165.5"/>
</g>
<!-- LoggerModule -->
<g id="node3" class="node">
<title>LoggerModule</title>
<polygon fill="#8dd3c7" stroke="black" points="467.98,-122 464.98,-126 443.98,-126 440.98,-122 368.02,-122 368.02,-86 467.98,-86 467.98,-122"/>
<text text-anchor="middle" x="418" y="-99.8" font-family="Times,serif" font-size="14.00">LoggerModule</text>
</g>
<!-- LoggerModule&#45;&gt;ExternalToolModule -->
<g id="edge3" class="edge">
<title>LoggerModule&#45;&gt;ExternalToolModule</title>
<path fill="none" stroke="black" d="M418,-122.22C418,-140.83 418,-167 418,-167 418,-167 968.2,-167 968.2,-167"/>
<polygon fill="black" stroke="black" points="968.2,-170.5 978.2,-167 968.2,-163.5 968.2,-170.5"/>
</g>
<!-- OauthProviderServiceModule -->
<g id="node4" class="node">
<title>OauthProviderServiceModule</title>
<polygon fill="#8dd3c7" stroke="black" points="349.95,-122 346.95,-126 325.95,-126 322.95,-122 166.05,-122 166.05,-86 349.95,-86 349.95,-122"/>
<text text-anchor="middle" x="258" y="-99.8" font-family="Times,serif" font-size="14.00">OauthProviderServiceModule</text>
</g>
<!-- OauthProviderServiceModule&#45;&gt;ExternalToolModule -->
<g id="edge4" class="edge">
<title>OauthProviderServiceModule&#45;&gt;ExternalToolModule</title>
<path fill="none" stroke="black" d="M258,-122.22C258,-142.37 258,-172 258,-172 258,-172 968.24,-172 968.24,-172"/>
<polygon fill="black" stroke="black" points="968.24,-175.5 978.24,-172 968.24,-168.5 968.24,-175.5"/>
</g>
<!-- ToolConfigModule -->
<g id="node5" class="node">
<title>ToolConfigModule</title>
<polygon fill="#8dd3c7" stroke="black" points="148.38,-122 145.38,-126 124.38,-126 121.38,-122 23.62,-122 23.62,-86 148.38,-86 148.38,-122"/>
<text text-anchor="middle" x="86" y="-99.8" font-family="Times,serif" font-size="14.00">ToolConfigModule</text>
</g>
<!-- ToolConfigModule&#45;&gt;ExternalToolModule -->
<g id="edge5" class="edge">
<title>ToolConfigModule&#45;&gt;ExternalToolModule</title>
<path fill="none" stroke="black" d="M86,-122.04C86,-143.66 86,-177 86,-177 86,-177 967.95,-177 967.95,-177"/>
<polygon fill="black" stroke="black" points="967.95,-180.5 977.95,-177 967.95,-173.5 967.95,-180.5"/>
</g>
<!-- ExternalToolConfigurationService  -->
<g id="node7" class="node">
<title>ExternalToolConfigurationService </title>
<polygon fill="#fb8072" stroke="black" points="1436.89,-252 1223.11,-252 1223.11,-216 1436.89,-216 1436.89,-252"/>
<text text-anchor="middle" x="1330" y="-229.8" font-family="Times,serif" font-size="14.00">ExternalToolConfigurationService </text>
</g>
<!-- ExternalToolModule&#45;&gt;ExternalToolConfigurationService  -->
<g id="edge6" class="edge">
<title>ExternalToolModule&#45;&gt;ExternalToolConfigurationService </title>
<path fill="none" stroke="black" stroke-dasharray="5,2" d="M1111.87,-182C1177.52,-182 1267.88,-182 1267.88,-182 1267.88,-182 1267.88,-205.81 1267.88,-205.81"/>
<polygon fill="black" stroke="black" points="1264.38,-205.81 1267.88,-215.81 1271.38,-205.81 1264.38,-205.81"/>
</g>
<!-- ExternalToolService  -->
<g id="node8" class="node">
<title>ExternalToolService </title>
<polygon fill="#fb8072" stroke="black" points="1204.84,-252 1069.16,-252 1069.16,-216 1204.84,-216 1204.84,-252"/>
<text text-anchor="middle" x="1137" y="-229.8" font-family="Times,serif" font-size="14.00">ExternalToolService </text>
</g>
<!-- ExternalToolModule&#45;&gt;ExternalToolService  -->
<g id="edge7" class="edge">
<title>ExternalToolModule&#45;&gt;ExternalToolService </title>
<path fill="none" stroke="black" stroke-dasharray="5,2" d="M1090.52,-187.11C1090.52,-187.11 1090.52,-205.99 1090.52,-205.99"/>
<polygon fill="black" stroke="black" points="1087.02,-205.99 1090.52,-215.99 1094.02,-205.99 1087.02,-205.99"/>
</g>
<!-- ExternalToolValidationService  -->
<g id="node9" class="node">
<title>ExternalToolValidationService </title>
<polygon fill="#fb8072" stroke="black" points="1051.44,-252 856.56,-252 856.56,-216 1051.44,-216 1051.44,-252"/>
<text text-anchor="middle" x="954" y="-229.8" font-family="Times,serif" font-size="14.00">ExternalToolValidationService </text>
</g>
<!-- ExternalToolModule&#45;&gt;ExternalToolValidationService  -->
<g id="edge8" class="edge">
<title>ExternalToolModule&#45;&gt;ExternalToolValidationService </title>
<path fill="none" stroke="black" stroke-dasharray="5,2" d="M1014.76,-187.11C1014.76,-187.11 1014.76,-205.99 1014.76,-205.99"/>
<polygon fill="black" stroke="black" points="1011.26,-205.99 1014.76,-215.99 1018.26,-205.99 1011.26,-205.99"/>
</g>
<!-- ExternalToolVersionService  -->
<g id="node10" class="node">
<title>ExternalToolVersionService </title>
<polygon fill="#fb8072" stroke="black" points="838.66,-252 659.34,-252 659.34,-216 838.66,-216 838.66,-252"/>
<text text-anchor="middle" x="749" y="-229.8" font-family="Times,serif" font-size="14.00">ExternalToolVersionService </text>
</g>
<!-- ExternalToolModule&#45;&gt;ExternalToolVersionService  -->
<g id="edge9" class="edge">
<title>ExternalToolModule&#45;&gt;ExternalToolVersionService </title>
<path fill="none" stroke="black" stroke-dasharray="5,2" d="M978.09,-182C909.76,-182 813.66,-182 813.66,-182 813.66,-182 813.66,-205.81 813.66,-205.81"/>
<polygon fill="black" stroke="black" points="810.16,-205.81 813.66,-215.81 817.16,-205.81 810.16,-205.81"/>
</g>
<!-- ExternalToolConfigurationService -->
<g id="node11" class="node">
<title>ExternalToolConfigurationService</title>
<ellipse fill="#fdb462" stroke="black" cx="2478" cy="-104" rx="145.24" ry="18"/>
<text text-anchor="middle" x="2478" y="-99.8" font-family="Times,serif" font-size="14.00">ExternalToolConfigurationService</text>
</g>
<!-- ExternalToolConfigurationService&#45;&gt;ExternalToolModule -->
<g id="edge10" class="edge">
<title>ExternalToolConfigurationService&#45;&gt;ExternalToolModule</title>
<path fill="none" stroke="black" d="M2478,-122.04C2478,-143.66 2478,-177 2478,-177 2478,-177 1121.72,-177 1121.72,-177"/>
<polygon fill="black" stroke="black" points="1121.72,-173.5 1111.72,-177 1121.72,-180.5 1121.72,-173.5"/>
</g>
<!-- ExternalToolParameterValidationService -->
<g id="node12" class="node">
<title>ExternalToolParameterValidationService</title>
<ellipse fill="#fdb462" stroke="black" cx="2144" cy="-104" rx="170.7" ry="18"/>
<text text-anchor="middle" x="2144" y="-99.8" font-family="Times,serif" font-size="14.00">ExternalToolParameterValidationService</text>
</g>
<!-- ExternalToolParameterValidationService&#45;&gt;ExternalToolModule -->
<g id="edge11" class="edge">
<title>ExternalToolParameterValidationService&#45;&gt;ExternalToolModule</title>
<path fill="none" stroke="black" d="M2144,-122.22C2144,-142.37 2144,-172 2144,-172 2144,-172 1122.09,-172 1122.09,-172"/>
<polygon fill="black" stroke="black" points="1122.09,-168.5 1112.09,-172 1122.09,-175.5 1122.09,-168.5"/>
</g>
<!-- ExternalToolRepo -->
<g id="node13" class="node">
<title>ExternalToolRepo</title>
<ellipse fill="#fdb462" stroke="black" cx="1873" cy="-104" rx="82.24" ry="18"/>
<text text-anchor="middle" x="1873" y="-99.8" font-family="Times,serif" font-size="14.00">ExternalToolRepo</text>
</g>
<!-- ExternalToolRepo&#45;&gt;ExternalToolModule -->
<g id="edge12" class="edge">
<title>ExternalToolRepo&#45;&gt;ExternalToolModule</title>
<path fill="none" stroke="black" d="M1873,-122.22C1873,-140.83 1873,-167 1873,-167 1873,-167 1122.06,-167 1122.06,-167"/>
<polygon fill="black" stroke="black" points="1122.06,-163.5 1112.06,-167 1122.06,-170.5 1122.06,-163.5"/>
</g>
<!-- ExternalToolService -->
<g id="node14" class="node">
<title>ExternalToolService</title>
<ellipse fill="#fdb462" stroke="black" cx="1682" cy="-104" rx="90.89" ry="18"/>
<text text-anchor="middle" x="1682" y="-99.8" font-family="Times,serif" font-size="14.00">ExternalToolService</text>
</g>
<!-- ExternalToolService&#45;&gt;ExternalToolModule -->
<g id="edge13" class="edge">
<title>ExternalToolService&#45;&gt;ExternalToolModule</title>
<path fill="none" stroke="black" d="M1682,-122.03C1682,-139.06 1682,-162 1682,-162 1682,-162 1121.97,-162 1121.97,-162"/>
<polygon fill="black" stroke="black" points="1121.97,-158.5 1111.97,-162 1121.97,-165.5 1121.97,-158.5"/>
</g>
<!-- ExternalToolServiceMapper -->
<g id="node15" class="node">
<title>ExternalToolServiceMapper</title>
<ellipse fill="#fdb462" stroke="black" cx="1452" cy="-104" rx="120.95" ry="18"/>
<text text-anchor="middle" x="1452" y="-99.8" font-family="Times,serif" font-size="14.00">ExternalToolServiceMapper</text>
</g>
<!-- ExternalToolServiceMapper&#45;&gt;ExternalToolModule -->
<g id="edge14" class="edge">
<title>ExternalToolServiceMapper&#45;&gt;ExternalToolModule</title>
<path fill="none" stroke="black" d="M1383.99,-119.05C1383.99,-134.72 1383.99,-157 1383.99,-157 1383.99,-157 1121.97,-157 1121.97,-157"/>
<polygon fill="black" stroke="black" points="1121.97,-153.5 1111.97,-157 1121.97,-160.5 1121.97,-153.5"/>
</g>
<!-- ExternalToolValidationService -->
<g id="node16" class="node">
<title>ExternalToolValidationService</title>
<ellipse fill="#fdb462" stroke="black" cx="1181" cy="-104" rx="131.92" ry="18"/>
<text text-anchor="middle" x="1181" y="-99.8" font-family="Times,serif" font-size="14.00">ExternalToolValidationService</text>
</g>
<!-- ExternalToolValidationService&#45;&gt;ExternalToolModule -->
<g id="edge15" class="edge">
<title>ExternalToolValidationService&#45;&gt;ExternalToolModule</title>
<path fill="none" stroke="black" d="M1080.5,-115.92C1080.5,-115.92 1080.5,-140.77 1080.5,-140.77"/>
<polygon fill="black" stroke="black" points="1077,-140.77 1080.5,-150.77 1084,-140.77 1077,-140.77"/>
</g>
<!-- ExternalToolVersionService -->
<g id="node17" class="node">
<title>ExternalToolVersionService</title>
<ellipse fill="#fdb462" stroke="black" cx="910" cy="-104" rx="121.53" ry="18"/>
<text text-anchor="middle" x="910" y="-99.8" font-family="Times,serif" font-size="14.00">ExternalToolVersionService</text>
</g>
<!-- ExternalToolVersionService&#45;&gt;ExternalToolModule -->
<g id="edge16" class="edge">
<title>ExternalToolVersionService&#45;&gt;ExternalToolModule</title>
<path fill="none" stroke="black" d="M1004.9,-115.32C1004.9,-115.32 1004.9,-140.94 1004.9,-140.94"/>
<polygon fill="black" stroke="black" points="1001.4,-140.94 1004.9,-150.94 1008.4,-140.94 1001.4,-140.94"/>
</g>
</g>
</svg>
