<?xml version="1.0" encoding="UTF-8" standalone="no"?>
<!DOCTYPE svg PUBLIC "-//W3C//DTD SVG 1.1//EN"
 "http://www.w3.org/Graphics/SVG/1.1/DTD/svg11.dtd">
<!-- Generated by graphviz version 2.47.0 (20210316.0004)
 -->
<!-- Title: dependencies Pages: 1 -->
<svg width="610pt" height="284pt"
 viewBox="0.00 0.00 610.00 284.00" xmlns="http://www.w3.org/2000/svg" xmlns:xlink="http://www.w3.org/1999/xlink">
<g id="graph0" class="graph" transform="scale(1 1) rotate(0) translate(4 280)">
<title>dependencies</title>
<polygon fill="white" stroke="transparent" points="-4,4 -4,-280 606,-280 606,4 -4,4"/>
<text text-anchor="start" x="280.01" y="-42.4" font-family="Times-12" font-weight="bold" font-size="14.00">Legend</text>
<polygon fill="#ffffb3" stroke="transparent" points="67,-10 67,-30 87,-30 87,-10 67,-10"/>
<text text-anchor="start" x="90.63" y="-15.4" font-family="Times-12" font-size="14.00"> &#160;Declarations</text>
<polygon fill="#8dd3c7" stroke="transparent" points="180,-10 180,-30 200,-30 200,-10 180,-10"/>
<text text-anchor="start" x="203.73" y="-15.4" font-family="Times-12" font-size="14.00"> &#160;Module</text>
<polygon fill="#80b1d3" stroke="transparent" points="266,-10 266,-30 286,-30 286,-10 266,-10"/>
<text text-anchor="start" x="289.78" y="-15.4" font-family="Times-12" font-size="14.00"> &#160;Bootstrap</text>
<polygon fill="#fdb462" stroke="transparent" points="363,-10 363,-30 383,-30 383,-10 363,-10"/>
<text text-anchor="start" x="386.67" y="-15.4" font-family="Times-12" font-size="14.00"> &#160;Providers</text>
<polygon fill="#fb8072" stroke="transparent" points="459,-10 459,-30 479,-30 479,-10 459,-10"/>
<text text-anchor="start" x="482.73" y="-15.4" font-family="Times-12" font-size="14.00"> &#160;Exports</text>
<g id="clust1" class="cluster">
<title>cluster_CollaborativeTextEditorModule</title>
<polygon fill="none" stroke="black" stroke-dasharray="1,5" points="8,-70 8,-268 594,-268 594,-70 8,-70"/>
</g>
<g id="clust6" class="cluster">
<title>cluster_CollaborativeTextEditorModule_providers</title>
<polygon fill="none" stroke="black" points="302,-78 302,-130 586,-130 586,-78 302,-78"/>
</g>
<g id="clust4" class="cluster">
<title>cluster_CollaborativeTextEditorModule_exports</title>
<polygon fill="none" stroke="black" points="107,-208 107,-260 321,-260 321,-208 107,-208"/>
</g>
<g id="clust3" class="cluster">
<title>cluster_CollaborativeTextEditorModule_imports</title>
<polygon fill="none" stroke="black" points="16,-78 16,-130 294,-130 294,-78 16,-78"/>
</g>
<!-- EtherpadClientModule -->
<g id="node1" class="node">
<title>EtherpadClientModule</title>
<polygon fill="#8dd3c7" stroke="black" points="286.31,-122 283.31,-126 262.31,-126 259.31,-122 141.69,-122 141.69,-86 286.31,-86 286.31,-122"/>
<text text-anchor="middle" x="214" y="-99.8" font-family="Times,serif" font-size="14.00">EtherpadClientModule</text>
</g>
<!-- CollaborativeTextEditorModule -->
<g id="node3" class="node">
<title>CollaborativeTextEditorModule</title>
<polygon fill="#8dd3c7" stroke="black" points="312.41,-187 309.41,-191 288.41,-191 285.41,-187 115.59,-187 115.59,-151 312.41,-151 312.41,-187"/>
<text text-anchor="middle" x="214" y="-164.8" font-family="Times,serif" font-size="14.00">CollaborativeTextEditorModule</text>
</g>
<!-- EtherpadClientModule&#45;&gt;CollaborativeTextEditorModule -->
<g id="edge1" class="edge">
<title>EtherpadClientModule&#45;&gt;CollaborativeTextEditorModule</title>
<path fill="none" stroke="black" d="M214,-122.11C214,-122.11 214,-140.99 214,-140.99"/>
<polygon fill="black" stroke="black" points="210.5,-140.99 214,-150.99 217.5,-140.99 210.5,-140.99"/>
</g>
<!-- LoggerModule -->
<g id="node2" class="node">
<title>LoggerModule</title>
<polygon fill="#8dd3c7" stroke="black" points="123.98,-122 120.98,-126 99.98,-126 96.98,-122 24.02,-122 24.02,-86 123.98,-86 123.98,-122"/>
<text text-anchor="middle" x="74" y="-99.8" font-family="Times,serif" font-size="14.00">LoggerModule</text>
</g>
<!-- LoggerModule&#45;&gt;CollaborativeTextEditorModule -->
<g id="edge2" class="edge">
<title>LoggerModule&#45;&gt;CollaborativeTextEditorModule</title>
<path fill="none" stroke="black" d="M119.89,-122.11C119.89,-122.11 119.89,-140.99 119.89,-140.99"/>
<polygon fill="black" stroke="black" points="116.39,-140.99 119.89,-150.99 123.39,-140.99 116.39,-140.99"/>
</g>
<!-- CollaborativeTextEditorService  -->
<g id="node4" class="node">
<title>CollaborativeTextEditorService </title>
<polygon fill="#fb8072" stroke="black" points="313.33,-252 114.67,-252 114.67,-216 313.33,-216 313.33,-252"/>
<text text-anchor="middle" x="214" y="-229.8" font-family="Times,serif" font-size="14.00">CollaborativeTextEditorService </text>
</g>
<!-- CollaborativeTextEditorModule&#45;&gt;CollaborativeTextEditorService  -->
<g id="edge3" class="edge">
<title>CollaborativeTextEditorModule&#45;&gt;CollaborativeTextEditorService </title>
<path fill="none" stroke="black" stroke-dasharray="5,2" d="M214,-187.11C214,-187.11 214,-205.99 214,-205.99"/>
<polygon fill="black" stroke="black" points="210.5,-205.99 214,-215.99 217.5,-205.99 210.5,-205.99"/>
</g>
<!-- CollaborativeTextEditorService -->
<g id="node5" class="node">
<title>CollaborativeTextEditorService</title>
<ellipse fill="#fdb462" stroke="black" cx="444" cy="-104" rx="134.28" ry="18"/>
<text text-anchor="middle" x="444" y="-99.8" font-family="Times,serif" font-size="14.00">CollaborativeTextEditorService</text>
</g>
<!-- CollaborativeTextEditorService&#45;&gt;CollaborativeTextEditorModule -->
<g id="edge4" class="edge">
<title>CollaborativeTextEditorService&#45;&gt;CollaborativeTextEditorModule</title>
<path fill="none" stroke="black" d="M309.59,-104C302.3,-104 297.88,-104 297.88,-104 297.88,-104 297.88,-140.89 297.88,-140.89"/>
<polygon fill="black" stroke="black" points="294.38,-140.89 297.88,-150.89 301.38,-140.89 294.38,-140.89"/>
</g>
</g>
</svg>
