<?xml version="1.0" encoding="UTF-8" standalone="no"?>
<!DOCTYPE svg PUBLIC "-//W3C//DTD SVG 1.1//EN"
 "http://www.w3.org/Graphics/SVG/1.1/DTD/svg11.dtd">
<!-- Generated by graphviz version 2.47.0 (20210316.0004)
 -->
<!-- Title: dependencies Pages: 1 -->
<svg width="610pt" height="284pt"
 viewBox="0.00 0.00 610.00 284.00" xmlns="http://www.w3.org/2000/svg" xmlns:xlink="http://www.w3.org/1999/xlink">
<g id="graph0" class="graph" transform="scale(1 1) rotate(0) translate(4 280)">
<title>dependencies</title>
<polygon fill="white" stroke="transparent" points="-4,4 -4,-280 606,-280 606,4 -4,4"/>
<text text-anchor="start" x="280.01" y="-42.4" font-family="Times-12" font-weight="bold" font-size="14.00">Legend</text>
<polygon fill="#ffffb3" stroke="transparent" points="67,-10 67,-30 87,-30 87,-10 67,-10"/>
<text text-anchor="start" x="90.63" y="-15.4" font-family="Times-12" font-size="14.00"> &#160;Declarations</text>
<polygon fill="#8dd3c7" stroke="transparent" points="180,-10 180,-30 200,-30 200,-10 180,-10"/>
<text text-anchor="start" x="203.73" y="-15.4" font-family="Times-12" font-size="14.00"> &#160;Module</text>
<polygon fill="#80b1d3" stroke="transparent" points="266,-10 266,-30 286,-30 286,-10 266,-10"/>
<text text-anchor="start" x="289.78" y="-15.4" font-family="Times-12" font-size="14.00"> &#160;Bootstrap</text>
<polygon fill="#fdb462" stroke="transparent" points="363,-10 363,-30 383,-30 383,-10 363,-10"/>
<text text-anchor="start" x="386.67" y="-15.4" font-family="Times-12" font-size="14.00"> &#160;Providers</text>
<polygon fill="#fb8072" stroke="transparent" points="459,-10 459,-30 479,-30 479,-10 459,-10"/>
<text text-anchor="start" x="482.73" y="-15.4" font-family="Times-12" font-size="14.00"> &#160;Exports</text>
<g id="clust1" class="cluster">
<title>cluster_CollaborativeTextEditorModule</title>
<polygon fill="none" stroke="black" stroke-dasharray="1,5" points="8,-70 8,-268 594,-268 594,-70 8,-70"/>
</g>
<g id="clust3" class="cluster">
<title>cluster_CollaborativeTextEditorModule_imports</title>
<polygon fill="none" stroke="black" points="308,-78 308,-130 586,-130 586,-78 308,-78"/>
</g>
<g id="clust6" class="cluster">
<title>cluster_CollaborativeTextEditorModule_providers</title>
<polygon fill="none" stroke="black" points="16,-78 16,-130 300,-130 300,-78 16,-78"/>
</g>
<g id="clust4" class="cluster">
<title>cluster_CollaborativeTextEditorModule_exports</title>
<polygon fill="none" stroke="black" points="259,-208 259,-260 473,-260 473,-208 259,-208"/>
</g>
<!-- EtherpadClientModule -->
<g id="node1" class="node">
<title>EtherpadClientModule</title>
<polygon fill="#8dd3c7" stroke="black" points="578.31,-122 575.31,-126 554.31,-126 551.31,-122 433.69,-122 433.69,-86 578.31,-86 578.31,-122"/>
<text text-anchor="middle" x="506" y="-99.8" font-family="Times,serif" font-size="14.00">EtherpadClientModule</text>
</g>
<!-- CollaborativeTextEditorModule -->
<g id="node3" class="node">
<title>CollaborativeTextEditorModule</title>
<polygon fill="#8dd3c7" stroke="black" points="464.41,-187 461.41,-191 440.41,-191 437.41,-187 267.59,-187 267.59,-151 464.41,-151 464.41,-187"/>
<text text-anchor="middle" x="366" y="-164.8" font-family="Times,serif" font-size="14.00">CollaborativeTextEditorModule</text>
</g>
<!-- EtherpadClientModule&#45;&gt;CollaborativeTextEditorModule -->
<g id="edge1" class="edge">
<title>EtherpadClientModule&#45;&gt;CollaborativeTextEditorModule</title>
<path fill="none" stroke="black" d="M449.02,-122.11C449.02,-122.11 449.02,-140.99 449.02,-140.99"/>
<polygon fill="black" stroke="black" points="445.52,-140.99 449.02,-150.99 452.52,-140.99 445.52,-140.99"/>
</g>
<!-- LoggerModule -->
<g id="node2" class="node">
<title>LoggerModule</title>
<polygon fill="#8dd3c7" stroke="black" points="415.98,-122 412.98,-126 391.98,-126 388.98,-122 316.02,-122 316.02,-86 415.98,-86 415.98,-122"/>
<text text-anchor="middle" x="366" y="-99.8" font-family="Times,serif" font-size="14.00">LoggerModule</text>
</g>
<!-- LoggerModule&#45;&gt;CollaborativeTextEditorModule -->
<g id="edge2" class="edge">
<title>LoggerModule&#45;&gt;CollaborativeTextEditorModule</title>
<path fill="none" stroke="black" d="M366,-122.11C366,-122.11 366,-140.99 366,-140.99"/>
<polygon fill="black" stroke="black" points="362.5,-140.99 366,-150.99 369.5,-140.99 362.5,-140.99"/>
</g>
<!-- CollaborativeTextEditorService  -->
<g id="node4" class="node">
<title>CollaborativeTextEditorService </title>
<polygon fill="#fb8072" stroke="black" points="465.33,-252 266.67,-252 266.67,-216 465.33,-216 465.33,-252"/>
<text text-anchor="middle" x="366" y="-229.8" font-family="Times,serif" font-size="14.00">CollaborativeTextEditorService </text>
</g>
<!-- CollaborativeTextEditorModule&#45;&gt;CollaborativeTextEditorService  -->
<g id="edge3" class="edge">
<title>CollaborativeTextEditorModule&#45;&gt;CollaborativeTextEditorService </title>
<path fill="none" stroke="black" stroke-dasharray="5,2" d="M366,-187.11C366,-187.11 366,-205.99 366,-205.99"/>
<polygon fill="black" stroke="black" points="362.5,-205.99 366,-215.99 369.5,-205.99 362.5,-205.99"/>
</g>
<!-- CollaborativeTextEditorService -->
<g id="node5" class="node">
<title>CollaborativeTextEditorService</title>
<ellipse fill="#fdb462" stroke="black" cx="158" cy="-104" rx="134.28" ry="18"/>
<text text-anchor="middle" x="158" y="-99.8" font-family="Times,serif" font-size="14.00">CollaborativeTextEditorService</text>
</g>
<!-- CollaborativeTextEditorService&#45;&gt;CollaborativeTextEditorModule -->
<g id="edge4" class="edge">
<title>CollaborativeTextEditorService&#45;&gt;CollaborativeTextEditorModule</title>
<path fill="none" stroke="black" d="M280.09,-111.71C280.09,-111.71 280.09,-140.99 280.09,-140.99"/>
<polygon fill="black" stroke="black" points="276.59,-140.99 280.09,-150.99 283.59,-140.99 276.59,-140.99"/>
</g>
</g>
</svg>
