<?xml version="1.0" encoding="UTF-8" standalone="no"?>
<!DOCTYPE svg PUBLIC "-//W3C//DTD SVG 1.1//EN"
 "http://www.w3.org/Graphics/SVG/1.1/DTD/svg11.dtd">
<!-- Generated by graphviz version 2.47.0 (20210316.0004)
 -->
<!-- Title: dependencies Pages: 1 -->
<svg width="1579pt" height="211pt"
 viewBox="0.00 0.00 1579.00 211.00" xmlns="http://www.w3.org/2000/svg" xmlns:xlink="http://www.w3.org/1999/xlink">
<g id="graph0" class="graph" transform="scale(1 1) rotate(0) translate(4 207)">
<title>dependencies</title>
<polygon fill="white" stroke="transparent" points="-4,4 -4,-207 1575,-207 1575,4 -4,4"/>
<text text-anchor="start" x="764.51" y="-42.4" font-family="Times-12" font-weight="bold" font-size="14.00">Legend</text>
<polygon fill="#ffffb3" stroke="transparent" points="551.5,-10 551.5,-30 571.5,-30 571.5,-10 551.5,-10"/>
<text text-anchor="start" x="575.13" y="-15.4" font-family="Times-12" font-size="14.00"> &#160;Declarations</text>
<polygon fill="#8dd3c7" stroke="transparent" points="664.5,-10 664.5,-30 684.5,-30 684.5,-10 664.5,-10"/>
<text text-anchor="start" x="688.23" y="-15.4" font-family="Times-12" font-size="14.00"> &#160;Module</text>
<polygon fill="#80b1d3" stroke="transparent" points="750.5,-10 750.5,-30 770.5,-30 770.5,-10 750.5,-10"/>
<text text-anchor="start" x="774.28" y="-15.4" font-family="Times-12" font-size="14.00"> &#160;Bootstrap</text>
<polygon fill="#fdb462" stroke="transparent" points="847.5,-10 847.5,-30 867.5,-30 867.5,-10 847.5,-10"/>
<text text-anchor="start" x="871.17" y="-15.4" font-family="Times-12" font-size="14.00"> &#160;Providers</text>
<polygon fill="#fb8072" stroke="transparent" points="943.5,-10 943.5,-30 963.5,-30 963.5,-10 943.5,-10"/>
<text text-anchor="start" x="967.23" y="-15.4" font-family="Times-12" font-size="14.00"> &#160;Exports</text>
<g id="clust1" class="cluster">
<title>cluster_TldrawConsoleModule</title>
<polygon fill="none" stroke="black" stroke-dasharray="1,5" points="8,-70 8,-195 1563,-195 1563,-70 8,-70"/>
</g>
<g id="clust6" class="cluster">
<title>cluster_TldrawConsoleModule_providers</title>
<polygon fill="none" stroke="black" points="772,-78 772,-130 1555,-130 1555,-78 772,-78"/>
</g>
<g id="clust3" class="cluster">
<title>cluster_TldrawConsoleModule_imports</title>
<polygon fill="none" stroke="black" points="16,-78 16,-130 764,-130 764,-78 16,-78"/>
</g>
<!-- ConsoleWriterModule -->
<g id="node1" class="node">
<title>ConsoleWriterModule</title>
<polygon fill="#8dd3c7" stroke="black" points="755.97,-122 752.97,-126 731.97,-126 728.97,-122 614.03,-122 614.03,-86 755.97,-86 755.97,-122"/>
<text text-anchor="middle" x="685" y="-99.8" font-family="Times,serif" font-size="14.00">ConsoleWriterModule</text>
</g>
<!-- TldrawConsoleModule -->
<g id="node6" class="node">
<title>TldrawConsoleModule</title>
<polygon fill="#8dd3c7" stroke="black" points="691.86,-187 688.86,-191 667.86,-191 664.86,-187 546.14,-187 546.14,-151 691.86,-151 691.86,-187"/>
<text text-anchor="middle" x="619" y="-164.8" font-family="Times,serif" font-size="14.00">TldrawConsoleModule</text>
</g>
<!-- ConsoleWriterModule&#45;&gt;TldrawConsoleModule -->
<g id="edge1" class="edge">
<title>ConsoleWriterModule&#45;&gt;TldrawConsoleModule</title>
<path fill="none" stroke="black" d="M652.97,-122.11C652.97,-122.11 652.97,-140.99 652.97,-140.99"/>
<polygon fill="black" stroke="black" points="649.47,-140.99 652.97,-150.99 656.47,-140.99 649.47,-140.99"/>
</g>
<!-- CoreModule -->
<g id="node2" class="node">
<title>CoreModule</title>
<polygon fill="#8dd3c7" stroke="black" points="596.26,-122 593.26,-126 572.26,-126 569.26,-122 509.74,-122 509.74,-86 596.26,-86 596.26,-122"/>
<text text-anchor="middle" x="553" y="-99.8" font-family="Times,serif" font-size="14.00">CoreModule</text>
</g>
<!-- CoreModule&#45;&gt;TldrawConsoleModule -->
<g id="edge2" class="edge">
<title>CoreModule&#45;&gt;TldrawConsoleModule</title>
<path fill="none" stroke="black" d="M562.84,-122.11C562.84,-122.11 562.84,-140.99 562.84,-140.99"/>
<polygon fill="black" stroke="black" points="559.34,-140.99 562.84,-150.99 566.34,-140.99 559.34,-140.99"/>
</g>
<!-- CoreModule&#45;&gt;TldrawConsoleModule -->
<g id="edge3" class="edge">
<title>CoreModule&#45;&gt;TldrawConsoleModule</title>
<path fill="none" stroke="black" d="M579.61,-122.11C579.61,-122.11 579.61,-140.99 579.61,-140.99"/>
<polygon fill="black" stroke="black" points="576.11,-140.99 579.61,-150.99 583.11,-140.99 576.11,-140.99"/>
</g>
<!-- FilesStorageClientModule -->
<g id="node3" class="node">
<title>FilesStorageClientModule</title>
<polygon fill="#8dd3c7" stroke="black" points="491.76,-122 488.76,-126 467.76,-126 464.76,-122 328.24,-122 328.24,-86 491.76,-86 491.76,-122"/>
<text text-anchor="middle" x="410" y="-99.8" font-family="Times,serif" font-size="14.00">FilesStorageClientModule</text>
</g>
<!-- FilesStorageClientModule&#45;&gt;TldrawConsoleModule -->
<g id="edge4" class="edge">
<title>FilesStorageClientModule&#45;&gt;TldrawConsoleModule</title>
<path fill="none" stroke="black" d="M410,-122.03C410,-138.4 410,-160 410,-160 410,-160 535.9,-160 535.9,-160"/>
<polygon fill="black" stroke="black" points="535.9,-163.5 545.9,-160 535.9,-156.5 535.9,-163.5"/>
</g>
<!-- LoggerModule -->
<g id="node4" class="node">
<title>LoggerModule</title>
<polygon fill="#8dd3c7" stroke="black" points="309.98,-122 306.98,-126 285.98,-126 282.98,-122 210.02,-122 210.02,-86 309.98,-86 309.98,-122"/>
<text text-anchor="middle" x="260" y="-99.8" font-family="Times,serif" font-size="14.00">LoggerModule</text>
</g>
<!-- LoggerModule&#45;&gt;TldrawConsoleModule -->
<g id="edge5" class="edge">
<title>LoggerModule&#45;&gt;TldrawConsoleModule</title>
<path fill="none" stroke="black" d="M260,-122.11C260,-141.34 260,-169 260,-169 260,-169 535.92,-169 535.92,-169"/>
<polygon fill="black" stroke="black" points="535.92,-172.5 545.92,-169 535.92,-165.5 535.92,-172.5"/>
</g>
<!-- RabbitMQWrapperModule -->
<g id="node5" class="node">
<title>RabbitMQWrapperModule</title>
<polygon fill="#8dd3c7" stroke="black" points="192.4,-122 189.4,-126 168.4,-126 165.4,-122 23.6,-122 23.6,-86 192.4,-86 192.4,-122"/>
<text text-anchor="middle" x="108" y="-99.8" font-family="Times,serif" font-size="14.00">RabbitMQWrapperModule</text>
</g>
<!-- RabbitMQWrapperModule&#45;&gt;TldrawConsoleModule -->
<g id="edge6" class="edge">
<title>RabbitMQWrapperModule&#45;&gt;TldrawConsoleModule</title>
<path fill="none" stroke="black" d="M108,-122.29C108,-144.21 108,-178 108,-178 108,-178 536.06,-178 536.06,-178"/>
<polygon fill="black" stroke="black" points="536.06,-181.5 546.06,-178 536.06,-174.5 536.06,-181.5"/>
</g>
<!-- TldrawDeleteFilesUc -->
<g id="node7" class="node">
<title>TldrawDeleteFilesUc</title>
<ellipse fill="#fdb462" stroke="black" cx="1453" cy="-104" rx="94.31" ry="18"/>
<text text-anchor="middle" x="1453" y="-99.8" font-family="Times,serif" font-size="14.00">TldrawDeleteFilesUc</text>
</g>
<!-- TldrawDeleteFilesUc&#45;&gt;TldrawConsoleModule -->
<g id="edge7" class="edge">
<title>TldrawDeleteFilesUc&#45;&gt;TldrawConsoleModule</title>
<path fill="none" stroke="black" d="M1453,-122.01C1453,-144.49 1453,-180 1453,-180 1453,-180 701.92,-180 701.92,-180"/>
<polygon fill="black" stroke="black" points="701.92,-176.5 691.92,-180 701.92,-183.5 701.92,-176.5"/>
</g>
<!-- TldrawFilesStorageAdapterService -->
<g id="node8" class="node">
<title>TldrawFilesStorageAdapterService</title>
<ellipse fill="#fdb462" stroke="black" cx="1194" cy="-104" rx="147" ry="18"/>
<text text-anchor="middle" x="1194" y="-99.8" font-family="Times,serif" font-size="14.00">TldrawFilesStorageAdapterService</text>
</g>
<!-- TldrawFilesStorageAdapterService&#45;&gt;TldrawConsoleModule -->
<g id="edge8" class="edge">
<title>TldrawFilesStorageAdapterService&#45;&gt;TldrawConsoleModule</title>
<path fill="none" stroke="black" d="M1194,-122.13C1194,-142.57 1194,-173 1194,-173 1194,-173 702.12,-173 702.12,-173"/>
<polygon fill="black" stroke="black" points="702.12,-169.5 692.12,-173 702.12,-176.5 702.12,-169.5"/>
</g>
<!-- TldrawRepo -->
<g id="node9" class="node">
<title>TldrawRepo</title>
<ellipse fill="#fdb462" stroke="black" cx="969" cy="-104" rx="59.11" ry="18"/>
<text text-anchor="middle" x="969" y="-99.8" font-family="Times,serif" font-size="14.00">TldrawRepo</text>
</g>
<!-- TldrawRepo&#45;&gt;TldrawConsoleModule -->
<g id="edge9" class="edge">
<title>TldrawRepo&#45;&gt;TldrawConsoleModule</title>
<path fill="none" stroke="black" d="M969,-122.27C969,-140.56 969,-166 969,-166 969,-166 701.95,-166 701.95,-166"/>
<polygon fill="black" stroke="black" points="701.95,-162.5 691.95,-166 701.95,-169.5 701.95,-162.5"/>
</g>
<!-- YMongodb -->
<g id="node10" class="node">
<title>YMongodb</title>
<ellipse fill="#fdb462" stroke="black" cx="836" cy="-104" rx="55.63" ry="18"/>
<text text-anchor="middle" x="836" y="-99.8" font-family="Times,serif" font-size="14.00">YMongodb</text>
</g>
<!-- YMongodb&#45;&gt;TldrawConsoleModule -->
<g id="edge10" class="edge">
<title>YMongodb&#45;&gt;TldrawConsoleModule</title>
<path fill="none" stroke="black" d="M836,-122.01C836,-138.05 836,-159 836,-159 836,-159 701.86,-159 701.86,-159"/>
<polygon fill="black" stroke="black" points="701.86,-155.5 691.86,-159 701.86,-162.5 701.86,-155.5"/>
</g>
</g>
</svg>
