<?xml version="1.0" encoding="UTF-8" standalone="no"?>
<!DOCTYPE svg PUBLIC "-//W3C//DTD SVG 1.1//EN"
 "http://www.w3.org/Graphics/SVG/1.1/DTD/svg11.dtd">
<!-- Generated by graphviz version 2.47.0 (20210316.0004)
 -->
<!-- Title: dependencies Pages: 1 -->
<svg width="1475pt" height="211pt"
 viewBox="0.00 0.00 1475.00 211.00" xmlns="http://www.w3.org/2000/svg" xmlns:xlink="http://www.w3.org/1999/xlink">
<g id="graph0" class="graph" transform="scale(1 1) rotate(0) translate(4 207)">
<title>dependencies</title>
<polygon fill="white" stroke="transparent" points="-4,4 -4,-207 1471,-207 1471,4 -4,4"/>
<text text-anchor="start" x="712.51" y="-42.4" font-family="Times-12" font-weight="bold" font-size="14.00">Legend</text>
<polygon fill="#ffffb3" stroke="transparent" points="499.5,-10 499.5,-30 519.5,-30 519.5,-10 499.5,-10"/>
<text text-anchor="start" x="523.13" y="-15.4" font-family="Times-12" font-size="14.00"> &#160;Declarations</text>
<polygon fill="#8dd3c7" stroke="transparent" points="612.5,-10 612.5,-30 632.5,-30 632.5,-10 612.5,-10"/>
<text text-anchor="start" x="636.23" y="-15.4" font-family="Times-12" font-size="14.00"> &#160;Module</text>
<polygon fill="#80b1d3" stroke="transparent" points="698.5,-10 698.5,-30 718.5,-30 718.5,-10 698.5,-10"/>
<text text-anchor="start" x="722.28" y="-15.4" font-family="Times-12" font-size="14.00"> &#160;Bootstrap</text>
<polygon fill="#fdb462" stroke="transparent" points="795.5,-10 795.5,-30 815.5,-30 815.5,-10 795.5,-10"/>
<text text-anchor="start" x="819.17" y="-15.4" font-family="Times-12" font-size="14.00"> &#160;Providers</text>
<polygon fill="#fb8072" stroke="transparent" points="891.5,-10 891.5,-30 911.5,-30 911.5,-10 891.5,-10"/>
<text text-anchor="start" x="915.23" y="-15.4" font-family="Times-12" font-size="14.00"> &#160;Exports</text>
<g id="clust1" class="cluster">
<title>cluster_TldrawConsoleModule</title>
<polygon fill="none" stroke="black" stroke-dasharray="1,5" points="8,-70 8,-195 1459,-195 1459,-70 8,-70"/>
</g>
<g id="clust6" class="cluster">
<title>cluster_TldrawConsoleModule_providers</title>
<polygon fill="none" stroke="black" points="668,-78 668,-130 1451,-130 1451,-78 668,-78"/>
</g>
<g id="clust3" class="cluster">
<title>cluster_TldrawConsoleModule_imports</title>
<polygon fill="none" stroke="black" points="16,-78 16,-130 660,-130 660,-78 16,-78"/>
</g>
<!-- ConsoleWriterModule -->
<g id="node1" class="node">
<title>ConsoleWriterModule</title>
<polygon fill="#8dd3c7" stroke="black" points="651.97,-122 648.97,-126 627.97,-126 624.97,-122 510.03,-122 510.03,-86 651.97,-86 651.97,-122"/>
<text text-anchor="middle" x="581" y="-99.8" font-family="Times,serif" font-size="14.00">ConsoleWriterModule</text>
</g>
<!-- TldrawConsoleModule -->
<g id="node5" class="node">
<title>TldrawConsoleModule</title>
<polygon fill="#8dd3c7" stroke="black" points="728.86,-187 725.86,-191 704.86,-191 701.86,-187 583.14,-187 583.14,-151 728.86,-151 728.86,-187"/>
<text text-anchor="middle" x="656" y="-164.8" font-family="Times,serif" font-size="14.00">TldrawConsoleModule</text>
</g>
<!-- ConsoleWriterModule&#45;&gt;TldrawConsoleModule -->
<g id="edge1" class="edge">
<title>ConsoleWriterModule&#45;&gt;TldrawConsoleModule</title>
<path fill="none" stroke="black" d="M617.53,-122.11C617.53,-122.11 617.53,-140.99 617.53,-140.99"/>
<polygon fill="black" stroke="black" points="614.03,-140.99 617.53,-150.99 621.03,-140.99 614.03,-140.99"/>
</g>
<!-- FilesStorageClientModule -->
<g id="node2" class="node">
<title>FilesStorageClientModule</title>
<polygon fill="#8dd3c7" stroke="black" points="491.76,-122 488.76,-126 467.76,-126 464.76,-122 328.24,-122 328.24,-86 491.76,-86 491.76,-122"/>
<text text-anchor="middle" x="410" y="-99.8" font-family="Times,serif" font-size="14.00">FilesStorageClientModule</text>
</g>
<!-- FilesStorageClientModule&#45;&gt;TldrawConsoleModule -->
<g id="edge2" class="edge">
<title>FilesStorageClientModule&#45;&gt;TldrawConsoleModule</title>
<path fill="none" stroke="black" d="M410,-122.03C410,-138.4 410,-160 410,-160 410,-160 572.86,-160 572.86,-160"/>
<polygon fill="black" stroke="black" points="572.86,-163.5 582.86,-160 572.86,-156.5 572.86,-163.5"/>
</g>
<!-- LoggerModule -->
<g id="node3" class="node">
<title>LoggerModule</title>
<polygon fill="#8dd3c7" stroke="black" points="309.98,-122 306.98,-126 285.98,-126 282.98,-122 210.02,-122 210.02,-86 309.98,-86 309.98,-122"/>
<text text-anchor="middle" x="260" y="-99.8" font-family="Times,serif" font-size="14.00">LoggerModule</text>
</g>
<!-- LoggerModule&#45;&gt;TldrawConsoleModule -->
<g id="edge3" class="edge">
<title>LoggerModule&#45;&gt;TldrawConsoleModule</title>
<path fill="none" stroke="black" d="M260,-122.11C260,-141.34 260,-169 260,-169 260,-169 572.91,-169 572.91,-169"/>
<polygon fill="black" stroke="black" points="572.91,-172.5 582.91,-169 572.91,-165.5 572.91,-172.5"/>
</g>
<!-- RabbitMQWrapperModule -->
<g id="node4" class="node">
<title>RabbitMQWrapperModule</title>
<polygon fill="#8dd3c7" stroke="black" points="192.4,-122 189.4,-126 168.4,-126 165.4,-122 23.6,-122 23.6,-86 192.4,-86 192.4,-122"/>
<text text-anchor="middle" x="108" y="-99.8" font-family="Times,serif" font-size="14.00">RabbitMQWrapperModule</text>
</g>
<!-- RabbitMQWrapperModule&#45;&gt;TldrawConsoleModule -->
<g id="edge4" class="edge">
<title>RabbitMQWrapperModule&#45;&gt;TldrawConsoleModule</title>
<path fill="none" stroke="black" d="M108,-122.29C108,-144.21 108,-178 108,-178 108,-178 572.95,-178 572.95,-178"/>
<polygon fill="black" stroke="black" points="572.95,-181.5 582.95,-178 572.95,-174.5 572.95,-181.5"/>
</g>
<!-- TldrawDeleteFilesUc -->
<g id="node6" class="node">
<title>TldrawDeleteFilesUc</title>
<ellipse fill="#fdb462" stroke="black" cx="1349" cy="-104" rx="94.31" ry="18"/>
<text text-anchor="middle" x="1349" y="-99.8" font-family="Times,serif" font-size="14.00">TldrawDeleteFilesUc</text>
</g>
<!-- TldrawDeleteFilesUc&#45;&gt;TldrawConsoleModule -->
<g id="edge5" class="edge">
<title>TldrawDeleteFilesUc&#45;&gt;TldrawConsoleModule</title>
<path fill="none" stroke="black" d="M1349,-122.29C1349,-144.21 1349,-178 1349,-178 1349,-178 739.18,-178 739.18,-178"/>
<polygon fill="black" stroke="black" points="739.18,-174.5 729.18,-178 739.18,-181.5 739.18,-174.5"/>
</g>
<!-- TldrawFilesStorageAdapterService -->
<g id="node7" class="node">
<title>TldrawFilesStorageAdapterService</title>
<ellipse fill="#fdb462" stroke="black" cx="1090" cy="-104" rx="147" ry="18"/>
<text text-anchor="middle" x="1090" y="-99.8" font-family="Times,serif" font-size="14.00">TldrawFilesStorageAdapterService</text>
</g>
<!-- TldrawFilesStorageAdapterService&#45;&gt;TldrawConsoleModule -->
<g id="edge6" class="edge">
<title>TldrawFilesStorageAdapterService&#45;&gt;TldrawConsoleModule</title>
<path fill="none" stroke="black" d="M1090,-122.11C1090,-141.34 1090,-169 1090,-169 1090,-169 739.13,-169 739.13,-169"/>
<polygon fill="black" stroke="black" points="739.13,-165.5 729.13,-169 739.13,-172.5 739.13,-165.5"/>
</g>
<!-- TldrawRepo -->
<g id="node8" class="node">
<title>TldrawRepo</title>
<ellipse fill="#fdb462" stroke="black" cx="865" cy="-104" rx="59.11" ry="18"/>
<text text-anchor="middle" x="865" y="-99.8" font-family="Times,serif" font-size="14.00">TldrawRepo</text>
</g>
<!-- TldrawRepo&#45;&gt;TldrawConsoleModule -->
<g id="edge7" class="edge">
<title>TldrawRepo&#45;&gt;TldrawConsoleModule</title>
<path fill="none" stroke="black" d="M865,-122.03C865,-138.4 865,-160 865,-160 865,-160 739.1,-160 739.1,-160"/>
<polygon fill="black" stroke="black" points="739.1,-156.5 729.1,-160 739.1,-163.5 739.1,-156.5"/>
</g>
<!-- YMongodb -->
<g id="node9" class="node">
<title>YMongodb</title>
<ellipse fill="#fdb462" stroke="black" cx="732" cy="-104" rx="55.63" ry="18"/>
<text text-anchor="middle" x="732" y="-99.8" font-family="Times,serif" font-size="14.00">YMongodb</text>
</g>
<!-- YMongodb&#45;&gt;TldrawConsoleModule -->
<g id="edge8" class="edge">
<title>YMongodb&#45;&gt;TldrawConsoleModule</title>
<path fill="none" stroke="black" d="M702.68,-119.4C702.68,-119.4 702.68,-140.94 702.68,-140.94"/>
<polygon fill="black" stroke="black" points="699.18,-140.94 702.68,-150.94 706.18,-140.94 699.18,-140.94"/>
</g>
</g>
</svg>
