<?xml version="1.0" encoding="UTF-8" standalone="no"?>
<!DOCTYPE svg PUBLIC "-//W3C//DTD SVG 1.1//EN"
 "http://www.w3.org/Graphics/SVG/1.1/DTD/svg11.dtd">
<!-- Generated by graphviz version 2.47.0 (20210316.0004)
 -->
<!-- Title: dependencies Pages: 1 -->
<svg width="1579pt" height="211pt"
 viewBox="0.00 0.00 1579.00 211.00" xmlns="http://www.w3.org/2000/svg" xmlns:xlink="http://www.w3.org/1999/xlink">
<g id="graph0" class="graph" transform="scale(1 1) rotate(0) translate(4 207)">
<title>dependencies</title>
<polygon fill="white" stroke="transparent" points="-4,4 -4,-207 1575,-207 1575,4 -4,4"/>
<text text-anchor="start" x="764.51" y="-42.4" font-family="Times-12" font-weight="bold" font-size="14.00">Legend</text>
<polygon fill="#ffffb3" stroke="transparent" points="551.5,-10 551.5,-30 571.5,-30 571.5,-10 551.5,-10"/>
<text text-anchor="start" x="575.13" y="-15.4" font-family="Times-12" font-size="14.00"> &#160;Declarations</text>
<polygon fill="#8dd3c7" stroke="transparent" points="664.5,-10 664.5,-30 684.5,-30 684.5,-10 664.5,-10"/>
<text text-anchor="start" x="688.23" y="-15.4" font-family="Times-12" font-size="14.00"> &#160;Module</text>
<polygon fill="#80b1d3" stroke="transparent" points="750.5,-10 750.5,-30 770.5,-30 770.5,-10 750.5,-10"/>
<text text-anchor="start" x="774.28" y="-15.4" font-family="Times-12" font-size="14.00"> &#160;Bootstrap</text>
<polygon fill="#fdb462" stroke="transparent" points="847.5,-10 847.5,-30 867.5,-30 867.5,-10 847.5,-10"/>
<text text-anchor="start" x="871.17" y="-15.4" font-family="Times-12" font-size="14.00"> &#160;Providers</text>
<polygon fill="#fb8072" stroke="transparent" points="943.5,-10 943.5,-30 963.5,-30 963.5,-10 943.5,-10"/>
<text text-anchor="start" x="967.23" y="-15.4" font-family="Times-12" font-size="14.00"> &#160;Exports</text>
<g id="clust1" class="cluster">
<title>cluster_TldrawConsoleModule</title>
<polygon fill="none" stroke="black" stroke-dasharray="1,5" points="8,-70 8,-195 1563,-195 1563,-70 8,-70"/>
</g>
<g id="clust3" class="cluster">
<title>cluster_TldrawConsoleModule_imports</title>
<polygon fill="none" stroke="black" points="807,-78 807,-130 1555,-130 1555,-78 807,-78"/>
</g>
<g id="clust6" class="cluster">
<title>cluster_TldrawConsoleModule_providers</title>
<polygon fill="none" stroke="black" points="16,-78 16,-130 799,-130 799,-78 16,-78"/>
</g>
<!-- ConsoleWriterModule -->
<g id="node1" class="node">
<title>ConsoleWriterModule</title>
<polygon fill="#8dd3c7" stroke="black" points="1546.97,-122 1543.97,-126 1522.97,-126 1519.97,-122 1405.03,-122 1405.03,-86 1546.97,-86 1546.97,-122"/>
<text text-anchor="middle" x="1476" y="-99.8" font-family="Times,serif" font-size="14.00">ConsoleWriterModule</text>
</g>
<!-- TldrawConsoleModule -->
<g id="node6" class="node">
<title>TldrawConsoleModule</title>
<polygon fill="#8dd3c7" stroke="black" points="971.86,-187 968.86,-191 947.86,-191 944.86,-187 826.14,-187 826.14,-151 971.86,-151 971.86,-187"/>
<text text-anchor="middle" x="899" y="-164.8" font-family="Times,serif" font-size="14.00">TldrawConsoleModule</text>
</g>
<!-- ConsoleWriterModule&#45;&gt;TldrawConsoleModule -->
<g id="edge1" class="edge">
<title>ConsoleWriterModule&#45;&gt;TldrawConsoleModule</title>
<path fill="none" stroke="black" d="M1476,-122.01C1476,-144.49 1476,-180 1476,-180 1476,-180 982.08,-180 982.08,-180"/>
<polygon fill="black" stroke="black" points="982.08,-176.5 972.08,-180 982.08,-183.5 982.08,-176.5"/>
</g>
<!-- CoreModule -->
<g id="node2" class="node">
<title>CoreModule</title>
<polygon fill="#8dd3c7" stroke="black" points="1387.26,-122 1384.26,-126 1363.26,-126 1360.26,-122 1300.74,-122 1300.74,-86 1387.26,-86 1387.26,-122"/>
<text text-anchor="middle" x="1344" y="-99.8" font-family="Times,serif" font-size="14.00">CoreModule</text>
</g>
<!-- CoreModule&#45;&gt;TldrawConsoleModule -->
<g id="edge2" class="edge">
<title>CoreModule&#45;&gt;TldrawConsoleModule</title>
<path fill="none" stroke="black" d="M1344,-122.13C1344,-142.57 1344,-173 1344,-173 1344,-173 981.98,-173 981.98,-173"/>
<polygon fill="black" stroke="black" points="981.98,-169.5 971.98,-173 981.98,-176.5 981.98,-169.5"/>
</g>
<!-- FilesStorageClientModule -->
<g id="node3" class="node">
<title>FilesStorageClientModule</title>
<polygon fill="#8dd3c7" stroke="black" points="1282.76,-122 1279.76,-126 1258.76,-126 1255.76,-122 1119.24,-122 1119.24,-86 1282.76,-86 1282.76,-122"/>
<text text-anchor="middle" x="1201" y="-99.8" font-family="Times,serif" font-size="14.00">FilesStorageClientModule</text>
</g>
<!-- FilesStorageClientModule&#45;&gt;TldrawConsoleModule -->
<g id="edge3" class="edge">
<title>FilesStorageClientModule&#45;&gt;TldrawConsoleModule</title>
<path fill="none" stroke="black" d="M1201,-122.27C1201,-140.56 1201,-166 1201,-166 1201,-166 982.11,-166 982.11,-166"/>
<polygon fill="black" stroke="black" points="982.11,-162.5 972.11,-166 982.11,-169.5 982.11,-162.5"/>
</g>
<!-- LoggerModule -->
<g id="node4" class="node">
<title>LoggerModule</title>
<polygon fill="#8dd3c7" stroke="black" points="1100.98,-122 1097.98,-126 1076.98,-126 1073.98,-122 1001.02,-122 1001.02,-86 1100.98,-86 1100.98,-122"/>
<text text-anchor="middle" x="1051" y="-99.8" font-family="Times,serif" font-size="14.00">LoggerModule</text>
</g>
<!-- LoggerModule&#45;&gt;TldrawConsoleModule -->
<g id="edge4" class="edge">
<title>LoggerModule&#45;&gt;TldrawConsoleModule</title>
<path fill="none" stroke="black" d="M1051,-122.01C1051,-138.05 1051,-159 1051,-159 1051,-159 981.88,-159 981.88,-159"/>
<polygon fill="black" stroke="black" points="981.88,-155.5 971.88,-159 981.88,-162.5 981.88,-155.5"/>
</g>
<!-- RabbitMQWrapperModule -->
<g id="node5" class="node">
<title>RabbitMQWrapperModule</title>
<polygon fill="#8dd3c7" stroke="black" points="983.4,-122 980.4,-126 959.4,-126 956.4,-122 814.6,-122 814.6,-86 983.4,-86 983.4,-122"/>
<text text-anchor="middle" x="899" y="-99.8" font-family="Times,serif" font-size="14.00">RabbitMQWrapperModule</text>
</g>
<!-- RabbitMQWrapperModule&#45;&gt;TldrawConsoleModule -->
<g id="edge5" class="edge">
<title>RabbitMQWrapperModule&#45;&gt;TldrawConsoleModule</title>
<path fill="none" stroke="black" d="M899,-122.11C899,-122.11 899,-140.99 899,-140.99"/>
<polygon fill="black" stroke="black" points="895.5,-140.99 899,-150.99 902.5,-140.99 895.5,-140.99"/>
</g>
<!-- TldrawDeleteFilesUc -->
<g id="node7" class="node">
<title>TldrawDeleteFilesUc</title>
<ellipse fill="#fdb462" stroke="black" cx="697" cy="-104" rx="94.31" ry="18"/>
<text text-anchor="middle" x="697" y="-99.8" font-family="Times,serif" font-size="14.00">TldrawDeleteFilesUc</text>
</g>
<!-- TldrawDeleteFilesUc&#45;&gt;TldrawConsoleModule -->
<g id="edge6" class="edge">
<title>TldrawDeleteFilesUc&#45;&gt;TldrawConsoleModule</title>
<path fill="none" stroke="black" d="M697,-122.01C697,-138.05 697,-159 697,-159 697,-159 816.07,-159 816.07,-159"/>
<polygon fill="black" stroke="black" points="816.07,-162.5 826.07,-159 816.07,-155.5 816.07,-162.5"/>
</g>
<!-- TldrawFilesStorageAdapterService -->
<g id="node8" class="node">
<title>TldrawFilesStorageAdapterService</title>
<ellipse fill="#fdb462" stroke="black" cx="438" cy="-104" rx="147" ry="18"/>
<text text-anchor="middle" x="438" y="-99.8" font-family="Times,serif" font-size="14.00">TldrawFilesStorageAdapterService</text>
</g>
<!-- TldrawFilesStorageAdapterService&#45;&gt;TldrawConsoleModule -->
<g id="edge7" class="edge">
<title>TldrawFilesStorageAdapterService&#45;&gt;TldrawConsoleModule</title>
<path fill="none" stroke="black" d="M438,-122.27C438,-140.56 438,-166 438,-166 438,-166 815.95,-166 815.95,-166"/>
<polygon fill="black" stroke="black" points="815.95,-169.5 825.95,-166 815.95,-162.5 815.95,-169.5"/>
</g>
<!-- TldrawRepo -->
<g id="node9" class="node">
<title>TldrawRepo</title>
<ellipse fill="#fdb462" stroke="black" cx="213" cy="-104" rx="59.11" ry="18"/>
<text text-anchor="middle" x="213" y="-99.8" font-family="Times,serif" font-size="14.00">TldrawRepo</text>
</g>
<!-- TldrawRepo&#45;&gt;TldrawConsoleModule -->
<g id="edge8" class="edge">
<title>TldrawRepo&#45;&gt;TldrawConsoleModule</title>
<path fill="none" stroke="black" d="M213,-122.13C213,-142.57 213,-173 213,-173 213,-173 815.91,-173 815.91,-173"/>
<polygon fill="black" stroke="black" points="815.91,-176.5 825.91,-173 815.91,-169.5 815.91,-176.5"/>
</g>
<!-- YMongodb -->
<g id="node10" class="node">
<title>YMongodb</title>
<ellipse fill="#fdb462" stroke="black" cx="80" cy="-104" rx="55.63" ry="18"/>
<text text-anchor="middle" x="80" y="-99.8" font-family="Times,serif" font-size="14.00">YMongodb</text>
</g>
<!-- YMongodb&#45;&gt;TldrawConsoleModule -->
<g id="edge9" class="edge">
<title>YMongodb&#45;&gt;TldrawConsoleModule</title>
<path fill="none" stroke="black" d="M80,-122.01C80,-144.49 80,-180 80,-180 80,-180 815.96,-180 815.96,-180"/>
<polygon fill="black" stroke="black" points="815.96,-183.5 825.96,-180 815.96,-176.5 815.96,-183.5"/>
</g>
</g>
</svg>
