<?xml version="1.0" encoding="UTF-8" standalone="no"?>
<!DOCTYPE svg PUBLIC "-//W3C//DTD SVG 1.1//EN"
 "http://www.w3.org/Graphics/SVG/1.1/DTD/svg11.dtd">
<!-- Generated by graphviz version 2.47.0 (20210316.0004)
 -->
<!-- Title: dependencies Pages: 1 -->
<svg width="1475pt" height="211pt"
 viewBox="0.00 0.00 1475.00 211.00" xmlns="http://www.w3.org/2000/svg" xmlns:xlink="http://www.w3.org/1999/xlink">
<g id="graph0" class="graph" transform="scale(1 1) rotate(0) translate(4 207)">
<title>dependencies</title>
<polygon fill="white" stroke="transparent" points="-4,4 -4,-207 1471,-207 1471,4 -4,4"/>
<text text-anchor="start" x="712.51" y="-42.4" font-family="Times-12" font-weight="bold" font-size="14.00">Legend</text>
<polygon fill="#ffffb3" stroke="transparent" points="499.5,-10 499.5,-30 519.5,-30 519.5,-10 499.5,-10"/>
<text text-anchor="start" x="523.13" y="-15.4" font-family="Times-12" font-size="14.00"> &#160;Declarations</text>
<polygon fill="#8dd3c7" stroke="transparent" points="612.5,-10 612.5,-30 632.5,-30 632.5,-10 612.5,-10"/>
<text text-anchor="start" x="636.23" y="-15.4" font-family="Times-12" font-size="14.00"> &#160;Module</text>
<polygon fill="#80b1d3" stroke="transparent" points="698.5,-10 698.5,-30 718.5,-30 718.5,-10 698.5,-10"/>
<text text-anchor="start" x="722.28" y="-15.4" font-family="Times-12" font-size="14.00"> &#160;Bootstrap</text>
<polygon fill="#fdb462" stroke="transparent" points="795.5,-10 795.5,-30 815.5,-30 815.5,-10 795.5,-10"/>
<text text-anchor="start" x="819.17" y="-15.4" font-family="Times-12" font-size="14.00"> &#160;Providers</text>
<polygon fill="#fb8072" stroke="transparent" points="891.5,-10 891.5,-30 911.5,-30 911.5,-10 891.5,-10"/>
<text text-anchor="start" x="915.23" y="-15.4" font-family="Times-12" font-size="14.00"> &#160;Exports</text>
<g id="clust1" class="cluster">
<title>cluster_TldrawConsoleModule</title>
<polygon fill="none" stroke="black" stroke-dasharray="1,5" points="8,-70 8,-195 1459,-195 1459,-70 8,-70"/>
</g>
<g id="clust3" class="cluster">
<title>cluster_TldrawConsoleModule_imports</title>
<polygon fill="none" stroke="black" points="807,-78 807,-130 1451,-130 1451,-78 807,-78"/>
</g>
<g id="clust6" class="cluster">
<title>cluster_TldrawConsoleModule_providers</title>
<polygon fill="none" stroke="black" points="16,-78 16,-130 799,-130 799,-78 16,-78"/>
</g>
<!-- ConsoleWriterModule -->
<g id="node1" class="node">
<title>ConsoleWriterModule</title>
<polygon fill="#8dd3c7" stroke="black" points="1442.97,-122 1439.97,-126 1418.97,-126 1415.97,-122 1301.03,-122 1301.03,-86 1442.97,-86 1442.97,-122"/>
<text text-anchor="middle" x="1372" y="-99.8" font-family="Times,serif" font-size="14.00">ConsoleWriterModule</text>
</g>
<!-- TldrawConsoleModule -->
<g id="node5" class="node">
<title>TldrawConsoleModule</title>
<polygon fill="#8dd3c7" stroke="black" points="870.86,-187 867.86,-191 846.86,-191 843.86,-187 725.14,-187 725.14,-151 870.86,-151 870.86,-187"/>
<text text-anchor="middle" x="798" y="-164.8" font-family="Times,serif" font-size="14.00">TldrawConsoleModule</text>
</g>
<!-- ConsoleWriterModule&#45;&gt;TldrawConsoleModule -->
<g id="edge1" class="edge">
<title>ConsoleWriterModule&#45;&gt;TldrawConsoleModule</title>
<path fill="none" stroke="black" d="M1372,-122.29C1372,-144.21 1372,-178 1372,-178 1372,-178 880.99,-178 880.99,-178"/>
<polygon fill="black" stroke="black" points="880.99,-174.5 870.99,-178 880.99,-181.5 880.99,-174.5"/>
</g>
<!-- FilesStorageClientModule -->
<g id="node2" class="node">
<title>FilesStorageClientModule</title>
<polygon fill="#8dd3c7" stroke="black" points="1282.76,-122 1279.76,-126 1258.76,-126 1255.76,-122 1119.24,-122 1119.24,-86 1282.76,-86 1282.76,-122"/>
<text text-anchor="middle" x="1201" y="-99.8" font-family="Times,serif" font-size="14.00">FilesStorageClientModule</text>
</g>
<!-- FilesStorageClientModule&#45;&gt;TldrawConsoleModule -->
<g id="edge2" class="edge">
<title>FilesStorageClientModule&#45;&gt;TldrawConsoleModule</title>
<path fill="none" stroke="black" d="M1201,-122.11C1201,-141.34 1201,-169 1201,-169 1201,-169 880.98,-169 880.98,-169"/>
<polygon fill="black" stroke="black" points="880.98,-165.5 870.98,-169 880.98,-172.5 880.98,-165.5"/>
</g>
<!-- LoggerModule -->
<g id="node3" class="node">
<title>LoggerModule</title>
<polygon fill="#8dd3c7" stroke="black" points="1100.98,-122 1097.98,-126 1076.98,-126 1073.98,-122 1001.02,-122 1001.02,-86 1100.98,-86 1100.98,-122"/>
<text text-anchor="middle" x="1051" y="-99.8" font-family="Times,serif" font-size="14.00">LoggerModule</text>
</g>
<!-- LoggerModule&#45;&gt;TldrawConsoleModule -->
<g id="edge3" class="edge">
<title>LoggerModule&#45;&gt;TldrawConsoleModule</title>
<path fill="none" stroke="black" d="M1051,-122.03C1051,-138.4 1051,-160 1051,-160 1051,-160 881.18,-160 881.18,-160"/>
<polygon fill="black" stroke="black" points="881.18,-156.5 871.18,-160 881.18,-163.5 881.18,-156.5"/>
</g>
<!-- RabbitMQWrapperModule -->
<g id="node4" class="node">
<title>RabbitMQWrapperModule</title>
<polygon fill="#8dd3c7" stroke="black" points="983.4,-122 980.4,-126 959.4,-126 956.4,-122 814.6,-122 814.6,-86 983.4,-86 983.4,-122"/>
<text text-anchor="middle" x="899" y="-99.8" font-family="Times,serif" font-size="14.00">RabbitMQWrapperModule</text>
</g>
<!-- RabbitMQWrapperModule&#45;&gt;TldrawConsoleModule -->
<g id="edge4" class="edge">
<title>RabbitMQWrapperModule&#45;&gt;TldrawConsoleModule</title>
<path fill="none" stroke="black" d="M842.87,-122.11C842.87,-122.11 842.87,-140.99 842.87,-140.99"/>
<polygon fill="black" stroke="black" points="839.37,-140.99 842.87,-150.99 846.37,-140.99 839.37,-140.99"/>
</g>
<!-- TldrawDeleteFilesUc -->
<g id="node6" class="node">
<title>TldrawDeleteFilesUc</title>
<ellipse fill="#fdb462" stroke="black" cx="697" cy="-104" rx="94.31" ry="18"/>
<text text-anchor="middle" x="697" y="-99.8" font-family="Times,serif" font-size="14.00">TldrawDeleteFilesUc</text>
</g>
<!-- TldrawDeleteFilesUc&#45;&gt;TldrawConsoleModule -->
<g id="edge5" class="edge">
<title>TldrawDeleteFilesUc&#45;&gt;TldrawConsoleModule</title>
<path fill="none" stroke="black" d="M758.11,-117.78C758.11,-117.78 758.11,-140.55 758.11,-140.55"/>
<polygon fill="black" stroke="black" points="754.61,-140.55 758.11,-150.55 761.61,-140.55 754.61,-140.55"/>
</g>
<!-- TldrawFilesStorageAdapterService -->
<g id="node7" class="node">
<title>TldrawFilesStorageAdapterService</title>
<ellipse fill="#fdb462" stroke="black" cx="438" cy="-104" rx="147" ry="18"/>
<text text-anchor="middle" x="438" y="-99.8" font-family="Times,serif" font-size="14.00">TldrawFilesStorageAdapterService</text>
</g>
<!-- TldrawFilesStorageAdapterService&#45;&gt;TldrawConsoleModule -->
<g id="edge6" class="edge">
<title>TldrawFilesStorageAdapterService&#45;&gt;TldrawConsoleModule</title>
<path fill="none" stroke="black" d="M438,-122.03C438,-138.4 438,-160 438,-160 438,-160 714.71,-160 714.71,-160"/>
<polygon fill="black" stroke="black" points="714.71,-163.5 724.71,-160 714.71,-156.5 714.71,-163.5"/>
</g>
<!-- TldrawRepo -->
<g id="node8" class="node">
<title>TldrawRepo</title>
<ellipse fill="#fdb462" stroke="black" cx="213" cy="-104" rx="59.11" ry="18"/>
<text text-anchor="middle" x="213" y="-99.8" font-family="Times,serif" font-size="14.00">TldrawRepo</text>
</g>
<!-- TldrawRepo&#45;&gt;TldrawConsoleModule -->
<g id="edge7" class="edge">
<title>TldrawRepo&#45;&gt;TldrawConsoleModule</title>
<path fill="none" stroke="black" d="M213,-122.11C213,-141.34 213,-169 213,-169 213,-169 715.09,-169 715.09,-169"/>
<polygon fill="black" stroke="black" points="715.09,-172.5 725.09,-169 715.09,-165.5 715.09,-172.5"/>
</g>
<!-- YMongodb -->
<g id="node9" class="node">
<title>YMongodb</title>
<ellipse fill="#fdb462" stroke="black" cx="80" cy="-104" rx="55.63" ry="18"/>
<text text-anchor="middle" x="80" y="-99.8" font-family="Times,serif" font-size="14.00">YMongodb</text>
</g>
<!-- YMongodb&#45;&gt;TldrawConsoleModule -->
<g id="edge8" class="edge">
<title>YMongodb&#45;&gt;TldrawConsoleModule</title>
<path fill="none" stroke="black" d="M80,-122.29C80,-144.21 80,-178 80,-178 80,-178 714.87,-178 714.87,-178"/>
<polygon fill="black" stroke="black" points="714.87,-181.5 724.87,-178 714.87,-174.5 714.87,-181.5"/>
</g>
</g>
</svg>
