<?xml version="1.0" encoding="UTF-8" standalone="no"?>
<!DOCTYPE svg PUBLIC "-//W3C//DTD SVG 1.1//EN"
 "http://www.w3.org/Graphics/SVG/1.1/DTD/svg11.dtd">
<!-- Generated by graphviz version 2.47.0 (20210316.0004)
 -->
<!-- Title: dependencies Pages: 1 -->
<svg width="504pt" height="284pt"
 viewBox="0.00 0.00 504.00 284.00" xmlns="http://www.w3.org/2000/svg" xmlns:xlink="http://www.w3.org/1999/xlink">
<g id="graph0" class="graph" transform="scale(1 1) rotate(0) translate(4 280)">
<title>dependencies</title>
<polygon fill="white" stroke="transparent" points="-4,4 -4,-280 500,-280 500,4 -4,4"/>
<text text-anchor="start" x="227.01" y="-42.4" font-family="Times-12" font-weight="bold" font-size="14.00">Legend</text>
<polygon fill="#ffffb3" stroke="transparent" points="14,-10 14,-30 34,-30 34,-10 14,-10"/>
<text text-anchor="start" x="37.63" y="-15.4" font-family="Times-12" font-size="14.00"> &#160;Declarations</text>
<polygon fill="#8dd3c7" stroke="transparent" points="127,-10 127,-30 147,-30 147,-10 127,-10"/>
<text text-anchor="start" x="150.73" y="-15.4" font-family="Times-12" font-size="14.00"> &#160;Module</text>
<polygon fill="#80b1d3" stroke="transparent" points="213,-10 213,-30 233,-30 233,-10 213,-10"/>
<text text-anchor="start" x="236.78" y="-15.4" font-family="Times-12" font-size="14.00"> &#160;Bootstrap</text>
<polygon fill="#fdb462" stroke="transparent" points="310,-10 310,-30 330,-30 330,-10 310,-10"/>
<text text-anchor="start" x="333.67" y="-15.4" font-family="Times-12" font-size="14.00"> &#160;Providers</text>
<polygon fill="#fb8072" stroke="transparent" points="406,-10 406,-30 426,-30 426,-10 406,-10"/>
<text text-anchor="start" x="429.73" y="-15.4" font-family="Times-12" font-size="14.00"> &#160;Exports</text>
<g id="clust1" class="cluster">
<title>cluster_GroupModule</title>
<polygon fill="none" stroke="black" stroke-dasharray="1,5" points="102,-70 102,-268 394,-268 394,-70 102,-70"/>
</g>
<g id="clust6" class="cluster">
<title>cluster_GroupModule_providers</title>
<polygon fill="none" stroke="black" points="110,-78 110,-130 386,-130 386,-78 110,-78"/>
</g>
<g id="clust4" class="cluster">
<title>cluster_GroupModule_exports</title>
<polygon fill="none" stroke="black" points="195,-208 195,-260 309,-260 309,-208 195,-208"/>
</g>
<!-- GroupService  -->
<g id="node1" class="node">
<title>GroupService </title>
<polygon fill="#fb8072" stroke="black" points="300.75,-252 203.25,-252 203.25,-216 300.75,-216 300.75,-252"/>
<text text-anchor="middle" x="252" y="-229.8" font-family="Times,serif" font-size="14.00">GroupService </text>
</g>
<!-- GroupModule -->
<g id="node2" class="node">
<title>GroupModule</title>
<polygon fill="#8dd3c7" stroke="black" points="299.82,-187 296.82,-191 275.82,-191 272.82,-187 204.18,-187 204.18,-151 299.82,-151 299.82,-187"/>
<text text-anchor="middle" x="252" y="-164.8" font-family="Times,serif" font-size="14.00">GroupModule</text>
</g>
<!-- GroupModule&#45;&gt;GroupService  -->
<g id="edge1" class="edge">
<title>GroupModule&#45;&gt;GroupService </title>
<path fill="none" stroke="black" stroke-dasharray="5,2" d="M252,-187.11C252,-187.11 252,-205.99 252,-205.99"/>
<polygon fill="black" stroke="black" points="248.5,-205.99 252,-215.99 255.5,-205.99 248.5,-205.99"/>
</g>
<!-- GroupRepo -->
<g id="node3" class="node">
<title>GroupRepo</title>
<ellipse fill="#fdb462" stroke="black" cx="322" cy="-104" rx="56.18" ry="18"/>
<text text-anchor="middle" x="322" y="-99.8" font-family="Times,serif" font-size="14.00">GroupRepo</text>
</g>
<!-- GroupRepo&#45;&gt;GroupModule -->
<g id="edge2" class="edge">
<title>GroupRepo&#45;&gt;GroupModule</title>
<path fill="none" stroke="black" d="M282.78,-117.15C282.78,-117.15 282.78,-140.69 282.78,-140.69"/>
<polygon fill="black" stroke="black" points="279.28,-140.69 282.78,-150.69 286.28,-140.69 279.28,-140.69"/>
</g>
<!-- GroupService -->
<g id="node4" class="node">
<title>GroupService</title>
<ellipse fill="#fdb462" stroke="black" cx="183" cy="-104" rx="64.83" ry="18"/>
<text text-anchor="middle" x="183" y="-99.8" font-family="Times,serif" font-size="14.00">GroupService</text>
</g>
<!-- GroupService&#45;&gt;GroupModule -->
<g id="edge3" class="edge">
<title>GroupService&#45;&gt;GroupModule</title>
<path fill="none" stroke="black" d="M226,-117.47C226,-117.47 226,-140.86 226,-140.86"/>
<polygon fill="black" stroke="black" points="222.5,-140.86 226,-150.86 229.5,-140.86 222.5,-140.86"/>
</g>
</g>
</svg>
