<?xml version="1.0" encoding="UTF-8" standalone="no"?>
<!DOCTYPE svg PUBLIC "-//W3C//DTD SVG 1.1//EN"
 "http://www.w3.org/Graphics/SVG/1.1/DTD/svg11.dtd">
<!-- Generated by graphviz version 2.47.0 (20210316.0004)
 -->
<!-- Title: dependencies Pages: 1 -->
<svg width="504pt" height="284pt"
 viewBox="0.00 0.00 504.00 284.00" xmlns="http://www.w3.org/2000/svg" xmlns:xlink="http://www.w3.org/1999/xlink">
<g id="graph0" class="graph" transform="scale(1 1) rotate(0) translate(4 280)">
<title>dependencies</title>
<polygon fill="white" stroke="transparent" points="-4,4 -4,-280 500,-280 500,4 -4,4"/>
<text text-anchor="start" x="227.01" y="-42.4" font-family="Times-12" font-weight="bold" font-size="14.00">Legend</text>
<polygon fill="#ffffb3" stroke="transparent" points="14,-10 14,-30 34,-30 34,-10 14,-10"/>
<text text-anchor="start" x="37.63" y="-15.4" font-family="Times-12" font-size="14.00"> &#160;Declarations</text>
<polygon fill="#8dd3c7" stroke="transparent" points="127,-10 127,-30 147,-30 147,-10 127,-10"/>
<text text-anchor="start" x="150.73" y="-15.4" font-family="Times-12" font-size="14.00"> &#160;Module</text>
<polygon fill="#80b1d3" stroke="transparent" points="213,-10 213,-30 233,-30 233,-10 213,-10"/>
<text text-anchor="start" x="236.78" y="-15.4" font-family="Times-12" font-size="14.00"> &#160;Bootstrap</text>
<polygon fill="#fdb462" stroke="transparent" points="310,-10 310,-30 330,-30 330,-10 310,-10"/>
<text text-anchor="start" x="333.67" y="-15.4" font-family="Times-12" font-size="14.00"> &#160;Providers</text>
<polygon fill="#fb8072" stroke="transparent" points="406,-10 406,-30 426,-30 426,-10 406,-10"/>
<text text-anchor="start" x="429.73" y="-15.4" font-family="Times-12" font-size="14.00"> &#160;Exports</text>
<g id="clust1" class="cluster">
<title>cluster_GroupModule</title>
<polygon fill="none" stroke="black" stroke-dasharray="1,5" points="29,-70 29,-268 467,-268 467,-70 29,-70"/>
</g>
<g id="clust6" class="cluster">
<title>cluster_GroupModule_providers</title>
<polygon fill="none" stroke="black" points="183,-78 183,-130 459,-130 459,-78 183,-78"/>
</g>
<g id="clust3" class="cluster">
<title>cluster_GroupModule_imports</title>
<polygon fill="none" stroke="black" points="37,-78 37,-130 175,-130 175,-78 37,-78"/>
</g>
<g id="clust4" class="cluster">
<title>cluster_GroupModule_exports</title>
<polygon fill="none" stroke="black" points="199,-208 199,-260 313,-260 313,-208 199,-208"/>
</g>
<!-- LearnroomModule -->
<g id="node1" class="node">
<title>LearnroomModule</title>
<polygon fill="#8dd3c7" stroke="black" points="166.74,-122 163.74,-126 142.74,-126 139.74,-122 45.26,-122 45.26,-86 166.74,-86 166.74,-122"/>
<text text-anchor="middle" x="106" y="-99.8" font-family="Times,serif" font-size="14.00">LearnroomModule</text>
</g>
<!-- GroupModule -->
<g id="node2" class="node">
<title>GroupModule</title>
<polygon fill="#8dd3c7" stroke="black" points="303.82,-187 300.82,-191 279.82,-191 276.82,-187 208.18,-187 208.18,-151 303.82,-151 303.82,-187"/>
<text text-anchor="middle" x="256" y="-164.8" font-family="Times,serif" font-size="14.00">GroupModule</text>
</g>
<!-- LearnroomModule&#45;&gt;GroupModule -->
<g id="edge1" class="edge">
<title>LearnroomModule&#45;&gt;GroupModule</title>
<path fill="none" stroke="black" d="M106,-122.11C106,-141.34 106,-169 106,-169 106,-169 198.13,-169 198.13,-169"/>
<polygon fill="black" stroke="black" points="198.13,-172.5 208.13,-169 198.13,-165.5 198.13,-172.5"/>
</g>
<!-- GroupService  -->
<g id="node3" class="node">
<title>GroupService </title>
<polygon fill="#fb8072" stroke="black" points="304.75,-252 207.25,-252 207.25,-216 304.75,-216 304.75,-252"/>
<text text-anchor="middle" x="256" y="-229.8" font-family="Times,serif" font-size="14.00">GroupService </text>
</g>
<!-- GroupModule&#45;&gt;GroupService  -->
<g id="edge2" class="edge">
<title>GroupModule&#45;&gt;GroupService </title>
<path fill="none" stroke="black" stroke-dasharray="5,2" d="M256,-187.11C256,-187.11 256,-205.99 256,-205.99"/>
<polygon fill="black" stroke="black" points="252.5,-205.99 256,-215.99 259.5,-205.99 252.5,-205.99"/>
</g>
<!-- GroupRepo -->
<g id="node4" class="node">
<title>GroupRepo</title>
<ellipse fill="#fdb462" stroke="black" cx="395" cy="-104" rx="56.18" ry="18"/>
<text text-anchor="middle" x="395" y="-99.8" font-family="Times,serif" font-size="14.00">GroupRepo</text>
</g>
<!-- GroupRepo&#45;&gt;GroupModule -->
<g id="edge3" class="edge">
<title>GroupRepo&#45;&gt;GroupModule</title>
<path fill="none" stroke="black" d="M395,-122.11C395,-141.34 395,-169 395,-169 395,-169 313.84,-169 313.84,-169"/>
<polygon fill="black" stroke="black" points="313.84,-165.5 303.84,-169 313.84,-172.5 313.84,-165.5"/>
</g>
<!-- GroupService -->
<g id="node5" class="node">
<title>GroupService</title>
<ellipse fill="#fdb462" stroke="black" cx="256" cy="-104" rx="64.83" ry="18"/>
<text text-anchor="middle" x="256" y="-99.8" font-family="Times,serif" font-size="14.00">GroupService</text>
</g>
<!-- GroupService&#45;&gt;GroupModule -->
<g id="edge4" class="edge">
<title>GroupService&#45;&gt;GroupModule</title>
<path fill="none" stroke="black" d="M256,-122.11C256,-122.11 256,-140.99 256,-140.99"/>
<polygon fill="black" stroke="black" points="252.5,-140.99 256,-150.99 259.5,-140.99 252.5,-140.99"/>
</g>
</g>
</svg>
