<?xml version="1.0" encoding="UTF-8" standalone="no"?>
<!DOCTYPE svg PUBLIC "-//W3C//DTD SVG 1.1//EN"
 "http://www.w3.org/Graphics/SVG/1.1/DTD/svg11.dtd">
<!-- Generated by graphviz version 2.47.0 (20210316.0004)
 -->
<!-- Title: dependencies Pages: 1 -->
<svg width="504pt" height="284pt"
 viewBox="0.00 0.00 504.00 284.00" xmlns="http://www.w3.org/2000/svg" xmlns:xlink="http://www.w3.org/1999/xlink">
<g id="graph0" class="graph" transform="scale(1 1) rotate(0) translate(4 280)">
<title>dependencies</title>
<polygon fill="white" stroke="transparent" points="-4,4 -4,-280 500,-280 500,4 -4,4"/>
<text text-anchor="start" x="227.01" y="-42.4" font-family="Times-12" font-weight="bold" font-size="14.00">Legend</text>
<polygon fill="#ffffb3" stroke="transparent" points="14,-10 14,-30 34,-30 34,-10 14,-10"/>
<text text-anchor="start" x="37.63" y="-15.4" font-family="Times-12" font-size="14.00"> &#160;Declarations</text>
<polygon fill="#8dd3c7" stroke="transparent" points="127,-10 127,-30 147,-30 147,-10 127,-10"/>
<text text-anchor="start" x="150.73" y="-15.4" font-family="Times-12" font-size="14.00"> &#160;Module</text>
<polygon fill="#80b1d3" stroke="transparent" points="213,-10 213,-30 233,-30 233,-10 213,-10"/>
<text text-anchor="start" x="236.78" y="-15.4" font-family="Times-12" font-size="14.00"> &#160;Bootstrap</text>
<polygon fill="#fdb462" stroke="transparent" points="310,-10 310,-30 330,-30 330,-10 310,-10"/>
<text text-anchor="start" x="333.67" y="-15.4" font-family="Times-12" font-size="14.00"> &#160;Providers</text>
<polygon fill="#fb8072" stroke="transparent" points="406,-10 406,-30 426,-30 426,-10 406,-10"/>
<text text-anchor="start" x="429.73" y="-15.4" font-family="Times-12" font-size="14.00"> &#160;Exports</text>
<g id="clust1" class="cluster">
<title>cluster_GroupModule</title>
<polygon fill="none" stroke="black" stroke-dasharray="1,5" points="29,-70 29,-268 467,-268 467,-70 29,-70"/>
</g>
<g id="clust3" class="cluster">
<title>cluster_GroupModule_imports</title>
<polygon fill="none" stroke="black" points="321,-78 321,-130 459,-130 459,-78 321,-78"/>
</g>
<g id="clust4" class="cluster">
<title>cluster_GroupModule_exports</title>
<polygon fill="none" stroke="black" points="192,-208 192,-260 306,-260 306,-208 192,-208"/>
</g>
<g id="clust6" class="cluster">
<title>cluster_GroupModule_providers</title>
<polygon fill="none" stroke="black" points="37,-78 37,-130 313,-130 313,-78 37,-78"/>
</g>
<!-- LearnroomModule -->
<g id="node1" class="node">
<title>LearnroomModule</title>
<polygon fill="#8dd3c7" stroke="black" points="450.74,-122 447.74,-126 426.74,-126 423.74,-122 329.26,-122 329.26,-86 450.74,-86 450.74,-122"/>
<text text-anchor="middle" x="390" y="-99.8" font-family="Times,serif" font-size="14.00">LearnroomModule</text>
</g>
<!-- GroupModule -->
<g id="node2" class="node">
<title>GroupModule</title>
<polygon fill="#8dd3c7" stroke="black" points="296.82,-187 293.82,-191 272.82,-191 269.82,-187 201.18,-187 201.18,-151 296.82,-151 296.82,-187"/>
<text text-anchor="middle" x="249" y="-164.8" font-family="Times,serif" font-size="14.00">GroupModule</text>
</g>
<!-- LearnroomModule&#45;&gt;GroupModule -->
<g id="edge1" class="edge">
<title>LearnroomModule&#45;&gt;GroupModule</title>
<path fill="none" stroke="black" d="M390,-122.11C390,-141.34 390,-169 390,-169 390,-169 306.74,-169 306.74,-169"/>
<polygon fill="black" stroke="black" points="306.74,-165.5 296.74,-169 306.74,-172.5 306.74,-165.5"/>
</g>
<!-- GroupService  -->
<g id="node3" class="node">
<title>GroupService </title>
<polygon fill="#fb8072" stroke="black" points="297.75,-252 200.25,-252 200.25,-216 297.75,-216 297.75,-252"/>
<text text-anchor="middle" x="249" y="-229.8" font-family="Times,serif" font-size="14.00">GroupService </text>
</g>
<!-- GroupModule&#45;&gt;GroupService  -->
<g id="edge2" class="edge">
<title>GroupModule&#45;&gt;GroupService </title>
<path fill="none" stroke="black" stroke-dasharray="5,2" d="M249,-187.11C249,-187.11 249,-205.99 249,-205.99"/>
<polygon fill="black" stroke="black" points="245.5,-205.99 249,-215.99 252.5,-205.99 245.5,-205.99"/>
</g>
<!-- GroupRepo -->
<g id="node4" class="node">
<title>GroupRepo</title>
<ellipse fill="#fdb462" stroke="black" cx="249" cy="-104" rx="56.18" ry="18"/>
<text text-anchor="middle" x="249" y="-99.8" font-family="Times,serif" font-size="14.00">GroupRepo</text>
</g>
<!-- GroupRepo&#45;&gt;GroupModule -->
<g id="edge3" class="edge">
<title>GroupRepo&#45;&gt;GroupModule</title>
<path fill="none" stroke="black" d="M249,-122.11C249,-122.11 249,-140.99 249,-140.99"/>
<polygon fill="black" stroke="black" points="245.5,-140.99 249,-150.99 252.5,-140.99 245.5,-140.99"/>
</g>
<!-- GroupService -->
<g id="node5" class="node">
<title>GroupService</title>
<ellipse fill="#fdb462" stroke="black" cx="110" cy="-104" rx="64.83" ry="18"/>
<text text-anchor="middle" x="110" y="-99.8" font-family="Times,serif" font-size="14.00">GroupService</text>
</g>
<!-- GroupService&#45;&gt;GroupModule -->
<g id="edge4" class="edge">
<title>GroupService&#45;&gt;GroupModule</title>
<path fill="none" stroke="black" d="M110,-122.11C110,-141.34 110,-169 110,-169 110,-169 191.16,-169 191.16,-169"/>
<polygon fill="black" stroke="black" points="191.16,-172.5 201.16,-169 191.16,-165.5 191.16,-172.5"/>
</g>
</g>
</svg>
