<?xml version="1.0" encoding="UTF-8" standalone="no"?>
<!DOCTYPE svg PUBLIC "-//W3C//DTD SVG 1.1//EN"
 "http://www.w3.org/Graphics/SVG/1.1/DTD/svg11.dtd">
<!-- Generated by graphviz version 2.47.0 (20210316.0004)
 -->
<!-- Title: dependencies Pages: 1 -->
<svg width="985pt" height="211pt"
 viewBox="0.00 0.00 985.00 211.00" xmlns="http://www.w3.org/2000/svg" xmlns:xlink="http://www.w3.org/1999/xlink">
<g id="graph0" class="graph" transform="scale(1 1) rotate(0) translate(4 207)">
<title>dependencies</title>
<polygon fill="white" stroke="transparent" points="-4,4 -4,-207 981,-207 981,4 -4,4"/>
<text text-anchor="start" x="467.51" y="-42.4" font-family="Times-12" font-weight="bold" font-size="14.00">Legend</text>
<polygon fill="#ffffb3" stroke="transparent" points="254.5,-10 254.5,-30 274.5,-30 274.5,-10 254.5,-10"/>
<text text-anchor="start" x="278.13" y="-15.4" font-family="Times-12" font-size="14.00"> &#160;Declarations</text>
<polygon fill="#8dd3c7" stroke="transparent" points="367.5,-10 367.5,-30 387.5,-30 387.5,-10 367.5,-10"/>
<text text-anchor="start" x="391.23" y="-15.4" font-family="Times-12" font-size="14.00"> &#160;Module</text>
<polygon fill="#80b1d3" stroke="transparent" points="453.5,-10 453.5,-30 473.5,-30 473.5,-10 453.5,-10"/>
<text text-anchor="start" x="477.28" y="-15.4" font-family="Times-12" font-size="14.00"> &#160;Bootstrap</text>
<polygon fill="#fdb462" stroke="transparent" points="550.5,-10 550.5,-30 570.5,-30 570.5,-10 550.5,-10"/>
<text text-anchor="start" x="574.17" y="-15.4" font-family="Times-12" font-size="14.00"> &#160;Providers</text>
<polygon fill="#fb8072" stroke="transparent" points="646.5,-10 646.5,-30 666.5,-30 666.5,-10 646.5,-10"/>
<text text-anchor="start" x="670.23" y="-15.4" font-family="Times-12" font-size="14.00"> &#160;Exports</text>
<g id="clust1" class="cluster">
<title>cluster_H5PLibraryManagementModule</title>
<polygon fill="none" stroke="black" stroke-dasharray="1,5" points="8,-70 8,-195 969,-195 969,-70 8,-70"/>
</g>
<g id="clust3" class="cluster">
<title>cluster_H5PLibraryManagementModule_imports</title>
<polygon fill="none" stroke="black" points="409,-78 409,-130 961,-130 961,-78 409,-78"/>
</g>
<g id="clust6" class="cluster">
<title>cluster_H5PLibraryManagementModule_providers</title>
<polygon fill="none" stroke="black" points="16,-78 16,-130 401,-130 401,-78 16,-78"/>
</g>
<!-- CoreModule -->
<g id="node1" class="node">
<title>CoreModule</title>
<polygon fill="#8dd3c7" stroke="black" points="953.26,-122 950.26,-126 929.26,-126 926.26,-122 866.74,-122 866.74,-86 953.26,-86 953.26,-122"/>
<text text-anchor="middle" x="910" y="-99.8" font-family="Times,serif" font-size="14.00">CoreModule</text>
</g>
<!-- H5PLibraryManagementModule -->
<g id="node5" class="node">
<title>H5PLibraryManagementModule</title>
<polygon fill="#8dd3c7" stroke="black" points="648.5,-187 645.5,-191 624.5,-191 621.5,-187 449.5,-187 449.5,-151 648.5,-151 648.5,-187"/>
<text text-anchor="middle" x="549" y="-164.8" font-family="Times,serif" font-size="14.00">H5PLibraryManagementModule</text>
</g>
<!-- CoreModule&#45;&gt;H5PLibraryManagementModule -->
<g id="edge1" class="edge">
<title>CoreModule&#45;&gt;H5PLibraryManagementModule</title>
<path fill="none" stroke="black" d="M910,-122.28C910,-143.32 910,-175 910,-175 910,-175 658.6,-175 658.6,-175"/>
<polygon fill="black" stroke="black" points="658.6,-171.5 648.6,-175 658.6,-178.5 658.6,-171.5"/>
</g>
<!-- H5PEditorModule -->
<g id="node2" class="node">
<title>H5PEditorModule</title>
<polygon fill="#8dd3c7" stroke="black" points="848.93,-122 845.93,-126 824.93,-126 821.93,-122 729.07,-122 729.07,-86 848.93,-86 848.93,-122"/>
<text text-anchor="middle" x="789" y="-99.8" font-family="Times,serif" font-size="14.00">H5PEditorModule</text>
</g>
<!-- H5PEditorModule&#45;&gt;H5PLibraryManagementModule -->
<g id="edge2" class="edge">
<title>H5PEditorModule&#45;&gt;H5PLibraryManagementModule</title>
<path fill="none" stroke="black" d="M789,-122.02C789,-139.37 789,-163 789,-163 789,-163 658.7,-163 658.7,-163"/>
<polygon fill="black" stroke="black" points="658.7,-159.5 648.7,-163 658.7,-166.5 658.7,-159.5"/>
</g>
<!-- RabbitMQWrapperModule -->
<g id="node3" class="node">
<title>RabbitMQWrapperModule</title>
<polygon fill="#8dd3c7" stroke="black" points="711.4,-122 708.4,-126 687.4,-126 684.4,-122 542.6,-122 542.6,-86 711.4,-86 711.4,-122"/>
<text text-anchor="middle" x="627" y="-99.8" font-family="Times,serif" font-size="14.00">RabbitMQWrapperModule</text>
</g>
<!-- RabbitMQWrapperModule&#45;&gt;H5PLibraryManagementModule -->
<g id="edge3" class="edge">
<title>RabbitMQWrapperModule&#45;&gt;H5PLibraryManagementModule</title>
<path fill="none" stroke="black" d="M595.78,-122.11C595.78,-122.11 595.78,-140.99 595.78,-140.99"/>
<polygon fill="black" stroke="black" points="592.28,-140.99 595.78,-150.99 599.28,-140.99 592.28,-140.99"/>
</g>
<!-- S3ClientModule -->
<g id="node4" class="node">
<title>S3ClientModule</title>
<polygon fill="#8dd3c7" stroke="black" points="525.06,-122 522.06,-126 501.06,-126 498.06,-122 416.94,-122 416.94,-86 525.06,-86 525.06,-122"/>
<text text-anchor="middle" x="471" y="-99.8" font-family="Times,serif" font-size="14.00">S3ClientModule</text>
</g>
<!-- S3ClientModule&#45;&gt;H5PLibraryManagementModule -->
<g id="edge4" class="edge">
<title>S3ClientModule&#45;&gt;H5PLibraryManagementModule</title>
<path fill="none" stroke="black" d="M487.26,-122.11C487.26,-122.11 487.26,-140.99 487.26,-140.99"/>
<polygon fill="black" stroke="black" points="483.76,-140.99 487.26,-150.99 490.76,-140.99 483.76,-140.99"/>
</g>
<!-- H5PLibraryManagementService -->
<g id="node6" class="node">
<title>H5PLibraryManagementService</title>
<ellipse fill="#fdb462" stroke="black" cx="256" cy="-104" rx="136.56" ry="18"/>
<text text-anchor="middle" x="256" y="-99.8" font-family="Times,serif" font-size="14.00">H5PLibraryManagementService</text>
</g>
<!-- H5PLibraryManagementService&#45;&gt;H5PLibraryManagementModule -->
<g id="edge5" class="edge">
<title>H5PLibraryManagementService&#45;&gt;H5PLibraryManagementModule</title>
<path fill="none" stroke="black" d="M256,-122.02C256,-139.37 256,-163 256,-163 256,-163 439.39,-163 439.39,-163"/>
<polygon fill="black" stroke="black" points="439.39,-166.5 449.39,-163 439.39,-159.5 439.39,-166.5"/>
</g>
<!-- Logger -->
<g id="node7" class="node">
<title>Logger</title>
<ellipse fill="#fdb462" stroke="black" cx="63" cy="-104" rx="38.85" ry="18"/>
<text text-anchor="middle" x="63" y="-99.8" font-family="Times,serif" font-size="14.00">Logger</text>
</g>
<!-- Logger&#45;&gt;H5PLibraryManagementModule -->
<g id="edge6" class="edge">
<title>Logger&#45;&gt;H5PLibraryManagementModule</title>
<path fill="none" stroke="black" d="M63,-122.28C63,-143.32 63,-175 63,-175 63,-175 439.48,-175 439.48,-175"/>
<polygon fill="black" stroke="black" points="439.48,-178.5 449.48,-175 439.48,-171.5 439.48,-178.5"/>
</g>
</g>
</svg>
