<?xml version="1.0" encoding="UTF-8" standalone="no"?>
<!DOCTYPE svg PUBLIC "-//W3C//DTD SVG 1.1//EN"
 "http://www.w3.org/Graphics/SVG/1.1/DTD/svg11.dtd">
<!-- Generated by graphviz version 2.47.0 (20210316.0004)
 -->
<!-- Title: dependencies Pages: 1 -->
<svg width="985pt" height="211pt"
 viewBox="0.00 0.00 985.00 211.00" xmlns="http://www.w3.org/2000/svg" xmlns:xlink="http://www.w3.org/1999/xlink">
<g id="graph0" class="graph" transform="scale(1 1) rotate(0) translate(4 207)">
<title>dependencies</title>
<polygon fill="white" stroke="transparent" points="-4,4 -4,-207 981,-207 981,4 -4,4"/>
<text text-anchor="start" x="467.51" y="-42.4" font-family="Times-12" font-weight="bold" font-size="14.00">Legend</text>
<polygon fill="#ffffb3" stroke="transparent" points="254.5,-10 254.5,-30 274.5,-30 274.5,-10 254.5,-10"/>
<text text-anchor="start" x="278.13" y="-15.4" font-family="Times-12" font-size="14.00"> &#160;Declarations</text>
<polygon fill="#8dd3c7" stroke="transparent" points="367.5,-10 367.5,-30 387.5,-30 387.5,-10 367.5,-10"/>
<text text-anchor="start" x="391.23" y="-15.4" font-family="Times-12" font-size="14.00"> &#160;Module</text>
<polygon fill="#80b1d3" stroke="transparent" points="453.5,-10 453.5,-30 473.5,-30 473.5,-10 453.5,-10"/>
<text text-anchor="start" x="477.28" y="-15.4" font-family="Times-12" font-size="14.00"> &#160;Bootstrap</text>
<polygon fill="#fdb462" stroke="transparent" points="550.5,-10 550.5,-30 570.5,-30 570.5,-10 550.5,-10"/>
<text text-anchor="start" x="574.17" y="-15.4" font-family="Times-12" font-size="14.00"> &#160;Providers</text>
<polygon fill="#fb8072" stroke="transparent" points="646.5,-10 646.5,-30 666.5,-30 666.5,-10 646.5,-10"/>
<text text-anchor="start" x="670.23" y="-15.4" font-family="Times-12" font-size="14.00"> &#160;Exports</text>
<g id="clust1" class="cluster">
<title>cluster_H5PLibraryManagementModule</title>
<polygon fill="none" stroke="black" stroke-dasharray="1,5" points="8,-70 8,-195 969,-195 969,-70 8,-70"/>
</g>
<g id="clust6" class="cluster">
<title>cluster_H5PLibraryManagementModule_providers</title>
<polygon fill="none" stroke="black" points="576,-78 576,-130 961,-130 961,-78 576,-78"/>
</g>
<g id="clust3" class="cluster">
<title>cluster_H5PLibraryManagementModule_imports</title>
<polygon fill="none" stroke="black" points="16,-78 16,-130 568,-130 568,-78 16,-78"/>
</g>
<!-- CoreModule -->
<g id="node1" class="node">
<title>CoreModule</title>
<polygon fill="#8dd3c7" stroke="black" points="560.26,-122 557.26,-126 536.26,-126 533.26,-122 473.74,-122 473.74,-86 560.26,-86 560.26,-122"/>
<text text-anchor="middle" x="517" y="-99.8" font-family="Times,serif" font-size="14.00">CoreModule</text>
</g>
<!-- H5PLibraryManagementModule -->
<g id="node5" class="node">
<title>H5PLibraryManagementModule</title>
<polygon fill="#8dd3c7" stroke="black" points="555.5,-187 552.5,-191 531.5,-191 528.5,-187 356.5,-187 356.5,-151 555.5,-151 555.5,-187"/>
<text text-anchor="middle" x="456" y="-164.8" font-family="Times,serif" font-size="14.00">H5PLibraryManagementModule</text>
</g>
<!-- CoreModule&#45;&gt;H5PLibraryManagementModule -->
<g id="edge1" class="edge">
<title>CoreModule&#45;&gt;H5PLibraryManagementModule</title>
<path fill="none" stroke="black" d="M514.69,-122.11C514.69,-122.11 514.69,-140.99 514.69,-140.99"/>
<polygon fill="black" stroke="black" points="511.19,-140.99 514.69,-150.99 518.19,-140.99 511.19,-140.99"/>
</g>
<!-- H5PEditorModule -->
<g id="node2" class="node">
<title>H5PEditorModule</title>
<polygon fill="#8dd3c7" stroke="black" points="455.93,-122 452.93,-126 431.93,-126 428.93,-122 336.07,-122 336.07,-86 455.93,-86 455.93,-122"/>
<text text-anchor="middle" x="396" y="-99.8" font-family="Times,serif" font-size="14.00">H5PEditorModule</text>
</g>
<!-- H5PEditorModule&#45;&gt;H5PLibraryManagementModule -->
<g id="edge2" class="edge">
<title>H5PEditorModule&#45;&gt;H5PLibraryManagementModule</title>
<path fill="none" stroke="black" d="M405.98,-122.11C405.98,-122.11 405.98,-140.99 405.98,-140.99"/>
<polygon fill="black" stroke="black" points="402.48,-140.99 405.98,-150.99 409.48,-140.99 402.48,-140.99"/>
</g>
<!-- RabbitMQWrapperModule -->
<g id="node3" class="node">
<title>RabbitMQWrapperModule</title>
<polygon fill="#8dd3c7" stroke="black" points="318.4,-122 315.4,-126 294.4,-126 291.4,-122 149.6,-122 149.6,-86 318.4,-86 318.4,-122"/>
<text text-anchor="middle" x="234" y="-99.8" font-family="Times,serif" font-size="14.00">RabbitMQWrapperModule</text>
</g>
<!-- RabbitMQWrapperModule&#45;&gt;H5PLibraryManagementModule -->
<g id="edge3" class="edge">
<title>RabbitMQWrapperModule&#45;&gt;H5PLibraryManagementModule</title>
<path fill="none" stroke="black" d="M234,-122.02C234,-139.37 234,-163 234,-163 234,-163 346.36,-163 346.36,-163"/>
<polygon fill="black" stroke="black" points="346.36,-166.5 356.36,-163 346.36,-159.5 346.36,-166.5"/>
</g>
<!-- S3ClientModule -->
<g id="node4" class="node">
<title>S3ClientModule</title>
<polygon fill="#8dd3c7" stroke="black" points="132.06,-122 129.06,-126 108.06,-126 105.06,-122 23.94,-122 23.94,-86 132.06,-86 132.06,-122"/>
<text text-anchor="middle" x="78" y="-99.8" font-family="Times,serif" font-size="14.00">S3ClientModule</text>
</g>
<!-- S3ClientModule&#45;&gt;H5PLibraryManagementModule -->
<g id="edge4" class="edge">
<title>S3ClientModule&#45;&gt;H5PLibraryManagementModule</title>
<path fill="none" stroke="black" d="M78,-122.28C78,-143.32 78,-175 78,-175 78,-175 346.19,-175 346.19,-175"/>
<polygon fill="black" stroke="black" points="346.19,-178.5 356.19,-175 346.19,-171.5 346.19,-178.5"/>
</g>
<!-- H5PLibraryManagementService -->
<g id="node6" class="node">
<title>H5PLibraryManagementService</title>
<ellipse fill="#fdb462" stroke="black" cx="816" cy="-104" rx="136.56" ry="18"/>
<text text-anchor="middle" x="816" y="-99.8" font-family="Times,serif" font-size="14.00">H5PLibraryManagementService</text>
</g>
<!-- H5PLibraryManagementService&#45;&gt;H5PLibraryManagementModule -->
<g id="edge5" class="edge">
<title>H5PLibraryManagementService&#45;&gt;H5PLibraryManagementModule</title>
<path fill="none" stroke="black" d="M816,-122.28C816,-143.32 816,-175 816,-175 816,-175 565.8,-175 565.8,-175"/>
<polygon fill="black" stroke="black" points="565.8,-171.5 555.8,-175 565.8,-178.5 565.8,-171.5"/>
</g>
<!-- Logger -->
<g id="node7" class="node">
<title>Logger</title>
<ellipse fill="#fdb462" stroke="black" cx="623" cy="-104" rx="38.85" ry="18"/>
<text text-anchor="middle" x="623" y="-99.8" font-family="Times,serif" font-size="14.00">Logger</text>
</g>
<!-- Logger&#45;&gt;H5PLibraryManagementModule -->
<g id="edge6" class="edge">
<title>Logger&#45;&gt;H5PLibraryManagementModule</title>
<path fill="none" stroke="black" d="M623,-122.02C623,-139.37 623,-163 623,-163 623,-163 565.56,-163 565.56,-163"/>
<polygon fill="black" stroke="black" points="565.56,-159.5 555.56,-163 565.56,-166.5 565.56,-159.5"/>
</g>
</g>
</svg>
