<?xml version="1.0" encoding="UTF-8" standalone="no"?>
<!DOCTYPE svg PUBLIC "-//W3C//DTD SVG 1.1//EN"
 "http://www.w3.org/Graphics/SVG/1.1/DTD/svg11.dtd">
<!-- Generated by graphviz version 2.47.0 (20210316.0004)
 -->
<!-- Title: dependencies Pages: 1 -->
<svg width="2795pt" height="284pt"
 viewBox="0.00 0.00 2795.00 284.00" xmlns="http://www.w3.org/2000/svg" xmlns:xlink="http://www.w3.org/1999/xlink">
<g id="graph0" class="graph" transform="scale(1 1) rotate(0) translate(4 280)">
<title>dependencies</title>
<polygon fill="white" stroke="transparent" points="-4,4 -4,-280 2791,-280 2791,4 -4,4"/>
<text text-anchor="start" x="1372.51" y="-42.4" font-family="Times-12" font-weight="bold" font-size="14.00">Legend</text>
<polygon fill="#ffffb3" stroke="transparent" points="1159.5,-10 1159.5,-30 1179.5,-30 1179.5,-10 1159.5,-10"/>
<text text-anchor="start" x="1183.13" y="-15.4" font-family="Times-12" font-size="14.00"> &#160;Declarations</text>
<polygon fill="#8dd3c7" stroke="transparent" points="1272.5,-10 1272.5,-30 1292.5,-30 1292.5,-10 1272.5,-10"/>
<text text-anchor="start" x="1296.23" y="-15.4" font-family="Times-12" font-size="14.00"> &#160;Module</text>
<polygon fill="#80b1d3" stroke="transparent" points="1358.5,-10 1358.5,-30 1378.5,-30 1378.5,-10 1358.5,-10"/>
<text text-anchor="start" x="1382.28" y="-15.4" font-family="Times-12" font-size="14.00"> &#160;Bootstrap</text>
<polygon fill="#fdb462" stroke="transparent" points="1455.5,-10 1455.5,-30 1475.5,-30 1475.5,-10 1455.5,-10"/>
<text text-anchor="start" x="1479.17" y="-15.4" font-family="Times-12" font-size="14.00"> &#160;Providers</text>
<polygon fill="#fb8072" stroke="transparent" points="1551.5,-10 1551.5,-30 1571.5,-30 1571.5,-10 1551.5,-10"/>
<text text-anchor="start" x="1575.23" y="-15.4" font-family="Times-12" font-size="14.00"> &#160;Exports</text>
<g id="clust1" class="cluster">
<title>cluster_BoardModule</title>
<polygon fill="none" stroke="black" stroke-dasharray="1,5" points="8,-70 8,-268 2779,-268 2779,-70 8,-70"/>
</g>
<g id="clust4" class="cluster">
<title>cluster_BoardModule_exports</title>
<polygon fill="none" stroke="black" points="924,-208 924,-260 1857,-260 1857,-208 924,-208"/>
</g>
<g id="clust6" class="cluster">
<title>cluster_BoardModule_providers</title>
<polygon fill="none" stroke="black" points="482,-78 482,-130 2771,-130 2771,-78 482,-78"/>
</g>
<g id="clust3" class="cluster">
<title>cluster_BoardModule_imports</title>
<polygon fill="none" stroke="black" points="16,-78 16,-130 474,-130 474,-78 16,-78"/>
</g>
<!-- ConsoleWriterModule -->
<g id="node1" class="node">
<title>ConsoleWriterModule</title>
<polygon fill="#8dd3c7" stroke="black" points="465.97,-122 462.97,-126 441.97,-126 438.97,-122 324.03,-122 324.03,-86 465.97,-86 465.97,-122"/>
<text text-anchor="middle" x="395" y="-99.8" font-family="Times,serif" font-size="14.00">ConsoleWriterModule</text>
</g>
<!-- BoardModule -->
<g id="node4" class="node">
<title>BoardModule</title>
<polygon fill="#8dd3c7" stroke="black" points="1443.76,-187 1440.76,-191 1419.76,-191 1416.76,-187 1350.24,-187 1350.24,-151 1443.76,-151 1443.76,-187"/>
<text text-anchor="middle" x="1397" y="-164.8" font-family="Times,serif" font-size="14.00">BoardModule</text>
</g>
<!-- ConsoleWriterModule&#45;&gt;BoardModule -->
<g id="edge1" class="edge">
<title>ConsoleWriterModule&#45;&gt;BoardModule</title>
<path fill="none" stroke="black" d="M395,-122.11C395,-141.34 395,-169 395,-169 395,-169 1340.02,-169 1340.02,-169"/>
<polygon fill="black" stroke="black" points="1340.02,-172.5 1350.02,-169 1340.02,-165.5 1340.02,-172.5"/>
</g>
<!-- FilesStorageClientModule -->
<g id="node2" class="node">
<title>FilesStorageClientModule</title>
<polygon fill="#8dd3c7" stroke="black" points="305.76,-122 302.76,-126 281.76,-126 278.76,-122 142.24,-122 142.24,-86 305.76,-86 305.76,-122"/>
<text text-anchor="middle" x="224" y="-99.8" font-family="Times,serif" font-size="14.00">FilesStorageClientModule</text>
</g>
<!-- FilesStorageClientModule&#45;&gt;BoardModule -->
<g id="edge2" class="edge">
<title>FilesStorageClientModule&#45;&gt;BoardModule</title>
<path fill="none" stroke="black" d="M224,-122.13C224,-142.57 224,-173 224,-173 224,-173 1339.93,-173 1339.93,-173"/>
<polygon fill="black" stroke="black" points="1339.93,-176.5 1349.93,-173 1339.93,-169.5 1339.93,-176.5"/>
</g>
<!-- LoggerModule -->
<g id="node3" class="node">
<title>LoggerModule</title>
<polygon fill="#8dd3c7" stroke="black" points="123.98,-122 120.98,-126 99.98,-126 96.98,-122 24.02,-122 24.02,-86 123.98,-86 123.98,-122"/>
<text text-anchor="middle" x="74" y="-99.8" font-family="Times,serif" font-size="14.00">LoggerModule</text>
</g>
<!-- LoggerModule&#45;&gt;BoardModule -->
<g id="edge3" class="edge">
<title>LoggerModule&#45;&gt;BoardModule</title>
<path fill="none" stroke="black" d="M74,-122.04C74,-143.66 74,-177 74,-177 74,-177 1339.91,-177 1339.91,-177"/>
<polygon fill="black" stroke="black" points="1339.91,-180.5 1349.91,-177 1339.91,-173.5 1339.91,-180.5"/>
</g>
<!-- BoardDoAuthorizableService  -->
<g id="node5" class="node">
<title>BoardDoAuthorizableService </title>
<polygon fill="#fb8072" stroke="black" points="1848.88,-252 1663.12,-252 1663.12,-216 1848.88,-216 1848.88,-252"/>
<text text-anchor="middle" x="1756" y="-229.8" font-family="Times,serif" font-size="14.00">BoardDoAuthorizableService </text>
</g>
<!-- BoardModule&#45;&gt;BoardDoAuthorizableService  -->
<g id="edge4" class="edge">
<title>BoardModule&#45;&gt;BoardDoAuthorizableService </title>
<path fill="none" stroke="black" stroke-dasharray="5,2" d="M1444.05,-180C1522.29,-180 1670.67,-180 1670.67,-180 1670.67,-180 1670.67,-205.72 1670.67,-205.72"/>
<polygon fill="black" stroke="black" points="1667.17,-205.72 1670.67,-215.72 1674.17,-205.72 1667.17,-205.72"/>
</g>
<!-- CardService  -->
<g id="node6" class="node">
<title>CardService </title>
<polygon fill="#fb8072" stroke="black" points="1645.19,-252 1556.81,-252 1556.81,-216 1645.19,-216 1645.19,-252"/>
<text text-anchor="middle" x="1601" y="-229.8" font-family="Times,serif" font-size="14.00">CardService </text>
</g>
<!-- BoardModule&#45;&gt;CardService  -->
<g id="edge5" class="edge">
<title>BoardModule&#45;&gt;CardService </title>
<path fill="none" stroke="black" stroke-dasharray="5,2" d="M1443.8,-184C1504.03,-184 1601,-184 1601,-184 1601,-184 1601,-205.95 1601,-205.95"/>
<polygon fill="black" stroke="black" points="1597.5,-205.95 1601,-215.95 1604.5,-205.95 1597.5,-205.95"/>
</g>
<!-- ColumnBoardService  -->
<g id="node7" class="node">
<title>ColumnBoardService </title>
<polygon fill="#fb8072" stroke="black" points="1538.31,-252 1397.69,-252 1397.69,-216 1538.31,-216 1538.31,-252"/>
<text text-anchor="middle" x="1468" y="-229.8" font-family="Times,serif" font-size="14.00">ColumnBoardService </text>
</g>
<!-- BoardModule&#45;&gt;ColumnBoardService  -->
<g id="edge6" class="edge">
<title>BoardModule&#45;&gt;ColumnBoardService </title>
<path fill="none" stroke="black" stroke-dasharray="5,2" d="M1420.74,-187.11C1420.74,-187.11 1420.74,-205.99 1420.74,-205.99"/>
<polygon fill="black" stroke="black" points="1417.24,-205.99 1420.74,-215.99 1424.24,-205.99 1417.24,-205.99"/>
</g>
<!-- ColumnService  -->
<g id="node8" class="node">
<title>ColumnService </title>
<polygon fill="#fb8072" stroke="black" points="1379.1,-252 1272.9,-252 1272.9,-216 1379.1,-216 1379.1,-252"/>
<text text-anchor="middle" x="1326" y="-229.8" font-family="Times,serif" font-size="14.00">ColumnService </text>
</g>
<!-- BoardModule&#45;&gt;ColumnService  -->
<g id="edge7" class="edge">
<title>BoardModule&#45;&gt;ColumnService </title>
<path fill="none" stroke="black" stroke-dasharray="5,2" d="M1364.71,-187.11C1364.71,-187.11 1364.71,-205.99 1364.71,-205.99"/>
<polygon fill="black" stroke="black" points="1361.21,-205.99 1364.71,-215.99 1368.21,-205.99 1361.21,-205.99"/>
</g>
<!-- ContentElementService  -->
<g id="node9" class="node">
<title>ContentElementService </title>
<polygon fill="#fb8072" stroke="black" points="1254.46,-252 1101.54,-252 1101.54,-216 1254.46,-216 1254.46,-252"/>
<text text-anchor="middle" x="1178" y="-229.8" font-family="Times,serif" font-size="14.00">ContentElementService </text>
</g>
<!-- BoardModule&#45;&gt;ContentElementService  -->
<g id="edge8" class="edge">
<title>BoardModule&#45;&gt;ContentElementService </title>
<path fill="none" stroke="black" stroke-dasharray="5,2" d="M1350.02,-184C1285.67,-184 1178,-184 1178,-184 1178,-184 1178,-205.95 1178,-205.95"/>
<polygon fill="black" stroke="black" points="1174.5,-205.95 1178,-215.95 1181.5,-205.95 1174.5,-205.95"/>
</g>
<!-- SubmissionItemService  -->
<g id="node10" class="node">
<title>SubmissionItemService </title>
<polygon fill="#fb8072" stroke="black" points="1084.48,-252 931.52,-252 931.52,-216 1084.48,-216 1084.48,-252"/>
<text text-anchor="middle" x="1008" y="-229.8" font-family="Times,serif" font-size="14.00">SubmissionItemService </text>
</g>
<!-- BoardModule&#45;&gt;SubmissionItemService  -->
<g id="edge9" class="edge">
<title>BoardModule&#45;&gt;SubmissionItemService </title>
<path fill="none" stroke="black" stroke-dasharray="5,2" d="M1350.16,-180C1261.35,-180 1077.24,-180 1077.24,-180 1077.24,-180 1077.24,-205.72 1077.24,-205.72"/>
<polygon fill="black" stroke="black" points="1073.74,-205.72 1077.24,-215.72 1080.74,-205.72 1073.74,-205.72"/>
</g>
<!-- BoardDoAuthorizableService -->
<g id="node11" class="node">
<title>BoardDoAuthorizableService</title>
<ellipse fill="#fdb462" stroke="black" cx="2637" cy="-104" rx="125.6" ry="18"/>
<text text-anchor="middle" x="2637" y="-99.8" font-family="Times,serif" font-size="14.00">BoardDoAuthorizableService</text>
</g>
<!-- BoardDoAuthorizableService&#45;&gt;BoardModule -->
<g id="edge10" class="edge">
<title>BoardDoAuthorizableService&#45;&gt;BoardModule</title>
<path fill="none" stroke="black" d="M2637,-122.04C2637,-143.66 2637,-177 2637,-177 2637,-177 1454.1,-177 1454.1,-177"/>
<polygon fill="black" stroke="black" points="1454.1,-173.5 1444.1,-177 1454.1,-180.5 1454.1,-173.5"/>
</g>
<!-- BoardDoRepo -->
<g id="node12" class="node">
<title>BoardDoRepo</title>
<ellipse fill="#fdb462" stroke="black" cx="2426" cy="-104" rx="66.64" ry="18"/>
<text text-anchor="middle" x="2426" y="-99.8" font-family="Times,serif" font-size="14.00">BoardDoRepo</text>
</g>
<!-- BoardDoRepo&#45;&gt;BoardModule -->
<g id="edge11" class="edge">
<title>BoardDoRepo&#45;&gt;BoardModule</title>
<path fill="none" stroke="black" d="M2426,-122.13C2426,-142.57 2426,-173 2426,-173 2426,-173 1453.89,-173 1453.89,-173"/>
<polygon fill="black" stroke="black" points="1453.89,-169.5 1443.89,-173 1453.89,-176.5 1453.89,-169.5"/>
</g>
<!-- BoardDoService -->
<g id="node13" class="node">
<title>BoardDoService</title>
<ellipse fill="#fdb462" stroke="black" cx="2266" cy="-104" rx="75.28" ry="18"/>
<text text-anchor="middle" x="2266" y="-99.8" font-family="Times,serif" font-size="14.00">BoardDoService</text>
</g>
<!-- BoardDoService&#45;&gt;BoardModule -->
<g id="edge12" class="edge">
<title>BoardDoService&#45;&gt;BoardModule</title>
<path fill="none" stroke="black" d="M2266,-122.11C2266,-141.34 2266,-169 2266,-169 2266,-169 1454.03,-169 1454.03,-169"/>
<polygon fill="black" stroke="black" points="1454.03,-165.5 1444.03,-169 1454.03,-172.5 1454.03,-165.5"/>
</g>
<!-- BoardNodeRepo -->
<g id="node14" class="node">
<title>BoardNodeRepo</title>
<ellipse fill="#fdb462" stroke="black" cx="2097" cy="-104" rx="75.87" ry="18"/>
<text text-anchor="middle" x="2097" y="-99.8" font-family="Times,serif" font-size="14.00">BoardNodeRepo</text>
</g>
<!-- BoardNodeRepo&#45;&gt;BoardModule -->
<g id="edge13" class="edge">
<title>BoardNodeRepo&#45;&gt;BoardModule</title>
<path fill="none" stroke="black" d="M2097,-122.27C2097,-140.56 2097,-166 2097,-166 2097,-166 1454.02,-166 1454.02,-166"/>
<polygon fill="black" stroke="black" points="1454.02,-162.5 1444.02,-166 1454.02,-169.5 1454.02,-162.5"/>
</g>
<!-- CardService -->
<g id="node15" class="node">
<title>CardService</title>
<ellipse fill="#fdb462" stroke="black" cx="1944" cy="-104" rx="58.53" ry="18"/>
<text text-anchor="middle" x="1944" y="-99.8" font-family="Times,serif" font-size="14.00">CardService</text>
</g>
<!-- CardService&#45;&gt;BoardModule -->
<g id="edge14" class="edge">
<title>CardService&#45;&gt;BoardModule</title>
<path fill="none" stroke="black" d="M1944,-122.03C1944,-139.06 1944,-162 1944,-162 1944,-162 1454.11,-162 1454.11,-162"/>
<polygon fill="black" stroke="black" points="1454.11,-158.5 1444.11,-162 1454.11,-165.5 1454.11,-158.5"/>
</g>
<!-- ColumnBoardService -->
<g id="node16" class="node">
<title>ColumnBoardService</title>
<ellipse fill="#fdb462" stroke="black" cx="1773" cy="-104" rx="94.92" ry="18"/>
<text text-anchor="middle" x="1773" y="-99.8" font-family="Times,serif" font-size="14.00">ColumnBoardService</text>
</g>
<!-- ColumnBoardService&#45;&gt;BoardModule -->
<g id="edge15" class="edge">
<title>ColumnBoardService&#45;&gt;BoardModule</title>
<path fill="none" stroke="black" d="M1763.61,-122.01C1763.61,-138.05 1763.61,-159 1763.61,-159 1763.61,-159 1453.8,-159 1453.8,-159"/>
<polygon fill="black" stroke="black" points="1453.8,-155.5 1443.8,-159 1453.8,-162.5 1453.8,-155.5"/>
</g>
<!-- ColumnService -->
<g id="node17" class="node">
<title>ColumnService</title>
<ellipse fill="#fdb462" stroke="black" cx="1589" cy="-104" rx="71.23" ry="18"/>
<text text-anchor="middle" x="1589" y="-99.8" font-family="Times,serif" font-size="14.00">ColumnService</text>
</g>
<!-- ColumnService&#45;&gt;BoardModule -->
<g id="edge16" class="edge">
<title>ColumnService&#45;&gt;BoardModule</title>
<path fill="none" stroke="black" d="M1528.15,-113.35C1528.15,-128.08 1528.15,-155 1528.15,-155 1528.15,-155 1453.98,-155 1453.98,-155"/>
<polygon fill="black" stroke="black" points="1453.98,-151.5 1443.98,-155 1453.98,-158.5 1453.98,-151.5"/>
</g>
<!-- ContentElementFactory -->
<g id="node18" class="node">
<title>ContentElementFactory</title>
<ellipse fill="#fdb462" stroke="black" cx="1397" cy="-104" rx="103.09" ry="18"/>
<text text-anchor="middle" x="1397" y="-99.8" font-family="Times,serif" font-size="14.00">ContentElementFactory</text>
</g>
<!-- ContentElementFactory&#45;&gt;BoardModule -->
<g id="edge17" class="edge">
<title>ContentElementFactory&#45;&gt;BoardModule</title>
<path fill="none" stroke="black" d="M1397,-122.11C1397,-122.11 1397,-140.99 1397,-140.99"/>
<polygon fill="black" stroke="black" points="1393.5,-140.99 1397,-150.99 1400.5,-140.99 1393.5,-140.99"/>
</g>
<!-- ContentElementService -->
<g id="node19" class="node">
<title>ContentElementService</title>
<ellipse fill="#fdb462" stroke="black" cx="1173" cy="-104" rx="102.51" ry="18"/>
<text text-anchor="middle" x="1173" y="-99.8" font-family="Times,serif" font-size="14.00">ContentElementService</text>
</g>
<!-- ContentElementService&#45;&gt;BoardModule -->
<g id="edge18" class="edge">
<title>ContentElementService&#45;&gt;BoardModule</title>
<path fill="none" stroke="black" d="M1263.47,-112.88C1263.47,-127.5 1263.47,-155 1263.47,-155 1263.47,-155 1339.92,-155 1339.92,-155"/>
<polygon fill="black" stroke="black" points="1339.92,-158.5 1349.92,-155 1339.92,-151.5 1339.92,-158.5"/>
</g>
<!-- CourseRepo -->
<g id="node20" class="node">
<title>CourseRepo</title>
<ellipse fill="#fdb462" stroke="black" cx="993" cy="-104" rx="58.55" ry="18"/>
<text text-anchor="middle" x="993" y="-99.8" font-family="Times,serif" font-size="14.00">CourseRepo</text>
</g>
<!-- CourseRepo&#45;&gt;BoardModule -->
<g id="edge19" class="edge">
<title>CourseRepo&#45;&gt;BoardModule</title>
<path fill="none" stroke="black" d="M993,-122.01C993,-138.05 993,-159 993,-159 993,-159 1339.87,-159 1339.87,-159"/>
<polygon fill="black" stroke="black" points="1339.87,-162.5 1349.87,-159 1339.87,-155.5 1339.87,-162.5"/>
</g>
<!-- RecursiveDeleteVisitor -->
<g id="node21" class="node">
<title>RecursiveDeleteVisitor</title>
<ellipse fill="#fdb462" stroke="black" cx="815" cy="-104" rx="101.84" ry="18"/>
<text text-anchor="middle" x="815" y="-99.8" font-family="Times,serif" font-size="14.00">RecursiveDeleteVisitor</text>
</g>
<!-- RecursiveDeleteVisitor&#45;&gt;BoardModule -->
<g id="edge20" class="edge">
<title>RecursiveDeleteVisitor&#45;&gt;BoardModule</title>
<path fill="none" stroke="black" d="M815,-122.03C815,-139.06 815,-162 815,-162 815,-162 1339.87,-162 1339.87,-162"/>
<polygon fill="black" stroke="black" points="1339.87,-165.5 1349.87,-162 1339.87,-158.5 1339.87,-165.5"/>
</g>
<!-- SubmissionItemService -->
<g id="node22" class="node">
<title>SubmissionItemService</title>
<ellipse fill="#fdb462" stroke="black" cx="593" cy="-104" rx="102.52" ry="18"/>
<text text-anchor="middle" x="593" y="-99.8" font-family="Times,serif" font-size="14.00">SubmissionItemService</text>
</g>
<!-- SubmissionItemService&#45;&gt;BoardModule -->
<g id="edge21" class="edge">
<title>SubmissionItemService&#45;&gt;BoardModule</title>
<path fill="none" stroke="black" d="M593,-122.27C593,-140.56 593,-166 593,-166 593,-166 1340,-166 1340,-166"/>
<polygon fill="black" stroke="black" points="1340,-169.5 1350,-166 1340,-162.5 1340,-169.5"/>
</g>
</g>
</svg>
