<?xml version="1.0" encoding="UTF-8" standalone="no"?>
<!DOCTYPE svg PUBLIC "-//W3C//DTD SVG 1.1//EN"
 "http://www.w3.org/Graphics/SVG/1.1/DTD/svg11.dtd">
<!-- Generated by graphviz version 2.47.0 (20210316.0004)
 -->
<!-- Title: dependencies Pages: 1 -->
<svg width="3940pt" height="284pt"
 viewBox="0.00 0.00 3940.00 284.00" xmlns="http://www.w3.org/2000/svg" xmlns:xlink="http://www.w3.org/1999/xlink">
<g id="graph0" class="graph" transform="scale(1 1) rotate(0) translate(4 280)">
<title>dependencies</title>
<polygon fill="white" stroke="transparent" points="-4,4 -4,-280 3936,-280 3936,4 -4,4"/>
<text text-anchor="start" x="1945.01" y="-42.4" font-family="Times-12" font-weight="bold" font-size="14.00">Legend</text>
<polygon fill="#ffffb3" stroke="transparent" points="1732,-10 1732,-30 1752,-30 1752,-10 1732,-10"/>
<text text-anchor="start" x="1755.63" y="-15.4" font-family="Times-12" font-size="14.00"> &#160;Declarations</text>
<polygon fill="#8dd3c7" stroke="transparent" points="1845,-10 1845,-30 1865,-30 1865,-10 1845,-10"/>
<text text-anchor="start" x="1868.73" y="-15.4" font-family="Times-12" font-size="14.00"> &#160;Module</text>
<polygon fill="#80b1d3" stroke="transparent" points="1931,-10 1931,-30 1951,-30 1951,-10 1931,-10"/>
<text text-anchor="start" x="1954.78" y="-15.4" font-family="Times-12" font-size="14.00"> &#160;Bootstrap</text>
<polygon fill="#fdb462" stroke="transparent" points="2028,-10 2028,-30 2048,-30 2048,-10 2028,-10"/>
<text text-anchor="start" x="2051.67" y="-15.4" font-family="Times-12" font-size="14.00"> &#160;Providers</text>
<polygon fill="#fb8072" stroke="transparent" points="2124,-10 2124,-30 2144,-30 2144,-10 2124,-10"/>
<text text-anchor="start" x="2147.73" y="-15.4" font-family="Times-12" font-size="14.00"> &#160;Exports</text>
<g id="clust1" class="cluster">
<title>cluster_BoardModule</title>
<polygon fill="none" stroke="black" stroke-dasharray="1,5" points="8,-70 8,-268 3924,-268 3924,-70 8,-70"/>
</g>
<g id="clust6" class="cluster">
<title>cluster_BoardModule_providers</title>
<polygon fill="none" stroke="black" points="586,-78 586,-130 3916,-130 3916,-78 586,-78"/>
</g>
<g id="clust3" class="cluster">
<title>cluster_BoardModule_imports</title>
<polygon fill="none" stroke="black" points="16,-78 16,-130 578,-130 578,-78 16,-78"/>
</g>
<g id="clust4" class="cluster">
<title>cluster_BoardModule_exports</title>
<polygon fill="none" stroke="black" points="1427,-208 1427,-260 2549,-260 2549,-208 1427,-208"/>
</g>
<!-- ConsoleWriterModule -->
<g id="node1" class="node">
<title>ConsoleWriterModule</title>
<polygon fill="#8dd3c7" stroke="black" points="569.97,-122 566.97,-126 545.97,-126 542.97,-122 428.03,-122 428.03,-86 569.97,-86 569.97,-122"/>
<text text-anchor="middle" x="499" y="-99.8" font-family="Times,serif" font-size="14.00">ConsoleWriterModule</text>
</g>
<!-- BoardModule -->
<g id="node5" class="node">
<title>BoardModule</title>
<polygon fill="#8dd3c7" stroke="black" points="2017.76,-187 2014.76,-191 1993.76,-191 1990.76,-187 1924.24,-187 1924.24,-151 2017.76,-151 2017.76,-187"/>
<text text-anchor="middle" x="1971" y="-164.8" font-family="Times,serif" font-size="14.00">BoardModule</text>
</g>
<!-- ConsoleWriterModule&#45;&gt;BoardModule -->
<g id="edge1" class="edge">
<title>ConsoleWriterModule&#45;&gt;BoardModule</title>
<path fill="none" stroke="black" d="M499,-122.17C499,-141.09 499,-168 499,-168 499,-168 1914.1,-168 1914.1,-168"/>
<polygon fill="black" stroke="black" points="1914.1,-171.5 1924.1,-168 1914.1,-164.5 1914.1,-171.5"/>
</g>
<!-- FilesStorageClientModule -->
<g id="node2" class="node">
<title>FilesStorageClientModule</title>
<polygon fill="#8dd3c7" stroke="black" points="409.76,-122 406.76,-126 385.76,-126 382.76,-122 246.24,-122 246.24,-86 409.76,-86 409.76,-122"/>
<text text-anchor="middle" x="328" y="-99.8" font-family="Times,serif" font-size="14.00">FilesStorageClientModule</text>
</g>
<!-- FilesStorageClientModule&#45;&gt;BoardModule -->
<g id="edge2" class="edge">
<title>FilesStorageClientModule&#45;&gt;BoardModule</title>
<path fill="none" stroke="black" d="M328,-122.31C328,-142.15 328,-171 328,-171 328,-171 1914.04,-171 1914.04,-171"/>
<polygon fill="black" stroke="black" points="1914.04,-174.5 1924.04,-171 1914.04,-167.5 1914.04,-174.5"/>
</g>
<!-- LoggerModule -->
<g id="node3" class="node">
<title>LoggerModule</title>
<polygon fill="#8dd3c7" stroke="black" points="227.98,-122 224.98,-126 203.98,-126 200.98,-122 128.02,-122 128.02,-86 227.98,-86 227.98,-122"/>
<text text-anchor="middle" x="178" y="-99.8" font-family="Times,serif" font-size="14.00">LoggerModule</text>
</g>
<!-- LoggerModule&#45;&gt;BoardModule -->
<g id="edge3" class="edge">
<title>LoggerModule&#45;&gt;BoardModule</title>
<path fill="none" stroke="black" d="M178,-122.03C178,-142.77 178,-174 178,-174 178,-174 1913.96,-174 1913.96,-174"/>
<polygon fill="black" stroke="black" points="1913.96,-177.5 1923.96,-174 1913.96,-170.5 1913.96,-177.5"/>
</g>
<!-- UserModule -->
<g id="node4" class="node">
<title>UserModule</title>
<polygon fill="#8dd3c7" stroke="black" points="109.98,-122 106.98,-126 85.98,-126 82.98,-122 24.02,-122 24.02,-86 109.98,-86 109.98,-122"/>
<text text-anchor="middle" x="67" y="-99.8" font-family="Times,serif" font-size="14.00">UserModule</text>
</g>
<!-- UserModule&#45;&gt;BoardModule -->
<g id="edge4" class="edge">
<title>UserModule&#45;&gt;BoardModule</title>
<path fill="none" stroke="black" d="M67,-122.17C67,-143.5 67,-176 67,-176 67,-176 1913.93,-176 1913.93,-176"/>
<polygon fill="black" stroke="black" points="1913.93,-179.5 1923.93,-176 1913.93,-172.5 1913.93,-179.5"/>
</g>
<!-- BoardDoAuthorizableService  -->
<g id="node6" class="node">
<title>BoardDoAuthorizableService </title>
<polygon fill="#fb8072" stroke="black" points="2540.88,-252 2355.12,-252 2355.12,-216 2540.88,-216 2540.88,-252"/>
<text text-anchor="middle" x="2448" y="-229.8" font-family="Times,serif" font-size="14.00">BoardDoAuthorizableService </text>
</g>
<!-- BoardModule&#45;&gt;BoardDoAuthorizableService  -->
<g id="edge5" class="edge">
<title>BoardModule&#45;&gt;BoardDoAuthorizableService </title>
<path fill="none" stroke="black" stroke-dasharray="5,2" d="M2017.88,-179C2121.26,-179 2359.67,-179 2359.67,-179 2359.67,-179 2359.67,-205.99 2359.67,-205.99"/>
<polygon fill="black" stroke="black" points="2356.17,-205.99 2359.67,-215.99 2363.17,-205.99 2356.17,-205.99"/>
</g>
<!-- CardService  -->
<g id="node7" class="node">
<title>CardService </title>
<polygon fill="#fb8072" stroke="black" points="2337.19,-252 2248.81,-252 2248.81,-216 2337.19,-216 2337.19,-252"/>
<text text-anchor="middle" x="2293" y="-229.8" font-family="Times,serif" font-size="14.00">CardService </text>
</g>
<!-- BoardModule&#45;&gt;CardService  -->
<g id="edge6" class="edge">
<title>BoardModule&#45;&gt;CardService </title>
<path fill="none" stroke="black" stroke-dasharray="5,2" d="M2017.82,-182C2107.13,-182 2293,-182 2293,-182 2293,-182 2293,-205.81 2293,-205.81"/>
<polygon fill="black" stroke="black" points="2289.5,-205.81 2293,-215.81 2296.5,-205.81 2289.5,-205.81"/>
</g>
<!-- ColumnBoardCopyService  -->
<g id="node8" class="node">
<title>ColumnBoardCopyService </title>
<polygon fill="#fb8072" stroke="black" points="2230.64,-252 2059.36,-252 2059.36,-216 2230.64,-216 2230.64,-252"/>
<text text-anchor="middle" x="2145" y="-229.8" font-family="Times,serif" font-size="14.00">ColumnBoardCopyService </text>
</g>
<!-- BoardModule&#45;&gt;ColumnBoardCopyService  -->
<g id="edge7" class="edge">
<title>BoardModule&#45;&gt;ColumnBoardCopyService </title>
<path fill="none" stroke="black" stroke-dasharray="5,2" d="M2017.8,-185C2062.42,-185 2122.86,-185 2122.86,-185 2122.86,-185 2122.86,-205.75 2122.86,-205.75"/>
<polygon fill="black" stroke="black" points="2119.36,-205.75 2122.86,-215.75 2126.36,-205.75 2119.36,-205.75"/>
</g>
<!-- ColumnBoardService  -->
<g id="node9" class="node">
<title>ColumnBoardService </title>
<polygon fill="#fb8072" stroke="black" points="2041.31,-252 1900.69,-252 1900.69,-216 2041.31,-216 2041.31,-252"/>
<text text-anchor="middle" x="1971" y="-229.8" font-family="Times,serif" font-size="14.00">ColumnBoardService </text>
</g>
<!-- BoardModule&#45;&gt;ColumnBoardService  -->
<g id="edge8" class="edge">
<title>BoardModule&#45;&gt;ColumnBoardService </title>
<path fill="none" stroke="black" stroke-dasharray="5,2" d="M1971,-187.11C1971,-187.11 1971,-205.99 1971,-205.99"/>
<polygon fill="black" stroke="black" points="1967.5,-205.99 1971,-215.99 1974.5,-205.99 1967.5,-205.99"/>
</g>
<!-- ColumnService  -->
<g id="node10" class="node">
<title>ColumnService </title>
<polygon fill="#fb8072" stroke="black" points="1882.1,-252 1775.9,-252 1775.9,-216 1882.1,-216 1882.1,-252"/>
<text text-anchor="middle" x="1829" y="-229.8" font-family="Times,serif" font-size="14.00">ColumnService </text>
</g>
<!-- BoardModule&#45;&gt;ColumnService  -->
<g id="edge9" class="edge">
<title>BoardModule&#45;&gt;ColumnService </title>
<path fill="none" stroke="black" stroke-dasharray="5,2" d="M1924.11,-185C1882.75,-185 1829,-185 1829,-185 1829,-185 1829,-205.75 1829,-205.75"/>
<polygon fill="black" stroke="black" points="1825.5,-205.75 1829,-215.75 1832.5,-205.75 1825.5,-205.75"/>
</g>
<!-- ContentElementService  -->
<g id="node11" class="node">
<title>ContentElementService </title>
<polygon fill="#fb8072" stroke="black" points="1757.46,-252 1604.54,-252 1604.54,-216 1757.46,-216 1757.46,-252"/>
<text text-anchor="middle" x="1681" y="-229.8" font-family="Times,serif" font-size="14.00">ContentElementService </text>
</g>
<!-- BoardModule&#45;&gt;ContentElementService  -->
<g id="edge10" class="edge">
<title>BoardModule&#45;&gt;ContentElementService </title>
<path fill="none" stroke="black" stroke-dasharray="5,2" d="M1924.04,-182C1858.36,-182 1747.01,-182 1747.01,-182 1747.01,-182 1747.01,-205.81 1747.01,-205.81"/>
<polygon fill="black" stroke="black" points="1743.51,-205.81 1747.01,-215.81 1750.51,-205.81 1743.51,-205.81"/>
</g>
<!-- SubmissionItemService  -->
<g id="node12" class="node">
<title>SubmissionItemService </title>
<polygon fill="#fb8072" stroke="black" points="1587.48,-252 1434.52,-252 1434.52,-216 1587.48,-216 1587.48,-252"/>
<text text-anchor="middle" x="1511" y="-229.8" font-family="Times,serif" font-size="14.00">SubmissionItemService </text>
</g>
<!-- BoardModule&#45;&gt;SubmissionItemService  -->
<g id="edge11" class="edge">
<title>BoardModule&#45;&gt;SubmissionItemService </title>
<path fill="none" stroke="black" stroke-dasharray="5,2" d="M1923.93,-179C1806.7,-179 1511,-179 1511,-179 1511,-179 1511,-205.99 1511,-205.99"/>
<polygon fill="black" stroke="black" points="1507.5,-205.99 1511,-215.99 1514.5,-205.99 1507.5,-205.99"/>
</g>
<!-- BoardDoAuthorizableService -->
<g id="node13" class="node">
<title>BoardDoAuthorizableService</title>
<ellipse fill="#fdb462" stroke="black" cx="3782" cy="-104" rx="125.6" ry="18"/>
<text text-anchor="middle" x="3782" y="-99.8" font-family="Times,serif" font-size="14.00">BoardDoAuthorizableService</text>
</g>
<!-- BoardDoAuthorizableService&#45;&gt;BoardModule -->
<g id="edge12" class="edge">
<title>BoardDoAuthorizableService&#45;&gt;BoardModule</title>
<path fill="none" stroke="black" d="M3782,-122.17C3782,-143.5 3782,-176 3782,-176 3782,-176 2028.05,-176 2028.05,-176"/>
<polygon fill="black" stroke="black" points="2028.05,-172.5 2018.05,-176 2028.05,-179.5 2028.05,-172.5"/>
</g>
<!-- BoardDoCopyService -->
<g id="node14" class="node">
<title>BoardDoCopyService</title>
<ellipse fill="#fdb462" stroke="black" cx="3542" cy="-104" rx="96.13" ry="18"/>
<text text-anchor="middle" x="3542" y="-99.8" font-family="Times,serif" font-size="14.00">BoardDoCopyService</text>
</g>
<!-- BoardDoCopyService&#45;&gt;BoardModule -->
<g id="edge13" class="edge">
<title>BoardDoCopyService&#45;&gt;BoardModule</title>
<path fill="none" stroke="black" d="M3542,-122.03C3542,-142.77 3542,-174 3542,-174 3542,-174 2028.02,-174 2028.02,-174"/>
<polygon fill="black" stroke="black" points="2028.02,-170.5 2018.02,-174 2028.02,-177.5 2028.02,-170.5"/>
</g>
<!-- BoardDoRepo -->
<g id="node15" class="node">
<title>BoardDoRepo</title>
<ellipse fill="#fdb462" stroke="black" cx="3361" cy="-104" rx="66.64" ry="18"/>
<text text-anchor="middle" x="3361" y="-99.8" font-family="Times,serif" font-size="14.00">BoardDoRepo</text>
</g>
<!-- BoardDoRepo&#45;&gt;BoardModule -->
<g id="edge14" class="edge">
<title>BoardDoRepo&#45;&gt;BoardModule</title>
<path fill="none" stroke="black" d="M3361,-122.31C3361,-142.15 3361,-171 3361,-171 3361,-171 2028.04,-171 2028.04,-171"/>
<polygon fill="black" stroke="black" points="2028.04,-167.5 2018.04,-171 2028.04,-174.5 2028.04,-167.5"/>
</g>
<!-- BoardDoService -->
<g id="node16" class="node">
<title>BoardDoService</title>
<ellipse fill="#fdb462" stroke="black" cx="3201" cy="-104" rx="75.28" ry="18"/>
<text text-anchor="middle" x="3201" y="-99.8" font-family="Times,serif" font-size="14.00">BoardDoService</text>
</g>
<!-- BoardDoService&#45;&gt;BoardModule -->
<g id="edge15" class="edge">
<title>BoardDoService&#45;&gt;BoardModule</title>
<path fill="none" stroke="black" d="M3201,-122.17C3201,-141.09 3201,-168 3201,-168 3201,-168 2028.09,-168 2028.09,-168"/>
<polygon fill="black" stroke="black" points="2028.09,-164.5 2018.09,-168 2028.09,-171.5 2028.09,-164.5"/>
</g>
<!-- BoardNodeRepo -->
<g id="node17" class="node">
<title>BoardNodeRepo</title>
<ellipse fill="#fdb462" stroke="black" cx="3032" cy="-104" rx="75.87" ry="18"/>
<text text-anchor="middle" x="3032" y="-99.8" font-family="Times,serif" font-size="14.00">BoardNodeRepo</text>
</g>
<!-- BoardNodeRepo&#45;&gt;BoardModule -->
<g id="edge16" class="edge">
<title>BoardNodeRepo&#45;&gt;BoardModule</title>
<path fill="none" stroke="black" d="M3032,-122.3C3032,-140.27 3032,-165 3032,-165 3032,-165 2027.96,-165 2027.96,-165"/>
<polygon fill="black" stroke="black" points="2027.96,-161.5 2017.96,-165 2027.96,-168.5 2027.96,-161.5"/>
</g>
<!-- CardService -->
<g id="node18" class="node">
<title>CardService</title>
<ellipse fill="#fdb462" stroke="black" cx="2879" cy="-104" rx="58.53" ry="18"/>
<text text-anchor="middle" x="2879" y="-99.8" font-family="Times,serif" font-size="14.00">CardService</text>
</g>
<!-- CardService&#45;&gt;BoardModule -->
<g id="edge17" class="edge">
<title>CardService&#45;&gt;BoardModule</title>
<path fill="none" stroke="black" d="M2879,-122.02C2879,-139.37 2879,-163 2879,-163 2879,-163 2027.91,-163 2027.91,-163"/>
<polygon fill="black" stroke="black" points="2027.91,-159.5 2017.91,-163 2027.91,-166.5 2027.91,-159.5"/>
</g>
<!-- ColumnBoardCopyService -->
<g id="node19" class="node">
<title>ColumnBoardCopyService</title>
<ellipse fill="#fdb462" stroke="black" cx="2687" cy="-104" rx="115.78" ry="18"/>
<text text-anchor="middle" x="2687" y="-99.8" font-family="Times,serif" font-size="14.00">ColumnBoardCopyService</text>
</g>
<!-- ColumnBoardCopyService&#45;&gt;BoardModule -->
<g id="edge18" class="edge">
<title>ColumnBoardCopyService&#45;&gt;BoardModule</title>
<path fill="none" stroke="black" d="M2687,-122.03C2687,-138.4 2687,-160 2687,-160 2687,-160 2027.98,-160 2027.98,-160"/>
<polygon fill="black" stroke="black" points="2027.98,-156.5 2017.98,-160 2027.98,-163.5 2027.98,-156.5"/>
</g>
<!-- ColumnBoardService -->
<g id="node20" class="node">
<title>ColumnBoardService</title>
<ellipse fill="#fdb462" stroke="black" cx="2459" cy="-104" rx="94.92" ry="18"/>
<text text-anchor="middle" x="2459" y="-99.8" font-family="Times,serif" font-size="14.00">ColumnBoardService</text>
</g>
<!-- ColumnBoardService&#45;&gt;BoardModule -->
<g id="edge19" class="edge">
<title>ColumnBoardService&#45;&gt;BoardModule</title>
<path fill="none" stroke="black" d="M2452.61,-122.24C2452.61,-137.57 2452.61,-157 2452.61,-157 2452.61,-157 2028.06,-157 2028.06,-157"/>
<polygon fill="black" stroke="black" points="2028.06,-153.5 2018.06,-157 2028.06,-160.5 2028.06,-153.5"/>
</g>
<!-- ColumnService -->
<g id="node21" class="node">
<title>ColumnService</title>
<ellipse fill="#fdb462" stroke="black" cx="2275" cy="-104" rx="71.23" ry="18"/>
<text text-anchor="middle" x="2275" y="-99.8" font-family="Times,serif" font-size="14.00">ColumnService</text>
</g>
<!-- ColumnService&#45;&gt;BoardModule -->
<g id="edge20" class="edge">
<title>ColumnService&#45;&gt;BoardModule</title>
<path fill="none" stroke="black" d="M2217.23,-114.6C2217.23,-129.28 2217.23,-154 2217.23,-154 2217.23,-154 2027.89,-154 2027.89,-154"/>
<polygon fill="black" stroke="black" points="2027.89,-150.5 2017.89,-154 2027.89,-157.5 2027.89,-150.5"/>
</g>
<!-- ContentElementFactory -->
<g id="node22" class="node">
<title>ContentElementFactory</title>
<ellipse fill="#fdb462" stroke="black" cx="2083" cy="-104" rx="103.09" ry="18"/>
<text text-anchor="middle" x="2083" y="-99.8" font-family="Times,serif" font-size="14.00">ContentElementFactory</text>
</g>
<!-- ContentElementFactory&#45;&gt;BoardModule -->
<g id="edge21" class="edge">
<title>ContentElementFactory&#45;&gt;BoardModule</title>
<path fill="none" stroke="black" d="M1998.79,-114.44C1998.79,-114.44 1998.79,-140.97 1998.79,-140.97"/>
<polygon fill="black" stroke="black" points="1995.29,-140.97 1998.79,-150.97 2002.29,-140.97 1995.29,-140.97"/>
</g>
<!-- ContentElementService -->
<g id="node23" class="node">
<title>ContentElementService</title>
<ellipse fill="#fdb462" stroke="black" cx="1859" cy="-104" rx="102.51" ry="18"/>
<text text-anchor="middle" x="1859" y="-99.8" font-family="Times,serif" font-size="14.00">ContentElementService</text>
</g>
<!-- ContentElementService&#45;&gt;BoardModule -->
<g id="edge22" class="edge">
<title>ContentElementService&#45;&gt;BoardModule</title>
<path fill="none" stroke="black" d="M1942.94,-114.44C1942.94,-114.44 1942.94,-140.97 1942.94,-140.97"/>
<polygon fill="black" stroke="black" points="1939.44,-140.97 1942.94,-150.97 1946.44,-140.97 1939.44,-140.97"/>
</g>
<!-- CourseRepo -->
<g id="node24" class="node">
<title>CourseRepo</title>
<ellipse fill="#fdb462" stroke="black" cx="1679" cy="-104" rx="58.55" ry="18"/>
<text text-anchor="middle" x="1679" y="-99.8" font-family="Times,serif" font-size="14.00">CourseRepo</text>
</g>
<!-- CourseRepo&#45;&gt;BoardModule -->
<g id="edge23" class="edge">
<title>CourseRepo&#45;&gt;BoardModule</title>
<path fill="none" stroke="black" d="M1679,-122.05C1679,-136.37 1679,-154 1679,-154 1679,-154 1914.09,-154 1914.09,-154"/>
<polygon fill="black" stroke="black" points="1914.09,-157.5 1924.09,-154 1914.09,-150.5 1914.09,-157.5"/>
</g>
<!-- OpenGraphProxyService -->
<g id="node25" class="node">
<title>OpenGraphProxyService</title>
<ellipse fill="#fdb462" stroke="black" cx="1494" cy="-104" rx="108.21" ry="18"/>
<text text-anchor="middle" x="1494" y="-99.8" font-family="Times,serif" font-size="14.00">OpenGraphProxyService</text>
</g>
<!-- OpenGraphProxyService&#45;&gt;BoardModule -->
<g id="edge24" class="edge">
<title>OpenGraphProxyService&#45;&gt;BoardModule</title>
<path fill="none" stroke="black" d="M1594.67,-110.93C1594.67,-125.3 1594.67,-157 1594.67,-157 1594.67,-157 1914.1,-157 1914.1,-157"/>
<polygon fill="black" stroke="black" points="1914.1,-160.5 1924.1,-157 1914.1,-153.5 1914.1,-160.5"/>
</g>
<!-- RecursiveDeleteVisitor -->
<g id="node26" class="node">
<title>RecursiveDeleteVisitor</title>
<ellipse fill="#fdb462" stroke="black" cx="1266" cy="-104" rx="101.84" ry="18"/>
<text text-anchor="middle" x="1266" y="-99.8" font-family="Times,serif" font-size="14.00">RecursiveDeleteVisitor</text>
</g>
<!-- RecursiveDeleteVisitor&#45;&gt;BoardModule -->
<g id="edge25" class="edge">
<title>RecursiveDeleteVisitor&#45;&gt;BoardModule</title>
<path fill="none" stroke="black" d="M1266,-122.03C1266,-138.4 1266,-160 1266,-160 1266,-160 1914.2,-160 1914.2,-160"/>
<polygon fill="black" stroke="black" points="1914.2,-163.5 1924.2,-160 1914.2,-156.5 1914.2,-163.5"/>
</g>
<!-- SchoolSpecificFileCopyServiceFactory -->
<g id="node27" class="node">
<title>SchoolSpecificFileCopyServiceFactory</title>
<ellipse fill="#fdb462" stroke="black" cx="982" cy="-104" rx="163.8" ry="18"/>
<text text-anchor="middle" x="982" y="-99.8" font-family="Times,serif" font-size="14.00">SchoolSpecificFileCopyServiceFactory</text>
</g>
<!-- SchoolSpecificFileCopyServiceFactory&#45;&gt;BoardModule -->
<g id="edge26" class="edge">
<title>SchoolSpecificFileCopyServiceFactory&#45;&gt;BoardModule</title>
<path fill="none" stroke="black" d="M982,-122.02C982,-139.37 982,-163 982,-163 982,-163 1913.96,-163 1913.96,-163"/>
<polygon fill="black" stroke="black" points="1913.96,-166.5 1923.96,-163 1913.96,-159.5 1913.96,-166.5"/>
</g>
<!-- SubmissionItemService -->
<g id="node28" class="node">
<title>SubmissionItemService</title>
<ellipse fill="#fdb462" stroke="black" cx="697" cy="-104" rx="102.52" ry="18"/>
<text text-anchor="middle" x="697" y="-99.8" font-family="Times,serif" font-size="14.00">SubmissionItemService</text>
</g>
<!-- SubmissionItemService&#45;&gt;BoardModule -->
<g id="edge27" class="edge">
<title>SubmissionItemService&#45;&gt;BoardModule</title>
<path fill="none" stroke="black" d="M697,-122.3C697,-140.27 697,-165 697,-165 697,-165 1914.15,-165 1914.15,-165"/>
<polygon fill="black" stroke="black" points="1914.15,-168.5 1924.15,-165 1914.15,-161.5 1914.15,-168.5"/>
</g>
</g>
</svg>
