<?xml version="1.0" encoding="UTF-8" standalone="no"?>
<!DOCTYPE svg PUBLIC "-//W3C//DTD SVG 1.1//EN"
 "http://www.w3.org/Graphics/SVG/1.1/DTD/svg11.dtd">
<!-- Generated by graphviz version 2.47.0 (20210316.0004)
 -->
<!-- Title: dependencies Pages: 1 -->
<svg width="3940pt" height="284pt"
 viewBox="0.00 0.00 3940.00 284.00" xmlns="http://www.w3.org/2000/svg" xmlns:xlink="http://www.w3.org/1999/xlink">
<g id="graph0" class="graph" transform="scale(1 1) rotate(0) translate(4 280)">
<title>dependencies</title>
<polygon fill="white" stroke="transparent" points="-4,4 -4,-280 3936,-280 3936,4 -4,4"/>
<text text-anchor="start" x="1945.01" y="-42.4" font-family="Times-12" font-weight="bold" font-size="14.00">Legend</text>
<polygon fill="#ffffb3" stroke="transparent" points="1732,-10 1732,-30 1752,-30 1752,-10 1732,-10"/>
<text text-anchor="start" x="1755.63" y="-15.4" font-family="Times-12" font-size="14.00"> &#160;Declarations</text>
<polygon fill="#8dd3c7" stroke="transparent" points="1845,-10 1845,-30 1865,-30 1865,-10 1845,-10"/>
<text text-anchor="start" x="1868.73" y="-15.4" font-family="Times-12" font-size="14.00"> &#160;Module</text>
<polygon fill="#80b1d3" stroke="transparent" points="1931,-10 1931,-30 1951,-30 1951,-10 1931,-10"/>
<text text-anchor="start" x="1954.78" y="-15.4" font-family="Times-12" font-size="14.00"> &#160;Bootstrap</text>
<polygon fill="#fdb462" stroke="transparent" points="2028,-10 2028,-30 2048,-30 2048,-10 2028,-10"/>
<text text-anchor="start" x="2051.67" y="-15.4" font-family="Times-12" font-size="14.00"> &#160;Providers</text>
<polygon fill="#fb8072" stroke="transparent" points="2124,-10 2124,-30 2144,-30 2144,-10 2124,-10"/>
<text text-anchor="start" x="2147.73" y="-15.4" font-family="Times-12" font-size="14.00"> &#160;Exports</text>
<g id="clust1" class="cluster">
<title>cluster_BoardModule</title>
<polygon fill="none" stroke="black" stroke-dasharray="1,5" points="8,-70 8,-268 3924,-268 3924,-70 8,-70"/>
</g>
<g id="clust3" class="cluster">
<title>cluster_BoardModule_imports</title>
<polygon fill="none" stroke="black" points="3354,-78 3354,-130 3916,-130 3916,-78 3354,-78"/>
</g>
<g id="clust6" class="cluster">
<title>cluster_BoardModule_providers</title>
<polygon fill="none" stroke="black" points="16,-78 16,-130 3346,-130 3346,-78 16,-78"/>
</g>
<g id="clust4" class="cluster">
<title>cluster_BoardModule_exports</title>
<polygon fill="none" stroke="black" points="1669,-208 1669,-260 2791,-260 2791,-208 1669,-208"/>
</g>
<!-- ConsoleWriterModule -->
<g id="node1" class="node">
<title>ConsoleWriterModule</title>
<polygon fill="#8dd3c7" stroke="black" points="3907.97,-122 3904.97,-126 3883.97,-126 3880.97,-122 3766.03,-122 3766.03,-86 3907.97,-86 3907.97,-122"/>
<text text-anchor="middle" x="3837" y="-99.8" font-family="Times,serif" font-size="14.00">ConsoleWriterModule</text>
</g>
<!-- BoardModule -->
<g id="node5" class="node">
<title>BoardModule</title>
<polygon fill="#8dd3c7" stroke="black" points="2259.76,-187 2256.76,-191 2235.76,-191 2232.76,-187 2166.24,-187 2166.24,-151 2259.76,-151 2259.76,-187"/>
<text text-anchor="middle" x="2213" y="-164.8" font-family="Times,serif" font-size="14.00">BoardModule</text>
</g>
<!-- ConsoleWriterModule&#45;&gt;BoardModule -->
<g id="edge1" class="edge">
<title>ConsoleWriterModule&#45;&gt;BoardModule</title>
<path fill="none" stroke="black" d="M3837,-122.17C3837,-143.5 3837,-176 3837,-176 3837,-176 2269.85,-176 2269.85,-176"/>
<polygon fill="black" stroke="black" points="2269.85,-172.5 2259.85,-176 2269.85,-179.5 2269.85,-172.5"/>
</g>
<!-- FilesStorageClientModule -->
<g id="node2" class="node">
<title>FilesStorageClientModule</title>
<polygon fill="#8dd3c7" stroke="black" points="3747.76,-122 3744.76,-126 3723.76,-126 3720.76,-122 3584.24,-122 3584.24,-86 3747.76,-86 3747.76,-122"/>
<text text-anchor="middle" x="3666" y="-99.8" font-family="Times,serif" font-size="14.00">FilesStorageClientModule</text>
</g>
<!-- FilesStorageClientModule&#45;&gt;BoardModule -->
<g id="edge2" class="edge">
<title>FilesStorageClientModule&#45;&gt;BoardModule</title>
<path fill="none" stroke="black" d="M3666,-122.03C3666,-142.77 3666,-174 3666,-174 3666,-174 2270.11,-174 2270.11,-174"/>
<polygon fill="black" stroke="black" points="2270.11,-170.5 2260.11,-174 2270.11,-177.5 2270.11,-170.5"/>
</g>
<!-- LoggerModule -->
<g id="node3" class="node">
<title>LoggerModule</title>
<polygon fill="#8dd3c7" stroke="black" points="3565.98,-122 3562.98,-126 3541.98,-126 3538.98,-122 3466.02,-122 3466.02,-86 3565.98,-86 3565.98,-122"/>
<text text-anchor="middle" x="3516" y="-99.8" font-family="Times,serif" font-size="14.00">LoggerModule</text>
</g>
<!-- LoggerModule&#45;&gt;BoardModule -->
<g id="edge3" class="edge">
<title>LoggerModule&#45;&gt;BoardModule</title>
<path fill="none" stroke="black" d="M3516,-122.31C3516,-142.15 3516,-171 3516,-171 3516,-171 2270.14,-171 2270.14,-171"/>
<polygon fill="black" stroke="black" points="2270.14,-167.5 2260.14,-171 2270.14,-174.5 2270.14,-167.5"/>
</g>
<!-- UserModule -->
<g id="node4" class="node">
<title>UserModule</title>
<polygon fill="#8dd3c7" stroke="black" points="3447.98,-122 3444.98,-126 3423.98,-126 3420.98,-122 3362.02,-122 3362.02,-86 3447.98,-86 3447.98,-122"/>
<text text-anchor="middle" x="3405" y="-99.8" font-family="Times,serif" font-size="14.00">UserModule</text>
</g>
<!-- UserModule&#45;&gt;BoardModule -->
<g id="edge4" class="edge">
<title>UserModule&#45;&gt;BoardModule</title>
<path fill="none" stroke="black" d="M3405,-122.17C3405,-141.09 3405,-168 3405,-168 3405,-168 2270.09,-168 2270.09,-168"/>
<polygon fill="black" stroke="black" points="2270.09,-164.5 2260.09,-168 2270.09,-171.5 2270.09,-164.5"/>
</g>
<!-- BoardDoAuthorizableService  -->
<g id="node6" class="node">
<title>BoardDoAuthorizableService </title>
<polygon fill="#fb8072" stroke="black" points="2782.88,-252 2597.12,-252 2597.12,-216 2782.88,-216 2782.88,-252"/>
<text text-anchor="middle" x="2690" y="-229.8" font-family="Times,serif" font-size="14.00">BoardDoAuthorizableService </text>
</g>
<!-- BoardModule&#45;&gt;BoardDoAuthorizableService  -->
<g id="edge5" class="edge">
<title>BoardModule&#45;&gt;BoardDoAuthorizableService </title>
<path fill="none" stroke="black" stroke-dasharray="5,2" d="M2259.95,-179C2373.13,-179 2651.73,-179 2651.73,-179 2651.73,-179 2651.73,-205.99 2651.73,-205.99"/>
<polygon fill="black" stroke="black" points="2648.23,-205.99 2651.73,-215.99 2655.23,-205.99 2648.23,-205.99"/>
</g>
<!-- CardService  -->
<g id="node7" class="node">
<title>CardService </title>
<polygon fill="#fb8072" stroke="black" points="2579.19,-252 2490.81,-252 2490.81,-216 2579.19,-216 2579.19,-252"/>
<text text-anchor="middle" x="2535" y="-229.8" font-family="Times,serif" font-size="14.00">CardService </text>
</g>
<!-- BoardModule&#45;&gt;CardService  -->
<g id="edge6" class="edge">
<title>BoardModule&#45;&gt;CardService </title>
<path fill="none" stroke="black" stroke-dasharray="5,2" d="M2260.08,-182C2344.82,-182 2514.29,-182 2514.29,-182 2514.29,-182 2514.29,-205.81 2514.29,-205.81"/>
<polygon fill="black" stroke="black" points="2510.79,-205.81 2514.29,-215.81 2517.79,-205.81 2510.79,-205.81"/>
</g>
<!-- ColumnBoardCopyService  -->
<g id="node8" class="node">
<title>ColumnBoardCopyService </title>
<polygon fill="#fb8072" stroke="black" points="2472.64,-252 2301.36,-252 2301.36,-216 2472.64,-216 2472.64,-252"/>
<text text-anchor="middle" x="2387" y="-229.8" font-family="Times,serif" font-size="14.00">ColumnBoardCopyService </text>
</g>
<!-- BoardModule&#45;&gt;ColumnBoardCopyService  -->
<g id="edge7" class="edge">
<title>BoardModule&#45;&gt;ColumnBoardCopyService </title>
<path fill="none" stroke="black" stroke-dasharray="5,2" d="M2260.01,-185C2294.23,-185 2334.6,-185 2334.6,-185 2334.6,-185 2334.6,-205.75 2334.6,-205.75"/>
<polygon fill="black" stroke="black" points="2331.1,-205.75 2334.6,-215.75 2338.1,-205.75 2331.1,-205.75"/>
</g>
<!-- ColumnBoardService  -->
<g id="node9" class="node">
<title>ColumnBoardService </title>
<polygon fill="#fb8072" stroke="black" points="2283.31,-252 2142.69,-252 2142.69,-216 2283.31,-216 2283.31,-252"/>
<text text-anchor="middle" x="2213" y="-229.8" font-family="Times,serif" font-size="14.00">ColumnBoardService </text>
</g>
<!-- BoardModule&#45;&gt;ColumnBoardService  -->
<g id="edge8" class="edge">
<title>BoardModule&#45;&gt;ColumnBoardService </title>
<path fill="none" stroke="black" stroke-dasharray="5,2" d="M2213,-187.11C2213,-187.11 2213,-205.99 2213,-205.99"/>
<polygon fill="black" stroke="black" points="2209.5,-205.99 2213,-215.99 2216.5,-205.99 2209.5,-205.99"/>
</g>
<!-- ColumnService  -->
<g id="node10" class="node">
<title>ColumnService </title>
<polygon fill="#fb8072" stroke="black" points="2124.1,-252 2017.9,-252 2017.9,-216 2124.1,-216 2124.1,-252"/>
<text text-anchor="middle" x="2071" y="-229.8" font-family="Times,serif" font-size="14.00">ColumnService </text>
</g>
<!-- BoardModule&#45;&gt;ColumnService  -->
<g id="edge9" class="edge">
<title>BoardModule&#45;&gt;ColumnService </title>
<path fill="none" stroke="black" stroke-dasharray="5,2" d="M2166.11,-185C2124.75,-185 2071,-185 2071,-185 2071,-185 2071,-205.75 2071,-205.75"/>
<polygon fill="black" stroke="black" points="2067.5,-205.75 2071,-215.75 2074.5,-205.75 2067.5,-205.75"/>
</g>
<!-- ContentElementService  -->
<g id="node11" class="node">
<title>ContentElementService </title>
<polygon fill="#fb8072" stroke="black" points="1999.46,-252 1846.54,-252 1846.54,-216 1999.46,-216 1999.46,-252"/>
<text text-anchor="middle" x="1923" y="-229.8" font-family="Times,serif" font-size="14.00">ContentElementService </text>
</g>
<!-- BoardModule&#45;&gt;ContentElementService  -->
<g id="edge10" class="edge">
<title>BoardModule&#45;&gt;ContentElementService </title>
<path fill="none" stroke="black" stroke-dasharray="5,2" d="M2166.02,-182C2100.99,-182 1991.47,-182 1991.47,-182 1991.47,-182 1991.47,-205.81 1991.47,-205.81"/>
<polygon fill="black" stroke="black" points="1987.97,-205.81 1991.47,-215.81 1994.97,-205.81 1987.97,-205.81"/>
</g>
<!-- SubmissionItemService  -->
<g id="node12" class="node">
<title>SubmissionItemService </title>
<polygon fill="#fb8072" stroke="black" points="1829.48,-252 1676.52,-252 1676.52,-216 1829.48,-216 1829.48,-252"/>
<text text-anchor="middle" x="1753" y="-229.8" font-family="Times,serif" font-size="14.00">SubmissionItemService </text>
</g>
<!-- BoardModule&#45;&gt;SubmissionItemService  -->
<g id="edge11" class="edge">
<title>BoardModule&#45;&gt;SubmissionItemService </title>
<path fill="none" stroke="black" stroke-dasharray="5,2" d="M2166.19,-179C2060.35,-179 1811.76,-179 1811.76,-179 1811.76,-179 1811.76,-205.99 1811.76,-205.99"/>
<polygon fill="black" stroke="black" points="1808.26,-205.99 1811.76,-215.99 1815.26,-205.99 1808.26,-205.99"/>
</g>
<!-- BoardDoAuthorizableService -->
<g id="node13" class="node">
<title>BoardDoAuthorizableService</title>
<ellipse fill="#fdb462" stroke="black" cx="3212" cy="-104" rx="125.6" ry="18"/>
<text text-anchor="middle" x="3212" y="-99.8" font-family="Times,serif" font-size="14.00">BoardDoAuthorizableService</text>
</g>
<!-- BoardDoAuthorizableService&#45;&gt;BoardModule -->
<g id="edge12" class="edge">
<title>BoardDoAuthorizableService&#45;&gt;BoardModule</title>
<path fill="none" stroke="black" d="M3212,-122.3C3212,-140.27 3212,-165 3212,-165 3212,-165 2269.84,-165 2269.84,-165"/>
<polygon fill="black" stroke="black" points="2269.84,-161.5 2259.84,-165 2269.84,-168.5 2269.84,-161.5"/>
</g>
<!-- BoardDoCopyService -->
<g id="node14" class="node">
<title>BoardDoCopyService</title>
<ellipse fill="#fdb462" stroke="black" cx="2972" cy="-104" rx="96.13" ry="18"/>
<text text-anchor="middle" x="2972" y="-99.8" font-family="Times,serif" font-size="14.00">BoardDoCopyService</text>
</g>
<!-- BoardDoCopyService&#45;&gt;BoardModule -->
<g id="edge13" class="edge">
<title>BoardDoCopyService&#45;&gt;BoardModule</title>
<path fill="none" stroke="black" d="M2972,-122.02C2972,-139.37 2972,-163 2972,-163 2972,-163 2269.91,-163 2269.91,-163"/>
<polygon fill="black" stroke="black" points="2269.91,-159.5 2259.91,-163 2269.91,-166.5 2269.91,-159.5"/>
</g>
<!-- BoardDoRepo -->
<g id="node15" class="node">
<title>BoardDoRepo</title>
<ellipse fill="#fdb462" stroke="black" cx="2791" cy="-104" rx="66.64" ry="18"/>
<text text-anchor="middle" x="2791" y="-99.8" font-family="Times,serif" font-size="14.00">BoardDoRepo</text>
</g>
<!-- BoardDoRepo&#45;&gt;BoardModule -->
<g id="edge14" class="edge">
<title>BoardDoRepo&#45;&gt;BoardModule</title>
<path fill="none" stroke="black" d="M2753.56,-119.01C2753.56,-135.59 2753.56,-160 2753.56,-160 2753.56,-160 2270.03,-160 2270.03,-160"/>
<polygon fill="black" stroke="black" points="2270.03,-156.5 2260.03,-160 2270.03,-163.5 2270.03,-156.5"/>
</g>
<!-- BoardDoService -->
<g id="node16" class="node">
<title>BoardDoService</title>
<ellipse fill="#fdb462" stroke="black" cx="2631" cy="-104" rx="75.28" ry="18"/>
<text text-anchor="middle" x="2631" y="-99.8" font-family="Times,serif" font-size="14.00">BoardDoService</text>
</g>
<!-- BoardDoService&#45;&gt;BoardModule -->
<g id="edge15" class="edge">
<title>BoardDoService&#45;&gt;BoardModule</title>
<path fill="none" stroke="black" d="M2567.48,-113.72C2567.48,-129.02 2567.48,-157 2567.48,-157 2567.48,-157 2270.07,-157 2270.07,-157"/>
<polygon fill="black" stroke="black" points="2270.07,-153.5 2260.07,-157 2270.07,-160.5 2270.07,-153.5"/>
</g>
<!-- BoardNodeRepo -->
<g id="node17" class="node">
<title>BoardNodeRepo</title>
<ellipse fill="#fdb462" stroke="black" cx="2462" cy="-104" rx="75.87" ry="18"/>
<text text-anchor="middle" x="2462" y="-99.8" font-family="Times,serif" font-size="14.00">BoardNodeRepo</text>
</g>
<!-- BoardNodeRepo&#45;&gt;BoardModule -->
<g id="edge16" class="edge">
<title>BoardNodeRepo&#45;&gt;BoardModule</title>
<path fill="none" stroke="black" d="M2429.32,-120.37C2429.32,-134.95 2429.32,-154 2429.32,-154 2429.32,-154 2269.94,-154 2269.94,-154"/>
<polygon fill="black" stroke="black" points="2269.94,-150.5 2259.94,-154 2269.94,-157.5 2269.94,-150.5"/>
</g>
<!-- CardService -->
<g id="node18" class="node">
<title>CardService</title>
<ellipse fill="#fdb462" stroke="black" cx="2309" cy="-104" rx="58.53" ry="18"/>
<text text-anchor="middle" x="2309" y="-99.8" font-family="Times,serif" font-size="14.00">CardService</text>
</g>
<!-- CardService&#45;&gt;BoardModule -->
<g id="edge17" class="edge">
<title>CardService&#45;&gt;BoardModule</title>
<path fill="none" stroke="black" d="M2255.06,-111.2C2255.06,-111.2 2255.06,-140.96 2255.06,-140.96"/>
<polygon fill="black" stroke="black" points="2251.56,-140.96 2255.06,-150.96 2258.56,-140.96 2251.56,-140.96"/>
</g>
<!-- ColumnBoardCopyService -->
<g id="node19" class="node">
<title>ColumnBoardCopyService</title>
<ellipse fill="#fdb462" stroke="black" cx="2117" cy="-104" rx="115.78" ry="18"/>
<text text-anchor="middle" x="2117" y="-99.8" font-family="Times,serif" font-size="14.00">ColumnBoardCopyService</text>
</g>
<!-- ColumnBoardCopyService&#45;&gt;BoardModule -->
<g id="edge18" class="edge">
<title>ColumnBoardCopyService&#45;&gt;BoardModule</title>
<path fill="none" stroke="black" d="M2199.38,-116.84C2199.38,-116.84 2199.38,-140.52 2199.38,-140.52"/>
<polygon fill="black" stroke="black" points="2195.88,-140.52 2199.38,-150.52 2202.88,-140.52 2195.88,-140.52"/>
</g>
<!-- ColumnBoardService -->
<g id="node20" class="node">
<title>ColumnBoardService</title>
<ellipse fill="#fdb462" stroke="black" cx="1889" cy="-104" rx="94.92" ry="18"/>
<text text-anchor="middle" x="1889" y="-99.8" font-family="Times,serif" font-size="14.00">ColumnBoardService</text>
</g>
<!-- ColumnBoardService&#45;&gt;BoardModule -->
<g id="edge19" class="edge">
<title>ColumnBoardService&#45;&gt;BoardModule</title>
<path fill="none" stroke="black" d="M1915.24,-121.49C1915.24,-135.91 1915.24,-154 1915.24,-154 1915.24,-154 2156.15,-154 2156.15,-154"/>
<polygon fill="black" stroke="black" points="2156.15,-157.5 2166.15,-154 2156.15,-150.5 2156.15,-157.5"/>
</g>
<!-- ColumnService -->
<g id="node21" class="node">
<title>ColumnService</title>
<ellipse fill="#fdb462" stroke="black" cx="1705" cy="-104" rx="71.23" ry="18"/>
<text text-anchor="middle" x="1705" y="-99.8" font-family="Times,serif" font-size="14.00">ColumnService</text>
</g>
<!-- ColumnService&#45;&gt;BoardModule -->
<g id="edge20" class="edge">
<title>ColumnService&#45;&gt;BoardModule</title>
<path fill="none" stroke="black" d="M1726.44,-121.35C1726.44,-136.81 1726.44,-157 1726.44,-157 1726.44,-157 2155.9,-157 2155.9,-157"/>
<polygon fill="black" stroke="black" points="2155.9,-160.5 2165.9,-157 2155.9,-153.5 2155.9,-160.5"/>
</g>
<!-- ContentElementFactory -->
<g id="node22" class="node">
<title>ContentElementFactory</title>
<ellipse fill="#fdb462" stroke="black" cx="1513" cy="-104" rx="103.09" ry="18"/>
<text text-anchor="middle" x="1513" y="-99.8" font-family="Times,serif" font-size="14.00">ContentElementFactory</text>
</g>
<!-- ContentElementFactory&#45;&gt;BoardModule -->
<g id="edge21" class="edge">
<title>ContentElementFactory&#45;&gt;BoardModule</title>
<path fill="none" stroke="black" d="M1513,-122.03C1513,-138.4 1513,-160 1513,-160 1513,-160 2155.98,-160 2155.98,-160"/>
<polygon fill="black" stroke="black" points="2155.98,-163.5 2165.98,-160 2155.98,-156.5 2155.98,-163.5"/>
</g>
<!-- ContentElementService -->
<g id="node23" class="node">
<title>ContentElementService</title>
<ellipse fill="#fdb462" stroke="black" cx="1289" cy="-104" rx="102.51" ry="18"/>
<text text-anchor="middle" x="1289" y="-99.8" font-family="Times,serif" font-size="14.00">ContentElementService</text>
</g>
<!-- ContentElementService&#45;&gt;BoardModule -->
<g id="edge22" class="edge">
<title>ContentElementService&#45;&gt;BoardModule</title>
<path fill="none" stroke="black" d="M1289,-122.02C1289,-139.37 1289,-163 1289,-163 1289,-163 2156.23,-163 2156.23,-163"/>
<polygon fill="black" stroke="black" points="2156.23,-166.5 2166.23,-163 2156.23,-159.5 2156.23,-166.5"/>
</g>
<!-- CourseRepo -->
<g id="node24" class="node">
<title>CourseRepo</title>
<ellipse fill="#fdb462" stroke="black" cx="1109" cy="-104" rx="58.55" ry="18"/>
<text text-anchor="middle" x="1109" y="-99.8" font-family="Times,serif" font-size="14.00">CourseRepo</text>
</g>
<!-- CourseRepo&#45;&gt;BoardModule -->
<g id="edge23" class="edge">
<title>CourseRepo&#45;&gt;BoardModule</title>
<path fill="none" stroke="black" d="M1109,-122.3C1109,-140.27 1109,-165 1109,-165 1109,-165 2155.92,-165 2155.92,-165"/>
<polygon fill="black" stroke="black" points="2155.92,-168.5 2165.92,-165 2155.92,-161.5 2155.92,-168.5"/>
</g>
<!-- OpenGraphProxyService -->
<g id="node25" class="node">
<title>OpenGraphProxyService</title>
<ellipse fill="#fdb462" stroke="black" cx="924" cy="-104" rx="108.21" ry="18"/>
<text text-anchor="middle" x="924" y="-99.8" font-family="Times,serif" font-size="14.00">OpenGraphProxyService</text>
</g>
<!-- OpenGraphProxyService&#45;&gt;BoardModule -->
<g id="edge24" class="edge">
<title>OpenGraphProxyService&#45;&gt;BoardModule</title>
<path fill="none" stroke="black" d="M924,-122.17C924,-141.09 924,-168 924,-168 924,-168 2155.98,-168 2155.98,-168"/>
<polygon fill="black" stroke="black" points="2155.98,-171.5 2165.98,-168 2155.98,-164.5 2155.98,-171.5"/>
</g>
<!-- RecursiveDeleteVisitor -->
<g id="node26" class="node">
<title>RecursiveDeleteVisitor</title>
<ellipse fill="#fdb462" stroke="black" cx="696" cy="-104" rx="101.84" ry="18"/>
<text text-anchor="middle" x="696" y="-99.8" font-family="Times,serif" font-size="14.00">RecursiveDeleteVisitor</text>
</g>
<!-- RecursiveDeleteVisitor&#45;&gt;BoardModule -->
<g id="edge25" class="edge">
<title>RecursiveDeleteVisitor&#45;&gt;BoardModule</title>
<path fill="none" stroke="black" d="M696,-122.31C696,-142.15 696,-171 696,-171 696,-171 2155.94,-171 2155.94,-171"/>
<polygon fill="black" stroke="black" points="2155.94,-174.5 2165.94,-171 2155.94,-167.5 2155.94,-174.5"/>
</g>
<!-- SchoolSpecificFileCopyServiceFactory -->
<g id="node27" class="node">
<title>SchoolSpecificFileCopyServiceFactory</title>
<ellipse fill="#fdb462" stroke="black" cx="412" cy="-104" rx="163.8" ry="18"/>
<text text-anchor="middle" x="412" y="-99.8" font-family="Times,serif" font-size="14.00">SchoolSpecificFileCopyServiceFactory</text>
</g>
<!-- SchoolSpecificFileCopyServiceFactory&#45;&gt;BoardModule -->
<g id="edge26" class="edge">
<title>SchoolSpecificFileCopyServiceFactory&#45;&gt;BoardModule</title>
<path fill="none" stroke="black" d="M412,-122.03C412,-142.77 412,-174 412,-174 412,-174 2156.21,-174 2156.21,-174"/>
<polygon fill="black" stroke="black" points="2156.21,-177.5 2166.21,-174 2156.21,-170.5 2156.21,-177.5"/>
</g>
<!-- SubmissionItemService -->
<g id="node28" class="node">
<title>SubmissionItemService</title>
<ellipse fill="#fdb462" stroke="black" cx="127" cy="-104" rx="102.52" ry="18"/>
<text text-anchor="middle" x="127" y="-99.8" font-family="Times,serif" font-size="14.00">SubmissionItemService</text>
</g>
<!-- SubmissionItemService&#45;&gt;BoardModule -->
<g id="edge27" class="edge">
<title>SubmissionItemService&#45;&gt;BoardModule</title>
<path fill="none" stroke="black" d="M127,-122.17C127,-143.5 127,-176 127,-176 127,-176 2156.01,-176 2156.01,-176"/>
<polygon fill="black" stroke="black" points="2156.01,-179.5 2166.01,-176 2156.01,-172.5 2156.01,-179.5"/>
</g>
</g>
</svg>
