<?xml version="1.0" encoding="UTF-8" standalone="no"?>
<!DOCTYPE svg PUBLIC "-//W3C//DTD SVG 1.1//EN"
 "http://www.w3.org/Graphics/SVG/1.1/DTD/svg11.dtd">
<!-- Generated by graphviz version 5.0.0 (20220707.1540)
 -->
<!-- Title: dependencies Pages: 1 -->
<svg width="1750pt" height="247pt"
 viewBox="0.00 0.00 1750.00 246.80" xmlns="http://www.w3.org/2000/svg" xmlns:xlink="http://www.w3.org/1999/xlink">
<g id="graph0" class="graph" transform="scale(1 1) rotate(0) translate(4 242.8)">
<title>dependencies</title>
<polygon fill="white" stroke="transparent" points="-4,4 -4,-242.8 1746,-242.8 1746,4 -4,4"/>
<text text-anchor="middle" x="871" y="-8.2" font-family="sans-serif" font-size="14.00">dependencies</text>
<g id="clust1" class="cluster">
<title>cluster_BoardModule</title>
<polygon fill="none" stroke="black" stroke-dasharray="1,5" points="8,-32.8 8,-230.8 1734,-230.8 1734,-32.8 8,-32.8"/>
</g>
<g id="clust6" class="cluster">
<title>cluster_BoardModule_providers</title>
<polygon fill="none" stroke="black" points="300,-40.8 300,-92.8 1726,-92.8 1726,-40.8 300,-40.8"/>
</g>
<g id="clust4" class="cluster">
<title>cluster_BoardModule_exports</title>
<polygon fill="none" stroke="black" points="569,-170.8 569,-222.8 1128,-222.8 1128,-170.8 569,-170.8"/>
</g>
<g id="clust3" class="cluster">
<title>cluster_BoardModule_imports</title>
<polygon fill="none" stroke="black" points="16,-40.8 16,-92.8 292,-92.8 292,-40.8 16,-40.8"/>
</g>
<!-- ConsoleWriterModule -->
<g id="node1" class="node">
<title>ConsoleWriterModule</title>
<polygon fill="#8dd3c7" stroke="black" points="283.97,-84.8 280.97,-88.8 259.97,-88.8 256.97,-84.8 142.03,-84.8 142.03,-48.8 283.97,-48.8 283.97,-84.8"/>
<text text-anchor="middle" x="213" y="-62.6" font-family="Times,serif" font-size="14.00">ConsoleWriterModule</text>
</g>
<!-- BoardModule -->
<g id="node3" class="node">
<title>BoardModule</title>
<polygon fill="#8dd3c7" stroke="black" points="918.77,-149.8 915.77,-153.8 894.77,-153.8 891.77,-149.8 825.23,-149.8 825.23,-113.8 918.77,-113.8 918.77,-149.8"/>
<text text-anchor="middle" x="872" y="-127.6" font-family="Times,serif" font-size="14.00">BoardModule</text>
</g>
<!-- ConsoleWriterModule&#45;&gt;BoardModule -->
<g id="edge1" class="edge">
<title>ConsoleWriterModule&#45;&gt;BoardModule</title>
<path fill="none" stroke="black" d="M213,-84.91C213,-104.14 213,-131.8 213,-131.8 213,-131.8 815.13,-131.8 815.13,-131.8"/>
<polygon fill="black" stroke="black" points="815.13,-135.3 825.13,-131.8 815.13,-128.3 815.13,-135.3"/>
</g>
<!-- LoggerModule -->
<g id="node2" class="node">
<title>LoggerModule</title>
<polygon fill="#8dd3c7" stroke="black" points="123.98,-84.8 120.98,-88.8 99.98,-88.8 96.98,-84.8 24.02,-84.8 24.02,-48.8 123.98,-48.8 123.98,-84.8"/>
<text text-anchor="middle" x="74" y="-62.6" font-family="Times,serif" font-size="14.00">LoggerModule</text>
</g>
<!-- LoggerModule&#45;&gt;BoardModule -->
<g id="edge2" class="edge">
<title>LoggerModule&#45;&gt;BoardModule</title>
<path fill="none" stroke="black" d="M74,-85.08C74,-106.12 74,-137.8 74,-137.8 74,-137.8 815.06,-137.8 815.06,-137.8"/>
<polygon fill="black" stroke="black" points="815.06,-141.3 825.06,-137.8 815.06,-134.3 815.06,-141.3"/>
</g>
<!-- CardService  -->
<g id="node4" class="node">
<title>CardService </title>
<polygon fill="#fb8072" stroke="black" points="1120.19,-214.8 1031.81,-214.8 1031.81,-178.8 1120.19,-178.8 1120.19,-214.8"/>
<text text-anchor="middle" x="1076" y="-192.6" font-family="Times,serif" font-size="14.00">CardService </text>
</g>
<!-- BoardModule&#45;&gt;CardService  -->
<g id="edge3" class="edge">
<title>BoardModule&#45;&gt;CardService </title>
<path fill="none" stroke="black" stroke-dasharray="5,2" d="M918.91,-143.8C983.5,-143.8 1091.92,-143.8 1091.92,-143.8 1091.92,-143.8 1091.92,-168.56 1091.92,-168.56"/>
<polygon fill="black" stroke="black" points="1088.42,-168.56 1091.92,-178.56 1095.42,-168.56 1088.42,-168.56"/>
</g>
<!-- ColumnBoardService  -->
<g id="node5" class="node">
<title>ColumnBoardService </title>
<polygon fill="#fb8072" stroke="black" points="1013.31,-214.8 872.69,-214.8 872.69,-178.8 1013.31,-178.8 1013.31,-214.8"/>
<text text-anchor="middle" x="943" y="-192.6" font-family="Times,serif" font-size="14.00">ColumnBoardService </text>
</g>
<!-- BoardModule&#45;&gt;ColumnBoardService  -->
<g id="edge4" class="edge">
<title>BoardModule&#45;&gt;ColumnBoardService </title>
<path fill="none" stroke="black" stroke-dasharray="5,2" d="M895.74,-149.91C895.74,-149.91 895.74,-168.79 895.74,-168.79"/>
<polygon fill="black" stroke="black" points="892.24,-168.79 895.74,-178.79 899.24,-168.79 892.24,-168.79"/>
</g>
<!-- ColumnService  -->
<g id="node6" class="node">
<title>ColumnService </title>
<polygon fill="#fb8072" stroke="black" points="854.1,-214.8 747.9,-214.8 747.9,-178.8 854.1,-178.8 854.1,-214.8"/>
<text text-anchor="middle" x="801" y="-192.6" font-family="Times,serif" font-size="14.00">ColumnService </text>
</g>
<!-- BoardModule&#45;&gt;ColumnService  -->
<g id="edge5" class="edge">
<title>BoardModule&#45;&gt;ColumnService </title>
<path fill="none" stroke="black" stroke-dasharray="5,2" d="M839.71,-149.91C839.71,-149.91 839.71,-168.79 839.71,-168.79"/>
<polygon fill="black" stroke="black" points="836.21,-168.79 839.71,-178.79 843.21,-168.79 836.21,-168.79"/>
</g>
<!-- ContentElementService  -->
<g id="node7" class="node">
<title>ContentElementService </title>
<polygon fill="#fb8072" stroke="black" points="729.46,-214.8 576.54,-214.8 576.54,-178.8 729.46,-178.8 729.46,-214.8"/>
<text text-anchor="middle" x="653" y="-192.6" font-family="Times,serif" font-size="14.00">ContentElementService </text>
</g>
<!-- BoardModule&#45;&gt;ContentElementService  -->
<g id="edge6" class="edge">
<title>BoardModule&#45;&gt;ContentElementService </title>
<path fill="none" stroke="black" stroke-dasharray="5,2" d="M824.93,-143.8C777.34,-143.8 710.76,-143.8 710.76,-143.8 710.76,-143.8 710.76,-168.56 710.76,-168.56"/>
<polygon fill="black" stroke="black" points="707.26,-168.56 710.76,-178.56 714.26,-168.56 707.26,-168.56"/>
</g>
<!-- BoardDoRepo -->
<g id="node8" class="node">
<title>BoardDoRepo</title>
<ellipse fill="#fdb462" stroke="black" cx="1651" cy="-66.8" rx="66.65" ry="18"/>
<text text-anchor="middle" x="1651" y="-62.6" font-family="Times,serif" font-size="14.00">BoardDoRepo</text>
</g>
<!-- BoardDoRepo&#45;&gt;BoardModule -->
<g id="edge7" class="edge">
<title>BoardDoRepo&#45;&gt;BoardModule</title>
<path fill="none" stroke="black" d="M1651,-85.08C1651,-106.12 1651,-137.8 1651,-137.8 1651,-137.8 928.98,-137.8 928.98,-137.8"/>
<polygon fill="black" stroke="black" points="928.98,-134.3 918.98,-137.8 928.98,-141.3 928.98,-134.3"/>
</g>
<!-- BoardDoService -->
<g id="node9" class="node">
<title>BoardDoService</title>
<ellipse fill="#fdb462" stroke="black" cx="1491" cy="-66.8" rx="75.29" ry="18"/>
<text text-anchor="middle" x="1491" y="-62.6" font-family="Times,serif" font-size="14.00">BoardDoService</text>
</g>
<!-- BoardDoService&#45;&gt;BoardModule -->
<g id="edge8" class="edge">
<title>BoardDoService&#45;&gt;BoardModule</title>
<path fill="none" stroke="black" d="M1491,-84.91C1491,-104.14 1491,-131.8 1491,-131.8 1491,-131.8 928.78,-131.8 928.78,-131.8"/>
<polygon fill="black" stroke="black" points="928.78,-128.3 918.78,-131.8 928.78,-135.3 928.78,-128.3"/>
</g>
<!-- BoardManagementUc -->
<g id="node10" class="node">
<title>BoardManagementUc</title>
<ellipse fill="#fdb462" stroke="black" cx="1301" cy="-66.8" rx="96.12" ry="18"/>
<text text-anchor="middle" x="1301" y="-62.6" font-family="Times,serif" font-size="14.00">BoardManagementUc</text>
</g>
<!-- BoardManagementUc&#45;&gt;BoardModule -->
<g id="edge9" class="edge">
<title>BoardManagementUc&#45;&gt;BoardModule</title>
<path fill="none" stroke="black" d="M1301,-84.82C1301,-102.17 1301,-125.8 1301,-125.8 1301,-125.8 929.14,-125.8 929.14,-125.8"/>
<polygon fill="black" stroke="black" points="929.14,-122.3 919.14,-125.8 929.14,-129.3 929.14,-122.3"/>
</g>
<!-- BoardNodeRepo -->
<g id="node11" class="node">
<title>BoardNodeRepo</title>
<ellipse fill="#fdb462" stroke="black" cx="1111" cy="-66.8" rx="75.88" ry="18"/>
<text text-anchor="middle" x="1111" y="-62.6" font-family="Times,serif" font-size="14.00">BoardNodeRepo</text>
</g>
<!-- BoardNodeRepo&#45;&gt;BoardModule -->
<g id="edge10" class="edge">
<title>BoardNodeRepo&#45;&gt;BoardModule</title>
<path fill="none" stroke="black" d="M1063.49,-81C1063.49,-96.7 1063.49,-119.8 1063.49,-119.8 1063.49,-119.8 928.84,-119.8 928.84,-119.8"/>
<polygon fill="black" stroke="black" points="928.84,-116.3 918.84,-119.8 928.84,-123.3 928.84,-116.3"/>
</g>
<!-- CardService -->
<g id="node12" class="node">
<title>CardService</title>
<ellipse fill="#fdb462" stroke="black" cx="958" cy="-66.8" rx="58.53" ry="18"/>
<text text-anchor="middle" x="958" y="-62.6" font-family="Times,serif" font-size="14.00">CardService</text>
</g>
<!-- CardService&#45;&gt;BoardModule -->
<g id="edge11" class="edge">
<title>CardService&#45;&gt;BoardModule</title>
<path fill="none" stroke="black" d="M909.06,-76.96C909.06,-76.96 909.06,-103.61 909.06,-103.61"/>
<polygon fill="black" stroke="black" points="905.56,-103.61 909.06,-113.61 912.56,-103.61 905.56,-103.61"/>
</g>
<!-- ColumnBoardService -->
<g id="node13" class="node">
<title>ColumnBoardService</title>
<ellipse fill="#fdb462" stroke="black" cx="787" cy="-66.8" rx="94.93" ry="18"/>
<text text-anchor="middle" x="787" y="-62.6" font-family="Times,serif" font-size="14.00">ColumnBoardService</text>
</g>
<!-- ColumnBoardService&#45;&gt;BoardModule -->
<g id="edge12" class="edge">
<title>ColumnBoardService&#45;&gt;BoardModule</title>
<path fill="none" stroke="black" d="M853.42,-79.64C853.42,-79.64 853.42,-103.32 853.42,-103.32"/>
<polygon fill="black" stroke="black" points="849.92,-103.32 853.42,-113.32 856.92,-103.32 849.92,-103.32"/>
</g>
<!-- ColumnService -->
<g id="node14" class="node">
<title>ColumnService</title>
<ellipse fill="#fdb462" stroke="black" cx="603" cy="-66.8" rx="71.23" ry="18"/>
<text text-anchor="middle" x="603" y="-62.6" font-family="Times,serif" font-size="14.00">ColumnService</text>
</g>
<!-- ColumnService&#45;&gt;BoardModule -->
<g id="edge13" class="edge">
<title>ColumnService&#45;&gt;BoardModule</title>
<path fill="none" stroke="black" d="M625.44,-84.15C625.44,-99.61 625.44,-119.8 625.44,-119.8 625.44,-119.8 815.04,-119.8 815.04,-119.8"/>
<polygon fill="black" stroke="black" points="815.04,-123.3 825.04,-119.8 815.04,-116.3 815.04,-123.3"/>
</g>
<!-- ContentElementService -->
<g id="node15" class="node">
<title>ContentElementService</title>
<ellipse fill="#fdb462" stroke="black" cx="411" cy="-66.8" rx="103" ry="18"/>
<text text-anchor="middle" x="411" y="-62.6" font-family="Times,serif" font-size="14.00">ContentElementService</text>
</g>
<!-- ContentElementService&#45;&gt;BoardModule -->
<g id="edge14" class="edge">
<title>ContentElementService&#45;&gt;BoardModule</title>
<path fill="none" stroke="black" d="M411,-84.82C411,-102.17 411,-125.8 411,-125.8 411,-125.8 814.83,-125.8 814.83,-125.8"/>
<polygon fill="black" stroke="black" points="814.83,-129.3 824.83,-125.8 814.83,-122.3 814.83,-129.3"/>
</g>
</g>
</svg>
