<?xml version="1.0" encoding="UTF-8" standalone="no"?>
<!DOCTYPE svg PUBLIC "-//W3C//DTD SVG 1.1//EN"
 "http://www.w3.org/Graphics/SVG/1.1/DTD/svg11.dtd">
<!-- Generated by graphviz version 2.47.0 (20210316.0004)
 -->
<!-- Title: dependencies Pages: 1 -->
<svg width="5250pt" height="284pt"
 viewBox="0.00 0.00 5250.00 284.00" xmlns="http://www.w3.org/2000/svg" xmlns:xlink="http://www.w3.org/1999/xlink">
<g id="graph0" class="graph" transform="scale(1 1) rotate(0) translate(4 280)">
<title>dependencies</title>
<polygon fill="white" stroke="transparent" points="-4,4 -4,-280 5246,-280 5246,4 -4,4"/>
<text text-anchor="start" x="2600.01" y="-42.4" font-family="Times-12" font-weight="bold" font-size="14.00">Legend</text>
<polygon fill="#ffffb3" stroke="transparent" points="2387,-10 2387,-30 2407,-30 2407,-10 2387,-10"/>
<text text-anchor="start" x="2410.63" y="-15.4" font-family="Times-12" font-size="14.00"> &#160;Declarations</text>
<polygon fill="#8dd3c7" stroke="transparent" points="2500,-10 2500,-30 2520,-30 2520,-10 2500,-10"/>
<text text-anchor="start" x="2523.73" y="-15.4" font-family="Times-12" font-size="14.00"> &#160;Module</text>
<polygon fill="#80b1d3" stroke="transparent" points="2586,-10 2586,-30 2606,-30 2606,-10 2586,-10"/>
<text text-anchor="start" x="2609.78" y="-15.4" font-family="Times-12" font-size="14.00"> &#160;Bootstrap</text>
<polygon fill="#fdb462" stroke="transparent" points="2683,-10 2683,-30 2703,-30 2703,-10 2683,-10"/>
<text text-anchor="start" x="2706.67" y="-15.4" font-family="Times-12" font-size="14.00"> &#160;Providers</text>
<polygon fill="#fb8072" stroke="transparent" points="2779,-10 2779,-30 2799,-30 2799,-10 2779,-10"/>
<text text-anchor="start" x="2802.73" y="-15.4" font-family="Times-12" font-size="14.00"> &#160;Exports</text>
<g id="clust1" class="cluster">
<title>cluster_BoardModule</title>
<polygon fill="none" stroke="black" stroke-dasharray="1,5" points="8,-70 8,-268 5234,-268 5234,-70 8,-70"/>
</g>
<g id="clust6" class="cluster">
<title>cluster_BoardModule_providers</title>
<polygon fill="none" stroke="black" points="1277,-78 1277,-130 5226,-130 5226,-78 1277,-78"/>
</g>
<g id="clust4" class="cluster">
<title>cluster_BoardModule_exports</title>
<polygon fill="none" stroke="black" points="1936,-208 1936,-260 2790,-260 2790,-208 1936,-208"/>
</g>
<g id="clust3" class="cluster">
<title>cluster_BoardModule_imports</title>
<polygon fill="none" stroke="black" points="16,-78 16,-130 1269,-130 1269,-78 16,-78"/>
</g>
<!-- CollaborativeTextEditorModule -->
<g id="node1" class="node">
<title>CollaborativeTextEditorModule</title>
<polygon fill="#8dd3c7" stroke="black" points="1261.41,-122 1258.41,-126 1237.41,-126 1234.41,-122 1064.59,-122 1064.59,-86 1261.41,-86 1261.41,-122"/>
<text text-anchor="middle" x="1163" y="-99.8" font-family="Times,serif" font-size="14.00">CollaborativeTextEditorModule</text>
</g>
<!-- BoardModule -->
<g id="node9" class="node">
<title>BoardModule</title>
<polygon fill="#8dd3c7" stroke="black" points="2355.76,-187 2352.76,-191 2331.76,-191 2328.76,-187 2262.24,-187 2262.24,-151 2355.76,-151 2355.76,-187"/>
<text text-anchor="middle" x="2309" y="-164.8" font-family="Times,serif" font-size="14.00">BoardModule</text>
</g>
<!-- CollaborativeTextEditorModule&#45;&gt;BoardModule -->
<g id="edge1" class="edge">
<title>CollaborativeTextEditorModule&#45;&gt;BoardModule</title>
<path fill="none" stroke="black" d="M1163,-122.02C1163,-139.37 1163,-163 1163,-163 1163,-163 2251.94,-163 2251.94,-163"/>
<polygon fill="black" stroke="black" points="2251.94,-166.5 2261.94,-163 2251.94,-159.5 2251.94,-166.5"/>
</g>
<!-- ContextExternalToolModule -->
<g id="node2" class="node">
<title>ContextExternalToolModule</title>
<polygon fill="#8dd3c7" stroke="black" points="1046.75,-122 1043.75,-126 1022.75,-126 1019.75,-122 869.25,-122 869.25,-86 1046.75,-86 1046.75,-122"/>
<text text-anchor="middle" x="958" y="-99.8" font-family="Times,serif" font-size="14.00">ContextExternalToolModule</text>
</g>
<!-- ContextExternalToolModule&#45;&gt;BoardModule -->
<g id="edge2" class="edge">
<title>ContextExternalToolModule&#45;&gt;BoardModule</title>
<path fill="none" stroke="black" d="M958,-122.27C958,-140.56 958,-166 958,-166 958,-166 2252.1,-166 2252.1,-166"/>
<polygon fill="black" stroke="black" points="2252.1,-169.5 2262.1,-166 2252.1,-162.5 2252.1,-169.5"/>
</g>
<!-- CopyHelperModule -->
<g id="node3" class="node">
<title>CopyHelperModule</title>
<polygon fill="#8dd3c7" stroke="black" points="850.97,-122 847.97,-126 826.97,-126 823.97,-122 723.03,-122 723.03,-86 850.97,-86 850.97,-122"/>
<text text-anchor="middle" x="787" y="-99.8" font-family="Times,serif" font-size="14.00">CopyHelperModule</text>
</g>
<!-- CopyHelperModule&#45;&gt;BoardModule -->
<g id="edge3" class="edge">
<title>CopyHelperModule&#45;&gt;BoardModule</title>
<path fill="none" stroke="black" d="M787,-122.17C787,-141.09 787,-168 787,-168 787,-168 2252.2,-168 2252.2,-168"/>
<polygon fill="black" stroke="black" points="2252.2,-171.5 2262.2,-168 2252.2,-164.5 2252.2,-171.5"/>
</g>
<!-- FilesStorageClientModule -->
<g id="node4" class="node">
<title>FilesStorageClientModule</title>
<polygon fill="#8dd3c7" stroke="black" points="704.76,-122 701.76,-126 680.76,-126 677.76,-122 541.24,-122 541.24,-86 704.76,-86 704.76,-122"/>
<text text-anchor="middle" x="623" y="-99.8" font-family="Times,serif" font-size="14.00">FilesStorageClientModule</text>
</g>
<!-- FilesStorageClientModule&#45;&gt;BoardModule -->
<g id="edge4" class="edge">
<title>FilesStorageClientModule&#45;&gt;BoardModule</title>
<path fill="none" stroke="black" d="M623,-122.31C623,-142.15 623,-171 623,-171 623,-171 2252.15,-171 2252.15,-171"/>
<polygon fill="black" stroke="black" points="2252.15,-174.5 2262.15,-171 2252.15,-167.5 2252.15,-174.5"/>
</g>
<!-- LoggerModule -->
<g id="node5" class="node">
<title>LoggerModule</title>
<polygon fill="#8dd3c7" stroke="black" points="522.98,-122 519.98,-126 498.98,-126 495.98,-122 423.02,-122 423.02,-86 522.98,-86 522.98,-122"/>
<text text-anchor="middle" x="473" y="-99.8" font-family="Times,serif" font-size="14.00">LoggerModule</text>
</g>
<!-- LoggerModule&#45;&gt;BoardModule -->
<g id="edge5" class="edge">
<title>LoggerModule&#45;&gt;BoardModule</title>
<path fill="none" stroke="black" d="M473,-122.13C473,-142.57 473,-173 473,-173 473,-173 2252.23,-173 2252.23,-173"/>
<polygon fill="black" stroke="black" points="2252.23,-176.5 2262.23,-173 2252.23,-169.5 2252.23,-176.5"/>
</g>
<!-- TldrawClientModule -->
<g id="node6" class="node">
<title>TldrawClientModule</title>
<polygon fill="#8dd3c7" stroke="black" points="405.2,-122 402.2,-126 381.2,-126 378.2,-122 270.8,-122 270.8,-86 405.2,-86 405.2,-122"/>
<text text-anchor="middle" x="338" y="-99.8" font-family="Times,serif" font-size="14.00">TldrawClientModule</text>
</g>
<!-- TldrawClientModule&#45;&gt;BoardModule -->
<g id="edge6" class="edge">
<title>TldrawClientModule&#45;&gt;BoardModule</title>
<path fill="none" stroke="black" d="M338,-122.28C338,-143.32 338,-175 338,-175 338,-175 2252.22,-175 2252.22,-175"/>
<polygon fill="black" stroke="black" points="2252.22,-178.5 2262.22,-175 2252.22,-171.5 2252.22,-178.5"/>
</g>
<!-- ToolConfigModule -->
<g id="node7" class="node">
<title>ToolConfigModule</title>
<polygon fill="#8dd3c7" stroke="black" points="252.38,-122 249.38,-126 228.38,-126 225.38,-122 127.62,-122 127.62,-86 252.38,-86 252.38,-122"/>
<text text-anchor="middle" x="190" y="-99.8" font-family="Times,serif" font-size="14.00">ToolConfigModule</text>
</g>
<!-- ToolConfigModule&#45;&gt;BoardModule -->
<g id="edge7" class="edge">
<title>ToolConfigModule&#45;&gt;BoardModule</title>
<path fill="none" stroke="black" d="M190,-122.29C190,-144.21 190,-178 190,-178 190,-178 2252.02,-178 2252.02,-178"/>
<polygon fill="black" stroke="black" points="2252.02,-181.5 2262.02,-178 2252.02,-174.5 2252.02,-181.5"/>
</g>
<!-- UserModule -->
<g id="node8" class="node">
<title>UserModule</title>
<polygon fill="#8dd3c7" stroke="black" points="109.98,-122 106.98,-126 85.98,-126 82.98,-122 24.02,-122 24.02,-86 109.98,-86 109.98,-122"/>
<text text-anchor="middle" x="67" y="-99.8" font-family="Times,serif" font-size="14.00">UserModule</text>
</g>
<!-- UserModule&#45;&gt;BoardModule -->
<g id="edge8" class="edge">
<title>UserModule&#45;&gt;BoardModule</title>
<path fill="none" stroke="black" d="M67,-122.01C67,-144.49 67,-180 67,-180 67,-180 2252.17,-180 2252.17,-180"/>
<polygon fill="black" stroke="black" points="2252.17,-183.5 2262.17,-180 2252.17,-176.5 2252.17,-183.5"/>
</g>
<!-- BoardCommonToolService  -->
<g id="node10" class="node">
<title>BoardCommonToolService </title>
<polygon fill="#fb8072" stroke="black" points="2782.25,-252 2607.75,-252 2607.75,-216 2782.25,-216 2782.25,-252"/>
<text text-anchor="middle" x="2695" y="-229.8" font-family="Times,serif" font-size="14.00">BoardCommonToolService </text>
</g>
<!-- BoardModule&#45;&gt;BoardCommonToolService  -->
<g id="edge9" class="edge">
<title>BoardModule&#45;&gt;BoardCommonToolService </title>
<path fill="none" stroke="black" stroke-dasharray="5,2" d="M2356.05,-183C2442.71,-183 2618.79,-183 2618.79,-183 2618.79,-183 2618.79,-205.88 2618.79,-205.88"/>
<polygon fill="black" stroke="black" points="2615.29,-205.88 2618.79,-215.88 2622.29,-205.88 2615.29,-205.88"/>
</g>
<!-- BoardNodeAuthorizableService  -->
<g id="node11" class="node">
<title>BoardNodeAuthorizableService </title>
<polygon fill="#fb8072" stroke="black" points="2589.59,-252 2390.41,-252 2390.41,-216 2589.59,-216 2589.59,-252"/>
<text text-anchor="middle" x="2490" y="-229.8" font-family="Times,serif" font-size="14.00">BoardNodeAuthorizableService </text>
</g>
<!-- BoardModule&#45;&gt;BoardNodeAuthorizableService  -->
<g id="edge10" class="edge">
<title>BoardModule&#45;&gt;BoardNodeAuthorizableService </title>
<path fill="none" stroke="black" stroke-dasharray="5,2" d="M2355.89,-185C2380.75,-185 2406.2,-185 2406.2,-185 2406.2,-185 2406.2,-205.75 2406.2,-205.75"/>
<polygon fill="black" stroke="black" points="2402.7,-205.75 2406.2,-215.75 2409.7,-205.75 2402.7,-205.75"/>
</g>
<!-- BoardNodeFactory  -->
<g id="node12" class="node">
<title>BoardNodeFactory </title>
<polygon fill="#fb8072" stroke="black" points="2372.3,-252 2245.7,-252 2245.7,-216 2372.3,-216 2372.3,-252"/>
<text text-anchor="middle" x="2309" y="-229.8" font-family="Times,serif" font-size="14.00">BoardNodeFactory </text>
</g>
<!-- BoardModule&#45;&gt;BoardNodeFactory  -->
<g id="edge11" class="edge">
<title>BoardModule&#45;&gt;BoardNodeFactory </title>
<path fill="none" stroke="black" stroke-dasharray="5,2" d="M2309,-187.11C2309,-187.11 2309,-205.99 2309,-205.99"/>
<polygon fill="black" stroke="black" points="2305.5,-205.99 2309,-215.99 2312.5,-205.99 2305.5,-205.99"/>
</g>
<!-- BoardNodeService  -->
<g id="node13" class="node">
<title>BoardNodeService </title>
<polygon fill="#fb8072" stroke="black" points="2228.01,-252 2101.99,-252 2101.99,-216 2228.01,-216 2228.01,-252"/>
<text text-anchor="middle" x="2165" y="-229.8" font-family="Times,serif" font-size="14.00">BoardNodeService </text>
</g>
<!-- BoardModule&#45;&gt;BoardNodeService  -->
<g id="edge12" class="edge">
<title>BoardModule&#45;&gt;BoardNodeService </title>
<path fill="none" stroke="black" stroke-dasharray="5,2" d="M2262.22,-185C2237.42,-185 2212.03,-185 2212.03,-185 2212.03,-185 2212.03,-205.75 2212.03,-205.75"/>
<polygon fill="black" stroke="black" points="2208.53,-205.75 2212.03,-215.75 2215.53,-205.75 2208.53,-205.75"/>
</g>
<!-- ColumnBoardService  -->
<g id="node14" class="node">
<title>ColumnBoardService </title>
<polygon fill="#fb8072" stroke="black" points="2084.31,-252 1943.69,-252 1943.69,-216 2084.31,-216 2084.31,-252"/>
<text text-anchor="middle" x="2014" y="-229.8" font-family="Times,serif" font-size="14.00">ColumnBoardService </text>
</g>
<!-- BoardModule&#45;&gt;ColumnBoardService  -->
<g id="edge13" class="edge">
<title>BoardModule&#45;&gt;ColumnBoardService </title>
<path fill="none" stroke="black" stroke-dasharray="5,2" d="M2261.93,-183C2178.64,-183 2014,-183 2014,-183 2014,-183 2014,-205.88 2014,-205.88"/>
<polygon fill="black" stroke="black" points="2010.5,-205.88 2014,-215.88 2017.5,-205.88 2010.5,-205.88"/>
</g>
<!-- BoardCommonToolService -->
<g id="node15" class="node">
<title>BoardCommonToolService</title>
<ellipse fill="#fdb462" stroke="black" cx="5100" cy="-104" rx="117.56" ry="18"/>
<text text-anchor="middle" x="5100" y="-99.8" font-family="Times,serif" font-size="14.00">BoardCommonToolService</text>
</g>
<!-- BoardCommonToolService&#45;&gt;BoardModule -->
<g id="edge14" class="edge">
<title>BoardCommonToolService&#45;&gt;BoardModule</title>
<path fill="none" stroke="black" d="M5100,-122.01C5100,-144.49 5100,-180 5100,-180 5100,-180 2365.98,-180 2365.98,-180"/>
<polygon fill="black" stroke="black" points="2365.98,-176.5 2355.98,-180 2365.98,-183.5 2365.98,-176.5"/>
</g>
<!-- BoardContextService -->
<g id="node16" class="node">
<title>BoardContextService</title>
<ellipse fill="#fdb462" stroke="black" cx="4870" cy="-104" rx="94.34" ry="18"/>
<text text-anchor="middle" x="4870" y="-99.8" font-family="Times,serif" font-size="14.00">BoardContextService</text>
</g>
<!-- BoardContextService&#45;&gt;BoardModule -->
<g id="edge15" class="edge">
<title>BoardContextService&#45;&gt;BoardModule</title>
<path fill="none" stroke="black" d="M4870,-122.29C4870,-144.21 4870,-178 4870,-178 4870,-178 2365.91,-178 2365.91,-178"/>
<polygon fill="black" stroke="black" points="2365.91,-174.5 2355.91,-178 2365.91,-181.5 2365.91,-174.5"/>
</g>
<!-- BoardNodeAuthorizableService -->
<g id="node17" class="node">
<title>BoardNodeAuthorizableService</title>
<ellipse fill="#fdb462" stroke="black" cx="4623" cy="-104" rx="134.83" ry="18"/>
<text text-anchor="middle" x="4623" y="-99.8" font-family="Times,serif" font-size="14.00">BoardNodeAuthorizableService</text>
</g>
<!-- BoardNodeAuthorizableService&#45;&gt;BoardModule -->
<g id="edge16" class="edge">
<title>BoardNodeAuthorizableService&#45;&gt;BoardModule</title>
<path fill="none" stroke="black" d="M4623,-122.28C4623,-143.32 4623,-175 4623,-175 4623,-175 2366.01,-175 2366.01,-175"/>
<polygon fill="black" stroke="black" points="2366.01,-171.5 2356.01,-175 2366.01,-178.5 2366.01,-171.5"/>
</g>
<!-- BoardNodeCopyService -->
<g id="node18" class="node">
<title>BoardNodeCopyService</title>
<ellipse fill="#fdb462" stroke="black" cx="4365" cy="-104" rx="105.36" ry="18"/>
<text text-anchor="middle" x="4365" y="-99.8" font-family="Times,serif" font-size="14.00">BoardNodeCopyService</text>
</g>
<!-- BoardNodeCopyService&#45;&gt;BoardModule -->
<g id="edge17" class="edge">
<title>BoardNodeCopyService&#45;&gt;BoardModule</title>
<path fill="none" stroke="black" d="M4365,-122.13C4365,-142.57 4365,-173 4365,-173 4365,-173 2365.81,-173 2365.81,-173"/>
<polygon fill="black" stroke="black" points="2365.81,-169.5 2355.81,-173 2365.81,-176.5 2365.81,-169.5"/>
</g>
<!-- BoardNodeDeleteHooksService -->
<g id="node19" class="node">
<title>BoardNodeDeleteHooksService</title>
<ellipse fill="#fdb462" stroke="black" cx="4107" cy="-104" rx="134.83" ry="18"/>
<text text-anchor="middle" x="4107" y="-99.8" font-family="Times,serif" font-size="14.00">BoardNodeDeleteHooksService</text>
</g>
<!-- BoardNodeDeleteHooksService&#45;&gt;BoardModule -->
<g id="edge18" class="edge">
<title>BoardNodeDeleteHooksService&#45;&gt;BoardModule</title>
<path fill="none" stroke="black" d="M4107,-122.31C4107,-142.15 4107,-171 4107,-171 4107,-171 2366.17,-171 2366.17,-171"/>
<polygon fill="black" stroke="black" points="2366.17,-167.5 2356.17,-171 2366.17,-174.5 2366.17,-167.5"/>
</g>
<!-- BoardNodeFactory -->
<g id="node20" class="node">
<title>BoardNodeFactory</title>
<ellipse fill="#fdb462" stroke="black" cx="3869" cy="-104" rx="85.09" ry="18"/>
<text text-anchor="middle" x="3869" y="-99.8" font-family="Times,serif" font-size="14.00">BoardNodeFactory</text>
</g>
<!-- BoardNodeFactory&#45;&gt;BoardModule -->
<g id="edge19" class="edge">
<title>BoardNodeFactory&#45;&gt;BoardModule</title>
<path fill="none" stroke="black" d="M3869,-122.17C3869,-141.09 3869,-168 3869,-168 3869,-168 2366.11,-168 2366.11,-168"/>
<polygon fill="black" stroke="black" points="2366.11,-164.5 2356.11,-168 2366.11,-171.5 2366.11,-164.5"/>
</g>
<!-- BoardNodeRepo -->
<g id="node21" class="node">
<title>BoardNodeRepo</title>
<ellipse fill="#fdb462" stroke="black" cx="3690" cy="-104" rx="75.87" ry="18"/>
<text text-anchor="middle" x="3690" y="-99.8" font-family="Times,serif" font-size="14.00">BoardNodeRepo</text>
</g>
<!-- BoardNodeRepo&#45;&gt;BoardModule -->
<g id="edge20" class="edge">
<title>BoardNodeRepo&#45;&gt;BoardModule</title>
<path fill="none" stroke="black" d="M3690,-122.27C3690,-140.56 3690,-166 3690,-166 3690,-166 2366.14,-166 2366.14,-166"/>
<polygon fill="black" stroke="black" points="2366.14,-162.5 2356.14,-166 2366.14,-169.5 2366.14,-162.5"/>
</g>
<!-- BoardNodeService -->
<g id="node22" class="node">
<title>BoardNodeService</title>
<ellipse fill="#fdb462" stroke="black" cx="3512" cy="-104" rx="84.51" ry="18"/>
<text text-anchor="middle" x="3512" y="-99.8" font-family="Times,serif" font-size="14.00">BoardNodeService</text>
</g>
<!-- BoardNodeService&#45;&gt;BoardModule -->
<g id="edge21" class="edge">
<title>BoardNodeService&#45;&gt;BoardModule</title>
<path fill="none" stroke="black" d="M3512,-122.02C3512,-139.37 3512,-163 3512,-163 3512,-163 2365.79,-163 2365.79,-163"/>
<polygon fill="black" stroke="black" points="2365.79,-159.5 2355.79,-163 2365.79,-166.5 2365.79,-159.5"/>
</g>
<!-- ColumnBoardCopyService -->
<g id="node23" class="node">
<title>ColumnBoardCopyService</title>
<ellipse fill="#fdb462" stroke="black" cx="3294" cy="-104" rx="115.78" ry="18"/>
<text text-anchor="middle" x="3294" y="-99.8" font-family="Times,serif" font-size="14.00">ColumnBoardCopyService</text>
</g>
<!-- ColumnBoardCopyService&#45;&gt;BoardModule -->
<g id="edge22" class="edge">
<title>ColumnBoardCopyService&#45;&gt;BoardModule</title>
<path fill="none" stroke="black" d="M3294,-122.04C3294,-138.73 3294,-161 3294,-161 3294,-161 2365.85,-161 2365.85,-161"/>
<polygon fill="black" stroke="black" points="2365.85,-157.5 2355.85,-161 2365.85,-164.5 2365.85,-157.5"/>
</g>
<!-- ColumnBoardLinkService -->
<g id="node24" class="node">
<title>ColumnBoardLinkService</title>
<ellipse fill="#fdb462" stroke="black" cx="3047" cy="-104" rx="112.9" ry="18"/>
<text text-anchor="middle" x="3047" y="-99.8" font-family="Times,serif" font-size="14.00">ColumnBoardLinkService</text>
</g>
<!-- ColumnBoardLinkService&#45;&gt;BoardModule -->
<g id="edge23" class="edge">
<title>ColumnBoardLinkService&#45;&gt;BoardModule</title>
<path fill="none" stroke="black" d="M3047,-122.01C3047,-138.05 3047,-159 3047,-159 3047,-159 2366.01,-159 2366.01,-159"/>
<polygon fill="black" stroke="black" points="2366.01,-155.5 2356.01,-159 2366.01,-162.5 2366.01,-155.5"/>
</g>
<!-- ColumnBoardReferenceService -->
<g id="node25" class="node">
<title>ColumnBoardReferenceService</title>
<ellipse fill="#fdb462" stroke="black" cx="2782" cy="-104" rx="133.69" ry="18"/>
<text text-anchor="middle" x="2782" y="-99.8" font-family="Times,serif" font-size="14.00">ColumnBoardReferenceService</text>
</g>
<!-- ColumnBoardReferenceService&#45;&gt;BoardModule -->
<g id="edge24" class="edge">
<title>ColumnBoardReferenceService&#45;&gt;BoardModule</title>
<path fill="none" stroke="black" d="M2715.14,-119.6C2715.14,-134.92 2715.14,-156 2715.14,-156 2715.14,-156 2365.99,-156 2365.99,-156"/>
<polygon fill="black" stroke="black" points="2365.99,-152.5 2355.99,-156 2365.99,-159.5 2365.99,-152.5"/>
</g>
<!-- ColumnBoardService -->
<g id="node26" class="node">
<title>ColumnBoardService</title>
<ellipse fill="#fdb462" stroke="black" cx="2535" cy="-104" rx="94.92" ry="18"/>
<text text-anchor="middle" x="2535" y="-99.8" font-family="Times,serif" font-size="14.00">ColumnBoardService</text>
</g>
<!-- ColumnBoardService&#45;&gt;BoardModule -->
<g id="edge25" class="edge">
<title>ColumnBoardService&#45;&gt;BoardModule</title>
<path fill="none" stroke="black" d="M2514.92,-121.77C2514.92,-136.14 2514.92,-154 2514.92,-154 2514.92,-154 2365.98,-154 2365.98,-154"/>
<polygon fill="black" stroke="black" points="2365.98,-150.5 2355.98,-154 2365.98,-157.5 2365.98,-150.5"/>
</g>
<!-- ColumnBoardTitleService -->
<g id="node27" class="node">
<title>ColumnBoardTitleService</title>
<ellipse fill="#fdb462" stroke="black" cx="2309" cy="-104" rx="112.9" ry="18"/>
<text text-anchor="middle" x="2309" y="-99.8" font-family="Times,serif" font-size="14.00">ColumnBoardTitleService</text>
</g>
<!-- ColumnBoardTitleService&#45;&gt;BoardModule -->
<g id="edge26" class="edge">
<title>ColumnBoardTitleService&#45;&gt;BoardModule</title>
<path fill="none" stroke="black" d="M2309,-122.11C2309,-122.11 2309,-140.99 2309,-140.99"/>
<polygon fill="black" stroke="black" points="2305.5,-140.99 2309,-150.99 2312.5,-140.99 2305.5,-140.99"/>
</g>
<!-- ContentElementUpdateService -->
<g id="node28" class="node">
<title>ContentElementUpdateService</title>
<ellipse fill="#fdb462" stroke="black" cx="2047" cy="-104" rx="130.78" ry="18"/>
<text text-anchor="middle" x="2047" y="-99.8" font-family="Times,serif" font-size="14.00">ContentElementUpdateService</text>
</g>
<!-- ContentElementUpdateService&#45;&gt;BoardModule -->
<g id="edge27" class="edge">
<title>ContentElementUpdateService&#45;&gt;BoardModule</title>
<path fill="none" stroke="black" d="M2139.82,-116.88C2139.82,-131.69 2139.82,-154 2139.82,-154 2139.82,-154 2251.87,-154 2251.87,-154"/>
<polygon fill="black" stroke="black" points="2251.87,-157.5 2261.87,-154 2251.87,-150.5 2251.87,-157.5"/>
</g>
<!-- CourseRepo -->
<g id="node29" class="node">
<title>CourseRepo</title>
<ellipse fill="#fdb462" stroke="black" cx="1840" cy="-104" rx="58.55" ry="18"/>
<text text-anchor="middle" x="1840" y="-99.8" font-family="Times,serif" font-size="14.00">CourseRepo</text>
</g>
<!-- CourseRepo&#45;&gt;BoardModule -->
<g id="edge28" class="edge">
<title>CourseRepo&#45;&gt;BoardModule</title>
<path fill="none" stroke="black" d="M1840,-122.19C1840,-137.18 1840,-156 1840,-156 1840,-156 2251.88,-156 2251.88,-156"/>
<polygon fill="black" stroke="black" points="2251.88,-159.5 2261.88,-156 2251.88,-152.5 2251.88,-159.5"/>
</g>
<!-- MediaBoardService -->
<g id="node30" class="node">
<title>MediaBoardService</title>
<ellipse fill="#fdb462" stroke="black" cx="1675" cy="-104" rx="88.02" ry="18"/>
<text text-anchor="middle" x="1675" y="-99.8" font-family="Times,serif" font-size="14.00">MediaBoardService</text>
</g>
<!-- MediaBoardService&#45;&gt;BoardModule -->
<g id="edge29" class="edge">
<title>MediaBoardService&#45;&gt;BoardModule</title>
<path fill="none" stroke="black" d="M1675,-122.01C1675,-138.05 1675,-159 1675,-159 1675,-159 2252.12,-159 2252.12,-159"/>
<polygon fill="black" stroke="black" points="2252.12,-162.5 2262.12,-159 2252.12,-155.5 2252.12,-162.5"/>
</g>
<!-- UserDeletedEventHandlerService -->
<g id="node31" class="node">
<title>UserDeletedEventHandlerService</title>
<ellipse fill="#fdb462" stroke="black" cx="1427" cy="-104" rx="141.75" ry="18"/>
<text text-anchor="middle" x="1427" y="-99.8" font-family="Times,serif" font-size="14.00">UserDeletedEventHandlerService</text>
</g>
<!-- UserDeletedEventHandlerService&#45;&gt;BoardModule -->
<g id="edge30" class="edge">
<title>UserDeletedEventHandlerService&#45;&gt;BoardModule</title>
<path fill="none" stroke="black" d="M1427,-122.04C1427,-138.73 1427,-161 1427,-161 1427,-161 2252.2,-161 2252.2,-161"/>
<polygon fill="black" stroke="black" points="2252.2,-164.5 2262.2,-161 2252.2,-157.5 2252.2,-164.5"/>
</g>
</g>
</svg>
