<?xml version="1.0" encoding="UTF-8" standalone="no"?>
<!DOCTYPE svg PUBLIC "-//W3C//DTD SVG 1.1//EN"
 "http://www.w3.org/Graphics/SVG/1.1/DTD/svg11.dtd">
<!-- Generated by graphviz version 2.47.0 (20210316.0004)
 -->
<!-- Title: dependencies Pages: 1 -->
<svg width="2572pt" height="284pt"
 viewBox="0.00 0.00 2572.00 284.00" xmlns="http://www.w3.org/2000/svg" xmlns:xlink="http://www.w3.org/1999/xlink">
<g id="graph0" class="graph" transform="scale(1 1) rotate(0) translate(4 280)">
<title>dependencies</title>
<polygon fill="white" stroke="transparent" points="-4,4 -4,-280 2568,-280 2568,4 -4,4"/>
<text text-anchor="start" x="1261.01" y="-42.4" font-family="Times-12" font-weight="bold" font-size="14.00">Legend</text>
<polygon fill="#ffffb3" stroke="transparent" points="1048,-10 1048,-30 1068,-30 1068,-10 1048,-10"/>
<text text-anchor="start" x="1071.63" y="-15.4" font-family="Times-12" font-size="14.00"> &#160;Declarations</text>
<polygon fill="#8dd3c7" stroke="transparent" points="1161,-10 1161,-30 1181,-30 1181,-10 1161,-10"/>
<text text-anchor="start" x="1184.73" y="-15.4" font-family="Times-12" font-size="14.00"> &#160;Module</text>
<polygon fill="#80b1d3" stroke="transparent" points="1247,-10 1247,-30 1267,-30 1267,-10 1247,-10"/>
<text text-anchor="start" x="1270.78" y="-15.4" font-family="Times-12" font-size="14.00"> &#160;Bootstrap</text>
<polygon fill="#fdb462" stroke="transparent" points="1344,-10 1344,-30 1364,-30 1364,-10 1344,-10"/>
<text text-anchor="start" x="1367.67" y="-15.4" font-family="Times-12" font-size="14.00"> &#160;Providers</text>
<polygon fill="#fb8072" stroke="transparent" points="1440,-10 1440,-30 1460,-30 1460,-10 1440,-10"/>
<text text-anchor="start" x="1463.73" y="-15.4" font-family="Times-12" font-size="14.00"> &#160;Exports</text>
<g id="clust1" class="cluster">
<title>cluster_BoardModule</title>
<polygon fill="none" stroke="black" stroke-dasharray="1,5" points="8,-70 8,-268 2556,-268 2556,-70 8,-70"/>
</g>
<g id="clust6" class="cluster">
<title>cluster_BoardModule_providers</title>
<polygon fill="none" stroke="black" points="482,-78 482,-130 2548,-130 2548,-78 482,-78"/>
</g>
<g id="clust4" class="cluster">
<title>cluster_BoardModule_exports</title>
<polygon fill="none" stroke="black" points="896,-208 896,-260 1659,-260 1659,-208 896,-208"/>
</g>
<g id="clust3" class="cluster">
<title>cluster_BoardModule_imports</title>
<polygon fill="none" stroke="black" points="16,-78 16,-130 474,-130 474,-78 16,-78"/>
</g>
<!-- ConsoleWriterModule -->
<g id="node1" class="node">
<title>ConsoleWriterModule</title>
<polygon fill="#8dd3c7" stroke="black" points="465.97,-122 462.97,-126 441.97,-126 438.97,-122 324.03,-122 324.03,-86 465.97,-86 465.97,-122"/>
<text text-anchor="middle" x="395" y="-99.8" font-family="Times,serif" font-size="14.00">ConsoleWriterModule</text>
</g>
<!-- BoardModule -->
<g id="node4" class="node">
<title>BoardModule</title>
<polygon fill="#8dd3c7" stroke="black" points="1316.76,-187 1313.76,-191 1292.76,-191 1289.76,-187 1223.24,-187 1223.24,-151 1316.76,-151 1316.76,-187"/>
<text text-anchor="middle" x="1270" y="-164.8" font-family="Times,serif" font-size="14.00">BoardModule</text>
</g>
<!-- ConsoleWriterModule&#45;&gt;BoardModule -->
<g id="edge1" class="edge">
<title>ConsoleWriterModule&#45;&gt;BoardModule</title>
<path fill="none" stroke="black" d="M395,-122.22C395,-140.83 395,-167 395,-167 395,-167 1212.96,-167 1212.96,-167"/>
<polygon fill="black" stroke="black" points="1212.96,-170.5 1222.96,-167 1212.96,-163.5 1212.96,-170.5"/>
</g>
<!-- FilesStorageClientModule -->
<g id="node2" class="node">
<title>FilesStorageClientModule</title>
<polygon fill="#8dd3c7" stroke="black" points="305.76,-122 302.76,-126 281.76,-126 278.76,-122 142.24,-122 142.24,-86 305.76,-86 305.76,-122"/>
<text text-anchor="middle" x="224" y="-99.8" font-family="Times,serif" font-size="14.00">FilesStorageClientModule</text>
</g>
<!-- FilesStorageClientModule&#45;&gt;BoardModule -->
<g id="edge2" class="edge">
<title>FilesStorageClientModule&#45;&gt;BoardModule</title>
<path fill="none" stroke="black" d="M224,-122.31C224,-142.15 224,-171 224,-171 224,-171 1213.02,-171 1213.02,-171"/>
<polygon fill="black" stroke="black" points="1213.02,-174.5 1223.02,-171 1213.02,-167.5 1213.02,-174.5"/>
</g>
<!-- LoggerModule -->
<g id="node3" class="node">
<title>LoggerModule</title>
<polygon fill="#8dd3c7" stroke="black" points="123.98,-122 120.98,-126 99.98,-126 96.98,-122 24.02,-122 24.02,-86 123.98,-86 123.98,-122"/>
<text text-anchor="middle" x="74" y="-99.8" font-family="Times,serif" font-size="14.00">LoggerModule</text>
</g>
<!-- LoggerModule&#45;&gt;BoardModule -->
<g id="edge3" class="edge">
<title>LoggerModule&#45;&gt;BoardModule</title>
<path fill="none" stroke="black" d="M74,-122.28C74,-143.32 74,-175 74,-175 74,-175 1213.12,-175 1213.12,-175"/>
<polygon fill="black" stroke="black" points="1213.12,-178.5 1223.12,-175 1213.12,-171.5 1213.12,-178.5"/>
</g>
<!-- BoardDoAuthorizableService  -->
<g id="node5" class="node">
<title>BoardDoAuthorizableService </title>
<polygon fill="#fb8072" stroke="black" points="1650.88,-252 1465.12,-252 1465.12,-216 1650.88,-216 1650.88,-252"/>
<text text-anchor="middle" x="1558" y="-229.8" font-family="Times,serif" font-size="14.00">BoardDoAuthorizableService </text>
</g>
<!-- BoardModule&#45;&gt;BoardDoAuthorizableService  -->
<g id="edge4" class="edge">
<title>BoardModule&#45;&gt;BoardDoAuthorizableService </title>
<path fill="none" stroke="black" stroke-dasharray="5,2" d="M1317.04,-179C1397.96,-179 1554.89,-179 1554.89,-179 1554.89,-179 1554.89,-205.99 1554.89,-205.99"/>
<polygon fill="black" stroke="black" points="1551.39,-205.99 1554.89,-215.99 1558.39,-205.99 1551.39,-205.99"/>
</g>
<!-- CardService  -->
<g id="node6" class="node">
<title>CardService </title>
<polygon fill="#fb8072" stroke="black" points="1447.19,-252 1358.81,-252 1358.81,-216 1447.19,-216 1447.19,-252"/>
<text text-anchor="middle" x="1403" y="-229.8" font-family="Times,serif" font-size="14.00">CardService </text>
</g>
<!-- BoardModule&#45;&gt;CardService  -->
<g id="edge5" class="edge">
<title>BoardModule&#45;&gt;CardService </title>
<path fill="none" stroke="black" stroke-dasharray="5,2" d="M1316.89,-183C1353.39,-183 1397.88,-183 1397.88,-183 1397.88,-183 1397.88,-205.88 1397.88,-205.88"/>
<polygon fill="black" stroke="black" points="1394.38,-205.88 1397.88,-215.88 1401.38,-205.88 1394.38,-205.88"/>
</g>
<!-- ColumnBoardService  -->
<g id="node7" class="node">
<title>ColumnBoardService </title>
<polygon fill="#fb8072" stroke="black" points="1340.31,-252 1199.69,-252 1199.69,-216 1340.31,-216 1340.31,-252"/>
<text text-anchor="middle" x="1270" y="-229.8" font-family="Times,serif" font-size="14.00">ColumnBoardService </text>
</g>
<!-- BoardModule&#45;&gt;ColumnBoardService  -->
<g id="edge6" class="edge">
<title>BoardModule&#45;&gt;ColumnBoardService </title>
<path fill="none" stroke="black" stroke-dasharray="5,2" d="M1270,-187.11C1270,-187.11 1270,-205.99 1270,-205.99"/>
<polygon fill="black" stroke="black" points="1266.5,-205.99 1270,-215.99 1273.5,-205.99 1266.5,-205.99"/>
</g>
<!-- ColumnService  -->
<g id="node8" class="node">
<title>ColumnService </title>
<polygon fill="#fb8072" stroke="black" points="1181.1,-252 1074.9,-252 1074.9,-216 1181.1,-216 1181.1,-252"/>
<text text-anchor="middle" x="1128" y="-229.8" font-family="Times,serif" font-size="14.00">ColumnService </text>
</g>
<!-- BoardModule&#45;&gt;ColumnService  -->
<g id="edge7" class="edge">
<title>BoardModule&#45;&gt;ColumnService </title>
<path fill="none" stroke="black" stroke-dasharray="5,2" d="M1223.11,-183C1181.75,-183 1128,-183 1128,-183 1128,-183 1128,-205.88 1128,-205.88"/>
<polygon fill="black" stroke="black" points="1124.5,-205.88 1128,-215.88 1131.5,-205.88 1124.5,-205.88"/>
</g>
<!-- ContentElementService  -->
<g id="node9" class="node">
<title>ContentElementService </title>
<polygon fill="#fb8072" stroke="black" points="1056.46,-252 903.54,-252 903.54,-216 1056.46,-216 1056.46,-252"/>
<text text-anchor="middle" x="980" y="-229.8" font-family="Times,serif" font-size="14.00">ContentElementService </text>
</g>
<!-- BoardModule&#45;&gt;ContentElementService  -->
<g id="edge8" class="edge">
<title>BoardModule&#45;&gt;ContentElementService </title>
<path fill="none" stroke="black" stroke-dasharray="5,2" d="M1223.2,-179C1146.65,-179 1003.09,-179 1003.09,-179 1003.09,-179 1003.09,-205.99 1003.09,-205.99"/>
<polygon fill="black" stroke="black" points="999.59,-205.99 1003.09,-215.99 1006.59,-205.99 999.59,-205.99"/>
</g>
<!-- BoardDoAuthorizableService -->
<g id="node10" class="node">
<title>BoardDoAuthorizableService</title>
<ellipse fill="#fdb462" stroke="black" cx="2414" cy="-104" rx="125.6" ry="18"/>
<text text-anchor="middle" x="2414" y="-99.8" font-family="Times,serif" font-size="14.00">BoardDoAuthorizableService</text>
</g>
<!-- BoardDoAuthorizableService&#45;&gt;BoardModule -->
<g id="edge9" class="edge">
<title>BoardDoAuthorizableService&#45;&gt;BoardModule</title>
<path fill="none" stroke="black" d="M2414,-122.28C2414,-143.32 2414,-175 2414,-175 2414,-175 1326.98,-175 1326.98,-175"/>
<polygon fill="black" stroke="black" points="1326.98,-171.5 1316.98,-175 1326.98,-178.5 1326.98,-171.5"/>
</g>
<!-- BoardDoRepo -->
<g id="node11" class="node">
<title>BoardDoRepo</title>
<ellipse fill="#fdb462" stroke="black" cx="2203" cy="-104" rx="66.64" ry="18"/>
<text text-anchor="middle" x="2203" y="-99.8" font-family="Times,serif" font-size="14.00">BoardDoRepo</text>
</g>
<!-- BoardDoRepo&#45;&gt;BoardModule -->
<g id="edge10" class="edge">
<title>BoardDoRepo&#45;&gt;BoardModule</title>
<path fill="none" stroke="black" d="M2203,-122.31C2203,-142.15 2203,-171 2203,-171 2203,-171 1326.91,-171 1326.91,-171"/>
<polygon fill="black" stroke="black" points="1326.91,-167.5 1316.91,-171 1326.91,-174.5 1326.91,-167.5"/>
</g>
<!-- BoardDoService -->
<g id="node12" class="node">
<title>BoardDoService</title>
<ellipse fill="#fdb462" stroke="black" cx="2043" cy="-104" rx="75.28" ry="18"/>
<text text-anchor="middle" x="2043" y="-99.8" font-family="Times,serif" font-size="14.00">BoardDoService</text>
</g>
<!-- BoardDoService&#45;&gt;BoardModule -->
<g id="edge11" class="edge">
<title>BoardDoService&#45;&gt;BoardModule</title>
<path fill="none" stroke="black" d="M2043,-122.22C2043,-140.83 2043,-167 2043,-167 2043,-167 1326.9,-167 1326.9,-167"/>
<polygon fill="black" stroke="black" points="1326.9,-163.5 1316.9,-167 1326.9,-170.5 1326.9,-163.5"/>
</g>
<!-- BoardNodeRepo -->
<g id="node13" class="node">
<title>BoardNodeRepo</title>
<ellipse fill="#fdb462" stroke="black" cx="1874" cy="-104" rx="75.87" ry="18"/>
<text text-anchor="middle" x="1874" y="-99.8" font-family="Times,serif" font-size="14.00">BoardNodeRepo</text>
</g>
<!-- BoardNodeRepo&#45;&gt;BoardModule -->
<g id="edge12" class="edge">
<title>BoardNodeRepo&#45;&gt;BoardModule</title>
<path fill="none" stroke="black" d="M1874,-122.02C1874,-139.37 1874,-163 1874,-163 1874,-163 1326.89,-163 1326.89,-163"/>
<polygon fill="black" stroke="black" points="1326.89,-159.5 1316.89,-163 1326.89,-166.5 1326.89,-159.5"/>
</g>
<!-- CardService -->
<g id="node14" class="node">
<title>CardService</title>
<ellipse fill="#fdb462" stroke="black" cx="1721" cy="-104" rx="58.53" ry="18"/>
<text text-anchor="middle" x="1721" y="-99.8" font-family="Times,serif" font-size="14.00">CardService</text>
</g>
<!-- CardService&#45;&gt;BoardModule -->
<g id="edge13" class="edge">
<title>CardService&#45;&gt;BoardModule</title>
<path fill="none" stroke="black" d="M1721,-122.01C1721,-138.05 1721,-159 1721,-159 1721,-159 1326.99,-159 1326.99,-159"/>
<polygon fill="black" stroke="black" points="1326.99,-155.5 1316.99,-159 1326.99,-162.5 1326.99,-155.5"/>
</g>
<!-- ColumnBoardService -->
<g id="node15" class="node">
<title>ColumnBoardService</title>
<ellipse fill="#fdb462" stroke="black" cx="1550" cy="-104" rx="94.92" ry="18"/>
<text text-anchor="middle" x="1550" y="-99.8" font-family="Times,serif" font-size="14.00">ColumnBoardService</text>
</g>
<!-- ColumnBoardService&#45;&gt;BoardModule -->
<g id="edge14" class="edge">
<title>ColumnBoardService&#45;&gt;BoardModule</title>
<path fill="none" stroke="black" d="M1460.17,-109.85C1460.17,-123.25 1460.17,-155 1460.17,-155 1460.17,-155 1327.01,-155 1327.01,-155"/>
<polygon fill="black" stroke="black" points="1327.01,-151.5 1317.01,-155 1327.01,-158.5 1327.01,-151.5"/>
</g>
<!-- ColumnService -->
<g id="node16" class="node">
<title>ColumnService</title>
<ellipse fill="#fdb462" stroke="black" cx="1366" cy="-104" rx="71.23" ry="18"/>
<text text-anchor="middle" x="1366" y="-99.8" font-family="Times,serif" font-size="14.00">ColumnService</text>
</g>
<!-- ColumnService&#45;&gt;BoardModule -->
<g id="edge15" class="edge">
<title>ColumnService&#45;&gt;BoardModule</title>
<path fill="none" stroke="black" d="M1305.88,-113.87C1305.88,-113.87 1305.88,-140.91 1305.88,-140.91"/>
<polygon fill="black" stroke="black" points="1302.38,-140.91 1305.88,-150.91 1309.38,-140.91 1302.38,-140.91"/>
</g>
<!-- ContentElementFactory -->
<g id="node17" class="node">
<title>ContentElementFactory</title>
<ellipse fill="#fdb462" stroke="black" cx="1174" cy="-104" rx="103.09" ry="18"/>
<text text-anchor="middle" x="1174" y="-99.8" font-family="Times,serif" font-size="14.00">ContentElementFactory</text>
</g>
<!-- ContentElementFactory&#45;&gt;BoardModule -->
<g id="edge16" class="edge">
<title>ContentElementFactory&#45;&gt;BoardModule</title>
<path fill="none" stroke="black" d="M1250.21,-116.23C1250.21,-116.23 1250.21,-140.68 1250.21,-140.68"/>
<polygon fill="black" stroke="black" points="1246.71,-140.68 1250.21,-150.68 1253.71,-140.68 1246.71,-140.68"/>
</g>
<!-- ContentElementService -->
<g id="node18" class="node">
<title>ContentElementService</title>
<ellipse fill="#fdb462" stroke="black" cx="950" cy="-104" rx="102.51" ry="18"/>
<text text-anchor="middle" x="950" y="-99.8" font-family="Times,serif" font-size="14.00">ContentElementService</text>
</g>
<!-- ContentElementService&#45;&gt;BoardModule -->
<g id="edge17" class="edge">
<title>ContentElementService&#45;&gt;BoardModule</title>
<path fill="none" stroke="black" d="M953.43,-122.12C953.43,-136.78 953.43,-155 953.43,-155 953.43,-155 1212.95,-155 1212.95,-155"/>
<polygon fill="black" stroke="black" points="1212.95,-158.5 1222.95,-155 1212.95,-151.5 1212.95,-158.5"/>
</g>
<!-- CourseRepo -->
<g id="node19" class="node">
<title>CourseRepo</title>
<ellipse fill="#fdb462" stroke="black" cx="770" cy="-104" rx="58.55" ry="18"/>
<text text-anchor="middle" x="770" y="-99.8" font-family="Times,serif" font-size="14.00">CourseRepo</text>
</g>
<!-- CourseRepo&#45;&gt;BoardModule -->
<g id="edge18" class="edge">
<title>CourseRepo&#45;&gt;BoardModule</title>
<path fill="none" stroke="black" d="M770,-122.01C770,-138.05 770,-159 770,-159 770,-159 1212.96,-159 1212.96,-159"/>
<polygon fill="black" stroke="black" points="1212.96,-162.5 1222.96,-159 1212.96,-155.5 1212.96,-162.5"/>
</g>
<!-- RecursiveDeleteVisitor -->
<g id="node20" class="node">
<title>RecursiveDeleteVisitor</title>
<ellipse fill="#fdb462" stroke="black" cx="592" cy="-104" rx="101.84" ry="18"/>
<text text-anchor="middle" x="592" y="-99.8" font-family="Times,serif" font-size="14.00">RecursiveDeleteVisitor</text>
</g>
<!-- RecursiveDeleteVisitor&#45;&gt;BoardModule -->
<g id="edge19" class="edge">
<title>RecursiveDeleteVisitor&#45;&gt;BoardModule</title>
<path fill="none" stroke="black" d="M592,-122.02C592,-139.37 592,-163 592,-163 592,-163 1213.13,-163 1213.13,-163"/>
<polygon fill="black" stroke="black" points="1213.13,-166.5 1223.13,-163 1213.13,-159.5 1213.13,-166.5"/>
</g>
</g>
</svg>
