<?xml version="1.0" encoding="UTF-8" standalone="no"?>
<!DOCTYPE svg PUBLIC "-//W3C//DTD SVG 1.1//EN"
 "http://www.w3.org/Graphics/SVG/1.1/DTD/svg11.dtd">
<!-- Generated by graphviz version 2.47.0 (20210316.0004)
 -->
<!-- Title: dependencies Pages: 1 -->
<svg width="2572pt" height="284pt"
 viewBox="0.00 0.00 2572.00 284.00" xmlns="http://www.w3.org/2000/svg" xmlns:xlink="http://www.w3.org/1999/xlink">
<g id="graph0" class="graph" transform="scale(1 1) rotate(0) translate(4 280)">
<title>dependencies</title>
<polygon fill="white" stroke="transparent" points="-4,4 -4,-280 2568,-280 2568,4 -4,4"/>
<text text-anchor="start" x="1261.01" y="-42.4" font-family="Times-12" font-weight="bold" font-size="14.00">Legend</text>
<polygon fill="#ffffb3" stroke="transparent" points="1048,-10 1048,-30 1068,-30 1068,-10 1048,-10"/>
<text text-anchor="start" x="1071.63" y="-15.4" font-family="Times-12" font-size="14.00"> &#160;Declarations</text>
<polygon fill="#8dd3c7" stroke="transparent" points="1161,-10 1161,-30 1181,-30 1181,-10 1161,-10"/>
<text text-anchor="start" x="1184.73" y="-15.4" font-family="Times-12" font-size="14.00"> &#160;Module</text>
<polygon fill="#80b1d3" stroke="transparent" points="1247,-10 1247,-30 1267,-30 1267,-10 1247,-10"/>
<text text-anchor="start" x="1270.78" y="-15.4" font-family="Times-12" font-size="14.00"> &#160;Bootstrap</text>
<polygon fill="#fdb462" stroke="transparent" points="1344,-10 1344,-30 1364,-30 1364,-10 1344,-10"/>
<text text-anchor="start" x="1367.67" y="-15.4" font-family="Times-12" font-size="14.00"> &#160;Providers</text>
<polygon fill="#fb8072" stroke="transparent" points="1440,-10 1440,-30 1460,-30 1460,-10 1440,-10"/>
<text text-anchor="start" x="1463.73" y="-15.4" font-family="Times-12" font-size="14.00"> &#160;Exports</text>
<g id="clust1" class="cluster">
<title>cluster_BoardModule</title>
<polygon fill="none" stroke="black" stroke-dasharray="1,5" points="8,-70 8,-268 2556,-268 2556,-70 8,-70"/>
</g>
<g id="clust4" class="cluster">
<title>cluster_BoardModule_exports</title>
<polygon fill="none" stroke="black" points="957,-208 957,-260 1720,-260 1720,-208 957,-208"/>
</g>
<g id="clust3" class="cluster">
<title>cluster_BoardModule_imports</title>
<polygon fill="none" stroke="black" points="2090,-78 2090,-130 2548,-130 2548,-78 2090,-78"/>
</g>
<g id="clust6" class="cluster">
<title>cluster_BoardModule_providers</title>
<polygon fill="none" stroke="black" points="16,-78 16,-130 2082,-130 2082,-78 16,-78"/>
</g>
<!-- ConsoleWriterModule -->
<g id="node1" class="node">
<title>ConsoleWriterModule</title>
<polygon fill="#8dd3c7" stroke="black" points="2539.97,-122 2536.97,-126 2515.97,-126 2512.97,-122 2398.03,-122 2398.03,-86 2539.97,-86 2539.97,-122"/>
<text text-anchor="middle" x="2469" y="-99.8" font-family="Times,serif" font-size="14.00">ConsoleWriterModule</text>
</g>
<!-- BoardModule -->
<g id="node4" class="node">
<title>BoardModule</title>
<polygon fill="#8dd3c7" stroke="black" points="1377.76,-187 1374.76,-191 1353.76,-191 1350.76,-187 1284.24,-187 1284.24,-151 1377.76,-151 1377.76,-187"/>
<text text-anchor="middle" x="1331" y="-164.8" font-family="Times,serif" font-size="14.00">BoardModule</text>
</g>
<!-- ConsoleWriterModule&#45;&gt;BoardModule -->
<g id="edge1" class="edge">
<title>ConsoleWriterModule&#45;&gt;BoardModule</title>
<path fill="none" stroke="black" d="M2469,-122.28C2469,-143.32 2469,-175 2469,-175 2469,-175 1388.09,-175 1388.09,-175"/>
<polygon fill="black" stroke="black" points="1388.09,-171.5 1378.09,-175 1388.09,-178.5 1388.09,-171.5"/>
</g>
<!-- FilesStorageClientModule -->
<g id="node2" class="node">
<title>FilesStorageClientModule</title>
<polygon fill="#8dd3c7" stroke="black" points="2379.76,-122 2376.76,-126 2355.76,-126 2352.76,-122 2216.24,-122 2216.24,-86 2379.76,-86 2379.76,-122"/>
<text text-anchor="middle" x="2298" y="-99.8" font-family="Times,serif" font-size="14.00">FilesStorageClientModule</text>
</g>
<!-- FilesStorageClientModule&#45;&gt;BoardModule -->
<g id="edge2" class="edge">
<title>FilesStorageClientModule&#45;&gt;BoardModule</title>
<path fill="none" stroke="black" d="M2298,-122.31C2298,-142.15 2298,-171 2298,-171 2298,-171 1387.97,-171 1387.97,-171"/>
<polygon fill="black" stroke="black" points="1387.97,-167.5 1377.97,-171 1387.97,-174.5 1387.97,-167.5"/>
</g>
<!-- LoggerModule -->
<g id="node3" class="node">
<title>LoggerModule</title>
<polygon fill="#8dd3c7" stroke="black" points="2197.98,-122 2194.98,-126 2173.98,-126 2170.98,-122 2098.02,-122 2098.02,-86 2197.98,-86 2197.98,-122"/>
<text text-anchor="middle" x="2148" y="-99.8" font-family="Times,serif" font-size="14.00">LoggerModule</text>
</g>
<!-- LoggerModule&#45;&gt;BoardModule -->
<g id="edge3" class="edge">
<title>LoggerModule&#45;&gt;BoardModule</title>
<path fill="none" stroke="black" d="M2148,-122.22C2148,-140.83 2148,-167 2148,-167 2148,-167 1387.86,-167 1387.86,-167"/>
<polygon fill="black" stroke="black" points="1387.86,-163.5 1377.86,-167 1387.86,-170.5 1387.86,-163.5"/>
</g>
<!-- BoardDoAuthorizableService  -->
<g id="node5" class="node">
<title>BoardDoAuthorizableService </title>
<polygon fill="#fb8072" stroke="black" points="1711.88,-252 1526.12,-252 1526.12,-216 1711.88,-216 1711.88,-252"/>
<text text-anchor="middle" x="1619" y="-229.8" font-family="Times,serif" font-size="14.00">BoardDoAuthorizableService </text>
</g>
<!-- BoardModule&#45;&gt;BoardDoAuthorizableService  -->
<g id="edge4" class="edge">
<title>BoardModule&#45;&gt;BoardDoAuthorizableService </title>
<path fill="none" stroke="black" stroke-dasharray="5,2" d="M1377.76,-179C1452.18,-179 1589.23,-179 1589.23,-179 1589.23,-179 1589.23,-205.99 1589.23,-205.99"/>
<polygon fill="black" stroke="black" points="1585.73,-205.99 1589.23,-215.99 1592.73,-205.99 1585.73,-205.99"/>
</g>
<!-- CardService  -->
<g id="node6" class="node">
<title>CardService </title>
<polygon fill="#fb8072" stroke="black" points="1508.19,-252 1419.81,-252 1419.81,-216 1508.19,-216 1508.19,-252"/>
<text text-anchor="middle" x="1464" y="-229.8" font-family="Times,serif" font-size="14.00">CardService </text>
</g>
<!-- BoardModule&#45;&gt;CardService  -->
<g id="edge5" class="edge">
<title>BoardModule&#45;&gt;CardService </title>
<path fill="none" stroke="black" stroke-dasharray="5,2" d="M1378.05,-183C1411.97,-183 1451.79,-183 1451.79,-183 1451.79,-183 1451.79,-205.88 1451.79,-205.88"/>
<polygon fill="black" stroke="black" points="1448.29,-205.88 1451.79,-215.88 1455.29,-205.88 1448.29,-205.88"/>
</g>
<!-- ColumnBoardService  -->
<g id="node7" class="node">
<title>ColumnBoardService </title>
<polygon fill="#fb8072" stroke="black" points="1401.31,-252 1260.69,-252 1260.69,-216 1401.31,-216 1401.31,-252"/>
<text text-anchor="middle" x="1331" y="-229.8" font-family="Times,serif" font-size="14.00">ColumnBoardService </text>
</g>
<!-- BoardModule&#45;&gt;ColumnBoardService  -->
<g id="edge6" class="edge">
<title>BoardModule&#45;&gt;ColumnBoardService </title>
<path fill="none" stroke="black" stroke-dasharray="5,2" d="M1331,-187.11C1331,-187.11 1331,-205.99 1331,-205.99"/>
<polygon fill="black" stroke="black" points="1327.5,-205.99 1331,-215.99 1334.5,-205.99 1327.5,-205.99"/>
</g>
<!-- ColumnService  -->
<g id="node8" class="node">
<title>ColumnService </title>
<polygon fill="#fb8072" stroke="black" points="1242.1,-252 1135.9,-252 1135.9,-216 1242.1,-216 1242.1,-252"/>
<text text-anchor="middle" x="1189" y="-229.8" font-family="Times,serif" font-size="14.00">ColumnService </text>
</g>
<!-- BoardModule&#45;&gt;ColumnService  -->
<g id="edge7" class="edge">
<title>BoardModule&#45;&gt;ColumnService </title>
<path fill="none" stroke="black" stroke-dasharray="5,2" d="M1283.94,-183C1253.4,-183 1219.27,-183 1219.27,-183 1219.27,-183 1219.27,-205.88 1219.27,-205.88"/>
<polygon fill="black" stroke="black" points="1215.77,-205.88 1219.27,-215.88 1222.77,-205.88 1215.77,-205.88"/>
</g>
<!-- ContentElementService  -->
<g id="node9" class="node">
<title>ContentElementService </title>
<polygon fill="#fb8072" stroke="black" points="1117.46,-252 964.54,-252 964.54,-216 1117.46,-216 1117.46,-252"/>
<text text-anchor="middle" x="1041" y="-229.8" font-family="Times,serif" font-size="14.00">ContentElementService </text>
</g>
<!-- BoardModule&#45;&gt;ContentElementService  -->
<g id="edge8" class="edge">
<title>BoardModule&#45;&gt;ContentElementService </title>
<path fill="none" stroke="black" stroke-dasharray="5,2" d="M1284.2,-179C1205.05,-179 1053.26,-179 1053.26,-179 1053.26,-179 1053.26,-205.99 1053.26,-205.99"/>
<polygon fill="black" stroke="black" points="1049.76,-205.99 1053.26,-215.99 1056.76,-205.99 1049.76,-205.99"/>
</g>
<!-- BoardDoAuthorizableService -->
<g id="node10" class="node">
<title>BoardDoAuthorizableService</title>
<ellipse fill="#fdb462" stroke="black" cx="1948" cy="-104" rx="125.6" ry="18"/>
<text text-anchor="middle" x="1948" y="-99.8" font-family="Times,serif" font-size="14.00">BoardDoAuthorizableService</text>
</g>
<!-- BoardDoAuthorizableService&#45;&gt;BoardModule -->
<g id="edge9" class="edge">
<title>BoardDoAuthorizableService&#45;&gt;BoardModule</title>
<path fill="none" stroke="black" d="M1948,-122.02C1948,-139.37 1948,-163 1948,-163 1948,-163 1387.88,-163 1387.88,-163"/>
<polygon fill="black" stroke="black" points="1387.88,-159.5 1377.88,-163 1387.88,-166.5 1387.88,-159.5"/>
</g>
<!-- BoardDoRepo -->
<g id="node11" class="node">
<title>BoardDoRepo</title>
<ellipse fill="#fdb462" stroke="black" cx="1737" cy="-104" rx="66.64" ry="18"/>
<text text-anchor="middle" x="1737" y="-99.8" font-family="Times,serif" font-size="14.00">BoardDoRepo</text>
</g>
<!-- BoardDoRepo&#45;&gt;BoardModule -->
<g id="edge10" class="edge">
<title>BoardDoRepo&#45;&gt;BoardModule</title>
<path fill="none" stroke="black" d="M1691.06,-117.31C1691.06,-133.59 1691.06,-159 1691.06,-159 1691.06,-159 1388.07,-159 1388.07,-159"/>
<polygon fill="black" stroke="black" points="1388.07,-155.5 1378.07,-159 1388.07,-162.5 1388.07,-155.5"/>
</g>
<!-- BoardDoService -->
<g id="node12" class="node">
<title>BoardDoService</title>
<ellipse fill="#fdb462" stroke="black" cx="1577" cy="-104" rx="75.28" ry="18"/>
<text text-anchor="middle" x="1577" y="-99.8" font-family="Times,serif" font-size="14.00">BoardDoService</text>
</g>
<!-- BoardDoService&#45;&gt;BoardModule -->
<g id="edge11" class="edge">
<title>BoardDoService&#45;&gt;BoardModule</title>
<path fill="none" stroke="black" d="M1517.2,-115.07C1517.2,-130.07 1517.2,-155 1517.2,-155 1517.2,-155 1387.99,-155 1387.99,-155"/>
<polygon fill="black" stroke="black" points="1387.99,-151.5 1377.99,-155 1387.99,-158.5 1387.99,-151.5"/>
</g>
<!-- BoardNodeRepo -->
<g id="node13" class="node">
<title>BoardNodeRepo</title>
<ellipse fill="#fdb462" stroke="black" cx="1408" cy="-104" rx="75.87" ry="18"/>
<text text-anchor="middle" x="1408" y="-99.8" font-family="Times,serif" font-size="14.00">BoardNodeRepo</text>
</g>
<!-- BoardNodeRepo&#45;&gt;BoardModule -->
<g id="edge12" class="edge">
<title>BoardNodeRepo&#45;&gt;BoardModule</title>
<path fill="none" stroke="black" d="M1354.97,-117.15C1354.97,-117.15 1354.97,-140.69 1354.97,-140.69"/>
<polygon fill="black" stroke="black" points="1351.47,-140.69 1354.97,-150.69 1358.47,-140.69 1351.47,-140.69"/>
</g>
<!-- CardService -->
<g id="node14" class="node">
<title>CardService</title>
<ellipse fill="#fdb462" stroke="black" cx="1255" cy="-104" rx="58.53" ry="18"/>
<text text-anchor="middle" x="1255" y="-99.8" font-family="Times,serif" font-size="14.00">CardService</text>
</g>
<!-- CardService&#45;&gt;BoardModule -->
<g id="edge13" class="edge">
<title>CardService&#45;&gt;BoardModule</title>
<path fill="none" stroke="black" d="M1298.94,-116.23C1298.94,-116.23 1298.94,-140.68 1298.94,-140.68"/>
<polygon fill="black" stroke="black" points="1295.44,-140.68 1298.94,-150.68 1302.44,-140.68 1295.44,-140.68"/>
</g>
<!-- ColumnBoardService -->
<g id="node15" class="node">
<title>ColumnBoardService</title>
<ellipse fill="#fdb462" stroke="black" cx="1084" cy="-104" rx="94.92" ry="18"/>
<text text-anchor="middle" x="1084" y="-99.8" font-family="Times,serif" font-size="14.00">ColumnBoardService</text>
</g>
<!-- ColumnBoardService&#45;&gt;BoardModule -->
<g id="edge14" class="edge">
<title>ColumnBoardService&#45;&gt;BoardModule</title>
<path fill="none" stroke="black" d="M1157.21,-115.57C1157.21,-130.62 1157.21,-155 1157.21,-155 1157.21,-155 1273.97,-155 1273.97,-155"/>
<polygon fill="black" stroke="black" points="1273.97,-158.5 1283.97,-155 1273.97,-151.5 1273.97,-158.5"/>
</g>
<!-- ColumnService -->
<g id="node16" class="node">
<title>ColumnService</title>
<ellipse fill="#fdb462" stroke="black" cx="900" cy="-104" rx="71.23" ry="18"/>
<text text-anchor="middle" x="900" y="-99.8" font-family="Times,serif" font-size="14.00">ColumnService</text>
</g>
<!-- ColumnService&#45;&gt;BoardModule -->
<g id="edge15" class="edge">
<title>ColumnService&#45;&gt;BoardModule</title>
<path fill="none" stroke="black" d="M896.83,-122.01C896.83,-138.05 896.83,-159 896.83,-159 896.83,-159 1274.12,-159 1274.12,-159"/>
<polygon fill="black" stroke="black" points="1274.12,-162.5 1284.12,-159 1274.12,-155.5 1274.12,-162.5"/>
</g>
<!-- ContentElementFactory -->
<g id="node17" class="node">
<title>ContentElementFactory</title>
<ellipse fill="#fdb462" stroke="black" cx="708" cy="-104" rx="103.09" ry="18"/>
<text text-anchor="middle" x="708" y="-99.8" font-family="Times,serif" font-size="14.00">ContentElementFactory</text>
</g>
<!-- ContentElementFactory&#45;&gt;BoardModule -->
<g id="edge16" class="edge">
<title>ContentElementFactory&#45;&gt;BoardModule</title>
<path fill="none" stroke="black" d="M708,-122.02C708,-139.37 708,-163 708,-163 708,-163 1274.17,-163 1274.17,-163"/>
<polygon fill="black" stroke="black" points="1274.17,-166.5 1284.17,-163 1274.17,-159.5 1274.17,-166.5"/>
</g>
<!-- ContentElementService -->
<g id="node18" class="node">
<title>ContentElementService</title>
<ellipse fill="#fdb462" stroke="black" cx="484" cy="-104" rx="102.51" ry="18"/>
<text text-anchor="middle" x="484" y="-99.8" font-family="Times,serif" font-size="14.00">ContentElementService</text>
</g>
<!-- ContentElementService&#45;&gt;BoardModule -->
<g id="edge17" class="edge">
<title>ContentElementService&#45;&gt;BoardModule</title>
<path fill="none" stroke="black" d="M484,-122.22C484,-140.83 484,-167 484,-167 484,-167 1273.95,-167 1273.95,-167"/>
<polygon fill="black" stroke="black" points="1273.95,-170.5 1283.95,-167 1273.95,-163.5 1273.95,-170.5"/>
</g>
<!-- CourseRepo -->
<g id="node19" class="node">
<title>CourseRepo</title>
<ellipse fill="#fdb462" stroke="black" cx="304" cy="-104" rx="58.55" ry="18"/>
<text text-anchor="middle" x="304" y="-99.8" font-family="Times,serif" font-size="14.00">CourseRepo</text>
</g>
<!-- CourseRepo&#45;&gt;BoardModule -->
<g id="edge18" class="edge">
<title>CourseRepo&#45;&gt;BoardModule</title>
<path fill="none" stroke="black" d="M304,-122.31C304,-142.15 304,-171 304,-171 304,-171 1274.2,-171 1274.2,-171"/>
<polygon fill="black" stroke="black" points="1274.2,-174.5 1284.2,-171 1274.2,-167.5 1274.2,-174.5"/>
</g>
<!-- RecursiveDeleteVisitor -->
<g id="node20" class="node">
<title>RecursiveDeleteVisitor</title>
<ellipse fill="#fdb462" stroke="black" cx="126" cy="-104" rx="101.84" ry="18"/>
<text text-anchor="middle" x="126" y="-99.8" font-family="Times,serif" font-size="14.00">RecursiveDeleteVisitor</text>
</g>
<!-- RecursiveDeleteVisitor&#45;&gt;BoardModule -->
<g id="edge19" class="edge">
<title>RecursiveDeleteVisitor&#45;&gt;BoardModule</title>
<path fill="none" stroke="black" d="M126,-122.28C126,-143.32 126,-175 126,-175 126,-175 1274.13,-175 1274.13,-175"/>
<polygon fill="black" stroke="black" points="1274.13,-178.5 1284.13,-175 1274.13,-171.5 1274.13,-178.5"/>
</g>
</g>
</svg>
