<?xml version="1.0" encoding="UTF-8" standalone="no"?>
<!DOCTYPE svg PUBLIC "-//W3C//DTD SVG 1.1//EN"
 "http://www.w3.org/Graphics/SVG/1.1/DTD/svg11.dtd">
<!-- Generated by graphviz version 2.47.0 (20210316.0004)
 -->
<!-- Title: dependencies Pages: 1 -->
<svg width="5107pt" height="284pt"
 viewBox="0.00 0.00 5107.00 284.00" xmlns="http://www.w3.org/2000/svg" xmlns:xlink="http://www.w3.org/1999/xlink">
<g id="graph0" class="graph" transform="scale(1 1) rotate(0) translate(4 280)">
<title>dependencies</title>
<polygon fill="white" stroke="transparent" points="-4,4 -4,-280 5103,-280 5103,4 -4,4"/>
<text text-anchor="start" x="2528.51" y="-42.4" font-family="Times-12" font-weight="bold" font-size="14.00">Legend</text>
<polygon fill="#ffffb3" stroke="transparent" points="2315.5,-10 2315.5,-30 2335.5,-30 2335.5,-10 2315.5,-10"/>
<text text-anchor="start" x="2339.13" y="-15.4" font-family="Times-12" font-size="14.00"> &#160;Declarations</text>
<polygon fill="#8dd3c7" stroke="transparent" points="2428.5,-10 2428.5,-30 2448.5,-30 2448.5,-10 2428.5,-10"/>
<text text-anchor="start" x="2452.23" y="-15.4" font-family="Times-12" font-size="14.00"> &#160;Module</text>
<polygon fill="#80b1d3" stroke="transparent" points="2514.5,-10 2514.5,-30 2534.5,-30 2534.5,-10 2514.5,-10"/>
<text text-anchor="start" x="2538.28" y="-15.4" font-family="Times-12" font-size="14.00"> &#160;Bootstrap</text>
<polygon fill="#fdb462" stroke="transparent" points="2611.5,-10 2611.5,-30 2631.5,-30 2631.5,-10 2611.5,-10"/>
<text text-anchor="start" x="2635.17" y="-15.4" font-family="Times-12" font-size="14.00"> &#160;Providers</text>
<polygon fill="#fb8072" stroke="transparent" points="2707.5,-10 2707.5,-30 2727.5,-30 2727.5,-10 2707.5,-10"/>
<text text-anchor="start" x="2731.23" y="-15.4" font-family="Times-12" font-size="14.00"> &#160;Exports</text>
<g id="clust1" class="cluster">
<title>cluster_BoardModule</title>
<polygon fill="none" stroke="black" stroke-dasharray="1,5" points="8,-70 8,-268 5091,-268 5091,-70 8,-70"/>
</g>
<g id="clust6" class="cluster">
<title>cluster_BoardModule_providers</title>
<polygon fill="none" stroke="black" points="1134,-78 1134,-130 5083,-130 5083,-78 1134,-78"/>
</g>
<g id="clust4" class="cluster">
<title>cluster_BoardModule_exports</title>
<polygon fill="none" stroke="black" points="1906,-208 1906,-260 2760,-260 2760,-208 1906,-208"/>
</g>
<g id="clust3" class="cluster">
<title>cluster_BoardModule_imports</title>
<polygon fill="none" stroke="black" points="16,-78 16,-130 1126,-130 1126,-78 16,-78"/>
</g>
<!-- CollaborativeTextEditorModule -->
<g id="node1" class="node">
<title>CollaborativeTextEditorModule</title>
<polygon fill="#8dd3c7" stroke="black" points="1118.41,-122 1115.41,-126 1094.41,-126 1091.41,-122 921.59,-122 921.59,-86 1118.41,-86 1118.41,-122"/>
<text text-anchor="middle" x="1020" y="-99.8" font-family="Times,serif" font-size="14.00">CollaborativeTextEditorModule</text>
</g>
<!-- BoardModule -->
<g id="node8" class="node">
<title>BoardModule</title>
<polygon fill="#8dd3c7" stroke="black" points="2325.76,-187 2322.76,-191 2301.76,-191 2298.76,-187 2232.24,-187 2232.24,-151 2325.76,-151 2325.76,-187"/>
<text text-anchor="middle" x="2279" y="-164.8" font-family="Times,serif" font-size="14.00">BoardModule</text>
</g>
<!-- CollaborativeTextEditorModule&#45;&gt;BoardModule -->
<g id="edge1" class="edge">
<title>CollaborativeTextEditorModule&#45;&gt;BoardModule</title>
<path fill="none" stroke="black" d="M1020,-122C1020,-139.68 1020,-164 1020,-164 1020,-164 2221.94,-164 2221.94,-164"/>
<polygon fill="black" stroke="black" points="2221.94,-167.5 2231.94,-164 2221.94,-160.5 2221.94,-167.5"/>
</g>
<!-- ContextExternalToolModule -->
<g id="node2" class="node">
<title>ContextExternalToolModule</title>
<polygon fill="#8dd3c7" stroke="black" points="903.75,-122 900.75,-126 879.75,-126 876.75,-122 726.25,-122 726.25,-86 903.75,-86 903.75,-122"/>
<text text-anchor="middle" x="815" y="-99.8" font-family="Times,serif" font-size="14.00">ContextExternalToolModule</text>
</g>
<!-- ContextExternalToolModule&#45;&gt;BoardModule -->
<g id="edge2" class="edge">
<title>ContextExternalToolModule&#45;&gt;BoardModule</title>
<path fill="none" stroke="black" d="M815,-122.22C815,-140.83 815,-167 815,-167 815,-167 2221.95,-167 2221.95,-167"/>
<polygon fill="black" stroke="black" points="2221.95,-170.5 2231.95,-167 2221.95,-163.5 2221.95,-170.5"/>
</g>
<!-- CopyHelperModule -->
<g id="node3" class="node">
<title>CopyHelperModule</title>
<polygon fill="#8dd3c7" stroke="black" points="707.97,-122 704.97,-126 683.97,-126 680.97,-122 580.03,-122 580.03,-86 707.97,-86 707.97,-122"/>
<text text-anchor="middle" x="644" y="-99.8" font-family="Times,serif" font-size="14.00">CopyHelperModule</text>
</g>
<!-- CopyHelperModule&#45;&gt;BoardModule -->
<g id="edge3" class="edge">
<title>CopyHelperModule&#45;&gt;BoardModule</title>
<path fill="none" stroke="black" d="M644,-122.11C644,-141.34 644,-169 644,-169 644,-169 2221.83,-169 2221.83,-169"/>
<polygon fill="black" stroke="black" points="2221.83,-172.5 2231.83,-169 2221.83,-165.5 2221.83,-172.5"/>
</g>
<!-- FilesStorageClientModule -->
<g id="node4" class="node">
<title>FilesStorageClientModule</title>
<polygon fill="#8dd3c7" stroke="black" points="561.76,-122 558.76,-126 537.76,-126 534.76,-122 398.24,-122 398.24,-86 561.76,-86 561.76,-122"/>
<text text-anchor="middle" x="480" y="-99.8" font-family="Times,serif" font-size="14.00">FilesStorageClientModule</text>
</g>
<!-- FilesStorageClientModule&#45;&gt;BoardModule -->
<g id="edge4" class="edge">
<title>FilesStorageClientModule&#45;&gt;BoardModule</title>
<path fill="none" stroke="black" d="M480,-122.22C480,-142.37 480,-172 480,-172 480,-172 2221.81,-172 2221.81,-172"/>
<polygon fill="black" stroke="black" points="2221.81,-175.5 2231.81,-172 2221.81,-168.5 2221.81,-175.5"/>
</g>
<!-- LoggerModule -->
<g id="node5" class="node">
<title>LoggerModule</title>
<polygon fill="#8dd3c7" stroke="black" points="379.98,-122 376.98,-126 355.98,-126 352.98,-122 280.02,-122 280.02,-86 379.98,-86 379.98,-122"/>
<text text-anchor="middle" x="330" y="-99.8" font-family="Times,serif" font-size="14.00">LoggerModule</text>
</g>
<!-- LoggerModule&#45;&gt;BoardModule -->
<g id="edge5" class="edge">
<title>LoggerModule&#45;&gt;BoardModule</title>
<path fill="none" stroke="black" d="M330,-122.28C330,-143.32 330,-175 330,-175 330,-175 2221.79,-175 2221.79,-175"/>
<polygon fill="black" stroke="black" points="2221.79,-178.5 2231.79,-175 2221.79,-171.5 2221.79,-178.5"/>
</g>
<!-- TldrawClientModule -->
<g id="node6" class="node">
<title>TldrawClientModule</title>
<polygon fill="#8dd3c7" stroke="black" points="262.2,-122 259.2,-126 238.2,-126 235.2,-122 127.8,-122 127.8,-86 262.2,-86 262.2,-122"/>
<text text-anchor="middle" x="195" y="-99.8" font-family="Times,serif" font-size="14.00">TldrawClientModule</text>
</g>
<!-- TldrawClientModule&#45;&gt;BoardModule -->
<g id="edge6" class="edge">
<title>TldrawClientModule&#45;&gt;BoardModule</title>
<path fill="none" stroke="black" d="M195,-122.04C195,-143.66 195,-177 195,-177 195,-177 2222.06,-177 2222.06,-177"/>
<polygon fill="black" stroke="black" points="2222.06,-180.5 2232.06,-177 2222.06,-173.5 2222.06,-180.5"/>
</g>
<!-- UserModule -->
<g id="node7" class="node">
<title>UserModule</title>
<polygon fill="#8dd3c7" stroke="black" points="109.98,-122 106.98,-126 85.98,-126 82.98,-122 24.02,-122 24.02,-86 109.98,-86 109.98,-122"/>
<text text-anchor="middle" x="67" y="-99.8" font-family="Times,serif" font-size="14.00">UserModule</text>
</g>
<!-- UserModule&#45;&gt;BoardModule -->
<g id="edge7" class="edge">
<title>UserModule&#45;&gt;BoardModule</title>
<path fill="none" stroke="black" d="M67,-122.01C67,-144.49 67,-180 67,-180 67,-180 2222.03,-180 2222.03,-180"/>
<polygon fill="black" stroke="black" points="2222.03,-183.5 2232.03,-180 2222.03,-176.5 2222.03,-183.5"/>
</g>
<!-- BoardCommonToolService  -->
<g id="node9" class="node">
<title>BoardCommonToolService </title>
<polygon fill="#fb8072" stroke="black" points="2752.25,-252 2577.75,-252 2577.75,-216 2752.25,-216 2752.25,-252"/>
<text text-anchor="middle" x="2665" y="-229.8" font-family="Times,serif" font-size="14.00">BoardCommonToolService </text>
</g>
<!-- BoardModule&#45;&gt;BoardCommonToolService  -->
<g id="edge8" class="edge">
<title>BoardModule&#45;&gt;BoardCommonToolService </title>
<path fill="none" stroke="black" stroke-dasharray="5,2" d="M2325.95,-182C2428.81,-182 2665,-182 2665,-182 2665,-182 2665,-205.81 2665,-205.81"/>
<polygon fill="black" stroke="black" points="2661.5,-205.81 2665,-215.81 2668.5,-205.81 2661.5,-205.81"/>
</g>
<!-- BoardNodeAuthorizableService  -->
<g id="node10" class="node">
<title>BoardNodeAuthorizableService </title>
<polygon fill="#fb8072" stroke="black" points="2559.59,-252 2360.41,-252 2360.41,-216 2559.59,-216 2559.59,-252"/>
<text text-anchor="middle" x="2460" y="-229.8" font-family="Times,serif" font-size="14.00">BoardNodeAuthorizableService </text>
</g>
<!-- BoardModule&#45;&gt;BoardNodeAuthorizableService  -->
<g id="edge9" class="edge">
<title>BoardModule&#45;&gt;BoardNodeAuthorizableService </title>
<path fill="none" stroke="black" stroke-dasharray="5,2" d="M2325.94,-185C2368.16,-185 2423.58,-185 2423.58,-185 2423.58,-185 2423.58,-205.75 2423.58,-205.75"/>
<polygon fill="black" stroke="black" points="2420.08,-205.75 2423.58,-215.75 2427.08,-205.75 2420.08,-205.75"/>
</g>
<!-- BoardNodeFactory  -->
<g id="node11" class="node">
<title>BoardNodeFactory </title>
<polygon fill="#fb8072" stroke="black" points="2342.3,-252 2215.7,-252 2215.7,-216 2342.3,-216 2342.3,-252"/>
<text text-anchor="middle" x="2279" y="-229.8" font-family="Times,serif" font-size="14.00">BoardNodeFactory </text>
</g>
<!-- BoardModule&#45;&gt;BoardNodeFactory  -->
<g id="edge10" class="edge">
<title>BoardModule&#45;&gt;BoardNodeFactory </title>
<path fill="none" stroke="black" stroke-dasharray="5,2" d="M2279,-187.11C2279,-187.11 2279,-205.99 2279,-205.99"/>
<polygon fill="black" stroke="black" points="2275.5,-205.99 2279,-215.99 2282.5,-205.99 2275.5,-205.99"/>
</g>
<!-- BoardNodeService  -->
<g id="node12" class="node">
<title>BoardNodeService </title>
<polygon fill="#fb8072" stroke="black" points="2198.01,-252 2071.99,-252 2071.99,-216 2198.01,-216 2198.01,-252"/>
<text text-anchor="middle" x="2135" y="-229.8" font-family="Times,serif" font-size="14.00">BoardNodeService </text>
</g>
<!-- BoardModule&#45;&gt;BoardNodeService  -->
<g id="edge11" class="edge">
<title>BoardModule&#45;&gt;BoardNodeService </title>
<path fill="none" stroke="black" stroke-dasharray="5,2" d="M2231.85,-185C2189.85,-185 2135,-185 2135,-185 2135,-185 2135,-205.75 2135,-205.75"/>
<polygon fill="black" stroke="black" points="2131.5,-205.75 2135,-215.75 2138.5,-205.75 2131.5,-205.75"/>
</g>
<!-- ColumnBoardService  -->
<g id="node13" class="node">
<title>ColumnBoardService </title>
<polygon fill="#fb8072" stroke="black" points="2054.31,-252 1913.69,-252 1913.69,-216 2054.31,-216 2054.31,-252"/>
<text text-anchor="middle" x="1984" y="-229.8" font-family="Times,serif" font-size="14.00">ColumnBoardService </text>
</g>
<!-- BoardModule&#45;&gt;ColumnBoardService  -->
<g id="edge12" class="edge">
<title>BoardModule&#45;&gt;ColumnBoardService </title>
<path fill="none" stroke="black" stroke-dasharray="5,2" d="M2231.98,-182C2163.35,-182 2043.84,-182 2043.84,-182 2043.84,-182 2043.84,-205.81 2043.84,-205.81"/>
<polygon fill="black" stroke="black" points="2040.34,-205.81 2043.84,-215.81 2047.34,-205.81 2040.34,-205.81"/>
</g>
<!-- BoardCommonToolService -->
<g id="node14" class="node">
<title>BoardCommonToolService</title>
<ellipse fill="#fdb462" stroke="black" cx="4957" cy="-104" rx="117.56" ry="18"/>
<text text-anchor="middle" x="4957" y="-99.8" font-family="Times,serif" font-size="14.00">BoardCommonToolService</text>
</g>
<!-- BoardCommonToolService&#45;&gt;BoardModule -->
<g id="edge13" class="edge">
<title>BoardCommonToolService&#45;&gt;BoardModule</title>
<path fill="none" stroke="black" d="M4957,-122.01C4957,-144.49 4957,-180 4957,-180 4957,-180 2335.76,-180 2335.76,-180"/>
<polygon fill="black" stroke="black" points="2335.76,-176.5 2325.76,-180 2335.76,-183.5 2335.76,-176.5"/>
</g>
<!-- BoardContextService -->
<g id="node15" class="node">
<title>BoardContextService</title>
<ellipse fill="#fdb462" stroke="black" cx="4727" cy="-104" rx="94.34" ry="18"/>
<text text-anchor="middle" x="4727" y="-99.8" font-family="Times,serif" font-size="14.00">BoardContextService</text>
</g>
<!-- BoardContextService&#45;&gt;BoardModule -->
<g id="edge14" class="edge">
<title>BoardContextService&#45;&gt;BoardModule</title>
<path fill="none" stroke="black" d="M4727,-122.04C4727,-143.66 4727,-177 4727,-177 4727,-177 2335.99,-177 2335.99,-177"/>
<polygon fill="black" stroke="black" points="2335.99,-173.5 2325.99,-177 2335.99,-180.5 2335.99,-173.5"/>
</g>
<!-- BoardNodeAuthorizableService -->
<g id="node16" class="node">
<title>BoardNodeAuthorizableService</title>
<ellipse fill="#fdb462" stroke="black" cx="4480" cy="-104" rx="134.83" ry="18"/>
<text text-anchor="middle" x="4480" y="-99.8" font-family="Times,serif" font-size="14.00">BoardNodeAuthorizableService</text>
</g>
<!-- BoardNodeAuthorizableService&#45;&gt;BoardModule -->
<g id="edge15" class="edge">
<title>BoardNodeAuthorizableService&#45;&gt;BoardModule</title>
<path fill="none" stroke="black" d="M4480,-122.28C4480,-143.32 4480,-175 4480,-175 4480,-175 2335.99,-175 2335.99,-175"/>
<polygon fill="black" stroke="black" points="2335.99,-171.5 2325.99,-175 2335.99,-178.5 2335.99,-171.5"/>
</g>
<!-- BoardNodeCopyService -->
<g id="node17" class="node">
<title>BoardNodeCopyService</title>
<ellipse fill="#fdb462" stroke="black" cx="4222" cy="-104" rx="105.36" ry="18"/>
<text text-anchor="middle" x="4222" y="-99.8" font-family="Times,serif" font-size="14.00">BoardNodeCopyService</text>
</g>
<!-- BoardNodeCopyService&#45;&gt;BoardModule -->
<g id="edge16" class="edge">
<title>BoardNodeCopyService&#45;&gt;BoardModule</title>
<path fill="none" stroke="black" d="M4222,-122.22C4222,-142.37 4222,-172 4222,-172 4222,-172 2336.07,-172 2336.07,-172"/>
<polygon fill="black" stroke="black" points="2336.07,-168.5 2326.07,-172 2336.07,-175.5 2336.07,-168.5"/>
</g>
<!-- BoardNodeDeleteHooksService -->
<g id="node18" class="node">
<title>BoardNodeDeleteHooksService</title>
<ellipse fill="#fdb462" stroke="black" cx="3964" cy="-104" rx="134.83" ry="18"/>
<text text-anchor="middle" x="3964" y="-99.8" font-family="Times,serif" font-size="14.00">BoardNodeDeleteHooksService</text>
</g>
<!-- BoardNodeDeleteHooksService&#45;&gt;BoardModule -->
<g id="edge17" class="edge">
<title>BoardNodeDeleteHooksService&#45;&gt;BoardModule</title>
<path fill="none" stroke="black" d="M3964,-122.11C3964,-141.34 3964,-169 3964,-169 3964,-169 2335.83,-169 2335.83,-169"/>
<polygon fill="black" stroke="black" points="2335.83,-165.5 2325.83,-169 2335.83,-172.5 2335.83,-165.5"/>
</g>
<!-- BoardNodeFactory -->
<g id="node19" class="node">
<title>BoardNodeFactory</title>
<ellipse fill="#fdb462" stroke="black" cx="3726" cy="-104" rx="85.09" ry="18"/>
<text text-anchor="middle" x="3726" y="-99.8" font-family="Times,serif" font-size="14.00">BoardNodeFactory</text>
</g>
<!-- BoardNodeFactory&#45;&gt;BoardModule -->
<g id="edge18" class="edge">
<title>BoardNodeFactory&#45;&gt;BoardModule</title>
<path fill="none" stroke="black" d="M3726,-122.22C3726,-140.83 3726,-167 3726,-167 3726,-167 2335.91,-167 2335.91,-167"/>
<polygon fill="black" stroke="black" points="2335.91,-163.5 2325.91,-167 2335.91,-170.5 2335.91,-163.5"/>
</g>
<!-- BoardNodeRepo -->
<g id="node20" class="node">
<title>BoardNodeRepo</title>
<ellipse fill="#fdb462" stroke="black" cx="3547" cy="-104" rx="75.87" ry="18"/>
<text text-anchor="middle" x="3547" y="-99.8" font-family="Times,serif" font-size="14.00">BoardNodeRepo</text>
</g>
<!-- BoardNodeRepo&#45;&gt;BoardModule -->
<g id="edge19" class="edge">
<title>BoardNodeRepo&#45;&gt;BoardModule</title>
<path fill="none" stroke="black" d="M3547,-122C3547,-139.68 3547,-164 3547,-164 3547,-164 2336.01,-164 2336.01,-164"/>
<polygon fill="black" stroke="black" points="2336.01,-160.5 2326.01,-164 2336.01,-167.5 2336.01,-160.5"/>
</g>
<!-- BoardNodeService -->
<g id="node21" class="node">
<title>BoardNodeService</title>
<ellipse fill="#fdb462" stroke="black" cx="3369" cy="-104" rx="84.51" ry="18"/>
<text text-anchor="middle" x="3369" y="-99.8" font-family="Times,serif" font-size="14.00">BoardNodeService</text>
</g>
<!-- BoardNodeService&#45;&gt;BoardModule -->
<g id="edge20" class="edge">
<title>BoardNodeService&#45;&gt;BoardModule</title>
<path fill="none" stroke="black" d="M3369,-122.03C3369,-139.06 3369,-162 3369,-162 3369,-162 2335.84,-162 2335.84,-162"/>
<polygon fill="black" stroke="black" points="2335.84,-158.5 2325.84,-162 2335.84,-165.5 2335.84,-158.5"/>
</g>
<!-- ColumnBoardCopyService -->
<g id="node22" class="node">
<title>ColumnBoardCopyService</title>
<ellipse fill="#fdb462" stroke="black" cx="3151" cy="-104" rx="115.78" ry="18"/>
<text text-anchor="middle" x="3151" y="-99.8" font-family="Times,serif" font-size="14.00">ColumnBoardCopyService</text>
</g>
<!-- ColumnBoardCopyService&#45;&gt;BoardModule -->
<g id="edge21" class="edge">
<title>ColumnBoardCopyService&#45;&gt;BoardModule</title>
<path fill="none" stroke="black" d="M3151,-122.01C3151,-138.05 3151,-159 3151,-159 3151,-159 2335.88,-159 2335.88,-159"/>
<polygon fill="black" stroke="black" points="2335.88,-155.5 2325.88,-159 2335.88,-162.5 2335.88,-155.5"/>
</g>
<!-- ColumnBoardLinkService -->
<g id="node23" class="node">
<title>ColumnBoardLinkService</title>
<ellipse fill="#fdb462" stroke="black" cx="2904" cy="-104" rx="112.9" ry="18"/>
<text text-anchor="middle" x="2904" y="-99.8" font-family="Times,serif" font-size="14.00">ColumnBoardLinkService</text>
</g>
<!-- ColumnBoardLinkService&#45;&gt;BoardModule -->
<g id="edge22" class="edge">
<title>ColumnBoardLinkService&#45;&gt;BoardModule</title>
<path fill="none" stroke="black" d="M2904,-122.24C2904,-137.57 2904,-157 2904,-157 2904,-157 2335.98,-157 2335.98,-157"/>
<polygon fill="black" stroke="black" points="2335.98,-153.5 2325.98,-157 2335.98,-160.5 2335.98,-153.5"/>
</g>
<!-- ColumnBoardReferenceService -->
<g id="node24" class="node">
<title>ColumnBoardReferenceService</title>
<ellipse fill="#fdb462" stroke="black" cx="2639" cy="-104" rx="133.69" ry="18"/>
<text text-anchor="middle" x="2639" y="-99.8" font-family="Times,serif" font-size="14.00">ColumnBoardReferenceService</text>
</g>
<!-- ColumnBoardReferenceService&#45;&gt;BoardModule -->
<g id="edge23" class="edge">
<title>ColumnBoardReferenceService&#45;&gt;BoardModule</title>
<path fill="none" stroke="black" d="M2532.35,-115.1C2532.35,-129.83 2532.35,-154 2532.35,-154 2532.35,-154 2335.76,-154 2335.76,-154"/>
<polygon fill="black" stroke="black" points="2335.76,-150.5 2325.76,-154 2335.76,-157.5 2335.76,-150.5"/>
</g>
<!-- ColumnBoardService -->
<g id="node25" class="node">
<title>ColumnBoardService</title>
<ellipse fill="#fdb462" stroke="black" cx="2392" cy="-104" rx="94.92" ry="18"/>
<text text-anchor="middle" x="2392" y="-99.8" font-family="Times,serif" font-size="14.00">ColumnBoardService</text>
</g>
<!-- ColumnBoardService&#45;&gt;BoardModule -->
<g id="edge24" class="edge">
<title>ColumnBoardService&#45;&gt;BoardModule</title>
<path fill="none" stroke="black" d="M2311.58,-113.59C2311.58,-113.59 2311.58,-140.75 2311.58,-140.75"/>
<polygon fill="black" stroke="black" points="2308.08,-140.75 2311.58,-150.75 2315.08,-140.75 2308.08,-140.75"/>
</g>
<!-- ColumnBoardTitleService -->
<g id="node26" class="node">
<title>ColumnBoardTitleService</title>
<ellipse fill="#fdb462" stroke="black" cx="2166" cy="-104" rx="112.9" ry="18"/>
<text text-anchor="middle" x="2166" y="-99.8" font-family="Times,serif" font-size="14.00">ColumnBoardTitleService</text>
</g>
<!-- ColumnBoardTitleService&#45;&gt;BoardModule -->
<g id="edge25" class="edge">
<title>ColumnBoardTitleService&#45;&gt;BoardModule</title>
<path fill="none" stroke="black" d="M2255.53,-115.03C2255.53,-115.03 2255.53,-140.78 2255.53,-140.78"/>
<polygon fill="black" stroke="black" points="2252.03,-140.78 2255.53,-150.78 2259.03,-140.78 2252.03,-140.78"/>
</g>
<!-- ContentElementUpdateService -->
<g id="node27" class="node">
<title>ContentElementUpdateService</title>
<ellipse fill="#fdb462" stroke="black" cx="1904" cy="-104" rx="130.78" ry="18"/>
<text text-anchor="middle" x="1904" y="-99.8" font-family="Times,serif" font-size="14.00">ContentElementUpdateService</text>
</g>
<!-- ContentElementUpdateService&#45;&gt;BoardModule -->
<g id="edge26" class="edge">
<title>ContentElementUpdateService&#45;&gt;BoardModule</title>
<path fill="none" stroke="black" d="M1974.12,-119.27C1974.12,-133.98 1974.12,-154 1974.12,-154 1974.12,-154 2222.03,-154 2222.03,-154"/>
<polygon fill="black" stroke="black" points="2222.03,-157.5 2232.03,-154 2222.03,-150.5 2222.03,-157.5"/>
</g>
<!-- CourseRepo -->
<g id="node28" class="node">
<title>CourseRepo</title>
<ellipse fill="#fdb462" stroke="black" cx="1697" cy="-104" rx="58.55" ry="18"/>
<text text-anchor="middle" x="1697" y="-99.8" font-family="Times,serif" font-size="14.00">CourseRepo</text>
</g>
<!-- CourseRepo&#45;&gt;BoardModule -->
<g id="edge27" class="edge">
<title>CourseRepo&#45;&gt;BoardModule</title>
<path fill="none" stroke="black" d="M1697,-122.24C1697,-137.57 1697,-157 1697,-157 1697,-157 2221.87,-157 2221.87,-157"/>
<polygon fill="black" stroke="black" points="2221.87,-160.5 2231.87,-157 2221.87,-153.5 2221.87,-160.5"/>
</g>
<!-- MediaBoardService -->
<g id="node29" class="node">
<title>MediaBoardService</title>
<ellipse fill="#fdb462" stroke="black" cx="1532" cy="-104" rx="88.02" ry="18"/>
<text text-anchor="middle" x="1532" y="-99.8" font-family="Times,serif" font-size="14.00">MediaBoardService</text>
</g>
<!-- MediaBoardService&#45;&gt;BoardModule -->
<g id="edge28" class="edge">
<title>MediaBoardService&#45;&gt;BoardModule</title>
<path fill="none" stroke="black" d="M1532,-122.01C1532,-138.05 1532,-159 1532,-159 1532,-159 2221.99,-159 2221.99,-159"/>
<polygon fill="black" stroke="black" points="2221.99,-162.5 2231.99,-159 2221.99,-155.5 2221.99,-162.5"/>
</g>
<!-- UserDeletedEventHandlerService -->
<g id="node30" class="node">
<title>UserDeletedEventHandlerService</title>
<ellipse fill="#fdb462" stroke="black" cx="1284" cy="-104" rx="141.75" ry="18"/>
<text text-anchor="middle" x="1284" y="-99.8" font-family="Times,serif" font-size="14.00">UserDeletedEventHandlerService</text>
</g>
<!-- UserDeletedEventHandlerService&#45;&gt;BoardModule -->
<g id="edge29" class="edge">
<title>UserDeletedEventHandlerService&#45;&gt;BoardModule</title>
<path fill="none" stroke="black" d="M1284,-122.03C1284,-139.06 1284,-162 1284,-162 1284,-162 2222.01,-162 2222.01,-162"/>
<polygon fill="black" stroke="black" points="2222.01,-165.5 2232.01,-162 2222.01,-158.5 2222.01,-165.5"/>
</g>
</g>
</svg>
