<?xml version="1.0" encoding="UTF-8" standalone="no"?>
<!DOCTYPE svg PUBLIC "-//W3C//DTD SVG 1.1//EN"
 "http://www.w3.org/Graphics/SVG/1.1/DTD/svg11.dtd">
<!-- Generated by graphviz version 2.47.0 (20210316.0004)
 -->
<!-- Title: dependencies Pages: 1 -->
<svg width="3705pt" height="284pt"
 viewBox="0.00 0.00 3705.00 284.00" xmlns="http://www.w3.org/2000/svg" xmlns:xlink="http://www.w3.org/1999/xlink">
<g id="graph0" class="graph" transform="scale(1 1) rotate(0) translate(4 280)">
<title>dependencies</title>
<polygon fill="white" stroke="transparent" points="-4,4 -4,-280 3701,-280 3701,4 -4,4"/>
<text text-anchor="start" x="1827.51" y="-42.4" font-family="Times-12" font-weight="bold" font-size="14.00">Legend</text>
<polygon fill="#ffffb3" stroke="transparent" points="1614.5,-10 1614.5,-30 1634.5,-30 1634.5,-10 1614.5,-10"/>
<text text-anchor="start" x="1638.13" y="-15.4" font-family="Times-12" font-size="14.00"> &#160;Declarations</text>
<polygon fill="#8dd3c7" stroke="transparent" points="1727.5,-10 1727.5,-30 1747.5,-30 1747.5,-10 1727.5,-10"/>
<text text-anchor="start" x="1751.23" y="-15.4" font-family="Times-12" font-size="14.00"> &#160;Module</text>
<polygon fill="#80b1d3" stroke="transparent" points="1813.5,-10 1813.5,-30 1833.5,-30 1833.5,-10 1813.5,-10"/>
<text text-anchor="start" x="1837.28" y="-15.4" font-family="Times-12" font-size="14.00"> &#160;Bootstrap</text>
<polygon fill="#fdb462" stroke="transparent" points="1910.5,-10 1910.5,-30 1930.5,-30 1930.5,-10 1910.5,-10"/>
<text text-anchor="start" x="1934.17" y="-15.4" font-family="Times-12" font-size="14.00"> &#160;Providers</text>
<polygon fill="#fb8072" stroke="transparent" points="2006.5,-10 2006.5,-30 2026.5,-30 2026.5,-10 2006.5,-10"/>
<text text-anchor="start" x="2030.23" y="-15.4" font-family="Times-12" font-size="14.00"> &#160;Exports</text>
<g id="clust1" class="cluster">
<title>cluster_BoardModule</title>
<polygon fill="none" stroke="black" stroke-dasharray="1,5" points="8,-70 8,-268 3689,-268 3689,-70 8,-70"/>
</g>
<g id="clust4" class="cluster">
<title>cluster_BoardModule_exports</title>
<polygon fill="none" stroke="black" points="1530,-208 1530,-260 2652,-260 2652,-208 1530,-208"/>
</g>
<g id="clust3" class="cluster">
<title>cluster_BoardModule_imports</title>
<polygon fill="none" stroke="black" points="3119,-78 3119,-130 3681,-130 3681,-78 3119,-78"/>
</g>
<g id="clust6" class="cluster">
<title>cluster_BoardModule_providers</title>
<polygon fill="none" stroke="black" points="16,-78 16,-130 3111,-130 3111,-78 16,-78"/>
</g>
<!-- ConsoleWriterModule -->
<g id="node1" class="node">
<title>ConsoleWriterModule</title>
<polygon fill="#8dd3c7" stroke="black" points="3672.97,-122 3669.97,-126 3648.97,-126 3645.97,-122 3531.03,-122 3531.03,-86 3672.97,-86 3672.97,-122"/>
<text text-anchor="middle" x="3602" y="-99.8" font-family="Times,serif" font-size="14.00">ConsoleWriterModule</text>
</g>
<!-- BoardModule -->
<g id="node5" class="node">
<title>BoardModule</title>
<polygon fill="#8dd3c7" stroke="black" points="2120.76,-187 2117.76,-191 2096.76,-191 2093.76,-187 2027.24,-187 2027.24,-151 2120.76,-151 2120.76,-187"/>
<text text-anchor="middle" x="2074" y="-164.8" font-family="Times,serif" font-size="14.00">BoardModule</text>
</g>
<!-- ConsoleWriterModule&#45;&gt;BoardModule -->
<g id="edge1" class="edge">
<title>ConsoleWriterModule&#45;&gt;BoardModule</title>
<path fill="none" stroke="black" d="M3602,-122.17C3602,-143.5 3602,-176 3602,-176 3602,-176 2130.98,-176 2130.98,-176"/>
<polygon fill="black" stroke="black" points="2130.98,-172.5 2120.98,-176 2130.98,-179.5 2130.98,-172.5"/>
</g>
<!-- FilesStorageClientModule -->
<g id="node2" class="node">
<title>FilesStorageClientModule</title>
<polygon fill="#8dd3c7" stroke="black" points="3512.76,-122 3509.76,-126 3488.76,-126 3485.76,-122 3349.24,-122 3349.24,-86 3512.76,-86 3512.76,-122"/>
<text text-anchor="middle" x="3431" y="-99.8" font-family="Times,serif" font-size="14.00">FilesStorageClientModule</text>
</g>
<!-- FilesStorageClientModule&#45;&gt;BoardModule -->
<g id="edge2" class="edge">
<title>FilesStorageClientModule&#45;&gt;BoardModule</title>
<path fill="none" stroke="black" d="M3431,-122.03C3431,-142.77 3431,-174 3431,-174 3431,-174 2131.11,-174 2131.11,-174"/>
<polygon fill="black" stroke="black" points="2131.11,-170.5 2121.11,-174 2131.11,-177.5 2131.11,-170.5"/>
</g>
<!-- LoggerModule -->
<g id="node3" class="node">
<title>LoggerModule</title>
<polygon fill="#8dd3c7" stroke="black" points="3330.98,-122 3327.98,-126 3306.98,-126 3303.98,-122 3231.02,-122 3231.02,-86 3330.98,-86 3330.98,-122"/>
<text text-anchor="middle" x="3281" y="-99.8" font-family="Times,serif" font-size="14.00">LoggerModule</text>
</g>
<!-- LoggerModule&#45;&gt;BoardModule -->
<g id="edge3" class="edge">
<title>LoggerModule&#45;&gt;BoardModule</title>
<path fill="none" stroke="black" d="M3281,-122.31C3281,-142.15 3281,-171 3281,-171 3281,-171 2130.95,-171 2130.95,-171"/>
<polygon fill="black" stroke="black" points="2130.95,-167.5 2120.95,-171 2130.95,-174.5 2130.95,-167.5"/>
</g>
<!-- UserModule -->
<g id="node4" class="node">
<title>UserModule</title>
<polygon fill="#8dd3c7" stroke="black" points="3212.98,-122 3209.98,-126 3188.98,-126 3185.98,-122 3127.02,-122 3127.02,-86 3212.98,-86 3212.98,-122"/>
<text text-anchor="middle" x="3170" y="-99.8" font-family="Times,serif" font-size="14.00">UserModule</text>
</g>
<!-- UserModule&#45;&gt;BoardModule -->
<g id="edge4" class="edge">
<title>UserModule&#45;&gt;BoardModule</title>
<path fill="none" stroke="black" d="M3170,-122.17C3170,-141.09 3170,-168 3170,-168 3170,-168 2131.09,-168 2131.09,-168"/>
<polygon fill="black" stroke="black" points="2131.09,-164.5 2121.09,-168 2131.09,-171.5 2131.09,-164.5"/>
</g>
<!-- BoardDoAuthorizableService  -->
<g id="node6" class="node">
<title>BoardDoAuthorizableService </title>
<polygon fill="#fb8072" stroke="black" points="2643.88,-252 2458.12,-252 2458.12,-216 2643.88,-216 2643.88,-252"/>
<text text-anchor="middle" x="2551" y="-229.8" font-family="Times,serif" font-size="14.00">BoardDoAuthorizableService </text>
</g>
<!-- BoardModule&#45;&gt;BoardDoAuthorizableService  -->
<g id="edge5" class="edge">
<title>BoardModule&#45;&gt;BoardDoAuthorizableService </title>
<path fill="none" stroke="black" stroke-dasharray="5,2" d="M2121.13,-179C2225.05,-179 2464.73,-179 2464.73,-179 2464.73,-179 2464.73,-205.99 2464.73,-205.99"/>
<polygon fill="black" stroke="black" points="2461.23,-205.99 2464.73,-215.99 2468.23,-205.99 2461.23,-205.99"/>
</g>
<!-- CardService  -->
<g id="node7" class="node">
<title>CardService </title>
<polygon fill="#fb8072" stroke="black" points="2440.19,-252 2351.81,-252 2351.81,-216 2440.19,-216 2440.19,-252"/>
<text text-anchor="middle" x="2396" y="-229.8" font-family="Times,serif" font-size="14.00">CardService </text>
</g>
<!-- BoardModule&#45;&gt;CardService  -->
<g id="edge6" class="edge">
<title>BoardModule&#45;&gt;CardService </title>
<path fill="none" stroke="black" stroke-dasharray="5,2" d="M2120.82,-182C2210.13,-182 2396,-182 2396,-182 2396,-182 2396,-205.81 2396,-205.81"/>
<polygon fill="black" stroke="black" points="2392.5,-205.81 2396,-215.81 2399.5,-205.81 2392.5,-205.81"/>
</g>
<!-- ColumnBoardCopyService  -->
<g id="node8" class="node">
<title>ColumnBoardCopyService </title>
<polygon fill="#fb8072" stroke="black" points="2333.64,-252 2162.36,-252 2162.36,-216 2333.64,-216 2333.64,-252"/>
<text text-anchor="middle" x="2248" y="-229.8" font-family="Times,serif" font-size="14.00">ColumnBoardCopyService </text>
</g>
<!-- BoardModule&#45;&gt;ColumnBoardCopyService  -->
<g id="edge7" class="edge">
<title>BoardModule&#45;&gt;ColumnBoardCopyService </title>
<path fill="none" stroke="black" stroke-dasharray="5,2" d="M2121.18,-185C2167.95,-185 2232.68,-185 2232.68,-185 2232.68,-185 2232.68,-205.75 2232.68,-205.75"/>
<polygon fill="black" stroke="black" points="2229.18,-205.75 2232.68,-215.75 2236.18,-205.75 2229.18,-205.75"/>
</g>
<!-- ColumnBoardService  -->
<g id="node9" class="node">
<title>ColumnBoardService </title>
<polygon fill="#fb8072" stroke="black" points="2144.31,-252 2003.69,-252 2003.69,-216 2144.31,-216 2144.31,-252"/>
<text text-anchor="middle" x="2074" y="-229.8" font-family="Times,serif" font-size="14.00">ColumnBoardService </text>
</g>
<!-- BoardModule&#45;&gt;ColumnBoardService  -->
<g id="edge8" class="edge">
<title>BoardModule&#45;&gt;ColumnBoardService </title>
<path fill="none" stroke="black" stroke-dasharray="5,2" d="M2074,-187.11C2074,-187.11 2074,-205.99 2074,-205.99"/>
<polygon fill="black" stroke="black" points="2070.5,-205.99 2074,-215.99 2077.5,-205.99 2070.5,-205.99"/>
</g>
<!-- ColumnService  -->
<g id="node10" class="node">
<title>ColumnService </title>
<polygon fill="#fb8072" stroke="black" points="1985.1,-252 1878.9,-252 1878.9,-216 1985.1,-216 1985.1,-252"/>
<text text-anchor="middle" x="1932" y="-229.8" font-family="Times,serif" font-size="14.00">ColumnService </text>
</g>
<!-- BoardModule&#45;&gt;ColumnService  -->
<g id="edge9" class="edge">
<title>BoardModule&#45;&gt;ColumnService </title>
<path fill="none" stroke="black" stroke-dasharray="5,2" d="M2027.11,-185C1985.75,-185 1932,-185 1932,-185 1932,-185 1932,-205.75 1932,-205.75"/>
<polygon fill="black" stroke="black" points="1928.5,-205.75 1932,-215.75 1935.5,-205.75 1928.5,-205.75"/>
</g>
<!-- ContentElementService  -->
<g id="node11" class="node">
<title>ContentElementService </title>
<polygon fill="#fb8072" stroke="black" points="1860.46,-252 1707.54,-252 1707.54,-216 1860.46,-216 1860.46,-252"/>
<text text-anchor="middle" x="1784" y="-229.8" font-family="Times,serif" font-size="14.00">ContentElementService </text>
</g>
<!-- BoardModule&#45;&gt;ContentElementService  -->
<g id="edge10" class="edge">
<title>BoardModule&#45;&gt;ContentElementService </title>
<path fill="none" stroke="black" stroke-dasharray="5,2" d="M2027.09,-182C1952.03,-182 1813.3,-182 1813.3,-182 1813.3,-182 1813.3,-205.81 1813.3,-205.81"/>
<polygon fill="black" stroke="black" points="1809.8,-205.81 1813.3,-215.81 1816.8,-205.81 1809.8,-205.81"/>
</g>
<!-- SubmissionItemService  -->
<g id="node12" class="node">
<title>SubmissionItemService </title>
<polygon fill="#fb8072" stroke="black" points="1690.48,-252 1537.52,-252 1537.52,-216 1690.48,-216 1690.48,-252"/>
<text text-anchor="middle" x="1614" y="-229.8" font-family="Times,serif" font-size="14.00">SubmissionItemService </text>
</g>
<!-- BoardModule&#45;&gt;SubmissionItemService  -->
<g id="edge11" class="edge">
<title>BoardModule&#45;&gt;SubmissionItemService </title>
<path fill="none" stroke="black" stroke-dasharray="5,2" d="M2027.2,-179C1912.13,-179 1624.76,-179 1624.76,-179 1624.76,-179 1624.76,-205.99 1624.76,-205.99"/>
<polygon fill="black" stroke="black" points="1621.26,-205.99 1624.76,-215.99 1628.26,-205.99 1621.26,-205.99"/>
</g>
<!-- BoardDoAuthorizableService -->
<g id="node13" class="node">
<title>BoardDoAuthorizableService</title>
<ellipse fill="#fdb462" stroke="black" cx="2977" cy="-104" rx="125.6" ry="18"/>
<text text-anchor="middle" x="2977" y="-99.8" font-family="Times,serif" font-size="14.00">BoardDoAuthorizableService</text>
</g>
<!-- BoardDoAuthorizableService&#45;&gt;BoardModule -->
<g id="edge12" class="edge">
<title>BoardDoAuthorizableService&#45;&gt;BoardModule</title>
<path fill="none" stroke="black" d="M2977,-122.3C2977,-140.27 2977,-165 2977,-165 2977,-165 2130.96,-165 2130.96,-165"/>
<polygon fill="black" stroke="black" points="2130.96,-161.5 2120.96,-165 2130.96,-168.5 2130.96,-161.5"/>
</g>
<!-- BoardDoCopyService -->
<g id="node14" class="node">
<title>BoardDoCopyService</title>
<ellipse fill="#fdb462" stroke="black" cx="2737" cy="-104" rx="96.13" ry="18"/>
<text text-anchor="middle" x="2737" y="-99.8" font-family="Times,serif" font-size="14.00">BoardDoCopyService</text>
</g>
<!-- BoardDoCopyService&#45;&gt;BoardModule -->
<g id="edge13" class="edge">
<title>BoardDoCopyService&#45;&gt;BoardModule</title>
<path fill="none" stroke="black" d="M2738.63,-122.02C2738.63,-139.37 2738.63,-163 2738.63,-163 2738.63,-163 2131,-163 2131,-163"/>
<polygon fill="black" stroke="black" points="2131,-159.5 2121,-163 2131,-166.5 2131,-159.5"/>
</g>
<!-- BoardDoRepo -->
<g id="node15" class="node">
<title>BoardDoRepo</title>
<ellipse fill="#fdb462" stroke="black" cx="2556" cy="-104" rx="66.64" ry="18"/>
<text text-anchor="middle" x="2556" y="-99.8" font-family="Times,serif" font-size="14.00">BoardDoRepo</text>
</g>
<!-- BoardDoRepo&#45;&gt;BoardModule -->
<g id="edge14" class="edge">
<title>BoardDoRepo&#45;&gt;BoardModule</title>
<path fill="none" stroke="black" d="M2556,-122.03C2556,-138.4 2556,-160 2556,-160 2556,-160 2131.09,-160 2131.09,-160"/>
<polygon fill="black" stroke="black" points="2131.09,-156.5 2121.09,-160 2131.09,-163.5 2131.09,-156.5"/>
</g>
<!-- BoardDoService -->
<g id="node16" class="node">
<title>BoardDoService</title>
<ellipse fill="#fdb462" stroke="black" cx="2396" cy="-104" rx="75.28" ry="18"/>
<text text-anchor="middle" x="2396" y="-99.8" font-family="Times,serif" font-size="14.00">BoardDoService</text>
</g>
<!-- BoardDoService&#45;&gt;BoardModule -->
<g id="edge15" class="edge">
<title>BoardDoService&#45;&gt;BoardModule</title>
<path fill="none" stroke="black" d="M2327.09,-111.37C2327.09,-125.93 2327.09,-157 2327.09,-157 2327.09,-157 2131.01,-157 2131.01,-157"/>
<polygon fill="black" stroke="black" points="2131.01,-153.5 2121.01,-157 2131.01,-160.5 2131.01,-153.5"/>
</g>
<!-- BoardNodeRepo -->
<g id="node17" class="node">
<title>BoardNodeRepo</title>
<ellipse fill="#fdb462" stroke="black" cx="2227" cy="-104" rx="75.87" ry="18"/>
<text text-anchor="middle" x="2227" y="-99.8" font-family="Times,serif" font-size="14.00">BoardNodeRepo</text>
</g>
<!-- BoardNodeRepo&#45;&gt;BoardModule -->
<g id="edge16" class="edge">
<title>BoardNodeRepo&#45;&gt;BoardModule</title>
<path fill="none" stroke="black" d="M2156.75,-110.95C2156.75,-124.69 2156.75,-154 2156.75,-154 2156.75,-154 2131.17,-154 2131.17,-154"/>
<polygon fill="black" stroke="black" points="2131.17,-150.5 2121.17,-154 2131.17,-157.5 2131.17,-150.5"/>
</g>
<!-- CardService -->
<g id="node18" class="node">
<title>CardService</title>
<ellipse fill="#fdb462" stroke="black" cx="2074" cy="-104" rx="58.53" ry="18"/>
<text text-anchor="middle" x="2074" y="-99.8" font-family="Times,serif" font-size="14.00">CardService</text>
</g>
<!-- CardService&#45;&gt;BoardModule -->
<g id="edge17" class="edge">
<title>CardService&#45;&gt;BoardModule</title>
<path fill="none" stroke="black" d="M2074,-122.11C2074,-122.11 2074,-140.99 2074,-140.99"/>
<polygon fill="black" stroke="black" points="2070.5,-140.99 2074,-150.99 2077.5,-140.99 2070.5,-140.99"/>
</g>
<!-- ColumnBoardCopyService -->
<g id="node19" class="node">
<title>ColumnBoardCopyService</title>
<ellipse fill="#fdb462" stroke="black" cx="1882" cy="-104" rx="115.78" ry="18"/>
<text text-anchor="middle" x="1882" y="-99.8" font-family="Times,serif" font-size="14.00">ColumnBoardCopyService</text>
</g>
<!-- ColumnBoardCopyService&#45;&gt;BoardModule -->
<g id="edge18" class="edge">
<title>ColumnBoardCopyService&#45;&gt;BoardModule</title>
<path fill="none" stroke="black" d="M1991.47,-110.13C1991.47,-123.48 1991.47,-154 1991.47,-154 1991.47,-154 2016.95,-154 2016.95,-154"/>
<polygon fill="black" stroke="black" points="2016.95,-157.5 2026.95,-154 2016.95,-150.5 2016.95,-157.5"/>
</g>
<!-- ColumnBoardService -->
<g id="node20" class="node">
<title>ColumnBoardService</title>
<ellipse fill="#fdb462" stroke="black" cx="1654" cy="-104" rx="94.92" ry="18"/>
<text text-anchor="middle" x="1654" y="-99.8" font-family="Times,serif" font-size="14.00">ColumnBoardService</text>
</g>
<!-- ColumnBoardService&#45;&gt;BoardModule -->
<g id="edge19" class="edge">
<title>ColumnBoardService&#45;&gt;BoardModule</title>
<path fill="none" stroke="black" d="M1728.24,-115.24C1728.24,-130.8 1728.24,-157 1728.24,-157 1728.24,-157 2017.01,-157 2017.01,-157"/>
<polygon fill="black" stroke="black" points="2017.01,-160.5 2027.01,-157 2017.01,-153.5 2017.01,-160.5"/>
</g>
<!-- ColumnService -->
<g id="node21" class="node">
<title>ColumnService</title>
<ellipse fill="#fdb462" stroke="black" cx="1470" cy="-104" rx="71.23" ry="18"/>
<text text-anchor="middle" x="1470" y="-99.8" font-family="Times,serif" font-size="14.00">ColumnService</text>
</g>
<!-- ColumnService&#45;&gt;BoardModule -->
<g id="edge20" class="edge">
<title>ColumnService&#45;&gt;BoardModule</title>
<path fill="none" stroke="black" d="M1468.32,-122.03C1468.32,-138.4 1468.32,-160 1468.32,-160 1468.32,-160 2017.23,-160 2017.23,-160"/>
<polygon fill="black" stroke="black" points="2017.23,-163.5 2027.23,-160 2017.23,-156.5 2017.23,-163.5"/>
</g>
<!-- ContentElementFactory -->
<g id="node22" class="node">
<title>ContentElementFactory</title>
<ellipse fill="#fdb462" stroke="black" cx="1278" cy="-104" rx="103.09" ry="18"/>
<text text-anchor="middle" x="1278" y="-99.8" font-family="Times,serif" font-size="14.00">ContentElementFactory</text>
</g>
<!-- ContentElementFactory&#45;&gt;BoardModule -->
<g id="edge21" class="edge">
<title>ContentElementFactory&#45;&gt;BoardModule</title>
<path fill="none" stroke="black" d="M1278,-122.02C1278,-139.37 1278,-163 1278,-163 1278,-163 2017.18,-163 2017.18,-163"/>
<polygon fill="black" stroke="black" points="2017.18,-166.5 2027.18,-163 2017.18,-159.5 2017.18,-166.5"/>
</g>
<!-- ContentElementService -->
<g id="node23" class="node">
<title>ContentElementService</title>
<ellipse fill="#fdb462" stroke="black" cx="1054" cy="-104" rx="102.51" ry="18"/>
<text text-anchor="middle" x="1054" y="-99.8" font-family="Times,serif" font-size="14.00">ContentElementService</text>
</g>
<!-- ContentElementService&#45;&gt;BoardModule -->
<g id="edge22" class="edge">
<title>ContentElementService&#45;&gt;BoardModule</title>
<path fill="none" stroke="black" d="M1054,-122.3C1054,-140.27 1054,-165 1054,-165 1054,-165 2017.19,-165 2017.19,-165"/>
<polygon fill="black" stroke="black" points="2017.19,-168.5 2027.19,-165 2017.19,-161.5 2017.19,-168.5"/>
</g>
<!-- CourseRepo -->
<g id="node24" class="node">
<title>CourseRepo</title>
<ellipse fill="#fdb462" stroke="black" cx="874" cy="-104" rx="58.55" ry="18"/>
<text text-anchor="middle" x="874" y="-99.8" font-family="Times,serif" font-size="14.00">CourseRepo</text>
</g>
<!-- CourseRepo&#45;&gt;BoardModule -->
<g id="edge23" class="edge">
<title>CourseRepo&#45;&gt;BoardModule</title>
<path fill="none" stroke="black" d="M874,-122.17C874,-141.09 874,-168 874,-168 874,-168 2016.96,-168 2016.96,-168"/>
<polygon fill="black" stroke="black" points="2016.96,-171.5 2026.96,-168 2016.96,-164.5 2016.96,-171.5"/>
</g>
<!-- RecursiveDeleteVisitor -->
<g id="node25" class="node">
<title>RecursiveDeleteVisitor</title>
<ellipse fill="#fdb462" stroke="black" cx="696" cy="-104" rx="101.84" ry="18"/>
<text text-anchor="middle" x="696" y="-99.8" font-family="Times,serif" font-size="14.00">RecursiveDeleteVisitor</text>
</g>
<!-- RecursiveDeleteVisitor&#45;&gt;BoardModule -->
<g id="edge24" class="edge">
<title>RecursiveDeleteVisitor&#45;&gt;BoardModule</title>
<path fill="none" stroke="black" d="M696,-122.31C696,-142.15 696,-171 696,-171 696,-171 2016.96,-171 2016.96,-171"/>
<polygon fill="black" stroke="black" points="2016.96,-174.5 2026.96,-171 2016.96,-167.5 2016.96,-174.5"/>
</g>
<!-- SchoolSpecificFileCopyServiceFactory -->
<g id="node26" class="node">
<title>SchoolSpecificFileCopyServiceFactory</title>
<ellipse fill="#fdb462" stroke="black" cx="412" cy="-104" rx="163.8" ry="18"/>
<text text-anchor="middle" x="412" y="-99.8" font-family="Times,serif" font-size="14.00">SchoolSpecificFileCopyServiceFactory</text>
</g>
<!-- SchoolSpecificFileCopyServiceFactory&#45;&gt;BoardModule -->
<g id="edge25" class="edge">
<title>SchoolSpecificFileCopyServiceFactory&#45;&gt;BoardModule</title>
<path fill="none" stroke="black" d="M412,-122.03C412,-142.77 412,-174 412,-174 412,-174 2016.94,-174 2016.94,-174"/>
<polygon fill="black" stroke="black" points="2016.94,-177.5 2026.94,-174 2016.94,-170.5 2016.94,-177.5"/>
</g>
<!-- SubmissionItemService -->
<g id="node27" class="node">
<title>SubmissionItemService</title>
<ellipse fill="#fdb462" stroke="black" cx="127" cy="-104" rx="102.52" ry="18"/>
<text text-anchor="middle" x="127" y="-99.8" font-family="Times,serif" font-size="14.00">SubmissionItemService</text>
</g>
<!-- SubmissionItemService&#45;&gt;BoardModule -->
<g id="edge26" class="edge">
<title>SubmissionItemService&#45;&gt;BoardModule</title>
<path fill="none" stroke="black" d="M127,-122.17C127,-143.5 127,-176 127,-176 127,-176 2016.84,-176 2016.84,-176"/>
<polygon fill="black" stroke="black" points="2016.84,-179.5 2026.84,-176 2016.84,-172.5 2016.84,-179.5"/>
</g>
</g>
</svg>
