<?xml version="1.0" encoding="UTF-8" standalone="no"?>
<!DOCTYPE svg PUBLIC "-//W3C//DTD SVG 1.1//EN"
 "http://www.w3.org/Graphics/SVG/1.1/DTD/svg11.dtd">
<!-- Generated by graphviz version 2.47.0 (20210316.0004)
 -->
<!-- Title: dependencies Pages: 1 -->
<svg width="2381pt" height="284pt"
 viewBox="0.00 0.00 2381.00 284.00" xmlns="http://www.w3.org/2000/svg" xmlns:xlink="http://www.w3.org/1999/xlink">
<g id="graph0" class="graph" transform="scale(1 1) rotate(0) translate(4 280)">
<title>dependencies</title>
<polygon fill="white" stroke="transparent" points="-4,4 -4,-280 2377,-280 2377,4 -4,4"/>
<text text-anchor="start" x="1165.51" y="-42.4" font-family="Times-12" font-weight="bold" font-size="14.00">Legend</text>
<polygon fill="#ffffb3" stroke="transparent" points="952.5,-10 952.5,-30 972.5,-30 972.5,-10 952.5,-10"/>
<text text-anchor="start" x="976.13" y="-15.4" font-family="Times-12" font-size="14.00"> &#160;Declarations</text>
<polygon fill="#8dd3c7" stroke="transparent" points="1065.5,-10 1065.5,-30 1085.5,-30 1085.5,-10 1065.5,-10"/>
<text text-anchor="start" x="1089.23" y="-15.4" font-family="Times-12" font-size="14.00"> &#160;Module</text>
<polygon fill="#80b1d3" stroke="transparent" points="1151.5,-10 1151.5,-30 1171.5,-30 1171.5,-10 1151.5,-10"/>
<text text-anchor="start" x="1175.28" y="-15.4" font-family="Times-12" font-size="14.00"> &#160;Bootstrap</text>
<polygon fill="#fdb462" stroke="transparent" points="1248.5,-10 1248.5,-30 1268.5,-30 1268.5,-10 1248.5,-10"/>
<text text-anchor="start" x="1272.17" y="-15.4" font-family="Times-12" font-size="14.00"> &#160;Providers</text>
<polygon fill="#fb8072" stroke="transparent" points="1344.5,-10 1344.5,-30 1364.5,-30 1364.5,-10 1344.5,-10"/>
<text text-anchor="start" x="1368.23" y="-15.4" font-family="Times-12" font-size="14.00"> &#160;Exports</text>
<g id="clust1" class="cluster">
<title>cluster_BoardModule</title>
<polygon fill="none" stroke="black" stroke-dasharray="1,5" points="8,-70 8,-268 2365,-268 2365,-70 8,-70"/>
</g>
<g id="clust4" class="cluster">
<title>cluster_BoardModule_exports</title>
<polygon fill="none" stroke="black" points="858,-208 858,-260 1561,-260 1561,-208 858,-208"/>
</g>
<g id="clust6" class="cluster">
<title>cluster_BoardModule_providers</title>
<polygon fill="none" stroke="black" points="300,-78 300,-130 2357,-130 2357,-78 300,-78"/>
</g>
<g id="clust3" class="cluster">
<title>cluster_BoardModule_imports</title>
<polygon fill="none" stroke="black" points="16,-78 16,-130 292,-130 292,-78 16,-78"/>
</g>
<!-- ConsoleWriterModule -->
<g id="node1" class="node">
<title>ConsoleWriterModule</title>
<polygon fill="#8dd3c7" stroke="black" points="283.97,-122 280.97,-126 259.97,-126 256.97,-122 142.03,-122 142.03,-86 283.97,-86 283.97,-122"/>
<text text-anchor="middle" x="213" y="-99.8" font-family="Times,serif" font-size="14.00">ConsoleWriterModule</text>
</g>
<!-- BoardModule -->
<g id="node3" class="node">
<title>BoardModule</title>
<polygon fill="#8dd3c7" stroke="black" points="1278.76,-187 1275.76,-191 1254.76,-191 1251.76,-187 1185.24,-187 1185.24,-151 1278.76,-151 1278.76,-187"/>
<text text-anchor="middle" x="1232" y="-164.8" font-family="Times,serif" font-size="14.00">BoardModule</text>
</g>
<!-- ConsoleWriterModule&#45;&gt;BoardModule -->
<g id="edge1" class="edge">
<title>ConsoleWriterModule&#45;&gt;BoardModule</title>
<path fill="none" stroke="black" d="M213,-122.31C213,-142.15 213,-171 213,-171 213,-171 1175.23,-171 1175.23,-171"/>
<polygon fill="black" stroke="black" points="1175.23,-174.5 1185.23,-171 1175.23,-167.5 1175.23,-174.5"/>
</g>
<!-- LoggerModule -->
<g id="node2" class="node">
<title>LoggerModule</title>
<polygon fill="#8dd3c7" stroke="black" points="123.98,-122 120.98,-126 99.98,-126 96.98,-122 24.02,-122 24.02,-86 123.98,-86 123.98,-122"/>
<text text-anchor="middle" x="74" y="-99.8" font-family="Times,serif" font-size="14.00">LoggerModule</text>
</g>
<!-- LoggerModule&#45;&gt;BoardModule -->
<g id="edge2" class="edge">
<title>LoggerModule&#45;&gt;BoardModule</title>
<path fill="none" stroke="black" d="M74,-122.28C74,-143.32 74,-175 74,-175 74,-175 1175.17,-175 1175.17,-175"/>
<polygon fill="black" stroke="black" points="1175.17,-178.5 1185.17,-175 1175.17,-171.5 1175.17,-178.5"/>
</g>
<!-- BoardNodeService  -->
<g id="node4" class="node">
<title>BoardNodeService </title>
<polygon fill="#fb8072" stroke="black" points="1553.01,-252 1426.99,-252 1426.99,-216 1553.01,-216 1553.01,-252"/>
<text text-anchor="middle" x="1490" y="-229.8" font-family="Times,serif" font-size="14.00">BoardNodeService </text>
</g>
<!-- BoardModule&#45;&gt;BoardNodeService  -->
<g id="edge3" class="edge">
<title>BoardModule&#45;&gt;BoardNodeService </title>
<path fill="none" stroke="black" stroke-dasharray="5,2" d="M1278.87,-179C1341.41,-179 1444.38,-179 1444.38,-179 1444.38,-179 1444.38,-205.99 1444.38,-205.99"/>
<polygon fill="black" stroke="black" points="1440.88,-205.99 1444.38,-215.99 1447.88,-205.99 1440.88,-205.99"/>
</g>
<!-- CardService  -->
<g id="node5" class="node">
<title>CardService </title>
<polygon fill="#fb8072" stroke="black" points="1409.19,-252 1320.81,-252 1320.81,-216 1409.19,-216 1409.19,-252"/>
<text text-anchor="middle" x="1365" y="-229.8" font-family="Times,serif" font-size="14.00">CardService </text>
</g>
<!-- BoardModule&#45;&gt;CardService  -->
<g id="edge4" class="edge">
<title>BoardModule&#45;&gt;CardService </title>
<path fill="none" stroke="black" stroke-dasharray="5,2" d="M1278.89,-183C1306.27,-183 1335.47,-183 1335.47,-183 1335.47,-183 1335.47,-205.88 1335.47,-205.88"/>
<polygon fill="black" stroke="black" points="1331.98,-205.88 1335.47,-215.88 1338.98,-205.88 1331.98,-205.88"/>
</g>
<!-- ColumnBoardService  -->
<g id="node6" class="node">
<title>ColumnBoardService </title>
<polygon fill="#fb8072" stroke="black" points="1302.31,-252 1161.69,-252 1161.69,-216 1302.31,-216 1302.31,-252"/>
<text text-anchor="middle" x="1232" y="-229.8" font-family="Times,serif" font-size="14.00">ColumnBoardService </text>
</g>
<!-- BoardModule&#45;&gt;ColumnBoardService  -->
<g id="edge5" class="edge">
<title>BoardModule&#45;&gt;ColumnBoardService </title>
<path fill="none" stroke="black" stroke-dasharray="5,2" d="M1232,-187.11C1232,-187.11 1232,-205.99 1232,-205.99"/>
<polygon fill="black" stroke="black" points="1228.5,-205.99 1232,-215.99 1235.5,-205.99 1228.5,-205.99"/>
</g>
<!-- ColumnService  -->
<g id="node7" class="node">
<title>ColumnService </title>
<polygon fill="#fb8072" stroke="black" points="1143.1,-252 1036.9,-252 1036.9,-216 1143.1,-216 1143.1,-252"/>
<text text-anchor="middle" x="1090" y="-229.8" font-family="Times,serif" font-size="14.00">ColumnService </text>
</g>
<!-- BoardModule&#45;&gt;ColumnService  -->
<g id="edge6" class="edge">
<title>BoardModule&#45;&gt;ColumnService </title>
<path fill="none" stroke="black" stroke-dasharray="5,2" d="M1184.96,-183C1157.5,-183 1128.2,-183 1128.2,-183 1128.2,-183 1128.2,-205.88 1128.2,-205.88"/>
<polygon fill="black" stroke="black" points="1124.7,-205.88 1128.2,-215.88 1131.7,-205.88 1124.7,-205.88"/>
</g>
<!-- ContentElementService  -->
<g id="node8" class="node">
<title>ContentElementService </title>
<polygon fill="#fb8072" stroke="black" points="1018.46,-252 865.54,-252 865.54,-216 1018.46,-216 1018.46,-252"/>
<text text-anchor="middle" x="942" y="-229.8" font-family="Times,serif" font-size="14.00">ContentElementService </text>
</g>
<!-- BoardModule&#45;&gt;ContentElementService  -->
<g id="edge7" class="edge">
<title>BoardModule&#45;&gt;ContentElementService </title>
<path fill="none" stroke="black" stroke-dasharray="5,2" d="M1185.12,-179C1116.71,-179 997.56,-179 997.56,-179 997.56,-179 997.56,-205.99 997.56,-205.99"/>
<polygon fill="black" stroke="black" points="994.06,-205.99 997.56,-215.99 1001.06,-205.99 994.06,-205.99"/>
</g>
<!-- BoardDoRepo -->
<g id="node9" class="node">
<title>BoardDoRepo</title>
<ellipse fill="#fdb462" stroke="black" cx="2282" cy="-104" rx="66.64" ry="18"/>
<text text-anchor="middle" x="2282" y="-99.8" font-family="Times,serif" font-size="14.00">BoardDoRepo</text>
</g>
<!-- BoardDoRepo&#45;&gt;BoardModule -->
<g id="edge8" class="edge">
<title>BoardDoRepo&#45;&gt;BoardModule</title>
<path fill="none" stroke="black" d="M2282,-122.28C2282,-143.32 2282,-175 2282,-175 2282,-175 1288.81,-175 1288.81,-175"/>
<polygon fill="black" stroke="black" points="1288.81,-171.5 1278.81,-175 1288.81,-178.5 1288.81,-171.5"/>
</g>
<!-- BoardDoService -->
<g id="node10" class="node">
<title>BoardDoService</title>
<ellipse fill="#fdb462" stroke="black" cx="2122" cy="-104" rx="75.28" ry="18"/>
<text text-anchor="middle" x="2122" y="-99.8" font-family="Times,serif" font-size="14.00">BoardDoService</text>
</g>
<!-- BoardDoService&#45;&gt;BoardModule -->
<g id="edge9" class="edge">
<title>BoardDoService&#45;&gt;BoardModule</title>
<path fill="none" stroke="black" d="M2122,-122.31C2122,-142.15 2122,-171 2122,-171 2122,-171 1288.91,-171 1288.91,-171"/>
<polygon fill="black" stroke="black" points="1288.91,-167.5 1278.91,-171 1288.91,-174.5 1288.91,-167.5"/>
</g>
<!-- BoardManagementUc -->
<g id="node11" class="node">
<title>BoardManagementUc</title>
<ellipse fill="#fdb462" stroke="black" cx="1932" cy="-104" rx="96.11" ry="18"/>
<text text-anchor="middle" x="1932" y="-99.8" font-family="Times,serif" font-size="14.00">BoardManagementUc</text>
</g>
<!-- BoardManagementUc&#45;&gt;BoardModule -->
<g id="edge10" class="edge">
<title>BoardManagementUc&#45;&gt;BoardModule</title>
<path fill="none" stroke="black" d="M1932,-122.22C1932,-140.83 1932,-167 1932,-167 1932,-167 1289.02,-167 1289.02,-167"/>
<polygon fill="black" stroke="black" points="1289.02,-163.5 1279.02,-167 1289.02,-170.5 1289.02,-163.5"/>
</g>
<!-- BoardNodeRepo -->
<g id="node12" class="node">
<title>BoardNodeRepo</title>
<ellipse fill="#fdb462" stroke="black" cx="1742" cy="-104" rx="75.87" ry="18"/>
<text text-anchor="middle" x="1742" y="-99.8" font-family="Times,serif" font-size="14.00">BoardNodeRepo</text>
</g>
<!-- BoardNodeRepo&#45;&gt;BoardModule -->
<g id="edge11" class="edge">
<title>BoardNodeRepo&#45;&gt;BoardModule</title>
<path fill="none" stroke="black" d="M1742,-122.02C1742,-139.37 1742,-163 1742,-163 1742,-163 1289.07,-163 1289.07,-163"/>
<polygon fill="black" stroke="black" points="1289.07,-159.5 1279.07,-163 1289.07,-166.5 1289.07,-159.5"/>
</g>
<!-- BoardNodeService -->
<g id="node13" class="node">
<title>BoardNodeService</title>
<ellipse fill="#fdb462" stroke="black" cx="1564" cy="-104" rx="84.51" ry="18"/>
<text text-anchor="middle" x="1564" y="-99.8" font-family="Times,serif" font-size="14.00">BoardNodeService</text>
</g>
<!-- BoardNodeService&#45;&gt;BoardModule -->
<g id="edge12" class="edge">
<title>BoardNodeService&#45;&gt;BoardModule</title>
<path fill="none" stroke="black" d="M1516.25,-119.03C1516.25,-135.31 1516.25,-159 1516.25,-159 1516.25,-159 1288.94,-159 1288.94,-159"/>
<polygon fill="black" stroke="black" points="1288.94,-155.5 1278.94,-159 1288.94,-162.5 1288.94,-155.5"/>
</g>
<!-- CardService -->
<g id="node14" class="node">
<title>CardService</title>
<ellipse fill="#fdb462" stroke="black" cx="1403" cy="-104" rx="58.53" ry="18"/>
<text text-anchor="middle" x="1403" y="-99.8" font-family="Times,serif" font-size="14.00">CardService</text>
</g>
<!-- CardService&#45;&gt;BoardModule -->
<g id="edge13" class="edge">
<title>CardService&#45;&gt;BoardModule</title>
<path fill="none" stroke="black" d="M1376.79,-120.14C1376.79,-135.08 1376.79,-155 1376.79,-155 1376.79,-155 1289.01,-155 1289.01,-155"/>
<polygon fill="black" stroke="black" points="1289.01,-151.5 1279.01,-155 1289.01,-158.5 1289.01,-151.5"/>
</g>
<!-- ColumnBoardService -->
<g id="node15" class="node">
<title>ColumnBoardService</title>
<ellipse fill="#fdb462" stroke="black" cx="1232" cy="-104" rx="94.92" ry="18"/>
<text text-anchor="middle" x="1232" y="-99.8" font-family="Times,serif" font-size="14.00">ColumnBoardService</text>
</g>
<!-- ColumnBoardService&#45;&gt;BoardModule -->
<g id="edge14" class="edge">
<title>ColumnBoardService&#45;&gt;BoardModule</title>
<path fill="none" stroke="black" d="M1232,-122.11C1232,-122.11 1232,-140.99 1232,-140.99"/>
<polygon fill="black" stroke="black" points="1228.5,-140.99 1232,-150.99 1235.5,-140.99 1228.5,-140.99"/>
</g>
<!-- ColumnService -->
<g id="node16" class="node">
<title>ColumnService</title>
<ellipse fill="#fdb462" stroke="black" cx="1048" cy="-104" rx="71.23" ry="18"/>
<text text-anchor="middle" x="1048" y="-99.8" font-family="Times,serif" font-size="14.00">ColumnService</text>
</g>
<!-- ColumnService&#45;&gt;BoardModule -->
<g id="edge15" class="edge">
<title>ColumnService&#45;&gt;BoardModule</title>
<path fill="none" stroke="black" d="M1077.91,-120.42C1077.91,-135.33 1077.91,-155 1077.91,-155 1077.91,-155 1174.93,-155 1174.93,-155"/>
<polygon fill="black" stroke="black" points="1174.93,-158.5 1184.93,-155 1174.93,-151.5 1174.93,-158.5"/>
</g>
<!-- ContentElementFactory -->
<g id="node17" class="node">
<title>ContentElementFactory</title>
<ellipse fill="#fdb462" stroke="black" cx="856" cy="-104" rx="103.09" ry="18"/>
<text text-anchor="middle" x="856" y="-99.8" font-family="Times,serif" font-size="14.00">ContentElementFactory</text>
</g>
<!-- ContentElementFactory&#45;&gt;BoardModule -->
<g id="edge16" class="edge">
<title>ContentElementFactory&#45;&gt;BoardModule</title>
<path fill="none" stroke="black" d="M912.53,-119.32C912.53,-135.59 912.53,-159 912.53,-159 912.53,-159 1175.2,-159 1175.2,-159"/>
<polygon fill="black" stroke="black" points="1175.2,-162.5 1185.2,-159 1175.2,-155.5 1175.2,-162.5"/>
</g>
<!-- ContentElementService -->
<g id="node18" class="node">
<title>ContentElementService</title>
<ellipse fill="#fdb462" stroke="black" cx="632" cy="-104" rx="102.51" ry="18"/>
<text text-anchor="middle" x="632" y="-99.8" font-family="Times,serif" font-size="14.00">ContentElementService</text>
</g>
<!-- ContentElementService&#45;&gt;BoardModule -->
<g id="edge17" class="edge">
<title>ContentElementService&#45;&gt;BoardModule</title>
<path fill="none" stroke="black" d="M632,-122.02C632,-139.37 632,-163 632,-163 632,-163 1174.92,-163 1174.92,-163"/>
<polygon fill="black" stroke="black" points="1174.92,-166.5 1184.92,-163 1174.92,-159.5 1174.92,-166.5"/>
</g>
<!-- RecursiveDeleteVisitor -->
<g id="node19" class="node">
<title>RecursiveDeleteVisitor</title>
<ellipse fill="#fdb462" stroke="black" cx="410" cy="-104" rx="101.84" ry="18"/>
<text text-anchor="middle" x="410" y="-99.8" font-family="Times,serif" font-size="14.00">RecursiveDeleteVisitor</text>
</g>
<!-- RecursiveDeleteVisitor&#45;&gt;BoardModule -->
<g id="edge18" class="edge">
<title>RecursiveDeleteVisitor&#45;&gt;BoardModule</title>
<path fill="none" stroke="black" d="M410,-122.22C410,-140.83 410,-167 410,-167 410,-167 1175.15,-167 1175.15,-167"/>
<polygon fill="black" stroke="black" points="1175.15,-170.5 1185.15,-167 1175.15,-163.5 1175.15,-170.5"/>
</g>
</g>
</svg>
