<?xml version="1.0" encoding="UTF-8" standalone="no"?>
<!DOCTYPE svg PUBLIC "-//W3C//DTD SVG 1.1//EN"
 "http://www.w3.org/Graphics/SVG/1.1/DTD/svg11.dtd">
<!-- Generated by graphviz version 5.0.0 (20220707.1540)
 -->
<!-- Title: dependencies Pages: 1 -->
<svg width="1589pt" height="247pt"
 viewBox="0.00 0.00 1589.00 246.80" xmlns="http://www.w3.org/2000/svg" xmlns:xlink="http://www.w3.org/1999/xlink">
<g id="graph0" class="graph" transform="scale(1 1) rotate(0) translate(4 242.8)">
<title>dependencies</title>
<polygon fill="white" stroke="transparent" points="-4,4 -4,-242.8 1585,-242.8 1585,4 -4,4"/>
<text text-anchor="middle" x="790.5" y="-8.2" font-family="sans-serif" font-size="14.00">dependencies</text>
<g id="clust1" class="cluster">
<title>cluster_BoardModule</title>
<polygon fill="none" stroke="black" stroke-dasharray="1,5" points="8,-32.8 8,-230.8 1573,-230.8 1573,-32.8 8,-32.8"/>
</g>
<g id="clust4" class="cluster">
<title>cluster_BoardModule_exports</title>
<polygon fill="none" stroke="black" points="541,-170.8 541,-222.8 1106,-222.8 1106,-170.8 541,-170.8"/>
</g>
<g id="clust3" class="cluster">
<title>cluster_BoardModule_imports</title>
<polygon fill="none" stroke="black" points="1289,-40.8 1289,-92.8 1565,-92.8 1565,-40.8 1289,-40.8"/>
</g>
<g id="clust6" class="cluster">
<title>cluster_BoardModule_providers</title>
<polygon fill="none" stroke="black" points="16,-40.8 16,-92.8 1281,-92.8 1281,-40.8 16,-40.8"/>
</g>
<!-- ConsoleWriterModule -->
<g id="node1" class="node">
<title>ConsoleWriterModule</title>
<polygon fill="#8dd3c7" stroke="black" points="1556.97,-84.8 1553.97,-88.8 1532.97,-88.8 1529.97,-84.8 1415.03,-84.8 1415.03,-48.8 1556.97,-48.8 1556.97,-84.8"/>
<text text-anchor="middle" x="1486" y="-62.6" font-family="Times,serif" font-size="14.00">ConsoleWriterModule</text>
</g>
<!-- BoardModule -->
<g id="node3" class="node">
<title>BoardModule</title>
<polygon fill="#8dd3c7" stroke="black" points="902.77,-149.8 899.77,-153.8 878.77,-153.8 875.77,-149.8 809.23,-149.8 809.23,-113.8 902.77,-113.8 902.77,-149.8"/>
<text text-anchor="middle" x="856" y="-127.6" font-family="Times,serif" font-size="14.00">BoardModule</text>
</g>
<!-- ConsoleWriterModule&#45;&gt;BoardModule -->
<g id="edge1" class="edge">
<title>ConsoleWriterModule&#45;&gt;BoardModule</title>
<path fill="none" stroke="black" d="M1486,-85.08C1486,-106.12 1486,-137.8 1486,-137.8 1486,-137.8 912.84,-137.8 912.84,-137.8"/>
<polygon fill="black" stroke="black" points="912.84,-134.3 902.84,-137.8 912.84,-141.3 912.84,-134.3"/>
</g>
<!-- LoggerModule -->
<g id="node2" class="node">
<title>LoggerModule</title>
<polygon fill="#8dd3c7" stroke="black" points="1396.98,-84.8 1393.98,-88.8 1372.98,-88.8 1369.98,-84.8 1297.02,-84.8 1297.02,-48.8 1396.98,-48.8 1396.98,-84.8"/>
<text text-anchor="middle" x="1347" y="-62.6" font-family="Times,serif" font-size="14.00">LoggerModule</text>
</g>
<!-- LoggerModule&#45;&gt;BoardModule -->
<g id="edge2" class="edge">
<title>LoggerModule&#45;&gt;BoardModule</title>
<path fill="none" stroke="black" d="M1347,-84.91C1347,-104.14 1347,-131.8 1347,-131.8 1347,-131.8 913.08,-131.8 913.08,-131.8"/>
<polygon fill="black" stroke="black" points="913.08,-128.3 903.08,-131.8 913.08,-135.3 913.08,-128.3"/>
</g>
<!-- BoardDoService  -->
<g id="node4" class="node">
<title>BoardDoService </title>
<polygon fill="#fb8072" stroke="black" points="1098.3,-214.8 985.7,-214.8 985.7,-178.8 1098.3,-178.8 1098.3,-214.8"/>
<text text-anchor="middle" x="1042" y="-192.6" font-family="Times,serif" font-size="14.00">BoardDoService </text>
</g>
<!-- BoardModule&#45;&gt;BoardDoService  -->
<g id="edge3" class="edge">
<title>BoardModule&#45;&gt;BoardDoService </title>
<path fill="none" stroke="black" stroke-dasharray="5,2" d="M902.94,-143.8C958.04,-143.8 1042,-143.8 1042,-143.8 1042,-143.8 1042,-168.56 1042,-168.56"/>
<polygon fill="black" stroke="black" points="1038.5,-168.56 1042,-178.56 1045.5,-168.56 1038.5,-168.56"/>
</g>
<!-- CardService  -->
<g id="node5" class="node">
<title>CardService </title>
<polygon fill="#fb8072" stroke="black" points="967.19,-214.8 878.81,-214.8 878.81,-178.8 967.19,-178.8 967.19,-214.8"/>
<text text-anchor="middle" x="923" y="-192.6" font-family="Times,serif" font-size="14.00">CardService </text>
</g>
<!-- BoardModule&#45;&gt;CardService  -->
<g id="edge4" class="edge">
<title>BoardModule&#45;&gt;CardService </title>
<path fill="none" stroke="black" stroke-dasharray="5,2" d="M890.77,-149.91C890.77,-149.91 890.77,-168.79 890.77,-168.79"/>
<polygon fill="black" stroke="black" points="887.27,-168.79 890.77,-178.79 894.27,-168.79 887.27,-168.79"/>
</g>
<!-- ColumnBoardService  -->
<g id="node6" class="node">
<title>ColumnBoardService </title>
<polygon fill="#fb8072" stroke="black" points="860.31,-214.8 719.69,-214.8 719.69,-178.8 860.31,-178.8 860.31,-214.8"/>
<text text-anchor="middle" x="790" y="-192.6" font-family="Times,serif" font-size="14.00">ColumnBoardService </text>
</g>
<!-- BoardModule&#45;&gt;ColumnBoardService  -->
<g id="edge5" class="edge">
<title>BoardModule&#45;&gt;ColumnBoardService </title>
<path fill="none" stroke="black" stroke-dasharray="5,2" d="M834.76,-149.91C834.76,-149.91 834.76,-168.79 834.76,-168.79"/>
<polygon fill="black" stroke="black" points="831.26,-168.79 834.76,-178.79 838.26,-168.79 831.26,-168.79"/>
</g>
<!-- ContentElementService  -->
<g id="node7" class="node">
<title>ContentElementService </title>
<polygon fill="#fb8072" stroke="black" points="701.46,-214.8 548.54,-214.8 548.54,-178.8 701.46,-178.8 701.46,-214.8"/>
<text text-anchor="middle" x="625" y="-192.6" font-family="Times,serif" font-size="14.00">ContentElementService </text>
</g>
<!-- BoardModule&#45;&gt;ContentElementService  -->
<g id="edge6" class="edge">
<title>BoardModule&#45;&gt;ContentElementService </title>
<path fill="none" stroke="black" stroke-dasharray="5,2" d="M809.05,-143.8C747.06,-143.8 645.65,-143.8 645.65,-143.8 645.65,-143.8 645.65,-168.56 645.65,-168.56"/>
<polygon fill="black" stroke="black" points="642.15,-168.56 645.65,-178.56 649.15,-168.56 642.15,-168.56"/>
</g>
<!-- BoardDoRepo -->
<g id="node8" class="node">
<title>BoardDoRepo</title>
<ellipse fill="#fdb462" stroke="black" cx="1206" cy="-66.8" rx="66.65" ry="18"/>
<text text-anchor="middle" x="1206" y="-62.6" font-family="Times,serif" font-size="14.00">BoardDoRepo</text>
</g>
<!-- BoardDoRepo&#45;&gt;BoardModule -->
<g id="edge7" class="edge">
<title>BoardDoRepo&#45;&gt;BoardModule</title>
<path fill="none" stroke="black" d="M1206,-84.82C1206,-102.17 1206,-125.8 1206,-125.8 1206,-125.8 912.84,-125.8 912.84,-125.8"/>
<polygon fill="black" stroke="black" points="912.84,-122.3 902.84,-125.8 912.84,-129.3 912.84,-122.3"/>
</g>
<!-- BoardDoService -->
<g id="node9" class="node">
<title>BoardDoService</title>
<ellipse fill="#fdb462" stroke="black" cx="1046" cy="-66.8" rx="75.29" ry="18"/>
<text text-anchor="middle" x="1046" y="-62.6" font-family="Times,serif" font-size="14.00">BoardDoService</text>
</g>
<!-- BoardDoService&#45;&gt;BoardModule -->
<g id="edge8" class="edge">
<title>BoardDoService&#45;&gt;BoardModule</title>
<path fill="none" stroke="black" d="M978.1,-75.08C978.1,-89.99 978.1,-119.8 978.1,-119.8 978.1,-119.8 912.86,-119.8 912.86,-119.8"/>
<polygon fill="black" stroke="black" points="912.86,-116.3 902.86,-119.8 912.86,-123.3 912.86,-116.3"/>
</g>
<!-- BoardManagementUc -->
<g id="node10" class="node">
<title>BoardManagementUc</title>
<ellipse fill="#fdb462" stroke="black" cx="856" cy="-66.8" rx="96.12" ry="18"/>
<text text-anchor="middle" x="856" y="-62.6" font-family="Times,serif" font-size="14.00">BoardManagementUc</text>
</g>
<!-- BoardManagementUc&#45;&gt;BoardModule -->
<g id="edge9" class="edge">
<title>BoardManagementUc&#45;&gt;BoardModule</title>
<path fill="none" stroke="black" d="M856,-84.91C856,-84.91 856,-103.79 856,-103.79"/>
<polygon fill="black" stroke="black" points="852.5,-103.79 856,-113.79 859.5,-103.79 852.5,-103.79"/>
</g>
<!-- BoardNodeRepo -->
<g id="node11" class="node">
<title>BoardNodeRepo</title>
<ellipse fill="#fdb462" stroke="black" cx="666" cy="-66.8" rx="75.88" ry="18"/>
<text text-anchor="middle" x="666" y="-62.6" font-family="Times,serif" font-size="14.00">BoardNodeRepo</text>
</g>
<!-- BoardNodeRepo&#45;&gt;BoardModule -->
<g id="edge10" class="edge">
<title>BoardNodeRepo&#45;&gt;BoardModule</title>
<path fill="none" stroke="black" d="M730.77,-76.52C730.77,-91.82 730.77,-119.8 730.77,-119.8 730.77,-119.8 799.01,-119.8 799.01,-119.8"/>
<polygon fill="black" stroke="black" points="799.01,-123.3 809.01,-119.8 799.01,-116.3 799.01,-123.3"/>
</g>
<!-- CardService -->
<g id="node12" class="node">
<title>CardService</title>
<ellipse fill="#fdb462" stroke="black" cx="513" cy="-66.8" rx="58.53" ry="18"/>
<text text-anchor="middle" x="513" y="-62.6" font-family="Times,serif" font-size="14.00">CardService</text>
</g>
<!-- CardService&#45;&gt;BoardModule -->
<g id="edge11" class="edge">
<title>CardService&#45;&gt;BoardModule</title>
<path fill="none" stroke="black" d="M560.27,-77.62C560.27,-94.65 560.27,-125.8 560.27,-125.8 560.27,-125.8 799.14,-125.8 799.14,-125.8"/>
<polygon fill="black" stroke="black" points="799.14,-129.3 809.14,-125.8 799.14,-122.3 799.14,-129.3"/>
</g>
<!-- ColumnBoardService -->
<g id="node13" class="node">
<title>ColumnBoardService</title>
<ellipse fill="#fdb462" stroke="black" cx="342" cy="-66.8" rx="94.93" ry="18"/>
<text text-anchor="middle" x="342" y="-62.6" font-family="Times,serif" font-size="14.00">ColumnBoardService</text>
</g>
<!-- ColumnBoardService&#45;&gt;BoardModule -->
<g id="edge12" class="edge">
<title>ColumnBoardService&#45;&gt;BoardModule</title>
<path fill="none" stroke="black" d="M342,-84.91C342,-104.14 342,-131.8 342,-131.8 342,-131.8 799.02,-131.8 799.02,-131.8"/>
<polygon fill="black" stroke="black" points="799.02,-135.3 809.02,-131.8 799.02,-128.3 799.02,-135.3"/>
</g>
<!-- ContentElementService -->
<g id="node14" class="node">
<title>ContentElementService</title>
<ellipse fill="#fdb462" stroke="black" cx="127" cy="-66.8" rx="103" ry="18"/>
<text text-anchor="middle" x="127" y="-62.6" font-family="Times,serif" font-size="14.00">ContentElementService</text>
</g>
<!-- ContentElementService&#45;&gt;BoardModule -->
<g id="edge13" class="edge">
<title>ContentElementService&#45;&gt;BoardModule</title>
<path fill="none" stroke="black" d="M127,-85.08C127,-106.12 127,-137.8 127,-137.8 127,-137.8 799.01,-137.8 799.01,-137.8"/>
<polygon fill="black" stroke="black" points="799.01,-141.3 809.01,-137.8 799.01,-134.3 799.01,-141.3"/>
</g>
</g>
</svg>
