<?xml version="1.0" encoding="UTF-8" standalone="no"?>
<!DOCTYPE svg PUBLIC "-//W3C//DTD SVG 1.1//EN"
 "http://www.w3.org/Graphics/SVG/1.1/DTD/svg11.dtd">
<!-- Generated by graphviz version 2.47.0 (20210316.0004)
 -->
<!-- Title: dependencies Pages: 1 -->
<svg width="2381pt" height="284pt"
 viewBox="0.00 0.00 2381.00 284.00" xmlns="http://www.w3.org/2000/svg" xmlns:xlink="http://www.w3.org/1999/xlink">
<g id="graph0" class="graph" transform="scale(1 1) rotate(0) translate(4 280)">
<title>dependencies</title>
<polygon fill="white" stroke="transparent" points="-4,4 -4,-280 2377,-280 2377,4 -4,4"/>
<text text-anchor="start" x="1165.51" y="-42.4" font-family="Times-12" font-weight="bold" font-size="14.00">Legend</text>
<polygon fill="#ffffb3" stroke="transparent" points="952.5,-10 952.5,-30 972.5,-30 972.5,-10 952.5,-10"/>
<text text-anchor="start" x="976.13" y="-15.4" font-family="Times-12" font-size="14.00"> &#160;Declarations</text>
<polygon fill="#8dd3c7" stroke="transparent" points="1065.5,-10 1065.5,-30 1085.5,-30 1085.5,-10 1065.5,-10"/>
<text text-anchor="start" x="1089.23" y="-15.4" font-family="Times-12" font-size="14.00"> &#160;Module</text>
<polygon fill="#80b1d3" stroke="transparent" points="1151.5,-10 1151.5,-30 1171.5,-30 1171.5,-10 1151.5,-10"/>
<text text-anchor="start" x="1175.28" y="-15.4" font-family="Times-12" font-size="14.00"> &#160;Bootstrap</text>
<polygon fill="#fdb462" stroke="transparent" points="1248.5,-10 1248.5,-30 1268.5,-30 1268.5,-10 1248.5,-10"/>
<text text-anchor="start" x="1272.17" y="-15.4" font-family="Times-12" font-size="14.00"> &#160;Providers</text>
<polygon fill="#fb8072" stroke="transparent" points="1344.5,-10 1344.5,-30 1364.5,-30 1364.5,-10 1344.5,-10"/>
<text text-anchor="start" x="1368.23" y="-15.4" font-family="Times-12" font-size="14.00"> &#160;Exports</text>
<g id="clust1" class="cluster">
<title>cluster_BoardModule</title>
<polygon fill="none" stroke="black" stroke-dasharray="1,5" points="8,-70 8,-268 2365,-268 2365,-70 8,-70"/>
</g>
<g id="clust3" class="cluster">
<title>cluster_BoardModule_imports</title>
<polygon fill="none" stroke="black" points="2081,-78 2081,-130 2357,-130 2357,-78 2081,-78"/>
</g>
<g id="clust6" class="cluster">
<title>cluster_BoardModule_providers</title>
<polygon fill="none" stroke="black" points="16,-78 16,-130 2073,-130 2073,-78 16,-78"/>
</g>
<g id="clust4" class="cluster">
<title>cluster_BoardModule_exports</title>
<polygon fill="none" stroke="black" points="906,-208 906,-260 1609,-260 1609,-208 906,-208"/>
</g>
<!-- ConsoleWriterModule -->
<g id="node1" class="node">
<title>ConsoleWriterModule</title>
<polygon fill="#8dd3c7" stroke="black" points="2348.97,-122 2345.97,-126 2324.97,-126 2321.97,-122 2207.03,-122 2207.03,-86 2348.97,-86 2348.97,-122"/>
<text text-anchor="middle" x="2278" y="-99.8" font-family="Times,serif" font-size="14.00">ConsoleWriterModule</text>
</g>
<!-- BoardModule -->
<g id="node3" class="node">
<title>BoardModule</title>
<polygon fill="#8dd3c7" stroke="black" points="1326.76,-187 1323.76,-191 1302.76,-191 1299.76,-187 1233.24,-187 1233.24,-151 1326.76,-151 1326.76,-187"/>
<text text-anchor="middle" x="1280" y="-164.8" font-family="Times,serif" font-size="14.00">BoardModule</text>
</g>
<!-- ConsoleWriterModule&#45;&gt;BoardModule -->
<g id="edge1" class="edge">
<title>ConsoleWriterModule&#45;&gt;BoardModule</title>
<path fill="none" stroke="black" d="M2278,-122.28C2278,-143.32 2278,-175 2278,-175 2278,-175 1336.8,-175 1336.8,-175"/>
<polygon fill="black" stroke="black" points="1336.8,-171.5 1326.8,-175 1336.8,-178.5 1336.8,-171.5"/>
</g>
<!-- LoggerModule -->
<g id="node2" class="node">
<title>LoggerModule</title>
<polygon fill="#8dd3c7" stroke="black" points="2188.98,-122 2185.98,-126 2164.98,-126 2161.98,-122 2089.02,-122 2089.02,-86 2188.98,-86 2188.98,-122"/>
<text text-anchor="middle" x="2139" y="-99.8" font-family="Times,serif" font-size="14.00">LoggerModule</text>
</g>
<!-- LoggerModule&#45;&gt;BoardModule -->
<g id="edge2" class="edge">
<title>LoggerModule&#45;&gt;BoardModule</title>
<path fill="none" stroke="black" d="M2139,-122.31C2139,-142.15 2139,-171 2139,-171 2139,-171 1336.79,-171 1336.79,-171"/>
<polygon fill="black" stroke="black" points="1336.79,-167.5 1326.79,-171 1336.79,-174.5 1336.79,-167.5"/>
</g>
<!-- BoardNodeService  -->
<g id="node4" class="node">
<title>BoardNodeService </title>
<polygon fill="#fb8072" stroke="black" points="1601.01,-252 1474.99,-252 1474.99,-216 1601.01,-216 1601.01,-252"/>
<text text-anchor="middle" x="1538" y="-229.8" font-family="Times,serif" font-size="14.00">BoardNodeService </text>
</g>
<!-- BoardModule&#45;&gt;BoardNodeService  -->
<g id="edge3" class="edge">
<title>BoardModule&#45;&gt;BoardNodeService </title>
<path fill="none" stroke="black" stroke-dasharray="5,2" d="M1326.78,-179C1392.57,-179 1504.46,-179 1504.46,-179 1504.46,-179 1504.46,-205.99 1504.46,-205.99"/>
<polygon fill="black" stroke="black" points="1500.96,-205.99 1504.46,-215.99 1507.96,-205.99 1500.96,-205.99"/>
</g>
<!-- CardService  -->
<g id="node5" class="node">
<title>CardService </title>
<polygon fill="#fb8072" stroke="black" points="1457.19,-252 1368.81,-252 1368.81,-216 1457.19,-216 1457.19,-252"/>
<text text-anchor="middle" x="1413" y="-229.8" font-family="Times,serif" font-size="14.00">CardService </text>
</g>
<!-- BoardModule&#45;&gt;CardService  -->
<g id="edge4" class="edge">
<title>BoardModule&#45;&gt;CardService </title>
<path fill="none" stroke="black" stroke-dasharray="5,2" d="M1326.84,-183C1350.96,-183 1375.36,-183 1375.36,-183 1375.36,-183 1375.36,-205.88 1375.36,-205.88"/>
<polygon fill="black" stroke="black" points="1371.86,-205.88 1375.36,-215.88 1378.86,-205.88 1371.86,-205.88"/>
</g>
<!-- ColumnBoardService  -->
<g id="node6" class="node">
<title>ColumnBoardService </title>
<polygon fill="#fb8072" stroke="black" points="1350.31,-252 1209.69,-252 1209.69,-216 1350.31,-216 1350.31,-252"/>
<text text-anchor="middle" x="1280" y="-229.8" font-family="Times,serif" font-size="14.00">ColumnBoardService </text>
</g>
<!-- BoardModule&#45;&gt;ColumnBoardService  -->
<g id="edge5" class="edge">
<title>BoardModule&#45;&gt;ColumnBoardService </title>
<path fill="none" stroke="black" stroke-dasharray="5,2" d="M1280,-187.11C1280,-187.11 1280,-205.99 1280,-205.99"/>
<polygon fill="black" stroke="black" points="1276.5,-205.99 1280,-215.99 1283.5,-205.99 1276.5,-205.99"/>
</g>
<!-- ColumnService  -->
<g id="node7" class="node">
<title>ColumnService </title>
<polygon fill="#fb8072" stroke="black" points="1191.1,-252 1084.9,-252 1084.9,-216 1191.1,-216 1191.1,-252"/>
<text text-anchor="middle" x="1138" y="-229.8" font-family="Times,serif" font-size="14.00">ColumnService </text>
</g>
<!-- BoardModule&#45;&gt;ColumnService  -->
<g id="edge6" class="edge">
<title>BoardModule&#45;&gt;ColumnService </title>
<path fill="none" stroke="black" stroke-dasharray="5,2" d="M1233.1,-183C1208.96,-183 1184.53,-183 1184.53,-183 1184.53,-183 1184.53,-205.88 1184.53,-205.88"/>
<polygon fill="black" stroke="black" points="1181.03,-205.88 1184.53,-215.88 1188.03,-205.88 1181.03,-205.88"/>
</g>
<!-- ContentElementService  -->
<g id="node8" class="node">
<title>ContentElementService </title>
<polygon fill="#fb8072" stroke="black" points="1066.46,-252 913.54,-252 913.54,-216 1066.46,-216 1066.46,-252"/>
<text text-anchor="middle" x="990" y="-229.8" font-family="Times,serif" font-size="14.00">ContentElementService </text>
</g>
<!-- BoardModule&#45;&gt;ContentElementService  -->
<g id="edge7" class="edge">
<title>BoardModule&#45;&gt;ContentElementService </title>
<path fill="none" stroke="black" stroke-dasharray="5,2" d="M1233.2,-179C1166.35,-179 1051.47,-179 1051.47,-179 1051.47,-179 1051.47,-205.99 1051.47,-205.99"/>
<polygon fill="black" stroke="black" points="1047.98,-205.99 1051.47,-215.99 1054.98,-205.99 1047.98,-205.99"/>
</g>
<!-- BoardDoRepo -->
<g id="node9" class="node">
<title>BoardDoRepo</title>
<ellipse fill="#fdb462" stroke="black" cx="1998" cy="-104" rx="66.64" ry="18"/>
<text text-anchor="middle" x="1998" y="-99.8" font-family="Times,serif" font-size="14.00">BoardDoRepo</text>
</g>
<!-- BoardDoRepo&#45;&gt;BoardModule -->
<g id="edge8" class="edge">
<title>BoardDoRepo&#45;&gt;BoardModule</title>
<path fill="none" stroke="black" d="M1998,-122.22C1998,-140.83 1998,-167 1998,-167 1998,-167 1336.83,-167 1336.83,-167"/>
<polygon fill="black" stroke="black" points="1336.83,-163.5 1326.83,-167 1336.83,-170.5 1336.83,-163.5"/>
</g>
<!-- BoardDoService -->
<g id="node10" class="node">
<title>BoardDoService</title>
<ellipse fill="#fdb462" stroke="black" cx="1838" cy="-104" rx="75.28" ry="18"/>
<text text-anchor="middle" x="1838" y="-99.8" font-family="Times,serif" font-size="14.00">BoardDoService</text>
</g>
<!-- BoardDoService&#45;&gt;BoardModule -->
<g id="edge9" class="edge">
<title>BoardDoService&#45;&gt;BoardModule</title>
<path fill="none" stroke="black" d="M1838,-122.02C1838,-139.37 1838,-163 1838,-163 1838,-163 1337.09,-163 1337.09,-163"/>
<polygon fill="black" stroke="black" points="1337.09,-159.5 1327.09,-163 1337.09,-166.5 1337.09,-159.5"/>
</g>
<!-- BoardManagementUc -->
<g id="node11" class="node">
<title>BoardManagementUc</title>
<ellipse fill="#fdb462" stroke="black" cx="1648" cy="-104" rx="96.11" ry="18"/>
<text text-anchor="middle" x="1648" y="-99.8" font-family="Times,serif" font-size="14.00">BoardManagementUc</text>
</g>
<!-- BoardManagementUc&#45;&gt;BoardModule -->
<g id="edge10" class="edge">
<title>BoardManagementUc&#45;&gt;BoardModule</title>
<path fill="none" stroke="black" d="M1576.35,-116.21C1576.35,-132.41 1576.35,-159 1576.35,-159 1576.35,-159 1336.96,-159 1336.96,-159"/>
<polygon fill="black" stroke="black" points="1336.96,-155.5 1326.96,-159 1336.96,-162.5 1336.96,-155.5"/>
</g>
<!-- BoardNodeRepo -->
<g id="node12" class="node">
<title>BoardNodeRepo</title>
<ellipse fill="#fdb462" stroke="black" cx="1458" cy="-104" rx="75.87" ry="18"/>
<text text-anchor="middle" x="1458" y="-99.8" font-family="Times,serif" font-size="14.00">BoardNodeRepo</text>
</g>
<!-- BoardNodeRepo&#45;&gt;BoardModule -->
<g id="edge11" class="edge">
<title>BoardNodeRepo&#45;&gt;BoardModule</title>
<path fill="none" stroke="black" d="M1419.71,-119.58C1419.71,-134.58 1419.71,-155 1419.71,-155 1419.71,-155 1336.91,-155 1336.91,-155"/>
<polygon fill="black" stroke="black" points="1336.91,-151.5 1326.91,-155 1336.91,-158.5 1336.91,-151.5"/>
</g>
<!-- BoardNodeService -->
<g id="node13" class="node">
<title>BoardNodeService</title>
<ellipse fill="#fdb462" stroke="black" cx="1280" cy="-104" rx="84.51" ry="18"/>
<text text-anchor="middle" x="1280" y="-99.8" font-family="Times,serif" font-size="14.00">BoardNodeService</text>
</g>
<!-- BoardNodeService&#45;&gt;BoardModule -->
<g id="edge12" class="edge">
<title>BoardNodeService&#45;&gt;BoardModule</title>
<path fill="none" stroke="black" d="M1280,-122.11C1280,-122.11 1280,-140.99 1280,-140.99"/>
<polygon fill="black" stroke="black" points="1276.5,-140.99 1280,-150.99 1283.5,-140.99 1276.5,-140.99"/>
</g>
<!-- CardService -->
<g id="node14" class="node">
<title>CardService</title>
<ellipse fill="#fdb462" stroke="black" cx="1119" cy="-104" rx="58.53" ry="18"/>
<text text-anchor="middle" x="1119" y="-99.8" font-family="Times,serif" font-size="14.00">CardService</text>
</g>
<!-- CardService&#45;&gt;BoardModule -->
<g id="edge13" class="edge">
<title>CardService&#45;&gt;BoardModule</title>
<path fill="none" stroke="black" d="M1131.23,-121.84C1131.23,-136.54 1131.23,-155 1131.23,-155 1131.23,-155 1222.93,-155 1222.93,-155"/>
<polygon fill="black" stroke="black" points="1222.93,-158.5 1232.93,-155 1222.93,-151.5 1222.93,-158.5"/>
</g>
<!-- ColumnBoardService -->
<g id="node15" class="node">
<title>ColumnBoardService</title>
<ellipse fill="#fdb462" stroke="black" cx="948" cy="-104" rx="94.92" ry="18"/>
<text text-anchor="middle" x="948" y="-99.8" font-family="Times,serif" font-size="14.00">ColumnBoardService</text>
</g>
<!-- ColumnBoardService&#45;&gt;BoardModule -->
<g id="edge14" class="edge">
<title>ColumnBoardService&#45;&gt;BoardModule</title>
<path fill="none" stroke="black" d="M978.24,-121.1C978.24,-137.25 978.24,-159 978.24,-159 978.24,-159 1223.18,-159 1223.18,-159"/>
<polygon fill="black" stroke="black" points="1223.18,-162.5 1233.18,-159 1223.18,-155.5 1223.18,-162.5"/>
</g>
<!-- ColumnService -->
<g id="node16" class="node">
<title>ColumnService</title>
<ellipse fill="#fdb462" stroke="black" cx="764" cy="-104" rx="71.23" ry="18"/>
<text text-anchor="middle" x="764" y="-99.8" font-family="Times,serif" font-size="14.00">ColumnService</text>
</g>
<!-- ColumnService&#45;&gt;BoardModule -->
<g id="edge15" class="edge">
<title>ColumnService&#45;&gt;BoardModule</title>
<path fill="none" stroke="black" d="M764,-122.02C764,-139.37 764,-163 764,-163 764,-163 1222.84,-163 1222.84,-163"/>
<polygon fill="black" stroke="black" points="1222.84,-166.5 1232.84,-163 1222.84,-159.5 1222.84,-166.5"/>
</g>
<!-- ContentElementFactory -->
<g id="node17" class="node">
<title>ContentElementFactory</title>
<ellipse fill="#fdb462" stroke="black" cx="572" cy="-104" rx="103.09" ry="18"/>
<text text-anchor="middle" x="572" y="-99.8" font-family="Times,serif" font-size="14.00">ContentElementFactory</text>
</g>
<!-- ContentElementFactory&#45;&gt;BoardModule -->
<g id="edge16" class="edge">
<title>ContentElementFactory&#45;&gt;BoardModule</title>
<path fill="none" stroke="black" d="M572,-122.22C572,-140.83 572,-167 572,-167 572,-167 1223,-167 1223,-167"/>
<polygon fill="black" stroke="black" points="1223,-170.5 1233,-167 1223,-163.5 1223,-170.5"/>
</g>
<!-- ContentElementService -->
<g id="node18" class="node">
<title>ContentElementService</title>
<ellipse fill="#fdb462" stroke="black" cx="348" cy="-104" rx="102.51" ry="18"/>
<text text-anchor="middle" x="348" y="-99.8" font-family="Times,serif" font-size="14.00">ContentElementService</text>
</g>
<!-- ContentElementService&#45;&gt;BoardModule -->
<g id="edge17" class="edge">
<title>ContentElementService&#45;&gt;BoardModule</title>
<path fill="none" stroke="black" d="M348,-122.31C348,-142.15 348,-171 348,-171 348,-171 1223.14,-171 1223.14,-171"/>
<polygon fill="black" stroke="black" points="1223.14,-174.5 1233.14,-171 1223.14,-167.5 1223.14,-174.5"/>
</g>
<!-- RecursiveDeleteVisitor -->
<g id="node19" class="node">
<title>RecursiveDeleteVisitor</title>
<ellipse fill="#fdb462" stroke="black" cx="126" cy="-104" rx="101.84" ry="18"/>
<text text-anchor="middle" x="126" y="-99.8" font-family="Times,serif" font-size="14.00">RecursiveDeleteVisitor</text>
</g>
<!-- RecursiveDeleteVisitor&#45;&gt;BoardModule -->
<g id="edge18" class="edge">
<title>RecursiveDeleteVisitor&#45;&gt;BoardModule</title>
<path fill="none" stroke="black" d="M126,-122.28C126,-143.32 126,-175 126,-175 126,-175 1222.97,-175 1222.97,-175"/>
<polygon fill="black" stroke="black" points="1222.97,-178.5 1232.97,-175 1222.97,-171.5 1222.97,-178.5"/>
</g>
</g>
</svg>
