<?xml version="1.0" encoding="UTF-8" standalone="no"?>
<!DOCTYPE svg PUBLIC "-//W3C//DTD SVG 1.1//EN"
 "http://www.w3.org/Graphics/SVG/1.1/DTD/svg11.dtd">
<!-- Generated by graphviz version 2.47.0 (20210316.0004)
 -->
<!-- Title: dependencies Pages: 1 -->
<svg width="5447pt" height="284pt"
 viewBox="0.00 0.00 5447.00 284.00" xmlns="http://www.w3.org/2000/svg" xmlns:xlink="http://www.w3.org/1999/xlink">
<g id="graph0" class="graph" transform="scale(1 1) rotate(0) translate(4 280)">
<title>dependencies</title>
<polygon fill="white" stroke="transparent" points="-4,4 -4,-280 5443,-280 5443,4 -4,4"/>
<text text-anchor="start" x="2698.51" y="-42.4" font-family="Times-12" font-weight="bold" font-size="14.00">Legend</text>
<polygon fill="#ffffb3" stroke="transparent" points="2485.5,-10 2485.5,-30 2505.5,-30 2505.5,-10 2485.5,-10"/>
<text text-anchor="start" x="2509.13" y="-15.4" font-family="Times-12" font-size="14.00"> &#160;Declarations</text>
<polygon fill="#8dd3c7" stroke="transparent" points="2598.5,-10 2598.5,-30 2618.5,-30 2618.5,-10 2598.5,-10"/>
<text text-anchor="start" x="2622.23" y="-15.4" font-family="Times-12" font-size="14.00"> &#160;Module</text>
<polygon fill="#80b1d3" stroke="transparent" points="2684.5,-10 2684.5,-30 2704.5,-30 2704.5,-10 2684.5,-10"/>
<text text-anchor="start" x="2708.28" y="-15.4" font-family="Times-12" font-size="14.00"> &#160;Bootstrap</text>
<polygon fill="#fdb462" stroke="transparent" points="2781.5,-10 2781.5,-30 2801.5,-30 2801.5,-10 2781.5,-10"/>
<text text-anchor="start" x="2805.17" y="-15.4" font-family="Times-12" font-size="14.00"> &#160;Providers</text>
<polygon fill="#fb8072" stroke="transparent" points="2877.5,-10 2877.5,-30 2897.5,-30 2897.5,-10 2877.5,-10"/>
<text text-anchor="start" x="2901.23" y="-15.4" font-family="Times-12" font-size="14.00"> &#160;Exports</text>
<g id="clust1" class="cluster">
<title>cluster_BoardModule</title>
<polygon fill="none" stroke="black" stroke-dasharray="1,5" points="8,-70 8,-268 5431,-268 5431,-70 8,-70"/>
</g>
<g id="clust3" class="cluster">
<title>cluster_BoardModule_imports</title>
<polygon fill="none" stroke="black" points="4010,-78 4010,-130 5423,-130 5423,-78 4010,-78"/>
</g>
<g id="clust4" class="cluster">
<title>cluster_BoardModule_exports</title>
<polygon fill="none" stroke="black" points="2186,-208 2186,-260 3893,-260 3893,-208 2186,-208"/>
</g>
<g id="clust6" class="cluster">
<title>cluster_BoardModule_providers</title>
<polygon fill="none" stroke="black" points="16,-78 16,-130 4002,-130 4002,-78 16,-78"/>
</g>
<!-- CollaborativeTextEditorModule -->
<g id="node1" class="node">
<title>CollaborativeTextEditorModule</title>
<polygon fill="#8dd3c7" stroke="black" points="5415.41,-122 5412.41,-126 5391.41,-126 5388.41,-122 5218.59,-122 5218.59,-86 5415.41,-86 5415.41,-122"/>
<text text-anchor="middle" x="5317" y="-99.8" font-family="Times,serif" font-size="14.00">CollaborativeTextEditorModule</text>
</g>
<!-- BoardModule -->
<g id="node10" class="node">
<title>BoardModule</title>
<polygon fill="#8dd3c7" stroke="black" points="3087.76,-187 3084.76,-191 3063.76,-191 3060.76,-187 2994.24,-187 2994.24,-151 3087.76,-151 3087.76,-187"/>
<text text-anchor="middle" x="3041" y="-164.8" font-family="Times,serif" font-size="14.00">BoardModule</text>
</g>
<!-- CollaborativeTextEditorModule&#45;&gt;BoardModule -->
<g id="edge1" class="edge">
<title>CollaborativeTextEditorModule&#45;&gt;BoardModule</title>
<path fill="none" stroke="black" d="M5317,-122.17C5317,-143.5 5317,-176 5317,-176 5317,-176 3098.02,-176 3098.02,-176"/>
<polygon fill="black" stroke="black" points="3098.02,-172.5 3088.02,-176 3098.02,-179.5 3098.02,-172.5"/>
</g>
<!-- ConsoleWriterModule -->
<g id="node2" class="node">
<title>ConsoleWriterModule</title>
<polygon fill="#8dd3c7" stroke="black" points="5200.97,-122 5197.97,-126 5176.97,-126 5173.97,-122 5059.03,-122 5059.03,-86 5200.97,-86 5200.97,-122"/>
<text text-anchor="middle" x="5130" y="-99.8" font-family="Times,serif" font-size="14.00">ConsoleWriterModule</text>
</g>
<!-- ConsoleWriterModule&#45;&gt;BoardModule -->
<g id="edge2" class="edge">
<title>ConsoleWriterModule&#45;&gt;BoardModule</title>
<path fill="none" stroke="black" d="M5130,-122.03C5130,-142.77 5130,-174 5130,-174 5130,-174 3098.06,-174 3098.06,-174"/>
<polygon fill="black" stroke="black" points="3098.06,-170.5 3088.06,-174 3098.06,-177.5 3098.06,-170.5"/>
</g>
<!-- ContextExternalToolModule -->
<g id="node3" class="node">
<title>ContextExternalToolModule</title>
<polygon fill="#8dd3c7" stroke="black" points="5040.75,-122 5037.75,-126 5016.75,-126 5013.75,-122 4863.25,-122 4863.25,-86 5040.75,-86 5040.75,-122"/>
<text text-anchor="middle" x="4952" y="-99.8" font-family="Times,serif" font-size="14.00">ContextExternalToolModule</text>
</g>
<!-- ContextExternalToolModule&#45;&gt;BoardModule -->
<g id="edge3" class="edge">
<title>ContextExternalToolModule&#45;&gt;BoardModule</title>
<path fill="none" stroke="black" d="M4952,-122.22C4952,-142.37 4952,-172 4952,-172 4952,-172 3097.76,-172 3097.76,-172"/>
<polygon fill="black" stroke="black" points="3097.76,-168.5 3087.76,-172 3097.76,-175.5 3097.76,-168.5"/>
</g>
<!-- CopyHelperModule -->
<g id="node4" class="node">
<title>CopyHelperModule</title>
<polygon fill="#8dd3c7" stroke="black" points="4844.97,-122 4841.97,-126 4820.97,-126 4817.97,-122 4717.03,-122 4717.03,-86 4844.97,-86 4844.97,-122"/>
<text text-anchor="middle" x="4781" y="-99.8" font-family="Times,serif" font-size="14.00">CopyHelperModule</text>
</g>
<!-- CopyHelperModule&#45;&gt;BoardModule -->
<g id="edge4" class="edge">
<title>CopyHelperModule&#45;&gt;BoardModule</title>
<path fill="none" stroke="black" d="M4781,-122.03C4781,-141.58 4781,-170 4781,-170 4781,-170 3097.99,-170 3097.99,-170"/>
<polygon fill="black" stroke="black" points="3097.99,-166.5 3087.99,-170 3097.99,-173.5 3097.99,-166.5"/>
</g>
<!-- FilesStorageClientModule -->
<g id="node5" class="node">
<title>FilesStorageClientModule</title>
<polygon fill="#8dd3c7" stroke="black" points="4698.76,-122 4695.76,-126 4674.76,-126 4671.76,-122 4535.24,-122 4535.24,-86 4698.76,-86 4698.76,-122"/>
<text text-anchor="middle" x="4617" y="-99.8" font-family="Times,serif" font-size="14.00">FilesStorageClientModule</text>
</g>
<!-- FilesStorageClientModule&#45;&gt;BoardModule -->
<g id="edge5" class="edge">
<title>FilesStorageClientModule&#45;&gt;BoardModule</title>
<path fill="none" stroke="black" d="M4617,-122.11C4617,-141.34 4617,-169 4617,-169 4617,-169 3098.17,-169 3098.17,-169"/>
<polygon fill="black" stroke="black" points="3098.17,-165.5 3088.17,-169 3098.17,-172.5 3098.17,-165.5"/>
</g>
<!-- LoggerModule -->
<g id="node6" class="node">
<title>LoggerModule</title>
<polygon fill="#8dd3c7" stroke="black" points="4516.98,-122 4513.98,-126 4492.98,-126 4489.98,-122 4417.02,-122 4417.02,-86 4516.98,-86 4516.98,-122"/>
<text text-anchor="middle" x="4467" y="-99.8" font-family="Times,serif" font-size="14.00">LoggerModule</text>
</g>
<!-- LoggerModule&#45;&gt;BoardModule -->
<g id="edge6" class="edge">
<title>LoggerModule&#45;&gt;BoardModule</title>
<path fill="none" stroke="black" d="M4467,-122.22C4467,-140.83 4467,-167 4467,-167 4467,-167 3098.04,-167 3098.04,-167"/>
<polygon fill="black" stroke="black" points="3098.04,-163.5 3088.04,-167 3098.04,-170.5 3098.04,-163.5"/>
</g>
<!-- TldrawClientModule -->
<g id="node7" class="node">
<title>TldrawClientModule</title>
<polygon fill="#8dd3c7" stroke="black" points="4399.2,-122 4396.2,-126 4375.2,-126 4372.2,-122 4264.8,-122 4264.8,-86 4399.2,-86 4399.2,-122"/>
<text text-anchor="middle" x="4332" y="-99.8" font-family="Times,serif" font-size="14.00">TldrawClientModule</text>
</g>
<!-- TldrawClientModule&#45;&gt;BoardModule -->
<g id="edge7" class="edge">
<title>TldrawClientModule&#45;&gt;BoardModule</title>
<path fill="none" stroke="black" d="M4332,-122.3C4332,-140.27 4332,-165 4332,-165 4332,-165 3098.09,-165 3098.09,-165"/>
<polygon fill="black" stroke="black" points="3098.09,-161.5 3088.09,-165 3098.09,-168.5 3098.09,-161.5"/>
</g>
<!-- ToolConfigModule -->
<g id="node8" class="node">
<title>ToolConfigModule</title>
<polygon fill="#8dd3c7" stroke="black" points="4246.38,-122 4243.38,-126 4222.38,-126 4219.38,-122 4121.62,-122 4121.62,-86 4246.38,-86 4246.38,-122"/>
<text text-anchor="middle" x="4184" y="-99.8" font-family="Times,serif" font-size="14.00">ToolConfigModule</text>
</g>
<!-- ToolConfigModule&#45;&gt;BoardModule -->
<g id="edge8" class="edge">
<title>ToolConfigModule&#45;&gt;BoardModule</title>
<path fill="none" stroke="black" d="M4184,-122.02C4184,-139.37 4184,-163 4184,-163 4184,-163 3097.94,-163 3097.94,-163"/>
<polygon fill="black" stroke="black" points="3097.94,-159.5 3087.94,-163 3097.94,-166.5 3097.94,-159.5"/>
</g>
<!-- UserModule -->
<g id="node9" class="node">
<title>UserModule</title>
<polygon fill="#8dd3c7" stroke="black" points="4103.98,-122 4100.98,-126 4079.98,-126 4076.98,-122 4018.02,-122 4018.02,-86 4103.98,-86 4103.98,-122"/>
<text text-anchor="middle" x="4061" y="-99.8" font-family="Times,serif" font-size="14.00">UserModule</text>
</g>
<!-- UserModule&#45;&gt;BoardModule -->
<g id="edge9" class="edge">
<title>UserModule&#45;&gt;BoardModule</title>
<path fill="none" stroke="black" d="M4061,-122.04C4061,-138.73 4061,-161 4061,-161 4061,-161 3097.81,-161 3097.81,-161"/>
<polygon fill="black" stroke="black" points="3097.81,-157.5 3087.81,-161 3097.81,-164.5 3097.81,-157.5"/>
</g>
<!-- BoardDoAuthorizableService  -->
<g id="node11" class="node">
<title>BoardDoAuthorizableService </title>
<polygon fill="#fb8072" stroke="black" points="3884.88,-252 3699.12,-252 3699.12,-216 3884.88,-216 3884.88,-252"/>
<text text-anchor="middle" x="3792" y="-229.8" font-family="Times,serif" font-size="14.00">BoardDoAuthorizableService </text>
</g>
<!-- BoardModule&#45;&gt;BoardDoAuthorizableService  -->
<g id="edge10" class="edge">
<title>BoardModule&#45;&gt;BoardDoAuthorizableService </title>
<path fill="none" stroke="black" stroke-dasharray="5,2" d="M3087.89,-178C3240.28,-178 3711.69,-178 3711.69,-178 3711.69,-178 3711.69,-205.97 3711.69,-205.97"/>
<polygon fill="black" stroke="black" points="3708.19,-205.97 3711.69,-215.97 3715.19,-205.97 3708.19,-205.97"/>
</g>
<!-- BoardNodeRepo  -->
<g id="node12" class="node">
<title>BoardNodeRepo </title>
<polygon fill="#fb8072" stroke="black" points="3680.58,-252 3567.42,-252 3567.42,-216 3680.58,-216 3680.58,-252"/>
<text text-anchor="middle" x="3624" y="-229.8" font-family="Times,serif" font-size="14.00">BoardNodeRepo </text>
</g>
<!-- BoardModule&#45;&gt;BoardNodeRepo  -->
<g id="edge11" class="edge">
<title>BoardModule&#45;&gt;BoardNodeRepo </title>
<path fill="none" stroke="black" stroke-dasharray="5,2" d="M3088.22,-180C3227.01,-180 3624,-180 3624,-180 3624,-180 3624,-205.72 3624,-205.72"/>
<polygon fill="black" stroke="black" points="3620.5,-205.72 3624,-215.72 3627.5,-205.72 3620.5,-205.72"/>
</g>
<!-- CardService  -->
<g id="node13" class="node">
<title>CardService </title>
<polygon fill="#fb8072" stroke="black" points="3549.19,-252 3460.81,-252 3460.81,-216 3549.19,-216 3549.19,-252"/>
<text text-anchor="middle" x="3505" y="-229.8" font-family="Times,serif" font-size="14.00">CardService </text>
</g>
<!-- BoardModule&#45;&gt;CardService  -->
<g id="edge12" class="edge">
<title>BoardModule&#45;&gt;CardService </title>
<path fill="none" stroke="black" stroke-dasharray="5,2" d="M3087.91,-182C3202.48,-182 3487.24,-182 3487.24,-182 3487.24,-182 3487.24,-205.81 3487.24,-205.81"/>
<polygon fill="black" stroke="black" points="3483.74,-205.81 3487.24,-215.81 3490.74,-205.81 3483.74,-205.81"/>
</g>
<!-- ColumnBoardCopyService  -->
<g id="node14" class="node">
<title>ColumnBoardCopyService </title>
<polygon fill="#fb8072" stroke="black" points="3442.64,-252 3271.36,-252 3271.36,-216 3442.64,-216 3442.64,-252"/>
<text text-anchor="middle" x="3357" y="-229.8" font-family="Times,serif" font-size="14.00">ColumnBoardCopyService </text>
</g>
<!-- BoardModule&#45;&gt;ColumnBoardCopyService  -->
<g id="edge13" class="edge">
<title>BoardModule&#45;&gt;ColumnBoardCopyService </title>
<path fill="none" stroke="black" stroke-dasharray="5,2" d="M3087.8,-184C3166.52,-184 3316.91,-184 3316.91,-184 3316.91,-184 3316.91,-205.95 3316.91,-205.95"/>
<polygon fill="black" stroke="black" points="3313.41,-205.95 3316.91,-215.95 3320.41,-205.95 3313.41,-205.95"/>
</g>
<!-- ColumnBoardService  -->
<g id="node15" class="node">
<title>ColumnBoardService </title>
<polygon fill="#fb8072" stroke="black" points="3253.31,-252 3112.69,-252 3112.69,-216 3253.31,-216 3253.31,-252"/>
<text text-anchor="middle" x="3183" y="-229.8" font-family="Times,serif" font-size="14.00">ColumnBoardService </text>
</g>
<!-- BoardModule&#45;&gt;ColumnBoardService  -->
<g id="edge14" class="edge">
<title>BoardModule&#45;&gt;ColumnBoardService </title>
<path fill="none" stroke="black" stroke-dasharray="5,2" d="M3087.96,-186C3118.72,-186 3153.27,-186 3153.27,-186 3153.27,-186 3153.27,-205.85 3153.27,-205.85"/>
<polygon fill="black" stroke="black" points="3149.77,-205.85 3153.27,-215.85 3156.77,-205.85 3149.77,-205.85"/>
</g>
<!-- ColumnService  -->
<g id="node16" class="node">
<title>ColumnService </title>
<polygon fill="#fb8072" stroke="black" points="3094.1,-252 2987.9,-252 2987.9,-216 3094.1,-216 3094.1,-252"/>
<text text-anchor="middle" x="3041" y="-229.8" font-family="Times,serif" font-size="14.00">ColumnService </text>
</g>
<!-- BoardModule&#45;&gt;ColumnService  -->
<g id="edge15" class="edge">
<title>BoardModule&#45;&gt;ColumnService </title>
<path fill="none" stroke="black" stroke-dasharray="5,2" d="M3041,-187.11C3041,-187.11 3041,-205.99 3041,-205.99"/>
<polygon fill="black" stroke="black" points="3037.5,-205.99 3041,-215.99 3044.5,-205.99 3037.5,-205.99"/>
</g>
<!-- ContentElementService  -->
<g id="node17" class="node">
<title>ContentElementService </title>
<polygon fill="#fb8072" stroke="black" points="2969.46,-252 2816.54,-252 2816.54,-216 2969.46,-216 2969.46,-252"/>
<text text-anchor="middle" x="2893" y="-229.8" font-family="Times,serif" font-size="14.00">ContentElementService </text>
</g>
<!-- BoardModule&#45;&gt;ContentElementService  -->
<g id="edge16" class="edge">
<title>BoardModule&#45;&gt;ContentElementService </title>
<path fill="none" stroke="black" stroke-dasharray="5,2" d="M2994.2,-186C2966.88,-186 2937.73,-186 2937.73,-186 2937.73,-186 2937.73,-205.85 2937.73,-205.85"/>
<polygon fill="black" stroke="black" points="2934.23,-205.85 2937.73,-215.85 2941.23,-205.85 2934.23,-205.85"/>
</g>
<!-- MediaBoardService  -->
<g id="node18" class="node">
<title>MediaBoardService </title>
<polygon fill="#fb8072" stroke="black" points="2798.95,-252 2667.05,-252 2667.05,-216 2798.95,-216 2798.95,-252"/>
<text text-anchor="middle" x="2733" y="-229.8" font-family="Times,serif" font-size="14.00">MediaBoardService </text>
</g>
<!-- BoardModule&#45;&gt;MediaBoardService  -->
<g id="edge17" class="edge">
<title>BoardModule&#45;&gt;MediaBoardService </title>
<path fill="none" stroke="black" stroke-dasharray="5,2" d="M2994.22,-184C2908.06,-184 2733,-184 2733,-184 2733,-184 2733,-205.95 2733,-205.95"/>
<polygon fill="black" stroke="black" points="2729.5,-205.95 2733,-215.95 2736.5,-205.95 2729.5,-205.95"/>
</g>
<!-- MediaElementService  -->
<g id="node19" class="node">
<title>MediaElementService </title>
<polygon fill="#fb8072" stroke="black" points="2648.9,-252 2505.1,-252 2505.1,-216 2648.9,-216 2648.9,-252"/>
<text text-anchor="middle" x="2577" y="-229.8" font-family="Times,serif" font-size="14.00">MediaElementService </text>
</g>
<!-- BoardModule&#45;&gt;MediaElementService  -->
<g id="edge18" class="edge">
<title>BoardModule&#45;&gt;MediaElementService </title>
<path fill="none" stroke="black" stroke-dasharray="5,2" d="M2993.94,-182C2888.87,-182 2644.33,-182 2644.33,-182 2644.33,-182 2644.33,-205.81 2644.33,-205.81"/>
<polygon fill="black" stroke="black" points="2640.83,-205.81 2644.33,-215.81 2647.83,-205.81 2640.83,-205.81"/>
</g>
<!-- MediaLineService  -->
<g id="node20" class="node">
<title>MediaLineService </title>
<polygon fill="#fb8072" stroke="black" points="2487.4,-252 2364.6,-252 2364.6,-216 2487.4,-216 2487.4,-252"/>
<text text-anchor="middle" x="2426" y="-229.8" font-family="Times,serif" font-size="14.00">MediaLineService </text>
</g>
<!-- BoardModule&#45;&gt;MediaLineService  -->
<g id="edge19" class="edge">
<title>BoardModule&#45;&gt;MediaLineService </title>
<path fill="none" stroke="black" stroke-dasharray="5,2" d="M2994.18,-180C2857.54,-180 2468.87,-180 2468.87,-180 2468.87,-180 2468.87,-205.72 2468.87,-205.72"/>
<polygon fill="black" stroke="black" points="2465.37,-205.72 2468.87,-215.72 2472.37,-205.72 2465.37,-205.72"/>
</g>
<!-- SubmissionItemService  -->
<g id="node21" class="node">
<title>SubmissionItemService </title>
<polygon fill="#fb8072" stroke="black" points="2346.48,-252 2193.52,-252 2193.52,-216 2346.48,-216 2346.48,-252"/>
<text text-anchor="middle" x="2270" y="-229.8" font-family="Times,serif" font-size="14.00">SubmissionItemService </text>
</g>
<!-- BoardModule&#45;&gt;SubmissionItemService  -->
<g id="edge20" class="edge">
<title>BoardModule&#45;&gt;SubmissionItemService </title>
<path fill="none" stroke="black" stroke-dasharray="5,2" d="M2994.12,-178C2833.92,-178 2318.06,-178 2318.06,-178 2318.06,-178 2318.06,-205.97 2318.06,-205.97"/>
<polygon fill="black" stroke="black" points="2314.56,-205.97 2318.06,-215.97 2321.56,-205.97 2314.56,-205.97"/>
</g>
<!-- BoardDoAuthorizableService -->
<g id="node22" class="node">
<title>BoardDoAuthorizableService</title>
<ellipse fill="#fdb462" stroke="black" cx="3868" cy="-104" rx="125.6" ry="18"/>
<text text-anchor="middle" x="3868" y="-99.8" font-family="Times,serif" font-size="14.00">BoardDoAuthorizableService</text>
</g>
<!-- BoardDoAuthorizableService&#45;&gt;BoardModule -->
<g id="edge21" class="edge">
<title>BoardDoAuthorizableService&#45;&gt;BoardModule</title>
<path fill="none" stroke="black" d="M3813.57,-120.5C3813.57,-136.7 3813.57,-159 3813.57,-159 3813.57,-159 3097.88,-159 3097.88,-159"/>
<polygon fill="black" stroke="black" points="3097.88,-155.5 3087.88,-159 3097.88,-162.5 3097.88,-155.5"/>
</g>
<!-- BoardDoCopyService -->
<g id="node23" class="node">
<title>BoardDoCopyService</title>
<ellipse fill="#fdb462" stroke="black" cx="3628" cy="-104" rx="96.13" ry="18"/>
<text text-anchor="middle" x="3628" y="-99.8" font-family="Times,serif" font-size="14.00">BoardDoCopyService</text>
</g>
<!-- BoardDoCopyService&#45;&gt;BoardModule -->
<g id="edge22" class="edge">
<title>BoardDoCopyService&#45;&gt;BoardModule</title>
<path fill="none" stroke="black" d="M3540.51,-111.82C3540.51,-126.56 3540.51,-157 3540.51,-157 3540.51,-157 3097.99,-157 3097.99,-157"/>
<polygon fill="black" stroke="black" points="3097.99,-153.5 3087.99,-157 3097.99,-160.5 3097.99,-153.5"/>
</g>
<!-- BoardDoRepo -->
<g id="node24" class="node">
<title>BoardDoRepo</title>
<ellipse fill="#fdb462" stroke="black" cx="3447" cy="-104" rx="66.64" ry="18"/>
<text text-anchor="middle" x="3447" y="-99.8" font-family="Times,serif" font-size="14.00">BoardDoRepo</text>
</g>
<!-- BoardDoRepo&#45;&gt;BoardModule -->
<g id="edge23" class="edge">
<title>BoardDoRepo&#45;&gt;BoardModule</title>
<path fill="none" stroke="black" d="M3411.38,-119.3C3411.38,-134.32 3411.38,-155 3411.38,-155 3411.38,-155 3097.91,-155 3097.91,-155"/>
<polygon fill="black" stroke="black" points="3097.91,-151.5 3087.91,-155 3097.91,-158.5 3097.91,-151.5"/>
</g>
<!-- BoardDoService -->
<g id="node25" class="node">
<title>BoardDoService</title>
<ellipse fill="#fdb462" stroke="black" cx="3287" cy="-104" rx="75.28" ry="18"/>
<text text-anchor="middle" x="3287" y="-99.8" font-family="Times,serif" font-size="14.00">BoardDoService</text>
</g>
<!-- BoardDoService&#45;&gt;BoardModule -->
<g id="edge24" class="edge">
<title>BoardDoService&#45;&gt;BoardModule</title>
<path fill="none" stroke="black" d="M3232.51,-116.62C3232.51,-131.14 3232.51,-153 3232.51,-153 3232.51,-153 3097.85,-153 3097.85,-153"/>
<polygon fill="black" stroke="black" points="3097.85,-149.5 3087.85,-153 3097.85,-156.5 3097.85,-149.5"/>
</g>
<!-- BoardNodeRepo -->
<g id="node26" class="node">
<title>BoardNodeRepo</title>
<ellipse fill="#fdb462" stroke="black" cx="3118" cy="-104" rx="75.87" ry="18"/>
<text text-anchor="middle" x="3118" y="-99.8" font-family="Times,serif" font-size="14.00">BoardNodeRepo</text>
</g>
<!-- BoardNodeRepo&#45;&gt;BoardModule -->
<g id="edge25" class="edge">
<title>BoardNodeRepo&#45;&gt;BoardModule</title>
<path fill="none" stroke="black" d="M3064.97,-117.15C3064.97,-117.15 3064.97,-140.69 3064.97,-140.69"/>
<polygon fill="black" stroke="black" points="3061.47,-140.69 3064.97,-150.69 3068.47,-140.69 3061.47,-140.69"/>
</g>
<!-- CardService -->
<g id="node27" class="node">
<title>CardService</title>
<ellipse fill="#fdb462" stroke="black" cx="2965" cy="-104" rx="58.53" ry="18"/>
<text text-anchor="middle" x="2965" y="-99.8" font-family="Times,serif" font-size="14.00">CardService</text>
</g>
<!-- CardService&#45;&gt;BoardModule -->
<g id="edge26" class="edge">
<title>CardService&#45;&gt;BoardModule</title>
<path fill="none" stroke="black" d="M3008.94,-116.23C3008.94,-116.23 3008.94,-140.68 3008.94,-140.68"/>
<polygon fill="black" stroke="black" points="3005.44,-140.68 3008.94,-150.68 3012.44,-140.68 3005.44,-140.68"/>
</g>
<!-- ColumnBoardCopyService -->
<g id="node28" class="node">
<title>ColumnBoardCopyService</title>
<ellipse fill="#fdb462" stroke="black" cx="2773" cy="-104" rx="115.78" ry="18"/>
<text text-anchor="middle" x="2773" y="-99.8" font-family="Times,serif" font-size="14.00">ColumnBoardCopyService</text>
</g>
<!-- ColumnBoardCopyService&#45;&gt;BoardModule -->
<g id="edge27" class="edge">
<title>ColumnBoardCopyService&#45;&gt;BoardModule</title>
<path fill="none" stroke="black" d="M2852.7,-117.13C2852.7,-131.65 2852.7,-153 2852.7,-153 2852.7,-153 2983.97,-153 2983.97,-153"/>
<polygon fill="black" stroke="black" points="2983.97,-156.5 2993.97,-153 2983.97,-149.5 2983.97,-156.5"/>
</g>
<!-- ColumnBoardService -->
<g id="node29" class="node">
<title>ColumnBoardService</title>
<ellipse fill="#fdb462" stroke="black" cx="2545" cy="-104" rx="94.92" ry="18"/>
<text text-anchor="middle" x="2545" y="-99.8" font-family="Times,serif" font-size="14.00">ColumnBoardService</text>
</g>
<!-- ColumnBoardService&#45;&gt;BoardModule -->
<g id="edge28" class="edge">
<title>ColumnBoardService&#45;&gt;BoardModule</title>
<path fill="none" stroke="black" d="M2572.38,-121.27C2572.38,-136.06 2572.38,-155 2572.38,-155 2572.38,-155 2983.92,-155 2983.92,-155"/>
<polygon fill="black" stroke="black" points="2983.92,-158.5 2993.92,-155 2983.92,-151.5 2983.92,-158.5"/>
</g>
<!-- ColumnService -->
<g id="node30" class="node">
<title>ColumnService</title>
<ellipse fill="#fdb462" stroke="black" cx="2361" cy="-104" rx="71.23" ry="18"/>
<text text-anchor="middle" x="2361" y="-99.8" font-family="Times,serif" font-size="14.00">ColumnService</text>
</g>
<!-- ColumnService&#45;&gt;BoardModule -->
<g id="edge29" class="edge">
<title>ColumnService&#45;&gt;BoardModule</title>
<path fill="none" stroke="black" d="M2398.33,-119.33C2398.33,-134.98 2398.33,-157 2398.33,-157 2398.33,-157 2984,-157 2984,-157"/>
<polygon fill="black" stroke="black" points="2984,-160.5 2994,-157 2984,-153.5 2984,-160.5"/>
</g>
<!-- ContentElementFactory -->
<g id="node31" class="node">
<title>ContentElementFactory</title>
<ellipse fill="#fdb462" stroke="black" cx="2169" cy="-104" rx="103.09" ry="18"/>
<text text-anchor="middle" x="2169" y="-99.8" font-family="Times,serif" font-size="14.00">ContentElementFactory</text>
</g>
<!-- ContentElementFactory&#45;&gt;BoardModule -->
<g id="edge30" class="edge">
<title>ContentElementFactory&#45;&gt;BoardModule</title>
<path fill="none" stroke="black" d="M2233.03,-118.16C2233.03,-134.46 2233.03,-159 2233.03,-159 2233.03,-159 2984.07,-159 2984.07,-159"/>
<polygon fill="black" stroke="black" points="2984.07,-162.5 2994.07,-159 2984.07,-155.5 2984.07,-162.5"/>
</g>
<!-- ContentElementService -->
<g id="node32" class="node">
<title>ContentElementService</title>
<ellipse fill="#fdb462" stroke="black" cx="1945" cy="-104" rx="102.51" ry="18"/>
<text text-anchor="middle" x="1945" y="-99.8" font-family="Times,serif" font-size="14.00">ContentElementService</text>
</g>
<!-- ContentElementService&#45;&gt;BoardModule -->
<g id="edge31" class="edge">
<title>ContentElementService&#45;&gt;BoardModule</title>
<path fill="none" stroke="black" d="M1945,-122.04C1945,-138.73 1945,-161 1945,-161 1945,-161 2983.91,-161 2983.91,-161"/>
<polygon fill="black" stroke="black" points="2983.91,-164.5 2993.91,-161 2983.91,-157.5 2983.91,-164.5"/>
</g>
<!-- CourseRepo -->
<g id="node33" class="node">
<title>CourseRepo</title>
<ellipse fill="#fdb462" stroke="black" cx="1765" cy="-104" rx="58.55" ry="18"/>
<text text-anchor="middle" x="1765" y="-99.8" font-family="Times,serif" font-size="14.00">CourseRepo</text>
</g>
<!-- CourseRepo&#45;&gt;BoardModule -->
<g id="edge32" class="edge">
<title>CourseRepo&#45;&gt;BoardModule</title>
<path fill="none" stroke="black" d="M1765,-122.02C1765,-139.37 1765,-163 1765,-163 1765,-163 2984.07,-163 2984.07,-163"/>
<polygon fill="black" stroke="black" points="2984.07,-166.5 2994.07,-163 2984.07,-159.5 2984.07,-166.5"/>
</g>
<!-- MediaBoardService -->
<g id="node34" class="node">
<title>MediaBoardService</title>
<ellipse fill="#fdb462" stroke="black" cx="1600" cy="-104" rx="88.02" ry="18"/>
<text text-anchor="middle" x="1600" y="-99.8" font-family="Times,serif" font-size="14.00">MediaBoardService</text>
</g>
<!-- MediaBoardService&#45;&gt;BoardModule -->
<g id="edge33" class="edge">
<title>MediaBoardService&#45;&gt;BoardModule</title>
<path fill="none" stroke="black" d="M1600,-122.3C1600,-140.27 1600,-165 1600,-165 1600,-165 2983.87,-165 2983.87,-165"/>
<polygon fill="black" stroke="black" points="2983.87,-168.5 2993.87,-165 2983.87,-161.5 2983.87,-168.5"/>
</g>
<!-- MediaElementService -->
<g id="node35" class="node">
<title>MediaElementService</title>
<ellipse fill="#fdb462" stroke="black" cx="1397" cy="-104" rx="96.68" ry="18"/>
<text text-anchor="middle" x="1397" y="-99.8" font-family="Times,serif" font-size="14.00">MediaElementService</text>
</g>
<!-- MediaElementService&#45;&gt;BoardModule -->
<g id="edge34" class="edge">
<title>MediaElementService&#45;&gt;BoardModule</title>
<path fill="none" stroke="black" d="M1397,-122.22C1397,-140.83 1397,-167 1397,-167 1397,-167 2984.01,-167 2984.01,-167"/>
<polygon fill="black" stroke="black" points="2984.01,-170.5 2994.01,-167 2984.01,-163.5 2984.01,-170.5"/>
</g>
<!-- MediaLineService -->
<g id="node36" class="node">
<title>MediaLineService</title>
<ellipse fill="#fdb462" stroke="black" cx="1200" cy="-104" rx="82.22" ry="18"/>
<text text-anchor="middle" x="1200" y="-99.8" font-family="Times,serif" font-size="14.00">MediaLineService</text>
</g>
<!-- MediaLineService&#45;&gt;BoardModule -->
<g id="edge35" class="edge">
<title>MediaLineService&#45;&gt;BoardModule</title>
<path fill="none" stroke="black" d="M1200,-122.11C1200,-141.34 1200,-169 1200,-169 1200,-169 2984.11,-169 2984.11,-169"/>
<polygon fill="black" stroke="black" points="2984.11,-172.5 2994.11,-169 2984.11,-165.5 2984.11,-172.5"/>
</g>
<!-- RecursiveDeleteVisitor -->
<g id="node37" class="node">
<title>RecursiveDeleteVisitor</title>
<ellipse fill="#fdb462" stroke="black" cx="998" cy="-104" rx="101.84" ry="18"/>
<text text-anchor="middle" x="998" y="-99.8" font-family="Times,serif" font-size="14.00">RecursiveDeleteVisitor</text>
</g>
<!-- RecursiveDeleteVisitor&#45;&gt;BoardModule -->
<g id="edge36" class="edge">
<title>RecursiveDeleteVisitor&#45;&gt;BoardModule</title>
<path fill="none" stroke="black" d="M998,-122.03C998,-141.58 998,-170 998,-170 998,-170 2984,-170 2984,-170"/>
<polygon fill="black" stroke="black" points="2984,-173.5 2994,-170 2984,-166.5 2984,-173.5"/>
</g>
<!-- SchoolSpecificFileCopyServiceFactory -->
<g id="node38" class="node">
<title>SchoolSpecificFileCopyServiceFactory</title>
<ellipse fill="#fdb462" stroke="black" cx="714" cy="-104" rx="163.8" ry="18"/>
<text text-anchor="middle" x="714" y="-99.8" font-family="Times,serif" font-size="14.00">SchoolSpecificFileCopyServiceFactory</text>
</g>
<!-- SchoolSpecificFileCopyServiceFactory&#45;&gt;BoardModule -->
<g id="edge37" class="edge">
<title>SchoolSpecificFileCopyServiceFactory&#45;&gt;BoardModule</title>
<path fill="none" stroke="black" d="M714,-122.22C714,-142.37 714,-172 714,-172 714,-172 2983.99,-172 2983.99,-172"/>
<polygon fill="black" stroke="black" points="2983.99,-175.5 2993.99,-172 2983.99,-168.5 2983.99,-175.5"/>
</g>
<!-- SubmissionItemService -->
<g id="node39" class="node">
<title>SubmissionItemService</title>
<ellipse fill="#fdb462" stroke="black" cx="429" cy="-104" rx="102.52" ry="18"/>
<text text-anchor="middle" x="429" y="-99.8" font-family="Times,serif" font-size="14.00">SubmissionItemService</text>
</g>
<!-- SubmissionItemService&#45;&gt;BoardModule -->
<g id="edge38" class="edge">
<title>SubmissionItemService&#45;&gt;BoardModule</title>
<path fill="none" stroke="black" d="M429,-122.03C429,-142.77 429,-174 429,-174 429,-174 2984,-174 2984,-174"/>
<polygon fill="black" stroke="black" points="2984,-177.5 2994,-174 2984,-170.5 2984,-177.5"/>
</g>
<!-- UserDeletedEventHandlerService -->
<g id="node40" class="node">
<title>UserDeletedEventHandlerService</title>
<ellipse fill="#fdb462" stroke="black" cx="166" cy="-104" rx="141.75" ry="18"/>
<text text-anchor="middle" x="166" y="-99.8" font-family="Times,serif" font-size="14.00">UserDeletedEventHandlerService</text>
</g>
<!-- UserDeletedEventHandlerService&#45;&gt;BoardModule -->
<g id="edge39" class="edge">
<title>UserDeletedEventHandlerService&#45;&gt;BoardModule</title>
<path fill="none" stroke="black" d="M166,-122.17C166,-143.5 166,-176 166,-176 166,-176 2984.09,-176 2984.09,-176"/>
<polygon fill="black" stroke="black" points="2984.09,-179.5 2994.09,-176 2984.09,-172.5 2984.09,-179.5"/>
</g>
</g>
</svg>
