<?xml version="1.0" encoding="UTF-8" standalone="no"?>
<!DOCTYPE svg PUBLIC "-//W3C//DTD SVG 1.1//EN"
 "http://www.w3.org/Graphics/SVG/1.1/DTD/svg11.dtd">
<!-- Generated by graphviz version 2.47.0 (20210316.0004)
 -->
<!-- Title: dependencies Pages: 1 -->
<svg width="4196pt" height="284pt"
 viewBox="0.00 0.00 4196.00 284.00" xmlns="http://www.w3.org/2000/svg" xmlns:xlink="http://www.w3.org/1999/xlink">
<g id="graph0" class="graph" transform="scale(1 1) rotate(0) translate(4 280)">
<title>dependencies</title>
<polygon fill="white" stroke="transparent" points="-4,4 -4,-280 4192,-280 4192,4 -4,4"/>
<text text-anchor="start" x="2073.01" y="-42.4" font-family="Times-12" font-weight="bold" font-size="14.00">Legend</text>
<polygon fill="#ffffb3" stroke="transparent" points="1860,-10 1860,-30 1880,-30 1880,-10 1860,-10"/>
<text text-anchor="start" x="1883.63" y="-15.4" font-family="Times-12" font-size="14.00"> &#160;Declarations</text>
<polygon fill="#8dd3c7" stroke="transparent" points="1973,-10 1973,-30 1993,-30 1993,-10 1973,-10"/>
<text text-anchor="start" x="1996.73" y="-15.4" font-family="Times-12" font-size="14.00"> &#160;Module</text>
<polygon fill="#80b1d3" stroke="transparent" points="2059,-10 2059,-30 2079,-30 2079,-10 2059,-10"/>
<text text-anchor="start" x="2082.78" y="-15.4" font-family="Times-12" font-size="14.00"> &#160;Bootstrap</text>
<polygon fill="#fdb462" stroke="transparent" points="2156,-10 2156,-30 2176,-30 2176,-10 2156,-10"/>
<text text-anchor="start" x="2179.67" y="-15.4" font-family="Times-12" font-size="14.00"> &#160;Providers</text>
<polygon fill="#fb8072" stroke="transparent" points="2252,-10 2252,-30 2272,-30 2272,-10 2252,-10"/>
<text text-anchor="start" x="2275.73" y="-15.4" font-family="Times-12" font-size="14.00"> &#160;Exports</text>
<g id="clust1" class="cluster">
<title>cluster_BoardModule</title>
<polygon fill="none" stroke="black" stroke-dasharray="1,5" points="8,-70 8,-268 4180,-268 4180,-70 8,-70"/>
</g>
<g id="clust3" class="cluster">
<title>cluster_BoardModule_imports</title>
<polygon fill="none" stroke="black" points="3119,-78 3119,-130 4172,-130 4172,-78 3119,-78"/>
</g>
<g id="clust6" class="cluster">
<title>cluster_BoardModule_providers</title>
<polygon fill="none" stroke="black" points="16,-78 16,-130 3111,-130 3111,-78 16,-78"/>
</g>
<g id="clust4" class="cluster">
<title>cluster_BoardModule_exports</title>
<polygon fill="none" stroke="black" points="1680,-208 1680,-260 2934,-260 2934,-208 1680,-208"/>
</g>
<!-- ConsoleWriterModule -->
<g id="node1" class="node">
<title>ConsoleWriterModule</title>
<polygon fill="#8dd3c7" stroke="black" points="4163.97,-122 4160.97,-126 4139.97,-126 4136.97,-122 4022.03,-122 4022.03,-86 4163.97,-86 4163.97,-122"/>
<text text-anchor="middle" x="4093" y="-99.8" font-family="Times,serif" font-size="14.00">ConsoleWriterModule</text>
</g>
<!-- BoardModule -->
<g id="node8" class="node">
<title>BoardModule</title>
<polygon fill="#8dd3c7" stroke="black" points="2357.76,-187 2354.76,-191 2333.76,-191 2330.76,-187 2264.24,-187 2264.24,-151 2357.76,-151 2357.76,-187"/>
<text text-anchor="middle" x="2311" y="-164.8" font-family="Times,serif" font-size="14.00">BoardModule</text>
</g>
<!-- ConsoleWriterModule&#45;&gt;BoardModule -->
<g id="edge1" class="edge">
<title>ConsoleWriterModule&#45;&gt;BoardModule</title>
<path fill="none" stroke="black" d="M4093,-122.04C4093,-143.66 4093,-177 4093,-177 4093,-177 2368.21,-177 2368.21,-177"/>
<polygon fill="black" stroke="black" points="2368.21,-173.5 2358.21,-177 2368.21,-180.5 2368.21,-173.5"/>
</g>
<!-- ContextExternalToolModule -->
<g id="node2" class="node">
<title>ContextExternalToolModule</title>
<polygon fill="#8dd3c7" stroke="black" points="4003.75,-122 4000.75,-126 3979.75,-126 3976.75,-122 3826.25,-122 3826.25,-86 4003.75,-86 4003.75,-122"/>
<text text-anchor="middle" x="3915" y="-99.8" font-family="Times,serif" font-size="14.00">ContextExternalToolModule</text>
</g>
<!-- ContextExternalToolModule&#45;&gt;BoardModule -->
<g id="edge2" class="edge">
<title>ContextExternalToolModule&#45;&gt;BoardModule</title>
<path fill="none" stroke="black" d="M3915,-122.28C3915,-143.32 3915,-175 3915,-175 3915,-175 2368.14,-175 2368.14,-175"/>
<polygon fill="black" stroke="black" points="2368.14,-171.5 2358.14,-175 2368.14,-178.5 2368.14,-171.5"/>
</g>
<!-- FilesStorageClientModule -->
<g id="node3" class="node">
<title>FilesStorageClientModule</title>
<polygon fill="#8dd3c7" stroke="black" points="3807.76,-122 3804.76,-126 3783.76,-126 3780.76,-122 3644.24,-122 3644.24,-86 3807.76,-86 3807.76,-122"/>
<text text-anchor="middle" x="3726" y="-99.8" font-family="Times,serif" font-size="14.00">FilesStorageClientModule</text>
</g>
<!-- FilesStorageClientModule&#45;&gt;BoardModule -->
<g id="edge3" class="edge">
<title>FilesStorageClientModule&#45;&gt;BoardModule</title>
<path fill="none" stroke="black" d="M3726,-122.22C3726,-142.37 3726,-172 3726,-172 3726,-172 2368.08,-172 2368.08,-172"/>
<polygon fill="black" stroke="black" points="2368.08,-168.5 2358.08,-172 2368.08,-175.5 2368.08,-168.5"/>
</g>
<!-- LoggerModule -->
<g id="node4" class="node">
<title>LoggerModule</title>
<polygon fill="#8dd3c7" stroke="black" points="3625.98,-122 3622.98,-126 3601.98,-126 3598.98,-122 3526.02,-122 3526.02,-86 3625.98,-86 3625.98,-122"/>
<text text-anchor="middle" x="3576" y="-99.8" font-family="Times,serif" font-size="14.00">LoggerModule</text>
</g>
<!-- LoggerModule&#45;&gt;BoardModule -->
<g id="edge4" class="edge">
<title>LoggerModule&#45;&gt;BoardModule</title>
<path fill="none" stroke="black" d="M3576,-122.11C3576,-141.34 3576,-169 3576,-169 3576,-169 2367.9,-169 2367.9,-169"/>
<polygon fill="black" stroke="black" points="2367.9,-165.5 2357.9,-169 2367.9,-172.5 2367.9,-165.5"/>
</g>
<!-- TldrawClientModule -->
<g id="node5" class="node">
<title>TldrawClientModule</title>
<polygon fill="#8dd3c7" stroke="black" points="3508.2,-122 3505.2,-126 3484.2,-126 3481.2,-122 3373.8,-122 3373.8,-86 3508.2,-86 3508.2,-122"/>
<text text-anchor="middle" x="3441" y="-99.8" font-family="Times,serif" font-size="14.00">TldrawClientModule</text>
</g>
<!-- TldrawClientModule&#45;&gt;BoardModule -->
<g id="edge5" class="edge">
<title>TldrawClientModule&#45;&gt;BoardModule</title>
<path fill="none" stroke="black" d="M3441,-122.22C3441,-140.83 3441,-167 3441,-167 3441,-167 2368.12,-167 2368.12,-167"/>
<polygon fill="black" stroke="black" points="2368.12,-163.5 2358.12,-167 2368.12,-170.5 2368.12,-163.5"/>
</g>
<!-- ToolConfigModule -->
<g id="node6" class="node">
<title>ToolConfigModule</title>
<polygon fill="#8dd3c7" stroke="black" points="3355.38,-122 3352.38,-126 3331.38,-126 3328.38,-122 3230.62,-122 3230.62,-86 3355.38,-86 3355.38,-122"/>
<text text-anchor="middle" x="3293" y="-99.8" font-family="Times,serif" font-size="14.00">ToolConfigModule</text>
</g>
<!-- ToolConfigModule&#45;&gt;BoardModule -->
<g id="edge6" class="edge">
<title>ToolConfigModule&#45;&gt;BoardModule</title>
<path fill="none" stroke="black" d="M3293,-122C3293,-139.68 3293,-164 3293,-164 3293,-164 2368.03,-164 2368.03,-164"/>
<polygon fill="black" stroke="black" points="2368.03,-160.5 2358.03,-164 2368.03,-167.5 2368.03,-160.5"/>
</g>
<!-- UserModule -->
<g id="node7" class="node">
<title>UserModule</title>
<polygon fill="#8dd3c7" stroke="black" points="3212.98,-122 3209.98,-126 3188.98,-126 3185.98,-122 3127.02,-122 3127.02,-86 3212.98,-86 3212.98,-122"/>
<text text-anchor="middle" x="3170" y="-99.8" font-family="Times,serif" font-size="14.00">UserModule</text>
</g>
<!-- UserModule&#45;&gt;BoardModule -->
<g id="edge7" class="edge">
<title>UserModule&#45;&gt;BoardModule</title>
<path fill="none" stroke="black" d="M3170,-122.03C3170,-139.06 3170,-162 3170,-162 3170,-162 2367.79,-162 2367.79,-162"/>
<polygon fill="black" stroke="black" points="2367.79,-158.5 2357.79,-162 2367.79,-165.5 2367.79,-158.5"/>
</g>
<!-- BoardDoAuthorizableService  -->
<g id="node9" class="node">
<title>BoardDoAuthorizableService </title>
<polygon fill="#fb8072" stroke="black" points="2925.88,-252 2740.12,-252 2740.12,-216 2925.88,-216 2925.88,-252"/>
<text text-anchor="middle" x="2833" y="-229.8" font-family="Times,serif" font-size="14.00">BoardDoAuthorizableService </text>
</g>
<!-- BoardModule&#45;&gt;BoardDoAuthorizableService  -->
<g id="edge8" class="edge">
<title>BoardModule&#45;&gt;BoardDoAuthorizableService </title>
<path fill="none" stroke="black" stroke-dasharray="5,2" d="M2357.91,-180C2477.92,-180 2786.69,-180 2786.69,-180 2786.69,-180 2786.69,-205.72 2786.69,-205.72"/>
<polygon fill="black" stroke="black" points="2783.19,-205.72 2786.69,-215.72 2790.19,-205.72 2783.19,-205.72"/>
</g>
<!-- BoardNodeRepo  -->
<g id="node10" class="node">
<title>BoardNodeRepo </title>
<polygon fill="#fb8072" stroke="black" points="2721.58,-252 2608.42,-252 2608.42,-216 2721.58,-216 2721.58,-252"/>
<text text-anchor="middle" x="2665" y="-229.8" font-family="Times,serif" font-size="14.00">BoardNodeRepo </text>
</g>
<!-- BoardModule&#45;&gt;BoardNodeRepo  -->
<g id="edge9" class="edge">
<title>BoardModule&#45;&gt;BoardNodeRepo </title>
<path fill="none" stroke="black" stroke-dasharray="5,2" d="M2357.91,-182C2443.33,-182 2615.51,-182 2615.51,-182 2615.51,-182 2615.51,-205.81 2615.51,-205.81"/>
<polygon fill="black" stroke="black" points="2612.01,-205.81 2615.51,-215.81 2619.01,-205.81 2612.01,-205.81"/>
</g>
<!-- CardService  -->
<g id="node11" class="node">
<title>CardService </title>
<polygon fill="#fb8072" stroke="black" points="2590.19,-252 2501.81,-252 2501.81,-216 2590.19,-216 2590.19,-252"/>
<text text-anchor="middle" x="2546" y="-229.8" font-family="Times,serif" font-size="14.00">CardService </text>
</g>
<!-- BoardModule&#45;&gt;CardService  -->
<g id="edge10" class="edge">
<title>BoardModule&#45;&gt;CardService </title>
<path fill="none" stroke="black" stroke-dasharray="5,2" d="M2357.99,-185C2426.57,-185 2546,-185 2546,-185 2546,-185 2546,-205.75 2546,-205.75"/>
<polygon fill="black" stroke="black" points="2542.5,-205.75 2546,-215.75 2549.5,-205.75 2542.5,-205.75"/>
</g>
<!-- ColumnBoardCopyService  -->
<g id="node12" class="node">
<title>ColumnBoardCopyService </title>
<polygon fill="#fb8072" stroke="black" points="2483.64,-252 2312.36,-252 2312.36,-216 2483.64,-216 2483.64,-252"/>
<text text-anchor="middle" x="2398" y="-229.8" font-family="Times,serif" font-size="14.00">ColumnBoardCopyService </text>
</g>
<!-- BoardModule&#45;&gt;ColumnBoardCopyService  -->
<g id="edge11" class="edge">
<title>BoardModule&#45;&gt;ColumnBoardCopyService </title>
<path fill="none" stroke="black" stroke-dasharray="5,2" d="M2335.15,-187.11C2335.15,-187.11 2335.15,-205.99 2335.15,-205.99"/>
<polygon fill="black" stroke="black" points="2331.65,-205.99 2335.15,-215.99 2338.65,-205.99 2331.65,-205.99"/>
</g>
<!-- ColumnBoardService  -->
<g id="node13" class="node">
<title>ColumnBoardService </title>
<polygon fill="#fb8072" stroke="black" points="2294.31,-252 2153.69,-252 2153.69,-216 2294.31,-216 2294.31,-252"/>
<text text-anchor="middle" x="2224" y="-229.8" font-family="Times,serif" font-size="14.00">ColumnBoardService </text>
</g>
<!-- BoardModule&#45;&gt;ColumnBoardService  -->
<g id="edge12" class="edge">
<title>BoardModule&#45;&gt;ColumnBoardService </title>
<path fill="none" stroke="black" stroke-dasharray="5,2" d="M2279.26,-187.11C2279.26,-187.11 2279.26,-205.99 2279.26,-205.99"/>
<polygon fill="black" stroke="black" points="2275.76,-205.99 2279.26,-215.99 2282.76,-205.99 2275.76,-205.99"/>
</g>
<!-- ColumnService  -->
<g id="node14" class="node">
<title>ColumnService </title>
<polygon fill="#fb8072" stroke="black" points="2135.1,-252 2028.9,-252 2028.9,-216 2135.1,-216 2135.1,-252"/>
<text text-anchor="middle" x="2082" y="-229.8" font-family="Times,serif" font-size="14.00">ColumnService </text>
</g>
<!-- BoardModule&#45;&gt;ColumnService  -->
<g id="edge13" class="edge">
<title>BoardModule&#45;&gt;ColumnService </title>
<path fill="none" stroke="black" stroke-dasharray="5,2" d="M2264.01,-185C2201.31,-185 2098.08,-185 2098.08,-185 2098.08,-185 2098.08,-205.75 2098.08,-205.75"/>
<polygon fill="black" stroke="black" points="2094.58,-205.75 2098.08,-215.75 2101.58,-205.75 2094.58,-205.75"/>
</g>
<!-- ContentElementService  -->
<g id="node15" class="node">
<title>ContentElementService </title>
<polygon fill="#fb8072" stroke="black" points="2010.46,-252 1857.54,-252 1857.54,-216 2010.46,-216 2010.46,-252"/>
<text text-anchor="middle" x="1934" y="-229.8" font-family="Times,serif" font-size="14.00">ContentElementService </text>
</g>
<!-- BoardModule&#45;&gt;ContentElementService  -->
<g id="edge14" class="edge">
<title>BoardModule&#45;&gt;ContentElementService </title>
<path fill="none" stroke="black" stroke-dasharray="5,2" d="M2264.03,-182C2178.01,-182 2003.93,-182 2003.93,-182 2003.93,-182 2003.93,-205.81 2003.93,-205.81"/>
<polygon fill="black" stroke="black" points="2000.43,-205.81 2003.93,-215.81 2007.43,-205.81 2000.43,-205.81"/>
</g>
<!-- SubmissionItemService  -->
<g id="node16" class="node">
<title>SubmissionItemService </title>
<polygon fill="#fb8072" stroke="black" points="1840.48,-252 1687.52,-252 1687.52,-216 1840.48,-216 1840.48,-252"/>
<text text-anchor="middle" x="1764" y="-229.8" font-family="Times,serif" font-size="14.00">SubmissionItemService </text>
</g>
<!-- BoardModule&#45;&gt;SubmissionItemService  -->
<g id="edge15" class="edge">
<title>BoardModule&#45;&gt;SubmissionItemService </title>
<path fill="none" stroke="black" stroke-dasharray="5,2" d="M2264.15,-180C2138.46,-180 1803.3,-180 1803.3,-180 1803.3,-180 1803.3,-205.72 1803.3,-205.72"/>
<polygon fill="black" stroke="black" points="1799.8,-205.72 1803.3,-215.72 1806.8,-205.72 1799.8,-205.72"/>
</g>
<!-- BoardDoAuthorizableService -->
<g id="node17" class="node">
<title>BoardDoAuthorizableService</title>
<ellipse fill="#fdb462" stroke="black" cx="2977" cy="-104" rx="125.6" ry="18"/>
<text text-anchor="middle" x="2977" y="-99.8" font-family="Times,serif" font-size="14.00">BoardDoAuthorizableService</text>
</g>
<!-- BoardDoAuthorizableService&#45;&gt;BoardModule -->
<g id="edge16" class="edge">
<title>BoardDoAuthorizableService&#45;&gt;BoardModule</title>
<path fill="none" stroke="black" d="M2888.57,-117.03C2888.57,-133.3 2888.57,-159 2888.57,-159 2888.57,-159 2367.78,-159 2367.78,-159"/>
<polygon fill="black" stroke="black" points="2367.78,-155.5 2357.78,-159 2367.78,-162.5 2367.78,-155.5"/>
</g>
<!-- BoardDoCopyService -->
<g id="node18" class="node">
<title>BoardDoCopyService</title>
<ellipse fill="#fdb462" stroke="black" cx="2737" cy="-104" rx="96.13" ry="18"/>
<text text-anchor="middle" x="2737" y="-99.8" font-family="Times,serif" font-size="14.00">BoardDoCopyService</text>
</g>
<!-- BoardDoCopyService&#45;&gt;BoardModule -->
<g id="edge17" class="edge">
<title>BoardDoCopyService&#45;&gt;BoardModule</title>
<path fill="none" stroke="black" d="M2681.24,-118.76C2681.24,-134.45 2681.24,-157 2681.24,-157 2681.24,-157 2367.89,-157 2367.89,-157"/>
<polygon fill="black" stroke="black" points="2367.89,-153.5 2357.89,-157 2367.89,-160.5 2367.89,-153.5"/>
</g>
<!-- BoardDoRepo -->
<g id="node19" class="node">
<title>BoardDoRepo</title>
<ellipse fill="#fdb462" stroke="black" cx="2556" cy="-104" rx="66.64" ry="18"/>
<text text-anchor="middle" x="2556" y="-99.8" font-family="Times,serif" font-size="14.00">BoardDoRepo</text>
</g>
<!-- BoardDoRepo&#45;&gt;BoardModule -->
<g id="edge18" class="edge">
<title>BoardDoRepo&#45;&gt;BoardModule</title>
<path fill="none" stroke="black" d="M2495.42,-111.81C2495.42,-125.88 2495.42,-154 2495.42,-154 2495.42,-154 2368.01,-154 2368.01,-154"/>
<polygon fill="black" stroke="black" points="2368.01,-150.5 2358.01,-154 2368.01,-157.5 2368.01,-150.5"/>
</g>
<!-- BoardDoService -->
<g id="node20" class="node">
<title>BoardDoService</title>
<ellipse fill="#fdb462" stroke="black" cx="2396" cy="-104" rx="75.28" ry="18"/>
<text text-anchor="middle" x="2396" y="-99.8" font-family="Times,serif" font-size="14.00">BoardDoService</text>
</g>
<!-- BoardDoService&#45;&gt;BoardModule -->
<g id="edge19" class="edge">
<title>BoardDoService&#45;&gt;BoardModule</title>
<path fill="none" stroke="black" d="M2339.25,-115.92C2339.25,-115.92 2339.25,-140.77 2339.25,-140.77"/>
<polygon fill="black" stroke="black" points="2335.75,-140.77 2339.25,-150.77 2342.75,-140.77 2335.75,-140.77"/>
</g>
<!-- BoardNodeRepo -->
<g id="node21" class="node">
<title>BoardNodeRepo</title>
<ellipse fill="#fdb462" stroke="black" cx="2227" cy="-104" rx="75.87" ry="18"/>
<text text-anchor="middle" x="2227" y="-99.8" font-family="Times,serif" font-size="14.00">BoardNodeRepo</text>
</g>
<!-- BoardNodeRepo&#45;&gt;BoardModule -->
<g id="edge20" class="edge">
<title>BoardNodeRepo&#45;&gt;BoardModule</title>
<path fill="none" stroke="black" d="M2283.53,-116.23C2283.53,-116.23 2283.53,-140.68 2283.53,-140.68"/>
<polygon fill="black" stroke="black" points="2280.03,-140.68 2283.53,-150.68 2287.03,-140.68 2280.03,-140.68"/>
</g>
<!-- CardService -->
<g id="node22" class="node">
<title>CardService</title>
<ellipse fill="#fdb462" stroke="black" cx="2074" cy="-104" rx="58.53" ry="18"/>
<text text-anchor="middle" x="2074" y="-99.8" font-family="Times,serif" font-size="14.00">CardService</text>
</g>
<!-- CardService&#45;&gt;BoardModule -->
<g id="edge21" class="edge">
<title>CardService&#45;&gt;BoardModule</title>
<path fill="none" stroke="black" d="M2063.39,-121.77C2063.39,-136.14 2063.39,-154 2063.39,-154 2063.39,-154 2254.14,-154 2254.14,-154"/>
<polygon fill="black" stroke="black" points="2254.14,-157.5 2264.14,-154 2254.14,-150.5 2254.14,-157.5"/>
</g>
<!-- ColumnBoardCopyService -->
<g id="node23" class="node">
<title>ColumnBoardCopyService</title>
<ellipse fill="#fdb462" stroke="black" cx="1882" cy="-104" rx="115.78" ry="18"/>
<text text-anchor="middle" x="1882" y="-99.8" font-family="Times,serif" font-size="14.00">ColumnBoardCopyService</text>
</g>
<!-- ColumnBoardCopyService&#45;&gt;BoardModule -->
<g id="edge22" class="edge">
<title>ColumnBoardCopyService&#45;&gt;BoardModule</title>
<path fill="none" stroke="black" d="M1927.7,-120.77C1927.7,-136.3 1927.7,-157 1927.7,-157 1927.7,-157 2254,-157 2254,-157"/>
<polygon fill="black" stroke="black" points="2254,-160.5 2264,-157 2254,-153.5 2254,-160.5"/>
</g>
<!-- ColumnBoardService -->
<g id="node24" class="node">
<title>ColumnBoardService</title>
<ellipse fill="#fdb462" stroke="black" cx="1654" cy="-104" rx="94.92" ry="18"/>
<text text-anchor="middle" x="1654" y="-99.8" font-family="Times,serif" font-size="14.00">ColumnBoardService</text>
</g>
<!-- ColumnBoardService&#45;&gt;BoardModule -->
<g id="edge23" class="edge">
<title>ColumnBoardService&#45;&gt;BoardModule</title>
<path fill="none" stroke="black" d="M1718.24,-117.31C1718.24,-133.59 1718.24,-159 1718.24,-159 1718.24,-159 2253.99,-159 2253.99,-159"/>
<polygon fill="black" stroke="black" points="2253.99,-162.5 2263.99,-159 2253.99,-155.5 2253.99,-162.5"/>
</g>
<!-- ColumnService -->
<g id="node25" class="node">
<title>ColumnService</title>
<ellipse fill="#fdb462" stroke="black" cx="1470" cy="-104" rx="71.23" ry="18"/>
<text text-anchor="middle" x="1470" y="-99.8" font-family="Times,serif" font-size="14.00">ColumnService</text>
</g>
<!-- ColumnService&#45;&gt;BoardModule -->
<g id="edge24" class="edge">
<title>ColumnService&#45;&gt;BoardModule</title>
<path fill="none" stroke="black" d="M1470,-122.03C1470,-139.06 1470,-162 1470,-162 1470,-162 2253.98,-162 2253.98,-162"/>
<polygon fill="black" stroke="black" points="2253.98,-165.5 2263.98,-162 2253.98,-158.5 2253.98,-165.5"/>
</g>
<!-- ContentElementFactory -->
<g id="node26" class="node">
<title>ContentElementFactory</title>
<ellipse fill="#fdb462" stroke="black" cx="1278" cy="-104" rx="103.09" ry="18"/>
<text text-anchor="middle" x="1278" y="-99.8" font-family="Times,serif" font-size="14.00">ContentElementFactory</text>
</g>
<!-- ContentElementFactory&#45;&gt;BoardModule -->
<g id="edge25" class="edge">
<title>ContentElementFactory&#45;&gt;BoardModule</title>
<path fill="none" stroke="black" d="M1278,-122C1278,-139.68 1278,-164 1278,-164 1278,-164 2253.93,-164 2253.93,-164"/>
<polygon fill="black" stroke="black" points="2253.93,-167.5 2263.93,-164 2253.93,-160.5 2253.93,-167.5"/>
</g>
<!-- ContentElementService -->
<g id="node27" class="node">
<title>ContentElementService</title>
<ellipse fill="#fdb462" stroke="black" cx="1054" cy="-104" rx="102.51" ry="18"/>
<text text-anchor="middle" x="1054" y="-99.8" font-family="Times,serif" font-size="14.00">ContentElementService</text>
</g>
<!-- ContentElementService&#45;&gt;BoardModule -->
<g id="edge26" class="edge">
<title>ContentElementService&#45;&gt;BoardModule</title>
<path fill="none" stroke="black" d="M1054,-122.22C1054,-140.83 1054,-167 1054,-167 1054,-167 2254.02,-167 2254.02,-167"/>
<polygon fill="black" stroke="black" points="2254.02,-170.5 2264.02,-167 2254.02,-163.5 2254.02,-170.5"/>
</g>
<!-- CourseRepo -->
<g id="node28" class="node">
<title>CourseRepo</title>
<ellipse fill="#fdb462" stroke="black" cx="874" cy="-104" rx="58.55" ry="18"/>
<text text-anchor="middle" x="874" y="-99.8" font-family="Times,serif" font-size="14.00">CourseRepo</text>
</g>
<!-- CourseRepo&#45;&gt;BoardModule -->
<g id="edge27" class="edge">
<title>CourseRepo&#45;&gt;BoardModule</title>
<path fill="none" stroke="black" d="M874,-122.11C874,-141.34 874,-169 874,-169 874,-169 2254.01,-169 2254.01,-169"/>
<polygon fill="black" stroke="black" points="2254.01,-172.5 2264.01,-169 2254.01,-165.5 2254.01,-172.5"/>
</g>
<!-- RecursiveDeleteVisitor -->
<g id="node29" class="node">
<title>RecursiveDeleteVisitor</title>
<ellipse fill="#fdb462" stroke="black" cx="696" cy="-104" rx="101.84" ry="18"/>
<text text-anchor="middle" x="696" y="-99.8" font-family="Times,serif" font-size="14.00">RecursiveDeleteVisitor</text>
</g>
<!-- RecursiveDeleteVisitor&#45;&gt;BoardModule -->
<g id="edge28" class="edge">
<title>RecursiveDeleteVisitor&#45;&gt;BoardModule</title>
<path fill="none" stroke="black" d="M696,-122.22C696,-142.37 696,-172 696,-172 696,-172 2253.98,-172 2253.98,-172"/>
<polygon fill="black" stroke="black" points="2253.98,-175.5 2263.98,-172 2253.98,-168.5 2253.98,-175.5"/>
</g>
<!-- SchoolSpecificFileCopyServiceFactory -->
<g id="node30" class="node">
<title>SchoolSpecificFileCopyServiceFactory</title>
<ellipse fill="#fdb462" stroke="black" cx="412" cy="-104" rx="163.8" ry="18"/>
<text text-anchor="middle" x="412" y="-99.8" font-family="Times,serif" font-size="14.00">SchoolSpecificFileCopyServiceFactory</text>
</g>
<!-- SchoolSpecificFileCopyServiceFactory&#45;&gt;BoardModule -->
<g id="edge29" class="edge">
<title>SchoolSpecificFileCopyServiceFactory&#45;&gt;BoardModule</title>
<path fill="none" stroke="black" d="M412,-122.28C412,-143.32 412,-175 412,-175 412,-175 2254.06,-175 2254.06,-175"/>
<polygon fill="black" stroke="black" points="2254.06,-178.5 2264.06,-175 2254.06,-171.5 2254.06,-178.5"/>
</g>
<!-- SubmissionItemService -->
<g id="node31" class="node">
<title>SubmissionItemService</title>
<ellipse fill="#fdb462" stroke="black" cx="127" cy="-104" rx="102.52" ry="18"/>
<text text-anchor="middle" x="127" y="-99.8" font-family="Times,serif" font-size="14.00">SubmissionItemService</text>
</g>
<!-- SubmissionItemService&#45;&gt;BoardModule -->
<g id="edge30" class="edge">
<title>SubmissionItemService&#45;&gt;BoardModule</title>
<path fill="none" stroke="black" d="M127,-122.04C127,-143.66 127,-177 127,-177 127,-177 2254.12,-177 2254.12,-177"/>
<polygon fill="black" stroke="black" points="2254.12,-180.5 2264.12,-177 2254.12,-173.5 2254.12,-180.5"/>
</g>
</g>
</svg>
