<?xml version="1.0" encoding="UTF-8" standalone="no"?>
<!DOCTYPE svg PUBLIC "-//W3C//DTD SVG 1.1//EN"
 "http://www.w3.org/Graphics/SVG/1.1/DTD/svg11.dtd">
<!-- Generated by graphviz version 2.47.0 (20210316.0004)
 -->
<!-- Title: dependencies Pages: 1 -->
<svg width="4342pt" height="284pt"
 viewBox="0.00 0.00 4342.00 284.00" xmlns="http://www.w3.org/2000/svg" xmlns:xlink="http://www.w3.org/1999/xlink">
<g id="graph0" class="graph" transform="scale(1 1) rotate(0) translate(4 280)">
<title>dependencies</title>
<polygon fill="white" stroke="transparent" points="-4,4 -4,-280 4338,-280 4338,4 -4,4"/>
<text text-anchor="start" x="2146.01" y="-42.4" font-family="Times-12" font-weight="bold" font-size="14.00">Legend</text>
<polygon fill="#ffffb3" stroke="transparent" points="1933,-10 1933,-30 1953,-30 1953,-10 1933,-10"/>
<text text-anchor="start" x="1956.63" y="-15.4" font-family="Times-12" font-size="14.00"> &#160;Declarations</text>
<polygon fill="#8dd3c7" stroke="transparent" points="2046,-10 2046,-30 2066,-30 2066,-10 2046,-10"/>
<text text-anchor="start" x="2069.73" y="-15.4" font-family="Times-12" font-size="14.00"> &#160;Module</text>
<polygon fill="#80b1d3" stroke="transparent" points="2132,-10 2132,-30 2152,-30 2152,-10 2132,-10"/>
<text text-anchor="start" x="2155.78" y="-15.4" font-family="Times-12" font-size="14.00"> &#160;Bootstrap</text>
<polygon fill="#fdb462" stroke="transparent" points="2229,-10 2229,-30 2249,-30 2249,-10 2229,-10"/>
<text text-anchor="start" x="2252.67" y="-15.4" font-family="Times-12" font-size="14.00"> &#160;Providers</text>
<polygon fill="#fb8072" stroke="transparent" points="2325,-10 2325,-30 2345,-30 2345,-10 2325,-10"/>
<text text-anchor="start" x="2348.73" y="-15.4" font-family="Times-12" font-size="14.00"> &#160;Exports</text>
<g id="clust1" class="cluster">
<title>cluster_BoardModule</title>
<polygon fill="none" stroke="black" stroke-dasharray="1,5" points="8,-70 8,-268 4326,-268 4326,-70 8,-70"/>
</g>
<g id="clust6" class="cluster">
<title>cluster_BoardModule_providers</title>
<polygon fill="none" stroke="black" points="1223,-78 1223,-130 4318,-130 4318,-78 1223,-78"/>
</g>
<g id="clust4" class="cluster">
<title>cluster_BoardModule_exports</title>
<polygon fill="none" stroke="black" points="1450,-208 1450,-260 2704,-260 2704,-208 1450,-208"/>
</g>
<g id="clust3" class="cluster">
<title>cluster_BoardModule_imports</title>
<polygon fill="none" stroke="black" points="16,-78 16,-130 1215,-130 1215,-78 16,-78"/>
</g>
<!-- ConsoleWriterModule -->
<g id="node1" class="node">
<title>ConsoleWriterModule</title>
<polygon fill="#8dd3c7" stroke="black" points="1206.97,-122 1203.97,-126 1182.97,-126 1179.97,-122 1065.03,-122 1065.03,-86 1206.97,-86 1206.97,-122"/>
<text text-anchor="middle" x="1136" y="-99.8" font-family="Times,serif" font-size="14.00">ConsoleWriterModule</text>
</g>
<!-- BoardModule -->
<g id="node9" class="node">
<title>BoardModule</title>
<polygon fill="#8dd3c7" stroke="black" points="2127.76,-187 2124.76,-191 2103.76,-191 2100.76,-187 2034.24,-187 2034.24,-151 2127.76,-151 2127.76,-187"/>
<text text-anchor="middle" x="2081" y="-164.8" font-family="Times,serif" font-size="14.00">BoardModule</text>
</g>
<!-- ConsoleWriterModule&#45;&gt;BoardModule -->
<g id="edge1" class="edge">
<title>ConsoleWriterModule&#45;&gt;BoardModule</title>
<path fill="none" stroke="black" d="M1136,-122.04C1136,-138.73 1136,-161 1136,-161 1136,-161 2024.14,-161 2024.14,-161"/>
<polygon fill="black" stroke="black" points="2024.14,-164.5 2034.14,-161 2024.14,-157.5 2024.14,-164.5"/>
</g>
<!-- ContextExternalToolModule -->
<g id="node2" class="node">
<title>ContextExternalToolModule</title>
<polygon fill="#8dd3c7" stroke="black" points="1046.75,-122 1043.75,-126 1022.75,-126 1019.75,-122 869.25,-122 869.25,-86 1046.75,-86 1046.75,-122"/>
<text text-anchor="middle" x="958" y="-99.8" font-family="Times,serif" font-size="14.00">ContextExternalToolModule</text>
</g>
<!-- ContextExternalToolModule&#45;&gt;BoardModule -->
<g id="edge2" class="edge">
<title>ContextExternalToolModule&#45;&gt;BoardModule</title>
<path fill="none" stroke="black" d="M958,-122.02C958,-139.37 958,-163 958,-163 958,-163 2024.18,-163 2024.18,-163"/>
<polygon fill="black" stroke="black" points="2024.18,-166.5 2034.18,-163 2024.18,-159.5 2024.18,-166.5"/>
</g>
<!-- CopyHelperModule -->
<g id="node3" class="node">
<title>CopyHelperModule</title>
<polygon fill="#8dd3c7" stroke="black" points="850.97,-122 847.97,-126 826.97,-126 823.97,-122 723.03,-122 723.03,-86 850.97,-86 850.97,-122"/>
<text text-anchor="middle" x="787" y="-99.8" font-family="Times,serif" font-size="14.00">CopyHelperModule</text>
</g>
<!-- CopyHelperModule&#45;&gt;BoardModule -->
<g id="edge3" class="edge">
<title>CopyHelperModule&#45;&gt;BoardModule</title>
<path fill="none" stroke="black" d="M787,-122.27C787,-140.56 787,-166 787,-166 787,-166 2024.18,-166 2024.18,-166"/>
<polygon fill="black" stroke="black" points="2024.18,-169.5 2034.18,-166 2024.18,-162.5 2024.18,-169.5"/>
</g>
<!-- FilesStorageClientModule -->
<g id="node4" class="node">
<title>FilesStorageClientModule</title>
<polygon fill="#8dd3c7" stroke="black" points="704.76,-122 701.76,-126 680.76,-126 677.76,-122 541.24,-122 541.24,-86 704.76,-86 704.76,-122"/>
<text text-anchor="middle" x="623" y="-99.8" font-family="Times,serif" font-size="14.00">FilesStorageClientModule</text>
</g>
<!-- FilesStorageClientModule&#45;&gt;BoardModule -->
<g id="edge4" class="edge">
<title>FilesStorageClientModule&#45;&gt;BoardModule</title>
<path fill="none" stroke="black" d="M623,-122.17C623,-141.09 623,-168 623,-168 623,-168 2024.14,-168 2024.14,-168"/>
<polygon fill="black" stroke="black" points="2024.14,-171.5 2034.14,-168 2024.14,-164.5 2024.14,-171.5"/>
</g>
<!-- LoggerModule -->
<g id="node5" class="node">
<title>LoggerModule</title>
<polygon fill="#8dd3c7" stroke="black" points="522.98,-122 519.98,-126 498.98,-126 495.98,-122 423.02,-122 423.02,-86 522.98,-86 522.98,-122"/>
<text text-anchor="middle" x="473" y="-99.8" font-family="Times,serif" font-size="14.00">LoggerModule</text>
</g>
<!-- LoggerModule&#45;&gt;BoardModule -->
<g id="edge5" class="edge">
<title>LoggerModule&#45;&gt;BoardModule</title>
<path fill="none" stroke="black" d="M473,-122.31C473,-142.15 473,-171 473,-171 473,-171 2024.18,-171 2024.18,-171"/>
<polygon fill="black" stroke="black" points="2024.18,-174.5 2034.18,-171 2024.18,-167.5 2024.18,-174.5"/>
</g>
<!-- TldrawClientModule -->
<g id="node6" class="node">
<title>TldrawClientModule</title>
<polygon fill="#8dd3c7" stroke="black" points="405.2,-122 402.2,-126 381.2,-126 378.2,-122 270.8,-122 270.8,-86 405.2,-86 405.2,-122"/>
<text text-anchor="middle" x="338" y="-99.8" font-family="Times,serif" font-size="14.00">TldrawClientModule</text>
</g>
<!-- TldrawClientModule&#45;&gt;BoardModule -->
<g id="edge6" class="edge">
<title>TldrawClientModule&#45;&gt;BoardModule</title>
<path fill="none" stroke="black" d="M338,-122.13C338,-142.57 338,-173 338,-173 338,-173 2023.93,-173 2023.93,-173"/>
<polygon fill="black" stroke="black" points="2023.93,-176.5 2033.93,-173 2023.93,-169.5 2023.93,-176.5"/>
</g>
<!-- ToolConfigModule -->
<g id="node7" class="node">
<title>ToolConfigModule</title>
<polygon fill="#8dd3c7" stroke="black" points="252.38,-122 249.38,-126 228.38,-126 225.38,-122 127.62,-122 127.62,-86 252.38,-86 252.38,-122"/>
<text text-anchor="middle" x="190" y="-99.8" font-family="Times,serif" font-size="14.00">ToolConfigModule</text>
</g>
<!-- ToolConfigModule&#45;&gt;BoardModule -->
<g id="edge7" class="edge">
<title>ToolConfigModule&#45;&gt;BoardModule</title>
<path fill="none" stroke="black" d="M190,-122.28C190,-143.32 190,-175 190,-175 190,-175 2023.78,-175 2023.78,-175"/>
<polygon fill="black" stroke="black" points="2023.78,-178.5 2033.78,-175 2023.78,-171.5 2023.78,-178.5"/>
</g>
<!-- UserModule -->
<g id="node8" class="node">
<title>UserModule</title>
<polygon fill="#8dd3c7" stroke="black" points="109.98,-122 106.98,-126 85.98,-126 82.98,-122 24.02,-122 24.02,-86 109.98,-86 109.98,-122"/>
<text text-anchor="middle" x="67" y="-99.8" font-family="Times,serif" font-size="14.00">UserModule</text>
</g>
<!-- UserModule&#45;&gt;BoardModule -->
<g id="edge8" class="edge">
<title>UserModule&#45;&gt;BoardModule</title>
<path fill="none" stroke="black" d="M67,-122.29C67,-144.21 67,-178 67,-178 67,-178 2024.18,-178 2024.18,-178"/>
<polygon fill="black" stroke="black" points="2024.18,-181.5 2034.18,-178 2024.18,-174.5 2024.18,-181.5"/>
</g>
<!-- BoardDoAuthorizableService  -->
<g id="node10" class="node">
<title>BoardDoAuthorizableService </title>
<polygon fill="#fb8072" stroke="black" points="2695.88,-252 2510.12,-252 2510.12,-216 2695.88,-216 2695.88,-252"/>
<text text-anchor="middle" x="2603" y="-229.8" font-family="Times,serif" font-size="14.00">BoardDoAuthorizableService </text>
</g>
<!-- BoardModule&#45;&gt;BoardDoAuthorizableService  -->
<g id="edge9" class="edge">
<title>BoardModule&#45;&gt;BoardDoAuthorizableService </title>
<path fill="none" stroke="black" stroke-dasharray="5,2" d="M2128.03,-180C2246.76,-180 2549.18,-180 2549.18,-180 2549.18,-180 2549.18,-205.72 2549.18,-205.72"/>
<polygon fill="black" stroke="black" points="2545.68,-205.72 2549.18,-215.72 2552.68,-205.72 2545.68,-205.72"/>
</g>
<!-- BoardNodeRepo  -->
<g id="node11" class="node">
<title>BoardNodeRepo </title>
<polygon fill="#fb8072" stroke="black" points="2491.58,-252 2378.42,-252 2378.42,-216 2491.58,-216 2491.58,-252"/>
<text text-anchor="middle" x="2435" y="-229.8" font-family="Times,serif" font-size="14.00">BoardNodeRepo </text>
</g>
<!-- BoardModule&#45;&gt;BoardNodeRepo  -->
<g id="edge10" class="edge">
<title>BoardModule&#45;&gt;BoardNodeRepo </title>
<path fill="none" stroke="black" stroke-dasharray="5,2" d="M2128,-183C2228.48,-183 2455.1,-183 2455.1,-183 2455.1,-183 2455.1,-205.88 2455.1,-205.88"/>
<polygon fill="black" stroke="black" points="2451.6,-205.88 2455.1,-215.88 2458.6,-205.88 2451.6,-205.88"/>
</g>
<!-- CardService  -->
<g id="node12" class="node">
<title>CardService </title>
<polygon fill="#fb8072" stroke="black" points="2360.19,-252 2271.81,-252 2271.81,-216 2360.19,-216 2360.19,-252"/>
<text text-anchor="middle" x="2316" y="-229.8" font-family="Times,serif" font-size="14.00">CardService </text>
</g>
<!-- BoardModule&#45;&gt;CardService  -->
<g id="edge11" class="edge">
<title>BoardModule&#45;&gt;CardService </title>
<path fill="none" stroke="black" stroke-dasharray="5,2" d="M2127.99,-185C2196.57,-185 2316,-185 2316,-185 2316,-185 2316,-205.75 2316,-205.75"/>
<polygon fill="black" stroke="black" points="2312.5,-205.75 2316,-215.75 2319.5,-205.75 2312.5,-205.75"/>
</g>
<!-- ColumnBoardCopyService  -->
<g id="node13" class="node">
<title>ColumnBoardCopyService </title>
<polygon fill="#fb8072" stroke="black" points="2253.64,-252 2082.36,-252 2082.36,-216 2253.64,-216 2253.64,-252"/>
<text text-anchor="middle" x="2168" y="-229.8" font-family="Times,serif" font-size="14.00">ColumnBoardCopyService </text>
</g>
<!-- BoardModule&#45;&gt;ColumnBoardCopyService  -->
<g id="edge12" class="edge">
<title>BoardModule&#45;&gt;ColumnBoardCopyService </title>
<path fill="none" stroke="black" stroke-dasharray="5,2" d="M2105.15,-187.11C2105.15,-187.11 2105.15,-205.99 2105.15,-205.99"/>
<polygon fill="black" stroke="black" points="2101.65,-205.99 2105.15,-215.99 2108.65,-205.99 2101.65,-205.99"/>
</g>
<!-- ColumnBoardService  -->
<g id="node14" class="node">
<title>ColumnBoardService </title>
<polygon fill="#fb8072" stroke="black" points="2064.31,-252 1923.69,-252 1923.69,-216 2064.31,-216 2064.31,-252"/>
<text text-anchor="middle" x="1994" y="-229.8" font-family="Times,serif" font-size="14.00">ColumnBoardService </text>
</g>
<!-- BoardModule&#45;&gt;ColumnBoardService  -->
<g id="edge13" class="edge">
<title>BoardModule&#45;&gt;ColumnBoardService </title>
<path fill="none" stroke="black" stroke-dasharray="5,2" d="M2049.26,-187.11C2049.26,-187.11 2049.26,-205.99 2049.26,-205.99"/>
<polygon fill="black" stroke="black" points="2045.76,-205.99 2049.26,-215.99 2052.76,-205.99 2045.76,-205.99"/>
</g>
<!-- ColumnService  -->
<g id="node15" class="node">
<title>ColumnService </title>
<polygon fill="#fb8072" stroke="black" points="1905.1,-252 1798.9,-252 1798.9,-216 1905.1,-216 1905.1,-252"/>
<text text-anchor="middle" x="1852" y="-229.8" font-family="Times,serif" font-size="14.00">ColumnService </text>
</g>
<!-- BoardModule&#45;&gt;ColumnService  -->
<g id="edge14" class="edge">
<title>BoardModule&#45;&gt;ColumnService </title>
<path fill="none" stroke="black" stroke-dasharray="5,2" d="M2034.1,-185C1967.45,-185 1853.31,-185 1853.31,-185 1853.31,-185 1853.31,-205.75 1853.31,-205.75"/>
<polygon fill="black" stroke="black" points="1849.82,-205.75 1853.31,-215.75 1856.82,-205.75 1849.82,-205.75"/>
</g>
<!-- ContentElementService  -->
<g id="node16" class="node">
<title>ContentElementService </title>
<polygon fill="#fb8072" stroke="black" points="1780.46,-252 1627.54,-252 1627.54,-216 1780.46,-216 1780.46,-252"/>
<text text-anchor="middle" x="1704" y="-229.8" font-family="Times,serif" font-size="14.00">ContentElementService </text>
</g>
<!-- BoardModule&#45;&gt;ContentElementService  -->
<g id="edge15" class="edge">
<title>BoardModule&#45;&gt;ContentElementService </title>
<path fill="none" stroke="black" stroke-dasharray="5,2" d="M2033.95,-183C1938.14,-183 1729.41,-183 1729.41,-183 1729.41,-183 1729.41,-205.88 1729.41,-205.88"/>
<polygon fill="black" stroke="black" points="1725.91,-205.88 1729.41,-215.88 1732.91,-205.88 1725.91,-205.88"/>
</g>
<!-- SubmissionItemService  -->
<g id="node17" class="node">
<title>SubmissionItemService </title>
<polygon fill="#fb8072" stroke="black" points="1610.48,-252 1457.52,-252 1457.52,-216 1610.48,-216 1610.48,-252"/>
<text text-anchor="middle" x="1534" y="-229.8" font-family="Times,serif" font-size="14.00">SubmissionItemService </text>
</g>
<!-- BoardModule&#45;&gt;SubmissionItemService  -->
<g id="edge16" class="edge">
<title>BoardModule&#45;&gt;SubmissionItemService </title>
<path fill="none" stroke="black" stroke-dasharray="5,2" d="M2033.89,-180C1901.21,-180 1534,-180 1534,-180 1534,-180 1534,-205.72 1534,-205.72"/>
<polygon fill="black" stroke="black" points="1530.5,-205.72 1534,-215.72 1537.5,-205.72 1530.5,-205.72"/>
</g>
<!-- BoardDoAuthorizableService -->
<g id="node18" class="node">
<title>BoardDoAuthorizableService</title>
<ellipse fill="#fdb462" stroke="black" cx="4184" cy="-104" rx="125.6" ry="18"/>
<text text-anchor="middle" x="4184" y="-99.8" font-family="Times,serif" font-size="14.00">BoardDoAuthorizableService</text>
</g>
<!-- BoardDoAuthorizableService&#45;&gt;BoardModule -->
<g id="edge17" class="edge">
<title>BoardDoAuthorizableService&#45;&gt;BoardModule</title>
<path fill="none" stroke="black" d="M4184,-122.29C4184,-144.21 4184,-178 4184,-178 4184,-178 2137.87,-178 2137.87,-178"/>
<polygon fill="black" stroke="black" points="2137.87,-174.5 2127.87,-178 2137.87,-181.5 2137.87,-174.5"/>
</g>
<!-- BoardDoCopyService -->
<g id="node19" class="node">
<title>BoardDoCopyService</title>
<ellipse fill="#fdb462" stroke="black" cx="3944" cy="-104" rx="96.13" ry="18"/>
<text text-anchor="middle" x="3944" y="-99.8" font-family="Times,serif" font-size="14.00">BoardDoCopyService</text>
</g>
<!-- BoardDoCopyService&#45;&gt;BoardModule -->
<g id="edge18" class="edge">
<title>BoardDoCopyService&#45;&gt;BoardModule</title>
<path fill="none" stroke="black" d="M3944,-122.28C3944,-143.32 3944,-175 3944,-175 3944,-175 2137.98,-175 2137.98,-175"/>
<polygon fill="black" stroke="black" points="2137.98,-171.5 2127.98,-175 2137.98,-178.5 2137.98,-171.5"/>
</g>
<!-- BoardDoRepo -->
<g id="node20" class="node">
<title>BoardDoRepo</title>
<ellipse fill="#fdb462" stroke="black" cx="3763" cy="-104" rx="66.64" ry="18"/>
<text text-anchor="middle" x="3763" y="-99.8" font-family="Times,serif" font-size="14.00">BoardDoRepo</text>
</g>
<!-- BoardDoRepo&#45;&gt;BoardModule -->
<g id="edge19" class="edge">
<title>BoardDoRepo&#45;&gt;BoardModule</title>
<path fill="none" stroke="black" d="M3763,-122.13C3763,-142.57 3763,-173 3763,-173 3763,-173 2138.18,-173 2138.18,-173"/>
<polygon fill="black" stroke="black" points="2138.18,-169.5 2128.18,-173 2138.18,-176.5 2138.18,-169.5"/>
</g>
<!-- BoardDoService -->
<g id="node21" class="node">
<title>BoardDoService</title>
<ellipse fill="#fdb462" stroke="black" cx="3603" cy="-104" rx="75.28" ry="18"/>
<text text-anchor="middle" x="3603" y="-99.8" font-family="Times,serif" font-size="14.00">BoardDoService</text>
</g>
<!-- BoardDoService&#45;&gt;BoardModule -->
<g id="edge20" class="edge">
<title>BoardDoService&#45;&gt;BoardModule</title>
<path fill="none" stroke="black" d="M3603,-122.31C3603,-142.15 3603,-171 3603,-171 3603,-171 2137.8,-171 2137.8,-171"/>
<polygon fill="black" stroke="black" points="2137.8,-167.5 2127.8,-171 2137.8,-174.5 2137.8,-167.5"/>
</g>
<!-- BoardNodeRepo -->
<g id="node22" class="node">
<title>BoardNodeRepo</title>
<ellipse fill="#fdb462" stroke="black" cx="3434" cy="-104" rx="75.87" ry="18"/>
<text text-anchor="middle" x="3434" y="-99.8" font-family="Times,serif" font-size="14.00">BoardNodeRepo</text>
</g>
<!-- BoardNodeRepo&#45;&gt;BoardModule -->
<g id="edge21" class="edge">
<title>BoardNodeRepo&#45;&gt;BoardModule</title>
<path fill="none" stroke="black" d="M3434,-122.17C3434,-141.09 3434,-168 3434,-168 3434,-168 2137.97,-168 2137.97,-168"/>
<polygon fill="black" stroke="black" points="2137.97,-164.5 2127.97,-168 2137.97,-171.5 2137.97,-164.5"/>
</g>
<!-- CardService -->
<g id="node23" class="node">
<title>CardService</title>
<ellipse fill="#fdb462" stroke="black" cx="3281" cy="-104" rx="58.53" ry="18"/>
<text text-anchor="middle" x="3281" y="-99.8" font-family="Times,serif" font-size="14.00">CardService</text>
</g>
<!-- CardService&#45;&gt;BoardModule -->
<g id="edge22" class="edge">
<title>CardService&#45;&gt;BoardModule</title>
<path fill="none" stroke="black" d="M3281,-122.27C3281,-140.56 3281,-166 3281,-166 3281,-166 2138.04,-166 2138.04,-166"/>
<polygon fill="black" stroke="black" points="2138.04,-162.5 2128.04,-166 2138.04,-169.5 2138.04,-162.5"/>
</g>
<!-- ColumnBoardCopyService -->
<g id="node24" class="node">
<title>ColumnBoardCopyService</title>
<ellipse fill="#fdb462" stroke="black" cx="3089" cy="-104" rx="115.78" ry="18"/>
<text text-anchor="middle" x="3089" y="-99.8" font-family="Times,serif" font-size="14.00">ColumnBoardCopyService</text>
</g>
<!-- ColumnBoardCopyService&#45;&gt;BoardModule -->
<g id="edge23" class="edge">
<title>ColumnBoardCopyService&#45;&gt;BoardModule</title>
<path fill="none" stroke="black" d="M3089,-122.02C3089,-139.37 3089,-163 3089,-163 3089,-163 2137.93,-163 2137.93,-163"/>
<polygon fill="black" stroke="black" points="2137.93,-159.5 2127.93,-163 2137.93,-166.5 2137.93,-159.5"/>
</g>
<!-- ColumnBoardService -->
<g id="node25" class="node">
<title>ColumnBoardService</title>
<ellipse fill="#fdb462" stroke="black" cx="2861" cy="-104" rx="94.92" ry="18"/>
<text text-anchor="middle" x="2861" y="-99.8" font-family="Times,serif" font-size="14.00">ColumnBoardService</text>
</g>
<!-- ColumnBoardService&#45;&gt;BoardModule -->
<g id="edge24" class="edge">
<title>ColumnBoardService&#45;&gt;BoardModule</title>
<path fill="none" stroke="black" d="M2861,-122.04C2861,-138.73 2861,-161 2861,-161 2861,-161 2138.04,-161 2138.04,-161"/>
<polygon fill="black" stroke="black" points="2138.04,-157.5 2128.04,-161 2138.04,-164.5 2138.04,-157.5"/>
</g>
<!-- ColumnService -->
<g id="node26" class="node">
<title>ColumnService</title>
<ellipse fill="#fdb462" stroke="black" cx="2677" cy="-104" rx="71.23" ry="18"/>
<text text-anchor="middle" x="2677" y="-99.8" font-family="Times,serif" font-size="14.00">ColumnService</text>
</g>
<!-- ColumnService&#45;&gt;BoardModule -->
<g id="edge25" class="edge">
<title>ColumnService&#45;&gt;BoardModule</title>
<path fill="none" stroke="black" d="M2650.91,-120.8C2650.91,-136.98 2650.91,-159 2650.91,-159 2650.91,-159 2138.12,-159 2138.12,-159"/>
<polygon fill="black" stroke="black" points="2138.12,-155.5 2128.12,-159 2138.12,-162.5 2138.12,-155.5"/>
</g>
<!-- ContentElementFactory -->
<g id="node27" class="node">
<title>ContentElementFactory</title>
<ellipse fill="#fdb462" stroke="black" cx="2485" cy="-104" rx="103.09" ry="18"/>
<text text-anchor="middle" x="2485" y="-99.8" font-family="Times,serif" font-size="14.00">ContentElementFactory</text>
</g>
<!-- ContentElementFactory&#45;&gt;BoardModule -->
<g id="edge26" class="edge">
<title>ContentElementFactory&#45;&gt;BoardModule</title>
<path fill="none" stroke="black" d="M2418.4,-117.94C2418.4,-133.34 2418.4,-156 2418.4,-156 2418.4,-156 2137.91,-156 2137.91,-156"/>
<polygon fill="black" stroke="black" points="2137.91,-152.5 2127.91,-156 2137.91,-159.5 2137.91,-152.5"/>
</g>
<!-- ContentElementService -->
<g id="node28" class="node">
<title>ContentElementService</title>
<ellipse fill="#fdb462" stroke="black" cx="2261" cy="-104" rx="102.51" ry="18"/>
<text text-anchor="middle" x="2261" y="-99.8" font-family="Times,serif" font-size="14.00">ContentElementService</text>
</g>
<!-- ContentElementService&#45;&gt;BoardModule -->
<g id="edge27" class="edge">
<title>ContentElementService&#45;&gt;BoardModule</title>
<path fill="none" stroke="black" d="M2205.91,-119.27C2205.91,-133.98 2205.91,-154 2205.91,-154 2205.91,-154 2137.87,-154 2137.87,-154"/>
<polygon fill="black" stroke="black" points="2137.87,-150.5 2127.87,-154 2137.87,-157.5 2137.87,-150.5"/>
</g>
<!-- CourseRepo -->
<g id="node29" class="node">
<title>CourseRepo</title>
<ellipse fill="#fdb462" stroke="black" cx="2081" cy="-104" rx="58.55" ry="18"/>
<text text-anchor="middle" x="2081" y="-99.8" font-family="Times,serif" font-size="14.00">CourseRepo</text>
</g>
<!-- CourseRepo&#45;&gt;BoardModule -->
<g id="edge28" class="edge">
<title>CourseRepo&#45;&gt;BoardModule</title>
<path fill="none" stroke="black" d="M2081,-122.11C2081,-122.11 2081,-140.99 2081,-140.99"/>
<polygon fill="black" stroke="black" points="2077.5,-140.99 2081,-150.99 2084.5,-140.99 2077.5,-140.99"/>
</g>
<!-- RecursiveDeleteVisitor -->
<g id="node30" class="node">
<title>RecursiveDeleteVisitor</title>
<ellipse fill="#fdb462" stroke="black" cx="1903" cy="-104" rx="101.84" ry="18"/>
<text text-anchor="middle" x="1903" y="-99.8" font-family="Times,serif" font-size="14.00">RecursiveDeleteVisitor</text>
</g>
<!-- RecursiveDeleteVisitor&#45;&gt;BoardModule -->
<g id="edge29" class="edge">
<title>RecursiveDeleteVisitor&#45;&gt;BoardModule</title>
<path fill="none" stroke="black" d="M1964.13,-118.46C1964.13,-133.23 1964.13,-154 1964.13,-154 1964.13,-154 2024.14,-154 2024.14,-154"/>
<polygon fill="black" stroke="black" points="2024.14,-157.5 2034.14,-154 2024.14,-150.5 2024.14,-157.5"/>
</g>
<!-- SchoolSpecificFileCopyServiceFactory -->
<g id="node31" class="node">
<title>SchoolSpecificFileCopyServiceFactory</title>
<ellipse fill="#fdb462" stroke="black" cx="1619" cy="-104" rx="163.8" ry="18"/>
<text text-anchor="middle" x="1619" y="-99.8" font-family="Times,serif" font-size="14.00">SchoolSpecificFileCopyServiceFactory</text>
</g>
<!-- SchoolSpecificFileCopyServiceFactory&#45;&gt;BoardModule -->
<g id="edge30" class="edge">
<title>SchoolSpecificFileCopyServiceFactory&#45;&gt;BoardModule</title>
<path fill="none" stroke="black" d="M1678.59,-121.03C1678.59,-136.19 1678.59,-156 1678.59,-156 1678.59,-156 2024.05,-156 2024.05,-156"/>
<polygon fill="black" stroke="black" points="2024.05,-159.5 2034.05,-156 2024.05,-152.5 2024.05,-159.5"/>
</g>
<!-- SubmissionItemService -->
<g id="node32" class="node">
<title>SubmissionItemService</title>
<ellipse fill="#fdb462" stroke="black" cx="1334" cy="-104" rx="102.52" ry="18"/>
<text text-anchor="middle" x="1334" y="-99.8" font-family="Times,serif" font-size="14.00">SubmissionItemService</text>
</g>
<!-- SubmissionItemService&#45;&gt;BoardModule -->
<g id="edge31" class="edge">
<title>SubmissionItemService&#45;&gt;BoardModule</title>
<path fill="none" stroke="black" d="M1334,-122.01C1334,-138.05 1334,-159 1334,-159 1334,-159 2023.99,-159 2023.99,-159"/>
<polygon fill="black" stroke="black" points="2023.99,-162.5 2033.99,-159 2023.99,-155.5 2023.99,-162.5"/>
</g>
</g>
</svg>
