<?xml version="1.0" encoding="UTF-8" standalone="no"?>
<!DOCTYPE svg PUBLIC "-//W3C//DTD SVG 1.1//EN"
 "http://www.w3.org/Graphics/SVG/1.1/DTD/svg11.dtd">
<!-- Generated by graphviz version 5.0.0 (20220707.1540)
 -->
<!-- Title: dependencies Pages: 1 -->
<svg width="2381pt" height="247pt"
 viewBox="0.00 0.00 2381.00 246.80" xmlns="http://www.w3.org/2000/svg" xmlns:xlink="http://www.w3.org/1999/xlink">
<g id="graph0" class="graph" transform="scale(1 1) rotate(0) translate(4 242.8)">
<title>dependencies</title>
<polygon fill="white" stroke="transparent" points="-4,4 -4,-242.8 2377,-242.8 2377,4 -4,4"/>
<text text-anchor="middle" x="1186.5" y="-8.2" font-family="sans-serif" font-size="14.00">dependencies</text>
<g id="clust1" class="cluster">
<title>cluster_BoardModule</title>
<polygon fill="none" stroke="black" stroke-dasharray="1,5" points="8,-32.8 8,-230.8 2365,-230.8 2365,-32.8 8,-32.8"/>
</g>
<g id="clust3" class="cluster">
<title>cluster_BoardModule_imports</title>
<polygon fill="none" stroke="black" points="2081,-40.8 2081,-92.8 2357,-92.8 2357,-40.8 2081,-40.8"/>
</g>
<g id="clust6" class="cluster">
<title>cluster_BoardModule_providers</title>
<polygon fill="none" stroke="black" points="16,-40.8 16,-92.8 2073,-92.8 2073,-40.8 16,-40.8"/>
</g>
<g id="clust4" class="cluster">
<title>cluster_BoardModule_exports</title>
<polygon fill="none" stroke="black" points="906,-170.8 906,-222.8 1609,-222.8 1609,-170.8 906,-170.8"/>
</g>
<!-- ConsoleWriterModule -->
<g id="node1" class="node">
<title>ConsoleWriterModule</title>
<polygon fill="#8dd3c7" stroke="black" points="2348.97,-84.8 2345.97,-88.8 2324.97,-88.8 2321.97,-84.8 2207.03,-84.8 2207.03,-48.8 2348.97,-48.8 2348.97,-84.8"/>
<text text-anchor="middle" x="2278" y="-62.6" font-family="Times,serif" font-size="14.00">ConsoleWriterModule</text>
</g>
<!-- BoardModule -->
<g id="node3" class="node">
<title>BoardModule</title>
<polygon fill="#8dd3c7" stroke="black" points="1326.77,-149.8 1323.77,-153.8 1302.77,-153.8 1299.77,-149.8 1233.23,-149.8 1233.23,-113.8 1326.77,-113.8 1326.77,-149.8"/>
<text text-anchor="middle" x="1280" y="-127.6" font-family="Times,serif" font-size="14.00">BoardModule</text>
</g>
<!-- ConsoleWriterModule&#45;&gt;BoardModule -->
<g id="edge1" class="edge">
<title>ConsoleWriterModule&#45;&gt;BoardModule</title>
<path fill="none" stroke="black" d="M2278,-85.08C2278,-106.12 2278,-137.8 2278,-137.8 2278,-137.8 1336.8,-137.8 1336.8,-137.8"/>
<polygon fill="black" stroke="black" points="1336.8,-134.3 1326.8,-137.8 1336.8,-141.3 1336.8,-134.3"/>
</g>
<!-- LoggerModule -->
<g id="node2" class="node">
<title>LoggerModule</title>
<polygon fill="#8dd3c7" stroke="black" points="2188.98,-84.8 2185.98,-88.8 2164.98,-88.8 2161.98,-84.8 2089.02,-84.8 2089.02,-48.8 2188.98,-48.8 2188.98,-84.8"/>
<text text-anchor="middle" x="2139" y="-62.6" font-family="Times,serif" font-size="14.00">LoggerModule</text>
</g>
<!-- LoggerModule&#45;&gt;BoardModule -->
<g id="edge2" class="edge">
<title>LoggerModule&#45;&gt;BoardModule</title>
<path fill="none" stroke="black" d="M2139,-85.11C2139,-104.95 2139,-133.8 2139,-133.8 2139,-133.8 1336.79,-133.8 1336.79,-133.8"/>
<polygon fill="black" stroke="black" points="1336.79,-130.3 1326.79,-133.8 1336.79,-137.3 1336.79,-130.3"/>
</g>
<!-- BoardNodeService  -->
<g id="node4" class="node">
<title>BoardNodeService </title>
<polygon fill="#fb8072" stroke="black" points="1601.02,-214.8 1474.98,-214.8 1474.98,-178.8 1601.02,-178.8 1601.02,-214.8"/>
<text text-anchor="middle" x="1538" y="-192.6" font-family="Times,serif" font-size="14.00">BoardNodeService </text>
</g>
<!-- BoardModule&#45;&gt;BoardNodeService  -->
<g id="edge3" class="edge">
<title>BoardModule&#45;&gt;BoardNodeService </title>
<path fill="none" stroke="black" stroke-dasharray="5,2" d="M1326.78,-141.8C1392.57,-141.8 1504.46,-141.8 1504.46,-141.8 1504.46,-141.8 1504.46,-168.79 1504.46,-168.79"/>
<polygon fill="black" stroke="black" points="1500.96,-168.79 1504.46,-178.79 1507.96,-168.79 1500.96,-168.79"/>
</g>
<!-- CardService  -->
<g id="node5" class="node">
<title>CardService </title>
<polygon fill="#fb8072" stroke="black" points="1457.19,-214.8 1368.81,-214.8 1368.81,-178.8 1457.19,-178.8 1457.19,-214.8"/>
<text text-anchor="middle" x="1413" y="-192.6" font-family="Times,serif" font-size="14.00">CardService </text>
</g>
<!-- BoardModule&#45;&gt;CardService  -->
<g id="edge4" class="edge">
<title>BoardModule&#45;&gt;CardService </title>
<path fill="none" stroke="black" stroke-dasharray="5,2" d="M1326.84,-145.8C1350.96,-145.8 1375.36,-145.8 1375.36,-145.8 1375.36,-145.8 1375.36,-168.68 1375.36,-168.68"/>
<polygon fill="black" stroke="black" points="1371.86,-168.68 1375.36,-178.68 1378.86,-168.68 1371.86,-168.68"/>
</g>
<!-- ColumnBoardService  -->
<g id="node6" class="node">
<title>ColumnBoardService </title>
<polygon fill="#fb8072" stroke="black" points="1350.31,-214.8 1209.69,-214.8 1209.69,-178.8 1350.31,-178.8 1350.31,-214.8"/>
<text text-anchor="middle" x="1280" y="-192.6" font-family="Times,serif" font-size="14.00">ColumnBoardService </text>
</g>
<!-- BoardModule&#45;&gt;ColumnBoardService  -->
<g id="edge5" class="edge">
<title>BoardModule&#45;&gt;ColumnBoardService </title>
<path fill="none" stroke="black" stroke-dasharray="5,2" d="M1280,-149.91C1280,-149.91 1280,-168.79 1280,-168.79"/>
<polygon fill="black" stroke="black" points="1276.5,-168.79 1280,-178.79 1283.5,-168.79 1276.5,-168.79"/>
</g>
<!-- ColumnService  -->
<g id="node7" class="node">
<title>ColumnService </title>
<polygon fill="#fb8072" stroke="black" points="1191.1,-214.8 1084.9,-214.8 1084.9,-178.8 1191.1,-178.8 1191.1,-214.8"/>
<text text-anchor="middle" x="1138" y="-192.6" font-family="Times,serif" font-size="14.00">ColumnService </text>
</g>
<!-- BoardModule&#45;&gt;ColumnService  -->
<g id="edge6" class="edge">
<title>BoardModule&#45;&gt;ColumnService </title>
<path fill="none" stroke="black" stroke-dasharray="5,2" d="M1233.1,-145.8C1208.96,-145.8 1184.53,-145.8 1184.53,-145.8 1184.53,-145.8 1184.53,-168.68 1184.53,-168.68"/>
<polygon fill="black" stroke="black" points="1181.03,-168.68 1184.53,-178.68 1188.03,-168.68 1181.03,-168.68"/>
</g>
<!-- ContentElementService  -->
<g id="node8" class="node">
<title>ContentElementService </title>
<polygon fill="#fb8072" stroke="black" points="1066.46,-214.8 913.54,-214.8 913.54,-178.8 1066.46,-178.8 1066.46,-214.8"/>
<text text-anchor="middle" x="990" y="-192.6" font-family="Times,serif" font-size="14.00">ContentElementService </text>
</g>
<!-- BoardModule&#45;&gt;ContentElementService  -->
<g id="edge7" class="edge">
<title>BoardModule&#45;&gt;ContentElementService </title>
<path fill="none" stroke="black" stroke-dasharray="5,2" d="M1233.2,-141.8C1166.34,-141.8 1051.47,-141.8 1051.47,-141.8 1051.47,-141.8 1051.47,-168.79 1051.47,-168.79"/>
<polygon fill="black" stroke="black" points="1047.97,-168.79 1051.47,-178.79 1054.97,-168.79 1047.97,-168.79"/>
</g>
<!-- BoardDoRepo -->
<g id="node9" class="node">
<title>BoardDoRepo</title>
<ellipse fill="#fdb462" stroke="black" cx="1998" cy="-66.8" rx="66.65" ry="18"/>
<text text-anchor="middle" x="1998" y="-62.6" font-family="Times,serif" font-size="14.00">BoardDoRepo</text>
</g>
<!-- BoardDoRepo&#45;&gt;BoardModule -->
<g id="edge8" class="edge">
<title>BoardDoRepo&#45;&gt;BoardModule</title>
<path fill="none" stroke="black" d="M1998,-85.02C1998,-103.63 1998,-129.8 1998,-129.8 1998,-129.8 1336.83,-129.8 1336.83,-129.8"/>
<polygon fill="black" stroke="black" points="1336.83,-126.3 1326.83,-129.8 1336.83,-133.3 1336.83,-126.3"/>
</g>
<!-- BoardDoService -->
<g id="node10" class="node">
<title>BoardDoService</title>
<ellipse fill="#fdb462" stroke="black" cx="1838" cy="-66.8" rx="75.29" ry="18"/>
<text text-anchor="middle" x="1838" y="-62.6" font-family="Times,serif" font-size="14.00">BoardDoService</text>
</g>
<!-- BoardDoService&#45;&gt;BoardModule -->
<g id="edge9" class="edge">
<title>BoardDoService&#45;&gt;BoardModule</title>
<path fill="none" stroke="black" d="M1838,-84.82C1838,-102.17 1838,-125.8 1838,-125.8 1838,-125.8 1337.09,-125.8 1337.09,-125.8"/>
<polygon fill="black" stroke="black" points="1337.09,-122.3 1327.09,-125.8 1337.09,-129.3 1337.09,-122.3"/>
</g>
<!-- BoardManagementUc -->
<g id="node11" class="node">
<title>BoardManagementUc</title>
<ellipse fill="#fdb462" stroke="black" cx="1648" cy="-66.8" rx="96.12" ry="18"/>
<text text-anchor="middle" x="1648" y="-62.6" font-family="Times,serif" font-size="14.00">BoardManagementUc</text>
</g>
<!-- BoardManagementUc&#45;&gt;BoardModule -->
<g id="edge10" class="edge">
<title>BoardManagementUc&#45;&gt;BoardModule</title>
<path fill="none" stroke="black" d="M1576.35,-79.01C1576.35,-95.21 1576.35,-121.8 1576.35,-121.8 1576.35,-121.8 1336.96,-121.8 1336.96,-121.8"/>
<polygon fill="black" stroke="black" points="1336.96,-118.3 1326.96,-121.8 1336.96,-125.3 1336.96,-118.3"/>
</g>
<!-- BoardNodeRepo -->
<g id="node12" class="node">
<title>BoardNodeRepo</title>
<ellipse fill="#fdb462" stroke="black" cx="1458" cy="-66.8" rx="75.88" ry="18"/>
<text text-anchor="middle" x="1458" y="-62.6" font-family="Times,serif" font-size="14.00">BoardNodeRepo</text>
</g>
<!-- BoardNodeRepo&#45;&gt;BoardModule -->
<g id="edge11" class="edge">
<title>BoardNodeRepo&#45;&gt;BoardModule</title>
<path fill="none" stroke="black" d="M1419.7,-82.38C1419.7,-97.38 1419.7,-117.8 1419.7,-117.8 1419.7,-117.8 1336.91,-117.8 1336.91,-117.8"/>
<polygon fill="black" stroke="black" points="1336.91,-114.3 1326.91,-117.8 1336.91,-121.3 1336.91,-114.3"/>
</g>
<!-- BoardNodeService -->
<g id="node13" class="node">
<title>BoardNodeService</title>
<ellipse fill="#fdb462" stroke="black" cx="1280" cy="-66.8" rx="84.52" ry="18"/>
<text text-anchor="middle" x="1280" y="-62.6" font-family="Times,serif" font-size="14.00">BoardNodeService</text>
</g>
<!-- BoardNodeService&#45;&gt;BoardModule -->
<g id="edge12" class="edge">
<title>BoardNodeService&#45;&gt;BoardModule</title>
<path fill="none" stroke="black" d="M1280,-84.91C1280,-84.91 1280,-103.79 1280,-103.79"/>
<polygon fill="black" stroke="black" points="1276.5,-103.79 1280,-113.79 1283.5,-103.79 1276.5,-103.79"/>
</g>
<!-- CardService -->
<g id="node14" class="node">
<title>CardService</title>
<ellipse fill="#fdb462" stroke="black" cx="1119" cy="-66.8" rx="58.53" ry="18"/>
<text text-anchor="middle" x="1119" y="-62.6" font-family="Times,serif" font-size="14.00">CardService</text>
</g>
<!-- CardService&#45;&gt;BoardModule -->
<g id="edge13" class="edge">
<title>CardService&#45;&gt;BoardModule</title>
<path fill="none" stroke="black" d="M1131.23,-84.64C1131.23,-99.34 1131.23,-117.8 1131.23,-117.8 1131.23,-117.8 1222.93,-117.8 1222.93,-117.8"/>
<polygon fill="black" stroke="black" points="1222.93,-121.3 1232.93,-117.8 1222.93,-114.3 1222.93,-121.3"/>
</g>
<!-- ColumnBoardService -->
<g id="node15" class="node">
<title>ColumnBoardService</title>
<ellipse fill="#fdb462" stroke="black" cx="948" cy="-66.8" rx="94.93" ry="18"/>
<text text-anchor="middle" x="948" y="-62.6" font-family="Times,serif" font-size="14.00">ColumnBoardService</text>
</g>
<!-- ColumnBoardService&#45;&gt;BoardModule -->
<g id="edge14" class="edge">
<title>ColumnBoardService&#45;&gt;BoardModule</title>
<path fill="none" stroke="black" d="M978.24,-83.9C978.24,-100.05 978.24,-121.8 978.24,-121.8 978.24,-121.8 1223.18,-121.8 1223.18,-121.8"/>
<polygon fill="black" stroke="black" points="1223.18,-125.3 1233.18,-121.8 1223.18,-118.3 1223.18,-125.3"/>
</g>
<!-- ColumnService -->
<g id="node16" class="node">
<title>ColumnService</title>
<ellipse fill="#fdb462" stroke="black" cx="764" cy="-66.8" rx="71.23" ry="18"/>
<text text-anchor="middle" x="764" y="-62.6" font-family="Times,serif" font-size="14.00">ColumnService</text>
</g>
<!-- ColumnService&#45;&gt;BoardModule -->
<g id="edge15" class="edge">
<title>ColumnService&#45;&gt;BoardModule</title>
<path fill="none" stroke="black" d="M764,-84.82C764,-102.17 764,-125.8 764,-125.8 764,-125.8 1222.84,-125.8 1222.84,-125.8"/>
<polygon fill="black" stroke="black" points="1222.84,-129.3 1232.84,-125.8 1222.84,-122.3 1222.84,-129.3"/>
</g>
<!-- ContentElementFactory -->
<g id="node17" class="node">
<title>ContentElementFactory</title>
<ellipse fill="#fdb462" stroke="black" cx="572" cy="-66.8" rx="103.08" ry="18"/>
<text text-anchor="middle" x="572" y="-62.6" font-family="Times,serif" font-size="14.00">ContentElementFactory</text>
</g>
<!-- ContentElementFactory&#45;&gt;BoardModule -->
<g id="edge16" class="edge">
<title>ContentElementFactory&#45;&gt;BoardModule</title>
<path fill="none" stroke="black" d="M572,-85.02C572,-103.63 572,-129.8 572,-129.8 572,-129.8 1223,-129.8 1223,-129.8"/>
<polygon fill="black" stroke="black" points="1223,-133.3 1233,-129.8 1223,-126.3 1223,-133.3"/>
</g>
<!-- ContentElementService -->
<g id="node18" class="node">
<title>ContentElementService</title>
<ellipse fill="#fdb462" stroke="black" cx="348" cy="-66.8" rx="103" ry="18"/>
<text text-anchor="middle" x="348" y="-62.6" font-family="Times,serif" font-size="14.00">ContentElementService</text>
</g>
<!-- ContentElementService&#45;&gt;BoardModule -->
<g id="edge17" class="edge">
<title>ContentElementService&#45;&gt;BoardModule</title>
<path fill="none" stroke="black" d="M348,-85.11C348,-104.95 348,-133.8 348,-133.8 348,-133.8 1223.14,-133.8 1223.14,-133.8"/>
<polygon fill="black" stroke="black" points="1223.14,-137.3 1233.14,-133.8 1223.14,-130.3 1223.14,-137.3"/>
</g>
<!-- RecursiveDeleteVisitor -->
<g id="node19" class="node">
<title>RecursiveDeleteVisitor</title>
<ellipse fill="#fdb462" stroke="black" cx="126" cy="-66.8" rx="101.85" ry="18"/>
<text text-anchor="middle" x="126" y="-62.6" font-family="Times,serif" font-size="14.00">RecursiveDeleteVisitor</text>
</g>
<!-- RecursiveDeleteVisitor&#45;&gt;BoardModule -->
<g id="edge18" class="edge">
<title>RecursiveDeleteVisitor&#45;&gt;BoardModule</title>
<path fill="none" stroke="black" d="M126,-85.08C126,-106.12 126,-137.8 126,-137.8 126,-137.8 1222.97,-137.8 1222.97,-137.8"/>
<polygon fill="black" stroke="black" points="1222.97,-141.3 1232.97,-137.8 1222.97,-134.3 1222.97,-141.3"/>
</g>
</g>
</svg>
