<?xml version="1.0" encoding="UTF-8" standalone="no"?>
<!DOCTYPE svg PUBLIC "-//W3C//DTD SVG 1.1//EN"
 "http://www.w3.org/Graphics/SVG/1.1/DTD/svg11.dtd">
<!-- Generated by graphviz version 5.0.0 (20220707.1540)
 -->
<!-- Title: dependencies Pages: 1 -->
<svg width="2160pt" height="247pt"
 viewBox="0.00 0.00 2160.00 246.80" xmlns="http://www.w3.org/2000/svg" xmlns:xlink="http://www.w3.org/1999/xlink">
<g id="graph0" class="graph" transform="scale(1 1) rotate(0) translate(4 242.8)">
<title>dependencies</title>
<polygon fill="white" stroke="transparent" points="-4,4 -4,-242.8 2156,-242.8 2156,4 -4,4"/>
<text text-anchor="middle" x="1076" y="-8.2" font-family="sans-serif" font-size="14.00">dependencies</text>
<g id="clust1" class="cluster">
<title>cluster_BoardModule</title>
<polygon fill="none" stroke="black" stroke-dasharray="1,5" points="8,-32.8 8,-230.8 2144,-230.8 2144,-32.8 8,-32.8"/>
</g>
<g id="clust6" class="cluster">
<title>cluster_BoardModule_providers</title>
<polygon fill="none" stroke="black" points="300,-40.8 300,-92.8 2136,-92.8 2136,-40.8 300,-40.8"/>
</g>
<g id="clust4" class="cluster">
<title>cluster_BoardModule_exports</title>
<polygon fill="none" stroke="black" points="722,-170.8 722,-222.8 1425,-222.8 1425,-170.8 722,-170.8"/>
</g>
<g id="clust3" class="cluster">
<title>cluster_BoardModule_imports</title>
<polygon fill="none" stroke="black" points="16,-40.8 16,-92.8 292,-92.8 292,-40.8 16,-40.8"/>
</g>
<!-- ConsoleWriterModule -->
<g id="node1" class="node">
<title>ConsoleWriterModule</title>
<polygon fill="#8dd3c7" stroke="black" points="283.97,-84.8 280.97,-88.8 259.97,-88.8 256.97,-84.8 142.03,-84.8 142.03,-48.8 283.97,-48.8 283.97,-84.8"/>
<text text-anchor="middle" x="213" y="-62.6" font-family="Times,serif" font-size="14.00">ConsoleWriterModule</text>
</g>
<!-- BoardModule -->
<g id="node3" class="node">
<title>BoardModule</title>
<polygon fill="#8dd3c7" stroke="black" points="1142.77,-149.8 1139.77,-153.8 1118.77,-153.8 1115.77,-149.8 1049.23,-149.8 1049.23,-113.8 1142.77,-113.8 1142.77,-149.8"/>
<text text-anchor="middle" x="1096" y="-127.6" font-family="Times,serif" font-size="14.00">BoardModule</text>
</g>
<!-- ConsoleWriterModule&#45;&gt;BoardModule -->
<g id="edge1" class="edge">
<title>ConsoleWriterModule&#45;&gt;BoardModule</title>
<path fill="none" stroke="black" d="M213,-84.91C213,-104.14 213,-131.8 213,-131.8 213,-131.8 1039.15,-131.8 1039.15,-131.8"/>
<polygon fill="black" stroke="black" points="1039.15,-135.3 1049.15,-131.8 1039.15,-128.3 1039.15,-135.3"/>
</g>
<!-- LoggerModule -->
<g id="node2" class="node">
<title>LoggerModule</title>
<polygon fill="#8dd3c7" stroke="black" points="123.98,-84.8 120.98,-88.8 99.98,-88.8 96.98,-84.8 24.02,-84.8 24.02,-48.8 123.98,-48.8 123.98,-84.8"/>
<text text-anchor="middle" x="74" y="-62.6" font-family="Times,serif" font-size="14.00">LoggerModule</text>
</g>
<!-- LoggerModule&#45;&gt;BoardModule -->
<g id="edge2" class="edge">
<title>LoggerModule&#45;&gt;BoardModule</title>
<path fill="none" stroke="black" d="M74,-84.83C74,-105.57 74,-136.8 74,-136.8 74,-136.8 1039.09,-136.8 1039.09,-136.8"/>
<polygon fill="black" stroke="black" points="1039.09,-140.3 1049.09,-136.8 1039.09,-133.3 1039.09,-140.3"/>
</g>
<!-- BoardNodeService  -->
<g id="node4" class="node">
<title>BoardNodeService </title>
<polygon fill="#fb8072" stroke="black" points="1417.02,-214.8 1290.98,-214.8 1290.98,-178.8 1417.02,-178.8 1417.02,-214.8"/>
<text text-anchor="middle" x="1354" y="-192.6" font-family="Times,serif" font-size="14.00">BoardNodeService </text>
</g>
<!-- BoardModule&#45;&gt;BoardNodeService  -->
<g id="edge3" class="edge">
<title>BoardModule&#45;&gt;BoardNodeService </title>
<path fill="none" stroke="black" stroke-dasharray="5,2" d="M1143.02,-140.8C1217.44,-140.8 1354,-140.8 1354,-140.8 1354,-140.8 1354,-168.77 1354,-168.77"/>
<polygon fill="black" stroke="black" points="1350.5,-168.77 1354,-178.77 1357.5,-168.77 1350.5,-168.77"/>
</g>
<!-- CardService  -->
<g id="node5" class="node">
<title>CardService </title>
<polygon fill="#fb8072" stroke="black" points="1273.19,-214.8 1184.81,-214.8 1184.81,-178.8 1273.19,-178.8 1273.19,-214.8"/>
<text text-anchor="middle" x="1229" y="-192.6" font-family="Times,serif" font-size="14.00">CardService </text>
</g>
<!-- BoardModule&#45;&gt;CardService  -->
<g id="edge4" class="edge">
<title>BoardModule&#45;&gt;CardService </title>
<path fill="none" stroke="black" stroke-dasharray="5,2" d="M1142.8,-145.8C1175.27,-145.8 1212.71,-145.8 1212.71,-145.8 1212.71,-145.8 1212.71,-168.68 1212.71,-168.68"/>
<polygon fill="black" stroke="black" points="1209.21,-168.68 1212.71,-178.68 1216.21,-168.68 1209.21,-168.68"/>
</g>
<!-- ColumnBoardService  -->
<g id="node6" class="node">
<title>ColumnBoardService </title>
<polygon fill="#fb8072" stroke="black" points="1166.31,-214.8 1025.69,-214.8 1025.69,-178.8 1166.31,-178.8 1166.31,-214.8"/>
<text text-anchor="middle" x="1096" y="-192.6" font-family="Times,serif" font-size="14.00">ColumnBoardService </text>
</g>
<!-- BoardModule&#45;&gt;ColumnBoardService  -->
<g id="edge5" class="edge">
<title>BoardModule&#45;&gt;ColumnBoardService </title>
<path fill="none" stroke="black" stroke-dasharray="5,2" d="M1096,-149.91C1096,-149.91 1096,-168.79 1096,-168.79"/>
<polygon fill="black" stroke="black" points="1092.5,-168.79 1096,-178.79 1099.5,-168.79 1092.5,-168.79"/>
</g>
<!-- ColumnService  -->
<g id="node7" class="node">
<title>ColumnService </title>
<polygon fill="#fb8072" stroke="black" points="1007.1,-214.8 900.9,-214.8 900.9,-178.8 1007.1,-178.8 1007.1,-214.8"/>
<text text-anchor="middle" x="954" y="-192.6" font-family="Times,serif" font-size="14.00">ColumnService </text>
</g>
<!-- BoardModule&#45;&gt;ColumnService  -->
<g id="edge6" class="edge">
<title>BoardModule&#45;&gt;ColumnService </title>
<path fill="none" stroke="black" stroke-dasharray="5,2" d="M1049.06,-145.8C1010.36,-145.8 961.79,-145.8 961.79,-145.8 961.79,-145.8 961.79,-168.68 961.79,-168.68"/>
<polygon fill="black" stroke="black" points="958.29,-168.68 961.79,-178.68 965.29,-168.68 958.29,-168.68"/>
</g>
<!-- ContentElementService  -->
<g id="node8" class="node">
<title>ContentElementService </title>
<polygon fill="#fb8072" stroke="black" points="882.46,-214.8 729.54,-214.8 729.54,-178.8 882.46,-178.8 882.46,-214.8"/>
<text text-anchor="middle" x="806" y="-192.6" font-family="Times,serif" font-size="14.00">ContentElementService </text>
</g>
<!-- BoardModule&#45;&gt;ContentElementService  -->
<g id="edge7" class="edge">
<title>BoardModule&#45;&gt;ContentElementService </title>
<path fill="none" stroke="black" stroke-dasharray="5,2" d="M1049.02,-140.8C970.01,-140.8 819.06,-140.8 819.06,-140.8 819.06,-140.8 819.06,-168.77 819.06,-168.77"/>
<polygon fill="black" stroke="black" points="815.56,-168.77 819.06,-178.77 822.56,-168.77 815.56,-168.77"/>
</g>
<!-- BoardDoRepo -->
<g id="node9" class="node">
<title>BoardDoRepo</title>
<ellipse fill="#fdb462" stroke="black" cx="2061" cy="-66.8" rx="66.65" ry="18"/>
<text text-anchor="middle" x="2061" y="-62.6" font-family="Times,serif" font-size="14.00">BoardDoRepo</text>
</g>
<!-- BoardDoRepo&#45;&gt;BoardModule -->
<g id="edge8" class="edge">
<title>BoardDoRepo&#45;&gt;BoardModule</title>
<path fill="none" stroke="black" d="M2061,-84.83C2061,-105.57 2061,-136.8 2061,-136.8 2061,-136.8 1152.87,-136.8 1152.87,-136.8"/>
<polygon fill="black" stroke="black" points="1152.87,-133.3 1142.87,-136.8 1152.87,-140.3 1152.87,-133.3"/>
</g>
<!-- BoardDoService -->
<g id="node10" class="node">
<title>BoardDoService</title>
<ellipse fill="#fdb462" stroke="black" cx="1901" cy="-66.8" rx="75.29" ry="18"/>
<text text-anchor="middle" x="1901" y="-62.6" font-family="Times,serif" font-size="14.00">BoardDoService</text>
</g>
<!-- BoardDoService&#45;&gt;BoardModule -->
<g id="edge9" class="edge">
<title>BoardDoService&#45;&gt;BoardModule</title>
<path fill="none" stroke="black" d="M1901,-84.91C1901,-104.14 1901,-131.8 1901,-131.8 1901,-131.8 1153.05,-131.8 1153.05,-131.8"/>
<polygon fill="black" stroke="black" points="1153.06,-128.3 1143.05,-131.8 1153.05,-135.3 1153.06,-128.3"/>
</g>
<!-- BoardManagementUc -->
<g id="node11" class="node">
<title>BoardManagementUc</title>
<ellipse fill="#fdb462" stroke="black" cx="1711" cy="-66.8" rx="96.12" ry="18"/>
<text text-anchor="middle" x="1711" y="-62.6" font-family="Times,serif" font-size="14.00">BoardManagementUc</text>
</g>
<!-- BoardManagementUc&#45;&gt;BoardModule -->
<g id="edge10" class="edge">
<title>BoardManagementUc&#45;&gt;BoardModule</title>
<path fill="none" stroke="black" d="M1711,-85.1C1711,-103.07 1711,-127.8 1711,-127.8 1711,-127.8 1152.98,-127.8 1152.98,-127.8"/>
<polygon fill="black" stroke="black" points="1152.98,-124.3 1142.98,-127.8 1152.98,-131.3 1152.98,-124.3"/>
</g>
<!-- BoardNodeRepo -->
<g id="node12" class="node">
<title>BoardNodeRepo</title>
<ellipse fill="#fdb462" stroke="black" cx="1521" cy="-66.8" rx="75.88" ry="18"/>
<text text-anchor="middle" x="1521" y="-62.6" font-family="Times,serif" font-size="14.00">BoardNodeRepo</text>
</g>
<!-- BoardNodeRepo&#45;&gt;BoardModule -->
<g id="edge11" class="edge">
<title>BoardNodeRepo&#45;&gt;BoardModule</title>
<path fill="none" stroke="black" d="M1521,-84.83C1521,-101.2 1521,-122.8 1521,-122.8 1521,-122.8 1153.11,-122.8 1153.11,-122.8"/>
<polygon fill="black" stroke="black" points="1153.11,-119.3 1143.11,-122.8 1153.11,-126.3 1153.11,-119.3"/>
</g>
<!-- BoardNodeService -->
<g id="node13" class="node">
<title>BoardNodeService</title>
<ellipse fill="#fdb462" stroke="black" cx="1343" cy="-66.8" rx="84.52" ry="18"/>
<text text-anchor="middle" x="1343" y="-62.6" font-family="Times,serif" font-size="14.00">BoardNodeService</text>
</g>
<!-- BoardNodeService&#45;&gt;BoardModule -->
<g id="edge12" class="edge">
<title>BoardNodeService&#45;&gt;BoardModule</title>
<path fill="none" stroke="black" d="M1265.92,-74.47C1265.92,-88.94 1265.92,-118.8 1265.92,-118.8 1265.92,-118.8 1152.88,-118.8 1152.88,-118.8"/>
<polygon fill="black" stroke="black" points="1152.88,-115.3 1142.88,-118.8 1152.88,-122.3 1152.88,-115.3"/>
</g>
<!-- CardService -->
<g id="node14" class="node">
<title>CardService</title>
<ellipse fill="#fdb462" stroke="black" cx="1182" cy="-66.8" rx="58.53" ry="18"/>
<text text-anchor="middle" x="1182" y="-62.6" font-family="Times,serif" font-size="14.00">CardService</text>
</g>
<!-- CardService&#45;&gt;BoardModule -->
<g id="edge13" class="edge">
<title>CardService&#45;&gt;BoardModule</title>
<path fill="none" stroke="black" d="M1133.06,-76.96C1133.06,-76.96 1133.06,-103.61 1133.06,-103.61"/>
<polygon fill="black" stroke="black" points="1129.56,-103.61 1133.06,-113.61 1136.56,-103.61 1129.56,-103.61"/>
</g>
<!-- ColumnBoardService -->
<g id="node15" class="node">
<title>ColumnBoardService</title>
<ellipse fill="#fdb462" stroke="black" cx="1011" cy="-66.8" rx="94.93" ry="18"/>
<text text-anchor="middle" x="1011" y="-62.6" font-family="Times,serif" font-size="14.00">ColumnBoardService</text>
</g>
<!-- ColumnBoardService&#45;&gt;BoardModule -->
<g id="edge14" class="edge">
<title>ColumnBoardService&#45;&gt;BoardModule</title>
<path fill="none" stroke="black" d="M1077.42,-79.64C1077.42,-79.64 1077.42,-103.32 1077.42,-103.32"/>
<polygon fill="black" stroke="black" points="1073.92,-103.32 1077.42,-113.32 1080.92,-103.32 1073.92,-103.32"/>
</g>
<!-- ColumnService -->
<g id="node16" class="node">
<title>ColumnService</title>
<ellipse fill="#fdb462" stroke="black" cx="827" cy="-66.8" rx="71.23" ry="18"/>
<text text-anchor="middle" x="827" y="-62.6" font-family="Times,serif" font-size="14.00">ColumnService</text>
</g>
<!-- ColumnService&#45;&gt;BoardModule -->
<g id="edge15" class="edge">
<title>ColumnService&#45;&gt;BoardModule</title>
<path fill="none" stroke="black" d="M890.17,-75.39C890.17,-90.16 890.17,-118.8 890.17,-118.8 890.17,-118.8 1039.04,-118.8 1039.04,-118.8"/>
<polygon fill="black" stroke="black" points="1039.04,-122.3 1049.04,-118.8 1039.04,-115.3 1039.04,-122.3"/>
</g>
<!-- ContentElementFactory -->
<g id="node17" class="node">
<title>ContentElementFactory</title>
<ellipse fill="#fdb462" stroke="black" cx="635" cy="-66.8" rx="103.08" ry="18"/>
<text text-anchor="middle" x="635" y="-62.6" font-family="Times,serif" font-size="14.00">ContentElementFactory</text>
</g>
<!-- ContentElementFactory&#45;&gt;BoardModule -->
<g id="edge16" class="edge">
<title>ContentElementFactory&#45;&gt;BoardModule</title>
<path fill="none" stroke="black" d="M734.03,-71.97C734.03,-85.83 734.03,-122.8 734.03,-122.8 734.03,-122.8 1039.05,-122.8 1039.05,-122.8"/>
<polygon fill="black" stroke="black" points="1039.05,-126.3 1049.05,-122.8 1039.05,-119.3 1039.05,-126.3"/>
</g>
<!-- ContentElementService -->
<g id="node18" class="node">
<title>ContentElementService</title>
<ellipse fill="#fdb462" stroke="black" cx="411" cy="-66.8" rx="103" ry="18"/>
<text text-anchor="middle" x="411" y="-62.6" font-family="Times,serif" font-size="14.00">ContentElementService</text>
</g>
<!-- ContentElementService&#45;&gt;BoardModule -->
<g id="edge17" class="edge">
<title>ContentElementService&#45;&gt;BoardModule</title>
<path fill="none" stroke="black" d="M411,-85.1C411,-103.07 411,-127.8 411,-127.8 411,-127.8 1039.19,-127.8 1039.19,-127.8"/>
<polygon fill="black" stroke="black" points="1039.19,-131.3 1049.19,-127.8 1039.19,-124.3 1039.19,-131.3"/>
</g>
</g>
</svg>
