<?xml version="1.0" encoding="UTF-8" standalone="no"?>
<!DOCTYPE svg PUBLIC "-//W3C//DTD SVG 1.1//EN"
 "http://www.w3.org/Graphics/SVG/1.1/DTD/svg11.dtd">
<!-- Generated by graphviz version 2.47.0 (20210316.0004)
 -->
<!-- Title: dependencies Pages: 1 -->
<svg width="1069pt" height="211pt"
 viewBox="0.00 0.00 1069.00 211.00" xmlns="http://www.w3.org/2000/svg" xmlns:xlink="http://www.w3.org/1999/xlink">
<g id="graph0" class="graph" transform="scale(1 1) rotate(0) translate(4 207)">
<title>dependencies</title>
<polygon fill="white" stroke="transparent" points="-4,4 -4,-207 1065,-207 1065,4 -4,4"/>
<text text-anchor="start" x="509.51" y="-42.4" font-family="Times-12" font-weight="bold" font-size="14.00">Legend</text>
<polygon fill="#ffffb3" stroke="transparent" points="296.5,-10 296.5,-30 316.5,-30 316.5,-10 296.5,-10"/>
<text text-anchor="start" x="320.13" y="-15.4" font-family="Times-12" font-size="14.00"> &#160;Declarations</text>
<polygon fill="#8dd3c7" stroke="transparent" points="409.5,-10 409.5,-30 429.5,-30 429.5,-10 409.5,-10"/>
<text text-anchor="start" x="433.23" y="-15.4" font-family="Times-12" font-size="14.00"> &#160;Module</text>
<polygon fill="#80b1d3" stroke="transparent" points="495.5,-10 495.5,-30 515.5,-30 515.5,-10 495.5,-10"/>
<text text-anchor="start" x="519.28" y="-15.4" font-family="Times-12" font-size="14.00"> &#160;Bootstrap</text>
<polygon fill="#fdb462" stroke="transparent" points="592.5,-10 592.5,-30 612.5,-30 612.5,-10 592.5,-10"/>
<text text-anchor="start" x="616.17" y="-15.4" font-family="Times-12" font-size="14.00"> &#160;Providers</text>
<polygon fill="#fb8072" stroke="transparent" points="688.5,-10 688.5,-30 708.5,-30 708.5,-10 688.5,-10"/>
<text text-anchor="start" x="712.23" y="-15.4" font-family="Times-12" font-size="14.00"> &#160;Exports</text>
<g id="clust1" class="cluster">
<title>cluster_BoardCollaborationModule</title>
<polygon fill="none" stroke="black" stroke-dasharray="1,5" points="8,-70 8,-195 1053,-195 1053,-70 8,-70"/>
</g>
<g id="clust3" class="cluster">
<title>cluster_BoardCollaborationModule_imports</title>
<polygon fill="none" stroke="black" points="16,-78 16,-130 1045,-130 1045,-78 16,-78"/>
</g>
<!-- AuthenticationModule -->
<g id="node1" class="node">
<title>AuthenticationModule</title>
<polygon fill="#8dd3c7" stroke="black" points="1037.25,-122 1034.25,-126 1013.25,-126 1010.25,-122 894.75,-122 894.75,-86 1037.25,-86 1037.25,-122"/>
<text text-anchor="middle" x="966" y="-99.8" font-family="Times,serif" font-size="14.00">AuthenticationModule</text>
</g>
<!-- BoardCollaborationModule -->
<g id="node8" class="node">
<title>BoardCollaborationModule</title>
<polygon fill="#8dd3c7" stroke="black" points="627.25,-187 624.25,-191 603.25,-191 600.25,-187 456.75,-187 456.75,-151 627.25,-151 627.25,-187"/>
<text text-anchor="middle" x="542" y="-164.8" font-family="Times,serif" font-size="14.00">BoardCollaborationModule</text>
</g>
<!-- AuthenticationModule&#45;&gt;BoardCollaborationModule -->
<g id="edge1" class="edge">
<title>AuthenticationModule&#45;&gt;BoardCollaborationModule</title>
<path fill="none" stroke="black" d="M966,-122.28C966,-143.32 966,-175 966,-175 966,-175 637.29,-175 637.29,-175"/>
<polygon fill="black" stroke="black" points="637.29,-171.5 627.29,-175 637.29,-178.5 637.29,-171.5"/>
</g>
<!-- AuthorizationModule -->
<g id="node2" class="node">
<title>AuthorizationModule</title>
<polygon fill="#8dd3c7" stroke="black" points="876.81,-122 873.81,-126 852.81,-126 849.81,-122 739.19,-122 739.19,-86 876.81,-86 876.81,-122"/>
<text text-anchor="middle" x="808" y="-99.8" font-family="Times,serif" font-size="14.00">AuthorizationModule</text>
</g>
<!-- AuthorizationModule&#45;&gt;BoardCollaborationModule -->
<g id="edge2" class="edge">
<title>AuthorizationModule&#45;&gt;BoardCollaborationModule</title>
<path fill="none" stroke="black" d="M808,-122.02C808,-139.37 808,-163 808,-163 808,-163 637.26,-163 637.26,-163"/>
<polygon fill="black" stroke="black" points="637.26,-159.5 627.26,-163 637.26,-166.5 637.26,-159.5"/>
</g>
<!-- BoardModule -->
<g id="node3" class="node">
<title>BoardModule</title>
<polygon fill="#8dd3c7" stroke="black" points="720.76,-122 717.76,-126 696.76,-126 693.76,-122 627.24,-122 627.24,-86 720.76,-86 720.76,-122"/>
<text text-anchor="middle" x="674" y="-99.8" font-family="Times,serif" font-size="14.00">BoardModule</text>
</g>
<!-- BoardModule&#45;&gt;BoardCollaborationModule -->
<g id="edge3" class="edge">
<title>BoardModule&#45;&gt;BoardCollaborationModule</title>
<path fill="none" stroke="black" d="M627.18,-104C621.64,-104 617.91,-104 617.91,-104 617.91,-104 617.91,-140.89 617.91,-140.89"/>
<polygon fill="black" stroke="black" points="614.41,-140.89 617.91,-150.89 621.41,-140.89 614.41,-140.89"/>
</g>
<!-- BoardWsApiModule -->
<g id="node4" class="node">
<title>BoardWsApiModule</title>
<polygon fill="#8dd3c7" stroke="black" points="608.92,-122 605.92,-126 584.92,-126 581.92,-122 475.08,-122 475.08,-86 608.92,-86 608.92,-122"/>
<text text-anchor="middle" x="542" y="-99.8" font-family="Times,serif" font-size="14.00">BoardWsApiModule</text>
</g>
<!-- BoardWsApiModule&#45;&gt;BoardCollaborationModule -->
<g id="edge4" class="edge">
<title>BoardWsApiModule&#45;&gt;BoardCollaborationModule</title>
<path fill="none" stroke="black" d="M542,-122.11C542,-122.11 542,-140.99 542,-140.99"/>
<polygon fill="black" stroke="black" points="538.5,-140.99 542,-150.99 545.5,-140.99 538.5,-140.99"/>
</g>
<!-- ConsoleWriterModule -->
<g id="node5" class="node">
<title>ConsoleWriterModule</title>
<polygon fill="#8dd3c7" stroke="black" points="456.97,-122 453.97,-126 432.97,-126 429.97,-122 315.03,-122 315.03,-86 456.97,-86 456.97,-122"/>
<text text-anchor="middle" x="386" y="-99.8" font-family="Times,serif" font-size="14.00">ConsoleWriterModule</text>
</g>
<!-- ConsoleWriterModule&#45;&gt;BoardCollaborationModule -->
<g id="edge5" class="edge">
<title>ConsoleWriterModule&#45;&gt;BoardCollaborationModule</title>
<path fill="none" stroke="black" d="M457.26,-104C462.7,-104 466.14,-104 466.14,-104 466.14,-104 466.14,-140.89 466.14,-140.89"/>
<polygon fill="black" stroke="black" points="462.64,-140.89 466.14,-150.89 469.64,-140.89 462.64,-140.89"/>
</g>
<!-- CoreModule -->
<g id="node6" class="node">
<title>CoreModule</title>
<polygon fill="#8dd3c7" stroke="black" points="297.26,-122 294.26,-126 273.26,-126 270.26,-122 210.74,-122 210.74,-86 297.26,-86 297.26,-122"/>
<text text-anchor="middle" x="254" y="-99.8" font-family="Times,serif" font-size="14.00">CoreModule</text>
</g>
<!-- CoreModule&#45;&gt;BoardCollaborationModule -->
<g id="edge6" class="edge">
<title>CoreModule&#45;&gt;BoardCollaborationModule</title>
<path fill="none" stroke="black" d="M254,-122.02C254,-139.37 254,-163 254,-163 254,-163 446.37,-163 446.37,-163"/>
<polygon fill="black" stroke="black" points="446.37,-166.5 456.37,-163 446.37,-159.5 446.37,-166.5"/>
</g>
<!-- RabbitMQWrapperModule -->
<g id="node7" class="node">
<title>RabbitMQWrapperModule</title>
<polygon fill="#8dd3c7" stroke="black" points="192.4,-122 189.4,-126 168.4,-126 165.4,-122 23.6,-122 23.6,-86 192.4,-86 192.4,-122"/>
<text text-anchor="middle" x="108" y="-99.8" font-family="Times,serif" font-size="14.00">RabbitMQWrapperModule</text>
</g>
<!-- RabbitMQWrapperModule&#45;&gt;BoardCollaborationModule -->
<g id="edge7" class="edge">
<title>RabbitMQWrapperModule&#45;&gt;BoardCollaborationModule</title>
<path fill="none" stroke="black" d="M108,-122.28C108,-143.32 108,-175 108,-175 108,-175 446.51,-175 446.51,-175"/>
<polygon fill="black" stroke="black" points="446.51,-178.5 456.51,-175 446.51,-171.5 446.51,-178.5"/>
</g>
</g>
</svg>
