<?xml version="1.0" encoding="UTF-8" standalone="no"?>
<!DOCTYPE svg PUBLIC "-//W3C//DTD SVG 1.1//EN"
 "http://www.w3.org/Graphics/SVG/1.1/DTD/svg11.dtd">
<!-- Generated by graphviz version 2.47.0 (20210316.0004)
 -->
<!-- Title: dependencies Pages: 1 -->
<svg width="909pt" height="211pt"
 viewBox="0.00 0.00 909.00 211.00" xmlns="http://www.w3.org/2000/svg" xmlns:xlink="http://www.w3.org/1999/xlink">
<g id="graph0" class="graph" transform="scale(1 1) rotate(0) translate(4 207)">
<title>dependencies</title>
<polygon fill="white" stroke="transparent" points="-4,4 -4,-207 905,-207 905,4 -4,4"/>
<text text-anchor="start" x="429.51" y="-42.4" font-family="Times-12" font-weight="bold" font-size="14.00">Legend</text>
<polygon fill="#ffffb3" stroke="transparent" points="216.5,-10 216.5,-30 236.5,-30 236.5,-10 216.5,-10"/>
<text text-anchor="start" x="240.13" y="-15.4" font-family="Times-12" font-size="14.00"> &#160;Declarations</text>
<polygon fill="#8dd3c7" stroke="transparent" points="329.5,-10 329.5,-30 349.5,-30 349.5,-10 329.5,-10"/>
<text text-anchor="start" x="353.23" y="-15.4" font-family="Times-12" font-size="14.00"> &#160;Module</text>
<polygon fill="#80b1d3" stroke="transparent" points="415.5,-10 415.5,-30 435.5,-30 435.5,-10 415.5,-10"/>
<text text-anchor="start" x="439.28" y="-15.4" font-family="Times-12" font-size="14.00"> &#160;Bootstrap</text>
<polygon fill="#fdb462" stroke="transparent" points="512.5,-10 512.5,-30 532.5,-30 532.5,-10 512.5,-10"/>
<text text-anchor="start" x="536.17" y="-15.4" font-family="Times-12" font-size="14.00"> &#160;Providers</text>
<polygon fill="#fb8072" stroke="transparent" points="608.5,-10 608.5,-30 628.5,-30 628.5,-10 608.5,-10"/>
<text text-anchor="start" x="632.23" y="-15.4" font-family="Times-12" font-size="14.00"> &#160;Exports</text>
<g id="clust1" class="cluster">
<title>cluster_BoardCollaborationModule</title>
<polygon fill="none" stroke="black" stroke-dasharray="1,5" points="8,-70 8,-195 893,-195 893,-70 8,-70"/>
</g>
<g id="clust3" class="cluster">
<title>cluster_BoardCollaborationModule_imports</title>
<polygon fill="none" stroke="black" points="16,-78 16,-130 885,-130 885,-78 16,-78"/>
</g>
<!-- AuthenticationModule -->
<g id="node1" class="node">
<title>AuthenticationModule</title>
<polygon fill="#8dd3c7" stroke="black" points="877.25,-122 874.25,-126 853.25,-126 850.25,-122 734.75,-122 734.75,-86 877.25,-86 877.25,-122"/>
<text text-anchor="middle" x="806" y="-99.8" font-family="Times,serif" font-size="14.00">AuthenticationModule</text>
</g>
<!-- BoardCollaborationModule -->
<g id="node7" class="node">
<title>BoardCollaborationModule</title>
<polygon fill="#8dd3c7" stroke="black" points="533.25,-187 530.25,-191 509.25,-191 506.25,-187 362.75,-187 362.75,-151 533.25,-151 533.25,-187"/>
<text text-anchor="middle" x="448" y="-164.8" font-family="Times,serif" font-size="14.00">BoardCollaborationModule</text>
</g>
<!-- AuthenticationModule&#45;&gt;BoardCollaborationModule -->
<g id="edge1" class="edge">
<title>AuthenticationModule&#45;&gt;BoardCollaborationModule</title>
<path fill="none" stroke="black" d="M806,-122.28C806,-143.32 806,-175 806,-175 806,-175 543.3,-175 543.3,-175"/>
<polygon fill="black" stroke="black" points="543.3,-171.5 533.3,-175 543.3,-178.5 543.3,-171.5"/>
</g>
<!-- AuthorizationModule -->
<g id="node2" class="node">
<title>AuthorizationModule</title>
<polygon fill="#8dd3c7" stroke="black" points="716.81,-122 713.81,-126 692.81,-126 689.81,-122 579.19,-122 579.19,-86 716.81,-86 716.81,-122"/>
<text text-anchor="middle" x="648" y="-99.8" font-family="Times,serif" font-size="14.00">AuthorizationModule</text>
</g>
<!-- AuthorizationModule&#45;&gt;BoardCollaborationModule -->
<g id="edge2" class="edge">
<title>AuthorizationModule&#45;&gt;BoardCollaborationModule</title>
<path fill="none" stroke="black" d="M648,-122.02C648,-139.37 648,-163 648,-163 648,-163 543.4,-163 543.4,-163"/>
<polygon fill="black" stroke="black" points="543.4,-159.5 533.4,-163 543.4,-166.5 543.4,-159.5"/>
</g>
<!-- BoardModule -->
<g id="node3" class="node">
<title>BoardModule</title>
<polygon fill="#8dd3c7" stroke="black" points="560.76,-122 557.76,-126 536.76,-126 533.76,-122 467.24,-122 467.24,-86 560.76,-86 560.76,-122"/>
<text text-anchor="middle" x="514" y="-99.8" font-family="Times,serif" font-size="14.00">BoardModule</text>
</g>
<!-- BoardModule&#45;&gt;BoardCollaborationModule -->
<g id="edge3" class="edge">
<title>BoardModule&#45;&gt;BoardCollaborationModule</title>
<path fill="none" stroke="black" d="M500.25,-122.11C500.25,-122.11 500.25,-140.99 500.25,-140.99"/>
<polygon fill="black" stroke="black" points="496.75,-140.99 500.25,-150.99 503.75,-140.99 496.75,-140.99"/>
</g>
<!-- BoardWsApiModule -->
<g id="node4" class="node">
<title>BoardWsApiModule</title>
<polygon fill="#8dd3c7" stroke="black" points="448.92,-122 445.92,-126 424.92,-126 421.92,-122 315.08,-122 315.08,-86 448.92,-86 448.92,-122"/>
<text text-anchor="middle" x="382" y="-99.8" font-family="Times,serif" font-size="14.00">BoardWsApiModule</text>
</g>
<!-- BoardWsApiModule&#45;&gt;BoardCollaborationModule -->
<g id="edge4" class="edge">
<title>BoardWsApiModule&#45;&gt;BoardCollaborationModule</title>
<path fill="none" stroke="black" d="M405.67,-122.11C405.67,-122.11 405.67,-140.99 405.67,-140.99"/>
<polygon fill="black" stroke="black" points="402.17,-140.99 405.67,-150.99 409.17,-140.99 402.17,-140.99"/>
</g>
<!-- CoreModule -->
<g id="node5" class="node">
<title>CoreModule</title>
<polygon fill="#8dd3c7" stroke="black" points="297.26,-122 294.26,-126 273.26,-126 270.26,-122 210.74,-122 210.74,-86 297.26,-86 297.26,-122"/>
<text text-anchor="middle" x="254" y="-99.8" font-family="Times,serif" font-size="14.00">CoreModule</text>
</g>
<!-- CoreModule&#45;&gt;BoardCollaborationModule -->
<g id="edge5" class="edge">
<title>CoreModule&#45;&gt;BoardCollaborationModule</title>
<path fill="none" stroke="black" d="M254,-122.02C254,-139.37 254,-163 254,-163 254,-163 352.63,-163 352.63,-163"/>
<polygon fill="black" stroke="black" points="352.63,-166.5 362.63,-163 352.63,-159.5 352.63,-166.5"/>
</g>
<!-- RabbitMQWrapperModule -->
<g id="node6" class="node">
<title>RabbitMQWrapperModule</title>
<polygon fill="#8dd3c7" stroke="black" points="192.4,-122 189.4,-126 168.4,-126 165.4,-122 23.6,-122 23.6,-86 192.4,-86 192.4,-122"/>
<text text-anchor="middle" x="108" y="-99.8" font-family="Times,serif" font-size="14.00">RabbitMQWrapperModule</text>
</g>
<!-- RabbitMQWrapperModule&#45;&gt;BoardCollaborationModule -->
<g id="edge6" class="edge">
<title>RabbitMQWrapperModule&#45;&gt;BoardCollaborationModule</title>
<path fill="none" stroke="black" d="M108,-122.28C108,-143.32 108,-175 108,-175 108,-175 352.64,-175 352.64,-175"/>
<polygon fill="black" stroke="black" points="352.64,-178.5 362.64,-175 352.64,-171.5 352.64,-178.5"/>
</g>
</g>
</svg>
