<?xml version="1.0" encoding="UTF-8" standalone="no"?>
<!DOCTYPE svg PUBLIC "-//W3C//DTD SVG 1.1//EN"
 "http://www.w3.org/Graphics/SVG/1.1/DTD/svg11.dtd">
<!-- Generated by graphviz version 2.47.0 (20210316.0004)
 -->
<!-- Title: dependencies Pages: 1 -->
<svg width="1034pt" height="211pt"
 viewBox="0.00 0.00 1034.00 211.00" xmlns="http://www.w3.org/2000/svg" xmlns:xlink="http://www.w3.org/1999/xlink">
<g id="graph0" class="graph" transform="scale(1 1) rotate(0) translate(4 207)">
<title>dependencies</title>
<polygon fill="white" stroke="transparent" points="-4,4 -4,-207 1030,-207 1030,4 -4,4"/>
<text text-anchor="start" x="492.01" y="-42.4" font-family="Times-12" font-weight="bold" font-size="14.00">Legend</text>
<polygon fill="#ffffb3" stroke="transparent" points="279,-10 279,-30 299,-30 299,-10 279,-10"/>
<text text-anchor="start" x="302.63" y="-15.4" font-family="Times-12" font-size="14.00"> &#160;Declarations</text>
<polygon fill="#8dd3c7" stroke="transparent" points="392,-10 392,-30 412,-30 412,-10 392,-10"/>
<text text-anchor="start" x="415.73" y="-15.4" font-family="Times-12" font-size="14.00"> &#160;Module</text>
<polygon fill="#80b1d3" stroke="transparent" points="478,-10 478,-30 498,-30 498,-10 478,-10"/>
<text text-anchor="start" x="501.78" y="-15.4" font-family="Times-12" font-size="14.00"> &#160;Bootstrap</text>
<polygon fill="#fdb462" stroke="transparent" points="575,-10 575,-30 595,-30 595,-10 575,-10"/>
<text text-anchor="start" x="598.67" y="-15.4" font-family="Times-12" font-size="14.00"> &#160;Providers</text>
<polygon fill="#fb8072" stroke="transparent" points="671,-10 671,-30 691,-30 691,-10 671,-10"/>
<text text-anchor="start" x="694.73" y="-15.4" font-family="Times-12" font-size="14.00"> &#160;Exports</text>
<g id="clust1" class="cluster">
<title>cluster_AdminApiServerModule</title>
<polygon fill="none" stroke="black" stroke-dasharray="1,5" points="8,-70 8,-195 1018,-195 1018,-70 8,-70"/>
</g>
<g id="clust3" class="cluster">
<title>cluster_AdminApiServerModule_imports</title>
<polygon fill="none" stroke="black" points="16,-78 16,-130 1010,-130 1010,-78 16,-78"/>
</g>
<!-- DeletionApiModule -->
<g id="node1" class="node">
<title>DeletionApiModule</title>
<polygon fill="#8dd3c7" stroke="black" points="1002.25,-122 999.25,-126 978.25,-126 975.25,-122 873.75,-122 873.75,-86 1002.25,-86 1002.25,-122"/>
<text text-anchor="middle" x="938" y="-99.8" font-family="Times,serif" font-size="14.00">DeletionApiModule</text>
</g>
<!-- AdminApiServerModule -->
<g id="node7" class="node">
<title>AdminApiServerModule</title>
<polygon fill="#8dd3c7" stroke="black" points="589.97,-187 586.97,-191 565.97,-191 562.97,-187 434.03,-187 434.03,-151 589.97,-151 589.97,-187"/>
<text text-anchor="middle" x="512" y="-164.8" font-family="Times,serif" font-size="14.00">AdminApiServerModule</text>
</g>
<!-- DeletionApiModule&#45;&gt;AdminApiServerModule -->
<g id="edge1" class="edge">
<title>DeletionApiModule&#45;&gt;AdminApiServerModule</title>
<path fill="none" stroke="black" d="M938,-122.28C938,-143.32 938,-175 938,-175 938,-175 600.13,-175 600.13,-175"/>
<polygon fill="black" stroke="black" points="600.14,-171.5 590.13,-175 600.13,-178.5 600.14,-171.5"/>
</g>
<!-- LegacySchoolAdminApiModule -->
<g id="node2" class="node">
<title>LegacySchoolAdminApiModule</title>
<polygon fill="#8dd3c7" stroke="black" points="855.52,-122 852.52,-126 831.52,-126 828.52,-122 656.48,-122 656.48,-86 855.52,-86 855.52,-122"/>
<text text-anchor="middle" x="756" y="-99.8" font-family="Times,serif" font-size="14.00">LegacySchoolAdminApiModule</text>
</g>
<!-- LegacySchoolAdminApiModule&#45;&gt;AdminApiServerModule -->
<g id="edge2" class="edge">
<title>LegacySchoolAdminApiModule&#45;&gt;AdminApiServerModule</title>
<path fill="none" stroke="black" d="M756,-122.02C756,-139.37 756,-163 756,-163 756,-163 600.21,-163 600.21,-163"/>
<polygon fill="black" stroke="black" points="600.21,-159.5 590.21,-163 600.21,-166.5 600.21,-159.5"/>
</g>
<!-- LoggerModule -->
<g id="node3" class="node">
<title>LoggerModule</title>
<polygon fill="#8dd3c7" stroke="black" points="637.98,-122 634.98,-126 613.98,-126 610.98,-122 538.02,-122 538.02,-86 637.98,-86 637.98,-122"/>
<text text-anchor="middle" x="588" y="-99.8" font-family="Times,serif" font-size="14.00">LoggerModule</text>
</g>
<!-- LoggerModule&#45;&gt;AdminApiServerModule -->
<g id="edge3" class="edge">
<title>LoggerModule&#45;&gt;AdminApiServerModule</title>
<path fill="none" stroke="black" d="M564,-122.11C564,-122.11 564,-140.99 564,-140.99"/>
<polygon fill="black" stroke="black" points="560.5,-140.99 564,-150.99 567.5,-140.99 560.5,-140.99"/>
</g>
<!-- RabbitMQWrapperModule -->
<g id="node4" class="node">
<title>RabbitMQWrapperModule</title>
<polygon fill="#8dd3c7" stroke="black" points="520.4,-122 517.4,-126 496.4,-126 493.4,-122 351.6,-122 351.6,-86 520.4,-86 520.4,-122"/>
<text text-anchor="middle" x="436" y="-99.8" font-family="Times,serif" font-size="14.00">RabbitMQWrapperModule</text>
</g>
<!-- RabbitMQWrapperModule&#45;&gt;AdminApiServerModule -->
<g id="edge4" class="edge">
<title>RabbitMQWrapperModule&#45;&gt;AdminApiServerModule</title>
<path fill="none" stroke="black" d="M477.11,-122.11C477.11,-122.11 477.11,-140.99 477.11,-140.99"/>
<polygon fill="black" stroke="black" points="473.61,-140.99 477.11,-150.99 480.61,-140.99 473.61,-140.99"/>
</g>
<!-- ToolAdminApiModule -->
<g id="node5" class="node">
<title>ToolAdminApiModule</title>
<polygon fill="#8dd3c7" stroke="black" points="333.88,-122 330.88,-126 309.88,-126 306.88,-122 188.12,-122 188.12,-86 333.88,-86 333.88,-122"/>
<text text-anchor="middle" x="261" y="-99.8" font-family="Times,serif" font-size="14.00">ToolAdminApiModule</text>
</g>
<!-- ToolAdminApiModule&#45;&gt;AdminApiServerModule -->
<g id="edge5" class="edge">
<title>ToolAdminApiModule&#45;&gt;AdminApiServerModule</title>
<path fill="none" stroke="black" d="M261,-122.02C261,-139.37 261,-163 261,-163 261,-163 423.96,-163 423.96,-163"/>
<polygon fill="black" stroke="black" points="423.96,-166.5 433.96,-163 423.96,-159.5 423.96,-166.5"/>
</g>
<!-- UserAdminApiModule -->
<g id="node6" class="node">
<title>UserAdminApiModule</title>
<polygon fill="#8dd3c7" stroke="black" points="169.86,-122 166.86,-126 145.86,-126 142.86,-122 24.14,-122 24.14,-86 169.86,-86 169.86,-122"/>
<text text-anchor="middle" x="97" y="-99.8" font-family="Times,serif" font-size="14.00">UserAdminApiModule</text>
</g>
<!-- UserAdminApiModule&#45;&gt;AdminApiServerModule -->
<g id="edge6" class="edge">
<title>UserAdminApiModule&#45;&gt;AdminApiServerModule</title>
<path fill="none" stroke="black" d="M97,-122.28C97,-143.32 97,-175 97,-175 97,-175 423.94,-175 423.94,-175"/>
<polygon fill="black" stroke="black" points="423.94,-178.5 433.94,-175 423.94,-171.5 423.94,-178.5"/>
</g>
</g>
</svg>
