<?xml version="1.0" encoding="UTF-8" standalone="no"?>
<!DOCTYPE svg PUBLIC "-//W3C//DTD SVG 1.1//EN"
 "http://www.w3.org/Graphics/SVG/1.1/DTD/svg11.dtd">
<!-- Generated by graphviz version 2.47.0 (20210316.0004)
 -->
<!-- Title: dependencies Pages: 1 -->
<svg width="504pt" height="211pt"
 viewBox="0.00 0.00 504.00 211.00" xmlns="http://www.w3.org/2000/svg" xmlns:xlink="http://www.w3.org/1999/xlink">
<g id="graph0" class="graph" transform="scale(1 1) rotate(0) translate(4 207)">
<title>dependencies</title>
<polygon fill="white" stroke="transparent" points="-4,4 -4,-207 500,-207 500,4 -4,4"/>
<text text-anchor="start" x="227.01" y="-42.4" font-family="Times-12" font-weight="bold" font-size="14.00">Legend</text>
<polygon fill="#ffffb3" stroke="transparent" points="14,-10 14,-30 34,-30 34,-10 14,-10"/>
<text text-anchor="start" x="37.63" y="-15.4" font-family="Times-12" font-size="14.00"> &#160;Declarations</text>
<polygon fill="#8dd3c7" stroke="transparent" points="127,-10 127,-30 147,-30 147,-10 127,-10"/>
<text text-anchor="start" x="150.73" y="-15.4" font-family="Times-12" font-size="14.00"> &#160;Module</text>
<polygon fill="#80b1d3" stroke="transparent" points="213,-10 213,-30 233,-30 233,-10 213,-10"/>
<text text-anchor="start" x="236.78" y="-15.4" font-family="Times-12" font-size="14.00"> &#160;Bootstrap</text>
<polygon fill="#fdb462" stroke="transparent" points="310,-10 310,-30 330,-30 330,-10 310,-10"/>
<text text-anchor="start" x="333.67" y="-15.4" font-family="Times-12" font-size="14.00"> &#160;Providers</text>
<polygon fill="#fb8072" stroke="transparent" points="406,-10 406,-30 426,-30 426,-10 406,-10"/>
<text text-anchor="start" x="429.73" y="-15.4" font-family="Times-12" font-size="14.00"> &#160;Exports</text>
<g id="clust1" class="cluster">
<title>cluster_AdminApiServerModule</title>
<polygon fill="none" stroke="black" stroke-dasharray="1,5" points="16,-70 16,-195 480,-195 480,-70 16,-70"/>
</g>
<g id="clust3" class="cluster">
<title>cluster_AdminApiServerModule_imports</title>
<polygon fill="none" stroke="black" points="24,-78 24,-130 472,-130 472,-78 24,-78"/>
</g>
<!-- DeletionApiModule -->
<g id="node1" class="node">
<title>DeletionApiModule</title>
<polygon fill="#8dd3c7" stroke="black" points="464.25,-122 461.25,-126 440.25,-126 437.25,-122 335.75,-122 335.75,-86 464.25,-86 464.25,-122"/>
<text text-anchor="middle" x="400" y="-99.8" font-family="Times,serif" font-size="14.00">DeletionApiModule</text>
</g>
<!-- AdminApiServerModule -->
<g id="node4" class="node">
<title>AdminApiServerModule</title>
<polygon fill="#8dd3c7" stroke="black" points="345.97,-187 342.97,-191 321.97,-191 318.97,-187 190.03,-187 190.03,-151 345.97,-151 345.97,-187"/>
<text text-anchor="middle" x="268" y="-164.8" font-family="Times,serif" font-size="14.00">AdminApiServerModule</text>
</g>
<!-- DeletionApiModule&#45;&gt;AdminApiServerModule -->
<g id="edge1" class="edge">
<title>DeletionApiModule&#45;&gt;AdminApiServerModule</title>
<path fill="none" stroke="black" d="M340.8,-122.11C340.8,-122.11 340.8,-140.99 340.8,-140.99"/>
<polygon fill="black" stroke="black" points="337.3,-140.99 340.8,-150.99 344.3,-140.99 337.3,-140.99"/>
</g>
<!-- LoggerModule -->
<g id="node2" class="node">
<title>LoggerModule</title>
<polygon fill="#8dd3c7" stroke="black" points="317.98,-122 314.98,-126 293.98,-126 290.98,-122 218.02,-122 218.02,-86 317.98,-86 317.98,-122"/>
<text text-anchor="middle" x="268" y="-99.8" font-family="Times,serif" font-size="14.00">LoggerModule</text>
</g>
<!-- LoggerModule&#45;&gt;AdminApiServerModule -->
<g id="edge2" class="edge">
<title>LoggerModule&#45;&gt;AdminApiServerModule</title>
<path fill="none" stroke="black" d="M268,-122.11C268,-122.11 268,-140.99 268,-140.99"/>
<polygon fill="black" stroke="black" points="264.5,-140.99 268,-150.99 271.5,-140.99 264.5,-140.99"/>
</g>
<!-- RabbitMQWrapperModule -->
<g id="node3" class="node">
<title>RabbitMQWrapperModule</title>
<polygon fill="#8dd3c7" stroke="black" points="200.4,-122 197.4,-126 176.4,-126 173.4,-122 31.6,-122 31.6,-86 200.4,-86 200.4,-122"/>
<text text-anchor="middle" x="116" y="-99.8" font-family="Times,serif" font-size="14.00">RabbitMQWrapperModule</text>
</g>
<!-- RabbitMQWrapperModule&#45;&gt;AdminApiServerModule -->
<g id="edge3" class="edge">
<title>RabbitMQWrapperModule&#45;&gt;AdminApiServerModule</title>
<path fill="none" stroke="black" d="M195.11,-122.11C195.11,-122.11 195.11,-140.99 195.11,-140.99"/>
<polygon fill="black" stroke="black" points="191.61,-140.99 195.11,-150.99 198.61,-140.99 191.61,-140.99"/>
</g>
</g>
</svg>
