<?xml version="1.0" encoding="UTF-8" standalone="no"?>
<!DOCTYPE svg PUBLIC "-//W3C//DTD SVG 1.1//EN"
 "http://www.w3.org/Graphics/SVG/1.1/DTD/svg11.dtd">
<!-- Generated by graphviz version 2.47.0 (20210316.0004)
 -->
<!-- Title: dependencies Pages: 1 -->
<svg width="2466pt" height="211pt"
 viewBox="0.00 0.00 2466.00 211.00" xmlns="http://www.w3.org/2000/svg" xmlns:xlink="http://www.w3.org/1999/xlink">
<g id="graph0" class="graph" transform="scale(1 1) rotate(0) translate(4 207)">
<title>dependencies</title>
<polygon fill="white" stroke="transparent" points="-4,4 -4,-207 2462,-207 2462,4 -4,4"/>
<text text-anchor="start" x="1208.01" y="-42.4" font-family="Times-12" font-weight="bold" font-size="14.00">Legend</text>
<polygon fill="#ffffb3" stroke="transparent" points="995,-10 995,-30 1015,-30 1015,-10 995,-10"/>
<text text-anchor="start" x="1018.63" y="-15.4" font-family="Times-12" font-size="14.00"> &#160;Declarations</text>
<polygon fill="#8dd3c7" stroke="transparent" points="1108,-10 1108,-30 1128,-30 1128,-10 1108,-10"/>
<text text-anchor="start" x="1131.73" y="-15.4" font-family="Times-12" font-size="14.00"> &#160;Module</text>
<polygon fill="#80b1d3" stroke="transparent" points="1194,-10 1194,-30 1214,-30 1214,-10 1194,-10"/>
<text text-anchor="start" x="1217.78" y="-15.4" font-family="Times-12" font-size="14.00"> &#160;Bootstrap</text>
<polygon fill="#fdb462" stroke="transparent" points="1291,-10 1291,-30 1311,-30 1311,-10 1291,-10"/>
<text text-anchor="start" x="1314.67" y="-15.4" font-family="Times-12" font-size="14.00"> &#160;Providers</text>
<polygon fill="#fb8072" stroke="transparent" points="1387,-10 1387,-30 1407,-30 1407,-10 1387,-10"/>
<text text-anchor="start" x="1410.73" y="-15.4" font-family="Times-12" font-size="14.00"> &#160;Exports</text>
<g id="clust1" class="cluster">
<title>cluster_OauthProviderApiModule</title>
<polygon fill="none" stroke="black" stroke-dasharray="1,5" points="8,-70 8,-195 2450,-195 2450,-70 8,-70"/>
</g>
<g id="clust3" class="cluster">
<title>cluster_OauthProviderApiModule_imports</title>
<polygon fill="none" stroke="black" points="1562,-78 1562,-130 2442,-130 2442,-78 1562,-78"/>
</g>
<g id="clust6" class="cluster">
<title>cluster_OauthProviderApiModule_providers</title>
<polygon fill="none" stroke="black" points="16,-78 16,-130 1554,-130 1554,-78 16,-78"/>
</g>
<!-- AuthorizationModule -->
<g id="node1" class="node">
<title>AuthorizationModule</title>
<polygon fill="#8dd3c7" stroke="black" points="2433.81,-122 2430.81,-126 2409.81,-126 2406.81,-122 2296.19,-122 2296.19,-86 2433.81,-86 2433.81,-122"/>
<text text-anchor="middle" x="2365" y="-99.8" font-family="Times,serif" font-size="14.00">AuthorizationModule</text>
</g>
<!-- OauthProviderApiModule -->
<g id="node7" class="node">
<title>OauthProviderApiModule</title>
<polygon fill="#8dd3c7" stroke="black" points="1599.47,-187 1596.47,-191 1575.47,-191 1572.47,-187 1436.53,-187 1436.53,-151 1599.47,-151 1599.47,-187"/>
<text text-anchor="middle" x="1518" y="-164.8" font-family="Times,serif" font-size="14.00">OauthProviderApiModule</text>
</g>
<!-- AuthorizationModule&#45;&gt;OauthProviderApiModule -->
<g id="edge1" class="edge">
<title>AuthorizationModule&#45;&gt;OauthProviderApiModule</title>
<path fill="none" stroke="black" d="M2365,-122.09C2365,-145.13 2365,-182 2365,-182 2365,-182 1609.6,-182 1609.6,-182"/>
<polygon fill="black" stroke="black" points="1609.6,-178.5 1599.6,-182 1609.6,-185.5 1609.6,-178.5"/>
</g>
<!-- LoggerModule -->
<g id="node2" class="node">
<title>LoggerModule</title>
<polygon fill="#8dd3c7" stroke="black" points="2277.98,-122 2274.98,-126 2253.98,-126 2250.98,-122 2178.02,-122 2178.02,-86 2277.98,-86 2277.98,-122"/>
<text text-anchor="middle" x="2228" y="-99.8" font-family="Times,serif" font-size="14.00">LoggerModule</text>
</g>
<!-- LoggerModule&#45;&gt;OauthProviderApiModule -->
<g id="edge2" class="edge">
<title>LoggerModule&#45;&gt;OauthProviderApiModule</title>
<path fill="none" stroke="black" d="M2228,-122.28C2228,-143.32 2228,-175 2228,-175 2228,-175 1609.79,-175 1609.79,-175"/>
<polygon fill="black" stroke="black" points="1609.79,-171.5 1599.79,-175 1609.79,-178.5 1609.79,-171.5"/>
</g>
<!-- OauthProviderModule -->
<g id="node3" class="node">
<title>OauthProviderModule</title>
<polygon fill="#8dd3c7" stroke="black" points="2159.97,-122 2156.97,-126 2135.97,-126 2132.97,-122 2018.03,-122 2018.03,-86 2159.97,-86 2159.97,-122"/>
<text text-anchor="middle" x="2089" y="-99.8" font-family="Times,serif" font-size="14.00">OauthProviderModule</text>
</g>
<!-- OauthProviderModule&#45;&gt;OauthProviderApiModule -->
<g id="edge3" class="edge">
<title>OauthProviderModule&#45;&gt;OauthProviderApiModule</title>
<path fill="none" stroke="black" d="M2089,-122.11C2089,-141.34 2089,-169 2089,-169 2089,-169 1609.51,-169 1609.51,-169"/>
<polygon fill="black" stroke="black" points="1609.51,-165.5 1599.51,-169 1609.51,-172.5 1609.51,-165.5"/>
</g>
<!-- OauthProviderServiceModule -->
<g id="node4" class="node">
<title>OauthProviderServiceModule</title>
<polygon fill="#8dd3c7" stroke="black" points="1999.95,-122 1996.95,-126 1975.95,-126 1972.95,-122 1816.05,-122 1816.05,-86 1999.95,-86 1999.95,-122"/>
<text text-anchor="middle" x="1908" y="-99.8" font-family="Times,serif" font-size="14.00">OauthProviderServiceModule</text>
</g>
<!-- OauthProviderServiceModule&#45;&gt;OauthProviderApiModule -->
<g id="edge4" class="edge">
<title>OauthProviderServiceModule&#45;&gt;OauthProviderApiModule</title>
<path fill="none" stroke="black" d="M1908,-122.02C1908,-139.37 1908,-163 1908,-163 1908,-163 1609.76,-163 1609.76,-163"/>
<polygon fill="black" stroke="black" points="1609.76,-159.5 1599.76,-163 1609.76,-166.5 1609.76,-159.5"/>
</g>
<!-- PseudonymModule -->
<g id="node5" class="node">
<title>PseudonymModule</title>
<polygon fill="#8dd3c7" stroke="black" points="1798.38,-122 1795.38,-126 1774.38,-126 1771.38,-122 1673.62,-122 1673.62,-86 1798.38,-86 1798.38,-122"/>
<text text-anchor="middle" x="1736" y="-99.8" font-family="Times,serif" font-size="14.00">PseudonymModule</text>
</g>
<!-- PseudonymModule&#45;&gt;OauthProviderApiModule -->
<g id="edge5" class="edge">
<title>PseudonymModule&#45;&gt;OauthProviderApiModule</title>
<path fill="none" stroke="black" d="M1736,-122.24C1736,-137.57 1736,-157 1736,-157 1736,-157 1609.49,-157 1609.49,-157"/>
<polygon fill="black" stroke="black" points="1609.49,-153.5 1599.49,-157 1609.49,-160.5 1609.49,-153.5"/>
</g>
<!-- UserModule -->
<g id="node6" class="node">
<title>UserModule</title>
<polygon fill="#8dd3c7" stroke="black" points="1655.98,-122 1652.98,-126 1631.98,-126 1628.98,-122 1570.02,-122 1570.02,-86 1655.98,-86 1655.98,-122"/>
<text text-anchor="middle" x="1613" y="-99.8" font-family="Times,serif" font-size="14.00">UserModule</text>
</g>
<!-- UserModule&#45;&gt;OauthProviderApiModule -->
<g id="edge6" class="edge">
<title>UserModule&#45;&gt;OauthProviderApiModule</title>
<path fill="none" stroke="black" d="M1584.75,-122.11C1584.75,-122.11 1584.75,-140.99 1584.75,-140.99"/>
<polygon fill="black" stroke="black" points="1581.25,-140.99 1584.75,-150.99 1588.25,-140.99 1581.25,-140.99"/>
</g>
<!-- OauthProviderClientCrudUc -->
<g id="node8" class="node">
<title>OauthProviderClientCrudUc</title>
<ellipse fill="#fdb462" stroke="black" cx="1424" cy="-104" rx="122.13" ry="18"/>
<text text-anchor="middle" x="1424" y="-99.8" font-family="Times,serif" font-size="14.00">OauthProviderClientCrudUc</text>
</g>
<!-- OauthProviderClientCrudUc&#45;&gt;OauthProviderApiModule -->
<g id="edge7" class="edge">
<title>OauthProviderClientCrudUc&#45;&gt;OauthProviderApiModule</title>
<path fill="none" stroke="black" d="M1491.29,-119.08C1491.29,-119.08 1491.29,-140.76 1491.29,-140.76"/>
<polygon fill="black" stroke="black" points="1487.79,-140.76 1491.29,-150.76 1494.79,-140.76 1487.79,-140.76"/>
</g>
<!-- OauthProviderConsentFlowUc -->
<g id="node9" class="node">
<title>OauthProviderConsentFlowUc</title>
<ellipse fill="#fdb462" stroke="black" cx="1153" cy="-104" rx="130.8" ry="18"/>
<text text-anchor="middle" x="1153" y="-99.8" font-family="Times,serif" font-size="14.00">OauthProviderConsentFlowUc</text>
</g>
<!-- OauthProviderConsentFlowUc&#45;&gt;OauthProviderApiModule -->
<g id="edge8" class="edge">
<title>OauthProviderConsentFlowUc&#45;&gt;OauthProviderApiModule</title>
<path fill="none" stroke="black" d="M1153,-122.24C1153,-137.57 1153,-157 1153,-157 1153,-157 1426.09,-157 1426.09,-157"/>
<polygon fill="black" stroke="black" points="1426.09,-160.5 1436.09,-157 1426.09,-153.5 1426.09,-160.5"/>
</g>
<!-- OauthProviderLoginFlowUc -->
<g id="node10" class="node">
<title>OauthProviderLoginFlowUc</title>
<ellipse fill="#fdb462" stroke="black" cx="882" cy="-104" rx="122.13" ry="18"/>
<text text-anchor="middle" x="882" y="-99.8" font-family="Times,serif" font-size="14.00">OauthProviderLoginFlowUc</text>
</g>
<!-- OauthProviderLoginFlowUc&#45;&gt;OauthProviderApiModule -->
<g id="edge9" class="edge">
<title>OauthProviderLoginFlowUc&#45;&gt;OauthProviderApiModule</title>
<path fill="none" stroke="black" d="M882,-122.02C882,-139.37 882,-163 882,-163 882,-163 1426.48,-163 1426.48,-163"/>
<polygon fill="black" stroke="black" points="1426.48,-166.5 1436.48,-163 1426.48,-159.5 1426.48,-166.5"/>
</g>
<!-- OauthProviderLogoutFlowUc -->
<g id="node11" class="node">
<title>OauthProviderLogoutFlowUc</title>
<ellipse fill="#fdb462" stroke="black" cx="615" cy="-104" rx="126.79" ry="18"/>
<text text-anchor="middle" x="615" y="-99.8" font-family="Times,serif" font-size="14.00">OauthProviderLogoutFlowUc</text>
</g>
<!-- OauthProviderLogoutFlowUc&#45;&gt;OauthProviderApiModule -->
<g id="edge10" class="edge">
<title>OauthProviderLogoutFlowUc&#45;&gt;OauthProviderApiModule</title>
<path fill="none" stroke="black" d="M615,-122.11C615,-141.34 615,-169 615,-169 615,-169 1426.27,-169 1426.27,-169"/>
<polygon fill="black" stroke="black" points="1426.27,-172.5 1436.27,-169 1426.27,-165.5 1426.27,-172.5"/>
</g>
<!-- OauthProviderResponseMapper -->
<g id="node12" class="node">
<title>OauthProviderResponseMapper</title>
<ellipse fill="#fdb462" stroke="black" cx="335" cy="-104" rx="134.86" ry="18"/>
<text text-anchor="middle" x="335" y="-99.8" font-family="Times,serif" font-size="14.00">OauthProviderResponseMapper</text>
</g>
<!-- OauthProviderResponseMapper&#45;&gt;OauthProviderApiModule -->
<g id="edge11" class="edge">
<title>OauthProviderResponseMapper&#45;&gt;OauthProviderApiModule</title>
<path fill="none" stroke="black" d="M335,-122.28C335,-143.32 335,-175 335,-175 335,-175 1426.22,-175 1426.22,-175"/>
<polygon fill="black" stroke="black" points="1426.22,-178.5 1436.22,-175 1426.22,-171.5 1426.22,-178.5"/>
</g>
<!-- OauthProviderUc -->
<g id="node13" class="node">
<title>OauthProviderUc</title>
<ellipse fill="#fdb462" stroke="black" cx="103" cy="-104" rx="79.29" ry="18"/>
<text text-anchor="middle" x="103" y="-99.8" font-family="Times,serif" font-size="14.00">OauthProviderUc</text>
</g>
<!-- OauthProviderUc&#45;&gt;OauthProviderApiModule -->
<g id="edge12" class="edge">
<title>OauthProviderUc&#45;&gt;OauthProviderApiModule</title>
<path fill="none" stroke="black" d="M103,-122.09C103,-145.13 103,-182 103,-182 103,-182 1426.33,-182 1426.33,-182"/>
<polygon fill="black" stroke="black" points="1426.33,-185.5 1436.33,-182 1426.33,-178.5 1426.33,-185.5"/>
</g>
</g>
</svg>
