<?xml version="1.0" encoding="UTF-8" standalone="no"?>
<!DOCTYPE svg PUBLIC "-//W3C//DTD SVG 1.1//EN"
 "http://www.w3.org/Graphics/SVG/1.1/DTD/svg11.dtd">
<!-- Generated by graphviz version 2.47.0 (20210316.0004)
 -->
<!-- Title: dependencies Pages: 1 -->
<svg width="2238pt" height="211pt"
 viewBox="0.00 0.00 2238.00 211.00" xmlns="http://www.w3.org/2000/svg" xmlns:xlink="http://www.w3.org/1999/xlink">
<g id="graph0" class="graph" transform="scale(1 1) rotate(0) translate(4 207)">
<title>dependencies</title>
<polygon fill="white" stroke="transparent" points="-4,4 -4,-207 2234,-207 2234,4 -4,4"/>
<text text-anchor="start" x="1094.01" y="-42.4" font-family="Times-12" font-weight="bold" font-size="14.00">Legend</text>
<polygon fill="#ffffb3" stroke="transparent" points="881,-10 881,-30 901,-30 901,-10 881,-10"/>
<text text-anchor="start" x="904.63" y="-15.4" font-family="Times-12" font-size="14.00"> &#160;Declarations</text>
<polygon fill="#8dd3c7" stroke="transparent" points="994,-10 994,-30 1014,-30 1014,-10 994,-10"/>
<text text-anchor="start" x="1017.73" y="-15.4" font-family="Times-12" font-size="14.00"> &#160;Module</text>
<polygon fill="#80b1d3" stroke="transparent" points="1080,-10 1080,-30 1100,-30 1100,-10 1080,-10"/>
<text text-anchor="start" x="1103.78" y="-15.4" font-family="Times-12" font-size="14.00"> &#160;Bootstrap</text>
<polygon fill="#fdb462" stroke="transparent" points="1177,-10 1177,-30 1197,-30 1197,-10 1177,-10"/>
<text text-anchor="start" x="1200.67" y="-15.4" font-family="Times-12" font-size="14.00"> &#160;Providers</text>
<polygon fill="#fb8072" stroke="transparent" points="1273,-10 1273,-30 1293,-30 1293,-10 1273,-10"/>
<text text-anchor="start" x="1296.73" y="-15.4" font-family="Times-12" font-size="14.00"> &#160;Exports</text>
<g id="clust1" class="cluster">
<title>cluster_OauthProviderApiModule</title>
<polygon fill="none" stroke="black" stroke-dasharray="1,5" points="8,-70 8,-195 2222,-195 2222,-70 8,-70"/>
</g>
<g id="clust3" class="cluster">
<title>cluster_OauthProviderApiModule_imports</title>
<polygon fill="none" stroke="black" points="1334,-78 1334,-130 2214,-130 2214,-78 1334,-78"/>
</g>
<g id="clust6" class="cluster">
<title>cluster_OauthProviderApiModule_providers</title>
<polygon fill="none" stroke="black" points="16,-78 16,-130 1326,-130 1326,-78 16,-78"/>
</g>
<!-- AuthorizationModule -->
<g id="node1" class="node">
<title>AuthorizationModule</title>
<polygon fill="#8dd3c7" stroke="black" points="2205.81,-122 2202.81,-126 2181.81,-126 2178.81,-122 2068.19,-122 2068.19,-86 2205.81,-86 2205.81,-122"/>
<text text-anchor="middle" x="2137" y="-99.8" font-family="Times,serif" font-size="14.00">AuthorizationModule</text>
</g>
<!-- OauthProviderApiModule -->
<g id="node7" class="node">
<title>OauthProviderApiModule</title>
<polygon fill="#8dd3c7" stroke="black" points="1466.47,-187 1463.47,-191 1442.47,-191 1439.47,-187 1303.53,-187 1303.53,-151 1466.47,-151 1466.47,-187"/>
<text text-anchor="middle" x="1385" y="-164.8" font-family="Times,serif" font-size="14.00">OauthProviderApiModule</text>
</g>
<!-- AuthorizationModule&#45;&gt;OauthProviderApiModule -->
<g id="edge1" class="edge">
<title>AuthorizationModule&#45;&gt;OauthProviderApiModule</title>
<path fill="none" stroke="black" d="M2137,-122.01C2137,-144.49 2137,-180 2137,-180 2137,-180 1476.55,-180 1476.55,-180"/>
<polygon fill="black" stroke="black" points="1476.55,-176.5 1466.55,-180 1476.55,-183.5 1476.55,-176.5"/>
</g>
<!-- LoggerModule -->
<g id="node2" class="node">
<title>LoggerModule</title>
<polygon fill="#8dd3c7" stroke="black" points="2049.98,-122 2046.98,-126 2025.98,-126 2022.98,-122 1950.02,-122 1950.02,-86 2049.98,-86 2049.98,-122"/>
<text text-anchor="middle" x="2000" y="-99.8" font-family="Times,serif" font-size="14.00">LoggerModule</text>
</g>
<!-- LoggerModule&#45;&gt;OauthProviderApiModule -->
<g id="edge2" class="edge">
<title>LoggerModule&#45;&gt;OauthProviderApiModule</title>
<path fill="none" stroke="black" d="M2000,-122.13C2000,-142.57 2000,-173 2000,-173 2000,-173 1476.67,-173 1476.67,-173"/>
<polygon fill="black" stroke="black" points="1476.67,-169.5 1466.67,-173 1476.67,-176.5 1476.67,-169.5"/>
</g>
<!-- OauthProviderModule -->
<g id="node3" class="node">
<title>OauthProviderModule</title>
<polygon fill="#8dd3c7" stroke="black" points="1931.97,-122 1928.97,-126 1907.97,-126 1904.97,-122 1790.03,-122 1790.03,-86 1931.97,-86 1931.97,-122"/>
<text text-anchor="middle" x="1861" y="-99.8" font-family="Times,serif" font-size="14.00">OauthProviderModule</text>
</g>
<!-- OauthProviderModule&#45;&gt;OauthProviderApiModule -->
<g id="edge3" class="edge">
<title>OauthProviderModule&#45;&gt;OauthProviderApiModule</title>
<path fill="none" stroke="black" d="M1861,-122.27C1861,-140.56 1861,-166 1861,-166 1861,-166 1476.56,-166 1476.56,-166"/>
<polygon fill="black" stroke="black" points="1476.56,-162.5 1466.56,-166 1476.56,-169.5 1476.56,-162.5"/>
</g>
<!-- OauthProviderServiceModule -->
<g id="node4" class="node">
<title>OauthProviderServiceModule</title>
<polygon fill="#8dd3c7" stroke="black" points="1771.95,-122 1768.95,-126 1747.95,-126 1744.95,-122 1588.05,-122 1588.05,-86 1771.95,-86 1771.95,-122"/>
<text text-anchor="middle" x="1680" y="-99.8" font-family="Times,serif" font-size="14.00">OauthProviderServiceModule</text>
</g>
<!-- OauthProviderServiceModule&#45;&gt;OauthProviderApiModule -->
<g id="edge4" class="edge">
<title>OauthProviderServiceModule&#45;&gt;OauthProviderApiModule</title>
<path fill="none" stroke="black" d="M1680,-122.01C1680,-138.05 1680,-159 1680,-159 1680,-159 1476.78,-159 1476.78,-159"/>
<polygon fill="black" stroke="black" points="1476.78,-155.5 1466.78,-159 1476.78,-162.5 1476.78,-155.5"/>
</g>
<!-- PseudonymModule -->
<g id="node5" class="node">
<title>PseudonymModule</title>
<polygon fill="#8dd3c7" stroke="black" points="1570.38,-122 1567.38,-126 1546.38,-126 1543.38,-122 1445.62,-122 1445.62,-86 1570.38,-86 1570.38,-122"/>
<text text-anchor="middle" x="1508" y="-99.8" font-family="Times,serif" font-size="14.00">PseudonymModule</text>
</g>
<!-- PseudonymModule&#45;&gt;OauthProviderApiModule -->
<g id="edge5" class="edge">
<title>PseudonymModule&#45;&gt;OauthProviderApiModule</title>
<path fill="none" stroke="black" d="M1456.02,-122.11C1456.02,-122.11 1456.02,-140.99 1456.02,-140.99"/>
<polygon fill="black" stroke="black" points="1452.52,-140.99 1456.02,-150.99 1459.52,-140.99 1452.52,-140.99"/>
</g>
<!-- UserModule -->
<g id="node6" class="node">
<title>UserModule</title>
<polygon fill="#8dd3c7" stroke="black" points="1427.98,-122 1424.98,-126 1403.98,-126 1400.98,-122 1342.02,-122 1342.02,-86 1427.98,-86 1427.98,-122"/>
<text text-anchor="middle" x="1385" y="-99.8" font-family="Times,serif" font-size="14.00">UserModule</text>
</g>
<!-- UserModule&#45;&gt;OauthProviderApiModule -->
<g id="edge6" class="edge">
<title>UserModule&#45;&gt;OauthProviderApiModule</title>
<path fill="none" stroke="black" d="M1385,-122.11C1385,-122.11 1385,-140.99 1385,-140.99"/>
<polygon fill="black" stroke="black" points="1381.5,-140.99 1385,-150.99 1388.5,-140.99 1381.5,-140.99"/>
</g>
<!-- OauthProviderClientCrudUc -->
<g id="node8" class="node">
<title>OauthProviderClientCrudUc</title>
<ellipse fill="#fdb462" stroke="black" cx="1196" cy="-104" rx="122.13" ry="18"/>
<text text-anchor="middle" x="1196" y="-99.8" font-family="Times,serif" font-size="14.00">OauthProviderClientCrudUc</text>
</g>
<!-- OauthProviderClientCrudUc&#45;&gt;OauthProviderApiModule -->
<g id="edge7" class="edge">
<title>OauthProviderClientCrudUc&#45;&gt;OauthProviderApiModule</title>
<path fill="none" stroke="black" d="M1310.79,-110.47C1310.79,-110.47 1310.79,-140.78 1310.79,-140.78"/>
<polygon fill="black" stroke="black" points="1307.29,-140.78 1310.79,-150.78 1314.29,-140.78 1307.29,-140.78"/>
</g>
<!-- OauthProviderConsentFlowUc -->
<g id="node9" class="node">
<title>OauthProviderConsentFlowUc</title>
<ellipse fill="#fdb462" stroke="black" cx="925" cy="-104" rx="130.8" ry="18"/>
<text text-anchor="middle" x="925" y="-99.8" font-family="Times,serif" font-size="14.00">OauthProviderConsentFlowUc</text>
</g>
<!-- OauthProviderConsentFlowUc&#45;&gt;OauthProviderApiModule -->
<g id="edge8" class="edge">
<title>OauthProviderConsentFlowUc&#45;&gt;OauthProviderApiModule</title>
<path fill="none" stroke="black" d="M925,-122.01C925,-138.05 925,-159 925,-159 925,-159 1293.29,-159 1293.29,-159"/>
<polygon fill="black" stroke="black" points="1293.29,-162.5 1303.29,-159 1293.29,-155.5 1293.29,-162.5"/>
</g>
<!-- OauthProviderLoginFlowUc -->
<g id="node10" class="node">
<title>OauthProviderLoginFlowUc</title>
<ellipse fill="#fdb462" stroke="black" cx="654" cy="-104" rx="122.13" ry="18"/>
<text text-anchor="middle" x="654" y="-99.8" font-family="Times,serif" font-size="14.00">OauthProviderLoginFlowUc</text>
</g>
<!-- OauthProviderLoginFlowUc&#45;&gt;OauthProviderApiModule -->
<g id="edge9" class="edge">
<title>OauthProviderLoginFlowUc&#45;&gt;OauthProviderApiModule</title>
<path fill="none" stroke="black" d="M654,-122.27C654,-140.56 654,-166 654,-166 654,-166 1293.27,-166 1293.27,-166"/>
<polygon fill="black" stroke="black" points="1293.27,-169.5 1303.27,-166 1293.27,-162.5 1293.27,-169.5"/>
</g>
<!-- OauthProviderLogoutFlowUc -->
<g id="node11" class="node">
<title>OauthProviderLogoutFlowUc</title>
<ellipse fill="#fdb462" stroke="black" cx="387" cy="-104" rx="126.79" ry="18"/>
<text text-anchor="middle" x="387" y="-99.8" font-family="Times,serif" font-size="14.00">OauthProviderLogoutFlowUc</text>
</g>
<!-- OauthProviderLogoutFlowUc&#45;&gt;OauthProviderApiModule -->
<g id="edge10" class="edge">
<title>OauthProviderLogoutFlowUc&#45;&gt;OauthProviderApiModule</title>
<path fill="none" stroke="black" d="M387,-122.13C387,-142.57 387,-173 387,-173 387,-173 1293.33,-173 1293.33,-173"/>
<polygon fill="black" stroke="black" points="1293.33,-176.5 1303.33,-173 1293.33,-169.5 1293.33,-176.5"/>
</g>
<!-- OauthProviderSessionUc -->
<g id="node12" class="node">
<title>OauthProviderSessionUc</title>
<ellipse fill="#fdb462" stroke="black" cx="133" cy="-104" rx="108.81" ry="18"/>
<text text-anchor="middle" x="133" y="-99.8" font-family="Times,serif" font-size="14.00">OauthProviderSessionUc</text>
</g>
<!-- OauthProviderSessionUc&#45;&gt;OauthProviderApiModule -->
<g id="edge11" class="edge">
<title>OauthProviderSessionUc&#45;&gt;OauthProviderApiModule</title>
<path fill="none" stroke="black" d="M133,-122.01C133,-144.49 133,-180 133,-180 133,-180 1293.34,-180 1293.34,-180"/>
<polygon fill="black" stroke="black" points="1293.34,-183.5 1303.34,-180 1293.34,-176.5 1293.34,-183.5"/>
</g>
</g>
</svg>
