<?xml version="1.0" encoding="UTF-8" standalone="no"?>
<!DOCTYPE svg PUBLIC "-//W3C//DTD SVG 1.1//EN"
 "http://www.w3.org/Graphics/SVG/1.1/DTD/svg11.dtd">
<!-- Generated by graphviz version 2.47.0 (20210316.0004)
 -->
<!-- Title: dependencies Pages: 1 -->
<svg width="2362pt" height="211pt"
 viewBox="0.00 0.00 2362.00 211.00" xmlns="http://www.w3.org/2000/svg" xmlns:xlink="http://www.w3.org/1999/xlink">
<g id="graph0" class="graph" transform="scale(1 1) rotate(0) translate(4 207)">
<title>dependencies</title>
<polygon fill="white" stroke="transparent" points="-4,4 -4,-207 2358,-207 2358,4 -4,4"/>
<text text-anchor="start" x="1156.01" y="-42.4" font-family="Times-12" font-weight="bold" font-size="14.00">Legend</text>
<polygon fill="#ffffb3" stroke="transparent" points="943,-10 943,-30 963,-30 963,-10 943,-10"/>
<text text-anchor="start" x="966.63" y="-15.4" font-family="Times-12" font-size="14.00"> &#160;Declarations</text>
<polygon fill="#8dd3c7" stroke="transparent" points="1056,-10 1056,-30 1076,-30 1076,-10 1056,-10"/>
<text text-anchor="start" x="1079.73" y="-15.4" font-family="Times-12" font-size="14.00"> &#160;Module</text>
<polygon fill="#80b1d3" stroke="transparent" points="1142,-10 1142,-30 1162,-30 1162,-10 1142,-10"/>
<text text-anchor="start" x="1165.78" y="-15.4" font-family="Times-12" font-size="14.00"> &#160;Bootstrap</text>
<polygon fill="#fdb462" stroke="transparent" points="1239,-10 1239,-30 1259,-30 1259,-10 1239,-10"/>
<text text-anchor="start" x="1262.67" y="-15.4" font-family="Times-12" font-size="14.00"> &#160;Providers</text>
<polygon fill="#fb8072" stroke="transparent" points="1335,-10 1335,-30 1355,-30 1355,-10 1335,-10"/>
<text text-anchor="start" x="1358.73" y="-15.4" font-family="Times-12" font-size="14.00"> &#160;Exports</text>
<g id="clust1" class="cluster">
<title>cluster_OauthProviderApiModule</title>
<polygon fill="none" stroke="black" stroke-dasharray="1,5" points="8,-70 8,-195 2346,-195 2346,-70 8,-70"/>
</g>
<g id="clust6" class="cluster">
<title>cluster_OauthProviderApiModule_providers</title>
<polygon fill="none" stroke="black" points="800,-78 800,-130 2338,-130 2338,-78 800,-78"/>
</g>
<g id="clust3" class="cluster">
<title>cluster_OauthProviderApiModule_imports</title>
<polygon fill="none" stroke="black" points="16,-78 16,-130 792,-130 792,-78 16,-78"/>
</g>
<!-- AuthorizationModule -->
<g id="node1" class="node">
<title>AuthorizationModule</title>
<polygon fill="#8dd3c7" stroke="black" points="783.81,-122 780.81,-126 759.81,-126 756.81,-122 646.19,-122 646.19,-86 783.81,-86 783.81,-122"/>
<text text-anchor="middle" x="715" y="-99.8" font-family="Times,serif" font-size="14.00">AuthorizationModule</text>
</g>
<!-- OauthProviderApiModule -->
<g id="node6" class="node">
<title>OauthProviderApiModule</title>
<polygon fill="#8dd3c7" stroke="black" points="968.47,-187 965.47,-191 944.47,-191 941.47,-187 805.53,-187 805.53,-151 968.47,-151 968.47,-187"/>
<text text-anchor="middle" x="887" y="-164.8" font-family="Times,serif" font-size="14.00">OauthProviderApiModule</text>
</g>
<!-- AuthorizationModule&#45;&gt;OauthProviderApiModule -->
<g id="edge1" class="edge">
<title>AuthorizationModule&#45;&gt;OauthProviderApiModule</title>
<path fill="none" stroke="black" d="M715,-122.24C715,-137.57 715,-157 715,-157 715,-157 795.28,-157 795.28,-157"/>
<polygon fill="black" stroke="black" points="795.28,-160.5 805.28,-157 795.28,-153.5 795.28,-160.5"/>
</g>
<!-- LoggerModule -->
<g id="node2" class="node">
<title>LoggerModule</title>
<polygon fill="#8dd3c7" stroke="black" points="627.98,-122 624.98,-126 603.98,-126 600.98,-122 528.02,-122 528.02,-86 627.98,-86 627.98,-122"/>
<text text-anchor="middle" x="578" y="-99.8" font-family="Times,serif" font-size="14.00">LoggerModule</text>
</g>
<!-- LoggerModule&#45;&gt;OauthProviderApiModule -->
<g id="edge2" class="edge">
<title>LoggerModule&#45;&gt;OauthProviderApiModule</title>
<path fill="none" stroke="black" d="M578,-122.02C578,-139.37 578,-163 578,-163 578,-163 795.41,-163 795.41,-163"/>
<polygon fill="black" stroke="black" points="795.41,-166.5 805.41,-163 795.41,-159.5 795.41,-166.5"/>
</g>
<!-- OauthProviderModule -->
<g id="node3" class="node">
<title>OauthProviderModule</title>
<polygon fill="#8dd3c7" stroke="black" points="509.97,-122 506.97,-126 485.97,-126 482.97,-122 368.03,-122 368.03,-86 509.97,-86 509.97,-122"/>
<text text-anchor="middle" x="439" y="-99.8" font-family="Times,serif" font-size="14.00">OauthProviderModule</text>
</g>
<!-- OauthProviderModule&#45;&gt;OauthProviderApiModule -->
<g id="edge3" class="edge">
<title>OauthProviderModule&#45;&gt;OauthProviderApiModule</title>
<path fill="none" stroke="black" d="M439,-122.11C439,-141.34 439,-169 439,-169 439,-169 795.35,-169 795.35,-169"/>
<polygon fill="black" stroke="black" points="795.35,-172.5 805.35,-169 795.35,-165.5 795.35,-172.5"/>
</g>
<!-- OauthProviderServiceModule -->
<g id="node4" class="node">
<title>OauthProviderServiceModule</title>
<polygon fill="#8dd3c7" stroke="black" points="349.95,-122 346.95,-126 325.95,-126 322.95,-122 166.05,-122 166.05,-86 349.95,-86 349.95,-122"/>
<text text-anchor="middle" x="258" y="-99.8" font-family="Times,serif" font-size="14.00">OauthProviderServiceModule</text>
</g>
<!-- OauthProviderServiceModule&#45;&gt;OauthProviderApiModule -->
<g id="edge4" class="edge">
<title>OauthProviderServiceModule&#45;&gt;OauthProviderApiModule</title>
<path fill="none" stroke="black" d="M258,-122.28C258,-143.32 258,-175 258,-175 258,-175 795.41,-175 795.41,-175"/>
<polygon fill="black" stroke="black" points="795.41,-178.5 805.41,-175 795.41,-171.5 795.41,-178.5"/>
</g>
<!-- PseudonymModule -->
<g id="node5" class="node">
<title>PseudonymModule</title>
<polygon fill="#8dd3c7" stroke="black" points="148.38,-122 145.38,-126 124.38,-126 121.38,-122 23.62,-122 23.62,-86 148.38,-86 148.38,-122"/>
<text text-anchor="middle" x="86" y="-99.8" font-family="Times,serif" font-size="14.00">PseudonymModule</text>
</g>
<!-- PseudonymModule&#45;&gt;OauthProviderApiModule -->
<g id="edge5" class="edge">
<title>PseudonymModule&#45;&gt;OauthProviderApiModule</title>
<path fill="none" stroke="black" d="M86,-122.09C86,-145.13 86,-182 86,-182 86,-182 795.42,-182 795.42,-182"/>
<polygon fill="black" stroke="black" points="795.42,-185.5 805.42,-182 795.42,-178.5 795.42,-185.5"/>
</g>
<!-- OauthProviderClientCrudUc -->
<g id="node7" class="node">
<title>OauthProviderClientCrudUc</title>
<ellipse fill="#fdb462" stroke="black" cx="2208" cy="-104" rx="122.13" ry="18"/>
<text text-anchor="middle" x="2208" y="-99.8" font-family="Times,serif" font-size="14.00">OauthProviderClientCrudUc</text>
</g>
<!-- OauthProviderClientCrudUc&#45;&gt;OauthProviderApiModule -->
<g id="edge6" class="edge">
<title>OauthProviderClientCrudUc&#45;&gt;OauthProviderApiModule</title>
<path fill="none" stroke="black" d="M2208,-122.09C2208,-145.13 2208,-182 2208,-182 2208,-182 978.64,-182 978.64,-182"/>
<polygon fill="black" stroke="black" points="978.64,-178.5 968.64,-182 978.64,-185.5 978.64,-178.5"/>
</g>
<!-- OauthProviderConsentFlowUc -->
<g id="node8" class="node">
<title>OauthProviderConsentFlowUc</title>
<ellipse fill="#fdb462" stroke="black" cx="1937" cy="-104" rx="130.8" ry="18"/>
<text text-anchor="middle" x="1937" y="-99.8" font-family="Times,serif" font-size="14.00">OauthProviderConsentFlowUc</text>
</g>
<!-- OauthProviderConsentFlowUc&#45;&gt;OauthProviderApiModule -->
<g id="edge7" class="edge">
<title>OauthProviderConsentFlowUc&#45;&gt;OauthProviderApiModule</title>
<path fill="none" stroke="black" d="M1937,-122.28C1937,-143.32 1937,-175 1937,-175 1937,-175 978.52,-175 978.52,-175"/>
<polygon fill="black" stroke="black" points="978.52,-171.5 968.52,-175 978.52,-178.5 978.52,-171.5"/>
</g>
<!-- OauthProviderLoginFlowUc -->
<g id="node9" class="node">
<title>OauthProviderLoginFlowUc</title>
<ellipse fill="#fdb462" stroke="black" cx="1666" cy="-104" rx="122.13" ry="18"/>
<text text-anchor="middle" x="1666" y="-99.8" font-family="Times,serif" font-size="14.00">OauthProviderLoginFlowUc</text>
</g>
<!-- OauthProviderLoginFlowUc&#45;&gt;OauthProviderApiModule -->
<g id="edge8" class="edge">
<title>OauthProviderLoginFlowUc&#45;&gt;OauthProviderApiModule</title>
<path fill="none" stroke="black" d="M1666,-122.11C1666,-141.34 1666,-169 1666,-169 1666,-169 978.53,-169 978.53,-169"/>
<polygon fill="black" stroke="black" points="978.53,-165.5 968.53,-169 978.53,-172.5 978.53,-165.5"/>
</g>
<!-- OauthProviderLogoutFlowUc -->
<g id="node10" class="node">
<title>OauthProviderLogoutFlowUc</title>
<ellipse fill="#fdb462" stroke="black" cx="1399" cy="-104" rx="126.79" ry="18"/>
<text text-anchor="middle" x="1399" y="-99.8" font-family="Times,serif" font-size="14.00">OauthProviderLogoutFlowUc</text>
</g>
<!-- OauthProviderLogoutFlowUc&#45;&gt;OauthProviderApiModule -->
<g id="edge9" class="edge">
<title>OauthProviderLogoutFlowUc&#45;&gt;OauthProviderApiModule</title>
<path fill="none" stroke="black" d="M1399,-122.02C1399,-139.37 1399,-163 1399,-163 1399,-163 978.69,-163 978.69,-163"/>
<polygon fill="black" stroke="black" points="978.69,-159.5 968.69,-163 978.69,-166.5 978.69,-159.5"/>
</g>
<!-- OauthProviderResponseMapper -->
<g id="node11" class="node">
<title>OauthProviderResponseMapper</title>
<ellipse fill="#fdb462" stroke="black" cx="1119" cy="-104" rx="134.86" ry="18"/>
<text text-anchor="middle" x="1119" y="-99.8" font-family="Times,serif" font-size="14.00">OauthProviderResponseMapper</text>
</g>
<!-- OauthProviderResponseMapper&#45;&gt;OauthProviderApiModule -->
<g id="edge10" class="edge">
<title>OauthProviderResponseMapper&#45;&gt;OauthProviderApiModule</title>
<path fill="none" stroke="black" d="M1119,-122.24C1119,-137.57 1119,-157 1119,-157 1119,-157 978.47,-157 978.47,-157"/>
<polygon fill="black" stroke="black" points="978.47,-153.5 968.47,-157 978.47,-160.5 978.47,-153.5"/>
</g>
<!-- OauthProviderUc -->
<g id="node12" class="node">
<title>OauthProviderUc</title>
<ellipse fill="#fdb462" stroke="black" cx="887" cy="-104" rx="79.29" ry="18"/>
<text text-anchor="middle" x="887" y="-99.8" font-family="Times,serif" font-size="14.00">OauthProviderUc</text>
</g>
<!-- OauthProviderUc&#45;&gt;OauthProviderApiModule -->
<g id="edge11" class="edge">
<title>OauthProviderUc&#45;&gt;OauthProviderApiModule</title>
<path fill="none" stroke="black" d="M887,-122.11C887,-122.11 887,-140.99 887,-140.99"/>
<polygon fill="black" stroke="black" points="883.5,-140.99 887,-150.99 890.5,-140.99 883.5,-140.99"/>
</g>
</g>
</svg>
