<?xml version="1.0" encoding="UTF-8" standalone="no"?>
<!DOCTYPE svg PUBLIC "-//W3C//DTD SVG 1.1//EN"
 "http://www.w3.org/Graphics/SVG/1.1/DTD/svg11.dtd">
<!-- Generated by graphviz version 2.47.0 (20210316.0004)
 -->
<!-- Title: dependencies Pages: 1 -->
<svg width="2466pt" height="211pt"
 viewBox="0.00 0.00 2466.00 211.00" xmlns="http://www.w3.org/2000/svg" xmlns:xlink="http://www.w3.org/1999/xlink">
<g id="graph0" class="graph" transform="scale(1 1) rotate(0) translate(4 207)">
<title>dependencies</title>
<polygon fill="white" stroke="transparent" points="-4,4 -4,-207 2462,-207 2462,4 -4,4"/>
<text text-anchor="start" x="1208.01" y="-42.4" font-family="Times-12" font-weight="bold" font-size="14.00">Legend</text>
<polygon fill="#ffffb3" stroke="transparent" points="995,-10 995,-30 1015,-30 1015,-10 995,-10"/>
<text text-anchor="start" x="1018.63" y="-15.4" font-family="Times-12" font-size="14.00"> &#160;Declarations</text>
<polygon fill="#8dd3c7" stroke="transparent" points="1108,-10 1108,-30 1128,-30 1128,-10 1108,-10"/>
<text text-anchor="start" x="1131.73" y="-15.4" font-family="Times-12" font-size="14.00"> &#160;Module</text>
<polygon fill="#80b1d3" stroke="transparent" points="1194,-10 1194,-30 1214,-30 1214,-10 1194,-10"/>
<text text-anchor="start" x="1217.78" y="-15.4" font-family="Times-12" font-size="14.00"> &#160;Bootstrap</text>
<polygon fill="#fdb462" stroke="transparent" points="1291,-10 1291,-30 1311,-30 1311,-10 1291,-10"/>
<text text-anchor="start" x="1314.67" y="-15.4" font-family="Times-12" font-size="14.00"> &#160;Providers</text>
<polygon fill="#fb8072" stroke="transparent" points="1387,-10 1387,-30 1407,-30 1407,-10 1387,-10"/>
<text text-anchor="start" x="1410.73" y="-15.4" font-family="Times-12" font-size="14.00"> &#160;Exports</text>
<g id="clust1" class="cluster">
<title>cluster_OauthProviderApiModule</title>
<polygon fill="none" stroke="black" stroke-dasharray="1,5" points="8,-70 8,-195 2450,-195 2450,-70 8,-70"/>
</g>
<g id="clust6" class="cluster">
<title>cluster_OauthProviderApiModule_providers</title>
<polygon fill="none" stroke="black" points="904,-78 904,-130 2442,-130 2442,-78 904,-78"/>
</g>
<g id="clust3" class="cluster">
<title>cluster_OauthProviderApiModule_imports</title>
<polygon fill="none" stroke="black" points="16,-78 16,-130 896,-130 896,-78 16,-78"/>
</g>
<!-- AuthorizationModule -->
<g id="node1" class="node">
<title>AuthorizationModule</title>
<polygon fill="#8dd3c7" stroke="black" points="887.81,-122 884.81,-126 863.81,-126 860.81,-122 750.19,-122 750.19,-86 887.81,-86 887.81,-122"/>
<text text-anchor="middle" x="819" y="-99.8" font-family="Times,serif" font-size="14.00">AuthorizationModule</text>
</g>
<!-- OauthProviderApiModule -->
<g id="node7" class="node">
<title>OauthProviderApiModule</title>
<polygon fill="#8dd3c7" stroke="black" points="986.47,-187 983.47,-191 962.47,-191 959.47,-187 823.53,-187 823.53,-151 986.47,-151 986.47,-187"/>
<text text-anchor="middle" x="905" y="-164.8" font-family="Times,serif" font-size="14.00">OauthProviderApiModule</text>
</g>
<!-- AuthorizationModule&#45;&gt;OauthProviderApiModule -->
<g id="edge1" class="edge">
<title>AuthorizationModule&#45;&gt;OauthProviderApiModule</title>
<path fill="none" stroke="black" d="M855.59,-122.11C855.59,-122.11 855.59,-140.99 855.59,-140.99"/>
<polygon fill="black" stroke="black" points="852.09,-140.99 855.59,-150.99 859.09,-140.99 852.09,-140.99"/>
</g>
<!-- LoggerModule -->
<g id="node2" class="node">
<title>LoggerModule</title>
<polygon fill="#8dd3c7" stroke="black" points="731.98,-122 728.98,-126 707.98,-126 704.98,-122 632.02,-122 632.02,-86 731.98,-86 731.98,-122"/>
<text text-anchor="middle" x="682" y="-99.8" font-family="Times,serif" font-size="14.00">LoggerModule</text>
</g>
<!-- LoggerModule&#45;&gt;OauthProviderApiModule -->
<g id="edge2" class="edge">
<title>LoggerModule&#45;&gt;OauthProviderApiModule</title>
<path fill="none" stroke="black" d="M682,-122.24C682,-137.57 682,-157 682,-157 682,-157 813.23,-157 813.23,-157"/>
<polygon fill="black" stroke="black" points="813.23,-160.5 823.23,-157 813.23,-153.5 813.23,-160.5"/>
</g>
<!-- OauthProviderModule -->
<g id="node3" class="node">
<title>OauthProviderModule</title>
<polygon fill="#8dd3c7" stroke="black" points="613.97,-122 610.97,-126 589.97,-126 586.97,-122 472.03,-122 472.03,-86 613.97,-86 613.97,-122"/>
<text text-anchor="middle" x="543" y="-99.8" font-family="Times,serif" font-size="14.00">OauthProviderModule</text>
</g>
<!-- OauthProviderModule&#45;&gt;OauthProviderApiModule -->
<g id="edge3" class="edge">
<title>OauthProviderModule&#45;&gt;OauthProviderApiModule</title>
<path fill="none" stroke="black" d="M543,-122.02C543,-139.37 543,-163 543,-163 543,-163 813.31,-163 813.31,-163"/>
<polygon fill="black" stroke="black" points="813.31,-166.5 823.31,-163 813.31,-159.5 813.31,-166.5"/>
</g>
<!-- OauthProviderServiceModule -->
<g id="node4" class="node">
<title>OauthProviderServiceModule</title>
<polygon fill="#8dd3c7" stroke="black" points="453.95,-122 450.95,-126 429.95,-126 426.95,-122 270.05,-122 270.05,-86 453.95,-86 453.95,-122"/>
<text text-anchor="middle" x="362" y="-99.8" font-family="Times,serif" font-size="14.00">OauthProviderServiceModule</text>
</g>
<!-- OauthProviderServiceModule&#45;&gt;OauthProviderApiModule -->
<g id="edge4" class="edge">
<title>OauthProviderServiceModule&#45;&gt;OauthProviderApiModule</title>
<path fill="none" stroke="black" d="M362,-122.11C362,-141.34 362,-169 362,-169 362,-169 813.41,-169 813.41,-169"/>
<polygon fill="black" stroke="black" points="813.41,-172.5 823.41,-169 813.41,-165.5 813.41,-172.5"/>
</g>
<!-- PseudonymModule -->
<g id="node5" class="node">
<title>PseudonymModule</title>
<polygon fill="#8dd3c7" stroke="black" points="252.38,-122 249.38,-126 228.38,-126 225.38,-122 127.62,-122 127.62,-86 252.38,-86 252.38,-122"/>
<text text-anchor="middle" x="190" y="-99.8" font-family="Times,serif" font-size="14.00">PseudonymModule</text>
</g>
<!-- PseudonymModule&#45;&gt;OauthProviderApiModule -->
<g id="edge5" class="edge">
<title>PseudonymModule&#45;&gt;OauthProviderApiModule</title>
<path fill="none" stroke="black" d="M190,-122.28C190,-143.32 190,-175 190,-175 190,-175 813.33,-175 813.33,-175"/>
<polygon fill="black" stroke="black" points="813.33,-178.5 823.33,-175 813.33,-171.5 813.33,-178.5"/>
</g>
<!-- UserModule -->
<g id="node6" class="node">
<title>UserModule</title>
<polygon fill="#8dd3c7" stroke="black" points="109.98,-122 106.98,-126 85.98,-126 82.98,-122 24.02,-122 24.02,-86 109.98,-86 109.98,-122"/>
<text text-anchor="middle" x="67" y="-99.8" font-family="Times,serif" font-size="14.00">UserModule</text>
</g>
<!-- UserModule&#45;&gt;OauthProviderApiModule -->
<g id="edge6" class="edge">
<title>UserModule&#45;&gt;OauthProviderApiModule</title>
<path fill="none" stroke="black" d="M67,-122.09C67,-145.13 67,-182 67,-182 67,-182 813.51,-182 813.51,-182"/>
<polygon fill="black" stroke="black" points="813.51,-185.5 823.51,-182 813.51,-178.5 813.51,-185.5"/>
</g>
<!-- OauthProviderClientCrudUc -->
<g id="node8" class="node">
<title>OauthProviderClientCrudUc</title>
<ellipse fill="#fdb462" stroke="black" cx="2312" cy="-104" rx="122.13" ry="18"/>
<text text-anchor="middle" x="2312" y="-99.8" font-family="Times,serif" font-size="14.00">OauthProviderClientCrudUc</text>
</g>
<!-- OauthProviderClientCrudUc&#45;&gt;OauthProviderApiModule -->
<g id="edge7" class="edge">
<title>OauthProviderClientCrudUc&#45;&gt;OauthProviderApiModule</title>
<path fill="none" stroke="black" d="M2312,-122.09C2312,-145.13 2312,-182 2312,-182 2312,-182 996.47,-182 996.47,-182"/>
<polygon fill="black" stroke="black" points="996.47,-178.5 986.47,-182 996.47,-185.5 996.47,-178.5"/>
</g>
<!-- OauthProviderConsentFlowUc -->
<g id="node9" class="node">
<title>OauthProviderConsentFlowUc</title>
<ellipse fill="#fdb462" stroke="black" cx="2041" cy="-104" rx="130.8" ry="18"/>
<text text-anchor="middle" x="2041" y="-99.8" font-family="Times,serif" font-size="14.00">OauthProviderConsentFlowUc</text>
</g>
<!-- OauthProviderConsentFlowUc&#45;&gt;OauthProviderApiModule -->
<g id="edge8" class="edge">
<title>OauthProviderConsentFlowUc&#45;&gt;OauthProviderApiModule</title>
<path fill="none" stroke="black" d="M2041,-122.28C2041,-143.32 2041,-175 2041,-175 2041,-175 996.7,-175 996.7,-175"/>
<polygon fill="black" stroke="black" points="996.7,-171.5 986.7,-175 996.7,-178.5 996.7,-171.5"/>
</g>
<!-- OauthProviderLoginFlowUc -->
<g id="node10" class="node">
<title>OauthProviderLoginFlowUc</title>
<ellipse fill="#fdb462" stroke="black" cx="1770" cy="-104" rx="122.13" ry="18"/>
<text text-anchor="middle" x="1770" y="-99.8" font-family="Times,serif" font-size="14.00">OauthProviderLoginFlowUc</text>
</g>
<!-- OauthProviderLoginFlowUc&#45;&gt;OauthProviderApiModule -->
<g id="edge9" class="edge">
<title>OauthProviderLoginFlowUc&#45;&gt;OauthProviderApiModule</title>
<path fill="none" stroke="black" d="M1770,-122.11C1770,-141.34 1770,-169 1770,-169 1770,-169 996.77,-169 996.77,-169"/>
<polygon fill="black" stroke="black" points="996.77,-165.5 986.77,-169 996.77,-172.5 996.77,-165.5"/>
</g>
<!-- OauthProviderLogoutFlowUc -->
<g id="node11" class="node">
<title>OauthProviderLogoutFlowUc</title>
<ellipse fill="#fdb462" stroke="black" cx="1503" cy="-104" rx="126.79" ry="18"/>
<text text-anchor="middle" x="1503" y="-99.8" font-family="Times,serif" font-size="14.00">OauthProviderLogoutFlowUc</text>
</g>
<!-- OauthProviderLogoutFlowUc&#45;&gt;OauthProviderApiModule -->
<g id="edge10" class="edge">
<title>OauthProviderLogoutFlowUc&#45;&gt;OauthProviderApiModule</title>
<path fill="none" stroke="black" d="M1503,-122.02C1503,-139.37 1503,-163 1503,-163 1503,-163 996.58,-163 996.58,-163"/>
<polygon fill="black" stroke="black" points="996.58,-159.5 986.58,-163 996.58,-166.5 996.58,-159.5"/>
</g>
<!-- OauthProviderResponseMapper -->
<g id="node12" class="node">
<title>OauthProviderResponseMapper</title>
<ellipse fill="#fdb462" stroke="black" cx="1223" cy="-104" rx="134.86" ry="18"/>
<text text-anchor="middle" x="1223" y="-99.8" font-family="Times,serif" font-size="14.00">OauthProviderResponseMapper</text>
</g>
<!-- OauthProviderResponseMapper&#45;&gt;OauthProviderApiModule -->
<g id="edge11" class="edge">
<title>OauthProviderResponseMapper&#45;&gt;OauthProviderApiModule</title>
<path fill="none" stroke="black" d="M1223,-122.24C1223,-137.57 1223,-157 1223,-157 1223,-157 996.48,-157 996.48,-157"/>
<polygon fill="black" stroke="black" points="996.48,-153.5 986.48,-157 996.48,-160.5 996.48,-153.5"/>
</g>
<!-- OauthProviderUc -->
<g id="node13" class="node">
<title>OauthProviderUc</title>
<ellipse fill="#fdb462" stroke="black" cx="991" cy="-104" rx="79.29" ry="18"/>
<text text-anchor="middle" x="991" y="-99.8" font-family="Times,serif" font-size="14.00">OauthProviderUc</text>
</g>
<!-- OauthProviderUc&#45;&gt;OauthProviderApiModule -->
<g id="edge12" class="edge">
<title>OauthProviderUc&#45;&gt;OauthProviderApiModule</title>
<path fill="none" stroke="black" d="M949.17,-119.4C949.17,-119.4 949.17,-140.94 949.17,-140.94"/>
<polygon fill="black" stroke="black" points="945.67,-140.94 949.17,-150.94 952.67,-140.94 945.67,-140.94"/>
</g>
</g>
</svg>
