<?xml version="1.0" encoding="UTF-8" standalone="no"?>
<!DOCTYPE svg PUBLIC "-//W3C//DTD SVG 1.1//EN"
 "http://www.w3.org/Graphics/SVG/1.1/DTD/svg11.dtd">
<!-- Generated by graphviz version 2.47.0 (20210316.0004)
 -->
<!-- Title: dependencies Pages: 1 -->
<svg width="2362pt" height="211pt"
 viewBox="0.00 0.00 2362.00 211.00" xmlns="http://www.w3.org/2000/svg" xmlns:xlink="http://www.w3.org/1999/xlink">
<g id="graph0" class="graph" transform="scale(1 1) rotate(0) translate(4 207)">
<title>dependencies</title>
<polygon fill="white" stroke="transparent" points="-4,4 -4,-207 2358,-207 2358,4 -4,4"/>
<text text-anchor="start" x="1156.01" y="-42.4" font-family="Times-12" font-weight="bold" font-size="14.00">Legend</text>
<polygon fill="#ffffb3" stroke="transparent" points="943,-10 943,-30 963,-30 963,-10 943,-10"/>
<text text-anchor="start" x="966.63" y="-15.4" font-family="Times-12" font-size="14.00"> &#160;Declarations</text>
<polygon fill="#8dd3c7" stroke="transparent" points="1056,-10 1056,-30 1076,-30 1076,-10 1056,-10"/>
<text text-anchor="start" x="1079.73" y="-15.4" font-family="Times-12" font-size="14.00"> &#160;Module</text>
<polygon fill="#80b1d3" stroke="transparent" points="1142,-10 1142,-30 1162,-30 1162,-10 1142,-10"/>
<text text-anchor="start" x="1165.78" y="-15.4" font-family="Times-12" font-size="14.00"> &#160;Bootstrap</text>
<polygon fill="#fdb462" stroke="transparent" points="1239,-10 1239,-30 1259,-30 1259,-10 1239,-10"/>
<text text-anchor="start" x="1262.67" y="-15.4" font-family="Times-12" font-size="14.00"> &#160;Providers</text>
<polygon fill="#fb8072" stroke="transparent" points="1335,-10 1335,-30 1355,-30 1355,-10 1335,-10"/>
<text text-anchor="start" x="1358.73" y="-15.4" font-family="Times-12" font-size="14.00"> &#160;Exports</text>
<g id="clust1" class="cluster">
<title>cluster_OauthProviderApiModule</title>
<polygon fill="none" stroke="black" stroke-dasharray="1,5" points="8,-70 8,-195 2346,-195 2346,-70 8,-70"/>
</g>
<g id="clust3" class="cluster">
<title>cluster_OauthProviderApiModule_imports</title>
<polygon fill="none" stroke="black" points="1562,-78 1562,-130 2338,-130 2338,-78 1562,-78"/>
</g>
<g id="clust6" class="cluster">
<title>cluster_OauthProviderApiModule_providers</title>
<polygon fill="none" stroke="black" points="16,-78 16,-130 1554,-130 1554,-78 16,-78"/>
</g>
<!-- AuthorizationModule -->
<g id="node1" class="node">
<title>AuthorizationModule</title>
<polygon fill="#8dd3c7" stroke="black" points="2329.81,-122 2326.81,-126 2305.81,-126 2302.81,-122 2192.19,-122 2192.19,-86 2329.81,-86 2329.81,-122"/>
<text text-anchor="middle" x="2261" y="-99.8" font-family="Times,serif" font-size="14.00">AuthorizationModule</text>
</g>
<!-- OauthProviderApiModule -->
<g id="node6" class="node">
<title>OauthProviderApiModule</title>
<polygon fill="#8dd3c7" stroke="black" points="1505.47,-187 1502.47,-191 1481.47,-191 1478.47,-187 1342.53,-187 1342.53,-151 1505.47,-151 1505.47,-187"/>
<text text-anchor="middle" x="1424" y="-164.8" font-family="Times,serif" font-size="14.00">OauthProviderApiModule</text>
</g>
<!-- AuthorizationModule&#45;&gt;OauthProviderApiModule -->
<g id="edge1" class="edge">
<title>AuthorizationModule&#45;&gt;OauthProviderApiModule</title>
<path fill="none" stroke="black" d="M2261,-122.09C2261,-145.13 2261,-182 2261,-182 2261,-182 1515.78,-182 1515.78,-182"/>
<polygon fill="black" stroke="black" points="1515.78,-178.5 1505.78,-182 1515.78,-185.5 1515.78,-178.5"/>
</g>
<!-- LoggerModule -->
<g id="node2" class="node">
<title>LoggerModule</title>
<polygon fill="#8dd3c7" stroke="black" points="2173.98,-122 2170.98,-126 2149.98,-126 2146.98,-122 2074.02,-122 2074.02,-86 2173.98,-86 2173.98,-122"/>
<text text-anchor="middle" x="2124" y="-99.8" font-family="Times,serif" font-size="14.00">LoggerModule</text>
</g>
<!-- LoggerModule&#45;&gt;OauthProviderApiModule -->
<g id="edge2" class="edge">
<title>LoggerModule&#45;&gt;OauthProviderApiModule</title>
<path fill="none" stroke="black" d="M2124,-122.28C2124,-143.32 2124,-175 2124,-175 2124,-175 1515.67,-175 1515.67,-175"/>
<polygon fill="black" stroke="black" points="1515.67,-171.5 1505.67,-175 1515.67,-178.5 1515.67,-171.5"/>
</g>
<!-- OauthProviderModule -->
<g id="node3" class="node">
<title>OauthProviderModule</title>
<polygon fill="#8dd3c7" stroke="black" points="2055.97,-122 2052.97,-126 2031.97,-126 2028.97,-122 1914.03,-122 1914.03,-86 2055.97,-86 2055.97,-122"/>
<text text-anchor="middle" x="1985" y="-99.8" font-family="Times,serif" font-size="14.00">OauthProviderModule</text>
</g>
<!-- OauthProviderModule&#45;&gt;OauthProviderApiModule -->
<g id="edge3" class="edge">
<title>OauthProviderModule&#45;&gt;OauthProviderApiModule</title>
<path fill="none" stroke="black" d="M1985,-122.11C1985,-141.34 1985,-169 1985,-169 1985,-169 1515.57,-169 1515.57,-169"/>
<polygon fill="black" stroke="black" points="1515.57,-165.5 1505.57,-169 1515.57,-172.5 1515.57,-165.5"/>
</g>
<!-- OauthProviderServiceModule -->
<g id="node4" class="node">
<title>OauthProviderServiceModule</title>
<polygon fill="#8dd3c7" stroke="black" points="1895.95,-122 1892.95,-126 1871.95,-126 1868.95,-122 1712.05,-122 1712.05,-86 1895.95,-86 1895.95,-122"/>
<text text-anchor="middle" x="1804" y="-99.8" font-family="Times,serif" font-size="14.00">OauthProviderServiceModule</text>
</g>
<!-- OauthProviderServiceModule&#45;&gt;OauthProviderApiModule -->
<g id="edge4" class="edge">
<title>OauthProviderServiceModule&#45;&gt;OauthProviderApiModule</title>
<path fill="none" stroke="black" d="M1804,-122.02C1804,-139.37 1804,-163 1804,-163 1804,-163 1515.52,-163 1515.52,-163"/>
<polygon fill="black" stroke="black" points="1515.52,-159.5 1505.52,-163 1515.52,-166.5 1515.52,-159.5"/>
</g>
<!-- PseudonymModule -->
<g id="node5" class="node">
<title>PseudonymModule</title>
<polygon fill="#8dd3c7" stroke="black" points="1694.38,-122 1691.38,-126 1670.38,-126 1667.38,-122 1569.62,-122 1569.62,-86 1694.38,-86 1694.38,-122"/>
<text text-anchor="middle" x="1632" y="-99.8" font-family="Times,serif" font-size="14.00">PseudonymModule</text>
</g>
<!-- PseudonymModule&#45;&gt;OauthProviderApiModule -->
<g id="edge5" class="edge">
<title>PseudonymModule&#45;&gt;OauthProviderApiModule</title>
<path fill="none" stroke="black" d="M1632,-122.24C1632,-137.57 1632,-157 1632,-157 1632,-157 1515.61,-157 1515.61,-157"/>
<polygon fill="black" stroke="black" points="1515.61,-153.5 1505.61,-157 1515.61,-160.5 1515.61,-153.5"/>
</g>
<!-- OauthProviderClientCrudUc -->
<g id="node7" class="node">
<title>OauthProviderClientCrudUc</title>
<ellipse fill="#fdb462" stroke="black" cx="1424" cy="-104" rx="122.13" ry="18"/>
<text text-anchor="middle" x="1424" y="-99.8" font-family="Times,serif" font-size="14.00">OauthProviderClientCrudUc</text>
</g>
<!-- OauthProviderClientCrudUc&#45;&gt;OauthProviderApiModule -->
<g id="edge6" class="edge">
<title>OauthProviderClientCrudUc&#45;&gt;OauthProviderApiModule</title>
<path fill="none" stroke="black" d="M1424,-122.11C1424,-122.11 1424,-140.99 1424,-140.99"/>
<polygon fill="black" stroke="black" points="1420.5,-140.99 1424,-150.99 1427.5,-140.99 1420.5,-140.99"/>
</g>
<!-- OauthProviderConsentFlowUc -->
<g id="node8" class="node">
<title>OauthProviderConsentFlowUc</title>
<ellipse fill="#fdb462" stroke="black" cx="1153" cy="-104" rx="130.8" ry="18"/>
<text text-anchor="middle" x="1153" y="-99.8" font-family="Times,serif" font-size="14.00">OauthProviderConsentFlowUc</text>
</g>
<!-- OauthProviderConsentFlowUc&#45;&gt;OauthProviderApiModule -->
<g id="edge7" class="edge">
<title>OauthProviderConsentFlowUc&#45;&gt;OauthProviderApiModule</title>
<path fill="none" stroke="black" d="M1153,-122.24C1153,-137.57 1153,-157 1153,-157 1153,-157 1332.32,-157 1332.32,-157"/>
<polygon fill="black" stroke="black" points="1332.32,-160.5 1342.32,-157 1332.32,-153.5 1332.32,-160.5"/>
</g>
<!-- OauthProviderLoginFlowUc -->
<g id="node9" class="node">
<title>OauthProviderLoginFlowUc</title>
<ellipse fill="#fdb462" stroke="black" cx="882" cy="-104" rx="122.13" ry="18"/>
<text text-anchor="middle" x="882" y="-99.8" font-family="Times,serif" font-size="14.00">OauthProviderLoginFlowUc</text>
</g>
<!-- OauthProviderLoginFlowUc&#45;&gt;OauthProviderApiModule -->
<g id="edge8" class="edge">
<title>OauthProviderLoginFlowUc&#45;&gt;OauthProviderApiModule</title>
<path fill="none" stroke="black" d="M882,-122.02C882,-139.37 882,-163 882,-163 882,-163 1332.27,-163 1332.27,-163"/>
<polygon fill="black" stroke="black" points="1332.27,-166.5 1342.27,-163 1332.27,-159.5 1332.27,-166.5"/>
</g>
<!-- OauthProviderLogoutFlowUc -->
<g id="node10" class="node">
<title>OauthProviderLogoutFlowUc</title>
<ellipse fill="#fdb462" stroke="black" cx="615" cy="-104" rx="126.79" ry="18"/>
<text text-anchor="middle" x="615" y="-99.8" font-family="Times,serif" font-size="14.00">OauthProviderLogoutFlowUc</text>
</g>
<!-- OauthProviderLogoutFlowUc&#45;&gt;OauthProviderApiModule -->
<g id="edge9" class="edge">
<title>OauthProviderLogoutFlowUc&#45;&gt;OauthProviderApiModule</title>
<path fill="none" stroke="black" d="M615,-122.11C615,-141.34 615,-169 615,-169 615,-169 1332.35,-169 1332.35,-169"/>
<polygon fill="black" stroke="black" points="1332.35,-172.5 1342.35,-169 1332.35,-165.5 1332.35,-172.5"/>
</g>
<!-- OauthProviderResponseMapper -->
<g id="node11" class="node">
<title>OauthProviderResponseMapper</title>
<ellipse fill="#fdb462" stroke="black" cx="335" cy="-104" rx="134.86" ry="18"/>
<text text-anchor="middle" x="335" y="-99.8" font-family="Times,serif" font-size="14.00">OauthProviderResponseMapper</text>
</g>
<!-- OauthProviderResponseMapper&#45;&gt;OauthProviderApiModule -->
<g id="edge10" class="edge">
<title>OauthProviderResponseMapper&#45;&gt;OauthProviderApiModule</title>
<path fill="none" stroke="black" d="M335,-122.28C335,-143.32 335,-175 335,-175 335,-175 1332.15,-175 1332.15,-175"/>
<polygon fill="black" stroke="black" points="1332.15,-178.5 1342.15,-175 1332.15,-171.5 1332.15,-178.5"/>
</g>
<!-- OauthProviderUc -->
<g id="node12" class="node">
<title>OauthProviderUc</title>
<ellipse fill="#fdb462" stroke="black" cx="103" cy="-104" rx="79.29" ry="18"/>
<text text-anchor="middle" x="103" y="-99.8" font-family="Times,serif" font-size="14.00">OauthProviderUc</text>
</g>
<!-- OauthProviderUc&#45;&gt;OauthProviderApiModule -->
<g id="edge11" class="edge">
<title>OauthProviderUc&#45;&gt;OauthProviderApiModule</title>
<path fill="none" stroke="black" d="M103,-122.09C103,-145.13 103,-182 103,-182 103,-182 1332.36,-182 1332.36,-182"/>
<polygon fill="black" stroke="black" points="1332.36,-185.5 1342.36,-182 1332.36,-178.5 1332.36,-185.5"/>
</g>
</g>
</svg>
