<?xml version="1.0" encoding="UTF-8" standalone="no"?>
<!DOCTYPE svg PUBLIC "-//W3C//DTD SVG 1.1//EN"
 "http://www.w3.org/Graphics/SVG/1.1/DTD/svg11.dtd">
<!-- Generated by graphviz version 2.47.0 (20210316.0004)
 -->
<!-- Title: dependencies Pages: 1 -->
<svg width="2238pt" height="211pt"
 viewBox="0.00 0.00 2238.00 211.00" xmlns="http://www.w3.org/2000/svg" xmlns:xlink="http://www.w3.org/1999/xlink">
<g id="graph0" class="graph" transform="scale(1 1) rotate(0) translate(4 207)">
<title>dependencies</title>
<polygon fill="white" stroke="transparent" points="-4,4 -4,-207 2234,-207 2234,4 -4,4"/>
<text text-anchor="start" x="1094.01" y="-42.4" font-family="Times-12" font-weight="bold" font-size="14.00">Legend</text>
<polygon fill="#ffffb3" stroke="transparent" points="881,-10 881,-30 901,-30 901,-10 881,-10"/>
<text text-anchor="start" x="904.63" y="-15.4" font-family="Times-12" font-size="14.00"> &#160;Declarations</text>
<polygon fill="#8dd3c7" stroke="transparent" points="994,-10 994,-30 1014,-30 1014,-10 994,-10"/>
<text text-anchor="start" x="1017.73" y="-15.4" font-family="Times-12" font-size="14.00"> &#160;Module</text>
<polygon fill="#80b1d3" stroke="transparent" points="1080,-10 1080,-30 1100,-30 1100,-10 1080,-10"/>
<text text-anchor="start" x="1103.78" y="-15.4" font-family="Times-12" font-size="14.00"> &#160;Bootstrap</text>
<polygon fill="#fdb462" stroke="transparent" points="1177,-10 1177,-30 1197,-30 1197,-10 1177,-10"/>
<text text-anchor="start" x="1200.67" y="-15.4" font-family="Times-12" font-size="14.00"> &#160;Providers</text>
<polygon fill="#fb8072" stroke="transparent" points="1273,-10 1273,-30 1293,-30 1293,-10 1273,-10"/>
<text text-anchor="start" x="1296.73" y="-15.4" font-family="Times-12" font-size="14.00"> &#160;Exports</text>
<g id="clust1" class="cluster">
<title>cluster_OauthProviderApiModule</title>
<polygon fill="none" stroke="black" stroke-dasharray="1,5" points="8,-70 8,-195 2222,-195 2222,-70 8,-70"/>
</g>
<g id="clust6" class="cluster">
<title>cluster_OauthProviderApiModule_providers</title>
<polygon fill="none" stroke="black" points="904,-78 904,-130 2214,-130 2214,-78 904,-78"/>
</g>
<g id="clust3" class="cluster">
<title>cluster_OauthProviderApiModule_imports</title>
<polygon fill="none" stroke="black" points="16,-78 16,-130 896,-130 896,-78 16,-78"/>
</g>
<!-- AuthorizationModule -->
<g id="node1" class="node">
<title>AuthorizationModule</title>
<polygon fill="#8dd3c7" stroke="black" points="887.81,-122 884.81,-126 863.81,-126 860.81,-122 750.19,-122 750.19,-86 887.81,-86 887.81,-122"/>
<text text-anchor="middle" x="819" y="-99.8" font-family="Times,serif" font-size="14.00">AuthorizationModule</text>
</g>
<!-- OauthProviderApiModule -->
<g id="node7" class="node">
<title>OauthProviderApiModule</title>
<polygon fill="#8dd3c7" stroke="black" points="900.47,-187 897.47,-191 876.47,-191 873.47,-187 737.53,-187 737.53,-151 900.47,-151 900.47,-187"/>
<text text-anchor="middle" x="819" y="-164.8" font-family="Times,serif" font-size="14.00">OauthProviderApiModule</text>
</g>
<!-- AuthorizationModule&#45;&gt;OauthProviderApiModule -->
<g id="edge1" class="edge">
<title>AuthorizationModule&#45;&gt;OauthProviderApiModule</title>
<path fill="none" stroke="black" d="M819,-122.11C819,-122.11 819,-140.99 819,-140.99"/>
<polygon fill="black" stroke="black" points="815.5,-140.99 819,-150.99 822.5,-140.99 815.5,-140.99"/>
</g>
<!-- LoggerModule -->
<g id="node2" class="node">
<title>LoggerModule</title>
<polygon fill="#8dd3c7" stroke="black" points="731.98,-122 728.98,-126 707.98,-126 704.98,-122 632.02,-122 632.02,-86 731.98,-86 731.98,-122"/>
<text text-anchor="middle" x="682" y="-99.8" font-family="Times,serif" font-size="14.00">LoggerModule</text>
</g>
<!-- LoggerModule&#45;&gt;OauthProviderApiModule -->
<g id="edge2" class="edge">
<title>LoggerModule&#45;&gt;OauthProviderApiModule</title>
<path fill="none" stroke="black" d="M731.99,-104C739.03,-104 743.93,-104 743.93,-104 743.93,-104 743.93,-140.89 743.93,-140.89"/>
<polygon fill="black" stroke="black" points="740.43,-140.89 743.93,-150.89 747.43,-140.89 740.43,-140.89"/>
</g>
<!-- OauthProviderModule -->
<g id="node3" class="node">
<title>OauthProviderModule</title>
<polygon fill="#8dd3c7" stroke="black" points="613.97,-122 610.97,-126 589.97,-126 586.97,-122 472.03,-122 472.03,-86 613.97,-86 613.97,-122"/>
<text text-anchor="middle" x="543" y="-99.8" font-family="Times,serif" font-size="14.00">OauthProviderModule</text>
</g>
<!-- OauthProviderModule&#45;&gt;OauthProviderApiModule -->
<g id="edge3" class="edge">
<title>OauthProviderModule&#45;&gt;OauthProviderApiModule</title>
<path fill="none" stroke="black" d="M543,-122.01C543,-138.05 543,-159 543,-159 543,-159 727.31,-159 727.31,-159"/>
<polygon fill="black" stroke="black" points="727.31,-162.5 737.31,-159 727.31,-155.5 727.31,-162.5"/>
</g>
<!-- OauthProviderServiceModule -->
<g id="node4" class="node">
<title>OauthProviderServiceModule</title>
<polygon fill="#8dd3c7" stroke="black" points="453.95,-122 450.95,-126 429.95,-126 426.95,-122 270.05,-122 270.05,-86 453.95,-86 453.95,-122"/>
<text text-anchor="middle" x="362" y="-99.8" font-family="Times,serif" font-size="14.00">OauthProviderServiceModule</text>
</g>
<!-- OauthProviderServiceModule&#45;&gt;OauthProviderApiModule -->
<g id="edge4" class="edge">
<title>OauthProviderServiceModule&#45;&gt;OauthProviderApiModule</title>
<path fill="none" stroke="black" d="M362,-122.27C362,-140.56 362,-166 362,-166 362,-166 727.3,-166 727.3,-166"/>
<polygon fill="black" stroke="black" points="727.3,-169.5 737.3,-166 727.3,-162.5 727.3,-169.5"/>
</g>
<!-- PseudonymModule -->
<g id="node5" class="node">
<title>PseudonymModule</title>
<polygon fill="#8dd3c7" stroke="black" points="252.38,-122 249.38,-126 228.38,-126 225.38,-122 127.62,-122 127.62,-86 252.38,-86 252.38,-122"/>
<text text-anchor="middle" x="190" y="-99.8" font-family="Times,serif" font-size="14.00">PseudonymModule</text>
</g>
<!-- PseudonymModule&#45;&gt;OauthProviderApiModule -->
<g id="edge5" class="edge">
<title>PseudonymModule&#45;&gt;OauthProviderApiModule</title>
<path fill="none" stroke="black" d="M190,-122.13C190,-142.57 190,-173 190,-173 190,-173 727.41,-173 727.41,-173"/>
<polygon fill="black" stroke="black" points="727.41,-176.5 737.41,-173 727.41,-169.5 727.41,-176.5"/>
</g>
<!-- UserModule -->
<g id="node6" class="node">
<title>UserModule</title>
<polygon fill="#8dd3c7" stroke="black" points="109.98,-122 106.98,-126 85.98,-126 82.98,-122 24.02,-122 24.02,-86 109.98,-86 109.98,-122"/>
<text text-anchor="middle" x="67" y="-99.8" font-family="Times,serif" font-size="14.00">UserModule</text>
</g>
<!-- UserModule&#45;&gt;OauthProviderApiModule -->
<g id="edge6" class="edge">
<title>UserModule&#45;&gt;OauthProviderApiModule</title>
<path fill="none" stroke="black" d="M67,-122.01C67,-144.49 67,-180 67,-180 67,-180 727.45,-180 727.45,-180"/>
<polygon fill="black" stroke="black" points="727.45,-183.5 737.45,-180 727.45,-176.5 727.45,-183.5"/>
</g>
<!-- OauthProviderClientCrudUc -->
<g id="node8" class="node">
<title>OauthProviderClientCrudUc</title>
<ellipse fill="#fdb462" stroke="black" cx="2084" cy="-104" rx="122.13" ry="18"/>
<text text-anchor="middle" x="2084" y="-99.8" font-family="Times,serif" font-size="14.00">OauthProviderClientCrudUc</text>
</g>
<!-- OauthProviderClientCrudUc&#45;&gt;OauthProviderApiModule -->
<g id="edge7" class="edge">
<title>OauthProviderClientCrudUc&#45;&gt;OauthProviderApiModule</title>
<path fill="none" stroke="black" d="M2084,-122.01C2084,-144.49 2084,-180 2084,-180 2084,-180 910.54,-180 910.54,-180"/>
<polygon fill="black" stroke="black" points="910.54,-176.5 900.54,-180 910.54,-183.5 910.54,-176.5"/>
</g>
<!-- OauthProviderConsentFlowUc -->
<g id="node9" class="node">
<title>OauthProviderConsentFlowUc</title>
<ellipse fill="#fdb462" stroke="black" cx="1813" cy="-104" rx="130.8" ry="18"/>
<text text-anchor="middle" x="1813" y="-99.8" font-family="Times,serif" font-size="14.00">OauthProviderConsentFlowUc</text>
</g>
<!-- OauthProviderConsentFlowUc&#45;&gt;OauthProviderApiModule -->
<g id="edge8" class="edge">
<title>OauthProviderConsentFlowUc&#45;&gt;OauthProviderApiModule</title>
<path fill="none" stroke="black" d="M1813,-122.13C1813,-142.57 1813,-173 1813,-173 1813,-173 910.77,-173 910.77,-173"/>
<polygon fill="black" stroke="black" points="910.77,-169.5 900.77,-173 910.77,-176.5 910.77,-169.5"/>
</g>
<!-- OauthProviderLoginFlowUc -->
<g id="node10" class="node">
<title>OauthProviderLoginFlowUc</title>
<ellipse fill="#fdb462" stroke="black" cx="1542" cy="-104" rx="122.13" ry="18"/>
<text text-anchor="middle" x="1542" y="-99.8" font-family="Times,serif" font-size="14.00">OauthProviderLoginFlowUc</text>
</g>
<!-- OauthProviderLoginFlowUc&#45;&gt;OauthProviderApiModule -->
<g id="edge9" class="edge">
<title>OauthProviderLoginFlowUc&#45;&gt;OauthProviderApiModule</title>
<path fill="none" stroke="black" d="M1542,-122.27C1542,-140.56 1542,-166 1542,-166 1542,-166 910.53,-166 910.53,-166"/>
<polygon fill="black" stroke="black" points="910.53,-162.5 900.53,-166 910.53,-169.5 910.53,-162.5"/>
</g>
<!-- OauthProviderLogoutFlowUc -->
<g id="node11" class="node">
<title>OauthProviderLogoutFlowUc</title>
<ellipse fill="#fdb462" stroke="black" cx="1275" cy="-104" rx="126.79" ry="18"/>
<text text-anchor="middle" x="1275" y="-99.8" font-family="Times,serif" font-size="14.00">OauthProviderLogoutFlowUc</text>
</g>
<!-- OauthProviderLogoutFlowUc&#45;&gt;OauthProviderApiModule -->
<g id="edge10" class="edge">
<title>OauthProviderLogoutFlowUc&#45;&gt;OauthProviderApiModule</title>
<path fill="none" stroke="black" d="M1275,-122.01C1275,-138.05 1275,-159 1275,-159 1275,-159 910.52,-159 910.52,-159"/>
<polygon fill="black" stroke="black" points="910.52,-155.5 900.52,-159 910.52,-162.5 910.52,-155.5"/>
</g>
<!-- OauthProviderSessionUc -->
<g id="node12" class="node">
<title>OauthProviderSessionUc</title>
<ellipse fill="#fdb462" stroke="black" cx="1021" cy="-104" rx="108.81" ry="18"/>
<text text-anchor="middle" x="1021" y="-99.8" font-family="Times,serif" font-size="14.00">OauthProviderSessionUc</text>
</g>
<!-- OauthProviderSessionUc&#45;&gt;OauthProviderApiModule -->
<g id="edge11" class="edge">
<title>OauthProviderSessionUc&#45;&gt;OauthProviderApiModule</title>
<path fill="none" stroke="black" d="M912.26,-104C901.28,-104 894.07,-104 894.07,-104 894.07,-104 894.07,-140.89 894.07,-140.89"/>
<polygon fill="black" stroke="black" points="890.57,-140.89 894.07,-150.89 897.57,-140.89 890.57,-140.89"/>
</g>
</g>
</svg>
