<?xml version="1.0" encoding="UTF-8" standalone="no"?>
<!DOCTYPE svg PUBLIC "-//W3C//DTD SVG 1.1//EN"
 "http://www.w3.org/Graphics/SVG/1.1/DTD/svg11.dtd">
<!-- Generated by graphviz version 2.47.0 (20210316.0004)
 -->
<!-- Title: dependencies Pages: 1 -->
<svg width="630pt" height="211pt"
 viewBox="0.00 0.00 630.00 211.00" xmlns="http://www.w3.org/2000/svg" xmlns:xlink="http://www.w3.org/1999/xlink">
<g id="graph0" class="graph" transform="scale(1 1) rotate(0) translate(4 207)">
<title>dependencies</title>
<polygon fill="white" stroke="transparent" points="-4,4 -4,-207 626,-207 626,4 -4,4"/>
<text text-anchor="start" x="290.01" y="-42.4" font-family="Times-12" font-weight="bold" font-size="14.00">Legend</text>
<polygon fill="#ffffb3" stroke="transparent" points="77,-10 77,-30 97,-30 97,-10 77,-10"/>
<text text-anchor="start" x="100.63" y="-15.4" font-family="Times-12" font-size="14.00"> &#160;Declarations</text>
<polygon fill="#8dd3c7" stroke="transparent" points="190,-10 190,-30 210,-30 210,-10 190,-10"/>
<text text-anchor="start" x="213.73" y="-15.4" font-family="Times-12" font-size="14.00"> &#160;Module</text>
<polygon fill="#80b1d3" stroke="transparent" points="276,-10 276,-30 296,-30 296,-10 276,-10"/>
<text text-anchor="start" x="299.78" y="-15.4" font-family="Times-12" font-size="14.00"> &#160;Bootstrap</text>
<polygon fill="#fdb462" stroke="transparent" points="373,-10 373,-30 393,-30 393,-10 373,-10"/>
<text text-anchor="start" x="396.67" y="-15.4" font-family="Times-12" font-size="14.00"> &#160;Providers</text>
<polygon fill="#fb8072" stroke="transparent" points="469,-10 469,-30 489,-30 489,-10 469,-10"/>
<text text-anchor="start" x="492.73" y="-15.4" font-family="Times-12" font-size="14.00"> &#160;Exports</text>
<g id="clust1" class="cluster">
<title>cluster_FilesStorageAMQPModule</title>
<polygon fill="none" stroke="black" stroke-dasharray="1,5" points="8,-70 8,-195 614,-195 614,-70 8,-70"/>
</g>
<g id="clust6" class="cluster">
<title>cluster_FilesStorageAMQPModule_providers</title>
<polygon fill="none" stroke="black" points="392,-78 392,-130 606,-130 606,-78 392,-78"/>
</g>
<g id="clust3" class="cluster">
<title>cluster_FilesStorageAMQPModule_imports</title>
<polygon fill="none" stroke="black" points="16,-78 16,-130 384,-130 384,-78 16,-78"/>
</g>
<!-- CoreModule -->
<g id="node1" class="node">
<title>CoreModule</title>
<polygon fill="#8dd3c7" stroke="black" points="376.26,-122 373.26,-126 352.26,-126 349.26,-122 289.74,-122 289.74,-86 376.26,-86 376.26,-122"/>
<text text-anchor="middle" x="333" y="-99.8" font-family="Times,serif" font-size="14.00">CoreModule</text>
</g>
<!-- FilesStorageAMQPModule -->
<g id="node4" class="node">
<title>FilesStorageAMQPModule</title>
<polygon fill="#8dd3c7" stroke="black" points="354.98,-187 351.98,-191 330.98,-191 327.98,-187 185.02,-187 185.02,-151 354.98,-151 354.98,-187"/>
<text text-anchor="middle" x="270" y="-164.8" font-family="Times,serif" font-size="14.00">FilesStorageAMQPModule</text>
</g>
<!-- CoreModule&#45;&gt;FilesStorageAMQPModule -->
<g id="edge1" class="edge">
<title>CoreModule&#45;&gt;FilesStorageAMQPModule</title>
<path fill="none" stroke="black" d="M322.3,-122.11C322.3,-122.11 322.3,-140.99 322.3,-140.99"/>
<polygon fill="black" stroke="black" points="318.8,-140.99 322.3,-150.99 325.8,-140.99 318.8,-140.99"/>
</g>
<!-- FilesStorageModule -->
<g id="node2" class="node">
<title>FilesStorageModule</title>
<polygon fill="#8dd3c7" stroke="black" points="271.54,-122 268.54,-126 247.54,-126 244.54,-122 142.46,-122 142.46,-86 271.54,-86 271.54,-122"/>
<text text-anchor="middle" x="207" y="-99.8" font-family="Times,serif" font-size="14.00">FilesStorageModule</text>
</g>
<!-- FilesStorageModule&#45;&gt;FilesStorageAMQPModule -->
<g id="edge2" class="edge">
<title>FilesStorageModule&#45;&gt;FilesStorageAMQPModule</title>
<path fill="none" stroke="black" d="M228.39,-122.11C228.39,-122.11 228.39,-140.99 228.39,-140.99"/>
<polygon fill="black" stroke="black" points="224.89,-140.99 228.39,-150.99 231.89,-140.99 224.89,-140.99"/>
</g>
<!-- LoggerModule -->
<g id="node3" class="node">
<title>LoggerModule</title>
<polygon fill="#8dd3c7" stroke="black" points="123.98,-122 120.98,-126 99.98,-126 96.98,-122 24.02,-122 24.02,-86 123.98,-86 123.98,-122"/>
<text text-anchor="middle" x="74" y="-99.8" font-family="Times,serif" font-size="14.00">LoggerModule</text>
</g>
<!-- LoggerModule&#45;&gt;FilesStorageAMQPModule -->
<g id="edge3" class="edge">
<title>LoggerModule&#45;&gt;FilesStorageAMQPModule</title>
<path fill="none" stroke="black" d="M74,-122.11C74,-141.34 74,-169 74,-169 74,-169 174.89,-169 174.89,-169"/>
<polygon fill="black" stroke="black" points="174.89,-172.5 184.89,-169 174.89,-165.5 174.89,-172.5"/>
</g>
<!-- FilesStorageConsumer -->
<g id="node5" class="node">
<title>FilesStorageConsumer</title>
<ellipse fill="#fdb462" stroke="black" cx="499" cy="-104" rx="99.01" ry="18"/>
<text text-anchor="middle" x="499" y="-99.8" font-family="Times,serif" font-size="14.00">FilesStorageConsumer</text>
</g>
<!-- FilesStorageConsumer&#45;&gt;FilesStorageAMQPModule -->
<g id="edge4" class="edge">
<title>FilesStorageConsumer&#45;&gt;FilesStorageAMQPModule</title>
<path fill="none" stroke="black" d="M499,-122.11C499,-141.34 499,-169 499,-169 499,-169 365.27,-169 365.27,-169"/>
<polygon fill="black" stroke="black" points="365.27,-165.5 355.27,-169 365.27,-172.5 365.27,-165.5"/>
</g>
</g>
</svg>
