<?xml version="1.0" encoding="UTF-8" standalone="no"?>
<!DOCTYPE svg PUBLIC "-//W3C//DTD SVG 1.1//EN"
 "http://www.w3.org/Graphics/SVG/1.1/DTD/svg11.dtd">
<!-- Generated by graphviz version 5.0.0 (20220707.1540)
 -->
<!-- Title: dependencies Pages: 1 -->
<svg width="630pt" height="174pt"
 viewBox="0.00 0.00 630.00 173.80" xmlns="http://www.w3.org/2000/svg" xmlns:xlink="http://www.w3.org/1999/xlink">
<g id="graph0" class="graph" transform="scale(1 1) rotate(0) translate(4 169.8)">
<title>dependencies</title>
<polygon fill="white" stroke="transparent" points="-4,4 -4,-169.8 626,-169.8 626,4 -4,4"/>
<text text-anchor="middle" x="311" y="-8.2" font-family="sans-serif" font-size="14.00">dependencies</text>
<g id="clust1" class="cluster">
<title>cluster_FilesStorageAMQPModule</title>
<polygon fill="none" stroke="black" stroke-dasharray="1,5" points="8,-32.8 8,-157.8 614,-157.8 614,-32.8 8,-32.8"/>
</g>
<g id="clust6" class="cluster">
<title>cluster_FilesStorageAMQPModule_providers</title>
<polygon fill="none" stroke="black" points="392,-40.8 392,-92.8 606,-92.8 606,-40.8 392,-40.8"/>
</g>
<g id="clust3" class="cluster">
<title>cluster_FilesStorageAMQPModule_imports</title>
<polygon fill="none" stroke="black" points="16,-40.8 16,-92.8 384,-92.8 384,-40.8 16,-40.8"/>
</g>
<!-- CoreModule -->
<g id="node1" class="node">
<title>CoreModule</title>
<polygon fill="#8dd3c7" stroke="black" points="376.27,-84.8 373.27,-88.8 352.27,-88.8 349.27,-84.8 289.73,-84.8 289.73,-48.8 376.27,-48.8 376.27,-84.8"/>
<text text-anchor="middle" x="333" y="-62.6" font-family="Times,serif" font-size="14.00">CoreModule</text>
</g>
<!-- FilesStorageAMQPModule -->
<g id="node4" class="node">
<title>FilesStorageAMQPModule</title>
<polygon fill="#8dd3c7" stroke="black" points="355,-149.8 352,-153.8 331,-153.8 328,-149.8 185,-149.8 185,-113.8 355,-113.8 355,-149.8"/>
<text text-anchor="middle" x="270" y="-127.6" font-family="Times,serif" font-size="14.00">FilesStorageAMQPModule</text>
</g>
<!-- CoreModule&#45;&gt;FilesStorageAMQPModule -->
<g id="edge1" class="edge">
<title>CoreModule&#45;&gt;FilesStorageAMQPModule</title>
<path fill="none" stroke="black" d="M322.31,-84.91C322.31,-84.91 322.31,-103.79 322.31,-103.79"/>
<polygon fill="black" stroke="black" points="318.81,-103.79 322.31,-113.79 325.81,-103.79 318.81,-103.79"/>
</g>
<!-- FilesStorageModule -->
<g id="node2" class="node">
<title>FilesStorageModule</title>
<polygon fill="#8dd3c7" stroke="black" points="271.55,-84.8 268.55,-88.8 247.55,-88.8 244.55,-84.8 142.45,-84.8 142.45,-48.8 271.55,-48.8 271.55,-84.8"/>
<text text-anchor="middle" x="207" y="-62.6" font-family="Times,serif" font-size="14.00">FilesStorageModule</text>
</g>
<!-- FilesStorageModule&#45;&gt;FilesStorageAMQPModule -->
<g id="edge2" class="edge">
<title>FilesStorageModule&#45;&gt;FilesStorageAMQPModule</title>
<path fill="none" stroke="black" d="M228.39,-84.91C228.39,-84.91 228.39,-103.79 228.39,-103.79"/>
<polygon fill="black" stroke="black" points="224.89,-103.79 228.39,-113.79 231.89,-103.79 224.89,-103.79"/>
</g>
<!-- LoggerModule -->
<g id="node3" class="node">
<title>LoggerModule</title>
<polygon fill="#8dd3c7" stroke="black" points="123.98,-84.8 120.98,-88.8 99.98,-88.8 96.98,-84.8 24.02,-84.8 24.02,-48.8 123.98,-48.8 123.98,-84.8"/>
<text text-anchor="middle" x="74" y="-62.6" font-family="Times,serif" font-size="14.00">LoggerModule</text>
</g>
<!-- LoggerModule&#45;&gt;FilesStorageAMQPModule -->
<g id="edge3" class="edge">
<title>LoggerModule&#45;&gt;FilesStorageAMQPModule</title>
<path fill="none" stroke="black" d="M74,-84.91C74,-104.14 74,-131.8 74,-131.8 74,-131.8 174.89,-131.8 174.89,-131.8"/>
<polygon fill="black" stroke="black" points="174.89,-135.3 184.89,-131.8 174.89,-128.3 174.89,-135.3"/>
</g>
<!-- FilesStorageConsumer -->
<g id="node5" class="node">
<title>FilesStorageConsumer</title>
<ellipse fill="#fdb462" stroke="black" cx="499" cy="-66.8" rx="99.03" ry="18"/>
<text text-anchor="middle" x="499" y="-62.6" font-family="Times,serif" font-size="14.00">FilesStorageConsumer</text>
</g>
<!-- FilesStorageConsumer&#45;&gt;FilesStorageAMQPModule -->
<g id="edge4" class="edge">
<title>FilesStorageConsumer&#45;&gt;FilesStorageAMQPModule</title>
<path fill="none" stroke="black" d="M499,-84.91C499,-104.14 499,-131.8 499,-131.8 499,-131.8 365.27,-131.8 365.27,-131.8"/>
<polygon fill="black" stroke="black" points="365.27,-128.3 355.27,-131.8 365.27,-135.3 365.27,-128.3"/>
</g>
</g>
</svg>
