<?xml version="1.0" encoding="UTF-8" standalone="no"?>
<!DOCTYPE svg PUBLIC "-//W3C//DTD SVG 1.1//EN"
 "http://www.w3.org/Graphics/SVG/1.1/DTD/svg11.dtd">
<!-- Generated by graphviz version 2.47.0 (20210316.0004)
 -->
<!-- Title: dependencies Pages: 1 -->
<svg width="630pt" height="211pt"
 viewBox="0.00 0.00 630.00 211.00" xmlns="http://www.w3.org/2000/svg" xmlns:xlink="http://www.w3.org/1999/xlink">
<g id="graph0" class="graph" transform="scale(1 1) rotate(0) translate(4 207)">
<title>dependencies</title>
<polygon fill="white" stroke="transparent" points="-4,4 -4,-207 626,-207 626,4 -4,4"/>
<text text-anchor="start" x="290.01" y="-42.4" font-family="Times-12" font-weight="bold" font-size="14.00">Legend</text>
<polygon fill="#ffffb3" stroke="transparent" points="77,-10 77,-30 97,-30 97,-10 77,-10"/>
<text text-anchor="start" x="100.63" y="-15.4" font-family="Times-12" font-size="14.00"> &#160;Declarations</text>
<polygon fill="#8dd3c7" stroke="transparent" points="190,-10 190,-30 210,-30 210,-10 190,-10"/>
<text text-anchor="start" x="213.73" y="-15.4" font-family="Times-12" font-size="14.00"> &#160;Module</text>
<polygon fill="#80b1d3" stroke="transparent" points="276,-10 276,-30 296,-30 296,-10 276,-10"/>
<text text-anchor="start" x="299.78" y="-15.4" font-family="Times-12" font-size="14.00"> &#160;Bootstrap</text>
<polygon fill="#fdb462" stroke="transparent" points="373,-10 373,-30 393,-30 393,-10 373,-10"/>
<text text-anchor="start" x="396.67" y="-15.4" font-family="Times-12" font-size="14.00"> &#160;Providers</text>
<polygon fill="#fb8072" stroke="transparent" points="469,-10 469,-30 489,-30 489,-10 469,-10"/>
<text text-anchor="start" x="492.73" y="-15.4" font-family="Times-12" font-size="14.00"> &#160;Exports</text>
<g id="clust1" class="cluster">
<title>cluster_FilesStorageAMQPModule</title>
<polygon fill="none" stroke="black" stroke-dasharray="1,5" points="8,-70 8,-195 614,-195 614,-70 8,-70"/>
</g>
<g id="clust3" class="cluster">
<title>cluster_FilesStorageAMQPModule_imports</title>
<polygon fill="none" stroke="black" points="238,-78 238,-130 606,-130 606,-78 238,-78"/>
</g>
<g id="clust6" class="cluster">
<title>cluster_FilesStorageAMQPModule_providers</title>
<polygon fill="none" stroke="black" points="16,-78 16,-130 230,-130 230,-78 16,-78"/>
</g>
<!-- CoreModule -->
<g id="node1" class="node">
<title>CoreModule</title>
<polygon fill="#8dd3c7" stroke="black" points="598.26,-122 595.26,-126 574.26,-126 571.26,-122 511.74,-122 511.74,-86 598.26,-86 598.26,-122"/>
<text text-anchor="middle" x="555" y="-99.8" font-family="Times,serif" font-size="14.00">CoreModule</text>
</g>
<!-- FilesStorageAMQPModule -->
<g id="node4" class="node">
<title>FilesStorageAMQPModule</title>
<polygon fill="#8dd3c7" stroke="black" points="446.98,-187 443.98,-191 422.98,-191 419.98,-187 277.02,-187 277.02,-151 446.98,-151 446.98,-187"/>
<text text-anchor="middle" x="362" y="-164.8" font-family="Times,serif" font-size="14.00">FilesStorageAMQPModule</text>
</g>
<!-- CoreModule&#45;&gt;FilesStorageAMQPModule -->
<g id="edge1" class="edge">
<title>CoreModule&#45;&gt;FilesStorageAMQPModule</title>
<path fill="none" stroke="black" d="M555,-122.11C555,-141.34 555,-169 555,-169 555,-169 457.21,-169 457.21,-169"/>
<polygon fill="black" stroke="black" points="457.21,-165.5 447.21,-169 457.21,-172.5 457.21,-165.5"/>
</g>
<!-- FilesStorageModule -->
<g id="node2" class="node">
<title>FilesStorageModule</title>
<polygon fill="#8dd3c7" stroke="black" points="493.54,-122 490.54,-126 469.54,-126 466.54,-122 364.46,-122 364.46,-86 493.54,-86 493.54,-122"/>
<text text-anchor="middle" x="429" y="-99.8" font-family="Times,serif" font-size="14.00">FilesStorageModule</text>
</g>
<!-- FilesStorageModule&#45;&gt;FilesStorageAMQPModule -->
<g id="edge2" class="edge">
<title>FilesStorageModule&#45;&gt;FilesStorageAMQPModule</title>
<path fill="none" stroke="black" d="M405.61,-122.11C405.61,-122.11 405.61,-140.99 405.61,-140.99"/>
<polygon fill="black" stroke="black" points="402.11,-140.99 405.61,-150.99 409.11,-140.99 402.11,-140.99"/>
</g>
<!-- LoggerModule -->
<g id="node3" class="node">
<title>LoggerModule</title>
<polygon fill="#8dd3c7" stroke="black" points="345.98,-122 342.98,-126 321.98,-126 318.98,-122 246.02,-122 246.02,-86 345.98,-86 345.98,-122"/>
<text text-anchor="middle" x="296" y="-99.8" font-family="Times,serif" font-size="14.00">LoggerModule</text>
</g>
<!-- LoggerModule&#45;&gt;FilesStorageAMQPModule -->
<g id="edge3" class="edge">
<title>LoggerModule&#45;&gt;FilesStorageAMQPModule</title>
<path fill="none" stroke="black" d="M311.5,-122.11C311.5,-122.11 311.5,-140.99 311.5,-140.99"/>
<polygon fill="black" stroke="black" points="308,-140.99 311.5,-150.99 315,-140.99 308,-140.99"/>
</g>
<!-- FilesStorageConsumer -->
<g id="node5" class="node">
<title>FilesStorageConsumer</title>
<ellipse fill="#fdb462" stroke="black" cx="123" cy="-104" rx="99.01" ry="18"/>
<text text-anchor="middle" x="123" y="-99.8" font-family="Times,serif" font-size="14.00">FilesStorageConsumer</text>
</g>
<!-- FilesStorageConsumer&#45;&gt;FilesStorageAMQPModule -->
<g id="edge4" class="edge">
<title>FilesStorageConsumer&#45;&gt;FilesStorageAMQPModule</title>
<path fill="none" stroke="black" d="M123,-122.11C123,-141.34 123,-169 123,-169 123,-169 266.73,-169 266.73,-169"/>
<polygon fill="black" stroke="black" points="266.73,-172.5 276.73,-169 266.73,-165.5 266.73,-172.5"/>
</g>
</g>
</svg>
