<?xml version="1.0" encoding="UTF-8" standalone="no"?>
<!DOCTYPE svg PUBLIC "-//W3C//DTD SVG 1.1//EN"
 "http://www.w3.org/Graphics/SVG/1.1/DTD/svg11.dtd">
<!-- Generated by graphviz version 5.0.0 (20220707.1540)
 -->
<!-- Title: dependencies Pages: 1 -->
<svg width="630pt" height="174pt"
 viewBox="0.00 0.00 630.00 173.80" xmlns="http://www.w3.org/2000/svg" xmlns:xlink="http://www.w3.org/1999/xlink">
<g id="graph0" class="graph" transform="scale(1 1) rotate(0) translate(4 169.8)">
<title>dependencies</title>
<polygon fill="white" stroke="transparent" points="-4,4 -4,-169.8 626,-169.8 626,4 -4,4"/>
<text text-anchor="middle" x="311" y="-8.2" font-family="sans-serif" font-size="14.00">dependencies</text>
<g id="clust1" class="cluster">
<title>cluster_FilesStorageAMQPModule</title>
<polygon fill="none" stroke="black" stroke-dasharray="1,5" points="8,-32.8 8,-157.8 614,-157.8 614,-32.8 8,-32.8"/>
</g>
<g id="clust3" class="cluster">
<title>cluster_FilesStorageAMQPModule_imports</title>
<polygon fill="none" stroke="black" points="238,-40.8 238,-92.8 606,-92.8 606,-40.8 238,-40.8"/>
</g>
<g id="clust6" class="cluster">
<title>cluster_FilesStorageAMQPModule_providers</title>
<polygon fill="none" stroke="black" points="16,-40.8 16,-92.8 230,-92.8 230,-40.8 16,-40.8"/>
</g>
<!-- CoreModule -->
<g id="node1" class="node">
<title>CoreModule</title>
<polygon fill="#8dd3c7" stroke="black" points="598.27,-84.8 595.27,-88.8 574.27,-88.8 571.27,-84.8 511.73,-84.8 511.73,-48.8 598.27,-48.8 598.27,-84.8"/>
<text text-anchor="middle" x="555" y="-62.6" font-family="Times,serif" font-size="14.00">CoreModule</text>
</g>
<!-- FilesStorageAMQPModule -->
<g id="node4" class="node">
<title>FilesStorageAMQPModule</title>
<polygon fill="#8dd3c7" stroke="black" points="447,-149.8 444,-153.8 423,-153.8 420,-149.8 277,-149.8 277,-113.8 447,-113.8 447,-149.8"/>
<text text-anchor="middle" x="362" y="-127.6" font-family="Times,serif" font-size="14.00">FilesStorageAMQPModule</text>
</g>
<!-- CoreModule&#45;&gt;FilesStorageAMQPModule -->
<g id="edge1" class="edge">
<title>CoreModule&#45;&gt;FilesStorageAMQPModule</title>
<path fill="none" stroke="black" d="M555,-84.91C555,-104.14 555,-131.8 555,-131.8 555,-131.8 457.21,-131.8 457.21,-131.8"/>
<polygon fill="black" stroke="black" points="457.21,-128.3 447.21,-131.8 457.21,-135.3 457.21,-128.3"/>
</g>
<!-- FilesStorageModule -->
<g id="node2" class="node">
<title>FilesStorageModule</title>
<polygon fill="#8dd3c7" stroke="black" points="493.55,-84.8 490.55,-88.8 469.55,-88.8 466.55,-84.8 364.45,-84.8 364.45,-48.8 493.55,-48.8 493.55,-84.8"/>
<text text-anchor="middle" x="429" y="-62.6" font-family="Times,serif" font-size="14.00">FilesStorageModule</text>
</g>
<!-- FilesStorageModule&#45;&gt;FilesStorageAMQPModule -->
<g id="edge2" class="edge">
<title>FilesStorageModule&#45;&gt;FilesStorageAMQPModule</title>
<path fill="none" stroke="black" d="M405.61,-84.91C405.61,-84.91 405.61,-103.79 405.61,-103.79"/>
<polygon fill="black" stroke="black" points="402.11,-103.79 405.61,-113.79 409.11,-103.79 402.11,-103.79"/>
</g>
<!-- LoggerModule -->
<g id="node3" class="node">
<title>LoggerModule</title>
<polygon fill="#8dd3c7" stroke="black" points="345.98,-84.8 342.98,-88.8 321.98,-88.8 318.98,-84.8 246.02,-84.8 246.02,-48.8 345.98,-48.8 345.98,-84.8"/>
<text text-anchor="middle" x="296" y="-62.6" font-family="Times,serif" font-size="14.00">LoggerModule</text>
</g>
<!-- LoggerModule&#45;&gt;FilesStorageAMQPModule -->
<g id="edge3" class="edge">
<title>LoggerModule&#45;&gt;FilesStorageAMQPModule</title>
<path fill="none" stroke="black" d="M311.49,-84.91C311.49,-84.91 311.49,-103.79 311.49,-103.79"/>
<polygon fill="black" stroke="black" points="307.99,-103.79 311.49,-113.79 314.99,-103.79 307.99,-103.79"/>
</g>
<!-- FilesStorageConsumer -->
<g id="node5" class="node">
<title>FilesStorageConsumer</title>
<ellipse fill="#fdb462" stroke="black" cx="123" cy="-66.8" rx="99.03" ry="18"/>
<text text-anchor="middle" x="123" y="-62.6" font-family="Times,serif" font-size="14.00">FilesStorageConsumer</text>
</g>
<!-- FilesStorageConsumer&#45;&gt;FilesStorageAMQPModule -->
<g id="edge4" class="edge">
<title>FilesStorageConsumer&#45;&gt;FilesStorageAMQPModule</title>
<path fill="none" stroke="black" d="M123,-84.91C123,-104.14 123,-131.8 123,-131.8 123,-131.8 266.73,-131.8 266.73,-131.8"/>
<polygon fill="black" stroke="black" points="266.73,-135.3 276.73,-131.8 266.73,-128.3 266.73,-135.3"/>
</g>
</g>
</svg>
