<?xml version="1.0" encoding="UTF-8" standalone="no"?>
<!DOCTYPE svg PUBLIC "-//W3C//DTD SVG 1.1//EN"
 "http://www.w3.org/Graphics/SVG/1.1/DTD/svg11.dtd">
<!-- Generated by graphviz version 2.47.0 (20210316.0004)
 -->
<!-- Title: dependencies Pages: 1 -->
<svg width="951pt" height="284pt"
 viewBox="0.00 0.00 951.00 284.00" xmlns="http://www.w3.org/2000/svg" xmlns:xlink="http://www.w3.org/1999/xlink">
<g id="graph0" class="graph" transform="scale(1 1) rotate(0) translate(4 280)">
<title>dependencies</title>
<polygon fill="white" stroke="transparent" points="-4,4 -4,-280 947,-280 947,4 -4,4"/>
<text text-anchor="start" x="450.51" y="-42.4" font-family="Times-12" font-weight="bold" font-size="14.00">Legend</text>
<polygon fill="#ffffb3" stroke="transparent" points="237.5,-10 237.5,-30 257.5,-30 257.5,-10 237.5,-10"/>
<text text-anchor="start" x="261.13" y="-15.4" font-family="Times-12" font-size="14.00"> &#160;Declarations</text>
<polygon fill="#8dd3c7" stroke="transparent" points="350.5,-10 350.5,-30 370.5,-30 370.5,-10 350.5,-10"/>
<text text-anchor="start" x="374.23" y="-15.4" font-family="Times-12" font-size="14.00"> &#160;Module</text>
<polygon fill="#80b1d3" stroke="transparent" points="436.5,-10 436.5,-30 456.5,-30 456.5,-10 436.5,-10"/>
<text text-anchor="start" x="460.28" y="-15.4" font-family="Times-12" font-size="14.00"> &#160;Bootstrap</text>
<polygon fill="#fdb462" stroke="transparent" points="533.5,-10 533.5,-30 553.5,-30 553.5,-10 533.5,-10"/>
<text text-anchor="start" x="557.17" y="-15.4" font-family="Times-12" font-size="14.00"> &#160;Providers</text>
<polygon fill="#fb8072" stroke="transparent" points="629.5,-10 629.5,-30 649.5,-30 649.5,-10 629.5,-10"/>
<text text-anchor="start" x="653.23" y="-15.4" font-family="Times-12" font-size="14.00"> &#160;Exports</text>
<g id="clust1" class="cluster">
<title>cluster_UserModule</title>
<polygon fill="none" stroke="black" stroke-dasharray="1,5" points="8,-70 8,-268 935,-268 935,-70 8,-70"/>
</g>
<g id="clust4" class="cluster">
<title>cluster_UserModule_exports</title>
<polygon fill="none" stroke="black" points="368,-208 368,-260 566,-260 566,-208 368,-208"/>
</g>
<g id="clust3" class="cluster">
<title>cluster_UserModule_imports</title>
<polygon fill="none" stroke="black" points="419,-78 419,-130 927,-130 927,-78 419,-78"/>
</g>
<g id="clust6" class="cluster">
<title>cluster_UserModule_providers</title>
<polygon fill="none" stroke="black" points="16,-78 16,-130 411,-130 411,-78 16,-78"/>
</g>
<!-- AccountModule -->
<g id="node1" class="node">
<title>AccountModule</title>
<polygon fill="#8dd3c7" stroke="black" points="919.48,-122 916.48,-126 895.48,-126 892.48,-122 812.52,-122 812.52,-86 919.48,-86 919.48,-122"/>
<text text-anchor="middle" x="866" y="-99.8" font-family="Times,serif" font-size="14.00">AccountModule</text>
</g>
<!-- UserModule -->
<g id="node5" class="node">
<title>UserModule</title>
<polygon fill="#8dd3c7" stroke="black" points="512.98,-187 509.98,-191 488.98,-191 485.98,-187 427.02,-187 427.02,-151 512.98,-151 512.98,-187"/>
<text text-anchor="middle" x="470" y="-164.8" font-family="Times,serif" font-size="14.00">UserModule</text>
</g>
<!-- AccountModule&#45;&gt;UserModule -->
<g id="edge1" class="edge">
<title>AccountModule&#45;&gt;UserModule</title>
<path fill="none" stroke="black" d="M866,-122.29C866,-144.21 866,-178 866,-178 866,-178 523.13,-178 523.13,-178"/>
<polygon fill="black" stroke="black" points="523.13,-174.5 513.13,-178 523.13,-181.5 523.13,-174.5"/>
</g>
<!-- LoggerModule -->
<g id="node2" class="node">
<title>LoggerModule</title>
<polygon fill="#8dd3c7" stroke="black" points="794.98,-122 791.98,-126 770.98,-126 767.98,-122 695.02,-122 695.02,-86 794.98,-86 794.98,-122"/>
<text text-anchor="middle" x="745" y="-99.8" font-family="Times,serif" font-size="14.00">LoggerModule</text>
</g>
<!-- LoggerModule&#45;&gt;UserModule -->
<g id="edge2" class="edge">
<title>LoggerModule&#45;&gt;UserModule</title>
<path fill="none" stroke="black" d="M745,-122.11C745,-141.34 745,-169 745,-169 745,-169 523.27,-169 523.27,-169"/>
<polygon fill="black" stroke="black" points="523.27,-165.5 513.27,-169 523.27,-172.5 523.27,-165.5"/>
</g>
<!-- RegistrationPinModule -->
<g id="node3" class="node">
<title>RegistrationPinModule</title>
<polygon fill="#8dd3c7" stroke="black" points="677.16,-122 674.16,-126 653.16,-126 650.16,-122 530.84,-122 530.84,-86 677.16,-86 677.16,-122"/>
<text text-anchor="middle" x="604" y="-99.8" font-family="Times,serif" font-size="14.00">RegistrationPinModule</text>
</g>
<!-- RegistrationPinModule&#45;&gt;UserModule -->
<g id="edge3" class="edge">
<title>RegistrationPinModule&#45;&gt;UserModule</title>
<path fill="none" stroke="black" d="M544.21,-122.03C544.21,-138.4 544.21,-160 544.21,-160 544.21,-160 523.17,-160 523.17,-160"/>
<polygon fill="black" stroke="black" points="523.17,-156.5 513.17,-160 523.17,-163.5 523.17,-156.5"/>
</g>
<!-- RoleModule -->
<g id="node4" class="node">
<title>RoleModule</title>
<polygon fill="#8dd3c7" stroke="black" points="512.99,-122 509.99,-126 488.99,-126 485.99,-122 427.01,-122 427.01,-86 512.99,-86 512.99,-122"/>
<text text-anchor="middle" x="470" y="-99.8" font-family="Times,serif" font-size="14.00">RoleModule</text>
</g>
<!-- RoleModule&#45;&gt;UserModule -->
<g id="edge4" class="edge">
<title>RoleModule&#45;&gt;UserModule</title>
<path fill="none" stroke="black" d="M470,-122.11C470,-122.11 470,-140.99 470,-140.99"/>
<polygon fill="black" stroke="black" points="466.5,-140.99 470,-150.99 473.5,-140.99 466.5,-140.99"/>
</g>
<!-- UserRepo  -->
<g id="node6" class="node">
<title>UserRepo </title>
<polygon fill="#fb8072" stroke="black" points="557.98,-252 482.02,-252 482.02,-216 557.98,-216 557.98,-252"/>
<text text-anchor="middle" x="520" y="-229.8" font-family="Times,serif" font-size="14.00">UserRepo </text>
</g>
<!-- UserModule&#45;&gt;UserRepo  -->
<g id="edge5" class="edge">
<title>UserModule&#45;&gt;UserRepo </title>
<path fill="none" stroke="black" stroke-dasharray="5,2" d="M497.62,-187.11C497.62,-187.11 497.62,-205.99 497.62,-205.99"/>
<polygon fill="black" stroke="black" points="494.12,-205.99 497.62,-215.99 501.12,-205.99 494.12,-205.99"/>
</g>
<!-- UserService  -->
<g id="node7" class="node">
<title>UserService </title>
<polygon fill="#fb8072" stroke="black" points="463.9,-252 376.1,-252 376.1,-216 463.9,-216 463.9,-252"/>
<text text-anchor="middle" x="420" y="-229.8" font-family="Times,serif" font-size="14.00">UserService </text>
</g>
<!-- UserModule&#45;&gt;UserService  -->
<g id="edge6" class="edge">
<title>UserModule&#45;&gt;UserService </title>
<path fill="none" stroke="black" stroke-dasharray="5,2" d="M445.48,-187.11C445.48,-187.11 445.48,-205.99 445.48,-205.99"/>
<polygon fill="black" stroke="black" points="441.98,-205.99 445.48,-215.99 448.98,-205.99 441.98,-205.99"/>
</g>
<!-- UserDORepo -->
<g id="node8" class="node">
<title>UserDORepo</title>
<ellipse fill="#fdb462" stroke="black" cx="339" cy="-104" rx="63.68" ry="18"/>
<text text-anchor="middle" x="339" y="-99.8" font-family="Times,serif" font-size="14.00">UserDORepo</text>
</g>
<!-- UserDORepo&#45;&gt;UserModule -->
<g id="edge7" class="edge">
<title>UserDORepo&#45;&gt;UserModule</title>
<path fill="none" stroke="black" d="M389.32,-115.06C389.32,-131.38 389.32,-160 389.32,-160 389.32,-160 416.83,-160 416.83,-160"/>
<polygon fill="black" stroke="black" points="416.83,-163.5 426.83,-160 416.83,-156.5 416.83,-163.5"/>
</g>
<!-- UserRepo -->
<g id="node9" class="node">
<title>UserRepo</title>
<ellipse fill="#fdb462" stroke="black" cx="208" cy="-104" rx="49.8" ry="18"/>
<text text-anchor="middle" x="208" y="-99.8" font-family="Times,serif" font-size="14.00">UserRepo</text>
</g>
<!-- UserRepo&#45;&gt;UserModule -->
<g id="edge8" class="edge">
<title>UserRepo&#45;&gt;UserModule</title>
<path fill="none" stroke="black" d="M208,-122.11C208,-141.34 208,-169 208,-169 208,-169 416.74,-169 416.74,-169"/>
<polygon fill="black" stroke="black" points="416.74,-172.5 426.74,-169 416.74,-165.5 416.74,-172.5"/>
</g>
<!-- UserService -->
<g id="node10" class="node">
<title>UserService</title>
<ellipse fill="#fdb462" stroke="black" cx="82" cy="-104" rx="58.44" ry="18"/>
<text text-anchor="middle" x="82" y="-99.8" font-family="Times,serif" font-size="14.00">UserService</text>
</g>
<!-- UserService&#45;&gt;UserModule -->
<g id="edge9" class="edge">
<title>UserService&#45;&gt;UserModule</title>
<path fill="none" stroke="black" d="M82,-122.29C82,-144.21 82,-178 82,-178 82,-178 416.99,-178 416.99,-178"/>
<polygon fill="black" stroke="black" points="416.99,-181.5 426.99,-178 416.99,-174.5 416.99,-181.5"/>
</g>
</g>
</svg>
