<?xml version="1.0" encoding="UTF-8" standalone="no"?>
<!DOCTYPE svg PUBLIC "-//W3C//DTD SVG 1.1//EN"
 "http://www.w3.org/Graphics/SVG/1.1/DTD/svg11.dtd">
<!-- Generated by graphviz version 2.47.0 (20210316.0004)
 -->
<!-- Title: dependencies Pages: 1 -->
<svg width="903pt" height="284pt"
 viewBox="0.00 0.00 903.00 284.00" xmlns="http://www.w3.org/2000/svg" xmlns:xlink="http://www.w3.org/1999/xlink">
<g id="graph0" class="graph" transform="scale(1 1) rotate(0) translate(4 280)">
<title>dependencies</title>
<polygon fill="white" stroke="transparent" points="-4,4 -4,-280 899,-280 899,4 -4,4"/>
<text text-anchor="start" x="426.51" y="-42.4" font-family="Times-12" font-weight="bold" font-size="14.00">Legend</text>
<polygon fill="#ffffb3" stroke="transparent" points="213.5,-10 213.5,-30 233.5,-30 233.5,-10 213.5,-10"/>
<text text-anchor="start" x="237.13" y="-15.4" font-family="Times-12" font-size="14.00"> &#160;Declarations</text>
<polygon fill="#8dd3c7" stroke="transparent" points="326.5,-10 326.5,-30 346.5,-30 346.5,-10 326.5,-10"/>
<text text-anchor="start" x="350.23" y="-15.4" font-family="Times-12" font-size="14.00"> &#160;Module</text>
<polygon fill="#80b1d3" stroke="transparent" points="412.5,-10 412.5,-30 432.5,-30 432.5,-10 412.5,-10"/>
<text text-anchor="start" x="436.28" y="-15.4" font-family="Times-12" font-size="14.00"> &#160;Bootstrap</text>
<polygon fill="#fdb462" stroke="transparent" points="509.5,-10 509.5,-30 529.5,-30 529.5,-10 509.5,-10"/>
<text text-anchor="start" x="533.17" y="-15.4" font-family="Times-12" font-size="14.00"> &#160;Providers</text>
<polygon fill="#fb8072" stroke="transparent" points="605.5,-10 605.5,-30 625.5,-30 625.5,-10 605.5,-10"/>
<text text-anchor="start" x="629.23" y="-15.4" font-family="Times-12" font-size="14.00"> &#160;Exports</text>
<g id="clust1" class="cluster">
<title>cluster_UserModule</title>
<polygon fill="none" stroke="black" stroke-dasharray="1,5" points="8,-70 8,-268 887,-268 887,-70 8,-70"/>
</g>
<g id="clust3" class="cluster">
<title>cluster_UserModule_imports</title>
<polygon fill="none" stroke="black" points="419,-78 419,-130 879,-130 879,-78 419,-78"/>
</g>
<g id="clust4" class="cluster">
<title>cluster_UserModule_exports</title>
<polygon fill="none" stroke="black" points="374,-208 374,-260 572,-260 572,-208 374,-208"/>
</g>
<g id="clust6" class="cluster">
<title>cluster_UserModule_providers</title>
<polygon fill="none" stroke="black" points="16,-78 16,-130 411,-130 411,-78 16,-78"/>
</g>
<!-- AccountModule -->
<g id="node1" class="node">
<title>AccountModule</title>
<polygon fill="#8dd3c7" stroke="black" points="871.48,-122 868.48,-126 847.48,-126 844.48,-122 764.52,-122 764.52,-86 871.48,-86 871.48,-122"/>
<text text-anchor="middle" x="818" y="-99.8" font-family="Times,serif" font-size="14.00">AccountModule</text>
</g>
<!-- UserModule -->
<g id="node5" class="node">
<title>UserModule</title>
<polygon fill="#8dd3c7" stroke="black" points="518.98,-187 515.98,-191 494.98,-191 491.98,-187 433.02,-187 433.02,-151 518.98,-151 518.98,-187"/>
<text text-anchor="middle" x="476" y="-164.8" font-family="Times,serif" font-size="14.00">UserModule</text>
</g>
<!-- AccountModule&#45;&gt;UserModule -->
<g id="edge1" class="edge">
<title>AccountModule&#45;&gt;UserModule</title>
<path fill="none" stroke="black" d="M818,-122.29C818,-144.21 818,-178 818,-178 818,-178 529.31,-178 529.31,-178"/>
<polygon fill="black" stroke="black" points="529.31,-174.5 519.31,-178 529.31,-181.5 529.31,-174.5"/>
</g>
<!-- LoggerModule -->
<g id="node2" class="node">
<title>LoggerModule</title>
<polygon fill="#8dd3c7" stroke="black" points="746.98,-122 743.98,-126 722.98,-126 719.98,-122 647.02,-122 647.02,-86 746.98,-86 746.98,-122"/>
<text text-anchor="middle" x="697" y="-99.8" font-family="Times,serif" font-size="14.00">LoggerModule</text>
</g>
<!-- LoggerModule&#45;&gt;UserModule -->
<g id="edge2" class="edge">
<title>LoggerModule&#45;&gt;UserModule</title>
<path fill="none" stroke="black" d="M697,-122.11C697,-141.34 697,-169 697,-169 697,-169 529.14,-169 529.14,-169"/>
<polygon fill="black" stroke="black" points="529.14,-165.5 519.14,-169 529.14,-172.5 529.14,-165.5"/>
</g>
<!-- RoleModule -->
<g id="node3" class="node">
<title>RoleModule</title>
<polygon fill="#8dd3c7" stroke="black" points="628.99,-122 625.99,-126 604.99,-126 601.99,-122 543.01,-122 543.01,-86 628.99,-86 628.99,-122"/>
<text text-anchor="middle" x="586" y="-99.8" font-family="Times,serif" font-size="14.00">RoleModule</text>
</g>
<!-- RoleModule&#45;&gt;UserModule -->
<g id="edge3" class="edge">
<title>RoleModule&#45;&gt;UserModule</title>
<path fill="none" stroke="black" d="M553.37,-122.03C553.37,-138.4 553.37,-160 553.37,-160 553.37,-160 529.21,-160 529.21,-160"/>
<polygon fill="black" stroke="black" points="529.21,-156.5 519.21,-160 529.21,-163.5 529.21,-156.5"/>
</g>
<!-- SchoolModule -->
<g id="node4" class="node">
<title>SchoolModule</title>
<polygon fill="#8dd3c7" stroke="black" points="525.44,-122 522.44,-126 501.44,-126 498.44,-122 426.56,-122 426.56,-86 525.44,-86 525.44,-122"/>
<text text-anchor="middle" x="476" y="-99.8" font-family="Times,serif" font-size="14.00">SchoolModule</text>
</g>
<!-- SchoolModule&#45;&gt;UserModule -->
<g id="edge4" class="edge">
<title>SchoolModule&#45;&gt;UserModule</title>
<path fill="none" stroke="black" d="M476,-122.11C476,-122.11 476,-140.99 476,-140.99"/>
<polygon fill="black" stroke="black" points="472.5,-140.99 476,-150.99 479.5,-140.99 472.5,-140.99"/>
</g>
<!-- UserRepo  -->
<g id="node6" class="node">
<title>UserRepo </title>
<polygon fill="#fb8072" stroke="black" points="563.98,-252 488.02,-252 488.02,-216 563.98,-216 563.98,-252"/>
<text text-anchor="middle" x="526" y="-229.8" font-family="Times,serif" font-size="14.00">UserRepo </text>
</g>
<!-- UserModule&#45;&gt;UserRepo  -->
<g id="edge5" class="edge">
<title>UserModule&#45;&gt;UserRepo </title>
<path fill="none" stroke="black" stroke-dasharray="5,2" d="M503.62,-187.11C503.62,-187.11 503.62,-205.99 503.62,-205.99"/>
<polygon fill="black" stroke="black" points="500.12,-205.99 503.62,-215.99 507.12,-205.99 500.12,-205.99"/>
</g>
<!-- UserService  -->
<g id="node7" class="node">
<title>UserService </title>
<polygon fill="#fb8072" stroke="black" points="469.9,-252 382.1,-252 382.1,-216 469.9,-216 469.9,-252"/>
<text text-anchor="middle" x="426" y="-229.8" font-family="Times,serif" font-size="14.00">UserService </text>
</g>
<!-- UserModule&#45;&gt;UserService  -->
<g id="edge6" class="edge">
<title>UserModule&#45;&gt;UserService </title>
<path fill="none" stroke="black" stroke-dasharray="5,2" d="M451.48,-187.11C451.48,-187.11 451.48,-205.99 451.48,-205.99"/>
<polygon fill="black" stroke="black" points="447.98,-205.99 451.48,-215.99 454.98,-205.99 447.98,-205.99"/>
</g>
<!-- UserDORepo -->
<g id="node8" class="node">
<title>UserDORepo</title>
<ellipse fill="#fdb462" stroke="black" cx="339" cy="-104" rx="63.68" ry="18"/>
<text text-anchor="middle" x="339" y="-99.8" font-family="Times,serif" font-size="14.00">UserDORepo</text>
</g>
<!-- UserDORepo&#45;&gt;UserModule -->
<g id="edge7" class="edge">
<title>UserDORepo&#45;&gt;UserModule</title>
<path fill="none" stroke="black" d="M392.32,-114.01C392.32,-130.12 392.32,-160 392.32,-160 392.32,-160 422.69,-160 422.69,-160"/>
<polygon fill="black" stroke="black" points="422.69,-163.5 432.69,-160 422.69,-156.5 422.69,-163.5"/>
</g>
<!-- UserRepo -->
<g id="node9" class="node">
<title>UserRepo</title>
<ellipse fill="#fdb462" stroke="black" cx="208" cy="-104" rx="49.8" ry="18"/>
<text text-anchor="middle" x="208" y="-99.8" font-family="Times,serif" font-size="14.00">UserRepo</text>
</g>
<!-- UserRepo&#45;&gt;UserModule -->
<g id="edge8" class="edge">
<title>UserRepo&#45;&gt;UserModule</title>
<path fill="none" stroke="black" d="M208,-122.11C208,-141.34 208,-169 208,-169 208,-169 422.94,-169 422.94,-169"/>
<polygon fill="black" stroke="black" points="422.94,-172.5 432.94,-169 422.94,-165.5 422.94,-172.5"/>
</g>
<!-- UserService -->
<g id="node10" class="node">
<title>UserService</title>
<ellipse fill="#fdb462" stroke="black" cx="82" cy="-104" rx="58.44" ry="18"/>
<text text-anchor="middle" x="82" y="-99.8" font-family="Times,serif" font-size="14.00">UserService</text>
</g>
<!-- UserService&#45;&gt;UserModule -->
<g id="edge9" class="edge">
<title>UserService&#45;&gt;UserModule</title>
<path fill="none" stroke="black" d="M82,-122.29C82,-144.21 82,-178 82,-178 82,-178 422.71,-178 422.71,-178"/>
<polygon fill="black" stroke="black" points="422.71,-181.5 432.71,-178 422.71,-174.5 422.71,-181.5"/>
</g>
</g>
</svg>
