<?xml version="1.0" encoding="UTF-8" standalone="no"?>
<!DOCTYPE svg PUBLIC "-//W3C//DTD SVG 1.1//EN"
 "http://www.w3.org/Graphics/SVG/1.1/DTD/svg11.dtd">
<!-- Generated by graphviz version 2.47.0 (20210316.0004)
 -->
<!-- Title: dependencies Pages: 1 -->
<svg width="1080pt" height="284pt"
 viewBox="0.00 0.00 1080.00 284.00" xmlns="http://www.w3.org/2000/svg" xmlns:xlink="http://www.w3.org/1999/xlink">
<g id="graph0" class="graph" transform="scale(1 1) rotate(0) translate(4 280)">
<title>dependencies</title>
<polygon fill="white" stroke="transparent" points="-4,4 -4,-280 1076,-280 1076,4 -4,4"/>
<text text-anchor="start" x="515.01" y="-42.4" font-family="Times-12" font-weight="bold" font-size="14.00">Legend</text>
<polygon fill="#ffffb3" stroke="transparent" points="302,-10 302,-30 322,-30 322,-10 302,-10"/>
<text text-anchor="start" x="325.63" y="-15.4" font-family="Times-12" font-size="14.00"> &#160;Declarations</text>
<polygon fill="#8dd3c7" stroke="transparent" points="415,-10 415,-30 435,-30 435,-10 415,-10"/>
<text text-anchor="start" x="438.73" y="-15.4" font-family="Times-12" font-size="14.00"> &#160;Module</text>
<polygon fill="#80b1d3" stroke="transparent" points="501,-10 501,-30 521,-30 521,-10 501,-10"/>
<text text-anchor="start" x="524.78" y="-15.4" font-family="Times-12" font-size="14.00"> &#160;Bootstrap</text>
<polygon fill="#fdb462" stroke="transparent" points="598,-10 598,-30 618,-30 618,-10 598,-10"/>
<text text-anchor="start" x="621.67" y="-15.4" font-family="Times-12" font-size="14.00"> &#160;Providers</text>
<polygon fill="#fb8072" stroke="transparent" points="694,-10 694,-30 714,-30 714,-10 694,-10"/>
<text text-anchor="start" x="717.73" y="-15.4" font-family="Times-12" font-size="14.00"> &#160;Exports</text>
<g id="clust1" class="cluster">
<title>cluster_UserModule</title>
<polygon fill="none" stroke="black" stroke-dasharray="1,5" points="8,-70 8,-268 1064,-268 1064,-70 8,-70"/>
</g>
<g id="clust6" class="cluster">
<title>cluster_UserModule_providers</title>
<polygon fill="none" stroke="black" points="661,-78 661,-130 1056,-130 1056,-78 661,-78"/>
</g>
<g id="clust4" class="cluster">
<title>cluster_UserModule_exports</title>
<polygon fill="none" stroke="black" points="426,-208 426,-260 624,-260 624,-208 426,-208"/>
</g>
<g id="clust3" class="cluster">
<title>cluster_UserModule_imports</title>
<polygon fill="none" stroke="black" points="16,-78 16,-130 653,-130 653,-78 16,-78"/>
</g>
<!-- AccountModule -->
<g id="node1" class="node">
<title>AccountModule</title>
<polygon fill="#8dd3c7" stroke="black" points="645.48,-122 642.48,-126 621.48,-126 618.48,-122 538.52,-122 538.52,-86 645.48,-86 645.48,-122"/>
<text text-anchor="middle" x="592" y="-99.8" font-family="Times,serif" font-size="14.00">AccountModule</text>
</g>
<!-- UserModule -->
<g id="node6" class="node">
<title>UserModule</title>
<polygon fill="#8dd3c7" stroke="black" points="570.98,-187 567.98,-191 546.98,-191 543.98,-187 485.02,-187 485.02,-151 570.98,-151 570.98,-187"/>
<text text-anchor="middle" x="528" y="-164.8" font-family="Times,serif" font-size="14.00">UserModule</text>
</g>
<!-- AccountModule&#45;&gt;UserModule -->
<g id="edge1" class="edge">
<title>AccountModule&#45;&gt;UserModule</title>
<path fill="none" stroke="black" d="M554.75,-122.11C554.75,-122.11 554.75,-140.99 554.75,-140.99"/>
<polygon fill="black" stroke="black" points="551.25,-140.99 554.75,-150.99 558.25,-140.99 551.25,-140.99"/>
</g>
<!-- CalendarModule -->
<g id="node2" class="node">
<title>CalendarModule</title>
<polygon fill="#8dd3c7" stroke="black" points="520.08,-122 517.08,-126 496.08,-126 493.08,-122 409.92,-122 409.92,-86 520.08,-86 520.08,-122"/>
<text text-anchor="middle" x="465" y="-99.8" font-family="Times,serif" font-size="14.00">CalendarModule</text>
</g>
<!-- CalendarModule&#45;&gt;UserModule -->
<g id="edge2" class="edge">
<title>CalendarModule&#45;&gt;UserModule</title>
<path fill="none" stroke="black" d="M502.53,-122.11C502.53,-122.11 502.53,-140.99 502.53,-140.99"/>
<polygon fill="black" stroke="black" points="499.03,-140.99 502.53,-150.99 506.03,-140.99 499.03,-140.99"/>
</g>
<!-- LoggerModule -->
<g id="node3" class="node">
<title>LoggerModule</title>
<polygon fill="#8dd3c7" stroke="black" points="391.98,-122 388.98,-126 367.98,-126 364.98,-122 292.02,-122 292.02,-86 391.98,-86 391.98,-122"/>
<text text-anchor="middle" x="342" y="-99.8" font-family="Times,serif" font-size="14.00">LoggerModule</text>
</g>
<!-- LoggerModule&#45;&gt;UserModule -->
<g id="edge3" class="edge">
<title>LoggerModule&#45;&gt;UserModule</title>
<path fill="none" stroke="black" d="M342,-122.03C342,-138.4 342,-160 342,-160 342,-160 474.86,-160 474.86,-160"/>
<polygon fill="black" stroke="black" points="474.86,-163.5 484.86,-160 474.86,-156.5 474.86,-163.5"/>
</g>
<!-- RegistrationPinModule -->
<g id="node4" class="node">
<title>RegistrationPinModule</title>
<polygon fill="#8dd3c7" stroke="black" points="274.16,-122 271.16,-126 250.16,-126 247.16,-122 127.84,-122 127.84,-86 274.16,-86 274.16,-122"/>
<text text-anchor="middle" x="201" y="-99.8" font-family="Times,serif" font-size="14.00">RegistrationPinModule</text>
</g>
<!-- RegistrationPinModule&#45;&gt;UserModule -->
<g id="edge4" class="edge">
<title>RegistrationPinModule&#45;&gt;UserModule</title>
<path fill="none" stroke="black" d="M201,-122.11C201,-141.34 201,-169 201,-169 201,-169 474.91,-169 474.91,-169"/>
<polygon fill="black" stroke="black" points="474.91,-172.5 484.91,-169 474.91,-165.5 474.91,-172.5"/>
</g>
<!-- RoleModule -->
<g id="node5" class="node">
<title>RoleModule</title>
<polygon fill="#8dd3c7" stroke="black" points="109.99,-122 106.99,-126 85.99,-126 82.99,-122 24.01,-122 24.01,-86 109.99,-86 109.99,-122"/>
<text text-anchor="middle" x="67" y="-99.8" font-family="Times,serif" font-size="14.00">RoleModule</text>
</g>
<!-- RoleModule&#45;&gt;UserModule -->
<g id="edge5" class="edge">
<title>RoleModule&#45;&gt;UserModule</title>
<path fill="none" stroke="black" d="M67,-122.29C67,-144.21 67,-178 67,-178 67,-178 474.63,-178 474.63,-178"/>
<polygon fill="black" stroke="black" points="474.63,-181.5 484.63,-178 474.63,-174.5 474.63,-181.5"/>
</g>
<!-- UserRepo  -->
<g id="node7" class="node">
<title>UserRepo </title>
<polygon fill="#fb8072" stroke="black" points="615.98,-252 540.02,-252 540.02,-216 615.98,-216 615.98,-252"/>
<text text-anchor="middle" x="578" y="-229.8" font-family="Times,serif" font-size="14.00">UserRepo </text>
</g>
<!-- UserModule&#45;&gt;UserRepo  -->
<g id="edge6" class="edge">
<title>UserModule&#45;&gt;UserRepo </title>
<path fill="none" stroke="black" stroke-dasharray="5,2" d="M555.62,-187.11C555.62,-187.11 555.62,-205.99 555.62,-205.99"/>
<polygon fill="black" stroke="black" points="552.12,-205.99 555.62,-215.99 559.12,-205.99 552.12,-205.99"/>
</g>
<!-- UserService  -->
<g id="node8" class="node">
<title>UserService </title>
<polygon fill="#fb8072" stroke="black" points="521.9,-252 434.1,-252 434.1,-216 521.9,-216 521.9,-252"/>
<text text-anchor="middle" x="478" y="-229.8" font-family="Times,serif" font-size="14.00">UserService </text>
</g>
<!-- UserModule&#45;&gt;UserService  -->
<g id="edge7" class="edge">
<title>UserModule&#45;&gt;UserService </title>
<path fill="none" stroke="black" stroke-dasharray="5,2" d="M503.48,-187.11C503.48,-187.11 503.48,-205.99 503.48,-205.99"/>
<polygon fill="black" stroke="black" points="499.98,-205.99 503.48,-215.99 506.98,-205.99 499.98,-205.99"/>
</g>
<!-- UserDORepo -->
<g id="node9" class="node">
<title>UserDORepo</title>
<ellipse fill="#fdb462" stroke="black" cx="984" cy="-104" rx="63.68" ry="18"/>
<text text-anchor="middle" x="984" y="-99.8" font-family="Times,serif" font-size="14.00">UserDORepo</text>
</g>
<!-- UserDORepo&#45;&gt;UserModule -->
<g id="edge8" class="edge">
<title>UserDORepo&#45;&gt;UserModule</title>
<path fill="none" stroke="black" d="M984,-122.29C984,-144.21 984,-178 984,-178 984,-178 581.31,-178 581.31,-178"/>
<polygon fill="black" stroke="black" points="581.31,-174.5 571.31,-178 581.31,-181.5 581.31,-174.5"/>
</g>
<!-- UserRepo -->
<g id="node10" class="node">
<title>UserRepo</title>
<ellipse fill="#fdb462" stroke="black" cx="853" cy="-104" rx="49.8" ry="18"/>
<text text-anchor="middle" x="853" y="-99.8" font-family="Times,serif" font-size="14.00">UserRepo</text>
</g>
<!-- UserRepo&#45;&gt;UserModule -->
<g id="edge9" class="edge">
<title>UserRepo&#45;&gt;UserModule</title>
<path fill="none" stroke="black" d="M853,-122.11C853,-141.34 853,-169 853,-169 853,-169 581.16,-169 581.16,-169"/>
<polygon fill="black" stroke="black" points="581.16,-165.5 571.16,-169 581.16,-172.5 581.16,-165.5"/>
</g>
<!-- UserService -->
<g id="node11" class="node">
<title>UserService</title>
<ellipse fill="#fdb462" stroke="black" cx="727" cy="-104" rx="58.44" ry="18"/>
<text text-anchor="middle" x="727" y="-99.8" font-family="Times,serif" font-size="14.00">UserService</text>
</g>
<!-- UserService&#45;&gt;UserModule -->
<g id="edge10" class="edge">
<title>UserService&#45;&gt;UserModule</title>
<path fill="none" stroke="black" d="M727,-122.03C727,-138.4 727,-160 727,-160 727,-160 581.18,-160 581.18,-160"/>
<polygon fill="black" stroke="black" points="581.18,-156.5 571.18,-160 581.18,-163.5 581.18,-156.5"/>
</g>
</g>
</svg>
