<?xml version="1.0" encoding="UTF-8" standalone="no"?>
<!DOCTYPE svg PUBLIC "-//W3C//DTD SVG 1.1//EN"
 "http://www.w3.org/Graphics/SVG/1.1/DTD/svg11.dtd">
<!-- Generated by graphviz version 2.47.0 (20210316.0004)
 -->
<!-- Title: dependencies Pages: 1 -->
<svg width="903pt" height="284pt"
 viewBox="0.00 0.00 903.00 284.00" xmlns="http://www.w3.org/2000/svg" xmlns:xlink="http://www.w3.org/1999/xlink">
<g id="graph0" class="graph" transform="scale(1 1) rotate(0) translate(4 280)">
<title>dependencies</title>
<polygon fill="white" stroke="transparent" points="-4,4 -4,-280 899,-280 899,4 -4,4"/>
<text text-anchor="start" x="426.51" y="-42.4" font-family="Times-12" font-weight="bold" font-size="14.00">Legend</text>
<polygon fill="#ffffb3" stroke="transparent" points="213.5,-10 213.5,-30 233.5,-30 233.5,-10 213.5,-10"/>
<text text-anchor="start" x="237.13" y="-15.4" font-family="Times-12" font-size="14.00"> &#160;Declarations</text>
<polygon fill="#8dd3c7" stroke="transparent" points="326.5,-10 326.5,-30 346.5,-30 346.5,-10 326.5,-10"/>
<text text-anchor="start" x="350.23" y="-15.4" font-family="Times-12" font-size="14.00"> &#160;Module</text>
<polygon fill="#80b1d3" stroke="transparent" points="412.5,-10 412.5,-30 432.5,-30 432.5,-10 412.5,-10"/>
<text text-anchor="start" x="436.28" y="-15.4" font-family="Times-12" font-size="14.00"> &#160;Bootstrap</text>
<polygon fill="#fdb462" stroke="transparent" points="509.5,-10 509.5,-30 529.5,-30 529.5,-10 509.5,-10"/>
<text text-anchor="start" x="533.17" y="-15.4" font-family="Times-12" font-size="14.00"> &#160;Providers</text>
<polygon fill="#fb8072" stroke="transparent" points="605.5,-10 605.5,-30 625.5,-30 625.5,-10 605.5,-10"/>
<text text-anchor="start" x="629.23" y="-15.4" font-family="Times-12" font-size="14.00"> &#160;Exports</text>
<g id="clust1" class="cluster">
<title>cluster_UserModule</title>
<polygon fill="none" stroke="black" stroke-dasharray="1,5" points="8,-70 8,-268 887,-268 887,-70 8,-70"/>
</g>
<g id="clust6" class="cluster">
<title>cluster_UserModule_providers</title>
<polygon fill="none" stroke="black" points="484,-78 484,-130 879,-130 879,-78 484,-78"/>
</g>
<g id="clust3" class="cluster">
<title>cluster_UserModule_imports</title>
<polygon fill="none" stroke="black" points="16,-78 16,-130 476,-130 476,-78 16,-78"/>
</g>
<g id="clust4" class="cluster">
<title>cluster_UserModule_exports</title>
<polygon fill="none" stroke="black" points="313,-208 313,-260 511,-260 511,-208 313,-208"/>
</g>
<!-- AccountModule -->
<g id="node1" class="node">
<title>AccountModule</title>
<polygon fill="#8dd3c7" stroke="black" points="468.48,-122 465.48,-126 444.48,-126 441.48,-122 361.52,-122 361.52,-86 468.48,-86 468.48,-122"/>
<text text-anchor="middle" x="415" y="-99.8" font-family="Times,serif" font-size="14.00">AccountModule</text>
</g>
<!-- UserModule -->
<g id="node5" class="node">
<title>UserModule</title>
<polygon fill="#8dd3c7" stroke="black" points="457.98,-187 454.98,-191 433.98,-191 430.98,-187 372.02,-187 372.02,-151 457.98,-151 457.98,-187"/>
<text text-anchor="middle" x="415" y="-164.8" font-family="Times,serif" font-size="14.00">UserModule</text>
</g>
<!-- AccountModule&#45;&gt;UserModule -->
<g id="edge1" class="edge">
<title>AccountModule&#45;&gt;UserModule</title>
<path fill="none" stroke="black" d="M415,-122.11C415,-122.11 415,-140.99 415,-140.99"/>
<polygon fill="black" stroke="black" points="411.5,-140.99 415,-150.99 418.5,-140.99 411.5,-140.99"/>
</g>
<!-- LoggerModule -->
<g id="node2" class="node">
<title>LoggerModule</title>
<polygon fill="#8dd3c7" stroke="black" points="343.98,-122 340.98,-126 319.98,-126 316.98,-122 244.02,-122 244.02,-86 343.98,-86 343.98,-122"/>
<text text-anchor="middle" x="294" y="-99.8" font-family="Times,serif" font-size="14.00">LoggerModule</text>
</g>
<!-- LoggerModule&#45;&gt;UserModule -->
<g id="edge2" class="edge">
<title>LoggerModule&#45;&gt;UserModule</title>
<path fill="none" stroke="black" d="M332.52,-122.03C332.52,-138.4 332.52,-160 332.52,-160 332.52,-160 361.83,-160 361.83,-160"/>
<polygon fill="black" stroke="black" points="361.83,-163.5 371.83,-160 361.83,-156.5 361.83,-163.5"/>
</g>
<!-- RoleModule -->
<g id="node3" class="node">
<title>RoleModule</title>
<polygon fill="#8dd3c7" stroke="black" points="225.99,-122 222.99,-126 201.99,-126 198.99,-122 140.01,-122 140.01,-86 225.99,-86 225.99,-122"/>
<text text-anchor="middle" x="183" y="-99.8" font-family="Times,serif" font-size="14.00">RoleModule</text>
</g>
<!-- RoleModule&#45;&gt;UserModule -->
<g id="edge3" class="edge">
<title>RoleModule&#45;&gt;UserModule</title>
<path fill="none" stroke="black" d="M183,-122.11C183,-141.34 183,-169 183,-169 183,-169 361.91,-169 361.91,-169"/>
<polygon fill="black" stroke="black" points="361.91,-172.5 371.91,-169 361.91,-165.5 361.91,-172.5"/>
</g>
<!-- SchoolModule -->
<g id="node4" class="node">
<title>SchoolModule</title>
<polygon fill="#8dd3c7" stroke="black" points="122.44,-122 119.44,-126 98.44,-126 95.44,-122 23.56,-122 23.56,-86 122.44,-86 122.44,-122"/>
<text text-anchor="middle" x="73" y="-99.8" font-family="Times,serif" font-size="14.00">SchoolModule</text>
</g>
<!-- SchoolModule&#45;&gt;UserModule -->
<g id="edge4" class="edge">
<title>SchoolModule&#45;&gt;UserModule</title>
<path fill="none" stroke="black" d="M73,-122.29C73,-144.21 73,-178 73,-178 73,-178 361.69,-178 361.69,-178"/>
<polygon fill="black" stroke="black" points="361.69,-181.5 371.69,-178 361.69,-174.5 361.69,-181.5"/>
</g>
<!-- UserRepo  -->
<g id="node6" class="node">
<title>UserRepo </title>
<polygon fill="#fb8072" stroke="black" points="502.98,-252 427.02,-252 427.02,-216 502.98,-216 502.98,-252"/>
<text text-anchor="middle" x="465" y="-229.8" font-family="Times,serif" font-size="14.00">UserRepo </text>
</g>
<!-- UserModule&#45;&gt;UserRepo  -->
<g id="edge5" class="edge">
<title>UserModule&#45;&gt;UserRepo </title>
<path fill="none" stroke="black" stroke-dasharray="5,2" d="M442.62,-187.11C442.62,-187.11 442.62,-205.99 442.62,-205.99"/>
<polygon fill="black" stroke="black" points="439.12,-205.99 442.62,-215.99 446.12,-205.99 439.12,-205.99"/>
</g>
<!-- UserService  -->
<g id="node7" class="node">
<title>UserService </title>
<polygon fill="#fb8072" stroke="black" points="408.9,-252 321.1,-252 321.1,-216 408.9,-216 408.9,-252"/>
<text text-anchor="middle" x="365" y="-229.8" font-family="Times,serif" font-size="14.00">UserService </text>
</g>
<!-- UserModule&#45;&gt;UserService  -->
<g id="edge6" class="edge">
<title>UserModule&#45;&gt;UserService </title>
<path fill="none" stroke="black" stroke-dasharray="5,2" d="M390.48,-187.11C390.48,-187.11 390.48,-205.99 390.48,-205.99"/>
<polygon fill="black" stroke="black" points="386.98,-205.99 390.48,-215.99 393.98,-205.99 386.98,-205.99"/>
</g>
<!-- UserDORepo -->
<g id="node8" class="node">
<title>UserDORepo</title>
<ellipse fill="#fdb462" stroke="black" cx="807" cy="-104" rx="63.68" ry="18"/>
<text text-anchor="middle" x="807" y="-99.8" font-family="Times,serif" font-size="14.00">UserDORepo</text>
</g>
<!-- UserDORepo&#45;&gt;UserModule -->
<g id="edge7" class="edge">
<title>UserDORepo&#45;&gt;UserModule</title>
<path fill="none" stroke="black" d="M807,-122.29C807,-144.21 807,-178 807,-178 807,-178 468.07,-178 468.07,-178"/>
<polygon fill="black" stroke="black" points="468.07,-174.5 458.07,-178 468.07,-181.5 468.07,-174.5"/>
</g>
<!-- UserRepo -->
<g id="node9" class="node">
<title>UserRepo</title>
<ellipse fill="#fdb462" stroke="black" cx="676" cy="-104" rx="49.8" ry="18"/>
<text text-anchor="middle" x="676" y="-99.8" font-family="Times,serif" font-size="14.00">UserRepo</text>
</g>
<!-- UserRepo&#45;&gt;UserModule -->
<g id="edge8" class="edge">
<title>UserRepo&#45;&gt;UserModule</title>
<path fill="none" stroke="black" d="M676,-122.11C676,-141.34 676,-169 676,-169 676,-169 468.1,-169 468.1,-169"/>
<polygon fill="black" stroke="black" points="468.1,-165.5 458.1,-169 468.1,-172.5 468.1,-165.5"/>
</g>
<!-- UserService -->
<g id="node10" class="node">
<title>UserService</title>
<ellipse fill="#fdb462" stroke="black" cx="550" cy="-104" rx="58.44" ry="18"/>
<text text-anchor="middle" x="550" y="-99.8" font-family="Times,serif" font-size="14.00">UserService</text>
</g>
<!-- UserService&#45;&gt;UserModule -->
<g id="edge9" class="edge">
<title>UserService&#45;&gt;UserModule</title>
<path fill="none" stroke="black" d="M497.26,-111.79C497.26,-127.17 497.26,-160 497.26,-160 497.26,-160 468.06,-160 468.06,-160"/>
<polygon fill="black" stroke="black" points="468.06,-156.5 458.06,-160 468.06,-163.5 468.06,-156.5"/>
</g>
</g>
</svg>
