<?xml version="1.0" encoding="UTF-8" standalone="no"?>
<!DOCTYPE svg PUBLIC "-//W3C//DTD SVG 1.1//EN"
 "http://www.w3.org/Graphics/SVG/1.1/DTD/svg11.dtd">
<!-- Generated by graphviz version 2.47.0 (20210316.0004)
 -->
<!-- Title: dependencies Pages: 1 -->
<svg width="951pt" height="284pt"
 viewBox="0.00 0.00 951.00 284.00" xmlns="http://www.w3.org/2000/svg" xmlns:xlink="http://www.w3.org/1999/xlink">
<g id="graph0" class="graph" transform="scale(1 1) rotate(0) translate(4 280)">
<title>dependencies</title>
<polygon fill="white" stroke="transparent" points="-4,4 -4,-280 947,-280 947,4 -4,4"/>
<text text-anchor="start" x="450.51" y="-42.4" font-family="Times-12" font-weight="bold" font-size="14.00">Legend</text>
<polygon fill="#ffffb3" stroke="transparent" points="237.5,-10 237.5,-30 257.5,-30 257.5,-10 237.5,-10"/>
<text text-anchor="start" x="261.13" y="-15.4" font-family="Times-12" font-size="14.00"> &#160;Declarations</text>
<polygon fill="#8dd3c7" stroke="transparent" points="350.5,-10 350.5,-30 370.5,-30 370.5,-10 350.5,-10"/>
<text text-anchor="start" x="374.23" y="-15.4" font-family="Times-12" font-size="14.00"> &#160;Module</text>
<polygon fill="#80b1d3" stroke="transparent" points="436.5,-10 436.5,-30 456.5,-30 456.5,-10 436.5,-10"/>
<text text-anchor="start" x="460.28" y="-15.4" font-family="Times-12" font-size="14.00"> &#160;Bootstrap</text>
<polygon fill="#fdb462" stroke="transparent" points="533.5,-10 533.5,-30 553.5,-30 553.5,-10 533.5,-10"/>
<text text-anchor="start" x="557.17" y="-15.4" font-family="Times-12" font-size="14.00"> &#160;Providers</text>
<polygon fill="#fb8072" stroke="transparent" points="629.5,-10 629.5,-30 649.5,-30 649.5,-10 629.5,-10"/>
<text text-anchor="start" x="653.23" y="-15.4" font-family="Times-12" font-size="14.00"> &#160;Exports</text>
<g id="clust1" class="cluster">
<title>cluster_UserModule</title>
<polygon fill="none" stroke="black" stroke-dasharray="1,5" points="8,-70 8,-268 935,-268 935,-70 8,-70"/>
</g>
<g id="clust6" class="cluster">
<title>cluster_UserModule_providers</title>
<polygon fill="none" stroke="black" points="532,-78 532,-130 927,-130 927,-78 532,-78"/>
</g>
<g id="clust4" class="cluster">
<title>cluster_UserModule_exports</title>
<polygon fill="none" stroke="black" points="361,-208 361,-260 559,-260 559,-208 361,-208"/>
</g>
<g id="clust3" class="cluster">
<title>cluster_UserModule_imports</title>
<polygon fill="none" stroke="black" points="16,-78 16,-130 524,-130 524,-78 16,-78"/>
</g>
<!-- AccountModule -->
<g id="node1" class="node">
<title>AccountModule</title>
<polygon fill="#8dd3c7" stroke="black" points="516.48,-122 513.48,-126 492.48,-126 489.48,-122 409.52,-122 409.52,-86 516.48,-86 516.48,-122"/>
<text text-anchor="middle" x="463" y="-99.8" font-family="Times,serif" font-size="14.00">AccountModule</text>
</g>
<!-- UserModule -->
<g id="node5" class="node">
<title>UserModule</title>
<polygon fill="#8dd3c7" stroke="black" points="505.98,-187 502.98,-191 481.98,-191 478.98,-187 420.02,-187 420.02,-151 505.98,-151 505.98,-187"/>
<text text-anchor="middle" x="463" y="-164.8" font-family="Times,serif" font-size="14.00">UserModule</text>
</g>
<!-- AccountModule&#45;&gt;UserModule -->
<g id="edge1" class="edge">
<title>AccountModule&#45;&gt;UserModule</title>
<path fill="none" stroke="black" d="M463,-122.11C463,-122.11 463,-140.99 463,-140.99"/>
<polygon fill="black" stroke="black" points="459.5,-140.99 463,-150.99 466.5,-140.99 459.5,-140.99"/>
</g>
<!-- LoggerModule -->
<g id="node2" class="node">
<title>LoggerModule</title>
<polygon fill="#8dd3c7" stroke="black" points="391.98,-122 388.98,-126 367.98,-126 364.98,-122 292.02,-122 292.02,-86 391.98,-86 391.98,-122"/>
<text text-anchor="middle" x="342" y="-99.8" font-family="Times,serif" font-size="14.00">LoggerModule</text>
</g>
<!-- LoggerModule&#45;&gt;UserModule -->
<g id="edge2" class="edge">
<title>LoggerModule&#45;&gt;UserModule</title>
<path fill="none" stroke="black" d="M380.52,-122.03C380.52,-138.4 380.52,-160 380.52,-160 380.52,-160 409.83,-160 409.83,-160"/>
<polygon fill="black" stroke="black" points="409.83,-163.5 419.83,-160 409.83,-156.5 409.83,-163.5"/>
</g>
<!-- RegistrationPinModule -->
<g id="node3" class="node">
<title>RegistrationPinModule</title>
<polygon fill="#8dd3c7" stroke="black" points="274.16,-122 271.16,-126 250.16,-126 247.16,-122 127.84,-122 127.84,-86 274.16,-86 274.16,-122"/>
<text text-anchor="middle" x="201" y="-99.8" font-family="Times,serif" font-size="14.00">RegistrationPinModule</text>
</g>
<!-- RegistrationPinModule&#45;&gt;UserModule -->
<g id="edge3" class="edge">
<title>RegistrationPinModule&#45;&gt;UserModule</title>
<path fill="none" stroke="black" d="M201,-122.11C201,-141.34 201,-169 201,-169 201,-169 409.74,-169 409.74,-169"/>
<polygon fill="black" stroke="black" points="409.74,-172.5 419.74,-169 409.74,-165.5 409.74,-172.5"/>
</g>
<!-- RoleModule -->
<g id="node4" class="node">
<title>RoleModule</title>
<polygon fill="#8dd3c7" stroke="black" points="109.99,-122 106.99,-126 85.99,-126 82.99,-122 24.01,-122 24.01,-86 109.99,-86 109.99,-122"/>
<text text-anchor="middle" x="67" y="-99.8" font-family="Times,serif" font-size="14.00">RoleModule</text>
</g>
<!-- RoleModule&#45;&gt;UserModule -->
<g id="edge4" class="edge">
<title>RoleModule&#45;&gt;UserModule</title>
<path fill="none" stroke="black" d="M67,-122.29C67,-144.21 67,-178 67,-178 67,-178 409.87,-178 409.87,-178"/>
<polygon fill="black" stroke="black" points="409.87,-181.5 419.87,-178 409.87,-174.5 409.87,-181.5"/>
</g>
<!-- UserRepo  -->
<g id="node6" class="node">
<title>UserRepo </title>
<polygon fill="#fb8072" stroke="black" points="550.98,-252 475.02,-252 475.02,-216 550.98,-216 550.98,-252"/>
<text text-anchor="middle" x="513" y="-229.8" font-family="Times,serif" font-size="14.00">UserRepo </text>
</g>
<!-- UserModule&#45;&gt;UserRepo  -->
<g id="edge5" class="edge">
<title>UserModule&#45;&gt;UserRepo </title>
<path fill="none" stroke="black" stroke-dasharray="5,2" d="M490.62,-187.11C490.62,-187.11 490.62,-205.99 490.62,-205.99"/>
<polygon fill="black" stroke="black" points="487.12,-205.99 490.62,-215.99 494.12,-205.99 487.12,-205.99"/>
</g>
<!-- UserService  -->
<g id="node7" class="node">
<title>UserService </title>
<polygon fill="#fb8072" stroke="black" points="456.9,-252 369.1,-252 369.1,-216 456.9,-216 456.9,-252"/>
<text text-anchor="middle" x="413" y="-229.8" font-family="Times,serif" font-size="14.00">UserService </text>
</g>
<!-- UserModule&#45;&gt;UserService  -->
<g id="edge6" class="edge">
<title>UserModule&#45;&gt;UserService </title>
<path fill="none" stroke="black" stroke-dasharray="5,2" d="M438.48,-187.11C438.48,-187.11 438.48,-205.99 438.48,-205.99"/>
<polygon fill="black" stroke="black" points="434.98,-205.99 438.48,-215.99 441.98,-205.99 434.98,-205.99"/>
</g>
<!-- UserDORepo -->
<g id="node8" class="node">
<title>UserDORepo</title>
<ellipse fill="#fdb462" stroke="black" cx="855" cy="-104" rx="63.68" ry="18"/>
<text text-anchor="middle" x="855" y="-99.8" font-family="Times,serif" font-size="14.00">UserDORepo</text>
</g>
<!-- UserDORepo&#45;&gt;UserModule -->
<g id="edge7" class="edge">
<title>UserDORepo&#45;&gt;UserModule</title>
<path fill="none" stroke="black" d="M855,-122.29C855,-144.21 855,-178 855,-178 855,-178 516.07,-178 516.07,-178"/>
<polygon fill="black" stroke="black" points="516.07,-174.5 506.07,-178 516.07,-181.5 516.07,-174.5"/>
</g>
<!-- UserRepo -->
<g id="node9" class="node">
<title>UserRepo</title>
<ellipse fill="#fdb462" stroke="black" cx="724" cy="-104" rx="49.8" ry="18"/>
<text text-anchor="middle" x="724" y="-99.8" font-family="Times,serif" font-size="14.00">UserRepo</text>
</g>
<!-- UserRepo&#45;&gt;UserModule -->
<g id="edge8" class="edge">
<title>UserRepo&#45;&gt;UserModule</title>
<path fill="none" stroke="black" d="M724,-122.11C724,-141.34 724,-169 724,-169 724,-169 516.1,-169 516.1,-169"/>
<polygon fill="black" stroke="black" points="516.1,-165.5 506.1,-169 516.1,-172.5 516.1,-165.5"/>
</g>
<!-- UserService -->
<g id="node10" class="node">
<title>UserService</title>
<ellipse fill="#fdb462" stroke="black" cx="598" cy="-104" rx="58.44" ry="18"/>
<text text-anchor="middle" x="598" y="-99.8" font-family="Times,serif" font-size="14.00">UserService</text>
</g>
<!-- UserService&#45;&gt;UserModule -->
<g id="edge9" class="edge">
<title>UserService&#45;&gt;UserModule</title>
<path fill="none" stroke="black" d="M545.26,-111.79C545.26,-127.17 545.26,-160 545.26,-160 545.26,-160 516.06,-160 516.06,-160"/>
<polygon fill="black" stroke="black" points="516.06,-156.5 506.06,-160 516.06,-163.5 516.06,-156.5"/>
</g>
</g>
</svg>
