<?xml version="1.0" encoding="UTF-8" standalone="no"?>
<!DOCTYPE svg PUBLIC "-//W3C//DTD SVG 1.1//EN"
 "http://www.w3.org/Graphics/SVG/1.1/DTD/svg11.dtd">
<!-- Generated by graphviz version 5.0.0 (20220707.1540)
 -->
<!-- Title: dependencies Pages: 1 -->
<svg width="903pt" height="247pt"
 viewBox="0.00 0.00 903.00 246.80" xmlns="http://www.w3.org/2000/svg" xmlns:xlink="http://www.w3.org/1999/xlink">
<g id="graph0" class="graph" transform="scale(1 1) rotate(0) translate(4 242.8)">
<title>dependencies</title>
<polygon fill="white" stroke="transparent" points="-4,4 -4,-242.8 899,-242.8 899,4 -4,4"/>
<text text-anchor="middle" x="447.5" y="-8.2" font-family="sans-serif" font-size="14.00">dependencies</text>
<g id="clust1" class="cluster">
<title>cluster_UserModule</title>
<polygon fill="none" stroke="black" stroke-dasharray="1,5" points="8,-32.8 8,-230.8 887,-230.8 887,-32.8 8,-32.8"/>
</g>
<g id="clust3" class="cluster">
<title>cluster_UserModule_imports</title>
<polygon fill="none" stroke="black" points="419,-40.8 419,-92.8 879,-92.8 879,-40.8 419,-40.8"/>
</g>
<g id="clust4" class="cluster">
<title>cluster_UserModule_exports</title>
<polygon fill="none" stroke="black" points="374,-170.8 374,-222.8 572,-222.8 572,-170.8 374,-170.8"/>
</g>
<g id="clust6" class="cluster">
<title>cluster_UserModule_providers</title>
<polygon fill="none" stroke="black" points="16,-40.8 16,-92.8 411,-92.8 411,-40.8 16,-40.8"/>
</g>
<!-- AccountModule -->
<g id="node1" class="node">
<title>AccountModule</title>
<polygon fill="#8dd3c7" stroke="black" points="871.48,-84.8 868.48,-88.8 847.48,-88.8 844.48,-84.8 764.52,-84.8 764.52,-48.8 871.48,-48.8 871.48,-84.8"/>
<text text-anchor="middle" x="818" y="-62.6" font-family="Times,serif" font-size="14.00">AccountModule</text>
</g>
<!-- UserModule -->
<g id="node5" class="node">
<title>UserModule</title>
<polygon fill="#8dd3c7" stroke="black" points="518.99,-149.8 515.99,-153.8 494.99,-153.8 491.99,-149.8 433.01,-149.8 433.01,-113.8 518.99,-113.8 518.99,-149.8"/>
<text text-anchor="middle" x="476" y="-127.6" font-family="Times,serif" font-size="14.00">UserModule</text>
</g>
<!-- AccountModule&#45;&gt;UserModule -->
<g id="edge1" class="edge">
<title>AccountModule&#45;&gt;UserModule</title>
<path fill="none" stroke="black" d="M818,-85.09C818,-107.01 818,-140.8 818,-140.8 818,-140.8 529.31,-140.8 529.31,-140.8"/>
<polygon fill="black" stroke="black" points="529.31,-137.3 519.31,-140.8 529.31,-144.3 529.31,-137.3"/>
</g>
<!-- LoggerModule -->
<g id="node2" class="node">
<title>LoggerModule</title>
<polygon fill="#8dd3c7" stroke="black" points="746.98,-84.8 743.98,-88.8 722.98,-88.8 719.98,-84.8 647.02,-84.8 647.02,-48.8 746.98,-48.8 746.98,-84.8"/>
<text text-anchor="middle" x="697" y="-62.6" font-family="Times,serif" font-size="14.00">LoggerModule</text>
</g>
<!-- LoggerModule&#45;&gt;UserModule -->
<g id="edge2" class="edge">
<title>LoggerModule&#45;&gt;UserModule</title>
<path fill="none" stroke="black" d="M697,-84.91C697,-104.14 697,-131.8 697,-131.8 697,-131.8 529.14,-131.8 529.14,-131.8"/>
<polygon fill="black" stroke="black" points="529.14,-128.3 519.14,-131.8 529.14,-135.3 529.14,-128.3"/>
</g>
<!-- RoleModule -->
<g id="node3" class="node">
<title>RoleModule</title>
<polygon fill="#8dd3c7" stroke="black" points="628.99,-84.8 625.99,-88.8 604.99,-88.8 601.99,-84.8 543.01,-84.8 543.01,-48.8 628.99,-48.8 628.99,-84.8"/>
<text text-anchor="middle" x="586" y="-62.6" font-family="Times,serif" font-size="14.00">RoleModule</text>
</g>
<!-- RoleModule&#45;&gt;UserModule -->
<g id="edge3" class="edge">
<title>RoleModule&#45;&gt;UserModule</title>
<path fill="none" stroke="black" d="M553.37,-84.83C553.37,-101.2 553.37,-122.8 553.37,-122.8 553.37,-122.8 529.21,-122.8 529.21,-122.8"/>
<polygon fill="black" stroke="black" points="529.21,-119.3 519.21,-122.8 529.21,-126.3 529.21,-119.3"/>
</g>
<!-- SchoolModule -->
<g id="node4" class="node">
<title>SchoolModule</title>
<polygon fill="#8dd3c7" stroke="black" points="525.44,-84.8 522.44,-88.8 501.44,-88.8 498.44,-84.8 426.56,-84.8 426.56,-48.8 525.44,-48.8 525.44,-84.8"/>
<text text-anchor="middle" x="476" y="-62.6" font-family="Times,serif" font-size="14.00">SchoolModule</text>
</g>
<!-- SchoolModule&#45;&gt;UserModule -->
<g id="edge4" class="edge">
<title>SchoolModule&#45;&gt;UserModule</title>
<path fill="none" stroke="black" d="M476,-84.91C476,-84.91 476,-103.79 476,-103.79"/>
<polygon fill="black" stroke="black" points="472.5,-103.79 476,-113.79 479.5,-103.79 472.5,-103.79"/>
</g>
<!-- UserRepo  -->
<g id="node6" class="node">
<title>UserRepo </title>
<polygon fill="#fb8072" stroke="black" points="563.99,-214.8 488.01,-214.8 488.01,-178.8 563.99,-178.8 563.99,-214.8"/>
<text text-anchor="middle" x="526" y="-192.6" font-family="Times,serif" font-size="14.00">UserRepo </text>
</g>
<!-- UserModule&#45;&gt;UserRepo  -->
<g id="edge5" class="edge">
<title>UserModule&#45;&gt;UserRepo </title>
<path fill="none" stroke="black" stroke-dasharray="5,2" d="M503.62,-149.91C503.62,-149.91 503.62,-168.79 503.62,-168.79"/>
<polygon fill="black" stroke="black" points="500.13,-168.79 503.62,-178.79 507.13,-168.79 500.13,-168.79"/>
</g>
<!-- UserService  -->
<g id="node7" class="node">
<title>UserService </title>
<polygon fill="#fb8072" stroke="black" points="469.91,-214.8 382.09,-214.8 382.09,-178.8 469.91,-178.8 469.91,-214.8"/>
<text text-anchor="middle" x="426" y="-192.6" font-family="Times,serif" font-size="14.00">UserService </text>
</g>
<!-- UserModule&#45;&gt;UserService  -->
<g id="edge6" class="edge">
<title>UserModule&#45;&gt;UserService </title>
<path fill="none" stroke="black" stroke-dasharray="5,2" d="M451.48,-149.91C451.48,-149.91 451.48,-168.79 451.48,-168.79"/>
<polygon fill="black" stroke="black" points="447.98,-168.79 451.48,-178.79 454.98,-168.79 447.98,-168.79"/>
</g>
<!-- UserDORepo -->
<g id="node8" class="node">
<title>UserDORepo</title>
<ellipse fill="#fdb462" stroke="black" cx="339" cy="-66.8" rx="63.71" ry="18"/>
<text text-anchor="middle" x="339" y="-62.6" font-family="Times,serif" font-size="14.00">UserDORepo</text>
</g>
<!-- UserDORepo&#45;&gt;UserModule -->
<g id="edge7" class="edge">
<title>UserDORepo&#45;&gt;UserModule</title>
<path fill="none" stroke="black" d="M392.32,-76.81C392.32,-92.92 392.32,-122.8 392.32,-122.8 392.32,-122.8 422.69,-122.8 422.69,-122.8"/>
<polygon fill="black" stroke="black" points="422.69,-126.3 432.69,-122.8 422.69,-119.3 422.69,-126.3"/>
</g>
<!-- UserRepo -->
<g id="node9" class="node">
<title>UserRepo</title>
<ellipse fill="#fdb462" stroke="black" cx="208" cy="-66.8" rx="49.81" ry="18"/>
<text text-anchor="middle" x="208" y="-62.6" font-family="Times,serif" font-size="14.00">UserRepo</text>
</g>
<!-- UserRepo&#45;&gt;UserModule -->
<g id="edge8" class="edge">
<title>UserRepo&#45;&gt;UserModule</title>
<path fill="none" stroke="black" d="M208,-84.91C208,-104.14 208,-131.8 208,-131.8 208,-131.8 422.94,-131.8 422.94,-131.8"/>
<polygon fill="black" stroke="black" points="422.94,-135.3 432.94,-131.8 422.94,-128.3 422.94,-135.3"/>
</g>
<!-- UserService -->
<g id="node10" class="node">
<title>UserService</title>
<ellipse fill="#fdb462" stroke="black" cx="82" cy="-66.8" rx="58.46" ry="18"/>
<text text-anchor="middle" x="82" y="-62.6" font-family="Times,serif" font-size="14.00">UserService</text>
</g>
<!-- UserService&#45;&gt;UserModule -->
<g id="edge9" class="edge">
<title>UserService&#45;&gt;UserModule</title>
<path fill="none" stroke="black" d="M82,-85.09C82,-107.01 82,-140.8 82,-140.8 82,-140.8 422.71,-140.8 422.71,-140.8"/>
<polygon fill="black" stroke="black" points="422.71,-144.3 432.71,-140.8 422.71,-137.3 422.71,-144.3"/>
</g>
</g>
</svg>
