<?xml version="1.0" encoding="UTF-8" standalone="no"?>
<!DOCTYPE svg PUBLIC "-//W3C//DTD SVG 1.1//EN"
 "http://www.w3.org/Graphics/SVG/1.1/DTD/svg11.dtd">
<!-- Generated by graphviz version 5.0.0 (20220707.1540)
 -->
<!-- Title: dependencies Pages: 1 -->
<svg width="1087pt" height="247pt"
 viewBox="0.00 0.00 1087.00 246.80" xmlns="http://www.w3.org/2000/svg" xmlns:xlink="http://www.w3.org/1999/xlink">
<g id="graph0" class="graph" transform="scale(1 1) rotate(0) translate(4 242.8)">
<title>dependencies</title>
<polygon fill="white" stroke="transparent" points="-4,4 -4,-242.8 1083,-242.8 1083,4 -4,4"/>
<text text-anchor="middle" x="539.5" y="-8.2" font-family="sans-serif" font-size="14.00">dependencies</text>
<g id="clust1" class="cluster">
<title>cluster_UserModule</title>
<polygon fill="none" stroke="black" stroke-dasharray="1,5" points="8,-32.8 8,-230.8 1071,-230.8 1071,-32.8 8,-32.8"/>
</g>
<g id="clust4" class="cluster">
<title>cluster_UserModule_exports</title>
<polygon fill="none" stroke="black" points="480,-170.8 480,-222.8 678,-222.8 678,-170.8 480,-170.8"/>
</g>
<g id="clust3" class="cluster">
<title>cluster_UserModule_imports</title>
<polygon fill="none" stroke="black" points="603,-40.8 603,-92.8 1063,-92.8 1063,-40.8 603,-40.8"/>
</g>
<g id="clust6" class="cluster">
<title>cluster_UserModule_providers</title>
<polygon fill="none" stroke="black" points="16,-40.8 16,-92.8 595,-92.8 595,-40.8 16,-40.8"/>
</g>
<!-- AccountModule -->
<g id="node1" class="node">
<title>AccountModule</title>
<polygon fill="#8dd3c7" stroke="black" points="1055.48,-84.8 1052.48,-88.8 1031.48,-88.8 1028.48,-84.8 948.52,-84.8 948.52,-48.8 1055.48,-48.8 1055.48,-84.8"/>
<text text-anchor="middle" x="1002" y="-62.6" font-family="Times,serif" font-size="14.00">AccountModule</text>
</g>
<!-- UserModule -->
<g id="node5" class="node">
<title>UserModule</title>
<polygon fill="#8dd3c7" stroke="black" points="624.99,-149.8 621.99,-153.8 600.99,-153.8 597.99,-149.8 539.01,-149.8 539.01,-113.8 624.99,-113.8 624.99,-149.8"/>
<text text-anchor="middle" x="582" y="-127.6" font-family="Times,serif" font-size="14.00">UserModule</text>
</g>
<!-- AccountModule&#45;&gt;UserModule -->
<g id="edge1" class="edge">
<title>AccountModule&#45;&gt;UserModule</title>
<path fill="none" stroke="black" d="M1002,-85.09C1002,-107.01 1002,-140.8 1002,-140.8 1002,-140.8 635.37,-140.8 635.37,-140.8"/>
<polygon fill="black" stroke="black" points="635.37,-137.3 625.37,-140.8 635.37,-144.3 635.37,-137.3"/>
</g>
<!-- LoggerModule -->
<g id="node2" class="node">
<title>LoggerModule</title>
<polygon fill="#8dd3c7" stroke="black" points="930.98,-84.8 927.98,-88.8 906.98,-88.8 903.98,-84.8 831.02,-84.8 831.02,-48.8 930.98,-48.8 930.98,-84.8"/>
<text text-anchor="middle" x="881" y="-62.6" font-family="Times,serif" font-size="14.00">LoggerModule</text>
</g>
<!-- LoggerModule&#45;&gt;UserModule -->
<g id="edge2" class="edge">
<title>LoggerModule&#45;&gt;UserModule</title>
<path fill="none" stroke="black" d="M881,-84.91C881,-104.14 881,-131.8 881,-131.8 881,-131.8 635.16,-131.8 635.16,-131.8"/>
<polygon fill="black" stroke="black" points="635.16,-128.3 625.16,-131.8 635.16,-135.3 635.16,-128.3"/>
</g>
<!-- RoleModule -->
<g id="node3" class="node">
<title>RoleModule</title>
<polygon fill="#8dd3c7" stroke="black" points="812.99,-84.8 809.99,-88.8 788.99,-88.8 785.99,-84.8 727.01,-84.8 727.01,-48.8 812.99,-48.8 812.99,-84.8"/>
<text text-anchor="middle" x="770" y="-62.6" font-family="Times,serif" font-size="14.00">RoleModule</text>
</g>
<!-- RoleModule&#45;&gt;UserModule -->
<g id="edge3" class="edge">
<title>RoleModule&#45;&gt;UserModule</title>
<path fill="none" stroke="black" d="M770,-84.83C770,-101.2 770,-122.8 770,-122.8 770,-122.8 635.13,-122.8 635.13,-122.8"/>
<polygon fill="black" stroke="black" points="635.13,-119.3 625.13,-122.8 635.13,-126.3 635.13,-119.3"/>
</g>
<!-- SchoolModule -->
<g id="node4" class="node">
<title>SchoolModule</title>
<polygon fill="#8dd3c7" stroke="black" points="709.44,-84.8 706.44,-88.8 685.44,-88.8 682.44,-84.8 610.56,-84.8 610.56,-48.8 709.44,-48.8 709.44,-84.8"/>
<text text-anchor="middle" x="660" y="-62.6" font-family="Times,serif" font-size="14.00">SchoolModule</text>
</g>
<!-- SchoolModule&#45;&gt;UserModule -->
<g id="edge4" class="edge">
<title>SchoolModule&#45;&gt;UserModule</title>
<path fill="none" stroke="black" d="M617.89,-84.91C617.89,-84.91 617.89,-103.79 617.89,-103.79"/>
<polygon fill="black" stroke="black" points="614.39,-103.79 617.89,-113.79 621.39,-103.79 614.39,-103.79"/>
</g>
<!-- UserRepo  -->
<g id="node6" class="node">
<title>UserRepo </title>
<polygon fill="#fb8072" stroke="black" points="669.99,-214.8 594.01,-214.8 594.01,-178.8 669.99,-178.8 669.99,-214.8"/>
<text text-anchor="middle" x="632" y="-192.6" font-family="Times,serif" font-size="14.00">UserRepo </text>
</g>
<!-- UserModule&#45;&gt;UserRepo  -->
<g id="edge5" class="edge">
<title>UserModule&#45;&gt;UserRepo </title>
<path fill="none" stroke="black" stroke-dasharray="5,2" d="M609.62,-149.91C609.62,-149.91 609.62,-168.79 609.62,-168.79"/>
<polygon fill="black" stroke="black" points="606.13,-168.79 609.62,-178.79 613.13,-168.79 606.13,-168.79"/>
</g>
<!-- UserService  -->
<g id="node7" class="node">
<title>UserService </title>
<polygon fill="#fb8072" stroke="black" points="575.91,-214.8 488.09,-214.8 488.09,-178.8 575.91,-178.8 575.91,-214.8"/>
<text text-anchor="middle" x="532" y="-192.6" font-family="Times,serif" font-size="14.00">UserService </text>
</g>
<!-- UserModule&#45;&gt;UserService  -->
<g id="edge6" class="edge">
<title>UserModule&#45;&gt;UserService </title>
<path fill="none" stroke="black" stroke-dasharray="5,2" d="M557.48,-149.91C557.48,-149.91 557.48,-168.79 557.48,-168.79"/>
<polygon fill="black" stroke="black" points="553.98,-168.79 557.48,-178.79 560.98,-168.79 553.98,-168.79"/>
</g>
<!-- PermissionService -->
<g id="node8" class="node">
<title>PermissionService</title>
<ellipse fill="#fdb462" stroke="black" cx="504" cy="-66.8" rx="82.83" ry="18"/>
<text text-anchor="middle" x="504" y="-62.6" font-family="Times,serif" font-size="14.00">PermissionService</text>
</g>
<!-- PermissionService&#45;&gt;UserModule -->
<g id="edge7" class="edge">
<title>PermissionService&#45;&gt;UserModule</title>
<path fill="none" stroke="black" d="M562.96,-79.64C562.96,-79.64 562.96,-103.32 562.96,-103.32"/>
<polygon fill="black" stroke="black" points="559.46,-103.32 562.96,-113.32 566.46,-103.32 559.46,-103.32"/>
</g>
<!-- UserDORepo -->
<g id="node9" class="node">
<title>UserDORepo</title>
<ellipse fill="#fdb462" stroke="black" cx="339" cy="-66.8" rx="63.71" ry="18"/>
<text text-anchor="middle" x="339" y="-62.6" font-family="Times,serif" font-size="14.00">UserDORepo</text>
</g>
<!-- UserDORepo&#45;&gt;UserModule -->
<g id="edge8" class="edge">
<title>UserDORepo&#45;&gt;UserModule</title>
<path fill="none" stroke="black" d="M339,-84.83C339,-101.2 339,-122.8 339,-122.8 339,-122.8 528.84,-122.8 528.84,-122.8"/>
<polygon fill="black" stroke="black" points="528.84,-126.3 538.84,-122.8 528.84,-119.3 528.84,-126.3"/>
</g>
<!-- UserRepo -->
<g id="node10" class="node">
<title>UserRepo</title>
<ellipse fill="#fdb462" stroke="black" cx="208" cy="-66.8" rx="49.81" ry="18"/>
<text text-anchor="middle" x="208" y="-62.6" font-family="Times,serif" font-size="14.00">UserRepo</text>
</g>
<!-- UserRepo&#45;&gt;UserModule -->
<g id="edge9" class="edge">
<title>UserRepo&#45;&gt;UserModule</title>
<path fill="none" stroke="black" d="M208,-84.91C208,-104.14 208,-131.8 208,-131.8 208,-131.8 528.73,-131.8 528.73,-131.8"/>
<polygon fill="black" stroke="black" points="528.73,-135.3 538.73,-131.8 528.73,-128.3 528.73,-135.3"/>
</g>
<!-- UserService -->
<g id="node11" class="node">
<title>UserService</title>
<ellipse fill="#fdb462" stroke="black" cx="82" cy="-66.8" rx="58.46" ry="18"/>
<text text-anchor="middle" x="82" y="-62.6" font-family="Times,serif" font-size="14.00">UserService</text>
</g>
<!-- UserService&#45;&gt;UserModule -->
<g id="edge10" class="edge">
<title>UserService&#45;&gt;UserModule</title>
<path fill="none" stroke="black" d="M82,-85.09C82,-107.01 82,-140.8 82,-140.8 82,-140.8 528.94,-140.8 528.94,-140.8"/>
<polygon fill="black" stroke="black" points="528.94,-144.3 538.94,-140.8 528.94,-137.3 528.94,-144.3"/>
</g>
</g>
</svg>
