<?xml version="1.0" encoding="UTF-8" standalone="no"?>
<!DOCTYPE svg PUBLIC "-//W3C//DTD SVG 1.1//EN"
 "http://www.w3.org/Graphics/SVG/1.1/DTD/svg11.dtd">
<!-- Generated by graphviz version 2.47.0 (20210316.0004)
 -->
<!-- Title: dependencies Pages: 1 -->
<svg width="1080pt" height="284pt"
 viewBox="0.00 0.00 1080.00 284.00" xmlns="http://www.w3.org/2000/svg" xmlns:xlink="http://www.w3.org/1999/xlink">
<g id="graph0" class="graph" transform="scale(1 1) rotate(0) translate(4 280)">
<title>dependencies</title>
<polygon fill="white" stroke="transparent" points="-4,4 -4,-280 1076,-280 1076,4 -4,4"/>
<text text-anchor="start" x="515.01" y="-42.4" font-family="Times-12" font-weight="bold" font-size="14.00">Legend</text>
<polygon fill="#ffffb3" stroke="transparent" points="302,-10 302,-30 322,-30 322,-10 302,-10"/>
<text text-anchor="start" x="325.63" y="-15.4" font-family="Times-12" font-size="14.00"> &#160;Declarations</text>
<polygon fill="#8dd3c7" stroke="transparent" points="415,-10 415,-30 435,-30 435,-10 415,-10"/>
<text text-anchor="start" x="438.73" y="-15.4" font-family="Times-12" font-size="14.00"> &#160;Module</text>
<polygon fill="#80b1d3" stroke="transparent" points="501,-10 501,-30 521,-30 521,-10 501,-10"/>
<text text-anchor="start" x="524.78" y="-15.4" font-family="Times-12" font-size="14.00"> &#160;Bootstrap</text>
<polygon fill="#fdb462" stroke="transparent" points="598,-10 598,-30 618,-30 618,-10 598,-10"/>
<text text-anchor="start" x="621.67" y="-15.4" font-family="Times-12" font-size="14.00"> &#160;Providers</text>
<polygon fill="#fb8072" stroke="transparent" points="694,-10 694,-30 714,-30 714,-10 694,-10"/>
<text text-anchor="start" x="717.73" y="-15.4" font-family="Times-12" font-size="14.00"> &#160;Exports</text>
<g id="clust1" class="cluster">
<title>cluster_UserModule</title>
<polygon fill="none" stroke="black" stroke-dasharray="1,5" points="8,-70 8,-268 1064,-268 1064,-70 8,-70"/>
</g>
<g id="clust3" class="cluster">
<title>cluster_UserModule_imports</title>
<polygon fill="none" stroke="black" points="419,-78 419,-130 1056,-130 1056,-78 419,-78"/>
</g>
<g id="clust6" class="cluster">
<title>cluster_UserModule_providers</title>
<polygon fill="none" stroke="black" points="16,-78 16,-130 411,-130 411,-78 16,-78"/>
</g>
<g id="clust4" class="cluster">
<title>cluster_UserModule_exports</title>
<polygon fill="none" stroke="black" points="435,-208 435,-260 633,-260 633,-208 435,-208"/>
</g>
<!-- AccountModule -->
<g id="node1" class="node">
<title>AccountModule</title>
<polygon fill="#8dd3c7" stroke="black" points="1048.48,-122 1045.48,-126 1024.48,-126 1021.48,-122 941.52,-122 941.52,-86 1048.48,-86 1048.48,-122"/>
<text text-anchor="middle" x="995" y="-99.8" font-family="Times,serif" font-size="14.00">AccountModule</text>
</g>
<!-- UserModule -->
<g id="node6" class="node">
<title>UserModule</title>
<polygon fill="#8dd3c7" stroke="black" points="579.98,-187 576.98,-191 555.98,-191 552.98,-187 494.02,-187 494.02,-151 579.98,-151 579.98,-187"/>
<text text-anchor="middle" x="537" y="-164.8" font-family="Times,serif" font-size="14.00">UserModule</text>
</g>
<!-- AccountModule&#45;&gt;UserModule -->
<g id="edge1" class="edge">
<title>AccountModule&#45;&gt;UserModule</title>
<path fill="none" stroke="black" d="M995,-122.29C995,-144.21 995,-178 995,-178 995,-178 590.09,-178 590.09,-178"/>
<polygon fill="black" stroke="black" points="590.09,-174.5 580.09,-178 590.09,-181.5 590.09,-174.5"/>
</g>
<!-- CalendarModule -->
<g id="node2" class="node">
<title>CalendarModule</title>
<polygon fill="#8dd3c7" stroke="black" points="923.08,-122 920.08,-126 899.08,-126 896.08,-122 812.92,-122 812.92,-86 923.08,-86 923.08,-122"/>
<text text-anchor="middle" x="868" y="-99.8" font-family="Times,serif" font-size="14.00">CalendarModule</text>
</g>
<!-- CalendarModule&#45;&gt;UserModule -->
<g id="edge2" class="edge">
<title>CalendarModule&#45;&gt;UserModule</title>
<path fill="none" stroke="black" d="M868,-122.11C868,-141.34 868,-169 868,-169 868,-169 590.27,-169 590.27,-169"/>
<polygon fill="black" stroke="black" points="590.27,-165.5 580.27,-169 590.27,-172.5 590.27,-165.5"/>
</g>
<!-- LoggerModule -->
<g id="node3" class="node">
<title>LoggerModule</title>
<polygon fill="#8dd3c7" stroke="black" points="794.98,-122 791.98,-126 770.98,-126 767.98,-122 695.02,-122 695.02,-86 794.98,-86 794.98,-122"/>
<text text-anchor="middle" x="745" y="-99.8" font-family="Times,serif" font-size="14.00">LoggerModule</text>
</g>
<!-- LoggerModule&#45;&gt;UserModule -->
<g id="edge3" class="edge">
<title>LoggerModule&#45;&gt;UserModule</title>
<path fill="none" stroke="black" d="M745,-122.03C745,-138.4 745,-160 745,-160 745,-160 590.1,-160 590.1,-160"/>
<polygon fill="black" stroke="black" points="590.1,-156.5 580.1,-160 590.1,-163.5 590.1,-156.5"/>
</g>
<!-- RegistrationPinModule -->
<g id="node4" class="node">
<title>RegistrationPinModule</title>
<polygon fill="#8dd3c7" stroke="black" points="677.16,-122 674.16,-126 653.16,-126 650.16,-122 530.84,-122 530.84,-86 677.16,-86 677.16,-122"/>
<text text-anchor="middle" x="604" y="-99.8" font-family="Times,serif" font-size="14.00">RegistrationPinModule</text>
</g>
<!-- RegistrationPinModule&#45;&gt;UserModule -->
<g id="edge4" class="edge">
<title>RegistrationPinModule&#45;&gt;UserModule</title>
<path fill="none" stroke="black" d="M555.33,-122.11C555.33,-122.11 555.33,-140.99 555.33,-140.99"/>
<polygon fill="black" stroke="black" points="551.83,-140.99 555.33,-150.99 558.83,-140.99 551.83,-140.99"/>
</g>
<!-- RoleModule -->
<g id="node5" class="node">
<title>RoleModule</title>
<polygon fill="#8dd3c7" stroke="black" points="512.99,-122 509.99,-126 488.99,-126 485.99,-122 427.01,-122 427.01,-86 512.99,-86 512.99,-122"/>
<text text-anchor="middle" x="470" y="-99.8" font-family="Times,serif" font-size="14.00">RoleModule</text>
</g>
<!-- RoleModule&#45;&gt;UserModule -->
<g id="edge5" class="edge">
<title>RoleModule&#45;&gt;UserModule</title>
<path fill="none" stroke="black" d="M503.5,-122.11C503.5,-122.11 503.5,-140.99 503.5,-140.99"/>
<polygon fill="black" stroke="black" points="500,-140.99 503.5,-150.99 507,-140.99 500,-140.99"/>
</g>
<!-- UserRepo  -->
<g id="node7" class="node">
<title>UserRepo </title>
<polygon fill="#fb8072" stroke="black" points="624.98,-252 549.02,-252 549.02,-216 624.98,-216 624.98,-252"/>
<text text-anchor="middle" x="587" y="-229.8" font-family="Times,serif" font-size="14.00">UserRepo </text>
</g>
<!-- UserModule&#45;&gt;UserRepo  -->
<g id="edge6" class="edge">
<title>UserModule&#45;&gt;UserRepo </title>
<path fill="none" stroke="black" stroke-dasharray="5,2" d="M564.62,-187.11C564.62,-187.11 564.62,-205.99 564.62,-205.99"/>
<polygon fill="black" stroke="black" points="561.12,-205.99 564.62,-215.99 568.12,-205.99 561.12,-205.99"/>
</g>
<!-- UserService  -->
<g id="node8" class="node">
<title>UserService </title>
<polygon fill="#fb8072" stroke="black" points="530.9,-252 443.1,-252 443.1,-216 530.9,-216 530.9,-252"/>
<text text-anchor="middle" x="487" y="-229.8" font-family="Times,serif" font-size="14.00">UserService </text>
</g>
<!-- UserModule&#45;&gt;UserService  -->
<g id="edge7" class="edge">
<title>UserModule&#45;&gt;UserService </title>
<path fill="none" stroke="black" stroke-dasharray="5,2" d="M512.48,-187.11C512.48,-187.11 512.48,-205.99 512.48,-205.99"/>
<polygon fill="black" stroke="black" points="508.98,-205.99 512.48,-215.99 515.98,-205.99 508.98,-205.99"/>
</g>
<!-- UserDORepo -->
<g id="node9" class="node">
<title>UserDORepo</title>
<ellipse fill="#fdb462" stroke="black" cx="339" cy="-104" rx="63.68" ry="18"/>
<text text-anchor="middle" x="339" y="-99.8" font-family="Times,serif" font-size="14.00">UserDORepo</text>
</g>
<!-- UserDORepo&#45;&gt;UserModule -->
<g id="edge8" class="edge">
<title>UserDORepo&#45;&gt;UserModule</title>
<path fill="none" stroke="black" d="M339,-122.03C339,-138.4 339,-160 339,-160 339,-160 483.55,-160 483.55,-160"/>
<polygon fill="black" stroke="black" points="483.55,-163.5 493.55,-160 483.55,-156.5 483.55,-163.5"/>
</g>
<!-- UserRepo -->
<g id="node10" class="node">
<title>UserRepo</title>
<ellipse fill="#fdb462" stroke="black" cx="208" cy="-104" rx="49.8" ry="18"/>
<text text-anchor="middle" x="208" y="-99.8" font-family="Times,serif" font-size="14.00">UserRepo</text>
</g>
<!-- UserRepo&#45;&gt;UserModule -->
<g id="edge9" class="edge">
<title>UserRepo&#45;&gt;UserModule</title>
<path fill="none" stroke="black" d="M208,-122.11C208,-141.34 208,-169 208,-169 208,-169 483.99,-169 483.99,-169"/>
<polygon fill="black" stroke="black" points="483.99,-172.5 493.99,-169 483.99,-165.5 483.99,-172.5"/>
</g>
<!-- UserService -->
<g id="node11" class="node">
<title>UserService</title>
<ellipse fill="#fdb462" stroke="black" cx="82" cy="-104" rx="58.44" ry="18"/>
<text text-anchor="middle" x="82" y="-99.8" font-family="Times,serif" font-size="14.00">UserService</text>
</g>
<!-- UserService&#45;&gt;UserModule -->
<g id="edge10" class="edge">
<title>UserService&#45;&gt;UserModule</title>
<path fill="none" stroke="black" d="M82,-122.29C82,-144.21 82,-178 82,-178 82,-178 483.78,-178 483.78,-178"/>
<polygon fill="black" stroke="black" points="483.78,-181.5 493.78,-178 483.78,-174.5 483.78,-181.5"/>
</g>
</g>
</svg>
