<?xml version="1.0" encoding="UTF-8" standalone="no"?>
<!DOCTYPE svg PUBLIC "-//W3C//DTD SVG 1.1//EN"
 "http://www.w3.org/Graphics/SVG/1.1/DTD/svg11.dtd">
<!-- Generated by graphviz version 5.0.0 (20220707.1540)
 -->
<!-- Title: dependencies Pages: 1 -->
<svg width="903pt" height="247pt"
 viewBox="0.00 0.00 903.00 246.80" xmlns="http://www.w3.org/2000/svg" xmlns:xlink="http://www.w3.org/1999/xlink">
<g id="graph0" class="graph" transform="scale(1 1) rotate(0) translate(4 242.8)">
<title>dependencies</title>
<polygon fill="white" stroke="transparent" points="-4,4 -4,-242.8 899,-242.8 899,4 -4,4"/>
<text text-anchor="middle" x="447.5" y="-8.2" font-family="sans-serif" font-size="14.00">dependencies</text>
<g id="clust1" class="cluster">
<title>cluster_UserModule</title>
<polygon fill="none" stroke="black" stroke-dasharray="1,5" points="8,-32.8 8,-230.8 887,-230.8 887,-32.8 8,-32.8"/>
</g>
<g id="clust4" class="cluster">
<title>cluster_UserModule_exports</title>
<polygon fill="none" stroke="black" points="313,-170.8 313,-222.8 511,-222.8 511,-170.8 313,-170.8"/>
</g>
<g id="clust6" class="cluster">
<title>cluster_UserModule_providers</title>
<polygon fill="none" stroke="black" points="484,-40.8 484,-92.8 879,-92.8 879,-40.8 484,-40.8"/>
</g>
<g id="clust3" class="cluster">
<title>cluster_UserModule_imports</title>
<polygon fill="none" stroke="black" points="16,-40.8 16,-92.8 476,-92.8 476,-40.8 16,-40.8"/>
</g>
<!-- AccountModule -->
<g id="node1" class="node">
<title>AccountModule</title>
<polygon fill="#8dd3c7" stroke="black" points="468.48,-84.8 465.48,-88.8 444.48,-88.8 441.48,-84.8 361.52,-84.8 361.52,-48.8 468.48,-48.8 468.48,-84.8"/>
<text text-anchor="middle" x="415" y="-62.6" font-family="Times,serif" font-size="14.00">AccountModule</text>
</g>
<!-- UserModule -->
<g id="node5" class="node">
<title>UserModule</title>
<polygon fill="#8dd3c7" stroke="black" points="457.99,-149.8 454.99,-153.8 433.99,-153.8 430.99,-149.8 372.01,-149.8 372.01,-113.8 457.99,-113.8 457.99,-149.8"/>
<text text-anchor="middle" x="415" y="-127.6" font-family="Times,serif" font-size="14.00">UserModule</text>
</g>
<!-- AccountModule&#45;&gt;UserModule -->
<g id="edge1" class="edge">
<title>AccountModule&#45;&gt;UserModule</title>
<path fill="none" stroke="black" d="M415,-84.91C415,-84.91 415,-103.79 415,-103.79"/>
<polygon fill="black" stroke="black" points="411.5,-103.79 415,-113.79 418.5,-103.79 411.5,-103.79"/>
</g>
<!-- LoggerModule -->
<g id="node2" class="node">
<title>LoggerModule</title>
<polygon fill="#8dd3c7" stroke="black" points="343.98,-84.8 340.98,-88.8 319.98,-88.8 316.98,-84.8 244.02,-84.8 244.02,-48.8 343.98,-48.8 343.98,-84.8"/>
<text text-anchor="middle" x="294" y="-62.6" font-family="Times,serif" font-size="14.00">LoggerModule</text>
</g>
<!-- LoggerModule&#45;&gt;UserModule -->
<g id="edge2" class="edge">
<title>LoggerModule&#45;&gt;UserModule</title>
<path fill="none" stroke="black" d="M332.52,-84.83C332.52,-101.2 332.52,-122.8 332.52,-122.8 332.52,-122.8 361.83,-122.8 361.83,-122.8"/>
<polygon fill="black" stroke="black" points="361.83,-126.3 371.83,-122.8 361.83,-119.3 361.83,-126.3"/>
</g>
<!-- RoleModule -->
<g id="node3" class="node">
<title>RoleModule</title>
<polygon fill="#8dd3c7" stroke="black" points="225.99,-84.8 222.99,-88.8 201.99,-88.8 198.99,-84.8 140.01,-84.8 140.01,-48.8 225.99,-48.8 225.99,-84.8"/>
<text text-anchor="middle" x="183" y="-62.6" font-family="Times,serif" font-size="14.00">RoleModule</text>
</g>
<!-- RoleModule&#45;&gt;UserModule -->
<g id="edge3" class="edge">
<title>RoleModule&#45;&gt;UserModule</title>
<path fill="none" stroke="black" d="M183,-84.91C183,-104.14 183,-131.8 183,-131.8 183,-131.8 361.91,-131.8 361.91,-131.8"/>
<polygon fill="black" stroke="black" points="361.91,-135.3 371.91,-131.8 361.91,-128.3 361.91,-135.3"/>
</g>
<!-- SchoolModule -->
<g id="node4" class="node">
<title>SchoolModule</title>
<polygon fill="#8dd3c7" stroke="black" points="122.44,-84.8 119.44,-88.8 98.44,-88.8 95.44,-84.8 23.56,-84.8 23.56,-48.8 122.44,-48.8 122.44,-84.8"/>
<text text-anchor="middle" x="73" y="-62.6" font-family="Times,serif" font-size="14.00">SchoolModule</text>
</g>
<!-- SchoolModule&#45;&gt;UserModule -->
<g id="edge4" class="edge">
<title>SchoolModule&#45;&gt;UserModule</title>
<path fill="none" stroke="black" d="M73,-85.09C73,-107.01 73,-140.8 73,-140.8 73,-140.8 361.69,-140.8 361.69,-140.8"/>
<polygon fill="black" stroke="black" points="361.69,-144.3 371.69,-140.8 361.69,-137.3 361.69,-144.3"/>
</g>
<!-- UserRepo  -->
<g id="node6" class="node">
<title>UserRepo </title>
<polygon fill="#fb8072" stroke="black" points="502.99,-214.8 427.01,-214.8 427.01,-178.8 502.99,-178.8 502.99,-214.8"/>
<text text-anchor="middle" x="465" y="-192.6" font-family="Times,serif" font-size="14.00">UserRepo </text>
</g>
<!-- UserModule&#45;&gt;UserRepo  -->
<g id="edge5" class="edge">
<title>UserModule&#45;&gt;UserRepo </title>
<path fill="none" stroke="black" stroke-dasharray="5,2" d="M442.62,-149.91C442.62,-149.91 442.62,-168.79 442.62,-168.79"/>
<polygon fill="black" stroke="black" points="439.13,-168.79 442.62,-178.79 446.13,-168.79 439.13,-168.79"/>
</g>
<!-- UserService  -->
<g id="node7" class="node">
<title>UserService </title>
<polygon fill="#fb8072" stroke="black" points="408.91,-214.8 321.09,-214.8 321.09,-178.8 408.91,-178.8 408.91,-214.8"/>
<text text-anchor="middle" x="365" y="-192.6" font-family="Times,serif" font-size="14.00">UserService </text>
</g>
<!-- UserModule&#45;&gt;UserService  -->
<g id="edge6" class="edge">
<title>UserModule&#45;&gt;UserService </title>
<path fill="none" stroke="black" stroke-dasharray="5,2" d="M390.48,-149.91C390.48,-149.91 390.48,-168.79 390.48,-168.79"/>
<polygon fill="black" stroke="black" points="386.98,-168.79 390.48,-178.79 393.98,-168.79 386.98,-168.79"/>
</g>
<!-- UserDORepo -->
<g id="node8" class="node">
<title>UserDORepo</title>
<ellipse fill="#fdb462" stroke="black" cx="807" cy="-66.8" rx="63.71" ry="18"/>
<text text-anchor="middle" x="807" y="-62.6" font-family="Times,serif" font-size="14.00">UserDORepo</text>
</g>
<!-- UserDORepo&#45;&gt;UserModule -->
<g id="edge7" class="edge">
<title>UserDORepo&#45;&gt;UserModule</title>
<path fill="none" stroke="black" d="M807,-85.09C807,-107.01 807,-140.8 807,-140.8 807,-140.8 468.07,-140.8 468.07,-140.8"/>
<polygon fill="black" stroke="black" points="468.07,-137.3 458.07,-140.8 468.07,-144.3 468.07,-137.3"/>
</g>
<!-- UserRepo -->
<g id="node9" class="node">
<title>UserRepo</title>
<ellipse fill="#fdb462" stroke="black" cx="676" cy="-66.8" rx="49.81" ry="18"/>
<text text-anchor="middle" x="676" y="-62.6" font-family="Times,serif" font-size="14.00">UserRepo</text>
</g>
<!-- UserRepo&#45;&gt;UserModule -->
<g id="edge8" class="edge">
<title>UserRepo&#45;&gt;UserModule</title>
<path fill="none" stroke="black" d="M676,-84.91C676,-104.14 676,-131.8 676,-131.8 676,-131.8 468.1,-131.8 468.1,-131.8"/>
<polygon fill="black" stroke="black" points="468.1,-128.3 458.1,-131.8 468.1,-135.3 468.1,-128.3"/>
</g>
<!-- UserService -->
<g id="node10" class="node">
<title>UserService</title>
<ellipse fill="#fdb462" stroke="black" cx="550" cy="-66.8" rx="58.46" ry="18"/>
<text text-anchor="middle" x="550" y="-62.6" font-family="Times,serif" font-size="14.00">UserService</text>
</g>
<!-- UserService&#45;&gt;UserModule -->
<g id="edge9" class="edge">
<title>UserService&#45;&gt;UserModule</title>
<path fill="none" stroke="black" d="M497.26,-74.59C497.26,-89.97 497.26,-122.8 497.26,-122.8 497.26,-122.8 468.06,-122.8 468.06,-122.8"/>
<polygon fill="black" stroke="black" points="468.06,-119.3 458.06,-122.8 468.06,-126.3 468.06,-119.3"/>
</g>
</g>
</svg>
