<?xml version="1.0" encoding="UTF-8" standalone="no"?>
<!DOCTYPE svg PUBLIC "-//W3C//DTD SVG 1.1//EN"
 "http://www.w3.org/Graphics/SVG/1.1/DTD/svg11.dtd">
<!-- Generated by graphviz version 5.0.0 (20220707.1540)
 -->
<!-- Title: dependencies Pages: 1 -->
<svg width="1087pt" height="247pt"
 viewBox="0.00 0.00 1087.00 246.80" xmlns="http://www.w3.org/2000/svg" xmlns:xlink="http://www.w3.org/1999/xlink">
<g id="graph0" class="graph" transform="scale(1 1) rotate(0) translate(4 242.8)">
<title>dependencies</title>
<polygon fill="white" stroke="transparent" points="-4,4 -4,-242.8 1083,-242.8 1083,4 -4,4"/>
<text text-anchor="middle" x="539.5" y="-8.2" font-family="sans-serif" font-size="14.00">dependencies</text>
<g id="clust1" class="cluster">
<title>cluster_UserModule</title>
<polygon fill="none" stroke="black" stroke-dasharray="1,5" points="8,-32.8 8,-230.8 1071,-230.8 1071,-32.8 8,-32.8"/>
</g>
<g id="clust6" class="cluster">
<title>cluster_UserModule_providers</title>
<polygon fill="none" stroke="black" points="484,-40.8 484,-92.8 1063,-92.8 1063,-40.8 484,-40.8"/>
</g>
<g id="clust4" class="cluster">
<title>cluster_UserModule_exports</title>
<polygon fill="none" stroke="black" points="380,-170.8 380,-222.8 578,-222.8 578,-170.8 380,-170.8"/>
</g>
<g id="clust3" class="cluster">
<title>cluster_UserModule_imports</title>
<polygon fill="none" stroke="black" points="16,-40.8 16,-92.8 476,-92.8 476,-40.8 16,-40.8"/>
</g>
<!-- AccountModule -->
<g id="node1" class="node">
<title>AccountModule</title>
<polygon fill="#8dd3c7" stroke="black" points="468.48,-84.8 465.48,-88.8 444.48,-88.8 441.48,-84.8 361.52,-84.8 361.52,-48.8 468.48,-48.8 468.48,-84.8"/>
<text text-anchor="middle" x="415" y="-62.6" font-family="Times,serif" font-size="14.00">AccountModule</text>
</g>
<!-- UserModule -->
<g id="node5" class="node">
<title>UserModule</title>
<polygon fill="#8dd3c7" stroke="black" points="524.99,-149.8 521.99,-153.8 500.99,-153.8 497.99,-149.8 439.01,-149.8 439.01,-113.8 524.99,-113.8 524.99,-149.8"/>
<text text-anchor="middle" x="482" y="-127.6" font-family="Times,serif" font-size="14.00">UserModule</text>
</g>
<!-- AccountModule&#45;&gt;UserModule -->
<g id="edge1" class="edge">
<title>AccountModule&#45;&gt;UserModule</title>
<path fill="none" stroke="black" d="M453.75,-84.91C453.75,-84.91 453.75,-103.79 453.75,-103.79"/>
<polygon fill="black" stroke="black" points="450.25,-103.79 453.75,-113.79 457.25,-103.79 450.25,-103.79"/>
</g>
<!-- LoggerModule -->
<g id="node2" class="node">
<title>LoggerModule</title>
<polygon fill="#8dd3c7" stroke="black" points="343.98,-84.8 340.98,-88.8 319.98,-88.8 316.98,-84.8 244.02,-84.8 244.02,-48.8 343.98,-48.8 343.98,-84.8"/>
<text text-anchor="middle" x="294" y="-62.6" font-family="Times,serif" font-size="14.00">LoggerModule</text>
</g>
<!-- LoggerModule&#45;&gt;UserModule -->
<g id="edge2" class="edge">
<title>LoggerModule&#45;&gt;UserModule</title>
<path fill="none" stroke="black" d="M294,-84.83C294,-101.2 294,-122.8 294,-122.8 294,-122.8 428.87,-122.8 428.87,-122.8"/>
<polygon fill="black" stroke="black" points="428.87,-126.3 438.87,-122.8 428.87,-119.3 428.87,-126.3"/>
</g>
<!-- RoleModule -->
<g id="node3" class="node">
<title>RoleModule</title>
<polygon fill="#8dd3c7" stroke="black" points="225.99,-84.8 222.99,-88.8 201.99,-88.8 198.99,-84.8 140.01,-84.8 140.01,-48.8 225.99,-48.8 225.99,-84.8"/>
<text text-anchor="middle" x="183" y="-62.6" font-family="Times,serif" font-size="14.00">RoleModule</text>
</g>
<!-- RoleModule&#45;&gt;UserModule -->
<g id="edge3" class="edge">
<title>RoleModule&#45;&gt;UserModule</title>
<path fill="none" stroke="black" d="M183,-84.91C183,-104.14 183,-131.8 183,-131.8 183,-131.8 428.84,-131.8 428.84,-131.8"/>
<polygon fill="black" stroke="black" points="428.84,-135.3 438.84,-131.8 428.84,-128.3 428.84,-135.3"/>
</g>
<!-- SchoolModule -->
<g id="node4" class="node">
<title>SchoolModule</title>
<polygon fill="#8dd3c7" stroke="black" points="122.44,-84.8 119.44,-88.8 98.44,-88.8 95.44,-84.8 23.56,-84.8 23.56,-48.8 122.44,-48.8 122.44,-84.8"/>
<text text-anchor="middle" x="73" y="-62.6" font-family="Times,serif" font-size="14.00">SchoolModule</text>
</g>
<!-- SchoolModule&#45;&gt;UserModule -->
<g id="edge4" class="edge">
<title>SchoolModule&#45;&gt;UserModule</title>
<path fill="none" stroke="black" d="M73,-85.09C73,-107.01 73,-140.8 73,-140.8 73,-140.8 429,-140.8 429,-140.8"/>
<polygon fill="black" stroke="black" points="429,-144.3 439,-140.8 429,-137.3 429,-144.3"/>
</g>
<!-- UserRepo  -->
<g id="node6" class="node">
<title>UserRepo </title>
<polygon fill="#fb8072" stroke="black" points="569.99,-214.8 494.01,-214.8 494.01,-178.8 569.99,-178.8 569.99,-214.8"/>
<text text-anchor="middle" x="532" y="-192.6" font-family="Times,serif" font-size="14.00">UserRepo </text>
</g>
<!-- UserModule&#45;&gt;UserRepo  -->
<g id="edge5" class="edge">
<title>UserModule&#45;&gt;UserRepo </title>
<path fill="none" stroke="black" stroke-dasharray="5,2" d="M509.62,-149.91C509.62,-149.91 509.62,-168.79 509.62,-168.79"/>
<polygon fill="black" stroke="black" points="506.13,-168.79 509.62,-178.79 513.13,-168.79 506.13,-168.79"/>
</g>
<!-- UserService  -->
<g id="node7" class="node">
<title>UserService </title>
<polygon fill="#fb8072" stroke="black" points="475.91,-214.8 388.09,-214.8 388.09,-178.8 475.91,-178.8 475.91,-214.8"/>
<text text-anchor="middle" x="432" y="-192.6" font-family="Times,serif" font-size="14.00">UserService </text>
</g>
<!-- UserModule&#45;&gt;UserService  -->
<g id="edge6" class="edge">
<title>UserModule&#45;&gt;UserService </title>
<path fill="none" stroke="black" stroke-dasharray="5,2" d="M457.48,-149.91C457.48,-149.91 457.48,-168.79 457.48,-168.79"/>
<polygon fill="black" stroke="black" points="453.98,-168.79 457.48,-178.79 460.98,-168.79 453.98,-168.79"/>
</g>
<!-- PermissionService -->
<g id="node8" class="node">
<title>PermissionService</title>
<ellipse fill="#fdb462" stroke="black" cx="972" cy="-66.8" rx="82.83" ry="18"/>
<text text-anchor="middle" x="972" y="-62.6" font-family="Times,serif" font-size="14.00">PermissionService</text>
</g>
<!-- PermissionService&#45;&gt;UserModule -->
<g id="edge7" class="edge">
<title>PermissionService&#45;&gt;UserModule</title>
<path fill="none" stroke="black" d="M972,-85.09C972,-107.01 972,-140.8 972,-140.8 972,-140.8 535.05,-140.8 535.05,-140.8"/>
<polygon fill="black" stroke="black" points="535.05,-137.3 525.05,-140.8 535.05,-144.3 535.05,-137.3"/>
</g>
<!-- UserDORepo -->
<g id="node9" class="node">
<title>UserDORepo</title>
<ellipse fill="#fdb462" stroke="black" cx="807" cy="-66.8" rx="63.71" ry="18"/>
<text text-anchor="middle" x="807" y="-62.6" font-family="Times,serif" font-size="14.00">UserDORepo</text>
</g>
<!-- UserDORepo&#45;&gt;UserModule -->
<g id="edge8" class="edge">
<title>UserDORepo&#45;&gt;UserModule</title>
<path fill="none" stroke="black" d="M807,-84.91C807,-104.14 807,-131.8 807,-131.8 807,-131.8 535.16,-131.8 535.16,-131.8"/>
<polygon fill="black" stroke="black" points="535.16,-128.3 525.16,-131.8 535.16,-135.3 535.16,-128.3"/>
</g>
<!-- UserRepo -->
<g id="node10" class="node">
<title>UserRepo</title>
<ellipse fill="#fdb462" stroke="black" cx="676" cy="-66.8" rx="49.81" ry="18"/>
<text text-anchor="middle" x="676" y="-62.6" font-family="Times,serif" font-size="14.00">UserRepo</text>
</g>
<!-- UserRepo&#45;&gt;UserModule -->
<g id="edge9" class="edge">
<title>UserRepo&#45;&gt;UserModule</title>
<path fill="none" stroke="black" d="M676,-84.83C676,-101.2 676,-122.8 676,-122.8 676,-122.8 535.05,-122.8 535.05,-122.8"/>
<polygon fill="black" stroke="black" points="535.05,-119.3 525.05,-122.8 535.05,-126.3 535.05,-119.3"/>
</g>
<!-- UserService -->
<g id="node11" class="node">
<title>UserService</title>
<ellipse fill="#fdb462" stroke="black" cx="550" cy="-66.8" rx="58.46" ry="18"/>
<text text-anchor="middle" x="550" y="-62.6" font-family="Times,serif" font-size="14.00">UserService</text>
</g>
<!-- UserService&#45;&gt;UserModule -->
<g id="edge10" class="edge">
<title>UserService&#45;&gt;UserModule</title>
<path fill="none" stroke="black" d="M508.38,-79.64C508.38,-79.64 508.38,-103.32 508.38,-103.32"/>
<polygon fill="black" stroke="black" points="504.88,-103.32 508.38,-113.32 511.88,-103.32 504.88,-103.32"/>
</g>
</g>
</svg>
