<?xml version="1.0" encoding="UTF-8" standalone="no"?>
<!DOCTYPE svg PUBLIC "-//W3C//DTD SVG 1.1//EN"
 "http://www.w3.org/Graphics/SVG/1.1/DTD/svg11.dtd">
<!-- Generated by graphviz version 2.47.0 (20210316.0004)
 -->
<!-- Title: dependencies Pages: 1 -->
<svg width="654pt" height="284pt"
 viewBox="0.00 0.00 654.00 284.00" xmlns="http://www.w3.org/2000/svg" xmlns:xlink="http://www.w3.org/1999/xlink">
<g id="graph0" class="graph" transform="scale(1 1) rotate(0) translate(4 280)">
<title>dependencies</title>
<polygon fill="white" stroke="transparent" points="-4,4 -4,-280 650,-280 650,4 -4,4"/>
<text text-anchor="start" x="302.01" y="-42.4" font-family="Times-12" font-weight="bold" font-size="14.00">Legend</text>
<polygon fill="#ffffb3" stroke="transparent" points="89,-10 89,-30 109,-30 109,-10 89,-10"/>
<text text-anchor="start" x="112.63" y="-15.4" font-family="Times-12" font-size="14.00"> &#160;Declarations</text>
<polygon fill="#8dd3c7" stroke="transparent" points="202,-10 202,-30 222,-30 222,-10 202,-10"/>
<text text-anchor="start" x="225.73" y="-15.4" font-family="Times-12" font-size="14.00"> &#160;Module</text>
<polygon fill="#80b1d3" stroke="transparent" points="288,-10 288,-30 308,-30 308,-10 288,-10"/>
<text text-anchor="start" x="311.78" y="-15.4" font-family="Times-12" font-size="14.00"> &#160;Bootstrap</text>
<polygon fill="#fdb462" stroke="transparent" points="385,-10 385,-30 405,-30 405,-10 385,-10"/>
<text text-anchor="start" x="408.67" y="-15.4" font-family="Times-12" font-size="14.00"> &#160;Providers</text>
<polygon fill="#fb8072" stroke="transparent" points="481,-10 481,-30 501,-30 501,-10 481,-10"/>
<text text-anchor="start" x="504.73" y="-15.4" font-family="Times-12" font-size="14.00"> &#160;Exports</text>
<g id="clust1" class="cluster">
<title>cluster_UsersAdminModule</title>
<polygon fill="none" stroke="black" stroke-dasharray="1,5" points="8,-70 8,-268 638,-268 638,-70 8,-70"/>
</g>
<g id="clust3" class="cluster">
<title>cluster_UsersAdminModule_imports</title>
<polygon fill="none" stroke="black" points="514,-78 514,-130 630,-130 630,-78 514,-78"/>
</g>
<g id="clust6" class="cluster">
<title>cluster_UsersAdminModule_providers</title>
<polygon fill="none" stroke="black" points="16,-78 16,-130 506,-130 506,-78 16,-78"/>
</g>
<g id="clust4" class="cluster">
<title>cluster_UsersAdminModule_exports</title>
<polygon fill="none" stroke="black" points="300,-208 300,-260 448,-260 448,-208 300,-208"/>
</g>
<!-- LoggerModule -->
<g id="node1" class="node">
<title>LoggerModule</title>
<polygon fill="#8dd3c7" stroke="black" points="621.98,-122 618.98,-126 597.98,-126 594.98,-122 522.02,-122 522.02,-86 621.98,-86 621.98,-122"/>
<text text-anchor="middle" x="572" y="-99.8" font-family="Times,serif" font-size="14.00">LoggerModule</text>
</g>
<!-- UsersAdminModule -->
<g id="node2" class="node">
<title>UsersAdminModule</title>
<polygon fill="#8dd3c7" stroke="black" points="439.31,-187 436.31,-191 415.31,-191 412.31,-187 308.69,-187 308.69,-151 439.31,-151 439.31,-187"/>
<text text-anchor="middle" x="374" y="-164.8" font-family="Times,serif" font-size="14.00">UsersAdminModule</text>
</g>
<!-- LoggerModule&#45;&gt;UsersAdminModule -->
<g id="edge1" class="edge">
<title>LoggerModule&#45;&gt;UsersAdminModule</title>
<path fill="none" stroke="black" d="M572,-122.11C572,-141.34 572,-169 572,-169 572,-169 449.38,-169 449.38,-169"/>
<polygon fill="black" stroke="black" points="449.38,-165.5 439.38,-169 449.38,-172.5 449.38,-165.5"/>
</g>
<!-- UsersAdminService  -->
<g id="node3" class="node">
<title>UsersAdminService </title>
<polygon fill="#fb8072" stroke="black" points="440.24,-252 307.76,-252 307.76,-216 440.24,-216 440.24,-252"/>
<text text-anchor="middle" x="374" y="-229.8" font-family="Times,serif" font-size="14.00">UsersAdminService </text>
</g>
<!-- UsersAdminModule&#45;&gt;UsersAdminService  -->
<g id="edge2" class="edge">
<title>UsersAdminModule&#45;&gt;UsersAdminService </title>
<path fill="none" stroke="black" stroke-dasharray="5,2" d="M374,-187.11C374,-187.11 374,-205.99 374,-205.99"/>
<polygon fill="black" stroke="black" points="370.5,-205.99 374,-215.99 377.5,-205.99 370.5,-205.99"/>
</g>
<!-- UserRepo -->
<g id="node4" class="node">
<title>UserRepo</title>
<ellipse fill="#fdb462" stroke="black" cx="448" cy="-104" rx="49.8" ry="18"/>
<text text-anchor="middle" x="448" y="-99.8" font-family="Times,serif" font-size="14.00">UserRepo</text>
</g>
<!-- UserRepo&#45;&gt;UsersAdminModule -->
<g id="edge3" class="edge">
<title>UserRepo&#45;&gt;UsersAdminModule</title>
<path fill="none" stroke="black" d="M418.75,-118.75C418.75,-118.75 418.75,-140.59 418.75,-140.59"/>
<polygon fill="black" stroke="black" points="415.25,-140.59 418.75,-150.59 422.25,-140.59 415.25,-140.59"/>
</g>
<!-- UsersAdminRepo -->
<g id="node5" class="node">
<title>UsersAdminRepo</title>
<ellipse fill="#fdb462" stroke="black" cx="300" cy="-104" rx="80.46" ry="18"/>
<text text-anchor="middle" x="300" y="-99.8" font-family="Times,serif" font-size="14.00">UsersAdminRepo</text>
</g>
<!-- UsersAdminRepo&#45;&gt;UsersAdminModule -->
<g id="edge4" class="edge">
<title>UsersAdminRepo&#45;&gt;UsersAdminModule</title>
<path fill="none" stroke="black" d="M344.54,-119.08C344.54,-119.08 344.54,-140.76 344.54,-140.76"/>
<polygon fill="black" stroke="black" points="341.04,-140.76 344.54,-150.76 348.04,-140.76 341.04,-140.76"/>
</g>
<!-- UsersAdminService -->
<g id="node6" class="node">
<title>UsersAdminService</title>
<ellipse fill="#fdb462" stroke="black" cx="113" cy="-104" rx="88.6" ry="18"/>
<text text-anchor="middle" x="113" y="-99.8" font-family="Times,serif" font-size="14.00">UsersAdminService</text>
</g>
<!-- UsersAdminService&#45;&gt;UsersAdminModule -->
<g id="edge5" class="edge">
<title>UsersAdminService&#45;&gt;UsersAdminModule</title>
<path fill="none" stroke="black" d="M113,-122.11C113,-141.34 113,-169 113,-169 113,-169 298.81,-169 298.81,-169"/>
<polygon fill="black" stroke="black" points="298.81,-172.5 308.81,-169 298.81,-165.5 298.81,-172.5"/>
</g>
</g>
</svg>
