<?xml version="1.0" encoding="UTF-8" standalone="no"?>
<!DOCTYPE svg PUBLIC "-//W3C//DTD SVG 1.1//EN"
 "http://www.w3.org/Graphics/SVG/1.1/DTD/svg11.dtd">
<!-- Generated by graphviz version 2.47.0 (20210316.0004)
 -->
<!-- Title: dependencies Pages: 1 -->
<svg width="504pt" height="211pt"
 viewBox="0.00 0.00 504.00 211.00" xmlns="http://www.w3.org/2000/svg" xmlns:xlink="http://www.w3.org/1999/xlink">
<g id="graph0" class="graph" transform="scale(1 1) rotate(0) translate(4 207)">
<title>dependencies</title>
<polygon fill="white" stroke="transparent" points="-4,4 -4,-207 500,-207 500,4 -4,4"/>
<text text-anchor="start" x="227.01" y="-42.4" font-family="Times-12" font-weight="bold" font-size="14.00">Legend</text>
<polygon fill="#ffffb3" stroke="transparent" points="14,-10 14,-30 34,-30 34,-10 14,-10"/>
<text text-anchor="start" x="37.63" y="-15.4" font-family="Times-12" font-size="14.00"> &#160;Declarations</text>
<polygon fill="#8dd3c7" stroke="transparent" points="127,-10 127,-30 147,-30 147,-10 127,-10"/>
<text text-anchor="start" x="150.73" y="-15.4" font-family="Times-12" font-size="14.00"> &#160;Module</text>
<polygon fill="#80b1d3" stroke="transparent" points="213,-10 213,-30 233,-30 233,-10 213,-10"/>
<text text-anchor="start" x="236.78" y="-15.4" font-family="Times-12" font-size="14.00"> &#160;Bootstrap</text>
<polygon fill="#fdb462" stroke="transparent" points="310,-10 310,-30 330,-30 330,-10 310,-10"/>
<text text-anchor="start" x="333.67" y="-15.4" font-family="Times-12" font-size="14.00"> &#160;Providers</text>
<polygon fill="#fb8072" stroke="transparent" points="406,-10 406,-30 426,-30 426,-10 406,-10"/>
<text text-anchor="start" x="429.73" y="-15.4" font-family="Times-12" font-size="14.00"> &#160;Exports</text>
<g id="clust1" class="cluster">
<title>cluster_ManagementServerTestModule</title>
<polygon fill="none" stroke="black" stroke-dasharray="1,5" points="57,-70 57,-195 439,-195 439,-70 57,-70"/>
</g>
<g id="clust3" class="cluster">
<title>cluster_ManagementServerTestModule_imports</title>
<polygon fill="none" stroke="black" points="65,-78 65,-130 431,-130 431,-78 65,-78"/>
</g>
<!-- ManagementModule -->
<g id="node1" class="node">
<title>ManagementModule</title>
<polygon fill="#8dd3c7" stroke="black" points="423.13,-122 420.13,-126 399.13,-126 396.13,-122 290.87,-122 290.87,-86 423.13,-86 423.13,-122"/>
<text text-anchor="middle" x="357" y="-99.8" font-family="Times,serif" font-size="14.00">ManagementModule</text>
</g>
<!-- ManagementServerTestModule -->
<g id="node3" class="node">
<title>ManagementServerTestModule</title>
<polygon fill="#8dd3c7" stroke="black" points="349.77,-187 346.77,-191 325.77,-191 322.77,-187 156.23,-187 156.23,-151 349.77,-151 349.77,-187"/>
<text text-anchor="middle" x="253" y="-164.8" font-family="Times,serif" font-size="14.00">ManagementServerTestModule</text>
</g>
<!-- ManagementModule&#45;&gt;ManagementServerTestModule -->
<g id="edge1" class="edge">
<title>ManagementModule&#45;&gt;ManagementServerTestModule</title>
<path fill="none" stroke="black" d="M320.16,-122.11C320.16,-122.11 320.16,-140.99 320.16,-140.99"/>
<polygon fill="black" stroke="black" points="316.66,-140.99 320.16,-150.99 323.66,-140.99 316.66,-140.99"/>
</g>
<!-- MongoMemoryDatabaseModule -->
<g id="node2" class="node">
<title>MongoMemoryDatabaseModule</title>
<polygon fill="#8dd3c7" stroke="black" points="272.51,-122 269.51,-126 248.51,-126 245.51,-122 73.49,-122 73.49,-86 272.51,-86 272.51,-122"/>
<text text-anchor="middle" x="173" y="-99.8" font-family="Times,serif" font-size="14.00">MongoMemoryDatabaseModule</text>
</g>
<!-- MongoMemoryDatabaseModule&#45;&gt;ManagementServerTestModule -->
<g id="edge2" class="edge">
<title>MongoMemoryDatabaseModule&#45;&gt;ManagementServerTestModule</title>
<path fill="none" stroke="black" d="M214.56,-122.11C214.56,-122.11 214.56,-140.99 214.56,-140.99"/>
<polygon fill="black" stroke="black" points="211.06,-140.99 214.56,-150.99 218.06,-140.99 211.06,-140.99"/>
</g>
</g>
</svg>
