<?xml version="1.0" encoding="UTF-8" standalone="no"?>
<!DOCTYPE svg PUBLIC "-//W3C//DTD SVG 1.1//EN"
 "http://www.w3.org/Graphics/SVG/1.1/DTD/svg11.dtd">
<!-- Generated by graphviz version 2.47.0 (20210316.0004)
 -->
<!-- Title: dependencies Pages: 1 -->
<svg width="1292pt" height="284pt"
 viewBox="0.00 0.00 1292.00 284.00" xmlns="http://www.w3.org/2000/svg" xmlns:xlink="http://www.w3.org/1999/xlink">
<g id="graph0" class="graph" transform="scale(1 1) rotate(0) translate(4 280)">
<title>dependencies</title>
<polygon fill="white" stroke="transparent" points="-4,4 -4,-280 1288,-280 1288,4 -4,4"/>
<text text-anchor="start" x="621.01" y="-42.4" font-family="Times-12" font-weight="bold" font-size="14.00">Legend</text>
<polygon fill="#ffffb3" stroke="transparent" points="408,-10 408,-30 428,-30 428,-10 408,-10"/>
<text text-anchor="start" x="431.63" y="-15.4" font-family="Times-12" font-size="14.00"> &#160;Declarations</text>
<polygon fill="#8dd3c7" stroke="transparent" points="521,-10 521,-30 541,-30 541,-10 521,-10"/>
<text text-anchor="start" x="544.73" y="-15.4" font-family="Times-12" font-size="14.00"> &#160;Module</text>
<polygon fill="#80b1d3" stroke="transparent" points="607,-10 607,-30 627,-30 627,-10 607,-10"/>
<text text-anchor="start" x="630.78" y="-15.4" font-family="Times-12" font-size="14.00"> &#160;Bootstrap</text>
<polygon fill="#fdb462" stroke="transparent" points="704,-10 704,-30 724,-30 724,-10 704,-10"/>
<text text-anchor="start" x="727.67" y="-15.4" font-family="Times-12" font-size="14.00"> &#160;Providers</text>
<polygon fill="#fb8072" stroke="transparent" points="800,-10 800,-30 820,-30 820,-10 800,-10"/>
<text text-anchor="start" x="823.73" y="-15.4" font-family="Times-12" font-size="14.00"> &#160;Exports</text>
<g id="clust1" class="cluster">
<title>cluster_PseudonymModule</title>
<polygon fill="none" stroke="black" stroke-dasharray="1,5" points="8,-70 8,-268 1276,-268 1276,-70 8,-70"/>
</g>
<g id="clust4" class="cluster">
<title>cluster_PseudonymModule_exports</title>
<polygon fill="none" stroke="black" points="492,-208 492,-260 798,-260 798,-208 492,-208"/>
</g>
<g id="clust3" class="cluster">
<title>cluster_PseudonymModule_imports</title>
<polygon fill="none" stroke="black" points="1026,-78 1026,-130 1268,-130 1268,-78 1026,-78"/>
</g>
<g id="clust6" class="cluster">
<title>cluster_PseudonymModule_providers</title>
<polygon fill="none" stroke="black" points="16,-78 16,-130 1018,-130 1018,-78 16,-78"/>
</g>
<!-- LearnroomModule -->
<g id="node1" class="node">
<title>LearnroomModule</title>
<polygon fill="#8dd3c7" stroke="black" points="1259.74,-122 1256.74,-126 1235.74,-126 1232.74,-122 1138.26,-122 1138.26,-86 1259.74,-86 1259.74,-122"/>
<text text-anchor="middle" x="1199" y="-99.8" font-family="Times,serif" font-size="14.00">LearnroomModule</text>
</g>
<!-- PseudonymModule -->
<g id="node3" class="node">
<title>PseudonymModule</title>
<polygon fill="#8dd3c7" stroke="black" points="702.38,-187 699.38,-191 678.38,-191 675.38,-187 577.62,-187 577.62,-151 702.38,-151 702.38,-187"/>
<text text-anchor="middle" x="640" y="-164.8" font-family="Times,serif" font-size="14.00">PseudonymModule</text>
</g>
<!-- LearnroomModule&#45;&gt;PseudonymModule -->
<g id="edge1" class="edge">
<title>LearnroomModule&#45;&gt;PseudonymModule</title>
<path fill="none" stroke="black" d="M1199,-122.29C1199,-144.21 1199,-178 1199,-178 1199,-178 712.5,-178 712.5,-178"/>
<polygon fill="black" stroke="black" points="712.5,-174.5 702.5,-178 712.5,-181.5 712.5,-174.5"/>
</g>
<!-- UserModule -->
<g id="node2" class="node">
<title>UserModule</title>
<polygon fill="#8dd3c7" stroke="black" points="1119.98,-122 1116.98,-126 1095.98,-126 1092.98,-122 1034.02,-122 1034.02,-86 1119.98,-86 1119.98,-122"/>
<text text-anchor="middle" x="1077" y="-99.8" font-family="Times,serif" font-size="14.00">UserModule</text>
</g>
<!-- UserModule&#45;&gt;PseudonymModule -->
<g id="edge2" class="edge">
<title>UserModule&#45;&gt;PseudonymModule</title>
<path fill="none" stroke="black" d="M1077,-122.11C1077,-141.34 1077,-169 1077,-169 1077,-169 712.61,-169 712.61,-169"/>
<polygon fill="black" stroke="black" points="712.61,-165.5 702.61,-169 712.61,-172.5 712.61,-165.5"/>
</g>
<!-- FeathersRosterService  -->
<g id="node4" class="node">
<title>FeathersRosterService </title>
<polygon fill="#fb8072" stroke="black" points="789.95,-252 644.05,-252 644.05,-216 789.95,-216 789.95,-252"/>
<text text-anchor="middle" x="717" y="-229.8" font-family="Times,serif" font-size="14.00">FeathersRosterService </text>
</g>
<!-- PseudonymModule&#45;&gt;FeathersRosterService  -->
<g id="edge3" class="edge">
<title>PseudonymModule&#45;&gt;FeathersRosterService </title>
<path fill="none" stroke="black" stroke-dasharray="5,2" d="M673.36,-187.11C673.36,-187.11 673.36,-205.99 673.36,-205.99"/>
<polygon fill="black" stroke="black" points="669.86,-205.99 673.36,-215.99 676.86,-205.99 669.86,-205.99"/>
</g>
<!-- PseudonymService  -->
<g id="node5" class="node">
<title>PseudonymService </title>
<polygon fill="#fb8072" stroke="black" points="626.31,-252 499.69,-252 499.69,-216 626.31,-216 626.31,-252"/>
<text text-anchor="middle" x="563" y="-229.8" font-family="Times,serif" font-size="14.00">PseudonymService </text>
</g>
<!-- PseudonymModule&#45;&gt;PseudonymService  -->
<g id="edge4" class="edge">
<title>PseudonymModule&#45;&gt;PseudonymService </title>
<path fill="none" stroke="black" stroke-dasharray="5,2" d="M601.98,-187.11C601.98,-187.11 601.98,-205.99 601.98,-205.99"/>
<polygon fill="black" stroke="black" points="598.48,-205.99 601.98,-215.99 605.48,-205.99 598.48,-205.99"/>
</g>
<!-- ExternalToolPseudonymRepo -->
<g id="node6" class="node">
<title>ExternalToolPseudonymRepo</title>
<ellipse fill="#fdb462" stroke="black" cx="883" cy="-104" rx="127.37" ry="18"/>
<text text-anchor="middle" x="883" y="-99.8" font-family="Times,serif" font-size="14.00">ExternalToolPseudonymRepo</text>
</g>
<!-- ExternalToolPseudonymRepo&#45;&gt;PseudonymModule -->
<g id="edge5" class="edge">
<title>ExternalToolPseudonymRepo&#45;&gt;PseudonymModule</title>
<path fill="none" stroke="black" d="M772.64,-113.25C772.64,-129.15 772.64,-160 772.64,-160 772.64,-160 712.44,-160 712.44,-160"/>
<polygon fill="black" stroke="black" points="712.44,-156.5 702.44,-160 712.44,-163.5 712.44,-156.5"/>
</g>
<!-- FeathersRosterService -->
<g id="node7" class="node">
<title>FeathersRosterService</title>
<ellipse fill="#fdb462" stroke="black" cx="640" cy="-104" rx="97.82" ry="18"/>
<text text-anchor="middle" x="640" y="-99.8" font-family="Times,serif" font-size="14.00">FeathersRosterService</text>
</g>
<!-- FeathersRosterService&#45;&gt;PseudonymModule -->
<g id="edge6" class="edge">
<title>FeathersRosterService&#45;&gt;PseudonymModule</title>
<path fill="none" stroke="black" d="M640,-122.11C640,-122.11 640,-140.99 640,-140.99"/>
<polygon fill="black" stroke="black" points="636.5,-140.99 640,-150.99 643.5,-140.99 636.5,-140.99"/>
</g>
<!-- LegacyLogger -->
<g id="node8" class="node">
<title>LegacyLogger</title>
<ellipse fill="#fdb462" stroke="black" cx="457" cy="-104" rx="67.18" ry="18"/>
<text text-anchor="middle" x="457" y="-99.8" font-family="Times,serif" font-size="14.00">LegacyLogger</text>
</g>
<!-- LegacyLogger&#45;&gt;PseudonymModule -->
<g id="edge7" class="edge">
<title>LegacyLogger&#45;&gt;PseudonymModule</title>
<path fill="none" stroke="black" d="M511.97,-114.53C511.97,-130.76 511.97,-160 511.97,-160 511.97,-160 567.48,-160 567.48,-160"/>
<polygon fill="black" stroke="black" points="567.48,-163.5 577.48,-160 567.48,-156.5 567.48,-163.5"/>
</g>
<!-- PseudonymService -->
<g id="node9" class="node">
<title>PseudonymService</title>
<ellipse fill="#fdb462" stroke="black" cx="287" cy="-104" rx="85.11" ry="18"/>
<text text-anchor="middle" x="287" y="-99.8" font-family="Times,serif" font-size="14.00">PseudonymService</text>
</g>
<!-- PseudonymService&#45;&gt;PseudonymModule -->
<g id="edge8" class="edge">
<title>PseudonymService&#45;&gt;PseudonymModule</title>
<path fill="none" stroke="black" d="M287,-122.11C287,-141.34 287,-169 287,-169 287,-169 567.3,-169 567.3,-169"/>
<polygon fill="black" stroke="black" points="567.3,-172.5 577.3,-169 567.3,-165.5 567.3,-172.5"/>
</g>
<!-- PseudonymsRepo -->
<g id="node10" class="node">
<title>PseudonymsRepo</title>
<ellipse fill="#fdb462" stroke="black" cx="104" cy="-104" rx="80.48" ry="18"/>
<text text-anchor="middle" x="104" y="-99.8" font-family="Times,serif" font-size="14.00">PseudonymsRepo</text>
</g>
<!-- PseudonymsRepo&#45;&gt;PseudonymModule -->
<g id="edge9" class="edge">
<title>PseudonymsRepo&#45;&gt;PseudonymModule</title>
<path fill="none" stroke="black" d="M104,-122.29C104,-144.21 104,-178 104,-178 104,-178 567.46,-178 567.46,-178"/>
<polygon fill="black" stroke="black" points="567.47,-181.5 577.46,-178 567.46,-174.5 567.47,-181.5"/>
</g>
</g>
</svg>
