<?xml version="1.0" encoding="UTF-8" standalone="no"?>
<!DOCTYPE svg PUBLIC "-//W3C//DTD SVG 1.1//EN"
 "http://www.w3.org/Graphics/SVG/1.1/DTD/svg11.dtd">
<!-- Generated by graphviz version 2.47.0 (20210316.0004)
 -->
<!-- Title: dependencies Pages: 1 -->
<svg width="556pt" height="284pt"
 viewBox="0.00 0.00 556.00 284.00" xmlns="http://www.w3.org/2000/svg" xmlns:xlink="http://www.w3.org/1999/xlink">
<g id="graph0" class="graph" transform="scale(1 1) rotate(0) translate(4 280)">
<title>dependencies</title>
<polygon fill="white" stroke="transparent" points="-4,4 -4,-280 552,-280 552,4 -4,4"/>
<text text-anchor="start" x="253.01" y="-42.4" font-family="Times-12" font-weight="bold" font-size="14.00">Legend</text>
<polygon fill="#ffffb3" stroke="transparent" points="40,-10 40,-30 60,-30 60,-10 40,-10"/>
<text text-anchor="start" x="63.63" y="-15.4" font-family="Times-12" font-size="14.00"> &#160;Declarations</text>
<polygon fill="#8dd3c7" stroke="transparent" points="153,-10 153,-30 173,-30 173,-10 153,-10"/>
<text text-anchor="start" x="176.73" y="-15.4" font-family="Times-12" font-size="14.00"> &#160;Module</text>
<polygon fill="#80b1d3" stroke="transparent" points="239,-10 239,-30 259,-30 259,-10 239,-10"/>
<text text-anchor="start" x="262.78" y="-15.4" font-family="Times-12" font-size="14.00"> &#160;Bootstrap</text>
<polygon fill="#fdb462" stroke="transparent" points="336,-10 336,-30 356,-30 356,-10 336,-10"/>
<text text-anchor="start" x="359.67" y="-15.4" font-family="Times-12" font-size="14.00"> &#160;Providers</text>
<polygon fill="#fb8072" stroke="transparent" points="432,-10 432,-30 452,-30 452,-10 432,-10"/>
<text text-anchor="start" x="455.73" y="-15.4" font-family="Times-12" font-size="14.00"> &#160;Exports</text>
<g id="clust1" class="cluster">
<title>cluster_PseudonymModule</title>
<polygon fill="none" stroke="black" stroke-dasharray="1,5" points="8,-70 8,-268 540,-268 540,-70 8,-70"/>
</g>
<g id="clust6" class="cluster">
<title>cluster_PseudonymModule_providers</title>
<polygon fill="none" stroke="black" points="16,-78 16,-130 532,-130 532,-78 16,-78"/>
</g>
<g id="clust4" class="cluster">
<title>cluster_PseudonymModule_exports</title>
<polygon fill="none" stroke="black" points="216,-208 216,-260 358,-260 358,-208 216,-208"/>
</g>
<!-- PseudonymService  -->
<g id="node1" class="node">
<title>PseudonymService </title>
<polygon fill="#fb8072" stroke="black" points="350.31,-252 223.69,-252 223.69,-216 350.31,-216 350.31,-252"/>
<text text-anchor="middle" x="287" y="-229.8" font-family="Times,serif" font-size="14.00">PseudonymService </text>
</g>
<!-- PseudonymModule -->
<g id="node2" class="node">
<title>PseudonymModule</title>
<polygon fill="#8dd3c7" stroke="black" points="349.38,-187 346.38,-191 325.38,-191 322.38,-187 224.62,-187 224.62,-151 349.38,-151 349.38,-187"/>
<text text-anchor="middle" x="287" y="-164.8" font-family="Times,serif" font-size="14.00">PseudonymModule</text>
</g>
<!-- PseudonymModule&#45;&gt;PseudonymService  -->
<g id="edge1" class="edge">
<title>PseudonymModule&#45;&gt;PseudonymService </title>
<path fill="none" stroke="black" stroke-dasharray="5,2" d="M287,-187.11C287,-187.11 287,-205.99 287,-205.99"/>
<polygon fill="black" stroke="black" points="283.5,-205.99 287,-215.99 290.5,-205.99 283.5,-205.99"/>
</g>
<!-- LegacyLogger -->
<g id="node3" class="node">
<title>LegacyLogger</title>
<ellipse fill="#fdb462" stroke="black" cx="457" cy="-104" rx="67.18" ry="18"/>
<text text-anchor="middle" x="457" y="-99.8" font-family="Times,serif" font-size="14.00">LegacyLogger</text>
</g>
<!-- LegacyLogger&#45;&gt;PseudonymModule -->
<g id="edge2" class="edge">
<title>LegacyLogger&#45;&gt;PseudonymModule</title>
<path fill="none" stroke="black" d="M457,-122.11C457,-141.34 457,-169 457,-169 457,-169 359.82,-169 359.82,-169"/>
<polygon fill="black" stroke="black" points="359.82,-165.5 349.82,-169 359.82,-172.5 359.82,-165.5"/>
</g>
<!-- PseudonymService -->
<g id="node4" class="node">
<title>PseudonymService</title>
<ellipse fill="#fdb462" stroke="black" cx="287" cy="-104" rx="85.11" ry="18"/>
<text text-anchor="middle" x="287" y="-99.8" font-family="Times,serif" font-size="14.00">PseudonymService</text>
</g>
<!-- PseudonymService&#45;&gt;PseudonymModule -->
<g id="edge3" class="edge">
<title>PseudonymService&#45;&gt;PseudonymModule</title>
<path fill="none" stroke="black" d="M287,-122.11C287,-122.11 287,-140.99 287,-140.99"/>
<polygon fill="black" stroke="black" points="283.5,-140.99 287,-150.99 290.5,-140.99 283.5,-140.99"/>
</g>
<!-- PseudonymsRepo -->
<g id="node5" class="node">
<title>PseudonymsRepo</title>
<ellipse fill="#fdb462" stroke="black" cx="104" cy="-104" rx="80.48" ry="18"/>
<text text-anchor="middle" x="104" y="-99.8" font-family="Times,serif" font-size="14.00">PseudonymsRepo</text>
</g>
<!-- PseudonymsRepo&#45;&gt;PseudonymModule -->
<g id="edge4" class="edge">
<title>PseudonymsRepo&#45;&gt;PseudonymModule</title>
<path fill="none" stroke="black" d="M104,-122.11C104,-141.34 104,-169 104,-169 104,-169 214.53,-169 214.53,-169"/>
<polygon fill="black" stroke="black" points="214.53,-172.5 224.53,-169 214.53,-165.5 214.53,-172.5"/>
</g>
</g>
</svg>
