<?xml version="1.0" encoding="UTF-8" standalone="no"?>
<!DOCTYPE svg PUBLIC "-//W3C//DTD SVG 1.1//EN"
 "http://www.w3.org/Graphics/SVG/1.1/DTD/svg11.dtd">
<!-- Generated by graphviz version 2.47.0 (20210316.0004)
 -->
<!-- Title: dependencies Pages: 1 -->
<svg width="1410pt" height="284pt"
 viewBox="0.00 0.00 1410.00 284.00" xmlns="http://www.w3.org/2000/svg" xmlns:xlink="http://www.w3.org/1999/xlink">
<g id="graph0" class="graph" transform="scale(1 1) rotate(0) translate(4 280)">
<title>dependencies</title>
<polygon fill="white" stroke="transparent" points="-4,4 -4,-280 1406,-280 1406,4 -4,4"/>
<text text-anchor="start" x="680.01" y="-42.4" font-family="Times-12" font-weight="bold" font-size="14.00">Legend</text>
<polygon fill="#ffffb3" stroke="transparent" points="467,-10 467,-30 487,-30 487,-10 467,-10"/>
<text text-anchor="start" x="490.63" y="-15.4" font-family="Times-12" font-size="14.00"> &#160;Declarations</text>
<polygon fill="#8dd3c7" stroke="transparent" points="580,-10 580,-30 600,-30 600,-10 580,-10"/>
<text text-anchor="start" x="603.73" y="-15.4" font-family="Times-12" font-size="14.00"> &#160;Module</text>
<polygon fill="#80b1d3" stroke="transparent" points="666,-10 666,-30 686,-30 686,-10 666,-10"/>
<text text-anchor="start" x="689.78" y="-15.4" font-family="Times-12" font-size="14.00"> &#160;Bootstrap</text>
<polygon fill="#fdb462" stroke="transparent" points="763,-10 763,-30 783,-30 783,-10 763,-10"/>
<text text-anchor="start" x="786.67" y="-15.4" font-family="Times-12" font-size="14.00"> &#160;Providers</text>
<polygon fill="#fb8072" stroke="transparent" points="859,-10 859,-30 879,-30 879,-10 859,-10"/>
<text text-anchor="start" x="882.73" y="-15.4" font-family="Times-12" font-size="14.00"> &#160;Exports</text>
<g id="clust1" class="cluster">
<title>cluster_PseudonymModule</title>
<polygon fill="none" stroke="black" stroke-dasharray="1,5" points="8,-70 8,-268 1394,-268 1394,-70 8,-70"/>
</g>
<g id="clust3" class="cluster">
<title>cluster_PseudonymModule_imports</title>
<polygon fill="none" stroke="black" points="1026,-78 1026,-130 1386,-130 1386,-78 1026,-78"/>
</g>
<g id="clust6" class="cluster">
<title>cluster_PseudonymModule_providers</title>
<polygon fill="none" stroke="black" points="16,-78 16,-130 1018,-130 1018,-78 16,-78"/>
</g>
<g id="clust4" class="cluster">
<title>cluster_PseudonymModule_exports</title>
<polygon fill="none" stroke="black" points="613,-208 613,-260 919,-260 919,-208 613,-208"/>
</g>
<!-- LearnroomModule -->
<g id="node1" class="node">
<title>LearnroomModule</title>
<polygon fill="#8dd3c7" stroke="black" points="1377.74,-122 1374.74,-126 1353.74,-126 1350.74,-122 1256.26,-122 1256.26,-86 1377.74,-86 1377.74,-122"/>
<text text-anchor="middle" x="1317" y="-99.8" font-family="Times,serif" font-size="14.00">LearnroomModule</text>
</g>
<!-- PseudonymModule -->
<g id="node4" class="node">
<title>PseudonymModule</title>
<polygon fill="#8dd3c7" stroke="black" points="823.38,-187 820.38,-191 799.38,-191 796.38,-187 698.62,-187 698.62,-151 823.38,-151 823.38,-187"/>
<text text-anchor="middle" x="761" y="-164.8" font-family="Times,serif" font-size="14.00">PseudonymModule</text>
</g>
<!-- LearnroomModule&#45;&gt;PseudonymModule -->
<g id="edge1" class="edge">
<title>LearnroomModule&#45;&gt;PseudonymModule</title>
<path fill="none" stroke="black" d="M1317,-122.29C1317,-144.21 1317,-178 1317,-178 1317,-178 833.43,-178 833.43,-178"/>
<polygon fill="black" stroke="black" points="833.43,-174.5 823.43,-178 833.43,-181.5 833.43,-174.5"/>
</g>
<!-- LoggerModule -->
<g id="node2" class="node">
<title>LoggerModule</title>
<polygon fill="#8dd3c7" stroke="black" points="1237.98,-122 1234.98,-126 1213.98,-126 1210.98,-122 1138.02,-122 1138.02,-86 1237.98,-86 1237.98,-122"/>
<text text-anchor="middle" x="1188" y="-99.8" font-family="Times,serif" font-size="14.00">LoggerModule</text>
</g>
<!-- LoggerModule&#45;&gt;PseudonymModule -->
<g id="edge2" class="edge">
<title>LoggerModule&#45;&gt;PseudonymModule</title>
<path fill="none" stroke="black" d="M1188,-122.11C1188,-141.34 1188,-169 1188,-169 1188,-169 833.55,-169 833.55,-169"/>
<polygon fill="black" stroke="black" points="833.55,-165.5 823.55,-169 833.55,-172.5 833.55,-165.5"/>
</g>
<!-- UserModule -->
<g id="node3" class="node">
<title>UserModule</title>
<polygon fill="#8dd3c7" stroke="black" points="1119.98,-122 1116.98,-126 1095.98,-126 1092.98,-122 1034.02,-122 1034.02,-86 1119.98,-86 1119.98,-122"/>
<text text-anchor="middle" x="1077" y="-99.8" font-family="Times,serif" font-size="14.00">UserModule</text>
</g>
<!-- UserModule&#45;&gt;PseudonymModule -->
<g id="edge3" class="edge">
<title>UserModule&#45;&gt;PseudonymModule</title>
<path fill="none" stroke="black" d="M1077,-122.03C1077,-138.4 1077,-160 1077,-160 1077,-160 833.43,-160 833.43,-160"/>
<polygon fill="black" stroke="black" points="833.43,-156.5 823.43,-160 833.43,-163.5 833.43,-156.5"/>
</g>
<!-- FeathersRosterService  -->
<g id="node5" class="node">
<title>FeathersRosterService </title>
<polygon fill="#fb8072" stroke="black" points="910.95,-252 765.05,-252 765.05,-216 910.95,-216 910.95,-252"/>
<text text-anchor="middle" x="838" y="-229.8" font-family="Times,serif" font-size="14.00">FeathersRosterService </text>
</g>
<!-- PseudonymModule&#45;&gt;FeathersRosterService  -->
<g id="edge4" class="edge">
<title>PseudonymModule&#45;&gt;FeathersRosterService </title>
<path fill="none" stroke="black" stroke-dasharray="5,2" d="M794.36,-187.11C794.36,-187.11 794.36,-205.99 794.36,-205.99"/>
<polygon fill="black" stroke="black" points="790.86,-205.99 794.36,-215.99 797.86,-205.99 790.86,-205.99"/>
</g>
<!-- PseudonymService  -->
<g id="node6" class="node">
<title>PseudonymService </title>
<polygon fill="#fb8072" stroke="black" points="747.31,-252 620.69,-252 620.69,-216 747.31,-216 747.31,-252"/>
<text text-anchor="middle" x="684" y="-229.8" font-family="Times,serif" font-size="14.00">PseudonymService </text>
</g>
<!-- PseudonymModule&#45;&gt;PseudonymService  -->
<g id="edge5" class="edge">
<title>PseudonymModule&#45;&gt;PseudonymService </title>
<path fill="none" stroke="black" stroke-dasharray="5,2" d="M722.98,-187.11C722.98,-187.11 722.98,-205.99 722.98,-205.99"/>
<polygon fill="black" stroke="black" points="719.48,-205.99 722.98,-215.99 726.48,-205.99 719.48,-205.99"/>
</g>
<!-- ExternalToolPseudonymRepo -->
<g id="node7" class="node">
<title>ExternalToolPseudonymRepo</title>
<ellipse fill="#fdb462" stroke="black" cx="883" cy="-104" rx="127.37" ry="18"/>
<text text-anchor="middle" x="883" y="-99.8" font-family="Times,serif" font-size="14.00">ExternalToolPseudonymRepo</text>
</g>
<!-- ExternalToolPseudonymRepo&#45;&gt;PseudonymModule -->
<g id="edge6" class="edge">
<title>ExternalToolPseudonymRepo&#45;&gt;PseudonymModule</title>
<path fill="none" stroke="black" d="M789.5,-116.53C789.5,-116.53 789.5,-140.85 789.5,-140.85"/>
<polygon fill="black" stroke="black" points="786,-140.85 789.5,-150.85 793,-140.85 786,-140.85"/>
</g>
<!-- FeathersRosterService -->
<g id="node8" class="node">
<title>FeathersRosterService</title>
<ellipse fill="#fdb462" stroke="black" cx="640" cy="-104" rx="97.82" ry="18"/>
<text text-anchor="middle" x="640" y="-99.8" font-family="Times,serif" font-size="14.00">FeathersRosterService</text>
</g>
<!-- FeathersRosterService&#45;&gt;PseudonymModule -->
<g id="edge7" class="edge">
<title>FeathersRosterService&#45;&gt;PseudonymModule</title>
<path fill="none" stroke="black" d="M718.24,-115.03C718.24,-115.03 718.24,-140.78 718.24,-140.78"/>
<polygon fill="black" stroke="black" points="714.74,-140.78 718.24,-150.78 721.74,-140.78 714.74,-140.78"/>
</g>
<!-- LegacyLogger -->
<g id="node9" class="node">
<title>LegacyLogger</title>
<ellipse fill="#fdb462" stroke="black" cx="457" cy="-104" rx="67.18" ry="18"/>
<text text-anchor="middle" x="457" y="-99.8" font-family="Times,serif" font-size="14.00">LegacyLogger</text>
</g>
<!-- LegacyLogger&#45;&gt;PseudonymModule -->
<g id="edge8" class="edge">
<title>LegacyLogger&#45;&gt;PseudonymModule</title>
<path fill="none" stroke="black" d="M457,-122.03C457,-138.4 457,-160 457,-160 457,-160 688.38,-160 688.38,-160"/>
<polygon fill="black" stroke="black" points="688.38,-163.5 698.38,-160 688.38,-156.5 688.38,-163.5"/>
</g>
<!-- PseudonymService -->
<g id="node10" class="node">
<title>PseudonymService</title>
<ellipse fill="#fdb462" stroke="black" cx="287" cy="-104" rx="85.11" ry="18"/>
<text text-anchor="middle" x="287" y="-99.8" font-family="Times,serif" font-size="14.00">PseudonymService</text>
</g>
<!-- PseudonymService&#45;&gt;PseudonymModule -->
<g id="edge9" class="edge">
<title>PseudonymService&#45;&gt;PseudonymModule</title>
<path fill="none" stroke="black" d="M287,-122.11C287,-141.34 287,-169 287,-169 287,-169 688.55,-169 688.55,-169"/>
<polygon fill="black" stroke="black" points="688.55,-172.5 698.55,-169 688.55,-165.5 688.55,-172.5"/>
</g>
<!-- PseudonymsRepo -->
<g id="node11" class="node">
<title>PseudonymsRepo</title>
<ellipse fill="#fdb462" stroke="black" cx="104" cy="-104" rx="80.48" ry="18"/>
<text text-anchor="middle" x="104" y="-99.8" font-family="Times,serif" font-size="14.00">PseudonymsRepo</text>
</g>
<!-- PseudonymsRepo&#45;&gt;PseudonymModule -->
<g id="edge10" class="edge">
<title>PseudonymsRepo&#45;&gt;PseudonymModule</title>
<path fill="none" stroke="black" d="M104,-122.29C104,-144.21 104,-178 104,-178 104,-178 688.6,-178 688.6,-178"/>
<polygon fill="black" stroke="black" points="688.6,-181.5 698.6,-178 688.6,-174.5 688.6,-181.5"/>
</g>
</g>
</svg>
