<?xml version="1.0" encoding="UTF-8" standalone="no"?>
<!DOCTYPE svg PUBLIC "-//W3C//DTD SVG 1.1//EN"
 "http://www.w3.org/Graphics/SVG/1.1/DTD/svg11.dtd">
<!-- Generated by graphviz version 2.47.0 (20210316.0004)
 -->
<!-- Title: dependencies Pages: 1 -->
<svg width="829pt" height="284pt"
 viewBox="0.00 0.00 829.00 284.00" xmlns="http://www.w3.org/2000/svg" xmlns:xlink="http://www.w3.org/1999/xlink">
<g id="graph0" class="graph" transform="scale(1 1) rotate(0) translate(4 280)">
<title>dependencies</title>
<polygon fill="white" stroke="transparent" points="-4,4 -4,-280 825,-280 825,4 -4,4"/>
<text text-anchor="start" x="389.51" y="-42.4" font-family="Times-12" font-weight="bold" font-size="14.00">Legend</text>
<polygon fill="#ffffb3" stroke="transparent" points="176.5,-10 176.5,-30 196.5,-30 196.5,-10 176.5,-10"/>
<text text-anchor="start" x="200.13" y="-15.4" font-family="Times-12" font-size="14.00"> &#160;Declarations</text>
<polygon fill="#8dd3c7" stroke="transparent" points="289.5,-10 289.5,-30 309.5,-30 309.5,-10 289.5,-10"/>
<text text-anchor="start" x="313.23" y="-15.4" font-family="Times-12" font-size="14.00"> &#160;Module</text>
<polygon fill="#80b1d3" stroke="transparent" points="375.5,-10 375.5,-30 395.5,-30 395.5,-10 375.5,-10"/>
<text text-anchor="start" x="399.28" y="-15.4" font-family="Times-12" font-size="14.00"> &#160;Bootstrap</text>
<polygon fill="#fdb462" stroke="transparent" points="472.5,-10 472.5,-30 492.5,-30 492.5,-10 472.5,-10"/>
<text text-anchor="start" x="496.17" y="-15.4" font-family="Times-12" font-size="14.00"> &#160;Providers</text>
<polygon fill="#fb8072" stroke="transparent" points="568.5,-10 568.5,-30 588.5,-30 588.5,-10 568.5,-10"/>
<text text-anchor="start" x="592.23" y="-15.4" font-family="Times-12" font-size="14.00"> &#160;Exports</text>
<g id="clust1" class="cluster">
<title>cluster_PseudonymModule</title>
<polygon fill="none" stroke="black" stroke-dasharray="1,5" points="8,-70 8,-268 813,-268 813,-70 8,-70"/>
</g>
<g id="clust6" class="cluster">
<title>cluster_PseudonymModule_providers</title>
<polygon fill="none" stroke="black" points="16,-78 16,-130 805,-130 805,-78 16,-78"/>
</g>
<g id="clust4" class="cluster">
<title>cluster_PseudonymModule_exports</title>
<polygon fill="none" stroke="black" points="301,-208 301,-260 443,-260 443,-208 301,-208"/>
</g>
<!-- PseudonymService  -->
<g id="node1" class="node">
<title>PseudonymService </title>
<polygon fill="#fb8072" stroke="black" points="435.31,-252 308.69,-252 308.69,-216 435.31,-216 435.31,-252"/>
<text text-anchor="middle" x="372" y="-229.8" font-family="Times,serif" font-size="14.00">PseudonymService </text>
</g>
<!-- PseudonymModule -->
<g id="node2" class="node">
<title>PseudonymModule</title>
<polygon fill="#8dd3c7" stroke="black" points="434.38,-187 431.38,-191 410.38,-191 407.38,-187 309.62,-187 309.62,-151 434.38,-151 434.38,-187"/>
<text text-anchor="middle" x="372" y="-164.8" font-family="Times,serif" font-size="14.00">PseudonymModule</text>
</g>
<!-- PseudonymModule&#45;&gt;PseudonymService  -->
<g id="edge1" class="edge">
<title>PseudonymModule&#45;&gt;PseudonymService </title>
<path fill="none" stroke="black" stroke-dasharray="5,2" d="M372,-187.11C372,-187.11 372,-205.99 372,-205.99"/>
<polygon fill="black" stroke="black" points="368.5,-205.99 372,-215.99 375.5,-205.99 368.5,-205.99"/>
</g>
<!-- ExternalToolPseudonymRepo -->
<g id="node3" class="node">
<title>ExternalToolPseudonymRepo</title>
<ellipse fill="#fdb462" stroke="black" cx="670" cy="-104" rx="127.37" ry="18"/>
<text text-anchor="middle" x="670" y="-99.8" font-family="Times,serif" font-size="14.00">ExternalToolPseudonymRepo</text>
</g>
<!-- ExternalToolPseudonymRepo&#45;&gt;PseudonymModule -->
<g id="edge2" class="edge">
<title>ExternalToolPseudonymRepo&#45;&gt;PseudonymModule</title>
<path fill="none" stroke="black" d="M670,-122.11C670,-141.34 670,-169 670,-169 670,-169 444.47,-169 444.47,-169"/>
<polygon fill="black" stroke="black" points="444.47,-165.5 434.47,-169 444.47,-172.5 444.47,-165.5"/>
</g>
<!-- LegacyLogger -->
<g id="node4" class="node">
<title>LegacyLogger</title>
<ellipse fill="#fdb462" stroke="black" cx="457" cy="-104" rx="67.18" ry="18"/>
<text text-anchor="middle" x="457" y="-99.8" font-family="Times,serif" font-size="14.00">LegacyLogger</text>
</g>
<!-- LegacyLogger&#45;&gt;PseudonymModule -->
<g id="edge3" class="edge">
<title>LegacyLogger&#45;&gt;PseudonymModule</title>
<path fill="none" stroke="black" d="M412.05,-117.47C412.05,-117.47 412.05,-140.86 412.05,-140.86"/>
<polygon fill="black" stroke="black" points="408.55,-140.86 412.05,-150.86 415.55,-140.86 408.55,-140.86"/>
</g>
<!-- PseudonymService -->
<g id="node5" class="node">
<title>PseudonymService</title>
<ellipse fill="#fdb462" stroke="black" cx="287" cy="-104" rx="85.11" ry="18"/>
<text text-anchor="middle" x="287" y="-99.8" font-family="Times,serif" font-size="14.00">PseudonymService</text>
</g>
<!-- PseudonymService&#45;&gt;PseudonymModule -->
<g id="edge4" class="edge">
<title>PseudonymService&#45;&gt;PseudonymModule</title>
<path fill="none" stroke="black" d="M340.81,-118.1C340.81,-118.1 340.81,-140.72 340.81,-140.72"/>
<polygon fill="black" stroke="black" points="337.31,-140.72 340.81,-150.72 344.31,-140.72 337.31,-140.72"/>
</g>
<!-- PseudonymsRepo -->
<g id="node6" class="node">
<title>PseudonymsRepo</title>
<ellipse fill="#fdb462" stroke="black" cx="104" cy="-104" rx="80.48" ry="18"/>
<text text-anchor="middle" x="104" y="-99.8" font-family="Times,serif" font-size="14.00">PseudonymsRepo</text>
</g>
<!-- PseudonymsRepo&#45;&gt;PseudonymModule -->
<g id="edge5" class="edge">
<title>PseudonymsRepo&#45;&gt;PseudonymModule</title>
<path fill="none" stroke="black" d="M104,-122.11C104,-141.34 104,-169 104,-169 104,-169 299.5,-169 299.5,-169"/>
<polygon fill="black" stroke="black" points="299.5,-172.5 309.5,-169 299.5,-165.5 299.5,-172.5"/>
</g>
</g>
</svg>
