<?xml version="1.0" encoding="UTF-8" standalone="no"?>
<!DOCTYPE svg PUBLIC "-//W3C//DTD SVG 1.1//EN"
 "http://www.w3.org/Graphics/SVG/1.1/DTD/svg11.dtd">
<!-- Generated by graphviz version 2.47.0 (20210316.0004)
 -->
<!-- Title: dependencies Pages: 1 -->
<svg width="1292pt" height="284pt"
 viewBox="0.00 0.00 1292.00 284.00" xmlns="http://www.w3.org/2000/svg" xmlns:xlink="http://www.w3.org/1999/xlink">
<g id="graph0" class="graph" transform="scale(1 1) rotate(0) translate(4 280)">
<title>dependencies</title>
<polygon fill="white" stroke="transparent" points="-4,4 -4,-280 1288,-280 1288,4 -4,4"/>
<text text-anchor="start" x="621.01" y="-42.4" font-family="Times-12" font-weight="bold" font-size="14.00">Legend</text>
<polygon fill="#ffffb3" stroke="transparent" points="408,-10 408,-30 428,-30 428,-10 408,-10"/>
<text text-anchor="start" x="431.63" y="-15.4" font-family="Times-12" font-size="14.00"> &#160;Declarations</text>
<polygon fill="#8dd3c7" stroke="transparent" points="521,-10 521,-30 541,-30 541,-10 521,-10"/>
<text text-anchor="start" x="544.73" y="-15.4" font-family="Times-12" font-size="14.00"> &#160;Module</text>
<polygon fill="#80b1d3" stroke="transparent" points="607,-10 607,-30 627,-30 627,-10 607,-10"/>
<text text-anchor="start" x="630.78" y="-15.4" font-family="Times-12" font-size="14.00"> &#160;Bootstrap</text>
<polygon fill="#fdb462" stroke="transparent" points="704,-10 704,-30 724,-30 724,-10 704,-10"/>
<text text-anchor="start" x="727.67" y="-15.4" font-family="Times-12" font-size="14.00"> &#160;Providers</text>
<polygon fill="#fb8072" stroke="transparent" points="800,-10 800,-30 820,-30 820,-10 800,-10"/>
<text text-anchor="start" x="823.73" y="-15.4" font-family="Times-12" font-size="14.00"> &#160;Exports</text>
<g id="clust1" class="cluster">
<title>cluster_PseudonymModule</title>
<polygon fill="none" stroke="black" stroke-dasharray="1,5" points="8,-70 8,-268 1276,-268 1276,-70 8,-70"/>
</g>
<g id="clust6" class="cluster">
<title>cluster_PseudonymModule_providers</title>
<polygon fill="none" stroke="black" points="266,-78 266,-130 1268,-130 1268,-78 266,-78"/>
</g>
<g id="clust3" class="cluster">
<title>cluster_PseudonymModule_imports</title>
<polygon fill="none" stroke="black" points="16,-78 16,-130 258,-130 258,-78 16,-78"/>
</g>
<g id="clust4" class="cluster">
<title>cluster_PseudonymModule_exports</title>
<polygon fill="none" stroke="black" points="389,-208 389,-260 695,-260 695,-208 389,-208"/>
</g>
<!-- LearnroomModule -->
<g id="node1" class="node">
<title>LearnroomModule</title>
<polygon fill="#8dd3c7" stroke="black" points="249.74,-122 246.74,-126 225.74,-126 222.74,-122 128.26,-122 128.26,-86 249.74,-86 249.74,-122"/>
<text text-anchor="middle" x="189" y="-99.8" font-family="Times,serif" font-size="14.00">LearnroomModule</text>
</g>
<!-- PseudonymModule -->
<g id="node3" class="node">
<title>PseudonymModule</title>
<polygon fill="#8dd3c7" stroke="black" points="599.38,-187 596.38,-191 575.38,-191 572.38,-187 474.62,-187 474.62,-151 599.38,-151 599.38,-187"/>
<text text-anchor="middle" x="537" y="-164.8" font-family="Times,serif" font-size="14.00">PseudonymModule</text>
</g>
<!-- LearnroomModule&#45;&gt;PseudonymModule -->
<g id="edge1" class="edge">
<title>LearnroomModule&#45;&gt;PseudonymModule</title>
<path fill="none" stroke="black" d="M189,-122.11C189,-141.34 189,-169 189,-169 189,-169 464.38,-169 464.38,-169"/>
<polygon fill="black" stroke="black" points="464.38,-172.5 474.38,-169 464.38,-165.5 464.38,-172.5"/>
</g>
<!-- UserModule -->
<g id="node2" class="node">
<title>UserModule</title>
<polygon fill="#8dd3c7" stroke="black" points="109.98,-122 106.98,-126 85.98,-126 82.98,-122 24.02,-122 24.02,-86 109.98,-86 109.98,-122"/>
<text text-anchor="middle" x="67" y="-99.8" font-family="Times,serif" font-size="14.00">UserModule</text>
</g>
<!-- UserModule&#45;&gt;PseudonymModule -->
<g id="edge2" class="edge">
<title>UserModule&#45;&gt;PseudonymModule</title>
<path fill="none" stroke="black" d="M67,-122.29C67,-144.21 67,-178 67,-178 67,-178 464.59,-178 464.59,-178"/>
<polygon fill="black" stroke="black" points="464.59,-181.5 474.59,-178 464.59,-174.5 464.59,-181.5"/>
</g>
<!-- FeathersRosterService  -->
<g id="node4" class="node">
<title>FeathersRosterService </title>
<polygon fill="#fb8072" stroke="black" points="686.95,-252 541.05,-252 541.05,-216 686.95,-216 686.95,-252"/>
<text text-anchor="middle" x="614" y="-229.8" font-family="Times,serif" font-size="14.00">FeathersRosterService </text>
</g>
<!-- PseudonymModule&#45;&gt;FeathersRosterService  -->
<g id="edge3" class="edge">
<title>PseudonymModule&#45;&gt;FeathersRosterService </title>
<path fill="none" stroke="black" stroke-dasharray="5,2" d="M570.36,-187.11C570.36,-187.11 570.36,-205.99 570.36,-205.99"/>
<polygon fill="black" stroke="black" points="566.86,-205.99 570.36,-215.99 573.86,-205.99 566.86,-205.99"/>
</g>
<!-- PseudonymService  -->
<g id="node5" class="node">
<title>PseudonymService </title>
<polygon fill="#fb8072" stroke="black" points="523.31,-252 396.69,-252 396.69,-216 523.31,-216 523.31,-252"/>
<text text-anchor="middle" x="460" y="-229.8" font-family="Times,serif" font-size="14.00">PseudonymService </text>
</g>
<!-- PseudonymModule&#45;&gt;PseudonymService  -->
<g id="edge4" class="edge">
<title>PseudonymModule&#45;&gt;PseudonymService </title>
<path fill="none" stroke="black" stroke-dasharray="5,2" d="M498.98,-187.11C498.98,-187.11 498.98,-205.99 498.98,-205.99"/>
<polygon fill="black" stroke="black" points="495.48,-205.99 498.98,-215.99 502.48,-205.99 495.48,-205.99"/>
</g>
<!-- ExternalToolPseudonymRepo -->
<g id="node6" class="node">
<title>ExternalToolPseudonymRepo</title>
<ellipse fill="#fdb462" stroke="black" cx="1133" cy="-104" rx="127.37" ry="18"/>
<text text-anchor="middle" x="1133" y="-99.8" font-family="Times,serif" font-size="14.00">ExternalToolPseudonymRepo</text>
</g>
<!-- ExternalToolPseudonymRepo&#45;&gt;PseudonymModule -->
<g id="edge5" class="edge">
<title>ExternalToolPseudonymRepo&#45;&gt;PseudonymModule</title>
<path fill="none" stroke="black" d="M1133,-122.29C1133,-144.21 1133,-178 1133,-178 1133,-178 609.66,-178 609.66,-178"/>
<polygon fill="black" stroke="black" points="609.66,-174.5 599.66,-178 609.66,-181.5 609.66,-174.5"/>
</g>
<!-- FeathersRosterService -->
<g id="node7" class="node">
<title>FeathersRosterService</title>
<ellipse fill="#fdb462" stroke="black" cx="890" cy="-104" rx="97.82" ry="18"/>
<text text-anchor="middle" x="890" y="-99.8" font-family="Times,serif" font-size="14.00">FeathersRosterService</text>
</g>
<!-- FeathersRosterService&#45;&gt;PseudonymModule -->
<g id="edge6" class="edge">
<title>FeathersRosterService&#45;&gt;PseudonymModule</title>
<path fill="none" stroke="black" d="M890,-122.11C890,-141.34 890,-169 890,-169 890,-169 609.7,-169 609.7,-169"/>
<polygon fill="black" stroke="black" points="609.7,-165.5 599.7,-169 609.7,-172.5 609.7,-165.5"/>
</g>
<!-- LegacyLogger -->
<g id="node8" class="node">
<title>LegacyLogger</title>
<ellipse fill="#fdb462" stroke="black" cx="707" cy="-104" rx="67.18" ry="18"/>
<text text-anchor="middle" x="707" y="-99.8" font-family="Times,serif" font-size="14.00">LegacyLogger</text>
</g>
<!-- LegacyLogger&#45;&gt;PseudonymModule -->
<g id="edge7" class="edge">
<title>LegacyLogger&#45;&gt;PseudonymModule</title>
<path fill="none" stroke="black" d="M663.19,-117.84C663.19,-134.43 663.19,-160 663.19,-160 663.19,-160 609.73,-160 609.73,-160"/>
<polygon fill="black" stroke="black" points="609.73,-156.5 599.73,-160 609.73,-163.5 609.73,-156.5"/>
</g>
<!-- PseudonymService -->
<g id="node9" class="node">
<title>PseudonymService</title>
<ellipse fill="#fdb462" stroke="black" cx="537" cy="-104" rx="85.11" ry="18"/>
<text text-anchor="middle" x="537" y="-99.8" font-family="Times,serif" font-size="14.00">PseudonymService</text>
</g>
<!-- PseudonymService&#45;&gt;PseudonymModule -->
<g id="edge8" class="edge">
<title>PseudonymService&#45;&gt;PseudonymModule</title>
<path fill="none" stroke="black" d="M537,-122.11C537,-122.11 537,-140.99 537,-140.99"/>
<polygon fill="black" stroke="black" points="533.5,-140.99 537,-150.99 540.5,-140.99 533.5,-140.99"/>
</g>
<!-- PseudonymsRepo -->
<g id="node10" class="node">
<title>PseudonymsRepo</title>
<ellipse fill="#fdb462" stroke="black" cx="354" cy="-104" rx="80.48" ry="18"/>
<text text-anchor="middle" x="354" y="-99.8" font-family="Times,serif" font-size="14.00">PseudonymsRepo</text>
</g>
<!-- PseudonymsRepo&#45;&gt;PseudonymModule -->
<g id="edge9" class="edge">
<title>PseudonymsRepo&#45;&gt;PseudonymModule</title>
<path fill="none" stroke="black" d="M415.42,-115.6C415.42,-132.01 415.42,-160 415.42,-160 415.42,-160 464.43,-160 464.43,-160"/>
<polygon fill="black" stroke="black" points="464.43,-163.5 474.43,-160 464.43,-156.5 464.43,-163.5"/>
</g>
</g>
</svg>
