<?xml version="1.0" encoding="UTF-8" standalone="no"?>
<!DOCTYPE svg PUBLIC "-//W3C//DTD SVG 1.1//EN"
 "http://www.w3.org/Graphics/SVG/1.1/DTD/svg11.dtd">
<!-- Generated by graphviz version 2.47.0 (20210316.0004)
 -->
<!-- Title: dependencies Pages: 1 -->
<svg width="977pt" height="284pt"
 viewBox="0.00 0.00 977.00 284.00" xmlns="http://www.w3.org/2000/svg" xmlns:xlink="http://www.w3.org/1999/xlink">
<g id="graph0" class="graph" transform="scale(1 1) rotate(0) translate(4 280)">
<title>dependencies</title>
<polygon fill="white" stroke="transparent" points="-4,4 -4,-280 973,-280 973,4 -4,4"/>
<text text-anchor="start" x="463.51" y="-42.4" font-family="Times-12" font-weight="bold" font-size="14.00">Legend</text>
<polygon fill="#ffffb3" stroke="transparent" points="250.5,-10 250.5,-30 270.5,-30 270.5,-10 250.5,-10"/>
<text text-anchor="start" x="274.13" y="-15.4" font-family="Times-12" font-size="14.00"> &#160;Declarations</text>
<polygon fill="#8dd3c7" stroke="transparent" points="363.5,-10 363.5,-30 383.5,-30 383.5,-10 363.5,-10"/>
<text text-anchor="start" x="387.23" y="-15.4" font-family="Times-12" font-size="14.00"> &#160;Module</text>
<polygon fill="#80b1d3" stroke="transparent" points="449.5,-10 449.5,-30 469.5,-30 469.5,-10 449.5,-10"/>
<text text-anchor="start" x="473.28" y="-15.4" font-family="Times-12" font-size="14.00"> &#160;Bootstrap</text>
<polygon fill="#fdb462" stroke="transparent" points="546.5,-10 546.5,-30 566.5,-30 566.5,-10 546.5,-10"/>
<text text-anchor="start" x="570.17" y="-15.4" font-family="Times-12" font-size="14.00"> &#160;Providers</text>
<polygon fill="#fb8072" stroke="transparent" points="642.5,-10 642.5,-30 662.5,-30 662.5,-10 642.5,-10"/>
<text text-anchor="start" x="666.23" y="-15.4" font-family="Times-12" font-size="14.00"> &#160;Exports</text>
<g id="clust1" class="cluster">
<title>cluster_PseudonymModule</title>
<polygon fill="none" stroke="black" stroke-dasharray="1,5" points="8,-70 8,-268 961,-268 961,-70 8,-70"/>
</g>
<g id="clust3" class="cluster">
<title>cluster_PseudonymModule_imports</title>
<polygon fill="none" stroke="black" points="813,-78 813,-130 953,-130 953,-78 813,-78"/>
</g>
<g id="clust6" class="cluster">
<title>cluster_PseudonymModule_providers</title>
<polygon fill="none" stroke="black" points="16,-78 16,-130 805,-130 805,-78 16,-78"/>
</g>
<g id="clust4" class="cluster">
<title>cluster_PseudonymModule_exports</title>
<polygon fill="none" stroke="black" points="386,-208 386,-260 528,-260 528,-208 386,-208"/>
</g>
<!-- ToolConfigModule -->
<g id="node1" class="node">
<title>ToolConfigModule</title>
<polygon fill="#8dd3c7" stroke="black" points="945.38,-122 942.38,-126 921.38,-126 918.38,-122 820.62,-122 820.62,-86 945.38,-86 945.38,-122"/>
<text text-anchor="middle" x="883" y="-99.8" font-family="Times,serif" font-size="14.00">ToolConfigModule</text>
</g>
<!-- PseudonymModule -->
<g id="node2" class="node">
<title>PseudonymModule</title>
<polygon fill="#8dd3c7" stroke="black" points="519.38,-187 516.38,-191 495.38,-191 492.38,-187 394.62,-187 394.62,-151 519.38,-151 519.38,-187"/>
<text text-anchor="middle" x="457" y="-164.8" font-family="Times,serif" font-size="14.00">PseudonymModule</text>
</g>
<!-- ToolConfigModule&#45;&gt;PseudonymModule -->
<g id="edge1" class="edge">
<title>ToolConfigModule&#45;&gt;PseudonymModule</title>
<path fill="none" stroke="black" d="M883,-122.28C883,-143.32 883,-175 883,-175 883,-175 529.4,-175 529.4,-175"/>
<polygon fill="black" stroke="black" points="529.4,-171.5 519.4,-175 529.4,-178.5 529.4,-171.5"/>
</g>
<!-- PseudonymService  -->
<g id="node3" class="node">
<title>PseudonymService </title>
<polygon fill="#fb8072" stroke="black" points="520.31,-252 393.69,-252 393.69,-216 520.31,-216 520.31,-252"/>
<text text-anchor="middle" x="457" y="-229.8" font-family="Times,serif" font-size="14.00">PseudonymService </text>
</g>
<!-- PseudonymModule&#45;&gt;PseudonymService  -->
<g id="edge2" class="edge">
<title>PseudonymModule&#45;&gt;PseudonymService </title>
<path fill="none" stroke="black" stroke-dasharray="5,2" d="M457,-187.11C457,-187.11 457,-205.99 457,-205.99"/>
<polygon fill="black" stroke="black" points="453.5,-205.99 457,-215.99 460.5,-205.99 453.5,-205.99"/>
</g>
<!-- ExternalToolPseudonymRepo -->
<g id="node4" class="node">
<title>ExternalToolPseudonymRepo</title>
<ellipse fill="#fdb462" stroke="black" cx="670" cy="-104" rx="127.37" ry="18"/>
<text text-anchor="middle" x="670" y="-99.8" font-family="Times,serif" font-size="14.00">ExternalToolPseudonymRepo</text>
</g>
<!-- ExternalToolPseudonymRepo&#45;&gt;PseudonymModule -->
<g id="edge3" class="edge">
<title>ExternalToolPseudonymRepo&#45;&gt;PseudonymModule</title>
<path fill="none" stroke="black" d="M670,-122.02C670,-139.37 670,-163 670,-163 670,-163 529.47,-163 529.47,-163"/>
<polygon fill="black" stroke="black" points="529.47,-159.5 519.47,-163 529.47,-166.5 529.47,-159.5"/>
</g>
<!-- LegacyLogger -->
<g id="node5" class="node">
<title>LegacyLogger</title>
<ellipse fill="#fdb462" stroke="black" cx="457" cy="-104" rx="67.18" ry="18"/>
<text text-anchor="middle" x="457" y="-99.8" font-family="Times,serif" font-size="14.00">LegacyLogger</text>
</g>
<!-- LegacyLogger&#45;&gt;PseudonymModule -->
<g id="edge4" class="edge">
<title>LegacyLogger&#45;&gt;PseudonymModule</title>
<path fill="none" stroke="black" d="M457,-122.11C457,-122.11 457,-140.99 457,-140.99"/>
<polygon fill="black" stroke="black" points="453.5,-140.99 457,-150.99 460.5,-140.99 453.5,-140.99"/>
</g>
<!-- PseudonymService -->
<g id="node6" class="node">
<title>PseudonymService</title>
<ellipse fill="#fdb462" stroke="black" cx="287" cy="-104" rx="85.11" ry="18"/>
<text text-anchor="middle" x="287" y="-99.8" font-family="Times,serif" font-size="14.00">PseudonymService</text>
</g>
<!-- PseudonymService&#45;&gt;PseudonymModule -->
<g id="edge5" class="edge">
<title>PseudonymService&#45;&gt;PseudonymModule</title>
<path fill="none" stroke="black" d="M287,-122.02C287,-139.37 287,-163 287,-163 287,-163 384.18,-163 384.18,-163"/>
<polygon fill="black" stroke="black" points="384.18,-166.5 394.18,-163 384.18,-159.5 384.18,-166.5"/>
</g>
<!-- PseudonymsRepo -->
<g id="node7" class="node">
<title>PseudonymsRepo</title>
<ellipse fill="#fdb462" stroke="black" cx="104" cy="-104" rx="80.48" ry="18"/>
<text text-anchor="middle" x="104" y="-99.8" font-family="Times,serif" font-size="14.00">PseudonymsRepo</text>
</g>
<!-- PseudonymsRepo&#45;&gt;PseudonymModule -->
<g id="edge6" class="edge">
<title>PseudonymsRepo&#45;&gt;PseudonymModule</title>
<path fill="none" stroke="black" d="M104,-122.28C104,-143.32 104,-175 104,-175 104,-175 384.3,-175 384.3,-175"/>
<polygon fill="black" stroke="black" points="384.3,-178.5 394.3,-175 384.3,-171.5 384.3,-178.5"/>
</g>
</g>
</svg>
