<?xml version="1.0" encoding="UTF-8" standalone="no"?>
<!DOCTYPE svg PUBLIC "-//W3C//DTD SVG 1.1//EN"
 "http://www.w3.org/Graphics/SVG/1.1/DTD/svg11.dtd">
<!-- Generated by graphviz version 2.47.0 (20210316.0004)
 -->
<!-- Title: dependencies Pages: 1 -->
<svg width="1410pt" height="284pt"
 viewBox="0.00 0.00 1410.00 284.00" xmlns="http://www.w3.org/2000/svg" xmlns:xlink="http://www.w3.org/1999/xlink">
<g id="graph0" class="graph" transform="scale(1 1) rotate(0) translate(4 280)">
<title>dependencies</title>
<polygon fill="white" stroke="transparent" points="-4,4 -4,-280 1406,-280 1406,4 -4,4"/>
<text text-anchor="start" x="680.01" y="-42.4" font-family="Times-12" font-weight="bold" font-size="14.00">Legend</text>
<polygon fill="#ffffb3" stroke="transparent" points="467,-10 467,-30 487,-30 487,-10 467,-10"/>
<text text-anchor="start" x="490.63" y="-15.4" font-family="Times-12" font-size="14.00"> &#160;Declarations</text>
<polygon fill="#8dd3c7" stroke="transparent" points="580,-10 580,-30 600,-30 600,-10 580,-10"/>
<text text-anchor="start" x="603.73" y="-15.4" font-family="Times-12" font-size="14.00"> &#160;Module</text>
<polygon fill="#80b1d3" stroke="transparent" points="666,-10 666,-30 686,-30 686,-10 666,-10"/>
<text text-anchor="start" x="689.78" y="-15.4" font-family="Times-12" font-size="14.00"> &#160;Bootstrap</text>
<polygon fill="#fdb462" stroke="transparent" points="763,-10 763,-30 783,-30 783,-10 763,-10"/>
<text text-anchor="start" x="786.67" y="-15.4" font-family="Times-12" font-size="14.00"> &#160;Providers</text>
<polygon fill="#fb8072" stroke="transparent" points="859,-10 859,-30 879,-30 879,-10 859,-10"/>
<text text-anchor="start" x="882.73" y="-15.4" font-family="Times-12" font-size="14.00"> &#160;Exports</text>
<g id="clust1" class="cluster">
<title>cluster_PseudonymModule</title>
<polygon fill="none" stroke="black" stroke-dasharray="1,5" points="8,-70 8,-268 1394,-268 1394,-70 8,-70"/>
</g>
<g id="clust6" class="cluster">
<title>cluster_PseudonymModule_providers</title>
<polygon fill="none" stroke="black" points="384,-78 384,-130 1386,-130 1386,-78 384,-78"/>
</g>
<g id="clust3" class="cluster">
<title>cluster_PseudonymModule_imports</title>
<polygon fill="none" stroke="black" points="16,-78 16,-130 376,-130 376,-78 16,-78"/>
</g>
<g id="clust4" class="cluster">
<title>cluster_PseudonymModule_exports</title>
<polygon fill="none" stroke="black" points="415,-208 415,-260 721,-260 721,-208 415,-208"/>
</g>
<!-- LearnroomModule -->
<g id="node1" class="node">
<title>LearnroomModule</title>
<polygon fill="#8dd3c7" stroke="black" points="367.74,-122 364.74,-126 343.74,-126 340.74,-122 246.26,-122 246.26,-86 367.74,-86 367.74,-122"/>
<text text-anchor="middle" x="307" y="-99.8" font-family="Times,serif" font-size="14.00">LearnroomModule</text>
</g>
<!-- PseudonymModule -->
<g id="node4" class="node">
<title>PseudonymModule</title>
<polygon fill="#8dd3c7" stroke="black" points="625.38,-187 622.38,-191 601.38,-191 598.38,-187 500.62,-187 500.62,-151 625.38,-151 625.38,-187"/>
<text text-anchor="middle" x="563" y="-164.8" font-family="Times,serif" font-size="14.00">PseudonymModule</text>
</g>
<!-- LearnroomModule&#45;&gt;PseudonymModule -->
<g id="edge1" class="edge">
<title>LearnroomModule&#45;&gt;PseudonymModule</title>
<path fill="none" stroke="black" d="M307,-122.03C307,-138.4 307,-160 307,-160 307,-160 490.38,-160 490.38,-160"/>
<polygon fill="black" stroke="black" points="490.38,-163.5 500.38,-160 490.38,-156.5 490.38,-163.5"/>
</g>
<!-- LoggerModule -->
<g id="node2" class="node">
<title>LoggerModule</title>
<polygon fill="#8dd3c7" stroke="black" points="227.98,-122 224.98,-126 203.98,-126 200.98,-122 128.02,-122 128.02,-86 227.98,-86 227.98,-122"/>
<text text-anchor="middle" x="178" y="-99.8" font-family="Times,serif" font-size="14.00">LoggerModule</text>
</g>
<!-- LoggerModule&#45;&gt;PseudonymModule -->
<g id="edge2" class="edge">
<title>LoggerModule&#45;&gt;PseudonymModule</title>
<path fill="none" stroke="black" d="M178,-122.11C178,-141.34 178,-169 178,-169 178,-169 490.29,-169 490.29,-169"/>
<polygon fill="black" stroke="black" points="490.29,-172.5 500.29,-169 490.29,-165.5 490.29,-172.5"/>
</g>
<!-- UserModule -->
<g id="node3" class="node">
<title>UserModule</title>
<polygon fill="#8dd3c7" stroke="black" points="109.98,-122 106.98,-126 85.98,-126 82.98,-122 24.02,-122 24.02,-86 109.98,-86 109.98,-122"/>
<text text-anchor="middle" x="67" y="-99.8" font-family="Times,serif" font-size="14.00">UserModule</text>
</g>
<!-- UserModule&#45;&gt;PseudonymModule -->
<g id="edge3" class="edge">
<title>UserModule&#45;&gt;PseudonymModule</title>
<path fill="none" stroke="black" d="M67,-122.29C67,-144.21 67,-178 67,-178 67,-178 490.43,-178 490.43,-178"/>
<polygon fill="black" stroke="black" points="490.43,-181.5 500.43,-178 490.43,-174.5 490.43,-181.5"/>
</g>
<!-- FeathersRosterService  -->
<g id="node5" class="node">
<title>FeathersRosterService </title>
<polygon fill="#fb8072" stroke="black" points="712.95,-252 567.05,-252 567.05,-216 712.95,-216 712.95,-252"/>
<text text-anchor="middle" x="640" y="-229.8" font-family="Times,serif" font-size="14.00">FeathersRosterService </text>
</g>
<!-- PseudonymModule&#45;&gt;FeathersRosterService  -->
<g id="edge4" class="edge">
<title>PseudonymModule&#45;&gt;FeathersRosterService </title>
<path fill="none" stroke="black" stroke-dasharray="5,2" d="M596.36,-187.11C596.36,-187.11 596.36,-205.99 596.36,-205.99"/>
<polygon fill="black" stroke="black" points="592.86,-205.99 596.36,-215.99 599.86,-205.99 592.86,-205.99"/>
</g>
<!-- PseudonymService  -->
<g id="node6" class="node">
<title>PseudonymService </title>
<polygon fill="#fb8072" stroke="black" points="549.31,-252 422.69,-252 422.69,-216 549.31,-216 549.31,-252"/>
<text text-anchor="middle" x="486" y="-229.8" font-family="Times,serif" font-size="14.00">PseudonymService </text>
</g>
<!-- PseudonymModule&#45;&gt;PseudonymService  -->
<g id="edge5" class="edge">
<title>PseudonymModule&#45;&gt;PseudonymService </title>
<path fill="none" stroke="black" stroke-dasharray="5,2" d="M524.98,-187.11C524.98,-187.11 524.98,-205.99 524.98,-205.99"/>
<polygon fill="black" stroke="black" points="521.48,-205.99 524.98,-215.99 528.48,-205.99 521.48,-205.99"/>
</g>
<!-- ExternalToolPseudonymRepo -->
<g id="node7" class="node">
<title>ExternalToolPseudonymRepo</title>
<ellipse fill="#fdb462" stroke="black" cx="1251" cy="-104" rx="127.37" ry="18"/>
<text text-anchor="middle" x="1251" y="-99.8" font-family="Times,serif" font-size="14.00">ExternalToolPseudonymRepo</text>
</g>
<!-- ExternalToolPseudonymRepo&#45;&gt;PseudonymModule -->
<g id="edge6" class="edge">
<title>ExternalToolPseudonymRepo&#45;&gt;PseudonymModule</title>
<path fill="none" stroke="black" d="M1251,-122.29C1251,-144.21 1251,-178 1251,-178 1251,-178 635.57,-178 635.57,-178"/>
<polygon fill="black" stroke="black" points="635.57,-174.5 625.57,-178 635.57,-181.5 635.57,-174.5"/>
</g>
<!-- FeathersRosterService -->
<g id="node8" class="node">
<title>FeathersRosterService</title>
<ellipse fill="#fdb462" stroke="black" cx="1008" cy="-104" rx="97.82" ry="18"/>
<text text-anchor="middle" x="1008" y="-99.8" font-family="Times,serif" font-size="14.00">FeathersRosterService</text>
</g>
<!-- FeathersRosterService&#45;&gt;PseudonymModule -->
<g id="edge7" class="edge">
<title>FeathersRosterService&#45;&gt;PseudonymModule</title>
<path fill="none" stroke="black" d="M1008,-122.11C1008,-141.34 1008,-169 1008,-169 1008,-169 635.81,-169 635.81,-169"/>
<polygon fill="black" stroke="black" points="635.81,-165.5 625.81,-169 635.81,-172.5 635.81,-165.5"/>
</g>
<!-- LegacyLogger -->
<g id="node9" class="node">
<title>LegacyLogger</title>
<ellipse fill="#fdb462" stroke="black" cx="825" cy="-104" rx="67.18" ry="18"/>
<text text-anchor="middle" x="825" y="-99.8" font-family="Times,serif" font-size="14.00">LegacyLogger</text>
</g>
<!-- LegacyLogger&#45;&gt;PseudonymModule -->
<g id="edge8" class="edge">
<title>LegacyLogger&#45;&gt;PseudonymModule</title>
<path fill="none" stroke="black" d="M825,-122.03C825,-138.4 825,-160 825,-160 825,-160 635.42,-160 635.42,-160"/>
<polygon fill="black" stroke="black" points="635.42,-156.5 625.42,-160 635.42,-163.5 635.42,-156.5"/>
</g>
<!-- PseudonymService -->
<g id="node10" class="node">
<title>PseudonymService</title>
<ellipse fill="#fdb462" stroke="black" cx="655" cy="-104" rx="85.11" ry="18"/>
<text text-anchor="middle" x="655" y="-99.8" font-family="Times,serif" font-size="14.00">PseudonymService</text>
</g>
<!-- PseudonymService&#45;&gt;PseudonymModule -->
<g id="edge9" class="edge">
<title>PseudonymService&#45;&gt;PseudonymModule</title>
<path fill="none" stroke="black" d="M597.69,-117.47C597.69,-117.47 597.69,-140.86 597.69,-140.86"/>
<polygon fill="black" stroke="black" points="594.19,-140.86 597.69,-150.86 601.19,-140.86 594.19,-140.86"/>
</g>
<!-- PseudonymsRepo -->
<g id="node11" class="node">
<title>PseudonymsRepo</title>
<ellipse fill="#fdb462" stroke="black" cx="472" cy="-104" rx="80.48" ry="18"/>
<text text-anchor="middle" x="472" y="-99.8" font-family="Times,serif" font-size="14.00">PseudonymsRepo</text>
</g>
<!-- PseudonymsRepo&#45;&gt;PseudonymModule -->
<g id="edge10" class="edge">
<title>PseudonymsRepo&#45;&gt;PseudonymModule</title>
<path fill="none" stroke="black" d="M526.4,-117.47C526.4,-117.47 526.4,-140.86 526.4,-140.86"/>
<polygon fill="black" stroke="black" points="522.9,-140.86 526.4,-150.86 529.9,-140.86 522.9,-140.86"/>
</g>
</g>
</svg>
