<?xml version="1.0" encoding="UTF-8" standalone="no"?>
<!DOCTYPE svg PUBLIC "-//W3C//DTD SVG 1.1//EN"
 "http://www.w3.org/Graphics/SVG/1.1/DTD/svg11.dtd">
<!-- Generated by graphviz version 2.47.0 (20210316.0004)
 -->
<!-- Title: dependencies Pages: 1 -->
<svg width="1206pt" height="211pt"
 viewBox="0.00 0.00 1206.00 211.00" xmlns="http://www.w3.org/2000/svg" xmlns:xlink="http://www.w3.org/1999/xlink">
<g id="graph0" class="graph" transform="scale(1 1) rotate(0) translate(4 207)">
<title>dependencies</title>
<polygon fill="white" stroke="transparent" points="-4,4 -4,-207 1202,-207 1202,4 -4,4"/>
<text text-anchor="start" x="578.01" y="-42.4" font-family="Times-12" font-weight="bold" font-size="14.00">Legend</text>
<polygon fill="#ffffb3" stroke="transparent" points="365,-10 365,-30 385,-30 385,-10 365,-10"/>
<text text-anchor="start" x="388.63" y="-15.4" font-family="Times-12" font-size="14.00"> &#160;Declarations</text>
<polygon fill="#8dd3c7" stroke="transparent" points="478,-10 478,-30 498,-30 498,-10 478,-10"/>
<text text-anchor="start" x="501.73" y="-15.4" font-family="Times-12" font-size="14.00"> &#160;Module</text>
<polygon fill="#80b1d3" stroke="transparent" points="564,-10 564,-30 584,-30 584,-10 564,-10"/>
<text text-anchor="start" x="587.78" y="-15.4" font-family="Times-12" font-size="14.00"> &#160;Bootstrap</text>
<polygon fill="#fdb462" stroke="transparent" points="661,-10 661,-30 681,-30 681,-10 661,-10"/>
<text text-anchor="start" x="684.67" y="-15.4" font-family="Times-12" font-size="14.00"> &#160;Providers</text>
<polygon fill="#fb8072" stroke="transparent" points="757,-10 757,-30 777,-30 777,-10 757,-10"/>
<text text-anchor="start" x="780.73" y="-15.4" font-family="Times-12" font-size="14.00"> &#160;Exports</text>
<g id="clust1" class="cluster">
<title>cluster_FwuLearningContentsTestModule</title>
<polygon fill="none" stroke="black" stroke-dasharray="1,5" points="8,-70 8,-195 1190,-195 1190,-70 8,-70"/>
</g>
<g id="clust3" class="cluster">
<title>cluster_FwuLearningContentsTestModule_imports</title>
<polygon fill="none" stroke="black" points="428,-78 428,-130 1182,-130 1182,-78 428,-78"/>
</g>
<g id="clust6" class="cluster">
<title>cluster_FwuLearningContentsTestModule_providers</title>
<polygon fill="none" stroke="black" points="16,-78 16,-130 420,-130 420,-78 16,-78"/>
</g>
<!-- AuthenticationModule -->
<g id="node1" class="node">
<title>AuthenticationModule</title>
<polygon fill="#8dd3c7" stroke="black" points="1174.25,-122 1171.25,-126 1150.25,-126 1147.25,-122 1031.75,-122 1031.75,-86 1174.25,-86 1174.25,-122"/>
<text text-anchor="middle" x="1103" y="-99.8" font-family="Times,serif" font-size="14.00">AuthenticationModule</text>
</g>
<!-- FwuLearningContentsTestModule -->
<g id="node6" class="node">
<title>FwuLearningContentsTestModule</title>
<polygon fill="#8dd3c7" stroke="black" points="808.35,-187 805.35,-191 784.35,-191 781.35,-187 599.65,-187 599.65,-151 808.35,-151 808.35,-187"/>
<text text-anchor="middle" x="704" y="-164.8" font-family="Times,serif" font-size="14.00">FwuLearningContentsTestModule</text>
</g>
<!-- AuthenticationModule&#45;&gt;FwuLearningContentsTestModule -->
<g id="edge1" class="edge">
<title>AuthenticationModule&#45;&gt;FwuLearningContentsTestModule</title>
<path fill="none" stroke="black" d="M1103,-122.28C1103,-143.32 1103,-175 1103,-175 1103,-175 818.57,-175 818.57,-175"/>
<polygon fill="black" stroke="black" points="818.57,-171.5 808.57,-175 818.57,-178.5 818.57,-171.5"/>
</g>
<!-- AuthorizationModule -->
<g id="node2" class="node">
<title>AuthorizationModule</title>
<polygon fill="#8dd3c7" stroke="black" points="1013.81,-122 1010.81,-126 989.81,-126 986.81,-122 876.19,-122 876.19,-86 1013.81,-86 1013.81,-122"/>
<text text-anchor="middle" x="945" y="-99.8" font-family="Times,serif" font-size="14.00">AuthorizationModule</text>
</g>
<!-- AuthorizationModule&#45;&gt;FwuLearningContentsTestModule -->
<g id="edge2" class="edge">
<title>AuthorizationModule&#45;&gt;FwuLearningContentsTestModule</title>
<path fill="none" stroke="black" d="M945,-122.02C945,-139.37 945,-163 945,-163 945,-163 818.65,-163 818.65,-163"/>
<polygon fill="black" stroke="black" points="818.65,-159.5 808.65,-163 818.65,-166.5 818.65,-159.5"/>
</g>
<!-- CoreModule -->
<g id="node3" class="node">
<title>CoreModule</title>
<polygon fill="#8dd3c7" stroke="black" points="858.26,-122 855.26,-126 834.26,-126 831.26,-122 771.74,-122 771.74,-86 858.26,-86 858.26,-122"/>
<text text-anchor="middle" x="815" y="-99.8" font-family="Times,serif" font-size="14.00">CoreModule</text>
</g>
<!-- CoreModule&#45;&gt;FwuLearningContentsTestModule -->
<g id="edge3" class="edge">
<title>CoreModule&#45;&gt;FwuLearningContentsTestModule</title>
<path fill="none" stroke="black" d="M790.02,-122.11C790.02,-122.11 790.02,-140.99 790.02,-140.99"/>
<polygon fill="black" stroke="black" points="786.52,-140.99 790.02,-150.99 793.52,-140.99 786.52,-140.99"/>
</g>
<!-- LoggerModule -->
<g id="node4" class="node">
<title>LoggerModule</title>
<polygon fill="#8dd3c7" stroke="black" points="753.98,-122 750.98,-126 729.98,-126 726.98,-122 654.02,-122 654.02,-86 753.98,-86 753.98,-122"/>
<text text-anchor="middle" x="704" y="-99.8" font-family="Times,serif" font-size="14.00">LoggerModule</text>
</g>
<!-- LoggerModule&#45;&gt;FwuLearningContentsTestModule -->
<g id="edge4" class="edge">
<title>LoggerModule&#45;&gt;FwuLearningContentsTestModule</title>
<path fill="none" stroke="black" d="M704,-122.11C704,-122.11 704,-140.99 704,-140.99"/>
<polygon fill="black" stroke="black" points="700.5,-140.99 704,-150.99 707.5,-140.99 700.5,-140.99"/>
</g>
<!-- MongoMemoryDatabaseModule -->
<g id="node5" class="node">
<title>MongoMemoryDatabaseModule</title>
<polygon fill="#8dd3c7" stroke="black" points="635.51,-122 632.51,-126 611.51,-126 608.51,-122 436.49,-122 436.49,-86 635.51,-86 635.51,-122"/>
<text text-anchor="middle" x="536" y="-99.8" font-family="Times,serif" font-size="14.00">MongoMemoryDatabaseModule</text>
</g>
<!-- MongoMemoryDatabaseModule&#45;&gt;FwuLearningContentsTestModule -->
<g id="edge5" class="edge">
<title>MongoMemoryDatabaseModule&#45;&gt;FwuLearningContentsTestModule</title>
<path fill="none" stroke="black" d="M617.66,-122.11C617.66,-122.11 617.66,-140.99 617.66,-140.99"/>
<polygon fill="black" stroke="black" points="614.16,-140.99 617.66,-150.99 621.16,-140.99 614.16,-140.99"/>
</g>
<!-- FwuLearningContentsUc -->
<g id="node7" class="node">
<title>FwuLearningContentsUc</title>
<ellipse fill="#fdb462" stroke="black" cx="303" cy="-104" rx="108.81" ry="18"/>
<text text-anchor="middle" x="303" y="-99.8" font-family="Times,serif" font-size="14.00">FwuLearningContentsUc</text>
</g>
<!-- FwuLearningContentsUc&#45;&gt;FwuLearningContentsTestModule -->
<g id="edge6" class="edge">
<title>FwuLearningContentsUc&#45;&gt;FwuLearningContentsTestModule</title>
<path fill="none" stroke="black" d="M303,-122.02C303,-139.37 303,-163 303,-163 303,-163 589.43,-163 589.43,-163"/>
<polygon fill="black" stroke="black" points="589.43,-166.5 599.43,-163 589.43,-159.5 589.43,-166.5"/>
</g>
<!-- S3ClientAdapter -->
<g id="node8" class="node">
<title>S3ClientAdapter</title>
<ellipse fill="#fdb462" stroke="black" cx="100" cy="-104" rx="75.88" ry="18"/>
<text text-anchor="middle" x="100" y="-99.8" font-family="Times,serif" font-size="14.00">S3ClientAdapter</text>
</g>
<!-- S3ClientAdapter&#45;&gt;FwuLearningContentsTestModule -->
<g id="edge7" class="edge">
<title>S3ClientAdapter&#45;&gt;FwuLearningContentsTestModule</title>
<path fill="none" stroke="black" d="M100,-122.28C100,-143.32 100,-175 100,-175 100,-175 589.48,-175 589.48,-175"/>
<polygon fill="black" stroke="black" points="589.48,-178.5 599.48,-175 589.48,-171.5 589.48,-178.5"/>
</g>
</g>
</svg>
