<?xml version="1.0" encoding="UTF-8" standalone="no"?>
<!DOCTYPE svg PUBLIC "-//W3C//DTD SVG 1.1//EN"
 "http://www.w3.org/Graphics/SVG/1.1/DTD/svg11.dtd">
<!-- Generated by graphviz version 2.47.0 (20210316.0004)
 -->
<!-- Title: dependencies Pages: 1 -->
<svg width="1206pt" height="211pt"
 viewBox="0.00 0.00 1206.00 211.00" xmlns="http://www.w3.org/2000/svg" xmlns:xlink="http://www.w3.org/1999/xlink">
<g id="graph0" class="graph" transform="scale(1 1) rotate(0) translate(4 207)">
<title>dependencies</title>
<polygon fill="white" stroke="transparent" points="-4,4 -4,-207 1202,-207 1202,4 -4,4"/>
<text text-anchor="start" x="578.01" y="-42.4" font-family="Times-12" font-weight="bold" font-size="14.00">Legend</text>
<polygon fill="#ffffb3" stroke="transparent" points="365,-10 365,-30 385,-30 385,-10 365,-10"/>
<text text-anchor="start" x="388.63" y="-15.4" font-family="Times-12" font-size="14.00"> &#160;Declarations</text>
<polygon fill="#8dd3c7" stroke="transparent" points="478,-10 478,-30 498,-30 498,-10 478,-10"/>
<text text-anchor="start" x="501.73" y="-15.4" font-family="Times-12" font-size="14.00"> &#160;Module</text>
<polygon fill="#80b1d3" stroke="transparent" points="564,-10 564,-30 584,-30 584,-10 564,-10"/>
<text text-anchor="start" x="587.78" y="-15.4" font-family="Times-12" font-size="14.00"> &#160;Bootstrap</text>
<polygon fill="#fdb462" stroke="transparent" points="661,-10 661,-30 681,-30 681,-10 661,-10"/>
<text text-anchor="start" x="684.67" y="-15.4" font-family="Times-12" font-size="14.00"> &#160;Providers</text>
<polygon fill="#fb8072" stroke="transparent" points="757,-10 757,-30 777,-30 777,-10 757,-10"/>
<text text-anchor="start" x="780.73" y="-15.4" font-family="Times-12" font-size="14.00"> &#160;Exports</text>
<g id="clust1" class="cluster">
<title>cluster_FwuLearningContentsTestModule</title>
<polygon fill="none" stroke="black" stroke-dasharray="1,5" points="8,-70 8,-195 1190,-195 1190,-70 8,-70"/>
</g>
<g id="clust6" class="cluster">
<title>cluster_FwuLearningContentsTestModule_providers</title>
<polygon fill="none" stroke="black" points="778,-78 778,-130 1182,-130 1182,-78 778,-78"/>
</g>
<g id="clust3" class="cluster">
<title>cluster_FwuLearningContentsTestModule_imports</title>
<polygon fill="none" stroke="black" points="16,-78 16,-130 770,-130 770,-78 16,-78"/>
</g>
<!-- AuthenticationModule -->
<g id="node1" class="node">
<title>AuthenticationModule</title>
<polygon fill="#8dd3c7" stroke="black" points="762.25,-122 759.25,-126 738.25,-126 735.25,-122 619.75,-122 619.75,-86 762.25,-86 762.25,-122"/>
<text text-anchor="middle" x="691" y="-99.8" font-family="Times,serif" font-size="14.00">AuthenticationModule</text>
</g>
<!-- FwuLearningContentsTestModule -->
<g id="node6" class="node">
<title>FwuLearningContentsTestModule</title>
<polygon fill="#8dd3c7" stroke="black" points="637.35,-187 634.35,-191 613.35,-191 610.35,-187 428.65,-187 428.65,-151 637.35,-151 637.35,-187"/>
<text text-anchor="middle" x="533" y="-164.8" font-family="Times,serif" font-size="14.00">FwuLearningContentsTestModule</text>
</g>
<!-- AuthenticationModule&#45;&gt;FwuLearningContentsTestModule -->
<g id="edge1" class="edge">
<title>AuthenticationModule&#45;&gt;FwuLearningContentsTestModule</title>
<path fill="none" stroke="black" d="M628.52,-122.11C628.52,-122.11 628.52,-140.99 628.52,-140.99"/>
<polygon fill="black" stroke="black" points="625.02,-140.99 628.52,-150.99 632.02,-140.99 625.02,-140.99"/>
</g>
<!-- AuthorizationModule -->
<g id="node2" class="node">
<title>AuthorizationModule</title>
<polygon fill="#8dd3c7" stroke="black" points="601.81,-122 598.81,-126 577.81,-126 574.81,-122 464.19,-122 464.19,-86 601.81,-86 601.81,-122"/>
<text text-anchor="middle" x="533" y="-99.8" font-family="Times,serif" font-size="14.00">AuthorizationModule</text>
</g>
<!-- AuthorizationModule&#45;&gt;FwuLearningContentsTestModule -->
<g id="edge2" class="edge">
<title>AuthorizationModule&#45;&gt;FwuLearningContentsTestModule</title>
<path fill="none" stroke="black" d="M533,-122.11C533,-122.11 533,-140.99 533,-140.99"/>
<polygon fill="black" stroke="black" points="529.5,-140.99 533,-150.99 536.5,-140.99 529.5,-140.99"/>
</g>
<!-- CoreModule -->
<g id="node3" class="node">
<title>CoreModule</title>
<polygon fill="#8dd3c7" stroke="black" points="446.26,-122 443.26,-126 422.26,-126 419.26,-122 359.74,-122 359.74,-86 446.26,-86 446.26,-122"/>
<text text-anchor="middle" x="403" y="-99.8" font-family="Times,serif" font-size="14.00">CoreModule</text>
</g>
<!-- CoreModule&#45;&gt;FwuLearningContentsTestModule -->
<g id="edge3" class="edge">
<title>CoreModule&#45;&gt;FwuLearningContentsTestModule</title>
<path fill="none" stroke="black" d="M437.48,-122.11C437.48,-122.11 437.48,-140.99 437.48,-140.99"/>
<polygon fill="black" stroke="black" points="433.98,-140.99 437.48,-150.99 440.98,-140.99 433.98,-140.99"/>
</g>
<!-- LoggerModule -->
<g id="node4" class="node">
<title>LoggerModule</title>
<polygon fill="#8dd3c7" stroke="black" points="341.98,-122 338.98,-126 317.98,-126 314.98,-122 242.02,-122 242.02,-86 341.98,-86 341.98,-122"/>
<text text-anchor="middle" x="292" y="-99.8" font-family="Times,serif" font-size="14.00">LoggerModule</text>
</g>
<!-- LoggerModule&#45;&gt;FwuLearningContentsTestModule -->
<g id="edge4" class="edge">
<title>LoggerModule&#45;&gt;FwuLearningContentsTestModule</title>
<path fill="none" stroke="black" d="M292,-122.02C292,-139.37 292,-163 292,-163 292,-163 418.35,-163 418.35,-163"/>
<polygon fill="black" stroke="black" points="418.35,-166.5 428.35,-163 418.35,-159.5 418.35,-166.5"/>
</g>
<!-- MongoMemoryDatabaseModule -->
<g id="node5" class="node">
<title>MongoMemoryDatabaseModule</title>
<polygon fill="#8dd3c7" stroke="black" points="223.51,-122 220.51,-126 199.51,-126 196.51,-122 24.49,-122 24.49,-86 223.51,-86 223.51,-122"/>
<text text-anchor="middle" x="124" y="-99.8" font-family="Times,serif" font-size="14.00">MongoMemoryDatabaseModule</text>
</g>
<!-- MongoMemoryDatabaseModule&#45;&gt;FwuLearningContentsTestModule -->
<g id="edge5" class="edge">
<title>MongoMemoryDatabaseModule&#45;&gt;FwuLearningContentsTestModule</title>
<path fill="none" stroke="black" d="M124,-122.28C124,-143.32 124,-175 124,-175 124,-175 418.47,-175 418.47,-175"/>
<polygon fill="black" stroke="black" points="418.47,-178.5 428.47,-175 418.47,-171.5 418.47,-178.5"/>
</g>
<!-- FwuLearningContentsUc -->
<g id="node7" class="node">
<title>FwuLearningContentsUc</title>
<ellipse fill="#fdb462" stroke="black" cx="1065" cy="-104" rx="108.81" ry="18"/>
<text text-anchor="middle" x="1065" y="-99.8" font-family="Times,serif" font-size="14.00">FwuLearningContentsUc</text>
</g>
<!-- FwuLearningContentsUc&#45;&gt;FwuLearningContentsTestModule -->
<g id="edge6" class="edge">
<title>FwuLearningContentsUc&#45;&gt;FwuLearningContentsTestModule</title>
<path fill="none" stroke="black" d="M1065,-122.28C1065,-143.32 1065,-175 1065,-175 1065,-175 647.47,-175 647.47,-175"/>
<polygon fill="black" stroke="black" points="647.47,-171.5 637.47,-175 647.47,-178.5 647.47,-171.5"/>
</g>
<!-- S3ClientAdapter -->
<g id="node8" class="node">
<title>S3ClientAdapter</title>
<ellipse fill="#fdb462" stroke="black" cx="862" cy="-104" rx="75.88" ry="18"/>
<text text-anchor="middle" x="862" y="-99.8" font-family="Times,serif" font-size="14.00">S3ClientAdapter</text>
</g>
<!-- S3ClientAdapter&#45;&gt;FwuLearningContentsTestModule -->
<g id="edge7" class="edge">
<title>S3ClientAdapter&#45;&gt;FwuLearningContentsTestModule</title>
<path fill="none" stroke="black" d="M862,-122.02C862,-139.37 862,-163 862,-163 862,-163 647.55,-163 647.55,-163"/>
<polygon fill="black" stroke="black" points="647.55,-159.5 637.55,-163 647.55,-166.5 647.55,-159.5"/>
</g>
</g>
</svg>
