<?xml version="1.0" encoding="UTF-8" standalone="no"?>
<!DOCTYPE svg PUBLIC "-//W3C//DTD SVG 1.1//EN"
 "http://www.w3.org/Graphics/SVG/1.1/DTD/svg11.dtd">
<!-- Generated by graphviz version 2.47.0 (20210316.0004)
 -->
<!-- Title: dependencies Pages: 1 -->
<svg width="1373pt" height="211pt"
 viewBox="0.00 0.00 1373.00 211.00" xmlns="http://www.w3.org/2000/svg" xmlns:xlink="http://www.w3.org/1999/xlink">
<g id="graph0" class="graph" transform="scale(1 1) rotate(0) translate(4 207)">
<title>dependencies</title>
<polygon fill="white" stroke="transparent" points="-4,4 -4,-207 1369,-207 1369,4 -4,4"/>
<text text-anchor="start" x="661.51" y="-42.4" font-family="Times-12" font-weight="bold" font-size="14.00">Legend</text>
<polygon fill="#ffffb3" stroke="transparent" points="448.5,-10 448.5,-30 468.5,-30 468.5,-10 448.5,-10"/>
<text text-anchor="start" x="472.13" y="-15.4" font-family="Times-12" font-size="14.00"> &#160;Declarations</text>
<polygon fill="#8dd3c7" stroke="transparent" points="561.5,-10 561.5,-30 581.5,-30 581.5,-10 561.5,-10"/>
<text text-anchor="start" x="585.23" y="-15.4" font-family="Times-12" font-size="14.00"> &#160;Module</text>
<polygon fill="#80b1d3" stroke="transparent" points="647.5,-10 647.5,-30 667.5,-30 667.5,-10 647.5,-10"/>
<text text-anchor="start" x="671.28" y="-15.4" font-family="Times-12" font-size="14.00"> &#160;Bootstrap</text>
<polygon fill="#fdb462" stroke="transparent" points="744.5,-10 744.5,-30 764.5,-30 764.5,-10 744.5,-10"/>
<text text-anchor="start" x="768.17" y="-15.4" font-family="Times-12" font-size="14.00"> &#160;Providers</text>
<polygon fill="#fb8072" stroke="transparent" points="840.5,-10 840.5,-30 860.5,-30 860.5,-10 840.5,-10"/>
<text text-anchor="start" x="864.23" y="-15.4" font-family="Times-12" font-size="14.00"> &#160;Exports</text>
<g id="clust1" class="cluster">
<title>cluster_FwuLearningContentsTestModule</title>
<polygon fill="none" stroke="black" stroke-dasharray="1,5" points="8,-70 8,-195 1357,-195 1357,-70 8,-70"/>
</g>
<g id="clust3" class="cluster">
<title>cluster_FwuLearningContentsTestModule_imports</title>
<polygon fill="none" stroke="black" points="258,-78 258,-130 1349,-130 1349,-78 258,-78"/>
</g>
<g id="clust6" class="cluster">
<title>cluster_FwuLearningContentsTestModule_providers</title>
<polygon fill="none" stroke="black" points="16,-78 16,-130 250,-130 250,-78 16,-78"/>
</g>
<!-- AuthenticationModule -->
<g id="node1" class="node">
<title>AuthenticationModule</title>
<polygon fill="#8dd3c7" stroke="black" points="1341.25,-122 1338.25,-126 1317.25,-126 1314.25,-122 1198.75,-122 1198.75,-86 1341.25,-86 1341.25,-122"/>
<text text-anchor="middle" x="1270" y="-99.8" font-family="Times,serif" font-size="14.00">AuthenticationModule</text>
</g>
<!-- FwuLearningContentsTestModule -->
<g id="node8" class="node">
<title>FwuLearningContentsTestModule</title>
<polygon fill="#8dd3c7" stroke="black" points="891.35,-187 888.35,-191 867.35,-191 864.35,-187 682.65,-187 682.65,-151 891.35,-151 891.35,-187"/>
<text text-anchor="middle" x="787" y="-164.8" font-family="Times,serif" font-size="14.00">FwuLearningContentsTestModule</text>
</g>
<!-- AuthenticationModule&#45;&gt;FwuLearningContentsTestModule -->
<g id="edge1" class="edge">
<title>AuthenticationModule&#45;&gt;FwuLearningContentsTestModule</title>
<path fill="none" stroke="black" d="M1270,-122.29C1270,-144.21 1270,-178 1270,-178 1270,-178 901.51,-178 901.51,-178"/>
<polygon fill="black" stroke="black" points="901.51,-174.5 891.51,-178 901.51,-181.5 901.51,-174.5"/>
</g>
<!-- AuthorizationModule -->
<g id="node2" class="node">
<title>AuthorizationModule</title>
<polygon fill="#8dd3c7" stroke="black" points="1180.81,-122 1177.81,-126 1156.81,-126 1153.81,-122 1043.19,-122 1043.19,-86 1180.81,-86 1180.81,-122"/>
<text text-anchor="middle" x="1112" y="-99.8" font-family="Times,serif" font-size="14.00">AuthorizationModule</text>
</g>
<!-- AuthorizationModule&#45;&gt;FwuLearningContentsTestModule -->
<g id="edge2" class="edge">
<title>AuthorizationModule&#45;&gt;FwuLearningContentsTestModule</title>
<path fill="none" stroke="black" d="M1112,-122.11C1112,-141.34 1112,-169 1112,-169 1112,-169 901.62,-169 901.62,-169"/>
<polygon fill="black" stroke="black" points="901.62,-165.5 891.62,-169 901.62,-172.5 901.62,-165.5"/>
</g>
<!-- CoreModule -->
<g id="node3" class="node">
<title>CoreModule</title>
<polygon fill="#8dd3c7" stroke="black" points="1025.26,-122 1022.26,-126 1001.26,-126 998.26,-122 938.74,-122 938.74,-86 1025.26,-86 1025.26,-122"/>
<text text-anchor="middle" x="982" y="-99.8" font-family="Times,serif" font-size="14.00">CoreModule</text>
</g>
<!-- CoreModule&#45;&gt;FwuLearningContentsTestModule -->
<g id="edge3" class="edge">
<title>CoreModule&#45;&gt;FwuLearningContentsTestModule</title>
<path fill="none" stroke="black" d="M982,-122.03C982,-138.4 982,-160 982,-160 982,-160 901.64,-160 901.64,-160"/>
<polygon fill="black" stroke="black" points="901.64,-156.5 891.64,-160 901.64,-163.5 901.64,-156.5"/>
</g>
<!-- LoggerModule -->
<g id="node4" class="node">
<title>LoggerModule</title>
<polygon fill="#8dd3c7" stroke="black" points="920.98,-122 917.98,-126 896.98,-126 893.98,-122 821.02,-122 821.02,-86 920.98,-86 920.98,-122"/>
<text text-anchor="middle" x="871" y="-99.8" font-family="Times,serif" font-size="14.00">LoggerModule</text>
</g>
<!-- LoggerModule&#45;&gt;FwuLearningContentsTestModule -->
<g id="edge4" class="edge">
<title>LoggerModule&#45;&gt;FwuLearningContentsTestModule</title>
<path fill="none" stroke="black" d="M856.22,-122.11C856.22,-122.11 856.22,-140.99 856.22,-140.99"/>
<polygon fill="black" stroke="black" points="852.72,-140.99 856.22,-150.99 859.72,-140.99 852.72,-140.99"/>
</g>
<!-- MongoMemoryDatabaseModule -->
<g id="node5" class="node">
<title>MongoMemoryDatabaseModule</title>
<polygon fill="#8dd3c7" stroke="black" points="802.51,-122 799.51,-126 778.51,-126 775.51,-122 603.49,-122 603.49,-86 802.51,-86 802.51,-122"/>
<text text-anchor="middle" x="703" y="-99.8" font-family="Times,serif" font-size="14.00">MongoMemoryDatabaseModule</text>
</g>
<!-- MongoMemoryDatabaseModule&#45;&gt;FwuLearningContentsTestModule -->
<g id="edge5" class="edge">
<title>MongoMemoryDatabaseModule&#45;&gt;FwuLearningContentsTestModule</title>
<path fill="none" stroke="black" d="M742.66,-122.11C742.66,-122.11 742.66,-140.99 742.66,-140.99"/>
<polygon fill="black" stroke="black" points="739.16,-140.99 742.66,-150.99 746.16,-140.99 739.16,-140.99"/>
</g>
<!-- RabbitMQWrapperTestModule -->
<g id="node6" class="node">
<title>RabbitMQWrapperTestModule</title>
<polygon fill="#8dd3c7" stroke="black" points="585,-122 582,-126 561,-126 558,-122 393,-122 393,-86 585,-86 585,-122"/>
<text text-anchor="middle" x="489" y="-99.8" font-family="Times,serif" font-size="14.00">RabbitMQWrapperTestModule</text>
</g>
<!-- RabbitMQWrapperTestModule&#45;&gt;FwuLearningContentsTestModule -->
<g id="edge6" class="edge">
<title>RabbitMQWrapperTestModule&#45;&gt;FwuLearningContentsTestModule</title>
<path fill="none" stroke="black" d="M489,-122.03C489,-138.4 489,-160 489,-160 489,-160 672.36,-160 672.36,-160"/>
<polygon fill="black" stroke="black" points="672.36,-163.5 682.36,-160 672.36,-156.5 672.36,-163.5"/>
</g>
<!-- S3ClientModule -->
<g id="node7" class="node">
<title>S3ClientModule</title>
<polygon fill="#8dd3c7" stroke="black" points="374.06,-122 371.06,-126 350.06,-126 347.06,-122 265.94,-122 265.94,-86 374.06,-86 374.06,-122"/>
<text text-anchor="middle" x="320" y="-99.8" font-family="Times,serif" font-size="14.00">S3ClientModule</text>
</g>
<!-- S3ClientModule&#45;&gt;FwuLearningContentsTestModule -->
<g id="edge7" class="edge">
<title>S3ClientModule&#45;&gt;FwuLearningContentsTestModule</title>
<path fill="none" stroke="black" d="M320,-122.11C320,-141.34 320,-169 320,-169 320,-169 672.49,-169 672.49,-169"/>
<polygon fill="black" stroke="black" points="672.49,-172.5 682.49,-169 672.49,-165.5 672.49,-172.5"/>
</g>
<!-- FwuLearningContentsUc -->
<g id="node9" class="node">
<title>FwuLearningContentsUc</title>
<ellipse fill="#fdb462" stroke="black" cx="133" cy="-104" rx="108.81" ry="18"/>
<text text-anchor="middle" x="133" y="-99.8" font-family="Times,serif" font-size="14.00">FwuLearningContentsUc</text>
</g>
<!-- FwuLearningContentsUc&#45;&gt;FwuLearningContentsTestModule -->
<g id="edge8" class="edge">
<title>FwuLearningContentsUc&#45;&gt;FwuLearningContentsTestModule</title>
<path fill="none" stroke="black" d="M133,-122.29C133,-144.21 133,-178 133,-178 133,-178 672.29,-178 672.29,-178"/>
<polygon fill="black" stroke="black" points="672.29,-181.5 682.29,-178 672.29,-174.5 672.29,-181.5"/>
</g>
</g>
</svg>
