<?xml version="1.0" encoding="UTF-8" standalone="no"?>
<!DOCTYPE svg PUBLIC "-//W3C//DTD SVG 1.1//EN"
 "http://www.w3.org/Graphics/SVG/1.1/DTD/svg11.dtd">
<!-- Generated by graphviz version 5.0.0 (20220707.1540)
 -->
<!-- Title: dependencies Pages: 1 -->
<svg width="1206pt" height="174pt"
 viewBox="0.00 0.00 1206.00 173.80" xmlns="http://www.w3.org/2000/svg" xmlns:xlink="http://www.w3.org/1999/xlink">
<g id="graph0" class="graph" transform="scale(1 1) rotate(0) translate(4 169.8)">
<title>dependencies</title>
<polygon fill="white" stroke="transparent" points="-4,4 -4,-169.8 1202,-169.8 1202,4 -4,4"/>
<text text-anchor="middle" x="599" y="-8.2" font-family="sans-serif" font-size="14.00">dependencies</text>
<g id="clust1" class="cluster">
<title>cluster_FwuLearningContentsTestModule</title>
<polygon fill="none" stroke="black" stroke-dasharray="1,5" points="8,-32.8 8,-157.8 1190,-157.8 1190,-32.8 8,-32.8"/>
</g>
<g id="clust3" class="cluster">
<title>cluster_FwuLearningContentsTestModule_imports</title>
<polygon fill="none" stroke="black" points="428,-40.8 428,-92.8 1182,-92.8 1182,-40.8 428,-40.8"/>
</g>
<g id="clust6" class="cluster">
<title>cluster_FwuLearningContentsTestModule_providers</title>
<polygon fill="none" stroke="black" points="16,-40.8 16,-92.8 420,-92.8 420,-40.8 16,-40.8"/>
</g>
<!-- AuthenticationModule -->
<g id="node1" class="node">
<title>AuthenticationModule</title>
<polygon fill="#8dd3c7" stroke="black" points="1174.25,-84.8 1171.25,-88.8 1150.25,-88.8 1147.25,-84.8 1031.75,-84.8 1031.75,-48.8 1174.25,-48.8 1174.25,-84.8"/>
<text text-anchor="middle" x="1103" y="-62.6" font-family="Times,serif" font-size="14.00">AuthenticationModule</text>
</g>
<!-- FwuLearningContentsTestModule -->
<g id="node6" class="node">
<title>FwuLearningContentsTestModule</title>
<polygon fill="#8dd3c7" stroke="black" points="808.36,-149.8 805.36,-153.8 784.36,-153.8 781.36,-149.8 599.64,-149.8 599.64,-113.8 808.36,-113.8 808.36,-149.8"/>
<text text-anchor="middle" x="704" y="-127.6" font-family="Times,serif" font-size="14.00">FwuLearningContentsTestModule</text>
</g>
<!-- AuthenticationModule&#45;&gt;FwuLearningContentsTestModule -->
<g id="edge1" class="edge">
<title>AuthenticationModule&#45;&gt;FwuLearningContentsTestModule</title>
<path fill="none" stroke="black" d="M1103,-85.08C1103,-106.12 1103,-137.8 1103,-137.8 1103,-137.8 818.57,-137.8 818.57,-137.8"/>
<polygon fill="black" stroke="black" points="818.57,-134.3 808.57,-137.8 818.57,-141.3 818.57,-134.3"/>
</g>
<!-- AuthorizationModule -->
<g id="node2" class="node">
<title>AuthorizationModule</title>
<polygon fill="#8dd3c7" stroke="black" points="1013.81,-84.8 1010.81,-88.8 989.81,-88.8 986.81,-84.8 876.19,-84.8 876.19,-48.8 1013.81,-48.8 1013.81,-84.8"/>
<text text-anchor="middle" x="945" y="-62.6" font-family="Times,serif" font-size="14.00">AuthorizationModule</text>
</g>
<!-- AuthorizationModule&#45;&gt;FwuLearningContentsTestModule -->
<g id="edge2" class="edge">
<title>AuthorizationModule&#45;&gt;FwuLearningContentsTestModule</title>
<path fill="none" stroke="black" d="M945,-84.82C945,-102.17 945,-125.8 945,-125.8 945,-125.8 818.65,-125.8 818.65,-125.8"/>
<polygon fill="black" stroke="black" points="818.65,-122.3 808.65,-125.8 818.65,-129.3 818.65,-122.3"/>
</g>
<!-- CoreModule -->
<g id="node3" class="node">
<title>CoreModule</title>
<polygon fill="#8dd3c7" stroke="black" points="858.27,-84.8 855.27,-88.8 834.27,-88.8 831.27,-84.8 771.73,-84.8 771.73,-48.8 858.27,-48.8 858.27,-84.8"/>
<text text-anchor="middle" x="815" y="-62.6" font-family="Times,serif" font-size="14.00">CoreModule</text>
</g>
<!-- CoreModule&#45;&gt;FwuLearningContentsTestModule -->
<g id="edge3" class="edge">
<title>CoreModule&#45;&gt;FwuLearningContentsTestModule</title>
<path fill="none" stroke="black" d="M790.02,-84.91C790.02,-84.91 790.02,-103.79 790.02,-103.79"/>
<polygon fill="black" stroke="black" points="786.52,-103.79 790.02,-113.79 793.52,-103.79 786.52,-103.79"/>
</g>
<!-- LoggerModule -->
<g id="node4" class="node">
<title>LoggerModule</title>
<polygon fill="#8dd3c7" stroke="black" points="753.98,-84.8 750.98,-88.8 729.98,-88.8 726.98,-84.8 654.02,-84.8 654.02,-48.8 753.98,-48.8 753.98,-84.8"/>
<text text-anchor="middle" x="704" y="-62.6" font-family="Times,serif" font-size="14.00">LoggerModule</text>
</g>
<!-- LoggerModule&#45;&gt;FwuLearningContentsTestModule -->
<g id="edge4" class="edge">
<title>LoggerModule&#45;&gt;FwuLearningContentsTestModule</title>
<path fill="none" stroke="black" d="M704,-84.91C704,-84.91 704,-103.79 704,-103.79"/>
<polygon fill="black" stroke="black" points="700.5,-103.79 704,-113.79 707.5,-103.79 700.5,-103.79"/>
</g>
<!-- MongoMemoryDatabaseModule -->
<g id="node5" class="node">
<title>MongoMemoryDatabaseModule</title>
<polygon fill="#8dd3c7" stroke="black" points="635.52,-84.8 632.52,-88.8 611.52,-88.8 608.52,-84.8 436.48,-84.8 436.48,-48.8 635.52,-48.8 635.52,-84.8"/>
<text text-anchor="middle" x="536" y="-62.6" font-family="Times,serif" font-size="14.00">MongoMemoryDatabaseModule</text>
</g>
<!-- MongoMemoryDatabaseModule&#45;&gt;FwuLearningContentsTestModule -->
<g id="edge5" class="edge">
<title>MongoMemoryDatabaseModule&#45;&gt;FwuLearningContentsTestModule</title>
<path fill="none" stroke="black" d="M617.66,-84.91C617.66,-84.91 617.66,-103.79 617.66,-103.79"/>
<polygon fill="black" stroke="black" points="614.16,-103.79 617.66,-113.79 621.16,-103.79 614.16,-103.79"/>
</g>
<!-- FwuLearningContentsUc -->
<g id="node7" class="node">
<title>FwuLearningContentsUc</title>
<ellipse fill="#fdb462" stroke="black" cx="303" cy="-66.8" rx="108.82" ry="18"/>
<text text-anchor="middle" x="303" y="-62.6" font-family="Times,serif" font-size="14.00">FwuLearningContentsUc</text>
</g>
<!-- FwuLearningContentsUc&#45;&gt;FwuLearningContentsTestModule -->
<g id="edge6" class="edge">
<title>FwuLearningContentsUc&#45;&gt;FwuLearningContentsTestModule</title>
<path fill="none" stroke="black" d="M303,-84.82C303,-102.17 303,-125.8 303,-125.8 303,-125.8 589.43,-125.8 589.43,-125.8"/>
<polygon fill="black" stroke="black" points="589.43,-129.3 599.43,-125.8 589.43,-122.3 589.43,-129.3"/>
</g>
<!-- S3ClientAdapter -->
<g id="node8" class="node">
<title>S3ClientAdapter</title>
<ellipse fill="#fdb462" stroke="black" cx="100" cy="-66.8" rx="75.89" ry="18"/>
<text text-anchor="middle" x="100" y="-62.6" font-family="Times,serif" font-size="14.00">S3ClientAdapter</text>
</g>
<!-- S3ClientAdapter&#45;&gt;FwuLearningContentsTestModule -->
<g id="edge7" class="edge">
<title>S3ClientAdapter&#45;&gt;FwuLearningContentsTestModule</title>
<path fill="none" stroke="black" d="M100,-85.08C100,-106.12 100,-137.8 100,-137.8 100,-137.8 589.48,-137.8 589.48,-137.8"/>
<polygon fill="black" stroke="black" points="589.48,-141.3 599.48,-137.8 589.48,-134.3 589.48,-141.3"/>
</g>
</g>
</svg>
