<?xml version="1.0" encoding="UTF-8" standalone="no"?>
<!DOCTYPE svg PUBLIC "-//W3C//DTD SVG 1.1//EN"
 "http://www.w3.org/Graphics/SVG/1.1/DTD/svg11.dtd">
<!-- Generated by graphviz version 2.47.0 (20210316.0004)
 -->
<!-- Title: dependencies Pages: 1 -->
<svg width="504pt" height="284pt"
 viewBox="0.00 0.00 504.00 284.00" xmlns="http://www.w3.org/2000/svg" xmlns:xlink="http://www.w3.org/1999/xlink">
<g id="graph0" class="graph" transform="scale(1 1) rotate(0) translate(4 280)">
<title>dependencies</title>
<polygon fill="white" stroke="transparent" points="-4,4 -4,-280 500,-280 500,4 -4,4"/>
<text text-anchor="start" x="227.01" y="-42.4" font-family="Times-12" font-weight="bold" font-size="14.00">Legend</text>
<polygon fill="#ffffb3" stroke="transparent" points="14,-10 14,-30 34,-30 34,-10 14,-10"/>
<text text-anchor="start" x="37.63" y="-15.4" font-family="Times-12" font-size="14.00"> &#160;Declarations</text>
<polygon fill="#8dd3c7" stroke="transparent" points="127,-10 127,-30 147,-30 147,-10 127,-10"/>
<text text-anchor="start" x="150.73" y="-15.4" font-family="Times-12" font-size="14.00"> &#160;Module</text>
<polygon fill="#80b1d3" stroke="transparent" points="213,-10 213,-30 233,-30 233,-10 213,-10"/>
<text text-anchor="start" x="236.78" y="-15.4" font-family="Times-12" font-size="14.00"> &#160;Bootstrap</text>
<polygon fill="#fdb462" stroke="transparent" points="310,-10 310,-30 330,-30 330,-10 310,-10"/>
<text text-anchor="start" x="333.67" y="-15.4" font-family="Times-12" font-size="14.00"> &#160;Providers</text>
<polygon fill="#fb8072" stroke="transparent" points="406,-10 406,-30 426,-30 426,-10 406,-10"/>
<text text-anchor="start" x="429.73" y="-15.4" font-family="Times-12" font-size="14.00"> &#160;Exports</text>
<g id="clust1" class="cluster">
<title>cluster_TeamsModule</title>
<polygon fill="none" stroke="black" stroke-dasharray="1,5" points="42,-70 42,-268 454,-268 454,-70 42,-70"/>
</g>
<g id="clust4" class="cluster">
<title>cluster_TeamsModule_exports</title>
<polygon fill="none" stroke="black" points="197,-208 197,-260 307,-260 307,-208 197,-208"/>
</g>
<g id="clust3" class="cluster">
<title>cluster_TeamsModule_imports</title>
<polygon fill="none" stroke="black" points="330,-78 330,-130 446,-130 446,-78 330,-78"/>
</g>
<g id="clust6" class="cluster">
<title>cluster_TeamsModule_providers</title>
<polygon fill="none" stroke="black" points="50,-78 50,-130 322,-130 322,-78 50,-78"/>
</g>
<!-- LoggerModule -->
<g id="node1" class="node">
<title>LoggerModule</title>
<polygon fill="#8dd3c7" stroke="black" points="437.98,-122 434.98,-126 413.98,-126 410.98,-122 338.02,-122 338.02,-86 437.98,-86 437.98,-122"/>
<text text-anchor="middle" x="388" y="-99.8" font-family="Times,serif" font-size="14.00">LoggerModule</text>
</g>
<!-- TeamsModule -->
<g id="node2" class="node">
<title>TeamsModule</title>
<polygon fill="#8dd3c7" stroke="black" points="300.37,-187 297.37,-191 276.37,-191 273.37,-187 203.63,-187 203.63,-151 300.37,-151 300.37,-187"/>
<text text-anchor="middle" x="252" y="-164.8" font-family="Times,serif" font-size="14.00">TeamsModule</text>
</g>
<!-- LoggerModule&#45;&gt;TeamsModule -->
<g id="edge1" class="edge">
<title>LoggerModule&#45;&gt;TeamsModule</title>
<path fill="none" stroke="black" d="M388,-122.11C388,-141.34 388,-169 388,-169 388,-169 310.71,-169 310.71,-169"/>
<polygon fill="black" stroke="black" points="310.72,-165.5 300.71,-169 310.71,-172.5 310.72,-165.5"/>
</g>
<!-- TeamService  -->
<g id="node3" class="node">
<title>TeamService </title>
<polygon fill="#fb8072" stroke="black" points="298.85,-252 205.15,-252 205.15,-216 298.85,-216 298.85,-252"/>
<text text-anchor="middle" x="252" y="-229.8" font-family="Times,serif" font-size="14.00">TeamService </text>
</g>
<!-- TeamsModule&#45;&gt;TeamService  -->
<g id="edge2" class="edge">
<title>TeamsModule&#45;&gt;TeamService </title>
<path fill="none" stroke="black" stroke-dasharray="5,2" d="M252,-187.11C252,-187.11 252,-205.99 252,-205.99"/>
<polygon fill="black" stroke="black" points="248.5,-205.99 252,-215.99 255.5,-205.99 248.5,-205.99"/>
</g>
<!-- TeamService -->
<g id="node4" class="node">
<title>TeamService</title>
<ellipse fill="#fdb462" stroke="black" cx="252" cy="-104" rx="61.95" ry="18"/>
<text text-anchor="middle" x="252" y="-99.8" font-family="Times,serif" font-size="14.00">TeamService</text>
</g>
<!-- TeamService&#45;&gt;TeamsModule -->
<g id="edge3" class="edge">
<title>TeamService&#45;&gt;TeamsModule</title>
<path fill="none" stroke="black" d="M252,-122.11C252,-122.11 252,-140.99 252,-140.99"/>
<polygon fill="black" stroke="black" points="248.5,-140.99 252,-150.99 255.5,-140.99 248.5,-140.99"/>
</g>
<!-- TeamsRepo -->
<g id="node5" class="node">
<title>TeamsRepo</title>
<ellipse fill="#fdb462" stroke="black" cx="115" cy="-104" rx="57.32" ry="18"/>
<text text-anchor="middle" x="115" y="-99.8" font-family="Times,serif" font-size="14.00">TeamsRepo</text>
</g>
<!-- TeamsRepo&#45;&gt;TeamsModule -->
<g id="edge4" class="edge">
<title>TeamsRepo&#45;&gt;TeamsModule</title>
<path fill="none" stroke="black" d="M115,-122.11C115,-141.34 115,-169 115,-169 115,-169 193.31,-169 193.31,-169"/>
<polygon fill="black" stroke="black" points="193.31,-172.5 203.31,-169 193.31,-165.5 193.31,-172.5"/>
</g>
</g>
</svg>
