<?xml version="1.0" encoding="UTF-8" standalone="no"?>
<!DOCTYPE svg PUBLIC "-//W3C//DTD SVG 1.1//EN"
 "http://www.w3.org/Graphics/SVG/1.1/DTD/svg11.dtd">
<!-- Generated by graphviz version 2.47.0 (20210316.0004)
 -->
<!-- Title: dependencies Pages: 1 -->
<svg width="504pt" height="284pt"
 viewBox="0.00 0.00 504.00 284.00" xmlns="http://www.w3.org/2000/svg" xmlns:xlink="http://www.w3.org/1999/xlink">
<g id="graph0" class="graph" transform="scale(1 1) rotate(0) translate(4 280)">
<title>dependencies</title>
<polygon fill="white" stroke="transparent" points="-4,4 -4,-280 500,-280 500,4 -4,4"/>
<text text-anchor="start" x="227.01" y="-42.4" font-family="Times-12" font-weight="bold" font-size="14.00">Legend</text>
<polygon fill="#ffffb3" stroke="transparent" points="14,-10 14,-30 34,-30 34,-10 14,-10"/>
<text text-anchor="start" x="37.63" y="-15.4" font-family="Times-12" font-size="14.00"> &#160;Declarations</text>
<polygon fill="#8dd3c7" stroke="transparent" points="127,-10 127,-30 147,-30 147,-10 127,-10"/>
<text text-anchor="start" x="150.73" y="-15.4" font-family="Times-12" font-size="14.00"> &#160;Module</text>
<polygon fill="#80b1d3" stroke="transparent" points="213,-10 213,-30 233,-30 233,-10 213,-10"/>
<text text-anchor="start" x="236.78" y="-15.4" font-family="Times-12" font-size="14.00"> &#160;Bootstrap</text>
<polygon fill="#fdb462" stroke="transparent" points="310,-10 310,-30 330,-30 330,-10 310,-10"/>
<text text-anchor="start" x="333.67" y="-15.4" font-family="Times-12" font-size="14.00"> &#160;Providers</text>
<polygon fill="#fb8072" stroke="transparent" points="406,-10 406,-30 426,-30 426,-10 406,-10"/>
<text text-anchor="start" x="429.73" y="-15.4" font-family="Times-12" font-size="14.00"> &#160;Exports</text>
<g id="clust1" class="cluster">
<title>cluster_TeamsModule</title>
<polygon fill="none" stroke="black" stroke-dasharray="1,5" points="104,-70 104,-268 392,-268 392,-70 104,-70"/>
</g>
<g id="clust4" class="cluster">
<title>cluster_TeamsModule_exports</title>
<polygon fill="none" stroke="black" points="190,-208 190,-260 300,-260 300,-208 190,-208"/>
</g>
<g id="clust6" class="cluster">
<title>cluster_TeamsModule_providers</title>
<polygon fill="none" stroke="black" points="112,-78 112,-130 384,-130 384,-78 112,-78"/>
</g>
<!-- TeamService  -->
<g id="node1" class="node">
<title>TeamService </title>
<polygon fill="#fb8072" stroke="black" points="291.85,-252 198.15,-252 198.15,-216 291.85,-216 291.85,-252"/>
<text text-anchor="middle" x="245" y="-229.8" font-family="Times,serif" font-size="14.00">TeamService </text>
</g>
<!-- TeamsModule -->
<g id="node2" class="node">
<title>TeamsModule</title>
<polygon fill="#8dd3c7" stroke="black" points="293.37,-187 290.37,-191 269.37,-191 266.37,-187 196.63,-187 196.63,-151 293.37,-151 293.37,-187"/>
<text text-anchor="middle" x="245" y="-164.8" font-family="Times,serif" font-size="14.00">TeamsModule</text>
</g>
<!-- TeamsModule&#45;&gt;TeamService  -->
<g id="edge1" class="edge">
<title>TeamsModule&#45;&gt;TeamService </title>
<path fill="none" stroke="black" stroke-dasharray="5,2" d="M245,-187.11C245,-187.11 245,-205.99 245,-205.99"/>
<polygon fill="black" stroke="black" points="241.5,-205.99 245,-215.99 248.5,-205.99 241.5,-205.99"/>
</g>
<!-- TeamService -->
<g id="node3" class="node">
<title>TeamService</title>
<ellipse fill="#fdb462" stroke="black" cx="314" cy="-104" rx="61.95" ry="18"/>
<text text-anchor="middle" x="314" y="-99.8" font-family="Times,serif" font-size="14.00">TeamService</text>
</g>
<!-- TeamService&#45;&gt;TeamsModule -->
<g id="edge2" class="edge">
<title>TeamService&#45;&gt;TeamsModule</title>
<path fill="none" stroke="black" d="M272.73,-117.47C272.73,-117.47 272.73,-140.86 272.73,-140.86"/>
<polygon fill="black" stroke="black" points="269.23,-140.86 272.73,-150.86 276.23,-140.86 269.23,-140.86"/>
</g>
<!-- TeamsRepo -->
<g id="node4" class="node">
<title>TeamsRepo</title>
<ellipse fill="#fdb462" stroke="black" cx="177" cy="-104" rx="57.32" ry="18"/>
<text text-anchor="middle" x="177" y="-99.8" font-family="Times,serif" font-size="14.00">TeamsRepo</text>
</g>
<!-- TeamsRepo&#45;&gt;TeamsModule -->
<g id="edge3" class="edge">
<title>TeamsRepo&#45;&gt;TeamsModule</title>
<path fill="none" stroke="black" d="M215.36,-117.47C215.36,-117.47 215.36,-140.86 215.36,-140.86"/>
<polygon fill="black" stroke="black" points="211.86,-140.86 215.36,-150.86 218.86,-140.86 211.86,-140.86"/>
</g>
</g>
</svg>
