<?xml version="1.0" encoding="UTF-8" standalone="no"?>
<!DOCTYPE svg PUBLIC "-//W3C//DTD SVG 1.1//EN"
 "http://www.w3.org/Graphics/SVG/1.1/DTD/svg11.dtd">
<!-- Generated by graphviz version 2.47.0 (20210316.0004)
 -->
<!-- Title: dependencies Pages: 1 -->
<svg width="504pt" height="284pt"
 viewBox="0.00 0.00 504.00 284.00" xmlns="http://www.w3.org/2000/svg" xmlns:xlink="http://www.w3.org/1999/xlink">
<g id="graph0" class="graph" transform="scale(1 1) rotate(0) translate(4 280)">
<title>dependencies</title>
<polygon fill="white" stroke="transparent" points="-4,4 -4,-280 500,-280 500,4 -4,4"/>
<text text-anchor="start" x="227.01" y="-42.4" font-family="Times-12" font-weight="bold" font-size="14.00">Legend</text>
<polygon fill="#ffffb3" stroke="transparent" points="14,-10 14,-30 34,-30 34,-10 14,-10"/>
<text text-anchor="start" x="37.63" y="-15.4" font-family="Times-12" font-size="14.00"> &#160;Declarations</text>
<polygon fill="#8dd3c7" stroke="transparent" points="127,-10 127,-30 147,-30 147,-10 127,-10"/>
<text text-anchor="start" x="150.73" y="-15.4" font-family="Times-12" font-size="14.00"> &#160;Module</text>
<polygon fill="#80b1d3" stroke="transparent" points="213,-10 213,-30 233,-30 233,-10 213,-10"/>
<text text-anchor="start" x="236.78" y="-15.4" font-family="Times-12" font-size="14.00"> &#160;Bootstrap</text>
<polygon fill="#fdb462" stroke="transparent" points="310,-10 310,-30 330,-30 330,-10 310,-10"/>
<text text-anchor="start" x="333.67" y="-15.4" font-family="Times-12" font-size="14.00"> &#160;Providers</text>
<polygon fill="#fb8072" stroke="transparent" points="406,-10 406,-30 426,-30 426,-10 406,-10"/>
<text text-anchor="start" x="429.73" y="-15.4" font-family="Times-12" font-size="14.00"> &#160;Exports</text>
<g id="clust1" class="cluster">
<title>cluster_ErrorModule</title>
<polygon fill="none" stroke="black" stroke-dasharray="1,5" points="76,-70 76,-268 420,-268 420,-70 76,-70"/>
</g>
<g id="clust3" class="cluster">
<title>cluster_ErrorModule_imports</title>
<polygon fill="none" stroke="black" points="296,-78 296,-130 412,-130 412,-78 296,-78"/>
</g>
<g id="clust4" class="cluster">
<title>cluster_ErrorModule_exports</title>
<polygon fill="none" stroke="black" points="182,-208 182,-260 338,-260 338,-208 182,-208"/>
</g>
<g id="clust6" class="cluster">
<title>cluster_ErrorModule_providers</title>
<polygon fill="none" stroke="black" points="84,-78 84,-130 288,-130 288,-78 84,-78"/>
</g>
<!-- LoggerModule -->
<g id="node1" class="node">
<title>LoggerModule</title>
<polygon fill="#8dd3c7" stroke="black" points="403.98,-122 400.98,-126 379.98,-126 376.98,-122 304.02,-122 304.02,-86 403.98,-86 403.98,-122"/>
<text text-anchor="middle" x="354" y="-99.8" font-family="Times,serif" font-size="14.00">LoggerModule</text>
</g>
<!-- ErrorModule -->
<g id="node2" class="node">
<title>ErrorModule</title>
<polygon fill="#8dd3c7" stroke="black" points="304.58,-187 301.58,-191 280.58,-191 277.58,-187 215.42,-187 215.42,-151 304.58,-151 304.58,-187"/>
<text text-anchor="middle" x="260" y="-164.8" font-family="Times,serif" font-size="14.00">ErrorModule</text>
</g>
<!-- LoggerModule&#45;&gt;ErrorModule -->
<g id="edge1" class="edge">
<title>LoggerModule&#45;&gt;ErrorModule</title>
<path fill="none" stroke="black" d="M303.81,-104C296.73,-104 291.82,-104 291.82,-104 291.82,-104 291.82,-140.89 291.82,-140.89"/>
<polygon fill="black" stroke="black" points="288.32,-140.89 291.82,-150.89 295.32,-140.89 288.32,-140.89"/>
</g>
<!-- DomainErrorHandler  -->
<g id="node3" class="node">
<title>DomainErrorHandler </title>
<polygon fill="#fb8072" stroke="black" points="329.72,-252 190.28,-252 190.28,-216 329.72,-216 329.72,-252"/>
<text text-anchor="middle" x="260" y="-229.8" font-family="Times,serif" font-size="14.00">DomainErrorHandler </text>
</g>
<!-- ErrorModule&#45;&gt;DomainErrorHandler  -->
<g id="edge2" class="edge">
<title>ErrorModule&#45;&gt;DomainErrorHandler </title>
<path fill="none" stroke="black" stroke-dasharray="5,2" d="M260,-187.11C260,-187.11 260,-205.99 260,-205.99"/>
<polygon fill="black" stroke="black" points="256.5,-205.99 260,-215.99 263.5,-205.99 256.5,-205.99"/>
</g>
<!-- DomainErrorHandler -->
<g id="node4" class="node">
<title>DomainErrorHandler</title>
<ellipse fill="#fdb462" stroke="black" cx="186" cy="-104" rx="93.74" ry="18"/>
<text text-anchor="middle" x="186" y="-99.8" font-family="Times,serif" font-size="14.00">DomainErrorHandler</text>
</g>
<!-- DomainErrorHandler&#45;&gt;ErrorModule -->
<g id="edge3" class="edge">
<title>DomainErrorHandler&#45;&gt;ErrorModule</title>
<path fill="none" stroke="black" d="M247.54,-117.78C247.54,-117.78 247.54,-140.55 247.54,-140.55"/>
<polygon fill="black" stroke="black" points="244.04,-140.55 247.54,-150.55 251.04,-140.55 244.04,-140.55"/>
</g>
</g>
</svg>
