<?xml version="1.0" encoding="UTF-8" standalone="no"?>
<!DOCTYPE svg PUBLIC "-//W3C//DTD SVG 1.1//EN"
 "http://www.w3.org/Graphics/SVG/1.1/DTD/svg11.dtd">
<!-- Generated by graphviz version 2.47.0 (20210316.0004)
 -->
<!-- Title: dependencies Pages: 1 -->
<svg width="2243pt" height="211pt"
 viewBox="0.00 0.00 2243.00 211.00" xmlns="http://www.w3.org/2000/svg" xmlns:xlink="http://www.w3.org/1999/xlink">
<g id="graph0" class="graph" transform="scale(1 1) rotate(0) translate(4 207)">
<title>dependencies</title>
<polygon fill="white" stroke="transparent" points="-4,4 -4,-207 2239,-207 2239,4 -4,4"/>
<text text-anchor="start" x="1096.51" y="-42.4" font-family="Times-12" font-weight="bold" font-size="14.00">Legend</text>
<polygon fill="#ffffb3" stroke="transparent" points="883.5,-10 883.5,-30 903.5,-30 903.5,-10 883.5,-10"/>
<text text-anchor="start" x="907.13" y="-15.4" font-family="Times-12" font-size="14.00"> &#160;Declarations</text>
<polygon fill="#8dd3c7" stroke="transparent" points="996.5,-10 996.5,-30 1016.5,-30 1016.5,-10 996.5,-10"/>
<text text-anchor="start" x="1020.23" y="-15.4" font-family="Times-12" font-size="14.00"> &#160;Module</text>
<polygon fill="#80b1d3" stroke="transparent" points="1082.5,-10 1082.5,-30 1102.5,-30 1102.5,-10 1082.5,-10"/>
<text text-anchor="start" x="1106.28" y="-15.4" font-family="Times-12" font-size="14.00"> &#160;Bootstrap</text>
<polygon fill="#fdb462" stroke="transparent" points="1179.5,-10 1179.5,-30 1199.5,-30 1199.5,-10 1179.5,-10"/>
<text text-anchor="start" x="1203.17" y="-15.4" font-family="Times-12" font-size="14.00"> &#160;Providers</text>
<polygon fill="#fb8072" stroke="transparent" points="1275.5,-10 1275.5,-30 1295.5,-30 1295.5,-10 1275.5,-10"/>
<text text-anchor="start" x="1299.23" y="-15.4" font-family="Times-12" font-size="14.00"> &#160;Exports</text>
<g id="clust1" class="cluster">
<title>cluster_VideoConferenceModule</title>
<polygon fill="none" stroke="black" stroke-dasharray="1,5" points="8,-70 8,-195 2227,-195 2227,-70 8,-70"/>
</g>
<g id="clust3" class="cluster">
<title>cluster_VideoConferenceModule_imports</title>
<polygon fill="none" stroke="black" points="1703,-78 1703,-130 2219,-130 2219,-78 1703,-78"/>
</g>
<g id="clust6" class="cluster">
<title>cluster_VideoConferenceModule_providers</title>
<polygon fill="none" stroke="black" points="16,-78 16,-130 1695,-130 1695,-78 16,-78"/>
</g>
<!-- AuthorizationModule -->
<g id="node1" class="node">
<title>AuthorizationModule</title>
<polygon fill="#8dd3c7" stroke="black" points="2210.81,-122 2207.81,-126 2186.81,-126 2183.81,-122 2073.19,-122 2073.19,-86 2210.81,-86 2210.81,-122"/>
<text text-anchor="middle" x="2142" y="-99.8" font-family="Times,serif" font-size="14.00">AuthorizationModule</text>
</g>
<!-- VideoConferenceModule -->
<g id="node5" class="node">
<title>VideoConferenceModule</title>
<polygon fill="#8dd3c7" stroke="black" points="1356.28,-187 1353.28,-191 1332.28,-191 1329.28,-187 1197.72,-187 1197.72,-151 1356.28,-151 1356.28,-187"/>
<text text-anchor="middle" x="1277" y="-164.8" font-family="Times,serif" font-size="14.00">VideoConferenceModule</text>
</g>
<!-- AuthorizationModule&#45;&gt;VideoConferenceModule -->
<g id="edge1" class="edge">
<title>AuthorizationModule&#45;&gt;VideoConferenceModule</title>
<path fill="none" stroke="black" d="M2142,-122.09C2142,-145.13 2142,-182 2142,-182 2142,-182 1366.44,-182 1366.44,-182"/>
<polygon fill="black" stroke="black" points="1366.44,-178.5 1356.44,-182 1366.44,-185.5 1366.44,-178.5"/>
</g>
<!-- CalendarModule -->
<g id="node2" class="node">
<title>CalendarModule</title>
<polygon fill="#8dd3c7" stroke="black" points="2055.08,-122 2052.08,-126 2031.08,-126 2028.08,-122 1944.92,-122 1944.92,-86 2055.08,-86 2055.08,-122"/>
<text text-anchor="middle" x="2000" y="-99.8" font-family="Times,serif" font-size="14.00">CalendarModule</text>
</g>
<!-- CalendarModule&#45;&gt;VideoConferenceModule -->
<g id="edge2" class="edge">
<title>CalendarModule&#45;&gt;VideoConferenceModule</title>
<path fill="none" stroke="black" d="M2000,-122.04C2000,-143.66 2000,-177 2000,-177 2000,-177 1366.44,-177 1366.44,-177"/>
<polygon fill="black" stroke="black" points="1366.44,-173.5 1356.44,-177 1366.44,-180.5 1366.44,-173.5"/>
</g>
<!-- LoggerModule -->
<g id="node3" class="node">
<title>LoggerModule</title>
<polygon fill="#8dd3c7" stroke="black" points="1926.98,-122 1923.98,-126 1902.98,-126 1899.98,-122 1827.02,-122 1827.02,-86 1926.98,-86 1926.98,-122"/>
<text text-anchor="middle" x="1877" y="-99.8" font-family="Times,serif" font-size="14.00">LoggerModule</text>
</g>
<!-- LoggerModule&#45;&gt;VideoConferenceModule -->
<g id="edge3" class="edge">
<title>LoggerModule&#45;&gt;VideoConferenceModule</title>
<path fill="none" stroke="black" d="M1877,-122.22C1877,-142.37 1877,-172 1877,-172 1877,-172 1366.37,-172 1366.37,-172"/>
<polygon fill="black" stroke="black" points="1366.37,-168.5 1356.37,-172 1366.37,-175.5 1366.37,-168.5"/>
</g>
<!-- SchoolModule -->
<g id="node4" class="node">
<title>SchoolModule</title>
<polygon fill="#8dd3c7" stroke="black" points="1809.44,-122 1806.44,-126 1785.44,-126 1782.44,-122 1710.56,-122 1710.56,-86 1809.44,-86 1809.44,-122"/>
<text text-anchor="middle" x="1760" y="-99.8" font-family="Times,serif" font-size="14.00">SchoolModule</text>
</g>
<!-- SchoolModule&#45;&gt;VideoConferenceModule -->
<g id="edge4" class="edge">
<title>SchoolModule&#45;&gt;VideoConferenceModule</title>
<path fill="none" stroke="black" d="M1760,-122.22C1760,-140.83 1760,-167 1760,-167 1760,-167 1366.22,-167 1366.22,-167"/>
<polygon fill="black" stroke="black" points="1366.22,-163.5 1356.22,-167 1366.22,-170.5 1366.22,-163.5"/>
</g>
<!-- BBBService -->
<g id="node6" class="node">
<title>BBBService</title>
<ellipse fill="#fdb462" stroke="black" cx="1628" cy="-104" rx="59.13" ry="18"/>
<text text-anchor="middle" x="1628" y="-99.8" font-family="Times,serif" font-size="14.00">BBBService</text>
</g>
<!-- BBBService&#45;&gt;VideoConferenceModule -->
<g id="edge5" class="edge">
<title>BBBService&#45;&gt;VideoConferenceModule</title>
<path fill="none" stroke="black" d="M1628,-122.03C1628,-139.06 1628,-162 1628,-162 1628,-162 1366.21,-162 1366.21,-162"/>
<polygon fill="black" stroke="black" points="1366.21,-158.5 1356.21,-162 1366.21,-165.5 1366.21,-158.5"/>
</g>
<!-- ConverterUtil -->
<g id="node7" class="node">
<title>ConverterUtil</title>
<ellipse fill="#fdb462" stroke="black" cx="1486" cy="-104" rx="64.84" ry="18"/>
<text text-anchor="middle" x="1486" y="-99.8" font-family="Times,serif" font-size="14.00">ConverterUtil</text>
</g>
<!-- ConverterUtil&#45;&gt;VideoConferenceModule -->
<g id="edge6" class="edge">
<title>ConverterUtil&#45;&gt;VideoConferenceModule</title>
<path fill="none" stroke="black" d="M1486,-122.24C1486,-137.57 1486,-157 1486,-157 1486,-157 1366.31,-157 1366.31,-157"/>
<polygon fill="black" stroke="black" points="1366.31,-153.5 1356.31,-157 1366.31,-160.5 1366.31,-153.5"/>
</g>
<!-- CourseRepo -->
<g id="node8" class="node">
<title>CourseRepo</title>
<ellipse fill="#fdb462" stroke="black" cx="1345" cy="-104" rx="58.55" ry="18"/>
<text text-anchor="middle" x="1345" y="-99.8" font-family="Times,serif" font-size="14.00">CourseRepo</text>
</g>
<!-- CourseRepo&#45;&gt;VideoConferenceModule -->
<g id="edge7" class="edge">
<title>CourseRepo&#45;&gt;VideoConferenceModule</title>
<path fill="none" stroke="black" d="M1321.18,-120.74C1321.18,-120.74 1321.18,-140.72 1321.18,-140.72"/>
<polygon fill="black" stroke="black" points="1317.68,-140.72 1321.18,-150.72 1324.68,-140.72 1317.68,-140.72"/>
</g>
<!-- SchoolRepo -->
<g id="node9" class="node">
<title>SchoolRepo</title>
<ellipse fill="#fdb462" stroke="black" cx="1210" cy="-104" rx="58.49" ry="18"/>
<text text-anchor="middle" x="1210" y="-99.8" font-family="Times,serif" font-size="14.00">SchoolRepo</text>
</g>
<!-- SchoolRepo&#45;&gt;VideoConferenceModule -->
<g id="edge8" class="edge">
<title>SchoolRepo&#45;&gt;VideoConferenceModule</title>
<path fill="none" stroke="black" d="M1233.05,-120.74C1233.05,-120.74 1233.05,-140.72 1233.05,-140.72"/>
<polygon fill="black" stroke="black" points="1229.55,-140.72 1233.05,-150.72 1236.55,-140.72 1229.55,-140.72"/>
</g>
<!-- SchoolService -->
<g id="node10" class="node">
<title>SchoolService</title>
<ellipse fill="#fdb462" stroke="black" cx="1067" cy="-104" rx="66.63" ry="18"/>
<text text-anchor="middle" x="1067" y="-99.8" font-family="Times,serif" font-size="14.00">SchoolService</text>
</g>
<!-- SchoolService&#45;&gt;VideoConferenceModule -->
<g id="edge9" class="edge">
<title>SchoolService&#45;&gt;VideoConferenceModule</title>
<path fill="none" stroke="black" d="M1067,-122.24C1067,-137.57 1067,-157 1067,-157 1067,-157 1187.61,-157 1187.61,-157"/>
<polygon fill="black" stroke="black" points="1187.61,-160.5 1197.61,-157 1187.61,-153.5 1187.61,-160.5"/>
</g>
<!-- TeamsRepo -->
<g id="node11" class="node">
<title>TeamsRepo</title>
<ellipse fill="#fdb462" stroke="black" cx="925" cy="-104" rx="57.32" ry="18"/>
<text text-anchor="middle" x="925" y="-99.8" font-family="Times,serif" font-size="14.00">TeamsRepo</text>
</g>
<!-- TeamsRepo&#45;&gt;VideoConferenceModule -->
<g id="edge10" class="edge">
<title>TeamsRepo&#45;&gt;VideoConferenceModule</title>
<path fill="none" stroke="black" d="M925,-122.03C925,-139.06 925,-162 925,-162 925,-162 1187.57,-162 1187.57,-162"/>
<polygon fill="black" stroke="black" points="1187.57,-165.5 1197.57,-162 1187.57,-158.5 1187.57,-165.5"/>
</g>
<!-- UserRepo -->
<g id="node12" class="node">
<title>UserRepo</title>
<ellipse fill="#fdb462" stroke="black" cx="800" cy="-104" rx="49.8" ry="18"/>
<text text-anchor="middle" x="800" y="-99.8" font-family="Times,serif" font-size="14.00">UserRepo</text>
</g>
<!-- UserRepo&#45;&gt;VideoConferenceModule -->
<g id="edge11" class="edge">
<title>UserRepo&#45;&gt;VideoConferenceModule</title>
<path fill="none" stroke="black" d="M800,-122.22C800,-140.83 800,-167 800,-167 800,-167 1187.7,-167 1187.7,-167"/>
<polygon fill="black" stroke="black" points="1187.7,-170.5 1197.7,-167 1187.7,-163.5 1187.7,-170.5"/>
</g>
<!-- VideoConferenceRepo -->
<g id="node13" class="node">
<title>VideoConferenceRepo</title>
<ellipse fill="#fdb462" stroke="black" cx="633" cy="-104" rx="99.54" ry="18"/>
<text text-anchor="middle" x="633" y="-99.8" font-family="Times,serif" font-size="14.00">VideoConferenceRepo</text>
</g>
<!-- VideoConferenceRepo&#45;&gt;VideoConferenceModule -->
<g id="edge12" class="edge">
<title>VideoConferenceRepo&#45;&gt;VideoConferenceModule</title>
<path fill="none" stroke="black" d="M633,-122.22C633,-142.37 633,-172 633,-172 633,-172 1187.71,-172 1187.71,-172"/>
<polygon fill="black" stroke="black" points="1187.71,-175.5 1197.71,-172 1187.71,-168.5 1187.71,-175.5"/>
</g>
<!-- VideoConferenceResponseMapper -->
<g id="node14" class="node">
<title>VideoConferenceResponseMapper</title>
<ellipse fill="#fdb462" stroke="black" cx="369" cy="-104" rx="146.35" ry="18"/>
<text text-anchor="middle" x="369" y="-99.8" font-family="Times,serif" font-size="14.00">VideoConferenceResponseMapper</text>
</g>
<!-- VideoConferenceResponseMapper&#45;&gt;VideoConferenceModule -->
<g id="edge13" class="edge">
<title>VideoConferenceResponseMapper&#45;&gt;VideoConferenceModule</title>
<path fill="none" stroke="black" d="M369,-122.04C369,-143.66 369,-177 369,-177 369,-177 1187.61,-177 1187.61,-177"/>
<polygon fill="black" stroke="black" points="1187.61,-180.5 1197.61,-177 1187.61,-173.5 1187.61,-180.5"/>
</g>
<!-- VideoConferenceUc -->
<g id="node15" class="node">
<title>VideoConferenceUc</title>
<ellipse fill="#fdb462" stroke="black" cx="114" cy="-104" rx="90.29" ry="18"/>
<text text-anchor="middle" x="114" y="-99.8" font-family="Times,serif" font-size="14.00">VideoConferenceUc</text>
</g>
<!-- VideoConferenceUc&#45;&gt;VideoConferenceModule -->
<g id="edge14" class="edge">
<title>VideoConferenceUc&#45;&gt;VideoConferenceModule</title>
<path fill="none" stroke="black" d="M114,-122.09C114,-145.13 114,-182 114,-182 114,-182 1187.52,-182 1187.52,-182"/>
<polygon fill="black" stroke="black" points="1187.52,-185.5 1197.52,-182 1187.52,-178.5 1187.52,-185.5"/>
</g>
</g>
</svg>
