<?xml version="1.0" encoding="UTF-8" standalone="no"?>
<!DOCTYPE svg PUBLIC "-//W3C//DTD SVG 1.1//EN"
 "http://www.w3.org/Graphics/SVG/1.1/DTD/svg11.dtd">
<!-- Generated by graphviz version 2.47.0 (20210316.0004)
 -->
<!-- Title: dependencies Pages: 1 -->
<svg width="2215pt" height="284pt"
 viewBox="0.00 0.00 2215.00 284.00" xmlns="http://www.w3.org/2000/svg" xmlns:xlink="http://www.w3.org/1999/xlink">
<g id="graph0" class="graph" transform="scale(1 1) rotate(0) translate(4 280)">
<title>dependencies</title>
<polygon fill="white" stroke="transparent" points="-4,4 -4,-280 2211,-280 2211,4 -4,4"/>
<text text-anchor="start" x="1082.51" y="-42.4" font-family="Times-12" font-weight="bold" font-size="14.00">Legend</text>
<polygon fill="#ffffb3" stroke="transparent" points="869.5,-10 869.5,-30 889.5,-30 889.5,-10 869.5,-10"/>
<text text-anchor="start" x="893.13" y="-15.4" font-family="Times-12" font-size="14.00"> &#160;Declarations</text>
<polygon fill="#8dd3c7" stroke="transparent" points="982.5,-10 982.5,-30 1002.5,-30 1002.5,-10 982.5,-10"/>
<text text-anchor="start" x="1006.23" y="-15.4" font-family="Times-12" font-size="14.00"> &#160;Module</text>
<polygon fill="#80b1d3" stroke="transparent" points="1068.5,-10 1068.5,-30 1088.5,-30 1088.5,-10 1068.5,-10"/>
<text text-anchor="start" x="1092.28" y="-15.4" font-family="Times-12" font-size="14.00"> &#160;Bootstrap</text>
<polygon fill="#fdb462" stroke="transparent" points="1165.5,-10 1165.5,-30 1185.5,-30 1185.5,-10 1165.5,-10"/>
<text text-anchor="start" x="1189.17" y="-15.4" font-family="Times-12" font-size="14.00"> &#160;Providers</text>
<polygon fill="#fb8072" stroke="transparent" points="1261.5,-10 1261.5,-30 1281.5,-30 1281.5,-10 1261.5,-10"/>
<text text-anchor="start" x="1285.23" y="-15.4" font-family="Times-12" font-size="14.00"> &#160;Exports</text>
<g id="clust1" class="cluster">
<title>cluster_VideoConferenceModule</title>
<polygon fill="none" stroke="black" stroke-dasharray="1,5" points="8,-70 8,-268 2199,-268 2199,-70 8,-70"/>
</g>
<g id="clust4" class="cluster">
<title>cluster_VideoConferenceModule_exports</title>
<polygon fill="none" stroke="black" points="702,-208 702,-260 986,-260 986,-208 702,-208"/>
</g>
<g id="clust6" class="cluster">
<title>cluster_VideoConferenceModule_providers</title>
<polygon fill="none" stroke="black" points="1038,-78 1038,-130 2191,-130 2191,-78 1038,-78"/>
</g>
<g id="clust3" class="cluster">
<title>cluster_VideoConferenceModule_imports</title>
<polygon fill="none" stroke="black" points="16,-78 16,-130 1030,-130 1030,-78 16,-78"/>
</g>
<!-- AuthorizationModule -->
<g id="node1" class="node">
<title>AuthorizationModule</title>
<polygon fill="#8dd3c7" stroke="black" points="1021.81,-122 1018.81,-126 997.81,-126 994.81,-122 884.19,-122 884.19,-86 1021.81,-86 1021.81,-122"/>
<text text-anchor="middle" x="953" y="-99.8" font-family="Times,serif" font-size="14.00">AuthorizationModule</text>
</g>
<!-- VideoConferenceModule -->
<g id="node8" class="node">
<title>VideoConferenceModule</title>
<polygon fill="#8dd3c7" stroke="black" points="940.28,-187 937.28,-191 916.28,-191 913.28,-187 781.72,-187 781.72,-151 940.28,-151 940.28,-187"/>
<text text-anchor="middle" x="861" y="-164.8" font-family="Times,serif" font-size="14.00">VideoConferenceModule</text>
</g>
<!-- AuthorizationModule&#45;&gt;VideoConferenceModule -->
<g id="edge1" class="edge">
<title>AuthorizationModule&#45;&gt;VideoConferenceModule</title>
<path fill="none" stroke="black" d="M912.24,-122.11C912.24,-122.11 912.24,-140.99 912.24,-140.99"/>
<polygon fill="black" stroke="black" points="908.74,-140.99 912.24,-150.99 915.74,-140.99 908.74,-140.99"/>
</g>
<!-- AuthorizationReferenceModule -->
<g id="node2" class="node">
<title>AuthorizationReferenceModule</title>
<polygon fill="#8dd3c7" stroke="black" points="866.04,-122 863.04,-126 842.04,-126 839.04,-122 671.96,-122 671.96,-86 866.04,-86 866.04,-122"/>
<text text-anchor="middle" x="769" y="-99.8" font-family="Times,serif" font-size="14.00">AuthorizationReferenceModule</text>
</g>
<!-- AuthorizationReferenceModule&#45;&gt;VideoConferenceModule -->
<g id="edge2" class="edge">
<title>AuthorizationReferenceModule&#45;&gt;VideoConferenceModule</title>
<path fill="none" stroke="black" d="M823.94,-122.11C823.94,-122.11 823.94,-140.99 823.94,-140.99"/>
<polygon fill="black" stroke="black" points="820.44,-140.99 823.94,-150.99 827.44,-140.99 820.44,-140.99"/>
</g>
<!-- CalendarModule -->
<g id="node3" class="node">
<title>CalendarModule</title>
<polygon fill="#8dd3c7" stroke="black" points="654.08,-122 651.08,-126 630.08,-126 627.08,-122 543.92,-122 543.92,-86 654.08,-86 654.08,-122"/>
<text text-anchor="middle" x="599" y="-99.8" font-family="Times,serif" font-size="14.00">CalendarModule</text>
</g>
<!-- CalendarModule&#45;&gt;VideoConferenceModule -->
<g id="edge3" class="edge">
<title>CalendarModule&#45;&gt;VideoConferenceModule</title>
<path fill="none" stroke="black" d="M599,-122.24C599,-137.57 599,-157 599,-157 599,-157 771.68,-157 771.68,-157"/>
<polygon fill="black" stroke="black" points="771.68,-160.5 781.68,-157 771.68,-153.5 771.68,-160.5"/>
</g>
<!-- LearnroomModule -->
<g id="node4" class="node">
<title>LearnroomModule</title>
<polygon fill="#8dd3c7" stroke="black" points="525.74,-122 522.74,-126 501.74,-126 498.74,-122 404.26,-122 404.26,-86 525.74,-86 525.74,-122"/>
<text text-anchor="middle" x="465" y="-99.8" font-family="Times,serif" font-size="14.00">LearnroomModule</text>
</g>
<!-- LearnroomModule&#45;&gt;VideoConferenceModule -->
<g id="edge4" class="edge">
<title>LearnroomModule&#45;&gt;VideoConferenceModule</title>
<path fill="none" stroke="black" d="M465,-122.03C465,-139.06 465,-162 465,-162 465,-162 771.82,-162 771.82,-162"/>
<polygon fill="black" stroke="black" points="771.82,-165.5 781.82,-162 771.82,-158.5 771.82,-165.5"/>
</g>
<!-- LegacySchoolModule -->
<g id="node5" class="node">
<title>LegacySchoolModule</title>
<polygon fill="#8dd3c7" stroke="black" points="385.63,-122 382.63,-126 361.63,-126 358.63,-122 246.37,-122 246.37,-86 385.63,-86 385.63,-122"/>
<text text-anchor="middle" x="316" y="-99.8" font-family="Times,serif" font-size="14.00">LegacySchoolModule</text>
</g>
<!-- LegacySchoolModule&#45;&gt;VideoConferenceModule -->
<g id="edge5" class="edge">
<title>LegacySchoolModule&#45;&gt;VideoConferenceModule</title>
<path fill="none" stroke="black" d="M316,-122.22C316,-140.83 316,-167 316,-167 316,-167 771.75,-167 771.75,-167"/>
<polygon fill="black" stroke="black" points="771.75,-170.5 781.75,-167 771.75,-163.5 771.75,-170.5"/>
</g>
<!-- LoggerModule -->
<g id="node6" class="node">
<title>LoggerModule</title>
<polygon fill="#8dd3c7" stroke="black" points="227.98,-122 224.98,-126 203.98,-126 200.98,-122 128.02,-122 128.02,-86 227.98,-86 227.98,-122"/>
<text text-anchor="middle" x="178" y="-99.8" font-family="Times,serif" font-size="14.00">LoggerModule</text>
</g>
<!-- LoggerModule&#45;&gt;VideoConferenceModule -->
<g id="edge6" class="edge">
<title>LoggerModule&#45;&gt;VideoConferenceModule</title>
<path fill="none" stroke="black" d="M178,-122.22C178,-142.37 178,-172 178,-172 178,-172 771.65,-172 771.65,-172"/>
<polygon fill="black" stroke="black" points="771.65,-175.5 781.65,-172 771.65,-168.5 771.65,-175.5"/>
</g>
<!-- UserModule -->
<g id="node7" class="node">
<title>UserModule</title>
<polygon fill="#8dd3c7" stroke="black" points="109.98,-122 106.98,-126 85.98,-126 82.98,-122 24.02,-122 24.02,-86 109.98,-86 109.98,-122"/>
<text text-anchor="middle" x="67" y="-99.8" font-family="Times,serif" font-size="14.00">UserModule</text>
</g>
<!-- UserModule&#45;&gt;VideoConferenceModule -->
<g id="edge7" class="edge">
<title>UserModule&#45;&gt;VideoConferenceModule</title>
<path fill="none" stroke="black" d="M81.33,-122.04C81.33,-143.66 81.33,-177 81.33,-177 81.33,-177 771.59,-177 771.59,-177"/>
<polygon fill="black" stroke="black" points="771.59,-180.5 781.59,-177 771.59,-173.5 771.59,-180.5"/>
</g>
<!-- UserModule&#45;&gt;VideoConferenceModule -->
<g id="edge8" class="edge">
<title>UserModule&#45;&gt;VideoConferenceModule</title>
<path fill="none" stroke="black" d="M52.67,-122.09C52.67,-145.13 52.67,-182 52.67,-182 52.67,-182 771.65,-182 771.65,-182"/>
<polygon fill="black" stroke="black" points="771.65,-185.5 781.65,-182 771.65,-178.5 771.65,-185.5"/>
</g>
<!-- BBBService  -->
<g id="node9" class="node">
<title>BBBService </title>
<polygon fill="#fb8072" stroke="black" points="977.99,-252 888.01,-252 888.01,-216 977.99,-216 977.99,-252"/>
<text text-anchor="middle" x="933" y="-229.8" font-family="Times,serif" font-size="14.00">BBBService </text>
</g>
<!-- VideoConferenceModule&#45;&gt;BBBService  -->
<g id="edge9" class="edge">
<title>VideoConferenceModule&#45;&gt;BBBService </title>
<path fill="none" stroke="black" stroke-dasharray="5,2" d="M914.2,-187.11C914.2,-187.11 914.2,-205.99 914.2,-205.99"/>
<polygon fill="black" stroke="black" points="910.7,-205.99 914.2,-215.99 917.7,-205.99 910.7,-205.99"/>
</g>
<!-- VideoConferenceService  -->
<g id="node10" class="node">
<title>VideoConferenceService </title>
<polygon fill="#fb8072" stroke="black" points="870.21,-252 709.79,-252 709.79,-216 870.21,-216 870.21,-252"/>
<text text-anchor="middle" x="790" y="-229.8" font-family="Times,serif" font-size="14.00">VideoConferenceService </text>
</g>
<!-- VideoConferenceModule&#45;&gt;VideoConferenceService  -->
<g id="edge10" class="edge">
<title>VideoConferenceModule&#45;&gt;VideoConferenceService </title>
<path fill="none" stroke="black" stroke-dasharray="5,2" d="M825.98,-187.11C825.98,-187.11 825.98,-205.99 825.98,-205.99"/>
<polygon fill="black" stroke="black" points="822.48,-205.99 825.98,-215.99 829.48,-205.99 822.48,-205.99"/>
</g>
<!-- BBBService -->
<g id="node11" class="node">
<title>BBBService</title>
<ellipse fill="#fdb462" stroke="black" cx="2124" cy="-104" rx="59.13" ry="18"/>
<text text-anchor="middle" x="2124" y="-99.8" font-family="Times,serif" font-size="14.00">BBBService</text>
</g>
<!-- BBBService&#45;&gt;VideoConferenceModule -->
<g id="edge11" class="edge">
<title>BBBService&#45;&gt;VideoConferenceModule</title>
<path fill="none" stroke="black" d="M2124,-122.09C2124,-145.13 2124,-182 2124,-182 2124,-182 950.48,-182 950.48,-182"/>
<polygon fill="black" stroke="black" points="950.48,-178.5 940.48,-182 950.48,-185.5 950.48,-178.5"/>
</g>
<!-- ConverterUtil -->
<g id="node12" class="node">
<title>ConverterUtil</title>
<ellipse fill="#fdb462" stroke="black" cx="1982" cy="-104" rx="64.84" ry="18"/>
<text text-anchor="middle" x="1982" y="-99.8" font-family="Times,serif" font-size="14.00">ConverterUtil</text>
</g>
<!-- ConverterUtil&#45;&gt;VideoConferenceModule -->
<g id="edge12" class="edge">
<title>ConverterUtil&#45;&gt;VideoConferenceModule</title>
<path fill="none" stroke="black" d="M1982,-122.04C1982,-143.66 1982,-177 1982,-177 1982,-177 950.27,-177 950.27,-177"/>
<polygon fill="black" stroke="black" points="950.27,-173.5 940.27,-177 950.27,-180.5 950.27,-173.5"/>
</g>
<!-- TeamsRepo -->
<g id="node13" class="node">
<title>TeamsRepo</title>
<ellipse fill="#fdb462" stroke="black" cx="1842" cy="-104" rx="57.32" ry="18"/>
<text text-anchor="middle" x="1842" y="-99.8" font-family="Times,serif" font-size="14.00">TeamsRepo</text>
</g>
<!-- TeamsRepo&#45;&gt;VideoConferenceModule -->
<g id="edge13" class="edge">
<title>TeamsRepo&#45;&gt;VideoConferenceModule</title>
<path fill="none" stroke="black" d="M1842,-122.22C1842,-142.37 1842,-172 1842,-172 1842,-172 950.45,-172 950.45,-172"/>
<polygon fill="black" stroke="black" points="950.45,-168.5 940.45,-172 950.45,-175.5 950.45,-168.5"/>
</g>
<!-- VideoConferenceDeprecatedUc -->
<g id="node14" class="node">
<title>VideoConferenceDeprecatedUc</title>
<ellipse fill="#fdb462" stroke="black" cx="1632" cy="-104" rx="134.21" ry="18"/>
<text text-anchor="middle" x="1632" y="-99.8" font-family="Times,serif" font-size="14.00">VideoConferenceDeprecatedUc</text>
</g>
<!-- VideoConferenceDeprecatedUc&#45;&gt;VideoConferenceModule -->
<g id="edge14" class="edge">
<title>VideoConferenceDeprecatedUc&#45;&gt;VideoConferenceModule</title>
<path fill="none" stroke="black" d="M1632,-122.22C1632,-140.83 1632,-167 1632,-167 1632,-167 950.25,-167 950.25,-167"/>
<polygon fill="black" stroke="black" points="950.25,-163.5 940.25,-167 950.25,-170.5 950.25,-163.5"/>
</g>
<!-- VideoConferenceRepo -->
<g id="node15" class="node">
<title>VideoConferenceRepo</title>
<ellipse fill="#fdb462" stroke="black" cx="1380" cy="-104" rx="99.54" ry="18"/>
<text text-anchor="middle" x="1380" y="-99.8" font-family="Times,serif" font-size="14.00">VideoConferenceRepo</text>
</g>
<!-- VideoConferenceRepo&#45;&gt;VideoConferenceModule -->
<g id="edge15" class="edge">
<title>VideoConferenceRepo&#45;&gt;VideoConferenceModule</title>
<path fill="none" stroke="black" d="M1380,-122.03C1380,-139.06 1380,-162 1380,-162 1380,-162 950.39,-162 950.39,-162"/>
<polygon fill="black" stroke="black" points="950.39,-158.5 940.39,-162 950.39,-165.5 950.39,-158.5"/>
</g>
<!-- VideoConferenceService -->
<g id="node16" class="node">
<title>VideoConferenceService</title>
<ellipse fill="#fdb462" stroke="black" cx="1154" cy="-104" rx="108.19" ry="18"/>
<text text-anchor="middle" x="1154" y="-99.8" font-family="Times,serif" font-size="14.00">VideoConferenceService</text>
</g>
<!-- VideoConferenceService&#45;&gt;VideoConferenceModule -->
<g id="edge16" class="edge">
<title>VideoConferenceService&#45;&gt;VideoConferenceModule</title>
<path fill="none" stroke="black" d="M1154,-122.24C1154,-137.57 1154,-157 1154,-157 1154,-157 950.29,-157 950.29,-157"/>
<polygon fill="black" stroke="black" points="950.29,-153.5 940.29,-157 950.29,-160.5 950.29,-153.5"/>
</g>
</g>
</svg>
