<?xml version="1.0" encoding="UTF-8" standalone="no"?>
<!DOCTYPE svg PUBLIC "-//W3C//DTD SVG 1.1//EN"
 "http://www.w3.org/Graphics/SVG/1.1/DTD/svg11.dtd">
<!-- Generated by graphviz version 2.47.0 (20210316.0004)
 -->
<!-- Title: dependencies Pages: 1 -->
<svg width="2003pt" height="284pt"
 viewBox="0.00 0.00 2003.00 284.00" xmlns="http://www.w3.org/2000/svg" xmlns:xlink="http://www.w3.org/1999/xlink">
<g id="graph0" class="graph" transform="scale(1 1) rotate(0) translate(4 280)">
<title>dependencies</title>
<polygon fill="white" stroke="transparent" points="-4,4 -4,-280 1999,-280 1999,4 -4,4"/>
<text text-anchor="start" x="976.51" y="-42.4" font-family="Times-12" font-weight="bold" font-size="14.00">Legend</text>
<polygon fill="#ffffb3" stroke="transparent" points="763.5,-10 763.5,-30 783.5,-30 783.5,-10 763.5,-10"/>
<text text-anchor="start" x="787.13" y="-15.4" font-family="Times-12" font-size="14.00"> &#160;Declarations</text>
<polygon fill="#8dd3c7" stroke="transparent" points="876.5,-10 876.5,-30 896.5,-30 896.5,-10 876.5,-10"/>
<text text-anchor="start" x="900.23" y="-15.4" font-family="Times-12" font-size="14.00"> &#160;Module</text>
<polygon fill="#80b1d3" stroke="transparent" points="962.5,-10 962.5,-30 982.5,-30 982.5,-10 962.5,-10"/>
<text text-anchor="start" x="986.28" y="-15.4" font-family="Times-12" font-size="14.00"> &#160;Bootstrap</text>
<polygon fill="#fdb462" stroke="transparent" points="1059.5,-10 1059.5,-30 1079.5,-30 1079.5,-10 1059.5,-10"/>
<text text-anchor="start" x="1083.17" y="-15.4" font-family="Times-12" font-size="14.00"> &#160;Providers</text>
<polygon fill="#fb8072" stroke="transparent" points="1155.5,-10 1155.5,-30 1175.5,-30 1175.5,-10 1155.5,-10"/>
<text text-anchor="start" x="1179.23" y="-15.4" font-family="Times-12" font-size="14.00"> &#160;Exports</text>
<g id="clust1" class="cluster">
<title>cluster_VideoConferenceModule</title>
<polygon fill="none" stroke="black" stroke-dasharray="1,5" points="8,-70 8,-268 1987,-268 1987,-70 8,-70"/>
</g>
<g id="clust6" class="cluster">
<title>cluster_VideoConferenceModule_providers</title>
<polygon fill="none" stroke="black" points="826,-78 826,-130 1979,-130 1979,-78 826,-78"/>
</g>
<g id="clust4" class="cluster">
<title>cluster_VideoConferenceModule_exports</title>
<polygon fill="none" stroke="black" points="582,-208 582,-260 866,-260 866,-208 582,-208"/>
</g>
<g id="clust3" class="cluster">
<title>cluster_VideoConferenceModule_imports</title>
<polygon fill="none" stroke="black" points="16,-78 16,-130 818,-130 818,-78 16,-78"/>
</g>
<!-- AuthorizationModule -->
<g id="node1" class="node">
<title>AuthorizationModule</title>
<polygon fill="#8dd3c7" stroke="black" points="809.81,-122 806.81,-126 785.81,-126 782.81,-122 672.19,-122 672.19,-86 809.81,-86 809.81,-122"/>
<text text-anchor="middle" x="741" y="-99.8" font-family="Times,serif" font-size="14.00">AuthorizationModule</text>
</g>
<!-- VideoConferenceModule -->
<g id="node7" class="node">
<title>VideoConferenceModule</title>
<polygon fill="#8dd3c7" stroke="black" points="820.28,-187 817.28,-191 796.28,-191 793.28,-187 661.72,-187 661.72,-151 820.28,-151 820.28,-187"/>
<text text-anchor="middle" x="741" y="-164.8" font-family="Times,serif" font-size="14.00">VideoConferenceModule</text>
</g>
<!-- AuthorizationModule&#45;&gt;VideoConferenceModule -->
<g id="edge1" class="edge">
<title>AuthorizationModule&#45;&gt;VideoConferenceModule</title>
<path fill="none" stroke="black" d="M741,-122.11C741,-122.11 741,-140.99 741,-140.99"/>
<polygon fill="black" stroke="black" points="737.5,-140.99 741,-150.99 744.5,-140.99 737.5,-140.99"/>
</g>
<!-- CalendarModule -->
<g id="node2" class="node">
<title>CalendarModule</title>
<polygon fill="#8dd3c7" stroke="black" points="654.08,-122 651.08,-126 630.08,-126 627.08,-122 543.92,-122 543.92,-86 654.08,-86 654.08,-122"/>
<text text-anchor="middle" x="599" y="-99.8" font-family="Times,serif" font-size="14.00">CalendarModule</text>
</g>
<!-- CalendarModule&#45;&gt;VideoConferenceModule -->
<g id="edge2" class="edge">
<title>CalendarModule&#45;&gt;VideoConferenceModule</title>
<path fill="none" stroke="black" d="M654.29,-104C661.86,-104 667.1,-104 667.1,-104 667.1,-104 667.1,-140.89 667.1,-140.89"/>
<polygon fill="black" stroke="black" points="663.6,-140.89 667.1,-150.89 670.6,-140.89 663.6,-140.89"/>
</g>
<!-- LearnroomModule -->
<g id="node3" class="node">
<title>LearnroomModule</title>
<polygon fill="#8dd3c7" stroke="black" points="525.74,-122 522.74,-126 501.74,-126 498.74,-122 404.26,-122 404.26,-86 525.74,-86 525.74,-122"/>
<text text-anchor="middle" x="465" y="-99.8" font-family="Times,serif" font-size="14.00">LearnroomModule</text>
</g>
<!-- LearnroomModule&#45;&gt;VideoConferenceModule -->
<g id="edge3" class="edge">
<title>LearnroomModule&#45;&gt;VideoConferenceModule</title>
<path fill="none" stroke="black" d="M465,-122.24C465,-137.57 465,-157 465,-157 465,-157 651.54,-157 651.54,-157"/>
<polygon fill="black" stroke="black" points="651.54,-160.5 661.54,-157 651.54,-153.5 651.54,-160.5"/>
</g>
<!-- LegacySchoolModule -->
<g id="node4" class="node">
<title>LegacySchoolModule</title>
<polygon fill="#8dd3c7" stroke="black" points="385.63,-122 382.63,-126 361.63,-126 358.63,-122 246.37,-122 246.37,-86 385.63,-86 385.63,-122"/>
<text text-anchor="middle" x="316" y="-99.8" font-family="Times,serif" font-size="14.00">LegacySchoolModule</text>
</g>
<!-- LegacySchoolModule&#45;&gt;VideoConferenceModule -->
<g id="edge4" class="edge">
<title>LegacySchoolModule&#45;&gt;VideoConferenceModule</title>
<path fill="none" stroke="black" d="M316,-122.02C316,-139.37 316,-163 316,-163 316,-163 651.56,-163 651.56,-163"/>
<polygon fill="black" stroke="black" points="651.56,-166.5 661.56,-163 651.56,-159.5 651.56,-166.5"/>
</g>
<!-- LoggerModule -->
<g id="node5" class="node">
<title>LoggerModule</title>
<polygon fill="#8dd3c7" stroke="black" points="227.98,-122 224.98,-126 203.98,-126 200.98,-122 128.02,-122 128.02,-86 227.98,-86 227.98,-122"/>
<text text-anchor="middle" x="178" y="-99.8" font-family="Times,serif" font-size="14.00">LoggerModule</text>
</g>
<!-- LoggerModule&#45;&gt;VideoConferenceModule -->
<g id="edge5" class="edge">
<title>LoggerModule&#45;&gt;VideoConferenceModule</title>
<path fill="none" stroke="black" d="M178,-122.11C178,-141.34 178,-169 178,-169 178,-169 651.83,-169 651.83,-169"/>
<polygon fill="black" stroke="black" points="651.83,-172.5 661.83,-169 651.83,-165.5 651.83,-172.5"/>
</g>
<!-- UserModule -->
<g id="node6" class="node">
<title>UserModule</title>
<polygon fill="#8dd3c7" stroke="black" points="109.98,-122 106.98,-126 85.98,-126 82.98,-122 24.02,-122 24.02,-86 109.98,-86 109.98,-122"/>
<text text-anchor="middle" x="67" y="-99.8" font-family="Times,serif" font-size="14.00">UserModule</text>
</g>
<!-- UserModule&#45;&gt;VideoConferenceModule -->
<g id="edge6" class="edge">
<title>UserModule&#45;&gt;VideoConferenceModule</title>
<path fill="none" stroke="black" d="M52.67,-122.25C52.67,-145.02 52.67,-181 52.67,-181 52.67,-181 651.7,-181 651.7,-181"/>
<polygon fill="black" stroke="black" points="651.7,-184.5 661.7,-181 651.7,-177.5 651.7,-184.5"/>
</g>
<!-- UserModule&#45;&gt;VideoConferenceModule -->
<g id="edge7" class="edge">
<title>UserModule&#45;&gt;VideoConferenceModule</title>
<path fill="none" stroke="black" d="M81.33,-122.28C81.33,-143.32 81.33,-175 81.33,-175 81.33,-175 651.76,-175 651.76,-175"/>
<polygon fill="black" stroke="black" points="651.76,-178.5 661.76,-175 651.76,-171.5 651.76,-178.5"/>
</g>
<!-- BBBService  -->
<g id="node8" class="node">
<title>BBBService </title>
<polygon fill="#fb8072" stroke="black" points="857.99,-252 768.01,-252 768.01,-216 857.99,-216 857.99,-252"/>
<text text-anchor="middle" x="813" y="-229.8" font-family="Times,serif" font-size="14.00">BBBService </text>
</g>
<!-- VideoConferenceModule&#45;&gt;BBBService  -->
<g id="edge8" class="edge">
<title>VideoConferenceModule&#45;&gt;BBBService </title>
<path fill="none" stroke="black" stroke-dasharray="5,2" d="M794.2,-187.11C794.2,-187.11 794.2,-205.99 794.2,-205.99"/>
<polygon fill="black" stroke="black" points="790.7,-205.99 794.2,-215.99 797.7,-205.99 790.7,-205.99"/>
</g>
<!-- VideoConferenceService  -->
<g id="node9" class="node">
<title>VideoConferenceService </title>
<polygon fill="#fb8072" stroke="black" points="750.21,-252 589.79,-252 589.79,-216 750.21,-216 750.21,-252"/>
<text text-anchor="middle" x="670" y="-229.8" font-family="Times,serif" font-size="14.00">VideoConferenceService </text>
</g>
<!-- VideoConferenceModule&#45;&gt;VideoConferenceService  -->
<g id="edge9" class="edge">
<title>VideoConferenceModule&#45;&gt;VideoConferenceService </title>
<path fill="none" stroke="black" stroke-dasharray="5,2" d="M705.98,-187.11C705.98,-187.11 705.98,-205.99 705.98,-205.99"/>
<polygon fill="black" stroke="black" points="702.48,-205.99 705.98,-215.99 709.48,-205.99 702.48,-205.99"/>
</g>
<!-- BBBService -->
<g id="node10" class="node">
<title>BBBService</title>
<ellipse fill="#fdb462" stroke="black" cx="1912" cy="-104" rx="59.13" ry="18"/>
<text text-anchor="middle" x="1912" y="-99.8" font-family="Times,serif" font-size="14.00">BBBService</text>
</g>
<!-- BBBService&#45;&gt;VideoConferenceModule -->
<g id="edge10" class="edge">
<title>BBBService&#45;&gt;VideoConferenceModule</title>
<path fill="none" stroke="black" d="M1912,-122.25C1912,-145.02 1912,-181 1912,-181 1912,-181 830.57,-181 830.57,-181"/>
<polygon fill="black" stroke="black" points="830.57,-177.5 820.57,-181 830.57,-184.5 830.57,-177.5"/>
</g>
<!-- ConverterUtil -->
<g id="node11" class="node">
<title>ConverterUtil</title>
<ellipse fill="#fdb462" stroke="black" cx="1770" cy="-104" rx="64.84" ry="18"/>
<text text-anchor="middle" x="1770" y="-99.8" font-family="Times,serif" font-size="14.00">ConverterUtil</text>
</g>
<!-- ConverterUtil&#45;&gt;VideoConferenceModule -->
<g id="edge11" class="edge">
<title>ConverterUtil&#45;&gt;VideoConferenceModule</title>
<path fill="none" stroke="black" d="M1770,-122.28C1770,-143.32 1770,-175 1770,-175 1770,-175 830.46,-175 830.46,-175"/>
<polygon fill="black" stroke="black" points="830.46,-171.5 820.46,-175 830.46,-178.5 830.46,-171.5"/>
</g>
<!-- TeamsRepo -->
<g id="node12" class="node">
<title>TeamsRepo</title>
<ellipse fill="#fdb462" stroke="black" cx="1630" cy="-104" rx="57.32" ry="18"/>
<text text-anchor="middle" x="1630" y="-99.8" font-family="Times,serif" font-size="14.00">TeamsRepo</text>
</g>
<!-- TeamsRepo&#45;&gt;VideoConferenceModule -->
<g id="edge12" class="edge">
<title>TeamsRepo&#45;&gt;VideoConferenceModule</title>
<path fill="none" stroke="black" d="M1630,-122.11C1630,-141.34 1630,-169 1630,-169 1630,-169 830.28,-169 830.28,-169"/>
<polygon fill="black" stroke="black" points="830.28,-165.5 820.28,-169 830.28,-172.5 830.28,-165.5"/>
</g>
<!-- VideoConferenceDeprecatedUc -->
<g id="node13" class="node">
<title>VideoConferenceDeprecatedUc</title>
<ellipse fill="#fdb462" stroke="black" cx="1420" cy="-104" rx="134.21" ry="18"/>
<text text-anchor="middle" x="1420" y="-99.8" font-family="Times,serif" font-size="14.00">VideoConferenceDeprecatedUc</text>
</g>
<!-- VideoConferenceDeprecatedUc&#45;&gt;VideoConferenceModule -->
<g id="edge13" class="edge">
<title>VideoConferenceDeprecatedUc&#45;&gt;VideoConferenceModule</title>
<path fill="none" stroke="black" d="M1420,-122.02C1420,-139.37 1420,-163 1420,-163 1420,-163 830.22,-163 830.22,-163"/>
<polygon fill="black" stroke="black" points="830.22,-159.5 820.22,-163 830.22,-166.5 830.22,-159.5"/>
</g>
<!-- VideoConferenceRepo -->
<g id="node14" class="node">
<title>VideoConferenceRepo</title>
<ellipse fill="#fdb462" stroke="black" cx="1168" cy="-104" rx="99.54" ry="18"/>
<text text-anchor="middle" x="1168" y="-99.8" font-family="Times,serif" font-size="14.00">VideoConferenceRepo</text>
</g>
<!-- VideoConferenceRepo&#45;&gt;VideoConferenceModule -->
<g id="edge14" class="edge">
<title>VideoConferenceRepo&#45;&gt;VideoConferenceModule</title>
<path fill="none" stroke="black" d="M1168,-122.24C1168,-137.57 1168,-157 1168,-157 1168,-157 830.31,-157 830.31,-157"/>
<polygon fill="black" stroke="black" points="830.31,-153.5 820.31,-157 830.31,-160.5 830.31,-153.5"/>
</g>
<!-- VideoConferenceService -->
<g id="node15" class="node">
<title>VideoConferenceService</title>
<ellipse fill="#fdb462" stroke="black" cx="942" cy="-104" rx="108.19" ry="18"/>
<text text-anchor="middle" x="942" y="-99.8" font-family="Times,serif" font-size="14.00">VideoConferenceService</text>
</g>
<!-- VideoConferenceService&#45;&gt;VideoConferenceModule -->
<g id="edge15" class="edge">
<title>VideoConferenceService&#45;&gt;VideoConferenceModule</title>
<path fill="none" stroke="black" d="M833.65,-104C822.35,-104 814.9,-104 814.9,-104 814.9,-104 814.9,-140.89 814.9,-140.89"/>
<polygon fill="black" stroke="black" points="811.4,-140.89 814.9,-150.89 818.4,-140.89 811.4,-140.89"/>
</g>
</g>
</svg>
