<?xml version="1.0" encoding="UTF-8" standalone="no"?>
<!DOCTYPE svg PUBLIC "-//W3C//DTD SVG 1.1//EN"
 "http://www.w3.org/Graphics/SVG/1.1/DTD/svg11.dtd">
<!-- Generated by graphviz version 5.0.0 (20220707.1540)
 -->
<!-- Title: dependencies Pages: 1 -->
<svg width="2243pt" height="174pt"
 viewBox="0.00 0.00 2243.00 173.80" xmlns="http://www.w3.org/2000/svg" xmlns:xlink="http://www.w3.org/1999/xlink">
<g id="graph0" class="graph" transform="scale(1 1) rotate(0) translate(4 169.8)">
<title>dependencies</title>
<polygon fill="white" stroke="transparent" points="-4,4 -4,-169.8 2239,-169.8 2239,4 -4,4"/>
<text text-anchor="middle" x="1117.5" y="-8.2" font-family="sans-serif" font-size="14.00">dependencies</text>
<g id="clust1" class="cluster">
<title>cluster_VideoConferenceModule</title>
<polygon fill="none" stroke="black" stroke-dasharray="1,5" points="8,-32.8 8,-157.8 2227,-157.8 2227,-32.8 8,-32.8"/>
</g>
<g id="clust3" class="cluster">
<title>cluster_VideoConferenceModule_imports</title>
<polygon fill="none" stroke="black" points="1703,-40.8 1703,-92.8 2219,-92.8 2219,-40.8 1703,-40.8"/>
</g>
<g id="clust6" class="cluster">
<title>cluster_VideoConferenceModule_providers</title>
<polygon fill="none" stroke="black" points="16,-40.8 16,-92.8 1695,-92.8 1695,-40.8 16,-40.8"/>
</g>
<!-- AuthorizationModule -->
<g id="node1" class="node">
<title>AuthorizationModule</title>
<polygon fill="#8dd3c7" stroke="black" points="2210.81,-84.8 2207.81,-88.8 2186.81,-88.8 2183.81,-84.8 2073.19,-84.8 2073.19,-48.8 2210.81,-48.8 2210.81,-84.8"/>
<text text-anchor="middle" x="2142" y="-62.6" font-family="Times,serif" font-size="14.00">AuthorizationModule</text>
</g>
<!-- VideoConferenceModule -->
<g id="node5" class="node">
<title>VideoConferenceModule</title>
<polygon fill="#8dd3c7" stroke="black" points="1356.28,-149.8 1353.28,-153.8 1332.28,-153.8 1329.28,-149.8 1197.72,-149.8 1197.72,-113.8 1356.28,-113.8 1356.28,-149.8"/>
<text text-anchor="middle" x="1277" y="-127.6" font-family="Times,serif" font-size="14.00">VideoConferenceModule</text>
</g>
<!-- AuthorizationModule&#45;&gt;VideoConferenceModule -->
<g id="edge1" class="edge">
<title>AuthorizationModule&#45;&gt;VideoConferenceModule</title>
<path fill="none" stroke="black" d="M2142,-84.89C2142,-107.93 2142,-144.8 2142,-144.8 2142,-144.8 1366.44,-144.8 1366.44,-144.8"/>
<polygon fill="black" stroke="black" points="1366.44,-141.3 1356.44,-144.8 1366.44,-148.3 1366.44,-141.3"/>
</g>
<!-- CalendarModule -->
<g id="node2" class="node">
<title>CalendarModule</title>
<polygon fill="#8dd3c7" stroke="black" points="2055.08,-84.8 2052.08,-88.8 2031.08,-88.8 2028.08,-84.8 1944.92,-84.8 1944.92,-48.8 2055.08,-48.8 2055.08,-84.8"/>
<text text-anchor="middle" x="2000" y="-62.6" font-family="Times,serif" font-size="14.00">CalendarModule</text>
</g>
<!-- CalendarModule&#45;&gt;VideoConferenceModule -->
<g id="edge2" class="edge">
<title>CalendarModule&#45;&gt;VideoConferenceModule</title>
<path fill="none" stroke="black" d="M2000,-84.84C2000,-106.46 2000,-139.8 2000,-139.8 2000,-139.8 1366.44,-139.8 1366.44,-139.8"/>
<polygon fill="black" stroke="black" points="1366.44,-136.3 1356.44,-139.8 1366.44,-143.3 1366.44,-136.3"/>
</g>
<!-- LoggerModule -->
<g id="node3" class="node">
<title>LoggerModule</title>
<polygon fill="#8dd3c7" stroke="black" points="1926.98,-84.8 1923.98,-88.8 1902.98,-88.8 1899.98,-84.8 1827.02,-84.8 1827.02,-48.8 1926.98,-48.8 1926.98,-84.8"/>
<text text-anchor="middle" x="1877" y="-62.6" font-family="Times,serif" font-size="14.00">LoggerModule</text>
</g>
<!-- LoggerModule&#45;&gt;VideoConferenceModule -->
<g id="edge3" class="edge">
<title>LoggerModule&#45;&gt;VideoConferenceModule</title>
<path fill="none" stroke="black" d="M1877,-85.02C1877,-105.17 1877,-134.8 1877,-134.8 1877,-134.8 1366.37,-134.8 1366.37,-134.8"/>
<polygon fill="black" stroke="black" points="1366.37,-131.3 1356.37,-134.8 1366.37,-138.3 1366.37,-131.3"/>
</g>
<!-- SchoolModule -->
<g id="node4" class="node">
<title>SchoolModule</title>
<polygon fill="#8dd3c7" stroke="black" points="1809.44,-84.8 1806.44,-88.8 1785.44,-88.8 1782.44,-84.8 1710.56,-84.8 1710.56,-48.8 1809.44,-48.8 1809.44,-84.8"/>
<text text-anchor="middle" x="1760" y="-62.6" font-family="Times,serif" font-size="14.00">SchoolModule</text>
</g>
<!-- SchoolModule&#45;&gt;VideoConferenceModule -->
<g id="edge4" class="edge">
<title>SchoolModule&#45;&gt;VideoConferenceModule</title>
<path fill="none" stroke="black" d="M1760,-85.02C1760,-103.63 1760,-129.8 1760,-129.8 1760,-129.8 1366.22,-129.8 1366.22,-129.8"/>
<polygon fill="black" stroke="black" points="1366.22,-126.3 1356.22,-129.8 1366.22,-133.3 1366.22,-126.3"/>
</g>
<!-- BBBService -->
<g id="node6" class="node">
<title>BBBService</title>
<ellipse fill="#fdb462" stroke="black" cx="1628" cy="-66.8" rx="59.13" ry="18"/>
<text text-anchor="middle" x="1628" y="-62.6" font-family="Times,serif" font-size="14.00">BBBService</text>
</g>
<!-- BBBService&#45;&gt;VideoConferenceModule -->
<g id="edge5" class="edge">
<title>BBBService&#45;&gt;VideoConferenceModule</title>
<path fill="none" stroke="black" d="M1628,-84.83C1628,-101.86 1628,-124.8 1628,-124.8 1628,-124.8 1366.21,-124.8 1366.21,-124.8"/>
<polygon fill="black" stroke="black" points="1366.21,-121.3 1356.21,-124.8 1366.21,-128.3 1366.21,-121.3"/>
</g>
<!-- ConverterUtil -->
<g id="node7" class="node">
<title>ConverterUtil</title>
<ellipse fill="#fdb462" stroke="black" cx="1486" cy="-66.8" rx="64.85" ry="18"/>
<text text-anchor="middle" x="1486" y="-62.6" font-family="Times,serif" font-size="14.00">ConverterUtil</text>
</g>
<!-- ConverterUtil&#45;&gt;VideoConferenceModule -->
<g id="edge6" class="edge">
<title>ConverterUtil&#45;&gt;VideoConferenceModule</title>
<path fill="none" stroke="black" d="M1486,-85.04C1486,-100.37 1486,-119.8 1486,-119.8 1486,-119.8 1366.31,-119.8 1366.31,-119.8"/>
<polygon fill="black" stroke="black" points="1366.31,-116.3 1356.31,-119.8 1366.31,-123.3 1366.31,-116.3"/>
</g>
<!-- CourseRepo -->
<g id="node8" class="node">
<title>CourseRepo</title>
<ellipse fill="#fdb462" stroke="black" cx="1345" cy="-66.8" rx="58.56" ry="18"/>
<text text-anchor="middle" x="1345" y="-62.6" font-family="Times,serif" font-size="14.00">CourseRepo</text>
</g>
<!-- CourseRepo&#45;&gt;VideoConferenceModule -->
<g id="edge7" class="edge">
<title>CourseRepo&#45;&gt;VideoConferenceModule</title>
<path fill="none" stroke="black" d="M1321.18,-83.54C1321.18,-83.54 1321.18,-103.52 1321.18,-103.52"/>
<polygon fill="black" stroke="black" points="1317.68,-103.52 1321.18,-113.52 1324.68,-103.52 1317.68,-103.52"/>
</g>
<!-- SchoolRepo -->
<g id="node9" class="node">
<title>SchoolRepo</title>
<ellipse fill="#fdb462" stroke="black" cx="1210" cy="-66.8" rx="58.49" ry="18"/>
<text text-anchor="middle" x="1210" y="-62.6" font-family="Times,serif" font-size="14.00">SchoolRepo</text>
</g>
<!-- SchoolRepo&#45;&gt;VideoConferenceModule -->
<g id="edge8" class="edge">
<title>SchoolRepo&#45;&gt;VideoConferenceModule</title>
<path fill="none" stroke="black" d="M1233.05,-83.54C1233.05,-83.54 1233.05,-103.52 1233.05,-103.52"/>
<polygon fill="black" stroke="black" points="1229.55,-103.52 1233.05,-113.52 1236.55,-103.52 1229.55,-103.52"/>
</g>
<!-- SchoolService -->
<g id="node10" class="node">
<title>SchoolService</title>
<ellipse fill="#fdb462" stroke="black" cx="1067" cy="-66.8" rx="66.64" ry="18"/>
<text text-anchor="middle" x="1067" y="-62.6" font-family="Times,serif" font-size="14.00">SchoolService</text>
</g>
<!-- SchoolService&#45;&gt;VideoConferenceModule -->
<g id="edge9" class="edge">
<title>SchoolService&#45;&gt;VideoConferenceModule</title>
<path fill="none" stroke="black" d="M1067,-85.04C1067,-100.37 1067,-119.8 1067,-119.8 1067,-119.8 1187.61,-119.8 1187.61,-119.8"/>
<polygon fill="black" stroke="black" points="1187.61,-123.3 1197.61,-119.8 1187.61,-116.3 1187.61,-123.3"/>
</g>
<!-- TeamsRepo -->
<g id="node11" class="node">
<title>TeamsRepo</title>
<ellipse fill="#fdb462" stroke="black" cx="925" cy="-66.8" rx="57.32" ry="18"/>
<text text-anchor="middle" x="925" y="-62.6" font-family="Times,serif" font-size="14.00">TeamsRepo</text>
</g>
<!-- TeamsRepo&#45;&gt;VideoConferenceModule -->
<g id="edge10" class="edge">
<title>TeamsRepo&#45;&gt;VideoConferenceModule</title>
<path fill="none" stroke="black" d="M925,-84.83C925,-101.86 925,-124.8 925,-124.8 925,-124.8 1187.57,-124.8 1187.57,-124.8"/>
<polygon fill="black" stroke="black" points="1187.57,-128.3 1197.57,-124.8 1187.57,-121.3 1187.57,-128.3"/>
</g>
<!-- UserRepo -->
<g id="node12" class="node">
<title>UserRepo</title>
<ellipse fill="#fdb462" stroke="black" cx="800" cy="-66.8" rx="49.81" ry="18"/>
<text text-anchor="middle" x="800" y="-62.6" font-family="Times,serif" font-size="14.00">UserRepo</text>
</g>
<!-- UserRepo&#45;&gt;VideoConferenceModule -->
<g id="edge11" class="edge">
<title>UserRepo&#45;&gt;VideoConferenceModule</title>
<path fill="none" stroke="black" d="M800,-85.02C800,-103.63 800,-129.8 800,-129.8 800,-129.8 1187.7,-129.8 1187.7,-129.8"/>
<polygon fill="black" stroke="black" points="1187.7,-133.3 1197.7,-129.8 1187.7,-126.3 1187.7,-133.3"/>
</g>
<!-- VideoConferenceRepo -->
<g id="node13" class="node">
<title>VideoConferenceRepo</title>
<ellipse fill="#fdb462" stroke="black" cx="633" cy="-66.8" rx="99.55" ry="18"/>
<text text-anchor="middle" x="633" y="-62.6" font-family="Times,serif" font-size="14.00">VideoConferenceRepo</text>
</g>
<!-- VideoConferenceRepo&#45;&gt;VideoConferenceModule -->
<g id="edge12" class="edge">
<title>VideoConferenceRepo&#45;&gt;VideoConferenceModule</title>
<path fill="none" stroke="black" d="M633,-85.02C633,-105.17 633,-134.8 633,-134.8 633,-134.8 1187.71,-134.8 1187.71,-134.8"/>
<polygon fill="black" stroke="black" points="1187.71,-138.3 1197.71,-134.8 1187.71,-131.3 1187.71,-138.3"/>
</g>
<!-- VideoConferenceResponseMapper -->
<g id="node14" class="node">
<title>VideoConferenceResponseMapper</title>
<ellipse fill="#fdb462" stroke="black" cx="369" cy="-66.8" rx="146.37" ry="18"/>
<text text-anchor="middle" x="369" y="-62.6" font-family="Times,serif" font-size="14.00">VideoConferenceResponseMapper</text>
</g>
<!-- VideoConferenceResponseMapper&#45;&gt;VideoConferenceModule -->
<g id="edge13" class="edge">
<title>VideoConferenceResponseMapper&#45;&gt;VideoConferenceModule</title>
<path fill="none" stroke="black" d="M369,-84.84C369,-106.46 369,-139.8 369,-139.8 369,-139.8 1187.61,-139.8 1187.61,-139.8"/>
<polygon fill="black" stroke="black" points="1187.61,-143.3 1197.61,-139.8 1187.61,-136.3 1187.61,-143.3"/>
</g>
<!-- VideoConferenceUc -->
<g id="node15" class="node">
<title>VideoConferenceUc</title>
<ellipse fill="#fdb462" stroke="black" cx="114" cy="-66.8" rx="90.3" ry="18"/>
<text text-anchor="middle" x="114" y="-62.6" font-family="Times,serif" font-size="14.00">VideoConferenceUc</text>
</g>
<!-- VideoConferenceUc&#45;&gt;VideoConferenceModule -->
<g id="edge14" class="edge">
<title>VideoConferenceUc&#45;&gt;VideoConferenceModule</title>
<path fill="none" stroke="black" d="M114,-84.89C114,-107.93 114,-144.8 114,-144.8 114,-144.8 1187.52,-144.8 1187.52,-144.8"/>
<polygon fill="black" stroke="black" points="1187.52,-148.3 1197.52,-144.8 1187.52,-141.3 1187.52,-148.3"/>
</g>
</g>
</svg>
