<?xml version="1.0" encoding="UTF-8" standalone="no"?>
<!DOCTYPE svg PUBLIC "-//W3C//DTD SVG 1.1//EN"
 "http://www.w3.org/Graphics/SVG/1.1/DTD/svg11.dtd">
<!-- Generated by graphviz version 2.47.0 (20210316.0004)
 -->
<!-- Title: dependencies Pages: 1 -->
<svg width="2003pt" height="284pt"
 viewBox="0.00 0.00 2003.00 284.00" xmlns="http://www.w3.org/2000/svg" xmlns:xlink="http://www.w3.org/1999/xlink">
<g id="graph0" class="graph" transform="scale(1 1) rotate(0) translate(4 280)">
<title>dependencies</title>
<polygon fill="white" stroke="transparent" points="-4,4 -4,-280 1999,-280 1999,4 -4,4"/>
<text text-anchor="start" x="976.51" y="-42.4" font-family="Times-12" font-weight="bold" font-size="14.00">Legend</text>
<polygon fill="#ffffb3" stroke="transparent" points="763.5,-10 763.5,-30 783.5,-30 783.5,-10 763.5,-10"/>
<text text-anchor="start" x="787.13" y="-15.4" font-family="Times-12" font-size="14.00"> &#160;Declarations</text>
<polygon fill="#8dd3c7" stroke="transparent" points="876.5,-10 876.5,-30 896.5,-30 896.5,-10 876.5,-10"/>
<text text-anchor="start" x="900.23" y="-15.4" font-family="Times-12" font-size="14.00"> &#160;Module</text>
<polygon fill="#80b1d3" stroke="transparent" points="962.5,-10 962.5,-30 982.5,-30 982.5,-10 962.5,-10"/>
<text text-anchor="start" x="986.28" y="-15.4" font-family="Times-12" font-size="14.00"> &#160;Bootstrap</text>
<polygon fill="#fdb462" stroke="transparent" points="1059.5,-10 1059.5,-30 1079.5,-30 1079.5,-10 1059.5,-10"/>
<text text-anchor="start" x="1083.17" y="-15.4" font-family="Times-12" font-size="14.00"> &#160;Providers</text>
<polygon fill="#fb8072" stroke="transparent" points="1155.5,-10 1155.5,-30 1175.5,-30 1175.5,-10 1155.5,-10"/>
<text text-anchor="start" x="1179.23" y="-15.4" font-family="Times-12" font-size="14.00"> &#160;Exports</text>
<g id="clust1" class="cluster">
<title>cluster_VideoConferenceModule</title>
<polygon fill="none" stroke="black" stroke-dasharray="1,5" points="8,-70 8,-268 1987,-268 1987,-70 8,-70"/>
</g>
<g id="clust3" class="cluster">
<title>cluster_VideoConferenceModule_imports</title>
<polygon fill="none" stroke="black" points="1177,-78 1177,-130 1979,-130 1979,-78 1177,-78"/>
</g>
<g id="clust6" class="cluster">
<title>cluster_VideoConferenceModule_providers</title>
<polygon fill="none" stroke="black" points="16,-78 16,-130 1169,-130 1169,-78 16,-78"/>
</g>
<g id="clust4" class="cluster">
<title>cluster_VideoConferenceModule_exports</title>
<polygon fill="none" stroke="black" points="1069,-208 1069,-260 1353,-260 1353,-208 1069,-208"/>
</g>
<!-- AuthorizationModule -->
<g id="node1" class="node">
<title>AuthorizationModule</title>
<polygon fill="#8dd3c7" stroke="black" points="1970.81,-122 1967.81,-126 1946.81,-126 1943.81,-122 1833.19,-122 1833.19,-86 1970.81,-86 1970.81,-122"/>
<text text-anchor="middle" x="1902" y="-99.8" font-family="Times,serif" font-size="14.00">AuthorizationModule</text>
</g>
<!-- VideoConferenceModule -->
<g id="node7" class="node">
<title>VideoConferenceModule</title>
<polygon fill="#8dd3c7" stroke="black" points="1307.28,-187 1304.28,-191 1283.28,-191 1280.28,-187 1148.72,-187 1148.72,-151 1307.28,-151 1307.28,-187"/>
<text text-anchor="middle" x="1228" y="-164.8" font-family="Times,serif" font-size="14.00">VideoConferenceModule</text>
</g>
<!-- AuthorizationModule&#45;&gt;VideoConferenceModule -->
<g id="edge1" class="edge">
<title>AuthorizationModule&#45;&gt;VideoConferenceModule</title>
<path fill="none" stroke="black" d="M1902,-122.01C1902,-144.49 1902,-180 1902,-180 1902,-180 1317.3,-180 1317.3,-180"/>
<polygon fill="black" stroke="black" points="1317.3,-176.5 1307.3,-180 1317.3,-183.5 1317.3,-176.5"/>
</g>
<!-- CalendarModule -->
<g id="node2" class="node">
<title>CalendarModule</title>
<polygon fill="#8dd3c7" stroke="black" points="1815.08,-122 1812.08,-126 1791.08,-126 1788.08,-122 1704.92,-122 1704.92,-86 1815.08,-86 1815.08,-122"/>
<text text-anchor="middle" x="1760" y="-99.8" font-family="Times,serif" font-size="14.00">CalendarModule</text>
</g>
<!-- CalendarModule&#45;&gt;VideoConferenceModule -->
<g id="edge2" class="edge">
<title>CalendarModule&#45;&gt;VideoConferenceModule</title>
<path fill="none" stroke="black" d="M1760,-122.13C1760,-142.57 1760,-173 1760,-173 1760,-173 1317.36,-173 1317.36,-173"/>
<polygon fill="black" stroke="black" points="1317.36,-169.5 1307.36,-173 1317.36,-176.5 1317.36,-169.5"/>
</g>
<!-- LearnroomModule -->
<g id="node3" class="node">
<title>LearnroomModule</title>
<polygon fill="#8dd3c7" stroke="black" points="1686.74,-122 1683.74,-126 1662.74,-126 1659.74,-122 1565.26,-122 1565.26,-86 1686.74,-86 1686.74,-122"/>
<text text-anchor="middle" x="1626" y="-99.8" font-family="Times,serif" font-size="14.00">LearnroomModule</text>
</g>
<!-- LearnroomModule&#45;&gt;VideoConferenceModule -->
<g id="edge3" class="edge">
<title>LearnroomModule&#45;&gt;VideoConferenceModule</title>
<path fill="none" stroke="black" d="M1626,-122.27C1626,-140.56 1626,-166 1626,-166 1626,-166 1317.58,-166 1317.58,-166"/>
<polygon fill="black" stroke="black" points="1317.58,-162.5 1307.58,-166 1317.58,-169.5 1317.58,-162.5"/>
</g>
<!-- LegacySchoolModule -->
<g id="node4" class="node">
<title>LegacySchoolModule</title>
<polygon fill="#8dd3c7" stroke="black" points="1546.63,-122 1543.63,-126 1522.63,-126 1519.63,-122 1407.37,-122 1407.37,-86 1546.63,-86 1546.63,-122"/>
<text text-anchor="middle" x="1477" y="-99.8" font-family="Times,serif" font-size="14.00">LegacySchoolModule</text>
</g>
<!-- LegacySchoolModule&#45;&gt;VideoConferenceModule -->
<g id="edge4" class="edge">
<title>LegacySchoolModule&#45;&gt;VideoConferenceModule</title>
<path fill="none" stroke="black" d="M1477,-122.01C1477,-138.05 1477,-159 1477,-159 1477,-159 1317.47,-159 1317.47,-159"/>
<polygon fill="black" stroke="black" points="1317.47,-155.5 1307.47,-159 1317.47,-162.5 1317.47,-155.5"/>
</g>
<!-- LoggerModule -->
<g id="node5" class="node">
<title>LoggerModule</title>
<polygon fill="#8dd3c7" stroke="black" points="1388.98,-122 1385.98,-126 1364.98,-126 1361.98,-122 1289.02,-122 1289.02,-86 1388.98,-86 1388.98,-122"/>
<text text-anchor="middle" x="1339" y="-99.8" font-family="Times,serif" font-size="14.00">LoggerModule</text>
</g>
<!-- LoggerModule&#45;&gt;VideoConferenceModule -->
<g id="edge5" class="edge">
<title>LoggerModule&#45;&gt;VideoConferenceModule</title>
<path fill="none" stroke="black" d="M1298.08,-122.11C1298.08,-122.11 1298.08,-140.99 1298.08,-140.99"/>
<polygon fill="black" stroke="black" points="1294.58,-140.99 1298.08,-150.99 1301.58,-140.99 1294.58,-140.99"/>
</g>
<!-- UserModule -->
<g id="node6" class="node">
<title>UserModule</title>
<polygon fill="#8dd3c7" stroke="black" points="1270.98,-122 1267.98,-126 1246.98,-126 1243.98,-122 1185.02,-122 1185.02,-86 1270.98,-86 1270.98,-122"/>
<text text-anchor="middle" x="1228" y="-99.8" font-family="Times,serif" font-size="14.00">UserModule</text>
</g>
<!-- UserModule&#45;&gt;VideoConferenceModule -->
<g id="edge6" class="edge">
<title>UserModule&#45;&gt;VideoConferenceModule</title>
<path fill="none" stroke="black" d="M1242.33,-122.11C1242.33,-122.11 1242.33,-140.99 1242.33,-140.99"/>
<polygon fill="black" stroke="black" points="1238.83,-140.99 1242.33,-150.99 1245.83,-140.99 1238.83,-140.99"/>
</g>
<!-- UserModule&#45;&gt;VideoConferenceModule -->
<g id="edge7" class="edge">
<title>UserModule&#45;&gt;VideoConferenceModule</title>
<path fill="none" stroke="black" d="M1213.67,-122.11C1213.67,-122.11 1213.67,-140.99 1213.67,-140.99"/>
<polygon fill="black" stroke="black" points="1210.17,-140.99 1213.67,-150.99 1217.17,-140.99 1210.17,-140.99"/>
</g>
<!-- BBBService  -->
<g id="node8" class="node">
<title>BBBService </title>
<polygon fill="#fb8072" stroke="black" points="1344.99,-252 1255.01,-252 1255.01,-216 1344.99,-216 1344.99,-252"/>
<text text-anchor="middle" x="1300" y="-229.8" font-family="Times,serif" font-size="14.00">BBBService </text>
</g>
<!-- VideoConferenceModule&#45;&gt;BBBService  -->
<g id="edge8" class="edge">
<title>VideoConferenceModule&#45;&gt;BBBService </title>
<path fill="none" stroke="black" stroke-dasharray="5,2" d="M1281.2,-187.11C1281.2,-187.11 1281.2,-205.99 1281.2,-205.99"/>
<polygon fill="black" stroke="black" points="1277.7,-205.99 1281.2,-215.99 1284.7,-205.99 1277.7,-205.99"/>
</g>
<!-- VideoConferenceService  -->
<g id="node9" class="node">
<title>VideoConferenceService </title>
<polygon fill="#fb8072" stroke="black" points="1237.21,-252 1076.79,-252 1076.79,-216 1237.21,-216 1237.21,-252"/>
<text text-anchor="middle" x="1157" y="-229.8" font-family="Times,serif" font-size="14.00">VideoConferenceService </text>
</g>
<!-- VideoConferenceModule&#45;&gt;VideoConferenceService  -->
<g id="edge9" class="edge">
<title>VideoConferenceModule&#45;&gt;VideoConferenceService </title>
<path fill="none" stroke="black" stroke-dasharray="5,2" d="M1192.98,-187.11C1192.98,-187.11 1192.98,-205.99 1192.98,-205.99"/>
<polygon fill="black" stroke="black" points="1189.48,-205.99 1192.98,-215.99 1196.48,-205.99 1189.48,-205.99"/>
</g>
<!-- BBBService -->
<g id="node10" class="node">
<title>BBBService</title>
<ellipse fill="#fdb462" stroke="black" cx="1102" cy="-104" rx="59.13" ry="18"/>
<text text-anchor="middle" x="1102" y="-99.8" font-family="Times,serif" font-size="14.00">BBBService</text>
</g>
<!-- BBBService&#45;&gt;VideoConferenceModule -->
<g id="edge10" class="edge">
<title>BBBService&#45;&gt;VideoConferenceModule</title>
<path fill="none" stroke="black" d="M1155.09,-112.23C1155.09,-112.23 1155.09,-140.76 1155.09,-140.76"/>
<polygon fill="black" stroke="black" points="1151.59,-140.76 1155.09,-150.76 1158.59,-140.76 1151.59,-140.76"/>
</g>
<!-- ConverterUtil -->
<g id="node11" class="node">
<title>ConverterUtil</title>
<ellipse fill="#fdb462" stroke="black" cx="960" cy="-104" rx="64.84" ry="18"/>
<text text-anchor="middle" x="960" y="-99.8" font-family="Times,serif" font-size="14.00">ConverterUtil</text>
</g>
<!-- ConverterUtil&#45;&gt;VideoConferenceModule -->
<g id="edge11" class="edge">
<title>ConverterUtil&#45;&gt;VideoConferenceModule</title>
<path fill="none" stroke="black" d="M960,-122.24C960,-137.57 960,-157 960,-157 960,-157 1138.68,-157 1138.68,-157"/>
<polygon fill="black" stroke="black" points="1138.68,-160.5 1148.68,-157 1138.68,-153.5 1138.68,-160.5"/>
</g>
<!-- TeamsRepo -->
<g id="node12" class="node">
<title>TeamsRepo</title>
<ellipse fill="#fdb462" stroke="black" cx="820" cy="-104" rx="57.32" ry="18"/>
<text text-anchor="middle" x="820" y="-99.8" font-family="Times,serif" font-size="14.00">TeamsRepo</text>
</g>
<!-- TeamsRepo&#45;&gt;VideoConferenceModule -->
<g id="edge12" class="edge">
<title>TeamsRepo&#45;&gt;VideoConferenceModule</title>
<path fill="none" stroke="black" d="M820,-122.02C820,-139.37 820,-163 820,-163 820,-163 1138.85,-163 1138.85,-163"/>
<polygon fill="black" stroke="black" points="1138.85,-166.5 1148.85,-163 1138.85,-159.5 1138.85,-166.5"/>
</g>
<!-- VideoConferenceDeprecatedUc -->
<g id="node13" class="node">
<title>VideoConferenceDeprecatedUc</title>
<ellipse fill="#fdb462" stroke="black" cx="610" cy="-104" rx="134.21" ry="18"/>
<text text-anchor="middle" x="610" y="-99.8" font-family="Times,serif" font-size="14.00">VideoConferenceDeprecatedUc</text>
</g>
<!-- VideoConferenceDeprecatedUc&#45;&gt;VideoConferenceModule -->
<g id="edge13" class="edge">
<title>VideoConferenceDeprecatedUc&#45;&gt;VideoConferenceModule</title>
<path fill="none" stroke="black" d="M610,-122.11C610,-141.34 610,-169 610,-169 610,-169 1138.79,-169 1138.79,-169"/>
<polygon fill="black" stroke="black" points="1138.79,-172.5 1148.79,-169 1138.79,-165.5 1138.79,-172.5"/>
</g>
<!-- VideoConferenceRepo -->
<g id="node14" class="node">
<title>VideoConferenceRepo</title>
<ellipse fill="#fdb462" stroke="black" cx="358" cy="-104" rx="99.54" ry="18"/>
<text text-anchor="middle" x="358" y="-99.8" font-family="Times,serif" font-size="14.00">VideoConferenceRepo</text>
</g>
<!-- VideoConferenceRepo&#45;&gt;VideoConferenceModule -->
<g id="edge14" class="edge">
<title>VideoConferenceRepo&#45;&gt;VideoConferenceModule</title>
<path fill="none" stroke="black" d="M358,-122.28C358,-143.32 358,-175 358,-175 358,-175 1138.49,-175 1138.49,-175"/>
<polygon fill="black" stroke="black" points="1138.49,-178.5 1148.49,-175 1138.49,-171.5 1138.49,-178.5"/>
</g>
<!-- VideoConferenceService -->
<g id="node15" class="node">
<title>VideoConferenceService</title>
<ellipse fill="#fdb462" stroke="black" cx="132" cy="-104" rx="108.19" ry="18"/>
<text text-anchor="middle" x="132" y="-99.8" font-family="Times,serif" font-size="14.00">VideoConferenceService</text>
</g>
<!-- VideoConferenceService&#45;&gt;VideoConferenceModule -->
<g id="edge15" class="edge">
<title>VideoConferenceService&#45;&gt;VideoConferenceModule</title>
<path fill="none" stroke="black" d="M132,-122.25C132,-145.02 132,-181 132,-181 132,-181 1138.74,-181 1138.74,-181"/>
<polygon fill="black" stroke="black" points="1138.74,-184.5 1148.74,-181 1138.74,-177.5 1138.74,-184.5"/>
</g>
</g>
</svg>
