<?xml version="1.0" encoding="UTF-8" standalone="no"?>
<!DOCTYPE svg PUBLIC "-//W3C//DTD SVG 1.1//EN"
 "http://www.w3.org/Graphics/SVG/1.1/DTD/svg11.dtd">
<!-- Generated by graphviz version 2.47.0 (20210316.0004)
 -->
<!-- Title: dependencies Pages: 1 -->
<svg width="2067pt" height="284pt"
 viewBox="0.00 0.00 2067.00 284.00" xmlns="http://www.w3.org/2000/svg" xmlns:xlink="http://www.w3.org/1999/xlink">
<g id="graph0" class="graph" transform="scale(1 1) rotate(0) translate(4 280)">
<title>dependencies</title>
<polygon fill="white" stroke="transparent" points="-4,4 -4,-280 2063,-280 2063,4 -4,4"/>
<text text-anchor="start" x="1008.51" y="-42.4" font-family="Times-12" font-weight="bold" font-size="14.00">Legend</text>
<polygon fill="#ffffb3" stroke="transparent" points="795.5,-10 795.5,-30 815.5,-30 815.5,-10 795.5,-10"/>
<text text-anchor="start" x="819.13" y="-15.4" font-family="Times-12" font-size="14.00"> &#160;Declarations</text>
<polygon fill="#8dd3c7" stroke="transparent" points="908.5,-10 908.5,-30 928.5,-30 928.5,-10 908.5,-10"/>
<text text-anchor="start" x="932.23" y="-15.4" font-family="Times-12" font-size="14.00"> &#160;Module</text>
<polygon fill="#80b1d3" stroke="transparent" points="994.5,-10 994.5,-30 1014.5,-30 1014.5,-10 994.5,-10"/>
<text text-anchor="start" x="1018.28" y="-15.4" font-family="Times-12" font-size="14.00"> &#160;Bootstrap</text>
<polygon fill="#fdb462" stroke="transparent" points="1091.5,-10 1091.5,-30 1111.5,-30 1111.5,-10 1091.5,-10"/>
<text text-anchor="start" x="1115.17" y="-15.4" font-family="Times-12" font-size="14.00"> &#160;Providers</text>
<polygon fill="#fb8072" stroke="transparent" points="1187.5,-10 1187.5,-30 1207.5,-30 1207.5,-10 1187.5,-10"/>
<text text-anchor="start" x="1211.23" y="-15.4" font-family="Times-12" font-size="14.00"> &#160;Exports</text>
<g id="clust1" class="cluster">
<title>cluster_VideoConferenceModule</title>
<polygon fill="none" stroke="black" stroke-dasharray="1,5" points="8,-70 8,-268 2051,-268 2051,-70 8,-70"/>
</g>
<g id="clust4" class="cluster">
<title>cluster_VideoConferenceModule_exports</title>
<polygon fill="none" stroke="black" points="610,-208 610,-260 894,-260 894,-208 610,-208"/>
</g>
<g id="clust6" class="cluster">
<title>cluster_VideoConferenceModule_providers</title>
<polygon fill="none" stroke="black" points="1038,-78 1038,-130 2043,-130 2043,-78 1038,-78"/>
</g>
<g id="clust3" class="cluster">
<title>cluster_VideoConferenceModule_imports</title>
<polygon fill="none" stroke="black" points="16,-78 16,-130 1030,-130 1030,-78 16,-78"/>
</g>
<!-- AuthorizationModule -->
<g id="node1" class="node">
<title>AuthorizationModule</title>
<polygon fill="#8dd3c7" stroke="black" points="1021.81,-122 1018.81,-126 997.81,-126 994.81,-122 884.19,-122 884.19,-86 1021.81,-86 1021.81,-122"/>
<text text-anchor="middle" x="953" y="-99.8" font-family="Times,serif" font-size="14.00">AuthorizationModule</text>
</g>
<!-- VideoConferenceModule -->
<g id="node8" class="node">
<title>VideoConferenceModule</title>
<polygon fill="#8dd3c7" stroke="black" points="848.28,-187 845.28,-191 824.28,-191 821.28,-187 689.72,-187 689.72,-151 848.28,-151 848.28,-187"/>
<text text-anchor="middle" x="769" y="-164.8" font-family="Times,serif" font-size="14.00">VideoConferenceModule</text>
</g>
<!-- AuthorizationModule&#45;&gt;VideoConferenceModule -->
<g id="edge1" class="edge">
<title>AuthorizationModule&#45;&gt;VideoConferenceModule</title>
<path fill="none" stroke="black" d="M953.7,-122.24C953.7,-137.57 953.7,-157 953.7,-157 953.7,-157 858.4,-157 858.4,-157"/>
<polygon fill="black" stroke="black" points="858.4,-153.5 848.4,-157 858.4,-160.5 858.4,-153.5"/>
</g>
<!-- AuthorizationReferenceModule -->
<g id="node2" class="node">
<title>AuthorizationReferenceModule</title>
<polygon fill="#8dd3c7" stroke="black" points="866.04,-122 863.04,-126 842.04,-126 839.04,-122 671.96,-122 671.96,-86 866.04,-86 866.04,-122"/>
<text text-anchor="middle" x="769" y="-99.8" font-family="Times,serif" font-size="14.00">AuthorizationReferenceModule</text>
</g>
<!-- AuthorizationReferenceModule&#45;&gt;VideoConferenceModule -->
<g id="edge2" class="edge">
<title>AuthorizationReferenceModule&#45;&gt;VideoConferenceModule</title>
<path fill="none" stroke="black" d="M769,-122.11C769,-122.11 769,-140.99 769,-140.99"/>
<polygon fill="black" stroke="black" points="765.5,-140.99 769,-150.99 772.5,-140.99 765.5,-140.99"/>
</g>
<!-- CalendarModule -->
<g id="node3" class="node">
<title>CalendarModule</title>
<polygon fill="#8dd3c7" stroke="black" points="654.08,-122 651.08,-126 630.08,-126 627.08,-122 543.92,-122 543.92,-86 654.08,-86 654.08,-122"/>
<text text-anchor="middle" x="599" y="-99.8" font-family="Times,serif" font-size="14.00">CalendarModule</text>
</g>
<!-- CalendarModule&#45;&gt;VideoConferenceModule -->
<g id="edge3" class="edge">
<title>CalendarModule&#45;&gt;VideoConferenceModule</title>
<path fill="none" stroke="black" d="M635.97,-122.24C635.97,-137.57 635.97,-157 635.97,-157 635.97,-157 679.69,-157 679.69,-157"/>
<polygon fill="black" stroke="black" points="679.69,-160.5 689.69,-157 679.69,-153.5 679.69,-160.5"/>
</g>
<!-- LearnroomModule -->
<g id="node4" class="node">
<title>LearnroomModule</title>
<polygon fill="#8dd3c7" stroke="black" points="525.74,-122 522.74,-126 501.74,-126 498.74,-122 404.26,-122 404.26,-86 525.74,-86 525.74,-122"/>
<text text-anchor="middle" x="465" y="-99.8" font-family="Times,serif" font-size="14.00">LearnroomModule</text>
</g>
<!-- LearnroomModule&#45;&gt;VideoConferenceModule -->
<g id="edge4" class="edge">
<title>LearnroomModule&#45;&gt;VideoConferenceModule</title>
<path fill="none" stroke="black" d="M465,-122.03C465,-139.06 465,-162 465,-162 465,-162 679.52,-162 679.52,-162"/>
<polygon fill="black" stroke="black" points="679.52,-165.5 689.52,-162 679.52,-158.5 679.52,-165.5"/>
</g>
<!-- LegacySchoolModule -->
<g id="node5" class="node">
<title>LegacySchoolModule</title>
<polygon fill="#8dd3c7" stroke="black" points="385.63,-122 382.63,-126 361.63,-126 358.63,-122 246.37,-122 246.37,-86 385.63,-86 385.63,-122"/>
<text text-anchor="middle" x="316" y="-99.8" font-family="Times,serif" font-size="14.00">LegacySchoolModule</text>
</g>
<!-- LegacySchoolModule&#45;&gt;VideoConferenceModule -->
<g id="edge5" class="edge">
<title>LegacySchoolModule&#45;&gt;VideoConferenceModule</title>
<path fill="none" stroke="black" d="M316,-122.22C316,-140.83 316,-167 316,-167 316,-167 679.83,-167 679.83,-167"/>
<polygon fill="black" stroke="black" points="679.83,-170.5 689.83,-167 679.83,-163.5 679.83,-170.5"/>
</g>
<!-- LoggerModule -->
<g id="node6" class="node">
<title>LoggerModule</title>
<polygon fill="#8dd3c7" stroke="black" points="227.98,-122 224.98,-126 203.98,-126 200.98,-122 128.02,-122 128.02,-86 227.98,-86 227.98,-122"/>
<text text-anchor="middle" x="178" y="-99.8" font-family="Times,serif" font-size="14.00">LoggerModule</text>
</g>
<!-- LoggerModule&#45;&gt;VideoConferenceModule -->
<g id="edge6" class="edge">
<title>LoggerModule&#45;&gt;VideoConferenceModule</title>
<path fill="none" stroke="black" d="M178,-122.22C178,-142.37 178,-172 178,-172 178,-172 679.6,-172 679.6,-172"/>
<polygon fill="black" stroke="black" points="679.6,-175.5 689.6,-172 679.6,-168.5 679.6,-175.5"/>
</g>
<!-- UserModule -->
<g id="node7" class="node">
<title>UserModule</title>
<polygon fill="#8dd3c7" stroke="black" points="109.98,-122 106.98,-126 85.98,-126 82.98,-122 24.02,-122 24.02,-86 109.98,-86 109.98,-122"/>
<text text-anchor="middle" x="67" y="-99.8" font-family="Times,serif" font-size="14.00">UserModule</text>
</g>
<!-- UserModule&#45;&gt;VideoConferenceModule -->
<g id="edge7" class="edge">
<title>UserModule&#45;&gt;VideoConferenceModule</title>
<path fill="none" stroke="black" d="M81.33,-122.04C81.33,-143.66 81.33,-177 81.33,-177 81.33,-177 679.78,-177 679.78,-177"/>
<polygon fill="black" stroke="black" points="679.78,-180.5 689.78,-177 679.78,-173.5 679.78,-180.5"/>
</g>
<!-- UserModule&#45;&gt;VideoConferenceModule -->
<g id="edge8" class="edge">
<title>UserModule&#45;&gt;VideoConferenceModule</title>
<path fill="none" stroke="black" d="M52.67,-122.09C52.67,-145.13 52.67,-182 52.67,-182 52.67,-182 679.6,-182 679.6,-182"/>
<polygon fill="black" stroke="black" points="679.6,-185.5 689.6,-182 679.6,-178.5 679.6,-185.5"/>
</g>
<!-- BBBService  -->
<g id="node9" class="node">
<title>BBBService </title>
<polygon fill="#fb8072" stroke="black" points="885.99,-252 796.01,-252 796.01,-216 885.99,-216 885.99,-252"/>
<text text-anchor="middle" x="841" y="-229.8" font-family="Times,serif" font-size="14.00">BBBService </text>
</g>
<!-- VideoConferenceModule&#45;&gt;BBBService  -->
<g id="edge9" class="edge">
<title>VideoConferenceModule&#45;&gt;BBBService </title>
<path fill="none" stroke="black" stroke-dasharray="5,2" d="M822.2,-187.11C822.2,-187.11 822.2,-205.99 822.2,-205.99"/>
<polygon fill="black" stroke="black" points="818.7,-205.99 822.2,-215.99 825.7,-205.99 818.7,-205.99"/>
</g>
<!-- VideoConferenceService  -->
<g id="node10" class="node">
<title>VideoConferenceService </title>
<polygon fill="#fb8072" stroke="black" points="778.21,-252 617.79,-252 617.79,-216 778.21,-216 778.21,-252"/>
<text text-anchor="middle" x="698" y="-229.8" font-family="Times,serif" font-size="14.00">VideoConferenceService </text>
</g>
<!-- VideoConferenceModule&#45;&gt;VideoConferenceService  -->
<g id="edge10" class="edge">
<title>VideoConferenceModule&#45;&gt;VideoConferenceService </title>
<path fill="none" stroke="black" stroke-dasharray="5,2" d="M733.98,-187.11C733.98,-187.11 733.98,-205.99 733.98,-205.99"/>
<polygon fill="black" stroke="black" points="730.48,-205.99 733.98,-215.99 737.48,-205.99 730.48,-205.99"/>
</g>
<!-- BBBService -->
<g id="node11" class="node">
<title>BBBService</title>
<ellipse fill="#fdb462" stroke="black" cx="1976" cy="-104" rx="59.13" ry="18"/>
<text text-anchor="middle" x="1976" y="-99.8" font-family="Times,serif" font-size="14.00">BBBService</text>
</g>
<!-- BBBService&#45;&gt;VideoConferenceModule -->
<g id="edge11" class="edge">
<title>BBBService&#45;&gt;VideoConferenceModule</title>
<path fill="none" stroke="black" d="M1976,-122.09C1976,-145.13 1976,-182 1976,-182 1976,-182 858.19,-182 858.19,-182"/>
<polygon fill="black" stroke="black" points="858.19,-178.5 848.19,-182 858.19,-185.5 858.19,-178.5"/>
</g>
<!-- TeamsRepo -->
<g id="node12" class="node">
<title>TeamsRepo</title>
<ellipse fill="#fdb462" stroke="black" cx="1842" cy="-104" rx="57.32" ry="18"/>
<text text-anchor="middle" x="1842" y="-99.8" font-family="Times,serif" font-size="14.00">TeamsRepo</text>
</g>
<!-- TeamsRepo&#45;&gt;VideoConferenceModule -->
<g id="edge12" class="edge">
<title>TeamsRepo&#45;&gt;VideoConferenceModule</title>
<path fill="none" stroke="black" d="M1842,-122.04C1842,-143.66 1842,-177 1842,-177 1842,-177 858.34,-177 858.34,-177"/>
<polygon fill="black" stroke="black" points="858.34,-173.5 848.34,-177 858.34,-180.5 858.34,-173.5"/>
</g>
<!-- VideoConferenceDeprecatedUc -->
<g id="node13" class="node">
<title>VideoConferenceDeprecatedUc</title>
<ellipse fill="#fdb462" stroke="black" cx="1632" cy="-104" rx="134.21" ry="18"/>
<text text-anchor="middle" x="1632" y="-99.8" font-family="Times,serif" font-size="14.00">VideoConferenceDeprecatedUc</text>
</g>
<!-- VideoConferenceDeprecatedUc&#45;&gt;VideoConferenceModule -->
<g id="edge13" class="edge">
<title>VideoConferenceDeprecatedUc&#45;&gt;VideoConferenceModule</title>
<path fill="none" stroke="black" d="M1632,-122.22C1632,-142.37 1632,-172 1632,-172 1632,-172 858.26,-172 858.26,-172"/>
<polygon fill="black" stroke="black" points="858.26,-168.5 848.26,-172 858.26,-175.5 858.26,-168.5"/>
</g>
<!-- VideoConferenceRepo -->
<g id="node14" class="node">
<title>VideoConferenceRepo</title>
<ellipse fill="#fdb462" stroke="black" cx="1380" cy="-104" rx="99.54" ry="18"/>
<text text-anchor="middle" x="1380" y="-99.8" font-family="Times,serif" font-size="14.00">VideoConferenceRepo</text>
</g>
<!-- VideoConferenceRepo&#45;&gt;VideoConferenceModule -->
<g id="edge14" class="edge">
<title>VideoConferenceRepo&#45;&gt;VideoConferenceModule</title>
<path fill="none" stroke="black" d="M1380,-122.22C1380,-140.83 1380,-167 1380,-167 1380,-167 858.25,-167 858.25,-167"/>
<polygon fill="black" stroke="black" points="858.25,-163.5 848.25,-167 858.25,-170.5 858.25,-163.5"/>
</g>
<!-- VideoConferenceService -->
<g id="node15" class="node">
<title>VideoConferenceService</title>
<ellipse fill="#fdb462" stroke="black" cx="1154" cy="-104" rx="108.19" ry="18"/>
<text text-anchor="middle" x="1154" y="-99.8" font-family="Times,serif" font-size="14.00">VideoConferenceService</text>
</g>
<!-- VideoConferenceService&#45;&gt;VideoConferenceModule -->
<g id="edge15" class="edge">
<title>VideoConferenceService&#45;&gt;VideoConferenceModule</title>
<path fill="none" stroke="black" d="M1154,-122.03C1154,-139.06 1154,-162 1154,-162 1154,-162 858.31,-162 858.31,-162"/>
<polygon fill="black" stroke="black" points="858.31,-158.5 848.31,-162 858.31,-165.5 858.31,-158.5"/>
</g>
</g>
</svg>
