<?xml version="1.0" encoding="UTF-8" standalone="no"?>
<!DOCTYPE svg PUBLIC "-//W3C//DTD SVG 1.1//EN"
 "http://www.w3.org/Graphics/SVG/1.1/DTD/svg11.dtd">
<!-- Generated by graphviz version 2.47.0 (20210316.0004)
 -->
<!-- Title: dependencies Pages: 1 -->
<svg width="1308pt" height="211pt"
 viewBox="0.00 0.00 1308.00 211.00" xmlns="http://www.w3.org/2000/svg" xmlns:xlink="http://www.w3.org/1999/xlink">
<g id="graph0" class="graph" transform="scale(1 1) rotate(0) translate(4 207)">
<title>dependencies</title>
<polygon fill="white" stroke="transparent" points="-4,4 -4,-207 1304,-207 1304,4 -4,4"/>
<text text-anchor="start" x="629.01" y="-42.4" font-family="Times-12" font-weight="bold" font-size="14.00">Legend</text>
<polygon fill="#ffffb3" stroke="transparent" points="416,-10 416,-30 436,-30 436,-10 416,-10"/>
<text text-anchor="start" x="439.63" y="-15.4" font-family="Times-12" font-size="14.00"> &#160;Declarations</text>
<polygon fill="#8dd3c7" stroke="transparent" points="529,-10 529,-30 549,-30 549,-10 529,-10"/>
<text text-anchor="start" x="552.73" y="-15.4" font-family="Times-12" font-size="14.00"> &#160;Module</text>
<polygon fill="#80b1d3" stroke="transparent" points="615,-10 615,-30 635,-30 635,-10 615,-10"/>
<text text-anchor="start" x="638.78" y="-15.4" font-family="Times-12" font-size="14.00"> &#160;Bootstrap</text>
<polygon fill="#fdb462" stroke="transparent" points="712,-10 712,-30 732,-30 732,-10 712,-10"/>
<text text-anchor="start" x="735.67" y="-15.4" font-family="Times-12" font-size="14.00"> &#160;Providers</text>
<polygon fill="#fb8072" stroke="transparent" points="808,-10 808,-30 828,-30 828,-10 808,-10"/>
<text text-anchor="start" x="831.73" y="-15.4" font-family="Times-12" font-size="14.00"> &#160;Exports</text>
<g id="clust1" class="cluster">
<title>cluster_BoardCollaborationTestingModule</title>
<polygon fill="none" stroke="black" stroke-dasharray="1,5" points="8,-70 8,-195 1292,-195 1292,-70 8,-70"/>
</g>
<g id="clust3" class="cluster">
<title>cluster_BoardCollaborationTestingModule_imports</title>
<polygon fill="none" stroke="black" points="16,-78 16,-130 1284,-130 1284,-78 16,-78"/>
</g>
<!-- AuthenticationApiModule -->
<g id="node1" class="node">
<title>AuthenticationApiModule</title>
<polygon fill="#8dd3c7" stroke="black" points="1275.75,-122 1272.75,-126 1251.75,-126 1248.75,-122 1112.25,-122 1112.25,-86 1275.75,-86 1275.75,-122"/>
<text text-anchor="middle" x="1194" y="-99.8" font-family="Times,serif" font-size="14.00">AuthenticationApiModule</text>
</g>
<!-- BoardCollaborationTestingModule -->
<g id="node9" class="node">
<title>BoardCollaborationTestingModule</title>
<polygon fill="#8dd3c7" stroke="black" points="771.24,-187 768.24,-191 747.24,-191 744.24,-187 558.76,-187 558.76,-151 771.24,-151 771.24,-187"/>
<text text-anchor="middle" x="665" y="-164.8" font-family="Times,serif" font-size="14.00">BoardCollaborationTestingModule</text>
</g>
<!-- AuthenticationApiModule&#45;&gt;BoardCollaborationTestingModule -->
<g id="edge1" class="edge">
<title>AuthenticationApiModule&#45;&gt;BoardCollaborationTestingModule</title>
<path fill="none" stroke="black" d="M1194,-122.29C1194,-144.21 1194,-178 1194,-178 1194,-178 781.41,-178 781.41,-178"/>
<polygon fill="black" stroke="black" points="781.41,-174.5 771.41,-178 781.41,-181.5 781.41,-174.5"/>
</g>
<!-- AuthenticationModule -->
<g id="node2" class="node">
<title>AuthenticationModule</title>
<polygon fill="#8dd3c7" stroke="black" points="1094.25,-122 1091.25,-126 1070.25,-126 1067.25,-122 951.75,-122 951.75,-86 1094.25,-86 1094.25,-122"/>
<text text-anchor="middle" x="1023" y="-99.8" font-family="Times,serif" font-size="14.00">AuthenticationModule</text>
</g>
<!-- AuthenticationModule&#45;&gt;BoardCollaborationTestingModule -->
<g id="edge2" class="edge">
<title>AuthenticationModule&#45;&gt;BoardCollaborationTestingModule</title>
<path fill="none" stroke="black" d="M1023,-122.11C1023,-141.34 1023,-169 1023,-169 1023,-169 781.44,-169 781.44,-169"/>
<polygon fill="black" stroke="black" points="781.44,-165.5 771.44,-169 781.44,-172.5 781.44,-165.5"/>
</g>
<!-- AuthorizationModule -->
<g id="node3" class="node">
<title>AuthorizationModule</title>
<polygon fill="#8dd3c7" stroke="black" points="933.81,-122 930.81,-126 909.81,-126 906.81,-122 796.19,-122 796.19,-86 933.81,-86 933.81,-122"/>
<text text-anchor="middle" x="865" y="-99.8" font-family="Times,serif" font-size="14.00">AuthorizationModule</text>
</g>
<!-- AuthorizationModule&#45;&gt;BoardCollaborationTestingModule -->
<g id="edge3" class="edge">
<title>AuthorizationModule&#45;&gt;BoardCollaborationTestingModule</title>
<path fill="none" stroke="black" d="M865,-122.03C865,-138.4 865,-160 865,-160 865,-160 781.44,-160 781.44,-160"/>
<polygon fill="black" stroke="black" points="781.44,-156.5 771.44,-160 781.44,-163.5 781.44,-156.5"/>
</g>
<!-- BoardModule -->
<g id="node4" class="node">
<title>BoardModule</title>
<polygon fill="#8dd3c7" stroke="black" points="777.76,-122 774.76,-126 753.76,-126 750.76,-122 684.24,-122 684.24,-86 777.76,-86 777.76,-122"/>
<text text-anchor="middle" x="731" y="-99.8" font-family="Times,serif" font-size="14.00">BoardModule</text>
</g>
<!-- BoardModule&#45;&gt;BoardCollaborationTestingModule -->
<g id="edge4" class="edge">
<title>BoardModule&#45;&gt;BoardCollaborationTestingModule</title>
<path fill="none" stroke="black" d="M727.75,-122.11C727.75,-122.11 727.75,-140.99 727.75,-140.99"/>
<polygon fill="black" stroke="black" points="724.25,-140.99 727.75,-150.99 731.25,-140.99 724.25,-140.99"/>
</g>
<!-- BoardWsApiModule -->
<g id="node5" class="node">
<title>BoardWsApiModule</title>
<polygon fill="#8dd3c7" stroke="black" points="665.92,-122 662.92,-126 641.92,-126 638.92,-122 532.08,-122 532.08,-86 665.92,-86 665.92,-122"/>
<text text-anchor="middle" x="599" y="-99.8" font-family="Times,serif" font-size="14.00">BoardWsApiModule</text>
</g>
<!-- BoardWsApiModule&#45;&gt;BoardCollaborationTestingModule -->
<g id="edge5" class="edge">
<title>BoardWsApiModule&#45;&gt;BoardCollaborationTestingModule</title>
<path fill="none" stroke="black" d="M612.17,-122.11C612.17,-122.11 612.17,-140.99 612.17,-140.99"/>
<polygon fill="black" stroke="black" points="608.67,-140.99 612.17,-150.99 615.67,-140.99 608.67,-140.99"/>
</g>
<!-- CoreModule -->
<g id="node6" class="node">
<title>CoreModule</title>
<polygon fill="#8dd3c7" stroke="black" points="514.26,-122 511.26,-126 490.26,-126 487.26,-122 427.74,-122 427.74,-86 514.26,-86 514.26,-122"/>
<text text-anchor="middle" x="471" y="-99.8" font-family="Times,serif" font-size="14.00">CoreModule</text>
</g>
<!-- CoreModule&#45;&gt;BoardCollaborationTestingModule -->
<g id="edge6" class="edge">
<title>CoreModule&#45;&gt;BoardCollaborationTestingModule</title>
<path fill="none" stroke="black" d="M471,-122.03C471,-138.4 471,-160 471,-160 471,-160 548.64,-160 548.64,-160"/>
<polygon fill="black" stroke="black" points="548.64,-163.5 558.64,-160 548.64,-156.5 548.64,-163.5"/>
</g>
<!-- MongoMemoryDatabaseModule -->
<g id="node7" class="node">
<title>MongoMemoryDatabaseModule</title>
<polygon fill="#8dd3c7" stroke="black" points="409.51,-122 406.51,-126 385.51,-126 382.51,-122 210.49,-122 210.49,-86 409.51,-86 409.51,-122"/>
<text text-anchor="middle" x="310" y="-99.8" font-family="Times,serif" font-size="14.00">MongoMemoryDatabaseModule</text>
</g>
<!-- MongoMemoryDatabaseModule&#45;&gt;BoardCollaborationTestingModule -->
<g id="edge7" class="edge">
<title>MongoMemoryDatabaseModule&#45;&gt;BoardCollaborationTestingModule</title>
<path fill="none" stroke="black" d="M310,-122.11C310,-141.34 310,-169 310,-169 310,-169 548.49,-169 548.49,-169"/>
<polygon fill="black" stroke="black" points="548.49,-172.5 558.49,-169 548.49,-165.5 548.49,-172.5"/>
</g>
<!-- RabbitMQWrapperModule -->
<g id="node8" class="node">
<title>RabbitMQWrapperModule</title>
<polygon fill="#8dd3c7" stroke="black" points="192.4,-122 189.4,-126 168.4,-126 165.4,-122 23.6,-122 23.6,-86 192.4,-86 192.4,-122"/>
<text text-anchor="middle" x="108" y="-99.8" font-family="Times,serif" font-size="14.00">RabbitMQWrapperModule</text>
</g>
<!-- RabbitMQWrapperModule&#45;&gt;BoardCollaborationTestingModule -->
<g id="edge8" class="edge">
<title>RabbitMQWrapperModule&#45;&gt;BoardCollaborationTestingModule</title>
<path fill="none" stroke="black" d="M108,-122.29C108,-144.21 108,-178 108,-178 108,-178 548.59,-178 548.59,-178"/>
<polygon fill="black" stroke="black" points="548.59,-181.5 558.59,-178 548.59,-174.5 548.59,-181.5"/>
</g>
</g>
</svg>
