<?xml version="1.0" encoding="UTF-8" standalone="no"?>
<!DOCTYPE svg PUBLIC "-//W3C//DTD SVG 1.1//EN"
 "http://www.w3.org/Graphics/SVG/1.1/DTD/svg11.dtd">
<!-- Generated by graphviz version 2.47.0 (20210316.0004)
 -->
<!-- Title: dependencies Pages: 1 -->
<svg width="1468pt" height="211pt"
 viewBox="0.00 0.00 1468.00 211.00" xmlns="http://www.w3.org/2000/svg" xmlns:xlink="http://www.w3.org/1999/xlink">
<g id="graph0" class="graph" transform="scale(1 1) rotate(0) translate(4 207)">
<title>dependencies</title>
<polygon fill="white" stroke="transparent" points="-4,4 -4,-207 1464,-207 1464,4 -4,4"/>
<text text-anchor="start" x="709.01" y="-42.4" font-family="Times-12" font-weight="bold" font-size="14.00">Legend</text>
<polygon fill="#ffffb3" stroke="transparent" points="496,-10 496,-30 516,-30 516,-10 496,-10"/>
<text text-anchor="start" x="519.63" y="-15.4" font-family="Times-12" font-size="14.00"> &#160;Declarations</text>
<polygon fill="#8dd3c7" stroke="transparent" points="609,-10 609,-30 629,-30 629,-10 609,-10"/>
<text text-anchor="start" x="632.73" y="-15.4" font-family="Times-12" font-size="14.00"> &#160;Module</text>
<polygon fill="#80b1d3" stroke="transparent" points="695,-10 695,-30 715,-30 715,-10 695,-10"/>
<text text-anchor="start" x="718.78" y="-15.4" font-family="Times-12" font-size="14.00"> &#160;Bootstrap</text>
<polygon fill="#fdb462" stroke="transparent" points="792,-10 792,-30 812,-30 812,-10 792,-10"/>
<text text-anchor="start" x="815.67" y="-15.4" font-family="Times-12" font-size="14.00"> &#160;Providers</text>
<polygon fill="#fb8072" stroke="transparent" points="888,-10 888,-30 908,-30 908,-10 888,-10"/>
<text text-anchor="start" x="911.73" y="-15.4" font-family="Times-12" font-size="14.00"> &#160;Exports</text>
<g id="clust1" class="cluster">
<title>cluster_BoardCollaborationTestingModule</title>
<polygon fill="none" stroke="black" stroke-dasharray="1,5" points="8,-70 8,-195 1452,-195 1452,-70 8,-70"/>
</g>
<g id="clust3" class="cluster">
<title>cluster_BoardCollaborationTestingModule_imports</title>
<polygon fill="none" stroke="black" points="16,-78 16,-130 1444,-130 1444,-78 16,-78"/>
</g>
<!-- AuthenticationApiModule -->
<g id="node1" class="node">
<title>AuthenticationApiModule</title>
<polygon fill="#8dd3c7" stroke="black" points="1435.75,-122 1432.75,-126 1411.75,-126 1408.75,-122 1272.25,-122 1272.25,-86 1435.75,-86 1435.75,-122"/>
<text text-anchor="middle" x="1354" y="-99.8" font-family="Times,serif" font-size="14.00">AuthenticationApiModule</text>
</g>
<!-- BoardCollaborationTestingModule -->
<g id="node10" class="node">
<title>BoardCollaborationTestingModule</title>
<polygon fill="#8dd3c7" stroke="black" points="865.24,-187 862.24,-191 841.24,-191 838.24,-187 652.76,-187 652.76,-151 865.24,-151 865.24,-187"/>
<text text-anchor="middle" x="759" y="-164.8" font-family="Times,serif" font-size="14.00">BoardCollaborationTestingModule</text>
</g>
<!-- AuthenticationApiModule&#45;&gt;BoardCollaborationTestingModule -->
<g id="edge1" class="edge">
<title>AuthenticationApiModule&#45;&gt;BoardCollaborationTestingModule</title>
<path fill="none" stroke="black" d="M1354,-122.29C1354,-144.21 1354,-178 1354,-178 1354,-178 875.37,-178 875.37,-178"/>
<polygon fill="black" stroke="black" points="875.37,-174.5 865.37,-178 875.37,-181.5 875.37,-174.5"/>
</g>
<!-- AuthenticationModule -->
<g id="node2" class="node">
<title>AuthenticationModule</title>
<polygon fill="#8dd3c7" stroke="black" points="1254.25,-122 1251.25,-126 1230.25,-126 1227.25,-122 1111.75,-122 1111.75,-86 1254.25,-86 1254.25,-122"/>
<text text-anchor="middle" x="1183" y="-99.8" font-family="Times,serif" font-size="14.00">AuthenticationModule</text>
</g>
<!-- AuthenticationModule&#45;&gt;BoardCollaborationTestingModule -->
<g id="edge2" class="edge">
<title>AuthenticationModule&#45;&gt;BoardCollaborationTestingModule</title>
<path fill="none" stroke="black" d="M1183,-122.11C1183,-141.34 1183,-169 1183,-169 1183,-169 875.45,-169 875.45,-169"/>
<polygon fill="black" stroke="black" points="875.45,-165.5 865.45,-169 875.45,-172.5 875.45,-165.5"/>
</g>
<!-- AuthorizationModule -->
<g id="node3" class="node">
<title>AuthorizationModule</title>
<polygon fill="#8dd3c7" stroke="black" points="1093.81,-122 1090.81,-126 1069.81,-126 1066.81,-122 956.19,-122 956.19,-86 1093.81,-86 1093.81,-122"/>
<text text-anchor="middle" x="1025" y="-99.8" font-family="Times,serif" font-size="14.00">AuthorizationModule</text>
</g>
<!-- AuthorizationModule&#45;&gt;BoardCollaborationTestingModule -->
<g id="edge3" class="edge">
<title>AuthorizationModule&#45;&gt;BoardCollaborationTestingModule</title>
<path fill="none" stroke="black" d="M1025,-122.03C1025,-138.4 1025,-160 1025,-160 1025,-160 875.28,-160 875.28,-160"/>
<polygon fill="black" stroke="black" points="875.28,-156.5 865.28,-160 875.28,-163.5 875.28,-156.5"/>
</g>
<!-- BoardModule -->
<g id="node4" class="node">
<title>BoardModule</title>
<polygon fill="#8dd3c7" stroke="black" points="937.76,-122 934.76,-126 913.76,-126 910.76,-122 844.24,-122 844.24,-86 937.76,-86 937.76,-122"/>
<text text-anchor="middle" x="891" y="-99.8" font-family="Times,serif" font-size="14.00">BoardModule</text>
</g>
<!-- BoardModule&#45;&gt;BoardCollaborationTestingModule -->
<g id="edge4" class="edge">
<title>BoardModule&#45;&gt;BoardCollaborationTestingModule</title>
<path fill="none" stroke="black" d="M854.75,-122.11C854.75,-122.11 854.75,-140.99 854.75,-140.99"/>
<polygon fill="black" stroke="black" points="851.25,-140.99 854.75,-150.99 858.25,-140.99 851.25,-140.99"/>
</g>
<!-- BoardWsApiModule -->
<g id="node5" class="node">
<title>BoardWsApiModule</title>
<polygon fill="#8dd3c7" stroke="black" points="825.92,-122 822.92,-126 801.92,-126 798.92,-122 692.08,-122 692.08,-86 825.92,-86 825.92,-122"/>
<text text-anchor="middle" x="759" y="-99.8" font-family="Times,serif" font-size="14.00">BoardWsApiModule</text>
</g>
<!-- BoardWsApiModule&#45;&gt;BoardCollaborationTestingModule -->
<g id="edge5" class="edge">
<title>BoardWsApiModule&#45;&gt;BoardCollaborationTestingModule</title>
<path fill="none" stroke="black" d="M759,-122.11C759,-122.11 759,-140.99 759,-140.99"/>
<polygon fill="black" stroke="black" points="755.5,-140.99 759,-150.99 762.5,-140.99 755.5,-140.99"/>
</g>
<!-- ConsoleWriterModule -->
<g id="node6" class="node">
<title>ConsoleWriterModule</title>
<polygon fill="#8dd3c7" stroke="black" points="673.97,-122 670.97,-126 649.97,-126 646.97,-122 532.03,-122 532.03,-86 673.97,-86 673.97,-122"/>
<text text-anchor="middle" x="603" y="-99.8" font-family="Times,serif" font-size="14.00">ConsoleWriterModule</text>
</g>
<!-- ConsoleWriterModule&#45;&gt;BoardCollaborationTestingModule -->
<g id="edge6" class="edge">
<title>ConsoleWriterModule&#45;&gt;BoardCollaborationTestingModule</title>
<path fill="none" stroke="black" d="M663.31,-122.11C663.31,-122.11 663.31,-140.99 663.31,-140.99"/>
<polygon fill="black" stroke="black" points="659.81,-140.99 663.31,-150.99 666.81,-140.99 659.81,-140.99"/>
</g>
<!-- CoreModule -->
<g id="node7" class="node">
<title>CoreModule</title>
<polygon fill="#8dd3c7" stroke="black" points="514.26,-122 511.26,-126 490.26,-126 487.26,-122 427.74,-122 427.74,-86 514.26,-86 514.26,-122"/>
<text text-anchor="middle" x="471" y="-99.8" font-family="Times,serif" font-size="14.00">CoreModule</text>
</g>
<!-- CoreModule&#45;&gt;BoardCollaborationTestingModule -->
<g id="edge7" class="edge">
<title>CoreModule&#45;&gt;BoardCollaborationTestingModule</title>
<path fill="none" stroke="black" d="M471,-122.03C471,-138.4 471,-160 471,-160 471,-160 642.58,-160 642.58,-160"/>
<polygon fill="black" stroke="black" points="642.58,-163.5 652.58,-160 642.58,-156.5 642.58,-163.5"/>
</g>
<!-- MongoMemoryDatabaseModule -->
<g id="node8" class="node">
<title>MongoMemoryDatabaseModule</title>
<polygon fill="#8dd3c7" stroke="black" points="409.51,-122 406.51,-126 385.51,-126 382.51,-122 210.49,-122 210.49,-86 409.51,-86 409.51,-122"/>
<text text-anchor="middle" x="310" y="-99.8" font-family="Times,serif" font-size="14.00">MongoMemoryDatabaseModule</text>
</g>
<!-- MongoMemoryDatabaseModule&#45;&gt;BoardCollaborationTestingModule -->
<g id="edge8" class="edge">
<title>MongoMemoryDatabaseModule&#45;&gt;BoardCollaborationTestingModule</title>
<path fill="none" stroke="black" d="M310,-122.11C310,-141.34 310,-169 310,-169 310,-169 642.59,-169 642.59,-169"/>
<polygon fill="black" stroke="black" points="642.59,-172.5 652.59,-169 642.59,-165.5 642.59,-172.5"/>
</g>
<!-- RabbitMQWrapperModule -->
<g id="node9" class="node">
<title>RabbitMQWrapperModule</title>
<polygon fill="#8dd3c7" stroke="black" points="192.4,-122 189.4,-126 168.4,-126 165.4,-122 23.6,-122 23.6,-86 192.4,-86 192.4,-122"/>
<text text-anchor="middle" x="108" y="-99.8" font-family="Times,serif" font-size="14.00">RabbitMQWrapperModule</text>
</g>
<!-- RabbitMQWrapperModule&#45;&gt;BoardCollaborationTestingModule -->
<g id="edge9" class="edge">
<title>RabbitMQWrapperModule&#45;&gt;BoardCollaborationTestingModule</title>
<path fill="none" stroke="black" d="M108,-122.29C108,-144.21 108,-178 108,-178 108,-178 642.59,-178 642.59,-178"/>
<polygon fill="black" stroke="black" points="642.59,-181.5 652.59,-178 642.59,-174.5 642.59,-181.5"/>
</g>
</g>
</svg>
