<?xml version="1.0" encoding="UTF-8" standalone="no"?>
<!DOCTYPE svg PUBLIC "-//W3C//DTD SVG 1.1//EN"
 "http://www.w3.org/Graphics/SVG/1.1/DTD/svg11.dtd">
<!-- Generated by graphviz version 2.47.0 (20210316.0004)
 -->
<!-- Title: dependencies Pages: 1 -->
<svg width="2724pt" height="211pt"
 viewBox="0.00 0.00 2724.00 211.00" xmlns="http://www.w3.org/2000/svg" xmlns:xlink="http://www.w3.org/1999/xlink">
<g id="graph0" class="graph" transform="scale(1 1) rotate(0) translate(4 207)">
<title>dependencies</title>
<polygon fill="white" stroke="transparent" points="-4,4 -4,-207 2720,-207 2720,4 -4,4"/>
<text text-anchor="start" x="1337.01" y="-42.4" font-family="Times-12" font-weight="bold" font-size="14.00">Legend</text>
<polygon fill="#ffffb3" stroke="transparent" points="1124,-10 1124,-30 1144,-30 1144,-10 1124,-10"/>
<text text-anchor="start" x="1147.63" y="-15.4" font-family="Times-12" font-size="14.00"> &#160;Declarations</text>
<polygon fill="#8dd3c7" stroke="transparent" points="1237,-10 1237,-30 1257,-30 1257,-10 1237,-10"/>
<text text-anchor="start" x="1260.73" y="-15.4" font-family="Times-12" font-size="14.00"> &#160;Module</text>
<polygon fill="#80b1d3" stroke="transparent" points="1323,-10 1323,-30 1343,-30 1343,-10 1323,-10"/>
<text text-anchor="start" x="1346.78" y="-15.4" font-family="Times-12" font-size="14.00"> &#160;Bootstrap</text>
<polygon fill="#fdb462" stroke="transparent" points="1420,-10 1420,-30 1440,-30 1440,-10 1420,-10"/>
<text text-anchor="start" x="1443.67" y="-15.4" font-family="Times-12" font-size="14.00"> &#160;Providers</text>
<polygon fill="#fb8072" stroke="transparent" points="1516,-10 1516,-30 1536,-30 1536,-10 1516,-10"/>
<text text-anchor="start" x="1539.73" y="-15.4" font-family="Times-12" font-size="14.00"> &#160;Exports</text>
<g id="clust1" class="cluster">
<title>cluster_ImportUserModule</title>
<polygon fill="none" stroke="black" stroke-dasharray="1,5" points="8,-70 8,-195 2708,-195 2708,-70 8,-70"/>
</g>
<g id="clust3" class="cluster">
<title>cluster_ImportUserModule_imports</title>
<polygon fill="none" stroke="black" points="1566,-78 1566,-130 2700,-130 2700,-78 1566,-78"/>
</g>
<g id="clust6" class="cluster">
<title>cluster_ImportUserModule_providers</title>
<polygon fill="none" stroke="black" points="16,-78 16,-130 1558,-130 1558,-78 16,-78"/>
</g>
<!-- AccountModule -->
<g id="node1" class="node">
<title>AccountModule</title>
<polygon fill="#8dd3c7" stroke="black" points="2692.48,-122 2689.48,-126 2668.48,-126 2665.48,-122 2585.52,-122 2585.52,-86 2692.48,-86 2692.48,-122"/>
<text text-anchor="middle" x="2639" y="-99.8" font-family="Times,serif" font-size="14.00">AccountModule</text>
</g>
<!-- ImportUserModule -->
<g id="node9" class="node">
<title>ImportUserModule</title>
<polygon fill="#8dd3c7" stroke="black" points="1607.08,-187 1604.08,-191 1583.08,-191 1580.08,-187 1482.92,-187 1482.92,-151 1607.08,-151 1607.08,-187"/>
<text text-anchor="middle" x="1545" y="-164.8" font-family="Times,serif" font-size="14.00">ImportUserModule</text>
</g>
<!-- AccountModule&#45;&gt;ImportUserModule -->
<g id="edge1" class="edge">
<title>AccountModule&#45;&gt;ImportUserModule</title>
<path fill="none" stroke="black" d="M2639,-122.32C2639,-145.66 2639,-183 2639,-183 2639,-183 1617.35,-183 1617.35,-183"/>
<polygon fill="black" stroke="black" points="1617.35,-179.5 1607.35,-183 1617.35,-186.5 1617.35,-179.5"/>
</g>
<!-- AuthorizationModule -->
<g id="node2" class="node">
<title>AuthorizationModule</title>
<polygon fill="#8dd3c7" stroke="black" points="2567.81,-122 2564.81,-126 2543.81,-126 2540.81,-122 2430.19,-122 2430.19,-86 2567.81,-86 2567.81,-122"/>
<text text-anchor="middle" x="2499" y="-99.8" font-family="Times,serif" font-size="14.00">AuthorizationModule</text>
</g>
<!-- AuthorizationModule&#45;&gt;ImportUserModule -->
<g id="edge2" class="edge">
<title>AuthorizationModule&#45;&gt;ImportUserModule</title>
<path fill="none" stroke="black" d="M2499,-122.29C2499,-144.21 2499,-178 2499,-178 2499,-178 1617.23,-178 1617.23,-178"/>
<polygon fill="black" stroke="black" points="1617.23,-174.5 1607.23,-178 1617.23,-181.5 1617.23,-174.5"/>
</g>
<!-- LegacySchoolModule -->
<g id="node3" class="node">
<title>LegacySchoolModule</title>
<polygon fill="#8dd3c7" stroke="black" points="2412.63,-122 2409.63,-126 2388.63,-126 2385.63,-122 2273.37,-122 2273.37,-86 2412.63,-86 2412.63,-122"/>
<text text-anchor="middle" x="2343" y="-99.8" font-family="Times,serif" font-size="14.00">LegacySchoolModule</text>
</g>
<!-- LegacySchoolModule&#45;&gt;ImportUserModule -->
<g id="edge3" class="edge">
<title>LegacySchoolModule&#45;&gt;ImportUserModule</title>
<path fill="none" stroke="black" d="M2343,-122.03C2343,-142.77 2343,-174 2343,-174 2343,-174 1617.29,-174 1617.29,-174"/>
<polygon fill="black" stroke="black" points="1617.29,-170.5 1607.29,-174 1617.29,-177.5 1617.29,-170.5"/>
</g>
<!-- LoggerModule -->
<g id="node4" class="node">
<title>LoggerModule</title>
<polygon fill="#8dd3c7" stroke="black" points="2254.98,-122 2251.98,-126 2230.98,-126 2227.98,-122 2155.02,-122 2155.02,-86 2254.98,-86 2254.98,-122"/>
<text text-anchor="middle" x="2205" y="-99.8" font-family="Times,serif" font-size="14.00">LoggerModule</text>
</g>
<!-- LoggerModule&#45;&gt;ImportUserModule -->
<g id="edge4" class="edge">
<title>LoggerModule&#45;&gt;ImportUserModule</title>
<path fill="none" stroke="black" d="M2205,-122.11C2205,-141.34 2205,-169 2205,-169 2205,-169 1617.09,-169 1617.09,-169"/>
<polygon fill="black" stroke="black" points="1617.09,-165.5 1607.09,-169 1617.09,-172.5 1617.09,-165.5"/>
</g>
<!-- OauthModule -->
<g id="node5" class="node">
<title>OauthModule</title>
<polygon fill="#8dd3c7" stroke="black" points="2136.76,-122 2133.76,-126 2112.76,-126 2109.76,-122 2043.24,-122 2043.24,-86 2136.76,-86 2136.76,-122"/>
<text text-anchor="middle" x="2090" y="-99.8" font-family="Times,serif" font-size="14.00">OauthModule</text>
</g>
<!-- OauthModule&#45;&gt;ImportUserModule -->
<g id="edge5" class="edge">
<title>OauthModule&#45;&gt;ImportUserModule</title>
<path fill="none" stroke="black" d="M2090,-122.3C2090,-140.27 2090,-165 2090,-165 2090,-165 1617.25,-165 1617.25,-165"/>
<polygon fill="black" stroke="black" points="1617.25,-161.5 1607.25,-165 1617.25,-168.5 1617.25,-161.5"/>
</g>
<!-- SchulconnexClientModule -->
<g id="node6" class="node">
<title>SchulconnexClientModule</title>
<polygon fill="#8dd3c7" stroke="black" points="2025.09,-122 2022.09,-126 2001.09,-126 1998.09,-122 1858.91,-122 1858.91,-86 2025.09,-86 2025.09,-122"/>
<text text-anchor="middle" x="1942" y="-99.8" font-family="Times,serif" font-size="14.00">SchulconnexClientModule</text>
</g>
<!-- SchulconnexClientModule&#45;&gt;ImportUserModule -->
<g id="edge6" class="edge">
<title>SchulconnexClientModule&#45;&gt;ImportUserModule</title>
<path fill="none" stroke="black" d="M1942,-122.03C1942,-138.4 1942,-160 1942,-160 1942,-160 1617.47,-160 1617.47,-160"/>
<polygon fill="black" stroke="black" points="1617.47,-156.5 1607.47,-160 1617.47,-163.5 1617.47,-156.5"/>
</g>
<!-- UserImportConfigModule -->
<g id="node7" class="node">
<title>UserImportConfigModule</title>
<polygon fill="#8dd3c7" stroke="black" points="1840.47,-122 1837.47,-126 1816.47,-126 1813.47,-122 1677.53,-122 1677.53,-86 1840.47,-86 1840.47,-122"/>
<text text-anchor="middle" x="1759" y="-99.8" font-family="Times,serif" font-size="14.00">UserImportConfigModule</text>
</g>
<!-- UserImportConfigModule&#45;&gt;ImportUserModule -->
<g id="edge7" class="edge">
<title>UserImportConfigModule&#45;&gt;ImportUserModule</title>
<path fill="none" stroke="black" d="M1759,-122.19C1759,-137.18 1759,-156 1759,-156 1759,-156 1617.19,-156 1617.19,-156"/>
<polygon fill="black" stroke="black" points="1617.19,-152.5 1607.19,-156 1617.19,-159.5 1617.19,-152.5"/>
</g>
<!-- UserModule -->
<g id="node8" class="node">
<title>UserModule</title>
<polygon fill="#8dd3c7" stroke="black" points="1659.98,-122 1656.98,-126 1635.98,-126 1632.98,-122 1574.02,-122 1574.02,-86 1659.98,-86 1659.98,-122"/>
<text text-anchor="middle" x="1617" y="-99.8" font-family="Times,serif" font-size="14.00">UserModule</text>
</g>
<!-- UserModule&#45;&gt;ImportUserModule -->
<g id="edge8" class="edge">
<title>UserModule&#45;&gt;ImportUserModule</title>
<path fill="none" stroke="black" d="M1590.53,-122.11C1590.53,-122.11 1590.53,-140.99 1590.53,-140.99"/>
<polygon fill="black" stroke="black" points="1587.03,-140.99 1590.53,-150.99 1594.03,-140.99 1587.03,-140.99"/>
</g>
<!-- ImportUserRepo -->
<g id="node10" class="node">
<title>ImportUserRepo</title>
<ellipse fill="#fdb462" stroke="black" cx="1474" cy="-104" rx="75.86" ry="18"/>
<text text-anchor="middle" x="1474" y="-99.8" font-family="Times,serif" font-size="14.00">ImportUserRepo</text>
</g>
<!-- ImportUserRepo&#45;&gt;ImportUserModule -->
<g id="edge9" class="edge">
<title>ImportUserRepo&#45;&gt;ImportUserModule</title>
<path fill="none" stroke="black" d="M1516.45,-119.08C1516.45,-119.08 1516.45,-140.76 1516.45,-140.76"/>
<polygon fill="black" stroke="black" points="1512.95,-140.76 1516.45,-150.76 1519.95,-140.76 1512.95,-140.76"/>
</g>
<!-- LegacySchoolRepo -->
<g id="node11" class="node">
<title>LegacySchoolRepo</title>
<ellipse fill="#fdb462" stroke="black" cx="1293" cy="-104" rx="86.82" ry="18"/>
<text text-anchor="middle" x="1293" y="-99.8" font-family="Times,serif" font-size="14.00">LegacySchoolRepo</text>
</g>
<!-- LegacySchoolRepo&#45;&gt;ImportUserModule -->
<g id="edge10" class="edge">
<title>LegacySchoolRepo&#45;&gt;ImportUserModule</title>
<path fill="none" stroke="black" d="M1293,-122.19C1293,-137.18 1293,-156 1293,-156 1293,-156 1472.71,-156 1472.71,-156"/>
<polygon fill="black" stroke="black" points="1472.71,-159.5 1482.71,-156 1472.71,-152.5 1472.71,-159.5"/>
</g>
<!-- LegacySystemRepo -->
<g id="node12" class="node">
<title>LegacySystemRepo</title>
<ellipse fill="#fdb462" stroke="black" cx="1100" cy="-104" rx="88.04" ry="18"/>
<text text-anchor="middle" x="1100" y="-99.8" font-family="Times,serif" font-size="14.00">LegacySystemRepo</text>
</g>
<!-- LegacySystemRepo&#45;&gt;ImportUserModule -->
<g id="edge11" class="edge">
<title>LegacySystemRepo&#45;&gt;ImportUserModule</title>
<path fill="none" stroke="black" d="M1100,-122.03C1100,-138.4 1100,-160 1100,-160 1100,-160 1472.66,-160 1472.66,-160"/>
<polygon fill="black" stroke="black" points="1472.66,-163.5 1482.66,-160 1472.66,-156.5 1472.66,-163.5"/>
</g>
<!-- SchulconnexFetchImportUsersService -->
<g id="node13" class="node">
<title>SchulconnexFetchImportUsersService</title>
<ellipse fill="#fdb462" stroke="black" cx="834" cy="-104" rx="159.69" ry="18"/>
<text text-anchor="middle" x="834" y="-99.8" font-family="Times,serif" font-size="14.00">SchulconnexFetchImportUsersService</text>
</g>
<!-- SchulconnexFetchImportUsersService&#45;&gt;ImportUserModule -->
<g id="edge12" class="edge">
<title>SchulconnexFetchImportUsersService&#45;&gt;ImportUserModule</title>
<path fill="none" stroke="black" d="M834,-122.3C834,-140.27 834,-165 834,-165 834,-165 1472.84,-165 1472.84,-165"/>
<polygon fill="black" stroke="black" points="1472.84,-168.5 1482.84,-165 1472.84,-161.5 1472.84,-168.5"/>
</g>
<!-- UserImportFetchUc -->
<g id="node14" class="node">
<title>UserImportFetchUc</title>
<ellipse fill="#fdb462" stroke="black" cx="568" cy="-104" rx="88.02" ry="18"/>
<text text-anchor="middle" x="568" y="-99.8" font-family="Times,serif" font-size="14.00">UserImportFetchUc</text>
</g>
<!-- UserImportFetchUc&#45;&gt;ImportUserModule -->
<g id="edge13" class="edge">
<title>UserImportFetchUc&#45;&gt;ImportUserModule</title>
<path fill="none" stroke="black" d="M568,-122.11C568,-141.34 568,-169 568,-169 568,-169 1472.77,-169 1472.77,-169"/>
<polygon fill="black" stroke="black" points="1472.77,-172.5 1482.77,-169 1472.77,-165.5 1472.77,-172.5"/>
</g>
<!-- UserImportService -->
<g id="node15" class="node">
<title>UserImportService</title>
<ellipse fill="#fdb462" stroke="black" cx="377" cy="-104" rx="84.51" ry="18"/>
<text text-anchor="middle" x="377" y="-99.8" font-family="Times,serif" font-size="14.00">UserImportService</text>
</g>
<!-- UserImportService&#45;&gt;ImportUserModule -->
<g id="edge14" class="edge">
<title>UserImportService&#45;&gt;ImportUserModule</title>
<path fill="none" stroke="black" d="M377,-122.03C377,-142.77 377,-174 377,-174 377,-174 1472.62,-174 1472.62,-174"/>
<polygon fill="black" stroke="black" points="1472.62,-177.5 1482.62,-174 1472.62,-170.5 1472.62,-177.5"/>
</g>
<!-- UserImportUc -->
<g id="node16" class="node">
<title>UserImportUc</title>
<ellipse fill="#fdb462" stroke="black" cx="208" cy="-104" rx="66.61" ry="18"/>
<text text-anchor="middle" x="208" y="-99.8" font-family="Times,serif" font-size="14.00">UserImportUc</text>
</g>
<!-- UserImportUc&#45;&gt;ImportUserModule -->
<g id="edge15" class="edge">
<title>UserImportUc&#45;&gt;ImportUserModule</title>
<path fill="none" stroke="black" d="M208,-122.29C208,-144.21 208,-178 208,-178 208,-178 1472.75,-178 1472.75,-178"/>
<polygon fill="black" stroke="black" points="1472.75,-181.5 1482.75,-178 1472.75,-174.5 1472.75,-181.5"/>
</g>
<!-- UserRepo -->
<g id="node17" class="node">
<title>UserRepo</title>
<ellipse fill="#fdb462" stroke="black" cx="74" cy="-104" rx="49.8" ry="18"/>
<text text-anchor="middle" x="74" y="-99.8" font-family="Times,serif" font-size="14.00">UserRepo</text>
</g>
<!-- UserRepo&#45;&gt;ImportUserModule -->
<g id="edge16" class="edge">
<title>UserRepo&#45;&gt;ImportUserModule</title>
<path fill="none" stroke="black" d="M74,-122.32C74,-145.66 74,-183 74,-183 74,-183 1472.73,-183 1472.73,-183"/>
<polygon fill="black" stroke="black" points="1472.73,-186.5 1482.73,-183 1472.73,-179.5 1472.73,-186.5"/>
</g>
</g>
</svg>
