<?xml version="1.0" encoding="UTF-8" standalone="no"?>
<!DOCTYPE svg PUBLIC "-//W3C//DTD SVG 1.1//EN"
 "http://www.w3.org/Graphics/SVG/1.1/DTD/svg11.dtd">
<!-- Generated by graphviz version 2.47.0 (20210316.0004)
 -->
<!-- Title: dependencies Pages: 1 -->
<svg width="1269pt" height="211pt"
 viewBox="0.00 0.00 1269.00 211.00" xmlns="http://www.w3.org/2000/svg" xmlns:xlink="http://www.w3.org/1999/xlink">
<g id="graph0" class="graph" transform="scale(1 1) rotate(0) translate(4 207)">
<title>dependencies</title>
<polygon fill="white" stroke="transparent" points="-4,4 -4,-207 1265,-207 1265,4 -4,4"/>
<text text-anchor="start" x="609.51" y="-42.4" font-family="Times-12" font-weight="bold" font-size="14.00">Legend</text>
<polygon fill="#ffffb3" stroke="transparent" points="396.5,-10 396.5,-30 416.5,-30 416.5,-10 396.5,-10"/>
<text text-anchor="start" x="420.13" y="-15.4" font-family="Times-12" font-size="14.00"> &#160;Declarations</text>
<polygon fill="#8dd3c7" stroke="transparent" points="509.5,-10 509.5,-30 529.5,-30 529.5,-10 509.5,-10"/>
<text text-anchor="start" x="533.23" y="-15.4" font-family="Times-12" font-size="14.00"> &#160;Module</text>
<polygon fill="#80b1d3" stroke="transparent" points="595.5,-10 595.5,-30 615.5,-30 615.5,-10 595.5,-10"/>
<text text-anchor="start" x="619.28" y="-15.4" font-family="Times-12" font-size="14.00"> &#160;Bootstrap</text>
<polygon fill="#fdb462" stroke="transparent" points="692.5,-10 692.5,-30 712.5,-30 712.5,-10 692.5,-10"/>
<text text-anchor="start" x="716.17" y="-15.4" font-family="Times-12" font-size="14.00"> &#160;Providers</text>
<polygon fill="#fb8072" stroke="transparent" points="788.5,-10 788.5,-30 808.5,-30 808.5,-10 788.5,-10"/>
<text text-anchor="start" x="812.23" y="-15.4" font-family="Times-12" font-size="14.00"> &#160;Exports</text>
<g id="clust1" class="cluster">
<title>cluster_ImportUserModule</title>
<polygon fill="none" stroke="black" stroke-dasharray="1,5" points="8,-70 8,-195 1253,-195 1253,-70 8,-70"/>
</g>
<g id="clust3" class="cluster">
<title>cluster_ImportUserModule_imports</title>
<polygon fill="none" stroke="black" points="733,-78 733,-130 1245,-130 1245,-78 733,-78"/>
</g>
<g id="clust6" class="cluster">
<title>cluster_ImportUserModule_providers</title>
<polygon fill="none" stroke="black" points="16,-78 16,-130 725,-130 725,-78 16,-78"/>
</g>
<!-- AccountModule -->
<g id="node1" class="node">
<title>AccountModule</title>
<polygon fill="#8dd3c7" stroke="black" points="1237.48,-122 1234.48,-126 1213.48,-126 1210.48,-122 1130.52,-122 1130.52,-86 1237.48,-86 1237.48,-122"/>
<text text-anchor="middle" x="1184" y="-99.8" font-family="Times,serif" font-size="14.00">AccountModule</text>
</g>
<!-- ImportUserModule -->
<g id="node5" class="node">
<title>ImportUserModule</title>
<polygon fill="#8dd3c7" stroke="black" points="703.08,-187 700.08,-191 679.08,-191 676.08,-187 578.92,-187 578.92,-151 703.08,-151 703.08,-187"/>
<text text-anchor="middle" x="641" y="-164.8" font-family="Times,serif" font-size="14.00">ImportUserModule</text>
</g>
<!-- AccountModule&#45;&gt;ImportUserModule -->
<g id="edge1" class="edge">
<title>AccountModule&#45;&gt;ImportUserModule</title>
<path fill="none" stroke="black" d="M1184,-122.01C1184,-144.49 1184,-180 1184,-180 1184,-180 713.29,-180 713.29,-180"/>
<polygon fill="black" stroke="black" points="713.29,-176.5 703.29,-180 713.29,-183.5 713.29,-176.5"/>
</g>
<!-- AuthorizationModule -->
<g id="node2" class="node">
<title>AuthorizationModule</title>
<polygon fill="#8dd3c7" stroke="black" points="1112.81,-122 1109.81,-126 1088.81,-126 1085.81,-122 975.19,-122 975.19,-86 1112.81,-86 1112.81,-122"/>
<text text-anchor="middle" x="1044" y="-99.8" font-family="Times,serif" font-size="14.00">AuthorizationModule</text>
</g>
<!-- AuthorizationModule&#45;&gt;ImportUserModule -->
<g id="edge2" class="edge">
<title>AuthorizationModule&#45;&gt;ImportUserModule</title>
<path fill="none" stroke="black" d="M1044,-122.13C1044,-142.57 1044,-173 1044,-173 1044,-173 713.09,-173 713.09,-173"/>
<polygon fill="black" stroke="black" points="713.09,-169.5 703.09,-173 713.09,-176.5 713.09,-169.5"/>
</g>
<!-- LoggerModule -->
<g id="node3" class="node">
<title>LoggerModule</title>
<polygon fill="#8dd3c7" stroke="black" points="956.98,-122 953.98,-126 932.98,-126 929.98,-122 857.02,-122 857.02,-86 956.98,-86 956.98,-122"/>
<text text-anchor="middle" x="907" y="-99.8" font-family="Times,serif" font-size="14.00">LoggerModule</text>
</g>
<!-- LoggerModule&#45;&gt;ImportUserModule -->
<g id="edge3" class="edge">
<title>LoggerModule&#45;&gt;ImportUserModule</title>
<path fill="none" stroke="black" d="M907,-122.27C907,-140.56 907,-166 907,-166 907,-166 713.37,-166 713.37,-166"/>
<polygon fill="black" stroke="black" points="713.37,-162.5 703.37,-166 713.37,-169.5 713.37,-162.5"/>
</g>
<!-- SchoolModule -->
<g id="node4" class="node">
<title>SchoolModule</title>
<polygon fill="#8dd3c7" stroke="black" points="839.44,-122 836.44,-126 815.44,-126 812.44,-122 740.56,-122 740.56,-86 839.44,-86 839.44,-122"/>
<text text-anchor="middle" x="790" y="-99.8" font-family="Times,serif" font-size="14.00">SchoolModule</text>
</g>
<!-- SchoolModule&#45;&gt;ImportUserModule -->
<g id="edge4" class="edge">
<title>SchoolModule&#45;&gt;ImportUserModule</title>
<path fill="none" stroke="black" d="M790,-122.01C790,-138.05 790,-159 790,-159 790,-159 713.33,-159 713.33,-159"/>
<polygon fill="black" stroke="black" points="713.33,-155.5 703.33,-159 713.33,-162.5 713.33,-155.5"/>
</g>
<!-- ImportUserRepo -->
<g id="node6" class="node">
<title>ImportUserRepo</title>
<ellipse fill="#fdb462" stroke="black" cx="641" cy="-104" rx="75.86" ry="18"/>
<text text-anchor="middle" x="641" y="-99.8" font-family="Times,serif" font-size="14.00">ImportUserRepo</text>
</g>
<!-- ImportUserRepo&#45;&gt;ImportUserModule -->
<g id="edge5" class="edge">
<title>ImportUserRepo&#45;&gt;ImportUserModule</title>
<path fill="none" stroke="black" d="M641,-122.11C641,-122.11 641,-140.99 641,-140.99"/>
<polygon fill="black" stroke="black" points="637.5,-140.99 641,-150.99 644.5,-140.99 637.5,-140.99"/>
</g>
<!-- SchoolRepo -->
<g id="node7" class="node">
<title>SchoolRepo</title>
<ellipse fill="#fdb462" stroke="black" cx="489" cy="-104" rx="58.49" ry="18"/>
<text text-anchor="middle" x="489" y="-99.8" font-family="Times,serif" font-size="14.00">SchoolRepo</text>
</g>
<!-- SchoolRepo&#45;&gt;ImportUserModule -->
<g id="edge6" class="edge">
<title>SchoolRepo&#45;&gt;ImportUserModule</title>
<path fill="none" stroke="black" d="M489,-122.01C489,-138.05 489,-159 489,-159 489,-159 568.74,-159 568.74,-159"/>
<polygon fill="black" stroke="black" points="568.74,-162.5 578.74,-159 568.74,-155.5 568.74,-162.5"/>
</g>
<!-- SystemRepo -->
<g id="node8" class="node">
<title>SystemRepo</title>
<ellipse fill="#fdb462" stroke="black" cx="353" cy="-104" rx="59.71" ry="18"/>
<text text-anchor="middle" x="353" y="-99.8" font-family="Times,serif" font-size="14.00">SystemRepo</text>
</g>
<!-- SystemRepo&#45;&gt;ImportUserModule -->
<g id="edge7" class="edge">
<title>SystemRepo&#45;&gt;ImportUserModule</title>
<path fill="none" stroke="black" d="M353,-122.27C353,-140.56 353,-166 353,-166 353,-166 568.86,-166 568.86,-166"/>
<polygon fill="black" stroke="black" points="568.86,-169.5 578.86,-166 568.86,-162.5 568.86,-169.5"/>
</g>
<!-- UserImportUc -->
<g id="node9" class="node">
<title>UserImportUc</title>
<ellipse fill="#fdb462" stroke="black" cx="208" cy="-104" rx="66.61" ry="18"/>
<text text-anchor="middle" x="208" y="-99.8" font-family="Times,serif" font-size="14.00">UserImportUc</text>
</g>
<!-- UserImportUc&#45;&gt;ImportUserModule -->
<g id="edge8" class="edge">
<title>UserImportUc&#45;&gt;ImportUserModule</title>
<path fill="none" stroke="black" d="M208,-122.13C208,-142.57 208,-173 208,-173 208,-173 568.5,-173 568.5,-173"/>
<polygon fill="black" stroke="black" points="568.5,-176.5 578.5,-173 568.5,-169.5 568.5,-176.5"/>
</g>
<!-- UserRepo -->
<g id="node10" class="node">
<title>UserRepo</title>
<ellipse fill="#fdb462" stroke="black" cx="74" cy="-104" rx="49.8" ry="18"/>
<text text-anchor="middle" x="74" y="-99.8" font-family="Times,serif" font-size="14.00">UserRepo</text>
</g>
<!-- UserRepo&#45;&gt;ImportUserModule -->
<g id="edge9" class="edge">
<title>UserRepo&#45;&gt;ImportUserModule</title>
<path fill="none" stroke="black" d="M74,-122.01C74,-144.49 74,-180 74,-180 74,-180 568.7,-180 568.7,-180"/>
<polygon fill="black" stroke="black" points="568.7,-183.5 578.7,-180 568.7,-176.5 568.7,-183.5"/>
</g>
</g>
</svg>
