<?xml version="1.0" encoding="UTF-8" standalone="no"?>
<!DOCTYPE svg PUBLIC "-//W3C//DTD SVG 1.1//EN"
 "http://www.w3.org/Graphics/SVG/1.1/DTD/svg11.dtd">
<!-- Generated by graphviz version 2.47.0 (20210316.0004)
 -->
<!-- Title: dependencies Pages: 1 -->
<svg width="2918pt" height="211pt"
 viewBox="0.00 0.00 2918.00 211.00" xmlns="http://www.w3.org/2000/svg" xmlns:xlink="http://www.w3.org/1999/xlink">
<g id="graph0" class="graph" transform="scale(1 1) rotate(0) translate(4 207)">
<title>dependencies</title>
<polygon fill="white" stroke="transparent" points="-4,4 -4,-207 2914,-207 2914,4 -4,4"/>
<text text-anchor="start" x="1434.01" y="-42.4" font-family="Times-12" font-weight="bold" font-size="14.00">Legend</text>
<polygon fill="#ffffb3" stroke="transparent" points="1221,-10 1221,-30 1241,-30 1241,-10 1221,-10"/>
<text text-anchor="start" x="1244.63" y="-15.4" font-family="Times-12" font-size="14.00"> &#160;Declarations</text>
<polygon fill="#8dd3c7" stroke="transparent" points="1334,-10 1334,-30 1354,-30 1354,-10 1334,-10"/>
<text text-anchor="start" x="1357.73" y="-15.4" font-family="Times-12" font-size="14.00"> &#160;Module</text>
<polygon fill="#80b1d3" stroke="transparent" points="1420,-10 1420,-30 1440,-30 1440,-10 1420,-10"/>
<text text-anchor="start" x="1443.78" y="-15.4" font-family="Times-12" font-size="14.00"> &#160;Bootstrap</text>
<polygon fill="#fdb462" stroke="transparent" points="1517,-10 1517,-30 1537,-30 1537,-10 1517,-10"/>
<text text-anchor="start" x="1540.67" y="-15.4" font-family="Times-12" font-size="14.00"> &#160;Providers</text>
<polygon fill="#fb8072" stroke="transparent" points="1613,-10 1613,-30 1633,-30 1633,-10 1613,-10"/>
<text text-anchor="start" x="1636.73" y="-15.4" font-family="Times-12" font-size="14.00"> &#160;Exports</text>
<g id="clust1" class="cluster">
<title>cluster_ImportUserModule</title>
<polygon fill="none" stroke="black" stroke-dasharray="1,5" points="8,-70 8,-195 2902,-195 2902,-70 8,-70"/>
</g>
<g id="clust3" class="cluster">
<title>cluster_ImportUserModule_imports</title>
<polygon fill="none" stroke="black" points="1566,-78 1566,-130 2894,-130 2894,-78 1566,-78"/>
</g>
<g id="clust6" class="cluster">
<title>cluster_ImportUserModule_providers</title>
<polygon fill="none" stroke="black" points="16,-78 16,-130 1558,-130 1558,-78 16,-78"/>
</g>
<!-- AccountModule -->
<g id="node1" class="node">
<title>AccountModule</title>
<polygon fill="#8dd3c7" stroke="black" points="2886.48,-122 2883.48,-126 2862.48,-126 2859.48,-122 2779.52,-122 2779.52,-86 2886.48,-86 2886.48,-122"/>
<text text-anchor="middle" x="2833" y="-99.8" font-family="Times,serif" font-size="14.00">AccountModule</text>
</g>
<!-- ImportUserModule -->
<g id="node10" class="node">
<title>ImportUserModule</title>
<polygon fill="#8dd3c7" stroke="black" points="1679.08,-187 1676.08,-191 1655.08,-191 1652.08,-187 1554.92,-187 1554.92,-151 1679.08,-151 1679.08,-187"/>
<text text-anchor="middle" x="1617" y="-164.8" font-family="Times,serif" font-size="14.00">ImportUserModule</text>
</g>
<!-- AccountModule&#45;&gt;ImportUserModule -->
<g id="edge1" class="edge">
<title>AccountModule&#45;&gt;ImportUserModule</title>
<path fill="none" stroke="black" d="M2833,-122.32C2833,-145.66 2833,-183 2833,-183 2833,-183 1689.39,-183 1689.39,-183"/>
<polygon fill="black" stroke="black" points="1689.39,-179.5 1679.39,-183 1689.39,-186.5 1689.39,-179.5"/>
</g>
<!-- AuthorizationModule -->
<g id="node2" class="node">
<title>AuthorizationModule</title>
<polygon fill="#8dd3c7" stroke="black" points="2761.81,-122 2758.81,-126 2737.81,-126 2734.81,-122 2624.19,-122 2624.19,-86 2761.81,-86 2761.81,-122"/>
<text text-anchor="middle" x="2693" y="-99.8" font-family="Times,serif" font-size="14.00">AuthorizationModule</text>
</g>
<!-- AuthorizationModule&#45;&gt;ImportUserModule -->
<g id="edge2" class="edge">
<title>AuthorizationModule&#45;&gt;ImportUserModule</title>
<path fill="none" stroke="black" d="M2693,-122.29C2693,-144.21 2693,-178 2693,-178 2693,-178 1689.11,-178 1689.11,-178"/>
<polygon fill="black" stroke="black" points="1689.11,-174.5 1679.11,-178 1689.11,-181.5 1689.11,-174.5"/>
</g>
<!-- LegacySchoolModule -->
<g id="node3" class="node">
<title>LegacySchoolModule</title>
<polygon fill="#8dd3c7" stroke="black" points="2606.63,-122 2603.63,-126 2582.63,-126 2579.63,-122 2467.37,-122 2467.37,-86 2606.63,-86 2606.63,-122"/>
<text text-anchor="middle" x="2537" y="-99.8" font-family="Times,serif" font-size="14.00">LegacySchoolModule</text>
</g>
<!-- LegacySchoolModule&#45;&gt;ImportUserModule -->
<g id="edge3" class="edge">
<title>LegacySchoolModule&#45;&gt;ImportUserModule</title>
<path fill="none" stroke="black" d="M2537,-122.03C2537,-142.77 2537,-174 2537,-174 2537,-174 1689.15,-174 1689.15,-174"/>
<polygon fill="black" stroke="black" points="1689.15,-170.5 1679.15,-174 1689.15,-177.5 1689.15,-170.5"/>
</g>
<!-- LoggerModule -->
<g id="node4" class="node">
<title>LoggerModule</title>
<polygon fill="#8dd3c7" stroke="black" points="2448.98,-122 2445.98,-126 2424.98,-126 2421.98,-122 2349.02,-122 2349.02,-86 2448.98,-86 2448.98,-122"/>
<text text-anchor="middle" x="2399" y="-99.8" font-family="Times,serif" font-size="14.00">LoggerModule</text>
</g>
<!-- LoggerModule&#45;&gt;ImportUserModule -->
<g id="edge4" class="edge">
<title>LoggerModule&#45;&gt;ImportUserModule</title>
<path fill="none" stroke="black" d="M2399,-122.11C2399,-141.34 2399,-169 2399,-169 2399,-169 1689.34,-169 1689.34,-169"/>
<polygon fill="black" stroke="black" points="1689.34,-165.5 1679.34,-169 1689.34,-172.5 1689.34,-165.5"/>
</g>
<!-- OauthModule -->
<g id="node5" class="node">
<title>OauthModule</title>
<polygon fill="#8dd3c7" stroke="black" points="2330.76,-122 2327.76,-126 2306.76,-126 2303.76,-122 2237.24,-122 2237.24,-86 2330.76,-86 2330.76,-122"/>
<text text-anchor="middle" x="2284" y="-99.8" font-family="Times,serif" font-size="14.00">OauthModule</text>
</g>
<!-- OauthModule&#45;&gt;ImportUserModule -->
<g id="edge5" class="edge">
<title>OauthModule&#45;&gt;ImportUserModule</title>
<path fill="none" stroke="black" d="M2284,-122.3C2284,-140.27 2284,-165 2284,-165 2284,-165 1689.15,-165 1689.15,-165"/>
<polygon fill="black" stroke="black" points="1689.15,-161.5 1679.15,-165 1689.15,-168.5 1689.15,-161.5"/>
</g>
<!-- SchulconnexClientModule -->
<g id="node6" class="node">
<title>SchulconnexClientModule</title>
<polygon fill="#8dd3c7" stroke="black" points="2219.09,-122 2216.09,-126 2195.09,-126 2192.09,-122 2052.91,-122 2052.91,-86 2219.09,-86 2219.09,-122"/>
<text text-anchor="middle" x="2136" y="-99.8" font-family="Times,serif" font-size="14.00">SchulconnexClientModule</text>
</g>
<!-- SchulconnexClientModule&#45;&gt;ImportUserModule -->
<g id="edge6" class="edge">
<title>SchulconnexClientModule&#45;&gt;ImportUserModule</title>
<path fill="none" stroke="black" d="M2136,-122.03C2136,-138.4 2136,-160 2136,-160 2136,-160 1689.09,-160 1689.09,-160"/>
<polygon fill="black" stroke="black" points="1689.09,-156.5 1679.09,-160 1689.09,-163.5 1689.09,-156.5"/>
</g>
<!-- UserImportConfigModule -->
<g id="node7" class="node">
<title>UserImportConfigModule</title>
<polygon fill="#8dd3c7" stroke="black" points="2034.47,-122 2031.47,-126 2010.47,-126 2007.47,-122 1871.53,-122 1871.53,-86 2034.47,-86 2034.47,-122"/>
<text text-anchor="middle" x="1953" y="-99.8" font-family="Times,serif" font-size="14.00">UserImportConfigModule</text>
</g>
<!-- UserImportConfigModule&#45;&gt;ImportUserModule -->
<g id="edge7" class="edge">
<title>UserImportConfigModule&#45;&gt;ImportUserModule</title>
<path fill="none" stroke="black" d="M1953,-122.19C1953,-137.18 1953,-156 1953,-156 1953,-156 1689.41,-156 1689.41,-156"/>
<polygon fill="black" stroke="black" points="1689.41,-152.5 1679.41,-156 1689.41,-159.5 1689.41,-152.5"/>
</g>
<!-- UserLoginMigrationModule -->
<g id="node8" class="node">
<title>UserLoginMigrationModule</title>
<polygon fill="#8dd3c7" stroke="black" points="1853.91,-122 1850.91,-126 1829.91,-126 1826.91,-122 1678.09,-122 1678.09,-86 1853.91,-86 1853.91,-122"/>
<text text-anchor="middle" x="1766" y="-99.8" font-family="Times,serif" font-size="14.00">UserLoginMigrationModule</text>
</g>
<!-- UserLoginMigrationModule&#45;&gt;ImportUserModule -->
<g id="edge8" class="edge">
<title>UserLoginMigrationModule&#45;&gt;ImportUserModule</title>
<path fill="none" stroke="black" d="M1678.08,-104C1672.55,-104 1669.14,-104 1669.14,-104 1669.14,-104 1669.14,-140.89 1669.14,-140.89"/>
<polygon fill="black" stroke="black" points="1665.64,-140.89 1669.14,-150.89 1672.64,-140.89 1665.64,-140.89"/>
</g>
<!-- UserModule -->
<g id="node9" class="node">
<title>UserModule</title>
<polygon fill="#8dd3c7" stroke="black" points="1659.98,-122 1656.98,-126 1635.98,-126 1632.98,-122 1574.02,-122 1574.02,-86 1659.98,-86 1659.98,-122"/>
<text text-anchor="middle" x="1617" y="-99.8" font-family="Times,serif" font-size="14.00">UserModule</text>
</g>
<!-- UserModule&#45;&gt;ImportUserModule -->
<g id="edge9" class="edge">
<title>UserModule&#45;&gt;ImportUserModule</title>
<path fill="none" stroke="black" d="M1617,-122.11C1617,-122.11 1617,-140.99 1617,-140.99"/>
<polygon fill="black" stroke="black" points="1613.5,-140.99 1617,-150.99 1620.5,-140.99 1613.5,-140.99"/>
</g>
<!-- ImportUserRepo -->
<g id="node11" class="node">
<title>ImportUserRepo</title>
<ellipse fill="#fdb462" stroke="black" cx="1474" cy="-104" rx="75.86" ry="18"/>
<text text-anchor="middle" x="1474" y="-99.8" font-family="Times,serif" font-size="14.00">ImportUserRepo</text>
</g>
<!-- ImportUserRepo&#45;&gt;ImportUserModule -->
<g id="edge10" class="edge">
<title>ImportUserRepo&#45;&gt;ImportUserModule</title>
<path fill="none" stroke="black" d="M1549.95,-104C1558.65,-104 1564.49,-104 1564.49,-104 1564.49,-104 1564.49,-140.89 1564.49,-140.89"/>
<polygon fill="black" stroke="black" points="1560.99,-140.89 1564.49,-150.89 1567.99,-140.89 1560.99,-140.89"/>
</g>
<!-- LegacySchoolRepo -->
<g id="node12" class="node">
<title>LegacySchoolRepo</title>
<ellipse fill="#fdb462" stroke="black" cx="1293" cy="-104" rx="86.82" ry="18"/>
<text text-anchor="middle" x="1293" y="-99.8" font-family="Times,serif" font-size="14.00">LegacySchoolRepo</text>
</g>
<!-- LegacySchoolRepo&#45;&gt;ImportUserModule -->
<g id="edge11" class="edge">
<title>LegacySchoolRepo&#45;&gt;ImportUserModule</title>
<path fill="none" stroke="black" d="M1293,-122.19C1293,-137.18 1293,-156 1293,-156 1293,-156 1544.91,-156 1544.91,-156"/>
<polygon fill="black" stroke="black" points="1544.91,-159.5 1554.91,-156 1544.91,-152.5 1544.91,-159.5"/>
</g>
<!-- LegacySystemRepo -->
<g id="node13" class="node">
<title>LegacySystemRepo</title>
<ellipse fill="#fdb462" stroke="black" cx="1100" cy="-104" rx="88.04" ry="18"/>
<text text-anchor="middle" x="1100" y="-99.8" font-family="Times,serif" font-size="14.00">LegacySystemRepo</text>
</g>
<!-- LegacySystemRepo&#45;&gt;ImportUserModule -->
<g id="edge12" class="edge">
<title>LegacySystemRepo&#45;&gt;ImportUserModule</title>
<path fill="none" stroke="black" d="M1100,-122.03C1100,-138.4 1100,-160 1100,-160 1100,-160 1544.89,-160 1544.89,-160"/>
<polygon fill="black" stroke="black" points="1544.89,-163.5 1554.89,-160 1544.89,-156.5 1544.89,-163.5"/>
</g>
<!-- SchulconnexFetchImportUsersService -->
<g id="node14" class="node">
<title>SchulconnexFetchImportUsersService</title>
<ellipse fill="#fdb462" stroke="black" cx="834" cy="-104" rx="159.69" ry="18"/>
<text text-anchor="middle" x="834" y="-99.8" font-family="Times,serif" font-size="14.00">SchulconnexFetchImportUsersService</text>
</g>
<!-- SchulconnexFetchImportUsersService&#45;&gt;ImportUserModule -->
<g id="edge13" class="edge">
<title>SchulconnexFetchImportUsersService&#45;&gt;ImportUserModule</title>
<path fill="none" stroke="black" d="M834,-122.3C834,-140.27 834,-165 834,-165 834,-165 1544.9,-165 1544.9,-165"/>
<polygon fill="black" stroke="black" points="1544.9,-168.5 1554.9,-165 1544.9,-161.5 1544.9,-168.5"/>
</g>
<!-- UserImportFetchUc -->
<g id="node15" class="node">
<title>UserImportFetchUc</title>
<ellipse fill="#fdb462" stroke="black" cx="568" cy="-104" rx="88.02" ry="18"/>
<text text-anchor="middle" x="568" y="-99.8" font-family="Times,serif" font-size="14.00">UserImportFetchUc</text>
</g>
<!-- UserImportFetchUc&#45;&gt;ImportUserModule -->
<g id="edge14" class="edge">
<title>UserImportFetchUc&#45;&gt;ImportUserModule</title>
<path fill="none" stroke="black" d="M568,-122.11C568,-141.34 568,-169 568,-169 568,-169 1544.91,-169 1544.91,-169"/>
<polygon fill="black" stroke="black" points="1544.91,-172.5 1554.91,-169 1544.91,-165.5 1544.91,-172.5"/>
</g>
<!-- UserImportService -->
<g id="node16" class="node">
<title>UserImportService</title>
<ellipse fill="#fdb462" stroke="black" cx="377" cy="-104" rx="84.51" ry="18"/>
<text text-anchor="middle" x="377" y="-99.8" font-family="Times,serif" font-size="14.00">UserImportService</text>
</g>
<!-- UserImportService&#45;&gt;ImportUserModule -->
<g id="edge15" class="edge">
<title>UserImportService&#45;&gt;ImportUserModule</title>
<path fill="none" stroke="black" d="M377,-122.03C377,-142.77 377,-174 377,-174 377,-174 1544.66,-174 1544.66,-174"/>
<polygon fill="black" stroke="black" points="1544.66,-177.5 1554.66,-174 1544.66,-170.5 1544.66,-177.5"/>
</g>
<!-- UserImportUc -->
<g id="node17" class="node">
<title>UserImportUc</title>
<ellipse fill="#fdb462" stroke="black" cx="208" cy="-104" rx="66.61" ry="18"/>
<text text-anchor="middle" x="208" y="-99.8" font-family="Times,serif" font-size="14.00">UserImportUc</text>
</g>
<!-- UserImportUc&#45;&gt;ImportUserModule -->
<g id="edge16" class="edge">
<title>UserImportUc&#45;&gt;ImportUserModule</title>
<path fill="none" stroke="black" d="M208,-122.29C208,-144.21 208,-178 208,-178 208,-178 1544.64,-178 1544.64,-178"/>
<polygon fill="black" stroke="black" points="1544.64,-181.5 1554.64,-178 1544.64,-174.5 1544.64,-181.5"/>
</g>
<!-- UserRepo -->
<g id="node18" class="node">
<title>UserRepo</title>
<ellipse fill="#fdb462" stroke="black" cx="74" cy="-104" rx="49.8" ry="18"/>
<text text-anchor="middle" x="74" y="-99.8" font-family="Times,serif" font-size="14.00">UserRepo</text>
</g>
<!-- UserRepo&#45;&gt;ImportUserModule -->
<g id="edge17" class="edge">
<title>UserRepo&#45;&gt;ImportUserModule</title>
<path fill="none" stroke="black" d="M74,-122.32C74,-145.66 74,-183 74,-183 74,-183 1544.6,-183 1544.6,-183"/>
<polygon fill="black" stroke="black" points="1544.6,-186.5 1554.6,-183 1544.6,-179.5 1544.6,-186.5"/>
</g>
</g>
</svg>
