<?xml version="1.0" encoding="UTF-8" standalone="no"?>
<!DOCTYPE svg PUBLIC "-//W3C//DTD SVG 1.1//EN"
 "http://www.w3.org/Graphics/SVG/1.1/DTD/svg11.dtd">
<!-- Generated by graphviz version 2.47.0 (20210316.0004)
 -->
<!-- Title: dependencies Pages: 1 -->
<svg width="1424pt" height="211pt"
 viewBox="0.00 0.00 1424.00 211.00" xmlns="http://www.w3.org/2000/svg" xmlns:xlink="http://www.w3.org/1999/xlink">
<g id="graph0" class="graph" transform="scale(1 1) rotate(0) translate(4 207)">
<title>dependencies</title>
<polygon fill="white" stroke="transparent" points="-4,4 -4,-207 1420,-207 1420,4 -4,4"/>
<text text-anchor="start" x="687.01" y="-42.4" font-family="Times-12" font-weight="bold" font-size="14.00">Legend</text>
<polygon fill="#ffffb3" stroke="transparent" points="474,-10 474,-30 494,-30 494,-10 474,-10"/>
<text text-anchor="start" x="497.63" y="-15.4" font-family="Times-12" font-size="14.00"> &#160;Declarations</text>
<polygon fill="#8dd3c7" stroke="transparent" points="587,-10 587,-30 607,-30 607,-10 587,-10"/>
<text text-anchor="start" x="610.73" y="-15.4" font-family="Times-12" font-size="14.00"> &#160;Module</text>
<polygon fill="#80b1d3" stroke="transparent" points="673,-10 673,-30 693,-30 693,-10 673,-10"/>
<text text-anchor="start" x="696.78" y="-15.4" font-family="Times-12" font-size="14.00"> &#160;Bootstrap</text>
<polygon fill="#fdb462" stroke="transparent" points="770,-10 770,-30 790,-30 790,-10 770,-10"/>
<text text-anchor="start" x="793.67" y="-15.4" font-family="Times-12" font-size="14.00"> &#160;Providers</text>
<polygon fill="#fb8072" stroke="transparent" points="866,-10 866,-30 886,-30 886,-10 866,-10"/>
<text text-anchor="start" x="889.73" y="-15.4" font-family="Times-12" font-size="14.00"> &#160;Exports</text>
<g id="clust1" class="cluster">
<title>cluster_ImportUserModule</title>
<polygon fill="none" stroke="black" stroke-dasharray="1,5" points="8,-70 8,-195 1408,-195 1408,-70 8,-70"/>
</g>
<g id="clust6" class="cluster">
<title>cluster_ImportUserModule_providers</title>
<polygon fill="none" stroke="black" points="577,-78 577,-130 1400,-130 1400,-78 577,-78"/>
</g>
<g id="clust3" class="cluster">
<title>cluster_ImportUserModule_imports</title>
<polygon fill="none" stroke="black" points="16,-78 16,-130 569,-130 569,-78 16,-78"/>
</g>
<!-- AccountModule -->
<g id="node1" class="node">
<title>AccountModule</title>
<polygon fill="#8dd3c7" stroke="black" points="561.48,-122 558.48,-126 537.48,-126 534.48,-122 454.52,-122 454.52,-86 561.48,-86 561.48,-122"/>
<text text-anchor="middle" x="508" y="-99.8" font-family="Times,serif" font-size="14.00">AccountModule</text>
</g>
<!-- ImportUserModule -->
<g id="node5" class="node">
<title>ImportUserModule</title>
<polygon fill="#8dd3c7" stroke="black" points="697.08,-187 694.08,-191 673.08,-191 670.08,-187 572.92,-187 572.92,-151 697.08,-151 697.08,-187"/>
<text text-anchor="middle" x="635" y="-164.8" font-family="Times,serif" font-size="14.00">ImportUserModule</text>
</g>
<!-- AccountModule&#45;&gt;ImportUserModule -->
<g id="edge1" class="edge">
<title>AccountModule&#45;&gt;ImportUserModule</title>
<path fill="none" stroke="black" d="M561.57,-104C571.68,-104 579.16,-104 579.16,-104 579.16,-104 579.16,-140.89 579.16,-140.89"/>
<polygon fill="black" stroke="black" points="575.66,-140.89 579.16,-150.89 582.66,-140.89 575.66,-140.89"/>
</g>
<!-- AuthorizationModule -->
<g id="node2" class="node">
<title>AuthorizationModule</title>
<polygon fill="#8dd3c7" stroke="black" points="436.81,-122 433.81,-126 412.81,-126 409.81,-122 299.19,-122 299.19,-86 436.81,-86 436.81,-122"/>
<text text-anchor="middle" x="368" y="-99.8" font-family="Times,serif" font-size="14.00">AuthorizationModule</text>
</g>
<!-- AuthorizationModule&#45;&gt;ImportUserModule -->
<g id="edge2" class="edge">
<title>AuthorizationModule&#45;&gt;ImportUserModule</title>
<path fill="none" stroke="black" d="M368,-122.03C368,-138.4 368,-160 368,-160 368,-160 562.74,-160 562.74,-160"/>
<polygon fill="black" stroke="black" points="562.74,-163.5 572.74,-160 562.74,-156.5 562.74,-163.5"/>
</g>
<!-- LegacySchoolModule -->
<g id="node3" class="node">
<title>LegacySchoolModule</title>
<polygon fill="#8dd3c7" stroke="black" points="281.63,-122 278.63,-126 257.63,-126 254.63,-122 142.37,-122 142.37,-86 281.63,-86 281.63,-122"/>
<text text-anchor="middle" x="212" y="-99.8" font-family="Times,serif" font-size="14.00">LegacySchoolModule</text>
</g>
<!-- LegacySchoolModule&#45;&gt;ImportUserModule -->
<g id="edge3" class="edge">
<title>LegacySchoolModule&#45;&gt;ImportUserModule</title>
<path fill="none" stroke="black" d="M212,-122.11C212,-141.34 212,-169 212,-169 212,-169 562.58,-169 562.58,-169"/>
<polygon fill="black" stroke="black" points="562.58,-172.5 572.58,-169 562.58,-165.5 562.58,-172.5"/>
</g>
<!-- LoggerModule -->
<g id="node4" class="node">
<title>LoggerModule</title>
<polygon fill="#8dd3c7" stroke="black" points="123.98,-122 120.98,-126 99.98,-126 96.98,-122 24.02,-122 24.02,-86 123.98,-86 123.98,-122"/>
<text text-anchor="middle" x="74" y="-99.8" font-family="Times,serif" font-size="14.00">LoggerModule</text>
</g>
<!-- LoggerModule&#45;&gt;ImportUserModule -->
<g id="edge4" class="edge">
<title>LoggerModule&#45;&gt;ImportUserModule</title>
<path fill="none" stroke="black" d="M74,-122.29C74,-144.21 74,-178 74,-178 74,-178 562.82,-178 562.82,-178"/>
<polygon fill="black" stroke="black" points="562.82,-181.5 572.82,-178 562.82,-174.5 562.82,-181.5"/>
</g>
<!-- ImportUserRepo -->
<g id="node6" class="node">
<title>ImportUserRepo</title>
<ellipse fill="#fdb462" stroke="black" cx="1316" cy="-104" rx="75.86" ry="18"/>
<text text-anchor="middle" x="1316" y="-99.8" font-family="Times,serif" font-size="14.00">ImportUserRepo</text>
</g>
<!-- ImportUserRepo&#45;&gt;ImportUserModule -->
<g id="edge5" class="edge">
<title>ImportUserRepo&#45;&gt;ImportUserModule</title>
<path fill="none" stroke="black" d="M1316,-122.29C1316,-144.21 1316,-178 1316,-178 1316,-178 707.24,-178 707.24,-178"/>
<polygon fill="black" stroke="black" points="707.24,-174.5 697.24,-178 707.24,-181.5 707.24,-174.5"/>
</g>
<!-- LegacySchoolRepo -->
<g id="node7" class="node">
<title>LegacySchoolRepo</title>
<ellipse fill="#fdb462" stroke="black" cx="1135" cy="-104" rx="86.82" ry="18"/>
<text text-anchor="middle" x="1135" y="-99.8" font-family="Times,serif" font-size="14.00">LegacySchoolRepo</text>
</g>
<!-- LegacySchoolRepo&#45;&gt;ImportUserModule -->
<g id="edge6" class="edge">
<title>LegacySchoolRepo&#45;&gt;ImportUserModule</title>
<path fill="none" stroke="black" d="M1135,-122.11C1135,-141.34 1135,-169 1135,-169 1135,-169 707.06,-169 707.06,-169"/>
<polygon fill="black" stroke="black" points="707.06,-165.5 697.06,-169 707.06,-172.5 707.06,-165.5"/>
</g>
<!-- LegacySystemRepo -->
<g id="node8" class="node">
<title>LegacySystemRepo</title>
<ellipse fill="#fdb462" stroke="black" cx="942" cy="-104" rx="88.04" ry="18"/>
<text text-anchor="middle" x="942" y="-99.8" font-family="Times,serif" font-size="14.00">LegacySystemRepo</text>
</g>
<!-- LegacySystemRepo&#45;&gt;ImportUserModule -->
<g id="edge7" class="edge">
<title>LegacySystemRepo&#45;&gt;ImportUserModule</title>
<path fill="none" stroke="black" d="M942,-122.03C942,-138.4 942,-160 942,-160 942,-160 707.13,-160 707.13,-160"/>
<polygon fill="black" stroke="black" points="707.13,-156.5 697.13,-160 707.13,-163.5 707.13,-156.5"/>
</g>
<!-- UserImportUc -->
<g id="node9" class="node">
<title>UserImportUc</title>
<ellipse fill="#fdb462" stroke="black" cx="769" cy="-104" rx="66.61" ry="18"/>
<text text-anchor="middle" x="769" y="-99.8" font-family="Times,serif" font-size="14.00">UserImportUc</text>
</g>
<!-- UserImportUc&#45;&gt;ImportUserModule -->
<g id="edge8" class="edge">
<title>UserImportUc&#45;&gt;ImportUserModule</title>
<path fill="none" stroke="black" d="M702.04,-104C695.28,-104 690.84,-104 690.84,-104 690.84,-104 690.84,-140.89 690.84,-140.89"/>
<polygon fill="black" stroke="black" points="687.34,-140.89 690.84,-150.89 694.34,-140.89 687.34,-140.89"/>
</g>
<!-- UserRepo -->
<g id="node10" class="node">
<title>UserRepo</title>
<ellipse fill="#fdb462" stroke="black" cx="635" cy="-104" rx="49.8" ry="18"/>
<text text-anchor="middle" x="635" y="-99.8" font-family="Times,serif" font-size="14.00">UserRepo</text>
</g>
<!-- UserRepo&#45;&gt;ImportUserModule -->
<g id="edge9" class="edge">
<title>UserRepo&#45;&gt;ImportUserModule</title>
<path fill="none" stroke="black" d="M635,-122.11C635,-122.11 635,-140.99 635,-140.99"/>
<polygon fill="black" stroke="black" points="631.5,-140.99 635,-150.99 638.5,-140.99 631.5,-140.99"/>
</g>
</g>
</svg>
