<?xml version="1.0" encoding="UTF-8" standalone="no"?>
<!DOCTYPE svg PUBLIC "-//W3C//DTD SVG 1.1//EN"
 "http://www.w3.org/Graphics/SVG/1.1/DTD/svg11.dtd">
<!-- Generated by graphviz version 2.47.0 (20210316.0004)
 -->
<!-- Title: dependencies Pages: 1 -->
<svg width="2841pt" height="284pt"
 viewBox="0.00 0.00 2841.00 284.00" xmlns="http://www.w3.org/2000/svg" xmlns:xlink="http://www.w3.org/1999/xlink">
<g id="graph0" class="graph" transform="scale(1 1) rotate(0) translate(4 280)">
<title>dependencies</title>
<polygon fill="white" stroke="transparent" points="-4,4 -4,-280 2837,-280 2837,4 -4,4"/>
<text text-anchor="start" x="1395.51" y="-42.4" font-family="Times-12" font-weight="bold" font-size="14.00">Legend</text>
<polygon fill="#ffffb3" stroke="transparent" points="1182.5,-10 1182.5,-30 1202.5,-30 1202.5,-10 1182.5,-10"/>
<text text-anchor="start" x="1206.13" y="-15.4" font-family="Times-12" font-size="14.00"> &#160;Declarations</text>
<polygon fill="#8dd3c7" stroke="transparent" points="1295.5,-10 1295.5,-30 1315.5,-30 1315.5,-10 1295.5,-10"/>
<text text-anchor="start" x="1319.23" y="-15.4" font-family="Times-12" font-size="14.00"> &#160;Module</text>
<polygon fill="#80b1d3" stroke="transparent" points="1381.5,-10 1381.5,-30 1401.5,-30 1401.5,-10 1381.5,-10"/>
<text text-anchor="start" x="1405.28" y="-15.4" font-family="Times-12" font-size="14.00"> &#160;Bootstrap</text>
<polygon fill="#fdb462" stroke="transparent" points="1478.5,-10 1478.5,-30 1498.5,-30 1498.5,-10 1478.5,-10"/>
<text text-anchor="start" x="1502.17" y="-15.4" font-family="Times-12" font-size="14.00"> &#160;Providers</text>
<polygon fill="#fb8072" stroke="transparent" points="1574.5,-10 1574.5,-30 1594.5,-30 1594.5,-10 1574.5,-10"/>
<text text-anchor="start" x="1598.23" y="-15.4" font-family="Times-12" font-size="14.00"> &#160;Exports</text>
<g id="clust1" class="cluster">
<title>cluster_ImportUserModule</title>
<polygon fill="none" stroke="black" stroke-dasharray="1,5" points="8,-70 8,-268 2825,-268 2825,-70 8,-70"/>
</g>
<g id="clust6" class="cluster">
<title>cluster_ImportUserModule_providers</title>
<polygon fill="none" stroke="black" points="1470,-78 1470,-130 2817,-130 2817,-78 1470,-78"/>
</g>
<g id="clust4" class="cluster">
<title>cluster_ImportUserModule_exports</title>
<polygon fill="none" stroke="black" points="1190,-208 1190,-260 1332,-260 1332,-208 1190,-208"/>
</g>
<g id="clust3" class="cluster">
<title>cluster_ImportUserModule_imports</title>
<polygon fill="none" stroke="black" points="16,-78 16,-130 1462,-130 1462,-78 16,-78"/>
</g>
<!-- AccountModule -->
<g id="node1" class="node">
<title>AccountModule</title>
<polygon fill="#8dd3c7" stroke="black" points="1454.48,-122 1451.48,-126 1430.48,-126 1427.48,-122 1347.52,-122 1347.52,-86 1454.48,-86 1454.48,-122"/>
<text text-anchor="middle" x="1401" y="-99.8" font-family="Times,serif" font-size="14.00">AccountModule</text>
</g>
<!-- ImportUserModule -->
<g id="node11" class="node">
<title>ImportUserModule</title>
<polygon fill="#8dd3c7" stroke="black" points="1323.08,-187 1320.08,-191 1299.08,-191 1296.08,-187 1198.92,-187 1198.92,-151 1323.08,-151 1323.08,-187"/>
<text text-anchor="middle" x="1261" y="-164.8" font-family="Times,serif" font-size="14.00">ImportUserModule</text>
</g>
<!-- AccountModule&#45;&gt;ImportUserModule -->
<g id="edge1" class="edge">
<title>AccountModule&#45;&gt;ImportUserModule</title>
<path fill="none" stroke="black" d="M1401,-122.12C1401,-136.78 1401,-155 1401,-155 1401,-155 1333.22,-155 1333.22,-155"/>
<polygon fill="black" stroke="black" points="1333.22,-151.5 1323.22,-155 1333.22,-158.5 1333.22,-151.5"/>
</g>
<!-- AuthorizationModule -->
<g id="node2" class="node">
<title>AuthorizationModule</title>
<polygon fill="#8dd3c7" stroke="black" points="1329.81,-122 1326.81,-126 1305.81,-126 1302.81,-122 1192.19,-122 1192.19,-86 1329.81,-86 1329.81,-122"/>
<text text-anchor="middle" x="1261" y="-99.8" font-family="Times,serif" font-size="14.00">AuthorizationModule</text>
</g>
<!-- AuthorizationModule&#45;&gt;ImportUserModule -->
<g id="edge2" class="edge">
<title>AuthorizationModule&#45;&gt;ImportUserModule</title>
<path fill="none" stroke="black" d="M1261,-122.11C1261,-122.11 1261,-140.99 1261,-140.99"/>
<polygon fill="black" stroke="black" points="1257.5,-140.99 1261,-150.99 1264.5,-140.99 1257.5,-140.99"/>
</g>
<!-- LegacySchoolModule -->
<g id="node3" class="node">
<title>LegacySchoolModule</title>
<polygon fill="#8dd3c7" stroke="black" points="1174.63,-122 1171.63,-126 1150.63,-126 1147.63,-122 1035.37,-122 1035.37,-86 1174.63,-86 1174.63,-122"/>
<text text-anchor="middle" x="1105" y="-99.8" font-family="Times,serif" font-size="14.00">LegacySchoolModule</text>
</g>
<!-- LegacySchoolModule&#45;&gt;ImportUserModule -->
<g id="edge3" class="edge">
<title>LegacySchoolModule&#45;&gt;ImportUserModule</title>
<path fill="none" stroke="black" d="M1105,-122.12C1105,-136.78 1105,-155 1105,-155 1105,-155 1188.9,-155 1188.9,-155"/>
<polygon fill="black" stroke="black" points="1188.9,-158.5 1198.9,-155 1188.9,-151.5 1188.9,-158.5"/>
</g>
<!-- LoggerModule -->
<g id="node4" class="node">
<title>LoggerModule</title>
<polygon fill="#8dd3c7" stroke="black" points="1016.98,-122 1013.98,-126 992.98,-126 989.98,-122 917.02,-122 917.02,-86 1016.98,-86 1016.98,-122"/>
<text text-anchor="middle" x="967" y="-99.8" font-family="Times,serif" font-size="14.00">LoggerModule</text>
</g>
<!-- LoggerModule&#45;&gt;ImportUserModule -->
<g id="edge4" class="edge">
<title>LoggerModule&#45;&gt;ImportUserModule</title>
<path fill="none" stroke="black" d="M967,-122.01C967,-138.05 967,-159 967,-159 967,-159 1188.65,-159 1188.65,-159"/>
<polygon fill="black" stroke="black" points="1188.65,-162.5 1198.65,-159 1188.65,-155.5 1188.65,-162.5"/>
</g>
<!-- OauthModule -->
<g id="node5" class="node">
<title>OauthModule</title>
<polygon fill="#8dd3c7" stroke="black" points="898.76,-122 895.76,-126 874.76,-126 871.76,-122 805.24,-122 805.24,-86 898.76,-86 898.76,-122"/>
<text text-anchor="middle" x="852" y="-99.8" font-family="Times,serif" font-size="14.00">OauthModule</text>
</g>
<!-- OauthModule&#45;&gt;ImportUserModule -->
<g id="edge5" class="edge">
<title>OauthModule&#45;&gt;ImportUserModule</title>
<path fill="none" stroke="black" d="M852,-122.02C852,-139.37 852,-163 852,-163 852,-163 1188.88,-163 1188.88,-163"/>
<polygon fill="black" stroke="black" points="1188.88,-166.5 1198.88,-163 1188.88,-159.5 1188.88,-166.5"/>
</g>
<!-- SchulconnexClientModule -->
<g id="node6" class="node">
<title>SchulconnexClientModule</title>
<polygon fill="#8dd3c7" stroke="black" points="787.09,-122 784.09,-126 763.09,-126 760.09,-122 620.91,-122 620.91,-86 787.09,-86 787.09,-122"/>
<text text-anchor="middle" x="704" y="-99.8" font-family="Times,serif" font-size="14.00">SchulconnexClientModule</text>
</g>
<!-- SchulconnexClientModule&#45;&gt;ImportUserModule -->
<g id="edge6" class="edge">
<title>SchulconnexClientModule&#45;&gt;ImportUserModule</title>
<path fill="none" stroke="black" d="M704,-122.22C704,-140.83 704,-167 704,-167 704,-167 1188.73,-167 1188.73,-167"/>
<polygon fill="black" stroke="black" points="1188.73,-170.5 1198.73,-167 1188.73,-163.5 1188.73,-170.5"/>
</g>
<!-- SystemModule -->
<g id="node7" class="node">
<title>SystemModule</title>
<polygon fill="#8dd3c7" stroke="black" points="603.27,-122 600.27,-126 579.27,-126 576.27,-122 502.73,-122 502.73,-86 603.27,-86 603.27,-122"/>
<text text-anchor="middle" x="553" y="-99.8" font-family="Times,serif" font-size="14.00">SystemModule</text>
</g>
<!-- SystemModule&#45;&gt;ImportUserModule -->
<g id="edge7" class="edge">
<title>SystemModule&#45;&gt;ImportUserModule</title>
<path fill="none" stroke="black" d="M553,-122.31C553,-142.15 553,-171 553,-171 553,-171 1188.79,-171 1188.79,-171"/>
<polygon fill="black" stroke="black" points="1188.79,-174.5 1198.79,-171 1188.79,-167.5 1188.79,-174.5"/>
</g>
<!-- UserImportConfigModule -->
<g id="node8" class="node">
<title>UserImportConfigModule</title>
<polygon fill="#8dd3c7" stroke="black" points="484.47,-122 481.47,-126 460.47,-126 457.47,-122 321.53,-122 321.53,-86 484.47,-86 484.47,-122"/>
<text text-anchor="middle" x="403" y="-99.8" font-family="Times,serif" font-size="14.00">UserImportConfigModule</text>
</g>
<!-- UserImportConfigModule&#45;&gt;ImportUserModule -->
<g id="edge8" class="edge">
<title>UserImportConfigModule&#45;&gt;ImportUserModule</title>
<path fill="none" stroke="black" d="M403,-122.28C403,-143.32 403,-175 403,-175 403,-175 1188.95,-175 1188.95,-175"/>
<polygon fill="black" stroke="black" points="1188.95,-178.5 1198.95,-175 1188.95,-171.5 1188.95,-178.5"/>
</g>
<!-- UserLoginMigrationModule -->
<g id="node9" class="node">
<title>UserLoginMigrationModule</title>
<polygon fill="#8dd3c7" stroke="black" points="303.91,-122 300.91,-126 279.91,-126 276.91,-122 128.09,-122 128.09,-86 303.91,-86 303.91,-122"/>
<text text-anchor="middle" x="216" y="-99.8" font-family="Times,serif" font-size="14.00">UserLoginMigrationModule</text>
</g>
<!-- UserLoginMigrationModule&#45;&gt;ImportUserModule -->
<g id="edge9" class="edge">
<title>UserLoginMigrationModule&#45;&gt;ImportUserModule</title>
<path fill="none" stroke="black" d="M216,-122.16C216,-144.35 216,-179 216,-179 216,-179 1188.76,-179 1188.76,-179"/>
<polygon fill="black" stroke="black" points="1188.76,-182.5 1198.76,-179 1188.76,-175.5 1188.76,-182.5"/>
</g>
<!-- UserModule -->
<g id="node10" class="node">
<title>UserModule</title>
<polygon fill="#8dd3c7" stroke="black" points="109.98,-122 106.98,-126 85.98,-126 82.98,-122 24.02,-122 24.02,-86 109.98,-86 109.98,-122"/>
<text text-anchor="middle" x="67" y="-99.8" font-family="Times,serif" font-size="14.00">UserModule</text>
</g>
<!-- UserModule&#45;&gt;ImportUserModule -->
<g id="edge10" class="edge">
<title>UserModule&#45;&gt;ImportUserModule</title>
<path fill="none" stroke="black" d="M67,-122.32C67,-145.66 67,-183 67,-183 67,-183 1188.9,-183 1188.9,-183"/>
<polygon fill="black" stroke="black" points="1188.9,-186.5 1198.9,-183 1188.9,-179.5 1188.9,-186.5"/>
</g>
<!-- UserImportService  -->
<g id="node12" class="node">
<title>UserImportService </title>
<polygon fill="#fb8072" stroke="black" points="1324.01,-252 1197.99,-252 1197.99,-216 1324.01,-216 1324.01,-252"/>
<text text-anchor="middle" x="1261" y="-229.8" font-family="Times,serif" font-size="14.00">UserImportService </text>
</g>
<!-- ImportUserModule&#45;&gt;UserImportService  -->
<g id="edge11" class="edge">
<title>ImportUserModule&#45;&gt;UserImportService </title>
<path fill="none" stroke="black" stroke-dasharray="5,2" d="M1261,-187.11C1261,-187.11 1261,-205.99 1261,-205.99"/>
<polygon fill="black" stroke="black" points="1257.5,-205.99 1261,-215.99 1264.5,-205.99 1257.5,-205.99"/>
</g>
<!-- ImportUserRepo -->
<g id="node13" class="node">
<title>ImportUserRepo</title>
<ellipse fill="#fdb462" stroke="black" cx="2733" cy="-104" rx="75.86" ry="18"/>
<text text-anchor="middle" x="2733" y="-99.8" font-family="Times,serif" font-size="14.00">ImportUserRepo</text>
</g>
<!-- ImportUserRepo&#45;&gt;ImportUserModule -->
<g id="edge12" class="edge">
<title>ImportUserRepo&#45;&gt;ImportUserModule</title>
<path fill="none" stroke="black" d="M2733,-122.32C2733,-145.66 2733,-183 2733,-183 2733,-183 1333.31,-183 1333.31,-183"/>
<polygon fill="black" stroke="black" points="1333.31,-179.5 1323.31,-183 1333.31,-186.5 1333.31,-179.5"/>
</g>
<!-- LegacySchoolRepo -->
<g id="node14" class="node">
<title>LegacySchoolRepo</title>
<ellipse fill="#fdb462" stroke="black" cx="2552" cy="-104" rx="86.82" ry="18"/>
<text text-anchor="middle" x="2552" y="-99.8" font-family="Times,serif" font-size="14.00">LegacySchoolRepo</text>
</g>
<!-- LegacySchoolRepo&#45;&gt;ImportUserModule -->
<g id="edge13" class="edge">
<title>LegacySchoolRepo&#45;&gt;ImportUserModule</title>
<path fill="none" stroke="black" d="M2552,-122.16C2552,-144.35 2552,-179 2552,-179 2552,-179 1333.27,-179 1333.27,-179"/>
<polygon fill="black" stroke="black" points="1333.27,-175.5 1323.27,-179 1333.27,-182.5 1333.27,-175.5"/>
</g>
<!-- SchulconnexFetchImportUsersService -->
<g id="node15" class="node">
<title>SchulconnexFetchImportUsersService</title>
<ellipse fill="#fdb462" stroke="black" cx="2288" cy="-104" rx="159.69" ry="18"/>
<text text-anchor="middle" x="2288" y="-99.8" font-family="Times,serif" font-size="14.00">SchulconnexFetchImportUsersService</text>
</g>
<!-- SchulconnexFetchImportUsersService&#45;&gt;ImportUserModule -->
<g id="edge14" class="edge">
<title>SchulconnexFetchImportUsersService&#45;&gt;ImportUserModule</title>
<path fill="none" stroke="black" d="M2288,-122.28C2288,-143.32 2288,-175 2288,-175 2288,-175 1333.31,-175 1333.31,-175"/>
<polygon fill="black" stroke="black" points="1333.31,-171.5 1323.31,-175 1333.31,-178.5 1333.31,-171.5"/>
</g>
<!-- UserImportFetchUc -->
<g id="node16" class="node">
<title>UserImportFetchUc</title>
<ellipse fill="#fdb462" stroke="black" cx="2022" cy="-104" rx="88.02" ry="18"/>
<text text-anchor="middle" x="2022" y="-99.8" font-family="Times,serif" font-size="14.00">UserImportFetchUc</text>
</g>
<!-- UserImportFetchUc&#45;&gt;ImportUserModule -->
<g id="edge15" class="edge">
<title>UserImportFetchUc&#45;&gt;ImportUserModule</title>
<path fill="none" stroke="black" d="M2022,-122.31C2022,-142.15 2022,-171 2022,-171 2022,-171 1333.28,-171 1333.28,-171"/>
<polygon fill="black" stroke="black" points="1333.28,-167.5 1323.28,-171 1333.28,-174.5 1333.28,-167.5"/>
</g>
<!-- UserImportService -->
<g id="node17" class="node">
<title>UserImportService</title>
<ellipse fill="#fdb462" stroke="black" cx="1831" cy="-104" rx="84.51" ry="18"/>
<text text-anchor="middle" x="1831" y="-99.8" font-family="Times,serif" font-size="14.00">UserImportService</text>
</g>
<!-- UserImportService&#45;&gt;ImportUserModule -->
<g id="edge16" class="edge">
<title>UserImportService&#45;&gt;ImportUserModule</title>
<path fill="none" stroke="black" d="M1831,-122.22C1831,-140.83 1831,-167 1831,-167 1831,-167 1333.09,-167 1333.09,-167"/>
<polygon fill="black" stroke="black" points="1333.09,-163.5 1323.09,-167 1333.09,-170.5 1333.09,-163.5"/>
</g>
<!-- UserImportUc -->
<g id="node18" class="node">
<title>UserImportUc</title>
<ellipse fill="#fdb462" stroke="black" cx="1662" cy="-104" rx="66.61" ry="18"/>
<text text-anchor="middle" x="1662" y="-99.8" font-family="Times,serif" font-size="14.00">UserImportUc</text>
</g>
<!-- UserImportUc&#45;&gt;ImportUserModule -->
<g id="edge17" class="edge">
<title>UserImportUc&#45;&gt;ImportUserModule</title>
<path fill="none" stroke="black" d="M1662,-122.02C1662,-139.37 1662,-163 1662,-163 1662,-163 1333.22,-163 1333.22,-163"/>
<polygon fill="black" stroke="black" points="1333.22,-159.5 1323.22,-163 1333.22,-166.5 1333.22,-159.5"/>
</g>
<!-- UserRepo -->
<g id="node19" class="node">
<title>UserRepo</title>
<ellipse fill="#fdb462" stroke="black" cx="1528" cy="-104" rx="49.8" ry="18"/>
<text text-anchor="middle" x="1528" y="-99.8" font-family="Times,serif" font-size="14.00">UserRepo</text>
</g>
<!-- UserRepo&#45;&gt;ImportUserModule -->
<g id="edge18" class="edge">
<title>UserRepo&#45;&gt;ImportUserModule</title>
<path fill="none" stroke="black" d="M1528,-122.01C1528,-138.05 1528,-159 1528,-159 1528,-159 1333.26,-159 1333.26,-159"/>
<polygon fill="black" stroke="black" points="1333.26,-155.5 1323.26,-159 1333.26,-162.5 1333.26,-155.5"/>
</g>
</g>
</svg>
