<?xml version="1.0" encoding="UTF-8" standalone="no"?>
<!DOCTYPE svg PUBLIC "-//W3C//DTD SVG 1.1//EN"
 "http://www.w3.org/Graphics/SVG/1.1/DTD/svg11.dtd">
<!-- Generated by graphviz version 5.0.0 (20220707.1540)
 -->
<!-- Title: dependencies Pages: 1 -->
<svg width="1297pt" height="174pt"
 viewBox="0.00 0.00 1297.00 173.80" xmlns="http://www.w3.org/2000/svg" xmlns:xlink="http://www.w3.org/1999/xlink">
<g id="graph0" class="graph" transform="scale(1 1) rotate(0) translate(4 169.8)">
<title>dependencies</title>
<polygon fill="white" stroke="transparent" points="-4,4 -4,-169.8 1293,-169.8 1293,4 -4,4"/>
<text text-anchor="middle" x="644.5" y="-8.2" font-family="sans-serif" font-size="14.00">dependencies</text>
<g id="clust1" class="cluster">
<title>cluster_ImportUserModule</title>
<polygon fill="none" stroke="black" stroke-dasharray="1,5" points="8,-32.8 8,-157.8 1281,-157.8 1281,-32.8 8,-32.8"/>
</g>
<g id="clust3" class="cluster">
<title>cluster_ImportUserModule_imports</title>
<polygon fill="none" stroke="black" points="917,-40.8 917,-92.8 1273,-92.8 1273,-40.8 917,-40.8"/>
</g>
<g id="clust6" class="cluster">
<title>cluster_ImportUserModule_providers</title>
<polygon fill="none" stroke="black" points="16,-40.8 16,-92.8 909,-92.8 909,-40.8 16,-40.8"/>
</g>
<!-- AccountModule -->
<g id="node1" class="node">
<title>AccountModule</title>
<polygon fill="#8dd3c7" stroke="black" points="1265.48,-84.8 1262.48,-88.8 1241.48,-88.8 1238.48,-84.8 1158.52,-84.8 1158.52,-48.8 1265.48,-48.8 1265.48,-84.8"/>
<text text-anchor="middle" x="1212" y="-62.6" font-family="Times,serif" font-size="14.00">AccountModule</text>
</g>
<!-- ImportUserModule -->
<g id="node4" class="node">
<title>ImportUserModule</title>
<polygon fill="#8dd3c7" stroke="black" points="710.09,-149.8 707.09,-153.8 686.09,-153.8 683.09,-149.8 585.91,-149.8 585.91,-113.8 710.09,-113.8 710.09,-149.8"/>
<text text-anchor="middle" x="648" y="-127.6" font-family="Times,serif" font-size="14.00">ImportUserModule</text>
</g>
<!-- AccountModule&#45;&gt;ImportUserModule -->
<g id="edge1" class="edge">
<title>AccountModule&#45;&gt;ImportUserModule</title>
<path fill="none" stroke="black" d="M1212,-84.81C1212,-107.29 1212,-142.8 1212,-142.8 1212,-142.8 720.24,-142.8 720.24,-142.8"/>
<polygon fill="black" stroke="black" points="720.24,-139.3 710.24,-142.8 720.24,-146.3 720.24,-139.3"/>
</g>
<!-- LoggerModule -->
<g id="node2" class="node">
<title>LoggerModule</title>
<polygon fill="#8dd3c7" stroke="black" points="1140.98,-84.8 1137.98,-88.8 1116.98,-88.8 1113.98,-84.8 1041.02,-84.8 1041.02,-48.8 1140.98,-48.8 1140.98,-84.8"/>
<text text-anchor="middle" x="1091" y="-62.6" font-family="Times,serif" font-size="14.00">LoggerModule</text>
</g>
<!-- LoggerModule&#45;&gt;ImportUserModule -->
<g id="edge2" class="edge">
<title>LoggerModule&#45;&gt;ImportUserModule</title>
<path fill="none" stroke="black" d="M1091,-84.93C1091,-105.37 1091,-135.8 1091,-135.8 1091,-135.8 720.06,-135.8 720.06,-135.8"/>
<polygon fill="black" stroke="black" points="720.06,-132.3 710.06,-135.8 720.06,-139.3 720.06,-132.3"/>
</g>
<!-- SchoolModule -->
<g id="node3" class="node">
<title>SchoolModule</title>
<polygon fill="#8dd3c7" stroke="black" points="1023.44,-84.8 1020.44,-88.8 999.44,-88.8 996.44,-84.8 924.56,-84.8 924.56,-48.8 1023.44,-48.8 1023.44,-84.8"/>
<text text-anchor="middle" x="974" y="-62.6" font-family="Times,serif" font-size="14.00">SchoolModule</text>
</g>
<!-- SchoolModule&#45;&gt;ImportUserModule -->
<g id="edge3" class="edge">
<title>SchoolModule&#45;&gt;ImportUserModule</title>
<path fill="none" stroke="black" d="M974,-85.07C974,-103.36 974,-128.8 974,-128.8 974,-128.8 720.09,-128.8 720.09,-128.8"/>
<polygon fill="black" stroke="black" points="720.09,-125.3 710.09,-128.8 720.09,-132.3 720.09,-125.3"/>
</g>
<!-- ImportUserRepo -->
<g id="node5" class="node">
<title>ImportUserRepo</title>
<ellipse fill="#fdb462" stroke="black" cx="825" cy="-66.8" rx="75.88" ry="18"/>
<text text-anchor="middle" x="825" y="-62.6" font-family="Times,serif" font-size="14.00">ImportUserRepo</text>
</g>
<!-- ImportUserRepo&#45;&gt;ImportUserModule -->
<g id="edge4" class="edge">
<title>ImportUserRepo&#45;&gt;ImportUserModule</title>
<path fill="none" stroke="black" d="M825,-84.81C825,-100.85 825,-121.8 825,-121.8 825,-121.8 720.4,-121.8 720.4,-121.8"/>
<polygon fill="black" stroke="black" points="720.4,-118.3 710.4,-121.8 720.4,-125.3 720.4,-118.3"/>
</g>
<!-- PermissionService -->
<g id="node6" class="node">
<title>PermissionService</title>
<ellipse fill="#fdb462" stroke="black" cx="648" cy="-66.8" rx="82.83" ry="18"/>
<text text-anchor="middle" x="648" y="-62.6" font-family="Times,serif" font-size="14.00">PermissionService</text>
</g>
<!-- PermissionService&#45;&gt;ImportUserModule -->
<g id="edge5" class="edge">
<title>PermissionService&#45;&gt;ImportUserModule</title>
<path fill="none" stroke="black" d="M648,-84.91C648,-84.91 648,-103.79 648,-103.79"/>
<polygon fill="black" stroke="black" points="644.5,-103.79 648,-113.79 651.5,-103.79 644.5,-103.79"/>
</g>
<!-- SchoolRepo -->
<g id="node7" class="node">
<title>SchoolRepo</title>
<ellipse fill="#fdb462" stroke="black" cx="489" cy="-66.8" rx="58.49" ry="18"/>
<text text-anchor="middle" x="489" y="-62.6" font-family="Times,serif" font-size="14.00">SchoolRepo</text>
</g>
<!-- SchoolRepo&#45;&gt;ImportUserModule -->
<g id="edge6" class="edge">
<title>SchoolRepo&#45;&gt;ImportUserModule</title>
<path fill="none" stroke="black" d="M489,-84.81C489,-100.85 489,-121.8 489,-121.8 489,-121.8 575.62,-121.8 575.62,-121.8"/>
<polygon fill="black" stroke="black" points="575.62,-125.3 585.62,-121.8 575.62,-118.3 575.62,-125.3"/>
</g>
<!-- SystemRepo -->
<g id="node8" class="node">
<title>SystemRepo</title>
<ellipse fill="#fdb462" stroke="black" cx="353" cy="-66.8" rx="59.72" ry="18"/>
<text text-anchor="middle" x="353" y="-62.6" font-family="Times,serif" font-size="14.00">SystemRepo</text>
</g>
<!-- SystemRepo&#45;&gt;ImportUserModule -->
<g id="edge7" class="edge">
<title>SystemRepo&#45;&gt;ImportUserModule</title>
<path fill="none" stroke="black" d="M353,-85.07C353,-103.36 353,-128.8 353,-128.8 353,-128.8 575.8,-128.8 575.8,-128.8"/>
<polygon fill="black" stroke="black" points="575.8,-132.3 585.8,-128.8 575.8,-125.3 575.8,-132.3"/>
</g>
<!-- UserImportUc -->
<g id="node9" class="node">
<title>UserImportUc</title>
<ellipse fill="#fdb462" stroke="black" cx="208" cy="-66.8" rx="66.63" ry="18"/>
<text text-anchor="middle" x="208" y="-62.6" font-family="Times,serif" font-size="14.00">UserImportUc</text>
</g>
<!-- UserImportUc&#45;&gt;ImportUserModule -->
<g id="edge8" class="edge">
<title>UserImportUc&#45;&gt;ImportUserModule</title>
<path fill="none" stroke="black" d="M208,-84.93C208,-105.37 208,-135.8 208,-135.8 208,-135.8 575.89,-135.8 575.89,-135.8"/>
<polygon fill="black" stroke="black" points="575.89,-139.3 585.89,-135.8 575.89,-132.3 575.89,-139.3"/>
</g>
<!-- UserRepo -->
<g id="node10" class="node">
<title>UserRepo</title>
<ellipse fill="#fdb462" stroke="black" cx="74" cy="-66.8" rx="49.81" ry="18"/>
<text text-anchor="middle" x="74" y="-62.6" font-family="Times,serif" font-size="14.00">UserRepo</text>
</g>
<!-- UserRepo&#45;&gt;ImportUserModule -->
<g id="edge9" class="edge">
<title>UserRepo&#45;&gt;ImportUserModule</title>
<path fill="none" stroke="black" d="M74,-84.81C74,-107.29 74,-142.8 74,-142.8 74,-142.8 575.75,-142.8 575.75,-142.8"/>
<polygon fill="black" stroke="black" points="575.75,-146.3 585.75,-142.8 575.75,-139.3 575.75,-146.3"/>
</g>
</g>
</svg>
