<?xml version="1.0" encoding="UTF-8" standalone="no"?>
<!DOCTYPE svg PUBLIC "-//W3C//DTD SVG 1.1//EN"
 "http://www.w3.org/Graphics/SVG/1.1/DTD/svg11.dtd">
<!-- Generated by graphviz version 2.47.0 (20210316.0004)
 -->
<!-- Title: dependencies Pages: 1 -->
<svg width="2660pt" height="284pt"
 viewBox="0.00 0.00 2660.00 284.00" xmlns="http://www.w3.org/2000/svg" xmlns:xlink="http://www.w3.org/1999/xlink">
<g id="graph0" class="graph" transform="scale(1 1) rotate(0) translate(4 280)">
<title>dependencies</title>
<polygon fill="white" stroke="transparent" points="-4,4 -4,-280 2656,-280 2656,4 -4,4"/>
<text text-anchor="start" x="1305.01" y="-42.4" font-family="Times-12" font-weight="bold" font-size="14.00">Legend</text>
<polygon fill="#ffffb3" stroke="transparent" points="1092,-10 1092,-30 1112,-30 1112,-10 1092,-10"/>
<text text-anchor="start" x="1115.63" y="-15.4" font-family="Times-12" font-size="14.00"> &#160;Declarations</text>
<polygon fill="#8dd3c7" stroke="transparent" points="1205,-10 1205,-30 1225,-30 1225,-10 1205,-10"/>
<text text-anchor="start" x="1228.73" y="-15.4" font-family="Times-12" font-size="14.00"> &#160;Module</text>
<polygon fill="#80b1d3" stroke="transparent" points="1291,-10 1291,-30 1311,-30 1311,-10 1291,-10"/>
<text text-anchor="start" x="1314.78" y="-15.4" font-family="Times-12" font-size="14.00"> &#160;Bootstrap</text>
<polygon fill="#fdb462" stroke="transparent" points="1388,-10 1388,-30 1408,-30 1408,-10 1388,-10"/>
<text text-anchor="start" x="1411.67" y="-15.4" font-family="Times-12" font-size="14.00"> &#160;Providers</text>
<polygon fill="#fb8072" stroke="transparent" points="1484,-10 1484,-30 1504,-30 1504,-10 1484,-10"/>
<text text-anchor="start" x="1507.73" y="-15.4" font-family="Times-12" font-size="14.00"> &#160;Exports</text>
<g id="clust1" class="cluster">
<title>cluster_ImportUserModule</title>
<polygon fill="none" stroke="black" stroke-dasharray="1,5" points="8,-70 8,-268 2644,-268 2644,-70 8,-70"/>
</g>
<g id="clust6" class="cluster">
<title>cluster_ImportUserModule_providers</title>
<polygon fill="none" stroke="black" points="1289,-78 1289,-130 2636,-130 2636,-78 1289,-78"/>
</g>
<g id="clust4" class="cluster">
<title>cluster_ImportUserModule_exports</title>
<polygon fill="none" stroke="black" points="1079,-208 1079,-260 1221,-260 1221,-208 1079,-208"/>
</g>
<g id="clust3" class="cluster">
<title>cluster_ImportUserModule_imports</title>
<polygon fill="none" stroke="black" points="16,-78 16,-130 1281,-130 1281,-78 16,-78"/>
</g>
<!-- AccountModule -->
<g id="node1" class="node">
<title>AccountModule</title>
<polygon fill="#8dd3c7" stroke="black" points="1273.48,-122 1270.48,-126 1249.48,-126 1246.48,-122 1166.52,-122 1166.52,-86 1273.48,-86 1273.48,-122"/>
<text text-anchor="middle" x="1220" y="-99.8" font-family="Times,serif" font-size="14.00">AccountModule</text>
</g>
<!-- ImportUserModule -->
<g id="node10" class="node">
<title>ImportUserModule</title>
<polygon fill="#8dd3c7" stroke="black" points="1212.08,-187 1209.08,-191 1188.08,-191 1185.08,-187 1087.92,-187 1087.92,-151 1212.08,-151 1212.08,-187"/>
<text text-anchor="middle" x="1150" y="-164.8" font-family="Times,serif" font-size="14.00">ImportUserModule</text>
</g>
<!-- AccountModule&#45;&gt;ImportUserModule -->
<g id="edge1" class="edge">
<title>AccountModule&#45;&gt;ImportUserModule</title>
<path fill="none" stroke="black" d="M1189.28,-122.11C1189.28,-122.11 1189.28,-140.99 1189.28,-140.99"/>
<polygon fill="black" stroke="black" points="1185.78,-140.99 1189.28,-150.99 1192.78,-140.99 1185.78,-140.99"/>
</g>
<!-- AuthorizationModule -->
<g id="node2" class="node">
<title>AuthorizationModule</title>
<polygon fill="#8dd3c7" stroke="black" points="1148.81,-122 1145.81,-126 1124.81,-126 1121.81,-122 1011.19,-122 1011.19,-86 1148.81,-86 1148.81,-122"/>
<text text-anchor="middle" x="1080" y="-99.8" font-family="Times,serif" font-size="14.00">AuthorizationModule</text>
</g>
<!-- AuthorizationModule&#45;&gt;ImportUserModule -->
<g id="edge2" class="edge">
<title>AuthorizationModule&#45;&gt;ImportUserModule</title>
<path fill="none" stroke="black" d="M1118.31,-122.11C1118.31,-122.11 1118.31,-140.99 1118.31,-140.99"/>
<polygon fill="black" stroke="black" points="1114.81,-140.99 1118.31,-150.99 1121.81,-140.99 1114.81,-140.99"/>
</g>
<!-- LegacySchoolModule -->
<g id="node3" class="node">
<title>LegacySchoolModule</title>
<polygon fill="#8dd3c7" stroke="black" points="993.63,-122 990.63,-126 969.63,-126 966.63,-122 854.37,-122 854.37,-86 993.63,-86 993.63,-122"/>
<text text-anchor="middle" x="924" y="-99.8" font-family="Times,serif" font-size="14.00">LegacySchoolModule</text>
</g>
<!-- LegacySchoolModule&#45;&gt;ImportUserModule -->
<g id="edge3" class="edge">
<title>LegacySchoolModule&#45;&gt;ImportUserModule</title>
<path fill="none" stroke="black" d="M924,-122.19C924,-137.18 924,-156 924,-156 924,-156 1077.95,-156 1077.95,-156"/>
<polygon fill="black" stroke="black" points="1077.95,-159.5 1087.95,-156 1077.95,-152.5 1077.95,-159.5"/>
</g>
<!-- LoggerModule -->
<g id="node4" class="node">
<title>LoggerModule</title>
<polygon fill="#8dd3c7" stroke="black" points="835.98,-122 832.98,-126 811.98,-126 808.98,-122 736.02,-122 736.02,-86 835.98,-86 835.98,-122"/>
<text text-anchor="middle" x="786" y="-99.8" font-family="Times,serif" font-size="14.00">LoggerModule</text>
</g>
<!-- LoggerModule&#45;&gt;ImportUserModule -->
<g id="edge4" class="edge">
<title>LoggerModule&#45;&gt;ImportUserModule</title>
<path fill="none" stroke="black" d="M786,-122.03C786,-138.4 786,-160 786,-160 786,-160 1077.84,-160 1077.84,-160"/>
<polygon fill="black" stroke="black" points="1077.84,-163.5 1087.84,-160 1077.84,-156.5 1077.84,-163.5"/>
</g>
<!-- OauthModule -->
<g id="node5" class="node">
<title>OauthModule</title>
<polygon fill="#8dd3c7" stroke="black" points="717.76,-122 714.76,-126 693.76,-126 690.76,-122 624.24,-122 624.24,-86 717.76,-86 717.76,-122"/>
<text text-anchor="middle" x="671" y="-99.8" font-family="Times,serif" font-size="14.00">OauthModule</text>
</g>
<!-- OauthModule&#45;&gt;ImportUserModule -->
<g id="edge5" class="edge">
<title>OauthModule&#45;&gt;ImportUserModule</title>
<path fill="none" stroke="black" d="M671,-122.3C671,-140.27 671,-165 671,-165 671,-165 1077.87,-165 1077.87,-165"/>
<polygon fill="black" stroke="black" points="1077.87,-168.5 1087.87,-165 1077.87,-161.5 1077.87,-168.5"/>
</g>
<!-- SchulconnexClientModule -->
<g id="node6" class="node">
<title>SchulconnexClientModule</title>
<polygon fill="#8dd3c7" stroke="black" points="606.09,-122 603.09,-126 582.09,-126 579.09,-122 439.91,-122 439.91,-86 606.09,-86 606.09,-122"/>
<text text-anchor="middle" x="523" y="-99.8" font-family="Times,serif" font-size="14.00">SchulconnexClientModule</text>
</g>
<!-- SchulconnexClientModule&#45;&gt;ImportUserModule -->
<g id="edge6" class="edge">
<title>SchulconnexClientModule&#45;&gt;ImportUserModule</title>
<path fill="none" stroke="black" d="M523,-122.11C523,-141.34 523,-169 523,-169 523,-169 1077.88,-169 1077.88,-169"/>
<polygon fill="black" stroke="black" points="1077.88,-172.5 1087.88,-169 1077.88,-165.5 1077.88,-172.5"/>
</g>
<!-- SystemModule -->
<g id="node7" class="node">
<title>SystemModule</title>
<polygon fill="#8dd3c7" stroke="black" points="422.27,-122 419.27,-126 398.27,-126 395.27,-122 321.73,-122 321.73,-86 422.27,-86 422.27,-122"/>
<text text-anchor="middle" x="372" y="-99.8" font-family="Times,serif" font-size="14.00">SystemModule</text>
</g>
<!-- SystemModule&#45;&gt;ImportUserModule -->
<g id="edge7" class="edge">
<title>SystemModule&#45;&gt;ImportUserModule</title>
<path fill="none" stroke="black" d="M372,-122.03C372,-142.77 372,-174 372,-174 372,-174 1077.65,-174 1077.65,-174"/>
<polygon fill="black" stroke="black" points="1077.65,-177.5 1087.65,-174 1077.65,-170.5 1077.65,-177.5"/>
</g>
<!-- UserLoginMigrationModule -->
<g id="node8" class="node">
<title>UserLoginMigrationModule</title>
<polygon fill="#8dd3c7" stroke="black" points="303.91,-122 300.91,-126 279.91,-126 276.91,-122 128.09,-122 128.09,-86 303.91,-86 303.91,-122"/>
<text text-anchor="middle" x="216" y="-99.8" font-family="Times,serif" font-size="14.00">UserLoginMigrationModule</text>
</g>
<!-- UserLoginMigrationModule&#45;&gt;ImportUserModule -->
<g id="edge8" class="edge">
<title>UserLoginMigrationModule&#45;&gt;ImportUserModule</title>
<path fill="none" stroke="black" d="M216,-122.29C216,-144.21 216,-178 216,-178 216,-178 1077.63,-178 1077.63,-178"/>
<polygon fill="black" stroke="black" points="1077.63,-181.5 1087.63,-178 1077.63,-174.5 1077.63,-181.5"/>
</g>
<!-- UserModule -->
<g id="node9" class="node">
<title>UserModule</title>
<polygon fill="#8dd3c7" stroke="black" points="109.98,-122 106.98,-126 85.98,-126 82.98,-122 24.02,-122 24.02,-86 109.98,-86 109.98,-122"/>
<text text-anchor="middle" x="67" y="-99.8" font-family="Times,serif" font-size="14.00">UserModule</text>
</g>
<!-- UserModule&#45;&gt;ImportUserModule -->
<g id="edge9" class="edge">
<title>UserModule&#45;&gt;ImportUserModule</title>
<path fill="none" stroke="black" d="M67,-122.32C67,-145.66 67,-183 67,-183 67,-183 1077.88,-183 1077.88,-183"/>
<polygon fill="black" stroke="black" points="1077.88,-186.5 1087.88,-183 1077.88,-179.5 1077.88,-186.5"/>
</g>
<!-- UserImportService  -->
<g id="node11" class="node">
<title>UserImportService </title>
<polygon fill="#fb8072" stroke="black" points="1213.01,-252 1086.99,-252 1086.99,-216 1213.01,-216 1213.01,-252"/>
<text text-anchor="middle" x="1150" y="-229.8" font-family="Times,serif" font-size="14.00">UserImportService </text>
</g>
<!-- ImportUserModule&#45;&gt;UserImportService  -->
<g id="edge10" class="edge">
<title>ImportUserModule&#45;&gt;UserImportService </title>
<path fill="none" stroke="black" stroke-dasharray="5,2" d="M1150,-187.11C1150,-187.11 1150,-205.99 1150,-205.99"/>
<polygon fill="black" stroke="black" points="1146.5,-205.99 1150,-215.99 1153.5,-205.99 1146.5,-205.99"/>
</g>
<!-- ImportUserRepo -->
<g id="node12" class="node">
<title>ImportUserRepo</title>
<ellipse fill="#fdb462" stroke="black" cx="2552" cy="-104" rx="75.86" ry="18"/>
<text text-anchor="middle" x="2552" y="-99.8" font-family="Times,serif" font-size="14.00">ImportUserRepo</text>
</g>
<!-- ImportUserRepo&#45;&gt;ImportUserModule -->
<g id="edge11" class="edge">
<title>ImportUserRepo&#45;&gt;ImportUserModule</title>
<path fill="none" stroke="black" d="M2552,-122.32C2552,-145.66 2552,-183 2552,-183 2552,-183 1222.05,-183 1222.05,-183"/>
<polygon fill="black" stroke="black" points="1222.05,-179.5 1212.05,-183 1222.05,-186.5 1222.05,-179.5"/>
</g>
<!-- LegacySchoolRepo -->
<g id="node13" class="node">
<title>LegacySchoolRepo</title>
<ellipse fill="#fdb462" stroke="black" cx="2371" cy="-104" rx="86.82" ry="18"/>
<text text-anchor="middle" x="2371" y="-99.8" font-family="Times,serif" font-size="14.00">LegacySchoolRepo</text>
</g>
<!-- LegacySchoolRepo&#45;&gt;ImportUserModule -->
<g id="edge12" class="edge">
<title>LegacySchoolRepo&#45;&gt;ImportUserModule</title>
<path fill="none" stroke="black" d="M2371,-122.29C2371,-144.21 2371,-178 2371,-178 2371,-178 1222.23,-178 1222.23,-178"/>
<polygon fill="black" stroke="black" points="1222.23,-174.5 1212.23,-178 1222.23,-181.5 1222.23,-174.5"/>
</g>
<!-- SchulconnexFetchImportUsersService -->
<g id="node14" class="node">
<title>SchulconnexFetchImportUsersService</title>
<ellipse fill="#fdb462" stroke="black" cx="2107" cy="-104" rx="159.69" ry="18"/>
<text text-anchor="middle" x="2107" y="-99.8" font-family="Times,serif" font-size="14.00">SchulconnexFetchImportUsersService</text>
</g>
<!-- SchulconnexFetchImportUsersService&#45;&gt;ImportUserModule -->
<g id="edge13" class="edge">
<title>SchulconnexFetchImportUsersService&#45;&gt;ImportUserModule</title>
<path fill="none" stroke="black" d="M2107,-122.03C2107,-142.77 2107,-174 2107,-174 2107,-174 1222.05,-174 1222.05,-174"/>
<polygon fill="black" stroke="black" points="1222.05,-170.5 1212.05,-174 1222.05,-177.5 1222.05,-170.5"/>
</g>
<!-- UserImportFetchUc -->
<g id="node15" class="node">
<title>UserImportFetchUc</title>
<ellipse fill="#fdb462" stroke="black" cx="1841" cy="-104" rx="88.02" ry="18"/>
<text text-anchor="middle" x="1841" y="-99.8" font-family="Times,serif" font-size="14.00">UserImportFetchUc</text>
</g>
<!-- UserImportFetchUc&#45;&gt;ImportUserModule -->
<g id="edge14" class="edge">
<title>UserImportFetchUc&#45;&gt;ImportUserModule</title>
<path fill="none" stroke="black" d="M1841,-122.11C1841,-141.34 1841,-169 1841,-169 1841,-169 1222.23,-169 1222.23,-169"/>
<polygon fill="black" stroke="black" points="1222.23,-165.5 1212.23,-169 1222.23,-172.5 1222.23,-165.5"/>
</g>
<!-- UserImportService -->
<g id="node16" class="node">
<title>UserImportService</title>
<ellipse fill="#fdb462" stroke="black" cx="1650" cy="-104" rx="84.51" ry="18"/>
<text text-anchor="middle" x="1650" y="-99.8" font-family="Times,serif" font-size="14.00">UserImportService</text>
</g>
<!-- UserImportService&#45;&gt;ImportUserModule -->
<g id="edge15" class="edge">
<title>UserImportService&#45;&gt;ImportUserModule</title>
<path fill="none" stroke="black" d="M1650,-122.3C1650,-140.27 1650,-165 1650,-165 1650,-165 1222.06,-165 1222.06,-165"/>
<polygon fill="black" stroke="black" points="1222.06,-161.5 1212.06,-165 1222.06,-168.5 1222.06,-161.5"/>
</g>
<!-- UserImportUc -->
<g id="node17" class="node">
<title>UserImportUc</title>
<ellipse fill="#fdb462" stroke="black" cx="1481" cy="-104" rx="66.61" ry="18"/>
<text text-anchor="middle" x="1481" y="-99.8" font-family="Times,serif" font-size="14.00">UserImportUc</text>
</g>
<!-- UserImportUc&#45;&gt;ImportUserModule -->
<g id="edge16" class="edge">
<title>UserImportUc&#45;&gt;ImportUserModule</title>
<path fill="none" stroke="black" d="M1481,-122.03C1481,-138.4 1481,-160 1481,-160 1481,-160 1222.26,-160 1222.26,-160"/>
<polygon fill="black" stroke="black" points="1222.26,-156.5 1212.26,-160 1222.26,-163.5 1222.26,-156.5"/>
</g>
<!-- UserRepo -->
<g id="node18" class="node">
<title>UserRepo</title>
<ellipse fill="#fdb462" stroke="black" cx="1347" cy="-104" rx="49.8" ry="18"/>
<text text-anchor="middle" x="1347" y="-99.8" font-family="Times,serif" font-size="14.00">UserRepo</text>
</g>
<!-- UserRepo&#45;&gt;ImportUserModule -->
<g id="edge17" class="edge">
<title>UserRepo&#45;&gt;ImportUserModule</title>
<path fill="none" stroke="black" d="M1347,-122.19C1347,-137.18 1347,-156 1347,-156 1347,-156 1222.06,-156 1222.06,-156"/>
<polygon fill="black" stroke="black" points="1222.06,-152.5 1212.06,-156 1222.06,-159.5 1222.06,-152.5"/>
</g>
</g>
</svg>
