<?xml version="1.0" encoding="UTF-8" standalone="no"?>
<!DOCTYPE svg PUBLIC "-//W3C//DTD SVG 1.1//EN"
 "http://www.w3.org/Graphics/SVG/1.1/DTD/svg11.dtd">
<!-- Generated by graphviz version 2.47.0 (20210316.0004)
 -->
<!-- Title: dependencies Pages: 1 -->
<svg width="2660pt" height="284pt"
 viewBox="0.00 0.00 2660.00 284.00" xmlns="http://www.w3.org/2000/svg" xmlns:xlink="http://www.w3.org/1999/xlink">
<g id="graph0" class="graph" transform="scale(1 1) rotate(0) translate(4 280)">
<title>dependencies</title>
<polygon fill="white" stroke="transparent" points="-4,4 -4,-280 2656,-280 2656,4 -4,4"/>
<text text-anchor="start" x="1305.01" y="-42.4" font-family="Times-12" font-weight="bold" font-size="14.00">Legend</text>
<polygon fill="#ffffb3" stroke="transparent" points="1092,-10 1092,-30 1112,-30 1112,-10 1092,-10"/>
<text text-anchor="start" x="1115.63" y="-15.4" font-family="Times-12" font-size="14.00"> &#160;Declarations</text>
<polygon fill="#8dd3c7" stroke="transparent" points="1205,-10 1205,-30 1225,-30 1225,-10 1205,-10"/>
<text text-anchor="start" x="1228.73" y="-15.4" font-family="Times-12" font-size="14.00"> &#160;Module</text>
<polygon fill="#80b1d3" stroke="transparent" points="1291,-10 1291,-30 1311,-30 1311,-10 1291,-10"/>
<text text-anchor="start" x="1314.78" y="-15.4" font-family="Times-12" font-size="14.00"> &#160;Bootstrap</text>
<polygon fill="#fdb462" stroke="transparent" points="1388,-10 1388,-30 1408,-30 1408,-10 1388,-10"/>
<text text-anchor="start" x="1411.67" y="-15.4" font-family="Times-12" font-size="14.00"> &#160;Providers</text>
<polygon fill="#fb8072" stroke="transparent" points="1484,-10 1484,-30 1504,-30 1504,-10 1484,-10"/>
<text text-anchor="start" x="1507.73" y="-15.4" font-family="Times-12" font-size="14.00"> &#160;Exports</text>
<g id="clust1" class="cluster">
<title>cluster_ImportUserModule</title>
<polygon fill="none" stroke="black" stroke-dasharray="1,5" points="8,-70 8,-268 2644,-268 2644,-70 8,-70"/>
</g>
<g id="clust4" class="cluster">
<title>cluster_ImportUserModule_exports</title>
<polygon fill="none" stroke="black" points="1425,-208 1425,-260 1567,-260 1567,-208 1425,-208"/>
</g>
<g id="clust3" class="cluster">
<title>cluster_ImportUserModule_imports</title>
<polygon fill="none" stroke="black" points="1371,-78 1371,-130 2636,-130 2636,-78 1371,-78"/>
</g>
<g id="clust6" class="cluster">
<title>cluster_ImportUserModule_providers</title>
<polygon fill="none" stroke="black" points="16,-78 16,-130 1363,-130 1363,-78 16,-78"/>
</g>
<!-- AccountModule -->
<g id="node1" class="node">
<title>AccountModule</title>
<polygon fill="#8dd3c7" stroke="black" points="2628.48,-122 2625.48,-126 2604.48,-126 2601.48,-122 2521.52,-122 2521.52,-86 2628.48,-86 2628.48,-122"/>
<text text-anchor="middle" x="2575" y="-99.8" font-family="Times,serif" font-size="14.00">AccountModule</text>
</g>
<!-- ImportUserModule -->
<g id="node10" class="node">
<title>ImportUserModule</title>
<polygon fill="#8dd3c7" stroke="black" points="1558.08,-187 1555.08,-191 1534.08,-191 1531.08,-187 1433.92,-187 1433.92,-151 1558.08,-151 1558.08,-187"/>
<text text-anchor="middle" x="1496" y="-164.8" font-family="Times,serif" font-size="14.00">ImportUserModule</text>
</g>
<!-- AccountModule&#45;&gt;ImportUserModule -->
<g id="edge1" class="edge">
<title>AccountModule&#45;&gt;ImportUserModule</title>
<path fill="none" stroke="black" d="M2575,-122.32C2575,-145.66 2575,-183 2575,-183 2575,-183 1568.28,-183 1568.28,-183"/>
<polygon fill="black" stroke="black" points="1568.28,-179.5 1558.28,-183 1568.28,-186.5 1568.28,-179.5"/>
</g>
<!-- AuthorizationModule -->
<g id="node2" class="node">
<title>AuthorizationModule</title>
<polygon fill="#8dd3c7" stroke="black" points="2503.81,-122 2500.81,-126 2479.81,-126 2476.81,-122 2366.19,-122 2366.19,-86 2503.81,-86 2503.81,-122"/>
<text text-anchor="middle" x="2435" y="-99.8" font-family="Times,serif" font-size="14.00">AuthorizationModule</text>
</g>
<!-- AuthorizationModule&#45;&gt;ImportUserModule -->
<g id="edge2" class="edge">
<title>AuthorizationModule&#45;&gt;ImportUserModule</title>
<path fill="none" stroke="black" d="M2435,-122.29C2435,-144.21 2435,-178 2435,-178 2435,-178 1568.34,-178 1568.34,-178"/>
<polygon fill="black" stroke="black" points="1568.34,-174.5 1558.34,-178 1568.34,-181.5 1568.34,-174.5"/>
</g>
<!-- LegacySchoolModule -->
<g id="node3" class="node">
<title>LegacySchoolModule</title>
<polygon fill="#8dd3c7" stroke="black" points="2348.63,-122 2345.63,-126 2324.63,-126 2321.63,-122 2209.37,-122 2209.37,-86 2348.63,-86 2348.63,-122"/>
<text text-anchor="middle" x="2279" y="-99.8" font-family="Times,serif" font-size="14.00">LegacySchoolModule</text>
</g>
<!-- LegacySchoolModule&#45;&gt;ImportUserModule -->
<g id="edge3" class="edge">
<title>LegacySchoolModule&#45;&gt;ImportUserModule</title>
<path fill="none" stroke="black" d="M2279,-122.03C2279,-142.77 2279,-174 2279,-174 2279,-174 1568.1,-174 1568.1,-174"/>
<polygon fill="black" stroke="black" points="1568.1,-170.5 1558.1,-174 1568.1,-177.5 1568.1,-170.5"/>
</g>
<!-- LoggerModule -->
<g id="node4" class="node">
<title>LoggerModule</title>
<polygon fill="#8dd3c7" stroke="black" points="2190.98,-122 2187.98,-126 2166.98,-126 2163.98,-122 2091.02,-122 2091.02,-86 2190.98,-86 2190.98,-122"/>
<text text-anchor="middle" x="2141" y="-99.8" font-family="Times,serif" font-size="14.00">LoggerModule</text>
</g>
<!-- LoggerModule&#45;&gt;ImportUserModule -->
<g id="edge4" class="edge">
<title>LoggerModule&#45;&gt;ImportUserModule</title>
<path fill="none" stroke="black" d="M2141,-122.11C2141,-141.34 2141,-169 2141,-169 2141,-169 1568.14,-169 1568.14,-169"/>
<polygon fill="black" stroke="black" points="1568.14,-165.5 1558.14,-169 1568.14,-172.5 1568.14,-165.5"/>
</g>
<!-- OauthModule -->
<g id="node5" class="node">
<title>OauthModule</title>
<polygon fill="#8dd3c7" stroke="black" points="2072.76,-122 2069.76,-126 2048.76,-126 2045.76,-122 1979.24,-122 1979.24,-86 2072.76,-86 2072.76,-122"/>
<text text-anchor="middle" x="2026" y="-99.8" font-family="Times,serif" font-size="14.00">OauthModule</text>
</g>
<!-- OauthModule&#45;&gt;ImportUserModule -->
<g id="edge5" class="edge">
<title>OauthModule&#45;&gt;ImportUserModule</title>
<path fill="none" stroke="black" d="M2026,-122.3C2026,-140.27 2026,-165 2026,-165 2026,-165 1568.1,-165 1568.1,-165"/>
<polygon fill="black" stroke="black" points="1568.1,-161.5 1558.1,-165 1568.1,-168.5 1568.1,-161.5"/>
</g>
<!-- SchulconnexClientModule -->
<g id="node6" class="node">
<title>SchulconnexClientModule</title>
<polygon fill="#8dd3c7" stroke="black" points="1961.09,-122 1958.09,-126 1937.09,-126 1934.09,-122 1794.91,-122 1794.91,-86 1961.09,-86 1961.09,-122"/>
<text text-anchor="middle" x="1878" y="-99.8" font-family="Times,serif" font-size="14.00">SchulconnexClientModule</text>
</g>
<!-- SchulconnexClientModule&#45;&gt;ImportUserModule -->
<g id="edge6" class="edge">
<title>SchulconnexClientModule&#45;&gt;ImportUserModule</title>
<path fill="none" stroke="black" d="M1878,-122.03C1878,-138.4 1878,-160 1878,-160 1878,-160 1568.23,-160 1568.23,-160"/>
<polygon fill="black" stroke="black" points="1568.23,-156.5 1558.23,-160 1568.23,-163.5 1568.23,-156.5"/>
</g>
<!-- SystemModule -->
<g id="node7" class="node">
<title>SystemModule</title>
<polygon fill="#8dd3c7" stroke="black" points="1777.27,-122 1774.27,-126 1753.27,-126 1750.27,-122 1676.73,-122 1676.73,-86 1777.27,-86 1777.27,-122"/>
<text text-anchor="middle" x="1727" y="-99.8" font-family="Times,serif" font-size="14.00">SystemModule</text>
</g>
<!-- SystemModule&#45;&gt;ImportUserModule -->
<g id="edge7" class="edge">
<title>SystemModule&#45;&gt;ImportUserModule</title>
<path fill="none" stroke="black" d="M1727,-122.19C1727,-137.18 1727,-156 1727,-156 1727,-156 1568.21,-156 1568.21,-156"/>
<polygon fill="black" stroke="black" points="1568.21,-152.5 1558.21,-156 1568.21,-159.5 1568.21,-152.5"/>
</g>
<!-- UserLoginMigrationModule -->
<g id="node8" class="node">
<title>UserLoginMigrationModule</title>
<polygon fill="#8dd3c7" stroke="black" points="1658.91,-122 1655.91,-126 1634.91,-126 1631.91,-122 1483.09,-122 1483.09,-86 1658.91,-86 1658.91,-122"/>
<text text-anchor="middle" x="1571" y="-99.8" font-family="Times,serif" font-size="14.00">UserLoginMigrationModule</text>
</g>
<!-- UserLoginMigrationModule&#45;&gt;ImportUserModule -->
<g id="edge8" class="edge">
<title>UserLoginMigrationModule&#45;&gt;ImportUserModule</title>
<path fill="none" stroke="black" d="M1520.67,-122.11C1520.67,-122.11 1520.67,-140.99 1520.67,-140.99"/>
<polygon fill="black" stroke="black" points="1517.17,-140.99 1520.67,-150.99 1524.17,-140.99 1517.17,-140.99"/>
</g>
<!-- UserModule -->
<g id="node9" class="node">
<title>UserModule</title>
<polygon fill="#8dd3c7" stroke="black" points="1464.98,-122 1461.98,-126 1440.98,-126 1437.98,-122 1379.02,-122 1379.02,-86 1464.98,-86 1464.98,-122"/>
<text text-anchor="middle" x="1422" y="-99.8" font-family="Times,serif" font-size="14.00">UserModule</text>
</g>
<!-- UserModule&#45;&gt;ImportUserModule -->
<g id="edge9" class="edge">
<title>UserModule&#45;&gt;ImportUserModule</title>
<path fill="none" stroke="black" d="M1449.47,-122.11C1449.47,-122.11 1449.47,-140.99 1449.47,-140.99"/>
<polygon fill="black" stroke="black" points="1445.97,-140.99 1449.47,-150.99 1452.97,-140.99 1445.97,-140.99"/>
</g>
<!-- UserImportService  -->
<g id="node11" class="node">
<title>UserImportService </title>
<polygon fill="#fb8072" stroke="black" points="1559.01,-252 1432.99,-252 1432.99,-216 1559.01,-216 1559.01,-252"/>
<text text-anchor="middle" x="1496" y="-229.8" font-family="Times,serif" font-size="14.00">UserImportService </text>
</g>
<!-- ImportUserModule&#45;&gt;UserImportService  -->
<g id="edge10" class="edge">
<title>ImportUserModule&#45;&gt;UserImportService </title>
<path fill="none" stroke="black" stroke-dasharray="5,2" d="M1496,-187.11C1496,-187.11 1496,-205.99 1496,-205.99"/>
<polygon fill="black" stroke="black" points="1492.5,-205.99 1496,-215.99 1499.5,-205.99 1492.5,-205.99"/>
</g>
<!-- ImportUserRepo -->
<g id="node12" class="node">
<title>ImportUserRepo</title>
<ellipse fill="#fdb462" stroke="black" cx="1279" cy="-104" rx="75.86" ry="18"/>
<text text-anchor="middle" x="1279" y="-99.8" font-family="Times,serif" font-size="14.00">ImportUserRepo</text>
</g>
<!-- ImportUserRepo&#45;&gt;ImportUserModule -->
<g id="edge11" class="edge">
<title>ImportUserRepo&#45;&gt;ImportUserModule</title>
<path fill="none" stroke="black" d="M1279,-122.19C1279,-137.18 1279,-156 1279,-156 1279,-156 1423.82,-156 1423.82,-156"/>
<polygon fill="black" stroke="black" points="1423.82,-159.5 1433.82,-156 1423.82,-152.5 1423.82,-159.5"/>
</g>
<!-- LegacySchoolRepo -->
<g id="node13" class="node">
<title>LegacySchoolRepo</title>
<ellipse fill="#fdb462" stroke="black" cx="1098" cy="-104" rx="86.82" ry="18"/>
<text text-anchor="middle" x="1098" y="-99.8" font-family="Times,serif" font-size="14.00">LegacySchoolRepo</text>
</g>
<!-- LegacySchoolRepo&#45;&gt;ImportUserModule -->
<g id="edge12" class="edge">
<title>LegacySchoolRepo&#45;&gt;ImportUserModule</title>
<path fill="none" stroke="black" d="M1098,-122.03C1098,-138.4 1098,-160 1098,-160 1098,-160 1423.81,-160 1423.81,-160"/>
<polygon fill="black" stroke="black" points="1423.81,-163.5 1433.81,-160 1423.81,-156.5 1423.81,-163.5"/>
</g>
<!-- SchulconnexFetchImportUsersService -->
<g id="node14" class="node">
<title>SchulconnexFetchImportUsersService</title>
<ellipse fill="#fdb462" stroke="black" cx="834" cy="-104" rx="159.69" ry="18"/>
<text text-anchor="middle" x="834" y="-99.8" font-family="Times,serif" font-size="14.00">SchulconnexFetchImportUsersService</text>
</g>
<!-- SchulconnexFetchImportUsersService&#45;&gt;ImportUserModule -->
<g id="edge13" class="edge">
<title>SchulconnexFetchImportUsersService&#45;&gt;ImportUserModule</title>
<path fill="none" stroke="black" d="M834,-122.3C834,-140.27 834,-165 834,-165 834,-165 1423.72,-165 1423.72,-165"/>
<polygon fill="black" stroke="black" points="1423.72,-168.5 1433.72,-165 1423.72,-161.5 1423.72,-168.5"/>
</g>
<!-- UserImportFetchUc -->
<g id="node15" class="node">
<title>UserImportFetchUc</title>
<ellipse fill="#fdb462" stroke="black" cx="568" cy="-104" rx="88.02" ry="18"/>
<text text-anchor="middle" x="568" y="-99.8" font-family="Times,serif" font-size="14.00">UserImportFetchUc</text>
</g>
<!-- UserImportFetchUc&#45;&gt;ImportUserModule -->
<g id="edge14" class="edge">
<title>UserImportFetchUc&#45;&gt;ImportUserModule</title>
<path fill="none" stroke="black" d="M568,-122.11C568,-141.34 568,-169 568,-169 568,-169 1423.67,-169 1423.67,-169"/>
<polygon fill="black" stroke="black" points="1423.67,-172.5 1433.67,-169 1423.67,-165.5 1423.67,-172.5"/>
</g>
<!-- UserImportService -->
<g id="node16" class="node">
<title>UserImportService</title>
<ellipse fill="#fdb462" stroke="black" cx="377" cy="-104" rx="84.51" ry="18"/>
<text text-anchor="middle" x="377" y="-99.8" font-family="Times,serif" font-size="14.00">UserImportService</text>
</g>
<!-- UserImportService&#45;&gt;ImportUserModule -->
<g id="edge15" class="edge">
<title>UserImportService&#45;&gt;ImportUserModule</title>
<path fill="none" stroke="black" d="M377,-122.03C377,-142.77 377,-174 377,-174 377,-174 1423.84,-174 1423.84,-174"/>
<polygon fill="black" stroke="black" points="1423.84,-177.5 1433.84,-174 1423.84,-170.5 1423.84,-177.5"/>
</g>
<!-- UserImportUc -->
<g id="node17" class="node">
<title>UserImportUc</title>
<ellipse fill="#fdb462" stroke="black" cx="208" cy="-104" rx="66.61" ry="18"/>
<text text-anchor="middle" x="208" y="-99.8" font-family="Times,serif" font-size="14.00">UserImportUc</text>
</g>
<!-- UserImportUc&#45;&gt;ImportUserModule -->
<g id="edge16" class="edge">
<title>UserImportUc&#45;&gt;ImportUserModule</title>
<path fill="none" stroke="black" d="M208,-122.29C208,-144.21 208,-178 208,-178 208,-178 1423.88,-178 1423.88,-178"/>
<polygon fill="black" stroke="black" points="1423.88,-181.5 1433.88,-178 1423.88,-174.5 1423.88,-181.5"/>
</g>
<!-- UserRepo -->
<g id="node18" class="node">
<title>UserRepo</title>
<ellipse fill="#fdb462" stroke="black" cx="74" cy="-104" rx="49.8" ry="18"/>
<text text-anchor="middle" x="74" y="-99.8" font-family="Times,serif" font-size="14.00">UserRepo</text>
</g>
<!-- UserRepo&#45;&gt;ImportUserModule -->
<g id="edge17" class="edge">
<title>UserRepo&#45;&gt;ImportUserModule</title>
<path fill="none" stroke="black" d="M74,-122.32C74,-145.66 74,-183 74,-183 74,-183 1423.52,-183 1423.52,-183"/>
<polygon fill="black" stroke="black" points="1423.52,-186.5 1433.52,-183 1423.52,-179.5 1423.52,-186.5"/>
</g>
</g>
</svg>
