<?xml version="1.0" encoding="UTF-8" standalone="no"?>
<!DOCTYPE svg PUBLIC "-//W3C//DTD SVG 1.1//EN"
 "http://www.w3.org/Graphics/SVG/1.1/DTD/svg11.dtd">
<!-- Generated by graphviz version 2.47.0 (20210316.0004)
 -->
<!-- Title: dependencies Pages: 1 -->
<svg width="2841pt" height="284pt"
 viewBox="0.00 0.00 2841.00 284.00" xmlns="http://www.w3.org/2000/svg" xmlns:xlink="http://www.w3.org/1999/xlink">
<g id="graph0" class="graph" transform="scale(1 1) rotate(0) translate(4 280)">
<title>dependencies</title>
<polygon fill="white" stroke="transparent" points="-4,4 -4,-280 2837,-280 2837,4 -4,4"/>
<text text-anchor="start" x="1395.51" y="-42.4" font-family="Times-12" font-weight="bold" font-size="14.00">Legend</text>
<polygon fill="#ffffb3" stroke="transparent" points="1182.5,-10 1182.5,-30 1202.5,-30 1202.5,-10 1182.5,-10"/>
<text text-anchor="start" x="1206.13" y="-15.4" font-family="Times-12" font-size="14.00"> &#160;Declarations</text>
<polygon fill="#8dd3c7" stroke="transparent" points="1295.5,-10 1295.5,-30 1315.5,-30 1315.5,-10 1295.5,-10"/>
<text text-anchor="start" x="1319.23" y="-15.4" font-family="Times-12" font-size="14.00"> &#160;Module</text>
<polygon fill="#80b1d3" stroke="transparent" points="1381.5,-10 1381.5,-30 1401.5,-30 1401.5,-10 1381.5,-10"/>
<text text-anchor="start" x="1405.28" y="-15.4" font-family="Times-12" font-size="14.00"> &#160;Bootstrap</text>
<polygon fill="#fdb462" stroke="transparent" points="1478.5,-10 1478.5,-30 1498.5,-30 1498.5,-10 1478.5,-10"/>
<text text-anchor="start" x="1502.17" y="-15.4" font-family="Times-12" font-size="14.00"> &#160;Providers</text>
<polygon fill="#fb8072" stroke="transparent" points="1574.5,-10 1574.5,-30 1594.5,-30 1594.5,-10 1574.5,-10"/>
<text text-anchor="start" x="1598.23" y="-15.4" font-family="Times-12" font-size="14.00"> &#160;Exports</text>
<g id="clust1" class="cluster">
<title>cluster_ImportUserModule</title>
<polygon fill="none" stroke="black" stroke-dasharray="1,5" points="8,-70 8,-268 2825,-268 2825,-70 8,-70"/>
</g>
<g id="clust4" class="cluster">
<title>cluster_ImportUserModule_exports</title>
<polygon fill="none" stroke="black" points="1500,-208 1500,-260 1642,-260 1642,-208 1500,-208"/>
</g>
<g id="clust3" class="cluster">
<title>cluster_ImportUserModule_imports</title>
<polygon fill="none" stroke="black" points="1371,-78 1371,-130 2817,-130 2817,-78 1371,-78"/>
</g>
<g id="clust6" class="cluster">
<title>cluster_ImportUserModule_providers</title>
<polygon fill="none" stroke="black" points="16,-78 16,-130 1363,-130 1363,-78 16,-78"/>
</g>
<!-- AccountModule -->
<g id="node1" class="node">
<title>AccountModule</title>
<polygon fill="#8dd3c7" stroke="black" points="2809.48,-122 2806.48,-126 2785.48,-126 2782.48,-122 2702.52,-122 2702.52,-86 2809.48,-86 2809.48,-122"/>
<text text-anchor="middle" x="2756" y="-99.8" font-family="Times,serif" font-size="14.00">AccountModule</text>
</g>
<!-- ImportUserModule -->
<g id="node11" class="node">
<title>ImportUserModule</title>
<polygon fill="#8dd3c7" stroke="black" points="1633.08,-187 1630.08,-191 1609.08,-191 1606.08,-187 1508.92,-187 1508.92,-151 1633.08,-151 1633.08,-187"/>
<text text-anchor="middle" x="1571" y="-164.8" font-family="Times,serif" font-size="14.00">ImportUserModule</text>
</g>
<!-- AccountModule&#45;&gt;ImportUserModule -->
<g id="edge1" class="edge">
<title>AccountModule&#45;&gt;ImportUserModule</title>
<path fill="none" stroke="black" d="M2756,-122.32C2756,-145.66 2756,-183 2756,-183 2756,-183 1643.04,-183 1643.04,-183"/>
<polygon fill="black" stroke="black" points="1643.04,-179.5 1633.04,-183 1643.04,-186.5 1643.04,-179.5"/>
</g>
<!-- AuthorizationModule -->
<g id="node2" class="node">
<title>AuthorizationModule</title>
<polygon fill="#8dd3c7" stroke="black" points="2684.81,-122 2681.81,-126 2660.81,-126 2657.81,-122 2547.19,-122 2547.19,-86 2684.81,-86 2684.81,-122"/>
<text text-anchor="middle" x="2616" y="-99.8" font-family="Times,serif" font-size="14.00">AuthorizationModule</text>
</g>
<!-- AuthorizationModule&#45;&gt;ImportUserModule -->
<g id="edge2" class="edge">
<title>AuthorizationModule&#45;&gt;ImportUserModule</title>
<path fill="none" stroke="black" d="M2616,-122.16C2616,-144.35 2616,-179 2616,-179 2616,-179 1643.24,-179 1643.24,-179"/>
<polygon fill="black" stroke="black" points="1643.24,-175.5 1633.24,-179 1643.24,-182.5 1643.24,-175.5"/>
</g>
<!-- LegacySchoolModule -->
<g id="node3" class="node">
<title>LegacySchoolModule</title>
<polygon fill="#8dd3c7" stroke="black" points="2529.63,-122 2526.63,-126 2505.63,-126 2502.63,-122 2390.37,-122 2390.37,-86 2529.63,-86 2529.63,-122"/>
<text text-anchor="middle" x="2460" y="-99.8" font-family="Times,serif" font-size="14.00">LegacySchoolModule</text>
</g>
<!-- LegacySchoolModule&#45;&gt;ImportUserModule -->
<g id="edge3" class="edge">
<title>LegacySchoolModule&#45;&gt;ImportUserModule</title>
<path fill="none" stroke="black" d="M2460,-122.28C2460,-143.32 2460,-175 2460,-175 2460,-175 1643.16,-175 1643.16,-175"/>
<polygon fill="black" stroke="black" points="1643.16,-171.5 1633.16,-175 1643.16,-178.5 1643.16,-171.5"/>
</g>
<!-- LoggerModule -->
<g id="node4" class="node">
<title>LoggerModule</title>
<polygon fill="#8dd3c7" stroke="black" points="2371.98,-122 2368.98,-126 2347.98,-126 2344.98,-122 2272.02,-122 2272.02,-86 2371.98,-86 2371.98,-122"/>
<text text-anchor="middle" x="2322" y="-99.8" font-family="Times,serif" font-size="14.00">LoggerModule</text>
</g>
<!-- LoggerModule&#45;&gt;ImportUserModule -->
<g id="edge4" class="edge">
<title>LoggerModule&#45;&gt;ImportUserModule</title>
<path fill="none" stroke="black" d="M2322,-122.31C2322,-142.15 2322,-171 2322,-171 2322,-171 1643.1,-171 1643.1,-171"/>
<polygon fill="black" stroke="black" points="1643.1,-167.5 1633.1,-171 1643.1,-174.5 1643.1,-167.5"/>
</g>
<!-- OauthModule -->
<g id="node5" class="node">
<title>OauthModule</title>
<polygon fill="#8dd3c7" stroke="black" points="2253.76,-122 2250.76,-126 2229.76,-126 2226.76,-122 2160.24,-122 2160.24,-86 2253.76,-86 2253.76,-122"/>
<text text-anchor="middle" x="2207" y="-99.8" font-family="Times,serif" font-size="14.00">OauthModule</text>
</g>
<!-- OauthModule&#45;&gt;ImportUserModule -->
<g id="edge5" class="edge">
<title>OauthModule&#45;&gt;ImportUserModule</title>
<path fill="none" stroke="black" d="M2207,-122.22C2207,-140.83 2207,-167 2207,-167 2207,-167 1643.14,-167 1643.14,-167"/>
<polygon fill="black" stroke="black" points="1643.14,-163.5 1633.14,-167 1643.14,-170.5 1643.14,-163.5"/>
</g>
<!-- SchulconnexClientModule -->
<g id="node6" class="node">
<title>SchulconnexClientModule</title>
<polygon fill="#8dd3c7" stroke="black" points="2142.09,-122 2139.09,-126 2118.09,-126 2115.09,-122 1975.91,-122 1975.91,-86 2142.09,-86 2142.09,-122"/>
<text text-anchor="middle" x="2059" y="-99.8" font-family="Times,serif" font-size="14.00">SchulconnexClientModule</text>
</g>
<!-- SchulconnexClientModule&#45;&gt;ImportUserModule -->
<g id="edge6" class="edge">
<title>SchulconnexClientModule&#45;&gt;ImportUserModule</title>
<path fill="none" stroke="black" d="M2059,-122.02C2059,-139.37 2059,-163 2059,-163 2059,-163 1643.3,-163 1643.3,-163"/>
<polygon fill="black" stroke="black" points="1643.3,-159.5 1633.3,-163 1643.3,-166.5 1643.3,-159.5"/>
</g>
<!-- SystemModule -->
<g id="node7" class="node">
<title>SystemModule</title>
<polygon fill="#8dd3c7" stroke="black" points="1958.27,-122 1955.27,-126 1934.27,-126 1931.27,-122 1857.73,-122 1857.73,-86 1958.27,-86 1958.27,-122"/>
<text text-anchor="middle" x="1908" y="-99.8" font-family="Times,serif" font-size="14.00">SystemModule</text>
</g>
<!-- SystemModule&#45;&gt;ImportUserModule -->
<g id="edge7" class="edge">
<title>SystemModule&#45;&gt;ImportUserModule</title>
<path fill="none" stroke="black" d="M1908,-122.01C1908,-138.05 1908,-159 1908,-159 1908,-159 1643.2,-159 1643.2,-159"/>
<polygon fill="black" stroke="black" points="1643.2,-155.5 1633.2,-159 1643.2,-162.5 1643.2,-155.5"/>
</g>
<!-- UserImportConfigModule -->
<g id="node8" class="node">
<title>UserImportConfigModule</title>
<polygon fill="#8dd3c7" stroke="black" points="1839.47,-122 1836.47,-126 1815.47,-126 1812.47,-122 1676.53,-122 1676.53,-86 1839.47,-86 1839.47,-122"/>
<text text-anchor="middle" x="1758" y="-99.8" font-family="Times,serif" font-size="14.00">UserImportConfigModule</text>
</g>
<!-- UserImportConfigModule&#45;&gt;ImportUserModule -->
<g id="edge8" class="edge">
<title>UserImportConfigModule&#45;&gt;ImportUserModule</title>
<path fill="none" stroke="black" d="M1758,-122.12C1758,-136.78 1758,-155 1758,-155 1758,-155 1643.27,-155 1643.27,-155"/>
<polygon fill="black" stroke="black" points="1643.27,-151.5 1633.27,-155 1643.27,-158.5 1643.27,-151.5"/>
</g>
<!-- UserLoginMigrationModule -->
<g id="node9" class="node">
<title>UserLoginMigrationModule</title>
<polygon fill="#8dd3c7" stroke="black" points="1658.91,-122 1655.91,-126 1634.91,-126 1631.91,-122 1483.09,-122 1483.09,-86 1658.91,-86 1658.91,-122"/>
<text text-anchor="middle" x="1571" y="-99.8" font-family="Times,serif" font-size="14.00">UserLoginMigrationModule</text>
</g>
<!-- UserLoginMigrationModule&#45;&gt;ImportUserModule -->
<g id="edge9" class="edge">
<title>UserLoginMigrationModule&#45;&gt;ImportUserModule</title>
<path fill="none" stroke="black" d="M1571,-122.11C1571,-122.11 1571,-140.99 1571,-140.99"/>
<polygon fill="black" stroke="black" points="1567.5,-140.99 1571,-150.99 1574.5,-140.99 1567.5,-140.99"/>
</g>
<!-- UserModule -->
<g id="node10" class="node">
<title>UserModule</title>
<polygon fill="#8dd3c7" stroke="black" points="1464.98,-122 1461.98,-126 1440.98,-126 1437.98,-122 1379.02,-122 1379.02,-86 1464.98,-86 1464.98,-122"/>
<text text-anchor="middle" x="1422" y="-99.8" font-family="Times,serif" font-size="14.00">UserModule</text>
</g>
<!-- UserModule&#45;&gt;ImportUserModule -->
<g id="edge10" class="edge">
<title>UserModule&#45;&gt;ImportUserModule</title>
<path fill="none" stroke="black" d="M1422,-122.12C1422,-136.78 1422,-155 1422,-155 1422,-155 1498.67,-155 1498.67,-155"/>
<polygon fill="black" stroke="black" points="1498.67,-158.5 1508.67,-155 1498.67,-151.5 1498.67,-158.5"/>
</g>
<!-- UserImportService  -->
<g id="node12" class="node">
<title>UserImportService </title>
<polygon fill="#fb8072" stroke="black" points="1634.01,-252 1507.99,-252 1507.99,-216 1634.01,-216 1634.01,-252"/>
<text text-anchor="middle" x="1571" y="-229.8" font-family="Times,serif" font-size="14.00">UserImportService </text>
</g>
<!-- ImportUserModule&#45;&gt;UserImportService  -->
<g id="edge11" class="edge">
<title>ImportUserModule&#45;&gt;UserImportService </title>
<path fill="none" stroke="black" stroke-dasharray="5,2" d="M1571,-187.11C1571,-187.11 1571,-205.99 1571,-205.99"/>
<polygon fill="black" stroke="black" points="1567.5,-205.99 1571,-215.99 1574.5,-205.99 1567.5,-205.99"/>
</g>
<!-- ImportUserRepo -->
<g id="node13" class="node">
<title>ImportUserRepo</title>
<ellipse fill="#fdb462" stroke="black" cx="1279" cy="-104" rx="75.86" ry="18"/>
<text text-anchor="middle" x="1279" y="-99.8" font-family="Times,serif" font-size="14.00">ImportUserRepo</text>
</g>
<!-- ImportUserRepo&#45;&gt;ImportUserModule -->
<g id="edge12" class="edge">
<title>ImportUserRepo&#45;&gt;ImportUserModule</title>
<path fill="none" stroke="black" d="M1279,-122.01C1279,-138.05 1279,-159 1279,-159 1279,-159 1498.72,-159 1498.72,-159"/>
<polygon fill="black" stroke="black" points="1498.72,-162.5 1508.72,-159 1498.72,-155.5 1498.72,-162.5"/>
</g>
<!-- LegacySchoolRepo -->
<g id="node14" class="node">
<title>LegacySchoolRepo</title>
<ellipse fill="#fdb462" stroke="black" cx="1098" cy="-104" rx="86.82" ry="18"/>
<text text-anchor="middle" x="1098" y="-99.8" font-family="Times,serif" font-size="14.00">LegacySchoolRepo</text>
</g>
<!-- LegacySchoolRepo&#45;&gt;ImportUserModule -->
<g id="edge13" class="edge">
<title>LegacySchoolRepo&#45;&gt;ImportUserModule</title>
<path fill="none" stroke="black" d="M1098,-122.02C1098,-139.37 1098,-163 1098,-163 1098,-163 1498.68,-163 1498.68,-163"/>
<polygon fill="black" stroke="black" points="1498.68,-166.5 1508.68,-163 1498.68,-159.5 1498.68,-166.5"/>
</g>
<!-- SchulconnexFetchImportUsersService -->
<g id="node15" class="node">
<title>SchulconnexFetchImportUsersService</title>
<ellipse fill="#fdb462" stroke="black" cx="834" cy="-104" rx="159.69" ry="18"/>
<text text-anchor="middle" x="834" y="-99.8" font-family="Times,serif" font-size="14.00">SchulconnexFetchImportUsersService</text>
</g>
<!-- SchulconnexFetchImportUsersService&#45;&gt;ImportUserModule -->
<g id="edge14" class="edge">
<title>SchulconnexFetchImportUsersService&#45;&gt;ImportUserModule</title>
<path fill="none" stroke="black" d="M834,-122.22C834,-140.83 834,-167 834,-167 834,-167 1498.8,-167 1498.8,-167"/>
<polygon fill="black" stroke="black" points="1498.8,-170.5 1508.8,-167 1498.8,-163.5 1498.8,-170.5"/>
</g>
<!-- UserImportFetchUc -->
<g id="node16" class="node">
<title>UserImportFetchUc</title>
<ellipse fill="#fdb462" stroke="black" cx="568" cy="-104" rx="88.02" ry="18"/>
<text text-anchor="middle" x="568" y="-99.8" font-family="Times,serif" font-size="14.00">UserImportFetchUc</text>
</g>
<!-- UserImportFetchUc&#45;&gt;ImportUserModule -->
<g id="edge15" class="edge">
<title>UserImportFetchUc&#45;&gt;ImportUserModule</title>
<path fill="none" stroke="black" d="M568,-122.31C568,-142.15 568,-171 568,-171 568,-171 1498.64,-171 1498.64,-171"/>
<polygon fill="black" stroke="black" points="1498.64,-174.5 1508.64,-171 1498.64,-167.5 1498.64,-174.5"/>
</g>
<!-- UserImportService -->
<g id="node17" class="node">
<title>UserImportService</title>
<ellipse fill="#fdb462" stroke="black" cx="377" cy="-104" rx="84.51" ry="18"/>
<text text-anchor="middle" x="377" y="-99.8" font-family="Times,serif" font-size="14.00">UserImportService</text>
</g>
<!-- UserImportService&#45;&gt;ImportUserModule -->
<g id="edge16" class="edge">
<title>UserImportService&#45;&gt;ImportUserModule</title>
<path fill="none" stroke="black" d="M377,-122.28C377,-143.32 377,-175 377,-175 377,-175 1498.9,-175 1498.9,-175"/>
<polygon fill="black" stroke="black" points="1498.9,-178.5 1508.9,-175 1498.9,-171.5 1498.9,-178.5"/>
</g>
<!-- UserImportUc -->
<g id="node18" class="node">
<title>UserImportUc</title>
<ellipse fill="#fdb462" stroke="black" cx="208" cy="-104" rx="66.61" ry="18"/>
<text text-anchor="middle" x="208" y="-99.8" font-family="Times,serif" font-size="14.00">UserImportUc</text>
</g>
<!-- UserImportUc&#45;&gt;ImportUserModule -->
<g id="edge17" class="edge">
<title>UserImportUc&#45;&gt;ImportUserModule</title>
<path fill="none" stroke="black" d="M208,-122.16C208,-144.35 208,-179 208,-179 208,-179 1498.89,-179 1498.89,-179"/>
<polygon fill="black" stroke="black" points="1498.89,-182.5 1508.89,-179 1498.89,-175.5 1498.89,-182.5"/>
</g>
<!-- UserRepo -->
<g id="node19" class="node">
<title>UserRepo</title>
<ellipse fill="#fdb462" stroke="black" cx="74" cy="-104" rx="49.8" ry="18"/>
<text text-anchor="middle" x="74" y="-99.8" font-family="Times,serif" font-size="14.00">UserRepo</text>
</g>
<!-- UserRepo&#45;&gt;ImportUserModule -->
<g id="edge18" class="edge">
<title>UserRepo&#45;&gt;ImportUserModule</title>
<path fill="none" stroke="black" d="M74,-122.32C74,-145.66 74,-183 74,-183 74,-183 1498.58,-183 1498.58,-183"/>
<polygon fill="black" stroke="black" points="1498.58,-186.5 1508.58,-183 1498.58,-179.5 1498.58,-186.5"/>
</g>
</g>
</svg>
