<?xml version="1.0" encoding="UTF-8" standalone="no"?>
<!DOCTYPE svg PUBLIC "-//W3C//DTD SVG 1.1//EN"
 "http://www.w3.org/Graphics/SVG/1.1/DTD/svg11.dtd">
<!-- Generated by graphviz version 2.47.0 (20210316.0004)
 -->
<!-- Title: dependencies Pages: 1 -->
<svg width="1424pt" height="211pt"
 viewBox="0.00 0.00 1424.00 211.00" xmlns="http://www.w3.org/2000/svg" xmlns:xlink="http://www.w3.org/1999/xlink">
<g id="graph0" class="graph" transform="scale(1 1) rotate(0) translate(4 207)">
<title>dependencies</title>
<polygon fill="white" stroke="transparent" points="-4,4 -4,-207 1420,-207 1420,4 -4,4"/>
<text text-anchor="start" x="687.01" y="-42.4" font-family="Times-12" font-weight="bold" font-size="14.00">Legend</text>
<polygon fill="#ffffb3" stroke="transparent" points="474,-10 474,-30 494,-30 494,-10 474,-10"/>
<text text-anchor="start" x="497.63" y="-15.4" font-family="Times-12" font-size="14.00"> &#160;Declarations</text>
<polygon fill="#8dd3c7" stroke="transparent" points="587,-10 587,-30 607,-30 607,-10 587,-10"/>
<text text-anchor="start" x="610.73" y="-15.4" font-family="Times-12" font-size="14.00"> &#160;Module</text>
<polygon fill="#80b1d3" stroke="transparent" points="673,-10 673,-30 693,-30 693,-10 673,-10"/>
<text text-anchor="start" x="696.78" y="-15.4" font-family="Times-12" font-size="14.00"> &#160;Bootstrap</text>
<polygon fill="#fdb462" stroke="transparent" points="770,-10 770,-30 790,-30 790,-10 770,-10"/>
<text text-anchor="start" x="793.67" y="-15.4" font-family="Times-12" font-size="14.00"> &#160;Providers</text>
<polygon fill="#fb8072" stroke="transparent" points="866,-10 866,-30 886,-30 886,-10 866,-10"/>
<text text-anchor="start" x="889.73" y="-15.4" font-family="Times-12" font-size="14.00"> &#160;Exports</text>
<g id="clust1" class="cluster">
<title>cluster_ImportUserModule</title>
<polygon fill="none" stroke="black" stroke-dasharray="1,5" points="8,-70 8,-195 1408,-195 1408,-70 8,-70"/>
</g>
<g id="clust3" class="cluster">
<title>cluster_ImportUserModule_imports</title>
<polygon fill="none" stroke="black" points="847,-78 847,-130 1400,-130 1400,-78 847,-78"/>
</g>
<g id="clust6" class="cluster">
<title>cluster_ImportUserModule_providers</title>
<polygon fill="none" stroke="black" points="16,-78 16,-130 839,-130 839,-78 16,-78"/>
</g>
<!-- AccountModule -->
<g id="node1" class="node">
<title>AccountModule</title>
<polygon fill="#8dd3c7" stroke="black" points="1392.48,-122 1389.48,-126 1368.48,-126 1365.48,-122 1285.52,-122 1285.52,-86 1392.48,-86 1392.48,-122"/>
<text text-anchor="middle" x="1339" y="-99.8" font-family="Times,serif" font-size="14.00">AccountModule</text>
</g>
<!-- ImportUserModule -->
<g id="node5" class="node">
<title>ImportUserModule</title>
<polygon fill="#8dd3c7" stroke="black" points="817.08,-187 814.08,-191 793.08,-191 790.08,-187 692.92,-187 692.92,-151 817.08,-151 817.08,-187"/>
<text text-anchor="middle" x="755" y="-164.8" font-family="Times,serif" font-size="14.00">ImportUserModule</text>
</g>
<!-- AccountModule&#45;&gt;ImportUserModule -->
<g id="edge1" class="edge">
<title>AccountModule&#45;&gt;ImportUserModule</title>
<path fill="none" stroke="black" d="M1339,-122.01C1339,-144.49 1339,-180 1339,-180 1339,-180 827.22,-180 827.22,-180"/>
<polygon fill="black" stroke="black" points="827.22,-176.5 817.22,-180 827.22,-183.5 827.22,-176.5"/>
</g>
<!-- AuthorizationModule -->
<g id="node2" class="node">
<title>AuthorizationModule</title>
<polygon fill="#8dd3c7" stroke="black" points="1267.81,-122 1264.81,-126 1243.81,-126 1240.81,-122 1130.19,-122 1130.19,-86 1267.81,-86 1267.81,-122"/>
<text text-anchor="middle" x="1199" y="-99.8" font-family="Times,serif" font-size="14.00">AuthorizationModule</text>
</g>
<!-- AuthorizationModule&#45;&gt;ImportUserModule -->
<g id="edge2" class="edge">
<title>AuthorizationModule&#45;&gt;ImportUserModule</title>
<path fill="none" stroke="black" d="M1199,-122.13C1199,-142.57 1199,-173 1199,-173 1199,-173 827.2,-173 827.2,-173"/>
<polygon fill="black" stroke="black" points="827.2,-169.5 817.2,-173 827.2,-176.5 827.2,-169.5"/>
</g>
<!-- LegacySchoolModule -->
<g id="node3" class="node">
<title>LegacySchoolModule</title>
<polygon fill="#8dd3c7" stroke="black" points="1112.63,-122 1109.63,-126 1088.63,-126 1085.63,-122 973.37,-122 973.37,-86 1112.63,-86 1112.63,-122"/>
<text text-anchor="middle" x="1043" y="-99.8" font-family="Times,serif" font-size="14.00">LegacySchoolModule</text>
</g>
<!-- LegacySchoolModule&#45;&gt;ImportUserModule -->
<g id="edge3" class="edge">
<title>LegacySchoolModule&#45;&gt;ImportUserModule</title>
<path fill="none" stroke="black" d="M1043,-122.27C1043,-140.56 1043,-166 1043,-166 1043,-166 827.14,-166 827.14,-166"/>
<polygon fill="black" stroke="black" points="827.14,-162.5 817.14,-166 827.14,-169.5 827.14,-162.5"/>
</g>
<!-- LoggerModule -->
<g id="node4" class="node">
<title>LoggerModule</title>
<polygon fill="#8dd3c7" stroke="black" points="954.98,-122 951.98,-126 930.98,-126 927.98,-122 855.02,-122 855.02,-86 954.98,-86 954.98,-122"/>
<text text-anchor="middle" x="905" y="-99.8" font-family="Times,serif" font-size="14.00">LoggerModule</text>
</g>
<!-- LoggerModule&#45;&gt;ImportUserModule -->
<g id="edge4" class="edge">
<title>LoggerModule&#45;&gt;ImportUserModule</title>
<path fill="none" stroke="black" d="M905,-122.01C905,-138.05 905,-159 905,-159 905,-159 827.31,-159 827.31,-159"/>
<polygon fill="black" stroke="black" points="827.31,-155.5 817.31,-159 827.31,-162.5 827.31,-155.5"/>
</g>
<!-- ImportUserRepo -->
<g id="node6" class="node">
<title>ImportUserRepo</title>
<ellipse fill="#fdb462" stroke="black" cx="755" cy="-104" rx="75.86" ry="18"/>
<text text-anchor="middle" x="755" y="-99.8" font-family="Times,serif" font-size="14.00">ImportUserRepo</text>
</g>
<!-- ImportUserRepo&#45;&gt;ImportUserModule -->
<g id="edge5" class="edge">
<title>ImportUserRepo&#45;&gt;ImportUserModule</title>
<path fill="none" stroke="black" d="M755,-122.11C755,-122.11 755,-140.99 755,-140.99"/>
<polygon fill="black" stroke="black" points="751.5,-140.99 755,-150.99 758.5,-140.99 751.5,-140.99"/>
</g>
<!-- LegacySchoolRepo -->
<g id="node7" class="node">
<title>LegacySchoolRepo</title>
<ellipse fill="#fdb462" stroke="black" cx="574" cy="-104" rx="86.82" ry="18"/>
<text text-anchor="middle" x="574" y="-99.8" font-family="Times,serif" font-size="14.00">LegacySchoolRepo</text>
</g>
<!-- LegacySchoolRepo&#45;&gt;ImportUserModule -->
<g id="edge6" class="edge">
<title>LegacySchoolRepo&#45;&gt;ImportUserModule</title>
<path fill="none" stroke="black" d="M574,-122.01C574,-138.05 574,-159 574,-159 574,-159 682.71,-159 682.71,-159"/>
<polygon fill="black" stroke="black" points="682.71,-162.5 692.71,-159 682.71,-155.5 682.71,-162.5"/>
</g>
<!-- LegacySystemRepo -->
<g id="node8" class="node">
<title>LegacySystemRepo</title>
<ellipse fill="#fdb462" stroke="black" cx="381" cy="-104" rx="88.04" ry="18"/>
<text text-anchor="middle" x="381" y="-99.8" font-family="Times,serif" font-size="14.00">LegacySystemRepo</text>
</g>
<!-- LegacySystemRepo&#45;&gt;ImportUserModule -->
<g id="edge7" class="edge">
<title>LegacySystemRepo&#45;&gt;ImportUserModule</title>
<path fill="none" stroke="black" d="M381,-122.27C381,-140.56 381,-166 381,-166 381,-166 682.82,-166 682.82,-166"/>
<polygon fill="black" stroke="black" points="682.82,-169.5 692.82,-166 682.82,-162.5 682.82,-169.5"/>
</g>
<!-- UserImportUc -->
<g id="node9" class="node">
<title>UserImportUc</title>
<ellipse fill="#fdb462" stroke="black" cx="208" cy="-104" rx="66.61" ry="18"/>
<text text-anchor="middle" x="208" y="-99.8" font-family="Times,serif" font-size="14.00">UserImportUc</text>
</g>
<!-- UserImportUc&#45;&gt;ImportUserModule -->
<g id="edge8" class="edge">
<title>UserImportUc&#45;&gt;ImportUserModule</title>
<path fill="none" stroke="black" d="M208,-122.13C208,-142.57 208,-173 208,-173 208,-173 682.78,-173 682.78,-173"/>
<polygon fill="black" stroke="black" points="682.78,-176.5 692.78,-173 682.78,-169.5 682.78,-176.5"/>
</g>
<!-- UserRepo -->
<g id="node10" class="node">
<title>UserRepo</title>
<ellipse fill="#fdb462" stroke="black" cx="74" cy="-104" rx="49.8" ry="18"/>
<text text-anchor="middle" x="74" y="-99.8" font-family="Times,serif" font-size="14.00">UserRepo</text>
</g>
<!-- UserRepo&#45;&gt;ImportUserModule -->
<g id="edge9" class="edge">
<title>UserRepo&#45;&gt;ImportUserModule</title>
<path fill="none" stroke="black" d="M74,-122.01C74,-144.49 74,-180 74,-180 74,-180 682.76,-180 682.76,-180"/>
<polygon fill="black" stroke="black" points="682.76,-183.5 692.76,-180 682.76,-176.5 682.76,-183.5"/>
</g>
</g>
</svg>
