<?xml version="1.0" encoding="UTF-8" standalone="no"?>
<!DOCTYPE svg PUBLIC "-//W3C//DTD SVG 1.1//EN"
 "http://www.w3.org/Graphics/SVG/1.1/DTD/svg11.dtd">
<!-- Generated by graphviz version 5.0.0 (20220707.1540)
 -->
<!-- Title: dependencies Pages: 1 -->
<svg width="423pt" height="247pt"
 viewBox="0.00 0.00 423.00 246.80" xmlns="http://www.w3.org/2000/svg" xmlns:xlink="http://www.w3.org/1999/xlink">
<g id="graph0" class="graph" transform="scale(1 1) rotate(0) translate(4 242.8)">
<title>dependencies</title>
<polygon fill="white" stroke="transparent" points="-4,4 -4,-242.8 419,-242.8 419,4 -4,4"/>
<text text-anchor="middle" x="207.5" y="-8.2" font-family="sans-serif" font-size="14.00">dependencies</text>
<g id="clust1" class="cluster">
<title>cluster_LoggerModule</title>
<polygon fill="none" stroke="black" stroke-dasharray="1,5" points="8,-32.8 8,-230.8 407,-230.8 407,-32.8 8,-32.8"/>
</g>
<g id="clust4" class="cluster">
<title>cluster_LoggerModule_exports</title>
<polygon fill="none" stroke="black" points="50,-170.8 50,-222.8 353,-222.8 353,-170.8 50,-170.8"/>
</g>
<g id="clust6" class="cluster">
<title>cluster_LoggerModule_providers</title>
<polygon fill="none" stroke="black" points="16,-40.8 16,-92.8 399,-92.8 399,-40.8 16,-40.8"/>
</g>
<!-- ErrorLogger  -->
<g id="node1" class="node">
<title>ErrorLogger </title>
<polygon fill="#fb8072" stroke="black" points="344.97,-214.8 255.03,-214.8 255.03,-178.8 344.97,-178.8 344.97,-214.8"/>
<text text-anchor="middle" x="300" y="-192.6" font-family="Times,serif" font-size="14.00">ErrorLogger </text>
</g>
<!-- LegacyLogger  -->
<g id="node2" class="node">
<title>LegacyLogger </title>
<polygon fill="#fb8072" stroke="black" points="237.62,-214.8 136.38,-214.8 136.38,-178.8 237.62,-178.8 237.62,-214.8"/>
<text text-anchor="middle" x="187" y="-192.6" font-family="Times,serif" font-size="14.00">LegacyLogger </text>
</g>
<!-- Logger  -->
<g id="node3" class="node">
<title>Logger </title>
<polygon fill="#fb8072" stroke="black" points="117.93,-214.8 58.07,-214.8 58.07,-178.8 117.93,-178.8 117.93,-214.8"/>
<text text-anchor="middle" x="88" y="-192.6" font-family="Times,serif" font-size="14.00">Logger </text>
</g>
<!-- LoggerModule -->
<g id="node4" class="node">
<title>LoggerModule</title>
<polygon fill="#8dd3c7" stroke="black" points="236.98,-149.8 233.98,-153.8 212.98,-153.8 209.98,-149.8 137.02,-149.8 137.02,-113.8 236.98,-113.8 236.98,-149.8"/>
<text text-anchor="middle" x="187" y="-127.6" font-family="Times,serif" font-size="14.00">LoggerModule</text>
</g>
<!-- LoggerModule&#45;&gt;ErrorLogger  -->
<g id="edge1" class="edge">
<title>LoggerModule&#45;&gt;ErrorLogger </title>
<path fill="none" stroke="black" stroke-dasharray="5,2" d="M237.06,-137.8C251.76,-137.8 263.98,-137.8 263.98,-137.8 263.98,-137.8 263.98,-168.78 263.98,-168.78"/>
<polygon fill="black" stroke="black" points="260.48,-168.78 263.98,-178.78 267.48,-168.78 260.48,-168.78"/>
</g>
<!-- LoggerModule&#45;&gt;LegacyLogger  -->
<g id="edge2" class="edge">
<title>LoggerModule&#45;&gt;LegacyLogger </title>
<path fill="none" stroke="black" stroke-dasharray="5,2" d="M187,-149.91C187,-149.91 187,-168.79 187,-168.79"/>
<polygon fill="black" stroke="black" points="183.5,-168.79 187,-178.79 190.5,-168.79 183.5,-168.79"/>
</g>
<!-- LoggerModule&#45;&gt;Logger  -->
<g id="edge3" class="edge">
<title>LoggerModule&#45;&gt;Logger </title>
<path fill="none" stroke="black" stroke-dasharray="5,2" d="M136.89,-137.8C122.18,-137.8 109.94,-137.8 109.94,-137.8 109.94,-137.8 109.94,-168.78 109.94,-168.78"/>
<polygon fill="black" stroke="black" points="106.44,-168.78 109.94,-178.78 113.44,-168.78 106.44,-168.78"/>
</g>
<!-- ErrorLogger -->
<g id="node5" class="node">
<title>ErrorLogger</title>
<ellipse fill="#fdb462" stroke="black" cx="332" cy="-66.8" rx="59.1" ry="18"/>
<text text-anchor="middle" x="332" y="-62.6" font-family="Times,serif" font-size="14.00">ErrorLogger</text>
</g>
<!-- ErrorLogger&#45;&gt;LoggerModule -->
<g id="edge4" class="edge">
<title>ErrorLogger&#45;&gt;LoggerModule</title>
<path fill="none" stroke="black" d="M308.72,-83.55C308.72,-100.99 308.72,-125.8 308.72,-125.8 308.72,-125.8 247.21,-125.8 247.21,-125.8"/>
<polygon fill="black" stroke="black" points="247.21,-122.3 237.21,-125.8 247.21,-129.3 247.21,-122.3"/>
</g>
<!-- LegacyLogger -->
<g id="node6" class="node">
<title>LegacyLogger</title>
<ellipse fill="#fdb462" stroke="black" cx="187" cy="-66.8" rx="67.17" ry="18"/>
<text text-anchor="middle" x="187" y="-62.6" font-family="Times,serif" font-size="14.00">LegacyLogger</text>
</g>
<!-- LegacyLogger&#45;&gt;LoggerModule -->
<g id="edge5" class="edge">
<title>LegacyLogger&#45;&gt;LoggerModule</title>
<path fill="none" stroke="black" d="M187,-84.91C187,-84.91 187,-103.79 187,-103.79"/>
<polygon fill="black" stroke="black" points="183.5,-103.79 187,-113.79 190.5,-103.79 183.5,-103.79"/>
</g>
<!-- Logger -->
<g id="node7" class="node">
<title>Logger</title>
<ellipse fill="#fdb462" stroke="black" cx="63" cy="-66.8" rx="38.85" ry="18"/>
<text text-anchor="middle" x="63" y="-62.6" font-family="Times,serif" font-size="14.00">Logger</text>
</g>
<!-- Logger&#45;&gt;LoggerModule -->
<g id="edge6" class="edge">
<title>Logger&#45;&gt;LoggerModule</title>
<path fill="none" stroke="black" d="M79.98,-83.23C79.98,-100.69 79.98,-125.8 79.98,-125.8 79.98,-125.8 126.94,-125.8 126.94,-125.8"/>
<polygon fill="black" stroke="black" points="126.94,-129.3 136.94,-125.8 126.94,-122.3 126.94,-129.3"/>
</g>
</g>
</svg>
