<?xml version="1.0" encoding="UTF-8" standalone="no"?>
<!DOCTYPE svg PUBLIC "-//W3C//DTD SVG 1.1//EN"
 "http://www.w3.org/Graphics/SVG/1.1/DTD/svg11.dtd">
<!-- Generated by graphviz version 2.47.0 (20210316.0004)
 -->
<!-- Title: dependencies Pages: 1 -->
<svg width="504pt" height="284pt"
 viewBox="0.00 0.00 504.00 284.00" xmlns="http://www.w3.org/2000/svg" xmlns:xlink="http://www.w3.org/1999/xlink">
<g id="graph0" class="graph" transform="scale(1 1) rotate(0) translate(4 280)">
<title>dependencies</title>
<polygon fill="white" stroke="transparent" points="-4,4 -4,-280 500,-280 500,4 -4,4"/>
<text text-anchor="start" x="227.01" y="-42.4" font-family="Times-12" font-weight="bold" font-size="14.00">Legend</text>
<polygon fill="#ffffb3" stroke="transparent" points="14,-10 14,-30 34,-30 34,-10 14,-10"/>
<text text-anchor="start" x="37.63" y="-15.4" font-family="Times-12" font-size="14.00"> &#160;Declarations</text>
<polygon fill="#8dd3c7" stroke="transparent" points="127,-10 127,-30 147,-30 147,-10 127,-10"/>
<text text-anchor="start" x="150.73" y="-15.4" font-family="Times-12" font-size="14.00"> &#160;Module</text>
<polygon fill="#80b1d3" stroke="transparent" points="213,-10 213,-30 233,-30 233,-10 213,-10"/>
<text text-anchor="start" x="236.78" y="-15.4" font-family="Times-12" font-size="14.00"> &#160;Bootstrap</text>
<polygon fill="#fdb462" stroke="transparent" points="310,-10 310,-30 330,-30 330,-10 310,-10"/>
<text text-anchor="start" x="333.67" y="-15.4" font-family="Times-12" font-size="14.00"> &#160;Providers</text>
<polygon fill="#fb8072" stroke="transparent" points="406,-10 406,-30 426,-30 426,-10 406,-10"/>
<text text-anchor="start" x="429.73" y="-15.4" font-family="Times-12" font-size="14.00"> &#160;Exports</text>
<g id="clust1" class="cluster">
<title>cluster_LoggerModule</title>
<polygon fill="none" stroke="black" stroke-dasharray="1,5" points="48.5,-70 48.5,-268 447.5,-268 447.5,-70 48.5,-70"/>
</g>
<g id="clust4" class="cluster">
<title>cluster_LoggerModule_exports</title>
<polygon fill="none" stroke="black" points="90.5,-208 90.5,-260 393.5,-260 393.5,-208 90.5,-208"/>
</g>
<g id="clust6" class="cluster">
<title>cluster_LoggerModule_providers</title>
<polygon fill="none" stroke="black" points="56.5,-78 56.5,-130 439.5,-130 439.5,-78 56.5,-78"/>
</g>
<!-- ErrorLogger  -->
<g id="node1" class="node">
<title>ErrorLogger </title>
<polygon fill="#fb8072" stroke="black" points="385.46,-252 295.54,-252 295.54,-216 385.46,-216 385.46,-252"/>
<text text-anchor="middle" x="340.5" y="-229.8" font-family="Times,serif" font-size="14.00">ErrorLogger </text>
</g>
<!-- LegacyLogger  -->
<g id="node2" class="node">
<title>LegacyLogger </title>
<polygon fill="#fb8072" stroke="black" points="278.12,-252 176.88,-252 176.88,-216 278.12,-216 278.12,-252"/>
<text text-anchor="middle" x="227.5" y="-229.8" font-family="Times,serif" font-size="14.00">LegacyLogger </text>
</g>
<!-- Logger  -->
<g id="node3" class="node">
<title>Logger </title>
<polygon fill="#fb8072" stroke="black" points="158.43,-252 98.57,-252 98.57,-216 158.43,-216 158.43,-252"/>
<text text-anchor="middle" x="128.5" y="-229.8" font-family="Times,serif" font-size="14.00">Logger </text>
</g>
<!-- LoggerModule -->
<g id="node4" class="node">
<title>LoggerModule</title>
<polygon fill="#8dd3c7" stroke="black" points="277.48,-187 274.48,-191 253.48,-191 250.48,-187 177.52,-187 177.52,-151 277.48,-151 277.48,-187"/>
<text text-anchor="middle" x="227.5" y="-164.8" font-family="Times,serif" font-size="14.00">LoggerModule</text>
</g>
<!-- LoggerModule&#45;&gt;ErrorLogger  -->
<g id="edge1" class="edge">
<title>LoggerModule&#45;&gt;ErrorLogger </title>
<path fill="none" stroke="black" stroke-dasharray="5,2" d="M277.56,-175C292.27,-175 304.49,-175 304.49,-175 304.49,-175 304.49,-205.98 304.49,-205.98"/>
<polygon fill="black" stroke="black" points="300.99,-205.98 304.49,-215.98 307.99,-205.98 300.99,-205.98"/>
</g>
<!-- LoggerModule&#45;&gt;LegacyLogger  -->
<g id="edge2" class="edge">
<title>LoggerModule&#45;&gt;LegacyLogger </title>
<path fill="none" stroke="black" stroke-dasharray="5,2" d="M227.5,-187.11C227.5,-187.11 227.5,-205.99 227.5,-205.99"/>
<polygon fill="black" stroke="black" points="224,-205.99 227.5,-215.99 231,-205.99 224,-205.99"/>
</g>
<!-- LoggerModule&#45;&gt;Logger  -->
<g id="edge3" class="edge">
<title>LoggerModule&#45;&gt;Logger </title>
<path fill="none" stroke="black" stroke-dasharray="5,2" d="M177.39,-175C162.68,-175 150.44,-175 150.44,-175 150.44,-175 150.44,-205.98 150.44,-205.98"/>
<polygon fill="black" stroke="black" points="146.94,-205.98 150.44,-215.98 153.94,-205.98 146.94,-205.98"/>
</g>
<!-- ErrorLogger -->
<g id="node5" class="node">
<title>ErrorLogger</title>
<ellipse fill="#fdb462" stroke="black" cx="372.5" cy="-104" rx="59.09" ry="18"/>
<text text-anchor="middle" x="372.5" y="-99.8" font-family="Times,serif" font-size="14.00">ErrorLogger</text>
</g>
<!-- ErrorLogger&#45;&gt;LoggerModule -->
<g id="edge4" class="edge">
<title>ErrorLogger&#45;&gt;LoggerModule</title>
<path fill="none" stroke="black" d="M349.22,-120.75C349.22,-138.19 349.22,-163 349.22,-163 349.22,-163 287.71,-163 287.71,-163"/>
<polygon fill="black" stroke="black" points="287.71,-159.5 277.71,-163 287.71,-166.5 287.71,-159.5"/>
</g>
<!-- LegacyLogger -->
<g id="node6" class="node">
<title>LegacyLogger</title>
<ellipse fill="#fdb462" stroke="black" cx="227.5" cy="-104" rx="67.18" ry="18"/>
<text text-anchor="middle" x="227.5" y="-99.8" font-family="Times,serif" font-size="14.00">LegacyLogger</text>
</g>
<!-- LegacyLogger&#45;&gt;LoggerModule -->
<g id="edge5" class="edge">
<title>LegacyLogger&#45;&gt;LoggerModule</title>
<path fill="none" stroke="black" d="M227.5,-122.11C227.5,-122.11 227.5,-140.99 227.5,-140.99"/>
<polygon fill="black" stroke="black" points="224,-140.99 227.5,-150.99 231,-140.99 224,-140.99"/>
</g>
<!-- Logger -->
<g id="node7" class="node">
<title>Logger</title>
<ellipse fill="#fdb462" stroke="black" cx="103.5" cy="-104" rx="38.85" ry="18"/>
<text text-anchor="middle" x="103.5" y="-99.8" font-family="Times,serif" font-size="14.00">Logger</text>
</g>
<!-- Logger&#45;&gt;LoggerModule -->
<g id="edge6" class="edge">
<title>Logger&#45;&gt;LoggerModule</title>
<path fill="none" stroke="black" d="M120.48,-120.43C120.48,-137.89 120.48,-163 120.48,-163 120.48,-163 167.44,-163 167.44,-163"/>
<polygon fill="black" stroke="black" points="167.44,-166.5 177.44,-163 167.44,-159.5 167.44,-166.5"/>
</g>
</g>
</svg>
