<?xml version="1.0" encoding="UTF-8" standalone="no"?>
<!DOCTYPE svg PUBLIC "-//W3C//DTD SVG 1.1//EN"
 "http://www.w3.org/Graphics/SVG/1.1/DTD/svg11.dtd">
<!-- Generated by graphviz version 5.0.0 (20220707.1540)
 -->
<!-- Title: dependencies Pages: 1 -->
<svg width="140pt" height="247pt"
 viewBox="0.00 0.00 140.00 246.80" xmlns="http://www.w3.org/2000/svg" xmlns:xlink="http://www.w3.org/1999/xlink">
<g id="graph0" class="graph" transform="scale(1 1) rotate(0) translate(4 242.8)">
<title>dependencies</title>
<polygon fill="white" stroke="transparent" points="-4,4 -4,-242.8 136,-242.8 136,4 -4,4"/>
<text text-anchor="middle" x="66" y="-8.2" font-family="sans-serif" font-size="14.00">dependencies</text>
<g id="clust1" class="cluster">
<title>cluster_LoggerModule</title>
<polygon fill="none" stroke="black" stroke-dasharray="1,5" points="8,-32.8 8,-230.8 124,-230.8 124,-32.8 8,-32.8"/>
</g>
<g id="clust6" class="cluster">
<title>cluster_LoggerModule_providers</title>
<polygon fill="none" stroke="black" points="19,-40.8 19,-92.8 113,-92.8 113,-40.8 19,-40.8"/>
</g>
<g id="clust4" class="cluster">
<title>cluster_LoggerModule_exports</title>
<polygon fill="none" stroke="black" points="28,-170.8 28,-222.8 104,-222.8 104,-170.8 28,-170.8"/>
</g>
<!-- Logger  -->
<g id="node1" class="node">
<title>Logger </title>
<polygon fill="#fb8072" stroke="black" points="95.93,-214.8 36.07,-214.8 36.07,-178.8 95.93,-178.8 95.93,-214.8"/>
<text text-anchor="middle" x="66" y="-192.6" font-family="Times,serif" font-size="14.00">Logger </text>
</g>
<!-- LoggerModule -->
<g id="node2" class="node">
<title>LoggerModule</title>
<polygon fill="#8dd3c7" stroke="black" points="115.98,-149.8 112.98,-153.8 91.98,-153.8 88.98,-149.8 16.02,-149.8 16.02,-113.8 115.98,-113.8 115.98,-149.8"/>
<text text-anchor="middle" x="66" y="-127.6" font-family="Times,serif" font-size="14.00">LoggerModule</text>
</g>
<!-- LoggerModule&#45;&gt;Logger  -->
<g id="edge1" class="edge">
<title>LoggerModule&#45;&gt;Logger </title>
<path fill="none" stroke="black" stroke-dasharray="5,2" d="M66,-149.91C66,-149.91 66,-168.79 66,-168.79"/>
<polygon fill="black" stroke="black" points="62.5,-168.79 66,-178.79 69.5,-168.79 62.5,-168.79"/>
</g>
<!-- Logger -->
<g id="node3" class="node">
<title>Logger</title>
<ellipse fill="#fdb462" stroke="black" cx="66" cy="-66.8" rx="38.85" ry="18"/>
<text text-anchor="middle" x="66" y="-62.6" font-family="Times,serif" font-size="14.00">Logger</text>
</g>
<!-- Logger&#45;&gt;LoggerModule -->
<g id="edge2" class="edge">
<title>Logger&#45;&gt;LoggerModule</title>
<path fill="none" stroke="black" d="M66,-84.91C66,-84.91 66,-103.79 66,-103.79"/>
<polygon fill="black" stroke="black" points="62.5,-103.79 66,-113.79 69.5,-103.79 62.5,-103.79"/>
</g>
</g>
</svg>
