<?xml version="1.0" encoding="UTF-8" standalone="no"?>
<!DOCTYPE svg PUBLIC "-//W3C//DTD SVG 1.1//EN"
 "http://www.w3.org/Graphics/SVG/1.1/DTD/svg11.dtd">
<!-- Generated by graphviz version 2.47.0 (20210316.0004)
 -->
<!-- Title: dependencies Pages: 1 -->
<svg width="996pt" height="284pt"
 viewBox="0.00 0.00 996.00 284.00" xmlns="http://www.w3.org/2000/svg" xmlns:xlink="http://www.w3.org/1999/xlink">
<g id="graph0" class="graph" transform="scale(1 1) rotate(0) translate(4 280)">
<title>dependencies</title>
<polygon fill="white" stroke="transparent" points="-4,4 -4,-280 992,-280 992,4 -4,4"/>
<text text-anchor="start" x="473.01" y="-42.4" font-family="Times-12" font-weight="bold" font-size="14.00">Legend</text>
<polygon fill="#ffffb3" stroke="transparent" points="260,-10 260,-30 280,-30 280,-10 260,-10"/>
<text text-anchor="start" x="283.63" y="-15.4" font-family="Times-12" font-size="14.00"> &#160;Declarations</text>
<polygon fill="#8dd3c7" stroke="transparent" points="373,-10 373,-30 393,-30 393,-10 373,-10"/>
<text text-anchor="start" x="396.73" y="-15.4" font-family="Times-12" font-size="14.00"> &#160;Module</text>
<polygon fill="#80b1d3" stroke="transparent" points="459,-10 459,-30 479,-30 479,-10 459,-10"/>
<text text-anchor="start" x="482.78" y="-15.4" font-family="Times-12" font-size="14.00"> &#160;Bootstrap</text>
<polygon fill="#fdb462" stroke="transparent" points="556,-10 556,-30 576,-30 576,-10 556,-10"/>
<text text-anchor="start" x="579.67" y="-15.4" font-family="Times-12" font-size="14.00"> &#160;Providers</text>
<polygon fill="#fb8072" stroke="transparent" points="652,-10 652,-30 672,-30 672,-10 652,-10"/>
<text text-anchor="start" x="675.73" y="-15.4" font-family="Times-12" font-size="14.00"> &#160;Exports</text>
<g id="clust1" class="cluster">
<title>cluster_FilesStorageClientModule</title>
<polygon fill="none" stroke="black" stroke-dasharray="1,5" points="8,-70 8,-268 980,-268 980,-70 8,-70"/>
</g>
<g id="clust3" class="cluster">
<title>cluster_FilesStorageClientModule_imports</title>
<polygon fill="none" stroke="black" points="710,-78 710,-130 972,-130 972,-78 710,-78"/>
</g>
<g id="clust4" class="cluster">
<title>cluster_FilesStorageClientModule_exports</title>
<polygon fill="none" stroke="black" points="410,-208 410,-260 774,-260 774,-208 410,-208"/>
</g>
<g id="clust6" class="cluster">
<title>cluster_FilesStorageClientModule_providers</title>
<polygon fill="none" stroke="black" points="16,-78 16,-130 702,-130 702,-78 16,-78"/>
</g>
<!-- CopyHelperModule -->
<g id="node1" class="node">
<title>CopyHelperModule</title>
<polygon fill="#8dd3c7" stroke="black" points="963.97,-122 960.97,-126 939.97,-126 936.97,-122 836.03,-122 836.03,-86 963.97,-86 963.97,-122"/>
<text text-anchor="middle" x="900" y="-99.8" font-family="Times,serif" font-size="14.00">CopyHelperModule</text>
</g>
<!-- FilesStorageClientModule -->
<g id="node3" class="node">
<title>FilesStorageClientModule</title>
<polygon fill="#8dd3c7" stroke="black" points="695.76,-187 692.76,-191 671.76,-191 668.76,-187 532.24,-187 532.24,-151 695.76,-151 695.76,-187"/>
<text text-anchor="middle" x="614" y="-164.8" font-family="Times,serif" font-size="14.00">FilesStorageClientModule</text>
</g>
<!-- CopyHelperModule&#45;&gt;FilesStorageClientModule -->
<g id="edge1" class="edge">
<title>CopyHelperModule&#45;&gt;FilesStorageClientModule</title>
<path fill="none" stroke="black" d="M900,-122.28C900,-143.32 900,-175 900,-175 900,-175 705.96,-175 705.96,-175"/>
<polygon fill="black" stroke="black" points="705.96,-171.5 695.96,-175 705.96,-178.5 705.96,-171.5"/>
</g>
<!-- LoggerModule -->
<g id="node2" class="node">
<title>LoggerModule</title>
<polygon fill="#8dd3c7" stroke="black" points="817.98,-122 814.98,-126 793.98,-126 790.98,-122 718.02,-122 718.02,-86 817.98,-86 817.98,-122"/>
<text text-anchor="middle" x="768" y="-99.8" font-family="Times,serif" font-size="14.00">LoggerModule</text>
</g>
<!-- LoggerModule&#45;&gt;FilesStorageClientModule -->
<g id="edge2" class="edge">
<title>LoggerModule&#45;&gt;FilesStorageClientModule</title>
<path fill="none" stroke="black" d="M741.76,-122.02C741.76,-139.37 741.76,-163 741.76,-163 741.76,-163 706,-163 706,-163"/>
<polygon fill="black" stroke="black" points="706,-159.5 696,-163 706,-166.5 706,-159.5"/>
</g>
<!-- CopyFilesService  -->
<g id="node4" class="node">
<title>CopyFilesService </title>
<polygon fill="#fb8072" stroke="black" points="765.54,-252 646.46,-252 646.46,-216 765.54,-216 765.54,-252"/>
<text text-anchor="middle" x="706" y="-229.8" font-family="Times,serif" font-size="14.00">CopyFilesService </text>
</g>
<!-- FilesStorageClientModule&#45;&gt;CopyFilesService  -->
<g id="edge3" class="edge">
<title>FilesStorageClientModule&#45;&gt;CopyFilesService </title>
<path fill="none" stroke="black" stroke-dasharray="5,2" d="M671.18,-187.11C671.18,-187.11 671.18,-205.99 671.18,-205.99"/>
<polygon fill="black" stroke="black" points="667.68,-205.99 671.18,-215.99 674.68,-205.99 667.68,-205.99"/>
</g>
<!-- FilesStorageClientAdapterService  -->
<g id="node5" class="node">
<title>FilesStorageClientAdapterService </title>
<polygon fill="#fb8072" stroke="black" points="628.27,-252 417.73,-252 417.73,-216 628.27,-216 628.27,-252"/>
<text text-anchor="middle" x="523" y="-229.8" font-family="Times,serif" font-size="14.00">FilesStorageClientAdapterService </text>
</g>
<!-- FilesStorageClientModule&#45;&gt;FilesStorageClientAdapterService  -->
<g id="edge4" class="edge">
<title>FilesStorageClientModule&#45;&gt;FilesStorageClientAdapterService </title>
<path fill="none" stroke="black" stroke-dasharray="5,2" d="M580.25,-187.11C580.25,-187.11 580.25,-205.99 580.25,-205.99"/>
<polygon fill="black" stroke="black" points="576.75,-205.99 580.25,-215.99 583.75,-205.99 576.75,-205.99"/>
</g>
<!-- CopyFilesService -->
<g id="node6" class="node">
<title>CopyFilesService</title>
<ellipse fill="#fdb462" stroke="black" cx="614" cy="-104" rx="79.89" ry="18"/>
<text text-anchor="middle" x="614" y="-99.8" font-family="Times,serif" font-size="14.00">CopyFilesService</text>
</g>
<!-- CopyFilesService&#45;&gt;FilesStorageClientModule -->
<g id="edge5" class="edge">
<title>CopyFilesService&#45;&gt;FilesStorageClientModule</title>
<path fill="none" stroke="black" d="M614,-122.11C614,-122.11 614,-140.99 614,-140.99"/>
<polygon fill="black" stroke="black" points="610.5,-140.99 614,-150.99 617.5,-140.99 610.5,-140.99"/>
</g>
<!-- FilesStorageClientAdapterService -->
<g id="node7" class="node">
<title>FilesStorageClientAdapterService</title>
<ellipse fill="#fdb462" stroke="black" cx="373" cy="-104" rx="142.95" ry="18"/>
<text text-anchor="middle" x="373" y="-99.8" font-family="Times,serif" font-size="14.00">FilesStorageClientAdapterService</text>
</g>
<!-- FilesStorageClientAdapterService&#45;&gt;FilesStorageClientModule -->
<g id="edge6" class="edge">
<title>FilesStorageClientAdapterService&#45;&gt;FilesStorageClientModule</title>
<path fill="none" stroke="black" d="M466.79,-117.68C466.79,-135.11 466.79,-163 466.79,-163 466.79,-163 522.22,-163 522.22,-163"/>
<polygon fill="black" stroke="black" points="522.22,-166.5 532.22,-163 522.22,-159.5 522.22,-166.5"/>
</g>
<!-- FilesStorageProducer -->
<g id="node8" class="node">
<title>FilesStorageProducer</title>
<ellipse fill="#fdb462" stroke="black" cx="118" cy="-104" rx="94.34" ry="18"/>
<text text-anchor="middle" x="118" y="-99.8" font-family="Times,serif" font-size="14.00">FilesStorageProducer</text>
</g>
<!-- FilesStorageProducer&#45;&gt;FilesStorageClientModule -->
<g id="edge7" class="edge">
<title>FilesStorageProducer&#45;&gt;FilesStorageClientModule</title>
<path fill="none" stroke="black" d="M118,-122.28C118,-143.32 118,-175 118,-175 118,-175 522.1,-175 522.1,-175"/>
<polygon fill="black" stroke="black" points="522.1,-178.5 532.1,-175 522.1,-171.5 522.1,-178.5"/>
</g>
</g>
</svg>
