<?xml version="1.0" encoding="UTF-8" standalone="no"?>
<!DOCTYPE svg PUBLIC "-//W3C//DTD SVG 1.1//EN"
 "http://www.w3.org/Graphics/SVG/1.1/DTD/svg11.dtd">
<!-- Generated by graphviz version 5.0.0 (20220707.1540)
 -->
<!-- Title: dependencies Pages: 1 -->
<svg width="996pt" height="247pt"
 viewBox="0.00 0.00 996.00 246.80" xmlns="http://www.w3.org/2000/svg" xmlns:xlink="http://www.w3.org/1999/xlink">
<g id="graph0" class="graph" transform="scale(1 1) rotate(0) translate(4 242.8)">
<title>dependencies</title>
<polygon fill="white" stroke="transparent" points="-4,4 -4,-242.8 992,-242.8 992,4 -4,4"/>
<text text-anchor="middle" x="494" y="-8.2" font-family="sans-serif" font-size="14.00">dependencies</text>
<g id="clust1" class="cluster">
<title>cluster_FilesStorageClientModule</title>
<polygon fill="none" stroke="black" stroke-dasharray="1,5" points="8,-32.8 8,-230.8 980,-230.8 980,-32.8 8,-32.8"/>
</g>
<g id="clust3" class="cluster">
<title>cluster_FilesStorageClientModule_imports</title>
<polygon fill="none" stroke="black" points="710,-40.8 710,-92.8 972,-92.8 972,-40.8 710,-40.8"/>
</g>
<g id="clust6" class="cluster">
<title>cluster_FilesStorageClientModule_providers</title>
<polygon fill="none" stroke="black" points="16,-40.8 16,-92.8 702,-92.8 702,-40.8 16,-40.8"/>
</g>
<g id="clust4" class="cluster">
<title>cluster_FilesStorageClientModule_exports</title>
<polygon fill="none" stroke="black" points="410,-170.8 410,-222.8 774,-222.8 774,-170.8 410,-170.8"/>
</g>
<!-- CopyHelperModule -->
<g id="node1" class="node">
<title>CopyHelperModule</title>
<polygon fill="#8dd3c7" stroke="black" points="963.98,-84.8 960.98,-88.8 939.98,-88.8 936.98,-84.8 836.02,-84.8 836.02,-48.8 963.98,-48.8 963.98,-84.8"/>
<text text-anchor="middle" x="900" y="-62.6" font-family="Times,serif" font-size="14.00">CopyHelperModule</text>
</g>
<!-- FilesStorageClientModule -->
<g id="node3" class="node">
<title>FilesStorageClientModule</title>
<polygon fill="#8dd3c7" stroke="black" points="695.77,-149.8 692.77,-153.8 671.77,-153.8 668.77,-149.8 532.23,-149.8 532.23,-113.8 695.77,-113.8 695.77,-149.8"/>
<text text-anchor="middle" x="614" y="-127.6" font-family="Times,serif" font-size="14.00">FilesStorageClientModule</text>
</g>
<!-- CopyHelperModule&#45;&gt;FilesStorageClientModule -->
<g id="edge1" class="edge">
<title>CopyHelperModule&#45;&gt;FilesStorageClientModule</title>
<path fill="none" stroke="black" d="M900,-85.08C900,-106.12 900,-137.8 900,-137.8 900,-137.8 705.96,-137.8 705.96,-137.8"/>
<polygon fill="black" stroke="black" points="705.96,-134.3 695.96,-137.8 705.96,-141.3 705.96,-134.3"/>
</g>
<!-- LoggerModule -->
<g id="node2" class="node">
<title>LoggerModule</title>
<polygon fill="#8dd3c7" stroke="black" points="817.98,-84.8 814.98,-88.8 793.98,-88.8 790.98,-84.8 718.02,-84.8 718.02,-48.8 817.98,-48.8 817.98,-84.8"/>
<text text-anchor="middle" x="768" y="-62.6" font-family="Times,serif" font-size="14.00">LoggerModule</text>
</g>
<!-- LoggerModule&#45;&gt;FilesStorageClientModule -->
<g id="edge2" class="edge">
<title>LoggerModule&#45;&gt;FilesStorageClientModule</title>
<path fill="none" stroke="black" d="M741.77,-84.82C741.77,-102.17 741.77,-125.8 741.77,-125.8 741.77,-125.8 706,-125.8 706,-125.8"/>
<polygon fill="black" stroke="black" points="706,-122.3 696,-125.8 706,-129.3 706,-122.3"/>
</g>
<!-- CopyFilesService  -->
<g id="node4" class="node">
<title>CopyFilesService </title>
<polygon fill="#fb8072" stroke="black" points="765.54,-214.8 646.46,-214.8 646.46,-178.8 765.54,-178.8 765.54,-214.8"/>
<text text-anchor="middle" x="706" y="-192.6" font-family="Times,serif" font-size="14.00">CopyFilesService </text>
</g>
<!-- FilesStorageClientModule&#45;&gt;CopyFilesService  -->
<g id="edge3" class="edge">
<title>FilesStorageClientModule&#45;&gt;CopyFilesService </title>
<path fill="none" stroke="black" stroke-dasharray="5,2" d="M671.18,-149.91C671.18,-149.91 671.18,-168.79 671.18,-168.79"/>
<polygon fill="black" stroke="black" points="667.68,-168.79 671.18,-178.79 674.68,-168.79 667.68,-168.79"/>
</g>
<!-- FilesStorageClientAdapterService  -->
<g id="node5" class="node">
<title>FilesStorageClientAdapterService </title>
<polygon fill="#fb8072" stroke="black" points="628.28,-214.8 417.72,-214.8 417.72,-178.8 628.28,-178.8 628.28,-214.8"/>
<text text-anchor="middle" x="523" y="-192.6" font-family="Times,serif" font-size="14.00">FilesStorageClientAdapterService </text>
</g>
<!-- FilesStorageClientModule&#45;&gt;FilesStorageClientAdapterService  -->
<g id="edge4" class="edge">
<title>FilesStorageClientModule&#45;&gt;FilesStorageClientAdapterService </title>
<path fill="none" stroke="black" stroke-dasharray="5,2" d="M580.25,-149.91C580.25,-149.91 580.25,-168.79 580.25,-168.79"/>
<polygon fill="black" stroke="black" points="576.75,-168.79 580.25,-178.79 583.75,-168.79 576.75,-168.79"/>
</g>
<!-- CopyFilesService -->
<g id="node6" class="node">
<title>CopyFilesService</title>
<ellipse fill="#fdb462" stroke="black" cx="614" cy="-66.8" rx="79.9" ry="18"/>
<text text-anchor="middle" x="614" y="-62.6" font-family="Times,serif" font-size="14.00">CopyFilesService</text>
</g>
<!-- CopyFilesService&#45;&gt;FilesStorageClientModule -->
<g id="edge5" class="edge">
<title>CopyFilesService&#45;&gt;FilesStorageClientModule</title>
<path fill="none" stroke="black" d="M614,-84.91C614,-84.91 614,-103.79 614,-103.79"/>
<polygon fill="black" stroke="black" points="610.5,-103.79 614,-113.79 617.5,-103.79 610.5,-103.79"/>
</g>
<!-- FilesStorageClientAdapterService -->
<g id="node7" class="node">
<title>FilesStorageClientAdapterService</title>
<ellipse fill="#fdb462" stroke="black" cx="373" cy="-66.8" rx="142.96" ry="18"/>
<text text-anchor="middle" x="373" y="-62.6" font-family="Times,serif" font-size="14.00">FilesStorageClientAdapterService</text>
</g>
<!-- FilesStorageClientAdapterService&#45;&gt;FilesStorageClientModule -->
<g id="edge6" class="edge">
<title>FilesStorageClientAdapterService&#45;&gt;FilesStorageClientModule</title>
<path fill="none" stroke="black" d="M466.79,-80.48C466.79,-97.91 466.79,-125.8 466.79,-125.8 466.79,-125.8 522.22,-125.8 522.22,-125.8"/>
<polygon fill="black" stroke="black" points="522.22,-129.3 532.22,-125.8 522.22,-122.3 522.22,-129.3"/>
</g>
<!-- FilesStorageProducer -->
<g id="node8" class="node">
<title>FilesStorageProducer</title>
<ellipse fill="#fdb462" stroke="black" cx="118" cy="-66.8" rx="94.35" ry="18"/>
<text text-anchor="middle" x="118" y="-62.6" font-family="Times,serif" font-size="14.00">FilesStorageProducer</text>
</g>
<!-- FilesStorageProducer&#45;&gt;FilesStorageClientModule -->
<g id="edge7" class="edge">
<title>FilesStorageProducer&#45;&gt;FilesStorageClientModule</title>
<path fill="none" stroke="black" d="M118,-85.08C118,-106.12 118,-137.8 118,-137.8 118,-137.8 522.1,-137.8 522.1,-137.8"/>
<polygon fill="black" stroke="black" points="522.1,-141.3 532.1,-137.8 522.1,-134.3 522.1,-141.3"/>
</g>
</g>
</svg>
