<?xml version="1.0" encoding="UTF-8" standalone="no"?>
<!DOCTYPE svg PUBLIC "-//W3C//DTD SVG 1.1//EN"
 "http://www.w3.org/Graphics/SVG/1.1/DTD/svg11.dtd">
<!-- Generated by graphviz version 5.0.0 (20220707.1540)
 -->
<!-- Title: dependencies Pages: 1 -->
<svg width="996pt" height="247pt"
 viewBox="0.00 0.00 996.00 246.80" xmlns="http://www.w3.org/2000/svg" xmlns:xlink="http://www.w3.org/1999/xlink">
<g id="graph0" class="graph" transform="scale(1 1) rotate(0) translate(4 242.8)">
<title>dependencies</title>
<polygon fill="white" stroke="transparent" points="-4,4 -4,-242.8 992,-242.8 992,4 -4,4"/>
<text text-anchor="middle" x="494" y="-8.2" font-family="sans-serif" font-size="14.00">dependencies</text>
<g id="clust1" class="cluster">
<title>cluster_FilesStorageClientModule</title>
<polygon fill="none" stroke="black" stroke-dasharray="1,5" points="8,-32.8 8,-230.8 980,-230.8 980,-32.8 8,-32.8"/>
</g>
<g id="clust4" class="cluster">
<title>cluster_FilesStorageClientModule_exports</title>
<polygon fill="none" stroke="black" points="184,-170.8 184,-222.8 548,-222.8 548,-170.8 184,-170.8"/>
</g>
<g id="clust6" class="cluster">
<title>cluster_FilesStorageClientModule_providers</title>
<polygon fill="none" stroke="black" points="286,-40.8 286,-92.8 972,-92.8 972,-40.8 286,-40.8"/>
</g>
<g id="clust3" class="cluster">
<title>cluster_FilesStorageClientModule_imports</title>
<polygon fill="none" stroke="black" points="16,-40.8 16,-92.8 278,-92.8 278,-40.8 16,-40.8"/>
</g>
<!-- CopyHelperModule -->
<g id="node1" class="node">
<title>CopyHelperModule</title>
<polygon fill="#8dd3c7" stroke="black" points="269.98,-84.8 266.98,-88.8 245.98,-88.8 242.98,-84.8 142.02,-84.8 142.02,-48.8 269.98,-48.8 269.98,-84.8"/>
<text text-anchor="middle" x="206" y="-62.6" font-family="Times,serif" font-size="14.00">CopyHelperModule</text>
</g>
<!-- FilesStorageClientModule -->
<g id="node3" class="node">
<title>FilesStorageClientModule</title>
<polygon fill="#8dd3c7" stroke="black" points="469.77,-149.8 466.77,-153.8 445.77,-153.8 442.77,-149.8 306.23,-149.8 306.23,-113.8 469.77,-113.8 469.77,-149.8"/>
<text text-anchor="middle" x="388" y="-127.6" font-family="Times,serif" font-size="14.00">FilesStorageClientModule</text>
</g>
<!-- CopyHelperModule&#45;&gt;FilesStorageClientModule -->
<g id="edge1" class="edge">
<title>CopyHelperModule&#45;&gt;FilesStorageClientModule</title>
<path fill="none" stroke="black" d="M230.8,-84.82C230.8,-102.17 230.8,-125.8 230.8,-125.8 230.8,-125.8 296.18,-125.8 296.18,-125.8"/>
<polygon fill="black" stroke="black" points="296.18,-129.3 306.18,-125.8 296.18,-122.3 296.18,-129.3"/>
</g>
<!-- LoggerModule -->
<g id="node2" class="node">
<title>LoggerModule</title>
<polygon fill="#8dd3c7" stroke="black" points="123.98,-84.8 120.98,-88.8 99.98,-88.8 96.98,-84.8 24.02,-84.8 24.02,-48.8 123.98,-48.8 123.98,-84.8"/>
<text text-anchor="middle" x="74" y="-62.6" font-family="Times,serif" font-size="14.00">LoggerModule</text>
</g>
<!-- LoggerModule&#45;&gt;FilesStorageClientModule -->
<g id="edge2" class="edge">
<title>LoggerModule&#45;&gt;FilesStorageClientModule</title>
<path fill="none" stroke="black" d="M74,-85.08C74,-106.12 74,-137.8 74,-137.8 74,-137.8 295.91,-137.8 295.91,-137.8"/>
<polygon fill="black" stroke="black" points="295.91,-141.3 305.91,-137.8 295.91,-134.3 295.91,-141.3"/>
</g>
<!-- CopyFilesService  -->
<g id="node4" class="node">
<title>CopyFilesService </title>
<polygon fill="#fb8072" stroke="black" points="539.54,-214.8 420.46,-214.8 420.46,-178.8 539.54,-178.8 539.54,-214.8"/>
<text text-anchor="middle" x="480" y="-192.6" font-family="Times,serif" font-size="14.00">CopyFilesService </text>
</g>
<!-- FilesStorageClientModule&#45;&gt;CopyFilesService  -->
<g id="edge3" class="edge">
<title>FilesStorageClientModule&#45;&gt;CopyFilesService </title>
<path fill="none" stroke="black" stroke-dasharray="5,2" d="M445.18,-149.91C445.18,-149.91 445.18,-168.79 445.18,-168.79"/>
<polygon fill="black" stroke="black" points="441.68,-168.79 445.18,-178.79 448.68,-168.79 441.68,-168.79"/>
</g>
<!-- FilesStorageClientAdapterService  -->
<g id="node5" class="node">
<title>FilesStorageClientAdapterService </title>
<polygon fill="#fb8072" stroke="black" points="402.28,-214.8 191.72,-214.8 191.72,-178.8 402.28,-178.8 402.28,-214.8"/>
<text text-anchor="middle" x="297" y="-192.6" font-family="Times,serif" font-size="14.00">FilesStorageClientAdapterService </text>
</g>
<!-- FilesStorageClientModule&#45;&gt;FilesStorageClientAdapterService  -->
<g id="edge4" class="edge">
<title>FilesStorageClientModule&#45;&gt;FilesStorageClientAdapterService </title>
<path fill="none" stroke="black" stroke-dasharray="5,2" d="M354.25,-149.91C354.25,-149.91 354.25,-168.79 354.25,-168.79"/>
<polygon fill="black" stroke="black" points="350.75,-168.79 354.25,-178.79 357.75,-168.79 350.75,-168.79"/>
</g>
<!-- CopyFilesService -->
<g id="node6" class="node">
<title>CopyFilesService</title>
<ellipse fill="#fdb462" stroke="black" cx="884" cy="-66.8" rx="79.9" ry="18"/>
<text text-anchor="middle" x="884" y="-62.6" font-family="Times,serif" font-size="14.00">CopyFilesService</text>
</g>
<!-- CopyFilesService&#45;&gt;FilesStorageClientModule -->
<g id="edge5" class="edge">
<title>CopyFilesService&#45;&gt;FilesStorageClientModule</title>
<path fill="none" stroke="black" d="M884,-85.08C884,-106.12 884,-137.8 884,-137.8 884,-137.8 479.9,-137.8 479.9,-137.8"/>
<polygon fill="black" stroke="black" points="479.9,-134.3 469.9,-137.8 479.9,-141.3 479.9,-134.3"/>
</g>
<!-- FilesStorageClientAdapterService -->
<g id="node7" class="node">
<title>FilesStorageClientAdapterService</title>
<ellipse fill="#fdb462" stroke="black" cx="643" cy="-66.8" rx="142.96" ry="18"/>
<text text-anchor="middle" x="643" y="-62.6" font-family="Times,serif" font-size="14.00">FilesStorageClientAdapterService</text>
</g>
<!-- FilesStorageClientAdapterService&#45;&gt;FilesStorageClientModule -->
<g id="edge6" class="edge">
<title>FilesStorageClientAdapterService&#45;&gt;FilesStorageClientModule</title>
<path fill="none" stroke="black" d="M519.77,-76.02C519.77,-92.61 519.77,-125.8 519.77,-125.8 519.77,-125.8 479.95,-125.8 479.95,-125.8"/>
<polygon fill="black" stroke="black" points="479.95,-122.3 469.95,-125.8 479.95,-129.3 479.95,-122.3"/>
</g>
<!-- FilesStorageProducer -->
<g id="node8" class="node">
<title>FilesStorageProducer</title>
<ellipse fill="#fdb462" stroke="black" cx="388" cy="-66.8" rx="94.35" ry="18"/>
<text text-anchor="middle" x="388" y="-62.6" font-family="Times,serif" font-size="14.00">FilesStorageProducer</text>
</g>
<!-- FilesStorageProducer&#45;&gt;FilesStorageClientModule -->
<g id="edge7" class="edge">
<title>FilesStorageProducer&#45;&gt;FilesStorageClientModule</title>
<path fill="none" stroke="black" d="M388,-84.91C388,-84.91 388,-103.79 388,-103.79"/>
<polygon fill="black" stroke="black" points="384.5,-103.79 388,-113.79 391.5,-103.79 384.5,-103.79"/>
</g>
</g>
</svg>
