<?xml version="1.0" encoding="UTF-8" standalone="no"?>
<!DOCTYPE svg PUBLIC "-//W3C//DTD SVG 1.1//EN"
 "http://www.w3.org/Graphics/SVG/1.1/DTD/svg11.dtd">
<!-- Generated by graphviz version 2.47.0 (20210316.0004)
 -->
<!-- Title: dependencies Pages: 1 -->
<svg width="996pt" height="284pt"
 viewBox="0.00 0.00 996.00 284.00" xmlns="http://www.w3.org/2000/svg" xmlns:xlink="http://www.w3.org/1999/xlink">
<g id="graph0" class="graph" transform="scale(1 1) rotate(0) translate(4 280)">
<title>dependencies</title>
<polygon fill="white" stroke="transparent" points="-4,4 -4,-280 992,-280 992,4 -4,4"/>
<text text-anchor="start" x="473.01" y="-42.4" font-family="Times-12" font-weight="bold" font-size="14.00">Legend</text>
<polygon fill="#ffffb3" stroke="transparent" points="260,-10 260,-30 280,-30 280,-10 260,-10"/>
<text text-anchor="start" x="283.63" y="-15.4" font-family="Times-12" font-size="14.00"> &#160;Declarations</text>
<polygon fill="#8dd3c7" stroke="transparent" points="373,-10 373,-30 393,-30 393,-10 373,-10"/>
<text text-anchor="start" x="396.73" y="-15.4" font-family="Times-12" font-size="14.00"> &#160;Module</text>
<polygon fill="#80b1d3" stroke="transparent" points="459,-10 459,-30 479,-30 479,-10 459,-10"/>
<text text-anchor="start" x="482.78" y="-15.4" font-family="Times-12" font-size="14.00"> &#160;Bootstrap</text>
<polygon fill="#fdb462" stroke="transparent" points="556,-10 556,-30 576,-30 576,-10 556,-10"/>
<text text-anchor="start" x="579.67" y="-15.4" font-family="Times-12" font-size="14.00"> &#160;Providers</text>
<polygon fill="#fb8072" stroke="transparent" points="652,-10 652,-30 672,-30 672,-10 652,-10"/>
<text text-anchor="start" x="675.73" y="-15.4" font-family="Times-12" font-size="14.00"> &#160;Exports</text>
<g id="clust1" class="cluster">
<title>cluster_FilesStorageClientModule</title>
<polygon fill="none" stroke="black" stroke-dasharray="1,5" points="8,-70 8,-268 980,-268 980,-70 8,-70"/>
</g>
<g id="clust4" class="cluster">
<title>cluster_FilesStorageClientModule_exports</title>
<polygon fill="none" stroke="black" points="184,-208 184,-260 548,-260 548,-208 184,-208"/>
</g>
<g id="clust6" class="cluster">
<title>cluster_FilesStorageClientModule_providers</title>
<polygon fill="none" stroke="black" points="286,-78 286,-130 972,-130 972,-78 286,-78"/>
</g>
<g id="clust3" class="cluster">
<title>cluster_FilesStorageClientModule_imports</title>
<polygon fill="none" stroke="black" points="16,-78 16,-130 278,-130 278,-78 16,-78"/>
</g>
<!-- CopyHelperModule -->
<g id="node1" class="node">
<title>CopyHelperModule</title>
<polygon fill="#8dd3c7" stroke="black" points="269.97,-122 266.97,-126 245.97,-126 242.97,-122 142.03,-122 142.03,-86 269.97,-86 269.97,-122"/>
<text text-anchor="middle" x="206" y="-99.8" font-family="Times,serif" font-size="14.00">CopyHelperModule</text>
</g>
<!-- FilesStorageClientModule -->
<g id="node3" class="node">
<title>FilesStorageClientModule</title>
<polygon fill="#8dd3c7" stroke="black" points="469.76,-187 466.76,-191 445.76,-191 442.76,-187 306.24,-187 306.24,-151 469.76,-151 469.76,-187"/>
<text text-anchor="middle" x="388" y="-164.8" font-family="Times,serif" font-size="14.00">FilesStorageClientModule</text>
</g>
<!-- CopyHelperModule&#45;&gt;FilesStorageClientModule -->
<g id="edge1" class="edge">
<title>CopyHelperModule&#45;&gt;FilesStorageClientModule</title>
<path fill="none" stroke="black" d="M230.8,-122.02C230.8,-139.37 230.8,-163 230.8,-163 230.8,-163 296.18,-163 296.18,-163"/>
<polygon fill="black" stroke="black" points="296.18,-166.5 306.18,-163 296.18,-159.5 296.18,-166.5"/>
</g>
<!-- LoggerModule -->
<g id="node2" class="node">
<title>LoggerModule</title>
<polygon fill="#8dd3c7" stroke="black" points="123.98,-122 120.98,-126 99.98,-126 96.98,-122 24.02,-122 24.02,-86 123.98,-86 123.98,-122"/>
<text text-anchor="middle" x="74" y="-99.8" font-family="Times,serif" font-size="14.00">LoggerModule</text>
</g>
<!-- LoggerModule&#45;&gt;FilesStorageClientModule -->
<g id="edge2" class="edge">
<title>LoggerModule&#45;&gt;FilesStorageClientModule</title>
<path fill="none" stroke="black" d="M74,-122.28C74,-143.32 74,-175 74,-175 74,-175 295.91,-175 295.91,-175"/>
<polygon fill="black" stroke="black" points="295.91,-178.5 305.91,-175 295.91,-171.5 295.91,-178.5"/>
</g>
<!-- CopyFilesService  -->
<g id="node4" class="node">
<title>CopyFilesService </title>
<polygon fill="#fb8072" stroke="black" points="539.54,-252 420.46,-252 420.46,-216 539.54,-216 539.54,-252"/>
<text text-anchor="middle" x="480" y="-229.8" font-family="Times,serif" font-size="14.00">CopyFilesService </text>
</g>
<!-- FilesStorageClientModule&#45;&gt;CopyFilesService  -->
<g id="edge3" class="edge">
<title>FilesStorageClientModule&#45;&gt;CopyFilesService </title>
<path fill="none" stroke="black" stroke-dasharray="5,2" d="M445.18,-187.11C445.18,-187.11 445.18,-205.99 445.18,-205.99"/>
<polygon fill="black" stroke="black" points="441.68,-205.99 445.18,-215.99 448.68,-205.99 441.68,-205.99"/>
</g>
<!-- FilesStorageClientAdapterService  -->
<g id="node5" class="node">
<title>FilesStorageClientAdapterService </title>
<polygon fill="#fb8072" stroke="black" points="402.27,-252 191.73,-252 191.73,-216 402.27,-216 402.27,-252"/>
<text text-anchor="middle" x="297" y="-229.8" font-family="Times,serif" font-size="14.00">FilesStorageClientAdapterService </text>
</g>
<!-- FilesStorageClientModule&#45;&gt;FilesStorageClientAdapterService  -->
<g id="edge4" class="edge">
<title>FilesStorageClientModule&#45;&gt;FilesStorageClientAdapterService </title>
<path fill="none" stroke="black" stroke-dasharray="5,2" d="M354.25,-187.11C354.25,-187.11 354.25,-205.99 354.25,-205.99"/>
<polygon fill="black" stroke="black" points="350.75,-205.99 354.25,-215.99 357.75,-205.99 350.75,-205.99"/>
</g>
<!-- CopyFilesService -->
<g id="node6" class="node">
<title>CopyFilesService</title>
<ellipse fill="#fdb462" stroke="black" cx="884" cy="-104" rx="79.89" ry="18"/>
<text text-anchor="middle" x="884" y="-99.8" font-family="Times,serif" font-size="14.00">CopyFilesService</text>
</g>
<!-- CopyFilesService&#45;&gt;FilesStorageClientModule -->
<g id="edge5" class="edge">
<title>CopyFilesService&#45;&gt;FilesStorageClientModule</title>
<path fill="none" stroke="black" d="M884,-122.28C884,-143.32 884,-175 884,-175 884,-175 479.9,-175 479.9,-175"/>
<polygon fill="black" stroke="black" points="479.9,-171.5 469.9,-175 479.9,-178.5 479.9,-171.5"/>
</g>
<!-- FilesStorageClientAdapterService -->
<g id="node7" class="node">
<title>FilesStorageClientAdapterService</title>
<ellipse fill="#fdb462" stroke="black" cx="643" cy="-104" rx="142.95" ry="18"/>
<text text-anchor="middle" x="643" y="-99.8" font-family="Times,serif" font-size="14.00">FilesStorageClientAdapterService</text>
</g>
<!-- FilesStorageClientAdapterService&#45;&gt;FilesStorageClientModule -->
<g id="edge6" class="edge">
<title>FilesStorageClientAdapterService&#45;&gt;FilesStorageClientModule</title>
<path fill="none" stroke="black" d="M519.77,-113.22C519.77,-129.81 519.77,-163 519.77,-163 519.77,-163 479.95,-163 479.95,-163"/>
<polygon fill="black" stroke="black" points="479.96,-159.5 469.95,-163 479.95,-166.5 479.96,-159.5"/>
</g>
<!-- FilesStorageProducer -->
<g id="node8" class="node">
<title>FilesStorageProducer</title>
<ellipse fill="#fdb462" stroke="black" cx="388" cy="-104" rx="94.34" ry="18"/>
<text text-anchor="middle" x="388" y="-99.8" font-family="Times,serif" font-size="14.00">FilesStorageProducer</text>
</g>
<!-- FilesStorageProducer&#45;&gt;FilesStorageClientModule -->
<g id="edge7" class="edge">
<title>FilesStorageProducer&#45;&gt;FilesStorageClientModule</title>
<path fill="none" stroke="black" d="M388,-122.11C388,-122.11 388,-140.99 388,-140.99"/>
<polygon fill="black" stroke="black" points="384.5,-140.99 388,-150.99 391.5,-140.99 384.5,-140.99"/>
</g>
</g>
</svg>
