<?xml version="1.0" encoding="UTF-8" standalone="no"?>
<!DOCTYPE svg PUBLIC "-//W3C//DTD SVG 1.1//EN"
 "http://www.w3.org/Graphics/SVG/1.1/DTD/svg11.dtd">
<!-- Generated by graphviz version 2.47.0 (20210316.0004)
 -->
<!-- Title: dependencies Pages: 1 -->
<svg width="1130pt" height="211pt"
 viewBox="0.00 0.00 1130.00 211.00" xmlns="http://www.w3.org/2000/svg" xmlns:xlink="http://www.w3.org/1999/xlink">
<g id="graph0" class="graph" transform="scale(1 1) rotate(0) translate(4 207)">
<title>dependencies</title>
<polygon fill="white" stroke="transparent" points="-4,4 -4,-207 1126,-207 1126,4 -4,4"/>
<text text-anchor="start" x="540.01" y="-42.4" font-family="Times-12" font-weight="bold" font-size="14.00">Legend</text>
<polygon fill="#ffffb3" stroke="transparent" points="327,-10 327,-30 347,-30 347,-10 327,-10"/>
<text text-anchor="start" x="350.63" y="-15.4" font-family="Times-12" font-size="14.00"> &#160;Declarations</text>
<polygon fill="#8dd3c7" stroke="transparent" points="440,-10 440,-30 460,-30 460,-10 440,-10"/>
<text text-anchor="start" x="463.73" y="-15.4" font-family="Times-12" font-size="14.00"> &#160;Module</text>
<polygon fill="#80b1d3" stroke="transparent" points="526,-10 526,-30 546,-30 546,-10 526,-10"/>
<text text-anchor="start" x="549.78" y="-15.4" font-family="Times-12" font-size="14.00"> &#160;Bootstrap</text>
<polygon fill="#fdb462" stroke="transparent" points="623,-10 623,-30 643,-30 643,-10 623,-10"/>
<text text-anchor="start" x="646.67" y="-15.4" font-family="Times-12" font-size="14.00"> &#160;Providers</text>
<polygon fill="#fb8072" stroke="transparent" points="719,-10 719,-30 739,-30 739,-10 719,-10"/>
<text text-anchor="start" x="742.73" y="-15.4" font-family="Times-12" font-size="14.00"> &#160;Exports</text>
<g id="clust1" class="cluster">
<title>cluster_FwuLearningContentsModule</title>
<polygon fill="none" stroke="black" stroke-dasharray="1,5" points="8,-70 8,-195 1114,-195 1114,-70 8,-70"/>
</g>
<g id="clust3" class="cluster">
<title>cluster_FwuLearningContentsModule_imports</title>
<polygon fill="none" stroke="black" points="258,-78 258,-130 1106,-130 1106,-78 258,-78"/>
</g>
<g id="clust6" class="cluster">
<title>cluster_FwuLearningContentsModule_providers</title>
<polygon fill="none" stroke="black" points="16,-78 16,-130 250,-130 250,-78 16,-78"/>
</g>
<!-- AuthenticationModule -->
<g id="node1" class="node">
<title>AuthenticationModule</title>
<polygon fill="#8dd3c7" stroke="black" points="1098.25,-122 1095.25,-126 1074.25,-126 1071.25,-122 955.75,-122 955.75,-86 1098.25,-86 1098.25,-122"/>
<text text-anchor="middle" x="1027" y="-99.8" font-family="Times,serif" font-size="14.00">AuthenticationModule</text>
</g>
<!-- FwuLearningContentsModule -->
<g id="node7" class="node">
<title>FwuLearningContentsModule</title>
<polygon fill="#8dd3c7" stroke="black" points="720.25,-187 717.25,-191 696.25,-191 693.25,-187 535.75,-187 535.75,-151 720.25,-151 720.25,-187"/>
<text text-anchor="middle" x="628" y="-164.8" font-family="Times,serif" font-size="14.00">FwuLearningContentsModule</text>
</g>
<!-- AuthenticationModule&#45;&gt;FwuLearningContentsModule -->
<g id="edge1" class="edge">
<title>AuthenticationModule&#45;&gt;FwuLearningContentsModule</title>
<path fill="none" stroke="black" d="M1027,-122.28C1027,-143.32 1027,-175 1027,-175 1027,-175 730.29,-175 730.29,-175"/>
<polygon fill="black" stroke="black" points="730.29,-171.5 720.29,-175 730.29,-178.5 730.29,-171.5"/>
</g>
<!-- AuthorizationModule -->
<g id="node2" class="node">
<title>AuthorizationModule</title>
<polygon fill="#8dd3c7" stroke="black" points="937.81,-122 934.81,-126 913.81,-126 910.81,-122 800.19,-122 800.19,-86 937.81,-86 937.81,-122"/>
<text text-anchor="middle" x="869" y="-99.8" font-family="Times,serif" font-size="14.00">AuthorizationModule</text>
</g>
<!-- AuthorizationModule&#45;&gt;FwuLearningContentsModule -->
<g id="edge2" class="edge">
<title>AuthorizationModule&#45;&gt;FwuLearningContentsModule</title>
<path fill="none" stroke="black" d="M869,-122.02C869,-139.37 869,-163 869,-163 869,-163 730.49,-163 730.49,-163"/>
<polygon fill="black" stroke="black" points="730.49,-159.5 720.49,-163 730.49,-166.5 730.49,-159.5"/>
</g>
<!-- CoreModule -->
<g id="node3" class="node">
<title>CoreModule</title>
<polygon fill="#8dd3c7" stroke="black" points="782.26,-122 779.26,-126 758.26,-126 755.26,-122 695.74,-122 695.74,-86 782.26,-86 782.26,-122"/>
<text text-anchor="middle" x="739" y="-99.8" font-family="Times,serif" font-size="14.00">CoreModule</text>
</g>
<!-- CoreModule&#45;&gt;FwuLearningContentsModule -->
<g id="edge3" class="edge">
<title>CoreModule&#45;&gt;FwuLearningContentsModule</title>
<path fill="none" stroke="black" d="M708,-122.11C708,-122.11 708,-140.99 708,-140.99"/>
<polygon fill="black" stroke="black" points="704.5,-140.99 708,-150.99 711.5,-140.99 704.5,-140.99"/>
</g>
<!-- LoggerModule -->
<g id="node4" class="node">
<title>LoggerModule</title>
<polygon fill="#8dd3c7" stroke="black" points="677.98,-122 674.98,-126 653.98,-126 650.98,-122 578.02,-122 578.02,-86 677.98,-86 677.98,-122"/>
<text text-anchor="middle" x="628" y="-99.8" font-family="Times,serif" font-size="14.00">LoggerModule</text>
</g>
<!-- LoggerModule&#45;&gt;FwuLearningContentsModule -->
<g id="edge4" class="edge">
<title>LoggerModule&#45;&gt;FwuLearningContentsModule</title>
<path fill="none" stroke="black" d="M628,-122.11C628,-122.11 628,-140.99 628,-140.99"/>
<polygon fill="black" stroke="black" points="624.5,-140.99 628,-150.99 631.5,-140.99 624.5,-140.99"/>
</g>
<!-- RabbitMQWrapperModule -->
<g id="node5" class="node">
<title>RabbitMQWrapperModule</title>
<polygon fill="#8dd3c7" stroke="black" points="560.4,-122 557.4,-126 536.4,-126 533.4,-122 391.6,-122 391.6,-86 560.4,-86 560.4,-122"/>
<text text-anchor="middle" x="476" y="-99.8" font-family="Times,serif" font-size="14.00">RabbitMQWrapperModule</text>
</g>
<!-- RabbitMQWrapperModule&#45;&gt;FwuLearningContentsModule -->
<g id="edge5" class="edge">
<title>RabbitMQWrapperModule&#45;&gt;FwuLearningContentsModule</title>
<path fill="none" stroke="black" d="M547.91,-122.11C547.91,-122.11 547.91,-140.99 547.91,-140.99"/>
<polygon fill="black" stroke="black" points="544.41,-140.99 547.91,-150.99 551.41,-140.99 544.41,-140.99"/>
</g>
<!-- S3ClientModule -->
<g id="node6" class="node">
<title>S3ClientModule</title>
<polygon fill="#8dd3c7" stroke="black" points="374.06,-122 371.06,-126 350.06,-126 347.06,-122 265.94,-122 265.94,-86 374.06,-86 374.06,-122"/>
<text text-anchor="middle" x="320" y="-99.8" font-family="Times,serif" font-size="14.00">S3ClientModule</text>
</g>
<!-- S3ClientModule&#45;&gt;FwuLearningContentsModule -->
<g id="edge6" class="edge">
<title>S3ClientModule&#45;&gt;FwuLearningContentsModule</title>
<path fill="none" stroke="black" d="M320,-122.02C320,-139.37 320,-163 320,-163 320,-163 525.59,-163 525.59,-163"/>
<polygon fill="black" stroke="black" points="525.59,-166.5 535.59,-163 525.59,-159.5 525.59,-166.5"/>
</g>
<!-- FwuLearningContentsUc -->
<g id="node8" class="node">
<title>FwuLearningContentsUc</title>
<ellipse fill="#fdb462" stroke="black" cx="133" cy="-104" rx="108.81" ry="18"/>
<text text-anchor="middle" x="133" y="-99.8" font-family="Times,serif" font-size="14.00">FwuLearningContentsUc</text>
</g>
<!-- FwuLearningContentsUc&#45;&gt;FwuLearningContentsModule -->
<g id="edge7" class="edge">
<title>FwuLearningContentsUc&#45;&gt;FwuLearningContentsModule</title>
<path fill="none" stroke="black" d="M133,-122.28C133,-143.32 133,-175 133,-175 133,-175 525.47,-175 525.47,-175"/>
<polygon fill="black" stroke="black" points="525.47,-178.5 535.47,-175 525.47,-171.5 525.47,-178.5"/>
</g>
</g>
</svg>
