<?xml version="1.0" encoding="UTF-8" standalone="no"?>
<!DOCTYPE svg PUBLIC "-//W3C//DTD SVG 1.1//EN"
 "http://www.w3.org/Graphics/SVG/1.1/DTD/svg11.dtd">
<!-- Generated by graphviz version 2.47.0 (20210316.0004)
 -->
<!-- Title: dependencies Pages: 1 -->
<svg width="1176pt" height="211pt"
 viewBox="0.00 0.00 1176.00 211.00" xmlns="http://www.w3.org/2000/svg" xmlns:xlink="http://www.w3.org/1999/xlink">
<g id="graph0" class="graph" transform="scale(1 1) rotate(0) translate(4 207)">
<title>dependencies</title>
<polygon fill="white" stroke="transparent" points="-4,4 -4,-207 1172,-207 1172,4 -4,4"/>
<text text-anchor="start" x="563.01" y="-42.4" font-family="Times-12" font-weight="bold" font-size="14.00">Legend</text>
<polygon fill="#ffffb3" stroke="transparent" points="350,-10 350,-30 370,-30 370,-10 350,-10"/>
<text text-anchor="start" x="373.63" y="-15.4" font-family="Times-12" font-size="14.00"> &#160;Declarations</text>
<polygon fill="#8dd3c7" stroke="transparent" points="463,-10 463,-30 483,-30 483,-10 463,-10"/>
<text text-anchor="start" x="486.73" y="-15.4" font-family="Times-12" font-size="14.00"> &#160;Module</text>
<polygon fill="#80b1d3" stroke="transparent" points="549,-10 549,-30 569,-30 569,-10 549,-10"/>
<text text-anchor="start" x="572.78" y="-15.4" font-family="Times-12" font-size="14.00"> &#160;Bootstrap</text>
<polygon fill="#fdb462" stroke="transparent" points="646,-10 646,-30 666,-30 666,-10 646,-10"/>
<text text-anchor="start" x="669.67" y="-15.4" font-family="Times-12" font-size="14.00"> &#160;Providers</text>
<polygon fill="#fb8072" stroke="transparent" points="742,-10 742,-30 762,-30 762,-10 742,-10"/>
<text text-anchor="start" x="765.73" y="-15.4" font-family="Times-12" font-size="14.00"> &#160;Exports</text>
<g id="clust1" class="cluster">
<title>cluster_FwuLearningContentsModule</title>
<polygon fill="none" stroke="black" stroke-dasharray="1,5" points="8,-70 8,-195 1160,-195 1160,-70 8,-70"/>
</g>
<g id="clust6" class="cluster">
<title>cluster_FwuLearningContentsModule_providers</title>
<polygon fill="none" stroke="black" points="748,-78 748,-130 1152,-130 1152,-78 748,-78"/>
</g>
<g id="clust3" class="cluster">
<title>cluster_FwuLearningContentsModule_imports</title>
<polygon fill="none" stroke="black" points="16,-78 16,-130 740,-130 740,-78 16,-78"/>
</g>
<!-- AuthenticationModule -->
<g id="node1" class="node">
<title>AuthenticationModule</title>
<polygon fill="#8dd3c7" stroke="black" points="732.25,-122 729.25,-126 708.25,-126 705.25,-122 589.75,-122 589.75,-86 732.25,-86 732.25,-122"/>
<text text-anchor="middle" x="661" y="-99.8" font-family="Times,serif" font-size="14.00">AuthenticationModule</text>
</g>
<!-- FwuLearningContentsModule -->
<g id="node6" class="node">
<title>FwuLearningContentsModule</title>
<polygon fill="#8dd3c7" stroke="black" points="595.25,-187 592.25,-191 571.25,-191 568.25,-187 410.75,-187 410.75,-151 595.25,-151 595.25,-187"/>
<text text-anchor="middle" x="503" y="-164.8" font-family="Times,serif" font-size="14.00">FwuLearningContentsModule</text>
</g>
<!-- AuthenticationModule&#45;&gt;FwuLearningContentsModule -->
<g id="edge1" class="edge">
<title>AuthenticationModule&#45;&gt;FwuLearningContentsModule</title>
<path fill="none" stroke="black" d="M589.55,-104C584.08,-104 580.64,-104 580.64,-104 580.64,-104 580.64,-140.89 580.64,-140.89"/>
<polygon fill="black" stroke="black" points="577.14,-140.89 580.64,-150.89 584.14,-140.89 577.14,-140.89"/>
</g>
<!-- AuthorizationModule -->
<g id="node2" class="node">
<title>AuthorizationModule</title>
<polygon fill="#8dd3c7" stroke="black" points="571.81,-122 568.81,-126 547.81,-126 544.81,-122 434.19,-122 434.19,-86 571.81,-86 571.81,-122"/>
<text text-anchor="middle" x="503" y="-99.8" font-family="Times,serif" font-size="14.00">AuthorizationModule</text>
</g>
<!-- AuthorizationModule&#45;&gt;FwuLearningContentsModule -->
<g id="edge2" class="edge">
<title>AuthorizationModule&#45;&gt;FwuLearningContentsModule</title>
<path fill="none" stroke="black" d="M503,-122.11C503,-122.11 503,-140.99 503,-140.99"/>
<polygon fill="black" stroke="black" points="499.5,-140.99 503,-150.99 506.5,-140.99 499.5,-140.99"/>
</g>
<!-- CoreModule -->
<g id="node3" class="node">
<title>CoreModule</title>
<polygon fill="#8dd3c7" stroke="black" points="416.26,-122 413.26,-126 392.26,-126 389.26,-122 329.74,-122 329.74,-86 416.26,-86 416.26,-122"/>
<text text-anchor="middle" x="373" y="-99.8" font-family="Times,serif" font-size="14.00">CoreModule</text>
</g>
<!-- CoreModule&#45;&gt;FwuLearningContentsModule -->
<g id="edge3" class="edge">
<title>CoreModule&#45;&gt;FwuLearningContentsModule</title>
<path fill="none" stroke="black" d="M416.72,-104C421.88,-104 425.36,-104 425.36,-104 425.36,-104 425.36,-140.89 425.36,-140.89"/>
<polygon fill="black" stroke="black" points="421.86,-140.89 425.36,-150.89 428.86,-140.89 421.86,-140.89"/>
</g>
<!-- FilesStorageAMQPModule -->
<g id="node4" class="node">
<title>FilesStorageAMQPModule</title>
<polygon fill="#8dd3c7" stroke="black" points="311.98,-122 308.98,-126 287.98,-126 284.98,-122 142.02,-122 142.02,-86 311.98,-86 311.98,-122"/>
<text text-anchor="middle" x="227" y="-99.8" font-family="Times,serif" font-size="14.00">FilesStorageAMQPModule</text>
</g>
<!-- FilesStorageAMQPModule&#45;&gt;FwuLearningContentsModule -->
<g id="edge4" class="edge">
<title>FilesStorageAMQPModule&#45;&gt;FwuLearningContentsModule</title>
<path fill="none" stroke="black" d="M227,-122.02C227,-139.37 227,-163 227,-163 227,-163 400.71,-163 400.71,-163"/>
<polygon fill="black" stroke="black" points="400.71,-166.5 410.71,-163 400.71,-159.5 400.71,-166.5"/>
</g>
<!-- LoggerModule -->
<g id="node5" class="node">
<title>LoggerModule</title>
<polygon fill="#8dd3c7" stroke="black" points="123.98,-122 120.98,-126 99.98,-126 96.98,-122 24.02,-122 24.02,-86 123.98,-86 123.98,-122"/>
<text text-anchor="middle" x="74" y="-99.8" font-family="Times,serif" font-size="14.00">LoggerModule</text>
</g>
<!-- LoggerModule&#45;&gt;FwuLearningContentsModule -->
<g id="edge5" class="edge">
<title>LoggerModule&#45;&gt;FwuLearningContentsModule</title>
<path fill="none" stroke="black" d="M74,-122.28C74,-143.32 74,-175 74,-175 74,-175 400.71,-175 400.71,-175"/>
<polygon fill="black" stroke="black" points="400.71,-178.5 410.71,-175 400.71,-171.5 400.71,-178.5"/>
</g>
<!-- FwuLearningContentsUc -->
<g id="node7" class="node">
<title>FwuLearningContentsUc</title>
<ellipse fill="#fdb462" stroke="black" cx="1035" cy="-104" rx="108.81" ry="18"/>
<text text-anchor="middle" x="1035" y="-99.8" font-family="Times,serif" font-size="14.00">FwuLearningContentsUc</text>
</g>
<!-- FwuLearningContentsUc&#45;&gt;FwuLearningContentsModule -->
<g id="edge6" class="edge">
<title>FwuLearningContentsUc&#45;&gt;FwuLearningContentsModule</title>
<path fill="none" stroke="black" d="M1035,-122.28C1035,-143.32 1035,-175 1035,-175 1035,-175 605.36,-175 605.36,-175"/>
<polygon fill="black" stroke="black" points="605.36,-171.5 595.36,-175 605.36,-178.5 605.36,-171.5"/>
</g>
<!-- S3ClientAdapter -->
<g id="node8" class="node">
<title>S3ClientAdapter</title>
<ellipse fill="#fdb462" stroke="black" cx="832" cy="-104" rx="75.88" ry="18"/>
<text text-anchor="middle" x="832" y="-99.8" font-family="Times,serif" font-size="14.00">S3ClientAdapter</text>
</g>
<!-- S3ClientAdapter&#45;&gt;FwuLearningContentsModule -->
<g id="edge7" class="edge">
<title>S3ClientAdapter&#45;&gt;FwuLearningContentsModule</title>
<path fill="none" stroke="black" d="M832,-122.02C832,-139.37 832,-163 832,-163 832,-163 605.52,-163 605.52,-163"/>
<polygon fill="black" stroke="black" points="605.52,-159.5 595.52,-163 605.52,-166.5 605.52,-159.5"/>
</g>
</g>
</svg>
