<?xml version="1.0" encoding="UTF-8" standalone="no"?>
<!DOCTYPE svg PUBLIC "-//W3C//DTD SVG 1.1//EN"
 "http://www.w3.org/Graphics/SVG/1.1/DTD/svg11.dtd">
<!-- Generated by graphviz version 2.47.0 (20210316.0004)
 -->
<!-- Title: dependencies Pages: 1 -->
<svg width="1132pt" height="211pt"
 viewBox="0.00 0.00 1132.00 211.00" xmlns="http://www.w3.org/2000/svg" xmlns:xlink="http://www.w3.org/1999/xlink">
<g id="graph0" class="graph" transform="scale(1 1) rotate(0) translate(4 207)">
<title>dependencies</title>
<polygon fill="white" stroke="transparent" points="-4,4 -4,-207 1128,-207 1128,4 -4,4"/>
<text text-anchor="start" x="541.01" y="-42.4" font-family="Times-12" font-weight="bold" font-size="14.00">Legend</text>
<polygon fill="#ffffb3" stroke="transparent" points="328,-10 328,-30 348,-30 348,-10 328,-10"/>
<text text-anchor="start" x="351.63" y="-15.4" font-family="Times-12" font-size="14.00"> &#160;Declarations</text>
<polygon fill="#8dd3c7" stroke="transparent" points="441,-10 441,-30 461,-30 461,-10 441,-10"/>
<text text-anchor="start" x="464.73" y="-15.4" font-family="Times-12" font-size="14.00"> &#160;Module</text>
<polygon fill="#80b1d3" stroke="transparent" points="527,-10 527,-30 547,-30 547,-10 527,-10"/>
<text text-anchor="start" x="550.78" y="-15.4" font-family="Times-12" font-size="14.00"> &#160;Bootstrap</text>
<polygon fill="#fdb462" stroke="transparent" points="624,-10 624,-30 644,-30 644,-10 624,-10"/>
<text text-anchor="start" x="647.67" y="-15.4" font-family="Times-12" font-size="14.00"> &#160;Providers</text>
<polygon fill="#fb8072" stroke="transparent" points="720,-10 720,-30 740,-30 740,-10 720,-10"/>
<text text-anchor="start" x="743.73" y="-15.4" font-family="Times-12" font-size="14.00"> &#160;Exports</text>
<g id="clust1" class="cluster">
<title>cluster_FwuLearningContentsModule</title>
<polygon fill="none" stroke="black" stroke-dasharray="1,5" points="8,-70 8,-195 1116,-195 1116,-70 8,-70"/>
</g>
<g id="clust3" class="cluster">
<title>cluster_FwuLearningContentsModule_imports</title>
<polygon fill="none" stroke="black" points="258,-78 258,-130 1108,-130 1108,-78 258,-78"/>
</g>
<g id="clust6" class="cluster">
<title>cluster_FwuLearningContentsModule_providers</title>
<polygon fill="none" stroke="black" points="16,-78 16,-130 250,-130 250,-78 16,-78"/>
</g>
<!-- AuthenticationModule -->
<g id="node1" class="node">
<title>AuthenticationModule</title>
<polygon fill="#8dd3c7" stroke="black" points="1100.25,-122 1097.25,-126 1076.25,-126 1073.25,-122 957.75,-122 957.75,-86 1100.25,-86 1100.25,-122"/>
<text text-anchor="middle" x="1029" y="-99.8" font-family="Times,serif" font-size="14.00">AuthenticationModule</text>
</g>
<!-- FwuLearningContentsModule -->
<g id="node7" class="node">
<title>FwuLearningContentsModule</title>
<polygon fill="#8dd3c7" stroke="black" points="687.25,-187 684.25,-191 663.25,-191 660.25,-187 502.75,-187 502.75,-151 687.25,-151 687.25,-187"/>
<text text-anchor="middle" x="595" y="-164.8" font-family="Times,serif" font-size="14.00">FwuLearningContentsModule</text>
</g>
<!-- AuthenticationModule&#45;&gt;FwuLearningContentsModule -->
<g id="edge1" class="edge">
<title>AuthenticationModule&#45;&gt;FwuLearningContentsModule</title>
<path fill="none" stroke="black" d="M1029,-122.28C1029,-143.32 1029,-175 1029,-175 1029,-175 697.31,-175 697.31,-175"/>
<polygon fill="black" stroke="black" points="697.31,-171.5 687.31,-175 697.31,-178.5 697.31,-171.5"/>
</g>
<!-- AuthorizationModule -->
<g id="node2" class="node">
<title>AuthorizationModule</title>
<polygon fill="#8dd3c7" stroke="black" points="939.81,-122 936.81,-126 915.81,-126 912.81,-122 802.19,-122 802.19,-86 939.81,-86 939.81,-122"/>
<text text-anchor="middle" x="871" y="-99.8" font-family="Times,serif" font-size="14.00">AuthorizationModule</text>
</g>
<!-- AuthorizationModule&#45;&gt;FwuLearningContentsModule -->
<g id="edge2" class="edge">
<title>AuthorizationModule&#45;&gt;FwuLearningContentsModule</title>
<path fill="none" stroke="black" d="M871,-122.02C871,-139.37 871,-163 871,-163 871,-163 697.29,-163 697.29,-163"/>
<polygon fill="black" stroke="black" points="697.29,-159.5 687.29,-163 697.29,-166.5 697.29,-159.5"/>
</g>
<!-- CoreModule -->
<g id="node3" class="node">
<title>CoreModule</title>
<polygon fill="#8dd3c7" stroke="black" points="784.26,-122 781.26,-126 760.26,-126 757.26,-122 697.74,-122 697.74,-86 784.26,-86 784.26,-122"/>
<text text-anchor="middle" x="741" y="-99.8" font-family="Times,serif" font-size="14.00">CoreModule</text>
</g>
<!-- CoreModule&#45;&gt;FwuLearningContentsModule -->
<g id="edge3" class="edge">
<title>CoreModule&#45;&gt;FwuLearningContentsModule</title>
<path fill="none" stroke="black" d="M697.56,-104C689.56,-104 683.68,-104 683.68,-104 683.68,-104 683.68,-140.89 683.68,-140.89"/>
<polygon fill="black" stroke="black" points="680.18,-140.89 683.68,-150.89 687.18,-140.89 680.18,-140.89"/>
</g>
<!-- FilesStorageAMQPModule -->
<g id="node4" class="node">
<title>FilesStorageAMQPModule</title>
<polygon fill="#8dd3c7" stroke="black" points="679.98,-122 676.98,-126 655.98,-126 652.98,-122 510.02,-122 510.02,-86 679.98,-86 679.98,-122"/>
<text text-anchor="middle" x="595" y="-99.8" font-family="Times,serif" font-size="14.00">FilesStorageAMQPModule</text>
</g>
<!-- FilesStorageAMQPModule&#45;&gt;FwuLearningContentsModule -->
<g id="edge4" class="edge">
<title>FilesStorageAMQPModule&#45;&gt;FwuLearningContentsModule</title>
<path fill="none" stroke="black" d="M595,-122.11C595,-122.11 595,-140.99 595,-140.99"/>
<polygon fill="black" stroke="black" points="591.5,-140.99 595,-150.99 598.5,-140.99 591.5,-140.99"/>
</g>
<!-- LoggerModule -->
<g id="node5" class="node">
<title>LoggerModule</title>
<polygon fill="#8dd3c7" stroke="black" points="491.98,-122 488.98,-126 467.98,-126 464.98,-122 392.02,-122 392.02,-86 491.98,-86 491.98,-122"/>
<text text-anchor="middle" x="442" y="-99.8" font-family="Times,serif" font-size="14.00">LoggerModule</text>
</g>
<!-- LoggerModule&#45;&gt;FwuLearningContentsModule -->
<g id="edge5" class="edge">
<title>LoggerModule&#45;&gt;FwuLearningContentsModule</title>
<path fill="none" stroke="black" d="M492.04,-104C500.35,-104 506.32,-104 506.32,-104 506.32,-104 506.32,-140.89 506.32,-140.89"/>
<polygon fill="black" stroke="black" points="502.82,-140.89 506.32,-150.89 509.82,-140.89 502.82,-140.89"/>
</g>
<!-- S3ClientModule -->
<g id="node6" class="node">
<title>S3ClientModule</title>
<polygon fill="#8dd3c7" stroke="black" points="374.06,-122 371.06,-126 350.06,-126 347.06,-122 265.94,-122 265.94,-86 374.06,-86 374.06,-122"/>
<text text-anchor="middle" x="320" y="-99.8" font-family="Times,serif" font-size="14.00">S3ClientModule</text>
</g>
<!-- S3ClientModule&#45;&gt;FwuLearningContentsModule -->
<g id="edge6" class="edge">
<title>S3ClientModule&#45;&gt;FwuLearningContentsModule</title>
<path fill="none" stroke="black" d="M320,-122.02C320,-139.37 320,-163 320,-163 320,-163 492.66,-163 492.66,-163"/>
<polygon fill="black" stroke="black" points="492.66,-166.5 502.66,-163 492.66,-159.5 492.66,-166.5"/>
</g>
<!-- FwuLearningContentsUc -->
<g id="node8" class="node">
<title>FwuLearningContentsUc</title>
<ellipse fill="#fdb462" stroke="black" cx="133" cy="-104" rx="108.81" ry="18"/>
<text text-anchor="middle" x="133" y="-99.8" font-family="Times,serif" font-size="14.00">FwuLearningContentsUc</text>
</g>
<!-- FwuLearningContentsUc&#45;&gt;FwuLearningContentsModule -->
<g id="edge7" class="edge">
<title>FwuLearningContentsUc&#45;&gt;FwuLearningContentsModule</title>
<path fill="none" stroke="black" d="M133,-122.28C133,-143.32 133,-175 133,-175 133,-175 492.62,-175 492.62,-175"/>
<polygon fill="black" stroke="black" points="492.62,-178.5 502.62,-175 492.62,-171.5 492.62,-178.5"/>
</g>
</g>
</svg>
