<?xml version="1.0" encoding="UTF-8" standalone="no"?>
<!DOCTYPE svg PUBLIC "-//W3C//DTD SVG 1.1//EN"
 "http://www.w3.org/Graphics/SVG/1.1/DTD/svg11.dtd">
<!-- Generated by graphviz version 5.0.0 (20220707.1540)
 -->
<!-- Title: dependencies Pages: 1 -->
<svg width="966pt" height="174pt"
 viewBox="0.00 0.00 966.00 173.80" xmlns="http://www.w3.org/2000/svg" xmlns:xlink="http://www.w3.org/1999/xlink">
<g id="graph0" class="graph" transform="scale(1 1) rotate(0) translate(4 169.8)">
<title>dependencies</title>
<polygon fill="white" stroke="transparent" points="-4,4 -4,-169.8 962,-169.8 962,4 -4,4"/>
<text text-anchor="middle" x="479" y="-8.2" font-family="sans-serif" font-size="14.00">dependencies</text>
<g id="clust1" class="cluster">
<title>cluster_FwuLearningContentsModule</title>
<polygon fill="none" stroke="black" stroke-dasharray="1,5" points="8,-32.8 8,-157.8 950,-157.8 950,-32.8 8,-32.8"/>
</g>
<g id="clust6" class="cluster">
<title>cluster_FwuLearningContentsModule_providers</title>
<polygon fill="none" stroke="black" points="442,-40.8 442,-92.8 942,-92.8 942,-40.8 442,-40.8"/>
</g>
<g id="clust3" class="cluster">
<title>cluster_FwuLearningContentsModule_imports</title>
<polygon fill="none" stroke="black" points="16,-40.8 16,-92.8 434,-92.8 434,-40.8 16,-40.8"/>
</g>
<!-- AuthenticationModule -->
<g id="node1" class="node">
<title>AuthenticationModule</title>
<polygon fill="#8dd3c7" stroke="black" points="426.25,-84.8 423.25,-88.8 402.25,-88.8 399.25,-84.8 283.75,-84.8 283.75,-48.8 426.25,-48.8 426.25,-84.8"/>
<text text-anchor="middle" x="355" y="-62.6" font-family="Times,serif" font-size="14.00">AuthenticationModule</text>
</g>
<!-- FwuLearningContentsModule -->
<g id="node4" class="node">
<title>FwuLearningContentsModule</title>
<polygon fill="#8dd3c7" stroke="black" points="532.26,-149.8 529.26,-153.8 508.26,-153.8 505.26,-149.8 347.74,-149.8 347.74,-113.8 532.26,-113.8 532.26,-149.8"/>
<text text-anchor="middle" x="440" y="-127.6" font-family="Times,serif" font-size="14.00">FwuLearningContentsModule</text>
</g>
<!-- AuthenticationModule&#45;&gt;FwuLearningContentsModule -->
<g id="edge1" class="edge">
<title>AuthenticationModule&#45;&gt;FwuLearningContentsModule</title>
<path fill="none" stroke="black" d="M387,-84.91C387,-84.91 387,-103.79 387,-103.79"/>
<polygon fill="black" stroke="black" points="383.5,-103.79 387,-113.79 390.5,-103.79 383.5,-103.79"/>
</g>
<!-- AuthorizationModule -->
<g id="node2" class="node">
<title>AuthorizationModule</title>
<polygon fill="#8dd3c7" stroke="black" points="265.81,-84.8 262.81,-88.8 241.81,-88.8 238.81,-84.8 128.19,-84.8 128.19,-48.8 265.81,-48.8 265.81,-84.8"/>
<text text-anchor="middle" x="197" y="-62.6" font-family="Times,serif" font-size="14.00">AuthorizationModule</text>
</g>
<!-- AuthorizationModule&#45;&gt;FwuLearningContentsModule -->
<g id="edge2" class="edge">
<title>AuthorizationModule&#45;&gt;FwuLearningContentsModule</title>
<path fill="none" stroke="black" d="M197,-84.82C197,-102.17 197,-125.8 197,-125.8 197,-125.8 337.44,-125.8 337.44,-125.8"/>
<polygon fill="black" stroke="black" points="337.44,-129.3 347.44,-125.8 337.44,-122.3 337.44,-129.3"/>
</g>
<!-- CoreModule -->
<g id="node3" class="node">
<title>CoreModule</title>
<polygon fill="#8dd3c7" stroke="black" points="110.27,-84.8 107.27,-88.8 86.27,-88.8 83.27,-84.8 23.73,-84.8 23.73,-48.8 110.27,-48.8 110.27,-84.8"/>
<text text-anchor="middle" x="67" y="-62.6" font-family="Times,serif" font-size="14.00">CoreModule</text>
</g>
<!-- CoreModule&#45;&gt;FwuLearningContentsModule -->
<g id="edge3" class="edge">
<title>CoreModule&#45;&gt;FwuLearningContentsModule</title>
<path fill="none" stroke="black" d="M67,-85.08C67,-106.12 67,-137.8 67,-137.8 67,-137.8 337.32,-137.8 337.32,-137.8"/>
<polygon fill="black" stroke="black" points="337.32,-141.3 347.32,-137.8 337.32,-134.3 337.32,-141.3"/>
</g>
<!-- FwuLearningContentsUc -->
<g id="node5" class="node">
<title>FwuLearningContentsUc</title>
<ellipse fill="#fdb462" stroke="black" cx="825" cy="-66.8" rx="108.82" ry="18"/>
<text text-anchor="middle" x="825" y="-62.6" font-family="Times,serif" font-size="14.00">FwuLearningContentsUc</text>
</g>
<!-- FwuLearningContentsUc&#45;&gt;FwuLearningContentsModule -->
<g id="edge4" class="edge">
<title>FwuLearningContentsUc&#45;&gt;FwuLearningContentsModule</title>
<path fill="none" stroke="black" d="M825,-85.08C825,-106.12 825,-137.8 825,-137.8 825,-137.8 542.71,-137.8 542.71,-137.8"/>
<polygon fill="black" stroke="black" points="542.71,-134.3 532.71,-137.8 542.71,-141.3 542.71,-134.3"/>
</g>
<!-- Logger -->
<g id="node6" class="node">
<title>Logger</title>
<ellipse fill="#fdb462" stroke="black" cx="659" cy="-66.8" rx="38.85" ry="18"/>
<text text-anchor="middle" x="659" y="-62.6" font-family="Times,serif" font-size="14.00">Logger</text>
</g>
<!-- Logger&#45;&gt;FwuLearningContentsModule -->
<g id="edge5" class="edge">
<title>Logger&#45;&gt;FwuLearningContentsModule</title>
<path fill="none" stroke="black" d="M659,-84.82C659,-102.17 659,-125.8 659,-125.8 659,-125.8 542.56,-125.8 542.56,-125.8"/>
<polygon fill="black" stroke="black" points="542.56,-122.3 532.56,-125.8 542.56,-129.3 542.56,-122.3"/>
</g>
<!-- S3ClientAdapter -->
<g id="node7" class="node">
<title>S3ClientAdapter</title>
<ellipse fill="#fdb462" stroke="black" cx="526" cy="-66.8" rx="75.89" ry="18"/>
<text text-anchor="middle" x="526" y="-62.6" font-family="Times,serif" font-size="14.00">S3ClientAdapter</text>
</g>
<!-- S3ClientAdapter&#45;&gt;FwuLearningContentsModule -->
<g id="edge6" class="edge">
<title>S3ClientAdapter&#45;&gt;FwuLearningContentsModule</title>
<path fill="none" stroke="black" d="M491.22,-82.87C491.22,-82.87 491.22,-103.62 491.22,-103.62"/>
<polygon fill="black" stroke="black" points="487.72,-103.62 491.22,-113.62 494.72,-103.62 487.72,-103.62"/>
</g>
</g>
</svg>
