<?xml version="1.0" encoding="UTF-8" standalone="no"?>
<!DOCTYPE svg PUBLIC "-//W3C//DTD SVG 1.1//EN"
 "http://www.w3.org/Graphics/SVG/1.1/DTD/svg11.dtd">
<!-- Generated by graphviz version 2.47.0 (20210316.0004)
 -->
<!-- Title: dependencies Pages: 1 -->
<svg width="1176pt" height="211pt"
 viewBox="0.00 0.00 1176.00 211.00" xmlns="http://www.w3.org/2000/svg" xmlns:xlink="http://www.w3.org/1999/xlink">
<g id="graph0" class="graph" transform="scale(1 1) rotate(0) translate(4 207)">
<title>dependencies</title>
<polygon fill="white" stroke="transparent" points="-4,4 -4,-207 1172,-207 1172,4 -4,4"/>
<text text-anchor="start" x="563.01" y="-42.4" font-family="Times-12" font-weight="bold" font-size="14.00">Legend</text>
<polygon fill="#ffffb3" stroke="transparent" points="350,-10 350,-30 370,-30 370,-10 350,-10"/>
<text text-anchor="start" x="373.63" y="-15.4" font-family="Times-12" font-size="14.00"> &#160;Declarations</text>
<polygon fill="#8dd3c7" stroke="transparent" points="463,-10 463,-30 483,-30 483,-10 463,-10"/>
<text text-anchor="start" x="486.73" y="-15.4" font-family="Times-12" font-size="14.00"> &#160;Module</text>
<polygon fill="#80b1d3" stroke="transparent" points="549,-10 549,-30 569,-30 569,-10 549,-10"/>
<text text-anchor="start" x="572.78" y="-15.4" font-family="Times-12" font-size="14.00"> &#160;Bootstrap</text>
<polygon fill="#fdb462" stroke="transparent" points="646,-10 646,-30 666,-30 666,-10 646,-10"/>
<text text-anchor="start" x="669.67" y="-15.4" font-family="Times-12" font-size="14.00"> &#160;Providers</text>
<polygon fill="#fb8072" stroke="transparent" points="742,-10 742,-30 762,-30 762,-10 742,-10"/>
<text text-anchor="start" x="765.73" y="-15.4" font-family="Times-12" font-size="14.00"> &#160;Exports</text>
<g id="clust1" class="cluster">
<title>cluster_FwuLearningContentsModule</title>
<polygon fill="none" stroke="black" stroke-dasharray="1,5" points="8,-70 8,-195 1160,-195 1160,-70 8,-70"/>
</g>
<g id="clust3" class="cluster">
<title>cluster_FwuLearningContentsModule_imports</title>
<polygon fill="none" stroke="black" points="428,-78 428,-130 1152,-130 1152,-78 428,-78"/>
</g>
<g id="clust6" class="cluster">
<title>cluster_FwuLearningContentsModule_providers</title>
<polygon fill="none" stroke="black" points="16,-78 16,-130 420,-130 420,-78 16,-78"/>
</g>
<!-- AuthenticationModule -->
<g id="node1" class="node">
<title>AuthenticationModule</title>
<polygon fill="#8dd3c7" stroke="black" points="1144.25,-122 1141.25,-126 1120.25,-126 1117.25,-122 1001.75,-122 1001.75,-86 1144.25,-86 1144.25,-122"/>
<text text-anchor="middle" x="1073" y="-99.8" font-family="Times,serif" font-size="14.00">AuthenticationModule</text>
</g>
<!-- FwuLearningContentsModule -->
<g id="node6" class="node">
<title>FwuLearningContentsModule</title>
<polygon fill="#8dd3c7" stroke="black" points="731.25,-187 728.25,-191 707.25,-191 704.25,-187 546.75,-187 546.75,-151 731.25,-151 731.25,-187"/>
<text text-anchor="middle" x="639" y="-164.8" font-family="Times,serif" font-size="14.00">FwuLearningContentsModule</text>
</g>
<!-- AuthenticationModule&#45;&gt;FwuLearningContentsModule -->
<g id="edge1" class="edge">
<title>AuthenticationModule&#45;&gt;FwuLearningContentsModule</title>
<path fill="none" stroke="black" d="M1073,-122.28C1073,-143.32 1073,-175 1073,-175 1073,-175 741.31,-175 741.31,-175"/>
<polygon fill="black" stroke="black" points="741.31,-171.5 731.31,-175 741.31,-178.5 741.31,-171.5"/>
</g>
<!-- AuthorizationModule -->
<g id="node2" class="node">
<title>AuthorizationModule</title>
<polygon fill="#8dd3c7" stroke="black" points="983.81,-122 980.81,-126 959.81,-126 956.81,-122 846.19,-122 846.19,-86 983.81,-86 983.81,-122"/>
<text text-anchor="middle" x="915" y="-99.8" font-family="Times,serif" font-size="14.00">AuthorizationModule</text>
</g>
<!-- AuthorizationModule&#45;&gt;FwuLearningContentsModule -->
<g id="edge2" class="edge">
<title>AuthorizationModule&#45;&gt;FwuLearningContentsModule</title>
<path fill="none" stroke="black" d="M915,-122.02C915,-139.37 915,-163 915,-163 915,-163 741.29,-163 741.29,-163"/>
<polygon fill="black" stroke="black" points="741.29,-159.5 731.29,-163 741.29,-166.5 741.29,-159.5"/>
</g>
<!-- CoreModule -->
<g id="node3" class="node">
<title>CoreModule</title>
<polygon fill="#8dd3c7" stroke="black" points="828.26,-122 825.26,-126 804.26,-126 801.26,-122 741.74,-122 741.74,-86 828.26,-86 828.26,-122"/>
<text text-anchor="middle" x="785" y="-99.8" font-family="Times,serif" font-size="14.00">CoreModule</text>
</g>
<!-- CoreModule&#45;&gt;FwuLearningContentsModule -->
<g id="edge3" class="edge">
<title>CoreModule&#45;&gt;FwuLearningContentsModule</title>
<path fill="none" stroke="black" d="M741.56,-104C733.56,-104 727.68,-104 727.68,-104 727.68,-104 727.68,-140.89 727.68,-140.89"/>
<polygon fill="black" stroke="black" points="724.18,-140.89 727.68,-150.89 731.18,-140.89 724.18,-140.89"/>
</g>
<!-- FilesStorageAMQPModule -->
<g id="node4" class="node">
<title>FilesStorageAMQPModule</title>
<polygon fill="#8dd3c7" stroke="black" points="723.98,-122 720.98,-126 699.98,-126 696.98,-122 554.02,-122 554.02,-86 723.98,-86 723.98,-122"/>
<text text-anchor="middle" x="639" y="-99.8" font-family="Times,serif" font-size="14.00">FilesStorageAMQPModule</text>
</g>
<!-- FilesStorageAMQPModule&#45;&gt;FwuLearningContentsModule -->
<g id="edge4" class="edge">
<title>FilesStorageAMQPModule&#45;&gt;FwuLearningContentsModule</title>
<path fill="none" stroke="black" d="M639,-122.11C639,-122.11 639,-140.99 639,-140.99"/>
<polygon fill="black" stroke="black" points="635.5,-140.99 639,-150.99 642.5,-140.99 635.5,-140.99"/>
</g>
<!-- LoggerModule -->
<g id="node5" class="node">
<title>LoggerModule</title>
<polygon fill="#8dd3c7" stroke="black" points="535.98,-122 532.98,-126 511.98,-126 508.98,-122 436.02,-122 436.02,-86 535.98,-86 535.98,-122"/>
<text text-anchor="middle" x="486" y="-99.8" font-family="Times,serif" font-size="14.00">LoggerModule</text>
</g>
<!-- LoggerModule&#45;&gt;FwuLearningContentsModule -->
<g id="edge5" class="edge">
<title>LoggerModule&#45;&gt;FwuLearningContentsModule</title>
<path fill="none" stroke="black" d="M536.04,-104C544.35,-104 550.32,-104 550.32,-104 550.32,-104 550.32,-140.89 550.32,-140.89"/>
<polygon fill="black" stroke="black" points="546.82,-140.89 550.32,-150.89 553.82,-140.89 546.82,-140.89"/>
</g>
<!-- FwuLearningContentsUc -->
<g id="node7" class="node">
<title>FwuLearningContentsUc</title>
<ellipse fill="#fdb462" stroke="black" cx="303" cy="-104" rx="108.81" ry="18"/>
<text text-anchor="middle" x="303" y="-99.8" font-family="Times,serif" font-size="14.00">FwuLearningContentsUc</text>
</g>
<!-- FwuLearningContentsUc&#45;&gt;FwuLearningContentsModule -->
<g id="edge6" class="edge">
<title>FwuLearningContentsUc&#45;&gt;FwuLearningContentsModule</title>
<path fill="none" stroke="black" d="M303,-122.02C303,-139.37 303,-163 303,-163 303,-163 536.74,-163 536.74,-163"/>
<polygon fill="black" stroke="black" points="536.74,-166.5 546.74,-163 536.74,-159.5 536.74,-166.5"/>
</g>
<!-- S3ClientAdapter -->
<g id="node8" class="node">
<title>S3ClientAdapter</title>
<ellipse fill="#fdb462" stroke="black" cx="100" cy="-104" rx="75.88" ry="18"/>
<text text-anchor="middle" x="100" y="-99.8" font-family="Times,serif" font-size="14.00">S3ClientAdapter</text>
</g>
<!-- S3ClientAdapter&#45;&gt;FwuLearningContentsModule -->
<g id="edge7" class="edge">
<title>S3ClientAdapter&#45;&gt;FwuLearningContentsModule</title>
<path fill="none" stroke="black" d="M100,-122.28C100,-143.32 100,-175 100,-175 100,-175 536.65,-175 536.65,-175"/>
<polygon fill="black" stroke="black" points="536.65,-178.5 546.65,-175 536.65,-171.5 536.65,-178.5"/>
</g>
</g>
</svg>
