<?xml version="1.0" encoding="UTF-8" standalone="no"?>
<!DOCTYPE svg PUBLIC "-//W3C//DTD SVG 1.1//EN"
 "http://www.w3.org/Graphics/SVG/1.1/DTD/svg11.dtd">
<!-- Generated by graphviz version 5.0.0 (20220707.1540)
 -->
<!-- Title: dependencies Pages: 1 -->
<svg width="988pt" height="174pt"
 viewBox="0.00 0.00 988.00 173.80" xmlns="http://www.w3.org/2000/svg" xmlns:xlink="http://www.w3.org/1999/xlink">
<g id="graph0" class="graph" transform="scale(1 1) rotate(0) translate(4 169.8)">
<title>dependencies</title>
<polygon fill="white" stroke="transparent" points="-4,4 -4,-169.8 984,-169.8 984,4 -4,4"/>
<text text-anchor="middle" x="490" y="-8.2" font-family="sans-serif" font-size="14.00">dependencies</text>
<g id="clust1" class="cluster">
<title>cluster_FwuLearningContentsModule</title>
<polygon fill="none" stroke="black" stroke-dasharray="1,5" points="8,-32.8 8,-157.8 972,-157.8 972,-32.8 8,-32.8"/>
</g>
<g id="clust6" class="cluster">
<title>cluster_FwuLearningContentsModule_providers</title>
<polygon fill="none" stroke="black" points="560,-40.8 560,-92.8 964,-92.8 964,-40.8 560,-40.8"/>
</g>
<g id="clust3" class="cluster">
<title>cluster_FwuLearningContentsModule_imports</title>
<polygon fill="none" stroke="black" points="16,-40.8 16,-92.8 552,-92.8 552,-40.8 16,-40.8"/>
</g>
<!-- AuthenticationModule -->
<g id="node1" class="node">
<title>AuthenticationModule</title>
<polygon fill="#8dd3c7" stroke="black" points="544.25,-84.8 541.25,-88.8 520.25,-88.8 517.25,-84.8 401.75,-84.8 401.75,-48.8 544.25,-48.8 544.25,-84.8"/>
<text text-anchor="middle" x="473" y="-62.6" font-family="Times,serif" font-size="14.00">AuthenticationModule</text>
</g>
<!-- FwuLearningContentsModule -->
<g id="node5" class="node">
<title>FwuLearningContentsModule</title>
<polygon fill="#8dd3c7" stroke="black" points="486.26,-149.8 483.26,-153.8 462.26,-153.8 459.26,-149.8 301.74,-149.8 301.74,-113.8 486.26,-113.8 486.26,-149.8"/>
<text text-anchor="middle" x="394" y="-127.6" font-family="Times,serif" font-size="14.00">FwuLearningContentsModule</text>
</g>
<!-- AuthenticationModule&#45;&gt;FwuLearningContentsModule -->
<g id="edge1" class="edge">
<title>AuthenticationModule&#45;&gt;FwuLearningContentsModule</title>
<path fill="none" stroke="black" d="M444,-84.91C444,-84.91 444,-103.79 444,-103.79"/>
<polygon fill="black" stroke="black" points="440.5,-103.79 444,-113.79 447.5,-103.79 440.5,-103.79"/>
</g>
<!-- AuthorizationModule -->
<g id="node2" class="node">
<title>AuthorizationModule</title>
<polygon fill="#8dd3c7" stroke="black" points="383.81,-84.8 380.81,-88.8 359.81,-88.8 356.81,-84.8 246.19,-84.8 246.19,-48.8 383.81,-48.8 383.81,-84.8"/>
<text text-anchor="middle" x="315" y="-62.6" font-family="Times,serif" font-size="14.00">AuthorizationModule</text>
</g>
<!-- AuthorizationModule&#45;&gt;FwuLearningContentsModule -->
<g id="edge2" class="edge">
<title>AuthorizationModule&#45;&gt;FwuLearningContentsModule</title>
<path fill="none" stroke="black" d="M342.64,-84.91C342.64,-84.91 342.64,-103.79 342.64,-103.79"/>
<polygon fill="black" stroke="black" points="339.14,-103.79 342.64,-113.79 346.14,-103.79 339.14,-103.79"/>
</g>
<!-- CoreModule -->
<g id="node3" class="node">
<title>CoreModule</title>
<polygon fill="#8dd3c7" stroke="black" points="228.27,-84.8 225.27,-88.8 204.27,-88.8 201.27,-84.8 141.73,-84.8 141.73,-48.8 228.27,-48.8 228.27,-84.8"/>
<text text-anchor="middle" x="185" y="-62.6" font-family="Times,serif" font-size="14.00">CoreModule</text>
</g>
<!-- CoreModule&#45;&gt;FwuLearningContentsModule -->
<g id="edge3" class="edge">
<title>CoreModule&#45;&gt;FwuLearningContentsModule</title>
<path fill="none" stroke="black" d="M185,-84.82C185,-102.17 185,-125.8 185,-125.8 185,-125.8 291.72,-125.8 291.72,-125.8"/>
<polygon fill="black" stroke="black" points="291.72,-129.3 301.72,-125.8 291.72,-122.3 291.72,-129.3"/>
</g>
<!-- LoggerModule -->
<g id="node4" class="node">
<title>LoggerModule</title>
<polygon fill="#8dd3c7" stroke="black" points="123.98,-84.8 120.98,-88.8 99.98,-88.8 96.98,-84.8 24.02,-84.8 24.02,-48.8 123.98,-48.8 123.98,-84.8"/>
<text text-anchor="middle" x="74" y="-62.6" font-family="Times,serif" font-size="14.00">LoggerModule</text>
</g>
<!-- LoggerModule&#45;&gt;FwuLearningContentsModule -->
<g id="edge4" class="edge">
<title>LoggerModule&#45;&gt;FwuLearningContentsModule</title>
<path fill="none" stroke="black" d="M74,-85.08C74,-106.12 74,-137.8 74,-137.8 74,-137.8 291.44,-137.8 291.44,-137.8"/>
<polygon fill="black" stroke="black" points="291.44,-141.3 301.44,-137.8 291.44,-134.3 291.44,-141.3"/>
</g>
<!-- FwuLearningContentsUc -->
<g id="node6" class="node">
<title>FwuLearningContentsUc</title>
<ellipse fill="#fdb462" stroke="black" cx="847" cy="-66.8" rx="108.82" ry="18"/>
<text text-anchor="middle" x="847" y="-62.6" font-family="Times,serif" font-size="14.00">FwuLearningContentsUc</text>
</g>
<!-- FwuLearningContentsUc&#45;&gt;FwuLearningContentsModule -->
<g id="edge5" class="edge">
<title>FwuLearningContentsUc&#45;&gt;FwuLearningContentsModule</title>
<path fill="none" stroke="black" d="M847,-85.08C847,-106.12 847,-137.8 847,-137.8 847,-137.8 496.49,-137.8 496.49,-137.8"/>
<polygon fill="black" stroke="black" points="496.49,-134.3 486.49,-137.8 496.49,-141.3 496.49,-134.3"/>
</g>
<!-- S3ClientAdapter -->
<g id="node7" class="node">
<title>S3ClientAdapter</title>
<ellipse fill="#fdb462" stroke="black" cx="644" cy="-66.8" rx="75.89" ry="18"/>
<text text-anchor="middle" x="644" y="-62.6" font-family="Times,serif" font-size="14.00">S3ClientAdapter</text>
</g>
<!-- S3ClientAdapter&#45;&gt;FwuLearningContentsModule -->
<g id="edge6" class="edge">
<title>S3ClientAdapter&#45;&gt;FwuLearningContentsModule</title>
<path fill="none" stroke="black" d="M644,-84.82C644,-102.17 644,-125.8 644,-125.8 644,-125.8 496.38,-125.8 496.38,-125.8"/>
<polygon fill="black" stroke="black" points="496.38,-122.3 486.38,-125.8 496.38,-129.3 496.38,-122.3"/>
</g>
</g>
</svg>
