<?xml version="1.0" encoding="UTF-8" standalone="no"?>
<!DOCTYPE svg PUBLIC "-//W3C//DTD SVG 1.1//EN"
 "http://www.w3.org/Graphics/SVG/1.1/DTD/svg11.dtd">
<!-- Generated by graphviz version 2.47.0 (20210316.0004)
 -->
<!-- Title: dependencies Pages: 1 -->
<svg width="1132pt" height="211pt"
 viewBox="0.00 0.00 1132.00 211.00" xmlns="http://www.w3.org/2000/svg" xmlns:xlink="http://www.w3.org/1999/xlink">
<g id="graph0" class="graph" transform="scale(1 1) rotate(0) translate(4 207)">
<title>dependencies</title>
<polygon fill="white" stroke="transparent" points="-4,4 -4,-207 1128,-207 1128,4 -4,4"/>
<text text-anchor="start" x="541.01" y="-42.4" font-family="Times-12" font-weight="bold" font-size="14.00">Legend</text>
<polygon fill="#ffffb3" stroke="transparent" points="328,-10 328,-30 348,-30 348,-10 328,-10"/>
<text text-anchor="start" x="351.63" y="-15.4" font-family="Times-12" font-size="14.00"> &#160;Declarations</text>
<polygon fill="#8dd3c7" stroke="transparent" points="441,-10 441,-30 461,-30 461,-10 441,-10"/>
<text text-anchor="start" x="464.73" y="-15.4" font-family="Times-12" font-size="14.00"> &#160;Module</text>
<polygon fill="#80b1d3" stroke="transparent" points="527,-10 527,-30 547,-30 547,-10 527,-10"/>
<text text-anchor="start" x="550.78" y="-15.4" font-family="Times-12" font-size="14.00"> &#160;Bootstrap</text>
<polygon fill="#fdb462" stroke="transparent" points="624,-10 624,-30 644,-30 644,-10 624,-10"/>
<text text-anchor="start" x="647.67" y="-15.4" font-family="Times-12" font-size="14.00"> &#160;Providers</text>
<polygon fill="#fb8072" stroke="transparent" points="720,-10 720,-30 740,-30 740,-10 720,-10"/>
<text text-anchor="start" x="743.73" y="-15.4" font-family="Times-12" font-size="14.00"> &#160;Exports</text>
<g id="clust1" class="cluster">
<title>cluster_FwuLearningContentsModule</title>
<polygon fill="none" stroke="black" stroke-dasharray="1,5" points="8,-70 8,-195 1116,-195 1116,-70 8,-70"/>
</g>
<g id="clust6" class="cluster">
<title>cluster_FwuLearningContentsModule_providers</title>
<polygon fill="none" stroke="black" points="874,-78 874,-130 1108,-130 1108,-78 874,-78"/>
</g>
<g id="clust3" class="cluster">
<title>cluster_FwuLearningContentsModule_imports</title>
<polygon fill="none" stroke="black" points="16,-78 16,-130 866,-130 866,-78 16,-78"/>
</g>
<!-- AuthenticationModule -->
<g id="node1" class="node">
<title>AuthenticationModule</title>
<polygon fill="#8dd3c7" stroke="black" points="858.25,-122 855.25,-126 834.25,-126 831.25,-122 715.75,-122 715.75,-86 858.25,-86 858.25,-122"/>
<text text-anchor="middle" x="787" y="-99.8" font-family="Times,serif" font-size="14.00">AuthenticationModule</text>
</g>
<!-- FwuLearningContentsModule -->
<g id="node7" class="node">
<title>FwuLearningContentsModule</title>
<polygon fill="#8dd3c7" stroke="black" points="591.25,-187 588.25,-191 567.25,-191 564.25,-187 406.75,-187 406.75,-151 591.25,-151 591.25,-187"/>
<text text-anchor="middle" x="499" y="-164.8" font-family="Times,serif" font-size="14.00">FwuLearningContentsModule</text>
</g>
<!-- AuthenticationModule&#45;&gt;FwuLearningContentsModule -->
<g id="edge1" class="edge">
<title>AuthenticationModule&#45;&gt;FwuLearningContentsModule</title>
<path fill="none" stroke="black" d="M787,-122.02C787,-139.37 787,-163 787,-163 787,-163 601.31,-163 601.31,-163"/>
<polygon fill="black" stroke="black" points="601.31,-159.5 591.31,-163 601.31,-166.5 601.31,-159.5"/>
</g>
<!-- AuthorizationModule -->
<g id="node2" class="node">
<title>AuthorizationModule</title>
<polygon fill="#8dd3c7" stroke="black" points="697.81,-122 694.81,-126 673.81,-126 670.81,-122 560.19,-122 560.19,-86 697.81,-86 697.81,-122"/>
<text text-anchor="middle" x="629" y="-99.8" font-family="Times,serif" font-size="14.00">AuthorizationModule</text>
</g>
<!-- AuthorizationModule&#45;&gt;FwuLearningContentsModule -->
<g id="edge2" class="edge">
<title>AuthorizationModule&#45;&gt;FwuLearningContentsModule</title>
<path fill="none" stroke="black" d="M575.86,-122.11C575.86,-122.11 575.86,-140.99 575.86,-140.99"/>
<polygon fill="black" stroke="black" points="572.36,-140.99 575.86,-150.99 579.36,-140.99 572.36,-140.99"/>
</g>
<!-- CoreModule -->
<g id="node3" class="node">
<title>CoreModule</title>
<polygon fill="#8dd3c7" stroke="black" points="542.26,-122 539.26,-126 518.26,-126 515.26,-122 455.74,-122 455.74,-86 542.26,-86 542.26,-122"/>
<text text-anchor="middle" x="499" y="-99.8" font-family="Times,serif" font-size="14.00">CoreModule</text>
</g>
<!-- CoreModule&#45;&gt;FwuLearningContentsModule -->
<g id="edge3" class="edge">
<title>CoreModule&#45;&gt;FwuLearningContentsModule</title>
<path fill="none" stroke="black" d="M499,-122.11C499,-122.11 499,-140.99 499,-140.99"/>
<polygon fill="black" stroke="black" points="495.5,-140.99 499,-150.99 502.5,-140.99 495.5,-140.99"/>
</g>
<!-- FilesStorageAMQPModule -->
<g id="node4" class="node">
<title>FilesStorageAMQPModule</title>
<polygon fill="#8dd3c7" stroke="black" points="437.98,-122 434.98,-126 413.98,-126 410.98,-122 268.02,-122 268.02,-86 437.98,-86 437.98,-122"/>
<text text-anchor="middle" x="353" y="-99.8" font-family="Times,serif" font-size="14.00">FilesStorageAMQPModule</text>
</g>
<!-- FilesStorageAMQPModule&#45;&gt;FwuLearningContentsModule -->
<g id="edge4" class="edge">
<title>FilesStorageAMQPModule&#45;&gt;FwuLearningContentsModule</title>
<path fill="none" stroke="black" d="M422.31,-122.11C422.31,-122.11 422.31,-140.99 422.31,-140.99"/>
<polygon fill="black" stroke="black" points="418.81,-140.99 422.31,-150.99 425.81,-140.99 418.81,-140.99"/>
</g>
<!-- LoggerModule -->
<g id="node5" class="node">
<title>LoggerModule</title>
<polygon fill="#8dd3c7" stroke="black" points="249.98,-122 246.98,-126 225.98,-126 222.98,-122 150.02,-122 150.02,-86 249.98,-86 249.98,-122"/>
<text text-anchor="middle" x="200" y="-99.8" font-family="Times,serif" font-size="14.00">LoggerModule</text>
</g>
<!-- LoggerModule&#45;&gt;FwuLearningContentsModule -->
<g id="edge5" class="edge">
<title>LoggerModule&#45;&gt;FwuLearningContentsModule</title>
<path fill="none" stroke="black" d="M200,-122.02C200,-139.37 200,-163 200,-163 200,-163 396.44,-163 396.44,-163"/>
<polygon fill="black" stroke="black" points="396.44,-166.5 406.44,-163 396.44,-159.5 396.44,-166.5"/>
</g>
<!-- S3ClientModule -->
<g id="node6" class="node">
<title>S3ClientModule</title>
<polygon fill="#8dd3c7" stroke="black" points="132.06,-122 129.06,-126 108.06,-126 105.06,-122 23.94,-122 23.94,-86 132.06,-86 132.06,-122"/>
<text text-anchor="middle" x="78" y="-99.8" font-family="Times,serif" font-size="14.00">S3ClientModule</text>
</g>
<!-- S3ClientModule&#45;&gt;FwuLearningContentsModule -->
<g id="edge6" class="edge">
<title>S3ClientModule&#45;&gt;FwuLearningContentsModule</title>
<path fill="none" stroke="black" d="M78,-122.28C78,-143.32 78,-175 78,-175 78,-175 396.61,-175 396.61,-175"/>
<polygon fill="black" stroke="black" points="396.61,-178.5 406.61,-175 396.61,-171.5 396.61,-178.5"/>
</g>
<!-- FwuLearningContentsUc -->
<g id="node8" class="node">
<title>FwuLearningContentsUc</title>
<ellipse fill="#fdb462" stroke="black" cx="991" cy="-104" rx="108.81" ry="18"/>
<text text-anchor="middle" x="991" y="-99.8" font-family="Times,serif" font-size="14.00">FwuLearningContentsUc</text>
</g>
<!-- FwuLearningContentsUc&#45;&gt;FwuLearningContentsModule -->
<g id="edge7" class="edge">
<title>FwuLearningContentsUc&#45;&gt;FwuLearningContentsModule</title>
<path fill="none" stroke="black" d="M991,-122.28C991,-143.32 991,-175 991,-175 991,-175 601.25,-175 601.25,-175"/>
<polygon fill="black" stroke="black" points="601.25,-171.5 591.25,-175 601.25,-178.5 601.25,-171.5"/>
</g>
</g>
</svg>
