<?xml version="1.0" encoding="UTF-8" standalone="no"?>
<!DOCTYPE svg PUBLIC "-//W3C//DTD SVG 1.1//EN"
 "http://www.w3.org/Graphics/SVG/1.1/DTD/svg11.dtd">
<!-- Generated by graphviz version 5.0.0 (20220707.1540)
 -->
<!-- Title: dependencies Pages: 1 -->
<svg width="988pt" height="174pt"
 viewBox="0.00 0.00 988.00 173.80" xmlns="http://www.w3.org/2000/svg" xmlns:xlink="http://www.w3.org/1999/xlink">
<g id="graph0" class="graph" transform="scale(1 1) rotate(0) translate(4 169.8)">
<title>dependencies</title>
<polygon fill="white" stroke="transparent" points="-4,4 -4,-169.8 984,-169.8 984,4 -4,4"/>
<text text-anchor="middle" x="490" y="-8.2" font-family="sans-serif" font-size="14.00">dependencies</text>
<g id="clust1" class="cluster">
<title>cluster_FwuLearningContentsModule</title>
<polygon fill="none" stroke="black" stroke-dasharray="1,5" points="8,-32.8 8,-157.8 972,-157.8 972,-32.8 8,-32.8"/>
</g>
<g id="clust3" class="cluster">
<title>cluster_FwuLearningContentsModule_imports</title>
<polygon fill="none" stroke="black" points="428,-40.8 428,-92.8 964,-92.8 964,-40.8 428,-40.8"/>
</g>
<g id="clust6" class="cluster">
<title>cluster_FwuLearningContentsModule_providers</title>
<polygon fill="none" stroke="black" points="16,-40.8 16,-92.8 420,-92.8 420,-40.8 16,-40.8"/>
</g>
<!-- AuthenticationModule -->
<g id="node1" class="node">
<title>AuthenticationModule</title>
<polygon fill="#8dd3c7" stroke="black" points="956.25,-84.8 953.25,-88.8 932.25,-88.8 929.25,-84.8 813.75,-84.8 813.75,-48.8 956.25,-48.8 956.25,-84.8"/>
<text text-anchor="middle" x="885" y="-62.6" font-family="Times,serif" font-size="14.00">AuthenticationModule</text>
</g>
<!-- FwuLearningContentsModule -->
<g id="node5" class="node">
<title>FwuLearningContentsModule</title>
<polygon fill="#8dd3c7" stroke="black" points="633.26,-149.8 630.26,-153.8 609.26,-153.8 606.26,-149.8 448.74,-149.8 448.74,-113.8 633.26,-113.8 633.26,-149.8"/>
<text text-anchor="middle" x="541" y="-127.6" font-family="Times,serif" font-size="14.00">FwuLearningContentsModule</text>
</g>
<!-- AuthenticationModule&#45;&gt;FwuLearningContentsModule -->
<g id="edge1" class="edge">
<title>AuthenticationModule&#45;&gt;FwuLearningContentsModule</title>
<path fill="none" stroke="black" d="M885,-85.08C885,-106.12 885,-137.8 885,-137.8 885,-137.8 643.64,-137.8 643.64,-137.8"/>
<polygon fill="black" stroke="black" points="643.64,-134.3 633.64,-137.8 643.64,-141.3 643.64,-134.3"/>
</g>
<!-- AuthorizationModule -->
<g id="node2" class="node">
<title>AuthorizationModule</title>
<polygon fill="#8dd3c7" stroke="black" points="795.81,-84.8 792.81,-88.8 771.81,-88.8 768.81,-84.8 658.19,-84.8 658.19,-48.8 795.81,-48.8 795.81,-84.8"/>
<text text-anchor="middle" x="727" y="-62.6" font-family="Times,serif" font-size="14.00">AuthorizationModule</text>
</g>
<!-- AuthorizationModule&#45;&gt;FwuLearningContentsModule -->
<g id="edge2" class="edge">
<title>AuthorizationModule&#45;&gt;FwuLearningContentsModule</title>
<path fill="none" stroke="black" d="M727,-84.82C727,-102.17 727,-125.8 727,-125.8 727,-125.8 643.46,-125.8 643.46,-125.8"/>
<polygon fill="black" stroke="black" points="643.46,-122.3 633.46,-125.8 643.46,-129.3 643.46,-122.3"/>
</g>
<!-- CoreModule -->
<g id="node3" class="node">
<title>CoreModule</title>
<polygon fill="#8dd3c7" stroke="black" points="640.27,-84.8 637.27,-88.8 616.27,-88.8 613.27,-84.8 553.73,-84.8 553.73,-48.8 640.27,-48.8 640.27,-84.8"/>
<text text-anchor="middle" x="597" y="-62.6" font-family="Times,serif" font-size="14.00">CoreModule</text>
</g>
<!-- CoreModule&#45;&gt;FwuLearningContentsModule -->
<g id="edge3" class="edge">
<title>CoreModule&#45;&gt;FwuLearningContentsModule</title>
<path fill="none" stroke="black" d="M593.5,-84.91C593.5,-84.91 593.5,-103.79 593.5,-103.79"/>
<polygon fill="black" stroke="black" points="590,-103.79 593.5,-113.79 597,-103.79 590,-103.79"/>
</g>
<!-- LoggerModule -->
<g id="node4" class="node">
<title>LoggerModule</title>
<polygon fill="#8dd3c7" stroke="black" points="535.98,-84.8 532.98,-88.8 511.98,-88.8 508.98,-84.8 436.02,-84.8 436.02,-48.8 535.98,-48.8 535.98,-84.8"/>
<text text-anchor="middle" x="486" y="-62.6" font-family="Times,serif" font-size="14.00">LoggerModule</text>
</g>
<!-- LoggerModule&#45;&gt;FwuLearningContentsModule -->
<g id="edge4" class="edge">
<title>LoggerModule&#45;&gt;FwuLearningContentsModule</title>
<path fill="none" stroke="black" d="M492.31,-84.91C492.31,-84.91 492.31,-103.79 492.31,-103.79"/>
<polygon fill="black" stroke="black" points="488.81,-103.79 492.31,-113.79 495.81,-103.79 488.81,-103.79"/>
</g>
<!-- FwuLearningContentsUc -->
<g id="node6" class="node">
<title>FwuLearningContentsUc</title>
<ellipse fill="#fdb462" stroke="black" cx="303" cy="-66.8" rx="108.82" ry="18"/>
<text text-anchor="middle" x="303" y="-62.6" font-family="Times,serif" font-size="14.00">FwuLearningContentsUc</text>
</g>
<!-- FwuLearningContentsUc&#45;&gt;FwuLearningContentsModule -->
<g id="edge5" class="edge">
<title>FwuLearningContentsUc&#45;&gt;FwuLearningContentsModule</title>
<path fill="none" stroke="black" d="M303,-84.82C303,-102.17 303,-125.8 303,-125.8 303,-125.8 438.64,-125.8 438.64,-125.8"/>
<polygon fill="black" stroke="black" points="438.64,-129.3 448.64,-125.8 438.64,-122.3 438.64,-129.3"/>
</g>
<!-- S3ClientAdapter -->
<g id="node7" class="node">
<title>S3ClientAdapter</title>
<ellipse fill="#fdb462" stroke="black" cx="100" cy="-66.8" rx="75.89" ry="18"/>
<text text-anchor="middle" x="100" y="-62.6" font-family="Times,serif" font-size="14.00">S3ClientAdapter</text>
</g>
<!-- S3ClientAdapter&#45;&gt;FwuLearningContentsModule -->
<g id="edge6" class="edge">
<title>S3ClientAdapter&#45;&gt;FwuLearningContentsModule</title>
<path fill="none" stroke="black" d="M100,-85.08C100,-106.12 100,-137.8 100,-137.8 100,-137.8 438.55,-137.8 438.55,-137.8"/>
<polygon fill="black" stroke="black" points="438.55,-141.3 448.55,-137.8 438.55,-134.3 438.55,-141.3"/>
</g>
</g>
</svg>
