<?xml version="1.0" encoding="UTF-8" standalone="no"?>
<!DOCTYPE svg PUBLIC "-//W3C//DTD SVG 1.1//EN"
 "http://www.w3.org/Graphics/SVG/1.1/DTD/svg11.dtd">
<!-- Generated by graphviz version 5.0.0 (20220707.1540)
 -->
<!-- Title: dependencies Pages: 1 -->
<svg width="966pt" height="174pt"
 viewBox="0.00 0.00 966.00 173.80" xmlns="http://www.w3.org/2000/svg" xmlns:xlink="http://www.w3.org/1999/xlink">
<g id="graph0" class="graph" transform="scale(1 1) rotate(0) translate(4 169.8)">
<title>dependencies</title>
<polygon fill="white" stroke="transparent" points="-4,4 -4,-169.8 962,-169.8 962,4 -4,4"/>
<text text-anchor="middle" x="479" y="-8.2" font-family="sans-serif" font-size="14.00">dependencies</text>
<g id="clust1" class="cluster">
<title>cluster_FwuLearningContentsModule</title>
<polygon fill="none" stroke="black" stroke-dasharray="1,5" points="8,-32.8 8,-157.8 950,-157.8 950,-32.8 8,-32.8"/>
</g>
<g id="clust3" class="cluster">
<title>cluster_FwuLearningContentsModule_imports</title>
<polygon fill="none" stroke="black" points="524,-40.8 524,-92.8 942,-92.8 942,-40.8 524,-40.8"/>
</g>
<g id="clust6" class="cluster">
<title>cluster_FwuLearningContentsModule_providers</title>
<polygon fill="none" stroke="black" points="16,-40.8 16,-92.8 516,-92.8 516,-40.8 16,-40.8"/>
</g>
<!-- AuthenticationModule -->
<g id="node1" class="node">
<title>AuthenticationModule</title>
<polygon fill="#8dd3c7" stroke="black" points="934.25,-84.8 931.25,-88.8 910.25,-88.8 907.25,-84.8 791.75,-84.8 791.75,-48.8 934.25,-48.8 934.25,-84.8"/>
<text text-anchor="middle" x="863" y="-62.6" font-family="Times,serif" font-size="14.00">AuthenticationModule</text>
</g>
<!-- FwuLearningContentsModule -->
<g id="node4" class="node">
<title>FwuLearningContentsModule</title>
<polygon fill="#8dd3c7" stroke="black" points="579.26,-149.8 576.26,-153.8 555.26,-153.8 552.26,-149.8 394.74,-149.8 394.74,-113.8 579.26,-113.8 579.26,-149.8"/>
<text text-anchor="middle" x="487" y="-127.6" font-family="Times,serif" font-size="14.00">FwuLearningContentsModule</text>
</g>
<!-- AuthenticationModule&#45;&gt;FwuLearningContentsModule -->
<g id="edge1" class="edge">
<title>AuthenticationModule&#45;&gt;FwuLearningContentsModule</title>
<path fill="none" stroke="black" d="M863,-85.08C863,-106.12 863,-137.8 863,-137.8 863,-137.8 589.46,-137.8 589.46,-137.8"/>
<polygon fill="black" stroke="black" points="589.46,-134.3 579.46,-137.8 589.46,-141.3 589.46,-134.3"/>
</g>
<!-- AuthorizationModule -->
<g id="node2" class="node">
<title>AuthorizationModule</title>
<polygon fill="#8dd3c7" stroke="black" points="773.81,-84.8 770.81,-88.8 749.81,-88.8 746.81,-84.8 636.19,-84.8 636.19,-48.8 773.81,-48.8 773.81,-84.8"/>
<text text-anchor="middle" x="705" y="-62.6" font-family="Times,serif" font-size="14.00">AuthorizationModule</text>
</g>
<!-- AuthorizationModule&#45;&gt;FwuLearningContentsModule -->
<g id="edge2" class="edge">
<title>AuthorizationModule&#45;&gt;FwuLearningContentsModule</title>
<path fill="none" stroke="black" d="M705,-84.82C705,-102.17 705,-125.8 705,-125.8 705,-125.8 589.45,-125.8 589.45,-125.8"/>
<polygon fill="black" stroke="black" points="589.45,-122.3 579.45,-125.8 589.45,-129.3 589.45,-122.3"/>
</g>
<!-- CoreModule -->
<g id="node3" class="node">
<title>CoreModule</title>
<polygon fill="#8dd3c7" stroke="black" points="618.27,-84.8 615.27,-88.8 594.27,-88.8 591.27,-84.8 531.73,-84.8 531.73,-48.8 618.27,-48.8 618.27,-84.8"/>
<text text-anchor="middle" x="575" y="-62.6" font-family="Times,serif" font-size="14.00">CoreModule</text>
</g>
<!-- CoreModule&#45;&gt;FwuLearningContentsModule -->
<g id="edge3" class="edge">
<title>CoreModule&#45;&gt;FwuLearningContentsModule</title>
<path fill="none" stroke="black" d="M555.5,-84.91C555.5,-84.91 555.5,-103.79 555.5,-103.79"/>
<polygon fill="black" stroke="black" points="552,-103.79 555.5,-113.79 559,-103.79 552,-103.79"/>
</g>
<!-- FwuLearningContentsUc -->
<g id="node5" class="node">
<title>FwuLearningContentsUc</title>
<ellipse fill="#fdb462" stroke="black" cx="399" cy="-66.8" rx="108.82" ry="18"/>
<text text-anchor="middle" x="399" y="-62.6" font-family="Times,serif" font-size="14.00">FwuLearningContentsUc</text>
</g>
<!-- FwuLearningContentsUc&#45;&gt;FwuLearningContentsModule -->
<g id="edge4" class="edge">
<title>FwuLearningContentsUc&#45;&gt;FwuLearningContentsModule</title>
<path fill="none" stroke="black" d="M451.14,-82.87C451.14,-82.87 451.14,-103.62 451.14,-103.62"/>
<polygon fill="black" stroke="black" points="447.64,-103.62 451.14,-113.62 454.64,-103.62 447.64,-103.62"/>
</g>
<!-- Logger -->
<g id="node6" class="node">
<title>Logger</title>
<ellipse fill="#fdb462" stroke="black" cx="233" cy="-66.8" rx="38.85" ry="18"/>
<text text-anchor="middle" x="233" y="-62.6" font-family="Times,serif" font-size="14.00">Logger</text>
</g>
<!-- Logger&#45;&gt;FwuLearningContentsModule -->
<g id="edge5" class="edge">
<title>Logger&#45;&gt;FwuLearningContentsModule</title>
<path fill="none" stroke="black" d="M233,-84.82C233,-102.17 233,-125.8 233,-125.8 233,-125.8 384.58,-125.8 384.58,-125.8"/>
<polygon fill="black" stroke="black" points="384.58,-129.3 394.58,-125.8 384.58,-122.3 384.58,-129.3"/>
</g>
<!-- S3ClientAdapter -->
<g id="node7" class="node">
<title>S3ClientAdapter</title>
<ellipse fill="#fdb462" stroke="black" cx="100" cy="-66.8" rx="75.89" ry="18"/>
<text text-anchor="middle" x="100" y="-62.6" font-family="Times,serif" font-size="14.00">S3ClientAdapter</text>
</g>
<!-- S3ClientAdapter&#45;&gt;FwuLearningContentsModule -->
<g id="edge6" class="edge">
<title>S3ClientAdapter&#45;&gt;FwuLearningContentsModule</title>
<path fill="none" stroke="black" d="M100,-85.08C100,-106.12 100,-137.8 100,-137.8 100,-137.8 384.3,-137.8 384.3,-137.8"/>
<polygon fill="black" stroke="black" points="384.3,-141.3 394.3,-137.8 384.3,-134.3 384.3,-141.3"/>
</g>
</g>
</svg>
