<?xml version="1.0" encoding="UTF-8" standalone="no"?>
<!DOCTYPE svg PUBLIC "-//W3C//DTD SVG 1.1//EN"
 "http://www.w3.org/Graphics/SVG/1.1/DTD/svg11.dtd">
<!-- Generated by graphviz version 2.47.0 (20210316.0004)
 -->
<!-- Title: dependencies Pages: 1 -->
<svg width="1130pt" height="211pt"
 viewBox="0.00 0.00 1130.00 211.00" xmlns="http://www.w3.org/2000/svg" xmlns:xlink="http://www.w3.org/1999/xlink">
<g id="graph0" class="graph" transform="scale(1 1) rotate(0) translate(4 207)">
<title>dependencies</title>
<polygon fill="white" stroke="transparent" points="-4,4 -4,-207 1126,-207 1126,4 -4,4"/>
<text text-anchor="start" x="540.01" y="-42.4" font-family="Times-12" font-weight="bold" font-size="14.00">Legend</text>
<polygon fill="#ffffb3" stroke="transparent" points="327,-10 327,-30 347,-30 347,-10 327,-10"/>
<text text-anchor="start" x="350.63" y="-15.4" font-family="Times-12" font-size="14.00"> &#160;Declarations</text>
<polygon fill="#8dd3c7" stroke="transparent" points="440,-10 440,-30 460,-30 460,-10 440,-10"/>
<text text-anchor="start" x="463.73" y="-15.4" font-family="Times-12" font-size="14.00"> &#160;Module</text>
<polygon fill="#80b1d3" stroke="transparent" points="526,-10 526,-30 546,-30 546,-10 526,-10"/>
<text text-anchor="start" x="549.78" y="-15.4" font-family="Times-12" font-size="14.00"> &#160;Bootstrap</text>
<polygon fill="#fdb462" stroke="transparent" points="623,-10 623,-30 643,-30 643,-10 623,-10"/>
<text text-anchor="start" x="646.67" y="-15.4" font-family="Times-12" font-size="14.00"> &#160;Providers</text>
<polygon fill="#fb8072" stroke="transparent" points="719,-10 719,-30 739,-30 739,-10 719,-10"/>
<text text-anchor="start" x="742.73" y="-15.4" font-family="Times-12" font-size="14.00"> &#160;Exports</text>
<g id="clust1" class="cluster">
<title>cluster_FwuLearningContentsModule</title>
<polygon fill="none" stroke="black" stroke-dasharray="1,5" points="8,-70 8,-195 1114,-195 1114,-70 8,-70"/>
</g>
<g id="clust6" class="cluster">
<title>cluster_FwuLearningContentsModule_providers</title>
<polygon fill="none" stroke="black" points="872,-78 872,-130 1106,-130 1106,-78 872,-78"/>
</g>
<g id="clust3" class="cluster">
<title>cluster_FwuLearningContentsModule_imports</title>
<polygon fill="none" stroke="black" points="16,-78 16,-130 864,-130 864,-78 16,-78"/>
</g>
<!-- AuthenticationModule -->
<g id="node1" class="node">
<title>AuthenticationModule</title>
<polygon fill="#8dd3c7" stroke="black" points="856.25,-122 853.25,-126 832.25,-126 829.25,-122 713.75,-122 713.75,-86 856.25,-86 856.25,-122"/>
<text text-anchor="middle" x="785" y="-99.8" font-family="Times,serif" font-size="14.00">AuthenticationModule</text>
</g>
<!-- FwuLearningContentsModule -->
<g id="node7" class="node">
<title>FwuLearningContentsModule</title>
<polygon fill="#8dd3c7" stroke="black" points="589.25,-187 586.25,-191 565.25,-191 562.25,-187 404.75,-187 404.75,-151 589.25,-151 589.25,-187"/>
<text text-anchor="middle" x="497" y="-164.8" font-family="Times,serif" font-size="14.00">FwuLearningContentsModule</text>
</g>
<!-- AuthenticationModule&#45;&gt;FwuLearningContentsModule -->
<g id="edge1" class="edge">
<title>AuthenticationModule&#45;&gt;FwuLearningContentsModule</title>
<path fill="none" stroke="black" d="M785,-122.02C785,-139.37 785,-163 785,-163 785,-163 599.31,-163 599.31,-163"/>
<polygon fill="black" stroke="black" points="599.31,-159.5 589.31,-163 599.31,-166.5 599.31,-159.5"/>
</g>
<!-- AuthorizationModule -->
<g id="node2" class="node">
<title>AuthorizationModule</title>
<polygon fill="#8dd3c7" stroke="black" points="695.81,-122 692.81,-126 671.81,-126 668.81,-122 558.19,-122 558.19,-86 695.81,-86 695.81,-122"/>
<text text-anchor="middle" x="627" y="-99.8" font-family="Times,serif" font-size="14.00">AuthorizationModule</text>
</g>
<!-- AuthorizationModule&#45;&gt;FwuLearningContentsModule -->
<g id="edge2" class="edge">
<title>AuthorizationModule&#45;&gt;FwuLearningContentsModule</title>
<path fill="none" stroke="black" d="M573.86,-122.11C573.86,-122.11 573.86,-140.99 573.86,-140.99"/>
<polygon fill="black" stroke="black" points="570.36,-140.99 573.86,-150.99 577.36,-140.99 570.36,-140.99"/>
</g>
<!-- CoreModule -->
<g id="node3" class="node">
<title>CoreModule</title>
<polygon fill="#8dd3c7" stroke="black" points="540.26,-122 537.26,-126 516.26,-126 513.26,-122 453.74,-122 453.74,-86 540.26,-86 540.26,-122"/>
<text text-anchor="middle" x="497" y="-99.8" font-family="Times,serif" font-size="14.00">CoreModule</text>
</g>
<!-- CoreModule&#45;&gt;FwuLearningContentsModule -->
<g id="edge3" class="edge">
<title>CoreModule&#45;&gt;FwuLearningContentsModule</title>
<path fill="none" stroke="black" d="M497,-122.11C497,-122.11 497,-140.99 497,-140.99"/>
<polygon fill="black" stroke="black" points="493.5,-140.99 497,-150.99 500.5,-140.99 493.5,-140.99"/>
</g>
<!-- LoggerModule -->
<g id="node4" class="node">
<title>LoggerModule</title>
<polygon fill="#8dd3c7" stroke="black" points="435.98,-122 432.98,-126 411.98,-126 408.98,-122 336.02,-122 336.02,-86 435.98,-86 435.98,-122"/>
<text text-anchor="middle" x="386" y="-99.8" font-family="Times,serif" font-size="14.00">LoggerModule</text>
</g>
<!-- LoggerModule&#45;&gt;FwuLearningContentsModule -->
<g id="edge4" class="edge">
<title>LoggerModule&#45;&gt;FwuLearningContentsModule</title>
<path fill="none" stroke="black" d="M420.31,-122.11C420.31,-122.11 420.31,-140.99 420.31,-140.99"/>
<polygon fill="black" stroke="black" points="416.81,-140.99 420.31,-150.99 423.81,-140.99 416.81,-140.99"/>
</g>
<!-- RabbitMQWrapperModule -->
<g id="node5" class="node">
<title>RabbitMQWrapperModule</title>
<polygon fill="#8dd3c7" stroke="black" points="318.4,-122 315.4,-126 294.4,-126 291.4,-122 149.6,-122 149.6,-86 318.4,-86 318.4,-122"/>
<text text-anchor="middle" x="234" y="-99.8" font-family="Times,serif" font-size="14.00">RabbitMQWrapperModule</text>
</g>
<!-- RabbitMQWrapperModule&#45;&gt;FwuLearningContentsModule -->
<g id="edge5" class="edge">
<title>RabbitMQWrapperModule&#45;&gt;FwuLearningContentsModule</title>
<path fill="none" stroke="black" d="M234,-122.02C234,-139.37 234,-163 234,-163 234,-163 394.65,-163 394.65,-163"/>
<polygon fill="black" stroke="black" points="394.65,-166.5 404.65,-163 394.65,-159.5 394.65,-166.5"/>
</g>
<!-- S3ClientModule -->
<g id="node6" class="node">
<title>S3ClientModule</title>
<polygon fill="#8dd3c7" stroke="black" points="132.06,-122 129.06,-126 108.06,-126 105.06,-122 23.94,-122 23.94,-86 132.06,-86 132.06,-122"/>
<text text-anchor="middle" x="78" y="-99.8" font-family="Times,serif" font-size="14.00">S3ClientModule</text>
</g>
<!-- S3ClientModule&#45;&gt;FwuLearningContentsModule -->
<g id="edge6" class="edge">
<title>S3ClientModule&#45;&gt;FwuLearningContentsModule</title>
<path fill="none" stroke="black" d="M78,-122.28C78,-143.32 78,-175 78,-175 78,-175 394.53,-175 394.53,-175"/>
<polygon fill="black" stroke="black" points="394.53,-178.5 404.53,-175 394.53,-171.5 394.53,-178.5"/>
</g>
<!-- FwuLearningContentsUc -->
<g id="node8" class="node">
<title>FwuLearningContentsUc</title>
<ellipse fill="#fdb462" stroke="black" cx="989" cy="-104" rx="108.81" ry="18"/>
<text text-anchor="middle" x="989" y="-99.8" font-family="Times,serif" font-size="14.00">FwuLearningContentsUc</text>
</g>
<!-- FwuLearningContentsUc&#45;&gt;FwuLearningContentsModule -->
<g id="edge7" class="edge">
<title>FwuLearningContentsUc&#45;&gt;FwuLearningContentsModule</title>
<path fill="none" stroke="black" d="M989,-122.28C989,-143.32 989,-175 989,-175 989,-175 599.25,-175 599.25,-175"/>
<polygon fill="black" stroke="black" points="599.25,-171.5 589.25,-175 599.25,-178.5 599.25,-171.5"/>
</g>
</g>
</svg>
