<?xml version="1.0" encoding="UTF-8" standalone="no"?>
<!DOCTYPE svg PUBLIC "-//W3C//DTD SVG 1.1//EN"
 "http://www.w3.org/Graphics/SVG/1.1/DTD/svg11.dtd">
<!-- Generated by graphviz version 2.47.0 (20210316.0004)
 -->
<!-- Title: dependencies Pages: 1 -->
<svg width="1467pt" height="284pt"
 viewBox="0.00 0.00 1467.00 284.00" xmlns="http://www.w3.org/2000/svg" xmlns:xlink="http://www.w3.org/1999/xlink">
<g id="graph0" class="graph" transform="scale(1 1) rotate(0) translate(4 280)">
<title>dependencies</title>
<polygon fill="white" stroke="transparent" points="-4,4 -4,-280 1463,-280 1463,4 -4,4"/>
<text text-anchor="start" x="708.51" y="-42.4" font-family="Times-12" font-weight="bold" font-size="14.00">Legend</text>
<polygon fill="#ffffb3" stroke="transparent" points="495.5,-10 495.5,-30 515.5,-30 515.5,-10 495.5,-10"/>
<text text-anchor="start" x="519.13" y="-15.4" font-family="Times-12" font-size="14.00"> &#160;Declarations</text>
<polygon fill="#8dd3c7" stroke="transparent" points="608.5,-10 608.5,-30 628.5,-30 628.5,-10 608.5,-10"/>
<text text-anchor="start" x="632.23" y="-15.4" font-family="Times-12" font-size="14.00"> &#160;Module</text>
<polygon fill="#80b1d3" stroke="transparent" points="694.5,-10 694.5,-30 714.5,-30 714.5,-10 694.5,-10"/>
<text text-anchor="start" x="718.28" y="-15.4" font-family="Times-12" font-size="14.00"> &#160;Bootstrap</text>
<polygon fill="#fdb462" stroke="transparent" points="791.5,-10 791.5,-30 811.5,-30 811.5,-10 791.5,-10"/>
<text text-anchor="start" x="815.17" y="-15.4" font-family="Times-12" font-size="14.00"> &#160;Providers</text>
<polygon fill="#fb8072" stroke="transparent" points="887.5,-10 887.5,-30 907.5,-30 907.5,-10 887.5,-10"/>
<text text-anchor="start" x="911.23" y="-15.4" font-family="Times-12" font-size="14.00"> &#160;Exports</text>
<g id="clust1" class="cluster">
<title>cluster_CommonToolModule</title>
<polygon fill="none" stroke="black" stroke-dasharray="1,5" points="8,-70 8,-268 1451,-268 1451,-70 8,-70"/>
</g>
<g id="clust6" class="cluster">
<title>cluster_CommonToolModule_providers</title>
<polygon fill="none" stroke="black" points="256,-78 256,-130 1443,-130 1443,-78 256,-78"/>
</g>
<g id="clust4" class="cluster">
<title>cluster_CommonToolModule_exports</title>
<polygon fill="none" stroke="black" points="152,-208 152,-260 1055,-260 1055,-208 152,-208"/>
</g>
<g id="clust3" class="cluster">
<title>cluster_CommonToolModule_imports</title>
<polygon fill="none" stroke="black" points="16,-78 16,-130 248,-130 248,-78 16,-78"/>
</g>
<!-- LoggerModule -->
<g id="node1" class="node">
<title>LoggerModule</title>
<polygon fill="#8dd3c7" stroke="black" points="239.98,-122 236.98,-126 215.98,-126 212.98,-122 140.02,-122 140.02,-86 239.98,-86 239.98,-122"/>
<text text-anchor="middle" x="190" y="-99.8" font-family="Times,serif" font-size="14.00">LoggerModule</text>
</g>
<!-- CommonToolModule -->
<g id="node3" class="node">
<title>CommonToolModule</title>
<polygon fill="#8dd3c7" stroke="black" points="657.11,-187 654.11,-191 633.11,-191 630.11,-187 518.89,-187 518.89,-151 657.11,-151 657.11,-187"/>
<text text-anchor="middle" x="588" y="-164.8" font-family="Times,serif" font-size="14.00">CommonToolModule</text>
</g>
<!-- LoggerModule&#45;&gt;CommonToolModule -->
<g id="edge1" class="edge">
<title>LoggerModule&#45;&gt;CommonToolModule</title>
<path fill="none" stroke="black" d="M199.93,-122.02C199.93,-139.37 199.93,-163 199.93,-163 199.93,-163 508.62,-163 508.62,-163"/>
<polygon fill="black" stroke="black" points="508.62,-166.5 518.62,-163 508.62,-159.5 508.62,-166.5"/>
</g>
<!-- SchoolModule -->
<g id="node2" class="node">
<title>SchoolModule</title>
<polygon fill="#8dd3c7" stroke="black" points="122.44,-122 119.44,-126 98.44,-126 95.44,-122 23.56,-122 23.56,-86 122.44,-86 122.44,-122"/>
<text text-anchor="middle" x="73" y="-99.8" font-family="Times,serif" font-size="14.00">SchoolModule</text>
</g>
<!-- SchoolModule&#45;&gt;CommonToolModule -->
<g id="edge2" class="edge">
<title>SchoolModule&#45;&gt;CommonToolModule</title>
<path fill="none" stroke="black" d="M73,-122.11C73,-141.34 73,-169 73,-169 73,-169 508.81,-169 508.81,-169"/>
<polygon fill="black" stroke="black" points="508.81,-172.5 518.81,-169 508.81,-165.5 508.81,-172.5"/>
</g>
<!-- CommonToolService  -->
<g id="node4" class="node">
<title>CommonToolService </title>
<polygon fill="#fb8072" stroke="black" points="1047.04,-252 906.96,-252 906.96,-216 1047.04,-216 1047.04,-252"/>
<text text-anchor="middle" x="977" y="-229.8" font-family="Times,serif" font-size="14.00">CommonToolService </text>
</g>
<!-- CommonToolModule&#45;&gt;CommonToolService  -->
<g id="edge3" class="edge">
<title>CommonToolModule&#45;&gt;CommonToolService </title>
<path fill="none" stroke="black" stroke-dasharray="5,2" d="M657.21,-175C755.55,-175 923.97,-175 923.97,-175 923.97,-175 923.97,-205.98 923.97,-205.98"/>
<polygon fill="black" stroke="black" points="920.47,-205.98 923.97,-215.98 927.47,-205.98 920.47,-205.98"/>
</g>
<!-- CommonToolValidationService  -->
<g id="node5" class="node">
<title>CommonToolValidationService </title>
<polygon fill="#fb8072" stroke="black" points="888.64,-252 689.36,-252 689.36,-216 888.64,-216 888.64,-252"/>
<text text-anchor="middle" x="789" y="-229.8" font-family="Times,serif" font-size="14.00">CommonToolValidationService </text>
</g>
<!-- CommonToolModule&#45;&gt;CommonToolValidationService  -->
<g id="edge4" class="edge">
<title>CommonToolModule&#45;&gt;CommonToolValidationService </title>
<path fill="none" stroke="black" stroke-dasharray="5,2" d="M657.07,-181C676.92,-181 693.31,-181 693.31,-181 693.31,-181 693.31,-205.76 693.31,-205.76"/>
<polygon fill="black" stroke="black" points="689.81,-205.76 693.31,-215.76 696.81,-205.76 689.81,-205.76"/>
</g>
<!-- ContextExternalToolRepo  -->
<g id="node6" class="node">
<title>ContextExternalToolRepo </title>
<polygon fill="#fb8072" stroke="black" points="671.75,-252 504.25,-252 504.25,-216 671.75,-216 671.75,-252"/>
<text text-anchor="middle" x="588" y="-229.8" font-family="Times,serif" font-size="14.00">ContextExternalToolRepo </text>
</g>
<!-- CommonToolModule&#45;&gt;ContextExternalToolRepo  -->
<g id="edge5" class="edge">
<title>CommonToolModule&#45;&gt;ContextExternalToolRepo </title>
<path fill="none" stroke="black" stroke-dasharray="5,2" d="M588,-187.11C588,-187.11 588,-205.99 588,-205.99"/>
<polygon fill="black" stroke="black" points="584.5,-205.99 588,-215.99 591.5,-205.99 584.5,-205.99"/>
</g>
<!-- SchoolExternalToolRepo  -->
<g id="node7" class="node">
<title>SchoolExternalToolRepo </title>
<polygon fill="#fb8072" stroke="black" points="485.81,-252 324.19,-252 324.19,-216 485.81,-216 485.81,-252"/>
<text text-anchor="middle" x="405" y="-229.8" font-family="Times,serif" font-size="14.00">SchoolExternalToolRepo </text>
</g>
<!-- CommonToolModule&#45;&gt;SchoolExternalToolRepo  -->
<g id="edge6" class="edge">
<title>CommonToolModule&#45;&gt;SchoolExternalToolRepo </title>
<path fill="none" stroke="black" stroke-dasharray="5,2" d="M518.71,-181C498.8,-181 482.35,-181 482.35,-181 482.35,-181 482.35,-205.76 482.35,-205.76"/>
<polygon fill="black" stroke="black" points="478.85,-205.76 482.35,-215.76 485.85,-205.76 478.85,-205.76"/>
</g>
<!-- ToolPermissionHelper  -->
<g id="node8" class="node">
<title>ToolPermissionHelper </title>
<polygon fill="#fb8072" stroke="black" points="306.25,-252 159.75,-252 159.75,-216 306.25,-216 306.25,-252"/>
<text text-anchor="middle" x="233" y="-229.8" font-family="Times,serif" font-size="14.00">ToolPermissionHelper </text>
</g>
<!-- CommonToolModule&#45;&gt;ToolPermissionHelper  -->
<g id="edge7" class="edge">
<title>CommonToolModule&#45;&gt;ToolPermissionHelper </title>
<path fill="none" stroke="black" stroke-dasharray="5,2" d="M518.83,-175C429.35,-175 284.83,-175 284.83,-175 284.83,-175 284.83,-205.98 284.83,-205.98"/>
<polygon fill="black" stroke="black" points="281.33,-205.98 284.83,-215.98 288.33,-205.98 281.33,-205.98"/>
</g>
<!-- CommonToolService -->
<g id="node9" class="node">
<title>CommonToolService</title>
<ellipse fill="#fdb462" stroke="black" cx="1341" cy="-104" rx="94.36" ry="18"/>
<text text-anchor="middle" x="1341" y="-99.8" font-family="Times,serif" font-size="14.00">CommonToolService</text>
</g>
<!-- CommonToolService&#45;&gt;CommonToolModule -->
<g id="edge8" class="edge">
<title>CommonToolService&#45;&gt;CommonToolModule</title>
<path fill="none" stroke="black" d="M1341,-122.11C1341,-141.34 1341,-169 1341,-169 1341,-169 667.15,-169 667.15,-169"/>
<polygon fill="black" stroke="black" points="667.16,-165.5 657.15,-169 667.15,-172.5 667.16,-165.5"/>
</g>
<!-- CommonToolValidationService -->
<g id="node10" class="node">
<title>CommonToolValidationService</title>
<ellipse fill="#fdb462" stroke="black" cx="1094" cy="-104" rx="134.89" ry="18"/>
<text text-anchor="middle" x="1094" y="-99.8" font-family="Times,serif" font-size="14.00">CommonToolValidationService</text>
</g>
<!-- CommonToolValidationService&#45;&gt;CommonToolModule -->
<g id="edge9" class="edge">
<title>CommonToolValidationService&#45;&gt;CommonToolModule</title>
<path fill="none" stroke="black" d="M1003.04,-117.39C1003.04,-134.8 1003.04,-163 1003.04,-163 1003.04,-163 667.47,-163 667.47,-163"/>
<polygon fill="black" stroke="black" points="667.47,-159.5 657.47,-163 667.47,-166.5 667.47,-159.5"/>
</g>
<!-- ContextExternalToolRepo -->
<g id="node11" class="node">
<title>ContextExternalToolRepo</title>
<ellipse fill="#fdb462" stroke="black" cx="828" cy="-104" rx="112.9" ry="18"/>
<text text-anchor="middle" x="828" y="-99.8" font-family="Times,serif" font-size="14.00">ContextExternalToolRepo</text>
</g>
<!-- ContextExternalToolRepo&#45;&gt;CommonToolModule -->
<g id="edge10" class="edge">
<title>ContextExternalToolRepo&#45;&gt;CommonToolModule</title>
<path fill="none" stroke="black" d="M801.81,-121.65C801.81,-137.07 801.81,-157 801.81,-157 801.81,-157 667.12,-157 667.12,-157"/>
<polygon fill="black" stroke="black" points="667.12,-153.5 657.12,-157 667.12,-160.5 667.12,-153.5"/>
</g>
<!-- SchoolExternalToolRepo -->
<g id="node12" class="node">
<title>SchoolExternalToolRepo</title>
<ellipse fill="#fdb462" stroke="black" cx="588" cy="-104" rx="109.39" ry="18"/>
<text text-anchor="middle" x="588" y="-99.8" font-family="Times,serif" font-size="14.00">SchoolExternalToolRepo</text>
</g>
<!-- SchoolExternalToolRepo&#45;&gt;CommonToolModule -->
<g id="edge11" class="edge">
<title>SchoolExternalToolRepo&#45;&gt;CommonToolModule</title>
<path fill="none" stroke="black" d="M588,-122.11C588,-122.11 588,-140.99 588,-140.99"/>
<polygon fill="black" stroke="black" points="584.5,-140.99 588,-150.99 591.5,-140.99 584.5,-140.99"/>
</g>
<!-- ToolPermissionHelper -->
<g id="node13" class="node">
<title>ToolPermissionHelper</title>
<ellipse fill="#fdb462" stroke="black" cx="362" cy="-104" rx="98.43" ry="18"/>
<text text-anchor="middle" x="362" y="-99.8" font-family="Times,serif" font-size="14.00">ToolPermissionHelper</text>
</g>
<!-- ToolPermissionHelper&#45;&gt;CommonToolModule -->
<g id="edge12" class="edge">
<title>ToolPermissionHelper&#45;&gt;CommonToolModule</title>
<path fill="none" stroke="black" d="M392.28,-121.35C392.28,-136.81 392.28,-157 392.28,-157 392.28,-157 508.72,-157 508.72,-157"/>
<polygon fill="black" stroke="black" points="508.72,-160.5 518.72,-157 508.72,-153.5 508.72,-160.5"/>
</g>
</g>
</svg>
