<?xml version="1.0" encoding="UTF-8" standalone="no"?>
<!DOCTYPE svg PUBLIC "-//W3C//DTD SVG 1.1//EN"
 "http://www.w3.org/Graphics/SVG/1.1/DTD/svg11.dtd">
<!-- Generated by graphviz version 2.47.0 (20210316.0004)
 -->
<!-- Title: dependencies Pages: 1 -->
<svg width="1530pt" height="284pt"
 viewBox="0.00 0.00 1530.00 284.00" xmlns="http://www.w3.org/2000/svg" xmlns:xlink="http://www.w3.org/1999/xlink">
<g id="graph0" class="graph" transform="scale(1 1) rotate(0) translate(4 280)">
<title>dependencies</title>
<polygon fill="white" stroke="transparent" points="-4,4 -4,-280 1526,-280 1526,4 -4,4"/>
<text text-anchor="start" x="740.01" y="-42.4" font-family="Times-12" font-weight="bold" font-size="14.00">Legend</text>
<polygon fill="#ffffb3" stroke="transparent" points="527,-10 527,-30 547,-30 547,-10 527,-10"/>
<text text-anchor="start" x="550.63" y="-15.4" font-family="Times-12" font-size="14.00"> &#160;Declarations</text>
<polygon fill="#8dd3c7" stroke="transparent" points="640,-10 640,-30 660,-30 660,-10 640,-10"/>
<text text-anchor="start" x="663.73" y="-15.4" font-family="Times-12" font-size="14.00"> &#160;Module</text>
<polygon fill="#80b1d3" stroke="transparent" points="726,-10 726,-30 746,-30 746,-10 726,-10"/>
<text text-anchor="start" x="749.78" y="-15.4" font-family="Times-12" font-size="14.00"> &#160;Bootstrap</text>
<polygon fill="#fdb462" stroke="transparent" points="823,-10 823,-30 843,-30 843,-10 823,-10"/>
<text text-anchor="start" x="846.67" y="-15.4" font-family="Times-12" font-size="14.00"> &#160;Providers</text>
<polygon fill="#fb8072" stroke="transparent" points="919,-10 919,-30 939,-30 939,-10 919,-10"/>
<text text-anchor="start" x="942.73" y="-15.4" font-family="Times-12" font-size="14.00"> &#160;Exports</text>
<g id="clust1" class="cluster">
<title>cluster_CommonToolModule</title>
<polygon fill="none" stroke="black" stroke-dasharray="1,5" points="8,-70 8,-268 1514,-268 1514,-70 8,-70"/>
</g>
<g id="clust6" class="cluster">
<title>cluster_CommonToolModule_providers</title>
<polygon fill="none" stroke="black" points="256,-78 256,-130 1506,-130 1506,-78 256,-78"/>
</g>
<g id="clust3" class="cluster">
<title>cluster_CommonToolModule_imports</title>
<polygon fill="none" stroke="black" points="16,-78 16,-130 248,-130 248,-78 16,-78"/>
</g>
<g id="clust4" class="cluster">
<title>cluster_CommonToolModule_exports</title>
<polygon fill="none" stroke="black" points="140,-208 140,-260 1089,-260 1089,-208 140,-208"/>
</g>
<!-- LoggerModule -->
<g id="node1" class="node">
<title>LoggerModule</title>
<polygon fill="#8dd3c7" stroke="black" points="239.98,-122 236.98,-126 215.98,-126 212.98,-122 140.02,-122 140.02,-86 239.98,-86 239.98,-122"/>
<text text-anchor="middle" x="190" y="-99.8" font-family="Times,serif" font-size="14.00">LoggerModule</text>
</g>
<!-- CommonToolModule -->
<g id="node3" class="node">
<title>CommonToolModule</title>
<polygon fill="#8dd3c7" stroke="black" points="682.11,-187 679.11,-191 658.11,-191 655.11,-187 543.89,-187 543.89,-151 682.11,-151 682.11,-187"/>
<text text-anchor="middle" x="613" y="-164.8" font-family="Times,serif" font-size="14.00">CommonToolModule</text>
</g>
<!-- LoggerModule&#45;&gt;CommonToolModule -->
<g id="edge1" class="edge">
<title>LoggerModule&#45;&gt;CommonToolModule</title>
<path fill="none" stroke="black" d="M194.04,-122.02C194.04,-139.37 194.04,-163 194.04,-163 194.04,-163 533.82,-163 533.82,-163"/>
<polygon fill="black" stroke="black" points="533.82,-166.5 543.82,-163 533.82,-159.5 533.82,-166.5"/>
</g>
<!-- SchoolModule -->
<g id="node2" class="node">
<title>SchoolModule</title>
<polygon fill="#8dd3c7" stroke="black" points="122.44,-122 119.44,-126 98.44,-126 95.44,-122 23.56,-122 23.56,-86 122.44,-86 122.44,-122"/>
<text text-anchor="middle" x="73" y="-99.8" font-family="Times,serif" font-size="14.00">SchoolModule</text>
</g>
<!-- SchoolModule&#45;&gt;CommonToolModule -->
<g id="edge2" class="edge">
<title>SchoolModule&#45;&gt;CommonToolModule</title>
<path fill="none" stroke="black" d="M73,-122.11C73,-141.34 73,-169 73,-169 73,-169 533.79,-169 533.79,-169"/>
<polygon fill="black" stroke="black" points="533.79,-172.5 543.79,-169 533.79,-165.5 533.79,-172.5"/>
</g>
<!-- CommonToolMetadataService  -->
<g id="node4" class="node">
<title>CommonToolMetadataService </title>
<polygon fill="#fb8072" stroke="black" points="1081.12,-252 888.88,-252 888.88,-216 1081.12,-216 1081.12,-252"/>
<text text-anchor="middle" x="985" y="-229.8" font-family="Times,serif" font-size="14.00">CommonToolMetadataService </text>
</g>
<!-- CommonToolModule&#45;&gt;CommonToolMetadataService  -->
<g id="edge3" class="edge">
<title>CommonToolModule&#45;&gt;CommonToolMetadataService </title>
<path fill="none" stroke="black" stroke-dasharray="5,2" d="M682.31,-175C781.32,-175 951.44,-175 951.44,-175 951.44,-175 951.44,-205.98 951.44,-205.98"/>
<polygon fill="black" stroke="black" points="947.94,-205.98 951.44,-215.98 954.94,-205.98 947.94,-205.98"/>
</g>
<!-- CommonToolService  -->
<g id="node5" class="node">
<title>CommonToolService </title>
<polygon fill="#fb8072" stroke="black" points="871.04,-252 730.96,-252 730.96,-216 871.04,-216 871.04,-252"/>
<text text-anchor="middle" x="801" y="-229.8" font-family="Times,serif" font-size="14.00">CommonToolService </text>
</g>
<!-- CommonToolModule&#45;&gt;CommonToolService  -->
<g id="edge4" class="edge">
<title>CommonToolModule&#45;&gt;CommonToolService </title>
<path fill="none" stroke="black" stroke-dasharray="5,2" d="M682.18,-181C710.84,-181 737.52,-181 737.52,-181 737.52,-181 737.52,-205.76 737.52,-205.76"/>
<polygon fill="black" stroke="black" points="734.02,-205.76 737.52,-215.76 741.02,-205.76 734.02,-205.76"/>
</g>
<!-- CommonToolValidationService  -->
<g id="node6" class="node">
<title>CommonToolValidationService </title>
<polygon fill="#fb8072" stroke="black" points="712.64,-252 513.36,-252 513.36,-216 712.64,-216 712.64,-252"/>
<text text-anchor="middle" x="613" y="-229.8" font-family="Times,serif" font-size="14.00">CommonToolValidationService </text>
</g>
<!-- CommonToolModule&#45;&gt;CommonToolValidationService  -->
<g id="edge5" class="edge">
<title>CommonToolModule&#45;&gt;CommonToolValidationService </title>
<path fill="none" stroke="black" stroke-dasharray="5,2" d="M613,-187.11C613,-187.11 613,-205.99 613,-205.99"/>
<polygon fill="black" stroke="black" points="609.5,-205.99 613,-215.99 616.5,-205.99 609.5,-205.99"/>
</g>
<!-- ContextExternalToolRepo  -->
<g id="node7" class="node">
<title>ContextExternalToolRepo </title>
<polygon fill="#fb8072" stroke="black" points="495.75,-252 328.25,-252 328.25,-216 495.75,-216 495.75,-252"/>
<text text-anchor="middle" x="412" y="-229.8" font-family="Times,serif" font-size="14.00">ContextExternalToolRepo </text>
</g>
<!-- CommonToolModule&#45;&gt;ContextExternalToolRepo  -->
<g id="edge6" class="edge">
<title>CommonToolModule&#45;&gt;ContextExternalToolRepo </title>
<path fill="none" stroke="black" stroke-dasharray="5,2" d="M543.7,-181C515.28,-181 488.91,-181 488.91,-181 488.91,-181 488.91,-205.76 488.91,-205.76"/>
<polygon fill="black" stroke="black" points="485.41,-205.76 488.91,-215.76 492.41,-205.76 485.41,-205.76"/>
</g>
<!-- SchoolExternalToolRepo  -->
<g id="node8" class="node">
<title>SchoolExternalToolRepo </title>
<polygon fill="#fb8072" stroke="black" points="309.81,-252 148.19,-252 148.19,-216 309.81,-216 309.81,-252"/>
<text text-anchor="middle" x="229" y="-229.8" font-family="Times,serif" font-size="14.00">SchoolExternalToolRepo </text>
</g>
<!-- CommonToolModule&#45;&gt;SchoolExternalToolRepo  -->
<g id="edge7" class="edge">
<title>CommonToolModule&#45;&gt;SchoolExternalToolRepo </title>
<path fill="none" stroke="black" stroke-dasharray="5,2" d="M543.83,-175C448.1,-175 286.85,-175 286.85,-175 286.85,-175 286.85,-205.98 286.85,-205.98"/>
<polygon fill="black" stroke="black" points="283.35,-205.98 286.85,-215.98 290.35,-205.98 283.35,-205.98"/>
</g>
<!-- CommonToolMetadataService -->
<g id="node9" class="node">
<title>CommonToolMetadataService</title>
<ellipse fill="#fdb462" stroke="black" cx="1368" cy="-104" rx="130.22" ry="18"/>
<text text-anchor="middle" x="1368" y="-99.8" font-family="Times,serif" font-size="14.00">CommonToolMetadataService</text>
</g>
<!-- CommonToolMetadataService&#45;&gt;CommonToolModule -->
<g id="edge8" class="edge">
<title>CommonToolMetadataService&#45;&gt;CommonToolModule</title>
<path fill="none" stroke="black" d="M1368,-122.11C1368,-141.34 1368,-169 1368,-169 1368,-169 692.34,-169 692.34,-169"/>
<polygon fill="black" stroke="black" points="692.34,-165.5 682.34,-169 692.34,-172.5 692.34,-165.5"/>
</g>
<!-- CommonToolService -->
<g id="node10" class="node">
<title>CommonToolService</title>
<ellipse fill="#fdb462" stroke="black" cx="1126" cy="-104" rx="94.36" ry="18"/>
<text text-anchor="middle" x="1126" y="-99.8" font-family="Times,serif" font-size="14.00">CommonToolService</text>
</g>
<!-- CommonToolService&#45;&gt;CommonToolModule -->
<g id="edge9" class="edge">
<title>CommonToolService&#45;&gt;CommonToolModule</title>
<path fill="none" stroke="black" d="M1056.44,-116.22C1056.44,-133.51 1056.44,-163 1056.44,-163 1056.44,-163 692.29,-163 692.29,-163"/>
<polygon fill="black" stroke="black" points="692.29,-159.5 682.29,-163 692.29,-166.5 692.29,-159.5"/>
</g>
<!-- CommonToolValidationService -->
<g id="node11" class="node">
<title>CommonToolValidationService</title>
<ellipse fill="#fdb462" stroke="black" cx="879" cy="-104" rx="134.89" ry="18"/>
<text text-anchor="middle" x="879" y="-99.8" font-family="Times,serif" font-size="14.00">CommonToolValidationService</text>
</g>
<!-- CommonToolValidationService&#45;&gt;CommonToolModule -->
<g id="edge10" class="edge">
<title>CommonToolValidationService&#45;&gt;CommonToolModule</title>
<path fill="none" stroke="black" d="M807.54,-119.33C807.54,-134.98 807.54,-157 807.54,-157 807.54,-157 692.13,-157 692.13,-157"/>
<polygon fill="black" stroke="black" points="692.13,-153.5 682.13,-157 692.13,-160.5 692.13,-153.5"/>
</g>
<!-- ContextExternalToolRepo -->
<g id="node12" class="node">
<title>ContextExternalToolRepo</title>
<ellipse fill="#fdb462" stroke="black" cx="613" cy="-104" rx="112.9" ry="18"/>
<text text-anchor="middle" x="613" y="-99.8" font-family="Times,serif" font-size="14.00">ContextExternalToolRepo</text>
</g>
<!-- ContextExternalToolRepo&#45;&gt;CommonToolModule -->
<g id="edge11" class="edge">
<title>ContextExternalToolRepo&#45;&gt;CommonToolModule</title>
<path fill="none" stroke="black" d="M613,-122.11C613,-122.11 613,-140.99 613,-140.99"/>
<polygon fill="black" stroke="black" points="609.5,-140.99 613,-150.99 616.5,-140.99 609.5,-140.99"/>
</g>
<!-- SchoolExternalToolRepo -->
<g id="node13" class="node">
<title>SchoolExternalToolRepo</title>
<ellipse fill="#fdb462" stroke="black" cx="373" cy="-104" rx="109.39" ry="18"/>
<text text-anchor="middle" x="373" y="-99.8" font-family="Times,serif" font-size="14.00">SchoolExternalToolRepo</text>
</g>
<!-- SchoolExternalToolRepo&#45;&gt;CommonToolModule -->
<g id="edge12" class="edge">
<title>SchoolExternalToolRepo&#45;&gt;CommonToolModule</title>
<path fill="none" stroke="black" d="M405.29,-121.35C405.29,-136.81 405.29,-157 405.29,-157 405.29,-157 533.83,-157 533.83,-157"/>
<polygon fill="black" stroke="black" points="533.83,-160.5 543.83,-157 533.83,-153.5 533.83,-160.5"/>
</g>
</g>
</svg>
