<?xml version="1.0" encoding="UTF-8" standalone="no"?>
<!DOCTYPE svg PUBLIC "-//W3C//DTD SVG 1.1//EN"
 "http://www.w3.org/Graphics/SVG/1.1/DTD/svg11.dtd">
<!-- Generated by graphviz version 2.47.0 (20210316.0004)
 -->
<!-- Title: dependencies Pages: 1 -->
<svg width="1572pt" height="284pt"
 viewBox="0.00 0.00 1572.00 284.00" xmlns="http://www.w3.org/2000/svg" xmlns:xlink="http://www.w3.org/1999/xlink">
<g id="graph0" class="graph" transform="scale(1 1) rotate(0) translate(4 280)">
<title>dependencies</title>
<polygon fill="white" stroke="transparent" points="-4,4 -4,-280 1568,-280 1568,4 -4,4"/>
<text text-anchor="start" x="761.01" y="-42.4" font-family="Times-12" font-weight="bold" font-size="14.00">Legend</text>
<polygon fill="#ffffb3" stroke="transparent" points="548,-10 548,-30 568,-30 568,-10 548,-10"/>
<text text-anchor="start" x="571.63" y="-15.4" font-family="Times-12" font-size="14.00"> &#160;Declarations</text>
<polygon fill="#8dd3c7" stroke="transparent" points="661,-10 661,-30 681,-30 681,-10 661,-10"/>
<text text-anchor="start" x="684.73" y="-15.4" font-family="Times-12" font-size="14.00"> &#160;Module</text>
<polygon fill="#80b1d3" stroke="transparent" points="747,-10 747,-30 767,-30 767,-10 747,-10"/>
<text text-anchor="start" x="770.78" y="-15.4" font-family="Times-12" font-size="14.00"> &#160;Bootstrap</text>
<polygon fill="#fdb462" stroke="transparent" points="844,-10 844,-30 864,-30 864,-10 844,-10"/>
<text text-anchor="start" x="867.67" y="-15.4" font-family="Times-12" font-size="14.00"> &#160;Providers</text>
<polygon fill="#fb8072" stroke="transparent" points="940,-10 940,-30 960,-30 960,-10 940,-10"/>
<text text-anchor="start" x="963.73" y="-15.4" font-family="Times-12" font-size="14.00"> &#160;Exports</text>
<g id="clust1" class="cluster">
<title>cluster_CommonToolModule</title>
<polygon fill="none" stroke="black" stroke-dasharray="1,5" points="8,-70 8,-268 1556,-268 1556,-70 8,-70"/>
</g>
<g id="clust4" class="cluster">
<title>cluster_CommonToolModule_exports</title>
<polygon fill="none" stroke="black" points="182,-208 182,-260 1131,-260 1131,-208 182,-208"/>
</g>
<g id="clust6" class="cluster">
<title>cluster_CommonToolModule_providers</title>
<polygon fill="none" stroke="black" points="298,-78 298,-130 1548,-130 1548,-78 298,-78"/>
</g>
<g id="clust3" class="cluster">
<title>cluster_CommonToolModule_imports</title>
<polygon fill="none" stroke="black" points="16,-78 16,-130 290,-130 290,-78 16,-78"/>
</g>
<!-- LegacySchoolModule -->
<g id="node1" class="node">
<title>LegacySchoolModule</title>
<polygon fill="#8dd3c7" stroke="black" points="281.63,-122 278.63,-126 257.63,-126 254.63,-122 142.37,-122 142.37,-86 281.63,-86 281.63,-122"/>
<text text-anchor="middle" x="212" y="-99.8" font-family="Times,serif" font-size="14.00">LegacySchoolModule</text>
</g>
<!-- CommonToolModule -->
<g id="node3" class="node">
<title>CommonToolModule</title>
<polygon fill="#8dd3c7" stroke="black" points="724.11,-187 721.11,-191 700.11,-191 697.11,-187 585.89,-187 585.89,-151 724.11,-151 724.11,-187"/>
<text text-anchor="middle" x="655" y="-164.8" font-family="Times,serif" font-size="14.00">CommonToolModule</text>
</g>
<!-- LegacySchoolModule&#45;&gt;CommonToolModule -->
<g id="edge1" class="edge">
<title>LegacySchoolModule&#45;&gt;CommonToolModule</title>
<path fill="none" stroke="black" d="M235.96,-122.02C235.96,-139.37 235.96,-163 235.96,-163 235.96,-163 575.8,-163 575.8,-163"/>
<polygon fill="black" stroke="black" points="575.8,-166.5 585.8,-163 575.8,-159.5 575.8,-166.5"/>
</g>
<!-- LoggerModule -->
<g id="node2" class="node">
<title>LoggerModule</title>
<polygon fill="#8dd3c7" stroke="black" points="123.98,-122 120.98,-126 99.98,-126 96.98,-122 24.02,-122 24.02,-86 123.98,-86 123.98,-122"/>
<text text-anchor="middle" x="74" y="-99.8" font-family="Times,serif" font-size="14.00">LoggerModule</text>
</g>
<!-- LoggerModule&#45;&gt;CommonToolModule -->
<g id="edge2" class="edge">
<title>LoggerModule&#45;&gt;CommonToolModule</title>
<path fill="none" stroke="black" d="M74,-122.11C74,-141.34 74,-169 74,-169 74,-169 575.78,-169 575.78,-169"/>
<polygon fill="black" stroke="black" points="575.78,-172.5 585.78,-169 575.78,-165.5 575.78,-172.5"/>
</g>
<!-- CommonToolMetadataService  -->
<g id="node4" class="node">
<title>CommonToolMetadataService </title>
<polygon fill="#fb8072" stroke="black" points="1123.12,-252 930.88,-252 930.88,-216 1123.12,-216 1123.12,-252"/>
<text text-anchor="middle" x="1027" y="-229.8" font-family="Times,serif" font-size="14.00">CommonToolMetadataService </text>
</g>
<!-- CommonToolModule&#45;&gt;CommonToolMetadataService  -->
<g id="edge3" class="edge">
<title>CommonToolModule&#45;&gt;CommonToolMetadataService </title>
<path fill="none" stroke="black" stroke-dasharray="5,2" d="M724.31,-175C823.32,-175 993.44,-175 993.44,-175 993.44,-175 993.44,-205.98 993.44,-205.98"/>
<polygon fill="black" stroke="black" points="989.94,-205.98 993.44,-215.98 996.94,-205.98 989.94,-205.98"/>
</g>
<!-- CommonToolService  -->
<g id="node5" class="node">
<title>CommonToolService </title>
<polygon fill="#fb8072" stroke="black" points="913.04,-252 772.96,-252 772.96,-216 913.04,-216 913.04,-252"/>
<text text-anchor="middle" x="843" y="-229.8" font-family="Times,serif" font-size="14.00">CommonToolService </text>
</g>
<!-- CommonToolModule&#45;&gt;CommonToolService  -->
<g id="edge4" class="edge">
<title>CommonToolModule&#45;&gt;CommonToolService </title>
<path fill="none" stroke="black" stroke-dasharray="5,2" d="M724.18,-181C752.84,-181 779.52,-181 779.52,-181 779.52,-181 779.52,-205.76 779.52,-205.76"/>
<polygon fill="black" stroke="black" points="776.02,-205.76 779.52,-215.76 783.02,-205.76 776.02,-205.76"/>
</g>
<!-- CommonToolValidationService  -->
<g id="node6" class="node">
<title>CommonToolValidationService </title>
<polygon fill="#fb8072" stroke="black" points="754.64,-252 555.36,-252 555.36,-216 754.64,-216 754.64,-252"/>
<text text-anchor="middle" x="655" y="-229.8" font-family="Times,serif" font-size="14.00">CommonToolValidationService </text>
</g>
<!-- CommonToolModule&#45;&gt;CommonToolValidationService  -->
<g id="edge5" class="edge">
<title>CommonToolModule&#45;&gt;CommonToolValidationService </title>
<path fill="none" stroke="black" stroke-dasharray="5,2" d="M655,-187.11C655,-187.11 655,-205.99 655,-205.99"/>
<polygon fill="black" stroke="black" points="651.5,-205.99 655,-215.99 658.5,-205.99 651.5,-205.99"/>
</g>
<!-- ContextExternalToolRepo  -->
<g id="node7" class="node">
<title>ContextExternalToolRepo </title>
<polygon fill="#fb8072" stroke="black" points="537.75,-252 370.25,-252 370.25,-216 537.75,-216 537.75,-252"/>
<text text-anchor="middle" x="454" y="-229.8" font-family="Times,serif" font-size="14.00">ContextExternalToolRepo </text>
</g>
<!-- CommonToolModule&#45;&gt;ContextExternalToolRepo  -->
<g id="edge6" class="edge">
<title>CommonToolModule&#45;&gt;ContextExternalToolRepo </title>
<path fill="none" stroke="black" stroke-dasharray="5,2" d="M585.7,-181C557.28,-181 530.91,-181 530.91,-181 530.91,-181 530.91,-205.76 530.91,-205.76"/>
<polygon fill="black" stroke="black" points="527.41,-205.76 530.91,-215.76 534.41,-205.76 527.41,-205.76"/>
</g>
<!-- SchoolExternalToolRepo  -->
<g id="node8" class="node">
<title>SchoolExternalToolRepo </title>
<polygon fill="#fb8072" stroke="black" points="351.81,-252 190.19,-252 190.19,-216 351.81,-216 351.81,-252"/>
<text text-anchor="middle" x="271" y="-229.8" font-family="Times,serif" font-size="14.00">SchoolExternalToolRepo </text>
</g>
<!-- CommonToolModule&#45;&gt;SchoolExternalToolRepo  -->
<g id="edge7" class="edge">
<title>CommonToolModule&#45;&gt;SchoolExternalToolRepo </title>
<path fill="none" stroke="black" stroke-dasharray="5,2" d="M585.83,-175C490.1,-175 328.85,-175 328.85,-175 328.85,-175 328.85,-205.98 328.85,-205.98"/>
<polygon fill="black" stroke="black" points="325.35,-205.98 328.85,-215.98 332.35,-205.98 325.35,-205.98"/>
</g>
<!-- CommonToolMetadataService -->
<g id="node9" class="node">
<title>CommonToolMetadataService</title>
<ellipse fill="#fdb462" stroke="black" cx="1410" cy="-104" rx="130.22" ry="18"/>
<text text-anchor="middle" x="1410" y="-99.8" font-family="Times,serif" font-size="14.00">CommonToolMetadataService</text>
</g>
<!-- CommonToolMetadataService&#45;&gt;CommonToolModule -->
<g id="edge8" class="edge">
<title>CommonToolMetadataService&#45;&gt;CommonToolModule</title>
<path fill="none" stroke="black" d="M1410,-122.11C1410,-141.34 1410,-169 1410,-169 1410,-169 734.34,-169 734.34,-169"/>
<polygon fill="black" stroke="black" points="734.34,-165.5 724.34,-169 734.34,-172.5 734.34,-165.5"/>
</g>
<!-- CommonToolService -->
<g id="node10" class="node">
<title>CommonToolService</title>
<ellipse fill="#fdb462" stroke="black" cx="1168" cy="-104" rx="94.36" ry="18"/>
<text text-anchor="middle" x="1168" y="-99.8" font-family="Times,serif" font-size="14.00">CommonToolService</text>
</g>
<!-- CommonToolService&#45;&gt;CommonToolModule -->
<g id="edge9" class="edge">
<title>CommonToolService&#45;&gt;CommonToolModule</title>
<path fill="none" stroke="black" d="M1098.44,-116.22C1098.44,-133.51 1098.44,-163 1098.44,-163 1098.44,-163 734.29,-163 734.29,-163"/>
<polygon fill="black" stroke="black" points="734.29,-159.5 724.29,-163 734.29,-166.5 734.29,-159.5"/>
</g>
<!-- CommonToolValidationService -->
<g id="node11" class="node">
<title>CommonToolValidationService</title>
<ellipse fill="#fdb462" stroke="black" cx="921" cy="-104" rx="134.89" ry="18"/>
<text text-anchor="middle" x="921" y="-99.8" font-family="Times,serif" font-size="14.00">CommonToolValidationService</text>
</g>
<!-- CommonToolValidationService&#45;&gt;CommonToolModule -->
<g id="edge10" class="edge">
<title>CommonToolValidationService&#45;&gt;CommonToolModule</title>
<path fill="none" stroke="black" d="M849.54,-119.33C849.54,-134.98 849.54,-157 849.54,-157 849.54,-157 734.13,-157 734.13,-157"/>
<polygon fill="black" stroke="black" points="734.13,-153.5 724.13,-157 734.13,-160.5 734.13,-153.5"/>
</g>
<!-- ContextExternalToolRepo -->
<g id="node12" class="node">
<title>ContextExternalToolRepo</title>
<ellipse fill="#fdb462" stroke="black" cx="655" cy="-104" rx="112.9" ry="18"/>
<text text-anchor="middle" x="655" y="-99.8" font-family="Times,serif" font-size="14.00">ContextExternalToolRepo</text>
</g>
<!-- ContextExternalToolRepo&#45;&gt;CommonToolModule -->
<g id="edge11" class="edge">
<title>ContextExternalToolRepo&#45;&gt;CommonToolModule</title>
<path fill="none" stroke="black" d="M655,-122.11C655,-122.11 655,-140.99 655,-140.99"/>
<polygon fill="black" stroke="black" points="651.5,-140.99 655,-150.99 658.5,-140.99 651.5,-140.99"/>
</g>
<!-- SchoolExternalToolRepo -->
<g id="node13" class="node">
<title>SchoolExternalToolRepo</title>
<ellipse fill="#fdb462" stroke="black" cx="415" cy="-104" rx="109.39" ry="18"/>
<text text-anchor="middle" x="415" y="-99.8" font-family="Times,serif" font-size="14.00">SchoolExternalToolRepo</text>
</g>
<!-- SchoolExternalToolRepo&#45;&gt;CommonToolModule -->
<g id="edge12" class="edge">
<title>SchoolExternalToolRepo&#45;&gt;CommonToolModule</title>
<path fill="none" stroke="black" d="M447.29,-121.35C447.29,-136.81 447.29,-157 447.29,-157 447.29,-157 575.83,-157 575.83,-157"/>
<polygon fill="black" stroke="black" points="575.83,-160.5 585.83,-157 575.83,-153.5 575.83,-160.5"/>
</g>
</g>
</svg>
