<?xml version="1.0" encoding="UTF-8" standalone="no"?>
<!DOCTYPE svg PUBLIC "-//W3C//DTD SVG 1.1//EN"
 "http://www.w3.org/Graphics/SVG/1.1/DTD/svg11.dtd">
<!-- Generated by graphviz version 2.47.0 (20210316.0004)
 -->
<!-- Title: dependencies Pages: 1 -->
<svg width="1414pt" height="284pt"
 viewBox="0.00 0.00 1414.00 284.00" xmlns="http://www.w3.org/2000/svg" xmlns:xlink="http://www.w3.org/1999/xlink">
<g id="graph0" class="graph" transform="scale(1 1) rotate(0) translate(4 280)">
<title>dependencies</title>
<polygon fill="white" stroke="transparent" points="-4,4 -4,-280 1410,-280 1410,4 -4,4"/>
<text text-anchor="start" x="682.01" y="-42.4" font-family="Times-12" font-weight="bold" font-size="14.00">Legend</text>
<polygon fill="#ffffb3" stroke="transparent" points="469,-10 469,-30 489,-30 489,-10 469,-10"/>
<text text-anchor="start" x="492.63" y="-15.4" font-family="Times-12" font-size="14.00"> &#160;Declarations</text>
<polygon fill="#8dd3c7" stroke="transparent" points="582,-10 582,-30 602,-30 602,-10 582,-10"/>
<text text-anchor="start" x="605.73" y="-15.4" font-family="Times-12" font-size="14.00"> &#160;Module</text>
<polygon fill="#80b1d3" stroke="transparent" points="668,-10 668,-30 688,-30 688,-10 668,-10"/>
<text text-anchor="start" x="691.78" y="-15.4" font-family="Times-12" font-size="14.00"> &#160;Bootstrap</text>
<polygon fill="#fdb462" stroke="transparent" points="765,-10 765,-30 785,-30 785,-10 765,-10"/>
<text text-anchor="start" x="788.67" y="-15.4" font-family="Times-12" font-size="14.00"> &#160;Providers</text>
<polygon fill="#fb8072" stroke="transparent" points="861,-10 861,-30 881,-30 881,-10 861,-10"/>
<text text-anchor="start" x="884.73" y="-15.4" font-family="Times-12" font-size="14.00"> &#160;Exports</text>
<g id="clust1" class="cluster">
<title>cluster_CommonToolModule</title>
<polygon fill="none" stroke="black" stroke-dasharray="1,5" points="8,-70 8,-268 1398,-268 1398,-70 8,-70"/>
</g>
<g id="clust6" class="cluster">
<title>cluster_CommonToolModule_providers</title>
<polygon fill="none" stroke="black" points="140,-78 140,-130 1390,-130 1390,-78 140,-78"/>
</g>
<g id="clust3" class="cluster">
<title>cluster_CommonToolModule_imports</title>
<polygon fill="none" stroke="black" points="16,-78 16,-130 132,-130 132,-78 16,-78"/>
</g>
<g id="clust4" class="cluster">
<title>cluster_CommonToolModule_exports</title>
<polygon fill="none" stroke="black" points="157,-208 157,-260 1106,-260 1106,-208 157,-208"/>
</g>
<!-- LoggerModule -->
<g id="node1" class="node">
<title>LoggerModule</title>
<polygon fill="#8dd3c7" stroke="black" points="123.98,-122 120.98,-126 99.98,-126 96.98,-122 24.02,-122 24.02,-86 123.98,-86 123.98,-122"/>
<text text-anchor="middle" x="74" y="-99.8" font-family="Times,serif" font-size="14.00">LoggerModule</text>
</g>
<!-- CommonToolModule -->
<g id="node2" class="node">
<title>CommonToolModule</title>
<polygon fill="#8dd3c7" stroke="black" points="699.11,-187 696.11,-191 675.11,-191 672.11,-187 560.89,-187 560.89,-151 699.11,-151 699.11,-187"/>
<text text-anchor="middle" x="630" y="-164.8" font-family="Times,serif" font-size="14.00">CommonToolModule</text>
</g>
<!-- LoggerModule&#45;&gt;CommonToolModule -->
<g id="edge1" class="edge">
<title>LoggerModule&#45;&gt;CommonToolModule</title>
<path fill="none" stroke="black" d="M74,-122.27C74,-140.56 74,-166 74,-166 74,-166 550.71,-166 550.71,-166"/>
<polygon fill="black" stroke="black" points="550.71,-169.5 560.71,-166 550.71,-162.5 550.71,-169.5"/>
</g>
<!-- CommonToolMetadataService  -->
<g id="node3" class="node">
<title>CommonToolMetadataService </title>
<polygon fill="#fb8072" stroke="black" points="1098.12,-252 905.88,-252 905.88,-216 1098.12,-216 1098.12,-252"/>
<text text-anchor="middle" x="1002" y="-229.8" font-family="Times,serif" font-size="14.00">CommonToolMetadataService </text>
</g>
<!-- CommonToolModule&#45;&gt;CommonToolMetadataService  -->
<g id="edge2" class="edge">
<title>CommonToolModule&#45;&gt;CommonToolMetadataService </title>
<path fill="none" stroke="black" stroke-dasharray="5,2" d="M699.07,-173C782.24,-173 910.88,-173 910.88,-173 910.88,-173 910.88,-205.7 910.88,-205.7"/>
<polygon fill="black" stroke="black" points="907.38,-205.7 910.88,-215.7 914.38,-205.7 907.38,-205.7"/>
</g>
<!-- CommonToolService  -->
<g id="node4" class="node">
<title>CommonToolService </title>
<polygon fill="#fb8072" stroke="black" points="888.04,-252 747.96,-252 747.96,-216 888.04,-216 888.04,-252"/>
<text text-anchor="middle" x="818" y="-229.8" font-family="Times,serif" font-size="14.00">CommonToolService </text>
</g>
<!-- CommonToolModule&#45;&gt;CommonToolService  -->
<g id="edge3" class="edge">
<title>CommonToolModule&#45;&gt;CommonToolService </title>
<path fill="none" stroke="black" stroke-dasharray="5,2" d="M699.2,-180C752.81,-180 818,-180 818,-180 818,-180 818,-205.72 818,-205.72"/>
<polygon fill="black" stroke="black" points="814.5,-205.72 818,-215.72 821.5,-205.72 814.5,-205.72"/>
</g>
<!-- CommonToolValidationService  -->
<g id="node5" class="node">
<title>CommonToolValidationService </title>
<polygon fill="#fb8072" stroke="black" points="729.64,-252 530.36,-252 530.36,-216 729.64,-216 729.64,-252"/>
<text text-anchor="middle" x="630" y="-229.8" font-family="Times,serif" font-size="14.00">CommonToolValidationService </text>
</g>
<!-- CommonToolModule&#45;&gt;CommonToolValidationService  -->
<g id="edge4" class="edge">
<title>CommonToolModule&#45;&gt;CommonToolValidationService </title>
<path fill="none" stroke="black" stroke-dasharray="5,2" d="M630,-187.11C630,-187.11 630,-205.99 630,-205.99"/>
<polygon fill="black" stroke="black" points="626.5,-205.99 630,-215.99 633.5,-205.99 626.5,-205.99"/>
</g>
<!-- ContextExternalToolRepo  -->
<g id="node6" class="node">
<title>ContextExternalToolRepo </title>
<polygon fill="#fb8072" stroke="black" points="512.75,-252 345.25,-252 345.25,-216 512.75,-216 512.75,-252"/>
<text text-anchor="middle" x="429" y="-229.8" font-family="Times,serif" font-size="14.00">ContextExternalToolRepo </text>
</g>
<!-- CommonToolModule&#45;&gt;ContextExternalToolRepo  -->
<g id="edge5" class="edge">
<title>CommonToolModule&#45;&gt;ContextExternalToolRepo </title>
<path fill="none" stroke="black" stroke-dasharray="5,2" d="M560.8,-180C509.46,-180 448.34,-180 448.34,-180 448.34,-180 448.34,-205.72 448.34,-205.72"/>
<polygon fill="black" stroke="black" points="444.84,-205.72 448.34,-215.72 451.84,-205.72 444.84,-205.72"/>
</g>
<!-- SchoolExternalToolRepo  -->
<g id="node7" class="node">
<title>SchoolExternalToolRepo </title>
<polygon fill="#fb8072" stroke="black" points="326.81,-252 165.19,-252 165.19,-216 326.81,-216 326.81,-252"/>
<text text-anchor="middle" x="246" y="-229.8" font-family="Times,serif" font-size="14.00">SchoolExternalToolRepo </text>
</g>
<!-- CommonToolModule&#45;&gt;SchoolExternalToolRepo  -->
<g id="edge6" class="edge">
<title>CommonToolModule&#45;&gt;SchoolExternalToolRepo </title>
<path fill="none" stroke="black" stroke-dasharray="5,2" d="M560.91,-173C450.35,-173 246,-173 246,-173 246,-173 246,-205.7 246,-205.7"/>
<polygon fill="black" stroke="black" points="242.5,-205.7 246,-215.7 249.5,-205.7 242.5,-205.7"/>
</g>
<!-- CommonToolMetadataService -->
<g id="node8" class="node">
<title>CommonToolMetadataService</title>
<ellipse fill="#fdb462" stroke="black" cx="1252" cy="-104" rx="130.22" ry="18"/>
<text text-anchor="middle" x="1252" y="-99.8" font-family="Times,serif" font-size="14.00">CommonToolMetadataService</text>
</g>
<!-- CommonToolMetadataService&#45;&gt;CommonToolModule -->
<g id="edge7" class="edge">
<title>CommonToolMetadataService&#45;&gt;CommonToolModule</title>
<path fill="none" stroke="black" d="M1252,-122.27C1252,-140.56 1252,-166 1252,-166 1252,-166 709.24,-166 709.24,-166"/>
<polygon fill="black" stroke="black" points="709.24,-162.5 699.24,-166 709.24,-169.5 709.24,-162.5"/>
</g>
<!-- CommonToolService -->
<g id="node9" class="node">
<title>CommonToolService</title>
<ellipse fill="#fdb462" stroke="black" cx="1010" cy="-104" rx="94.36" ry="18"/>
<text text-anchor="middle" x="1010" y="-99.8" font-family="Times,serif" font-size="14.00">CommonToolService</text>
</g>
<!-- CommonToolService&#45;&gt;CommonToolModule -->
<g id="edge8" class="edge">
<title>CommonToolService&#45;&gt;CommonToolModule</title>
<path fill="none" stroke="black" d="M1006.94,-122.01C1006.94,-138.05 1006.94,-159 1006.94,-159 1006.94,-159 709.14,-159 709.14,-159"/>
<polygon fill="black" stroke="black" points="709.14,-155.5 699.14,-159 709.14,-162.5 709.14,-155.5"/>
</g>
<!-- CommonToolValidationService -->
<g id="node10" class="node">
<title>CommonToolValidationService</title>
<ellipse fill="#fdb462" stroke="black" cx="763" cy="-104" rx="134.89" ry="18"/>
<text text-anchor="middle" x="763" y="-99.8" font-family="Times,serif" font-size="14.00">CommonToolValidationService</text>
</g>
<!-- CommonToolValidationService&#45;&gt;CommonToolModule -->
<g id="edge9" class="edge">
<title>CommonToolValidationService&#45;&gt;CommonToolModule</title>
<path fill="none" stroke="black" d="M663.55,-116.23C663.55,-116.23 663.55,-140.68 663.55,-140.68"/>
<polygon fill="black" stroke="black" points="660.05,-140.68 663.55,-150.68 667.05,-140.68 660.05,-140.68"/>
</g>
<!-- ContextExternalToolRepo -->
<g id="node11" class="node">
<title>ContextExternalToolRepo</title>
<ellipse fill="#fdb462" stroke="black" cx="497" cy="-104" rx="112.9" ry="18"/>
<text text-anchor="middle" x="497" y="-99.8" font-family="Times,serif" font-size="14.00">ContextExternalToolRepo</text>
</g>
<!-- ContextExternalToolRepo&#45;&gt;CommonToolModule -->
<g id="edge10" class="edge">
<title>ContextExternalToolRepo&#45;&gt;CommonToolModule</title>
<path fill="none" stroke="black" d="M585.45,-115.32C585.45,-115.32 585.45,-140.94 585.45,-140.94"/>
<polygon fill="black" stroke="black" points="581.95,-140.94 585.45,-150.94 588.95,-140.94 581.95,-140.94"/>
</g>
<!-- SchoolExternalToolRepo -->
<g id="node12" class="node">
<title>SchoolExternalToolRepo</title>
<ellipse fill="#fdb462" stroke="black" cx="257" cy="-104" rx="109.39" ry="18"/>
<text text-anchor="middle" x="257" y="-99.8" font-family="Times,serif" font-size="14.00">SchoolExternalToolRepo</text>
</g>
<!-- SchoolExternalToolRepo&#45;&gt;CommonToolModule -->
<g id="edge11" class="edge">
<title>SchoolExternalToolRepo&#45;&gt;CommonToolModule</title>
<path fill="none" stroke="black" d="M355.79,-112.12C355.79,-127.41 355.79,-159 355.79,-159 355.79,-159 550.8,-159 550.8,-159"/>
<polygon fill="black" stroke="black" points="550.8,-162.5 560.8,-159 550.8,-155.5 550.8,-162.5"/>
</g>
</g>
</svg>
