<?xml version="1.0" encoding="UTF-8" standalone="no"?>
<!DOCTYPE svg PUBLIC "-//W3C//DTD SVG 1.1//EN"
 "http://www.w3.org/Graphics/SVG/1.1/DTD/svg11.dtd">
<!-- Generated by graphviz version 2.47.0 (20210316.0004)
 -->
<!-- Title: dependencies Pages: 1 -->
<svg width="1294pt" height="284pt"
 viewBox="0.00 0.00 1294.00 284.00" xmlns="http://www.w3.org/2000/svg" xmlns:xlink="http://www.w3.org/1999/xlink">
<g id="graph0" class="graph" transform="scale(1 1) rotate(0) translate(4 280)">
<title>dependencies</title>
<polygon fill="white" stroke="transparent" points="-4,4 -4,-280 1290,-280 1290,4 -4,4"/>
<text text-anchor="start" x="622.01" y="-42.4" font-family="Times-12" font-weight="bold" font-size="14.00">Legend</text>
<polygon fill="#ffffb3" stroke="transparent" points="409,-10 409,-30 429,-30 429,-10 409,-10"/>
<text text-anchor="start" x="432.63" y="-15.4" font-family="Times-12" font-size="14.00"> &#160;Declarations</text>
<polygon fill="#8dd3c7" stroke="transparent" points="522,-10 522,-30 542,-30 542,-10 522,-10"/>
<text text-anchor="start" x="545.73" y="-15.4" font-family="Times-12" font-size="14.00"> &#160;Module</text>
<polygon fill="#80b1d3" stroke="transparent" points="608,-10 608,-30 628,-30 628,-10 608,-10"/>
<text text-anchor="start" x="631.78" y="-15.4" font-family="Times-12" font-size="14.00"> &#160;Bootstrap</text>
<polygon fill="#fdb462" stroke="transparent" points="705,-10 705,-30 725,-30 725,-10 705,-10"/>
<text text-anchor="start" x="728.67" y="-15.4" font-family="Times-12" font-size="14.00"> &#160;Providers</text>
<polygon fill="#fb8072" stroke="transparent" points="801,-10 801,-30 821,-30 821,-10 801,-10"/>
<text text-anchor="start" x="824.73" y="-15.4" font-family="Times-12" font-size="14.00"> &#160;Exports</text>
<g id="clust1" class="cluster">
<title>cluster_CommonToolModule</title>
<polygon fill="none" stroke="black" stroke-dasharray="1,5" points="8,-70 8,-268 1278,-268 1278,-70 8,-70"/>
</g>
<g id="clust6" class="cluster">
<title>cluster_CommonToolModule_providers</title>
<polygon fill="none" stroke="black" points="298,-78 298,-130 1270,-130 1270,-78 298,-78"/>
</g>
<g id="clust4" class="cluster">
<title>cluster_CommonToolModule_exports</title>
<polygon fill="none" stroke="black" points="163,-208 163,-260 902,-260 902,-208 163,-208"/>
</g>
<g id="clust3" class="cluster">
<title>cluster_CommonToolModule_imports</title>
<polygon fill="none" stroke="black" points="16,-78 16,-130 290,-130 290,-78 16,-78"/>
</g>
<!-- LegacySchoolModule -->
<g id="node1" class="node">
<title>LegacySchoolModule</title>
<polygon fill="#8dd3c7" stroke="black" points="281.63,-122 278.63,-126 257.63,-126 254.63,-122 142.37,-122 142.37,-86 281.63,-86 281.63,-122"/>
<text text-anchor="middle" x="212" y="-99.8" font-family="Times,serif" font-size="14.00">LegacySchoolModule</text>
</g>
<!-- CommonToolModule -->
<g id="node3" class="node">
<title>CommonToolModule</title>
<polygon fill="#8dd3c7" stroke="black" points="604.11,-187 601.11,-191 580.11,-191 577.11,-187 465.89,-187 465.89,-151 604.11,-151 604.11,-187"/>
<text text-anchor="middle" x="535" y="-164.8" font-family="Times,serif" font-size="14.00">CommonToolModule</text>
</g>
<!-- LegacySchoolModule&#45;&gt;CommonToolModule -->
<g id="edge1" class="edge">
<title>LegacySchoolModule&#45;&gt;CommonToolModule</title>
<path fill="none" stroke="black" d="M226.46,-122.03C226.46,-138.4 226.46,-160 226.46,-160 226.46,-160 455.76,-160 455.76,-160"/>
<polygon fill="black" stroke="black" points="455.76,-163.5 465.76,-160 455.76,-156.5 455.76,-163.5"/>
</g>
<!-- LoggerModule -->
<g id="node2" class="node">
<title>LoggerModule</title>
<polygon fill="#8dd3c7" stroke="black" points="123.98,-122 120.98,-126 99.98,-126 96.98,-122 24.02,-122 24.02,-86 123.98,-86 123.98,-122"/>
<text text-anchor="middle" x="74" y="-99.8" font-family="Times,serif" font-size="14.00">LoggerModule</text>
</g>
<!-- LoggerModule&#45;&gt;CommonToolModule -->
<g id="edge2" class="edge">
<title>LoggerModule&#45;&gt;CommonToolModule</title>
<path fill="none" stroke="black" d="M74,-122.11C74,-141.34 74,-169 74,-169 74,-169 455.48,-169 455.48,-169"/>
<polygon fill="black" stroke="black" points="455.48,-172.5 465.48,-169 455.48,-165.5 455.48,-172.5"/>
</g>
<!-- CommonToolService  -->
<g id="node4" class="node">
<title>CommonToolService </title>
<polygon fill="#fb8072" stroke="black" points="894.04,-252 753.96,-252 753.96,-216 894.04,-216 894.04,-252"/>
<text text-anchor="middle" x="824" y="-229.8" font-family="Times,serif" font-size="14.00">CommonToolService </text>
</g>
<!-- CommonToolModule&#45;&gt;CommonToolService  -->
<g id="edge3" class="edge">
<title>CommonToolModule&#45;&gt;CommonToolService </title>
<path fill="none" stroke="black" stroke-dasharray="5,2" d="M604.33,-178C670.76,-178 760.97,-178 760.97,-178 760.97,-178 760.97,-205.97 760.97,-205.97"/>
<polygon fill="black" stroke="black" points="757.47,-205.97 760.97,-215.97 764.47,-205.97 757.47,-205.97"/>
</g>
<!-- CommonToolValidationService  -->
<g id="node5" class="node">
<title>CommonToolValidationService </title>
<polygon fill="#fb8072" stroke="black" points="735.64,-252 536.36,-252 536.36,-216 735.64,-216 735.64,-252"/>
<text text-anchor="middle" x="636" y="-229.8" font-family="Times,serif" font-size="14.00">CommonToolValidationService </text>
</g>
<!-- CommonToolModule&#45;&gt;CommonToolValidationService  -->
<g id="edge4" class="edge">
<title>CommonToolModule&#45;&gt;CommonToolValidationService </title>
<path fill="none" stroke="black" stroke-dasharray="5,2" d="M570.24,-187.11C570.24,-187.11 570.24,-205.99 570.24,-205.99"/>
<polygon fill="black" stroke="black" points="566.74,-205.99 570.24,-215.99 573.74,-205.99 566.74,-205.99"/>
</g>
<!-- ContextExternalToolRepo  -->
<g id="node6" class="node">
<title>ContextExternalToolRepo </title>
<polygon fill="#fb8072" stroke="black" points="518.75,-252 351.25,-252 351.25,-216 518.75,-216 518.75,-252"/>
<text text-anchor="middle" x="435" y="-229.8" font-family="Times,serif" font-size="14.00">ContextExternalToolRepo </text>
</g>
<!-- CommonToolModule&#45;&gt;ContextExternalToolRepo  -->
<g id="edge5" class="edge">
<title>CommonToolModule&#45;&gt;ContextExternalToolRepo </title>
<path fill="none" stroke="black" stroke-dasharray="5,2" d="M492.28,-187.11C492.28,-187.11 492.28,-205.99 492.28,-205.99"/>
<polygon fill="black" stroke="black" points="488.78,-205.99 492.28,-215.99 495.78,-205.99 488.78,-205.99"/>
</g>
<!-- SchoolExternalToolRepo  -->
<g id="node7" class="node">
<title>SchoolExternalToolRepo </title>
<polygon fill="#fb8072" stroke="black" points="332.81,-252 171.19,-252 171.19,-216 332.81,-216 332.81,-252"/>
<text text-anchor="middle" x="252" y="-229.8" font-family="Times,serif" font-size="14.00">SchoolExternalToolRepo </text>
</g>
<!-- CommonToolModule&#45;&gt;SchoolExternalToolRepo  -->
<g id="edge6" class="edge">
<title>CommonToolModule&#45;&gt;SchoolExternalToolRepo </title>
<path fill="none" stroke="black" stroke-dasharray="5,2" d="M465.88,-178C402.8,-178 319.35,-178 319.35,-178 319.35,-178 319.35,-205.97 319.35,-205.97"/>
<polygon fill="black" stroke="black" points="315.85,-205.97 319.35,-215.97 322.85,-205.97 315.85,-205.97"/>
</g>
<!-- CommonToolService -->
<g id="node8" class="node">
<title>CommonToolService</title>
<ellipse fill="#fdb462" stroke="black" cx="1168" cy="-104" rx="94.36" ry="18"/>
<text text-anchor="middle" x="1168" y="-99.8" font-family="Times,serif" font-size="14.00">CommonToolService</text>
</g>
<!-- CommonToolService&#45;&gt;CommonToolModule -->
<g id="edge7" class="edge">
<title>CommonToolService&#45;&gt;CommonToolModule</title>
<path fill="none" stroke="black" d="M1168,-122.11C1168,-141.34 1168,-169 1168,-169 1168,-169 614.25,-169 614.25,-169"/>
<polygon fill="black" stroke="black" points="614.25,-165.5 604.25,-169 614.25,-172.5 614.25,-165.5"/>
</g>
<!-- CommonToolValidationService -->
<g id="node9" class="node">
<title>CommonToolValidationService</title>
<ellipse fill="#fdb462" stroke="black" cx="921" cy="-104" rx="134.89" ry="18"/>
<text text-anchor="middle" x="921" y="-99.8" font-family="Times,serif" font-size="14.00">CommonToolValidationService</text>
</g>
<!-- CommonToolValidationService&#45;&gt;CommonToolModule -->
<g id="edge8" class="edge">
<title>CommonToolValidationService&#45;&gt;CommonToolModule</title>
<path fill="none" stroke="black" d="M840.04,-118.42C840.04,-135.01 840.04,-160 840.04,-160 840.04,-160 614.22,-160 614.22,-160"/>
<polygon fill="black" stroke="black" points="614.22,-156.5 604.22,-160 614.22,-163.5 614.22,-156.5"/>
</g>
<!-- ContextExternalToolRepo -->
<g id="node10" class="node">
<title>ContextExternalToolRepo</title>
<ellipse fill="#fdb462" stroke="black" cx="655" cy="-104" rx="112.9" ry="18"/>
<text text-anchor="middle" x="655" y="-99.8" font-family="Times,serif" font-size="14.00">ContextExternalToolRepo</text>
</g>
<!-- ContextExternalToolRepo&#45;&gt;CommonToolModule -->
<g id="edge9" class="edge">
<title>ContextExternalToolRepo&#45;&gt;CommonToolModule</title>
<path fill="none" stroke="black" d="M573.05,-116.53C573.05,-116.53 573.05,-140.85 573.05,-140.85"/>
<polygon fill="black" stroke="black" points="569.55,-140.85 573.05,-150.85 576.55,-140.85 569.55,-140.85"/>
</g>
<!-- SchoolExternalToolRepo -->
<g id="node11" class="node">
<title>SchoolExternalToolRepo</title>
<ellipse fill="#fdb462" stroke="black" cx="415" cy="-104" rx="109.39" ry="18"/>
<text text-anchor="middle" x="415" y="-99.8" font-family="Times,serif" font-size="14.00">SchoolExternalToolRepo</text>
</g>
<!-- SchoolExternalToolRepo&#45;&gt;CommonToolModule -->
<g id="edge10" class="edge">
<title>SchoolExternalToolRepo&#45;&gt;CommonToolModule</title>
<path fill="none" stroke="black" d="M495.07,-116.53C495.07,-116.53 495.07,-140.85 495.07,-140.85"/>
<polygon fill="black" stroke="black" points="491.57,-140.85 495.07,-150.85 498.57,-140.85 491.57,-140.85"/>
</g>
</g>
</svg>
