<?xml version="1.0" encoding="UTF-8" standalone="no"?>
<!DOCTYPE svg PUBLIC "-//W3C//DTD SVG 1.1//EN"
 "http://www.w3.org/Graphics/SVG/1.1/DTD/svg11.dtd">
<!-- Generated by graphviz version 2.47.0 (20210316.0004)
 -->
<!-- Title: dependencies Pages: 1 -->
<svg width="1530pt" height="284pt"
 viewBox="0.00 0.00 1530.00 284.00" xmlns="http://www.w3.org/2000/svg" xmlns:xlink="http://www.w3.org/1999/xlink">
<g id="graph0" class="graph" transform="scale(1 1) rotate(0) translate(4 280)">
<title>dependencies</title>
<polygon fill="white" stroke="transparent" points="-4,4 -4,-280 1526,-280 1526,4 -4,4"/>
<text text-anchor="start" x="740.01" y="-42.4" font-family="Times-12" font-weight="bold" font-size="14.00">Legend</text>
<polygon fill="#ffffb3" stroke="transparent" points="527,-10 527,-30 547,-30 547,-10 527,-10"/>
<text text-anchor="start" x="550.63" y="-15.4" font-family="Times-12" font-size="14.00"> &#160;Declarations</text>
<polygon fill="#8dd3c7" stroke="transparent" points="640,-10 640,-30 660,-30 660,-10 640,-10"/>
<text text-anchor="start" x="663.73" y="-15.4" font-family="Times-12" font-size="14.00"> &#160;Module</text>
<polygon fill="#80b1d3" stroke="transparent" points="726,-10 726,-30 746,-30 746,-10 726,-10"/>
<text text-anchor="start" x="749.78" y="-15.4" font-family="Times-12" font-size="14.00"> &#160;Bootstrap</text>
<polygon fill="#fdb462" stroke="transparent" points="823,-10 823,-30 843,-30 843,-10 823,-10"/>
<text text-anchor="start" x="846.67" y="-15.4" font-family="Times-12" font-size="14.00"> &#160;Providers</text>
<polygon fill="#fb8072" stroke="transparent" points="919,-10 919,-30 939,-30 939,-10 919,-10"/>
<text text-anchor="start" x="942.73" y="-15.4" font-family="Times-12" font-size="14.00"> &#160;Exports</text>
<g id="clust1" class="cluster">
<title>cluster_CommonToolModule</title>
<polygon fill="none" stroke="black" stroke-dasharray="1,5" points="8,-70 8,-268 1514,-268 1514,-70 8,-70"/>
</g>
<g id="clust3" class="cluster">
<title>cluster_CommonToolModule_imports</title>
<polygon fill="none" stroke="black" points="1274,-78 1274,-130 1506,-130 1506,-78 1274,-78"/>
</g>
<g id="clust6" class="cluster">
<title>cluster_CommonToolModule_providers</title>
<polygon fill="none" stroke="black" points="16,-78 16,-130 1266,-130 1266,-78 16,-78"/>
</g>
<g id="clust4" class="cluster">
<title>cluster_CommonToolModule_exports</title>
<polygon fill="none" stroke="black" points="413,-208 413,-260 1362,-260 1362,-208 413,-208"/>
</g>
<!-- LoggerModule -->
<g id="node1" class="node">
<title>LoggerModule</title>
<polygon fill="#8dd3c7" stroke="black" points="1497.98,-122 1494.98,-126 1473.98,-126 1470.98,-122 1398.02,-122 1398.02,-86 1497.98,-86 1497.98,-122"/>
<text text-anchor="middle" x="1448" y="-99.8" font-family="Times,serif" font-size="14.00">LoggerModule</text>
</g>
<!-- CommonToolModule -->
<g id="node3" class="node">
<title>CommonToolModule</title>
<polygon fill="#8dd3c7" stroke="black" points="955.11,-187 952.11,-191 931.11,-191 928.11,-187 816.89,-187 816.89,-151 955.11,-151 955.11,-187"/>
<text text-anchor="middle" x="886" y="-164.8" font-family="Times,serif" font-size="14.00">CommonToolModule</text>
</g>
<!-- LoggerModule&#45;&gt;CommonToolModule -->
<g id="edge1" class="edge">
<title>LoggerModule&#45;&gt;CommonToolModule</title>
<path fill="none" stroke="black" d="M1448,-122.11C1448,-141.34 1448,-169 1448,-169 1448,-169 965.19,-169 965.19,-169"/>
<polygon fill="black" stroke="black" points="965.19,-165.5 955.19,-169 965.19,-172.5 965.19,-165.5"/>
</g>
<!-- SchoolModule -->
<g id="node2" class="node">
<title>SchoolModule</title>
<polygon fill="#8dd3c7" stroke="black" points="1380.44,-122 1377.44,-126 1356.44,-126 1353.44,-122 1281.56,-122 1281.56,-86 1380.44,-86 1380.44,-122"/>
<text text-anchor="middle" x="1331" y="-99.8" font-family="Times,serif" font-size="14.00">SchoolModule</text>
</g>
<!-- SchoolModule&#45;&gt;CommonToolModule -->
<g id="edge2" class="edge">
<title>SchoolModule&#45;&gt;CommonToolModule</title>
<path fill="none" stroke="black" d="M1317.92,-122.02C1317.92,-139.37 1317.92,-163 1317.92,-163 1317.92,-163 965.4,-163 965.4,-163"/>
<polygon fill="black" stroke="black" points="965.4,-159.5 955.4,-163 965.4,-166.5 965.4,-159.5"/>
</g>
<!-- CommonToolMetadataService  -->
<g id="node4" class="node">
<title>CommonToolMetadataService </title>
<polygon fill="#fb8072" stroke="black" points="1354.12,-252 1161.88,-252 1161.88,-216 1354.12,-216 1354.12,-252"/>
<text text-anchor="middle" x="1258" y="-229.8" font-family="Times,serif" font-size="14.00">CommonToolMetadataService </text>
</g>
<!-- CommonToolModule&#45;&gt;CommonToolMetadataService  -->
<g id="edge3" class="edge">
<title>CommonToolModule&#45;&gt;CommonToolMetadataService </title>
<path fill="none" stroke="black" stroke-dasharray="5,2" d="M955.11,-175C1050.28,-175 1210.02,-175 1210.02,-175 1210.02,-175 1210.02,-205.98 1210.02,-205.98"/>
<polygon fill="black" stroke="black" points="1206.52,-205.98 1210.02,-215.98 1213.52,-205.98 1206.52,-205.98"/>
</g>
<!-- CommonToolService  -->
<g id="node5" class="node">
<title>CommonToolService </title>
<polygon fill="#fb8072" stroke="black" points="1144.04,-252 1003.96,-252 1003.96,-216 1144.04,-216 1144.04,-252"/>
<text text-anchor="middle" x="1074" y="-229.8" font-family="Times,serif" font-size="14.00">CommonToolService </text>
</g>
<!-- CommonToolModule&#45;&gt;CommonToolService  -->
<g id="edge4" class="edge">
<title>CommonToolModule&#45;&gt;CommonToolService </title>
<path fill="none" stroke="black" stroke-dasharray="5,2" d="M955.2,-181C1016.84,-181 1097.34,-181 1097.34,-181 1097.34,-181 1097.34,-205.76 1097.34,-205.76"/>
<polygon fill="black" stroke="black" points="1093.84,-205.76 1097.34,-215.76 1100.84,-205.76 1093.84,-205.76"/>
</g>
<!-- CommonToolValidationService  -->
<g id="node6" class="node">
<title>CommonToolValidationService </title>
<polygon fill="#fb8072" stroke="black" points="985.64,-252 786.36,-252 786.36,-216 985.64,-216 985.64,-252"/>
<text text-anchor="middle" x="886" y="-229.8" font-family="Times,serif" font-size="14.00">CommonToolValidationService </text>
</g>
<!-- CommonToolModule&#45;&gt;CommonToolValidationService  -->
<g id="edge5" class="edge">
<title>CommonToolModule&#45;&gt;CommonToolValidationService </title>
<path fill="none" stroke="black" stroke-dasharray="5,2" d="M886,-187.11C886,-187.11 886,-205.99 886,-205.99"/>
<polygon fill="black" stroke="black" points="882.5,-205.99 886,-215.99 889.5,-205.99 882.5,-205.99"/>
</g>
<!-- ContextExternalToolRepo  -->
<g id="node7" class="node">
<title>ContextExternalToolRepo </title>
<polygon fill="#fb8072" stroke="black" points="768.75,-252 601.25,-252 601.25,-216 768.75,-216 768.75,-252"/>
<text text-anchor="middle" x="685" y="-229.8" font-family="Times,serif" font-size="14.00">ContextExternalToolRepo </text>
</g>
<!-- CommonToolModule&#45;&gt;ContextExternalToolRepo  -->
<g id="edge6" class="edge">
<title>CommonToolModule&#45;&gt;ContextExternalToolRepo </title>
<path fill="none" stroke="black" stroke-dasharray="5,2" d="M816.58,-181C768.42,-181 712.88,-181 712.88,-181 712.88,-181 712.88,-205.76 712.88,-205.76"/>
<polygon fill="black" stroke="black" points="709.38,-205.76 712.88,-215.76 716.38,-205.76 709.38,-205.76"/>
</g>
<!-- SchoolExternalToolRepo  -->
<g id="node8" class="node">
<title>SchoolExternalToolRepo </title>
<polygon fill="#fb8072" stroke="black" points="582.81,-252 421.19,-252 421.19,-216 582.81,-216 582.81,-252"/>
<text text-anchor="middle" x="502" y="-229.8" font-family="Times,serif" font-size="14.00">SchoolExternalToolRepo </text>
</g>
<!-- CommonToolModule&#45;&gt;SchoolExternalToolRepo  -->
<g id="edge7" class="edge">
<title>CommonToolModule&#45;&gt;SchoolExternalToolRepo </title>
<path fill="none" stroke="black" stroke-dasharray="5,2" d="M816.69,-175C716.6,-175 543.48,-175 543.48,-175 543.48,-175 543.48,-205.98 543.48,-205.98"/>
<polygon fill="black" stroke="black" points="539.98,-205.98 543.48,-215.98 546.98,-205.98 539.98,-205.98"/>
</g>
<!-- CommonToolMetadataService -->
<g id="node9" class="node">
<title>CommonToolMetadataService</title>
<ellipse fill="#fdb462" stroke="black" cx="1128" cy="-104" rx="130.22" ry="18"/>
<text text-anchor="middle" x="1128" y="-99.8" font-family="Times,serif" font-size="14.00">CommonToolMetadataService</text>
</g>
<!-- CommonToolMetadataService&#45;&gt;CommonToolModule -->
<g id="edge8" class="edge">
<title>CommonToolMetadataService&#45;&gt;CommonToolModule</title>
<path fill="none" stroke="black" d="M1050.66,-118.48C1050.66,-134.17 1050.66,-157 1050.66,-157 1050.66,-157 965.35,-157 965.35,-157"/>
<polygon fill="black" stroke="black" points="965.35,-153.5 955.35,-157 965.35,-160.5 965.35,-153.5"/>
</g>
<!-- CommonToolService -->
<g id="node10" class="node">
<title>CommonToolService</title>
<ellipse fill="#fdb462" stroke="black" cx="886" cy="-104" rx="94.36" ry="18"/>
<text text-anchor="middle" x="886" y="-99.8" font-family="Times,serif" font-size="14.00">CommonToolService</text>
</g>
<!-- CommonToolService&#45;&gt;CommonToolModule -->
<g id="edge9" class="edge">
<title>CommonToolService&#45;&gt;CommonToolModule</title>
<path fill="none" stroke="black" d="M886,-122.11C886,-122.11 886,-140.99 886,-140.99"/>
<polygon fill="black" stroke="black" points="882.5,-140.99 886,-150.99 889.5,-140.99 882.5,-140.99"/>
</g>
<!-- CommonToolValidationService -->
<g id="node11" class="node">
<title>CommonToolValidationService</title>
<ellipse fill="#fdb462" stroke="black" cx="639" cy="-104" rx="134.89" ry="18"/>
<text text-anchor="middle" x="639" y="-99.8" font-family="Times,serif" font-size="14.00">CommonToolValidationService</text>
</g>
<!-- CommonToolValidationService&#45;&gt;CommonToolModule -->
<g id="edge10" class="edge">
<title>CommonToolValidationService&#45;&gt;CommonToolModule</title>
<path fill="none" stroke="black" d="M657.12,-121.94C657.12,-137.32 657.12,-157 657.12,-157 657.12,-157 806.71,-157 806.71,-157"/>
<polygon fill="black" stroke="black" points="806.71,-160.5 816.71,-157 806.71,-153.5 806.71,-160.5"/>
</g>
<!-- ContextExternalToolRepo -->
<g id="node12" class="node">
<title>ContextExternalToolRepo</title>
<ellipse fill="#fdb462" stroke="black" cx="373" cy="-104" rx="112.9" ry="18"/>
<text text-anchor="middle" x="373" y="-99.8" font-family="Times,serif" font-size="14.00">ContextExternalToolRepo</text>
</g>
<!-- ContextExternalToolRepo&#45;&gt;CommonToolModule -->
<g id="edge11" class="edge">
<title>ContextExternalToolRepo&#45;&gt;CommonToolModule</title>
<path fill="none" stroke="black" d="M453.52,-116.8C453.52,-134.15 453.52,-163 453.52,-163 453.52,-163 806.52,-163 806.52,-163"/>
<polygon fill="black" stroke="black" points="806.52,-166.5 816.52,-163 806.52,-159.5 806.52,-166.5"/>
</g>
<!-- SchoolExternalToolRepo -->
<g id="node13" class="node">
<title>SchoolExternalToolRepo</title>
<ellipse fill="#fdb462" stroke="black" cx="133" cy="-104" rx="109.39" ry="18"/>
<text text-anchor="middle" x="133" y="-99.8" font-family="Times,serif" font-size="14.00">SchoolExternalToolRepo</text>
</g>
<!-- SchoolExternalToolRepo&#45;&gt;CommonToolModule -->
<g id="edge12" class="edge">
<title>SchoolExternalToolRepo&#45;&gt;CommonToolModule</title>
<path fill="none" stroke="black" d="M133,-122.11C133,-141.34 133,-169 133,-169 133,-169 806.85,-169 806.85,-169"/>
<polygon fill="black" stroke="black" points="806.85,-172.5 816.85,-169 806.84,-165.5 806.85,-172.5"/>
</g>
</g>
</svg>
