<?xml version="1.0" encoding="UTF-8" standalone="no"?>
<!DOCTYPE svg PUBLIC "-//W3C//DTD SVG 1.1//EN"
 "http://www.w3.org/Graphics/SVG/1.1/DTD/svg11.dtd">
<!-- Generated by graphviz version 2.47.0 (20210316.0004)
 -->
<!-- Title: dependencies Pages: 1 -->
<svg width="1414pt" height="284pt"
 viewBox="0.00 0.00 1414.00 284.00" xmlns="http://www.w3.org/2000/svg" xmlns:xlink="http://www.w3.org/1999/xlink">
<g id="graph0" class="graph" transform="scale(1 1) rotate(0) translate(4 280)">
<title>dependencies</title>
<polygon fill="white" stroke="transparent" points="-4,4 -4,-280 1410,-280 1410,4 -4,4"/>
<text text-anchor="start" x="682.01" y="-42.4" font-family="Times-12" font-weight="bold" font-size="14.00">Legend</text>
<polygon fill="#ffffb3" stroke="transparent" points="469,-10 469,-30 489,-30 489,-10 469,-10"/>
<text text-anchor="start" x="492.63" y="-15.4" font-family="Times-12" font-size="14.00"> &#160;Declarations</text>
<polygon fill="#8dd3c7" stroke="transparent" points="582,-10 582,-30 602,-30 602,-10 582,-10"/>
<text text-anchor="start" x="605.73" y="-15.4" font-family="Times-12" font-size="14.00"> &#160;Module</text>
<polygon fill="#80b1d3" stroke="transparent" points="668,-10 668,-30 688,-30 688,-10 668,-10"/>
<text text-anchor="start" x="691.78" y="-15.4" font-family="Times-12" font-size="14.00"> &#160;Bootstrap</text>
<polygon fill="#fdb462" stroke="transparent" points="765,-10 765,-30 785,-30 785,-10 765,-10"/>
<text text-anchor="start" x="788.67" y="-15.4" font-family="Times-12" font-size="14.00"> &#160;Providers</text>
<polygon fill="#fb8072" stroke="transparent" points="861,-10 861,-30 881,-30 881,-10 861,-10"/>
<text text-anchor="start" x="884.73" y="-15.4" font-family="Times-12" font-size="14.00"> &#160;Exports</text>
<g id="clust1" class="cluster">
<title>cluster_CommonToolModule</title>
<polygon fill="none" stroke="black" stroke-dasharray="1,5" points="8,-70 8,-268 1398,-268 1398,-70 8,-70"/>
</g>
<g id="clust3" class="cluster">
<title>cluster_CommonToolModule_imports</title>
<polygon fill="none" stroke="black" points="1274,-78 1274,-130 1390,-130 1390,-78 1274,-78"/>
</g>
<g id="clust6" class="cluster">
<title>cluster_CommonToolModule_providers</title>
<polygon fill="none" stroke="black" points="16,-78 16,-130 1266,-130 1266,-78 16,-78"/>
</g>
<g id="clust4" class="cluster">
<title>cluster_CommonToolModule_exports</title>
<polygon fill="none" stroke="black" points="289,-208 289,-260 1238,-260 1238,-208 289,-208"/>
</g>
<!-- LoggerModule -->
<g id="node1" class="node">
<title>LoggerModule</title>
<polygon fill="#8dd3c7" stroke="black" points="1381.98,-122 1378.98,-126 1357.98,-126 1354.98,-122 1282.02,-122 1282.02,-86 1381.98,-86 1381.98,-122"/>
<text text-anchor="middle" x="1332" y="-99.8" font-family="Times,serif" font-size="14.00">LoggerModule</text>
</g>
<!-- CommonToolModule -->
<g id="node2" class="node">
<title>CommonToolModule</title>
<polygon fill="#8dd3c7" stroke="black" points="831.11,-187 828.11,-191 807.11,-191 804.11,-187 692.89,-187 692.89,-151 831.11,-151 831.11,-187"/>
<text text-anchor="middle" x="762" y="-164.8" font-family="Times,serif" font-size="14.00">CommonToolModule</text>
</g>
<!-- LoggerModule&#45;&gt;CommonToolModule -->
<g id="edge1" class="edge">
<title>LoggerModule&#45;&gt;CommonToolModule</title>
<path fill="none" stroke="black" d="M1332,-122.27C1332,-140.56 1332,-166 1332,-166 1332,-166 841.32,-166 841.32,-166"/>
<polygon fill="black" stroke="black" points="841.32,-162.5 831.32,-166 841.32,-169.5 841.32,-162.5"/>
</g>
<!-- CommonToolMetadataService  -->
<g id="node3" class="node">
<title>CommonToolMetadataService </title>
<polygon fill="#fb8072" stroke="black" points="1230.12,-252 1037.88,-252 1037.88,-216 1230.12,-216 1230.12,-252"/>
<text text-anchor="middle" x="1134" y="-229.8" font-family="Times,serif" font-size="14.00">CommonToolMetadataService </text>
</g>
<!-- CommonToolModule&#45;&gt;CommonToolMetadataService  -->
<g id="edge2" class="edge">
<title>CommonToolModule&#45;&gt;CommonToolMetadataService </title>
<path fill="none" stroke="black" stroke-dasharray="5,2" d="M831.1,-173C938.68,-173 1134,-173 1134,-173 1134,-173 1134,-205.7 1134,-205.7"/>
<polygon fill="black" stroke="black" points="1130.5,-205.7 1134,-215.7 1137.5,-205.7 1130.5,-205.7"/>
</g>
<!-- CommonToolService  -->
<g id="node4" class="node">
<title>CommonToolService </title>
<polygon fill="#fb8072" stroke="black" points="1020.04,-252 879.96,-252 879.96,-216 1020.04,-216 1020.04,-252"/>
<text text-anchor="middle" x="950" y="-229.8" font-family="Times,serif" font-size="14.00">CommonToolService </text>
</g>
<!-- CommonToolModule&#45;&gt;CommonToolService  -->
<g id="edge3" class="edge">
<title>CommonToolModule&#45;&gt;CommonToolService </title>
<path fill="none" stroke="black" stroke-dasharray="5,2" d="M831.34,-180C877.64,-180 930.08,-180 930.08,-180 930.08,-180 930.08,-205.72 930.08,-205.72"/>
<polygon fill="black" stroke="black" points="926.58,-205.72 930.08,-215.72 933.58,-205.72 926.58,-205.72"/>
</g>
<!-- CommonToolValidationService  -->
<g id="node5" class="node">
<title>CommonToolValidationService </title>
<polygon fill="#fb8072" stroke="black" points="861.64,-252 662.36,-252 662.36,-216 861.64,-216 861.64,-252"/>
<text text-anchor="middle" x="762" y="-229.8" font-family="Times,serif" font-size="14.00">CommonToolValidationService </text>
</g>
<!-- CommonToolModule&#45;&gt;CommonToolValidationService  -->
<g id="edge4" class="edge">
<title>CommonToolModule&#45;&gt;CommonToolValidationService </title>
<path fill="none" stroke="black" stroke-dasharray="5,2" d="M762,-187.11C762,-187.11 762,-205.99 762,-205.99"/>
<polygon fill="black" stroke="black" points="758.5,-205.99 762,-215.99 765.5,-205.99 758.5,-205.99"/>
</g>
<!-- ContextExternalToolRepo  -->
<g id="node6" class="node">
<title>ContextExternalToolRepo </title>
<polygon fill="#fb8072" stroke="black" points="644.75,-252 477.25,-252 477.25,-216 644.75,-216 644.75,-252"/>
<text text-anchor="middle" x="561" y="-229.8" font-family="Times,serif" font-size="14.00">ContextExternalToolRepo </text>
</g>
<!-- CommonToolModule&#45;&gt;ContextExternalToolRepo  -->
<g id="edge5" class="edge">
<title>CommonToolModule&#45;&gt;ContextExternalToolRepo </title>
<path fill="none" stroke="black" stroke-dasharray="5,2" d="M692.92,-180C639.41,-180 574.34,-180 574.34,-180 574.34,-180 574.34,-205.72 574.34,-205.72"/>
<polygon fill="black" stroke="black" points="570.84,-205.72 574.34,-215.72 577.84,-205.72 570.84,-205.72"/>
</g>
<!-- SchoolExternalToolRepo  -->
<g id="node7" class="node">
<title>SchoolExternalToolRepo </title>
<polygon fill="#fb8072" stroke="black" points="458.81,-252 297.19,-252 297.19,-216 458.81,-216 458.81,-252"/>
<text text-anchor="middle" x="378" y="-229.8" font-family="Times,serif" font-size="14.00">SchoolExternalToolRepo </text>
</g>
<!-- CommonToolModule&#45;&gt;SchoolExternalToolRepo  -->
<g id="edge6" class="edge">
<title>CommonToolModule&#45;&gt;SchoolExternalToolRepo </title>
<path fill="none" stroke="black" stroke-dasharray="5,2" d="M692.91,-173C582.35,-173 378,-173 378,-173 378,-173 378,-205.7 378,-205.7"/>
<polygon fill="black" stroke="black" points="374.5,-205.7 378,-215.7 381.5,-205.7 374.5,-205.7"/>
</g>
<!-- CommonToolMetadataService -->
<g id="node8" class="node">
<title>CommonToolMetadataService</title>
<ellipse fill="#fdb462" stroke="black" cx="1128" cy="-104" rx="130.22" ry="18"/>
<text text-anchor="middle" x="1128" y="-99.8" font-family="Times,serif" font-size="14.00">CommonToolMetadataService</text>
</g>
<!-- CommonToolMetadataService&#45;&gt;CommonToolModule -->
<g id="edge7" class="edge">
<title>CommonToolMetadataService&#45;&gt;CommonToolModule</title>
<path fill="none" stroke="black" d="M1008.96,-111.65C1008.96,-126.76 1008.96,-159 1008.96,-159 1008.96,-159 841.12,-159 841.12,-159"/>
<polygon fill="black" stroke="black" points="841.12,-155.5 831.12,-159 841.12,-162.5 841.12,-155.5"/>
</g>
<!-- CommonToolService -->
<g id="node9" class="node">
<title>CommonToolService</title>
<ellipse fill="#fdb462" stroke="black" cx="886" cy="-104" rx="94.36" ry="18"/>
<text text-anchor="middle" x="886" y="-99.8" font-family="Times,serif" font-size="14.00">CommonToolService</text>
</g>
<!-- CommonToolService&#45;&gt;CommonToolModule -->
<g id="edge8" class="edge">
<title>CommonToolService&#45;&gt;CommonToolModule</title>
<path fill="none" stroke="black" d="M811.44,-115.03C811.44,-115.03 811.44,-140.78 811.44,-140.78"/>
<polygon fill="black" stroke="black" points="807.94,-140.78 811.44,-150.78 814.94,-140.78 807.94,-140.78"/>
</g>
<!-- CommonToolValidationService -->
<g id="node10" class="node">
<title>CommonToolValidationService</title>
<ellipse fill="#fdb462" stroke="black" cx="639" cy="-104" rx="134.89" ry="18"/>
<text text-anchor="middle" x="639" y="-99.8" font-family="Times,serif" font-size="14.00">CommonToolValidationService</text>
</g>
<!-- CommonToolValidationService&#45;&gt;CommonToolModule -->
<g id="edge9" class="edge">
<title>CommonToolValidationService&#45;&gt;CommonToolModule</title>
<path fill="none" stroke="black" d="M733.45,-117.15C733.45,-117.15 733.45,-140.69 733.45,-140.69"/>
<polygon fill="black" stroke="black" points="729.95,-140.69 733.45,-150.69 736.95,-140.69 729.95,-140.69"/>
</g>
<!-- ContextExternalToolRepo -->
<g id="node11" class="node">
<title>ContextExternalToolRepo</title>
<ellipse fill="#fdb462" stroke="black" cx="373" cy="-104" rx="112.9" ry="18"/>
<text text-anchor="middle" x="373" y="-99.8" font-family="Times,serif" font-size="14.00">ContextExternalToolRepo</text>
</g>
<!-- ContextExternalToolRepo&#45;&gt;CommonToolModule -->
<g id="edge10" class="edge">
<title>ContextExternalToolRepo&#45;&gt;CommonToolModule</title>
<path fill="none" stroke="black" d="M481.66,-109.08C481.66,-122.69 481.66,-159 481.66,-159 481.66,-159 682.7,-159 682.7,-159"/>
<polygon fill="black" stroke="black" points="682.7,-162.5 692.7,-159 682.7,-155.5 682.7,-162.5"/>
</g>
<!-- SchoolExternalToolRepo -->
<g id="node12" class="node">
<title>SchoolExternalToolRepo</title>
<ellipse fill="#fdb462" stroke="black" cx="133" cy="-104" rx="109.39" ry="18"/>
<text text-anchor="middle" x="133" y="-99.8" font-family="Times,serif" font-size="14.00">SchoolExternalToolRepo</text>
</g>
<!-- SchoolExternalToolRepo&#45;&gt;CommonToolModule -->
<g id="edge11" class="edge">
<title>SchoolExternalToolRepo&#45;&gt;CommonToolModule</title>
<path fill="none" stroke="black" d="M133,-122.27C133,-140.56 133,-166 133,-166 133,-166 682.89,-166 682.89,-166"/>
<polygon fill="black" stroke="black" points="682.89,-169.5 692.89,-166 682.89,-162.5 682.89,-169.5"/>
</g>
</g>
</svg>
