<?xml version="1.0" encoding="UTF-8" standalone="no"?>
<!DOCTYPE svg PUBLIC "-//W3C//DTD SVG 1.1//EN"
 "http://www.w3.org/Graphics/SVG/1.1/DTD/svg11.dtd">
<!-- Generated by graphviz version 2.47.0 (20210316.0004)
 -->
<!-- Title: dependencies Pages: 1 -->
<svg width="1136pt" height="284pt"
 viewBox="0.00 0.00 1136.00 284.00" xmlns="http://www.w3.org/2000/svg" xmlns:xlink="http://www.w3.org/1999/xlink">
<g id="graph0" class="graph" transform="scale(1 1) rotate(0) translate(4 280)">
<title>dependencies</title>
<polygon fill="white" stroke="transparent" points="-4,4 -4,-280 1132,-280 1132,4 -4,4"/>
<text text-anchor="start" x="543.01" y="-42.4" font-family="Times-12" font-weight="bold" font-size="14.00">Legend</text>
<polygon fill="#ffffb3" stroke="transparent" points="330,-10 330,-30 350,-30 350,-10 330,-10"/>
<text text-anchor="start" x="353.63" y="-15.4" font-family="Times-12" font-size="14.00"> &#160;Declarations</text>
<polygon fill="#8dd3c7" stroke="transparent" points="443,-10 443,-30 463,-30 463,-10 443,-10"/>
<text text-anchor="start" x="466.73" y="-15.4" font-family="Times-12" font-size="14.00"> &#160;Module</text>
<polygon fill="#80b1d3" stroke="transparent" points="529,-10 529,-30 549,-30 549,-10 529,-10"/>
<text text-anchor="start" x="552.78" y="-15.4" font-family="Times-12" font-size="14.00"> &#160;Bootstrap</text>
<polygon fill="#fdb462" stroke="transparent" points="626,-10 626,-30 646,-30 646,-10 626,-10"/>
<text text-anchor="start" x="649.67" y="-15.4" font-family="Times-12" font-size="14.00"> &#160;Providers</text>
<polygon fill="#fb8072" stroke="transparent" points="722,-10 722,-30 742,-30 742,-10 722,-10"/>
<text text-anchor="start" x="745.73" y="-15.4" font-family="Times-12" font-size="14.00"> &#160;Exports</text>
<g id="clust1" class="cluster">
<title>cluster_CommonToolModule</title>
<polygon fill="none" stroke="black" stroke-dasharray="1,5" points="8,-70 8,-268 1120,-268 1120,-70 8,-70"/>
</g>
<g id="clust6" class="cluster">
<title>cluster_CommonToolModule_providers</title>
<polygon fill="none" stroke="black" points="140,-78 140,-130 1112,-130 1112,-78 140,-78"/>
</g>
<g id="clust3" class="cluster">
<title>cluster_CommonToolModule_imports</title>
<polygon fill="none" stroke="black" points="16,-78 16,-130 132,-130 132,-78 16,-78"/>
</g>
<g id="clust4" class="cluster">
<title>cluster_CommonToolModule_exports</title>
<polygon fill="none" stroke="black" points="125,-208 125,-260 864,-260 864,-208 125,-208"/>
</g>
<!-- LoggerModule -->
<g id="node1" class="node">
<title>LoggerModule</title>
<polygon fill="#8dd3c7" stroke="black" points="123.98,-122 120.98,-126 99.98,-126 96.98,-122 24.02,-122 24.02,-86 123.98,-86 123.98,-122"/>
<text text-anchor="middle" x="74" y="-99.8" font-family="Times,serif" font-size="14.00">LoggerModule</text>
</g>
<!-- CommonToolModule -->
<g id="node2" class="node">
<title>CommonToolModule</title>
<polygon fill="#8dd3c7" stroke="black" points="566.11,-187 563.11,-191 542.11,-191 539.11,-187 427.89,-187 427.89,-151 566.11,-151 566.11,-187"/>
<text text-anchor="middle" x="497" y="-164.8" font-family="Times,serif" font-size="14.00">CommonToolModule</text>
</g>
<!-- LoggerModule&#45;&gt;CommonToolModule -->
<g id="edge1" class="edge">
<title>LoggerModule&#45;&gt;CommonToolModule</title>
<path fill="none" stroke="black" d="M74,-122.11C74,-141.34 74,-169 74,-169 74,-169 417.62,-169 417.62,-169"/>
<polygon fill="black" stroke="black" points="417.62,-172.5 427.62,-169 417.62,-165.5 417.62,-172.5"/>
</g>
<!-- CommonToolService  -->
<g id="node3" class="node">
<title>CommonToolService </title>
<polygon fill="#fb8072" stroke="black" points="856.04,-252 715.96,-252 715.96,-216 856.04,-216 856.04,-252"/>
<text text-anchor="middle" x="786" y="-229.8" font-family="Times,serif" font-size="14.00">CommonToolService </text>
</g>
<!-- CommonToolModule&#45;&gt;CommonToolService  -->
<g id="edge2" class="edge">
<title>CommonToolModule&#45;&gt;CommonToolService </title>
<path fill="none" stroke="black" stroke-dasharray="5,2" d="M566.22,-178C651.72,-178 786,-178 786,-178 786,-178 786,-205.97 786,-205.97"/>
<polygon fill="black" stroke="black" points="782.5,-205.97 786,-215.97 789.5,-205.97 782.5,-205.97"/>
</g>
<!-- CommonToolValidationService  -->
<g id="node4" class="node">
<title>CommonToolValidationService </title>
<polygon fill="#fb8072" stroke="black" points="697.64,-252 498.36,-252 498.36,-216 697.64,-216 697.64,-252"/>
<text text-anchor="middle" x="598" y="-229.8" font-family="Times,serif" font-size="14.00">CommonToolValidationService </text>
</g>
<!-- CommonToolModule&#45;&gt;CommonToolValidationService  -->
<g id="edge3" class="edge">
<title>CommonToolModule&#45;&gt;CommonToolValidationService </title>
<path fill="none" stroke="black" stroke-dasharray="5,2" d="M532.24,-187.11C532.24,-187.11 532.24,-205.99 532.24,-205.99"/>
<polygon fill="black" stroke="black" points="528.74,-205.99 532.24,-215.99 535.74,-205.99 528.74,-205.99"/>
</g>
<!-- ContextExternalToolRepo  -->
<g id="node5" class="node">
<title>ContextExternalToolRepo </title>
<polygon fill="#fb8072" stroke="black" points="480.75,-252 313.25,-252 313.25,-216 480.75,-216 480.75,-252"/>
<text text-anchor="middle" x="397" y="-229.8" font-family="Times,serif" font-size="14.00">ContextExternalToolRepo </text>
</g>
<!-- CommonToolModule&#45;&gt;ContextExternalToolRepo  -->
<g id="edge4" class="edge">
<title>CommonToolModule&#45;&gt;ContextExternalToolRepo </title>
<path fill="none" stroke="black" stroke-dasharray="5,2" d="M454.28,-187.11C454.28,-187.11 454.28,-205.99 454.28,-205.99"/>
<polygon fill="black" stroke="black" points="450.78,-205.99 454.28,-215.99 457.78,-205.99 450.78,-205.99"/>
</g>
<!-- SchoolExternalToolRepo  -->
<g id="node6" class="node">
<title>SchoolExternalToolRepo </title>
<polygon fill="#fb8072" stroke="black" points="294.81,-252 133.19,-252 133.19,-216 294.81,-216 294.81,-252"/>
<text text-anchor="middle" x="214" y="-229.8" font-family="Times,serif" font-size="14.00">SchoolExternalToolRepo </text>
</g>
<!-- CommonToolModule&#45;&gt;SchoolExternalToolRepo  -->
<g id="edge5" class="edge">
<title>CommonToolModule&#45;&gt;SchoolExternalToolRepo </title>
<path fill="none" stroke="black" stroke-dasharray="5,2" d="M427.8,-178C346.15,-178 221.35,-178 221.35,-178 221.35,-178 221.35,-205.97 221.35,-205.97"/>
<polygon fill="black" stroke="black" points="217.85,-205.97 221.35,-215.97 224.85,-205.97 217.85,-205.97"/>
</g>
<!-- CommonToolService -->
<g id="node7" class="node">
<title>CommonToolService</title>
<ellipse fill="#fdb462" stroke="black" cx="1010" cy="-104" rx="94.36" ry="18"/>
<text text-anchor="middle" x="1010" y="-99.8" font-family="Times,serif" font-size="14.00">CommonToolService</text>
</g>
<!-- CommonToolService&#45;&gt;CommonToolModule -->
<g id="edge6" class="edge">
<title>CommonToolService&#45;&gt;CommonToolModule</title>
<path fill="none" stroke="black" d="M1010,-122.11C1010,-141.34 1010,-169 1010,-169 1010,-169 576.19,-169 576.19,-169"/>
<polygon fill="black" stroke="black" points="576.19,-165.5 566.19,-169 576.19,-172.5 576.19,-165.5"/>
</g>
<!-- CommonToolValidationService -->
<g id="node8" class="node">
<title>CommonToolValidationService</title>
<ellipse fill="#fdb462" stroke="black" cx="763" cy="-104" rx="134.89" ry="18"/>
<text text-anchor="middle" x="763" y="-99.8" font-family="Times,serif" font-size="14.00">CommonToolValidationService</text>
</g>
<!-- CommonToolValidationService&#45;&gt;CommonToolModule -->
<g id="edge7" class="edge">
<title>CommonToolValidationService&#45;&gt;CommonToolModule</title>
<path fill="none" stroke="black" d="M662.81,-116.15C662.81,-132.62 662.81,-160 662.81,-160 662.81,-160 576.36,-160 576.36,-160"/>
<polygon fill="black" stroke="black" points="576.36,-156.5 566.36,-160 576.36,-163.5 576.36,-156.5"/>
</g>
<!-- ContextExternalToolRepo -->
<g id="node9" class="node">
<title>ContextExternalToolRepo</title>
<ellipse fill="#fdb462" stroke="black" cx="497" cy="-104" rx="112.9" ry="18"/>
<text text-anchor="middle" x="497" y="-99.8" font-family="Times,serif" font-size="14.00">ContextExternalToolRepo</text>
</g>
<!-- ContextExternalToolRepo&#45;&gt;CommonToolModule -->
<g id="edge8" class="edge">
<title>ContextExternalToolRepo&#45;&gt;CommonToolModule</title>
<path fill="none" stroke="black" d="M497,-122.11C497,-122.11 497,-140.99 497,-140.99"/>
<polygon fill="black" stroke="black" points="493.5,-140.99 497,-150.99 500.5,-140.99 493.5,-140.99"/>
</g>
<!-- SchoolExternalToolRepo -->
<g id="node10" class="node">
<title>SchoolExternalToolRepo</title>
<ellipse fill="#fdb462" stroke="black" cx="257" cy="-104" rx="109.39" ry="18"/>
<text text-anchor="middle" x="257" y="-99.8" font-family="Times,serif" font-size="14.00">SchoolExternalToolRepo</text>
</g>
<!-- SchoolExternalToolRepo&#45;&gt;CommonToolModule -->
<g id="edge9" class="edge">
<title>SchoolExternalToolRepo&#45;&gt;CommonToolModule</title>
<path fill="none" stroke="black" d="M339.79,-115.88C339.79,-132.31 339.79,-160 339.79,-160 339.79,-160 417.59,-160 417.59,-160"/>
<polygon fill="black" stroke="black" points="417.59,-163.5 427.59,-160 417.59,-156.5 417.59,-163.5"/>
</g>
</g>
</svg>
