<?xml version="1.0" encoding="UTF-8" standalone="no"?>
<!DOCTYPE svg PUBLIC "-//W3C//DTD SVG 1.1//EN"
 "http://www.w3.org/Graphics/SVG/1.1/DTD/svg11.dtd">
<!-- Generated by graphviz version 2.47.0 (20210316.0004)
 -->
<!-- Title: dependencies Pages: 1 -->
<svg width="1294pt" height="284pt"
 viewBox="0.00 0.00 1294.00 284.00" xmlns="http://www.w3.org/2000/svg" xmlns:xlink="http://www.w3.org/1999/xlink">
<g id="graph0" class="graph" transform="scale(1 1) rotate(0) translate(4 280)">
<title>dependencies</title>
<polygon fill="white" stroke="transparent" points="-4,4 -4,-280 1290,-280 1290,4 -4,4"/>
<text text-anchor="start" x="622.01" y="-42.4" font-family="Times-12" font-weight="bold" font-size="14.00">Legend</text>
<polygon fill="#ffffb3" stroke="transparent" points="409,-10 409,-30 429,-30 429,-10 409,-10"/>
<text text-anchor="start" x="432.63" y="-15.4" font-family="Times-12" font-size="14.00"> &#160;Declarations</text>
<polygon fill="#8dd3c7" stroke="transparent" points="522,-10 522,-30 542,-30 542,-10 522,-10"/>
<text text-anchor="start" x="545.73" y="-15.4" font-family="Times-12" font-size="14.00"> &#160;Module</text>
<polygon fill="#80b1d3" stroke="transparent" points="608,-10 608,-30 628,-30 628,-10 608,-10"/>
<text text-anchor="start" x="631.78" y="-15.4" font-family="Times-12" font-size="14.00"> &#160;Bootstrap</text>
<polygon fill="#fdb462" stroke="transparent" points="705,-10 705,-30 725,-30 725,-10 705,-10"/>
<text text-anchor="start" x="728.67" y="-15.4" font-family="Times-12" font-size="14.00"> &#160;Providers</text>
<polygon fill="#fb8072" stroke="transparent" points="801,-10 801,-30 821,-30 821,-10 801,-10"/>
<text text-anchor="start" x="824.73" y="-15.4" font-family="Times-12" font-size="14.00"> &#160;Exports</text>
<g id="clust1" class="cluster">
<title>cluster_CommonToolModule</title>
<polygon fill="none" stroke="black" stroke-dasharray="1,5" points="8,-70 8,-268 1278,-268 1278,-70 8,-70"/>
</g>
<g id="clust3" class="cluster">
<title>cluster_CommonToolModule_imports</title>
<polygon fill="none" stroke="black" points="996,-78 996,-130 1270,-130 1270,-78 996,-78"/>
</g>
<g id="clust4" class="cluster">
<title>cluster_CommonToolModule_exports</title>
<polygon fill="none" stroke="black" points="349,-208 349,-260 1088,-260 1088,-208 349,-208"/>
</g>
<g id="clust6" class="cluster">
<title>cluster_CommonToolModule_providers</title>
<polygon fill="none" stroke="black" points="16,-78 16,-130 988,-130 988,-78 16,-78"/>
</g>
<!-- LegacySchoolModule -->
<g id="node1" class="node">
<title>LegacySchoolModule</title>
<polygon fill="#8dd3c7" stroke="black" points="1261.63,-122 1258.63,-126 1237.63,-126 1234.63,-122 1122.37,-122 1122.37,-86 1261.63,-86 1261.63,-122"/>
<text text-anchor="middle" x="1192" y="-99.8" font-family="Times,serif" font-size="14.00">LegacySchoolModule</text>
</g>
<!-- CommonToolModule -->
<g id="node3" class="node">
<title>CommonToolModule</title>
<polygon fill="#8dd3c7" stroke="black" points="790.11,-187 787.11,-191 766.11,-191 763.11,-187 651.89,-187 651.89,-151 790.11,-151 790.11,-187"/>
<text text-anchor="middle" x="721" y="-164.8" font-family="Times,serif" font-size="14.00">CommonToolModule</text>
</g>
<!-- LegacySchoolModule&#45;&gt;CommonToolModule -->
<g id="edge1" class="edge">
<title>LegacySchoolModule&#45;&gt;CommonToolModule</title>
<path fill="none" stroke="black" d="M1192,-122.11C1192,-141.34 1192,-169 1192,-169 1192,-169 800.24,-169 800.24,-169"/>
<polygon fill="black" stroke="black" points="800.24,-165.5 790.24,-169 800.24,-172.5 800.24,-165.5"/>
</g>
<!-- LoggerModule -->
<g id="node2" class="node">
<title>LoggerModule</title>
<polygon fill="#8dd3c7" stroke="black" points="1103.98,-122 1100.98,-126 1079.98,-126 1076.98,-122 1004.02,-122 1004.02,-86 1103.98,-86 1103.98,-122"/>
<text text-anchor="middle" x="1054" y="-99.8" font-family="Times,serif" font-size="14.00">LoggerModule</text>
</g>
<!-- LoggerModule&#45;&gt;CommonToolModule -->
<g id="edge2" class="edge">
<title>LoggerModule&#45;&gt;CommonToolModule</title>
<path fill="none" stroke="black" d="M1042.02,-122.03C1042.02,-138.4 1042.02,-160 1042.02,-160 1042.02,-160 800.26,-160 800.26,-160"/>
<polygon fill="black" stroke="black" points="800.26,-156.5 790.26,-160 800.26,-163.5 800.26,-156.5"/>
</g>
<!-- CommonToolService  -->
<g id="node4" class="node">
<title>CommonToolService </title>
<polygon fill="#fb8072" stroke="black" points="1080.04,-252 939.96,-252 939.96,-216 1080.04,-216 1080.04,-252"/>
<text text-anchor="middle" x="1010" y="-229.8" font-family="Times,serif" font-size="14.00">CommonToolService </text>
</g>
<!-- CommonToolModule&#45;&gt;CommonToolService  -->
<g id="edge3" class="edge">
<title>CommonToolModule&#45;&gt;CommonToolService </title>
<path fill="none" stroke="black" stroke-dasharray="5,2" d="M790.15,-178C860.76,-178 960.08,-178 960.08,-178 960.08,-178 960.08,-205.97 960.08,-205.97"/>
<polygon fill="black" stroke="black" points="956.58,-205.97 960.08,-215.97 963.58,-205.97 956.58,-205.97"/>
</g>
<!-- CommonToolValidationService  -->
<g id="node5" class="node">
<title>CommonToolValidationService </title>
<polygon fill="#fb8072" stroke="black" points="921.64,-252 722.36,-252 722.36,-216 921.64,-216 921.64,-252"/>
<text text-anchor="middle" x="822" y="-229.8" font-family="Times,serif" font-size="14.00">CommonToolValidationService </text>
</g>
<!-- CommonToolModule&#45;&gt;CommonToolValidationService  -->
<g id="edge4" class="edge">
<title>CommonToolModule&#45;&gt;CommonToolValidationService </title>
<path fill="none" stroke="black" stroke-dasharray="5,2" d="M756.24,-187.11C756.24,-187.11 756.24,-205.99 756.24,-205.99"/>
<polygon fill="black" stroke="black" points="752.74,-205.99 756.24,-215.99 759.74,-205.99 752.74,-205.99"/>
</g>
<!-- ContextExternalToolRepo  -->
<g id="node6" class="node">
<title>ContextExternalToolRepo </title>
<polygon fill="#fb8072" stroke="black" points="704.75,-252 537.25,-252 537.25,-216 704.75,-216 704.75,-252"/>
<text text-anchor="middle" x="621" y="-229.8" font-family="Times,serif" font-size="14.00">ContextExternalToolRepo </text>
</g>
<!-- CommonToolModule&#45;&gt;ContextExternalToolRepo  -->
<g id="edge5" class="edge">
<title>CommonToolModule&#45;&gt;ContextExternalToolRepo </title>
<path fill="none" stroke="black" stroke-dasharray="5,2" d="M678.28,-187.11C678.28,-187.11 678.28,-205.99 678.28,-205.99"/>
<polygon fill="black" stroke="black" points="674.78,-205.99 678.28,-215.99 681.78,-205.99 674.78,-205.99"/>
</g>
<!-- SchoolExternalToolRepo  -->
<g id="node7" class="node">
<title>SchoolExternalToolRepo </title>
<polygon fill="#fb8072" stroke="black" points="518.81,-252 357.19,-252 357.19,-216 518.81,-216 518.81,-252"/>
<text text-anchor="middle" x="438" y="-229.8" font-family="Times,serif" font-size="14.00">SchoolExternalToolRepo </text>
</g>
<!-- CommonToolModule&#45;&gt;SchoolExternalToolRepo  -->
<g id="edge6" class="edge">
<title>CommonToolModule&#45;&gt;SchoolExternalToolRepo </title>
<path fill="none" stroke="black" stroke-dasharray="5,2" d="M651.81,-178C590.78,-178 511.48,-178 511.48,-178 511.48,-178 511.48,-205.97 511.48,-205.97"/>
<polygon fill="black" stroke="black" points="507.98,-205.97 511.48,-215.97 514.98,-205.97 507.98,-205.97"/>
</g>
<!-- CommonToolService -->
<g id="node8" class="node">
<title>CommonToolService</title>
<ellipse fill="#fdb462" stroke="black" cx="886" cy="-104" rx="94.36" ry="18"/>
<text text-anchor="middle" x="886" y="-99.8" font-family="Times,serif" font-size="14.00">CommonToolService</text>
</g>
<!-- CommonToolService&#45;&gt;CommonToolModule -->
<g id="edge7" class="edge">
<title>CommonToolService&#45;&gt;CommonToolModule</title>
<path fill="none" stroke="black" d="M791.6,-104C785.66,-104 782,-104 782,-104 782,-104 782,-140.89 782,-140.89"/>
<polygon fill="black" stroke="black" points="778.5,-140.89 782,-150.89 785.5,-140.89 778.5,-140.89"/>
</g>
<!-- CommonToolValidationService -->
<g id="node9" class="node">
<title>CommonToolValidationService</title>
<ellipse fill="#fdb462" stroke="black" cx="639" cy="-104" rx="134.89" ry="18"/>
<text text-anchor="middle" x="639" y="-99.8" font-family="Times,serif" font-size="14.00">CommonToolValidationService</text>
</g>
<!-- CommonToolValidationService&#45;&gt;CommonToolModule -->
<g id="edge8" class="edge">
<title>CommonToolValidationService&#45;&gt;CommonToolModule</title>
<path fill="none" stroke="black" d="M712.95,-119.08C712.95,-119.08 712.95,-140.76 712.95,-140.76"/>
<polygon fill="black" stroke="black" points="709.45,-140.76 712.95,-150.76 716.45,-140.76 709.45,-140.76"/>
</g>
<!-- ContextExternalToolRepo -->
<g id="node10" class="node">
<title>ContextExternalToolRepo</title>
<ellipse fill="#fdb462" stroke="black" cx="373" cy="-104" rx="112.9" ry="18"/>
<text text-anchor="middle" x="373" y="-99.8" font-family="Times,serif" font-size="14.00">ContextExternalToolRepo</text>
</g>
<!-- ContextExternalToolRepo&#45;&gt;CommonToolModule -->
<g id="edge9" class="edge">
<title>ContextExternalToolRepo&#45;&gt;CommonToolModule</title>
<path fill="none" stroke="black" d="M421.52,-120.5C421.52,-137.02 421.52,-160 421.52,-160 421.52,-160 641.92,-160 641.92,-160"/>
<polygon fill="black" stroke="black" points="641.92,-163.5 651.92,-160 641.92,-156.5 641.92,-163.5"/>
</g>
<!-- SchoolExternalToolRepo -->
<g id="node11" class="node">
<title>SchoolExternalToolRepo</title>
<ellipse fill="#fdb462" stroke="black" cx="133" cy="-104" rx="109.39" ry="18"/>
<text text-anchor="middle" x="133" y="-99.8" font-family="Times,serif" font-size="14.00">SchoolExternalToolRepo</text>
</g>
<!-- SchoolExternalToolRepo&#45;&gt;CommonToolModule -->
<g id="edge10" class="edge">
<title>SchoolExternalToolRepo&#45;&gt;CommonToolModule</title>
<path fill="none" stroke="black" d="M133,-122.11C133,-141.34 133,-169 133,-169 133,-169 641.82,-169 641.82,-169"/>
<polygon fill="black" stroke="black" points="641.82,-172.5 651.82,-169 641.82,-165.5 641.82,-172.5"/>
</g>
</g>
</svg>
