<?xml version="1.0" encoding="UTF-8" standalone="no"?>
<!DOCTYPE svg PUBLIC "-//W3C//DTD SVG 1.1//EN"
 "http://www.w3.org/Graphics/SVG/1.1/DTD/svg11.dtd">
<!-- Generated by graphviz version 2.47.0 (20210316.0004)
 -->
<!-- Title: dependencies Pages: 1 -->
<svg width="1136pt" height="284pt"
 viewBox="0.00 0.00 1136.00 284.00" xmlns="http://www.w3.org/2000/svg" xmlns:xlink="http://www.w3.org/1999/xlink">
<g id="graph0" class="graph" transform="scale(1 1) rotate(0) translate(4 280)">
<title>dependencies</title>
<polygon fill="white" stroke="transparent" points="-4,4 -4,-280 1132,-280 1132,4 -4,4"/>
<text text-anchor="start" x="543.01" y="-42.4" font-family="Times-12" font-weight="bold" font-size="14.00">Legend</text>
<polygon fill="#ffffb3" stroke="transparent" points="330,-10 330,-30 350,-30 350,-10 330,-10"/>
<text text-anchor="start" x="353.63" y="-15.4" font-family="Times-12" font-size="14.00"> &#160;Declarations</text>
<polygon fill="#8dd3c7" stroke="transparent" points="443,-10 443,-30 463,-30 463,-10 443,-10"/>
<text text-anchor="start" x="466.73" y="-15.4" font-family="Times-12" font-size="14.00"> &#160;Module</text>
<polygon fill="#80b1d3" stroke="transparent" points="529,-10 529,-30 549,-30 549,-10 529,-10"/>
<text text-anchor="start" x="552.78" y="-15.4" font-family="Times-12" font-size="14.00"> &#160;Bootstrap</text>
<polygon fill="#fdb462" stroke="transparent" points="626,-10 626,-30 646,-30 646,-10 626,-10"/>
<text text-anchor="start" x="649.67" y="-15.4" font-family="Times-12" font-size="14.00"> &#160;Providers</text>
<polygon fill="#fb8072" stroke="transparent" points="722,-10 722,-30 742,-30 742,-10 722,-10"/>
<text text-anchor="start" x="745.73" y="-15.4" font-family="Times-12" font-size="14.00"> &#160;Exports</text>
<g id="clust1" class="cluster">
<title>cluster_CommonToolModule</title>
<polygon fill="none" stroke="black" stroke-dasharray="1,5" points="8,-70 8,-268 1120,-268 1120,-70 8,-70"/>
</g>
<g id="clust4" class="cluster">
<title>cluster_CommonToolModule_exports</title>
<polygon fill="none" stroke="black" points="267,-208 267,-260 1006,-260 1006,-208 267,-208"/>
</g>
<g id="clust3" class="cluster">
<title>cluster_CommonToolModule_imports</title>
<polygon fill="none" stroke="black" points="996,-78 996,-130 1112,-130 1112,-78 996,-78"/>
</g>
<g id="clust6" class="cluster">
<title>cluster_CommonToolModule_providers</title>
<polygon fill="none" stroke="black" points="16,-78 16,-130 988,-130 988,-78 16,-78"/>
</g>
<!-- LoggerModule -->
<g id="node1" class="node">
<title>LoggerModule</title>
<polygon fill="#8dd3c7" stroke="black" points="1103.98,-122 1100.98,-126 1079.98,-126 1076.98,-122 1004.02,-122 1004.02,-86 1103.98,-86 1103.98,-122"/>
<text text-anchor="middle" x="1054" y="-99.8" font-family="Times,serif" font-size="14.00">LoggerModule</text>
</g>
<!-- CommonToolModule -->
<g id="node2" class="node">
<title>CommonToolModule</title>
<polygon fill="#8dd3c7" stroke="black" points="708.11,-187 705.11,-191 684.11,-191 681.11,-187 569.89,-187 569.89,-151 708.11,-151 708.11,-187"/>
<text text-anchor="middle" x="639" y="-164.8" font-family="Times,serif" font-size="14.00">CommonToolModule</text>
</g>
<!-- LoggerModule&#45;&gt;CommonToolModule -->
<g id="edge1" class="edge">
<title>LoggerModule&#45;&gt;CommonToolModule</title>
<path fill="none" stroke="black" d="M1054,-122.11C1054,-141.34 1054,-169 1054,-169 1054,-169 718.46,-169 718.46,-169"/>
<polygon fill="black" stroke="black" points="718.46,-165.5 708.46,-169 718.46,-172.5 718.46,-165.5"/>
</g>
<!-- CommonToolService  -->
<g id="node3" class="node">
<title>CommonToolService </title>
<polygon fill="#fb8072" stroke="black" points="998.04,-252 857.96,-252 857.96,-216 998.04,-216 998.04,-252"/>
<text text-anchor="middle" x="928" y="-229.8" font-family="Times,serif" font-size="14.00">CommonToolService </text>
</g>
<!-- CommonToolModule&#45;&gt;CommonToolService  -->
<g id="edge2" class="edge">
<title>CommonToolModule&#45;&gt;CommonToolService </title>
<path fill="none" stroke="black" stroke-dasharray="5,2" d="M708.23,-178C791.17,-178 919.08,-178 919.08,-178 919.08,-178 919.08,-205.97 919.08,-205.97"/>
<polygon fill="black" stroke="black" points="915.58,-205.97 919.08,-215.97 922.58,-205.97 915.58,-205.97"/>
</g>
<!-- CommonToolValidationService  -->
<g id="node4" class="node">
<title>CommonToolValidationService </title>
<polygon fill="#fb8072" stroke="black" points="839.64,-252 640.36,-252 640.36,-216 839.64,-216 839.64,-252"/>
<text text-anchor="middle" x="740" y="-229.8" font-family="Times,serif" font-size="14.00">CommonToolValidationService </text>
</g>
<!-- CommonToolModule&#45;&gt;CommonToolValidationService  -->
<g id="edge3" class="edge">
<title>CommonToolModule&#45;&gt;CommonToolValidationService </title>
<path fill="none" stroke="black" stroke-dasharray="5,2" d="M674.24,-187.11C674.24,-187.11 674.24,-205.99 674.24,-205.99"/>
<polygon fill="black" stroke="black" points="670.74,-205.99 674.24,-215.99 677.74,-205.99 670.74,-205.99"/>
</g>
<!-- ContextExternalToolRepo  -->
<g id="node5" class="node">
<title>ContextExternalToolRepo </title>
<polygon fill="#fb8072" stroke="black" points="622.75,-252 455.25,-252 455.25,-216 622.75,-216 622.75,-252"/>
<text text-anchor="middle" x="539" y="-229.8" font-family="Times,serif" font-size="14.00">ContextExternalToolRepo </text>
</g>
<!-- CommonToolModule&#45;&gt;ContextExternalToolRepo  -->
<g id="edge4" class="edge">
<title>CommonToolModule&#45;&gt;ContextExternalToolRepo </title>
<path fill="none" stroke="black" stroke-dasharray="5,2" d="M596.28,-187.11C596.28,-187.11 596.28,-205.99 596.28,-205.99"/>
<polygon fill="black" stroke="black" points="592.78,-205.99 596.28,-215.99 599.78,-205.99 592.78,-205.99"/>
</g>
<!-- SchoolExternalToolRepo  -->
<g id="node6" class="node">
<title>SchoolExternalToolRepo </title>
<polygon fill="#fb8072" stroke="black" points="436.81,-252 275.19,-252 275.19,-216 436.81,-216 436.81,-252"/>
<text text-anchor="middle" x="356" y="-229.8" font-family="Times,serif" font-size="14.00">SchoolExternalToolRepo </text>
</g>
<!-- CommonToolModule&#45;&gt;SchoolExternalToolRepo  -->
<g id="edge5" class="edge">
<title>CommonToolModule&#45;&gt;SchoolExternalToolRepo </title>
<path fill="none" stroke="black" stroke-dasharray="5,2" d="M569.77,-178C485.99,-178 356,-178 356,-178 356,-178 356,-205.97 356,-205.97"/>
<polygon fill="black" stroke="black" points="352.5,-205.97 356,-215.97 359.5,-205.97 352.5,-205.97"/>
</g>
<!-- CommonToolService -->
<g id="node7" class="node">
<title>CommonToolService</title>
<ellipse fill="#fdb462" stroke="black" cx="886" cy="-104" rx="94.36" ry="18"/>
<text text-anchor="middle" x="886" y="-99.8" font-family="Times,serif" font-size="14.00">CommonToolService</text>
</g>
<!-- CommonToolService&#45;&gt;CommonToolModule -->
<g id="edge6" class="edge">
<title>CommonToolService&#45;&gt;CommonToolModule</title>
<path fill="none" stroke="black" d="M815.69,-116.15C815.69,-132.62 815.69,-160 815.69,-160 815.69,-160 718.07,-160 718.07,-160"/>
<polygon fill="black" stroke="black" points="718.07,-156.5 708.07,-160 718.07,-163.5 718.07,-156.5"/>
</g>
<!-- CommonToolValidationService -->
<g id="node8" class="node">
<title>CommonToolValidationService</title>
<ellipse fill="#fdb462" stroke="black" cx="639" cy="-104" rx="134.89" ry="18"/>
<text text-anchor="middle" x="639" y="-99.8" font-family="Times,serif" font-size="14.00">CommonToolValidationService</text>
</g>
<!-- CommonToolValidationService&#45;&gt;CommonToolModule -->
<g id="edge7" class="edge">
<title>CommonToolValidationService&#45;&gt;CommonToolModule</title>
<path fill="none" stroke="black" d="M639,-122.11C639,-122.11 639,-140.99 639,-140.99"/>
<polygon fill="black" stroke="black" points="635.5,-140.99 639,-150.99 642.5,-140.99 635.5,-140.99"/>
</g>
<!-- ContextExternalToolRepo -->
<g id="node9" class="node">
<title>ContextExternalToolRepo</title>
<ellipse fill="#fdb462" stroke="black" cx="373" cy="-104" rx="112.9" ry="18"/>
<text text-anchor="middle" x="373" y="-99.8" font-family="Times,serif" font-size="14.00">ContextExternalToolRepo</text>
</g>
<!-- ContextExternalToolRepo&#45;&gt;CommonToolModule -->
<g id="edge8" class="edge">
<title>ContextExternalToolRepo&#45;&gt;CommonToolModule</title>
<path fill="none" stroke="black" d="M470.66,-113.25C470.66,-129.15 470.66,-160 470.66,-160 470.66,-160 559.56,-160 559.56,-160"/>
<polygon fill="black" stroke="black" points="559.56,-163.5 569.56,-160 559.56,-156.5 559.56,-163.5"/>
</g>
<!-- SchoolExternalToolRepo -->
<g id="node10" class="node">
<title>SchoolExternalToolRepo</title>
<ellipse fill="#fdb462" stroke="black" cx="133" cy="-104" rx="109.39" ry="18"/>
<text text-anchor="middle" x="133" y="-99.8" font-family="Times,serif" font-size="14.00">SchoolExternalToolRepo</text>
</g>
<!-- SchoolExternalToolRepo&#45;&gt;CommonToolModule -->
<g id="edge9" class="edge">
<title>SchoolExternalToolRepo&#45;&gt;CommonToolModule</title>
<path fill="none" stroke="black" d="M133,-122.11C133,-141.34 133,-169 133,-169 133,-169 559.7,-169 559.7,-169"/>
<polygon fill="black" stroke="black" points="559.7,-172.5 569.7,-169 559.7,-165.5 559.7,-172.5"/>
</g>
</g>
</svg>
