<?xml version="1.0" encoding="UTF-8" standalone="no"?>
<!DOCTYPE svg PUBLIC "-//W3C//DTD SVG 1.1//EN"
 "http://www.w3.org/Graphics/SVG/1.1/DTD/svg11.dtd">
<!-- Generated by graphviz version 2.47.0 (20210316.0004)
 -->
<!-- Title: dependencies Pages: 1 -->
<svg width="848pt" height="284pt"
 viewBox="0.00 0.00 848.00 284.00" xmlns="http://www.w3.org/2000/svg" xmlns:xlink="http://www.w3.org/1999/xlink">
<g id="graph0" class="graph" transform="scale(1 1) rotate(0) translate(4 280)">
<title>dependencies</title>
<polygon fill="white" stroke="transparent" points="-4,4 -4,-280 844,-280 844,4 -4,4"/>
<text text-anchor="start" x="399.01" y="-42.4" font-family="Times-12" font-weight="bold" font-size="14.00">Legend</text>
<polygon fill="#ffffb3" stroke="transparent" points="186,-10 186,-30 206,-30 206,-10 186,-10"/>
<text text-anchor="start" x="209.63" y="-15.4" font-family="Times-12" font-size="14.00"> &#160;Declarations</text>
<polygon fill="#8dd3c7" stroke="transparent" points="299,-10 299,-30 319,-30 319,-10 299,-10"/>
<text text-anchor="start" x="322.73" y="-15.4" font-family="Times-12" font-size="14.00"> &#160;Module</text>
<polygon fill="#80b1d3" stroke="transparent" points="385,-10 385,-30 405,-30 405,-10 385,-10"/>
<text text-anchor="start" x="408.78" y="-15.4" font-family="Times-12" font-size="14.00"> &#160;Bootstrap</text>
<polygon fill="#fdb462" stroke="transparent" points="482,-10 482,-30 502,-30 502,-10 482,-10"/>
<text text-anchor="start" x="505.67" y="-15.4" font-family="Times-12" font-size="14.00"> &#160;Providers</text>
<polygon fill="#fb8072" stroke="transparent" points="578,-10 578,-30 598,-30 598,-10 578,-10"/>
<text text-anchor="start" x="601.73" y="-15.4" font-family="Times-12" font-size="14.00"> &#160;Exports</text>
<g id="clust1" class="cluster">
<title>cluster_CommonToolModule</title>
<polygon fill="none" stroke="black" stroke-dasharray="1,5" points="8,-70 8,-268 832,-268 832,-70 8,-70"/>
</g>
<g id="clust3" class="cluster">
<title>cluster_CommonToolModule_imports</title>
<polygon fill="none" stroke="black" points="708,-78 708,-130 824,-130 824,-78 708,-78"/>
</g>
<g id="clust4" class="cluster">
<title>cluster_CommonToolModule_exports</title>
<polygon fill="none" stroke="black" points="201,-208 201,-260 723,-260 723,-208 201,-208"/>
</g>
<g id="clust6" class="cluster">
<title>cluster_CommonToolModule_providers</title>
<polygon fill="none" stroke="black" points="16,-78 16,-130 700,-130 700,-78 16,-78"/>
</g>
<!-- LoggerModule -->
<g id="node1" class="node">
<title>LoggerModule</title>
<polygon fill="#8dd3c7" stroke="black" points="815.98,-122 812.98,-126 791.98,-126 788.98,-122 716.02,-122 716.02,-86 815.98,-86 815.98,-122"/>
<text text-anchor="middle" x="766" y="-99.8" font-family="Times,serif" font-size="14.00">LoggerModule</text>
</g>
<!-- CommonToolModule -->
<g id="node2" class="node">
<title>CommonToolModule</title>
<polygon fill="#8dd3c7" stroke="black" points="542.11,-187 539.11,-191 518.11,-191 515.11,-187 403.89,-187 403.89,-151 542.11,-151 542.11,-187"/>
<text text-anchor="middle" x="473" y="-164.8" font-family="Times,serif" font-size="14.00">CommonToolModule</text>
</g>
<!-- LoggerModule&#45;&gt;CommonToolModule -->
<g id="edge1" class="edge">
<title>LoggerModule&#45;&gt;CommonToolModule</title>
<path fill="none" stroke="black" d="M766,-122.02C766,-139.37 766,-163 766,-163 766,-163 552.07,-163 552.07,-163"/>
<polygon fill="black" stroke="black" points="552.07,-159.5 542.07,-163 552.07,-166.5 552.07,-159.5"/>
</g>
<!-- CommonToolService  -->
<g id="node3" class="node">
<title>CommonToolService </title>
<polygon fill="#fb8072" stroke="black" points="715.04,-252 574.96,-252 574.96,-216 715.04,-216 715.04,-252"/>
<text text-anchor="middle" x="645" y="-229.8" font-family="Times,serif" font-size="14.00">CommonToolService </text>
</g>
<!-- CommonToolModule&#45;&gt;CommonToolService  -->
<g id="edge2" class="edge">
<title>CommonToolModule&#45;&gt;CommonToolService </title>
<path fill="none" stroke="black" stroke-dasharray="5,2" d="M542.5,-175C585.9,-175 633.58,-175 633.58,-175 633.58,-175 633.58,-205.98 633.58,-205.98"/>
<polygon fill="black" stroke="black" points="630.08,-205.98 633.58,-215.98 637.08,-205.98 630.08,-205.98"/>
</g>
<!-- ContextExternalToolRepo  -->
<g id="node4" class="node">
<title>ContextExternalToolRepo </title>
<polygon fill="#fb8072" stroke="black" points="556.75,-252 389.25,-252 389.25,-216 556.75,-216 556.75,-252"/>
<text text-anchor="middle" x="473" y="-229.8" font-family="Times,serif" font-size="14.00">ContextExternalToolRepo </text>
</g>
<!-- CommonToolModule&#45;&gt;ContextExternalToolRepo  -->
<g id="edge3" class="edge">
<title>CommonToolModule&#45;&gt;ContextExternalToolRepo </title>
<path fill="none" stroke="black" stroke-dasharray="5,2" d="M473,-187.11C473,-187.11 473,-205.99 473,-205.99"/>
<polygon fill="black" stroke="black" points="469.5,-205.99 473,-215.99 476.5,-205.99 469.5,-205.99"/>
</g>
<!-- SchoolExternalToolRepo  -->
<g id="node5" class="node">
<title>SchoolExternalToolRepo </title>
<polygon fill="#fb8072" stroke="black" points="370.81,-252 209.19,-252 209.19,-216 370.81,-216 370.81,-252"/>
<text text-anchor="middle" x="290" y="-229.8" font-family="Times,serif" font-size="14.00">SchoolExternalToolRepo </text>
</g>
<!-- CommonToolModule&#45;&gt;SchoolExternalToolRepo  -->
<g id="edge4" class="edge">
<title>CommonToolModule&#45;&gt;SchoolExternalToolRepo </title>
<path fill="none" stroke="black" stroke-dasharray="5,2" d="M403.91,-175C361.58,-175 315.48,-175 315.48,-175 315.48,-175 315.48,-205.98 315.48,-205.98"/>
<polygon fill="black" stroke="black" points="311.98,-205.98 315.48,-215.98 318.98,-205.98 311.98,-205.98"/>
</g>
<!-- CommonToolService -->
<g id="node6" class="node">
<title>CommonToolService</title>
<ellipse fill="#fdb462" stroke="black" cx="598" cy="-104" rx="94.36" ry="18"/>
<text text-anchor="middle" x="598" y="-99.8" font-family="Times,serif" font-size="14.00">CommonToolService</text>
</g>
<!-- CommonToolService&#45;&gt;CommonToolModule -->
<g id="edge5" class="edge">
<title>CommonToolService&#45;&gt;CommonToolModule</title>
<path fill="none" stroke="black" d="M522.94,-115.03C522.94,-115.03 522.94,-140.78 522.94,-140.78"/>
<polygon fill="black" stroke="black" points="519.44,-140.78 522.94,-150.78 526.44,-140.78 519.44,-140.78"/>
</g>
<!-- ContextExternalToolRepo -->
<g id="node7" class="node">
<title>ContextExternalToolRepo</title>
<ellipse fill="#fdb462" stroke="black" cx="373" cy="-104" rx="112.9" ry="18"/>
<text text-anchor="middle" x="373" y="-99.8" font-family="Times,serif" font-size="14.00">ContextExternalToolRepo</text>
</g>
<!-- ContextExternalToolRepo&#45;&gt;CommonToolModule -->
<g id="edge6" class="edge">
<title>ContextExternalToolRepo&#45;&gt;CommonToolModule</title>
<path fill="none" stroke="black" d="M444.95,-118.1C444.95,-118.1 444.95,-140.72 444.95,-140.72"/>
<polygon fill="black" stroke="black" points="441.45,-140.72 444.95,-150.72 448.45,-140.72 441.45,-140.72"/>
</g>
<!-- SchoolExternalToolRepo -->
<g id="node8" class="node">
<title>SchoolExternalToolRepo</title>
<ellipse fill="#fdb462" stroke="black" cx="133" cy="-104" rx="109.39" ry="18"/>
<text text-anchor="middle" x="133" y="-99.8" font-family="Times,serif" font-size="14.00">SchoolExternalToolRepo</text>
</g>
<!-- SchoolExternalToolRepo&#45;&gt;CommonToolModule -->
<g id="edge7" class="edge">
<title>SchoolExternalToolRepo&#45;&gt;CommonToolModule</title>
<path fill="none" stroke="black" d="M225.65,-113.74C225.65,-130.5 225.65,-163 225.65,-163 225.65,-163 393.77,-163 393.77,-163"/>
<polygon fill="black" stroke="black" points="393.77,-166.5 403.77,-163 393.77,-159.5 393.77,-166.5"/>
</g>
</g>
</svg>
