<?xml version="1.0" encoding="UTF-8" standalone="no"?>
<!DOCTYPE svg PUBLIC "-//W3C//DTD SVG 1.1//EN"
 "http://www.w3.org/Graphics/SVG/1.1/DTD/svg11.dtd">
<!-- Generated by graphviz version 2.47.0 (20210316.0004)
 -->
<!-- Title: dependencies Pages: 1 -->
<svg width="1509pt" height="284pt"
 viewBox="0.00 0.00 1509.00 284.00" xmlns="http://www.w3.org/2000/svg" xmlns:xlink="http://www.w3.org/1999/xlink">
<g id="graph0" class="graph" transform="scale(1 1) rotate(0) translate(4 280)">
<title>dependencies</title>
<polygon fill="white" stroke="transparent" points="-4,4 -4,-280 1505,-280 1505,4 -4,4"/>
<text text-anchor="start" x="729.51" y="-42.4" font-family="Times-12" font-weight="bold" font-size="14.00">Legend</text>
<polygon fill="#ffffb3" stroke="transparent" points="516.5,-10 516.5,-30 536.5,-30 536.5,-10 516.5,-10"/>
<text text-anchor="start" x="540.13" y="-15.4" font-family="Times-12" font-size="14.00"> &#160;Declarations</text>
<polygon fill="#8dd3c7" stroke="transparent" points="629.5,-10 629.5,-30 649.5,-30 649.5,-10 629.5,-10"/>
<text text-anchor="start" x="653.23" y="-15.4" font-family="Times-12" font-size="14.00"> &#160;Module</text>
<polygon fill="#80b1d3" stroke="transparent" points="715.5,-10 715.5,-30 735.5,-30 735.5,-10 715.5,-10"/>
<text text-anchor="start" x="739.28" y="-15.4" font-family="Times-12" font-size="14.00"> &#160;Bootstrap</text>
<polygon fill="#fdb462" stroke="transparent" points="812.5,-10 812.5,-30 832.5,-30 832.5,-10 812.5,-10"/>
<text text-anchor="start" x="836.17" y="-15.4" font-family="Times-12" font-size="14.00"> &#160;Providers</text>
<polygon fill="#fb8072" stroke="transparent" points="908.5,-10 908.5,-30 928.5,-30 928.5,-10 908.5,-10"/>
<text text-anchor="start" x="932.23" y="-15.4" font-family="Times-12" font-size="14.00"> &#160;Exports</text>
<g id="clust1" class="cluster">
<title>cluster_CommonToolModule</title>
<polygon fill="none" stroke="black" stroke-dasharray="1,5" points="8,-70 8,-268 1493,-268 1493,-70 8,-70"/>
</g>
<g id="clust4" class="cluster">
<title>cluster_CommonToolModule_exports</title>
<polygon fill="none" stroke="black" points="418,-208 418,-260 1321,-260 1321,-208 418,-208"/>
</g>
<g id="clust3" class="cluster">
<title>cluster_CommonToolModule_imports</title>
<polygon fill="none" stroke="black" points="1211,-78 1211,-130 1485,-130 1485,-78 1211,-78"/>
</g>
<g id="clust6" class="cluster">
<title>cluster_CommonToolModule_providers</title>
<polygon fill="none" stroke="black" points="16,-78 16,-130 1203,-130 1203,-78 16,-78"/>
</g>
<!-- LegacySchoolModule -->
<g id="node1" class="node">
<title>LegacySchoolModule</title>
<polygon fill="#8dd3c7" stroke="black" points="1476.63,-122 1473.63,-126 1452.63,-126 1449.63,-122 1337.37,-122 1337.37,-86 1476.63,-86 1476.63,-122"/>
<text text-anchor="middle" x="1407" y="-99.8" font-family="Times,serif" font-size="14.00">LegacySchoolModule</text>
</g>
<!-- CommonToolModule -->
<g id="node3" class="node">
<title>CommonToolModule</title>
<polygon fill="#8dd3c7" stroke="black" points="923.11,-187 920.11,-191 899.11,-191 896.11,-187 784.89,-187 784.89,-151 923.11,-151 923.11,-187"/>
<text text-anchor="middle" x="854" y="-164.8" font-family="Times,serif" font-size="14.00">CommonToolModule</text>
</g>
<!-- LegacySchoolModule&#45;&gt;CommonToolModule -->
<g id="edge1" class="edge">
<title>LegacySchoolModule&#45;&gt;CommonToolModule</title>
<path fill="none" stroke="black" d="M1407,-122.11C1407,-141.34 1407,-169 1407,-169 1407,-169 933.2,-169 933.2,-169"/>
<polygon fill="black" stroke="black" points="933.2,-165.5 923.2,-169 933.2,-172.5 933.2,-165.5"/>
</g>
<!-- LoggerModule -->
<g id="node2" class="node">
<title>LoggerModule</title>
<polygon fill="#8dd3c7" stroke="black" points="1318.98,-122 1315.98,-126 1294.98,-126 1291.98,-122 1219.02,-122 1219.02,-86 1318.98,-86 1318.98,-122"/>
<text text-anchor="middle" x="1269" y="-99.8" font-family="Times,serif" font-size="14.00">LoggerModule</text>
</g>
<!-- LoggerModule&#45;&gt;CommonToolModule -->
<g id="edge2" class="edge">
<title>LoggerModule&#45;&gt;CommonToolModule</title>
<path fill="none" stroke="black" d="M1266.02,-122.02C1266.02,-139.37 1266.02,-163 1266.02,-163 1266.02,-163 933.43,-163 933.43,-163"/>
<polygon fill="black" stroke="black" points="933.43,-159.5 923.43,-163 933.43,-166.5 933.43,-159.5"/>
</g>
<!-- CommonToolService  -->
<g id="node4" class="node">
<title>CommonToolService </title>
<polygon fill="#fb8072" stroke="black" points="1313.04,-252 1172.96,-252 1172.96,-216 1313.04,-216 1313.04,-252"/>
<text text-anchor="middle" x="1243" y="-229.8" font-family="Times,serif" font-size="14.00">CommonToolService </text>
</g>
<!-- CommonToolModule&#45;&gt;CommonToolService  -->
<g id="edge3" class="edge">
<title>CommonToolModule&#45;&gt;CommonToolService </title>
<path fill="none" stroke="black" stroke-dasharray="5,2" d="M923.2,-175C1019.99,-175 1184.08,-175 1184.08,-175 1184.08,-175 1184.08,-205.98 1184.08,-205.98"/>
<polygon fill="black" stroke="black" points="1180.58,-205.98 1184.08,-215.98 1187.58,-205.98 1180.58,-205.98"/>
</g>
<!-- CommonToolValidationService  -->
<g id="node5" class="node">
<title>CommonToolValidationService </title>
<polygon fill="#fb8072" stroke="black" points="1154.64,-252 955.36,-252 955.36,-216 1154.64,-216 1154.64,-252"/>
<text text-anchor="middle" x="1055" y="-229.8" font-family="Times,serif" font-size="14.00">CommonToolValidationService </text>
</g>
<!-- CommonToolModule&#45;&gt;CommonToolValidationService  -->
<g id="edge4" class="edge">
<title>CommonToolModule&#45;&gt;CommonToolValidationService </title>
<path fill="none" stroke="black" stroke-dasharray="5,2" d="M923.09,-181C948.96,-181 972.19,-181 972.19,-181 972.19,-181 972.19,-205.76 972.19,-205.76"/>
<polygon fill="black" stroke="black" points="968.69,-205.76 972.19,-215.76 975.69,-205.76 968.69,-205.76"/>
</g>
<!-- ContextExternalToolRepo  -->
<g id="node6" class="node">
<title>ContextExternalToolRepo </title>
<polygon fill="#fb8072" stroke="black" points="937.75,-252 770.25,-252 770.25,-216 937.75,-216 937.75,-252"/>
<text text-anchor="middle" x="854" y="-229.8" font-family="Times,serif" font-size="14.00">ContextExternalToolRepo </text>
</g>
<!-- CommonToolModule&#45;&gt;ContextExternalToolRepo  -->
<g id="edge5" class="edge">
<title>CommonToolModule&#45;&gt;ContextExternalToolRepo </title>
<path fill="none" stroke="black" stroke-dasharray="5,2" d="M854,-187.11C854,-187.11 854,-205.99 854,-205.99"/>
<polygon fill="black" stroke="black" points="850.5,-205.99 854,-215.99 857.5,-205.99 850.5,-205.99"/>
</g>
<!-- SchoolExternalToolRepo  -->
<g id="node7" class="node">
<title>SchoolExternalToolRepo </title>
<polygon fill="#fb8072" stroke="black" points="751.81,-252 590.19,-252 590.19,-216 751.81,-216 751.81,-252"/>
<text text-anchor="middle" x="671" y="-229.8" font-family="Times,serif" font-size="14.00">SchoolExternalToolRepo </text>
</g>
<!-- CommonToolModule&#45;&gt;SchoolExternalToolRepo  -->
<g id="edge6" class="edge">
<title>CommonToolModule&#45;&gt;SchoolExternalToolRepo </title>
<path fill="none" stroke="black" stroke-dasharray="5,2" d="M784.71,-181C758.78,-181 735.48,-181 735.48,-181 735.48,-181 735.48,-205.76 735.48,-205.76"/>
<polygon fill="black" stroke="black" points="731.98,-205.76 735.48,-215.76 738.98,-205.76 731.98,-205.76"/>
</g>
<!-- ToolPermissionHelper  -->
<g id="node8" class="node">
<title>ToolPermissionHelper </title>
<polygon fill="#fb8072" stroke="black" points="572.25,-252 425.75,-252 425.75,-216 572.25,-216 572.25,-252"/>
<text text-anchor="middle" x="499" y="-229.8" font-family="Times,serif" font-size="14.00">ToolPermissionHelper </text>
</g>
<!-- CommonToolModule&#45;&gt;ToolPermissionHelper  -->
<g id="edge7" class="edge">
<title>CommonToolModule&#45;&gt;ToolPermissionHelper </title>
<path fill="none" stroke="black" stroke-dasharray="5,2" d="M784.73,-175C687.85,-175 523.59,-175 523.59,-175 523.59,-175 523.59,-205.98 523.59,-205.98"/>
<polygon fill="black" stroke="black" points="520.09,-205.98 523.59,-215.98 527.09,-205.98 520.09,-205.98"/>
</g>
<!-- CommonToolService -->
<g id="node9" class="node">
<title>CommonToolService</title>
<ellipse fill="#fdb462" stroke="black" cx="1101" cy="-104" rx="94.36" ry="18"/>
<text text-anchor="middle" x="1101" y="-99.8" font-family="Times,serif" font-size="14.00">CommonToolService</text>
</g>
<!-- CommonToolService&#45;&gt;CommonToolModule -->
<g id="edge8" class="edge">
<title>CommonToolService&#45;&gt;CommonToolModule</title>
<path fill="none" stroke="black" d="M1080.69,-121.65C1080.69,-137.07 1080.69,-157 1080.69,-157 1080.69,-157 933.25,-157 933.25,-157"/>
<polygon fill="black" stroke="black" points="933.25,-153.5 923.25,-157 933.25,-160.5 933.25,-153.5"/>
</g>
<!-- CommonToolValidationService -->
<g id="node10" class="node">
<title>CommonToolValidationService</title>
<ellipse fill="#fdb462" stroke="black" cx="854" cy="-104" rx="134.89" ry="18"/>
<text text-anchor="middle" x="854" y="-99.8" font-family="Times,serif" font-size="14.00">CommonToolValidationService</text>
</g>
<!-- CommonToolValidationService&#45;&gt;CommonToolModule -->
<g id="edge9" class="edge">
<title>CommonToolValidationService&#45;&gt;CommonToolModule</title>
<path fill="none" stroke="black" d="M854,-122.11C854,-122.11 854,-140.99 854,-140.99"/>
<polygon fill="black" stroke="black" points="850.5,-140.99 854,-150.99 857.5,-140.99 850.5,-140.99"/>
</g>
<!-- ContextExternalToolRepo -->
<g id="node11" class="node">
<title>ContextExternalToolRepo</title>
<ellipse fill="#fdb462" stroke="black" cx="588" cy="-104" rx="112.9" ry="18"/>
<text text-anchor="middle" x="588" y="-99.8" font-family="Times,serif" font-size="14.00">ContextExternalToolRepo</text>
</g>
<!-- ContextExternalToolRepo&#45;&gt;CommonToolModule -->
<g id="edge10" class="edge">
<title>ContextExternalToolRepo&#45;&gt;CommonToolModule</title>
<path fill="none" stroke="black" d="M645.52,-119.62C645.52,-135.25 645.52,-157 645.52,-157 645.52,-157 774.87,-157 774.87,-157"/>
<polygon fill="black" stroke="black" points="774.87,-160.5 784.87,-157 774.87,-153.5 774.87,-160.5"/>
</g>
<!-- SchoolExternalToolRepo -->
<g id="node12" class="node">
<title>SchoolExternalToolRepo</title>
<ellipse fill="#fdb462" stroke="black" cx="348" cy="-104" rx="109.39" ry="18"/>
<text text-anchor="middle" x="348" y="-99.8" font-family="Times,serif" font-size="14.00">SchoolExternalToolRepo</text>
</g>
<!-- SchoolExternalToolRepo&#45;&gt;CommonToolModule -->
<g id="edge11" class="edge">
<title>SchoolExternalToolRepo&#45;&gt;CommonToolModule</title>
<path fill="none" stroke="black" d="M441.54,-113.48C441.54,-130.16 441.54,-163 441.54,-163 441.54,-163 774.5,-163 774.5,-163"/>
<polygon fill="black" stroke="black" points="774.5,-166.5 784.5,-163 774.5,-159.5 774.5,-166.5"/>
</g>
<!-- ToolPermissionHelper -->
<g id="node13" class="node">
<title>ToolPermissionHelper</title>
<ellipse fill="#fdb462" stroke="black" cx="122" cy="-104" rx="98.43" ry="18"/>
<text text-anchor="middle" x="122" y="-99.8" font-family="Times,serif" font-size="14.00">ToolPermissionHelper</text>
</g>
<!-- ToolPermissionHelper&#45;&gt;CommonToolModule -->
<g id="edge12" class="edge">
<title>ToolPermissionHelper&#45;&gt;CommonToolModule</title>
<path fill="none" stroke="black" d="M122,-122.11C122,-141.34 122,-169 122,-169 122,-169 774.81,-169 774.81,-169"/>
<polygon fill="black" stroke="black" points="774.81,-172.5 784.81,-169 774.81,-165.5 774.81,-172.5"/>
</g>
</g>
</svg>
