<?xml version="1.0" encoding="UTF-8" standalone="no"?>
<!DOCTYPE svg PUBLIC "-//W3C//DTD SVG 1.1//EN"
 "http://www.w3.org/Graphics/SVG/1.1/DTD/svg11.dtd">
<!-- Generated by graphviz version 2.47.0 (20210316.0004)
 -->
<!-- Title: dependencies Pages: 1 -->
<svg width="1509pt" height="284pt"
 viewBox="0.00 0.00 1509.00 284.00" xmlns="http://www.w3.org/2000/svg" xmlns:xlink="http://www.w3.org/1999/xlink">
<g id="graph0" class="graph" transform="scale(1 1) rotate(0) translate(4 280)">
<title>dependencies</title>
<polygon fill="white" stroke="transparent" points="-4,4 -4,-280 1505,-280 1505,4 -4,4"/>
<text text-anchor="start" x="729.51" y="-42.4" font-family="Times-12" font-weight="bold" font-size="14.00">Legend</text>
<polygon fill="#ffffb3" stroke="transparent" points="516.5,-10 516.5,-30 536.5,-30 536.5,-10 516.5,-10"/>
<text text-anchor="start" x="540.13" y="-15.4" font-family="Times-12" font-size="14.00"> &#160;Declarations</text>
<polygon fill="#8dd3c7" stroke="transparent" points="629.5,-10 629.5,-30 649.5,-30 649.5,-10 629.5,-10"/>
<text text-anchor="start" x="653.23" y="-15.4" font-family="Times-12" font-size="14.00"> &#160;Module</text>
<polygon fill="#80b1d3" stroke="transparent" points="715.5,-10 715.5,-30 735.5,-30 735.5,-10 715.5,-10"/>
<text text-anchor="start" x="739.28" y="-15.4" font-family="Times-12" font-size="14.00"> &#160;Bootstrap</text>
<polygon fill="#fdb462" stroke="transparent" points="812.5,-10 812.5,-30 832.5,-30 832.5,-10 812.5,-10"/>
<text text-anchor="start" x="836.17" y="-15.4" font-family="Times-12" font-size="14.00"> &#160;Providers</text>
<polygon fill="#fb8072" stroke="transparent" points="908.5,-10 908.5,-30 928.5,-30 928.5,-10 908.5,-10"/>
<text text-anchor="start" x="932.23" y="-15.4" font-family="Times-12" font-size="14.00"> &#160;Exports</text>
<g id="clust1" class="cluster">
<title>cluster_CommonToolModule</title>
<polygon fill="none" stroke="black" stroke-dasharray="1,5" points="8,-70 8,-268 1493,-268 1493,-70 8,-70"/>
</g>
<g id="clust4" class="cluster">
<title>cluster_CommonToolModule_exports</title>
<polygon fill="none" stroke="black" points="194,-208 194,-260 1097,-260 1097,-208 194,-208"/>
</g>
<g id="clust6" class="cluster">
<title>cluster_CommonToolModule_providers</title>
<polygon fill="none" stroke="black" points="298,-78 298,-130 1485,-130 1485,-78 298,-78"/>
</g>
<g id="clust3" class="cluster">
<title>cluster_CommonToolModule_imports</title>
<polygon fill="none" stroke="black" points="16,-78 16,-130 290,-130 290,-78 16,-78"/>
</g>
<!-- LegacySchoolModule -->
<g id="node1" class="node">
<title>LegacySchoolModule</title>
<polygon fill="#8dd3c7" stroke="black" points="281.63,-122 278.63,-126 257.63,-126 254.63,-122 142.37,-122 142.37,-86 281.63,-86 281.63,-122"/>
<text text-anchor="middle" x="212" y="-99.8" font-family="Times,serif" font-size="14.00">LegacySchoolModule</text>
</g>
<!-- CommonToolModule -->
<g id="node3" class="node">
<title>CommonToolModule</title>
<polygon fill="#8dd3c7" stroke="black" points="699.11,-187 696.11,-191 675.11,-191 672.11,-187 560.89,-187 560.89,-151 699.11,-151 699.11,-187"/>
<text text-anchor="middle" x="630" y="-164.8" font-family="Times,serif" font-size="14.00">CommonToolModule</text>
</g>
<!-- LegacySchoolModule&#45;&gt;CommonToolModule -->
<g id="edge1" class="edge">
<title>LegacySchoolModule&#45;&gt;CommonToolModule</title>
<path fill="none" stroke="black" d="M241.85,-122.02C241.85,-139.37 241.85,-163 241.85,-163 241.85,-163 550.61,-163 550.61,-163"/>
<polygon fill="black" stroke="black" points="550.61,-166.5 560.61,-163 550.61,-159.5 550.61,-166.5"/>
</g>
<!-- LoggerModule -->
<g id="node2" class="node">
<title>LoggerModule</title>
<polygon fill="#8dd3c7" stroke="black" points="123.98,-122 120.98,-126 99.98,-126 96.98,-122 24.02,-122 24.02,-86 123.98,-86 123.98,-122"/>
<text text-anchor="middle" x="74" y="-99.8" font-family="Times,serif" font-size="14.00">LoggerModule</text>
</g>
<!-- LoggerModule&#45;&gt;CommonToolModule -->
<g id="edge2" class="edge">
<title>LoggerModule&#45;&gt;CommonToolModule</title>
<path fill="none" stroke="black" d="M74,-122.11C74,-141.34 74,-169 74,-169 74,-169 550.71,-169 550.71,-169"/>
<polygon fill="black" stroke="black" points="550.71,-172.5 560.71,-169 550.71,-165.5 550.71,-172.5"/>
</g>
<!-- CommonToolService  -->
<g id="node4" class="node">
<title>CommonToolService </title>
<polygon fill="#fb8072" stroke="black" points="1089.04,-252 948.96,-252 948.96,-216 1089.04,-216 1089.04,-252"/>
<text text-anchor="middle" x="1019" y="-229.8" font-family="Times,serif" font-size="14.00">CommonToolService </text>
</g>
<!-- CommonToolModule&#45;&gt;CommonToolService  -->
<g id="edge3" class="edge">
<title>CommonToolModule&#45;&gt;CommonToolService </title>
<path fill="none" stroke="black" stroke-dasharray="5,2" d="M699.21,-175C797.55,-175 965.97,-175 965.97,-175 965.97,-175 965.97,-205.98 965.97,-205.98"/>
<polygon fill="black" stroke="black" points="962.47,-205.98 965.97,-215.98 969.47,-205.98 962.47,-205.98"/>
</g>
<!-- CommonToolValidationService  -->
<g id="node5" class="node">
<title>CommonToolValidationService </title>
<polygon fill="#fb8072" stroke="black" points="930.64,-252 731.36,-252 731.36,-216 930.64,-216 930.64,-252"/>
<text text-anchor="middle" x="831" y="-229.8" font-family="Times,serif" font-size="14.00">CommonToolValidationService </text>
</g>
<!-- CommonToolModule&#45;&gt;CommonToolValidationService  -->
<g id="edge4" class="edge">
<title>CommonToolModule&#45;&gt;CommonToolValidationService </title>
<path fill="none" stroke="black" stroke-dasharray="5,2" d="M699.07,-181C718.92,-181 735.31,-181 735.31,-181 735.31,-181 735.31,-205.76 735.31,-205.76"/>
<polygon fill="black" stroke="black" points="731.81,-205.76 735.31,-215.76 738.81,-205.76 731.81,-205.76"/>
</g>
<!-- ContextExternalToolRepo  -->
<g id="node6" class="node">
<title>ContextExternalToolRepo </title>
<polygon fill="#fb8072" stroke="black" points="713.75,-252 546.25,-252 546.25,-216 713.75,-216 713.75,-252"/>
<text text-anchor="middle" x="630" y="-229.8" font-family="Times,serif" font-size="14.00">ContextExternalToolRepo </text>
</g>
<!-- CommonToolModule&#45;&gt;ContextExternalToolRepo  -->
<g id="edge5" class="edge">
<title>CommonToolModule&#45;&gt;ContextExternalToolRepo </title>
<path fill="none" stroke="black" stroke-dasharray="5,2" d="M630,-187.11C630,-187.11 630,-205.99 630,-205.99"/>
<polygon fill="black" stroke="black" points="626.5,-205.99 630,-215.99 633.5,-205.99 626.5,-205.99"/>
</g>
<!-- SchoolExternalToolRepo  -->
<g id="node7" class="node">
<title>SchoolExternalToolRepo </title>
<polygon fill="#fb8072" stroke="black" points="527.81,-252 366.19,-252 366.19,-216 527.81,-216 527.81,-252"/>
<text text-anchor="middle" x="447" y="-229.8" font-family="Times,serif" font-size="14.00">SchoolExternalToolRepo </text>
</g>
<!-- CommonToolModule&#45;&gt;SchoolExternalToolRepo  -->
<g id="edge6" class="edge">
<title>CommonToolModule&#45;&gt;SchoolExternalToolRepo </title>
<path fill="none" stroke="black" stroke-dasharray="5,2" d="M560.71,-181C540.8,-181 524.35,-181 524.35,-181 524.35,-181 524.35,-205.76 524.35,-205.76"/>
<polygon fill="black" stroke="black" points="520.85,-205.76 524.35,-215.76 527.85,-205.76 520.85,-205.76"/>
</g>
<!-- ToolPermissionHelper  -->
<g id="node8" class="node">
<title>ToolPermissionHelper </title>
<polygon fill="#fb8072" stroke="black" points="348.25,-252 201.75,-252 201.75,-216 348.25,-216 348.25,-252"/>
<text text-anchor="middle" x="275" y="-229.8" font-family="Times,serif" font-size="14.00">ToolPermissionHelper </text>
</g>
<!-- CommonToolModule&#45;&gt;ToolPermissionHelper  -->
<g id="edge7" class="edge">
<title>CommonToolModule&#45;&gt;ToolPermissionHelper </title>
<path fill="none" stroke="black" stroke-dasharray="5,2" d="M560.83,-175C471.35,-175 326.83,-175 326.83,-175 326.83,-175 326.83,-205.98 326.83,-205.98"/>
<polygon fill="black" stroke="black" points="323.33,-205.98 326.83,-215.98 330.33,-205.98 323.33,-205.98"/>
</g>
<!-- CommonToolService -->
<g id="node9" class="node">
<title>CommonToolService</title>
<ellipse fill="#fdb462" stroke="black" cx="1383" cy="-104" rx="94.36" ry="18"/>
<text text-anchor="middle" x="1383" y="-99.8" font-family="Times,serif" font-size="14.00">CommonToolService</text>
</g>
<!-- CommonToolService&#45;&gt;CommonToolModule -->
<g id="edge8" class="edge">
<title>CommonToolService&#45;&gt;CommonToolModule</title>
<path fill="none" stroke="black" d="M1383,-122.11C1383,-141.34 1383,-169 1383,-169 1383,-169 709.15,-169 709.15,-169"/>
<polygon fill="black" stroke="black" points="709.16,-165.5 699.15,-169 709.15,-172.5 709.16,-165.5"/>
</g>
<!-- CommonToolValidationService -->
<g id="node10" class="node">
<title>CommonToolValidationService</title>
<ellipse fill="#fdb462" stroke="black" cx="1136" cy="-104" rx="134.89" ry="18"/>
<text text-anchor="middle" x="1136" y="-99.8" font-family="Times,serif" font-size="14.00">CommonToolValidationService</text>
</g>
<!-- CommonToolValidationService&#45;&gt;CommonToolModule -->
<g id="edge9" class="edge">
<title>CommonToolValidationService&#45;&gt;CommonToolModule</title>
<path fill="none" stroke="black" d="M1045.04,-117.39C1045.04,-134.8 1045.04,-163 1045.04,-163 1045.04,-163 709.47,-163 709.47,-163"/>
<polygon fill="black" stroke="black" points="709.47,-159.5 699.47,-163 709.47,-166.5 709.47,-159.5"/>
</g>
<!-- ContextExternalToolRepo -->
<g id="node11" class="node">
<title>ContextExternalToolRepo</title>
<ellipse fill="#fdb462" stroke="black" cx="870" cy="-104" rx="112.9" ry="18"/>
<text text-anchor="middle" x="870" y="-99.8" font-family="Times,serif" font-size="14.00">ContextExternalToolRepo</text>
</g>
<!-- ContextExternalToolRepo&#45;&gt;CommonToolModule -->
<g id="edge10" class="edge">
<title>ContextExternalToolRepo&#45;&gt;CommonToolModule</title>
<path fill="none" stroke="black" d="M843.81,-121.65C843.81,-137.07 843.81,-157 843.81,-157 843.81,-157 709.12,-157 709.12,-157"/>
<polygon fill="black" stroke="black" points="709.12,-153.5 699.12,-157 709.12,-160.5 709.12,-153.5"/>
</g>
<!-- SchoolExternalToolRepo -->
<g id="node12" class="node">
<title>SchoolExternalToolRepo</title>
<ellipse fill="#fdb462" stroke="black" cx="630" cy="-104" rx="109.39" ry="18"/>
<text text-anchor="middle" x="630" y="-99.8" font-family="Times,serif" font-size="14.00">SchoolExternalToolRepo</text>
</g>
<!-- SchoolExternalToolRepo&#45;&gt;CommonToolModule -->
<g id="edge11" class="edge">
<title>SchoolExternalToolRepo&#45;&gt;CommonToolModule</title>
<path fill="none" stroke="black" d="M630,-122.11C630,-122.11 630,-140.99 630,-140.99"/>
<polygon fill="black" stroke="black" points="626.5,-140.99 630,-150.99 633.5,-140.99 626.5,-140.99"/>
</g>
<!-- ToolPermissionHelper -->
<g id="node13" class="node">
<title>ToolPermissionHelper</title>
<ellipse fill="#fdb462" stroke="black" cx="404" cy="-104" rx="98.43" ry="18"/>
<text text-anchor="middle" x="404" y="-99.8" font-family="Times,serif" font-size="14.00">ToolPermissionHelper</text>
</g>
<!-- ToolPermissionHelper&#45;&gt;CommonToolModule -->
<g id="edge12" class="edge">
<title>ToolPermissionHelper&#45;&gt;CommonToolModule</title>
<path fill="none" stroke="black" d="M434.28,-121.35C434.28,-136.81 434.28,-157 434.28,-157 434.28,-157 550.72,-157 550.72,-157"/>
<polygon fill="black" stroke="black" points="550.72,-160.5 560.72,-157 550.72,-153.5 550.72,-160.5"/>
</g>
</g>
</svg>
