<?xml version="1.0" encoding="UTF-8" standalone="no"?>
<!DOCTYPE svg PUBLIC "-//W3C//DTD SVG 1.1//EN"
 "http://www.w3.org/Graphics/SVG/1.1/DTD/svg11.dtd">
<!-- Generated by graphviz version 2.47.0 (20210316.0004)
 -->
<!-- Title: dependencies Pages: 1 -->
<svg width="504pt" height="211pt"
 viewBox="0.00 0.00 504.00 211.00" xmlns="http://www.w3.org/2000/svg" xmlns:xlink="http://www.w3.org/1999/xlink">
<g id="graph0" class="graph" transform="scale(1 1) rotate(0) translate(4 207)">
<title>dependencies</title>
<polygon fill="white" stroke="transparent" points="-4,4 -4,-207 500,-207 500,4 -4,4"/>
<text text-anchor="start" x="227.01" y="-42.4" font-family="Times-12" font-weight="bold" font-size="14.00">Legend</text>
<polygon fill="#ffffb3" stroke="transparent" points="14,-10 14,-30 34,-30 34,-10 14,-10"/>
<text text-anchor="start" x="37.63" y="-15.4" font-family="Times-12" font-size="14.00"> &#160;Declarations</text>
<polygon fill="#8dd3c7" stroke="transparent" points="127,-10 127,-30 147,-30 147,-10 127,-10"/>
<text text-anchor="start" x="150.73" y="-15.4" font-family="Times-12" font-size="14.00"> &#160;Module</text>
<polygon fill="#80b1d3" stroke="transparent" points="213,-10 213,-30 233,-30 233,-10 213,-10"/>
<text text-anchor="start" x="236.78" y="-15.4" font-family="Times-12" font-size="14.00"> &#160;Bootstrap</text>
<polygon fill="#fdb462" stroke="transparent" points="310,-10 310,-30 330,-30 330,-10 310,-10"/>
<text text-anchor="start" x="333.67" y="-15.4" font-family="Times-12" font-size="14.00"> &#160;Providers</text>
<polygon fill="#fb8072" stroke="transparent" points="406,-10 406,-30 426,-30 426,-10 406,-10"/>
<text text-anchor="start" x="429.73" y="-15.4" font-family="Times-12" font-size="14.00"> &#160;Exports</text>
<g id="clust1" class="cluster">
<title>cluster_AuthenticationApiModule</title>
<polygon fill="none" stroke="black" stroke-dasharray="1,5" points="104,-70 104,-195 392,-195 392,-70 104,-70"/>
</g>
<g id="clust3" class="cluster">
<title>cluster_AuthenticationApiModule_imports</title>
<polygon fill="none" stroke="black" points="226,-78 226,-130 384,-130 384,-78 226,-78"/>
</g>
<g id="clust6" class="cluster">
<title>cluster_AuthenticationApiModule_providers</title>
<polygon fill="none" stroke="black" points="112,-78 112,-130 218,-130 218,-78 112,-78"/>
</g>
<!-- AuthenticationModule -->
<g id="node1" class="node">
<title>AuthenticationModule</title>
<polygon fill="#8dd3c7" stroke="black" points="376.25,-122 373.25,-126 352.25,-126 349.25,-122 233.75,-122 233.75,-86 376.25,-86 376.25,-122"/>
<text text-anchor="middle" x="305" y="-99.8" font-family="Times,serif" font-size="14.00">AuthenticationModule</text>
</g>
<!-- AuthenticationApiModule -->
<g id="node2" class="node">
<title>AuthenticationApiModule</title>
<polygon fill="#8dd3c7" stroke="black" points="329.75,-187 326.75,-191 305.75,-191 302.75,-187 166.25,-187 166.25,-151 329.75,-151 329.75,-187"/>
<text text-anchor="middle" x="248" y="-164.8" font-family="Times,serif" font-size="14.00">AuthenticationApiModule</text>
</g>
<!-- AuthenticationModule&#45;&gt;AuthenticationApiModule -->
<g id="edge1" class="edge">
<title>AuthenticationModule&#45;&gt;AuthenticationApiModule</title>
<path fill="none" stroke="black" d="M281.75,-122.11C281.75,-122.11 281.75,-140.99 281.75,-140.99"/>
<polygon fill="black" stroke="black" points="278.25,-140.99 281.75,-150.99 285.25,-140.99 278.25,-140.99"/>
</g>
<!-- LoginUc -->
<g id="node3" class="node">
<title>LoginUc</title>
<ellipse fill="#fdb462" stroke="black" cx="165" cy="-104" rx="45.23" ry="18"/>
<text text-anchor="middle" x="165" y="-99.8" font-family="Times,serif" font-size="14.00">LoginUc</text>
</g>
<!-- LoginUc&#45;&gt;AuthenticationApiModule -->
<g id="edge2" class="edge">
<title>LoginUc&#45;&gt;AuthenticationApiModule</title>
<path fill="none" stroke="black" d="M188.24,-119.73C188.24,-119.73 188.24,-140.65 188.24,-140.65"/>
<polygon fill="black" stroke="black" points="184.74,-140.65 188.24,-150.65 191.74,-140.65 184.74,-140.65"/>
</g>
</g>
</svg>
