<?xml version="1.0" encoding="UTF-8" standalone="no"?>
<!DOCTYPE svg PUBLIC "-//W3C//DTD SVG 1.1//EN"
 "http://www.w3.org/Graphics/SVG/1.1/DTD/svg11.dtd">
<!-- Generated by graphviz version 5.0.0 (20220707.1540)
 -->
<!-- Title: dependencies Pages: 1 -->
<svg width="312pt" height="174pt"
 viewBox="0.00 0.00 312.00 173.80" xmlns="http://www.w3.org/2000/svg" xmlns:xlink="http://www.w3.org/1999/xlink">
<g id="graph0" class="graph" transform="scale(1 1) rotate(0) translate(4 169.8)">
<title>dependencies</title>
<polygon fill="white" stroke="transparent" points="-4,4 -4,-169.8 308,-169.8 308,4 -4,4"/>
<text text-anchor="middle" x="152" y="-8.2" font-family="sans-serif" font-size="14.00">dependencies</text>
<g id="clust1" class="cluster">
<title>cluster_AuthenticationApiModule</title>
<polygon fill="none" stroke="black" stroke-dasharray="1,5" points="8,-32.8 8,-157.8 296,-157.8 296,-32.8 8,-32.8"/>
</g>
<g id="clust3" class="cluster">
<title>cluster_AuthenticationApiModule_imports</title>
<polygon fill="none" stroke="black" points="130,-40.8 130,-92.8 288,-92.8 288,-40.8 130,-40.8"/>
</g>
<g id="clust6" class="cluster">
<title>cluster_AuthenticationApiModule_providers</title>
<polygon fill="none" stroke="black" points="16,-40.8 16,-92.8 122,-92.8 122,-40.8 16,-40.8"/>
</g>
<!-- AuthenticationModule -->
<g id="node1" class="node">
<title>AuthenticationModule</title>
<polygon fill="#8dd3c7" stroke="black" points="280.25,-84.8 277.25,-88.8 256.25,-88.8 253.25,-84.8 137.75,-84.8 137.75,-48.8 280.25,-48.8 280.25,-84.8"/>
<text text-anchor="middle" x="209" y="-62.6" font-family="Times,serif" font-size="14.00">AuthenticationModule</text>
</g>
<!-- AuthenticationApiModule -->
<g id="node2" class="node">
<title>AuthenticationApiModule</title>
<polygon fill="#8dd3c7" stroke="black" points="233.75,-149.8 230.75,-153.8 209.75,-153.8 206.75,-149.8 70.25,-149.8 70.25,-113.8 233.75,-113.8 233.75,-149.8"/>
<text text-anchor="middle" x="152" y="-127.6" font-family="Times,serif" font-size="14.00">AuthenticationApiModule</text>
</g>
<!-- AuthenticationModule&#45;&gt;AuthenticationApiModule -->
<g id="edge1" class="edge">
<title>AuthenticationModule&#45;&gt;AuthenticationApiModule</title>
<path fill="none" stroke="black" d="M185.75,-84.91C185.75,-84.91 185.75,-103.79 185.75,-103.79"/>
<polygon fill="black" stroke="black" points="182.25,-103.79 185.75,-113.79 189.25,-103.79 182.25,-103.79"/>
</g>
<!-- LoginUc -->
<g id="node3" class="node">
<title>LoginUc</title>
<ellipse fill="#fdb462" stroke="black" cx="69" cy="-66.8" rx="45.23" ry="18"/>
<text text-anchor="middle" x="69" y="-62.6" font-family="Times,serif" font-size="14.00">LoginUc</text>
</g>
<!-- LoginUc&#45;&gt;AuthenticationApiModule -->
<g id="edge2" class="edge">
<title>LoginUc&#45;&gt;AuthenticationApiModule</title>
<path fill="none" stroke="black" d="M92.24,-82.53C92.24,-82.53 92.24,-103.45 92.24,-103.45"/>
<polygon fill="black" stroke="black" points="88.74,-103.45 92.24,-113.45 95.74,-103.45 88.74,-103.45"/>
</g>
</g>
</svg>
