<?xml version="1.0" encoding="UTF-8" standalone="no"?>
<!DOCTYPE svg PUBLIC "-//W3C//DTD SVG 1.1//EN"
 "http://www.w3.org/Graphics/SVG/1.1/DTD/svg11.dtd">
<!-- Generated by graphviz version 2.47.0 (20210316.0004)
 -->
<!-- Title: dependencies Pages: 1 -->
<svg width="4099pt" height="211pt"
 viewBox="0.00 0.00 4099.00 211.00" xmlns="http://www.w3.org/2000/svg" xmlns:xlink="http://www.w3.org/1999/xlink">
<g id="graph0" class="graph" transform="scale(1 1) rotate(0) translate(4 207)">
<title>dependencies</title>
<polygon fill="white" stroke="transparent" points="-4,4 -4,-207 4095,-207 4095,4 -4,4"/>
<text text-anchor="start" x="2024.51" y="-42.4" font-family="Times-12" font-weight="bold" font-size="14.00">Legend</text>
<polygon fill="#ffffb3" stroke="transparent" points="1811.5,-10 1811.5,-30 1831.5,-30 1831.5,-10 1811.5,-10"/>
<text text-anchor="start" x="1835.13" y="-15.4" font-family="Times-12" font-size="14.00"> &#160;Declarations</text>
<polygon fill="#8dd3c7" stroke="transparent" points="1924.5,-10 1924.5,-30 1944.5,-30 1944.5,-10 1924.5,-10"/>
<text text-anchor="start" x="1948.23" y="-15.4" font-family="Times-12" font-size="14.00"> &#160;Module</text>
<polygon fill="#80b1d3" stroke="transparent" points="2010.5,-10 2010.5,-30 2030.5,-30 2030.5,-10 2010.5,-10"/>
<text text-anchor="start" x="2034.28" y="-15.4" font-family="Times-12" font-size="14.00"> &#160;Bootstrap</text>
<polygon fill="#fdb462" stroke="transparent" points="2107.5,-10 2107.5,-30 2127.5,-30 2127.5,-10 2107.5,-10"/>
<text text-anchor="start" x="2131.17" y="-15.4" font-family="Times-12" font-size="14.00"> &#160;Providers</text>
<polygon fill="#fb8072" stroke="transparent" points="2203.5,-10 2203.5,-30 2223.5,-30 2223.5,-10 2203.5,-10"/>
<text text-anchor="start" x="2227.23" y="-15.4" font-family="Times-12" font-size="14.00"> &#160;Exports</text>
<g id="clust1" class="cluster">
<title>cluster_ServerModule</title>
<polygon fill="none" stroke="black" stroke-dasharray="1,5" points="8,-70 8,-195 4083,-195 4083,-70 8,-70"/>
</g>
<g id="clust3" class="cluster">
<title>cluster_ServerModule_imports</title>
<polygon fill="none" stroke="black" points="16,-78 16,-130 4075,-130 4075,-78 16,-78"/>
</g>
<!-- AccountApiModule -->
<g id="node1" class="node">
<title>AccountApiModule</title>
<polygon fill="#8dd3c7" stroke="black" points="4066.97,-122 4063.97,-126 4042.97,-126 4039.97,-122 3939.03,-122 3939.03,-86 4066.97,-86 4066.97,-122"/>
<text text-anchor="middle" x="4003" y="-99.8" font-family="Times,serif" font-size="14.00">AccountApiModule</text>
</g>
<!-- ServerModule -->
<g id="node29" class="node">
<title>ServerModule</title>
<polygon fill="#8dd3c7" stroke="black" points="2115.08,-187 2112.08,-191 2091.08,-191 2088.08,-187 2018.92,-187 2018.92,-151 2115.08,-151 2115.08,-187"/>
<text text-anchor="middle" x="2067" y="-164.8" font-family="Times,serif" font-size="14.00">ServerModule</text>
</g>
<!-- AccountApiModule&#45;&gt;ServerModule -->
<g id="edge1" class="edge">
<title>AccountApiModule&#45;&gt;ServerModule</title>
<path fill="none" stroke="black" d="M4003,-122.38C4003,-146.28 4003,-185 4003,-185 4003,-185 2125.34,-185 2125.34,-185"/>
<polygon fill="black" stroke="black" points="2125.34,-181.5 2115.34,-185 2125.34,-188.5 2125.34,-181.5"/>
</g>
<!-- AuthenticationApiModule -->
<g id="node2" class="node">
<title>AuthenticationApiModule</title>
<polygon fill="#8dd3c7" stroke="black" points="3920.75,-122 3917.75,-126 3896.75,-126 3893.75,-122 3757.25,-122 3757.25,-86 3920.75,-86 3920.75,-122"/>
<text text-anchor="middle" x="3839" y="-99.8" font-family="Times,serif" font-size="14.00">AuthenticationApiModule</text>
</g>
<!-- AuthenticationApiModule&#45;&gt;ServerModule -->
<g id="edge2" class="edge">
<title>AuthenticationApiModule&#45;&gt;ServerModule</title>
<path fill="none" stroke="black" d="M3839,-122.09C3839,-145.13 3839,-182 3839,-182 3839,-182 2125.32,-182 2125.32,-182"/>
<polygon fill="black" stroke="black" points="2125.32,-178.5 2115.32,-182 2125.32,-185.5 2125.32,-178.5"/>
</g>
<!-- BoardApiModule -->
<g id="node3" class="node">
<title>BoardApiModule</title>
<polygon fill="#8dd3c7" stroke="black" points="3739.26,-122 3736.26,-126 3715.26,-126 3712.26,-122 3624.74,-122 3624.74,-86 3739.26,-86 3739.26,-122"/>
<text text-anchor="middle" x="3682" y="-99.8" font-family="Times,serif" font-size="14.00">BoardApiModule</text>
</g>
<!-- BoardApiModule&#45;&gt;ServerModule -->
<g id="edge3" class="edge">
<title>BoardApiModule&#45;&gt;ServerModule</title>
<path fill="none" stroke="black" d="M3682,-122.01C3682,-144.49 3682,-180 3682,-180 3682,-180 2125.33,-180 2125.33,-180"/>
<polygon fill="black" stroke="black" points="2125.33,-176.5 2115.33,-180 2125.33,-183.5 2125.33,-176.5"/>
</g>
<!-- BoardModule -->
<g id="node4" class="node">
<title>BoardModule</title>
<polygon fill="#8dd3c7" stroke="black" points="3606.76,-122 3603.76,-126 3582.76,-126 3579.76,-122 3513.24,-122 3513.24,-86 3606.76,-86 3606.76,-122"/>
<text text-anchor="middle" x="3560" y="-99.8" font-family="Times,serif" font-size="14.00">BoardModule</text>
</g>
<!-- BoardModule&#45;&gt;ServerModule -->
<g id="edge4" class="edge">
<title>BoardModule&#45;&gt;ServerModule</title>
<path fill="none" stroke="black" d="M3560,-122.04C3560,-143.66 3560,-177 3560,-177 3560,-177 2125.4,-177 2125.4,-177"/>
<polygon fill="black" stroke="black" points="2125.4,-173.5 2115.4,-177 2125.4,-180.5 2125.4,-173.5"/>
</g>
<!-- CollaborativeStorageModule -->
<g id="node5" class="node">
<title>CollaborativeStorageModule</title>
<polygon fill="#8dd3c7" stroke="black" points="3495.02,-122 3492.02,-126 3471.02,-126 3468.02,-122 3316.98,-122 3316.98,-86 3495.02,-86 3495.02,-122"/>
<text text-anchor="middle" x="3406" y="-99.8" font-family="Times,serif" font-size="14.00">CollaborativeStorageModule</text>
</g>
<!-- CollaborativeStorageModule&#45;&gt;ServerModule -->
<g id="edge5" class="edge">
<title>CollaborativeStorageModule&#45;&gt;ServerModule</title>
<path fill="none" stroke="black" d="M3406,-122.28C3406,-143.32 3406,-175 3406,-175 3406,-175 2125.05,-175 2125.05,-175"/>
<polygon fill="black" stroke="black" points="2125.05,-171.5 2115.05,-175 2125.05,-178.5 2125.05,-171.5"/>
</g>
<!-- CoreModule -->
<g id="node6" class="node">
<title>CoreModule</title>
<polygon fill="#8dd3c7" stroke="black" points="3298.26,-122 3295.26,-126 3274.26,-126 3271.26,-122 3211.74,-122 3211.74,-86 3298.26,-86 3298.26,-122"/>
<text text-anchor="middle" x="3255" y="-99.8" font-family="Times,serif" font-size="14.00">CoreModule</text>
</g>
<!-- CoreModule&#45;&gt;ServerModule -->
<g id="edge6" class="edge">
<title>CoreModule&#45;&gt;ServerModule</title>
<path fill="none" stroke="black" d="M3255,-122.22C3255,-142.37 3255,-172 3255,-172 3255,-172 2125.04,-172 2125.04,-172"/>
<polygon fill="black" stroke="black" points="2125.04,-168.5 2115.04,-172 2125.04,-175.5 2125.04,-168.5"/>
</g>
<!-- FilesStorageClientModule -->
<g id="node7" class="node">
<title>FilesStorageClientModule</title>
<polygon fill="#8dd3c7" stroke="black" points="3193.76,-122 3190.76,-126 3169.76,-126 3166.76,-122 3030.24,-122 3030.24,-86 3193.76,-86 3193.76,-122"/>
<text text-anchor="middle" x="3112" y="-99.8" font-family="Times,serif" font-size="14.00">FilesStorageClientModule</text>
</g>
<!-- FilesStorageClientModule&#45;&gt;ServerModule -->
<g id="edge7" class="edge">
<title>FilesStorageClientModule&#45;&gt;ServerModule</title>
<path fill="none" stroke="black" d="M3112,-122.11C3112,-141.34 3112,-169 3112,-169 3112,-169 2125.31,-169 2125.31,-169"/>
<polygon fill="black" stroke="black" points="2125.31,-165.5 2115.31,-169 2125.31,-172.5 2125.31,-165.5"/>
</g>
<!-- ImportUserModule -->
<g id="node8" class="node">
<title>ImportUserModule</title>
<polygon fill="#8dd3c7" stroke="black" points="3012.08,-122 3009.08,-126 2988.08,-126 2985.08,-122 2887.92,-122 2887.92,-86 3012.08,-86 3012.08,-122"/>
<text text-anchor="middle" x="2950" y="-99.8" font-family="Times,serif" font-size="14.00">ImportUserModule</text>
</g>
<!-- ImportUserModule&#45;&gt;ServerModule -->
<g id="edge8" class="edge">
<title>ImportUserModule&#45;&gt;ServerModule</title>
<path fill="none" stroke="black" d="M2950,-122.22C2950,-140.83 2950,-167 2950,-167 2950,-167 2125.1,-167 2125.1,-167"/>
<polygon fill="black" stroke="black" points="2125.1,-163.5 2115.1,-167 2125.1,-170.5 2125.1,-163.5"/>
</g>
<!-- LearnroomModule -->
<g id="node9" class="node">
<title>LearnroomModule</title>
<polygon fill="#8dd3c7" stroke="black" points="2869.74,-122 2866.74,-126 2845.74,-126 2842.74,-122 2748.26,-122 2748.26,-86 2869.74,-86 2869.74,-122"/>
<text text-anchor="middle" x="2809" y="-99.8" font-family="Times,serif" font-size="14.00">LearnroomModule</text>
</g>
<!-- LearnroomModule&#45;&gt;ServerModule -->
<g id="edge9" class="edge">
<title>LearnroomModule&#45;&gt;ServerModule</title>
<path fill="none" stroke="black" d="M2809,-122C2809,-139.68 2809,-164 2809,-164 2809,-164 2125.11,-164 2125.11,-164"/>
<polygon fill="black" stroke="black" points="2125.11,-160.5 2115.11,-164 2125.11,-167.5 2125.11,-160.5"/>
</g>
<!-- LessonApiModule -->
<g id="node10" class="node">
<title>LessonApiModule</title>
<polygon fill="#8dd3c7" stroke="black" points="2730.2,-122 2727.2,-126 2706.2,-126 2703.2,-122 2609.8,-122 2609.8,-86 2730.2,-86 2730.2,-122"/>
<text text-anchor="middle" x="2670" y="-99.8" font-family="Times,serif" font-size="14.00">LessonApiModule</text>
</g>
<!-- LessonApiModule&#45;&gt;ServerModule -->
<g id="edge10" class="edge">
<title>LessonApiModule&#45;&gt;ServerModule</title>
<path fill="none" stroke="black" d="M2670,-122.03C2670,-139.06 2670,-162 2670,-162 2670,-162 2125.07,-162 2125.07,-162"/>
<polygon fill="black" stroke="black" points="2125.07,-158.5 2115.07,-162 2125.07,-165.5 2125.07,-158.5"/>
</g>
<!-- LoggerModule -->
<g id="node11" class="node">
<title>LoggerModule</title>
<polygon fill="#8dd3c7" stroke="black" points="2591.98,-122 2588.98,-126 2567.98,-126 2564.98,-122 2492.02,-122 2492.02,-86 2591.98,-86 2591.98,-122"/>
<text text-anchor="middle" x="2542" y="-99.8" font-family="Times,serif" font-size="14.00">LoggerModule</text>
</g>
<!-- LoggerModule&#45;&gt;ServerModule -->
<g id="edge11" class="edge">
<title>LoggerModule&#45;&gt;ServerModule</title>
<path fill="none" stroke="black" d="M2542,-122.01C2542,-138.05 2542,-159 2542,-159 2542,-159 2125.16,-159 2125.16,-159"/>
<polygon fill="black" stroke="black" points="2125.16,-155.5 2115.16,-159 2125.16,-162.5 2125.16,-155.5"/>
</g>
<!-- NewsModule -->
<g id="node12" class="node">
<title>NewsModule</title>
<polygon fill="#8dd3c7" stroke="black" points="2473.92,-122 2470.92,-126 2449.92,-126 2446.92,-122 2382.08,-122 2382.08,-86 2473.92,-86 2473.92,-122"/>
<text text-anchor="middle" x="2428" y="-99.8" font-family="Times,serif" font-size="14.00">NewsModule</text>
</g>
<!-- NewsModule&#45;&gt;ServerModule -->
<g id="edge12" class="edge">
<title>NewsModule&#45;&gt;ServerModule</title>
<path fill="none" stroke="black" d="M2428,-122.24C2428,-137.57 2428,-157 2428,-157 2428,-157 2125.31,-157 2125.31,-157"/>
<polygon fill="black" stroke="black" points="2125.31,-153.5 2115.31,-157 2125.31,-160.5 2125.31,-153.5"/>
</g>
<!-- OauthApiModule -->
<g id="node13" class="node">
<title>OauthApiModule</title>
<polygon fill="#8dd3c7" stroke="black" points="2364.26,-122 2361.26,-126 2340.26,-126 2337.26,-122 2249.74,-122 2249.74,-86 2364.26,-86 2364.26,-122"/>
<text text-anchor="middle" x="2307" y="-99.8" font-family="Times,serif" font-size="14.00">OauthApiModule</text>
</g>
<!-- OauthApiModule&#45;&gt;ServerModule -->
<g id="edge13" class="edge">
<title>OauthApiModule&#45;&gt;ServerModule</title>
<path fill="none" stroke="black" d="M2307,-122.05C2307,-136.37 2307,-154 2307,-154 2307,-154 2125.28,-154 2125.28,-154"/>
<polygon fill="black" stroke="black" points="2125.28,-150.5 2115.28,-154 2125.28,-157.5 2125.28,-150.5"/>
</g>
<!-- OauthProviderApiModule -->
<g id="node14" class="node">
<title>OauthProviderApiModule</title>
<polygon fill="#8dd3c7" stroke="black" points="2231.47,-122 2228.47,-126 2207.47,-126 2204.47,-122 2068.53,-122 2068.53,-86 2231.47,-86 2231.47,-122"/>
<text text-anchor="middle" x="2150" y="-99.8" font-family="Times,serif" font-size="14.00">OauthProviderApiModule</text>
</g>
<!-- OauthProviderApiModule&#45;&gt;ServerModule -->
<g id="edge14" class="edge">
<title>OauthProviderApiModule&#45;&gt;ServerModule</title>
<path fill="none" stroke="black" d="M2091.78,-122.11C2091.78,-122.11 2091.78,-140.99 2091.78,-140.99"/>
<polygon fill="black" stroke="black" points="2088.28,-140.99 2091.78,-150.99 2095.28,-140.99 2088.28,-140.99"/>
</g>
<!-- ProvisioningModule -->
<g id="node15" class="node">
<title>ProvisioningModule</title>
<polygon fill="#8dd3c7" stroke="black" points="2050.61,-122 2047.61,-126 2026.61,-126 2023.61,-122 1919.39,-122 1919.39,-86 2050.61,-86 2050.61,-122"/>
<text text-anchor="middle" x="1985" y="-99.8" font-family="Times,serif" font-size="14.00">ProvisioningModule</text>
</g>
<!-- ProvisioningModule&#45;&gt;ServerModule -->
<g id="edge15" class="edge">
<title>ProvisioningModule&#45;&gt;ServerModule</title>
<path fill="none" stroke="black" d="M2034.76,-122.11C2034.76,-122.11 2034.76,-140.99 2034.76,-140.99"/>
<polygon fill="black" stroke="black" points="2031.26,-140.99 2034.76,-150.99 2038.26,-140.99 2031.26,-140.99"/>
</g>
<!-- RabbitMQWrapperModule -->
<g id="node16" class="node">
<title>RabbitMQWrapperModule</title>
<polygon fill="#8dd3c7" stroke="black" points="1901.4,-122 1898.4,-126 1877.4,-126 1874.4,-122 1732.6,-122 1732.6,-86 1901.4,-86 1901.4,-122"/>
<text text-anchor="middle" x="1817" y="-99.8" font-family="Times,serif" font-size="14.00">RabbitMQWrapperModule</text>
</g>
<!-- RabbitMQWrapperModule&#45;&gt;ServerModule -->
<g id="edge16" class="edge">
<title>RabbitMQWrapperModule&#45;&gt;ServerModule</title>
<path fill="none" stroke="black" d="M1817,-122.05C1817,-136.37 1817,-154 1817,-154 1817,-154 2008.8,-154 2008.8,-154"/>
<polygon fill="black" stroke="black" points="2008.8,-157.5 2018.8,-154 2008.8,-150.5 2008.8,-157.5"/>
</g>
<!-- RedisModule -->
<g id="node17" class="node">
<title>RedisModule</title>
<polygon fill="#8dd3c7" stroke="black" points="1714.94,-122 1711.94,-126 1690.94,-126 1687.94,-122 1623.06,-122 1623.06,-86 1714.94,-86 1714.94,-122"/>
<text text-anchor="middle" x="1669" y="-99.8" font-family="Times,serif" font-size="14.00">RedisModule</text>
</g>
<!-- RedisModule&#45;&gt;ServerModule -->
<g id="edge17" class="edge">
<title>RedisModule&#45;&gt;ServerModule</title>
<path fill="none" stroke="black" d="M1669,-122.24C1669,-137.57 1669,-157 1669,-157 1669,-157 2008.6,-157 2008.6,-157"/>
<polygon fill="black" stroke="black" points="2008.6,-160.5 2018.6,-157 2008.6,-153.5 2008.6,-160.5"/>
</g>
<!-- RoleModule -->
<g id="node18" class="node">
<title>RoleModule</title>
<polygon fill="#8dd3c7" stroke="black" points="1604.99,-122 1601.99,-126 1580.99,-126 1577.99,-122 1519.01,-122 1519.01,-86 1604.99,-86 1604.99,-122"/>
<text text-anchor="middle" x="1562" y="-99.8" font-family="Times,serif" font-size="14.00">RoleModule</text>
</g>
<!-- RoleModule&#45;&gt;ServerModule -->
<g id="edge18" class="edge">
<title>RoleModule&#45;&gt;ServerModule</title>
<path fill="none" stroke="black" d="M1562,-122.01C1562,-138.05 1562,-159 1562,-159 1562,-159 2008.58,-159 2008.58,-159"/>
<polygon fill="black" stroke="black" points="2008.58,-162.5 2018.58,-159 2008.58,-155.5 2008.58,-162.5"/>
</g>
<!-- SchoolApiModule -->
<g id="node19" class="node">
<title>SchoolApiModule</title>
<polygon fill="#8dd3c7" stroke="black" points="1500.94,-122 1497.94,-126 1476.94,-126 1473.94,-122 1381.06,-122 1381.06,-86 1500.94,-86 1500.94,-122"/>
<text text-anchor="middle" x="1441" y="-99.8" font-family="Times,serif" font-size="14.00">SchoolApiModule</text>
</g>
<!-- SchoolApiModule&#45;&gt;ServerModule -->
<g id="edge19" class="edge">
<title>SchoolApiModule&#45;&gt;ServerModule</title>
<path fill="none" stroke="black" d="M1441,-122.03C1441,-139.06 1441,-162 1441,-162 1441,-162 2008.92,-162 2008.92,-162"/>
<polygon fill="black" stroke="black" points="2008.92,-165.5 2018.92,-162 2008.92,-158.5 2008.92,-165.5"/>
</g>
<!-- SharingApiModule -->
<g id="node20" class="node">
<title>SharingApiModule</title>
<polygon fill="#8dd3c7" stroke="black" points="1363.1,-122 1360.1,-126 1339.1,-126 1336.1,-122 1238.9,-122 1238.9,-86 1363.1,-86 1363.1,-122"/>
<text text-anchor="middle" x="1301" y="-99.8" font-family="Times,serif" font-size="14.00">SharingApiModule</text>
</g>
<!-- SharingApiModule&#45;&gt;ServerModule -->
<g id="edge20" class="edge">
<title>SharingApiModule&#45;&gt;ServerModule</title>
<path fill="none" stroke="black" d="M1301,-122C1301,-139.68 1301,-164 1301,-164 1301,-164 2008.79,-164 2008.79,-164"/>
<polygon fill="black" stroke="black" points="2008.79,-167.5 2018.79,-164 2008.79,-160.5 2008.79,-167.5"/>
</g>
<!-- SystemApiModule -->
<g id="node21" class="node">
<title>SystemApiModule</title>
<polygon fill="#8dd3c7" stroke="black" points="1220.77,-122 1217.77,-126 1196.77,-126 1193.77,-122 1099.23,-122 1099.23,-86 1220.77,-86 1220.77,-122"/>
<text text-anchor="middle" x="1160" y="-99.8" font-family="Times,serif" font-size="14.00">SystemApiModule</text>
</g>
<!-- SystemApiModule&#45;&gt;ServerModule -->
<g id="edge21" class="edge">
<title>SystemApiModule&#45;&gt;ServerModule</title>
<path fill="none" stroke="black" d="M1160,-122.22C1160,-140.83 1160,-167 1160,-167 1160,-167 2008.88,-167 2008.88,-167"/>
<polygon fill="black" stroke="black" points="2008.88,-170.5 2018.88,-167 2008.88,-163.5 2008.88,-170.5"/>
</g>
<!-- TaskCardModule -->
<g id="node22" class="node">
<title>TaskCardModule</title>
<polygon fill="#8dd3c7" stroke="black" points="1080.97,-122 1077.97,-126 1056.97,-126 1053.97,-122 967.03,-122 967.03,-86 1080.97,-86 1080.97,-122"/>
<text text-anchor="middle" x="1024" y="-99.8" font-family="Times,serif" font-size="14.00">TaskCardModule</text>
</g>
<!-- TaskCardModule&#45;&gt;ServerModule -->
<g id="edge22" class="edge">
<title>TaskCardModule&#45;&gt;ServerModule</title>
<path fill="none" stroke="black" d="M1024,-122.11C1024,-141.34 1024,-169 1024,-169 1024,-169 2008.79,-169 2008.79,-169"/>
<polygon fill="black" stroke="black" points="2008.79,-172.5 2018.79,-169 2008.79,-165.5 2008.79,-172.5"/>
</g>
<!-- TaskModule -->
<g id="node23" class="node">
<title>TaskModule</title>
<polygon fill="#8dd3c7" stroke="black" points="949.26,-122 946.26,-126 925.26,-126 922.26,-122 862.74,-122 862.74,-86 949.26,-86 949.26,-122"/>
<text text-anchor="middle" x="906" y="-99.8" font-family="Times,serif" font-size="14.00">TaskModule</text>
</g>
<!-- TaskModule&#45;&gt;ServerModule -->
<g id="edge23" class="edge">
<title>TaskModule&#45;&gt;ServerModule</title>
<path fill="none" stroke="black" d="M906,-122.22C906,-142.37 906,-172 906,-172 906,-172 2008.96,-172 2008.96,-172"/>
<polygon fill="black" stroke="black" points="2008.96,-175.5 2018.96,-172 2008.96,-168.5 2008.96,-175.5"/>
</g>
<!-- ToolApiModule -->
<g id="node24" class="node">
<title>ToolApiModule</title>
<polygon fill="#8dd3c7" stroke="black" points="844.49,-122 841.49,-126 820.49,-126 817.49,-122 737.51,-122 737.51,-86 844.49,-86 844.49,-122"/>
<text text-anchor="middle" x="791" y="-99.8" font-family="Times,serif" font-size="14.00">ToolApiModule</text>
</g>
<!-- ToolApiModule&#45;&gt;ServerModule -->
<g id="edge24" class="edge">
<title>ToolApiModule&#45;&gt;ServerModule</title>
<path fill="none" stroke="black" d="M791,-122.28C791,-143.32 791,-175 791,-175 791,-175 2008.92,-175 2008.92,-175"/>
<polygon fill="black" stroke="black" points="2008.92,-178.5 2018.92,-175 2008.92,-171.5 2008.92,-178.5"/>
</g>
<!-- UserApiModule -->
<g id="node25" class="node">
<title>UserApiModule</title>
<polygon fill="#8dd3c7" stroke="black" points="719.47,-122 716.47,-126 695.47,-126 692.47,-122 612.53,-122 612.53,-86 719.47,-86 719.47,-122"/>
<text text-anchor="middle" x="666" y="-99.8" font-family="Times,serif" font-size="14.00">UserApiModule</text>
</g>
<!-- UserApiModule&#45;&gt;ServerModule -->
<g id="edge25" class="edge">
<title>UserApiModule&#45;&gt;ServerModule</title>
<path fill="none" stroke="black" d="M666,-122.04C666,-143.66 666,-177 666,-177 666,-177 2008.77,-177 2008.77,-177"/>
<polygon fill="black" stroke="black" points="2008.77,-180.5 2018.77,-177 2008.77,-173.5 2008.77,-180.5"/>
</g>
<!-- UserLoginMigrationApiModule -->
<g id="node26" class="node">
<title>UserLoginMigrationApiModule</title>
<polygon fill="#8dd3c7" stroke="black" points="594.41,-122 591.41,-126 570.41,-126 567.41,-122 397.59,-122 397.59,-86 594.41,-86 594.41,-122"/>
<text text-anchor="middle" x="496" y="-99.8" font-family="Times,serif" font-size="14.00">UserLoginMigrationApiModule</text>
</g>
<!-- UserLoginMigrationApiModule&#45;&gt;ServerModule -->
<g id="edge26" class="edge">
<title>UserLoginMigrationApiModule&#45;&gt;ServerModule</title>
<path fill="none" stroke="black" d="M496,-122.01C496,-144.49 496,-180 496,-180 496,-180 2008.69,-180 2008.69,-180"/>
<polygon fill="black" stroke="black" points="2008.69,-183.5 2018.69,-180 2008.69,-176.5 2008.69,-183.5"/>
</g>
<!-- VideoConferenceApiModule -->
<g id="node27" class="node">
<title>VideoConferenceApiModule</title>
<polygon fill="#8dd3c7" stroke="black" points="379.78,-122 376.78,-126 355.78,-126 352.78,-122 200.22,-122 200.22,-86 379.78,-86 379.78,-122"/>
<text text-anchor="middle" x="290" y="-99.8" font-family="Times,serif" font-size="14.00">VideoConferenceApiModule</text>
</g>
<!-- VideoConferenceApiModule&#45;&gt;ServerModule -->
<g id="edge27" class="edge">
<title>VideoConferenceApiModule&#45;&gt;ServerModule</title>
<path fill="none" stroke="black" d="M290,-122.09C290,-145.13 290,-182 290,-182 290,-182 2008.55,-182 2008.55,-182"/>
<polygon fill="black" stroke="black" points="2008.55,-185.5 2018.55,-182 2008.55,-178.5 2008.55,-185.5"/>
</g>
<!-- VideoConferenceModule -->
<g id="node28" class="node">
<title>VideoConferenceModule</title>
<polygon fill="#8dd3c7" stroke="black" points="182.28,-122 179.28,-126 158.28,-126 155.28,-122 23.72,-122 23.72,-86 182.28,-86 182.28,-122"/>
<text text-anchor="middle" x="103" y="-99.8" font-family="Times,serif" font-size="14.00">VideoConferenceModule</text>
</g>
<!-- VideoConferenceModule&#45;&gt;ServerModule -->
<g id="edge28" class="edge">
<title>VideoConferenceModule&#45;&gt;ServerModule</title>
<path fill="none" stroke="black" d="M103,-122.38C103,-146.28 103,-185 103,-185 103,-185 2008.94,-185 2008.94,-185"/>
<polygon fill="black" stroke="black" points="2008.94,-188.5 2018.94,-185 2008.94,-181.5 2008.94,-188.5"/>
</g>
</g>
</svg>
