<?xml version="1.0" encoding="UTF-8" standalone="no"?>
<!DOCTYPE svg PUBLIC "-//W3C//DTD SVG 1.1//EN"
 "http://www.w3.org/Graphics/SVG/1.1/DTD/svg11.dtd">
<!-- Generated by graphviz version 2.47.0 (20210316.0004)
 -->
<!-- Title: dependencies Pages: 1 -->
<svg width="3779pt" height="211pt"
 viewBox="0.00 0.00 3779.00 211.00" xmlns="http://www.w3.org/2000/svg" xmlns:xlink="http://www.w3.org/1999/xlink">
<g id="graph0" class="graph" transform="scale(1 1) rotate(0) translate(4 207)">
<title>dependencies</title>
<polygon fill="white" stroke="transparent" points="-4,4 -4,-207 3775,-207 3775,4 -4,4"/>
<text text-anchor="start" x="1864.51" y="-42.4" font-family="Times-12" font-weight="bold" font-size="14.00">Legend</text>
<polygon fill="#ffffb3" stroke="transparent" points="1651.5,-10 1651.5,-30 1671.5,-30 1671.5,-10 1651.5,-10"/>
<text text-anchor="start" x="1675.13" y="-15.4" font-family="Times-12" font-size="14.00"> &#160;Declarations</text>
<polygon fill="#8dd3c7" stroke="transparent" points="1764.5,-10 1764.5,-30 1784.5,-30 1784.5,-10 1764.5,-10"/>
<text text-anchor="start" x="1788.23" y="-15.4" font-family="Times-12" font-size="14.00"> &#160;Module</text>
<polygon fill="#80b1d3" stroke="transparent" points="1850.5,-10 1850.5,-30 1870.5,-30 1870.5,-10 1850.5,-10"/>
<text text-anchor="start" x="1874.28" y="-15.4" font-family="Times-12" font-size="14.00"> &#160;Bootstrap</text>
<polygon fill="#fdb462" stroke="transparent" points="1947.5,-10 1947.5,-30 1967.5,-30 1967.5,-10 1947.5,-10"/>
<text text-anchor="start" x="1971.17" y="-15.4" font-family="Times-12" font-size="14.00"> &#160;Providers</text>
<polygon fill="#fb8072" stroke="transparent" points="2043.5,-10 2043.5,-30 2063.5,-30 2063.5,-10 2043.5,-10"/>
<text text-anchor="start" x="2067.23" y="-15.4" font-family="Times-12" font-size="14.00"> &#160;Exports</text>
<g id="clust1" class="cluster">
<title>cluster_ServerModule</title>
<polygon fill="none" stroke="black" stroke-dasharray="1,5" points="8,-70 8,-195 3763,-195 3763,-70 8,-70"/>
</g>
<g id="clust3" class="cluster">
<title>cluster_ServerModule_imports</title>
<polygon fill="none" stroke="black" points="16,-78 16,-130 3755,-130 3755,-78 16,-78"/>
</g>
<!-- AccountApiModule -->
<g id="node1" class="node">
<title>AccountApiModule</title>
<polygon fill="#8dd3c7" stroke="black" points="3746.97,-122 3743.97,-126 3722.97,-126 3719.97,-122 3619.03,-122 3619.03,-86 3746.97,-86 3746.97,-122"/>
<text text-anchor="middle" x="3683" y="-99.8" font-family="Times,serif" font-size="14.00">AccountApiModule</text>
</g>
<!-- ServerModule -->
<g id="node26" class="node">
<title>ServerModule</title>
<polygon fill="#8dd3c7" stroke="black" points="1934.08,-187 1931.08,-191 1910.08,-191 1907.08,-187 1837.92,-187 1837.92,-151 1934.08,-151 1934.08,-187"/>
<text text-anchor="middle" x="1886" y="-164.8" font-family="Times,serif" font-size="14.00">ServerModule</text>
</g>
<!-- AccountApiModule&#45;&gt;ServerModule -->
<g id="edge1" class="edge">
<title>AccountApiModule&#45;&gt;ServerModule</title>
<path fill="none" stroke="black" d="M3683,-122.38C3683,-146.28 3683,-185 3683,-185 3683,-185 1944.07,-185 1944.07,-185"/>
<polygon fill="black" stroke="black" points="1944.07,-181.5 1934.07,-185 1944.07,-188.5 1944.07,-181.5"/>
</g>
<!-- AuthenticationApiModule -->
<g id="node2" class="node">
<title>AuthenticationApiModule</title>
<polygon fill="#8dd3c7" stroke="black" points="3600.75,-122 3597.75,-126 3576.75,-126 3573.75,-122 3437.25,-122 3437.25,-86 3600.75,-86 3600.75,-122"/>
<text text-anchor="middle" x="3519" y="-99.8" font-family="Times,serif" font-size="14.00">AuthenticationApiModule</text>
</g>
<!-- AuthenticationApiModule&#45;&gt;ServerModule -->
<g id="edge2" class="edge">
<title>AuthenticationApiModule&#45;&gt;ServerModule</title>
<path fill="none" stroke="black" d="M3519,-122.09C3519,-145.13 3519,-182 3519,-182 3519,-182 1944.43,-182 1944.43,-182"/>
<polygon fill="black" stroke="black" points="1944.43,-178.5 1934.43,-182 1944.43,-185.5 1944.43,-178.5"/>
</g>
<!-- BoardApiModule -->
<g id="node3" class="node">
<title>BoardApiModule</title>
<polygon fill="#8dd3c7" stroke="black" points="3419.26,-122 3416.26,-126 3395.26,-126 3392.26,-122 3304.74,-122 3304.74,-86 3419.26,-86 3419.26,-122"/>
<text text-anchor="middle" x="3362" y="-99.8" font-family="Times,serif" font-size="14.00">BoardApiModule</text>
</g>
<!-- BoardApiModule&#45;&gt;ServerModule -->
<g id="edge3" class="edge">
<title>BoardApiModule&#45;&gt;ServerModule</title>
<path fill="none" stroke="black" d="M3362,-122.16C3362,-144.35 3362,-179 3362,-179 3362,-179 1944.27,-179 1944.27,-179"/>
<polygon fill="black" stroke="black" points="1944.27,-175.5 1934.27,-179 1944.27,-182.5 1944.27,-175.5"/>
</g>
<!-- CollaborativeStorageModule -->
<g id="node4" class="node">
<title>CollaborativeStorageModule</title>
<polygon fill="#8dd3c7" stroke="black" points="3286.02,-122 3283.02,-126 3262.02,-126 3259.02,-122 3107.98,-122 3107.98,-86 3286.02,-86 3286.02,-122"/>
<text text-anchor="middle" x="3197" y="-99.8" font-family="Times,serif" font-size="14.00">CollaborativeStorageModule</text>
</g>
<!-- CollaborativeStorageModule&#45;&gt;ServerModule -->
<g id="edge4" class="edge">
<title>CollaborativeStorageModule&#45;&gt;ServerModule</title>
<path fill="none" stroke="black" d="M3197,-122.17C3197,-143.5 3197,-176 3197,-176 3197,-176 1944.21,-176 1944.21,-176"/>
<polygon fill="black" stroke="black" points="1944.21,-172.5 1934.21,-176 1944.21,-179.5 1944.21,-172.5"/>
</g>
<!-- CoreModule -->
<g id="node5" class="node">
<title>CoreModule</title>
<polygon fill="#8dd3c7" stroke="black" points="3089.26,-122 3086.26,-126 3065.26,-126 3062.26,-122 3002.74,-122 3002.74,-86 3089.26,-86 3089.26,-122"/>
<text text-anchor="middle" x="3046" y="-99.8" font-family="Times,serif" font-size="14.00">CoreModule</text>
</g>
<!-- CoreModule&#45;&gt;ServerModule -->
<g id="edge5" class="edge">
<title>CoreModule&#45;&gt;ServerModule</title>
<path fill="none" stroke="black" d="M3046,-122.03C3046,-142.77 3046,-174 3046,-174 3046,-174 1944.37,-174 1944.37,-174"/>
<polygon fill="black" stroke="black" points="1944.37,-170.5 1934.37,-174 1944.37,-177.5 1944.37,-170.5"/>
</g>
<!-- FilesStorageClientModule -->
<g id="node6" class="node">
<title>FilesStorageClientModule</title>
<polygon fill="#8dd3c7" stroke="black" points="2984.76,-122 2981.76,-126 2960.76,-126 2957.76,-122 2821.24,-122 2821.24,-86 2984.76,-86 2984.76,-122"/>
<text text-anchor="middle" x="2903" y="-99.8" font-family="Times,serif" font-size="14.00">FilesStorageClientModule</text>
</g>
<!-- FilesStorageClientModule&#45;&gt;ServerModule -->
<g id="edge6" class="edge">
<title>FilesStorageClientModule&#45;&gt;ServerModule</title>
<path fill="none" stroke="black" d="M2903,-122.31C2903,-142.15 2903,-171 2903,-171 2903,-171 1944.37,-171 1944.37,-171"/>
<polygon fill="black" stroke="black" points="1944.37,-167.5 1934.37,-171 1944.37,-174.5 1944.37,-167.5"/>
</g>
<!-- GroupApiModule -->
<g id="node7" class="node">
<title>GroupApiModule</title>
<polygon fill="#8dd3c7" stroke="black" points="2803.31,-122 2800.31,-126 2779.31,-126 2776.31,-122 2686.69,-122 2686.69,-86 2803.31,-86 2803.31,-122"/>
<text text-anchor="middle" x="2745" y="-99.8" font-family="Times,serif" font-size="14.00">GroupApiModule</text>
</g>
<!-- GroupApiModule&#45;&gt;ServerModule -->
<g id="edge7" class="edge">
<title>GroupApiModule&#45;&gt;ServerModule</title>
<path fill="none" stroke="black" d="M2745,-122.17C2745,-141.09 2745,-168 2745,-168 2745,-168 1944.33,-168 1944.33,-168"/>
<polygon fill="black" stroke="black" points="1944.33,-164.5 1934.33,-168 1944.33,-171.5 1944.33,-164.5"/>
</g>
<!-- ImportUserModule -->
<g id="node8" class="node">
<title>ImportUserModule</title>
<polygon fill="#8dd3c7" stroke="black" points="2669.08,-122 2666.08,-126 2645.08,-126 2642.08,-122 2544.92,-122 2544.92,-86 2669.08,-86 2669.08,-122"/>
<text text-anchor="middle" x="2607" y="-99.8" font-family="Times,serif" font-size="14.00">ImportUserModule</text>
</g>
<!-- ImportUserModule&#45;&gt;ServerModule -->
<g id="edge8" class="edge">
<title>ImportUserModule&#45;&gt;ServerModule</title>
<path fill="none" stroke="black" d="M2607,-122.3C2607,-140.27 2607,-165 2607,-165 2607,-165 1944.15,-165 1944.15,-165"/>
<polygon fill="black" stroke="black" points="1944.15,-161.5 1934.15,-165 1944.15,-168.5 1944.15,-161.5"/>
</g>
<!-- LearnroomApiModule -->
<g id="node9" class="node">
<title>LearnroomApiModule</title>
<polygon fill="#8dd3c7" stroke="black" points="2527.24,-122 2524.24,-126 2503.24,-126 2500.24,-122 2384.76,-122 2384.76,-86 2527.24,-86 2527.24,-122"/>
<text text-anchor="middle" x="2456" y="-99.8" font-family="Times,serif" font-size="14.00">LearnroomApiModule</text>
</g>
<!-- LearnroomApiModule&#45;&gt;ServerModule -->
<g id="edge9" class="edge">
<title>LearnroomApiModule&#45;&gt;ServerModule</title>
<path fill="none" stroke="black" d="M2456,-122.02C2456,-139.37 2456,-163 2456,-163 2456,-163 1944.11,-163 1944.11,-163"/>
<polygon fill="black" stroke="black" points="1944.11,-159.5 1934.11,-163 1944.11,-166.5 1944.11,-159.5"/>
</g>
<!-- LegacySchoolApiModule -->
<g id="node10" class="node">
<title>LegacySchoolApiModule</title>
<polygon fill="#8dd3c7" stroke="black" points="2366.13,-122 2363.13,-126 2342.13,-126 2339.13,-122 2205.87,-122 2205.87,-86 2366.13,-86 2366.13,-122"/>
<text text-anchor="middle" x="2286" y="-99.8" font-family="Times,serif" font-size="14.00">LegacySchoolApiModule</text>
</g>
<!-- LegacySchoolApiModule&#45;&gt;ServerModule -->
<g id="edge10" class="edge">
<title>LegacySchoolApiModule&#45;&gt;ServerModule</title>
<path fill="none" stroke="black" d="M2286,-122.03C2286,-138.4 2286,-160 2286,-160 2286,-160 1944.25,-160 1944.25,-160"/>
<polygon fill="black" stroke="black" points="1944.25,-156.5 1934.25,-160 1944.25,-163.5 1944.25,-156.5"/>
</g>
<!-- LessonApiModule -->
<g id="node11" class="node">
<title>LessonApiModule</title>
<polygon fill="#8dd3c7" stroke="black" points="2188.2,-122 2185.2,-126 2164.2,-126 2161.2,-122 2067.8,-122 2067.8,-86 2188.2,-86 2188.2,-122"/>
<text text-anchor="middle" x="2128" y="-99.8" font-family="Times,serif" font-size="14.00">LessonApiModule</text>
</g>
<!-- LessonApiModule&#45;&gt;ServerModule -->
<g id="edge11" class="edge">
<title>LessonApiModule&#45;&gt;ServerModule</title>
<path fill="none" stroke="black" d="M2128,-122.24C2128,-137.57 2128,-157 2128,-157 2128,-157 1944.1,-157 1944.1,-157"/>
<polygon fill="black" stroke="black" points="1944.1,-153.5 1934.1,-157 1944.1,-160.5 1944.1,-153.5"/>
</g>
<!-- LoggerModule -->
<g id="node12" class="node">
<title>LoggerModule</title>
<polygon fill="#8dd3c7" stroke="black" points="2049.98,-122 2046.98,-126 2025.98,-126 2022.98,-122 1950.02,-122 1950.02,-86 2049.98,-86 2049.98,-122"/>
<text text-anchor="middle" x="2000" y="-99.8" font-family="Times,serif" font-size="14.00">LoggerModule</text>
</g>
<!-- LoggerModule&#45;&gt;ServerModule -->
<g id="edge12" class="edge">
<title>LoggerModule&#45;&gt;ServerModule</title>
<path fill="none" stroke="black" d="M2000,-122.05C2000,-136.37 2000,-154 2000,-154 2000,-154 1944.35,-154 1944.35,-154"/>
<polygon fill="black" stroke="black" points="1944.35,-150.5 1934.35,-154 1944.35,-157.5 1944.35,-150.5"/>
</g>
<!-- NewsModule -->
<g id="node13" class="node">
<title>NewsModule</title>
<polygon fill="#8dd3c7" stroke="black" points="1931.92,-122 1928.92,-126 1907.92,-126 1904.92,-122 1840.08,-122 1840.08,-86 1931.92,-86 1931.92,-122"/>
<text text-anchor="middle" x="1886" y="-99.8" font-family="Times,serif" font-size="14.00">NewsModule</text>
</g>
<!-- NewsModule&#45;&gt;ServerModule -->
<g id="edge13" class="edge">
<title>NewsModule&#45;&gt;ServerModule</title>
<path fill="none" stroke="black" d="M1886,-122.11C1886,-122.11 1886,-140.99 1886,-140.99"/>
<polygon fill="black" stroke="black" points="1882.5,-140.99 1886,-150.99 1889.5,-140.99 1882.5,-140.99"/>
</g>
<!-- OauthApiModule -->
<g id="node14" class="node">
<title>OauthApiModule</title>
<polygon fill="#8dd3c7" stroke="black" points="1822.26,-122 1819.26,-126 1798.26,-126 1795.26,-122 1707.74,-122 1707.74,-86 1822.26,-86 1822.26,-122"/>
<text text-anchor="middle" x="1765" y="-99.8" font-family="Times,serif" font-size="14.00">OauthApiModule</text>
</g>
<!-- OauthApiModule&#45;&gt;ServerModule -->
<g id="edge14" class="edge">
<title>OauthApiModule&#45;&gt;ServerModule</title>
<path fill="none" stroke="black" d="M1765,-122.05C1765,-136.37 1765,-154 1765,-154 1765,-154 1827.83,-154 1827.83,-154"/>
<polygon fill="black" stroke="black" points="1827.83,-157.5 1837.83,-154 1827.83,-150.5 1827.83,-157.5"/>
</g>
<!-- OauthProviderApiModule -->
<g id="node15" class="node">
<title>OauthProviderApiModule</title>
<polygon fill="#8dd3c7" stroke="black" points="1689.47,-122 1686.47,-126 1665.47,-126 1662.47,-122 1526.53,-122 1526.53,-86 1689.47,-86 1689.47,-122"/>
<text text-anchor="middle" x="1608" y="-99.8" font-family="Times,serif" font-size="14.00">OauthProviderApiModule</text>
</g>
<!-- OauthProviderApiModule&#45;&gt;ServerModule -->
<g id="edge15" class="edge">
<title>OauthProviderApiModule&#45;&gt;ServerModule</title>
<path fill="none" stroke="black" d="M1608,-122.24C1608,-137.57 1608,-157 1608,-157 1608,-157 1827.89,-157 1827.89,-157"/>
<polygon fill="black" stroke="black" points="1827.89,-160.5 1837.89,-157 1827.89,-153.5 1827.89,-160.5"/>
</g>
<!-- RabbitMQWrapperModule -->
<g id="node16" class="node">
<title>RabbitMQWrapperModule</title>
<polygon fill="#8dd3c7" stroke="black" points="1508.4,-122 1505.4,-126 1484.4,-126 1481.4,-122 1339.6,-122 1339.6,-86 1508.4,-86 1508.4,-122"/>
<text text-anchor="middle" x="1424" y="-99.8" font-family="Times,serif" font-size="14.00">RabbitMQWrapperModule</text>
</g>
<!-- RabbitMQWrapperModule&#45;&gt;ServerModule -->
<g id="edge16" class="edge">
<title>RabbitMQWrapperModule&#45;&gt;ServerModule</title>
<path fill="none" stroke="black" d="M1424,-122.03C1424,-138.4 1424,-160 1424,-160 1424,-160 1827.87,-160 1827.87,-160"/>
<polygon fill="black" stroke="black" points="1827.87,-163.5 1837.87,-160 1827.87,-156.5 1827.87,-163.5"/>
</g>
<!-- RedisModule -->
<g id="node17" class="node">
<title>RedisModule</title>
<polygon fill="#8dd3c7" stroke="black" points="1321.94,-122 1318.94,-126 1297.94,-126 1294.94,-122 1230.06,-122 1230.06,-86 1321.94,-86 1321.94,-122"/>
<text text-anchor="middle" x="1276" y="-99.8" font-family="Times,serif" font-size="14.00">RedisModule</text>
</g>
<!-- RedisModule&#45;&gt;ServerModule -->
<g id="edge17" class="edge">
<title>RedisModule&#45;&gt;ServerModule</title>
<path fill="none" stroke="black" d="M1276,-122.02C1276,-139.37 1276,-163 1276,-163 1276,-163 1827.88,-163 1827.88,-163"/>
<polygon fill="black" stroke="black" points="1827.88,-166.5 1837.88,-163 1827.88,-159.5 1827.88,-166.5"/>
</g>
<!-- SharingApiModule -->
<g id="node18" class="node">
<title>SharingApiModule</title>
<polygon fill="#8dd3c7" stroke="black" points="1212.1,-122 1209.1,-126 1188.1,-126 1185.1,-122 1087.9,-122 1087.9,-86 1212.1,-86 1212.1,-122"/>
<text text-anchor="middle" x="1150" y="-99.8" font-family="Times,serif" font-size="14.00">SharingApiModule</text>
</g>
<!-- SharingApiModule&#45;&gt;ServerModule -->
<g id="edge18" class="edge">
<title>SharingApiModule&#45;&gt;ServerModule</title>
<path fill="none" stroke="black" d="M1150,-122.3C1150,-140.27 1150,-165 1150,-165 1150,-165 1827.71,-165 1827.71,-165"/>
<polygon fill="black" stroke="black" points="1827.71,-168.5 1837.71,-165 1827.71,-161.5 1827.71,-168.5"/>
</g>
<!-- SystemApiModule -->
<g id="node19" class="node">
<title>SystemApiModule</title>
<polygon fill="#8dd3c7" stroke="black" points="1069.77,-122 1066.77,-126 1045.77,-126 1042.77,-122 948.23,-122 948.23,-86 1069.77,-86 1069.77,-122"/>
<text text-anchor="middle" x="1009" y="-99.8" font-family="Times,serif" font-size="14.00">SystemApiModule</text>
</g>
<!-- SystemApiModule&#45;&gt;ServerModule -->
<g id="edge19" class="edge">
<title>SystemApiModule&#45;&gt;ServerModule</title>
<path fill="none" stroke="black" d="M1009,-122.17C1009,-141.09 1009,-168 1009,-168 1009,-168 1827.91,-168 1827.91,-168"/>
<polygon fill="black" stroke="black" points="1827.91,-171.5 1837.91,-168 1827.91,-164.5 1827.91,-171.5"/>
</g>
<!-- TaskApiModule -->
<g id="node20" class="node">
<title>TaskApiModule</title>
<polygon fill="#8dd3c7" stroke="black" points="929.76,-122 926.76,-126 905.76,-126 902.76,-122 822.24,-122 822.24,-86 929.76,-86 929.76,-122"/>
<text text-anchor="middle" x="876" y="-99.8" font-family="Times,serif" font-size="14.00">TaskApiModule</text>
</g>
<!-- TaskApiModule&#45;&gt;ServerModule -->
<g id="edge20" class="edge">
<title>TaskApiModule&#45;&gt;ServerModule</title>
<path fill="none" stroke="black" d="M876,-122.31C876,-142.15 876,-171 876,-171 876,-171 1827.63,-171 1827.63,-171"/>
<polygon fill="black" stroke="black" points="1827.63,-174.5 1837.63,-171 1827.63,-167.5 1827.63,-174.5"/>
</g>
<!-- TeamsApiModule -->
<g id="node21" class="node">
<title>TeamsApiModule</title>
<polygon fill="#8dd3c7" stroke="black" points="803.86,-122 800.86,-126 779.86,-126 776.86,-122 686.14,-122 686.14,-86 803.86,-86 803.86,-122"/>
<text text-anchor="middle" x="745" y="-99.8" font-family="Times,serif" font-size="14.00">TeamsApiModule</text>
</g>
<!-- TeamsApiModule&#45;&gt;ServerModule -->
<g id="edge21" class="edge">
<title>TeamsApiModule&#45;&gt;ServerModule</title>
<path fill="none" stroke="black" d="M745,-122.03C745,-142.77 745,-174 745,-174 745,-174 1827.7,-174 1827.7,-174"/>
<polygon fill="black" stroke="black" points="1827.7,-177.5 1837.7,-174 1827.7,-170.5 1827.7,-177.5"/>
</g>
<!-- ToolApiModule -->
<g id="node22" class="node">
<title>ToolApiModule</title>
<polygon fill="#8dd3c7" stroke="black" points="668.49,-122 665.49,-126 644.49,-126 641.49,-122 561.51,-122 561.51,-86 668.49,-86 668.49,-122"/>
<text text-anchor="middle" x="615" y="-99.8" font-family="Times,serif" font-size="14.00">ToolApiModule</text>
</g>
<!-- ToolApiModule&#45;&gt;ServerModule -->
<g id="edge22" class="edge">
<title>ToolApiModule&#45;&gt;ServerModule</title>
<path fill="none" stroke="black" d="M615,-122.17C615,-143.5 615,-176 615,-176 615,-176 1827.73,-176 1827.73,-176"/>
<polygon fill="black" stroke="black" points="1827.73,-179.5 1837.73,-176 1827.73,-172.5 1827.73,-179.5"/>
</g>
<!-- UserApiModule -->
<g id="node23" class="node">
<title>UserApiModule</title>
<polygon fill="#8dd3c7" stroke="black" points="543.47,-122 540.47,-126 519.47,-126 516.47,-122 436.53,-122 436.53,-86 543.47,-86 543.47,-122"/>
<text text-anchor="middle" x="490" y="-99.8" font-family="Times,serif" font-size="14.00">UserApiModule</text>
</g>
<!-- UserApiModule&#45;&gt;ServerModule -->
<g id="edge23" class="edge">
<title>UserApiModule&#45;&gt;ServerModule</title>
<path fill="none" stroke="black" d="M490,-122.16C490,-144.35 490,-179 490,-179 490,-179 1827.95,-179 1827.95,-179"/>
<polygon fill="black" stroke="black" points="1827.95,-182.5 1837.95,-179 1827.95,-175.5 1827.95,-182.5"/>
</g>
<!-- UserLoginMigrationApiModule -->
<g id="node24" class="node">
<title>UserLoginMigrationApiModule</title>
<polygon fill="#8dd3c7" stroke="black" points="418.41,-122 415.41,-126 394.41,-126 391.41,-122 221.59,-122 221.59,-86 418.41,-86 418.41,-122"/>
<text text-anchor="middle" x="320" y="-99.8" font-family="Times,serif" font-size="14.00">UserLoginMigrationApiModule</text>
</g>
<!-- UserLoginMigrationApiModule&#45;&gt;ServerModule -->
<g id="edge24" class="edge">
<title>UserLoginMigrationApiModule&#45;&gt;ServerModule</title>
<path fill="none" stroke="black" d="M320,-122.09C320,-145.13 320,-182 320,-182 320,-182 1827.85,-182 1827.85,-182"/>
<polygon fill="black" stroke="black" points="1827.85,-185.5 1837.85,-182 1827.85,-178.5 1827.85,-185.5"/>
</g>
<!-- VideoConferenceApiModule -->
<g id="node25" class="node">
<title>VideoConferenceApiModule</title>
<polygon fill="#8dd3c7" stroke="black" points="203.78,-122 200.78,-126 179.78,-126 176.78,-122 24.22,-122 24.22,-86 203.78,-86 203.78,-122"/>
<text text-anchor="middle" x="114" y="-99.8" font-family="Times,serif" font-size="14.00">VideoConferenceApiModule</text>
</g>
<!-- VideoConferenceApiModule&#45;&gt;ServerModule -->
<g id="edge25" class="edge">
<title>VideoConferenceApiModule&#45;&gt;ServerModule</title>
<path fill="none" stroke="black" d="M114,-122.38C114,-146.28 114,-185 114,-185 114,-185 1827.68,-185 1827.68,-185"/>
<polygon fill="black" stroke="black" points="1827.68,-188.5 1837.68,-185 1827.68,-181.5 1827.68,-188.5"/>
</g>
</g>
</svg>
