<?xml version="1.0" encoding="UTF-8" standalone="no"?>
<!DOCTYPE svg PUBLIC "-//W3C//DTD SVG 1.1//EN"
 "http://www.w3.org/Graphics/SVG/1.1/DTD/svg11.dtd">
<!-- Generated by graphviz version 2.47.0 (20210316.0004)
 -->
<!-- Title: dependencies Pages: 1 -->
<svg width="870pt" height="211pt"
 viewBox="0.00 0.00 870.00 211.00" xmlns="http://www.w3.org/2000/svg" xmlns:xlink="http://www.w3.org/1999/xlink">
<g id="graph0" class="graph" transform="scale(1 1) rotate(0) translate(4 207)">
<title>dependencies</title>
<polygon fill="white" stroke="transparent" points="-4,4 -4,-207 866,-207 866,4 -4,4"/>
<text text-anchor="start" x="410.01" y="-42.4" font-family="Times-12" font-weight="bold" font-size="14.00">Legend</text>
<polygon fill="#ffffb3" stroke="transparent" points="197,-10 197,-30 217,-30 217,-10 197,-10"/>
<text text-anchor="start" x="220.63" y="-15.4" font-family="Times-12" font-size="14.00"> &#160;Declarations</text>
<polygon fill="#8dd3c7" stroke="transparent" points="310,-10 310,-30 330,-30 330,-10 310,-10"/>
<text text-anchor="start" x="333.73" y="-15.4" font-family="Times-12" font-size="14.00"> &#160;Module</text>
<polygon fill="#80b1d3" stroke="transparent" points="396,-10 396,-30 416,-30 416,-10 396,-10"/>
<text text-anchor="start" x="419.78" y="-15.4" font-family="Times-12" font-size="14.00"> &#160;Bootstrap</text>
<polygon fill="#fdb462" stroke="transparent" points="493,-10 493,-30 513,-30 513,-10 493,-10"/>
<text text-anchor="start" x="516.67" y="-15.4" font-family="Times-12" font-size="14.00"> &#160;Providers</text>
<polygon fill="#fb8072" stroke="transparent" points="589,-10 589,-30 609,-30 609,-10 589,-10"/>
<text text-anchor="start" x="612.73" y="-15.4" font-family="Times-12" font-size="14.00"> &#160;Exports</text>
<g id="clust1" class="cluster">
<title>cluster_ServerModule</title>
<polygon fill="none" stroke="black" stroke-dasharray="1,5" points="8,-70 8,-195 854,-195 854,-70 8,-70"/>
</g>
<g id="clust3" class="cluster">
<title>cluster_ServerModule_imports</title>
<polygon fill="none" stroke="black" points="16,-78 16,-130 846,-130 846,-78 16,-78"/>
</g>
<!-- DeletionApiModule -->
<g id="node1" class="node">
<title>DeletionApiModule</title>
<polygon fill="#8dd3c7" stroke="black" points="838.25,-122 835.25,-126 814.25,-126 811.25,-122 709.75,-122 709.75,-86 838.25,-86 838.25,-122"/>
<text text-anchor="middle" x="774" y="-99.8" font-family="Times,serif" font-size="14.00">DeletionApiModule</text>
</g>
<!-- ServerModule -->
<g id="node6" class="node">
<title>ServerModule</title>
<polygon fill="#8dd3c7" stroke="black" points="472.08,-187 469.08,-191 448.08,-191 445.08,-187 375.92,-187 375.92,-151 472.08,-151 472.08,-187"/>
<text text-anchor="middle" x="424" y="-164.8" font-family="Times,serif" font-size="14.00">ServerModule</text>
</g>
<!-- DeletionApiModule&#45;&gt;ServerModule -->
<g id="edge1" class="edge">
<title>DeletionApiModule&#45;&gt;ServerModule</title>
<path fill="none" stroke="black" d="M774,-122.28C774,-143.32 774,-175 774,-175 774,-175 482.3,-175 482.3,-175"/>
<polygon fill="black" stroke="black" points="482.3,-171.5 472.3,-175 482.3,-178.5 482.3,-171.5"/>
</g>
<!-- LegacySchoolAdminApiModule -->
<g id="node2" class="node">
<title>LegacySchoolAdminApiModule</title>
<polygon fill="#8dd3c7" stroke="black" points="691.52,-122 688.52,-126 667.52,-126 664.52,-122 492.48,-122 492.48,-86 691.52,-86 691.52,-122"/>
<text text-anchor="middle" x="592" y="-99.8" font-family="Times,serif" font-size="14.00">LegacySchoolAdminApiModule</text>
</g>
<!-- LegacySchoolAdminApiModule&#45;&gt;ServerModule -->
<g id="edge2" class="edge">
<title>LegacySchoolAdminApiModule&#45;&gt;ServerModule</title>
<path fill="none" stroke="black" d="M592,-122.02C592,-139.37 592,-163 592,-163 592,-163 482.14,-163 482.14,-163"/>
<polygon fill="black" stroke="black" points="482.14,-159.5 472.14,-163 482.14,-166.5 482.14,-159.5"/>
</g>
<!-- LoggerModule -->
<g id="node3" class="node">
<title>LoggerModule</title>
<polygon fill="#8dd3c7" stroke="black" points="473.98,-122 470.98,-126 449.98,-126 446.98,-122 374.02,-122 374.02,-86 473.98,-86 473.98,-122"/>
<text text-anchor="middle" x="424" y="-99.8" font-family="Times,serif" font-size="14.00">LoggerModule</text>
</g>
<!-- LoggerModule&#45;&gt;ServerModule -->
<g id="edge3" class="edge">
<title>LoggerModule&#45;&gt;ServerModule</title>
<path fill="none" stroke="black" d="M424,-122.11C424,-122.11 424,-140.99 424,-140.99"/>
<polygon fill="black" stroke="black" points="420.5,-140.99 424,-150.99 427.5,-140.99 420.5,-140.99"/>
</g>
<!-- RabbitMQWrapperModule -->
<g id="node4" class="node">
<title>RabbitMQWrapperModule</title>
<polygon fill="#8dd3c7" stroke="black" points="356.4,-122 353.4,-126 332.4,-126 329.4,-122 187.6,-122 187.6,-86 356.4,-86 356.4,-122"/>
<text text-anchor="middle" x="272" y="-99.8" font-family="Times,serif" font-size="14.00">RabbitMQWrapperModule</text>
</g>
<!-- RabbitMQWrapperModule&#45;&gt;ServerModule -->
<g id="edge4" class="edge">
<title>RabbitMQWrapperModule&#45;&gt;ServerModule</title>
<path fill="none" stroke="black" d="M272,-122.02C272,-139.37 272,-163 272,-163 272,-163 365.91,-163 365.91,-163"/>
<polygon fill="black" stroke="black" points="365.91,-166.5 375.91,-163 365.91,-159.5 365.91,-166.5"/>
</g>
<!-- UserAdminApiModule -->
<g id="node5" class="node">
<title>UserAdminApiModule</title>
<polygon fill="#8dd3c7" stroke="black" points="169.86,-122 166.86,-126 145.86,-126 142.86,-122 24.14,-122 24.14,-86 169.86,-86 169.86,-122"/>
<text text-anchor="middle" x="97" y="-99.8" font-family="Times,serif" font-size="14.00">UserAdminApiModule</text>
</g>
<!-- UserAdminApiModule&#45;&gt;ServerModule -->
<g id="edge5" class="edge">
<title>UserAdminApiModule&#45;&gt;ServerModule</title>
<path fill="none" stroke="black" d="M97,-122.28C97,-143.32 97,-175 97,-175 97,-175 365.75,-175 365.75,-175"/>
<polygon fill="black" stroke="black" points="365.75,-178.5 375.75,-175 365.75,-171.5 365.75,-178.5"/>
</g>
</g>
</svg>
