<?xml version="1.0" encoding="UTF-8" standalone="no"?>
<!DOCTYPE svg PUBLIC "-//W3C//DTD SVG 1.1//EN"
 "http://www.w3.org/Graphics/SVG/1.1/DTD/svg11.dtd">
<!-- Generated by graphviz version 2.47.0 (20210316.0004)
 -->
<!-- Title: dependencies Pages: 1 -->
<svg width="3942pt" height="211pt"
 viewBox="0.00 0.00 3942.00 211.00" xmlns="http://www.w3.org/2000/svg" xmlns:xlink="http://www.w3.org/1999/xlink">
<g id="graph0" class="graph" transform="scale(1 1) rotate(0) translate(4 207)">
<title>dependencies</title>
<polygon fill="white" stroke="transparent" points="-4,4 -4,-207 3938,-207 3938,4 -4,4"/>
<text text-anchor="start" x="1946.01" y="-42.4" font-family="Times-12" font-weight="bold" font-size="14.00">Legend</text>
<polygon fill="#ffffb3" stroke="transparent" points="1733,-10 1733,-30 1753,-30 1753,-10 1733,-10"/>
<text text-anchor="start" x="1756.63" y="-15.4" font-family="Times-12" font-size="14.00"> &#160;Declarations</text>
<polygon fill="#8dd3c7" stroke="transparent" points="1846,-10 1846,-30 1866,-30 1866,-10 1846,-10"/>
<text text-anchor="start" x="1869.73" y="-15.4" font-family="Times-12" font-size="14.00"> &#160;Module</text>
<polygon fill="#80b1d3" stroke="transparent" points="1932,-10 1932,-30 1952,-30 1952,-10 1932,-10"/>
<text text-anchor="start" x="1955.78" y="-15.4" font-family="Times-12" font-size="14.00"> &#160;Bootstrap</text>
<polygon fill="#fdb462" stroke="transparent" points="2029,-10 2029,-30 2049,-30 2049,-10 2029,-10"/>
<text text-anchor="start" x="2052.67" y="-15.4" font-family="Times-12" font-size="14.00"> &#160;Providers</text>
<polygon fill="#fb8072" stroke="transparent" points="2125,-10 2125,-30 2145,-30 2145,-10 2125,-10"/>
<text text-anchor="start" x="2148.73" y="-15.4" font-family="Times-12" font-size="14.00"> &#160;Exports</text>
<g id="clust1" class="cluster">
<title>cluster_ServerModule</title>
<polygon fill="none" stroke="black" stroke-dasharray="1,5" points="8,-70 8,-195 3926,-195 3926,-70 8,-70"/>
</g>
<g id="clust3" class="cluster">
<title>cluster_ServerModule_imports</title>
<polygon fill="none" stroke="black" points="16,-78 16,-130 3918,-130 3918,-78 16,-78"/>
</g>
<!-- AccountApiModule -->
<g id="node1" class="node">
<title>AccountApiModule</title>
<polygon fill="#8dd3c7" stroke="black" points="3909.97,-122 3906.97,-126 3885.97,-126 3882.97,-122 3782.03,-122 3782.03,-86 3909.97,-86 3909.97,-122"/>
<text text-anchor="middle" x="3846" y="-99.8" font-family="Times,serif" font-size="14.00">AccountApiModule</text>
</g>
<!-- ServerModule -->
<g id="node27" class="node">
<title>ServerModule</title>
<polygon fill="#8dd3c7" stroke="black" points="2036.08,-187 2033.08,-191 2012.08,-191 2009.08,-187 1939.92,-187 1939.92,-151 2036.08,-151 2036.08,-187"/>
<text text-anchor="middle" x="1988" y="-164.8" font-family="Times,serif" font-size="14.00">ServerModule</text>
</g>
<!-- AccountApiModule&#45;&gt;ServerModule -->
<g id="edge1" class="edge">
<title>AccountApiModule&#45;&gt;ServerModule</title>
<path fill="none" stroke="black" d="M3846,-122.38C3846,-146.28 3846,-185 3846,-185 3846,-185 2046.27,-185 2046.27,-185"/>
<polygon fill="black" stroke="black" points="2046.27,-181.5 2036.27,-185 2046.27,-188.5 2046.27,-181.5"/>
</g>
<!-- AuthenticationApiModule -->
<g id="node2" class="node">
<title>AuthenticationApiModule</title>
<polygon fill="#8dd3c7" stroke="black" points="3763.75,-122 3760.75,-126 3739.75,-126 3736.75,-122 3600.25,-122 3600.25,-86 3763.75,-86 3763.75,-122"/>
<text text-anchor="middle" x="3682" y="-99.8" font-family="Times,serif" font-size="14.00">AuthenticationApiModule</text>
</g>
<!-- AuthenticationApiModule&#45;&gt;ServerModule -->
<g id="edge2" class="edge">
<title>AuthenticationApiModule&#45;&gt;ServerModule</title>
<path fill="none" stroke="black" d="M3682,-122.09C3682,-145.13 3682,-182 3682,-182 3682,-182 2046.42,-182 2046.42,-182"/>
<polygon fill="black" stroke="black" points="2046.42,-178.5 2036.42,-182 2046.42,-185.5 2046.42,-178.5"/>
</g>
<!-- BoardApiModule -->
<g id="node3" class="node">
<title>BoardApiModule</title>
<polygon fill="#8dd3c7" stroke="black" points="3582.26,-122 3579.26,-126 3558.26,-126 3555.26,-122 3467.74,-122 3467.74,-86 3582.26,-86 3582.26,-122"/>
<text text-anchor="middle" x="3525" y="-99.8" font-family="Times,serif" font-size="14.00">BoardApiModule</text>
</g>
<!-- BoardApiModule&#45;&gt;ServerModule -->
<g id="edge3" class="edge">
<title>BoardApiModule&#45;&gt;ServerModule</title>
<path fill="none" stroke="black" d="M3525,-122.16C3525,-144.35 3525,-179 3525,-179 3525,-179 2046.11,-179 2046.11,-179"/>
<polygon fill="black" stroke="black" points="2046.11,-175.5 2036.11,-179 2046.11,-182.5 2046.11,-175.5"/>
</g>
<!-- CollaborativeStorageModule -->
<g id="node4" class="node">
<title>CollaborativeStorageModule</title>
<polygon fill="#8dd3c7" stroke="black" points="3449.02,-122 3446.02,-126 3425.02,-126 3422.02,-122 3270.98,-122 3270.98,-86 3449.02,-86 3449.02,-122"/>
<text text-anchor="middle" x="3360" y="-99.8" font-family="Times,serif" font-size="14.00">CollaborativeStorageModule</text>
</g>
<!-- CollaborativeStorageModule&#45;&gt;ServerModule -->
<g id="edge4" class="edge">
<title>CollaborativeStorageModule&#45;&gt;ServerModule</title>
<path fill="none" stroke="black" d="M3360,-122.17C3360,-143.5 3360,-176 3360,-176 3360,-176 2046.43,-176 2046.43,-176"/>
<polygon fill="black" stroke="black" points="2046.43,-172.5 2036.43,-176 2046.43,-179.5 2046.43,-172.5"/>
</g>
<!-- CoreModule -->
<g id="node5" class="node">
<title>CoreModule</title>
<polygon fill="#8dd3c7" stroke="black" points="3252.26,-122 3249.26,-126 3228.26,-126 3225.26,-122 3165.74,-122 3165.74,-86 3252.26,-86 3252.26,-122"/>
<text text-anchor="middle" x="3209" y="-99.8" font-family="Times,serif" font-size="14.00">CoreModule</text>
</g>
<!-- CoreModule&#45;&gt;ServerModule -->
<g id="edge5" class="edge">
<title>CoreModule&#45;&gt;ServerModule</title>
<path fill="none" stroke="black" d="M3209,-122.03C3209,-142.77 3209,-174 3209,-174 3209,-174 2046.24,-174 2046.24,-174"/>
<polygon fill="black" stroke="black" points="2046.24,-170.5 2036.24,-174 2046.24,-177.5 2046.24,-170.5"/>
</g>
<!-- FilesStorageClientModule -->
<g id="node6" class="node">
<title>FilesStorageClientModule</title>
<polygon fill="#8dd3c7" stroke="black" points="3147.76,-122 3144.76,-126 3123.76,-126 3120.76,-122 2984.24,-122 2984.24,-86 3147.76,-86 3147.76,-122"/>
<text text-anchor="middle" x="3066" y="-99.8" font-family="Times,serif" font-size="14.00">FilesStorageClientModule</text>
</g>
<!-- FilesStorageClientModule&#45;&gt;ServerModule -->
<g id="edge6" class="edge">
<title>FilesStorageClientModule&#45;&gt;ServerModule</title>
<path fill="none" stroke="black" d="M3066,-122.31C3066,-142.15 3066,-171 3066,-171 3066,-171 2046.06,-171 2046.06,-171"/>
<polygon fill="black" stroke="black" points="2046.06,-167.5 2036.06,-171 2046.06,-174.5 2046.06,-167.5"/>
</g>
<!-- GroupApiModule -->
<g id="node7" class="node">
<title>GroupApiModule</title>
<polygon fill="#8dd3c7" stroke="black" points="2966.31,-122 2963.31,-126 2942.31,-126 2939.31,-122 2849.69,-122 2849.69,-86 2966.31,-86 2966.31,-122"/>
<text text-anchor="middle" x="2908" y="-99.8" font-family="Times,serif" font-size="14.00">GroupApiModule</text>
</g>
<!-- GroupApiModule&#45;&gt;ServerModule -->
<g id="edge7" class="edge">
<title>GroupApiModule&#45;&gt;ServerModule</title>
<path fill="none" stroke="black" d="M2908,-122.17C2908,-141.09 2908,-168 2908,-168 2908,-168 2046.17,-168 2046.17,-168"/>
<polygon fill="black" stroke="black" points="2046.17,-164.5 2036.17,-168 2046.17,-171.5 2046.17,-164.5"/>
</g>
<!-- ImportUserModule -->
<g id="node8" class="node">
<title>ImportUserModule</title>
<polygon fill="#8dd3c7" stroke="black" points="2832.08,-122 2829.08,-126 2808.08,-126 2805.08,-122 2707.92,-122 2707.92,-86 2832.08,-86 2832.08,-122"/>
<text text-anchor="middle" x="2770" y="-99.8" font-family="Times,serif" font-size="14.00">ImportUserModule</text>
</g>
<!-- ImportUserModule&#45;&gt;ServerModule -->
<g id="edge8" class="edge">
<title>ImportUserModule&#45;&gt;ServerModule</title>
<path fill="none" stroke="black" d="M2770,-122.3C2770,-140.27 2770,-165 2770,-165 2770,-165 2046.33,-165 2046.33,-165"/>
<polygon fill="black" stroke="black" points="2046.33,-161.5 2036.33,-165 2046.33,-168.5 2046.33,-161.5"/>
</g>
<!-- LearnroomApiModule -->
<g id="node9" class="node">
<title>LearnroomApiModule</title>
<polygon fill="#8dd3c7" stroke="black" points="2690.24,-122 2687.24,-126 2666.24,-126 2663.24,-122 2547.76,-122 2547.76,-86 2690.24,-86 2690.24,-122"/>
<text text-anchor="middle" x="2619" y="-99.8" font-family="Times,serif" font-size="14.00">LearnroomApiModule</text>
</g>
<!-- LearnroomApiModule&#45;&gt;ServerModule -->
<g id="edge9" class="edge">
<title>LearnroomApiModule&#45;&gt;ServerModule</title>
<path fill="none" stroke="black" d="M2619,-122.02C2619,-139.37 2619,-163 2619,-163 2619,-163 2046.21,-163 2046.21,-163"/>
<polygon fill="black" stroke="black" points="2046.21,-159.5 2036.21,-163 2046.21,-166.5 2046.21,-159.5"/>
</g>
<!-- LegacySchoolApiModule -->
<g id="node10" class="node">
<title>LegacySchoolApiModule</title>
<polygon fill="#8dd3c7" stroke="black" points="2529.13,-122 2526.13,-126 2505.13,-126 2502.13,-122 2368.87,-122 2368.87,-86 2529.13,-86 2529.13,-122"/>
<text text-anchor="middle" x="2449" y="-99.8" font-family="Times,serif" font-size="14.00">LegacySchoolApiModule</text>
</g>
<!-- LegacySchoolApiModule&#45;&gt;ServerModule -->
<g id="edge10" class="edge">
<title>LegacySchoolApiModule&#45;&gt;ServerModule</title>
<path fill="none" stroke="black" d="M2449,-122.03C2449,-138.4 2449,-160 2449,-160 2449,-160 2046.46,-160 2046.46,-160"/>
<polygon fill="black" stroke="black" points="2046.46,-156.5 2036.46,-160 2046.46,-163.5 2046.46,-156.5"/>
</g>
<!-- LessonApiModule -->
<g id="node11" class="node">
<title>LessonApiModule</title>
<polygon fill="#8dd3c7" stroke="black" points="2351.2,-122 2348.2,-126 2327.2,-126 2324.2,-122 2230.8,-122 2230.8,-86 2351.2,-86 2351.2,-122"/>
<text text-anchor="middle" x="2291" y="-99.8" font-family="Times,serif" font-size="14.00">LessonApiModule</text>
</g>
<!-- LessonApiModule&#45;&gt;ServerModule -->
<g id="edge11" class="edge">
<title>LessonApiModule&#45;&gt;ServerModule</title>
<path fill="none" stroke="black" d="M2291,-122.24C2291,-137.57 2291,-157 2291,-157 2291,-157 2046.35,-157 2046.35,-157"/>
<polygon fill="black" stroke="black" points="2046.35,-153.5 2036.35,-157 2046.35,-160.5 2046.35,-153.5"/>
</g>
<!-- LoggerModule -->
<g id="node12" class="node">
<title>LoggerModule</title>
<polygon fill="#8dd3c7" stroke="black" points="2212.98,-122 2209.98,-126 2188.98,-126 2185.98,-122 2113.02,-122 2113.02,-86 2212.98,-86 2212.98,-122"/>
<text text-anchor="middle" x="2163" y="-99.8" font-family="Times,serif" font-size="14.00">LoggerModule</text>
</g>
<!-- LoggerModule&#45;&gt;ServerModule -->
<g id="edge12" class="edge">
<title>LoggerModule&#45;&gt;ServerModule</title>
<path fill="none" stroke="black" d="M2163,-122.05C2163,-136.37 2163,-154 2163,-154 2163,-154 2046.28,-154 2046.28,-154"/>
<polygon fill="black" stroke="black" points="2046.28,-150.5 2036.28,-154 2046.28,-157.5 2046.28,-150.5"/>
</g>
<!-- NewsModule -->
<g id="node13" class="node">
<title>NewsModule</title>
<polygon fill="#8dd3c7" stroke="black" points="2094.92,-122 2091.92,-126 2070.92,-126 2067.92,-122 2003.08,-122 2003.08,-86 2094.92,-86 2094.92,-122"/>
<text text-anchor="middle" x="2049" y="-99.8" font-family="Times,serif" font-size="14.00">NewsModule</text>
</g>
<!-- NewsModule&#45;&gt;ServerModule -->
<g id="edge13" class="edge">
<title>NewsModule&#45;&gt;ServerModule</title>
<path fill="none" stroke="black" d="M2019.67,-122.11C2019.67,-122.11 2019.67,-140.99 2019.67,-140.99"/>
<polygon fill="black" stroke="black" points="2016.17,-140.99 2019.67,-150.99 2023.17,-140.99 2016.17,-140.99"/>
</g>
<!-- OauthApiModule -->
<g id="node14" class="node">
<title>OauthApiModule</title>
<polygon fill="#8dd3c7" stroke="black" points="1985.26,-122 1982.26,-126 1961.26,-126 1958.26,-122 1870.74,-122 1870.74,-86 1985.26,-86 1985.26,-122"/>
<text text-anchor="middle" x="1928" y="-99.8" font-family="Times,serif" font-size="14.00">OauthApiModule</text>
</g>
<!-- OauthApiModule&#45;&gt;ServerModule -->
<g id="edge14" class="edge">
<title>OauthApiModule&#45;&gt;ServerModule</title>
<path fill="none" stroke="black" d="M1962.67,-122.11C1962.67,-122.11 1962.67,-140.99 1962.67,-140.99"/>
<polygon fill="black" stroke="black" points="1959.17,-140.99 1962.67,-150.99 1966.17,-140.99 1959.17,-140.99"/>
</g>
<!-- OauthProviderApiModule -->
<g id="node15" class="node">
<title>OauthProviderApiModule</title>
<polygon fill="#8dd3c7" stroke="black" points="1852.47,-122 1849.47,-126 1828.47,-126 1825.47,-122 1689.53,-122 1689.53,-86 1852.47,-86 1852.47,-122"/>
<text text-anchor="middle" x="1771" y="-99.8" font-family="Times,serif" font-size="14.00">OauthProviderApiModule</text>
</g>
<!-- OauthProviderApiModule&#45;&gt;ServerModule -->
<g id="edge15" class="edge">
<title>OauthProviderApiModule&#45;&gt;ServerModule</title>
<path fill="none" stroke="black" d="M1771,-122.05C1771,-136.37 1771,-154 1771,-154 1771,-154 1929.84,-154 1929.84,-154"/>
<polygon fill="black" stroke="black" points="1929.84,-157.5 1939.84,-154 1929.84,-150.5 1929.84,-157.5"/>
</g>
<!-- PseudonymApiModule -->
<g id="node16" class="node">
<title>PseudonymApiModule</title>
<polygon fill="#8dd3c7" stroke="black" points="1671.88,-122 1668.88,-126 1647.88,-126 1644.88,-122 1526.12,-122 1526.12,-86 1671.88,-86 1671.88,-122"/>
<text text-anchor="middle" x="1599" y="-99.8" font-family="Times,serif" font-size="14.00">PseudonymApiModule</text>
</g>
<!-- PseudonymApiModule&#45;&gt;ServerModule -->
<g id="edge16" class="edge">
<title>PseudonymApiModule&#45;&gt;ServerModule</title>
<path fill="none" stroke="black" d="M1599,-122.24C1599,-137.57 1599,-157 1599,-157 1599,-157 1929.91,-157 1929.91,-157"/>
<polygon fill="black" stroke="black" points="1929.91,-160.5 1939.91,-157 1929.91,-153.5 1929.91,-160.5"/>
</g>
<!-- RabbitMQWrapperModule -->
<g id="node17" class="node">
<title>RabbitMQWrapperModule</title>
<polygon fill="#8dd3c7" stroke="black" points="1508.4,-122 1505.4,-126 1484.4,-126 1481.4,-122 1339.6,-122 1339.6,-86 1508.4,-86 1508.4,-122"/>
<text text-anchor="middle" x="1424" y="-99.8" font-family="Times,serif" font-size="14.00">RabbitMQWrapperModule</text>
</g>
<!-- RabbitMQWrapperModule&#45;&gt;ServerModule -->
<g id="edge17" class="edge">
<title>RabbitMQWrapperModule&#45;&gt;ServerModule</title>
<path fill="none" stroke="black" d="M1424,-122.03C1424,-138.4 1424,-160 1424,-160 1424,-160 1929.91,-160 1929.91,-160"/>
<polygon fill="black" stroke="black" points="1929.91,-163.5 1939.91,-160 1929.91,-156.5 1929.91,-163.5"/>
</g>
<!-- RedisModule -->
<g id="node18" class="node">
<title>RedisModule</title>
<polygon fill="#8dd3c7" stroke="black" points="1321.94,-122 1318.94,-126 1297.94,-126 1294.94,-122 1230.06,-122 1230.06,-86 1321.94,-86 1321.94,-122"/>
<text text-anchor="middle" x="1276" y="-99.8" font-family="Times,serif" font-size="14.00">RedisModule</text>
</g>
<!-- RedisModule&#45;&gt;ServerModule -->
<g id="edge18" class="edge">
<title>RedisModule&#45;&gt;ServerModule</title>
<path fill="none" stroke="black" d="M1276,-122.02C1276,-139.37 1276,-163 1276,-163 1276,-163 1929.9,-163 1929.9,-163"/>
<polygon fill="black" stroke="black" points="1929.9,-166.5 1939.9,-163 1929.9,-159.5 1929.9,-166.5"/>
</g>
<!-- SharingApiModule -->
<g id="node19" class="node">
<title>SharingApiModule</title>
<polygon fill="#8dd3c7" stroke="black" points="1212.1,-122 1209.1,-126 1188.1,-126 1185.1,-122 1087.9,-122 1087.9,-86 1212.1,-86 1212.1,-122"/>
<text text-anchor="middle" x="1150" y="-99.8" font-family="Times,serif" font-size="14.00">SharingApiModule</text>
</g>
<!-- SharingApiModule&#45;&gt;ServerModule -->
<g id="edge19" class="edge">
<title>SharingApiModule&#45;&gt;ServerModule</title>
<path fill="none" stroke="black" d="M1150,-122.3C1150,-140.27 1150,-165 1150,-165 1150,-165 1929.94,-165 1929.94,-165"/>
<polygon fill="black" stroke="black" points="1929.94,-168.5 1939.94,-165 1929.94,-161.5 1929.94,-168.5"/>
</g>
<!-- SystemApiModule -->
<g id="node20" class="node">
<title>SystemApiModule</title>
<polygon fill="#8dd3c7" stroke="black" points="1069.77,-122 1066.77,-126 1045.77,-126 1042.77,-122 948.23,-122 948.23,-86 1069.77,-86 1069.77,-122"/>
<text text-anchor="middle" x="1009" y="-99.8" font-family="Times,serif" font-size="14.00">SystemApiModule</text>
</g>
<!-- SystemApiModule&#45;&gt;ServerModule -->
<g id="edge20" class="edge">
<title>SystemApiModule&#45;&gt;ServerModule</title>
<path fill="none" stroke="black" d="M1009,-122.17C1009,-141.09 1009,-168 1009,-168 1009,-168 1929.79,-168 1929.79,-168"/>
<polygon fill="black" stroke="black" points="1929.79,-171.5 1939.79,-168 1929.79,-164.5 1929.79,-171.5"/>
</g>
<!-- TaskApiModule -->
<g id="node21" class="node">
<title>TaskApiModule</title>
<polygon fill="#8dd3c7" stroke="black" points="929.76,-122 926.76,-126 905.76,-126 902.76,-122 822.24,-122 822.24,-86 929.76,-86 929.76,-122"/>
<text text-anchor="middle" x="876" y="-99.8" font-family="Times,serif" font-size="14.00">TaskApiModule</text>
</g>
<!-- TaskApiModule&#45;&gt;ServerModule -->
<g id="edge21" class="edge">
<title>TaskApiModule&#45;&gt;ServerModule</title>
<path fill="none" stroke="black" d="M876,-122.31C876,-142.15 876,-171 876,-171 876,-171 1929.86,-171 1929.86,-171"/>
<polygon fill="black" stroke="black" points="1929.86,-174.5 1939.86,-171 1929.86,-167.5 1929.86,-174.5"/>
</g>
<!-- TeamsApiModule -->
<g id="node22" class="node">
<title>TeamsApiModule</title>
<polygon fill="#8dd3c7" stroke="black" points="803.86,-122 800.86,-126 779.86,-126 776.86,-122 686.14,-122 686.14,-86 803.86,-86 803.86,-122"/>
<text text-anchor="middle" x="745" y="-99.8" font-family="Times,serif" font-size="14.00">TeamsApiModule</text>
</g>
<!-- TeamsApiModule&#45;&gt;ServerModule -->
<g id="edge22" class="edge">
<title>TeamsApiModule&#45;&gt;ServerModule</title>
<path fill="none" stroke="black" d="M745,-122.03C745,-142.77 745,-174 745,-174 745,-174 1929.65,-174 1929.65,-174"/>
<polygon fill="black" stroke="black" points="1929.65,-177.5 1939.65,-174 1929.65,-170.5 1929.65,-177.5"/>
</g>
<!-- ToolApiModule -->
<g id="node23" class="node">
<title>ToolApiModule</title>
<polygon fill="#8dd3c7" stroke="black" points="668.49,-122 665.49,-126 644.49,-126 641.49,-122 561.51,-122 561.51,-86 668.49,-86 668.49,-122"/>
<text text-anchor="middle" x="615" y="-99.8" font-family="Times,serif" font-size="14.00">ToolApiModule</text>
</g>
<!-- ToolApiModule&#45;&gt;ServerModule -->
<g id="edge23" class="edge">
<title>ToolApiModule&#45;&gt;ServerModule</title>
<path fill="none" stroke="black" d="M615,-122.17C615,-143.5 615,-176 615,-176 615,-176 1929.94,-176 1929.94,-176"/>
<polygon fill="black" stroke="black" points="1929.94,-179.5 1939.94,-176 1929.94,-172.5 1929.94,-179.5"/>
</g>
<!-- UserApiModule -->
<g id="node24" class="node">
<title>UserApiModule</title>
<polygon fill="#8dd3c7" stroke="black" points="543.47,-122 540.47,-126 519.47,-126 516.47,-122 436.53,-122 436.53,-86 543.47,-86 543.47,-122"/>
<text text-anchor="middle" x="490" y="-99.8" font-family="Times,serif" font-size="14.00">UserApiModule</text>
</g>
<!-- UserApiModule&#45;&gt;ServerModule -->
<g id="edge24" class="edge">
<title>UserApiModule&#45;&gt;ServerModule</title>
<path fill="none" stroke="black" d="M490,-122.16C490,-144.35 490,-179 490,-179 490,-179 1929.86,-179 1929.86,-179"/>
<polygon fill="black" stroke="black" points="1929.86,-182.5 1939.86,-179 1929.86,-175.5 1929.86,-182.5"/>
</g>
<!-- UserLoginMigrationApiModule -->
<g id="node25" class="node">
<title>UserLoginMigrationApiModule</title>
<polygon fill="#8dd3c7" stroke="black" points="418.41,-122 415.41,-126 394.41,-126 391.41,-122 221.59,-122 221.59,-86 418.41,-86 418.41,-122"/>
<text text-anchor="middle" x="320" y="-99.8" font-family="Times,serif" font-size="14.00">UserLoginMigrationApiModule</text>
</g>
<!-- UserLoginMigrationApiModule&#45;&gt;ServerModule -->
<g id="edge25" class="edge">
<title>UserLoginMigrationApiModule&#45;&gt;ServerModule</title>
<path fill="none" stroke="black" d="M320,-122.09C320,-145.13 320,-182 320,-182 320,-182 1929.88,-182 1929.88,-182"/>
<polygon fill="black" stroke="black" points="1929.88,-185.5 1939.88,-182 1929.88,-178.5 1929.88,-185.5"/>
</g>
<!-- VideoConferenceApiModule -->
<g id="node26" class="node">
<title>VideoConferenceApiModule</title>
<polygon fill="#8dd3c7" stroke="black" points="203.78,-122 200.78,-126 179.78,-126 176.78,-122 24.22,-122 24.22,-86 203.78,-86 203.78,-122"/>
<text text-anchor="middle" x="114" y="-99.8" font-family="Times,serif" font-size="14.00">VideoConferenceApiModule</text>
</g>
<!-- VideoConferenceApiModule&#45;&gt;ServerModule -->
<g id="edge26" class="edge">
<title>VideoConferenceApiModule&#45;&gt;ServerModule</title>
<path fill="none" stroke="black" d="M114,-122.38C114,-146.28 114,-185 114,-185 114,-185 1929.79,-185 1929.79,-185"/>
<polygon fill="black" stroke="black" points="1929.79,-188.5 1939.79,-185 1929.79,-181.5 1929.79,-188.5"/>
</g>
</g>
</svg>
