<?xml version="1.0" encoding="UTF-8" standalone="no"?>
<!DOCTYPE svg PUBLIC "-//W3C//DTD SVG 1.1//EN"
 "http://www.w3.org/Graphics/SVG/1.1/DTD/svg11.dtd">
<!-- Generated by graphviz version 2.47.0 (20210316.0004)
 -->
<!-- Title: dependencies Pages: 1 -->
<svg width="988pt" height="211pt"
 viewBox="0.00 0.00 988.00 211.00" xmlns="http://www.w3.org/2000/svg" xmlns:xlink="http://www.w3.org/1999/xlink">
<g id="graph0" class="graph" transform="scale(1 1) rotate(0) translate(4 207)">
<title>dependencies</title>
<polygon fill="white" stroke="transparent" points="-4,4 -4,-207 984,-207 984,4 -4,4"/>
<text text-anchor="start" x="469.01" y="-42.4" font-family="Times-12" font-weight="bold" font-size="14.00">Legend</text>
<polygon fill="#ffffb3" stroke="transparent" points="256,-10 256,-30 276,-30 276,-10 256,-10"/>
<text text-anchor="start" x="279.63" y="-15.4" font-family="Times-12" font-size="14.00"> &#160;Declarations</text>
<polygon fill="#8dd3c7" stroke="transparent" points="369,-10 369,-30 389,-30 389,-10 369,-10"/>
<text text-anchor="start" x="392.73" y="-15.4" font-family="Times-12" font-size="14.00"> &#160;Module</text>
<polygon fill="#80b1d3" stroke="transparent" points="455,-10 455,-30 475,-30 475,-10 455,-10"/>
<text text-anchor="start" x="478.78" y="-15.4" font-family="Times-12" font-size="14.00"> &#160;Bootstrap</text>
<polygon fill="#fdb462" stroke="transparent" points="552,-10 552,-30 572,-30 572,-10 552,-10"/>
<text text-anchor="start" x="575.67" y="-15.4" font-family="Times-12" font-size="14.00"> &#160;Providers</text>
<polygon fill="#fb8072" stroke="transparent" points="648,-10 648,-30 668,-30 668,-10 648,-10"/>
<text text-anchor="start" x="671.73" y="-15.4" font-family="Times-12" font-size="14.00"> &#160;Exports</text>
<g id="clust1" class="cluster">
<title>cluster_ServerModule</title>
<polygon fill="none" stroke="black" stroke-dasharray="1,5" points="8,-70 8,-195 972,-195 972,-70 8,-70"/>
</g>
<g id="clust3" class="cluster">
<title>cluster_ServerModule_imports</title>
<polygon fill="none" stroke="black" points="134,-78 134,-130 964,-130 964,-78 134,-78"/>
</g>
<g id="clust6" class="cluster">
<title>cluster_ServerModule_providers</title>
<polygon fill="none" stroke="black" points="16,-78 16,-130 126,-130 126,-78 16,-78"/>
</g>
<!-- DeletionApiModule -->
<g id="node1" class="node">
<title>DeletionApiModule</title>
<polygon fill="#8dd3c7" stroke="black" points="956.25,-122 953.25,-126 932.25,-126 929.25,-122 827.75,-122 827.75,-86 956.25,-86 956.25,-122"/>
<text text-anchor="middle" x="892" y="-99.8" font-family="Times,serif" font-size="14.00">DeletionApiModule</text>
</g>
<!-- ServerModule -->
<g id="node6" class="node">
<title>ServerModule</title>
<polygon fill="#8dd3c7" stroke="black" points="514.08,-187 511.08,-191 490.08,-191 487.08,-187 417.92,-187 417.92,-151 514.08,-151 514.08,-187"/>
<text text-anchor="middle" x="466" y="-164.8" font-family="Times,serif" font-size="14.00">ServerModule</text>
</g>
<!-- DeletionApiModule&#45;&gt;ServerModule -->
<g id="edge1" class="edge">
<title>DeletionApiModule&#45;&gt;ServerModule</title>
<path fill="none" stroke="black" d="M892,-122.28C892,-143.32 892,-175 892,-175 892,-175 524.45,-175 524.45,-175"/>
<polygon fill="black" stroke="black" points="524.45,-171.5 514.45,-175 524.45,-178.5 524.45,-171.5"/>
</g>
<!-- LegacySchoolAdminApiModule -->
<g id="node2" class="node">
<title>LegacySchoolAdminApiModule</title>
<polygon fill="#8dd3c7" stroke="black" points="809.52,-122 806.52,-126 785.52,-126 782.52,-122 610.48,-122 610.48,-86 809.52,-86 809.52,-122"/>
<text text-anchor="middle" x="710" y="-99.8" font-family="Times,serif" font-size="14.00">LegacySchoolAdminApiModule</text>
</g>
<!-- LegacySchoolAdminApiModule&#45;&gt;ServerModule -->
<g id="edge2" class="edge">
<title>LegacySchoolAdminApiModule&#45;&gt;ServerModule</title>
<path fill="none" stroke="black" d="M710,-122.02C710,-139.37 710,-163 710,-163 710,-163 524.21,-163 524.21,-163"/>
<polygon fill="black" stroke="black" points="524.21,-159.5 514.21,-163 524.21,-166.5 524.21,-159.5"/>
</g>
<!-- LoggerModule -->
<g id="node3" class="node">
<title>LoggerModule</title>
<polygon fill="#8dd3c7" stroke="black" points="591.98,-122 588.98,-126 567.98,-126 564.98,-122 492.02,-122 492.02,-86 591.98,-86 591.98,-122"/>
<text text-anchor="middle" x="542" y="-99.8" font-family="Times,serif" font-size="14.00">LoggerModule</text>
</g>
<!-- LoggerModule&#45;&gt;ServerModule -->
<g id="edge3" class="edge">
<title>LoggerModule&#45;&gt;ServerModule</title>
<path fill="none" stroke="black" d="M503.03,-122.11C503.03,-122.11 503.03,-140.99 503.03,-140.99"/>
<polygon fill="black" stroke="black" points="499.53,-140.99 503.03,-150.99 506.53,-140.99 499.53,-140.99"/>
</g>
<!-- RabbitMQWrapperModule -->
<g id="node4" class="node">
<title>RabbitMQWrapperModule</title>
<polygon fill="#8dd3c7" stroke="black" points="474.4,-122 471.4,-126 450.4,-126 447.4,-122 305.6,-122 305.6,-86 474.4,-86 474.4,-122"/>
<text text-anchor="middle" x="390" y="-99.8" font-family="Times,serif" font-size="14.00">RabbitMQWrapperModule</text>
</g>
<!-- RabbitMQWrapperModule&#45;&gt;ServerModule -->
<g id="edge4" class="edge">
<title>RabbitMQWrapperModule&#45;&gt;ServerModule</title>
<path fill="none" stroke="black" d="M446.08,-122.11C446.08,-122.11 446.08,-140.99 446.08,-140.99"/>
<polygon fill="black" stroke="black" points="442.58,-140.99 446.08,-150.99 449.58,-140.99 442.58,-140.99"/>
</g>
<!-- UserAdminApiModule -->
<g id="node5" class="node">
<title>UserAdminApiModule</title>
<polygon fill="#8dd3c7" stroke="black" points="287.86,-122 284.86,-126 263.86,-126 260.86,-122 142.14,-122 142.14,-86 287.86,-86 287.86,-122"/>
<text text-anchor="middle" x="215" y="-99.8" font-family="Times,serif" font-size="14.00">UserAdminApiModule</text>
</g>
<!-- UserAdminApiModule&#45;&gt;ServerModule -->
<g id="edge5" class="edge">
<title>UserAdminApiModule&#45;&gt;ServerModule</title>
<path fill="none" stroke="black" d="M215,-122.02C215,-139.37 215,-163 215,-163 215,-163 407.9,-163 407.9,-163"/>
<polygon fill="black" stroke="black" points="407.9,-166.5 417.9,-163 407.9,-159.5 407.9,-166.5"/>
</g>
<!-- ServerUc -->
<g id="node7" class="node">
<title>ServerUc</title>
<ellipse fill="#fdb462" stroke="black" cx="71" cy="-104" rx="47.49" ry="18"/>
<text text-anchor="middle" x="71" y="-99.8" font-family="Times,serif" font-size="14.00">ServerUc</text>
</g>
<!-- ServerUc&#45;&gt;ServerModule -->
<g id="edge6" class="edge">
<title>ServerUc&#45;&gt;ServerModule</title>
<path fill="none" stroke="black" d="M71,-122.28C71,-143.32 71,-175 71,-175 71,-175 407.57,-175 407.57,-175"/>
<polygon fill="black" stroke="black" points="407.57,-178.5 417.57,-175 407.57,-171.5 407.57,-178.5"/>
</g>
</g>
</svg>
