<?xml version="1.0" encoding="UTF-8" standalone="no"?>
<!DOCTYPE svg PUBLIC "-//W3C//DTD SVG 1.1//EN"
 "http://www.w3.org/Graphics/SVG/1.1/DTD/svg11.dtd">
<!-- Generated by graphviz version 2.47.0 (20210316.0004)
 -->
<!-- Title: dependencies Pages: 1 -->
<svg width="598pt" height="211pt"
 viewBox="0.00 0.00 598.00 211.00" xmlns="http://www.w3.org/2000/svg" xmlns:xlink="http://www.w3.org/1999/xlink">
<g id="graph0" class="graph" transform="scale(1 1) rotate(0) translate(4 207)">
<title>dependencies</title>
<polygon fill="white" stroke="transparent" points="-4,4 -4,-207 594,-207 594,4 -4,4"/>
<text text-anchor="start" x="274.01" y="-42.4" font-family="Times-12" font-weight="bold" font-size="14.00">Legend</text>
<polygon fill="#ffffb3" stroke="transparent" points="61,-10 61,-30 81,-30 81,-10 61,-10"/>
<text text-anchor="start" x="84.63" y="-15.4" font-family="Times-12" font-size="14.00"> &#160;Declarations</text>
<polygon fill="#8dd3c7" stroke="transparent" points="174,-10 174,-30 194,-30 194,-10 174,-10"/>
<text text-anchor="start" x="197.73" y="-15.4" font-family="Times-12" font-size="14.00"> &#160;Module</text>
<polygon fill="#80b1d3" stroke="transparent" points="260,-10 260,-30 280,-30 280,-10 260,-10"/>
<text text-anchor="start" x="283.78" y="-15.4" font-family="Times-12" font-size="14.00"> &#160;Bootstrap</text>
<polygon fill="#fdb462" stroke="transparent" points="357,-10 357,-30 377,-30 377,-10 357,-10"/>
<text text-anchor="start" x="380.67" y="-15.4" font-family="Times-12" font-size="14.00"> &#160;Providers</text>
<polygon fill="#fb8072" stroke="transparent" points="453,-10 453,-30 473,-30 473,-10 453,-10"/>
<text text-anchor="start" x="476.73" y="-15.4" font-family="Times-12" font-size="14.00"> &#160;Exports</text>
<g id="clust1" class="cluster">
<title>cluster_ServerModule</title>
<polygon fill="none" stroke="black" stroke-dasharray="1,5" points="8,-70 8,-195 582,-195 582,-70 8,-70"/>
</g>
<g id="clust3" class="cluster">
<title>cluster_ServerModule_imports</title>
<polygon fill="none" stroke="black" points="16,-78 16,-130 574,-130 574,-78 16,-78"/>
</g>
<!-- DeletionApiModule -->
<g id="node1" class="node">
<title>DeletionApiModule</title>
<polygon fill="#8dd3c7" stroke="black" points="566.25,-122 563.25,-126 542.25,-126 539.25,-122 437.75,-122 437.75,-86 566.25,-86 566.25,-122"/>
<text text-anchor="middle" x="502" y="-99.8" font-family="Times,serif" font-size="14.00">DeletionApiModule</text>
</g>
<!-- ServerModule -->
<g id="node5" class="node">
<title>ServerModule</title>
<polygon fill="#8dd3c7" stroke="black" points="342.08,-187 339.08,-191 318.08,-191 315.08,-187 245.92,-187 245.92,-151 342.08,-151 342.08,-187"/>
<text text-anchor="middle" x="294" y="-164.8" font-family="Times,serif" font-size="14.00">ServerModule</text>
</g>
<!-- DeletionApiModule&#45;&gt;ServerModule -->
<g id="edge1" class="edge">
<title>DeletionApiModule&#45;&gt;ServerModule</title>
<path fill="none" stroke="black" d="M502,-122.11C502,-141.34 502,-169 502,-169 502,-169 352.24,-169 352.24,-169"/>
<polygon fill="black" stroke="black" points="352.24,-165.5 342.24,-169 352.24,-172.5 352.24,-165.5"/>
</g>
<!-- LoggerModule -->
<g id="node2" class="node">
<title>LoggerModule</title>
<polygon fill="#8dd3c7" stroke="black" points="419.98,-122 416.98,-126 395.98,-126 392.98,-122 320.02,-122 320.02,-86 419.98,-86 419.98,-122"/>
<text text-anchor="middle" x="370" y="-99.8" font-family="Times,serif" font-size="14.00">LoggerModule</text>
</g>
<!-- LoggerModule&#45;&gt;ServerModule -->
<g id="edge2" class="edge">
<title>LoggerModule&#45;&gt;ServerModule</title>
<path fill="none" stroke="black" d="M331.03,-122.11C331.03,-122.11 331.03,-140.99 331.03,-140.99"/>
<polygon fill="black" stroke="black" points="327.53,-140.99 331.03,-150.99 334.53,-140.99 327.53,-140.99"/>
</g>
<!-- RabbitMQWrapperModule -->
<g id="node3" class="node">
<title>RabbitMQWrapperModule</title>
<polygon fill="#8dd3c7" stroke="black" points="302.4,-122 299.4,-126 278.4,-126 275.4,-122 133.6,-122 133.6,-86 302.4,-86 302.4,-122"/>
<text text-anchor="middle" x="218" y="-99.8" font-family="Times,serif" font-size="14.00">RabbitMQWrapperModule</text>
</g>
<!-- RabbitMQWrapperModule&#45;&gt;ServerModule -->
<g id="edge3" class="edge">
<title>RabbitMQWrapperModule&#45;&gt;ServerModule</title>
<path fill="none" stroke="black" d="M274.08,-122.11C274.08,-122.11 274.08,-140.99 274.08,-140.99"/>
<polygon fill="black" stroke="black" points="270.58,-140.99 274.08,-150.99 277.58,-140.99 270.58,-140.99"/>
</g>
<!-- RedisModule -->
<g id="node4" class="node">
<title>RedisModule</title>
<polygon fill="#8dd3c7" stroke="black" points="115.94,-122 112.94,-126 91.94,-126 88.94,-122 24.06,-122 24.06,-86 115.94,-86 115.94,-122"/>
<text text-anchor="middle" x="70" y="-99.8" font-family="Times,serif" font-size="14.00">RedisModule</text>
</g>
<!-- RedisModule&#45;&gt;ServerModule -->
<g id="edge4" class="edge">
<title>RedisModule&#45;&gt;ServerModule</title>
<path fill="none" stroke="black" d="M70,-122.11C70,-141.34 70,-169 70,-169 70,-169 235.95,-169 235.95,-169"/>
<polygon fill="black" stroke="black" points="235.95,-172.5 245.95,-169 235.95,-165.5 235.95,-172.5"/>
</g>
</g>
</svg>
