<?xml version="1.0" encoding="UTF-8" standalone="no"?>
<!DOCTYPE svg PUBLIC "-//W3C//DTD SVG 1.1//EN"
 "http://www.w3.org/Graphics/SVG/1.1/DTD/svg11.dtd">
<!-- Generated by graphviz version 5.0.0 (20220707.1540)
 -->
<!-- Title: dependencies Pages: 1 -->
<svg width="3880pt" height="174pt"
 viewBox="0.00 0.00 3880.00 173.80" xmlns="http://www.w3.org/2000/svg" xmlns:xlink="http://www.w3.org/1999/xlink">
<g id="graph0" class="graph" transform="scale(1 1) rotate(0) translate(4 169.8)">
<title>dependencies</title>
<polygon fill="white" stroke="transparent" points="-4,4 -4,-169.8 3876,-169.8 3876,4 -4,4"/>
<text text-anchor="middle" x="1936" y="-8.2" font-family="sans-serif" font-size="14.00">dependencies</text>
<g id="clust1" class="cluster">
<title>cluster_ServerModule</title>
<polygon fill="none" stroke="black" stroke-dasharray="1,5" points="8,-32.8 8,-157.8 3864,-157.8 3864,-32.8 8,-32.8"/>
</g>
<g id="clust3" class="cluster">
<title>cluster_ServerModule_imports</title>
<polygon fill="none" stroke="black" points="16,-40.8 16,-92.8 3856,-92.8 3856,-40.8 16,-40.8"/>
</g>
<!-- AccountApiModule -->
<g id="node1" class="node">
<title>AccountApiModule</title>
<polygon fill="#8dd3c7" stroke="black" points="3847.98,-84.8 3844.98,-88.8 3823.98,-88.8 3820.98,-84.8 3720.02,-84.8 3720.02,-48.8 3847.98,-48.8 3847.98,-84.8"/>
<text text-anchor="middle" x="3784" y="-62.6" font-family="Times,serif" font-size="14.00">AccountApiModule</text>
</g>
<!-- ServerModule -->
<g id="node28" class="node">
<title>ServerModule</title>
<polygon fill="#8dd3c7" stroke="black" points="1990.09,-149.8 1987.09,-153.8 1966.09,-153.8 1963.09,-149.8 1893.91,-149.8 1893.91,-113.8 1990.09,-113.8 1990.09,-149.8"/>
<text text-anchor="middle" x="1942" y="-127.6" font-family="Times,serif" font-size="14.00">ServerModule</text>
</g>
<!-- AccountApiModule&#45;&gt;ServerModule -->
<g id="edge1" class="edge">
<title>AccountApiModule&#45;&gt;ServerModule</title>
<path fill="none" stroke="black" d="M3784,-85.18C3784,-109.08 3784,-147.8 3784,-147.8 3784,-147.8 2000.32,-147.8 2000.32,-147.8"/>
<polygon fill="black" stroke="black" points="2000.32,-144.3 1990.32,-147.8 2000.32,-151.3 2000.32,-144.3"/>
</g>
<!-- AuthenticationApiModule -->
<g id="node2" class="node">
<title>AuthenticationApiModule</title>
<polygon fill="#8dd3c7" stroke="black" points="3701.75,-84.8 3698.75,-88.8 3677.75,-88.8 3674.75,-84.8 3538.25,-84.8 3538.25,-48.8 3701.75,-48.8 3701.75,-84.8"/>
<text text-anchor="middle" x="3620" y="-62.6" font-family="Times,serif" font-size="14.00">AuthenticationApiModule</text>
</g>
<!-- AuthenticationApiModule&#45;&gt;ServerModule -->
<g id="edge2" class="edge">
<title>AuthenticationApiModule&#45;&gt;ServerModule</title>
<path fill="none" stroke="black" d="M3620,-84.89C3620,-107.93 3620,-144.8 3620,-144.8 3620,-144.8 2000.41,-144.8 2000.41,-144.8"/>
<polygon fill="black" stroke="black" points="2000.41,-141.3 1990.41,-144.8 2000.41,-148.3 2000.41,-141.3"/>
</g>
<!-- BoardApiModule -->
<g id="node3" class="node">
<title>BoardApiModule</title>
<polygon fill="#8dd3c7" stroke="black" points="3520.27,-84.8 3517.27,-88.8 3496.27,-88.8 3493.27,-84.8 3405.73,-84.8 3405.73,-48.8 3520.27,-48.8 3520.27,-84.8"/>
<text text-anchor="middle" x="3463" y="-62.6" font-family="Times,serif" font-size="14.00">BoardApiModule</text>
</g>
<!-- BoardApiModule&#45;&gt;ServerModule -->
<g id="edge3" class="edge">
<title>BoardApiModule&#45;&gt;ServerModule</title>
<path fill="none" stroke="black" d="M3463,-84.81C3463,-107.29 3463,-142.8 3463,-142.8 3463,-142.8 2000.46,-142.8 2000.46,-142.8"/>
<polygon fill="black" stroke="black" points="2000.46,-139.3 1990.46,-142.8 2000.46,-146.3 2000.46,-139.3"/>
</g>
<!-- BoardModule -->
<g id="node4" class="node">
<title>BoardModule</title>
<polygon fill="#8dd3c7" stroke="black" points="3387.77,-84.8 3384.77,-88.8 3363.77,-88.8 3360.77,-84.8 3294.23,-84.8 3294.23,-48.8 3387.77,-48.8 3387.77,-84.8"/>
<text text-anchor="middle" x="3341" y="-62.6" font-family="Times,serif" font-size="14.00">BoardModule</text>
</g>
<!-- BoardModule&#45;&gt;ServerModule -->
<g id="edge4" class="edge">
<title>BoardModule&#45;&gt;ServerModule</title>
<path fill="none" stroke="black" d="M3341,-84.84C3341,-106.46 3341,-139.8 3341,-139.8 3341,-139.8 2000.16,-139.8 2000.16,-139.8"/>
<polygon fill="black" stroke="black" points="2000.16,-136.3 1990.16,-139.8 2000.16,-143.3 2000.16,-136.3"/>
</g>
<!-- CollaborativeStorageModule -->
<g id="node5" class="node">
<title>CollaborativeStorageModule</title>
<polygon fill="#8dd3c7" stroke="black" points="3276.02,-84.8 3273.02,-88.8 3252.02,-88.8 3249.02,-84.8 3097.98,-84.8 3097.98,-48.8 3276.02,-48.8 3276.02,-84.8"/>
<text text-anchor="middle" x="3187" y="-62.6" font-family="Times,serif" font-size="14.00">CollaborativeStorageModule</text>
</g>
<!-- CollaborativeStorageModule&#45;&gt;ServerModule -->
<g id="edge5" class="edge">
<title>CollaborativeStorageModule&#45;&gt;ServerModule</title>
<path fill="none" stroke="black" d="M3187,-85.08C3187,-106.12 3187,-137.8 3187,-137.8 3187,-137.8 2000.42,-137.8 2000.42,-137.8"/>
<polygon fill="black" stroke="black" points="2000.42,-134.3 1990.42,-137.8 2000.42,-141.3 2000.42,-134.3"/>
</g>
<!-- CoreModule -->
<g id="node6" class="node">
<title>CoreModule</title>
<polygon fill="#8dd3c7" stroke="black" points="3079.27,-84.8 3076.27,-88.8 3055.27,-88.8 3052.27,-84.8 2992.73,-84.8 2992.73,-48.8 3079.27,-48.8 3079.27,-84.8"/>
<text text-anchor="middle" x="3036" y="-62.6" font-family="Times,serif" font-size="14.00">CoreModule</text>
</g>
<!-- CoreModule&#45;&gt;ServerModule -->
<g id="edge6" class="edge">
<title>CoreModule&#45;&gt;ServerModule</title>
<path fill="none" stroke="black" d="M3036,-85.02C3036,-105.17 3036,-134.8 3036,-134.8 3036,-134.8 2000.06,-134.8 2000.06,-134.8"/>
<polygon fill="black" stroke="black" points="2000.06,-131.3 1990.06,-134.8 2000.06,-138.3 2000.06,-131.3"/>
</g>
<!-- FilesStorageClientModule -->
<g id="node7" class="node">
<title>FilesStorageClientModule</title>
<polygon fill="#8dd3c7" stroke="black" points="2974.77,-84.8 2971.77,-88.8 2950.77,-88.8 2947.77,-84.8 2811.23,-84.8 2811.23,-48.8 2974.77,-48.8 2974.77,-84.8"/>
<text text-anchor="middle" x="2893" y="-62.6" font-family="Times,serif" font-size="14.00">FilesStorageClientModule</text>
</g>
<!-- FilesStorageClientModule&#45;&gt;ServerModule -->
<g id="edge7" class="edge">
<title>FilesStorageClientModule&#45;&gt;ServerModule</title>
<path fill="none" stroke="black" d="M2893,-84.91C2893,-104.14 2893,-131.8 2893,-131.8 2893,-131.8 2000.14,-131.8 2000.14,-131.8"/>
<polygon fill="black" stroke="black" points="2000.14,-128.3 1990.14,-131.8 2000.14,-135.3 2000.14,-128.3"/>
</g>
<!-- ImportUserModule -->
<g id="node8" class="node">
<title>ImportUserModule</title>
<polygon fill="#8dd3c7" stroke="black" points="2793.09,-84.8 2790.09,-88.8 2769.09,-88.8 2766.09,-84.8 2668.91,-84.8 2668.91,-48.8 2793.09,-48.8 2793.09,-84.8"/>
<text text-anchor="middle" x="2731" y="-62.6" font-family="Times,serif" font-size="14.00">ImportUserModule</text>
</g>
<!-- ImportUserModule&#45;&gt;ServerModule -->
<g id="edge8" class="edge">
<title>ImportUserModule&#45;&gt;ServerModule</title>
<path fill="none" stroke="black" d="M2731,-85.02C2731,-103.63 2731,-129.8 2731,-129.8 2731,-129.8 2000.17,-129.8 2000.17,-129.8"/>
<polygon fill="black" stroke="black" points="2000.17,-126.3 1990.17,-129.8 2000.17,-133.3 2000.17,-126.3"/>
</g>
<!-- LearnroomModule -->
<g id="node9" class="node">
<title>LearnroomModule</title>
<polygon fill="#8dd3c7" stroke="black" points="2650.75,-84.8 2647.75,-88.8 2626.75,-88.8 2623.75,-84.8 2529.25,-84.8 2529.25,-48.8 2650.75,-48.8 2650.75,-84.8"/>
<text text-anchor="middle" x="2590" y="-62.6" font-family="Times,serif" font-size="14.00">LearnroomModule</text>
</g>
<!-- LearnroomModule&#45;&gt;ServerModule -->
<g id="edge9" class="edge">
<title>LearnroomModule&#45;&gt;ServerModule</title>
<path fill="none" stroke="black" d="M2590,-84.8C2590,-102.48 2590,-126.8 2590,-126.8 2590,-126.8 2000.18,-126.8 2000.18,-126.8"/>
<polygon fill="black" stroke="black" points="2000.18,-123.3 1990.18,-126.8 2000.18,-130.3 2000.18,-123.3"/>
</g>
<!-- LessonApiModule -->
<g id="node10" class="node">
<title>LessonApiModule</title>
<polygon fill="#8dd3c7" stroke="black" points="2511.21,-84.8 2508.21,-88.8 2487.21,-88.8 2484.21,-84.8 2390.79,-84.8 2390.79,-48.8 2511.21,-48.8 2511.21,-84.8"/>
<text text-anchor="middle" x="2451" y="-62.6" font-family="Times,serif" font-size="14.00">LessonApiModule</text>
</g>
<!-- LessonApiModule&#45;&gt;ServerModule -->
<g id="edge10" class="edge">
<title>LessonApiModule&#45;&gt;ServerModule</title>
<path fill="none" stroke="black" d="M2451,-84.83C2451,-101.86 2451,-124.8 2451,-124.8 2451,-124.8 2000.34,-124.8 2000.34,-124.8"/>
<polygon fill="black" stroke="black" points="2000.34,-121.3 1990.34,-124.8 2000.34,-128.3 2000.34,-121.3"/>
</g>
<!-- LoggerModule -->
<g id="node11" class="node">
<title>LoggerModule</title>
<polygon fill="#8dd3c7" stroke="black" points="2372.98,-84.8 2369.98,-88.8 2348.98,-88.8 2345.98,-84.8 2273.02,-84.8 2273.02,-48.8 2372.98,-48.8 2372.98,-84.8"/>
<text text-anchor="middle" x="2323" y="-62.6" font-family="Times,serif" font-size="14.00">LoggerModule</text>
</g>
<!-- LoggerModule&#45;&gt;ServerModule -->
<g id="edge11" class="edge">
<title>LoggerModule&#45;&gt;ServerModule</title>
<path fill="none" stroke="black" d="M2323,-84.81C2323,-100.85 2323,-121.8 2323,-121.8 2323,-121.8 2000.25,-121.8 2000.25,-121.8"/>
<polygon fill="black" stroke="black" points="2000.25,-118.3 1990.25,-121.8 2000.25,-125.3 2000.25,-118.3"/>
</g>
<!-- NewsModule -->
<g id="node12" class="node">
<title>NewsModule</title>
<polygon fill="#8dd3c7" stroke="black" points="2254.94,-84.8 2251.94,-88.8 2230.94,-88.8 2227.94,-84.8 2163.06,-84.8 2163.06,-48.8 2254.94,-48.8 2254.94,-84.8"/>
<text text-anchor="middle" x="2209" y="-62.6" font-family="Times,serif" font-size="14.00">NewsModule</text>
</g>
<!-- NewsModule&#45;&gt;ServerModule -->
<g id="edge12" class="edge">
<title>NewsModule&#45;&gt;ServerModule</title>
<path fill="none" stroke="black" d="M2209,-85.04C2209,-100.37 2209,-119.8 2209,-119.8 2209,-119.8 2000.35,-119.8 2000.35,-119.8"/>
<polygon fill="black" stroke="black" points="2000.35,-116.3 1990.35,-119.8 2000.35,-123.3 2000.35,-116.3"/>
</g>
<!-- OauthApiModule -->
<g id="node13" class="node">
<title>OauthApiModule</title>
<polygon fill="#8dd3c7" stroke="black" points="2145.27,-84.8 2142.27,-88.8 2121.27,-88.8 2118.27,-84.8 2030.73,-84.8 2030.73,-48.8 2145.27,-48.8 2145.27,-84.8"/>
<text text-anchor="middle" x="2088" y="-62.6" font-family="Times,serif" font-size="14.00">OauthApiModule</text>
</g>
<!-- OauthApiModule&#45;&gt;ServerModule -->
<g id="edge13" class="edge">
<title>OauthApiModule&#45;&gt;ServerModule</title>
<path fill="none" stroke="black" d="M2088,-84.85C2088,-99.17 2088,-116.8 2088,-116.8 2088,-116.8 2000.21,-116.8 2000.21,-116.8"/>
<polygon fill="black" stroke="black" points="2000.21,-113.3 1990.21,-116.8 2000.21,-120.3 2000.21,-113.3"/>
</g>
<!-- OauthProviderModule -->
<g id="node14" class="node">
<title>OauthProviderModule</title>
<polygon fill="#8dd3c7" stroke="black" points="2012.98,-84.8 2009.98,-88.8 1988.98,-88.8 1985.98,-84.8 1871.02,-84.8 1871.02,-48.8 2012.98,-48.8 2012.98,-84.8"/>
<text text-anchor="middle" x="1942" y="-62.6" font-family="Times,serif" font-size="14.00">OauthProviderModule</text>
</g>
<!-- OauthProviderModule&#45;&gt;ServerModule -->
<g id="edge14" class="edge">
<title>OauthProviderModule&#45;&gt;ServerModule</title>
<path fill="none" stroke="black" d="M1942,-84.91C1942,-84.91 1942,-103.79 1942,-103.79"/>
<polygon fill="black" stroke="black" points="1938.5,-103.79 1942,-113.79 1945.5,-103.79 1938.5,-103.79"/>
</g>
<!-- ProvisioningModule -->
<g id="node15" class="node">
<title>ProvisioningModule</title>
<polygon fill="#8dd3c7" stroke="black" points="1852.62,-84.8 1849.62,-88.8 1828.62,-88.8 1825.62,-84.8 1721.38,-84.8 1721.38,-48.8 1852.62,-48.8 1852.62,-84.8"/>
<text text-anchor="middle" x="1787" y="-62.6" font-family="Times,serif" font-size="14.00">ProvisioningModule</text>
</g>
<!-- ProvisioningModule&#45;&gt;ServerModule -->
<g id="edge15" class="edge">
<title>ProvisioningModule&#45;&gt;ServerModule</title>
<path fill="none" stroke="black" d="M1787,-84.85C1787,-99.17 1787,-116.8 1787,-116.8 1787,-116.8 1883.81,-116.8 1883.81,-116.8"/>
<polygon fill="black" stroke="black" points="1883.81,-120.3 1893.81,-116.8 1883.81,-113.3 1883.81,-120.3"/>
</g>
<!-- RabbitMQWrapperModule -->
<g id="node16" class="node">
<title>RabbitMQWrapperModule</title>
<polygon fill="#8dd3c7" stroke="black" points="1703.41,-84.8 1700.41,-88.8 1679.41,-88.8 1676.41,-84.8 1534.59,-84.8 1534.59,-48.8 1703.41,-48.8 1703.41,-84.8"/>
<text text-anchor="middle" x="1619" y="-62.6" font-family="Times,serif" font-size="14.00">RabbitMQWrapperModule</text>
</g>
<!-- RabbitMQWrapperModule&#45;&gt;ServerModule -->
<g id="edge16" class="edge">
<title>RabbitMQWrapperModule&#45;&gt;ServerModule</title>
<path fill="none" stroke="black" d="M1619,-85.04C1619,-100.37 1619,-119.8 1619,-119.8 1619,-119.8 1883.64,-119.8 1883.64,-119.8"/>
<polygon fill="black" stroke="black" points="1883.64,-123.3 1893.64,-119.8 1883.64,-116.3 1883.64,-123.3"/>
</g>
<!-- RedisModule -->
<g id="node17" class="node">
<title>RedisModule</title>
<polygon fill="#8dd3c7" stroke="black" points="1516.94,-84.8 1513.94,-88.8 1492.94,-88.8 1489.94,-84.8 1425.06,-84.8 1425.06,-48.8 1516.94,-48.8 1516.94,-84.8"/>
<text text-anchor="middle" x="1471" y="-62.6" font-family="Times,serif" font-size="14.00">RedisModule</text>
</g>
<!-- RedisModule&#45;&gt;ServerModule -->
<g id="edge17" class="edge">
<title>RedisModule&#45;&gt;ServerModule</title>
<path fill="none" stroke="black" d="M1471,-84.81C1471,-100.85 1471,-121.8 1471,-121.8 1471,-121.8 1883.81,-121.8 1883.81,-121.8"/>
<polygon fill="black" stroke="black" points="1883.81,-125.3 1893.81,-121.8 1883.81,-118.3 1883.81,-125.3"/>
</g>
<!-- RoleModule -->
<g id="node18" class="node">
<title>RoleModule</title>
<polygon fill="#8dd3c7" stroke="black" points="1406.99,-84.8 1403.99,-88.8 1382.99,-88.8 1379.99,-84.8 1321.01,-84.8 1321.01,-48.8 1406.99,-48.8 1406.99,-84.8"/>
<text text-anchor="middle" x="1364" y="-62.6" font-family="Times,serif" font-size="14.00">RoleModule</text>
</g>
<!-- RoleModule&#45;&gt;ServerModule -->
<g id="edge18" class="edge">
<title>RoleModule&#45;&gt;ServerModule</title>
<path fill="none" stroke="black" d="M1364,-84.83C1364,-101.86 1364,-124.8 1364,-124.8 1364,-124.8 1883.71,-124.8 1883.71,-124.8"/>
<polygon fill="black" stroke="black" points="1883.71,-128.3 1893.71,-124.8 1883.71,-121.3 1883.71,-128.3"/>
</g>
<!-- SchoolApiModule -->
<g id="node19" class="node">
<title>SchoolApiModule</title>
<polygon fill="#8dd3c7" stroke="black" points="1302.94,-84.8 1299.94,-88.8 1278.94,-88.8 1275.94,-84.8 1183.06,-84.8 1183.06,-48.8 1302.94,-48.8 1302.94,-84.8"/>
<text text-anchor="middle" x="1243" y="-62.6" font-family="Times,serif" font-size="14.00">SchoolApiModule</text>
</g>
<!-- SchoolApiModule&#45;&gt;ServerModule -->
<g id="edge19" class="edge">
<title>SchoolApiModule&#45;&gt;ServerModule</title>
<path fill="none" stroke="black" d="M1243,-84.8C1243,-102.48 1243,-126.8 1243,-126.8 1243,-126.8 1883.95,-126.8 1883.95,-126.8"/>
<polygon fill="black" stroke="black" points="1883.95,-130.3 1893.95,-126.8 1883.95,-123.3 1883.95,-130.3"/>
</g>
<!-- SharingApiModule -->
<g id="node20" class="node">
<title>SharingApiModule</title>
<polygon fill="#8dd3c7" stroke="black" points="1165.1,-84.8 1162.1,-88.8 1141.1,-88.8 1138.1,-84.8 1040.9,-84.8 1040.9,-48.8 1165.1,-48.8 1165.1,-84.8"/>
<text text-anchor="middle" x="1103" y="-62.6" font-family="Times,serif" font-size="14.00">SharingApiModule</text>
</g>
<!-- SharingApiModule&#45;&gt;ServerModule -->
<g id="edge20" class="edge">
<title>SharingApiModule&#45;&gt;ServerModule</title>
<path fill="none" stroke="black" d="M1103,-85.02C1103,-103.63 1103,-129.8 1103,-129.8 1103,-129.8 1883.88,-129.8 1883.88,-129.8"/>
<polygon fill="black" stroke="black" points="1883.88,-133.3 1893.88,-129.8 1883.88,-126.3 1883.88,-133.3"/>
</g>
<!-- SystemApiModule -->
<g id="node21" class="node">
<title>SystemApiModule</title>
<polygon fill="#8dd3c7" stroke="black" points="1022.78,-84.8 1019.78,-88.8 998.78,-88.8 995.78,-84.8 901.22,-84.8 901.22,-48.8 1022.78,-48.8 1022.78,-84.8"/>
<text text-anchor="middle" x="962" y="-62.6" font-family="Times,serif" font-size="14.00">SystemApiModule</text>
</g>
<!-- SystemApiModule&#45;&gt;ServerModule -->
<g id="edge21" class="edge">
<title>SystemApiModule&#45;&gt;ServerModule</title>
<path fill="none" stroke="black" d="M962,-84.91C962,-104.14 962,-131.8 962,-131.8 962,-131.8 1883.74,-131.8 1883.74,-131.8"/>
<polygon fill="black" stroke="black" points="1883.74,-135.3 1893.74,-131.8 1883.74,-128.3 1883.74,-135.3"/>
</g>
<!-- TaskCardModule -->
<g id="node22" class="node">
<title>TaskCardModule</title>
<polygon fill="#8dd3c7" stroke="black" points="882.98,-84.8 879.98,-88.8 858.98,-88.8 855.98,-84.8 769.02,-84.8 769.02,-48.8 882.98,-48.8 882.98,-84.8"/>
<text text-anchor="middle" x="826" y="-62.6" font-family="Times,serif" font-size="14.00">TaskCardModule</text>
</g>
<!-- TaskCardModule&#45;&gt;ServerModule -->
<g id="edge22" class="edge">
<title>TaskCardModule&#45;&gt;ServerModule</title>
<path fill="none" stroke="black" d="M826,-85.02C826,-105.17 826,-134.8 826,-134.8 826,-134.8 1883.69,-134.8 1883.69,-134.8"/>
<polygon fill="black" stroke="black" points="1883.69,-138.3 1893.69,-134.8 1883.69,-131.3 1883.69,-138.3"/>
</g>
<!-- TaskModule -->
<g id="node23" class="node">
<title>TaskModule</title>
<polygon fill="#8dd3c7" stroke="black" points="751.27,-84.8 748.27,-88.8 727.27,-88.8 724.27,-84.8 664.73,-84.8 664.73,-48.8 751.27,-48.8 751.27,-84.8"/>
<text text-anchor="middle" x="708" y="-62.6" font-family="Times,serif" font-size="14.00">TaskModule</text>
</g>
<!-- TaskModule&#45;&gt;ServerModule -->
<g id="edge23" class="edge">
<title>TaskModule&#45;&gt;ServerModule</title>
<path fill="none" stroke="black" d="M708,-85.08C708,-106.12 708,-137.8 708,-137.8 708,-137.8 1883.63,-137.8 1883.63,-137.8"/>
<polygon fill="black" stroke="black" points="1883.63,-141.3 1893.63,-137.8 1883.63,-134.3 1883.63,-141.3"/>
</g>
<!-- ToolApiModule -->
<g id="node24" class="node">
<title>ToolApiModule</title>
<polygon fill="#8dd3c7" stroke="black" points="646.49,-84.8 643.49,-88.8 622.49,-88.8 619.49,-84.8 539.51,-84.8 539.51,-48.8 646.49,-48.8 646.49,-84.8"/>
<text text-anchor="middle" x="593" y="-62.6" font-family="Times,serif" font-size="14.00">ToolApiModule</text>
</g>
<!-- ToolApiModule&#45;&gt;ServerModule -->
<g id="edge24" class="edge">
<title>ToolApiModule&#45;&gt;ServerModule</title>
<path fill="none" stroke="black" d="M593,-84.84C593,-106.46 593,-139.8 593,-139.8 593,-139.8 1883.59,-139.8 1883.59,-139.8"/>
<polygon fill="black" stroke="black" points="1883.59,-143.3 1893.59,-139.8 1883.59,-136.3 1883.59,-143.3"/>
</g>
<!-- UserApiModule -->
<g id="node25" class="node">
<title>UserApiModule</title>
<polygon fill="#8dd3c7" stroke="black" points="521.49,-84.8 518.49,-88.8 497.49,-88.8 494.49,-84.8 414.51,-84.8 414.51,-48.8 521.49,-48.8 521.49,-84.8"/>
<text text-anchor="middle" x="468" y="-62.6" font-family="Times,serif" font-size="14.00">UserApiModule</text>
</g>
<!-- UserApiModule&#45;&gt;ServerModule -->
<g id="edge25" class="edge">
<title>UserApiModule&#45;&gt;ServerModule</title>
<path fill="none" stroke="black" d="M468,-84.81C468,-107.29 468,-142.8 468,-142.8 468,-142.8 1883.8,-142.8 1883.8,-142.8"/>
<polygon fill="black" stroke="black" points="1883.8,-146.3 1893.8,-142.8 1883.8,-139.3 1883.8,-146.3"/>
</g>
<!-- UserLoginMigrationApiModule -->
<g id="node26" class="node">
<title>UserLoginMigrationApiModule</title>
<polygon fill="#8dd3c7" stroke="black" points="396.42,-84.8 393.42,-88.8 372.42,-88.8 369.42,-84.8 199.58,-84.8 199.58,-48.8 396.42,-48.8 396.42,-84.8"/>
<text text-anchor="middle" x="298" y="-62.6" font-family="Times,serif" font-size="14.00">UserLoginMigrationApiModule</text>
</g>
<!-- UserLoginMigrationApiModule&#45;&gt;ServerModule -->
<g id="edge26" class="edge">
<title>UserLoginMigrationApiModule&#45;&gt;ServerModule</title>
<path fill="none" stroke="black" d="M298,-84.89C298,-107.93 298,-144.8 298,-144.8 298,-144.8 1883.69,-144.8 1883.69,-144.8"/>
<polygon fill="black" stroke="black" points="1883.69,-148.3 1893.69,-144.8 1883.69,-141.3 1883.69,-148.3"/>
</g>
<!-- VideoConferenceModule -->
<g id="node27" class="node">
<title>VideoConferenceModule</title>
<polygon fill="#8dd3c7" stroke="black" points="182.28,-84.8 179.28,-88.8 158.28,-88.8 155.28,-84.8 23.72,-84.8 23.72,-48.8 182.28,-48.8 182.28,-84.8"/>
<text text-anchor="middle" x="103" y="-62.6" font-family="Times,serif" font-size="14.00">VideoConferenceModule</text>
</g>
<!-- VideoConferenceModule&#45;&gt;ServerModule -->
<g id="edge27" class="edge">
<title>VideoConferenceModule&#45;&gt;ServerModule</title>
<path fill="none" stroke="black" d="M103,-85.18C103,-109.08 103,-147.8 103,-147.8 103,-147.8 1883.76,-147.8 1883.76,-147.8"/>
<polygon fill="black" stroke="black" points="1883.76,-151.3 1893.76,-147.8 1883.76,-144.3 1883.76,-151.3"/>
</g>
</g>
</svg>
