<?xml version="1.0" encoding="UTF-8" standalone="no"?>
<!DOCTYPE svg PUBLIC "-//W3C//DTD SVG 1.1//EN"
 "http://www.w3.org/Graphics/SVG/1.1/DTD/svg11.dtd">
<!-- Generated by graphviz version 2.47.0 (20210316.0004)
 -->
<!-- Title: dependencies Pages: 1 -->
<svg width="3880pt" height="211pt"
 viewBox="0.00 0.00 3880.00 211.00" xmlns="http://www.w3.org/2000/svg" xmlns:xlink="http://www.w3.org/1999/xlink">
<g id="graph0" class="graph" transform="scale(1 1) rotate(0) translate(4 207)">
<title>dependencies</title>
<polygon fill="white" stroke="transparent" points="-4,4 -4,-207 3876,-207 3876,4 -4,4"/>
<text text-anchor="start" x="1915.01" y="-42.4" font-family="Times-12" font-weight="bold" font-size="14.00">Legend</text>
<polygon fill="#ffffb3" stroke="transparent" points="1702,-10 1702,-30 1722,-30 1722,-10 1702,-10"/>
<text text-anchor="start" x="1725.63" y="-15.4" font-family="Times-12" font-size="14.00"> &#160;Declarations</text>
<polygon fill="#8dd3c7" stroke="transparent" points="1815,-10 1815,-30 1835,-30 1835,-10 1815,-10"/>
<text text-anchor="start" x="1838.73" y="-15.4" font-family="Times-12" font-size="14.00"> &#160;Module</text>
<polygon fill="#80b1d3" stroke="transparent" points="1901,-10 1901,-30 1921,-30 1921,-10 1901,-10"/>
<text text-anchor="start" x="1924.78" y="-15.4" font-family="Times-12" font-size="14.00"> &#160;Bootstrap</text>
<polygon fill="#fdb462" stroke="transparent" points="1998,-10 1998,-30 2018,-30 2018,-10 1998,-10"/>
<text text-anchor="start" x="2021.67" y="-15.4" font-family="Times-12" font-size="14.00"> &#160;Providers</text>
<polygon fill="#fb8072" stroke="transparent" points="2094,-10 2094,-30 2114,-30 2114,-10 2094,-10"/>
<text text-anchor="start" x="2117.73" y="-15.4" font-family="Times-12" font-size="14.00"> &#160;Exports</text>
<g id="clust1" class="cluster">
<title>cluster_ServerModule</title>
<polygon fill="none" stroke="black" stroke-dasharray="1,5" points="8,-70 8,-195 3864,-195 3864,-70 8,-70"/>
</g>
<g id="clust3" class="cluster">
<title>cluster_ServerModule_imports</title>
<polygon fill="none" stroke="black" points="16,-78 16,-130 3856,-130 3856,-78 16,-78"/>
</g>
<!-- AccountApiModule -->
<g id="node1" class="node">
<title>AccountApiModule</title>
<polygon fill="#8dd3c7" stroke="black" points="3847.97,-122 3844.97,-126 3823.97,-126 3820.97,-122 3720.03,-122 3720.03,-86 3847.97,-86 3847.97,-122"/>
<text text-anchor="middle" x="3784" y="-99.8" font-family="Times,serif" font-size="14.00">AccountApiModule</text>
</g>
<!-- ServerModule -->
<g id="node28" class="node">
<title>ServerModule</title>
<polygon fill="#8dd3c7" stroke="black" points="1990.08,-187 1987.08,-191 1966.08,-191 1963.08,-187 1893.92,-187 1893.92,-151 1990.08,-151 1990.08,-187"/>
<text text-anchor="middle" x="1942" y="-164.8" font-family="Times,serif" font-size="14.00">ServerModule</text>
</g>
<!-- AccountApiModule&#45;&gt;ServerModule -->
<g id="edge1" class="edge">
<title>AccountApiModule&#45;&gt;ServerModule</title>
<path fill="none" stroke="black" d="M3784,-122.38C3784,-146.28 3784,-185 3784,-185 3784,-185 2000.32,-185 2000.32,-185"/>
<polygon fill="black" stroke="black" points="2000.32,-181.5 1990.32,-185 2000.32,-188.5 2000.32,-181.5"/>
</g>
<!-- AuthenticationApiModule -->
<g id="node2" class="node">
<title>AuthenticationApiModule</title>
<polygon fill="#8dd3c7" stroke="black" points="3701.75,-122 3698.75,-126 3677.75,-126 3674.75,-122 3538.25,-122 3538.25,-86 3701.75,-86 3701.75,-122"/>
<text text-anchor="middle" x="3620" y="-99.8" font-family="Times,serif" font-size="14.00">AuthenticationApiModule</text>
</g>
<!-- AuthenticationApiModule&#45;&gt;ServerModule -->
<g id="edge2" class="edge">
<title>AuthenticationApiModule&#45;&gt;ServerModule</title>
<path fill="none" stroke="black" d="M3620,-122.09C3620,-145.13 3620,-182 3620,-182 3620,-182 2000.41,-182 2000.41,-182"/>
<polygon fill="black" stroke="black" points="2000.41,-178.5 1990.41,-182 2000.41,-185.5 2000.41,-178.5"/>
</g>
<!-- BoardApiModule -->
<g id="node3" class="node">
<title>BoardApiModule</title>
<polygon fill="#8dd3c7" stroke="black" points="3520.26,-122 3517.26,-126 3496.26,-126 3493.26,-122 3405.74,-122 3405.74,-86 3520.26,-86 3520.26,-122"/>
<text text-anchor="middle" x="3463" y="-99.8" font-family="Times,serif" font-size="14.00">BoardApiModule</text>
</g>
<!-- BoardApiModule&#45;&gt;ServerModule -->
<g id="edge3" class="edge">
<title>BoardApiModule&#45;&gt;ServerModule</title>
<path fill="none" stroke="black" d="M3463,-122.01C3463,-144.49 3463,-180 3463,-180 3463,-180 2000.46,-180 2000.46,-180"/>
<polygon fill="black" stroke="black" points="2000.46,-176.5 1990.46,-180 2000.46,-183.5 2000.46,-176.5"/>
</g>
<!-- BoardModule -->
<g id="node4" class="node">
<title>BoardModule</title>
<polygon fill="#8dd3c7" stroke="black" points="3387.76,-122 3384.76,-126 3363.76,-126 3360.76,-122 3294.24,-122 3294.24,-86 3387.76,-86 3387.76,-122"/>
<text text-anchor="middle" x="3341" y="-99.8" font-family="Times,serif" font-size="14.00">BoardModule</text>
</g>
<!-- BoardModule&#45;&gt;ServerModule -->
<g id="edge4" class="edge">
<title>BoardModule&#45;&gt;ServerModule</title>
<path fill="none" stroke="black" d="M3341,-122.04C3341,-143.66 3341,-177 3341,-177 3341,-177 2000.16,-177 2000.16,-177"/>
<polygon fill="black" stroke="black" points="2000.16,-173.5 1990.16,-177 2000.16,-180.5 2000.16,-173.5"/>
</g>
<!-- CollaborativeStorageModule -->
<g id="node5" class="node">
<title>CollaborativeStorageModule</title>
<polygon fill="#8dd3c7" stroke="black" points="3276.02,-122 3273.02,-126 3252.02,-126 3249.02,-122 3097.98,-122 3097.98,-86 3276.02,-86 3276.02,-122"/>
<text text-anchor="middle" x="3187" y="-99.8" font-family="Times,serif" font-size="14.00">CollaborativeStorageModule</text>
</g>
<!-- CollaborativeStorageModule&#45;&gt;ServerModule -->
<g id="edge5" class="edge">
<title>CollaborativeStorageModule&#45;&gt;ServerModule</title>
<path fill="none" stroke="black" d="M3187,-122.28C3187,-143.32 3187,-175 3187,-175 3187,-175 2000.04,-175 2000.04,-175"/>
<polygon fill="black" stroke="black" points="2000.04,-171.5 1990.04,-175 2000.04,-178.5 2000.04,-171.5"/>
</g>
<!-- CoreModule -->
<g id="node6" class="node">
<title>CoreModule</title>
<polygon fill="#8dd3c7" stroke="black" points="3079.26,-122 3076.26,-126 3055.26,-126 3052.26,-122 2992.74,-122 2992.74,-86 3079.26,-86 3079.26,-122"/>
<text text-anchor="middle" x="3036" y="-99.8" font-family="Times,serif" font-size="14.00">CoreModule</text>
</g>
<!-- CoreModule&#45;&gt;ServerModule -->
<g id="edge6" class="edge">
<title>CoreModule&#45;&gt;ServerModule</title>
<path fill="none" stroke="black" d="M3036,-122.22C3036,-142.37 3036,-172 3036,-172 3036,-172 2000.06,-172 2000.06,-172"/>
<polygon fill="black" stroke="black" points="2000.06,-168.5 1990.06,-172 2000.06,-175.5 2000.06,-168.5"/>
</g>
<!-- FilesStorageClientModule -->
<g id="node7" class="node">
<title>FilesStorageClientModule</title>
<polygon fill="#8dd3c7" stroke="black" points="2974.76,-122 2971.76,-126 2950.76,-126 2947.76,-122 2811.24,-122 2811.24,-86 2974.76,-86 2974.76,-122"/>
<text text-anchor="middle" x="2893" y="-99.8" font-family="Times,serif" font-size="14.00">FilesStorageClientModule</text>
</g>
<!-- FilesStorageClientModule&#45;&gt;ServerModule -->
<g id="edge7" class="edge">
<title>FilesStorageClientModule&#45;&gt;ServerModule</title>
<path fill="none" stroke="black" d="M2893,-122.11C2893,-141.34 2893,-169 2893,-169 2893,-169 2000.14,-169 2000.14,-169"/>
<polygon fill="black" stroke="black" points="2000.14,-165.5 1990.14,-169 2000.14,-172.5 2000.14,-165.5"/>
</g>
<!-- ImportUserModule -->
<g id="node8" class="node">
<title>ImportUserModule</title>
<polygon fill="#8dd3c7" stroke="black" points="2793.08,-122 2790.08,-126 2769.08,-126 2766.08,-122 2668.92,-122 2668.92,-86 2793.08,-86 2793.08,-122"/>
<text text-anchor="middle" x="2731" y="-99.8" font-family="Times,serif" font-size="14.00">ImportUserModule</text>
</g>
<!-- ImportUserModule&#45;&gt;ServerModule -->
<g id="edge8" class="edge">
<title>ImportUserModule&#45;&gt;ServerModule</title>
<path fill="none" stroke="black" d="M2731,-122.22C2731,-140.83 2731,-167 2731,-167 2731,-167 2000.17,-167 2000.17,-167"/>
<polygon fill="black" stroke="black" points="2000.17,-163.5 1990.17,-167 2000.17,-170.5 2000.17,-163.5"/>
</g>
<!-- LearnroomModule -->
<g id="node9" class="node">
<title>LearnroomModule</title>
<polygon fill="#8dd3c7" stroke="black" points="2650.74,-122 2647.74,-126 2626.74,-126 2623.74,-122 2529.26,-122 2529.26,-86 2650.74,-86 2650.74,-122"/>
<text text-anchor="middle" x="2590" y="-99.8" font-family="Times,serif" font-size="14.00">LearnroomModule</text>
</g>
<!-- LearnroomModule&#45;&gt;ServerModule -->
<g id="edge9" class="edge">
<title>LearnroomModule&#45;&gt;ServerModule</title>
<path fill="none" stroke="black" d="M2590,-122C2590,-139.68 2590,-164 2590,-164 2590,-164 2000.18,-164 2000.18,-164"/>
<polygon fill="black" stroke="black" points="2000.18,-160.5 1990.18,-164 2000.18,-167.5 2000.18,-160.5"/>
</g>
<!-- LessonApiModule -->
<g id="node10" class="node">
<title>LessonApiModule</title>
<polygon fill="#8dd3c7" stroke="black" points="2511.2,-122 2508.2,-126 2487.2,-126 2484.2,-122 2390.8,-122 2390.8,-86 2511.2,-86 2511.2,-122"/>
<text text-anchor="middle" x="2451" y="-99.8" font-family="Times,serif" font-size="14.00">LessonApiModule</text>
</g>
<!-- LessonApiModule&#45;&gt;ServerModule -->
<g id="edge10" class="edge">
<title>LessonApiModule&#45;&gt;ServerModule</title>
<path fill="none" stroke="black" d="M2451,-122.03C2451,-139.06 2451,-162 2451,-162 2451,-162 2000.34,-162 2000.34,-162"/>
<polygon fill="black" stroke="black" points="2000.34,-158.5 1990.34,-162 2000.34,-165.5 2000.34,-158.5"/>
</g>
<!-- LoggerModule -->
<g id="node11" class="node">
<title>LoggerModule</title>
<polygon fill="#8dd3c7" stroke="black" points="2372.98,-122 2369.98,-126 2348.98,-126 2345.98,-122 2273.02,-122 2273.02,-86 2372.98,-86 2372.98,-122"/>
<text text-anchor="middle" x="2323" y="-99.8" font-family="Times,serif" font-size="14.00">LoggerModule</text>
</g>
<!-- LoggerModule&#45;&gt;ServerModule -->
<g id="edge11" class="edge">
<title>LoggerModule&#45;&gt;ServerModule</title>
<path fill="none" stroke="black" d="M2323,-122.01C2323,-138.05 2323,-159 2323,-159 2323,-159 2000.25,-159 2000.25,-159"/>
<polygon fill="black" stroke="black" points="2000.25,-155.5 1990.25,-159 2000.25,-162.5 2000.25,-155.5"/>
</g>
<!-- NewsModule -->
<g id="node12" class="node">
<title>NewsModule</title>
<polygon fill="#8dd3c7" stroke="black" points="2254.92,-122 2251.92,-126 2230.92,-126 2227.92,-122 2163.08,-122 2163.08,-86 2254.92,-86 2254.92,-122"/>
<text text-anchor="middle" x="2209" y="-99.8" font-family="Times,serif" font-size="14.00">NewsModule</text>
</g>
<!-- NewsModule&#45;&gt;ServerModule -->
<g id="edge12" class="edge">
<title>NewsModule&#45;&gt;ServerModule</title>
<path fill="none" stroke="black" d="M2209,-122.24C2209,-137.57 2209,-157 2209,-157 2209,-157 2000.04,-157 2000.04,-157"/>
<polygon fill="black" stroke="black" points="2000.04,-153.5 1990.04,-157 2000.04,-160.5 2000.04,-153.5"/>
</g>
<!-- OauthApiModule -->
<g id="node13" class="node">
<title>OauthApiModule</title>
<polygon fill="#8dd3c7" stroke="black" points="2145.26,-122 2142.26,-126 2121.26,-126 2118.26,-122 2030.74,-122 2030.74,-86 2145.26,-86 2145.26,-122"/>
<text text-anchor="middle" x="2088" y="-99.8" font-family="Times,serif" font-size="14.00">OauthApiModule</text>
</g>
<!-- OauthApiModule&#45;&gt;ServerModule -->
<g id="edge13" class="edge">
<title>OauthApiModule&#45;&gt;ServerModule</title>
<path fill="none" stroke="black" d="M2088,-122.05C2088,-136.37 2088,-154 2088,-154 2088,-154 2000.21,-154 2000.21,-154"/>
<polygon fill="black" stroke="black" points="2000.21,-150.5 1990.21,-154 2000.21,-157.5 2000.21,-150.5"/>
</g>
<!-- OauthProviderModule -->
<g id="node14" class="node">
<title>OauthProviderModule</title>
<polygon fill="#8dd3c7" stroke="black" points="2012.97,-122 2009.97,-126 1988.97,-126 1985.97,-122 1871.03,-122 1871.03,-86 2012.97,-86 2012.97,-122"/>
<text text-anchor="middle" x="1942" y="-99.8" font-family="Times,serif" font-size="14.00">OauthProviderModule</text>
</g>
<!-- OauthProviderModule&#45;&gt;ServerModule -->
<g id="edge14" class="edge">
<title>OauthProviderModule&#45;&gt;ServerModule</title>
<path fill="none" stroke="black" d="M1942,-122.11C1942,-122.11 1942,-140.99 1942,-140.99"/>
<polygon fill="black" stroke="black" points="1938.5,-140.99 1942,-150.99 1945.5,-140.99 1938.5,-140.99"/>
</g>
<!-- ProvisioningModule -->
<g id="node15" class="node">
<title>ProvisioningModule</title>
<polygon fill="#8dd3c7" stroke="black" points="1852.61,-122 1849.61,-126 1828.61,-126 1825.61,-122 1721.39,-122 1721.39,-86 1852.61,-86 1852.61,-122"/>
<text text-anchor="middle" x="1787" y="-99.8" font-family="Times,serif" font-size="14.00">ProvisioningModule</text>
</g>
<!-- ProvisioningModule&#45;&gt;ServerModule -->
<g id="edge15" class="edge">
<title>ProvisioningModule&#45;&gt;ServerModule</title>
<path fill="none" stroke="black" d="M1787,-122.05C1787,-136.37 1787,-154 1787,-154 1787,-154 1883.81,-154 1883.81,-154"/>
<polygon fill="black" stroke="black" points="1883.81,-157.5 1893.81,-154 1883.81,-150.5 1883.81,-157.5"/>
</g>
<!-- RabbitMQWrapperModule -->
<g id="node16" class="node">
<title>RabbitMQWrapperModule</title>
<polygon fill="#8dd3c7" stroke="black" points="1703.4,-122 1700.4,-126 1679.4,-126 1676.4,-122 1534.6,-122 1534.6,-86 1703.4,-86 1703.4,-122"/>
<text text-anchor="middle" x="1619" y="-99.8" font-family="Times,serif" font-size="14.00">RabbitMQWrapperModule</text>
</g>
<!-- RabbitMQWrapperModule&#45;&gt;ServerModule -->
<g id="edge16" class="edge">
<title>RabbitMQWrapperModule&#45;&gt;ServerModule</title>
<path fill="none" stroke="black" d="M1619,-122.24C1619,-137.57 1619,-157 1619,-157 1619,-157 1883.64,-157 1883.64,-157"/>
<polygon fill="black" stroke="black" points="1883.64,-160.5 1893.64,-157 1883.64,-153.5 1883.64,-160.5"/>
</g>
<!-- RedisModule -->
<g id="node17" class="node">
<title>RedisModule</title>
<polygon fill="#8dd3c7" stroke="black" points="1516.94,-122 1513.94,-126 1492.94,-126 1489.94,-122 1425.06,-122 1425.06,-86 1516.94,-86 1516.94,-122"/>
<text text-anchor="middle" x="1471" y="-99.8" font-family="Times,serif" font-size="14.00">RedisModule</text>
</g>
<!-- RedisModule&#45;&gt;ServerModule -->
<g id="edge17" class="edge">
<title>RedisModule&#45;&gt;ServerModule</title>
<path fill="none" stroke="black" d="M1471,-122.01C1471,-138.05 1471,-159 1471,-159 1471,-159 1883.81,-159 1883.81,-159"/>
<polygon fill="black" stroke="black" points="1883.81,-162.5 1893.81,-159 1883.81,-155.5 1883.81,-162.5"/>
</g>
<!-- RoleModule -->
<g id="node18" class="node">
<title>RoleModule</title>
<polygon fill="#8dd3c7" stroke="black" points="1406.99,-122 1403.99,-126 1382.99,-126 1379.99,-122 1321.01,-122 1321.01,-86 1406.99,-86 1406.99,-122"/>
<text text-anchor="middle" x="1364" y="-99.8" font-family="Times,serif" font-size="14.00">RoleModule</text>
</g>
<!-- RoleModule&#45;&gt;ServerModule -->
<g id="edge18" class="edge">
<title>RoleModule&#45;&gt;ServerModule</title>
<path fill="none" stroke="black" d="M1364,-122.03C1364,-139.06 1364,-162 1364,-162 1364,-162 1883.71,-162 1883.71,-162"/>
<polygon fill="black" stroke="black" points="1883.71,-165.5 1893.71,-162 1883.71,-158.5 1883.71,-165.5"/>
</g>
<!-- SchoolApiModule -->
<g id="node19" class="node">
<title>SchoolApiModule</title>
<polygon fill="#8dd3c7" stroke="black" points="1302.94,-122 1299.94,-126 1278.94,-126 1275.94,-122 1183.06,-122 1183.06,-86 1302.94,-86 1302.94,-122"/>
<text text-anchor="middle" x="1243" y="-99.8" font-family="Times,serif" font-size="14.00">SchoolApiModule</text>
</g>
<!-- SchoolApiModule&#45;&gt;ServerModule -->
<g id="edge19" class="edge">
<title>SchoolApiModule&#45;&gt;ServerModule</title>
<path fill="none" stroke="black" d="M1243,-122C1243,-139.68 1243,-164 1243,-164 1243,-164 1883.95,-164 1883.95,-164"/>
<polygon fill="black" stroke="black" points="1883.95,-167.5 1893.95,-164 1883.95,-160.5 1883.95,-167.5"/>
</g>
<!-- SharingApiModule -->
<g id="node20" class="node">
<title>SharingApiModule</title>
<polygon fill="#8dd3c7" stroke="black" points="1165.1,-122 1162.1,-126 1141.1,-126 1138.1,-122 1040.9,-122 1040.9,-86 1165.1,-86 1165.1,-122"/>
<text text-anchor="middle" x="1103" y="-99.8" font-family="Times,serif" font-size="14.00">SharingApiModule</text>
</g>
<!-- SharingApiModule&#45;&gt;ServerModule -->
<g id="edge20" class="edge">
<title>SharingApiModule&#45;&gt;ServerModule</title>
<path fill="none" stroke="black" d="M1103,-122.22C1103,-140.83 1103,-167 1103,-167 1103,-167 1883.88,-167 1883.88,-167"/>
<polygon fill="black" stroke="black" points="1883.88,-170.5 1893.88,-167 1883.88,-163.5 1883.88,-170.5"/>
</g>
<!-- SystemApiModule -->
<g id="node21" class="node">
<title>SystemApiModule</title>
<polygon fill="#8dd3c7" stroke="black" points="1022.77,-122 1019.77,-126 998.77,-126 995.77,-122 901.23,-122 901.23,-86 1022.77,-86 1022.77,-122"/>
<text text-anchor="middle" x="962" y="-99.8" font-family="Times,serif" font-size="14.00">SystemApiModule</text>
</g>
<!-- SystemApiModule&#45;&gt;ServerModule -->
<g id="edge21" class="edge">
<title>SystemApiModule&#45;&gt;ServerModule</title>
<path fill="none" stroke="black" d="M962,-122.11C962,-141.34 962,-169 962,-169 962,-169 1883.74,-169 1883.74,-169"/>
<polygon fill="black" stroke="black" points="1883.74,-172.5 1893.74,-169 1883.74,-165.5 1883.74,-172.5"/>
</g>
<!-- TaskCardModule -->
<g id="node22" class="node">
<title>TaskCardModule</title>
<polygon fill="#8dd3c7" stroke="black" points="882.97,-122 879.97,-126 858.97,-126 855.97,-122 769.03,-122 769.03,-86 882.97,-86 882.97,-122"/>
<text text-anchor="middle" x="826" y="-99.8" font-family="Times,serif" font-size="14.00">TaskCardModule</text>
</g>
<!-- TaskCardModule&#45;&gt;ServerModule -->
<g id="edge22" class="edge">
<title>TaskCardModule&#45;&gt;ServerModule</title>
<path fill="none" stroke="black" d="M826,-122.22C826,-142.37 826,-172 826,-172 826,-172 1883.69,-172 1883.69,-172"/>
<polygon fill="black" stroke="black" points="1883.69,-175.5 1893.69,-172 1883.69,-168.5 1883.69,-175.5"/>
</g>
<!-- TaskModule -->
<g id="node23" class="node">
<title>TaskModule</title>
<polygon fill="#8dd3c7" stroke="black" points="751.26,-122 748.26,-126 727.26,-126 724.26,-122 664.74,-122 664.74,-86 751.26,-86 751.26,-122"/>
<text text-anchor="middle" x="708" y="-99.8" font-family="Times,serif" font-size="14.00">TaskModule</text>
</g>
<!-- TaskModule&#45;&gt;ServerModule -->
<g id="edge23" class="edge">
<title>TaskModule&#45;&gt;ServerModule</title>
<path fill="none" stroke="black" d="M708,-122.28C708,-143.32 708,-175 708,-175 708,-175 1883.63,-175 1883.63,-175"/>
<polygon fill="black" stroke="black" points="1883.63,-178.5 1893.63,-175 1883.63,-171.5 1883.63,-178.5"/>
</g>
<!-- ToolApiModule -->
<g id="node24" class="node">
<title>ToolApiModule</title>
<polygon fill="#8dd3c7" stroke="black" points="646.49,-122 643.49,-126 622.49,-126 619.49,-122 539.51,-122 539.51,-86 646.49,-86 646.49,-122"/>
<text text-anchor="middle" x="593" y="-99.8" font-family="Times,serif" font-size="14.00">ToolApiModule</text>
</g>
<!-- ToolApiModule&#45;&gt;ServerModule -->
<g id="edge24" class="edge">
<title>ToolApiModule&#45;&gt;ServerModule</title>
<path fill="none" stroke="black" d="M593,-122.04C593,-143.66 593,-177 593,-177 593,-177 1883.59,-177 1883.59,-177"/>
<polygon fill="black" stroke="black" points="1883.59,-180.5 1893.59,-177 1883.59,-173.5 1883.59,-180.5"/>
</g>
<!-- UserApiModule -->
<g id="node25" class="node">
<title>UserApiModule</title>
<polygon fill="#8dd3c7" stroke="black" points="521.47,-122 518.47,-126 497.47,-126 494.47,-122 414.53,-122 414.53,-86 521.47,-86 521.47,-122"/>
<text text-anchor="middle" x="468" y="-99.8" font-family="Times,serif" font-size="14.00">UserApiModule</text>
</g>
<!-- UserApiModule&#45;&gt;ServerModule -->
<g id="edge25" class="edge">
<title>UserApiModule&#45;&gt;ServerModule</title>
<path fill="none" stroke="black" d="M468,-122.01C468,-144.49 468,-180 468,-180 468,-180 1883.8,-180 1883.8,-180"/>
<polygon fill="black" stroke="black" points="1883.8,-183.5 1893.8,-180 1883.8,-176.5 1883.8,-183.5"/>
</g>
<!-- UserLoginMigrationApiModule -->
<g id="node26" class="node">
<title>UserLoginMigrationApiModule</title>
<polygon fill="#8dd3c7" stroke="black" points="396.41,-122 393.41,-126 372.41,-126 369.41,-122 199.59,-122 199.59,-86 396.41,-86 396.41,-122"/>
<text text-anchor="middle" x="298" y="-99.8" font-family="Times,serif" font-size="14.00">UserLoginMigrationApiModule</text>
</g>
<!-- UserLoginMigrationApiModule&#45;&gt;ServerModule -->
<g id="edge26" class="edge">
<title>UserLoginMigrationApiModule&#45;&gt;ServerModule</title>
<path fill="none" stroke="black" d="M298,-122.09C298,-145.13 298,-182 298,-182 298,-182 1883.69,-182 1883.69,-182"/>
<polygon fill="black" stroke="black" points="1883.69,-185.5 1893.69,-182 1883.69,-178.5 1883.69,-185.5"/>
</g>
<!-- VideoConferenceModule -->
<g id="node27" class="node">
<title>VideoConferenceModule</title>
<polygon fill="#8dd3c7" stroke="black" points="182.28,-122 179.28,-126 158.28,-126 155.28,-122 23.72,-122 23.72,-86 182.28,-86 182.28,-122"/>
<text text-anchor="middle" x="103" y="-99.8" font-family="Times,serif" font-size="14.00">VideoConferenceModule</text>
</g>
<!-- VideoConferenceModule&#45;&gt;ServerModule -->
<g id="edge27" class="edge">
<title>VideoConferenceModule&#45;&gt;ServerModule</title>
<path fill="none" stroke="black" d="M103,-122.38C103,-146.28 103,-185 103,-185 103,-185 1883.76,-185 1883.76,-185"/>
<polygon fill="black" stroke="black" points="1883.76,-188.5 1893.76,-185 1883.76,-181.5 1883.76,-188.5"/>
</g>
</g>
</svg>
