<?xml version="1.0" encoding="UTF-8" standalone="no"?>
<!DOCTYPE svg PUBLIC "-//W3C//DTD SVG 1.1//EN"
 "http://www.w3.org/Graphics/SVG/1.1/DTD/svg11.dtd">
<!-- Generated by graphviz version 2.47.0 (20210316.0004)
 -->
<!-- Title: dependencies Pages: 1 -->
<svg width="3599pt" height="211pt"
 viewBox="0.00 0.00 3599.00 211.00" xmlns="http://www.w3.org/2000/svg" xmlns:xlink="http://www.w3.org/1999/xlink">
<g id="graph0" class="graph" transform="scale(1 1) rotate(0) translate(4 207)">
<title>dependencies</title>
<polygon fill="white" stroke="transparent" points="-4,4 -4,-207 3595,-207 3595,4 -4,4"/>
<text text-anchor="start" x="1774.51" y="-42.4" font-family="Times-12" font-weight="bold" font-size="14.00">Legend</text>
<polygon fill="#ffffb3" stroke="transparent" points="1561.5,-10 1561.5,-30 1581.5,-30 1581.5,-10 1561.5,-10"/>
<text text-anchor="start" x="1585.13" y="-15.4" font-family="Times-12" font-size="14.00"> &#160;Declarations</text>
<polygon fill="#8dd3c7" stroke="transparent" points="1674.5,-10 1674.5,-30 1694.5,-30 1694.5,-10 1674.5,-10"/>
<text text-anchor="start" x="1698.23" y="-15.4" font-family="Times-12" font-size="14.00"> &#160;Module</text>
<polygon fill="#80b1d3" stroke="transparent" points="1760.5,-10 1760.5,-30 1780.5,-30 1780.5,-10 1760.5,-10"/>
<text text-anchor="start" x="1784.28" y="-15.4" font-family="Times-12" font-size="14.00"> &#160;Bootstrap</text>
<polygon fill="#fdb462" stroke="transparent" points="1857.5,-10 1857.5,-30 1877.5,-30 1877.5,-10 1857.5,-10"/>
<text text-anchor="start" x="1881.17" y="-15.4" font-family="Times-12" font-size="14.00"> &#160;Providers</text>
<polygon fill="#fb8072" stroke="transparent" points="1953.5,-10 1953.5,-30 1973.5,-30 1973.5,-10 1953.5,-10"/>
<text text-anchor="start" x="1977.23" y="-15.4" font-family="Times-12" font-size="14.00"> &#160;Exports</text>
<g id="clust1" class="cluster">
<title>cluster_ServerModule</title>
<polygon fill="none" stroke="black" stroke-dasharray="1,5" points="8,-70 8,-195 3583,-195 3583,-70 8,-70"/>
</g>
<g id="clust3" class="cluster">
<title>cluster_ServerModule_imports</title>
<polygon fill="none" stroke="black" points="16,-78 16,-130 3575,-130 3575,-78 16,-78"/>
</g>
<!-- AccountApiModule -->
<g id="node1" class="node">
<title>AccountApiModule</title>
<polygon fill="#8dd3c7" stroke="black" points="3566.97,-122 3563.97,-126 3542.97,-126 3539.97,-122 3439.03,-122 3439.03,-86 3566.97,-86 3566.97,-122"/>
<text text-anchor="middle" x="3503" y="-99.8" font-family="Times,serif" font-size="14.00">AccountApiModule</text>
</g>
<!-- ServerModule -->
<g id="node25" class="node">
<title>ServerModule</title>
<polygon fill="#8dd3c7" stroke="black" points="1867.08,-187 1864.08,-191 1843.08,-191 1840.08,-187 1770.92,-187 1770.92,-151 1867.08,-151 1867.08,-187"/>
<text text-anchor="middle" x="1819" y="-164.8" font-family="Times,serif" font-size="14.00">ServerModule</text>
</g>
<!-- AccountApiModule&#45;&gt;ServerModule -->
<g id="edge1" class="edge">
<title>AccountApiModule&#45;&gt;ServerModule</title>
<path fill="none" stroke="black" d="M3503,-122.15C3503,-145.76 3503,-184 3503,-184 3503,-184 1877.13,-184 1877.13,-184"/>
<polygon fill="black" stroke="black" points="1877.13,-180.5 1867.13,-184 1877.13,-187.5 1877.13,-180.5"/>
</g>
<!-- AuthenticationApiModule -->
<g id="node2" class="node">
<title>AuthenticationApiModule</title>
<polygon fill="#8dd3c7" stroke="black" points="3420.75,-122 3417.75,-126 3396.75,-126 3393.75,-122 3257.25,-122 3257.25,-86 3420.75,-86 3420.75,-122"/>
<text text-anchor="middle" x="3339" y="-99.8" font-family="Times,serif" font-size="14.00">AuthenticationApiModule</text>
</g>
<!-- AuthenticationApiModule&#45;&gt;ServerModule -->
<g id="edge2" class="edge">
<title>AuthenticationApiModule&#45;&gt;ServerModule</title>
<path fill="none" stroke="black" d="M3339,-122.09C3339,-145.13 3339,-182 3339,-182 3339,-182 1877.43,-182 1877.43,-182"/>
<polygon fill="black" stroke="black" points="1877.43,-178.5 1867.43,-182 1877.43,-185.5 1877.43,-178.5"/>
</g>
<!-- BoardApiModule -->
<g id="node3" class="node">
<title>BoardApiModule</title>
<polygon fill="#8dd3c7" stroke="black" points="3239.26,-122 3236.26,-126 3215.26,-126 3212.26,-122 3124.74,-122 3124.74,-86 3239.26,-86 3239.26,-122"/>
<text text-anchor="middle" x="3182" y="-99.8" font-family="Times,serif" font-size="14.00">BoardApiModule</text>
</g>
<!-- BoardApiModule&#45;&gt;ServerModule -->
<g id="edge3" class="edge">
<title>BoardApiModule&#45;&gt;ServerModule</title>
<path fill="none" stroke="black" d="M3182,-122.29C3182,-144.21 3182,-178 3182,-178 3182,-178 1877.11,-178 1877.11,-178"/>
<polygon fill="black" stroke="black" points="1877.11,-174.5 1867.11,-178 1877.11,-181.5 1877.11,-174.5"/>
</g>
<!-- CollaborativeStorageModule -->
<g id="node4" class="node">
<title>CollaborativeStorageModule</title>
<polygon fill="#8dd3c7" stroke="black" points="3106.02,-122 3103.02,-126 3082.02,-126 3079.02,-122 2927.98,-122 2927.98,-86 3106.02,-86 3106.02,-122"/>
<text text-anchor="middle" x="3017" y="-99.8" font-family="Times,serif" font-size="14.00">CollaborativeStorageModule</text>
</g>
<!-- CollaborativeStorageModule&#45;&gt;ServerModule -->
<g id="edge4" class="edge">
<title>CollaborativeStorageModule&#45;&gt;ServerModule</title>
<path fill="none" stroke="black" d="M3017,-122.28C3017,-143.32 3017,-175 3017,-175 3017,-175 1877.07,-175 1877.07,-175"/>
<polygon fill="black" stroke="black" points="1877.07,-171.5 1867.07,-175 1877.07,-178.5 1877.07,-171.5"/>
</g>
<!-- CoreModule -->
<g id="node5" class="node">
<title>CoreModule</title>
<polygon fill="#8dd3c7" stroke="black" points="2909.26,-122 2906.26,-126 2885.26,-126 2882.26,-122 2822.74,-122 2822.74,-86 2909.26,-86 2909.26,-122"/>
<text text-anchor="middle" x="2866" y="-99.8" font-family="Times,serif" font-size="14.00">CoreModule</text>
</g>
<!-- CoreModule&#45;&gt;ServerModule -->
<g id="edge5" class="edge">
<title>CoreModule&#45;&gt;ServerModule</title>
<path fill="none" stroke="black" d="M2866,-122.22C2866,-142.37 2866,-172 2866,-172 2866,-172 1877.05,-172 1877.05,-172"/>
<polygon fill="black" stroke="black" points="1877.05,-168.5 1867.05,-172 1877.05,-175.5 1877.05,-168.5"/>
</g>
<!-- FilesStorageClientModule -->
<g id="node6" class="node">
<title>FilesStorageClientModule</title>
<polygon fill="#8dd3c7" stroke="black" points="2804.76,-122 2801.76,-126 2780.76,-126 2777.76,-122 2641.24,-122 2641.24,-86 2804.76,-86 2804.76,-122"/>
<text text-anchor="middle" x="2723" y="-99.8" font-family="Times,serif" font-size="14.00">FilesStorageClientModule</text>
</g>
<!-- FilesStorageClientModule&#45;&gt;ServerModule -->
<g id="edge6" class="edge">
<title>FilesStorageClientModule&#45;&gt;ServerModule</title>
<path fill="none" stroke="black" d="M2723,-122.11C2723,-141.34 2723,-169 2723,-169 2723,-169 1877.28,-169 1877.28,-169"/>
<polygon fill="black" stroke="black" points="1877.28,-165.5 1867.28,-169 1877.28,-172.5 1877.28,-165.5"/>
</g>
<!-- ImportUserModule -->
<g id="node7" class="node">
<title>ImportUserModule</title>
<polygon fill="#8dd3c7" stroke="black" points="2623.08,-122 2620.08,-126 2599.08,-126 2596.08,-122 2498.92,-122 2498.92,-86 2623.08,-86 2623.08,-122"/>
<text text-anchor="middle" x="2561" y="-99.8" font-family="Times,serif" font-size="14.00">ImportUserModule</text>
</g>
<!-- ImportUserModule&#45;&gt;ServerModule -->
<g id="edge7" class="edge">
<title>ImportUserModule&#45;&gt;ServerModule</title>
<path fill="none" stroke="black" d="M2561,-122.22C2561,-140.83 2561,-167 2561,-167 2561,-167 1877.11,-167 1877.11,-167"/>
<polygon fill="black" stroke="black" points="1877.11,-163.5 1867.11,-167 1877.11,-170.5 1877.11,-163.5"/>
</g>
<!-- LearnroomApiModule -->
<g id="node8" class="node">
<title>LearnroomApiModule</title>
<polygon fill="#8dd3c7" stroke="black" points="2481.24,-122 2478.24,-126 2457.24,-126 2454.24,-122 2338.76,-122 2338.76,-86 2481.24,-86 2481.24,-122"/>
<text text-anchor="middle" x="2410" y="-99.8" font-family="Times,serif" font-size="14.00">LearnroomApiModule</text>
</g>
<!-- LearnroomApiModule&#45;&gt;ServerModule -->
<g id="edge8" class="edge">
<title>LearnroomApiModule&#45;&gt;ServerModule</title>
<path fill="none" stroke="black" d="M2410,-122.02C2410,-139.37 2410,-163 2410,-163 2410,-163 1877.36,-163 1877.36,-163"/>
<polygon fill="black" stroke="black" points="1877.36,-159.5 1867.36,-163 1877.36,-166.5 1877.36,-159.5"/>
</g>
<!-- LessonApiModule -->
<g id="node9" class="node">
<title>LessonApiModule</title>
<polygon fill="#8dd3c7" stroke="black" points="2321.2,-122 2318.2,-126 2297.2,-126 2294.2,-122 2200.8,-122 2200.8,-86 2321.2,-86 2321.2,-122"/>
<text text-anchor="middle" x="2261" y="-99.8" font-family="Times,serif" font-size="14.00">LessonApiModule</text>
</g>
<!-- LessonApiModule&#45;&gt;ServerModule -->
<g id="edge9" class="edge">
<title>LessonApiModule&#45;&gt;ServerModule</title>
<path fill="none" stroke="black" d="M2261,-122.03C2261,-138.4 2261,-160 2261,-160 2261,-160 1877.14,-160 1877.14,-160"/>
<polygon fill="black" stroke="black" points="1877.14,-156.5 1867.14,-160 1877.14,-163.5 1877.14,-156.5"/>
</g>
<!-- LoggerModule -->
<g id="node10" class="node">
<title>LoggerModule</title>
<polygon fill="#8dd3c7" stroke="black" points="2182.98,-122 2179.98,-126 2158.98,-126 2155.98,-122 2083.02,-122 2083.02,-86 2182.98,-86 2182.98,-122"/>
<text text-anchor="middle" x="2133" y="-99.8" font-family="Times,serif" font-size="14.00">LoggerModule</text>
</g>
<!-- LoggerModule&#45;&gt;ServerModule -->
<g id="edge10" class="edge">
<title>LoggerModule&#45;&gt;ServerModule</title>
<path fill="none" stroke="black" d="M2133,-122.24C2133,-137.57 2133,-157 2133,-157 2133,-157 1877.37,-157 1877.37,-157"/>
<polygon fill="black" stroke="black" points="1877.37,-153.5 1867.37,-157 1877.37,-160.5 1877.37,-153.5"/>
</g>
<!-- NewsModule -->
<g id="node11" class="node">
<title>NewsModule</title>
<polygon fill="#8dd3c7" stroke="black" points="2064.92,-122 2061.92,-126 2040.92,-126 2037.92,-122 1973.08,-122 1973.08,-86 2064.92,-86 2064.92,-122"/>
<text text-anchor="middle" x="2019" y="-99.8" font-family="Times,serif" font-size="14.00">NewsModule</text>
</g>
<!-- NewsModule&#45;&gt;ServerModule -->
<g id="edge11" class="edge">
<title>NewsModule&#45;&gt;ServerModule</title>
<path fill="none" stroke="black" d="M2019,-122.05C2019,-136.37 2019,-154 2019,-154 2019,-154 1877.16,-154 1877.16,-154"/>
<polygon fill="black" stroke="black" points="1877.16,-150.5 1867.16,-154 1877.16,-157.5 1877.16,-150.5"/>
</g>
<!-- OauthApiModule -->
<g id="node12" class="node">
<title>OauthApiModule</title>
<polygon fill="#8dd3c7" stroke="black" points="1955.26,-122 1952.26,-126 1931.26,-126 1928.26,-122 1840.74,-122 1840.74,-86 1955.26,-86 1955.26,-122"/>
<text text-anchor="middle" x="1898" y="-99.8" font-family="Times,serif" font-size="14.00">OauthApiModule</text>
</g>
<!-- OauthApiModule&#45;&gt;ServerModule -->
<g id="edge12" class="edge">
<title>OauthApiModule&#45;&gt;ServerModule</title>
<path fill="none" stroke="black" d="M1853.83,-122.11C1853.83,-122.11 1853.83,-140.99 1853.83,-140.99"/>
<polygon fill="black" stroke="black" points="1850.33,-140.99 1853.83,-150.99 1857.33,-140.99 1850.33,-140.99"/>
</g>
<!-- OauthProviderApiModule -->
<g id="node13" class="node">
<title>OauthProviderApiModule</title>
<polygon fill="#8dd3c7" stroke="black" points="1822.47,-122 1819.47,-126 1798.47,-126 1795.47,-122 1659.53,-122 1659.53,-86 1822.47,-86 1822.47,-122"/>
<text text-anchor="middle" x="1741" y="-99.8" font-family="Times,serif" font-size="14.00">OauthProviderApiModule</text>
</g>
<!-- OauthProviderApiModule&#45;&gt;ServerModule -->
<g id="edge13" class="edge">
<title>OauthProviderApiModule&#45;&gt;ServerModule</title>
<path fill="none" stroke="black" d="M1796.72,-122.11C1796.72,-122.11 1796.72,-140.99 1796.72,-140.99"/>
<polygon fill="black" stroke="black" points="1793.22,-140.99 1796.72,-150.99 1800.22,-140.99 1793.22,-140.99"/>
</g>
<!-- RabbitMQWrapperModule -->
<g id="node14" class="node">
<title>RabbitMQWrapperModule</title>
<polygon fill="#8dd3c7" stroke="black" points="1641.4,-122 1638.4,-126 1617.4,-126 1614.4,-122 1472.6,-122 1472.6,-86 1641.4,-86 1641.4,-122"/>
<text text-anchor="middle" x="1557" y="-99.8" font-family="Times,serif" font-size="14.00">RabbitMQWrapperModule</text>
</g>
<!-- RabbitMQWrapperModule&#45;&gt;ServerModule -->
<g id="edge14" class="edge">
<title>RabbitMQWrapperModule&#45;&gt;ServerModule</title>
<path fill="none" stroke="black" d="M1557,-122.05C1557,-136.37 1557,-154 1557,-154 1557,-154 1760.95,-154 1760.95,-154"/>
<polygon fill="black" stroke="black" points="1760.95,-157.5 1770.95,-154 1760.95,-150.5 1760.95,-157.5"/>
</g>
<!-- RedisModule -->
<g id="node15" class="node">
<title>RedisModule</title>
<polygon fill="#8dd3c7" stroke="black" points="1454.94,-122 1451.94,-126 1430.94,-126 1427.94,-122 1363.06,-122 1363.06,-86 1454.94,-86 1454.94,-122"/>
<text text-anchor="middle" x="1409" y="-99.8" font-family="Times,serif" font-size="14.00">RedisModule</text>
</g>
<!-- RedisModule&#45;&gt;ServerModule -->
<g id="edge15" class="edge">
<title>RedisModule&#45;&gt;ServerModule</title>
<path fill="none" stroke="black" d="M1409,-122.24C1409,-137.57 1409,-157 1409,-157 1409,-157 1760.76,-157 1760.76,-157"/>
<polygon fill="black" stroke="black" points="1760.76,-160.5 1770.76,-157 1760.76,-153.5 1760.76,-160.5"/>
</g>
<!-- SchoolApiModule -->
<g id="node16" class="node">
<title>SchoolApiModule</title>
<polygon fill="#8dd3c7" stroke="black" points="1345.94,-122 1342.94,-126 1321.94,-126 1318.94,-122 1226.06,-122 1226.06,-86 1345.94,-86 1345.94,-122"/>
<text text-anchor="middle" x="1286" y="-99.8" font-family="Times,serif" font-size="14.00">SchoolApiModule</text>
</g>
<!-- SchoolApiModule&#45;&gt;ServerModule -->
<g id="edge16" class="edge">
<title>SchoolApiModule&#45;&gt;ServerModule</title>
<path fill="none" stroke="black" d="M1286,-122.03C1286,-138.4 1286,-160 1286,-160 1286,-160 1760.76,-160 1760.76,-160"/>
<polygon fill="black" stroke="black" points="1760.76,-163.5 1770.76,-160 1760.76,-156.5 1760.76,-163.5"/>
</g>
<!-- SharingApiModule -->
<g id="node17" class="node">
<title>SharingApiModule</title>
<polygon fill="#8dd3c7" stroke="black" points="1208.1,-122 1205.1,-126 1184.1,-126 1181.1,-122 1083.9,-122 1083.9,-86 1208.1,-86 1208.1,-122"/>
<text text-anchor="middle" x="1146" y="-99.8" font-family="Times,serif" font-size="14.00">SharingApiModule</text>
</g>
<!-- SharingApiModule&#45;&gt;ServerModule -->
<g id="edge17" class="edge">
<title>SharingApiModule&#45;&gt;ServerModule</title>
<path fill="none" stroke="black" d="M1146,-122.02C1146,-139.37 1146,-163 1146,-163 1146,-163 1760.87,-163 1760.87,-163"/>
<polygon fill="black" stroke="black" points="1760.87,-166.5 1770.87,-163 1760.87,-159.5 1760.87,-166.5"/>
</g>
<!-- SystemApiModule -->
<g id="node18" class="node">
<title>SystemApiModule</title>
<polygon fill="#8dd3c7" stroke="black" points="1065.77,-122 1062.77,-126 1041.77,-126 1038.77,-122 944.23,-122 944.23,-86 1065.77,-86 1065.77,-122"/>
<text text-anchor="middle" x="1005" y="-99.8" font-family="Times,serif" font-size="14.00">SystemApiModule</text>
</g>
<!-- SystemApiModule&#45;&gt;ServerModule -->
<g id="edge18" class="edge">
<title>SystemApiModule&#45;&gt;ServerModule</title>
<path fill="none" stroke="black" d="M1005,-122.22C1005,-140.83 1005,-167 1005,-167 1005,-167 1760.82,-167 1760.82,-167"/>
<polygon fill="black" stroke="black" points="1760.82,-170.5 1770.82,-167 1760.82,-163.5 1760.82,-170.5"/>
</g>
<!-- TaskApiModule -->
<g id="node19" class="node">
<title>TaskApiModule</title>
<polygon fill="#8dd3c7" stroke="black" points="925.76,-122 922.76,-126 901.76,-126 898.76,-122 818.24,-122 818.24,-86 925.76,-86 925.76,-122"/>
<text text-anchor="middle" x="872" y="-99.8" font-family="Times,serif" font-size="14.00">TaskApiModule</text>
</g>
<!-- TaskApiModule&#45;&gt;ServerModule -->
<g id="edge19" class="edge">
<title>TaskApiModule&#45;&gt;ServerModule</title>
<path fill="none" stroke="black" d="M872,-122.11C872,-141.34 872,-169 872,-169 872,-169 1760.74,-169 1760.74,-169"/>
<polygon fill="black" stroke="black" points="1760.74,-172.5 1770.74,-169 1760.74,-165.5 1760.74,-172.5"/>
</g>
<!-- TaskCardModule -->
<g id="node20" class="node">
<title>TaskCardModule</title>
<polygon fill="#8dd3c7" stroke="black" points="799.97,-122 796.97,-126 775.97,-126 772.97,-122 686.03,-122 686.03,-86 799.97,-86 799.97,-122"/>
<text text-anchor="middle" x="743" y="-99.8" font-family="Times,serif" font-size="14.00">TaskCardModule</text>
</g>
<!-- TaskCardModule&#45;&gt;ServerModule -->
<g id="edge20" class="edge">
<title>TaskCardModule&#45;&gt;ServerModule</title>
<path fill="none" stroke="black" d="M743,-122.22C743,-142.37 743,-172 743,-172 743,-172 1760.68,-172 1760.68,-172"/>
<polygon fill="black" stroke="black" points="1760.68,-175.5 1770.68,-172 1760.68,-168.5 1760.68,-175.5"/>
</g>
<!-- ToolApiModule -->
<g id="node21" class="node">
<title>ToolApiModule</title>
<polygon fill="#8dd3c7" stroke="black" points="668.49,-122 665.49,-126 644.49,-126 641.49,-122 561.51,-122 561.51,-86 668.49,-86 668.49,-122"/>
<text text-anchor="middle" x="615" y="-99.8" font-family="Times,serif" font-size="14.00">ToolApiModule</text>
</g>
<!-- ToolApiModule&#45;&gt;ServerModule -->
<g id="edge21" class="edge">
<title>ToolApiModule&#45;&gt;ServerModule</title>
<path fill="none" stroke="black" d="M615,-122.28C615,-143.32 615,-175 615,-175 615,-175 1760.69,-175 1760.69,-175"/>
<polygon fill="black" stroke="black" points="1760.69,-178.5 1770.69,-175 1760.69,-171.5 1760.69,-178.5"/>
</g>
<!-- UserApiModule -->
<g id="node22" class="node">
<title>UserApiModule</title>
<polygon fill="#8dd3c7" stroke="black" points="543.47,-122 540.47,-126 519.47,-126 516.47,-122 436.53,-122 436.53,-86 543.47,-86 543.47,-122"/>
<text text-anchor="middle" x="490" y="-99.8" font-family="Times,serif" font-size="14.00">UserApiModule</text>
</g>
<!-- UserApiModule&#45;&gt;ServerModule -->
<g id="edge22" class="edge">
<title>UserApiModule&#45;&gt;ServerModule</title>
<path fill="none" stroke="black" d="M490,-122.29C490,-144.21 490,-178 490,-178 490,-178 1760.92,-178 1760.92,-178"/>
<polygon fill="black" stroke="black" points="1760.92,-181.5 1770.92,-178 1760.92,-174.5 1760.92,-181.5"/>
</g>
<!-- UserLoginMigrationApiModule -->
<g id="node23" class="node">
<title>UserLoginMigrationApiModule</title>
<polygon fill="#8dd3c7" stroke="black" points="418.41,-122 415.41,-126 394.41,-126 391.41,-122 221.59,-122 221.59,-86 418.41,-86 418.41,-122"/>
<text text-anchor="middle" x="320" y="-99.8" font-family="Times,serif" font-size="14.00">UserLoginMigrationApiModule</text>
</g>
<!-- UserLoginMigrationApiModule&#45;&gt;ServerModule -->
<g id="edge23" class="edge">
<title>UserLoginMigrationApiModule&#45;&gt;ServerModule</title>
<path fill="none" stroke="black" d="M320,-122.09C320,-145.13 320,-182 320,-182 320,-182 1760.82,-182 1760.82,-182"/>
<polygon fill="black" stroke="black" points="1760.82,-185.5 1770.82,-182 1760.82,-178.5 1760.82,-185.5"/>
</g>
<!-- VideoConferenceApiModule -->
<g id="node24" class="node">
<title>VideoConferenceApiModule</title>
<polygon fill="#8dd3c7" stroke="black" points="203.78,-122 200.78,-126 179.78,-126 176.78,-122 24.22,-122 24.22,-86 203.78,-86 203.78,-122"/>
<text text-anchor="middle" x="114" y="-99.8" font-family="Times,serif" font-size="14.00">VideoConferenceApiModule</text>
</g>
<!-- VideoConferenceApiModule&#45;&gt;ServerModule -->
<g id="edge24" class="edge">
<title>VideoConferenceApiModule&#45;&gt;ServerModule</title>
<path fill="none" stroke="black" d="M114,-122.15C114,-145.76 114,-184 114,-184 114,-184 1760.72,-184 1760.72,-184"/>
<polygon fill="black" stroke="black" points="1760.72,-187.5 1770.72,-184 1760.72,-180.5 1760.72,-187.5"/>
</g>
</g>
</svg>
