<?xml version="1.0" encoding="UTF-8" standalone="no"?>
<!DOCTYPE svg PUBLIC "-//W3C//DTD SVG 1.1//EN"
 "http://www.w3.org/Graphics/SVG/1.1/DTD/svg11.dtd">
<!-- Generated by graphviz version 2.47.0 (20210316.0004)
 -->
<!-- Title: dependencies Pages: 1 -->
<svg width="4078pt" height="211pt"
 viewBox="0.00 0.00 4078.00 211.00" xmlns="http://www.w3.org/2000/svg" xmlns:xlink="http://www.w3.org/1999/xlink">
<g id="graph0" class="graph" transform="scale(1 1) rotate(0) translate(4 207)">
<title>dependencies</title>
<polygon fill="white" stroke="transparent" points="-4,4 -4,-207 4074,-207 4074,4 -4,4"/>
<text text-anchor="start" x="2014.01" y="-42.4" font-family="Times-12" font-weight="bold" font-size="14.00">Legend</text>
<polygon fill="#ffffb3" stroke="transparent" points="1801,-10 1801,-30 1821,-30 1821,-10 1801,-10"/>
<text text-anchor="start" x="1824.63" y="-15.4" font-family="Times-12" font-size="14.00"> &#160;Declarations</text>
<polygon fill="#8dd3c7" stroke="transparent" points="1914,-10 1914,-30 1934,-30 1934,-10 1914,-10"/>
<text text-anchor="start" x="1937.73" y="-15.4" font-family="Times-12" font-size="14.00"> &#160;Module</text>
<polygon fill="#80b1d3" stroke="transparent" points="2000,-10 2000,-30 2020,-30 2020,-10 2000,-10"/>
<text text-anchor="start" x="2023.78" y="-15.4" font-family="Times-12" font-size="14.00"> &#160;Bootstrap</text>
<polygon fill="#fdb462" stroke="transparent" points="2097,-10 2097,-30 2117,-30 2117,-10 2097,-10"/>
<text text-anchor="start" x="2120.67" y="-15.4" font-family="Times-12" font-size="14.00"> &#160;Providers</text>
<polygon fill="#fb8072" stroke="transparent" points="2193,-10 2193,-30 2213,-30 2213,-10 2193,-10"/>
<text text-anchor="start" x="2216.73" y="-15.4" font-family="Times-12" font-size="14.00"> &#160;Exports</text>
<g id="clust1" class="cluster">
<title>cluster_ServerModule</title>
<polygon fill="none" stroke="black" stroke-dasharray="1,5" points="8,-70 8,-195 4062,-195 4062,-70 8,-70"/>
</g>
<g id="clust3" class="cluster">
<title>cluster_ServerModule_imports</title>
<polygon fill="none" stroke="black" points="16,-78 16,-130 4054,-130 4054,-78 16,-78"/>
</g>
<!-- AccountApiModule -->
<g id="node1" class="node">
<title>AccountApiModule</title>
<polygon fill="#8dd3c7" stroke="black" points="4045.97,-122 4042.97,-126 4021.97,-126 4018.97,-122 3918.03,-122 3918.03,-86 4045.97,-86 4045.97,-122"/>
<text text-anchor="middle" x="3982" y="-99.8" font-family="Times,serif" font-size="14.00">AccountApiModule</text>
</g>
<!-- ServerModule -->
<g id="node29" class="node">
<title>ServerModule</title>
<polygon fill="#8dd3c7" stroke="black" points="2110.08,-187 2107.08,-191 2086.08,-191 2083.08,-187 2013.92,-187 2013.92,-151 2110.08,-151 2110.08,-187"/>
<text text-anchor="middle" x="2062" y="-164.8" font-family="Times,serif" font-size="14.00">ServerModule</text>
</g>
<!-- AccountApiModule&#45;&gt;ServerModule -->
<g id="edge1" class="edge">
<title>AccountApiModule&#45;&gt;ServerModule</title>
<path fill="none" stroke="black" d="M3982,-122.38C3982,-146.28 3982,-185 3982,-185 3982,-185 2120.42,-185 2120.42,-185"/>
<polygon fill="black" stroke="black" points="2120.42,-181.5 2110.42,-185 2120.42,-188.5 2120.42,-181.5"/>
</g>
<!-- AuthenticationApiModule -->
<g id="node2" class="node">
<title>AuthenticationApiModule</title>
<polygon fill="#8dd3c7" stroke="black" points="3899.75,-122 3896.75,-126 3875.75,-126 3872.75,-122 3736.25,-122 3736.25,-86 3899.75,-86 3899.75,-122"/>
<text text-anchor="middle" x="3818" y="-99.8" font-family="Times,serif" font-size="14.00">AuthenticationApiModule</text>
</g>
<!-- AuthenticationApiModule&#45;&gt;ServerModule -->
<g id="edge2" class="edge">
<title>AuthenticationApiModule&#45;&gt;ServerModule</title>
<path fill="none" stroke="black" d="M3818,-122.09C3818,-145.13 3818,-182 3818,-182 3818,-182 2120.34,-182 2120.34,-182"/>
<polygon fill="black" stroke="black" points="2120.34,-178.5 2110.34,-182 2120.34,-185.5 2120.34,-178.5"/>
</g>
<!-- BoardApiModule -->
<g id="node3" class="node">
<title>BoardApiModule</title>
<polygon fill="#8dd3c7" stroke="black" points="3718.26,-122 3715.26,-126 3694.26,-126 3691.26,-122 3603.74,-122 3603.74,-86 3718.26,-86 3718.26,-122"/>
<text text-anchor="middle" x="3661" y="-99.8" font-family="Times,serif" font-size="14.00">BoardApiModule</text>
</g>
<!-- BoardApiModule&#45;&gt;ServerModule -->
<g id="edge3" class="edge">
<title>BoardApiModule&#45;&gt;ServerModule</title>
<path fill="none" stroke="black" d="M3661,-122.01C3661,-144.49 3661,-180 3661,-180 3661,-180 2120.29,-180 2120.29,-180"/>
<polygon fill="black" stroke="black" points="2120.29,-176.5 2110.29,-180 2120.29,-183.5 2120.29,-176.5"/>
</g>
<!-- BoardModule -->
<g id="node4" class="node">
<title>BoardModule</title>
<polygon fill="#8dd3c7" stroke="black" points="3585.76,-122 3582.76,-126 3561.76,-126 3558.76,-122 3492.24,-122 3492.24,-86 3585.76,-86 3585.76,-122"/>
<text text-anchor="middle" x="3539" y="-99.8" font-family="Times,serif" font-size="14.00">BoardModule</text>
</g>
<!-- BoardModule&#45;&gt;ServerModule -->
<g id="edge4" class="edge">
<title>BoardModule&#45;&gt;ServerModule</title>
<path fill="none" stroke="black" d="M3539,-122.04C3539,-143.66 3539,-177 3539,-177 3539,-177 2120.3,-177 2120.3,-177"/>
<polygon fill="black" stroke="black" points="2120.3,-173.5 2110.3,-177 2120.3,-180.5 2120.3,-173.5"/>
</g>
<!-- CollaborativeStorageModule -->
<g id="node5" class="node">
<title>CollaborativeStorageModule</title>
<polygon fill="#8dd3c7" stroke="black" points="3474.02,-122 3471.02,-126 3450.02,-126 3447.02,-122 3295.98,-122 3295.98,-86 3474.02,-86 3474.02,-122"/>
<text text-anchor="middle" x="3385" y="-99.8" font-family="Times,serif" font-size="14.00">CollaborativeStorageModule</text>
</g>
<!-- CollaborativeStorageModule&#45;&gt;ServerModule -->
<g id="edge5" class="edge">
<title>CollaborativeStorageModule&#45;&gt;ServerModule</title>
<path fill="none" stroke="black" d="M3385,-122.28C3385,-143.32 3385,-175 3385,-175 3385,-175 2120.26,-175 2120.26,-175"/>
<polygon fill="black" stroke="black" points="2120.26,-171.5 2110.26,-175 2120.26,-178.5 2120.26,-171.5"/>
</g>
<!-- CoreModule -->
<g id="node6" class="node">
<title>CoreModule</title>
<polygon fill="#8dd3c7" stroke="black" points="3277.26,-122 3274.26,-126 3253.26,-126 3250.26,-122 3190.74,-122 3190.74,-86 3277.26,-86 3277.26,-122"/>
<text text-anchor="middle" x="3234" y="-99.8" font-family="Times,serif" font-size="14.00">CoreModule</text>
</g>
<!-- CoreModule&#45;&gt;ServerModule -->
<g id="edge6" class="edge">
<title>CoreModule&#45;&gt;ServerModule</title>
<path fill="none" stroke="black" d="M3234,-122.22C3234,-142.37 3234,-172 3234,-172 3234,-172 2120.13,-172 2120.13,-172"/>
<polygon fill="black" stroke="black" points="2120.13,-168.5 2110.13,-172 2120.13,-175.5 2120.13,-168.5"/>
</g>
<!-- FilesStorageClientModule -->
<g id="node7" class="node">
<title>FilesStorageClientModule</title>
<polygon fill="#8dd3c7" stroke="black" points="3172.76,-122 3169.76,-126 3148.76,-126 3145.76,-122 3009.24,-122 3009.24,-86 3172.76,-86 3172.76,-122"/>
<text text-anchor="middle" x="3091" y="-99.8" font-family="Times,serif" font-size="14.00">FilesStorageClientModule</text>
</g>
<!-- FilesStorageClientModule&#45;&gt;ServerModule -->
<g id="edge7" class="edge">
<title>FilesStorageClientModule&#45;&gt;ServerModule</title>
<path fill="none" stroke="black" d="M3091,-122.11C3091,-141.34 3091,-169 3091,-169 3091,-169 2120.25,-169 2120.25,-169"/>
<polygon fill="black" stroke="black" points="2120.25,-165.5 2110.25,-169 2120.25,-172.5 2120.25,-165.5"/>
</g>
<!-- ImportUserModule -->
<g id="node8" class="node">
<title>ImportUserModule</title>
<polygon fill="#8dd3c7" stroke="black" points="2991.08,-122 2988.08,-126 2967.08,-126 2964.08,-122 2866.92,-122 2866.92,-86 2991.08,-86 2991.08,-122"/>
<text text-anchor="middle" x="2929" y="-99.8" font-family="Times,serif" font-size="14.00">ImportUserModule</text>
</g>
<!-- ImportUserModule&#45;&gt;ServerModule -->
<g id="edge8" class="edge">
<title>ImportUserModule&#45;&gt;ServerModule</title>
<path fill="none" stroke="black" d="M2929,-122.22C2929,-140.83 2929,-167 2929,-167 2929,-167 2120.16,-167 2120.16,-167"/>
<polygon fill="black" stroke="black" points="2120.16,-163.5 2110.16,-167 2120.16,-170.5 2120.16,-163.5"/>
</g>
<!-- LearnroomModule -->
<g id="node9" class="node">
<title>LearnroomModule</title>
<polygon fill="#8dd3c7" stroke="black" points="2848.74,-122 2845.74,-126 2824.74,-126 2821.74,-122 2727.26,-122 2727.26,-86 2848.74,-86 2848.74,-122"/>
<text text-anchor="middle" x="2788" y="-99.8" font-family="Times,serif" font-size="14.00">LearnroomModule</text>
</g>
<!-- LearnroomModule&#45;&gt;ServerModule -->
<g id="edge9" class="edge">
<title>LearnroomModule&#45;&gt;ServerModule</title>
<path fill="none" stroke="black" d="M2788,-122C2788,-139.68 2788,-164 2788,-164 2788,-164 2120.2,-164 2120.2,-164"/>
<polygon fill="black" stroke="black" points="2120.2,-160.5 2110.2,-164 2120.2,-167.5 2120.2,-160.5"/>
</g>
<!-- LessonApiModule -->
<g id="node10" class="node">
<title>LessonApiModule</title>
<polygon fill="#8dd3c7" stroke="black" points="2709.2,-122 2706.2,-126 2685.2,-126 2682.2,-122 2588.8,-122 2588.8,-86 2709.2,-86 2709.2,-122"/>
<text text-anchor="middle" x="2649" y="-99.8" font-family="Times,serif" font-size="14.00">LessonApiModule</text>
</g>
<!-- LessonApiModule&#45;&gt;ServerModule -->
<g id="edge10" class="edge">
<title>LessonApiModule&#45;&gt;ServerModule</title>
<path fill="none" stroke="black" d="M2649,-122.03C2649,-139.06 2649,-162 2649,-162 2649,-162 2120.29,-162 2120.29,-162"/>
<polygon fill="black" stroke="black" points="2120.29,-158.5 2110.29,-162 2120.29,-165.5 2120.29,-158.5"/>
</g>
<!-- LoggerModule -->
<g id="node11" class="node">
<title>LoggerModule</title>
<polygon fill="#8dd3c7" stroke="black" points="2570.98,-122 2567.98,-126 2546.98,-126 2543.98,-122 2471.02,-122 2471.02,-86 2570.98,-86 2570.98,-122"/>
<text text-anchor="middle" x="2521" y="-99.8" font-family="Times,serif" font-size="14.00">LoggerModule</text>
</g>
<!-- LoggerModule&#45;&gt;ServerModule -->
<g id="edge11" class="edge">
<title>LoggerModule&#45;&gt;ServerModule</title>
<path fill="none" stroke="black" d="M2521,-122.01C2521,-138.05 2521,-159 2521,-159 2521,-159 2120.25,-159 2120.25,-159"/>
<polygon fill="black" stroke="black" points="2120.25,-155.5 2110.25,-159 2120.25,-162.5 2120.25,-155.5"/>
</g>
<!-- NewsModule -->
<g id="node12" class="node">
<title>NewsModule</title>
<polygon fill="#8dd3c7" stroke="black" points="2452.92,-122 2449.92,-126 2428.92,-126 2425.92,-122 2361.08,-122 2361.08,-86 2452.92,-86 2452.92,-122"/>
<text text-anchor="middle" x="2407" y="-99.8" font-family="Times,serif" font-size="14.00">NewsModule</text>
</g>
<!-- NewsModule&#45;&gt;ServerModule -->
<g id="edge12" class="edge">
<title>NewsModule&#45;&gt;ServerModule</title>
<path fill="none" stroke="black" d="M2407,-122.24C2407,-137.57 2407,-157 2407,-157 2407,-157 2120.33,-157 2120.33,-157"/>
<polygon fill="black" stroke="black" points="2120.33,-153.5 2110.33,-157 2120.33,-160.5 2120.33,-153.5"/>
</g>
<!-- OauthApiModule -->
<g id="node13" class="node">
<title>OauthApiModule</title>
<polygon fill="#8dd3c7" stroke="black" points="2343.26,-122 2340.26,-126 2319.26,-126 2316.26,-122 2228.74,-122 2228.74,-86 2343.26,-86 2343.26,-122"/>
<text text-anchor="middle" x="2286" y="-99.8" font-family="Times,serif" font-size="14.00">OauthApiModule</text>
</g>
<!-- OauthApiModule&#45;&gt;ServerModule -->
<g id="edge13" class="edge">
<title>OauthApiModule&#45;&gt;ServerModule</title>
<path fill="none" stroke="black" d="M2286,-122.05C2286,-136.37 2286,-154 2286,-154 2286,-154 2120.05,-154 2120.05,-154"/>
<polygon fill="black" stroke="black" points="2120.05,-150.5 2110.05,-154 2120.05,-157.5 2120.05,-150.5"/>
</g>
<!-- OauthProviderModule -->
<g id="node14" class="node">
<title>OauthProviderModule</title>
<polygon fill="#8dd3c7" stroke="black" points="2210.97,-122 2207.97,-126 2186.97,-126 2183.97,-122 2069.03,-122 2069.03,-86 2210.97,-86 2210.97,-122"/>
<text text-anchor="middle" x="2140" y="-99.8" font-family="Times,serif" font-size="14.00">OauthProviderModule</text>
</g>
<!-- OauthProviderModule&#45;&gt;ServerModule -->
<g id="edge14" class="edge">
<title>OauthProviderModule&#45;&gt;ServerModule</title>
<path fill="none" stroke="black" d="M2089.53,-122.11C2089.53,-122.11 2089.53,-140.99 2089.53,-140.99"/>
<polygon fill="black" stroke="black" points="2086.03,-140.99 2089.53,-150.99 2093.03,-140.99 2086.03,-140.99"/>
</g>
<!-- ProvisioningModule -->
<g id="node15" class="node">
<title>ProvisioningModule</title>
<polygon fill="#8dd3c7" stroke="black" points="2050.61,-122 2047.61,-126 2026.61,-126 2023.61,-122 1919.39,-122 1919.39,-86 2050.61,-86 2050.61,-122"/>
<text text-anchor="middle" x="1985" y="-99.8" font-family="Times,serif" font-size="14.00">ProvisioningModule</text>
</g>
<!-- ProvisioningModule&#45;&gt;ServerModule -->
<g id="edge15" class="edge">
<title>ProvisioningModule&#45;&gt;ServerModule</title>
<path fill="none" stroke="black" d="M2032.26,-122.11C2032.26,-122.11 2032.26,-140.99 2032.26,-140.99"/>
<polygon fill="black" stroke="black" points="2028.76,-140.99 2032.26,-150.99 2035.76,-140.99 2028.76,-140.99"/>
</g>
<!-- RabbitMQWrapperModule -->
<g id="node16" class="node">
<title>RabbitMQWrapperModule</title>
<polygon fill="#8dd3c7" stroke="black" points="1901.4,-122 1898.4,-126 1877.4,-126 1874.4,-122 1732.6,-122 1732.6,-86 1901.4,-86 1901.4,-122"/>
<text text-anchor="middle" x="1817" y="-99.8" font-family="Times,serif" font-size="14.00">RabbitMQWrapperModule</text>
</g>
<!-- RabbitMQWrapperModule&#45;&gt;ServerModule -->
<g id="edge16" class="edge">
<title>RabbitMQWrapperModule&#45;&gt;ServerModule</title>
<path fill="none" stroke="black" d="M1817,-122.05C1817,-136.37 1817,-154 1817,-154 1817,-154 2003.89,-154 2003.89,-154"/>
<polygon fill="black" stroke="black" points="2003.89,-157.5 2013.89,-154 2003.89,-150.5 2003.89,-157.5"/>
</g>
<!-- RedisModule -->
<g id="node17" class="node">
<title>RedisModule</title>
<polygon fill="#8dd3c7" stroke="black" points="1714.94,-122 1711.94,-126 1690.94,-126 1687.94,-122 1623.06,-122 1623.06,-86 1714.94,-86 1714.94,-122"/>
<text text-anchor="middle" x="1669" y="-99.8" font-family="Times,serif" font-size="14.00">RedisModule</text>
</g>
<!-- RedisModule&#45;&gt;ServerModule -->
<g id="edge17" class="edge">
<title>RedisModule&#45;&gt;ServerModule</title>
<path fill="none" stroke="black" d="M1669,-122.24C1669,-137.57 1669,-157 1669,-157 1669,-157 2003.81,-157 2003.81,-157"/>
<polygon fill="black" stroke="black" points="2003.81,-160.5 2013.81,-157 2003.81,-153.5 2003.81,-160.5"/>
</g>
<!-- RoleModule -->
<g id="node18" class="node">
<title>RoleModule</title>
<polygon fill="#8dd3c7" stroke="black" points="1604.99,-122 1601.99,-126 1580.99,-126 1577.99,-122 1519.01,-122 1519.01,-86 1604.99,-86 1604.99,-122"/>
<text text-anchor="middle" x="1562" y="-99.8" font-family="Times,serif" font-size="14.00">RoleModule</text>
</g>
<!-- RoleModule&#45;&gt;ServerModule -->
<g id="edge18" class="edge">
<title>RoleModule&#45;&gt;ServerModule</title>
<path fill="none" stroke="black" d="M1562,-122.01C1562,-138.05 1562,-159 1562,-159 1562,-159 2003.6,-159 2003.6,-159"/>
<polygon fill="black" stroke="black" points="2003.6,-162.5 2013.6,-159 2003.6,-155.5 2003.6,-162.5"/>
</g>
<!-- SchoolApiModule -->
<g id="node19" class="node">
<title>SchoolApiModule</title>
<polygon fill="#8dd3c7" stroke="black" points="1500.94,-122 1497.94,-126 1476.94,-126 1473.94,-122 1381.06,-122 1381.06,-86 1500.94,-86 1500.94,-122"/>
<text text-anchor="middle" x="1441" y="-99.8" font-family="Times,serif" font-size="14.00">SchoolApiModule</text>
</g>
<!-- SchoolApiModule&#45;&gt;ServerModule -->
<g id="edge19" class="edge">
<title>SchoolApiModule&#45;&gt;ServerModule</title>
<path fill="none" stroke="black" d="M1441,-122.03C1441,-139.06 1441,-162 1441,-162 1441,-162 2003.79,-162 2003.79,-162"/>
<polygon fill="black" stroke="black" points="2003.79,-165.5 2013.79,-162 2003.79,-158.5 2003.79,-165.5"/>
</g>
<!-- SharingApiModule -->
<g id="node20" class="node">
<title>SharingApiModule</title>
<polygon fill="#8dd3c7" stroke="black" points="1363.1,-122 1360.1,-126 1339.1,-126 1336.1,-122 1238.9,-122 1238.9,-86 1363.1,-86 1363.1,-122"/>
<text text-anchor="middle" x="1301" y="-99.8" font-family="Times,serif" font-size="14.00">SharingApiModule</text>
</g>
<!-- SharingApiModule&#45;&gt;ServerModule -->
<g id="edge20" class="edge">
<title>SharingApiModule&#45;&gt;ServerModule</title>
<path fill="none" stroke="black" d="M1301,-122C1301,-139.68 1301,-164 1301,-164 1301,-164 2003.82,-164 2003.82,-164"/>
<polygon fill="black" stroke="black" points="2003.82,-167.5 2013.82,-164 2003.82,-160.5 2003.82,-167.5"/>
</g>
<!-- SystemApiModule -->
<g id="node21" class="node">
<title>SystemApiModule</title>
<polygon fill="#8dd3c7" stroke="black" points="1220.77,-122 1217.77,-126 1196.77,-126 1193.77,-122 1099.23,-122 1099.23,-86 1220.77,-86 1220.77,-122"/>
<text text-anchor="middle" x="1160" y="-99.8" font-family="Times,serif" font-size="14.00">SystemApiModule</text>
</g>
<!-- SystemApiModule&#45;&gt;ServerModule -->
<g id="edge21" class="edge">
<title>SystemApiModule&#45;&gt;ServerModule</title>
<path fill="none" stroke="black" d="M1160,-122.22C1160,-140.83 1160,-167 1160,-167 1160,-167 2003.82,-167 2003.82,-167"/>
<polygon fill="black" stroke="black" points="2003.82,-170.5 2013.82,-167 2003.82,-163.5 2003.82,-170.5"/>
</g>
<!-- TaskCardModule -->
<g id="node22" class="node">
<title>TaskCardModule</title>
<polygon fill="#8dd3c7" stroke="black" points="1080.97,-122 1077.97,-126 1056.97,-126 1053.97,-122 967.03,-122 967.03,-86 1080.97,-86 1080.97,-122"/>
<text text-anchor="middle" x="1024" y="-99.8" font-family="Times,serif" font-size="14.00">TaskCardModule</text>
</g>
<!-- TaskCardModule&#45;&gt;ServerModule -->
<g id="edge22" class="edge">
<title>TaskCardModule&#45;&gt;ServerModule</title>
<path fill="none" stroke="black" d="M1024,-122.11C1024,-141.34 1024,-169 1024,-169 1024,-169 2003.67,-169 2003.67,-169"/>
<polygon fill="black" stroke="black" points="2003.67,-172.5 2013.67,-169 2003.67,-165.5 2003.67,-172.5"/>
</g>
<!-- TaskModule -->
<g id="node23" class="node">
<title>TaskModule</title>
<polygon fill="#8dd3c7" stroke="black" points="949.26,-122 946.26,-126 925.26,-126 922.26,-122 862.74,-122 862.74,-86 949.26,-86 949.26,-122"/>
<text text-anchor="middle" x="906" y="-99.8" font-family="Times,serif" font-size="14.00">TaskModule</text>
</g>
<!-- TaskModule&#45;&gt;ServerModule -->
<g id="edge23" class="edge">
<title>TaskModule&#45;&gt;ServerModule</title>
<path fill="none" stroke="black" d="M906,-122.22C906,-142.37 906,-172 906,-172 906,-172 2003.8,-172 2003.8,-172"/>
<polygon fill="black" stroke="black" points="2003.8,-175.5 2013.8,-172 2003.8,-168.5 2003.8,-175.5"/>
</g>
<!-- ToolApiModule -->
<g id="node24" class="node">
<title>ToolApiModule</title>
<polygon fill="#8dd3c7" stroke="black" points="844.49,-122 841.49,-126 820.49,-126 817.49,-122 737.51,-122 737.51,-86 844.49,-86 844.49,-122"/>
<text text-anchor="middle" x="791" y="-99.8" font-family="Times,serif" font-size="14.00">ToolApiModule</text>
</g>
<!-- ToolApiModule&#45;&gt;ServerModule -->
<g id="edge24" class="edge">
<title>ToolApiModule&#45;&gt;ServerModule</title>
<path fill="none" stroke="black" d="M791,-122.28C791,-143.32 791,-175 791,-175 791,-175 2003.73,-175 2003.73,-175"/>
<polygon fill="black" stroke="black" points="2003.73,-178.5 2013.73,-175 2003.73,-171.5 2003.73,-178.5"/>
</g>
<!-- UserApiModule -->
<g id="node25" class="node">
<title>UserApiModule</title>
<polygon fill="#8dd3c7" stroke="black" points="719.47,-122 716.47,-126 695.47,-126 692.47,-122 612.53,-122 612.53,-86 719.47,-86 719.47,-122"/>
<text text-anchor="middle" x="666" y="-99.8" font-family="Times,serif" font-size="14.00">UserApiModule</text>
</g>
<!-- UserApiModule&#45;&gt;ServerModule -->
<g id="edge25" class="edge">
<title>UserApiModule&#45;&gt;ServerModule</title>
<path fill="none" stroke="black" d="M666,-122.04C666,-143.66 666,-177 666,-177 666,-177 2003.95,-177 2003.95,-177"/>
<polygon fill="black" stroke="black" points="2003.95,-180.5 2013.95,-177 2003.95,-173.5 2003.95,-180.5"/>
</g>
<!-- UserLoginMigrationApiModule -->
<g id="node26" class="node">
<title>UserLoginMigrationApiModule</title>
<polygon fill="#8dd3c7" stroke="black" points="594.41,-122 591.41,-126 570.41,-126 567.41,-122 397.59,-122 397.59,-86 594.41,-86 594.41,-122"/>
<text text-anchor="middle" x="496" y="-99.8" font-family="Times,serif" font-size="14.00">UserLoginMigrationApiModule</text>
</g>
<!-- UserLoginMigrationApiModule&#45;&gt;ServerModule -->
<g id="edge26" class="edge">
<title>UserLoginMigrationApiModule&#45;&gt;ServerModule</title>
<path fill="none" stroke="black" d="M496,-122.01C496,-144.49 496,-180 496,-180 496,-180 2003.85,-180 2003.85,-180"/>
<polygon fill="black" stroke="black" points="2003.85,-183.5 2013.85,-180 2003.85,-176.5 2003.85,-183.5"/>
</g>
<!-- VideoConferenceApiModule -->
<g id="node27" class="node">
<title>VideoConferenceApiModule</title>
<polygon fill="#8dd3c7" stroke="black" points="379.78,-122 376.78,-126 355.78,-126 352.78,-122 200.22,-122 200.22,-86 379.78,-86 379.78,-122"/>
<text text-anchor="middle" x="290" y="-99.8" font-family="Times,serif" font-size="14.00">VideoConferenceApiModule</text>
</g>
<!-- VideoConferenceApiModule&#45;&gt;ServerModule -->
<g id="edge27" class="edge">
<title>VideoConferenceApiModule&#45;&gt;ServerModule</title>
<path fill="none" stroke="black" d="M290,-122.09C290,-145.13 290,-182 290,-182 290,-182 2003.68,-182 2003.68,-182"/>
<polygon fill="black" stroke="black" points="2003.68,-185.5 2013.68,-182 2003.68,-178.5 2003.68,-185.5"/>
</g>
<!-- VideoConferenceModule -->
<g id="node28" class="node">
<title>VideoConferenceModule</title>
<polygon fill="#8dd3c7" stroke="black" points="182.28,-122 179.28,-126 158.28,-126 155.28,-122 23.72,-122 23.72,-86 182.28,-86 182.28,-122"/>
<text text-anchor="middle" x="103" y="-99.8" font-family="Times,serif" font-size="14.00">VideoConferenceModule</text>
</g>
<!-- VideoConferenceModule&#45;&gt;ServerModule -->
<g id="edge28" class="edge">
<title>VideoConferenceModule&#45;&gt;ServerModule</title>
<path fill="none" stroke="black" d="M103,-122.38C103,-146.28 103,-185 103,-185 103,-185 2003.58,-185 2003.58,-185"/>
<polygon fill="black" stroke="black" points="2003.58,-188.5 2013.58,-185 2003.57,-181.5 2003.58,-188.5"/>
</g>
</g>
</svg>
