<?xml version="1.0" encoding="UTF-8" standalone="no"?>
<!DOCTYPE svg PUBLIC "-//W3C//DTD SVG 1.1//EN"
 "http://www.w3.org/Graphics/SVG/1.1/DTD/svg11.dtd">
<!-- Generated by graphviz version 2.47.0 (20210316.0004)
 -->
<!-- Title: dependencies Pages: 1 -->
<svg width="1152pt" height="211pt"
 viewBox="0.00 0.00 1152.00 211.00" xmlns="http://www.w3.org/2000/svg" xmlns:xlink="http://www.w3.org/1999/xlink">
<g id="graph0" class="graph" transform="scale(1 1) rotate(0) translate(4 207)">
<title>dependencies</title>
<polygon fill="white" stroke="transparent" points="-4,4 -4,-207 1148,-207 1148,4 -4,4"/>
<text text-anchor="start" x="551.01" y="-42.4" font-family="Times-12" font-weight="bold" font-size="14.00">Legend</text>
<polygon fill="#ffffb3" stroke="transparent" points="338,-10 338,-30 358,-30 358,-10 338,-10"/>
<text text-anchor="start" x="361.63" y="-15.4" font-family="Times-12" font-size="14.00"> &#160;Declarations</text>
<polygon fill="#8dd3c7" stroke="transparent" points="451,-10 451,-30 471,-30 471,-10 451,-10"/>
<text text-anchor="start" x="474.73" y="-15.4" font-family="Times-12" font-size="14.00"> &#160;Module</text>
<polygon fill="#80b1d3" stroke="transparent" points="537,-10 537,-30 557,-30 557,-10 537,-10"/>
<text text-anchor="start" x="560.78" y="-15.4" font-family="Times-12" font-size="14.00"> &#160;Bootstrap</text>
<polygon fill="#fdb462" stroke="transparent" points="634,-10 634,-30 654,-30 654,-10 634,-10"/>
<text text-anchor="start" x="657.67" y="-15.4" font-family="Times-12" font-size="14.00"> &#160;Providers</text>
<polygon fill="#fb8072" stroke="transparent" points="730,-10 730,-30 750,-30 750,-10 730,-10"/>
<text text-anchor="start" x="753.73" y="-15.4" font-family="Times-12" font-size="14.00"> &#160;Exports</text>
<g id="clust1" class="cluster">
<title>cluster_ServerModule</title>
<polygon fill="none" stroke="black" stroke-dasharray="1,5" points="8,-70 8,-195 1136,-195 1136,-70 8,-70"/>
</g>
<g id="clust3" class="cluster">
<title>cluster_ServerModule_imports</title>
<polygon fill="none" stroke="black" points="134,-78 134,-130 1128,-130 1128,-78 134,-78"/>
</g>
<g id="clust6" class="cluster">
<title>cluster_ServerModule_providers</title>
<polygon fill="none" stroke="black" points="16,-78 16,-130 126,-130 126,-78 16,-78"/>
</g>
<!-- DeletionApiModule -->
<g id="node1" class="node">
<title>DeletionApiModule</title>
<polygon fill="#8dd3c7" stroke="black" points="1120.25,-122 1117.25,-126 1096.25,-126 1093.25,-122 991.75,-122 991.75,-86 1120.25,-86 1120.25,-122"/>
<text text-anchor="middle" x="1056" y="-99.8" font-family="Times,serif" font-size="14.00">DeletionApiModule</text>
</g>
<!-- ServerModule -->
<g id="node7" class="node">
<title>ServerModule</title>
<polygon fill="#8dd3c7" stroke="black" points="602.08,-187 599.08,-191 578.08,-191 575.08,-187 505.92,-187 505.92,-151 602.08,-151 602.08,-187"/>
<text text-anchor="middle" x="554" y="-164.8" font-family="Times,serif" font-size="14.00">ServerModule</text>
</g>
<!-- DeletionApiModule&#45;&gt;ServerModule -->
<g id="edge1" class="edge">
<title>DeletionApiModule&#45;&gt;ServerModule</title>
<path fill="none" stroke="black" d="M1056,-122.29C1056,-144.21 1056,-178 1056,-178 1056,-178 612.13,-178 612.13,-178"/>
<polygon fill="black" stroke="black" points="612.13,-174.5 602.13,-178 612.13,-181.5 612.13,-174.5"/>
</g>
<!-- LegacySchoolAdminApiModule -->
<g id="node2" class="node">
<title>LegacySchoolAdminApiModule</title>
<polygon fill="#8dd3c7" stroke="black" points="973.52,-122 970.52,-126 949.52,-126 946.52,-122 774.48,-122 774.48,-86 973.52,-86 973.52,-122"/>
<text text-anchor="middle" x="874" y="-99.8" font-family="Times,serif" font-size="14.00">LegacySchoolAdminApiModule</text>
</g>
<!-- LegacySchoolAdminApiModule&#45;&gt;ServerModule -->
<g id="edge2" class="edge">
<title>LegacySchoolAdminApiModule&#45;&gt;ServerModule</title>
<path fill="none" stroke="black" d="M874,-122.11C874,-141.34 874,-169 874,-169 874,-169 612.25,-169 612.25,-169"/>
<polygon fill="black" stroke="black" points="612.25,-165.5 602.25,-169 612.25,-172.5 612.25,-165.5"/>
</g>
<!-- LoggerModule -->
<g id="node3" class="node">
<title>LoggerModule</title>
<polygon fill="#8dd3c7" stroke="black" points="755.98,-122 752.98,-126 731.98,-126 728.98,-122 656.02,-122 656.02,-86 755.98,-86 755.98,-122"/>
<text text-anchor="middle" x="706" y="-99.8" font-family="Times,serif" font-size="14.00">LoggerModule</text>
</g>
<!-- LoggerModule&#45;&gt;ServerModule -->
<g id="edge3" class="edge">
<title>LoggerModule&#45;&gt;ServerModule</title>
<path fill="none" stroke="black" d="M706,-122.03C706,-138.4 706,-160 706,-160 706,-160 612.09,-160 612.09,-160"/>
<polygon fill="black" stroke="black" points="612.09,-156.5 602.09,-160 612.09,-163.5 612.09,-156.5"/>
</g>
<!-- RabbitMQWrapperModule -->
<g id="node4" class="node">
<title>RabbitMQWrapperModule</title>
<polygon fill="#8dd3c7" stroke="black" points="638.4,-122 635.4,-126 614.4,-126 611.4,-122 469.6,-122 469.6,-86 638.4,-86 638.4,-122"/>
<text text-anchor="middle" x="554" y="-99.8" font-family="Times,serif" font-size="14.00">RabbitMQWrapperModule</text>
</g>
<!-- RabbitMQWrapperModule&#45;&gt;ServerModule -->
<g id="edge4" class="edge">
<title>RabbitMQWrapperModule&#45;&gt;ServerModule</title>
<path fill="none" stroke="black" d="M554,-122.11C554,-122.11 554,-140.99 554,-140.99"/>
<polygon fill="black" stroke="black" points="550.5,-140.99 554,-150.99 557.5,-140.99 550.5,-140.99"/>
</g>
<!-- ToolAdminApiModule -->
<g id="node5" class="node">
<title>ToolAdminApiModule</title>
<polygon fill="#8dd3c7" stroke="black" points="451.88,-122 448.88,-126 427.88,-126 424.88,-122 306.12,-122 306.12,-86 451.88,-86 451.88,-122"/>
<text text-anchor="middle" x="379" y="-99.8" font-family="Times,serif" font-size="14.00">ToolAdminApiModule</text>
</g>
<!-- ToolAdminApiModule&#45;&gt;ServerModule -->
<g id="edge5" class="edge">
<title>ToolAdminApiModule&#45;&gt;ServerModule</title>
<path fill="none" stroke="black" d="M379,-122.03C379,-138.4 379,-160 379,-160 379,-160 495.72,-160 495.72,-160"/>
<polygon fill="black" stroke="black" points="495.72,-163.5 505.72,-160 495.72,-156.5 495.72,-163.5"/>
</g>
<!-- UserAdminApiModule -->
<g id="node6" class="node">
<title>UserAdminApiModule</title>
<polygon fill="#8dd3c7" stroke="black" points="287.86,-122 284.86,-126 263.86,-126 260.86,-122 142.14,-122 142.14,-86 287.86,-86 287.86,-122"/>
<text text-anchor="middle" x="215" y="-99.8" font-family="Times,serif" font-size="14.00">UserAdminApiModule</text>
</g>
<!-- UserAdminApiModule&#45;&gt;ServerModule -->
<g id="edge6" class="edge">
<title>UserAdminApiModule&#45;&gt;ServerModule</title>
<path fill="none" stroke="black" d="M215,-122.11C215,-141.34 215,-169 215,-169 215,-169 495.79,-169 495.79,-169"/>
<polygon fill="black" stroke="black" points="495.79,-172.5 505.79,-169 495.79,-165.5 495.79,-172.5"/>
</g>
<!-- ServerUc -->
<g id="node8" class="node">
<title>ServerUc</title>
<ellipse fill="#fdb462" stroke="black" cx="71" cy="-104" rx="47.49" ry="18"/>
<text text-anchor="middle" x="71" y="-99.8" font-family="Times,serif" font-size="14.00">ServerUc</text>
</g>
<!-- ServerUc&#45;&gt;ServerModule -->
<g id="edge7" class="edge">
<title>ServerUc&#45;&gt;ServerModule</title>
<path fill="none" stroke="black" d="M71,-122.29C71,-144.21 71,-178 71,-178 71,-178 495.92,-178 495.92,-178"/>
<polygon fill="black" stroke="black" points="495.92,-181.5 505.92,-178 495.92,-174.5 495.92,-181.5"/>
</g>
</g>
</svg>
