<?xml version="1.0" encoding="UTF-8" standalone="no"?>
<!DOCTYPE svg PUBLIC "-//W3C//DTD SVG 1.1//EN"
 "http://www.w3.org/Graphics/SVG/1.1/DTD/svg11.dtd">
<!-- Generated by graphviz version 2.47.0 (20210316.0004)
 -->
<!-- Title: dependencies Pages: 1 -->
<svg width="2493pt" height="284pt"
 viewBox="0.00 0.00 2493.00 284.00" xmlns="http://www.w3.org/2000/svg" xmlns:xlink="http://www.w3.org/1999/xlink">
<g id="graph0" class="graph" transform="scale(1 1) rotate(0) translate(4 280)">
<title>dependencies</title>
<polygon fill="white" stroke="transparent" points="-4,4 -4,-280 2489,-280 2489,4 -4,4"/>
<text text-anchor="start" x="1221.51" y="-42.4" font-family="Times-12" font-weight="bold" font-size="14.00">Legend</text>
<polygon fill="#ffffb3" stroke="transparent" points="1008.5,-10 1008.5,-30 1028.5,-30 1028.5,-10 1008.5,-10"/>
<text text-anchor="start" x="1032.13" y="-15.4" font-family="Times-12" font-size="14.00"> &#160;Declarations</text>
<polygon fill="#8dd3c7" stroke="transparent" points="1121.5,-10 1121.5,-30 1141.5,-30 1141.5,-10 1121.5,-10"/>
<text text-anchor="start" x="1145.23" y="-15.4" font-family="Times-12" font-size="14.00"> &#160;Module</text>
<polygon fill="#80b1d3" stroke="transparent" points="1207.5,-10 1207.5,-30 1227.5,-30 1227.5,-10 1207.5,-10"/>
<text text-anchor="start" x="1231.28" y="-15.4" font-family="Times-12" font-size="14.00"> &#160;Bootstrap</text>
<polygon fill="#fdb462" stroke="transparent" points="1304.5,-10 1304.5,-30 1324.5,-30 1324.5,-10 1304.5,-10"/>
<text text-anchor="start" x="1328.17" y="-15.4" font-family="Times-12" font-size="14.00"> &#160;Providers</text>
<polygon fill="#fb8072" stroke="transparent" points="1400.5,-10 1400.5,-30 1420.5,-30 1420.5,-10 1400.5,-10"/>
<text text-anchor="start" x="1424.23" y="-15.4" font-family="Times-12" font-size="14.00"> &#160;Exports</text>
<g id="clust1" class="cluster">
<title>cluster_TaskModule</title>
<polygon fill="none" stroke="black" stroke-dasharray="1,5" points="8,-70 8,-268 2477,-268 2477,-70 8,-70"/>
</g>
<g id="clust6" class="cluster">
<title>cluster_TaskModule_providers</title>
<polygon fill="none" stroke="black" points="506,-78 506,-130 2469,-130 2469,-78 506,-78"/>
</g>
<g id="clust3" class="cluster">
<title>cluster_TaskModule_imports</title>
<polygon fill="none" stroke="black" points="16,-78 16,-130 498,-130 498,-78 16,-78"/>
</g>
<g id="clust4" class="cluster">
<title>cluster_TaskModule_exports</title>
<polygon fill="none" stroke="black" points="1022,-208 1022,-260 1264,-260 1264,-208 1022,-208"/>
</g>
<!-- AuthorizationModule -->
<g id="node1" class="node">
<title>AuthorizationModule</title>
<polygon fill="#8dd3c7" stroke="black" points="489.81,-122 486.81,-126 465.81,-126 462.81,-122 352.19,-122 352.19,-86 489.81,-86 489.81,-122"/>
<text text-anchor="middle" x="421" y="-99.8" font-family="Times,serif" font-size="14.00">AuthorizationModule</text>
</g>
<!-- TaskModule -->
<g id="node4" class="node">
<title>TaskModule</title>
<polygon fill="#8dd3c7" stroke="black" points="1178.26,-187 1175.26,-191 1154.26,-191 1151.26,-187 1091.74,-187 1091.74,-151 1178.26,-151 1178.26,-187"/>
<text text-anchor="middle" x="1135" y="-164.8" font-family="Times,serif" font-size="14.00">TaskModule</text>
</g>
<!-- AuthorizationModule&#45;&gt;TaskModule -->
<g id="edge1" class="edge">
<title>AuthorizationModule&#45;&gt;TaskModule</title>
<path fill="none" stroke="black" d="M421,-122.03C421,-142.77 421,-174 421,-174 421,-174 1081.68,-174 1081.68,-174"/>
<polygon fill="black" stroke="black" points="1081.68,-177.5 1091.68,-174 1081.68,-170.5 1081.68,-177.5"/>
</g>
<!-- CopyHelperModule -->
<g id="node2" class="node">
<title>CopyHelperModule</title>
<polygon fill="#8dd3c7" stroke="black" points="333.97,-122 330.97,-126 309.97,-126 306.97,-122 206.03,-122 206.03,-86 333.97,-86 333.97,-122"/>
<text text-anchor="middle" x="270" y="-99.8" font-family="Times,serif" font-size="14.00">CopyHelperModule</text>
</g>
<!-- CopyHelperModule&#45;&gt;TaskModule -->
<g id="edge2" class="edge">
<title>CopyHelperModule&#45;&gt;TaskModule</title>
<path fill="none" stroke="black" d="M270,-122.29C270,-144.21 270,-178 270,-178 270,-178 1081.51,-178 1081.51,-178"/>
<polygon fill="black" stroke="black" points="1081.51,-181.5 1091.51,-178 1081.51,-174.5 1081.51,-181.5"/>
</g>
<!-- FilesStorageClientModule -->
<g id="node3" class="node">
<title>FilesStorageClientModule</title>
<polygon fill="#8dd3c7" stroke="black" points="187.76,-122 184.76,-126 163.76,-126 160.76,-122 24.24,-122 24.24,-86 187.76,-86 187.76,-122"/>
<text text-anchor="middle" x="106" y="-99.8" font-family="Times,serif" font-size="14.00">FilesStorageClientModule</text>
</g>
<!-- FilesStorageClientModule&#45;&gt;TaskModule -->
<g id="edge3" class="edge">
<title>FilesStorageClientModule&#45;&gt;TaskModule</title>
<path fill="none" stroke="black" d="M106,-122.32C106,-145.66 106,-183 106,-183 106,-183 1081.44,-183 1081.44,-183"/>
<polygon fill="black" stroke="black" points="1081.44,-186.5 1091.44,-183 1081.44,-179.5 1081.44,-186.5"/>
</g>
<!-- TaskCopyService  -->
<g id="node5" class="node">
<title>TaskCopyService </title>
<polygon fill="#fb8072" stroke="black" points="1255.53,-252 1136.47,-252 1136.47,-216 1255.53,-216 1255.53,-252"/>
<text text-anchor="middle" x="1196" y="-229.8" font-family="Times,serif" font-size="14.00">TaskCopyService </text>
</g>
<!-- TaskModule&#45;&gt;TaskCopyService  -->
<g id="edge4" class="edge">
<title>TaskModule&#45;&gt;TaskCopyService </title>
<path fill="none" stroke="black" stroke-dasharray="5,2" d="M1157.43,-187.11C1157.43,-187.11 1157.43,-205.99 1157.43,-205.99"/>
<polygon fill="black" stroke="black" points="1153.93,-205.99 1157.43,-215.99 1160.93,-205.99 1153.93,-205.99"/>
</g>
<!-- TaskService  -->
<g id="node6" class="node">
<title>TaskService </title>
<polygon fill="#fb8072" stroke="black" points="1118.19,-252 1029.81,-252 1029.81,-216 1118.19,-216 1118.19,-252"/>
<text text-anchor="middle" x="1074" y="-229.8" font-family="Times,serif" font-size="14.00">TaskService </text>
</g>
<!-- TaskModule&#45;&gt;TaskService  -->
<g id="edge5" class="edge">
<title>TaskModule&#45;&gt;TaskService </title>
<path fill="none" stroke="black" stroke-dasharray="5,2" d="M1104.98,-187.11C1104.98,-187.11 1104.98,-205.99 1104.98,-205.99"/>
<polygon fill="black" stroke="black" points="1101.48,-205.99 1104.98,-215.99 1108.48,-205.99 1101.48,-205.99"/>
</g>
<!-- CourseRepo -->
<g id="node7" class="node">
<title>CourseRepo</title>
<ellipse fill="#fdb462" stroke="black" cx="2402" cy="-104" rx="58.55" ry="18"/>
<text text-anchor="middle" x="2402" y="-99.8" font-family="Times,serif" font-size="14.00">CourseRepo</text>
</g>
<!-- CourseRepo&#45;&gt;TaskModule -->
<g id="edge6" class="edge">
<title>CourseRepo&#45;&gt;TaskModule</title>
<path fill="none" stroke="black" d="M2402,-122.32C2402,-145.66 2402,-183 2402,-183 2402,-183 1188.61,-183 1188.61,-183"/>
<polygon fill="black" stroke="black" points="1188.61,-179.5 1178.61,-183 1188.61,-186.5 1188.61,-179.5"/>
</g>
<!-- FeathersServiceProvider -->
<g id="node8" class="node">
<title>FeathersServiceProvider</title>
<ellipse fill="#fdb462" stroke="black" cx="2219" cy="-104" rx="105.91" ry="18"/>
<text text-anchor="middle" x="2219" y="-99.8" font-family="Times,serif" font-size="14.00">FeathersServiceProvider</text>
</g>
<!-- FeathersServiceProvider&#45;&gt;TaskModule -->
<g id="edge7" class="edge">
<title>FeathersServiceProvider&#45;&gt;TaskModule</title>
<path fill="none" stroke="black" d="M2219,-122.29C2219,-144.21 2219,-178 2219,-178 2219,-178 1188.5,-178 1188.5,-178"/>
<polygon fill="black" stroke="black" points="1188.5,-174.5 1178.5,-178 1188.5,-181.5 1188.5,-174.5"/>
</g>
<!-- LegacyLogger -->
<g id="node9" class="node">
<title>LegacyLogger</title>
<ellipse fill="#fdb462" stroke="black" cx="2028" cy="-104" rx="67.18" ry="18"/>
<text text-anchor="middle" x="2028" y="-99.8" font-family="Times,serif" font-size="14.00">LegacyLogger</text>
</g>
<!-- LegacyLogger&#45;&gt;TaskModule -->
<g id="edge8" class="edge">
<title>LegacyLogger&#45;&gt;TaskModule</title>
<path fill="none" stroke="black" d="M2028,-122.03C2028,-142.77 2028,-174 2028,-174 2028,-174 1188.37,-174 1188.37,-174"/>
<polygon fill="black" stroke="black" points="1188.37,-170.5 1178.37,-174 1188.37,-177.5 1188.37,-170.5"/>
</g>
<!-- LessonRepo -->
<g id="node10" class="node">
<title>LessonRepo</title>
<ellipse fill="#fdb462" stroke="black" cx="1884" cy="-104" rx="58.55" ry="18"/>
<text text-anchor="middle" x="1884" y="-99.8" font-family="Times,serif" font-size="14.00">LessonRepo</text>
</g>
<!-- LessonRepo&#45;&gt;TaskModule -->
<g id="edge9" class="edge">
<title>LessonRepo&#45;&gt;TaskModule</title>
<path fill="none" stroke="black" d="M1884,-122.11C1884,-141.34 1884,-169 1884,-169 1884,-169 1188.51,-169 1188.51,-169"/>
<polygon fill="black" stroke="black" points="1188.51,-165.5 1178.51,-169 1188.51,-172.5 1188.51,-165.5"/>
</g>
<!-- SubmissionRepo -->
<g id="node11" class="node">
<title>SubmissionRepo</title>
<ellipse fill="#fdb462" stroke="black" cx="1731" cy="-104" rx="76.49" ry="18"/>
<text text-anchor="middle" x="1731" y="-99.8" font-family="Times,serif" font-size="14.00">SubmissionRepo</text>
</g>
<!-- SubmissionRepo&#45;&gt;TaskModule -->
<g id="edge10" class="edge">
<title>SubmissionRepo&#45;&gt;TaskModule</title>
<path fill="none" stroke="black" d="M1731,-122.3C1731,-140.27 1731,-165 1731,-165 1731,-165 1188.34,-165 1188.34,-165"/>
<polygon fill="black" stroke="black" points="1188.34,-161.5 1178.34,-165 1188.34,-168.5 1188.34,-161.5"/>
</g>
<!-- SubmissionService -->
<g id="node12" class="node">
<title>SubmissionService</title>
<ellipse fill="#fdb462" stroke="black" cx="1551" cy="-104" rx="85.13" ry="18"/>
<text text-anchor="middle" x="1551" y="-99.8" font-family="Times,serif" font-size="14.00">SubmissionService</text>
</g>
<!-- SubmissionService&#45;&gt;TaskModule -->
<g id="edge11" class="edge">
<title>SubmissionService&#45;&gt;TaskModule</title>
<path fill="none" stroke="black" d="M1551,-122.03C1551,-138.4 1551,-160 1551,-160 1551,-160 1188.34,-160 1188.34,-160"/>
<polygon fill="black" stroke="black" points="1188.34,-156.5 1178.34,-160 1188.34,-163.5 1188.34,-156.5"/>
</g>
<!-- SubmissionUc -->
<g id="node13" class="node">
<title>SubmissionUc</title>
<ellipse fill="#fdb462" stroke="black" cx="1381" cy="-104" rx="67.24" ry="18"/>
<text text-anchor="middle" x="1381" y="-99.8" font-family="Times,serif" font-size="14.00">SubmissionUc</text>
</g>
<!-- SubmissionUc&#45;&gt;TaskModule -->
<g id="edge12" class="edge">
<title>SubmissionUc&#45;&gt;TaskModule</title>
<path fill="none" stroke="black" d="M1381,-122.19C1381,-137.18 1381,-156 1381,-156 1381,-156 1188.41,-156 1188.41,-156"/>
<polygon fill="black" stroke="black" points="1188.41,-152.5 1178.41,-156 1188.41,-159.5 1188.41,-152.5"/>
</g>
<!-- TaskCopyService -->
<g id="node14" class="node">
<title>TaskCopyService</title>
<ellipse fill="#fdb462" stroke="black" cx="1216" cy="-104" rx="79.88" ry="18"/>
<text text-anchor="middle" x="1216" y="-99.8" font-family="Times,serif" font-size="14.00">TaskCopyService</text>
</g>
<!-- TaskCopyService&#45;&gt;TaskModule -->
<g id="edge13" class="edge">
<title>TaskCopyService&#45;&gt;TaskModule</title>
<path fill="none" stroke="black" d="M1157.35,-116.23C1157.35,-116.23 1157.35,-140.68 1157.35,-140.68"/>
<polygon fill="black" stroke="black" points="1153.85,-140.68 1157.35,-150.68 1160.85,-140.68 1153.85,-140.68"/>
</g>
<!-- TaskCopyUC -->
<g id="node15" class="node">
<title>TaskCopyUC</title>
<ellipse fill="#fdb462" stroke="black" cx="1054" cy="-104" rx="64.29" ry="18"/>
<text text-anchor="middle" x="1054" y="-99.8" font-family="Times,serif" font-size="14.00">TaskCopyUC</text>
</g>
<!-- TaskCopyUC&#45;&gt;TaskModule -->
<g id="edge14" class="edge">
<title>TaskCopyUC&#45;&gt;TaskModule</title>
<path fill="none" stroke="black" d="M1104.88,-115.03C1104.88,-115.03 1104.88,-140.78 1104.88,-140.78"/>
<polygon fill="black" stroke="black" points="1101.38,-140.78 1104.88,-150.78 1108.38,-140.78 1101.38,-140.78"/>
</g>
<!-- TaskRepo -->
<g id="node16" class="node">
<title>TaskRepo</title>
<ellipse fill="#fdb462" stroke="black" cx="922" cy="-104" rx="50.38" ry="18"/>
<text text-anchor="middle" x="922" y="-99.8" font-family="Times,serif" font-size="14.00">TaskRepo</text>
</g>
<!-- TaskRepo&#45;&gt;TaskModule -->
<g id="edge15" class="edge">
<title>TaskRepo&#45;&gt;TaskModule</title>
<path fill="none" stroke="black" d="M922,-122.19C922,-137.18 922,-156 922,-156 922,-156 1081.64,-156 1081.64,-156"/>
<polygon fill="black" stroke="black" points="1081.64,-159.5 1091.64,-156 1081.64,-152.5 1081.64,-159.5"/>
</g>
<!-- TaskService -->
<g id="node17" class="node">
<title>TaskService</title>
<ellipse fill="#fdb462" stroke="black" cx="795" cy="-104" rx="58.53" ry="18"/>
<text text-anchor="middle" x="795" y="-99.8" font-family="Times,serif" font-size="14.00">TaskService</text>
</g>
<!-- TaskService&#45;&gt;TaskModule -->
<g id="edge16" class="edge">
<title>TaskService&#45;&gt;TaskModule</title>
<path fill="none" stroke="black" d="M795,-122.03C795,-138.4 795,-160 795,-160 795,-160 1081.59,-160 1081.59,-160"/>
<polygon fill="black" stroke="black" points="1081.59,-163.5 1091.59,-160 1081.59,-156.5 1081.59,-163.5"/>
</g>
<!-- TaskUC -->
<g id="node18" class="node">
<title>TaskUC</title>
<ellipse fill="#fdb462" stroke="black" cx="675" cy="-104" rx="43.44" ry="18"/>
<text text-anchor="middle" x="675" y="-99.8" font-family="Times,serif" font-size="14.00">TaskUC</text>
</g>
<!-- TaskUC&#45;&gt;TaskModule -->
<g id="edge17" class="edge">
<title>TaskUC&#45;&gt;TaskModule</title>
<path fill="none" stroke="black" d="M675,-122.3C675,-140.27 675,-165 675,-165 675,-165 1081.72,-165 1081.72,-165"/>
<polygon fill="black" stroke="black" points="1081.72,-168.5 1091.72,-165 1081.72,-161.5 1081.72,-168.5"/>
</g>
<!-- UserRepo -->
<g id="node19" class="node">
<title>UserRepo</title>
<ellipse fill="#fdb462" stroke="black" cx="564" cy="-104" rx="49.8" ry="18"/>
<text text-anchor="middle" x="564" y="-99.8" font-family="Times,serif" font-size="14.00">UserRepo</text>
</g>
<!-- UserRepo&#45;&gt;TaskModule -->
<g id="edge18" class="edge">
<title>UserRepo&#45;&gt;TaskModule</title>
<path fill="none" stroke="black" d="M564,-122.11C564,-141.34 564,-169 564,-169 564,-169 1081.61,-169 1081.61,-169"/>
<polygon fill="black" stroke="black" points="1081.61,-172.5 1091.61,-169 1081.61,-165.5 1081.61,-172.5"/>
</g>
</g>
</svg>
