<?xml version="1.0" encoding="UTF-8" standalone="no"?>
<!DOCTYPE svg PUBLIC "-//W3C//DTD SVG 1.1//EN"
 "http://www.w3.org/Graphics/SVG/1.1/DTD/svg11.dtd">
<!-- Generated by graphviz version 2.47.0 (20210316.0004)
 -->
<!-- Title: dependencies Pages: 1 -->
<svg width="1552pt" height="284pt"
 viewBox="0.00 0.00 1552.00 284.00" xmlns="http://www.w3.org/2000/svg" xmlns:xlink="http://www.w3.org/1999/xlink">
<g id="graph0" class="graph" transform="scale(1 1) rotate(0) translate(4 280)">
<title>dependencies</title>
<polygon fill="white" stroke="transparent" points="-4,4 -4,-280 1548,-280 1548,4 -4,4"/>
<text text-anchor="start" x="751.01" y="-42.4" font-family="Times-12" font-weight="bold" font-size="14.00">Legend</text>
<polygon fill="#ffffb3" stroke="transparent" points="538,-10 538,-30 558,-30 558,-10 538,-10"/>
<text text-anchor="start" x="561.63" y="-15.4" font-family="Times-12" font-size="14.00"> &#160;Declarations</text>
<polygon fill="#8dd3c7" stroke="transparent" points="651,-10 651,-30 671,-30 671,-10 651,-10"/>
<text text-anchor="start" x="674.73" y="-15.4" font-family="Times-12" font-size="14.00"> &#160;Module</text>
<polygon fill="#80b1d3" stroke="transparent" points="737,-10 737,-30 757,-30 757,-10 737,-10"/>
<text text-anchor="start" x="760.78" y="-15.4" font-family="Times-12" font-size="14.00"> &#160;Bootstrap</text>
<polygon fill="#fdb462" stroke="transparent" points="834,-10 834,-30 854,-30 854,-10 834,-10"/>
<text text-anchor="start" x="857.67" y="-15.4" font-family="Times-12" font-size="14.00"> &#160;Providers</text>
<polygon fill="#fb8072" stroke="transparent" points="930,-10 930,-30 950,-30 950,-10 930,-10"/>
<text text-anchor="start" x="953.73" y="-15.4" font-family="Times-12" font-size="14.00"> &#160;Exports</text>
<g id="clust1" class="cluster">
<title>cluster_TaskModule</title>
<polygon fill="none" stroke="black" stroke-dasharray="1,5" points="8,-70 8,-268 1536,-268 1536,-70 8,-70"/>
</g>
<g id="clust6" class="cluster">
<title>cluster_TaskModule_providers</title>
<polygon fill="none" stroke="black" points="350,-78 350,-130 1528,-130 1528,-78 350,-78"/>
</g>
<g id="clust4" class="cluster">
<title>cluster_TaskModule_exports</title>
<polygon fill="none" stroke="black" points="561,-208 561,-260 947,-260 947,-208 561,-208"/>
</g>
<g id="clust3" class="cluster">
<title>cluster_TaskModule_imports</title>
<polygon fill="none" stroke="black" points="16,-78 16,-130 342,-130 342,-78 16,-78"/>
</g>
<!-- CopyHelperModule -->
<g id="node1" class="node">
<title>CopyHelperModule</title>
<polygon fill="#8dd3c7" stroke="black" points="333.97,-122 330.97,-126 309.97,-126 306.97,-122 206.03,-122 206.03,-86 333.97,-86 333.97,-122"/>
<text text-anchor="middle" x="270" y="-99.8" font-family="Times,serif" font-size="14.00">CopyHelperModule</text>
</g>
<!-- TaskModule -->
<g id="node3" class="node">
<title>TaskModule</title>
<polygon fill="#8dd3c7" stroke="black" points="778.26,-187 775.26,-191 754.26,-191 751.26,-187 691.74,-187 691.74,-151 778.26,-151 778.26,-187"/>
<text text-anchor="middle" x="735" y="-164.8" font-family="Times,serif" font-size="14.00">TaskModule</text>
</g>
<!-- CopyHelperModule&#45;&gt;TaskModule -->
<g id="edge1" class="edge">
<title>CopyHelperModule&#45;&gt;TaskModule</title>
<path fill="none" stroke="black" d="M270,-122.11C270,-141.34 270,-169 270,-169 270,-169 681.67,-169 681.67,-169"/>
<polygon fill="black" stroke="black" points="681.67,-172.5 691.67,-169 681.67,-165.5 681.67,-172.5"/>
</g>
<!-- FilesStorageClientModule -->
<g id="node2" class="node">
<title>FilesStorageClientModule</title>
<polygon fill="#8dd3c7" stroke="black" points="187.76,-122 184.76,-126 163.76,-126 160.76,-122 24.24,-122 24.24,-86 187.76,-86 187.76,-122"/>
<text text-anchor="middle" x="106" y="-99.8" font-family="Times,serif" font-size="14.00">FilesStorageClientModule</text>
</g>
<!-- FilesStorageClientModule&#45;&gt;TaskModule -->
<g id="edge2" class="edge">
<title>FilesStorageClientModule&#45;&gt;TaskModule</title>
<path fill="none" stroke="black" d="M106,-122.28C106,-143.32 106,-175 106,-175 106,-175 681.27,-175 681.27,-175"/>
<polygon fill="black" stroke="black" points="681.27,-178.5 691.27,-175 681.27,-171.5 681.27,-178.5"/>
</g>
<!-- SubmissionService  -->
<g id="node4" class="node">
<title>SubmissionService </title>
<polygon fill="#fb8072" stroke="black" points="939.32,-252 812.68,-252 812.68,-216 939.32,-216 939.32,-252"/>
<text text-anchor="middle" x="876" y="-229.8" font-family="Times,serif" font-size="14.00">SubmissionService </text>
</g>
<!-- TaskModule&#45;&gt;SubmissionService  -->
<g id="edge3" class="edge">
<title>TaskModule&#45;&gt;SubmissionService </title>
<path fill="none" stroke="black" stroke-dasharray="5,2" d="M778.39,-181C811.2,-181 850.64,-181 850.64,-181 850.64,-181 850.64,-205.76 850.64,-205.76"/>
<polygon fill="black" stroke="black" points="847.14,-205.76 850.64,-215.76 854.14,-205.76 847.14,-205.76"/>
</g>
<!-- TaskCopyService  -->
<g id="node5" class="node">
<title>TaskCopyService </title>
<polygon fill="#fb8072" stroke="black" points="794.53,-252 675.47,-252 675.47,-216 794.53,-216 794.53,-252"/>
<text text-anchor="middle" x="735" y="-229.8" font-family="Times,serif" font-size="14.00">TaskCopyService </text>
</g>
<!-- TaskModule&#45;&gt;TaskCopyService  -->
<g id="edge4" class="edge">
<title>TaskModule&#45;&gt;TaskCopyService </title>
<path fill="none" stroke="black" stroke-dasharray="5,2" d="M735,-187.11C735,-187.11 735,-205.99 735,-205.99"/>
<polygon fill="black" stroke="black" points="731.5,-205.99 735,-215.99 738.5,-205.99 731.5,-205.99"/>
</g>
<!-- TaskService  -->
<g id="node6" class="node">
<title>TaskService </title>
<polygon fill="#fb8072" stroke="black" points="657.19,-252 568.81,-252 568.81,-216 657.19,-216 657.19,-252"/>
<text text-anchor="middle" x="613" y="-229.8" font-family="Times,serif" font-size="14.00">TaskService </text>
</g>
<!-- TaskModule&#45;&gt;TaskService  -->
<g id="edge5" class="edge">
<title>TaskModule&#45;&gt;TaskService </title>
<path fill="none" stroke="black" stroke-dasharray="5,2" d="M691.61,-181C664.26,-181 634.08,-181 634.08,-181 634.08,-181 634.08,-205.76 634.08,-205.76"/>
<polygon fill="black" stroke="black" points="630.58,-205.76 634.08,-215.76 637.58,-205.76 630.58,-205.76"/>
</g>
<!-- CourseRepo -->
<g id="node7" class="node">
<title>CourseRepo</title>
<ellipse fill="#fdb462" stroke="black" cx="1461" cy="-104" rx="58.55" ry="18"/>
<text text-anchor="middle" x="1461" y="-99.8" font-family="Times,serif" font-size="14.00">CourseRepo</text>
</g>
<!-- CourseRepo&#45;&gt;TaskModule -->
<g id="edge6" class="edge">
<title>CourseRepo&#45;&gt;TaskModule</title>
<path fill="none" stroke="black" d="M1461,-122.28C1461,-143.32 1461,-175 1461,-175 1461,-175 788.51,-175 788.51,-175"/>
<polygon fill="black" stroke="black" points="788.51,-171.5 778.51,-175 788.51,-178.5 788.51,-171.5"/>
</g>
<!-- LessonRepo -->
<g id="node8" class="node">
<title>LessonRepo</title>
<ellipse fill="#fdb462" stroke="black" cx="1325" cy="-104" rx="58.55" ry="18"/>
<text text-anchor="middle" x="1325" y="-99.8" font-family="Times,serif" font-size="14.00">LessonRepo</text>
</g>
<!-- LessonRepo&#45;&gt;TaskModule -->
<g id="edge7" class="edge">
<title>LessonRepo&#45;&gt;TaskModule</title>
<path fill="none" stroke="black" d="M1325,-122.11C1325,-141.34 1325,-169 1325,-169 1325,-169 788.38,-169 788.38,-169"/>
<polygon fill="black" stroke="black" points="788.38,-165.5 778.38,-169 788.38,-172.5 788.38,-165.5"/>
</g>
<!-- SubmissionRepo -->
<g id="node9" class="node">
<title>SubmissionRepo</title>
<ellipse fill="#fdb462" stroke="black" cx="1172" cy="-104" rx="76.49" ry="18"/>
<text text-anchor="middle" x="1172" y="-99.8" font-family="Times,serif" font-size="14.00">SubmissionRepo</text>
</g>
<!-- SubmissionRepo&#45;&gt;TaskModule -->
<g id="edge8" class="edge">
<title>SubmissionRepo&#45;&gt;TaskModule</title>
<path fill="none" stroke="black" d="M1172,-122.02C1172,-139.37 1172,-163 1172,-163 1172,-163 788.5,-163 788.5,-163"/>
<polygon fill="black" stroke="black" points="788.5,-159.5 778.5,-163 788.5,-166.5 788.5,-159.5"/>
</g>
<!-- SubmissionService -->
<g id="node10" class="node">
<title>SubmissionService</title>
<ellipse fill="#fdb462" stroke="black" cx="992" cy="-104" rx="85.13" ry="18"/>
<text text-anchor="middle" x="992" y="-99.8" font-family="Times,serif" font-size="14.00">SubmissionService</text>
</g>
<!-- SubmissionService&#45;&gt;TaskModule -->
<g id="edge9" class="edge">
<title>SubmissionService&#45;&gt;TaskModule</title>
<path fill="none" stroke="black" d="M923.17,-114.73C923.17,-130.21 923.17,-157 923.17,-157 923.17,-157 788.64,-157 788.64,-157"/>
<polygon fill="black" stroke="black" points="788.64,-153.5 778.64,-157 788.64,-160.5 788.64,-153.5"/>
</g>
<!-- TaskCopyService -->
<g id="node11" class="node">
<title>TaskCopyService</title>
<ellipse fill="#fdb462" stroke="black" cx="809" cy="-104" rx="79.88" ry="18"/>
<text text-anchor="middle" x="809" y="-99.8" font-family="Times,serif" font-size="14.00">TaskCopyService</text>
</g>
<!-- TaskCopyService&#45;&gt;TaskModule -->
<g id="edge10" class="edge">
<title>TaskCopyService&#45;&gt;TaskModule</title>
<path fill="none" stroke="black" d="M753.85,-117.15C753.85,-117.15 753.85,-140.69 753.85,-140.69"/>
<polygon fill="black" stroke="black" points="750.35,-140.69 753.85,-150.69 757.35,-140.69 750.35,-140.69"/>
</g>
<!-- TaskRepo -->
<g id="node12" class="node">
<title>TaskRepo</title>
<ellipse fill="#fdb462" stroke="black" cx="661" cy="-104" rx="50.38" ry="18"/>
<text text-anchor="middle" x="661" y="-99.8" font-family="Times,serif" font-size="14.00">TaskRepo</text>
</g>
<!-- TaskRepo&#45;&gt;TaskModule -->
<g id="edge11" class="edge">
<title>TaskRepo&#45;&gt;TaskModule</title>
<path fill="none" stroke="black" d="M701.4,-114.73C701.4,-114.73 701.4,-140.87 701.4,-140.87"/>
<polygon fill="black" stroke="black" points="697.9,-140.87 701.4,-150.87 704.9,-140.87 697.9,-140.87"/>
</g>
<!-- TaskService -->
<g id="node13" class="node">
<title>TaskService</title>
<ellipse fill="#fdb462" stroke="black" cx="534" cy="-104" rx="58.53" ry="18"/>
<text text-anchor="middle" x="534" y="-99.8" font-family="Times,serif" font-size="14.00">TaskService</text>
</g>
<!-- TaskService&#45;&gt;TaskModule -->
<g id="edge12" class="edge">
<title>TaskService&#45;&gt;TaskModule</title>
<path fill="none" stroke="black" d="M580.71,-114.98C580.71,-130.51 580.71,-157 580.71,-157 580.71,-157 681.61,-157 681.61,-157"/>
<polygon fill="black" stroke="black" points="681.61,-160.5 691.61,-157 681.61,-153.5 681.61,-160.5"/>
</g>
<!-- UserRepo -->
<g id="node14" class="node">
<title>UserRepo</title>
<ellipse fill="#fdb462" stroke="black" cx="408" cy="-104" rx="49.8" ry="18"/>
<text text-anchor="middle" x="408" y="-99.8" font-family="Times,serif" font-size="14.00">UserRepo</text>
</g>
<!-- UserRepo&#45;&gt;TaskModule -->
<g id="edge13" class="edge">
<title>UserRepo&#45;&gt;TaskModule</title>
<path fill="none" stroke="black" d="M408,-122.02C408,-139.37 408,-163 408,-163 408,-163 681.58,-163 681.58,-163"/>
<polygon fill="black" stroke="black" points="681.58,-166.5 691.58,-163 681.58,-159.5 681.58,-166.5"/>
</g>
</g>
</svg>
