<?xml version="1.0" encoding="UTF-8" standalone="no"?>
<!DOCTYPE svg PUBLIC "-//W3C//DTD SVG 1.1//EN"
 "http://www.w3.org/Graphics/SVG/1.1/DTD/svg11.dtd">
<!-- Generated by graphviz version 2.47.0 (20210316.0004)
 -->
<!-- Title: dependencies Pages: 1 -->
<svg width="1299pt" height="284pt"
 viewBox="0.00 0.00 1299.00 284.00" xmlns="http://www.w3.org/2000/svg" xmlns:xlink="http://www.w3.org/1999/xlink">
<g id="graph0" class="graph" transform="scale(1 1) rotate(0) translate(4 280)">
<title>dependencies</title>
<polygon fill="white" stroke="transparent" points="-4,4 -4,-280 1295,-280 1295,4 -4,4"/>
<text text-anchor="start" x="624.51" y="-42.4" font-family="Times-12" font-weight="bold" font-size="14.00">Legend</text>
<polygon fill="#ffffb3" stroke="transparent" points="411.5,-10 411.5,-30 431.5,-30 431.5,-10 411.5,-10"/>
<text text-anchor="start" x="435.13" y="-15.4" font-family="Times-12" font-size="14.00"> &#160;Declarations</text>
<polygon fill="#8dd3c7" stroke="transparent" points="524.5,-10 524.5,-30 544.5,-30 544.5,-10 524.5,-10"/>
<text text-anchor="start" x="548.23" y="-15.4" font-family="Times-12" font-size="14.00"> &#160;Module</text>
<polygon fill="#80b1d3" stroke="transparent" points="610.5,-10 610.5,-30 630.5,-30 630.5,-10 610.5,-10"/>
<text text-anchor="start" x="634.28" y="-15.4" font-family="Times-12" font-size="14.00"> &#160;Bootstrap</text>
<polygon fill="#fdb462" stroke="transparent" points="707.5,-10 707.5,-30 727.5,-30 727.5,-10 707.5,-10"/>
<text text-anchor="start" x="731.17" y="-15.4" font-family="Times-12" font-size="14.00"> &#160;Providers</text>
<polygon fill="#fb8072" stroke="transparent" points="803.5,-10 803.5,-30 823.5,-30 823.5,-10 803.5,-10"/>
<text text-anchor="start" x="827.23" y="-15.4" font-family="Times-12" font-size="14.00"> &#160;Exports</text>
<g id="clust1" class="cluster">
<title>cluster_TaskModule</title>
<polygon fill="none" stroke="black" stroke-dasharray="1,5" points="8,-70 8,-268 1283,-268 1283,-70 8,-70"/>
</g>
<g id="clust3" class="cluster">
<title>cluster_TaskModule_imports</title>
<polygon fill="none" stroke="black" points="949,-78 949,-130 1275,-130 1275,-78 949,-78"/>
</g>
<g id="clust6" class="cluster">
<title>cluster_TaskModule_providers</title>
<polygon fill="none" stroke="black" points="16,-78 16,-130 941,-130 941,-78 16,-78"/>
</g>
<g id="clust4" class="cluster">
<title>cluster_TaskModule_exports</title>
<polygon fill="none" stroke="black" points="457,-208 457,-260 843,-260 843,-208 457,-208"/>
</g>
<!-- CopyHelperModule -->
<g id="node1" class="node">
<title>CopyHelperModule</title>
<polygon fill="#8dd3c7" stroke="black" points="1266.97,-122 1263.97,-126 1242.97,-126 1239.97,-122 1139.03,-122 1139.03,-86 1266.97,-86 1266.97,-122"/>
<text text-anchor="middle" x="1203" y="-99.8" font-family="Times,serif" font-size="14.00">CopyHelperModule</text>
</g>
<!-- TaskModule -->
<g id="node3" class="node">
<title>TaskModule</title>
<polygon fill="#8dd3c7" stroke="black" points="674.26,-187 671.26,-191 650.26,-191 647.26,-187 587.74,-187 587.74,-151 674.26,-151 674.26,-187"/>
<text text-anchor="middle" x="631" y="-164.8" font-family="Times,serif" font-size="14.00">TaskModule</text>
</g>
<!-- CopyHelperModule&#45;&gt;TaskModule -->
<g id="edge1" class="edge">
<title>CopyHelperModule&#45;&gt;TaskModule</title>
<path fill="none" stroke="black" d="M1203,-122.13C1203,-142.57 1203,-173 1203,-173 1203,-173 684.46,-173 684.46,-173"/>
<polygon fill="black" stroke="black" points="684.46,-169.5 674.46,-173 684.46,-176.5 684.46,-169.5"/>
</g>
<!-- FilesStorageClientModule -->
<g id="node2" class="node">
<title>FilesStorageClientModule</title>
<polygon fill="#8dd3c7" stroke="black" points="1120.76,-122 1117.76,-126 1096.76,-126 1093.76,-122 957.24,-122 957.24,-86 1120.76,-86 1120.76,-122"/>
<text text-anchor="middle" x="1039" y="-99.8" font-family="Times,serif" font-size="14.00">FilesStorageClientModule</text>
</g>
<!-- FilesStorageClientModule&#45;&gt;TaskModule -->
<g id="edge2" class="edge">
<title>FilesStorageClientModule&#45;&gt;TaskModule</title>
<path fill="none" stroke="black" d="M1039,-122.27C1039,-140.56 1039,-166 1039,-166 1039,-166 684.28,-166 684.28,-166"/>
<polygon fill="black" stroke="black" points="684.28,-162.5 674.28,-166 684.28,-169.5 684.28,-162.5"/>
</g>
<!-- SubmissionService  -->
<g id="node4" class="node">
<title>SubmissionService </title>
<polygon fill="#fb8072" stroke="black" points="835.32,-252 708.68,-252 708.68,-216 835.32,-216 835.32,-252"/>
<text text-anchor="middle" x="772" y="-229.8" font-family="Times,serif" font-size="14.00">SubmissionService </text>
</g>
<!-- TaskModule&#45;&gt;SubmissionService  -->
<g id="edge3" class="edge">
<title>TaskModule&#45;&gt;SubmissionService </title>
<path fill="none" stroke="black" stroke-dasharray="5,2" d="M674.37,-180C709.45,-180 753.04,-180 753.04,-180 753.04,-180 753.04,-205.72 753.04,-205.72"/>
<polygon fill="black" stroke="black" points="749.54,-205.72 753.04,-215.72 756.54,-205.72 749.54,-205.72"/>
</g>
<!-- TaskCopyService  -->
<g id="node5" class="node">
<title>TaskCopyService </title>
<polygon fill="#fb8072" stroke="black" points="690.53,-252 571.47,-252 571.47,-216 690.53,-216 690.53,-252"/>
<text text-anchor="middle" x="631" y="-229.8" font-family="Times,serif" font-size="14.00">TaskCopyService </text>
</g>
<!-- TaskModule&#45;&gt;TaskCopyService  -->
<g id="edge4" class="edge">
<title>TaskModule&#45;&gt;TaskCopyService </title>
<path fill="none" stroke="black" stroke-dasharray="5,2" d="M631,-187.11C631,-187.11 631,-205.99 631,-205.99"/>
<polygon fill="black" stroke="black" points="627.5,-205.99 631,-215.99 634.5,-205.99 627.5,-205.99"/>
</g>
<!-- TaskService  -->
<g id="node6" class="node">
<title>TaskService </title>
<polygon fill="#fb8072" stroke="black" points="553.19,-252 464.81,-252 464.81,-216 553.19,-216 553.19,-252"/>
<text text-anchor="middle" x="509" y="-229.8" font-family="Times,serif" font-size="14.00">TaskService </text>
</g>
<!-- TaskModule&#45;&gt;TaskService  -->
<g id="edge5" class="edge">
<title>TaskModule&#45;&gt;TaskService </title>
<path fill="none" stroke="black" stroke-dasharray="5,2" d="M587.64,-180C552.58,-180 509,-180 509,-180 509,-180 509,-205.72 509,-205.72"/>
<polygon fill="black" stroke="black" points="505.5,-205.72 509,-215.72 512.5,-205.72 505.5,-205.72"/>
</g>
<!-- CourseRepo -->
<g id="node7" class="node">
<title>CourseRepo</title>
<ellipse fill="#fdb462" stroke="black" cx="874" cy="-104" rx="58.55" ry="18"/>
<text text-anchor="middle" x="874" y="-99.8" font-family="Times,serif" font-size="14.00">CourseRepo</text>
</g>
<!-- CourseRepo&#45;&gt;TaskModule -->
<g id="edge6" class="edge">
<title>CourseRepo&#45;&gt;TaskModule</title>
<path fill="none" stroke="black" d="M825.32,-114.09C825.32,-129.97 825.32,-159 825.32,-159 825.32,-159 684.61,-159 684.61,-159"/>
<polygon fill="black" stroke="black" points="684.61,-155.5 674.61,-159 684.61,-162.5 684.61,-155.5"/>
</g>
<!-- SubmissionRepo -->
<g id="node8" class="node">
<title>SubmissionRepo</title>
<ellipse fill="#fdb462" stroke="black" cx="721" cy="-104" rx="76.49" ry="18"/>
<text text-anchor="middle" x="721" y="-99.8" font-family="Times,serif" font-size="14.00">SubmissionRepo</text>
</g>
<!-- SubmissionRepo&#45;&gt;TaskModule -->
<g id="edge7" class="edge">
<title>SubmissionRepo&#45;&gt;TaskModule</title>
<path fill="none" stroke="black" d="M659.44,-114.73C659.44,-114.73 659.44,-140.87 659.44,-140.87"/>
<polygon fill="black" stroke="black" points="655.94,-140.87 659.44,-150.87 662.94,-140.87 655.94,-140.87"/>
</g>
<!-- SubmissionService -->
<g id="node9" class="node">
<title>SubmissionService</title>
<ellipse fill="#fdb462" stroke="black" cx="541" cy="-104" rx="85.13" ry="18"/>
<text text-anchor="middle" x="541" y="-99.8" font-family="Times,serif" font-size="14.00">SubmissionService</text>
</g>
<!-- SubmissionService&#45;&gt;TaskModule -->
<g id="edge8" class="edge">
<title>SubmissionService&#45;&gt;TaskModule</title>
<path fill="none" stroke="black" d="M606.84,-115.62C606.84,-115.62 606.84,-140.85 606.84,-140.85"/>
<polygon fill="black" stroke="black" points="603.34,-140.85 606.84,-150.85 610.34,-140.85 603.34,-140.85"/>
</g>
<!-- TaskCopyService -->
<g id="node10" class="node">
<title>TaskCopyService</title>
<ellipse fill="#fdb462" stroke="black" cx="358" cy="-104" rx="79.88" ry="18"/>
<text text-anchor="middle" x="358" y="-99.8" font-family="Times,serif" font-size="14.00">TaskCopyService</text>
</g>
<!-- TaskCopyService&#45;&gt;TaskModule -->
<g id="edge9" class="edge">
<title>TaskCopyService&#45;&gt;TaskModule</title>
<path fill="none" stroke="black" d="M358,-122.01C358,-138.05 358,-159 358,-159 358,-159 577.44,-159 577.44,-159"/>
<polygon fill="black" stroke="black" points="577.44,-162.5 587.44,-159 577.44,-155.5 577.44,-162.5"/>
</g>
<!-- TaskRepo -->
<g id="node11" class="node">
<title>TaskRepo</title>
<ellipse fill="#fdb462" stroke="black" cx="210" cy="-104" rx="50.38" ry="18"/>
<text text-anchor="middle" x="210" y="-99.8" font-family="Times,serif" font-size="14.00">TaskRepo</text>
</g>
<!-- TaskRepo&#45;&gt;TaskModule -->
<g id="edge10" class="edge">
<title>TaskRepo&#45;&gt;TaskModule</title>
<path fill="none" stroke="black" d="M210,-122.27C210,-140.56 210,-166 210,-166 210,-166 577.53,-166 577.53,-166"/>
<polygon fill="black" stroke="black" points="577.53,-169.5 587.53,-166 577.53,-162.5 577.53,-169.5"/>
</g>
<!-- TaskService -->
<g id="node12" class="node">
<title>TaskService</title>
<ellipse fill="#fdb462" stroke="black" cx="83" cy="-104" rx="58.53" ry="18"/>
<text text-anchor="middle" x="83" y="-99.8" font-family="Times,serif" font-size="14.00">TaskService</text>
</g>
<!-- TaskService&#45;&gt;TaskModule -->
<g id="edge11" class="edge">
<title>TaskService&#45;&gt;TaskModule</title>
<path fill="none" stroke="black" d="M83,-122.13C83,-142.57 83,-173 83,-173 83,-173 577.54,-173 577.54,-173"/>
<polygon fill="black" stroke="black" points="577.54,-176.5 587.54,-173 577.54,-169.5 577.54,-176.5"/>
</g>
</g>
</svg>
