<?xml version="1.0" encoding="UTF-8" standalone="no"?>
<!DOCTYPE svg PUBLIC "-//W3C//DTD SVG 1.1//EN"
 "http://www.w3.org/Graphics/SVG/1.1/DTD/svg11.dtd">
<!-- Generated by graphviz version 2.47.0 (20210316.0004)
 -->
<!-- Title: dependencies Pages: 1 -->
<svg width="1299pt" height="284pt"
 viewBox="0.00 0.00 1299.00 284.00" xmlns="http://www.w3.org/2000/svg" xmlns:xlink="http://www.w3.org/1999/xlink">
<g id="graph0" class="graph" transform="scale(1 1) rotate(0) translate(4 280)">
<title>dependencies</title>
<polygon fill="white" stroke="transparent" points="-4,4 -4,-280 1295,-280 1295,4 -4,4"/>
<text text-anchor="start" x="624.51" y="-42.4" font-family="Times-12" font-weight="bold" font-size="14.00">Legend</text>
<polygon fill="#ffffb3" stroke="transparent" points="411.5,-10 411.5,-30 431.5,-30 431.5,-10 411.5,-10"/>
<text text-anchor="start" x="435.13" y="-15.4" font-family="Times-12" font-size="14.00"> &#160;Declarations</text>
<polygon fill="#8dd3c7" stroke="transparent" points="524.5,-10 524.5,-30 544.5,-30 544.5,-10 524.5,-10"/>
<text text-anchor="start" x="548.23" y="-15.4" font-family="Times-12" font-size="14.00"> &#160;Module</text>
<polygon fill="#80b1d3" stroke="transparent" points="610.5,-10 610.5,-30 630.5,-30 630.5,-10 610.5,-10"/>
<text text-anchor="start" x="634.28" y="-15.4" font-family="Times-12" font-size="14.00"> &#160;Bootstrap</text>
<polygon fill="#fdb462" stroke="transparent" points="707.5,-10 707.5,-30 727.5,-30 727.5,-10 707.5,-10"/>
<text text-anchor="start" x="731.17" y="-15.4" font-family="Times-12" font-size="14.00"> &#160;Providers</text>
<polygon fill="#fb8072" stroke="transparent" points="803.5,-10 803.5,-30 823.5,-30 823.5,-10 803.5,-10"/>
<text text-anchor="start" x="827.23" y="-15.4" font-family="Times-12" font-size="14.00"> &#160;Exports</text>
<g id="clust1" class="cluster">
<title>cluster_TaskModule</title>
<polygon fill="none" stroke="black" stroke-dasharray="1,5" points="8,-70 8,-268 1283,-268 1283,-70 8,-70"/>
</g>
<g id="clust6" class="cluster">
<title>cluster_TaskModule_providers</title>
<polygon fill="none" stroke="black" points="350,-78 350,-130 1275,-130 1275,-78 350,-78"/>
</g>
<g id="clust4" class="cluster">
<title>cluster_TaskModule_exports</title>
<polygon fill="none" stroke="black" points="444,-208 444,-260 830,-260 830,-208 444,-208"/>
</g>
<g id="clust3" class="cluster">
<title>cluster_TaskModule_imports</title>
<polygon fill="none" stroke="black" points="16,-78 16,-130 342,-130 342,-78 16,-78"/>
</g>
<!-- CopyHelperModule -->
<g id="node1" class="node">
<title>CopyHelperModule</title>
<polygon fill="#8dd3c7" stroke="black" points="333.97,-122 330.97,-126 309.97,-126 306.97,-122 206.03,-122 206.03,-86 333.97,-86 333.97,-122"/>
<text text-anchor="middle" x="270" y="-99.8" font-family="Times,serif" font-size="14.00">CopyHelperModule</text>
</g>
<!-- TaskModule -->
<g id="node3" class="node">
<title>TaskModule</title>
<polygon fill="#8dd3c7" stroke="black" points="661.26,-187 658.26,-191 637.26,-191 634.26,-187 574.74,-187 574.74,-151 661.26,-151 661.26,-187"/>
<text text-anchor="middle" x="618" y="-164.8" font-family="Times,serif" font-size="14.00">TaskModule</text>
</g>
<!-- CopyHelperModule&#45;&gt;TaskModule -->
<g id="edge1" class="edge">
<title>CopyHelperModule&#45;&gt;TaskModule</title>
<path fill="none" stroke="black" d="M270,-122.27C270,-140.56 270,-166 270,-166 270,-166 564.63,-166 564.63,-166"/>
<polygon fill="black" stroke="black" points="564.63,-169.5 574.63,-166 564.63,-162.5 564.63,-169.5"/>
</g>
<!-- FilesStorageClientModule -->
<g id="node2" class="node">
<title>FilesStorageClientModule</title>
<polygon fill="#8dd3c7" stroke="black" points="187.76,-122 184.76,-126 163.76,-126 160.76,-122 24.24,-122 24.24,-86 187.76,-86 187.76,-122"/>
<text text-anchor="middle" x="106" y="-99.8" font-family="Times,serif" font-size="14.00">FilesStorageClientModule</text>
</g>
<!-- FilesStorageClientModule&#45;&gt;TaskModule -->
<g id="edge2" class="edge">
<title>FilesStorageClientModule&#45;&gt;TaskModule</title>
<path fill="none" stroke="black" d="M106,-122.13C106,-142.57 106,-173 106,-173 106,-173 564.35,-173 564.35,-173"/>
<polygon fill="black" stroke="black" points="564.35,-176.5 574.35,-173 564.35,-169.5 564.35,-176.5"/>
</g>
<!-- SubmissionService  -->
<g id="node4" class="node">
<title>SubmissionService </title>
<polygon fill="#fb8072" stroke="black" points="822.32,-252 695.68,-252 695.68,-216 822.32,-216 822.32,-252"/>
<text text-anchor="middle" x="759" y="-229.8" font-family="Times,serif" font-size="14.00">SubmissionService </text>
</g>
<!-- TaskModule&#45;&gt;SubmissionService  -->
<g id="edge3" class="edge">
<title>TaskModule&#45;&gt;SubmissionService </title>
<path fill="none" stroke="black" stroke-dasharray="5,2" d="M661.39,-180C694.2,-180 733.64,-180 733.64,-180 733.64,-180 733.64,-205.72 733.64,-205.72"/>
<polygon fill="black" stroke="black" points="730.14,-205.72 733.64,-215.72 737.14,-205.72 730.14,-205.72"/>
</g>
<!-- TaskCopyService  -->
<g id="node5" class="node">
<title>TaskCopyService </title>
<polygon fill="#fb8072" stroke="black" points="677.53,-252 558.47,-252 558.47,-216 677.53,-216 677.53,-252"/>
<text text-anchor="middle" x="618" y="-229.8" font-family="Times,serif" font-size="14.00">TaskCopyService </text>
</g>
<!-- TaskModule&#45;&gt;TaskCopyService  -->
<g id="edge4" class="edge">
<title>TaskModule&#45;&gt;TaskCopyService </title>
<path fill="none" stroke="black" stroke-dasharray="5,2" d="M618,-187.11C618,-187.11 618,-205.99 618,-205.99"/>
<polygon fill="black" stroke="black" points="614.5,-205.99 618,-215.99 621.5,-205.99 614.5,-205.99"/>
</g>
<!-- TaskService  -->
<g id="node6" class="node">
<title>TaskService </title>
<polygon fill="#fb8072" stroke="black" points="540.19,-252 451.81,-252 451.81,-216 540.19,-216 540.19,-252"/>
<text text-anchor="middle" x="496" y="-229.8" font-family="Times,serif" font-size="14.00">TaskService </text>
</g>
<!-- TaskModule&#45;&gt;TaskService  -->
<g id="edge5" class="edge">
<title>TaskModule&#45;&gt;TaskService </title>
<path fill="none" stroke="black" stroke-dasharray="5,2" d="M574.61,-180C547.26,-180 517.08,-180 517.08,-180 517.08,-180 517.08,-205.72 517.08,-205.72"/>
<polygon fill="black" stroke="black" points="513.58,-205.72 517.08,-215.72 520.58,-205.72 513.58,-205.72"/>
</g>
<!-- CourseRepo -->
<g id="node7" class="node">
<title>CourseRepo</title>
<ellipse fill="#fdb462" stroke="black" cx="1208" cy="-104" rx="58.55" ry="18"/>
<text text-anchor="middle" x="1208" y="-99.8" font-family="Times,serif" font-size="14.00">CourseRepo</text>
</g>
<!-- CourseRepo&#45;&gt;TaskModule -->
<g id="edge6" class="edge">
<title>CourseRepo&#45;&gt;TaskModule</title>
<path fill="none" stroke="black" d="M1208,-122.13C1208,-142.57 1208,-173 1208,-173 1208,-173 671.38,-173 671.38,-173"/>
<polygon fill="black" stroke="black" points="671.38,-169.5 661.38,-173 671.38,-176.5 671.38,-169.5"/>
</g>
<!-- SubmissionRepo -->
<g id="node8" class="node">
<title>SubmissionRepo</title>
<ellipse fill="#fdb462" stroke="black" cx="1055" cy="-104" rx="76.49" ry="18"/>
<text text-anchor="middle" x="1055" y="-99.8" font-family="Times,serif" font-size="14.00">SubmissionRepo</text>
</g>
<!-- SubmissionRepo&#45;&gt;TaskModule -->
<g id="edge7" class="edge">
<title>SubmissionRepo&#45;&gt;TaskModule</title>
<path fill="none" stroke="black" d="M1055,-122.27C1055,-140.56 1055,-166 1055,-166 1055,-166 671.5,-166 671.5,-166"/>
<polygon fill="black" stroke="black" points="671.5,-162.5 661.5,-166 671.5,-169.5 671.5,-162.5"/>
</g>
<!-- SubmissionService -->
<g id="node9" class="node">
<title>SubmissionService</title>
<ellipse fill="#fdb462" stroke="black" cx="875" cy="-104" rx="85.13" ry="18"/>
<text text-anchor="middle" x="875" y="-99.8" font-family="Times,serif" font-size="14.00">SubmissionService</text>
</g>
<!-- SubmissionService&#45;&gt;TaskModule -->
<g id="edge8" class="edge">
<title>SubmissionService&#45;&gt;TaskModule</title>
<path fill="none" stroke="black" d="M806.17,-114.6C806.17,-130.59 806.17,-159 806.17,-159 806.17,-159 671.64,-159 671.64,-159"/>
<polygon fill="black" stroke="black" points="671.64,-155.5 661.64,-159 671.64,-162.5 671.64,-155.5"/>
</g>
<!-- TaskCopyService -->
<g id="node10" class="node">
<title>TaskCopyService</title>
<ellipse fill="#fdb462" stroke="black" cx="692" cy="-104" rx="79.88" ry="18"/>
<text text-anchor="middle" x="692" y="-99.8" font-family="Times,serif" font-size="14.00">TaskCopyService</text>
</g>
<!-- TaskCopyService&#45;&gt;TaskModule -->
<g id="edge9" class="edge">
<title>TaskCopyService&#45;&gt;TaskModule</title>
<path fill="none" stroke="black" d="M636.85,-117.15C636.85,-117.15 636.85,-140.69 636.85,-140.69"/>
<polygon fill="black" stroke="black" points="633.35,-140.69 636.85,-150.69 640.35,-140.69 633.35,-140.69"/>
</g>
<!-- TaskRepo -->
<g id="node11" class="node">
<title>TaskRepo</title>
<ellipse fill="#fdb462" stroke="black" cx="544" cy="-104" rx="50.38" ry="18"/>
<text text-anchor="middle" x="544" y="-99.8" font-family="Times,serif" font-size="14.00">TaskRepo</text>
</g>
<!-- TaskRepo&#45;&gt;TaskModule -->
<g id="edge10" class="edge">
<title>TaskRepo&#45;&gt;TaskModule</title>
<path fill="none" stroke="black" d="M584.4,-114.73C584.4,-114.73 584.4,-140.87 584.4,-140.87"/>
<polygon fill="black" stroke="black" points="580.9,-140.87 584.4,-150.87 587.9,-140.87 580.9,-140.87"/>
</g>
<!-- TaskService -->
<g id="node12" class="node">
<title>TaskService</title>
<ellipse fill="#fdb462" stroke="black" cx="417" cy="-104" rx="58.53" ry="18"/>
<text text-anchor="middle" x="417" y="-99.8" font-family="Times,serif" font-size="14.00">TaskService</text>
</g>
<!-- TaskService&#45;&gt;TaskModule -->
<g id="edge11" class="edge">
<title>TaskService&#45;&gt;TaskModule</title>
<path fill="none" stroke="black" d="M463.71,-115.13C463.71,-131.2 463.71,-159 463.71,-159 463.71,-159 564.61,-159 564.61,-159"/>
<polygon fill="black" stroke="black" points="564.61,-162.5 574.61,-159 564.61,-155.5 564.61,-162.5"/>
</g>
</g>
</svg>
