<?xml version="1.0" encoding="UTF-8" standalone="no"?>
<!DOCTYPE svg PUBLIC "-//W3C//DTD SVG 1.1//EN"
 "http://www.w3.org/Graphics/SVG/1.1/DTD/svg11.dtd">
<!-- Generated by graphviz version 5.0.0 (20220707.1540)
 -->
<!-- Title: dependencies Pages: 1 -->
<svg width="2437pt" height="247pt"
 viewBox="0.00 0.00 2437.00 246.80" xmlns="http://www.w3.org/2000/svg" xmlns:xlink="http://www.w3.org/1999/xlink">
<g id="graph0" class="graph" transform="scale(1 1) rotate(0) translate(4 242.8)">
<title>dependencies</title>
<polygon fill="white" stroke="transparent" points="-4,4 -4,-242.8 2433,-242.8 2433,4 -4,4"/>
<text text-anchor="middle" x="1214.5" y="-8.2" font-family="sans-serif" font-size="14.00">dependencies</text>
<g id="clust1" class="cluster">
<title>cluster_TaskModule</title>
<polygon fill="none" stroke="black" stroke-dasharray="1,5" points="8,-32.8 8,-230.8 2421,-230.8 2421,-32.8 8,-32.8"/>
</g>
<g id="clust4" class="cluster">
<title>cluster_TaskModule_exports</title>
<polygon fill="none" stroke="black" points="1022,-170.8 1022,-222.8 1264,-222.8 1264,-170.8 1022,-170.8"/>
</g>
<g id="clust6" class="cluster">
<title>cluster_TaskModule_providers</title>
<polygon fill="none" stroke="black" points="506,-40.8 506,-92.8 2413,-92.8 2413,-40.8 506,-40.8"/>
</g>
<g id="clust3" class="cluster">
<title>cluster_TaskModule_imports</title>
<polygon fill="none" stroke="black" points="16,-40.8 16,-92.8 498,-92.8 498,-40.8 16,-40.8"/>
</g>
<!-- AuthorizationModule -->
<g id="node1" class="node">
<title>AuthorizationModule</title>
<polygon fill="#8dd3c7" stroke="black" points="489.81,-84.8 486.81,-88.8 465.81,-88.8 462.81,-84.8 352.19,-84.8 352.19,-48.8 489.81,-48.8 489.81,-84.8"/>
<text text-anchor="middle" x="421" y="-62.6" font-family="Times,serif" font-size="14.00">AuthorizationModule</text>
</g>
<!-- TaskModule -->
<g id="node4" class="node">
<title>TaskModule</title>
<polygon fill="#8dd3c7" stroke="black" points="1178.27,-149.8 1175.27,-153.8 1154.27,-153.8 1151.27,-149.8 1091.73,-149.8 1091.73,-113.8 1178.27,-113.8 1178.27,-149.8"/>
<text text-anchor="middle" x="1135" y="-127.6" font-family="Times,serif" font-size="14.00">TaskModule</text>
</g>
<!-- AuthorizationModule&#45;&gt;TaskModule -->
<g id="edge1" class="edge">
<title>AuthorizationModule&#45;&gt;TaskModule</title>
<path fill="none" stroke="black" d="M421,-84.83C421,-105.57 421,-136.8 421,-136.8 421,-136.8 1081.68,-136.8 1081.68,-136.8"/>
<polygon fill="black" stroke="black" points="1081.68,-140.3 1091.68,-136.8 1081.68,-133.3 1081.68,-140.3"/>
</g>
<!-- CopyHelperModule -->
<g id="node2" class="node">
<title>CopyHelperModule</title>
<polygon fill="#8dd3c7" stroke="black" points="333.98,-84.8 330.98,-88.8 309.98,-88.8 306.98,-84.8 206.02,-84.8 206.02,-48.8 333.98,-48.8 333.98,-84.8"/>
<text text-anchor="middle" x="270" y="-62.6" font-family="Times,serif" font-size="14.00">CopyHelperModule</text>
</g>
<!-- CopyHelperModule&#45;&gt;TaskModule -->
<g id="edge2" class="edge">
<title>CopyHelperModule&#45;&gt;TaskModule</title>
<path fill="none" stroke="black" d="M270,-85.09C270,-107.01 270,-140.8 270,-140.8 270,-140.8 1081.51,-140.8 1081.51,-140.8"/>
<polygon fill="black" stroke="black" points="1081.51,-144.3 1091.51,-140.8 1081.51,-137.3 1081.51,-144.3"/>
</g>
<!-- FilesStorageClientModule -->
<g id="node3" class="node">
<title>FilesStorageClientModule</title>
<polygon fill="#8dd3c7" stroke="black" points="187.77,-84.8 184.77,-88.8 163.77,-88.8 160.77,-84.8 24.23,-84.8 24.23,-48.8 187.77,-48.8 187.77,-84.8"/>
<text text-anchor="middle" x="106" y="-62.6" font-family="Times,serif" font-size="14.00">FilesStorageClientModule</text>
</g>
<!-- FilesStorageClientModule&#45;&gt;TaskModule -->
<g id="edge3" class="edge">
<title>FilesStorageClientModule&#45;&gt;TaskModule</title>
<path fill="none" stroke="black" d="M106,-85.12C106,-108.46 106,-145.8 106,-145.8 106,-145.8 1081.44,-145.8 1081.44,-145.8"/>
<polygon fill="black" stroke="black" points="1081.44,-149.3 1091.44,-145.8 1081.44,-142.3 1081.44,-149.3"/>
</g>
<!-- TaskCopyService  -->
<g id="node5" class="node">
<title>TaskCopyService </title>
<polygon fill="#fb8072" stroke="black" points="1255.53,-214.8 1136.47,-214.8 1136.47,-178.8 1255.53,-178.8 1255.53,-214.8"/>
<text text-anchor="middle" x="1196" y="-192.6" font-family="Times,serif" font-size="14.00">TaskCopyService </text>
</g>
<!-- TaskModule&#45;&gt;TaskCopyService  -->
<g id="edge4" class="edge">
<title>TaskModule&#45;&gt;TaskCopyService </title>
<path fill="none" stroke="black" stroke-dasharray="5,2" d="M1157.43,-149.91C1157.43,-149.91 1157.43,-168.79 1157.43,-168.79"/>
<polygon fill="black" stroke="black" points="1153.93,-168.79 1157.43,-178.79 1160.93,-168.79 1153.93,-168.79"/>
</g>
<!-- TaskService  -->
<g id="node6" class="node">
<title>TaskService </title>
<polygon fill="#fb8072" stroke="black" points="1118.19,-214.8 1029.81,-214.8 1029.81,-178.8 1118.19,-178.8 1118.19,-214.8"/>
<text text-anchor="middle" x="1074" y="-192.6" font-family="Times,serif" font-size="14.00">TaskService </text>
</g>
<!-- TaskModule&#45;&gt;TaskService  -->
<g id="edge5" class="edge">
<title>TaskModule&#45;&gt;TaskService </title>
<path fill="none" stroke="black" stroke-dasharray="5,2" d="M1104.98,-149.91C1104.98,-149.91 1104.98,-168.79 1104.98,-168.79"/>
<polygon fill="black" stroke="black" points="1101.48,-168.79 1104.98,-178.79 1108.48,-168.79 1101.48,-168.79"/>
</g>
<!-- CourseRepo -->
<g id="node7" class="node">
<title>CourseRepo</title>
<ellipse fill="#fdb462" stroke="black" cx="2346" cy="-66.8" rx="58.56" ry="18"/>
<text text-anchor="middle" x="2346" y="-62.6" font-family="Times,serif" font-size="14.00">CourseRepo</text>
</g>
<!-- CourseRepo&#45;&gt;TaskModule -->
<g id="edge6" class="edge">
<title>CourseRepo&#45;&gt;TaskModule</title>
<path fill="none" stroke="black" d="M2346,-85.12C2346,-108.46 2346,-145.8 2346,-145.8 2346,-145.8 1188.46,-145.8 1188.46,-145.8"/>
<polygon fill="black" stroke="black" points="1188.46,-142.3 1178.46,-145.8 1188.46,-149.3 1188.46,-142.3"/>
</g>
<!-- FeathersServiceProvider -->
<g id="node8" class="node">
<title>FeathersServiceProvider</title>
<ellipse fill="#fdb462" stroke="black" cx="2163" cy="-66.8" rx="105.93" ry="18"/>
<text text-anchor="middle" x="2163" y="-62.6" font-family="Times,serif" font-size="14.00">FeathersServiceProvider</text>
</g>
<!-- FeathersServiceProvider&#45;&gt;TaskModule -->
<g id="edge7" class="edge">
<title>FeathersServiceProvider&#45;&gt;TaskModule</title>
<path fill="none" stroke="black" d="M2163,-85.09C2163,-107.01 2163,-140.8 2163,-140.8 2163,-140.8 1188.52,-140.8 1188.52,-140.8"/>
<polygon fill="black" stroke="black" points="1188.52,-137.3 1178.52,-140.8 1188.52,-144.3 1188.52,-137.3"/>
</g>
<!-- LessonRepo -->
<g id="node9" class="node">
<title>LessonRepo</title>
<ellipse fill="#fdb462" stroke="black" cx="1980" cy="-66.8" rx="58.56" ry="18"/>
<text text-anchor="middle" x="1980" y="-62.6" font-family="Times,serif" font-size="14.00">LessonRepo</text>
</g>
<!-- LessonRepo&#45;&gt;TaskModule -->
<g id="edge8" class="edge">
<title>LessonRepo&#45;&gt;TaskModule</title>
<path fill="none" stroke="black" d="M1980,-84.83C1980,-105.57 1980,-136.8 1980,-136.8 1980,-136.8 1188.36,-136.8 1188.36,-136.8"/>
<polygon fill="black" stroke="black" points="1188.36,-133.3 1178.36,-136.8 1188.36,-140.3 1188.36,-133.3"/>
</g>
<!-- Logger -->
<g id="node10" class="node">
<title>Logger</title>
<ellipse fill="#fdb462" stroke="black" cx="1864" cy="-66.8" rx="38.85" ry="18"/>
<text text-anchor="middle" x="1864" y="-62.6" font-family="Times,serif" font-size="14.00">Logger</text>
</g>
<!-- Logger&#45;&gt;TaskModule -->
<g id="edge9" class="edge">
<title>Logger&#45;&gt;TaskModule</title>
<path fill="none" stroke="black" d="M1864,-84.91C1864,-104.14 1864,-131.8 1864,-131.8 1864,-131.8 1188.42,-131.8 1188.42,-131.8"/>
<polygon fill="black" stroke="black" points="1188.42,-128.3 1178.42,-131.8 1188.42,-135.3 1188.42,-128.3"/>
</g>
<!-- SubmissionRepo -->
<g id="node11" class="node">
<title>SubmissionRepo</title>
<ellipse fill="#fdb462" stroke="black" cx="1731" cy="-66.8" rx="76.5" ry="18"/>
<text text-anchor="middle" x="1731" y="-62.6" font-family="Times,serif" font-size="14.00">SubmissionRepo</text>
</g>
<!-- SubmissionRepo&#45;&gt;TaskModule -->
<g id="edge10" class="edge">
<title>SubmissionRepo&#45;&gt;TaskModule</title>
<path fill="none" stroke="black" d="M1731,-85.1C1731,-103.07 1731,-127.8 1731,-127.8 1731,-127.8 1188.34,-127.8 1188.34,-127.8"/>
<polygon fill="black" stroke="black" points="1188.34,-124.3 1178.34,-127.8 1188.34,-131.3 1188.34,-124.3"/>
</g>
<!-- SubmissionService -->
<g id="node12" class="node">
<title>SubmissionService</title>
<ellipse fill="#fdb462" stroke="black" cx="1551" cy="-66.8" rx="85.14" ry="18"/>
<text text-anchor="middle" x="1551" y="-62.6" font-family="Times,serif" font-size="14.00">SubmissionService</text>
</g>
<!-- SubmissionService&#45;&gt;TaskModule -->
<g id="edge11" class="edge">
<title>SubmissionService&#45;&gt;TaskModule</title>
<path fill="none" stroke="black" d="M1551,-84.83C1551,-101.2 1551,-122.8 1551,-122.8 1551,-122.8 1188.34,-122.8 1188.34,-122.8"/>
<polygon fill="black" stroke="black" points="1188.34,-119.3 1178.34,-122.8 1188.34,-126.3 1188.34,-119.3"/>
</g>
<!-- SubmissionUc -->
<g id="node13" class="node">
<title>SubmissionUc</title>
<ellipse fill="#fdb462" stroke="black" cx="1381" cy="-66.8" rx="67.25" ry="18"/>
<text text-anchor="middle" x="1381" y="-62.6" font-family="Times,serif" font-size="14.00">SubmissionUc</text>
</g>
<!-- SubmissionUc&#45;&gt;TaskModule -->
<g id="edge12" class="edge">
<title>SubmissionUc&#45;&gt;TaskModule</title>
<path fill="none" stroke="black" d="M1381,-84.99C1381,-99.98 1381,-118.8 1381,-118.8 1381,-118.8 1188.41,-118.8 1188.41,-118.8"/>
<polygon fill="black" stroke="black" points="1188.41,-115.3 1178.41,-118.8 1188.41,-122.3 1188.41,-115.3"/>
</g>
<!-- TaskCopyService -->
<g id="node14" class="node">
<title>TaskCopyService</title>
<ellipse fill="#fdb462" stroke="black" cx="1216" cy="-66.8" rx="79.88" ry="18"/>
<text text-anchor="middle" x="1216" y="-62.6" font-family="Times,serif" font-size="14.00">TaskCopyService</text>
</g>
<!-- TaskCopyService&#45;&gt;TaskModule -->
<g id="edge13" class="edge">
<title>TaskCopyService&#45;&gt;TaskModule</title>
<path fill="none" stroke="black" d="M1157.35,-79.03C1157.35,-79.03 1157.35,-103.48 1157.35,-103.48"/>
<polygon fill="black" stroke="black" points="1153.85,-103.48 1157.35,-113.48 1160.85,-103.48 1153.85,-103.48"/>
</g>
<!-- TaskCopyUC -->
<g id="node15" class="node">
<title>TaskCopyUC</title>
<ellipse fill="#fdb462" stroke="black" cx="1054" cy="-66.8" rx="64.3" ry="18"/>
<text text-anchor="middle" x="1054" y="-62.6" font-family="Times,serif" font-size="14.00">TaskCopyUC</text>
</g>
<!-- TaskCopyUC&#45;&gt;TaskModule -->
<g id="edge14" class="edge">
<title>TaskCopyUC&#45;&gt;TaskModule</title>
<path fill="none" stroke="black" d="M1104.88,-77.83C1104.88,-77.83 1104.88,-103.58 1104.88,-103.58"/>
<polygon fill="black" stroke="black" points="1101.38,-103.58 1104.88,-113.58 1108.38,-103.58 1101.38,-103.58"/>
</g>
<!-- TaskRepo -->
<g id="node16" class="node">
<title>TaskRepo</title>
<ellipse fill="#fdb462" stroke="black" cx="922" cy="-66.8" rx="50.39" ry="18"/>
<text text-anchor="middle" x="922" y="-62.6" font-family="Times,serif" font-size="14.00">TaskRepo</text>
</g>
<!-- TaskRepo&#45;&gt;TaskModule -->
<g id="edge15" class="edge">
<title>TaskRepo&#45;&gt;TaskModule</title>
<path fill="none" stroke="black" d="M922,-84.99C922,-99.98 922,-118.8 922,-118.8 922,-118.8 1081.64,-118.8 1081.64,-118.8"/>
<polygon fill="black" stroke="black" points="1081.64,-122.3 1091.64,-118.8 1081.64,-115.3 1081.64,-122.3"/>
</g>
<!-- TaskService -->
<g id="node17" class="node">
<title>TaskService</title>
<ellipse fill="#fdb462" stroke="black" cx="795" cy="-66.8" rx="58.53" ry="18"/>
<text text-anchor="middle" x="795" y="-62.6" font-family="Times,serif" font-size="14.00">TaskService</text>
</g>
<!-- TaskService&#45;&gt;TaskModule -->
<g id="edge16" class="edge">
<title>TaskService&#45;&gt;TaskModule</title>
<path fill="none" stroke="black" d="M795,-84.83C795,-101.2 795,-122.8 795,-122.8 795,-122.8 1081.59,-122.8 1081.59,-122.8"/>
<polygon fill="black" stroke="black" points="1081.59,-126.3 1091.59,-122.8 1081.59,-119.3 1081.59,-126.3"/>
</g>
<!-- TaskUC -->
<g id="node18" class="node">
<title>TaskUC</title>
<ellipse fill="#fdb462" stroke="black" cx="675" cy="-66.8" rx="43.45" ry="18"/>
<text text-anchor="middle" x="675" y="-62.6" font-family="Times,serif" font-size="14.00">TaskUC</text>
</g>
<!-- TaskUC&#45;&gt;TaskModule -->
<g id="edge17" class="edge">
<title>TaskUC&#45;&gt;TaskModule</title>
<path fill="none" stroke="black" d="M675,-85.1C675,-103.07 675,-127.8 675,-127.8 675,-127.8 1081.72,-127.8 1081.72,-127.8"/>
<polygon fill="black" stroke="black" points="1081.72,-131.3 1091.72,-127.8 1081.72,-124.3 1081.72,-131.3"/>
</g>
<!-- UserRepo -->
<g id="node19" class="node">
<title>UserRepo</title>
<ellipse fill="#fdb462" stroke="black" cx="564" cy="-66.8" rx="49.81" ry="18"/>
<text text-anchor="middle" x="564" y="-62.6" font-family="Times,serif" font-size="14.00">UserRepo</text>
</g>
<!-- UserRepo&#45;&gt;TaskModule -->
<g id="edge18" class="edge">
<title>UserRepo&#45;&gt;TaskModule</title>
<path fill="none" stroke="black" d="M564,-84.91C564,-104.14 564,-131.8 564,-131.8 564,-131.8 1081.61,-131.8 1081.61,-131.8"/>
<polygon fill="black" stroke="black" points="1081.61,-135.3 1091.61,-131.8 1081.61,-128.3 1081.61,-135.3"/>
</g>
</g>
</svg>
