<?xml version="1.0" encoding="UTF-8" standalone="no"?>
<!DOCTYPE svg PUBLIC "-//W3C//DTD SVG 1.1//EN"
 "http://www.w3.org/Graphics/SVG/1.1/DTD/svg11.dtd">
<!-- Generated by graphviz version 2.47.0 (20210316.0004)
 -->
<!-- Title: dependencies Pages: 1 -->
<svg width="1552pt" height="284pt"
 viewBox="0.00 0.00 1552.00 284.00" xmlns="http://www.w3.org/2000/svg" xmlns:xlink="http://www.w3.org/1999/xlink">
<g id="graph0" class="graph" transform="scale(1 1) rotate(0) translate(4 280)">
<title>dependencies</title>
<polygon fill="white" stroke="transparent" points="-4,4 -4,-280 1548,-280 1548,4 -4,4"/>
<text text-anchor="start" x="751.01" y="-42.4" font-family="Times-12" font-weight="bold" font-size="14.00">Legend</text>
<polygon fill="#ffffb3" stroke="transparent" points="538,-10 538,-30 558,-30 558,-10 538,-10"/>
<text text-anchor="start" x="561.63" y="-15.4" font-family="Times-12" font-size="14.00"> &#160;Declarations</text>
<polygon fill="#8dd3c7" stroke="transparent" points="651,-10 651,-30 671,-30 671,-10 651,-10"/>
<text text-anchor="start" x="674.73" y="-15.4" font-family="Times-12" font-size="14.00"> &#160;Module</text>
<polygon fill="#80b1d3" stroke="transparent" points="737,-10 737,-30 757,-30 757,-10 737,-10"/>
<text text-anchor="start" x="760.78" y="-15.4" font-family="Times-12" font-size="14.00"> &#160;Bootstrap</text>
<polygon fill="#fdb462" stroke="transparent" points="834,-10 834,-30 854,-30 854,-10 834,-10"/>
<text text-anchor="start" x="857.67" y="-15.4" font-family="Times-12" font-size="14.00"> &#160;Providers</text>
<polygon fill="#fb8072" stroke="transparent" points="930,-10 930,-30 950,-30 950,-10 930,-10"/>
<text text-anchor="start" x="953.73" y="-15.4" font-family="Times-12" font-size="14.00"> &#160;Exports</text>
<g id="clust1" class="cluster">
<title>cluster_TaskModule</title>
<polygon fill="none" stroke="black" stroke-dasharray="1,5" points="8,-70 8,-268 1536,-268 1536,-70 8,-70"/>
</g>
<g id="clust3" class="cluster">
<title>cluster_TaskModule_imports</title>
<polygon fill="none" stroke="black" points="1202,-78 1202,-130 1528,-130 1528,-78 1202,-78"/>
</g>
<g id="clust6" class="cluster">
<title>cluster_TaskModule_providers</title>
<polygon fill="none" stroke="black" points="16,-78 16,-130 1194,-130 1194,-78 16,-78"/>
</g>
<g id="clust4" class="cluster">
<title>cluster_TaskModule_exports</title>
<polygon fill="none" stroke="black" points="574,-208 574,-260 960,-260 960,-208 574,-208"/>
</g>
<!-- CopyHelperModule -->
<g id="node1" class="node">
<title>CopyHelperModule</title>
<polygon fill="#8dd3c7" stroke="black" points="1519.97,-122 1516.97,-126 1495.97,-126 1492.97,-122 1392.03,-122 1392.03,-86 1519.97,-86 1519.97,-122"/>
<text text-anchor="middle" x="1456" y="-99.8" font-family="Times,serif" font-size="14.00">CopyHelperModule</text>
</g>
<!-- TaskModule -->
<g id="node3" class="node">
<title>TaskModule</title>
<polygon fill="#8dd3c7" stroke="black" points="791.26,-187 788.26,-191 767.26,-191 764.26,-187 704.74,-187 704.74,-151 791.26,-151 791.26,-187"/>
<text text-anchor="middle" x="748" y="-164.8" font-family="Times,serif" font-size="14.00">TaskModule</text>
</g>
<!-- CopyHelperModule&#45;&gt;TaskModule -->
<g id="edge1" class="edge">
<title>CopyHelperModule&#45;&gt;TaskModule</title>
<path fill="none" stroke="black" d="M1456,-122.28C1456,-143.32 1456,-175 1456,-175 1456,-175 801.49,-175 801.49,-175"/>
<polygon fill="black" stroke="black" points="801.49,-171.5 791.49,-175 801.49,-178.5 801.49,-171.5"/>
</g>
<!-- FilesStorageClientModule -->
<g id="node2" class="node">
<title>FilesStorageClientModule</title>
<polygon fill="#8dd3c7" stroke="black" points="1373.76,-122 1370.76,-126 1349.76,-126 1346.76,-122 1210.24,-122 1210.24,-86 1373.76,-86 1373.76,-122"/>
<text text-anchor="middle" x="1292" y="-99.8" font-family="Times,serif" font-size="14.00">FilesStorageClientModule</text>
</g>
<!-- FilesStorageClientModule&#45;&gt;TaskModule -->
<g id="edge2" class="edge">
<title>FilesStorageClientModule&#45;&gt;TaskModule</title>
<path fill="none" stroke="black" d="M1292,-122.11C1292,-141.34 1292,-169 1292,-169 1292,-169 801.6,-169 801.6,-169"/>
<polygon fill="black" stroke="black" points="801.6,-165.5 791.6,-169 801.6,-172.5 801.6,-165.5"/>
</g>
<!-- SubmissionService  -->
<g id="node4" class="node">
<title>SubmissionService </title>
<polygon fill="#fb8072" stroke="black" points="952.32,-252 825.68,-252 825.68,-216 952.32,-216 952.32,-252"/>
<text text-anchor="middle" x="889" y="-229.8" font-family="Times,serif" font-size="14.00">SubmissionService </text>
</g>
<!-- TaskModule&#45;&gt;SubmissionService  -->
<g id="edge3" class="edge">
<title>TaskModule&#45;&gt;SubmissionService </title>
<path fill="none" stroke="black" stroke-dasharray="5,2" d="M791.37,-181C826.45,-181 870.04,-181 870.04,-181 870.04,-181 870.04,-205.76 870.04,-205.76"/>
<polygon fill="black" stroke="black" points="866.54,-205.76 870.04,-215.76 873.54,-205.76 866.54,-205.76"/>
</g>
<!-- TaskCopyService  -->
<g id="node5" class="node">
<title>TaskCopyService </title>
<polygon fill="#fb8072" stroke="black" points="807.53,-252 688.47,-252 688.47,-216 807.53,-216 807.53,-252"/>
<text text-anchor="middle" x="748" y="-229.8" font-family="Times,serif" font-size="14.00">TaskCopyService </text>
</g>
<!-- TaskModule&#45;&gt;TaskCopyService  -->
<g id="edge4" class="edge">
<title>TaskModule&#45;&gt;TaskCopyService </title>
<path fill="none" stroke="black" stroke-dasharray="5,2" d="M748,-187.11C748,-187.11 748,-205.99 748,-205.99"/>
<polygon fill="black" stroke="black" points="744.5,-205.99 748,-215.99 751.5,-205.99 744.5,-205.99"/>
</g>
<!-- TaskService  -->
<g id="node6" class="node">
<title>TaskService </title>
<polygon fill="#fb8072" stroke="black" points="670.19,-252 581.81,-252 581.81,-216 670.19,-216 670.19,-252"/>
<text text-anchor="middle" x="626" y="-229.8" font-family="Times,serif" font-size="14.00">TaskService </text>
</g>
<!-- TaskModule&#45;&gt;TaskService  -->
<g id="edge5" class="edge">
<title>TaskModule&#45;&gt;TaskService </title>
<path fill="none" stroke="black" stroke-dasharray="5,2" d="M704.64,-181C669.58,-181 626,-181 626,-181 626,-181 626,-205.76 626,-205.76"/>
<polygon fill="black" stroke="black" points="622.5,-205.76 626,-215.76 629.5,-205.76 622.5,-205.76"/>
</g>
<!-- CourseRepo -->
<g id="node7" class="node">
<title>CourseRepo</title>
<ellipse fill="#fdb462" stroke="black" cx="1127" cy="-104" rx="58.55" ry="18"/>
<text text-anchor="middle" x="1127" y="-99.8" font-family="Times,serif" font-size="14.00">CourseRepo</text>
</g>
<!-- CourseRepo&#45;&gt;TaskModule -->
<g id="edge6" class="edge">
<title>CourseRepo&#45;&gt;TaskModule</title>
<path fill="none" stroke="black" d="M1127,-122.02C1127,-139.37 1127,-163 1127,-163 1127,-163 801.48,-163 801.48,-163"/>
<polygon fill="black" stroke="black" points="801.48,-159.5 791.48,-163 801.48,-166.5 801.48,-159.5"/>
</g>
<!-- LessonRepo -->
<g id="node8" class="node">
<title>LessonRepo</title>
<ellipse fill="#fdb462" stroke="black" cx="991" cy="-104" rx="58.55" ry="18"/>
<text text-anchor="middle" x="991" y="-99.8" font-family="Times,serif" font-size="14.00">LessonRepo</text>
</g>
<!-- LessonRepo&#45;&gt;TaskModule -->
<g id="edge7" class="edge">
<title>LessonRepo&#45;&gt;TaskModule</title>
<path fill="none" stroke="black" d="M942.32,-114.22C942.32,-129.62 942.32,-157 942.32,-157 942.32,-157 801.61,-157 801.61,-157"/>
<polygon fill="black" stroke="black" points="801.61,-153.5 791.61,-157 801.61,-160.5 801.61,-153.5"/>
</g>
<!-- SubmissionRepo -->
<g id="node9" class="node">
<title>SubmissionRepo</title>
<ellipse fill="#fdb462" stroke="black" cx="838" cy="-104" rx="76.49" ry="18"/>
<text text-anchor="middle" x="838" y="-99.8" font-family="Times,serif" font-size="14.00">SubmissionRepo</text>
</g>
<!-- SubmissionRepo&#45;&gt;TaskModule -->
<g id="edge8" class="edge">
<title>SubmissionRepo&#45;&gt;TaskModule</title>
<path fill="none" stroke="black" d="M776.44,-114.73C776.44,-114.73 776.44,-140.87 776.44,-140.87"/>
<polygon fill="black" stroke="black" points="772.94,-140.87 776.44,-150.87 779.94,-140.87 772.94,-140.87"/>
</g>
<!-- SubmissionService -->
<g id="node10" class="node">
<title>SubmissionService</title>
<ellipse fill="#fdb462" stroke="black" cx="658" cy="-104" rx="85.13" ry="18"/>
<text text-anchor="middle" x="658" y="-99.8" font-family="Times,serif" font-size="14.00">SubmissionService</text>
</g>
<!-- SubmissionService&#45;&gt;TaskModule -->
<g id="edge9" class="edge">
<title>SubmissionService&#45;&gt;TaskModule</title>
<path fill="none" stroke="black" d="M723.84,-115.62C723.84,-115.62 723.84,-140.85 723.84,-140.85"/>
<polygon fill="black" stroke="black" points="720.34,-140.85 723.84,-150.85 727.34,-140.85 720.34,-140.85"/>
</g>
<!-- TaskCopyService -->
<g id="node11" class="node">
<title>TaskCopyService</title>
<ellipse fill="#fdb462" stroke="black" cx="475" cy="-104" rx="79.88" ry="18"/>
<text text-anchor="middle" x="475" y="-99.8" font-family="Times,serif" font-size="14.00">TaskCopyService</text>
</g>
<!-- TaskCopyService&#45;&gt;TaskModule -->
<g id="edge10" class="edge">
<title>TaskCopyService&#45;&gt;TaskModule</title>
<path fill="none" stroke="black" d="M475,-122.24C475,-137.57 475,-157 475,-157 475,-157 694.44,-157 694.44,-157"/>
<polygon fill="black" stroke="black" points="694.44,-160.5 704.44,-157 694.44,-153.5 694.44,-160.5"/>
</g>
<!-- TaskRepo -->
<g id="node12" class="node">
<title>TaskRepo</title>
<ellipse fill="#fdb462" stroke="black" cx="327" cy="-104" rx="50.38" ry="18"/>
<text text-anchor="middle" x="327" y="-99.8" font-family="Times,serif" font-size="14.00">TaskRepo</text>
</g>
<!-- TaskRepo&#45;&gt;TaskModule -->
<g id="edge11" class="edge">
<title>TaskRepo&#45;&gt;TaskModule</title>
<path fill="none" stroke="black" d="M327,-122.02C327,-139.37 327,-163 327,-163 327,-163 694.53,-163 694.53,-163"/>
<polygon fill="black" stroke="black" points="694.53,-166.5 704.53,-163 694.53,-159.5 694.53,-166.5"/>
</g>
<!-- TaskService -->
<g id="node13" class="node">
<title>TaskService</title>
<ellipse fill="#fdb462" stroke="black" cx="200" cy="-104" rx="58.53" ry="18"/>
<text text-anchor="middle" x="200" y="-99.8" font-family="Times,serif" font-size="14.00">TaskService</text>
</g>
<!-- TaskService&#45;&gt;TaskModule -->
<g id="edge12" class="edge">
<title>TaskService&#45;&gt;TaskModule</title>
<path fill="none" stroke="black" d="M200,-122.11C200,-141.34 200,-169 200,-169 200,-169 694.54,-169 694.54,-169"/>
<polygon fill="black" stroke="black" points="694.54,-172.5 704.54,-169 694.54,-165.5 694.54,-172.5"/>
</g>
<!-- UserRepo -->
<g id="node14" class="node">
<title>UserRepo</title>
<ellipse fill="#fdb462" stroke="black" cx="74" cy="-104" rx="49.8" ry="18"/>
<text text-anchor="middle" x="74" y="-99.8" font-family="Times,serif" font-size="14.00">UserRepo</text>
</g>
<!-- UserRepo&#45;&gt;TaskModule -->
<g id="edge13" class="edge">
<title>UserRepo&#45;&gt;TaskModule</title>
<path fill="none" stroke="black" d="M74,-122.28C74,-143.32 74,-175 74,-175 74,-175 694.55,-175 694.55,-175"/>
<polygon fill="black" stroke="black" points="694.55,-178.5 704.55,-175 694.55,-171.5 694.55,-178.5"/>
</g>
</g>
</svg>
