<?xml version="1.0" encoding="UTF-8" standalone="no"?>
<!DOCTYPE svg PUBLIC "-//W3C//DTD SVG 1.1//EN"
 "http://www.w3.org/Graphics/SVG/1.1/DTD/svg11.dtd">
<!-- Generated by graphviz version 5.0.0 (20220707.1540)
 -->
<!-- Title: dependencies Pages: 1 -->
<svg width="2493pt" height="247pt"
 viewBox="0.00 0.00 2493.00 246.80" xmlns="http://www.w3.org/2000/svg" xmlns:xlink="http://www.w3.org/1999/xlink">
<g id="graph0" class="graph" transform="scale(1 1) rotate(0) translate(4 242.8)">
<title>dependencies</title>
<polygon fill="white" stroke="transparent" points="-4,4 -4,-242.8 2489,-242.8 2489,4 -4,4"/>
<text text-anchor="middle" x="1242.5" y="-8.2" font-family="sans-serif" font-size="14.00">dependencies</text>
<g id="clust1" class="cluster">
<title>cluster_TaskModule</title>
<polygon fill="none" stroke="black" stroke-dasharray="1,5" points="8,-32.8 8,-230.8 2477,-230.8 2477,-32.8 8,-32.8"/>
</g>
<g id="clust4" class="cluster">
<title>cluster_TaskModule_exports</title>
<polygon fill="none" stroke="black" points="1038,-170.8 1038,-222.8 1280,-222.8 1280,-170.8 1038,-170.8"/>
</g>
<g id="clust3" class="cluster">
<title>cluster_TaskModule_imports</title>
<polygon fill="none" stroke="black" points="1987,-40.8 1987,-92.8 2469,-92.8 2469,-40.8 1987,-40.8"/>
</g>
<g id="clust6" class="cluster">
<title>cluster_TaskModule_providers</title>
<polygon fill="none" stroke="black" points="16,-40.8 16,-92.8 1979,-92.8 1979,-40.8 16,-40.8"/>
</g>
<!-- AuthorizationModule -->
<g id="node1" class="node">
<title>AuthorizationModule</title>
<polygon fill="#8dd3c7" stroke="black" points="2460.81,-84.8 2457.81,-88.8 2436.81,-88.8 2433.81,-84.8 2323.19,-84.8 2323.19,-48.8 2460.81,-48.8 2460.81,-84.8"/>
<text text-anchor="middle" x="2392" y="-62.6" font-family="Times,serif" font-size="14.00">AuthorizationModule</text>
</g>
<!-- TaskModule -->
<g id="node4" class="node">
<title>TaskModule</title>
<polygon fill="#8dd3c7" stroke="black" points="1194.27,-149.8 1191.27,-153.8 1170.27,-153.8 1167.27,-149.8 1107.73,-149.8 1107.73,-113.8 1194.27,-113.8 1194.27,-149.8"/>
<text text-anchor="middle" x="1151" y="-127.6" font-family="Times,serif" font-size="14.00">TaskModule</text>
</g>
<!-- AuthorizationModule&#45;&gt;TaskModule -->
<g id="edge1" class="edge">
<title>AuthorizationModule&#45;&gt;TaskModule</title>
<path fill="none" stroke="black" d="M2392,-85.12C2392,-108.46 2392,-145.8 2392,-145.8 2392,-145.8 1204.44,-145.8 1204.44,-145.8"/>
<polygon fill="black" stroke="black" points="1204.44,-142.3 1194.44,-145.8 1204.44,-149.3 1204.44,-142.3"/>
</g>
<!-- CopyHelperModule -->
<g id="node2" class="node">
<title>CopyHelperModule</title>
<polygon fill="#8dd3c7" stroke="black" points="2304.98,-84.8 2301.98,-88.8 2280.98,-88.8 2277.98,-84.8 2177.02,-84.8 2177.02,-48.8 2304.98,-48.8 2304.98,-84.8"/>
<text text-anchor="middle" x="2241" y="-62.6" font-family="Times,serif" font-size="14.00">CopyHelperModule</text>
</g>
<!-- CopyHelperModule&#45;&gt;TaskModule -->
<g id="edge2" class="edge">
<title>CopyHelperModule&#45;&gt;TaskModule</title>
<path fill="none" stroke="black" d="M2241,-85.09C2241,-107.01 2241,-140.8 2241,-140.8 2241,-140.8 1204.4,-140.8 1204.4,-140.8"/>
<polygon fill="black" stroke="black" points="1204.4,-137.3 1194.4,-140.8 1204.4,-144.3 1204.4,-137.3"/>
</g>
<!-- FilesStorageClientModule -->
<g id="node3" class="node">
<title>FilesStorageClientModule</title>
<polygon fill="#8dd3c7" stroke="black" points="2158.77,-84.8 2155.77,-88.8 2134.77,-88.8 2131.77,-84.8 1995.23,-84.8 1995.23,-48.8 2158.77,-48.8 2158.77,-84.8"/>
<text text-anchor="middle" x="2077" y="-62.6" font-family="Times,serif" font-size="14.00">FilesStorageClientModule</text>
</g>
<!-- FilesStorageClientModule&#45;&gt;TaskModule -->
<g id="edge3" class="edge">
<title>FilesStorageClientModule&#45;&gt;TaskModule</title>
<path fill="none" stroke="black" d="M2077,-84.83C2077,-105.57 2077,-136.8 2077,-136.8 2077,-136.8 1204.42,-136.8 1204.42,-136.8"/>
<polygon fill="black" stroke="black" points="1204.42,-133.3 1194.42,-136.8 1204.42,-140.3 1204.42,-133.3"/>
</g>
<!-- TaskCopyService  -->
<g id="node5" class="node">
<title>TaskCopyService </title>
<polygon fill="#fb8072" stroke="black" points="1271.53,-214.8 1152.47,-214.8 1152.47,-178.8 1271.53,-178.8 1271.53,-214.8"/>
<text text-anchor="middle" x="1212" y="-192.6" font-family="Times,serif" font-size="14.00">TaskCopyService </text>
</g>
<!-- TaskModule&#45;&gt;TaskCopyService  -->
<g id="edge4" class="edge">
<title>TaskModule&#45;&gt;TaskCopyService </title>
<path fill="none" stroke="black" stroke-dasharray="5,2" d="M1173.43,-149.91C1173.43,-149.91 1173.43,-168.79 1173.43,-168.79"/>
<polygon fill="black" stroke="black" points="1169.93,-168.79 1173.43,-178.79 1176.93,-168.79 1169.93,-168.79"/>
</g>
<!-- TaskService  -->
<g id="node6" class="node">
<title>TaskService </title>
<polygon fill="#fb8072" stroke="black" points="1134.19,-214.8 1045.81,-214.8 1045.81,-178.8 1134.19,-178.8 1134.19,-214.8"/>
<text text-anchor="middle" x="1090" y="-192.6" font-family="Times,serif" font-size="14.00">TaskService </text>
</g>
<!-- TaskModule&#45;&gt;TaskService  -->
<g id="edge5" class="edge">
<title>TaskModule&#45;&gt;TaskService </title>
<path fill="none" stroke="black" stroke-dasharray="5,2" d="M1120.98,-149.91C1120.98,-149.91 1120.98,-168.79 1120.98,-168.79"/>
<polygon fill="black" stroke="black" points="1117.48,-168.79 1120.98,-178.79 1124.48,-168.79 1117.48,-168.79"/>
</g>
<!-- CourseRepo -->
<g id="node7" class="node">
<title>CourseRepo</title>
<ellipse fill="#fdb462" stroke="black" cx="1912" cy="-66.8" rx="58.56" ry="18"/>
<text text-anchor="middle" x="1912" y="-62.6" font-family="Times,serif" font-size="14.00">CourseRepo</text>
</g>
<!-- CourseRepo&#45;&gt;TaskModule -->
<g id="edge6" class="edge">
<title>CourseRepo&#45;&gt;TaskModule</title>
<path fill="none" stroke="black" d="M1912,-84.91C1912,-104.14 1912,-131.8 1912,-131.8 1912,-131.8 1204.37,-131.8 1204.37,-131.8"/>
<polygon fill="black" stroke="black" points="1204.37,-128.3 1194.37,-131.8 1204.37,-135.3 1204.37,-128.3"/>
</g>
<!-- FeathersServiceProvider -->
<g id="node8" class="node">
<title>FeathersServiceProvider</title>
<ellipse fill="#fdb462" stroke="black" cx="1729" cy="-66.8" rx="105.93" ry="18"/>
<text text-anchor="middle" x="1729" y="-62.6" font-family="Times,serif" font-size="14.00">FeathersServiceProvider</text>
</g>
<!-- FeathersServiceProvider&#45;&gt;TaskModule -->
<g id="edge7" class="edge">
<title>FeathersServiceProvider&#45;&gt;TaskModule</title>
<path fill="none" stroke="black" d="M1729,-85.1C1729,-103.07 1729,-127.8 1729,-127.8 1729,-127.8 1204.44,-127.8 1204.44,-127.8"/>
<polygon fill="black" stroke="black" points="1204.44,-124.3 1194.44,-127.8 1204.44,-131.3 1204.44,-124.3"/>
</g>
<!-- LegacyLogger -->
<g id="node9" class="node">
<title>LegacyLogger</title>
<ellipse fill="#fdb462" stroke="black" cx="1538" cy="-66.8" rx="67.17" ry="18"/>
<text text-anchor="middle" x="1538" y="-62.6" font-family="Times,serif" font-size="14.00">LegacyLogger</text>
</g>
<!-- LegacyLogger&#45;&gt;TaskModule -->
<g id="edge8" class="edge">
<title>LegacyLogger&#45;&gt;TaskModule</title>
<path fill="none" stroke="black" d="M1538,-84.83C1538,-101.2 1538,-122.8 1538,-122.8 1538,-122.8 1204.27,-122.8 1204.27,-122.8"/>
<polygon fill="black" stroke="black" points="1204.27,-119.3 1194.27,-122.8 1204.27,-126.3 1204.27,-119.3"/>
</g>
<!-- LessonRepo -->
<g id="node10" class="node">
<title>LessonRepo</title>
<ellipse fill="#fdb462" stroke="black" cx="1394" cy="-66.8" rx="58.56" ry="18"/>
<text text-anchor="middle" x="1394" y="-62.6" font-family="Times,serif" font-size="14.00">LessonRepo</text>
</g>
<!-- LessonRepo&#45;&gt;TaskModule -->
<g id="edge9" class="edge">
<title>LessonRepo&#45;&gt;TaskModule</title>
<path fill="none" stroke="black" d="M1394,-84.99C1394,-99.98 1394,-118.8 1394,-118.8 1394,-118.8 1204.44,-118.8 1204.44,-118.8"/>
<polygon fill="black" stroke="black" points="1204.44,-115.3 1194.44,-118.8 1204.44,-122.3 1204.44,-115.3"/>
</g>
<!-- SubmissionRepo -->
<g id="node11" class="node">
<title>SubmissionRepo</title>
<ellipse fill="#fdb462" stroke="black" cx="1241" cy="-66.8" rx="76.5" ry="18"/>
<text text-anchor="middle" x="1241" y="-62.6" font-family="Times,serif" font-size="14.00">SubmissionRepo</text>
</g>
<!-- SubmissionRepo&#45;&gt;TaskModule -->
<g id="edge10" class="edge">
<title>SubmissionRepo&#45;&gt;TaskModule</title>
<path fill="none" stroke="black" d="M1179.44,-77.53C1179.44,-77.53 1179.44,-103.67 1179.44,-103.67"/>
<polygon fill="black" stroke="black" points="1175.94,-103.67 1179.44,-113.67 1182.94,-103.67 1175.94,-103.67"/>
</g>
<!-- SubmissionService -->
<g id="node12" class="node">
<title>SubmissionService</title>
<ellipse fill="#fdb462" stroke="black" cx="1061" cy="-66.8" rx="85.14" ry="18"/>
<text text-anchor="middle" x="1061" y="-62.6" font-family="Times,serif" font-size="14.00">SubmissionService</text>
</g>
<!-- SubmissionService&#45;&gt;TaskModule -->
<g id="edge11" class="edge">
<title>SubmissionService&#45;&gt;TaskModule</title>
<path fill="none" stroke="black" d="M1126.84,-78.42C1126.84,-78.42 1126.84,-103.65 1126.84,-103.65"/>
<polygon fill="black" stroke="black" points="1123.34,-103.65 1126.84,-113.65 1130.34,-103.65 1123.34,-103.65"/>
</g>
<!-- SubmissionUc -->
<g id="node13" class="node">
<title>SubmissionUc</title>
<ellipse fill="#fdb462" stroke="black" cx="891" cy="-66.8" rx="67.25" ry="18"/>
<text text-anchor="middle" x="891" y="-62.6" font-family="Times,serif" font-size="14.00">SubmissionUc</text>
</g>
<!-- SubmissionUc&#45;&gt;TaskModule -->
<g id="edge12" class="edge">
<title>SubmissionUc&#45;&gt;TaskModule</title>
<path fill="none" stroke="black" d="M891,-84.99C891,-99.98 891,-118.8 891,-118.8 891,-118.8 1097.48,-118.8 1097.48,-118.8"/>
<polygon fill="black" stroke="black" points="1097.48,-122.3 1107.48,-118.8 1097.48,-115.3 1097.48,-122.3"/>
</g>
<!-- TaskCopyService -->
<g id="node14" class="node">
<title>TaskCopyService</title>
<ellipse fill="#fdb462" stroke="black" cx="726" cy="-66.8" rx="79.88" ry="18"/>
<text text-anchor="middle" x="726" y="-62.6" font-family="Times,serif" font-size="14.00">TaskCopyService</text>
</g>
<!-- TaskCopyService&#45;&gt;TaskModule -->
<g id="edge13" class="edge">
<title>TaskCopyService&#45;&gt;TaskModule</title>
<path fill="none" stroke="black" d="M726,-84.83C726,-101.2 726,-122.8 726,-122.8 726,-122.8 1097.51,-122.8 1097.51,-122.8"/>
<polygon fill="black" stroke="black" points="1097.51,-126.3 1107.51,-122.8 1097.51,-119.3 1097.51,-126.3"/>
</g>
<!-- TaskCopyUC -->
<g id="node15" class="node">
<title>TaskCopyUC</title>
<ellipse fill="#fdb462" stroke="black" cx="564" cy="-66.8" rx="64.3" ry="18"/>
<text text-anchor="middle" x="564" y="-62.6" font-family="Times,serif" font-size="14.00">TaskCopyUC</text>
</g>
<!-- TaskCopyUC&#45;&gt;TaskModule -->
<g id="edge14" class="edge">
<title>TaskCopyUC&#45;&gt;TaskModule</title>
<path fill="none" stroke="black" d="M564,-85.1C564,-103.07 564,-127.8 564,-127.8 564,-127.8 1097.36,-127.8 1097.36,-127.8"/>
<polygon fill="black" stroke="black" points="1097.36,-131.3 1107.36,-127.8 1097.36,-124.3 1097.36,-131.3"/>
</g>
<!-- TaskRepo -->
<g id="node16" class="node">
<title>TaskRepo</title>
<ellipse fill="#fdb462" stroke="black" cx="432" cy="-66.8" rx="50.39" ry="18"/>
<text text-anchor="middle" x="432" y="-62.6" font-family="Times,serif" font-size="14.00">TaskRepo</text>
</g>
<!-- TaskRepo&#45;&gt;TaskModule -->
<g id="edge15" class="edge">
<title>TaskRepo&#45;&gt;TaskModule</title>
<path fill="none" stroke="black" d="M432,-84.91C432,-104.14 432,-131.8 432,-131.8 432,-131.8 1097.64,-131.8 1097.64,-131.8"/>
<polygon fill="black" stroke="black" points="1097.64,-135.3 1107.64,-131.8 1097.64,-128.3 1097.64,-135.3"/>
</g>
<!-- TaskService -->
<g id="node17" class="node">
<title>TaskService</title>
<ellipse fill="#fdb462" stroke="black" cx="305" cy="-66.8" rx="58.53" ry="18"/>
<text text-anchor="middle" x="305" y="-62.6" font-family="Times,serif" font-size="14.00">TaskService</text>
</g>
<!-- TaskService&#45;&gt;TaskModule -->
<g id="edge16" class="edge">
<title>TaskService&#45;&gt;TaskModule</title>
<path fill="none" stroke="black" d="M305,-84.83C305,-105.57 305,-136.8 305,-136.8 305,-136.8 1097.59,-136.8 1097.59,-136.8"/>
<polygon fill="black" stroke="black" points="1097.59,-140.3 1107.59,-136.8 1097.59,-133.3 1097.59,-140.3"/>
</g>
<!-- TaskUC -->
<g id="node18" class="node">
<title>TaskUC</title>
<ellipse fill="#fdb462" stroke="black" cx="185" cy="-66.8" rx="43.45" ry="18"/>
<text text-anchor="middle" x="185" y="-62.6" font-family="Times,serif" font-size="14.00">TaskUC</text>
</g>
<!-- TaskUC&#45;&gt;TaskModule -->
<g id="edge17" class="edge">
<title>TaskUC&#45;&gt;TaskModule</title>
<path fill="none" stroke="black" d="M185,-85.09C185,-107.01 185,-140.8 185,-140.8 185,-140.8 1097.62,-140.8 1097.62,-140.8"/>
<polygon fill="black" stroke="black" points="1097.62,-144.3 1107.62,-140.8 1097.62,-137.3 1097.62,-144.3"/>
</g>
<!-- UserRepo -->
<g id="node19" class="node">
<title>UserRepo</title>
<ellipse fill="#fdb462" stroke="black" cx="74" cy="-66.8" rx="49.81" ry="18"/>
<text text-anchor="middle" x="74" y="-62.6" font-family="Times,serif" font-size="14.00">UserRepo</text>
</g>
<!-- UserRepo&#45;&gt;TaskModule -->
<g id="edge18" class="edge">
<title>UserRepo&#45;&gt;TaskModule</title>
<path fill="none" stroke="black" d="M74,-85.12C74,-108.46 74,-145.8 74,-145.8 74,-145.8 1097.45,-145.8 1097.45,-145.8"/>
<polygon fill="black" stroke="black" points="1097.45,-149.3 1107.45,-145.8 1097.45,-142.3 1097.45,-149.3"/>
</g>
</g>
</svg>
