<?xml version="1.0" encoding="UTF-8" standalone="no"?>
<!DOCTYPE svg PUBLIC "-//W3C//DTD SVG 1.1//EN"
 "http://www.w3.org/Graphics/SVG/1.1/DTD/svg11.dtd">
<!-- Generated by graphviz version 2.47.0 (20210316.0004)
 -->
<!-- Title: dependencies Pages: 1 -->
<svg width="1417pt" height="284pt"
 viewBox="0.00 0.00 1417.00 284.00" xmlns="http://www.w3.org/2000/svg" xmlns:xlink="http://www.w3.org/1999/xlink">
<g id="graph0" class="graph" transform="scale(1 1) rotate(0) translate(4 280)">
<title>dependencies</title>
<polygon fill="white" stroke="transparent" points="-4,4 -4,-280 1413,-280 1413,4 -4,4"/>
<text text-anchor="start" x="683.51" y="-42.4" font-family="Times-12" font-weight="bold" font-size="14.00">Legend</text>
<polygon fill="#ffffb3" stroke="transparent" points="470.5,-10 470.5,-30 490.5,-30 490.5,-10 470.5,-10"/>
<text text-anchor="start" x="494.13" y="-15.4" font-family="Times-12" font-size="14.00"> &#160;Declarations</text>
<polygon fill="#8dd3c7" stroke="transparent" points="583.5,-10 583.5,-30 603.5,-30 603.5,-10 583.5,-10"/>
<text text-anchor="start" x="607.23" y="-15.4" font-family="Times-12" font-size="14.00"> &#160;Module</text>
<polygon fill="#80b1d3" stroke="transparent" points="669.5,-10 669.5,-30 689.5,-30 689.5,-10 669.5,-10"/>
<text text-anchor="start" x="693.28" y="-15.4" font-family="Times-12" font-size="14.00"> &#160;Bootstrap</text>
<polygon fill="#fdb462" stroke="transparent" points="766.5,-10 766.5,-30 786.5,-30 786.5,-10 766.5,-10"/>
<text text-anchor="start" x="790.17" y="-15.4" font-family="Times-12" font-size="14.00"> &#160;Providers</text>
<polygon fill="#fb8072" stroke="transparent" points="862.5,-10 862.5,-30 882.5,-30 882.5,-10 862.5,-10"/>
<text text-anchor="start" x="886.23" y="-15.4" font-family="Times-12" font-size="14.00"> &#160;Exports</text>
<g id="clust1" class="cluster">
<title>cluster_TaskModule</title>
<polygon fill="none" stroke="black" stroke-dasharray="1,5" points="8,-70 8,-268 1401,-268 1401,-70 8,-70"/>
</g>
<g id="clust4" class="cluster">
<title>cluster_TaskModule_exports</title>
<polygon fill="none" stroke="black" points="547,-208 547,-260 933,-260 933,-208 547,-208"/>
</g>
<g id="clust3" class="cluster">
<title>cluster_TaskModule_imports</title>
<polygon fill="none" stroke="black" points="949,-78 949,-130 1393,-130 1393,-78 949,-78"/>
</g>
<g id="clust6" class="cluster">
<title>cluster_TaskModule_providers</title>
<polygon fill="none" stroke="black" points="16,-78 16,-130 941,-130 941,-78 16,-78"/>
</g>
<!-- CopyHelperModule -->
<g id="node1" class="node">
<title>CopyHelperModule</title>
<polygon fill="#8dd3c7" stroke="black" points="1384.97,-122 1381.97,-126 1360.97,-126 1357.97,-122 1257.03,-122 1257.03,-86 1384.97,-86 1384.97,-122"/>
<text text-anchor="middle" x="1321" y="-99.8" font-family="Times,serif" font-size="14.00">CopyHelperModule</text>
</g>
<!-- TaskModule -->
<g id="node4" class="node">
<title>TaskModule</title>
<polygon fill="#8dd3c7" stroke="black" points="764.26,-187 761.26,-191 740.26,-191 737.26,-187 677.74,-187 677.74,-151 764.26,-151 764.26,-187"/>
<text text-anchor="middle" x="721" y="-164.8" font-family="Times,serif" font-size="14.00">TaskModule</text>
</g>
<!-- CopyHelperModule&#45;&gt;TaskModule -->
<g id="edge1" class="edge">
<title>CopyHelperModule&#45;&gt;TaskModule</title>
<path fill="none" stroke="black" d="M1321,-122.28C1321,-143.32 1321,-175 1321,-175 1321,-175 774.63,-175 774.63,-175"/>
<polygon fill="black" stroke="black" points="774.63,-171.5 764.63,-175 774.63,-178.5 774.63,-171.5"/>
</g>
<!-- FilesStorageClientModule -->
<g id="node2" class="node">
<title>FilesStorageClientModule</title>
<polygon fill="#8dd3c7" stroke="black" points="1238.76,-122 1235.76,-126 1214.76,-126 1211.76,-122 1075.24,-122 1075.24,-86 1238.76,-86 1238.76,-122"/>
<text text-anchor="middle" x="1157" y="-99.8" font-family="Times,serif" font-size="14.00">FilesStorageClientModule</text>
</g>
<!-- FilesStorageClientModule&#45;&gt;TaskModule -->
<g id="edge2" class="edge">
<title>FilesStorageClientModule&#45;&gt;TaskModule</title>
<path fill="none" stroke="black" d="M1157,-122.11C1157,-141.34 1157,-169 1157,-169 1157,-169 774.4,-169 774.4,-169"/>
<polygon fill="black" stroke="black" points="774.4,-165.5 764.4,-169 774.4,-172.5 774.4,-165.5"/>
</g>
<!-- LoggerModule -->
<g id="node3" class="node">
<title>LoggerModule</title>
<polygon fill="#8dd3c7" stroke="black" points="1056.98,-122 1053.98,-126 1032.98,-126 1029.98,-122 957.02,-122 957.02,-86 1056.98,-86 1056.98,-122"/>
<text text-anchor="middle" x="1007" y="-99.8" font-family="Times,serif" font-size="14.00">LoggerModule</text>
</g>
<!-- LoggerModule&#45;&gt;TaskModule -->
<g id="edge3" class="edge">
<title>LoggerModule&#45;&gt;TaskModule</title>
<path fill="none" stroke="black" d="M1007,-122.02C1007,-139.37 1007,-163 1007,-163 1007,-163 774.44,-163 774.44,-163"/>
<polygon fill="black" stroke="black" points="774.44,-159.5 764.44,-163 774.44,-166.5 774.44,-159.5"/>
</g>
<!-- SubmissionService  -->
<g id="node5" class="node">
<title>SubmissionService </title>
<polygon fill="#fb8072" stroke="black" points="925.32,-252 798.68,-252 798.68,-216 925.32,-216 925.32,-252"/>
<text text-anchor="middle" x="862" y="-229.8" font-family="Times,serif" font-size="14.00">SubmissionService </text>
</g>
<!-- TaskModule&#45;&gt;SubmissionService  -->
<g id="edge4" class="edge">
<title>TaskModule&#45;&gt;SubmissionService </title>
<path fill="none" stroke="black" stroke-dasharray="5,2" d="M764.46,-181C785.76,-181 806.91,-181 806.91,-181 806.91,-181 806.91,-205.76 806.91,-205.76"/>
<polygon fill="black" stroke="black" points="803.41,-205.76 806.91,-215.76 810.41,-205.76 803.41,-205.76"/>
</g>
<!-- TaskCopyService  -->
<g id="node6" class="node">
<title>TaskCopyService </title>
<polygon fill="#fb8072" stroke="black" points="780.53,-252 661.47,-252 661.47,-216 780.53,-216 780.53,-252"/>
<text text-anchor="middle" x="721" y="-229.8" font-family="Times,serif" font-size="14.00">TaskCopyService </text>
</g>
<!-- TaskModule&#45;&gt;TaskCopyService  -->
<g id="edge5" class="edge">
<title>TaskModule&#45;&gt;TaskCopyService </title>
<path fill="none" stroke="black" stroke-dasharray="5,2" d="M721,-187.11C721,-187.11 721,-205.99 721,-205.99"/>
<polygon fill="black" stroke="black" points="717.5,-205.99 721,-215.99 724.5,-205.99 717.5,-205.99"/>
</g>
<!-- TaskService  -->
<g id="node7" class="node">
<title>TaskService </title>
<polygon fill="#fb8072" stroke="black" points="643.19,-252 554.81,-252 554.81,-216 643.19,-216 643.19,-252"/>
<text text-anchor="middle" x="599" y="-229.8" font-family="Times,serif" font-size="14.00">TaskService </text>
</g>
<!-- TaskModule&#45;&gt;TaskService  -->
<g id="edge6" class="edge">
<title>TaskModule&#45;&gt;TaskService </title>
<path fill="none" stroke="black" stroke-dasharray="5,2" d="M677.6,-181C656.11,-181 634.7,-181 634.7,-181 634.7,-181 634.7,-205.76 634.7,-205.76"/>
<polygon fill="black" stroke="black" points="631.2,-205.76 634.7,-215.76 638.2,-205.76 631.2,-205.76"/>
</g>
<!-- CourseRepo -->
<g id="node8" class="node">
<title>CourseRepo</title>
<ellipse fill="#fdb462" stroke="black" cx="874" cy="-104" rx="58.55" ry="18"/>
<text text-anchor="middle" x="874" y="-99.8" font-family="Times,serif" font-size="14.00">CourseRepo</text>
</g>
<!-- CourseRepo&#45;&gt;TaskModule -->
<g id="edge7" class="edge">
<title>CourseRepo&#45;&gt;TaskModule</title>
<path fill="none" stroke="black" d="M870.32,-122.24C870.32,-137.57 870.32,-157 870.32,-157 870.32,-157 774.59,-157 774.59,-157"/>
<polygon fill="black" stroke="black" points="774.59,-153.5 764.59,-157 774.59,-160.5 774.59,-153.5"/>
</g>
<!-- SubmissionRepo -->
<g id="node9" class="node">
<title>SubmissionRepo</title>
<ellipse fill="#fdb462" stroke="black" cx="721" cy="-104" rx="76.49" ry="18"/>
<text text-anchor="middle" x="721" y="-99.8" font-family="Times,serif" font-size="14.00">SubmissionRepo</text>
</g>
<!-- SubmissionRepo&#45;&gt;TaskModule -->
<g id="edge8" class="edge">
<title>SubmissionRepo&#45;&gt;TaskModule</title>
<path fill="none" stroke="black" d="M721,-122.11C721,-122.11 721,-140.99 721,-140.99"/>
<polygon fill="black" stroke="black" points="717.5,-140.99 721,-150.99 724.5,-140.99 717.5,-140.99"/>
</g>
<!-- SubmissionService -->
<g id="node10" class="node">
<title>SubmissionService</title>
<ellipse fill="#fdb462" stroke="black" cx="541" cy="-104" rx="85.13" ry="18"/>
<text text-anchor="middle" x="541" y="-99.8" font-family="Times,serif" font-size="14.00">SubmissionService</text>
</g>
<!-- SubmissionService&#45;&gt;TaskModule -->
<g id="edge9" class="edge">
<title>SubmissionService&#45;&gt;TaskModule</title>
<path fill="none" stroke="black" d="M590.36,-118.76C590.36,-134.45 590.36,-157 590.36,-157 590.36,-157 667.5,-157 667.5,-157"/>
<polygon fill="black" stroke="black" points="667.5,-160.5 677.5,-157 667.5,-153.5 667.5,-160.5"/>
</g>
<!-- TaskCopyService -->
<g id="node11" class="node">
<title>TaskCopyService</title>
<ellipse fill="#fdb462" stroke="black" cx="358" cy="-104" rx="79.88" ry="18"/>
<text text-anchor="middle" x="358" y="-99.8" font-family="Times,serif" font-size="14.00">TaskCopyService</text>
</g>
<!-- TaskCopyService&#45;&gt;TaskModule -->
<g id="edge10" class="edge">
<title>TaskCopyService&#45;&gt;TaskModule</title>
<path fill="none" stroke="black" d="M358,-122.02C358,-139.37 358,-163 358,-163 358,-163 667.57,-163 667.57,-163"/>
<polygon fill="black" stroke="black" points="667.57,-166.5 677.57,-163 667.57,-159.5 667.57,-166.5"/>
</g>
<!-- TaskRepo -->
<g id="node12" class="node">
<title>TaskRepo</title>
<ellipse fill="#fdb462" stroke="black" cx="210" cy="-104" rx="50.38" ry="18"/>
<text text-anchor="middle" x="210" y="-99.8" font-family="Times,serif" font-size="14.00">TaskRepo</text>
</g>
<!-- TaskRepo&#45;&gt;TaskModule -->
<g id="edge11" class="edge">
<title>TaskRepo&#45;&gt;TaskModule</title>
<path fill="none" stroke="black" d="M210,-122.11C210,-141.34 210,-169 210,-169 210,-169 667.43,-169 667.43,-169"/>
<polygon fill="black" stroke="black" points="667.43,-172.5 677.43,-169 667.43,-165.5 667.43,-172.5"/>
</g>
<!-- TaskService -->
<g id="node13" class="node">
<title>TaskService</title>
<ellipse fill="#fdb462" stroke="black" cx="83" cy="-104" rx="58.53" ry="18"/>
<text text-anchor="middle" x="83" y="-99.8" font-family="Times,serif" font-size="14.00">TaskService</text>
</g>
<!-- TaskService&#45;&gt;TaskModule -->
<g id="edge12" class="edge">
<title>TaskService&#45;&gt;TaskModule</title>
<path fill="none" stroke="black" d="M83,-122.28C83,-143.32 83,-175 83,-175 83,-175 667.65,-175 667.65,-175"/>
<polygon fill="black" stroke="black" points="667.65,-178.5 677.65,-175 667.65,-171.5 667.65,-178.5"/>
</g>
</g>
</svg>
