<?xml version="1.0" encoding="UTF-8" standalone="no"?>
<!DOCTYPE svg PUBLIC "-//W3C//DTD SVG 1.1//EN"
 "http://www.w3.org/Graphics/SVG/1.1/DTD/svg11.dtd">
<!-- Generated by graphviz version 5.0.0 (20220707.1540)
 -->
<!-- Title: dependencies Pages: 1 -->
<svg width="1665pt" height="247pt"
 viewBox="0.00 0.00 1665.00 246.80" xmlns="http://www.w3.org/2000/svg" xmlns:xlink="http://www.w3.org/1999/xlink">
<g id="graph0" class="graph" transform="scale(1 1) rotate(0) translate(4 242.8)">
<title>dependencies</title>
<polygon fill="white" stroke="transparent" points="-4,4 -4,-242.8 1661,-242.8 1661,4 -4,4"/>
<text text-anchor="middle" x="828.5" y="-8.2" font-family="sans-serif" font-size="14.00">dependencies</text>
<g id="clust1" class="cluster">
<title>cluster_CollaborativeStorageModule</title>
<polygon fill="none" stroke="black" stroke-dasharray="1,5" points="8,-32.8 8,-230.8 1649,-230.8 1649,-32.8 8,-32.8"/>
</g>
<g id="clust4" class="cluster">
<title>cluster_CollaborativeStorageModule_exports</title>
<polygon fill="none" stroke="black" points="621,-170.8 621,-222.8 791,-222.8 791,-170.8 621,-170.8"/>
</g>
<g id="clust6" class="cluster">
<title>cluster_CollaborativeStorageModule_providers</title>
<polygon fill="none" stroke="black" points="641,-40.8 641,-92.8 1641,-92.8 1641,-40.8 641,-40.8"/>
</g>
<g id="clust3" class="cluster">
<title>cluster_CollaborativeStorageModule_imports</title>
<polygon fill="none" stroke="black" points="16,-40.8 16,-92.8 633,-92.8 633,-40.8 16,-40.8"/>
</g>
<!-- AuthorizationModule -->
<g id="node1" class="node">
<title>AuthorizationModule</title>
<polygon fill="#8dd3c7" stroke="black" points="624.81,-84.8 621.81,-88.8 600.81,-88.8 597.81,-84.8 487.19,-84.8 487.19,-48.8 624.81,-48.8 624.81,-84.8"/>
<text text-anchor="middle" x="556" y="-62.6" font-family="Times,serif" font-size="14.00">AuthorizationModule</text>
</g>
<!-- CollaborativeStorageModule -->
<g id="node5" class="node">
<title>CollaborativeStorageModule</title>
<polygon fill="#8dd3c7" stroke="black" points="795.02,-149.8 792.02,-153.8 771.02,-153.8 768.02,-149.8 616.98,-149.8 616.98,-113.8 795.02,-113.8 795.02,-149.8"/>
<text text-anchor="middle" x="706" y="-127.6" font-family="Times,serif" font-size="14.00">CollaborativeStorageModule</text>
</g>
<!-- AuthorizationModule&#45;&gt;CollaborativeStorageModule -->
<g id="edge1" class="edge">
<title>AuthorizationModule&#45;&gt;CollaborativeStorageModule</title>
<path fill="none" stroke="black" d="M620.7,-84.91C620.7,-84.91 620.7,-103.79 620.7,-103.79"/>
<polygon fill="black" stroke="black" points="617.2,-103.79 620.7,-113.79 624.2,-103.79 617.2,-103.79"/>
</g>
<!-- CollaborativeStorageAdapterModule -->
<g id="node2" class="node">
<title>CollaborativeStorageAdapterModule</title>
<polygon fill="#8dd3c7" stroke="black" points="469.61,-84.8 466.61,-88.8 445.61,-88.8 442.61,-84.8 246.39,-84.8 246.39,-48.8 469.61,-48.8 469.61,-84.8"/>
<text text-anchor="middle" x="358" y="-62.6" font-family="Times,serif" font-size="14.00">CollaborativeStorageAdapterModule</text>
</g>
<!-- CollaborativeStorageAdapterModule&#45;&gt;CollaborativeStorageModule -->
<g id="edge2" class="edge">
<title>CollaborativeStorageAdapterModule&#45;&gt;CollaborativeStorageModule</title>
<path fill="none" stroke="black" d="M358,-84.83C358,-101.2 358,-122.8 358,-122.8 358,-122.8 606.83,-122.8 606.83,-122.8"/>
<polygon fill="black" stroke="black" points="606.83,-126.3 616.83,-122.8 606.83,-119.3 606.83,-126.3"/>
</g>
<!-- LoggerModule -->
<g id="node3" class="node">
<title>LoggerModule</title>
<polygon fill="#8dd3c7" stroke="black" points="227.98,-84.8 224.98,-88.8 203.98,-88.8 200.98,-84.8 128.02,-84.8 128.02,-48.8 227.98,-48.8 227.98,-84.8"/>
<text text-anchor="middle" x="178" y="-62.6" font-family="Times,serif" font-size="14.00">LoggerModule</text>
</g>
<!-- LoggerModule&#45;&gt;CollaborativeStorageModule -->
<g id="edge3" class="edge">
<title>LoggerModule&#45;&gt;CollaborativeStorageModule</title>
<path fill="none" stroke="black" d="M178,-84.91C178,-104.14 178,-131.8 178,-131.8 178,-131.8 606.73,-131.8 606.73,-131.8"/>
<polygon fill="black" stroke="black" points="606.73,-135.3 616.73,-131.8 606.73,-128.3 606.73,-135.3"/>
</g>
<!-- RoleModule -->
<g id="node4" class="node">
<title>RoleModule</title>
<polygon fill="#8dd3c7" stroke="black" points="109.99,-84.8 106.99,-88.8 85.99,-88.8 82.99,-84.8 24.01,-84.8 24.01,-48.8 109.99,-48.8 109.99,-84.8"/>
<text text-anchor="middle" x="67" y="-62.6" font-family="Times,serif" font-size="14.00">RoleModule</text>
</g>
<!-- RoleModule&#45;&gt;CollaborativeStorageModule -->
<g id="edge4" class="edge">
<title>RoleModule&#45;&gt;CollaborativeStorageModule</title>
<path fill="none" stroke="black" d="M67,-85.09C67,-107.01 67,-140.8 67,-140.8 67,-140.8 606.81,-140.8 606.81,-140.8"/>
<polygon fill="black" stroke="black" points="606.81,-144.3 616.81,-140.8 606.81,-137.3 606.81,-144.3"/>
</g>
<!-- CollaborativeStorageUc  -->
<g id="node6" class="node">
<title>CollaborativeStorageUc </title>
<polygon fill="#fb8072" stroke="black" points="783.29,-214.8 628.71,-214.8 628.71,-178.8 783.29,-178.8 783.29,-214.8"/>
<text text-anchor="middle" x="706" y="-192.6" font-family="Times,serif" font-size="14.00">CollaborativeStorageUc </text>
</g>
<!-- CollaborativeStorageModule&#45;&gt;CollaborativeStorageUc  -->
<g id="edge5" class="edge">
<title>CollaborativeStorageModule&#45;&gt;CollaborativeStorageUc </title>
<path fill="none" stroke="black" stroke-dasharray="5,2" d="M706,-149.91C706,-149.91 706,-168.79 706,-168.79"/>
<polygon fill="black" stroke="black" points="702.5,-168.79 706,-178.79 709.5,-168.79 702.5,-168.79"/>
</g>
<!-- CollaborativeStorageService -->
<g id="node7" class="node">
<title>CollaborativeStorageService</title>
<ellipse fill="#fdb462" stroke="black" cx="1511" cy="-66.8" rx="122.11" ry="18"/>
<text text-anchor="middle" x="1511" y="-62.6" font-family="Times,serif" font-size="14.00">CollaborativeStorageService</text>
</g>
<!-- CollaborativeStorageService&#45;&gt;CollaborativeStorageModule -->
<g id="edge6" class="edge">
<title>CollaborativeStorageService&#45;&gt;CollaborativeStorageModule</title>
<path fill="none" stroke="black" d="M1511,-85.09C1511,-107.01 1511,-140.8 1511,-140.8 1511,-140.8 805.22,-140.8 805.22,-140.8"/>
<polygon fill="black" stroke="black" points="805.22,-137.3 795.22,-140.8 805.22,-144.3 805.22,-137.3"/>
</g>
<!-- CollaborativeStorageUc -->
<g id="node8" class="node">
<title>CollaborativeStorageUc</title>
<ellipse fill="#fdb462" stroke="black" cx="1267" cy="-66.8" rx="104.21" ry="18"/>
<text text-anchor="middle" x="1267" y="-62.6" font-family="Times,serif" font-size="14.00">CollaborativeStorageUc</text>
</g>
<!-- CollaborativeStorageUc&#45;&gt;CollaborativeStorageModule -->
<g id="edge7" class="edge">
<title>CollaborativeStorageUc&#45;&gt;CollaborativeStorageModule</title>
<path fill="none" stroke="black" d="M1267,-84.91C1267,-104.14 1267,-131.8 1267,-131.8 1267,-131.8 805.2,-131.8 805.2,-131.8"/>
<polygon fill="black" stroke="black" points="805.2,-128.3 795.2,-131.8 805.2,-135.3 805.2,-128.3"/>
</g>
<!-- TeamMapper -->
<g id="node9" class="node">
<title>TeamMapper</title>
<ellipse fill="#fdb462" stroke="black" cx="1082" cy="-66.8" rx="63.1" ry="18"/>
<text text-anchor="middle" x="1082" y="-62.6" font-family="Times,serif" font-size="14.00">TeamMapper</text>
</g>
<!-- TeamMapper&#45;&gt;CollaborativeStorageModule -->
<g id="edge8" class="edge">
<title>TeamMapper&#45;&gt;CollaborativeStorageModule</title>
<path fill="none" stroke="black" d="M1082,-84.83C1082,-101.2 1082,-122.8 1082,-122.8 1082,-122.8 805.11,-122.8 805.11,-122.8"/>
<polygon fill="black" stroke="black" points="805.11,-119.3 795.11,-122.8 805.11,-126.3 805.11,-119.3"/>
</g>
<!-- TeamPermissionsMapper -->
<g id="node10" class="node">
<title>TeamPermissionsMapper</title>
<ellipse fill="#fdb462" stroke="black" cx="891" cy="-66.8" rx="109.97" ry="18"/>
<text text-anchor="middle" x="891" y="-62.6" font-family="Times,serif" font-size="14.00">TeamPermissionsMapper</text>
</g>
<!-- TeamPermissionsMapper&#45;&gt;CollaborativeStorageModule -->
<g id="edge9" class="edge">
<title>TeamPermissionsMapper&#45;&gt;CollaborativeStorageModule</title>
<path fill="none" stroke="black" d="M788.26,-73.27C788.26,-73.27 788.26,-103.58 788.26,-103.58"/>
<polygon fill="black" stroke="black" points="784.76,-103.58 788.26,-113.58 791.76,-103.58 784.76,-103.58"/>
</g>
<!-- TeamsRepo -->
<g id="node11" class="node">
<title>TeamsRepo</title>
<ellipse fill="#fdb462" stroke="black" cx="706" cy="-66.8" rx="57.32" ry="18"/>
<text text-anchor="middle" x="706" y="-62.6" font-family="Times,serif" font-size="14.00">TeamsRepo</text>
</g>
<!-- TeamsRepo&#45;&gt;CollaborativeStorageModule -->
<g id="edge10" class="edge">
<title>TeamsRepo&#45;&gt;CollaborativeStorageModule</title>
<path fill="none" stroke="black" d="M706,-84.91C706,-84.91 706,-103.79 706,-103.79"/>
<polygon fill="black" stroke="black" points="702.5,-103.79 706,-113.79 709.5,-103.79 702.5,-103.79"/>
</g>
</g>
</svg>
