<?xml version="1.0" encoding="UTF-8" standalone="no"?>
<!DOCTYPE svg PUBLIC "-//W3C//DTD SVG 1.1//EN"
 "http://www.w3.org/Graphics/SVG/1.1/DTD/svg11.dtd">
<!-- Generated by graphviz version 2.47.0 (20210316.0004)
 -->
<!-- Title: dependencies Pages: 1 -->
<svg width="1665pt" height="284pt"
 viewBox="0.00 0.00 1665.00 284.00" xmlns="http://www.w3.org/2000/svg" xmlns:xlink="http://www.w3.org/1999/xlink">
<g id="graph0" class="graph" transform="scale(1 1) rotate(0) translate(4 280)">
<title>dependencies</title>
<polygon fill="white" stroke="transparent" points="-4,4 -4,-280 1661,-280 1661,4 -4,4"/>
<text text-anchor="start" x="807.51" y="-42.4" font-family="Times-12" font-weight="bold" font-size="14.00">Legend</text>
<polygon fill="#ffffb3" stroke="transparent" points="594.5,-10 594.5,-30 614.5,-30 614.5,-10 594.5,-10"/>
<text text-anchor="start" x="618.13" y="-15.4" font-family="Times-12" font-size="14.00"> &#160;Declarations</text>
<polygon fill="#8dd3c7" stroke="transparent" points="707.5,-10 707.5,-30 727.5,-30 727.5,-10 707.5,-10"/>
<text text-anchor="start" x="731.23" y="-15.4" font-family="Times-12" font-size="14.00"> &#160;Module</text>
<polygon fill="#80b1d3" stroke="transparent" points="793.5,-10 793.5,-30 813.5,-30 813.5,-10 793.5,-10"/>
<text text-anchor="start" x="817.28" y="-15.4" font-family="Times-12" font-size="14.00"> &#160;Bootstrap</text>
<polygon fill="#fdb462" stroke="transparent" points="890.5,-10 890.5,-30 910.5,-30 910.5,-10 890.5,-10"/>
<text text-anchor="start" x="914.17" y="-15.4" font-family="Times-12" font-size="14.00"> &#160;Providers</text>
<polygon fill="#fb8072" stroke="transparent" points="986.5,-10 986.5,-30 1006.5,-30 1006.5,-10 986.5,-10"/>
<text text-anchor="start" x="1010.23" y="-15.4" font-family="Times-12" font-size="14.00"> &#160;Exports</text>
<g id="clust1" class="cluster">
<title>cluster_CollaborativeStorageModule</title>
<polygon fill="none" stroke="black" stroke-dasharray="1,5" points="8,-70 8,-268 1649,-268 1649,-70 8,-70"/>
</g>
<g id="clust6" class="cluster">
<title>cluster_CollaborativeStorageModule_providers</title>
<polygon fill="none" stroke="black" points="641,-78 641,-130 1641,-130 1641,-78 641,-78"/>
</g>
<g id="clust3" class="cluster">
<title>cluster_CollaborativeStorageModule_imports</title>
<polygon fill="none" stroke="black" points="16,-78 16,-130 633,-130 633,-78 16,-78"/>
</g>
<g id="clust4" class="cluster">
<title>cluster_CollaborativeStorageModule_exports</title>
<polygon fill="none" stroke="black" points="621,-208 621,-260 791,-260 791,-208 621,-208"/>
</g>
<!-- AuthorizationModule -->
<g id="node1" class="node">
<title>AuthorizationModule</title>
<polygon fill="#8dd3c7" stroke="black" points="624.81,-122 621.81,-126 600.81,-126 597.81,-122 487.19,-122 487.19,-86 624.81,-86 624.81,-122"/>
<text text-anchor="middle" x="556" y="-99.8" font-family="Times,serif" font-size="14.00">AuthorizationModule</text>
</g>
<!-- CollaborativeStorageModule -->
<g id="node5" class="node">
<title>CollaborativeStorageModule</title>
<polygon fill="#8dd3c7" stroke="black" points="795.02,-187 792.02,-191 771.02,-191 768.02,-187 616.98,-187 616.98,-151 795.02,-151 795.02,-187"/>
<text text-anchor="middle" x="706" y="-164.8" font-family="Times,serif" font-size="14.00">CollaborativeStorageModule</text>
</g>
<!-- AuthorizationModule&#45;&gt;CollaborativeStorageModule -->
<g id="edge1" class="edge">
<title>AuthorizationModule&#45;&gt;CollaborativeStorageModule</title>
<path fill="none" stroke="black" d="M620.7,-122.11C620.7,-122.11 620.7,-140.99 620.7,-140.99"/>
<polygon fill="black" stroke="black" points="617.2,-140.99 620.7,-150.99 624.2,-140.99 617.2,-140.99"/>
</g>
<!-- CollaborativeStorageAdapterModule -->
<g id="node2" class="node">
<title>CollaborativeStorageAdapterModule</title>
<polygon fill="#8dd3c7" stroke="black" points="469.6,-122 466.6,-126 445.6,-126 442.6,-122 246.4,-122 246.4,-86 469.6,-86 469.6,-122"/>
<text text-anchor="middle" x="358" y="-99.8" font-family="Times,serif" font-size="14.00">CollaborativeStorageAdapterModule</text>
</g>
<!-- CollaborativeStorageAdapterModule&#45;&gt;CollaborativeStorageModule -->
<g id="edge2" class="edge">
<title>CollaborativeStorageAdapterModule&#45;&gt;CollaborativeStorageModule</title>
<path fill="none" stroke="black" d="M358,-122.03C358,-138.4 358,-160 358,-160 358,-160 606.83,-160 606.83,-160"/>
<polygon fill="black" stroke="black" points="606.83,-163.5 616.83,-160 606.83,-156.5 606.83,-163.5"/>
</g>
<!-- LoggerModule -->
<g id="node3" class="node">
<title>LoggerModule</title>
<polygon fill="#8dd3c7" stroke="black" points="227.98,-122 224.98,-126 203.98,-126 200.98,-122 128.02,-122 128.02,-86 227.98,-86 227.98,-122"/>
<text text-anchor="middle" x="178" y="-99.8" font-family="Times,serif" font-size="14.00">LoggerModule</text>
</g>
<!-- LoggerModule&#45;&gt;CollaborativeStorageModule -->
<g id="edge3" class="edge">
<title>LoggerModule&#45;&gt;CollaborativeStorageModule</title>
<path fill="none" stroke="black" d="M178,-122.11C178,-141.34 178,-169 178,-169 178,-169 606.73,-169 606.73,-169"/>
<polygon fill="black" stroke="black" points="606.73,-172.5 616.73,-169 606.73,-165.5 606.73,-172.5"/>
</g>
<!-- RoleModule -->
<g id="node4" class="node">
<title>RoleModule</title>
<polygon fill="#8dd3c7" stroke="black" points="109.99,-122 106.99,-126 85.99,-126 82.99,-122 24.01,-122 24.01,-86 109.99,-86 109.99,-122"/>
<text text-anchor="middle" x="67" y="-99.8" font-family="Times,serif" font-size="14.00">RoleModule</text>
</g>
<!-- RoleModule&#45;&gt;CollaborativeStorageModule -->
<g id="edge4" class="edge">
<title>RoleModule&#45;&gt;CollaborativeStorageModule</title>
<path fill="none" stroke="black" d="M67,-122.29C67,-144.21 67,-178 67,-178 67,-178 606.81,-178 606.81,-178"/>
<polygon fill="black" stroke="black" points="606.81,-181.5 616.81,-178 606.81,-174.5 606.81,-181.5"/>
</g>
<!-- CollaborativeStorageUc  -->
<g id="node6" class="node">
<title>CollaborativeStorageUc </title>
<polygon fill="#fb8072" stroke="black" points="783.29,-252 628.71,-252 628.71,-216 783.29,-216 783.29,-252"/>
<text text-anchor="middle" x="706" y="-229.8" font-family="Times,serif" font-size="14.00">CollaborativeStorageUc </text>
</g>
<!-- CollaborativeStorageModule&#45;&gt;CollaborativeStorageUc  -->
<g id="edge5" class="edge">
<title>CollaborativeStorageModule&#45;&gt;CollaborativeStorageUc </title>
<path fill="none" stroke="black" stroke-dasharray="5,2" d="M706,-187.11C706,-187.11 706,-205.99 706,-205.99"/>
<polygon fill="black" stroke="black" points="702.5,-205.99 706,-215.99 709.5,-205.99 702.5,-205.99"/>
</g>
<!-- CollaborativeStorageService -->
<g id="node7" class="node">
<title>CollaborativeStorageService</title>
<ellipse fill="#fdb462" stroke="black" cx="1511" cy="-104" rx="122.11" ry="18"/>
<text text-anchor="middle" x="1511" y="-99.8" font-family="Times,serif" font-size="14.00">CollaborativeStorageService</text>
</g>
<!-- CollaborativeStorageService&#45;&gt;CollaborativeStorageModule -->
<g id="edge6" class="edge">
<title>CollaborativeStorageService&#45;&gt;CollaborativeStorageModule</title>
<path fill="none" stroke="black" d="M1511,-122.29C1511,-144.21 1511,-178 1511,-178 1511,-178 805.22,-178 805.22,-178"/>
<polygon fill="black" stroke="black" points="805.22,-174.5 795.22,-178 805.22,-181.5 805.22,-174.5"/>
</g>
<!-- CollaborativeStorageUc -->
<g id="node8" class="node">
<title>CollaborativeStorageUc</title>
<ellipse fill="#fdb462" stroke="black" cx="1267" cy="-104" rx="104.21" ry="18"/>
<text text-anchor="middle" x="1267" y="-99.8" font-family="Times,serif" font-size="14.00">CollaborativeStorageUc</text>
</g>
<!-- CollaborativeStorageUc&#45;&gt;CollaborativeStorageModule -->
<g id="edge7" class="edge">
<title>CollaborativeStorageUc&#45;&gt;CollaborativeStorageModule</title>
<path fill="none" stroke="black" d="M1267,-122.11C1267,-141.34 1267,-169 1267,-169 1267,-169 805.2,-169 805.2,-169"/>
<polygon fill="black" stroke="black" points="805.2,-165.5 795.2,-169 805.2,-172.5 805.2,-165.5"/>
</g>
<!-- TeamMapper -->
<g id="node9" class="node">
<title>TeamMapper</title>
<ellipse fill="#fdb462" stroke="black" cx="1082" cy="-104" rx="63.1" ry="18"/>
<text text-anchor="middle" x="1082" y="-99.8" font-family="Times,serif" font-size="14.00">TeamMapper</text>
</g>
<!-- TeamMapper&#45;&gt;CollaborativeStorageModule -->
<g id="edge8" class="edge">
<title>TeamMapper&#45;&gt;CollaborativeStorageModule</title>
<path fill="none" stroke="black" d="M1082,-122.03C1082,-138.4 1082,-160 1082,-160 1082,-160 805.11,-160 805.11,-160"/>
<polygon fill="black" stroke="black" points="805.11,-156.5 795.11,-160 805.11,-163.5 805.11,-156.5"/>
</g>
<!-- TeamPermissionsMapper -->
<g id="node10" class="node">
<title>TeamPermissionsMapper</title>
<ellipse fill="#fdb462" stroke="black" cx="891" cy="-104" rx="109.95" ry="18"/>
<text text-anchor="middle" x="891" y="-99.8" font-family="Times,serif" font-size="14.00">TeamPermissionsMapper</text>
</g>
<!-- TeamPermissionsMapper&#45;&gt;CollaborativeStorageModule -->
<g id="edge9" class="edge">
<title>TeamPermissionsMapper&#45;&gt;CollaborativeStorageModule</title>
<path fill="none" stroke="black" d="M788.27,-110.47C788.27,-110.47 788.27,-140.78 788.27,-140.78"/>
<polygon fill="black" stroke="black" points="784.77,-140.78 788.27,-150.78 791.77,-140.78 784.77,-140.78"/>
</g>
<!-- TeamsRepo -->
<g id="node11" class="node">
<title>TeamsRepo</title>
<ellipse fill="#fdb462" stroke="black" cx="706" cy="-104" rx="57.32" ry="18"/>
<text text-anchor="middle" x="706" y="-99.8" font-family="Times,serif" font-size="14.00">TeamsRepo</text>
</g>
<!-- TeamsRepo&#45;&gt;CollaborativeStorageModule -->
<g id="edge10" class="edge">
<title>TeamsRepo&#45;&gt;CollaborativeStorageModule</title>
<path fill="none" stroke="black" d="M706,-122.11C706,-122.11 706,-140.99 706,-140.99"/>
<polygon fill="black" stroke="black" points="702.5,-140.99 706,-150.99 709.5,-140.99 702.5,-140.99"/>
</g>
</g>
</svg>
