<?xml version="1.0" encoding="UTF-8" standalone="no"?>
<!DOCTYPE svg PUBLIC "-//W3C//DTD SVG 1.1//EN"
 "http://www.w3.org/Graphics/SVG/1.1/DTD/svg11.dtd">
<!-- Generated by graphviz version 5.0.0 (20220707.1540)
 -->
<!-- Title: dependencies Pages: 1 -->
<svg width="1665pt" height="247pt"
 viewBox="0.00 0.00 1665.00 246.80" xmlns="http://www.w3.org/2000/svg" xmlns:xlink="http://www.w3.org/1999/xlink">
<g id="graph0" class="graph" transform="scale(1 1) rotate(0) translate(4 242.8)">
<title>dependencies</title>
<polygon fill="white" stroke="transparent" points="-4,4 -4,-242.8 1661,-242.8 1661,4 -4,4"/>
<text text-anchor="middle" x="828.5" y="-8.2" font-family="sans-serif" font-size="14.00">dependencies</text>
<g id="clust1" class="cluster">
<title>cluster_CollaborativeStorageModule</title>
<polygon fill="none" stroke="black" stroke-dasharray="1,5" points="8,-32.8 8,-230.8 1649,-230.8 1649,-32.8 8,-32.8"/>
</g>
<g id="clust3" class="cluster">
<title>cluster_CollaborativeStorageModule_imports</title>
<polygon fill="none" stroke="black" points="1024,-40.8 1024,-92.8 1641,-92.8 1641,-40.8 1024,-40.8"/>
</g>
<g id="clust6" class="cluster">
<title>cluster_CollaborativeStorageModule_providers</title>
<polygon fill="none" stroke="black" points="16,-40.8 16,-92.8 1016,-92.8 1016,-40.8 16,-40.8"/>
</g>
<g id="clust4" class="cluster">
<title>cluster_CollaborativeStorageModule_exports</title>
<polygon fill="none" stroke="black" points="801,-170.8 801,-222.8 971,-222.8 971,-170.8 801,-170.8"/>
</g>
<!-- AuthorizationModule -->
<g id="node1" class="node">
<title>AuthorizationModule</title>
<polygon fill="#8dd3c7" stroke="black" points="1632.81,-84.8 1629.81,-88.8 1608.81,-88.8 1605.81,-84.8 1495.19,-84.8 1495.19,-48.8 1632.81,-48.8 1632.81,-84.8"/>
<text text-anchor="middle" x="1564" y="-62.6" font-family="Times,serif" font-size="14.00">AuthorizationModule</text>
</g>
<!-- CollaborativeStorageModule -->
<g id="node5" class="node">
<title>CollaborativeStorageModule</title>
<polygon fill="#8dd3c7" stroke="black" points="975.02,-149.8 972.02,-153.8 951.02,-153.8 948.02,-149.8 796.98,-149.8 796.98,-113.8 975.02,-113.8 975.02,-149.8"/>
<text text-anchor="middle" x="886" y="-127.6" font-family="Times,serif" font-size="14.00">CollaborativeStorageModule</text>
</g>
<!-- AuthorizationModule&#45;&gt;CollaborativeStorageModule -->
<g id="edge1" class="edge">
<title>AuthorizationModule&#45;&gt;CollaborativeStorageModule</title>
<path fill="none" stroke="black" d="M1564,-84.81C1564,-107.29 1564,-142.8 1564,-142.8 1564,-142.8 985.33,-142.8 985.33,-142.8"/>
<polygon fill="black" stroke="black" points="985.33,-139.3 975.33,-142.8 985.33,-146.3 985.33,-139.3"/>
</g>
<!-- CollaborativeStorageAdapterModule -->
<g id="node2" class="node">
<title>CollaborativeStorageAdapterModule</title>
<polygon fill="#8dd3c7" stroke="black" points="1477.61,-84.8 1474.61,-88.8 1453.61,-88.8 1450.61,-84.8 1254.39,-84.8 1254.39,-48.8 1477.61,-48.8 1477.61,-84.8"/>
<text text-anchor="middle" x="1366" y="-62.6" font-family="Times,serif" font-size="14.00">CollaborativeStorageAdapterModule</text>
</g>
<!-- CollaborativeStorageAdapterModule&#45;&gt;CollaborativeStorageModule -->
<g id="edge2" class="edge">
<title>CollaborativeStorageAdapterModule&#45;&gt;CollaborativeStorageModule</title>
<path fill="none" stroke="black" d="M1366,-84.93C1366,-105.37 1366,-135.8 1366,-135.8 1366,-135.8 985.16,-135.8 985.16,-135.8"/>
<polygon fill="black" stroke="black" points="985.16,-132.3 975.16,-135.8 985.16,-139.3 985.16,-132.3"/>
</g>
<!-- LoggerModule -->
<g id="node3" class="node">
<title>LoggerModule</title>
<polygon fill="#8dd3c7" stroke="black" points="1235.98,-84.8 1232.98,-88.8 1211.98,-88.8 1208.98,-84.8 1136.02,-84.8 1136.02,-48.8 1235.98,-48.8 1235.98,-84.8"/>
<text text-anchor="middle" x="1186" y="-62.6" font-family="Times,serif" font-size="14.00">LoggerModule</text>
</g>
<!-- LoggerModule&#45;&gt;CollaborativeStorageModule -->
<g id="edge3" class="edge">
<title>LoggerModule&#45;&gt;CollaborativeStorageModule</title>
<path fill="none" stroke="black" d="M1186,-85.07C1186,-103.36 1186,-128.8 1186,-128.8 1186,-128.8 985.2,-128.8 985.2,-128.8"/>
<polygon fill="black" stroke="black" points="985.2,-125.3 975.2,-128.8 985.2,-132.3 985.2,-125.3"/>
</g>
<!-- RoleModule -->
<g id="node4" class="node">
<title>RoleModule</title>
<polygon fill="#8dd3c7" stroke="black" points="1117.99,-84.8 1114.99,-88.8 1093.99,-88.8 1090.99,-84.8 1032.01,-84.8 1032.01,-48.8 1117.99,-48.8 1117.99,-84.8"/>
<text text-anchor="middle" x="1075" y="-62.6" font-family="Times,serif" font-size="14.00">RoleModule</text>
</g>
<!-- RoleModule&#45;&gt;CollaborativeStorageModule -->
<g id="edge4" class="edge">
<title>RoleModule&#45;&gt;CollaborativeStorageModule</title>
<path fill="none" stroke="black" d="M1075,-84.81C1075,-100.85 1075,-121.8 1075,-121.8 1075,-121.8 985.24,-121.8 985.24,-121.8"/>
<polygon fill="black" stroke="black" points="985.24,-118.3 975.24,-121.8 985.24,-125.3 985.24,-118.3"/>
</g>
<!-- CollaborativeStorageUc  -->
<g id="node6" class="node">
<title>CollaborativeStorageUc </title>
<polygon fill="#fb8072" stroke="black" points="963.29,-214.8 808.71,-214.8 808.71,-178.8 963.29,-178.8 963.29,-214.8"/>
<text text-anchor="middle" x="886" y="-192.6" font-family="Times,serif" font-size="14.00">CollaborativeStorageUc </text>
</g>
<!-- CollaborativeStorageModule&#45;&gt;CollaborativeStorageUc  -->
<g id="edge5" class="edge">
<title>CollaborativeStorageModule&#45;&gt;CollaborativeStorageUc </title>
<path fill="none" stroke="black" stroke-dasharray="5,2" d="M886,-149.91C886,-149.91 886,-168.79 886,-168.79"/>
<polygon fill="black" stroke="black" points="882.5,-168.79 886,-178.79 889.5,-168.79 882.5,-168.79"/>
</g>
<!-- CollaborativeStorageService -->
<g id="node7" class="node">
<title>CollaborativeStorageService</title>
<ellipse fill="#fdb462" stroke="black" cx="886" cy="-66.8" rx="122.11" ry="18"/>
<text text-anchor="middle" x="886" y="-62.6" font-family="Times,serif" font-size="14.00">CollaborativeStorageService</text>
</g>
<!-- CollaborativeStorageService&#45;&gt;CollaborativeStorageModule -->
<g id="edge6" class="edge">
<title>CollaborativeStorageService&#45;&gt;CollaborativeStorageModule</title>
<path fill="none" stroke="black" d="M886,-84.91C886,-84.91 886,-103.79 886,-103.79"/>
<polygon fill="black" stroke="black" points="882.5,-103.79 886,-113.79 889.5,-103.79 882.5,-103.79"/>
</g>
<!-- CollaborativeStorageUc -->
<g id="node8" class="node">
<title>CollaborativeStorageUc</title>
<ellipse fill="#fdb462" stroke="black" cx="642" cy="-66.8" rx="104.21" ry="18"/>
<text text-anchor="middle" x="642" y="-62.6" font-family="Times,serif" font-size="14.00">CollaborativeStorageUc</text>
</g>
<!-- CollaborativeStorageUc&#45;&gt;CollaborativeStorageModule -->
<g id="edge7" class="edge">
<title>CollaborativeStorageUc&#45;&gt;CollaborativeStorageModule</title>
<path fill="none" stroke="black" d="M642,-84.81C642,-100.85 642,-121.8 642,-121.8 642,-121.8 786.87,-121.8 786.87,-121.8"/>
<polygon fill="black" stroke="black" points="786.87,-125.3 796.87,-121.8 786.87,-118.3 786.87,-125.3"/>
</g>
<!-- TeamMapper -->
<g id="node9" class="node">
<title>TeamMapper</title>
<ellipse fill="#fdb462" stroke="black" cx="457" cy="-66.8" rx="63.1" ry="18"/>
<text text-anchor="middle" x="457" y="-62.6" font-family="Times,serif" font-size="14.00">TeamMapper</text>
</g>
<!-- TeamMapper&#45;&gt;CollaborativeStorageModule -->
<g id="edge8" class="edge">
<title>TeamMapper&#45;&gt;CollaborativeStorageModule</title>
<path fill="none" stroke="black" d="M457,-85.07C457,-103.36 457,-128.8 457,-128.8 457,-128.8 786.85,-128.8 786.85,-128.8"/>
<polygon fill="black" stroke="black" points="786.85,-132.3 796.85,-128.8 786.85,-125.3 786.85,-132.3"/>
</g>
<!-- TeamPermissionsMapper -->
<g id="node10" class="node">
<title>TeamPermissionsMapper</title>
<ellipse fill="#fdb462" stroke="black" cx="266" cy="-66.8" rx="109.97" ry="18"/>
<text text-anchor="middle" x="266" y="-62.6" font-family="Times,serif" font-size="14.00">TeamPermissionsMapper</text>
</g>
<!-- TeamPermissionsMapper&#45;&gt;CollaborativeStorageModule -->
<g id="edge9" class="edge">
<title>TeamPermissionsMapper&#45;&gt;CollaborativeStorageModule</title>
<path fill="none" stroke="black" d="M266,-84.93C266,-105.37 266,-135.8 266,-135.8 266,-135.8 786.84,-135.8 786.84,-135.8"/>
<polygon fill="black" stroke="black" points="786.84,-139.3 796.84,-135.8 786.84,-132.3 786.84,-139.3"/>
</g>
<!-- TeamsRepo -->
<g id="node11" class="node">
<title>TeamsRepo</title>
<ellipse fill="#fdb462" stroke="black" cx="81" cy="-66.8" rx="57.32" ry="18"/>
<text text-anchor="middle" x="81" y="-62.6" font-family="Times,serif" font-size="14.00">TeamsRepo</text>
</g>
<!-- TeamsRepo&#45;&gt;CollaborativeStorageModule -->
<g id="edge10" class="edge">
<title>TeamsRepo&#45;&gt;CollaborativeStorageModule</title>
<path fill="none" stroke="black" d="M81,-84.81C81,-107.29 81,-142.8 81,-142.8 81,-142.8 786.78,-142.8 786.78,-142.8"/>
<polygon fill="black" stroke="black" points="786.78,-146.3 796.78,-142.8 786.78,-139.3 786.78,-146.3"/>
</g>
</g>
</svg>
