<?xml version="1.0" encoding="UTF-8" standalone="no"?>
<!DOCTYPE svg PUBLIC "-//W3C//DTD SVG 1.1//EN"
 "http://www.w3.org/Graphics/SVG/1.1/DTD/svg11.dtd">
<!-- Generated by graphviz version 2.47.0 (20210316.0004)
 -->
<!-- Title: dependencies Pages: 1 -->
<svg width="1665pt" height="284pt"
 viewBox="0.00 0.00 1665.00 284.00" xmlns="http://www.w3.org/2000/svg" xmlns:xlink="http://www.w3.org/1999/xlink">
<g id="graph0" class="graph" transform="scale(1 1) rotate(0) translate(4 280)">
<title>dependencies</title>
<polygon fill="white" stroke="transparent" points="-4,4 -4,-280 1661,-280 1661,4 -4,4"/>
<text text-anchor="start" x="807.51" y="-42.4" font-family="Times-12" font-weight="bold" font-size="14.00">Legend</text>
<polygon fill="#ffffb3" stroke="transparent" points="594.5,-10 594.5,-30 614.5,-30 614.5,-10 594.5,-10"/>
<text text-anchor="start" x="618.13" y="-15.4" font-family="Times-12" font-size="14.00"> &#160;Declarations</text>
<polygon fill="#8dd3c7" stroke="transparent" points="707.5,-10 707.5,-30 727.5,-30 727.5,-10 707.5,-10"/>
<text text-anchor="start" x="731.23" y="-15.4" font-family="Times-12" font-size="14.00"> &#160;Module</text>
<polygon fill="#80b1d3" stroke="transparent" points="793.5,-10 793.5,-30 813.5,-30 813.5,-10 793.5,-10"/>
<text text-anchor="start" x="817.28" y="-15.4" font-family="Times-12" font-size="14.00"> &#160;Bootstrap</text>
<polygon fill="#fdb462" stroke="transparent" points="890.5,-10 890.5,-30 910.5,-30 910.5,-10 890.5,-10"/>
<text text-anchor="start" x="914.17" y="-15.4" font-family="Times-12" font-size="14.00"> &#160;Providers</text>
<polygon fill="#fb8072" stroke="transparent" points="986.5,-10 986.5,-30 1006.5,-30 1006.5,-10 986.5,-10"/>
<text text-anchor="start" x="1010.23" y="-15.4" font-family="Times-12" font-size="14.00"> &#160;Exports</text>
<g id="clust1" class="cluster">
<title>cluster_CollaborativeStorageModule</title>
<polygon fill="none" stroke="black" stroke-dasharray="1,5" points="8,-70 8,-268 1649,-268 1649,-70 8,-70"/>
</g>
<g id="clust3" class="cluster">
<title>cluster_CollaborativeStorageModule_imports</title>
<polygon fill="none" stroke="black" points="1024,-78 1024,-130 1641,-130 1641,-78 1024,-78"/>
</g>
<g id="clust6" class="cluster">
<title>cluster_CollaborativeStorageModule_providers</title>
<polygon fill="none" stroke="black" points="16,-78 16,-130 1016,-130 1016,-78 16,-78"/>
</g>
<g id="clust4" class="cluster">
<title>cluster_CollaborativeStorageModule_exports</title>
<polygon fill="none" stroke="black" points="801,-208 801,-260 971,-260 971,-208 801,-208"/>
</g>
<!-- AuthorizationModule -->
<g id="node1" class="node">
<title>AuthorizationModule</title>
<polygon fill="#8dd3c7" stroke="black" points="1632.81,-122 1629.81,-126 1608.81,-126 1605.81,-122 1495.19,-122 1495.19,-86 1632.81,-86 1632.81,-122"/>
<text text-anchor="middle" x="1564" y="-99.8" font-family="Times,serif" font-size="14.00">AuthorizationModule</text>
</g>
<!-- CollaborativeStorageModule -->
<g id="node5" class="node">
<title>CollaborativeStorageModule</title>
<polygon fill="#8dd3c7" stroke="black" points="975.02,-187 972.02,-191 951.02,-191 948.02,-187 796.98,-187 796.98,-151 975.02,-151 975.02,-187"/>
<text text-anchor="middle" x="886" y="-164.8" font-family="Times,serif" font-size="14.00">CollaborativeStorageModule</text>
</g>
<!-- AuthorizationModule&#45;&gt;CollaborativeStorageModule -->
<g id="edge1" class="edge">
<title>AuthorizationModule&#45;&gt;CollaborativeStorageModule</title>
<path fill="none" stroke="black" d="M1564,-122.01C1564,-144.49 1564,-180 1564,-180 1564,-180 985.33,-180 985.33,-180"/>
<polygon fill="black" stroke="black" points="985.33,-176.5 975.33,-180 985.33,-183.5 985.33,-176.5"/>
</g>
<!-- CollaborativeStorageAdapterModule -->
<g id="node2" class="node">
<title>CollaborativeStorageAdapterModule</title>
<polygon fill="#8dd3c7" stroke="black" points="1477.6,-122 1474.6,-126 1453.6,-126 1450.6,-122 1254.4,-122 1254.4,-86 1477.6,-86 1477.6,-122"/>
<text text-anchor="middle" x="1366" y="-99.8" font-family="Times,serif" font-size="14.00">CollaborativeStorageAdapterModule</text>
</g>
<!-- CollaborativeStorageAdapterModule&#45;&gt;CollaborativeStorageModule -->
<g id="edge2" class="edge">
<title>CollaborativeStorageAdapterModule&#45;&gt;CollaborativeStorageModule</title>
<path fill="none" stroke="black" d="M1366,-122.13C1366,-142.57 1366,-173 1366,-173 1366,-173 985.16,-173 985.16,-173"/>
<polygon fill="black" stroke="black" points="985.16,-169.5 975.16,-173 985.16,-176.5 985.16,-169.5"/>
</g>
<!-- LoggerModule -->
<g id="node3" class="node">
<title>LoggerModule</title>
<polygon fill="#8dd3c7" stroke="black" points="1235.98,-122 1232.98,-126 1211.98,-126 1208.98,-122 1136.02,-122 1136.02,-86 1235.98,-86 1235.98,-122"/>
<text text-anchor="middle" x="1186" y="-99.8" font-family="Times,serif" font-size="14.00">LoggerModule</text>
</g>
<!-- LoggerModule&#45;&gt;CollaborativeStorageModule -->
<g id="edge3" class="edge">
<title>LoggerModule&#45;&gt;CollaborativeStorageModule</title>
<path fill="none" stroke="black" d="M1186,-122.27C1186,-140.56 1186,-166 1186,-166 1186,-166 985.2,-166 985.2,-166"/>
<polygon fill="black" stroke="black" points="985.2,-162.5 975.2,-166 985.2,-169.5 985.2,-162.5"/>
</g>
<!-- RoleModule -->
<g id="node4" class="node">
<title>RoleModule</title>
<polygon fill="#8dd3c7" stroke="black" points="1117.99,-122 1114.99,-126 1093.99,-126 1090.99,-122 1032.01,-122 1032.01,-86 1117.99,-86 1117.99,-122"/>
<text text-anchor="middle" x="1075" y="-99.8" font-family="Times,serif" font-size="14.00">RoleModule</text>
</g>
<!-- RoleModule&#45;&gt;CollaborativeStorageModule -->
<g id="edge4" class="edge">
<title>RoleModule&#45;&gt;CollaborativeStorageModule</title>
<path fill="none" stroke="black" d="M1075,-122.01C1075,-138.05 1075,-159 1075,-159 1075,-159 985.24,-159 985.24,-159"/>
<polygon fill="black" stroke="black" points="985.24,-155.5 975.24,-159 985.24,-162.5 985.24,-155.5"/>
</g>
<!-- CollaborativeStorageUc  -->
<g id="node6" class="node">
<title>CollaborativeStorageUc </title>
<polygon fill="#fb8072" stroke="black" points="963.29,-252 808.71,-252 808.71,-216 963.29,-216 963.29,-252"/>
<text text-anchor="middle" x="886" y="-229.8" font-family="Times,serif" font-size="14.00">CollaborativeStorageUc </text>
</g>
<!-- CollaborativeStorageModule&#45;&gt;CollaborativeStorageUc  -->
<g id="edge5" class="edge">
<title>CollaborativeStorageModule&#45;&gt;CollaborativeStorageUc </title>
<path fill="none" stroke="black" stroke-dasharray="5,2" d="M886,-187.11C886,-187.11 886,-205.99 886,-205.99"/>
<polygon fill="black" stroke="black" points="882.5,-205.99 886,-215.99 889.5,-205.99 882.5,-205.99"/>
</g>
<!-- CollaborativeStorageService -->
<g id="node7" class="node">
<title>CollaborativeStorageService</title>
<ellipse fill="#fdb462" stroke="black" cx="886" cy="-104" rx="122.11" ry="18"/>
<text text-anchor="middle" x="886" y="-99.8" font-family="Times,serif" font-size="14.00">CollaborativeStorageService</text>
</g>
<!-- CollaborativeStorageService&#45;&gt;CollaborativeStorageModule -->
<g id="edge6" class="edge">
<title>CollaborativeStorageService&#45;&gt;CollaborativeStorageModule</title>
<path fill="none" stroke="black" d="M886,-122.11C886,-122.11 886,-140.99 886,-140.99"/>
<polygon fill="black" stroke="black" points="882.5,-140.99 886,-150.99 889.5,-140.99 882.5,-140.99"/>
</g>
<!-- CollaborativeStorageUc -->
<g id="node8" class="node">
<title>CollaborativeStorageUc</title>
<ellipse fill="#fdb462" stroke="black" cx="642" cy="-104" rx="104.21" ry="18"/>
<text text-anchor="middle" x="642" y="-99.8" font-family="Times,serif" font-size="14.00">CollaborativeStorageUc</text>
</g>
<!-- CollaborativeStorageUc&#45;&gt;CollaborativeStorageModule -->
<g id="edge7" class="edge">
<title>CollaborativeStorageUc&#45;&gt;CollaborativeStorageModule</title>
<path fill="none" stroke="black" d="M642,-122.01C642,-138.05 642,-159 642,-159 642,-159 786.87,-159 786.87,-159"/>
<polygon fill="black" stroke="black" points="786.87,-162.5 796.87,-159 786.87,-155.5 786.87,-162.5"/>
</g>
<!-- TeamMapper -->
<g id="node9" class="node">
<title>TeamMapper</title>
<ellipse fill="#fdb462" stroke="black" cx="457" cy="-104" rx="63.1" ry="18"/>
<text text-anchor="middle" x="457" y="-99.8" font-family="Times,serif" font-size="14.00">TeamMapper</text>
</g>
<!-- TeamMapper&#45;&gt;CollaborativeStorageModule -->
<g id="edge8" class="edge">
<title>TeamMapper&#45;&gt;CollaborativeStorageModule</title>
<path fill="none" stroke="black" d="M457,-122.27C457,-140.56 457,-166 457,-166 457,-166 786.85,-166 786.85,-166"/>
<polygon fill="black" stroke="black" points="786.85,-169.5 796.85,-166 786.85,-162.5 786.85,-169.5"/>
</g>
<!-- TeamPermissionsMapper -->
<g id="node10" class="node">
<title>TeamPermissionsMapper</title>
<ellipse fill="#fdb462" stroke="black" cx="266" cy="-104" rx="109.95" ry="18"/>
<text text-anchor="middle" x="266" y="-99.8" font-family="Times,serif" font-size="14.00">TeamPermissionsMapper</text>
</g>
<!-- TeamPermissionsMapper&#45;&gt;CollaborativeStorageModule -->
<g id="edge9" class="edge">
<title>TeamPermissionsMapper&#45;&gt;CollaborativeStorageModule</title>
<path fill="none" stroke="black" d="M266,-122.13C266,-142.57 266,-173 266,-173 266,-173 786.84,-173 786.84,-173"/>
<polygon fill="black" stroke="black" points="786.84,-176.5 796.84,-173 786.84,-169.5 786.84,-176.5"/>
</g>
<!-- TeamsRepo -->
<g id="node11" class="node">
<title>TeamsRepo</title>
<ellipse fill="#fdb462" stroke="black" cx="81" cy="-104" rx="57.32" ry="18"/>
<text text-anchor="middle" x="81" y="-99.8" font-family="Times,serif" font-size="14.00">TeamsRepo</text>
</g>
<!-- TeamsRepo&#45;&gt;CollaborativeStorageModule -->
<g id="edge10" class="edge">
<title>TeamsRepo&#45;&gt;CollaborativeStorageModule</title>
<path fill="none" stroke="black" d="M81,-122.01C81,-144.49 81,-180 81,-180 81,-180 786.78,-180 786.78,-180"/>
<polygon fill="black" stroke="black" points="786.78,-183.5 796.78,-180 786.78,-176.5 786.78,-183.5"/>
</g>
</g>
</svg>
