<?xml version="1.0" encoding="UTF-8" standalone="no"?>
<!DOCTYPE svg PUBLIC "-//W3C//DTD SVG 1.1//EN"
 "http://www.w3.org/Graphics/SVG/1.1/DTD/svg11.dtd">
<!-- Generated by graphviz version 2.47.0 (20210316.0004)
 -->
<!-- Title: dependencies Pages: 1 -->
<svg width="580pt" height="284pt"
 viewBox="0.00 0.00 580.00 284.00" xmlns="http://www.w3.org/2000/svg" xmlns:xlink="http://www.w3.org/1999/xlink">
<g id="graph0" class="graph" transform="scale(1 1) rotate(0) translate(4 280)">
<title>dependencies</title>
<polygon fill="white" stroke="transparent" points="-4,4 -4,-280 576,-280 576,4 -4,4"/>
<text text-anchor="start" x="265.01" y="-42.4" font-family="Times-12" font-weight="bold" font-size="14.00">Legend</text>
<polygon fill="#ffffb3" stroke="transparent" points="52,-10 52,-30 72,-30 72,-10 52,-10"/>
<text text-anchor="start" x="75.63" y="-15.4" font-family="Times-12" font-size="14.00"> &#160;Declarations</text>
<polygon fill="#8dd3c7" stroke="transparent" points="165,-10 165,-30 185,-30 185,-10 165,-10"/>
<text text-anchor="start" x="188.73" y="-15.4" font-family="Times-12" font-size="14.00"> &#160;Module</text>
<polygon fill="#80b1d3" stroke="transparent" points="251,-10 251,-30 271,-30 271,-10 251,-10"/>
<text text-anchor="start" x="274.78" y="-15.4" font-family="Times-12" font-size="14.00"> &#160;Bootstrap</text>
<polygon fill="#fdb462" stroke="transparent" points="348,-10 348,-30 368,-30 368,-10 348,-10"/>
<text text-anchor="start" x="371.67" y="-15.4" font-family="Times-12" font-size="14.00"> &#160;Providers</text>
<polygon fill="#fb8072" stroke="transparent" points="444,-10 444,-30 464,-30 464,-10 444,-10"/>
<text text-anchor="start" x="467.73" y="-15.4" font-family="Times-12" font-size="14.00"> &#160;Exports</text>
<g id="clust1" class="cluster">
<title>cluster_SynchronizationModule</title>
<polygon fill="none" stroke="black" stroke-dasharray="1,5" points="8,-70 8,-268 564,-268 564,-70 8,-70"/>
</g>
<g id="clust4" class="cluster">
<title>cluster_SynchronizationModule_exports</title>
<polygon fill="none" stroke="black" points="152,-208 152,-260 322,-260 322,-208 152,-208"/>
</g>
<g id="clust6" class="cluster">
<title>cluster_SynchronizationModule_providers</title>
<polygon fill="none" stroke="black" points="126,-78 126,-130 556,-130 556,-78 126,-78"/>
</g>
<g id="clust3" class="cluster">
<title>cluster_SynchronizationModule_imports</title>
<polygon fill="none" stroke="black" points="16,-78 16,-130 118,-130 118,-78 16,-78"/>
</g>
<!-- UserModule -->
<g id="node1" class="node">
<title>UserModule</title>
<polygon fill="#8dd3c7" stroke="black" points="109.98,-122 106.98,-126 85.98,-126 82.98,-122 24.02,-122 24.02,-86 109.98,-86 109.98,-122"/>
<text text-anchor="middle" x="67" y="-99.8" font-family="Times,serif" font-size="14.00">UserModule</text>
</g>
<!-- SynchronizationModule -->
<g id="node2" class="node">
<title>SynchronizationModule</title>
<polygon fill="#8dd3c7" stroke="black" points="312.81,-187 309.81,-191 288.81,-191 285.81,-187 161.19,-187 161.19,-151 312.81,-151 312.81,-187"/>
<text text-anchor="middle" x="237" y="-164.8" font-family="Times,serif" font-size="14.00">SynchronizationModule</text>
</g>
<!-- UserModule&#45;&gt;SynchronizationModule -->
<g id="edge1" class="edge">
<title>UserModule&#45;&gt;SynchronizationModule</title>
<path fill="none" stroke="black" d="M67,-122.11C67,-141.34 67,-169 67,-169 67,-169 150.95,-169 150.95,-169"/>
<polygon fill="black" stroke="black" points="150.95,-172.5 160.95,-169 150.95,-165.5 150.95,-172.5"/>
</g>
<!-- SynchronizationService  -->
<g id="node3" class="node">
<title>SynchronizationService </title>
<polygon fill="#fb8072" stroke="black" points="313.74,-252 160.26,-252 160.26,-216 313.74,-216 313.74,-252"/>
<text text-anchor="middle" x="237" y="-229.8" font-family="Times,serif" font-size="14.00">SynchronizationService </text>
</g>
<!-- SynchronizationModule&#45;&gt;SynchronizationService  -->
<g id="edge2" class="edge">
<title>SynchronizationModule&#45;&gt;SynchronizationService </title>
<path fill="none" stroke="black" stroke-dasharray="5,2" d="M237,-187.11C237,-187.11 237,-205.99 237,-205.99"/>
<polygon fill="black" stroke="black" points="233.5,-205.99 237,-215.99 240.5,-205.99 233.5,-205.99"/>
</g>
<!-- SynchronizationRepo -->
<g id="node4" class="node">
<title>SynchronizationRepo</title>
<ellipse fill="#fdb462" stroke="black" cx="453" cy="-104" rx="94.93" ry="18"/>
<text text-anchor="middle" x="453" y="-99.8" font-family="Times,serif" font-size="14.00">SynchronizationRepo</text>
</g>
<!-- SynchronizationRepo&#45;&gt;SynchronizationModule -->
<g id="edge3" class="edge">
<title>SynchronizationRepo&#45;&gt;SynchronizationModule</title>
<path fill="none" stroke="black" d="M453,-122.11C453,-141.34 453,-169 453,-169 453,-169 322.85,-169 322.85,-169"/>
<polygon fill="black" stroke="black" points="322.85,-165.5 312.85,-169 322.85,-172.5 322.85,-165.5"/>
</g>
<!-- SynchronizationService -->
<g id="node5" class="node">
<title>SynchronizationService</title>
<ellipse fill="#fdb462" stroke="black" cx="237" cy="-104" rx="103.07" ry="18"/>
<text text-anchor="middle" x="237" y="-99.8" font-family="Times,serif" font-size="14.00">SynchronizationService</text>
</g>
<!-- SynchronizationService&#45;&gt;SynchronizationModule -->
<g id="edge4" class="edge">
<title>SynchronizationService&#45;&gt;SynchronizationModule</title>
<path fill="none" stroke="black" d="M237,-122.11C237,-122.11 237,-140.99 237,-140.99"/>
<polygon fill="black" stroke="black" points="233.5,-140.99 237,-150.99 240.5,-140.99 233.5,-140.99"/>
</g>
</g>
</svg>
