<?xml version="1.0" encoding="UTF-8" standalone="no"?>
<!DOCTYPE svg PUBLIC "-//W3C//DTD SVG 1.1//EN"
 "http://www.w3.org/Graphics/SVG/1.1/DTD/svg11.dtd">
<!-- Generated by graphviz version 2.47.0 (20210316.0004)
 -->
<!-- Title: dependencies Pages: 1 -->
<svg width="580pt" height="284pt"
 viewBox="0.00 0.00 580.00 284.00" xmlns="http://www.w3.org/2000/svg" xmlns:xlink="http://www.w3.org/1999/xlink">
<g id="graph0" class="graph" transform="scale(1 1) rotate(0) translate(4 280)">
<title>dependencies</title>
<polygon fill="white" stroke="transparent" points="-4,4 -4,-280 576,-280 576,4 -4,4"/>
<text text-anchor="start" x="265.01" y="-42.4" font-family="Times-12" font-weight="bold" font-size="14.00">Legend</text>
<polygon fill="#ffffb3" stroke="transparent" points="52,-10 52,-30 72,-30 72,-10 52,-10"/>
<text text-anchor="start" x="75.63" y="-15.4" font-family="Times-12" font-size="14.00"> &#160;Declarations</text>
<polygon fill="#8dd3c7" stroke="transparent" points="165,-10 165,-30 185,-30 185,-10 165,-10"/>
<text text-anchor="start" x="188.73" y="-15.4" font-family="Times-12" font-size="14.00"> &#160;Module</text>
<polygon fill="#80b1d3" stroke="transparent" points="251,-10 251,-30 271,-30 271,-10 251,-10"/>
<text text-anchor="start" x="274.78" y="-15.4" font-family="Times-12" font-size="14.00"> &#160;Bootstrap</text>
<polygon fill="#fdb462" stroke="transparent" points="348,-10 348,-30 368,-30 368,-10 348,-10"/>
<text text-anchor="start" x="371.67" y="-15.4" font-family="Times-12" font-size="14.00"> &#160;Providers</text>
<polygon fill="#fb8072" stroke="transparent" points="444,-10 444,-30 464,-30 464,-10 444,-10"/>
<text text-anchor="start" x="467.73" y="-15.4" font-family="Times-12" font-size="14.00"> &#160;Exports</text>
<g id="clust1" class="cluster">
<title>cluster_SynchronizationModule</title>
<polygon fill="none" stroke="black" stroke-dasharray="1,5" points="8,-70 8,-268 564,-268 564,-70 8,-70"/>
</g>
<g id="clust4" class="cluster">
<title>cluster_SynchronizationModule_exports</title>
<polygon fill="none" stroke="black" points="258,-208 258,-260 428,-260 428,-208 258,-208"/>
</g>
<g id="clust3" class="cluster">
<title>cluster_SynchronizationModule_imports</title>
<polygon fill="none" stroke="black" points="454,-78 454,-130 556,-130 556,-78 454,-78"/>
</g>
<g id="clust6" class="cluster">
<title>cluster_SynchronizationModule_providers</title>
<polygon fill="none" stroke="black" points="16,-78 16,-130 446,-130 446,-78 16,-78"/>
</g>
<!-- UserModule -->
<g id="node1" class="node">
<title>UserModule</title>
<polygon fill="#8dd3c7" stroke="black" points="547.98,-122 544.98,-126 523.98,-126 520.98,-122 462.02,-122 462.02,-86 547.98,-86 547.98,-122"/>
<text text-anchor="middle" x="505" y="-99.8" font-family="Times,serif" font-size="14.00">UserModule</text>
</g>
<!-- SynchronizationModule -->
<g id="node2" class="node">
<title>SynchronizationModule</title>
<polygon fill="#8dd3c7" stroke="black" points="418.81,-187 415.81,-191 394.81,-191 391.81,-187 267.19,-187 267.19,-151 418.81,-151 418.81,-187"/>
<text text-anchor="middle" x="343" y="-164.8" font-family="Times,serif" font-size="14.00">SynchronizationModule</text>
</g>
<!-- UserModule&#45;&gt;SynchronizationModule -->
<g id="edge1" class="edge">
<title>UserModule&#45;&gt;SynchronizationModule</title>
<path fill="none" stroke="black" d="M505,-122.11C505,-141.34 505,-169 505,-169 505,-169 428.78,-169 428.78,-169"/>
<polygon fill="black" stroke="black" points="428.78,-165.5 418.78,-169 428.78,-172.5 428.78,-165.5"/>
</g>
<!-- SynchronizationService  -->
<g id="node3" class="node">
<title>SynchronizationService </title>
<polygon fill="#fb8072" stroke="black" points="419.74,-252 266.26,-252 266.26,-216 419.74,-216 419.74,-252"/>
<text text-anchor="middle" x="343" y="-229.8" font-family="Times,serif" font-size="14.00">SynchronizationService </text>
</g>
<!-- SynchronizationModule&#45;&gt;SynchronizationService  -->
<g id="edge2" class="edge">
<title>SynchronizationModule&#45;&gt;SynchronizationService </title>
<path fill="none" stroke="black" stroke-dasharray="5,2" d="M343,-187.11C343,-187.11 343,-205.99 343,-205.99"/>
<polygon fill="black" stroke="black" points="339.5,-205.99 343,-215.99 346.5,-205.99 339.5,-205.99"/>
</g>
<!-- SynchronizationRepo -->
<g id="node4" class="node">
<title>SynchronizationRepo</title>
<ellipse fill="#fdb462" stroke="black" cx="343" cy="-104" rx="94.93" ry="18"/>
<text text-anchor="middle" x="343" y="-99.8" font-family="Times,serif" font-size="14.00">SynchronizationRepo</text>
</g>
<!-- SynchronizationRepo&#45;&gt;SynchronizationModule -->
<g id="edge3" class="edge">
<title>SynchronizationRepo&#45;&gt;SynchronizationModule</title>
<path fill="none" stroke="black" d="M343,-122.11C343,-122.11 343,-140.99 343,-140.99"/>
<polygon fill="black" stroke="black" points="339.5,-140.99 343,-150.99 346.5,-140.99 339.5,-140.99"/>
</g>
<!-- SynchronizationService -->
<g id="node5" class="node">
<title>SynchronizationService</title>
<ellipse fill="#fdb462" stroke="black" cx="127" cy="-104" rx="103.07" ry="18"/>
<text text-anchor="middle" x="127" y="-99.8" font-family="Times,serif" font-size="14.00">SynchronizationService</text>
</g>
<!-- SynchronizationService&#45;&gt;SynchronizationModule -->
<g id="edge4" class="edge">
<title>SynchronizationService&#45;&gt;SynchronizationModule</title>
<path fill="none" stroke="black" d="M127,-122.11C127,-141.34 127,-169 127,-169 127,-169 257.15,-169 257.15,-169"/>
<polygon fill="black" stroke="black" points="257.15,-172.5 267.15,-169 257.15,-165.5 257.15,-172.5"/>
</g>
</g>
</svg>
