<?xml version="1.0" encoding="UTF-8" standalone="no"?>
<!DOCTYPE svg PUBLIC "-//W3C//DTD SVG 1.1//EN"
 "http://www.w3.org/Graphics/SVG/1.1/DTD/svg11.dtd">
<!-- Generated by graphviz version 2.47.0 (20210316.0004)
 -->
<!-- Title: dependencies Pages: 1 -->
<svg width="778pt" height="211pt"
 viewBox="0.00 0.00 778.00 211.00" xmlns="http://www.w3.org/2000/svg" xmlns:xlink="http://www.w3.org/1999/xlink">
<g id="graph0" class="graph" transform="scale(1 1) rotate(0) translate(4 207)">
<title>dependencies</title>
<polygon fill="white" stroke="transparent" points="-4,4 -4,-207 774,-207 774,4 -4,4"/>
<text text-anchor="start" x="364.01" y="-42.4" font-family="Times-12" font-weight="bold" font-size="14.00">Legend</text>
<polygon fill="#ffffb3" stroke="transparent" points="151,-10 151,-30 171,-30 171,-10 151,-10"/>
<text text-anchor="start" x="174.63" y="-15.4" font-family="Times-12" font-size="14.00"> &#160;Declarations</text>
<polygon fill="#8dd3c7" stroke="transparent" points="264,-10 264,-30 284,-30 284,-10 264,-10"/>
<text text-anchor="start" x="287.73" y="-15.4" font-family="Times-12" font-size="14.00"> &#160;Module</text>
<polygon fill="#80b1d3" stroke="transparent" points="350,-10 350,-30 370,-30 370,-10 350,-10"/>
<text text-anchor="start" x="373.78" y="-15.4" font-family="Times-12" font-size="14.00"> &#160;Bootstrap</text>
<polygon fill="#fdb462" stroke="transparent" points="447,-10 447,-30 467,-30 467,-10 447,-10"/>
<text text-anchor="start" x="470.67" y="-15.4" font-family="Times-12" font-size="14.00"> &#160;Providers</text>
<polygon fill="#fb8072" stroke="transparent" points="543,-10 543,-30 563,-30 563,-10 543,-10"/>
<text text-anchor="start" x="566.73" y="-15.4" font-family="Times-12" font-size="14.00"> &#160;Exports</text>
<g id="clust1" class="cluster">
<title>cluster_CollaborativeTextEditorApiModule</title>
<polygon fill="none" stroke="black" stroke-dasharray="1,5" points="8,-70 8,-195 762,-195 762,-70 8,-70"/>
</g>
<g id="clust6" class="cluster">
<title>cluster_CollaborativeTextEditorApiModule_providers</title>
<polygon fill="none" stroke="black" points="504,-78 504,-130 754,-130 754,-78 504,-78"/>
</g>
<g id="clust3" class="cluster">
<title>cluster_CollaborativeTextEditorApiModule_imports</title>
<polygon fill="none" stroke="black" points="16,-78 16,-130 496,-130 496,-78 16,-78"/>
</g>
<!-- AuthorizationModule -->
<g id="node1" class="node">
<title>AuthorizationModule</title>
<polygon fill="#8dd3c7" stroke="black" points="487.81,-122 484.81,-126 463.81,-126 460.81,-122 350.19,-122 350.19,-86 487.81,-86 487.81,-122"/>
<text text-anchor="middle" x="419" y="-99.8" font-family="Times,serif" font-size="14.00">AuthorizationModule</text>
</g>
<!-- CollaborativeTextEditorApiModule -->
<g id="node4" class="node">
<title>CollaborativeTextEditorApiModule</title>
<polygon fill="#8dd3c7" stroke="black" points="460.9,-187 457.9,-191 436.9,-191 433.9,-187 243.1,-187 243.1,-151 460.9,-151 460.9,-187"/>
<text text-anchor="middle" x="352" y="-164.8" font-family="Times,serif" font-size="14.00">CollaborativeTextEditorApiModule</text>
</g>
<!-- AuthorizationModule&#45;&gt;CollaborativeTextEditorApiModule -->
<g id="edge1" class="edge">
<title>AuthorizationModule&#45;&gt;CollaborativeTextEditorApiModule</title>
<path fill="none" stroke="black" d="M405.52,-122.11C405.52,-122.11 405.52,-140.99 405.52,-140.99"/>
<polygon fill="black" stroke="black" points="402.02,-140.99 405.52,-150.99 409.02,-140.99 402.02,-140.99"/>
</g>
<!-- BoardModule -->
<g id="node2" class="node">
<title>BoardModule</title>
<polygon fill="#8dd3c7" stroke="black" points="331.76,-122 328.76,-126 307.76,-126 304.76,-122 238.24,-122 238.24,-86 331.76,-86 331.76,-122"/>
<text text-anchor="middle" x="285" y="-99.8" font-family="Times,serif" font-size="14.00">BoardModule</text>
</g>
<!-- BoardModule&#45;&gt;CollaborativeTextEditorApiModule -->
<g id="edge2" class="edge">
<title>BoardModule&#45;&gt;CollaborativeTextEditorApiModule</title>
<path fill="none" stroke="black" d="M287.59,-122.11C287.59,-122.11 287.59,-140.99 287.59,-140.99"/>
<polygon fill="black" stroke="black" points="284.09,-140.99 287.59,-150.99 291.09,-140.99 284.09,-140.99"/>
</g>
<!-- CollaborativeTextEditorModule -->
<g id="node3" class="node">
<title>CollaborativeTextEditorModule</title>
<polygon fill="#8dd3c7" stroke="black" points="220.41,-122 217.41,-126 196.41,-126 193.41,-122 23.59,-122 23.59,-86 220.41,-86 220.41,-122"/>
<text text-anchor="middle" x="122" y="-99.8" font-family="Times,serif" font-size="14.00">CollaborativeTextEditorModule</text>
</g>
<!-- CollaborativeTextEditorModule&#45;&gt;CollaborativeTextEditorApiModule -->
<g id="edge3" class="edge">
<title>CollaborativeTextEditorModule&#45;&gt;CollaborativeTextEditorApiModule</title>
<path fill="none" stroke="black" d="M122,-122.11C122,-141.34 122,-169 122,-169 122,-169 233.06,-169 233.06,-169"/>
<polygon fill="black" stroke="black" points="233.06,-172.5 243.06,-169 233.06,-165.5 233.06,-172.5"/>
</g>
<!-- CollaborativeTextEditorUc -->
<g id="node5" class="node">
<title>CollaborativeTextEditorUc</title>
<ellipse fill="#fdb462" stroke="black" cx="629" cy="-104" rx="116.89" ry="18"/>
<text text-anchor="middle" x="629" y="-99.8" font-family="Times,serif" font-size="14.00">CollaborativeTextEditorUc</text>
</g>
<!-- CollaborativeTextEditorUc&#45;&gt;CollaborativeTextEditorApiModule -->
<g id="edge4" class="edge">
<title>CollaborativeTextEditorUc&#45;&gt;CollaborativeTextEditorApiModule</title>
<path fill="none" stroke="black" d="M629,-122.11C629,-141.34 629,-169 629,-169 629,-169 471.08,-169 471.08,-169"/>
<polygon fill="black" stroke="black" points="471.08,-165.5 461.08,-169 471.08,-172.5 471.08,-165.5"/>
</g>
</g>
</svg>
