<?xml version="1.0" encoding="UTF-8" standalone="no"?>
<!DOCTYPE svg PUBLIC "-//W3C//DTD SVG 1.1//EN"
 "http://www.w3.org/Graphics/SVG/1.1/DTD/svg11.dtd">
<!-- Generated by graphviz version 2.47.0 (20210316.0004)
 -->
<!-- Title: dependencies Pages: 1 -->
<svg width="778pt" height="211pt"
 viewBox="0.00 0.00 778.00 211.00" xmlns="http://www.w3.org/2000/svg" xmlns:xlink="http://www.w3.org/1999/xlink">
<g id="graph0" class="graph" transform="scale(1 1) rotate(0) translate(4 207)">
<title>dependencies</title>
<polygon fill="white" stroke="transparent" points="-4,4 -4,-207 774,-207 774,4 -4,4"/>
<text text-anchor="start" x="364.01" y="-42.4" font-family="Times-12" font-weight="bold" font-size="14.00">Legend</text>
<polygon fill="#ffffb3" stroke="transparent" points="151,-10 151,-30 171,-30 171,-10 151,-10"/>
<text text-anchor="start" x="174.63" y="-15.4" font-family="Times-12" font-size="14.00"> &#160;Declarations</text>
<polygon fill="#8dd3c7" stroke="transparent" points="264,-10 264,-30 284,-30 284,-10 264,-10"/>
<text text-anchor="start" x="287.73" y="-15.4" font-family="Times-12" font-size="14.00"> &#160;Module</text>
<polygon fill="#80b1d3" stroke="transparent" points="350,-10 350,-30 370,-30 370,-10 350,-10"/>
<text text-anchor="start" x="373.78" y="-15.4" font-family="Times-12" font-size="14.00"> &#160;Bootstrap</text>
<polygon fill="#fdb462" stroke="transparent" points="447,-10 447,-30 467,-30 467,-10 447,-10"/>
<text text-anchor="start" x="470.67" y="-15.4" font-family="Times-12" font-size="14.00"> &#160;Providers</text>
<polygon fill="#fb8072" stroke="transparent" points="543,-10 543,-30 563,-30 563,-10 543,-10"/>
<text text-anchor="start" x="566.73" y="-15.4" font-family="Times-12" font-size="14.00"> &#160;Exports</text>
<g id="clust1" class="cluster">
<title>cluster_CollaborativeTextEditorApiModule</title>
<polygon fill="none" stroke="black" stroke-dasharray="1,5" points="8,-70 8,-195 762,-195 762,-70 8,-70"/>
</g>
<g id="clust3" class="cluster">
<title>cluster_CollaborativeTextEditorApiModule_imports</title>
<polygon fill="none" stroke="black" points="274,-78 274,-130 754,-130 754,-78 274,-78"/>
</g>
<g id="clust6" class="cluster">
<title>cluster_CollaborativeTextEditorApiModule_providers</title>
<polygon fill="none" stroke="black" points="16,-78 16,-130 266,-130 266,-78 16,-78"/>
</g>
<!-- AuthorizationModule -->
<g id="node1" class="node">
<title>AuthorizationModule</title>
<polygon fill="#8dd3c7" stroke="black" points="745.81,-122 742.81,-126 721.81,-126 718.81,-122 608.19,-122 608.19,-86 745.81,-86 745.81,-122"/>
<text text-anchor="middle" x="677" y="-99.8" font-family="Times,serif" font-size="14.00">AuthorizationModule</text>
</g>
<!-- CollaborativeTextEditorApiModule -->
<g id="node4" class="node">
<title>CollaborativeTextEditorApiModule</title>
<polygon fill="#8dd3c7" stroke="black" points="569.9,-187 566.9,-191 545.9,-191 542.9,-187 352.1,-187 352.1,-151 569.9,-151 569.9,-187"/>
<text text-anchor="middle" x="461" y="-164.8" font-family="Times,serif" font-size="14.00">CollaborativeTextEditorApiModule</text>
</g>
<!-- AuthorizationModule&#45;&gt;CollaborativeTextEditorApiModule -->
<g id="edge1" class="edge">
<title>AuthorizationModule&#45;&gt;CollaborativeTextEditorApiModule</title>
<path fill="none" stroke="black" d="M677,-122.11C677,-141.34 677,-169 677,-169 677,-169 579.95,-169 579.95,-169"/>
<polygon fill="black" stroke="black" points="579.95,-165.5 569.95,-169 579.95,-172.5 579.95,-165.5"/>
</g>
<!-- BoardModule -->
<g id="node2" class="node">
<title>BoardModule</title>
<polygon fill="#8dd3c7" stroke="black" points="589.76,-122 586.76,-126 565.76,-126 562.76,-122 496.24,-122 496.24,-86 589.76,-86 589.76,-122"/>
<text text-anchor="middle" x="543" y="-99.8" font-family="Times,serif" font-size="14.00">BoardModule</text>
</g>
<!-- BoardModule&#45;&gt;CollaborativeTextEditorApiModule -->
<g id="edge2" class="edge">
<title>BoardModule&#45;&gt;CollaborativeTextEditorApiModule</title>
<path fill="none" stroke="black" d="M532.91,-122.11C532.91,-122.11 532.91,-140.99 532.91,-140.99"/>
<polygon fill="black" stroke="black" points="529.41,-140.99 532.91,-150.99 536.41,-140.99 529.41,-140.99"/>
</g>
<!-- CollaborativeTextEditorModule -->
<g id="node3" class="node">
<title>CollaborativeTextEditorModule</title>
<polygon fill="#8dd3c7" stroke="black" points="478.41,-122 475.41,-126 454.41,-126 451.41,-122 281.59,-122 281.59,-86 478.41,-86 478.41,-122"/>
<text text-anchor="middle" x="380" y="-99.8" font-family="Times,serif" font-size="14.00">CollaborativeTextEditorModule</text>
</g>
<!-- CollaborativeTextEditorModule&#45;&gt;CollaborativeTextEditorApiModule -->
<g id="edge3" class="edge">
<title>CollaborativeTextEditorModule&#45;&gt;CollaborativeTextEditorApiModule</title>
<path fill="none" stroke="black" d="M415.25,-122.11C415.25,-122.11 415.25,-140.99 415.25,-140.99"/>
<polygon fill="black" stroke="black" points="411.75,-140.99 415.25,-150.99 418.75,-140.99 411.75,-140.99"/>
</g>
<!-- CollaborativeTextEditorUc -->
<g id="node5" class="node">
<title>CollaborativeTextEditorUc</title>
<ellipse fill="#fdb462" stroke="black" cx="141" cy="-104" rx="116.89" ry="18"/>
<text text-anchor="middle" x="141" y="-99.8" font-family="Times,serif" font-size="14.00">CollaborativeTextEditorUc</text>
</g>
<!-- CollaborativeTextEditorUc&#45;&gt;CollaborativeTextEditorApiModule -->
<g id="edge4" class="edge">
<title>CollaborativeTextEditorUc&#45;&gt;CollaborativeTextEditorApiModule</title>
<path fill="none" stroke="black" d="M141,-122.11C141,-141.34 141,-169 141,-169 141,-169 342.22,-169 342.22,-169"/>
<polygon fill="black" stroke="black" points="342.22,-172.5 352.22,-169 342.22,-165.5 342.22,-172.5"/>
</g>
</g>
</svg>
