<?xml version="1.0" encoding="UTF-8" standalone="no"?>
<!DOCTYPE svg PUBLIC "-//W3C//DTD SVG 1.1//EN"
 "http://www.w3.org/Graphics/SVG/1.1/DTD/svg11.dtd">
<!-- Generated by graphviz version 5.0.0 (20220707.1540)
 -->
<!-- Title: dependencies Pages: 1 -->
<svg width="560pt" height="174pt"
 viewBox="0.00 0.00 560.00 173.80" xmlns="http://www.w3.org/2000/svg" xmlns:xlink="http://www.w3.org/1999/xlink">
<g id="graph0" class="graph" transform="scale(1 1) rotate(0) translate(4 169.8)">
<title>dependencies</title>
<polygon fill="white" stroke="transparent" points="-4,4 -4,-169.8 556,-169.8 556,4 -4,4"/>
<text text-anchor="middle" x="276" y="-8.2" font-family="sans-serif" font-size="14.00">dependencies</text>
<g id="clust1" class="cluster">
<title>cluster_H5PEditorModule</title>
<polygon fill="none" stroke="black" stroke-dasharray="1,5" points="8,-32.8 8,-157.8 544,-157.8 544,-32.8 8,-32.8"/>
</g>
<g id="clust3" class="cluster">
<title>cluster_H5PEditorModule_imports</title>
<polygon fill="none" stroke="black" points="118,-40.8 118,-92.8 536,-92.8 536,-40.8 118,-40.8"/>
</g>
<g id="clust6" class="cluster">
<title>cluster_H5PEditorModule_providers</title>
<polygon fill="none" stroke="black" points="16,-40.8 16,-92.8 110,-92.8 110,-40.8 16,-40.8"/>
</g>
<!-- AuthenticationModule -->
<g id="node1" class="node">
<title>AuthenticationModule</title>
<polygon fill="#8dd3c7" stroke="black" points="528.25,-84.8 525.25,-88.8 504.25,-88.8 501.25,-84.8 385.75,-84.8 385.75,-48.8 528.25,-48.8 528.25,-84.8"/>
<text text-anchor="middle" x="457" y="-62.6" font-family="Times,serif" font-size="14.00">AuthenticationModule</text>
</g>
<!-- H5PEditorModule -->
<g id="node4" class="node">
<title>H5PEditorModule</title>
<polygon fill="#8dd3c7" stroke="black" points="293.94,-149.8 290.94,-153.8 269.94,-153.8 266.94,-149.8 174.06,-149.8 174.06,-113.8 293.94,-113.8 293.94,-149.8"/>
<text text-anchor="middle" x="234" y="-127.6" font-family="Times,serif" font-size="14.00">H5PEditorModule</text>
</g>
<!-- AuthenticationModule&#45;&gt;H5PEditorModule -->
<g id="edge1" class="edge">
<title>AuthenticationModule&#45;&gt;H5PEditorModule</title>
<path fill="none" stroke="black" d="M457,-84.91C457,-104.14 457,-131.8 457,-131.8 457,-131.8 303.76,-131.8 303.76,-131.8"/>
<polygon fill="black" stroke="black" points="303.76,-128.3 293.76,-131.8 303.76,-135.3 303.76,-128.3"/>
</g>
<!-- AuthorizationModule -->
<g id="node2" class="node">
<title>AuthorizationModule</title>
<polygon fill="#8dd3c7" stroke="black" points="367.81,-84.8 364.81,-88.8 343.81,-88.8 340.81,-84.8 230.19,-84.8 230.19,-48.8 367.81,-48.8 367.81,-84.8"/>
<text text-anchor="middle" x="299" y="-62.6" font-family="Times,serif" font-size="14.00">AuthorizationModule</text>
</g>
<!-- AuthorizationModule&#45;&gt;H5PEditorModule -->
<g id="edge2" class="edge">
<title>AuthorizationModule&#45;&gt;H5PEditorModule</title>
<path fill="none" stroke="black" d="M262.03,-84.91C262.03,-84.91 262.03,-103.79 262.03,-103.79"/>
<polygon fill="black" stroke="black" points="258.53,-103.79 262.03,-113.79 265.53,-103.79 258.53,-103.79"/>
</g>
<!-- CoreModule -->
<g id="node3" class="node">
<title>CoreModule</title>
<polygon fill="#8dd3c7" stroke="black" points="212.27,-84.8 209.27,-88.8 188.27,-88.8 185.27,-84.8 125.73,-84.8 125.73,-48.8 212.27,-48.8 212.27,-84.8"/>
<text text-anchor="middle" x="169" y="-62.6" font-family="Times,serif" font-size="14.00">CoreModule</text>
</g>
<!-- CoreModule&#45;&gt;H5PEditorModule -->
<g id="edge3" class="edge">
<title>CoreModule&#45;&gt;H5PEditorModule</title>
<path fill="none" stroke="black" d="M193.33,-84.91C193.33,-84.91 193.33,-103.79 193.33,-103.79"/>
<polygon fill="black" stroke="black" points="189.83,-103.79 193.33,-113.79 196.83,-103.79 189.83,-103.79"/>
</g>
<!-- Logger -->
<g id="node5" class="node">
<title>Logger</title>
<ellipse fill="#fdb462" stroke="black" cx="63" cy="-66.8" rx="38.85" ry="18"/>
<text text-anchor="middle" x="63" y="-62.6" font-family="Times,serif" font-size="14.00">Logger</text>
</g>
<!-- Logger&#45;&gt;H5PEditorModule -->
<g id="edge4" class="edge">
<title>Logger&#45;&gt;H5PEditorModule</title>
<path fill="none" stroke="black" d="M63,-84.91C63,-104.14 63,-131.8 63,-131.8 63,-131.8 164.19,-131.8 164.19,-131.8"/>
<polygon fill="black" stroke="black" points="164.19,-135.3 174.19,-131.8 164.19,-128.3 164.19,-135.3"/>
</g>
</g>
</svg>
