<?xml version="1.0" encoding="UTF-8" standalone="no"?>
<!DOCTYPE svg PUBLIC "-//W3C//DTD SVG 1.1//EN"
 "http://www.w3.org/Graphics/SVG/1.1/DTD/svg11.dtd">
<!-- Generated by graphviz version 2.47.0 (20210316.0004)
 -->
<!-- Title: dependencies Pages: 1 -->
<svg width="560pt" height="211pt"
 viewBox="0.00 0.00 560.00 211.00" xmlns="http://www.w3.org/2000/svg" xmlns:xlink="http://www.w3.org/1999/xlink">
<g id="graph0" class="graph" transform="scale(1 1) rotate(0) translate(4 207)">
<title>dependencies</title>
<polygon fill="white" stroke="transparent" points="-4,4 -4,-207 556,-207 556,4 -4,4"/>
<text text-anchor="start" x="255.01" y="-42.4" font-family="Times-12" font-weight="bold" font-size="14.00">Legend</text>
<polygon fill="#ffffb3" stroke="transparent" points="42,-10 42,-30 62,-30 62,-10 42,-10"/>
<text text-anchor="start" x="65.63" y="-15.4" font-family="Times-12" font-size="14.00"> &#160;Declarations</text>
<polygon fill="#8dd3c7" stroke="transparent" points="155,-10 155,-30 175,-30 175,-10 155,-10"/>
<text text-anchor="start" x="178.73" y="-15.4" font-family="Times-12" font-size="14.00"> &#160;Module</text>
<polygon fill="#80b1d3" stroke="transparent" points="241,-10 241,-30 261,-30 261,-10 241,-10"/>
<text text-anchor="start" x="264.78" y="-15.4" font-family="Times-12" font-size="14.00"> &#160;Bootstrap</text>
<polygon fill="#fdb462" stroke="transparent" points="338,-10 338,-30 358,-30 358,-10 338,-10"/>
<text text-anchor="start" x="361.67" y="-15.4" font-family="Times-12" font-size="14.00"> &#160;Providers</text>
<polygon fill="#fb8072" stroke="transparent" points="434,-10 434,-30 454,-30 454,-10 434,-10"/>
<text text-anchor="start" x="457.73" y="-15.4" font-family="Times-12" font-size="14.00"> &#160;Exports</text>
<g id="clust1" class="cluster">
<title>cluster_H5PEditorModule</title>
<polygon fill="none" stroke="black" stroke-dasharray="1,5" points="8,-70 8,-195 544,-195 544,-70 8,-70"/>
</g>
<g id="clust3" class="cluster">
<title>cluster_H5PEditorModule_imports</title>
<polygon fill="none" stroke="black" points="118,-78 118,-130 536,-130 536,-78 118,-78"/>
</g>
<g id="clust6" class="cluster">
<title>cluster_H5PEditorModule_providers</title>
<polygon fill="none" stroke="black" points="16,-78 16,-130 110,-130 110,-78 16,-78"/>
</g>
<!-- AuthenticationModule -->
<g id="node1" class="node">
<title>AuthenticationModule</title>
<polygon fill="#8dd3c7" stroke="black" points="528.25,-122 525.25,-126 504.25,-126 501.25,-122 385.75,-122 385.75,-86 528.25,-86 528.25,-122"/>
<text text-anchor="middle" x="457" y="-99.8" font-family="Times,serif" font-size="14.00">AuthenticationModule</text>
</g>
<!-- H5PEditorModule -->
<g id="node4" class="node">
<title>H5PEditorModule</title>
<polygon fill="#8dd3c7" stroke="black" points="293.93,-187 290.93,-191 269.93,-191 266.93,-187 174.07,-187 174.07,-151 293.93,-151 293.93,-187"/>
<text text-anchor="middle" x="234" y="-164.8" font-family="Times,serif" font-size="14.00">H5PEditorModule</text>
</g>
<!-- AuthenticationModule&#45;&gt;H5PEditorModule -->
<g id="edge1" class="edge">
<title>AuthenticationModule&#45;&gt;H5PEditorModule</title>
<path fill="none" stroke="black" d="M457,-122.11C457,-141.34 457,-169 457,-169 457,-169 303.76,-169 303.76,-169"/>
<polygon fill="black" stroke="black" points="303.76,-165.5 293.76,-169 303.76,-172.5 303.76,-165.5"/>
</g>
<!-- AuthorizationModule -->
<g id="node2" class="node">
<title>AuthorizationModule</title>
<polygon fill="#8dd3c7" stroke="black" points="367.81,-122 364.81,-126 343.81,-126 340.81,-122 230.19,-122 230.19,-86 367.81,-86 367.81,-122"/>
<text text-anchor="middle" x="299" y="-99.8" font-family="Times,serif" font-size="14.00">AuthorizationModule</text>
</g>
<!-- AuthorizationModule&#45;&gt;H5PEditorModule -->
<g id="edge2" class="edge">
<title>AuthorizationModule&#45;&gt;H5PEditorModule</title>
<path fill="none" stroke="black" d="M262.03,-122.11C262.03,-122.11 262.03,-140.99 262.03,-140.99"/>
<polygon fill="black" stroke="black" points="258.53,-140.99 262.03,-150.99 265.53,-140.99 258.53,-140.99"/>
</g>
<!-- CoreModule -->
<g id="node3" class="node">
<title>CoreModule</title>
<polygon fill="#8dd3c7" stroke="black" points="212.26,-122 209.26,-126 188.26,-126 185.26,-122 125.74,-122 125.74,-86 212.26,-86 212.26,-122"/>
<text text-anchor="middle" x="169" y="-99.8" font-family="Times,serif" font-size="14.00">CoreModule</text>
</g>
<!-- CoreModule&#45;&gt;H5PEditorModule -->
<g id="edge3" class="edge">
<title>CoreModule&#45;&gt;H5PEditorModule</title>
<path fill="none" stroke="black" d="M193.33,-122.11C193.33,-122.11 193.33,-140.99 193.33,-140.99"/>
<polygon fill="black" stroke="black" points="189.83,-140.99 193.33,-150.99 196.83,-140.99 189.83,-140.99"/>
</g>
<!-- Logger -->
<g id="node5" class="node">
<title>Logger</title>
<ellipse fill="#fdb462" stroke="black" cx="63" cy="-104" rx="38.85" ry="18"/>
<text text-anchor="middle" x="63" y="-99.8" font-family="Times,serif" font-size="14.00">Logger</text>
</g>
<!-- Logger&#45;&gt;H5PEditorModule -->
<g id="edge4" class="edge">
<title>Logger&#45;&gt;H5PEditorModule</title>
<path fill="none" stroke="black" d="M63,-122.11C63,-141.34 63,-169 63,-169 63,-169 164.19,-169 164.19,-169"/>
<polygon fill="black" stroke="black" points="164.19,-172.5 174.19,-169 164.19,-165.5 164.19,-172.5"/>
</g>
</g>
</svg>
