<?xml version="1.0" encoding="UTF-8" standalone="no"?>
<!DOCTYPE svg PUBLIC "-//W3C//DTD SVG 1.1//EN"
 "http://www.w3.org/Graphics/SVG/1.1/DTD/svg11.dtd">
<!-- Generated by graphviz version 2.47.0 (20210316.0004)
 -->
<!-- Title: dependencies Pages: 1 -->
<svg width="2024pt" height="284pt"
 viewBox="0.00 0.00 2024.00 284.00" xmlns="http://www.w3.org/2000/svg" xmlns:xlink="http://www.w3.org/1999/xlink">
<g id="graph0" class="graph" transform="scale(1 1) rotate(0) translate(4 280)">
<title>dependencies</title>
<polygon fill="white" stroke="transparent" points="-4,4 -4,-280 2020,-280 2020,4 -4,4"/>
<text text-anchor="start" x="987.01" y="-42.4" font-family="Times-12" font-weight="bold" font-size="14.00">Legend</text>
<polygon fill="#ffffb3" stroke="transparent" points="774,-10 774,-30 794,-30 794,-10 774,-10"/>
<text text-anchor="start" x="797.63" y="-15.4" font-family="Times-12" font-size="14.00"> &#160;Declarations</text>
<polygon fill="#8dd3c7" stroke="transparent" points="887,-10 887,-30 907,-30 907,-10 887,-10"/>
<text text-anchor="start" x="910.73" y="-15.4" font-family="Times-12" font-size="14.00"> &#160;Module</text>
<polygon fill="#80b1d3" stroke="transparent" points="973,-10 973,-30 993,-30 993,-10 973,-10"/>
<text text-anchor="start" x="996.78" y="-15.4" font-family="Times-12" font-size="14.00"> &#160;Bootstrap</text>
<polygon fill="#fdb462" stroke="transparent" points="1070,-10 1070,-30 1090,-30 1090,-10 1070,-10"/>
<text text-anchor="start" x="1093.67" y="-15.4" font-family="Times-12" font-size="14.00"> &#160;Providers</text>
<polygon fill="#fb8072" stroke="transparent" points="1166,-10 1166,-30 1186,-30 1186,-10 1166,-10"/>
<text text-anchor="start" x="1189.73" y="-15.4" font-family="Times-12" font-size="14.00"> &#160;Exports</text>
<g id="clust1" class="cluster">
<title>cluster_H5PEditorModule</title>
<polygon fill="none" stroke="black" stroke-dasharray="1,5" points="8,-70 8,-268 2008,-268 2008,-70 8,-70"/>
</g>
<g id="clust6" class="cluster">
<title>cluster_H5PEditorModule_providers</title>
<polygon fill="none" stroke="black" points="915,-78 915,-130 2000,-130 2000,-78 915,-78"/>
</g>
<g id="clust4" class="cluster">
<title>cluster_H5PEditorModule_exports</title>
<polygon fill="none" stroke="black" points="900,-208 900,-260 1144,-260 1144,-208 900,-208"/>
</g>
<g id="clust3" class="cluster">
<title>cluster_H5PEditorModule_imports</title>
<polygon fill="none" stroke="black" points="16,-78 16,-130 907,-130 907,-78 16,-78"/>
</g>
<!-- AuthenticationModule -->
<g id="node1" class="node">
<title>AuthenticationModule</title>
<polygon fill="#8dd3c7" stroke="black" points="899.25,-122 896.25,-126 875.25,-126 872.25,-122 756.75,-122 756.75,-86 899.25,-86 899.25,-122"/>
<text text-anchor="middle" x="828" y="-99.8" font-family="Times,serif" font-size="14.00">AuthenticationModule</text>
</g>
<!-- H5PEditorModule -->
<g id="node7" class="node">
<title>H5PEditorModule</title>
<polygon fill="#8dd3c7" stroke="black" points="1080.93,-187 1077.93,-191 1056.93,-191 1053.93,-187 961.07,-187 961.07,-151 1080.93,-151 1080.93,-187"/>
<text text-anchor="middle" x="1021" y="-164.8" font-family="Times,serif" font-size="14.00">H5PEditorModule</text>
</g>
<!-- AuthenticationModule&#45;&gt;H5PEditorModule -->
<g id="edge1" class="edge">
<title>AuthenticationModule&#45;&gt;H5PEditorModule</title>
<path fill="none" stroke="black" d="M828,-122.24C828,-137.57 828,-157 828,-157 828,-157 951.26,-157 951.26,-157"/>
<polygon fill="black" stroke="black" points="951.26,-160.5 961.26,-157 951.26,-153.5 951.26,-160.5"/>
</g>
<!-- AuthorizationReferenceModule -->
<g id="node2" class="node">
<title>AuthorizationReferenceModule</title>
<polygon fill="#8dd3c7" stroke="black" points="739.04,-122 736.04,-126 715.04,-126 712.04,-122 544.96,-122 544.96,-86 739.04,-86 739.04,-122"/>
<text text-anchor="middle" x="642" y="-99.8" font-family="Times,serif" font-size="14.00">AuthorizationReferenceModule</text>
</g>
<!-- AuthorizationReferenceModule&#45;&gt;H5PEditorModule -->
<g id="edge2" class="edge">
<title>AuthorizationReferenceModule&#45;&gt;H5PEditorModule</title>
<path fill="none" stroke="black" d="M642,-122.03C642,-139.06 642,-162 642,-162 642,-162 950.95,-162 950.95,-162"/>
<polygon fill="black" stroke="black" points="950.95,-165.5 960.95,-162 950.95,-158.5 950.95,-165.5"/>
</g>
<!-- CoreModule -->
<g id="node3" class="node">
<title>CoreModule</title>
<polygon fill="#8dd3c7" stroke="black" points="527.26,-122 524.26,-126 503.26,-126 500.26,-122 440.74,-122 440.74,-86 527.26,-86 527.26,-122"/>
<text text-anchor="middle" x="484" y="-99.8" font-family="Times,serif" font-size="14.00">CoreModule</text>
</g>
<!-- CoreModule&#45;&gt;H5PEditorModule -->
<g id="edge3" class="edge">
<title>CoreModule&#45;&gt;H5PEditorModule</title>
<path fill="none" stroke="black" d="M484,-122.22C484,-140.83 484,-167 484,-167 484,-167 951.22,-167 951.22,-167"/>
<polygon fill="black" stroke="black" points="951.22,-170.5 961.22,-167 951.22,-163.5 951.22,-170.5"/>
</g>
<!-- RabbitMQWrapperModule -->
<g id="node4" class="node">
<title>RabbitMQWrapperModule</title>
<polygon fill="#8dd3c7" stroke="black" points="422.4,-122 419.4,-126 398.4,-126 395.4,-122 253.6,-122 253.6,-86 422.4,-86 422.4,-122"/>
<text text-anchor="middle" x="338" y="-99.8" font-family="Times,serif" font-size="14.00">RabbitMQWrapperModule</text>
</g>
<!-- RabbitMQWrapperModule&#45;&gt;H5PEditorModule -->
<g id="edge4" class="edge">
<title>RabbitMQWrapperModule&#45;&gt;H5PEditorModule</title>
<path fill="none" stroke="black" d="M338,-122.22C338,-142.37 338,-172 338,-172 338,-172 950.99,-172 950.99,-172"/>
<polygon fill="black" stroke="black" points="950.99,-175.5 960.99,-172 950.99,-168.5 950.99,-175.5"/>
</g>
<!-- S3ClientModule -->
<g id="node5" class="node">
<title>S3ClientModule</title>
<polygon fill="#8dd3c7" stroke="black" points="236.06,-122 233.06,-126 212.06,-126 209.06,-122 127.94,-122 127.94,-86 236.06,-86 236.06,-122"/>
<text text-anchor="middle" x="182" y="-99.8" font-family="Times,serif" font-size="14.00">S3ClientModule</text>
</g>
<!-- S3ClientModule&#45;&gt;H5PEditorModule -->
<g id="edge5" class="edge">
<title>S3ClientModule&#45;&gt;H5PEditorModule</title>
<path fill="none" stroke="black" d="M182,-122.04C182,-143.66 182,-177 182,-177 182,-177 951,-177 951,-177"/>
<polygon fill="black" stroke="black" points="951,-180.5 961,-177 951,-173.5 951,-180.5"/>
</g>
<!-- UserModule -->
<g id="node6" class="node">
<title>UserModule</title>
<polygon fill="#8dd3c7" stroke="black" points="109.98,-122 106.98,-126 85.98,-126 82.98,-122 24.02,-122 24.02,-86 109.98,-86 109.98,-122"/>
<text text-anchor="middle" x="67" y="-99.8" font-family="Times,serif" font-size="14.00">UserModule</text>
</g>
<!-- UserModule&#45;&gt;H5PEditorModule -->
<g id="edge6" class="edge">
<title>UserModule&#45;&gt;H5PEditorModule</title>
<path fill="none" stroke="black" d="M67,-122.09C67,-145.13 67,-182 67,-182 67,-182 950.96,-182 950.96,-182"/>
<polygon fill="black" stroke="black" points="950.96,-185.5 960.96,-182 950.96,-178.5 950.96,-185.5"/>
</g>
<!-- ContentStorage  -->
<g id="node8" class="node">
<title>ContentStorage </title>
<polygon fill="#fb8072" stroke="black" points="1136.1,-252 1029.9,-252 1029.9,-216 1136.1,-216 1136.1,-252"/>
<text text-anchor="middle" x="1083" y="-229.8" font-family="Times,serif" font-size="14.00">ContentStorage </text>
</g>
<!-- H5PEditorModule&#45;&gt;ContentStorage  -->
<g id="edge7" class="edge">
<title>H5PEditorModule&#45;&gt;ContentStorage </title>
<path fill="none" stroke="black" stroke-dasharray="5,2" d="M1055.21,-187.11C1055.21,-187.11 1055.21,-205.99 1055.21,-205.99"/>
<polygon fill="black" stroke="black" points="1051.71,-205.99 1055.21,-215.99 1058.71,-205.99 1051.71,-205.99"/>
</g>
<!-- LibraryStorage  -->
<g id="node9" class="node">
<title>LibraryStorage </title>
<polygon fill="#fb8072" stroke="black" points="1012.24,-252 907.76,-252 907.76,-216 1012.24,-216 1012.24,-252"/>
<text text-anchor="middle" x="960" y="-229.8" font-family="Times,serif" font-size="14.00">LibraryStorage </text>
</g>
<!-- H5PEditorModule&#45;&gt;LibraryStorage  -->
<g id="edge8" class="edge">
<title>H5PEditorModule&#45;&gt;LibraryStorage </title>
<path fill="none" stroke="black" stroke-dasharray="5,2" d="M986.7,-187.11C986.7,-187.11 986.7,-205.99 986.7,-205.99"/>
<polygon fill="black" stroke="black" points="983.2,-205.99 986.7,-215.99 990.2,-205.99 983.2,-205.99"/>
</g>
<!-- ContentStorage -->
<g id="node10" class="node">
<title>ContentStorage</title>
<ellipse fill="#fdb462" stroke="black" cx="1921" cy="-104" rx="71.23" ry="18"/>
<text text-anchor="middle" x="1921" y="-99.8" font-family="Times,serif" font-size="14.00">ContentStorage</text>
</g>
<!-- ContentStorage&#45;&gt;H5PEditorModule -->
<g id="edge9" class="edge">
<title>ContentStorage&#45;&gt;H5PEditorModule</title>
<path fill="none" stroke="black" d="M1921,-122.09C1921,-145.13 1921,-182 1921,-182 1921,-182 1090.75,-182 1090.75,-182"/>
<polygon fill="black" stroke="black" points="1090.75,-178.5 1080.75,-182 1090.75,-185.5 1090.75,-178.5"/>
</g>
<!-- H5PContentRepo -->
<g id="node11" class="node">
<title>H5PContentRepo</title>
<ellipse fill="#fdb462" stroke="black" cx="1753" cy="-104" rx="79.34" ry="18"/>
<text text-anchor="middle" x="1753" y="-99.8" font-family="Times,serif" font-size="14.00">H5PContentRepo</text>
</g>
<!-- H5PContentRepo&#45;&gt;H5PEditorModule -->
<g id="edge10" class="edge">
<title>H5PContentRepo&#45;&gt;H5PEditorModule</title>
<path fill="none" stroke="black" d="M1753,-122.04C1753,-143.66 1753,-177 1753,-177 1753,-177 1090.9,-177 1090.9,-177"/>
<polygon fill="black" stroke="black" points="1090.9,-173.5 1080.9,-177 1090.9,-180.5 1090.9,-173.5"/>
</g>
<!-- H5PEditorUc -->
<g id="node12" class="node">
<title>H5PEditorUc</title>
<ellipse fill="#fdb462" stroke="black" cx="1592" cy="-104" rx="63.7" ry="18"/>
<text text-anchor="middle" x="1592" y="-99.8" font-family="Times,serif" font-size="14.00">H5PEditorUc</text>
</g>
<!-- H5PEditorUc&#45;&gt;H5PEditorModule -->
<g id="edge11" class="edge">
<title>H5PEditorUc&#45;&gt;H5PEditorModule</title>
<path fill="none" stroke="black" d="M1592,-122.22C1592,-142.37 1592,-172 1592,-172 1592,-172 1090.76,-172 1090.76,-172"/>
<polygon fill="black" stroke="black" points="1090.76,-168.5 1080.76,-172 1090.76,-175.5 1090.76,-168.5"/>
</g>
<!-- LibraryRepo -->
<g id="node13" class="node">
<title>LibraryRepo</title>
<ellipse fill="#fdb462" stroke="black" cx="1450" cy="-104" rx="60.25" ry="18"/>
<text text-anchor="middle" x="1450" y="-99.8" font-family="Times,serif" font-size="14.00">LibraryRepo</text>
</g>
<!-- LibraryRepo&#45;&gt;H5PEditorModule -->
<g id="edge12" class="edge">
<title>LibraryRepo&#45;&gt;H5PEditorModule</title>
<path fill="none" stroke="black" d="M1450,-122.22C1450,-140.83 1450,-167 1450,-167 1450,-167 1091.1,-167 1091.1,-167"/>
<polygon fill="black" stroke="black" points="1091.1,-163.5 1081.1,-167 1091.1,-170.5 1091.1,-163.5"/>
</g>
<!-- LibraryStorage -->
<g id="node14" class="node">
<title>LibraryStorage</title>
<ellipse fill="#fdb462" stroke="black" cx="1302" cy="-104" rx="69.48" ry="18"/>
<text text-anchor="middle" x="1302" y="-99.8" font-family="Times,serif" font-size="14.00">LibraryStorage</text>
</g>
<!-- LibraryStorage&#45;&gt;H5PEditorModule -->
<g id="edge13" class="edge">
<title>LibraryStorage&#45;&gt;H5PEditorModule</title>
<path fill="none" stroke="black" d="M1302,-122.03C1302,-139.06 1302,-162 1302,-162 1302,-162 1090.94,-162 1090.94,-162"/>
<polygon fill="black" stroke="black" points="1090.94,-158.5 1080.94,-162 1090.94,-165.5 1090.94,-158.5"/>
</g>
<!-- Logger -->
<g id="node15" class="node">
<title>Logger</title>
<ellipse fill="#fdb462" stroke="black" cx="1176" cy="-104" rx="38.85" ry="18"/>
<text text-anchor="middle" x="1176" y="-99.8" font-family="Times,serif" font-size="14.00">Logger</text>
</g>
<!-- Logger&#45;&gt;H5PEditorModule -->
<g id="edge14" class="edge">
<title>Logger&#45;&gt;H5PEditorModule</title>
<path fill="none" stroke="black" d="M1176,-122.24C1176,-137.57 1176,-157 1176,-157 1176,-157 1090.93,-157 1090.93,-157"/>
<polygon fill="black" stroke="black" points="1090.93,-153.5 1080.93,-157 1090.93,-160.5 1090.93,-153.5"/>
</g>
<!-- TemporaryFileStorage -->
<g id="node16" class="node">
<title>TemporaryFileStorage</title>
<ellipse fill="#fdb462" stroke="black" cx="1021" cy="-104" rx="98.41" ry="18"/>
<text text-anchor="middle" x="1021" y="-99.8" font-family="Times,serif" font-size="14.00">TemporaryFileStorage</text>
</g>
<!-- TemporaryFileStorage&#45;&gt;H5PEditorModule -->
<g id="edge15" class="edge">
<title>TemporaryFileStorage&#45;&gt;H5PEditorModule</title>
<path fill="none" stroke="black" d="M1021,-122.11C1021,-122.11 1021,-140.99 1021,-140.99"/>
<polygon fill="black" stroke="black" points="1017.5,-140.99 1021,-150.99 1024.5,-140.99 1017.5,-140.99"/>
</g>
</g>
</svg>
