<?xml version="1.0" encoding="UTF-8" standalone="no"?>
<!DOCTYPE svg PUBLIC "-//W3C//DTD SVG 1.1//EN"
 "http://www.w3.org/Graphics/SVG/1.1/DTD/svg11.dtd">
<!-- Generated by graphviz version 2.47.0 (20210316.0004)
 -->
<!-- Title: dependencies Pages: 1 -->
<svg width="2024pt" height="284pt"
 viewBox="0.00 0.00 2024.00 284.00" xmlns="http://www.w3.org/2000/svg" xmlns:xlink="http://www.w3.org/1999/xlink">
<g id="graph0" class="graph" transform="scale(1 1) rotate(0) translate(4 280)">
<title>dependencies</title>
<polygon fill="white" stroke="transparent" points="-4,4 -4,-280 2020,-280 2020,4 -4,4"/>
<text text-anchor="start" x="987.01" y="-42.4" font-family="Times-12" font-weight="bold" font-size="14.00">Legend</text>
<polygon fill="#ffffb3" stroke="transparent" points="774,-10 774,-30 794,-30 794,-10 774,-10"/>
<text text-anchor="start" x="797.63" y="-15.4" font-family="Times-12" font-size="14.00"> &#160;Declarations</text>
<polygon fill="#8dd3c7" stroke="transparent" points="887,-10 887,-30 907,-30 907,-10 887,-10"/>
<text text-anchor="start" x="910.73" y="-15.4" font-family="Times-12" font-size="14.00"> &#160;Module</text>
<polygon fill="#80b1d3" stroke="transparent" points="973,-10 973,-30 993,-30 993,-10 973,-10"/>
<text text-anchor="start" x="996.78" y="-15.4" font-family="Times-12" font-size="14.00"> &#160;Bootstrap</text>
<polygon fill="#fdb462" stroke="transparent" points="1070,-10 1070,-30 1090,-30 1090,-10 1070,-10"/>
<text text-anchor="start" x="1093.67" y="-15.4" font-family="Times-12" font-size="14.00"> &#160;Providers</text>
<polygon fill="#fb8072" stroke="transparent" points="1166,-10 1166,-30 1186,-30 1186,-10 1166,-10"/>
<text text-anchor="start" x="1189.73" y="-15.4" font-family="Times-12" font-size="14.00"> &#160;Exports</text>
<g id="clust1" class="cluster">
<title>cluster_H5PEditorModule</title>
<polygon fill="none" stroke="black" stroke-dasharray="1,5" points="8,-70 8,-268 2008,-268 2008,-70 8,-70"/>
</g>
<g id="clust3" class="cluster">
<title>cluster_H5PEditorModule_imports</title>
<polygon fill="none" stroke="black" points="1109,-78 1109,-130 2000,-130 2000,-78 1109,-78"/>
</g>
<g id="clust4" class="cluster">
<title>cluster_H5PEditorModule_exports</title>
<polygon fill="none" stroke="black" points="901,-208 901,-260 1145,-260 1145,-208 901,-208"/>
</g>
<g id="clust6" class="cluster">
<title>cluster_H5PEditorModule_providers</title>
<polygon fill="none" stroke="black" points="16,-78 16,-130 1101,-130 1101,-78 16,-78"/>
</g>
<!-- AuthenticationModule -->
<g id="node1" class="node">
<title>AuthenticationModule</title>
<polygon fill="#8dd3c7" stroke="black" points="1992.25,-122 1989.25,-126 1968.25,-126 1965.25,-122 1849.75,-122 1849.75,-86 1992.25,-86 1992.25,-122"/>
<text text-anchor="middle" x="1921" y="-99.8" font-family="Times,serif" font-size="14.00">AuthenticationModule</text>
</g>
<!-- H5PEditorModule -->
<g id="node7" class="node">
<title>H5PEditorModule</title>
<polygon fill="#8dd3c7" stroke="black" points="1081.93,-187 1078.93,-191 1057.93,-191 1054.93,-187 962.07,-187 962.07,-151 1081.93,-151 1081.93,-187"/>
<text text-anchor="middle" x="1022" y="-164.8" font-family="Times,serif" font-size="14.00">H5PEditorModule</text>
</g>
<!-- AuthenticationModule&#45;&gt;H5PEditorModule -->
<g id="edge1" class="edge">
<title>AuthenticationModule&#45;&gt;H5PEditorModule</title>
<path fill="none" stroke="black" d="M1921,-122.09C1921,-145.13 1921,-182 1921,-182 1921,-182 1092.03,-182 1092.03,-182"/>
<polygon fill="black" stroke="black" points="1092.03,-178.5 1082.03,-182 1092.03,-185.5 1092.03,-178.5"/>
</g>
<!-- AuthorizationReferenceModule -->
<g id="node2" class="node">
<title>AuthorizationReferenceModule</title>
<polygon fill="#8dd3c7" stroke="black" points="1832.04,-122 1829.04,-126 1808.04,-126 1805.04,-122 1637.96,-122 1637.96,-86 1832.04,-86 1832.04,-122"/>
<text text-anchor="middle" x="1735" y="-99.8" font-family="Times,serif" font-size="14.00">AuthorizationReferenceModule</text>
</g>
<!-- AuthorizationReferenceModule&#45;&gt;H5PEditorModule -->
<g id="edge2" class="edge">
<title>AuthorizationReferenceModule&#45;&gt;H5PEditorModule</title>
<path fill="none" stroke="black" d="M1735,-122.04C1735,-143.66 1735,-177 1735,-177 1735,-177 1091.87,-177 1091.87,-177"/>
<polygon fill="black" stroke="black" points="1091.87,-173.5 1081.87,-177 1091.87,-180.5 1091.87,-173.5"/>
</g>
<!-- CoreModule -->
<g id="node3" class="node">
<title>CoreModule</title>
<polygon fill="#8dd3c7" stroke="black" points="1620.26,-122 1617.26,-126 1596.26,-126 1593.26,-122 1533.74,-122 1533.74,-86 1620.26,-86 1620.26,-122"/>
<text text-anchor="middle" x="1577" y="-99.8" font-family="Times,serif" font-size="14.00">CoreModule</text>
</g>
<!-- CoreModule&#45;&gt;H5PEditorModule -->
<g id="edge3" class="edge">
<title>CoreModule&#45;&gt;H5PEditorModule</title>
<path fill="none" stroke="black" d="M1577,-122.22C1577,-142.37 1577,-172 1577,-172 1577,-172 1091.92,-172 1091.92,-172"/>
<polygon fill="black" stroke="black" points="1091.92,-168.5 1081.92,-172 1091.92,-175.5 1091.92,-168.5"/>
</g>
<!-- RabbitMQWrapperModule -->
<g id="node4" class="node">
<title>RabbitMQWrapperModule</title>
<polygon fill="#8dd3c7" stroke="black" points="1515.4,-122 1512.4,-126 1491.4,-126 1488.4,-122 1346.6,-122 1346.6,-86 1515.4,-86 1515.4,-122"/>
<text text-anchor="middle" x="1431" y="-99.8" font-family="Times,serif" font-size="14.00">RabbitMQWrapperModule</text>
</g>
<!-- RabbitMQWrapperModule&#45;&gt;H5PEditorModule -->
<g id="edge4" class="edge">
<title>RabbitMQWrapperModule&#45;&gt;H5PEditorModule</title>
<path fill="none" stroke="black" d="M1431,-122.22C1431,-140.83 1431,-167 1431,-167 1431,-167 1091.91,-167 1091.91,-167"/>
<polygon fill="black" stroke="black" points="1091.91,-163.5 1081.91,-167 1091.91,-170.5 1091.91,-163.5"/>
</g>
<!-- S3ClientModule -->
<g id="node5" class="node">
<title>S3ClientModule</title>
<polygon fill="#8dd3c7" stroke="black" points="1329.06,-122 1326.06,-126 1305.06,-126 1302.06,-122 1220.94,-122 1220.94,-86 1329.06,-86 1329.06,-122"/>
<text text-anchor="middle" x="1275" y="-99.8" font-family="Times,serif" font-size="14.00">S3ClientModule</text>
</g>
<!-- S3ClientModule&#45;&gt;H5PEditorModule -->
<g id="edge5" class="edge">
<title>S3ClientModule&#45;&gt;H5PEditorModule</title>
<path fill="none" stroke="black" d="M1275,-122.03C1275,-139.06 1275,-162 1275,-162 1275,-162 1091.96,-162 1091.96,-162"/>
<polygon fill="black" stroke="black" points="1091.96,-158.5 1081.96,-162 1091.96,-165.5 1091.96,-158.5"/>
</g>
<!-- UserModule -->
<g id="node6" class="node">
<title>UserModule</title>
<polygon fill="#8dd3c7" stroke="black" points="1202.98,-122 1199.98,-126 1178.98,-126 1175.98,-122 1117.02,-122 1117.02,-86 1202.98,-86 1202.98,-122"/>
<text text-anchor="middle" x="1160" y="-99.8" font-family="Times,serif" font-size="14.00">UserModule</text>
</g>
<!-- UserModule&#45;&gt;H5PEditorModule -->
<g id="edge6" class="edge">
<title>UserModule&#45;&gt;H5PEditorModule</title>
<path fill="none" stroke="black" d="M1127.15,-122.24C1127.15,-137.57 1127.15,-157 1127.15,-157 1127.15,-157 1091.95,-157 1091.95,-157"/>
<polygon fill="black" stroke="black" points="1091.95,-153.5 1081.95,-157 1091.95,-160.5 1091.95,-153.5"/>
</g>
<!-- ContentStorage  -->
<g id="node8" class="node">
<title>ContentStorage </title>
<polygon fill="#fb8072" stroke="black" points="1137.1,-252 1030.9,-252 1030.9,-216 1137.1,-216 1137.1,-252"/>
<text text-anchor="middle" x="1084" y="-229.8" font-family="Times,serif" font-size="14.00">ContentStorage </text>
</g>
<!-- H5PEditorModule&#45;&gt;ContentStorage  -->
<g id="edge7" class="edge">
<title>H5PEditorModule&#45;&gt;ContentStorage </title>
<path fill="none" stroke="black" stroke-dasharray="5,2" d="M1056.21,-187.11C1056.21,-187.11 1056.21,-205.99 1056.21,-205.99"/>
<polygon fill="black" stroke="black" points="1052.71,-205.99 1056.21,-215.99 1059.71,-205.99 1052.71,-205.99"/>
</g>
<!-- LibraryStorage  -->
<g id="node9" class="node">
<title>LibraryStorage </title>
<polygon fill="#fb8072" stroke="black" points="1013.24,-252 908.76,-252 908.76,-216 1013.24,-216 1013.24,-252"/>
<text text-anchor="middle" x="961" y="-229.8" font-family="Times,serif" font-size="14.00">LibraryStorage </text>
</g>
<!-- H5PEditorModule&#45;&gt;LibraryStorage  -->
<g id="edge8" class="edge">
<title>H5PEditorModule&#45;&gt;LibraryStorage </title>
<path fill="none" stroke="black" stroke-dasharray="5,2" d="M987.7,-187.11C987.7,-187.11 987.7,-205.99 987.7,-205.99"/>
<polygon fill="black" stroke="black" points="984.2,-205.99 987.7,-215.99 991.2,-205.99 984.2,-205.99"/>
</g>
<!-- ContentStorage -->
<g id="node10" class="node">
<title>ContentStorage</title>
<ellipse fill="#fdb462" stroke="black" cx="1022" cy="-104" rx="71.23" ry="18"/>
<text text-anchor="middle" x="1022" y="-99.8" font-family="Times,serif" font-size="14.00">ContentStorage</text>
</g>
<!-- ContentStorage&#45;&gt;H5PEditorModule -->
<g id="edge9" class="edge">
<title>ContentStorage&#45;&gt;H5PEditorModule</title>
<path fill="none" stroke="black" d="M1022,-122.11C1022,-122.11 1022,-140.99 1022,-140.99"/>
<polygon fill="black" stroke="black" points="1018.5,-140.99 1022,-150.99 1025.5,-140.99 1018.5,-140.99"/>
</g>
<!-- H5PContentRepo -->
<g id="node11" class="node">
<title>H5PContentRepo</title>
<ellipse fill="#fdb462" stroke="black" cx="854" cy="-104" rx="79.34" ry="18"/>
<text text-anchor="middle" x="854" y="-99.8" font-family="Times,serif" font-size="14.00">H5PContentRepo</text>
</g>
<!-- H5PContentRepo&#45;&gt;H5PEditorModule -->
<g id="edge10" class="edge">
<title>H5PContentRepo&#45;&gt;H5PEditorModule</title>
<path fill="none" stroke="black" d="M921.02,-113.72C921.02,-129.02 921.02,-157 921.02,-157 921.02,-157 952.09,-157 952.09,-157"/>
<polygon fill="black" stroke="black" points="952.09,-160.5 962.09,-157 952.09,-153.5 952.09,-160.5"/>
</g>
<!-- H5PEditorUc -->
<g id="node12" class="node">
<title>H5PEditorUc</title>
<ellipse fill="#fdb462" stroke="black" cx="693" cy="-104" rx="63.7" ry="18"/>
<text text-anchor="middle" x="693" y="-99.8" font-family="Times,serif" font-size="14.00">H5PEditorUc</text>
</g>
<!-- H5PEditorUc&#45;&gt;H5PEditorModule -->
<g id="edge11" class="edge">
<title>H5PEditorUc&#45;&gt;H5PEditorModule</title>
<path fill="none" stroke="black" d="M693,-122.03C693,-139.06 693,-162 693,-162 693,-162 952.04,-162 952.04,-162"/>
<polygon fill="black" stroke="black" points="952.04,-165.5 962.04,-162 952.04,-158.5 952.04,-165.5"/>
</g>
<!-- LibraryRepo -->
<g id="node13" class="node">
<title>LibraryRepo</title>
<ellipse fill="#fdb462" stroke="black" cx="551" cy="-104" rx="60.25" ry="18"/>
<text text-anchor="middle" x="551" y="-99.8" font-family="Times,serif" font-size="14.00">LibraryRepo</text>
</g>
<!-- LibraryRepo&#45;&gt;H5PEditorModule -->
<g id="edge12" class="edge">
<title>LibraryRepo&#45;&gt;H5PEditorModule</title>
<path fill="none" stroke="black" d="M551,-122.22C551,-140.83 551,-167 551,-167 551,-167 951.87,-167 951.87,-167"/>
<polygon fill="black" stroke="black" points="951.87,-170.5 961.87,-167 951.87,-163.5 951.87,-170.5"/>
</g>
<!-- LibraryStorage -->
<g id="node14" class="node">
<title>LibraryStorage</title>
<ellipse fill="#fdb462" stroke="black" cx="403" cy="-104" rx="69.48" ry="18"/>
<text text-anchor="middle" x="403" y="-99.8" font-family="Times,serif" font-size="14.00">LibraryStorage</text>
</g>
<!-- LibraryStorage&#45;&gt;H5PEditorModule -->
<g id="edge13" class="edge">
<title>LibraryStorage&#45;&gt;H5PEditorModule</title>
<path fill="none" stroke="black" d="M403,-122.22C403,-142.37 403,-172 403,-172 403,-172 952.09,-172 952.09,-172"/>
<polygon fill="black" stroke="black" points="952.09,-175.5 962.09,-172 952.09,-168.5 952.09,-175.5"/>
</g>
<!-- Logger -->
<g id="node15" class="node">
<title>Logger</title>
<ellipse fill="#fdb462" stroke="black" cx="277" cy="-104" rx="38.85" ry="18"/>
<text text-anchor="middle" x="277" y="-99.8" font-family="Times,serif" font-size="14.00">Logger</text>
</g>
<!-- Logger&#45;&gt;H5PEditorModule -->
<g id="edge14" class="edge">
<title>Logger&#45;&gt;H5PEditorModule</title>
<path fill="none" stroke="black" d="M277,-122.04C277,-143.66 277,-177 277,-177 277,-177 951.98,-177 951.98,-177"/>
<polygon fill="black" stroke="black" points="951.98,-180.5 961.98,-177 951.98,-173.5 951.98,-180.5"/>
</g>
<!-- TemporaryFileStorage -->
<g id="node16" class="node">
<title>TemporaryFileStorage</title>
<ellipse fill="#fdb462" stroke="black" cx="122" cy="-104" rx="98.41" ry="18"/>
<text text-anchor="middle" x="122" y="-99.8" font-family="Times,serif" font-size="14.00">TemporaryFileStorage</text>
</g>
<!-- TemporaryFileStorage&#45;&gt;H5PEditorModule -->
<g id="edge15" class="edge">
<title>TemporaryFileStorage&#45;&gt;H5PEditorModule</title>
<path fill="none" stroke="black" d="M122,-122.09C122,-145.13 122,-182 122,-182 122,-182 952.25,-182 952.25,-182"/>
<polygon fill="black" stroke="black" points="952.25,-185.5 962.25,-182 952.25,-178.5 952.25,-185.5"/>
</g>
</g>
</svg>
