<?xml version="1.0" encoding="UTF-8" standalone="no"?>
<!DOCTYPE svg PUBLIC "-//W3C//DTD SVG 1.1//EN"
 "http://www.w3.org/Graphics/SVG/1.1/DTD/svg11.dtd">
<!-- Generated by graphviz version 2.47.0 (20210316.0004)
 -->
<!-- Title: dependencies Pages: 1 -->
<svg width="759pt" height="211pt"
 viewBox="0.00 0.00 759.00 211.00" xmlns="http://www.w3.org/2000/svg" xmlns:xlink="http://www.w3.org/1999/xlink">
<g id="graph0" class="graph" transform="scale(1 1) rotate(0) translate(4 207)">
<title>dependencies</title>
<polygon fill="white" stroke="transparent" points="-4,4 -4,-207 755,-207 755,4 -4,4"/>
<text text-anchor="start" x="354.51" y="-42.4" font-family="Times-12" font-weight="bold" font-size="14.00">Legend</text>
<polygon fill="#ffffb3" stroke="transparent" points="141.5,-10 141.5,-30 161.5,-30 161.5,-10 141.5,-10"/>
<text text-anchor="start" x="165.13" y="-15.4" font-family="Times-12" font-size="14.00"> &#160;Declarations</text>
<polygon fill="#8dd3c7" stroke="transparent" points="254.5,-10 254.5,-30 274.5,-30 274.5,-10 254.5,-10"/>
<text text-anchor="start" x="278.23" y="-15.4" font-family="Times-12" font-size="14.00"> &#160;Module</text>
<polygon fill="#80b1d3" stroke="transparent" points="340.5,-10 340.5,-30 360.5,-30 360.5,-10 340.5,-10"/>
<text text-anchor="start" x="364.28" y="-15.4" font-family="Times-12" font-size="14.00"> &#160;Bootstrap</text>
<polygon fill="#fdb462" stroke="transparent" points="437.5,-10 437.5,-30 457.5,-30 457.5,-10 437.5,-10"/>
<text text-anchor="start" x="461.17" y="-15.4" font-family="Times-12" font-size="14.00"> &#160;Providers</text>
<polygon fill="#fb8072" stroke="transparent" points="533.5,-10 533.5,-30 553.5,-30 553.5,-10 533.5,-10"/>
<text text-anchor="start" x="557.23" y="-15.4" font-family="Times-12" font-size="14.00"> &#160;Exports</text>
<g id="clust1" class="cluster">
<title>cluster_UsersAdminApiModule</title>
<polygon fill="none" stroke="black" stroke-dasharray="1,5" points="8,-70 8,-195 743,-195 743,-70 8,-70"/>
</g>
<g id="clust3" class="cluster">
<title>cluster_UsersAdminApiModule_imports</title>
<polygon fill="none" stroke="black" points="329,-78 329,-130 735,-130 735,-78 329,-78"/>
</g>
<g id="clust6" class="cluster">
<title>cluster_UsersAdminApiModule_providers</title>
<polygon fill="none" stroke="black" points="16,-78 16,-130 321,-130 321,-78 16,-78"/>
</g>
<!-- AuthorizationModule -->
<g id="node1" class="node">
<title>AuthorizationModule</title>
<polygon fill="#8dd3c7" stroke="black" points="726.81,-122 723.81,-126 702.81,-126 699.81,-122 589.19,-122 589.19,-86 726.81,-86 726.81,-122"/>
<text text-anchor="middle" x="658" y="-99.8" font-family="Times,serif" font-size="14.00">AuthorizationModule</text>
</g>
<!-- UsersAdminApiModule -->
<g id="node4" class="node">
<title>UsersAdminApiModule</title>
<polygon fill="#8dd3c7" stroke="black" points="477.81,-187 474.81,-191 453.81,-191 450.81,-187 326.19,-187 326.19,-151 477.81,-151 477.81,-187"/>
<text text-anchor="middle" x="402" y="-164.8" font-family="Times,serif" font-size="14.00">UsersAdminApiModule</text>
</g>
<!-- AuthorizationModule&#45;&gt;UsersAdminApiModule -->
<g id="edge1" class="edge">
<title>AuthorizationModule&#45;&gt;UsersAdminApiModule</title>
<path fill="none" stroke="black" d="M658,-122.11C658,-141.34 658,-169 658,-169 658,-169 487.77,-169 487.77,-169"/>
<polygon fill="black" stroke="black" points="487.77,-165.5 477.77,-169 487.77,-172.5 487.77,-165.5"/>
</g>
<!-- RoleModule -->
<g id="node2" class="node">
<title>RoleModule</title>
<polygon fill="#8dd3c7" stroke="black" points="570.99,-122 567.99,-126 546.99,-126 543.99,-122 485.01,-122 485.01,-86 570.99,-86 570.99,-122"/>
<text text-anchor="middle" x="528" y="-99.8" font-family="Times,serif" font-size="14.00">RoleModule</text>
</g>
<!-- RoleModule&#45;&gt;UsersAdminApiModule -->
<g id="edge2" class="edge">
<title>RoleModule&#45;&gt;UsersAdminApiModule</title>
<path fill="none" stroke="black" d="M484.74,-104C477.56,-104 472.4,-104 472.4,-104 472.4,-104 472.4,-140.89 472.4,-140.89"/>
<polygon fill="black" stroke="black" points="468.9,-140.89 472.4,-150.89 475.9,-140.89 468.9,-140.89"/>
</g>
<!-- UsersAdminModule -->
<g id="node3" class="node">
<title>UsersAdminModule</title>
<polygon fill="#8dd3c7" stroke="black" points="467.31,-122 464.31,-126 443.31,-126 440.31,-122 336.69,-122 336.69,-86 467.31,-86 467.31,-122"/>
<text text-anchor="middle" x="402" y="-99.8" font-family="Times,serif" font-size="14.00">UsersAdminModule</text>
</g>
<!-- UsersAdminModule&#45;&gt;UsersAdminApiModule -->
<g id="edge3" class="edge">
<title>UsersAdminModule&#45;&gt;UsersAdminApiModule</title>
<path fill="none" stroke="black" d="M402,-122.11C402,-122.11 402,-140.99 402,-140.99"/>
<polygon fill="black" stroke="black" points="398.5,-140.99 402,-150.99 405.5,-140.99 398.5,-140.99"/>
</g>
<!-- UserRepo -->
<g id="node5" class="node">
<title>UserRepo</title>
<ellipse fill="#fdb462" stroke="black" cx="263" cy="-104" rx="49.8" ry="18"/>
<text text-anchor="middle" x="263" y="-99.8" font-family="Times,serif" font-size="14.00">UserRepo</text>
</g>
<!-- UserRepo&#45;&gt;UsersAdminApiModule -->
<g id="edge4" class="edge">
<title>UserRepo&#45;&gt;UsersAdminApiModule</title>
<path fill="none" stroke="black" d="M312.85,-104C323.49,-104 331.6,-104 331.6,-104 331.6,-104 331.6,-140.89 331.6,-140.89"/>
<polygon fill="black" stroke="black" points="328.1,-140.89 331.6,-150.89 335.1,-140.89 328.1,-140.89"/>
</g>
<!-- UsersAdminApiUc -->
<g id="node6" class="node">
<title>UsersAdminApiUc</title>
<ellipse fill="#fdb462" stroke="black" cx="110" cy="-104" rx="85.67" ry="18"/>
<text text-anchor="middle" x="110" y="-99.8" font-family="Times,serif" font-size="14.00">UsersAdminApiUc</text>
</g>
<!-- UsersAdminApiUc&#45;&gt;UsersAdminApiModule -->
<g id="edge5" class="edge">
<title>UsersAdminApiUc&#45;&gt;UsersAdminApiModule</title>
<path fill="none" stroke="black" d="M110,-122.11C110,-141.34 110,-169 110,-169 110,-169 316.04,-169 316.04,-169"/>
<polygon fill="black" stroke="black" points="316.04,-172.5 326.04,-169 316.04,-165.5 316.04,-172.5"/>
</g>
</g>
</svg>
