<?xml version="1.0" encoding="UTF-8" standalone="no"?>
<!DOCTYPE svg PUBLIC "-//W3C//DTD SVG 1.1//EN"
 "http://www.w3.org/Graphics/SVG/1.1/DTD/svg11.dtd">
<!-- Generated by graphviz version 2.47.0 (20210316.0004)
 -->
<!-- Title: dependencies Pages: 1 -->
<svg width="759pt" height="211pt"
 viewBox="0.00 0.00 759.00 211.00" xmlns="http://www.w3.org/2000/svg" xmlns:xlink="http://www.w3.org/1999/xlink">
<g id="graph0" class="graph" transform="scale(1 1) rotate(0) translate(4 207)">
<title>dependencies</title>
<polygon fill="white" stroke="transparent" points="-4,4 -4,-207 755,-207 755,4 -4,4"/>
<text text-anchor="start" x="354.51" y="-42.4" font-family="Times-12" font-weight="bold" font-size="14.00">Legend</text>
<polygon fill="#ffffb3" stroke="transparent" points="141.5,-10 141.5,-30 161.5,-30 161.5,-10 141.5,-10"/>
<text text-anchor="start" x="165.13" y="-15.4" font-family="Times-12" font-size="14.00"> &#160;Declarations</text>
<polygon fill="#8dd3c7" stroke="transparent" points="254.5,-10 254.5,-30 274.5,-30 274.5,-10 254.5,-10"/>
<text text-anchor="start" x="278.23" y="-15.4" font-family="Times-12" font-size="14.00"> &#160;Module</text>
<polygon fill="#80b1d3" stroke="transparent" points="340.5,-10 340.5,-30 360.5,-30 360.5,-10 340.5,-10"/>
<text text-anchor="start" x="364.28" y="-15.4" font-family="Times-12" font-size="14.00"> &#160;Bootstrap</text>
<polygon fill="#fdb462" stroke="transparent" points="437.5,-10 437.5,-30 457.5,-30 457.5,-10 437.5,-10"/>
<text text-anchor="start" x="461.17" y="-15.4" font-family="Times-12" font-size="14.00"> &#160;Providers</text>
<polygon fill="#fb8072" stroke="transparent" points="533.5,-10 533.5,-30 553.5,-30 553.5,-10 533.5,-10"/>
<text text-anchor="start" x="557.23" y="-15.4" font-family="Times-12" font-size="14.00"> &#160;Exports</text>
<g id="clust1" class="cluster">
<title>cluster_UsersAdminApiModule</title>
<polygon fill="none" stroke="black" stroke-dasharray="1,5" points="8,-70 8,-195 743,-195 743,-70 8,-70"/>
</g>
<g id="clust6" class="cluster">
<title>cluster_UsersAdminApiModule_providers</title>
<polygon fill="none" stroke="black" points="430,-78 430,-130 735,-130 735,-78 430,-78"/>
</g>
<g id="clust3" class="cluster">
<title>cluster_UsersAdminApiModule_imports</title>
<polygon fill="none" stroke="black" points="16,-78 16,-130 422,-130 422,-78 16,-78"/>
</g>
<!-- AuthorizationModule -->
<g id="node1" class="node">
<title>AuthorizationModule</title>
<polygon fill="#8dd3c7" stroke="black" points="413.81,-122 410.81,-126 389.81,-126 386.81,-122 276.19,-122 276.19,-86 413.81,-86 413.81,-122"/>
<text text-anchor="middle" x="345" y="-99.8" font-family="Times,serif" font-size="14.00">AuthorizationModule</text>
</g>
<!-- UsersAdminApiModule -->
<g id="node4" class="node">
<title>UsersAdminApiModule</title>
<polygon fill="#8dd3c7" stroke="black" points="420.81,-187 417.81,-191 396.81,-191 393.81,-187 269.19,-187 269.19,-151 420.81,-151 420.81,-187"/>
<text text-anchor="middle" x="345" y="-164.8" font-family="Times,serif" font-size="14.00">UsersAdminApiModule</text>
</g>
<!-- AuthorizationModule&#45;&gt;UsersAdminApiModule -->
<g id="edge1" class="edge">
<title>AuthorizationModule&#45;&gt;UsersAdminApiModule</title>
<path fill="none" stroke="black" d="M345,-122.11C345,-122.11 345,-140.99 345,-140.99"/>
<polygon fill="black" stroke="black" points="341.5,-140.99 345,-150.99 348.5,-140.99 341.5,-140.99"/>
</g>
<!-- RoleModule -->
<g id="node2" class="node">
<title>RoleModule</title>
<polygon fill="#8dd3c7" stroke="black" points="257.99,-122 254.99,-126 233.99,-126 230.99,-122 172.01,-122 172.01,-86 257.99,-86 257.99,-122"/>
<text text-anchor="middle" x="215" y="-99.8" font-family="Times,serif" font-size="14.00">RoleModule</text>
</g>
<!-- RoleModule&#45;&gt;UsersAdminApiModule -->
<g id="edge2" class="edge">
<title>RoleModule&#45;&gt;UsersAdminApiModule</title>
<path fill="none" stroke="black" d="M215,-122.02C215,-139.37 215,-163 215,-163 215,-163 259,-163 259,-163"/>
<polygon fill="black" stroke="black" points="259,-166.5 269,-163 259,-159.5 259,-166.5"/>
</g>
<!-- UsersAdminModule -->
<g id="node3" class="node">
<title>UsersAdminModule</title>
<polygon fill="#8dd3c7" stroke="black" points="154.31,-122 151.31,-126 130.31,-126 127.31,-122 23.69,-122 23.69,-86 154.31,-86 154.31,-122"/>
<text text-anchor="middle" x="89" y="-99.8" font-family="Times,serif" font-size="14.00">UsersAdminModule</text>
</g>
<!-- UsersAdminModule&#45;&gt;UsersAdminApiModule -->
<g id="edge3" class="edge">
<title>UsersAdminModule&#45;&gt;UsersAdminApiModule</title>
<path fill="none" stroke="black" d="M89,-122.28C89,-143.32 89,-175 89,-175 89,-175 259.23,-175 259.23,-175"/>
<polygon fill="black" stroke="black" points="259.23,-178.5 269.23,-175 259.23,-171.5 259.23,-178.5"/>
</g>
<!-- UserRepo -->
<g id="node5" class="node">
<title>UserRepo</title>
<ellipse fill="#fdb462" stroke="black" cx="677" cy="-104" rx="49.8" ry="18"/>
<text text-anchor="middle" x="677" y="-99.8" font-family="Times,serif" font-size="14.00">UserRepo</text>
</g>
<!-- UserRepo&#45;&gt;UsersAdminApiModule -->
<g id="edge4" class="edge">
<title>UserRepo&#45;&gt;UsersAdminApiModule</title>
<path fill="none" stroke="black" d="M677,-122.28C677,-143.32 677,-175 677,-175 677,-175 430.75,-175 430.75,-175"/>
<polygon fill="black" stroke="black" points="430.75,-171.5 420.75,-175 430.75,-178.5 430.75,-171.5"/>
</g>
<!-- UsersAdminApiUc -->
<g id="node6" class="node">
<title>UsersAdminApiUc</title>
<ellipse fill="#fdb462" stroke="black" cx="524" cy="-104" rx="85.67" ry="18"/>
<text text-anchor="middle" x="524" y="-99.8" font-family="Times,serif" font-size="14.00">UsersAdminApiUc</text>
</g>
<!-- UsersAdminApiUc&#45;&gt;UsersAdminApiModule -->
<g id="edge5" class="edge">
<title>UsersAdminApiUc&#45;&gt;UsersAdminApiModule</title>
<path fill="none" stroke="black" d="M524,-122.02C524,-139.37 524,-163 524,-163 524,-163 430.91,-163 430.91,-163"/>
<polygon fill="black" stroke="black" points="430.91,-159.5 420.91,-163 430.91,-166.5 430.91,-159.5"/>
</g>
</g>
</svg>
