<?xml version="1.0" encoding="UTF-8" standalone="no"?>
<!DOCTYPE svg PUBLIC "-//W3C//DTD SVG 1.1//EN"
 "http://www.w3.org/Graphics/SVG/1.1/DTD/svg11.dtd">
<!-- Generated by graphviz version 2.47.0 (20210316.0004)
 -->
<!-- Title: dependencies Pages: 1 -->
<svg width="1112pt" height="211pt"
 viewBox="0.00 0.00 1112.00 211.00" xmlns="http://www.w3.org/2000/svg" xmlns:xlink="http://www.w3.org/1999/xlink">
<g id="graph0" class="graph" transform="scale(1 1) rotate(0) translate(4 207)">
<title>dependencies</title>
<polygon fill="white" stroke="transparent" points="-4,4 -4,-207 1108,-207 1108,4 -4,4"/>
<text text-anchor="start" x="531.01" y="-42.4" font-family="Times-12" font-weight="bold" font-size="14.00">Legend</text>
<polygon fill="#ffffb3" stroke="transparent" points="318,-10 318,-30 338,-30 338,-10 318,-10"/>
<text text-anchor="start" x="341.63" y="-15.4" font-family="Times-12" font-size="14.00"> &#160;Declarations</text>
<polygon fill="#8dd3c7" stroke="transparent" points="431,-10 431,-30 451,-30 451,-10 431,-10"/>
<text text-anchor="start" x="454.73" y="-15.4" font-family="Times-12" font-size="14.00"> &#160;Module</text>
<polygon fill="#80b1d3" stroke="transparent" points="517,-10 517,-30 537,-30 537,-10 517,-10"/>
<text text-anchor="start" x="540.78" y="-15.4" font-family="Times-12" font-size="14.00"> &#160;Bootstrap</text>
<polygon fill="#fdb462" stroke="transparent" points="614,-10 614,-30 634,-30 634,-10 614,-10"/>
<text text-anchor="start" x="637.67" y="-15.4" font-family="Times-12" font-size="14.00"> &#160;Providers</text>
<polygon fill="#fb8072" stroke="transparent" points="710,-10 710,-30 730,-30 730,-10 710,-10"/>
<text text-anchor="start" x="733.73" y="-15.4" font-family="Times-12" font-size="14.00"> &#160;Exports</text>
<g id="clust1" class="cluster">
<title>cluster_AdminApiServerTestModule</title>
<polygon fill="none" stroke="black" stroke-dasharray="1,5" points="8,-70 8,-195 1096,-195 1096,-70 8,-70"/>
</g>
<g id="clust3" class="cluster">
<title>cluster_AdminApiServerTestModule_imports</title>
<polygon fill="none" stroke="black" points="16,-78 16,-130 1088,-130 1088,-78 16,-78"/>
</g>
<!-- DeletionApiModule -->
<g id="node1" class="node">
<title>DeletionApiModule</title>
<polygon fill="#8dd3c7" stroke="black" points="1080.25,-122 1077.25,-126 1056.25,-126 1053.25,-122 951.75,-122 951.75,-86 1080.25,-86 1080.25,-122"/>
<text text-anchor="middle" x="1016" y="-99.8" font-family="Times,serif" font-size="14.00">DeletionApiModule</text>
</g>
<!-- AdminApiServerTestModule -->
<g id="node7" class="node">
<title>AdminApiServerTestModule</title>
<polygon fill="#8dd3c7" stroke="black" points="672.07,-187 669.07,-191 648.07,-191 645.07,-187 491.93,-187 491.93,-151 672.07,-151 672.07,-187"/>
<text text-anchor="middle" x="582" y="-164.8" font-family="Times,serif" font-size="14.00">AdminApiServerTestModule</text>
</g>
<!-- DeletionApiModule&#45;&gt;AdminApiServerTestModule -->
<g id="edge1" class="edge">
<title>DeletionApiModule&#45;&gt;AdminApiServerTestModule</title>
<path fill="none" stroke="black" d="M1016,-122.28C1016,-143.32 1016,-175 1016,-175 1016,-175 682.19,-175 682.19,-175"/>
<polygon fill="black" stroke="black" points="682.19,-171.5 672.19,-175 682.19,-178.5 682.19,-171.5"/>
</g>
<!-- LegacySchoolAdminApiModule -->
<g id="node2" class="node">
<title>LegacySchoolAdminApiModule</title>
<polygon fill="#8dd3c7" stroke="black" points="933.52,-122 930.52,-126 909.52,-126 906.52,-122 734.48,-122 734.48,-86 933.52,-86 933.52,-122"/>
<text text-anchor="middle" x="834" y="-99.8" font-family="Times,serif" font-size="14.00">LegacySchoolAdminApiModule</text>
</g>
<!-- LegacySchoolAdminApiModule&#45;&gt;AdminApiServerTestModule -->
<g id="edge2" class="edge">
<title>LegacySchoolAdminApiModule&#45;&gt;AdminApiServerTestModule</title>
<path fill="none" stroke="black" d="M834,-122.02C834,-139.37 834,-163 834,-163 834,-163 682.27,-163 682.27,-163"/>
<polygon fill="black" stroke="black" points="682.27,-159.5 672.27,-163 682.27,-166.5 682.27,-159.5"/>
</g>
<!-- LoggerModule -->
<g id="node3" class="node">
<title>LoggerModule</title>
<polygon fill="#8dd3c7" stroke="black" points="715.98,-122 712.98,-126 691.98,-126 688.98,-122 616.02,-122 616.02,-86 715.98,-86 715.98,-122"/>
<text text-anchor="middle" x="666" y="-99.8" font-family="Times,serif" font-size="14.00">LoggerModule</text>
</g>
<!-- LoggerModule&#45;&gt;AdminApiServerTestModule -->
<g id="edge3" class="edge">
<title>LoggerModule&#45;&gt;AdminApiServerTestModule</title>
<path fill="none" stroke="black" d="M644.02,-122.11C644.02,-122.11 644.02,-140.99 644.02,-140.99"/>
<polygon fill="black" stroke="black" points="640.52,-140.99 644.02,-150.99 647.52,-140.99 640.52,-140.99"/>
</g>
<!-- MongoMemoryDatabaseModule -->
<g id="node4" class="node">
<title>MongoMemoryDatabaseModule</title>
<polygon fill="#8dd3c7" stroke="black" points="597.51,-122 594.51,-126 573.51,-126 570.51,-122 398.49,-122 398.49,-86 597.51,-86 597.51,-122"/>
<text text-anchor="middle" x="498" y="-99.8" font-family="Times,serif" font-size="14.00">MongoMemoryDatabaseModule</text>
</g>
<!-- MongoMemoryDatabaseModule&#45;&gt;AdminApiServerTestModule -->
<g id="edge4" class="edge">
<title>MongoMemoryDatabaseModule&#45;&gt;AdminApiServerTestModule</title>
<path fill="none" stroke="black" d="M544.86,-122.11C544.86,-122.11 544.86,-140.99 544.86,-140.99"/>
<polygon fill="black" stroke="black" points="541.36,-140.99 544.86,-150.99 548.36,-140.99 541.36,-140.99"/>
</g>
<!-- RabbitMQWrapperTestModule -->
<g id="node5" class="node">
<title>RabbitMQWrapperTestModule</title>
<polygon fill="#8dd3c7" stroke="black" points="380,-122 377,-126 356,-126 353,-122 188,-122 188,-86 380,-86 380,-122"/>
<text text-anchor="middle" x="284" y="-99.8" font-family="Times,serif" font-size="14.00">RabbitMQWrapperTestModule</text>
</g>
<!-- RabbitMQWrapperTestModule&#45;&gt;AdminApiServerTestModule -->
<g id="edge5" class="edge">
<title>RabbitMQWrapperTestModule&#45;&gt;AdminApiServerTestModule</title>
<path fill="none" stroke="black" d="M284,-122.02C284,-139.37 284,-163 284,-163 284,-163 481.78,-163 481.78,-163"/>
<polygon fill="black" stroke="black" points="481.78,-166.5 491.78,-163 481.78,-159.5 481.78,-166.5"/>
</g>
<!-- UserAdminApiModule -->
<g id="node6" class="node">
<title>UserAdminApiModule</title>
<polygon fill="#8dd3c7" stroke="black" points="169.86,-122 166.86,-126 145.86,-126 142.86,-122 24.14,-122 24.14,-86 169.86,-86 169.86,-122"/>
<text text-anchor="middle" x="97" y="-99.8" font-family="Times,serif" font-size="14.00">UserAdminApiModule</text>
</g>
<!-- UserAdminApiModule&#45;&gt;AdminApiServerTestModule -->
<g id="edge6" class="edge">
<title>UserAdminApiModule&#45;&gt;AdminApiServerTestModule</title>
<path fill="none" stroke="black" d="M97,-122.28C97,-143.32 97,-175 97,-175 97,-175 481.91,-175 481.91,-175"/>
<polygon fill="black" stroke="black" points="481.91,-178.5 491.91,-175 481.91,-171.5 481.91,-178.5"/>
</g>
</g>
</svg>
