<?xml version="1.0" encoding="UTF-8" standalone="no"?>
<!DOCTYPE svg PUBLIC "-//W3C//DTD SVG 1.1//EN"
 "http://www.w3.org/Graphics/SVG/1.1/DTD/svg11.dtd">
<!-- Generated by graphviz version 2.47.0 (20210316.0004)
 -->
<!-- Title: dependencies Pages: 1 -->
<svg width="1276pt" height="211pt"
 viewBox="0.00 0.00 1276.00 211.00" xmlns="http://www.w3.org/2000/svg" xmlns:xlink="http://www.w3.org/1999/xlink">
<g id="graph0" class="graph" transform="scale(1 1) rotate(0) translate(4 207)">
<title>dependencies</title>
<polygon fill="white" stroke="transparent" points="-4,4 -4,-207 1272,-207 1272,4 -4,4"/>
<text text-anchor="start" x="613.01" y="-42.4" font-family="Times-12" font-weight="bold" font-size="14.00">Legend</text>
<polygon fill="#ffffb3" stroke="transparent" points="400,-10 400,-30 420,-30 420,-10 400,-10"/>
<text text-anchor="start" x="423.63" y="-15.4" font-family="Times-12" font-size="14.00"> &#160;Declarations</text>
<polygon fill="#8dd3c7" stroke="transparent" points="513,-10 513,-30 533,-30 533,-10 513,-10"/>
<text text-anchor="start" x="536.73" y="-15.4" font-family="Times-12" font-size="14.00"> &#160;Module</text>
<polygon fill="#80b1d3" stroke="transparent" points="599,-10 599,-30 619,-30 619,-10 599,-10"/>
<text text-anchor="start" x="622.78" y="-15.4" font-family="Times-12" font-size="14.00"> &#160;Bootstrap</text>
<polygon fill="#fdb462" stroke="transparent" points="696,-10 696,-30 716,-30 716,-10 696,-10"/>
<text text-anchor="start" x="719.67" y="-15.4" font-family="Times-12" font-size="14.00"> &#160;Providers</text>
<polygon fill="#fb8072" stroke="transparent" points="792,-10 792,-30 812,-30 812,-10 792,-10"/>
<text text-anchor="start" x="815.73" y="-15.4" font-family="Times-12" font-size="14.00"> &#160;Exports</text>
<g id="clust1" class="cluster">
<title>cluster_AdminApiServerTestModule</title>
<polygon fill="none" stroke="black" stroke-dasharray="1,5" points="8,-70 8,-195 1260,-195 1260,-70 8,-70"/>
</g>
<g id="clust3" class="cluster">
<title>cluster_AdminApiServerTestModule_imports</title>
<polygon fill="none" stroke="black" points="16,-78 16,-130 1252,-130 1252,-78 16,-78"/>
</g>
<!-- DeletionApiModule -->
<g id="node1" class="node">
<title>DeletionApiModule</title>
<polygon fill="#8dd3c7" stroke="black" points="1244.25,-122 1241.25,-126 1220.25,-126 1217.25,-122 1115.75,-122 1115.75,-86 1244.25,-86 1244.25,-122"/>
<text text-anchor="middle" x="1180" y="-99.8" font-family="Times,serif" font-size="14.00">DeletionApiModule</text>
</g>
<!-- AdminApiServerTestModule -->
<g id="node8" class="node">
<title>AdminApiServerTestModule</title>
<polygon fill="#8dd3c7" stroke="black" points="752.07,-187 749.07,-191 728.07,-191 725.07,-187 571.93,-187 571.93,-151 752.07,-151 752.07,-187"/>
<text text-anchor="middle" x="662" y="-164.8" font-family="Times,serif" font-size="14.00">AdminApiServerTestModule</text>
</g>
<!-- DeletionApiModule&#45;&gt;AdminApiServerTestModule -->
<g id="edge1" class="edge">
<title>DeletionApiModule&#45;&gt;AdminApiServerTestModule</title>
<path fill="none" stroke="black" d="M1180,-122.29C1180,-144.21 1180,-178 1180,-178 1180,-178 762.23,-178 762.23,-178"/>
<polygon fill="black" stroke="black" points="762.23,-174.5 752.23,-178 762.23,-181.5 762.23,-174.5"/>
</g>
<!-- LegacySchoolAdminApiModule -->
<g id="node2" class="node">
<title>LegacySchoolAdminApiModule</title>
<polygon fill="#8dd3c7" stroke="black" points="1097.52,-122 1094.52,-126 1073.52,-126 1070.52,-122 898.48,-122 898.48,-86 1097.52,-86 1097.52,-122"/>
<text text-anchor="middle" x="998" y="-99.8" font-family="Times,serif" font-size="14.00">LegacySchoolAdminApiModule</text>
</g>
<!-- LegacySchoolAdminApiModule&#45;&gt;AdminApiServerTestModule -->
<g id="edge2" class="edge">
<title>LegacySchoolAdminApiModule&#45;&gt;AdminApiServerTestModule</title>
<path fill="none" stroke="black" d="M998,-122.11C998,-141.34 998,-169 998,-169 998,-169 762.04,-169 762.04,-169"/>
<polygon fill="black" stroke="black" points="762.04,-165.5 752.04,-169 762.04,-172.5 762.04,-165.5"/>
</g>
<!-- LoggerModule -->
<g id="node3" class="node">
<title>LoggerModule</title>
<polygon fill="#8dd3c7" stroke="black" points="879.98,-122 876.98,-126 855.98,-126 852.98,-122 780.02,-122 780.02,-86 879.98,-86 879.98,-122"/>
<text text-anchor="middle" x="830" y="-99.8" font-family="Times,serif" font-size="14.00">LoggerModule</text>
</g>
<!-- LoggerModule&#45;&gt;AdminApiServerTestModule -->
<g id="edge3" class="edge">
<title>LoggerModule&#45;&gt;AdminApiServerTestModule</title>
<path fill="none" stroke="black" d="M830,-122.03C830,-138.4 830,-160 830,-160 830,-160 762.39,-160 762.39,-160"/>
<polygon fill="black" stroke="black" points="762.39,-156.5 752.39,-160 762.39,-163.5 762.39,-156.5"/>
</g>
<!-- MongoMemoryDatabaseModule -->
<g id="node4" class="node">
<title>MongoMemoryDatabaseModule</title>
<polygon fill="#8dd3c7" stroke="black" points="761.51,-122 758.51,-126 737.51,-126 734.51,-122 562.49,-122 562.49,-86 761.51,-86 761.51,-122"/>
<text text-anchor="middle" x="662" y="-99.8" font-family="Times,serif" font-size="14.00">MongoMemoryDatabaseModule</text>
</g>
<!-- MongoMemoryDatabaseModule&#45;&gt;AdminApiServerTestModule -->
<g id="edge4" class="edge">
<title>MongoMemoryDatabaseModule&#45;&gt;AdminApiServerTestModule</title>
<path fill="none" stroke="black" d="M662,-122.11C662,-122.11 662,-140.99 662,-140.99"/>
<polygon fill="black" stroke="black" points="658.5,-140.99 662,-150.99 665.5,-140.99 658.5,-140.99"/>
</g>
<!-- RabbitMQWrapperTestModule -->
<g id="node5" class="node">
<title>RabbitMQWrapperTestModule</title>
<polygon fill="#8dd3c7" stroke="black" points="544,-122 541,-126 520,-126 517,-122 352,-122 352,-86 544,-86 544,-122"/>
<text text-anchor="middle" x="448" y="-99.8" font-family="Times,serif" font-size="14.00">RabbitMQWrapperTestModule</text>
</g>
<!-- RabbitMQWrapperTestModule&#45;&gt;AdminApiServerTestModule -->
<g id="edge5" class="edge">
<title>RabbitMQWrapperTestModule&#45;&gt;AdminApiServerTestModule</title>
<path fill="none" stroke="black" d="M448,-122.03C448,-138.4 448,-160 448,-160 448,-160 561.86,-160 561.86,-160"/>
<polygon fill="black" stroke="black" points="561.87,-163.5 571.86,-160 561.86,-156.5 561.87,-163.5"/>
</g>
<!-- ToolAdminApiModule -->
<g id="node6" class="node">
<title>ToolAdminApiModule</title>
<polygon fill="#8dd3c7" stroke="black" points="333.88,-122 330.88,-126 309.88,-126 306.88,-122 188.12,-122 188.12,-86 333.88,-86 333.88,-122"/>
<text text-anchor="middle" x="261" y="-99.8" font-family="Times,serif" font-size="14.00">ToolAdminApiModule</text>
</g>
<!-- ToolAdminApiModule&#45;&gt;AdminApiServerTestModule -->
<g id="edge6" class="edge">
<title>ToolAdminApiModule&#45;&gt;AdminApiServerTestModule</title>
<path fill="none" stroke="black" d="M261,-122.11C261,-141.34 261,-169 261,-169 261,-169 561.51,-169 561.51,-169"/>
<polygon fill="black" stroke="black" points="561.51,-172.5 571.51,-169 561.51,-165.5 561.51,-172.5"/>
</g>
<!-- UserAdminApiModule -->
<g id="node7" class="node">
<title>UserAdminApiModule</title>
<polygon fill="#8dd3c7" stroke="black" points="169.86,-122 166.86,-126 145.86,-126 142.86,-122 24.14,-122 24.14,-86 169.86,-86 169.86,-122"/>
<text text-anchor="middle" x="97" y="-99.8" font-family="Times,serif" font-size="14.00">UserAdminApiModule</text>
</g>
<!-- UserAdminApiModule&#45;&gt;AdminApiServerTestModule -->
<g id="edge7" class="edge">
<title>UserAdminApiModule&#45;&gt;AdminApiServerTestModule</title>
<path fill="none" stroke="black" d="M97,-122.29C97,-144.21 97,-178 97,-178 97,-178 561.85,-178 561.85,-178"/>
<polygon fill="black" stroke="black" points="561.85,-181.5 571.85,-178 561.85,-174.5 561.85,-181.5"/>
</g>
</g>
</svg>
