<?xml version="1.0" encoding="UTF-8" standalone="no"?>
<!DOCTYPE svg PUBLIC "-//W3C//DTD SVG 1.1//EN"
 "http://www.w3.org/Graphics/SVG/1.1/DTD/svg11.dtd">
<!-- Generated by graphviz version 2.47.0 (20210316.0004)
 -->
<!-- Title: dependencies Pages: 1 -->
<svg width="868pt" height="211pt"
 viewBox="0.00 0.00 868.00 211.00" xmlns="http://www.w3.org/2000/svg" xmlns:xlink="http://www.w3.org/1999/xlink">
<g id="graph0" class="graph" transform="scale(1 1) rotate(0) translate(4 207)">
<title>dependencies</title>
<polygon fill="white" stroke="transparent" points="-4,4 -4,-207 864,-207 864,4 -4,4"/>
<text text-anchor="start" x="409.01" y="-42.4" font-family="Times-12" font-weight="bold" font-size="14.00">Legend</text>
<polygon fill="#ffffb3" stroke="transparent" points="196,-10 196,-30 216,-30 216,-10 196,-10"/>
<text text-anchor="start" x="219.63" y="-15.4" font-family="Times-12" font-size="14.00"> &#160;Declarations</text>
<polygon fill="#8dd3c7" stroke="transparent" points="309,-10 309,-30 329,-30 329,-10 309,-10"/>
<text text-anchor="start" x="332.73" y="-15.4" font-family="Times-12" font-size="14.00"> &#160;Module</text>
<polygon fill="#80b1d3" stroke="transparent" points="395,-10 395,-30 415,-30 415,-10 395,-10"/>
<text text-anchor="start" x="418.78" y="-15.4" font-family="Times-12" font-size="14.00"> &#160;Bootstrap</text>
<polygon fill="#fdb462" stroke="transparent" points="492,-10 492,-30 512,-30 512,-10 492,-10"/>
<text text-anchor="start" x="515.67" y="-15.4" font-family="Times-12" font-size="14.00"> &#160;Providers</text>
<polygon fill="#fb8072" stroke="transparent" points="588,-10 588,-30 608,-30 608,-10 588,-10"/>
<text text-anchor="start" x="611.73" y="-15.4" font-family="Times-12" font-size="14.00"> &#160;Exports</text>
<g id="clust1" class="cluster">
<title>cluster_DeletionConsoleModule</title>
<polygon fill="none" stroke="black" stroke-dasharray="1,5" points="8,-70 8,-195 852,-195 852,-70 8,-70"/>
</g>
<g id="clust6" class="cluster">
<title>cluster_DeletionConsoleModule_providers</title>
<polygon fill="none" stroke="black" points="308,-78 308,-130 844,-130 844,-78 308,-78"/>
</g>
<g id="clust3" class="cluster">
<title>cluster_DeletionConsoleModule_imports</title>
<polygon fill="none" stroke="black" points="16,-78 16,-130 300,-130 300,-78 16,-78"/>
</g>
<!-- ConsoleWriterModule -->
<g id="node1" class="node">
<title>ConsoleWriterModule</title>
<polygon fill="#8dd3c7" stroke="black" points="291.97,-122 288.97,-126 267.97,-126 264.97,-122 150.03,-122 150.03,-86 291.97,-86 291.97,-122"/>
<text text-anchor="middle" x="221" y="-99.8" font-family="Times,serif" font-size="14.00">ConsoleWriterModule</text>
</g>
<!-- DeletionConsoleModule -->
<g id="node3" class="node">
<title>DeletionConsoleModule</title>
<polygon fill="#8dd3c7" stroke="black" points="460.64,-187 457.64,-191 436.64,-191 433.64,-187 307.36,-187 307.36,-151 460.64,-151 460.64,-187"/>
<text text-anchor="middle" x="384" y="-164.8" font-family="Times,serif" font-size="14.00">DeletionConsoleModule</text>
</g>
<!-- ConsoleWriterModule&#45;&gt;DeletionConsoleModule -->
<g id="edge1" class="edge">
<title>ConsoleWriterModule&#45;&gt;DeletionConsoleModule</title>
<path fill="none" stroke="black" d="M291.97,-104C303.44,-104 311.64,-104 311.64,-104 311.64,-104 311.64,-140.89 311.64,-140.89"/>
<polygon fill="black" stroke="black" points="308.14,-140.89 311.64,-150.89 315.14,-140.89 308.14,-140.89"/>
</g>
<!-- DeletionModule -->
<g id="node2" class="node">
<title>DeletionModule</title>
<polygon fill="#8dd3c7" stroke="black" points="131.76,-122 128.76,-126 107.76,-126 104.76,-122 24.24,-122 24.24,-86 131.76,-86 131.76,-122"/>
<text text-anchor="middle" x="78" y="-99.8" font-family="Times,serif" font-size="14.00">DeletionModule</text>
</g>
<!-- DeletionModule&#45;&gt;DeletionConsoleModule -->
<g id="edge2" class="edge">
<title>DeletionModule&#45;&gt;DeletionConsoleModule</title>
<path fill="none" stroke="black" d="M78,-122.11C78,-141.34 78,-169 78,-169 78,-169 297.18,-169 297.18,-169"/>
<polygon fill="black" stroke="black" points="297.18,-172.5 307.18,-169 297.18,-165.5 297.18,-172.5"/>
</g>
<!-- BatchDeletionService -->
<g id="node4" class="node">
<title>BatchDeletionService</title>
<ellipse fill="#fdb462" stroke="black" cx="740" cy="-104" rx="95.54" ry="18"/>
<text text-anchor="middle" x="740" y="-99.8" font-family="Times,serif" font-size="14.00">BatchDeletionService</text>
</g>
<!-- BatchDeletionService&#45;&gt;DeletionConsoleModule -->
<g id="edge3" class="edge">
<title>BatchDeletionService&#45;&gt;DeletionConsoleModule</title>
<path fill="none" stroke="black" d="M740,-122.11C740,-141.34 740,-169 740,-169 740,-169 470.81,-169 470.81,-169"/>
<polygon fill="black" stroke="black" points="470.81,-165.5 460.81,-169 470.81,-172.5 470.81,-165.5"/>
</g>
<!-- BatchDeletionUc -->
<g id="node5" class="node">
<title>BatchDeletionUc</title>
<ellipse fill="#fdb462" stroke="black" cx="548" cy="-104" rx="78.15" ry="18"/>
<text text-anchor="middle" x="548" y="-99.8" font-family="Times,serif" font-size="14.00">BatchDeletionUc</text>
</g>
<!-- BatchDeletionUc&#45;&gt;DeletionConsoleModule -->
<g id="edge4" class="edge">
<title>BatchDeletionUc&#45;&gt;DeletionConsoleModule</title>
<path fill="none" stroke="black" d="M469.88,-104C461.73,-104 456.36,-104 456.36,-104 456.36,-104 456.36,-140.89 456.36,-140.89"/>
<polygon fill="black" stroke="black" points="452.86,-140.89 456.36,-150.89 459.86,-140.89 452.86,-140.89"/>
</g>
<!-- DeletionClient -->
<g id="node6" class="node">
<title>DeletionClient</title>
<ellipse fill="#fdb462" stroke="black" cx="384" cy="-104" rx="67.79" ry="18"/>
<text text-anchor="middle" x="384" y="-99.8" font-family="Times,serif" font-size="14.00">DeletionClient</text>
</g>
<!-- DeletionClient&#45;&gt;DeletionConsoleModule -->
<g id="edge5" class="edge">
<title>DeletionClient&#45;&gt;DeletionConsoleModule</title>
<path fill="none" stroke="black" d="M384,-122.11C384,-122.11 384,-140.99 384,-140.99"/>
<polygon fill="black" stroke="black" points="380.5,-140.99 384,-150.99 387.5,-140.99 380.5,-140.99"/>
</g>
</g>
</svg>
