<?xml version="1.0" encoding="UTF-8" standalone="no"?>
<!DOCTYPE svg PUBLIC "-//W3C//DTD SVG 1.1//EN"
 "http://www.w3.org/Graphics/SVG/1.1/DTD/svg11.dtd">
<!-- Generated by graphviz version 2.47.0 (20210316.0004)
 -->
<!-- Title: dependencies Pages: 1 -->
<svg width="868pt" height="211pt"
 viewBox="0.00 0.00 868.00 211.00" xmlns="http://www.w3.org/2000/svg" xmlns:xlink="http://www.w3.org/1999/xlink">
<g id="graph0" class="graph" transform="scale(1 1) rotate(0) translate(4 207)">
<title>dependencies</title>
<polygon fill="white" stroke="transparent" points="-4,4 -4,-207 864,-207 864,4 -4,4"/>
<text text-anchor="start" x="409.01" y="-42.4" font-family="Times-12" font-weight="bold" font-size="14.00">Legend</text>
<polygon fill="#ffffb3" stroke="transparent" points="196,-10 196,-30 216,-30 216,-10 196,-10"/>
<text text-anchor="start" x="219.63" y="-15.4" font-family="Times-12" font-size="14.00"> &#160;Declarations</text>
<polygon fill="#8dd3c7" stroke="transparent" points="309,-10 309,-30 329,-30 329,-10 309,-10"/>
<text text-anchor="start" x="332.73" y="-15.4" font-family="Times-12" font-size="14.00"> &#160;Module</text>
<polygon fill="#80b1d3" stroke="transparent" points="395,-10 395,-30 415,-30 415,-10 395,-10"/>
<text text-anchor="start" x="418.78" y="-15.4" font-family="Times-12" font-size="14.00"> &#160;Bootstrap</text>
<polygon fill="#fdb462" stroke="transparent" points="492,-10 492,-30 512,-30 512,-10 492,-10"/>
<text text-anchor="start" x="515.67" y="-15.4" font-family="Times-12" font-size="14.00"> &#160;Providers</text>
<polygon fill="#fb8072" stroke="transparent" points="588,-10 588,-30 608,-30 608,-10 588,-10"/>
<text text-anchor="start" x="611.73" y="-15.4" font-family="Times-12" font-size="14.00"> &#160;Exports</text>
<g id="clust1" class="cluster">
<title>cluster_DeletionConsoleModule</title>
<polygon fill="none" stroke="black" stroke-dasharray="1,5" points="8,-70 8,-195 852,-195 852,-70 8,-70"/>
</g>
<g id="clust3" class="cluster">
<title>cluster_DeletionConsoleModule_imports</title>
<polygon fill="none" stroke="black" points="560,-78 560,-130 844,-130 844,-78 560,-78"/>
</g>
<g id="clust6" class="cluster">
<title>cluster_DeletionConsoleModule_providers</title>
<polygon fill="none" stroke="black" points="16,-78 16,-130 552,-130 552,-78 16,-78"/>
</g>
<!-- ConsoleWriterModule -->
<g id="node1" class="node">
<title>ConsoleWriterModule</title>
<polygon fill="#8dd3c7" stroke="black" points="835.97,-122 832.97,-126 811.97,-126 808.97,-122 694.03,-122 694.03,-86 835.97,-86 835.97,-122"/>
<text text-anchor="middle" x="765" y="-99.8" font-family="Times,serif" font-size="14.00">ConsoleWriterModule</text>
</g>
<!-- DeletionConsoleModule -->
<g id="node3" class="node">
<title>DeletionConsoleModule</title>
<polygon fill="#8dd3c7" stroke="black" points="524.64,-187 521.64,-191 500.64,-191 497.64,-187 371.36,-187 371.36,-151 524.64,-151 524.64,-187"/>
<text text-anchor="middle" x="448" y="-164.8" font-family="Times,serif" font-size="14.00">DeletionConsoleModule</text>
</g>
<!-- ConsoleWriterModule&#45;&gt;DeletionConsoleModule -->
<g id="edge1" class="edge">
<title>ConsoleWriterModule&#45;&gt;DeletionConsoleModule</title>
<path fill="none" stroke="black" d="M765,-122.28C765,-143.32 765,-175 765,-175 765,-175 534.74,-175 534.74,-175"/>
<polygon fill="black" stroke="black" points="534.74,-171.5 524.74,-175 534.74,-178.5 534.74,-171.5"/>
</g>
<!-- DeletionModule -->
<g id="node2" class="node">
<title>DeletionModule</title>
<polygon fill="#8dd3c7" stroke="black" points="675.76,-122 672.76,-126 651.76,-126 648.76,-122 568.24,-122 568.24,-86 675.76,-86 675.76,-122"/>
<text text-anchor="middle" x="622" y="-99.8" font-family="Times,serif" font-size="14.00">DeletionModule</text>
</g>
<!-- DeletionModule&#45;&gt;DeletionConsoleModule -->
<g id="edge2" class="edge">
<title>DeletionModule&#45;&gt;DeletionConsoleModule</title>
<path fill="none" stroke="black" d="M622,-122.02C622,-139.37 622,-163 622,-163 622,-163 534.83,-163 534.83,-163"/>
<polygon fill="black" stroke="black" points="534.83,-159.5 524.83,-163 534.83,-166.5 534.83,-159.5"/>
</g>
<!-- BatchDeletionService -->
<g id="node4" class="node">
<title>BatchDeletionService</title>
<ellipse fill="#fdb462" stroke="black" cx="448" cy="-104" rx="95.54" ry="18"/>
<text text-anchor="middle" x="448" y="-99.8" font-family="Times,serif" font-size="14.00">BatchDeletionService</text>
</g>
<!-- BatchDeletionService&#45;&gt;DeletionConsoleModule -->
<g id="edge3" class="edge">
<title>BatchDeletionService&#45;&gt;DeletionConsoleModule</title>
<path fill="none" stroke="black" d="M448,-122.11C448,-122.11 448,-140.99 448,-140.99"/>
<polygon fill="black" stroke="black" points="444.5,-140.99 448,-150.99 451.5,-140.99 444.5,-140.99"/>
</g>
<!-- BatchDeletionUc -->
<g id="node5" class="node">
<title>BatchDeletionUc</title>
<ellipse fill="#fdb462" stroke="black" cx="256" cy="-104" rx="78.15" ry="18"/>
<text text-anchor="middle" x="256" y="-99.8" font-family="Times,serif" font-size="14.00">BatchDeletionUc</text>
</g>
<!-- BatchDeletionUc&#45;&gt;DeletionConsoleModule -->
<g id="edge4" class="edge">
<title>BatchDeletionUc&#45;&gt;DeletionConsoleModule</title>
<path fill="none" stroke="black" d="M256,-122.02C256,-139.37 256,-163 256,-163 256,-163 361.29,-163 361.29,-163"/>
<polygon fill="black" stroke="black" points="361.29,-166.5 371.29,-163 361.29,-159.5 361.29,-166.5"/>
</g>
<!-- DeletionClient -->
<g id="node6" class="node">
<title>DeletionClient</title>
<ellipse fill="#fdb462" stroke="black" cx="92" cy="-104" rx="67.79" ry="18"/>
<text text-anchor="middle" x="92" y="-99.8" font-family="Times,serif" font-size="14.00">DeletionClient</text>
</g>
<!-- DeletionClient&#45;&gt;DeletionConsoleModule -->
<g id="edge5" class="edge">
<title>DeletionClient&#45;&gt;DeletionConsoleModule</title>
<path fill="none" stroke="black" d="M92,-122.28C92,-143.32 92,-175 92,-175 92,-175 361.19,-175 361.19,-175"/>
<polygon fill="black" stroke="black" points="361.19,-178.5 371.19,-175 361.19,-171.5 361.19,-178.5"/>
</g>
</g>
</svg>
