<?xml version="1.0" encoding="UTF-8" standalone="no"?>
<!DOCTYPE svg PUBLIC "-//W3C//DTD SVG 1.1//EN"
 "http://www.w3.org/Graphics/SVG/1.1/DTD/svg11.dtd">
<!-- Generated by graphviz version 2.47.0 (20210316.0004)
 -->
<!-- Title: dependencies Pages: 1 -->
<svg width="742pt" height="211pt"
 viewBox="0.00 0.00 742.00 211.00" xmlns="http://www.w3.org/2000/svg" xmlns:xlink="http://www.w3.org/1999/xlink">
<g id="graph0" class="graph" transform="scale(1 1) rotate(0) translate(4 207)">
<title>dependencies</title>
<polygon fill="white" stroke="transparent" points="-4,4 -4,-207 738,-207 738,4 -4,4"/>
<text text-anchor="start" x="346.01" y="-42.4" font-family="Times-12" font-weight="bold" font-size="14.00">Legend</text>
<polygon fill="#ffffb3" stroke="transparent" points="133,-10 133,-30 153,-30 153,-10 133,-10"/>
<text text-anchor="start" x="156.63" y="-15.4" font-family="Times-12" font-size="14.00"> &#160;Declarations</text>
<polygon fill="#8dd3c7" stroke="transparent" points="246,-10 246,-30 266,-30 266,-10 246,-10"/>
<text text-anchor="start" x="269.73" y="-15.4" font-family="Times-12" font-size="14.00"> &#160;Module</text>
<polygon fill="#80b1d3" stroke="transparent" points="332,-10 332,-30 352,-30 352,-10 332,-10"/>
<text text-anchor="start" x="355.78" y="-15.4" font-family="Times-12" font-size="14.00"> &#160;Bootstrap</text>
<polygon fill="#fdb462" stroke="transparent" points="429,-10 429,-30 449,-30 449,-10 429,-10"/>
<text text-anchor="start" x="452.67" y="-15.4" font-family="Times-12" font-size="14.00"> &#160;Providers</text>
<polygon fill="#fb8072" stroke="transparent" points="525,-10 525,-30 545,-30 545,-10 525,-10"/>
<text text-anchor="start" x="548.73" y="-15.4" font-family="Times-12" font-size="14.00"> &#160;Exports</text>
<g id="clust1" class="cluster">
<title>cluster_DeletionConsoleModule</title>
<polygon fill="none" stroke="black" stroke-dasharray="1,5" points="8,-70 8,-195 726,-195 726,-70 8,-70"/>
</g>
<g id="clust3" class="cluster">
<title>cluster_DeletionConsoleModule_imports</title>
<polygon fill="none" stroke="black" points="560,-78 560,-130 718,-130 718,-78 560,-78"/>
</g>
<g id="clust6" class="cluster">
<title>cluster_DeletionConsoleModule_providers</title>
<polygon fill="none" stroke="black" points="16,-78 16,-130 552,-130 552,-78 16,-78"/>
</g>
<!-- ConsoleWriterModule -->
<g id="node1" class="node">
<title>ConsoleWriterModule</title>
<polygon fill="#8dd3c7" stroke="black" points="709.97,-122 706.97,-126 685.97,-126 682.97,-122 568.03,-122 568.03,-86 709.97,-86 709.97,-122"/>
<text text-anchor="middle" x="639" y="-99.8" font-family="Times,serif" font-size="14.00">ConsoleWriterModule</text>
</g>
<!-- DeletionConsoleModule -->
<g id="node2" class="node">
<title>DeletionConsoleModule</title>
<polygon fill="#8dd3c7" stroke="black" points="428.64,-187 425.64,-191 404.64,-191 401.64,-187 275.36,-187 275.36,-151 428.64,-151 428.64,-187"/>
<text text-anchor="middle" x="352" y="-164.8" font-family="Times,serif" font-size="14.00">DeletionConsoleModule</text>
</g>
<!-- ConsoleWriterModule&#45;&gt;DeletionConsoleModule -->
<g id="edge1" class="edge">
<title>ConsoleWriterModule&#45;&gt;DeletionConsoleModule</title>
<path fill="none" stroke="black" d="M639,-122.11C639,-141.34 639,-169 639,-169 639,-169 438.91,-169 438.91,-169"/>
<polygon fill="black" stroke="black" points="438.91,-165.5 428.91,-169 438.91,-172.5 438.91,-165.5"/>
</g>
<!-- BatchDeletionService -->
<g id="node3" class="node">
<title>BatchDeletionService</title>
<ellipse fill="#fdb462" stroke="black" cx="448" cy="-104" rx="95.54" ry="18"/>
<text text-anchor="middle" x="448" y="-99.8" font-family="Times,serif" font-size="14.00">BatchDeletionService</text>
</g>
<!-- BatchDeletionService&#45;&gt;DeletionConsoleModule -->
<g id="edge2" class="edge">
<title>BatchDeletionService&#45;&gt;DeletionConsoleModule</title>
<path fill="none" stroke="black" d="M390.53,-118.43C390.53,-118.43 390.53,-140.89 390.53,-140.89"/>
<polygon fill="black" stroke="black" points="387.03,-140.89 390.53,-150.89 394.03,-140.89 387.03,-140.89"/>
</g>
<!-- BatchDeletionUc -->
<g id="node4" class="node">
<title>BatchDeletionUc</title>
<ellipse fill="#fdb462" stroke="black" cx="256" cy="-104" rx="78.15" ry="18"/>
<text text-anchor="middle" x="256" y="-99.8" font-family="Times,serif" font-size="14.00">BatchDeletionUc</text>
</g>
<!-- BatchDeletionUc&#45;&gt;DeletionConsoleModule -->
<g id="edge3" class="edge">
<title>BatchDeletionUc&#45;&gt;DeletionConsoleModule</title>
<path fill="none" stroke="black" d="M304.63,-118.1C304.63,-118.1 304.63,-140.72 304.63,-140.72"/>
<polygon fill="black" stroke="black" points="301.13,-140.72 304.63,-150.72 308.13,-140.72 301.13,-140.72"/>
</g>
<!-- DeletionClient -->
<g id="node5" class="node">
<title>DeletionClient</title>
<ellipse fill="#fdb462" stroke="black" cx="92" cy="-104" rx="67.79" ry="18"/>
<text text-anchor="middle" x="92" y="-99.8" font-family="Times,serif" font-size="14.00">DeletionClient</text>
</g>
<!-- DeletionClient&#45;&gt;DeletionConsoleModule -->
<g id="edge4" class="edge">
<title>DeletionClient&#45;&gt;DeletionConsoleModule</title>
<path fill="none" stroke="black" d="M92,-122.11C92,-141.34 92,-169 92,-169 92,-169 265.05,-169 265.05,-169"/>
<polygon fill="black" stroke="black" points="265.05,-172.5 275.05,-169 265.05,-165.5 265.05,-172.5"/>
</g>
</g>
</svg>
