<?xml version="1.0" encoding="UTF-8" standalone="no"?>
<!DOCTYPE svg PUBLIC "-//W3C//DTD SVG 1.1//EN"
 "http://www.w3.org/Graphics/SVG/1.1/DTD/svg11.dtd">
<!-- Generated by graphviz version 2.47.0 (20210316.0004)
 -->
<!-- Title: dependencies Pages: 1 -->
<svg width="950pt" height="211pt"
 viewBox="0.00 0.00 950.00 211.00" xmlns="http://www.w3.org/2000/svg" xmlns:xlink="http://www.w3.org/1999/xlink">
<g id="graph0" class="graph" transform="scale(1 1) rotate(0) translate(4 207)">
<title>dependencies</title>
<polygon fill="white" stroke="transparent" points="-4,4 -4,-207 946,-207 946,4 -4,4"/>
<text text-anchor="start" x="450.01" y="-42.4" font-family="Times-12" font-weight="bold" font-size="14.00">Legend</text>
<polygon fill="#ffffb3" stroke="transparent" points="237,-10 237,-30 257,-30 257,-10 237,-10"/>
<text text-anchor="start" x="260.63" y="-15.4" font-family="Times-12" font-size="14.00"> &#160;Declarations</text>
<polygon fill="#8dd3c7" stroke="transparent" points="350,-10 350,-30 370,-30 370,-10 350,-10"/>
<text text-anchor="start" x="373.73" y="-15.4" font-family="Times-12" font-size="14.00"> &#160;Module</text>
<polygon fill="#80b1d3" stroke="transparent" points="436,-10 436,-30 456,-30 456,-10 436,-10"/>
<text text-anchor="start" x="459.78" y="-15.4" font-family="Times-12" font-size="14.00"> &#160;Bootstrap</text>
<polygon fill="#fdb462" stroke="transparent" points="533,-10 533,-30 553,-30 553,-10 533,-10"/>
<text text-anchor="start" x="556.67" y="-15.4" font-family="Times-12" font-size="14.00"> &#160;Providers</text>
<polygon fill="#fb8072" stroke="transparent" points="629,-10 629,-30 649,-30 649,-10 629,-10"/>
<text text-anchor="start" x="652.73" y="-15.4" font-family="Times-12" font-size="14.00"> &#160;Exports</text>
<g id="clust1" class="cluster">
<title>cluster_DeletionConsoleModule</title>
<polygon fill="none" stroke="black" stroke-dasharray="1,5" points="8,-70 8,-195 934,-195 934,-70 8,-70"/>
</g>
<g id="clust6" class="cluster">
<title>cluster_DeletionConsoleModule_providers</title>
<polygon fill="none" stroke="black" points="182,-78 182,-130 926,-130 926,-78 182,-78"/>
</g>
<g id="clust3" class="cluster">
<title>cluster_DeletionConsoleModule_imports</title>
<polygon fill="none" stroke="black" points="16,-78 16,-130 174,-130 174,-78 16,-78"/>
</g>
<!-- ConsoleWriterModule -->
<g id="node1" class="node">
<title>ConsoleWriterModule</title>
<polygon fill="#8dd3c7" stroke="black" points="165.97,-122 162.97,-126 141.97,-126 138.97,-122 24.03,-122 24.03,-86 165.97,-86 165.97,-122"/>
<text text-anchor="middle" x="95" y="-99.8" font-family="Times,serif" font-size="14.00">ConsoleWriterModule</text>
</g>
<!-- DeletionConsoleModule -->
<g id="node2" class="node">
<title>DeletionConsoleModule</title>
<polygon fill="#8dd3c7" stroke="black" points="542.64,-187 539.64,-191 518.64,-191 515.64,-187 389.36,-187 389.36,-151 542.64,-151 542.64,-187"/>
<text text-anchor="middle" x="466" y="-164.8" font-family="Times,serif" font-size="14.00">DeletionConsoleModule</text>
</g>
<!-- ConsoleWriterModule&#45;&gt;DeletionConsoleModule -->
<g id="edge1" class="edge">
<title>ConsoleWriterModule&#45;&gt;DeletionConsoleModule</title>
<path fill="none" stroke="black" d="M95,-122.11C95,-141.34 95,-169 95,-169 95,-169 379.13,-169 379.13,-169"/>
<polygon fill="black" stroke="black" points="379.13,-172.5 389.13,-169 379.13,-165.5 379.13,-172.5"/>
</g>
<!-- BatchDeletionService -->
<g id="node3" class="node">
<title>BatchDeletionService</title>
<ellipse fill="#fdb462" stroke="black" cx="822" cy="-104" rx="95.54" ry="18"/>
<text text-anchor="middle" x="822" y="-99.8" font-family="Times,serif" font-size="14.00">BatchDeletionService</text>
</g>
<!-- BatchDeletionService&#45;&gt;DeletionConsoleModule -->
<g id="edge2" class="edge">
<title>BatchDeletionService&#45;&gt;DeletionConsoleModule</title>
<path fill="none" stroke="black" d="M822,-122.11C822,-141.34 822,-169 822,-169 822,-169 552.81,-169 552.81,-169"/>
<polygon fill="black" stroke="black" points="552.81,-165.5 542.81,-169 552.81,-172.5 552.81,-165.5"/>
</g>
<!-- BatchDeletionUc -->
<g id="node4" class="node">
<title>BatchDeletionUc</title>
<ellipse fill="#fdb462" stroke="black" cx="630" cy="-104" rx="78.15" ry="18"/>
<text text-anchor="middle" x="630" y="-99.8" font-family="Times,serif" font-size="14.00">BatchDeletionUc</text>
</g>
<!-- BatchDeletionUc&#45;&gt;DeletionConsoleModule -->
<g id="edge3" class="edge">
<title>BatchDeletionUc&#45;&gt;DeletionConsoleModule</title>
<path fill="none" stroke="black" d="M551.88,-104C543.73,-104 538.36,-104 538.36,-104 538.36,-104 538.36,-140.89 538.36,-140.89"/>
<polygon fill="black" stroke="black" points="534.86,-140.89 538.36,-150.89 541.86,-140.89 534.86,-140.89"/>
</g>
<!-- DeletionClient -->
<g id="node5" class="node">
<title>DeletionClient</title>
<ellipse fill="#fdb462" stroke="black" cx="466" cy="-104" rx="67.79" ry="18"/>
<text text-anchor="middle" x="466" y="-99.8" font-family="Times,serif" font-size="14.00">DeletionClient</text>
</g>
<!-- DeletionClient&#45;&gt;DeletionConsoleModule -->
<g id="edge4" class="edge">
<title>DeletionClient&#45;&gt;DeletionConsoleModule</title>
<path fill="none" stroke="black" d="M466,-122.11C466,-122.11 466,-140.99 466,-140.99"/>
<polygon fill="black" stroke="black" points="462.5,-140.99 466,-150.99 469.5,-140.99 462.5,-140.99"/>
</g>
<!-- DeletionExecutionUc -->
<g id="node6" class="node">
<title>DeletionExecutionUc</title>
<ellipse fill="#fdb462" stroke="black" cx="285" cy="-104" rx="94.9" ry="18"/>
<text text-anchor="middle" x="285" y="-99.8" font-family="Times,serif" font-size="14.00">DeletionExecutionUc</text>
</g>
<!-- DeletionExecutionUc&#45;&gt;DeletionConsoleModule -->
<g id="edge5" class="edge">
<title>DeletionExecutionUc&#45;&gt;DeletionConsoleModule</title>
<path fill="none" stroke="black" d="M379.88,-104C388.26,-104 393.64,-104 393.64,-104 393.64,-104 393.64,-140.89 393.64,-140.89"/>
<polygon fill="black" stroke="black" points="390.14,-140.89 393.64,-150.89 397.14,-140.89 390.14,-140.89"/>
</g>
</g>
</svg>
