<?xml version="1.0" encoding="UTF-8" standalone="no"?>
<!DOCTYPE svg PUBLIC "-//W3C//DTD SVG 1.1//EN"
 "http://www.w3.org/Graphics/SVG/1.1/DTD/svg11.dtd">
<!-- Generated by graphviz version 2.47.0 (20210316.0004)
 -->
<!-- Title: dependencies Pages: 1 -->
<svg width="950pt" height="211pt"
 viewBox="0.00 0.00 950.00 211.00" xmlns="http://www.w3.org/2000/svg" xmlns:xlink="http://www.w3.org/1999/xlink">
<g id="graph0" class="graph" transform="scale(1 1) rotate(0) translate(4 207)">
<title>dependencies</title>
<polygon fill="white" stroke="transparent" points="-4,4 -4,-207 946,-207 946,4 -4,4"/>
<text text-anchor="start" x="450.01" y="-42.4" font-family="Times-12" font-weight="bold" font-size="14.00">Legend</text>
<polygon fill="#ffffb3" stroke="transparent" points="237,-10 237,-30 257,-30 257,-10 237,-10"/>
<text text-anchor="start" x="260.63" y="-15.4" font-family="Times-12" font-size="14.00"> &#160;Declarations</text>
<polygon fill="#8dd3c7" stroke="transparent" points="350,-10 350,-30 370,-30 370,-10 350,-10"/>
<text text-anchor="start" x="373.73" y="-15.4" font-family="Times-12" font-size="14.00"> &#160;Module</text>
<polygon fill="#80b1d3" stroke="transparent" points="436,-10 436,-30 456,-30 456,-10 436,-10"/>
<text text-anchor="start" x="459.78" y="-15.4" font-family="Times-12" font-size="14.00"> &#160;Bootstrap</text>
<polygon fill="#fdb462" stroke="transparent" points="533,-10 533,-30 553,-30 553,-10 533,-10"/>
<text text-anchor="start" x="556.67" y="-15.4" font-family="Times-12" font-size="14.00"> &#160;Providers</text>
<polygon fill="#fb8072" stroke="transparent" points="629,-10 629,-30 649,-30 649,-10 629,-10"/>
<text text-anchor="start" x="652.73" y="-15.4" font-family="Times-12" font-size="14.00"> &#160;Exports</text>
<g id="clust1" class="cluster">
<title>cluster_DeletionConsoleModule</title>
<polygon fill="none" stroke="black" stroke-dasharray="1,5" points="8,-70 8,-195 934,-195 934,-70 8,-70"/>
</g>
<g id="clust3" class="cluster">
<title>cluster_DeletionConsoleModule_imports</title>
<polygon fill="none" stroke="black" points="768,-78 768,-130 926,-130 926,-78 768,-78"/>
</g>
<g id="clust6" class="cluster">
<title>cluster_DeletionConsoleModule_providers</title>
<polygon fill="none" stroke="black" points="16,-78 16,-130 760,-130 760,-78 16,-78"/>
</g>
<!-- ConsoleWriterModule -->
<g id="node1" class="node">
<title>ConsoleWriterModule</title>
<polygon fill="#8dd3c7" stroke="black" points="917.97,-122 914.97,-126 893.97,-126 890.97,-122 776.03,-122 776.03,-86 917.97,-86 917.97,-122"/>
<text text-anchor="middle" x="847" y="-99.8" font-family="Times,serif" font-size="14.00">ConsoleWriterModule</text>
</g>
<!-- DeletionConsoleModule -->
<g id="node2" class="node">
<title>DeletionConsoleModule</title>
<polygon fill="#8dd3c7" stroke="black" points="540.64,-187 537.64,-191 516.64,-191 513.64,-187 387.36,-187 387.36,-151 540.64,-151 540.64,-187"/>
<text text-anchor="middle" x="464" y="-164.8" font-family="Times,serif" font-size="14.00">DeletionConsoleModule</text>
</g>
<!-- ConsoleWriterModule&#45;&gt;DeletionConsoleModule -->
<g id="edge1" class="edge">
<title>ConsoleWriterModule&#45;&gt;DeletionConsoleModule</title>
<path fill="none" stroke="black" d="M847,-122.28C847,-143.32 847,-175 847,-175 847,-175 551.05,-175 551.05,-175"/>
<polygon fill="black" stroke="black" points="551.05,-171.5 541.05,-175 551.05,-178.5 551.05,-171.5"/>
</g>
<!-- BatchDeletionService -->
<g id="node3" class="node">
<title>BatchDeletionService</title>
<ellipse fill="#fdb462" stroke="black" cx="656" cy="-104" rx="95.54" ry="18"/>
<text text-anchor="middle" x="656" y="-99.8" font-family="Times,serif" font-size="14.00">BatchDeletionService</text>
</g>
<!-- BatchDeletionService&#45;&gt;DeletionConsoleModule -->
<g id="edge2" class="edge">
<title>BatchDeletionService&#45;&gt;DeletionConsoleModule</title>
<path fill="none" stroke="black" d="M656,-122.02C656,-139.37 656,-163 656,-163 656,-163 550.71,-163 550.71,-163"/>
<polygon fill="black" stroke="black" points="550.71,-159.5 540.71,-163 550.71,-166.5 550.71,-159.5"/>
</g>
<!-- BatchDeletionUc -->
<g id="node4" class="node">
<title>BatchDeletionUc</title>
<ellipse fill="#fdb462" stroke="black" cx="464" cy="-104" rx="78.15" ry="18"/>
<text text-anchor="middle" x="464" y="-99.8" font-family="Times,serif" font-size="14.00">BatchDeletionUc</text>
</g>
<!-- BatchDeletionUc&#45;&gt;DeletionConsoleModule -->
<g id="edge3" class="edge">
<title>BatchDeletionUc&#45;&gt;DeletionConsoleModule</title>
<path fill="none" stroke="black" d="M464,-122.11C464,-122.11 464,-140.99 464,-140.99"/>
<polygon fill="black" stroke="black" points="460.5,-140.99 464,-150.99 467.5,-140.99 460.5,-140.99"/>
</g>
<!-- DeletionClient -->
<g id="node5" class="node">
<title>DeletionClient</title>
<ellipse fill="#fdb462" stroke="black" cx="300" cy="-104" rx="67.79" ry="18"/>
<text text-anchor="middle" x="300" y="-99.8" font-family="Times,serif" font-size="14.00">DeletionClient</text>
</g>
<!-- DeletionClient&#45;&gt;DeletionConsoleModule -->
<g id="edge4" class="edge">
<title>DeletionClient&#45;&gt;DeletionConsoleModule</title>
<path fill="none" stroke="black" d="M300,-122.02C300,-139.37 300,-163 300,-163 300,-163 377.28,-163 377.28,-163"/>
<polygon fill="black" stroke="black" points="377.28,-166.5 387.28,-163 377.28,-159.5 377.28,-166.5"/>
</g>
<!-- DeletionExecutionUc -->
<g id="node6" class="node">
<title>DeletionExecutionUc</title>
<ellipse fill="#fdb462" stroke="black" cx="119" cy="-104" rx="94.9" ry="18"/>
<text text-anchor="middle" x="119" y="-99.8" font-family="Times,serif" font-size="14.00">DeletionExecutionUc</text>
</g>
<!-- DeletionExecutionUc&#45;&gt;DeletionConsoleModule -->
<g id="edge5" class="edge">
<title>DeletionExecutionUc&#45;&gt;DeletionConsoleModule</title>
<path fill="none" stroke="black" d="M119,-122.28C119,-143.32 119,-175 119,-175 119,-175 377,-175 377,-175"/>
<polygon fill="black" stroke="black" points="377,-178.5 387,-175 377,-171.5 377,-178.5"/>
</g>
</g>
</svg>
