<?xml version="1.0" encoding="UTF-8" standalone="no"?>
<!DOCTYPE svg PUBLIC "-//W3C//DTD SVG 1.1//EN"
 "http://www.w3.org/Graphics/SVG/1.1/DTD/svg11.dtd">
<!-- Generated by graphviz version 2.47.0 (20210316.0004)
 -->
<!-- Title: dependencies Pages: 1 -->
<svg width="1178pt" height="211pt"
 viewBox="0.00 0.00 1178.00 211.00" xmlns="http://www.w3.org/2000/svg" xmlns:xlink="http://www.w3.org/1999/xlink">
<g id="graph0" class="graph" transform="scale(1 1) rotate(0) translate(4 207)">
<title>dependencies</title>
<polygon fill="white" stroke="transparent" points="-4,4 -4,-207 1174,-207 1174,4 -4,4"/>
<text text-anchor="start" x="564.01" y="-42.4" font-family="Times-12" font-weight="bold" font-size="14.00">Legend</text>
<polygon fill="#ffffb3" stroke="transparent" points="351,-10 351,-30 371,-30 371,-10 351,-10"/>
<text text-anchor="start" x="374.63" y="-15.4" font-family="Times-12" font-size="14.00"> &#160;Declarations</text>
<polygon fill="#8dd3c7" stroke="transparent" points="464,-10 464,-30 484,-30 484,-10 464,-10"/>
<text text-anchor="start" x="487.73" y="-15.4" font-family="Times-12" font-size="14.00"> &#160;Module</text>
<polygon fill="#80b1d3" stroke="transparent" points="550,-10 550,-30 570,-30 570,-10 550,-10"/>
<text text-anchor="start" x="573.78" y="-15.4" font-family="Times-12" font-size="14.00"> &#160;Bootstrap</text>
<polygon fill="#fdb462" stroke="transparent" points="647,-10 647,-30 667,-30 667,-10 647,-10"/>
<text text-anchor="start" x="670.67" y="-15.4" font-family="Times-12" font-size="14.00"> &#160;Providers</text>
<polygon fill="#fb8072" stroke="transparent" points="743,-10 743,-30 763,-30 763,-10 743,-10"/>
<text text-anchor="start" x="766.73" y="-15.4" font-family="Times-12" font-size="14.00"> &#160;Exports</text>
<g id="clust1" class="cluster">
<title>cluster_DeletionConsoleModule</title>
<polygon fill="none" stroke="black" stroke-dasharray="1,5" points="8,-70 8,-195 1162,-195 1162,-70 8,-70"/>
</g>
<g id="clust6" class="cluster">
<title>cluster_DeletionConsoleModule_providers</title>
<polygon fill="none" stroke="black" points="410,-78 410,-130 1154,-130 1154,-78 410,-78"/>
</g>
<g id="clust3" class="cluster">
<title>cluster_DeletionConsoleModule_imports</title>
<polygon fill="none" stroke="black" points="16,-78 16,-130 402,-130 402,-78 16,-78"/>
</g>
<!-- AccountModule -->
<g id="node1" class="node">
<title>AccountModule</title>
<polygon fill="#8dd3c7" stroke="black" points="394.48,-122 391.48,-126 370.48,-126 367.48,-122 287.52,-122 287.52,-86 394.48,-86 394.48,-122"/>
<text text-anchor="middle" x="341" y="-99.8" font-family="Times,serif" font-size="14.00">AccountModule</text>
</g>
<!-- DeletionConsoleModule -->
<g id="node4" class="node">
<title>DeletionConsoleModule</title>
<polygon fill="#8dd3c7" stroke="black" points="589.64,-187 586.64,-191 565.64,-191 562.64,-187 436.36,-187 436.36,-151 589.64,-151 589.64,-187"/>
<text text-anchor="middle" x="513" y="-164.8" font-family="Times,serif" font-size="14.00">DeletionConsoleModule</text>
</g>
<!-- AccountModule&#45;&gt;DeletionConsoleModule -->
<g id="edge1" class="edge">
<title>AccountModule&#45;&gt;DeletionConsoleModule</title>
<path fill="none" stroke="black" d="M341,-122.03C341,-138.4 341,-160 341,-160 341,-160 426.31,-160 426.31,-160"/>
<polygon fill="black" stroke="black" points="426.31,-163.5 436.31,-160 426.31,-156.5 426.31,-163.5"/>
</g>
<!-- ConsoleWriterModule -->
<g id="node2" class="node">
<title>ConsoleWriterModule</title>
<polygon fill="#8dd3c7" stroke="black" points="269.97,-122 266.97,-126 245.97,-126 242.97,-122 128.03,-122 128.03,-86 269.97,-86 269.97,-122"/>
<text text-anchor="middle" x="199" y="-99.8" font-family="Times,serif" font-size="14.00">ConsoleWriterModule</text>
</g>
<!-- ConsoleWriterModule&#45;&gt;DeletionConsoleModule -->
<g id="edge2" class="edge">
<title>ConsoleWriterModule&#45;&gt;DeletionConsoleModule</title>
<path fill="none" stroke="black" d="M199,-122.11C199,-141.34 199,-169 199,-169 199,-169 426.19,-169 426.19,-169"/>
<polygon fill="black" stroke="black" points="426.19,-172.5 436.19,-169 426.19,-165.5 426.19,-172.5"/>
</g>
<!-- UserModule -->
<g id="node3" class="node">
<title>UserModule</title>
<polygon fill="#8dd3c7" stroke="black" points="109.98,-122 106.98,-126 85.98,-126 82.98,-122 24.02,-122 24.02,-86 109.98,-86 109.98,-122"/>
<text text-anchor="middle" x="67" y="-99.8" font-family="Times,serif" font-size="14.00">UserModule</text>
</g>
<!-- UserModule&#45;&gt;DeletionConsoleModule -->
<g id="edge3" class="edge">
<title>UserModule&#45;&gt;DeletionConsoleModule</title>
<path fill="none" stroke="black" d="M67,-122.29C67,-144.21 67,-178 67,-178 67,-178 426.33,-178 426.33,-178"/>
<polygon fill="black" stroke="black" points="426.33,-181.5 436.33,-178 426.33,-174.5 426.33,-181.5"/>
</g>
<!-- BatchDeletionService -->
<g id="node5" class="node">
<title>BatchDeletionService</title>
<ellipse fill="#fdb462" stroke="black" cx="1050" cy="-104" rx="95.54" ry="18"/>
<text text-anchor="middle" x="1050" y="-99.8" font-family="Times,serif" font-size="14.00">BatchDeletionService</text>
</g>
<!-- BatchDeletionService&#45;&gt;DeletionConsoleModule -->
<g id="edge4" class="edge">
<title>BatchDeletionService&#45;&gt;DeletionConsoleModule</title>
<path fill="none" stroke="black" d="M1050,-122.29C1050,-144.21 1050,-178 1050,-178 1050,-178 599.65,-178 599.65,-178"/>
<polygon fill="black" stroke="black" points="599.65,-174.5 589.65,-178 599.65,-181.5 599.65,-174.5"/>
</g>
<!-- BatchDeletionUc -->
<g id="node6" class="node">
<title>BatchDeletionUc</title>
<ellipse fill="#fdb462" stroke="black" cx="858" cy="-104" rx="78.15" ry="18"/>
<text text-anchor="middle" x="858" y="-99.8" font-family="Times,serif" font-size="14.00">BatchDeletionUc</text>
</g>
<!-- BatchDeletionUc&#45;&gt;DeletionConsoleModule -->
<g id="edge5" class="edge">
<title>BatchDeletionUc&#45;&gt;DeletionConsoleModule</title>
<path fill="none" stroke="black" d="M858,-122.11C858,-141.34 858,-169 858,-169 858,-169 600,-169 600,-169"/>
<polygon fill="black" stroke="black" points="600,-165.5 590,-169 600,-172.5 600,-165.5"/>
</g>
<!-- DeletionClient -->
<g id="node7" class="node">
<title>DeletionClient</title>
<ellipse fill="#fdb462" stroke="black" cx="694" cy="-104" rx="67.79" ry="18"/>
<text text-anchor="middle" x="694" y="-99.8" font-family="Times,serif" font-size="14.00">DeletionClient</text>
</g>
<!-- DeletionClient&#45;&gt;DeletionConsoleModule -->
<g id="edge6" class="edge">
<title>DeletionClient&#45;&gt;DeletionConsoleModule</title>
<path fill="none" stroke="black" d="M694,-122.03C694,-138.4 694,-160 694,-160 694,-160 599.76,-160 599.76,-160"/>
<polygon fill="black" stroke="black" points="599.76,-156.5 589.76,-160 599.76,-163.5 599.76,-156.5"/>
</g>
<!-- DeletionExecutionUc -->
<g id="node8" class="node">
<title>DeletionExecutionUc</title>
<ellipse fill="#fdb462" stroke="black" cx="513" cy="-104" rx="94.9" ry="18"/>
<text text-anchor="middle" x="513" y="-99.8" font-family="Times,serif" font-size="14.00">DeletionExecutionUc</text>
</g>
<!-- DeletionExecutionUc&#45;&gt;DeletionConsoleModule -->
<g id="edge7" class="edge">
<title>DeletionExecutionUc&#45;&gt;DeletionConsoleModule</title>
<path fill="none" stroke="black" d="M513,-122.11C513,-122.11 513,-140.99 513,-140.99"/>
<polygon fill="black" stroke="black" points="509.5,-140.99 513,-150.99 516.5,-140.99 509.5,-140.99"/>
</g>
</g>
</svg>
