<?xml version="1.0" encoding="UTF-8" standalone="no"?>
<!DOCTYPE svg PUBLIC "-//W3C//DTD SVG 1.1//EN"
 "http://www.w3.org/Graphics/SVG/1.1/DTD/svg11.dtd">
<!-- Generated by graphviz version 2.47.0 (20210316.0004)
 -->
<!-- Title: dependencies Pages: 1 -->
<svg width="1178pt" height="211pt"
 viewBox="0.00 0.00 1178.00 211.00" xmlns="http://www.w3.org/2000/svg" xmlns:xlink="http://www.w3.org/1999/xlink">
<g id="graph0" class="graph" transform="scale(1 1) rotate(0) translate(4 207)">
<title>dependencies</title>
<polygon fill="white" stroke="transparent" points="-4,4 -4,-207 1174,-207 1174,4 -4,4"/>
<text text-anchor="start" x="564.01" y="-42.4" font-family="Times-12" font-weight="bold" font-size="14.00">Legend</text>
<polygon fill="#ffffb3" stroke="transparent" points="351,-10 351,-30 371,-30 371,-10 351,-10"/>
<text text-anchor="start" x="374.63" y="-15.4" font-family="Times-12" font-size="14.00"> &#160;Declarations</text>
<polygon fill="#8dd3c7" stroke="transparent" points="464,-10 464,-30 484,-30 484,-10 464,-10"/>
<text text-anchor="start" x="487.73" y="-15.4" font-family="Times-12" font-size="14.00"> &#160;Module</text>
<polygon fill="#80b1d3" stroke="transparent" points="550,-10 550,-30 570,-30 570,-10 550,-10"/>
<text text-anchor="start" x="573.78" y="-15.4" font-family="Times-12" font-size="14.00"> &#160;Bootstrap</text>
<polygon fill="#fdb462" stroke="transparent" points="647,-10 647,-30 667,-30 667,-10 647,-10"/>
<text text-anchor="start" x="670.67" y="-15.4" font-family="Times-12" font-size="14.00"> &#160;Providers</text>
<polygon fill="#fb8072" stroke="transparent" points="743,-10 743,-30 763,-30 763,-10 743,-10"/>
<text text-anchor="start" x="766.73" y="-15.4" font-family="Times-12" font-size="14.00"> &#160;Exports</text>
<g id="clust1" class="cluster">
<title>cluster_DeletionConsoleModule</title>
<polygon fill="none" stroke="black" stroke-dasharray="1,5" points="8,-70 8,-195 1162,-195 1162,-70 8,-70"/>
</g>
<g id="clust3" class="cluster">
<title>cluster_DeletionConsoleModule_imports</title>
<polygon fill="none" stroke="black" points="768,-78 768,-130 1154,-130 1154,-78 768,-78"/>
</g>
<g id="clust6" class="cluster">
<title>cluster_DeletionConsoleModule_providers</title>
<polygon fill="none" stroke="black" points="16,-78 16,-130 760,-130 760,-78 16,-78"/>
</g>
<!-- AccountModule -->
<g id="node1" class="node">
<title>AccountModule</title>
<polygon fill="#8dd3c7" stroke="black" points="1146.48,-122 1143.48,-126 1122.48,-126 1119.48,-122 1039.52,-122 1039.52,-86 1146.48,-86 1146.48,-122"/>
<text text-anchor="middle" x="1093" y="-99.8" font-family="Times,serif" font-size="14.00">AccountModule</text>
</g>
<!-- DeletionConsoleModule -->
<g id="node4" class="node">
<title>DeletionConsoleModule</title>
<polygon fill="#8dd3c7" stroke="black" points="732.64,-187 729.64,-191 708.64,-191 705.64,-187 579.36,-187 579.36,-151 732.64,-151 732.64,-187"/>
<text text-anchor="middle" x="656" y="-164.8" font-family="Times,serif" font-size="14.00">DeletionConsoleModule</text>
</g>
<!-- AccountModule&#45;&gt;DeletionConsoleModule -->
<g id="edge1" class="edge">
<title>AccountModule&#45;&gt;DeletionConsoleModule</title>
<path fill="none" stroke="black" d="M1093,-122.29C1093,-144.21 1093,-178 1093,-178 1093,-178 742.87,-178 742.87,-178"/>
<polygon fill="black" stroke="black" points="742.87,-174.5 732.87,-178 742.87,-181.5 742.87,-174.5"/>
</g>
<!-- ConsoleWriterModule -->
<g id="node2" class="node">
<title>ConsoleWriterModule</title>
<polygon fill="#8dd3c7" stroke="black" points="1021.97,-122 1018.97,-126 997.97,-126 994.97,-122 880.03,-122 880.03,-86 1021.97,-86 1021.97,-122"/>
<text text-anchor="middle" x="951" y="-99.8" font-family="Times,serif" font-size="14.00">ConsoleWriterModule</text>
</g>
<!-- ConsoleWriterModule&#45;&gt;DeletionConsoleModule -->
<g id="edge2" class="edge">
<title>ConsoleWriterModule&#45;&gt;DeletionConsoleModule</title>
<path fill="none" stroke="black" d="M951,-122.11C951,-141.34 951,-169 951,-169 951,-169 742.74,-169 742.74,-169"/>
<polygon fill="black" stroke="black" points="742.74,-165.5 732.74,-169 742.74,-172.5 742.74,-165.5"/>
</g>
<!-- UserModule -->
<g id="node3" class="node">
<title>UserModule</title>
<polygon fill="#8dd3c7" stroke="black" points="861.98,-122 858.98,-126 837.98,-126 834.98,-122 776.02,-122 776.02,-86 861.98,-86 861.98,-122"/>
<text text-anchor="middle" x="819" y="-99.8" font-family="Times,serif" font-size="14.00">UserModule</text>
</g>
<!-- UserModule&#45;&gt;DeletionConsoleModule -->
<g id="edge3" class="edge">
<title>UserModule&#45;&gt;DeletionConsoleModule</title>
<path fill="none" stroke="black" d="M819,-122.03C819,-138.4 819,-160 819,-160 819,-160 742.73,-160 742.73,-160"/>
<polygon fill="black" stroke="black" points="742.73,-156.5 732.73,-160 742.73,-163.5 742.73,-156.5"/>
</g>
<!-- BatchDeletionService -->
<g id="node5" class="node">
<title>BatchDeletionService</title>
<ellipse fill="#fdb462" stroke="black" cx="656" cy="-104" rx="95.54" ry="18"/>
<text text-anchor="middle" x="656" y="-99.8" font-family="Times,serif" font-size="14.00">BatchDeletionService</text>
</g>
<!-- BatchDeletionService&#45;&gt;DeletionConsoleModule -->
<g id="edge4" class="edge">
<title>BatchDeletionService&#45;&gt;DeletionConsoleModule</title>
<path fill="none" stroke="black" d="M656,-122.11C656,-122.11 656,-140.99 656,-140.99"/>
<polygon fill="black" stroke="black" points="652.5,-140.99 656,-150.99 659.5,-140.99 652.5,-140.99"/>
</g>
<!-- BatchDeletionUc -->
<g id="node6" class="node">
<title>BatchDeletionUc</title>
<ellipse fill="#fdb462" stroke="black" cx="464" cy="-104" rx="78.15" ry="18"/>
<text text-anchor="middle" x="464" y="-99.8" font-family="Times,serif" font-size="14.00">BatchDeletionUc</text>
</g>
<!-- BatchDeletionUc&#45;&gt;DeletionConsoleModule -->
<g id="edge5" class="edge">
<title>BatchDeletionUc&#45;&gt;DeletionConsoleModule</title>
<path fill="none" stroke="black" d="M464,-122.03C464,-138.4 464,-160 464,-160 464,-160 569.29,-160 569.29,-160"/>
<polygon fill="black" stroke="black" points="569.29,-163.5 579.29,-160 569.29,-156.5 569.29,-163.5"/>
</g>
<!-- DeletionClient -->
<g id="node7" class="node">
<title>DeletionClient</title>
<ellipse fill="#fdb462" stroke="black" cx="300" cy="-104" rx="67.79" ry="18"/>
<text text-anchor="middle" x="300" y="-99.8" font-family="Times,serif" font-size="14.00">DeletionClient</text>
</g>
<!-- DeletionClient&#45;&gt;DeletionConsoleModule -->
<g id="edge6" class="edge">
<title>DeletionClient&#45;&gt;DeletionConsoleModule</title>
<path fill="none" stroke="black" d="M300,-122.11C300,-141.34 300,-169 300,-169 300,-169 569.19,-169 569.19,-169"/>
<polygon fill="black" stroke="black" points="569.19,-172.5 579.19,-169 569.19,-165.5 569.19,-172.5"/>
</g>
<!-- DeletionExecutionUc -->
<g id="node8" class="node">
<title>DeletionExecutionUc</title>
<ellipse fill="#fdb462" stroke="black" cx="119" cy="-104" rx="94.9" ry="18"/>
<text text-anchor="middle" x="119" y="-99.8" font-family="Times,serif" font-size="14.00">DeletionExecutionUc</text>
</g>
<!-- DeletionExecutionUc&#45;&gt;DeletionConsoleModule -->
<g id="edge7" class="edge">
<title>DeletionExecutionUc&#45;&gt;DeletionConsoleModule</title>
<path fill="none" stroke="black" d="M119,-122.29C119,-144.21 119,-178 119,-178 119,-178 569.35,-178 569.35,-178"/>
<polygon fill="black" stroke="black" points="569.35,-181.5 579.35,-178 569.35,-174.5 569.35,-181.5"/>
</g>
</g>
</svg>
