<?xml version="1.0" encoding="UTF-8" standalone="no"?>
<!DOCTYPE svg PUBLIC "-//W3C//DTD SVG 1.1//EN"
 "http://www.w3.org/Graphics/SVG/1.1/DTD/svg11.dtd">
<!-- Generated by graphviz version 2.47.0 (20210316.0004)
 -->
<!-- Title: dependencies Pages: 1 -->
<svg width="1170pt" height="211pt"
 viewBox="0.00 0.00 1170.00 211.00" xmlns="http://www.w3.org/2000/svg" xmlns:xlink="http://www.w3.org/1999/xlink">
<g id="graph0" class="graph" transform="scale(1 1) rotate(0) translate(4 207)">
<title>dependencies</title>
<polygon fill="white" stroke="transparent" points="-4,4 -4,-207 1166,-207 1166,4 -4,4"/>
<text text-anchor="start" x="560.01" y="-42.4" font-family="Times-12" font-weight="bold" font-size="14.00">Legend</text>
<polygon fill="#ffffb3" stroke="transparent" points="347,-10 347,-30 367,-30 367,-10 347,-10"/>
<text text-anchor="start" x="370.63" y="-15.4" font-family="Times-12" font-size="14.00"> &#160;Declarations</text>
<polygon fill="#8dd3c7" stroke="transparent" points="460,-10 460,-30 480,-30 480,-10 460,-10"/>
<text text-anchor="start" x="483.73" y="-15.4" font-family="Times-12" font-size="14.00"> &#160;Module</text>
<polygon fill="#80b1d3" stroke="transparent" points="546,-10 546,-30 566,-30 566,-10 546,-10"/>
<text text-anchor="start" x="569.78" y="-15.4" font-family="Times-12" font-size="14.00"> &#160;Bootstrap</text>
<polygon fill="#fdb462" stroke="transparent" points="643,-10 643,-30 663,-30 663,-10 643,-10"/>
<text text-anchor="start" x="666.67" y="-15.4" font-family="Times-12" font-size="14.00"> &#160;Providers</text>
<polygon fill="#fb8072" stroke="transparent" points="739,-10 739,-30 759,-30 759,-10 739,-10"/>
<text text-anchor="start" x="762.73" y="-15.4" font-family="Times-12" font-size="14.00"> &#160;Exports</text>
<g id="clust1" class="cluster">
<title>cluster_TaskCardModule</title>
<polygon fill="none" stroke="black" stroke-dasharray="1,5" points="8,-70 8,-195 1154,-195 1154,-70 8,-70"/>
</g>
<g id="clust6" class="cluster">
<title>cluster_TaskCardModule_providers</title>
<polygon fill="none" stroke="black" points="282,-78 282,-130 1146,-130 1146,-78 282,-78"/>
</g>
<g id="clust3" class="cluster">
<title>cluster_TaskCardModule_imports</title>
<polygon fill="none" stroke="black" points="16,-78 16,-130 274,-130 274,-78 16,-78"/>
</g>
<!-- AuthorizationModule -->
<g id="node1" class="node">
<title>AuthorizationModule</title>
<polygon fill="#8dd3c7" stroke="black" points="265.81,-122 262.81,-126 241.81,-126 238.81,-122 128.19,-122 128.19,-86 265.81,-86 265.81,-122"/>
<text text-anchor="middle" x="197" y="-99.8" font-family="Times,serif" font-size="14.00">AuthorizationModule</text>
</g>
<!-- TaskCardModule -->
<g id="node3" class="node">
<title>TaskCardModule</title>
<polygon fill="#8dd3c7" stroke="black" points="553.97,-187 550.97,-191 529.97,-191 526.97,-187 440.03,-187 440.03,-151 553.97,-151 553.97,-187"/>
<text text-anchor="middle" x="497" y="-164.8" font-family="Times,serif" font-size="14.00">TaskCardModule</text>
</g>
<!-- AuthorizationModule&#45;&gt;TaskCardModule -->
<g id="edge1" class="edge">
<title>AuthorizationModule&#45;&gt;TaskCardModule</title>
<path fill="none" stroke="black" d="M197,-122.11C197,-141.34 197,-169 197,-169 197,-169 429.87,-169 429.87,-169"/>
<polygon fill="black" stroke="black" points="429.87,-172.5 439.87,-169 429.87,-165.5 429.87,-172.5"/>
</g>
<!-- TaskModule -->
<g id="node2" class="node">
<title>TaskModule</title>
<polygon fill="#8dd3c7" stroke="black" points="110.26,-122 107.26,-126 86.26,-126 83.26,-122 23.74,-122 23.74,-86 110.26,-86 110.26,-122"/>
<text text-anchor="middle" x="67" y="-99.8" font-family="Times,serif" font-size="14.00">TaskModule</text>
</g>
<!-- TaskModule&#45;&gt;TaskCardModule -->
<g id="edge2" class="edge">
<title>TaskModule&#45;&gt;TaskCardModule</title>
<path fill="none" stroke="black" d="M67,-122.29C67,-144.21 67,-178 67,-178 67,-178 429.9,-178 429.9,-178"/>
<polygon fill="black" stroke="black" points="429.9,-181.5 439.9,-178 429.9,-174.5 429.9,-181.5"/>
</g>
<!-- CardElementRepo -->
<g id="node4" class="node">
<title>CardElementRepo</title>
<ellipse fill="#fdb462" stroke="black" cx="1056" cy="-104" rx="82.24" ry="18"/>
<text text-anchor="middle" x="1056" y="-99.8" font-family="Times,serif" font-size="14.00">CardElementRepo</text>
</g>
<!-- CardElementRepo&#45;&gt;TaskCardModule -->
<g id="edge3" class="edge">
<title>CardElementRepo&#45;&gt;TaskCardModule</title>
<path fill="none" stroke="black" d="M1056,-122.29C1056,-144.21 1056,-178 1056,-178 1056,-178 564.2,-178 564.2,-178"/>
<polygon fill="black" stroke="black" points="564.2,-174.5 554.2,-178 564.2,-181.5 564.2,-174.5"/>
</g>
<!-- CourseRepo -->
<g id="node5" class="node">
<title>CourseRepo</title>
<ellipse fill="#fdb462" stroke="black" cx="897" cy="-104" rx="58.55" ry="18"/>
<text text-anchor="middle" x="897" y="-99.8" font-family="Times,serif" font-size="14.00">CourseRepo</text>
</g>
<!-- CourseRepo&#45;&gt;TaskCardModule -->
<g id="edge4" class="edge">
<title>CourseRepo&#45;&gt;TaskCardModule</title>
<path fill="none" stroke="black" d="M897,-122.11C897,-141.34 897,-169 897,-169 897,-169 564.31,-169 564.31,-169"/>
<polygon fill="black" stroke="black" points="564.31,-165.5 554.31,-169 564.31,-172.5 564.31,-165.5"/>
</g>
<!-- RichTextCardElementRepo -->
<g id="node6" class="node">
<title>RichTextCardElementRepo</title>
<ellipse fill="#fdb462" stroke="black" cx="702" cy="-104" rx="118.12" ry="18"/>
<text text-anchor="middle" x="702" y="-99.8" font-family="Times,serif" font-size="14.00">RichTextCardElementRepo</text>
</g>
<!-- RichTextCardElementRepo&#45;&gt;TaskCardModule -->
<g id="edge5" class="edge">
<title>RichTextCardElementRepo&#45;&gt;TaskCardModule</title>
<path fill="none" stroke="black" d="M702,-122.03C702,-138.4 702,-160 702,-160 702,-160 564.1,-160 564.1,-160"/>
<polygon fill="black" stroke="black" points="564.1,-156.5 554.1,-160 564.1,-163.5 564.1,-156.5"/>
</g>
<!-- TaskCardRepo -->
<g id="node7" class="node">
<title>TaskCardRepo</title>
<ellipse fill="#fdb462" stroke="black" cx="497" cy="-104" rx="68.92" ry="18"/>
<text text-anchor="middle" x="497" y="-99.8" font-family="Times,serif" font-size="14.00">TaskCardRepo</text>
</g>
<!-- TaskCardRepo&#45;&gt;TaskCardModule -->
<g id="edge6" class="edge">
<title>TaskCardRepo&#45;&gt;TaskCardModule</title>
<path fill="none" stroke="black" d="M497,-122.11C497,-122.11 497,-140.99 497,-140.99"/>
<polygon fill="black" stroke="black" points="493.5,-140.99 497,-150.99 500.5,-140.99 493.5,-140.99"/>
</g>
<!-- TaskCardUc -->
<g id="node8" class="node">
<title>TaskCardUc</title>
<ellipse fill="#fdb462" stroke="black" cx="350" cy="-104" rx="59.67" ry="18"/>
<text text-anchor="middle" x="350" y="-99.8" font-family="Times,serif" font-size="14.00">TaskCardUc</text>
</g>
<!-- TaskCardUc&#45;&gt;TaskCardModule -->
<g id="edge7" class="edge">
<title>TaskCardUc&#45;&gt;TaskCardModule</title>
<path fill="none" stroke="black" d="M350,-122.03C350,-138.4 350,-160 350,-160 350,-160 429.75,-160 429.75,-160"/>
<polygon fill="black" stroke="black" points="429.75,-163.5 439.75,-160 429.75,-156.5 429.75,-163.5"/>
</g>
</g>
</svg>
