<?xml version="1.0" encoding="UTF-8" standalone="no"?>
<!DOCTYPE svg PUBLIC "-//W3C//DTD SVG 1.1//EN"
 "http://www.w3.org/Graphics/SVG/1.1/DTD/svg11.dtd">
<!-- Generated by graphviz version 2.47.0 (20210316.0004)
 -->
<!-- Title: dependencies Pages: 1 -->
<svg width="1170pt" height="211pt"
 viewBox="0.00 0.00 1170.00 211.00" xmlns="http://www.w3.org/2000/svg" xmlns:xlink="http://www.w3.org/1999/xlink">
<g id="graph0" class="graph" transform="scale(1 1) rotate(0) translate(4 207)">
<title>dependencies</title>
<polygon fill="white" stroke="transparent" points="-4,4 -4,-207 1166,-207 1166,4 -4,4"/>
<text text-anchor="start" x="560.01" y="-42.4" font-family="Times-12" font-weight="bold" font-size="14.00">Legend</text>
<polygon fill="#ffffb3" stroke="transparent" points="347,-10 347,-30 367,-30 367,-10 347,-10"/>
<text text-anchor="start" x="370.63" y="-15.4" font-family="Times-12" font-size="14.00"> &#160;Declarations</text>
<polygon fill="#8dd3c7" stroke="transparent" points="460,-10 460,-30 480,-30 480,-10 460,-10"/>
<text text-anchor="start" x="483.73" y="-15.4" font-family="Times-12" font-size="14.00"> &#160;Module</text>
<polygon fill="#80b1d3" stroke="transparent" points="546,-10 546,-30 566,-30 566,-10 546,-10"/>
<text text-anchor="start" x="569.78" y="-15.4" font-family="Times-12" font-size="14.00"> &#160;Bootstrap</text>
<polygon fill="#fdb462" stroke="transparent" points="643,-10 643,-30 663,-30 663,-10 643,-10"/>
<text text-anchor="start" x="666.67" y="-15.4" font-family="Times-12" font-size="14.00"> &#160;Providers</text>
<polygon fill="#fb8072" stroke="transparent" points="739,-10 739,-30 759,-30 759,-10 739,-10"/>
<text text-anchor="start" x="762.73" y="-15.4" font-family="Times-12" font-size="14.00"> &#160;Exports</text>
<g id="clust1" class="cluster">
<title>cluster_TaskCardModule</title>
<polygon fill="none" stroke="black" stroke-dasharray="1,5" points="8,-70 8,-195 1154,-195 1154,-70 8,-70"/>
</g>
<g id="clust3" class="cluster">
<title>cluster_TaskCardModule_imports</title>
<polygon fill="none" stroke="black" points="888,-78 888,-130 1146,-130 1146,-78 888,-78"/>
</g>
<g id="clust6" class="cluster">
<title>cluster_TaskCardModule_providers</title>
<polygon fill="none" stroke="black" points="16,-78 16,-130 880,-130 880,-78 16,-78"/>
</g>
<!-- AuthorizationModule -->
<g id="node1" class="node">
<title>AuthorizationModule</title>
<polygon fill="#8dd3c7" stroke="black" points="1137.81,-122 1134.81,-126 1113.81,-126 1110.81,-122 1000.19,-122 1000.19,-86 1137.81,-86 1137.81,-122"/>
<text text-anchor="middle" x="1069" y="-99.8" font-family="Times,serif" font-size="14.00">AuthorizationModule</text>
</g>
<!-- TaskCardModule -->
<g id="node3" class="node">
<title>TaskCardModule</title>
<polygon fill="#8dd3c7" stroke="black" points="687.97,-187 684.97,-191 663.97,-191 660.97,-187 574.03,-187 574.03,-151 687.97,-151 687.97,-187"/>
<text text-anchor="middle" x="631" y="-164.8" font-family="Times,serif" font-size="14.00">TaskCardModule</text>
</g>
<!-- AuthorizationModule&#45;&gt;TaskCardModule -->
<g id="edge1" class="edge">
<title>AuthorizationModule&#45;&gt;TaskCardModule</title>
<path fill="none" stroke="black" d="M1069,-122.29C1069,-144.21 1069,-178 1069,-178 1069,-178 698.26,-178 698.26,-178"/>
<polygon fill="black" stroke="black" points="698.26,-174.5 688.26,-178 698.26,-181.5 698.26,-174.5"/>
</g>
<!-- TaskModule -->
<g id="node2" class="node">
<title>TaskModule</title>
<polygon fill="#8dd3c7" stroke="black" points="982.26,-122 979.26,-126 958.26,-126 955.26,-122 895.74,-122 895.74,-86 982.26,-86 982.26,-122"/>
<text text-anchor="middle" x="939" y="-99.8" font-family="Times,serif" font-size="14.00">TaskModule</text>
</g>
<!-- TaskModule&#45;&gt;TaskCardModule -->
<g id="edge2" class="edge">
<title>TaskModule&#45;&gt;TaskCardModule</title>
<path fill="none" stroke="black" d="M939,-122.11C939,-141.34 939,-169 939,-169 939,-169 698.21,-169 698.21,-169"/>
<polygon fill="black" stroke="black" points="698.21,-165.5 688.21,-169 698.21,-172.5 698.21,-165.5"/>
</g>
<!-- CardElementRepo -->
<g id="node4" class="node">
<title>CardElementRepo</title>
<ellipse fill="#fdb462" stroke="black" cx="790" cy="-104" rx="82.24" ry="18"/>
<text text-anchor="middle" x="790" y="-99.8" font-family="Times,serif" font-size="14.00">CardElementRepo</text>
</g>
<!-- CardElementRepo&#45;&gt;TaskCardModule -->
<g id="edge3" class="edge">
<title>CardElementRepo&#45;&gt;TaskCardModule</title>
<path fill="none" stroke="black" d="M790,-122.03C790,-138.4 790,-160 790,-160 790,-160 698.4,-160 698.4,-160"/>
<polygon fill="black" stroke="black" points="698.4,-156.5 688.4,-160 698.4,-163.5 698.4,-156.5"/>
</g>
<!-- CourseRepo -->
<g id="node5" class="node">
<title>CourseRepo</title>
<ellipse fill="#fdb462" stroke="black" cx="631" cy="-104" rx="58.55" ry="18"/>
<text text-anchor="middle" x="631" y="-99.8" font-family="Times,serif" font-size="14.00">CourseRepo</text>
</g>
<!-- CourseRepo&#45;&gt;TaskCardModule -->
<g id="edge4" class="edge">
<title>CourseRepo&#45;&gt;TaskCardModule</title>
<path fill="none" stroke="black" d="M631,-122.11C631,-122.11 631,-140.99 631,-140.99"/>
<polygon fill="black" stroke="black" points="627.5,-140.99 631,-150.99 634.5,-140.99 627.5,-140.99"/>
</g>
<!-- RichTextCardElementRepo -->
<g id="node6" class="node">
<title>RichTextCardElementRepo</title>
<ellipse fill="#fdb462" stroke="black" cx="436" cy="-104" rx="118.12" ry="18"/>
<text text-anchor="middle" x="436" y="-99.8" font-family="Times,serif" font-size="14.00">RichTextCardElementRepo</text>
</g>
<!-- RichTextCardElementRepo&#45;&gt;TaskCardModule -->
<g id="edge5" class="edge">
<title>RichTextCardElementRepo&#45;&gt;TaskCardModule</title>
<path fill="none" stroke="black" d="M436,-122.03C436,-138.4 436,-160 436,-160 436,-160 563.81,-160 563.81,-160"/>
<polygon fill="black" stroke="black" points="563.81,-163.5 573.81,-160 563.81,-156.5 563.81,-163.5"/>
</g>
<!-- TaskCardRepo -->
<g id="node7" class="node">
<title>TaskCardRepo</title>
<ellipse fill="#fdb462" stroke="black" cx="231" cy="-104" rx="68.92" ry="18"/>
<text text-anchor="middle" x="231" y="-99.8" font-family="Times,serif" font-size="14.00">TaskCardRepo</text>
</g>
<!-- TaskCardRepo&#45;&gt;TaskCardModule -->
<g id="edge6" class="edge">
<title>TaskCardRepo&#45;&gt;TaskCardModule</title>
<path fill="none" stroke="black" d="M231,-122.11C231,-141.34 231,-169 231,-169 231,-169 563.69,-169 563.69,-169"/>
<polygon fill="black" stroke="black" points="563.69,-172.5 573.69,-169 563.69,-165.5 563.69,-172.5"/>
</g>
<!-- TaskCardUc -->
<g id="node8" class="node">
<title>TaskCardUc</title>
<ellipse fill="#fdb462" stroke="black" cx="84" cy="-104" rx="59.67" ry="18"/>
<text text-anchor="middle" x="84" y="-99.8" font-family="Times,serif" font-size="14.00">TaskCardUc</text>
</g>
<!-- TaskCardUc&#45;&gt;TaskCardModule -->
<g id="edge7" class="edge">
<title>TaskCardUc&#45;&gt;TaskCardModule</title>
<path fill="none" stroke="black" d="M84,-122.29C84,-144.21 84,-178 84,-178 84,-178 564.01,-178 564.01,-178"/>
<polygon fill="black" stroke="black" points="564.01,-181.5 574.01,-178 564.01,-174.5 564.01,-181.5"/>
</g>
</g>
</svg>
