<?xml version="1.0" encoding="UTF-8" standalone="no"?>
<!DOCTYPE svg PUBLIC "-//W3C//DTD SVG 1.1//EN"
 "http://www.w3.org/Graphics/SVG/1.1/DTD/svg11.dtd">
<!-- Generated by graphviz version 5.0.0 (20220707.1540)
 -->
<!-- Title: dependencies Pages: 1 -->
<svg width="1170pt" height="174pt"
 viewBox="0.00 0.00 1170.00 173.80" xmlns="http://www.w3.org/2000/svg" xmlns:xlink="http://www.w3.org/1999/xlink">
<g id="graph0" class="graph" transform="scale(1 1) rotate(0) translate(4 169.8)">
<title>dependencies</title>
<polygon fill="white" stroke="transparent" points="-4,4 -4,-169.8 1166,-169.8 1166,4 -4,4"/>
<text text-anchor="middle" x="581" y="-8.2" font-family="sans-serif" font-size="14.00">dependencies</text>
<g id="clust1" class="cluster">
<title>cluster_TaskCardModule</title>
<polygon fill="none" stroke="black" stroke-dasharray="1,5" points="8,-32.8 8,-157.8 1154,-157.8 1154,-32.8 8,-32.8"/>
</g>
<g id="clust3" class="cluster">
<title>cluster_TaskCardModule_imports</title>
<polygon fill="none" stroke="black" points="888,-40.8 888,-92.8 1146,-92.8 1146,-40.8 888,-40.8"/>
</g>
<g id="clust6" class="cluster">
<title>cluster_TaskCardModule_providers</title>
<polygon fill="none" stroke="black" points="16,-40.8 16,-92.8 880,-92.8 880,-40.8 16,-40.8"/>
</g>
<!-- AuthorizationModule -->
<g id="node1" class="node">
<title>AuthorizationModule</title>
<polygon fill="#8dd3c7" stroke="black" points="1137.81,-84.8 1134.81,-88.8 1113.81,-88.8 1110.81,-84.8 1000.19,-84.8 1000.19,-48.8 1137.81,-48.8 1137.81,-84.8"/>
<text text-anchor="middle" x="1069" y="-62.6" font-family="Times,serif" font-size="14.00">AuthorizationModule</text>
</g>
<!-- TaskCardModule -->
<g id="node3" class="node">
<title>TaskCardModule</title>
<polygon fill="#8dd3c7" stroke="black" points="687.98,-149.8 684.98,-153.8 663.98,-153.8 660.98,-149.8 574.02,-149.8 574.02,-113.8 687.98,-113.8 687.98,-149.8"/>
<text text-anchor="middle" x="631" y="-127.6" font-family="Times,serif" font-size="14.00">TaskCardModule</text>
</g>
<!-- AuthorizationModule&#45;&gt;TaskCardModule -->
<g id="edge1" class="edge">
<title>AuthorizationModule&#45;&gt;TaskCardModule</title>
<path fill="none" stroke="black" d="M1069,-85.09C1069,-107.01 1069,-140.8 1069,-140.8 1069,-140.8 698.26,-140.8 698.26,-140.8"/>
<polygon fill="black" stroke="black" points="698.26,-137.3 688.26,-140.8 698.26,-144.3 698.26,-137.3"/>
</g>
<!-- TaskModule -->
<g id="node2" class="node">
<title>TaskModule</title>
<polygon fill="#8dd3c7" stroke="black" points="982.27,-84.8 979.27,-88.8 958.27,-88.8 955.27,-84.8 895.73,-84.8 895.73,-48.8 982.27,-48.8 982.27,-84.8"/>
<text text-anchor="middle" x="939" y="-62.6" font-family="Times,serif" font-size="14.00">TaskModule</text>
</g>
<!-- TaskModule&#45;&gt;TaskCardModule -->
<g id="edge2" class="edge">
<title>TaskModule&#45;&gt;TaskCardModule</title>
<path fill="none" stroke="black" d="M939,-84.91C939,-104.14 939,-131.8 939,-131.8 939,-131.8 698.21,-131.8 698.21,-131.8"/>
<polygon fill="black" stroke="black" points="698.21,-128.3 688.21,-131.8 698.21,-135.3 698.21,-128.3"/>
</g>
<!-- CardElementRepo -->
<g id="node4" class="node">
<title>CardElementRepo</title>
<ellipse fill="#fdb462" stroke="black" cx="790" cy="-66.8" rx="82.24" ry="18"/>
<text text-anchor="middle" x="790" y="-62.6" font-family="Times,serif" font-size="14.00">CardElementRepo</text>
</g>
<!-- CardElementRepo&#45;&gt;TaskCardModule -->
<g id="edge3" class="edge">
<title>CardElementRepo&#45;&gt;TaskCardModule</title>
<path fill="none" stroke="black" d="M790,-84.83C790,-101.2 790,-122.8 790,-122.8 790,-122.8 698.4,-122.8 698.4,-122.8"/>
<polygon fill="black" stroke="black" points="698.4,-119.3 688.4,-122.8 698.4,-126.3 698.4,-119.3"/>
</g>
<!-- CourseRepo -->
<g id="node5" class="node">
<title>CourseRepo</title>
<ellipse fill="#fdb462" stroke="black" cx="631" cy="-66.8" rx="58.56" ry="18"/>
<text text-anchor="middle" x="631" y="-62.6" font-family="Times,serif" font-size="14.00">CourseRepo</text>
</g>
<!-- CourseRepo&#45;&gt;TaskCardModule -->
<g id="edge4" class="edge">
<title>CourseRepo&#45;&gt;TaskCardModule</title>
<path fill="none" stroke="black" d="M631,-84.91C631,-84.91 631,-103.79 631,-103.79"/>
<polygon fill="black" stroke="black" points="627.5,-103.79 631,-113.79 634.5,-103.79 627.5,-103.79"/>
</g>
<!-- RichTextCardElementRepo -->
<g id="node6" class="node">
<title>RichTextCardElementRepo</title>
<ellipse fill="#fdb462" stroke="black" cx="436" cy="-66.8" rx="118.11" ry="18"/>
<text text-anchor="middle" x="436" y="-62.6" font-family="Times,serif" font-size="14.00">RichTextCardElementRepo</text>
</g>
<!-- RichTextCardElementRepo&#45;&gt;TaskCardModule -->
<g id="edge5" class="edge">
<title>RichTextCardElementRepo&#45;&gt;TaskCardModule</title>
<path fill="none" stroke="black" d="M436,-84.83C436,-101.2 436,-122.8 436,-122.8 436,-122.8 563.81,-122.8 563.81,-122.8"/>
<polygon fill="black" stroke="black" points="563.81,-126.3 573.81,-122.8 563.81,-119.3 563.81,-126.3"/>
</g>
<!-- TaskCardRepo -->
<g id="node7" class="node">
<title>TaskCardRepo</title>
<ellipse fill="#fdb462" stroke="black" cx="231" cy="-66.8" rx="68.93" ry="18"/>
<text text-anchor="middle" x="231" y="-62.6" font-family="Times,serif" font-size="14.00">TaskCardRepo</text>
</g>
<!-- TaskCardRepo&#45;&gt;TaskCardModule -->
<g id="edge6" class="edge">
<title>TaskCardRepo&#45;&gt;TaskCardModule</title>
<path fill="none" stroke="black" d="M231,-84.91C231,-104.14 231,-131.8 231,-131.8 231,-131.8 563.69,-131.8 563.69,-131.8"/>
<polygon fill="black" stroke="black" points="563.69,-135.3 573.69,-131.8 563.69,-128.3 563.69,-135.3"/>
</g>
<!-- TaskCardUc -->
<g id="node8" class="node">
<title>TaskCardUc</title>
<ellipse fill="#fdb462" stroke="black" cx="84" cy="-66.8" rx="59.68" ry="18"/>
<text text-anchor="middle" x="84" y="-62.6" font-family="Times,serif" font-size="14.00">TaskCardUc</text>
</g>
<!-- TaskCardUc&#45;&gt;TaskCardModule -->
<g id="edge7" class="edge">
<title>TaskCardUc&#45;&gt;TaskCardModule</title>
<path fill="none" stroke="black" d="M84,-85.09C84,-107.01 84,-140.8 84,-140.8 84,-140.8 564.01,-140.8 564.01,-140.8"/>
<polygon fill="black" stroke="black" points="564.01,-144.3 574.01,-140.8 564.01,-137.3 564.01,-144.3"/>
</g>
</g>
</svg>
