<?xml version="1.0" encoding="UTF-8" standalone="no"?>
<!DOCTYPE svg PUBLIC "-//W3C//DTD SVG 1.1//EN"
 "http://www.w3.org/Graphics/SVG/1.1/DTD/svg11.dtd">
<!-- Generated by graphviz version 2.47.0 (20210316.0004)
 -->
<!-- Title: dependencies Pages: 1 -->
<svg width="1427pt" height="284pt"
 viewBox="0.00 0.00 1427.00 284.00" xmlns="http://www.w3.org/2000/svg" xmlns:xlink="http://www.w3.org/1999/xlink">
<g id="graph0" class="graph" transform="scale(1 1) rotate(0) translate(4 280)">
<title>dependencies</title>
<polygon fill="white" stroke="transparent" points="-4,4 -4,-280 1423,-280 1423,4 -4,4"/>
<text text-anchor="start" x="688.51" y="-42.4" font-family="Times-12" font-weight="bold" font-size="14.00">Legend</text>
<polygon fill="#ffffb3" stroke="transparent" points="475.5,-10 475.5,-30 495.5,-30 495.5,-10 475.5,-10"/>
<text text-anchor="start" x="499.13" y="-15.4" font-family="Times-12" font-size="14.00"> &#160;Declarations</text>
<polygon fill="#8dd3c7" stroke="transparent" points="588.5,-10 588.5,-30 608.5,-30 608.5,-10 588.5,-10"/>
<text text-anchor="start" x="612.23" y="-15.4" font-family="Times-12" font-size="14.00"> &#160;Module</text>
<polygon fill="#80b1d3" stroke="transparent" points="674.5,-10 674.5,-30 694.5,-30 694.5,-10 674.5,-10"/>
<text text-anchor="start" x="698.28" y="-15.4" font-family="Times-12" font-size="14.00"> &#160;Bootstrap</text>
<polygon fill="#fdb462" stroke="transparent" points="771.5,-10 771.5,-30 791.5,-30 791.5,-10 771.5,-10"/>
<text text-anchor="start" x="795.17" y="-15.4" font-family="Times-12" font-size="14.00"> &#160;Providers</text>
<polygon fill="#fb8072" stroke="transparent" points="867.5,-10 867.5,-30 887.5,-30 887.5,-10 867.5,-10"/>
<text text-anchor="start" x="891.23" y="-15.4" font-family="Times-12" font-size="14.00"> &#160;Exports</text>
<g id="clust1" class="cluster">
<title>cluster_OauthProviderModule</title>
<polygon fill="none" stroke="black" stroke-dasharray="1,5" points="8,-70 8,-268 1411,-268 1411,-70 8,-70"/>
</g>
<g id="clust6" class="cluster">
<title>cluster_OauthProviderModule_providers</title>
<polygon fill="none" stroke="black" points="812,-78 812,-130 1403,-130 1403,-78 812,-78"/>
</g>
<g id="clust3" class="cluster">
<title>cluster_OauthProviderModule_imports</title>
<polygon fill="none" stroke="black" points="16,-78 16,-130 804,-130 804,-78 16,-78"/>
</g>
<g id="clust4" class="cluster">
<title>cluster_OauthProviderModule_exports</title>
<polygon fill="none" stroke="black" points="428,-208 428,-260 777,-260 777,-208 428,-208"/>
</g>
<!-- LoggerModule -->
<g id="node1" class="node">
<title>LoggerModule</title>
<polygon fill="#8dd3c7" stroke="black" points="795.98,-122 792.98,-126 771.98,-126 768.98,-122 696.02,-122 696.02,-86 795.98,-86 795.98,-122"/>
<text text-anchor="middle" x="746" y="-99.8" font-family="Times,serif" font-size="14.00">LoggerModule</text>
</g>
<!-- OauthProviderModule -->
<g id="node7" class="node">
<title>OauthProviderModule</title>
<polygon fill="#8dd3c7" stroke="black" points="697.97,-187 694.97,-191 673.97,-191 670.97,-187 556.03,-187 556.03,-151 697.97,-151 697.97,-187"/>
<text text-anchor="middle" x="627" y="-164.8" font-family="Times,serif" font-size="14.00">OauthProviderModule</text>
</g>
<!-- LoggerModule&#45;&gt;OauthProviderModule -->
<g id="edge1" class="edge">
<title>LoggerModule&#45;&gt;OauthProviderModule</title>
<path fill="none" stroke="black" d="M695.78,-104C690.54,-104 687.09,-104 687.09,-104 687.09,-104 687.09,-140.89 687.09,-140.89"/>
<polygon fill="black" stroke="black" points="683.59,-140.89 687.09,-150.89 690.59,-140.89 683.59,-140.89"/>
</g>
<!-- LtiToolModule -->
<g id="node2" class="node">
<title>LtiToolModule</title>
<polygon fill="#8dd3c7" stroke="black" points="678.33,-122 675.33,-126 654.33,-126 651.33,-122 575.67,-122 575.67,-86 678.33,-86 678.33,-122"/>
<text text-anchor="middle" x="627" y="-99.8" font-family="Times,serif" font-size="14.00">LtiToolModule</text>
</g>
<!-- LtiToolModule&#45;&gt;OauthProviderModule -->
<g id="edge2" class="edge">
<title>LtiToolModule&#45;&gt;OauthProviderModule</title>
<path fill="none" stroke="black" d="M627,-122.11C627,-122.11 627,-140.99 627,-140.99"/>
<polygon fill="black" stroke="black" points="623.5,-140.99 627,-150.99 630.5,-140.99 623.5,-140.99"/>
</g>
<!-- OauthProviderServiceModule -->
<g id="node3" class="node">
<title>OauthProviderServiceModule</title>
<polygon fill="#8dd3c7" stroke="black" points="557.95,-122 554.95,-126 533.95,-126 530.95,-122 374.05,-122 374.05,-86 557.95,-86 557.95,-122"/>
<text text-anchor="middle" x="466" y="-99.8" font-family="Times,serif" font-size="14.00">OauthProviderServiceModule</text>
</g>
<!-- OauthProviderServiceModule&#45;&gt;OauthProviderModule -->
<g id="edge3" class="edge">
<title>OauthProviderServiceModule&#45;&gt;OauthProviderModule</title>
<path fill="none" stroke="black" d="M557.95,-104C563.5,-104 566.91,-104 566.91,-104 566.91,-104 566.91,-140.89 566.91,-140.89"/>
<polygon fill="black" stroke="black" points="563.41,-140.89 566.91,-150.89 570.41,-140.89 563.41,-140.89"/>
</g>
<!-- PseudonymModule -->
<g id="node4" class="node">
<title>PseudonymModule</title>
<polygon fill="#8dd3c7" stroke="black" points="356.38,-122 353.38,-126 332.38,-126 329.38,-122 231.62,-122 231.62,-86 356.38,-86 356.38,-122"/>
<text text-anchor="middle" x="294" y="-99.8" font-family="Times,serif" font-size="14.00">PseudonymModule</text>
</g>
<!-- PseudonymModule&#45;&gt;OauthProviderModule -->
<g id="edge4" class="edge">
<title>PseudonymModule&#45;&gt;OauthProviderModule</title>
<path fill="none" stroke="black" d="M294,-122.03C294,-138.4 294,-160 294,-160 294,-160 545.97,-160 545.97,-160"/>
<polygon fill="black" stroke="black" points="545.97,-163.5 555.97,-160 545.97,-156.5 545.97,-163.5"/>
</g>
<!-- ToolModule -->
<g id="node5" class="node">
<title>ToolModule</title>
<polygon fill="#8dd3c7" stroke="black" points="213.99,-122 210.99,-126 189.99,-126 186.99,-122 128.01,-122 128.01,-86 213.99,-86 213.99,-122"/>
<text text-anchor="middle" x="171" y="-99.8" font-family="Times,serif" font-size="14.00">ToolModule</text>
</g>
<!-- ToolModule&#45;&gt;OauthProviderModule -->
<g id="edge5" class="edge">
<title>ToolModule&#45;&gt;OauthProviderModule</title>
<path fill="none" stroke="black" d="M171,-122.11C171,-141.34 171,-169 171,-169 171,-169 545.75,-169 545.75,-169"/>
<polygon fill="black" stroke="black" points="545.75,-172.5 555.75,-169 545.75,-165.5 545.75,-172.5"/>
</g>
<!-- UserModule -->
<g id="node6" class="node">
<title>UserModule</title>
<polygon fill="#8dd3c7" stroke="black" points="109.98,-122 106.98,-126 85.98,-126 82.98,-122 24.02,-122 24.02,-86 109.98,-86 109.98,-122"/>
<text text-anchor="middle" x="67" y="-99.8" font-family="Times,serif" font-size="14.00">UserModule</text>
</g>
<!-- UserModule&#45;&gt;OauthProviderModule -->
<g id="edge6" class="edge">
<title>UserModule&#45;&gt;OauthProviderModule</title>
<path fill="none" stroke="black" d="M67,-122.29C67,-144.21 67,-178 67,-178 67,-178 545.79,-178 545.79,-178"/>
<polygon fill="black" stroke="black" points="545.79,-181.5 555.79,-178 545.79,-174.5 545.79,-181.5"/>
</g>
<!-- IdTokenService  -->
<g id="node8" class="node">
<title>IdTokenService </title>
<polygon fill="#fb8072" stroke="black" points="769.41,-252 660.59,-252 660.59,-216 769.41,-216 769.41,-252"/>
<text text-anchor="middle" x="715" y="-229.8" font-family="Times,serif" font-size="14.00">IdTokenService </text>
</g>
<!-- OauthProviderModule&#45;&gt;IdTokenService  -->
<g id="edge7" class="edge">
<title>OauthProviderModule&#45;&gt;IdTokenService </title>
<path fill="none" stroke="black" stroke-dasharray="5,2" d="M679.27,-187.11C679.27,-187.11 679.27,-205.99 679.27,-205.99"/>
<polygon fill="black" stroke="black" points="675.77,-205.99 679.27,-215.99 682.77,-205.99 675.77,-205.99"/>
</g>
<!-- OauthProviderLoginFlowService  -->
<g id="node9" class="node">
<title>OauthProviderLoginFlowService </title>
<polygon fill="#fb8072" stroke="black" points="642.12,-252 435.88,-252 435.88,-216 642.12,-216 642.12,-252"/>
<text text-anchor="middle" x="539" y="-229.8" font-family="Times,serif" font-size="14.00">OauthProviderLoginFlowService </text>
</g>
<!-- OauthProviderModule&#45;&gt;OauthProviderLoginFlowService  -->
<g id="edge8" class="edge">
<title>OauthProviderModule&#45;&gt;OauthProviderLoginFlowService </title>
<path fill="none" stroke="black" stroke-dasharray="5,2" d="M599.04,-187.11C599.04,-187.11 599.04,-205.99 599.04,-205.99"/>
<polygon fill="black" stroke="black" points="595.54,-205.99 599.04,-215.99 602.54,-205.99 595.54,-205.99"/>
</g>
<!-- IdTokenService -->
<g id="node10" class="node">
<title>IdTokenService</title>
<ellipse fill="#fdb462" stroke="black" cx="1322" cy="-104" rx="72.91" ry="18"/>
<text text-anchor="middle" x="1322" y="-99.8" font-family="Times,serif" font-size="14.00">IdTokenService</text>
</g>
<!-- IdTokenService&#45;&gt;OauthProviderModule -->
<g id="edge9" class="edge">
<title>IdTokenService&#45;&gt;OauthProviderModule</title>
<path fill="none" stroke="black" d="M1322,-122.29C1322,-144.21 1322,-178 1322,-178 1322,-178 708.11,-178 708.11,-178"/>
<polygon fill="black" stroke="black" points="708.11,-174.5 698.11,-178 708.11,-181.5 708.11,-174.5"/>
</g>
<!-- OauthProviderLoginFlowService -->
<g id="node11" class="node">
<title>OauthProviderLoginFlowService</title>
<ellipse fill="#fdb462" stroke="black" cx="1092" cy="-104" rx="139.53" ry="18"/>
<text text-anchor="middle" x="1092" y="-99.8" font-family="Times,serif" font-size="14.00">OauthProviderLoginFlowService</text>
</g>
<!-- OauthProviderLoginFlowService&#45;&gt;OauthProviderModule -->
<g id="edge10" class="edge">
<title>OauthProviderLoginFlowService&#45;&gt;OauthProviderModule</title>
<path fill="none" stroke="black" d="M1092,-122.11C1092,-141.34 1092,-169 1092,-169 1092,-169 708.13,-169 708.13,-169"/>
<polygon fill="black" stroke="black" points="708.13,-165.5 698.13,-169 708.13,-172.5 708.13,-165.5"/>
</g>
<!-- TeamsRepo -->
<g id="node12" class="node">
<title>TeamsRepo</title>
<ellipse fill="#fdb462" stroke="black" cx="877" cy="-104" rx="57.32" ry="18"/>
<text text-anchor="middle" x="877" y="-99.8" font-family="Times,serif" font-size="14.00">TeamsRepo</text>
</g>
<!-- TeamsRepo&#45;&gt;OauthProviderModule -->
<g id="edge11" class="edge">
<title>TeamsRepo&#45;&gt;OauthProviderModule</title>
<path fill="none" stroke="black" d="M877,-122.03C877,-138.4 877,-160 877,-160 877,-160 707.97,-160 707.97,-160"/>
<polygon fill="black" stroke="black" points="707.97,-156.5 697.97,-160 707.97,-163.5 707.97,-156.5"/>
</g>
</g>
</svg>
