<?xml version="1.0" encoding="UTF-8" standalone="no"?>
<!DOCTYPE svg PUBLIC "-//W3C//DTD SVG 1.1//EN"
 "http://www.w3.org/Graphics/SVG/1.1/DTD/svg11.dtd">
<!-- Generated by graphviz version 2.47.0 (20210316.0004)
 -->
<!-- Title: dependencies Pages: 1 -->
<svg width="1570pt" height="284pt"
 viewBox="0.00 0.00 1570.00 284.00" xmlns="http://www.w3.org/2000/svg" xmlns:xlink="http://www.w3.org/1999/xlink">
<g id="graph0" class="graph" transform="scale(1 1) rotate(0) translate(4 280)">
<title>dependencies</title>
<polygon fill="white" stroke="transparent" points="-4,4 -4,-280 1566,-280 1566,4 -4,4"/>
<text text-anchor="start" x="760.01" y="-42.4" font-family="Times-12" font-weight="bold" font-size="14.00">Legend</text>
<polygon fill="#ffffb3" stroke="transparent" points="547,-10 547,-30 567,-30 567,-10 547,-10"/>
<text text-anchor="start" x="570.63" y="-15.4" font-family="Times-12" font-size="14.00"> &#160;Declarations</text>
<polygon fill="#8dd3c7" stroke="transparent" points="660,-10 660,-30 680,-30 680,-10 660,-10"/>
<text text-anchor="start" x="683.73" y="-15.4" font-family="Times-12" font-size="14.00"> &#160;Module</text>
<polygon fill="#80b1d3" stroke="transparent" points="746,-10 746,-30 766,-30 766,-10 746,-10"/>
<text text-anchor="start" x="769.78" y="-15.4" font-family="Times-12" font-size="14.00"> &#160;Bootstrap</text>
<polygon fill="#fdb462" stroke="transparent" points="843,-10 843,-30 863,-30 863,-10 843,-10"/>
<text text-anchor="start" x="866.67" y="-15.4" font-family="Times-12" font-size="14.00"> &#160;Providers</text>
<polygon fill="#fb8072" stroke="transparent" points="939,-10 939,-30 959,-30 959,-10 939,-10"/>
<text text-anchor="start" x="962.73" y="-15.4" font-family="Times-12" font-size="14.00"> &#160;Exports</text>
<g id="clust1" class="cluster">
<title>cluster_OauthProviderModule</title>
<polygon fill="none" stroke="black" stroke-dasharray="1,5" points="8,-70 8,-268 1554,-268 1554,-70 8,-70"/>
</g>
<g id="clust4" class="cluster">
<title>cluster_OauthProviderModule_exports</title>
<polygon fill="none" stroke="black" points="632,-208 632,-260 981,-260 981,-208 632,-208"/>
</g>
<g id="clust3" class="cluster">
<title>cluster_OauthProviderModule_imports</title>
<polygon fill="none" stroke="black" points="615,-78 615,-130 1546,-130 1546,-78 615,-78"/>
</g>
<g id="clust6" class="cluster">
<title>cluster_OauthProviderModule_providers</title>
<polygon fill="none" stroke="black" points="16,-78 16,-130 607,-130 607,-78 16,-78"/>
</g>
<!-- LoggerModule -->
<g id="node1" class="node">
<title>LoggerModule</title>
<polygon fill="#8dd3c7" stroke="black" points="1537.98,-122 1534.98,-126 1513.98,-126 1510.98,-122 1438.02,-122 1438.02,-86 1537.98,-86 1537.98,-122"/>
<text text-anchor="middle" x="1488" y="-99.8" font-family="Times,serif" font-size="14.00">LoggerModule</text>
</g>
<!-- OauthProviderModule -->
<g id="node8" class="node">
<title>OauthProviderModule</title>
<polygon fill="#8dd3c7" stroke="black" points="901.97,-187 898.97,-191 877.97,-191 874.97,-187 760.03,-187 760.03,-151 901.97,-151 901.97,-187"/>
<text text-anchor="middle" x="831" y="-164.8" font-family="Times,serif" font-size="14.00">OauthProviderModule</text>
</g>
<!-- LoggerModule&#45;&gt;OauthProviderModule -->
<g id="edge1" class="edge">
<title>LoggerModule&#45;&gt;OauthProviderModule</title>
<path fill="none" stroke="black" d="M1488,-122.01C1488,-144.49 1488,-180 1488,-180 1488,-180 912.25,-180 912.25,-180"/>
<polygon fill="black" stroke="black" points="912.25,-176.5 902.25,-180 912.25,-183.5 912.25,-176.5"/>
</g>
<!-- LtiToolModule -->
<g id="node2" class="node">
<title>LtiToolModule</title>
<polygon fill="#8dd3c7" stroke="black" points="1420.33,-122 1417.33,-126 1396.33,-126 1393.33,-122 1317.67,-122 1317.67,-86 1420.33,-86 1420.33,-122"/>
<text text-anchor="middle" x="1369" y="-99.8" font-family="Times,serif" font-size="14.00">LtiToolModule</text>
</g>
<!-- LtiToolModule&#45;&gt;OauthProviderModule -->
<g id="edge2" class="edge">
<title>LtiToolModule&#45;&gt;OauthProviderModule</title>
<path fill="none" stroke="black" d="M1369,-122.13C1369,-142.57 1369,-173 1369,-173 1369,-173 912.16,-173 912.16,-173"/>
<polygon fill="black" stroke="black" points="912.16,-169.5 902.16,-173 912.16,-176.5 912.16,-169.5"/>
</g>
<!-- OauthProviderServiceModule -->
<g id="node3" class="node">
<title>OauthProviderServiceModule</title>
<polygon fill="#8dd3c7" stroke="black" points="1299.95,-122 1296.95,-126 1275.95,-126 1272.95,-122 1116.05,-122 1116.05,-86 1299.95,-86 1299.95,-122"/>
<text text-anchor="middle" x="1208" y="-99.8" font-family="Times,serif" font-size="14.00">OauthProviderServiceModule</text>
</g>
<!-- OauthProviderServiceModule&#45;&gt;OauthProviderModule -->
<g id="edge3" class="edge">
<title>OauthProviderServiceModule&#45;&gt;OauthProviderModule</title>
<path fill="none" stroke="black" d="M1208,-122.27C1208,-140.56 1208,-166 1208,-166 1208,-166 912.35,-166 912.35,-166"/>
<polygon fill="black" stroke="black" points="912.35,-162.5 902.35,-166 912.35,-169.5 912.35,-162.5"/>
</g>
<!-- PseudonymModule -->
<g id="node4" class="node">
<title>PseudonymModule</title>
<polygon fill="#8dd3c7" stroke="black" points="1098.38,-122 1095.38,-126 1074.38,-126 1071.38,-122 973.62,-122 973.62,-86 1098.38,-86 1098.38,-122"/>
<text text-anchor="middle" x="1036" y="-99.8" font-family="Times,serif" font-size="14.00">PseudonymModule</text>
</g>
<!-- PseudonymModule&#45;&gt;OauthProviderModule -->
<g id="edge4" class="edge">
<title>PseudonymModule&#45;&gt;OauthProviderModule</title>
<path fill="none" stroke="black" d="M1036,-122.01C1036,-138.05 1036,-159 1036,-159 1036,-159 912.12,-159 912.12,-159"/>
<polygon fill="black" stroke="black" points="912.12,-155.5 902.12,-159 912.12,-162.5 912.12,-155.5"/>
</g>
<!-- ToolConfigModule -->
<g id="node5" class="node">
<title>ToolConfigModule</title>
<polygon fill="#8dd3c7" stroke="black" points="955.38,-122 952.38,-126 931.38,-126 928.38,-122 830.62,-122 830.62,-86 955.38,-86 955.38,-122"/>
<text text-anchor="middle" x="893" y="-99.8" font-family="Times,serif" font-size="14.00">ToolConfigModule</text>
</g>
<!-- ToolConfigModule&#45;&gt;OauthProviderModule -->
<g id="edge5" class="edge">
<title>ToolConfigModule&#45;&gt;OauthProviderModule</title>
<path fill="none" stroke="black" d="M866.27,-122.11C866.27,-122.11 866.27,-140.99 866.27,-140.99"/>
<polygon fill="black" stroke="black" points="862.77,-140.99 866.27,-150.99 869.77,-140.99 862.77,-140.99"/>
</g>
<!-- ToolModule -->
<g id="node6" class="node">
<title>ToolModule</title>
<polygon fill="#8dd3c7" stroke="black" points="812.99,-122 809.99,-126 788.99,-126 785.99,-122 727.01,-122 727.01,-86 812.99,-86 812.99,-122"/>
<text text-anchor="middle" x="770" y="-99.8" font-family="Times,serif" font-size="14.00">ToolModule</text>
</g>
<!-- ToolModule&#45;&gt;OauthProviderModule -->
<g id="edge6" class="edge">
<title>ToolModule&#45;&gt;OauthProviderModule</title>
<path fill="none" stroke="black" d="M786.51,-122.11C786.51,-122.11 786.51,-140.99 786.51,-140.99"/>
<polygon fill="black" stroke="black" points="783.01,-140.99 786.51,-150.99 790.01,-140.99 783.01,-140.99"/>
</g>
<!-- UserModule -->
<g id="node7" class="node">
<title>UserModule</title>
<polygon fill="#8dd3c7" stroke="black" points="708.98,-122 705.98,-126 684.98,-126 681.98,-122 623.02,-122 623.02,-86 708.98,-86 708.98,-122"/>
<text text-anchor="middle" x="666" y="-99.8" font-family="Times,serif" font-size="14.00">UserModule</text>
</g>
<!-- UserModule&#45;&gt;OauthProviderModule -->
<g id="edge7" class="edge">
<title>UserModule&#45;&gt;OauthProviderModule</title>
<path fill="none" stroke="black" d="M674.46,-122.01C674.46,-138.05 674.46,-159 674.46,-159 674.46,-159 749.6,-159 749.6,-159"/>
<polygon fill="black" stroke="black" points="749.6,-162.5 759.6,-159 749.6,-155.5 749.6,-162.5"/>
</g>
<!-- IdTokenService  -->
<g id="node9" class="node">
<title>IdTokenService </title>
<polygon fill="#fb8072" stroke="black" points="973.41,-252 864.59,-252 864.59,-216 973.41,-216 973.41,-252"/>
<text text-anchor="middle" x="919" y="-229.8" font-family="Times,serif" font-size="14.00">IdTokenService </text>
</g>
<!-- OauthProviderModule&#45;&gt;IdTokenService  -->
<g id="edge8" class="edge">
<title>OauthProviderModule&#45;&gt;IdTokenService </title>
<path fill="none" stroke="black" stroke-dasharray="5,2" d="M883.27,-187.11C883.27,-187.11 883.27,-205.99 883.27,-205.99"/>
<polygon fill="black" stroke="black" points="879.77,-205.99 883.27,-215.99 886.77,-205.99 879.77,-205.99"/>
</g>
<!-- OauthProviderLoginFlowService  -->
<g id="node10" class="node">
<title>OauthProviderLoginFlowService </title>
<polygon fill="#fb8072" stroke="black" points="846.12,-252 639.88,-252 639.88,-216 846.12,-216 846.12,-252"/>
<text text-anchor="middle" x="743" y="-229.8" font-family="Times,serif" font-size="14.00">OauthProviderLoginFlowService </text>
</g>
<!-- OauthProviderModule&#45;&gt;OauthProviderLoginFlowService  -->
<g id="edge9" class="edge">
<title>OauthProviderModule&#45;&gt;OauthProviderLoginFlowService </title>
<path fill="none" stroke="black" stroke-dasharray="5,2" d="M803.04,-187.11C803.04,-187.11 803.04,-205.99 803.04,-205.99"/>
<polygon fill="black" stroke="black" points="799.54,-205.99 803.04,-215.99 806.54,-205.99 799.54,-205.99"/>
</g>
<!-- IdTokenService -->
<g id="node11" class="node">
<title>IdTokenService</title>
<ellipse fill="#fdb462" stroke="black" cx="526" cy="-104" rx="72.91" ry="18"/>
<text text-anchor="middle" x="526" y="-99.8" font-family="Times,serif" font-size="14.00">IdTokenService</text>
</g>
<!-- IdTokenService&#45;&gt;OauthProviderModule -->
<g id="edge10" class="edge">
<title>IdTokenService&#45;&gt;OauthProviderModule</title>
<path fill="none" stroke="black" d="M526,-122.27C526,-140.56 526,-166 526,-166 526,-166 749.88,-166 749.88,-166"/>
<polygon fill="black" stroke="black" points="749.88,-169.5 759.88,-166 749.88,-162.5 749.88,-169.5"/>
</g>
<!-- OauthProviderLoginFlowService -->
<g id="node12" class="node">
<title>OauthProviderLoginFlowService</title>
<ellipse fill="#fdb462" stroke="black" cx="296" cy="-104" rx="139.53" ry="18"/>
<text text-anchor="middle" x="296" y="-99.8" font-family="Times,serif" font-size="14.00">OauthProviderLoginFlowService</text>
</g>
<!-- OauthProviderLoginFlowService&#45;&gt;OauthProviderModule -->
<g id="edge11" class="edge">
<title>OauthProviderLoginFlowService&#45;&gt;OauthProviderModule</title>
<path fill="none" stroke="black" d="M296,-122.13C296,-142.57 296,-173 296,-173 296,-173 749.96,-173 749.96,-173"/>
<polygon fill="black" stroke="black" points="749.96,-176.5 759.96,-173 749.96,-169.5 749.96,-176.5"/>
</g>
<!-- TeamsRepo -->
<g id="node13" class="node">
<title>TeamsRepo</title>
<ellipse fill="#fdb462" stroke="black" cx="81" cy="-104" rx="57.32" ry="18"/>
<text text-anchor="middle" x="81" y="-99.8" font-family="Times,serif" font-size="14.00">TeamsRepo</text>
</g>
<!-- TeamsRepo&#45;&gt;OauthProviderModule -->
<g id="edge12" class="edge">
<title>TeamsRepo&#45;&gt;OauthProviderModule</title>
<path fill="none" stroke="black" d="M81,-122.01C81,-144.49 81,-180 81,-180 81,-180 749.77,-180 749.77,-180"/>
<polygon fill="black" stroke="black" points="749.77,-183.5 759.77,-180 749.77,-176.5 749.77,-183.5"/>
</g>
</g>
</svg>
