<?xml version="1.0" encoding="UTF-8" standalone="no"?>
<!DOCTYPE svg PUBLIC "-//W3C//DTD SVG 1.1//EN"
 "http://www.w3.org/Graphics/SVG/1.1/DTD/svg11.dtd">
<!-- Generated by graphviz version 5.0.0 (20220707.1540)
 -->
<!-- Title: dependencies Pages: 1 -->
<svg width="3351pt" height="174pt"
 viewBox="0.00 0.00 3351.00 173.80" xmlns="http://www.w3.org/2000/svg" xmlns:xlink="http://www.w3.org/1999/xlink">
<g id="graph0" class="graph" transform="scale(1 1) rotate(0) translate(4 169.8)">
<title>dependencies</title>
<polygon fill="white" stroke="transparent" points="-4,4 -4,-169.8 3347,-169.8 3347,4 -4,4"/>
<text text-anchor="middle" x="1671.5" y="-8.2" font-family="sans-serif" font-size="14.00">dependencies</text>
<g id="clust1" class="cluster">
<title>cluster_OauthProviderModule</title>
<polygon fill="none" stroke="black" stroke-dasharray="1,5" points="8,-32.8 8,-157.8 3335,-157.8 3335,-32.8 8,-32.8"/>
</g>
<g id="clust3" class="cluster">
<title>cluster_OauthProviderModule_imports</title>
<polygon fill="none" stroke="black" points="2749,-40.8 2749,-92.8 3327,-92.8 3327,-40.8 2749,-40.8"/>
</g>
<g id="clust6" class="cluster">
<title>cluster_OauthProviderModule_providers</title>
<polygon fill="none" stroke="black" points="16,-40.8 16,-92.8 2741,-92.8 2741,-40.8 16,-40.8"/>
</g>
<!-- AuthorizationModule -->
<g id="node1" class="node">
<title>AuthorizationModule</title>
<polygon fill="#8dd3c7" stroke="black" points="3318.81,-84.8 3315.81,-88.8 3294.81,-88.8 3291.81,-84.8 3181.19,-84.8 3181.19,-48.8 3318.81,-48.8 3318.81,-84.8"/>
<text text-anchor="middle" x="3250" y="-62.6" font-family="Times,serif" font-size="14.00">AuthorizationModule</text>
</g>
<!-- OauthProviderModule -->
<g id="node5" class="node">
<title>OauthProviderModule</title>
<polygon fill="#8dd3c7" stroke="black" points="1962.98,-149.8 1959.98,-153.8 1938.98,-153.8 1935.98,-149.8 1821.02,-149.8 1821.02,-113.8 1962.98,-113.8 1962.98,-149.8"/>
<text text-anchor="middle" x="1892" y="-127.6" font-family="Times,serif" font-size="14.00">OauthProviderModule</text>
</g>
<!-- AuthorizationModule&#45;&gt;OauthProviderModule -->
<g id="edge1" class="edge">
<title>AuthorizationModule&#45;&gt;OauthProviderModule</title>
<path fill="none" stroke="black" d="M3250,-85.12C3250,-108.46 3250,-145.8 3250,-145.8 3250,-145.8 1973.1,-145.8 1973.1,-145.8"/>
<polygon fill="black" stroke="black" points="1973.1,-142.3 1963.1,-145.8 1973.1,-149.3 1973.1,-142.3"/>
</g>
<!-- LoggerModule -->
<g id="node2" class="node">
<title>LoggerModule</title>
<polygon fill="#8dd3c7" stroke="black" points="3162.98,-84.8 3159.98,-88.8 3138.98,-88.8 3135.98,-84.8 3063.02,-84.8 3063.02,-48.8 3162.98,-48.8 3162.98,-84.8"/>
<text text-anchor="middle" x="3113" y="-62.6" font-family="Times,serif" font-size="14.00">LoggerModule</text>
</g>
<!-- LoggerModule&#45;&gt;OauthProviderModule -->
<g id="edge2" class="edge">
<title>LoggerModule&#45;&gt;OauthProviderModule</title>
<path fill="none" stroke="black" d="M3113,-85.09C3113,-107.01 3113,-140.8 3113,-140.8 3113,-140.8 1973.37,-140.8 1973.37,-140.8"/>
<polygon fill="black" stroke="black" points="1973.37,-137.3 1963.37,-140.8 1973.37,-144.3 1973.37,-137.3"/>
</g>
<!-- OauthProviderServiceModule -->
<g id="node3" class="node">
<title>OauthProviderServiceModule</title>
<polygon fill="#8dd3c7" stroke="black" points="3044.96,-84.8 3041.96,-88.8 3020.96,-88.8 3017.96,-84.8 2861.04,-84.8 2861.04,-48.8 3044.96,-48.8 3044.96,-84.8"/>
<text text-anchor="middle" x="2953" y="-62.6" font-family="Times,serif" font-size="14.00">OauthProviderServiceModule</text>
</g>
<!-- OauthProviderServiceModule&#45;&gt;OauthProviderModule -->
<g id="edge3" class="edge">
<title>OauthProviderServiceModule&#45;&gt;OauthProviderModule</title>
<path fill="none" stroke="black" d="M2953,-84.83C2953,-105.57 2953,-136.8 2953,-136.8 2953,-136.8 1973.26,-136.8 1973.26,-136.8"/>
<polygon fill="black" stroke="black" points="1973.26,-133.3 1963.26,-136.8 1973.26,-140.3 1973.26,-133.3"/>
</g>
<!-- UserModule -->
<g id="node4" class="node">
<title>UserModule</title>
<polygon fill="#8dd3c7" stroke="black" points="2842.99,-84.8 2839.99,-88.8 2818.99,-88.8 2815.99,-84.8 2757.01,-84.8 2757.01,-48.8 2842.99,-48.8 2842.99,-84.8"/>
<text text-anchor="middle" x="2800" y="-62.6" font-family="Times,serif" font-size="14.00">UserModule</text>
</g>
<!-- UserModule&#45;&gt;OauthProviderModule -->
<g id="edge4" class="edge">
<title>UserModule&#45;&gt;OauthProviderModule</title>
<path fill="none" stroke="black" d="M2800,-84.91C2800,-104.14 2800,-131.8 2800,-131.8 2800,-131.8 1973.25,-131.8 1973.25,-131.8"/>
<polygon fill="black" stroke="black" points="1973.25,-128.3 1963.25,-131.8 1973.25,-135.3 1973.25,-128.3"/>
</g>
<!-- IdTokenService -->
<g id="node6" class="node">
<title>IdTokenService</title>
<ellipse fill="#fdb462" stroke="black" cx="2660" cy="-66.8" rx="72.92" ry="18"/>
<text text-anchor="middle" x="2660" y="-62.6" font-family="Times,serif" font-size="14.00">IdTokenService</text>
</g>
<!-- IdTokenService&#45;&gt;OauthProviderModule -->
<g id="edge5" class="edge">
<title>IdTokenService&#45;&gt;OauthProviderModule</title>
<path fill="none" stroke="black" d="M2660,-85.1C2660,-103.07 2660,-127.8 2660,-127.8 2660,-127.8 1973.22,-127.8 1973.22,-127.8"/>
<polygon fill="black" stroke="black" points="1973.22,-124.3 1963.22,-127.8 1973.22,-131.3 1973.22,-124.3"/>
</g>
<!-- LtiToolRepo -->
<g id="node7" class="node">
<title>LtiToolRepo</title>
<ellipse fill="#fdb462" stroke="black" cx="2508" cy="-66.8" rx="60.85" ry="18"/>
<text text-anchor="middle" x="2508" y="-62.6" font-family="Times,serif" font-size="14.00">LtiToolRepo</text>
</g>
<!-- LtiToolRepo&#45;&gt;OauthProviderModule -->
<g id="edge6" class="edge">
<title>LtiToolRepo&#45;&gt;OauthProviderModule</title>
<path fill="none" stroke="black" d="M2508,-84.83C2508,-101.2 2508,-122.8 2508,-122.8 2508,-122.8 1973.26,-122.8 1973.26,-122.8"/>
<polygon fill="black" stroke="black" points="1973.26,-119.3 1963.26,-122.8 1973.26,-126.3 1973.26,-119.3"/>
</g>
<!-- OauthProviderClientCrudUc -->
<g id="node8" class="node">
<title>OauthProviderClientCrudUc</title>
<ellipse fill="#fdb462" stroke="black" cx="2307" cy="-66.8" rx="122.15" ry="18"/>
<text text-anchor="middle" x="2307" y="-62.6" font-family="Times,serif" font-size="14.00">OauthProviderClientCrudUc</text>
</g>
<!-- OauthProviderClientCrudUc&#45;&gt;OauthProviderModule -->
<g id="edge7" class="edge">
<title>OauthProviderClientCrudUc&#45;&gt;OauthProviderModule</title>
<path fill="none" stroke="black" d="M2307,-84.99C2307,-99.98 2307,-118.8 2307,-118.8 2307,-118.8 1973.34,-118.8 1973.34,-118.8"/>
<polygon fill="black" stroke="black" points="1973.34,-115.3 1963.34,-118.8 1973.34,-122.3 1973.34,-115.3"/>
</g>
<!-- OauthProviderConsentFlowUc -->
<g id="node9" class="node">
<title>OauthProviderConsentFlowUc</title>
<ellipse fill="#fdb462" stroke="black" cx="2036" cy="-66.8" rx="130.83" ry="18"/>
<text text-anchor="middle" x="2036" y="-62.6" font-family="Times,serif" font-size="14.00">OauthProviderConsentFlowUc</text>
</g>
<!-- OauthProviderConsentFlowUc&#45;&gt;OauthProviderModule -->
<g id="edge8" class="edge">
<title>OauthProviderConsentFlowUc&#45;&gt;OauthProviderModule</title>
<path fill="none" stroke="black" d="M1934.16,-78.12C1934.16,-78.12 1934.16,-103.74 1934.16,-103.74"/>
<polygon fill="black" stroke="black" points="1930.66,-103.74 1934.16,-113.74 1937.66,-103.74 1930.66,-103.74"/>
</g>
<!-- OauthProviderLoginFlowService -->
<g id="node10" class="node">
<title>OauthProviderLoginFlowService</title>
<ellipse fill="#fdb462" stroke="black" cx="1748" cy="-66.8" rx="139.55" ry="18"/>
<text text-anchor="middle" x="1748" y="-62.6" font-family="Times,serif" font-size="14.00">OauthProviderLoginFlowService</text>
</g>
<!-- OauthProviderLoginFlowService&#45;&gt;OauthProviderModule -->
<g id="edge9" class="edge">
<title>OauthProviderLoginFlowService&#45;&gt;OauthProviderModule</title>
<path fill="none" stroke="black" d="M1854.39,-78.72C1854.39,-78.72 1854.39,-103.57 1854.39,-103.57"/>
<polygon fill="black" stroke="black" points="1850.89,-103.57 1854.39,-113.57 1857.89,-103.57 1850.89,-103.57"/>
</g>
<!-- OauthProviderLoginFlowUc -->
<g id="node11" class="node">
<title>OauthProviderLoginFlowUc</title>
<ellipse fill="#fdb462" stroke="black" cx="1468" cy="-66.8" rx="122.15" ry="18"/>
<text text-anchor="middle" x="1468" y="-62.6" font-family="Times,serif" font-size="14.00">OauthProviderLoginFlowUc</text>
</g>
<!-- OauthProviderLoginFlowUc&#45;&gt;OauthProviderModule -->
<g id="edge10" class="edge">
<title>OauthProviderLoginFlowUc&#45;&gt;OauthProviderModule</title>
<path fill="none" stroke="black" d="M1468,-84.99C1468,-99.98 1468,-118.8 1468,-118.8 1468,-118.8 1810.55,-118.8 1810.55,-118.8"/>
<polygon fill="black" stroke="black" points="1810.55,-122.3 1820.55,-118.8 1810.55,-115.3 1810.55,-122.3"/>
</g>
<!-- OauthProviderLogoutFlowUc -->
<g id="node12" class="node">
<title>OauthProviderLogoutFlowUc</title>
<ellipse fill="#fdb462" stroke="black" cx="1201" cy="-66.8" rx="126.81" ry="18"/>
<text text-anchor="middle" x="1201" y="-62.6" font-family="Times,serif" font-size="14.00">OauthProviderLogoutFlowUc</text>
</g>
<!-- OauthProviderLogoutFlowUc&#45;&gt;OauthProviderModule -->
<g id="edge11" class="edge">
<title>OauthProviderLogoutFlowUc&#45;&gt;OauthProviderModule</title>
<path fill="none" stroke="black" d="M1201,-84.83C1201,-101.2 1201,-122.8 1201,-122.8 1201,-122.8 1810.98,-122.8 1810.98,-122.8"/>
<polygon fill="black" stroke="black" points="1810.98,-126.3 1820.98,-122.8 1810.98,-119.3 1810.98,-126.3"/>
</g>
<!-- OauthProviderRequestMapper -->
<g id="node13" class="node">
<title>OauthProviderRequestMapper</title>
<ellipse fill="#fdb462" stroke="black" cx="927" cy="-66.8" rx="129.07" ry="18"/>
<text text-anchor="middle" x="927" y="-62.6" font-family="Times,serif" font-size="14.00">OauthProviderRequestMapper</text>
</g>
<!-- OauthProviderRequestMapper&#45;&gt;OauthProviderModule -->
<g id="edge12" class="edge">
<title>OauthProviderRequestMapper&#45;&gt;OauthProviderModule</title>
<path fill="none" stroke="black" d="M927,-85.1C927,-103.07 927,-127.8 927,-127.8 927,-127.8 1810.65,-127.8 1810.65,-127.8"/>
<polygon fill="black" stroke="black" points="1810.65,-131.3 1820.65,-127.8 1810.65,-124.3 1810.65,-131.3"/>
</g>
<!-- OauthProviderResponseMapper -->
<g id="node14" class="node">
<title>OauthProviderResponseMapper</title>
<ellipse fill="#fdb462" stroke="black" cx="645" cy="-66.8" rx="134.88" ry="18"/>
<text text-anchor="middle" x="645" y="-62.6" font-family="Times,serif" font-size="14.00">OauthProviderResponseMapper</text>
</g>
<!-- OauthProviderResponseMapper&#45;&gt;OauthProviderModule -->
<g id="edge13" class="edge">
<title>OauthProviderResponseMapper&#45;&gt;OauthProviderModule</title>
<path fill="none" stroke="black" d="M645,-84.91C645,-104.14 645,-131.8 645,-131.8 645,-131.8 1810.93,-131.8 1810.93,-131.8"/>
<polygon fill="black" stroke="black" points="1810.93,-135.3 1820.93,-131.8 1810.93,-128.3 1810.93,-135.3"/>
</g>
<!-- OauthProviderUc -->
<g id="node15" class="node">
<title>OauthProviderUc</title>
<ellipse fill="#fdb462" stroke="black" cx="413" cy="-66.8" rx="79.31" ry="18"/>
<text text-anchor="middle" x="413" y="-62.6" font-family="Times,serif" font-size="14.00">OauthProviderUc</text>
</g>
<!-- OauthProviderUc&#45;&gt;OauthProviderModule -->
<g id="edge14" class="edge">
<title>OauthProviderUc&#45;&gt;OauthProviderModule</title>
<path fill="none" stroke="black" d="M413,-84.83C413,-105.57 413,-136.8 413,-136.8 413,-136.8 1810.66,-136.8 1810.66,-136.8"/>
<polygon fill="black" stroke="black" points="1810.66,-140.3 1820.66,-136.8 1810.66,-133.3 1810.66,-140.3"/>
</g>
<!-- PseudonymsRepo -->
<g id="node16" class="node">
<title>PseudonymsRepo</title>
<ellipse fill="#fdb462" stroke="black" cx="236" cy="-66.8" rx="80.5" ry="18"/>
<text text-anchor="middle" x="236" y="-62.6" font-family="Times,serif" font-size="14.00">PseudonymsRepo</text>
</g>
<!-- PseudonymsRepo&#45;&gt;OauthProviderModule -->
<g id="edge15" class="edge">
<title>PseudonymsRepo&#45;&gt;OauthProviderModule</title>
<path fill="none" stroke="black" d="M236,-85.09C236,-107.01 236,-140.8 236,-140.8 236,-140.8 1810.84,-140.8 1810.84,-140.8"/>
<polygon fill="black" stroke="black" points="1810.84,-144.3 1820.84,-140.8 1810.84,-137.3 1810.84,-144.3"/>
</g>
<!-- TeamsRepo -->
<g id="node17" class="node">
<title>TeamsRepo</title>
<ellipse fill="#fdb462" stroke="black" cx="81" cy="-66.8" rx="57.32" ry="18"/>
<text text-anchor="middle" x="81" y="-62.6" font-family="Times,serif" font-size="14.00">TeamsRepo</text>
</g>
<!-- TeamsRepo&#45;&gt;OauthProviderModule -->
<g id="edge16" class="edge">
<title>TeamsRepo&#45;&gt;OauthProviderModule</title>
<path fill="none" stroke="black" d="M81,-85.12C81,-108.46 81,-145.8 81,-145.8 81,-145.8 1811.01,-145.8 1811.01,-145.8"/>
<polygon fill="black" stroke="black" points="1811.01,-149.3 1821.01,-145.8 1811.01,-142.3 1811.01,-149.3"/>
</g>
</g>
</svg>
