<?xml version="1.0" encoding="UTF-8" standalone="no"?>
<!DOCTYPE svg PUBLIC "-//W3C//DTD SVG 1.1//EN"
 "http://www.w3.org/Graphics/SVG/1.1/DTD/svg11.dtd">
<!-- Generated by graphviz version 5.0.0 (20220707.1540)
 -->
<!-- Title: dependencies Pages: 1 -->
<svg width="3351pt" height="174pt"
 viewBox="0.00 0.00 3351.00 173.80" xmlns="http://www.w3.org/2000/svg" xmlns:xlink="http://www.w3.org/1999/xlink">
<g id="graph0" class="graph" transform="scale(1 1) rotate(0) translate(4 169.8)">
<title>dependencies</title>
<polygon fill="white" stroke="transparent" points="-4,4 -4,-169.8 3347,-169.8 3347,4 -4,4"/>
<text text-anchor="middle" x="1671.5" y="-8.2" font-family="sans-serif" font-size="14.00">dependencies</text>
<g id="clust1" class="cluster">
<title>cluster_OauthProviderModule</title>
<polygon fill="none" stroke="black" stroke-dasharray="1,5" points="8,-32.8 8,-157.8 3335,-157.8 3335,-32.8 8,-32.8"/>
</g>
<g id="clust6" class="cluster">
<title>cluster_OauthProviderModule_providers</title>
<polygon fill="none" stroke="black" points="602,-40.8 602,-92.8 3327,-92.8 3327,-40.8 602,-40.8"/>
</g>
<g id="clust3" class="cluster">
<title>cluster_OauthProviderModule_imports</title>
<polygon fill="none" stroke="black" points="16,-40.8 16,-92.8 594,-92.8 594,-40.8 16,-40.8"/>
</g>
<!-- AuthorizationModule -->
<g id="node1" class="node">
<title>AuthorizationModule</title>
<polygon fill="#8dd3c7" stroke="black" points="585.81,-84.8 582.81,-88.8 561.81,-88.8 558.81,-84.8 448.19,-84.8 448.19,-48.8 585.81,-48.8 585.81,-84.8"/>
<text text-anchor="middle" x="517" y="-62.6" font-family="Times,serif" font-size="14.00">AuthorizationModule</text>
</g>
<!-- OauthProviderModule -->
<g id="node5" class="node">
<title>OauthProviderModule</title>
<polygon fill="#8dd3c7" stroke="black" points="1442.98,-149.8 1439.98,-153.8 1418.98,-153.8 1415.98,-149.8 1301.02,-149.8 1301.02,-113.8 1442.98,-113.8 1442.98,-149.8"/>
<text text-anchor="middle" x="1372" y="-127.6" font-family="Times,serif" font-size="14.00">OauthProviderModule</text>
</g>
<!-- AuthorizationModule&#45;&gt;OauthProviderModule -->
<g id="edge1" class="edge">
<title>AuthorizationModule&#45;&gt;OauthProviderModule</title>
<path fill="none" stroke="black" d="M517,-84.91C517,-104.14 517,-131.8 517,-131.8 517,-131.8 1290.94,-131.8 1290.94,-131.8"/>
<polygon fill="black" stroke="black" points="1290.94,-135.3 1300.94,-131.8 1290.94,-128.3 1290.94,-135.3"/>
</g>
<!-- LoggerModule -->
<g id="node2" class="node">
<title>LoggerModule</title>
<polygon fill="#8dd3c7" stroke="black" points="429.98,-84.8 426.98,-88.8 405.98,-88.8 402.98,-84.8 330.02,-84.8 330.02,-48.8 429.98,-48.8 429.98,-84.8"/>
<text text-anchor="middle" x="380" y="-62.6" font-family="Times,serif" font-size="14.00">LoggerModule</text>
</g>
<!-- LoggerModule&#45;&gt;OauthProviderModule -->
<g id="edge2" class="edge">
<title>LoggerModule&#45;&gt;OauthProviderModule</title>
<path fill="none" stroke="black" d="M380,-84.83C380,-105.57 380,-136.8 380,-136.8 380,-136.8 1290.66,-136.8 1290.66,-136.8"/>
<polygon fill="black" stroke="black" points="1290.66,-140.3 1300.66,-136.8 1290.66,-133.3 1290.66,-140.3"/>
</g>
<!-- OauthProviderServiceModule -->
<g id="node3" class="node">
<title>OauthProviderServiceModule</title>
<polygon fill="#8dd3c7" stroke="black" points="311.96,-84.8 308.96,-88.8 287.96,-88.8 284.96,-84.8 128.04,-84.8 128.04,-48.8 311.96,-48.8 311.96,-84.8"/>
<text text-anchor="middle" x="220" y="-62.6" font-family="Times,serif" font-size="14.00">OauthProviderServiceModule</text>
</g>
<!-- OauthProviderServiceModule&#45;&gt;OauthProviderModule -->
<g id="edge3" class="edge">
<title>OauthProviderServiceModule&#45;&gt;OauthProviderModule</title>
<path fill="none" stroke="black" d="M220,-85.09C220,-107.01 220,-140.8 220,-140.8 220,-140.8 1290.81,-140.8 1290.81,-140.8"/>
<polygon fill="black" stroke="black" points="1290.81,-144.3 1300.81,-140.8 1290.81,-137.3 1290.81,-144.3"/>
</g>
<!-- UserModule -->
<g id="node4" class="node">
<title>UserModule</title>
<polygon fill="#8dd3c7" stroke="black" points="109.99,-84.8 106.99,-88.8 85.99,-88.8 82.99,-84.8 24.01,-84.8 24.01,-48.8 109.99,-48.8 109.99,-84.8"/>
<text text-anchor="middle" x="67" y="-62.6" font-family="Times,serif" font-size="14.00">UserModule</text>
</g>
<!-- UserModule&#45;&gt;OauthProviderModule -->
<g id="edge4" class="edge">
<title>UserModule&#45;&gt;OauthProviderModule</title>
<path fill="none" stroke="black" d="M67,-85.12C67,-108.46 67,-145.8 67,-145.8 67,-145.8 1290.91,-145.8 1290.91,-145.8"/>
<polygon fill="black" stroke="black" points="1290.91,-149.3 1300.91,-145.8 1290.91,-142.3 1290.91,-149.3"/>
</g>
<!-- IdTokenService -->
<g id="node6" class="node">
<title>IdTokenService</title>
<ellipse fill="#fdb462" stroke="black" cx="3246" cy="-66.8" rx="72.92" ry="18"/>
<text text-anchor="middle" x="3246" y="-62.6" font-family="Times,serif" font-size="14.00">IdTokenService</text>
</g>
<!-- IdTokenService&#45;&gt;OauthProviderModule -->
<g id="edge5" class="edge">
<title>IdTokenService&#45;&gt;OauthProviderModule</title>
<path fill="none" stroke="black" d="M3246,-85.12C3246,-108.46 3246,-145.8 3246,-145.8 3246,-145.8 1453.17,-145.8 1453.17,-145.8"/>
<polygon fill="black" stroke="black" points="1453.17,-142.3 1443.17,-145.8 1453.17,-149.3 1453.17,-142.3"/>
</g>
<!-- LtiToolRepo -->
<g id="node7" class="node">
<title>LtiToolRepo</title>
<ellipse fill="#fdb462" stroke="black" cx="3094" cy="-66.8" rx="60.85" ry="18"/>
<text text-anchor="middle" x="3094" y="-62.6" font-family="Times,serif" font-size="14.00">LtiToolRepo</text>
</g>
<!-- LtiToolRepo&#45;&gt;OauthProviderModule -->
<g id="edge6" class="edge">
<title>LtiToolRepo&#45;&gt;OauthProviderModule</title>
<path fill="none" stroke="black" d="M3094,-85.09C3094,-107.01 3094,-140.8 3094,-140.8 3094,-140.8 1452.99,-140.8 1452.99,-140.8"/>
<polygon fill="black" stroke="black" points="1452.99,-137.3 1442.99,-140.8 1452.99,-144.3 1452.99,-137.3"/>
</g>
<!-- OauthProviderClientCrudUc -->
<g id="node8" class="node">
<title>OauthProviderClientCrudUc</title>
<ellipse fill="#fdb462" stroke="black" cx="2893" cy="-66.8" rx="122.15" ry="18"/>
<text text-anchor="middle" x="2893" y="-62.6" font-family="Times,serif" font-size="14.00">OauthProviderClientCrudUc</text>
</g>
<!-- OauthProviderClientCrudUc&#45;&gt;OauthProviderModule -->
<g id="edge7" class="edge">
<title>OauthProviderClientCrudUc&#45;&gt;OauthProviderModule</title>
<path fill="none" stroke="black" d="M2893,-84.83C2893,-105.57 2893,-136.8 2893,-136.8 2893,-136.8 1453.07,-136.8 1453.07,-136.8"/>
<polygon fill="black" stroke="black" points="1453.07,-133.3 1443.07,-136.8 1453.07,-140.3 1453.07,-133.3"/>
</g>
<!-- OauthProviderConsentFlowUc -->
<g id="node9" class="node">
<title>OauthProviderConsentFlowUc</title>
<ellipse fill="#fdb462" stroke="black" cx="2622" cy="-66.8" rx="130.83" ry="18"/>
<text text-anchor="middle" x="2622" y="-62.6" font-family="Times,serif" font-size="14.00">OauthProviderConsentFlowUc</text>
</g>
<!-- OauthProviderConsentFlowUc&#45;&gt;OauthProviderModule -->
<g id="edge8" class="edge">
<title>OauthProviderConsentFlowUc&#45;&gt;OauthProviderModule</title>
<path fill="none" stroke="black" d="M2622,-84.91C2622,-104.14 2622,-131.8 2622,-131.8 2622,-131.8 1453.24,-131.8 1453.24,-131.8"/>
<polygon fill="black" stroke="black" points="1453.24,-128.3 1443.24,-131.8 1453.24,-135.3 1453.24,-128.3"/>
</g>
<!-- OauthProviderLoginFlowService -->
<g id="node10" class="node">
<title>OauthProviderLoginFlowService</title>
<ellipse fill="#fdb462" stroke="black" cx="2334" cy="-66.8" rx="139.55" ry="18"/>
<text text-anchor="middle" x="2334" y="-62.6" font-family="Times,serif" font-size="14.00">OauthProviderLoginFlowService</text>
</g>
<!-- OauthProviderLoginFlowService&#45;&gt;OauthProviderModule -->
<g id="edge9" class="edge">
<title>OauthProviderLoginFlowService&#45;&gt;OauthProviderModule</title>
<path fill="none" stroke="black" d="M2334,-85.1C2334,-103.07 2334,-127.8 2334,-127.8 2334,-127.8 1453.13,-127.8 1453.13,-127.8"/>
<polygon fill="black" stroke="black" points="1453.13,-124.3 1443.13,-127.8 1453.13,-131.3 1453.13,-124.3"/>
</g>
<!-- OauthProviderLoginFlowUc -->
<g id="node11" class="node">
<title>OauthProviderLoginFlowUc</title>
<ellipse fill="#fdb462" stroke="black" cx="2054" cy="-66.8" rx="122.15" ry="18"/>
<text text-anchor="middle" x="2054" y="-62.6" font-family="Times,serif" font-size="14.00">OauthProviderLoginFlowUc</text>
</g>
<!-- OauthProviderLoginFlowUc&#45;&gt;OauthProviderModule -->
<g id="edge10" class="edge">
<title>OauthProviderLoginFlowUc&#45;&gt;OauthProviderModule</title>
<path fill="none" stroke="black" d="M2054,-84.83C2054,-101.2 2054,-122.8 2054,-122.8 2054,-122.8 1453.06,-122.8 1453.06,-122.8"/>
<polygon fill="black" stroke="black" points="1453.06,-119.3 1443.06,-122.8 1453.06,-126.3 1453.06,-119.3"/>
</g>
<!-- OauthProviderLogoutFlowUc -->
<g id="node12" class="node">
<title>OauthProviderLogoutFlowUc</title>
<ellipse fill="#fdb462" stroke="black" cx="1787" cy="-66.8" rx="126.81" ry="18"/>
<text text-anchor="middle" x="1787" y="-62.6" font-family="Times,serif" font-size="14.00">OauthProviderLogoutFlowUc</text>
</g>
<!-- OauthProviderLogoutFlowUc&#45;&gt;OauthProviderModule -->
<g id="edge11" class="edge">
<title>OauthProviderLogoutFlowUc&#45;&gt;OauthProviderModule</title>
<path fill="none" stroke="black" d="M1787,-84.99C1787,-99.98 1787,-118.8 1787,-118.8 1787,-118.8 1453.34,-118.8 1453.34,-118.8"/>
<polygon fill="black" stroke="black" points="1453.34,-115.3 1443.34,-118.8 1453.34,-122.3 1453.34,-115.3"/>
</g>
<!-- OauthProviderRequestMapper -->
<g id="node13" class="node">
<title>OauthProviderRequestMapper</title>
<ellipse fill="#fdb462" stroke="black" cx="1513" cy="-66.8" rx="129.07" ry="18"/>
<text text-anchor="middle" x="1513" y="-62.6" font-family="Times,serif" font-size="14.00">OauthProviderRequestMapper</text>
</g>
<!-- OauthProviderRequestMapper&#45;&gt;OauthProviderModule -->
<g id="edge12" class="edge">
<title>OauthProviderRequestMapper&#45;&gt;OauthProviderModule</title>
<path fill="none" stroke="black" d="M1413.48,-78.42C1413.48,-78.42 1413.48,-103.65 1413.48,-103.65"/>
<polygon fill="black" stroke="black" points="1409.98,-103.65 1413.48,-113.65 1416.98,-103.65 1409.98,-103.65"/>
</g>
<!-- OauthProviderResponseMapper -->
<g id="node14" class="node">
<title>OauthProviderResponseMapper</title>
<ellipse fill="#fdb462" stroke="black" cx="1231" cy="-66.8" rx="134.88" ry="18"/>
<text text-anchor="middle" x="1231" y="-62.6" font-family="Times,serif" font-size="14.00">OauthProviderResponseMapper</text>
</g>
<!-- OauthProviderResponseMapper&#45;&gt;OauthProviderModule -->
<g id="edge13" class="edge">
<title>OauthProviderResponseMapper&#45;&gt;OauthProviderModule</title>
<path fill="none" stroke="black" d="M1333.48,-78.72C1333.48,-78.72 1333.48,-103.57 1333.48,-103.57"/>
<polygon fill="black" stroke="black" points="1329.98,-103.57 1333.48,-113.57 1336.98,-103.57 1329.98,-103.57"/>
</g>
<!-- OauthProviderUc -->
<g id="node15" class="node">
<title>OauthProviderUc</title>
<ellipse fill="#fdb462" stroke="black" cx="999" cy="-66.8" rx="79.31" ry="18"/>
<text text-anchor="middle" x="999" y="-62.6" font-family="Times,serif" font-size="14.00">OauthProviderUc</text>
</g>
<!-- OauthProviderUc&#45;&gt;OauthProviderModule -->
<g id="edge14" class="edge">
<title>OauthProviderUc&#45;&gt;OauthProviderModule</title>
<path fill="none" stroke="black" d="M999,-84.99C999,-99.98 999,-118.8 999,-118.8 999,-118.8 1290.96,-118.8 1290.96,-118.8"/>
<polygon fill="black" stroke="black" points="1290.96,-122.3 1300.96,-118.8 1290.96,-115.3 1290.96,-122.3"/>
</g>
<!-- PseudonymsRepo -->
<g id="node16" class="node">
<title>PseudonymsRepo</title>
<ellipse fill="#fdb462" stroke="black" cx="822" cy="-66.8" rx="80.5" ry="18"/>
<text text-anchor="middle" x="822" y="-62.6" font-family="Times,serif" font-size="14.00">PseudonymsRepo</text>
</g>
<!-- PseudonymsRepo&#45;&gt;OauthProviderModule -->
<g id="edge15" class="edge">
<title>PseudonymsRepo&#45;&gt;OauthProviderModule</title>
<path fill="none" stroke="black" d="M822,-84.83C822,-101.2 822,-122.8 822,-122.8 822,-122.8 1290.94,-122.8 1290.94,-122.8"/>
<polygon fill="black" stroke="black" points="1290.94,-126.3 1300.94,-122.8 1290.94,-119.3 1290.94,-126.3"/>
</g>
<!-- TeamsRepo -->
<g id="node17" class="node">
<title>TeamsRepo</title>
<ellipse fill="#fdb462" stroke="black" cx="667" cy="-66.8" rx="57.32" ry="18"/>
<text text-anchor="middle" x="667" y="-62.6" font-family="Times,serif" font-size="14.00">TeamsRepo</text>
</g>
<!-- TeamsRepo&#45;&gt;OauthProviderModule -->
<g id="edge16" class="edge">
<title>TeamsRepo&#45;&gt;OauthProviderModule</title>
<path fill="none" stroke="black" d="M667,-85.1C667,-103.07 667,-127.8 667,-127.8 667,-127.8 1290.85,-127.8 1290.85,-127.8"/>
<polygon fill="black" stroke="black" points="1290.85,-131.3 1300.85,-127.8 1290.85,-124.3 1290.85,-131.3"/>
</g>
</g>
</svg>
