<?xml version="1.0" encoding="UTF-8" standalone="no"?>
<!DOCTYPE svg PUBLIC "-//W3C//DTD SVG 1.1//EN"
 "http://www.w3.org/Graphics/SVG/1.1/DTD/svg11.dtd">
<!-- Generated by graphviz version 2.47.0 (20210316.0004)
 -->
<!-- Title: dependencies Pages: 1 -->
<svg width="1427pt" height="284pt"
 viewBox="0.00 0.00 1427.00 284.00" xmlns="http://www.w3.org/2000/svg" xmlns:xlink="http://www.w3.org/1999/xlink">
<g id="graph0" class="graph" transform="scale(1 1) rotate(0) translate(4 280)">
<title>dependencies</title>
<polygon fill="white" stroke="transparent" points="-4,4 -4,-280 1423,-280 1423,4 -4,4"/>
<text text-anchor="start" x="688.51" y="-42.4" font-family="Times-12" font-weight="bold" font-size="14.00">Legend</text>
<polygon fill="#ffffb3" stroke="transparent" points="475.5,-10 475.5,-30 495.5,-30 495.5,-10 475.5,-10"/>
<text text-anchor="start" x="499.13" y="-15.4" font-family="Times-12" font-size="14.00"> &#160;Declarations</text>
<polygon fill="#8dd3c7" stroke="transparent" points="588.5,-10 588.5,-30 608.5,-30 608.5,-10 588.5,-10"/>
<text text-anchor="start" x="612.23" y="-15.4" font-family="Times-12" font-size="14.00"> &#160;Module</text>
<polygon fill="#80b1d3" stroke="transparent" points="674.5,-10 674.5,-30 694.5,-30 694.5,-10 674.5,-10"/>
<text text-anchor="start" x="698.28" y="-15.4" font-family="Times-12" font-size="14.00"> &#160;Bootstrap</text>
<polygon fill="#fdb462" stroke="transparent" points="771.5,-10 771.5,-30 791.5,-30 791.5,-10 771.5,-10"/>
<text text-anchor="start" x="795.17" y="-15.4" font-family="Times-12" font-size="14.00"> &#160;Providers</text>
<polygon fill="#fb8072" stroke="transparent" points="867.5,-10 867.5,-30 887.5,-30 887.5,-10 867.5,-10"/>
<text text-anchor="start" x="891.23" y="-15.4" font-family="Times-12" font-size="14.00"> &#160;Exports</text>
<g id="clust1" class="cluster">
<title>cluster_OauthProviderModule</title>
<polygon fill="none" stroke="black" stroke-dasharray="1,5" points="8,-70 8,-268 1411,-268 1411,-70 8,-70"/>
</g>
<g id="clust3" class="cluster">
<title>cluster_OauthProviderModule_imports</title>
<polygon fill="none" stroke="black" points="615,-78 615,-130 1403,-130 1403,-78 615,-78"/>
</g>
<g id="clust4" class="cluster">
<title>cluster_OauthProviderModule_exports</title>
<polygon fill="none" stroke="black" points="571,-208 571,-260 920,-260 920,-208 571,-208"/>
</g>
<g id="clust6" class="cluster">
<title>cluster_OauthProviderModule_providers</title>
<polygon fill="none" stroke="black" points="16,-78 16,-130 607,-130 607,-78 16,-78"/>
</g>
<!-- LoggerModule -->
<g id="node1" class="node">
<title>LoggerModule</title>
<polygon fill="#8dd3c7" stroke="black" points="1394.98,-122 1391.98,-126 1370.98,-126 1367.98,-122 1295.02,-122 1295.02,-86 1394.98,-86 1394.98,-122"/>
<text text-anchor="middle" x="1345" y="-99.8" font-family="Times,serif" font-size="14.00">LoggerModule</text>
</g>
<!-- OauthProviderModule -->
<g id="node7" class="node">
<title>OauthProviderModule</title>
<polygon fill="#8dd3c7" stroke="black" points="840.97,-187 837.97,-191 816.97,-191 813.97,-187 699.03,-187 699.03,-151 840.97,-151 840.97,-187"/>
<text text-anchor="middle" x="770" y="-164.8" font-family="Times,serif" font-size="14.00">OauthProviderModule</text>
</g>
<!-- LoggerModule&#45;&gt;OauthProviderModule -->
<g id="edge1" class="edge">
<title>LoggerModule&#45;&gt;OauthProviderModule</title>
<path fill="none" stroke="black" d="M1345,-122.29C1345,-144.21 1345,-178 1345,-178 1345,-178 851.08,-178 851.08,-178"/>
<polygon fill="black" stroke="black" points="851.08,-174.5 841.08,-178 851.08,-181.5 851.08,-174.5"/>
</g>
<!-- LtiToolModule -->
<g id="node2" class="node">
<title>LtiToolModule</title>
<polygon fill="#8dd3c7" stroke="black" points="1277.33,-122 1274.33,-126 1253.33,-126 1250.33,-122 1174.67,-122 1174.67,-86 1277.33,-86 1277.33,-122"/>
<text text-anchor="middle" x="1226" y="-99.8" font-family="Times,serif" font-size="14.00">LtiToolModule</text>
</g>
<!-- LtiToolModule&#45;&gt;OauthProviderModule -->
<g id="edge2" class="edge">
<title>LtiToolModule&#45;&gt;OauthProviderModule</title>
<path fill="none" stroke="black" d="M1226,-122.11C1226,-141.34 1226,-169 1226,-169 1226,-169 851.25,-169 851.25,-169"/>
<polygon fill="black" stroke="black" points="851.25,-165.5 841.25,-169 851.25,-172.5 851.25,-165.5"/>
</g>
<!-- OauthProviderServiceModule -->
<g id="node3" class="node">
<title>OauthProviderServiceModule</title>
<polygon fill="#8dd3c7" stroke="black" points="1156.95,-122 1153.95,-126 1132.95,-126 1129.95,-122 973.05,-122 973.05,-86 1156.95,-86 1156.95,-122"/>
<text text-anchor="middle" x="1065" y="-99.8" font-family="Times,serif" font-size="14.00">OauthProviderServiceModule</text>
</g>
<!-- OauthProviderServiceModule&#45;&gt;OauthProviderModule -->
<g id="edge3" class="edge">
<title>OauthProviderServiceModule&#45;&gt;OauthProviderModule</title>
<path fill="none" stroke="black" d="M1065,-122.03C1065,-138.4 1065,-160 1065,-160 1065,-160 851.04,-160 851.04,-160"/>
<polygon fill="black" stroke="black" points="851.04,-156.5 841.04,-160 851.04,-163.5 851.04,-156.5"/>
</g>
<!-- PseudonymModule -->
<g id="node4" class="node">
<title>PseudonymModule</title>
<polygon fill="#8dd3c7" stroke="black" points="955.38,-122 952.38,-126 931.38,-126 928.38,-122 830.62,-122 830.62,-86 955.38,-86 955.38,-122"/>
<text text-anchor="middle" x="893" y="-99.8" font-family="Times,serif" font-size="14.00">PseudonymModule</text>
</g>
<!-- PseudonymModule&#45;&gt;OauthProviderModule -->
<g id="edge4" class="edge">
<title>PseudonymModule&#45;&gt;OauthProviderModule</title>
<path fill="none" stroke="black" d="M835.77,-122.11C835.77,-122.11 835.77,-140.99 835.77,-140.99"/>
<polygon fill="black" stroke="black" points="832.27,-140.99 835.77,-150.99 839.27,-140.99 832.27,-140.99"/>
</g>
<!-- ToolModule -->
<g id="node5" class="node">
<title>ToolModule</title>
<polygon fill="#8dd3c7" stroke="black" points="812.99,-122 809.99,-126 788.99,-126 785.99,-122 727.01,-122 727.01,-86 812.99,-86 812.99,-122"/>
<text text-anchor="middle" x="770" y="-99.8" font-family="Times,serif" font-size="14.00">ToolModule</text>
</g>
<!-- ToolModule&#45;&gt;OauthProviderModule -->
<g id="edge5" class="edge">
<title>ToolModule&#45;&gt;OauthProviderModule</title>
<path fill="none" stroke="black" d="M770,-122.11C770,-122.11 770,-140.99 770,-140.99"/>
<polygon fill="black" stroke="black" points="766.5,-140.99 770,-150.99 773.5,-140.99 766.5,-140.99"/>
</g>
<!-- UserModule -->
<g id="node6" class="node">
<title>UserModule</title>
<polygon fill="#8dd3c7" stroke="black" points="708.98,-122 705.98,-126 684.98,-126 681.98,-122 623.02,-122 623.02,-86 708.98,-86 708.98,-122"/>
<text text-anchor="middle" x="666" y="-99.8" font-family="Times,serif" font-size="14.00">UserModule</text>
</g>
<!-- UserModule&#45;&gt;OauthProviderModule -->
<g id="edge6" class="edge">
<title>UserModule&#45;&gt;OauthProviderModule</title>
<path fill="none" stroke="black" d="M704,-122.11C704,-122.11 704,-140.99 704,-140.99"/>
<polygon fill="black" stroke="black" points="700.5,-140.99 704,-150.99 707.5,-140.99 700.5,-140.99"/>
</g>
<!-- IdTokenService  -->
<g id="node8" class="node">
<title>IdTokenService </title>
<polygon fill="#fb8072" stroke="black" points="912.41,-252 803.59,-252 803.59,-216 912.41,-216 912.41,-252"/>
<text text-anchor="middle" x="858" y="-229.8" font-family="Times,serif" font-size="14.00">IdTokenService </text>
</g>
<!-- OauthProviderModule&#45;&gt;IdTokenService  -->
<g id="edge7" class="edge">
<title>OauthProviderModule&#45;&gt;IdTokenService </title>
<path fill="none" stroke="black" stroke-dasharray="5,2" d="M822.27,-187.11C822.27,-187.11 822.27,-205.99 822.27,-205.99"/>
<polygon fill="black" stroke="black" points="818.77,-205.99 822.27,-215.99 825.77,-205.99 818.77,-205.99"/>
</g>
<!-- OauthProviderLoginFlowService  -->
<g id="node9" class="node">
<title>OauthProviderLoginFlowService </title>
<polygon fill="#fb8072" stroke="black" points="785.12,-252 578.88,-252 578.88,-216 785.12,-216 785.12,-252"/>
<text text-anchor="middle" x="682" y="-229.8" font-family="Times,serif" font-size="14.00">OauthProviderLoginFlowService </text>
</g>
<!-- OauthProviderModule&#45;&gt;OauthProviderLoginFlowService  -->
<g id="edge8" class="edge">
<title>OauthProviderModule&#45;&gt;OauthProviderLoginFlowService </title>
<path fill="none" stroke="black" stroke-dasharray="5,2" d="M742.04,-187.11C742.04,-187.11 742.04,-205.99 742.04,-205.99"/>
<polygon fill="black" stroke="black" points="738.54,-205.99 742.04,-215.99 745.54,-205.99 738.54,-205.99"/>
</g>
<!-- IdTokenService -->
<g id="node10" class="node">
<title>IdTokenService</title>
<ellipse fill="#fdb462" stroke="black" cx="526" cy="-104" rx="72.91" ry="18"/>
<text text-anchor="middle" x="526" y="-99.8" font-family="Times,serif" font-size="14.00">IdTokenService</text>
</g>
<!-- IdTokenService&#45;&gt;OauthProviderModule -->
<g id="edge9" class="edge">
<title>IdTokenService&#45;&gt;OauthProviderModule</title>
<path fill="none" stroke="black" d="M588.82,-113.25C588.82,-129.15 588.82,-160 588.82,-160 588.82,-160 688.91,-160 688.91,-160"/>
<polygon fill="black" stroke="black" points="688.91,-163.5 698.91,-160 688.91,-156.5 688.91,-163.5"/>
</g>
<!-- OauthProviderLoginFlowService -->
<g id="node11" class="node">
<title>OauthProviderLoginFlowService</title>
<ellipse fill="#fdb462" stroke="black" cx="296" cy="-104" rx="139.53" ry="18"/>
<text text-anchor="middle" x="296" y="-99.8" font-family="Times,serif" font-size="14.00">OauthProviderLoginFlowService</text>
</g>
<!-- OauthProviderLoginFlowService&#45;&gt;OauthProviderModule -->
<g id="edge10" class="edge">
<title>OauthProviderLoginFlowService&#45;&gt;OauthProviderModule</title>
<path fill="none" stroke="black" d="M296,-122.11C296,-141.34 296,-169 296,-169 296,-169 688.78,-169 688.78,-169"/>
<polygon fill="black" stroke="black" points="688.78,-172.5 698.78,-169 688.78,-165.5 688.78,-172.5"/>
</g>
<!-- TeamsRepo -->
<g id="node12" class="node">
<title>TeamsRepo</title>
<ellipse fill="#fdb462" stroke="black" cx="81" cy="-104" rx="57.32" ry="18"/>
<text text-anchor="middle" x="81" y="-99.8" font-family="Times,serif" font-size="14.00">TeamsRepo</text>
</g>
<!-- TeamsRepo&#45;&gt;OauthProviderModule -->
<g id="edge11" class="edge">
<title>TeamsRepo&#45;&gt;OauthProviderModule</title>
<path fill="none" stroke="black" d="M81,-122.29C81,-144.21 81,-178 81,-178 81,-178 688.86,-178 688.86,-178"/>
<polygon fill="black" stroke="black" points="688.86,-181.5 698.86,-178 688.86,-174.5 688.86,-181.5"/>
</g>
</g>
</svg>
