<?xml version="1.0" encoding="UTF-8" standalone="no"?>
<!DOCTYPE svg PUBLIC "-//W3C//DTD SVG 1.1//EN"
 "http://www.w3.org/Graphics/SVG/1.1/DTD/svg11.dtd">
<!-- Generated by graphviz version 2.47.0 (20210316.0004)
 -->
<!-- Title: dependencies Pages: 1 -->
<svg width="5330pt" height="284pt"
 viewBox="0.00 0.00 5330.00 284.00" xmlns="http://www.w3.org/2000/svg" xmlns:xlink="http://www.w3.org/1999/xlink">
<g id="graph0" class="graph" transform="scale(1 1) rotate(0) translate(4 280)">
<title>dependencies</title>
<polygon fill="white" stroke="transparent" points="-4,4 -4,-280 5326,-280 5326,4 -4,4"/>
<text text-anchor="start" x="2640.01" y="-42.4" font-family="Times-12" font-weight="bold" font-size="14.00">Legend</text>
<polygon fill="#ffffb3" stroke="transparent" points="2427,-10 2427,-30 2447,-30 2447,-10 2427,-10"/>
<text text-anchor="start" x="2450.63" y="-15.4" font-family="Times-12" font-size="14.00"> &#160;Declarations</text>
<polygon fill="#8dd3c7" stroke="transparent" points="2540,-10 2540,-30 2560,-30 2560,-10 2540,-10"/>
<text text-anchor="start" x="2563.73" y="-15.4" font-family="Times-12" font-size="14.00"> &#160;Module</text>
<polygon fill="#80b1d3" stroke="transparent" points="2626,-10 2626,-30 2646,-30 2646,-10 2626,-10"/>
<text text-anchor="start" x="2649.78" y="-15.4" font-family="Times-12" font-size="14.00"> &#160;Bootstrap</text>
<polygon fill="#fdb462" stroke="transparent" points="2723,-10 2723,-30 2743,-30 2743,-10 2723,-10"/>
<text text-anchor="start" x="2746.67" y="-15.4" font-family="Times-12" font-size="14.00"> &#160;Providers</text>
<polygon fill="#fb8072" stroke="transparent" points="2819,-10 2819,-30 2839,-30 2839,-10 2819,-10"/>
<text text-anchor="start" x="2842.73" y="-15.4" font-family="Times-12" font-size="14.00"> &#160;Exports</text>
<g id="clust1" class="cluster">
<title>cluster_LearnroomModule</title>
<polygon fill="none" stroke="black" stroke-dasharray="1,5" points="8,-70 8,-268 5314,-268 5314,-70 8,-70"/>
</g>
<g id="clust4" class="cluster">
<title>cluster_LearnroomModule_exports</title>
<polygon fill="none" stroke="black" points="2025,-208 2025,-260 3289,-260 3289,-208 2025,-208"/>
</g>
<g id="clust3" class="cluster">
<title>cluster_LearnroomModule_imports</title>
<polygon fill="none" stroke="black" points="4483,-78 4483,-130 5306,-130 5306,-78 4483,-78"/>
</g>
<g id="clust6" class="cluster">
<title>cluster_LearnroomModule_providers</title>
<polygon fill="none" stroke="black" points="16,-78 16,-130 4475,-130 4475,-78 16,-78"/>
</g>
<!-- ContextExternalToolModule -->
<g id="node1" class="node">
<title>ContextExternalToolModule</title>
<polygon fill="#8dd3c7" stroke="black" points="5297.75,-122 5294.75,-126 5273.75,-126 5270.75,-122 5120.25,-122 5120.25,-86 5297.75,-86 5297.75,-122"/>
<text text-anchor="middle" x="5209" y="-99.8" font-family="Times,serif" font-size="14.00">ContextExternalToolModule</text>
</g>
<!-- LearnroomModule -->
<g id="node7" class="node">
<title>LearnroomModule</title>
<polygon fill="#8dd3c7" stroke="black" points="2614.74,-187 2611.74,-191 2590.74,-191 2587.74,-187 2493.26,-187 2493.26,-151 2614.74,-151 2614.74,-187"/>
<text text-anchor="middle" x="2554" y="-164.8" font-family="Times,serif" font-size="14.00">LearnroomModule</text>
</g>
<!-- ContextExternalToolModule&#45;&gt;LearnroomModule -->
<g id="edge1" class="edge">
<title>ContextExternalToolModule&#45;&gt;LearnroomModule</title>
<path fill="none" stroke="black" d="M5209,-122.16C5209,-144.35 5209,-179 5209,-179 5209,-179 2624.76,-179 2624.76,-179"/>
<polygon fill="black" stroke="black" points="2624.76,-175.5 2614.76,-179 2624.76,-182.5 2624.76,-175.5"/>
</g>
<!-- CopyHelperModule -->
<g id="node2" class="node">
<title>CopyHelperModule</title>
<polygon fill="#8dd3c7" stroke="black" points="5101.97,-122 5098.97,-126 5077.97,-126 5074.97,-122 4974.03,-122 4974.03,-86 5101.97,-86 5101.97,-122"/>
<text text-anchor="middle" x="5038" y="-99.8" font-family="Times,serif" font-size="14.00">CopyHelperModule</text>
</g>
<!-- CopyHelperModule&#45;&gt;LearnroomModule -->
<g id="edge2" class="edge">
<title>CopyHelperModule&#45;&gt;LearnroomModule</title>
<path fill="none" stroke="black" d="M5038,-122.04C5038,-143.66 5038,-177 5038,-177 5038,-177 2624.79,-177 2624.79,-177"/>
<polygon fill="black" stroke="black" points="2624.79,-173.5 2614.79,-177 2624.79,-180.5 2624.79,-173.5"/>
</g>
<!-- LessonModule -->
<g id="node3" class="node">
<title>LessonModule</title>
<polygon fill="#8dd3c7" stroke="black" points="4955.71,-122 4952.71,-126 4931.71,-126 4928.71,-122 4856.29,-122 4856.29,-86 4955.71,-86 4955.71,-122"/>
<text text-anchor="middle" x="4906" y="-99.8" font-family="Times,serif" font-size="14.00">LessonModule</text>
</g>
<!-- LessonModule&#45;&gt;LearnroomModule -->
<g id="edge3" class="edge">
<title>LessonModule&#45;&gt;LearnroomModule</title>
<path fill="none" stroke="black" d="M4906,-122.28C4906,-143.32 4906,-175 4906,-175 4906,-175 2624.8,-175 2624.8,-175"/>
<polygon fill="black" stroke="black" points="2624.8,-171.5 2614.8,-175 2624.8,-178.5 2624.8,-171.5"/>
</g>
<!-- LoggerModule -->
<g id="node4" class="node">
<title>LoggerModule</title>
<polygon fill="#8dd3c7" stroke="black" points="4837.98,-122 4834.98,-126 4813.98,-126 4810.98,-122 4738.02,-122 4738.02,-86 4837.98,-86 4837.98,-122"/>
<text text-anchor="middle" x="4788" y="-99.8" font-family="Times,serif" font-size="14.00">LoggerModule</text>
</g>
<!-- LoggerModule&#45;&gt;LearnroomModule -->
<g id="edge4" class="edge">
<title>LoggerModule&#45;&gt;LearnroomModule</title>
<path fill="none" stroke="black" d="M4788,-122.13C4788,-142.57 4788,-173 4788,-173 4788,-173 2624.91,-173 2624.91,-173"/>
<polygon fill="black" stroke="black" points="2624.91,-169.5 2614.91,-173 2624.91,-176.5 2624.91,-169.5"/>
</g>
<!-- TaskModule -->
<g id="node5" class="node">
<title>TaskModule</title>
<polygon fill="#8dd3c7" stroke="black" points="4720.26,-122 4717.26,-126 4696.26,-126 4693.26,-122 4633.74,-122 4633.74,-86 4720.26,-86 4720.26,-122"/>
<text text-anchor="middle" x="4677" y="-99.8" font-family="Times,serif" font-size="14.00">TaskModule</text>
</g>
<!-- TaskModule&#45;&gt;LearnroomModule -->
<g id="edge5" class="edge">
<title>TaskModule&#45;&gt;LearnroomModule</title>
<path fill="none" stroke="black" d="M4677,-122.31C4677,-142.15 4677,-171 4677,-171 4677,-171 2624.96,-171 2624.96,-171"/>
<polygon fill="black" stroke="black" points="2624.96,-167.5 2614.96,-171 2624.96,-174.5 2624.96,-167.5"/>
</g>
<!-- ToolConfigModule -->
<g id="node6" class="node">
<title>ToolConfigModule</title>
<polygon fill="#8dd3c7" stroke="black" points="4615.38,-122 4612.38,-126 4591.38,-126 4588.38,-122 4490.62,-122 4490.62,-86 4615.38,-86 4615.38,-122"/>
<text text-anchor="middle" x="4553" y="-99.8" font-family="Times,serif" font-size="14.00">ToolConfigModule</text>
</g>
<!-- ToolConfigModule&#45;&gt;LearnroomModule -->
<g id="edge6" class="edge">
<title>ToolConfigModule&#45;&gt;LearnroomModule</title>
<path fill="none" stroke="black" d="M4553,-122.17C4553,-141.09 4553,-168 4553,-168 4553,-168 2624.92,-168 2624.92,-168"/>
<polygon fill="black" stroke="black" points="2624.92,-164.5 2614.92,-168 2624.92,-171.5 2624.92,-164.5"/>
</g>
<!-- CommonCartridgeExportService  -->
<g id="node8" class="node">
<title>CommonCartridgeExportService </title>
<polygon fill="#fb8072" stroke="black" points="3281.07,-252 3076.93,-252 3076.93,-216 3281.07,-216 3281.07,-252"/>
<text text-anchor="middle" x="3179" y="-229.8" font-family="Times,serif" font-size="14.00">CommonCartridgeExportService </text>
</g>
<!-- LearnroomModule&#45;&gt;CommonCartridgeExportService  -->
<g id="edge7" class="edge">
<title>LearnroomModule&#45;&gt;CommonCartridgeExportService </title>
<path fill="none" stroke="black" stroke-dasharray="5,2" d="M2614.86,-181C2770.02,-181 3168.24,-181 3168.24,-181 3168.24,-181 3168.24,-205.76 3168.24,-205.76"/>
<polygon fill="black" stroke="black" points="3164.74,-205.76 3168.24,-215.76 3171.74,-205.76 3164.74,-205.76"/>
</g>
<!-- CommonCartridgeImportService  -->
<g id="node9" class="node">
<title>CommonCartridgeImportService </title>
<polygon fill="#fb8072" stroke="black" points="3058.07,-252 2853.93,-252 2853.93,-216 3058.07,-216 3058.07,-252"/>
<text text-anchor="middle" x="2956" y="-229.8" font-family="Times,serif" font-size="14.00">CommonCartridgeImportService </text>
</g>
<!-- LearnroomModule&#45;&gt;CommonCartridgeImportService  -->
<g id="edge8" class="edge">
<title>LearnroomModule&#45;&gt;CommonCartridgeImportService </title>
<path fill="none" stroke="black" stroke-dasharray="5,2" d="M2614.89,-183C2716.16,-183 2908.2,-183 2908.2,-183 2908.2,-183 2908.2,-205.88 2908.2,-205.88"/>
<polygon fill="black" stroke="black" points="2904.7,-205.88 2908.2,-215.88 2911.7,-205.88 2904.7,-205.88"/>
</g>
<!-- CourseCopyService  -->
<g id="node10" class="node">
<title>CourseCopyService </title>
<polygon fill="#fb8072" stroke="black" points="2835.97,-252 2704.03,-252 2704.03,-216 2835.97,-216 2835.97,-252"/>
<text text-anchor="middle" x="2770" y="-229.8" font-family="Times,serif" font-size="14.00">CourseCopyService </text>
</g>
<!-- LearnroomModule&#45;&gt;CourseCopyService  -->
<g id="edge9" class="edge">
<title>LearnroomModule&#45;&gt;CourseCopyService </title>
<path fill="none" stroke="black" stroke-dasharray="5,2" d="M2615.03,-185C2678.9,-185 2770,-185 2770,-185 2770,-185 2770,-205.75 2770,-205.75"/>
<polygon fill="black" stroke="black" points="2766.5,-205.75 2770,-215.75 2773.5,-205.75 2766.5,-205.75"/>
</g>
<!-- CourseDoService  -->
<g id="node11" class="node">
<title>CourseDoService </title>
<polygon fill="#fb8072" stroke="black" points="2686.24,-252 2567.76,-252 2567.76,-216 2686.24,-216 2686.24,-252"/>
<text text-anchor="middle" x="2627" y="-229.8" font-family="Times,serif" font-size="14.00">CourseDoService </text>
</g>
<!-- LearnroomModule&#45;&gt;CourseDoService  -->
<g id="edge10" class="edge">
<title>LearnroomModule&#45;&gt;CourseDoService </title>
<path fill="none" stroke="black" stroke-dasharray="5,2" d="M2591.38,-187.11C2591.38,-187.11 2591.38,-205.99 2591.38,-205.99"/>
<polygon fill="black" stroke="black" points="2587.88,-205.99 2591.38,-215.99 2594.88,-205.99 2587.88,-205.99"/>
</g>
<!-- CourseGroupService  -->
<g id="node12" class="node">
<title>CourseGroupService </title>
<polygon fill="#fb8072" stroke="black" points="2549.4,-252 2412.6,-252 2412.6,-216 2549.4,-216 2549.4,-252"/>
<text text-anchor="middle" x="2481" y="-229.8" font-family="Times,serif" font-size="14.00">CourseGroupService </text>
</g>
<!-- LearnroomModule&#45;&gt;CourseGroupService  -->
<g id="edge11" class="edge">
<title>LearnroomModule&#45;&gt;CourseGroupService </title>
<path fill="none" stroke="black" stroke-dasharray="5,2" d="M2521.29,-187.11C2521.29,-187.11 2521.29,-205.99 2521.29,-205.99"/>
<polygon fill="black" stroke="black" points="2517.79,-205.99 2521.29,-215.99 2524.79,-205.99 2517.79,-205.99"/>
</g>
<!-- CourseService  -->
<g id="node13" class="node">
<title>CourseService </title>
<polygon fill="#fb8072" stroke="black" points="2394.63,-252 2293.37,-252 2293.37,-216 2394.63,-216 2394.63,-252"/>
<text text-anchor="middle" x="2344" y="-229.8" font-family="Times,serif" font-size="14.00">CourseService </text>
</g>
<!-- LearnroomModule&#45;&gt;CourseService  -->
<g id="edge12" class="edge">
<title>LearnroomModule&#45;&gt;CourseService </title>
<path fill="none" stroke="black" stroke-dasharray="5,2" d="M2492.98,-185C2430.97,-185 2344,-185 2344,-185 2344,-185 2344,-205.75 2344,-205.75"/>
<polygon fill="black" stroke="black" points="2340.5,-205.75 2344,-215.75 2347.5,-205.75 2340.5,-205.75"/>
</g>
<!-- DashboardService  -->
<g id="node14" class="node">
<title>DashboardService </title>
<polygon fill="#fb8072" stroke="black" points="2275.12,-252 2152.88,-252 2152.88,-216 2275.12,-216 2275.12,-252"/>
<text text-anchor="middle" x="2214" y="-229.8" font-family="Times,serif" font-size="14.00">DashboardService </text>
</g>
<!-- LearnroomModule&#45;&gt;DashboardService  -->
<g id="edge13" class="edge">
<title>LearnroomModule&#45;&gt;DashboardService </title>
<path fill="none" stroke="black" stroke-dasharray="5,2" d="M2493.16,-183C2407.17,-183 2260.39,-183 2260.39,-183 2260.39,-183 2260.39,-205.88 2260.39,-205.88"/>
<polygon fill="black" stroke="black" points="2256.89,-205.88 2260.39,-215.88 2263.89,-205.88 2256.89,-205.88"/>
</g>
<!-- RoomsService  -->
<g id="node15" class="node">
<title>RoomsService </title>
<polygon fill="#fb8072" stroke="black" points="2134.65,-252 2033.35,-252 2033.35,-216 2134.65,-216 2134.65,-252"/>
<text text-anchor="middle" x="2084" y="-229.8" font-family="Times,serif" font-size="14.00">RoomsService </text>
</g>
<!-- LearnroomModule&#45;&gt;RoomsService  -->
<g id="edge14" class="edge">
<title>LearnroomModule&#45;&gt;RoomsService </title>
<path fill="none" stroke="black" stroke-dasharray="5,2" d="M2493.07,-181C2369.75,-181 2102.21,-181 2102.21,-181 2102.21,-181 2102.21,-205.76 2102.21,-205.76"/>
<polygon fill="black" stroke="black" points="2098.71,-205.76 2102.21,-215.76 2105.71,-205.76 2098.71,-205.76"/>
</g>
<!-- BoardCopyService -->
<g id="node16" class="node">
<title>BoardCopyService</title>
<ellipse fill="#fdb462" stroke="black" cx="4382" cy="-104" rx="84.53" ry="18"/>
<text text-anchor="middle" x="4382" y="-99.8" font-family="Times,serif" font-size="14.00">BoardCopyService</text>
</g>
<!-- BoardCopyService&#45;&gt;LearnroomModule -->
<g id="edge15" class="edge">
<title>BoardCopyService&#45;&gt;LearnroomModule</title>
<path fill="none" stroke="black" d="M4382,-122.27C4382,-140.56 4382,-166 4382,-166 4382,-166 2624.82,-166 2624.82,-166"/>
<polygon fill="black" stroke="black" points="2624.82,-162.5 2614.82,-166 2624.82,-169.5 2624.82,-162.5"/>
</g>
<!-- BoardNodeRepo -->
<g id="node17" class="node">
<title>BoardNodeRepo</title>
<ellipse fill="#fdb462" stroke="black" cx="4204" cy="-104" rx="75.87" ry="18"/>
<text text-anchor="middle" x="4204" y="-99.8" font-family="Times,serif" font-size="14.00">BoardNodeRepo</text>
</g>
<!-- BoardNodeRepo&#45;&gt;LearnroomModule -->
<g id="edge16" class="edge">
<title>BoardNodeRepo&#45;&gt;LearnroomModule</title>
<path fill="none" stroke="black" d="M4204,-122C4204,-139.68 4204,-164 4204,-164 4204,-164 2625.17,-164 2625.17,-164"/>
<polygon fill="black" stroke="black" points="2625.18,-160.5 2615.17,-164 2625.17,-167.5 2625.18,-160.5"/>
</g>
<!-- ColumnBoardNodeRepo -->
<g id="node18" class="node">
<title>ColumnBoardNodeRepo</title>
<ellipse fill="#fdb462" stroke="black" cx="4003" cy="-104" rx="107.11" ry="18"/>
<text text-anchor="middle" x="4003" y="-99.8" font-family="Times,serif" font-size="14.00">ColumnBoardNodeRepo</text>
</g>
<!-- ColumnBoardNodeRepo&#45;&gt;LearnroomModule -->
<g id="edge17" class="edge">
<title>ColumnBoardNodeRepo&#45;&gt;LearnroomModule</title>
<path fill="none" stroke="black" d="M4003,-122.03C4003,-139.06 4003,-162 4003,-162 4003,-162 2624.88,-162 2624.88,-162"/>
<polygon fill="black" stroke="black" points="2624.88,-158.5 2614.88,-162 2624.88,-165.5 2624.88,-158.5"/>
</g>
<!-- CommonCartridgeExportService -->
<g id="node19" class="node">
<title>CommonCartridgeExportService</title>
<ellipse fill="#fdb462" stroke="black" cx="3739" cy="-104" rx="138.89" ry="18"/>
<text text-anchor="middle" x="3739" y="-99.8" font-family="Times,serif" font-size="14.00">CommonCartridgeExportService</text>
</g>
<!-- CommonCartridgeExportService&#45;&gt;LearnroomModule -->
<g id="edge18" class="edge">
<title>CommonCartridgeExportService&#45;&gt;LearnroomModule</title>
<path fill="none" stroke="black" d="M3739,-122.03C3739,-138.4 3739,-160 3739,-160 3739,-160 2624.8,-160 2624.8,-160"/>
<polygon fill="black" stroke="black" points="2624.8,-156.5 2614.8,-160 2624.8,-163.5 2624.8,-156.5"/>
</g>
<!-- CommonCartridgeFileValidatorPipe -->
<g id="node20" class="node">
<title>CommonCartridgeFileValidatorPipe</title>
<ellipse fill="#fdb462" stroke="black" cx="3430" cy="-104" rx="152.22" ry="18"/>
<text text-anchor="middle" x="3430" y="-99.8" font-family="Times,serif" font-size="14.00">CommonCartridgeFileValidatorPipe</text>
</g>
<!-- CommonCartridgeFileValidatorPipe&#45;&gt;LearnroomModule -->
<g id="edge19" class="edge">
<title>CommonCartridgeFileValidatorPipe&#45;&gt;LearnroomModule</title>
<path fill="none" stroke="black" d="M3431.7,-122.28C3431.7,-137.95 3431.7,-158 3431.7,-158 3431.7,-158 2625.02,-158 2625.02,-158"/>
<polygon fill="black" stroke="black" points="2625.02,-154.5 2615.02,-158 2625.02,-161.5 2625.02,-154.5"/>
</g>
<!-- CommonCartridgeImportMapper -->
<g id="node21" class="node">
<title>CommonCartridgeImportMapper</title>
<ellipse fill="#fdb462" stroke="black" cx="3120" cy="-104" rx="139.53" ry="18"/>
<text text-anchor="middle" x="3120" y="-99.8" font-family="Times,serif" font-size="14.00">CommonCartridgeImportMapper</text>
</g>
<!-- CommonCartridgeImportMapper&#45;&gt;LearnroomModule -->
<g id="edge20" class="edge">
<title>CommonCartridgeImportMapper&#45;&gt;LearnroomModule</title>
<path fill="none" stroke="black" d="M3019.26,-116.59C3019.26,-131.98 3019.26,-156 3019.26,-156 3019.26,-156 2624.82,-156 2624.82,-156"/>
<polygon fill="black" stroke="black" points="2624.82,-152.5 2614.82,-156 2624.82,-159.5 2624.82,-152.5"/>
</g>
<!-- CommonCartridgeImportService -->
<g id="node22" class="node">
<title>CommonCartridgeImportService</title>
<ellipse fill="#fdb462" stroke="black" cx="2824" cy="-104" rx="138.88" ry="18"/>
<text text-anchor="middle" x="2824" y="-99.8" font-family="Times,serif" font-size="14.00">CommonCartridgeImportService</text>
</g>
<!-- CommonCartridgeImportService&#45;&gt;LearnroomModule -->
<g id="edge21" class="edge">
<title>CommonCartridgeImportService&#45;&gt;LearnroomModule</title>
<path fill="none" stroke="black" d="M2695.19,-110.95C2695.19,-124.69 2695.19,-154 2695.19,-154 2695.19,-154 2625.11,-154 2625.11,-154"/>
<polygon fill="black" stroke="black" points="2625.11,-150.5 2615.11,-154 2625.11,-157.5 2625.11,-150.5"/>
</g>
<!-- CommonCartridgeMapper -->
<g id="node23" class="node">
<title>CommonCartridgeMapper</title>
<ellipse fill="#fdb462" stroke="black" cx="2554" cy="-104" rx="113.47" ry="18"/>
<text text-anchor="middle" x="2554" y="-99.8" font-family="Times,serif" font-size="14.00">CommonCartridgeMapper</text>
</g>
<!-- CommonCartridgeMapper&#45;&gt;LearnroomModule -->
<g id="edge22" class="edge">
<title>CommonCartridgeMapper&#45;&gt;LearnroomModule</title>
<path fill="none" stroke="black" d="M2554,-122.11C2554,-122.11 2554,-140.99 2554,-140.99"/>
<polygon fill="black" stroke="black" points="2550.5,-140.99 2554,-150.99 2557.5,-140.99 2550.5,-140.99"/>
</g>
<!-- CourseCopyService -->
<g id="node24" class="node">
<title>CourseCopyService</title>
<ellipse fill="#fdb462" stroke="black" cx="2334" cy="-104" rx="88.04" ry="18"/>
<text text-anchor="middle" x="2334" y="-99.8" font-family="Times,serif" font-size="14.00">CourseCopyService</text>
</g>
<!-- CourseCopyService&#45;&gt;LearnroomModule -->
<g id="edge23" class="edge">
<title>CourseCopyService&#45;&gt;LearnroomModule</title>
<path fill="none" stroke="black" d="M2417.41,-110.13C2417.41,-123.48 2417.41,-154 2417.41,-154 2417.41,-154 2482.9,-154 2482.9,-154"/>
<polygon fill="black" stroke="black" points="2482.9,-157.5 2492.9,-154 2482.9,-150.5 2482.9,-157.5"/>
</g>
<!-- CourseDoService -->
<g id="node25" class="node">
<title>CourseDoService</title>
<ellipse fill="#fdb462" stroke="black" cx="2149" cy="-104" rx="79.29" ry="18"/>
<text text-anchor="middle" x="2149" y="-99.8" font-family="Times,serif" font-size="14.00">CourseDoService</text>
</g>
<!-- CourseDoService&#45;&gt;LearnroomModule -->
<g id="edge24" class="edge">
<title>CourseDoService&#45;&gt;LearnroomModule</title>
<path fill="none" stroke="black" d="M2190.54,-119.6C2190.54,-134.92 2190.54,-156 2190.54,-156 2190.54,-156 2483.17,-156 2483.17,-156"/>
<polygon fill="black" stroke="black" points="2483.17,-159.5 2493.17,-156 2483.17,-152.5 2483.17,-159.5"/>
</g>
<!-- CourseGroupRepo -->
<g id="node26" class="node">
<title>CourseGroupRepo</title>
<ellipse fill="#fdb462" stroke="black" cx="1968" cy="-104" rx="83.39" ry="18"/>
<text text-anchor="middle" x="1968" y="-99.8" font-family="Times,serif" font-size="14.00">CourseGroupRepo</text>
</g>
<!-- CourseGroupRepo&#45;&gt;LearnroomModule -->
<g id="edge25" class="edge">
<title>CourseGroupRepo&#45;&gt;LearnroomModule</title>
<path fill="none" stroke="black" d="M2042.44,-112.44C2042.44,-127.62 2042.44,-158 2042.44,-158 2042.44,-158 2483.05,-158 2483.05,-158"/>
<polygon fill="black" stroke="black" points="2483.05,-161.5 2493.05,-158 2483.05,-154.5 2483.05,-161.5"/>
</g>
<!-- CourseGroupService -->
<g id="node27" class="node">
<title>CourseGroupService</title>
<ellipse fill="#fdb462" stroke="black" cx="1775" cy="-104" rx="92.04" ry="18"/>
<text text-anchor="middle" x="1775" y="-99.8" font-family="Times,serif" font-size="14.00">CourseGroupService</text>
</g>
<!-- CourseGroupService&#45;&gt;LearnroomModule -->
<g id="edge26" class="edge">
<title>CourseGroupService&#45;&gt;LearnroomModule</title>
<path fill="none" stroke="black" d="M1775,-122.03C1775,-138.4 1775,-160 1775,-160 1775,-160 2483.2,-160 2483.2,-160"/>
<polygon fill="black" stroke="black" points="2483.2,-163.5 2493.2,-160 2483.2,-156.5 2483.2,-163.5"/>
</g>
<!-- CourseRepo -->
<g id="node28" class="node">
<title>CourseRepo</title>
<ellipse fill="#fdb462" stroke="black" cx="1606" cy="-104" rx="58.55" ry="18"/>
<text text-anchor="middle" x="1606" y="-99.8" font-family="Times,serif" font-size="14.00">CourseRepo</text>
</g>
<!-- CourseRepo&#45;&gt;LearnroomModule -->
<g id="edge27" class="edge">
<title>CourseRepo&#45;&gt;LearnroomModule</title>
<path fill="none" stroke="black" d="M1606,-122.03C1606,-139.06 1606,-162 1606,-162 1606,-162 2483.26,-162 2483.26,-162"/>
<polygon fill="black" stroke="black" points="2483.26,-165.5 2493.26,-162 2483.26,-158.5 2483.26,-165.5"/>
</g>
<!-- CourseService -->
<g id="node29" class="node">
<title>CourseService</title>
<ellipse fill="#fdb462" stroke="black" cx="1462" cy="-104" rx="67.19" ry="18"/>
<text text-anchor="middle" x="1462" y="-99.8" font-family="Times,serif" font-size="14.00">CourseService</text>
</g>
<!-- CourseService&#45;&gt;LearnroomModule -->
<g id="edge28" class="edge">
<title>CourseService&#45;&gt;LearnroomModule</title>
<path fill="none" stroke="black" d="M1462,-122C1462,-139.68 1462,-164 1462,-164 1462,-164 2482.95,-164 2482.95,-164"/>
<polygon fill="black" stroke="black" points="2482.95,-167.5 2492.95,-164 2482.95,-160.5 2482.95,-167.5"/>
</g>
<!-- DashboardElementRepo -->
<g id="node30" class="node">
<title>DashboardElementRepo</title>
<ellipse fill="#fdb462" stroke="black" cx="1271" cy="-104" rx="105.36" ry="18"/>
<text text-anchor="middle" x="1271" y="-99.8" font-family="Times,serif" font-size="14.00">DashboardElementRepo</text>
</g>
<!-- DashboardElementRepo&#45;&gt;LearnroomModule -->
<g id="edge29" class="edge">
<title>DashboardElementRepo&#45;&gt;LearnroomModule</title>
<path fill="none" stroke="black" d="M1271,-122.27C1271,-140.56 1271,-166 1271,-166 1271,-166 2482.98,-166 2482.98,-166"/>
<polygon fill="black" stroke="black" points="2482.98,-169.5 2492.98,-166 2482.98,-162.5 2482.98,-169.5"/>
</g>
<!-- DashboardModelMapper -->
<g id="node31" class="node">
<title>DashboardModelMapper</title>
<ellipse fill="#fdb462" stroke="black" cx="1039" cy="-104" rx="108.21" ry="18"/>
<text text-anchor="middle" x="1039" y="-99.8" font-family="Times,serif" font-size="14.00">DashboardModelMapper</text>
</g>
<!-- DashboardModelMapper&#45;&gt;LearnroomModule -->
<g id="edge30" class="edge">
<title>DashboardModelMapper&#45;&gt;LearnroomModule</title>
<path fill="none" stroke="black" d="M1039,-122.17C1039,-141.09 1039,-168 1039,-168 1039,-168 2483.21,-168 2483.21,-168"/>
<polygon fill="black" stroke="black" points="2483.21,-171.5 2493.21,-168 2483.21,-164.5 2483.21,-171.5"/>
</g>
<!-- DashboardService -->
<g id="node32" class="node">
<title>DashboardService</title>
<ellipse fill="#fdb462" stroke="black" cx="831" cy="-104" rx="81.64" ry="18"/>
<text text-anchor="middle" x="831" y="-99.8" font-family="Times,serif" font-size="14.00">DashboardService</text>
</g>
<!-- DashboardService&#45;&gt;LearnroomModule -->
<g id="edge31" class="edge">
<title>DashboardService&#45;&gt;LearnroomModule</title>
<path fill="none" stroke="black" d="M831,-122.31C831,-142.15 831,-171 831,-171 831,-171 2483.18,-171 2483.18,-171"/>
<polygon fill="black" stroke="black" points="2483.18,-174.5 2493.18,-171 2483.18,-167.5 2483.18,-174.5"/>
</g>
<!-- GroupDeletedHandlerService -->
<g id="node33" class="node">
<title>GroupDeletedHandlerService</title>
<ellipse fill="#fdb462" stroke="black" cx="605" cy="-104" rx="125.58" ry="18"/>
<text text-anchor="middle" x="605" y="-99.8" font-family="Times,serif" font-size="14.00">GroupDeletedHandlerService</text>
</g>
<!-- GroupDeletedHandlerService&#45;&gt;LearnroomModule -->
<g id="edge32" class="edge">
<title>GroupDeletedHandlerService&#45;&gt;LearnroomModule</title>
<path fill="none" stroke="black" d="M605,-122.13C605,-142.57 605,-173 605,-173 605,-173 2482.99,-173 2482.99,-173"/>
<polygon fill="black" stroke="black" points="2482.99,-176.5 2492.99,-173 2482.99,-169.5 2482.99,-176.5"/>
</g>
<!-- LegacyBoardRepo -->
<g id="node34" class="node">
<title>LegacyBoardRepo</title>
<ellipse fill="#fdb462" stroke="black" cx="378" cy="-104" rx="83.37" ry="18"/>
<text text-anchor="middle" x="378" y="-99.8" font-family="Times,serif" font-size="14.00">LegacyBoardRepo</text>
</g>
<!-- LegacyBoardRepo&#45;&gt;LearnroomModule -->
<g id="edge33" class="edge">
<title>LegacyBoardRepo&#45;&gt;LearnroomModule</title>
<path fill="none" stroke="black" d="M378,-122.28C378,-143.32 378,-175 378,-175 378,-175 2483.24,-175 2483.24,-175"/>
<polygon fill="black" stroke="black" points="2483.24,-178.5 2493.24,-175 2483.24,-171.5 2483.24,-178.5"/>
</g>
<!-- RoomsService -->
<g id="node35" class="node">
<title>RoomsService</title>
<ellipse fill="#fdb462" stroke="black" cx="209" cy="-104" rx="67.21" ry="18"/>
<text text-anchor="middle" x="209" y="-99.8" font-family="Times,serif" font-size="14.00">RoomsService</text>
</g>
<!-- RoomsService&#45;&gt;LearnroomModule -->
<g id="edge34" class="edge">
<title>RoomsService&#45;&gt;LearnroomModule</title>
<path fill="none" stroke="black" d="M209,-122.04C209,-143.66 209,-177 209,-177 209,-177 2483.08,-177 2483.08,-177"/>
<polygon fill="black" stroke="black" points="2483.08,-180.5 2493.08,-177 2483.08,-173.5 2483.08,-180.5"/>
</g>
<!-- UserRepo -->
<g id="node36" class="node">
<title>UserRepo</title>
<ellipse fill="#fdb462" stroke="black" cx="74" cy="-104" rx="49.8" ry="18"/>
<text text-anchor="middle" x="74" y="-99.8" font-family="Times,serif" font-size="14.00">UserRepo</text>
</g>
<!-- UserRepo&#45;&gt;LearnroomModule -->
<g id="edge35" class="edge">
<title>UserRepo&#45;&gt;LearnroomModule</title>
<path fill="none" stroke="black" d="M74,-122.16C74,-144.35 74,-179 74,-179 74,-179 2483,-179 2483,-179"/>
<polygon fill="black" stroke="black" points="2483,-182.5 2493,-179 2483,-175.5 2483,-182.5"/>
</g>
</g>
</svg>
