<?xml version="1.0" encoding="UTF-8" standalone="no"?>
<!DOCTYPE svg PUBLIC "-//W3C//DTD SVG 1.1//EN"
 "http://www.w3.org/Graphics/SVG/1.1/DTD/svg11.dtd">
<!-- Generated by graphviz version 2.47.0 (20210316.0004)
 -->
<!-- Title: dependencies Pages: 1 -->
<svg width="5098pt" height="284pt"
 viewBox="0.00 0.00 5098.00 284.00" xmlns="http://www.w3.org/2000/svg" xmlns:xlink="http://www.w3.org/1999/xlink">
<g id="graph0" class="graph" transform="scale(1 1) rotate(0) translate(4 280)">
<title>dependencies</title>
<polygon fill="white" stroke="transparent" points="-4,4 -4,-280 5094,-280 5094,4 -4,4"/>
<text text-anchor="start" x="2524.01" y="-42.4" font-family="Times-12" font-weight="bold" font-size="14.00">Legend</text>
<polygon fill="#ffffb3" stroke="transparent" points="2311,-10 2311,-30 2331,-30 2331,-10 2311,-10"/>
<text text-anchor="start" x="2334.63" y="-15.4" font-family="Times-12" font-size="14.00"> &#160;Declarations</text>
<polygon fill="#8dd3c7" stroke="transparent" points="2424,-10 2424,-30 2444,-30 2444,-10 2424,-10"/>
<text text-anchor="start" x="2447.73" y="-15.4" font-family="Times-12" font-size="14.00"> &#160;Module</text>
<polygon fill="#80b1d3" stroke="transparent" points="2510,-10 2510,-30 2530,-30 2530,-10 2510,-10"/>
<text text-anchor="start" x="2533.78" y="-15.4" font-family="Times-12" font-size="14.00"> &#160;Bootstrap</text>
<polygon fill="#fdb462" stroke="transparent" points="2607,-10 2607,-30 2627,-30 2627,-10 2607,-10"/>
<text text-anchor="start" x="2630.67" y="-15.4" font-family="Times-12" font-size="14.00"> &#160;Providers</text>
<polygon fill="#fb8072" stroke="transparent" points="2703,-10 2703,-30 2723,-30 2723,-10 2703,-10"/>
<text text-anchor="start" x="2726.73" y="-15.4" font-family="Times-12" font-size="14.00"> &#160;Exports</text>
<g id="clust1" class="cluster">
<title>cluster_LearnroomModule</title>
<polygon fill="none" stroke="black" stroke-dasharray="1,5" points="8,-70 8,-268 5082,-268 5082,-70 8,-70"/>
</g>
<g id="clust4" class="cluster">
<title>cluster_LearnroomModule_exports</title>
<polygon fill="none" stroke="black" points="1915,-208 1915,-260 3179,-260 3179,-208 1915,-208"/>
</g>
<g id="clust3" class="cluster">
<title>cluster_LearnroomModule_imports</title>
<polygon fill="none" stroke="black" points="4251,-78 4251,-130 5074,-130 5074,-78 4251,-78"/>
</g>
<g id="clust6" class="cluster">
<title>cluster_LearnroomModule_providers</title>
<polygon fill="none" stroke="black" points="16,-78 16,-130 4243,-130 4243,-78 16,-78"/>
</g>
<!-- ContextExternalToolModule -->
<g id="node1" class="node">
<title>ContextExternalToolModule</title>
<polygon fill="#8dd3c7" stroke="black" points="5065.75,-122 5062.75,-126 5041.75,-126 5038.75,-122 4888.25,-122 4888.25,-86 5065.75,-86 5065.75,-122"/>
<text text-anchor="middle" x="4977" y="-99.8" font-family="Times,serif" font-size="14.00">ContextExternalToolModule</text>
</g>
<!-- LearnroomModule -->
<g id="node7" class="node">
<title>LearnroomModule</title>
<polygon fill="#8dd3c7" stroke="black" points="2504.74,-187 2501.74,-191 2480.74,-191 2477.74,-187 2383.26,-187 2383.26,-151 2504.74,-151 2504.74,-187"/>
<text text-anchor="middle" x="2444" y="-164.8" font-family="Times,serif" font-size="14.00">LearnroomModule</text>
</g>
<!-- ContextExternalToolModule&#45;&gt;LearnroomModule -->
<g id="edge1" class="edge">
<title>ContextExternalToolModule&#45;&gt;LearnroomModule</title>
<path fill="none" stroke="black" d="M4977,-122.29C4977,-144.21 4977,-178 4977,-178 4977,-178 2515.05,-178 2515.05,-178"/>
<polygon fill="black" stroke="black" points="2515.05,-174.5 2505.05,-178 2515.05,-181.5 2515.05,-174.5"/>
</g>
<!-- CopyHelperModule -->
<g id="node2" class="node">
<title>CopyHelperModule</title>
<polygon fill="#8dd3c7" stroke="black" points="4869.97,-122 4866.97,-126 4845.97,-126 4842.97,-122 4742.03,-122 4742.03,-86 4869.97,-86 4869.97,-122"/>
<text text-anchor="middle" x="4806" y="-99.8" font-family="Times,serif" font-size="14.00">CopyHelperModule</text>
</g>
<!-- CopyHelperModule&#45;&gt;LearnroomModule -->
<g id="edge2" class="edge">
<title>CopyHelperModule&#45;&gt;LearnroomModule</title>
<path fill="none" stroke="black" d="M4806,-122.17C4806,-143.5 4806,-176 4806,-176 4806,-176 2514.76,-176 2514.76,-176"/>
<polygon fill="black" stroke="black" points="2514.76,-172.5 2504.76,-176 2514.76,-179.5 2514.76,-172.5"/>
</g>
<!-- LessonModule -->
<g id="node3" class="node">
<title>LessonModule</title>
<polygon fill="#8dd3c7" stroke="black" points="4723.71,-122 4720.71,-126 4699.71,-126 4696.71,-122 4624.29,-122 4624.29,-86 4723.71,-86 4723.71,-122"/>
<text text-anchor="middle" x="4674" y="-99.8" font-family="Times,serif" font-size="14.00">LessonModule</text>
</g>
<!-- LessonModule&#45;&gt;LearnroomModule -->
<g id="edge3" class="edge">
<title>LessonModule&#45;&gt;LearnroomModule</title>
<path fill="none" stroke="black" d="M4674,-122.03C4674,-142.77 4674,-174 4674,-174 4674,-174 2514.8,-174 2514.8,-174"/>
<polygon fill="black" stroke="black" points="2514.8,-170.5 2504.8,-174 2514.8,-177.5 2514.8,-170.5"/>
</g>
<!-- LoggerModule -->
<g id="node4" class="node">
<title>LoggerModule</title>
<polygon fill="#8dd3c7" stroke="black" points="4605.98,-122 4602.98,-126 4581.98,-126 4578.98,-122 4506.02,-122 4506.02,-86 4605.98,-86 4605.98,-122"/>
<text text-anchor="middle" x="4556" y="-99.8" font-family="Times,serif" font-size="14.00">LoggerModule</text>
</g>
<!-- LoggerModule&#45;&gt;LearnroomModule -->
<g id="edge4" class="edge">
<title>LoggerModule&#45;&gt;LearnroomModule</title>
<path fill="none" stroke="black" d="M4556,-122.22C4556,-142.37 4556,-172 4556,-172 4556,-172 2514.93,-172 2514.93,-172"/>
<polygon fill="black" stroke="black" points="2514.93,-168.5 2504.93,-172 2514.93,-175.5 2514.93,-168.5"/>
</g>
<!-- TaskModule -->
<g id="node5" class="node">
<title>TaskModule</title>
<polygon fill="#8dd3c7" stroke="black" points="4488.26,-122 4485.26,-126 4464.26,-126 4461.26,-122 4401.74,-122 4401.74,-86 4488.26,-86 4488.26,-122"/>
<text text-anchor="middle" x="4445" y="-99.8" font-family="Times,serif" font-size="14.00">TaskModule</text>
</g>
<!-- TaskModule&#45;&gt;LearnroomModule -->
<g id="edge5" class="edge">
<title>TaskModule&#45;&gt;LearnroomModule</title>
<path fill="none" stroke="black" d="M4445,-122.11C4445,-141.34 4445,-169 4445,-169 4445,-169 2514.98,-169 2514.98,-169"/>
<polygon fill="black" stroke="black" points="2514.98,-165.5 2504.98,-169 2514.98,-172.5 2514.98,-165.5"/>
</g>
<!-- ToolConfigModule -->
<g id="node6" class="node">
<title>ToolConfigModule</title>
<polygon fill="#8dd3c7" stroke="black" points="4383.38,-122 4380.38,-126 4359.38,-126 4356.38,-122 4258.62,-122 4258.62,-86 4383.38,-86 4383.38,-122"/>
<text text-anchor="middle" x="4321" y="-99.8" font-family="Times,serif" font-size="14.00">ToolConfigModule</text>
</g>
<!-- ToolConfigModule&#45;&gt;LearnroomModule -->
<g id="edge6" class="edge">
<title>ToolConfigModule&#45;&gt;LearnroomModule</title>
<path fill="none" stroke="black" d="M4321,-122.22C4321,-140.83 4321,-167 4321,-167 4321,-167 2514.85,-167 2514.85,-167"/>
<polygon fill="black" stroke="black" points="2514.85,-163.5 2504.85,-167 2514.85,-170.5 2514.85,-163.5"/>
</g>
<!-- CommonCartridgeExportService  -->
<g id="node8" class="node">
<title>CommonCartridgeExportService </title>
<polygon fill="#fb8072" stroke="black" points="3171.07,-252 2966.93,-252 2966.93,-216 3171.07,-216 3171.07,-252"/>
<text text-anchor="middle" x="3069" y="-229.8" font-family="Times,serif" font-size="14.00">CommonCartridgeExportService </text>
</g>
<!-- LearnroomModule&#45;&gt;CommonCartridgeExportService  -->
<g id="edge7" class="edge">
<title>LearnroomModule&#45;&gt;CommonCartridgeExportService </title>
<path fill="none" stroke="black" stroke-dasharray="5,2" d="M2505,-181C2644.22,-181 2973.48,-181 2973.48,-181 2973.48,-181 2973.48,-205.76 2973.48,-205.76"/>
<polygon fill="black" stroke="black" points="2969.98,-205.76 2973.48,-215.76 2976.98,-205.76 2969.98,-205.76"/>
</g>
<!-- CommonCartridgeImportService  -->
<g id="node9" class="node">
<title>CommonCartridgeImportService </title>
<polygon fill="#fb8072" stroke="black" points="2948.07,-252 2743.93,-252 2743.93,-216 2948.07,-216 2948.07,-252"/>
<text text-anchor="middle" x="2846" y="-229.8" font-family="Times,serif" font-size="14.00">CommonCartridgeImportService </text>
</g>
<!-- LearnroomModule&#45;&gt;CommonCartridgeImportService  -->
<g id="edge8" class="edge">
<title>LearnroomModule&#45;&gt;CommonCartridgeImportService </title>
<path fill="none" stroke="black" stroke-dasharray="5,2" d="M2505.06,-183C2617.51,-183 2846,-183 2846,-183 2846,-183 2846,-205.88 2846,-205.88"/>
<polygon fill="black" stroke="black" points="2842.5,-205.88 2846,-215.88 2849.5,-205.88 2842.5,-205.88"/>
</g>
<!-- CourseCopyService  -->
<g id="node10" class="node">
<title>CourseCopyService </title>
<polygon fill="#fb8072" stroke="black" points="2725.97,-252 2594.03,-252 2594.03,-216 2725.97,-216 2725.97,-252"/>
<text text-anchor="middle" x="2660" y="-229.8" font-family="Times,serif" font-size="14.00">CourseCopyService </text>
</g>
<!-- LearnroomModule&#45;&gt;CourseCopyService  -->
<g id="edge9" class="edge">
<title>LearnroomModule&#45;&gt;CourseCopyService </title>
<path fill="none" stroke="black" stroke-dasharray="5,2" d="M2504.93,-185C2559.46,-185 2630.87,-185 2630.87,-185 2630.87,-185 2630.87,-205.75 2630.87,-205.75"/>
<polygon fill="black" stroke="black" points="2627.37,-205.75 2630.87,-215.75 2634.37,-205.75 2627.37,-205.75"/>
</g>
<!-- CourseDoService  -->
<g id="node11" class="node">
<title>CourseDoService </title>
<polygon fill="#fb8072" stroke="black" points="2576.24,-252 2457.76,-252 2457.76,-216 2576.24,-216 2576.24,-252"/>
<text text-anchor="middle" x="2517" y="-229.8" font-family="Times,serif" font-size="14.00">CourseDoService </text>
</g>
<!-- LearnroomModule&#45;&gt;CourseDoService  -->
<g id="edge10" class="edge">
<title>LearnroomModule&#45;&gt;CourseDoService </title>
<path fill="none" stroke="black" stroke-dasharray="5,2" d="M2481.38,-187.11C2481.38,-187.11 2481.38,-205.99 2481.38,-205.99"/>
<polygon fill="black" stroke="black" points="2477.88,-205.99 2481.38,-215.99 2484.88,-205.99 2477.88,-205.99"/>
</g>
<!-- CourseGroupService  -->
<g id="node12" class="node">
<title>CourseGroupService </title>
<polygon fill="#fb8072" stroke="black" points="2439.4,-252 2302.6,-252 2302.6,-216 2439.4,-216 2439.4,-252"/>
<text text-anchor="middle" x="2371" y="-229.8" font-family="Times,serif" font-size="14.00">CourseGroupService </text>
</g>
<!-- LearnroomModule&#45;&gt;CourseGroupService  -->
<g id="edge11" class="edge">
<title>LearnroomModule&#45;&gt;CourseGroupService </title>
<path fill="none" stroke="black" stroke-dasharray="5,2" d="M2411.29,-187.11C2411.29,-187.11 2411.29,-205.99 2411.29,-205.99"/>
<polygon fill="black" stroke="black" points="2407.79,-205.99 2411.29,-215.99 2414.79,-205.99 2407.79,-205.99"/>
</g>
<!-- CourseService  -->
<g id="node13" class="node">
<title>CourseService </title>
<polygon fill="#fb8072" stroke="black" points="2284.63,-252 2183.37,-252 2183.37,-216 2284.63,-216 2284.63,-252"/>
<text text-anchor="middle" x="2234" y="-229.8" font-family="Times,serif" font-size="14.00">CourseService </text>
</g>
<!-- LearnroomModule&#45;&gt;CourseService  -->
<g id="edge12" class="edge">
<title>LearnroomModule&#45;&gt;CourseService </title>
<path fill="none" stroke="black" stroke-dasharray="5,2" d="M2383.2,-185C2331.35,-185 2265.15,-185 2265.15,-185 2265.15,-185 2265.15,-205.75 2265.15,-205.75"/>
<polygon fill="black" stroke="black" points="2261.65,-205.75 2265.15,-215.75 2268.65,-205.75 2261.65,-205.75"/>
</g>
<!-- DashboardService  -->
<g id="node14" class="node">
<title>DashboardService </title>
<polygon fill="#fb8072" stroke="black" points="2165.12,-252 2042.88,-252 2042.88,-216 2165.12,-216 2165.12,-252"/>
<text text-anchor="middle" x="2104" y="-229.8" font-family="Times,serif" font-size="14.00">DashboardService </text>
</g>
<!-- LearnroomModule&#45;&gt;DashboardService  -->
<g id="edge13" class="edge">
<title>LearnroomModule&#45;&gt;DashboardService </title>
<path fill="none" stroke="black" stroke-dasharray="5,2" d="M2382.96,-183C2288.45,-183 2117.46,-183 2117.46,-183 2117.46,-183 2117.46,-205.88 2117.46,-205.88"/>
<polygon fill="black" stroke="black" points="2113.96,-205.88 2117.46,-215.88 2120.96,-205.88 2113.96,-205.88"/>
</g>
<!-- RoomsService  -->
<g id="node15" class="node">
<title>RoomsService </title>
<polygon fill="#fb8072" stroke="black" points="2024.65,-252 1923.35,-252 1923.35,-216 2024.65,-216 2024.65,-252"/>
<text text-anchor="middle" x="1974" y="-229.8" font-family="Times,serif" font-size="14.00">RoomsService </text>
</g>
<!-- LearnroomModule&#45;&gt;RoomsService  -->
<g id="edge14" class="edge">
<title>LearnroomModule&#45;&gt;RoomsService </title>
<path fill="none" stroke="black" stroke-dasharray="5,2" d="M2383.04,-181C2255.87,-181 1974,-181 1974,-181 1974,-181 1974,-205.76 1974,-205.76"/>
<polygon fill="black" stroke="black" points="1970.5,-205.76 1974,-215.76 1977.5,-205.76 1970.5,-205.76"/>
</g>
<!-- BoardCopyService -->
<g id="node16" class="node">
<title>BoardCopyService</title>
<ellipse fill="#fdb462" stroke="black" cx="4150" cy="-104" rx="84.53" ry="18"/>
<text text-anchor="middle" x="4150" y="-99.8" font-family="Times,serif" font-size="14.00">BoardCopyService</text>
</g>
<!-- BoardCopyService&#45;&gt;LearnroomModule -->
<g id="edge15" class="edge">
<title>BoardCopyService&#45;&gt;LearnroomModule</title>
<path fill="none" stroke="black" d="M4150,-122.3C4150,-140.27 4150,-165 4150,-165 4150,-165 2514.97,-165 2514.97,-165"/>
<polygon fill="black" stroke="black" points="2514.97,-161.5 2504.97,-165 2514.97,-168.5 2514.97,-161.5"/>
</g>
<!-- BoardNodeRepo -->
<g id="node17" class="node">
<title>BoardNodeRepo</title>
<ellipse fill="#fdb462" stroke="black" cx="3972" cy="-104" rx="75.87" ry="18"/>
<text text-anchor="middle" x="3972" y="-99.8" font-family="Times,serif" font-size="14.00">BoardNodeRepo</text>
</g>
<!-- BoardNodeRepo&#45;&gt;LearnroomModule -->
<g id="edge16" class="edge">
<title>BoardNodeRepo&#45;&gt;LearnroomModule</title>
<path fill="none" stroke="black" d="M3972,-122.02C3972,-139.37 3972,-163 3972,-163 3972,-163 2514.84,-163 2514.84,-163"/>
<polygon fill="black" stroke="black" points="2514.84,-159.5 2504.84,-163 2514.84,-166.5 2514.84,-159.5"/>
</g>
<!-- CommonCartridgeExportService -->
<g id="node18" class="node">
<title>CommonCartridgeExportService</title>
<ellipse fill="#fdb462" stroke="black" cx="3739" cy="-104" rx="138.89" ry="18"/>
<text text-anchor="middle" x="3739" y="-99.8" font-family="Times,serif" font-size="14.00">CommonCartridgeExportService</text>
</g>
<!-- CommonCartridgeExportService&#45;&gt;LearnroomModule -->
<g id="edge17" class="edge">
<title>CommonCartridgeExportService&#45;&gt;LearnroomModule</title>
<path fill="none" stroke="black" d="M3739,-122.03C3739,-138.4 3739,-160 3739,-160 3739,-160 2515.16,-160 2515.16,-160"/>
<polygon fill="black" stroke="black" points="2515.16,-156.5 2505.16,-160 2515.16,-163.5 2515.16,-156.5"/>
</g>
<!-- CommonCartridgeFileValidatorPipe -->
<g id="node19" class="node">
<title>CommonCartridgeFileValidatorPipe</title>
<ellipse fill="#fdb462" stroke="black" cx="3430" cy="-104" rx="152.22" ry="18"/>
<text text-anchor="middle" x="3430" y="-99.8" font-family="Times,serif" font-size="14.00">CommonCartridgeFileValidatorPipe</text>
</g>
<!-- CommonCartridgeFileValidatorPipe&#45;&gt;LearnroomModule -->
<g id="edge18" class="edge">
<title>CommonCartridgeFileValidatorPipe&#45;&gt;LearnroomModule</title>
<path fill="none" stroke="black" d="M3430,-122.28C3430,-137.95 3430,-158 3430,-158 3430,-158 2514.93,-158 2514.93,-158"/>
<polygon fill="black" stroke="black" points="2514.93,-154.5 2504.93,-158 2514.93,-161.5 2514.93,-154.5"/>
</g>
<!-- CommonCartridgeImportMapper -->
<g id="node20" class="node">
<title>CommonCartridgeImportMapper</title>
<ellipse fill="#fdb462" stroke="black" cx="3120" cy="-104" rx="139.53" ry="18"/>
<text text-anchor="middle" x="3120" y="-99.8" font-family="Times,serif" font-size="14.00">CommonCartridgeImportMapper</text>
</g>
<!-- CommonCartridgeImportMapper&#45;&gt;LearnroomModule -->
<g id="edge19" class="edge">
<title>CommonCartridgeImportMapper&#45;&gt;LearnroomModule</title>
<path fill="none" stroke="black" d="M3075.76,-121.32C3075.76,-136.44 3075.76,-156 3075.76,-156 3075.76,-156 2514.86,-156 2514.86,-156"/>
<polygon fill="black" stroke="black" points="2514.86,-152.5 2504.86,-156 2514.86,-159.5 2514.86,-152.5"/>
</g>
<!-- CommonCartridgeImportService -->
<g id="node21" class="node">
<title>CommonCartridgeImportService</title>
<ellipse fill="#fdb462" stroke="black" cx="2824" cy="-104" rx="138.88" ry="18"/>
<text text-anchor="middle" x="2824" y="-99.8" font-family="Times,serif" font-size="14.00">CommonCartridgeImportService</text>
</g>
<!-- CommonCartridgeImportService&#45;&gt;LearnroomModule -->
<g id="edge20" class="edge">
<title>CommonCartridgeImportService&#45;&gt;LearnroomModule</title>
<path fill="none" stroke="black" d="M2705.52,-113.64C2705.52,-128.17 2705.52,-154 2705.52,-154 2705.52,-154 2514.99,-154 2514.99,-154"/>
<polygon fill="black" stroke="black" points="2514.99,-150.5 2504.99,-154 2514.99,-157.5 2514.99,-150.5"/>
</g>
<!-- CommonCartridgeMapper -->
<g id="node22" class="node">
<title>CommonCartridgeMapper</title>
<ellipse fill="#fdb462" stroke="black" cx="2554" cy="-104" rx="113.47" ry="18"/>
<text text-anchor="middle" x="2554" y="-99.8" font-family="Times,serif" font-size="14.00">CommonCartridgeMapper</text>
</g>
<!-- CommonCartridgeMapper&#45;&gt;LearnroomModule -->
<g id="edge21" class="edge">
<title>CommonCartridgeMapper&#45;&gt;LearnroomModule</title>
<path fill="none" stroke="black" d="M2472.69,-116.84C2472.69,-116.84 2472.69,-140.52 2472.69,-140.52"/>
<polygon fill="black" stroke="black" points="2469.19,-140.52 2472.69,-150.52 2476.19,-140.52 2469.19,-140.52"/>
</g>
<!-- CourseCopyService -->
<g id="node23" class="node">
<title>CourseCopyService</title>
<ellipse fill="#fdb462" stroke="black" cx="2334" cy="-104" rx="88.04" ry="18"/>
<text text-anchor="middle" x="2334" y="-99.8" font-family="Times,serif" font-size="14.00">CourseCopyService</text>
</g>
<!-- CourseCopyService&#45;&gt;LearnroomModule -->
<g id="edge22" class="edge">
<title>CourseCopyService&#45;&gt;LearnroomModule</title>
<path fill="none" stroke="black" d="M2402.7,-115.32C2402.7,-115.32 2402.7,-140.94 2402.7,-140.94"/>
<polygon fill="black" stroke="black" points="2399.2,-140.94 2402.7,-150.94 2406.2,-140.94 2399.2,-140.94"/>
</g>
<!-- CourseDoService -->
<g id="node24" class="node">
<title>CourseDoService</title>
<ellipse fill="#fdb462" stroke="black" cx="2149" cy="-104" rx="79.29" ry="18"/>
<text text-anchor="middle" x="2149" y="-99.8" font-family="Times,serif" font-size="14.00">CourseDoService</text>
</g>
<!-- CourseDoService&#45;&gt;LearnroomModule -->
<g id="edge23" class="edge">
<title>CourseDoService&#45;&gt;LearnroomModule</title>
<path fill="none" stroke="black" d="M2205.79,-116.62C2205.79,-131.43 2205.79,-154 2205.79,-154 2205.79,-154 2372.96,-154 2372.96,-154"/>
<polygon fill="black" stroke="black" points="2372.96,-157.5 2382.96,-154 2372.96,-150.5 2372.96,-157.5"/>
</g>
<!-- CourseGroupRepo -->
<g id="node25" class="node">
<title>CourseGroupRepo</title>
<ellipse fill="#fdb462" stroke="black" cx="1968" cy="-104" rx="83.39" ry="18"/>
<text text-anchor="middle" x="1968" y="-99.8" font-family="Times,serif" font-size="14.00">CourseGroupRepo</text>
</g>
<!-- CourseGroupRepo&#45;&gt;LearnroomModule -->
<g id="edge24" class="edge">
<title>CourseGroupRepo&#45;&gt;LearnroomModule</title>
<path fill="none" stroke="black" d="M2047.19,-109.97C2047.19,-123.62 2047.19,-156 2047.19,-156 2047.19,-156 2372.87,-156 2372.87,-156"/>
<polygon fill="black" stroke="black" points="2372.87,-159.5 2382.87,-156 2372.87,-152.5 2372.87,-159.5"/>
</g>
<!-- CourseGroupService -->
<g id="node26" class="node">
<title>CourseGroupService</title>
<ellipse fill="#fdb462" stroke="black" cx="1775" cy="-104" rx="92.04" ry="18"/>
<text text-anchor="middle" x="1775" y="-99.8" font-family="Times,serif" font-size="14.00">CourseGroupService</text>
</g>
<!-- CourseGroupService&#45;&gt;LearnroomModule -->
<g id="edge25" class="edge">
<title>CourseGroupService&#45;&gt;LearnroomModule</title>
<path fill="none" stroke="black" d="M1775,-122.28C1775,-137.95 1775,-158 1775,-158 1775,-158 2373.15,-158 2373.15,-158"/>
<polygon fill="black" stroke="black" points="2373.15,-161.5 2383.15,-158 2373.15,-154.5 2373.15,-161.5"/>
</g>
<!-- CourseRepo -->
<g id="node27" class="node">
<title>CourseRepo</title>
<ellipse fill="#fdb462" stroke="black" cx="1606" cy="-104" rx="58.55" ry="18"/>
<text text-anchor="middle" x="1606" y="-99.8" font-family="Times,serif" font-size="14.00">CourseRepo</text>
</g>
<!-- CourseRepo&#45;&gt;LearnroomModule -->
<g id="edge26" class="edge">
<title>CourseRepo&#45;&gt;LearnroomModule</title>
<path fill="none" stroke="black" d="M1606,-122.03C1606,-138.4 1606,-160 1606,-160 1606,-160 2373.06,-160 2373.06,-160"/>
<polygon fill="black" stroke="black" points="2373.06,-163.5 2383.06,-160 2373.06,-156.5 2373.06,-163.5"/>
</g>
<!-- CourseService -->
<g id="node28" class="node">
<title>CourseService</title>
<ellipse fill="#fdb462" stroke="black" cx="1462" cy="-104" rx="67.19" ry="18"/>
<text text-anchor="middle" x="1462" y="-99.8" font-family="Times,serif" font-size="14.00">CourseService</text>
</g>
<!-- CourseService&#45;&gt;LearnroomModule -->
<g id="edge27" class="edge">
<title>CourseService&#45;&gt;LearnroomModule</title>
<path fill="none" stroke="black" d="M1462,-122.02C1462,-139.37 1462,-163 1462,-163 1462,-163 2372.94,-163 2372.94,-163"/>
<polygon fill="black" stroke="black" points="2372.94,-166.5 2382.94,-163 2372.94,-159.5 2372.94,-166.5"/>
</g>
<!-- DashboardElementRepo -->
<g id="node29" class="node">
<title>DashboardElementRepo</title>
<ellipse fill="#fdb462" stroke="black" cx="1271" cy="-104" rx="105.36" ry="18"/>
<text text-anchor="middle" x="1271" y="-99.8" font-family="Times,serif" font-size="14.00">DashboardElementRepo</text>
</g>
<!-- DashboardElementRepo&#45;&gt;LearnroomModule -->
<g id="edge28" class="edge">
<title>DashboardElementRepo&#45;&gt;LearnroomModule</title>
<path fill="none" stroke="black" d="M1271,-122.3C1271,-140.27 1271,-165 1271,-165 1271,-165 2373,-165 2373,-165"/>
<polygon fill="black" stroke="black" points="2373,-168.5 2383,-165 2373,-161.5 2373,-168.5"/>
</g>
<!-- DashboardModelMapper -->
<g id="node30" class="node">
<title>DashboardModelMapper</title>
<ellipse fill="#fdb462" stroke="black" cx="1039" cy="-104" rx="108.21" ry="18"/>
<text text-anchor="middle" x="1039" y="-99.8" font-family="Times,serif" font-size="14.00">DashboardModelMapper</text>
</g>
<!-- DashboardModelMapper&#45;&gt;LearnroomModule -->
<g id="edge29" class="edge">
<title>DashboardModelMapper&#45;&gt;LearnroomModule</title>
<path fill="none" stroke="black" d="M1039,-122.22C1039,-140.83 1039,-167 1039,-167 1039,-167 2373.18,-167 2373.18,-167"/>
<polygon fill="black" stroke="black" points="2373.18,-170.5 2383.18,-167 2373.18,-163.5 2373.18,-170.5"/>
</g>
<!-- DashboardService -->
<g id="node31" class="node">
<title>DashboardService</title>
<ellipse fill="#fdb462" stroke="black" cx="831" cy="-104" rx="81.64" ry="18"/>
<text text-anchor="middle" x="831" y="-99.8" font-family="Times,serif" font-size="14.00">DashboardService</text>
</g>
<!-- DashboardService&#45;&gt;LearnroomModule -->
<g id="edge30" class="edge">
<title>DashboardService&#45;&gt;LearnroomModule</title>
<path fill="none" stroke="black" d="M831,-122.11C831,-141.34 831,-169 831,-169 831,-169 2373.23,-169 2373.23,-169"/>
<polygon fill="black" stroke="black" points="2373.23,-172.5 2383.23,-169 2373.23,-165.5 2373.23,-172.5"/>
</g>
<!-- GroupDeletedHandlerService -->
<g id="node32" class="node">
<title>GroupDeletedHandlerService</title>
<ellipse fill="#fdb462" stroke="black" cx="605" cy="-104" rx="125.58" ry="18"/>
<text text-anchor="middle" x="605" y="-99.8" font-family="Times,serif" font-size="14.00">GroupDeletedHandlerService</text>
</g>
<!-- GroupDeletedHandlerService&#45;&gt;LearnroomModule -->
<g id="edge31" class="edge">
<title>GroupDeletedHandlerService&#45;&gt;LearnroomModule</title>
<path fill="none" stroke="black" d="M605,-122.22C605,-142.37 605,-172 605,-172 605,-172 2373.08,-172 2373.08,-172"/>
<polygon fill="black" stroke="black" points="2373.08,-175.5 2383.08,-172 2373.08,-168.5 2373.08,-175.5"/>
</g>
<!-- LegacyBoardRepo -->
<g id="node33" class="node">
<title>LegacyBoardRepo</title>
<ellipse fill="#fdb462" stroke="black" cx="378" cy="-104" rx="83.37" ry="18"/>
<text text-anchor="middle" x="378" y="-99.8" font-family="Times,serif" font-size="14.00">LegacyBoardRepo</text>
</g>
<!-- LegacyBoardRepo&#45;&gt;LearnroomModule -->
<g id="edge32" class="edge">
<title>LegacyBoardRepo&#45;&gt;LearnroomModule</title>
<path fill="none" stroke="black" d="M378,-122.03C378,-142.77 378,-174 378,-174 378,-174 2373.01,-174 2373.01,-174"/>
<polygon fill="black" stroke="black" points="2373.01,-177.5 2383.01,-174 2373.01,-170.5 2373.01,-177.5"/>
</g>
<!-- RoomsService -->
<g id="node34" class="node">
<title>RoomsService</title>
<ellipse fill="#fdb462" stroke="black" cx="209" cy="-104" rx="67.21" ry="18"/>
<text text-anchor="middle" x="209" y="-99.8" font-family="Times,serif" font-size="14.00">RoomsService</text>
</g>
<!-- RoomsService&#45;&gt;LearnroomModule -->
<g id="edge33" class="edge">
<title>RoomsService&#45;&gt;LearnroomModule</title>
<path fill="none" stroke="black" d="M209,-122.17C209,-143.5 209,-176 209,-176 209,-176 2373.06,-176 2373.06,-176"/>
<polygon fill="black" stroke="black" points="2373.06,-179.5 2383.06,-176 2373.06,-172.5 2373.06,-179.5"/>
</g>
<!-- UserRepo -->
<g id="node35" class="node">
<title>UserRepo</title>
<ellipse fill="#fdb462" stroke="black" cx="74" cy="-104" rx="49.8" ry="18"/>
<text text-anchor="middle" x="74" y="-99.8" font-family="Times,serif" font-size="14.00">UserRepo</text>
</g>
<!-- UserRepo&#45;&gt;LearnroomModule -->
<g id="edge34" class="edge">
<title>UserRepo&#45;&gt;LearnroomModule</title>
<path fill="none" stroke="black" d="M74,-122.29C74,-144.21 74,-178 74,-178 74,-178 2373.03,-178 2373.03,-178"/>
<polygon fill="black" stroke="black" points="2373.03,-181.5 2383.03,-178 2373.03,-174.5 2373.03,-181.5"/>
</g>
</g>
</svg>
