<?xml version="1.0" encoding="UTF-8" standalone="no"?>
<!DOCTYPE svg PUBLIC "-//W3C//DTD SVG 1.1//EN"
 "http://www.w3.org/Graphics/SVG/1.1/DTD/svg11.dtd">
<!-- Generated by graphviz version 2.47.0 (20210316.0004)
 -->
<!-- Title: dependencies Pages: 1 -->
<svg width="4994pt" height="284pt"
 viewBox="0.00 0.00 4994.00 284.00" xmlns="http://www.w3.org/2000/svg" xmlns:xlink="http://www.w3.org/1999/xlink">
<g id="graph0" class="graph" transform="scale(1 1) rotate(0) translate(4 280)">
<title>dependencies</title>
<polygon fill="white" stroke="transparent" points="-4,4 -4,-280 4990,-280 4990,4 -4,4"/>
<text text-anchor="start" x="2472.01" y="-42.4" font-family="Times-12" font-weight="bold" font-size="14.00">Legend</text>
<polygon fill="#ffffb3" stroke="transparent" points="2259,-10 2259,-30 2279,-30 2279,-10 2259,-10"/>
<text text-anchor="start" x="2282.63" y="-15.4" font-family="Times-12" font-size="14.00"> &#160;Declarations</text>
<polygon fill="#8dd3c7" stroke="transparent" points="2372,-10 2372,-30 2392,-30 2392,-10 2372,-10"/>
<text text-anchor="start" x="2395.73" y="-15.4" font-family="Times-12" font-size="14.00"> &#160;Module</text>
<polygon fill="#80b1d3" stroke="transparent" points="2458,-10 2458,-30 2478,-30 2478,-10 2458,-10"/>
<text text-anchor="start" x="2481.78" y="-15.4" font-family="Times-12" font-size="14.00"> &#160;Bootstrap</text>
<polygon fill="#fdb462" stroke="transparent" points="2555,-10 2555,-30 2575,-30 2575,-10 2555,-10"/>
<text text-anchor="start" x="2578.67" y="-15.4" font-family="Times-12" font-size="14.00"> &#160;Providers</text>
<polygon fill="#fb8072" stroke="transparent" points="2651,-10 2651,-30 2671,-30 2671,-10 2651,-10"/>
<text text-anchor="start" x="2674.73" y="-15.4" font-family="Times-12" font-size="14.00"> &#160;Exports</text>
<g id="clust1" class="cluster">
<title>cluster_LearnroomModule</title>
<polygon fill="none" stroke="black" stroke-dasharray="1,5" points="8,-70 8,-268 4978,-268 4978,-70 8,-70"/>
</g>
<g id="clust4" class="cluster">
<title>cluster_LearnroomModule_exports</title>
<polygon fill="none" stroke="black" points="2484,-208 2484,-260 2751,-260 2751,-208 2484,-208"/>
</g>
<g id="clust3" class="cluster">
<title>cluster_LearnroomModule_imports</title>
<polygon fill="none" stroke="black" points="4155,-78 4155,-130 4970,-130 4970,-78 4155,-78"/>
</g>
<g id="clust6" class="cluster">
<title>cluster_LearnroomModule_providers</title>
<polygon fill="none" stroke="black" points="16,-78 16,-130 4147,-130 4147,-78 16,-78"/>
</g>
<!-- AuthorizationModule -->
<g id="node1" class="node">
<title>AuthorizationModule</title>
<polygon fill="#8dd3c7" stroke="black" points="4961.81,-122 4958.81,-126 4937.81,-126 4934.81,-122 4824.19,-122 4824.19,-86 4961.81,-86 4961.81,-122"/>
<text text-anchor="middle" x="4893" y="-99.8" font-family="Times,serif" font-size="14.00">AuthorizationModule</text>
</g>
<!-- LearnroomModule -->
<g id="node7" class="node">
<title>LearnroomModule</title>
<polygon fill="#8dd3c7" stroke="black" points="2670.74,-187 2667.74,-191 2646.74,-191 2643.74,-187 2549.26,-187 2549.26,-151 2670.74,-151 2670.74,-187"/>
<text text-anchor="middle" x="2610" y="-164.8" font-family="Times,serif" font-size="14.00">LearnroomModule</text>
</g>
<!-- AuthorizationModule&#45;&gt;LearnroomModule -->
<g id="edge1" class="edge">
<title>AuthorizationModule&#45;&gt;LearnroomModule</title>
<path fill="none" stroke="black" d="M4893,-122.38C4893,-146.28 4893,-185 4893,-185 4893,-185 2680.77,-185 2680.77,-185"/>
<polygon fill="black" stroke="black" points="2680.77,-181.5 2670.77,-185 2680.77,-188.5 2680.77,-181.5"/>
</g>
<!-- BoardModule -->
<g id="node2" class="node">
<title>BoardModule</title>
<polygon fill="#8dd3c7" stroke="black" points="4805.76,-122 4802.76,-126 4781.76,-126 4778.76,-122 4712.24,-122 4712.24,-86 4805.76,-86 4805.76,-122"/>
<text text-anchor="middle" x="4759" y="-99.8" font-family="Times,serif" font-size="14.00">BoardModule</text>
</g>
<!-- BoardModule&#45;&gt;LearnroomModule -->
<g id="edge2" class="edge">
<title>BoardModule&#45;&gt;LearnroomModule</title>
<path fill="none" stroke="black" d="M4759,-122.32C4759,-145.66 4759,-183 4759,-183 4759,-183 2680.85,-183 2680.85,-183"/>
<polygon fill="black" stroke="black" points="2680.85,-179.5 2670.85,-183 2680.85,-186.5 2680.85,-179.5"/>
</g>
<!-- CopyHelperModule -->
<g id="node3" class="node">
<title>CopyHelperModule</title>
<polygon fill="#8dd3c7" stroke="black" points="4693.97,-122 4690.97,-126 4669.97,-126 4666.97,-122 4566.03,-122 4566.03,-86 4693.97,-86 4693.97,-122"/>
<text text-anchor="middle" x="4630" y="-99.8" font-family="Times,serif" font-size="14.00">CopyHelperModule</text>
</g>
<!-- CopyHelperModule&#45;&gt;LearnroomModule -->
<g id="edge3" class="edge">
<title>CopyHelperModule&#45;&gt;LearnroomModule</title>
<path fill="none" stroke="black" d="M4630,-122.01C4630,-144.49 4630,-180 4630,-180 4630,-180 2681,-180 2681,-180"/>
<polygon fill="black" stroke="black" points="2681,-176.5 2671,-180 2681,-183.5 2681,-176.5"/>
</g>
<!-- FilesStorageClientModule -->
<g id="node4" class="node">
<title>FilesStorageClientModule</title>
<polygon fill="#8dd3c7" stroke="black" points="4547.76,-122 4544.76,-126 4523.76,-126 4520.76,-122 4384.24,-122 4384.24,-86 4547.76,-86 4547.76,-122"/>
<text text-anchor="middle" x="4466" y="-99.8" font-family="Times,serif" font-size="14.00">FilesStorageClientModule</text>
</g>
<!-- FilesStorageClientModule&#45;&gt;LearnroomModule -->
<g id="edge4" class="edge">
<title>FilesStorageClientModule&#45;&gt;LearnroomModule</title>
<path fill="none" stroke="black" d="M4466,-122.29C4466,-144.21 4466,-178 4466,-178 4466,-178 2680.96,-178 2680.96,-178"/>
<polygon fill="black" stroke="black" points="2680.96,-174.5 2670.96,-178 2680.96,-181.5 2680.96,-174.5"/>
</g>
<!-- LessonModule -->
<g id="node5" class="node">
<title>LessonModule</title>
<polygon fill="#8dd3c7" stroke="black" points="4366.71,-122 4363.71,-126 4342.71,-126 4339.71,-122 4267.29,-122 4267.29,-86 4366.71,-86 4366.71,-122"/>
<text text-anchor="middle" x="4317" y="-99.8" font-family="Times,serif" font-size="14.00">LessonModule</text>
</g>
<!-- LessonModule&#45;&gt;LearnroomModule -->
<g id="edge5" class="edge">
<title>LessonModule&#45;&gt;LearnroomModule</title>
<path fill="none" stroke="black" d="M4317,-122.28C4317,-143.32 4317,-175 4317,-175 4317,-175 2680.75,-175 2680.75,-175"/>
<polygon fill="black" stroke="black" points="2680.75,-171.5 2670.75,-175 2680.75,-178.5 2680.75,-171.5"/>
</g>
<!-- TaskModule -->
<g id="node6" class="node">
<title>TaskModule</title>
<polygon fill="#8dd3c7" stroke="black" points="4249.26,-122 4246.26,-126 4225.26,-126 4222.26,-122 4162.74,-122 4162.74,-86 4249.26,-86 4249.26,-122"/>
<text text-anchor="middle" x="4206" y="-99.8" font-family="Times,serif" font-size="14.00">TaskModule</text>
</g>
<!-- TaskModule&#45;&gt;LearnroomModule -->
<g id="edge6" class="edge">
<title>TaskModule&#45;&gt;LearnroomModule</title>
<path fill="none" stroke="black" d="M4220.46,-122.13C4220.46,-142.57 4220.46,-173 4220.46,-173 4220.46,-173 2681.17,-173 2681.17,-173"/>
<polygon fill="black" stroke="black" points="2681.17,-169.5 2671.17,-173 2681.17,-176.5 2681.17,-169.5"/>
</g>
<!-- TaskModule&#45;&gt;LearnroomModule -->
<g id="edge7" class="edge">
<title>TaskModule&#45;&gt;LearnroomModule</title>
<path fill="none" stroke="black" d="M4191.54,-122.31C4191.54,-142.15 4191.54,-171 4191.54,-171 4191.54,-171 2681.03,-171 2681.03,-171"/>
<polygon fill="black" stroke="black" points="2681.03,-167.5 2671.03,-171 2681.03,-174.5 2681.03,-167.5"/>
</g>
<!-- CourseCopyService  -->
<g id="node8" class="node">
<title>CourseCopyService </title>
<polygon fill="#fb8072" stroke="black" points="2742.97,-252 2611.03,-252 2611.03,-216 2742.97,-216 2742.97,-252"/>
<text text-anchor="middle" x="2677" y="-229.8" font-family="Times,serif" font-size="14.00">CourseCopyService </text>
</g>
<!-- LearnroomModule&#45;&gt;CourseCopyService  -->
<g id="edge8" class="edge">
<title>LearnroomModule&#45;&gt;CourseCopyService </title>
<path fill="none" stroke="black" stroke-dasharray="5,2" d="M2641.07,-187.11C2641.07,-187.11 2641.07,-205.99 2641.07,-205.99"/>
<polygon fill="black" stroke="black" points="2637.57,-205.99 2641.07,-215.99 2644.57,-205.99 2637.57,-205.99"/>
</g>
<!-- CourseService  -->
<g id="node9" class="node">
<title>CourseService </title>
<polygon fill="#fb8072" stroke="black" points="2593.63,-252 2492.37,-252 2492.37,-216 2593.63,-216 2593.63,-252"/>
<text text-anchor="middle" x="2543" y="-229.8" font-family="Times,serif" font-size="14.00">CourseService </text>
</g>
<!-- LearnroomModule&#45;&gt;CourseService  -->
<g id="edge9" class="edge">
<title>LearnroomModule&#45;&gt;CourseService </title>
<path fill="none" stroke="black" stroke-dasharray="5,2" d="M2571.35,-187.11C2571.35,-187.11 2571.35,-205.99 2571.35,-205.99"/>
<polygon fill="black" stroke="black" points="2567.85,-205.99 2571.35,-215.99 2574.85,-205.99 2567.85,-205.99"/>
</g>
<!-- BoardCopyService -->
<g id="node10" class="node">
<title>BoardCopyService</title>
<ellipse fill="#fdb462" stroke="black" cx="4054" cy="-104" rx="84.53" ry="18"/>
<text text-anchor="middle" x="4054" y="-99.8" font-family="Times,serif" font-size="14.00">BoardCopyService</text>
</g>
<!-- BoardCopyService&#45;&gt;LearnroomModule -->
<g id="edge10" class="edge">
<title>BoardCopyService&#45;&gt;LearnroomModule</title>
<path fill="none" stroke="black" d="M4054,-122.17C4054,-141.09 4054,-168 4054,-168 4054,-168 2681.12,-168 2681.12,-168"/>
<polygon fill="black" stroke="black" points="2681.12,-164.5 2671.12,-168 2681.12,-171.5 2681.12,-164.5"/>
</g>
<!-- BoardRepo -->
<g id="node11" class="node">
<title>BoardRepo</title>
<ellipse fill="#fdb462" stroke="black" cx="3896" cy="-104" rx="55.04" ry="18"/>
<text text-anchor="middle" x="3896" y="-99.8" font-family="Times,serif" font-size="14.00">BoardRepo</text>
</g>
<!-- BoardRepo&#45;&gt;LearnroomModule -->
<g id="edge11" class="edge">
<title>BoardRepo&#45;&gt;LearnroomModule</title>
<path fill="none" stroke="black" d="M3896,-122.27C3896,-140.56 3896,-166 3896,-166 3896,-166 2681.16,-166 2681.16,-166"/>
<polygon fill="black" stroke="black" points="2681.16,-162.5 2671.16,-166 2681.16,-169.5 2681.16,-162.5"/>
</g>
<!-- ColumnBoardTargetService -->
<g id="node12" class="node">
<title>ColumnBoardTargetService</title>
<ellipse fill="#fdb462" stroke="black" cx="3703" cy="-104" rx="119.82" ry="18"/>
<text text-anchor="middle" x="3703" y="-99.8" font-family="Times,serif" font-size="14.00">ColumnBoardTargetService</text>
</g>
<!-- ColumnBoardTargetService&#45;&gt;LearnroomModule -->
<g id="edge12" class="edge">
<title>ColumnBoardTargetService&#45;&gt;LearnroomModule</title>
<path fill="none" stroke="black" d="M3703,-122.02C3703,-139.37 3703,-163 3703,-163 3703,-163 2681.11,-163 2681.11,-163"/>
<polygon fill="black" stroke="black" points="2681.11,-159.5 2671.11,-163 2681.11,-166.5 2681.11,-159.5"/>
</g>
<!-- CommonCartridgeExportService -->
<g id="node13" class="node">
<title>CommonCartridgeExportService</title>
<ellipse fill="#fdb462" stroke="black" cx="3426" cy="-104" rx="138.89" ry="18"/>
<text text-anchor="middle" x="3426" y="-99.8" font-family="Times,serif" font-size="14.00">CommonCartridgeExportService</text>
</g>
<!-- CommonCartridgeExportService&#45;&gt;LearnroomModule -->
<g id="edge13" class="edge">
<title>CommonCartridgeExportService&#45;&gt;LearnroomModule</title>
<path fill="none" stroke="black" d="M3426,-122.04C3426,-138.73 3426,-161 3426,-161 3426,-161 2681,-161 2681,-161"/>
<polygon fill="black" stroke="black" points="2681,-157.5 2671,-161 2681,-164.5 2681,-157.5"/>
</g>
<!-- CourseCopyService -->
<g id="node14" class="node">
<title>CourseCopyService</title>
<ellipse fill="#fdb462" stroke="black" cx="3181" cy="-104" rx="88.04" ry="18"/>
<text text-anchor="middle" x="3181" y="-99.8" font-family="Times,serif" font-size="14.00">CourseCopyService</text>
</g>
<!-- CourseCopyService&#45;&gt;LearnroomModule -->
<g id="edge14" class="edge">
<title>CourseCopyService&#45;&gt;LearnroomModule</title>
<path fill="none" stroke="black" d="M3181,-122.01C3181,-138.05 3181,-159 3181,-159 3181,-159 2680.84,-159 2680.84,-159"/>
<polygon fill="black" stroke="black" points="2680.84,-155.5 2670.84,-159 2680.84,-162.5 2680.84,-155.5"/>
</g>
<!-- CourseCopyUC -->
<g id="node15" class="node">
<title>CourseCopyUC</title>
<ellipse fill="#fdb462" stroke="black" cx="3002" cy="-104" rx="72.96" ry="18"/>
<text text-anchor="middle" x="3002" y="-99.8" font-family="Times,serif" font-size="14.00">CourseCopyUC</text>
</g>
<!-- CourseCopyUC&#45;&gt;LearnroomModule -->
<g id="edge15" class="edge">
<title>CourseCopyUC&#45;&gt;LearnroomModule</title>
<path fill="none" stroke="black" d="M3002,-122.19C3002,-137.18 3002,-156 3002,-156 3002,-156 2680.82,-156 2680.82,-156"/>
<polygon fill="black" stroke="black" points="2680.82,-152.5 2670.82,-156 2680.82,-159.5 2680.82,-152.5"/>
</g>
<!-- CourseExportUc -->
<g id="node16" class="node">
<title>CourseExportUc</title>
<ellipse fill="#fdb462" stroke="black" cx="2835" cy="-104" rx="75.86" ry="18"/>
<text text-anchor="middle" x="2835" y="-99.8" font-family="Times,serif" font-size="14.00">CourseExportUc</text>
</g>
<!-- CourseExportUc&#45;&gt;LearnroomModule -->
<g id="edge16" class="edge">
<title>CourseExportUc&#45;&gt;LearnroomModule</title>
<path fill="none" stroke="black" d="M2835,-122.05C2835,-136.37 2835,-154 2835,-154 2835,-154 2680.89,-154 2680.89,-154"/>
<polygon fill="black" stroke="black" points="2680.89,-150.5 2670.89,-154 2680.89,-157.5 2680.89,-150.5"/>
</g>
<!-- CourseRepo -->
<g id="node17" class="node">
<title>CourseRepo</title>
<ellipse fill="#fdb462" stroke="black" cx="2682" cy="-104" rx="58.55" ry="18"/>
<text text-anchor="middle" x="2682" y="-99.8" font-family="Times,serif" font-size="14.00">CourseRepo</text>
</g>
<!-- CourseRepo&#45;&gt;LearnroomModule -->
<g id="edge17" class="edge">
<title>CourseRepo&#45;&gt;LearnroomModule</title>
<path fill="none" stroke="black" d="M2647.05,-118.75C2647.05,-118.75 2647.05,-140.59 2647.05,-140.59"/>
<polygon fill="black" stroke="black" points="2643.55,-140.59 2647.05,-150.59 2650.55,-140.59 2643.55,-140.59"/>
</g>
<!-- CourseService -->
<g id="node18" class="node">
<title>CourseService</title>
<ellipse fill="#fdb462" stroke="black" cx="2538" cy="-104" rx="67.19" ry="18"/>
<text text-anchor="middle" x="2538" y="-99.8" font-family="Times,serif" font-size="14.00">CourseService</text>
</g>
<!-- CourseService&#45;&gt;LearnroomModule -->
<g id="edge18" class="edge">
<title>CourseService&#45;&gt;LearnroomModule</title>
<path fill="none" stroke="black" d="M2577.24,-118.75C2577.24,-118.75 2577.24,-140.59 2577.24,-140.59"/>
<polygon fill="black" stroke="black" points="2573.74,-140.59 2577.24,-150.59 2580.74,-140.59 2573.74,-140.59"/>
</g>
<!-- CourseUc -->
<g id="node19" class="node">
<title>CourseUc</title>
<ellipse fill="#fdb462" stroke="black" cx="2403" cy="-104" rx="49.8" ry="18"/>
<text text-anchor="middle" x="2403" y="-99.8" font-family="Times,serif" font-size="14.00">CourseUc</text>
</g>
<!-- CourseUc&#45;&gt;LearnroomModule -->
<g id="edge19" class="edge">
<title>CourseUc&#45;&gt;LearnroomModule</title>
<path fill="none" stroke="black" d="M2403,-122.05C2403,-136.37 2403,-154 2403,-154 2403,-154 2539.01,-154 2539.01,-154"/>
<polygon fill="black" stroke="black" points="2539.01,-157.5 2549.01,-154 2539.01,-150.5 2539.01,-157.5"/>
</g>
<!-- DashboardModelMapper -->
<g id="node20" class="node">
<title>DashboardModelMapper</title>
<ellipse fill="#fdb462" stroke="black" cx="2227" cy="-104" rx="108.21" ry="18"/>
<text text-anchor="middle" x="2227" y="-99.8" font-family="Times,serif" font-size="14.00">DashboardModelMapper</text>
</g>
<!-- DashboardModelMapper&#45;&gt;LearnroomModule -->
<g id="edge20" class="edge">
<title>DashboardModelMapper&#45;&gt;LearnroomModule</title>
<path fill="none" stroke="black" d="M2227,-122.19C2227,-137.18 2227,-156 2227,-156 2227,-156 2538.89,-156 2538.89,-156"/>
<polygon fill="black" stroke="black" points="2538.89,-159.5 2548.89,-156 2538.89,-152.5 2538.89,-159.5"/>
</g>
<!-- DashboardUc -->
<g id="node21" class="node">
<title>DashboardUc</title>
<ellipse fill="#fdb462" stroke="black" cx="2037" cy="-104" rx="64.25" ry="18"/>
<text text-anchor="middle" x="2037" y="-99.8" font-family="Times,serif" font-size="14.00">DashboardUc</text>
</g>
<!-- DashboardUc&#45;&gt;LearnroomModule -->
<g id="edge21" class="edge">
<title>DashboardUc&#45;&gt;LearnroomModule</title>
<path fill="none" stroke="black" d="M2037,-122.01C2037,-138.05 2037,-159 2037,-159 2037,-159 2539.22,-159 2539.22,-159"/>
<polygon fill="black" stroke="black" points="2539.22,-162.5 2549.22,-159 2539.22,-155.5 2539.22,-162.5"/>
</g>
<!-- FeathersServiceProvider -->
<g id="node22" class="node">
<title>FeathersServiceProvider</title>
<ellipse fill="#fdb462" stroke="black" cx="1849" cy="-104" rx="105.91" ry="18"/>
<text text-anchor="middle" x="1849" y="-99.8" font-family="Times,serif" font-size="14.00">FeathersServiceProvider</text>
</g>
<!-- FeathersServiceProvider&#45;&gt;LearnroomModule -->
<g id="edge22" class="edge">
<title>FeathersServiceProvider&#45;&gt;LearnroomModule</title>
<path fill="none" stroke="black" d="M1849,-122.04C1849,-138.73 1849,-161 1849,-161 1849,-161 2539.01,-161 2539.01,-161"/>
<polygon fill="black" stroke="black" points="2539.01,-164.5 2549.01,-161 2539.01,-157.5 2539.01,-164.5"/>
</g>
<!-- LegacyLogger -->
<g id="node23" class="node">
<title>LegacyLogger</title>
<ellipse fill="#fdb462" stroke="black" cx="1658" cy="-104" rx="67.18" ry="18"/>
<text text-anchor="middle" x="1658" y="-99.8" font-family="Times,serif" font-size="14.00">LegacyLogger</text>
</g>
<!-- LegacyLogger&#45;&gt;LearnroomModule -->
<g id="edge23" class="edge">
<title>LegacyLogger&#45;&gt;LearnroomModule</title>
<path fill="none" stroke="black" d="M1658,-122.02C1658,-139.37 1658,-163 1658,-163 1658,-163 2539,-163 2539,-163"/>
<polygon fill="black" stroke="black" points="2539,-166.5 2549,-163 2539,-159.5 2539,-166.5"/>
</g>
<!-- LessonCopyUC -->
<g id="node24" class="node">
<title>LessonCopyUC</title>
<ellipse fill="#fdb462" stroke="black" cx="1500" cy="-104" rx="72.96" ry="18"/>
<text text-anchor="middle" x="1500" y="-99.8" font-family="Times,serif" font-size="14.00">LessonCopyUC</text>
</g>
<!-- LessonCopyUC&#45;&gt;LearnroomModule -->
<g id="edge24" class="edge">
<title>LessonCopyUC&#45;&gt;LearnroomModule</title>
<path fill="none" stroke="black" d="M1500,-122.27C1500,-140.56 1500,-166 1500,-166 1500,-166 2539.14,-166 2539.14,-166"/>
<polygon fill="black" stroke="black" points="2539.14,-169.5 2549.14,-166 2539.14,-162.5 2539.14,-169.5"/>
</g>
<!-- LessonRepo -->
<g id="node25" class="node">
<title>LessonRepo</title>
<ellipse fill="#fdb462" stroke="black" cx="1350" cy="-104" rx="58.55" ry="18"/>
<text text-anchor="middle" x="1350" y="-99.8" font-family="Times,serif" font-size="14.00">LessonRepo</text>
</g>
<!-- LessonRepo&#45;&gt;LearnroomModule -->
<g id="edge25" class="edge">
<title>LessonRepo&#45;&gt;LearnroomModule</title>
<path fill="none" stroke="black" d="M1350,-122.17C1350,-141.09 1350,-168 1350,-168 1350,-168 2539.23,-168 2539.23,-168"/>
<polygon fill="black" stroke="black" points="2539.23,-171.5 2549.23,-168 2539.23,-164.5 2539.23,-171.5"/>
</g>
<!-- RoomBoardDTOFactory -->
<g id="node26" class="node">
<title>RoomBoardDTOFactory</title>
<ellipse fill="#fdb462" stroke="black" cx="1166" cy="-104" rx="107.67" ry="18"/>
<text text-anchor="middle" x="1166" y="-99.8" font-family="Times,serif" font-size="14.00">RoomBoardDTOFactory</text>
</g>
<!-- RoomBoardDTOFactory&#45;&gt;LearnroomModule -->
<g id="edge26" class="edge">
<title>RoomBoardDTOFactory&#45;&gt;LearnroomModule</title>
<path fill="none" stroke="black" d="M1166,-122.31C1166,-142.15 1166,-171 1166,-171 1166,-171 2538.88,-171 2538.88,-171"/>
<polygon fill="black" stroke="black" points="2538.88,-174.5 2548.88,-171 2538.88,-167.5 2538.88,-174.5"/>
</g>
<!-- RoomBoardResponseMapper -->
<g id="node27" class="node">
<title>RoomBoardResponseMapper</title>
<ellipse fill="#fdb462" stroke="black" cx="915" cy="-104" rx="125.07" ry="18"/>
<text text-anchor="middle" x="915" y="-99.8" font-family="Times,serif" font-size="14.00">RoomBoardResponseMapper</text>
</g>
<!-- RoomBoardResponseMapper&#45;&gt;LearnroomModule -->
<g id="edge27" class="edge">
<title>RoomBoardResponseMapper&#45;&gt;LearnroomModule</title>
<path fill="none" stroke="black" d="M915,-122.13C915,-142.57 915,-173 915,-173 915,-173 2539.17,-173 2539.17,-173"/>
<polygon fill="black" stroke="black" points="2539.17,-176.5 2549.17,-173 2539.17,-169.5 2539.17,-176.5"/>
</g>
<!-- RoomsAuthorisationService -->
<g id="node28" class="node">
<title>RoomsAuthorisationService</title>
<ellipse fill="#fdb462" stroke="black" cx="651" cy="-104" rx="120.42" ry="18"/>
<text text-anchor="middle" x="651" y="-99.8" font-family="Times,serif" font-size="14.00">RoomsAuthorisationService</text>
</g>
<!-- RoomsAuthorisationService&#45;&gt;LearnroomModule -->
<g id="edge28" class="edge">
<title>RoomsAuthorisationService&#45;&gt;LearnroomModule</title>
<path fill="none" stroke="black" d="M651,-122.28C651,-143.32 651,-175 651,-175 651,-175 2539.22,-175 2539.22,-175"/>
<polygon fill="black" stroke="black" points="2539.22,-178.5 2549.22,-175 2539.22,-171.5 2539.22,-178.5"/>
</g>
<!-- RoomsService -->
<g id="node29" class="node">
<title>RoomsService</title>
<ellipse fill="#fdb462" stroke="black" cx="445" cy="-104" rx="67.21" ry="18"/>
<text text-anchor="middle" x="445" y="-99.8" font-family="Times,serif" font-size="14.00">RoomsService</text>
</g>
<!-- RoomsService&#45;&gt;LearnroomModule -->
<g id="edge29" class="edge">
<title>RoomsService&#45;&gt;LearnroomModule</title>
<path fill="none" stroke="black" d="M445,-122.29C445,-144.21 445,-178 445,-178 445,-178 2538.98,-178 2538.98,-178"/>
<polygon fill="black" stroke="black" points="2538.98,-181.5 2548.98,-178 2538.98,-174.5 2538.98,-181.5"/>
</g>
<!-- RoomsUc -->
<g id="node30" class="node">
<title>RoomsUc</title>
<ellipse fill="#fdb462" stroke="black" cx="310" cy="-104" rx="49.82" ry="18"/>
<text text-anchor="middle" x="310" y="-99.8" font-family="Times,serif" font-size="14.00">RoomsUc</text>
</g>
<!-- RoomsUc&#45;&gt;LearnroomModule -->
<g id="edge30" class="edge">
<title>RoomsUc&#45;&gt;LearnroomModule</title>
<path fill="none" stroke="black" d="M310,-122.01C310,-144.49 310,-180 310,-180 310,-180 2539.07,-180 2539.07,-180"/>
<polygon fill="black" stroke="black" points="2539.07,-183.5 2549.07,-180 2539.07,-176.5 2539.07,-183.5"/>
</g>
<!-- TaskRepo -->
<g id="node31" class="node">
<title>TaskRepo</title>
<ellipse fill="#fdb462" stroke="black" cx="192" cy="-104" rx="50.38" ry="18"/>
<text text-anchor="middle" x="192" y="-99.8" font-family="Times,serif" font-size="14.00">TaskRepo</text>
</g>
<!-- TaskRepo&#45;&gt;LearnroomModule -->
<g id="edge31" class="edge">
<title>TaskRepo&#45;&gt;LearnroomModule</title>
<path fill="none" stroke="black" d="M192,-122.32C192,-145.66 192,-183 192,-183 192,-183 2539.02,-183 2539.02,-183"/>
<polygon fill="black" stroke="black" points="2539.02,-186.5 2549.02,-183 2539.02,-179.5 2539.02,-186.5"/>
</g>
<!-- UserRepo -->
<g id="node32" class="node">
<title>UserRepo</title>
<ellipse fill="#fdb462" stroke="black" cx="74" cy="-104" rx="49.8" ry="18"/>
<text text-anchor="middle" x="74" y="-99.8" font-family="Times,serif" font-size="14.00">UserRepo</text>
</g>
<!-- UserRepo&#45;&gt;LearnroomModule -->
<g id="edge32" class="edge">
<title>UserRepo&#45;&gt;LearnroomModule</title>
<path fill="none" stroke="black" d="M74,-122.38C74,-146.28 74,-185 74,-185 74,-185 2539.19,-185 2539.19,-185"/>
<polygon fill="black" stroke="black" points="2539.19,-188.5 2549.19,-185 2539.19,-181.5 2539.19,-188.5"/>
</g>
</g>
</svg>
