<?xml version="1.0" encoding="UTF-8" standalone="no"?>
<!DOCTYPE svg PUBLIC "-//W3C//DTD SVG 1.1//EN"
 "http://www.w3.org/Graphics/SVG/1.1/DTD/svg11.dtd">
<!-- Generated by graphviz version 2.47.0 (20210316.0004)
 -->
<!-- Title: dependencies Pages: 1 -->
<svg width="4254pt" height="284pt"
 viewBox="0.00 0.00 4254.00 284.00" xmlns="http://www.w3.org/2000/svg" xmlns:xlink="http://www.w3.org/1999/xlink">
<g id="graph0" class="graph" transform="scale(1 1) rotate(0) translate(4 280)">
<title>dependencies</title>
<polygon fill="white" stroke="transparent" points="-4,4 -4,-280 4250,-280 4250,4 -4,4"/>
<text text-anchor="start" x="2102.01" y="-42.4" font-family="Times-12" font-weight="bold" font-size="14.00">Legend</text>
<polygon fill="#ffffb3" stroke="transparent" points="1889,-10 1889,-30 1909,-30 1909,-10 1889,-10"/>
<text text-anchor="start" x="1912.63" y="-15.4" font-family="Times-12" font-size="14.00"> &#160;Declarations</text>
<polygon fill="#8dd3c7" stroke="transparent" points="2002,-10 2002,-30 2022,-30 2022,-10 2002,-10"/>
<text text-anchor="start" x="2025.73" y="-15.4" font-family="Times-12" font-size="14.00"> &#160;Module</text>
<polygon fill="#80b1d3" stroke="transparent" points="2088,-10 2088,-30 2108,-30 2108,-10 2088,-10"/>
<text text-anchor="start" x="2111.78" y="-15.4" font-family="Times-12" font-size="14.00"> &#160;Bootstrap</text>
<polygon fill="#fdb462" stroke="transparent" points="2185,-10 2185,-30 2205,-30 2205,-10 2185,-10"/>
<text text-anchor="start" x="2208.67" y="-15.4" font-family="Times-12" font-size="14.00"> &#160;Providers</text>
<polygon fill="#fb8072" stroke="transparent" points="2281,-10 2281,-30 2301,-30 2301,-10 2281,-10"/>
<text text-anchor="start" x="2304.73" y="-15.4" font-family="Times-12" font-size="14.00"> &#160;Exports</text>
<g id="clust1" class="cluster">
<title>cluster_LearnroomModule</title>
<polygon fill="none" stroke="black" stroke-dasharray="1,5" points="8,-70 8,-268 4238,-268 4238,-70 8,-70"/>
</g>
<g id="clust4" class="cluster">
<title>cluster_LearnroomModule_exports</title>
<polygon fill="none" stroke="black" points="1303,-208 1303,-260 2430,-260 2430,-208 1303,-208"/>
</g>
<g id="clust6" class="cluster">
<title>cluster_LearnroomModule_providers</title>
<polygon fill="none" stroke="black" points="959,-78 959,-130 4230,-130 4230,-78 959,-78"/>
</g>
<g id="clust3" class="cluster">
<title>cluster_LearnroomModule_imports</title>
<polygon fill="none" stroke="black" points="16,-78 16,-130 951,-130 951,-78 16,-78"/>
</g>
<!-- BoardModule -->
<g id="node1" class="node">
<title>BoardModule</title>
<polygon fill="#8dd3c7" stroke="black" points="942.76,-122 939.76,-126 918.76,-126 915.76,-122 849.24,-122 849.24,-86 942.76,-86 942.76,-122"/>
<text text-anchor="middle" x="896" y="-99.8" font-family="Times,serif" font-size="14.00">BoardModule</text>
</g>
<!-- LearnroomModule -->
<g id="node8" class="node">
<title>LearnroomModule</title>
<polygon fill="#8dd3c7" stroke="black" points="1819.74,-187 1816.74,-191 1795.74,-191 1792.74,-187 1698.26,-187 1698.26,-151 1819.74,-151 1819.74,-187"/>
<text text-anchor="middle" x="1759" y="-164.8" font-family="Times,serif" font-size="14.00">LearnroomModule</text>
</g>
<!-- BoardModule&#45;&gt;LearnroomModule -->
<g id="edge1" class="edge">
<title>BoardModule&#45;&gt;LearnroomModule</title>
<path fill="none" stroke="black" d="M896,-122.02C896,-139.37 896,-163 896,-163 896,-163 1687.97,-163 1687.97,-163"/>
<polygon fill="black" stroke="black" points="1687.97,-166.5 1697.97,-163 1687.97,-159.5 1687.97,-166.5"/>
</g>
<!-- ContextExternalToolModule -->
<g id="node2" class="node">
<title>ContextExternalToolModule</title>
<polygon fill="#8dd3c7" stroke="black" points="830.75,-122 827.75,-126 806.75,-126 803.75,-122 653.25,-122 653.25,-86 830.75,-86 830.75,-122"/>
<text text-anchor="middle" x="742" y="-99.8" font-family="Times,serif" font-size="14.00">ContextExternalToolModule</text>
</g>
<!-- ContextExternalToolModule&#45;&gt;LearnroomModule -->
<g id="edge2" class="edge">
<title>ContextExternalToolModule&#45;&gt;LearnroomModule</title>
<path fill="none" stroke="black" d="M742,-122.27C742,-140.56 742,-166 742,-166 742,-166 1688.05,-166 1688.05,-166"/>
<polygon fill="black" stroke="black" points="1688.05,-169.5 1698.05,-166 1688.05,-162.5 1688.05,-169.5"/>
</g>
<!-- CopyHelperModule -->
<g id="node3" class="node">
<title>CopyHelperModule</title>
<polygon fill="#8dd3c7" stroke="black" points="634.97,-122 631.97,-126 610.97,-126 607.97,-122 507.03,-122 507.03,-86 634.97,-86 634.97,-122"/>
<text text-anchor="middle" x="571" y="-99.8" font-family="Times,serif" font-size="14.00">CopyHelperModule</text>
</g>
<!-- CopyHelperModule&#45;&gt;LearnroomModule -->
<g id="edge3" class="edge">
<title>CopyHelperModule&#45;&gt;LearnroomModule</title>
<path fill="none" stroke="black" d="M571,-122.17C571,-141.09 571,-168 571,-168 571,-168 1688.04,-168 1688.04,-168"/>
<polygon fill="black" stroke="black" points="1688.04,-171.5 1698.04,-168 1688.04,-164.5 1688.04,-171.5"/>
</g>
<!-- LessonModule -->
<g id="node4" class="node">
<title>LessonModule</title>
<polygon fill="#8dd3c7" stroke="black" points="488.71,-122 485.71,-126 464.71,-126 461.71,-122 389.29,-122 389.29,-86 488.71,-86 488.71,-122"/>
<text text-anchor="middle" x="439" y="-99.8" font-family="Times,serif" font-size="14.00">LessonModule</text>
</g>
<!-- LessonModule&#45;&gt;LearnroomModule -->
<g id="edge4" class="edge">
<title>LessonModule&#45;&gt;LearnroomModule</title>
<path fill="none" stroke="black" d="M439,-122.31C439,-142.15 439,-171 439,-171 439,-171 1687.98,-171 1687.98,-171"/>
<polygon fill="black" stroke="black" points="1687.98,-174.5 1697.98,-171 1687.98,-167.5 1687.98,-174.5"/>
</g>
<!-- LoggerModule -->
<g id="node5" class="node">
<title>LoggerModule</title>
<polygon fill="#8dd3c7" stroke="black" points="370.98,-122 367.98,-126 346.98,-126 343.98,-122 271.02,-122 271.02,-86 370.98,-86 370.98,-122"/>
<text text-anchor="middle" x="321" y="-99.8" font-family="Times,serif" font-size="14.00">LoggerModule</text>
</g>
<!-- LoggerModule&#45;&gt;LearnroomModule -->
<g id="edge5" class="edge">
<title>LoggerModule&#45;&gt;LearnroomModule</title>
<path fill="none" stroke="black" d="M321,-122.13C321,-142.57 321,-173 321,-173 321,-173 1688.13,-173 1688.13,-173"/>
<polygon fill="black" stroke="black" points="1688.13,-176.5 1698.13,-173 1688.13,-169.5 1688.13,-176.5"/>
</g>
<!-- TaskModule -->
<g id="node6" class="node">
<title>TaskModule</title>
<polygon fill="#8dd3c7" stroke="black" points="253.26,-122 250.26,-126 229.26,-126 226.26,-122 166.74,-122 166.74,-86 253.26,-86 253.26,-122"/>
<text text-anchor="middle" x="210" y="-99.8" font-family="Times,serif" font-size="14.00">TaskModule</text>
</g>
<!-- TaskModule&#45;&gt;LearnroomModule -->
<g id="edge6" class="edge">
<title>TaskModule&#45;&gt;LearnroomModule</title>
<path fill="none" stroke="black" d="M210,-122.28C210,-143.32 210,-175 210,-175 210,-175 1687.8,-175 1687.8,-175"/>
<polygon fill="black" stroke="black" points="1687.8,-178.5 1697.8,-175 1687.8,-171.5 1687.8,-178.5"/>
</g>
<!-- ToolConfigModule -->
<g id="node7" class="node">
<title>ToolConfigModule</title>
<polygon fill="#8dd3c7" stroke="black" points="148.38,-122 145.38,-126 124.38,-126 121.38,-122 23.62,-122 23.62,-86 148.38,-86 148.38,-122"/>
<text text-anchor="middle" x="86" y="-99.8" font-family="Times,serif" font-size="14.00">ToolConfigModule</text>
</g>
<!-- ToolConfigModule&#45;&gt;LearnroomModule -->
<g id="edge7" class="edge">
<title>ToolConfigModule&#45;&gt;LearnroomModule</title>
<path fill="none" stroke="black" d="M86,-122.29C86,-144.21 86,-178 86,-178 86,-178 1687.97,-178 1687.97,-178"/>
<polygon fill="black" stroke="black" points="1687.97,-181.5 1697.97,-178 1687.97,-174.5 1687.97,-181.5"/>
</g>
<!-- CommonCartridgeExportService  -->
<g id="node9" class="node">
<title>CommonCartridgeExportService </title>
<polygon fill="#fb8072" stroke="black" points="2422.07,-252 2217.93,-252 2217.93,-216 2422.07,-216 2422.07,-252"/>
<text text-anchor="middle" x="2320" y="-229.8" font-family="Times,serif" font-size="14.00">CommonCartridgeExportService </text>
</g>
<!-- LearnroomModule&#45;&gt;CommonCartridgeExportService  -->
<g id="edge8" class="edge">
<title>LearnroomModule&#45;&gt;CommonCartridgeExportService </title>
<path fill="none" stroke="black" stroke-dasharray="5,2" d="M1819.75,-180C1958.42,-180 2286.37,-180 2286.37,-180 2286.37,-180 2286.37,-205.72 2286.37,-205.72"/>
<polygon fill="black" stroke="black" points="2282.87,-205.72 2286.37,-215.72 2289.87,-205.72 2282.87,-205.72"/>
</g>
<!-- CommonCartridgeImportService  -->
<g id="node10" class="node">
<title>CommonCartridgeImportService </title>
<polygon fill="#fb8072" stroke="black" points="2199.07,-252 1994.93,-252 1994.93,-216 2199.07,-216 2199.07,-252"/>
<text text-anchor="middle" x="2097" y="-229.8" font-family="Times,serif" font-size="14.00">CommonCartridgeImportService </text>
</g>
<!-- LearnroomModule&#45;&gt;CommonCartridgeImportService  -->
<g id="edge9" class="edge">
<title>LearnroomModule&#45;&gt;CommonCartridgeImportService </title>
<path fill="none" stroke="black" stroke-dasharray="5,2" d="M1819.75,-183C1892.89,-183 2006.03,-183 2006.03,-183 2006.03,-183 2006.03,-205.88 2006.03,-205.88"/>
<polygon fill="black" stroke="black" points="2002.53,-205.88 2006.03,-215.88 2009.53,-205.88 2002.53,-205.88"/>
</g>
<!-- CourseCopyService  -->
<g id="node11" class="node">
<title>CourseCopyService </title>
<polygon fill="#fb8072" stroke="black" points="1976.97,-252 1845.03,-252 1845.03,-216 1976.97,-216 1976.97,-252"/>
<text text-anchor="middle" x="1911" y="-229.8" font-family="Times,serif" font-size="14.00">CourseCopyService </text>
</g>
<!-- LearnroomModule&#45;&gt;CourseCopyService  -->
<g id="edge10" class="edge">
<title>LearnroomModule&#45;&gt;CourseCopyService </title>
<path fill="none" stroke="black" stroke-dasharray="5,2" d="M1819.97,-185C1838.88,-185 1854.85,-185 1854.85,-185 1854.85,-185 1854.85,-205.75 1854.85,-205.75"/>
<polygon fill="black" stroke="black" points="1851.35,-205.75 1854.85,-215.75 1858.35,-205.75 1851.35,-205.75"/>
</g>
<!-- CourseGroupService  -->
<g id="node12" class="node">
<title>CourseGroupService </title>
<polygon fill="#fb8072" stroke="black" points="1827.4,-252 1690.6,-252 1690.6,-216 1827.4,-216 1827.4,-252"/>
<text text-anchor="middle" x="1759" y="-229.8" font-family="Times,serif" font-size="14.00">CourseGroupService </text>
</g>
<!-- LearnroomModule&#45;&gt;CourseGroupService  -->
<g id="edge11" class="edge">
<title>LearnroomModule&#45;&gt;CourseGroupService </title>
<path fill="none" stroke="black" stroke-dasharray="5,2" d="M1759,-187.11C1759,-187.11 1759,-205.99 1759,-205.99"/>
<polygon fill="black" stroke="black" points="1755.5,-205.99 1759,-215.99 1762.5,-205.99 1755.5,-205.99"/>
</g>
<!-- CourseService  -->
<g id="node13" class="node">
<title>CourseService </title>
<polygon fill="#fb8072" stroke="black" points="1672.63,-252 1571.37,-252 1571.37,-216 1672.63,-216 1672.63,-252"/>
<text text-anchor="middle" x="1622" y="-229.8" font-family="Times,serif" font-size="14.00">CourseService </text>
</g>
<!-- LearnroomModule&#45;&gt;CourseService  -->
<g id="edge12" class="edge">
<title>LearnroomModule&#45;&gt;CourseService </title>
<path fill="none" stroke="black" stroke-dasharray="5,2" d="M1698.25,-185C1679.21,-185 1663.07,-185 1663.07,-185 1663.07,-185 1663.07,-205.75 1663.07,-205.75"/>
<polygon fill="black" stroke="black" points="1659.57,-205.75 1663.07,-215.75 1666.57,-205.75 1659.57,-205.75"/>
</g>
<!-- DashboardService  -->
<g id="node14" class="node">
<title>DashboardService </title>
<polygon fill="#fb8072" stroke="black" points="1553.12,-252 1430.88,-252 1430.88,-216 1553.12,-216 1553.12,-252"/>
<text text-anchor="middle" x="1492" y="-229.8" font-family="Times,serif" font-size="14.00">DashboardService </text>
</g>
<!-- LearnroomModule&#45;&gt;DashboardService  -->
<g id="edge13" class="edge">
<title>LearnroomModule&#45;&gt;DashboardService </title>
<path fill="none" stroke="black" stroke-dasharray="5,2" d="M1698.08,-183C1619.28,-183 1492,-183 1492,-183 1492,-183 1492,-205.88 1492,-205.88"/>
<polygon fill="black" stroke="black" points="1488.5,-205.88 1492,-215.88 1495.5,-205.88 1488.5,-205.88"/>
</g>
<!-- RoomsService  -->
<g id="node15" class="node">
<title>RoomsService </title>
<polygon fill="#fb8072" stroke="black" points="1412.65,-252 1311.35,-252 1311.35,-216 1412.65,-216 1412.65,-252"/>
<text text-anchor="middle" x="1362" y="-229.8" font-family="Times,serif" font-size="14.00">RoomsService </text>
</g>
<!-- LearnroomModule&#45;&gt;RoomsService  -->
<g id="edge14" class="edge">
<title>LearnroomModule&#45;&gt;RoomsService </title>
<path fill="none" stroke="black" stroke-dasharray="5,2" d="M1698.04,-180C1597.2,-180 1406.7,-180 1406.7,-180 1406.7,-180 1406.7,-205.72 1406.7,-205.72"/>
<polygon fill="black" stroke="black" points="1403.2,-205.72 1406.7,-215.72 1410.2,-205.72 1403.2,-205.72"/>
</g>
<!-- BoardCopyService -->
<g id="node16" class="node">
<title>BoardCopyService</title>
<ellipse fill="#fdb462" stroke="black" cx="4137" cy="-104" rx="84.53" ry="18"/>
<text text-anchor="middle" x="4137" y="-99.8" font-family="Times,serif" font-size="14.00">BoardCopyService</text>
</g>
<!-- BoardCopyService&#45;&gt;LearnroomModule -->
<g id="edge15" class="edge">
<title>BoardCopyService&#45;&gt;LearnroomModule</title>
<path fill="none" stroke="black" d="M4137,-122.29C4137,-144.21 4137,-178 4137,-178 4137,-178 1829.87,-178 1829.87,-178"/>
<polygon fill="black" stroke="black" points="1829.87,-174.5 1819.87,-178 1829.87,-181.5 1829.87,-174.5"/>
</g>
<!-- BoardRepo -->
<g id="node17" class="node">
<title>BoardRepo</title>
<ellipse fill="#fdb462" stroke="black" cx="3979" cy="-104" rx="55.04" ry="18"/>
<text text-anchor="middle" x="3979" y="-99.8" font-family="Times,serif" font-size="14.00">BoardRepo</text>
</g>
<!-- BoardRepo&#45;&gt;LearnroomModule -->
<g id="edge16" class="edge">
<title>BoardRepo&#45;&gt;LearnroomModule</title>
<path fill="none" stroke="black" d="M3979,-122.28C3979,-143.32 3979,-175 3979,-175 3979,-175 1829.82,-175 1829.82,-175"/>
<polygon fill="black" stroke="black" points="1829.82,-171.5 1819.82,-175 1829.82,-178.5 1829.82,-171.5"/>
</g>
<!-- ColumnBoardTargetService -->
<g id="node18" class="node">
<title>ColumnBoardTargetService</title>
<ellipse fill="#fdb462" stroke="black" cx="3786" cy="-104" rx="119.82" ry="18"/>
<text text-anchor="middle" x="3786" y="-99.8" font-family="Times,serif" font-size="14.00">ColumnBoardTargetService</text>
</g>
<!-- ColumnBoardTargetService&#45;&gt;LearnroomModule -->
<g id="edge17" class="edge">
<title>ColumnBoardTargetService&#45;&gt;LearnroomModule</title>
<path fill="none" stroke="black" d="M3786,-122.13C3786,-142.57 3786,-173 3786,-173 3786,-173 1829.94,-173 1829.94,-173"/>
<polygon fill="black" stroke="black" points="1829.94,-169.5 1819.94,-173 1829.94,-176.5 1829.94,-169.5"/>
</g>
<!-- CommonCartridgeExportService -->
<g id="node19" class="node">
<title>CommonCartridgeExportService</title>
<ellipse fill="#fdb462" stroke="black" cx="3509" cy="-104" rx="138.89" ry="18"/>
<text text-anchor="middle" x="3509" y="-99.8" font-family="Times,serif" font-size="14.00">CommonCartridgeExportService</text>
</g>
<!-- CommonCartridgeExportService&#45;&gt;LearnroomModule -->
<g id="edge18" class="edge">
<title>CommonCartridgeExportService&#45;&gt;LearnroomModule</title>
<path fill="none" stroke="black" d="M3509,-122.31C3509,-142.15 3509,-171 3509,-171 3509,-171 1829.75,-171 1829.75,-171"/>
<polygon fill="black" stroke="black" points="1829.75,-167.5 1819.75,-171 1829.75,-174.5 1829.75,-167.5"/>
</g>
<!-- CommonCartridgeFileValidatorPipe -->
<g id="node20" class="node">
<title>CommonCartridgeFileValidatorPipe</title>
<ellipse fill="#fdb462" stroke="black" cx="3200" cy="-104" rx="152.22" ry="18"/>
<text text-anchor="middle" x="3200" y="-99.8" font-family="Times,serif" font-size="14.00">CommonCartridgeFileValidatorPipe</text>
</g>
<!-- CommonCartridgeFileValidatorPipe&#45;&gt;LearnroomModule -->
<g id="edge19" class="edge">
<title>CommonCartridgeFileValidatorPipe&#45;&gt;LearnroomModule</title>
<path fill="none" stroke="black" d="M3200,-122.17C3200,-141.09 3200,-168 3200,-168 3200,-168 1830,-168 1830,-168"/>
<polygon fill="black" stroke="black" points="1830,-164.5 1820,-168 1830,-171.5 1830,-164.5"/>
</g>
<!-- CommonCartridgeImportService -->
<g id="node21" class="node">
<title>CommonCartridgeImportService</title>
<ellipse fill="#fdb462" stroke="black" cx="2891" cy="-104" rx="138.88" ry="18"/>
<text text-anchor="middle" x="2891" y="-99.8" font-family="Times,serif" font-size="14.00">CommonCartridgeImportService</text>
</g>
<!-- CommonCartridgeImportService&#45;&gt;LearnroomModule -->
<g id="edge20" class="edge">
<title>CommonCartridgeImportService&#45;&gt;LearnroomModule</title>
<path fill="none" stroke="black" d="M2891,-122.27C2891,-140.56 2891,-166 2891,-166 2891,-166 1829.86,-166 1829.86,-166"/>
<polygon fill="black" stroke="black" points="1829.86,-162.5 1819.86,-166 1829.86,-169.5 1829.86,-162.5"/>
</g>
<!-- CourseCopyService -->
<g id="node22" class="node">
<title>CourseCopyService</title>
<ellipse fill="#fdb462" stroke="black" cx="2646" cy="-104" rx="88.04" ry="18"/>
<text text-anchor="middle" x="2646" y="-99.8" font-family="Times,serif" font-size="14.00">CourseCopyService</text>
</g>
<!-- CourseCopyService&#45;&gt;LearnroomModule -->
<g id="edge21" class="edge">
<title>CourseCopyService&#45;&gt;LearnroomModule</title>
<path fill="none" stroke="black" d="M2646,-122.02C2646,-139.37 2646,-163 2646,-163 2646,-163 1829.97,-163 1829.97,-163"/>
<polygon fill="black" stroke="black" points="1829.97,-159.5 1819.97,-163 1829.97,-166.5 1829.97,-159.5"/>
</g>
<!-- CourseGroupRepo -->
<g id="node23" class="node">
<title>CourseGroupRepo</title>
<ellipse fill="#fdb462" stroke="black" cx="2456" cy="-104" rx="83.39" ry="18"/>
<text text-anchor="middle" x="2456" y="-99.8" font-family="Times,serif" font-size="14.00">CourseGroupRepo</text>
</g>
<!-- CourseGroupRepo&#45;&gt;LearnroomModule -->
<g id="edge22" class="edge">
<title>CourseGroupRepo&#45;&gt;LearnroomModule</title>
<path fill="none" stroke="black" d="M2397.42,-116.93C2397.42,-133.75 2397.42,-161 2397.42,-161 2397.42,-161 1829.93,-161 1829.93,-161"/>
<polygon fill="black" stroke="black" points="1829.93,-157.5 1819.93,-161 1829.93,-164.5 1829.93,-157.5"/>
</g>
<!-- CourseGroupService -->
<g id="node24" class="node">
<title>CourseGroupService</title>
<ellipse fill="#fdb462" stroke="black" cx="2263" cy="-104" rx="92.04" ry="18"/>
<text text-anchor="middle" x="2263" y="-99.8" font-family="Times,serif" font-size="14.00">CourseGroupService</text>
</g>
<!-- CourseGroupService&#45;&gt;LearnroomModule -->
<g id="edge23" class="edge">
<title>CourseGroupService&#45;&gt;LearnroomModule</title>
<path fill="none" stroke="black" d="M2185.13,-113.83C2185.13,-129.65 2185.13,-159 2185.13,-159 2185.13,-159 1830.05,-159 1830.05,-159"/>
<polygon fill="black" stroke="black" points="1830.05,-155.5 1820.05,-159 1830.05,-162.5 1830.05,-155.5"/>
</g>
<!-- CourseRepo -->
<g id="node25" class="node">
<title>CourseRepo</title>
<ellipse fill="#fdb462" stroke="black" cx="2094" cy="-104" rx="58.55" ry="18"/>
<text text-anchor="middle" x="2094" y="-99.8" font-family="Times,serif" font-size="14.00">CourseRepo</text>
</g>
<!-- CourseRepo&#45;&gt;LearnroomModule -->
<g id="edge24" class="edge">
<title>CourseRepo&#45;&gt;LearnroomModule</title>
<path fill="none" stroke="black" d="M2094,-122.19C2094,-137.18 2094,-156 2094,-156 2094,-156 1830.05,-156 1830.05,-156"/>
<polygon fill="black" stroke="black" points="1830.05,-152.5 1820.05,-156 1830.05,-159.5 1830.05,-152.5"/>
</g>
<!-- CourseService -->
<g id="node26" class="node">
<title>CourseService</title>
<ellipse fill="#fdb462" stroke="black" cx="1950" cy="-104" rx="67.19" ry="18"/>
<text text-anchor="middle" x="1950" y="-99.8" font-family="Times,serif" font-size="14.00">CourseService</text>
</g>
<!-- CourseService&#45;&gt;LearnroomModule -->
<g id="edge25" class="edge">
<title>CourseService&#45;&gt;LearnroomModule</title>
<path fill="none" stroke="black" d="M1929.69,-121.21C1929.69,-135.67 1929.69,-154 1929.69,-154 1929.69,-154 1830.14,-154 1830.14,-154"/>
<polygon fill="black" stroke="black" points="1830.14,-150.5 1820.14,-154 1830.14,-157.5 1830.14,-150.5"/>
</g>
<!-- DashboardElementRepo -->
<g id="node27" class="node">
<title>DashboardElementRepo</title>
<ellipse fill="#fdb462" stroke="black" cx="1759" cy="-104" rx="105.36" ry="18"/>
<text text-anchor="middle" x="1759" y="-99.8" font-family="Times,serif" font-size="14.00">DashboardElementRepo</text>
</g>
<!-- DashboardElementRepo&#45;&gt;LearnroomModule -->
<g id="edge26" class="edge">
<title>DashboardElementRepo&#45;&gt;LearnroomModule</title>
<path fill="none" stroke="black" d="M1759,-122.11C1759,-122.11 1759,-140.99 1759,-140.99"/>
<polygon fill="black" stroke="black" points="1755.5,-140.99 1759,-150.99 1762.5,-140.99 1755.5,-140.99"/>
</g>
<!-- DashboardModelMapper -->
<g id="node28" class="node">
<title>DashboardModelMapper</title>
<ellipse fill="#fdb462" stroke="black" cx="1527" cy="-104" rx="108.21" ry="18"/>
<text text-anchor="middle" x="1527" y="-99.8" font-family="Times,serif" font-size="14.00">DashboardModelMapper</text>
</g>
<!-- DashboardModelMapper&#45;&gt;LearnroomModule -->
<g id="edge27" class="edge">
<title>DashboardModelMapper&#45;&gt;LearnroomModule</title>
<path fill="none" stroke="black" d="M1603.27,-116.88C1603.27,-131.69 1603.27,-154 1603.27,-154 1603.27,-154 1687.9,-154 1687.9,-154"/>
<polygon fill="black" stroke="black" points="1687.9,-157.5 1697.9,-154 1687.9,-150.5 1687.9,-157.5"/>
</g>
<!-- DashboardService -->
<g id="node29" class="node">
<title>DashboardService</title>
<ellipse fill="#fdb462" stroke="black" cx="1319" cy="-104" rx="81.64" ry="18"/>
<text text-anchor="middle" x="1319" y="-99.8" font-family="Times,serif" font-size="14.00">DashboardService</text>
</g>
<!-- DashboardService&#45;&gt;LearnroomModule -->
<g id="edge28" class="edge">
<title>DashboardService&#45;&gt;LearnroomModule</title>
<path fill="none" stroke="black" d="M1356.12,-120.17C1356.12,-135.43 1356.12,-156 1356.12,-156 1356.12,-156 1688.25,-156 1688.25,-156"/>
<polygon fill="black" stroke="black" points="1688.25,-159.5 1698.25,-156 1688.25,-152.5 1688.25,-159.5"/>
</g>
<!-- RoomsService -->
<g id="node30" class="node">
<title>RoomsService</title>
<ellipse fill="#fdb462" stroke="black" cx="1152" cy="-104" rx="67.21" ry="18"/>
<text text-anchor="middle" x="1152" y="-99.8" font-family="Times,serif" font-size="14.00">RoomsService</text>
</g>
<!-- RoomsService&#45;&gt;LearnroomModule -->
<g id="edge29" class="edge">
<title>RoomsService&#45;&gt;LearnroomModule</title>
<path fill="none" stroke="black" d="M1152,-122.01C1152,-138.05 1152,-159 1152,-159 1152,-159 1688.02,-159 1688.02,-159"/>
<polygon fill="black" stroke="black" points="1688.02,-162.5 1698.02,-159 1688.02,-155.5 1688.02,-162.5"/>
</g>
<!-- UserRepo -->
<g id="node31" class="node">
<title>UserRepo</title>
<ellipse fill="#fdb462" stroke="black" cx="1017" cy="-104" rx="49.8" ry="18"/>
<text text-anchor="middle" x="1017" y="-99.8" font-family="Times,serif" font-size="14.00">UserRepo</text>
</g>
<!-- UserRepo&#45;&gt;LearnroomModule -->
<g id="edge30" class="edge">
<title>UserRepo&#45;&gt;LearnroomModule</title>
<path fill="none" stroke="black" d="M1017,-122.04C1017,-138.73 1017,-161 1017,-161 1017,-161 1687.96,-161 1687.96,-161"/>
<polygon fill="black" stroke="black" points="1687.96,-164.5 1697.96,-161 1687.96,-157.5 1687.96,-164.5"/>
</g>
</g>
</svg>
