<?xml version="1.0" encoding="UTF-8" standalone="no"?>
<!DOCTYPE svg PUBLIC "-//W3C//DTD SVG 1.1//EN"
 "http://www.w3.org/Graphics/SVG/1.1/DTD/svg11.dtd">
<!-- Generated by graphviz version 2.47.0 (20210316.0004)
 -->
<!-- Title: dependencies Pages: 1 -->
<svg width="2885pt" height="284pt"
 viewBox="0.00 0.00 2885.00 284.00" xmlns="http://www.w3.org/2000/svg" xmlns:xlink="http://www.w3.org/1999/xlink">
<g id="graph0" class="graph" transform="scale(1 1) rotate(0) translate(4 280)">
<title>dependencies</title>
<polygon fill="white" stroke="transparent" points="-4,4 -4,-280 2881,-280 2881,4 -4,4"/>
<text text-anchor="start" x="1417.51" y="-42.4" font-family="Times-12" font-weight="bold" font-size="14.00">Legend</text>
<polygon fill="#ffffb3" stroke="transparent" points="1204.5,-10 1204.5,-30 1224.5,-30 1224.5,-10 1204.5,-10"/>
<text text-anchor="start" x="1228.13" y="-15.4" font-family="Times-12" font-size="14.00"> &#160;Declarations</text>
<polygon fill="#8dd3c7" stroke="transparent" points="1317.5,-10 1317.5,-30 1337.5,-30 1337.5,-10 1317.5,-10"/>
<text text-anchor="start" x="1341.23" y="-15.4" font-family="Times-12" font-size="14.00"> &#160;Module</text>
<polygon fill="#80b1d3" stroke="transparent" points="1403.5,-10 1403.5,-30 1423.5,-30 1423.5,-10 1403.5,-10"/>
<text text-anchor="start" x="1427.28" y="-15.4" font-family="Times-12" font-size="14.00"> &#160;Bootstrap</text>
<polygon fill="#fdb462" stroke="transparent" points="1500.5,-10 1500.5,-30 1520.5,-30 1520.5,-10 1500.5,-10"/>
<text text-anchor="start" x="1524.17" y="-15.4" font-family="Times-12" font-size="14.00"> &#160;Providers</text>
<polygon fill="#fb8072" stroke="transparent" points="1596.5,-10 1596.5,-30 1616.5,-30 1616.5,-10 1596.5,-10"/>
<text text-anchor="start" x="1620.23" y="-15.4" font-family="Times-12" font-size="14.00"> &#160;Exports</text>
<g id="clust1" class="cluster">
<title>cluster_LearnroomModule</title>
<polygon fill="none" stroke="black" stroke-dasharray="1,5" points="8,-70 8,-268 2869,-268 2869,-70 8,-70"/>
</g>
<g id="clust6" class="cluster">
<title>cluster_LearnroomModule_providers</title>
<polygon fill="none" stroke="black" points="620,-78 620,-130 2861,-130 2861,-78 620,-78"/>
</g>
<g id="clust4" class="cluster">
<title>cluster_LearnroomModule_exports</title>
<polygon fill="none" stroke="black" points="884,-208 884,-260 1647,-260 1647,-208 884,-208"/>
</g>
<g id="clust3" class="cluster">
<title>cluster_LearnroomModule_imports</title>
<polygon fill="none" stroke="black" points="16,-78 16,-130 612,-130 612,-78 16,-78"/>
</g>
<!-- BoardModule -->
<g id="node1" class="node">
<title>BoardModule</title>
<polygon fill="#8dd3c7" stroke="black" points="603.76,-122 600.76,-126 579.76,-126 576.76,-122 510.24,-122 510.24,-86 603.76,-86 603.76,-122"/>
<text text-anchor="middle" x="557" y="-99.8" font-family="Times,serif" font-size="14.00">BoardModule</text>
</g>
<!-- LearnroomModule -->
<g id="node6" class="node">
<title>LearnroomModule</title>
<polygon fill="#8dd3c7" stroke="black" points="1259.74,-187 1256.74,-191 1235.74,-191 1232.74,-187 1138.26,-187 1138.26,-151 1259.74,-151 1259.74,-187"/>
<text text-anchor="middle" x="1199" y="-164.8" font-family="Times,serif" font-size="14.00">LearnroomModule</text>
</g>
<!-- BoardModule&#45;&gt;LearnroomModule -->
<g id="edge1" class="edge">
<title>BoardModule&#45;&gt;LearnroomModule</title>
<path fill="none" stroke="black" d="M557,-122.3C557,-140.27 557,-165 557,-165 557,-165 1128.02,-165 1128.02,-165"/>
<polygon fill="black" stroke="black" points="1128.02,-168.5 1138.02,-165 1128.02,-161.5 1128.02,-168.5"/>
</g>
<!-- CopyHelperModule -->
<g id="node2" class="node">
<title>CopyHelperModule</title>
<polygon fill="#8dd3c7" stroke="black" points="491.97,-122 488.97,-126 467.97,-126 464.97,-122 364.03,-122 364.03,-86 491.97,-86 491.97,-122"/>
<text text-anchor="middle" x="428" y="-99.8" font-family="Times,serif" font-size="14.00">CopyHelperModule</text>
</g>
<!-- CopyHelperModule&#45;&gt;LearnroomModule -->
<g id="edge2" class="edge">
<title>CopyHelperModule&#45;&gt;LearnroomModule</title>
<path fill="none" stroke="black" d="M428,-122.17C428,-141.09 428,-168 428,-168 428,-168 1128.18,-168 1128.18,-168"/>
<polygon fill="black" stroke="black" points="1128.18,-171.5 1138.18,-168 1128.18,-164.5 1128.18,-171.5"/>
</g>
<!-- LessonModule -->
<g id="node3" class="node">
<title>LessonModule</title>
<polygon fill="#8dd3c7" stroke="black" points="345.71,-122 342.71,-126 321.71,-126 318.71,-122 246.29,-122 246.29,-86 345.71,-86 345.71,-122"/>
<text text-anchor="middle" x="296" y="-99.8" font-family="Times,serif" font-size="14.00">LessonModule</text>
</g>
<!-- LessonModule&#45;&gt;LearnroomModule -->
<g id="edge3" class="edge">
<title>LessonModule&#45;&gt;LearnroomModule</title>
<path fill="none" stroke="black" d="M296,-122.31C296,-142.15 296,-171 296,-171 296,-171 1128,-171 1128,-171"/>
<polygon fill="black" stroke="black" points="1128,-174.5 1138,-171 1128,-167.5 1128,-174.5"/>
</g>
<!-- LoggerModule -->
<g id="node4" class="node">
<title>LoggerModule</title>
<polygon fill="#8dd3c7" stroke="black" points="227.98,-122 224.98,-126 203.98,-126 200.98,-122 128.02,-122 128.02,-86 227.98,-86 227.98,-122"/>
<text text-anchor="middle" x="178" y="-99.8" font-family="Times,serif" font-size="14.00">LoggerModule</text>
</g>
<!-- LoggerModule&#45;&gt;LearnroomModule -->
<g id="edge4" class="edge">
<title>LoggerModule&#45;&gt;LearnroomModule</title>
<path fill="none" stroke="black" d="M178,-122.03C178,-142.77 178,-174 178,-174 178,-174 1128.19,-174 1128.19,-174"/>
<polygon fill="black" stroke="black" points="1128.19,-177.5 1138.19,-174 1128.19,-170.5 1128.19,-177.5"/>
</g>
<!-- TaskModule -->
<g id="node5" class="node">
<title>TaskModule</title>
<polygon fill="#8dd3c7" stroke="black" points="110.26,-122 107.26,-126 86.26,-126 83.26,-122 23.74,-122 23.74,-86 110.26,-86 110.26,-122"/>
<text text-anchor="middle" x="67" y="-99.8" font-family="Times,serif" font-size="14.00">TaskModule</text>
</g>
<!-- TaskModule&#45;&gt;LearnroomModule -->
<g id="edge5" class="edge">
<title>TaskModule&#45;&gt;LearnroomModule</title>
<path fill="none" stroke="black" d="M67,-122.29C67,-144.21 67,-178 67,-178 67,-178 1128.14,-178 1128.14,-178"/>
<polygon fill="black" stroke="black" points="1128.14,-181.5 1138.14,-178 1128.14,-174.5 1128.14,-181.5"/>
</g>
<!-- CommonCartridgeExportService  -->
<g id="node7" class="node">
<title>CommonCartridgeExportService </title>
<polygon fill="#fb8072" stroke="black" points="1639.07,-252 1434.93,-252 1434.93,-216 1639.07,-216 1639.07,-252"/>
<text text-anchor="middle" x="1537" y="-229.8" font-family="Times,serif" font-size="14.00">CommonCartridgeExportService </text>
</g>
<!-- LearnroomModule&#45;&gt;CommonCartridgeExportService  -->
<g id="edge6" class="edge">
<title>LearnroomModule&#45;&gt;CommonCartridgeExportService </title>
<path fill="none" stroke="black" stroke-dasharray="5,2" d="M1260.01,-181C1352.96,-181 1519.37,-181 1519.37,-181 1519.37,-181 1519.37,-205.76 1519.37,-205.76"/>
<polygon fill="black" stroke="black" points="1515.87,-205.76 1519.37,-215.76 1522.87,-205.76 1515.87,-205.76"/>
</g>
<!-- CourseCopyService  -->
<g id="node8" class="node">
<title>CourseCopyService </title>
<polygon fill="#fb8072" stroke="black" points="1416.97,-252 1285.03,-252 1285.03,-216 1416.97,-216 1416.97,-252"/>
<text text-anchor="middle" x="1351" y="-229.8" font-family="Times,serif" font-size="14.00">CourseCopyService </text>
</g>
<!-- LearnroomModule&#45;&gt;CourseCopyService  -->
<g id="edge7" class="edge">
<title>LearnroomModule&#45;&gt;CourseCopyService </title>
<path fill="none" stroke="black" stroke-dasharray="5,2" d="M1260.08,-184C1291.84,-184 1324.1,-184 1324.1,-184 1324.1,-184 1324.1,-205.95 1324.1,-205.95"/>
<polygon fill="black" stroke="black" points="1320.6,-205.95 1324.1,-215.95 1327.6,-205.95 1320.6,-205.95"/>
</g>
<!-- CourseGroupService  -->
<g id="node9" class="node">
<title>CourseGroupService </title>
<polygon fill="#fb8072" stroke="black" points="1267.4,-252 1130.6,-252 1130.6,-216 1267.4,-216 1267.4,-252"/>
<text text-anchor="middle" x="1199" y="-229.8" font-family="Times,serif" font-size="14.00">CourseGroupService </text>
</g>
<!-- LearnroomModule&#45;&gt;CourseGroupService  -->
<g id="edge8" class="edge">
<title>LearnroomModule&#45;&gt;CourseGroupService </title>
<path fill="none" stroke="black" stroke-dasharray="5,2" d="M1199,-187.11C1199,-187.11 1199,-205.99 1199,-205.99"/>
<polygon fill="black" stroke="black" points="1195.5,-205.99 1199,-215.99 1202.5,-205.99 1195.5,-205.99"/>
</g>
<!-- CourseService  -->
<g id="node10" class="node">
<title>CourseService </title>
<polygon fill="#fb8072" stroke="black" points="1112.63,-252 1011.37,-252 1011.37,-216 1112.63,-216 1112.63,-252"/>
<text text-anchor="middle" x="1062" y="-229.8" font-family="Times,serif" font-size="14.00">CourseService </text>
</g>
<!-- LearnroomModule&#45;&gt;CourseService  -->
<g id="edge9" class="edge">
<title>LearnroomModule&#45;&gt;CourseService </title>
<path fill="none" stroke="black" stroke-dasharray="5,2" d="M1138.22,-184C1108.42,-184 1078.86,-184 1078.86,-184 1078.86,-184 1078.86,-205.95 1078.86,-205.95"/>
<polygon fill="black" stroke="black" points="1075.36,-205.95 1078.86,-215.95 1082.36,-205.95 1075.36,-205.95"/>
</g>
<!-- RoomsService  -->
<g id="node11" class="node">
<title>RoomsService </title>
<polygon fill="#fb8072" stroke="black" points="993.65,-252 892.35,-252 892.35,-216 993.65,-216 993.65,-252"/>
<text text-anchor="middle" x="943" y="-229.8" font-family="Times,serif" font-size="14.00">RoomsService </text>
</g>
<!-- LearnroomModule&#45;&gt;RoomsService  -->
<g id="edge10" class="edge">
<title>LearnroomModule&#45;&gt;RoomsService </title>
<path fill="none" stroke="black" stroke-dasharray="5,2" d="M1138.01,-181C1063.07,-181 945.73,-181 945.73,-181 945.73,-181 945.73,-205.76 945.73,-205.76"/>
<polygon fill="black" stroke="black" points="942.23,-205.76 945.73,-215.76 949.23,-205.76 942.23,-205.76"/>
</g>
<!-- BoardCopyService -->
<g id="node12" class="node">
<title>BoardCopyService</title>
<ellipse fill="#fdb462" stroke="black" cx="2768" cy="-104" rx="84.53" ry="18"/>
<text text-anchor="middle" x="2768" y="-99.8" font-family="Times,serif" font-size="14.00">BoardCopyService</text>
</g>
<!-- BoardCopyService&#45;&gt;LearnroomModule -->
<g id="edge11" class="edge">
<title>BoardCopyService&#45;&gt;LearnroomModule</title>
<path fill="none" stroke="black" d="M2768,-122.29C2768,-144.21 2768,-178 2768,-178 2768,-178 1270.03,-178 1270.03,-178"/>
<polygon fill="black" stroke="black" points="1270.03,-174.5 1260.03,-178 1270.03,-181.5 1270.03,-174.5"/>
</g>
<!-- BoardRepo -->
<g id="node13" class="node">
<title>BoardRepo</title>
<ellipse fill="#fdb462" stroke="black" cx="2610" cy="-104" rx="55.04" ry="18"/>
<text text-anchor="middle" x="2610" y="-99.8" font-family="Times,serif" font-size="14.00">BoardRepo</text>
</g>
<!-- BoardRepo&#45;&gt;LearnroomModule -->
<g id="edge12" class="edge">
<title>BoardRepo&#45;&gt;LearnroomModule</title>
<path fill="none" stroke="black" d="M2610,-122.03C2610,-142.77 2610,-174 2610,-174 2610,-174 1270.08,-174 1270.08,-174"/>
<polygon fill="black" stroke="black" points="1270.08,-170.5 1260.08,-174 1270.08,-177.5 1270.08,-170.5"/>
</g>
<!-- ColumnBoardTargetService -->
<g id="node14" class="node">
<title>ColumnBoardTargetService</title>
<ellipse fill="#fdb462" stroke="black" cx="2417" cy="-104" rx="119.82" ry="18"/>
<text text-anchor="middle" x="2417" y="-99.8" font-family="Times,serif" font-size="14.00">ColumnBoardTargetService</text>
</g>
<!-- ColumnBoardTargetService&#45;&gt;LearnroomModule -->
<g id="edge13" class="edge">
<title>ColumnBoardTargetService&#45;&gt;LearnroomModule</title>
<path fill="none" stroke="black" d="M2417,-122.31C2417,-142.15 2417,-171 2417,-171 2417,-171 1269.82,-171 1269.82,-171"/>
<polygon fill="black" stroke="black" points="1269.82,-167.5 1259.82,-171 1269.82,-174.5 1269.82,-167.5"/>
</g>
<!-- CommonCartridgeExportService -->
<g id="node15" class="node">
<title>CommonCartridgeExportService</title>
<ellipse fill="#fdb462" stroke="black" cx="2140" cy="-104" rx="138.89" ry="18"/>
<text text-anchor="middle" x="2140" y="-99.8" font-family="Times,serif" font-size="14.00">CommonCartridgeExportService</text>
</g>
<!-- CommonCartridgeExportService&#45;&gt;LearnroomModule -->
<g id="edge14" class="edge">
<title>CommonCartridgeExportService&#45;&gt;LearnroomModule</title>
<path fill="none" stroke="black" d="M2140,-122.17C2140,-141.09 2140,-168 2140,-168 2140,-168 1270.02,-168 1270.02,-168"/>
<polygon fill="black" stroke="black" points="1270.02,-164.5 1260.02,-168 1270.02,-171.5 1270.02,-164.5"/>
</g>
<!-- CourseCopyService -->
<g id="node16" class="node">
<title>CourseCopyService</title>
<ellipse fill="#fdb462" stroke="black" cx="1895" cy="-104" rx="88.04" ry="18"/>
<text text-anchor="middle" x="1895" y="-99.8" font-family="Times,serif" font-size="14.00">CourseCopyService</text>
</g>
<!-- CourseCopyService&#45;&gt;LearnroomModule -->
<g id="edge15" class="edge">
<title>CourseCopyService&#45;&gt;LearnroomModule</title>
<path fill="none" stroke="black" d="M1895,-122.3C1895,-140.27 1895,-165 1895,-165 1895,-165 1269.85,-165 1269.85,-165"/>
<polygon fill="black" stroke="black" points="1269.85,-161.5 1259.85,-165 1269.85,-168.5 1269.85,-161.5"/>
</g>
<!-- CourseGroupRepo -->
<g id="node17" class="node">
<title>CourseGroupRepo</title>
<ellipse fill="#fdb462" stroke="black" cx="1705" cy="-104" rx="83.39" ry="18"/>
<text text-anchor="middle" x="1705" y="-99.8" font-family="Times,serif" font-size="14.00">CourseGroupRepo</text>
</g>
<!-- CourseGroupRepo&#45;&gt;LearnroomModule -->
<g id="edge16" class="edge">
<title>CourseGroupRepo&#45;&gt;LearnroomModule</title>
<path fill="none" stroke="black" d="M1630.42,-112.41C1630.42,-128.27 1630.42,-161 1630.42,-161 1630.42,-161 1269.9,-161 1269.9,-161"/>
<polygon fill="black" stroke="black" points="1269.9,-157.5 1259.9,-161 1269.9,-164.5 1269.9,-157.5"/>
</g>
<!-- CourseGroupService -->
<g id="node18" class="node">
<title>CourseGroupService</title>
<ellipse fill="#fdb462" stroke="black" cx="1512" cy="-104" rx="92.04" ry="18"/>
<text text-anchor="middle" x="1512" y="-99.8" font-family="Times,serif" font-size="14.00">CourseGroupService</text>
</g>
<!-- CourseGroupService&#45;&gt;LearnroomModule -->
<g id="edge17" class="edge">
<title>CourseGroupService&#45;&gt;LearnroomModule</title>
<path fill="none" stroke="black" d="M1427.35,-111.06C1427.35,-125.7 1427.35,-158 1427.35,-158 1427.35,-158 1269.89,-158 1269.89,-158"/>
<polygon fill="black" stroke="black" points="1269.89,-154.5 1259.89,-158 1269.89,-161.5 1269.89,-154.5"/>
</g>
<!-- CourseRepo -->
<g id="node19" class="node">
<title>CourseRepo</title>
<ellipse fill="#fdb462" stroke="black" cx="1343" cy="-104" rx="58.55" ry="18"/>
<text text-anchor="middle" x="1343" y="-99.8" font-family="Times,serif" font-size="14.00">CourseRepo</text>
</g>
<!-- CourseRepo&#45;&gt;LearnroomModule -->
<g id="edge18" class="edge">
<title>CourseRepo&#45;&gt;LearnroomModule</title>
<path fill="none" stroke="black" d="M1362.94,-120.98C1362.94,-135.82 1362.94,-155 1362.94,-155 1362.94,-155 1270.04,-155 1270.04,-155"/>
<polygon fill="black" stroke="black" points="1270.04,-151.5 1260.04,-155 1270.04,-158.5 1270.04,-151.5"/>
</g>
<!-- CourseService -->
<g id="node20" class="node">
<title>CourseService</title>
<ellipse fill="#fdb462" stroke="black" cx="1199" cy="-104" rx="67.19" ry="18"/>
<text text-anchor="middle" x="1199" y="-99.8" font-family="Times,serif" font-size="14.00">CourseService</text>
</g>
<!-- CourseService&#45;&gt;LearnroomModule -->
<g id="edge19" class="edge">
<title>CourseService&#45;&gt;LearnroomModule</title>
<path fill="none" stroke="black" d="M1199,-122.11C1199,-122.11 1199,-140.99 1199,-140.99"/>
<polygon fill="black" stroke="black" points="1195.5,-140.99 1199,-150.99 1202.5,-140.99 1195.5,-140.99"/>
</g>
<!-- DashboardModelMapper -->
<g id="node21" class="node">
<title>DashboardModelMapper</title>
<ellipse fill="#fdb462" stroke="black" cx="1006" cy="-104" rx="108.21" ry="18"/>
<text text-anchor="middle" x="1006" y="-99.8" font-family="Times,serif" font-size="14.00">DashboardModelMapper</text>
</g>
<!-- DashboardModelMapper&#45;&gt;LearnroomModule -->
<g id="edge20" class="edge">
<title>DashboardModelMapper&#45;&gt;LearnroomModule</title>
<path fill="none" stroke="black" d="M1045.14,-120.98C1045.14,-135.82 1045.14,-155 1045.14,-155 1045.14,-155 1128.19,-155 1128.19,-155"/>
<polygon fill="black" stroke="black" points="1128.19,-158.5 1138.19,-155 1128.19,-151.5 1128.19,-158.5"/>
</g>
<!-- RoomsService -->
<g id="node22" class="node">
<title>RoomsService</title>
<ellipse fill="#fdb462" stroke="black" cx="813" cy="-104" rx="67.21" ry="18"/>
<text text-anchor="middle" x="813" y="-99.8" font-family="Times,serif" font-size="14.00">RoomsService</text>
</g>
<!-- RoomsService&#45;&gt;LearnroomModule -->
<g id="edge21" class="edge">
<title>RoomsService&#45;&gt;LearnroomModule</title>
<path fill="none" stroke="black" d="M813,-122.28C813,-137.95 813,-158 813,-158 813,-158 1127.84,-158 1127.84,-158"/>
<polygon fill="black" stroke="black" points="1127.84,-161.5 1137.84,-158 1127.84,-154.5 1127.84,-161.5"/>
</g>
<!-- UserRepo -->
<g id="node23" class="node">
<title>UserRepo</title>
<ellipse fill="#fdb462" stroke="black" cx="678" cy="-104" rx="49.8" ry="18"/>
<text text-anchor="middle" x="678" y="-99.8" font-family="Times,serif" font-size="14.00">UserRepo</text>
</g>
<!-- UserRepo&#45;&gt;LearnroomModule -->
<g id="edge22" class="edge">
<title>UserRepo&#45;&gt;LearnroomModule</title>
<path fill="none" stroke="black" d="M678,-122.04C678,-138.73 678,-161 678,-161 678,-161 1128.22,-161 1128.22,-161"/>
<polygon fill="black" stroke="black" points="1128.22,-164.5 1138.22,-161 1128.21,-157.5 1128.22,-164.5"/>
</g>
</g>
</svg>
