<?xml version="1.0" encoding="UTF-8" standalone="no"?>
<!DOCTYPE svg PUBLIC "-//W3C//DTD SVG 1.1//EN"
 "http://www.w3.org/Graphics/SVG/1.1/DTD/svg11.dtd">
<!-- Generated by graphviz version 5.0.0 (20220707.1540)
 -->
<!-- Title: dependencies Pages: 1 -->
<svg width="4624pt" height="247pt"
 viewBox="0.00 0.00 4624.00 246.80" xmlns="http://www.w3.org/2000/svg" xmlns:xlink="http://www.w3.org/1999/xlink">
<g id="graph0" class="graph" transform="scale(1 1) rotate(0) translate(4 242.8)">
<title>dependencies</title>
<polygon fill="white" stroke="transparent" points="-4,4 -4,-242.8 4620,-242.8 4620,4 -4,4"/>
<text text-anchor="middle" x="2308" y="-8.2" font-family="sans-serif" font-size="14.00">dependencies</text>
<g id="clust1" class="cluster">
<title>cluster_LearnroomModule</title>
<polygon fill="none" stroke="black" stroke-dasharray="1,5" points="8,-32.8 8,-230.8 4608,-230.8 4608,-32.8 8,-32.8"/>
</g>
<g id="clust4" class="cluster">
<title>cluster_LearnroomModule_exports</title>
<polygon fill="none" stroke="black" points="2344,-170.8 2344,-222.8 2611,-222.8 2611,-170.8 2344,-170.8"/>
</g>
<g id="clust3" class="cluster">
<title>cluster_LearnroomModule_imports</title>
<polygon fill="none" stroke="black" points="3897,-40.8 3897,-92.8 4600,-92.8 4600,-40.8 3897,-40.8"/>
</g>
<g id="clust6" class="cluster">
<title>cluster_LearnroomModule_providers</title>
<polygon fill="none" stroke="black" points="16,-40.8 16,-92.8 3889,-92.8 3889,-40.8 16,-40.8"/>
</g>
<!-- AuthorizationModule -->
<g id="node1" class="node">
<title>AuthorizationModule</title>
<polygon fill="#8dd3c7" stroke="black" points="4591.81,-84.8 4588.81,-88.8 4567.81,-88.8 4564.81,-84.8 4454.19,-84.8 4454.19,-48.8 4591.81,-48.8 4591.81,-84.8"/>
<text text-anchor="middle" x="4523" y="-62.6" font-family="Times,serif" font-size="14.00">AuthorizationModule</text>
</g>
<!-- LearnroomModule -->
<g id="node6" class="node">
<title>LearnroomModule</title>
<polygon fill="#8dd3c7" stroke="black" points="2530.75,-149.8 2527.75,-153.8 2506.75,-153.8 2503.75,-149.8 2409.25,-149.8 2409.25,-113.8 2530.75,-113.8 2530.75,-149.8"/>
<text text-anchor="middle" x="2470" y="-127.6" font-family="Times,serif" font-size="14.00">LearnroomModule</text>
</g>
<!-- AuthorizationModule&#45;&gt;LearnroomModule -->
<g id="edge1" class="edge">
<title>AuthorizationModule&#45;&gt;LearnroomModule</title>
<path fill="none" stroke="black" d="M4523,-85.18C4523,-109.08 4523,-147.8 4523,-147.8 4523,-147.8 2540.89,-147.8 2540.89,-147.8"/>
<polygon fill="black" stroke="black" points="2540.89,-144.3 2530.89,-147.8 2540.89,-151.3 2540.89,-144.3"/>
</g>
<!-- CopyHelperModule -->
<g id="node2" class="node">
<title>CopyHelperModule</title>
<polygon fill="#8dd3c7" stroke="black" points="4435.98,-84.8 4432.98,-88.8 4411.98,-88.8 4408.98,-84.8 4308.02,-84.8 4308.02,-48.8 4435.98,-48.8 4435.98,-84.8"/>
<text text-anchor="middle" x="4372" y="-62.6" font-family="Times,serif" font-size="14.00">CopyHelperModule</text>
</g>
<!-- CopyHelperModule&#45;&gt;LearnroomModule -->
<g id="edge2" class="edge">
<title>CopyHelperModule&#45;&gt;LearnroomModule</title>
<path fill="none" stroke="black" d="M4372,-84.89C4372,-107.93 4372,-144.8 4372,-144.8 4372,-144.8 2540.86,-144.8 2540.86,-144.8"/>
<polygon fill="black" stroke="black" points="2540.86,-141.3 2530.86,-144.8 2540.86,-148.3 2540.86,-141.3"/>
</g>
<!-- FilesStorageClientModule -->
<g id="node3" class="node">
<title>FilesStorageClientModule</title>
<polygon fill="#8dd3c7" stroke="black" points="4289.77,-84.8 4286.77,-88.8 4265.77,-88.8 4262.77,-84.8 4126.23,-84.8 4126.23,-48.8 4289.77,-48.8 4289.77,-84.8"/>
<text text-anchor="middle" x="4208" y="-62.6" font-family="Times,serif" font-size="14.00">FilesStorageClientModule</text>
</g>
<!-- FilesStorageClientModule&#45;&gt;LearnroomModule -->
<g id="edge3" class="edge">
<title>FilesStorageClientModule&#45;&gt;LearnroomModule</title>
<path fill="none" stroke="black" d="M4208,-84.81C4208,-107.29 4208,-142.8 4208,-142.8 4208,-142.8 2540.84,-142.8 2540.84,-142.8"/>
<polygon fill="black" stroke="black" points="2540.84,-139.3 2530.84,-142.8 2540.84,-146.3 2540.84,-139.3"/>
</g>
<!-- LessonModule -->
<g id="node4" class="node">
<title>LessonModule</title>
<polygon fill="#8dd3c7" stroke="black" points="4108.71,-84.8 4105.71,-88.8 4084.71,-88.8 4081.71,-84.8 4009.29,-84.8 4009.29,-48.8 4108.71,-48.8 4108.71,-84.8"/>
<text text-anchor="middle" x="4059" y="-62.6" font-family="Times,serif" font-size="14.00">LessonModule</text>
</g>
<!-- LessonModule&#45;&gt;LearnroomModule -->
<g id="edge4" class="edge">
<title>LessonModule&#45;&gt;LearnroomModule</title>
<path fill="none" stroke="black" d="M4059,-84.84C4059,-106.46 4059,-139.8 4059,-139.8 4059,-139.8 2540.83,-139.8 2540.83,-139.8"/>
<polygon fill="black" stroke="black" points="2540.83,-136.3 2530.83,-139.8 2540.83,-143.3 2540.83,-136.3"/>
</g>
<!-- TaskModule -->
<g id="node5" class="node">
<title>TaskModule</title>
<polygon fill="#8dd3c7" stroke="black" points="3991.27,-84.8 3988.27,-88.8 3967.27,-88.8 3964.27,-84.8 3904.73,-84.8 3904.73,-48.8 3991.27,-48.8 3991.27,-84.8"/>
<text text-anchor="middle" x="3948" y="-62.6" font-family="Times,serif" font-size="14.00">TaskModule</text>
</g>
<!-- TaskModule&#45;&gt;LearnroomModule -->
<g id="edge5" class="edge">
<title>TaskModule&#45;&gt;LearnroomModule</title>
<path fill="none" stroke="black" d="M3962.46,-85.08C3962.46,-106.12 3962.46,-137.8 3962.46,-137.8 3962.46,-137.8 2540.82,-137.8 2540.82,-137.8"/>
<polygon fill="black" stroke="black" points="2540.82,-134.3 2530.82,-137.8 2540.82,-141.3 2540.82,-134.3"/>
</g>
<!-- TaskModule&#45;&gt;LearnroomModule -->
<g id="edge6" class="edge">
<title>TaskModule&#45;&gt;LearnroomModule</title>
<path fill="none" stroke="black" d="M3933.54,-85.02C3933.54,-105.17 3933.54,-134.8 3933.54,-134.8 3933.54,-134.8 2541.02,-134.8 2541.02,-134.8"/>
<polygon fill="black" stroke="black" points="2541.02,-131.3 2531.02,-134.8 2541.02,-138.3 2541.02,-131.3"/>
</g>
<!-- CourseCopyService  -->
<g id="node7" class="node">
<title>CourseCopyService </title>
<polygon fill="#fb8072" stroke="black" points="2602.98,-214.8 2471.02,-214.8 2471.02,-178.8 2602.98,-178.8 2602.98,-214.8"/>
<text text-anchor="middle" x="2537" y="-192.6" font-family="Times,serif" font-size="14.00">CourseCopyService </text>
</g>
<!-- LearnroomModule&#45;&gt;CourseCopyService  -->
<g id="edge7" class="edge">
<title>LearnroomModule&#45;&gt;CourseCopyService </title>
<path fill="none" stroke="black" stroke-dasharray="5,2" d="M2501.07,-149.91C2501.07,-149.91 2501.07,-168.79 2501.07,-168.79"/>
<polygon fill="black" stroke="black" points="2497.57,-168.79 2501.07,-178.79 2504.57,-168.79 2497.57,-168.79"/>
</g>
<!-- CourseService  -->
<g id="node8" class="node">
<title>CourseService </title>
<polygon fill="#fb8072" stroke="black" points="2453.64,-214.8 2352.36,-214.8 2352.36,-178.8 2453.64,-178.8 2453.64,-214.8"/>
<text text-anchor="middle" x="2403" y="-192.6" font-family="Times,serif" font-size="14.00">CourseService </text>
</g>
<!-- LearnroomModule&#45;&gt;CourseService  -->
<g id="edge8" class="edge">
<title>LearnroomModule&#45;&gt;CourseService </title>
<path fill="none" stroke="black" stroke-dasharray="5,2" d="M2431.35,-149.91C2431.35,-149.91 2431.35,-168.79 2431.35,-168.79"/>
<polygon fill="black" stroke="black" points="2427.85,-168.79 2431.35,-178.79 2434.85,-168.79 2427.85,-168.79"/>
</g>
<!-- BoardCopyService -->
<g id="node9" class="node">
<title>BoardCopyService</title>
<ellipse fill="#fdb462" stroke="black" cx="3796" cy="-66.8" rx="84.54" ry="18"/>
<text text-anchor="middle" x="3796" y="-62.6" font-family="Times,serif" font-size="14.00">BoardCopyService</text>
</g>
<!-- BoardCopyService&#45;&gt;LearnroomModule -->
<g id="edge9" class="edge">
<title>BoardCopyService&#45;&gt;LearnroomModule</title>
<path fill="none" stroke="black" d="M3796,-84.91C3796,-104.14 3796,-131.8 3796,-131.8 3796,-131.8 2540.86,-131.8 2540.86,-131.8"/>
<polygon fill="black" stroke="black" points="2540.86,-128.3 2530.86,-131.8 2540.86,-135.3 2540.86,-128.3"/>
</g>
<!-- BoardRepo -->
<g id="node10" class="node">
<title>BoardRepo</title>
<ellipse fill="#fdb462" stroke="black" cx="3638" cy="-66.8" rx="55.04" ry="18"/>
<text text-anchor="middle" x="3638" y="-62.6" font-family="Times,serif" font-size="14.00">BoardRepo</text>
</g>
<!-- BoardRepo&#45;&gt;LearnroomModule -->
<g id="edge10" class="edge">
<title>BoardRepo&#45;&gt;LearnroomModule</title>
<path fill="none" stroke="black" d="M3638,-85.02C3638,-103.63 3638,-129.8 3638,-129.8 3638,-129.8 2541.15,-129.8 2541.15,-129.8"/>
<polygon fill="black" stroke="black" points="2541.15,-126.3 2531.15,-129.8 2541.15,-133.3 2541.15,-126.3"/>
</g>
<!-- CommonCartridgeExportService -->
<g id="node11" class="node">
<title>CommonCartridgeExportService</title>
<ellipse fill="#fdb462" stroke="black" cx="3426" cy="-66.8" rx="138.89" ry="18"/>
<text text-anchor="middle" x="3426" y="-62.6" font-family="Times,serif" font-size="14.00">CommonCartridgeExportService</text>
</g>
<!-- CommonCartridgeExportService&#45;&gt;LearnroomModule -->
<g id="edge11" class="edge">
<title>CommonCartridgeExportService&#45;&gt;LearnroomModule</title>
<path fill="none" stroke="black" d="M3426,-84.8C3426,-102.48 3426,-126.8 3426,-126.8 3426,-126.8 2540.89,-126.8 2540.89,-126.8"/>
<polygon fill="black" stroke="black" points="2540.89,-123.3 2530.89,-126.8 2540.89,-130.3 2540.89,-123.3"/>
</g>
<!-- CourseCopyService -->
<g id="node12" class="node">
<title>CourseCopyService</title>
<ellipse fill="#fdb462" stroke="black" cx="3181" cy="-66.8" rx="88.06" ry="18"/>
<text text-anchor="middle" x="3181" y="-62.6" font-family="Times,serif" font-size="14.00">CourseCopyService</text>
</g>
<!-- CourseCopyService&#45;&gt;LearnroomModule -->
<g id="edge12" class="edge">
<title>CourseCopyService&#45;&gt;LearnroomModule</title>
<path fill="none" stroke="black" d="M3181,-84.83C3181,-101.86 3181,-124.8 3181,-124.8 3181,-124.8 2540.93,-124.8 2540.93,-124.8"/>
<polygon fill="black" stroke="black" points="2540.93,-121.3 2530.93,-124.8 2540.93,-128.3 2540.93,-121.3"/>
</g>
<!-- CourseCopyUC -->
<g id="node13" class="node">
<title>CourseCopyUC</title>
<ellipse fill="#fdb462" stroke="black" cx="3002" cy="-66.8" rx="72.97" ry="18"/>
<text text-anchor="middle" x="3002" y="-62.6" font-family="Times,serif" font-size="14.00">CourseCopyUC</text>
</g>
<!-- CourseCopyUC&#45;&gt;LearnroomModule -->
<g id="edge13" class="edge">
<title>CourseCopyUC&#45;&gt;LearnroomModule</title>
<path fill="none" stroke="black" d="M3002,-84.81C3002,-100.85 3002,-121.8 3002,-121.8 3002,-121.8 2540.77,-121.8 2540.77,-121.8"/>
<polygon fill="black" stroke="black" points="2540.77,-118.3 2530.77,-121.8 2540.77,-125.3 2540.77,-118.3"/>
</g>
<!-- CourseExportUc -->
<g id="node14" class="node">
<title>CourseExportUc</title>
<ellipse fill="#fdb462" stroke="black" cx="2835" cy="-66.8" rx="75.88" ry="18"/>
<text text-anchor="middle" x="2835" y="-62.6" font-family="Times,serif" font-size="14.00">CourseExportUc</text>
</g>
<!-- CourseExportUc&#45;&gt;LearnroomModule -->
<g id="edge14" class="edge">
<title>CourseExportUc&#45;&gt;LearnroomModule</title>
<path fill="none" stroke="black" d="M2835,-85.04C2835,-100.37 2835,-119.8 2835,-119.8 2835,-119.8 2541.09,-119.8 2541.09,-119.8"/>
<polygon fill="black" stroke="black" points="2541.09,-116.3 2531.09,-119.8 2541.09,-123.3 2541.09,-116.3"/>
</g>
<!-- CourseRepo -->
<g id="node15" class="node">
<title>CourseRepo</title>
<ellipse fill="#fdb462" stroke="black" cx="2682" cy="-66.8" rx="58.56" ry="18"/>
<text text-anchor="middle" x="2682" y="-62.6" font-family="Times,serif" font-size="14.00">CourseRepo</text>
</g>
<!-- CourseRepo&#45;&gt;LearnroomModule -->
<g id="edge15" class="edge">
<title>CourseRepo&#45;&gt;LearnroomModule</title>
<path fill="none" stroke="black" d="M2682,-84.85C2682,-99.17 2682,-116.8 2682,-116.8 2682,-116.8 2540.75,-116.8 2540.75,-116.8"/>
<polygon fill="black" stroke="black" points="2540.75,-113.3 2530.75,-116.8 2540.75,-120.3 2540.75,-113.3"/>
</g>
<!-- CourseService -->
<g id="node16" class="node">
<title>CourseService</title>
<ellipse fill="#fdb462" stroke="black" cx="2538" cy="-66.8" rx="67.2" ry="18"/>
<text text-anchor="middle" x="2538" y="-62.6" font-family="Times,serif" font-size="14.00">CourseService</text>
</g>
<!-- CourseService&#45;&gt;LearnroomModule -->
<g id="edge16" class="edge">
<title>CourseService&#45;&gt;LearnroomModule</title>
<path fill="none" stroke="black" d="M2500.76,-81.88C2500.76,-81.88 2500.76,-103.56 2500.76,-103.56"/>
<polygon fill="black" stroke="black" points="2497.26,-103.56 2500.76,-113.56 2504.26,-103.56 2497.26,-103.56"/>
</g>
<!-- CourseUc -->
<g id="node17" class="node">
<title>CourseUc</title>
<ellipse fill="#fdb462" stroke="black" cx="2403" cy="-66.8" rx="49.81" ry="18"/>
<text text-anchor="middle" x="2403" y="-62.6" font-family="Times,serif" font-size="14.00">CourseUc</text>
</g>
<!-- CourseUc&#45;&gt;LearnroomModule -->
<g id="edge17" class="edge">
<title>CourseUc&#45;&gt;LearnroomModule</title>
<path fill="none" stroke="black" d="M2430.89,-81.88C2430.89,-81.88 2430.89,-103.56 2430.89,-103.56"/>
<polygon fill="black" stroke="black" points="2427.39,-103.56 2430.89,-113.56 2434.39,-103.56 2427.39,-103.56"/>
</g>
<!-- DashboardModelMapper -->
<g id="node18" class="node">
<title>DashboardModelMapper</title>
<ellipse fill="#fdb462" stroke="black" cx="2227" cy="-66.8" rx="108.23" ry="18"/>
<text text-anchor="middle" x="2227" y="-62.6" font-family="Times,serif" font-size="14.00">DashboardModelMapper</text>
</g>
<!-- DashboardModelMapper&#45;&gt;LearnroomModule -->
<g id="edge18" class="edge">
<title>DashboardModelMapper&#45;&gt;LearnroomModule</title>
<path fill="none" stroke="black" d="M2227,-84.85C2227,-99.17 2227,-116.8 2227,-116.8 2227,-116.8 2398.99,-116.8 2398.99,-116.8"/>
<polygon fill="black" stroke="black" points="2398.99,-120.3 2408.99,-116.8 2398.99,-113.3 2398.99,-120.3"/>
</g>
<!-- DashboardUc -->
<g id="node19" class="node">
<title>DashboardUc</title>
<ellipse fill="#fdb462" stroke="black" cx="2037" cy="-66.8" rx="64.26" ry="18"/>
<text text-anchor="middle" x="2037" y="-62.6" font-family="Times,serif" font-size="14.00">DashboardUc</text>
</g>
<!-- DashboardUc&#45;&gt;LearnroomModule -->
<g id="edge19" class="edge">
<title>DashboardUc&#45;&gt;LearnroomModule</title>
<path fill="none" stroke="black" d="M2037,-85.04C2037,-100.37 2037,-119.8 2037,-119.8 2037,-119.8 2398.88,-119.8 2398.88,-119.8"/>
<polygon fill="black" stroke="black" points="2398.88,-123.3 2408.88,-119.8 2398.88,-116.3 2398.88,-123.3"/>
</g>
<!-- FeathersServiceProvider -->
<g id="node20" class="node">
<title>FeathersServiceProvider</title>
<ellipse fill="#fdb462" stroke="black" cx="1849" cy="-66.8" rx="105.93" ry="18"/>
<text text-anchor="middle" x="1849" y="-62.6" font-family="Times,serif" font-size="14.00">FeathersServiceProvider</text>
</g>
<!-- FeathersServiceProvider&#45;&gt;LearnroomModule -->
<g id="edge20" class="edge">
<title>FeathersServiceProvider&#45;&gt;LearnroomModule</title>
<path fill="none" stroke="black" d="M1849,-84.81C1849,-100.85 1849,-121.8 1849,-121.8 1849,-121.8 2399.04,-121.8 2399.04,-121.8"/>
<polygon fill="black" stroke="black" points="2399.04,-125.3 2409.04,-121.8 2399.04,-118.3 2399.04,-125.3"/>
</g>
<!-- LegacyLogger -->
<g id="node21" class="node">
<title>LegacyLogger</title>
<ellipse fill="#fdb462" stroke="black" cx="1658" cy="-66.8" rx="67.17" ry="18"/>
<text text-anchor="middle" x="1658" y="-62.6" font-family="Times,serif" font-size="14.00">LegacyLogger</text>
</g>
<!-- LegacyLogger&#45;&gt;LearnroomModule -->
<g id="edge21" class="edge">
<title>LegacyLogger&#45;&gt;LearnroomModule</title>
<path fill="none" stroke="black" d="M1658,-84.83C1658,-101.86 1658,-124.8 1658,-124.8 1658,-124.8 2398.97,-124.8 2398.97,-124.8"/>
<polygon fill="black" stroke="black" points="2398.97,-128.3 2408.97,-124.8 2398.97,-121.3 2398.97,-128.3"/>
</g>
<!-- LessonCopyUC -->
<g id="node22" class="node">
<title>LessonCopyUC</title>
<ellipse fill="#fdb462" stroke="black" cx="1500" cy="-66.8" rx="72.97" ry="18"/>
<text text-anchor="middle" x="1500" y="-62.6" font-family="Times,serif" font-size="14.00">LessonCopyUC</text>
</g>
<!-- LessonCopyUC&#45;&gt;LearnroomModule -->
<g id="edge22" class="edge">
<title>LessonCopyUC&#45;&gt;LearnroomModule</title>
<path fill="none" stroke="black" d="M1500,-84.8C1500,-102.48 1500,-126.8 1500,-126.8 1500,-126.8 2398.95,-126.8 2398.95,-126.8"/>
<polygon fill="black" stroke="black" points="2398.95,-130.3 2408.95,-126.8 2398.95,-123.3 2398.95,-130.3"/>
</g>
<!-- LessonRepo -->
<g id="node23" class="node">
<title>LessonRepo</title>
<ellipse fill="#fdb462" stroke="black" cx="1350" cy="-66.8" rx="58.56" ry="18"/>
<text text-anchor="middle" x="1350" y="-62.6" font-family="Times,serif" font-size="14.00">LessonRepo</text>
</g>
<!-- LessonRepo&#45;&gt;LearnroomModule -->
<g id="edge23" class="edge">
<title>LessonRepo&#45;&gt;LearnroomModule</title>
<path fill="none" stroke="black" d="M1350,-85.02C1350,-103.63 1350,-129.8 1350,-129.8 1350,-129.8 2398.99,-129.8 2398.99,-129.8"/>
<polygon fill="black" stroke="black" points="2398.99,-133.3 2408.99,-129.8 2398.99,-126.3 2398.99,-133.3"/>
</g>
<!-- RoomBoardDTOFactory -->
<g id="node24" class="node">
<title>RoomBoardDTOFactory</title>
<ellipse fill="#fdb462" stroke="black" cx="1166" cy="-66.8" rx="107.68" ry="18"/>
<text text-anchor="middle" x="1166" y="-62.6" font-family="Times,serif" font-size="14.00">RoomBoardDTOFactory</text>
</g>
<!-- RoomBoardDTOFactory&#45;&gt;LearnroomModule -->
<g id="edge24" class="edge">
<title>RoomBoardDTOFactory&#45;&gt;LearnroomModule</title>
<path fill="none" stroke="black" d="M1166,-84.91C1166,-104.14 1166,-131.8 1166,-131.8 1166,-131.8 2398.85,-131.8 2398.85,-131.8"/>
<polygon fill="black" stroke="black" points="2398.85,-135.3 2408.85,-131.8 2398.85,-128.3 2398.85,-135.3"/>
</g>
<!-- RoomBoardResponseMapper -->
<g id="node25" class="node">
<title>RoomBoardResponseMapper</title>
<ellipse fill="#fdb462" stroke="black" cx="915" cy="-66.8" rx="125.09" ry="18"/>
<text text-anchor="middle" x="915" y="-62.6" font-family="Times,serif" font-size="14.00">RoomBoardResponseMapper</text>
</g>
<!-- RoomBoardResponseMapper&#45;&gt;LearnroomModule -->
<g id="edge25" class="edge">
<title>RoomBoardResponseMapper&#45;&gt;LearnroomModule</title>
<path fill="none" stroke="black" d="M915,-85.02C915,-105.17 915,-134.8 915,-134.8 915,-134.8 2399.04,-134.8 2399.04,-134.8"/>
<polygon fill="black" stroke="black" points="2399.04,-138.3 2409.04,-134.8 2399.04,-131.3 2399.04,-138.3"/>
</g>
<!-- RoomsAuthorisationService -->
<g id="node26" class="node">
<title>RoomsAuthorisationService</title>
<ellipse fill="#fdb462" stroke="black" cx="651" cy="-66.8" rx="120.44" ry="18"/>
<text text-anchor="middle" x="651" y="-62.6" font-family="Times,serif" font-size="14.00">RoomsAuthorisationService</text>
</g>
<!-- RoomsAuthorisationService&#45;&gt;LearnroomModule -->
<g id="edge26" class="edge">
<title>RoomsAuthorisationService&#45;&gt;LearnroomModule</title>
<path fill="none" stroke="black" d="M651,-85.08C651,-106.12 651,-137.8 651,-137.8 651,-137.8 2399.22,-137.8 2399.22,-137.8"/>
<polygon fill="black" stroke="black" points="2399.22,-141.3 2409.22,-137.8 2399.22,-134.3 2399.22,-141.3"/>
</g>
<!-- RoomsService -->
<g id="node27" class="node">
<title>RoomsService</title>
<ellipse fill="#fdb462" stroke="black" cx="445" cy="-66.8" rx="67.22" ry="18"/>
<text text-anchor="middle" x="445" y="-62.6" font-family="Times,serif" font-size="14.00">RoomsService</text>
</g>
<!-- RoomsService&#45;&gt;LearnroomModule -->
<g id="edge27" class="edge">
<title>RoomsService&#45;&gt;LearnroomModule</title>
<path fill="none" stroke="black" d="M445,-84.84C445,-106.46 445,-139.8 445,-139.8 445,-139.8 2399.12,-139.8 2399.12,-139.8"/>
<polygon fill="black" stroke="black" points="2399.12,-143.3 2409.12,-139.8 2399.12,-136.3 2399.12,-143.3"/>
</g>
<!-- RoomsUc -->
<g id="node28" class="node">
<title>RoomsUc</title>
<ellipse fill="#fdb462" stroke="black" cx="310" cy="-66.8" rx="49.83" ry="18"/>
<text text-anchor="middle" x="310" y="-62.6" font-family="Times,serif" font-size="14.00">RoomsUc</text>
</g>
<!-- RoomsUc&#45;&gt;LearnroomModule -->
<g id="edge28" class="edge">
<title>RoomsUc&#45;&gt;LearnroomModule</title>
<path fill="none" stroke="black" d="M310,-84.81C310,-107.29 310,-142.8 310,-142.8 310,-142.8 2399.12,-142.8 2399.12,-142.8"/>
<polygon fill="black" stroke="black" points="2399.12,-146.3 2409.12,-142.8 2399.12,-139.3 2399.12,-146.3"/>
</g>
<!-- TaskRepo -->
<g id="node29" class="node">
<title>TaskRepo</title>
<ellipse fill="#fdb462" stroke="black" cx="192" cy="-66.8" rx="50.39" ry="18"/>
<text text-anchor="middle" x="192" y="-62.6" font-family="Times,serif" font-size="14.00">TaskRepo</text>
</g>
<!-- TaskRepo&#45;&gt;LearnroomModule -->
<g id="edge29" class="edge">
<title>TaskRepo&#45;&gt;LearnroomModule</title>
<path fill="none" stroke="black" d="M192,-84.89C192,-107.93 192,-144.8 192,-144.8 192,-144.8 2399.07,-144.8 2399.07,-144.8"/>
<polygon fill="black" stroke="black" points="2399.07,-148.3 2409.07,-144.8 2399.07,-141.3 2399.07,-148.3"/>
</g>
<!-- UserRepo -->
<g id="node30" class="node">
<title>UserRepo</title>
<ellipse fill="#fdb462" stroke="black" cx="74" cy="-66.8" rx="49.81" ry="18"/>
<text text-anchor="middle" x="74" y="-62.6" font-family="Times,serif" font-size="14.00">UserRepo</text>
</g>
<!-- UserRepo&#45;&gt;LearnroomModule -->
<g id="edge30" class="edge">
<title>UserRepo&#45;&gt;LearnroomModule</title>
<path fill="none" stroke="black" d="M74,-85.18C74,-109.08 74,-147.8 74,-147.8 74,-147.8 2398.97,-147.8 2398.97,-147.8"/>
<polygon fill="black" stroke="black" points="2398.97,-151.3 2408.97,-147.8 2398.97,-144.3 2398.97,-151.3"/>
</g>
</g>
</svg>
