<?xml version="1.0" encoding="UTF-8" standalone="no"?>
<!DOCTYPE svg PUBLIC "-//W3C//DTD SVG 1.1//EN"
 "http://www.w3.org/Graphics/SVG/1.1/DTD/svg11.dtd">
<!-- Generated by graphviz version 2.47.0 (20210316.0004)
 -->
<!-- Title: dependencies Pages: 1 -->
<svg width="5239pt" height="284pt"
 viewBox="0.00 0.00 5239.00 284.00" xmlns="http://www.w3.org/2000/svg" xmlns:xlink="http://www.w3.org/1999/xlink">
<g id="graph0" class="graph" transform="scale(1 1) rotate(0) translate(4 280)">
<title>dependencies</title>
<polygon fill="white" stroke="transparent" points="-4,4 -4,-280 5235,-280 5235,4 -4,4"/>
<text text-anchor="start" x="2594.51" y="-42.4" font-family="Times-12" font-weight="bold" font-size="14.00">Legend</text>
<polygon fill="#ffffb3" stroke="transparent" points="2381.5,-10 2381.5,-30 2401.5,-30 2401.5,-10 2381.5,-10"/>
<text text-anchor="start" x="2405.13" y="-15.4" font-family="Times-12" font-size="14.00"> &#160;Declarations</text>
<polygon fill="#8dd3c7" stroke="transparent" points="2494.5,-10 2494.5,-30 2514.5,-30 2514.5,-10 2494.5,-10"/>
<text text-anchor="start" x="2518.23" y="-15.4" font-family="Times-12" font-size="14.00"> &#160;Module</text>
<polygon fill="#80b1d3" stroke="transparent" points="2580.5,-10 2580.5,-30 2600.5,-30 2600.5,-10 2580.5,-10"/>
<text text-anchor="start" x="2604.28" y="-15.4" font-family="Times-12" font-size="14.00"> &#160;Bootstrap</text>
<polygon fill="#fdb462" stroke="transparent" points="2677.5,-10 2677.5,-30 2697.5,-30 2697.5,-10 2677.5,-10"/>
<text text-anchor="start" x="2701.17" y="-15.4" font-family="Times-12" font-size="14.00"> &#160;Providers</text>
<polygon fill="#fb8072" stroke="transparent" points="2773.5,-10 2773.5,-30 2793.5,-30 2793.5,-10 2773.5,-10"/>
<text text-anchor="start" x="2797.23" y="-15.4" font-family="Times-12" font-size="14.00"> &#160;Exports</text>
<g id="clust1" class="cluster">
<title>cluster_LearnroomModule</title>
<polygon fill="none" stroke="black" stroke-dasharray="1,5" points="8,-70 8,-268 5223,-268 5223,-70 8,-70"/>
</g>
<g id="clust6" class="cluster">
<title>cluster_LearnroomModule_providers</title>
<polygon fill="none" stroke="black" points="704,-78 704,-130 5215,-130 5215,-78 704,-78"/>
</g>
<g id="clust3" class="cluster">
<title>cluster_LearnroomModule_imports</title>
<polygon fill="none" stroke="black" points="16,-78 16,-130 696,-130 696,-78 16,-78"/>
</g>
<g id="clust4" class="cluster">
<title>cluster_LearnroomModule_exports</title>
<polygon fill="none" stroke="black" points="1693,-208 1693,-260 2957,-260 2957,-208 1693,-208"/>
</g>
<!-- ContextExternalToolModule -->
<g id="node1" class="node">
<title>ContextExternalToolModule</title>
<polygon fill="#8dd3c7" stroke="black" points="687.75,-122 684.75,-126 663.75,-126 660.75,-122 510.25,-122 510.25,-86 687.75,-86 687.75,-122"/>
<text text-anchor="middle" x="599" y="-99.8" font-family="Times,serif" font-size="14.00">ContextExternalToolModule</text>
</g>
<!-- LearnroomModule -->
<g id="node6" class="node">
<title>LearnroomModule</title>
<polygon fill="#8dd3c7" stroke="black" points="2282.74,-187 2279.74,-191 2258.74,-191 2255.74,-187 2161.26,-187 2161.26,-151 2282.74,-151 2282.74,-187"/>
<text text-anchor="middle" x="2222" y="-164.8" font-family="Times,serif" font-size="14.00">LearnroomModule</text>
</g>
<!-- ContextExternalToolModule&#45;&gt;LearnroomModule -->
<g id="edge1" class="edge">
<title>ContextExternalToolModule&#45;&gt;LearnroomModule</title>
<path fill="none" stroke="black" d="M599,-122.11C599,-141.34 599,-169 599,-169 599,-169 2150.85,-169 2150.85,-169"/>
<polygon fill="black" stroke="black" points="2150.85,-172.5 2160.85,-169 2150.85,-165.5 2150.85,-172.5"/>
</g>
<!-- CopyHelperModule -->
<g id="node2" class="node">
<title>CopyHelperModule</title>
<polygon fill="#8dd3c7" stroke="black" points="491.97,-122 488.97,-126 467.97,-126 464.97,-122 364.03,-122 364.03,-86 491.97,-86 491.97,-122"/>
<text text-anchor="middle" x="428" y="-99.8" font-family="Times,serif" font-size="14.00">CopyHelperModule</text>
</g>
<!-- CopyHelperModule&#45;&gt;LearnroomModule -->
<g id="edge2" class="edge">
<title>CopyHelperModule&#45;&gt;LearnroomModule</title>
<path fill="none" stroke="black" d="M428,-122.22C428,-142.37 428,-172 428,-172 428,-172 2151.02,-172 2151.02,-172"/>
<polygon fill="black" stroke="black" points="2151.02,-175.5 2161.02,-172 2151.02,-168.5 2151.02,-175.5"/>
</g>
<!-- LessonModule -->
<g id="node3" class="node">
<title>LessonModule</title>
<polygon fill="#8dd3c7" stroke="black" points="345.71,-122 342.71,-126 321.71,-126 318.71,-122 246.29,-122 246.29,-86 345.71,-86 345.71,-122"/>
<text text-anchor="middle" x="296" y="-99.8" font-family="Times,serif" font-size="14.00">LessonModule</text>
</g>
<!-- LessonModule&#45;&gt;LearnroomModule -->
<g id="edge3" class="edge">
<title>LessonModule&#45;&gt;LearnroomModule</title>
<path fill="none" stroke="black" d="M296,-122.03C296,-142.77 296,-174 296,-174 296,-174 2151.18,-174 2151.18,-174"/>
<polygon fill="black" stroke="black" points="2151.18,-177.5 2161.18,-174 2151.18,-170.5 2151.18,-177.5"/>
</g>
<!-- LoggerModule -->
<g id="node4" class="node">
<title>LoggerModule</title>
<polygon fill="#8dd3c7" stroke="black" points="227.98,-122 224.98,-126 203.98,-126 200.98,-122 128.02,-122 128.02,-86 227.98,-86 227.98,-122"/>
<text text-anchor="middle" x="178" y="-99.8" font-family="Times,serif" font-size="14.00">LoggerModule</text>
</g>
<!-- LoggerModule&#45;&gt;LearnroomModule -->
<g id="edge4" class="edge">
<title>LoggerModule&#45;&gt;LearnroomModule</title>
<path fill="none" stroke="black" d="M178,-122.17C178,-143.5 178,-176 178,-176 178,-176 2151.1,-176 2151.1,-176"/>
<polygon fill="black" stroke="black" points="2151.1,-179.5 2161.1,-176 2151.1,-172.5 2151.1,-179.5"/>
</g>
<!-- TaskModule -->
<g id="node5" class="node">
<title>TaskModule</title>
<polygon fill="#8dd3c7" stroke="black" points="110.26,-122 107.26,-126 86.26,-126 83.26,-122 23.74,-122 23.74,-86 110.26,-86 110.26,-122"/>
<text text-anchor="middle" x="67" y="-99.8" font-family="Times,serif" font-size="14.00">TaskModule</text>
</g>
<!-- TaskModule&#45;&gt;LearnroomModule -->
<g id="edge5" class="edge">
<title>TaskModule&#45;&gt;LearnroomModule</title>
<path fill="none" stroke="black" d="M67,-122.29C67,-144.21 67,-178 67,-178 67,-178 2150.98,-178 2150.98,-178"/>
<polygon fill="black" stroke="black" points="2150.98,-181.5 2160.98,-178 2150.98,-174.5 2150.98,-181.5"/>
</g>
<!-- CommonCartridgeExportService  -->
<g id="node7" class="node">
<title>CommonCartridgeExportService </title>
<polygon fill="#fb8072" stroke="black" points="2949.07,-252 2744.93,-252 2744.93,-216 2949.07,-216 2949.07,-252"/>
<text text-anchor="middle" x="2847" y="-229.8" font-family="Times,serif" font-size="14.00">CommonCartridgeExportService </text>
</g>
<!-- LearnroomModule&#45;&gt;CommonCartridgeExportService  -->
<g id="edge6" class="edge">
<title>LearnroomModule&#45;&gt;CommonCartridgeExportService </title>
<path fill="none" stroke="black" stroke-dasharray="5,2" d="M2282.97,-181C2422.15,-181 2751.29,-181 2751.29,-181 2751.29,-181 2751.29,-205.76 2751.29,-205.76"/>
<polygon fill="black" stroke="black" points="2747.79,-205.76 2751.29,-215.76 2754.79,-205.76 2747.79,-205.76"/>
</g>
<!-- CommonCartridgeImportService  -->
<g id="node8" class="node">
<title>CommonCartridgeImportService </title>
<polygon fill="#fb8072" stroke="black" points="2726.07,-252 2521.93,-252 2521.93,-216 2726.07,-216 2726.07,-252"/>
<text text-anchor="middle" x="2624" y="-229.8" font-family="Times,serif" font-size="14.00">CommonCartridgeImportService </text>
</g>
<!-- LearnroomModule&#45;&gt;CommonCartridgeImportService  -->
<g id="edge7" class="edge">
<title>LearnroomModule&#45;&gt;CommonCartridgeImportService </title>
<path fill="none" stroke="black" stroke-dasharray="5,2" d="M2283,-183C2374.93,-183 2538.37,-183 2538.37,-183 2538.37,-183 2538.37,-205.88 2538.37,-205.88"/>
<polygon fill="black" stroke="black" points="2534.87,-205.88 2538.37,-215.88 2541.87,-205.88 2534.87,-205.88"/>
</g>
<!-- CourseCopyService  -->
<g id="node9" class="node">
<title>CourseCopyService </title>
<polygon fill="#fb8072" stroke="black" points="2503.97,-252 2372.03,-252 2372.03,-216 2503.97,-216 2503.97,-252"/>
<text text-anchor="middle" x="2438" y="-229.8" font-family="Times,serif" font-size="14.00">CourseCopyService </text>
</g>
<!-- LearnroomModule&#45;&gt;CourseCopyService  -->
<g id="edge8" class="edge">
<title>LearnroomModule&#45;&gt;CourseCopyService </title>
<path fill="none" stroke="black" stroke-dasharray="5,2" d="M2282.96,-185C2353.45,-185 2459.91,-185 2459.91,-185 2459.91,-185 2459.91,-205.75 2459.91,-205.75"/>
<polygon fill="black" stroke="black" points="2456.41,-205.75 2459.91,-215.75 2463.41,-205.75 2456.41,-205.75"/>
</g>
<!-- CourseDoService  -->
<g id="node10" class="node">
<title>CourseDoService </title>
<polygon fill="#fb8072" stroke="black" points="2354.24,-252 2235.76,-252 2235.76,-216 2354.24,-216 2354.24,-252"/>
<text text-anchor="middle" x="2295" y="-229.8" font-family="Times,serif" font-size="14.00">CourseDoService </text>
</g>
<!-- LearnroomModule&#45;&gt;CourseDoService  -->
<g id="edge9" class="edge">
<title>LearnroomModule&#45;&gt;CourseDoService </title>
<path fill="none" stroke="black" stroke-dasharray="5,2" d="M2259.38,-187.11C2259.38,-187.11 2259.38,-205.99 2259.38,-205.99"/>
<polygon fill="black" stroke="black" points="2255.88,-205.99 2259.38,-215.99 2262.88,-205.99 2255.88,-205.99"/>
</g>
<!-- CourseGroupService  -->
<g id="node11" class="node">
<title>CourseGroupService </title>
<polygon fill="#fb8072" stroke="black" points="2217.4,-252 2080.6,-252 2080.6,-216 2217.4,-216 2217.4,-252"/>
<text text-anchor="middle" x="2149" y="-229.8" font-family="Times,serif" font-size="14.00">CourseGroupService </text>
</g>
<!-- LearnroomModule&#45;&gt;CourseGroupService  -->
<g id="edge10" class="edge">
<title>LearnroomModule&#45;&gt;CourseGroupService </title>
<path fill="none" stroke="black" stroke-dasharray="5,2" d="M2189.29,-187.11C2189.29,-187.11 2189.29,-205.99 2189.29,-205.99"/>
<polygon fill="black" stroke="black" points="2185.79,-205.99 2189.29,-215.99 2192.79,-205.99 2185.79,-205.99"/>
</g>
<!-- CourseService  -->
<g id="node12" class="node">
<title>CourseService </title>
<polygon fill="#fb8072" stroke="black" points="2062.63,-252 1961.37,-252 1961.37,-216 2062.63,-216 2062.63,-252"/>
<text text-anchor="middle" x="2012" y="-229.8" font-family="Times,serif" font-size="14.00">CourseService </text>
</g>
<!-- LearnroomModule&#45;&gt;CourseService  -->
<g id="edge11" class="edge">
<title>LearnroomModule&#45;&gt;CourseService </title>
<path fill="none" stroke="black" stroke-dasharray="5,2" d="M2161.15,-185C2104.54,-185 2028.86,-185 2028.86,-185 2028.86,-185 2028.86,-205.75 2028.86,-205.75"/>
<polygon fill="black" stroke="black" points="2025.36,-205.75 2028.86,-215.75 2032.36,-205.75 2025.36,-205.75"/>
</g>
<!-- DashboardService  -->
<g id="node13" class="node">
<title>DashboardService </title>
<polygon fill="#fb8072" stroke="black" points="1943.12,-252 1820.88,-252 1820.88,-216 1943.12,-216 1943.12,-252"/>
<text text-anchor="middle" x="1882" y="-229.8" font-family="Times,serif" font-size="14.00">DashboardService </text>
</g>
<!-- LearnroomModule&#45;&gt;DashboardService  -->
<g id="edge12" class="edge">
<title>LearnroomModule&#45;&gt;DashboardService </title>
<path fill="none" stroke="black" stroke-dasharray="5,2" d="M2161.12,-183C2067.35,-183 1898.31,-183 1898.31,-183 1898.31,-183 1898.31,-205.88 1898.31,-205.88"/>
<polygon fill="black" stroke="black" points="1894.81,-205.88 1898.31,-215.88 1901.81,-205.88 1894.81,-205.88"/>
</g>
<!-- RoomsService  -->
<g id="node14" class="node">
<title>RoomsService </title>
<polygon fill="#fb8072" stroke="black" points="1802.65,-252 1701.35,-252 1701.35,-216 1802.65,-216 1802.65,-252"/>
<text text-anchor="middle" x="1752" y="-229.8" font-family="Times,serif" font-size="14.00">RoomsService </text>
</g>
<!-- LearnroomModule&#45;&gt;RoomsService  -->
<g id="edge13" class="edge">
<title>LearnroomModule&#45;&gt;RoomsService </title>
<path fill="none" stroke="black" stroke-dasharray="5,2" d="M2161.04,-181C2033.87,-181 1752,-181 1752,-181 1752,-181 1752,-205.76 1752,-205.76"/>
<polygon fill="black" stroke="black" points="1748.5,-205.76 1752,-215.76 1755.5,-205.76 1748.5,-205.76"/>
</g>
<!-- BoardCopyService -->
<g id="node15" class="node">
<title>BoardCopyService</title>
<ellipse fill="#fdb462" stroke="black" cx="5122" cy="-104" rx="84.53" ry="18"/>
<text text-anchor="middle" x="5122" y="-99.8" font-family="Times,serif" font-size="14.00">BoardCopyService</text>
</g>
<!-- BoardCopyService&#45;&gt;LearnroomModule -->
<g id="edge14" class="edge">
<title>BoardCopyService&#45;&gt;LearnroomModule</title>
<path fill="none" stroke="black" d="M5122,-122.29C5122,-144.21 5122,-178 5122,-178 5122,-178 2292.9,-178 2292.9,-178"/>
<polygon fill="black" stroke="black" points="2292.9,-174.5 2282.9,-178 2292.9,-181.5 2292.9,-174.5"/>
</g>
<!-- BoardNodeRepo -->
<g id="node16" class="node">
<title>BoardNodeRepo</title>
<ellipse fill="#fdb462" stroke="black" cx="4944" cy="-104" rx="75.87" ry="18"/>
<text text-anchor="middle" x="4944" y="-99.8" font-family="Times,serif" font-size="14.00">BoardNodeRepo</text>
</g>
<!-- BoardNodeRepo&#45;&gt;LearnroomModule -->
<g id="edge15" class="edge">
<title>BoardNodeRepo&#45;&gt;LearnroomModule</title>
<path fill="none" stroke="black" d="M4944,-122.17C4944,-143.5 4944,-176 4944,-176 4944,-176 2292.99,-176 2292.99,-176"/>
<polygon fill="black" stroke="black" points="2292.99,-172.5 2282.99,-176 2292.99,-179.5 2292.99,-172.5"/>
</g>
<!-- ColumnBoardNodeRepo -->
<g id="node17" class="node">
<title>ColumnBoardNodeRepo</title>
<ellipse fill="#fdb462" stroke="black" cx="4743" cy="-104" rx="107.11" ry="18"/>
<text text-anchor="middle" x="4743" y="-99.8" font-family="Times,serif" font-size="14.00">ColumnBoardNodeRepo</text>
</g>
<!-- ColumnBoardNodeRepo&#45;&gt;LearnroomModule -->
<g id="edge16" class="edge">
<title>ColumnBoardNodeRepo&#45;&gt;LearnroomModule</title>
<path fill="none" stroke="black" d="M4743,-122.03C4743,-142.77 4743,-174 4743,-174 4743,-174 2292.76,-174 2292.76,-174"/>
<polygon fill="black" stroke="black" points="2292.76,-170.5 2282.76,-174 2292.76,-177.5 2292.76,-170.5"/>
</g>
<!-- CommonCartridgeExportMapper -->
<g id="node18" class="node">
<title>CommonCartridgeExportMapper</title>
<ellipse fill="#fdb462" stroke="black" cx="4478" cy="-104" rx="139.53" ry="18"/>
<text text-anchor="middle" x="4478" y="-99.8" font-family="Times,serif" font-size="14.00">CommonCartridgeExportMapper</text>
</g>
<!-- CommonCartridgeExportMapper&#45;&gt;LearnroomModule -->
<g id="edge17" class="edge">
<title>CommonCartridgeExportMapper&#45;&gt;LearnroomModule</title>
<path fill="none" stroke="black" d="M4478,-122.22C4478,-142.37 4478,-172 4478,-172 4478,-172 2292.93,-172 2292.93,-172"/>
<polygon fill="black" stroke="black" points="2292.93,-168.5 2282.93,-172 2292.93,-175.5 2292.93,-168.5"/>
</g>
<!-- CommonCartridgeExportService -->
<g id="node19" class="node">
<title>CommonCartridgeExportService</title>
<ellipse fill="#fdb462" stroke="black" cx="4182" cy="-104" rx="138.89" ry="18"/>
<text text-anchor="middle" x="4182" y="-99.8" font-family="Times,serif" font-size="14.00">CommonCartridgeExportService</text>
</g>
<!-- CommonCartridgeExportService&#45;&gt;LearnroomModule -->
<g id="edge18" class="edge">
<title>CommonCartridgeExportService&#45;&gt;LearnroomModule</title>
<path fill="none" stroke="black" d="M4182,-122.11C4182,-141.34 4182,-169 4182,-169 4182,-169 2292.81,-169 2292.81,-169"/>
<polygon fill="black" stroke="black" points="2292.81,-165.5 2282.81,-169 2292.81,-172.5 2292.81,-165.5"/>
</g>
<!-- CommonCartridgeFileValidatorPipe -->
<g id="node20" class="node">
<title>CommonCartridgeFileValidatorPipe</title>
<ellipse fill="#fdb462" stroke="black" cx="3873" cy="-104" rx="152.22" ry="18"/>
<text text-anchor="middle" x="3873" y="-99.8" font-family="Times,serif" font-size="14.00">CommonCartridgeFileValidatorPipe</text>
</g>
<!-- CommonCartridgeFileValidatorPipe&#45;&gt;LearnroomModule -->
<g id="edge19" class="edge">
<title>CommonCartridgeFileValidatorPipe&#45;&gt;LearnroomModule</title>
<path fill="none" stroke="black" d="M3873,-122.22C3873,-140.83 3873,-167 3873,-167 3873,-167 2293.21,-167 2293.21,-167"/>
<polygon fill="black" stroke="black" points="2293.21,-163.5 2283.21,-167 2293.21,-170.5 2293.21,-163.5"/>
</g>
<!-- CommonCartridgeImportMapper -->
<g id="node21" class="node">
<title>CommonCartridgeImportMapper</title>
<ellipse fill="#fdb462" stroke="black" cx="3563" cy="-104" rx="139.53" ry="18"/>
<text text-anchor="middle" x="3563" y="-99.8" font-family="Times,serif" font-size="14.00">CommonCartridgeImportMapper</text>
</g>
<!-- CommonCartridgeImportMapper&#45;&gt;LearnroomModule -->
<g id="edge20" class="edge">
<title>CommonCartridgeImportMapper&#45;&gt;LearnroomModule</title>
<path fill="none" stroke="black" d="M3563,-122.3C3563,-140.27 3563,-165 3563,-165 3563,-165 2293.1,-165 2293.1,-165"/>
<polygon fill="black" stroke="black" points="2293.1,-161.5 2283.1,-165 2293.1,-168.5 2293.1,-161.5"/>
</g>
<!-- CommonCartridgeImportService -->
<g id="node22" class="node">
<title>CommonCartridgeImportService</title>
<ellipse fill="#fdb462" stroke="black" cx="3267" cy="-104" rx="138.88" ry="18"/>
<text text-anchor="middle" x="3267" y="-99.8" font-family="Times,serif" font-size="14.00">CommonCartridgeImportService</text>
</g>
<!-- CommonCartridgeImportService&#45;&gt;LearnroomModule -->
<g id="edge21" class="edge">
<title>CommonCartridgeImportService&#45;&gt;LearnroomModule</title>
<path fill="none" stroke="black" d="M3267,-122.02C3267,-139.37 3267,-163 3267,-163 3267,-163 2293.08,-163 2293.08,-163"/>
<polygon fill="black" stroke="black" points="2293.08,-159.5 2283.08,-163 2293.08,-166.5 2293.08,-159.5"/>
</g>
<!-- CourseCopyService -->
<g id="node23" class="node">
<title>CourseCopyService</title>
<ellipse fill="#fdb462" stroke="black" cx="3022" cy="-104" rx="88.04" ry="18"/>
<text text-anchor="middle" x="3022" y="-99.8" font-family="Times,serif" font-size="14.00">CourseCopyService</text>
</g>
<!-- CourseCopyService&#45;&gt;LearnroomModule -->
<g id="edge22" class="edge">
<title>CourseCopyService&#45;&gt;LearnroomModule</title>
<path fill="none" stroke="black" d="M2941.51,-111.79C2941.51,-127.17 2941.51,-160 2941.51,-160 2941.51,-160 2293.03,-160 2293.03,-160"/>
<polygon fill="black" stroke="black" points="2293.03,-156.5 2283.03,-160 2293.03,-163.5 2293.03,-156.5"/>
</g>
<!-- CourseDoService -->
<g id="node24" class="node">
<title>CourseDoService</title>
<ellipse fill="#fdb462" stroke="black" cx="2837" cy="-104" rx="79.29" ry="18"/>
<text text-anchor="middle" x="2837" y="-99.8" font-family="Times,serif" font-size="14.00">CourseDoService</text>
</g>
<!-- CourseDoService&#45;&gt;LearnroomModule -->
<g id="edge23" class="edge">
<title>CourseDoService&#45;&gt;LearnroomModule</title>
<path fill="none" stroke="black" d="M2837,-122.28C2837,-137.95 2837,-158 2837,-158 2837,-158 2292.93,-158 2292.93,-158"/>
<polygon fill="black" stroke="black" points="2292.93,-154.5 2282.93,-158 2292.93,-161.5 2292.93,-154.5"/>
</g>
<!-- CourseGroupRepo -->
<g id="node25" class="node">
<title>CourseGroupRepo</title>
<ellipse fill="#fdb462" stroke="black" cx="2656" cy="-104" rx="83.39" ry="18"/>
<text text-anchor="middle" x="2656" y="-99.8" font-family="Times,serif" font-size="14.00">CourseGroupRepo</text>
</g>
<!-- CourseGroupRepo&#45;&gt;LearnroomModule -->
<g id="edge24" class="edge">
<title>CourseGroupRepo&#45;&gt;LearnroomModule</title>
<path fill="none" stroke="black" d="M2649.42,-122.19C2649.42,-137.18 2649.42,-156 2649.42,-156 2649.42,-156 2292.78,-156 2292.78,-156"/>
<polygon fill="black" stroke="black" points="2292.78,-152.5 2282.78,-156 2292.78,-159.5 2292.78,-152.5"/>
</g>
<!-- CourseGroupService -->
<g id="node26" class="node">
<title>CourseGroupService</title>
<ellipse fill="#fdb462" stroke="black" cx="2463" cy="-104" rx="92.04" ry="18"/>
<text text-anchor="middle" x="2463" y="-99.8" font-family="Times,serif" font-size="14.00">CourseGroupService</text>
</g>
<!-- CourseGroupService&#45;&gt;LearnroomModule -->
<g id="edge25" class="edge">
<title>CourseGroupService&#45;&gt;LearnroomModule</title>
<path fill="none" stroke="black" d="M2416.09,-119.55C2416.09,-134.22 2416.09,-154 2416.09,-154 2416.09,-154 2292.88,-154 2292.88,-154"/>
<polygon fill="black" stroke="black" points="2292.88,-150.5 2282.88,-154 2292.88,-157.5 2292.88,-150.5"/>
</g>
<!-- CourseRepo -->
<g id="node27" class="node">
<title>CourseRepo</title>
<ellipse fill="#fdb462" stroke="black" cx="2294" cy="-104" rx="58.55" ry="18"/>
<text text-anchor="middle" x="2294" y="-99.8" font-family="Times,serif" font-size="14.00">CourseRepo</text>
</g>
<!-- CourseRepo&#45;&gt;LearnroomModule -->
<g id="edge26" class="edge">
<title>CourseRepo&#45;&gt;LearnroomModule</title>
<path fill="none" stroke="black" d="M2259.05,-118.75C2259.05,-118.75 2259.05,-140.59 2259.05,-140.59"/>
<polygon fill="black" stroke="black" points="2255.55,-140.59 2259.05,-150.59 2262.55,-140.59 2255.55,-140.59"/>
</g>
<!-- CourseService -->
<g id="node28" class="node">
<title>CourseService</title>
<ellipse fill="#fdb462" stroke="black" cx="2150" cy="-104" rx="67.19" ry="18"/>
<text text-anchor="middle" x="2150" y="-99.8" font-family="Times,serif" font-size="14.00">CourseService</text>
</g>
<!-- CourseService&#45;&gt;LearnroomModule -->
<g id="edge27" class="edge">
<title>CourseService&#45;&gt;LearnroomModule</title>
<path fill="none" stroke="black" d="M2189.24,-118.75C2189.24,-118.75 2189.24,-140.59 2189.24,-140.59"/>
<polygon fill="black" stroke="black" points="2185.74,-140.59 2189.24,-150.59 2192.74,-140.59 2185.74,-140.59"/>
</g>
<!-- DashboardElementRepo -->
<g id="node29" class="node">
<title>DashboardElementRepo</title>
<ellipse fill="#fdb462" stroke="black" cx="1959" cy="-104" rx="105.36" ry="18"/>
<text text-anchor="middle" x="1959" y="-99.8" font-family="Times,serif" font-size="14.00">DashboardElementRepo</text>
</g>
<!-- DashboardElementRepo&#45;&gt;LearnroomModule -->
<g id="edge28" class="edge">
<title>DashboardElementRepo&#45;&gt;LearnroomModule</title>
<path fill="none" stroke="black" d="M1995.14,-120.93C1995.14,-135.43 1995.14,-154 1995.14,-154 1995.14,-154 2151.21,-154 2151.21,-154"/>
<polygon fill="black" stroke="black" points="2151.21,-157.5 2161.21,-154 2151.21,-150.5 2151.21,-157.5"/>
</g>
<!-- DashboardModelMapper -->
<g id="node30" class="node">
<title>DashboardModelMapper</title>
<ellipse fill="#fdb462" stroke="black" cx="1727" cy="-104" rx="108.21" ry="18"/>
<text text-anchor="middle" x="1727" y="-99.8" font-family="Times,serif" font-size="14.00">DashboardModelMapper</text>
</g>
<!-- DashboardModelMapper&#45;&gt;LearnroomModule -->
<g id="edge29" class="edge">
<title>DashboardModelMapper&#45;&gt;LearnroomModule</title>
<path fill="none" stroke="black" d="M1828.02,-110.8C1828.02,-124.89 1828.02,-156 1828.02,-156 1828.02,-156 2150.87,-156 2150.87,-156"/>
<polygon fill="black" stroke="black" points="2150.87,-159.5 2160.87,-156 2150.87,-152.5 2150.87,-159.5"/>
</g>
<!-- DashboardService -->
<g id="node31" class="node">
<title>DashboardService</title>
<ellipse fill="#fdb462" stroke="black" cx="1519" cy="-104" rx="81.64" ry="18"/>
<text text-anchor="middle" x="1519" y="-99.8" font-family="Times,serif" font-size="14.00">DashboardService</text>
</g>
<!-- DashboardService&#45;&gt;LearnroomModule -->
<g id="edge30" class="edge">
<title>DashboardService&#45;&gt;LearnroomModule</title>
<path fill="none" stroke="black" d="M1519,-122.28C1519,-137.95 1519,-158 1519,-158 1519,-158 2151.15,-158 2151.15,-158"/>
<polygon fill="black" stroke="black" points="2151.15,-161.5 2161.15,-158 2151.15,-154.5 2151.15,-161.5"/>
</g>
<!-- GroupDeletedHandlerService -->
<g id="node32" class="node">
<title>GroupDeletedHandlerService</title>
<ellipse fill="#fdb462" stroke="black" cx="1293" cy="-104" rx="125.58" ry="18"/>
<text text-anchor="middle" x="1293" y="-99.8" font-family="Times,serif" font-size="14.00">GroupDeletedHandlerService</text>
</g>
<!-- GroupDeletedHandlerService&#45;&gt;LearnroomModule -->
<g id="edge31" class="edge">
<title>GroupDeletedHandlerService&#45;&gt;LearnroomModule</title>
<path fill="none" stroke="black" d="M1293,-122.03C1293,-138.4 1293,-160 1293,-160 1293,-160 2151.05,-160 2151.05,-160"/>
<polygon fill="black" stroke="black" points="2151.05,-163.5 2161.05,-160 2151.05,-156.5 2151.05,-163.5"/>
</g>
<!-- LegacyBoardRepo -->
<g id="node33" class="node">
<title>LegacyBoardRepo</title>
<ellipse fill="#fdb462" stroke="black" cx="1066" cy="-104" rx="83.37" ry="18"/>
<text text-anchor="middle" x="1066" y="-99.8" font-family="Times,serif" font-size="14.00">LegacyBoardRepo</text>
</g>
<!-- LegacyBoardRepo&#45;&gt;LearnroomModule -->
<g id="edge32" class="edge">
<title>LegacyBoardRepo&#45;&gt;LearnroomModule</title>
<path fill="none" stroke="black" d="M1066,-122.02C1066,-139.37 1066,-163 1066,-163 1066,-163 2151.07,-163 2151.07,-163"/>
<polygon fill="black" stroke="black" points="2151.07,-166.5 2161.07,-163 2151.07,-159.5 2151.07,-166.5"/>
</g>
<!-- RoomsService -->
<g id="node34" class="node">
<title>RoomsService</title>
<ellipse fill="#fdb462" stroke="black" cx="897" cy="-104" rx="67.21" ry="18"/>
<text text-anchor="middle" x="897" y="-99.8" font-family="Times,serif" font-size="14.00">RoomsService</text>
</g>
<!-- RoomsService&#45;&gt;LearnroomModule -->
<g id="edge33" class="edge">
<title>RoomsService&#45;&gt;LearnroomModule</title>
<path fill="none" stroke="black" d="M897,-122.3C897,-140.27 897,-165 897,-165 897,-165 2151.19,-165 2151.19,-165"/>
<polygon fill="black" stroke="black" points="2151.19,-168.5 2161.19,-165 2151.19,-161.5 2151.19,-168.5"/>
</g>
<!-- UserRepo -->
<g id="node35" class="node">
<title>UserRepo</title>
<ellipse fill="#fdb462" stroke="black" cx="762" cy="-104" rx="49.8" ry="18"/>
<text text-anchor="middle" x="762" y="-99.8" font-family="Times,serif" font-size="14.00">UserRepo</text>
</g>
<!-- UserRepo&#45;&gt;LearnroomModule -->
<g id="edge34" class="edge">
<title>UserRepo&#45;&gt;LearnroomModule</title>
<path fill="none" stroke="black" d="M762,-122.22C762,-140.83 762,-167 762,-167 762,-167 2151.12,-167 2151.12,-167"/>
<polygon fill="black" stroke="black" points="2151.12,-170.5 2161.12,-167 2151.12,-163.5 2151.12,-170.5"/>
</g>
</g>
</svg>
