<?xml version="1.0" encoding="UTF-8" standalone="no"?>
<!DOCTYPE svg PUBLIC "-//W3C//DTD SVG 1.1//EN"
 "http://www.w3.org/Graphics/SVG/1.1/DTD/svg11.dtd">
<!-- Generated by graphviz version 2.47.0 (20210316.0004)
 -->
<!-- Title: dependencies Pages: 1 -->
<svg width="5098pt" height="284pt"
 viewBox="0.00 0.00 5098.00 284.00" xmlns="http://www.w3.org/2000/svg" xmlns:xlink="http://www.w3.org/1999/xlink">
<g id="graph0" class="graph" transform="scale(1 1) rotate(0) translate(4 280)">
<title>dependencies</title>
<polygon fill="white" stroke="transparent" points="-4,4 -4,-280 5094,-280 5094,4 -4,4"/>
<text text-anchor="start" x="2524.01" y="-42.4" font-family="Times-12" font-weight="bold" font-size="14.00">Legend</text>
<polygon fill="#ffffb3" stroke="transparent" points="2311,-10 2311,-30 2331,-30 2331,-10 2311,-10"/>
<text text-anchor="start" x="2334.63" y="-15.4" font-family="Times-12" font-size="14.00"> &#160;Declarations</text>
<polygon fill="#8dd3c7" stroke="transparent" points="2424,-10 2424,-30 2444,-30 2444,-10 2424,-10"/>
<text text-anchor="start" x="2447.73" y="-15.4" font-family="Times-12" font-size="14.00"> &#160;Module</text>
<polygon fill="#80b1d3" stroke="transparent" points="2510,-10 2510,-30 2530,-30 2530,-10 2510,-10"/>
<text text-anchor="start" x="2533.78" y="-15.4" font-family="Times-12" font-size="14.00"> &#160;Bootstrap</text>
<polygon fill="#fdb462" stroke="transparent" points="2607,-10 2607,-30 2627,-30 2627,-10 2607,-10"/>
<text text-anchor="start" x="2630.67" y="-15.4" font-family="Times-12" font-size="14.00"> &#160;Providers</text>
<polygon fill="#fb8072" stroke="transparent" points="2703,-10 2703,-30 2723,-30 2723,-10 2703,-10"/>
<text text-anchor="start" x="2726.73" y="-15.4" font-family="Times-12" font-size="14.00"> &#160;Exports</text>
<g id="clust1" class="cluster">
<title>cluster_LearnroomModule</title>
<polygon fill="none" stroke="black" stroke-dasharray="1,5" points="8,-70 8,-268 5082,-268 5082,-70 8,-70"/>
</g>
<g id="clust6" class="cluster">
<title>cluster_LearnroomModule_providers</title>
<polygon fill="none" stroke="black" points="847,-78 847,-130 5074,-130 5074,-78 847,-78"/>
</g>
<g id="clust3" class="cluster">
<title>cluster_LearnroomModule_imports</title>
<polygon fill="none" stroke="black" points="16,-78 16,-130 839,-130 839,-78 16,-78"/>
</g>
<g id="clust4" class="cluster">
<title>cluster_LearnroomModule_exports</title>
<polygon fill="none" stroke="black" points="1668,-208 1668,-260 2932,-260 2932,-208 1668,-208"/>
</g>
<!-- ContextExternalToolModule -->
<g id="node1" class="node">
<title>ContextExternalToolModule</title>
<polygon fill="#8dd3c7" stroke="black" points="830.75,-122 827.75,-126 806.75,-126 803.75,-122 653.25,-122 653.25,-86 830.75,-86 830.75,-122"/>
<text text-anchor="middle" x="742" y="-99.8" font-family="Times,serif" font-size="14.00">ContextExternalToolModule</text>
</g>
<!-- LearnroomModule -->
<g id="node7" class="node">
<title>LearnroomModule</title>
<polygon fill="#8dd3c7" stroke="black" points="2257.74,-187 2254.74,-191 2233.74,-191 2230.74,-187 2136.26,-187 2136.26,-151 2257.74,-151 2257.74,-187"/>
<text text-anchor="middle" x="2197" y="-164.8" font-family="Times,serif" font-size="14.00">LearnroomModule</text>
</g>
<!-- ContextExternalToolModule&#45;&gt;LearnroomModule -->
<g id="edge1" class="edge">
<title>ContextExternalToolModule&#45;&gt;LearnroomModule</title>
<path fill="none" stroke="black" d="M742,-122.22C742,-140.83 742,-167 742,-167 742,-167 2125.87,-167 2125.87,-167"/>
<polygon fill="black" stroke="black" points="2125.87,-170.5 2135.87,-167 2125.87,-163.5 2125.87,-170.5"/>
</g>
<!-- CopyHelperModule -->
<g id="node2" class="node">
<title>CopyHelperModule</title>
<polygon fill="#8dd3c7" stroke="black" points="634.97,-122 631.97,-126 610.97,-126 607.97,-122 507.03,-122 507.03,-86 634.97,-86 634.97,-122"/>
<text text-anchor="middle" x="571" y="-99.8" font-family="Times,serif" font-size="14.00">CopyHelperModule</text>
</g>
<!-- CopyHelperModule&#45;&gt;LearnroomModule -->
<g id="edge2" class="edge">
<title>CopyHelperModule&#45;&gt;LearnroomModule</title>
<path fill="none" stroke="black" d="M571,-122.11C571,-141.34 571,-169 571,-169 571,-169 2126.23,-169 2126.23,-169"/>
<polygon fill="black" stroke="black" points="2126.23,-172.5 2136.23,-169 2126.23,-165.5 2126.23,-172.5"/>
</g>
<!-- LessonModule -->
<g id="node3" class="node">
<title>LessonModule</title>
<polygon fill="#8dd3c7" stroke="black" points="488.71,-122 485.71,-126 464.71,-126 461.71,-122 389.29,-122 389.29,-86 488.71,-86 488.71,-122"/>
<text text-anchor="middle" x="439" y="-99.8" font-family="Times,serif" font-size="14.00">LessonModule</text>
</g>
<!-- LessonModule&#45;&gt;LearnroomModule -->
<g id="edge3" class="edge">
<title>LessonModule&#45;&gt;LearnroomModule</title>
<path fill="none" stroke="black" d="M439,-122.22C439,-142.37 439,-172 439,-172 439,-172 2126.23,-172 2126.23,-172"/>
<polygon fill="black" stroke="black" points="2126.23,-175.5 2136.23,-172 2126.23,-168.5 2126.23,-175.5"/>
</g>
<!-- LoggerModule -->
<g id="node4" class="node">
<title>LoggerModule</title>
<polygon fill="#8dd3c7" stroke="black" points="370.98,-122 367.98,-126 346.98,-126 343.98,-122 271.02,-122 271.02,-86 370.98,-86 370.98,-122"/>
<text text-anchor="middle" x="321" y="-99.8" font-family="Times,serif" font-size="14.00">LoggerModule</text>
</g>
<!-- LoggerModule&#45;&gt;LearnroomModule -->
<g id="edge4" class="edge">
<title>LoggerModule&#45;&gt;LearnroomModule</title>
<path fill="none" stroke="black" d="M321,-122.03C321,-142.77 321,-174 321,-174 321,-174 2126.18,-174 2126.18,-174"/>
<polygon fill="black" stroke="black" points="2126.18,-177.5 2136.18,-174 2126.18,-170.5 2126.18,-177.5"/>
</g>
<!-- TaskModule -->
<g id="node5" class="node">
<title>TaskModule</title>
<polygon fill="#8dd3c7" stroke="black" points="253.26,-122 250.26,-126 229.26,-126 226.26,-122 166.74,-122 166.74,-86 253.26,-86 253.26,-122"/>
<text text-anchor="middle" x="210" y="-99.8" font-family="Times,serif" font-size="14.00">TaskModule</text>
</g>
<!-- TaskModule&#45;&gt;LearnroomModule -->
<g id="edge5" class="edge">
<title>TaskModule&#45;&gt;LearnroomModule</title>
<path fill="none" stroke="black" d="M210,-122.17C210,-143.5 210,-176 210,-176 210,-176 2126.18,-176 2126.18,-176"/>
<polygon fill="black" stroke="black" points="2126.18,-179.5 2136.18,-176 2126.18,-172.5 2126.18,-179.5"/>
</g>
<!-- ToolConfigModule -->
<g id="node6" class="node">
<title>ToolConfigModule</title>
<polygon fill="#8dd3c7" stroke="black" points="148.38,-122 145.38,-126 124.38,-126 121.38,-122 23.62,-122 23.62,-86 148.38,-86 148.38,-122"/>
<text text-anchor="middle" x="86" y="-99.8" font-family="Times,serif" font-size="14.00">ToolConfigModule</text>
</g>
<!-- ToolConfigModule&#45;&gt;LearnroomModule -->
<g id="edge6" class="edge">
<title>ToolConfigModule&#45;&gt;LearnroomModule</title>
<path fill="none" stroke="black" d="M86,-122.29C86,-144.21 86,-178 86,-178 86,-178 2126.1,-178 2126.1,-178"/>
<polygon fill="black" stroke="black" points="2126.1,-181.5 2136.1,-178 2126.1,-174.5 2126.1,-181.5"/>
</g>
<!-- CommonCartridgeExportService  -->
<g id="node8" class="node">
<title>CommonCartridgeExportService </title>
<polygon fill="#fb8072" stroke="black" points="2924.07,-252 2719.93,-252 2719.93,-216 2924.07,-216 2924.07,-252"/>
<text text-anchor="middle" x="2822" y="-229.8" font-family="Times,serif" font-size="14.00">CommonCartridgeExportService </text>
</g>
<!-- LearnroomModule&#45;&gt;CommonCartridgeExportService  -->
<g id="edge7" class="edge">
<title>LearnroomModule&#45;&gt;CommonCartridgeExportService </title>
<path fill="none" stroke="black" stroke-dasharray="5,2" d="M2257.93,-181C2406.24,-181 2773.96,-181 2773.96,-181 2773.96,-181 2773.96,-205.76 2773.96,-205.76"/>
<polygon fill="black" stroke="black" points="2770.46,-205.76 2773.96,-215.76 2777.46,-205.76 2770.46,-205.76"/>
</g>
<!-- CommonCartridgeImportService  -->
<g id="node9" class="node">
<title>CommonCartridgeImportService </title>
<polygon fill="#fb8072" stroke="black" points="2701.07,-252 2496.93,-252 2496.93,-216 2701.07,-216 2701.07,-252"/>
<text text-anchor="middle" x="2599" y="-229.8" font-family="Times,serif" font-size="14.00">CommonCartridgeImportService </text>
</g>
<!-- LearnroomModule&#45;&gt;CommonCartridgeImportService  -->
<g id="edge8" class="edge">
<title>LearnroomModule&#45;&gt;CommonCartridgeImportService </title>
<path fill="none" stroke="black" stroke-dasharray="5,2" d="M2257.92,-183C2347.78,-183 2505.35,-183 2505.35,-183 2505.35,-183 2505.35,-205.88 2505.35,-205.88"/>
<polygon fill="black" stroke="black" points="2501.85,-205.88 2505.35,-215.88 2508.85,-205.88 2501.85,-205.88"/>
</g>
<!-- CourseCopyService  -->
<g id="node10" class="node">
<title>CourseCopyService </title>
<polygon fill="#fb8072" stroke="black" points="2478.97,-252 2347.03,-252 2347.03,-216 2478.97,-216 2478.97,-252"/>
<text text-anchor="middle" x="2413" y="-229.8" font-family="Times,serif" font-size="14.00">CourseCopyService </text>
</g>
<!-- LearnroomModule&#45;&gt;CourseCopyService  -->
<g id="edge9" class="edge">
<title>LearnroomModule&#45;&gt;CourseCopyService </title>
<path fill="none" stroke="black" stroke-dasharray="5,2" d="M2258.07,-185C2302.1,-185 2353.81,-185 2353.81,-185 2353.81,-185 2353.81,-205.75 2353.81,-205.75"/>
<polygon fill="black" stroke="black" points="2350.31,-205.75 2353.81,-215.75 2357.31,-205.75 2350.31,-205.75"/>
</g>
<!-- CourseDoService  -->
<g id="node11" class="node">
<title>CourseDoService </title>
<polygon fill="#fb8072" stroke="black" points="2329.24,-252 2210.76,-252 2210.76,-216 2329.24,-216 2329.24,-252"/>
<text text-anchor="middle" x="2270" y="-229.8" font-family="Times,serif" font-size="14.00">CourseDoService </text>
</g>
<!-- LearnroomModule&#45;&gt;CourseDoService  -->
<g id="edge10" class="edge">
<title>LearnroomModule&#45;&gt;CourseDoService </title>
<path fill="none" stroke="black" stroke-dasharray="5,2" d="M2234.38,-187.11C2234.38,-187.11 2234.38,-205.99 2234.38,-205.99"/>
<polygon fill="black" stroke="black" points="2230.88,-205.99 2234.38,-215.99 2237.88,-205.99 2230.88,-205.99"/>
</g>
<!-- CourseGroupService  -->
<g id="node12" class="node">
<title>CourseGroupService </title>
<polygon fill="#fb8072" stroke="black" points="2192.4,-252 2055.6,-252 2055.6,-216 2192.4,-216 2192.4,-252"/>
<text text-anchor="middle" x="2124" y="-229.8" font-family="Times,serif" font-size="14.00">CourseGroupService </text>
</g>
<!-- LearnroomModule&#45;&gt;CourseGroupService  -->
<g id="edge11" class="edge">
<title>LearnroomModule&#45;&gt;CourseGroupService </title>
<path fill="none" stroke="black" stroke-dasharray="5,2" d="M2164.29,-187.11C2164.29,-187.11 2164.29,-205.99 2164.29,-205.99"/>
<polygon fill="black" stroke="black" points="2160.79,-205.99 2164.29,-215.99 2167.79,-205.99 2160.79,-205.99"/>
</g>
<!-- CourseService  -->
<g id="node13" class="node">
<title>CourseService </title>
<polygon fill="#fb8072" stroke="black" points="2037.63,-252 1936.37,-252 1936.37,-216 2037.63,-216 2037.63,-252"/>
<text text-anchor="middle" x="1987" y="-229.8" font-family="Times,serif" font-size="14.00">CourseService </text>
</g>
<!-- LearnroomModule&#45;&gt;CourseService  -->
<g id="edge12" class="edge">
<title>LearnroomModule&#45;&gt;CourseService </title>
<path fill="none" stroke="black" stroke-dasharray="5,2" d="M2136.08,-185C2083.88,-185 2017.07,-185 2017.07,-185 2017.07,-185 2017.07,-205.75 2017.07,-205.75"/>
<polygon fill="black" stroke="black" points="2013.57,-205.75 2017.07,-215.75 2020.57,-205.75 2013.57,-205.75"/>
</g>
<!-- DashboardService  -->
<g id="node14" class="node">
<title>DashboardService </title>
<polygon fill="#fb8072" stroke="black" points="1918.12,-252 1795.88,-252 1795.88,-216 1918.12,-216 1918.12,-252"/>
<text text-anchor="middle" x="1857" y="-229.8" font-family="Times,serif" font-size="14.00">DashboardService </text>
</g>
<!-- LearnroomModule&#45;&gt;DashboardService  -->
<g id="edge13" class="edge">
<title>LearnroomModule&#45;&gt;DashboardService </title>
<path fill="none" stroke="black" stroke-dasharray="5,2" d="M2136.21,-183C2038.42,-183 1857,-183 1857,-183 1857,-183 1857,-205.88 1857,-205.88"/>
<polygon fill="black" stroke="black" points="1853.5,-205.88 1857,-215.88 1860.5,-205.88 1853.5,-205.88"/>
</g>
<!-- RoomsService  -->
<g id="node15" class="node">
<title>RoomsService </title>
<polygon fill="#fb8072" stroke="black" points="1777.65,-252 1676.35,-252 1676.35,-216 1777.65,-216 1777.65,-252"/>
<text text-anchor="middle" x="1727" y="-229.8" font-family="Times,serif" font-size="14.00">RoomsService </text>
</g>
<!-- LearnroomModule&#45;&gt;RoomsService  -->
<g id="edge14" class="edge">
<title>LearnroomModule&#45;&gt;RoomsService </title>
<path fill="none" stroke="black" stroke-dasharray="5,2" d="M2136.24,-181C2018.28,-181 1769.73,-181 1769.73,-181 1769.73,-181 1769.73,-205.76 1769.73,-205.76"/>
<polygon fill="black" stroke="black" points="1766.23,-205.76 1769.73,-215.76 1773.23,-205.76 1766.23,-205.76"/>
</g>
<!-- BoardCopyService -->
<g id="node16" class="node">
<title>BoardCopyService</title>
<ellipse fill="#fdb462" stroke="black" cx="4981" cy="-104" rx="84.53" ry="18"/>
<text text-anchor="middle" x="4981" y="-99.8" font-family="Times,serif" font-size="14.00">BoardCopyService</text>
</g>
<!-- BoardCopyService&#45;&gt;LearnroomModule -->
<g id="edge15" class="edge">
<title>BoardCopyService&#45;&gt;LearnroomModule</title>
<path fill="none" stroke="black" d="M4981,-122.29C4981,-144.21 4981,-178 4981,-178 4981,-178 2268.06,-178 2268.06,-178"/>
<polygon fill="black" stroke="black" points="2268.06,-174.5 2258.06,-178 2268.06,-181.5 2268.06,-174.5"/>
</g>
<!-- BoardNodeRepo -->
<g id="node17" class="node">
<title>BoardNodeRepo</title>
<ellipse fill="#fdb462" stroke="black" cx="4803" cy="-104" rx="75.87" ry="18"/>
<text text-anchor="middle" x="4803" y="-99.8" font-family="Times,serif" font-size="14.00">BoardNodeRepo</text>
</g>
<!-- BoardNodeRepo&#45;&gt;LearnroomModule -->
<g id="edge16" class="edge">
<title>BoardNodeRepo&#45;&gt;LearnroomModule</title>
<path fill="none" stroke="black" d="M4803,-122.17C4803,-143.5 4803,-176 4803,-176 4803,-176 2267.9,-176 2267.9,-176"/>
<polygon fill="black" stroke="black" points="2267.9,-172.5 2257.9,-176 2267.9,-179.5 2267.9,-172.5"/>
</g>
<!-- CommonCartridgeExportService -->
<g id="node18" class="node">
<title>CommonCartridgeExportService</title>
<ellipse fill="#fdb462" stroke="black" cx="4570" cy="-104" rx="138.89" ry="18"/>
<text text-anchor="middle" x="4570" y="-99.8" font-family="Times,serif" font-size="14.00">CommonCartridgeExportService</text>
</g>
<!-- CommonCartridgeExportService&#45;&gt;LearnroomModule -->
<g id="edge17" class="edge">
<title>CommonCartridgeExportService&#45;&gt;LearnroomModule</title>
<path fill="none" stroke="black" d="M4570,-122.03C4570,-142.77 4570,-174 4570,-174 4570,-174 2268.04,-174 2268.04,-174"/>
<polygon fill="black" stroke="black" points="2268.04,-170.5 2258.04,-174 2268.04,-177.5 2268.04,-170.5"/>
</g>
<!-- CommonCartridgeFileValidatorPipe -->
<g id="node19" class="node">
<title>CommonCartridgeFileValidatorPipe</title>
<ellipse fill="#fdb462" stroke="black" cx="4261" cy="-104" rx="152.22" ry="18"/>
<text text-anchor="middle" x="4261" y="-99.8" font-family="Times,serif" font-size="14.00">CommonCartridgeFileValidatorPipe</text>
</g>
<!-- CommonCartridgeFileValidatorPipe&#45;&gt;LearnroomModule -->
<g id="edge18" class="edge">
<title>CommonCartridgeFileValidatorPipe&#45;&gt;LearnroomModule</title>
<path fill="none" stroke="black" d="M4261,-122.22C4261,-142.37 4261,-172 4261,-172 4261,-172 2267.93,-172 2267.93,-172"/>
<polygon fill="black" stroke="black" points="2267.93,-168.5 2257.93,-172 2267.93,-175.5 2267.93,-168.5"/>
</g>
<!-- CommonCartridgeImportMapper -->
<g id="node20" class="node">
<title>CommonCartridgeImportMapper</title>
<ellipse fill="#fdb462" stroke="black" cx="3951" cy="-104" rx="139.53" ry="18"/>
<text text-anchor="middle" x="3951" y="-99.8" font-family="Times,serif" font-size="14.00">CommonCartridgeImportMapper</text>
</g>
<!-- CommonCartridgeImportMapper&#45;&gt;LearnroomModule -->
<g id="edge19" class="edge">
<title>CommonCartridgeImportMapper&#45;&gt;LearnroomModule</title>
<path fill="none" stroke="black" d="M3951,-122.11C3951,-141.34 3951,-169 3951,-169 3951,-169 2267.89,-169 2267.89,-169"/>
<polygon fill="black" stroke="black" points="2267.89,-165.5 2257.89,-169 2267.89,-172.5 2267.89,-165.5"/>
</g>
<!-- CommonCartridgeImportService -->
<g id="node21" class="node">
<title>CommonCartridgeImportService</title>
<ellipse fill="#fdb462" stroke="black" cx="3655" cy="-104" rx="138.88" ry="18"/>
<text text-anchor="middle" x="3655" y="-99.8" font-family="Times,serif" font-size="14.00">CommonCartridgeImportService</text>
</g>
<!-- CommonCartridgeImportService&#45;&gt;LearnroomModule -->
<g id="edge20" class="edge">
<title>CommonCartridgeImportService&#45;&gt;LearnroomModule</title>
<path fill="none" stroke="black" d="M3655,-122.22C3655,-140.83 3655,-167 3655,-167 3655,-167 2267.79,-167 2267.79,-167"/>
<polygon fill="black" stroke="black" points="2267.79,-163.5 2257.79,-167 2267.79,-170.5 2267.79,-163.5"/>
</g>
<!-- CommonCartridgeMapper -->
<g id="node22" class="node">
<title>CommonCartridgeMapper</title>
<ellipse fill="#fdb462" stroke="black" cx="3385" cy="-104" rx="113.47" ry="18"/>
<text text-anchor="middle" x="3385" y="-99.8" font-family="Times,serif" font-size="14.00">CommonCartridgeMapper</text>
</g>
<!-- CommonCartridgeMapper&#45;&gt;LearnroomModule -->
<g id="edge21" class="edge">
<title>CommonCartridgeMapper&#45;&gt;LearnroomModule</title>
<path fill="none" stroke="black" d="M3385,-122.3C3385,-140.27 3385,-165 3385,-165 3385,-165 2267.96,-165 2267.96,-165"/>
<polygon fill="black" stroke="black" points="2267.96,-161.5 2257.96,-165 2267.96,-168.5 2267.96,-161.5"/>
</g>
<!-- CourseCopyService -->
<g id="node23" class="node">
<title>CourseCopyService</title>
<ellipse fill="#fdb462" stroke="black" cx="3165" cy="-104" rx="88.04" ry="18"/>
<text text-anchor="middle" x="3165" y="-99.8" font-family="Times,serif" font-size="14.00">CourseCopyService</text>
</g>
<!-- CourseCopyService&#45;&gt;LearnroomModule -->
<g id="edge22" class="edge">
<title>CourseCopyService&#45;&gt;LearnroomModule</title>
<path fill="none" stroke="black" d="M3165,-122.02C3165,-139.37 3165,-163 3165,-163 3165,-163 2267.92,-163 2267.92,-163"/>
<polygon fill="black" stroke="black" points="2267.92,-159.5 2257.92,-163 2267.92,-166.5 2267.92,-159.5"/>
</g>
<!-- CourseDoService -->
<g id="node24" class="node">
<title>CourseDoService</title>
<ellipse fill="#fdb462" stroke="black" cx="2980" cy="-104" rx="79.29" ry="18"/>
<text text-anchor="middle" x="2980" y="-99.8" font-family="Times,serif" font-size="14.00">CourseDoService</text>
</g>
<!-- CourseDoService&#45;&gt;LearnroomModule -->
<g id="edge23" class="edge">
<title>CourseDoService&#45;&gt;LearnroomModule</title>
<path fill="none" stroke="black" d="M2912.57,-113.5C2912.57,-129.48 2912.57,-160 2912.57,-160 2912.57,-160 2268.01,-160 2268.01,-160"/>
<polygon fill="black" stroke="black" points="2268.01,-156.5 2258.01,-160 2268.01,-163.5 2268.01,-156.5"/>
</g>
<!-- CourseGroupRepo -->
<g id="node25" class="node">
<title>CourseGroupRepo</title>
<ellipse fill="#fdb462" stroke="black" cx="2799" cy="-104" rx="83.39" ry="18"/>
<text text-anchor="middle" x="2799" y="-99.8" font-family="Times,serif" font-size="14.00">CourseGroupRepo</text>
</g>
<!-- CourseGroupRepo&#45;&gt;LearnroomModule -->
<g id="edge24" class="edge">
<title>CourseGroupRepo&#45;&gt;LearnroomModule</title>
<path fill="none" stroke="black" d="M2828.2,-121.09C2828.2,-136.91 2828.2,-158 2828.2,-158 2828.2,-158 2267.81,-158 2267.81,-158"/>
<polygon fill="black" stroke="black" points="2267.81,-154.5 2257.81,-158 2267.81,-161.5 2267.81,-154.5"/>
</g>
<!-- CourseGroupService -->
<g id="node26" class="node">
<title>CourseGroupService</title>
<ellipse fill="#fdb462" stroke="black" cx="2606" cy="-104" rx="92.04" ry="18"/>
<text text-anchor="middle" x="2606" y="-99.8" font-family="Times,serif" font-size="14.00">CourseGroupService</text>
</g>
<!-- CourseGroupService&#45;&gt;LearnroomModule -->
<g id="edge25" class="edge">
<title>CourseGroupService&#45;&gt;LearnroomModule</title>
<path fill="none" stroke="black" d="M2606,-122.19C2606,-137.18 2606,-156 2606,-156 2606,-156 2267.79,-156 2267.79,-156"/>
<polygon fill="black" stroke="black" points="2267.79,-152.5 2257.79,-156 2267.79,-159.5 2267.79,-152.5"/>
</g>
<!-- CourseRepo -->
<g id="node27" class="node">
<title>CourseRepo</title>
<ellipse fill="#fdb462" stroke="black" cx="2437" cy="-104" rx="58.55" ry="18"/>
<text text-anchor="middle" x="2437" y="-99.8" font-family="Times,serif" font-size="14.00">CourseRepo</text>
</g>
<!-- CourseRepo&#45;&gt;LearnroomModule -->
<g id="edge26" class="edge">
<title>CourseRepo&#45;&gt;LearnroomModule</title>
<path fill="none" stroke="black" d="M2428.48,-122.05C2428.48,-136.37 2428.48,-154 2428.48,-154 2428.48,-154 2267.82,-154 2267.82,-154"/>
<polygon fill="black" stroke="black" points="2267.82,-150.5 2257.82,-154 2267.82,-157.5 2267.82,-150.5"/>
</g>
<!-- CourseService -->
<g id="node28" class="node">
<title>CourseService</title>
<ellipse fill="#fdb462" stroke="black" cx="2293" cy="-104" rx="67.19" ry="18"/>
<text text-anchor="middle" x="2293" y="-99.8" font-family="Times,serif" font-size="14.00">CourseService</text>
</g>
<!-- CourseService&#45;&gt;LearnroomModule -->
<g id="edge27" class="edge">
<title>CourseService&#45;&gt;LearnroomModule</title>
<path fill="none" stroke="black" d="M2241.76,-115.92C2241.76,-115.92 2241.76,-140.77 2241.76,-140.77"/>
<polygon fill="black" stroke="black" points="2238.26,-140.77 2241.76,-150.77 2245.26,-140.77 2238.26,-140.77"/>
</g>
<!-- DashboardElementRepo -->
<g id="node29" class="node">
<title>DashboardElementRepo</title>
<ellipse fill="#fdb462" stroke="black" cx="2102" cy="-104" rx="105.36" ry="18"/>
<text text-anchor="middle" x="2102" y="-99.8" font-family="Times,serif" font-size="14.00">DashboardElementRepo</text>
</g>
<!-- DashboardElementRepo&#45;&gt;LearnroomModule -->
<g id="edge28" class="edge">
<title>DashboardElementRepo&#45;&gt;LearnroomModule</title>
<path fill="none" stroke="black" d="M2171.78,-117.78C2171.78,-117.78 2171.78,-140.55 2171.78,-140.55"/>
<polygon fill="black" stroke="black" points="2168.28,-140.55 2171.78,-150.55 2175.28,-140.55 2168.28,-140.55"/>
</g>
<!-- DashboardModelMapper -->
<g id="node30" class="node">
<title>DashboardModelMapper</title>
<ellipse fill="#fdb462" stroke="black" cx="1870" cy="-104" rx="108.21" ry="18"/>
<text text-anchor="middle" x="1870" y="-99.8" font-family="Times,serif" font-size="14.00">DashboardModelMapper</text>
</g>
<!-- DashboardModelMapper&#45;&gt;LearnroomModule -->
<g id="edge29" class="edge">
<title>DashboardModelMapper&#45;&gt;LearnroomModule</title>
<path fill="none" stroke="black" d="M1957.27,-115.1C1957.27,-129.83 1957.27,-154 1957.27,-154 1957.27,-154 2126.2,-154 2126.2,-154"/>
<polygon fill="black" stroke="black" points="2126.2,-157.5 2136.2,-154 2126.2,-150.5 2126.2,-157.5"/>
</g>
<!-- DashboardService -->
<g id="node31" class="node">
<title>DashboardService</title>
<ellipse fill="#fdb462" stroke="black" cx="1662" cy="-104" rx="81.64" ry="18"/>
<text text-anchor="middle" x="1662" y="-99.8" font-family="Times,serif" font-size="14.00">DashboardService</text>
</g>
<!-- DashboardService&#45;&gt;LearnroomModule -->
<g id="edge30" class="edge">
<title>DashboardService&#45;&gt;LearnroomModule</title>
<path fill="none" stroke="black" d="M1710.12,-118.76C1710.12,-134.14 1710.12,-156 1710.12,-156 1710.12,-156 2125.83,-156 2125.83,-156"/>
<polygon fill="black" stroke="black" points="2125.83,-159.5 2135.83,-156 2125.83,-152.5 2125.83,-159.5"/>
</g>
<!-- GroupDeletedHandlerService -->
<g id="node32" class="node">
<title>GroupDeletedHandlerService</title>
<ellipse fill="#fdb462" stroke="black" cx="1436" cy="-104" rx="125.58" ry="18"/>
<text text-anchor="middle" x="1436" y="-99.8" font-family="Times,serif" font-size="14.00">GroupDeletedHandlerService</text>
</g>
<!-- GroupDeletedHandlerService&#45;&gt;LearnroomModule -->
<g id="edge31" class="edge">
<title>GroupDeletedHandlerService&#45;&gt;LearnroomModule</title>
<path fill="none" stroke="black" d="M1436,-122.28C1436,-137.95 1436,-158 1436,-158 1436,-158 2126.01,-158 2126.01,-158"/>
<polygon fill="black" stroke="black" points="2126.01,-161.5 2136.01,-158 2126.01,-154.5 2126.01,-161.5"/>
</g>
<!-- LegacyBoardRepo -->
<g id="node33" class="node">
<title>LegacyBoardRepo</title>
<ellipse fill="#fdb462" stroke="black" cx="1209" cy="-104" rx="83.37" ry="18"/>
<text text-anchor="middle" x="1209" y="-99.8" font-family="Times,serif" font-size="14.00">LegacyBoardRepo</text>
</g>
<!-- LegacyBoardRepo&#45;&gt;LearnroomModule -->
<g id="edge32" class="edge">
<title>LegacyBoardRepo&#45;&gt;LearnroomModule</title>
<path fill="none" stroke="black" d="M1209,-122.03C1209,-138.4 1209,-160 1209,-160 1209,-160 2125.94,-160 2125.94,-160"/>
<polygon fill="black" stroke="black" points="2125.94,-163.5 2135.94,-160 2125.94,-156.5 2125.94,-163.5"/>
</g>
<!-- RoomsService -->
<g id="node34" class="node">
<title>RoomsService</title>
<ellipse fill="#fdb462" stroke="black" cx="1040" cy="-104" rx="67.21" ry="18"/>
<text text-anchor="middle" x="1040" y="-99.8" font-family="Times,serif" font-size="14.00">RoomsService</text>
</g>
<!-- RoomsService&#45;&gt;LearnroomModule -->
<g id="edge33" class="edge">
<title>RoomsService&#45;&gt;LearnroomModule</title>
<path fill="none" stroke="black" d="M1040,-122.02C1040,-139.37 1040,-163 1040,-163 1040,-163 2126.02,-163 2126.02,-163"/>
<polygon fill="black" stroke="black" points="2126.02,-166.5 2136.02,-163 2126.02,-159.5 2126.02,-166.5"/>
</g>
<!-- UserRepo -->
<g id="node35" class="node">
<title>UserRepo</title>
<ellipse fill="#fdb462" stroke="black" cx="905" cy="-104" rx="49.8" ry="18"/>
<text text-anchor="middle" x="905" y="-99.8" font-family="Times,serif" font-size="14.00">UserRepo</text>
</g>
<!-- UserRepo&#45;&gt;LearnroomModule -->
<g id="edge34" class="edge">
<title>UserRepo&#45;&gt;LearnroomModule</title>
<path fill="none" stroke="black" d="M905,-122.3C905,-140.27 905,-165 905,-165 905,-165 2125.99,-165 2125.99,-165"/>
<polygon fill="black" stroke="black" points="2125.99,-168.5 2135.99,-165 2125.99,-161.5 2125.99,-168.5"/>
</g>
</g>
</svg>
