<?xml version="1.0" encoding="UTF-8" standalone="no"?>
<!DOCTYPE svg PUBLIC "-//W3C//DTD SVG 1.1//EN"
 "http://www.w3.org/Graphics/SVG/1.1/DTD/svg11.dtd">
<!-- Generated by graphviz version 2.47.0 (20210316.0004)
 -->
<!-- Title: dependencies Pages: 1 -->
<svg width="4624pt" height="284pt"
 viewBox="0.00 0.00 4624.00 284.00" xmlns="http://www.w3.org/2000/svg" xmlns:xlink="http://www.w3.org/1999/xlink">
<g id="graph0" class="graph" transform="scale(1 1) rotate(0) translate(4 280)">
<title>dependencies</title>
<polygon fill="white" stroke="transparent" points="-4,4 -4,-280 4620,-280 4620,4 -4,4"/>
<text text-anchor="start" x="2287.01" y="-42.4" font-family="Times-12" font-weight="bold" font-size="14.00">Legend</text>
<polygon fill="#ffffb3" stroke="transparent" points="2074,-10 2074,-30 2094,-30 2094,-10 2074,-10"/>
<text text-anchor="start" x="2097.63" y="-15.4" font-family="Times-12" font-size="14.00"> &#160;Declarations</text>
<polygon fill="#8dd3c7" stroke="transparent" points="2187,-10 2187,-30 2207,-30 2207,-10 2187,-10"/>
<text text-anchor="start" x="2210.73" y="-15.4" font-family="Times-12" font-size="14.00"> &#160;Module</text>
<polygon fill="#80b1d3" stroke="transparent" points="2273,-10 2273,-30 2293,-30 2293,-10 2273,-10"/>
<text text-anchor="start" x="2296.78" y="-15.4" font-family="Times-12" font-size="14.00"> &#160;Bootstrap</text>
<polygon fill="#fdb462" stroke="transparent" points="2370,-10 2370,-30 2390,-30 2390,-10 2370,-10"/>
<text text-anchor="start" x="2393.67" y="-15.4" font-family="Times-12" font-size="14.00"> &#160;Providers</text>
<polygon fill="#fb8072" stroke="transparent" points="2466,-10 2466,-30 2486,-30 2486,-10 2466,-10"/>
<text text-anchor="start" x="2489.73" y="-15.4" font-family="Times-12" font-size="14.00"> &#160;Exports</text>
<g id="clust1" class="cluster">
<title>cluster_LearnroomModule</title>
<polygon fill="none" stroke="black" stroke-dasharray="1,5" points="8,-70 8,-268 4608,-268 4608,-70 8,-70"/>
</g>
<g id="clust3" class="cluster">
<title>cluster_LearnroomModule_imports</title>
<polygon fill="none" stroke="black" points="3897,-78 3897,-130 4600,-130 4600,-78 3897,-78"/>
</g>
<g id="clust4" class="cluster">
<title>cluster_LearnroomModule_exports</title>
<polygon fill="none" stroke="black" points="2344,-208 2344,-260 2611,-260 2611,-208 2344,-208"/>
</g>
<g id="clust6" class="cluster">
<title>cluster_LearnroomModule_providers</title>
<polygon fill="none" stroke="black" points="16,-78 16,-130 3889,-130 3889,-78 16,-78"/>
</g>
<!-- AuthorizationModule -->
<g id="node1" class="node">
<title>AuthorizationModule</title>
<polygon fill="#8dd3c7" stroke="black" points="4591.81,-122 4588.81,-126 4567.81,-126 4564.81,-122 4454.19,-122 4454.19,-86 4591.81,-86 4591.81,-122"/>
<text text-anchor="middle" x="4523" y="-99.8" font-family="Times,serif" font-size="14.00">AuthorizationModule</text>
</g>
<!-- LearnroomModule -->
<g id="node6" class="node">
<title>LearnroomModule</title>
<polygon fill="#8dd3c7" stroke="black" points="2530.74,-187 2527.74,-191 2506.74,-191 2503.74,-187 2409.26,-187 2409.26,-151 2530.74,-151 2530.74,-187"/>
<text text-anchor="middle" x="2470" y="-164.8" font-family="Times,serif" font-size="14.00">LearnroomModule</text>
</g>
<!-- AuthorizationModule&#45;&gt;LearnroomModule -->
<g id="edge1" class="edge">
<title>AuthorizationModule&#45;&gt;LearnroomModule</title>
<path fill="none" stroke="black" d="M4523,-122.38C4523,-146.28 4523,-185 4523,-185 4523,-185 2540.89,-185 2540.89,-185"/>
<polygon fill="black" stroke="black" points="2540.89,-181.5 2530.89,-185 2540.89,-188.5 2540.89,-181.5"/>
</g>
<!-- CopyHelperModule -->
<g id="node2" class="node">
<title>CopyHelperModule</title>
<polygon fill="#8dd3c7" stroke="black" points="4435.97,-122 4432.97,-126 4411.97,-126 4408.97,-122 4308.03,-122 4308.03,-86 4435.97,-86 4435.97,-122"/>
<text text-anchor="middle" x="4372" y="-99.8" font-family="Times,serif" font-size="14.00">CopyHelperModule</text>
</g>
<!-- CopyHelperModule&#45;&gt;LearnroomModule -->
<g id="edge2" class="edge">
<title>CopyHelperModule&#45;&gt;LearnroomModule</title>
<path fill="none" stroke="black" d="M4372,-122.09C4372,-145.13 4372,-182 4372,-182 4372,-182 2540.86,-182 2540.86,-182"/>
<polygon fill="black" stroke="black" points="2540.86,-178.5 2530.86,-182 2540.86,-185.5 2540.86,-178.5"/>
</g>
<!-- FilesStorageClientModule -->
<g id="node3" class="node">
<title>FilesStorageClientModule</title>
<polygon fill="#8dd3c7" stroke="black" points="4289.76,-122 4286.76,-126 4265.76,-126 4262.76,-122 4126.24,-122 4126.24,-86 4289.76,-86 4289.76,-122"/>
<text text-anchor="middle" x="4208" y="-99.8" font-family="Times,serif" font-size="14.00">FilesStorageClientModule</text>
</g>
<!-- FilesStorageClientModule&#45;&gt;LearnroomModule -->
<g id="edge3" class="edge">
<title>FilesStorageClientModule&#45;&gt;LearnroomModule</title>
<path fill="none" stroke="black" d="M4208,-122.01C4208,-144.49 4208,-180 4208,-180 4208,-180 2540.84,-180 2540.84,-180"/>
<polygon fill="black" stroke="black" points="2540.84,-176.5 2530.84,-180 2540.84,-183.5 2540.84,-176.5"/>
</g>
<!-- LessonModule -->
<g id="node4" class="node">
<title>LessonModule</title>
<polygon fill="#8dd3c7" stroke="black" points="4108.71,-122 4105.71,-126 4084.71,-126 4081.71,-122 4009.29,-122 4009.29,-86 4108.71,-86 4108.71,-122"/>
<text text-anchor="middle" x="4059" y="-99.8" font-family="Times,serif" font-size="14.00">LessonModule</text>
</g>
<!-- LessonModule&#45;&gt;LearnroomModule -->
<g id="edge4" class="edge">
<title>LessonModule&#45;&gt;LearnroomModule</title>
<path fill="none" stroke="black" d="M4059,-122.04C4059,-143.66 4059,-177 4059,-177 4059,-177 2540.83,-177 2540.83,-177"/>
<polygon fill="black" stroke="black" points="2540.83,-173.5 2530.83,-177 2540.83,-180.5 2540.83,-173.5"/>
</g>
<!-- TaskModule -->
<g id="node5" class="node">
<title>TaskModule</title>
<polygon fill="#8dd3c7" stroke="black" points="3991.26,-122 3988.26,-126 3967.26,-126 3964.26,-122 3904.74,-122 3904.74,-86 3991.26,-86 3991.26,-122"/>
<text text-anchor="middle" x="3948" y="-99.8" font-family="Times,serif" font-size="14.00">TaskModule</text>
</g>
<!-- TaskModule&#45;&gt;LearnroomModule -->
<g id="edge5" class="edge">
<title>TaskModule&#45;&gt;LearnroomModule</title>
<path fill="none" stroke="black" d="M3962.46,-122.28C3962.46,-143.32 3962.46,-175 3962.46,-175 3962.46,-175 2540.82,-175 2540.82,-175"/>
<polygon fill="black" stroke="black" points="2540.82,-171.5 2530.82,-175 2540.82,-178.5 2540.82,-171.5"/>
</g>
<!-- TaskModule&#45;&gt;LearnroomModule -->
<g id="edge6" class="edge">
<title>TaskModule&#45;&gt;LearnroomModule</title>
<path fill="none" stroke="black" d="M3933.54,-122.22C3933.54,-142.37 3933.54,-172 3933.54,-172 3933.54,-172 2541.02,-172 2541.02,-172"/>
<polygon fill="black" stroke="black" points="2541.02,-168.5 2531.02,-172 2541.02,-175.5 2541.02,-168.5"/>
</g>
<!-- CourseCopyService  -->
<g id="node7" class="node">
<title>CourseCopyService </title>
<polygon fill="#fb8072" stroke="black" points="2602.97,-252 2471.03,-252 2471.03,-216 2602.97,-216 2602.97,-252"/>
<text text-anchor="middle" x="2537" y="-229.8" font-family="Times,serif" font-size="14.00">CourseCopyService </text>
</g>
<!-- LearnroomModule&#45;&gt;CourseCopyService  -->
<g id="edge7" class="edge">
<title>LearnroomModule&#45;&gt;CourseCopyService </title>
<path fill="none" stroke="black" stroke-dasharray="5,2" d="M2501.07,-187.11C2501.07,-187.11 2501.07,-205.99 2501.07,-205.99"/>
<polygon fill="black" stroke="black" points="2497.57,-205.99 2501.07,-215.99 2504.57,-205.99 2497.57,-205.99"/>
</g>
<!-- CourseService  -->
<g id="node8" class="node">
<title>CourseService </title>
<polygon fill="#fb8072" stroke="black" points="2453.63,-252 2352.37,-252 2352.37,-216 2453.63,-216 2453.63,-252"/>
<text text-anchor="middle" x="2403" y="-229.8" font-family="Times,serif" font-size="14.00">CourseService </text>
</g>
<!-- LearnroomModule&#45;&gt;CourseService  -->
<g id="edge8" class="edge">
<title>LearnroomModule&#45;&gt;CourseService </title>
<path fill="none" stroke="black" stroke-dasharray="5,2" d="M2431.35,-187.11C2431.35,-187.11 2431.35,-205.99 2431.35,-205.99"/>
<polygon fill="black" stroke="black" points="2427.85,-205.99 2431.35,-215.99 2434.85,-205.99 2427.85,-205.99"/>
</g>
<!-- BoardCopyService -->
<g id="node9" class="node">
<title>BoardCopyService</title>
<ellipse fill="#fdb462" stroke="black" cx="3796" cy="-104" rx="84.53" ry="18"/>
<text text-anchor="middle" x="3796" y="-99.8" font-family="Times,serif" font-size="14.00">BoardCopyService</text>
</g>
<!-- BoardCopyService&#45;&gt;LearnroomModule -->
<g id="edge9" class="edge">
<title>BoardCopyService&#45;&gt;LearnroomModule</title>
<path fill="none" stroke="black" d="M3796,-122.11C3796,-141.34 3796,-169 3796,-169 3796,-169 2540.86,-169 2540.86,-169"/>
<polygon fill="black" stroke="black" points="2540.86,-165.5 2530.86,-169 2540.86,-172.5 2540.86,-165.5"/>
</g>
<!-- BoardRepo -->
<g id="node10" class="node">
<title>BoardRepo</title>
<ellipse fill="#fdb462" stroke="black" cx="3638" cy="-104" rx="55.04" ry="18"/>
<text text-anchor="middle" x="3638" y="-99.8" font-family="Times,serif" font-size="14.00">BoardRepo</text>
</g>
<!-- BoardRepo&#45;&gt;LearnroomModule -->
<g id="edge10" class="edge">
<title>BoardRepo&#45;&gt;LearnroomModule</title>
<path fill="none" stroke="black" d="M3638,-122.22C3638,-140.83 3638,-167 3638,-167 3638,-167 2540.74,-167 2540.74,-167"/>
<polygon fill="black" stroke="black" points="2540.74,-163.5 2530.74,-167 2540.74,-170.5 2540.74,-163.5"/>
</g>
<!-- CommonCartridgeExportService -->
<g id="node11" class="node">
<title>CommonCartridgeExportService</title>
<ellipse fill="#fdb462" stroke="black" cx="3426" cy="-104" rx="138.89" ry="18"/>
<text text-anchor="middle" x="3426" y="-99.8" font-family="Times,serif" font-size="14.00">CommonCartridgeExportService</text>
</g>
<!-- CommonCartridgeExportService&#45;&gt;LearnroomModule -->
<g id="edge11" class="edge">
<title>CommonCartridgeExportService&#45;&gt;LearnroomModule</title>
<path fill="none" stroke="black" d="M3426,-122C3426,-139.68 3426,-164 3426,-164 3426,-164 2540.89,-164 2540.89,-164"/>
<polygon fill="black" stroke="black" points="2540.89,-160.5 2530.89,-164 2540.89,-167.5 2540.89,-160.5"/>
</g>
<!-- CourseCopyService -->
<g id="node12" class="node">
<title>CourseCopyService</title>
<ellipse fill="#fdb462" stroke="black" cx="3181" cy="-104" rx="88.04" ry="18"/>
<text text-anchor="middle" x="3181" y="-99.8" font-family="Times,serif" font-size="14.00">CourseCopyService</text>
</g>
<!-- CourseCopyService&#45;&gt;LearnroomModule -->
<g id="edge12" class="edge">
<title>CourseCopyService&#45;&gt;LearnroomModule</title>
<path fill="none" stroke="black" d="M3181,-122.03C3181,-139.06 3181,-162 3181,-162 3181,-162 2540.93,-162 2540.93,-162"/>
<polygon fill="black" stroke="black" points="2540.93,-158.5 2530.93,-162 2540.93,-165.5 2540.93,-158.5"/>
</g>
<!-- CourseCopyUC -->
<g id="node13" class="node">
<title>CourseCopyUC</title>
<ellipse fill="#fdb462" stroke="black" cx="3002" cy="-104" rx="72.96" ry="18"/>
<text text-anchor="middle" x="3002" y="-99.8" font-family="Times,serif" font-size="14.00">CourseCopyUC</text>
</g>
<!-- CourseCopyUC&#45;&gt;LearnroomModule -->
<g id="edge13" class="edge">
<title>CourseCopyUC&#45;&gt;LearnroomModule</title>
<path fill="none" stroke="black" d="M3002,-122.01C3002,-138.05 3002,-159 3002,-159 3002,-159 2540.77,-159 2540.77,-159"/>
<polygon fill="black" stroke="black" points="2540.77,-155.5 2530.77,-159 2540.77,-162.5 2540.77,-155.5"/>
</g>
<!-- CourseExportUc -->
<g id="node14" class="node">
<title>CourseExportUc</title>
<ellipse fill="#fdb462" stroke="black" cx="2835" cy="-104" rx="75.86" ry="18"/>
<text text-anchor="middle" x="2835" y="-99.8" font-family="Times,serif" font-size="14.00">CourseExportUc</text>
</g>
<!-- CourseExportUc&#45;&gt;LearnroomModule -->
<g id="edge14" class="edge">
<title>CourseExportUc&#45;&gt;LearnroomModule</title>
<path fill="none" stroke="black" d="M2835,-122.24C2835,-137.57 2835,-157 2835,-157 2835,-157 2541.09,-157 2541.09,-157"/>
<polygon fill="black" stroke="black" points="2541.09,-153.5 2531.09,-157 2541.09,-160.5 2541.09,-153.5"/>
</g>
<!-- CourseRepo -->
<g id="node15" class="node">
<title>CourseRepo</title>
<ellipse fill="#fdb462" stroke="black" cx="2682" cy="-104" rx="58.55" ry="18"/>
<text text-anchor="middle" x="2682" y="-99.8" font-family="Times,serif" font-size="14.00">CourseRepo</text>
</g>
<!-- CourseRepo&#45;&gt;LearnroomModule -->
<g id="edge15" class="edge">
<title>CourseRepo&#45;&gt;LearnroomModule</title>
<path fill="none" stroke="black" d="M2682,-122.05C2682,-136.37 2682,-154 2682,-154 2682,-154 2540.75,-154 2540.75,-154"/>
<polygon fill="black" stroke="black" points="2540.75,-150.5 2530.75,-154 2540.75,-157.5 2540.75,-150.5"/>
</g>
<!-- CourseService -->
<g id="node16" class="node">
<title>CourseService</title>
<ellipse fill="#fdb462" stroke="black" cx="2538" cy="-104" rx="67.19" ry="18"/>
<text text-anchor="middle" x="2538" y="-99.8" font-family="Times,serif" font-size="14.00">CourseService</text>
</g>
<!-- CourseService&#45;&gt;LearnroomModule -->
<g id="edge16" class="edge">
<title>CourseService&#45;&gt;LearnroomModule</title>
<path fill="none" stroke="black" d="M2500.76,-119.08C2500.76,-119.08 2500.76,-140.76 2500.76,-140.76"/>
<polygon fill="black" stroke="black" points="2497.26,-140.76 2500.76,-150.76 2504.26,-140.76 2497.26,-140.76"/>
</g>
<!-- CourseUc -->
<g id="node17" class="node">
<title>CourseUc</title>
<ellipse fill="#fdb462" stroke="black" cx="2403" cy="-104" rx="49.8" ry="18"/>
<text text-anchor="middle" x="2403" y="-99.8" font-family="Times,serif" font-size="14.00">CourseUc</text>
</g>
<!-- CourseUc&#45;&gt;LearnroomModule -->
<g id="edge17" class="edge">
<title>CourseUc&#45;&gt;LearnroomModule</title>
<path fill="none" stroke="black" d="M2430.89,-119.08C2430.89,-119.08 2430.89,-140.76 2430.89,-140.76"/>
<polygon fill="black" stroke="black" points="2427.39,-140.76 2430.89,-150.76 2434.39,-140.76 2427.39,-140.76"/>
</g>
<!-- DashboardModelMapper -->
<g id="node18" class="node">
<title>DashboardModelMapper</title>
<ellipse fill="#fdb462" stroke="black" cx="2227" cy="-104" rx="108.21" ry="18"/>
<text text-anchor="middle" x="2227" y="-99.8" font-family="Times,serif" font-size="14.00">DashboardModelMapper</text>
</g>
<!-- DashboardModelMapper&#45;&gt;LearnroomModule -->
<g id="edge18" class="edge">
<title>DashboardModelMapper&#45;&gt;LearnroomModule</title>
<path fill="none" stroke="black" d="M2227,-122.05C2227,-136.37 2227,-154 2227,-154 2227,-154 2398.99,-154 2398.99,-154"/>
<polygon fill="black" stroke="black" points="2398.99,-157.5 2408.99,-154 2398.99,-150.5 2398.99,-157.5"/>
</g>
<!-- DashboardUc -->
<g id="node19" class="node">
<title>DashboardUc</title>
<ellipse fill="#fdb462" stroke="black" cx="2037" cy="-104" rx="64.25" ry="18"/>
<text text-anchor="middle" x="2037" y="-99.8" font-family="Times,serif" font-size="14.00">DashboardUc</text>
</g>
<!-- DashboardUc&#45;&gt;LearnroomModule -->
<g id="edge19" class="edge">
<title>DashboardUc&#45;&gt;LearnroomModule</title>
<path fill="none" stroke="black" d="M2037,-122.24C2037,-137.57 2037,-157 2037,-157 2037,-157 2398.88,-157 2398.88,-157"/>
<polygon fill="black" stroke="black" points="2398.88,-160.5 2408.88,-157 2398.88,-153.5 2398.88,-160.5"/>
</g>
<!-- FeathersServiceProvider -->
<g id="node20" class="node">
<title>FeathersServiceProvider</title>
<ellipse fill="#fdb462" stroke="black" cx="1849" cy="-104" rx="105.91" ry="18"/>
<text text-anchor="middle" x="1849" y="-99.8" font-family="Times,serif" font-size="14.00">FeathersServiceProvider</text>
</g>
<!-- FeathersServiceProvider&#45;&gt;LearnroomModule -->
<g id="edge20" class="edge">
<title>FeathersServiceProvider&#45;&gt;LearnroomModule</title>
<path fill="none" stroke="black" d="M1849,-122.01C1849,-138.05 1849,-159 1849,-159 1849,-159 2399.04,-159 2399.04,-159"/>
<polygon fill="black" stroke="black" points="2399.04,-162.5 2409.04,-159 2399.04,-155.5 2399.04,-162.5"/>
</g>
<!-- LegacyLogger -->
<g id="node21" class="node">
<title>LegacyLogger</title>
<ellipse fill="#fdb462" stroke="black" cx="1658" cy="-104" rx="67.18" ry="18"/>
<text text-anchor="middle" x="1658" y="-99.8" font-family="Times,serif" font-size="14.00">LegacyLogger</text>
</g>
<!-- LegacyLogger&#45;&gt;LearnroomModule -->
<g id="edge21" class="edge">
<title>LegacyLogger&#45;&gt;LearnroomModule</title>
<path fill="none" stroke="black" d="M1658,-122.03C1658,-139.06 1658,-162 1658,-162 1658,-162 2398.97,-162 2398.97,-162"/>
<polygon fill="black" stroke="black" points="2398.97,-165.5 2408.97,-162 2398.97,-158.5 2398.97,-165.5"/>
</g>
<!-- LessonCopyUC -->
<g id="node22" class="node">
<title>LessonCopyUC</title>
<ellipse fill="#fdb462" stroke="black" cx="1500" cy="-104" rx="72.96" ry="18"/>
<text text-anchor="middle" x="1500" y="-99.8" font-family="Times,serif" font-size="14.00">LessonCopyUC</text>
</g>
<!-- LessonCopyUC&#45;&gt;LearnroomModule -->
<g id="edge22" class="edge">
<title>LessonCopyUC&#45;&gt;LearnroomModule</title>
<path fill="none" stroke="black" d="M1500,-122C1500,-139.68 1500,-164 1500,-164 1500,-164 2398.95,-164 2398.95,-164"/>
<polygon fill="black" stroke="black" points="2398.95,-167.5 2408.95,-164 2398.95,-160.5 2398.95,-167.5"/>
</g>
<!-- LessonRepo -->
<g id="node23" class="node">
<title>LessonRepo</title>
<ellipse fill="#fdb462" stroke="black" cx="1350" cy="-104" rx="58.55" ry="18"/>
<text text-anchor="middle" x="1350" y="-99.8" font-family="Times,serif" font-size="14.00">LessonRepo</text>
</g>
<!-- LessonRepo&#45;&gt;LearnroomModule -->
<g id="edge23" class="edge">
<title>LessonRepo&#45;&gt;LearnroomModule</title>
<path fill="none" stroke="black" d="M1350,-122.22C1350,-140.83 1350,-167 1350,-167 1350,-167 2398.99,-167 2398.99,-167"/>
<polygon fill="black" stroke="black" points="2398.99,-170.5 2408.99,-167 2398.99,-163.5 2398.99,-170.5"/>
</g>
<!-- RoomBoardDTOFactory -->
<g id="node24" class="node">
<title>RoomBoardDTOFactory</title>
<ellipse fill="#fdb462" stroke="black" cx="1166" cy="-104" rx="107.67" ry="18"/>
<text text-anchor="middle" x="1166" y="-99.8" font-family="Times,serif" font-size="14.00">RoomBoardDTOFactory</text>
</g>
<!-- RoomBoardDTOFactory&#45;&gt;LearnroomModule -->
<g id="edge24" class="edge">
<title>RoomBoardDTOFactory&#45;&gt;LearnroomModule</title>
<path fill="none" stroke="black" d="M1166,-122.11C1166,-141.34 1166,-169 1166,-169 1166,-169 2398.85,-169 2398.85,-169"/>
<polygon fill="black" stroke="black" points="2398.85,-172.5 2408.85,-169 2398.85,-165.5 2398.85,-172.5"/>
</g>
<!-- RoomBoardResponseMapper -->
<g id="node25" class="node">
<title>RoomBoardResponseMapper</title>
<ellipse fill="#fdb462" stroke="black" cx="915" cy="-104" rx="125.07" ry="18"/>
<text text-anchor="middle" x="915" y="-99.8" font-family="Times,serif" font-size="14.00">RoomBoardResponseMapper</text>
</g>
<!-- RoomBoardResponseMapper&#45;&gt;LearnroomModule -->
<g id="edge25" class="edge">
<title>RoomBoardResponseMapper&#45;&gt;LearnroomModule</title>
<path fill="none" stroke="black" d="M915,-122.22C915,-142.37 915,-172 915,-172 915,-172 2399.04,-172 2399.04,-172"/>
<polygon fill="black" stroke="black" points="2399.04,-175.5 2409.04,-172 2399.04,-168.5 2399.04,-175.5"/>
</g>
<!-- RoomsAuthorisationService -->
<g id="node26" class="node">
<title>RoomsAuthorisationService</title>
<ellipse fill="#fdb462" stroke="black" cx="651" cy="-104" rx="120.42" ry="18"/>
<text text-anchor="middle" x="651" y="-99.8" font-family="Times,serif" font-size="14.00">RoomsAuthorisationService</text>
</g>
<!-- RoomsAuthorisationService&#45;&gt;LearnroomModule -->
<g id="edge26" class="edge">
<title>RoomsAuthorisationService&#45;&gt;LearnroomModule</title>
<path fill="none" stroke="black" d="M651,-122.28C651,-143.32 651,-175 651,-175 651,-175 2399.22,-175 2399.22,-175"/>
<polygon fill="black" stroke="black" points="2399.22,-178.5 2409.22,-175 2399.22,-171.5 2399.22,-178.5"/>
</g>
<!-- RoomsService -->
<g id="node27" class="node">
<title>RoomsService</title>
<ellipse fill="#fdb462" stroke="black" cx="445" cy="-104" rx="67.21" ry="18"/>
<text text-anchor="middle" x="445" y="-99.8" font-family="Times,serif" font-size="14.00">RoomsService</text>
</g>
<!-- RoomsService&#45;&gt;LearnroomModule -->
<g id="edge27" class="edge">
<title>RoomsService&#45;&gt;LearnroomModule</title>
<path fill="none" stroke="black" d="M445,-122.04C445,-143.66 445,-177 445,-177 445,-177 2399.12,-177 2399.12,-177"/>
<polygon fill="black" stroke="black" points="2399.12,-180.5 2409.12,-177 2399.12,-173.5 2399.12,-180.5"/>
</g>
<!-- RoomsUc -->
<g id="node28" class="node">
<title>RoomsUc</title>
<ellipse fill="#fdb462" stroke="black" cx="310" cy="-104" rx="49.82" ry="18"/>
<text text-anchor="middle" x="310" y="-99.8" font-family="Times,serif" font-size="14.00">RoomsUc</text>
</g>
<!-- RoomsUc&#45;&gt;LearnroomModule -->
<g id="edge28" class="edge">
<title>RoomsUc&#45;&gt;LearnroomModule</title>
<path fill="none" stroke="black" d="M310,-122.01C310,-144.49 310,-180 310,-180 310,-180 2399.12,-180 2399.12,-180"/>
<polygon fill="black" stroke="black" points="2399.12,-183.5 2409.12,-180 2399.12,-176.5 2399.12,-183.5"/>
</g>
<!-- TaskRepo -->
<g id="node29" class="node">
<title>TaskRepo</title>
<ellipse fill="#fdb462" stroke="black" cx="192" cy="-104" rx="50.38" ry="18"/>
<text text-anchor="middle" x="192" y="-99.8" font-family="Times,serif" font-size="14.00">TaskRepo</text>
</g>
<!-- TaskRepo&#45;&gt;LearnroomModule -->
<g id="edge29" class="edge">
<title>TaskRepo&#45;&gt;LearnroomModule</title>
<path fill="none" stroke="black" d="M192,-122.09C192,-145.13 192,-182 192,-182 192,-182 2399.07,-182 2399.07,-182"/>
<polygon fill="black" stroke="black" points="2399.07,-185.5 2409.07,-182 2399.07,-178.5 2399.07,-185.5"/>
</g>
<!-- UserRepo -->
<g id="node30" class="node">
<title>UserRepo</title>
<ellipse fill="#fdb462" stroke="black" cx="74" cy="-104" rx="49.8" ry="18"/>
<text text-anchor="middle" x="74" y="-99.8" font-family="Times,serif" font-size="14.00">UserRepo</text>
</g>
<!-- UserRepo&#45;&gt;LearnroomModule -->
<g id="edge30" class="edge">
<title>UserRepo&#45;&gt;LearnroomModule</title>
<path fill="none" stroke="black" d="M74,-122.38C74,-146.28 74,-185 74,-185 74,-185 2398.97,-185 2398.97,-185"/>
<polygon fill="black" stroke="black" points="2398.97,-188.5 2408.97,-185 2398.97,-181.5 2398.97,-188.5"/>
</g>
</g>
</svg>
