<?xml version="1.0" encoding="UTF-8" standalone="no"?>
<!DOCTYPE svg PUBLIC "-//W3C//DTD SVG 1.1//EN"
 "http://www.w3.org/Graphics/SVG/1.1/DTD/svg11.dtd">
<!-- Generated by graphviz version 2.47.0 (20210316.0004)
 -->
<!-- Title: dependencies Pages: 1 -->
<svg width="4652pt" height="284pt"
 viewBox="0.00 0.00 4652.00 284.00" xmlns="http://www.w3.org/2000/svg" xmlns:xlink="http://www.w3.org/1999/xlink">
<g id="graph0" class="graph" transform="scale(1 1) rotate(0) translate(4 280)">
<title>dependencies</title>
<polygon fill="white" stroke="transparent" points="-4,4 -4,-280 4648,-280 4648,4 -4,4"/>
<text text-anchor="start" x="2301.01" y="-42.4" font-family="Times-12" font-weight="bold" font-size="14.00">Legend</text>
<polygon fill="#ffffb3" stroke="transparent" points="2088,-10 2088,-30 2108,-30 2108,-10 2088,-10"/>
<text text-anchor="start" x="2111.63" y="-15.4" font-family="Times-12" font-size="14.00"> &#160;Declarations</text>
<polygon fill="#8dd3c7" stroke="transparent" points="2201,-10 2201,-30 2221,-30 2221,-10 2201,-10"/>
<text text-anchor="start" x="2224.73" y="-15.4" font-family="Times-12" font-size="14.00"> &#160;Module</text>
<polygon fill="#80b1d3" stroke="transparent" points="2287,-10 2287,-30 2307,-30 2307,-10 2287,-10"/>
<text text-anchor="start" x="2310.78" y="-15.4" font-family="Times-12" font-size="14.00"> &#160;Bootstrap</text>
<polygon fill="#fdb462" stroke="transparent" points="2384,-10 2384,-30 2404,-30 2404,-10 2384,-10"/>
<text text-anchor="start" x="2407.67" y="-15.4" font-family="Times-12" font-size="14.00"> &#160;Providers</text>
<polygon fill="#fb8072" stroke="transparent" points="2480,-10 2480,-30 2500,-30 2500,-10 2480,-10"/>
<text text-anchor="start" x="2503.73" y="-15.4" font-family="Times-12" font-size="14.00"> &#160;Exports</text>
<g id="clust1" class="cluster">
<title>cluster_LearnroomModule</title>
<polygon fill="none" stroke="black" stroke-dasharray="1,5" points="8,-70 8,-268 4636,-268 4636,-70 8,-70"/>
</g>
<g id="clust6" class="cluster">
<title>cluster_LearnroomModule_providers</title>
<polygon fill="none" stroke="black" points="847,-78 847,-130 4628,-130 4628,-78 847,-78"/>
</g>
<g id="clust3" class="cluster">
<title>cluster_LearnroomModule_imports</title>
<polygon fill="none" stroke="black" points="16,-78 16,-130 839,-130 839,-78 16,-78"/>
</g>
<g id="clust4" class="cluster">
<title>cluster_LearnroomModule_exports</title>
<polygon fill="none" stroke="black" points="1471,-208 1471,-260 2598,-260 2598,-208 1471,-208"/>
</g>
<!-- ContextExternalToolModule -->
<g id="node1" class="node">
<title>ContextExternalToolModule</title>
<polygon fill="#8dd3c7" stroke="black" points="830.75,-122 827.75,-126 806.75,-126 803.75,-122 653.25,-122 653.25,-86 830.75,-86 830.75,-122"/>
<text text-anchor="middle" x="742" y="-99.8" font-family="Times,serif" font-size="14.00">ContextExternalToolModule</text>
</g>
<!-- LearnroomModule -->
<g id="node7" class="node">
<title>LearnroomModule</title>
<polygon fill="#8dd3c7" stroke="black" points="1987.74,-187 1984.74,-191 1963.74,-191 1960.74,-187 1866.26,-187 1866.26,-151 1987.74,-151 1987.74,-187"/>
<text text-anchor="middle" x="1927" y="-164.8" font-family="Times,serif" font-size="14.00">LearnroomModule</text>
</g>
<!-- ContextExternalToolModule&#45;&gt;LearnroomModule -->
<g id="edge1" class="edge">
<title>ContextExternalToolModule&#45;&gt;LearnroomModule</title>
<path fill="none" stroke="black" d="M742,-122.27C742,-140.56 742,-166 742,-166 742,-166 1856.2,-166 1856.2,-166"/>
<polygon fill="black" stroke="black" points="1856.2,-169.5 1866.2,-166 1856.2,-162.5 1856.2,-169.5"/>
</g>
<!-- CopyHelperModule -->
<g id="node2" class="node">
<title>CopyHelperModule</title>
<polygon fill="#8dd3c7" stroke="black" points="634.97,-122 631.97,-126 610.97,-126 607.97,-122 507.03,-122 507.03,-86 634.97,-86 634.97,-122"/>
<text text-anchor="middle" x="571" y="-99.8" font-family="Times,serif" font-size="14.00">CopyHelperModule</text>
</g>
<!-- CopyHelperModule&#45;&gt;LearnroomModule -->
<g id="edge2" class="edge">
<title>CopyHelperModule&#45;&gt;LearnroomModule</title>
<path fill="none" stroke="black" d="M571,-122.17C571,-141.09 571,-168 571,-168 571,-168 1856.1,-168 1856.1,-168"/>
<polygon fill="black" stroke="black" points="1856.1,-171.5 1866.1,-168 1856.1,-164.5 1856.1,-171.5"/>
</g>
<!-- LessonModule -->
<g id="node3" class="node">
<title>LessonModule</title>
<polygon fill="#8dd3c7" stroke="black" points="488.71,-122 485.71,-126 464.71,-126 461.71,-122 389.29,-122 389.29,-86 488.71,-86 488.71,-122"/>
<text text-anchor="middle" x="439" y="-99.8" font-family="Times,serif" font-size="14.00">LessonModule</text>
</g>
<!-- LessonModule&#45;&gt;LearnroomModule -->
<g id="edge3" class="edge">
<title>LessonModule&#45;&gt;LearnroomModule</title>
<path fill="none" stroke="black" d="M439,-122.31C439,-142.15 439,-171 439,-171 439,-171 1855.89,-171 1855.89,-171"/>
<polygon fill="black" stroke="black" points="1855.89,-174.5 1865.89,-171 1855.89,-167.5 1855.89,-174.5"/>
</g>
<!-- LoggerModule -->
<g id="node4" class="node">
<title>LoggerModule</title>
<polygon fill="#8dd3c7" stroke="black" points="370.98,-122 367.98,-126 346.98,-126 343.98,-122 271.02,-122 271.02,-86 370.98,-86 370.98,-122"/>
<text text-anchor="middle" x="321" y="-99.8" font-family="Times,serif" font-size="14.00">LoggerModule</text>
</g>
<!-- LoggerModule&#45;&gt;LearnroomModule -->
<g id="edge4" class="edge">
<title>LoggerModule&#45;&gt;LearnroomModule</title>
<path fill="none" stroke="black" d="M321,-122.13C321,-142.57 321,-173 321,-173 321,-173 1856,-173 1856,-173"/>
<polygon fill="black" stroke="black" points="1856,-176.5 1866,-173 1856,-169.5 1856,-176.5"/>
</g>
<!-- TaskModule -->
<g id="node5" class="node">
<title>TaskModule</title>
<polygon fill="#8dd3c7" stroke="black" points="253.26,-122 250.26,-126 229.26,-126 226.26,-122 166.74,-122 166.74,-86 253.26,-86 253.26,-122"/>
<text text-anchor="middle" x="210" y="-99.8" font-family="Times,serif" font-size="14.00">TaskModule</text>
</g>
<!-- TaskModule&#45;&gt;LearnroomModule -->
<g id="edge5" class="edge">
<title>TaskModule&#45;&gt;LearnroomModule</title>
<path fill="none" stroke="black" d="M210,-122.28C210,-143.32 210,-175 210,-175 210,-175 1856.14,-175 1856.14,-175"/>
<polygon fill="black" stroke="black" points="1856.14,-178.5 1866.14,-175 1856.14,-171.5 1856.14,-178.5"/>
</g>
<!-- ToolConfigModule -->
<g id="node6" class="node">
<title>ToolConfigModule</title>
<polygon fill="#8dd3c7" stroke="black" points="148.38,-122 145.38,-126 124.38,-126 121.38,-122 23.62,-122 23.62,-86 148.38,-86 148.38,-122"/>
<text text-anchor="middle" x="86" y="-99.8" font-family="Times,serif" font-size="14.00">ToolConfigModule</text>
</g>
<!-- ToolConfigModule&#45;&gt;LearnroomModule -->
<g id="edge6" class="edge">
<title>ToolConfigModule&#45;&gt;LearnroomModule</title>
<path fill="none" stroke="black" d="M86,-122.29C86,-144.21 86,-178 86,-178 86,-178 1856.01,-178 1856.01,-178"/>
<polygon fill="black" stroke="black" points="1856.01,-181.5 1866.01,-178 1856.01,-174.5 1856.01,-181.5"/>
</g>
<!-- CommonCartridgeExportService  -->
<g id="node8" class="node">
<title>CommonCartridgeExportService </title>
<polygon fill="#fb8072" stroke="black" points="2590.07,-252 2385.93,-252 2385.93,-216 2590.07,-216 2590.07,-252"/>
<text text-anchor="middle" x="2488" y="-229.8" font-family="Times,serif" font-size="14.00">CommonCartridgeExportService </text>
</g>
<!-- LearnroomModule&#45;&gt;CommonCartridgeExportService  -->
<g id="edge7" class="edge">
<title>LearnroomModule&#45;&gt;CommonCartridgeExportService </title>
<path fill="none" stroke="black" stroke-dasharray="5,2" d="M1987.78,-180C2116.9,-180 2406.87,-180 2406.87,-180 2406.87,-180 2406.87,-205.72 2406.87,-205.72"/>
<polygon fill="black" stroke="black" points="2403.37,-205.72 2406.87,-215.72 2410.37,-205.72 2403.37,-205.72"/>
</g>
<!-- CommonCartridgeImportService  -->
<g id="node9" class="node">
<title>CommonCartridgeImportService </title>
<polygon fill="#fb8072" stroke="black" points="2367.07,-252 2162.93,-252 2162.93,-216 2367.07,-216 2367.07,-252"/>
<text text-anchor="middle" x="2265" y="-229.8" font-family="Times,serif" font-size="14.00">CommonCartridgeImportService </text>
</g>
<!-- LearnroomModule&#45;&gt;CommonCartridgeImportService  -->
<g id="edge8" class="edge">
<title>LearnroomModule&#45;&gt;CommonCartridgeImportService </title>
<path fill="none" stroke="black" stroke-dasharray="5,2" d="M1987.98,-183C2066.85,-183 2194.25,-183 2194.25,-183 2194.25,-183 2194.25,-205.88 2194.25,-205.88"/>
<polygon fill="black" stroke="black" points="2190.75,-205.88 2194.25,-215.88 2197.75,-205.88 2190.75,-205.88"/>
</g>
<!-- CourseCopyService  -->
<g id="node10" class="node">
<title>CourseCopyService </title>
<polygon fill="#fb8072" stroke="black" points="2144.97,-252 2013.03,-252 2013.03,-216 2144.97,-216 2144.97,-252"/>
<text text-anchor="middle" x="2079" y="-229.8" font-family="Times,serif" font-size="14.00">CourseCopyService </text>
</g>
<!-- LearnroomModule&#45;&gt;CourseCopyService  -->
<g id="edge9" class="edge">
<title>LearnroomModule&#45;&gt;CourseCopyService </title>
<path fill="none" stroke="black" stroke-dasharray="5,2" d="M1987.94,-185C2019.62,-185 2051.81,-185 2051.81,-185 2051.81,-185 2051.81,-205.75 2051.81,-205.75"/>
<polygon fill="black" stroke="black" points="2048.31,-205.75 2051.81,-215.75 2055.31,-205.75 2048.31,-205.75"/>
</g>
<!-- CourseGroupService  -->
<g id="node11" class="node">
<title>CourseGroupService </title>
<polygon fill="#fb8072" stroke="black" points="1995.4,-252 1858.6,-252 1858.6,-216 1995.4,-216 1995.4,-252"/>
<text text-anchor="middle" x="1927" y="-229.8" font-family="Times,serif" font-size="14.00">CourseGroupService </text>
</g>
<!-- LearnroomModule&#45;&gt;CourseGroupService  -->
<g id="edge10" class="edge">
<title>LearnroomModule&#45;&gt;CourseGroupService </title>
<path fill="none" stroke="black" stroke-dasharray="5,2" d="M1927,-187.11C1927,-187.11 1927,-205.99 1927,-205.99"/>
<polygon fill="black" stroke="black" points="1923.5,-205.99 1927,-215.99 1930.5,-205.99 1923.5,-205.99"/>
</g>
<!-- CourseService  -->
<g id="node12" class="node">
<title>CourseService </title>
<polygon fill="#fb8072" stroke="black" points="1840.63,-252 1739.37,-252 1739.37,-216 1840.63,-216 1840.63,-252"/>
<text text-anchor="middle" x="1790" y="-229.8" font-family="Times,serif" font-size="14.00">CourseService </text>
</g>
<!-- LearnroomModule&#45;&gt;CourseService  -->
<g id="edge11" class="edge">
<title>LearnroomModule&#45;&gt;CourseService </title>
<path fill="none" stroke="black" stroke-dasharray="5,2" d="M1866.11,-185C1829.52,-185 1790,-185 1790,-185 1790,-185 1790,-205.75 1790,-205.75"/>
<polygon fill="black" stroke="black" points="1786.5,-205.75 1790,-215.75 1793.5,-205.75 1786.5,-205.75"/>
</g>
<!-- DashboardService  -->
<g id="node13" class="node">
<title>DashboardService </title>
<polygon fill="#fb8072" stroke="black" points="1721.12,-252 1598.88,-252 1598.88,-216 1721.12,-216 1721.12,-252"/>
<text text-anchor="middle" x="1660" y="-229.8" font-family="Times,serif" font-size="14.00">DashboardService </text>
</g>
<!-- LearnroomModule&#45;&gt;DashboardService  -->
<g id="edge12" class="edge">
<title>LearnroomModule&#45;&gt;DashboardService </title>
<path fill="none" stroke="black" stroke-dasharray="5,2" d="M1866.13,-183C1803.36,-183 1714.58,-183 1714.58,-183 1714.58,-183 1714.58,-205.88 1714.58,-205.88"/>
<polygon fill="black" stroke="black" points="1711.08,-205.88 1714.58,-215.88 1718.08,-205.88 1711.08,-205.88"/>
</g>
<!-- RoomsService  -->
<g id="node14" class="node">
<title>RoomsService </title>
<polygon fill="#fb8072" stroke="black" points="1580.65,-252 1479.35,-252 1479.35,-216 1580.65,-216 1580.65,-252"/>
<text text-anchor="middle" x="1530" y="-229.8" font-family="Times,serif" font-size="14.00">RoomsService </text>
</g>
<!-- LearnroomModule&#45;&gt;RoomsService  -->
<g id="edge13" class="edge">
<title>LearnroomModule&#45;&gt;RoomsService </title>
<path fill="none" stroke="black" stroke-dasharray="5,2" d="M1865.94,-180C1756.04,-180 1536.23,-180 1536.23,-180 1536.23,-180 1536.23,-205.72 1536.23,-205.72"/>
<polygon fill="black" stroke="black" points="1532.73,-205.72 1536.23,-215.72 1539.73,-205.72 1532.73,-205.72"/>
</g>
<!-- BoardCopyService -->
<g id="node15" class="node">
<title>BoardCopyService</title>
<ellipse fill="#fdb462" stroke="black" cx="4535" cy="-104" rx="84.53" ry="18"/>
<text text-anchor="middle" x="4535" y="-99.8" font-family="Times,serif" font-size="14.00">BoardCopyService</text>
</g>
<!-- BoardCopyService&#45;&gt;LearnroomModule -->
<g id="edge14" class="edge">
<title>BoardCopyService&#45;&gt;LearnroomModule</title>
<path fill="none" stroke="black" d="M4535,-122.29C4535,-144.21 4535,-178 4535,-178 4535,-178 1997.94,-178 1997.94,-178"/>
<polygon fill="black" stroke="black" points="1997.94,-174.5 1987.94,-178 1997.94,-181.5 1997.94,-174.5"/>
</g>
<!-- BoardNodeRepo -->
<g id="node16" class="node">
<title>BoardNodeRepo</title>
<ellipse fill="#fdb462" stroke="black" cx="4357" cy="-104" rx="75.87" ry="18"/>
<text text-anchor="middle" x="4357" y="-99.8" font-family="Times,serif" font-size="14.00">BoardNodeRepo</text>
</g>
<!-- BoardNodeRepo&#45;&gt;LearnroomModule -->
<g id="edge15" class="edge">
<title>BoardNodeRepo&#45;&gt;LearnroomModule</title>
<path fill="none" stroke="black" d="M4357,-122.28C4357,-143.32 4357,-175 4357,-175 4357,-175 1997.98,-175 1997.98,-175"/>
<polygon fill="black" stroke="black" points="1997.98,-171.5 1987.98,-175 1997.98,-178.5 1997.98,-171.5"/>
</g>
<!-- CommonCartridgeExportService -->
<g id="node17" class="node">
<title>CommonCartridgeExportService</title>
<ellipse fill="#fdb462" stroke="black" cx="4124" cy="-104" rx="138.89" ry="18"/>
<text text-anchor="middle" x="4124" y="-99.8" font-family="Times,serif" font-size="14.00">CommonCartridgeExportService</text>
</g>
<!-- CommonCartridgeExportService&#45;&gt;LearnroomModule -->
<g id="edge16" class="edge">
<title>CommonCartridgeExportService&#45;&gt;LearnroomModule</title>
<path fill="none" stroke="black" d="M4124,-122.13C4124,-142.57 4124,-173 4124,-173 4124,-173 1997.77,-173 1997.77,-173"/>
<polygon fill="black" stroke="black" points="1997.77,-169.5 1987.77,-173 1997.77,-176.5 1997.77,-169.5"/>
</g>
<!-- CommonCartridgeFileValidatorPipe -->
<g id="node18" class="node">
<title>CommonCartridgeFileValidatorPipe</title>
<ellipse fill="#fdb462" stroke="black" cx="3815" cy="-104" rx="152.22" ry="18"/>
<text text-anchor="middle" x="3815" y="-99.8" font-family="Times,serif" font-size="14.00">CommonCartridgeFileValidatorPipe</text>
</g>
<!-- CommonCartridgeFileValidatorPipe&#45;&gt;LearnroomModule -->
<g id="edge17" class="edge">
<title>CommonCartridgeFileValidatorPipe&#45;&gt;LearnroomModule</title>
<path fill="none" stroke="black" d="M3815,-122.31C3815,-142.15 3815,-171 3815,-171 3815,-171 1997.94,-171 1997.94,-171"/>
<polygon fill="black" stroke="black" points="1997.94,-167.5 1987.94,-171 1997.94,-174.5 1997.94,-167.5"/>
</g>
<!-- CommonCartridgeImportMapper -->
<g id="node19" class="node">
<title>CommonCartridgeImportMapper</title>
<ellipse fill="#fdb462" stroke="black" cx="3505" cy="-104" rx="139.53" ry="18"/>
<text text-anchor="middle" x="3505" y="-99.8" font-family="Times,serif" font-size="14.00">CommonCartridgeImportMapper</text>
</g>
<!-- CommonCartridgeImportMapper&#45;&gt;LearnroomModule -->
<g id="edge18" class="edge">
<title>CommonCartridgeImportMapper&#45;&gt;LearnroomModule</title>
<path fill="none" stroke="black" d="M3505,-122.17C3505,-141.09 3505,-168 3505,-168 3505,-168 1997.89,-168 1997.89,-168"/>
<polygon fill="black" stroke="black" points="1997.89,-164.5 1987.89,-168 1997.89,-171.5 1997.89,-164.5"/>
</g>
<!-- CommonCartridgeImportService -->
<g id="node20" class="node">
<title>CommonCartridgeImportService</title>
<ellipse fill="#fdb462" stroke="black" cx="3209" cy="-104" rx="138.88" ry="18"/>
<text text-anchor="middle" x="3209" y="-99.8" font-family="Times,serif" font-size="14.00">CommonCartridgeImportService</text>
</g>
<!-- CommonCartridgeImportService&#45;&gt;LearnroomModule -->
<g id="edge19" class="edge">
<title>CommonCartridgeImportService&#45;&gt;LearnroomModule</title>
<path fill="none" stroke="black" d="M3209,-122.27C3209,-140.56 3209,-166 3209,-166 3209,-166 1997.97,-166 1997.97,-166"/>
<polygon fill="black" stroke="black" points="1997.97,-162.5 1987.97,-166 1997.97,-169.5 1997.97,-162.5"/>
</g>
<!-- CommonCartridgeMapper -->
<g id="node21" class="node">
<title>CommonCartridgeMapper</title>
<ellipse fill="#fdb462" stroke="black" cx="2939" cy="-104" rx="113.47" ry="18"/>
<text text-anchor="middle" x="2939" y="-99.8" font-family="Times,serif" font-size="14.00">CommonCartridgeMapper</text>
</g>
<!-- CommonCartridgeMapper&#45;&gt;LearnroomModule -->
<g id="edge20" class="edge">
<title>CommonCartridgeMapper&#45;&gt;LearnroomModule</title>
<path fill="none" stroke="black" d="M2939,-122.02C2939,-139.37 2939,-163 2939,-163 2939,-163 1998.03,-163 1998.03,-163"/>
<polygon fill="black" stroke="black" points="1998.03,-159.5 1988.03,-163 1998.03,-166.5 1998.03,-159.5"/>
</g>
<!-- CourseCopyService -->
<g id="node22" class="node">
<title>CourseCopyService</title>
<ellipse fill="#fdb462" stroke="black" cx="2719" cy="-104" rx="88.04" ry="18"/>
<text text-anchor="middle" x="2719" y="-99.8" font-family="Times,serif" font-size="14.00">CourseCopyService</text>
</g>
<!-- CourseCopyService&#45;&gt;LearnroomModule -->
<g id="edge21" class="edge">
<title>CourseCopyService&#45;&gt;LearnroomModule</title>
<path fill="none" stroke="black" d="M2719,-122.04C2719,-138.73 2719,-161 2719,-161 2719,-161 1997.83,-161 1997.83,-161"/>
<polygon fill="black" stroke="black" points="1997.83,-157.5 1987.83,-161 1997.83,-164.5 1997.83,-157.5"/>
</g>
<!-- CourseGroupRepo -->
<g id="node23" class="node">
<title>CourseGroupRepo</title>
<ellipse fill="#fdb462" stroke="black" cx="2529" cy="-104" rx="83.39" ry="18"/>
<text text-anchor="middle" x="2529" y="-99.8" font-family="Times,serif" font-size="14.00">CourseGroupRepo</text>
</g>
<!-- CourseGroupRepo&#45;&gt;LearnroomModule -->
<g id="edge22" class="edge">
<title>CourseGroupRepo&#45;&gt;LearnroomModule</title>
<path fill="none" stroke="black" d="M2517.92,-122.01C2517.92,-138.05 2517.92,-159 2517.92,-159 2517.92,-159 1998.01,-159 1998.01,-159"/>
<polygon fill="black" stroke="black" points="1998.01,-155.5 1988.01,-159 1998.01,-162.5 1998.01,-155.5"/>
</g>
<!-- CourseGroupService -->
<g id="node24" class="node">
<title>CourseGroupService</title>
<ellipse fill="#fdb462" stroke="black" cx="2336" cy="-104" rx="92.04" ry="18"/>
<text text-anchor="middle" x="2336" y="-99.8" font-family="Times,serif" font-size="14.00">CourseGroupService</text>
</g>
<!-- CourseGroupService&#45;&gt;LearnroomModule -->
<g id="edge23" class="edge">
<title>CourseGroupService&#45;&gt;LearnroomModule</title>
<path fill="none" stroke="black" d="M2305.63,-121.03C2305.63,-136.19 2305.63,-156 2305.63,-156 2305.63,-156 1997.83,-156 1997.83,-156"/>
<polygon fill="black" stroke="black" points="1997.83,-152.5 1987.83,-156 1997.83,-159.5 1997.83,-152.5"/>
</g>
<!-- CourseRepo -->
<g id="node25" class="node">
<title>CourseRepo</title>
<ellipse fill="#fdb462" stroke="black" cx="2167" cy="-104" rx="58.55" ry="18"/>
<text text-anchor="middle" x="2167" y="-99.8" font-family="Times,serif" font-size="14.00">CourseRepo</text>
</g>
<!-- CourseRepo&#45;&gt;LearnroomModule -->
<g id="edge24" class="edge">
<title>CourseRepo&#45;&gt;LearnroomModule</title>
<path fill="none" stroke="black" d="M2126.48,-117.14C2126.48,-131.95 2126.48,-154 2126.48,-154 2126.48,-154 1997.93,-154 1997.93,-154"/>
<polygon fill="black" stroke="black" points="1997.93,-150.5 1987.93,-154 1997.93,-157.5 1997.93,-150.5"/>
</g>
<!-- CourseService -->
<g id="node26" class="node">
<title>CourseService</title>
<ellipse fill="#fdb462" stroke="black" cx="2023" cy="-104" rx="67.19" ry="18"/>
<text text-anchor="middle" x="2023" y="-99.8" font-family="Times,serif" font-size="14.00">CourseService</text>
</g>
<!-- CourseService&#45;&gt;LearnroomModule -->
<g id="edge25" class="edge">
<title>CourseService&#45;&gt;LearnroomModule</title>
<path fill="none" stroke="black" d="M1971.76,-115.92C1971.76,-115.92 1971.76,-140.77 1971.76,-140.77"/>
<polygon fill="black" stroke="black" points="1968.26,-140.77 1971.76,-150.77 1975.26,-140.77 1968.26,-140.77"/>
</g>
<!-- DashboardElementRepo -->
<g id="node27" class="node">
<title>DashboardElementRepo</title>
<ellipse fill="#fdb462" stroke="black" cx="1832" cy="-104" rx="105.36" ry="18"/>
<text text-anchor="middle" x="1832" y="-99.8" font-family="Times,serif" font-size="14.00">DashboardElementRepo</text>
</g>
<!-- DashboardElementRepo&#45;&gt;LearnroomModule -->
<g id="edge26" class="edge">
<title>DashboardElementRepo&#45;&gt;LearnroomModule</title>
<path fill="none" stroke="black" d="M1901.78,-117.78C1901.78,-117.78 1901.78,-140.55 1901.78,-140.55"/>
<polygon fill="black" stroke="black" points="1898.28,-140.55 1901.78,-150.55 1905.28,-140.55 1898.28,-140.55"/>
</g>
<!-- DashboardModelMapper -->
<g id="node28" class="node">
<title>DashboardModelMapper</title>
<ellipse fill="#fdb462" stroke="black" cx="1600" cy="-104" rx="108.21" ry="18"/>
<text text-anchor="middle" x="1600" y="-99.8" font-family="Times,serif" font-size="14.00">DashboardModelMapper</text>
</g>
<!-- DashboardModelMapper&#45;&gt;LearnroomModule -->
<g id="edge27" class="edge">
<title>DashboardModelMapper&#45;&gt;LearnroomModule</title>
<path fill="none" stroke="black" d="M1653.52,-119.82C1653.52,-134.47 1653.52,-154 1653.52,-154 1653.52,-154 1855.97,-154 1855.97,-154"/>
<polygon fill="black" stroke="black" points="1855.97,-157.5 1865.97,-154 1855.97,-150.5 1855.97,-157.5"/>
</g>
<!-- DashboardService -->
<g id="node29" class="node">
<title>DashboardService</title>
<ellipse fill="#fdb462" stroke="black" cx="1392" cy="-104" rx="81.64" ry="18"/>
<text text-anchor="middle" x="1392" y="-99.8" font-family="Times,serif" font-size="14.00">DashboardService</text>
</g>
<!-- DashboardService&#45;&gt;LearnroomModule -->
<g id="edge28" class="edge">
<title>DashboardService&#45;&gt;LearnroomModule</title>
<path fill="none" stroke="black" d="M1392,-122.19C1392,-137.18 1392,-156 1392,-156 1392,-156 1856.15,-156 1856.15,-156"/>
<polygon fill="black" stroke="black" points="1856.15,-159.5 1866.15,-156 1856.15,-152.5 1856.15,-159.5"/>
</g>
<!-- LegacyBoardRepo -->
<g id="node30" class="node">
<title>LegacyBoardRepo</title>
<ellipse fill="#fdb462" stroke="black" cx="1209" cy="-104" rx="83.37" ry="18"/>
<text text-anchor="middle" x="1209" y="-99.8" font-family="Times,serif" font-size="14.00">LegacyBoardRepo</text>
</g>
<!-- LegacyBoardRepo&#45;&gt;LearnroomModule -->
<g id="edge29" class="edge">
<title>LegacyBoardRepo&#45;&gt;LearnroomModule</title>
<path fill="none" stroke="black" d="M1209,-122.01C1209,-138.05 1209,-159 1209,-159 1209,-159 1856.09,-159 1856.09,-159"/>
<polygon fill="black" stroke="black" points="1856.09,-162.5 1866.09,-159 1856.09,-155.5 1856.09,-162.5"/>
</g>
<!-- RoomsService -->
<g id="node31" class="node">
<title>RoomsService</title>
<ellipse fill="#fdb462" stroke="black" cx="1040" cy="-104" rx="67.21" ry="18"/>
<text text-anchor="middle" x="1040" y="-99.8" font-family="Times,serif" font-size="14.00">RoomsService</text>
</g>
<!-- RoomsService&#45;&gt;LearnroomModule -->
<g id="edge30" class="edge">
<title>RoomsService&#45;&gt;LearnroomModule</title>
<path fill="none" stroke="black" d="M1040,-122.04C1040,-138.73 1040,-161 1040,-161 1040,-161 1856.03,-161 1856.03,-161"/>
<polygon fill="black" stroke="black" points="1856.03,-164.5 1866.03,-161 1856.03,-157.5 1856.03,-164.5"/>
</g>
<!-- UserRepo -->
<g id="node32" class="node">
<title>UserRepo</title>
<ellipse fill="#fdb462" stroke="black" cx="905" cy="-104" rx="49.8" ry="18"/>
<text text-anchor="middle" x="905" y="-99.8" font-family="Times,serif" font-size="14.00">UserRepo</text>
</g>
<!-- UserRepo&#45;&gt;LearnroomModule -->
<g id="edge31" class="edge">
<title>UserRepo&#45;&gt;LearnroomModule</title>
<path fill="none" stroke="black" d="M905,-122.02C905,-139.37 905,-163 905,-163 905,-163 1856.13,-163 1856.13,-163"/>
<polygon fill="black" stroke="black" points="1856.13,-166.5 1866.13,-163 1856.13,-159.5 1856.13,-166.5"/>
</g>
</g>
</svg>
