<?xml version="1.0" encoding="UTF-8" standalone="no"?>
<!DOCTYPE svg PUBLIC "-//W3C//DTD SVG 1.1//EN"
 "http://www.w3.org/Graphics/SVG/1.1/DTD/svg11.dtd">
<!-- Generated by graphviz version 2.47.0 (20210316.0004)
 -->
<!-- Title: dependencies Pages: 1 -->
<svg width="4828pt" height="284pt"
 viewBox="0.00 0.00 4828.00 284.00" xmlns="http://www.w3.org/2000/svg" xmlns:xlink="http://www.w3.org/1999/xlink">
<g id="graph0" class="graph" transform="scale(1 1) rotate(0) translate(4 280)">
<title>dependencies</title>
<polygon fill="white" stroke="transparent" points="-4,4 -4,-280 4824,-280 4824,4 -4,4"/>
<text text-anchor="start" x="2389.01" y="-42.4" font-family="Times-12" font-weight="bold" font-size="14.00">Legend</text>
<polygon fill="#ffffb3" stroke="transparent" points="2176,-10 2176,-30 2196,-30 2196,-10 2176,-10"/>
<text text-anchor="start" x="2199.63" y="-15.4" font-family="Times-12" font-size="14.00"> &#160;Declarations</text>
<polygon fill="#8dd3c7" stroke="transparent" points="2289,-10 2289,-30 2309,-30 2309,-10 2289,-10"/>
<text text-anchor="start" x="2312.73" y="-15.4" font-family="Times-12" font-size="14.00"> &#160;Module</text>
<polygon fill="#80b1d3" stroke="transparent" points="2375,-10 2375,-30 2395,-30 2395,-10 2375,-10"/>
<text text-anchor="start" x="2398.78" y="-15.4" font-family="Times-12" font-size="14.00"> &#160;Bootstrap</text>
<polygon fill="#fdb462" stroke="transparent" points="2472,-10 2472,-30 2492,-30 2492,-10 2472,-10"/>
<text text-anchor="start" x="2495.67" y="-15.4" font-family="Times-12" font-size="14.00"> &#160;Providers</text>
<polygon fill="#fb8072" stroke="transparent" points="2568,-10 2568,-30 2588,-30 2588,-10 2568,-10"/>
<text text-anchor="start" x="2591.73" y="-15.4" font-family="Times-12" font-size="14.00"> &#160;Exports</text>
<g id="clust1" class="cluster">
<title>cluster_LearnroomModule</title>
<polygon fill="none" stroke="black" stroke-dasharray="1,5" points="8,-70 8,-268 4812,-268 4812,-70 8,-70"/>
</g>
<g id="clust6" class="cluster">
<title>cluster_LearnroomModule_providers</title>
<polygon fill="none" stroke="black" points="847,-78 847,-130 4804,-130 4804,-78 847,-78"/>
</g>
<g id="clust3" class="cluster">
<title>cluster_LearnroomModule_imports</title>
<polygon fill="none" stroke="black" points="16,-78 16,-130 839,-130 839,-78 16,-78"/>
</g>
<g id="clust4" class="cluster">
<title>cluster_LearnroomModule_exports</title>
<polygon fill="none" stroke="black" points="1494,-208 1494,-260 2758,-260 2758,-208 1494,-208"/>
</g>
<!-- ContextExternalToolModule -->
<g id="node1" class="node">
<title>ContextExternalToolModule</title>
<polygon fill="#8dd3c7" stroke="black" points="830.75,-122 827.75,-126 806.75,-126 803.75,-122 653.25,-122 653.25,-86 830.75,-86 830.75,-122"/>
<text text-anchor="middle" x="742" y="-99.8" font-family="Times,serif" font-size="14.00">ContextExternalToolModule</text>
</g>
<!-- LearnroomModule -->
<g id="node7" class="node">
<title>LearnroomModule</title>
<polygon fill="#8dd3c7" stroke="black" points="2083.74,-187 2080.74,-191 2059.74,-191 2056.74,-187 1962.26,-187 1962.26,-151 2083.74,-151 2083.74,-187"/>
<text text-anchor="middle" x="2023" y="-164.8" font-family="Times,serif" font-size="14.00">LearnroomModule</text>
</g>
<!-- ContextExternalToolModule&#45;&gt;LearnroomModule -->
<g id="edge1" class="edge">
<title>ContextExternalToolModule&#45;&gt;LearnroomModule</title>
<path fill="none" stroke="black" d="M742,-122.22C742,-140.83 742,-167 742,-167 742,-167 1952.08,-167 1952.08,-167"/>
<polygon fill="black" stroke="black" points="1952.08,-170.5 1962.08,-167 1952.08,-163.5 1952.08,-170.5"/>
</g>
<!-- CopyHelperModule -->
<g id="node2" class="node">
<title>CopyHelperModule</title>
<polygon fill="#8dd3c7" stroke="black" points="634.97,-122 631.97,-126 610.97,-126 607.97,-122 507.03,-122 507.03,-86 634.97,-86 634.97,-122"/>
<text text-anchor="middle" x="571" y="-99.8" font-family="Times,serif" font-size="14.00">CopyHelperModule</text>
</g>
<!-- CopyHelperModule&#45;&gt;LearnroomModule -->
<g id="edge2" class="edge">
<title>CopyHelperModule&#45;&gt;LearnroomModule</title>
<path fill="none" stroke="black" d="M571,-122.11C571,-141.34 571,-169 571,-169 571,-169 1952,-169 1952,-169"/>
<polygon fill="black" stroke="black" points="1952,-172.5 1962,-169 1952,-165.5 1952,-172.5"/>
</g>
<!-- LessonModule -->
<g id="node3" class="node">
<title>LessonModule</title>
<polygon fill="#8dd3c7" stroke="black" points="488.71,-122 485.71,-126 464.71,-126 461.71,-122 389.29,-122 389.29,-86 488.71,-86 488.71,-122"/>
<text text-anchor="middle" x="439" y="-99.8" font-family="Times,serif" font-size="14.00">LessonModule</text>
</g>
<!-- LessonModule&#45;&gt;LearnroomModule -->
<g id="edge3" class="edge">
<title>LessonModule&#45;&gt;LearnroomModule</title>
<path fill="none" stroke="black" d="M439,-122.22C439,-142.37 439,-172 439,-172 439,-172 1951.88,-172 1951.88,-172"/>
<polygon fill="black" stroke="black" points="1951.88,-175.5 1961.88,-172 1951.88,-168.5 1951.88,-175.5"/>
</g>
<!-- LoggerModule -->
<g id="node4" class="node">
<title>LoggerModule</title>
<polygon fill="#8dd3c7" stroke="black" points="370.98,-122 367.98,-126 346.98,-126 343.98,-122 271.02,-122 271.02,-86 370.98,-86 370.98,-122"/>
<text text-anchor="middle" x="321" y="-99.8" font-family="Times,serif" font-size="14.00">LoggerModule</text>
</g>
<!-- LoggerModule&#45;&gt;LearnroomModule -->
<g id="edge4" class="edge">
<title>LoggerModule&#45;&gt;LearnroomModule</title>
<path fill="none" stroke="black" d="M321,-122.03C321,-142.77 321,-174 321,-174 321,-174 1952.17,-174 1952.17,-174"/>
<polygon fill="black" stroke="black" points="1952.17,-177.5 1962.17,-174 1952.17,-170.5 1952.17,-177.5"/>
</g>
<!-- TaskModule -->
<g id="node5" class="node">
<title>TaskModule</title>
<polygon fill="#8dd3c7" stroke="black" points="253.26,-122 250.26,-126 229.26,-126 226.26,-122 166.74,-122 166.74,-86 253.26,-86 253.26,-122"/>
<text text-anchor="middle" x="210" y="-99.8" font-family="Times,serif" font-size="14.00">TaskModule</text>
</g>
<!-- TaskModule&#45;&gt;LearnroomModule -->
<g id="edge5" class="edge">
<title>TaskModule&#45;&gt;LearnroomModule</title>
<path fill="none" stroke="black" d="M210,-122.17C210,-143.5 210,-176 210,-176 210,-176 1952.16,-176 1952.16,-176"/>
<polygon fill="black" stroke="black" points="1952.16,-179.5 1962.16,-176 1952.16,-172.5 1952.16,-179.5"/>
</g>
<!-- ToolConfigModule -->
<g id="node6" class="node">
<title>ToolConfigModule</title>
<polygon fill="#8dd3c7" stroke="black" points="148.38,-122 145.38,-126 124.38,-126 121.38,-122 23.62,-122 23.62,-86 148.38,-86 148.38,-122"/>
<text text-anchor="middle" x="86" y="-99.8" font-family="Times,serif" font-size="14.00">ToolConfigModule</text>
</g>
<!-- ToolConfigModule&#45;&gt;LearnroomModule -->
<g id="edge6" class="edge">
<title>ToolConfigModule&#45;&gt;LearnroomModule</title>
<path fill="none" stroke="black" d="M86,-122.29C86,-144.21 86,-178 86,-178 86,-178 1952.1,-178 1952.1,-178"/>
<polygon fill="black" stroke="black" points="1952.1,-181.5 1962.1,-178 1952.1,-174.5 1952.1,-181.5"/>
</g>
<!-- CommonCartridgeExportService  -->
<g id="node8" class="node">
<title>CommonCartridgeExportService </title>
<polygon fill="#fb8072" stroke="black" points="2750.07,-252 2545.93,-252 2545.93,-216 2750.07,-216 2750.07,-252"/>
<text text-anchor="middle" x="2648" y="-229.8" font-family="Times,serif" font-size="14.00">CommonCartridgeExportService </text>
</g>
<!-- LearnroomModule&#45;&gt;CommonCartridgeExportService  -->
<g id="edge7" class="edge">
<title>LearnroomModule&#45;&gt;CommonCartridgeExportService </title>
<path fill="none" stroke="black" stroke-dasharray="5,2" d="M2083.83,-181C2228.12,-181 2579.08,-181 2579.08,-181 2579.08,-181 2579.08,-205.76 2579.08,-205.76"/>
<polygon fill="black" stroke="black" points="2575.58,-205.76 2579.08,-215.76 2582.58,-205.76 2575.58,-205.76"/>
</g>
<!-- CommonCartridgeImportService  -->
<g id="node9" class="node">
<title>CommonCartridgeImportService </title>
<polygon fill="#fb8072" stroke="black" points="2527.07,-252 2322.93,-252 2322.93,-216 2527.07,-216 2527.07,-252"/>
<text text-anchor="middle" x="2425" y="-229.8" font-family="Times,serif" font-size="14.00">CommonCartridgeImportService </text>
</g>
<!-- LearnroomModule&#45;&gt;CommonCartridgeImportService  -->
<g id="edge8" class="edge">
<title>LearnroomModule&#45;&gt;CommonCartridgeImportService </title>
<path fill="none" stroke="black" stroke-dasharray="5,2" d="M2083.98,-183C2184.83,-183 2375.37,-183 2375.37,-183 2375.37,-183 2375.37,-205.88 2375.37,-205.88"/>
<polygon fill="black" stroke="black" points="2371.87,-205.88 2375.37,-215.88 2378.87,-205.88 2371.87,-205.88"/>
</g>
<!-- CourseCopyService  -->
<g id="node10" class="node">
<title>CourseCopyService </title>
<polygon fill="#fb8072" stroke="black" points="2304.97,-252 2173.03,-252 2173.03,-216 2304.97,-216 2304.97,-252"/>
<text text-anchor="middle" x="2239" y="-229.8" font-family="Times,serif" font-size="14.00">CourseCopyService </text>
</g>
<!-- LearnroomModule&#45;&gt;CourseCopyService  -->
<g id="edge9" class="edge">
<title>LearnroomModule&#45;&gt;CourseCopyService </title>
<path fill="none" stroke="black" stroke-dasharray="5,2" d="M2083.75,-185C2134.81,-185 2199.52,-185 2199.52,-185 2199.52,-185 2199.52,-205.75 2199.52,-205.75"/>
<polygon fill="black" stroke="black" points="2196.02,-205.75 2199.52,-215.75 2203.02,-205.75 2196.02,-205.75"/>
</g>
<!-- CourseDoService  -->
<g id="node11" class="node">
<title>CourseDoService </title>
<polygon fill="#fb8072" stroke="black" points="2155.24,-252 2036.76,-252 2036.76,-216 2155.24,-216 2155.24,-252"/>
<text text-anchor="middle" x="2096" y="-229.8" font-family="Times,serif" font-size="14.00">CourseDoService </text>
</g>
<!-- LearnroomModule&#45;&gt;CourseDoService  -->
<g id="edge10" class="edge">
<title>LearnroomModule&#45;&gt;CourseDoService </title>
<path fill="none" stroke="black" stroke-dasharray="5,2" d="M2060.38,-187.11C2060.38,-187.11 2060.38,-205.99 2060.38,-205.99"/>
<polygon fill="black" stroke="black" points="2056.88,-205.99 2060.38,-215.99 2063.88,-205.99 2056.88,-205.99"/>
</g>
<!-- CourseGroupService  -->
<g id="node12" class="node">
<title>CourseGroupService </title>
<polygon fill="#fb8072" stroke="black" points="2018.4,-252 1881.6,-252 1881.6,-216 2018.4,-216 2018.4,-252"/>
<text text-anchor="middle" x="1950" y="-229.8" font-family="Times,serif" font-size="14.00">CourseGroupService </text>
</g>
<!-- LearnroomModule&#45;&gt;CourseGroupService  -->
<g id="edge11" class="edge">
<title>LearnroomModule&#45;&gt;CourseGroupService </title>
<path fill="none" stroke="black" stroke-dasharray="5,2" d="M1990.29,-187.11C1990.29,-187.11 1990.29,-205.99 1990.29,-205.99"/>
<polygon fill="black" stroke="black" points="1986.79,-205.99 1990.29,-215.99 1993.79,-205.99 1986.79,-205.99"/>
</g>
<!-- CourseService  -->
<g id="node13" class="node">
<title>CourseService </title>
<polygon fill="#fb8072" stroke="black" points="1863.63,-252 1762.37,-252 1762.37,-216 1863.63,-216 1863.63,-252"/>
<text text-anchor="middle" x="1813" y="-229.8" font-family="Times,serif" font-size="14.00">CourseService </text>
</g>
<!-- LearnroomModule&#45;&gt;CourseService  -->
<g id="edge12" class="edge">
<title>LearnroomModule&#45;&gt;CourseService </title>
<path fill="none" stroke="black" stroke-dasharray="5,2" d="M1961.98,-185C1899.97,-185 1813,-185 1813,-185 1813,-185 1813,-205.75 1813,-205.75"/>
<polygon fill="black" stroke="black" points="1809.5,-205.75 1813,-215.75 1816.5,-205.75 1809.5,-205.75"/>
</g>
<!-- DashboardService  -->
<g id="node14" class="node">
<title>DashboardService </title>
<polygon fill="#fb8072" stroke="black" points="1744.12,-252 1621.88,-252 1621.88,-216 1744.12,-216 1744.12,-252"/>
<text text-anchor="middle" x="1683" y="-229.8" font-family="Times,serif" font-size="14.00">DashboardService </text>
</g>
<!-- LearnroomModule&#45;&gt;DashboardService  -->
<g id="edge13" class="edge">
<title>LearnroomModule&#45;&gt;DashboardService </title>
<path fill="none" stroke="black" stroke-dasharray="5,2" d="M1961.99,-183C1877.54,-183 1735.31,-183 1735.31,-183 1735.31,-183 1735.31,-205.88 1735.31,-205.88"/>
<polygon fill="black" stroke="black" points="1731.81,-205.88 1735.31,-215.88 1738.81,-205.88 1731.81,-205.88"/>
</g>
<!-- RoomsService  -->
<g id="node15" class="node">
<title>RoomsService </title>
<polygon fill="#fb8072" stroke="black" points="1603.65,-252 1502.35,-252 1502.35,-216 1603.65,-216 1603.65,-252"/>
<text text-anchor="middle" x="1553" y="-229.8" font-family="Times,serif" font-size="14.00">RoomsService </text>
</g>
<!-- LearnroomModule&#45;&gt;RoomsService  -->
<g id="edge14" class="edge">
<title>LearnroomModule&#45;&gt;RoomsService </title>
<path fill="none" stroke="black" stroke-dasharray="5,2" d="M1962.04,-181C1834.87,-181 1553,-181 1553,-181 1553,-181 1553,-205.76 1553,-205.76"/>
<polygon fill="black" stroke="black" points="1549.5,-205.76 1553,-215.76 1556.5,-205.76 1549.5,-205.76"/>
</g>
<!-- BoardCopyService -->
<g id="node16" class="node">
<title>BoardCopyService</title>
<ellipse fill="#fdb462" stroke="black" cx="4711" cy="-104" rx="84.53" ry="18"/>
<text text-anchor="middle" x="4711" y="-99.8" font-family="Times,serif" font-size="14.00">BoardCopyService</text>
</g>
<!-- BoardCopyService&#45;&gt;LearnroomModule -->
<g id="edge15" class="edge">
<title>BoardCopyService&#45;&gt;LearnroomModule</title>
<path fill="none" stroke="black" d="M4711,-122.29C4711,-144.21 4711,-178 4711,-178 4711,-178 2093.87,-178 2093.87,-178"/>
<polygon fill="black" stroke="black" points="2093.87,-174.5 2083.87,-178 2093.87,-181.5 2093.87,-174.5"/>
</g>
<!-- BoardNodeRepo -->
<g id="node17" class="node">
<title>BoardNodeRepo</title>
<ellipse fill="#fdb462" stroke="black" cx="4533" cy="-104" rx="75.87" ry="18"/>
<text text-anchor="middle" x="4533" y="-99.8" font-family="Times,serif" font-size="14.00">BoardNodeRepo</text>
</g>
<!-- BoardNodeRepo&#45;&gt;LearnroomModule -->
<g id="edge16" class="edge">
<title>BoardNodeRepo&#45;&gt;LearnroomModule</title>
<path fill="none" stroke="black" d="M4533,-122.17C4533,-143.5 4533,-176 4533,-176 4533,-176 2093.8,-176 2093.8,-176"/>
<polygon fill="black" stroke="black" points="2093.8,-172.5 2083.8,-176 2093.8,-179.5 2093.8,-172.5"/>
</g>
<!-- CommonCartridgeExportService -->
<g id="node18" class="node">
<title>CommonCartridgeExportService</title>
<ellipse fill="#fdb462" stroke="black" cx="4300" cy="-104" rx="138.89" ry="18"/>
<text text-anchor="middle" x="4300" y="-99.8" font-family="Times,serif" font-size="14.00">CommonCartridgeExportService</text>
</g>
<!-- CommonCartridgeExportService&#45;&gt;LearnroomModule -->
<g id="edge17" class="edge">
<title>CommonCartridgeExportService&#45;&gt;LearnroomModule</title>
<path fill="none" stroke="black" d="M4300,-122.03C4300,-142.77 4300,-174 4300,-174 4300,-174 2093.9,-174 2093.9,-174"/>
<polygon fill="black" stroke="black" points="2093.9,-170.5 2083.9,-174 2093.9,-177.5 2093.9,-170.5"/>
</g>
<!-- CommonCartridgeFileValidatorPipe -->
<g id="node19" class="node">
<title>CommonCartridgeFileValidatorPipe</title>
<ellipse fill="#fdb462" stroke="black" cx="3991" cy="-104" rx="152.22" ry="18"/>
<text text-anchor="middle" x="3991" y="-99.8" font-family="Times,serif" font-size="14.00">CommonCartridgeFileValidatorPipe</text>
</g>
<!-- CommonCartridgeFileValidatorPipe&#45;&gt;LearnroomModule -->
<g id="edge18" class="edge">
<title>CommonCartridgeFileValidatorPipe&#45;&gt;LearnroomModule</title>
<path fill="none" stroke="black" d="M3991,-122.22C3991,-142.37 3991,-172 3991,-172 3991,-172 2093.78,-172 2093.78,-172"/>
<polygon fill="black" stroke="black" points="2093.78,-168.5 2083.78,-172 2093.78,-175.5 2093.78,-168.5"/>
</g>
<!-- CommonCartridgeImportMapper -->
<g id="node20" class="node">
<title>CommonCartridgeImportMapper</title>
<ellipse fill="#fdb462" stroke="black" cx="3681" cy="-104" rx="139.53" ry="18"/>
<text text-anchor="middle" x="3681" y="-99.8" font-family="Times,serif" font-size="14.00">CommonCartridgeImportMapper</text>
</g>
<!-- CommonCartridgeImportMapper&#45;&gt;LearnroomModule -->
<g id="edge19" class="edge">
<title>CommonCartridgeImportMapper&#45;&gt;LearnroomModule</title>
<path fill="none" stroke="black" d="M3681,-122.11C3681,-141.34 3681,-169 3681,-169 3681,-169 2093.98,-169 2093.98,-169"/>
<polygon fill="black" stroke="black" points="2093.98,-165.5 2083.98,-169 2093.98,-172.5 2093.98,-165.5"/>
</g>
<!-- CommonCartridgeImportService -->
<g id="node21" class="node">
<title>CommonCartridgeImportService</title>
<ellipse fill="#fdb462" stroke="black" cx="3385" cy="-104" rx="138.88" ry="18"/>
<text text-anchor="middle" x="3385" y="-99.8" font-family="Times,serif" font-size="14.00">CommonCartridgeImportService</text>
</g>
<!-- CommonCartridgeImportService&#45;&gt;LearnroomModule -->
<g id="edge20" class="edge">
<title>CommonCartridgeImportService&#45;&gt;LearnroomModule</title>
<path fill="none" stroke="black" d="M3385,-122.22C3385,-140.83 3385,-167 3385,-167 3385,-167 2094.17,-167 2094.17,-167"/>
<polygon fill="black" stroke="black" points="2094.17,-163.5 2084.17,-167 2094.17,-170.5 2094.17,-163.5"/>
</g>
<!-- CommonCartridgeMapper -->
<g id="node22" class="node">
<title>CommonCartridgeMapper</title>
<ellipse fill="#fdb462" stroke="black" cx="3115" cy="-104" rx="113.47" ry="18"/>
<text text-anchor="middle" x="3115" y="-99.8" font-family="Times,serif" font-size="14.00">CommonCartridgeMapper</text>
</g>
<!-- CommonCartridgeMapper&#45;&gt;LearnroomModule -->
<g id="edge21" class="edge">
<title>CommonCartridgeMapper&#45;&gt;LearnroomModule</title>
<path fill="none" stroke="black" d="M3115,-122.3C3115,-140.27 3115,-165 3115,-165 3115,-165 2094.05,-165 2094.05,-165"/>
<polygon fill="black" stroke="black" points="2094.05,-161.5 2084.05,-165 2094.05,-168.5 2094.05,-161.5"/>
</g>
<!-- CourseCopyService -->
<g id="node23" class="node">
<title>CourseCopyService</title>
<ellipse fill="#fdb462" stroke="black" cx="2895" cy="-104" rx="88.04" ry="18"/>
<text text-anchor="middle" x="2895" y="-99.8" font-family="Times,serif" font-size="14.00">CourseCopyService</text>
</g>
<!-- CourseCopyService&#45;&gt;LearnroomModule -->
<g id="edge22" class="edge">
<title>CourseCopyService&#45;&gt;LearnroomModule</title>
<path fill="none" stroke="black" d="M2895,-122.02C2895,-139.37 2895,-163 2895,-163 2895,-163 2093.97,-163 2093.97,-163"/>
<polygon fill="black" stroke="black" points="2093.97,-159.5 2083.97,-163 2093.97,-166.5 2093.97,-159.5"/>
</g>
<!-- CourseDoService -->
<g id="node24" class="node">
<title>CourseDoService</title>
<ellipse fill="#fdb462" stroke="black" cx="2710" cy="-104" rx="79.29" ry="18"/>
<text text-anchor="middle" x="2710" y="-99.8" font-family="Times,serif" font-size="14.00">CourseDoService</text>
</g>
<!-- CourseDoService&#45;&gt;LearnroomModule -->
<g id="edge23" class="edge">
<title>CourseDoService&#45;&gt;LearnroomModule</title>
<path fill="none" stroke="black" d="M2690.57,-121.72C2690.57,-138.12 2690.57,-160 2690.57,-160 2690.57,-160 2094.01,-160 2094.01,-160"/>
<polygon fill="black" stroke="black" points="2094.01,-156.5 2084.01,-160 2094.01,-163.5 2094.01,-156.5"/>
</g>
<!-- CourseGroupRepo -->
<g id="node25" class="node">
<title>CourseGroupRepo</title>
<ellipse fill="#fdb462" stroke="black" cx="2529" cy="-104" rx="83.39" ry="18"/>
<text text-anchor="middle" x="2529" y="-99.8" font-family="Times,serif" font-size="14.00">CourseGroupRepo</text>
</g>
<!-- CourseGroupRepo&#45;&gt;LearnroomModule -->
<g id="edge24" class="edge">
<title>CourseGroupRepo&#45;&gt;LearnroomModule</title>
<path fill="none" stroke="black" d="M2486.42,-119.62C2486.42,-135.57 2486.42,-158 2486.42,-158 2486.42,-158 2094.06,-158 2094.06,-158"/>
<polygon fill="black" stroke="black" points="2094.06,-154.5 2084.06,-158 2094.06,-161.5 2094.06,-154.5"/>
</g>
<!-- CourseGroupService -->
<g id="node26" class="node">
<title>CourseGroupService</title>
<ellipse fill="#fdb462" stroke="black" cx="2336" cy="-104" rx="92.04" ry="18"/>
<text text-anchor="middle" x="2336" y="-99.8" font-family="Times,serif" font-size="14.00">CourseGroupService</text>
</g>
<!-- CourseGroupService&#45;&gt;LearnroomModule -->
<g id="edge25" class="edge">
<title>CourseGroupService&#45;&gt;LearnroomModule</title>
<path fill="none" stroke="black" d="M2274.36,-117.39C2274.36,-132.8 2274.36,-156 2274.36,-156 2274.36,-156 2093.85,-156 2093.85,-156"/>
<polygon fill="black" stroke="black" points="2093.85,-152.5 2083.85,-156 2093.85,-159.5 2093.85,-152.5"/>
</g>
<!-- CourseRepo -->
<g id="node27" class="node">
<title>CourseRepo</title>
<ellipse fill="#fdb462" stroke="black" cx="2167" cy="-104" rx="58.55" ry="18"/>
<text text-anchor="middle" x="2167" y="-99.8" font-family="Times,serif" font-size="14.00">CourseRepo</text>
</g>
<!-- CourseRepo&#45;&gt;LearnroomModule -->
<g id="edge26" class="edge">
<title>CourseRepo&#45;&gt;LearnroomModule</title>
<path fill="none" stroke="black" d="M2131.67,-118.46C2131.67,-133.23 2131.67,-154 2131.67,-154 2131.67,-154 2094.01,-154 2094.01,-154"/>
<polygon fill="black" stroke="black" points="2094.01,-150.5 2084.01,-154 2094.01,-157.5 2094.01,-150.5"/>
</g>
<!-- CourseService -->
<g id="node28" class="node">
<title>CourseService</title>
<ellipse fill="#fdb462" stroke="black" cx="2023" cy="-104" rx="67.19" ry="18"/>
<text text-anchor="middle" x="2023" y="-99.8" font-family="Times,serif" font-size="14.00">CourseService</text>
</g>
<!-- CourseService&#45;&gt;LearnroomModule -->
<g id="edge27" class="edge">
<title>CourseService&#45;&gt;LearnroomModule</title>
<path fill="none" stroke="black" d="M2023,-122.11C2023,-122.11 2023,-140.99 2023,-140.99"/>
<polygon fill="black" stroke="black" points="2019.5,-140.99 2023,-150.99 2026.5,-140.99 2019.5,-140.99"/>
</g>
<!-- DashboardElementRepo -->
<g id="node29" class="node">
<title>DashboardElementRepo</title>
<ellipse fill="#fdb462" stroke="black" cx="1832" cy="-104" rx="105.36" ry="18"/>
<text text-anchor="middle" x="1832" y="-99.8" font-family="Times,serif" font-size="14.00">DashboardElementRepo</text>
</g>
<!-- DashboardElementRepo&#45;&gt;LearnroomModule -->
<g id="edge28" class="edge">
<title>DashboardElementRepo&#45;&gt;LearnroomModule</title>
<path fill="none" stroke="black" d="M1909.49,-116.36C1909.49,-131.17 1909.49,-154 1909.49,-154 1909.49,-154 1951.93,-154 1951.93,-154"/>
<polygon fill="black" stroke="black" points="1951.93,-157.5 1961.93,-154 1951.93,-150.5 1951.93,-157.5"/>
</g>
<!-- DashboardModelMapper -->
<g id="node30" class="node">
<title>DashboardModelMapper</title>
<ellipse fill="#fdb462" stroke="black" cx="1600" cy="-104" rx="108.21" ry="18"/>
<text text-anchor="middle" x="1600" y="-99.8" font-family="Times,serif" font-size="14.00">DashboardModelMapper</text>
</g>
<!-- DashboardModelMapper&#45;&gt;LearnroomModule -->
<g id="edge29" class="edge">
<title>DashboardModelMapper&#45;&gt;LearnroomModule</title>
<path fill="none" stroke="black" d="M1665.02,-118.48C1665.02,-133.87 1665.02,-156 1665.02,-156 1665.02,-156 1951.87,-156 1951.87,-156"/>
<polygon fill="black" stroke="black" points="1951.87,-159.5 1961.87,-156 1951.87,-152.5 1951.87,-159.5"/>
</g>
<!-- DashboardService -->
<g id="node31" class="node">
<title>DashboardService</title>
<ellipse fill="#fdb462" stroke="black" cx="1392" cy="-104" rx="81.64" ry="18"/>
<text text-anchor="middle" x="1392" y="-99.8" font-family="Times,serif" font-size="14.00">DashboardService</text>
</g>
<!-- DashboardService&#45;&gt;LearnroomModule -->
<g id="edge30" class="edge">
<title>DashboardService&#45;&gt;LearnroomModule</title>
<path fill="none" stroke="black" d="M1392,-122.28C1392,-137.95 1392,-158 1392,-158 1392,-158 1952.21,-158 1952.21,-158"/>
<polygon fill="black" stroke="black" points="1952.21,-161.5 1962.21,-158 1952.21,-154.5 1952.21,-161.5"/>
</g>
<!-- LegacyBoardRepo -->
<g id="node32" class="node">
<title>LegacyBoardRepo</title>
<ellipse fill="#fdb462" stroke="black" cx="1209" cy="-104" rx="83.37" ry="18"/>
<text text-anchor="middle" x="1209" y="-99.8" font-family="Times,serif" font-size="14.00">LegacyBoardRepo</text>
</g>
<!-- LegacyBoardRepo&#45;&gt;LearnroomModule -->
<g id="edge31" class="edge">
<title>LegacyBoardRepo&#45;&gt;LearnroomModule</title>
<path fill="none" stroke="black" d="M1209,-122.03C1209,-138.4 1209,-160 1209,-160 1209,-160 1952.15,-160 1952.15,-160"/>
<polygon fill="black" stroke="black" points="1952.15,-163.5 1962.15,-160 1952.15,-156.5 1952.15,-163.5"/>
</g>
<!-- RoomsService -->
<g id="node33" class="node">
<title>RoomsService</title>
<ellipse fill="#fdb462" stroke="black" cx="1040" cy="-104" rx="67.21" ry="18"/>
<text text-anchor="middle" x="1040" y="-99.8" font-family="Times,serif" font-size="14.00">RoomsService</text>
</g>
<!-- RoomsService&#45;&gt;LearnroomModule -->
<g id="edge32" class="edge">
<title>RoomsService&#45;&gt;LearnroomModule</title>
<path fill="none" stroke="black" d="M1040,-122.02C1040,-139.37 1040,-163 1040,-163 1040,-163 1952.25,-163 1952.25,-163"/>
<polygon fill="black" stroke="black" points="1952.25,-166.5 1962.25,-163 1952.25,-159.5 1952.25,-166.5"/>
</g>
<!-- UserRepo -->
<g id="node34" class="node">
<title>UserRepo</title>
<ellipse fill="#fdb462" stroke="black" cx="905" cy="-104" rx="49.8" ry="18"/>
<text text-anchor="middle" x="905" y="-99.8" font-family="Times,serif" font-size="14.00">UserRepo</text>
</g>
<!-- UserRepo&#45;&gt;LearnroomModule -->
<g id="edge33" class="edge">
<title>UserRepo&#45;&gt;LearnroomModule</title>
<path fill="none" stroke="black" d="M905,-122.3C905,-140.27 905,-165 905,-165 905,-165 1952.1,-165 1952.1,-165"/>
<polygon fill="black" stroke="black" points="1952.1,-168.5 1962.1,-165 1952.1,-161.5 1952.1,-168.5"/>
</g>
</g>
</svg>
