<?xml version="1.0" encoding="UTF-8" standalone="no"?>
<!DOCTYPE svg PUBLIC "-//W3C//DTD SVG 1.1//EN"
 "http://www.w3.org/Graphics/SVG/1.1/DTD/svg11.dtd">
<!-- Generated by graphviz version 2.47.0 (20210316.0004)
 -->
<!-- Title: dependencies Pages: 1 -->
<svg width="4994pt" height="284pt"
 viewBox="0.00 0.00 4994.00 284.00" xmlns="http://www.w3.org/2000/svg" xmlns:xlink="http://www.w3.org/1999/xlink">
<g id="graph0" class="graph" transform="scale(1 1) rotate(0) translate(4 280)">
<title>dependencies</title>
<polygon fill="white" stroke="transparent" points="-4,4 -4,-280 4990,-280 4990,4 -4,4"/>
<text text-anchor="start" x="2472.01" y="-42.4" font-family="Times-12" font-weight="bold" font-size="14.00">Legend</text>
<polygon fill="#ffffb3" stroke="transparent" points="2259,-10 2259,-30 2279,-30 2279,-10 2259,-10"/>
<text text-anchor="start" x="2282.63" y="-15.4" font-family="Times-12" font-size="14.00"> &#160;Declarations</text>
<polygon fill="#8dd3c7" stroke="transparent" points="2372,-10 2372,-30 2392,-30 2392,-10 2372,-10"/>
<text text-anchor="start" x="2395.73" y="-15.4" font-family="Times-12" font-size="14.00"> &#160;Module</text>
<polygon fill="#80b1d3" stroke="transparent" points="2458,-10 2458,-30 2478,-30 2478,-10 2458,-10"/>
<text text-anchor="start" x="2481.78" y="-15.4" font-family="Times-12" font-size="14.00"> &#160;Bootstrap</text>
<polygon fill="#fdb462" stroke="transparent" points="2555,-10 2555,-30 2575,-30 2575,-10 2555,-10"/>
<text text-anchor="start" x="2578.67" y="-15.4" font-family="Times-12" font-size="14.00"> &#160;Providers</text>
<polygon fill="#fb8072" stroke="transparent" points="2651,-10 2651,-30 2671,-30 2671,-10 2651,-10"/>
<text text-anchor="start" x="2674.73" y="-15.4" font-family="Times-12" font-size="14.00"> &#160;Exports</text>
<g id="clust1" class="cluster">
<title>cluster_LearnroomModule</title>
<polygon fill="none" stroke="black" stroke-dasharray="1,5" points="8,-70 8,-268 4978,-268 4978,-70 8,-70"/>
</g>
<g id="clust4" class="cluster">
<title>cluster_LearnroomModule_exports</title>
<polygon fill="none" stroke="black" points="2122,-208 2122,-260 2389,-260 2389,-208 2122,-208"/>
</g>
<g id="clust6" class="cluster">
<title>cluster_LearnroomModule_providers</title>
<polygon fill="none" stroke="black" points="839,-78 839,-130 4970,-130 4970,-78 839,-78"/>
</g>
<g id="clust3" class="cluster">
<title>cluster_LearnroomModule_imports</title>
<polygon fill="none" stroke="black" points="16,-78 16,-130 831,-130 831,-78 16,-78"/>
</g>
<!-- AuthorizationModule -->
<g id="node1" class="node">
<title>AuthorizationModule</title>
<polygon fill="#8dd3c7" stroke="black" points="822.81,-122 819.81,-126 798.81,-126 795.81,-122 685.19,-122 685.19,-86 822.81,-86 822.81,-122"/>
<text text-anchor="middle" x="754" y="-99.8" font-family="Times,serif" font-size="14.00">AuthorizationModule</text>
</g>
<!-- LearnroomModule -->
<g id="node7" class="node">
<title>LearnroomModule</title>
<polygon fill="#8dd3c7" stroke="black" points="2308.74,-187 2305.74,-191 2284.74,-191 2281.74,-187 2187.26,-187 2187.26,-151 2308.74,-151 2308.74,-187"/>
<text text-anchor="middle" x="2248" y="-164.8" font-family="Times,serif" font-size="14.00">LearnroomModule</text>
</g>
<!-- AuthorizationModule&#45;&gt;LearnroomModule -->
<g id="edge1" class="edge">
<title>AuthorizationModule&#45;&gt;LearnroomModule</title>
<path fill="none" stroke="black" d="M754,-122.31C754,-142.15 754,-171 754,-171 754,-171 2177.12,-171 2177.12,-171"/>
<polygon fill="black" stroke="black" points="2177.12,-174.5 2187.12,-171 2177.12,-167.5 2177.12,-174.5"/>
</g>
<!-- BoardModule -->
<g id="node2" class="node">
<title>BoardModule</title>
<polygon fill="#8dd3c7" stroke="black" points="666.76,-122 663.76,-126 642.76,-126 639.76,-122 573.24,-122 573.24,-86 666.76,-86 666.76,-122"/>
<text text-anchor="middle" x="620" y="-99.8" font-family="Times,serif" font-size="14.00">BoardModule</text>
</g>
<!-- BoardModule&#45;&gt;LearnroomModule -->
<g id="edge2" class="edge">
<title>BoardModule&#45;&gt;LearnroomModule</title>
<path fill="none" stroke="black" d="M620,-122.13C620,-142.57 620,-173 620,-173 620,-173 2177.15,-173 2177.15,-173"/>
<polygon fill="black" stroke="black" points="2177.15,-176.5 2187.15,-173 2177.15,-169.5 2177.15,-176.5"/>
</g>
<!-- CopyHelperModule -->
<g id="node3" class="node">
<title>CopyHelperModule</title>
<polygon fill="#8dd3c7" stroke="black" points="554.97,-122 551.97,-126 530.97,-126 527.97,-122 427.03,-122 427.03,-86 554.97,-86 554.97,-122"/>
<text text-anchor="middle" x="491" y="-99.8" font-family="Times,serif" font-size="14.00">CopyHelperModule</text>
</g>
<!-- CopyHelperModule&#45;&gt;LearnroomModule -->
<g id="edge3" class="edge">
<title>CopyHelperModule&#45;&gt;LearnroomModule</title>
<path fill="none" stroke="black" d="M491,-122.28C491,-143.32 491,-175 491,-175 491,-175 2177.01,-175 2177.01,-175"/>
<polygon fill="black" stroke="black" points="2177.01,-178.5 2187.01,-175 2177.01,-171.5 2177.01,-178.5"/>
</g>
<!-- FilesStorageClientModule -->
<g id="node4" class="node">
<title>FilesStorageClientModule</title>
<polygon fill="#8dd3c7" stroke="black" points="408.76,-122 405.76,-126 384.76,-126 381.76,-122 245.24,-122 245.24,-86 408.76,-86 408.76,-122"/>
<text text-anchor="middle" x="327" y="-99.8" font-family="Times,serif" font-size="14.00">FilesStorageClientModule</text>
</g>
<!-- FilesStorageClientModule&#45;&gt;LearnroomModule -->
<g id="edge4" class="edge">
<title>FilesStorageClientModule&#45;&gt;LearnroomModule</title>
<path fill="none" stroke="black" d="M327,-122.29C327,-144.21 327,-178 327,-178 327,-178 2177.07,-178 2177.07,-178"/>
<polygon fill="black" stroke="black" points="2177.07,-181.5 2187.07,-178 2177.07,-174.5 2177.07,-181.5"/>
</g>
<!-- LessonModule -->
<g id="node5" class="node">
<title>LessonModule</title>
<polygon fill="#8dd3c7" stroke="black" points="227.71,-122 224.71,-126 203.71,-126 200.71,-122 128.29,-122 128.29,-86 227.71,-86 227.71,-122"/>
<text text-anchor="middle" x="178" y="-99.8" font-family="Times,serif" font-size="14.00">LessonModule</text>
</g>
<!-- LessonModule&#45;&gt;LearnroomModule -->
<g id="edge5" class="edge">
<title>LessonModule&#45;&gt;LearnroomModule</title>
<path fill="none" stroke="black" d="M178,-122.01C178,-144.49 178,-180 178,-180 178,-180 2177.17,-180 2177.17,-180"/>
<polygon fill="black" stroke="black" points="2177.17,-183.5 2187.17,-180 2177.17,-176.5 2177.17,-183.5"/>
</g>
<!-- TaskModule -->
<g id="node6" class="node">
<title>TaskModule</title>
<polygon fill="#8dd3c7" stroke="black" points="110.26,-122 107.26,-126 86.26,-126 83.26,-122 23.74,-122 23.74,-86 110.26,-86 110.26,-122"/>
<text text-anchor="middle" x="67" y="-99.8" font-family="Times,serif" font-size="14.00">TaskModule</text>
</g>
<!-- TaskModule&#45;&gt;LearnroomModule -->
<g id="edge6" class="edge">
<title>TaskModule&#45;&gt;LearnroomModule</title>
<path fill="none" stroke="black" d="M52.54,-122.38C52.54,-146.28 52.54,-185 52.54,-185 52.54,-185 2176.99,-185 2176.99,-185"/>
<polygon fill="black" stroke="black" points="2176.99,-188.5 2186.99,-185 2176.99,-181.5 2176.99,-188.5"/>
</g>
<!-- TaskModule&#45;&gt;LearnroomModule -->
<g id="edge7" class="edge">
<title>TaskModule&#45;&gt;LearnroomModule</title>
<path fill="none" stroke="black" d="M81.46,-122.32C81.46,-145.66 81.46,-183 81.46,-183 81.46,-183 2177.22,-183 2177.22,-183"/>
<polygon fill="black" stroke="black" points="2177.22,-186.5 2187.22,-183 2177.22,-179.5 2177.22,-186.5"/>
</g>
<!-- CourseCopyService  -->
<g id="node8" class="node">
<title>CourseCopyService </title>
<polygon fill="#fb8072" stroke="black" points="2380.97,-252 2249.03,-252 2249.03,-216 2380.97,-216 2380.97,-252"/>
<text text-anchor="middle" x="2315" y="-229.8" font-family="Times,serif" font-size="14.00">CourseCopyService </text>
</g>
<!-- LearnroomModule&#45;&gt;CourseCopyService  -->
<g id="edge8" class="edge">
<title>LearnroomModule&#45;&gt;CourseCopyService </title>
<path fill="none" stroke="black" stroke-dasharray="5,2" d="M2279.07,-187.11C2279.07,-187.11 2279.07,-205.99 2279.07,-205.99"/>
<polygon fill="black" stroke="black" points="2275.57,-205.99 2279.07,-215.99 2282.57,-205.99 2275.57,-205.99"/>
</g>
<!-- CourseService  -->
<g id="node9" class="node">
<title>CourseService </title>
<polygon fill="#fb8072" stroke="black" points="2231.63,-252 2130.37,-252 2130.37,-216 2231.63,-216 2231.63,-252"/>
<text text-anchor="middle" x="2181" y="-229.8" font-family="Times,serif" font-size="14.00">CourseService </text>
</g>
<!-- LearnroomModule&#45;&gt;CourseService  -->
<g id="edge9" class="edge">
<title>LearnroomModule&#45;&gt;CourseService </title>
<path fill="none" stroke="black" stroke-dasharray="5,2" d="M2209.35,-187.11C2209.35,-187.11 2209.35,-205.99 2209.35,-205.99"/>
<polygon fill="black" stroke="black" points="2205.85,-205.99 2209.35,-215.99 2212.85,-205.99 2205.85,-205.99"/>
</g>
<!-- BoardCopyService -->
<g id="node10" class="node">
<title>BoardCopyService</title>
<ellipse fill="#fdb462" stroke="black" cx="4877" cy="-104" rx="84.53" ry="18"/>
<text text-anchor="middle" x="4877" y="-99.8" font-family="Times,serif" font-size="14.00">BoardCopyService</text>
</g>
<!-- BoardCopyService&#45;&gt;LearnroomModule -->
<g id="edge10" class="edge">
<title>BoardCopyService&#45;&gt;LearnroomModule</title>
<path fill="none" stroke="black" d="M4877,-122.38C4877,-146.28 4877,-185 4877,-185 4877,-185 2318.8,-185 2318.8,-185"/>
<polygon fill="black" stroke="black" points="2318.8,-181.5 2308.8,-185 2318.8,-188.5 2318.8,-181.5"/>
</g>
<!-- BoardRepo -->
<g id="node11" class="node">
<title>BoardRepo</title>
<ellipse fill="#fdb462" stroke="black" cx="4719" cy="-104" rx="55.04" ry="18"/>
<text text-anchor="middle" x="4719" y="-99.8" font-family="Times,serif" font-size="14.00">BoardRepo</text>
</g>
<!-- BoardRepo&#45;&gt;LearnroomModule -->
<g id="edge11" class="edge">
<title>BoardRepo&#45;&gt;LearnroomModule</title>
<path fill="none" stroke="black" d="M4719,-122.32C4719,-145.66 4719,-183 4719,-183 4719,-183 2318.77,-183 2318.77,-183"/>
<polygon fill="black" stroke="black" points="2318.77,-179.5 2308.77,-183 2318.77,-186.5 2318.77,-179.5"/>
</g>
<!-- ColumnBoardTargetService -->
<g id="node12" class="node">
<title>ColumnBoardTargetService</title>
<ellipse fill="#fdb462" stroke="black" cx="4526" cy="-104" rx="119.82" ry="18"/>
<text text-anchor="middle" x="4526" y="-99.8" font-family="Times,serif" font-size="14.00">ColumnBoardTargetService</text>
</g>
<!-- ColumnBoardTargetService&#45;&gt;LearnroomModule -->
<g id="edge12" class="edge">
<title>ColumnBoardTargetService&#45;&gt;LearnroomModule</title>
<path fill="none" stroke="black" d="M4526,-122.01C4526,-144.49 4526,-180 4526,-180 4526,-180 2318.93,-180 2318.93,-180"/>
<polygon fill="black" stroke="black" points="2318.93,-176.5 2308.93,-180 2318.93,-183.5 2318.93,-176.5"/>
</g>
<!-- CommonCartridgeExportService -->
<g id="node13" class="node">
<title>CommonCartridgeExportService</title>
<ellipse fill="#fdb462" stroke="black" cx="4249" cy="-104" rx="138.89" ry="18"/>
<text text-anchor="middle" x="4249" y="-99.8" font-family="Times,serif" font-size="14.00">CommonCartridgeExportService</text>
</g>
<!-- CommonCartridgeExportService&#45;&gt;LearnroomModule -->
<g id="edge13" class="edge">
<title>CommonCartridgeExportService&#45;&gt;LearnroomModule</title>
<path fill="none" stroke="black" d="M4249,-122.29C4249,-144.21 4249,-178 4249,-178 4249,-178 2318.98,-178 2318.98,-178"/>
<polygon fill="black" stroke="black" points="2318.98,-174.5 2308.98,-178 2318.98,-181.5 2318.98,-174.5"/>
</g>
<!-- CourseCopyService -->
<g id="node14" class="node">
<title>CourseCopyService</title>
<ellipse fill="#fdb462" stroke="black" cx="4004" cy="-104" rx="88.04" ry="18"/>
<text text-anchor="middle" x="4004" y="-99.8" font-family="Times,serif" font-size="14.00">CourseCopyService</text>
</g>
<!-- CourseCopyService&#45;&gt;LearnroomModule -->
<g id="edge14" class="edge">
<title>CourseCopyService&#45;&gt;LearnroomModule</title>
<path fill="none" stroke="black" d="M4004,-122.28C4004,-143.32 4004,-175 4004,-175 4004,-175 2318.96,-175 2318.96,-175"/>
<polygon fill="black" stroke="black" points="2318.96,-171.5 2308.96,-175 2318.96,-178.5 2318.96,-171.5"/>
</g>
<!-- CourseCopyUC -->
<g id="node15" class="node">
<title>CourseCopyUC</title>
<ellipse fill="#fdb462" stroke="black" cx="3825" cy="-104" rx="72.96" ry="18"/>
<text text-anchor="middle" x="3825" y="-99.8" font-family="Times,serif" font-size="14.00">CourseCopyUC</text>
</g>
<!-- CourseCopyUC&#45;&gt;LearnroomModule -->
<g id="edge15" class="edge">
<title>CourseCopyUC&#45;&gt;LearnroomModule</title>
<path fill="none" stroke="black" d="M3825,-122.13C3825,-142.57 3825,-173 3825,-173 3825,-173 2318.85,-173 2318.85,-173"/>
<polygon fill="black" stroke="black" points="2318.85,-169.5 2308.85,-173 2318.85,-176.5 2318.85,-169.5"/>
</g>
<!-- CourseExportUc -->
<g id="node16" class="node">
<title>CourseExportUc</title>
<ellipse fill="#fdb462" stroke="black" cx="3658" cy="-104" rx="75.86" ry="18"/>
<text text-anchor="middle" x="3658" y="-99.8" font-family="Times,serif" font-size="14.00">CourseExportUc</text>
</g>
<!-- CourseExportUc&#45;&gt;LearnroomModule -->
<g id="edge16" class="edge">
<title>CourseExportUc&#45;&gt;LearnroomModule</title>
<path fill="none" stroke="black" d="M3658,-122.31C3658,-142.15 3658,-171 3658,-171 3658,-171 2319.04,-171 2319.04,-171"/>
<polygon fill="black" stroke="black" points="2319.04,-167.5 2309.04,-171 2319.04,-174.5 2319.04,-167.5"/>
</g>
<!-- CourseRepo -->
<g id="node17" class="node">
<title>CourseRepo</title>
<ellipse fill="#fdb462" stroke="black" cx="3505" cy="-104" rx="58.55" ry="18"/>
<text text-anchor="middle" x="3505" y="-99.8" font-family="Times,serif" font-size="14.00">CourseRepo</text>
</g>
<!-- CourseRepo&#45;&gt;LearnroomModule -->
<g id="edge17" class="edge">
<title>CourseRepo&#45;&gt;LearnroomModule</title>
<path fill="none" stroke="black" d="M3505,-122.17C3505,-141.09 3505,-168 3505,-168 3505,-168 2319.05,-168 2319.05,-168"/>
<polygon fill="black" stroke="black" points="2319.05,-164.5 2309.05,-168 2319.05,-171.5 2319.05,-164.5"/>
</g>
<!-- CourseService -->
<g id="node18" class="node">
<title>CourseService</title>
<ellipse fill="#fdb462" stroke="black" cx="3361" cy="-104" rx="67.19" ry="18"/>
<text text-anchor="middle" x="3361" y="-99.8" font-family="Times,serif" font-size="14.00">CourseService</text>
</g>
<!-- CourseService&#45;&gt;LearnroomModule -->
<g id="edge18" class="edge">
<title>CourseService&#45;&gt;LearnroomModule</title>
<path fill="none" stroke="black" d="M3361,-122.27C3361,-140.56 3361,-166 3361,-166 3361,-166 2319.03,-166 2319.03,-166"/>
<polygon fill="black" stroke="black" points="2319.03,-162.5 2309.03,-166 2319.03,-169.5 2319.03,-162.5"/>
</g>
<!-- CourseUc -->
<g id="node19" class="node">
<title>CourseUc</title>
<ellipse fill="#fdb462" stroke="black" cx="3226" cy="-104" rx="49.8" ry="18"/>
<text text-anchor="middle" x="3226" y="-99.8" font-family="Times,serif" font-size="14.00">CourseUc</text>
</g>
<!-- CourseUc&#45;&gt;LearnroomModule -->
<g id="edge19" class="edge">
<title>CourseUc&#45;&gt;LearnroomModule</title>
<path fill="none" stroke="black" d="M3226,-122.02C3226,-139.37 3226,-163 3226,-163 3226,-163 2318.81,-163 2318.81,-163"/>
<polygon fill="black" stroke="black" points="2318.81,-159.5 2308.81,-163 2318.81,-166.5 2318.81,-159.5"/>
</g>
<!-- DashboardModelMapper -->
<g id="node20" class="node">
<title>DashboardModelMapper</title>
<ellipse fill="#fdb462" stroke="black" cx="3050" cy="-104" rx="108.21" ry="18"/>
<text text-anchor="middle" x="3050" y="-99.8" font-family="Times,serif" font-size="14.00">DashboardModelMapper</text>
</g>
<!-- DashboardModelMapper&#45;&gt;LearnroomModule -->
<g id="edge20" class="edge">
<title>DashboardModelMapper&#45;&gt;LearnroomModule</title>
<path fill="none" stroke="black" d="M3050,-122.04C3050,-138.73 3050,-161 3050,-161 3050,-161 2318.94,-161 2318.94,-161"/>
<polygon fill="black" stroke="black" points="2318.94,-157.5 2308.94,-161 2318.94,-164.5 2318.94,-157.5"/>
</g>
<!-- DashboardUc -->
<g id="node21" class="node">
<title>DashboardUc</title>
<ellipse fill="#fdb462" stroke="black" cx="2860" cy="-104" rx="64.25" ry="18"/>
<text text-anchor="middle" x="2860" y="-99.8" font-family="Times,serif" font-size="14.00">DashboardUc</text>
</g>
<!-- DashboardUc&#45;&gt;LearnroomModule -->
<g id="edge21" class="edge">
<title>DashboardUc&#45;&gt;LearnroomModule</title>
<path fill="none" stroke="black" d="M2860,-122.01C2860,-138.05 2860,-159 2860,-159 2860,-159 2318.92,-159 2318.92,-159"/>
<polygon fill="black" stroke="black" points="2318.92,-155.5 2308.92,-159 2318.92,-162.5 2318.92,-155.5"/>
</g>
<!-- FeathersServiceProvider -->
<g id="node22" class="node">
<title>FeathersServiceProvider</title>
<ellipse fill="#fdb462" stroke="black" cx="2672" cy="-104" rx="105.91" ry="18"/>
<text text-anchor="middle" x="2672" y="-99.8" font-family="Times,serif" font-size="14.00">FeathersServiceProvider</text>
</g>
<!-- FeathersServiceProvider&#45;&gt;LearnroomModule -->
<g id="edge22" class="edge">
<title>FeathersServiceProvider&#45;&gt;LearnroomModule</title>
<path fill="none" stroke="black" d="M2672,-122.19C2672,-137.18 2672,-156 2672,-156 2672,-156 2318.75,-156 2318.75,-156"/>
<polygon fill="black" stroke="black" points="2318.75,-152.5 2308.75,-156 2318.75,-159.5 2318.75,-152.5"/>
</g>
<!-- LegacyLogger -->
<g id="node23" class="node">
<title>LegacyLogger</title>
<ellipse fill="#fdb462" stroke="black" cx="2481" cy="-104" rx="67.18" ry="18"/>
<text text-anchor="middle" x="2481" y="-99.8" font-family="Times,serif" font-size="14.00">LegacyLogger</text>
</g>
<!-- LegacyLogger&#45;&gt;LearnroomModule -->
<g id="edge23" class="edge">
<title>LegacyLogger&#45;&gt;LearnroomModule</title>
<path fill="none" stroke="black" d="M2481,-122.05C2481,-136.37 2481,-154 2481,-154 2481,-154 2318.91,-154 2318.91,-154"/>
<polygon fill="black" stroke="black" points="2318.91,-150.5 2308.91,-154 2318.91,-157.5 2318.91,-150.5"/>
</g>
<!-- LessonCopyUC -->
<g id="node24" class="node">
<title>LessonCopyUC</title>
<ellipse fill="#fdb462" stroke="black" cx="2323" cy="-104" rx="72.96" ry="18"/>
<text text-anchor="middle" x="2323" y="-99.8" font-family="Times,serif" font-size="14.00">LessonCopyUC</text>
</g>
<!-- LessonCopyUC&#45;&gt;LearnroomModule -->
<g id="edge24" class="edge">
<title>LessonCopyUC&#45;&gt;LearnroomModule</title>
<path fill="none" stroke="black" d="M2279.57,-118.75C2279.57,-118.75 2279.57,-140.59 2279.57,-140.59"/>
<polygon fill="black" stroke="black" points="2276.07,-140.59 2279.57,-150.59 2283.07,-140.59 2276.07,-140.59"/>
</g>
<!-- LessonRepo -->
<g id="node25" class="node">
<title>LessonRepo</title>
<ellipse fill="#fdb462" stroke="black" cx="2173" cy="-104" rx="58.55" ry="18"/>
<text text-anchor="middle" x="2173" y="-99.8" font-family="Times,serif" font-size="14.00">LessonRepo</text>
</g>
<!-- LessonRepo&#45;&gt;LearnroomModule -->
<g id="edge25" class="edge">
<title>LessonRepo&#45;&gt;LearnroomModule</title>
<path fill="none" stroke="black" d="M2209.45,-118.43C2209.45,-118.43 2209.45,-140.89 2209.45,-140.89"/>
<polygon fill="black" stroke="black" points="2205.95,-140.89 2209.45,-150.89 2212.95,-140.89 2205.95,-140.89"/>
</g>
<!-- RoomBoardDTOFactory -->
<g id="node26" class="node">
<title>RoomBoardDTOFactory</title>
<ellipse fill="#fdb462" stroke="black" cx="1989" cy="-104" rx="107.67" ry="18"/>
<text text-anchor="middle" x="1989" y="-99.8" font-family="Times,serif" font-size="14.00">RoomBoardDTOFactory</text>
</g>
<!-- RoomBoardDTOFactory&#45;&gt;LearnroomModule -->
<g id="edge26" class="edge">
<title>RoomBoardDTOFactory&#45;&gt;LearnroomModule</title>
<path fill="none" stroke="black" d="M1989,-122.05C1989,-136.37 1989,-154 1989,-154 1989,-154 2176.95,-154 2176.95,-154"/>
<polygon fill="black" stroke="black" points="2176.95,-157.5 2186.95,-154 2176.95,-150.5 2176.95,-157.5"/>
</g>
<!-- RoomBoardResponseMapper -->
<g id="node27" class="node">
<title>RoomBoardResponseMapper</title>
<ellipse fill="#fdb462" stroke="black" cx="1738" cy="-104" rx="125.07" ry="18"/>
<text text-anchor="middle" x="1738" y="-99.8" font-family="Times,serif" font-size="14.00">RoomBoardResponseMapper</text>
</g>
<!-- RoomBoardResponseMapper&#45;&gt;LearnroomModule -->
<g id="edge27" class="edge">
<title>RoomBoardResponseMapper&#45;&gt;LearnroomModule</title>
<path fill="none" stroke="black" d="M1738,-122.19C1738,-137.18 1738,-156 1738,-156 1738,-156 2177.24,-156 2177.24,-156"/>
<polygon fill="black" stroke="black" points="2177.24,-159.5 2187.24,-156 2177.24,-152.5 2177.24,-159.5"/>
</g>
<!-- RoomsAuthorisationService -->
<g id="node28" class="node">
<title>RoomsAuthorisationService</title>
<ellipse fill="#fdb462" stroke="black" cx="1474" cy="-104" rx="120.42" ry="18"/>
<text text-anchor="middle" x="1474" y="-99.8" font-family="Times,serif" font-size="14.00">RoomsAuthorisationService</text>
</g>
<!-- RoomsAuthorisationService&#45;&gt;LearnroomModule -->
<g id="edge28" class="edge">
<title>RoomsAuthorisationService&#45;&gt;LearnroomModule</title>
<path fill="none" stroke="black" d="M1474,-122.01C1474,-138.05 1474,-159 1474,-159 1474,-159 2176.94,-159 2176.94,-159"/>
<polygon fill="black" stroke="black" points="2176.94,-162.5 2186.94,-159 2176.94,-155.5 2176.94,-162.5"/>
</g>
<!-- RoomsService -->
<g id="node29" class="node">
<title>RoomsService</title>
<ellipse fill="#fdb462" stroke="black" cx="1268" cy="-104" rx="67.21" ry="18"/>
<text text-anchor="middle" x="1268" y="-99.8" font-family="Times,serif" font-size="14.00">RoomsService</text>
</g>
<!-- RoomsService&#45;&gt;LearnroomModule -->
<g id="edge29" class="edge">
<title>RoomsService&#45;&gt;LearnroomModule</title>
<path fill="none" stroke="black" d="M1268,-122.04C1268,-138.73 1268,-161 1268,-161 1268,-161 2177.07,-161 2177.07,-161"/>
<polygon fill="black" stroke="black" points="2177.07,-164.5 2187.07,-161 2177.07,-157.5 2177.07,-164.5"/>
</g>
<!-- RoomsUc -->
<g id="node30" class="node">
<title>RoomsUc</title>
<ellipse fill="#fdb462" stroke="black" cx="1133" cy="-104" rx="49.82" ry="18"/>
<text text-anchor="middle" x="1133" y="-99.8" font-family="Times,serif" font-size="14.00">RoomsUc</text>
</g>
<!-- RoomsUc&#45;&gt;LearnroomModule -->
<g id="edge30" class="edge">
<title>RoomsUc&#45;&gt;LearnroomModule</title>
<path fill="none" stroke="black" d="M1133,-122.02C1133,-139.37 1133,-163 1133,-163 1133,-163 2176.86,-163 2176.86,-163"/>
<polygon fill="black" stroke="black" points="2176.86,-166.5 2186.86,-163 2176.86,-159.5 2176.86,-166.5"/>
</g>
<!-- TaskRepo -->
<g id="node31" class="node">
<title>TaskRepo</title>
<ellipse fill="#fdb462" stroke="black" cx="1015" cy="-104" rx="50.38" ry="18"/>
<text text-anchor="middle" x="1015" y="-99.8" font-family="Times,serif" font-size="14.00">TaskRepo</text>
</g>
<!-- TaskRepo&#45;&gt;LearnroomModule -->
<g id="edge31" class="edge">
<title>TaskRepo&#45;&gt;LearnroomModule</title>
<path fill="none" stroke="black" d="M1015,-122.27C1015,-140.56 1015,-166 1015,-166 1015,-166 2176.86,-166 2176.86,-166"/>
<polygon fill="black" stroke="black" points="2176.86,-169.5 2186.86,-166 2176.86,-162.5 2176.86,-169.5"/>
</g>
<!-- UserRepo -->
<g id="node32" class="node">
<title>UserRepo</title>
<ellipse fill="#fdb462" stroke="black" cx="897" cy="-104" rx="49.8" ry="18"/>
<text text-anchor="middle" x="897" y="-99.8" font-family="Times,serif" font-size="14.00">UserRepo</text>
</g>
<!-- UserRepo&#45;&gt;LearnroomModule -->
<g id="edge32" class="edge">
<title>UserRepo&#45;&gt;LearnroomModule</title>
<path fill="none" stroke="black" d="M897,-122.17C897,-141.09 897,-168 897,-168 897,-168 2176.88,-168 2176.88,-168"/>
<polygon fill="black" stroke="black" points="2176.88,-171.5 2186.88,-168 2176.88,-164.5 2176.88,-171.5"/>
</g>
</g>
</svg>
