<?xml version="1.0" encoding="UTF-8" standalone="no"?>
<!DOCTYPE svg PUBLIC "-//W3C//DTD SVG 1.1//EN"
 "http://www.w3.org/Graphics/SVG/1.1/DTD/svg11.dtd">
<!-- Generated by graphviz version 2.47.0 (20210316.0004)
 -->
<!-- Title: dependencies Pages: 1 -->
<svg width="4828pt" height="284pt"
 viewBox="0.00 0.00 4828.00 284.00" xmlns="http://www.w3.org/2000/svg" xmlns:xlink="http://www.w3.org/1999/xlink">
<g id="graph0" class="graph" transform="scale(1 1) rotate(0) translate(4 280)">
<title>dependencies</title>
<polygon fill="white" stroke="transparent" points="-4,4 -4,-280 4824,-280 4824,4 -4,4"/>
<text text-anchor="start" x="2389.01" y="-42.4" font-family="Times-12" font-weight="bold" font-size="14.00">Legend</text>
<polygon fill="#ffffb3" stroke="transparent" points="2176,-10 2176,-30 2196,-30 2196,-10 2176,-10"/>
<text text-anchor="start" x="2199.63" y="-15.4" font-family="Times-12" font-size="14.00"> &#160;Declarations</text>
<polygon fill="#8dd3c7" stroke="transparent" points="2289,-10 2289,-30 2309,-30 2309,-10 2289,-10"/>
<text text-anchor="start" x="2312.73" y="-15.4" font-family="Times-12" font-size="14.00"> &#160;Module</text>
<polygon fill="#80b1d3" stroke="transparent" points="2375,-10 2375,-30 2395,-30 2395,-10 2375,-10"/>
<text text-anchor="start" x="2398.78" y="-15.4" font-family="Times-12" font-size="14.00"> &#160;Bootstrap</text>
<polygon fill="#fdb462" stroke="transparent" points="2472,-10 2472,-30 2492,-30 2492,-10 2472,-10"/>
<text text-anchor="start" x="2495.67" y="-15.4" font-family="Times-12" font-size="14.00"> &#160;Providers</text>
<polygon fill="#fb8072" stroke="transparent" points="2568,-10 2568,-30 2588,-30 2588,-10 2568,-10"/>
<text text-anchor="start" x="2591.73" y="-15.4" font-family="Times-12" font-size="14.00"> &#160;Exports</text>
<g id="clust1" class="cluster">
<title>cluster_LearnroomModule</title>
<polygon fill="none" stroke="black" stroke-dasharray="1,5" points="8,-70 8,-268 4812,-268 4812,-70 8,-70"/>
</g>
<g id="clust3" class="cluster">
<title>cluster_LearnroomModule_imports</title>
<polygon fill="none" stroke="black" points="3981,-78 3981,-130 4804,-130 4804,-78 3981,-78"/>
</g>
<g id="clust6" class="cluster">
<title>cluster_LearnroomModule_providers</title>
<polygon fill="none" stroke="black" points="16,-78 16,-130 3973,-130 3973,-78 16,-78"/>
</g>
<g id="clust4" class="cluster">
<title>cluster_LearnroomModule_exports</title>
<polygon fill="none" stroke="black" points="1755,-208 1755,-260 3019,-260 3019,-208 1755,-208"/>
</g>
<!-- ContextExternalToolModule -->
<g id="node1" class="node">
<title>ContextExternalToolModule</title>
<polygon fill="#8dd3c7" stroke="black" points="4795.75,-122 4792.75,-126 4771.75,-126 4768.75,-122 4618.25,-122 4618.25,-86 4795.75,-86 4795.75,-122"/>
<text text-anchor="middle" x="4707" y="-99.8" font-family="Times,serif" font-size="14.00">ContextExternalToolModule</text>
</g>
<!-- LearnroomModule -->
<g id="node7" class="node">
<title>LearnroomModule</title>
<polygon fill="#8dd3c7" stroke="black" points="2344.74,-187 2341.74,-191 2320.74,-191 2317.74,-187 2223.26,-187 2223.26,-151 2344.74,-151 2344.74,-187"/>
<text text-anchor="middle" x="2284" y="-164.8" font-family="Times,serif" font-size="14.00">LearnroomModule</text>
</g>
<!-- ContextExternalToolModule&#45;&gt;LearnroomModule -->
<g id="edge1" class="edge">
<title>ContextExternalToolModule&#45;&gt;LearnroomModule</title>
<path fill="none" stroke="black" d="M4707,-122.29C4707,-144.21 4707,-178 4707,-178 4707,-178 2354.8,-178 2354.8,-178"/>
<polygon fill="black" stroke="black" points="2354.8,-174.5 2344.8,-178 2354.8,-181.5 2354.8,-174.5"/>
</g>
<!-- CopyHelperModule -->
<g id="node2" class="node">
<title>CopyHelperModule</title>
<polygon fill="#8dd3c7" stroke="black" points="4599.97,-122 4596.97,-126 4575.97,-126 4572.97,-122 4472.03,-122 4472.03,-86 4599.97,-86 4599.97,-122"/>
<text text-anchor="middle" x="4536" y="-99.8" font-family="Times,serif" font-size="14.00">CopyHelperModule</text>
</g>
<!-- CopyHelperModule&#45;&gt;LearnroomModule -->
<g id="edge2" class="edge">
<title>CopyHelperModule&#45;&gt;LearnroomModule</title>
<path fill="none" stroke="black" d="M4536,-122.17C4536,-143.5 4536,-176 4536,-176 4536,-176 2354.82,-176 2354.82,-176"/>
<polygon fill="black" stroke="black" points="2354.82,-172.5 2344.82,-176 2354.82,-179.5 2354.82,-172.5"/>
</g>
<!-- LessonModule -->
<g id="node3" class="node">
<title>LessonModule</title>
<polygon fill="#8dd3c7" stroke="black" points="4453.71,-122 4450.71,-126 4429.71,-126 4426.71,-122 4354.29,-122 4354.29,-86 4453.71,-86 4453.71,-122"/>
<text text-anchor="middle" x="4404" y="-99.8" font-family="Times,serif" font-size="14.00">LessonModule</text>
</g>
<!-- LessonModule&#45;&gt;LearnroomModule -->
<g id="edge3" class="edge">
<title>LessonModule&#45;&gt;LearnroomModule</title>
<path fill="none" stroke="black" d="M4404,-122.03C4404,-142.77 4404,-174 4404,-174 4404,-174 2354.88,-174 2354.88,-174"/>
<polygon fill="black" stroke="black" points="2354.88,-170.5 2344.88,-174 2354.88,-177.5 2354.88,-170.5"/>
</g>
<!-- LoggerModule -->
<g id="node4" class="node">
<title>LoggerModule</title>
<polygon fill="#8dd3c7" stroke="black" points="4335.98,-122 4332.98,-126 4311.98,-126 4308.98,-122 4236.02,-122 4236.02,-86 4335.98,-86 4335.98,-122"/>
<text text-anchor="middle" x="4286" y="-99.8" font-family="Times,serif" font-size="14.00">LoggerModule</text>
</g>
<!-- LoggerModule&#45;&gt;LearnroomModule -->
<g id="edge4" class="edge">
<title>LoggerModule&#45;&gt;LearnroomModule</title>
<path fill="none" stroke="black" d="M4286,-122.22C4286,-142.37 4286,-172 4286,-172 4286,-172 2355.01,-172 2355.01,-172"/>
<polygon fill="black" stroke="black" points="2355.01,-168.5 2345.01,-172 2355.01,-175.5 2355.01,-168.5"/>
</g>
<!-- TaskModule -->
<g id="node5" class="node">
<title>TaskModule</title>
<polygon fill="#8dd3c7" stroke="black" points="4218.26,-122 4215.26,-126 4194.26,-126 4191.26,-122 4131.74,-122 4131.74,-86 4218.26,-86 4218.26,-122"/>
<text text-anchor="middle" x="4175" y="-99.8" font-family="Times,serif" font-size="14.00">TaskModule</text>
</g>
<!-- TaskModule&#45;&gt;LearnroomModule -->
<g id="edge5" class="edge">
<title>TaskModule&#45;&gt;LearnroomModule</title>
<path fill="none" stroke="black" d="M4175,-122.11C4175,-141.34 4175,-169 4175,-169 4175,-169 2354.78,-169 2354.78,-169"/>
<polygon fill="black" stroke="black" points="2354.78,-165.5 2344.78,-169 2354.78,-172.5 2354.78,-165.5"/>
</g>
<!-- ToolConfigModule -->
<g id="node6" class="node">
<title>ToolConfigModule</title>
<polygon fill="#8dd3c7" stroke="black" points="4113.38,-122 4110.38,-126 4089.38,-126 4086.38,-122 3988.62,-122 3988.62,-86 4113.38,-86 4113.38,-122"/>
<text text-anchor="middle" x="4051" y="-99.8" font-family="Times,serif" font-size="14.00">ToolConfigModule</text>
</g>
<!-- ToolConfigModule&#45;&gt;LearnroomModule -->
<g id="edge6" class="edge">
<title>ToolConfigModule&#45;&gt;LearnroomModule</title>
<path fill="none" stroke="black" d="M4051,-122.22C4051,-140.83 4051,-167 4051,-167 4051,-167 2354.82,-167 2354.82,-167"/>
<polygon fill="black" stroke="black" points="2354.82,-163.5 2344.82,-167 2354.82,-170.5 2354.82,-163.5"/>
</g>
<!-- CommonCartridgeExportService  -->
<g id="node8" class="node">
<title>CommonCartridgeExportService </title>
<polygon fill="#fb8072" stroke="black" points="3011.07,-252 2806.93,-252 2806.93,-216 3011.07,-216 3011.07,-252"/>
<text text-anchor="middle" x="2909" y="-229.8" font-family="Times,serif" font-size="14.00">CommonCartridgeExportService </text>
</g>
<!-- LearnroomModule&#45;&gt;CommonCartridgeExportService  -->
<g id="edge7" class="edge">
<title>LearnroomModule&#45;&gt;CommonCartridgeExportService </title>
<path fill="none" stroke="black" stroke-dasharray="5,2" d="M2344.86,-181C2500.02,-181 2898.24,-181 2898.24,-181 2898.24,-181 2898.24,-205.76 2898.24,-205.76"/>
<polygon fill="black" stroke="black" points="2894.74,-205.76 2898.24,-215.76 2901.74,-205.76 2894.74,-205.76"/>
</g>
<!-- CommonCartridgeImportService  -->
<g id="node9" class="node">
<title>CommonCartridgeImportService </title>
<polygon fill="#fb8072" stroke="black" points="2788.07,-252 2583.93,-252 2583.93,-216 2788.07,-216 2788.07,-252"/>
<text text-anchor="middle" x="2686" y="-229.8" font-family="Times,serif" font-size="14.00">CommonCartridgeImportService </text>
</g>
<!-- LearnroomModule&#45;&gt;CommonCartridgeImportService  -->
<g id="edge8" class="edge">
<title>LearnroomModule&#45;&gt;CommonCartridgeImportService </title>
<path fill="none" stroke="black" stroke-dasharray="5,2" d="M2344.89,-183C2446.16,-183 2638.2,-183 2638.2,-183 2638.2,-183 2638.2,-205.88 2638.2,-205.88"/>
<polygon fill="black" stroke="black" points="2634.7,-205.88 2638.2,-215.88 2641.7,-205.88 2634.7,-205.88"/>
</g>
<!-- CourseCopyService  -->
<g id="node10" class="node">
<title>CourseCopyService </title>
<polygon fill="#fb8072" stroke="black" points="2565.97,-252 2434.03,-252 2434.03,-216 2565.97,-216 2565.97,-252"/>
<text text-anchor="middle" x="2500" y="-229.8" font-family="Times,serif" font-size="14.00">CourseCopyService </text>
</g>
<!-- LearnroomModule&#45;&gt;CourseCopyService  -->
<g id="edge9" class="edge">
<title>LearnroomModule&#45;&gt;CourseCopyService </title>
<path fill="none" stroke="black" stroke-dasharray="5,2" d="M2345.03,-185C2408.9,-185 2500,-185 2500,-185 2500,-185 2500,-205.75 2500,-205.75"/>
<polygon fill="black" stroke="black" points="2496.5,-205.75 2500,-215.75 2503.5,-205.75 2496.5,-205.75"/>
</g>
<!-- CourseDoService  -->
<g id="node11" class="node">
<title>CourseDoService </title>
<polygon fill="#fb8072" stroke="black" points="2416.24,-252 2297.76,-252 2297.76,-216 2416.24,-216 2416.24,-252"/>
<text text-anchor="middle" x="2357" y="-229.8" font-family="Times,serif" font-size="14.00">CourseDoService </text>
</g>
<!-- LearnroomModule&#45;&gt;CourseDoService  -->
<g id="edge10" class="edge">
<title>LearnroomModule&#45;&gt;CourseDoService </title>
<path fill="none" stroke="black" stroke-dasharray="5,2" d="M2321.38,-187.11C2321.38,-187.11 2321.38,-205.99 2321.38,-205.99"/>
<polygon fill="black" stroke="black" points="2317.88,-205.99 2321.38,-215.99 2324.88,-205.99 2317.88,-205.99"/>
</g>
<!-- CourseGroupService  -->
<g id="node12" class="node">
<title>CourseGroupService </title>
<polygon fill="#fb8072" stroke="black" points="2279.4,-252 2142.6,-252 2142.6,-216 2279.4,-216 2279.4,-252"/>
<text text-anchor="middle" x="2211" y="-229.8" font-family="Times,serif" font-size="14.00">CourseGroupService </text>
</g>
<!-- LearnroomModule&#45;&gt;CourseGroupService  -->
<g id="edge11" class="edge">
<title>LearnroomModule&#45;&gt;CourseGroupService </title>
<path fill="none" stroke="black" stroke-dasharray="5,2" d="M2251.29,-187.11C2251.29,-187.11 2251.29,-205.99 2251.29,-205.99"/>
<polygon fill="black" stroke="black" points="2247.79,-205.99 2251.29,-215.99 2254.79,-205.99 2247.79,-205.99"/>
</g>
<!-- CourseService  -->
<g id="node13" class="node">
<title>CourseService </title>
<polygon fill="#fb8072" stroke="black" points="2124.63,-252 2023.37,-252 2023.37,-216 2124.63,-216 2124.63,-252"/>
<text text-anchor="middle" x="2074" y="-229.8" font-family="Times,serif" font-size="14.00">CourseService </text>
</g>
<!-- LearnroomModule&#45;&gt;CourseService  -->
<g id="edge12" class="edge">
<title>LearnroomModule&#45;&gt;CourseService </title>
<path fill="none" stroke="black" stroke-dasharray="5,2" d="M2222.98,-185C2160.97,-185 2074,-185 2074,-185 2074,-185 2074,-205.75 2074,-205.75"/>
<polygon fill="black" stroke="black" points="2070.5,-205.75 2074,-215.75 2077.5,-205.75 2070.5,-205.75"/>
</g>
<!-- DashboardService  -->
<g id="node14" class="node">
<title>DashboardService </title>
<polygon fill="#fb8072" stroke="black" points="2005.12,-252 1882.88,-252 1882.88,-216 2005.12,-216 2005.12,-252"/>
<text text-anchor="middle" x="1944" y="-229.8" font-family="Times,serif" font-size="14.00">DashboardService </text>
</g>
<!-- LearnroomModule&#45;&gt;DashboardService  -->
<g id="edge13" class="edge">
<title>LearnroomModule&#45;&gt;DashboardService </title>
<path fill="none" stroke="black" stroke-dasharray="5,2" d="M2223.16,-183C2137.17,-183 1990.39,-183 1990.39,-183 1990.39,-183 1990.39,-205.88 1990.39,-205.88"/>
<polygon fill="black" stroke="black" points="1986.89,-205.88 1990.39,-215.88 1993.89,-205.88 1986.89,-205.88"/>
</g>
<!-- RoomsService  -->
<g id="node15" class="node">
<title>RoomsService </title>
<polygon fill="#fb8072" stroke="black" points="1864.65,-252 1763.35,-252 1763.35,-216 1864.65,-216 1864.65,-252"/>
<text text-anchor="middle" x="1814" y="-229.8" font-family="Times,serif" font-size="14.00">RoomsService </text>
</g>
<!-- LearnroomModule&#45;&gt;RoomsService  -->
<g id="edge14" class="edge">
<title>LearnroomModule&#45;&gt;RoomsService </title>
<path fill="none" stroke="black" stroke-dasharray="5,2" d="M2223.07,-181C2099.75,-181 1832.21,-181 1832.21,-181 1832.21,-181 1832.21,-205.76 1832.21,-205.76"/>
<polygon fill="black" stroke="black" points="1828.71,-205.76 1832.21,-215.76 1835.71,-205.76 1828.71,-205.76"/>
</g>
<!-- BoardCopyService -->
<g id="node16" class="node">
<title>BoardCopyService</title>
<ellipse fill="#fdb462" stroke="black" cx="3880" cy="-104" rx="84.53" ry="18"/>
<text text-anchor="middle" x="3880" y="-99.8" font-family="Times,serif" font-size="14.00">BoardCopyService</text>
</g>
<!-- BoardCopyService&#45;&gt;LearnroomModule -->
<g id="edge15" class="edge">
<title>BoardCopyService&#45;&gt;LearnroomModule</title>
<path fill="none" stroke="black" d="M3880,-122.3C3880,-140.27 3880,-165 3880,-165 3880,-165 2355.1,-165 2355.1,-165"/>
<polygon fill="black" stroke="black" points="2355.1,-161.5 2345.1,-165 2355.1,-168.5 2355.1,-161.5"/>
</g>
<!-- BoardNodeRepo -->
<g id="node17" class="node">
<title>BoardNodeRepo</title>
<ellipse fill="#fdb462" stroke="black" cx="3702" cy="-104" rx="75.87" ry="18"/>
<text text-anchor="middle" x="3702" y="-99.8" font-family="Times,serif" font-size="14.00">BoardNodeRepo</text>
</g>
<!-- BoardNodeRepo&#45;&gt;LearnroomModule -->
<g id="edge16" class="edge">
<title>BoardNodeRepo&#45;&gt;LearnroomModule</title>
<path fill="none" stroke="black" d="M3702,-122.02C3702,-139.37 3702,-163 3702,-163 3702,-163 2354.93,-163 2354.93,-163"/>
<polygon fill="black" stroke="black" points="2354.93,-159.5 2344.93,-163 2354.93,-166.5 2354.93,-159.5"/>
</g>
<!-- CommonCartridgeExportService -->
<g id="node18" class="node">
<title>CommonCartridgeExportService</title>
<ellipse fill="#fdb462" stroke="black" cx="3469" cy="-104" rx="138.89" ry="18"/>
<text text-anchor="middle" x="3469" y="-99.8" font-family="Times,serif" font-size="14.00">CommonCartridgeExportService</text>
</g>
<!-- CommonCartridgeExportService&#45;&gt;LearnroomModule -->
<g id="edge17" class="edge">
<title>CommonCartridgeExportService&#45;&gt;LearnroomModule</title>
<path fill="none" stroke="black" d="M3469,-122.03C3469,-138.4 3469,-160 3469,-160 3469,-160 2354.8,-160 2354.8,-160"/>
<polygon fill="black" stroke="black" points="2354.8,-156.5 2344.8,-160 2354.8,-163.5 2354.8,-156.5"/>
</g>
<!-- CommonCartridgeFileValidatorPipe -->
<g id="node19" class="node">
<title>CommonCartridgeFileValidatorPipe</title>
<ellipse fill="#fdb462" stroke="black" cx="3160" cy="-104" rx="152.22" ry="18"/>
<text text-anchor="middle" x="3160" y="-99.8" font-family="Times,serif" font-size="14.00">CommonCartridgeFileValidatorPipe</text>
</g>
<!-- CommonCartridgeFileValidatorPipe&#45;&gt;LearnroomModule -->
<g id="edge18" class="edge">
<title>CommonCartridgeFileValidatorPipe&#45;&gt;LearnroomModule</title>
<path fill="none" stroke="black" d="M3161.7,-122.28C3161.7,-137.95 3161.7,-158 3161.7,-158 3161.7,-158 2355.02,-158 2355.02,-158"/>
<polygon fill="black" stroke="black" points="2355.02,-154.5 2345.02,-158 2355.02,-161.5 2355.02,-154.5"/>
</g>
<!-- CommonCartridgeImportMapper -->
<g id="node20" class="node">
<title>CommonCartridgeImportMapper</title>
<ellipse fill="#fdb462" stroke="black" cx="2850" cy="-104" rx="139.53" ry="18"/>
<text text-anchor="middle" x="2850" y="-99.8" font-family="Times,serif" font-size="14.00">CommonCartridgeImportMapper</text>
</g>
<!-- CommonCartridgeImportMapper&#45;&gt;LearnroomModule -->
<g id="edge19" class="edge">
<title>CommonCartridgeImportMapper&#45;&gt;LearnroomModule</title>
<path fill="none" stroke="black" d="M2749.26,-116.59C2749.26,-131.98 2749.26,-156 2749.26,-156 2749.26,-156 2354.82,-156 2354.82,-156"/>
<polygon fill="black" stroke="black" points="2354.82,-152.5 2344.82,-156 2354.82,-159.5 2354.82,-152.5"/>
</g>
<!-- CommonCartridgeImportService -->
<g id="node21" class="node">
<title>CommonCartridgeImportService</title>
<ellipse fill="#fdb462" stroke="black" cx="2554" cy="-104" rx="138.88" ry="18"/>
<text text-anchor="middle" x="2554" y="-99.8" font-family="Times,serif" font-size="14.00">CommonCartridgeImportService</text>
</g>
<!-- CommonCartridgeImportService&#45;&gt;LearnroomModule -->
<g id="edge20" class="edge">
<title>CommonCartridgeImportService&#45;&gt;LearnroomModule</title>
<path fill="none" stroke="black" d="M2425.19,-110.95C2425.19,-124.69 2425.19,-154 2425.19,-154 2425.19,-154 2355.11,-154 2355.11,-154"/>
<polygon fill="black" stroke="black" points="2355.11,-150.5 2345.11,-154 2355.11,-157.5 2355.11,-150.5"/>
</g>
<!-- CommonCartridgeMapper -->
<g id="node22" class="node">
<title>CommonCartridgeMapper</title>
<ellipse fill="#fdb462" stroke="black" cx="2284" cy="-104" rx="113.47" ry="18"/>
<text text-anchor="middle" x="2284" y="-99.8" font-family="Times,serif" font-size="14.00">CommonCartridgeMapper</text>
</g>
<!-- CommonCartridgeMapper&#45;&gt;LearnroomModule -->
<g id="edge21" class="edge">
<title>CommonCartridgeMapper&#45;&gt;LearnroomModule</title>
<path fill="none" stroke="black" d="M2284,-122.11C2284,-122.11 2284,-140.99 2284,-140.99"/>
<polygon fill="black" stroke="black" points="2280.5,-140.99 2284,-150.99 2287.5,-140.99 2280.5,-140.99"/>
</g>
<!-- CourseCopyService -->
<g id="node23" class="node">
<title>CourseCopyService</title>
<ellipse fill="#fdb462" stroke="black" cx="2064" cy="-104" rx="88.04" ry="18"/>
<text text-anchor="middle" x="2064" y="-99.8" font-family="Times,serif" font-size="14.00">CourseCopyService</text>
</g>
<!-- CourseCopyService&#45;&gt;LearnroomModule -->
<g id="edge22" class="edge">
<title>CourseCopyService&#45;&gt;LearnroomModule</title>
<path fill="none" stroke="black" d="M2147.41,-110.13C2147.41,-123.48 2147.41,-154 2147.41,-154 2147.41,-154 2212.9,-154 2212.9,-154"/>
<polygon fill="black" stroke="black" points="2212.9,-157.5 2222.9,-154 2212.9,-150.5 2212.9,-157.5"/>
</g>
<!-- CourseDoService -->
<g id="node24" class="node">
<title>CourseDoService</title>
<ellipse fill="#fdb462" stroke="black" cx="1879" cy="-104" rx="79.29" ry="18"/>
<text text-anchor="middle" x="1879" y="-99.8" font-family="Times,serif" font-size="14.00">CourseDoService</text>
</g>
<!-- CourseDoService&#45;&gt;LearnroomModule -->
<g id="edge23" class="edge">
<title>CourseDoService&#45;&gt;LearnroomModule</title>
<path fill="none" stroke="black" d="M1920.54,-119.6C1920.54,-134.92 1920.54,-156 1920.54,-156 1920.54,-156 2213.17,-156 2213.17,-156"/>
<polygon fill="black" stroke="black" points="2213.17,-159.5 2223.17,-156 2213.17,-152.5 2213.17,-159.5"/>
</g>
<!-- CourseGroupRepo -->
<g id="node25" class="node">
<title>CourseGroupRepo</title>
<ellipse fill="#fdb462" stroke="black" cx="1698" cy="-104" rx="83.39" ry="18"/>
<text text-anchor="middle" x="1698" y="-99.8" font-family="Times,serif" font-size="14.00">CourseGroupRepo</text>
</g>
<!-- CourseGroupRepo&#45;&gt;LearnroomModule -->
<g id="edge24" class="edge">
<title>CourseGroupRepo&#45;&gt;LearnroomModule</title>
<path fill="none" stroke="black" d="M1772.44,-112.44C1772.44,-127.62 1772.44,-158 1772.44,-158 1772.44,-158 2213.05,-158 2213.05,-158"/>
<polygon fill="black" stroke="black" points="2213.05,-161.5 2223.05,-158 2213.05,-154.5 2213.05,-161.5"/>
</g>
<!-- CourseGroupService -->
<g id="node26" class="node">
<title>CourseGroupService</title>
<ellipse fill="#fdb462" stroke="black" cx="1505" cy="-104" rx="92.04" ry="18"/>
<text text-anchor="middle" x="1505" y="-99.8" font-family="Times,serif" font-size="14.00">CourseGroupService</text>
</g>
<!-- CourseGroupService&#45;&gt;LearnroomModule -->
<g id="edge25" class="edge">
<title>CourseGroupService&#45;&gt;LearnroomModule</title>
<path fill="none" stroke="black" d="M1505,-122.03C1505,-138.4 1505,-160 1505,-160 1505,-160 2213.2,-160 2213.2,-160"/>
<polygon fill="black" stroke="black" points="2213.2,-163.5 2223.2,-160 2213.2,-156.5 2213.2,-163.5"/>
</g>
<!-- CourseRepo -->
<g id="node27" class="node">
<title>CourseRepo</title>
<ellipse fill="#fdb462" stroke="black" cx="1336" cy="-104" rx="58.55" ry="18"/>
<text text-anchor="middle" x="1336" y="-99.8" font-family="Times,serif" font-size="14.00">CourseRepo</text>
</g>
<!-- CourseRepo&#45;&gt;LearnroomModule -->
<g id="edge26" class="edge">
<title>CourseRepo&#45;&gt;LearnroomModule</title>
<path fill="none" stroke="black" d="M1336,-122.02C1336,-139.37 1336,-163 1336,-163 1336,-163 2213.26,-163 2213.26,-163"/>
<polygon fill="black" stroke="black" points="2213.26,-166.5 2223.26,-163 2213.26,-159.5 2213.26,-166.5"/>
</g>
<!-- CourseService -->
<g id="node28" class="node">
<title>CourseService</title>
<ellipse fill="#fdb462" stroke="black" cx="1192" cy="-104" rx="67.19" ry="18"/>
<text text-anchor="middle" x="1192" y="-99.8" font-family="Times,serif" font-size="14.00">CourseService</text>
</g>
<!-- CourseService&#45;&gt;LearnroomModule -->
<g id="edge27" class="edge">
<title>CourseService&#45;&gt;LearnroomModule</title>
<path fill="none" stroke="black" d="M1192,-122.3C1192,-140.27 1192,-165 1192,-165 1192,-165 2212.95,-165 2212.95,-165"/>
<polygon fill="black" stroke="black" points="2212.95,-168.5 2222.95,-165 2212.95,-161.5 2212.95,-168.5"/>
</g>
<!-- DashboardElementRepo -->
<g id="node29" class="node">
<title>DashboardElementRepo</title>
<ellipse fill="#fdb462" stroke="black" cx="1001" cy="-104" rx="105.36" ry="18"/>
<text text-anchor="middle" x="1001" y="-99.8" font-family="Times,serif" font-size="14.00">DashboardElementRepo</text>
</g>
<!-- DashboardElementRepo&#45;&gt;LearnroomModule -->
<g id="edge28" class="edge">
<title>DashboardElementRepo&#45;&gt;LearnroomModule</title>
<path fill="none" stroke="black" d="M1001,-122.22C1001,-140.83 1001,-167 1001,-167 1001,-167 2212.98,-167 2212.98,-167"/>
<polygon fill="black" stroke="black" points="2212.98,-170.5 2222.98,-167 2212.98,-163.5 2212.98,-170.5"/>
</g>
<!-- DashboardModelMapper -->
<g id="node30" class="node">
<title>DashboardModelMapper</title>
<ellipse fill="#fdb462" stroke="black" cx="769" cy="-104" rx="108.21" ry="18"/>
<text text-anchor="middle" x="769" y="-99.8" font-family="Times,serif" font-size="14.00">DashboardModelMapper</text>
</g>
<!-- DashboardModelMapper&#45;&gt;LearnroomModule -->
<g id="edge29" class="edge">
<title>DashboardModelMapper&#45;&gt;LearnroomModule</title>
<path fill="none" stroke="black" d="M769,-122.11C769,-141.34 769,-169 769,-169 769,-169 2213.21,-169 2213.21,-169"/>
<polygon fill="black" stroke="black" points="2213.21,-172.5 2223.21,-169 2213.21,-165.5 2213.21,-172.5"/>
</g>
<!-- DashboardService -->
<g id="node31" class="node">
<title>DashboardService</title>
<ellipse fill="#fdb462" stroke="black" cx="561" cy="-104" rx="81.64" ry="18"/>
<text text-anchor="middle" x="561" y="-99.8" font-family="Times,serif" font-size="14.00">DashboardService</text>
</g>
<!-- DashboardService&#45;&gt;LearnroomModule -->
<g id="edge30" class="edge">
<title>DashboardService&#45;&gt;LearnroomModule</title>
<path fill="none" stroke="black" d="M561,-122.22C561,-142.37 561,-172 561,-172 561,-172 2213.18,-172 2213.18,-172"/>
<polygon fill="black" stroke="black" points="2213.18,-175.5 2223.18,-172 2213.18,-168.5 2213.18,-175.5"/>
</g>
<!-- LegacyBoardRepo -->
<g id="node32" class="node">
<title>LegacyBoardRepo</title>
<ellipse fill="#fdb462" stroke="black" cx="378" cy="-104" rx="83.37" ry="18"/>
<text text-anchor="middle" x="378" y="-99.8" font-family="Times,serif" font-size="14.00">LegacyBoardRepo</text>
</g>
<!-- LegacyBoardRepo&#45;&gt;LearnroomModule -->
<g id="edge31" class="edge">
<title>LegacyBoardRepo&#45;&gt;LearnroomModule</title>
<path fill="none" stroke="black" d="M378,-122.03C378,-142.77 378,-174 378,-174 378,-174 2213.01,-174 2213.01,-174"/>
<polygon fill="black" stroke="black" points="2213.01,-177.5 2223.01,-174 2213.01,-170.5 2213.01,-177.5"/>
</g>
<!-- RoomsService -->
<g id="node33" class="node">
<title>RoomsService</title>
<ellipse fill="#fdb462" stroke="black" cx="209" cy="-104" rx="67.21" ry="18"/>
<text text-anchor="middle" x="209" y="-99.8" font-family="Times,serif" font-size="14.00">RoomsService</text>
</g>
<!-- RoomsService&#45;&gt;LearnroomModule -->
<g id="edge32" class="edge">
<title>RoomsService&#45;&gt;LearnroomModule</title>
<path fill="none" stroke="black" d="M209,-122.17C209,-143.5 209,-176 209,-176 209,-176 2213.02,-176 2213.02,-176"/>
<polygon fill="black" stroke="black" points="2213.02,-179.5 2223.02,-176 2213.02,-172.5 2213.02,-179.5"/>
</g>
<!-- UserRepo -->
<g id="node34" class="node">
<title>UserRepo</title>
<ellipse fill="#fdb462" stroke="black" cx="74" cy="-104" rx="49.8" ry="18"/>
<text text-anchor="middle" x="74" y="-99.8" font-family="Times,serif" font-size="14.00">UserRepo</text>
</g>
<!-- UserRepo&#45;&gt;LearnroomModule -->
<g id="edge33" class="edge">
<title>UserRepo&#45;&gt;LearnroomModule</title>
<path fill="none" stroke="black" d="M74,-122.29C74,-144.21 74,-178 74,-178 74,-178 2213.16,-178 2213.16,-178"/>
<polygon fill="black" stroke="black" points="2213.16,-181.5 2223.16,-178 2213.16,-174.5 2213.16,-181.5"/>
</g>
</g>
</svg>
