<?xml version="1.0" encoding="UTF-8" standalone="no"?>
<!DOCTYPE svg PUBLIC "-//W3C//DTD SVG 1.1//EN"
 "http://www.w3.org/Graphics/SVG/1.1/DTD/svg11.dtd">
<!-- Generated by graphviz version 2.47.0 (20210316.0004)
 -->
<!-- Title: dependencies Pages: 1 -->
<svg width="2885pt" height="284pt"
 viewBox="0.00 0.00 2885.00 284.00" xmlns="http://www.w3.org/2000/svg" xmlns:xlink="http://www.w3.org/1999/xlink">
<g id="graph0" class="graph" transform="scale(1 1) rotate(0) translate(4 280)">
<title>dependencies</title>
<polygon fill="white" stroke="transparent" points="-4,4 -4,-280 2881,-280 2881,4 -4,4"/>
<text text-anchor="start" x="1417.51" y="-42.4" font-family="Times-12" font-weight="bold" font-size="14.00">Legend</text>
<polygon fill="#ffffb3" stroke="transparent" points="1204.5,-10 1204.5,-30 1224.5,-30 1224.5,-10 1204.5,-10"/>
<text text-anchor="start" x="1228.13" y="-15.4" font-family="Times-12" font-size="14.00"> &#160;Declarations</text>
<polygon fill="#8dd3c7" stroke="transparent" points="1317.5,-10 1317.5,-30 1337.5,-30 1337.5,-10 1317.5,-10"/>
<text text-anchor="start" x="1341.23" y="-15.4" font-family="Times-12" font-size="14.00"> &#160;Module</text>
<polygon fill="#80b1d3" stroke="transparent" points="1403.5,-10 1403.5,-30 1423.5,-30 1423.5,-10 1403.5,-10"/>
<text text-anchor="start" x="1427.28" y="-15.4" font-family="Times-12" font-size="14.00"> &#160;Bootstrap</text>
<polygon fill="#fdb462" stroke="transparent" points="1500.5,-10 1500.5,-30 1520.5,-30 1520.5,-10 1500.5,-10"/>
<text text-anchor="start" x="1524.17" y="-15.4" font-family="Times-12" font-size="14.00"> &#160;Providers</text>
<polygon fill="#fb8072" stroke="transparent" points="1596.5,-10 1596.5,-30 1616.5,-30 1616.5,-10 1596.5,-10"/>
<text text-anchor="start" x="1620.23" y="-15.4" font-family="Times-12" font-size="14.00"> &#160;Exports</text>
<g id="clust1" class="cluster">
<title>cluster_LearnroomModule</title>
<polygon fill="none" stroke="black" stroke-dasharray="1,5" points="8,-70 8,-268 2869,-268 2869,-70 8,-70"/>
</g>
<g id="clust4" class="cluster">
<title>cluster_LearnroomModule_exports</title>
<polygon fill="none" stroke="black" points="1221,-208 1221,-260 1984,-260 1984,-208 1221,-208"/>
</g>
<g id="clust3" class="cluster">
<title>cluster_LearnroomModule_imports</title>
<polygon fill="none" stroke="black" points="2265,-78 2265,-130 2861,-130 2861,-78 2265,-78"/>
</g>
<g id="clust6" class="cluster">
<title>cluster_LearnroomModule_providers</title>
<polygon fill="none" stroke="black" points="16,-78 16,-130 2257,-130 2257,-78 16,-78"/>
</g>
<!-- BoardModule -->
<g id="node1" class="node">
<title>BoardModule</title>
<polygon fill="#8dd3c7" stroke="black" points="2852.76,-122 2849.76,-126 2828.76,-126 2825.76,-122 2759.24,-122 2759.24,-86 2852.76,-86 2852.76,-122"/>
<text text-anchor="middle" x="2806" y="-99.8" font-family="Times,serif" font-size="14.00">BoardModule</text>
</g>
<!-- LearnroomModule -->
<g id="node6" class="node">
<title>LearnroomModule</title>
<polygon fill="#8dd3c7" stroke="black" points="1596.74,-187 1593.74,-191 1572.74,-191 1569.74,-187 1475.26,-187 1475.26,-151 1596.74,-151 1596.74,-187"/>
<text text-anchor="middle" x="1536" y="-164.8" font-family="Times,serif" font-size="14.00">LearnroomModule</text>
</g>
<!-- BoardModule&#45;&gt;LearnroomModule -->
<g id="edge1" class="edge">
<title>BoardModule&#45;&gt;LearnroomModule</title>
<path fill="none" stroke="black" d="M2806,-122.29C2806,-144.21 2806,-178 2806,-178 2806,-178 1606.83,-178 1606.83,-178"/>
<polygon fill="black" stroke="black" points="1606.83,-174.5 1596.83,-178 1606.83,-181.5 1606.83,-174.5"/>
</g>
<!-- CopyHelperModule -->
<g id="node2" class="node">
<title>CopyHelperModule</title>
<polygon fill="#8dd3c7" stroke="black" points="2740.97,-122 2737.97,-126 2716.97,-126 2713.97,-122 2613.03,-122 2613.03,-86 2740.97,-86 2740.97,-122"/>
<text text-anchor="middle" x="2677" y="-99.8" font-family="Times,serif" font-size="14.00">CopyHelperModule</text>
</g>
<!-- CopyHelperModule&#45;&gt;LearnroomModule -->
<g id="edge2" class="edge">
<title>CopyHelperModule&#45;&gt;LearnroomModule</title>
<path fill="none" stroke="black" d="M2677,-122.03C2677,-142.77 2677,-174 2677,-174 2677,-174 1606.94,-174 1606.94,-174"/>
<polygon fill="black" stroke="black" points="1606.94,-170.5 1596.94,-174 1606.94,-177.5 1606.94,-170.5"/>
</g>
<!-- LessonModule -->
<g id="node3" class="node">
<title>LessonModule</title>
<polygon fill="#8dd3c7" stroke="black" points="2594.71,-122 2591.71,-126 2570.71,-126 2567.71,-122 2495.29,-122 2495.29,-86 2594.71,-86 2594.71,-122"/>
<text text-anchor="middle" x="2545" y="-99.8" font-family="Times,serif" font-size="14.00">LessonModule</text>
</g>
<!-- LessonModule&#45;&gt;LearnroomModule -->
<g id="edge3" class="edge">
<title>LessonModule&#45;&gt;LearnroomModule</title>
<path fill="none" stroke="black" d="M2545,-122.31C2545,-142.15 2545,-171 2545,-171 2545,-171 1606.85,-171 1606.85,-171"/>
<polygon fill="black" stroke="black" points="1606.85,-167.5 1596.85,-171 1606.85,-174.5 1606.85,-167.5"/>
</g>
<!-- LoggerModule -->
<g id="node4" class="node">
<title>LoggerModule</title>
<polygon fill="#8dd3c7" stroke="black" points="2476.98,-122 2473.98,-126 2452.98,-126 2449.98,-122 2377.02,-122 2377.02,-86 2476.98,-86 2476.98,-122"/>
<text text-anchor="middle" x="2427" y="-99.8" font-family="Times,serif" font-size="14.00">LoggerModule</text>
</g>
<!-- LoggerModule&#45;&gt;LearnroomModule -->
<g id="edge4" class="edge">
<title>LoggerModule&#45;&gt;LearnroomModule</title>
<path fill="none" stroke="black" d="M2427,-122.17C2427,-141.09 2427,-168 2427,-168 2427,-168 1606.89,-168 1606.89,-168"/>
<polygon fill="black" stroke="black" points="1606.89,-164.5 1596.89,-168 1606.89,-171.5 1606.89,-164.5"/>
</g>
<!-- TaskModule -->
<g id="node5" class="node">
<title>TaskModule</title>
<polygon fill="#8dd3c7" stroke="black" points="2359.26,-122 2356.26,-126 2335.26,-126 2332.26,-122 2272.74,-122 2272.74,-86 2359.26,-86 2359.26,-122"/>
<text text-anchor="middle" x="2316" y="-99.8" font-family="Times,serif" font-size="14.00">TaskModule</text>
</g>
<!-- TaskModule&#45;&gt;LearnroomModule -->
<g id="edge5" class="edge">
<title>TaskModule&#45;&gt;LearnroomModule</title>
<path fill="none" stroke="black" d="M2316,-122.3C2316,-140.27 2316,-165 2316,-165 2316,-165 1606.88,-165 1606.88,-165"/>
<polygon fill="black" stroke="black" points="1606.88,-161.5 1596.88,-165 1606.88,-168.5 1606.88,-161.5"/>
</g>
<!-- CommonCartridgeExportService  -->
<g id="node7" class="node">
<title>CommonCartridgeExportService </title>
<polygon fill="#fb8072" stroke="black" points="1976.07,-252 1771.93,-252 1771.93,-216 1976.07,-216 1976.07,-252"/>
<text text-anchor="middle" x="1874" y="-229.8" font-family="Times,serif" font-size="14.00">CommonCartridgeExportService </text>
</g>
<!-- LearnroomModule&#45;&gt;CommonCartridgeExportService  -->
<g id="edge6" class="edge">
<title>LearnroomModule&#45;&gt;CommonCartridgeExportService </title>
<path fill="none" stroke="black" stroke-dasharray="5,2" d="M1596.99,-181C1688.91,-181 1852.31,-181 1852.31,-181 1852.31,-181 1852.31,-205.76 1852.31,-205.76"/>
<polygon fill="black" stroke="black" points="1848.81,-205.76 1852.31,-215.76 1855.81,-205.76 1848.81,-205.76"/>
</g>
<!-- CourseCopyService  -->
<g id="node8" class="node">
<title>CourseCopyService </title>
<polygon fill="#fb8072" stroke="black" points="1753.97,-252 1622.03,-252 1622.03,-216 1753.97,-216 1753.97,-252"/>
<text text-anchor="middle" x="1688" y="-229.8" font-family="Times,serif" font-size="14.00">CourseCopyService </text>
</g>
<!-- LearnroomModule&#45;&gt;CourseCopyService  -->
<g id="edge7" class="edge">
<title>LearnroomModule&#45;&gt;CourseCopyService </title>
<path fill="none" stroke="black" stroke-dasharray="5,2" d="M1596.85,-184C1623.35,-184 1648.48,-184 1648.48,-184 1648.48,-184 1648.48,-205.95 1648.48,-205.95"/>
<polygon fill="black" stroke="black" points="1644.98,-205.95 1648.48,-215.95 1651.98,-205.95 1644.98,-205.95"/>
</g>
<!-- CourseGroupService  -->
<g id="node9" class="node">
<title>CourseGroupService </title>
<polygon fill="#fb8072" stroke="black" points="1604.4,-252 1467.6,-252 1467.6,-216 1604.4,-216 1604.4,-252"/>
<text text-anchor="middle" x="1536" y="-229.8" font-family="Times,serif" font-size="14.00">CourseGroupService </text>
</g>
<!-- LearnroomModule&#45;&gt;CourseGroupService  -->
<g id="edge8" class="edge">
<title>LearnroomModule&#45;&gt;CourseGroupService </title>
<path fill="none" stroke="black" stroke-dasharray="5,2" d="M1536,-187.11C1536,-187.11 1536,-205.99 1536,-205.99"/>
<polygon fill="black" stroke="black" points="1532.5,-205.99 1536,-215.99 1539.5,-205.99 1532.5,-205.99"/>
</g>
<!-- CourseService  -->
<g id="node10" class="node">
<title>CourseService </title>
<polygon fill="#fb8072" stroke="black" points="1449.63,-252 1348.37,-252 1348.37,-216 1449.63,-216 1449.63,-252"/>
<text text-anchor="middle" x="1399" y="-229.8" font-family="Times,serif" font-size="14.00">CourseService </text>
</g>
<!-- LearnroomModule&#45;&gt;CourseService  -->
<g id="edge9" class="edge">
<title>LearnroomModule&#45;&gt;CourseService </title>
<path fill="none" stroke="black" stroke-dasharray="5,2" d="M1475.11,-184C1448.58,-184 1423.44,-184 1423.44,-184 1423.44,-184 1423.44,-205.95 1423.44,-205.95"/>
<polygon fill="black" stroke="black" points="1419.94,-205.95 1423.44,-215.95 1426.94,-205.95 1419.94,-205.95"/>
</g>
<!-- RoomsService  -->
<g id="node11" class="node">
<title>RoomsService </title>
<polygon fill="#fb8072" stroke="black" points="1330.65,-252 1229.35,-252 1229.35,-216 1330.65,-216 1330.65,-252"/>
<text text-anchor="middle" x="1280" y="-229.8" font-family="Times,serif" font-size="14.00">RoomsService </text>
</g>
<!-- LearnroomModule&#45;&gt;RoomsService  -->
<g id="edge10" class="edge">
<title>LearnroomModule&#45;&gt;RoomsService </title>
<path fill="none" stroke="black" stroke-dasharray="5,2" d="M1475.01,-181C1399.29,-181 1280,-181 1280,-181 1280,-181 1280,-205.76 1280,-205.76"/>
<polygon fill="black" stroke="black" points="1276.5,-205.76 1280,-215.76 1283.5,-205.76 1276.5,-205.76"/>
</g>
<!-- BoardCopyService -->
<g id="node12" class="node">
<title>BoardCopyService</title>
<ellipse fill="#fdb462" stroke="black" cx="2164" cy="-104" rx="84.53" ry="18"/>
<text text-anchor="middle" x="2164" y="-99.8" font-family="Times,serif" font-size="14.00">BoardCopyService</text>
</g>
<!-- BoardCopyService&#45;&gt;LearnroomModule -->
<g id="edge11" class="edge">
<title>BoardCopyService&#45;&gt;LearnroomModule</title>
<path fill="none" stroke="black" d="M2164,-122.04C2164,-138.73 2164,-161 2164,-161 2164,-161 1606.79,-161 1606.79,-161"/>
<polygon fill="black" stroke="black" points="1606.79,-157.5 1596.79,-161 1606.79,-164.5 1606.79,-157.5"/>
</g>
<!-- BoardRepo -->
<g id="node13" class="node">
<title>BoardRepo</title>
<ellipse fill="#fdb462" stroke="black" cx="2006" cy="-104" rx="55.04" ry="18"/>
<text text-anchor="middle" x="2006" y="-99.8" font-family="Times,serif" font-size="14.00">BoardRepo</text>
</g>
<!-- BoardRepo&#45;&gt;LearnroomModule -->
<g id="edge12" class="edge">
<title>BoardRepo&#45;&gt;LearnroomModule</title>
<path fill="none" stroke="black" d="M1963.63,-115.72C1963.63,-131.6 1963.63,-158 1963.63,-158 1963.63,-158 1606.82,-158 1606.82,-158"/>
<polygon fill="black" stroke="black" points="1606.82,-154.5 1596.82,-158 1606.82,-161.5 1606.82,-154.5"/>
</g>
<!-- ColumnBoardTargetService -->
<g id="node14" class="node">
<title>ColumnBoardTargetService</title>
<ellipse fill="#fdb462" stroke="black" cx="1813" cy="-104" rx="119.82" ry="18"/>
<text text-anchor="middle" x="1813" y="-99.8" font-family="Times,serif" font-size="14.00">ColumnBoardTargetService</text>
</g>
<!-- ColumnBoardTargetService&#45;&gt;LearnroomModule -->
<g id="edge13" class="edge">
<title>ColumnBoardTargetService&#45;&gt;LearnroomModule</title>
<path fill="none" stroke="black" d="M1723.41,-116.09C1723.41,-131.17 1723.41,-155 1723.41,-155 1723.41,-155 1606.85,-155 1606.85,-155"/>
<polygon fill="black" stroke="black" points="1606.85,-151.5 1596.85,-155 1606.85,-158.5 1606.85,-151.5"/>
</g>
<!-- CommonCartridgeExportService -->
<g id="node15" class="node">
<title>CommonCartridgeExportService</title>
<ellipse fill="#fdb462" stroke="black" cx="1536" cy="-104" rx="138.89" ry="18"/>
<text text-anchor="middle" x="1536" y="-99.8" font-family="Times,serif" font-size="14.00">CommonCartridgeExportService</text>
</g>
<!-- CommonCartridgeExportService&#45;&gt;LearnroomModule -->
<g id="edge14" class="edge">
<title>CommonCartridgeExportService&#45;&gt;LearnroomModule</title>
<path fill="none" stroke="black" d="M1536,-122.11C1536,-122.11 1536,-140.99 1536,-140.99"/>
<polygon fill="black" stroke="black" points="1532.5,-140.99 1536,-150.99 1539.5,-140.99 1532.5,-140.99"/>
</g>
<!-- CourseCopyService -->
<g id="node16" class="node">
<title>CourseCopyService</title>
<ellipse fill="#fdb462" stroke="black" cx="1291" cy="-104" rx="88.04" ry="18"/>
<text text-anchor="middle" x="1291" y="-99.8" font-family="Times,serif" font-size="14.00">CourseCopyService</text>
</g>
<!-- CourseCopyService&#45;&gt;LearnroomModule -->
<g id="edge15" class="edge">
<title>CourseCopyService&#45;&gt;LearnroomModule</title>
<path fill="none" stroke="black" d="M1363.85,-114.32C1363.85,-129.22 1363.85,-155 1363.85,-155 1363.85,-155 1464.82,-155 1464.82,-155"/>
<polygon fill="black" stroke="black" points="1464.82,-158.5 1474.82,-155 1464.82,-151.5 1464.82,-158.5"/>
</g>
<!-- CourseGroupRepo -->
<g id="node17" class="node">
<title>CourseGroupRepo</title>
<ellipse fill="#fdb462" stroke="black" cx="1101" cy="-104" rx="83.39" ry="18"/>
<text text-anchor="middle" x="1101" y="-99.8" font-family="Times,serif" font-size="14.00">CourseGroupRepo</text>
</g>
<!-- CourseGroupRepo&#45;&gt;LearnroomModule -->
<g id="edge16" class="edge">
<title>CourseGroupRepo&#45;&gt;LearnroomModule</title>
<path fill="none" stroke="black" d="M1101,-122.28C1101,-137.95 1101,-158 1101,-158 1101,-158 1465.06,-158 1465.06,-158"/>
<polygon fill="black" stroke="black" points="1465.06,-161.5 1475.06,-158 1465.06,-154.5 1465.06,-161.5"/>
</g>
<!-- CourseGroupService -->
<g id="node18" class="node">
<title>CourseGroupService</title>
<ellipse fill="#fdb462" stroke="black" cx="908" cy="-104" rx="92.04" ry="18"/>
<text text-anchor="middle" x="908" y="-99.8" font-family="Times,serif" font-size="14.00">CourseGroupService</text>
</g>
<!-- CourseGroupService&#45;&gt;LearnroomModule -->
<g id="edge17" class="edge">
<title>CourseGroupService&#45;&gt;LearnroomModule</title>
<path fill="none" stroke="black" d="M908,-122.04C908,-138.73 908,-161 908,-161 908,-161 1465.21,-161 1465.21,-161"/>
<polygon fill="black" stroke="black" points="1465.21,-164.5 1475.21,-161 1465.21,-157.5 1465.21,-164.5"/>
</g>
<!-- CourseRepo -->
<g id="node19" class="node">
<title>CourseRepo</title>
<ellipse fill="#fdb462" stroke="black" cx="739" cy="-104" rx="58.55" ry="18"/>
<text text-anchor="middle" x="739" y="-99.8" font-family="Times,serif" font-size="14.00">CourseRepo</text>
</g>
<!-- CourseRepo&#45;&gt;LearnroomModule -->
<g id="edge18" class="edge">
<title>CourseRepo&#45;&gt;LearnroomModule</title>
<path fill="none" stroke="black" d="M739,-122.3C739,-140.27 739,-165 739,-165 739,-165 1465.11,-165 1465.11,-165"/>
<polygon fill="black" stroke="black" points="1465.11,-168.5 1475.11,-165 1465.11,-161.5 1465.11,-168.5"/>
</g>
<!-- CourseService -->
<g id="node20" class="node">
<title>CourseService</title>
<ellipse fill="#fdb462" stroke="black" cx="595" cy="-104" rx="67.19" ry="18"/>
<text text-anchor="middle" x="595" y="-99.8" font-family="Times,serif" font-size="14.00">CourseService</text>
</g>
<!-- CourseService&#45;&gt;LearnroomModule -->
<g id="edge19" class="edge">
<title>CourseService&#45;&gt;LearnroomModule</title>
<path fill="none" stroke="black" d="M595,-122.17C595,-141.09 595,-168 595,-168 595,-168 1464.98,-168 1464.98,-168"/>
<polygon fill="black" stroke="black" points="1464.98,-171.5 1474.98,-168 1464.98,-164.5 1464.98,-171.5"/>
</g>
<!-- DashboardModelMapper -->
<g id="node21" class="node">
<title>DashboardModelMapper</title>
<ellipse fill="#fdb462" stroke="black" cx="402" cy="-104" rx="108.21" ry="18"/>
<text text-anchor="middle" x="402" y="-99.8" font-family="Times,serif" font-size="14.00">DashboardModelMapper</text>
</g>
<!-- DashboardModelMapper&#45;&gt;LearnroomModule -->
<g id="edge20" class="edge">
<title>DashboardModelMapper&#45;&gt;LearnroomModule</title>
<path fill="none" stroke="black" d="M402,-122.31C402,-142.15 402,-171 402,-171 402,-171 1465.03,-171 1465.03,-171"/>
<polygon fill="black" stroke="black" points="1465.03,-174.5 1475.03,-171 1465.03,-167.5 1465.03,-174.5"/>
</g>
<!-- RoomsService -->
<g id="node22" class="node">
<title>RoomsService</title>
<ellipse fill="#fdb462" stroke="black" cx="209" cy="-104" rx="67.21" ry="18"/>
<text text-anchor="middle" x="209" y="-99.8" font-family="Times,serif" font-size="14.00">RoomsService</text>
</g>
<!-- RoomsService&#45;&gt;LearnroomModule -->
<g id="edge21" class="edge">
<title>RoomsService&#45;&gt;LearnroomModule</title>
<path fill="none" stroke="black" d="M209,-122.03C209,-142.77 209,-174 209,-174 209,-174 1465.1,-174 1465.1,-174"/>
<polygon fill="black" stroke="black" points="1465.1,-177.5 1475.1,-174 1465.1,-170.5 1465.1,-177.5"/>
</g>
<!-- UserRepo -->
<g id="node23" class="node">
<title>UserRepo</title>
<ellipse fill="#fdb462" stroke="black" cx="74" cy="-104" rx="49.8" ry="18"/>
<text text-anchor="middle" x="74" y="-99.8" font-family="Times,serif" font-size="14.00">UserRepo</text>
</g>
<!-- UserRepo&#45;&gt;LearnroomModule -->
<g id="edge22" class="edge">
<title>UserRepo&#45;&gt;LearnroomModule</title>
<path fill="none" stroke="black" d="M74,-122.29C74,-144.21 74,-178 74,-178 74,-178 1465.04,-178 1465.04,-178"/>
<polygon fill="black" stroke="black" points="1465.04,-181.5 1475.04,-178 1465.04,-174.5 1465.04,-181.5"/>
</g>
</g>
</svg>
