<?xml version="1.0" encoding="UTF-8" standalone="no"?>
<!DOCTYPE svg PUBLIC "-//W3C//DTD SVG 1.1//EN"
 "http://www.w3.org/Graphics/SVG/1.1/DTD/svg11.dtd">
<!-- Generated by graphviz version 2.47.0 (20210316.0004)
 -->
<!-- Title: dependencies Pages: 1 -->
<svg width="3636pt" height="284pt"
 viewBox="0.00 0.00 3636.00 284.00" xmlns="http://www.w3.org/2000/svg" xmlns:xlink="http://www.w3.org/1999/xlink">
<g id="graph0" class="graph" transform="scale(1 1) rotate(0) translate(4 280)">
<title>dependencies</title>
<polygon fill="white" stroke="transparent" points="-4,4 -4,-280 3632,-280 3632,4 -4,4"/>
<text text-anchor="start" x="1793.01" y="-42.4" font-family="Times-12" font-weight="bold" font-size="14.00">Legend</text>
<polygon fill="#ffffb3" stroke="transparent" points="1580,-10 1580,-30 1600,-30 1600,-10 1580,-10"/>
<text text-anchor="start" x="1603.63" y="-15.4" font-family="Times-12" font-size="14.00"> &#160;Declarations</text>
<polygon fill="#8dd3c7" stroke="transparent" points="1693,-10 1693,-30 1713,-30 1713,-10 1693,-10"/>
<text text-anchor="start" x="1716.73" y="-15.4" font-family="Times-12" font-size="14.00"> &#160;Module</text>
<polygon fill="#80b1d3" stroke="transparent" points="1779,-10 1779,-30 1799,-30 1799,-10 1779,-10"/>
<text text-anchor="start" x="1802.78" y="-15.4" font-family="Times-12" font-size="14.00"> &#160;Bootstrap</text>
<polygon fill="#fdb462" stroke="transparent" points="1876,-10 1876,-30 1896,-30 1896,-10 1876,-10"/>
<text text-anchor="start" x="1899.67" y="-15.4" font-family="Times-12" font-size="14.00"> &#160;Providers</text>
<polygon fill="#fb8072" stroke="transparent" points="1972,-10 1972,-30 1992,-30 1992,-10 1972,-10"/>
<text text-anchor="start" x="1995.73" y="-15.4" font-family="Times-12" font-size="14.00"> &#160;Exports</text>
<g id="clust1" class="cluster">
<title>cluster_LearnroomModule</title>
<polygon fill="none" stroke="black" stroke-dasharray="1,5" points="8,-70 8,-268 3620,-268 3620,-70 8,-70"/>
</g>
<g id="clust6" class="cluster">
<title>cluster_LearnroomModule_providers</title>
<polygon fill="none" stroke="black" points="959,-78 959,-130 3612,-130 3612,-78 959,-78"/>
</g>
<g id="clust4" class="cluster">
<title>cluster_LearnroomModule_exports</title>
<polygon fill="none" stroke="black" points="1140,-208 1140,-260 2044,-260 2044,-208 1140,-208"/>
</g>
<g id="clust3" class="cluster">
<title>cluster_LearnroomModule_imports</title>
<polygon fill="none" stroke="black" points="16,-78 16,-130 951,-130 951,-78 16,-78"/>
</g>
<!-- BoardModule -->
<g id="node1" class="node">
<title>BoardModule</title>
<polygon fill="#8dd3c7" stroke="black" points="942.76,-122 939.76,-126 918.76,-126 915.76,-122 849.24,-122 849.24,-86 942.76,-86 942.76,-122"/>
<text text-anchor="middle" x="896" y="-99.8" font-family="Times,serif" font-size="14.00">BoardModule</text>
</g>
<!-- LearnroomModule -->
<g id="node8" class="node">
<title>LearnroomModule</title>
<polygon fill="#8dd3c7" stroke="black" points="1587.74,-187 1584.74,-191 1563.74,-191 1560.74,-187 1466.26,-187 1466.26,-151 1587.74,-151 1587.74,-187"/>
<text text-anchor="middle" x="1527" y="-164.8" font-family="Times,serif" font-size="14.00">LearnroomModule</text>
</g>
<!-- BoardModule&#45;&gt;LearnroomModule -->
<g id="edge1" class="edge">
<title>BoardModule&#45;&gt;LearnroomModule</title>
<path fill="none" stroke="black" d="M896,-122.02C896,-139.37 896,-163 896,-163 896,-163 1456.21,-163 1456.21,-163"/>
<polygon fill="black" stroke="black" points="1456.21,-166.5 1466.21,-163 1456.21,-159.5 1456.21,-166.5"/>
</g>
<!-- ContextExternalToolModule -->
<g id="node2" class="node">
<title>ContextExternalToolModule</title>
<polygon fill="#8dd3c7" stroke="black" points="830.75,-122 827.75,-126 806.75,-126 803.75,-122 653.25,-122 653.25,-86 830.75,-86 830.75,-122"/>
<text text-anchor="middle" x="742" y="-99.8" font-family="Times,serif" font-size="14.00">ContextExternalToolModule</text>
</g>
<!-- ContextExternalToolModule&#45;&gt;LearnroomModule -->
<g id="edge2" class="edge">
<title>ContextExternalToolModule&#45;&gt;LearnroomModule</title>
<path fill="none" stroke="black" d="M742,-122.3C742,-140.27 742,-165 742,-165 742,-165 1456.06,-165 1456.06,-165"/>
<polygon fill="black" stroke="black" points="1456.06,-168.5 1466.06,-165 1456.06,-161.5 1456.06,-168.5"/>
</g>
<!-- CopyHelperModule -->
<g id="node3" class="node">
<title>CopyHelperModule</title>
<polygon fill="#8dd3c7" stroke="black" points="634.97,-122 631.97,-126 610.97,-126 607.97,-122 507.03,-122 507.03,-86 634.97,-86 634.97,-122"/>
<text text-anchor="middle" x="571" y="-99.8" font-family="Times,serif" font-size="14.00">CopyHelperModule</text>
</g>
<!-- CopyHelperModule&#45;&gt;LearnroomModule -->
<g id="edge3" class="edge">
<title>CopyHelperModule&#45;&gt;LearnroomModule</title>
<path fill="none" stroke="black" d="M571,-122.17C571,-141.09 571,-168 571,-168 571,-168 1456.11,-168 1456.11,-168"/>
<polygon fill="black" stroke="black" points="1456.11,-171.5 1466.11,-168 1456.11,-164.5 1456.11,-171.5"/>
</g>
<!-- LessonModule -->
<g id="node4" class="node">
<title>LessonModule</title>
<polygon fill="#8dd3c7" stroke="black" points="488.71,-122 485.71,-126 464.71,-126 461.71,-122 389.29,-122 389.29,-86 488.71,-86 488.71,-122"/>
<text text-anchor="middle" x="439" y="-99.8" font-family="Times,serif" font-size="14.00">LessonModule</text>
</g>
<!-- LessonModule&#45;&gt;LearnroomModule -->
<g id="edge4" class="edge">
<title>LessonModule&#45;&gt;LearnroomModule</title>
<path fill="none" stroke="black" d="M439,-122.31C439,-142.15 439,-171 439,-171 439,-171 1456.17,-171 1456.17,-171"/>
<polygon fill="black" stroke="black" points="1456.17,-174.5 1466.17,-171 1456.17,-167.5 1456.17,-174.5"/>
</g>
<!-- LoggerModule -->
<g id="node5" class="node">
<title>LoggerModule</title>
<polygon fill="#8dd3c7" stroke="black" points="370.98,-122 367.98,-126 346.98,-126 343.98,-122 271.02,-122 271.02,-86 370.98,-86 370.98,-122"/>
<text text-anchor="middle" x="321" y="-99.8" font-family="Times,serif" font-size="14.00">LoggerModule</text>
</g>
<!-- LoggerModule&#45;&gt;LearnroomModule -->
<g id="edge5" class="edge">
<title>LoggerModule&#45;&gt;LearnroomModule</title>
<path fill="none" stroke="black" d="M321,-122.03C321,-142.77 321,-174 321,-174 321,-174 1455.95,-174 1455.95,-174"/>
<polygon fill="black" stroke="black" points="1455.95,-177.5 1465.95,-174 1455.95,-170.5 1455.95,-177.5"/>
</g>
<!-- TaskModule -->
<g id="node6" class="node">
<title>TaskModule</title>
<polygon fill="#8dd3c7" stroke="black" points="253.26,-122 250.26,-126 229.26,-126 226.26,-122 166.74,-122 166.74,-86 253.26,-86 253.26,-122"/>
<text text-anchor="middle" x="210" y="-99.8" font-family="Times,serif" font-size="14.00">TaskModule</text>
</g>
<!-- TaskModule&#45;&gt;LearnroomModule -->
<g id="edge6" class="edge">
<title>TaskModule&#45;&gt;LearnroomModule</title>
<path fill="none" stroke="black" d="M210,-122.17C210,-143.5 210,-176 210,-176 210,-176 1456.12,-176 1456.12,-176"/>
<polygon fill="black" stroke="black" points="1456.12,-179.5 1466.12,-176 1456.12,-172.5 1456.12,-179.5"/>
</g>
<!-- ToolConfigModule -->
<g id="node7" class="node">
<title>ToolConfigModule</title>
<polygon fill="#8dd3c7" stroke="black" points="148.38,-122 145.38,-126 124.38,-126 121.38,-122 23.62,-122 23.62,-86 148.38,-86 148.38,-122"/>
<text text-anchor="middle" x="86" y="-99.8" font-family="Times,serif" font-size="14.00">ToolConfigModule</text>
</g>
<!-- ToolConfigModule&#45;&gt;LearnroomModule -->
<g id="edge7" class="edge">
<title>ToolConfigModule&#45;&gt;LearnroomModule</title>
<path fill="none" stroke="black" d="M86,-122.16C86,-144.35 86,-179 86,-179 86,-179 1456,-179 1456,-179"/>
<polygon fill="black" stroke="black" points="1456,-182.5 1466,-179 1456,-175.5 1456,-182.5"/>
</g>
<!-- CommonCartridgeExportService  -->
<g id="node9" class="node">
<title>CommonCartridgeExportService </title>
<polygon fill="#fb8072" stroke="black" points="2036.07,-252 1831.93,-252 1831.93,-216 2036.07,-216 2036.07,-252"/>
<text text-anchor="middle" x="1934" y="-229.8" font-family="Times,serif" font-size="14.00">CommonCartridgeExportService </text>
</g>
<!-- LearnroomModule&#45;&gt;CommonCartridgeExportService  -->
<g id="edge8" class="edge">
<title>LearnroomModule&#45;&gt;CommonCartridgeExportService </title>
<path fill="none" stroke="black" stroke-dasharray="5,2" d="M1587.77,-182C1680.85,-182 1848.07,-182 1848.07,-182 1848.07,-182 1848.07,-205.81 1848.07,-205.81"/>
<polygon fill="black" stroke="black" points="1844.57,-205.81 1848.07,-215.81 1851.57,-205.81 1844.57,-205.81"/>
</g>
<!-- CourseCopyService  -->
<g id="node10" class="node">
<title>CourseCopyService </title>
<polygon fill="#fb8072" stroke="black" points="1813.97,-252 1682.03,-252 1682.03,-216 1813.97,-216 1813.97,-252"/>
<text text-anchor="middle" x="1748" y="-229.8" font-family="Times,serif" font-size="14.00">CourseCopyService </text>
</g>
<!-- LearnroomModule&#45;&gt;CourseCopyService  -->
<g id="edge9" class="edge">
<title>LearnroomModule&#45;&gt;CourseCopyService </title>
<path fill="none" stroke="black" stroke-dasharray="5,2" d="M1587.97,-185C1653.39,-185 1748,-185 1748,-185 1748,-185 1748,-205.75 1748,-205.75"/>
<polygon fill="black" stroke="black" points="1744.5,-205.75 1748,-215.75 1751.5,-205.75 1744.5,-205.75"/>
</g>
<!-- CourseGroupService  -->
<g id="node11" class="node">
<title>CourseGroupService </title>
<polygon fill="#fb8072" stroke="black" points="1664.4,-252 1527.6,-252 1527.6,-216 1664.4,-216 1664.4,-252"/>
<text text-anchor="middle" x="1596" y="-229.8" font-family="Times,serif" font-size="14.00">CourseGroupService </text>
</g>
<!-- LearnroomModule&#45;&gt;CourseGroupService  -->
<g id="edge10" class="edge">
<title>LearnroomModule&#45;&gt;CourseGroupService </title>
<path fill="none" stroke="black" stroke-dasharray="5,2" d="M1557.71,-187.11C1557.71,-187.11 1557.71,-205.99 1557.71,-205.99"/>
<polygon fill="black" stroke="black" points="1554.21,-205.99 1557.71,-215.99 1561.21,-205.99 1554.21,-205.99"/>
</g>
<!-- CourseService  -->
<g id="node12" class="node">
<title>CourseService </title>
<polygon fill="#fb8072" stroke="black" points="1509.63,-252 1408.37,-252 1408.37,-216 1509.63,-216 1509.63,-252"/>
<text text-anchor="middle" x="1459" y="-229.8" font-family="Times,serif" font-size="14.00">CourseService </text>
</g>
<!-- LearnroomModule&#45;&gt;CourseService  -->
<g id="edge11" class="edge">
<title>LearnroomModule&#45;&gt;CourseService </title>
<path fill="none" stroke="black" stroke-dasharray="5,2" d="M1487.85,-187.11C1487.85,-187.11 1487.85,-205.99 1487.85,-205.99"/>
<polygon fill="black" stroke="black" points="1484.35,-205.99 1487.85,-215.99 1491.35,-205.99 1484.35,-205.99"/>
</g>
<!-- DashboardService  -->
<g id="node13" class="node">
<title>DashboardService </title>
<polygon fill="#fb8072" stroke="black" points="1390.12,-252 1267.88,-252 1267.88,-216 1390.12,-216 1390.12,-252"/>
<text text-anchor="middle" x="1329" y="-229.8" font-family="Times,serif" font-size="14.00">DashboardService </text>
</g>
<!-- LearnroomModule&#45;&gt;DashboardService  -->
<g id="edge12" class="edge">
<title>LearnroomModule&#45;&gt;DashboardService </title>
<path fill="none" stroke="black" stroke-dasharray="5,2" d="M1466.25,-185C1408.04,-185 1329,-185 1329,-185 1329,-185 1329,-205.75 1329,-205.75"/>
<polygon fill="black" stroke="black" points="1325.5,-205.75 1329,-215.75 1332.5,-205.75 1325.5,-205.75"/>
</g>
<!-- RoomsService  -->
<g id="node14" class="node">
<title>RoomsService </title>
<polygon fill="#fb8072" stroke="black" points="1249.65,-252 1148.35,-252 1148.35,-216 1249.65,-216 1249.65,-252"/>
<text text-anchor="middle" x="1199" y="-229.8" font-family="Times,serif" font-size="14.00">RoomsService </text>
</g>
<!-- LearnroomModule&#45;&gt;RoomsService  -->
<g id="edge13" class="edge">
<title>LearnroomModule&#45;&gt;RoomsService </title>
<path fill="none" stroke="black" stroke-dasharray="5,2" d="M1466.16,-182C1382.82,-182 1243.38,-182 1243.38,-182 1243.38,-182 1243.38,-205.81 1243.38,-205.81"/>
<polygon fill="black" stroke="black" points="1239.88,-205.81 1243.38,-215.81 1246.88,-205.81 1239.88,-205.81"/>
</g>
<!-- BoardCopyService -->
<g id="node15" class="node">
<title>BoardCopyService</title>
<ellipse fill="#fdb462" stroke="black" cx="3519" cy="-104" rx="84.53" ry="18"/>
<text text-anchor="middle" x="3519" y="-99.8" font-family="Times,serif" font-size="14.00">BoardCopyService</text>
</g>
<!-- BoardCopyService&#45;&gt;LearnroomModule -->
<g id="edge14" class="edge">
<title>BoardCopyService&#45;&gt;LearnroomModule</title>
<path fill="none" stroke="black" d="M3519,-122.16C3519,-144.35 3519,-179 3519,-179 3519,-179 1597.98,-179 1597.98,-179"/>
<polygon fill="black" stroke="black" points="1597.98,-175.5 1587.98,-179 1597.98,-182.5 1597.98,-175.5"/>
</g>
<!-- BoardRepo -->
<g id="node16" class="node">
<title>BoardRepo</title>
<ellipse fill="#fdb462" stroke="black" cx="3361" cy="-104" rx="55.04" ry="18"/>
<text text-anchor="middle" x="3361" y="-99.8" font-family="Times,serif" font-size="14.00">BoardRepo</text>
</g>
<!-- BoardRepo&#45;&gt;LearnroomModule -->
<g id="edge15" class="edge">
<title>BoardRepo&#45;&gt;LearnroomModule</title>
<path fill="none" stroke="black" d="M3361,-122.17C3361,-143.5 3361,-176 3361,-176 3361,-176 1597.76,-176 1597.76,-176"/>
<polygon fill="black" stroke="black" points="1597.76,-172.5 1587.76,-176 1597.76,-179.5 1597.76,-172.5"/>
</g>
<!-- ColumnBoardTargetService -->
<g id="node17" class="node">
<title>ColumnBoardTargetService</title>
<ellipse fill="#fdb462" stroke="black" cx="3168" cy="-104" rx="119.82" ry="18"/>
<text text-anchor="middle" x="3168" y="-99.8" font-family="Times,serif" font-size="14.00">ColumnBoardTargetService</text>
</g>
<!-- ColumnBoardTargetService&#45;&gt;LearnroomModule -->
<g id="edge16" class="edge">
<title>ColumnBoardTargetService&#45;&gt;LearnroomModule</title>
<path fill="none" stroke="black" d="M3168,-122.03C3168,-142.77 3168,-174 3168,-174 3168,-174 1597.84,-174 1597.84,-174"/>
<polygon fill="black" stroke="black" points="1597.84,-170.5 1587.84,-174 1597.84,-177.5 1597.84,-170.5"/>
</g>
<!-- CommonCartridgeExportService -->
<g id="node18" class="node">
<title>CommonCartridgeExportService</title>
<ellipse fill="#fdb462" stroke="black" cx="2891" cy="-104" rx="138.89" ry="18"/>
<text text-anchor="middle" x="2891" y="-99.8" font-family="Times,serif" font-size="14.00">CommonCartridgeExportService</text>
</g>
<!-- CommonCartridgeExportService&#45;&gt;LearnroomModule -->
<g id="edge17" class="edge">
<title>CommonCartridgeExportService&#45;&gt;LearnroomModule</title>
<path fill="none" stroke="black" d="M2891,-122.31C2891,-142.15 2891,-171 2891,-171 2891,-171 1597.81,-171 1597.81,-171"/>
<polygon fill="black" stroke="black" points="1597.81,-167.5 1587.81,-171 1597.81,-174.5 1597.81,-167.5"/>
</g>
<!-- CourseCopyService -->
<g id="node19" class="node">
<title>CourseCopyService</title>
<ellipse fill="#fdb462" stroke="black" cx="2646" cy="-104" rx="88.04" ry="18"/>
<text text-anchor="middle" x="2646" y="-99.8" font-family="Times,serif" font-size="14.00">CourseCopyService</text>
</g>
<!-- CourseCopyService&#45;&gt;LearnroomModule -->
<g id="edge18" class="edge">
<title>CourseCopyService&#45;&gt;LearnroomModule</title>
<path fill="none" stroke="black" d="M2646,-122.17C2646,-141.09 2646,-168 2646,-168 2646,-168 1597.96,-168 1597.96,-168"/>
<polygon fill="black" stroke="black" points="1597.96,-164.5 1587.96,-168 1597.96,-171.5 1597.96,-164.5"/>
</g>
<!-- CourseGroupRepo -->
<g id="node20" class="node">
<title>CourseGroupRepo</title>
<ellipse fill="#fdb462" stroke="black" cx="2456" cy="-104" rx="83.39" ry="18"/>
<text text-anchor="middle" x="2456" y="-99.8" font-family="Times,serif" font-size="14.00">CourseGroupRepo</text>
</g>
<!-- CourseGroupRepo&#45;&gt;LearnroomModule -->
<g id="edge19" class="edge">
<title>CourseGroupRepo&#45;&gt;LearnroomModule</title>
<path fill="none" stroke="black" d="M2456,-122.3C2456,-140.27 2456,-165 2456,-165 2456,-165 1597.95,-165 1597.95,-165"/>
<polygon fill="black" stroke="black" points="1597.95,-161.5 1587.95,-165 1597.95,-168.5 1597.95,-161.5"/>
</g>
<!-- CourseGroupService -->
<g id="node21" class="node">
<title>CourseGroupService</title>
<ellipse fill="#fdb462" stroke="black" cx="2263" cy="-104" rx="92.04" ry="18"/>
<text text-anchor="middle" x="2263" y="-99.8" font-family="Times,serif" font-size="14.00">CourseGroupService</text>
</g>
<!-- CourseGroupService&#45;&gt;LearnroomModule -->
<g id="edge20" class="edge">
<title>CourseGroupService&#45;&gt;LearnroomModule</title>
<path fill="none" stroke="black" d="M2263,-122.02C2263,-139.37 2263,-163 2263,-163 2263,-163 1597.86,-163 1597.86,-163"/>
<polygon fill="black" stroke="black" points="1597.86,-159.5 1587.86,-163 1597.86,-166.5 1597.86,-159.5"/>
</g>
<!-- CourseRepo -->
<g id="node22" class="node">
<title>CourseRepo</title>
<ellipse fill="#fdb462" stroke="black" cx="2094" cy="-104" rx="58.55" ry="18"/>
<text text-anchor="middle" x="2094" y="-99.8" font-family="Times,serif" font-size="14.00">CourseRepo</text>
</g>
<!-- CourseRepo&#45;&gt;LearnroomModule -->
<g id="edge21" class="edge">
<title>CourseRepo&#45;&gt;LearnroomModule</title>
<path fill="none" stroke="black" d="M2094.53,-122.03C2094.53,-138.4 2094.53,-160 2094.53,-160 2094.53,-160 1598,-160 1598,-160"/>
<polygon fill="black" stroke="black" points="1598,-156.5 1588,-160 1598,-163.5 1598,-156.5"/>
</g>
<!-- CourseService -->
<g id="node23" class="node">
<title>CourseService</title>
<ellipse fill="#fdb462" stroke="black" cx="1950" cy="-104" rx="67.19" ry="18"/>
<text text-anchor="middle" x="1950" y="-99.8" font-family="Times,serif" font-size="14.00">CourseService</text>
</g>
<!-- CourseService&#45;&gt;LearnroomModule -->
<g id="edge22" class="edge">
<title>CourseService&#45;&gt;LearnroomModule</title>
<path fill="none" stroke="black" d="M1950,-122.24C1950,-137.57 1950,-157 1950,-157 1950,-157 1598.06,-157 1598.06,-157"/>
<polygon fill="black" stroke="black" points="1598.06,-153.5 1588.06,-157 1598.06,-160.5 1598.06,-153.5"/>
</g>
<!-- DashboardElementRepo -->
<g id="node24" class="node">
<title>DashboardElementRepo</title>
<ellipse fill="#fdb462" stroke="black" cx="1759" cy="-104" rx="105.36" ry="18"/>
<text text-anchor="middle" x="1759" y="-99.8" font-family="Times,serif" font-size="14.00">DashboardElementRepo</text>
</g>
<!-- DashboardElementRepo&#45;&gt;LearnroomModule -->
<g id="edge23" class="edge">
<title>DashboardElementRepo&#45;&gt;LearnroomModule</title>
<path fill="none" stroke="black" d="M1659.01,-109.74C1659.01,-122.87 1659.01,-154 1659.01,-154 1659.01,-154 1597.98,-154 1597.98,-154"/>
<polygon fill="black" stroke="black" points="1597.98,-150.5 1587.98,-154 1597.98,-157.5 1597.98,-150.5"/>
</g>
<!-- DashboardModelMapper -->
<g id="node25" class="node">
<title>DashboardModelMapper</title>
<ellipse fill="#fdb462" stroke="black" cx="1527" cy="-104" rx="108.21" ry="18"/>
<text text-anchor="middle" x="1527" y="-99.8" font-family="Times,serif" font-size="14.00">DashboardModelMapper</text>
</g>
<!-- DashboardModelMapper&#45;&gt;LearnroomModule -->
<g id="edge24" class="edge">
<title>DashboardModelMapper&#45;&gt;LearnroomModule</title>
<path fill="none" stroke="black" d="M1527,-122.11C1527,-122.11 1527,-140.99 1527,-140.99"/>
<polygon fill="black" stroke="black" points="1523.5,-140.99 1527,-150.99 1530.5,-140.99 1523.5,-140.99"/>
</g>
<!-- DashboardService -->
<g id="node26" class="node">
<title>DashboardService</title>
<ellipse fill="#fdb462" stroke="black" cx="1319" cy="-104" rx="81.64" ry="18"/>
<text text-anchor="middle" x="1319" y="-99.8" font-family="Times,serif" font-size="14.00">DashboardService</text>
</g>
<!-- DashboardService&#45;&gt;LearnroomModule -->
<g id="edge25" class="edge">
<title>DashboardService&#45;&gt;LearnroomModule</title>
<path fill="none" stroke="black" d="M1395.44,-110.54C1395.44,-124.09 1395.44,-154 1395.44,-154 1395.44,-154 1456.23,-154 1456.23,-154"/>
<polygon fill="black" stroke="black" points="1456.23,-157.5 1466.23,-154 1456.23,-150.5 1456.23,-157.5"/>
</g>
<!-- RoomsService -->
<g id="node27" class="node">
<title>RoomsService</title>
<ellipse fill="#fdb462" stroke="black" cx="1152" cy="-104" rx="67.21" ry="18"/>
<text text-anchor="middle" x="1152" y="-99.8" font-family="Times,serif" font-size="14.00">RoomsService</text>
</g>
<!-- RoomsService&#45;&gt;LearnroomModule -->
<g id="edge26" class="edge">
<title>RoomsService&#45;&gt;LearnroomModule</title>
<path fill="none" stroke="black" d="M1183.89,-119.9C1183.89,-135.51 1183.89,-157 1183.89,-157 1183.89,-157 1456.05,-157 1456.05,-157"/>
<polygon fill="black" stroke="black" points="1456.05,-160.5 1466.05,-157 1456.05,-153.5 1456.05,-160.5"/>
</g>
<!-- UserRepo -->
<g id="node28" class="node">
<title>UserRepo</title>
<ellipse fill="#fdb462" stroke="black" cx="1017" cy="-104" rx="49.8" ry="18"/>
<text text-anchor="middle" x="1017" y="-99.8" font-family="Times,serif" font-size="14.00">UserRepo</text>
</g>
<!-- UserRepo&#45;&gt;LearnroomModule -->
<g id="edge27" class="edge">
<title>UserRepo&#45;&gt;LearnroomModule</title>
<path fill="none" stroke="black" d="M1017,-122.03C1017,-138.4 1017,-160 1017,-160 1017,-160 1456.24,-160 1456.24,-160"/>
<polygon fill="black" stroke="black" points="1456.24,-163.5 1466.24,-160 1456.24,-156.5 1456.24,-163.5"/>
</g>
</g>
</svg>
