<?xml version="1.0" encoding="UTF-8" standalone="no"?>
<!DOCTYPE svg PUBLIC "-//W3C//DTD SVG 1.1//EN"
 "http://www.w3.org/Graphics/SVG/1.1/DTD/svg11.dtd">
<!-- Generated by graphviz version 2.47.0 (20210316.0004)
 -->
<!-- Title: dependencies Pages: 1 -->
<svg width="753pt" height="284pt"
 viewBox="0.00 0.00 753.00 284.00" xmlns="http://www.w3.org/2000/svg" xmlns:xlink="http://www.w3.org/1999/xlink">
<g id="graph0" class="graph" transform="scale(1 1) rotate(0) translate(4 280)">
<title>dependencies</title>
<polygon fill="white" stroke="transparent" points="-4,4 -4,-280 749,-280 749,4 -4,4"/>
<text text-anchor="start" x="351.51" y="-42.4" font-family="Times-12" font-weight="bold" font-size="14.00">Legend</text>
<polygon fill="#ffffb3" stroke="transparent" points="138.5,-10 138.5,-30 158.5,-30 158.5,-10 138.5,-10"/>
<text text-anchor="start" x="162.13" y="-15.4" font-family="Times-12" font-size="14.00"> &#160;Declarations</text>
<polygon fill="#8dd3c7" stroke="transparent" points="251.5,-10 251.5,-30 271.5,-30 271.5,-10 251.5,-10"/>
<text text-anchor="start" x="275.23" y="-15.4" font-family="Times-12" font-size="14.00"> &#160;Module</text>
<polygon fill="#80b1d3" stroke="transparent" points="337.5,-10 337.5,-30 357.5,-30 357.5,-10 337.5,-10"/>
<text text-anchor="start" x="361.28" y="-15.4" font-family="Times-12" font-size="14.00"> &#160;Bootstrap</text>
<polygon fill="#fdb462" stroke="transparent" points="434.5,-10 434.5,-30 454.5,-30 454.5,-10 434.5,-10"/>
<text text-anchor="start" x="458.17" y="-15.4" font-family="Times-12" font-size="14.00"> &#160;Providers</text>
<polygon fill="#fb8072" stroke="transparent" points="530.5,-10 530.5,-30 550.5,-30 550.5,-10 530.5,-10"/>
<text text-anchor="start" x="554.23" y="-15.4" font-family="Times-12" font-size="14.00"> &#160;Exports</text>
<g id="clust1" class="cluster">
<title>cluster_FilesStorageModule</title>
<polygon fill="none" stroke="black" stroke-dasharray="1,5" points="8,-70 8,-268 737,-268 737,-70 8,-70"/>
</g>
<g id="clust6" class="cluster">
<title>cluster_FilesStorageModule_providers</title>
<polygon fill="none" stroke="black" points="208,-78 208,-130 729,-130 729,-78 208,-78"/>
</g>
<g id="clust4" class="cluster">
<title>cluster_FilesStorageModule_exports</title>
<polygon fill="none" stroke="black" points="246,-208 246,-260 519,-260 519,-208 246,-208"/>
</g>
<g id="clust3" class="cluster">
<title>cluster_FilesStorageModule_imports</title>
<polygon fill="none" stroke="black" points="16,-78 16,-130 200,-130 200,-78 16,-78"/>
</g>
<!-- RabbitMQWrapperModule -->
<g id="node1" class="node">
<title>RabbitMQWrapperModule</title>
<polygon fill="#8dd3c7" stroke="black" points="192.4,-122 189.4,-126 168.4,-126 165.4,-122 23.6,-122 23.6,-86 192.4,-86 192.4,-122"/>
<text text-anchor="middle" x="108" y="-99.8" font-family="Times,serif" font-size="14.00">RabbitMQWrapperModule</text>
</g>
<!-- FilesStorageModule -->
<g id="node2" class="node">
<title>FilesStorageModule</title>
<polygon fill="#8dd3c7" stroke="black" points="441.54,-187 438.54,-191 417.54,-191 414.54,-187 312.46,-187 312.46,-151 441.54,-151 441.54,-187"/>
<text text-anchor="middle" x="377" y="-164.8" font-family="Times,serif" font-size="14.00">FilesStorageModule</text>
</g>
<!-- RabbitMQWrapperModule&#45;&gt;FilesStorageModule -->
<g id="edge1" class="edge">
<title>RabbitMQWrapperModule&#45;&gt;FilesStorageModule</title>
<path fill="none" stroke="black" d="M108,-122.11C108,-141.34 108,-169 108,-169 108,-169 302.23,-169 302.23,-169"/>
<polygon fill="black" stroke="black" points="302.23,-172.5 312.23,-169 302.23,-165.5 302.23,-172.5"/>
</g>
<!-- FilesStorageService  -->
<g id="node3" class="node">
<title>FilesStorageService </title>
<polygon fill="#fb8072" stroke="black" points="510.96,-252 379.04,-252 379.04,-216 510.96,-216 510.96,-252"/>
<text text-anchor="middle" x="445" y="-229.8" font-family="Times,serif" font-size="14.00">FilesStorageService </text>
</g>
<!-- FilesStorageModule&#45;&gt;FilesStorageService  -->
<g id="edge2" class="edge">
<title>FilesStorageModule&#45;&gt;FilesStorageService </title>
<path fill="none" stroke="black" stroke-dasharray="5,2" d="M410.52,-187.11C410.52,-187.11 410.52,-205.99 410.52,-205.99"/>
<polygon fill="black" stroke="black" points="407.02,-205.99 410.52,-215.99 414.02,-205.99 407.02,-205.99"/>
</g>
<!-- PreviewService  -->
<g id="node4" class="node">
<title>PreviewService </title>
<polygon fill="#fb8072" stroke="black" points="361.85,-252 254.15,-252 254.15,-216 361.85,-216 361.85,-252"/>
<text text-anchor="middle" x="308" y="-229.8" font-family="Times,serif" font-size="14.00">PreviewService </text>
</g>
<!-- FilesStorageModule&#45;&gt;PreviewService  -->
<g id="edge3" class="edge">
<title>FilesStorageModule&#45;&gt;PreviewService </title>
<path fill="none" stroke="black" stroke-dasharray="5,2" d="M336.95,-187.11C336.95,-187.11 336.95,-205.99 336.95,-205.99"/>
<polygon fill="black" stroke="black" points="333.45,-205.99 336.95,-215.99 340.45,-205.99 333.45,-205.99"/>
</g>
<!-- FileRecordRepo -->
<g id="node5" class="node">
<title>FileRecordRepo</title>
<ellipse fill="#fdb462" stroke="black" cx="647" cy="-104" rx="74.16" ry="18"/>
<text text-anchor="middle" x="647" y="-99.8" font-family="Times,serif" font-size="14.00">FileRecordRepo</text>
</g>
<!-- FileRecordRepo&#45;&gt;FilesStorageModule -->
<g id="edge4" class="edge">
<title>FileRecordRepo&#45;&gt;FilesStorageModule</title>
<path fill="none" stroke="black" d="M647,-122.11C647,-141.34 647,-169 647,-169 647,-169 451.67,-169 451.67,-169"/>
<polygon fill="black" stroke="black" points="451.67,-165.5 441.67,-169 451.67,-172.5 451.67,-165.5"/>
</g>
<!-- FilesStorageService -->
<g id="node6" class="node">
<title>FilesStorageService</title>
<ellipse fill="#fdb462" stroke="black" cx="466" cy="-104" rx="88.03" ry="18"/>
<text text-anchor="middle" x="466" y="-99.8" font-family="Times,serif" font-size="14.00">FilesStorageService</text>
</g>
<!-- FilesStorageService&#45;&gt;FilesStorageModule -->
<g id="edge5" class="edge">
<title>FilesStorageService&#45;&gt;FilesStorageModule</title>
<path fill="none" stroke="black" d="M409.75,-118.1C409.75,-118.1 409.75,-140.72 409.75,-140.72"/>
<polygon fill="black" stroke="black" points="406.25,-140.72 409.75,-150.72 413.25,-140.72 406.25,-140.72"/>
</g>
<!-- PreviewService -->
<g id="node7" class="node">
<title>PreviewService</title>
<ellipse fill="#fdb462" stroke="black" cx="288" cy="-104" rx="71.76" ry="18"/>
<text text-anchor="middle" x="288" y="-99.8" font-family="Times,serif" font-size="14.00">PreviewService</text>
</g>
<!-- PreviewService&#45;&gt;FilesStorageModule -->
<g id="edge6" class="edge">
<title>PreviewService&#45;&gt;FilesStorageModule</title>
<path fill="none" stroke="black" d="M335.93,-117.47C335.93,-117.47 335.93,-140.86 335.93,-140.86"/>
<polygon fill="black" stroke="black" points="332.43,-140.86 335.93,-150.86 339.43,-140.86 332.43,-140.86"/>
</g>
</g>
</svg>
