<?xml version="1.0" encoding="UTF-8" standalone="no"?>
<!DOCTYPE svg PUBLIC "-//W3C//DTD SVG 1.1//EN"
 "http://www.w3.org/Graphics/SVG/1.1/DTD/svg11.dtd">
<!-- Generated by graphviz version 2.47.0 (20210316.0004)
 -->
<!-- Title: dependencies Pages: 1 -->
<svg width="1670pt" height="284pt"
 viewBox="0.00 0.00 1670.00 284.00" xmlns="http://www.w3.org/2000/svg" xmlns:xlink="http://www.w3.org/1999/xlink">
<g id="graph0" class="graph" transform="scale(1 1) rotate(0) translate(4 280)">
<title>dependencies</title>
<polygon fill="white" stroke="transparent" points="-4,4 -4,-280 1666,-280 1666,4 -4,4"/>
<text text-anchor="start" x="810.01" y="-42.4" font-family="Times-12" font-weight="bold" font-size="14.00">Legend</text>
<polygon fill="#ffffb3" stroke="transparent" points="597,-10 597,-30 617,-30 617,-10 597,-10"/>
<text text-anchor="start" x="620.63" y="-15.4" font-family="Times-12" font-size="14.00"> &#160;Declarations</text>
<polygon fill="#8dd3c7" stroke="transparent" points="710,-10 710,-30 730,-30 730,-10 710,-10"/>
<text text-anchor="start" x="733.73" y="-15.4" font-family="Times-12" font-size="14.00"> &#160;Module</text>
<polygon fill="#80b1d3" stroke="transparent" points="796,-10 796,-30 816,-30 816,-10 796,-10"/>
<text text-anchor="start" x="819.78" y="-15.4" font-family="Times-12" font-size="14.00"> &#160;Bootstrap</text>
<polygon fill="#fdb462" stroke="transparent" points="893,-10 893,-30 913,-30 913,-10 893,-10"/>
<text text-anchor="start" x="916.67" y="-15.4" font-family="Times-12" font-size="14.00"> &#160;Providers</text>
<polygon fill="#fb8072" stroke="transparent" points="989,-10 989,-30 1009,-30 1009,-10 989,-10"/>
<text text-anchor="start" x="1012.73" y="-15.4" font-family="Times-12" font-size="14.00"> &#160;Exports</text>
<g id="clust1" class="cluster">
<title>cluster_FilesStorageModule</title>
<polygon fill="none" stroke="black" stroke-dasharray="1,5" points="8,-70 8,-268 1654,-268 1654,-70 8,-70"/>
</g>
<g id="clust3" class="cluster">
<title>cluster_FilesStorageModule_imports</title>
<polygon fill="none" stroke="black" points="545,-78 545,-130 1646,-130 1646,-78 545,-78"/>
</g>
<g id="clust4" class="cluster">
<title>cluster_FilesStorageModule_exports</title>
<polygon fill="none" stroke="black" points="792,-208 792,-260 1065,-260 1065,-208 792,-208"/>
</g>
<g id="clust6" class="cluster">
<title>cluster_FilesStorageModule_providers</title>
<polygon fill="none" stroke="black" points="16,-78 16,-130 537,-130 537,-78 16,-78"/>
</g>
<!-- AuthenticationModule -->
<g id="node1" class="node">
<title>AuthenticationModule</title>
<polygon fill="#8dd3c7" stroke="black" points="1638.25,-122 1635.25,-126 1614.25,-126 1611.25,-122 1495.75,-122 1495.75,-86 1638.25,-86 1638.25,-122"/>
<text text-anchor="middle" x="1567" y="-99.8" font-family="Times,serif" font-size="14.00">AuthenticationModule</text>
</g>
<!-- FilesStorageModule -->
<g id="node8" class="node">
<title>FilesStorageModule</title>
<polygon fill="#8dd3c7" stroke="black" points="987.54,-187 984.54,-191 963.54,-191 960.54,-187 858.46,-187 858.46,-151 987.54,-151 987.54,-187"/>
<text text-anchor="middle" x="923" y="-164.8" font-family="Times,serif" font-size="14.00">FilesStorageModule</text>
</g>
<!-- AuthenticationModule&#45;&gt;FilesStorageModule -->
<g id="edge1" class="edge">
<title>AuthenticationModule&#45;&gt;FilesStorageModule</title>
<path fill="none" stroke="black" d="M1567,-122.01C1567,-144.49 1567,-180 1567,-180 1567,-180 997.7,-180 997.7,-180"/>
<polygon fill="black" stroke="black" points="997.7,-176.5 987.7,-180 997.7,-183.5 997.7,-176.5"/>
</g>
<!-- AuthorizationModule -->
<g id="node2" class="node">
<title>AuthorizationModule</title>
<polygon fill="#8dd3c7" stroke="black" points="1477.81,-122 1474.81,-126 1453.81,-126 1450.81,-122 1340.19,-122 1340.19,-86 1477.81,-86 1477.81,-122"/>
<text text-anchor="middle" x="1409" y="-99.8" font-family="Times,serif" font-size="14.00">AuthorizationModule</text>
</g>
<!-- AuthorizationModule&#45;&gt;FilesStorageModule -->
<g id="edge2" class="edge">
<title>AuthorizationModule&#45;&gt;FilesStorageModule</title>
<path fill="none" stroke="black" d="M1409,-122.13C1409,-142.57 1409,-173 1409,-173 1409,-173 997.54,-173 997.54,-173"/>
<polygon fill="black" stroke="black" points="997.54,-169.5 987.54,-173 997.54,-176.5 997.54,-169.5"/>
</g>
<!-- CoreModule -->
<g id="node3" class="node">
<title>CoreModule</title>
<polygon fill="#8dd3c7" stroke="black" points="1322.26,-122 1319.26,-126 1298.26,-126 1295.26,-122 1235.74,-122 1235.74,-86 1322.26,-86 1322.26,-122"/>
<text text-anchor="middle" x="1279" y="-99.8" font-family="Times,serif" font-size="14.00">CoreModule</text>
</g>
<!-- CoreModule&#45;&gt;FilesStorageModule -->
<g id="edge3" class="edge">
<title>CoreModule&#45;&gt;FilesStorageModule</title>
<path fill="none" stroke="black" d="M1279,-122.27C1279,-140.56 1279,-166 1279,-166 1279,-166 997.88,-166 997.88,-166"/>
<polygon fill="black" stroke="black" points="997.88,-162.5 987.88,-166 997.88,-169.5 997.88,-162.5"/>
</g>
<!-- FilesStorageApiModule -->
<g id="node4" class="node">
<title>FilesStorageApiModule</title>
<polygon fill="#8dd3c7" stroke="black" points="1217.03,-122 1214.03,-126 1193.03,-126 1190.03,-122 1066.97,-122 1066.97,-86 1217.03,-86 1217.03,-122"/>
<text text-anchor="middle" x="1142" y="-99.8" font-family="Times,serif" font-size="14.00">FilesStorageApiModule</text>
</g>
<!-- FilesStorageApiModule&#45;&gt;FilesStorageModule -->
<g id="edge4" class="edge">
<title>FilesStorageApiModule&#45;&gt;FilesStorageModule</title>
<path fill="none" stroke="black" d="M1142,-122.01C1142,-138.05 1142,-159 1142,-159 1142,-159 997.82,-159 997.82,-159"/>
<polygon fill="black" stroke="black" points="997.82,-155.5 987.82,-159 997.82,-162.5 997.82,-155.5"/>
</g>
<!-- LoggerModule -->
<g id="node5" class="node">
<title>LoggerModule</title>
<polygon fill="#8dd3c7" stroke="black" points="1048.98,-122 1045.98,-126 1024.98,-126 1021.98,-122 949.02,-122 949.02,-86 1048.98,-86 1048.98,-122"/>
<text text-anchor="middle" x="999" y="-99.8" font-family="Times,serif" font-size="14.00">LoggerModule</text>
</g>
<!-- LoggerModule&#45;&gt;FilesStorageModule -->
<g id="edge5" class="edge">
<title>LoggerModule&#45;&gt;FilesStorageModule</title>
<path fill="none" stroke="black" d="M968.39,-122.11C968.39,-122.11 968.39,-140.99 968.39,-140.99"/>
<polygon fill="black" stroke="black" points="964.89,-140.99 968.39,-150.99 971.89,-140.99 964.89,-140.99"/>
</g>
<!-- RabbitMQWrapperModule -->
<g id="node6" class="node">
<title>RabbitMQWrapperModule</title>
<polygon fill="#8dd3c7" stroke="black" points="931.4,-122 928.4,-126 907.4,-126 904.4,-122 762.6,-122 762.6,-86 931.4,-86 931.4,-122"/>
<text text-anchor="middle" x="847" y="-99.8" font-family="Times,serif" font-size="14.00">RabbitMQWrapperModule</text>
</g>
<!-- RabbitMQWrapperModule&#45;&gt;FilesStorageModule -->
<g id="edge6" class="edge">
<title>RabbitMQWrapperModule&#45;&gt;FilesStorageModule</title>
<path fill="none" stroke="black" d="M894.72,-122.11C894.72,-122.11 894.72,-140.99 894.72,-140.99"/>
<polygon fill="black" stroke="black" points="891.22,-140.99 894.72,-150.99 898.22,-140.99 891.22,-140.99"/>
</g>
<!-- RabbitMQWrapperTestModule -->
<g id="node7" class="node">
<title>RabbitMQWrapperTestModule</title>
<polygon fill="#8dd3c7" stroke="black" points="745,-122 742,-126 721,-126 718,-122 553,-122 553,-86 745,-86 745,-122"/>
<text text-anchor="middle" x="649" y="-99.8" font-family="Times,serif" font-size="14.00">RabbitMQWrapperTestModule</text>
</g>
<!-- RabbitMQWrapperTestModule&#45;&gt;FilesStorageModule -->
<g id="edge7" class="edge">
<title>RabbitMQWrapperTestModule&#45;&gt;FilesStorageModule</title>
<path fill="none" stroke="black" d="M649,-122.01C649,-138.05 649,-159 649,-159 649,-159 848.41,-159 848.41,-159"/>
<polygon fill="black" stroke="black" points="848.41,-162.5 858.41,-159 848.41,-155.5 848.41,-162.5"/>
</g>
<!-- FilesStorageService  -->
<g id="node9" class="node">
<title>FilesStorageService </title>
<polygon fill="#fb8072" stroke="black" points="1056.96,-252 925.04,-252 925.04,-216 1056.96,-216 1056.96,-252"/>
<text text-anchor="middle" x="991" y="-229.8" font-family="Times,serif" font-size="14.00">FilesStorageService </text>
</g>
<!-- FilesStorageModule&#45;&gt;FilesStorageService  -->
<g id="edge8" class="edge">
<title>FilesStorageModule&#45;&gt;FilesStorageService </title>
<path fill="none" stroke="black" stroke-dasharray="5,2" d="M956.52,-187.11C956.52,-187.11 956.52,-205.99 956.52,-205.99"/>
<polygon fill="black" stroke="black" points="953.02,-205.99 956.52,-215.99 960.02,-205.99 953.02,-205.99"/>
</g>
<!-- PreviewService  -->
<g id="node10" class="node">
<title>PreviewService </title>
<polygon fill="#fb8072" stroke="black" points="907.85,-252 800.15,-252 800.15,-216 907.85,-216 907.85,-252"/>
<text text-anchor="middle" x="854" y="-229.8" font-family="Times,serif" font-size="14.00">PreviewService </text>
</g>
<!-- FilesStorageModule&#45;&gt;PreviewService  -->
<g id="edge9" class="edge">
<title>FilesStorageModule&#45;&gt;PreviewService </title>
<path fill="none" stroke="black" stroke-dasharray="5,2" d="M882.95,-187.11C882.95,-187.11 882.95,-205.99 882.95,-205.99"/>
<polygon fill="black" stroke="black" points="879.45,-205.99 882.95,-215.99 886.45,-205.99 879.45,-205.99"/>
</g>
<!-- FileRecordRepo -->
<g id="node11" class="node">
<title>FileRecordRepo</title>
<ellipse fill="#fdb462" stroke="black" cx="455" cy="-104" rx="74.16" ry="18"/>
<text text-anchor="middle" x="455" y="-99.8" font-family="Times,serif" font-size="14.00">FileRecordRepo</text>
</g>
<!-- FileRecordRepo&#45;&gt;FilesStorageModule -->
<g id="edge10" class="edge">
<title>FileRecordRepo&#45;&gt;FilesStorageModule</title>
<path fill="none" stroke="black" d="M455,-122.27C455,-140.56 455,-166 455,-166 455,-166 848.42,-166 848.42,-166"/>
<polygon fill="black" stroke="black" points="848.42,-169.5 858.42,-166 848.42,-162.5 848.42,-169.5"/>
</g>
<!-- FilesStorageService -->
<g id="node12" class="node">
<title>FilesStorageService</title>
<ellipse fill="#fdb462" stroke="black" cx="274" cy="-104" rx="88.03" ry="18"/>
<text text-anchor="middle" x="274" y="-99.8" font-family="Times,serif" font-size="14.00">FilesStorageService</text>
</g>
<!-- FilesStorageService&#45;&gt;FilesStorageModule -->
<g id="edge11" class="edge">
<title>FilesStorageService&#45;&gt;FilesStorageModule</title>
<path fill="none" stroke="black" d="M274,-122.13C274,-142.57 274,-173 274,-173 274,-173 848.4,-173 848.4,-173"/>
<polygon fill="black" stroke="black" points="848.4,-176.5 858.4,-173 848.4,-169.5 848.4,-176.5"/>
</g>
<!-- PreviewService -->
<g id="node13" class="node">
<title>PreviewService</title>
<ellipse fill="#fdb462" stroke="black" cx="96" cy="-104" rx="71.76" ry="18"/>
<text text-anchor="middle" x="96" y="-99.8" font-family="Times,serif" font-size="14.00">PreviewService</text>
</g>
<!-- PreviewService&#45;&gt;FilesStorageModule -->
<g id="edge12" class="edge">
<title>PreviewService&#45;&gt;FilesStorageModule</title>
<path fill="none" stroke="black" d="M96,-122.01C96,-144.49 96,-180 96,-180 96,-180 848.45,-180 848.45,-180"/>
<polygon fill="black" stroke="black" points="848.45,-183.5 858.45,-180 848.45,-176.5 848.45,-183.5"/>
</g>
</g>
</svg>
