<?xml version="1.0" encoding="UTF-8" standalone="no"?>
<!DOCTYPE svg PUBLIC "-//W3C//DTD SVG 1.1//EN"
 "http://www.w3.org/Graphics/SVG/1.1/DTD/svg11.dtd">
<!-- Generated by graphviz version 5.0.0 (20220707.1540)
 -->
<!-- Title: dependencies Pages: 1 -->
<svg width="1678pt" height="247pt"
 viewBox="0.00 0.00 1678.00 246.80" xmlns="http://www.w3.org/2000/svg" xmlns:xlink="http://www.w3.org/1999/xlink">
<g id="graph0" class="graph" transform="scale(1 1) rotate(0) translate(4 242.8)">
<title>dependencies</title>
<polygon fill="white" stroke="transparent" points="-4,4 -4,-242.8 1674,-242.8 1674,4 -4,4"/>
<text text-anchor="middle" x="835" y="-8.2" font-family="sans-serif" font-size="14.00">dependencies</text>
<g id="clust1" class="cluster">
<title>cluster_FilesStorageModule</title>
<polygon fill="none" stroke="black" stroke-dasharray="1,5" points="8,-32.8 8,-230.8 1662,-230.8 1662,-32.8 8,-32.8"/>
</g>
<g id="clust4" class="cluster">
<title>cluster_FilesStorageModule_exports</title>
<polygon fill="none" stroke="black" points="857,-170.8 857,-222.8 1005,-222.8 1005,-170.8 857,-170.8"/>
</g>
<g id="clust3" class="cluster">
<title>cluster_FilesStorageModule_imports</title>
<polygon fill="none" stroke="black" points="553,-40.8 553,-92.8 1654,-92.8 1654,-40.8 553,-40.8"/>
</g>
<g id="clust6" class="cluster">
<title>cluster_FilesStorageModule_providers</title>
<polygon fill="none" stroke="black" points="16,-40.8 16,-92.8 545,-92.8 545,-40.8 16,-40.8"/>
</g>
<!-- AuthenticationModule -->
<g id="node1" class="node">
<title>AuthenticationModule</title>
<polygon fill="#8dd3c7" stroke="black" points="1646.25,-84.8 1643.25,-88.8 1622.25,-88.8 1619.25,-84.8 1503.75,-84.8 1503.75,-48.8 1646.25,-48.8 1646.25,-84.8"/>
<text text-anchor="middle" x="1575" y="-62.6" font-family="Times,serif" font-size="14.00">AuthenticationModule</text>
</g>
<!-- FilesStorageModule -->
<g id="node8" class="node">
<title>FilesStorageModule</title>
<polygon fill="#8dd3c7" stroke="black" points="995.55,-149.8 992.55,-153.8 971.55,-153.8 968.55,-149.8 866.45,-149.8 866.45,-113.8 995.55,-113.8 995.55,-149.8"/>
<text text-anchor="middle" x="931" y="-127.6" font-family="Times,serif" font-size="14.00">FilesStorageModule</text>
</g>
<!-- AuthenticationModule&#45;&gt;FilesStorageModule -->
<g id="edge1" class="edge">
<title>AuthenticationModule&#45;&gt;FilesStorageModule</title>
<path fill="none" stroke="black" d="M1575,-84.81C1575,-107.29 1575,-142.8 1575,-142.8 1575,-142.8 1005.7,-142.8 1005.7,-142.8"/>
<polygon fill="black" stroke="black" points="1005.7,-139.3 995.7,-142.8 1005.7,-146.3 1005.7,-139.3"/>
</g>
<!-- AuthorizationModule -->
<g id="node2" class="node">
<title>AuthorizationModule</title>
<polygon fill="#8dd3c7" stroke="black" points="1485.81,-84.8 1482.81,-88.8 1461.81,-88.8 1458.81,-84.8 1348.19,-84.8 1348.19,-48.8 1485.81,-48.8 1485.81,-84.8"/>
<text text-anchor="middle" x="1417" y="-62.6" font-family="Times,serif" font-size="14.00">AuthorizationModule</text>
</g>
<!-- AuthorizationModule&#45;&gt;FilesStorageModule -->
<g id="edge2" class="edge">
<title>AuthorizationModule&#45;&gt;FilesStorageModule</title>
<path fill="none" stroke="black" d="M1417,-84.93C1417,-105.37 1417,-135.8 1417,-135.8 1417,-135.8 1005.79,-135.8 1005.79,-135.8"/>
<polygon fill="black" stroke="black" points="1005.79,-132.3 995.79,-135.8 1005.79,-139.3 1005.79,-132.3"/>
</g>
<!-- CoreModule -->
<g id="node3" class="node">
<title>CoreModule</title>
<polygon fill="#8dd3c7" stroke="black" points="1330.27,-84.8 1327.27,-88.8 1306.27,-88.8 1303.27,-84.8 1243.73,-84.8 1243.73,-48.8 1330.27,-48.8 1330.27,-84.8"/>
<text text-anchor="middle" x="1287" y="-62.6" font-family="Times,serif" font-size="14.00">CoreModule</text>
</g>
<!-- CoreModule&#45;&gt;FilesStorageModule -->
<g id="edge3" class="edge">
<title>CoreModule&#45;&gt;FilesStorageModule</title>
<path fill="none" stroke="black" d="M1287,-85.07C1287,-103.36 1287,-128.8 1287,-128.8 1287,-128.8 1005.88,-128.8 1005.88,-128.8"/>
<polygon fill="black" stroke="black" points="1005.88,-125.3 995.88,-128.8 1005.88,-132.3 1005.88,-125.3"/>
</g>
<!-- FilesStorageApiModule -->
<g id="node4" class="node">
<title>FilesStorageApiModule</title>
<polygon fill="#8dd3c7" stroke="black" points="1225.05,-84.8 1222.05,-88.8 1201.05,-88.8 1198.05,-84.8 1074.95,-84.8 1074.95,-48.8 1225.05,-48.8 1225.05,-84.8"/>
<text text-anchor="middle" x="1150" y="-62.6" font-family="Times,serif" font-size="14.00">FilesStorageApiModule</text>
</g>
<!-- FilesStorageApiModule&#45;&gt;FilesStorageModule -->
<g id="edge4" class="edge">
<title>FilesStorageApiModule&#45;&gt;FilesStorageModule</title>
<path fill="none" stroke="black" d="M1150,-84.81C1150,-100.85 1150,-121.8 1150,-121.8 1150,-121.8 1005.82,-121.8 1005.82,-121.8"/>
<polygon fill="black" stroke="black" points="1005.82,-118.3 995.82,-121.8 1005.82,-125.3 1005.82,-118.3"/>
</g>
<!-- LoggerModule -->
<g id="node5" class="node">
<title>LoggerModule</title>
<polygon fill="#8dd3c7" stroke="black" points="1056.98,-84.8 1053.98,-88.8 1032.98,-88.8 1029.98,-84.8 957.02,-84.8 957.02,-48.8 1056.98,-48.8 1056.98,-84.8"/>
<text text-anchor="middle" x="1007" y="-62.6" font-family="Times,serif" font-size="14.00">LoggerModule</text>
</g>
<!-- LoggerModule&#45;&gt;FilesStorageModule -->
<g id="edge5" class="edge">
<title>LoggerModule&#45;&gt;FilesStorageModule</title>
<path fill="none" stroke="black" d="M976.39,-84.91C976.39,-84.91 976.39,-103.79 976.39,-103.79"/>
<polygon fill="black" stroke="black" points="972.89,-103.79 976.39,-113.79 979.89,-103.79 972.89,-103.79"/>
</g>
<!-- RabbitMQWrapperModule -->
<g id="node6" class="node">
<title>RabbitMQWrapperModule</title>
<polygon fill="#8dd3c7" stroke="black" points="939.41,-84.8 936.41,-88.8 915.41,-88.8 912.41,-84.8 770.59,-84.8 770.59,-48.8 939.41,-48.8 939.41,-84.8"/>
<text text-anchor="middle" x="855" y="-62.6" font-family="Times,serif" font-size="14.00">RabbitMQWrapperModule</text>
</g>
<!-- RabbitMQWrapperModule&#45;&gt;FilesStorageModule -->
<g id="edge6" class="edge">
<title>RabbitMQWrapperModule&#45;&gt;FilesStorageModule</title>
<path fill="none" stroke="black" d="M902.72,-84.91C902.72,-84.91 902.72,-103.79 902.72,-103.79"/>
<polygon fill="black" stroke="black" points="899.22,-103.79 902.72,-113.79 906.22,-103.79 899.22,-103.79"/>
</g>
<!-- RabbitMQWrapperTestModule -->
<g id="node7" class="node">
<title>RabbitMQWrapperTestModule</title>
<polygon fill="#8dd3c7" stroke="black" points="753.01,-84.8 750.01,-88.8 729.01,-88.8 726.01,-84.8 560.99,-84.8 560.99,-48.8 753.01,-48.8 753.01,-84.8"/>
<text text-anchor="middle" x="657" y="-62.6" font-family="Times,serif" font-size="14.00">RabbitMQWrapperTestModule</text>
</g>
<!-- RabbitMQWrapperTestModule&#45;&gt;FilesStorageModule -->
<g id="edge7" class="edge">
<title>RabbitMQWrapperTestModule&#45;&gt;FilesStorageModule</title>
<path fill="none" stroke="black" d="M657,-84.81C657,-100.85 657,-121.8 657,-121.8 657,-121.8 856.41,-121.8 856.41,-121.8"/>
<polygon fill="black" stroke="black" points="856.41,-125.3 866.41,-121.8 856.41,-118.3 856.41,-125.3"/>
</g>
<!-- FilesStorageService  -->
<g id="node9" class="node">
<title>FilesStorageService </title>
<polygon fill="#fb8072" stroke="black" points="996.97,-214.8 865.03,-214.8 865.03,-178.8 996.97,-178.8 996.97,-214.8"/>
<text text-anchor="middle" x="931" y="-192.6" font-family="Times,serif" font-size="14.00">FilesStorageService </text>
</g>
<!-- FilesStorageModule&#45;&gt;FilesStorageService  -->
<g id="edge8" class="edge">
<title>FilesStorageModule&#45;&gt;FilesStorageService </title>
<path fill="none" stroke="black" stroke-dasharray="5,2" d="M931,-149.91C931,-149.91 931,-168.79 931,-168.79"/>
<polygon fill="black" stroke="black" points="927.5,-168.79 931,-178.79 934.5,-168.79 927.5,-168.79"/>
</g>
<!-- FileRecordRepo -->
<g id="node10" class="node">
<title>FileRecordRepo</title>
<ellipse fill="#fdb462" stroke="black" cx="463" cy="-66.8" rx="74.16" ry="18"/>
<text text-anchor="middle" x="463" y="-62.6" font-family="Times,serif" font-size="14.00">FileRecordRepo</text>
</g>
<!-- FileRecordRepo&#45;&gt;FilesStorageModule -->
<g id="edge9" class="edge">
<title>FileRecordRepo&#45;&gt;FilesStorageModule</title>
<path fill="none" stroke="black" d="M463,-85.07C463,-103.36 463,-128.8 463,-128.8 463,-128.8 856.42,-128.8 856.42,-128.8"/>
<polygon fill="black" stroke="black" points="856.42,-132.3 866.42,-128.8 856.42,-125.3 856.42,-132.3"/>
</g>
<!-- FilesStorageService -->
<g id="node11" class="node">
<title>FilesStorageService</title>
<ellipse fill="#fdb462" stroke="black" cx="282" cy="-66.8" rx="88.05" ry="18"/>
<text text-anchor="middle" x="282" y="-62.6" font-family="Times,serif" font-size="14.00">FilesStorageService</text>
</g>
<!-- FilesStorageService&#45;&gt;FilesStorageModule -->
<g id="edge10" class="edge">
<title>FilesStorageService&#45;&gt;FilesStorageModule</title>
<path fill="none" stroke="black" d="M282,-84.93C282,-105.37 282,-135.8 282,-135.8 282,-135.8 856.4,-135.8 856.4,-135.8"/>
<polygon fill="black" stroke="black" points="856.4,-139.3 866.4,-135.8 856.4,-132.3 856.4,-139.3"/>
</g>
<!-- S3ClientAdapter -->
<g id="node12" class="node">
<title>S3ClientAdapter</title>
<ellipse fill="#fdb462" stroke="black" cx="100" cy="-66.8" rx="75.89" ry="18"/>
<text text-anchor="middle" x="100" y="-62.6" font-family="Times,serif" font-size="14.00">S3ClientAdapter</text>
</g>
<!-- S3ClientAdapter&#45;&gt;FilesStorageModule -->
<g id="edge11" class="edge">
<title>S3ClientAdapter&#45;&gt;FilesStorageModule</title>
<path fill="none" stroke="black" d="M100,-84.81C100,-107.29 100,-142.8 100,-142.8 100,-142.8 856.14,-142.8 856.14,-142.8"/>
<polygon fill="black" stroke="black" points="856.14,-146.3 866.14,-142.8 856.14,-139.3 856.14,-146.3"/>
</g>
</g>
</svg>
