<?xml version="1.0" encoding="UTF-8" standalone="no"?>
<!DOCTYPE svg PUBLIC "-//W3C//DTD SVG 1.1//EN"
 "http://www.w3.org/Graphics/SVG/1.1/DTD/svg11.dtd">
<!-- Generated by graphviz version 2.47.0 (20210316.0004)
 -->
<!-- Title: dependencies Pages: 1 -->
<svg width="753pt" height="284pt"
 viewBox="0.00 0.00 753.00 284.00" xmlns="http://www.w3.org/2000/svg" xmlns:xlink="http://www.w3.org/1999/xlink">
<g id="graph0" class="graph" transform="scale(1 1) rotate(0) translate(4 280)">
<title>dependencies</title>
<polygon fill="white" stroke="transparent" points="-4,4 -4,-280 749,-280 749,4 -4,4"/>
<text text-anchor="start" x="351.51" y="-42.4" font-family="Times-12" font-weight="bold" font-size="14.00">Legend</text>
<polygon fill="#ffffb3" stroke="transparent" points="138.5,-10 138.5,-30 158.5,-30 158.5,-10 138.5,-10"/>
<text text-anchor="start" x="162.13" y="-15.4" font-family="Times-12" font-size="14.00"> &#160;Declarations</text>
<polygon fill="#8dd3c7" stroke="transparent" points="251.5,-10 251.5,-30 271.5,-30 271.5,-10 251.5,-10"/>
<text text-anchor="start" x="275.23" y="-15.4" font-family="Times-12" font-size="14.00"> &#160;Module</text>
<polygon fill="#80b1d3" stroke="transparent" points="337.5,-10 337.5,-30 357.5,-30 357.5,-10 337.5,-10"/>
<text text-anchor="start" x="361.28" y="-15.4" font-family="Times-12" font-size="14.00"> &#160;Bootstrap</text>
<polygon fill="#fdb462" stroke="transparent" points="434.5,-10 434.5,-30 454.5,-30 454.5,-10 434.5,-10"/>
<text text-anchor="start" x="458.17" y="-15.4" font-family="Times-12" font-size="14.00"> &#160;Providers</text>
<polygon fill="#fb8072" stroke="transparent" points="530.5,-10 530.5,-30 550.5,-30 550.5,-10 530.5,-10"/>
<text text-anchor="start" x="554.23" y="-15.4" font-family="Times-12" font-size="14.00"> &#160;Exports</text>
<g id="clust1" class="cluster">
<title>cluster_FilesStorageModule</title>
<polygon fill="none" stroke="black" stroke-dasharray="1,5" points="8,-70 8,-268 737,-268 737,-70 8,-70"/>
</g>
<g id="clust3" class="cluster">
<title>cluster_FilesStorageModule_imports</title>
<polygon fill="none" stroke="black" points="545,-78 545,-130 729,-130 729,-78 545,-78"/>
</g>
<g id="clust4" class="cluster">
<title>cluster_FilesStorageModule_exports</title>
<polygon fill="none" stroke="black" points="233,-208 233,-260 506,-260 506,-208 233,-208"/>
</g>
<g id="clust6" class="cluster">
<title>cluster_FilesStorageModule_providers</title>
<polygon fill="none" stroke="black" points="16,-78 16,-130 537,-130 537,-78 16,-78"/>
</g>
<!-- RabbitMQWrapperModule -->
<g id="node1" class="node">
<title>RabbitMQWrapperModule</title>
<polygon fill="#8dd3c7" stroke="black" points="721.4,-122 718.4,-126 697.4,-126 694.4,-122 552.6,-122 552.6,-86 721.4,-86 721.4,-122"/>
<text text-anchor="middle" x="637" y="-99.8" font-family="Times,serif" font-size="14.00">RabbitMQWrapperModule</text>
</g>
<!-- FilesStorageModule -->
<g id="node2" class="node">
<title>FilesStorageModule</title>
<polygon fill="#8dd3c7" stroke="black" points="428.54,-187 425.54,-191 404.54,-191 401.54,-187 299.46,-187 299.46,-151 428.54,-151 428.54,-187"/>
<text text-anchor="middle" x="364" y="-164.8" font-family="Times,serif" font-size="14.00">FilesStorageModule</text>
</g>
<!-- RabbitMQWrapperModule&#45;&gt;FilesStorageModule -->
<g id="edge1" class="edge">
<title>RabbitMQWrapperModule&#45;&gt;FilesStorageModule</title>
<path fill="none" stroke="black" d="M637,-122.11C637,-141.34 637,-169 637,-169 637,-169 438.7,-169 438.7,-169"/>
<polygon fill="black" stroke="black" points="438.7,-165.5 428.7,-169 438.7,-172.5 438.7,-165.5"/>
</g>
<!-- FilesStorageService  -->
<g id="node3" class="node">
<title>FilesStorageService </title>
<polygon fill="#fb8072" stroke="black" points="497.96,-252 366.04,-252 366.04,-216 497.96,-216 497.96,-252"/>
<text text-anchor="middle" x="432" y="-229.8" font-family="Times,serif" font-size="14.00">FilesStorageService </text>
</g>
<!-- FilesStorageModule&#45;&gt;FilesStorageService  -->
<g id="edge2" class="edge">
<title>FilesStorageModule&#45;&gt;FilesStorageService </title>
<path fill="none" stroke="black" stroke-dasharray="5,2" d="M397.52,-187.11C397.52,-187.11 397.52,-205.99 397.52,-205.99"/>
<polygon fill="black" stroke="black" points="394.02,-205.99 397.52,-215.99 401.02,-205.99 394.02,-205.99"/>
</g>
<!-- PreviewService  -->
<g id="node4" class="node">
<title>PreviewService </title>
<polygon fill="#fb8072" stroke="black" points="348.85,-252 241.15,-252 241.15,-216 348.85,-216 348.85,-252"/>
<text text-anchor="middle" x="295" y="-229.8" font-family="Times,serif" font-size="14.00">PreviewService </text>
</g>
<!-- FilesStorageModule&#45;&gt;PreviewService  -->
<g id="edge3" class="edge">
<title>FilesStorageModule&#45;&gt;PreviewService </title>
<path fill="none" stroke="black" stroke-dasharray="5,2" d="M323.95,-187.11C323.95,-187.11 323.95,-205.99 323.95,-205.99"/>
<polygon fill="black" stroke="black" points="320.45,-205.99 323.95,-215.99 327.45,-205.99 320.45,-205.99"/>
</g>
<!-- FileRecordRepo -->
<g id="node5" class="node">
<title>FileRecordRepo</title>
<ellipse fill="#fdb462" stroke="black" cx="455" cy="-104" rx="74.16" ry="18"/>
<text text-anchor="middle" x="455" y="-99.8" font-family="Times,serif" font-size="14.00">FileRecordRepo</text>
</g>
<!-- FileRecordRepo&#45;&gt;FilesStorageModule -->
<g id="edge4" class="edge">
<title>FileRecordRepo&#45;&gt;FilesStorageModule</title>
<path fill="none" stroke="black" d="M404.72,-117.47C404.72,-117.47 404.72,-140.86 404.72,-140.86"/>
<polygon fill="black" stroke="black" points="401.22,-140.86 404.72,-150.86 408.22,-140.86 401.22,-140.86"/>
</g>
<!-- FilesStorageService -->
<g id="node6" class="node">
<title>FilesStorageService</title>
<ellipse fill="#fdb462" stroke="black" cx="274" cy="-104" rx="88.03" ry="18"/>
<text text-anchor="middle" x="274" y="-99.8" font-family="Times,serif" font-size="14.00">FilesStorageService</text>
</g>
<!-- FilesStorageService&#45;&gt;FilesStorageModule -->
<g id="edge5" class="edge">
<title>FilesStorageService&#45;&gt;FilesStorageModule</title>
<path fill="none" stroke="black" d="M330.75,-118.1C330.75,-118.1 330.75,-140.72 330.75,-140.72"/>
<polygon fill="black" stroke="black" points="327.25,-140.72 330.75,-150.72 334.25,-140.72 327.25,-140.72"/>
</g>
<!-- PreviewService -->
<g id="node7" class="node">
<title>PreviewService</title>
<ellipse fill="#fdb462" stroke="black" cx="96" cy="-104" rx="71.76" ry="18"/>
<text text-anchor="middle" x="96" y="-99.8" font-family="Times,serif" font-size="14.00">PreviewService</text>
</g>
<!-- PreviewService&#45;&gt;FilesStorageModule -->
<g id="edge6" class="edge">
<title>PreviewService&#45;&gt;FilesStorageModule</title>
<path fill="none" stroke="black" d="M96,-122.11C96,-141.34 96,-169 96,-169 96,-169 289.12,-169 289.12,-169"/>
<polygon fill="black" stroke="black" points="289.12,-172.5 299.12,-169 289.12,-165.5 289.12,-172.5"/>
</g>
</g>
</svg>
