<?xml version="1.0" encoding="UTF-8" standalone="no"?>
<!DOCTYPE svg PUBLIC "-//W3C//DTD SVG 1.1//EN"
 "http://www.w3.org/Graphics/SVG/1.1/DTD/svg11.dtd">
<!-- Generated by graphviz version 2.47.0 (20210316.0004)
 -->
<!-- Title: dependencies Pages: 1 -->
<svg width="1840pt" height="284pt"
 viewBox="0.00 0.00 1840.00 284.00" xmlns="http://www.w3.org/2000/svg" xmlns:xlink="http://www.w3.org/1999/xlink">
<g id="graph0" class="graph" transform="scale(1 1) rotate(0) translate(4 280)">
<title>dependencies</title>
<polygon fill="white" stroke="transparent" points="-4,4 -4,-280 1836,-280 1836,4 -4,4"/>
<text text-anchor="start" x="895.01" y="-42.4" font-family="Times-12" font-weight="bold" font-size="14.00">Legend</text>
<polygon fill="#ffffb3" stroke="transparent" points="682,-10 682,-30 702,-30 702,-10 682,-10"/>
<text text-anchor="start" x="705.63" y="-15.4" font-family="Times-12" font-size="14.00"> &#160;Declarations</text>
<polygon fill="#8dd3c7" stroke="transparent" points="795,-10 795,-30 815,-30 815,-10 795,-10"/>
<text text-anchor="start" x="818.73" y="-15.4" font-family="Times-12" font-size="14.00"> &#160;Module</text>
<polygon fill="#80b1d3" stroke="transparent" points="881,-10 881,-30 901,-30 901,-10 881,-10"/>
<text text-anchor="start" x="904.78" y="-15.4" font-family="Times-12" font-size="14.00"> &#160;Bootstrap</text>
<polygon fill="#fdb462" stroke="transparent" points="978,-10 978,-30 998,-30 998,-10 978,-10"/>
<text text-anchor="start" x="1001.67" y="-15.4" font-family="Times-12" font-size="14.00"> &#160;Providers</text>
<polygon fill="#fb8072" stroke="transparent" points="1074,-10 1074,-30 1094,-30 1094,-10 1074,-10"/>
<text text-anchor="start" x="1097.73" y="-15.4" font-family="Times-12" font-size="14.00"> &#160;Exports</text>
<g id="clust1" class="cluster">
<title>cluster_FilesStorageModule</title>
<polygon fill="none" stroke="black" stroke-dasharray="1,5" points="8,-70 8,-268 1824,-268 1824,-70 8,-70"/>
</g>
<g id="clust6" class="cluster">
<title>cluster_FilesStorageModule_providers</title>
<polygon fill="none" stroke="black" points="1125,-78 1125,-130 1816,-130 1816,-78 1125,-78"/>
</g>
<g id="clust3" class="cluster">
<title>cluster_FilesStorageModule_imports</title>
<polygon fill="none" stroke="black" points="16,-78 16,-130 1117,-130 1117,-78 16,-78"/>
</g>
<g id="clust4" class="cluster">
<title>cluster_FilesStorageModule_exports</title>
<polygon fill="none" stroke="black" points="749,-208 749,-260 1022,-260 1022,-208 749,-208"/>
</g>
<!-- AuthenticationModule -->
<g id="node1" class="node">
<title>AuthenticationModule</title>
<polygon fill="#8dd3c7" stroke="black" points="1109.25,-122 1106.25,-126 1085.25,-126 1082.25,-122 966.75,-122 966.75,-86 1109.25,-86 1109.25,-122"/>
<text text-anchor="middle" x="1038" y="-99.8" font-family="Times,serif" font-size="14.00">AuthenticationModule</text>
</g>
<!-- FilesStorageModule -->
<g id="node8" class="node">
<title>FilesStorageModule</title>
<polygon fill="#8dd3c7" stroke="black" points="944.54,-187 941.54,-191 920.54,-191 917.54,-187 815.46,-187 815.46,-151 944.54,-151 944.54,-187"/>
<text text-anchor="middle" x="880" y="-164.8" font-family="Times,serif" font-size="14.00">FilesStorageModule</text>
</g>
<!-- AuthenticationModule&#45;&gt;FilesStorageModule -->
<g id="edge1" class="edge">
<title>AuthenticationModule&#45;&gt;FilesStorageModule</title>
<path fill="none" stroke="black" d="M990.18,-122.24C990.18,-137.57 990.18,-157 990.18,-157 990.18,-157 954.73,-157 954.73,-157"/>
<polygon fill="black" stroke="black" points="954.73,-153.5 944.73,-157 954.73,-160.5 954.73,-153.5"/>
</g>
<!-- AuthorizationModule -->
<g id="node2" class="node">
<title>AuthorizationModule</title>
<polygon fill="#8dd3c7" stroke="black" points="948.81,-122 945.81,-126 924.81,-126 921.81,-122 811.19,-122 811.19,-86 948.81,-86 948.81,-122"/>
<text text-anchor="middle" x="880" y="-99.8" font-family="Times,serif" font-size="14.00">AuthorizationModule</text>
</g>
<!-- AuthorizationModule&#45;&gt;FilesStorageModule -->
<g id="edge2" class="edge">
<title>AuthorizationModule&#45;&gt;FilesStorageModule</title>
<path fill="none" stroke="black" d="M880,-122.11C880,-122.11 880,-140.99 880,-140.99"/>
<polygon fill="black" stroke="black" points="876.5,-140.99 880,-150.99 883.5,-140.99 876.5,-140.99"/>
</g>
<!-- CoreModule -->
<g id="node3" class="node">
<title>CoreModule</title>
<polygon fill="#8dd3c7" stroke="black" points="793.26,-122 790.26,-126 769.26,-126 766.26,-122 706.74,-122 706.74,-86 793.26,-86 793.26,-122"/>
<text text-anchor="middle" x="750" y="-99.8" font-family="Times,serif" font-size="14.00">CoreModule</text>
</g>
<!-- CoreModule&#45;&gt;FilesStorageModule -->
<g id="edge3" class="edge">
<title>CoreModule&#45;&gt;FilesStorageModule</title>
<path fill="none" stroke="black" d="M775.35,-122.24C775.35,-137.57 775.35,-157 775.35,-157 775.35,-157 805.21,-157 805.21,-157"/>
<polygon fill="black" stroke="black" points="805.21,-160.5 815.21,-157 805.21,-153.5 805.21,-160.5"/>
</g>
<!-- FilesStorageApiModule -->
<g id="node4" class="node">
<title>FilesStorageApiModule</title>
<polygon fill="#8dd3c7" stroke="black" points="688.03,-122 685.03,-126 664.03,-126 661.03,-122 537.97,-122 537.97,-86 688.03,-86 688.03,-122"/>
<text text-anchor="middle" x="613" y="-99.8" font-family="Times,serif" font-size="14.00">FilesStorageApiModule</text>
</g>
<!-- FilesStorageApiModule&#45;&gt;FilesStorageModule -->
<g id="edge4" class="edge">
<title>FilesStorageApiModule&#45;&gt;FilesStorageModule</title>
<path fill="none" stroke="black" d="M613,-122.02C613,-139.37 613,-163 613,-163 613,-163 805.37,-163 805.37,-163"/>
<polygon fill="black" stroke="black" points="805.37,-166.5 815.37,-163 805.37,-159.5 805.37,-166.5"/>
</g>
<!-- LoggerModule -->
<g id="node5" class="node">
<title>LoggerModule</title>
<polygon fill="#8dd3c7" stroke="black" points="519.98,-122 516.98,-126 495.98,-126 492.98,-122 420.02,-122 420.02,-86 519.98,-86 519.98,-122"/>
<text text-anchor="middle" x="470" y="-99.8" font-family="Times,serif" font-size="14.00">LoggerModule</text>
</g>
<!-- LoggerModule&#45;&gt;FilesStorageModule -->
<g id="edge5" class="edge">
<title>LoggerModule&#45;&gt;FilesStorageModule</title>
<path fill="none" stroke="black" d="M470,-122.11C470,-141.34 470,-169 470,-169 470,-169 805.03,-169 805.03,-169"/>
<polygon fill="black" stroke="black" points="805.03,-172.5 815.03,-169 805.03,-165.5 805.03,-172.5"/>
</g>
<!-- RabbitMQWrapperModule -->
<g id="node6" class="node">
<title>RabbitMQWrapperModule</title>
<polygon fill="#8dd3c7" stroke="black" points="402.4,-122 399.4,-126 378.4,-126 375.4,-122 233.6,-122 233.6,-86 402.4,-86 402.4,-122"/>
<text text-anchor="middle" x="318" y="-99.8" font-family="Times,serif" font-size="14.00">RabbitMQWrapperModule</text>
</g>
<!-- RabbitMQWrapperModule&#45;&gt;FilesStorageModule -->
<g id="edge6" class="edge">
<title>RabbitMQWrapperModule&#45;&gt;FilesStorageModule</title>
<path fill="none" stroke="black" d="M318,-122.28C318,-143.32 318,-175 318,-175 318,-175 805.26,-175 805.26,-175"/>
<polygon fill="black" stroke="black" points="805.26,-178.5 815.26,-175 805.26,-171.5 805.26,-178.5"/>
</g>
<!-- RabbitMQWrapperTestModule -->
<g id="node7" class="node">
<title>RabbitMQWrapperTestModule</title>
<polygon fill="#8dd3c7" stroke="black" points="216,-122 213,-126 192,-126 189,-122 24,-122 24,-86 216,-86 216,-122"/>
<text text-anchor="middle" x="120" y="-99.8" font-family="Times,serif" font-size="14.00">RabbitMQWrapperTestModule</text>
</g>
<!-- RabbitMQWrapperTestModule&#45;&gt;FilesStorageModule -->
<g id="edge7" class="edge">
<title>RabbitMQWrapperTestModule&#45;&gt;FilesStorageModule</title>
<path fill="none" stroke="black" d="M120,-122.25C120,-145.02 120,-181 120,-181 120,-181 805.2,-181 805.2,-181"/>
<polygon fill="black" stroke="black" points="805.2,-184.5 815.2,-181 805.2,-177.5 805.2,-184.5"/>
</g>
<!-- FilesStorageService  -->
<g id="node9" class="node">
<title>FilesStorageService </title>
<polygon fill="#fb8072" stroke="black" points="1013.96,-252 882.04,-252 882.04,-216 1013.96,-216 1013.96,-252"/>
<text text-anchor="middle" x="948" y="-229.8" font-family="Times,serif" font-size="14.00">FilesStorageService </text>
</g>
<!-- FilesStorageModule&#45;&gt;FilesStorageService  -->
<g id="edge8" class="edge">
<title>FilesStorageModule&#45;&gt;FilesStorageService </title>
<path fill="none" stroke="black" stroke-dasharray="5,2" d="M913.52,-187.11C913.52,-187.11 913.52,-205.99 913.52,-205.99"/>
<polygon fill="black" stroke="black" points="910.02,-205.99 913.52,-215.99 917.02,-205.99 910.02,-205.99"/>
</g>
<!-- PreviewService  -->
<g id="node10" class="node">
<title>PreviewService </title>
<polygon fill="#fb8072" stroke="black" points="864.85,-252 757.15,-252 757.15,-216 864.85,-216 864.85,-252"/>
<text text-anchor="middle" x="811" y="-229.8" font-family="Times,serif" font-size="14.00">PreviewService </text>
</g>
<!-- FilesStorageModule&#45;&gt;PreviewService  -->
<g id="edge9" class="edge">
<title>FilesStorageModule&#45;&gt;PreviewService </title>
<path fill="none" stroke="black" stroke-dasharray="5,2" d="M839.95,-187.11C839.95,-187.11 839.95,-205.99 839.95,-205.99"/>
<polygon fill="black" stroke="black" points="836.45,-205.99 839.95,-215.99 843.45,-205.99 836.45,-205.99"/>
</g>
<!-- FileRecordRepo -->
<g id="node11" class="node">
<title>FileRecordRepo</title>
<ellipse fill="#fdb462" stroke="black" cx="1734" cy="-104" rx="74.16" ry="18"/>
<text text-anchor="middle" x="1734" y="-99.8" font-family="Times,serif" font-size="14.00">FileRecordRepo</text>
</g>
<!-- FileRecordRepo&#45;&gt;FilesStorageModule -->
<g id="edge10" class="edge">
<title>FileRecordRepo&#45;&gt;FilesStorageModule</title>
<path fill="none" stroke="black" d="M1734,-122.25C1734,-145.02 1734,-181 1734,-181 1734,-181 954.54,-181 954.54,-181"/>
<polygon fill="black" stroke="black" points="954.54,-177.5 944.54,-181 954.54,-184.5 954.54,-177.5"/>
</g>
<!-- FilesStorageService -->
<g id="node12" class="node">
<title>FilesStorageService</title>
<ellipse fill="#fdb462" stroke="black" cx="1553" cy="-104" rx="88.03" ry="18"/>
<text text-anchor="middle" x="1553" y="-99.8" font-family="Times,serif" font-size="14.00">FilesStorageService</text>
</g>
<!-- FilesStorageService&#45;&gt;FilesStorageModule -->
<g id="edge11" class="edge">
<title>FilesStorageService&#45;&gt;FilesStorageModule</title>
<path fill="none" stroke="black" d="M1553,-122.28C1553,-143.32 1553,-175 1553,-175 1553,-175 954.84,-175 954.84,-175"/>
<polygon fill="black" stroke="black" points="954.84,-171.5 944.84,-175 954.84,-178.5 954.84,-171.5"/>
</g>
<!-- PreviewService -->
<g id="node13" class="node">
<title>PreviewService</title>
<ellipse fill="#fdb462" stroke="black" cx="1375" cy="-104" rx="71.76" ry="18"/>
<text text-anchor="middle" x="1375" y="-99.8" font-family="Times,serif" font-size="14.00">PreviewService</text>
</g>
<!-- PreviewService&#45;&gt;FilesStorageModule -->
<g id="edge12" class="edge">
<title>PreviewService&#45;&gt;FilesStorageModule</title>
<path fill="none" stroke="black" d="M1375,-122.11C1375,-141.34 1375,-169 1375,-169 1375,-169 954.71,-169 954.71,-169"/>
<polygon fill="black" stroke="black" points="954.71,-165.5 944.71,-169 954.71,-172.5 954.71,-165.5"/>
</g>
<!-- S3ClientAdapter -->
<g id="node14" class="node">
<title>S3ClientAdapter</title>
<ellipse fill="#fdb462" stroke="black" cx="1209" cy="-104" rx="75.88" ry="18"/>
<text text-anchor="middle" x="1209" y="-99.8" font-family="Times,serif" font-size="14.00">S3ClientAdapter</text>
</g>
<!-- S3ClientAdapter&#45;&gt;FilesStorageModule -->
<g id="edge13" class="edge">
<title>S3ClientAdapter&#45;&gt;FilesStorageModule</title>
<path fill="none" stroke="black" d="M1209,-122.02C1209,-139.37 1209,-163 1209,-163 1209,-163 954.61,-163 954.61,-163"/>
<polygon fill="black" stroke="black" points="954.61,-159.5 944.61,-163 954.61,-166.5 954.61,-159.5"/>
</g>
</g>
</svg>
