<?xml version="1.0" encoding="UTF-8" standalone="no"?>
<!DOCTYPE svg PUBLIC "-//W3C//DTD SVG 1.1//EN"
 "http://www.w3.org/Graphics/SVG/1.1/DTD/svg11.dtd">
<!-- Generated by graphviz version 2.47.0 (20210316.0004)
 -->
<!-- Title: dependencies Pages: 1 -->
<svg width="1840pt" height="284pt"
 viewBox="0.00 0.00 1840.00 284.00" xmlns="http://www.w3.org/2000/svg" xmlns:xlink="http://www.w3.org/1999/xlink">
<g id="graph0" class="graph" transform="scale(1 1) rotate(0) translate(4 280)">
<title>dependencies</title>
<polygon fill="white" stroke="transparent" points="-4,4 -4,-280 1836,-280 1836,4 -4,4"/>
<text text-anchor="start" x="895.01" y="-42.4" font-family="Times-12" font-weight="bold" font-size="14.00">Legend</text>
<polygon fill="#ffffb3" stroke="transparent" points="682,-10 682,-30 702,-30 702,-10 682,-10"/>
<text text-anchor="start" x="705.63" y="-15.4" font-family="Times-12" font-size="14.00"> &#160;Declarations</text>
<polygon fill="#8dd3c7" stroke="transparent" points="795,-10 795,-30 815,-30 815,-10 795,-10"/>
<text text-anchor="start" x="818.73" y="-15.4" font-family="Times-12" font-size="14.00"> &#160;Module</text>
<polygon fill="#80b1d3" stroke="transparent" points="881,-10 881,-30 901,-30 901,-10 881,-10"/>
<text text-anchor="start" x="904.78" y="-15.4" font-family="Times-12" font-size="14.00"> &#160;Bootstrap</text>
<polygon fill="#fdb462" stroke="transparent" points="978,-10 978,-30 998,-30 998,-10 978,-10"/>
<text text-anchor="start" x="1001.67" y="-15.4" font-family="Times-12" font-size="14.00"> &#160;Providers</text>
<polygon fill="#fb8072" stroke="transparent" points="1074,-10 1074,-30 1094,-30 1094,-10 1074,-10"/>
<text text-anchor="start" x="1097.73" y="-15.4" font-family="Times-12" font-size="14.00"> &#160;Exports</text>
<g id="clust1" class="cluster">
<title>cluster_FilesStorageModule</title>
<polygon fill="none" stroke="black" stroke-dasharray="1,5" points="8,-70 8,-268 1824,-268 1824,-70 8,-70"/>
</g>
<g id="clust3" class="cluster">
<title>cluster_FilesStorageModule_imports</title>
<polygon fill="none" stroke="black" points="715,-78 715,-130 1816,-130 1816,-78 715,-78"/>
</g>
<g id="clust4" class="cluster">
<title>cluster_FilesStorageModule_exports</title>
<polygon fill="none" stroke="black" points="886,-208 886,-260 1159,-260 1159,-208 886,-208"/>
</g>
<g id="clust6" class="cluster">
<title>cluster_FilesStorageModule_providers</title>
<polygon fill="none" stroke="black" points="16,-78 16,-130 707,-130 707,-78 16,-78"/>
</g>
<!-- AuthenticationModule -->
<g id="node1" class="node">
<title>AuthenticationModule</title>
<polygon fill="#8dd3c7" stroke="black" points="1808.25,-122 1805.25,-126 1784.25,-126 1781.25,-122 1665.75,-122 1665.75,-86 1808.25,-86 1808.25,-122"/>
<text text-anchor="middle" x="1737" y="-99.8" font-family="Times,serif" font-size="14.00">AuthenticationModule</text>
</g>
<!-- FilesStorageModule -->
<g id="node8" class="node">
<title>FilesStorageModule</title>
<polygon fill="#8dd3c7" stroke="black" points="1081.54,-187 1078.54,-191 1057.54,-191 1054.54,-187 952.46,-187 952.46,-151 1081.54,-151 1081.54,-187"/>
<text text-anchor="middle" x="1017" y="-164.8" font-family="Times,serif" font-size="14.00">FilesStorageModule</text>
</g>
<!-- AuthenticationModule&#45;&gt;FilesStorageModule -->
<g id="edge1" class="edge">
<title>AuthenticationModule&#45;&gt;FilesStorageModule</title>
<path fill="none" stroke="black" d="M1737,-122.25C1737,-145.02 1737,-181 1737,-181 1737,-181 1091.85,-181 1091.85,-181"/>
<polygon fill="black" stroke="black" points="1091.85,-177.5 1081.85,-181 1091.85,-184.5 1091.85,-177.5"/>
</g>
<!-- AuthorizationModule -->
<g id="node2" class="node">
<title>AuthorizationModule</title>
<polygon fill="#8dd3c7" stroke="black" points="1647.81,-122 1644.81,-126 1623.81,-126 1620.81,-122 1510.19,-122 1510.19,-86 1647.81,-86 1647.81,-122"/>
<text text-anchor="middle" x="1579" y="-99.8" font-family="Times,serif" font-size="14.00">AuthorizationModule</text>
</g>
<!-- AuthorizationModule&#45;&gt;FilesStorageModule -->
<g id="edge2" class="edge">
<title>AuthorizationModule&#45;&gt;FilesStorageModule</title>
<path fill="none" stroke="black" d="M1579,-122.28C1579,-143.32 1579,-175 1579,-175 1579,-175 1091.74,-175 1091.74,-175"/>
<polygon fill="black" stroke="black" points="1091.74,-171.5 1081.74,-175 1091.74,-178.5 1091.74,-171.5"/>
</g>
<!-- CoreModule -->
<g id="node3" class="node">
<title>CoreModule</title>
<polygon fill="#8dd3c7" stroke="black" points="1492.26,-122 1489.26,-126 1468.26,-126 1465.26,-122 1405.74,-122 1405.74,-86 1492.26,-86 1492.26,-122"/>
<text text-anchor="middle" x="1449" y="-99.8" font-family="Times,serif" font-size="14.00">CoreModule</text>
</g>
<!-- CoreModule&#45;&gt;FilesStorageModule -->
<g id="edge3" class="edge">
<title>CoreModule&#45;&gt;FilesStorageModule</title>
<path fill="none" stroke="black" d="M1449,-122.11C1449,-141.34 1449,-169 1449,-169 1449,-169 1091.67,-169 1091.67,-169"/>
<polygon fill="black" stroke="black" points="1091.67,-165.5 1081.67,-169 1091.67,-172.5 1091.67,-165.5"/>
</g>
<!-- FilesStorageApiModule -->
<g id="node4" class="node">
<title>FilesStorageApiModule</title>
<polygon fill="#8dd3c7" stroke="black" points="1387.03,-122 1384.03,-126 1363.03,-126 1360.03,-122 1236.97,-122 1236.97,-86 1387.03,-86 1387.03,-122"/>
<text text-anchor="middle" x="1312" y="-99.8" font-family="Times,serif" font-size="14.00">FilesStorageApiModule</text>
</g>
<!-- FilesStorageApiModule&#45;&gt;FilesStorageModule -->
<g id="edge4" class="edge">
<title>FilesStorageApiModule&#45;&gt;FilesStorageModule</title>
<path fill="none" stroke="black" d="M1312,-122.02C1312,-139.37 1312,-163 1312,-163 1312,-163 1091.74,-163 1091.74,-163"/>
<polygon fill="black" stroke="black" points="1091.74,-159.5 1081.74,-163 1091.74,-166.5 1091.74,-159.5"/>
</g>
<!-- LoggerModule -->
<g id="node5" class="node">
<title>LoggerModule</title>
<polygon fill="#8dd3c7" stroke="black" points="1218.98,-122 1215.98,-126 1194.98,-126 1191.98,-122 1119.02,-122 1119.02,-86 1218.98,-86 1218.98,-122"/>
<text text-anchor="middle" x="1169" y="-99.8" font-family="Times,serif" font-size="14.00">LoggerModule</text>
</g>
<!-- LoggerModule&#45;&gt;FilesStorageModule -->
<g id="edge5" class="edge">
<title>LoggerModule&#45;&gt;FilesStorageModule</title>
<path fill="none" stroke="black" d="M1134.87,-122.24C1134.87,-137.57 1134.87,-157 1134.87,-157 1134.87,-157 1091.8,-157 1091.8,-157"/>
<polygon fill="black" stroke="black" points="1091.8,-153.5 1081.8,-157 1091.8,-160.5 1091.8,-153.5"/>
</g>
<!-- RabbitMQWrapperModule -->
<g id="node6" class="node">
<title>RabbitMQWrapperModule</title>
<polygon fill="#8dd3c7" stroke="black" points="1101.4,-122 1098.4,-126 1077.4,-126 1074.4,-122 932.6,-122 932.6,-86 1101.4,-86 1101.4,-122"/>
<text text-anchor="middle" x="1017" y="-99.8" font-family="Times,serif" font-size="14.00">RabbitMQWrapperModule</text>
</g>
<!-- RabbitMQWrapperModule&#45;&gt;FilesStorageModule -->
<g id="edge6" class="edge">
<title>RabbitMQWrapperModule&#45;&gt;FilesStorageModule</title>
<path fill="none" stroke="black" d="M1017,-122.11C1017,-122.11 1017,-140.99 1017,-140.99"/>
<polygon fill="black" stroke="black" points="1013.5,-140.99 1017,-150.99 1020.5,-140.99 1013.5,-140.99"/>
</g>
<!-- RabbitMQWrapperTestModule -->
<g id="node7" class="node">
<title>RabbitMQWrapperTestModule</title>
<polygon fill="#8dd3c7" stroke="black" points="915,-122 912,-126 891,-126 888,-122 723,-122 723,-86 915,-86 915,-122"/>
<text text-anchor="middle" x="819" y="-99.8" font-family="Times,serif" font-size="14.00">RabbitMQWrapperTestModule</text>
</g>
<!-- RabbitMQWrapperTestModule&#45;&gt;FilesStorageModule -->
<g id="edge7" class="edge">
<title>RabbitMQWrapperTestModule&#45;&gt;FilesStorageModule</title>
<path fill="none" stroke="black" d="M904.79,-122.24C904.79,-137.57 904.79,-157 904.79,-157 904.79,-157 942.38,-157 942.38,-157"/>
<polygon fill="black" stroke="black" points="942.38,-160.5 952.38,-157 942.38,-153.5 942.38,-160.5"/>
</g>
<!-- FilesStorageService  -->
<g id="node9" class="node">
<title>FilesStorageService </title>
<polygon fill="#fb8072" stroke="black" points="1150.96,-252 1019.04,-252 1019.04,-216 1150.96,-216 1150.96,-252"/>
<text text-anchor="middle" x="1085" y="-229.8" font-family="Times,serif" font-size="14.00">FilesStorageService </text>
</g>
<!-- FilesStorageModule&#45;&gt;FilesStorageService  -->
<g id="edge8" class="edge">
<title>FilesStorageModule&#45;&gt;FilesStorageService </title>
<path fill="none" stroke="black" stroke-dasharray="5,2" d="M1050.52,-187.11C1050.52,-187.11 1050.52,-205.99 1050.52,-205.99"/>
<polygon fill="black" stroke="black" points="1047.02,-205.99 1050.52,-215.99 1054.02,-205.99 1047.02,-205.99"/>
</g>
<!-- PreviewService  -->
<g id="node10" class="node">
<title>PreviewService </title>
<polygon fill="#fb8072" stroke="black" points="1001.85,-252 894.15,-252 894.15,-216 1001.85,-216 1001.85,-252"/>
<text text-anchor="middle" x="948" y="-229.8" font-family="Times,serif" font-size="14.00">PreviewService </text>
</g>
<!-- FilesStorageModule&#45;&gt;PreviewService  -->
<g id="edge9" class="edge">
<title>FilesStorageModule&#45;&gt;PreviewService </title>
<path fill="none" stroke="black" stroke-dasharray="5,2" d="M976.95,-187.11C976.95,-187.11 976.95,-205.99 976.95,-205.99"/>
<polygon fill="black" stroke="black" points="973.45,-205.99 976.95,-215.99 980.45,-205.99 973.45,-205.99"/>
</g>
<!-- FileRecordRepo -->
<g id="node11" class="node">
<title>FileRecordRepo</title>
<ellipse fill="#fdb462" stroke="black" cx="625" cy="-104" rx="74.16" ry="18"/>
<text text-anchor="middle" x="625" y="-99.8" font-family="Times,serif" font-size="14.00">FileRecordRepo</text>
</g>
<!-- FileRecordRepo&#45;&gt;FilesStorageModule -->
<g id="edge10" class="edge">
<title>FileRecordRepo&#45;&gt;FilesStorageModule</title>
<path fill="none" stroke="black" d="M625,-122.02C625,-139.37 625,-163 625,-163 625,-163 942.27,-163 942.27,-163"/>
<polygon fill="black" stroke="black" points="942.27,-166.5 952.27,-163 942.27,-159.5 942.27,-166.5"/>
</g>
<!-- FilesStorageService -->
<g id="node12" class="node">
<title>FilesStorageService</title>
<ellipse fill="#fdb462" stroke="black" cx="444" cy="-104" rx="88.03" ry="18"/>
<text text-anchor="middle" x="444" y="-99.8" font-family="Times,serif" font-size="14.00">FilesStorageService</text>
</g>
<!-- FilesStorageService&#45;&gt;FilesStorageModule -->
<g id="edge11" class="edge">
<title>FilesStorageService&#45;&gt;FilesStorageModule</title>
<path fill="none" stroke="black" d="M444,-122.11C444,-141.34 444,-169 444,-169 444,-169 942.38,-169 942.38,-169"/>
<polygon fill="black" stroke="black" points="942.38,-172.5 952.38,-169 942.38,-165.5 942.38,-172.5"/>
</g>
<!-- PreviewService -->
<g id="node13" class="node">
<title>PreviewService</title>
<ellipse fill="#fdb462" stroke="black" cx="266" cy="-104" rx="71.76" ry="18"/>
<text text-anchor="middle" x="266" y="-99.8" font-family="Times,serif" font-size="14.00">PreviewService</text>
</g>
<!-- PreviewService&#45;&gt;FilesStorageModule -->
<g id="edge12" class="edge">
<title>PreviewService&#45;&gt;FilesStorageModule</title>
<path fill="none" stroke="black" d="M266,-122.28C266,-143.32 266,-175 266,-175 266,-175 942.32,-175 942.32,-175"/>
<polygon fill="black" stroke="black" points="942.32,-178.5 952.32,-175 942.32,-171.5 942.32,-178.5"/>
</g>
<!-- S3ClientAdapter -->
<g id="node14" class="node">
<title>S3ClientAdapter</title>
<ellipse fill="#fdb462" stroke="black" cx="100" cy="-104" rx="75.88" ry="18"/>
<text text-anchor="middle" x="100" y="-99.8" font-family="Times,serif" font-size="14.00">S3ClientAdapter</text>
</g>
<!-- S3ClientAdapter&#45;&gt;FilesStorageModule -->
<g id="edge13" class="edge">
<title>S3ClientAdapter&#45;&gt;FilesStorageModule</title>
<path fill="none" stroke="black" d="M100,-122.25C100,-145.02 100,-181 100,-181 100,-181 942.15,-181 942.15,-181"/>
<polygon fill="black" stroke="black" points="942.15,-184.5 952.15,-181 942.15,-177.5 942.15,-184.5"/>
</g>
</g>
</svg>
