<?xml version="1.0" encoding="UTF-8" standalone="no"?>
<!DOCTYPE svg PUBLIC "-//W3C//DTD SVG 1.1//EN"
 "http://www.w3.org/Graphics/SVG/1.1/DTD/svg11.dtd">
<!-- Generated by graphviz version 2.47.0 (20210316.0004)
 -->
<!-- Title: dependencies Pages: 1 -->
<svg width="1678pt" height="284pt"
 viewBox="0.00 0.00 1678.00 284.00" xmlns="http://www.w3.org/2000/svg" xmlns:xlink="http://www.w3.org/1999/xlink">
<g id="graph0" class="graph" transform="scale(1 1) rotate(0) translate(4 280)">
<title>dependencies</title>
<polygon fill="white" stroke="transparent" points="-4,4 -4,-280 1674,-280 1674,4 -4,4"/>
<text text-anchor="start" x="814.01" y="-42.4" font-family="Times-12" font-weight="bold" font-size="14.00">Legend</text>
<polygon fill="#ffffb3" stroke="transparent" points="601,-10 601,-30 621,-30 621,-10 601,-10"/>
<text text-anchor="start" x="624.63" y="-15.4" font-family="Times-12" font-size="14.00"> &#160;Declarations</text>
<polygon fill="#8dd3c7" stroke="transparent" points="714,-10 714,-30 734,-30 734,-10 714,-10"/>
<text text-anchor="start" x="737.73" y="-15.4" font-family="Times-12" font-size="14.00"> &#160;Module</text>
<polygon fill="#80b1d3" stroke="transparent" points="800,-10 800,-30 820,-30 820,-10 800,-10"/>
<text text-anchor="start" x="823.78" y="-15.4" font-family="Times-12" font-size="14.00"> &#160;Bootstrap</text>
<polygon fill="#fdb462" stroke="transparent" points="897,-10 897,-30 917,-30 917,-10 897,-10"/>
<text text-anchor="start" x="920.67" y="-15.4" font-family="Times-12" font-size="14.00"> &#160;Providers</text>
<polygon fill="#fb8072" stroke="transparent" points="993,-10 993,-30 1013,-30 1013,-10 993,-10"/>
<text text-anchor="start" x="1016.73" y="-15.4" font-family="Times-12" font-size="14.00"> &#160;Exports</text>
<g id="clust1" class="cluster">
<title>cluster_FilesStorageModule</title>
<polygon fill="none" stroke="black" stroke-dasharray="1,5" points="8,-70 8,-268 1662,-268 1662,-70 8,-70"/>
</g>
<g id="clust3" class="cluster">
<title>cluster_FilesStorageModule_imports</title>
<polygon fill="none" stroke="black" points="553,-78 553,-130 1654,-130 1654,-78 553,-78"/>
</g>
<g id="clust6" class="cluster">
<title>cluster_FilesStorageModule_providers</title>
<polygon fill="none" stroke="black" points="16,-78 16,-130 545,-130 545,-78 16,-78"/>
</g>
<g id="clust4" class="cluster">
<title>cluster_FilesStorageModule_exports</title>
<polygon fill="none" stroke="black" points="857,-208 857,-260 1005,-260 1005,-208 857,-208"/>
</g>
<!-- AuthenticationModule -->
<g id="node1" class="node">
<title>AuthenticationModule</title>
<polygon fill="#8dd3c7" stroke="black" points="1646.25,-122 1643.25,-126 1622.25,-126 1619.25,-122 1503.75,-122 1503.75,-86 1646.25,-86 1646.25,-122"/>
<text text-anchor="middle" x="1575" y="-99.8" font-family="Times,serif" font-size="14.00">AuthenticationModule</text>
</g>
<!-- FilesStorageModule -->
<g id="node8" class="node">
<title>FilesStorageModule</title>
<polygon fill="#8dd3c7" stroke="black" points="995.54,-187 992.54,-191 971.54,-191 968.54,-187 866.46,-187 866.46,-151 995.54,-151 995.54,-187"/>
<text text-anchor="middle" x="931" y="-164.8" font-family="Times,serif" font-size="14.00">FilesStorageModule</text>
</g>
<!-- AuthenticationModule&#45;&gt;FilesStorageModule -->
<g id="edge1" class="edge">
<title>AuthenticationModule&#45;&gt;FilesStorageModule</title>
<path fill="none" stroke="black" d="M1575,-122.01C1575,-144.49 1575,-180 1575,-180 1575,-180 1005.7,-180 1005.7,-180"/>
<polygon fill="black" stroke="black" points="1005.7,-176.5 995.7,-180 1005.7,-183.5 1005.7,-176.5"/>
</g>
<!-- AuthorizationModule -->
<g id="node2" class="node">
<title>AuthorizationModule</title>
<polygon fill="#8dd3c7" stroke="black" points="1485.81,-122 1482.81,-126 1461.81,-126 1458.81,-122 1348.19,-122 1348.19,-86 1485.81,-86 1485.81,-122"/>
<text text-anchor="middle" x="1417" y="-99.8" font-family="Times,serif" font-size="14.00">AuthorizationModule</text>
</g>
<!-- AuthorizationModule&#45;&gt;FilesStorageModule -->
<g id="edge2" class="edge">
<title>AuthorizationModule&#45;&gt;FilesStorageModule</title>
<path fill="none" stroke="black" d="M1417,-122.13C1417,-142.57 1417,-173 1417,-173 1417,-173 1005.54,-173 1005.54,-173"/>
<polygon fill="black" stroke="black" points="1005.54,-169.5 995.54,-173 1005.54,-176.5 1005.54,-169.5"/>
</g>
<!-- CoreModule -->
<g id="node3" class="node">
<title>CoreModule</title>
<polygon fill="#8dd3c7" stroke="black" points="1330.26,-122 1327.26,-126 1306.26,-126 1303.26,-122 1243.74,-122 1243.74,-86 1330.26,-86 1330.26,-122"/>
<text text-anchor="middle" x="1287" y="-99.8" font-family="Times,serif" font-size="14.00">CoreModule</text>
</g>
<!-- CoreModule&#45;&gt;FilesStorageModule -->
<g id="edge3" class="edge">
<title>CoreModule&#45;&gt;FilesStorageModule</title>
<path fill="none" stroke="black" d="M1287,-122.27C1287,-140.56 1287,-166 1287,-166 1287,-166 1005.88,-166 1005.88,-166"/>
<polygon fill="black" stroke="black" points="1005.88,-162.5 995.88,-166 1005.88,-169.5 1005.88,-162.5"/>
</g>
<!-- FilesStorageApiModule -->
<g id="node4" class="node">
<title>FilesStorageApiModule</title>
<polygon fill="#8dd3c7" stroke="black" points="1225.03,-122 1222.03,-126 1201.03,-126 1198.03,-122 1074.97,-122 1074.97,-86 1225.03,-86 1225.03,-122"/>
<text text-anchor="middle" x="1150" y="-99.8" font-family="Times,serif" font-size="14.00">FilesStorageApiModule</text>
</g>
<!-- FilesStorageApiModule&#45;&gt;FilesStorageModule -->
<g id="edge4" class="edge">
<title>FilesStorageApiModule&#45;&gt;FilesStorageModule</title>
<path fill="none" stroke="black" d="M1150,-122.01C1150,-138.05 1150,-159 1150,-159 1150,-159 1005.82,-159 1005.82,-159"/>
<polygon fill="black" stroke="black" points="1005.82,-155.5 995.82,-159 1005.82,-162.5 1005.82,-155.5"/>
</g>
<!-- LoggerModule -->
<g id="node5" class="node">
<title>LoggerModule</title>
<polygon fill="#8dd3c7" stroke="black" points="1056.98,-122 1053.98,-126 1032.98,-126 1029.98,-122 957.02,-122 957.02,-86 1056.98,-86 1056.98,-122"/>
<text text-anchor="middle" x="1007" y="-99.8" font-family="Times,serif" font-size="14.00">LoggerModule</text>
</g>
<!-- LoggerModule&#45;&gt;FilesStorageModule -->
<g id="edge5" class="edge">
<title>LoggerModule&#45;&gt;FilesStorageModule</title>
<path fill="none" stroke="black" d="M976.39,-122.11C976.39,-122.11 976.39,-140.99 976.39,-140.99"/>
<polygon fill="black" stroke="black" points="972.89,-140.99 976.39,-150.99 979.89,-140.99 972.89,-140.99"/>
</g>
<!-- RabbitMQWrapperModule -->
<g id="node6" class="node">
<title>RabbitMQWrapperModule</title>
<polygon fill="#8dd3c7" stroke="black" points="939.4,-122 936.4,-126 915.4,-126 912.4,-122 770.6,-122 770.6,-86 939.4,-86 939.4,-122"/>
<text text-anchor="middle" x="855" y="-99.8" font-family="Times,serif" font-size="14.00">RabbitMQWrapperModule</text>
</g>
<!-- RabbitMQWrapperModule&#45;&gt;FilesStorageModule -->
<g id="edge6" class="edge">
<title>RabbitMQWrapperModule&#45;&gt;FilesStorageModule</title>
<path fill="none" stroke="black" d="M902.72,-122.11C902.72,-122.11 902.72,-140.99 902.72,-140.99"/>
<polygon fill="black" stroke="black" points="899.22,-140.99 902.72,-150.99 906.22,-140.99 899.22,-140.99"/>
</g>
<!-- RabbitMQWrapperTestModule -->
<g id="node7" class="node">
<title>RabbitMQWrapperTestModule</title>
<polygon fill="#8dd3c7" stroke="black" points="753,-122 750,-126 729,-126 726,-122 561,-122 561,-86 753,-86 753,-122"/>
<text text-anchor="middle" x="657" y="-99.8" font-family="Times,serif" font-size="14.00">RabbitMQWrapperTestModule</text>
</g>
<!-- RabbitMQWrapperTestModule&#45;&gt;FilesStorageModule -->
<g id="edge7" class="edge">
<title>RabbitMQWrapperTestModule&#45;&gt;FilesStorageModule</title>
<path fill="none" stroke="black" d="M657,-122.01C657,-138.05 657,-159 657,-159 657,-159 856.41,-159 856.41,-159"/>
<polygon fill="black" stroke="black" points="856.41,-162.5 866.41,-159 856.41,-155.5 856.41,-162.5"/>
</g>
<!-- FilesStorageService  -->
<g id="node9" class="node">
<title>FilesStorageService </title>
<polygon fill="#fb8072" stroke="black" points="996.96,-252 865.04,-252 865.04,-216 996.96,-216 996.96,-252"/>
<text text-anchor="middle" x="931" y="-229.8" font-family="Times,serif" font-size="14.00">FilesStorageService </text>
</g>
<!-- FilesStorageModule&#45;&gt;FilesStorageService  -->
<g id="edge8" class="edge">
<title>FilesStorageModule&#45;&gt;FilesStorageService </title>
<path fill="none" stroke="black" stroke-dasharray="5,2" d="M931,-187.11C931,-187.11 931,-205.99 931,-205.99"/>
<polygon fill="black" stroke="black" points="927.5,-205.99 931,-215.99 934.5,-205.99 927.5,-205.99"/>
</g>
<!-- FileRecordRepo -->
<g id="node10" class="node">
<title>FileRecordRepo</title>
<ellipse fill="#fdb462" stroke="black" cx="463" cy="-104" rx="74.16" ry="18"/>
<text text-anchor="middle" x="463" y="-99.8" font-family="Times,serif" font-size="14.00">FileRecordRepo</text>
</g>
<!-- FileRecordRepo&#45;&gt;FilesStorageModule -->
<g id="edge9" class="edge">
<title>FileRecordRepo&#45;&gt;FilesStorageModule</title>
<path fill="none" stroke="black" d="M463,-122.27C463,-140.56 463,-166 463,-166 463,-166 856.42,-166 856.42,-166"/>
<polygon fill="black" stroke="black" points="856.42,-169.5 866.42,-166 856.42,-162.5 856.42,-169.5"/>
</g>
<!-- FilesStorageService -->
<g id="node11" class="node">
<title>FilesStorageService</title>
<ellipse fill="#fdb462" stroke="black" cx="282" cy="-104" rx="88.03" ry="18"/>
<text text-anchor="middle" x="282" y="-99.8" font-family="Times,serif" font-size="14.00">FilesStorageService</text>
</g>
<!-- FilesStorageService&#45;&gt;FilesStorageModule -->
<g id="edge10" class="edge">
<title>FilesStorageService&#45;&gt;FilesStorageModule</title>
<path fill="none" stroke="black" d="M282,-122.13C282,-142.57 282,-173 282,-173 282,-173 856.4,-173 856.4,-173"/>
<polygon fill="black" stroke="black" points="856.4,-176.5 866.4,-173 856.4,-169.5 856.4,-176.5"/>
</g>
<!-- S3ClientAdapter -->
<g id="node12" class="node">
<title>S3ClientAdapter</title>
<ellipse fill="#fdb462" stroke="black" cx="100" cy="-104" rx="75.88" ry="18"/>
<text text-anchor="middle" x="100" y="-99.8" font-family="Times,serif" font-size="14.00">S3ClientAdapter</text>
</g>
<!-- S3ClientAdapter&#45;&gt;FilesStorageModule -->
<g id="edge11" class="edge">
<title>S3ClientAdapter&#45;&gt;FilesStorageModule</title>
<path fill="none" stroke="black" d="M100,-122.01C100,-144.49 100,-180 100,-180 100,-180 856.14,-180 856.14,-180"/>
<polygon fill="black" stroke="black" points="856.14,-183.5 866.14,-180 856.14,-176.5 856.14,-183.5"/>
</g>
</g>
</svg>
