<?xml version="1.0" encoding="UTF-8" standalone="no"?>
<!DOCTYPE svg PUBLIC "-//W3C//DTD SVG 1.1//EN"
 "http://www.w3.org/Graphics/SVG/1.1/DTD/svg11.dtd">
<!-- Generated by graphviz version 2.47.0 (20210316.0004)
 -->
<!-- Title: dependencies Pages: 1 -->
<svg width="1678pt" height="284pt"
 viewBox="0.00 0.00 1678.00 284.00" xmlns="http://www.w3.org/2000/svg" xmlns:xlink="http://www.w3.org/1999/xlink">
<g id="graph0" class="graph" transform="scale(1 1) rotate(0) translate(4 280)">
<title>dependencies</title>
<polygon fill="white" stroke="transparent" points="-4,4 -4,-280 1674,-280 1674,4 -4,4"/>
<text text-anchor="start" x="814.01" y="-42.4" font-family="Times-12" font-weight="bold" font-size="14.00">Legend</text>
<polygon fill="#ffffb3" stroke="transparent" points="601,-10 601,-30 621,-30 621,-10 601,-10"/>
<text text-anchor="start" x="624.63" y="-15.4" font-family="Times-12" font-size="14.00"> &#160;Declarations</text>
<polygon fill="#8dd3c7" stroke="transparent" points="714,-10 714,-30 734,-30 734,-10 714,-10"/>
<text text-anchor="start" x="737.73" y="-15.4" font-family="Times-12" font-size="14.00"> &#160;Module</text>
<polygon fill="#80b1d3" stroke="transparent" points="800,-10 800,-30 820,-30 820,-10 800,-10"/>
<text text-anchor="start" x="823.78" y="-15.4" font-family="Times-12" font-size="14.00"> &#160;Bootstrap</text>
<polygon fill="#fdb462" stroke="transparent" points="897,-10 897,-30 917,-30 917,-10 897,-10"/>
<text text-anchor="start" x="920.67" y="-15.4" font-family="Times-12" font-size="14.00"> &#160;Providers</text>
<polygon fill="#fb8072" stroke="transparent" points="993,-10 993,-30 1013,-30 1013,-10 993,-10"/>
<text text-anchor="start" x="1016.73" y="-15.4" font-family="Times-12" font-size="14.00"> &#160;Exports</text>
<g id="clust1" class="cluster">
<title>cluster_FilesStorageModule</title>
<polygon fill="none" stroke="black" stroke-dasharray="1,5" points="8,-70 8,-268 1662,-268 1662,-70 8,-70"/>
</g>
<g id="clust6" class="cluster">
<title>cluster_FilesStorageModule_providers</title>
<polygon fill="none" stroke="black" points="1125,-78 1125,-130 1654,-130 1654,-78 1125,-78"/>
</g>
<g id="clust3" class="cluster">
<title>cluster_FilesStorageModule_imports</title>
<polygon fill="none" stroke="black" points="16,-78 16,-130 1117,-130 1117,-78 16,-78"/>
</g>
<g id="clust4" class="cluster">
<title>cluster_FilesStorageModule_exports</title>
<polygon fill="none" stroke="black" points="741,-208 741,-260 889,-260 889,-208 741,-208"/>
</g>
<!-- AuthenticationModule -->
<g id="node1" class="node">
<title>AuthenticationModule</title>
<polygon fill="#8dd3c7" stroke="black" points="1109.25,-122 1106.25,-126 1085.25,-126 1082.25,-122 966.75,-122 966.75,-86 1109.25,-86 1109.25,-122"/>
<text text-anchor="middle" x="1038" y="-99.8" font-family="Times,serif" font-size="14.00">AuthenticationModule</text>
</g>
<!-- FilesStorageModule -->
<g id="node8" class="node">
<title>FilesStorageModule</title>
<polygon fill="#8dd3c7" stroke="black" points="879.54,-187 876.54,-191 855.54,-191 852.54,-187 750.46,-187 750.46,-151 879.54,-151 879.54,-187"/>
<text text-anchor="middle" x="815" y="-164.8" font-family="Times,serif" font-size="14.00">FilesStorageModule</text>
</g>
<!-- AuthenticationModule&#45;&gt;FilesStorageModule -->
<g id="edge1" class="edge">
<title>AuthenticationModule&#45;&gt;FilesStorageModule</title>
<path fill="none" stroke="black" d="M1038,-122.01C1038,-138.05 1038,-159 1038,-159 1038,-159 889.8,-159 889.8,-159"/>
<polygon fill="black" stroke="black" points="889.8,-155.5 879.8,-159 889.8,-162.5 889.8,-155.5"/>
</g>
<!-- AuthorizationModule -->
<g id="node2" class="node">
<title>AuthorizationModule</title>
<polygon fill="#8dd3c7" stroke="black" points="948.81,-122 945.81,-126 924.81,-126 921.81,-122 811.19,-122 811.19,-86 948.81,-86 948.81,-122"/>
<text text-anchor="middle" x="880" y="-99.8" font-family="Times,serif" font-size="14.00">AuthorizationModule</text>
</g>
<!-- AuthorizationModule&#45;&gt;FilesStorageModule -->
<g id="edge2" class="edge">
<title>AuthorizationModule&#45;&gt;FilesStorageModule</title>
<path fill="none" stroke="black" d="M845.56,-122.11C845.56,-122.11 845.56,-140.99 845.56,-140.99"/>
<polygon fill="black" stroke="black" points="842.06,-140.99 845.56,-150.99 849.06,-140.99 842.06,-140.99"/>
</g>
<!-- CoreModule -->
<g id="node3" class="node">
<title>CoreModule</title>
<polygon fill="#8dd3c7" stroke="black" points="793.26,-122 790.26,-126 769.26,-126 766.26,-122 706.74,-122 706.74,-86 793.26,-86 793.26,-122"/>
<text text-anchor="middle" x="750" y="-99.8" font-family="Times,serif" font-size="14.00">CoreModule</text>
</g>
<!-- CoreModule&#45;&gt;FilesStorageModule -->
<g id="edge3" class="edge">
<title>CoreModule&#45;&gt;FilesStorageModule</title>
<path fill="none" stroke="black" d="M771.81,-122.11C771.81,-122.11 771.81,-140.99 771.81,-140.99"/>
<polygon fill="black" stroke="black" points="768.31,-140.99 771.81,-150.99 775.31,-140.99 768.31,-140.99"/>
</g>
<!-- FilesStorageApiModule -->
<g id="node4" class="node">
<title>FilesStorageApiModule</title>
<polygon fill="#8dd3c7" stroke="black" points="688.03,-122 685.03,-126 664.03,-126 661.03,-122 537.97,-122 537.97,-86 688.03,-86 688.03,-122"/>
<text text-anchor="middle" x="613" y="-99.8" font-family="Times,serif" font-size="14.00">FilesStorageApiModule</text>
</g>
<!-- FilesStorageApiModule&#45;&gt;FilesStorageModule -->
<g id="edge4" class="edge">
<title>FilesStorageApiModule&#45;&gt;FilesStorageModule</title>
<path fill="none" stroke="black" d="M613,-122.01C613,-138.05 613,-159 613,-159 613,-159 740.25,-159 740.25,-159"/>
<polygon fill="black" stroke="black" points="740.25,-162.5 750.25,-159 740.25,-155.5 740.25,-162.5"/>
</g>
<!-- LoggerModule -->
<g id="node5" class="node">
<title>LoggerModule</title>
<polygon fill="#8dd3c7" stroke="black" points="519.98,-122 516.98,-126 495.98,-126 492.98,-122 420.02,-122 420.02,-86 519.98,-86 519.98,-122"/>
<text text-anchor="middle" x="470" y="-99.8" font-family="Times,serif" font-size="14.00">LoggerModule</text>
</g>
<!-- LoggerModule&#45;&gt;FilesStorageModule -->
<g id="edge5" class="edge">
<title>LoggerModule&#45;&gt;FilesStorageModule</title>
<path fill="none" stroke="black" d="M470,-122.27C470,-140.56 470,-166 470,-166 470,-166 740.11,-166 740.11,-166"/>
<polygon fill="black" stroke="black" points="740.11,-169.5 750.11,-166 740.11,-162.5 740.11,-169.5"/>
</g>
<!-- RabbitMQWrapperModule -->
<g id="node6" class="node">
<title>RabbitMQWrapperModule</title>
<polygon fill="#8dd3c7" stroke="black" points="402.4,-122 399.4,-126 378.4,-126 375.4,-122 233.6,-122 233.6,-86 402.4,-86 402.4,-122"/>
<text text-anchor="middle" x="318" y="-99.8" font-family="Times,serif" font-size="14.00">RabbitMQWrapperModule</text>
</g>
<!-- RabbitMQWrapperModule&#45;&gt;FilesStorageModule -->
<g id="edge6" class="edge">
<title>RabbitMQWrapperModule&#45;&gt;FilesStorageModule</title>
<path fill="none" stroke="black" d="M318,-122.13C318,-142.57 318,-173 318,-173 318,-173 740.28,-173 740.28,-173"/>
<polygon fill="black" stroke="black" points="740.28,-176.5 750.28,-173 740.28,-169.5 740.28,-176.5"/>
</g>
<!-- RabbitMQWrapperTestModule -->
<g id="node7" class="node">
<title>RabbitMQWrapperTestModule</title>
<polygon fill="#8dd3c7" stroke="black" points="216,-122 213,-126 192,-126 189,-122 24,-122 24,-86 216,-86 216,-122"/>
<text text-anchor="middle" x="120" y="-99.8" font-family="Times,serif" font-size="14.00">RabbitMQWrapperTestModule</text>
</g>
<!-- RabbitMQWrapperTestModule&#45;&gt;FilesStorageModule -->
<g id="edge7" class="edge">
<title>RabbitMQWrapperTestModule&#45;&gt;FilesStorageModule</title>
<path fill="none" stroke="black" d="M120,-122.01C120,-144.49 120,-180 120,-180 120,-180 740.24,-180 740.24,-180"/>
<polygon fill="black" stroke="black" points="740.24,-183.5 750.24,-180 740.24,-176.5 740.24,-183.5"/>
</g>
<!-- FilesStorageService  -->
<g id="node9" class="node">
<title>FilesStorageService </title>
<polygon fill="#fb8072" stroke="black" points="880.96,-252 749.04,-252 749.04,-216 880.96,-216 880.96,-252"/>
<text text-anchor="middle" x="815" y="-229.8" font-family="Times,serif" font-size="14.00">FilesStorageService </text>
</g>
<!-- FilesStorageModule&#45;&gt;FilesStorageService  -->
<g id="edge8" class="edge">
<title>FilesStorageModule&#45;&gt;FilesStorageService </title>
<path fill="none" stroke="black" stroke-dasharray="5,2" d="M815,-187.11C815,-187.11 815,-205.99 815,-205.99"/>
<polygon fill="black" stroke="black" points="811.5,-205.99 815,-215.99 818.5,-205.99 811.5,-205.99"/>
</g>
<!-- FileRecordRepo -->
<g id="node10" class="node">
<title>FileRecordRepo</title>
<ellipse fill="#fdb462" stroke="black" cx="1572" cy="-104" rx="74.16" ry="18"/>
<text text-anchor="middle" x="1572" y="-99.8" font-family="Times,serif" font-size="14.00">FileRecordRepo</text>
</g>
<!-- FileRecordRepo&#45;&gt;FilesStorageModule -->
<g id="edge9" class="edge">
<title>FileRecordRepo&#45;&gt;FilesStorageModule</title>
<path fill="none" stroke="black" d="M1572,-122.01C1572,-144.49 1572,-180 1572,-180 1572,-180 889.54,-180 889.54,-180"/>
<polygon fill="black" stroke="black" points="889.54,-176.5 879.54,-180 889.54,-183.5 889.54,-176.5"/>
</g>
<!-- FilesStorageService -->
<g id="node11" class="node">
<title>FilesStorageService</title>
<ellipse fill="#fdb462" stroke="black" cx="1391" cy="-104" rx="88.03" ry="18"/>
<text text-anchor="middle" x="1391" y="-99.8" font-family="Times,serif" font-size="14.00">FilesStorageService</text>
</g>
<!-- FilesStorageService&#45;&gt;FilesStorageModule -->
<g id="edge10" class="edge">
<title>FilesStorageService&#45;&gt;FilesStorageModule</title>
<path fill="none" stroke="black" d="M1391,-122.13C1391,-142.57 1391,-173 1391,-173 1391,-173 889.68,-173 889.68,-173"/>
<polygon fill="black" stroke="black" points="889.68,-169.5 879.68,-173 889.68,-176.5 889.68,-169.5"/>
</g>
<!-- S3ClientAdapter -->
<g id="node12" class="node">
<title>S3ClientAdapter</title>
<ellipse fill="#fdb462" stroke="black" cx="1209" cy="-104" rx="75.88" ry="18"/>
<text text-anchor="middle" x="1209" y="-99.8" font-family="Times,serif" font-size="14.00">S3ClientAdapter</text>
</g>
<!-- S3ClientAdapter&#45;&gt;FilesStorageModule -->
<g id="edge11" class="edge">
<title>S3ClientAdapter&#45;&gt;FilesStorageModule</title>
<path fill="none" stroke="black" d="M1209,-122.27C1209,-140.56 1209,-166 1209,-166 1209,-166 889.62,-166 889.62,-166"/>
<polygon fill="black" stroke="black" points="889.62,-162.5 879.62,-166 889.62,-169.5 889.62,-162.5"/>
</g>
</g>
</svg>
