<?xml version="1.0" encoding="UTF-8" standalone="no"?>
<!DOCTYPE svg PUBLIC "-//W3C//DTD SVG 1.1//EN"
 "http://www.w3.org/Graphics/SVG/1.1/DTD/svg11.dtd">
<!-- Generated by graphviz version 5.0.0 (20220707.1540)
 -->
<!-- Title: dependencies Pages: 1 -->
<svg width="1678pt" height="247pt"
 viewBox="0.00 0.00 1678.00 246.80" xmlns="http://www.w3.org/2000/svg" xmlns:xlink="http://www.w3.org/1999/xlink">
<g id="graph0" class="graph" transform="scale(1 1) rotate(0) translate(4 242.8)">
<title>dependencies</title>
<polygon fill="white" stroke="transparent" points="-4,4 -4,-242.8 1674,-242.8 1674,4 -4,4"/>
<text text-anchor="middle" x="835" y="-8.2" font-family="sans-serif" font-size="14.00">dependencies</text>
<g id="clust1" class="cluster">
<title>cluster_FilesStorageModule</title>
<polygon fill="none" stroke="black" stroke-dasharray="1,5" points="8,-32.8 8,-230.8 1662,-230.8 1662,-32.8 8,-32.8"/>
</g>
<g id="clust4" class="cluster">
<title>cluster_FilesStorageModule_exports</title>
<polygon fill="none" stroke="black" points="741,-170.8 741,-222.8 889,-222.8 889,-170.8 741,-170.8"/>
</g>
<g id="clust6" class="cluster">
<title>cluster_FilesStorageModule_providers</title>
<polygon fill="none" stroke="black" points="1125,-40.8 1125,-92.8 1654,-92.8 1654,-40.8 1125,-40.8"/>
</g>
<g id="clust3" class="cluster">
<title>cluster_FilesStorageModule_imports</title>
<polygon fill="none" stroke="black" points="16,-40.8 16,-92.8 1117,-92.8 1117,-40.8 16,-40.8"/>
</g>
<!-- AuthenticationModule -->
<g id="node1" class="node">
<title>AuthenticationModule</title>
<polygon fill="#8dd3c7" stroke="black" points="1109.25,-84.8 1106.25,-88.8 1085.25,-88.8 1082.25,-84.8 966.75,-84.8 966.75,-48.8 1109.25,-48.8 1109.25,-84.8"/>
<text text-anchor="middle" x="1038" y="-62.6" font-family="Times,serif" font-size="14.00">AuthenticationModule</text>
</g>
<!-- FilesStorageModule -->
<g id="node8" class="node">
<title>FilesStorageModule</title>
<polygon fill="#8dd3c7" stroke="black" points="879.55,-149.8 876.55,-153.8 855.55,-153.8 852.55,-149.8 750.45,-149.8 750.45,-113.8 879.55,-113.8 879.55,-149.8"/>
<text text-anchor="middle" x="815" y="-127.6" font-family="Times,serif" font-size="14.00">FilesStorageModule</text>
</g>
<!-- AuthenticationModule&#45;&gt;FilesStorageModule -->
<g id="edge1" class="edge">
<title>AuthenticationModule&#45;&gt;FilesStorageModule</title>
<path fill="none" stroke="black" d="M1038,-84.81C1038,-100.85 1038,-121.8 1038,-121.8 1038,-121.8 889.8,-121.8 889.8,-121.8"/>
<polygon fill="black" stroke="black" points="889.8,-118.3 879.8,-121.8 889.8,-125.3 889.8,-118.3"/>
</g>
<!-- AuthorizationModule -->
<g id="node2" class="node">
<title>AuthorizationModule</title>
<polygon fill="#8dd3c7" stroke="black" points="948.81,-84.8 945.81,-88.8 924.81,-88.8 921.81,-84.8 811.19,-84.8 811.19,-48.8 948.81,-48.8 948.81,-84.8"/>
<text text-anchor="middle" x="880" y="-62.6" font-family="Times,serif" font-size="14.00">AuthorizationModule</text>
</g>
<!-- AuthorizationModule&#45;&gt;FilesStorageModule -->
<g id="edge2" class="edge">
<title>AuthorizationModule&#45;&gt;FilesStorageModule</title>
<path fill="none" stroke="black" d="M845.56,-84.91C845.56,-84.91 845.56,-103.79 845.56,-103.79"/>
<polygon fill="black" stroke="black" points="842.06,-103.79 845.56,-113.79 849.06,-103.79 842.06,-103.79"/>
</g>
<!-- CoreModule -->
<g id="node3" class="node">
<title>CoreModule</title>
<polygon fill="#8dd3c7" stroke="black" points="793.27,-84.8 790.27,-88.8 769.27,-88.8 766.27,-84.8 706.73,-84.8 706.73,-48.8 793.27,-48.8 793.27,-84.8"/>
<text text-anchor="middle" x="750" y="-62.6" font-family="Times,serif" font-size="14.00">CoreModule</text>
</g>
<!-- CoreModule&#45;&gt;FilesStorageModule -->
<g id="edge3" class="edge">
<title>CoreModule&#45;&gt;FilesStorageModule</title>
<path fill="none" stroke="black" d="M771.81,-84.91C771.81,-84.91 771.81,-103.79 771.81,-103.79"/>
<polygon fill="black" stroke="black" points="768.31,-103.79 771.81,-113.79 775.31,-103.79 768.31,-103.79"/>
</g>
<!-- FilesStorageApiModule -->
<g id="node4" class="node">
<title>FilesStorageApiModule</title>
<polygon fill="#8dd3c7" stroke="black" points="688.05,-84.8 685.05,-88.8 664.05,-88.8 661.05,-84.8 537.95,-84.8 537.95,-48.8 688.05,-48.8 688.05,-84.8"/>
<text text-anchor="middle" x="613" y="-62.6" font-family="Times,serif" font-size="14.00">FilesStorageApiModule</text>
</g>
<!-- FilesStorageApiModule&#45;&gt;FilesStorageModule -->
<g id="edge4" class="edge">
<title>FilesStorageApiModule&#45;&gt;FilesStorageModule</title>
<path fill="none" stroke="black" d="M613,-84.81C613,-100.85 613,-121.8 613,-121.8 613,-121.8 740.25,-121.8 740.25,-121.8"/>
<polygon fill="black" stroke="black" points="740.25,-125.3 750.25,-121.8 740.25,-118.3 740.25,-125.3"/>
</g>
<!-- LoggerModule -->
<g id="node5" class="node">
<title>LoggerModule</title>
<polygon fill="#8dd3c7" stroke="black" points="519.98,-84.8 516.98,-88.8 495.98,-88.8 492.98,-84.8 420.02,-84.8 420.02,-48.8 519.98,-48.8 519.98,-84.8"/>
<text text-anchor="middle" x="470" y="-62.6" font-family="Times,serif" font-size="14.00">LoggerModule</text>
</g>
<!-- LoggerModule&#45;&gt;FilesStorageModule -->
<g id="edge5" class="edge">
<title>LoggerModule&#45;&gt;FilesStorageModule</title>
<path fill="none" stroke="black" d="M470,-85.07C470,-103.36 470,-128.8 470,-128.8 470,-128.8 740.11,-128.8 740.11,-128.8"/>
<polygon fill="black" stroke="black" points="740.11,-132.3 750.11,-128.8 740.11,-125.3 740.11,-132.3"/>
</g>
<!-- RabbitMQWrapperModule -->
<g id="node6" class="node">
<title>RabbitMQWrapperModule</title>
<polygon fill="#8dd3c7" stroke="black" points="402.41,-84.8 399.41,-88.8 378.41,-88.8 375.41,-84.8 233.59,-84.8 233.59,-48.8 402.41,-48.8 402.41,-84.8"/>
<text text-anchor="middle" x="318" y="-62.6" font-family="Times,serif" font-size="14.00">RabbitMQWrapperModule</text>
</g>
<!-- RabbitMQWrapperModule&#45;&gt;FilesStorageModule -->
<g id="edge6" class="edge">
<title>RabbitMQWrapperModule&#45;&gt;FilesStorageModule</title>
<path fill="none" stroke="black" d="M318,-84.93C318,-105.37 318,-135.8 318,-135.8 318,-135.8 740.28,-135.8 740.28,-135.8"/>
<polygon fill="black" stroke="black" points="740.28,-139.3 750.28,-135.8 740.28,-132.3 740.28,-139.3"/>
</g>
<!-- RabbitMQWrapperTestModule -->
<g id="node7" class="node">
<title>RabbitMQWrapperTestModule</title>
<polygon fill="#8dd3c7" stroke="black" points="216.01,-84.8 213.01,-88.8 192.01,-88.8 189.01,-84.8 23.99,-84.8 23.99,-48.8 216.01,-48.8 216.01,-84.8"/>
<text text-anchor="middle" x="120" y="-62.6" font-family="Times,serif" font-size="14.00">RabbitMQWrapperTestModule</text>
</g>
<!-- RabbitMQWrapperTestModule&#45;&gt;FilesStorageModule -->
<g id="edge7" class="edge">
<title>RabbitMQWrapperTestModule&#45;&gt;FilesStorageModule</title>
<path fill="none" stroke="black" d="M120,-84.81C120,-107.29 120,-142.8 120,-142.8 120,-142.8 740.24,-142.8 740.24,-142.8"/>
<polygon fill="black" stroke="black" points="740.24,-146.3 750.24,-142.8 740.24,-139.3 740.24,-146.3"/>
</g>
<!-- FilesStorageService  -->
<g id="node9" class="node">
<title>FilesStorageService </title>
<polygon fill="#fb8072" stroke="black" points="880.97,-214.8 749.03,-214.8 749.03,-178.8 880.97,-178.8 880.97,-214.8"/>
<text text-anchor="middle" x="815" y="-192.6" font-family="Times,serif" font-size="14.00">FilesStorageService </text>
</g>
<!-- FilesStorageModule&#45;&gt;FilesStorageService  -->
<g id="edge8" class="edge">
<title>FilesStorageModule&#45;&gt;FilesStorageService </title>
<path fill="none" stroke="black" stroke-dasharray="5,2" d="M815,-149.91C815,-149.91 815,-168.79 815,-168.79"/>
<polygon fill="black" stroke="black" points="811.5,-168.79 815,-178.79 818.5,-168.79 811.5,-168.79"/>
</g>
<!-- FileRecordRepo -->
<g id="node10" class="node">
<title>FileRecordRepo</title>
<ellipse fill="#fdb462" stroke="black" cx="1572" cy="-66.8" rx="74.16" ry="18"/>
<text text-anchor="middle" x="1572" y="-62.6" font-family="Times,serif" font-size="14.00">FileRecordRepo</text>
</g>
<!-- FileRecordRepo&#45;&gt;FilesStorageModule -->
<g id="edge9" class="edge">
<title>FileRecordRepo&#45;&gt;FilesStorageModule</title>
<path fill="none" stroke="black" d="M1572,-84.81C1572,-107.29 1572,-142.8 1572,-142.8 1572,-142.8 889.87,-142.8 889.87,-142.8"/>
<polygon fill="black" stroke="black" points="889.87,-139.3 879.87,-142.8 889.87,-146.3 889.87,-139.3"/>
</g>
<!-- FilesStorageService -->
<g id="node11" class="node">
<title>FilesStorageService</title>
<ellipse fill="#fdb462" stroke="black" cx="1391" cy="-66.8" rx="88.05" ry="18"/>
<text text-anchor="middle" x="1391" y="-62.6" font-family="Times,serif" font-size="14.00">FilesStorageService</text>
</g>
<!-- FilesStorageService&#45;&gt;FilesStorageModule -->
<g id="edge10" class="edge">
<title>FilesStorageService&#45;&gt;FilesStorageModule</title>
<path fill="none" stroke="black" d="M1391,-84.93C1391,-105.37 1391,-135.8 1391,-135.8 1391,-135.8 889.68,-135.8 889.68,-135.8"/>
<polygon fill="black" stroke="black" points="889.68,-132.3 879.68,-135.8 889.68,-139.3 889.68,-132.3"/>
</g>
<!-- S3ClientAdapter -->
<g id="node12" class="node">
<title>S3ClientAdapter</title>
<ellipse fill="#fdb462" stroke="black" cx="1209" cy="-66.8" rx="75.89" ry="18"/>
<text text-anchor="middle" x="1209" y="-62.6" font-family="Times,serif" font-size="14.00">S3ClientAdapter</text>
</g>
<!-- S3ClientAdapter&#45;&gt;FilesStorageModule -->
<g id="edge11" class="edge">
<title>S3ClientAdapter&#45;&gt;FilesStorageModule</title>
<path fill="none" stroke="black" d="M1209,-85.07C1209,-103.36 1209,-128.8 1209,-128.8 1209,-128.8 889.62,-128.8 889.62,-128.8"/>
<polygon fill="black" stroke="black" points="889.62,-125.3 879.62,-128.8 889.62,-132.3 889.62,-125.3"/>
</g>
</g>
</svg>
