<?xml version="1.0" encoding="UTF-8" standalone="no"?>
<!DOCTYPE svg PUBLIC "-//W3C//DTD SVG 1.1//EN"
 "http://www.w3.org/Graphics/SVG/1.1/DTD/svg11.dtd">
<!-- Generated by graphviz version 2.47.0 (20210316.0004)
 -->
<!-- Title: dependencies Pages: 1 -->
<svg width="1545pt" height="211pt"
 viewBox="0.00 0.00 1545.00 211.00" xmlns="http://www.w3.org/2000/svg" xmlns:xlink="http://www.w3.org/1999/xlink">
<g id="graph0" class="graph" transform="scale(1 1) rotate(0) translate(4 207)">
<title>dependencies</title>
<polygon fill="white" stroke="transparent" points="-4,4 -4,-207 1541,-207 1541,4 -4,4"/>
<text text-anchor="start" x="747.51" y="-42.4" font-family="Times-12" font-weight="bold" font-size="14.00">Legend</text>
<polygon fill="#ffffb3" stroke="transparent" points="534.5,-10 534.5,-30 554.5,-30 554.5,-10 534.5,-10"/>
<text text-anchor="start" x="558.13" y="-15.4" font-family="Times-12" font-size="14.00"> &#160;Declarations</text>
<polygon fill="#8dd3c7" stroke="transparent" points="647.5,-10 647.5,-30 667.5,-30 667.5,-10 647.5,-10"/>
<text text-anchor="start" x="671.23" y="-15.4" font-family="Times-12" font-size="14.00"> &#160;Module</text>
<polygon fill="#80b1d3" stroke="transparent" points="733.5,-10 733.5,-30 753.5,-30 753.5,-10 733.5,-10"/>
<text text-anchor="start" x="757.28" y="-15.4" font-family="Times-12" font-size="14.00"> &#160;Bootstrap</text>
<polygon fill="#fdb462" stroke="transparent" points="830.5,-10 830.5,-30 850.5,-30 850.5,-10 830.5,-10"/>
<text text-anchor="start" x="854.17" y="-15.4" font-family="Times-12" font-size="14.00"> &#160;Providers</text>
<polygon fill="#fb8072" stroke="transparent" points="926.5,-10 926.5,-30 946.5,-30 946.5,-10 926.5,-10"/>
<text text-anchor="start" x="950.23" y="-15.4" font-family="Times-12" font-size="14.00"> &#160;Exports</text>
<g id="clust1" class="cluster">
<title>cluster_ToolAdminApiModule</title>
<polygon fill="none" stroke="black" stroke-dasharray="1,5" points="8,-70 8,-195 1529,-195 1529,-70 8,-70"/>
</g>
<g id="clust3" class="cluster">
<title>cluster_ToolAdminApiModule_imports</title>
<polygon fill="none" stroke="black" points="1419,-78 1419,-130 1521,-130 1521,-78 1419,-78"/>
</g>
<g id="clust6" class="cluster">
<title>cluster_ToolAdminApiModule_providers</title>
<polygon fill="none" stroke="black" points="16,-78 16,-130 1411,-130 1411,-78 16,-78"/>
</g>
<!-- ToolModule -->
<g id="node1" class="node">
<title>ToolModule</title>
<polygon fill="#8dd3c7" stroke="black" points="1512.99,-122 1509.99,-126 1488.99,-126 1485.99,-122 1427.01,-122 1427.01,-86 1512.99,-86 1512.99,-122"/>
<text text-anchor="middle" x="1470" y="-99.8" font-family="Times,serif" font-size="14.00">ToolModule</text>
</g>
<!-- ToolAdminApiModule -->
<g id="node2" class="node">
<title>ToolAdminApiModule</title>
<polygon fill="#8dd3c7" stroke="black" points="915.88,-187 912.88,-191 891.88,-191 888.88,-187 770.12,-187 770.12,-151 915.88,-151 915.88,-187"/>
<text text-anchor="middle" x="843" y="-164.8" font-family="Times,serif" font-size="14.00">ToolAdminApiModule</text>
</g>
<!-- ToolModule&#45;&gt;ToolAdminApiModule -->
<g id="edge1" class="edge">
<title>ToolModule&#45;&gt;ToolAdminApiModule</title>
<path fill="none" stroke="black" d="M1470,-122.28C1470,-143.32 1470,-175 1470,-175 1470,-175 926.15,-175 926.15,-175"/>
<polygon fill="black" stroke="black" points="926.15,-171.5 916.15,-175 926.15,-178.5 926.15,-171.5"/>
</g>
<!-- AdminApiContextExternalToolUc -->
<g id="node3" class="node">
<title>AdminApiContextExternalToolUc</title>
<ellipse fill="#fdb462" stroke="black" cx="1258" cy="-104" rx="145.27" ry="18"/>
<text text-anchor="middle" x="1258" y="-99.8" font-family="Times,serif" font-size="14.00">AdminApiContextExternalToolUc</text>
</g>
<!-- AdminApiContextExternalToolUc&#45;&gt;ToolAdminApiModule -->
<g id="edge2" class="edge">
<title>AdminApiContextExternalToolUc&#45;&gt;ToolAdminApiModule</title>
<path fill="none" stroke="black" d="M1258,-122.02C1258,-139.37 1258,-163 1258,-163 1258,-163 926.24,-163 926.24,-163"/>
<polygon fill="black" stroke="black" points="926.24,-159.5 916.24,-163 926.24,-166.5 926.24,-159.5"/>
</g>
<!-- AdminApiExternalToolUc -->
<g id="node4" class="node">
<title>AdminApiExternalToolUc</title>
<ellipse fill="#fdb462" stroke="black" cx="980" cy="-104" rx="114.61" ry="18"/>
<text text-anchor="middle" x="980" y="-99.8" font-family="Times,serif" font-size="14.00">AdminApiExternalToolUc</text>
</g>
<!-- AdminApiExternalToolUc&#45;&gt;ToolAdminApiModule -->
<g id="edge3" class="edge">
<title>AdminApiExternalToolUc&#45;&gt;ToolAdminApiModule</title>
<path fill="none" stroke="black" d="M890.69,-115.32C890.69,-115.32 890.69,-140.94 890.69,-140.94"/>
<polygon fill="black" stroke="black" points="887.19,-140.94 890.69,-150.94 894.19,-140.94 887.19,-140.94"/>
</g>
<!-- AdminApiSchoolExternalToolUc -->
<g id="node5" class="node">
<title>AdminApiSchoolExternalToolUc</title>
<ellipse fill="#fdb462" stroke="black" cx="706" cy="-104" rx="141.26" ry="18"/>
<text text-anchor="middle" x="706" y="-99.8" font-family="Times,serif" font-size="14.00">AdminApiSchoolExternalToolUc</text>
</g>
<!-- AdminApiSchoolExternalToolUc&#45;&gt;ToolAdminApiModule -->
<g id="edge4" class="edge">
<title>AdminApiSchoolExternalToolUc&#45;&gt;ToolAdminApiModule</title>
<path fill="none" stroke="black" d="M808.72,-116.53C808.72,-116.53 808.72,-140.85 808.72,-140.85"/>
<polygon fill="black" stroke="black" points="805.22,-140.85 808.72,-150.85 812.22,-140.85 805.22,-140.85"/>
</g>
<!-- ExternalToolRequestMapper -->
<g id="node6" class="node">
<title>ExternalToolRequestMapper</title>
<ellipse fill="#fdb462" stroke="black" cx="423" cy="-104" rx="123.26" ry="18"/>
<text text-anchor="middle" x="423" y="-99.8" font-family="Times,serif" font-size="14.00">ExternalToolRequestMapper</text>
</g>
<!-- ExternalToolRequestMapper&#45;&gt;ToolAdminApiModule -->
<g id="edge5" class="edge">
<title>ExternalToolRequestMapper&#45;&gt;ToolAdminApiModule</title>
<path fill="none" stroke="black" d="M423,-122.02C423,-139.37 423,-163 423,-163 423,-163 759.84,-163 759.84,-163"/>
<polygon fill="black" stroke="black" points="759.84,-166.5 769.84,-163 759.84,-159.5 759.84,-166.5"/>
</g>
<!-- ExternalToolResponseMapper -->
<g id="node7" class="node">
<title>ExternalToolResponseMapper</title>
<ellipse fill="#fdb462" stroke="black" cx="153" cy="-104" rx="129.06" ry="18"/>
<text text-anchor="middle" x="153" y="-99.8" font-family="Times,serif" font-size="14.00">ExternalToolResponseMapper</text>
</g>
<!-- ExternalToolResponseMapper&#45;&gt;ToolAdminApiModule -->
<g id="edge6" class="edge">
<title>ExternalToolResponseMapper&#45;&gt;ToolAdminApiModule</title>
<path fill="none" stroke="black" d="M153,-122.28C153,-143.32 153,-175 153,-175 153,-175 759.81,-175 759.81,-175"/>
<polygon fill="black" stroke="black" points="759.81,-178.5 769.81,-175 759.81,-171.5 759.81,-178.5"/>
</g>
</g>
</svg>
