<?xml version="1.0" encoding="UTF-8" standalone="no"?>
<!DOCTYPE svg PUBLIC "-//W3C//DTD SVG 1.1//EN"
 "http://www.w3.org/Graphics/SVG/1.1/DTD/svg11.dtd">
<!-- Generated by graphviz version 2.47.0 (20210316.0004)
 -->
<!-- Title: dependencies Pages: 1 -->
<svg width="504pt" height="211pt"
 viewBox="0.00 0.00 504.00 211.00" xmlns="http://www.w3.org/2000/svg" xmlns:xlink="http://www.w3.org/1999/xlink">
<g id="graph0" class="graph" transform="scale(1 1) rotate(0) translate(4 207)">
<title>dependencies</title>
<polygon fill="white" stroke="transparent" points="-4,4 -4,-207 500,-207 500,4 -4,4"/>
<text text-anchor="start" x="227.01" y="-42.4" font-family="Times-12" font-weight="bold" font-size="14.00">Legend</text>
<polygon fill="#ffffb3" stroke="transparent" points="14,-10 14,-30 34,-30 34,-10 14,-10"/>
<text text-anchor="start" x="37.63" y="-15.4" font-family="Times-12" font-size="14.00"> &#160;Declarations</text>
<polygon fill="#8dd3c7" stroke="transparent" points="127,-10 127,-30 147,-30 147,-10 127,-10"/>
<text text-anchor="start" x="150.73" y="-15.4" font-family="Times-12" font-size="14.00"> &#160;Module</text>
<polygon fill="#80b1d3" stroke="transparent" points="213,-10 213,-30 233,-30 233,-10 213,-10"/>
<text text-anchor="start" x="236.78" y="-15.4" font-family="Times-12" font-size="14.00"> &#160;Bootstrap</text>
<polygon fill="#fdb462" stroke="transparent" points="310,-10 310,-30 330,-30 330,-10 310,-10"/>
<text text-anchor="start" x="333.67" y="-15.4" font-family="Times-12" font-size="14.00"> &#160;Providers</text>
<polygon fill="#fb8072" stroke="transparent" points="406,-10 406,-30 426,-30 426,-10 406,-10"/>
<text text-anchor="start" x="429.73" y="-15.4" font-family="Times-12" font-size="14.00"> &#160;Exports</text>
<g id="clust1" class="cluster">
<title>cluster_UserApiModule</title>
<polygon fill="none" stroke="black" stroke-dasharray="1,5" points="22,-70 22,-195 474,-195 474,-70 22,-70"/>
</g>
<g id="clust3" class="cluster">
<title>cluster_UserApiModule_imports</title>
<polygon fill="none" stroke="black" points="136,-78 136,-130 466,-130 466,-78 136,-78"/>
</g>
<g id="clust6" class="cluster">
<title>cluster_UserApiModule_providers</title>
<polygon fill="none" stroke="black" points="30,-78 30,-130 128,-130 128,-78 30,-78"/>
</g>
<!-- AccountModule -->
<g id="node1" class="node">
<title>AccountModule</title>
<polygon fill="#8dd3c7" stroke="black" points="458.48,-122 455.48,-126 434.48,-126 431.48,-122 351.52,-122 351.52,-86 458.48,-86 458.48,-122"/>
<text text-anchor="middle" x="405" y="-99.8" font-family="Times,serif" font-size="14.00">AccountModule</text>
</g>
<!-- UserApiModule -->
<g id="node4" class="node">
<title>UserApiModule</title>
<polygon fill="#8dd3c7" stroke="black" points="292.47,-187 289.47,-191 268.47,-191 265.47,-187 185.53,-187 185.53,-151 292.47,-151 292.47,-187"/>
<text text-anchor="middle" x="239" y="-164.8" font-family="Times,serif" font-size="14.00">UserApiModule</text>
</g>
<!-- AccountModule&#45;&gt;UserApiModule -->
<g id="edge1" class="edge">
<title>AccountModule&#45;&gt;UserApiModule</title>
<path fill="none" stroke="black" d="M405,-122.11C405,-141.34 405,-169 405,-169 405,-169 302.9,-169 302.9,-169"/>
<polygon fill="black" stroke="black" points="302.9,-165.5 292.9,-169 302.9,-172.5 302.9,-165.5"/>
</g>
<!-- RoleModule -->
<g id="node2" class="node">
<title>RoleModule</title>
<polygon fill="#8dd3c7" stroke="black" points="333.99,-122 330.99,-126 309.99,-126 306.99,-122 248.01,-122 248.01,-86 333.99,-86 333.99,-122"/>
<text text-anchor="middle" x="291" y="-99.8" font-family="Times,serif" font-size="14.00">RoleModule</text>
</g>
<!-- RoleModule&#45;&gt;UserApiModule -->
<g id="edge2" class="edge">
<title>RoleModule&#45;&gt;UserApiModule</title>
<path fill="none" stroke="black" d="M270.25,-122.11C270.25,-122.11 270.25,-140.99 270.25,-140.99"/>
<polygon fill="black" stroke="black" points="266.75,-140.99 270.25,-150.99 273.75,-140.99 266.75,-140.99"/>
</g>
<!-- UserModule -->
<g id="node3" class="node">
<title>UserModule</title>
<polygon fill="#8dd3c7" stroke="black" points="229.98,-122 226.98,-126 205.98,-126 202.98,-122 144.02,-122 144.02,-86 229.98,-86 229.98,-122"/>
<text text-anchor="middle" x="187" y="-99.8" font-family="Times,serif" font-size="14.00">UserModule</text>
</g>
<!-- UserModule&#45;&gt;UserApiModule -->
<g id="edge3" class="edge">
<title>UserModule&#45;&gt;UserApiModule</title>
<path fill="none" stroke="black" d="M207.75,-122.11C207.75,-122.11 207.75,-140.99 207.75,-140.99"/>
<polygon fill="black" stroke="black" points="204.25,-140.99 207.75,-150.99 211.25,-140.99 204.25,-140.99"/>
</g>
<!-- UserUc -->
<g id="node5" class="node">
<title>UserUc</title>
<ellipse fill="#fdb462" stroke="black" cx="79" cy="-104" rx="40.55" ry="18"/>
<text text-anchor="middle" x="79" y="-99.8" font-family="Times,serif" font-size="14.00">UserUc</text>
</g>
<!-- UserUc&#45;&gt;UserApiModule -->
<g id="edge4" class="edge">
<title>UserUc&#45;&gt;UserApiModule</title>
<path fill="none" stroke="black" d="M79,-122.11C79,-141.34 79,-169 79,-169 79,-169 175.28,-169 175.28,-169"/>
<polygon fill="black" stroke="black" points="175.28,-172.5 185.28,-169 175.28,-165.5 175.28,-172.5"/>
</g>
</g>
</svg>
