<?xml version="1.0" encoding="UTF-8" standalone="no"?>
<!DOCTYPE svg PUBLIC "-//W3C//DTD SVG 1.1//EN"
 "http://www.w3.org/Graphics/SVG/1.1/DTD/svg11.dtd">
<!-- Generated by graphviz version 2.47.0 (20210316.0004)
 -->
<!-- Title: dependencies Pages: 1 -->
<svg width="504pt" height="211pt"
 viewBox="0.00 0.00 504.00 211.00" xmlns="http://www.w3.org/2000/svg" xmlns:xlink="http://www.w3.org/1999/xlink">
<g id="graph0" class="graph" transform="scale(1 1) rotate(0) translate(4 207)">
<title>dependencies</title>
<polygon fill="white" stroke="transparent" points="-4,4 -4,-207 500,-207 500,4 -4,4"/>
<text text-anchor="start" x="227.01" y="-42.4" font-family="Times-12" font-weight="bold" font-size="14.00">Legend</text>
<polygon fill="#ffffb3" stroke="transparent" points="14,-10 14,-30 34,-30 34,-10 14,-10"/>
<text text-anchor="start" x="37.63" y="-15.4" font-family="Times-12" font-size="14.00"> &#160;Declarations</text>
<polygon fill="#8dd3c7" stroke="transparent" points="127,-10 127,-30 147,-30 147,-10 127,-10"/>
<text text-anchor="start" x="150.73" y="-15.4" font-family="Times-12" font-size="14.00"> &#160;Module</text>
<polygon fill="#80b1d3" stroke="transparent" points="213,-10 213,-30 233,-30 233,-10 213,-10"/>
<text text-anchor="start" x="236.78" y="-15.4" font-family="Times-12" font-size="14.00"> &#160;Bootstrap</text>
<polygon fill="#fdb462" stroke="transparent" points="310,-10 310,-30 330,-30 330,-10 310,-10"/>
<text text-anchor="start" x="333.67" y="-15.4" font-family="Times-12" font-size="14.00"> &#160;Providers</text>
<polygon fill="#fb8072" stroke="transparent" points="406,-10 406,-30 426,-30 426,-10 406,-10"/>
<text text-anchor="start" x="429.73" y="-15.4" font-family="Times-12" font-size="14.00"> &#160;Exports</text>
<g id="clust1" class="cluster">
<title>cluster_UserApiModule</title>
<polygon fill="none" stroke="black" stroke-dasharray="1,5" points="136,-70 136,-195 360,-195 360,-70 136,-70"/>
</g>
<g id="clust3" class="cluster">
<title>cluster_UserApiModule_imports</title>
<polygon fill="none" stroke="black" points="250,-78 250,-130 352,-130 352,-78 250,-78"/>
</g>
<g id="clust6" class="cluster">
<title>cluster_UserApiModule_providers</title>
<polygon fill="none" stroke="black" points="144,-78 144,-130 242,-130 242,-78 144,-78"/>
</g>
<!-- UserModule -->
<g id="node1" class="node">
<title>UserModule</title>
<polygon fill="#8dd3c7" stroke="black" points="343.98,-122 340.98,-126 319.98,-126 316.98,-122 258.02,-122 258.02,-86 343.98,-86 343.98,-122"/>
<text text-anchor="middle" x="301" y="-99.8" font-family="Times,serif" font-size="14.00">UserModule</text>
</g>
<!-- UserApiModule -->
<g id="node2" class="node">
<title>UserApiModule</title>
<polygon fill="#8dd3c7" stroke="black" points="301.47,-187 298.47,-191 277.47,-191 274.47,-187 194.53,-187 194.53,-151 301.47,-151 301.47,-187"/>
<text text-anchor="middle" x="248" y="-164.8" font-family="Times,serif" font-size="14.00">UserApiModule</text>
</g>
<!-- UserModule&#45;&gt;UserApiModule -->
<g id="edge1" class="edge">
<title>UserModule&#45;&gt;UserApiModule</title>
<path fill="none" stroke="black" d="M279.75,-122.11C279.75,-122.11 279.75,-140.99 279.75,-140.99"/>
<polygon fill="black" stroke="black" points="276.25,-140.99 279.75,-150.99 283.25,-140.99 276.25,-140.99"/>
</g>
<!-- UserUc -->
<g id="node3" class="node">
<title>UserUc</title>
<ellipse fill="#fdb462" stroke="black" cx="193" cy="-104" rx="40.55" ry="18"/>
<text text-anchor="middle" x="193" y="-99.8" font-family="Times,serif" font-size="14.00">UserUc</text>
</g>
<!-- UserUc&#45;&gt;UserApiModule -->
<g id="edge2" class="edge">
<title>UserUc&#45;&gt;UserApiModule</title>
<path fill="none" stroke="black" d="M214.02,-119.4C214.02,-119.4 214.02,-140.94 214.02,-140.94"/>
<polygon fill="black" stroke="black" points="210.52,-140.94 214.02,-150.94 217.52,-140.94 210.52,-140.94"/>
</g>
</g>
</svg>
