<?xml version="1.0" encoding="UTF-8" standalone="no"?>
<!DOCTYPE svg PUBLIC "-//W3C//DTD SVG 1.1//EN"
 "http://www.w3.org/Graphics/SVG/1.1/DTD/svg11.dtd">
<!-- Generated by graphviz version 2.47.0 (20210316.0004)
 -->
<!-- Title: dependencies Pages: 1 -->
<svg width="657pt" height="211pt"
 viewBox="0.00 0.00 657.00 211.00" xmlns="http://www.w3.org/2000/svg" xmlns:xlink="http://www.w3.org/1999/xlink">
<g id="graph0" class="graph" transform="scale(1 1) rotate(0) translate(4 207)">
<title>dependencies</title>
<polygon fill="white" stroke="transparent" points="-4,4 -4,-207 653,-207 653,4 -4,4"/>
<text text-anchor="start" x="303.51" y="-42.4" font-family="Times-12" font-weight="bold" font-size="14.00">Legend</text>
<polygon fill="#ffffb3" stroke="transparent" points="90.5,-10 90.5,-30 110.5,-30 110.5,-10 90.5,-10"/>
<text text-anchor="start" x="114.13" y="-15.4" font-family="Times-12" font-size="14.00"> &#160;Declarations</text>
<polygon fill="#8dd3c7" stroke="transparent" points="203.5,-10 203.5,-30 223.5,-30 223.5,-10 203.5,-10"/>
<text text-anchor="start" x="227.23" y="-15.4" font-family="Times-12" font-size="14.00"> &#160;Module</text>
<polygon fill="#80b1d3" stroke="transparent" points="289.5,-10 289.5,-30 309.5,-30 309.5,-10 289.5,-10"/>
<text text-anchor="start" x="313.28" y="-15.4" font-family="Times-12" font-size="14.00"> &#160;Bootstrap</text>
<polygon fill="#fdb462" stroke="transparent" points="386.5,-10 386.5,-30 406.5,-30 406.5,-10 386.5,-10"/>
<text text-anchor="start" x="410.17" y="-15.4" font-family="Times-12" font-size="14.00"> &#160;Providers</text>
<polygon fill="#fb8072" stroke="transparent" points="482.5,-10 482.5,-30 502.5,-30 502.5,-10 482.5,-10"/>
<text text-anchor="start" x="506.23" y="-15.4" font-family="Times-12" font-size="14.00"> &#160;Exports</text>
<g id="clust1" class="cluster">
<title>cluster_UserApiModule</title>
<polygon fill="none" stroke="black" stroke-dasharray="1,5" points="8,-70 8,-195 641,-195 641,-70 8,-70"/>
</g>
<g id="clust6" class="cluster">
<title>cluster_UserApiModule_providers</title>
<polygon fill="none" stroke="black" points="354,-78 354,-130 633,-130 633,-78 354,-78"/>
</g>
<g id="clust3" class="cluster">
<title>cluster_UserApiModule_imports</title>
<polygon fill="none" stroke="black" points="16,-78 16,-130 346,-130 346,-78 16,-78"/>
</g>
<!-- AccountModule -->
<g id="node1" class="node">
<title>AccountModule</title>
<polygon fill="#8dd3c7" stroke="black" points="338.48,-122 335.48,-126 314.48,-126 311.48,-122 231.52,-122 231.52,-86 338.48,-86 338.48,-122"/>
<text text-anchor="middle" x="285" y="-99.8" font-family="Times,serif" font-size="14.00">AccountModule</text>
</g>
<!-- UserApiModule -->
<g id="node4" class="node">
<title>UserApiModule</title>
<polygon fill="#8dd3c7" stroke="black" points="338.47,-187 335.47,-191 314.47,-191 311.47,-187 231.53,-187 231.53,-151 338.47,-151 338.47,-187"/>
<text text-anchor="middle" x="285" y="-164.8" font-family="Times,serif" font-size="14.00">UserApiModule</text>
</g>
<!-- AccountModule&#45;&gt;UserApiModule -->
<g id="edge1" class="edge">
<title>AccountModule&#45;&gt;UserApiModule</title>
<path fill="none" stroke="black" d="M285,-122.11C285,-122.11 285,-140.99 285,-140.99"/>
<polygon fill="black" stroke="black" points="281.5,-140.99 285,-150.99 288.5,-140.99 281.5,-140.99"/>
</g>
<!-- RoleModule -->
<g id="node2" class="node">
<title>RoleModule</title>
<polygon fill="#8dd3c7" stroke="black" points="213.99,-122 210.99,-126 189.99,-126 186.99,-122 128.01,-122 128.01,-86 213.99,-86 213.99,-122"/>
<text text-anchor="middle" x="171" y="-99.8" font-family="Times,serif" font-size="14.00">RoleModule</text>
</g>
<!-- RoleModule&#45;&gt;UserApiModule -->
<g id="edge2" class="edge">
<title>RoleModule&#45;&gt;UserApiModule</title>
<path fill="none" stroke="black" d="M171,-122.02C171,-139.37 171,-163 171,-163 171,-163 221.34,-163 221.34,-163"/>
<polygon fill="black" stroke="black" points="221.34,-166.5 231.34,-163 221.34,-159.5 221.34,-166.5"/>
</g>
<!-- UserModule -->
<g id="node3" class="node">
<title>UserModule</title>
<polygon fill="#8dd3c7" stroke="black" points="109.98,-122 106.98,-126 85.98,-126 82.98,-122 24.02,-122 24.02,-86 109.98,-86 109.98,-122"/>
<text text-anchor="middle" x="67" y="-99.8" font-family="Times,serif" font-size="14.00">UserModule</text>
</g>
<!-- UserModule&#45;&gt;UserApiModule -->
<g id="edge3" class="edge">
<title>UserModule&#45;&gt;UserApiModule</title>
<path fill="none" stroke="black" d="M67,-122.28C67,-143.32 67,-175 67,-175 67,-175 221.39,-175 221.39,-175"/>
<polygon fill="black" stroke="black" points="221.39,-178.5 231.39,-175 221.39,-171.5 221.39,-178.5"/>
</g>
<!-- AdminApiUserUc -->
<g id="node5" class="node">
<title>AdminApiUserUc</title>
<ellipse fill="#fdb462" stroke="black" cx="543" cy="-104" rx="81.66" ry="18"/>
<text text-anchor="middle" x="543" y="-99.8" font-family="Times,serif" font-size="14.00">AdminApiUserUc</text>
</g>
<!-- AdminApiUserUc&#45;&gt;UserApiModule -->
<g id="edge4" class="edge">
<title>AdminApiUserUc&#45;&gt;UserApiModule</title>
<path fill="none" stroke="black" d="M543,-122.28C543,-143.32 543,-175 543,-175 543,-175 348.77,-175 348.77,-175"/>
<polygon fill="black" stroke="black" points="348.77,-171.5 338.77,-175 348.77,-178.5 348.77,-171.5"/>
</g>
<!-- UserUc -->
<g id="node6" class="node">
<title>UserUc</title>
<ellipse fill="#fdb462" stroke="black" cx="403" cy="-104" rx="40.55" ry="18"/>
<text text-anchor="middle" x="403" y="-99.8" font-family="Times,serif" font-size="14.00">UserUc</text>
</g>
<!-- UserUc&#45;&gt;UserApiModule -->
<g id="edge5" class="edge">
<title>UserUc&#45;&gt;UserApiModule</title>
<path fill="none" stroke="black" d="M403,-122.02C403,-139.37 403,-163 403,-163 403,-163 348.48,-163 348.48,-163"/>
<polygon fill="black" stroke="black" points="348.48,-159.5 338.48,-163 348.48,-166.5 348.48,-159.5"/>
</g>
</g>
</svg>
