<?xml version="1.0" encoding="UTF-8" standalone="no"?>
<!DOCTYPE svg PUBLIC "-//W3C//DTD SVG 1.1//EN"
 "http://www.w3.org/Graphics/SVG/1.1/DTD/svg11.dtd">
<!-- Generated by graphviz version 5.0.0 (20220707.1540)
 -->
<!-- Title: dependencies Pages: 1 -->
<svg width="431pt" height="174pt"
 viewBox="0.00 0.00 431.00 173.80" xmlns="http://www.w3.org/2000/svg" xmlns:xlink="http://www.w3.org/1999/xlink">
<g id="graph0" class="graph" transform="scale(1 1) rotate(0) translate(4 169.8)">
<title>dependencies</title>
<polygon fill="white" stroke="transparent" points="-4,4 -4,-169.8 427,-169.8 427,4 -4,4"/>
<text text-anchor="middle" x="211.5" y="-8.2" font-family="sans-serif" font-size="14.00">dependencies</text>
<g id="clust1" class="cluster">
<title>cluster_UserApiModule</title>
<polygon fill="none" stroke="black" stroke-dasharray="1,5" points="8,-32.8 8,-157.8 415,-157.8 415,-32.8 8,-32.8"/>
</g>
<g id="clust3" class="cluster">
<title>cluster_UserApiModule_imports</title>
<polygon fill="none" stroke="black" points="305,-40.8 305,-92.8 407,-92.8 407,-40.8 305,-40.8"/>
</g>
<g id="clust6" class="cluster">
<title>cluster_UserApiModule_providers</title>
<polygon fill="none" stroke="black" points="16,-40.8 16,-92.8 297,-92.8 297,-40.8 16,-40.8"/>
</g>
<!-- UserModule -->
<g id="node1" class="node">
<title>UserModule</title>
<polygon fill="#8dd3c7" stroke="black" points="398.99,-84.8 395.99,-88.8 374.99,-88.8 371.99,-84.8 313.01,-84.8 313.01,-48.8 398.99,-48.8 398.99,-84.8"/>
<text text-anchor="middle" x="356" y="-62.6" font-family="Times,serif" font-size="14.00">UserModule</text>
</g>
<!-- UserApiModule -->
<g id="node2" class="node">
<title>UserApiModule</title>
<polygon fill="#8dd3c7" stroke="black" points="259.49,-149.8 256.49,-153.8 235.49,-153.8 232.49,-149.8 152.51,-149.8 152.51,-113.8 259.49,-113.8 259.49,-149.8"/>
<text text-anchor="middle" x="206" y="-127.6" font-family="Times,serif" font-size="14.00">UserApiModule</text>
</g>
<!-- UserModule&#45;&gt;UserApiModule -->
<g id="edge1" class="edge">
<title>UserModule&#45;&gt;UserApiModule</title>
<path fill="none" stroke="black" d="M356,-84.91C356,-104.14 356,-131.8 356,-131.8 356,-131.8 269.73,-131.8 269.73,-131.8"/>
<polygon fill="black" stroke="black" points="269.73,-128.3 259.73,-131.8 269.73,-135.3 269.73,-128.3"/>
</g>
<!-- PermissionService -->
<g id="node3" class="node">
<title>PermissionService</title>
<ellipse fill="#fdb462" stroke="black" cx="206" cy="-66.8" rx="82.83" ry="18"/>
<text text-anchor="middle" x="206" y="-62.6" font-family="Times,serif" font-size="14.00">PermissionService</text>
</g>
<!-- PermissionService&#45;&gt;UserApiModule -->
<g id="edge2" class="edge">
<title>PermissionService&#45;&gt;UserApiModule</title>
<path fill="none" stroke="black" d="M206,-84.91C206,-84.91 206,-103.79 206,-103.79"/>
<polygon fill="black" stroke="black" points="202.5,-103.79 206,-113.79 209.5,-103.79 202.5,-103.79"/>
</g>
<!-- UserUc -->
<g id="node4" class="node">
<title>UserUc</title>
<ellipse fill="#fdb462" stroke="black" cx="65" cy="-66.8" rx="40.56" ry="18"/>
<text text-anchor="middle" x="65" y="-62.6" font-family="Times,serif" font-size="14.00">UserUc</text>
</g>
<!-- UserUc&#45;&gt;UserApiModule -->
<g id="edge3" class="edge">
<title>UserUc&#45;&gt;UserApiModule</title>
<path fill="none" stroke="black" d="M65,-84.91C65,-104.14 65,-131.8 65,-131.8 65,-131.8 142.29,-131.8 142.29,-131.8"/>
<polygon fill="black" stroke="black" points="142.29,-135.3 152.29,-131.8 142.29,-128.3 142.29,-135.3"/>
</g>
</g>
</svg>
