<?xml version="1.0" encoding="UTF-8" standalone="no"?>
<!DOCTYPE svg PUBLIC "-//W3C//DTD SVG 1.1//EN"
 "http://www.w3.org/Graphics/SVG/1.1/DTD/svg11.dtd">
<!-- Generated by graphviz version 5.0.0 (20220707.1540)
 -->
<!-- Title: dependencies Pages: 1 -->
<svg width="248pt" height="174pt"
 viewBox="0.00 0.00 248.00 173.80" xmlns="http://www.w3.org/2000/svg" xmlns:xlink="http://www.w3.org/1999/xlink">
<g id="graph0" class="graph" transform="scale(1 1) rotate(0) translate(4 169.8)">
<title>dependencies</title>
<polygon fill="white" stroke="transparent" points="-4,4 -4,-169.8 244,-169.8 244,4 -4,4"/>
<text text-anchor="middle" x="120" y="-8.2" font-family="sans-serif" font-size="14.00">dependencies</text>
<g id="clust1" class="cluster">
<title>cluster_UserApiModule</title>
<polygon fill="none" stroke="black" stroke-dasharray="1,5" points="8,-32.8 8,-157.8 232,-157.8 232,-32.8 8,-32.8"/>
</g>
<g id="clust6" class="cluster">
<title>cluster_UserApiModule_providers</title>
<polygon fill="none" stroke="black" points="126,-40.8 126,-92.8 224,-92.8 224,-40.8 126,-40.8"/>
</g>
<g id="clust3" class="cluster">
<title>cluster_UserApiModule_imports</title>
<polygon fill="none" stroke="black" points="16,-40.8 16,-92.8 118,-92.8 118,-40.8 16,-40.8"/>
</g>
<!-- UserModule -->
<g id="node1" class="node">
<title>UserModule</title>
<polygon fill="#8dd3c7" stroke="black" points="109.99,-84.8 106.99,-88.8 85.99,-88.8 82.99,-84.8 24.01,-84.8 24.01,-48.8 109.99,-48.8 109.99,-84.8"/>
<text text-anchor="middle" x="67" y="-62.6" font-family="Times,serif" font-size="14.00">UserModule</text>
</g>
<!-- UserApiModule -->
<g id="node2" class="node">
<title>UserApiModule</title>
<polygon fill="#8dd3c7" stroke="black" points="173.49,-149.8 170.49,-153.8 149.49,-153.8 146.49,-149.8 66.51,-149.8 66.51,-113.8 173.49,-113.8 173.49,-149.8"/>
<text text-anchor="middle" x="120" y="-127.6" font-family="Times,serif" font-size="14.00">UserApiModule</text>
</g>
<!-- UserModule&#45;&gt;UserApiModule -->
<g id="edge1" class="edge">
<title>UserModule&#45;&gt;UserApiModule</title>
<path fill="none" stroke="black" d="M88.25,-84.91C88.25,-84.91 88.25,-103.79 88.25,-103.79"/>
<polygon fill="black" stroke="black" points="84.75,-103.79 88.25,-113.79 91.75,-103.79 84.75,-103.79"/>
</g>
<!-- UserUc -->
<g id="node3" class="node">
<title>UserUc</title>
<ellipse fill="#fdb462" stroke="black" cx="175" cy="-66.8" rx="40.56" ry="18"/>
<text text-anchor="middle" x="175" y="-62.6" font-family="Times,serif" font-size="14.00">UserUc</text>
</g>
<!-- UserUc&#45;&gt;UserApiModule -->
<g id="edge2" class="edge">
<title>UserUc&#45;&gt;UserApiModule</title>
<path fill="none" stroke="black" d="M153.98,-82.2C153.98,-82.2 153.98,-103.74 153.98,-103.74"/>
<polygon fill="black" stroke="black" points="150.48,-103.74 153.98,-113.74 157.48,-103.74 150.48,-103.74"/>
</g>
</g>
</svg>
