<?xml version="1.0" encoding="UTF-8" standalone="no"?>
<!DOCTYPE svg PUBLIC "-//W3C//DTD SVG 1.1//EN"
 "http://www.w3.org/Graphics/SVG/1.1/DTD/svg11.dtd">
<!-- Generated by graphviz version 2.47.0 (20210316.0004)
 -->
<!-- Title: dependencies Pages: 1 -->
<svg width="657pt" height="211pt"
 viewBox="0.00 0.00 657.00 211.00" xmlns="http://www.w3.org/2000/svg" xmlns:xlink="http://www.w3.org/1999/xlink">
<g id="graph0" class="graph" transform="scale(1 1) rotate(0) translate(4 207)">
<title>dependencies</title>
<polygon fill="white" stroke="transparent" points="-4,4 -4,-207 653,-207 653,4 -4,4"/>
<text text-anchor="start" x="303.51" y="-42.4" font-family="Times-12" font-weight="bold" font-size="14.00">Legend</text>
<polygon fill="#ffffb3" stroke="transparent" points="90.5,-10 90.5,-30 110.5,-30 110.5,-10 90.5,-10"/>
<text text-anchor="start" x="114.13" y="-15.4" font-family="Times-12" font-size="14.00"> &#160;Declarations</text>
<polygon fill="#8dd3c7" stroke="transparent" points="203.5,-10 203.5,-30 223.5,-30 223.5,-10 203.5,-10"/>
<text text-anchor="start" x="227.23" y="-15.4" font-family="Times-12" font-size="14.00"> &#160;Module</text>
<polygon fill="#80b1d3" stroke="transparent" points="289.5,-10 289.5,-30 309.5,-30 309.5,-10 289.5,-10"/>
<text text-anchor="start" x="313.28" y="-15.4" font-family="Times-12" font-size="14.00"> &#160;Bootstrap</text>
<polygon fill="#fdb462" stroke="transparent" points="386.5,-10 386.5,-30 406.5,-30 406.5,-10 386.5,-10"/>
<text text-anchor="start" x="410.17" y="-15.4" font-family="Times-12" font-size="14.00"> &#160;Providers</text>
<polygon fill="#fb8072" stroke="transparent" points="482.5,-10 482.5,-30 502.5,-30 502.5,-10 482.5,-10"/>
<text text-anchor="start" x="506.23" y="-15.4" font-family="Times-12" font-size="14.00"> &#160;Exports</text>
<g id="clust1" class="cluster">
<title>cluster_UserApiModule</title>
<polygon fill="none" stroke="black" stroke-dasharray="1,5" points="8,-70 8,-195 641,-195 641,-70 8,-70"/>
</g>
<g id="clust3" class="cluster">
<title>cluster_UserApiModule_imports</title>
<polygon fill="none" stroke="black" points="303,-78 303,-130 633,-130 633,-78 303,-78"/>
</g>
<g id="clust6" class="cluster">
<title>cluster_UserApiModule_providers</title>
<polygon fill="none" stroke="black" points="16,-78 16,-130 295,-130 295,-78 16,-78"/>
</g>
<!-- AccountModule -->
<g id="node1" class="node">
<title>AccountModule</title>
<polygon fill="#8dd3c7" stroke="black" points="625.48,-122 622.48,-126 601.48,-126 598.48,-122 518.52,-122 518.52,-86 625.48,-86 625.48,-122"/>
<text text-anchor="middle" x="572" y="-99.8" font-family="Times,serif" font-size="14.00">AccountModule</text>
</g>
<!-- UserApiModule -->
<g id="node4" class="node">
<title>UserApiModule</title>
<polygon fill="#8dd3c7" stroke="black" points="407.47,-187 404.47,-191 383.47,-191 380.47,-187 300.53,-187 300.53,-151 407.47,-151 407.47,-187"/>
<text text-anchor="middle" x="354" y="-164.8" font-family="Times,serif" font-size="14.00">UserApiModule</text>
</g>
<!-- AccountModule&#45;&gt;UserApiModule -->
<g id="edge1" class="edge">
<title>AccountModule&#45;&gt;UserApiModule</title>
<path fill="none" stroke="black" d="M572,-122.11C572,-141.34 572,-169 572,-169 572,-169 417.61,-169 417.61,-169"/>
<polygon fill="black" stroke="black" points="417.61,-165.5 407.61,-169 417.61,-172.5 417.61,-165.5"/>
</g>
<!-- RoleModule -->
<g id="node2" class="node">
<title>RoleModule</title>
<polygon fill="#8dd3c7" stroke="black" points="500.99,-122 497.99,-126 476.99,-126 473.99,-122 415.01,-122 415.01,-86 500.99,-86 500.99,-122"/>
<text text-anchor="middle" x="458" y="-99.8" font-family="Times,serif" font-size="14.00">RoleModule</text>
</g>
<!-- RoleModule&#45;&gt;UserApiModule -->
<g id="edge2" class="edge">
<title>RoleModule&#45;&gt;UserApiModule</title>
<path fill="none" stroke="black" d="M414.89,-104C407.55,-104 402.24,-104 402.24,-104 402.24,-104 402.24,-140.89 402.24,-140.89"/>
<polygon fill="black" stroke="black" points="398.74,-140.89 402.24,-150.89 405.74,-140.89 398.74,-140.89"/>
</g>
<!-- UserModule -->
<g id="node3" class="node">
<title>UserModule</title>
<polygon fill="#8dd3c7" stroke="black" points="396.98,-122 393.98,-126 372.98,-126 369.98,-122 311.02,-122 311.02,-86 396.98,-86 396.98,-122"/>
<text text-anchor="middle" x="354" y="-99.8" font-family="Times,serif" font-size="14.00">UserModule</text>
</g>
<!-- UserModule&#45;&gt;UserApiModule -->
<g id="edge3" class="edge">
<title>UserModule&#45;&gt;UserApiModule</title>
<path fill="none" stroke="black" d="M354,-122.11C354,-122.11 354,-140.99 354,-140.99"/>
<polygon fill="black" stroke="black" points="350.5,-140.99 354,-150.99 357.5,-140.99 350.5,-140.99"/>
</g>
<!-- AdminApiUserUc -->
<g id="node5" class="node">
<title>AdminApiUserUc</title>
<ellipse fill="#fdb462" stroke="black" cx="205" cy="-104" rx="81.66" ry="18"/>
<text text-anchor="middle" x="205" y="-99.8" font-family="Times,serif" font-size="14.00">AdminApiUserUc</text>
</g>
<!-- AdminApiUserUc&#45;&gt;UserApiModule -->
<g id="edge4" class="edge">
<title>AdminApiUserUc&#45;&gt;UserApiModule</title>
<path fill="none" stroke="black" d="M287.28,-104C298.23,-104 305.76,-104 305.76,-104 305.76,-104 305.76,-140.89 305.76,-140.89"/>
<polygon fill="black" stroke="black" points="302.26,-140.89 305.76,-150.89 309.26,-140.89 302.26,-140.89"/>
</g>
<!-- UserUc -->
<g id="node6" class="node">
<title>UserUc</title>
<ellipse fill="#fdb462" stroke="black" cx="65" cy="-104" rx="40.55" ry="18"/>
<text text-anchor="middle" x="65" y="-99.8" font-family="Times,serif" font-size="14.00">UserUc</text>
</g>
<!-- UserUc&#45;&gt;UserApiModule -->
<g id="edge5" class="edge">
<title>UserUc&#45;&gt;UserApiModule</title>
<path fill="none" stroke="black" d="M65,-122.11C65,-141.34 65,-169 65,-169 65,-169 290.32,-169 290.32,-169"/>
<polygon fill="black" stroke="black" points="290.32,-172.5 300.32,-169 290.32,-165.5 290.32,-172.5"/>
</g>
</g>
</svg>
