<?xml version="1.0" encoding="UTF-8" standalone="no"?>
<!DOCTYPE svg PUBLIC "-//W3C//DTD SVG 1.1//EN"
 "http://www.w3.org/Graphics/SVG/1.1/DTD/svg11.dtd">
<!-- Generated by graphviz version 2.47.0 (20210316.0004)
 -->
<!-- Title: dependencies Pages: 1 -->
<svg width="1547pt" height="211pt"
 viewBox="0.00 0.00 1547.00 211.00" xmlns="http://www.w3.org/2000/svg" xmlns:xlink="http://www.w3.org/1999/xlink">
<g id="graph0" class="graph" transform="scale(1 1) rotate(0) translate(4 207)">
<title>dependencies</title>
<polygon fill="white" stroke="transparent" points="-4,4 -4,-207 1543,-207 1543,4 -4,4"/>
<text text-anchor="start" x="748.51" y="-42.4" font-family="Times-12" font-weight="bold" font-size="14.00">Legend</text>
<polygon fill="#ffffb3" stroke="transparent" points="535.5,-10 535.5,-30 555.5,-30 555.5,-10 535.5,-10"/>
<text text-anchor="start" x="559.13" y="-15.4" font-family="Times-12" font-size="14.00"> &#160;Declarations</text>
<polygon fill="#8dd3c7" stroke="transparent" points="648.5,-10 648.5,-30 668.5,-30 668.5,-10 648.5,-10"/>
<text text-anchor="start" x="672.23" y="-15.4" font-family="Times-12" font-size="14.00"> &#160;Module</text>
<polygon fill="#80b1d3" stroke="transparent" points="734.5,-10 734.5,-30 754.5,-30 754.5,-10 734.5,-10"/>
<text text-anchor="start" x="758.28" y="-15.4" font-family="Times-12" font-size="14.00"> &#160;Bootstrap</text>
<polygon fill="#fdb462" stroke="transparent" points="831.5,-10 831.5,-30 851.5,-30 851.5,-10 831.5,-10"/>
<text text-anchor="start" x="855.17" y="-15.4" font-family="Times-12" font-size="14.00"> &#160;Providers</text>
<polygon fill="#fb8072" stroke="transparent" points="927.5,-10 927.5,-30 947.5,-30 947.5,-10 927.5,-10"/>
<text text-anchor="start" x="951.23" y="-15.4" font-family="Times-12" font-size="14.00"> &#160;Exports</text>
<g id="clust1" class="cluster">
<title>cluster_GroupApiModule</title>
<polygon fill="none" stroke="black" stroke-dasharray="1,5" points="8,-70 8,-195 1531,-195 1531,-70 8,-70"/>
</g>
<g id="clust3" class="cluster">
<title>cluster_GroupApiModule_imports</title>
<polygon fill="none" stroke="black" points="288,-78 288,-130 1523,-130 1523,-78 288,-78"/>
</g>
<g id="clust6" class="cluster">
<title>cluster_GroupApiModule_providers</title>
<polygon fill="none" stroke="black" points="16,-78 16,-130 280,-130 280,-78 16,-78"/>
</g>
<!-- AuthorizationModule -->
<g id="node1" class="node">
<title>AuthorizationModule</title>
<polygon fill="#8dd3c7" stroke="black" points="1514.81,-122 1511.81,-126 1490.81,-126 1487.81,-122 1377.19,-122 1377.19,-86 1514.81,-86 1514.81,-122"/>
<text text-anchor="middle" x="1446" y="-99.8" font-family="Times,serif" font-size="14.00">AuthorizationModule</text>
</g>
<!-- GroupApiModule -->
<g id="node11" class="node">
<title>GroupApiModule</title>
<polygon fill="#8dd3c7" stroke="black" points="791.31,-187 788.31,-191 767.31,-191 764.31,-187 674.69,-187 674.69,-151 791.31,-151 791.31,-187"/>
<text text-anchor="middle" x="733" y="-164.8" font-family="Times,serif" font-size="14.00">GroupApiModule</text>
</g>
<!-- AuthorizationModule&#45;&gt;GroupApiModule -->
<g id="edge1" class="edge">
<title>AuthorizationModule&#45;&gt;GroupApiModule</title>
<path fill="none" stroke="black" d="M1446,-122.09C1446,-145.13 1446,-182 1446,-182 1446,-182 801.35,-182 801.35,-182"/>
<polygon fill="black" stroke="black" points="801.35,-178.5 791.35,-182 801.35,-185.5 801.35,-178.5"/>
</g>
<!-- ClassModule -->
<g id="node2" class="node">
<title>ClassModule</title>
<polygon fill="#8dd3c7" stroke="black" points="1358.88,-122 1355.88,-126 1334.88,-126 1331.88,-122 1269.12,-122 1269.12,-86 1358.88,-86 1358.88,-122"/>
<text text-anchor="middle" x="1314" y="-99.8" font-family="Times,serif" font-size="14.00">ClassModule</text>
</g>
<!-- ClassModule&#45;&gt;GroupApiModule -->
<g id="edge2" class="edge">
<title>ClassModule&#45;&gt;GroupApiModule</title>
<path fill="none" stroke="black" d="M1314,-122.28C1314,-143.32 1314,-175 1314,-175 1314,-175 801.37,-175 801.37,-175"/>
<polygon fill="black" stroke="black" points="801.37,-171.5 791.37,-175 801.37,-178.5 801.37,-171.5"/>
</g>
<!-- GroupModule -->
<g id="node3" class="node">
<title>GroupModule</title>
<polygon fill="#8dd3c7" stroke="black" points="1250.82,-122 1247.82,-126 1226.82,-126 1223.82,-122 1155.18,-122 1155.18,-86 1250.82,-86 1250.82,-122"/>
<text text-anchor="middle" x="1203" y="-99.8" font-family="Times,serif" font-size="14.00">GroupModule</text>
</g>
<!-- GroupModule&#45;&gt;GroupApiModule -->
<g id="edge3" class="edge">
<title>GroupModule&#45;&gt;GroupApiModule</title>
<path fill="none" stroke="black" d="M1203,-122.11C1203,-141.34 1203,-169 1203,-169 1203,-169 801.58,-169 801.58,-169"/>
<polygon fill="black" stroke="black" points="801.58,-165.5 791.58,-169 801.58,-172.5 801.58,-165.5"/>
</g>
<!-- LearnroomModule -->
<g id="node4" class="node">
<title>LearnroomModule</title>
<polygon fill="#8dd3c7" stroke="black" points="1136.74,-122 1133.74,-126 1112.74,-126 1109.74,-122 1015.26,-122 1015.26,-86 1136.74,-86 1136.74,-122"/>
<text text-anchor="middle" x="1076" y="-99.8" font-family="Times,serif" font-size="14.00">LearnroomModule</text>
</g>
<!-- LearnroomModule&#45;&gt;GroupApiModule -->
<g id="edge4" class="edge">
<title>LearnroomModule&#45;&gt;GroupApiModule</title>
<path fill="none" stroke="black" d="M1076,-122.02C1076,-139.37 1076,-163 1076,-163 1076,-163 801.19,-163 801.19,-163"/>
<polygon fill="black" stroke="black" points="801.19,-159.5 791.19,-163 801.19,-166.5 801.19,-159.5"/>
</g>
<!-- LegacySchoolModule -->
<g id="node5" class="node">
<title>LegacySchoolModule</title>
<polygon fill="#8dd3c7" stroke="black" points="996.63,-122 993.63,-126 972.63,-126 969.63,-122 857.37,-122 857.37,-86 996.63,-86 996.63,-122"/>
<text text-anchor="middle" x="927" y="-99.8" font-family="Times,serif" font-size="14.00">LegacySchoolModule</text>
</g>
<!-- LegacySchoolModule&#45;&gt;GroupApiModule -->
<g id="edge5" class="edge">
<title>LegacySchoolModule&#45;&gt;GroupApiModule</title>
<path fill="none" stroke="black" d="M927,-122.24C927,-137.57 927,-157 927,-157 927,-157 801.21,-157 801.21,-157"/>
<polygon fill="black" stroke="black" points="801.21,-153.5 791.21,-157 801.21,-160.5 801.21,-153.5"/>
</g>
<!-- LoggerModule -->
<g id="node6" class="node">
<title>LoggerModule</title>
<polygon fill="#8dd3c7" stroke="black" points="838.98,-122 835.98,-126 814.98,-126 811.98,-122 739.02,-122 739.02,-86 838.98,-86 838.98,-122"/>
<text text-anchor="middle" x="789" y="-99.8" font-family="Times,serif" font-size="14.00">LoggerModule</text>
</g>
<!-- LoggerModule&#45;&gt;GroupApiModule -->
<g id="edge6" class="edge">
<title>LoggerModule&#45;&gt;GroupApiModule</title>
<path fill="none" stroke="black" d="M765.08,-122.11C765.08,-122.11 765.08,-140.99 765.08,-140.99"/>
<polygon fill="black" stroke="black" points="761.58,-140.99 765.08,-150.99 768.58,-140.99 761.58,-140.99"/>
</g>
<!-- RoleModule -->
<g id="node7" class="node">
<title>RoleModule</title>
<polygon fill="#8dd3c7" stroke="black" points="720.99,-122 717.99,-126 696.99,-126 693.99,-122 635.01,-122 635.01,-86 720.99,-86 720.99,-122"/>
<text text-anchor="middle" x="678" y="-99.8" font-family="Times,serif" font-size="14.00">RoleModule</text>
</g>
<!-- RoleModule&#45;&gt;GroupApiModule -->
<g id="edge7" class="edge">
<title>RoleModule&#45;&gt;GroupApiModule</title>
<path fill="none" stroke="black" d="M697.92,-122.11C697.92,-122.11 697.92,-140.99 697.92,-140.99"/>
<polygon fill="black" stroke="black" points="694.42,-140.99 697.92,-150.99 701.42,-140.99 694.42,-140.99"/>
</g>
<!-- SchoolModule -->
<g id="node8" class="node">
<title>SchoolModule</title>
<polygon fill="#8dd3c7" stroke="black" points="617.44,-122 614.44,-126 593.44,-126 590.44,-122 518.56,-122 518.56,-86 617.44,-86 617.44,-122"/>
<text text-anchor="middle" x="568" y="-99.8" font-family="Times,serif" font-size="14.00">SchoolModule</text>
</g>
<!-- SchoolModule&#45;&gt;GroupApiModule -->
<g id="edge8" class="edge">
<title>SchoolModule&#45;&gt;GroupApiModule</title>
<path fill="none" stroke="black" d="M568,-122.24C568,-137.57 568,-157 568,-157 568,-157 664.83,-157 664.83,-157"/>
<polygon fill="black" stroke="black" points="664.83,-160.5 674.83,-157 664.83,-153.5 664.83,-160.5"/>
</g>
<!-- SystemModule -->
<g id="node9" class="node">
<title>SystemModule</title>
<polygon fill="#8dd3c7" stroke="black" points="500.27,-122 497.27,-126 476.27,-126 473.27,-122 399.73,-122 399.73,-86 500.27,-86 500.27,-122"/>
<text text-anchor="middle" x="450" y="-99.8" font-family="Times,serif" font-size="14.00">SystemModule</text>
</g>
<!-- SystemModule&#45;&gt;GroupApiModule -->
<g id="edge9" class="edge">
<title>SystemModule&#45;&gt;GroupApiModule</title>
<path fill="none" stroke="black" d="M450,-122.02C450,-139.37 450,-163 450,-163 450,-163 664.71,-163 664.71,-163"/>
<polygon fill="black" stroke="black" points="664.71,-166.5 674.71,-163 664.71,-159.5 664.71,-166.5"/>
</g>
<!-- UserModule -->
<g id="node10" class="node">
<title>UserModule</title>
<polygon fill="#8dd3c7" stroke="black" points="381.98,-122 378.98,-126 357.98,-126 354.98,-122 296.02,-122 296.02,-86 381.98,-86 381.98,-122"/>
<text text-anchor="middle" x="339" y="-99.8" font-family="Times,serif" font-size="14.00">UserModule</text>
</g>
<!-- UserModule&#45;&gt;GroupApiModule -->
<g id="edge10" class="edge">
<title>UserModule&#45;&gt;GroupApiModule</title>
<path fill="none" stroke="black" d="M339,-122.11C339,-141.34 339,-169 339,-169 339,-169 664.44,-169 664.44,-169"/>
<polygon fill="black" stroke="black" points="664.44,-172.5 674.44,-169 664.44,-165.5 664.44,-172.5"/>
</g>
<!-- ClassGroupUc -->
<g id="node12" class="node">
<title>ClassGroupUc</title>
<ellipse fill="#fdb462" stroke="black" cx="204" cy="-104" rx="67.78" ry="18"/>
<text text-anchor="middle" x="204" y="-99.8" font-family="Times,serif" font-size="14.00">ClassGroupUc</text>
</g>
<!-- ClassGroupUc&#45;&gt;GroupApiModule -->
<g id="edge11" class="edge">
<title>ClassGroupUc&#45;&gt;GroupApiModule</title>
<path fill="none" stroke="black" d="M204,-122.28C204,-143.32 204,-175 204,-175 204,-175 664.62,-175 664.62,-175"/>
<polygon fill="black" stroke="black" points="664.62,-178.5 674.62,-175 664.62,-171.5 664.62,-178.5"/>
</g>
<!-- GroupUc -->
<g id="node13" class="node">
<title>GroupUc</title>
<ellipse fill="#fdb462" stroke="black" cx="71" cy="-104" rx="46.93" ry="18"/>
<text text-anchor="middle" x="71" y="-99.8" font-family="Times,serif" font-size="14.00">GroupUc</text>
</g>
<!-- GroupUc&#45;&gt;GroupApiModule -->
<g id="edge12" class="edge">
<title>GroupUc&#45;&gt;GroupApiModule</title>
<path fill="none" stroke="black" d="M71,-122.09C71,-145.13 71,-182 71,-182 71,-182 664.83,-182 664.83,-182"/>
<polygon fill="black" stroke="black" points="664.83,-185.5 674.83,-182 664.83,-178.5 664.83,-185.5"/>
</g>
</g>
</svg>
