<?xml version="1.0" encoding="UTF-8" standalone="no"?>
<!DOCTYPE svg PUBLIC "-//W3C//DTD SVG 1.1//EN"
 "http://www.w3.org/Graphics/SVG/1.1/DTD/svg11.dtd">
<!-- Generated by graphviz version 2.47.0 (20210316.0004)
 -->
<!-- Title: dependencies Pages: 1 -->
<svg width="1135pt" height="211pt"
 viewBox="0.00 0.00 1135.00 211.00" xmlns="http://www.w3.org/2000/svg" xmlns:xlink="http://www.w3.org/1999/xlink">
<g id="graph0" class="graph" transform="scale(1 1) rotate(0) translate(4 207)">
<title>dependencies</title>
<polygon fill="white" stroke="transparent" points="-4,4 -4,-207 1131,-207 1131,4 -4,4"/>
<text text-anchor="start" x="542.51" y="-42.4" font-family="Times-12" font-weight="bold" font-size="14.00">Legend</text>
<polygon fill="#ffffb3" stroke="transparent" points="329.5,-10 329.5,-30 349.5,-30 349.5,-10 329.5,-10"/>
<text text-anchor="start" x="353.13" y="-15.4" font-family="Times-12" font-size="14.00"> &#160;Declarations</text>
<polygon fill="#8dd3c7" stroke="transparent" points="442.5,-10 442.5,-30 462.5,-30 462.5,-10 442.5,-10"/>
<text text-anchor="start" x="466.23" y="-15.4" font-family="Times-12" font-size="14.00"> &#160;Module</text>
<polygon fill="#80b1d3" stroke="transparent" points="528.5,-10 528.5,-30 548.5,-30 548.5,-10 528.5,-10"/>
<text text-anchor="start" x="552.28" y="-15.4" font-family="Times-12" font-size="14.00"> &#160;Bootstrap</text>
<polygon fill="#fdb462" stroke="transparent" points="625.5,-10 625.5,-30 645.5,-30 645.5,-10 625.5,-10"/>
<text text-anchor="start" x="649.17" y="-15.4" font-family="Times-12" font-size="14.00"> &#160;Providers</text>
<polygon fill="#fb8072" stroke="transparent" points="721.5,-10 721.5,-30 741.5,-30 741.5,-10 721.5,-10"/>
<text text-anchor="start" x="745.23" y="-15.4" font-family="Times-12" font-size="14.00"> &#160;Exports</text>
<g id="clust1" class="cluster">
<title>cluster_GroupApiModule</title>
<polygon fill="none" stroke="black" stroke-dasharray="1,5" points="8,-70 8,-195 1119,-195 1119,-70 8,-70"/>
</g>
<g id="clust3" class="cluster">
<title>cluster_GroupApiModule_imports</title>
<polygon fill="none" stroke="black" points="134,-78 134,-130 1111,-130 1111,-78 134,-78"/>
</g>
<g id="clust6" class="cluster">
<title>cluster_GroupApiModule_providers</title>
<polygon fill="none" stroke="black" points="16,-78 16,-130 126,-130 126,-78 16,-78"/>
</g>
<!-- AuthorizationModule -->
<g id="node1" class="node">
<title>AuthorizationModule</title>
<polygon fill="#8dd3c7" stroke="black" points="1102.81,-122 1099.81,-126 1078.81,-126 1075.81,-122 965.19,-122 965.19,-86 1102.81,-86 1102.81,-122"/>
<text text-anchor="middle" x="1034" y="-99.8" font-family="Times,serif" font-size="14.00">AuthorizationModule</text>
</g>
<!-- GroupApiModule -->
<g id="node9" class="node">
<title>GroupApiModule</title>
<polygon fill="#8dd3c7" stroke="black" points="576.31,-187 573.31,-191 552.31,-191 549.31,-187 459.69,-187 459.69,-151 576.31,-151 576.31,-187"/>
<text text-anchor="middle" x="518" y="-164.8" font-family="Times,serif" font-size="14.00">GroupApiModule</text>
</g>
<!-- AuthorizationModule&#45;&gt;GroupApiModule -->
<g id="edge1" class="edge">
<title>AuthorizationModule&#45;&gt;GroupApiModule</title>
<path fill="none" stroke="black" d="M1034,-122.29C1034,-144.21 1034,-178 1034,-178 1034,-178 586.19,-178 586.19,-178"/>
<polygon fill="black" stroke="black" points="586.19,-174.5 576.19,-178 586.19,-181.5 586.19,-174.5"/>
</g>
<!-- ClassModule -->
<g id="node2" class="node">
<title>ClassModule</title>
<polygon fill="#8dd3c7" stroke="black" points="946.88,-122 943.88,-126 922.88,-126 919.88,-122 857.12,-122 857.12,-86 946.88,-86 946.88,-122"/>
<text text-anchor="middle" x="902" y="-99.8" font-family="Times,serif" font-size="14.00">ClassModule</text>
</g>
<!-- ClassModule&#45;&gt;GroupApiModule -->
<g id="edge2" class="edge">
<title>ClassModule&#45;&gt;GroupApiModule</title>
<path fill="none" stroke="black" d="M902,-122.11C902,-141.34 902,-169 902,-169 902,-169 586.32,-169 586.32,-169"/>
<polygon fill="black" stroke="black" points="586.32,-165.5 576.32,-169 586.32,-172.5 586.32,-165.5"/>
</g>
<!-- GroupModule -->
<g id="node3" class="node">
<title>GroupModule</title>
<polygon fill="#8dd3c7" stroke="black" points="838.82,-122 835.82,-126 814.82,-126 811.82,-122 743.18,-122 743.18,-86 838.82,-86 838.82,-122"/>
<text text-anchor="middle" x="791" y="-99.8" font-family="Times,serif" font-size="14.00">GroupModule</text>
</g>
<!-- GroupModule&#45;&gt;GroupApiModule -->
<g id="edge3" class="edge">
<title>GroupModule&#45;&gt;GroupApiModule</title>
<path fill="none" stroke="black" d="M791,-122.03C791,-138.4 791,-160 791,-160 791,-160 586.23,-160 586.23,-160"/>
<polygon fill="black" stroke="black" points="586.23,-156.5 576.23,-160 586.23,-163.5 586.23,-156.5"/>
</g>
<!-- LegacySchoolModule -->
<g id="node4" class="node">
<title>LegacySchoolModule</title>
<polygon fill="#8dd3c7" stroke="black" points="725.63,-122 722.63,-126 701.63,-126 698.63,-122 586.37,-122 586.37,-86 725.63,-86 725.63,-122"/>
<text text-anchor="middle" x="656" y="-99.8" font-family="Times,serif" font-size="14.00">LegacySchoolModule</text>
</g>
<!-- LegacySchoolModule&#45;&gt;GroupApiModule -->
<g id="edge4" class="edge">
<title>LegacySchoolModule&#45;&gt;GroupApiModule</title>
<path fill="none" stroke="black" d="M586.31,-104C577.82,-104 572.07,-104 572.07,-104 572.07,-104 572.07,-140.89 572.07,-140.89"/>
<polygon fill="black" stroke="black" points="568.57,-140.89 572.07,-150.89 575.57,-140.89 568.57,-140.89"/>
</g>
<!-- LoggerModule -->
<g id="node5" class="node">
<title>LoggerModule</title>
<polygon fill="#8dd3c7" stroke="black" points="567.98,-122 564.98,-126 543.98,-126 540.98,-122 468.02,-122 468.02,-86 567.98,-86 567.98,-122"/>
<text text-anchor="middle" x="518" y="-99.8" font-family="Times,serif" font-size="14.00">LoggerModule</text>
</g>
<!-- LoggerModule&#45;&gt;GroupApiModule -->
<g id="edge5" class="edge">
<title>LoggerModule&#45;&gt;GroupApiModule</title>
<path fill="none" stroke="black" d="M518,-122.11C518,-122.11 518,-140.99 518,-140.99"/>
<polygon fill="black" stroke="black" points="514.5,-140.99 518,-150.99 521.5,-140.99 514.5,-140.99"/>
</g>
<!-- RoleModule -->
<g id="node6" class="node">
<title>RoleModule</title>
<polygon fill="#8dd3c7" stroke="black" points="449.99,-122 446.99,-126 425.99,-126 422.99,-122 364.01,-122 364.01,-86 449.99,-86 449.99,-122"/>
<text text-anchor="middle" x="407" y="-99.8" font-family="Times,serif" font-size="14.00">RoleModule</text>
</g>
<!-- RoleModule&#45;&gt;GroupApiModule -->
<g id="edge6" class="edge">
<title>RoleModule&#45;&gt;GroupApiModule</title>
<path fill="none" stroke="black" d="M450.15,-104C458.09,-104 463.93,-104 463.93,-104 463.93,-104 463.93,-140.89 463.93,-140.89"/>
<polygon fill="black" stroke="black" points="460.43,-140.89 463.93,-150.89 467.43,-140.89 460.43,-140.89"/>
</g>
<!-- SystemModule -->
<g id="node7" class="node">
<title>SystemModule</title>
<polygon fill="#8dd3c7" stroke="black" points="346.27,-122 343.27,-126 322.27,-126 319.27,-122 245.73,-122 245.73,-86 346.27,-86 346.27,-122"/>
<text text-anchor="middle" x="296" y="-99.8" font-family="Times,serif" font-size="14.00">SystemModule</text>
</g>
<!-- SystemModule&#45;&gt;GroupApiModule -->
<g id="edge7" class="edge">
<title>SystemModule&#45;&gt;GroupApiModule</title>
<path fill="none" stroke="black" d="M296,-122.03C296,-138.4 296,-160 296,-160 296,-160 449.67,-160 449.67,-160"/>
<polygon fill="black" stroke="black" points="449.67,-163.5 459.67,-160 449.67,-156.5 449.67,-163.5"/>
</g>
<!-- UserModule -->
<g id="node8" class="node">
<title>UserModule</title>
<polygon fill="#8dd3c7" stroke="black" points="227.98,-122 224.98,-126 203.98,-126 200.98,-122 142.02,-122 142.02,-86 227.98,-86 227.98,-122"/>
<text text-anchor="middle" x="185" y="-99.8" font-family="Times,serif" font-size="14.00">UserModule</text>
</g>
<!-- UserModule&#45;&gt;GroupApiModule -->
<g id="edge8" class="edge">
<title>UserModule&#45;&gt;GroupApiModule</title>
<path fill="none" stroke="black" d="M185,-122.11C185,-141.34 185,-169 185,-169 185,-169 449.61,-169 449.61,-169"/>
<polygon fill="black" stroke="black" points="449.61,-172.5 459.61,-169 449.61,-165.5 449.61,-172.5"/>
</g>
<!-- GroupUc -->
<g id="node10" class="node">
<title>GroupUc</title>
<ellipse fill="#fdb462" stroke="black" cx="71" cy="-104" rx="46.93" ry="18"/>
<text text-anchor="middle" x="71" y="-99.8" font-family="Times,serif" font-size="14.00">GroupUc</text>
</g>
<!-- GroupUc&#45;&gt;GroupApiModule -->
<g id="edge9" class="edge">
<title>GroupUc&#45;&gt;GroupApiModule</title>
<path fill="none" stroke="black" d="M71,-122.29C71,-144.21 71,-178 71,-178 71,-178 449.56,-178 449.56,-178"/>
<polygon fill="black" stroke="black" points="449.56,-181.5 459.56,-178 449.56,-174.5 449.56,-181.5"/>
</g>
</g>
</svg>
