<?xml version="1.0" encoding="UTF-8" standalone="no"?>
<!DOCTYPE svg PUBLIC "-//W3C//DTD SVG 1.1//EN"
 "http://www.w3.org/Graphics/SVG/1.1/DTD/svg11.dtd">
<!-- Generated by graphviz version 2.47.0 (20210316.0004)
 -->
<!-- Title: dependencies Pages: 1 -->
<svg width="1017pt" height="211pt"
 viewBox="0.00 0.00 1017.00 211.00" xmlns="http://www.w3.org/2000/svg" xmlns:xlink="http://www.w3.org/1999/xlink">
<g id="graph0" class="graph" transform="scale(1 1) rotate(0) translate(4 207)">
<title>dependencies</title>
<polygon fill="white" stroke="transparent" points="-4,4 -4,-207 1013,-207 1013,4 -4,4"/>
<text text-anchor="start" x="483.51" y="-42.4" font-family="Times-12" font-weight="bold" font-size="14.00">Legend</text>
<polygon fill="#ffffb3" stroke="transparent" points="270.5,-10 270.5,-30 290.5,-30 290.5,-10 270.5,-10"/>
<text text-anchor="start" x="294.13" y="-15.4" font-family="Times-12" font-size="14.00"> &#160;Declarations</text>
<polygon fill="#8dd3c7" stroke="transparent" points="383.5,-10 383.5,-30 403.5,-30 403.5,-10 383.5,-10"/>
<text text-anchor="start" x="407.23" y="-15.4" font-family="Times-12" font-size="14.00"> &#160;Module</text>
<polygon fill="#80b1d3" stroke="transparent" points="469.5,-10 469.5,-30 489.5,-30 489.5,-10 469.5,-10"/>
<text text-anchor="start" x="493.28" y="-15.4" font-family="Times-12" font-size="14.00"> &#160;Bootstrap</text>
<polygon fill="#fdb462" stroke="transparent" points="566.5,-10 566.5,-30 586.5,-30 586.5,-10 566.5,-10"/>
<text text-anchor="start" x="590.17" y="-15.4" font-family="Times-12" font-size="14.00"> &#160;Providers</text>
<polygon fill="#fb8072" stroke="transparent" points="662.5,-10 662.5,-30 682.5,-30 682.5,-10 662.5,-10"/>
<text text-anchor="start" x="686.23" y="-15.4" font-family="Times-12" font-size="14.00"> &#160;Exports</text>
<g id="clust1" class="cluster">
<title>cluster_GroupApiModule</title>
<polygon fill="none" stroke="black" stroke-dasharray="1,5" points="8,-70 8,-195 1001,-195 1001,-70 8,-70"/>
</g>
<g id="clust3" class="cluster">
<title>cluster_GroupApiModule_imports</title>
<polygon fill="none" stroke="black" points="134,-78 134,-130 993,-130 993,-78 134,-78"/>
</g>
<g id="clust6" class="cluster">
<title>cluster_GroupApiModule_providers</title>
<polygon fill="none" stroke="black" points="16,-78 16,-130 126,-130 126,-78 16,-78"/>
</g>
<!-- AuthorizationModule -->
<g id="node1" class="node">
<title>AuthorizationModule</title>
<polygon fill="#8dd3c7" stroke="black" points="984.81,-122 981.81,-126 960.81,-126 957.81,-122 847.19,-122 847.19,-86 984.81,-86 984.81,-122"/>
<text text-anchor="middle" x="916" y="-99.8" font-family="Times,serif" font-size="14.00">AuthorizationModule</text>
</g>
<!-- GroupApiModule -->
<g id="node8" class="node">
<title>GroupApiModule</title>
<polygon fill="#8dd3c7" stroke="black" points="530.31,-187 527.31,-191 506.31,-191 503.31,-187 413.69,-187 413.69,-151 530.31,-151 530.31,-187"/>
<text text-anchor="middle" x="472" y="-164.8" font-family="Times,serif" font-size="14.00">GroupApiModule</text>
</g>
<!-- AuthorizationModule&#45;&gt;GroupApiModule -->
<g id="edge1" class="edge">
<title>AuthorizationModule&#45;&gt;GroupApiModule</title>
<path fill="none" stroke="black" d="M916,-122.29C916,-144.21 916,-178 916,-178 916,-178 540.5,-178 540.5,-178"/>
<polygon fill="black" stroke="black" points="540.5,-174.5 530.5,-178 540.5,-181.5 540.5,-174.5"/>
</g>
<!-- ClassModule -->
<g id="node2" class="node">
<title>ClassModule</title>
<polygon fill="#8dd3c7" stroke="black" points="828.88,-122 825.88,-126 804.88,-126 801.88,-122 739.12,-122 739.12,-86 828.88,-86 828.88,-122"/>
<text text-anchor="middle" x="784" y="-99.8" font-family="Times,serif" font-size="14.00">ClassModule</text>
</g>
<!-- ClassModule&#45;&gt;GroupApiModule -->
<g id="edge2" class="edge">
<title>ClassModule&#45;&gt;GroupApiModule</title>
<path fill="none" stroke="black" d="M784,-122.11C784,-141.34 784,-169 784,-169 784,-169 540.32,-169 540.32,-169"/>
<polygon fill="black" stroke="black" points="540.32,-165.5 530.32,-169 540.32,-172.5 540.32,-165.5"/>
</g>
<!-- GroupModule -->
<g id="node3" class="node">
<title>GroupModule</title>
<polygon fill="#8dd3c7" stroke="black" points="720.82,-122 717.82,-126 696.82,-126 693.82,-122 625.18,-122 625.18,-86 720.82,-86 720.82,-122"/>
<text text-anchor="middle" x="673" y="-99.8" font-family="Times,serif" font-size="14.00">GroupModule</text>
</g>
<!-- GroupModule&#45;&gt;GroupApiModule -->
<g id="edge3" class="edge">
<title>GroupModule&#45;&gt;GroupApiModule</title>
<path fill="none" stroke="black" d="M673,-122.03C673,-138.4 673,-160 673,-160 673,-160 540.41,-160 540.41,-160"/>
<polygon fill="black" stroke="black" points="540.41,-156.5 530.41,-160 540.41,-163.5 540.41,-156.5"/>
</g>
<!-- LegacySchoolModule -->
<g id="node4" class="node">
<title>LegacySchoolModule</title>
<polygon fill="#8dd3c7" stroke="black" points="607.63,-122 604.63,-126 583.63,-126 580.63,-122 468.37,-122 468.37,-86 607.63,-86 607.63,-122"/>
<text text-anchor="middle" x="538" y="-99.8" font-family="Times,serif" font-size="14.00">LegacySchoolModule</text>
</g>
<!-- LegacySchoolModule&#45;&gt;GroupApiModule -->
<g id="edge4" class="edge">
<title>LegacySchoolModule&#45;&gt;GroupApiModule</title>
<path fill="none" stroke="black" d="M499.17,-122.11C499.17,-122.11 499.17,-140.99 499.17,-140.99"/>
<polygon fill="black" stroke="black" points="495.67,-140.99 499.17,-150.99 502.67,-140.99 495.67,-140.99"/>
</g>
<!-- RoleModule -->
<g id="node5" class="node">
<title>RoleModule</title>
<polygon fill="#8dd3c7" stroke="black" points="449.99,-122 446.99,-126 425.99,-126 422.99,-122 364.01,-122 364.01,-86 449.99,-86 449.99,-122"/>
<text text-anchor="middle" x="407" y="-99.8" font-family="Times,serif" font-size="14.00">RoleModule</text>
</g>
<!-- RoleModule&#45;&gt;GroupApiModule -->
<g id="edge5" class="edge">
<title>RoleModule&#45;&gt;GroupApiModule</title>
<path fill="none" stroke="black" d="M431.92,-122.11C431.92,-122.11 431.92,-140.99 431.92,-140.99"/>
<polygon fill="black" stroke="black" points="428.42,-140.99 431.92,-150.99 435.42,-140.99 428.42,-140.99"/>
</g>
<!-- SystemModule -->
<g id="node6" class="node">
<title>SystemModule</title>
<polygon fill="#8dd3c7" stroke="black" points="346.27,-122 343.27,-126 322.27,-126 319.27,-122 245.73,-122 245.73,-86 346.27,-86 346.27,-122"/>
<text text-anchor="middle" x="296" y="-99.8" font-family="Times,serif" font-size="14.00">SystemModule</text>
</g>
<!-- SystemModule&#45;&gt;GroupApiModule -->
<g id="edge6" class="edge">
<title>SystemModule&#45;&gt;GroupApiModule</title>
<path fill="none" stroke="black" d="M296,-122.03C296,-138.4 296,-160 296,-160 296,-160 403.39,-160 403.39,-160"/>
<polygon fill="black" stroke="black" points="403.39,-163.5 413.39,-160 403.39,-156.5 403.39,-163.5"/>
</g>
<!-- UserModule -->
<g id="node7" class="node">
<title>UserModule</title>
<polygon fill="#8dd3c7" stroke="black" points="227.98,-122 224.98,-126 203.98,-126 200.98,-122 142.02,-122 142.02,-86 227.98,-86 227.98,-122"/>
<text text-anchor="middle" x="185" y="-99.8" font-family="Times,serif" font-size="14.00">UserModule</text>
</g>
<!-- UserModule&#45;&gt;GroupApiModule -->
<g id="edge7" class="edge">
<title>UserModule&#45;&gt;GroupApiModule</title>
<path fill="none" stroke="black" d="M185,-122.11C185,-141.34 185,-169 185,-169 185,-169 403.58,-169 403.58,-169"/>
<polygon fill="black" stroke="black" points="403.58,-172.5 413.58,-169 403.58,-165.5 403.58,-172.5"/>
</g>
<!-- GroupUc -->
<g id="node9" class="node">
<title>GroupUc</title>
<ellipse fill="#fdb462" stroke="black" cx="71" cy="-104" rx="46.93" ry="18"/>
<text text-anchor="middle" x="71" y="-99.8" font-family="Times,serif" font-size="14.00">GroupUc</text>
</g>
<!-- GroupUc&#45;&gt;GroupApiModule -->
<g id="edge8" class="edge">
<title>GroupUc&#45;&gt;GroupApiModule</title>
<path fill="none" stroke="black" d="M71,-122.29C71,-144.21 71,-178 71,-178 71,-178 403.69,-178 403.69,-178"/>
<polygon fill="black" stroke="black" points="403.69,-181.5 413.69,-178 403.69,-174.5 403.69,-181.5"/>
</g>
</g>
</svg>
