<?xml version="1.0" encoding="UTF-8" standalone="no"?>
<!DOCTYPE svg PUBLIC "-//W3C//DTD SVG 1.1//EN"
 "http://www.w3.org/Graphics/SVG/1.1/DTD/svg11.dtd">
<!-- Generated by graphviz version 2.47.0 (20210316.0004)
 -->
<!-- Title: dependencies Pages: 1 -->
<svg width="1393pt" height="211pt"
 viewBox="0.00 0.00 1393.00 211.00" xmlns="http://www.w3.org/2000/svg" xmlns:xlink="http://www.w3.org/1999/xlink">
<g id="graph0" class="graph" transform="scale(1 1) rotate(0) translate(4 207)">
<title>dependencies</title>
<polygon fill="white" stroke="transparent" points="-4,4 -4,-207 1389,-207 1389,4 -4,4"/>
<text text-anchor="start" x="671.51" y="-42.4" font-family="Times-12" font-weight="bold" font-size="14.00">Legend</text>
<polygon fill="#ffffb3" stroke="transparent" points="458.5,-10 458.5,-30 478.5,-30 478.5,-10 458.5,-10"/>
<text text-anchor="start" x="482.13" y="-15.4" font-family="Times-12" font-size="14.00"> &#160;Declarations</text>
<polygon fill="#8dd3c7" stroke="transparent" points="571.5,-10 571.5,-30 591.5,-30 591.5,-10 571.5,-10"/>
<text text-anchor="start" x="595.23" y="-15.4" font-family="Times-12" font-size="14.00"> &#160;Module</text>
<polygon fill="#80b1d3" stroke="transparent" points="657.5,-10 657.5,-30 677.5,-30 677.5,-10 657.5,-10"/>
<text text-anchor="start" x="681.28" y="-15.4" font-family="Times-12" font-size="14.00"> &#160;Bootstrap</text>
<polygon fill="#fdb462" stroke="transparent" points="754.5,-10 754.5,-30 774.5,-30 774.5,-10 754.5,-10"/>
<text text-anchor="start" x="778.17" y="-15.4" font-family="Times-12" font-size="14.00"> &#160;Providers</text>
<polygon fill="#fb8072" stroke="transparent" points="850.5,-10 850.5,-30 870.5,-30 870.5,-10 850.5,-10"/>
<text text-anchor="start" x="874.23" y="-15.4" font-family="Times-12" font-size="14.00"> &#160;Exports</text>
<g id="clust1" class="cluster">
<title>cluster_GroupApiModule</title>
<polygon fill="none" stroke="black" stroke-dasharray="1,5" points="8,-70 8,-195 1377,-195 1377,-70 8,-70"/>
</g>
<g id="clust3" class="cluster">
<title>cluster_GroupApiModule_imports</title>
<polygon fill="none" stroke="black" points="134,-78 134,-130 1369,-130 1369,-78 134,-78"/>
</g>
<g id="clust6" class="cluster">
<title>cluster_GroupApiModule_providers</title>
<polygon fill="none" stroke="black" points="16,-78 16,-130 126,-130 126,-78 16,-78"/>
</g>
<!-- AuthorizationModule -->
<g id="node1" class="node">
<title>AuthorizationModule</title>
<polygon fill="#8dd3c7" stroke="black" points="1360.81,-122 1357.81,-126 1336.81,-126 1333.81,-122 1223.19,-122 1223.19,-86 1360.81,-86 1360.81,-122"/>
<text text-anchor="middle" x="1292" y="-99.8" font-family="Times,serif" font-size="14.00">AuthorizationModule</text>
</g>
<!-- GroupApiModule -->
<g id="node11" class="node">
<title>GroupApiModule</title>
<polygon fill="#8dd3c7" stroke="black" points="693.31,-187 690.31,-191 669.31,-191 666.31,-187 576.69,-187 576.69,-151 693.31,-151 693.31,-187"/>
<text text-anchor="middle" x="635" y="-164.8" font-family="Times,serif" font-size="14.00">GroupApiModule</text>
</g>
<!-- AuthorizationModule&#45;&gt;GroupApiModule -->
<g id="edge1" class="edge">
<title>AuthorizationModule&#45;&gt;GroupApiModule</title>
<path fill="none" stroke="black" d="M1292,-122.01C1292,-144.49 1292,-180 1292,-180 1292,-180 703.3,-180 703.3,-180"/>
<polygon fill="black" stroke="black" points="703.3,-176.5 693.3,-180 703.3,-183.5 703.3,-176.5"/>
</g>
<!-- ClassModule -->
<g id="node2" class="node">
<title>ClassModule</title>
<polygon fill="#8dd3c7" stroke="black" points="1204.88,-122 1201.88,-126 1180.88,-126 1177.88,-122 1115.12,-122 1115.12,-86 1204.88,-86 1204.88,-122"/>
<text text-anchor="middle" x="1160" y="-99.8" font-family="Times,serif" font-size="14.00">ClassModule</text>
</g>
<!-- ClassModule&#45;&gt;GroupApiModule -->
<g id="edge2" class="edge">
<title>ClassModule&#45;&gt;GroupApiModule</title>
<path fill="none" stroke="black" d="M1160,-122.13C1160,-142.57 1160,-173 1160,-173 1160,-173 703.19,-173 703.19,-173"/>
<polygon fill="black" stroke="black" points="703.19,-169.5 693.19,-173 703.19,-176.5 703.19,-169.5"/>
</g>
<!-- GroupModule -->
<g id="node3" class="node">
<title>GroupModule</title>
<polygon fill="#8dd3c7" stroke="black" points="1096.82,-122 1093.82,-126 1072.82,-126 1069.82,-122 1001.18,-122 1001.18,-86 1096.82,-86 1096.82,-122"/>
<text text-anchor="middle" x="1049" y="-99.8" font-family="Times,serif" font-size="14.00">GroupModule</text>
</g>
<!-- GroupModule&#45;&gt;GroupApiModule -->
<g id="edge3" class="edge">
<title>GroupModule&#45;&gt;GroupApiModule</title>
<path fill="none" stroke="black" d="M1049,-122.27C1049,-140.56 1049,-166 1049,-166 1049,-166 703.44,-166 703.44,-166"/>
<polygon fill="black" stroke="black" points="703.44,-162.5 693.44,-166 703.44,-169.5 703.44,-162.5"/>
</g>
<!-- LearnroomModule -->
<g id="node4" class="node">
<title>LearnroomModule</title>
<polygon fill="#8dd3c7" stroke="black" points="982.74,-122 979.74,-126 958.74,-126 955.74,-122 861.26,-122 861.26,-86 982.74,-86 982.74,-122"/>
<text text-anchor="middle" x="922" y="-99.8" font-family="Times,serif" font-size="14.00">LearnroomModule</text>
</g>
<!-- LearnroomModule&#45;&gt;GroupApiModule -->
<g id="edge4" class="edge">
<title>LearnroomModule&#45;&gt;GroupApiModule</title>
<path fill="none" stroke="black" d="M922,-122.01C922,-138.05 922,-159 922,-159 922,-159 703.42,-159 703.42,-159"/>
<polygon fill="black" stroke="black" points="703.42,-155.5 693.42,-159 703.42,-162.5 703.42,-155.5"/>
</g>
<!-- LegacySchoolModule -->
<g id="node5" class="node">
<title>LegacySchoolModule</title>
<polygon fill="#8dd3c7" stroke="black" points="842.63,-122 839.63,-126 818.63,-126 815.63,-122 703.37,-122 703.37,-86 842.63,-86 842.63,-122"/>
<text text-anchor="middle" x="773" y="-99.8" font-family="Times,serif" font-size="14.00">LegacySchoolModule</text>
</g>
<!-- LegacySchoolModule&#45;&gt;GroupApiModule -->
<g id="edge5" class="edge">
<title>LegacySchoolModule&#45;&gt;GroupApiModule</title>
<path fill="none" stroke="black" d="M703.31,-104C694.82,-104 689.07,-104 689.07,-104 689.07,-104 689.07,-140.89 689.07,-140.89"/>
<polygon fill="black" stroke="black" points="685.57,-140.89 689.07,-150.89 692.57,-140.89 685.57,-140.89"/>
</g>
<!-- LoggerModule -->
<g id="node6" class="node">
<title>LoggerModule</title>
<polygon fill="#8dd3c7" stroke="black" points="684.98,-122 681.98,-126 660.98,-126 657.98,-122 585.02,-122 585.02,-86 684.98,-86 684.98,-122"/>
<text text-anchor="middle" x="635" y="-99.8" font-family="Times,serif" font-size="14.00">LoggerModule</text>
</g>
<!-- LoggerModule&#45;&gt;GroupApiModule -->
<g id="edge6" class="edge">
<title>LoggerModule&#45;&gt;GroupApiModule</title>
<path fill="none" stroke="black" d="M635,-122.11C635,-122.11 635,-140.99 635,-140.99"/>
<polygon fill="black" stroke="black" points="631.5,-140.99 635,-150.99 638.5,-140.99 631.5,-140.99"/>
</g>
<!-- RoleModule -->
<g id="node7" class="node">
<title>RoleModule</title>
<polygon fill="#8dd3c7" stroke="black" points="566.99,-122 563.99,-126 542.99,-126 539.99,-122 481.01,-122 481.01,-86 566.99,-86 566.99,-122"/>
<text text-anchor="middle" x="524" y="-99.8" font-family="Times,serif" font-size="14.00">RoleModule</text>
</g>
<!-- RoleModule&#45;&gt;GroupApiModule -->
<g id="edge7" class="edge">
<title>RoleModule&#45;&gt;GroupApiModule</title>
<path fill="none" stroke="black" d="M567.15,-104C575.09,-104 580.93,-104 580.93,-104 580.93,-104 580.93,-140.89 580.93,-140.89"/>
<polygon fill="black" stroke="black" points="577.43,-140.89 580.93,-150.89 584.43,-140.89 577.43,-140.89"/>
</g>
<!-- SchoolModule -->
<g id="node8" class="node">
<title>SchoolModule</title>
<polygon fill="#8dd3c7" stroke="black" points="463.44,-122 460.44,-126 439.44,-126 436.44,-122 364.56,-122 364.56,-86 463.44,-86 463.44,-122"/>
<text text-anchor="middle" x="414" y="-99.8" font-family="Times,serif" font-size="14.00">SchoolModule</text>
</g>
<!-- SchoolModule&#45;&gt;GroupApiModule -->
<g id="edge8" class="edge">
<title>SchoolModule&#45;&gt;GroupApiModule</title>
<path fill="none" stroke="black" d="M414,-122.01C414,-138.05 414,-159 414,-159 414,-159 566.65,-159 566.65,-159"/>
<polygon fill="black" stroke="black" points="566.65,-162.5 576.65,-159 566.65,-155.5 566.65,-162.5"/>
</g>
<!-- SystemModule -->
<g id="node9" class="node">
<title>SystemModule</title>
<polygon fill="#8dd3c7" stroke="black" points="346.27,-122 343.27,-126 322.27,-126 319.27,-122 245.73,-122 245.73,-86 346.27,-86 346.27,-122"/>
<text text-anchor="middle" x="296" y="-99.8" font-family="Times,serif" font-size="14.00">SystemModule</text>
</g>
<!-- SystemModule&#45;&gt;GroupApiModule -->
<g id="edge9" class="edge">
<title>SystemModule&#45;&gt;GroupApiModule</title>
<path fill="none" stroke="black" d="M296,-122.27C296,-140.56 296,-166 296,-166 296,-166 566.72,-166 566.72,-166"/>
<polygon fill="black" stroke="black" points="566.72,-169.5 576.72,-166 566.72,-162.5 566.72,-169.5"/>
</g>
<!-- UserModule -->
<g id="node10" class="node">
<title>UserModule</title>
<polygon fill="#8dd3c7" stroke="black" points="227.98,-122 224.98,-126 203.98,-126 200.98,-122 142.02,-122 142.02,-86 227.98,-86 227.98,-122"/>
<text text-anchor="middle" x="185" y="-99.8" font-family="Times,serif" font-size="14.00">UserModule</text>
</g>
<!-- UserModule&#45;&gt;GroupApiModule -->
<g id="edge10" class="edge">
<title>UserModule&#45;&gt;GroupApiModule</title>
<path fill="none" stroke="black" d="M185,-122.13C185,-142.57 185,-173 185,-173 185,-173 566.63,-173 566.63,-173"/>
<polygon fill="black" stroke="black" points="566.63,-176.5 576.63,-173 566.63,-169.5 566.63,-176.5"/>
</g>
<!-- GroupUc -->
<g id="node12" class="node">
<title>GroupUc</title>
<ellipse fill="#fdb462" stroke="black" cx="71" cy="-104" rx="46.93" ry="18"/>
<text text-anchor="middle" x="71" y="-99.8" font-family="Times,serif" font-size="14.00">GroupUc</text>
</g>
<!-- GroupUc&#45;&gt;GroupApiModule -->
<g id="edge11" class="edge">
<title>GroupUc&#45;&gt;GroupApiModule</title>
<path fill="none" stroke="black" d="M71,-122.01C71,-144.49 71,-180 71,-180 71,-180 566.77,-180 566.77,-180"/>
<polygon fill="black" stroke="black" points="566.77,-183.5 576.77,-180 566.77,-176.5 566.77,-183.5"/>
</g>
</g>
</svg>
