<?xml version="1.0" encoding="UTF-8" standalone="no"?>
<!DOCTYPE svg PUBLIC "-//W3C//DTD SVG 1.1//EN"
 "http://www.w3.org/Graphics/SVG/1.1/DTD/svg11.dtd">
<!-- Generated by graphviz version 2.47.0 (20210316.0004)
 -->
<!-- Title: dependencies Pages: 1 -->
<svg width="1135pt" height="211pt"
 viewBox="0.00 0.00 1135.00 211.00" xmlns="http://www.w3.org/2000/svg" xmlns:xlink="http://www.w3.org/1999/xlink">
<g id="graph0" class="graph" transform="scale(1 1) rotate(0) translate(4 207)">
<title>dependencies</title>
<polygon fill="white" stroke="transparent" points="-4,4 -4,-207 1131,-207 1131,4 -4,4"/>
<text text-anchor="start" x="542.51" y="-42.4" font-family="Times-12" font-weight="bold" font-size="14.00">Legend</text>
<polygon fill="#ffffb3" stroke="transparent" points="329.5,-10 329.5,-30 349.5,-30 349.5,-10 329.5,-10"/>
<text text-anchor="start" x="353.13" y="-15.4" font-family="Times-12" font-size="14.00"> &#160;Declarations</text>
<polygon fill="#8dd3c7" stroke="transparent" points="442.5,-10 442.5,-30 462.5,-30 462.5,-10 442.5,-10"/>
<text text-anchor="start" x="466.23" y="-15.4" font-family="Times-12" font-size="14.00"> &#160;Module</text>
<polygon fill="#80b1d3" stroke="transparent" points="528.5,-10 528.5,-30 548.5,-30 548.5,-10 528.5,-10"/>
<text text-anchor="start" x="552.28" y="-15.4" font-family="Times-12" font-size="14.00"> &#160;Bootstrap</text>
<polygon fill="#fdb462" stroke="transparent" points="625.5,-10 625.5,-30 645.5,-30 645.5,-10 625.5,-10"/>
<text text-anchor="start" x="649.17" y="-15.4" font-family="Times-12" font-size="14.00"> &#160;Providers</text>
<polygon fill="#fb8072" stroke="transparent" points="721.5,-10 721.5,-30 741.5,-30 741.5,-10 721.5,-10"/>
<text text-anchor="start" x="745.23" y="-15.4" font-family="Times-12" font-size="14.00"> &#160;Exports</text>
<g id="clust1" class="cluster">
<title>cluster_GroupApiModule</title>
<polygon fill="none" stroke="black" stroke-dasharray="1,5" points="8,-70 8,-195 1119,-195 1119,-70 8,-70"/>
</g>
<g id="clust6" class="cluster">
<title>cluster_GroupApiModule_providers</title>
<polygon fill="none" stroke="black" points="1001,-78 1001,-130 1111,-130 1111,-78 1001,-78"/>
</g>
<g id="clust3" class="cluster">
<title>cluster_GroupApiModule_imports</title>
<polygon fill="none" stroke="black" points="16,-78 16,-130 993,-130 993,-78 16,-78"/>
</g>
<!-- AuthorizationModule -->
<g id="node1" class="node">
<title>AuthorizationModule</title>
<polygon fill="#8dd3c7" stroke="black" points="984.81,-122 981.81,-126 960.81,-126 957.81,-122 847.19,-122 847.19,-86 984.81,-86 984.81,-122"/>
<text text-anchor="middle" x="916" y="-99.8" font-family="Times,serif" font-size="14.00">AuthorizationModule</text>
</g>
<!-- GroupApiModule -->
<g id="node9" class="node">
<title>GroupApiModule</title>
<polygon fill="#8dd3c7" stroke="black" points="596.31,-187 593.31,-191 572.31,-191 569.31,-187 479.69,-187 479.69,-151 596.31,-151 596.31,-187"/>
<text text-anchor="middle" x="538" y="-164.8" font-family="Times,serif" font-size="14.00">GroupApiModule</text>
</g>
<!-- AuthorizationModule&#45;&gt;GroupApiModule -->
<g id="edge1" class="edge">
<title>AuthorizationModule&#45;&gt;GroupApiModule</title>
<path fill="none" stroke="black" d="M916,-122.13C916,-142.57 916,-173 916,-173 916,-173 606.23,-173 606.23,-173"/>
<polygon fill="black" stroke="black" points="606.23,-169.5 596.23,-173 606.23,-176.5 606.23,-169.5"/>
</g>
<!-- ClassModule -->
<g id="node2" class="node">
<title>ClassModule</title>
<polygon fill="#8dd3c7" stroke="black" points="828.88,-122 825.88,-126 804.88,-126 801.88,-122 739.12,-122 739.12,-86 828.88,-86 828.88,-122"/>
<text text-anchor="middle" x="784" y="-99.8" font-family="Times,serif" font-size="14.00">ClassModule</text>
</g>
<!-- ClassModule&#45;&gt;GroupApiModule -->
<g id="edge2" class="edge">
<title>ClassModule&#45;&gt;GroupApiModule</title>
<path fill="none" stroke="black" d="M784,-122.27C784,-140.56 784,-166 784,-166 784,-166 606.3,-166 606.3,-166"/>
<polygon fill="black" stroke="black" points="606.3,-162.5 596.3,-166 606.3,-169.5 606.3,-162.5"/>
</g>
<!-- GroupModule -->
<g id="node3" class="node">
<title>GroupModule</title>
<polygon fill="#8dd3c7" stroke="black" points="720.82,-122 717.82,-126 696.82,-126 693.82,-122 625.18,-122 625.18,-86 720.82,-86 720.82,-122"/>
<text text-anchor="middle" x="673" y="-99.8" font-family="Times,serif" font-size="14.00">GroupModule</text>
</g>
<!-- GroupModule&#45;&gt;GroupApiModule -->
<g id="edge3" class="edge">
<title>GroupModule&#45;&gt;GroupApiModule</title>
<path fill="none" stroke="black" d="M673,-122.01C673,-138.05 673,-159 673,-159 673,-159 606.43,-159 606.43,-159"/>
<polygon fill="black" stroke="black" points="606.43,-155.5 596.43,-159 606.43,-162.5 606.43,-155.5"/>
</g>
<!-- LegacySchoolModule -->
<g id="node4" class="node">
<title>LegacySchoolModule</title>
<polygon fill="#8dd3c7" stroke="black" points="607.63,-122 604.63,-126 583.63,-126 580.63,-122 468.37,-122 468.37,-86 607.63,-86 607.63,-122"/>
<text text-anchor="middle" x="538" y="-99.8" font-family="Times,serif" font-size="14.00">LegacySchoolModule</text>
</g>
<!-- LegacySchoolModule&#45;&gt;GroupApiModule -->
<g id="edge4" class="edge">
<title>LegacySchoolModule&#45;&gt;GroupApiModule</title>
<path fill="none" stroke="black" d="M538,-122.11C538,-122.11 538,-140.99 538,-140.99"/>
<polygon fill="black" stroke="black" points="534.5,-140.99 538,-150.99 541.5,-140.99 534.5,-140.99"/>
</g>
<!-- LoggerModule -->
<g id="node5" class="node">
<title>LoggerModule</title>
<polygon fill="#8dd3c7" stroke="black" points="449.98,-122 446.98,-126 425.98,-126 422.98,-122 350.02,-122 350.02,-86 449.98,-86 449.98,-122"/>
<text text-anchor="middle" x="400" y="-99.8" font-family="Times,serif" font-size="14.00">LoggerModule</text>
</g>
<!-- LoggerModule&#45;&gt;GroupApiModule -->
<g id="edge5" class="edge">
<title>LoggerModule&#45;&gt;GroupApiModule</title>
<path fill="none" stroke="black" d="M400,-122.01C400,-138.05 400,-159 400,-159 400,-159 469.48,-159 469.48,-159"/>
<polygon fill="black" stroke="black" points="469.48,-162.5 479.48,-159 469.48,-155.5 469.48,-162.5"/>
</g>
<!-- RoleModule -->
<g id="node6" class="node">
<title>RoleModule</title>
<polygon fill="#8dd3c7" stroke="black" points="331.99,-122 328.99,-126 307.99,-126 304.99,-122 246.01,-122 246.01,-86 331.99,-86 331.99,-122"/>
<text text-anchor="middle" x="289" y="-99.8" font-family="Times,serif" font-size="14.00">RoleModule</text>
</g>
<!-- RoleModule&#45;&gt;GroupApiModule -->
<g id="edge6" class="edge">
<title>RoleModule&#45;&gt;GroupApiModule</title>
<path fill="none" stroke="black" d="M289,-122.27C289,-140.56 289,-166 289,-166 289,-166 469.62,-166 469.62,-166"/>
<polygon fill="black" stroke="black" points="469.62,-169.5 479.62,-166 469.62,-162.5 469.62,-169.5"/>
</g>
<!-- SystemModule -->
<g id="node7" class="node">
<title>SystemModule</title>
<polygon fill="#8dd3c7" stroke="black" points="228.27,-122 225.27,-126 204.27,-126 201.27,-122 127.73,-122 127.73,-86 228.27,-86 228.27,-122"/>
<text text-anchor="middle" x="178" y="-99.8" font-family="Times,serif" font-size="14.00">SystemModule</text>
</g>
<!-- SystemModule&#45;&gt;GroupApiModule -->
<g id="edge7" class="edge">
<title>SystemModule&#45;&gt;GroupApiModule</title>
<path fill="none" stroke="black" d="M178,-122.13C178,-142.57 178,-173 178,-173 178,-173 469.76,-173 469.76,-173"/>
<polygon fill="black" stroke="black" points="469.76,-176.5 479.76,-173 469.76,-169.5 469.76,-176.5"/>
</g>
<!-- UserModule -->
<g id="node8" class="node">
<title>UserModule</title>
<polygon fill="#8dd3c7" stroke="black" points="109.98,-122 106.98,-126 85.98,-126 82.98,-122 24.02,-122 24.02,-86 109.98,-86 109.98,-122"/>
<text text-anchor="middle" x="67" y="-99.8" font-family="Times,serif" font-size="14.00">UserModule</text>
</g>
<!-- UserModule&#45;&gt;GroupApiModule -->
<g id="edge8" class="edge">
<title>UserModule&#45;&gt;GroupApiModule</title>
<path fill="none" stroke="black" d="M67,-122.01C67,-144.49 67,-180 67,-180 67,-180 469.77,-180 469.77,-180"/>
<polygon fill="black" stroke="black" points="469.77,-183.5 479.77,-180 469.77,-176.5 469.77,-183.5"/>
</g>
<!-- GroupUc -->
<g id="node10" class="node">
<title>GroupUc</title>
<ellipse fill="#fdb462" stroke="black" cx="1056" cy="-104" rx="46.93" ry="18"/>
<text text-anchor="middle" x="1056" y="-99.8" font-family="Times,serif" font-size="14.00">GroupUc</text>
</g>
<!-- GroupUc&#45;&gt;GroupApiModule -->
<g id="edge9" class="edge">
<title>GroupUc&#45;&gt;GroupApiModule</title>
<path fill="none" stroke="black" d="M1056,-122.01C1056,-144.49 1056,-180 1056,-180 1056,-180 606.16,-180 606.16,-180"/>
<polygon fill="black" stroke="black" points="606.16,-176.5 596.16,-180 606.16,-183.5 606.16,-176.5"/>
</g>
</g>
</svg>
