<?xml version="1.0" encoding="UTF-8" standalone="no"?>
<!DOCTYPE svg PUBLIC "-//W3C//DTD SVG 1.1//EN"
 "http://www.w3.org/Graphics/SVG/1.1/DTD/svg11.dtd">
<!-- Generated by graphviz version 2.47.0 (20210316.0004)
 -->
<!-- Title: dependencies Pages: 1 -->
<svg width="1393pt" height="211pt"
 viewBox="0.00 0.00 1393.00 211.00" xmlns="http://www.w3.org/2000/svg" xmlns:xlink="http://www.w3.org/1999/xlink">
<g id="graph0" class="graph" transform="scale(1 1) rotate(0) translate(4 207)">
<title>dependencies</title>
<polygon fill="white" stroke="transparent" points="-4,4 -4,-207 1389,-207 1389,4 -4,4"/>
<text text-anchor="start" x="671.51" y="-42.4" font-family="Times-12" font-weight="bold" font-size="14.00">Legend</text>
<polygon fill="#ffffb3" stroke="transparent" points="458.5,-10 458.5,-30 478.5,-30 478.5,-10 458.5,-10"/>
<text text-anchor="start" x="482.13" y="-15.4" font-family="Times-12" font-size="14.00"> &#160;Declarations</text>
<polygon fill="#8dd3c7" stroke="transparent" points="571.5,-10 571.5,-30 591.5,-30 591.5,-10 571.5,-10"/>
<text text-anchor="start" x="595.23" y="-15.4" font-family="Times-12" font-size="14.00"> &#160;Module</text>
<polygon fill="#80b1d3" stroke="transparent" points="657.5,-10 657.5,-30 677.5,-30 677.5,-10 657.5,-10"/>
<text text-anchor="start" x="681.28" y="-15.4" font-family="Times-12" font-size="14.00"> &#160;Bootstrap</text>
<polygon fill="#fdb462" stroke="transparent" points="754.5,-10 754.5,-30 774.5,-30 774.5,-10 754.5,-10"/>
<text text-anchor="start" x="778.17" y="-15.4" font-family="Times-12" font-size="14.00"> &#160;Providers</text>
<polygon fill="#fb8072" stroke="transparent" points="850.5,-10 850.5,-30 870.5,-30 870.5,-10 850.5,-10"/>
<text text-anchor="start" x="874.23" y="-15.4" font-family="Times-12" font-size="14.00"> &#160;Exports</text>
<g id="clust1" class="cluster">
<title>cluster_GroupApiModule</title>
<polygon fill="none" stroke="black" stroke-dasharray="1,5" points="8,-70 8,-195 1377,-195 1377,-70 8,-70"/>
</g>
<g id="clust6" class="cluster">
<title>cluster_GroupApiModule_providers</title>
<polygon fill="none" stroke="black" points="1259,-78 1259,-130 1369,-130 1369,-78 1259,-78"/>
</g>
<g id="clust3" class="cluster">
<title>cluster_GroupApiModule_imports</title>
<polygon fill="none" stroke="black" points="16,-78 16,-130 1251,-130 1251,-78 16,-78"/>
</g>
<!-- AuthorizationModule -->
<g id="node1" class="node">
<title>AuthorizationModule</title>
<polygon fill="#8dd3c7" stroke="black" points="1242.81,-122 1239.81,-126 1218.81,-126 1215.81,-122 1105.19,-122 1105.19,-86 1242.81,-86 1242.81,-122"/>
<text text-anchor="middle" x="1174" y="-99.8" font-family="Times,serif" font-size="14.00">AuthorizationModule</text>
</g>
<!-- GroupApiModule -->
<g id="node11" class="node">
<title>GroupApiModule</title>
<polygon fill="#8dd3c7" stroke="black" points="713.31,-187 710.31,-191 689.31,-191 686.31,-187 596.69,-187 596.69,-151 713.31,-151 713.31,-187"/>
<text text-anchor="middle" x="655" y="-164.8" font-family="Times,serif" font-size="14.00">GroupApiModule</text>
</g>
<!-- AuthorizationModule&#45;&gt;GroupApiModule -->
<g id="edge1" class="edge">
<title>AuthorizationModule&#45;&gt;GroupApiModule</title>
<path fill="none" stroke="black" d="M1174,-122.28C1174,-143.32 1174,-175 1174,-175 1174,-175 723.28,-175 723.28,-175"/>
<polygon fill="black" stroke="black" points="723.28,-171.5 713.28,-175 723.28,-178.5 723.28,-171.5"/>
</g>
<!-- ClassModule -->
<g id="node2" class="node">
<title>ClassModule</title>
<polygon fill="#8dd3c7" stroke="black" points="1086.88,-122 1083.88,-126 1062.88,-126 1059.88,-122 997.12,-122 997.12,-86 1086.88,-86 1086.88,-122"/>
<text text-anchor="middle" x="1042" y="-99.8" font-family="Times,serif" font-size="14.00">ClassModule</text>
</g>
<!-- ClassModule&#45;&gt;GroupApiModule -->
<g id="edge2" class="edge">
<title>ClassModule&#45;&gt;GroupApiModule</title>
<path fill="none" stroke="black" d="M1042,-122.11C1042,-141.34 1042,-169 1042,-169 1042,-169 723.36,-169 723.36,-169"/>
<polygon fill="black" stroke="black" points="723.36,-165.5 713.36,-169 723.36,-172.5 723.36,-165.5"/>
</g>
<!-- GroupModule -->
<g id="node3" class="node">
<title>GroupModule</title>
<polygon fill="#8dd3c7" stroke="black" points="978.82,-122 975.82,-126 954.82,-126 951.82,-122 883.18,-122 883.18,-86 978.82,-86 978.82,-122"/>
<text text-anchor="middle" x="931" y="-99.8" font-family="Times,serif" font-size="14.00">GroupModule</text>
</g>
<!-- GroupModule&#45;&gt;GroupApiModule -->
<g id="edge3" class="edge">
<title>GroupModule&#45;&gt;GroupApiModule</title>
<path fill="none" stroke="black" d="M931,-122.02C931,-139.37 931,-163 931,-163 931,-163 723.2,-163 723.2,-163"/>
<polygon fill="black" stroke="black" points="723.2,-159.5 713.2,-163 723.2,-166.5 723.2,-159.5"/>
</g>
<!-- LearnroomModule -->
<g id="node4" class="node">
<title>LearnroomModule</title>
<polygon fill="#8dd3c7" stroke="black" points="864.74,-122 861.74,-126 840.74,-126 837.74,-122 743.26,-122 743.26,-86 864.74,-86 864.74,-122"/>
<text text-anchor="middle" x="804" y="-99.8" font-family="Times,serif" font-size="14.00">LearnroomModule</text>
</g>
<!-- LearnroomModule&#45;&gt;GroupApiModule -->
<g id="edge4" class="edge">
<title>LearnroomModule&#45;&gt;GroupApiModule</title>
<path fill="none" stroke="black" d="M804,-122.24C804,-137.57 804,-157 804,-157 804,-157 723.46,-157 723.46,-157"/>
<polygon fill="black" stroke="black" points="723.46,-153.5 713.46,-157 723.46,-160.5 723.46,-153.5"/>
</g>
<!-- LegacySchoolModule -->
<g id="node5" class="node">
<title>LegacySchoolModule</title>
<polygon fill="#8dd3c7" stroke="black" points="724.63,-122 721.63,-126 700.63,-126 697.63,-122 585.37,-122 585.37,-86 724.63,-86 724.63,-122"/>
<text text-anchor="middle" x="655" y="-99.8" font-family="Times,serif" font-size="14.00">LegacySchoolModule</text>
</g>
<!-- LegacySchoolModule&#45;&gt;GroupApiModule -->
<g id="edge5" class="edge">
<title>LegacySchoolModule&#45;&gt;GroupApiModule</title>
<path fill="none" stroke="black" d="M655,-122.11C655,-122.11 655,-140.99 655,-140.99"/>
<polygon fill="black" stroke="black" points="651.5,-140.99 655,-150.99 658.5,-140.99 651.5,-140.99"/>
</g>
<!-- LoggerModule -->
<g id="node6" class="node">
<title>LoggerModule</title>
<polygon fill="#8dd3c7" stroke="black" points="566.98,-122 563.98,-126 542.98,-126 539.98,-122 467.02,-122 467.02,-86 566.98,-86 566.98,-122"/>
<text text-anchor="middle" x="517" y="-99.8" font-family="Times,serif" font-size="14.00">LoggerModule</text>
</g>
<!-- LoggerModule&#45;&gt;GroupApiModule -->
<g id="edge6" class="edge">
<title>LoggerModule&#45;&gt;GroupApiModule</title>
<path fill="none" stroke="black" d="M517,-122.24C517,-137.57 517,-157 517,-157 517,-157 586.48,-157 586.48,-157"/>
<polygon fill="black" stroke="black" points="586.48,-160.5 596.48,-157 586.48,-153.5 586.48,-160.5"/>
</g>
<!-- RoleModule -->
<g id="node7" class="node">
<title>RoleModule</title>
<polygon fill="#8dd3c7" stroke="black" points="448.99,-122 445.99,-126 424.99,-126 421.99,-122 363.01,-122 363.01,-86 448.99,-86 448.99,-122"/>
<text text-anchor="middle" x="406" y="-99.8" font-family="Times,serif" font-size="14.00">RoleModule</text>
</g>
<!-- RoleModule&#45;&gt;GroupApiModule -->
<g id="edge7" class="edge">
<title>RoleModule&#45;&gt;GroupApiModule</title>
<path fill="none" stroke="black" d="M406,-122.02C406,-139.37 406,-163 406,-163 406,-163 586.62,-163 586.62,-163"/>
<polygon fill="black" stroke="black" points="586.62,-166.5 596.62,-163 586.62,-159.5 586.62,-166.5"/>
</g>
<!-- SchoolModule -->
<g id="node8" class="node">
<title>SchoolModule</title>
<polygon fill="#8dd3c7" stroke="black" points="345.44,-122 342.44,-126 321.44,-126 318.44,-122 246.56,-122 246.56,-86 345.44,-86 345.44,-122"/>
<text text-anchor="middle" x="296" y="-99.8" font-family="Times,serif" font-size="14.00">SchoolModule</text>
</g>
<!-- SchoolModule&#45;&gt;GroupApiModule -->
<g id="edge8" class="edge">
<title>SchoolModule&#45;&gt;GroupApiModule</title>
<path fill="none" stroke="black" d="M296,-122.11C296,-141.34 296,-169 296,-169 296,-169 586.52,-169 586.52,-169"/>
<polygon fill="black" stroke="black" points="586.52,-172.5 596.52,-169 586.52,-165.5 586.52,-172.5"/>
</g>
<!-- SystemModule -->
<g id="node9" class="node">
<title>SystemModule</title>
<polygon fill="#8dd3c7" stroke="black" points="228.27,-122 225.27,-126 204.27,-126 201.27,-122 127.73,-122 127.73,-86 228.27,-86 228.27,-122"/>
<text text-anchor="middle" x="178" y="-99.8" font-family="Times,serif" font-size="14.00">SystemModule</text>
</g>
<!-- SystemModule&#45;&gt;GroupApiModule -->
<g id="edge9" class="edge">
<title>SystemModule&#45;&gt;GroupApiModule</title>
<path fill="none" stroke="black" d="M178,-122.28C178,-143.32 178,-175 178,-175 178,-175 586.51,-175 586.51,-175"/>
<polygon fill="black" stroke="black" points="586.51,-178.5 596.51,-175 586.51,-171.5 586.51,-178.5"/>
</g>
<!-- UserModule -->
<g id="node10" class="node">
<title>UserModule</title>
<polygon fill="#8dd3c7" stroke="black" points="109.98,-122 106.98,-126 85.98,-126 82.98,-122 24.02,-122 24.02,-86 109.98,-86 109.98,-122"/>
<text text-anchor="middle" x="67" y="-99.8" font-family="Times,serif" font-size="14.00">UserModule</text>
</g>
<!-- UserModule&#45;&gt;GroupApiModule -->
<g id="edge10" class="edge">
<title>UserModule&#45;&gt;GroupApiModule</title>
<path fill="none" stroke="black" d="M67,-122.09C67,-145.13 67,-182 67,-182 67,-182 586.74,-182 586.74,-182"/>
<polygon fill="black" stroke="black" points="586.74,-185.5 596.74,-182 586.74,-178.5 586.74,-185.5"/>
</g>
<!-- GroupUc -->
<g id="node12" class="node">
<title>GroupUc</title>
<ellipse fill="#fdb462" stroke="black" cx="1314" cy="-104" rx="46.93" ry="18"/>
<text text-anchor="middle" x="1314" y="-99.8" font-family="Times,serif" font-size="14.00">GroupUc</text>
</g>
<!-- GroupUc&#45;&gt;GroupApiModule -->
<g id="edge11" class="edge">
<title>GroupUc&#45;&gt;GroupApiModule</title>
<path fill="none" stroke="black" d="M1314,-122.09C1314,-145.13 1314,-182 1314,-182 1314,-182 723.19,-182 723.19,-182"/>
<polygon fill="black" stroke="black" points="723.19,-178.5 713.19,-182 723.19,-185.5 723.19,-178.5"/>
</g>
</g>
</svg>
