<?xml version="1.0" encoding="UTF-8" standalone="no"?>
<!DOCTYPE svg PUBLIC "-//W3C//DTD SVG 1.1//EN"
 "http://www.w3.org/Graphics/SVG/1.1/DTD/svg11.dtd">
<!-- Generated by graphviz version 2.47.0 (20210316.0004)
 -->
<!-- Title: dependencies Pages: 1 -->
<svg width="1252pt" height="211pt"
 viewBox="0.00 0.00 1252.00 211.00" xmlns="http://www.w3.org/2000/svg" xmlns:xlink="http://www.w3.org/1999/xlink">
<g id="graph0" class="graph" transform="scale(1 1) rotate(0) translate(4 207)">
<title>dependencies</title>
<polygon fill="white" stroke="transparent" points="-4,4 -4,-207 1248,-207 1248,4 -4,4"/>
<text text-anchor="start" x="601.01" y="-42.4" font-family="Times-12" font-weight="bold" font-size="14.00">Legend</text>
<polygon fill="#ffffb3" stroke="transparent" points="388,-10 388,-30 408,-30 408,-10 388,-10"/>
<text text-anchor="start" x="411.63" y="-15.4" font-family="Times-12" font-size="14.00"> &#160;Declarations</text>
<polygon fill="#8dd3c7" stroke="transparent" points="501,-10 501,-30 521,-30 521,-10 501,-10"/>
<text text-anchor="start" x="524.73" y="-15.4" font-family="Times-12" font-size="14.00"> &#160;Module</text>
<polygon fill="#80b1d3" stroke="transparent" points="587,-10 587,-30 607,-30 607,-10 587,-10"/>
<text text-anchor="start" x="610.78" y="-15.4" font-family="Times-12" font-size="14.00"> &#160;Bootstrap</text>
<polygon fill="#fdb462" stroke="transparent" points="684,-10 684,-30 704,-30 704,-10 684,-10"/>
<text text-anchor="start" x="707.67" y="-15.4" font-family="Times-12" font-size="14.00"> &#160;Providers</text>
<polygon fill="#fb8072" stroke="transparent" points="780,-10 780,-30 800,-30 800,-10 780,-10"/>
<text text-anchor="start" x="803.73" y="-15.4" font-family="Times-12" font-size="14.00"> &#160;Exports</text>
<g id="clust1" class="cluster">
<title>cluster_GroupApiModule</title>
<polygon fill="none" stroke="black" stroke-dasharray="1,5" points="8,-70 8,-195 1236,-195 1236,-70 8,-70"/>
</g>
<g id="clust6" class="cluster">
<title>cluster_GroupApiModule_providers</title>
<polygon fill="none" stroke="black" points="1118,-78 1118,-130 1228,-130 1228,-78 1118,-78"/>
</g>
<g id="clust3" class="cluster">
<title>cluster_GroupApiModule_imports</title>
<polygon fill="none" stroke="black" points="16,-78 16,-130 1110,-130 1110,-78 16,-78"/>
</g>
<!-- AuthorizationModule -->
<g id="node1" class="node">
<title>AuthorizationModule</title>
<polygon fill="#8dd3c7" stroke="black" points="1101.81,-122 1098.81,-126 1077.81,-126 1074.81,-122 964.19,-122 964.19,-86 1101.81,-86 1101.81,-122"/>
<text text-anchor="middle" x="1033" y="-99.8" font-family="Times,serif" font-size="14.00">AuthorizationModule</text>
</g>
<!-- GroupApiModule -->
<g id="node10" class="node">
<title>GroupApiModule</title>
<polygon fill="#8dd3c7" stroke="black" points="644.31,-187 641.31,-191 620.31,-191 617.31,-187 527.69,-187 527.69,-151 644.31,-151 644.31,-187"/>
<text text-anchor="middle" x="586" y="-164.8" font-family="Times,serif" font-size="14.00">GroupApiModule</text>
</g>
<!-- AuthorizationModule&#45;&gt;GroupApiModule -->
<g id="edge1" class="edge">
<title>AuthorizationModule&#45;&gt;GroupApiModule</title>
<path fill="none" stroke="black" d="M1033,-122.13C1033,-142.57 1033,-173 1033,-173 1033,-173 654.44,-173 654.44,-173"/>
<polygon fill="black" stroke="black" points="654.44,-169.5 644.44,-173 654.44,-176.5 654.44,-169.5"/>
</g>
<!-- ClassModule -->
<g id="node2" class="node">
<title>ClassModule</title>
<polygon fill="#8dd3c7" stroke="black" points="945.88,-122 942.88,-126 921.88,-126 918.88,-122 856.12,-122 856.12,-86 945.88,-86 945.88,-122"/>
<text text-anchor="middle" x="901" y="-99.8" font-family="Times,serif" font-size="14.00">ClassModule</text>
</g>
<!-- ClassModule&#45;&gt;GroupApiModule -->
<g id="edge2" class="edge">
<title>ClassModule&#45;&gt;GroupApiModule</title>
<path fill="none" stroke="black" d="M901,-122.27C901,-140.56 901,-166 901,-166 901,-166 654.51,-166 654.51,-166"/>
<polygon fill="black" stroke="black" points="654.51,-162.5 644.51,-166 654.51,-169.5 654.51,-162.5"/>
</g>
<!-- GroupModule -->
<g id="node3" class="node">
<title>GroupModule</title>
<polygon fill="#8dd3c7" stroke="black" points="837.82,-122 834.82,-126 813.82,-126 810.82,-122 742.18,-122 742.18,-86 837.82,-86 837.82,-122"/>
<text text-anchor="middle" x="790" y="-99.8" font-family="Times,serif" font-size="14.00">GroupModule</text>
</g>
<!-- GroupModule&#45;&gt;GroupApiModule -->
<g id="edge3" class="edge">
<title>GroupModule&#45;&gt;GroupApiModule</title>
<path fill="none" stroke="black" d="M790,-122.01C790,-138.05 790,-159 790,-159 790,-159 654.19,-159 654.19,-159"/>
<polygon fill="black" stroke="black" points="654.19,-155.5 644.19,-159 654.19,-162.5 654.19,-155.5"/>
</g>
<!-- LegacySchoolModule -->
<g id="node4" class="node">
<title>LegacySchoolModule</title>
<polygon fill="#8dd3c7" stroke="black" points="724.63,-122 721.63,-126 700.63,-126 697.63,-122 585.37,-122 585.37,-86 724.63,-86 724.63,-122"/>
<text text-anchor="middle" x="655" y="-99.8" font-family="Times,serif" font-size="14.00">LegacySchoolModule</text>
</g>
<!-- LegacySchoolModule&#45;&gt;GroupApiModule -->
<g id="edge4" class="edge">
<title>LegacySchoolModule&#45;&gt;GroupApiModule</title>
<path fill="none" stroke="black" d="M614.67,-122.11C614.67,-122.11 614.67,-140.99 614.67,-140.99"/>
<polygon fill="black" stroke="black" points="611.17,-140.99 614.67,-150.99 618.17,-140.99 611.17,-140.99"/>
</g>
<!-- LoggerModule -->
<g id="node5" class="node">
<title>LoggerModule</title>
<polygon fill="#8dd3c7" stroke="black" points="566.98,-122 563.98,-126 542.98,-126 539.98,-122 467.02,-122 467.02,-86 566.98,-86 566.98,-122"/>
<text text-anchor="middle" x="517" y="-99.8" font-family="Times,serif" font-size="14.00">LoggerModule</text>
</g>
<!-- LoggerModule&#45;&gt;GroupApiModule -->
<g id="edge5" class="edge">
<title>LoggerModule&#45;&gt;GroupApiModule</title>
<path fill="none" stroke="black" d="M547.42,-122.11C547.42,-122.11 547.42,-140.99 547.42,-140.99"/>
<polygon fill="black" stroke="black" points="543.92,-140.99 547.42,-150.99 550.92,-140.99 543.92,-140.99"/>
</g>
<!-- RoleModule -->
<g id="node6" class="node">
<title>RoleModule</title>
<polygon fill="#8dd3c7" stroke="black" points="448.99,-122 445.99,-126 424.99,-126 421.99,-122 363.01,-122 363.01,-86 448.99,-86 448.99,-122"/>
<text text-anchor="middle" x="406" y="-99.8" font-family="Times,serif" font-size="14.00">RoleModule</text>
</g>
<!-- RoleModule&#45;&gt;GroupApiModule -->
<g id="edge6" class="edge">
<title>RoleModule&#45;&gt;GroupApiModule</title>
<path fill="none" stroke="black" d="M406,-122.01C406,-138.05 406,-159 406,-159 406,-159 517.56,-159 517.56,-159"/>
<polygon fill="black" stroke="black" points="517.56,-162.5 527.56,-159 517.56,-155.5 517.56,-162.5"/>
</g>
<!-- SchoolModule -->
<g id="node7" class="node">
<title>SchoolModule</title>
<polygon fill="#8dd3c7" stroke="black" points="345.44,-122 342.44,-126 321.44,-126 318.44,-122 246.56,-122 246.56,-86 345.44,-86 345.44,-122"/>
<text text-anchor="middle" x="296" y="-99.8" font-family="Times,serif" font-size="14.00">SchoolModule</text>
</g>
<!-- SchoolModule&#45;&gt;GroupApiModule -->
<g id="edge7" class="edge">
<title>SchoolModule&#45;&gt;GroupApiModule</title>
<path fill="none" stroke="black" d="M296,-122.27C296,-140.56 296,-166 296,-166 296,-166 517.66,-166 517.66,-166"/>
<polygon fill="black" stroke="black" points="517.66,-169.5 527.66,-166 517.66,-162.5 517.66,-169.5"/>
</g>
<!-- SystemModule -->
<g id="node8" class="node">
<title>SystemModule</title>
<polygon fill="#8dd3c7" stroke="black" points="228.27,-122 225.27,-126 204.27,-126 201.27,-122 127.73,-122 127.73,-86 228.27,-86 228.27,-122"/>
<text text-anchor="middle" x="178" y="-99.8" font-family="Times,serif" font-size="14.00">SystemModule</text>
</g>
<!-- SystemModule&#45;&gt;GroupApiModule -->
<g id="edge8" class="edge">
<title>SystemModule&#45;&gt;GroupApiModule</title>
<path fill="none" stroke="black" d="M178,-122.13C178,-142.57 178,-173 178,-173 178,-173 517.54,-173 517.54,-173"/>
<polygon fill="black" stroke="black" points="517.54,-176.5 527.54,-173 517.54,-169.5 517.54,-176.5"/>
</g>
<!-- UserModule -->
<g id="node9" class="node">
<title>UserModule</title>
<polygon fill="#8dd3c7" stroke="black" points="109.98,-122 106.98,-126 85.98,-126 82.98,-122 24.02,-122 24.02,-86 109.98,-86 109.98,-122"/>
<text text-anchor="middle" x="67" y="-99.8" font-family="Times,serif" font-size="14.00">UserModule</text>
</g>
<!-- UserModule&#45;&gt;GroupApiModule -->
<g id="edge9" class="edge">
<title>UserModule&#45;&gt;GroupApiModule</title>
<path fill="none" stroke="black" d="M67,-122.01C67,-144.49 67,-180 67,-180 67,-180 517.72,-180 517.72,-180"/>
<polygon fill="black" stroke="black" points="517.72,-183.5 527.72,-180 517.72,-176.5 517.72,-183.5"/>
</g>
<!-- GroupUc -->
<g id="node11" class="node">
<title>GroupUc</title>
<ellipse fill="#fdb462" stroke="black" cx="1173" cy="-104" rx="46.93" ry="18"/>
<text text-anchor="middle" x="1173" y="-99.8" font-family="Times,serif" font-size="14.00">GroupUc</text>
</g>
<!-- GroupUc&#45;&gt;GroupApiModule -->
<g id="edge10" class="edge">
<title>GroupUc&#45;&gt;GroupApiModule</title>
<path fill="none" stroke="black" d="M1173,-122.01C1173,-144.49 1173,-180 1173,-180 1173,-180 654.16,-180 654.16,-180"/>
<polygon fill="black" stroke="black" points="654.16,-176.5 644.16,-180 654.16,-183.5 654.16,-176.5"/>
</g>
</g>
</svg>
