<?xml version="1.0" encoding="UTF-8" standalone="no"?>
<!DOCTYPE svg PUBLIC "-//W3C//DTD SVG 1.1//EN"
 "http://www.w3.org/Graphics/SVG/1.1/DTD/svg11.dtd">
<!-- Generated by graphviz version 2.47.0 (20210316.0004)
 -->
<!-- Title: dependencies Pages: 1 -->
<svg width="1252pt" height="211pt"
 viewBox="0.00 0.00 1252.00 211.00" xmlns="http://www.w3.org/2000/svg" xmlns:xlink="http://www.w3.org/1999/xlink">
<g id="graph0" class="graph" transform="scale(1 1) rotate(0) translate(4 207)">
<title>dependencies</title>
<polygon fill="white" stroke="transparent" points="-4,4 -4,-207 1248,-207 1248,4 -4,4"/>
<text text-anchor="start" x="601.01" y="-42.4" font-family="Times-12" font-weight="bold" font-size="14.00">Legend</text>
<polygon fill="#ffffb3" stroke="transparent" points="388,-10 388,-30 408,-30 408,-10 388,-10"/>
<text text-anchor="start" x="411.63" y="-15.4" font-family="Times-12" font-size="14.00"> &#160;Declarations</text>
<polygon fill="#8dd3c7" stroke="transparent" points="501,-10 501,-30 521,-30 521,-10 501,-10"/>
<text text-anchor="start" x="524.73" y="-15.4" font-family="Times-12" font-size="14.00"> &#160;Module</text>
<polygon fill="#80b1d3" stroke="transparent" points="587,-10 587,-30 607,-30 607,-10 587,-10"/>
<text text-anchor="start" x="610.78" y="-15.4" font-family="Times-12" font-size="14.00"> &#160;Bootstrap</text>
<polygon fill="#fdb462" stroke="transparent" points="684,-10 684,-30 704,-30 704,-10 684,-10"/>
<text text-anchor="start" x="707.67" y="-15.4" font-family="Times-12" font-size="14.00"> &#160;Providers</text>
<polygon fill="#fb8072" stroke="transparent" points="780,-10 780,-30 800,-30 800,-10 780,-10"/>
<text text-anchor="start" x="803.73" y="-15.4" font-family="Times-12" font-size="14.00"> &#160;Exports</text>
<g id="clust1" class="cluster">
<title>cluster_GroupApiModule</title>
<polygon fill="none" stroke="black" stroke-dasharray="1,5" points="8,-70 8,-195 1236,-195 1236,-70 8,-70"/>
</g>
<g id="clust3" class="cluster">
<title>cluster_GroupApiModule_imports</title>
<polygon fill="none" stroke="black" points="134,-78 134,-130 1228,-130 1228,-78 134,-78"/>
</g>
<g id="clust6" class="cluster">
<title>cluster_GroupApiModule_providers</title>
<polygon fill="none" stroke="black" points="16,-78 16,-130 126,-130 126,-78 16,-78"/>
</g>
<!-- AuthorizationModule -->
<g id="node1" class="node">
<title>AuthorizationModule</title>
<polygon fill="#8dd3c7" stroke="black" points="1219.81,-122 1216.81,-126 1195.81,-126 1192.81,-122 1082.19,-122 1082.19,-86 1219.81,-86 1219.81,-122"/>
<text text-anchor="middle" x="1151" y="-99.8" font-family="Times,serif" font-size="14.00">AuthorizationModule</text>
</g>
<!-- GroupApiModule -->
<g id="node10" class="node">
<title>GroupApiModule</title>
<polygon fill="#8dd3c7" stroke="black" points="637.31,-187 634.31,-191 613.31,-191 610.31,-187 520.69,-187 520.69,-151 637.31,-151 637.31,-187"/>
<text text-anchor="middle" x="579" y="-164.8" font-family="Times,serif" font-size="14.00">GroupApiModule</text>
</g>
<!-- AuthorizationModule&#45;&gt;GroupApiModule -->
<g id="edge1" class="edge">
<title>AuthorizationModule&#45;&gt;GroupApiModule</title>
<path fill="none" stroke="black" d="M1151,-122.01C1151,-144.49 1151,-180 1151,-180 1151,-180 647.26,-180 647.26,-180"/>
<polygon fill="black" stroke="black" points="647.26,-176.5 637.26,-180 647.26,-183.5 647.26,-176.5"/>
</g>
<!-- ClassModule -->
<g id="node2" class="node">
<title>ClassModule</title>
<polygon fill="#8dd3c7" stroke="black" points="1063.88,-122 1060.88,-126 1039.88,-126 1036.88,-122 974.12,-122 974.12,-86 1063.88,-86 1063.88,-122"/>
<text text-anchor="middle" x="1019" y="-99.8" font-family="Times,serif" font-size="14.00">ClassModule</text>
</g>
<!-- ClassModule&#45;&gt;GroupApiModule -->
<g id="edge2" class="edge">
<title>ClassModule&#45;&gt;GroupApiModule</title>
<path fill="none" stroke="black" d="M1019,-122.13C1019,-142.57 1019,-173 1019,-173 1019,-173 647.43,-173 647.43,-173"/>
<polygon fill="black" stroke="black" points="647.43,-169.5 637.43,-173 647.43,-176.5 647.43,-169.5"/>
</g>
<!-- GroupModule -->
<g id="node3" class="node">
<title>GroupModule</title>
<polygon fill="#8dd3c7" stroke="black" points="955.82,-122 952.82,-126 931.82,-126 928.82,-122 860.18,-122 860.18,-86 955.82,-86 955.82,-122"/>
<text text-anchor="middle" x="908" y="-99.8" font-family="Times,serif" font-size="14.00">GroupModule</text>
</g>
<!-- GroupModule&#45;&gt;GroupApiModule -->
<g id="edge3" class="edge">
<title>GroupModule&#45;&gt;GroupApiModule</title>
<path fill="none" stroke="black" d="M908,-122.27C908,-140.56 908,-166 908,-166 908,-166 647.44,-166 647.44,-166"/>
<polygon fill="black" stroke="black" points="647.44,-162.5 637.44,-166 647.44,-169.5 647.44,-162.5"/>
</g>
<!-- LegacySchoolModule -->
<g id="node4" class="node">
<title>LegacySchoolModule</title>
<polygon fill="#8dd3c7" stroke="black" points="842.63,-122 839.63,-126 818.63,-126 815.63,-122 703.37,-122 703.37,-86 842.63,-86 842.63,-122"/>
<text text-anchor="middle" x="773" y="-99.8" font-family="Times,serif" font-size="14.00">LegacySchoolModule</text>
</g>
<!-- LegacySchoolModule&#45;&gt;GroupApiModule -->
<g id="edge4" class="edge">
<title>LegacySchoolModule&#45;&gt;GroupApiModule</title>
<path fill="none" stroke="black" d="M773,-122.01C773,-138.05 773,-159 773,-159 773,-159 647.21,-159 647.21,-159"/>
<polygon fill="black" stroke="black" points="647.21,-155.5 637.21,-159 647.21,-162.5 647.21,-155.5"/>
</g>
<!-- LoggerModule -->
<g id="node5" class="node">
<title>LoggerModule</title>
<polygon fill="#8dd3c7" stroke="black" points="684.98,-122 681.98,-126 660.98,-126 657.98,-122 585.02,-122 585.02,-86 684.98,-86 684.98,-122"/>
<text text-anchor="middle" x="635" y="-99.8" font-family="Times,serif" font-size="14.00">LoggerModule</text>
</g>
<!-- LoggerModule&#45;&gt;GroupApiModule -->
<g id="edge5" class="edge">
<title>LoggerModule&#45;&gt;GroupApiModule</title>
<path fill="none" stroke="black" d="M611.08,-122.11C611.08,-122.11 611.08,-140.99 611.08,-140.99"/>
<polygon fill="black" stroke="black" points="607.58,-140.99 611.08,-150.99 614.58,-140.99 607.58,-140.99"/>
</g>
<!-- RoleModule -->
<g id="node6" class="node">
<title>RoleModule</title>
<polygon fill="#8dd3c7" stroke="black" points="566.99,-122 563.99,-126 542.99,-126 539.99,-122 481.01,-122 481.01,-86 566.99,-86 566.99,-122"/>
<text text-anchor="middle" x="524" y="-99.8" font-family="Times,serif" font-size="14.00">RoleModule</text>
</g>
<!-- RoleModule&#45;&gt;GroupApiModule -->
<g id="edge6" class="edge">
<title>RoleModule&#45;&gt;GroupApiModule</title>
<path fill="none" stroke="black" d="M543.92,-122.11C543.92,-122.11 543.92,-140.99 543.92,-140.99"/>
<polygon fill="black" stroke="black" points="540.42,-140.99 543.92,-150.99 547.42,-140.99 540.42,-140.99"/>
</g>
<!-- SchoolModule -->
<g id="node7" class="node">
<title>SchoolModule</title>
<polygon fill="#8dd3c7" stroke="black" points="463.44,-122 460.44,-126 439.44,-126 436.44,-122 364.56,-122 364.56,-86 463.44,-86 463.44,-122"/>
<text text-anchor="middle" x="414" y="-99.8" font-family="Times,serif" font-size="14.00">SchoolModule</text>
</g>
<!-- SchoolModule&#45;&gt;GroupApiModule -->
<g id="edge7" class="edge">
<title>SchoolModule&#45;&gt;GroupApiModule</title>
<path fill="none" stroke="black" d="M414,-122.01C414,-138.05 414,-159 414,-159 414,-159 510.83,-159 510.83,-159"/>
<polygon fill="black" stroke="black" points="510.83,-162.5 520.83,-159 510.83,-155.5 510.83,-162.5"/>
</g>
<!-- SystemModule -->
<g id="node8" class="node">
<title>SystemModule</title>
<polygon fill="#8dd3c7" stroke="black" points="346.27,-122 343.27,-126 322.27,-126 319.27,-122 245.73,-122 245.73,-86 346.27,-86 346.27,-122"/>
<text text-anchor="middle" x="296" y="-99.8" font-family="Times,serif" font-size="14.00">SystemModule</text>
</g>
<!-- SystemModule&#45;&gt;GroupApiModule -->
<g id="edge8" class="edge">
<title>SystemModule&#45;&gt;GroupApiModule</title>
<path fill="none" stroke="black" d="M296,-122.27C296,-140.56 296,-166 296,-166 296,-166 510.71,-166 510.71,-166"/>
<polygon fill="black" stroke="black" points="510.71,-169.5 520.71,-166 510.71,-162.5 510.71,-169.5"/>
</g>
<!-- UserModule -->
<g id="node9" class="node">
<title>UserModule</title>
<polygon fill="#8dd3c7" stroke="black" points="227.98,-122 224.98,-126 203.98,-126 200.98,-122 142.02,-122 142.02,-86 227.98,-86 227.98,-122"/>
<text text-anchor="middle" x="185" y="-99.8" font-family="Times,serif" font-size="14.00">UserModule</text>
</g>
<!-- UserModule&#45;&gt;GroupApiModule -->
<g id="edge9" class="edge">
<title>UserModule&#45;&gt;GroupApiModule</title>
<path fill="none" stroke="black" d="M185,-122.13C185,-142.57 185,-173 185,-173 185,-173 510.44,-173 510.44,-173"/>
<polygon fill="black" stroke="black" points="510.44,-176.5 520.44,-173 510.44,-169.5 510.44,-176.5"/>
</g>
<!-- GroupUc -->
<g id="node11" class="node">
<title>GroupUc</title>
<ellipse fill="#fdb462" stroke="black" cx="71" cy="-104" rx="46.93" ry="18"/>
<text text-anchor="middle" x="71" y="-99.8" font-family="Times,serif" font-size="14.00">GroupUc</text>
</g>
<!-- GroupUc&#45;&gt;GroupApiModule -->
<g id="edge10" class="edge">
<title>GroupUc&#45;&gt;GroupApiModule</title>
<path fill="none" stroke="black" d="M71,-122.01C71,-144.49 71,-180 71,-180 71,-180 510.73,-180 510.73,-180"/>
<polygon fill="black" stroke="black" points="510.73,-183.5 520.73,-180 510.73,-176.5 510.73,-183.5"/>
</g>
</g>
</svg>
