<?xml version="1.0" encoding="UTF-8" standalone="no"?>
<!DOCTYPE svg PUBLIC "-//W3C//DTD SVG 1.1//EN"
 "http://www.w3.org/Graphics/SVG/1.1/DTD/svg11.dtd">
<!-- Generated by graphviz version 2.47.0 (20210316.0004)
 -->
<!-- Title: dependencies Pages: 1 -->
<svg width="848pt" height="284pt"
 viewBox="0.00 0.00 848.00 284.00" xmlns="http://www.w3.org/2000/svg" xmlns:xlink="http://www.w3.org/1999/xlink">
<g id="graph0" class="graph" transform="scale(1 1) rotate(0) translate(4 280)">
<title>dependencies</title>
<polygon fill="white" stroke="transparent" points="-4,4 -4,-280 844,-280 844,4 -4,4"/>
<text text-anchor="start" x="399.01" y="-42.4" font-family="Times-12" font-weight="bold" font-size="14.00">Legend</text>
<polygon fill="#ffffb3" stroke="transparent" points="186,-10 186,-30 206,-30 206,-10 186,-10"/>
<text text-anchor="start" x="209.63" y="-15.4" font-family="Times-12" font-size="14.00"> &#160;Declarations</text>
<polygon fill="#8dd3c7" stroke="transparent" points="299,-10 299,-30 319,-30 319,-10 299,-10"/>
<text text-anchor="start" x="322.73" y="-15.4" font-family="Times-12" font-size="14.00"> &#160;Module</text>
<polygon fill="#80b1d3" stroke="transparent" points="385,-10 385,-30 405,-30 405,-10 385,-10"/>
<text text-anchor="start" x="408.78" y="-15.4" font-family="Times-12" font-size="14.00"> &#160;Bootstrap</text>
<polygon fill="#fdb462" stroke="transparent" points="482,-10 482,-30 502,-30 502,-10 482,-10"/>
<text text-anchor="start" x="505.67" y="-15.4" font-family="Times-12" font-size="14.00"> &#160;Providers</text>
<polygon fill="#fb8072" stroke="transparent" points="578,-10 578,-30 598,-30 598,-10 578,-10"/>
<text text-anchor="start" x="601.73" y="-15.4" font-family="Times-12" font-size="14.00"> &#160;Exports</text>
<g id="clust1" class="cluster">
<title>cluster_DeletionModule</title>
<polygon fill="none" stroke="black" stroke-dasharray="1,5" points="8,-70 8,-268 832,-268 832,-70 8,-70"/>
</g>
<g id="clust4" class="cluster">
<title>cluster_DeletionModule_exports</title>
<polygon fill="none" stroke="black" points="281,-208 281,-260 602,-260 602,-208 281,-208"/>
</g>
<g id="clust6" class="cluster">
<title>cluster_DeletionModule_providers</title>
<polygon fill="none" stroke="black" points="16,-78 16,-130 824,-130 824,-78 16,-78"/>
</g>
<!-- DeletionLogService  -->
<g id="node1" class="node">
<title>DeletionLogService </title>
<polygon fill="#fb8072" stroke="black" points="594.24,-252 461.76,-252 461.76,-216 594.24,-216 594.24,-252"/>
<text text-anchor="middle" x="528" y="-229.8" font-family="Times,serif" font-size="14.00">DeletionLogService </text>
</g>
<!-- DeletionRequestService  -->
<g id="node2" class="node">
<title>DeletionRequestService </title>
<polygon fill="#fb8072" stroke="black" points="443.29,-252 288.71,-252 288.71,-216 443.29,-216 443.29,-252"/>
<text text-anchor="middle" x="366" y="-229.8" font-family="Times,serif" font-size="14.00">DeletionRequestService </text>
</g>
<!-- DeletionModule -->
<g id="node3" class="node">
<title>DeletionModule</title>
<polygon fill="#8dd3c7" stroke="black" points="500.76,-187 497.76,-191 476.76,-191 473.76,-187 393.24,-187 393.24,-151 500.76,-151 500.76,-187"/>
<text text-anchor="middle" x="447" y="-164.8" font-family="Times,serif" font-size="14.00">DeletionModule</text>
</g>
<!-- DeletionModule&#45;&gt;DeletionLogService  -->
<g id="edge1" class="edge">
<title>DeletionModule&#45;&gt;DeletionLogService </title>
<path fill="none" stroke="black" stroke-dasharray="5,2" d="M481.38,-187.11C481.38,-187.11 481.38,-205.99 481.38,-205.99"/>
<polygon fill="black" stroke="black" points="477.88,-205.99 481.38,-215.99 484.88,-205.99 477.88,-205.99"/>
</g>
<!-- DeletionModule&#45;&gt;DeletionRequestService  -->
<g id="edge2" class="edge">
<title>DeletionModule&#45;&gt;DeletionRequestService </title>
<path fill="none" stroke="black" stroke-dasharray="5,2" d="M418.26,-187.11C418.26,-187.11 418.26,-205.99 418.26,-205.99"/>
<polygon fill="black" stroke="black" points="414.76,-205.99 418.26,-215.99 421.76,-205.99 414.76,-205.99"/>
</g>
<!-- DeletionLogRepo -->
<g id="node4" class="node">
<title>DeletionLogRepo</title>
<ellipse fill="#fdb462" stroke="black" cx="736" cy="-104" rx="80.46" ry="18"/>
<text text-anchor="middle" x="736" y="-99.8" font-family="Times,serif" font-size="14.00">DeletionLogRepo</text>
</g>
<!-- DeletionLogRepo&#45;&gt;DeletionModule -->
<g id="edge3" class="edge">
<title>DeletionLogRepo&#45;&gt;DeletionModule</title>
<path fill="none" stroke="black" d="M736,-122.11C736,-141.34 736,-169 736,-169 736,-169 511.02,-169 511.02,-169"/>
<polygon fill="black" stroke="black" points="511.02,-165.5 501.02,-169 511.02,-172.5 511.02,-165.5"/>
</g>
<!-- DeletionLogService -->
<g id="node5" class="node">
<title>DeletionLogService</title>
<ellipse fill="#fdb462" stroke="black" cx="549" cy="-104" rx="88.6" ry="18"/>
<text text-anchor="middle" x="549" y="-99.8" font-family="Times,serif" font-size="14.00">DeletionLogService</text>
</g>
<!-- DeletionLogService&#45;&gt;DeletionModule -->
<g id="edge4" class="edge">
<title>DeletionLogService&#45;&gt;DeletionModule</title>
<path fill="none" stroke="black" d="M480.54,-115.62C480.54,-115.62 480.54,-140.85 480.54,-140.85"/>
<polygon fill="black" stroke="black" points="477.04,-140.85 480.54,-150.85 484.04,-140.85 477.04,-140.85"/>
</g>
<!-- DeletionRequestRepo -->
<g id="node6" class="node">
<title>DeletionRequestRepo</title>
<ellipse fill="#fdb462" stroke="black" cx="346" cy="-104" rx="95.57" ry="18"/>
<text text-anchor="middle" x="346" y="-99.8" font-family="Times,serif" font-size="14.00">DeletionRequestRepo</text>
</g>
<!-- DeletionRequestRepo&#45;&gt;DeletionModule -->
<g id="edge5" class="edge">
<title>DeletionRequestRepo&#45;&gt;DeletionModule</title>
<path fill="none" stroke="black" d="M417.45,-116.23C417.45,-116.23 417.45,-140.68 417.45,-140.68"/>
<polygon fill="black" stroke="black" points="413.95,-140.68 417.45,-150.68 420.95,-140.68 413.95,-140.68"/>
</g>
<!-- DeletionRequestService -->
<g id="node7" class="node">
<title>DeletionRequestService</title>
<ellipse fill="#fdb462" stroke="black" cx="128" cy="-104" rx="104.21" ry="18"/>
<text text-anchor="middle" x="128" y="-99.8" font-family="Times,serif" font-size="14.00">DeletionRequestService</text>
</g>
<!-- DeletionRequestService&#45;&gt;DeletionModule -->
<g id="edge6" class="edge">
<title>DeletionRequestService&#45;&gt;DeletionModule</title>
<path fill="none" stroke="black" d="M128,-122.11C128,-141.34 128,-169 128,-169 128,-169 382.89,-169 382.89,-169"/>
<polygon fill="black" stroke="black" points="382.89,-172.5 392.89,-169 382.89,-165.5 382.89,-172.5"/>
</g>
</g>
</svg>
