<?xml version="1.0" encoding="UTF-8" standalone="no"?>
<!DOCTYPE svg PUBLIC "-//W3C//DTD SVG 1.1//EN"
 "http://www.w3.org/Graphics/SVG/1.1/DTD/svg11.dtd">
<!-- Generated by graphviz version 2.47.0 (20210316.0004)
 -->
<!-- Title: dependencies Pages: 1 -->
<svg width="598pt" height="284pt"
 viewBox="0.00 0.00 598.00 284.00" xmlns="http://www.w3.org/2000/svg" xmlns:xlink="http://www.w3.org/1999/xlink">
<g id="graph0" class="graph" transform="scale(1 1) rotate(0) translate(4 280)">
<title>dependencies</title>
<polygon fill="white" stroke="transparent" points="-4,4 -4,-280 594,-280 594,4 -4,4"/>
<text text-anchor="start" x="274.01" y="-42.4" font-family="Times-12" font-weight="bold" font-size="14.00">Legend</text>
<polygon fill="#ffffb3" stroke="transparent" points="61,-10 61,-30 81,-30 81,-10 61,-10"/>
<text text-anchor="start" x="84.63" y="-15.4" font-family="Times-12" font-size="14.00"> &#160;Declarations</text>
<polygon fill="#8dd3c7" stroke="transparent" points="174,-10 174,-30 194,-30 194,-10 174,-10"/>
<text text-anchor="start" x="197.73" y="-15.4" font-family="Times-12" font-size="14.00"> &#160;Module</text>
<polygon fill="#80b1d3" stroke="transparent" points="260,-10 260,-30 280,-30 280,-10 260,-10"/>
<text text-anchor="start" x="283.78" y="-15.4" font-family="Times-12" font-size="14.00"> &#160;Bootstrap</text>
<polygon fill="#fdb462" stroke="transparent" points="357,-10 357,-30 377,-30 377,-10 357,-10"/>
<text text-anchor="start" x="380.67" y="-15.4" font-family="Times-12" font-size="14.00"> &#160;Providers</text>
<polygon fill="#fb8072" stroke="transparent" points="453,-10 453,-30 473,-30 473,-10 453,-10"/>
<text text-anchor="start" x="476.73" y="-15.4" font-family="Times-12" font-size="14.00"> &#160;Exports</text>
<g id="clust1" class="cluster">
<title>cluster_DeletionModule</title>
<polygon fill="none" stroke="black" stroke-dasharray="1,5" points="8,-70 8,-268 582,-268 582,-70 8,-70"/>
</g>
<g id="clust3" class="cluster">
<title>cluster_DeletionModule_imports</title>
<polygon fill="none" stroke="black" points="458,-78 458,-130 574,-130 574,-78 458,-78"/>
</g>
<g id="clust6" class="cluster">
<title>cluster_DeletionModule_providers</title>
<polygon fill="none" stroke="black" points="16,-78 16,-130 450,-130 450,-78 16,-78"/>
</g>
<g id="clust4" class="cluster">
<title>cluster_DeletionModule_exports</title>
<polygon fill="none" stroke="black" points="261,-208 261,-260 431,-260 431,-208 261,-208"/>
</g>
<!-- LoggerModule -->
<g id="node1" class="node">
<title>LoggerModule</title>
<polygon fill="#8dd3c7" stroke="black" points="565.98,-122 562.98,-126 541.98,-126 538.98,-122 466.02,-122 466.02,-86 565.98,-86 565.98,-122"/>
<text text-anchor="middle" x="516" y="-99.8" font-family="Times,serif" font-size="14.00">LoggerModule</text>
</g>
<!-- DeletionModule -->
<g id="node2" class="node">
<title>DeletionModule</title>
<polygon fill="#8dd3c7" stroke="black" points="399.76,-187 396.76,-191 375.76,-191 372.76,-187 292.24,-187 292.24,-151 399.76,-151 399.76,-187"/>
<text text-anchor="middle" x="346" y="-164.8" font-family="Times,serif" font-size="14.00">DeletionModule</text>
</g>
<!-- LoggerModule&#45;&gt;DeletionModule -->
<g id="edge1" class="edge">
<title>LoggerModule&#45;&gt;DeletionModule</title>
<path fill="none" stroke="black" d="M516,-122.11C516,-141.34 516,-169 516,-169 516,-169 409.79,-169 409.79,-169"/>
<polygon fill="black" stroke="black" points="409.79,-165.5 399.79,-169 409.79,-172.5 409.79,-165.5"/>
</g>
<!-- DeletionRequestService  -->
<g id="node3" class="node">
<title>DeletionRequestService </title>
<polygon fill="#fb8072" stroke="black" points="423.29,-252 268.71,-252 268.71,-216 423.29,-216 423.29,-252"/>
<text text-anchor="middle" x="346" y="-229.8" font-family="Times,serif" font-size="14.00">DeletionRequestService </text>
</g>
<!-- DeletionModule&#45;&gt;DeletionRequestService  -->
<g id="edge2" class="edge">
<title>DeletionModule&#45;&gt;DeletionRequestService </title>
<path fill="none" stroke="black" stroke-dasharray="5,2" d="M346,-187.11C346,-187.11 346,-205.99 346,-205.99"/>
<polygon fill="black" stroke="black" points="342.5,-205.99 346,-215.99 349.5,-205.99 342.5,-205.99"/>
</g>
<!-- DeletionRequestRepo -->
<g id="node4" class="node">
<title>DeletionRequestRepo</title>
<ellipse fill="#fdb462" stroke="black" cx="346" cy="-104" rx="95.57" ry="18"/>
<text text-anchor="middle" x="346" y="-99.8" font-family="Times,serif" font-size="14.00">DeletionRequestRepo</text>
</g>
<!-- DeletionRequestRepo&#45;&gt;DeletionModule -->
<g id="edge3" class="edge">
<title>DeletionRequestRepo&#45;&gt;DeletionModule</title>
<path fill="none" stroke="black" d="M346,-122.11C346,-122.11 346,-140.99 346,-140.99"/>
<polygon fill="black" stroke="black" points="342.5,-140.99 346,-150.99 349.5,-140.99 342.5,-140.99"/>
</g>
<!-- DeletionRequestService -->
<g id="node5" class="node">
<title>DeletionRequestService</title>
<ellipse fill="#fdb462" stroke="black" cx="128" cy="-104" rx="104.21" ry="18"/>
<text text-anchor="middle" x="128" y="-99.8" font-family="Times,serif" font-size="14.00">DeletionRequestService</text>
</g>
<!-- DeletionRequestService&#45;&gt;DeletionModule -->
<g id="edge4" class="edge">
<title>DeletionRequestService&#45;&gt;DeletionModule</title>
<path fill="none" stroke="black" d="M128,-122.11C128,-141.34 128,-169 128,-169 128,-169 282.11,-169 282.11,-169"/>
<polygon fill="black" stroke="black" points="282.11,-172.5 292.11,-169 282.11,-165.5 282.11,-172.5"/>
</g>
</g>
</svg>
