<?xml version="1.0" encoding="UTF-8" standalone="no"?>
<!DOCTYPE svg PUBLIC "-//W3C//DTD SVG 1.1//EN"
 "http://www.w3.org/Graphics/SVG/1.1/DTD/svg11.dtd">
<!-- Generated by graphviz version 2.47.0 (20210316.0004)
 -->
<!-- Title: dependencies Pages: 1 -->
<svg width="598pt" height="284pt"
 viewBox="0.00 0.00 598.00 284.00" xmlns="http://www.w3.org/2000/svg" xmlns:xlink="http://www.w3.org/1999/xlink">
<g id="graph0" class="graph" transform="scale(1 1) rotate(0) translate(4 280)">
<title>dependencies</title>
<polygon fill="white" stroke="transparent" points="-4,4 -4,-280 594,-280 594,4 -4,4"/>
<text text-anchor="start" x="274.01" y="-42.4" font-family="Times-12" font-weight="bold" font-size="14.00">Legend</text>
<polygon fill="#ffffb3" stroke="transparent" points="61,-10 61,-30 81,-30 81,-10 61,-10"/>
<text text-anchor="start" x="84.63" y="-15.4" font-family="Times-12" font-size="14.00"> &#160;Declarations</text>
<polygon fill="#8dd3c7" stroke="transparent" points="174,-10 174,-30 194,-30 194,-10 174,-10"/>
<text text-anchor="start" x="197.73" y="-15.4" font-family="Times-12" font-size="14.00"> &#160;Module</text>
<polygon fill="#80b1d3" stroke="transparent" points="260,-10 260,-30 280,-30 280,-10 260,-10"/>
<text text-anchor="start" x="283.78" y="-15.4" font-family="Times-12" font-size="14.00"> &#160;Bootstrap</text>
<polygon fill="#fdb462" stroke="transparent" points="357,-10 357,-30 377,-30 377,-10 357,-10"/>
<text text-anchor="start" x="380.67" y="-15.4" font-family="Times-12" font-size="14.00"> &#160;Providers</text>
<polygon fill="#fb8072" stroke="transparent" points="453,-10 453,-30 473,-30 473,-10 453,-10"/>
<text text-anchor="start" x="476.73" y="-15.4" font-family="Times-12" font-size="14.00"> &#160;Exports</text>
<g id="clust1" class="cluster">
<title>cluster_DeletionModule</title>
<polygon fill="none" stroke="black" stroke-dasharray="1,5" points="8,-70 8,-268 582,-268 582,-70 8,-70"/>
</g>
<g id="clust6" class="cluster">
<title>cluster_DeletionModule_providers</title>
<polygon fill="none" stroke="black" points="140,-78 140,-130 574,-130 574,-78 140,-78"/>
</g>
<g id="clust4" class="cluster">
<title>cluster_DeletionModule_exports</title>
<polygon fill="none" stroke="black" points="167,-208 167,-260 337,-260 337,-208 167,-208"/>
</g>
<g id="clust3" class="cluster">
<title>cluster_DeletionModule_imports</title>
<polygon fill="none" stroke="black" points="16,-78 16,-130 132,-130 132,-78 16,-78"/>
</g>
<!-- LoggerModule -->
<g id="node1" class="node">
<title>LoggerModule</title>
<polygon fill="#8dd3c7" stroke="black" points="123.98,-122 120.98,-126 99.98,-126 96.98,-122 24.02,-122 24.02,-86 123.98,-86 123.98,-122"/>
<text text-anchor="middle" x="74" y="-99.8" font-family="Times,serif" font-size="14.00">LoggerModule</text>
</g>
<!-- DeletionModule -->
<g id="node2" class="node">
<title>DeletionModule</title>
<polygon fill="#8dd3c7" stroke="black" points="305.76,-187 302.76,-191 281.76,-191 278.76,-187 198.24,-187 198.24,-151 305.76,-151 305.76,-187"/>
<text text-anchor="middle" x="252" y="-164.8" font-family="Times,serif" font-size="14.00">DeletionModule</text>
</g>
<!-- LoggerModule&#45;&gt;DeletionModule -->
<g id="edge1" class="edge">
<title>LoggerModule&#45;&gt;DeletionModule</title>
<path fill="none" stroke="black" d="M74,-122.11C74,-141.34 74,-169 74,-169 74,-169 188.11,-169 188.11,-169"/>
<polygon fill="black" stroke="black" points="188.11,-172.5 198.11,-169 188.11,-165.5 188.11,-172.5"/>
</g>
<!-- DeletionRequestService  -->
<g id="node3" class="node">
<title>DeletionRequestService </title>
<polygon fill="#fb8072" stroke="black" points="329.29,-252 174.71,-252 174.71,-216 329.29,-216 329.29,-252"/>
<text text-anchor="middle" x="252" y="-229.8" font-family="Times,serif" font-size="14.00">DeletionRequestService </text>
</g>
<!-- DeletionModule&#45;&gt;DeletionRequestService  -->
<g id="edge2" class="edge">
<title>DeletionModule&#45;&gt;DeletionRequestService </title>
<path fill="none" stroke="black" stroke-dasharray="5,2" d="M252,-187.11C252,-187.11 252,-205.99 252,-205.99"/>
<polygon fill="black" stroke="black" points="248.5,-205.99 252,-215.99 255.5,-205.99 248.5,-205.99"/>
</g>
<!-- DeletionRequestRepo -->
<g id="node4" class="node">
<title>DeletionRequestRepo</title>
<ellipse fill="#fdb462" stroke="black" cx="470" cy="-104" rx="95.57" ry="18"/>
<text text-anchor="middle" x="470" y="-99.8" font-family="Times,serif" font-size="14.00">DeletionRequestRepo</text>
</g>
<!-- DeletionRequestRepo&#45;&gt;DeletionModule -->
<g id="edge3" class="edge">
<title>DeletionRequestRepo&#45;&gt;DeletionModule</title>
<path fill="none" stroke="black" d="M470,-122.11C470,-141.34 470,-169 470,-169 470,-169 315.89,-169 315.89,-169"/>
<polygon fill="black" stroke="black" points="315.89,-165.5 305.89,-169 315.89,-172.5 315.89,-165.5"/>
</g>
<!-- DeletionRequestService -->
<g id="node5" class="node">
<title>DeletionRequestService</title>
<ellipse fill="#fdb462" stroke="black" cx="252" cy="-104" rx="104.21" ry="18"/>
<text text-anchor="middle" x="252" y="-99.8" font-family="Times,serif" font-size="14.00">DeletionRequestService</text>
</g>
<!-- DeletionRequestService&#45;&gt;DeletionModule -->
<g id="edge4" class="edge">
<title>DeletionRequestService&#45;&gt;DeletionModule</title>
<path fill="none" stroke="black" d="M252,-122.11C252,-122.11 252,-140.99 252,-140.99"/>
<polygon fill="black" stroke="black" points="248.5,-140.99 252,-150.99 255.5,-140.99 248.5,-140.99"/>
</g>
</g>
</svg>
