<?xml version="1.0" encoding="UTF-8" standalone="no"?>
<!DOCTYPE svg PUBLIC "-//W3C//DTD SVG 1.1//EN"
 "http://www.w3.org/Graphics/SVG/1.1/DTD/svg11.dtd">
<!-- Generated by graphviz version 2.47.0 (20210316.0004)
 -->
<!-- Title: dependencies Pages: 1 -->
<svg width="3008pt" height="211pt"
 viewBox="0.00 0.00 3008.00 211.00" xmlns="http://www.w3.org/2000/svg" xmlns:xlink="http://www.w3.org/1999/xlink">
<g id="graph0" class="graph" transform="scale(1 1) rotate(0) translate(4 207)">
<title>dependencies</title>
<polygon fill="white" stroke="transparent" points="-4,4 -4,-207 3004,-207 3004,4 -4,4"/>
<text text-anchor="start" x="1479.01" y="-42.4" font-family="Times-12" font-weight="bold" font-size="14.00">Legend</text>
<polygon fill="#ffffb3" stroke="transparent" points="1266,-10 1266,-30 1286,-30 1286,-10 1266,-10"/>
<text text-anchor="start" x="1289.63" y="-15.4" font-family="Times-12" font-size="14.00"> &#160;Declarations</text>
<polygon fill="#8dd3c7" stroke="transparent" points="1379,-10 1379,-30 1399,-30 1399,-10 1379,-10"/>
<text text-anchor="start" x="1402.73" y="-15.4" font-family="Times-12" font-size="14.00"> &#160;Module</text>
<polygon fill="#80b1d3" stroke="transparent" points="1465,-10 1465,-30 1485,-30 1485,-10 1465,-10"/>
<text text-anchor="start" x="1488.78" y="-15.4" font-family="Times-12" font-size="14.00"> &#160;Bootstrap</text>
<polygon fill="#fdb462" stroke="transparent" points="1562,-10 1562,-30 1582,-30 1582,-10 1562,-10"/>
<text text-anchor="start" x="1585.67" y="-15.4" font-family="Times-12" font-size="14.00"> &#160;Providers</text>
<polygon fill="#fb8072" stroke="transparent" points="1658,-10 1658,-30 1678,-30 1678,-10 1658,-10"/>
<text text-anchor="start" x="1681.73" y="-15.4" font-family="Times-12" font-size="14.00"> &#160;Exports</text>
<g id="clust1" class="cluster">
<title>cluster_ToolApiModule</title>
<polygon fill="none" stroke="black" stroke-dasharray="1,5" points="8,-70 8,-195 2992,-195 2992,-70 8,-70"/>
</g>
<g id="clust3" class="cluster">
<title>cluster_ToolApiModule_imports</title>
<polygon fill="none" stroke="black" points="2388,-78 2388,-130 2984,-130 2984,-78 2388,-78"/>
</g>
<g id="clust6" class="cluster">
<title>cluster_ToolApiModule_providers</title>
<polygon fill="none" stroke="black" points="16,-78 16,-130 2380,-130 2380,-78 16,-78"/>
</g>
<!-- AuthorizationModule -->
<g id="node1" class="node">
<title>AuthorizationModule</title>
<polygon fill="#8dd3c7" stroke="black" points="2975.81,-122 2972.81,-126 2951.81,-126 2948.81,-122 2838.19,-122 2838.19,-86 2975.81,-86 2975.81,-122"/>
<text text-anchor="middle" x="2907" y="-99.8" font-family="Times,serif" font-size="14.00">AuthorizationModule</text>
</g>
<!-- ToolApiModule -->
<g id="node6" class="node">
<title>ToolApiModule</title>
<polygon fill="#8dd3c7" stroke="black" points="1803.49,-187 1800.49,-191 1779.49,-191 1776.49,-187 1696.51,-187 1696.51,-151 1803.49,-151 1803.49,-187"/>
<text text-anchor="middle" x="1750" y="-164.8" font-family="Times,serif" font-size="14.00">ToolApiModule</text>
</g>
<!-- AuthorizationModule&#45;&gt;ToolApiModule -->
<g id="edge1" class="edge">
<title>AuthorizationModule&#45;&gt;ToolApiModule</title>
<path fill="none" stroke="black" d="M2907,-122.32C2907,-145.66 2907,-183 2907,-183 2907,-183 1813.87,-183 1813.87,-183"/>
<polygon fill="black" stroke="black" points="1813.87,-179.5 1803.87,-183 1813.87,-186.5 1813.87,-179.5"/>
</g>
<!-- LoggerModule -->
<g id="node2" class="node">
<title>LoggerModule</title>
<polygon fill="#8dd3c7" stroke="black" points="2819.98,-122 2816.98,-126 2795.98,-126 2792.98,-122 2720.02,-122 2720.02,-86 2819.98,-86 2819.98,-122"/>
<text text-anchor="middle" x="2770" y="-99.8" font-family="Times,serif" font-size="14.00">LoggerModule</text>
</g>
<!-- LoggerModule&#45;&gt;ToolApiModule -->
<g id="edge2" class="edge">
<title>LoggerModule&#45;&gt;ToolApiModule</title>
<path fill="none" stroke="black" d="M2770,-122.29C2770,-144.21 2770,-178 2770,-178 2770,-178 1813.76,-178 1813.76,-178"/>
<polygon fill="black" stroke="black" points="1813.76,-174.5 1803.76,-178 1813.76,-181.5 1813.76,-174.5"/>
</g>
<!-- SchoolModule -->
<g id="node3" class="node">
<title>SchoolModule</title>
<polygon fill="#8dd3c7" stroke="black" points="2702.44,-122 2699.44,-126 2678.44,-126 2675.44,-122 2603.56,-122 2603.56,-86 2702.44,-86 2702.44,-122"/>
<text text-anchor="middle" x="2653" y="-99.8" font-family="Times,serif" font-size="14.00">SchoolModule</text>
</g>
<!-- SchoolModule&#45;&gt;ToolApiModule -->
<g id="edge3" class="edge">
<title>SchoolModule&#45;&gt;ToolApiModule</title>
<path fill="none" stroke="black" d="M2653,-122.03C2653,-142.77 2653,-174 2653,-174 2653,-174 1813.78,-174 1813.78,-174"/>
<polygon fill="black" stroke="black" points="1813.78,-170.5 1803.78,-174 1813.78,-177.5 1813.78,-170.5"/>
</g>
<!-- ToolModule -->
<g id="node4" class="node">
<title>ToolModule</title>
<polygon fill="#8dd3c7" stroke="black" points="2585.99,-122 2582.99,-126 2561.99,-126 2558.99,-122 2500.01,-122 2500.01,-86 2585.99,-86 2585.99,-122"/>
<text text-anchor="middle" x="2543" y="-99.8" font-family="Times,serif" font-size="14.00">ToolModule</text>
</g>
<!-- ToolModule&#45;&gt;ToolApiModule -->
<g id="edge4" class="edge">
<title>ToolModule&#45;&gt;ToolApiModule</title>
<path fill="none" stroke="black" d="M2543,-122.11C2543,-141.34 2543,-169 2543,-169 2543,-169 1813.57,-169 1813.57,-169"/>
<polygon fill="black" stroke="black" points="1813.57,-165.5 1803.57,-169 1813.57,-172.5 1813.57,-165.5"/>
</g>
<!-- UserModule -->
<g id="node5" class="node">
<title>UserModule</title>
<polygon fill="#8dd3c7" stroke="black" points="2481.98,-122 2478.98,-126 2457.98,-126 2454.98,-122 2396.02,-122 2396.02,-86 2481.98,-86 2481.98,-122"/>
<text text-anchor="middle" x="2439" y="-99.8" font-family="Times,serif" font-size="14.00">UserModule</text>
</g>
<!-- UserModule&#45;&gt;ToolApiModule -->
<g id="edge5" class="edge">
<title>UserModule&#45;&gt;ToolApiModule</title>
<path fill="none" stroke="black" d="M2439,-122.3C2439,-140.27 2439,-165 2439,-165 2439,-165 1813.49,-165 1813.49,-165"/>
<polygon fill="black" stroke="black" points="1813.49,-161.5 1803.49,-165 1813.49,-168.5 1813.49,-161.5"/>
</g>
<!-- ContextExternalToolUc -->
<g id="node7" class="node">
<title>ContextExternalToolUc</title>
<ellipse fill="#fdb462" stroke="black" cx="2268" cy="-104" rx="103.65" ry="18"/>
<text text-anchor="middle" x="2268" y="-99.8" font-family="Times,serif" font-size="14.00">ContextExternalToolUc</text>
</g>
<!-- ContextExternalToolUc&#45;&gt;ToolApiModule -->
<g id="edge6" class="edge">
<title>ContextExternalToolUc&#45;&gt;ToolApiModule</title>
<path fill="none" stroke="black" d="M2268,-122.03C2268,-138.4 2268,-160 2268,-160 2268,-160 1813.97,-160 1813.97,-160"/>
<polygon fill="black" stroke="black" points="1813.97,-156.5 1803.97,-160 1813.97,-163.5 1813.97,-156.5"/>
</g>
<!-- ExternalToolConfigurationUc -->
<g id="node8" class="node">
<title>ExternalToolConfigurationUc</title>
<ellipse fill="#fdb462" stroke="black" cx="2019" cy="-104" rx="127.35" ry="18"/>
<text text-anchor="middle" x="2019" y="-99.8" font-family="Times,serif" font-size="14.00">ExternalToolConfigurationUc</text>
</g>
<!-- ExternalToolConfigurationUc&#45;&gt;ToolApiModule -->
<g id="edge7" class="edge">
<title>ExternalToolConfigurationUc&#45;&gt;ToolApiModule</title>
<path fill="none" stroke="black" d="M2019,-122.19C2019,-137.18 2019,-156 2019,-156 2019,-156 1813.79,-156 1813.79,-156"/>
<polygon fill="black" stroke="black" points="1813.79,-152.5 1803.79,-156 1813.79,-159.5 1813.79,-152.5"/>
</g>
<!-- ExternalToolRequestMapper -->
<g id="node9" class="node">
<title>ExternalToolRequestMapper</title>
<ellipse fill="#fdb462" stroke="black" cx="1750" cy="-104" rx="123.26" ry="18"/>
<text text-anchor="middle" x="1750" y="-99.8" font-family="Times,serif" font-size="14.00">ExternalToolRequestMapper</text>
</g>
<!-- ExternalToolRequestMapper&#45;&gt;ToolApiModule -->
<g id="edge8" class="edge">
<title>ExternalToolRequestMapper&#45;&gt;ToolApiModule</title>
<path fill="none" stroke="black" d="M1750,-122.11C1750,-122.11 1750,-140.99 1750,-140.99"/>
<polygon fill="black" stroke="black" points="1746.5,-140.99 1750,-150.99 1753.5,-140.99 1746.5,-140.99"/>
</g>
<!-- ExternalToolResponseMapper -->
<g id="node10" class="node">
<title>ExternalToolResponseMapper</title>
<ellipse fill="#fdb462" stroke="black" cx="1480" cy="-104" rx="129.06" ry="18"/>
<text text-anchor="middle" x="1480" y="-99.8" font-family="Times,serif" font-size="14.00">ExternalToolResponseMapper</text>
</g>
<!-- ExternalToolResponseMapper&#45;&gt;ToolApiModule -->
<g id="edge9" class="edge">
<title>ExternalToolResponseMapper&#45;&gt;ToolApiModule</title>
<path fill="none" stroke="black" d="M1480,-122.19C1480,-137.18 1480,-156 1480,-156 1480,-156 1686.33,-156 1686.33,-156"/>
<polygon fill="black" stroke="black" points="1686.33,-159.5 1696.33,-156 1686.33,-152.5 1686.33,-159.5"/>
</g>
<!-- ExternalToolUc -->
<g id="node11" class="node">
<title>ExternalToolUc</title>
<ellipse fill="#fdb462" stroke="black" cx="1260" cy="-104" rx="73.49" ry="18"/>
<text text-anchor="middle" x="1260" y="-99.8" font-family="Times,serif" font-size="14.00">ExternalToolUc</text>
</g>
<!-- ExternalToolUc&#45;&gt;ToolApiModule -->
<g id="edge10" class="edge">
<title>ExternalToolUc&#45;&gt;ToolApiModule</title>
<path fill="none" stroke="black" d="M1260,-122.03C1260,-138.4 1260,-160 1260,-160 1260,-160 1686.16,-160 1686.16,-160"/>
<polygon fill="black" stroke="black" points="1686.16,-163.5 1696.16,-160 1686.16,-156.5 1686.16,-163.5"/>
</g>
<!-- LtiToolRepo -->
<g id="node12" class="node">
<title>LtiToolRepo</title>
<ellipse fill="#fdb462" stroke="black" cx="1108" cy="-104" rx="60.85" ry="18"/>
<text text-anchor="middle" x="1108" y="-99.8" font-family="Times,serif" font-size="14.00">LtiToolRepo</text>
</g>
<!-- LtiToolRepo&#45;&gt;ToolApiModule -->
<g id="edge11" class="edge">
<title>LtiToolRepo&#45;&gt;ToolApiModule</title>
<path fill="none" stroke="black" d="M1108,-122.3C1108,-140.27 1108,-165 1108,-165 1108,-165 1686.37,-165 1686.37,-165"/>
<polygon fill="black" stroke="black" points="1686.37,-168.5 1696.37,-165 1686.37,-161.5 1686.37,-168.5"/>
</g>
<!-- SchoolExternalToolRequestMapper -->
<g id="node13" class="node">
<title>SchoolExternalToolRequestMapper</title>
<ellipse fill="#fdb462" stroke="black" cx="879" cy="-104" rx="149.9" ry="18"/>
<text text-anchor="middle" x="879" y="-99.8" font-family="Times,serif" font-size="14.00">SchoolExternalToolRequestMapper</text>
</g>
<!-- SchoolExternalToolRequestMapper&#45;&gt;ToolApiModule -->
<g id="edge12" class="edge">
<title>SchoolExternalToolRequestMapper&#45;&gt;ToolApiModule</title>
<path fill="none" stroke="black" d="M879,-122.11C879,-141.34 879,-169 879,-169 879,-169 1686.5,-169 1686.5,-169"/>
<polygon fill="black" stroke="black" points="1686.5,-172.5 1696.5,-169 1686.5,-165.5 1686.5,-172.5"/>
</g>
<!-- SchoolExternalToolResponseMapper -->
<g id="node14" class="node">
<title>SchoolExternalToolResponseMapper</title>
<ellipse fill="#fdb462" stroke="black" cx="555" cy="-104" rx="155.7" ry="18"/>
<text text-anchor="middle" x="555" y="-99.8" font-family="Times,serif" font-size="14.00">SchoolExternalToolResponseMapper</text>
</g>
<!-- SchoolExternalToolResponseMapper&#45;&gt;ToolApiModule -->
<g id="edge13" class="edge">
<title>SchoolExternalToolResponseMapper&#45;&gt;ToolApiModule</title>
<path fill="none" stroke="black" d="M555,-122.03C555,-142.77 555,-174 555,-174 555,-174 1686.33,-174 1686.33,-174"/>
<polygon fill="black" stroke="black" points="1686.33,-177.5 1696.33,-174 1686.33,-170.5 1686.33,-177.5"/>
</g>
<!-- SchoolExternalToolUc -->
<g id="node15" class="node">
<title>SchoolExternalToolUc</title>
<ellipse fill="#fdb462" stroke="black" cx="281" cy="-104" rx="100.14" ry="18"/>
<text text-anchor="middle" x="281" y="-99.8" font-family="Times,serif" font-size="14.00">SchoolExternalToolUc</text>
</g>
<!-- SchoolExternalToolUc&#45;&gt;ToolApiModule -->
<g id="edge14" class="edge">
<title>SchoolExternalToolUc&#45;&gt;ToolApiModule</title>
<path fill="none" stroke="black" d="M281,-122.29C281,-144.21 281,-178 281,-178 281,-178 1686.41,-178 1686.41,-178"/>
<polygon fill="black" stroke="black" points="1686.41,-181.5 1696.41,-178 1686.41,-174.5 1686.41,-181.5"/>
</g>
<!-- ToolLaunchUc -->
<g id="node16" class="node">
<title>ToolLaunchUc</title>
<ellipse fill="#fdb462" stroke="black" cx="93" cy="-104" rx="69.49" ry="18"/>
<text text-anchor="middle" x="93" y="-99.8" font-family="Times,serif" font-size="14.00">ToolLaunchUc</text>
</g>
<!-- ToolLaunchUc&#45;&gt;ToolApiModule -->
<g id="edge15" class="edge">
<title>ToolLaunchUc&#45;&gt;ToolApiModule</title>
<path fill="none" stroke="black" d="M93,-122.32C93,-145.66 93,-183 93,-183 93,-183 1686.28,-183 1686.28,-183"/>
<polygon fill="black" stroke="black" points="1686.28,-186.5 1696.28,-183 1686.28,-179.5 1686.28,-186.5"/>
</g>
</g>
</svg>
