<?xml version="1.0" encoding="UTF-8" standalone="no"?>
<!DOCTYPE svg PUBLIC "-//W3C//DTD SVG 1.1//EN"
 "http://www.w3.org/Graphics/SVG/1.1/DTD/svg11.dtd">
<!-- Generated by graphviz version 2.47.0 (20210316.0004)
 -->
<!-- Title: dependencies Pages: 1 -->
<svg width="3487pt" height="211pt"
 viewBox="0.00 0.00 3487.00 211.00" xmlns="http://www.w3.org/2000/svg" xmlns:xlink="http://www.w3.org/1999/xlink">
<g id="graph0" class="graph" transform="scale(1 1) rotate(0) translate(4 207)">
<title>dependencies</title>
<polygon fill="white" stroke="transparent" points="-4,4 -4,-207 3483,-207 3483,4 -4,4"/>
<text text-anchor="start" x="1718.51" y="-42.4" font-family="Times-12" font-weight="bold" font-size="14.00">Legend</text>
<polygon fill="#ffffb3" stroke="transparent" points="1505.5,-10 1505.5,-30 1525.5,-30 1525.5,-10 1505.5,-10"/>
<text text-anchor="start" x="1529.13" y="-15.4" font-family="Times-12" font-size="14.00"> &#160;Declarations</text>
<polygon fill="#8dd3c7" stroke="transparent" points="1618.5,-10 1618.5,-30 1638.5,-30 1638.5,-10 1618.5,-10"/>
<text text-anchor="start" x="1642.23" y="-15.4" font-family="Times-12" font-size="14.00"> &#160;Module</text>
<polygon fill="#80b1d3" stroke="transparent" points="1704.5,-10 1704.5,-30 1724.5,-30 1724.5,-10 1704.5,-10"/>
<text text-anchor="start" x="1728.28" y="-15.4" font-family="Times-12" font-size="14.00"> &#160;Bootstrap</text>
<polygon fill="#fdb462" stroke="transparent" points="1801.5,-10 1801.5,-30 1821.5,-30 1821.5,-10 1801.5,-10"/>
<text text-anchor="start" x="1825.17" y="-15.4" font-family="Times-12" font-size="14.00"> &#160;Providers</text>
<polygon fill="#fb8072" stroke="transparent" points="1897.5,-10 1897.5,-30 1917.5,-30 1917.5,-10 1897.5,-10"/>
<text text-anchor="start" x="1921.23" y="-15.4" font-family="Times-12" font-size="14.00"> &#160;Exports</text>
<g id="clust1" class="cluster">
<title>cluster_ToolApiModule</title>
<polygon fill="none" stroke="black" stroke-dasharray="1,5" points="8,-70 8,-195 3471,-195 3471,-70 8,-70"/>
</g>
<g id="clust6" class="cluster">
<title>cluster_ToolApiModule_providers</title>
<polygon fill="none" stroke="black" points="620,-78 620,-130 3463,-130 3463,-78 620,-78"/>
</g>
<g id="clust3" class="cluster">
<title>cluster_ToolApiModule_imports</title>
<polygon fill="none" stroke="black" points="16,-78 16,-130 612,-130 612,-78 16,-78"/>
</g>
<!-- AuthorizationModule -->
<g id="node1" class="node">
<title>AuthorizationModule</title>
<polygon fill="#8dd3c7" stroke="black" points="603.81,-122 600.81,-126 579.81,-126 576.81,-122 466.19,-122 466.19,-86 603.81,-86 603.81,-122"/>
<text text-anchor="middle" x="535" y="-99.8" font-family="Times,serif" font-size="14.00">AuthorizationModule</text>
</g>
<!-- ToolApiModule -->
<g id="node6" class="node">
<title>ToolApiModule</title>
<polygon fill="#8dd3c7" stroke="black" points="1650.49,-187 1647.49,-191 1626.49,-191 1623.49,-187 1543.51,-187 1543.51,-151 1650.49,-151 1650.49,-187"/>
<text text-anchor="middle" x="1597" y="-164.8" font-family="Times,serif" font-size="14.00">ToolApiModule</text>
</g>
<!-- AuthorizationModule&#45;&gt;ToolApiModule -->
<g id="edge1" class="edge">
<title>AuthorizationModule&#45;&gt;ToolApiModule</title>
<path fill="none" stroke="black" d="M535,-122.22C535,-140.83 535,-167 535,-167 535,-167 1533.24,-167 1533.24,-167"/>
<polygon fill="black" stroke="black" points="1533.24,-170.5 1543.24,-167 1533.24,-163.5 1533.24,-170.5"/>
</g>
<!-- LoggerModule -->
<g id="node2" class="node">
<title>LoggerModule</title>
<polygon fill="#8dd3c7" stroke="black" points="447.98,-122 444.98,-126 423.98,-126 420.98,-122 348.02,-122 348.02,-86 447.98,-86 447.98,-122"/>
<text text-anchor="middle" x="398" y="-99.8" font-family="Times,serif" font-size="14.00">LoggerModule</text>
</g>
<!-- LoggerModule&#45;&gt;ToolApiModule -->
<g id="edge2" class="edge">
<title>LoggerModule&#45;&gt;ToolApiModule</title>
<path fill="none" stroke="black" d="M398,-122.31C398,-142.15 398,-171 398,-171 398,-171 1533.15,-171 1533.15,-171"/>
<polygon fill="black" stroke="black" points="1533.15,-174.5 1543.15,-171 1533.15,-167.5 1533.15,-174.5"/>
</g>
<!-- SchoolModule -->
<g id="node3" class="node">
<title>SchoolModule</title>
<polygon fill="#8dd3c7" stroke="black" points="330.44,-122 327.44,-126 306.44,-126 303.44,-122 231.56,-122 231.56,-86 330.44,-86 330.44,-122"/>
<text text-anchor="middle" x="281" y="-99.8" font-family="Times,serif" font-size="14.00">SchoolModule</text>
</g>
<!-- SchoolModule&#45;&gt;ToolApiModule -->
<g id="edge3" class="edge">
<title>SchoolModule&#45;&gt;ToolApiModule</title>
<path fill="none" stroke="black" d="M281,-122.28C281,-143.32 281,-175 281,-175 281,-175 1533.37,-175 1533.37,-175"/>
<polygon fill="black" stroke="black" points="1533.37,-178.5 1543.37,-175 1533.37,-171.5 1533.37,-178.5"/>
</g>
<!-- ToolModule -->
<g id="node4" class="node">
<title>ToolModule</title>
<polygon fill="#8dd3c7" stroke="black" points="213.99,-122 210.99,-126 189.99,-126 186.99,-122 128.01,-122 128.01,-86 213.99,-86 213.99,-122"/>
<text text-anchor="middle" x="171" y="-99.8" font-family="Times,serif" font-size="14.00">ToolModule</text>
</g>
<!-- ToolModule&#45;&gt;ToolApiModule -->
<g id="edge4" class="edge">
<title>ToolModule&#45;&gt;ToolApiModule</title>
<path fill="none" stroke="black" d="M171,-122.16C171,-144.35 171,-179 171,-179 171,-179 1533.27,-179 1533.27,-179"/>
<polygon fill="black" stroke="black" points="1533.27,-182.5 1543.27,-179 1533.27,-175.5 1533.27,-182.5"/>
</g>
<!-- UserModule -->
<g id="node5" class="node">
<title>UserModule</title>
<polygon fill="#8dd3c7" stroke="black" points="109.98,-122 106.98,-126 85.98,-126 82.98,-122 24.02,-122 24.02,-86 109.98,-86 109.98,-122"/>
<text text-anchor="middle" x="67" y="-99.8" font-family="Times,serif" font-size="14.00">UserModule</text>
</g>
<!-- UserModule&#45;&gt;ToolApiModule -->
<g id="edge5" class="edge">
<title>UserModule&#45;&gt;ToolApiModule</title>
<path fill="none" stroke="black" d="M67,-122.32C67,-145.66 67,-183 67,-183 67,-183 1533.44,-183 1533.44,-183"/>
<polygon fill="black" stroke="black" points="1533.44,-186.5 1543.44,-183 1533.44,-179.5 1533.44,-186.5"/>
</g>
<!-- ContextExternalToolUc -->
<g id="node7" class="node">
<title>ContextExternalToolUc</title>
<ellipse fill="#fdb462" stroke="black" cx="3351" cy="-104" rx="103.65" ry="18"/>
<text text-anchor="middle" x="3351" y="-99.8" font-family="Times,serif" font-size="14.00">ContextExternalToolUc</text>
</g>
<!-- ContextExternalToolUc&#45;&gt;ToolApiModule -->
<g id="edge6" class="edge">
<title>ContextExternalToolUc&#45;&gt;ToolApiModule</title>
<path fill="none" stroke="black" d="M3351,-122.32C3351,-145.66 3351,-183 3351,-183 3351,-183 1660.93,-183 1660.93,-183"/>
<polygon fill="black" stroke="black" points="1660.93,-179.5 1650.93,-183 1660.93,-186.5 1660.93,-179.5"/>
</g>
<!-- ExternalToolConfigurationUc -->
<g id="node8" class="node">
<title>ExternalToolConfigurationUc</title>
<ellipse fill="#fdb462" stroke="black" cx="3102" cy="-104" rx="127.35" ry="18"/>
<text text-anchor="middle" x="3102" y="-99.8" font-family="Times,serif" font-size="14.00">ExternalToolConfigurationUc</text>
</g>
<!-- ExternalToolConfigurationUc&#45;&gt;ToolApiModule -->
<g id="edge7" class="edge">
<title>ExternalToolConfigurationUc&#45;&gt;ToolApiModule</title>
<path fill="none" stroke="black" d="M3102,-122.16C3102,-144.35 3102,-179 3102,-179 3102,-179 1660.56,-179 1660.56,-179"/>
<polygon fill="black" stroke="black" points="1660.56,-175.5 1650.56,-179 1660.56,-182.5 1660.56,-175.5"/>
</g>
<!-- ExternalToolRequestMapper -->
<g id="node9" class="node">
<title>ExternalToolRequestMapper</title>
<ellipse fill="#fdb462" stroke="black" cx="2833" cy="-104" rx="123.26" ry="18"/>
<text text-anchor="middle" x="2833" y="-99.8" font-family="Times,serif" font-size="14.00">ExternalToolRequestMapper</text>
</g>
<!-- ExternalToolRequestMapper&#45;&gt;ToolApiModule -->
<g id="edge8" class="edge">
<title>ExternalToolRequestMapper&#45;&gt;ToolApiModule</title>
<path fill="none" stroke="black" d="M2833,-122.28C2833,-143.32 2833,-175 2833,-175 2833,-175 1660.51,-175 1660.51,-175"/>
<polygon fill="black" stroke="black" points="1660.51,-171.5 1650.51,-175 1660.51,-178.5 1660.51,-171.5"/>
</g>
<!-- ExternalToolResponseMapper -->
<g id="node10" class="node">
<title>ExternalToolResponseMapper</title>
<ellipse fill="#fdb462" stroke="black" cx="2563" cy="-104" rx="129.06" ry="18"/>
<text text-anchor="middle" x="2563" y="-99.8" font-family="Times,serif" font-size="14.00">ExternalToolResponseMapper</text>
</g>
<!-- ExternalToolResponseMapper&#45;&gt;ToolApiModule -->
<g id="edge9" class="edge">
<title>ExternalToolResponseMapper&#45;&gt;ToolApiModule</title>
<path fill="none" stroke="black" d="M2563,-122.31C2563,-142.15 2563,-171 2563,-171 2563,-171 1660.66,-171 1660.66,-171"/>
<polygon fill="black" stroke="black" points="1660.66,-167.5 1650.66,-171 1660.66,-174.5 1660.66,-167.5"/>
</g>
<!-- ExternalToolUc -->
<g id="node11" class="node">
<title>ExternalToolUc</title>
<ellipse fill="#fdb462" stroke="black" cx="2343" cy="-104" rx="73.49" ry="18"/>
<text text-anchor="middle" x="2343" y="-99.8" font-family="Times,serif" font-size="14.00">ExternalToolUc</text>
</g>
<!-- ExternalToolUc&#45;&gt;ToolApiModule -->
<g id="edge10" class="edge">
<title>ExternalToolUc&#45;&gt;ToolApiModule</title>
<path fill="none" stroke="black" d="M2343,-122.22C2343,-140.83 2343,-167 2343,-167 2343,-167 1660.65,-167 1660.65,-167"/>
<polygon fill="black" stroke="black" points="1660.65,-163.5 1650.65,-167 1660.65,-170.5 1660.65,-163.5"/>
</g>
<!-- Lti11ResponseMapper -->
<g id="node12" class="node">
<title>Lti11ResponseMapper</title>
<ellipse fill="#fdb462" stroke="black" cx="2153" cy="-104" rx="99" ry="18"/>
<text text-anchor="middle" x="2153" y="-99.8" font-family="Times,serif" font-size="14.00">Lti11ResponseMapper</text>
</g>
<!-- Lti11ResponseMapper&#45;&gt;ToolApiModule -->
<g id="edge11" class="edge">
<title>Lti11ResponseMapper&#45;&gt;ToolApiModule</title>
<path fill="none" stroke="black" d="M2153,-122.02C2153,-139.37 2153,-163 2153,-163 2153,-163 1660.56,-163 1660.56,-163"/>
<polygon fill="black" stroke="black" points="1660.56,-159.5 1650.56,-163 1660.56,-166.5 1660.56,-159.5"/>
</g>
<!-- Lti11Uc -->
<g id="node13" class="node">
<title>Lti11Uc</title>
<ellipse fill="#fdb462" stroke="black" cx="1993" cy="-104" rx="43.44" ry="18"/>
<text text-anchor="middle" x="1993" y="-99.8" font-family="Times,serif" font-size="14.00">Lti11Uc</text>
</g>
<!-- Lti11Uc&#45;&gt;ToolApiModule -->
<g id="edge12" class="edge">
<title>Lti11Uc&#45;&gt;ToolApiModule</title>
<path fill="none" stroke="black" d="M1993,-122.01C1993,-138.05 1993,-159 1993,-159 1993,-159 1660.82,-159 1660.82,-159"/>
<polygon fill="black" stroke="black" points="1660.82,-155.5 1650.82,-159 1660.82,-162.5 1660.82,-155.5"/>
</g>
<!-- LtiRoleMapper -->
<g id="node14" class="node">
<title>LtiRoleMapper</title>
<ellipse fill="#fdb462" stroke="black" cx="1861" cy="-104" rx="70.64" ry="18"/>
<text text-anchor="middle" x="1861" y="-99.8" font-family="Times,serif" font-size="14.00">LtiRoleMapper</text>
</g>
<!-- LtiRoleMapper&#45;&gt;ToolApiModule -->
<g id="edge13" class="edge">
<title>LtiRoleMapper&#45;&gt;ToolApiModule</title>
<path fill="none" stroke="black" d="M1861,-122.12C1861,-136.78 1861,-155 1861,-155 1861,-155 1660.74,-155 1660.74,-155"/>
<polygon fill="black" stroke="black" points="1660.74,-151.5 1650.74,-155 1660.74,-158.5 1660.74,-151.5"/>
</g>
<!-- LtiToolRepo -->
<g id="node15" class="node">
<title>LtiToolRepo</title>
<ellipse fill="#fdb462" stroke="black" cx="1712" cy="-104" rx="60.85" ry="18"/>
<text text-anchor="middle" x="1712" y="-99.8" font-family="Times,serif" font-size="14.00">LtiToolRepo</text>
</g>
<!-- LtiToolRepo&#45;&gt;ToolApiModule -->
<g id="edge14" class="edge">
<title>LtiToolRepo&#45;&gt;ToolApiModule</title>
<path fill="none" stroke="black" d="M1650.91,-104C1645.33,-104 1641.72,-104 1641.72,-104 1641.72,-104 1641.72,-140.89 1641.72,-140.89"/>
<polygon fill="black" stroke="black" points="1638.22,-140.89 1641.72,-150.89 1645.22,-140.89 1638.22,-140.89"/>
</g>
<!-- SchoolExternalToolRequestMapper -->
<g id="node16" class="node">
<title>SchoolExternalToolRequestMapper</title>
<ellipse fill="#fdb462" stroke="black" cx="1483" cy="-104" rx="149.9" ry="18"/>
<text text-anchor="middle" x="1483" y="-99.8" font-family="Times,serif" font-size="14.00">SchoolExternalToolRequestMapper</text>
</g>
<!-- SchoolExternalToolRequestMapper&#45;&gt;ToolApiModule -->
<g id="edge15" class="edge">
<title>SchoolExternalToolRequestMapper&#45;&gt;ToolApiModule</title>
<path fill="none" stroke="black" d="M1588.23,-116.84C1588.23,-116.84 1588.23,-140.52 1588.23,-140.52"/>
<polygon fill="black" stroke="black" points="1584.73,-140.52 1588.23,-150.52 1591.73,-140.52 1584.73,-140.52"/>
</g>
<!-- SchoolExternalToolResponseMapper -->
<g id="node17" class="node">
<title>SchoolExternalToolResponseMapper</title>
<ellipse fill="#fdb462" stroke="black" cx="1159" cy="-104" rx="155.7" ry="18"/>
<text text-anchor="middle" x="1159" y="-99.8" font-family="Times,serif" font-size="14.00">SchoolExternalToolResponseMapper</text>
</g>
<!-- SchoolExternalToolResponseMapper&#45;&gt;ToolApiModule -->
<g id="edge16" class="edge">
<title>SchoolExternalToolResponseMapper&#45;&gt;ToolApiModule</title>
<path fill="none" stroke="black" d="M1159,-122.12C1159,-136.78 1159,-155 1159,-155 1159,-155 1533.29,-155 1533.29,-155"/>
<polygon fill="black" stroke="black" points="1533.29,-158.5 1543.29,-155 1533.29,-151.5 1533.29,-158.5"/>
</g>
<!-- SchoolExternalToolUc -->
<g id="node18" class="node">
<title>SchoolExternalToolUc</title>
<ellipse fill="#fdb462" stroke="black" cx="885" cy="-104" rx="100.14" ry="18"/>
<text text-anchor="middle" x="885" y="-99.8" font-family="Times,serif" font-size="14.00">SchoolExternalToolUc</text>
</g>
<!-- SchoolExternalToolUc&#45;&gt;ToolApiModule -->
<g id="edge17" class="edge">
<title>SchoolExternalToolUc&#45;&gt;ToolApiModule</title>
<path fill="none" stroke="black" d="M885,-122.01C885,-138.05 885,-159 885,-159 885,-159 1533.48,-159 1533.48,-159"/>
<polygon fill="black" stroke="black" points="1533.48,-162.5 1543.48,-159 1533.48,-155.5 1533.48,-162.5"/>
</g>
<!-- ToolLaunchUc -->
<g id="node19" class="node">
<title>ToolLaunchUc</title>
<ellipse fill="#fdb462" stroke="black" cx="697" cy="-104" rx="69.49" ry="18"/>
<text text-anchor="middle" x="697" y="-99.8" font-family="Times,serif" font-size="14.00">ToolLaunchUc</text>
</g>
<!-- ToolLaunchUc&#45;&gt;ToolApiModule -->
<g id="edge18" class="edge">
<title>ToolLaunchUc&#45;&gt;ToolApiModule</title>
<path fill="none" stroke="black" d="M697,-122.02C697,-139.37 697,-163 697,-163 697,-163 1533.4,-163 1533.4,-163"/>
<polygon fill="black" stroke="black" points="1533.4,-166.5 1543.4,-163 1533.4,-159.5 1533.4,-166.5"/>
</g>
</g>
</svg>
