<?xml version="1.0" encoding="UTF-8" standalone="no"?>
<!DOCTYPE svg PUBLIC "-//W3C//DTD SVG 1.1//EN"
 "http://www.w3.org/Graphics/SVG/1.1/DTD/svg11.dtd">
<!-- Generated by graphviz version 2.47.0 (20210316.0004)
 -->
<!-- Title: dependencies Pages: 1 -->
<svg width="3776pt" height="211pt"
 viewBox="0.00 0.00 3776.00 211.00" xmlns="http://www.w3.org/2000/svg" xmlns:xlink="http://www.w3.org/1999/xlink">
<g id="graph0" class="graph" transform="scale(1 1) rotate(0) translate(4 207)">
<title>dependencies</title>
<polygon fill="white" stroke="transparent" points="-4,4 -4,-207 3772,-207 3772,4 -4,4"/>
<text text-anchor="start" x="1863.01" y="-42.4" font-family="Times-12" font-weight="bold" font-size="14.00">Legend</text>
<polygon fill="#ffffb3" stroke="transparent" points="1650,-10 1650,-30 1670,-30 1670,-10 1650,-10"/>
<text text-anchor="start" x="1673.63" y="-15.4" font-family="Times-12" font-size="14.00"> &#160;Declarations</text>
<polygon fill="#8dd3c7" stroke="transparent" points="1763,-10 1763,-30 1783,-30 1783,-10 1763,-10"/>
<text text-anchor="start" x="1786.73" y="-15.4" font-family="Times-12" font-size="14.00"> &#160;Module</text>
<polygon fill="#80b1d3" stroke="transparent" points="1849,-10 1849,-30 1869,-30 1869,-10 1849,-10"/>
<text text-anchor="start" x="1872.78" y="-15.4" font-family="Times-12" font-size="14.00"> &#160;Bootstrap</text>
<polygon fill="#fdb462" stroke="transparent" points="1946,-10 1946,-30 1966,-30 1966,-10 1946,-10"/>
<text text-anchor="start" x="1969.67" y="-15.4" font-family="Times-12" font-size="14.00"> &#160;Providers</text>
<polygon fill="#fb8072" stroke="transparent" points="2042,-10 2042,-30 2062,-30 2062,-10 2042,-10"/>
<text text-anchor="start" x="2065.73" y="-15.4" font-family="Times-12" font-size="14.00"> &#160;Exports</text>
<g id="clust1" class="cluster">
<title>cluster_ToolApiModule</title>
<polygon fill="none" stroke="black" stroke-dasharray="1,5" points="8,-70 8,-195 3760,-195 3760,-70 8,-70"/>
</g>
<g id="clust6" class="cluster">
<title>cluster_ToolApiModule_providers</title>
<polygon fill="none" stroke="black" points="1334,-78 1334,-130 3752,-130 3752,-78 1334,-78"/>
</g>
<g id="clust3" class="cluster">
<title>cluster_ToolApiModule_imports</title>
<polygon fill="none" stroke="black" points="16,-78 16,-130 1326,-130 1326,-78 16,-78"/>
</g>
<!-- AuthorizationModule -->
<g id="node1" class="node">
<title>AuthorizationModule</title>
<polygon fill="#8dd3c7" stroke="black" points="1317.81,-122 1314.81,-126 1293.81,-126 1290.81,-122 1180.19,-122 1180.19,-86 1317.81,-86 1317.81,-122"/>
<text text-anchor="middle" x="1249" y="-99.8" font-family="Times,serif" font-size="14.00">AuthorizationModule</text>
</g>
<!-- ToolApiModule -->
<g id="node11" class="node">
<title>ToolApiModule</title>
<polygon fill="#8dd3c7" stroke="black" points="1475.49,-187 1472.49,-191 1451.49,-191 1448.49,-187 1368.51,-187 1368.51,-151 1475.49,-151 1475.49,-187"/>
<text text-anchor="middle" x="1422" y="-164.8" font-family="Times,serif" font-size="14.00">ToolApiModule</text>
</g>
<!-- AuthorizationModule&#45;&gt;ToolApiModule -->
<g id="edge1" class="edge">
<title>AuthorizationModule&#45;&gt;ToolApiModule</title>
<path fill="none" stroke="black" d="M1249,-122.12C1249,-136.78 1249,-155 1249,-155 1249,-155 1358.21,-155 1358.21,-155"/>
<polygon fill="black" stroke="black" points="1358.21,-158.5 1368.21,-155 1358.21,-151.5 1358.21,-158.5"/>
</g>
<!-- BoardModule -->
<g id="node2" class="node">
<title>BoardModule</title>
<polygon fill="#8dd3c7" stroke="black" points="1161.76,-122 1158.76,-126 1137.76,-126 1134.76,-122 1068.24,-122 1068.24,-86 1161.76,-86 1161.76,-122"/>
<text text-anchor="middle" x="1115" y="-99.8" font-family="Times,serif" font-size="14.00">BoardModule</text>
</g>
<!-- BoardModule&#45;&gt;ToolApiModule -->
<g id="edge2" class="edge">
<title>BoardModule&#45;&gt;ToolApiModule</title>
<path fill="none" stroke="black" d="M1115,-122.28C1115,-137.95 1115,-158 1115,-158 1115,-158 1358.17,-158 1358.17,-158"/>
<polygon fill="black" stroke="black" points="1358.17,-161.5 1368.17,-158 1358.17,-154.5 1358.17,-161.5"/>
</g>
<!-- CommonToolModule -->
<g id="node3" class="node">
<title>CommonToolModule</title>
<polygon fill="#8dd3c7" stroke="black" points="1050.11,-122 1047.11,-126 1026.11,-126 1023.11,-122 911.89,-122 911.89,-86 1050.11,-86 1050.11,-122"/>
<text text-anchor="middle" x="981" y="-99.8" font-family="Times,serif" font-size="14.00">CommonToolModule</text>
</g>
<!-- CommonToolModule&#45;&gt;ToolApiModule -->
<g id="edge3" class="edge">
<title>CommonToolModule&#45;&gt;ToolApiModule</title>
<path fill="none" stroke="black" d="M981,-122.04C981,-138.73 981,-161 981,-161 981,-161 1358.37,-161 1358.37,-161"/>
<polygon fill="black" stroke="black" points="1358.37,-164.5 1368.37,-161 1358.37,-157.5 1358.37,-164.5"/>
</g>
<!-- LearnroomModule -->
<g id="node4" class="node">
<title>LearnroomModule</title>
<polygon fill="#8dd3c7" stroke="black" points="893.74,-122 890.74,-126 869.74,-126 866.74,-122 772.26,-122 772.26,-86 893.74,-86 893.74,-122"/>
<text text-anchor="middle" x="833" y="-99.8" font-family="Times,serif" font-size="14.00">LearnroomModule</text>
</g>
<!-- LearnroomModule&#45;&gt;ToolApiModule -->
<g id="edge4" class="edge">
<title>LearnroomModule&#45;&gt;ToolApiModule</title>
<path fill="none" stroke="black" d="M833,-122.3C833,-140.27 833,-165 833,-165 833,-165 1358.43,-165 1358.43,-165"/>
<polygon fill="black" stroke="black" points="1358.43,-168.5 1368.43,-165 1358.43,-161.5 1358.43,-168.5"/>
</g>
<!-- LegacySchoolModule -->
<g id="node5" class="node">
<title>LegacySchoolModule</title>
<polygon fill="#8dd3c7" stroke="black" points="753.63,-122 750.63,-126 729.63,-126 726.63,-122 614.37,-122 614.37,-86 753.63,-86 753.63,-122"/>
<text text-anchor="middle" x="684" y="-99.8" font-family="Times,serif" font-size="14.00">LegacySchoolModule</text>
</g>
<!-- LegacySchoolModule&#45;&gt;ToolApiModule -->
<g id="edge5" class="edge">
<title>LegacySchoolModule&#45;&gt;ToolApiModule</title>
<path fill="none" stroke="black" d="M684,-122.17C684,-141.09 684,-168 684,-168 684,-168 1358.33,-168 1358.33,-168"/>
<polygon fill="black" stroke="black" points="1358.33,-171.5 1368.33,-168 1358.33,-164.5 1358.33,-171.5"/>
</g>
<!-- LoggerModule -->
<g id="node6" class="node">
<title>LoggerModule</title>
<polygon fill="#8dd3c7" stroke="black" points="595.98,-122 592.98,-126 571.98,-126 568.98,-122 496.02,-122 496.02,-86 595.98,-86 595.98,-122"/>
<text text-anchor="middle" x="546" y="-99.8" font-family="Times,serif" font-size="14.00">LoggerModule</text>
</g>
<!-- LoggerModule&#45;&gt;ToolApiModule -->
<g id="edge6" class="edge">
<title>LoggerModule&#45;&gt;ToolApiModule</title>
<path fill="none" stroke="black" d="M546,-122.31C546,-142.15 546,-171 546,-171 546,-171 1358.19,-171 1358.19,-171"/>
<polygon fill="black" stroke="black" points="1358.19,-174.5 1368.19,-171 1358.19,-167.5 1358.19,-174.5"/>
</g>
<!-- SchoolModule -->
<g id="node7" class="node">
<title>SchoolModule</title>
<polygon fill="#8dd3c7" stroke="black" points="478.44,-122 475.44,-126 454.44,-126 451.44,-122 379.56,-122 379.56,-86 478.44,-86 478.44,-122"/>
<text text-anchor="middle" x="429" y="-99.8" font-family="Times,serif" font-size="14.00">SchoolModule</text>
</g>
<!-- SchoolModule&#45;&gt;ToolApiModule -->
<g id="edge7" class="edge">
<title>SchoolModule&#45;&gt;ToolApiModule</title>
<path fill="none" stroke="black" d="M429,-122.03C429,-142.77 429,-174 429,-174 429,-174 1358.26,-174 1358.26,-174"/>
<polygon fill="black" stroke="black" points="1358.26,-177.5 1368.26,-174 1358.26,-170.5 1358.26,-177.5"/>
</g>
<!-- ToolModule -->
<g id="node8" class="node">
<title>ToolModule</title>
<polygon fill="#8dd3c7" stroke="black" points="361.99,-122 358.99,-126 337.99,-126 334.99,-122 276.01,-122 276.01,-86 361.99,-86 361.99,-122"/>
<text text-anchor="middle" x="319" y="-99.8" font-family="Times,serif" font-size="14.00">ToolModule</text>
</g>
<!-- ToolModule&#45;&gt;ToolApiModule -->
<g id="edge8" class="edge">
<title>ToolModule&#45;&gt;ToolApiModule</title>
<path fill="none" stroke="black" d="M319,-122.29C319,-144.21 319,-178 319,-178 319,-178 1358.43,-178 1358.43,-178"/>
<polygon fill="black" stroke="black" points="1358.43,-181.5 1368.43,-178 1358.43,-174.5 1358.43,-181.5"/>
</g>
<!-- UserLicenseModule -->
<g id="node9" class="node">
<title>UserLicenseModule</title>
<polygon fill="#8dd3c7" stroke="black" points="257.51,-122 254.51,-126 233.51,-126 230.51,-122 128.49,-122 128.49,-86 257.51,-86 257.51,-122"/>
<text text-anchor="middle" x="193" y="-99.8" font-family="Times,serif" font-size="14.00">UserLicenseModule</text>
</g>
<!-- UserLicenseModule&#45;&gt;ToolApiModule -->
<g id="edge9" class="edge">
<title>UserLicenseModule&#45;&gt;ToolApiModule</title>
<path fill="none" stroke="black" d="M193,-122.25C193,-145.02 193,-181 193,-181 193,-181 1358.4,-181 1358.4,-181"/>
<polygon fill="black" stroke="black" points="1358.4,-184.5 1368.4,-181 1358.4,-177.5 1358.4,-184.5"/>
</g>
<!-- UserModule -->
<g id="node10" class="node">
<title>UserModule</title>
<polygon fill="#8dd3c7" stroke="black" points="109.98,-122 106.98,-126 85.98,-126 82.98,-122 24.02,-122 24.02,-86 109.98,-86 109.98,-122"/>
<text text-anchor="middle" x="67" y="-99.8" font-family="Times,serif" font-size="14.00">UserModule</text>
</g>
<!-- UserModule&#45;&gt;ToolApiModule -->
<g id="edge10" class="edge">
<title>UserModule&#45;&gt;ToolApiModule</title>
<path fill="none" stroke="black" d="M67,-122.15C67,-145.76 67,-184 67,-184 67,-184 1358.47,-184 1358.47,-184"/>
<polygon fill="black" stroke="black" points="1358.47,-187.5 1368.47,-184 1358.47,-180.5 1358.47,-187.5"/>
</g>
<!-- ContextExternalToolUc -->
<g id="node12" class="node">
<title>ContextExternalToolUc</title>
<ellipse fill="#fdb462" stroke="black" cx="3640" cy="-104" rx="103.65" ry="18"/>
<text text-anchor="middle" x="3640" y="-99.8" font-family="Times,serif" font-size="14.00">ContextExternalToolUc</text>
</g>
<!-- ContextExternalToolUc&#45;&gt;ToolApiModule -->
<g id="edge11" class="edge">
<title>ContextExternalToolUc&#45;&gt;ToolApiModule</title>
<path fill="none" stroke="black" d="M3640,-122.15C3640,-145.76 3640,-184 3640,-184 3640,-184 1485.73,-184 1485.73,-184"/>
<polygon fill="black" stroke="black" points="1485.73,-180.5 1475.73,-184 1485.73,-187.5 1485.73,-180.5"/>
</g>
<!-- ExternalToolConfigurationService -->
<g id="node13" class="node">
<title>ExternalToolConfigurationService</title>
<ellipse fill="#fdb462" stroke="black" cx="3373" cy="-104" rx="145.24" ry="18"/>
<text text-anchor="middle" x="3373" y="-99.8" font-family="Times,serif" font-size="14.00">ExternalToolConfigurationService</text>
</g>
<!-- ExternalToolConfigurationService&#45;&gt;ToolApiModule -->
<g id="edge12" class="edge">
<title>ExternalToolConfigurationService&#45;&gt;ToolApiModule</title>
<path fill="none" stroke="black" d="M3373,-122.25C3373,-145.02 3373,-181 3373,-181 3373,-181 1485.71,-181 1485.71,-181"/>
<polygon fill="black" stroke="black" points="1485.71,-177.5 1475.71,-181 1485.71,-184.5 1485.71,-177.5"/>
</g>
<!-- ExternalToolConfigurationUc -->
<g id="node14" class="node">
<title>ExternalToolConfigurationUc</title>
<ellipse fill="#fdb462" stroke="black" cx="3082" cy="-104" rx="127.35" ry="18"/>
<text text-anchor="middle" x="3082" y="-99.8" font-family="Times,serif" font-size="14.00">ExternalToolConfigurationUc</text>
</g>
<!-- ExternalToolConfigurationUc&#45;&gt;ToolApiModule -->
<g id="edge13" class="edge">
<title>ExternalToolConfigurationUc&#45;&gt;ToolApiModule</title>
<path fill="none" stroke="black" d="M3082,-122.29C3082,-144.21 3082,-178 3082,-178 3082,-178 1485.82,-178 1485.82,-178"/>
<polygon fill="black" stroke="black" points="1485.82,-174.5 1475.82,-178 1485.82,-181.5 1485.82,-174.5"/>
</g>
<!-- ExternalToolRequestMapper -->
<g id="node15" class="node">
<title>ExternalToolRequestMapper</title>
<ellipse fill="#fdb462" stroke="black" cx="2813" cy="-104" rx="123.26" ry="18"/>
<text text-anchor="middle" x="2813" y="-99.8" font-family="Times,serif" font-size="14.00">ExternalToolRequestMapper</text>
</g>
<!-- ExternalToolRequestMapper&#45;&gt;ToolApiModule -->
<g id="edge14" class="edge">
<title>ExternalToolRequestMapper&#45;&gt;ToolApiModule</title>
<path fill="none" stroke="black" d="M2813,-122.03C2813,-142.77 2813,-174 2813,-174 2813,-174 1485.68,-174 1485.68,-174"/>
<polygon fill="black" stroke="black" points="1485.68,-170.5 1475.68,-174 1485.68,-177.5 1485.68,-170.5"/>
</g>
<!-- ExternalToolResponseMapper -->
<g id="node16" class="node">
<title>ExternalToolResponseMapper</title>
<ellipse fill="#fdb462" stroke="black" cx="2543" cy="-104" rx="129.06" ry="18"/>
<text text-anchor="middle" x="2543" y="-99.8" font-family="Times,serif" font-size="14.00">ExternalToolResponseMapper</text>
</g>
<!-- ExternalToolResponseMapper&#45;&gt;ToolApiModule -->
<g id="edge15" class="edge">
<title>ExternalToolResponseMapper&#45;&gt;ToolApiModule</title>
<path fill="none" stroke="black" d="M2543,-122.31C2543,-142.15 2543,-171 2543,-171 2543,-171 1485.69,-171 1485.69,-171"/>
<polygon fill="black" stroke="black" points="1485.69,-167.5 1475.69,-171 1485.69,-174.5 1485.69,-167.5"/>
</g>
<!-- ExternalToolUc -->
<g id="node17" class="node">
<title>ExternalToolUc</title>
<ellipse fill="#fdb462" stroke="black" cx="2323" cy="-104" rx="73.49" ry="18"/>
<text text-anchor="middle" x="2323" y="-99.8" font-family="Times,serif" font-size="14.00">ExternalToolUc</text>
</g>
<!-- ExternalToolUc&#45;&gt;ToolApiModule -->
<g id="edge16" class="edge">
<title>ExternalToolUc&#45;&gt;ToolApiModule</title>
<path fill="none" stroke="black" d="M2323,-122.17C2323,-141.09 2323,-168 2323,-168 2323,-168 1485.66,-168 1485.66,-168"/>
<polygon fill="black" stroke="black" points="1485.66,-164.5 1475.66,-168 1485.66,-171.5 1485.66,-164.5"/>
</g>
<!-- LtiToolRepo -->
<g id="node18" class="node">
<title>LtiToolRepo</title>
<ellipse fill="#fdb462" stroke="black" cx="2171" cy="-104" rx="60.85" ry="18"/>
<text text-anchor="middle" x="2171" y="-99.8" font-family="Times,serif" font-size="14.00">LtiToolRepo</text>
</g>
<!-- LtiToolRepo&#45;&gt;ToolApiModule -->
<g id="edge17" class="edge">
<title>LtiToolRepo&#45;&gt;ToolApiModule</title>
<path fill="none" stroke="black" d="M2171,-122.3C2171,-140.27 2171,-165 2171,-165 2171,-165 1485.57,-165 1485.57,-165"/>
<polygon fill="black" stroke="black" points="1485.57,-161.5 1475.57,-165 1485.57,-168.5 1485.57,-161.5"/>
</g>
<!-- SchoolExternalToolUc -->
<g id="node19" class="node">
<title>SchoolExternalToolUc</title>
<ellipse fill="#fdb462" stroke="black" cx="1992" cy="-104" rx="100.14" ry="18"/>
<text text-anchor="middle" x="1992" y="-99.8" font-family="Times,serif" font-size="14.00">SchoolExternalToolUc</text>
</g>
<!-- SchoolExternalToolUc&#45;&gt;ToolApiModule -->
<g id="edge18" class="edge">
<title>SchoolExternalToolUc&#45;&gt;ToolApiModule</title>
<path fill="none" stroke="black" d="M1992,-122.04C1992,-138.73 1992,-161 1992,-161 1992,-161 1485.62,-161 1485.62,-161"/>
<polygon fill="black" stroke="black" points="1485.62,-157.5 1475.62,-161 1485.62,-164.5 1485.62,-157.5"/>
</g>
<!-- ToolLaunchUc -->
<g id="node20" class="node">
<title>ToolLaunchUc</title>
<ellipse fill="#fdb462" stroke="black" cx="1804" cy="-104" rx="69.49" ry="18"/>
<text text-anchor="middle" x="1804" y="-99.8" font-family="Times,serif" font-size="14.00">ToolLaunchUc</text>
</g>
<!-- ToolLaunchUc&#45;&gt;ToolApiModule -->
<g id="edge19" class="edge">
<title>ToolLaunchUc&#45;&gt;ToolApiModule</title>
<path fill="none" stroke="black" d="M1804,-122.28C1804,-137.95 1804,-158 1804,-158 1804,-158 1485.52,-158 1485.52,-158"/>
<polygon fill="black" stroke="black" points="1485.52,-154.5 1475.52,-158 1485.52,-161.5 1485.52,-154.5"/>
</g>
<!-- ToolPermissionHelper -->
<g id="node21" class="node">
<title>ToolPermissionHelper</title>
<ellipse fill="#fdb462" stroke="black" cx="1618" cy="-104" rx="98.43" ry="18"/>
<text text-anchor="middle" x="1618" y="-99.8" font-family="Times,serif" font-size="14.00">ToolPermissionHelper</text>
</g>
<!-- ToolPermissionHelper&#45;&gt;ToolApiModule -->
<g id="edge20" class="edge">
<title>ToolPermissionHelper&#45;&gt;ToolApiModule</title>
<path fill="none" stroke="black" d="M1618,-122.12C1618,-136.78 1618,-155 1618,-155 1618,-155 1485.56,-155 1485.56,-155"/>
<polygon fill="black" stroke="black" points="1485.56,-151.5 1475.56,-155 1485.56,-158.5 1485.56,-151.5"/>
</g>
<!-- ToolReferenceUc -->
<g id="node22" class="node">
<title>ToolReferenceUc</title>
<ellipse fill="#fdb462" stroke="black" cx="1422" cy="-104" rx="79.83" ry="18"/>
<text text-anchor="middle" x="1422" y="-99.8" font-family="Times,serif" font-size="14.00">ToolReferenceUc</text>
</g>
<!-- ToolReferenceUc&#45;&gt;ToolApiModule -->
<g id="edge21" class="edge">
<title>ToolReferenceUc&#45;&gt;ToolApiModule</title>
<path fill="none" stroke="black" d="M1422,-122.11C1422,-122.11 1422,-140.99 1422,-140.99"/>
<polygon fill="black" stroke="black" points="1418.5,-140.99 1422,-150.99 1425.5,-140.99 1418.5,-140.99"/>
</g>
</g>
</svg>
