<?xml version="1.0" encoding="UTF-8" standalone="no"?>
<!DOCTYPE svg PUBLIC "-//W3C//DTD SVG 1.1//EN"
 "http://www.w3.org/Graphics/SVG/1.1/DTD/svg11.dtd">
<!-- Generated by graphviz version 2.47.0 (20210316.0004)
 -->
<!-- Title: dependencies Pages: 1 -->
<svg width="4302pt" height="211pt"
 viewBox="0.00 0.00 4302.00 211.00" xmlns="http://www.w3.org/2000/svg" xmlns:xlink="http://www.w3.org/1999/xlink">
<g id="graph0" class="graph" transform="scale(1 1) rotate(0) translate(4 207)">
<title>dependencies</title>
<polygon fill="white" stroke="transparent" points="-4,4 -4,-207 4298,-207 4298,4 -4,4"/>
<text text-anchor="start" x="2126.01" y="-42.4" font-family="Times-12" font-weight="bold" font-size="14.00">Legend</text>
<polygon fill="#ffffb3" stroke="transparent" points="1913,-10 1913,-30 1933,-30 1933,-10 1913,-10"/>
<text text-anchor="start" x="1936.63" y="-15.4" font-family="Times-12" font-size="14.00"> &#160;Declarations</text>
<polygon fill="#8dd3c7" stroke="transparent" points="2026,-10 2026,-30 2046,-30 2046,-10 2026,-10"/>
<text text-anchor="start" x="2049.73" y="-15.4" font-family="Times-12" font-size="14.00"> &#160;Module</text>
<polygon fill="#80b1d3" stroke="transparent" points="2112,-10 2112,-30 2132,-30 2132,-10 2112,-10"/>
<text text-anchor="start" x="2135.78" y="-15.4" font-family="Times-12" font-size="14.00"> &#160;Bootstrap</text>
<polygon fill="#fdb462" stroke="transparent" points="2209,-10 2209,-30 2229,-30 2229,-10 2209,-10"/>
<text text-anchor="start" x="2232.67" y="-15.4" font-family="Times-12" font-size="14.00"> &#160;Providers</text>
<polygon fill="#fb8072" stroke="transparent" points="2305,-10 2305,-30 2325,-30 2325,-10 2305,-10"/>
<text text-anchor="start" x="2328.73" y="-15.4" font-family="Times-12" font-size="14.00"> &#160;Exports</text>
<g id="clust1" class="cluster">
<title>cluster_ToolApiModule</title>
<polygon fill="none" stroke="black" stroke-dasharray="1,5" points="8,-70 8,-195 4286,-195 4286,-70 8,-70"/>
</g>
<g id="clust3" class="cluster">
<title>cluster_ToolApiModule_imports</title>
<polygon fill="none" stroke="black" points="3090,-78 3090,-130 4278,-130 4278,-78 3090,-78"/>
</g>
<g id="clust6" class="cluster">
<title>cluster_ToolApiModule_providers</title>
<polygon fill="none" stroke="black" points="16,-78 16,-130 3082,-130 3082,-78 16,-78"/>
</g>
<!-- AuthorizationModule -->
<g id="node1" class="node">
<title>AuthorizationModule</title>
<polygon fill="#8dd3c7" stroke="black" points="4269.81,-122 4266.81,-126 4245.81,-126 4242.81,-122 4132.19,-122 4132.19,-86 4269.81,-86 4269.81,-122"/>
<text text-anchor="middle" x="4201" y="-99.8" font-family="Times,serif" font-size="14.00">AuthorizationModule</text>
</g>
<!-- ToolApiModule -->
<g id="node10" class="node">
<title>ToolApiModule</title>
<polygon fill="#8dd3c7" stroke="black" points="2610.49,-187 2607.49,-191 2586.49,-191 2583.49,-187 2503.51,-187 2503.51,-151 2610.49,-151 2610.49,-187"/>
<text text-anchor="middle" x="2557" y="-164.8" font-family="Times,serif" font-size="14.00">ToolApiModule</text>
</g>
<!-- AuthorizationModule&#45;&gt;ToolApiModule -->
<g id="edge1" class="edge">
<title>AuthorizationModule&#45;&gt;ToolApiModule</title>
<path fill="none" stroke="black" d="M4201,-122.15C4201,-145.76 4201,-184 4201,-184 4201,-184 2620.76,-184 2620.76,-184"/>
<polygon fill="black" stroke="black" points="2620.76,-180.5 2610.76,-184 2620.76,-187.5 2620.76,-180.5"/>
</g>
<!-- BoardModule -->
<g id="node2" class="node">
<title>BoardModule</title>
<polygon fill="#8dd3c7" stroke="black" points="4113.76,-122 4110.76,-126 4089.76,-126 4086.76,-122 4020.24,-122 4020.24,-86 4113.76,-86 4113.76,-122"/>
<text text-anchor="middle" x="4067" y="-99.8" font-family="Times,serif" font-size="14.00">BoardModule</text>
</g>
<!-- BoardModule&#45;&gt;ToolApiModule -->
<g id="edge2" class="edge">
<title>BoardModule&#45;&gt;ToolApiModule</title>
<path fill="none" stroke="black" d="M4067,-122.25C4067,-145.02 4067,-181 4067,-181 4067,-181 2620.74,-181 2620.74,-181"/>
<polygon fill="black" stroke="black" points="2620.74,-177.5 2610.74,-181 2620.74,-184.5 2620.74,-177.5"/>
</g>
<!-- CommonToolModule -->
<g id="node3" class="node">
<title>CommonToolModule</title>
<polygon fill="#8dd3c7" stroke="black" points="4002.11,-122 3999.11,-126 3978.11,-126 3975.11,-122 3863.89,-122 3863.89,-86 4002.11,-86 4002.11,-122"/>
<text text-anchor="middle" x="3933" y="-99.8" font-family="Times,serif" font-size="14.00">CommonToolModule</text>
</g>
<!-- CommonToolModule&#45;&gt;ToolApiModule -->
<g id="edge3" class="edge">
<title>CommonToolModule&#45;&gt;ToolApiModule</title>
<path fill="none" stroke="black" d="M3933,-122.29C3933,-144.21 3933,-178 3933,-178 3933,-178 2620.52,-178 2620.52,-178"/>
<polygon fill="black" stroke="black" points="2620.52,-174.5 2610.52,-178 2620.52,-181.5 2620.52,-174.5"/>
</g>
<!-- LearnroomModule -->
<g id="node4" class="node">
<title>LearnroomModule</title>
<polygon fill="#8dd3c7" stroke="black" points="3845.74,-122 3842.74,-126 3821.74,-126 3818.74,-122 3724.26,-122 3724.26,-86 3845.74,-86 3845.74,-122"/>
<text text-anchor="middle" x="3785" y="-99.8" font-family="Times,serif" font-size="14.00">LearnroomModule</text>
</g>
<!-- LearnroomModule&#45;&gt;ToolApiModule -->
<g id="edge4" class="edge">
<title>LearnroomModule&#45;&gt;ToolApiModule</title>
<path fill="none" stroke="black" d="M3785,-122.03C3785,-142.77 3785,-174 3785,-174 3785,-174 2620.56,-174 2620.56,-174"/>
<polygon fill="black" stroke="black" points="2620.56,-170.5 2610.56,-174 2620.56,-177.5 2620.56,-170.5"/>
</g>
<!-- LegacySchoolModule -->
<g id="node5" class="node">
<title>LegacySchoolModule</title>
<polygon fill="#8dd3c7" stroke="black" points="3705.63,-122 3702.63,-126 3681.63,-126 3678.63,-122 3566.37,-122 3566.37,-86 3705.63,-86 3705.63,-122"/>
<text text-anchor="middle" x="3636" y="-99.8" font-family="Times,serif" font-size="14.00">LegacySchoolModule</text>
</g>
<!-- LegacySchoolModule&#45;&gt;ToolApiModule -->
<g id="edge5" class="edge">
<title>LegacySchoolModule&#45;&gt;ToolApiModule</title>
<path fill="none" stroke="black" d="M3636,-122.31C3636,-142.15 3636,-171 3636,-171 3636,-171 2620.51,-171 2620.51,-171"/>
<polygon fill="black" stroke="black" points="2620.51,-167.5 2610.51,-171 2620.51,-174.5 2620.51,-167.5"/>
</g>
<!-- LoggerModule -->
<g id="node6" class="node">
<title>LoggerModule</title>
<polygon fill="#8dd3c7" stroke="black" points="3547.98,-122 3544.98,-126 3523.98,-126 3520.98,-122 3448.02,-122 3448.02,-86 3547.98,-86 3547.98,-122"/>
<text text-anchor="middle" x="3498" y="-99.8" font-family="Times,serif" font-size="14.00">LoggerModule</text>
</g>
<!-- LoggerModule&#45;&gt;ToolApiModule -->
<g id="edge6" class="edge">
<title>LoggerModule&#45;&gt;ToolApiModule</title>
<path fill="none" stroke="black" d="M3498,-122.17C3498,-141.09 3498,-168 3498,-168 3498,-168 2620.63,-168 2620.63,-168"/>
<polygon fill="black" stroke="black" points="2620.63,-164.5 2610.63,-168 2620.63,-171.5 2620.63,-164.5"/>
</g>
<!-- ToolConfigModule -->
<g id="node7" class="node">
<title>ToolConfigModule</title>
<polygon fill="#8dd3c7" stroke="black" points="3430.38,-122 3427.38,-126 3406.38,-126 3403.38,-122 3305.62,-122 3305.62,-86 3430.38,-86 3430.38,-122"/>
<text text-anchor="middle" x="3368" y="-99.8" font-family="Times,serif" font-size="14.00">ToolConfigModule</text>
</g>
<!-- ToolConfigModule&#45;&gt;ToolApiModule -->
<g id="edge7" class="edge">
<title>ToolConfigModule&#45;&gt;ToolApiModule</title>
<path fill="none" stroke="black" d="M3368,-122.3C3368,-140.27 3368,-165 3368,-165 3368,-165 2620.53,-165 2620.53,-165"/>
<polygon fill="black" stroke="black" points="2620.53,-161.5 2610.53,-165 2620.53,-168.5 2620.53,-161.5"/>
</g>
<!-- ToolModule -->
<g id="node8" class="node">
<title>ToolModule</title>
<polygon fill="#8dd3c7" stroke="black" points="3287.99,-122 3284.99,-126 3263.99,-126 3260.99,-122 3202.01,-122 3202.01,-86 3287.99,-86 3287.99,-122"/>
<text text-anchor="middle" x="3245" y="-99.8" font-family="Times,serif" font-size="14.00">ToolModule</text>
</g>
<!-- ToolModule&#45;&gt;ToolApiModule -->
<g id="edge8" class="edge">
<title>ToolModule&#45;&gt;ToolApiModule</title>
<path fill="none" stroke="black" d="M3245,-122.04C3245,-138.73 3245,-161 3245,-161 3245,-161 2620.7,-161 2620.7,-161"/>
<polygon fill="black" stroke="black" points="2620.7,-157.5 2610.7,-161 2620.7,-164.5 2620.7,-157.5"/>
</g>
<!-- UserModule -->
<g id="node9" class="node">
<title>UserModule</title>
<polygon fill="#8dd3c7" stroke="black" points="3183.98,-122 3180.98,-126 3159.98,-126 3156.98,-122 3098.02,-122 3098.02,-86 3183.98,-86 3183.98,-122"/>
<text text-anchor="middle" x="3141" y="-99.8" font-family="Times,serif" font-size="14.00">UserModule</text>
</g>
<!-- UserModule&#45;&gt;ToolApiModule -->
<g id="edge9" class="edge">
<title>UserModule&#45;&gt;ToolApiModule</title>
<path fill="none" stroke="black" d="M3141,-122.28C3141,-137.95 3141,-158 3141,-158 3141,-158 2620.63,-158 2620.63,-158"/>
<polygon fill="black" stroke="black" points="2620.63,-154.5 2610.63,-158 2620.63,-161.5 2620.63,-154.5"/>
</g>
<!-- ContextExternalToolUc -->
<g id="node11" class="node">
<title>ContextExternalToolUc</title>
<ellipse fill="#fdb462" stroke="black" cx="2970" cy="-104" rx="103.65" ry="18"/>
<text text-anchor="middle" x="2970" y="-99.8" font-family="Times,serif" font-size="14.00">ContextExternalToolUc</text>
</g>
<!-- ContextExternalToolUc&#45;&gt;ToolApiModule -->
<g id="edge10" class="edge">
<title>ContextExternalToolUc&#45;&gt;ToolApiModule</title>
<path fill="none" stroke="black" d="M2970,-122.12C2970,-136.78 2970,-155 2970,-155 2970,-155 2620.57,-155 2620.57,-155"/>
<polygon fill="black" stroke="black" points="2620.57,-151.5 2610.57,-155 2620.57,-158.5 2620.57,-151.5"/>
</g>
<!-- ExternalToolConfigurationService -->
<g id="node12" class="node">
<title>ExternalToolConfigurationService</title>
<ellipse fill="#fdb462" stroke="black" cx="2703" cy="-104" rx="145.24" ry="18"/>
<text text-anchor="middle" x="2703" y="-99.8" font-family="Times,serif" font-size="14.00">ExternalToolConfigurationService</text>
</g>
<!-- ExternalToolConfigurationService&#45;&gt;ToolApiModule -->
<g id="edge11" class="edge">
<title>ExternalToolConfigurationService&#45;&gt;ToolApiModule</title>
<path fill="none" stroke="black" d="M2584.19,-114.44C2584.19,-114.44 2584.19,-140.97 2584.19,-140.97"/>
<polygon fill="black" stroke="black" points="2580.69,-140.97 2584.19,-150.97 2587.69,-140.97 2580.69,-140.97"/>
</g>
<!-- ExternalToolConfigurationUc -->
<g id="node13" class="node">
<title>ExternalToolConfigurationUc</title>
<ellipse fill="#fdb462" stroke="black" cx="2412" cy="-104" rx="127.35" ry="18"/>
<text text-anchor="middle" x="2412" y="-99.8" font-family="Times,serif" font-size="14.00">ExternalToolConfigurationUc</text>
</g>
<!-- ExternalToolConfigurationUc&#45;&gt;ToolApiModule -->
<g id="edge12" class="edge">
<title>ExternalToolConfigurationUc&#45;&gt;ToolApiModule</title>
<path fill="none" stroke="black" d="M2521.46,-113.31C2521.46,-113.31 2521.46,-140.85 2521.46,-140.85"/>
<polygon fill="black" stroke="black" points="2517.97,-140.85 2521.46,-150.85 2524.97,-140.85 2517.97,-140.85"/>
</g>
<!-- ExternalToolRequestMapper -->
<g id="node14" class="node">
<title>ExternalToolRequestMapper</title>
<ellipse fill="#fdb462" stroke="black" cx="2143" cy="-104" rx="123.26" ry="18"/>
<text text-anchor="middle" x="2143" y="-99.8" font-family="Times,serif" font-size="14.00">ExternalToolRequestMapper</text>
</g>
<!-- ExternalToolRequestMapper&#45;&gt;ToolApiModule -->
<g id="edge13" class="edge">
<title>ExternalToolRequestMapper&#45;&gt;ToolApiModule</title>
<path fill="none" stroke="black" d="M2143,-122.12C2143,-136.78 2143,-155 2143,-155 2143,-155 2493.3,-155 2493.3,-155"/>
<polygon fill="black" stroke="black" points="2493.3,-158.5 2503.3,-155 2493.3,-151.5 2493.3,-158.5"/>
</g>
<!-- ExternalToolResponseMapper -->
<g id="node15" class="node">
<title>ExternalToolResponseMapper</title>
<ellipse fill="#fdb462" stroke="black" cx="1873" cy="-104" rx="129.06" ry="18"/>
<text text-anchor="middle" x="1873" y="-99.8" font-family="Times,serif" font-size="14.00">ExternalToolResponseMapper</text>
</g>
<!-- ExternalToolResponseMapper&#45;&gt;ToolApiModule -->
<g id="edge14" class="edge">
<title>ExternalToolResponseMapper&#45;&gt;ToolApiModule</title>
<path fill="none" stroke="black" d="M1873,-122.28C1873,-137.95 1873,-158 1873,-158 1873,-158 2493.33,-158 2493.33,-158"/>
<polygon fill="black" stroke="black" points="2493.33,-161.5 2503.33,-158 2493.33,-154.5 2493.33,-161.5"/>
</g>
<!-- ExternalToolUc -->
<g id="node16" class="node">
<title>ExternalToolUc</title>
<ellipse fill="#fdb462" stroke="black" cx="1653" cy="-104" rx="73.49" ry="18"/>
<text text-anchor="middle" x="1653" y="-99.8" font-family="Times,serif" font-size="14.00">ExternalToolUc</text>
</g>
<!-- ExternalToolUc&#45;&gt;ToolApiModule -->
<g id="edge15" class="edge">
<title>ExternalToolUc&#45;&gt;ToolApiModule</title>
<path fill="none" stroke="black" d="M1653,-122.04C1653,-138.73 1653,-161 1653,-161 1653,-161 2493.49,-161 2493.49,-161"/>
<polygon fill="black" stroke="black" points="2493.49,-164.5 2503.49,-161 2493.49,-157.5 2493.49,-164.5"/>
</g>
<!-- LtiToolRepo -->
<g id="node17" class="node">
<title>LtiToolRepo</title>
<ellipse fill="#fdb462" stroke="black" cx="1501" cy="-104" rx="60.85" ry="18"/>
<text text-anchor="middle" x="1501" y="-99.8" font-family="Times,serif" font-size="14.00">LtiToolRepo</text>
</g>
<!-- LtiToolRepo&#45;&gt;ToolApiModule -->
<g id="edge16" class="edge">
<title>LtiToolRepo&#45;&gt;ToolApiModule</title>
<path fill="none" stroke="black" d="M1501,-122.3C1501,-140.27 1501,-165 1501,-165 1501,-165 2493.18,-165 2493.18,-165"/>
<polygon fill="black" stroke="black" points="2493.18,-168.5 2503.18,-165 2493.18,-161.5 2493.18,-168.5"/>
</g>
<!-- SchoolExternalToolRequestMapper -->
<g id="node18" class="node">
<title>SchoolExternalToolRequestMapper</title>
<ellipse fill="#fdb462" stroke="black" cx="1272" cy="-104" rx="149.9" ry="18"/>
<text text-anchor="middle" x="1272" y="-99.8" font-family="Times,serif" font-size="14.00">SchoolExternalToolRequestMapper</text>
</g>
<!-- SchoolExternalToolRequestMapper&#45;&gt;ToolApiModule -->
<g id="edge17" class="edge">
<title>SchoolExternalToolRequestMapper&#45;&gt;ToolApiModule</title>
<path fill="none" stroke="black" d="M1272,-122.17C1272,-141.09 1272,-168 1272,-168 1272,-168 2493.42,-168 2493.42,-168"/>
<polygon fill="black" stroke="black" points="2493.42,-171.5 2503.42,-168 2493.42,-164.5 2493.42,-171.5"/>
</g>
<!-- SchoolExternalToolResponseMapper -->
<g id="node19" class="node">
<title>SchoolExternalToolResponseMapper</title>
<ellipse fill="#fdb462" stroke="black" cx="948" cy="-104" rx="155.7" ry="18"/>
<text text-anchor="middle" x="948" y="-99.8" font-family="Times,serif" font-size="14.00">SchoolExternalToolResponseMapper</text>
</g>
<!-- SchoolExternalToolResponseMapper&#45;&gt;ToolApiModule -->
<g id="edge18" class="edge">
<title>SchoolExternalToolResponseMapper&#45;&gt;ToolApiModule</title>
<path fill="none" stroke="black" d="M948,-122.31C948,-142.15 948,-171 948,-171 948,-171 2493.47,-171 2493.47,-171"/>
<polygon fill="black" stroke="black" points="2493.47,-174.5 2503.47,-171 2493.47,-167.5 2493.47,-174.5"/>
</g>
<!-- SchoolExternalToolUc -->
<g id="node20" class="node">
<title>SchoolExternalToolUc</title>
<ellipse fill="#fdb462" stroke="black" cx="674" cy="-104" rx="100.14" ry="18"/>
<text text-anchor="middle" x="674" y="-99.8" font-family="Times,serif" font-size="14.00">SchoolExternalToolUc</text>
</g>
<!-- SchoolExternalToolUc&#45;&gt;ToolApiModule -->
<g id="edge19" class="edge">
<title>SchoolExternalToolUc&#45;&gt;ToolApiModule</title>
<path fill="none" stroke="black" d="M674,-122.03C674,-142.77 674,-174 674,-174 674,-174 2493.43,-174 2493.43,-174"/>
<polygon fill="black" stroke="black" points="2493.43,-177.5 2503.43,-174 2493.43,-170.5 2493.43,-177.5"/>
</g>
<!-- ToolLaunchUc -->
<g id="node21" class="node">
<title>ToolLaunchUc</title>
<ellipse fill="#fdb462" stroke="black" cx="486" cy="-104" rx="69.49" ry="18"/>
<text text-anchor="middle" x="486" y="-99.8" font-family="Times,serif" font-size="14.00">ToolLaunchUc</text>
</g>
<!-- ToolLaunchUc&#45;&gt;ToolApiModule -->
<g id="edge20" class="edge">
<title>ToolLaunchUc&#45;&gt;ToolApiModule</title>
<path fill="none" stroke="black" d="M486,-122.29C486,-144.21 486,-178 486,-178 486,-178 2493.46,-178 2493.46,-178"/>
<polygon fill="black" stroke="black" points="2493.46,-181.5 2503.46,-178 2493.46,-174.5 2493.46,-181.5"/>
</g>
<!-- ToolPermissionHelper -->
<g id="node22" class="node">
<title>ToolPermissionHelper</title>
<ellipse fill="#fdb462" stroke="black" cx="300" cy="-104" rx="98.43" ry="18"/>
<text text-anchor="middle" x="300" y="-99.8" font-family="Times,serif" font-size="14.00">ToolPermissionHelper</text>
</g>
<!-- ToolPermissionHelper&#45;&gt;ToolApiModule -->
<g id="edge21" class="edge">
<title>ToolPermissionHelper&#45;&gt;ToolApiModule</title>
<path fill="none" stroke="black" d="M300,-122.25C300,-145.02 300,-181 300,-181 300,-181 2493.43,-181 2493.43,-181"/>
<polygon fill="black" stroke="black" points="2493.43,-184.5 2503.43,-181 2493.43,-177.5 2493.43,-184.5"/>
</g>
<!-- ToolReferenceUc -->
<g id="node23" class="node">
<title>ToolReferenceUc</title>
<ellipse fill="#fdb462" stroke="black" cx="104" cy="-104" rx="79.83" ry="18"/>
<text text-anchor="middle" x="104" y="-99.8" font-family="Times,serif" font-size="14.00">ToolReferenceUc</text>
</g>
<!-- ToolReferenceUc&#45;&gt;ToolApiModule -->
<g id="edge22" class="edge">
<title>ToolReferenceUc&#45;&gt;ToolApiModule</title>
<path fill="none" stroke="black" d="M104,-122.15C104,-145.76 104,-184 104,-184 104,-184 2493.48,-184 2493.48,-184"/>
<polygon fill="black" stroke="black" points="2493.48,-187.5 2503.48,-184 2493.48,-180.5 2493.48,-187.5"/>
</g>
</g>
</svg>
