<?xml version="1.0" encoding="UTF-8" standalone="no"?>
<!DOCTYPE svg PUBLIC "-//W3C//DTD SVG 1.1//EN"
 "http://www.w3.org/Graphics/SVG/1.1/DTD/svg11.dtd">
<!-- Generated by graphviz version 5.0.0 (20220707.1540)
 -->
<!-- Title: dependencies Pages: 1 -->
<svg width="3104pt" height="174pt"
 viewBox="0.00 0.00 3104.00 173.80" xmlns="http://www.w3.org/2000/svg" xmlns:xlink="http://www.w3.org/1999/xlink">
<g id="graph0" class="graph" transform="scale(1 1) rotate(0) translate(4 169.8)">
<title>dependencies</title>
<polygon fill="white" stroke="transparent" points="-4,4 -4,-169.8 3100,-169.8 3100,4 -4,4"/>
<text text-anchor="middle" x="1548" y="-8.2" font-family="sans-serif" font-size="14.00">dependencies</text>
<g id="clust1" class="cluster">
<title>cluster_ToolApiModule</title>
<polygon fill="none" stroke="black" stroke-dasharray="1,5" points="8,-32.8 8,-157.8 3088,-157.8 3088,-32.8 8,-32.8"/>
</g>
<g id="clust6" class="cluster">
<title>cluster_ToolApiModule_providers</title>
<polygon fill="none" stroke="black" points="620,-40.8 620,-92.8 3080,-92.8 3080,-40.8 620,-40.8"/>
</g>
<g id="clust3" class="cluster">
<title>cluster_ToolApiModule_imports</title>
<polygon fill="none" stroke="black" points="16,-40.8 16,-92.8 612,-92.8 612,-40.8 16,-40.8"/>
</g>
<!-- AuthorizationModule -->
<g id="node1" class="node">
<title>AuthorizationModule</title>
<polygon fill="#8dd3c7" stroke="black" points="603.81,-84.8 600.81,-88.8 579.81,-88.8 576.81,-84.8 466.19,-84.8 466.19,-48.8 603.81,-48.8 603.81,-84.8"/>
<text text-anchor="middle" x="535" y="-62.6" font-family="Times,serif" font-size="14.00">AuthorizationModule</text>
</g>
<!-- ToolApiModule -->
<g id="node6" class="node">
<title>ToolApiModule</title>
<polygon fill="#8dd3c7" stroke="black" points="1493.49,-149.8 1490.49,-153.8 1469.49,-153.8 1466.49,-149.8 1386.51,-149.8 1386.51,-113.8 1493.49,-113.8 1493.49,-149.8"/>
<text text-anchor="middle" x="1440" y="-127.6" font-family="Times,serif" font-size="14.00">ToolApiModule</text>
</g>
<!-- AuthorizationModule&#45;&gt;ToolApiModule -->
<g id="edge1" class="edge">
<title>AuthorizationModule&#45;&gt;ToolApiModule</title>
<path fill="none" stroke="black" d="M535,-85.1C535,-103.07 535,-127.8 535,-127.8 535,-127.8 1376.43,-127.8 1376.43,-127.8"/>
<polygon fill="black" stroke="black" points="1376.43,-131.3 1386.43,-127.8 1376.43,-124.3 1376.43,-131.3"/>
</g>
<!-- LoggerModule -->
<g id="node2" class="node">
<title>LoggerModule</title>
<polygon fill="#8dd3c7" stroke="black" points="447.98,-84.8 444.98,-88.8 423.98,-88.8 420.98,-84.8 348.02,-84.8 348.02,-48.8 447.98,-48.8 447.98,-84.8"/>
<text text-anchor="middle" x="398" y="-62.6" font-family="Times,serif" font-size="14.00">LoggerModule</text>
</g>
<!-- LoggerModule&#45;&gt;ToolApiModule -->
<g id="edge2" class="edge">
<title>LoggerModule&#45;&gt;ToolApiModule</title>
<path fill="none" stroke="black" d="M398,-84.91C398,-104.14 398,-131.8 398,-131.8 398,-131.8 1376.17,-131.8 1376.17,-131.8"/>
<polygon fill="black" stroke="black" points="1376.17,-135.3 1386.17,-131.8 1376.17,-128.3 1376.17,-135.3"/>
</g>
<!-- SchoolModule -->
<g id="node3" class="node">
<title>SchoolModule</title>
<polygon fill="#8dd3c7" stroke="black" points="330.44,-84.8 327.44,-88.8 306.44,-88.8 303.44,-84.8 231.56,-84.8 231.56,-48.8 330.44,-48.8 330.44,-84.8"/>
<text text-anchor="middle" x="281" y="-62.6" font-family="Times,serif" font-size="14.00">SchoolModule</text>
</g>
<!-- SchoolModule&#45;&gt;ToolApiModule -->
<g id="edge3" class="edge">
<title>SchoolModule&#45;&gt;ToolApiModule</title>
<path fill="none" stroke="black" d="M281,-84.83C281,-105.57 281,-136.8 281,-136.8 281,-136.8 1376.42,-136.8 1376.42,-136.8"/>
<polygon fill="black" stroke="black" points="1376.42,-140.3 1386.42,-136.8 1376.42,-133.3 1376.42,-140.3"/>
</g>
<!-- ToolModule -->
<g id="node4" class="node">
<title>ToolModule</title>
<polygon fill="#8dd3c7" stroke="black" points="213.99,-84.8 210.99,-88.8 189.99,-88.8 186.99,-84.8 128.01,-84.8 128.01,-48.8 213.99,-48.8 213.99,-84.8"/>
<text text-anchor="middle" x="171" y="-62.6" font-family="Times,serif" font-size="14.00">ToolModule</text>
</g>
<!-- ToolModule&#45;&gt;ToolApiModule -->
<g id="edge4" class="edge">
<title>ToolModule&#45;&gt;ToolApiModule</title>
<path fill="none" stroke="black" d="M171,-85.09C171,-107.01 171,-140.8 171,-140.8 171,-140.8 1376.28,-140.8 1376.28,-140.8"/>
<polygon fill="black" stroke="black" points="1376.28,-144.3 1386.28,-140.8 1376.28,-137.3 1376.28,-144.3"/>
</g>
<!-- UserModule -->
<g id="node5" class="node">
<title>UserModule</title>
<polygon fill="#8dd3c7" stroke="black" points="109.99,-84.8 106.99,-88.8 85.99,-88.8 82.99,-84.8 24.01,-84.8 24.01,-48.8 109.99,-48.8 109.99,-84.8"/>
<text text-anchor="middle" x="67" y="-62.6" font-family="Times,serif" font-size="14.00">UserModule</text>
</g>
<!-- UserModule&#45;&gt;ToolApiModule -->
<g id="edge5" class="edge">
<title>UserModule&#45;&gt;ToolApiModule</title>
<path fill="none" stroke="black" d="M67,-85.12C67,-108.46 67,-145.8 67,-145.8 67,-145.8 1376.18,-145.8 1376.18,-145.8"/>
<polygon fill="black" stroke="black" points="1376.18,-149.3 1386.18,-145.8 1376.18,-142.3 1376.18,-149.3"/>
</g>
<!-- ExternalToolConfigurationUc -->
<g id="node7" class="node">
<title>ExternalToolConfigurationUc</title>
<ellipse fill="#fdb462" stroke="black" cx="2945" cy="-66.8" rx="127.35" ry="18"/>
<text text-anchor="middle" x="2945" y="-62.6" font-family="Times,serif" font-size="14.00">ExternalToolConfigurationUc</text>
</g>
<!-- ExternalToolConfigurationUc&#45;&gt;ToolApiModule -->
<g id="edge6" class="edge">
<title>ExternalToolConfigurationUc&#45;&gt;ToolApiModule</title>
<path fill="none" stroke="black" d="M2945,-85.12C2945,-108.46 2945,-145.8 2945,-145.8 2945,-145.8 1503.56,-145.8 1503.56,-145.8"/>
<polygon fill="black" stroke="black" points="1503.56,-142.3 1493.56,-145.8 1503.56,-149.3 1503.56,-142.3"/>
</g>
<!-- ExternalToolRequestMapper -->
<g id="node8" class="node">
<title>ExternalToolRequestMapper</title>
<ellipse fill="#fdb462" stroke="black" cx="2676" cy="-66.8" rx="123.26" ry="18"/>
<text text-anchor="middle" x="2676" y="-62.6" font-family="Times,serif" font-size="14.00">ExternalToolRequestMapper</text>
</g>
<!-- ExternalToolRequestMapper&#45;&gt;ToolApiModule -->
<g id="edge7" class="edge">
<title>ExternalToolRequestMapper&#45;&gt;ToolApiModule</title>
<path fill="none" stroke="black" d="M2676,-85.09C2676,-107.01 2676,-140.8 2676,-140.8 2676,-140.8 1503.51,-140.8 1503.51,-140.8"/>
<polygon fill="black" stroke="black" points="1503.51,-137.3 1493.51,-140.8 1503.51,-144.3 1503.51,-137.3"/>
</g>
<!-- ExternalToolResponseMapper -->
<g id="node9" class="node">
<title>ExternalToolResponseMapper</title>
<ellipse fill="#fdb462" stroke="black" cx="2406" cy="-66.8" rx="129.06" ry="18"/>
<text text-anchor="middle" x="2406" y="-62.6" font-family="Times,serif" font-size="14.00">ExternalToolResponseMapper</text>
</g>
<!-- ExternalToolResponseMapper&#45;&gt;ToolApiModule -->
<g id="edge8" class="edge">
<title>ExternalToolResponseMapper&#45;&gt;ToolApiModule</title>
<path fill="none" stroke="black" d="M2406,-84.83C2406,-105.57 2406,-136.8 2406,-136.8 2406,-136.8 1503.66,-136.8 1503.66,-136.8"/>
<polygon fill="black" stroke="black" points="1503.66,-133.3 1493.66,-136.8 1503.66,-140.3 1503.66,-133.3"/>
</g>
<!-- ExternalToolUc -->
<g id="node10" class="node">
<title>ExternalToolUc</title>
<ellipse fill="#fdb462" stroke="black" cx="2186" cy="-66.8" rx="73.49" ry="18"/>
<text text-anchor="middle" x="2186" y="-62.6" font-family="Times,serif" font-size="14.00">ExternalToolUc</text>
</g>
<!-- ExternalToolUc&#45;&gt;ToolApiModule -->
<g id="edge9" class="edge">
<title>ExternalToolUc&#45;&gt;ToolApiModule</title>
<path fill="none" stroke="black" d="M2186,-84.91C2186,-104.14 2186,-131.8 2186,-131.8 2186,-131.8 1503.65,-131.8 1503.65,-131.8"/>
<polygon fill="black" stroke="black" points="1503.65,-128.3 1493.65,-131.8 1503.65,-135.3 1503.65,-128.3"/>
</g>
<!-- Lti11ResponseMapper -->
<g id="node11" class="node">
<title>Lti11ResponseMapper</title>
<ellipse fill="#fdb462" stroke="black" cx="1996" cy="-66.8" rx="99.01" ry="18"/>
<text text-anchor="middle" x="1996" y="-62.6" font-family="Times,serif" font-size="14.00">Lti11ResponseMapper</text>
</g>
<!-- Lti11ResponseMapper&#45;&gt;ToolApiModule -->
<g id="edge10" class="edge">
<title>Lti11ResponseMapper&#45;&gt;ToolApiModule</title>
<path fill="none" stroke="black" d="M1996,-85.1C1996,-103.07 1996,-127.8 1996,-127.8 1996,-127.8 1503.56,-127.8 1503.56,-127.8"/>
<polygon fill="black" stroke="black" points="1503.56,-124.3 1493.56,-127.8 1503.56,-131.3 1503.56,-124.3"/>
</g>
<!-- Lti11Uc -->
<g id="node12" class="node">
<title>Lti11Uc</title>
<ellipse fill="#fdb462" stroke="black" cx="1836" cy="-66.8" rx="43.44" ry="18"/>
<text text-anchor="middle" x="1836" y="-62.6" font-family="Times,serif" font-size="14.00">Lti11Uc</text>
</g>
<!-- Lti11Uc&#45;&gt;ToolApiModule -->
<g id="edge11" class="edge">
<title>Lti11Uc&#45;&gt;ToolApiModule</title>
<path fill="none" stroke="black" d="M1836,-84.83C1836,-101.2 1836,-122.8 1836,-122.8 1836,-122.8 1503.82,-122.8 1503.82,-122.8"/>
<polygon fill="black" stroke="black" points="1503.82,-119.3 1493.82,-122.8 1503.82,-126.3 1503.82,-119.3"/>
</g>
<!-- LtiRoleMapper -->
<g id="node13" class="node">
<title>LtiRoleMapper</title>
<ellipse fill="#fdb462" stroke="black" cx="1704" cy="-66.8" rx="70.64" ry="18"/>
<text text-anchor="middle" x="1704" y="-62.6" font-family="Times,serif" font-size="14.00">LtiRoleMapper</text>
</g>
<!-- LtiRoleMapper&#45;&gt;ToolApiModule -->
<g id="edge12" class="edge">
<title>LtiRoleMapper&#45;&gt;ToolApiModule</title>
<path fill="none" stroke="black" d="M1704,-84.99C1704,-99.98 1704,-118.8 1704,-118.8 1704,-118.8 1503.74,-118.8 1503.74,-118.8"/>
<polygon fill="black" stroke="black" points="1503.74,-115.3 1493.74,-118.8 1503.74,-122.3 1503.74,-115.3"/>
</g>
<!-- LtiToolRepo -->
<g id="node14" class="node">
<title>LtiToolRepo</title>
<ellipse fill="#fdb462" stroke="black" cx="1555" cy="-66.8" rx="60.85" ry="18"/>
<text text-anchor="middle" x="1555" y="-62.6" font-family="Times,serif" font-size="14.00">LtiToolRepo</text>
</g>
<!-- LtiToolRepo&#45;&gt;ToolApiModule -->
<g id="edge13" class="edge">
<title>LtiToolRepo&#45;&gt;ToolApiModule</title>
<path fill="none" stroke="black" d="M1493.91,-66.8C1488.33,-66.8 1484.73,-66.8 1484.73,-66.8 1484.73,-66.8 1484.73,-103.69 1484.73,-103.69"/>
<polygon fill="black" stroke="black" points="1481.23,-103.69 1484.73,-113.69 1488.23,-103.69 1481.23,-103.69"/>
</g>
<!-- SchoolExternalToolRequestMapper -->
<g id="node15" class="node">
<title>SchoolExternalToolRequestMapper</title>
<ellipse fill="#fdb462" stroke="black" cx="1326" cy="-66.8" rx="149.91" ry="18"/>
<text text-anchor="middle" x="1326" y="-62.6" font-family="Times,serif" font-size="14.00">SchoolExternalToolRequestMapper</text>
</g>
<!-- SchoolExternalToolRequestMapper&#45;&gt;ToolApiModule -->
<g id="edge14" class="edge">
<title>SchoolExternalToolRequestMapper&#45;&gt;ToolApiModule</title>
<path fill="none" stroke="black" d="M1431.23,-79.64C1431.23,-79.64 1431.23,-103.32 1431.23,-103.32"/>
<polygon fill="black" stroke="black" points="1427.73,-103.32 1431.23,-113.32 1434.73,-103.32 1427.73,-103.32"/>
</g>
<!-- SchoolExternalToolResponseMapper -->
<g id="node16" class="node">
<title>SchoolExternalToolResponseMapper</title>
<ellipse fill="#fdb462" stroke="black" cx="1002" cy="-66.8" rx="155.72" ry="18"/>
<text text-anchor="middle" x="1002" y="-62.6" font-family="Times,serif" font-size="14.00">SchoolExternalToolResponseMapper</text>
</g>
<!-- SchoolExternalToolResponseMapper&#45;&gt;ToolApiModule -->
<g id="edge15" class="edge">
<title>SchoolExternalToolResponseMapper&#45;&gt;ToolApiModule</title>
<path fill="none" stroke="black" d="M1002,-84.99C1002,-99.98 1002,-118.8 1002,-118.8 1002,-118.8 1376.29,-118.8 1376.29,-118.8"/>
<polygon fill="black" stroke="black" points="1376.29,-122.3 1386.29,-118.8 1376.29,-115.3 1376.29,-122.3"/>
</g>
<!-- SchoolExternalToolUc -->
<g id="node17" class="node">
<title>SchoolExternalToolUc</title>
<ellipse fill="#fdb462" stroke="black" cx="728" cy="-66.8" rx="100.14" ry="18"/>
<text text-anchor="middle" x="728" y="-62.6" font-family="Times,serif" font-size="14.00">SchoolExternalToolUc</text>
</g>
<!-- SchoolExternalToolUc&#45;&gt;ToolApiModule -->
<g id="edge16" class="edge">
<title>SchoolExternalToolUc&#45;&gt;ToolApiModule</title>
<path fill="none" stroke="black" d="M728,-84.83C728,-101.2 728,-122.8 728,-122.8 728,-122.8 1376.48,-122.8 1376.48,-122.8"/>
<polygon fill="black" stroke="black" points="1376.48,-126.3 1386.48,-122.8 1376.48,-119.3 1376.48,-126.3"/>
</g>
</g>
</svg>
