<?xml version="1.0" encoding="UTF-8" standalone="no"?>
<!DOCTYPE svg PUBLIC "-//W3C//DTD SVG 1.1//EN"
 "http://www.w3.org/Graphics/SVG/1.1/DTD/svg11.dtd">
<!-- Generated by graphviz version 2.47.0 (20210316.0004)
 -->
<!-- Title: dependencies Pages: 1 -->
<svg width="3794pt" height="211pt"
 viewBox="0.00 0.00 3794.00 211.00" xmlns="http://www.w3.org/2000/svg" xmlns:xlink="http://www.w3.org/1999/xlink">
<g id="graph0" class="graph" transform="scale(1 1) rotate(0) translate(4 207)">
<title>dependencies</title>
<polygon fill="white" stroke="transparent" points="-4,4 -4,-207 3790,-207 3790,4 -4,4"/>
<text text-anchor="start" x="1872.01" y="-42.4" font-family="Times-12" font-weight="bold" font-size="14.00">Legend</text>
<polygon fill="#ffffb3" stroke="transparent" points="1659,-10 1659,-30 1679,-30 1679,-10 1659,-10"/>
<text text-anchor="start" x="1682.63" y="-15.4" font-family="Times-12" font-size="14.00"> &#160;Declarations</text>
<polygon fill="#8dd3c7" stroke="transparent" points="1772,-10 1772,-30 1792,-30 1792,-10 1772,-10"/>
<text text-anchor="start" x="1795.73" y="-15.4" font-family="Times-12" font-size="14.00"> &#160;Module</text>
<polygon fill="#80b1d3" stroke="transparent" points="1858,-10 1858,-30 1878,-30 1878,-10 1858,-10"/>
<text text-anchor="start" x="1881.78" y="-15.4" font-family="Times-12" font-size="14.00"> &#160;Bootstrap</text>
<polygon fill="#fdb462" stroke="transparent" points="1955,-10 1955,-30 1975,-30 1975,-10 1955,-10"/>
<text text-anchor="start" x="1978.67" y="-15.4" font-family="Times-12" font-size="14.00"> &#160;Providers</text>
<polygon fill="#fb8072" stroke="transparent" points="2051,-10 2051,-30 2071,-30 2071,-10 2051,-10"/>
<text text-anchor="start" x="2074.73" y="-15.4" font-family="Times-12" font-size="14.00"> &#160;Exports</text>
<g id="clust1" class="cluster">
<title>cluster_ToolApiModule</title>
<polygon fill="none" stroke="black" stroke-dasharray="1,5" points="8,-70 8,-195 3778,-195 3778,-70 8,-70"/>
</g>
<g id="clust6" class="cluster">
<title>cluster_ToolApiModule_providers</title>
<polygon fill="none" stroke="black" points="919,-78 919,-130 3770,-130 3770,-78 919,-78"/>
</g>
<g id="clust3" class="cluster">
<title>cluster_ToolApiModule_imports</title>
<polygon fill="none" stroke="black" points="16,-78 16,-130 911,-130 911,-78 16,-78"/>
</g>
<!-- AuthorizationModule -->
<g id="node1" class="node">
<title>AuthorizationModule</title>
<polygon fill="#8dd3c7" stroke="black" points="902.81,-122 899.81,-126 878.81,-126 875.81,-122 765.19,-122 765.19,-86 902.81,-86 902.81,-122"/>
<text text-anchor="middle" x="834" y="-99.8" font-family="Times,serif" font-size="14.00">AuthorizationModule</text>
</g>
<!-- ToolApiModule -->
<g id="node8" class="node">
<title>ToolApiModule</title>
<polygon fill="#8dd3c7" stroke="black" points="1415.49,-187 1412.49,-191 1391.49,-191 1388.49,-187 1308.51,-187 1308.51,-151 1415.49,-151 1415.49,-187"/>
<text text-anchor="middle" x="1362" y="-164.8" font-family="Times,serif" font-size="14.00">ToolApiModule</text>
</g>
<!-- AuthorizationModule&#45;&gt;ToolApiModule -->
<g id="edge1" class="edge">
<title>AuthorizationModule&#45;&gt;ToolApiModule</title>
<path fill="none" stroke="black" d="M834,-122.03C834,-139.06 834,-162 834,-162 834,-162 1298.47,-162 1298.47,-162"/>
<polygon fill="black" stroke="black" points="1298.47,-165.5 1308.47,-162 1298.47,-158.5 1298.47,-165.5"/>
</g>
<!-- CommonToolModule -->
<g id="node2" class="node">
<title>CommonToolModule</title>
<polygon fill="#8dd3c7" stroke="black" points="747.11,-122 744.11,-126 723.11,-126 720.11,-122 608.89,-122 608.89,-86 747.11,-86 747.11,-122"/>
<text text-anchor="middle" x="678" y="-99.8" font-family="Times,serif" font-size="14.00">CommonToolModule</text>
</g>
<!-- CommonToolModule&#45;&gt;ToolApiModule -->
<g id="edge2" class="edge">
<title>CommonToolModule&#45;&gt;ToolApiModule</title>
<path fill="none" stroke="black" d="M678,-122.27C678,-140.56 678,-166 678,-166 678,-166 1298.33,-166 1298.33,-166"/>
<polygon fill="black" stroke="black" points="1298.33,-169.5 1308.33,-166 1298.33,-162.5 1298.33,-169.5"/>
</g>
<!-- LoggerModule -->
<g id="node3" class="node">
<title>LoggerModule</title>
<polygon fill="#8dd3c7" stroke="black" points="590.98,-122 587.98,-126 566.98,-126 563.98,-122 491.02,-122 491.02,-86 590.98,-86 590.98,-122"/>
<text text-anchor="middle" x="541" y="-99.8" font-family="Times,serif" font-size="14.00">LoggerModule</text>
</g>
<!-- LoggerModule&#45;&gt;ToolApiModule -->
<g id="edge3" class="edge">
<title>LoggerModule&#45;&gt;ToolApiModule</title>
<path fill="none" stroke="black" d="M541,-122.11C541,-141.34 541,-169 541,-169 541,-169 1298.45,-169 1298.45,-169"/>
<polygon fill="black" stroke="black" points="1298.45,-172.5 1308.45,-169 1298.45,-165.5 1298.45,-172.5"/>
</g>
<!-- SchoolModule -->
<g id="node4" class="node">
<title>SchoolModule</title>
<polygon fill="#8dd3c7" stroke="black" points="473.44,-122 470.44,-126 449.44,-126 446.44,-122 374.56,-122 374.56,-86 473.44,-86 473.44,-122"/>
<text text-anchor="middle" x="424" y="-99.8" font-family="Times,serif" font-size="14.00">SchoolModule</text>
</g>
<!-- SchoolModule&#45;&gt;ToolApiModule -->
<g id="edge4" class="edge">
<title>SchoolModule&#45;&gt;ToolApiModule</title>
<path fill="none" stroke="black" d="M424,-122.13C424,-142.57 424,-173 424,-173 424,-173 1298.2,-173 1298.2,-173"/>
<polygon fill="black" stroke="black" points="1298.2,-176.5 1308.2,-173 1298.2,-169.5 1298.2,-176.5"/>
</g>
<!-- ToolConfigModule -->
<g id="node5" class="node">
<title>ToolConfigModule</title>
<polygon fill="#8dd3c7" stroke="black" points="356.38,-122 353.38,-126 332.38,-126 329.38,-122 231.62,-122 231.62,-86 356.38,-86 356.38,-122"/>
<text text-anchor="middle" x="294" y="-99.8" font-family="Times,serif" font-size="14.00">ToolConfigModule</text>
</g>
<!-- ToolConfigModule&#45;&gt;ToolApiModule -->
<g id="edge5" class="edge">
<title>ToolConfigModule&#45;&gt;ToolApiModule</title>
<path fill="none" stroke="black" d="M294,-122.04C294,-143.66 294,-177 294,-177 294,-177 1298.31,-177 1298.31,-177"/>
<polygon fill="black" stroke="black" points="1298.31,-180.5 1308.31,-177 1298.31,-173.5 1298.31,-180.5"/>
</g>
<!-- ToolModule -->
<g id="node6" class="node">
<title>ToolModule</title>
<polygon fill="#8dd3c7" stroke="black" points="213.99,-122 210.99,-126 189.99,-126 186.99,-122 128.01,-122 128.01,-86 213.99,-86 213.99,-122"/>
<text text-anchor="middle" x="171" y="-99.8" font-family="Times,serif" font-size="14.00">ToolModule</text>
</g>
<!-- ToolModule&#45;&gt;ToolApiModule -->
<g id="edge6" class="edge">
<title>ToolModule&#45;&gt;ToolApiModule</title>
<path fill="none" stroke="black" d="M171,-122.01C171,-144.49 171,-180 171,-180 171,-180 1298.12,-180 1298.12,-180"/>
<polygon fill="black" stroke="black" points="1298.12,-183.5 1308.12,-180 1298.12,-176.5 1298.12,-183.5"/>
</g>
<!-- UserModule -->
<g id="node7" class="node">
<title>UserModule</title>
<polygon fill="#8dd3c7" stroke="black" points="109.98,-122 106.98,-126 85.98,-126 82.98,-122 24.02,-122 24.02,-86 109.98,-86 109.98,-122"/>
<text text-anchor="middle" x="67" y="-99.8" font-family="Times,serif" font-size="14.00">UserModule</text>
</g>
<!-- UserModule&#45;&gt;ToolApiModule -->
<g id="edge7" class="edge">
<title>UserModule&#45;&gt;ToolApiModule</title>
<path fill="none" stroke="black" d="M67,-122.15C67,-145.76 67,-184 67,-184 67,-184 1298.41,-184 1298.41,-184"/>
<polygon fill="black" stroke="black" points="1298.41,-187.5 1308.41,-184 1298.41,-180.5 1298.41,-187.5"/>
</g>
<!-- ContextExternalToolUc -->
<g id="node9" class="node">
<title>ContextExternalToolUc</title>
<ellipse fill="#fdb462" stroke="black" cx="3658" cy="-104" rx="103.65" ry="18"/>
<text text-anchor="middle" x="3658" y="-99.8" font-family="Times,serif" font-size="14.00">ContextExternalToolUc</text>
</g>
<!-- ContextExternalToolUc&#45;&gt;ToolApiModule -->
<g id="edge8" class="edge">
<title>ContextExternalToolUc&#45;&gt;ToolApiModule</title>
<path fill="none" stroke="black" d="M3658,-122.15C3658,-145.76 3658,-184 3658,-184 3658,-184 1425.65,-184 1425.65,-184"/>
<polygon fill="black" stroke="black" points="1425.65,-180.5 1415.65,-184 1425.65,-187.5 1425.65,-180.5"/>
</g>
<!-- ExternalToolConfigurationService -->
<g id="node10" class="node">
<title>ExternalToolConfigurationService</title>
<ellipse fill="#fdb462" stroke="black" cx="3391" cy="-104" rx="145.24" ry="18"/>
<text text-anchor="middle" x="3391" y="-99.8" font-family="Times,serif" font-size="14.00">ExternalToolConfigurationService</text>
</g>
<!-- ExternalToolConfigurationService&#45;&gt;ToolApiModule -->
<g id="edge9" class="edge">
<title>ExternalToolConfigurationService&#45;&gt;ToolApiModule</title>
<path fill="none" stroke="black" d="M3391,-122.01C3391,-144.49 3391,-180 3391,-180 3391,-180 1425.75,-180 1425.75,-180"/>
<polygon fill="black" stroke="black" points="1425.75,-176.5 1415.75,-180 1425.75,-183.5 1425.75,-176.5"/>
</g>
<!-- ExternalToolConfigurationUc -->
<g id="node11" class="node">
<title>ExternalToolConfigurationUc</title>
<ellipse fill="#fdb462" stroke="black" cx="3100" cy="-104" rx="127.35" ry="18"/>
<text text-anchor="middle" x="3100" y="-99.8" font-family="Times,serif" font-size="14.00">ExternalToolConfigurationUc</text>
</g>
<!-- ExternalToolConfigurationUc&#45;&gt;ToolApiModule -->
<g id="edge10" class="edge">
<title>ExternalToolConfigurationUc&#45;&gt;ToolApiModule</title>
<path fill="none" stroke="black" d="M3100,-122.04C3100,-143.66 3100,-177 3100,-177 3100,-177 1425.92,-177 1425.92,-177"/>
<polygon fill="black" stroke="black" points="1425.92,-173.5 1415.92,-177 1425.92,-180.5 1425.92,-173.5"/>
</g>
<!-- ExternalToolRequestMapper -->
<g id="node12" class="node">
<title>ExternalToolRequestMapper</title>
<ellipse fill="#fdb462" stroke="black" cx="2831" cy="-104" rx="123.26" ry="18"/>
<text text-anchor="middle" x="2831" y="-99.8" font-family="Times,serif" font-size="14.00">ExternalToolRequestMapper</text>
</g>
<!-- ExternalToolRequestMapper&#45;&gt;ToolApiModule -->
<g id="edge11" class="edge">
<title>ExternalToolRequestMapper&#45;&gt;ToolApiModule</title>
<path fill="none" stroke="black" d="M2831,-122.13C2831,-142.57 2831,-173 2831,-173 2831,-173 1425.59,-173 1425.59,-173"/>
<polygon fill="black" stroke="black" points="1425.59,-169.5 1415.59,-173 1425.59,-176.5 1425.59,-169.5"/>
</g>
<!-- ExternalToolResponseMapper -->
<g id="node13" class="node">
<title>ExternalToolResponseMapper</title>
<ellipse fill="#fdb462" stroke="black" cx="2561" cy="-104" rx="129.06" ry="18"/>
<text text-anchor="middle" x="2561" y="-99.8" font-family="Times,serif" font-size="14.00">ExternalToolResponseMapper</text>
</g>
<!-- ExternalToolResponseMapper&#45;&gt;ToolApiModule -->
<g id="edge12" class="edge">
<title>ExternalToolResponseMapper&#45;&gt;ToolApiModule</title>
<path fill="none" stroke="black" d="M2561,-122.11C2561,-141.34 2561,-169 2561,-169 2561,-169 1425.85,-169 1425.85,-169"/>
<polygon fill="black" stroke="black" points="1425.85,-165.5 1415.85,-169 1425.85,-172.5 1425.85,-165.5"/>
</g>
<!-- ExternalToolUc -->
<g id="node14" class="node">
<title>ExternalToolUc</title>
<ellipse fill="#fdb462" stroke="black" cx="2341" cy="-104" rx="73.49" ry="18"/>
<text text-anchor="middle" x="2341" y="-99.8" font-family="Times,serif" font-size="14.00">ExternalToolUc</text>
</g>
<!-- ExternalToolUc&#45;&gt;ToolApiModule -->
<g id="edge13" class="edge">
<title>ExternalToolUc&#45;&gt;ToolApiModule</title>
<path fill="none" stroke="black" d="M2341,-122.27C2341,-140.56 2341,-166 2341,-166 2341,-166 1425.68,-166 1425.68,-166"/>
<polygon fill="black" stroke="black" points="1425.68,-162.5 1415.68,-166 1425.68,-169.5 1425.68,-162.5"/>
</g>
<!-- LtiToolRepo -->
<g id="node15" class="node">
<title>LtiToolRepo</title>
<ellipse fill="#fdb462" stroke="black" cx="2189" cy="-104" rx="60.85" ry="18"/>
<text text-anchor="middle" x="2189" y="-99.8" font-family="Times,serif" font-size="14.00">LtiToolRepo</text>
</g>
<!-- LtiToolRepo&#45;&gt;ToolApiModule -->
<g id="edge14" class="edge">
<title>LtiToolRepo&#45;&gt;ToolApiModule</title>
<path fill="none" stroke="black" d="M2189,-122.03C2189,-139.06 2189,-162 2189,-162 2189,-162 1425.62,-162 1425.62,-162"/>
<polygon fill="black" stroke="black" points="1425.62,-158.5 1415.62,-162 1425.62,-165.5 1425.62,-158.5"/>
</g>
<!-- SchoolExternalToolRequestMapper -->
<g id="node16" class="node">
<title>SchoolExternalToolRequestMapper</title>
<ellipse fill="#fdb462" stroke="black" cx="1960" cy="-104" rx="149.9" ry="18"/>
<text text-anchor="middle" x="1960" y="-99.8" font-family="Times,serif" font-size="14.00">SchoolExternalToolRequestMapper</text>
</g>
<!-- SchoolExternalToolRequestMapper&#45;&gt;ToolApiModule -->
<g id="edge15" class="edge">
<title>SchoolExternalToolRequestMapper&#45;&gt;ToolApiModule</title>
<path fill="none" stroke="black" d="M1960,-122.01C1960,-138.05 1960,-159 1960,-159 1960,-159 1425.59,-159 1425.59,-159"/>
<polygon fill="black" stroke="black" points="1425.59,-155.5 1415.59,-159 1425.59,-162.5 1425.59,-155.5"/>
</g>
<!-- SchoolExternalToolResponseMapper -->
<g id="node17" class="node">
<title>SchoolExternalToolResponseMapper</title>
<ellipse fill="#fdb462" stroke="black" cx="1636" cy="-104" rx="155.7" ry="18"/>
<text text-anchor="middle" x="1636" y="-99.8" font-family="Times,serif" font-size="14.00">SchoolExternalToolResponseMapper</text>
</g>
<!-- SchoolExternalToolResponseMapper&#45;&gt;ToolApiModule -->
<g id="edge16" class="edge">
<title>SchoolExternalToolResponseMapper&#45;&gt;ToolApiModule</title>
<path fill="none" stroke="black" d="M1636,-122.12C1636,-136.78 1636,-155 1636,-155 1636,-155 1425.81,-155 1425.81,-155"/>
<polygon fill="black" stroke="black" points="1425.81,-151.5 1415.81,-155 1425.81,-158.5 1425.81,-151.5"/>
</g>
<!-- SchoolExternalToolUc -->
<g id="node18" class="node">
<title>SchoolExternalToolUc</title>
<ellipse fill="#fdb462" stroke="black" cx="1362" cy="-104" rx="100.14" ry="18"/>
<text text-anchor="middle" x="1362" y="-99.8" font-family="Times,serif" font-size="14.00">SchoolExternalToolUc</text>
</g>
<!-- SchoolExternalToolUc&#45;&gt;ToolApiModule -->
<g id="edge17" class="edge">
<title>SchoolExternalToolUc&#45;&gt;ToolApiModule</title>
<path fill="none" stroke="black" d="M1362,-122.11C1362,-122.11 1362,-140.99 1362,-140.99"/>
<polygon fill="black" stroke="black" points="1358.5,-140.99 1362,-150.99 1365.5,-140.99 1358.5,-140.99"/>
</g>
<!-- ToolLaunchUc -->
<g id="node19" class="node">
<title>ToolLaunchUc</title>
<ellipse fill="#fdb462" stroke="black" cx="1174" cy="-104" rx="69.49" ry="18"/>
<text text-anchor="middle" x="1174" y="-99.8" font-family="Times,serif" font-size="14.00">ToolLaunchUc</text>
</g>
<!-- ToolLaunchUc&#45;&gt;ToolApiModule -->
<g id="edge18" class="edge">
<title>ToolLaunchUc&#45;&gt;ToolApiModule</title>
<path fill="none" stroke="black" d="M1174,-122.12C1174,-136.78 1174,-155 1174,-155 1174,-155 1298.38,-155 1298.38,-155"/>
<polygon fill="black" stroke="black" points="1298.38,-158.5 1308.38,-155 1298.38,-151.5 1298.38,-158.5"/>
</g>
<!-- ToolReferenceUc -->
<g id="node20" class="node">
<title>ToolReferenceUc</title>
<ellipse fill="#fdb462" stroke="black" cx="1007" cy="-104" rx="79.83" ry="18"/>
<text text-anchor="middle" x="1007" y="-99.8" font-family="Times,serif" font-size="14.00">ToolReferenceUc</text>
</g>
<!-- ToolReferenceUc&#45;&gt;ToolApiModule -->
<g id="edge19" class="edge">
<title>ToolReferenceUc&#45;&gt;ToolApiModule</title>
<path fill="none" stroke="black" d="M1007,-122.01C1007,-138.05 1007,-159 1007,-159 1007,-159 1298.47,-159 1298.47,-159"/>
<polygon fill="black" stroke="black" points="1298.47,-162.5 1308.47,-159 1298.47,-155.5 1298.47,-162.5"/>
</g>
</g>
</svg>
