<?xml version="1.0" encoding="UTF-8" standalone="no"?>
<!DOCTYPE svg PUBLIC "-//W3C//DTD SVG 1.1//EN"
 "http://www.w3.org/Graphics/SVG/1.1/DTD/svg11.dtd">
<!-- Generated by graphviz version 2.47.0 (20210316.0004)
 -->
<!-- Title: dependencies Pages: 1 -->
<svg width="3329pt" height="211pt"
 viewBox="0.00 0.00 3329.00 211.00" xmlns="http://www.w3.org/2000/svg" xmlns:xlink="http://www.w3.org/1999/xlink">
<g id="graph0" class="graph" transform="scale(1 1) rotate(0) translate(4 207)">
<title>dependencies</title>
<polygon fill="white" stroke="transparent" points="-4,4 -4,-207 3325,-207 3325,4 -4,4"/>
<text text-anchor="start" x="1639.51" y="-42.4" font-family="Times-12" font-weight="bold" font-size="14.00">Legend</text>
<polygon fill="#ffffb3" stroke="transparent" points="1426.5,-10 1426.5,-30 1446.5,-30 1446.5,-10 1426.5,-10"/>
<text text-anchor="start" x="1450.13" y="-15.4" font-family="Times-12" font-size="14.00"> &#160;Declarations</text>
<polygon fill="#8dd3c7" stroke="transparent" points="1539.5,-10 1539.5,-30 1559.5,-30 1559.5,-10 1539.5,-10"/>
<text text-anchor="start" x="1563.23" y="-15.4" font-family="Times-12" font-size="14.00"> &#160;Module</text>
<polygon fill="#80b1d3" stroke="transparent" points="1625.5,-10 1625.5,-30 1645.5,-30 1645.5,-10 1625.5,-10"/>
<text text-anchor="start" x="1649.28" y="-15.4" font-family="Times-12" font-size="14.00"> &#160;Bootstrap</text>
<polygon fill="#fdb462" stroke="transparent" points="1722.5,-10 1722.5,-30 1742.5,-30 1742.5,-10 1722.5,-10"/>
<text text-anchor="start" x="1746.17" y="-15.4" font-family="Times-12" font-size="14.00"> &#160;Providers</text>
<polygon fill="#fb8072" stroke="transparent" points="1818.5,-10 1818.5,-30 1838.5,-30 1838.5,-10 1818.5,-10"/>
<text text-anchor="start" x="1842.23" y="-15.4" font-family="Times-12" font-size="14.00"> &#160;Exports</text>
<g id="clust1" class="cluster">
<title>cluster_ToolApiModule</title>
<polygon fill="none" stroke="black" stroke-dasharray="1,5" points="8,-70 8,-195 3313,-195 3313,-70 8,-70"/>
</g>
<g id="clust3" class="cluster">
<title>cluster_ToolApiModule_imports</title>
<polygon fill="none" stroke="black" points="2566,-78 2566,-130 3305,-130 3305,-78 2566,-78"/>
</g>
<g id="clust6" class="cluster">
<title>cluster_ToolApiModule_providers</title>
<polygon fill="none" stroke="black" points="16,-78 16,-130 2558,-130 2558,-78 16,-78"/>
</g>
<!-- AuthorizationModule -->
<g id="node1" class="node">
<title>AuthorizationModule</title>
<polygon fill="#8dd3c7" stroke="black" points="3296.81,-122 3293.81,-126 3272.81,-126 3269.81,-122 3159.19,-122 3159.19,-86 3296.81,-86 3296.81,-122"/>
<text text-anchor="middle" x="3228" y="-99.8" font-family="Times,serif" font-size="14.00">AuthorizationModule</text>
</g>
<!-- ToolApiModule -->
<g id="node7" class="node">
<title>ToolApiModule</title>
<polygon fill="#8dd3c7" stroke="black" points="1981.49,-187 1978.49,-191 1957.49,-191 1954.49,-187 1874.51,-187 1874.51,-151 1981.49,-151 1981.49,-187"/>
<text text-anchor="middle" x="1928" y="-164.8" font-family="Times,serif" font-size="14.00">ToolApiModule</text>
</g>
<!-- AuthorizationModule&#45;&gt;ToolApiModule -->
<g id="edge1" class="edge">
<title>AuthorizationModule&#45;&gt;ToolApiModule</title>
<path fill="none" stroke="black" d="M3228,-122.32C3228,-145.66 3228,-183 3228,-183 3228,-183 1991.79,-183 1991.79,-183"/>
<polygon fill="black" stroke="black" points="1991.79,-179.5 1981.79,-183 1991.79,-186.5 1991.79,-179.5"/>
</g>
<!-- LoggerModule -->
<g id="node2" class="node">
<title>LoggerModule</title>
<polygon fill="#8dd3c7" stroke="black" points="3140.98,-122 3137.98,-126 3116.98,-126 3113.98,-122 3041.02,-122 3041.02,-86 3140.98,-86 3140.98,-122"/>
<text text-anchor="middle" x="3091" y="-99.8" font-family="Times,serif" font-size="14.00">LoggerModule</text>
</g>
<!-- LoggerModule&#45;&gt;ToolApiModule -->
<g id="edge2" class="edge">
<title>LoggerModule&#45;&gt;ToolApiModule</title>
<path fill="none" stroke="black" d="M3091,-122.16C3091,-144.35 3091,-179 3091,-179 3091,-179 1991.76,-179 1991.76,-179"/>
<polygon fill="black" stroke="black" points="1991.76,-175.5 1981.76,-179 1991.76,-182.5 1991.76,-175.5"/>
</g>
<!-- SchoolModule -->
<g id="node3" class="node">
<title>SchoolModule</title>
<polygon fill="#8dd3c7" stroke="black" points="3023.44,-122 3020.44,-126 2999.44,-126 2996.44,-122 2924.56,-122 2924.56,-86 3023.44,-86 3023.44,-122"/>
<text text-anchor="middle" x="2974" y="-99.8" font-family="Times,serif" font-size="14.00">SchoolModule</text>
</g>
<!-- SchoolModule&#45;&gt;ToolApiModule -->
<g id="edge3" class="edge">
<title>SchoolModule&#45;&gt;ToolApiModule</title>
<path fill="none" stroke="black" d="M2974,-122.28C2974,-143.32 2974,-175 2974,-175 2974,-175 1991.67,-175 1991.67,-175"/>
<polygon fill="black" stroke="black" points="1991.67,-171.5 1981.67,-175 1991.67,-178.5 1991.67,-171.5"/>
</g>
<!-- ToolConfigModule -->
<g id="node4" class="node">
<title>ToolConfigModule</title>
<polygon fill="#8dd3c7" stroke="black" points="2906.38,-122 2903.38,-126 2882.38,-126 2879.38,-122 2781.62,-122 2781.62,-86 2906.38,-86 2906.38,-122"/>
<text text-anchor="middle" x="2844" y="-99.8" font-family="Times,serif" font-size="14.00">ToolConfigModule</text>
</g>
<!-- ToolConfigModule&#45;&gt;ToolApiModule -->
<g id="edge4" class="edge">
<title>ToolConfigModule&#45;&gt;ToolApiModule</title>
<path fill="none" stroke="black" d="M2844,-122.31C2844,-142.15 2844,-171 2844,-171 2844,-171 1991.54,-171 1991.54,-171"/>
<polygon fill="black" stroke="black" points="1991.54,-167.5 1981.54,-171 1991.54,-174.5 1991.54,-167.5"/>
</g>
<!-- ToolModule -->
<g id="node5" class="node">
<title>ToolModule</title>
<polygon fill="#8dd3c7" stroke="black" points="2763.99,-122 2760.99,-126 2739.99,-126 2736.99,-122 2678.01,-122 2678.01,-86 2763.99,-86 2763.99,-122"/>
<text text-anchor="middle" x="2721" y="-99.8" font-family="Times,serif" font-size="14.00">ToolModule</text>
</g>
<!-- ToolModule&#45;&gt;ToolApiModule -->
<g id="edge5" class="edge">
<title>ToolModule&#45;&gt;ToolApiModule</title>
<path fill="none" stroke="black" d="M2721,-122.22C2721,-140.83 2721,-167 2721,-167 2721,-167 1991.57,-167 1991.57,-167"/>
<polygon fill="black" stroke="black" points="1991.57,-163.5 1981.57,-167 1991.57,-170.5 1991.57,-163.5"/>
</g>
<!-- UserModule -->
<g id="node6" class="node">
<title>UserModule</title>
<polygon fill="#8dd3c7" stroke="black" points="2659.98,-122 2656.98,-126 2635.98,-126 2632.98,-122 2574.02,-122 2574.02,-86 2659.98,-86 2659.98,-122"/>
<text text-anchor="middle" x="2617" y="-99.8" font-family="Times,serif" font-size="14.00">UserModule</text>
</g>
<!-- UserModule&#45;&gt;ToolApiModule -->
<g id="edge6" class="edge">
<title>UserModule&#45;&gt;ToolApiModule</title>
<path fill="none" stroke="black" d="M2617,-122.02C2617,-139.37 2617,-163 2617,-163 2617,-163 1991.49,-163 1991.49,-163"/>
<polygon fill="black" stroke="black" points="1991.49,-159.5 1981.49,-163 1991.49,-166.5 1991.49,-159.5"/>
</g>
<!-- ContextExternalToolUc -->
<g id="node8" class="node">
<title>ContextExternalToolUc</title>
<ellipse fill="#fdb462" stroke="black" cx="2446" cy="-104" rx="103.65" ry="18"/>
<text text-anchor="middle" x="2446" y="-99.8" font-family="Times,serif" font-size="14.00">ContextExternalToolUc</text>
</g>
<!-- ContextExternalToolUc&#45;&gt;ToolApiModule -->
<g id="edge7" class="edge">
<title>ContextExternalToolUc&#45;&gt;ToolApiModule</title>
<path fill="none" stroke="black" d="M2446,-122.01C2446,-138.05 2446,-159 2446,-159 2446,-159 1991.97,-159 1991.97,-159"/>
<polygon fill="black" stroke="black" points="1991.97,-155.5 1981.97,-159 1991.97,-162.5 1991.97,-155.5"/>
</g>
<!-- ExternalToolConfigurationUc -->
<g id="node9" class="node">
<title>ExternalToolConfigurationUc</title>
<ellipse fill="#fdb462" stroke="black" cx="2197" cy="-104" rx="127.35" ry="18"/>
<text text-anchor="middle" x="2197" y="-99.8" font-family="Times,serif" font-size="14.00">ExternalToolConfigurationUc</text>
</g>
<!-- ExternalToolConfigurationUc&#45;&gt;ToolApiModule -->
<g id="edge8" class="edge">
<title>ExternalToolConfigurationUc&#45;&gt;ToolApiModule</title>
<path fill="none" stroke="black" d="M2197,-122.12C2197,-136.78 2197,-155 2197,-155 2197,-155 1991.79,-155 1991.79,-155"/>
<polygon fill="black" stroke="black" points="1991.79,-151.5 1981.79,-155 1991.79,-158.5 1991.79,-151.5"/>
</g>
<!-- ExternalToolRequestMapper -->
<g id="node10" class="node">
<title>ExternalToolRequestMapper</title>
<ellipse fill="#fdb462" stroke="black" cx="1928" cy="-104" rx="123.26" ry="18"/>
<text text-anchor="middle" x="1928" y="-99.8" font-family="Times,serif" font-size="14.00">ExternalToolRequestMapper</text>
</g>
<!-- ExternalToolRequestMapper&#45;&gt;ToolApiModule -->
<g id="edge9" class="edge">
<title>ExternalToolRequestMapper&#45;&gt;ToolApiModule</title>
<path fill="none" stroke="black" d="M1928,-122.11C1928,-122.11 1928,-140.99 1928,-140.99"/>
<polygon fill="black" stroke="black" points="1924.5,-140.99 1928,-150.99 1931.5,-140.99 1924.5,-140.99"/>
</g>
<!-- ExternalToolResponseMapper -->
<g id="node11" class="node">
<title>ExternalToolResponseMapper</title>
<ellipse fill="#fdb462" stroke="black" cx="1658" cy="-104" rx="129.06" ry="18"/>
<text text-anchor="middle" x="1658" y="-99.8" font-family="Times,serif" font-size="14.00">ExternalToolResponseMapper</text>
</g>
<!-- ExternalToolResponseMapper&#45;&gt;ToolApiModule -->
<g id="edge10" class="edge">
<title>ExternalToolResponseMapper&#45;&gt;ToolApiModule</title>
<path fill="none" stroke="black" d="M1658,-122.12C1658,-136.78 1658,-155 1658,-155 1658,-155 1864.33,-155 1864.33,-155"/>
<polygon fill="black" stroke="black" points="1864.33,-158.5 1874.33,-155 1864.33,-151.5 1864.33,-158.5"/>
</g>
<!-- ExternalToolUc -->
<g id="node12" class="node">
<title>ExternalToolUc</title>
<ellipse fill="#fdb462" stroke="black" cx="1438" cy="-104" rx="73.49" ry="18"/>
<text text-anchor="middle" x="1438" y="-99.8" font-family="Times,serif" font-size="14.00">ExternalToolUc</text>
</g>
<!-- ExternalToolUc&#45;&gt;ToolApiModule -->
<g id="edge11" class="edge">
<title>ExternalToolUc&#45;&gt;ToolApiModule</title>
<path fill="none" stroke="black" d="M1438,-122.01C1438,-138.05 1438,-159 1438,-159 1438,-159 1864.16,-159 1864.16,-159"/>
<polygon fill="black" stroke="black" points="1864.16,-162.5 1874.16,-159 1864.16,-155.5 1864.16,-162.5"/>
</g>
<!-- LtiToolRepo -->
<g id="node13" class="node">
<title>LtiToolRepo</title>
<ellipse fill="#fdb462" stroke="black" cx="1286" cy="-104" rx="60.85" ry="18"/>
<text text-anchor="middle" x="1286" y="-99.8" font-family="Times,serif" font-size="14.00">LtiToolRepo</text>
</g>
<!-- LtiToolRepo&#45;&gt;ToolApiModule -->
<g id="edge12" class="edge">
<title>LtiToolRepo&#45;&gt;ToolApiModule</title>
<path fill="none" stroke="black" d="M1286,-122.02C1286,-139.37 1286,-163 1286,-163 1286,-163 1864.37,-163 1864.37,-163"/>
<polygon fill="black" stroke="black" points="1864.37,-166.5 1874.37,-163 1864.37,-159.5 1864.37,-166.5"/>
</g>
<!-- SchoolExternalToolRequestMapper -->
<g id="node14" class="node">
<title>SchoolExternalToolRequestMapper</title>
<ellipse fill="#fdb462" stroke="black" cx="1057" cy="-104" rx="149.9" ry="18"/>
<text text-anchor="middle" x="1057" y="-99.8" font-family="Times,serif" font-size="14.00">SchoolExternalToolRequestMapper</text>
</g>
<!-- SchoolExternalToolRequestMapper&#45;&gt;ToolApiModule -->
<g id="edge13" class="edge">
<title>SchoolExternalToolRequestMapper&#45;&gt;ToolApiModule</title>
<path fill="none" stroke="black" d="M1057,-122.22C1057,-140.83 1057,-167 1057,-167 1057,-167 1864.5,-167 1864.5,-167"/>
<polygon fill="black" stroke="black" points="1864.5,-170.5 1874.5,-167 1864.5,-163.5 1864.5,-170.5"/>
</g>
<!-- SchoolExternalToolResponseMapper -->
<g id="node15" class="node">
<title>SchoolExternalToolResponseMapper</title>
<ellipse fill="#fdb462" stroke="black" cx="733" cy="-104" rx="155.7" ry="18"/>
<text text-anchor="middle" x="733" y="-99.8" font-family="Times,serif" font-size="14.00">SchoolExternalToolResponseMapper</text>
</g>
<!-- SchoolExternalToolResponseMapper&#45;&gt;ToolApiModule -->
<g id="edge14" class="edge">
<title>SchoolExternalToolResponseMapper&#45;&gt;ToolApiModule</title>
<path fill="none" stroke="black" d="M733,-122.31C733,-142.15 733,-171 733,-171 733,-171 1864.33,-171 1864.33,-171"/>
<polygon fill="black" stroke="black" points="1864.33,-174.5 1874.33,-171 1864.33,-167.5 1864.33,-174.5"/>
</g>
<!-- SchoolExternalToolUc -->
<g id="node16" class="node">
<title>SchoolExternalToolUc</title>
<ellipse fill="#fdb462" stroke="black" cx="459" cy="-104" rx="100.14" ry="18"/>
<text text-anchor="middle" x="459" y="-99.8" font-family="Times,serif" font-size="14.00">SchoolExternalToolUc</text>
</g>
<!-- SchoolExternalToolUc&#45;&gt;ToolApiModule -->
<g id="edge15" class="edge">
<title>SchoolExternalToolUc&#45;&gt;ToolApiModule</title>
<path fill="none" stroke="black" d="M459,-122.28C459,-143.32 459,-175 459,-175 459,-175 1864.41,-175 1864.41,-175"/>
<polygon fill="black" stroke="black" points="1864.41,-178.5 1874.41,-175 1864.41,-171.5 1864.41,-178.5"/>
</g>
<!-- ToolLaunchUc -->
<g id="node17" class="node">
<title>ToolLaunchUc</title>
<ellipse fill="#fdb462" stroke="black" cx="271" cy="-104" rx="69.49" ry="18"/>
<text text-anchor="middle" x="271" y="-99.8" font-family="Times,serif" font-size="14.00">ToolLaunchUc</text>
</g>
<!-- ToolLaunchUc&#45;&gt;ToolApiModule -->
<g id="edge16" class="edge">
<title>ToolLaunchUc&#45;&gt;ToolApiModule</title>
<path fill="none" stroke="black" d="M271,-122.16C271,-144.35 271,-179 271,-179 271,-179 1864.28,-179 1864.28,-179"/>
<polygon fill="black" stroke="black" points="1864.28,-182.5 1874.28,-179 1864.28,-175.5 1864.28,-182.5"/>
</g>
<!-- ToolReferenceUc -->
<g id="node18" class="node">
<title>ToolReferenceUc</title>
<ellipse fill="#fdb462" stroke="black" cx="104" cy="-104" rx="79.83" ry="18"/>
<text text-anchor="middle" x="104" y="-99.8" font-family="Times,serif" font-size="14.00">ToolReferenceUc</text>
</g>
<!-- ToolReferenceUc&#45;&gt;ToolApiModule -->
<g id="edge17" class="edge">
<title>ToolReferenceUc&#45;&gt;ToolApiModule</title>
<path fill="none" stroke="black" d="M104,-122.32C104,-145.66 104,-183 104,-183 104,-183 1864.4,-183 1864.4,-183"/>
<polygon fill="black" stroke="black" points="1864.4,-186.5 1874.4,-183 1864.4,-179.5 1864.4,-186.5"/>
</g>
</g>
</svg>
