<?xml version="1.0" encoding="UTF-8" standalone="no"?>
<!DOCTYPE svg PUBLIC "-//W3C//DTD SVG 1.1//EN"
 "http://www.w3.org/Graphics/SVG/1.1/DTD/svg11.dtd">
<!-- Generated by graphviz version 2.47.0 (20210316.0004)
 -->
<!-- Title: dependencies Pages: 1 -->
<svg width="3330pt" height="211pt"
 viewBox="0.00 0.00 3330.00 211.00" xmlns="http://www.w3.org/2000/svg" xmlns:xlink="http://www.w3.org/1999/xlink">
<g id="graph0" class="graph" transform="scale(1 1) rotate(0) translate(4 207)">
<title>dependencies</title>
<polygon fill="white" stroke="transparent" points="-4,4 -4,-207 3326,-207 3326,4 -4,4"/>
<text text-anchor="start" x="1640.01" y="-42.4" font-family="Times-12" font-weight="bold" font-size="14.00">Legend</text>
<polygon fill="#ffffb3" stroke="transparent" points="1427,-10 1427,-30 1447,-30 1447,-10 1427,-10"/>
<text text-anchor="start" x="1450.63" y="-15.4" font-family="Times-12" font-size="14.00"> &#160;Declarations</text>
<polygon fill="#8dd3c7" stroke="transparent" points="1540,-10 1540,-30 1560,-30 1560,-10 1540,-10"/>
<text text-anchor="start" x="1563.73" y="-15.4" font-family="Times-12" font-size="14.00"> &#160;Module</text>
<polygon fill="#80b1d3" stroke="transparent" points="1626,-10 1626,-30 1646,-30 1646,-10 1626,-10"/>
<text text-anchor="start" x="1649.78" y="-15.4" font-family="Times-12" font-size="14.00"> &#160;Bootstrap</text>
<polygon fill="#fdb462" stroke="transparent" points="1723,-10 1723,-30 1743,-30 1743,-10 1723,-10"/>
<text text-anchor="start" x="1746.67" y="-15.4" font-family="Times-12" font-size="14.00"> &#160;Providers</text>
<polygon fill="#fb8072" stroke="transparent" points="1819,-10 1819,-30 1839,-30 1839,-10 1819,-10"/>
<text text-anchor="start" x="1842.73" y="-15.4" font-family="Times-12" font-size="14.00"> &#160;Exports</text>
<g id="clust1" class="cluster">
<title>cluster_ToolApiModule</title>
<polygon fill="none" stroke="black" stroke-dasharray="1,5" points="8,-70 8,-195 3314,-195 3314,-70 8,-70"/>
</g>
<g id="clust3" class="cluster">
<title>cluster_ToolApiModule_imports</title>
<polygon fill="none" stroke="black" points="2710,-78 2710,-130 3306,-130 3306,-78 2710,-78"/>
</g>
<g id="clust6" class="cluster">
<title>cluster_ToolApiModule_providers</title>
<polygon fill="none" stroke="black" points="16,-78 16,-130 2702,-130 2702,-78 16,-78"/>
</g>
<!-- AuthorizationModule -->
<g id="node1" class="node">
<title>AuthorizationModule</title>
<polygon fill="#8dd3c7" stroke="black" points="3297.81,-122 3294.81,-126 3273.81,-126 3270.81,-122 3160.19,-122 3160.19,-86 3297.81,-86 3297.81,-122"/>
<text text-anchor="middle" x="3229" y="-99.8" font-family="Times,serif" font-size="14.00">AuthorizationModule</text>
</g>
<!-- ToolApiModule -->
<g id="node6" class="node">
<title>ToolApiModule</title>
<polygon fill="#8dd3c7" stroke="black" points="1855.49,-187 1852.49,-191 1831.49,-191 1828.49,-187 1748.51,-187 1748.51,-151 1855.49,-151 1855.49,-187"/>
<text text-anchor="middle" x="1802" y="-164.8" font-family="Times,serif" font-size="14.00">ToolApiModule</text>
</g>
<!-- AuthorizationModule&#45;&gt;ToolApiModule -->
<g id="edge1" class="edge">
<title>AuthorizationModule&#45;&gt;ToolApiModule</title>
<path fill="none" stroke="black" d="M3229,-122.32C3229,-145.66 3229,-183 3229,-183 3229,-183 1865.77,-183 1865.77,-183"/>
<polygon fill="black" stroke="black" points="1865.77,-179.5 1855.77,-183 1865.77,-186.5 1865.77,-179.5"/>
</g>
<!-- LoggerModule -->
<g id="node2" class="node">
<title>LoggerModule</title>
<polygon fill="#8dd3c7" stroke="black" points="3141.98,-122 3138.98,-126 3117.98,-126 3114.98,-122 3042.02,-122 3042.02,-86 3141.98,-86 3141.98,-122"/>
<text text-anchor="middle" x="3092" y="-99.8" font-family="Times,serif" font-size="14.00">LoggerModule</text>
</g>
<!-- LoggerModule&#45;&gt;ToolApiModule -->
<g id="edge2" class="edge">
<title>LoggerModule&#45;&gt;ToolApiModule</title>
<path fill="none" stroke="black" d="M3092,-122.16C3092,-144.35 3092,-179 3092,-179 3092,-179 1865.79,-179 1865.79,-179"/>
<polygon fill="black" stroke="black" points="1865.79,-175.5 1855.79,-179 1865.79,-182.5 1865.79,-175.5"/>
</g>
<!-- SchoolModule -->
<g id="node3" class="node">
<title>SchoolModule</title>
<polygon fill="#8dd3c7" stroke="black" points="3024.44,-122 3021.44,-126 3000.44,-126 2997.44,-122 2925.56,-122 2925.56,-86 3024.44,-86 3024.44,-122"/>
<text text-anchor="middle" x="2975" y="-99.8" font-family="Times,serif" font-size="14.00">SchoolModule</text>
</g>
<!-- SchoolModule&#45;&gt;ToolApiModule -->
<g id="edge3" class="edge">
<title>SchoolModule&#45;&gt;ToolApiModule</title>
<path fill="none" stroke="black" d="M2975,-122.28C2975,-143.32 2975,-175 2975,-175 2975,-175 1865.84,-175 1865.84,-175"/>
<polygon fill="black" stroke="black" points="1865.84,-171.5 1855.84,-175 1865.84,-178.5 1865.84,-171.5"/>
</g>
<!-- ToolModule -->
<g id="node4" class="node">
<title>ToolModule</title>
<polygon fill="#8dd3c7" stroke="black" points="2907.99,-122 2904.99,-126 2883.99,-126 2880.99,-122 2822.01,-122 2822.01,-86 2907.99,-86 2907.99,-122"/>
<text text-anchor="middle" x="2865" y="-99.8" font-family="Times,serif" font-size="14.00">ToolModule</text>
</g>
<!-- ToolModule&#45;&gt;ToolApiModule -->
<g id="edge4" class="edge">
<title>ToolModule&#45;&gt;ToolApiModule</title>
<path fill="none" stroke="black" d="M2865,-122.31C2865,-142.15 2865,-171 2865,-171 2865,-171 1865.81,-171 1865.81,-171"/>
<polygon fill="black" stroke="black" points="1865.81,-167.5 1855.81,-171 1865.81,-174.5 1865.81,-167.5"/>
</g>
<!-- UserModule -->
<g id="node5" class="node">
<title>UserModule</title>
<polygon fill="#8dd3c7" stroke="black" points="2803.98,-122 2800.98,-126 2779.98,-126 2776.98,-122 2718.02,-122 2718.02,-86 2803.98,-86 2803.98,-122"/>
<text text-anchor="middle" x="2761" y="-99.8" font-family="Times,serif" font-size="14.00">UserModule</text>
</g>
<!-- UserModule&#45;&gt;ToolApiModule -->
<g id="edge5" class="edge">
<title>UserModule&#45;&gt;ToolApiModule</title>
<path fill="none" stroke="black" d="M2761,-122.22C2761,-140.83 2761,-167 2761,-167 2761,-167 1865.61,-167 1865.61,-167"/>
<polygon fill="black" stroke="black" points="1865.61,-163.5 1855.61,-167 1865.61,-170.5 1865.61,-163.5"/>
</g>
<!-- ContextExternalToolUc -->
<g id="node7" class="node">
<title>ContextExternalToolUc</title>
<ellipse fill="#fdb462" stroke="black" cx="2590" cy="-104" rx="103.65" ry="18"/>
<text text-anchor="middle" x="2590" y="-99.8" font-family="Times,serif" font-size="14.00">ContextExternalToolUc</text>
</g>
<!-- ContextExternalToolUc&#45;&gt;ToolApiModule -->
<g id="edge6" class="edge">
<title>ContextExternalToolUc&#45;&gt;ToolApiModule</title>
<path fill="none" stroke="black" d="M2590,-122.02C2590,-139.37 2590,-163 2590,-163 2590,-163 1865.54,-163 1865.54,-163"/>
<polygon fill="black" stroke="black" points="1865.54,-159.5 1855.54,-163 1865.54,-166.5 1865.54,-159.5"/>
</g>
<!-- ExternalToolConfigurationUc -->
<g id="node8" class="node">
<title>ExternalToolConfigurationUc</title>
<ellipse fill="#fdb462" stroke="black" cx="2341" cy="-104" rx="127.35" ry="18"/>
<text text-anchor="middle" x="2341" y="-99.8" font-family="Times,serif" font-size="14.00">ExternalToolConfigurationUc</text>
</g>
<!-- ExternalToolConfigurationUc&#45;&gt;ToolApiModule -->
<g id="edge7" class="edge">
<title>ExternalToolConfigurationUc&#45;&gt;ToolApiModule</title>
<path fill="none" stroke="black" d="M2341,-122.01C2341,-138.05 2341,-159 2341,-159 2341,-159 1865.65,-159 1865.65,-159"/>
<polygon fill="black" stroke="black" points="1865.65,-155.5 1855.65,-159 1865.65,-162.5 1865.65,-155.5"/>
</g>
<!-- ExternalToolRequestMapper -->
<g id="node9" class="node">
<title>ExternalToolRequestMapper</title>
<ellipse fill="#fdb462" stroke="black" cx="2072" cy="-104" rx="123.26" ry="18"/>
<text text-anchor="middle" x="2072" y="-99.8" font-family="Times,serif" font-size="14.00">ExternalToolRequestMapper</text>
</g>
<!-- ExternalToolRequestMapper&#45;&gt;ToolApiModule -->
<g id="edge8" class="edge">
<title>ExternalToolRequestMapper&#45;&gt;ToolApiModule</title>
<path fill="none" stroke="black" d="M2072,-122.12C2072,-136.78 2072,-155 2072,-155 2072,-155 1865.67,-155 1865.67,-155"/>
<polygon fill="black" stroke="black" points="1865.67,-151.5 1855.67,-155 1865.67,-158.5 1865.67,-151.5"/>
</g>
<!-- ExternalToolResponseMapper -->
<g id="node10" class="node">
<title>ExternalToolResponseMapper</title>
<ellipse fill="#fdb462" stroke="black" cx="1802" cy="-104" rx="129.06" ry="18"/>
<text text-anchor="middle" x="1802" y="-99.8" font-family="Times,serif" font-size="14.00">ExternalToolResponseMapper</text>
</g>
<!-- ExternalToolResponseMapper&#45;&gt;ToolApiModule -->
<g id="edge9" class="edge">
<title>ExternalToolResponseMapper&#45;&gt;ToolApiModule</title>
<path fill="none" stroke="black" d="M1802,-122.11C1802,-122.11 1802,-140.99 1802,-140.99"/>
<polygon fill="black" stroke="black" points="1798.5,-140.99 1802,-150.99 1805.5,-140.99 1798.5,-140.99"/>
</g>
<!-- ExternalToolUc -->
<g id="node11" class="node">
<title>ExternalToolUc</title>
<ellipse fill="#fdb462" stroke="black" cx="1582" cy="-104" rx="73.49" ry="18"/>
<text text-anchor="middle" x="1582" y="-99.8" font-family="Times,serif" font-size="14.00">ExternalToolUc</text>
</g>
<!-- ExternalToolUc&#45;&gt;ToolApiModule -->
<g id="edge10" class="edge">
<title>ExternalToolUc&#45;&gt;ToolApiModule</title>
<path fill="none" stroke="black" d="M1582,-122.12C1582,-136.78 1582,-155 1582,-155 1582,-155 1738.46,-155 1738.46,-155"/>
<polygon fill="black" stroke="black" points="1738.46,-158.5 1748.46,-155 1738.46,-151.5 1738.46,-158.5"/>
</g>
<!-- Lti11ResponseMapper -->
<g id="node12" class="node">
<title>Lti11ResponseMapper</title>
<ellipse fill="#fdb462" stroke="black" cx="1392" cy="-104" rx="99" ry="18"/>
<text text-anchor="middle" x="1392" y="-99.8" font-family="Times,serif" font-size="14.00">Lti11ResponseMapper</text>
</g>
<!-- Lti11ResponseMapper&#45;&gt;ToolApiModule -->
<g id="edge11" class="edge">
<title>Lti11ResponseMapper&#45;&gt;ToolApiModule</title>
<path fill="none" stroke="black" d="M1392,-122.01C1392,-138.05 1392,-159 1392,-159 1392,-159 1738.4,-159 1738.4,-159"/>
<polygon fill="black" stroke="black" points="1738.4,-162.5 1748.4,-159 1738.4,-155.5 1738.4,-162.5"/>
</g>
<!-- Lti11Uc -->
<g id="node13" class="node">
<title>Lti11Uc</title>
<ellipse fill="#fdb462" stroke="black" cx="1232" cy="-104" rx="43.44" ry="18"/>
<text text-anchor="middle" x="1232" y="-99.8" font-family="Times,serif" font-size="14.00">Lti11Uc</text>
</g>
<!-- Lti11Uc&#45;&gt;ToolApiModule -->
<g id="edge12" class="edge">
<title>Lti11Uc&#45;&gt;ToolApiModule</title>
<path fill="none" stroke="black" d="M1232,-122.02C1232,-139.37 1232,-163 1232,-163 1232,-163 1738.38,-163 1738.38,-163"/>
<polygon fill="black" stroke="black" points="1738.38,-166.5 1748.38,-163 1738.38,-159.5 1738.38,-166.5"/>
</g>
<!-- LtiRoleMapper -->
<g id="node14" class="node">
<title>LtiRoleMapper</title>
<ellipse fill="#fdb462" stroke="black" cx="1100" cy="-104" rx="70.64" ry="18"/>
<text text-anchor="middle" x="1100" y="-99.8" font-family="Times,serif" font-size="14.00">LtiRoleMapper</text>
</g>
<!-- LtiRoleMapper&#45;&gt;ToolApiModule -->
<g id="edge13" class="edge">
<title>LtiRoleMapper&#45;&gt;ToolApiModule</title>
<path fill="none" stroke="black" d="M1100,-122.22C1100,-140.83 1100,-167 1100,-167 1100,-167 1738.37,-167 1738.37,-167"/>
<polygon fill="black" stroke="black" points="1738.37,-170.5 1748.37,-167 1738.37,-163.5 1738.37,-170.5"/>
</g>
<!-- LtiToolRepo -->
<g id="node15" class="node">
<title>LtiToolRepo</title>
<ellipse fill="#fdb462" stroke="black" cx="951" cy="-104" rx="60.85" ry="18"/>
<text text-anchor="middle" x="951" y="-99.8" font-family="Times,serif" font-size="14.00">LtiToolRepo</text>
</g>
<!-- LtiToolRepo&#45;&gt;ToolApiModule -->
<g id="edge14" class="edge">
<title>LtiToolRepo&#45;&gt;ToolApiModule</title>
<path fill="none" stroke="black" d="M951,-122.31C951,-142.15 951,-171 951,-171 951,-171 1738.44,-171 1738.44,-171"/>
<polygon fill="black" stroke="black" points="1738.44,-174.5 1748.44,-171 1738.44,-167.5 1738.44,-174.5"/>
</g>
<!-- SchoolExternalToolRequestMapper -->
<g id="node16" class="node">
<title>SchoolExternalToolRequestMapper</title>
<ellipse fill="#fdb462" stroke="black" cx="722" cy="-104" rx="149.9" ry="18"/>
<text text-anchor="middle" x="722" y="-99.8" font-family="Times,serif" font-size="14.00">SchoolExternalToolRequestMapper</text>
</g>
<!-- SchoolExternalToolRequestMapper&#45;&gt;ToolApiModule -->
<g id="edge15" class="edge">
<title>SchoolExternalToolRequestMapper&#45;&gt;ToolApiModule</title>
<path fill="none" stroke="black" d="M722,-122.28C722,-143.32 722,-175 722,-175 722,-175 1738.44,-175 1738.44,-175"/>
<polygon fill="black" stroke="black" points="1738.44,-178.5 1748.44,-175 1738.44,-171.5 1738.44,-178.5"/>
</g>
<!-- SchoolExternalToolResponseMapper -->
<g id="node17" class="node">
<title>SchoolExternalToolResponseMapper</title>
<ellipse fill="#fdb462" stroke="black" cx="398" cy="-104" rx="155.7" ry="18"/>
<text text-anchor="middle" x="398" y="-99.8" font-family="Times,serif" font-size="14.00">SchoolExternalToolResponseMapper</text>
</g>
<!-- SchoolExternalToolResponseMapper&#45;&gt;ToolApiModule -->
<g id="edge16" class="edge">
<title>SchoolExternalToolResponseMapper&#45;&gt;ToolApiModule</title>
<path fill="none" stroke="black" d="M398,-122.16C398,-144.35 398,-179 398,-179 398,-179 1738.25,-179 1738.25,-179"/>
<polygon fill="black" stroke="black" points="1738.25,-182.5 1748.25,-179 1738.25,-175.5 1738.25,-182.5"/>
</g>
<!-- SchoolExternalToolUc -->
<g id="node18" class="node">
<title>SchoolExternalToolUc</title>
<ellipse fill="#fdb462" stroke="black" cx="124" cy="-104" rx="100.14" ry="18"/>
<text text-anchor="middle" x="124" y="-99.8" font-family="Times,serif" font-size="14.00">SchoolExternalToolUc</text>
</g>
<!-- SchoolExternalToolUc&#45;&gt;ToolApiModule -->
<g id="edge17" class="edge">
<title>SchoolExternalToolUc&#45;&gt;ToolApiModule</title>
<path fill="none" stroke="black" d="M124,-122.32C124,-145.66 124,-183 124,-183 124,-183 1738.07,-183 1738.07,-183"/>
<polygon fill="black" stroke="black" points="1738.07,-186.5 1748.07,-183 1738.07,-179.5 1738.07,-186.5"/>
</g>
</g>
</svg>
