<?xml version="1.0" encoding="UTF-8" standalone="no"?>
<!DOCTYPE svg PUBLIC "-//W3C//DTD SVG 1.1//EN"
 "http://www.w3.org/Graphics/SVG/1.1/DTD/svg11.dtd">
<!-- Generated by graphviz version 5.0.0 (20220707.1540)
 -->
<!-- Title: dependencies Pages: 1 -->
<svg width="3330pt" height="174pt"
 viewBox="0.00 0.00 3330.00 173.80" xmlns="http://www.w3.org/2000/svg" xmlns:xlink="http://www.w3.org/1999/xlink">
<g id="graph0" class="graph" transform="scale(1 1) rotate(0) translate(4 169.8)">
<title>dependencies</title>
<polygon fill="white" stroke="transparent" points="-4,4 -4,-169.8 3326,-169.8 3326,4 -4,4"/>
<text text-anchor="middle" x="1661" y="-8.2" font-family="sans-serif" font-size="14.00">dependencies</text>
<g id="clust1" class="cluster">
<title>cluster_ToolApiModule</title>
<polygon fill="none" stroke="black" stroke-dasharray="1,5" points="8,-32.8 8,-157.8 3314,-157.8 3314,-32.8 8,-32.8"/>
</g>
<g id="clust3" class="cluster">
<title>cluster_ToolApiModule_imports</title>
<polygon fill="none" stroke="black" points="2710,-40.8 2710,-92.8 3306,-92.8 3306,-40.8 2710,-40.8"/>
</g>
<g id="clust6" class="cluster">
<title>cluster_ToolApiModule_providers</title>
<polygon fill="none" stroke="black" points="16,-40.8 16,-92.8 2702,-92.8 2702,-40.8 16,-40.8"/>
</g>
<!-- AuthorizationModule -->
<g id="node1" class="node">
<title>AuthorizationModule</title>
<polygon fill="#8dd3c7" stroke="black" points="3297.81,-84.8 3294.81,-88.8 3273.81,-88.8 3270.81,-84.8 3160.19,-84.8 3160.19,-48.8 3297.81,-48.8 3297.81,-84.8"/>
<text text-anchor="middle" x="3229" y="-62.6" font-family="Times,serif" font-size="14.00">AuthorizationModule</text>
</g>
<!-- ToolApiModule -->
<g id="node6" class="node">
<title>ToolApiModule</title>
<polygon fill="#8dd3c7" stroke="black" points="1855.49,-149.8 1852.49,-153.8 1831.49,-153.8 1828.49,-149.8 1748.51,-149.8 1748.51,-113.8 1855.49,-113.8 1855.49,-149.8"/>
<text text-anchor="middle" x="1802" y="-127.6" font-family="Times,serif" font-size="14.00">ToolApiModule</text>
</g>
<!-- AuthorizationModule&#45;&gt;ToolApiModule -->
<g id="edge1" class="edge">
<title>AuthorizationModule&#45;&gt;ToolApiModule</title>
<path fill="none" stroke="black" d="M3229,-85.12C3229,-108.46 3229,-145.8 3229,-145.8 3229,-145.8 1865.77,-145.8 1865.77,-145.8"/>
<polygon fill="black" stroke="black" points="1865.77,-142.3 1855.77,-145.8 1865.77,-149.3 1865.77,-142.3"/>
</g>
<!-- LoggerModule -->
<g id="node2" class="node">
<title>LoggerModule</title>
<polygon fill="#8dd3c7" stroke="black" points="3141.98,-84.8 3138.98,-88.8 3117.98,-88.8 3114.98,-84.8 3042.02,-84.8 3042.02,-48.8 3141.98,-48.8 3141.98,-84.8"/>
<text text-anchor="middle" x="3092" y="-62.6" font-family="Times,serif" font-size="14.00">LoggerModule</text>
</g>
<!-- LoggerModule&#45;&gt;ToolApiModule -->
<g id="edge2" class="edge">
<title>LoggerModule&#45;&gt;ToolApiModule</title>
<path fill="none" stroke="black" d="M3092,-84.96C3092,-107.15 3092,-141.8 3092,-141.8 3092,-141.8 1865.79,-141.8 1865.79,-141.8"/>
<polygon fill="black" stroke="black" points="1865.79,-138.3 1855.79,-141.8 1865.79,-145.3 1865.79,-138.3"/>
</g>
<!-- SchoolModule -->
<g id="node3" class="node">
<title>SchoolModule</title>
<polygon fill="#8dd3c7" stroke="black" points="3024.44,-84.8 3021.44,-88.8 3000.44,-88.8 2997.44,-84.8 2925.56,-84.8 2925.56,-48.8 3024.44,-48.8 3024.44,-84.8"/>
<text text-anchor="middle" x="2975" y="-62.6" font-family="Times,serif" font-size="14.00">SchoolModule</text>
</g>
<!-- SchoolModule&#45;&gt;ToolApiModule -->
<g id="edge3" class="edge">
<title>SchoolModule&#45;&gt;ToolApiModule</title>
<path fill="none" stroke="black" d="M2975,-85.08C2975,-106.12 2975,-137.8 2975,-137.8 2975,-137.8 1865.84,-137.8 1865.84,-137.8"/>
<polygon fill="black" stroke="black" points="1865.84,-134.3 1855.84,-137.8 1865.84,-141.3 1865.84,-134.3"/>
</g>
<!-- ToolModule -->
<g id="node4" class="node">
<title>ToolModule</title>
<polygon fill="#8dd3c7" stroke="black" points="2907.99,-84.8 2904.99,-88.8 2883.99,-88.8 2880.99,-84.8 2822.01,-84.8 2822.01,-48.8 2907.99,-48.8 2907.99,-84.8"/>
<text text-anchor="middle" x="2865" y="-62.6" font-family="Times,serif" font-size="14.00">ToolModule</text>
</g>
<!-- ToolModule&#45;&gt;ToolApiModule -->
<g id="edge4" class="edge">
<title>ToolModule&#45;&gt;ToolApiModule</title>
<path fill="none" stroke="black" d="M2865,-85.11C2865,-104.95 2865,-133.8 2865,-133.8 2865,-133.8 1865.81,-133.8 1865.81,-133.8"/>
<polygon fill="black" stroke="black" points="1865.81,-130.3 1855.81,-133.8 1865.81,-137.3 1865.81,-130.3"/>
</g>
<!-- UserModule -->
<g id="node5" class="node">
<title>UserModule</title>
<polygon fill="#8dd3c7" stroke="black" points="2803.99,-84.8 2800.99,-88.8 2779.99,-88.8 2776.99,-84.8 2718.01,-84.8 2718.01,-48.8 2803.99,-48.8 2803.99,-84.8"/>
<text text-anchor="middle" x="2761" y="-62.6" font-family="Times,serif" font-size="14.00">UserModule</text>
</g>
<!-- UserModule&#45;&gt;ToolApiModule -->
<g id="edge5" class="edge">
<title>UserModule&#45;&gt;ToolApiModule</title>
<path fill="none" stroke="black" d="M2761,-85.02C2761,-103.63 2761,-129.8 2761,-129.8 2761,-129.8 1865.61,-129.8 1865.61,-129.8"/>
<polygon fill="black" stroke="black" points="1865.61,-126.3 1855.61,-129.8 1865.61,-133.3 1865.61,-126.3"/>
</g>
<!-- ContextExternalToolUc -->
<g id="node7" class="node">
<title>ContextExternalToolUc</title>
<ellipse fill="#fdb462" stroke="black" cx="2590" cy="-66.8" rx="103.65" ry="18"/>
<text text-anchor="middle" x="2590" y="-62.6" font-family="Times,serif" font-size="14.00">ContextExternalToolUc</text>
</g>
<!-- ContextExternalToolUc&#45;&gt;ToolApiModule -->
<g id="edge6" class="edge">
<title>ContextExternalToolUc&#45;&gt;ToolApiModule</title>
<path fill="none" stroke="black" d="M2590,-84.82C2590,-102.17 2590,-125.8 2590,-125.8 2590,-125.8 1865.54,-125.8 1865.54,-125.8"/>
<polygon fill="black" stroke="black" points="1865.54,-122.3 1855.54,-125.8 1865.54,-129.3 1865.54,-122.3"/>
</g>
<!-- ExternalToolConfigurationUc -->
<g id="node8" class="node">
<title>ExternalToolConfigurationUc</title>
<ellipse fill="#fdb462" stroke="black" cx="2341" cy="-66.8" rx="127.35" ry="18"/>
<text text-anchor="middle" x="2341" y="-62.6" font-family="Times,serif" font-size="14.00">ExternalToolConfigurationUc</text>
</g>
<!-- ExternalToolConfigurationUc&#45;&gt;ToolApiModule -->
<g id="edge7" class="edge">
<title>ExternalToolConfigurationUc&#45;&gt;ToolApiModule</title>
<path fill="none" stroke="black" d="M2341,-84.81C2341,-100.85 2341,-121.8 2341,-121.8 2341,-121.8 1865.65,-121.8 1865.65,-121.8"/>
<polygon fill="black" stroke="black" points="1865.65,-118.3 1855.65,-121.8 1865.65,-125.3 1865.65,-118.3"/>
</g>
<!-- ExternalToolRequestMapper -->
<g id="node9" class="node">
<title>ExternalToolRequestMapper</title>
<ellipse fill="#fdb462" stroke="black" cx="2072" cy="-66.8" rx="123.26" ry="18"/>
<text text-anchor="middle" x="2072" y="-62.6" font-family="Times,serif" font-size="14.00">ExternalToolRequestMapper</text>
</g>
<!-- ExternalToolRequestMapper&#45;&gt;ToolApiModule -->
<g id="edge8" class="edge">
<title>ExternalToolRequestMapper&#45;&gt;ToolApiModule</title>
<path fill="none" stroke="black" d="M2072,-84.92C2072,-99.58 2072,-117.8 2072,-117.8 2072,-117.8 1865.67,-117.8 1865.67,-117.8"/>
<polygon fill="black" stroke="black" points="1865.67,-114.3 1855.67,-117.8 1865.67,-121.3 1865.67,-114.3"/>
</g>
<!-- ExternalToolResponseMapper -->
<g id="node10" class="node">
<title>ExternalToolResponseMapper</title>
<ellipse fill="#fdb462" stroke="black" cx="1802" cy="-66.8" rx="129.06" ry="18"/>
<text text-anchor="middle" x="1802" y="-62.6" font-family="Times,serif" font-size="14.00">ExternalToolResponseMapper</text>
</g>
<!-- ExternalToolResponseMapper&#45;&gt;ToolApiModule -->
<g id="edge9" class="edge">
<title>ExternalToolResponseMapper&#45;&gt;ToolApiModule</title>
<path fill="none" stroke="black" d="M1802,-84.91C1802,-84.91 1802,-103.79 1802,-103.79"/>
<polygon fill="black" stroke="black" points="1798.5,-103.79 1802,-113.79 1805.5,-103.79 1798.5,-103.79"/>
</g>
<!-- ExternalToolUc -->
<g id="node11" class="node">
<title>ExternalToolUc</title>
<ellipse fill="#fdb462" stroke="black" cx="1582" cy="-66.8" rx="73.49" ry="18"/>
<text text-anchor="middle" x="1582" y="-62.6" font-family="Times,serif" font-size="14.00">ExternalToolUc</text>
</g>
<!-- ExternalToolUc&#45;&gt;ToolApiModule -->
<g id="edge10" class="edge">
<title>ExternalToolUc&#45;&gt;ToolApiModule</title>
<path fill="none" stroke="black" d="M1582,-84.92C1582,-99.58 1582,-117.8 1582,-117.8 1582,-117.8 1738.46,-117.8 1738.46,-117.8"/>
<polygon fill="black" stroke="black" points="1738.46,-121.3 1748.46,-117.8 1738.46,-114.3 1738.46,-121.3"/>
</g>
<!-- Lti11ResponseMapper -->
<g id="node12" class="node">
<title>Lti11ResponseMapper</title>
<ellipse fill="#fdb462" stroke="black" cx="1392" cy="-66.8" rx="99.01" ry="18"/>
<text text-anchor="middle" x="1392" y="-62.6" font-family="Times,serif" font-size="14.00">Lti11ResponseMapper</text>
</g>
<!-- Lti11ResponseMapper&#45;&gt;ToolApiModule -->
<g id="edge11" class="edge">
<title>Lti11ResponseMapper&#45;&gt;ToolApiModule</title>
<path fill="none" stroke="black" d="M1392,-84.81C1392,-100.85 1392,-121.8 1392,-121.8 1392,-121.8 1738.4,-121.8 1738.4,-121.8"/>
<polygon fill="black" stroke="black" points="1738.4,-125.3 1748.4,-121.8 1738.4,-118.3 1738.4,-125.3"/>
</g>
<!-- Lti11Uc -->
<g id="node13" class="node">
<title>Lti11Uc</title>
<ellipse fill="#fdb462" stroke="black" cx="1232" cy="-66.8" rx="43.44" ry="18"/>
<text text-anchor="middle" x="1232" y="-62.6" font-family="Times,serif" font-size="14.00">Lti11Uc</text>
</g>
<!-- Lti11Uc&#45;&gt;ToolApiModule -->
<g id="edge12" class="edge">
<title>Lti11Uc&#45;&gt;ToolApiModule</title>
<path fill="none" stroke="black" d="M1232,-84.82C1232,-102.17 1232,-125.8 1232,-125.8 1232,-125.8 1738.38,-125.8 1738.38,-125.8"/>
<polygon fill="black" stroke="black" points="1738.38,-129.3 1748.38,-125.8 1738.38,-122.3 1738.38,-129.3"/>
</g>
<!-- LtiRoleMapper -->
<g id="node14" class="node">
<title>LtiRoleMapper</title>
<ellipse fill="#fdb462" stroke="black" cx="1100" cy="-66.8" rx="70.64" ry="18"/>
<text text-anchor="middle" x="1100" y="-62.6" font-family="Times,serif" font-size="14.00">LtiRoleMapper</text>
</g>
<!-- LtiRoleMapper&#45;&gt;ToolApiModule -->
<g id="edge13" class="edge">
<title>LtiRoleMapper&#45;&gt;ToolApiModule</title>
<path fill="none" stroke="black" d="M1100,-85.02C1100,-103.63 1100,-129.8 1100,-129.8 1100,-129.8 1738.37,-129.8 1738.37,-129.8"/>
<polygon fill="black" stroke="black" points="1738.37,-133.3 1748.37,-129.8 1738.37,-126.3 1738.37,-133.3"/>
</g>
<!-- LtiToolRepo -->
<g id="node15" class="node">
<title>LtiToolRepo</title>
<ellipse fill="#fdb462" stroke="black" cx="951" cy="-66.8" rx="60.85" ry="18"/>
<text text-anchor="middle" x="951" y="-62.6" font-family="Times,serif" font-size="14.00">LtiToolRepo</text>
</g>
<!-- LtiToolRepo&#45;&gt;ToolApiModule -->
<g id="edge14" class="edge">
<title>LtiToolRepo&#45;&gt;ToolApiModule</title>
<path fill="none" stroke="black" d="M951,-85.11C951,-104.95 951,-133.8 951,-133.8 951,-133.8 1738.44,-133.8 1738.44,-133.8"/>
<polygon fill="black" stroke="black" points="1738.44,-137.3 1748.44,-133.8 1738.44,-130.3 1738.44,-137.3"/>
</g>
<!-- SchoolExternalToolRequestMapper -->
<g id="node16" class="node">
<title>SchoolExternalToolRequestMapper</title>
<ellipse fill="#fdb462" stroke="black" cx="722" cy="-66.8" rx="149.91" ry="18"/>
<text text-anchor="middle" x="722" y="-62.6" font-family="Times,serif" font-size="14.00">SchoolExternalToolRequestMapper</text>
</g>
<!-- SchoolExternalToolRequestMapper&#45;&gt;ToolApiModule -->
<g id="edge15" class="edge">
<title>SchoolExternalToolRequestMapper&#45;&gt;ToolApiModule</title>
<path fill="none" stroke="black" d="M722,-85.08C722,-106.12 722,-137.8 722,-137.8 722,-137.8 1738.44,-137.8 1738.44,-137.8"/>
<polygon fill="black" stroke="black" points="1738.44,-141.3 1748.44,-137.8 1738.44,-134.3 1738.44,-141.3"/>
</g>
<!-- SchoolExternalToolResponseMapper -->
<g id="node17" class="node">
<title>SchoolExternalToolResponseMapper</title>
<ellipse fill="#fdb462" stroke="black" cx="398" cy="-66.8" rx="155.72" ry="18"/>
<text text-anchor="middle" x="398" y="-62.6" font-family="Times,serif" font-size="14.00">SchoolExternalToolResponseMapper</text>
</g>
<!-- SchoolExternalToolResponseMapper&#45;&gt;ToolApiModule -->
<g id="edge16" class="edge">
<title>SchoolExternalToolResponseMapper&#45;&gt;ToolApiModule</title>
<path fill="none" stroke="black" d="M398,-84.96C398,-107.15 398,-141.8 398,-141.8 398,-141.8 1738.25,-141.8 1738.25,-141.8"/>
<polygon fill="black" stroke="black" points="1738.25,-145.3 1748.25,-141.8 1738.25,-138.3 1738.25,-145.3"/>
</g>
<!-- SchoolExternalToolUc -->
<g id="node18" class="node">
<title>SchoolExternalToolUc</title>
<ellipse fill="#fdb462" stroke="black" cx="124" cy="-66.8" rx="100.14" ry="18"/>
<text text-anchor="middle" x="124" y="-62.6" font-family="Times,serif" font-size="14.00">SchoolExternalToolUc</text>
</g>
<!-- SchoolExternalToolUc&#45;&gt;ToolApiModule -->
<g id="edge17" class="edge">
<title>SchoolExternalToolUc&#45;&gt;ToolApiModule</title>
<path fill="none" stroke="black" d="M124,-85.12C124,-108.46 124,-145.8 124,-145.8 124,-145.8 1738.07,-145.8 1738.07,-145.8"/>
<polygon fill="black" stroke="black" points="1738.07,-149.3 1748.07,-145.8 1738.07,-142.3 1738.07,-149.3"/>
</g>
</g>
</svg>
