<?xml version="1.0" encoding="UTF-8" standalone="no"?>
<!DOCTYPE svg PUBLIC "-//W3C//DTD SVG 1.1//EN"
 "http://www.w3.org/Graphics/SVG/1.1/DTD/svg11.dtd">
<!-- Generated by graphviz version 5.0.0 (20220707.1540)
 -->
<!-- Title: dependencies Pages: 1 -->
<svg width="3104pt" height="174pt"
 viewBox="0.00 0.00 3104.00 173.80" xmlns="http://www.w3.org/2000/svg" xmlns:xlink="http://www.w3.org/1999/xlink">
<g id="graph0" class="graph" transform="scale(1 1) rotate(0) translate(4 169.8)">
<title>dependencies</title>
<polygon fill="white" stroke="transparent" points="-4,4 -4,-169.8 3100,-169.8 3100,4 -4,4"/>
<text text-anchor="middle" x="1548" y="-8.2" font-family="sans-serif" font-size="14.00">dependencies</text>
<g id="clust1" class="cluster">
<title>cluster_ToolApiModule</title>
<polygon fill="none" stroke="black" stroke-dasharray="1,5" points="8,-32.8 8,-157.8 3088,-157.8 3088,-32.8 8,-32.8"/>
</g>
<g id="clust3" class="cluster">
<title>cluster_ToolApiModule_imports</title>
<polygon fill="none" stroke="black" points="2484,-40.8 2484,-92.8 3080,-92.8 3080,-40.8 2484,-40.8"/>
</g>
<g id="clust6" class="cluster">
<title>cluster_ToolApiModule_providers</title>
<polygon fill="none" stroke="black" points="16,-40.8 16,-92.8 2476,-92.8 2476,-40.8 16,-40.8"/>
</g>
<!-- AuthorizationModule -->
<g id="node1" class="node">
<title>AuthorizationModule</title>
<polygon fill="#8dd3c7" stroke="black" points="3071.81,-84.8 3068.81,-88.8 3047.81,-88.8 3044.81,-84.8 2934.19,-84.8 2934.19,-48.8 3071.81,-48.8 3071.81,-84.8"/>
<text text-anchor="middle" x="3003" y="-62.6" font-family="Times,serif" font-size="14.00">AuthorizationModule</text>
</g>
<!-- ToolApiModule -->
<g id="node6" class="node">
<title>ToolApiModule</title>
<polygon fill="#8dd3c7" stroke="black" points="1745.49,-149.8 1742.49,-153.8 1721.49,-153.8 1718.49,-149.8 1638.51,-149.8 1638.51,-113.8 1745.49,-113.8 1745.49,-149.8"/>
<text text-anchor="middle" x="1692" y="-127.6" font-family="Times,serif" font-size="14.00">ToolApiModule</text>
</g>
<!-- AuthorizationModule&#45;&gt;ToolApiModule -->
<g id="edge1" class="edge">
<title>AuthorizationModule&#45;&gt;ToolApiModule</title>
<path fill="none" stroke="black" d="M3003,-85.12C3003,-108.46 3003,-145.8 3003,-145.8 3003,-145.8 1755.84,-145.8 1755.84,-145.8"/>
<polygon fill="black" stroke="black" points="1755.84,-142.3 1745.84,-145.8 1755.84,-149.3 1755.84,-142.3"/>
</g>
<!-- LoggerModule -->
<g id="node2" class="node">
<title>LoggerModule</title>
<polygon fill="#8dd3c7" stroke="black" points="2915.98,-84.8 2912.98,-88.8 2891.98,-88.8 2888.98,-84.8 2816.02,-84.8 2816.02,-48.8 2915.98,-48.8 2915.98,-84.8"/>
<text text-anchor="middle" x="2866" y="-62.6" font-family="Times,serif" font-size="14.00">LoggerModule</text>
</g>
<!-- LoggerModule&#45;&gt;ToolApiModule -->
<g id="edge2" class="edge">
<title>LoggerModule&#45;&gt;ToolApiModule</title>
<path fill="none" stroke="black" d="M2866,-85.09C2866,-107.01 2866,-140.8 2866,-140.8 2866,-140.8 1755.5,-140.8 1755.5,-140.8"/>
<polygon fill="black" stroke="black" points="1755.5,-137.3 1745.5,-140.8 1755.49,-144.3 1755.5,-137.3"/>
</g>
<!-- SchoolModule -->
<g id="node3" class="node">
<title>SchoolModule</title>
<polygon fill="#8dd3c7" stroke="black" points="2798.44,-84.8 2795.44,-88.8 2774.44,-88.8 2771.44,-84.8 2699.56,-84.8 2699.56,-48.8 2798.44,-48.8 2798.44,-84.8"/>
<text text-anchor="middle" x="2749" y="-62.6" font-family="Times,serif" font-size="14.00">SchoolModule</text>
</g>
<!-- SchoolModule&#45;&gt;ToolApiModule -->
<g id="edge3" class="edge">
<title>SchoolModule&#45;&gt;ToolApiModule</title>
<path fill="none" stroke="black" d="M2749,-84.83C2749,-105.57 2749,-136.8 2749,-136.8 2749,-136.8 1755.51,-136.8 1755.51,-136.8"/>
<polygon fill="black" stroke="black" points="1755.51,-133.3 1745.51,-136.8 1755.5,-140.3 1755.51,-133.3"/>
</g>
<!-- ToolModule -->
<g id="node4" class="node">
<title>ToolModule</title>
<polygon fill="#8dd3c7" stroke="black" points="2681.99,-84.8 2678.99,-88.8 2657.99,-88.8 2654.99,-84.8 2596.01,-84.8 2596.01,-48.8 2681.99,-48.8 2681.99,-84.8"/>
<text text-anchor="middle" x="2639" y="-62.6" font-family="Times,serif" font-size="14.00">ToolModule</text>
</g>
<!-- ToolModule&#45;&gt;ToolApiModule -->
<g id="edge4" class="edge">
<title>ToolModule&#45;&gt;ToolApiModule</title>
<path fill="none" stroke="black" d="M2639,-84.91C2639,-104.14 2639,-131.8 2639,-131.8 2639,-131.8 1755.63,-131.8 1755.63,-131.8"/>
<polygon fill="black" stroke="black" points="1755.63,-128.3 1745.63,-131.8 1755.63,-135.3 1755.63,-128.3"/>
</g>
<!-- UserModule -->
<g id="node5" class="node">
<title>UserModule</title>
<polygon fill="#8dd3c7" stroke="black" points="2577.99,-84.8 2574.99,-88.8 2553.99,-88.8 2550.99,-84.8 2492.01,-84.8 2492.01,-48.8 2577.99,-48.8 2577.99,-84.8"/>
<text text-anchor="middle" x="2535" y="-62.6" font-family="Times,serif" font-size="14.00">UserModule</text>
</g>
<!-- UserModule&#45;&gt;ToolApiModule -->
<g id="edge5" class="edge">
<title>UserModule&#45;&gt;ToolApiModule</title>
<path fill="none" stroke="black" d="M2535,-85.1C2535,-103.07 2535,-127.8 2535,-127.8 2535,-127.8 1755.69,-127.8 1755.69,-127.8"/>
<polygon fill="black" stroke="black" points="1755.69,-124.3 1745.69,-127.8 1755.69,-131.3 1755.69,-124.3"/>
</g>
<!-- ExternalToolConfigurationUc -->
<g id="node7" class="node">
<title>ExternalToolConfigurationUc</title>
<ellipse fill="#fdb462" stroke="black" cx="2341" cy="-66.8" rx="127.35" ry="18"/>
<text text-anchor="middle" x="2341" y="-62.6" font-family="Times,serif" font-size="14.00">ExternalToolConfigurationUc</text>
</g>
<!-- ExternalToolConfigurationUc&#45;&gt;ToolApiModule -->
<g id="edge6" class="edge">
<title>ExternalToolConfigurationUc&#45;&gt;ToolApiModule</title>
<path fill="none" stroke="black" d="M2341,-84.83C2341,-101.2 2341,-122.8 2341,-122.8 2341,-122.8 1755.66,-122.8 1755.66,-122.8"/>
<polygon fill="black" stroke="black" points="1755.66,-119.3 1745.66,-122.8 1755.66,-126.3 1755.66,-119.3"/>
</g>
<!-- ExternalToolRequestMapper -->
<g id="node8" class="node">
<title>ExternalToolRequestMapper</title>
<ellipse fill="#fdb462" stroke="black" cx="2072" cy="-66.8" rx="123.26" ry="18"/>
<text text-anchor="middle" x="2072" y="-62.6" font-family="Times,serif" font-size="14.00">ExternalToolRequestMapper</text>
</g>
<!-- ExternalToolRequestMapper&#45;&gt;ToolApiModule -->
<g id="edge7" class="edge">
<title>ExternalToolRequestMapper&#45;&gt;ToolApiModule</title>
<path fill="none" stroke="black" d="M2072,-84.99C2072,-99.98 2072,-118.8 2072,-118.8 2072,-118.8 1755.64,-118.8 1755.64,-118.8"/>
<polygon fill="black" stroke="black" points="1755.64,-115.3 1745.64,-118.8 1755.64,-122.3 1755.64,-115.3"/>
</g>
<!-- ExternalToolResponseMapper -->
<g id="node9" class="node">
<title>ExternalToolResponseMapper</title>
<ellipse fill="#fdb462" stroke="black" cx="1802" cy="-66.8" rx="129.06" ry="18"/>
<text text-anchor="middle" x="1802" y="-62.6" font-family="Times,serif" font-size="14.00">ExternalToolResponseMapper</text>
</g>
<!-- ExternalToolResponseMapper&#45;&gt;ToolApiModule -->
<g id="edge8" class="edge">
<title>ExternalToolResponseMapper&#45;&gt;ToolApiModule</title>
<path fill="none" stroke="black" d="M1709.23,-79.33C1709.23,-79.33 1709.23,-103.65 1709.23,-103.65"/>
<polygon fill="black" stroke="black" points="1705.73,-103.65 1709.23,-113.65 1712.73,-103.65 1705.73,-103.65"/>
</g>
<!-- ExternalToolUc -->
<g id="node10" class="node">
<title>ExternalToolUc</title>
<ellipse fill="#fdb462" stroke="black" cx="1582" cy="-66.8" rx="73.49" ry="18"/>
<text text-anchor="middle" x="1582" y="-62.6" font-family="Times,serif" font-size="14.00">ExternalToolUc</text>
</g>
<!-- ExternalToolUc&#45;&gt;ToolApiModule -->
<g id="edge9" class="edge">
<title>ExternalToolUc&#45;&gt;ToolApiModule</title>
<path fill="none" stroke="black" d="M1646.87,-75.3C1646.87,-75.3 1646.87,-103.71 1646.87,-103.71"/>
<polygon fill="black" stroke="black" points="1643.37,-103.71 1646.87,-113.71 1650.37,-103.71 1643.37,-103.71"/>
</g>
<!-- Lti11ResponseMapper -->
<g id="node11" class="node">
<title>Lti11ResponseMapper</title>
<ellipse fill="#fdb462" stroke="black" cx="1392" cy="-66.8" rx="99.01" ry="18"/>
<text text-anchor="middle" x="1392" y="-62.6" font-family="Times,serif" font-size="14.00">Lti11ResponseMapper</text>
</g>
<!-- Lti11ResponseMapper&#45;&gt;ToolApiModule -->
<g id="edge10" class="edge">
<title>Lti11ResponseMapper&#45;&gt;ToolApiModule</title>
<path fill="none" stroke="black" d="M1392,-84.99C1392,-99.98 1392,-118.8 1392,-118.8 1392,-118.8 1628.37,-118.8 1628.37,-118.8"/>
<polygon fill="black" stroke="black" points="1628.37,-122.3 1638.37,-118.8 1628.37,-115.3 1628.37,-122.3"/>
</g>
<!-- Lti11Uc -->
<g id="node12" class="node">
<title>Lti11Uc</title>
<ellipse fill="#fdb462" stroke="black" cx="1232" cy="-66.8" rx="43.44" ry="18"/>
<text text-anchor="middle" x="1232" y="-62.6" font-family="Times,serif" font-size="14.00">Lti11Uc</text>
</g>
<!-- Lti11Uc&#45;&gt;ToolApiModule -->
<g id="edge11" class="edge">
<title>Lti11Uc&#45;&gt;ToolApiModule</title>
<path fill="none" stroke="black" d="M1232,-84.83C1232,-101.2 1232,-122.8 1232,-122.8 1232,-122.8 1628.33,-122.8 1628.33,-122.8"/>
<polygon fill="black" stroke="black" points="1628.33,-126.3 1638.33,-122.8 1628.33,-119.3 1628.33,-126.3"/>
</g>
<!-- LtiRoleMapper -->
<g id="node13" class="node">
<title>LtiRoleMapper</title>
<ellipse fill="#fdb462" stroke="black" cx="1100" cy="-66.8" rx="70.64" ry="18"/>
<text text-anchor="middle" x="1100" y="-62.6" font-family="Times,serif" font-size="14.00">LtiRoleMapper</text>
</g>
<!-- LtiRoleMapper&#45;&gt;ToolApiModule -->
<g id="edge12" class="edge">
<title>LtiRoleMapper&#45;&gt;ToolApiModule</title>
<path fill="none" stroke="black" d="M1100,-85.1C1100,-103.07 1100,-127.8 1100,-127.8 1100,-127.8 1628.42,-127.8 1628.42,-127.8"/>
<polygon fill="black" stroke="black" points="1628.42,-131.3 1638.42,-127.8 1628.42,-124.3 1628.42,-131.3"/>
</g>
<!-- LtiToolRepo -->
<g id="node14" class="node">
<title>LtiToolRepo</title>
<ellipse fill="#fdb462" stroke="black" cx="951" cy="-66.8" rx="60.85" ry="18"/>
<text text-anchor="middle" x="951" y="-62.6" font-family="Times,serif" font-size="14.00">LtiToolRepo</text>
</g>
<!-- LtiToolRepo&#45;&gt;ToolApiModule -->
<g id="edge13" class="edge">
<title>LtiToolRepo&#45;&gt;ToolApiModule</title>
<path fill="none" stroke="black" d="M951,-84.91C951,-104.14 951,-131.8 951,-131.8 951,-131.8 1628.41,-131.8 1628.41,-131.8"/>
<polygon fill="black" stroke="black" points="1628.41,-135.3 1638.41,-131.8 1628.41,-128.3 1628.41,-135.3"/>
</g>
<!-- SchoolExternalToolRequestMapper -->
<g id="node15" class="node">
<title>SchoolExternalToolRequestMapper</title>
<ellipse fill="#fdb462" stroke="black" cx="722" cy="-66.8" rx="149.91" ry="18"/>
<text text-anchor="middle" x="722" y="-62.6" font-family="Times,serif" font-size="14.00">SchoolExternalToolRequestMapper</text>
</g>
<!-- SchoolExternalToolRequestMapper&#45;&gt;ToolApiModule -->
<g id="edge14" class="edge">
<title>SchoolExternalToolRequestMapper&#45;&gt;ToolApiModule</title>
<path fill="none" stroke="black" d="M722,-84.83C722,-105.57 722,-136.8 722,-136.8 722,-136.8 1628.47,-136.8 1628.47,-136.8"/>
<polygon fill="black" stroke="black" points="1628.47,-140.3 1638.47,-136.8 1628.47,-133.3 1628.47,-140.3"/>
</g>
<!-- SchoolExternalToolResponseMapper -->
<g id="node16" class="node">
<title>SchoolExternalToolResponseMapper</title>
<ellipse fill="#fdb462" stroke="black" cx="398" cy="-66.8" rx="155.72" ry="18"/>
<text text-anchor="middle" x="398" y="-62.6" font-family="Times,serif" font-size="14.00">SchoolExternalToolResponseMapper</text>
</g>
<!-- SchoolExternalToolResponseMapper&#45;&gt;ToolApiModule -->
<g id="edge15" class="edge">
<title>SchoolExternalToolResponseMapper&#45;&gt;ToolApiModule</title>
<path fill="none" stroke="black" d="M398,-85.09C398,-107.01 398,-140.8 398,-140.8 398,-140.8 1628.45,-140.8 1628.45,-140.8"/>
<polygon fill="black" stroke="black" points="1628.45,-144.3 1638.45,-140.8 1628.45,-137.3 1628.45,-144.3"/>
</g>
<!-- SchoolExternalToolUc -->
<g id="node17" class="node">
<title>SchoolExternalToolUc</title>
<ellipse fill="#fdb462" stroke="black" cx="124" cy="-66.8" rx="100.14" ry="18"/>
<text text-anchor="middle" x="124" y="-62.6" font-family="Times,serif" font-size="14.00">SchoolExternalToolUc</text>
</g>
<!-- SchoolExternalToolUc&#45;&gt;ToolApiModule -->
<g id="edge16" class="edge">
<title>SchoolExternalToolUc&#45;&gt;ToolApiModule</title>
<path fill="none" stroke="black" d="M124,-85.12C124,-108.46 124,-145.8 124,-145.8 124,-145.8 1628.48,-145.8 1628.48,-145.8"/>
<polygon fill="black" stroke="black" points="1628.48,-149.3 1638.48,-145.8 1628.48,-142.3 1628.48,-149.3"/>
</g>
</g>
</svg>
