<?xml version="1.0" encoding="UTF-8" standalone="no"?>
<!DOCTYPE svg PUBLIC "-//W3C//DTD SVG 1.1//EN"
 "http://www.w3.org/Graphics/SVG/1.1/DTD/svg11.dtd">
<!-- Generated by graphviz version 2.47.0 (20210316.0004)
 -->
<!-- Title: dependencies Pages: 1 -->
<svg width="3186pt" height="211pt"
 viewBox="0.00 0.00 3186.00 211.00" xmlns="http://www.w3.org/2000/svg" xmlns:xlink="http://www.w3.org/1999/xlink">
<g id="graph0" class="graph" transform="scale(1 1) rotate(0) translate(4 207)">
<title>dependencies</title>
<polygon fill="white" stroke="transparent" points="-4,4 -4,-207 3182,-207 3182,4 -4,4"/>
<text text-anchor="start" x="1568.01" y="-42.4" font-family="Times-12" font-weight="bold" font-size="14.00">Legend</text>
<polygon fill="#ffffb3" stroke="transparent" points="1355,-10 1355,-30 1375,-30 1375,-10 1355,-10"/>
<text text-anchor="start" x="1378.63" y="-15.4" font-family="Times-12" font-size="14.00"> &#160;Declarations</text>
<polygon fill="#8dd3c7" stroke="transparent" points="1468,-10 1468,-30 1488,-30 1488,-10 1468,-10"/>
<text text-anchor="start" x="1491.73" y="-15.4" font-family="Times-12" font-size="14.00"> &#160;Module</text>
<polygon fill="#80b1d3" stroke="transparent" points="1554,-10 1554,-30 1574,-30 1574,-10 1554,-10"/>
<text text-anchor="start" x="1577.78" y="-15.4" font-family="Times-12" font-size="14.00"> &#160;Bootstrap</text>
<polygon fill="#fdb462" stroke="transparent" points="1651,-10 1651,-30 1671,-30 1671,-10 1651,-10"/>
<text text-anchor="start" x="1674.67" y="-15.4" font-family="Times-12" font-size="14.00"> &#160;Providers</text>
<polygon fill="#fb8072" stroke="transparent" points="1747,-10 1747,-30 1767,-30 1767,-10 1747,-10"/>
<text text-anchor="start" x="1770.73" y="-15.4" font-family="Times-12" font-size="14.00"> &#160;Exports</text>
<g id="clust1" class="cluster">
<title>cluster_ToolApiModule</title>
<polygon fill="none" stroke="black" stroke-dasharray="1,5" points="8,-70 8,-195 3170,-195 3170,-70 8,-70"/>
</g>
<g id="clust6" class="cluster">
<title>cluster_ToolApiModule_providers</title>
<polygon fill="none" stroke="black" points="620,-78 620,-130 3162,-130 3162,-78 620,-78"/>
</g>
<g id="clust3" class="cluster">
<title>cluster_ToolApiModule_imports</title>
<polygon fill="none" stroke="black" points="16,-78 16,-130 612,-130 612,-78 16,-78"/>
</g>
<!-- AuthorizationModule -->
<g id="node1" class="node">
<title>AuthorizationModule</title>
<polygon fill="#8dd3c7" stroke="black" points="603.81,-122 600.81,-126 579.81,-126 576.81,-122 466.19,-122 466.19,-86 603.81,-86 603.81,-122"/>
<text text-anchor="middle" x="535" y="-99.8" font-family="Times,serif" font-size="14.00">AuthorizationModule</text>
</g>
<!-- ToolApiModule -->
<g id="node6" class="node">
<title>ToolApiModule</title>
<polygon fill="#8dd3c7" stroke="black" points="1253.49,-187 1250.49,-191 1229.49,-191 1226.49,-187 1146.51,-187 1146.51,-151 1253.49,-151 1253.49,-187"/>
<text text-anchor="middle" x="1200" y="-164.8" font-family="Times,serif" font-size="14.00">ToolApiModule</text>
</g>
<!-- AuthorizationModule&#45;&gt;ToolApiModule -->
<g id="edge1" class="edge">
<title>AuthorizationModule&#45;&gt;ToolApiModule</title>
<path fill="none" stroke="black" d="M535,-122.3C535,-140.27 535,-165 535,-165 535,-165 1136.42,-165 1136.42,-165"/>
<polygon fill="black" stroke="black" points="1136.42,-168.5 1146.42,-165 1136.42,-161.5 1136.42,-168.5"/>
</g>
<!-- LoggerModule -->
<g id="node2" class="node">
<title>LoggerModule</title>
<polygon fill="#8dd3c7" stroke="black" points="447.98,-122 444.98,-126 423.98,-126 420.98,-122 348.02,-122 348.02,-86 447.98,-86 447.98,-122"/>
<text text-anchor="middle" x="398" y="-99.8" font-family="Times,serif" font-size="14.00">LoggerModule</text>
</g>
<!-- LoggerModule&#45;&gt;ToolApiModule -->
<g id="edge2" class="edge">
<title>LoggerModule&#45;&gt;ToolApiModule</title>
<path fill="none" stroke="black" d="M398,-122.11C398,-141.34 398,-169 398,-169 398,-169 1136.45,-169 1136.45,-169"/>
<polygon fill="black" stroke="black" points="1136.45,-172.5 1146.45,-169 1136.45,-165.5 1136.45,-172.5"/>
</g>
<!-- SchoolModule -->
<g id="node3" class="node">
<title>SchoolModule</title>
<polygon fill="#8dd3c7" stroke="black" points="330.44,-122 327.44,-126 306.44,-126 303.44,-122 231.56,-122 231.56,-86 330.44,-86 330.44,-122"/>
<text text-anchor="middle" x="281" y="-99.8" font-family="Times,serif" font-size="14.00">SchoolModule</text>
</g>
<!-- SchoolModule&#45;&gt;ToolApiModule -->
<g id="edge3" class="edge">
<title>SchoolModule&#45;&gt;ToolApiModule</title>
<path fill="none" stroke="black" d="M281,-122.03C281,-142.77 281,-174 281,-174 281,-174 1136.28,-174 1136.28,-174"/>
<polygon fill="black" stroke="black" points="1136.28,-177.5 1146.28,-174 1136.28,-170.5 1136.28,-177.5"/>
</g>
<!-- ToolModule -->
<g id="node4" class="node">
<title>ToolModule</title>
<polygon fill="#8dd3c7" stroke="black" points="213.99,-122 210.99,-126 189.99,-126 186.99,-122 128.01,-122 128.01,-86 213.99,-86 213.99,-122"/>
<text text-anchor="middle" x="171" y="-99.8" font-family="Times,serif" font-size="14.00">ToolModule</text>
</g>
<!-- ToolModule&#45;&gt;ToolApiModule -->
<g id="edge4" class="edge">
<title>ToolModule&#45;&gt;ToolApiModule</title>
<path fill="none" stroke="black" d="M171,-122.29C171,-144.21 171,-178 171,-178 171,-178 1136.48,-178 1136.48,-178"/>
<polygon fill="black" stroke="black" points="1136.48,-181.5 1146.48,-178 1136.48,-174.5 1136.48,-181.5"/>
</g>
<!-- UserModule -->
<g id="node5" class="node">
<title>UserModule</title>
<polygon fill="#8dd3c7" stroke="black" points="109.98,-122 106.98,-126 85.98,-126 82.98,-122 24.02,-122 24.02,-86 109.98,-86 109.98,-122"/>
<text text-anchor="middle" x="67" y="-99.8" font-family="Times,serif" font-size="14.00">UserModule</text>
</g>
<!-- UserModule&#45;&gt;ToolApiModule -->
<g id="edge5" class="edge">
<title>UserModule&#45;&gt;ToolApiModule</title>
<path fill="none" stroke="black" d="M67,-122.32C67,-145.66 67,-183 67,-183 67,-183 1136.49,-183 1136.49,-183"/>
<polygon fill="black" stroke="black" points="1136.49,-186.5 1146.49,-183 1136.49,-179.5 1136.49,-186.5"/>
</g>
<!-- ContextExternalToolUc -->
<g id="node7" class="node">
<title>ContextExternalToolUc</title>
<ellipse fill="#fdb462" stroke="black" cx="3050" cy="-104" rx="103.65" ry="18"/>
<text text-anchor="middle" x="3050" y="-99.8" font-family="Times,serif" font-size="14.00">ContextExternalToolUc</text>
</g>
<!-- ContextExternalToolUc&#45;&gt;ToolApiModule -->
<g id="edge6" class="edge">
<title>ContextExternalToolUc&#45;&gt;ToolApiModule</title>
<path fill="none" stroke="black" d="M3050,-122.32C3050,-145.66 3050,-183 3050,-183 3050,-183 1263.87,-183 1263.87,-183"/>
<polygon fill="black" stroke="black" points="1263.87,-179.5 1253.87,-183 1263.87,-186.5 1263.87,-179.5"/>
</g>
<!-- ExternalToolConfigurationUc -->
<g id="node8" class="node">
<title>ExternalToolConfigurationUc</title>
<ellipse fill="#fdb462" stroke="black" cx="2801" cy="-104" rx="127.35" ry="18"/>
<text text-anchor="middle" x="2801" y="-99.8" font-family="Times,serif" font-size="14.00">ExternalToolConfigurationUc</text>
</g>
<!-- ExternalToolConfigurationUc&#45;&gt;ToolApiModule -->
<g id="edge7" class="edge">
<title>ExternalToolConfigurationUc&#45;&gt;ToolApiModule</title>
<path fill="none" stroke="black" d="M2801,-122.29C2801,-144.21 2801,-178 2801,-178 2801,-178 1263.73,-178 1263.73,-178"/>
<polygon fill="black" stroke="black" points="1263.73,-174.5 1253.73,-178 1263.73,-181.5 1263.73,-174.5"/>
</g>
<!-- ExternalToolRequestMapper -->
<g id="node9" class="node">
<title>ExternalToolRequestMapper</title>
<ellipse fill="#fdb462" stroke="black" cx="2532" cy="-104" rx="123.26" ry="18"/>
<text text-anchor="middle" x="2532" y="-99.8" font-family="Times,serif" font-size="14.00">ExternalToolRequestMapper</text>
</g>
<!-- ExternalToolRequestMapper&#45;&gt;ToolApiModule -->
<g id="edge8" class="edge">
<title>ExternalToolRequestMapper&#45;&gt;ToolApiModule</title>
<path fill="none" stroke="black" d="M2532,-122.03C2532,-142.77 2532,-174 2532,-174 2532,-174 1263.87,-174 1263.87,-174"/>
<polygon fill="black" stroke="black" points="1263.87,-170.5 1253.87,-174 1263.87,-177.5 1263.87,-170.5"/>
</g>
<!-- ExternalToolResponseMapper -->
<g id="node10" class="node">
<title>ExternalToolResponseMapper</title>
<ellipse fill="#fdb462" stroke="black" cx="2262" cy="-104" rx="129.06" ry="18"/>
<text text-anchor="middle" x="2262" y="-99.8" font-family="Times,serif" font-size="14.00">ExternalToolResponseMapper</text>
</g>
<!-- ExternalToolResponseMapper&#45;&gt;ToolApiModule -->
<g id="edge9" class="edge">
<title>ExternalToolResponseMapper&#45;&gt;ToolApiModule</title>
<path fill="none" stroke="black" d="M2262,-122.11C2262,-141.34 2262,-169 2262,-169 2262,-169 1263.76,-169 1263.76,-169"/>
<polygon fill="black" stroke="black" points="1263.76,-165.5 1253.76,-169 1263.76,-172.5 1263.76,-165.5"/>
</g>
<!-- ExternalToolUc -->
<g id="node11" class="node">
<title>ExternalToolUc</title>
<ellipse fill="#fdb462" stroke="black" cx="2042" cy="-104" rx="73.49" ry="18"/>
<text text-anchor="middle" x="2042" y="-99.8" font-family="Times,serif" font-size="14.00">ExternalToolUc</text>
</g>
<!-- ExternalToolUc&#45;&gt;ToolApiModule -->
<g id="edge10" class="edge">
<title>ExternalToolUc&#45;&gt;ToolApiModule</title>
<path fill="none" stroke="black" d="M2042,-122.3C2042,-140.27 2042,-165 2042,-165 2042,-165 1263.63,-165 1263.63,-165"/>
<polygon fill="black" stroke="black" points="1263.63,-161.5 1253.63,-165 1263.63,-168.5 1263.63,-161.5"/>
</g>
<!-- LtiToolRepo -->
<g id="node12" class="node">
<title>LtiToolRepo</title>
<ellipse fill="#fdb462" stroke="black" cx="1890" cy="-104" rx="60.85" ry="18"/>
<text text-anchor="middle" x="1890" y="-99.8" font-family="Times,serif" font-size="14.00">LtiToolRepo</text>
</g>
<!-- LtiToolRepo&#45;&gt;ToolApiModule -->
<g id="edge11" class="edge">
<title>LtiToolRepo&#45;&gt;ToolApiModule</title>
<path fill="none" stroke="black" d="M1890,-122.03C1890,-138.4 1890,-160 1890,-160 1890,-160 1263.57,-160 1263.57,-160"/>
<polygon fill="black" stroke="black" points="1263.57,-156.5 1253.57,-160 1263.57,-163.5 1263.57,-156.5"/>
</g>
<!-- SchoolExternalToolRequestMapper -->
<g id="node13" class="node">
<title>SchoolExternalToolRequestMapper</title>
<ellipse fill="#fdb462" stroke="black" cx="1661" cy="-104" rx="149.9" ry="18"/>
<text text-anchor="middle" x="1661" y="-99.8" font-family="Times,serif" font-size="14.00">SchoolExternalToolRequestMapper</text>
</g>
<!-- SchoolExternalToolRequestMapper&#45;&gt;ToolApiModule -->
<g id="edge12" class="edge">
<title>SchoolExternalToolRequestMapper&#45;&gt;ToolApiModule</title>
<path fill="none" stroke="black" d="M1661,-122.19C1661,-137.18 1661,-156 1661,-156 1661,-156 1263.78,-156 1263.78,-156"/>
<polygon fill="black" stroke="black" points="1263.78,-152.5 1253.78,-156 1263.78,-159.5 1263.78,-152.5"/>
</g>
<!-- SchoolExternalToolResponseMapper -->
<g id="node14" class="node">
<title>SchoolExternalToolResponseMapper</title>
<ellipse fill="#fdb462" stroke="black" cx="1337" cy="-104" rx="155.7" ry="18"/>
<text text-anchor="middle" x="1337" y="-99.8" font-family="Times,serif" font-size="14.00">SchoolExternalToolResponseMapper</text>
</g>
<!-- SchoolExternalToolResponseMapper&#45;&gt;ToolApiModule -->
<g id="edge13" class="edge">
<title>SchoolExternalToolResponseMapper&#45;&gt;ToolApiModule</title>
<path fill="none" stroke="black" d="M1217.32,-115.62C1217.32,-115.62 1217.32,-140.85 1217.32,-140.85"/>
<polygon fill="black" stroke="black" points="1213.82,-140.85 1217.32,-150.85 1220.82,-140.85 1213.82,-140.85"/>
</g>
<!-- SchoolExternalToolUc -->
<g id="node15" class="node">
<title>SchoolExternalToolUc</title>
<ellipse fill="#fdb462" stroke="black" cx="1063" cy="-104" rx="100.14" ry="18"/>
<text text-anchor="middle" x="1063" y="-99.8" font-family="Times,serif" font-size="14.00">SchoolExternalToolUc</text>
</g>
<!-- SchoolExternalToolUc&#45;&gt;ToolApiModule -->
<g id="edge14" class="edge">
<title>SchoolExternalToolUc&#45;&gt;ToolApiModule</title>
<path fill="none" stroke="black" d="M1154.79,-111.2C1154.79,-111.2 1154.79,-140.96 1154.79,-140.96"/>
<polygon fill="black" stroke="black" points="1151.29,-140.96 1154.79,-150.96 1158.29,-140.96 1151.29,-140.96"/>
</g>
<!-- ToolLaunchUc -->
<g id="node16" class="node">
<title>ToolLaunchUc</title>
<ellipse fill="#fdb462" stroke="black" cx="875" cy="-104" rx="69.49" ry="18"/>
<text text-anchor="middle" x="875" y="-99.8" font-family="Times,serif" font-size="14.00">ToolLaunchUc</text>
</g>
<!-- ToolLaunchUc&#45;&gt;ToolApiModule -->
<g id="edge15" class="edge">
<title>ToolLaunchUc&#45;&gt;ToolApiModule</title>
<path fill="none" stroke="black" d="M875,-122.19C875,-137.18 875,-156 875,-156 875,-156 1136.33,-156 1136.33,-156"/>
<polygon fill="black" stroke="black" points="1136.33,-159.5 1146.33,-156 1136.33,-152.5 1136.33,-159.5"/>
</g>
<!-- ToolReferenceUc -->
<g id="node17" class="node">
<title>ToolReferenceUc</title>
<ellipse fill="#fdb462" stroke="black" cx="708" cy="-104" rx="79.83" ry="18"/>
<text text-anchor="middle" x="708" y="-99.8" font-family="Times,serif" font-size="14.00">ToolReferenceUc</text>
</g>
<!-- ToolReferenceUc&#45;&gt;ToolApiModule -->
<g id="edge16" class="edge">
<title>ToolReferenceUc&#45;&gt;ToolApiModule</title>
<path fill="none" stroke="black" d="M708,-122.03C708,-138.4 708,-160 708,-160 708,-160 1136.41,-160 1136.41,-160"/>
<polygon fill="black" stroke="black" points="1136.41,-163.5 1146.41,-160 1136.41,-156.5 1136.41,-163.5"/>
</g>
</g>
</svg>
