<?xml version="1.0" encoding="UTF-8" standalone="no"?>
<!DOCTYPE svg PUBLIC "-//W3C//DTD SVG 1.1//EN"
 "http://www.w3.org/Graphics/SVG/1.1/DTD/svg11.dtd">
<!-- Generated by graphviz version 2.47.0 (20210316.0004)
 -->
<!-- Title: dependencies Pages: 1 -->
<svg width="3835pt" height="211pt"
 viewBox="0.00 0.00 3835.00 211.00" xmlns="http://www.w3.org/2000/svg" xmlns:xlink="http://www.w3.org/1999/xlink">
<g id="graph0" class="graph" transform="scale(1 1) rotate(0) translate(4 207)">
<title>dependencies</title>
<polygon fill="white" stroke="transparent" points="-4,4 -4,-207 3831,-207 3831,4 -4,4"/>
<text text-anchor="start" x="1892.51" y="-42.4" font-family="Times-12" font-weight="bold" font-size="14.00">Legend</text>
<polygon fill="#ffffb3" stroke="transparent" points="1679.5,-10 1679.5,-30 1699.5,-30 1699.5,-10 1679.5,-10"/>
<text text-anchor="start" x="1703.13" y="-15.4" font-family="Times-12" font-size="14.00"> &#160;Declarations</text>
<polygon fill="#8dd3c7" stroke="transparent" points="1792.5,-10 1792.5,-30 1812.5,-30 1812.5,-10 1792.5,-10"/>
<text text-anchor="start" x="1816.23" y="-15.4" font-family="Times-12" font-size="14.00"> &#160;Module</text>
<polygon fill="#80b1d3" stroke="transparent" points="1878.5,-10 1878.5,-30 1898.5,-30 1898.5,-10 1878.5,-10"/>
<text text-anchor="start" x="1902.28" y="-15.4" font-family="Times-12" font-size="14.00"> &#160;Bootstrap</text>
<polygon fill="#fdb462" stroke="transparent" points="1975.5,-10 1975.5,-30 1995.5,-30 1995.5,-10 1975.5,-10"/>
<text text-anchor="start" x="1999.17" y="-15.4" font-family="Times-12" font-size="14.00"> &#160;Providers</text>
<polygon fill="#fb8072" stroke="transparent" points="2071.5,-10 2071.5,-30 2091.5,-30 2091.5,-10 2071.5,-10"/>
<text text-anchor="start" x="2095.23" y="-15.4" font-family="Times-12" font-size="14.00"> &#160;Exports</text>
<g id="clust1" class="cluster">
<title>cluster_ToolApiModule</title>
<polygon fill="none" stroke="black" stroke-dasharray="1,5" points="8,-70 8,-195 3819,-195 3819,-70 8,-70"/>
</g>
<g id="clust6" class="cluster">
<title>cluster_ToolApiModule_providers</title>
<polygon fill="none" stroke="black" points="960,-78 960,-130 3811,-130 3811,-78 960,-78"/>
</g>
<g id="clust3" class="cluster">
<title>cluster_ToolApiModule_imports</title>
<polygon fill="none" stroke="black" points="16,-78 16,-130 952,-130 952,-78 16,-78"/>
</g>
<!-- AuthorizationModule -->
<g id="node1" class="node">
<title>AuthorizationModule</title>
<polygon fill="#8dd3c7" stroke="black" points="943.81,-122 940.81,-126 919.81,-126 916.81,-122 806.19,-122 806.19,-86 943.81,-86 943.81,-122"/>
<text text-anchor="middle" x="875" y="-99.8" font-family="Times,serif" font-size="14.00">AuthorizationModule</text>
</g>
<!-- ToolApiModule -->
<g id="node8" class="node">
<title>ToolApiModule</title>
<polygon fill="#8dd3c7" stroke="black" points="1456.49,-187 1453.49,-191 1432.49,-191 1429.49,-187 1349.51,-187 1349.51,-151 1456.49,-151 1456.49,-187"/>
<text text-anchor="middle" x="1403" y="-164.8" font-family="Times,serif" font-size="14.00">ToolApiModule</text>
</g>
<!-- AuthorizationModule&#45;&gt;ToolApiModule -->
<g id="edge1" class="edge">
<title>AuthorizationModule&#45;&gt;ToolApiModule</title>
<path fill="none" stroke="black" d="M875,-122.03C875,-139.06 875,-162 875,-162 875,-162 1339.47,-162 1339.47,-162"/>
<polygon fill="black" stroke="black" points="1339.47,-165.5 1349.47,-162 1339.47,-158.5 1339.47,-165.5"/>
</g>
<!-- CommonToolModule -->
<g id="node2" class="node">
<title>CommonToolModule</title>
<polygon fill="#8dd3c7" stroke="black" points="788.11,-122 785.11,-126 764.11,-126 761.11,-122 649.89,-122 649.89,-86 788.11,-86 788.11,-122"/>
<text text-anchor="middle" x="719" y="-99.8" font-family="Times,serif" font-size="14.00">CommonToolModule</text>
</g>
<!-- CommonToolModule&#45;&gt;ToolApiModule -->
<g id="edge2" class="edge">
<title>CommonToolModule&#45;&gt;ToolApiModule</title>
<path fill="none" stroke="black" d="M719,-122.27C719,-140.56 719,-166 719,-166 719,-166 1339.33,-166 1339.33,-166"/>
<polygon fill="black" stroke="black" points="1339.33,-169.5 1349.33,-166 1339.33,-162.5 1339.33,-169.5"/>
</g>
<!-- LegacySchoolModule -->
<g id="node3" class="node">
<title>LegacySchoolModule</title>
<polygon fill="#8dd3c7" stroke="black" points="631.63,-122 628.63,-126 607.63,-126 604.63,-122 492.37,-122 492.37,-86 631.63,-86 631.63,-122"/>
<text text-anchor="middle" x="562" y="-99.8" font-family="Times,serif" font-size="14.00">LegacySchoolModule</text>
</g>
<!-- LegacySchoolModule&#45;&gt;ToolApiModule -->
<g id="edge3" class="edge">
<title>LegacySchoolModule&#45;&gt;ToolApiModule</title>
<path fill="none" stroke="black" d="M562,-122.11C562,-141.34 562,-169 562,-169 562,-169 1339.43,-169 1339.43,-169"/>
<polygon fill="black" stroke="black" points="1339.43,-172.5 1349.43,-169 1339.43,-165.5 1339.43,-172.5"/>
</g>
<!-- LoggerModule -->
<g id="node4" class="node">
<title>LoggerModule</title>
<polygon fill="#8dd3c7" stroke="black" points="473.98,-122 470.98,-126 449.98,-126 446.98,-122 374.02,-122 374.02,-86 473.98,-86 473.98,-122"/>
<text text-anchor="middle" x="424" y="-99.8" font-family="Times,serif" font-size="14.00">LoggerModule</text>
</g>
<!-- LoggerModule&#45;&gt;ToolApiModule -->
<g id="edge4" class="edge">
<title>LoggerModule&#45;&gt;ToolApiModule</title>
<path fill="none" stroke="black" d="M424,-122.13C424,-142.57 424,-173 424,-173 424,-173 1339.32,-173 1339.32,-173"/>
<polygon fill="black" stroke="black" points="1339.32,-176.5 1349.32,-173 1339.32,-169.5 1339.32,-176.5"/>
</g>
<!-- ToolConfigModule -->
<g id="node5" class="node">
<title>ToolConfigModule</title>
<polygon fill="#8dd3c7" stroke="black" points="356.38,-122 353.38,-126 332.38,-126 329.38,-122 231.62,-122 231.62,-86 356.38,-86 356.38,-122"/>
<text text-anchor="middle" x="294" y="-99.8" font-family="Times,serif" font-size="14.00">ToolConfigModule</text>
</g>
<!-- ToolConfigModule&#45;&gt;ToolApiModule -->
<g id="edge5" class="edge">
<title>ToolConfigModule&#45;&gt;ToolApiModule</title>
<path fill="none" stroke="black" d="M294,-122.04C294,-143.66 294,-177 294,-177 294,-177 1339.14,-177 1339.14,-177"/>
<polygon fill="black" stroke="black" points="1339.14,-180.5 1349.14,-177 1339.14,-173.5 1339.14,-180.5"/>
</g>
<!-- ToolModule -->
<g id="node6" class="node">
<title>ToolModule</title>
<polygon fill="#8dd3c7" stroke="black" points="213.99,-122 210.99,-126 189.99,-126 186.99,-122 128.01,-122 128.01,-86 213.99,-86 213.99,-122"/>
<text text-anchor="middle" x="171" y="-99.8" font-family="Times,serif" font-size="14.00">ToolModule</text>
</g>
<!-- ToolModule&#45;&gt;ToolApiModule -->
<g id="edge6" class="edge">
<title>ToolModule&#45;&gt;ToolApiModule</title>
<path fill="none" stroke="black" d="M171,-122.01C171,-144.49 171,-180 171,-180 171,-180 1339.27,-180 1339.27,-180"/>
<polygon fill="black" stroke="black" points="1339.27,-183.5 1349.27,-180 1339.27,-176.5 1339.27,-183.5"/>
</g>
<!-- UserModule -->
<g id="node7" class="node">
<title>UserModule</title>
<polygon fill="#8dd3c7" stroke="black" points="109.98,-122 106.98,-126 85.98,-126 82.98,-122 24.02,-122 24.02,-86 109.98,-86 109.98,-122"/>
<text text-anchor="middle" x="67" y="-99.8" font-family="Times,serif" font-size="14.00">UserModule</text>
</g>
<!-- UserModule&#45;&gt;ToolApiModule -->
<g id="edge7" class="edge">
<title>UserModule&#45;&gt;ToolApiModule</title>
<path fill="none" stroke="black" d="M67,-122.15C67,-145.76 67,-184 67,-184 67,-184 1339.39,-184 1339.39,-184"/>
<polygon fill="black" stroke="black" points="1339.39,-187.5 1349.39,-184 1339.39,-180.5 1339.39,-187.5"/>
</g>
<!-- ContextExternalToolUc -->
<g id="node9" class="node">
<title>ContextExternalToolUc</title>
<ellipse fill="#fdb462" stroke="black" cx="3699" cy="-104" rx="103.65" ry="18"/>
<text text-anchor="middle" x="3699" y="-99.8" font-family="Times,serif" font-size="14.00">ContextExternalToolUc</text>
</g>
<!-- ContextExternalToolUc&#45;&gt;ToolApiModule -->
<g id="edge8" class="edge">
<title>ContextExternalToolUc&#45;&gt;ToolApiModule</title>
<path fill="none" stroke="black" d="M3699,-122.15C3699,-145.76 3699,-184 3699,-184 3699,-184 1466.65,-184 1466.65,-184"/>
<polygon fill="black" stroke="black" points="1466.65,-180.5 1456.65,-184 1466.65,-187.5 1466.65,-180.5"/>
</g>
<!-- ExternalToolConfigurationService -->
<g id="node10" class="node">
<title>ExternalToolConfigurationService</title>
<ellipse fill="#fdb462" stroke="black" cx="3432" cy="-104" rx="145.24" ry="18"/>
<text text-anchor="middle" x="3432" y="-99.8" font-family="Times,serif" font-size="14.00">ExternalToolConfigurationService</text>
</g>
<!-- ExternalToolConfigurationService&#45;&gt;ToolApiModule -->
<g id="edge9" class="edge">
<title>ExternalToolConfigurationService&#45;&gt;ToolApiModule</title>
<path fill="none" stroke="black" d="M3432,-122.01C3432,-144.49 3432,-180 3432,-180 3432,-180 1466.75,-180 1466.75,-180"/>
<polygon fill="black" stroke="black" points="1466.75,-176.5 1456.75,-180 1466.75,-183.5 1466.75,-176.5"/>
</g>
<!-- ExternalToolConfigurationUc -->
<g id="node11" class="node">
<title>ExternalToolConfigurationUc</title>
<ellipse fill="#fdb462" stroke="black" cx="3141" cy="-104" rx="127.35" ry="18"/>
<text text-anchor="middle" x="3141" y="-99.8" font-family="Times,serif" font-size="14.00">ExternalToolConfigurationUc</text>
</g>
<!-- ExternalToolConfigurationUc&#45;&gt;ToolApiModule -->
<g id="edge10" class="edge">
<title>ExternalToolConfigurationUc&#45;&gt;ToolApiModule</title>
<path fill="none" stroke="black" d="M3141,-122.04C3141,-143.66 3141,-177 3141,-177 3141,-177 1466.92,-177 1466.92,-177"/>
<polygon fill="black" stroke="black" points="1466.92,-173.5 1456.92,-177 1466.92,-180.5 1466.92,-173.5"/>
</g>
<!-- ExternalToolRequestMapper -->
<g id="node12" class="node">
<title>ExternalToolRequestMapper</title>
<ellipse fill="#fdb462" stroke="black" cx="2872" cy="-104" rx="123.26" ry="18"/>
<text text-anchor="middle" x="2872" y="-99.8" font-family="Times,serif" font-size="14.00">ExternalToolRequestMapper</text>
</g>
<!-- ExternalToolRequestMapper&#45;&gt;ToolApiModule -->
<g id="edge11" class="edge">
<title>ExternalToolRequestMapper&#45;&gt;ToolApiModule</title>
<path fill="none" stroke="black" d="M2872,-122.13C2872,-142.57 2872,-173 2872,-173 2872,-173 1466.59,-173 1466.59,-173"/>
<polygon fill="black" stroke="black" points="1466.59,-169.5 1456.59,-173 1466.59,-176.5 1466.59,-169.5"/>
</g>
<!-- ExternalToolResponseMapper -->
<g id="node13" class="node">
<title>ExternalToolResponseMapper</title>
<ellipse fill="#fdb462" stroke="black" cx="2602" cy="-104" rx="129.06" ry="18"/>
<text text-anchor="middle" x="2602" y="-99.8" font-family="Times,serif" font-size="14.00">ExternalToolResponseMapper</text>
</g>
<!-- ExternalToolResponseMapper&#45;&gt;ToolApiModule -->
<g id="edge12" class="edge">
<title>ExternalToolResponseMapper&#45;&gt;ToolApiModule</title>
<path fill="none" stroke="black" d="M2602,-122.11C2602,-141.34 2602,-169 2602,-169 2602,-169 1466.85,-169 1466.85,-169"/>
<polygon fill="black" stroke="black" points="1466.85,-165.5 1456.85,-169 1466.85,-172.5 1466.85,-165.5"/>
</g>
<!-- ExternalToolUc -->
<g id="node14" class="node">
<title>ExternalToolUc</title>
<ellipse fill="#fdb462" stroke="black" cx="2382" cy="-104" rx="73.49" ry="18"/>
<text text-anchor="middle" x="2382" y="-99.8" font-family="Times,serif" font-size="14.00">ExternalToolUc</text>
</g>
<!-- ExternalToolUc&#45;&gt;ToolApiModule -->
<g id="edge13" class="edge">
<title>ExternalToolUc&#45;&gt;ToolApiModule</title>
<path fill="none" stroke="black" d="M2382,-122.27C2382,-140.56 2382,-166 2382,-166 2382,-166 1466.68,-166 1466.68,-166"/>
<polygon fill="black" stroke="black" points="1466.68,-162.5 1456.68,-166 1466.68,-169.5 1466.68,-162.5"/>
</g>
<!-- LtiToolRepo -->
<g id="node15" class="node">
<title>LtiToolRepo</title>
<ellipse fill="#fdb462" stroke="black" cx="2230" cy="-104" rx="60.85" ry="18"/>
<text text-anchor="middle" x="2230" y="-99.8" font-family="Times,serif" font-size="14.00">LtiToolRepo</text>
</g>
<!-- LtiToolRepo&#45;&gt;ToolApiModule -->
<g id="edge14" class="edge">
<title>LtiToolRepo&#45;&gt;ToolApiModule</title>
<path fill="none" stroke="black" d="M2230,-122.03C2230,-139.06 2230,-162 2230,-162 2230,-162 1466.62,-162 1466.62,-162"/>
<polygon fill="black" stroke="black" points="1466.62,-158.5 1456.62,-162 1466.62,-165.5 1466.62,-158.5"/>
</g>
<!-- SchoolExternalToolRequestMapper -->
<g id="node16" class="node">
<title>SchoolExternalToolRequestMapper</title>
<ellipse fill="#fdb462" stroke="black" cx="2001" cy="-104" rx="149.9" ry="18"/>
<text text-anchor="middle" x="2001" y="-99.8" font-family="Times,serif" font-size="14.00">SchoolExternalToolRequestMapper</text>
</g>
<!-- SchoolExternalToolRequestMapper&#45;&gt;ToolApiModule -->
<g id="edge15" class="edge">
<title>SchoolExternalToolRequestMapper&#45;&gt;ToolApiModule</title>
<path fill="none" stroke="black" d="M2001,-122.01C2001,-138.05 2001,-159 2001,-159 2001,-159 1466.59,-159 1466.59,-159"/>
<polygon fill="black" stroke="black" points="1466.59,-155.5 1456.59,-159 1466.59,-162.5 1466.59,-155.5"/>
</g>
<!-- SchoolExternalToolResponseMapper -->
<g id="node17" class="node">
<title>SchoolExternalToolResponseMapper</title>
<ellipse fill="#fdb462" stroke="black" cx="1677" cy="-104" rx="155.7" ry="18"/>
<text text-anchor="middle" x="1677" y="-99.8" font-family="Times,serif" font-size="14.00">SchoolExternalToolResponseMapper</text>
</g>
<!-- SchoolExternalToolResponseMapper&#45;&gt;ToolApiModule -->
<g id="edge16" class="edge">
<title>SchoolExternalToolResponseMapper&#45;&gt;ToolApiModule</title>
<path fill="none" stroke="black" d="M1677,-122.12C1677,-136.78 1677,-155 1677,-155 1677,-155 1466.81,-155 1466.81,-155"/>
<polygon fill="black" stroke="black" points="1466.81,-151.5 1456.81,-155 1466.81,-158.5 1466.81,-151.5"/>
</g>
<!-- SchoolExternalToolUc -->
<g id="node18" class="node">
<title>SchoolExternalToolUc</title>
<ellipse fill="#fdb462" stroke="black" cx="1403" cy="-104" rx="100.14" ry="18"/>
<text text-anchor="middle" x="1403" y="-99.8" font-family="Times,serif" font-size="14.00">SchoolExternalToolUc</text>
</g>
<!-- SchoolExternalToolUc&#45;&gt;ToolApiModule -->
<g id="edge17" class="edge">
<title>SchoolExternalToolUc&#45;&gt;ToolApiModule</title>
<path fill="none" stroke="black" d="M1403,-122.11C1403,-122.11 1403,-140.99 1403,-140.99"/>
<polygon fill="black" stroke="black" points="1399.5,-140.99 1403,-150.99 1406.5,-140.99 1399.5,-140.99"/>
</g>
<!-- ToolLaunchUc -->
<g id="node19" class="node">
<title>ToolLaunchUc</title>
<ellipse fill="#fdb462" stroke="black" cx="1215" cy="-104" rx="69.49" ry="18"/>
<text text-anchor="middle" x="1215" y="-99.8" font-family="Times,serif" font-size="14.00">ToolLaunchUc</text>
</g>
<!-- ToolLaunchUc&#45;&gt;ToolApiModule -->
<g id="edge18" class="edge">
<title>ToolLaunchUc&#45;&gt;ToolApiModule</title>
<path fill="none" stroke="black" d="M1215,-122.12C1215,-136.78 1215,-155 1215,-155 1215,-155 1339.38,-155 1339.38,-155"/>
<polygon fill="black" stroke="black" points="1339.38,-158.5 1349.38,-155 1339.38,-151.5 1339.38,-158.5"/>
</g>
<!-- ToolReferenceUc -->
<g id="node20" class="node">
<title>ToolReferenceUc</title>
<ellipse fill="#fdb462" stroke="black" cx="1048" cy="-104" rx="79.83" ry="18"/>
<text text-anchor="middle" x="1048" y="-99.8" font-family="Times,serif" font-size="14.00">ToolReferenceUc</text>
</g>
<!-- ToolReferenceUc&#45;&gt;ToolApiModule -->
<g id="edge19" class="edge">
<title>ToolReferenceUc&#45;&gt;ToolApiModule</title>
<path fill="none" stroke="black" d="M1048,-122.01C1048,-138.05 1048,-159 1048,-159 1048,-159 1339.47,-159 1339.47,-159"/>
<polygon fill="black" stroke="black" points="1339.47,-162.5 1349.47,-159 1339.47,-155.5 1339.47,-162.5"/>
</g>
</g>
</svg>
