<?xml version="1.0" encoding="UTF-8" standalone="no"?>
<!DOCTYPE svg PUBLIC "-//W3C//DTD SVG 1.1//EN"
 "http://www.w3.org/Graphics/SVG/1.1/DTD/svg11.dtd">
<!-- Generated by graphviz version 2.47.0 (20210316.0004)
 -->
<!-- Title: dependencies Pages: 1 -->
<svg width="4302pt" height="211pt"
 viewBox="0.00 0.00 4302.00 211.00" xmlns="http://www.w3.org/2000/svg" xmlns:xlink="http://www.w3.org/1999/xlink">
<g id="graph0" class="graph" transform="scale(1 1) rotate(0) translate(4 207)">
<title>dependencies</title>
<polygon fill="white" stroke="transparent" points="-4,4 -4,-207 4298,-207 4298,4 -4,4"/>
<text text-anchor="start" x="2126.01" y="-42.4" font-family="Times-12" font-weight="bold" font-size="14.00">Legend</text>
<polygon fill="#ffffb3" stroke="transparent" points="1913,-10 1913,-30 1933,-30 1933,-10 1913,-10"/>
<text text-anchor="start" x="1936.63" y="-15.4" font-family="Times-12" font-size="14.00"> &#160;Declarations</text>
<polygon fill="#8dd3c7" stroke="transparent" points="2026,-10 2026,-30 2046,-30 2046,-10 2026,-10"/>
<text text-anchor="start" x="2049.73" y="-15.4" font-family="Times-12" font-size="14.00"> &#160;Module</text>
<polygon fill="#80b1d3" stroke="transparent" points="2112,-10 2112,-30 2132,-30 2132,-10 2112,-10"/>
<text text-anchor="start" x="2135.78" y="-15.4" font-family="Times-12" font-size="14.00"> &#160;Bootstrap</text>
<polygon fill="#fdb462" stroke="transparent" points="2209,-10 2209,-30 2229,-30 2229,-10 2209,-10"/>
<text text-anchor="start" x="2232.67" y="-15.4" font-family="Times-12" font-size="14.00"> &#160;Providers</text>
<polygon fill="#fb8072" stroke="transparent" points="2305,-10 2305,-30 2325,-30 2325,-10 2305,-10"/>
<text text-anchor="start" x="2328.73" y="-15.4" font-family="Times-12" font-size="14.00"> &#160;Exports</text>
<g id="clust1" class="cluster">
<title>cluster_ToolApiModule</title>
<polygon fill="none" stroke="black" stroke-dasharray="1,5" points="8,-70 8,-195 4286,-195 4286,-70 8,-70"/>
</g>
<g id="clust6" class="cluster">
<title>cluster_ToolApiModule_providers</title>
<polygon fill="none" stroke="black" points="1212,-78 1212,-130 4278,-130 4278,-78 1212,-78"/>
</g>
<g id="clust3" class="cluster">
<title>cluster_ToolApiModule_imports</title>
<polygon fill="none" stroke="black" points="16,-78 16,-130 1204,-130 1204,-78 16,-78"/>
</g>
<!-- AuthorizationModule -->
<g id="node1" class="node">
<title>AuthorizationModule</title>
<polygon fill="#8dd3c7" stroke="black" points="1195.81,-122 1192.81,-126 1171.81,-126 1168.81,-122 1058.19,-122 1058.19,-86 1195.81,-86 1195.81,-122"/>
<text text-anchor="middle" x="1127" y="-99.8" font-family="Times,serif" font-size="14.00">AuthorizationModule</text>
</g>
<!-- ToolApiModule -->
<g id="node10" class="node">
<title>ToolApiModule</title>
<polygon fill="#8dd3c7" stroke="black" points="1642.49,-187 1639.49,-191 1618.49,-191 1615.49,-187 1535.51,-187 1535.51,-151 1642.49,-151 1642.49,-187"/>
<text text-anchor="middle" x="1589" y="-164.8" font-family="Times,serif" font-size="14.00">ToolApiModule</text>
</g>
<!-- AuthorizationModule&#45;&gt;ToolApiModule -->
<g id="edge1" class="edge">
<title>AuthorizationModule&#45;&gt;ToolApiModule</title>
<path fill="none" stroke="black" d="M1127,-122.28C1127,-137.95 1127,-158 1127,-158 1127,-158 1525.1,-158 1525.1,-158"/>
<polygon fill="black" stroke="black" points="1525.1,-161.5 1535.1,-158 1525.1,-154.5 1525.1,-161.5"/>
</g>
<!-- BoardModule -->
<g id="node2" class="node">
<title>BoardModule</title>
<polygon fill="#8dd3c7" stroke="black" points="1039.76,-122 1036.76,-126 1015.76,-126 1012.76,-122 946.24,-122 946.24,-86 1039.76,-86 1039.76,-122"/>
<text text-anchor="middle" x="993" y="-99.8" font-family="Times,serif" font-size="14.00">BoardModule</text>
</g>
<!-- BoardModule&#45;&gt;ToolApiModule -->
<g id="edge2" class="edge">
<title>BoardModule&#45;&gt;ToolApiModule</title>
<path fill="none" stroke="black" d="M993,-122.04C993,-138.73 993,-161 993,-161 993,-161 1525.32,-161 1525.32,-161"/>
<polygon fill="black" stroke="black" points="1525.32,-164.5 1535.32,-161 1525.32,-157.5 1525.32,-164.5"/>
</g>
<!-- CommonToolModule -->
<g id="node3" class="node">
<title>CommonToolModule</title>
<polygon fill="#8dd3c7" stroke="black" points="928.11,-122 925.11,-126 904.11,-126 901.11,-122 789.89,-122 789.89,-86 928.11,-86 928.11,-122"/>
<text text-anchor="middle" x="859" y="-99.8" font-family="Times,serif" font-size="14.00">CommonToolModule</text>
</g>
<!-- CommonToolModule&#45;&gt;ToolApiModule -->
<g id="edge3" class="edge">
<title>CommonToolModule&#45;&gt;ToolApiModule</title>
<path fill="none" stroke="black" d="M859,-122.3C859,-140.27 859,-165 859,-165 859,-165 1525.32,-165 1525.32,-165"/>
<polygon fill="black" stroke="black" points="1525.32,-168.5 1535.32,-165 1525.32,-161.5 1525.32,-168.5"/>
</g>
<!-- LearnroomModule -->
<g id="node4" class="node">
<title>LearnroomModule</title>
<polygon fill="#8dd3c7" stroke="black" points="771.74,-122 768.74,-126 747.74,-126 744.74,-122 650.26,-122 650.26,-86 771.74,-86 771.74,-122"/>
<text text-anchor="middle" x="711" y="-99.8" font-family="Times,serif" font-size="14.00">LearnroomModule</text>
</g>
<!-- LearnroomModule&#45;&gt;ToolApiModule -->
<g id="edge4" class="edge">
<title>LearnroomModule&#45;&gt;ToolApiModule</title>
<path fill="none" stroke="black" d="M711,-122.17C711,-141.09 711,-168 711,-168 711,-168 1525.4,-168 1525.4,-168"/>
<polygon fill="black" stroke="black" points="1525.4,-171.5 1535.4,-168 1525.4,-164.5 1525.4,-171.5"/>
</g>
<!-- LegacySchoolModule -->
<g id="node5" class="node">
<title>LegacySchoolModule</title>
<polygon fill="#8dd3c7" stroke="black" points="631.63,-122 628.63,-126 607.63,-126 604.63,-122 492.37,-122 492.37,-86 631.63,-86 631.63,-122"/>
<text text-anchor="middle" x="562" y="-99.8" font-family="Times,serif" font-size="14.00">LegacySchoolModule</text>
</g>
<!-- LegacySchoolModule&#45;&gt;ToolApiModule -->
<g id="edge5" class="edge">
<title>LegacySchoolModule&#45;&gt;ToolApiModule</title>
<path fill="none" stroke="black" d="M562,-122.31C562,-142.15 562,-171 562,-171 562,-171 1525.23,-171 1525.23,-171"/>
<polygon fill="black" stroke="black" points="1525.23,-174.5 1535.23,-171 1525.23,-167.5 1525.23,-174.5"/>
</g>
<!-- LoggerModule -->
<g id="node6" class="node">
<title>LoggerModule</title>
<polygon fill="#8dd3c7" stroke="black" points="473.98,-122 470.98,-126 449.98,-126 446.98,-122 374.02,-122 374.02,-86 473.98,-86 473.98,-122"/>
<text text-anchor="middle" x="424" y="-99.8" font-family="Times,serif" font-size="14.00">LoggerModule</text>
</g>
<!-- LoggerModule&#45;&gt;ToolApiModule -->
<g id="edge6" class="edge">
<title>LoggerModule&#45;&gt;ToolApiModule</title>
<path fill="none" stroke="black" d="M424,-122.03C424,-142.77 424,-174 424,-174 424,-174 1525.15,-174 1525.15,-174"/>
<polygon fill="black" stroke="black" points="1525.15,-177.5 1535.15,-174 1525.15,-170.5 1525.15,-177.5"/>
</g>
<!-- ToolConfigModule -->
<g id="node7" class="node">
<title>ToolConfigModule</title>
<polygon fill="#8dd3c7" stroke="black" points="356.38,-122 353.38,-126 332.38,-126 329.38,-122 231.62,-122 231.62,-86 356.38,-86 356.38,-122"/>
<text text-anchor="middle" x="294" y="-99.8" font-family="Times,serif" font-size="14.00">ToolConfigModule</text>
</g>
<!-- ToolConfigModule&#45;&gt;ToolApiModule -->
<g id="edge7" class="edge">
<title>ToolConfigModule&#45;&gt;ToolApiModule</title>
<path fill="none" stroke="black" d="M294,-122.29C294,-144.21 294,-178 294,-178 294,-178 1525.41,-178 1525.41,-178"/>
<polygon fill="black" stroke="black" points="1525.41,-181.5 1535.41,-178 1525.41,-174.5 1525.41,-181.5"/>
</g>
<!-- ToolModule -->
<g id="node8" class="node">
<title>ToolModule</title>
<polygon fill="#8dd3c7" stroke="black" points="213.99,-122 210.99,-126 189.99,-126 186.99,-122 128.01,-122 128.01,-86 213.99,-86 213.99,-122"/>
<text text-anchor="middle" x="171" y="-99.8" font-family="Times,serif" font-size="14.00">ToolModule</text>
</g>
<!-- ToolModule&#45;&gt;ToolApiModule -->
<g id="edge8" class="edge">
<title>ToolModule&#45;&gt;ToolApiModule</title>
<path fill="none" stroke="black" d="M171,-122.25C171,-145.02 171,-181 171,-181 171,-181 1525.14,-181 1525.14,-181"/>
<polygon fill="black" stroke="black" points="1525.14,-184.5 1535.14,-181 1525.14,-177.5 1525.14,-184.5"/>
</g>
<!-- UserModule -->
<g id="node9" class="node">
<title>UserModule</title>
<polygon fill="#8dd3c7" stroke="black" points="109.98,-122 106.98,-126 85.98,-126 82.98,-122 24.02,-122 24.02,-86 109.98,-86 109.98,-122"/>
<text text-anchor="middle" x="67" y="-99.8" font-family="Times,serif" font-size="14.00">UserModule</text>
</g>
<!-- UserModule&#45;&gt;ToolApiModule -->
<g id="edge9" class="edge">
<title>UserModule&#45;&gt;ToolApiModule</title>
<path fill="none" stroke="black" d="M67,-122.15C67,-145.76 67,-184 67,-184 67,-184 1525.28,-184 1525.28,-184"/>
<polygon fill="black" stroke="black" points="1525.28,-187.5 1535.28,-184 1525.28,-180.5 1525.28,-187.5"/>
</g>
<!-- ContextExternalToolUc -->
<g id="node11" class="node">
<title>ContextExternalToolUc</title>
<ellipse fill="#fdb462" stroke="black" cx="4166" cy="-104" rx="103.65" ry="18"/>
<text text-anchor="middle" x="4166" y="-99.8" font-family="Times,serif" font-size="14.00">ContextExternalToolUc</text>
</g>
<!-- ContextExternalToolUc&#45;&gt;ToolApiModule -->
<g id="edge10" class="edge">
<title>ContextExternalToolUc&#45;&gt;ToolApiModule</title>
<path fill="none" stroke="black" d="M4166,-122.15C4166,-145.76 4166,-184 4166,-184 4166,-184 1652.53,-184 1652.53,-184"/>
<polygon fill="black" stroke="black" points="1652.53,-180.5 1642.53,-184 1652.53,-187.5 1652.53,-180.5"/>
</g>
<!-- ExternalToolConfigurationService -->
<g id="node12" class="node">
<title>ExternalToolConfigurationService</title>
<ellipse fill="#fdb462" stroke="black" cx="3899" cy="-104" rx="145.24" ry="18"/>
<text text-anchor="middle" x="3899" y="-99.8" font-family="Times,serif" font-size="14.00">ExternalToolConfigurationService</text>
</g>
<!-- ExternalToolConfigurationService&#45;&gt;ToolApiModule -->
<g id="edge11" class="edge">
<title>ExternalToolConfigurationService&#45;&gt;ToolApiModule</title>
<path fill="none" stroke="black" d="M3899,-122.25C3899,-145.02 3899,-181 3899,-181 3899,-181 1652.7,-181 1652.7,-181"/>
<polygon fill="black" stroke="black" points="1652.7,-177.5 1642.7,-181 1652.7,-184.5 1652.7,-177.5"/>
</g>
<!-- ExternalToolConfigurationUc -->
<g id="node13" class="node">
<title>ExternalToolConfigurationUc</title>
<ellipse fill="#fdb462" stroke="black" cx="3608" cy="-104" rx="127.35" ry="18"/>
<text text-anchor="middle" x="3608" y="-99.8" font-family="Times,serif" font-size="14.00">ExternalToolConfigurationUc</text>
</g>
<!-- ExternalToolConfigurationUc&#45;&gt;ToolApiModule -->
<g id="edge12" class="edge">
<title>ExternalToolConfigurationUc&#45;&gt;ToolApiModule</title>
<path fill="none" stroke="black" d="M3608,-122.29C3608,-144.21 3608,-178 3608,-178 3608,-178 1652.74,-178 1652.74,-178"/>
<polygon fill="black" stroke="black" points="1652.74,-174.5 1642.74,-178 1652.74,-181.5 1652.74,-174.5"/>
</g>
<!-- ExternalToolRequestMapper -->
<g id="node14" class="node">
<title>ExternalToolRequestMapper</title>
<ellipse fill="#fdb462" stroke="black" cx="3339" cy="-104" rx="123.26" ry="18"/>
<text text-anchor="middle" x="3339" y="-99.8" font-family="Times,serif" font-size="14.00">ExternalToolRequestMapper</text>
</g>
<!-- ExternalToolRequestMapper&#45;&gt;ToolApiModule -->
<g id="edge13" class="edge">
<title>ExternalToolRequestMapper&#45;&gt;ToolApiModule</title>
<path fill="none" stroke="black" d="M3339,-122.03C3339,-142.77 3339,-174 3339,-174 3339,-174 1652.81,-174 1652.81,-174"/>
<polygon fill="black" stroke="black" points="1652.81,-170.5 1642.81,-174 1652.81,-177.5 1652.81,-170.5"/>
</g>
<!-- ExternalToolResponseMapper -->
<g id="node15" class="node">
<title>ExternalToolResponseMapper</title>
<ellipse fill="#fdb462" stroke="black" cx="3069" cy="-104" rx="129.06" ry="18"/>
<text text-anchor="middle" x="3069" y="-99.8" font-family="Times,serif" font-size="14.00">ExternalToolResponseMapper</text>
</g>
<!-- ExternalToolResponseMapper&#45;&gt;ToolApiModule -->
<g id="edge14" class="edge">
<title>ExternalToolResponseMapper&#45;&gt;ToolApiModule</title>
<path fill="none" stroke="black" d="M3069,-122.31C3069,-142.15 3069,-171 3069,-171 3069,-171 1652.55,-171 1652.55,-171"/>
<polygon fill="black" stroke="black" points="1652.55,-167.5 1642.55,-171 1652.55,-174.5 1652.55,-167.5"/>
</g>
<!-- ExternalToolUc -->
<g id="node16" class="node">
<title>ExternalToolUc</title>
<ellipse fill="#fdb462" stroke="black" cx="2849" cy="-104" rx="73.49" ry="18"/>
<text text-anchor="middle" x="2849" y="-99.8" font-family="Times,serif" font-size="14.00">ExternalToolUc</text>
</g>
<!-- ExternalToolUc&#45;&gt;ToolApiModule -->
<g id="edge15" class="edge">
<title>ExternalToolUc&#45;&gt;ToolApiModule</title>
<path fill="none" stroke="black" d="M2849,-122.17C2849,-141.09 2849,-168 2849,-168 2849,-168 1652.74,-168 1652.74,-168"/>
<polygon fill="black" stroke="black" points="1652.74,-164.5 1642.74,-168 1652.74,-171.5 1652.74,-164.5"/>
</g>
<!-- LtiToolRepo -->
<g id="node17" class="node">
<title>LtiToolRepo</title>
<ellipse fill="#fdb462" stroke="black" cx="2697" cy="-104" rx="60.85" ry="18"/>
<text text-anchor="middle" x="2697" y="-99.8" font-family="Times,serif" font-size="14.00">LtiToolRepo</text>
</g>
<!-- LtiToolRepo&#45;&gt;ToolApiModule -->
<g id="edge16" class="edge">
<title>LtiToolRepo&#45;&gt;ToolApiModule</title>
<path fill="none" stroke="black" d="M2697,-122.3C2697,-140.27 2697,-165 2697,-165 2697,-165 1652.82,-165 1652.82,-165"/>
<polygon fill="black" stroke="black" points="1652.82,-161.5 1642.82,-165 1652.82,-168.5 1652.82,-161.5"/>
</g>
<!-- SchoolExternalToolRequestMapper -->
<g id="node18" class="node">
<title>SchoolExternalToolRequestMapper</title>
<ellipse fill="#fdb462" stroke="black" cx="2468" cy="-104" rx="149.9" ry="18"/>
<text text-anchor="middle" x="2468" y="-99.8" font-family="Times,serif" font-size="14.00">SchoolExternalToolRequestMapper</text>
</g>
<!-- SchoolExternalToolRequestMapper&#45;&gt;ToolApiModule -->
<g id="edge17" class="edge">
<title>SchoolExternalToolRequestMapper&#45;&gt;ToolApiModule</title>
<path fill="none" stroke="black" d="M2468,-122.04C2468,-138.73 2468,-161 2468,-161 2468,-161 1652.66,-161 1652.66,-161"/>
<polygon fill="black" stroke="black" points="1652.66,-157.5 1642.66,-161 1652.66,-164.5 1652.66,-157.5"/>
</g>
<!-- SchoolExternalToolResponseMapper -->
<g id="node19" class="node">
<title>SchoolExternalToolResponseMapper</title>
<ellipse fill="#fdb462" stroke="black" cx="2144" cy="-104" rx="155.7" ry="18"/>
<text text-anchor="middle" x="2144" y="-99.8" font-family="Times,serif" font-size="14.00">SchoolExternalToolResponseMapper</text>
</g>
<!-- SchoolExternalToolResponseMapper&#45;&gt;ToolApiModule -->
<g id="edge18" class="edge">
<title>SchoolExternalToolResponseMapper&#45;&gt;ToolApiModule</title>
<path fill="none" stroke="black" d="M2144,-122.28C2144,-137.95 2144,-158 2144,-158 2144,-158 1652.72,-158 1652.72,-158"/>
<polygon fill="black" stroke="black" points="1652.72,-154.5 1642.72,-158 1652.72,-161.5 1652.72,-154.5"/>
</g>
<!-- SchoolExternalToolUc -->
<g id="node20" class="node">
<title>SchoolExternalToolUc</title>
<ellipse fill="#fdb462" stroke="black" cx="1870" cy="-104" rx="100.14" ry="18"/>
<text text-anchor="middle" x="1870" y="-99.8" font-family="Times,serif" font-size="14.00">SchoolExternalToolUc</text>
</g>
<!-- SchoolExternalToolUc&#45;&gt;ToolApiModule -->
<g id="edge19" class="edge">
<title>SchoolExternalToolUc&#45;&gt;ToolApiModule</title>
<path fill="none" stroke="black" d="M1870,-122.12C1870,-136.78 1870,-155 1870,-155 1870,-155 1652.52,-155 1652.52,-155"/>
<polygon fill="black" stroke="black" points="1652.52,-151.5 1642.52,-155 1652.52,-158.5 1652.52,-151.5"/>
</g>
<!-- ToolLaunchUc -->
<g id="node21" class="node">
<title>ToolLaunchUc</title>
<ellipse fill="#fdb462" stroke="black" cx="1682" cy="-104" rx="69.49" ry="18"/>
<text text-anchor="middle" x="1682" y="-99.8" font-family="Times,serif" font-size="14.00">ToolLaunchUc</text>
</g>
<!-- ToolLaunchUc&#45;&gt;ToolApiModule -->
<g id="edge20" class="edge">
<title>ToolLaunchUc&#45;&gt;ToolApiModule</title>
<path fill="none" stroke="black" d="M1627.5,-115.32C1627.5,-115.32 1627.5,-140.94 1627.5,-140.94"/>
<polygon fill="black" stroke="black" points="1624,-140.94 1627.5,-150.94 1631,-140.94 1624,-140.94"/>
</g>
<!-- ToolPermissionHelper -->
<g id="node22" class="node">
<title>ToolPermissionHelper</title>
<ellipse fill="#fdb462" stroke="black" cx="1496" cy="-104" rx="98.43" ry="18"/>
<text text-anchor="middle" x="1496" y="-99.8" font-family="Times,serif" font-size="14.00">ToolPermissionHelper</text>
</g>
<!-- ToolPermissionHelper&#45;&gt;ToolApiModule -->
<g id="edge21" class="edge">
<title>ToolPermissionHelper&#45;&gt;ToolApiModule</title>
<path fill="none" stroke="black" d="M1564.99,-117.15C1564.99,-117.15 1564.99,-140.69 1564.99,-140.69"/>
<polygon fill="black" stroke="black" points="1561.49,-140.69 1564.99,-150.69 1568.49,-140.69 1561.49,-140.69"/>
</g>
<!-- ToolReferenceUc -->
<g id="node23" class="node">
<title>ToolReferenceUc</title>
<ellipse fill="#fdb462" stroke="black" cx="1300" cy="-104" rx="79.83" ry="18"/>
<text text-anchor="middle" x="1300" y="-99.8" font-family="Times,serif" font-size="14.00">ToolReferenceUc</text>
</g>
<!-- ToolReferenceUc&#45;&gt;ToolApiModule -->
<g id="edge22" class="edge">
<title>ToolReferenceUc&#45;&gt;ToolApiModule</title>
<path fill="none" stroke="black" d="M1300,-122.12C1300,-136.78 1300,-155 1300,-155 1300,-155 1525.32,-155 1525.32,-155"/>
<polygon fill="black" stroke="black" points="1525.32,-158.5 1535.32,-155 1525.32,-151.5 1525.32,-158.5"/>
</g>
</g>
</svg>
