<?xml version="1.0" encoding="UTF-8" standalone="no"?>
<!DOCTYPE svg PUBLIC "-//W3C//DTD SVG 1.1//EN"
 "http://www.w3.org/Graphics/SVG/1.1/DTD/svg11.dtd">
<!-- Generated by graphviz version 2.47.0 (20210316.0004)
 -->
<!-- Title: dependencies Pages: 1 -->
<svg width="3919pt" height="211pt"
 viewBox="0.00 0.00 3919.00 211.00" xmlns="http://www.w3.org/2000/svg" xmlns:xlink="http://www.w3.org/1999/xlink">
<g id="graph0" class="graph" transform="scale(1 1) rotate(0) translate(4 207)">
<title>dependencies</title>
<polygon fill="white" stroke="transparent" points="-4,4 -4,-207 3915,-207 3915,4 -4,4"/>
<text text-anchor="start" x="1934.51" y="-42.4" font-family="Times-12" font-weight="bold" font-size="14.00">Legend</text>
<polygon fill="#ffffb3" stroke="transparent" points="1721.5,-10 1721.5,-30 1741.5,-30 1741.5,-10 1721.5,-10"/>
<text text-anchor="start" x="1745.13" y="-15.4" font-family="Times-12" font-size="14.00"> &#160;Declarations</text>
<polygon fill="#8dd3c7" stroke="transparent" points="1834.5,-10 1834.5,-30 1854.5,-30 1854.5,-10 1834.5,-10"/>
<text text-anchor="start" x="1858.23" y="-15.4" font-family="Times-12" font-size="14.00"> &#160;Module</text>
<polygon fill="#80b1d3" stroke="transparent" points="1920.5,-10 1920.5,-30 1940.5,-30 1940.5,-10 1920.5,-10"/>
<text text-anchor="start" x="1944.28" y="-15.4" font-family="Times-12" font-size="14.00"> &#160;Bootstrap</text>
<polygon fill="#fdb462" stroke="transparent" points="2017.5,-10 2017.5,-30 2037.5,-30 2037.5,-10 2017.5,-10"/>
<text text-anchor="start" x="2041.17" y="-15.4" font-family="Times-12" font-size="14.00"> &#160;Providers</text>
<polygon fill="#fb8072" stroke="transparent" points="2113.5,-10 2113.5,-30 2133.5,-30 2133.5,-10 2113.5,-10"/>
<text text-anchor="start" x="2137.23" y="-15.4" font-family="Times-12" font-size="14.00"> &#160;Exports</text>
<g id="clust1" class="cluster">
<title>cluster_ToolApiModule</title>
<polygon fill="none" stroke="black" stroke-dasharray="1,5" points="8,-70 8,-195 3903,-195 3903,-70 8,-70"/>
</g>
<g id="clust3" class="cluster">
<title>cluster_ToolApiModule_imports</title>
<polygon fill="none" stroke="black" points="2442,-78 2442,-130 3895,-130 3895,-78 2442,-78"/>
</g>
<g id="clust6" class="cluster">
<title>cluster_ToolApiModule_providers</title>
<polygon fill="none" stroke="black" points="16,-78 16,-130 2434,-130 2434,-78 16,-78"/>
</g>
<!-- AuthorizationModule -->
<g id="node1" class="node">
<title>AuthorizationModule</title>
<polygon fill="#8dd3c7" stroke="black" points="3886.81,-122 3883.81,-126 3862.81,-126 3859.81,-122 3749.19,-122 3749.19,-86 3886.81,-86 3886.81,-122"/>
<text text-anchor="middle" x="3818" y="-99.8" font-family="Times,serif" font-size="14.00">AuthorizationModule</text>
</g>
<!-- ToolApiModule -->
<g id="node12" class="node">
<title>ToolApiModule</title>
<polygon fill="#8dd3c7" stroke="black" points="2460.49,-187 2457.49,-191 2436.49,-191 2433.49,-187 2353.51,-187 2353.51,-151 2460.49,-151 2460.49,-187"/>
<text text-anchor="middle" x="2407" y="-164.8" font-family="Times,serif" font-size="14.00">ToolApiModule</text>
</g>
<!-- AuthorizationModule&#45;&gt;ToolApiModule -->
<g id="edge1" class="edge">
<title>AuthorizationModule&#45;&gt;ToolApiModule</title>
<path fill="none" stroke="black" d="M3818,-122.15C3818,-145.76 3818,-184 3818,-184 3818,-184 2470.59,-184 2470.59,-184"/>
<polygon fill="black" stroke="black" points="2470.59,-180.5 2460.59,-184 2470.59,-187.5 2470.59,-180.5"/>
</g>
<!-- BoardModule -->
<g id="node2" class="node">
<title>BoardModule</title>
<polygon fill="#8dd3c7" stroke="black" points="3730.76,-122 3727.76,-126 3706.76,-126 3703.76,-122 3637.24,-122 3637.24,-86 3730.76,-86 3730.76,-122"/>
<text text-anchor="middle" x="3684" y="-99.8" font-family="Times,serif" font-size="14.00">BoardModule</text>
</g>
<!-- BoardModule&#45;&gt;ToolApiModule -->
<g id="edge2" class="edge">
<title>BoardModule&#45;&gt;ToolApiModule</title>
<path fill="none" stroke="black" d="M3684,-122.25C3684,-145.02 3684,-181 3684,-181 3684,-181 2470.65,-181 2470.65,-181"/>
<polygon fill="black" stroke="black" points="2470.65,-177.5 2460.65,-181 2470.65,-184.5 2470.65,-177.5"/>
</g>
<!-- CommonToolModule -->
<g id="node3" class="node">
<title>CommonToolModule</title>
<polygon fill="#8dd3c7" stroke="black" points="3619.11,-122 3616.11,-126 3595.11,-126 3592.11,-122 3480.89,-122 3480.89,-86 3619.11,-86 3619.11,-122"/>
<text text-anchor="middle" x="3550" y="-99.8" font-family="Times,serif" font-size="14.00">CommonToolModule</text>
</g>
<!-- CommonToolModule&#45;&gt;ToolApiModule -->
<g id="edge3" class="edge">
<title>CommonToolModule&#45;&gt;ToolApiModule</title>
<path fill="none" stroke="black" d="M3550,-122.29C3550,-144.21 3550,-178 3550,-178 3550,-178 2470.6,-178 2470.6,-178"/>
<polygon fill="black" stroke="black" points="2470.6,-174.5 2460.6,-178 2470.6,-181.5 2470.6,-174.5"/>
</g>
<!-- LearnroomModule -->
<g id="node4" class="node">
<title>LearnroomModule</title>
<polygon fill="#8dd3c7" stroke="black" points="3462.74,-122 3459.74,-126 3438.74,-126 3435.74,-122 3341.26,-122 3341.26,-86 3462.74,-86 3462.74,-122"/>
<text text-anchor="middle" x="3402" y="-99.8" font-family="Times,serif" font-size="14.00">LearnroomModule</text>
</g>
<!-- LearnroomModule&#45;&gt;ToolApiModule -->
<g id="edge4" class="edge">
<title>LearnroomModule&#45;&gt;ToolApiModule</title>
<path fill="none" stroke="black" d="M3402,-122.03C3402,-142.77 3402,-174 3402,-174 3402,-174 2470.5,-174 2470.5,-174"/>
<polygon fill="black" stroke="black" points="2470.5,-170.5 2460.5,-174 2470.5,-177.5 2470.5,-170.5"/>
</g>
<!-- LegacySchoolModule -->
<g id="node5" class="node">
<title>LegacySchoolModule</title>
<polygon fill="#8dd3c7" stroke="black" points="3322.63,-122 3319.63,-126 3298.63,-126 3295.63,-122 3183.37,-122 3183.37,-86 3322.63,-86 3322.63,-122"/>
<text text-anchor="middle" x="3253" y="-99.8" font-family="Times,serif" font-size="14.00">LegacySchoolModule</text>
</g>
<!-- LegacySchoolModule&#45;&gt;ToolApiModule -->
<g id="edge5" class="edge">
<title>LegacySchoolModule&#45;&gt;ToolApiModule</title>
<path fill="none" stroke="black" d="M3253,-122.31C3253,-142.15 3253,-171 3253,-171 3253,-171 2470.56,-171 2470.56,-171"/>
<polygon fill="black" stroke="black" points="2470.56,-167.5 2460.56,-171 2470.56,-174.5 2470.56,-167.5"/>
</g>
<!-- LoggerModule -->
<g id="node6" class="node">
<title>LoggerModule</title>
<polygon fill="#8dd3c7" stroke="black" points="3164.98,-122 3161.98,-126 3140.98,-126 3137.98,-122 3065.02,-122 3065.02,-86 3164.98,-86 3164.98,-122"/>
<text text-anchor="middle" x="3115" y="-99.8" font-family="Times,serif" font-size="14.00">LoggerModule</text>
</g>
<!-- LoggerModule&#45;&gt;ToolApiModule -->
<g id="edge6" class="edge">
<title>LoggerModule&#45;&gt;ToolApiModule</title>
<path fill="none" stroke="black" d="M3115,-122.17C3115,-141.09 3115,-168 3115,-168 3115,-168 2470.51,-168 2470.51,-168"/>
<polygon fill="black" stroke="black" points="2470.51,-164.5 2460.51,-168 2470.51,-171.5 2470.51,-164.5"/>
</g>
<!-- SchoolModule -->
<g id="node7" class="node">
<title>SchoolModule</title>
<polygon fill="#8dd3c7" stroke="black" points="3047.44,-122 3044.44,-126 3023.44,-126 3020.44,-122 2948.56,-122 2948.56,-86 3047.44,-86 3047.44,-122"/>
<text text-anchor="middle" x="2998" y="-99.8" font-family="Times,serif" font-size="14.00">SchoolModule</text>
</g>
<!-- SchoolModule&#45;&gt;ToolApiModule -->
<g id="edge7" class="edge">
<title>SchoolModule&#45;&gt;ToolApiModule</title>
<path fill="none" stroke="black" d="M2998,-122.3C2998,-140.27 2998,-165 2998,-165 2998,-165 2470.75,-165 2470.75,-165"/>
<polygon fill="black" stroke="black" points="2470.75,-161.5 2460.75,-165 2470.75,-168.5 2470.75,-161.5"/>
</g>
<!-- ToolConfigModule -->
<g id="node8" class="node">
<title>ToolConfigModule</title>
<polygon fill="#8dd3c7" stroke="black" points="2930.38,-122 2927.38,-126 2906.38,-126 2903.38,-122 2805.62,-122 2805.62,-86 2930.38,-86 2930.38,-122"/>
<text text-anchor="middle" x="2868" y="-99.8" font-family="Times,serif" font-size="14.00">ToolConfigModule</text>
</g>
<!-- ToolConfigModule&#45;&gt;ToolApiModule -->
<g id="edge8" class="edge">
<title>ToolConfigModule&#45;&gt;ToolApiModule</title>
<path fill="none" stroke="black" d="M2868,-122.04C2868,-138.73 2868,-161 2868,-161 2868,-161 2470.78,-161 2470.78,-161"/>
<polygon fill="black" stroke="black" points="2470.78,-157.5 2460.78,-161 2470.78,-164.5 2470.78,-157.5"/>
</g>
<!-- ToolModule -->
<g id="node9" class="node">
<title>ToolModule</title>
<polygon fill="#8dd3c7" stroke="black" points="2787.99,-122 2784.99,-126 2763.99,-126 2760.99,-122 2702.01,-122 2702.01,-86 2787.99,-86 2787.99,-122"/>
<text text-anchor="middle" x="2745" y="-99.8" font-family="Times,serif" font-size="14.00">ToolModule</text>
</g>
<!-- ToolModule&#45;&gt;ToolApiModule -->
<g id="edge9" class="edge">
<title>ToolModule&#45;&gt;ToolApiModule</title>
<path fill="none" stroke="black" d="M2745,-122.28C2745,-137.95 2745,-158 2745,-158 2745,-158 2470.56,-158 2470.56,-158"/>
<polygon fill="black" stroke="black" points="2470.56,-154.5 2460.56,-158 2470.56,-161.5 2470.56,-154.5"/>
</g>
<!-- UserLicenseModule -->
<g id="node10" class="node">
<title>UserLicenseModule</title>
<polygon fill="#8dd3c7" stroke="black" points="2683.51,-122 2680.51,-126 2659.51,-126 2656.51,-122 2554.49,-122 2554.49,-86 2683.51,-86 2683.51,-122"/>
<text text-anchor="middle" x="2619" y="-99.8" font-family="Times,serif" font-size="14.00">UserLicenseModule</text>
</g>
<!-- UserLicenseModule&#45;&gt;ToolApiModule -->
<g id="edge10" class="edge">
<title>UserLicenseModule&#45;&gt;ToolApiModule</title>
<path fill="none" stroke="black" d="M2619,-122.12C2619,-136.78 2619,-155 2619,-155 2619,-155 2470.5,-155 2470.5,-155"/>
<polygon fill="black" stroke="black" points="2470.5,-151.5 2460.5,-155 2470.5,-158.5 2470.5,-151.5"/>
</g>
<!-- UserModule -->
<g id="node11" class="node">
<title>UserModule</title>
<polygon fill="#8dd3c7" stroke="black" points="2535.98,-122 2532.98,-126 2511.98,-126 2508.98,-122 2450.02,-122 2450.02,-86 2535.98,-86 2535.98,-122"/>
<text text-anchor="middle" x="2493" y="-99.8" font-family="Times,serif" font-size="14.00">UserModule</text>
</g>
<!-- UserModule&#45;&gt;ToolApiModule -->
<g id="edge11" class="edge">
<title>UserModule&#45;&gt;ToolApiModule</title>
<path fill="none" stroke="black" d="M2455.25,-122.11C2455.25,-122.11 2455.25,-140.99 2455.25,-140.99"/>
<polygon fill="black" stroke="black" points="2451.75,-140.99 2455.25,-150.99 2458.75,-140.99 2451.75,-140.99"/>
</g>
<!-- ContextExternalToolUc -->
<g id="node13" class="node">
<title>ContextExternalToolUc</title>
<ellipse fill="#fdb462" stroke="black" cx="2322" cy="-104" rx="103.65" ry="18"/>
<text text-anchor="middle" x="2322" y="-99.8" font-family="Times,serif" font-size="14.00">ContextExternalToolUc</text>
</g>
<!-- ContextExternalToolUc&#45;&gt;ToolApiModule -->
<g id="edge12" class="edge">
<title>ContextExternalToolUc&#45;&gt;ToolApiModule</title>
<path fill="none" stroke="black" d="M2389.67,-117.78C2389.67,-117.78 2389.67,-140.55 2389.67,-140.55"/>
<polygon fill="black" stroke="black" points="2386.17,-140.55 2389.67,-150.55 2393.17,-140.55 2386.17,-140.55"/>
</g>
<!-- ExternalToolConfigurationService -->
<g id="node14" class="node">
<title>ExternalToolConfigurationService</title>
<ellipse fill="#fdb462" stroke="black" cx="2055" cy="-104" rx="145.24" ry="18"/>
<text text-anchor="middle" x="2055" y="-99.8" font-family="Times,serif" font-size="14.00">ExternalToolConfigurationService</text>
</g>
<!-- ExternalToolConfigurationService&#45;&gt;ToolApiModule -->
<g id="edge13" class="edge">
<title>ExternalToolConfigurationService&#45;&gt;ToolApiModule</title>
<path fill="none" stroke="black" d="M2055,-122.12C2055,-136.78 2055,-155 2055,-155 2055,-155 2343.16,-155 2343.16,-155"/>
<polygon fill="black" stroke="black" points="2343.16,-158.5 2353.16,-155 2343.16,-151.5 2343.16,-158.5"/>
</g>
<!-- ExternalToolConfigurationUc -->
<g id="node15" class="node">
<title>ExternalToolConfigurationUc</title>
<ellipse fill="#fdb462" stroke="black" cx="1764" cy="-104" rx="127.35" ry="18"/>
<text text-anchor="middle" x="1764" y="-99.8" font-family="Times,serif" font-size="14.00">ExternalToolConfigurationUc</text>
</g>
<!-- ExternalToolConfigurationUc&#45;&gt;ToolApiModule -->
<g id="edge14" class="edge">
<title>ExternalToolConfigurationUc&#45;&gt;ToolApiModule</title>
<path fill="none" stroke="black" d="M1764,-122.28C1764,-137.95 1764,-158 1764,-158 1764,-158 2343.28,-158 2343.28,-158"/>
<polygon fill="black" stroke="black" points="2343.28,-161.5 2353.28,-158 2343.28,-154.5 2343.28,-161.5"/>
</g>
<!-- ExternalToolRequestMapper -->
<g id="node16" class="node">
<title>ExternalToolRequestMapper</title>
<ellipse fill="#fdb462" stroke="black" cx="1495" cy="-104" rx="123.26" ry="18"/>
<text text-anchor="middle" x="1495" y="-99.8" font-family="Times,serif" font-size="14.00">ExternalToolRequestMapper</text>
</g>
<!-- ExternalToolRequestMapper&#45;&gt;ToolApiModule -->
<g id="edge15" class="edge">
<title>ExternalToolRequestMapper&#45;&gt;ToolApiModule</title>
<path fill="none" stroke="black" d="M1495,-122.04C1495,-138.73 1495,-161 1495,-161 1495,-161 2343.36,-161 2343.36,-161"/>
<polygon fill="black" stroke="black" points="2343.36,-164.5 2353.36,-161 2343.36,-157.5 2343.36,-164.5"/>
</g>
<!-- ExternalToolResponseMapper -->
<g id="node17" class="node">
<title>ExternalToolResponseMapper</title>
<ellipse fill="#fdb462" stroke="black" cx="1225" cy="-104" rx="129.06" ry="18"/>
<text text-anchor="middle" x="1225" y="-99.8" font-family="Times,serif" font-size="14.00">ExternalToolResponseMapper</text>
</g>
<!-- ExternalToolResponseMapper&#45;&gt;ToolApiModule -->
<g id="edge16" class="edge">
<title>ExternalToolResponseMapper&#45;&gt;ToolApiModule</title>
<path fill="none" stroke="black" d="M1225,-122.3C1225,-140.27 1225,-165 1225,-165 1225,-165 2343.14,-165 2343.14,-165"/>
<polygon fill="black" stroke="black" points="2343.14,-168.5 2353.14,-165 2343.14,-161.5 2343.14,-168.5"/>
</g>
<!-- ExternalToolUc -->
<g id="node18" class="node">
<title>ExternalToolUc</title>
<ellipse fill="#fdb462" stroke="black" cx="1005" cy="-104" rx="73.49" ry="18"/>
<text text-anchor="middle" x="1005" y="-99.8" font-family="Times,serif" font-size="14.00">ExternalToolUc</text>
</g>
<!-- ExternalToolUc&#45;&gt;ToolApiModule -->
<g id="edge17" class="edge">
<title>ExternalToolUc&#45;&gt;ToolApiModule</title>
<path fill="none" stroke="black" d="M1005,-122.17C1005,-141.09 1005,-168 1005,-168 1005,-168 2343.33,-168 2343.33,-168"/>
<polygon fill="black" stroke="black" points="2343.33,-171.5 2353.33,-168 2343.33,-164.5 2343.33,-171.5"/>
</g>
<!-- LtiToolRepo -->
<g id="node19" class="node">
<title>LtiToolRepo</title>
<ellipse fill="#fdb462" stroke="black" cx="853" cy="-104" rx="60.85" ry="18"/>
<text text-anchor="middle" x="853" y="-99.8" font-family="Times,serif" font-size="14.00">LtiToolRepo</text>
</g>
<!-- LtiToolRepo&#45;&gt;ToolApiModule -->
<g id="edge18" class="edge">
<title>LtiToolRepo&#45;&gt;ToolApiModule</title>
<path fill="none" stroke="black" d="M853,-122.31C853,-142.15 853,-171 853,-171 853,-171 2343.51,-171 2343.51,-171"/>
<polygon fill="black" stroke="black" points="2343.51,-174.5 2353.51,-171 2343.51,-167.5 2343.51,-174.5"/>
</g>
<!-- SchoolExternalToolUc -->
<g id="node20" class="node">
<title>SchoolExternalToolUc</title>
<ellipse fill="#fdb462" stroke="black" cx="674" cy="-104" rx="100.14" ry="18"/>
<text text-anchor="middle" x="674" y="-99.8" font-family="Times,serif" font-size="14.00">SchoolExternalToolUc</text>
</g>
<!-- SchoolExternalToolUc&#45;&gt;ToolApiModule -->
<g id="edge19" class="edge">
<title>SchoolExternalToolUc&#45;&gt;ToolApiModule</title>
<path fill="none" stroke="black" d="M674,-122.03C674,-142.77 674,-174 674,-174 674,-174 2343.23,-174 2343.23,-174"/>
<polygon fill="black" stroke="black" points="2343.23,-177.5 2353.23,-174 2343.23,-170.5 2343.23,-177.5"/>
</g>
<!-- ToolLaunchUc -->
<g id="node21" class="node">
<title>ToolLaunchUc</title>
<ellipse fill="#fdb462" stroke="black" cx="486" cy="-104" rx="69.49" ry="18"/>
<text text-anchor="middle" x="486" y="-99.8" font-family="Times,serif" font-size="14.00">ToolLaunchUc</text>
</g>
<!-- ToolLaunchUc&#45;&gt;ToolApiModule -->
<g id="edge20" class="edge">
<title>ToolLaunchUc&#45;&gt;ToolApiModule</title>
<path fill="none" stroke="black" d="M486,-122.29C486,-144.21 486,-178 486,-178 486,-178 2343.36,-178 2343.36,-178"/>
<polygon fill="black" stroke="black" points="2343.36,-181.5 2353.36,-178 2343.36,-174.5 2343.36,-181.5"/>
</g>
<!-- ToolPermissionHelper -->
<g id="node22" class="node">
<title>ToolPermissionHelper</title>
<ellipse fill="#fdb462" stroke="black" cx="300" cy="-104" rx="98.43" ry="18"/>
<text text-anchor="middle" x="300" y="-99.8" font-family="Times,serif" font-size="14.00">ToolPermissionHelper</text>
</g>
<!-- ToolPermissionHelper&#45;&gt;ToolApiModule -->
<g id="edge21" class="edge">
<title>ToolPermissionHelper&#45;&gt;ToolApiModule</title>
<path fill="none" stroke="black" d="M300,-122.25C300,-145.02 300,-181 300,-181 300,-181 2343.33,-181 2343.33,-181"/>
<polygon fill="black" stroke="black" points="2343.33,-184.5 2353.33,-181 2343.33,-177.5 2343.33,-184.5"/>
</g>
<!-- ToolReferenceUc -->
<g id="node23" class="node">
<title>ToolReferenceUc</title>
<ellipse fill="#fdb462" stroke="black" cx="104" cy="-104" rx="79.83" ry="18"/>
<text text-anchor="middle" x="104" y="-99.8" font-family="Times,serif" font-size="14.00">ToolReferenceUc</text>
</g>
<!-- ToolReferenceUc&#45;&gt;ToolApiModule -->
<g id="edge22" class="edge">
<title>ToolReferenceUc&#45;&gt;ToolApiModule</title>
<path fill="none" stroke="black" d="M104,-122.15C104,-145.76 104,-184 104,-184 104,-184 2343.46,-184 2343.46,-184"/>
<polygon fill="black" stroke="black" points="2343.46,-187.5 2353.46,-184 2343.46,-180.5 2343.46,-187.5"/>
</g>
</g>
</svg>
