<?xml version="1.0" encoding="UTF-8" standalone="no"?>
<!DOCTYPE svg PUBLIC "-//W3C//DTD SVG 1.1//EN"
 "http://www.w3.org/Graphics/SVG/1.1/DTD/svg11.dtd">
<!-- Generated by graphviz version 2.47.0 (20210316.0004)
 -->
<!-- Title: dependencies Pages: 1 -->
<svg width="4567pt" height="211pt"
 viewBox="0.00 0.00 4567.00 211.00" xmlns="http://www.w3.org/2000/svg" xmlns:xlink="http://www.w3.org/1999/xlink">
<g id="graph0" class="graph" transform="scale(1 1) rotate(0) translate(4 207)">
<title>dependencies</title>
<polygon fill="white" stroke="transparent" points="-4,4 -4,-207 4563,-207 4563,4 -4,4"/>
<text text-anchor="start" x="2258.51" y="-42.4" font-family="Times-12" font-weight="bold" font-size="14.00">Legend</text>
<polygon fill="#ffffb3" stroke="transparent" points="2045.5,-10 2045.5,-30 2065.5,-30 2065.5,-10 2045.5,-10"/>
<text text-anchor="start" x="2069.13" y="-15.4" font-family="Times-12" font-size="14.00"> &#160;Declarations</text>
<polygon fill="#8dd3c7" stroke="transparent" points="2158.5,-10 2158.5,-30 2178.5,-30 2178.5,-10 2158.5,-10"/>
<text text-anchor="start" x="2182.23" y="-15.4" font-family="Times-12" font-size="14.00"> &#160;Module</text>
<polygon fill="#80b1d3" stroke="transparent" points="2244.5,-10 2244.5,-30 2264.5,-30 2264.5,-10 2244.5,-10"/>
<text text-anchor="start" x="2268.28" y="-15.4" font-family="Times-12" font-size="14.00"> &#160;Bootstrap</text>
<polygon fill="#fdb462" stroke="transparent" points="2341.5,-10 2341.5,-30 2361.5,-30 2361.5,-10 2341.5,-10"/>
<text text-anchor="start" x="2365.17" y="-15.4" font-family="Times-12" font-size="14.00"> &#160;Providers</text>
<polygon fill="#fb8072" stroke="transparent" points="2437.5,-10 2437.5,-30 2457.5,-30 2457.5,-10 2437.5,-10"/>
<text text-anchor="start" x="2461.23" y="-15.4" font-family="Times-12" font-size="14.00"> &#160;Exports</text>
<g id="clust1" class="cluster">
<title>cluster_ToolApiModule</title>
<polygon fill="none" stroke="black" stroke-dasharray="1,5" points="8,-70 8,-195 4551,-195 4551,-70 8,-70"/>
</g>
<g id="clust3" class="cluster">
<title>cluster_ToolApiModule_imports</title>
<polygon fill="none" stroke="black" points="3090,-78 3090,-130 4543,-130 4543,-78 3090,-78"/>
</g>
<g id="clust6" class="cluster">
<title>cluster_ToolApiModule_providers</title>
<polygon fill="none" stroke="black" points="16,-78 16,-130 3082,-130 3082,-78 16,-78"/>
</g>
<!-- AuthorizationModule -->
<g id="node1" class="node">
<title>AuthorizationModule</title>
<polygon fill="#8dd3c7" stroke="black" points="4534.81,-122 4531.81,-126 4510.81,-126 4507.81,-122 4397.19,-122 4397.19,-86 4534.81,-86 4534.81,-122"/>
<text text-anchor="middle" x="4466" y="-99.8" font-family="Times,serif" font-size="14.00">AuthorizationModule</text>
</g>
<!-- ToolApiModule -->
<g id="node12" class="node">
<title>ToolApiModule</title>
<polygon fill="#8dd3c7" stroke="black" points="2889.49,-187 2886.49,-191 2865.49,-191 2862.49,-187 2782.51,-187 2782.51,-151 2889.49,-151 2889.49,-187"/>
<text text-anchor="middle" x="2836" y="-164.8" font-family="Times,serif" font-size="14.00">ToolApiModule</text>
</g>
<!-- AuthorizationModule&#45;&gt;ToolApiModule -->
<g id="edge1" class="edge">
<title>AuthorizationModule&#45;&gt;ToolApiModule</title>
<path fill="none" stroke="black" d="M4466,-122.15C4466,-145.76 4466,-184 4466,-184 4466,-184 2899.77,-184 2899.77,-184"/>
<polygon fill="black" stroke="black" points="2899.77,-180.5 2889.77,-184 2899.77,-187.5 2899.77,-180.5"/>
</g>
<!-- BoardModule -->
<g id="node2" class="node">
<title>BoardModule</title>
<polygon fill="#8dd3c7" stroke="black" points="4378.76,-122 4375.76,-126 4354.76,-126 4351.76,-122 4285.24,-122 4285.24,-86 4378.76,-86 4378.76,-122"/>
<text text-anchor="middle" x="4332" y="-99.8" font-family="Times,serif" font-size="14.00">BoardModule</text>
</g>
<!-- BoardModule&#45;&gt;ToolApiModule -->
<g id="edge2" class="edge">
<title>BoardModule&#45;&gt;ToolApiModule</title>
<path fill="none" stroke="black" d="M4332,-122.09C4332,-145.13 4332,-182 4332,-182 4332,-182 2899.68,-182 2899.68,-182"/>
<polygon fill="black" stroke="black" points="2899.68,-178.5 2889.68,-182 2899.68,-185.5 2899.68,-178.5"/>
</g>
<!-- CommonToolModule -->
<g id="node3" class="node">
<title>CommonToolModule</title>
<polygon fill="#8dd3c7" stroke="black" points="4267.11,-122 4264.11,-126 4243.11,-126 4240.11,-122 4128.89,-122 4128.89,-86 4267.11,-86 4267.11,-122"/>
<text text-anchor="middle" x="4198" y="-99.8" font-family="Times,serif" font-size="14.00">CommonToolModule</text>
</g>
<!-- CommonToolModule&#45;&gt;ToolApiModule -->
<g id="edge3" class="edge">
<title>CommonToolModule&#45;&gt;ToolApiModule</title>
<path fill="none" stroke="black" d="M4198,-122.29C4198,-144.21 4198,-178 4198,-178 4198,-178 2899.81,-178 2899.81,-178"/>
<polygon fill="black" stroke="black" points="2899.81,-174.5 2889.81,-178 2899.81,-181.5 2899.81,-174.5"/>
</g>
<!-- LearnroomModule -->
<g id="node4" class="node">
<title>LearnroomModule</title>
<polygon fill="#8dd3c7" stroke="black" points="4110.74,-122 4107.74,-126 4086.74,-126 4083.74,-122 3989.26,-122 3989.26,-86 4110.74,-86 4110.74,-122"/>
<text text-anchor="middle" x="4050" y="-99.8" font-family="Times,serif" font-size="14.00">LearnroomModule</text>
</g>
<!-- LearnroomModule&#45;&gt;ToolApiModule -->
<g id="edge4" class="edge">
<title>LearnroomModule&#45;&gt;ToolApiModule</title>
<path fill="none" stroke="black" d="M4050,-122.28C4050,-143.32 4050,-175 4050,-175 4050,-175 2899.73,-175 2899.73,-175"/>
<polygon fill="black" stroke="black" points="2899.73,-171.5 2889.73,-175 2899.73,-178.5 2899.73,-171.5"/>
</g>
<!-- LegacySchoolModule -->
<g id="node5" class="node">
<title>LegacySchoolModule</title>
<polygon fill="#8dd3c7" stroke="black" points="3970.63,-122 3967.63,-126 3946.63,-126 3943.63,-122 3831.37,-122 3831.37,-86 3970.63,-86 3970.63,-122"/>
<text text-anchor="middle" x="3901" y="-99.8" font-family="Times,serif" font-size="14.00">LegacySchoolModule</text>
</g>
<!-- LegacySchoolModule&#45;&gt;ToolApiModule -->
<g id="edge5" class="edge">
<title>LegacySchoolModule&#45;&gt;ToolApiModule</title>
<path fill="none" stroke="black" d="M3901,-122.22C3901,-142.37 3901,-172 3901,-172 3901,-172 2899.54,-172 2899.54,-172"/>
<polygon fill="black" stroke="black" points="2899.54,-168.5 2889.54,-172 2899.54,-175.5 2899.54,-168.5"/>
</g>
<!-- LoggerModule -->
<g id="node6" class="node">
<title>LoggerModule</title>
<polygon fill="#8dd3c7" stroke="black" points="3812.98,-122 3809.98,-126 3788.98,-126 3785.98,-122 3713.02,-122 3713.02,-86 3812.98,-86 3812.98,-122"/>
<text text-anchor="middle" x="3763" y="-99.8" font-family="Times,serif" font-size="14.00">LoggerModule</text>
</g>
<!-- LoggerModule&#45;&gt;ToolApiModule -->
<g id="edge6" class="edge">
<title>LoggerModule&#45;&gt;ToolApiModule</title>
<path fill="none" stroke="black" d="M3763,-122.11C3763,-141.34 3763,-169 3763,-169 3763,-169 2899.51,-169 2899.51,-169"/>
<polygon fill="black" stroke="black" points="2899.51,-165.5 2889.51,-169 2899.51,-172.5 2899.51,-165.5"/>
</g>
<!-- SchoolModule -->
<g id="node7" class="node">
<title>SchoolModule</title>
<polygon fill="#8dd3c7" stroke="black" points="3695.44,-122 3692.44,-126 3671.44,-126 3668.44,-122 3596.56,-122 3596.56,-86 3695.44,-86 3695.44,-122"/>
<text text-anchor="middle" x="3646" y="-99.8" font-family="Times,serif" font-size="14.00">SchoolModule</text>
</g>
<!-- SchoolModule&#45;&gt;ToolApiModule -->
<g id="edge7" class="edge">
<title>SchoolModule&#45;&gt;ToolApiModule</title>
<path fill="none" stroke="black" d="M3646,-122.22C3646,-140.83 3646,-167 3646,-167 3646,-167 2899.77,-167 2899.77,-167"/>
<polygon fill="black" stroke="black" points="2899.77,-163.5 2889.77,-167 2899.77,-170.5 2899.77,-163.5"/>
</g>
<!-- ToolConfigModule -->
<g id="node8" class="node">
<title>ToolConfigModule</title>
<polygon fill="#8dd3c7" stroke="black" points="3578.38,-122 3575.38,-126 3554.38,-126 3551.38,-122 3453.62,-122 3453.62,-86 3578.38,-86 3578.38,-122"/>
<text text-anchor="middle" x="3516" y="-99.8" font-family="Times,serif" font-size="14.00">ToolConfigModule</text>
</g>
<!-- ToolConfigModule&#45;&gt;ToolApiModule -->
<g id="edge8" class="edge">
<title>ToolConfigModule&#45;&gt;ToolApiModule</title>
<path fill="none" stroke="black" d="M3516,-122.02C3516,-139.37 3516,-163 3516,-163 3516,-163 2899.64,-163 2899.64,-163"/>
<polygon fill="black" stroke="black" points="2899.64,-159.5 2889.64,-163 2899.64,-166.5 2899.64,-159.5"/>
</g>
<!-- ToolModule -->
<g id="node9" class="node">
<title>ToolModule</title>
<polygon fill="#8dd3c7" stroke="black" points="3435.99,-122 3432.99,-126 3411.99,-126 3408.99,-122 3350.01,-122 3350.01,-86 3435.99,-86 3435.99,-122"/>
<text text-anchor="middle" x="3393" y="-99.8" font-family="Times,serif" font-size="14.00">ToolModule</text>
</g>
<!-- ToolModule&#45;&gt;ToolApiModule -->
<g id="edge9" class="edge">
<title>ToolModule&#45;&gt;ToolApiModule</title>
<path fill="none" stroke="black" d="M3393,-122.03C3393,-138.4 3393,-160 3393,-160 3393,-160 2899.66,-160 2899.66,-160"/>
<polygon fill="black" stroke="black" points="2899.66,-156.5 2889.66,-160 2899.66,-163.5 2899.66,-156.5"/>
</g>
<!-- UserLicenseModule -->
<g id="node10" class="node">
<title>UserLicenseModule</title>
<polygon fill="#8dd3c7" stroke="black" points="3331.51,-122 3328.51,-126 3307.51,-126 3304.51,-122 3202.49,-122 3202.49,-86 3331.51,-86 3331.51,-122"/>
<text text-anchor="middle" x="3267" y="-99.8" font-family="Times,serif" font-size="14.00">UserLicenseModule</text>
</g>
<!-- UserLicenseModule&#45;&gt;ToolApiModule -->
<g id="edge10" class="edge">
<title>UserLicenseModule&#45;&gt;ToolApiModule</title>
<path fill="none" stroke="black" d="M3267,-122.24C3267,-137.57 3267,-157 3267,-157 3267,-157 2899.71,-157 2899.71,-157"/>
<polygon fill="black" stroke="black" points="2899.72,-153.5 2889.71,-157 2899.71,-160.5 2899.72,-153.5"/>
</g>
<!-- UserModule -->
<g id="node11" class="node">
<title>UserModule</title>
<polygon fill="#8dd3c7" stroke="black" points="3183.98,-122 3180.98,-126 3159.98,-126 3156.98,-122 3098.02,-122 3098.02,-86 3183.98,-86 3183.98,-122"/>
<text text-anchor="middle" x="3141" y="-99.8" font-family="Times,serif" font-size="14.00">UserModule</text>
</g>
<!-- UserModule&#45;&gt;ToolApiModule -->
<g id="edge11" class="edge">
<title>UserModule&#45;&gt;ToolApiModule</title>
<path fill="none" stroke="black" d="M3141,-122.05C3141,-136.37 3141,-154 3141,-154 3141,-154 2899.83,-154 2899.83,-154"/>
<polygon fill="black" stroke="black" points="2899.83,-150.5 2889.83,-154 2899.83,-157.5 2899.83,-150.5"/>
</g>
<!-- ContextExternalToolUc -->
<g id="node13" class="node">
<title>ContextExternalToolUc</title>
<ellipse fill="#fdb462" stroke="black" cx="2970" cy="-104" rx="103.65" ry="18"/>
<text text-anchor="middle" x="2970" y="-99.8" font-family="Times,serif" font-size="14.00">ContextExternalToolUc</text>
</g>
<!-- ContextExternalToolUc&#45;&gt;ToolApiModule -->
<g id="edge12" class="edge">
<title>ContextExternalToolUc&#45;&gt;ToolApiModule</title>
<path fill="none" stroke="black" d="M2877.83,-112.5C2877.83,-112.5 2877.83,-140.91 2877.83,-140.91"/>
<polygon fill="black" stroke="black" points="2874.33,-140.91 2877.83,-150.91 2881.33,-140.91 2874.33,-140.91"/>
</g>
<!-- ExternalToolConfigurationService -->
<g id="node14" class="node">
<title>ExternalToolConfigurationService</title>
<ellipse fill="#fdb462" stroke="black" cx="2703" cy="-104" rx="145.24" ry="18"/>
<text text-anchor="middle" x="2703" y="-99.8" font-family="Times,serif" font-size="14.00">ExternalToolConfigurationService</text>
</g>
<!-- ExternalToolConfigurationService&#45;&gt;ToolApiModule -->
<g id="edge13" class="edge">
<title>ExternalToolConfigurationService&#45;&gt;ToolApiModule</title>
<path fill="none" stroke="black" d="M2815.31,-115.62C2815.31,-115.62 2815.31,-140.85 2815.31,-140.85"/>
<polygon fill="black" stroke="black" points="2811.81,-140.85 2815.31,-150.85 2818.81,-140.85 2811.81,-140.85"/>
</g>
<!-- ExternalToolConfigurationUc -->
<g id="node15" class="node">
<title>ExternalToolConfigurationUc</title>
<ellipse fill="#fdb462" stroke="black" cx="2412" cy="-104" rx="127.35" ry="18"/>
<text text-anchor="middle" x="2412" y="-99.8" font-family="Times,serif" font-size="14.00">ExternalToolConfigurationUc</text>
</g>
<!-- ExternalToolConfigurationUc&#45;&gt;ToolApiModule -->
<g id="edge14" class="edge">
<title>ExternalToolConfigurationUc&#45;&gt;ToolApiModule</title>
<path fill="none" stroke="black" d="M2412,-122.05C2412,-136.37 2412,-154 2412,-154 2412,-154 2772.3,-154 2772.3,-154"/>
<polygon fill="black" stroke="black" points="2772.3,-157.5 2782.3,-154 2772.3,-150.5 2772.3,-157.5"/>
</g>
<!-- ExternalToolRequestMapper -->
<g id="node16" class="node">
<title>ExternalToolRequestMapper</title>
<ellipse fill="#fdb462" stroke="black" cx="2143" cy="-104" rx="123.26" ry="18"/>
<text text-anchor="middle" x="2143" y="-99.8" font-family="Times,serif" font-size="14.00">ExternalToolRequestMapper</text>
</g>
<!-- ExternalToolRequestMapper&#45;&gt;ToolApiModule -->
<g id="edge15" class="edge">
<title>ExternalToolRequestMapper&#45;&gt;ToolApiModule</title>
<path fill="none" stroke="black" d="M2143,-122.24C2143,-137.57 2143,-157 2143,-157 2143,-157 2772.49,-157 2772.49,-157"/>
<polygon fill="black" stroke="black" points="2772.49,-160.5 2782.49,-157 2772.49,-153.5 2772.49,-160.5"/>
</g>
<!-- ExternalToolResponseMapper -->
<g id="node17" class="node">
<title>ExternalToolResponseMapper</title>
<ellipse fill="#fdb462" stroke="black" cx="1873" cy="-104" rx="129.06" ry="18"/>
<text text-anchor="middle" x="1873" y="-99.8" font-family="Times,serif" font-size="14.00">ExternalToolResponseMapper</text>
</g>
<!-- ExternalToolResponseMapper&#45;&gt;ToolApiModule -->
<g id="edge16" class="edge">
<title>ExternalToolResponseMapper&#45;&gt;ToolApiModule</title>
<path fill="none" stroke="black" d="M1873,-122.03C1873,-138.4 1873,-160 1873,-160 1873,-160 2772.51,-160 2772.51,-160"/>
<polygon fill="black" stroke="black" points="2772.51,-163.5 2782.51,-160 2772.51,-156.5 2772.51,-163.5"/>
</g>
<!-- ExternalToolUc -->
<g id="node18" class="node">
<title>ExternalToolUc</title>
<ellipse fill="#fdb462" stroke="black" cx="1653" cy="-104" rx="73.49" ry="18"/>
<text text-anchor="middle" x="1653" y="-99.8" font-family="Times,serif" font-size="14.00">ExternalToolUc</text>
</g>
<!-- ExternalToolUc&#45;&gt;ToolApiModule -->
<g id="edge17" class="edge">
<title>ExternalToolUc&#45;&gt;ToolApiModule</title>
<path fill="none" stroke="black" d="M1653,-122.02C1653,-139.37 1653,-163 1653,-163 1653,-163 2772.48,-163 2772.48,-163"/>
<polygon fill="black" stroke="black" points="2772.48,-166.5 2782.48,-163 2772.48,-159.5 2772.48,-166.5"/>
</g>
<!-- LtiToolRepo -->
<g id="node19" class="node">
<title>LtiToolRepo</title>
<ellipse fill="#fdb462" stroke="black" cx="1501" cy="-104" rx="60.85" ry="18"/>
<text text-anchor="middle" x="1501" y="-99.8" font-family="Times,serif" font-size="14.00">LtiToolRepo</text>
</g>
<!-- LtiToolRepo&#45;&gt;ToolApiModule -->
<g id="edge18" class="edge">
<title>LtiToolRepo&#45;&gt;ToolApiModule</title>
<path fill="none" stroke="black" d="M1501,-122.22C1501,-140.83 1501,-167 1501,-167 1501,-167 2772.43,-167 2772.43,-167"/>
<polygon fill="black" stroke="black" points="2772.43,-170.5 2782.43,-167 2772.43,-163.5 2772.43,-170.5"/>
</g>
<!-- SchoolExternalToolRequestMapper -->
<g id="node20" class="node">
<title>SchoolExternalToolRequestMapper</title>
<ellipse fill="#fdb462" stroke="black" cx="1272" cy="-104" rx="149.9" ry="18"/>
<text text-anchor="middle" x="1272" y="-99.8" font-family="Times,serif" font-size="14.00">SchoolExternalToolRequestMapper</text>
</g>
<!-- SchoolExternalToolRequestMapper&#45;&gt;ToolApiModule -->
<g id="edge19" class="edge">
<title>SchoolExternalToolRequestMapper&#45;&gt;ToolApiModule</title>
<path fill="none" stroke="black" d="M1272,-122.11C1272,-141.34 1272,-169 1272,-169 1272,-169 2772.16,-169 2772.16,-169"/>
<polygon fill="black" stroke="black" points="2772.16,-172.5 2782.16,-169 2772.16,-165.5 2772.16,-172.5"/>
</g>
<!-- SchoolExternalToolResponseMapper -->
<g id="node21" class="node">
<title>SchoolExternalToolResponseMapper</title>
<ellipse fill="#fdb462" stroke="black" cx="948" cy="-104" rx="155.7" ry="18"/>
<text text-anchor="middle" x="948" y="-99.8" font-family="Times,serif" font-size="14.00">SchoolExternalToolResponseMapper</text>
</g>
<!-- SchoolExternalToolResponseMapper&#45;&gt;ToolApiModule -->
<g id="edge20" class="edge">
<title>SchoolExternalToolResponseMapper&#45;&gt;ToolApiModule</title>
<path fill="none" stroke="black" d="M948,-122.22C948,-142.37 948,-172 948,-172 948,-172 2772.29,-172 2772.29,-172"/>
<polygon fill="black" stroke="black" points="2772.29,-175.5 2782.29,-172 2772.29,-168.5 2772.29,-175.5"/>
</g>
<!-- SchoolExternalToolUc -->
<g id="node22" class="node">
<title>SchoolExternalToolUc</title>
<ellipse fill="#fdb462" stroke="black" cx="674" cy="-104" rx="100.14" ry="18"/>
<text text-anchor="middle" x="674" y="-99.8" font-family="Times,serif" font-size="14.00">SchoolExternalToolUc</text>
</g>
<!-- SchoolExternalToolUc&#45;&gt;ToolApiModule -->
<g id="edge21" class="edge">
<title>SchoolExternalToolUc&#45;&gt;ToolApiModule</title>
<path fill="none" stroke="black" d="M674,-122.28C674,-143.32 674,-175 674,-175 674,-175 2772.29,-175 2772.29,-175"/>
<polygon fill="black" stroke="black" points="2772.29,-178.5 2782.29,-175 2772.29,-171.5 2772.29,-178.5"/>
</g>
<!-- ToolLaunchUc -->
<g id="node23" class="node">
<title>ToolLaunchUc</title>
<ellipse fill="#fdb462" stroke="black" cx="486" cy="-104" rx="69.49" ry="18"/>
<text text-anchor="middle" x="486" y="-99.8" font-family="Times,serif" font-size="14.00">ToolLaunchUc</text>
</g>
<!-- ToolLaunchUc&#45;&gt;ToolApiModule -->
<g id="edge22" class="edge">
<title>ToolLaunchUc&#45;&gt;ToolApiModule</title>
<path fill="none" stroke="black" d="M486,-122.29C486,-144.21 486,-178 486,-178 486,-178 2772.5,-178 2772.5,-178"/>
<polygon fill="black" stroke="black" points="2772.5,-181.5 2782.5,-178 2772.5,-174.5 2772.5,-181.5"/>
</g>
<!-- ToolPermissionHelper -->
<g id="node24" class="node">
<title>ToolPermissionHelper</title>
<ellipse fill="#fdb462" stroke="black" cx="300" cy="-104" rx="98.43" ry="18"/>
<text text-anchor="middle" x="300" y="-99.8" font-family="Times,serif" font-size="14.00">ToolPermissionHelper</text>
</g>
<!-- ToolPermissionHelper&#45;&gt;ToolApiModule -->
<g id="edge23" class="edge">
<title>ToolPermissionHelper&#45;&gt;ToolApiModule</title>
<path fill="none" stroke="black" d="M300,-122.09C300,-145.13 300,-182 300,-182 300,-182 2772.45,-182 2772.45,-182"/>
<polygon fill="black" stroke="black" points="2772.45,-185.5 2782.45,-182 2772.45,-178.5 2772.45,-185.5"/>
</g>
<!-- ToolReferenceUc -->
<g id="node25" class="node">
<title>ToolReferenceUc</title>
<ellipse fill="#fdb462" stroke="black" cx="104" cy="-104" rx="79.83" ry="18"/>
<text text-anchor="middle" x="104" y="-99.8" font-family="Times,serif" font-size="14.00">ToolReferenceUc</text>
</g>
<!-- ToolReferenceUc&#45;&gt;ToolApiModule -->
<g id="edge24" class="edge">
<title>ToolReferenceUc&#45;&gt;ToolApiModule</title>
<path fill="none" stroke="black" d="M104,-122.15C104,-145.76 104,-184 104,-184 104,-184 2772.35,-184 2772.35,-184"/>
<polygon fill="black" stroke="black" points="2772.35,-187.5 2782.35,-184 2772.35,-180.5 2772.35,-187.5"/>
</g>
</g>
</svg>
