<?xml version="1.0" encoding="UTF-8" standalone="no"?>
<!DOCTYPE svg PUBLIC "-//W3C//DTD SVG 1.1//EN"
 "http://www.w3.org/Graphics/SVG/1.1/DTD/svg11.dtd">
<!-- Generated by graphviz version 2.47.0 (20210316.0004)
 -->
<!-- Title: dependencies Pages: 1 -->
<svg width="3186pt" height="211pt"
 viewBox="0.00 0.00 3186.00 211.00" xmlns="http://www.w3.org/2000/svg" xmlns:xlink="http://www.w3.org/1999/xlink">
<g id="graph0" class="graph" transform="scale(1 1) rotate(0) translate(4 207)">
<title>dependencies</title>
<polygon fill="white" stroke="transparent" points="-4,4 -4,-207 3182,-207 3182,4 -4,4"/>
<text text-anchor="start" x="1568.01" y="-42.4" font-family="Times-12" font-weight="bold" font-size="14.00">Legend</text>
<polygon fill="#ffffb3" stroke="transparent" points="1355,-10 1355,-30 1375,-30 1375,-10 1355,-10"/>
<text text-anchor="start" x="1378.63" y="-15.4" font-family="Times-12" font-size="14.00"> &#160;Declarations</text>
<polygon fill="#8dd3c7" stroke="transparent" points="1468,-10 1468,-30 1488,-30 1488,-10 1468,-10"/>
<text text-anchor="start" x="1491.73" y="-15.4" font-family="Times-12" font-size="14.00"> &#160;Module</text>
<polygon fill="#80b1d3" stroke="transparent" points="1554,-10 1554,-30 1574,-30 1574,-10 1554,-10"/>
<text text-anchor="start" x="1577.78" y="-15.4" font-family="Times-12" font-size="14.00"> &#160;Bootstrap</text>
<polygon fill="#fdb462" stroke="transparent" points="1651,-10 1651,-30 1671,-30 1671,-10 1651,-10"/>
<text text-anchor="start" x="1674.67" y="-15.4" font-family="Times-12" font-size="14.00"> &#160;Providers</text>
<polygon fill="#fb8072" stroke="transparent" points="1747,-10 1747,-30 1767,-30 1767,-10 1747,-10"/>
<text text-anchor="start" x="1770.73" y="-15.4" font-family="Times-12" font-size="14.00"> &#160;Exports</text>
<g id="clust1" class="cluster">
<title>cluster_ToolApiModule</title>
<polygon fill="none" stroke="black" stroke-dasharray="1,5" points="8,-70 8,-195 3170,-195 3170,-70 8,-70"/>
</g>
<g id="clust3" class="cluster">
<title>cluster_ToolApiModule_imports</title>
<polygon fill="none" stroke="black" points="2566,-78 2566,-130 3162,-130 3162,-78 2566,-78"/>
</g>
<g id="clust6" class="cluster">
<title>cluster_ToolApiModule_providers</title>
<polygon fill="none" stroke="black" points="16,-78 16,-130 2558,-130 2558,-78 16,-78"/>
</g>
<!-- AuthorizationModule -->
<g id="node1" class="node">
<title>AuthorizationModule</title>
<polygon fill="#8dd3c7" stroke="black" points="3153.81,-122 3150.81,-126 3129.81,-126 3126.81,-122 3016.19,-122 3016.19,-86 3153.81,-86 3153.81,-122"/>
<text text-anchor="middle" x="3085" y="-99.8" font-family="Times,serif" font-size="14.00">AuthorizationModule</text>
</g>
<!-- ToolApiModule -->
<g id="node6" class="node">
<title>ToolApiModule</title>
<polygon fill="#8dd3c7" stroke="black" points="1846.49,-187 1843.49,-191 1822.49,-191 1819.49,-187 1739.51,-187 1739.51,-151 1846.49,-151 1846.49,-187"/>
<text text-anchor="middle" x="1793" y="-164.8" font-family="Times,serif" font-size="14.00">ToolApiModule</text>
</g>
<!-- AuthorizationModule&#45;&gt;ToolApiModule -->
<g id="edge1" class="edge">
<title>AuthorizationModule&#45;&gt;ToolApiModule</title>
<path fill="none" stroke="black" d="M3085,-122.32C3085,-145.66 3085,-183 3085,-183 3085,-183 1856.87,-183 1856.87,-183"/>
<polygon fill="black" stroke="black" points="1856.87,-179.5 1846.87,-183 1856.87,-186.5 1856.87,-179.5"/>
</g>
<!-- LoggerModule -->
<g id="node2" class="node">
<title>LoggerModule</title>
<polygon fill="#8dd3c7" stroke="black" points="2997.98,-122 2994.98,-126 2973.98,-126 2970.98,-122 2898.02,-122 2898.02,-86 2997.98,-86 2997.98,-122"/>
<text text-anchor="middle" x="2948" y="-99.8" font-family="Times,serif" font-size="14.00">LoggerModule</text>
</g>
<!-- LoggerModule&#45;&gt;ToolApiModule -->
<g id="edge2" class="edge">
<title>LoggerModule&#45;&gt;ToolApiModule</title>
<path fill="none" stroke="black" d="M2948,-122.29C2948,-144.21 2948,-178 2948,-178 2948,-178 1856.77,-178 1856.77,-178"/>
<polygon fill="black" stroke="black" points="1856.77,-174.5 1846.77,-178 1856.77,-181.5 1856.77,-174.5"/>
</g>
<!-- SchoolModule -->
<g id="node3" class="node">
<title>SchoolModule</title>
<polygon fill="#8dd3c7" stroke="black" points="2880.44,-122 2877.44,-126 2856.44,-126 2853.44,-122 2781.56,-122 2781.56,-86 2880.44,-86 2880.44,-122"/>
<text text-anchor="middle" x="2831" y="-99.8" font-family="Times,serif" font-size="14.00">SchoolModule</text>
</g>
<!-- SchoolModule&#45;&gt;ToolApiModule -->
<g id="edge3" class="edge">
<title>SchoolModule&#45;&gt;ToolApiModule</title>
<path fill="none" stroke="black" d="M2831,-122.03C2831,-142.77 2831,-174 2831,-174 2831,-174 1856.62,-174 1856.62,-174"/>
<polygon fill="black" stroke="black" points="1856.62,-170.5 1846.62,-174 1856.62,-177.5 1856.62,-170.5"/>
</g>
<!-- ToolModule -->
<g id="node4" class="node">
<title>ToolModule</title>
<polygon fill="#8dd3c7" stroke="black" points="2763.99,-122 2760.99,-126 2739.99,-126 2736.99,-122 2678.01,-122 2678.01,-86 2763.99,-86 2763.99,-122"/>
<text text-anchor="middle" x="2721" y="-99.8" font-family="Times,serif" font-size="14.00">ToolModule</text>
</g>
<!-- ToolModule&#45;&gt;ToolApiModule -->
<g id="edge4" class="edge">
<title>ToolModule&#45;&gt;ToolApiModule</title>
<path fill="none" stroke="black" d="M2721,-122.11C2721,-141.34 2721,-169 2721,-169 2721,-169 1856.56,-169 1856.56,-169"/>
<polygon fill="black" stroke="black" points="1856.56,-165.5 1846.56,-169 1856.56,-172.5 1856.56,-165.5"/>
</g>
<!-- UserModule -->
<g id="node5" class="node">
<title>UserModule</title>
<polygon fill="#8dd3c7" stroke="black" points="2659.98,-122 2656.98,-126 2635.98,-126 2632.98,-122 2574.02,-122 2574.02,-86 2659.98,-86 2659.98,-122"/>
<text text-anchor="middle" x="2617" y="-99.8" font-family="Times,serif" font-size="14.00">UserModule</text>
</g>
<!-- UserModule&#45;&gt;ToolApiModule -->
<g id="edge5" class="edge">
<title>UserModule&#45;&gt;ToolApiModule</title>
<path fill="none" stroke="black" d="M2617,-122.3C2617,-140.27 2617,-165 2617,-165 2617,-165 1856.75,-165 1856.75,-165"/>
<polygon fill="black" stroke="black" points="1856.75,-161.5 1846.75,-165 1856.75,-168.5 1856.75,-161.5"/>
</g>
<!-- ContextExternalToolUc -->
<g id="node7" class="node">
<title>ContextExternalToolUc</title>
<ellipse fill="#fdb462" stroke="black" cx="2446" cy="-104" rx="103.65" ry="18"/>
<text text-anchor="middle" x="2446" y="-99.8" font-family="Times,serif" font-size="14.00">ContextExternalToolUc</text>
</g>
<!-- ContextExternalToolUc&#45;&gt;ToolApiModule -->
<g id="edge6" class="edge">
<title>ContextExternalToolUc&#45;&gt;ToolApiModule</title>
<path fill="none" stroke="black" d="M2446,-122.03C2446,-138.4 2446,-160 2446,-160 2446,-160 1856.72,-160 1856.72,-160"/>
<polygon fill="black" stroke="black" points="1856.72,-156.5 1846.72,-160 1856.72,-163.5 1856.72,-156.5"/>
</g>
<!-- ExternalToolConfigurationUc -->
<g id="node8" class="node">
<title>ExternalToolConfigurationUc</title>
<ellipse fill="#fdb462" stroke="black" cx="2197" cy="-104" rx="127.35" ry="18"/>
<text text-anchor="middle" x="2197" y="-99.8" font-family="Times,serif" font-size="14.00">ExternalToolConfigurationUc</text>
</g>
<!-- ExternalToolConfigurationUc&#45;&gt;ToolApiModule -->
<g id="edge7" class="edge">
<title>ExternalToolConfigurationUc&#45;&gt;ToolApiModule</title>
<path fill="none" stroke="black" d="M2197,-122.19C2197,-137.18 2197,-156 2197,-156 2197,-156 1856.65,-156 1856.65,-156"/>
<polygon fill="black" stroke="black" points="1856.65,-152.5 1846.65,-156 1856.65,-159.5 1856.65,-152.5"/>
</g>
<!-- ExternalToolRequestMapper -->
<g id="node9" class="node">
<title>ExternalToolRequestMapper</title>
<ellipse fill="#fdb462" stroke="black" cx="1928" cy="-104" rx="123.26" ry="18"/>
<text text-anchor="middle" x="1928" y="-99.8" font-family="Times,serif" font-size="14.00">ExternalToolRequestMapper</text>
</g>
<!-- ExternalToolRequestMapper&#45;&gt;ToolApiModule -->
<g id="edge8" class="edge">
<title>ExternalToolRequestMapper&#45;&gt;ToolApiModule</title>
<path fill="none" stroke="black" d="M1825.68,-114.16C1825.68,-114.16 1825.68,-140.81 1825.68,-140.81"/>
<polygon fill="black" stroke="black" points="1822.18,-140.81 1825.68,-150.81 1829.18,-140.81 1822.18,-140.81"/>
</g>
<!-- ExternalToolResponseMapper -->
<g id="node10" class="node">
<title>ExternalToolResponseMapper</title>
<ellipse fill="#fdb462" stroke="black" cx="1658" cy="-104" rx="129.06" ry="18"/>
<text text-anchor="middle" x="1658" y="-99.8" font-family="Times,serif" font-size="14.00">ExternalToolResponseMapper</text>
</g>
<!-- ExternalToolResponseMapper&#45;&gt;ToolApiModule -->
<g id="edge9" class="edge">
<title>ExternalToolResponseMapper&#45;&gt;ToolApiModule</title>
<path fill="none" stroke="black" d="M1763.27,-114.44C1763.27,-114.44 1763.27,-140.97 1763.27,-140.97"/>
<polygon fill="black" stroke="black" points="1759.77,-140.97 1763.27,-150.97 1766.77,-140.97 1759.77,-140.97"/>
</g>
<!-- ExternalToolUc -->
<g id="node11" class="node">
<title>ExternalToolUc</title>
<ellipse fill="#fdb462" stroke="black" cx="1438" cy="-104" rx="73.49" ry="18"/>
<text text-anchor="middle" x="1438" y="-99.8" font-family="Times,serif" font-size="14.00">ExternalToolUc</text>
</g>
<!-- ExternalToolUc&#45;&gt;ToolApiModule -->
<g id="edge10" class="edge">
<title>ExternalToolUc&#45;&gt;ToolApiModule</title>
<path fill="none" stroke="black" d="M1438,-122.19C1438,-137.18 1438,-156 1438,-156 1438,-156 1729.47,-156 1729.47,-156"/>
<polygon fill="black" stroke="black" points="1729.47,-159.5 1739.47,-156 1729.47,-152.5 1729.47,-159.5"/>
</g>
<!-- LtiToolRepo -->
<g id="node12" class="node">
<title>LtiToolRepo</title>
<ellipse fill="#fdb462" stroke="black" cx="1286" cy="-104" rx="60.85" ry="18"/>
<text text-anchor="middle" x="1286" y="-99.8" font-family="Times,serif" font-size="14.00">LtiToolRepo</text>
</g>
<!-- LtiToolRepo&#45;&gt;ToolApiModule -->
<g id="edge11" class="edge">
<title>LtiToolRepo&#45;&gt;ToolApiModule</title>
<path fill="none" stroke="black" d="M1286,-122.03C1286,-138.4 1286,-160 1286,-160 1286,-160 1729.22,-160 1729.22,-160"/>
<polygon fill="black" stroke="black" points="1729.22,-163.5 1739.22,-160 1729.22,-156.5 1729.22,-163.5"/>
</g>
<!-- SchoolExternalToolRequestMapper -->
<g id="node13" class="node">
<title>SchoolExternalToolRequestMapper</title>
<ellipse fill="#fdb462" stroke="black" cx="1057" cy="-104" rx="149.9" ry="18"/>
<text text-anchor="middle" x="1057" y="-99.8" font-family="Times,serif" font-size="14.00">SchoolExternalToolRequestMapper</text>
</g>
<!-- SchoolExternalToolRequestMapper&#45;&gt;ToolApiModule -->
<g id="edge12" class="edge">
<title>SchoolExternalToolRequestMapper&#45;&gt;ToolApiModule</title>
<path fill="none" stroke="black" d="M1057,-122.3C1057,-140.27 1057,-165 1057,-165 1057,-165 1729.48,-165 1729.48,-165"/>
<polygon fill="black" stroke="black" points="1729.48,-168.5 1739.48,-165 1729.48,-161.5 1729.48,-168.5"/>
</g>
<!-- SchoolExternalToolResponseMapper -->
<g id="node14" class="node">
<title>SchoolExternalToolResponseMapper</title>
<ellipse fill="#fdb462" stroke="black" cx="733" cy="-104" rx="155.7" ry="18"/>
<text text-anchor="middle" x="733" y="-99.8" font-family="Times,serif" font-size="14.00">SchoolExternalToolResponseMapper</text>
</g>
<!-- SchoolExternalToolResponseMapper&#45;&gt;ToolApiModule -->
<g id="edge13" class="edge">
<title>SchoolExternalToolResponseMapper&#45;&gt;ToolApiModule</title>
<path fill="none" stroke="black" d="M733,-122.11C733,-141.34 733,-169 733,-169 733,-169 1729.34,-169 1729.34,-169"/>
<polygon fill="black" stroke="black" points="1729.34,-172.5 1739.34,-169 1729.34,-165.5 1729.34,-172.5"/>
</g>
<!-- SchoolExternalToolUc -->
<g id="node15" class="node">
<title>SchoolExternalToolUc</title>
<ellipse fill="#fdb462" stroke="black" cx="459" cy="-104" rx="100.14" ry="18"/>
<text text-anchor="middle" x="459" y="-99.8" font-family="Times,serif" font-size="14.00">SchoolExternalToolUc</text>
</g>
<!-- SchoolExternalToolUc&#45;&gt;ToolApiModule -->
<g id="edge14" class="edge">
<title>SchoolExternalToolUc&#45;&gt;ToolApiModule</title>
<path fill="none" stroke="black" d="M459,-122.03C459,-142.77 459,-174 459,-174 459,-174 1729.47,-174 1729.47,-174"/>
<polygon fill="black" stroke="black" points="1729.47,-177.5 1739.47,-174 1729.47,-170.5 1729.47,-177.5"/>
</g>
<!-- ToolLaunchUc -->
<g id="node16" class="node">
<title>ToolLaunchUc</title>
<ellipse fill="#fdb462" stroke="black" cx="271" cy="-104" rx="69.49" ry="18"/>
<text text-anchor="middle" x="271" y="-99.8" font-family="Times,serif" font-size="14.00">ToolLaunchUc</text>
</g>
<!-- ToolLaunchUc&#45;&gt;ToolApiModule -->
<g id="edge15" class="edge">
<title>ToolLaunchUc&#45;&gt;ToolApiModule</title>
<path fill="none" stroke="black" d="M271,-122.29C271,-144.21 271,-178 271,-178 271,-178 1729.28,-178 1729.28,-178"/>
<polygon fill="black" stroke="black" points="1729.28,-181.5 1739.28,-178 1729.28,-174.5 1729.28,-181.5"/>
</g>
<!-- ToolReferenceUc -->
<g id="node17" class="node">
<title>ToolReferenceUc</title>
<ellipse fill="#fdb462" stroke="black" cx="104" cy="-104" rx="79.83" ry="18"/>
<text text-anchor="middle" x="104" y="-99.8" font-family="Times,serif" font-size="14.00">ToolReferenceUc</text>
</g>
<!-- ToolReferenceUc&#45;&gt;ToolApiModule -->
<g id="edge16" class="edge">
<title>ToolReferenceUc&#45;&gt;ToolApiModule</title>
<path fill="none" stroke="black" d="M104,-122.32C104,-145.66 104,-183 104,-183 104,-183 1729.19,-183 1729.19,-183"/>
<polygon fill="black" stroke="black" points="1729.19,-186.5 1739.19,-183 1729.19,-179.5 1729.19,-186.5"/>
</g>
</g>
</svg>
