<?xml version="1.0" encoding="UTF-8" standalone="no"?>
<!DOCTYPE svg PUBLIC "-//W3C//DTD SVG 1.1//EN"
 "http://www.w3.org/Graphics/SVG/1.1/DTD/svg11.dtd">
<!-- Generated by graphviz version 2.47.0 (20210316.0004)
 -->
<!-- Title: dependencies Pages: 1 -->
<svg width="3919pt" height="211pt"
 viewBox="0.00 0.00 3919.00 211.00" xmlns="http://www.w3.org/2000/svg" xmlns:xlink="http://www.w3.org/1999/xlink">
<g id="graph0" class="graph" transform="scale(1 1) rotate(0) translate(4 207)">
<title>dependencies</title>
<polygon fill="white" stroke="transparent" points="-4,4 -4,-207 3915,-207 3915,4 -4,4"/>
<text text-anchor="start" x="1934.51" y="-42.4" font-family="Times-12" font-weight="bold" font-size="14.00">Legend</text>
<polygon fill="#ffffb3" stroke="transparent" points="1721.5,-10 1721.5,-30 1741.5,-30 1741.5,-10 1721.5,-10"/>
<text text-anchor="start" x="1745.13" y="-15.4" font-family="Times-12" font-size="14.00"> &#160;Declarations</text>
<polygon fill="#8dd3c7" stroke="transparent" points="1834.5,-10 1834.5,-30 1854.5,-30 1854.5,-10 1834.5,-10"/>
<text text-anchor="start" x="1858.23" y="-15.4" font-family="Times-12" font-size="14.00"> &#160;Module</text>
<polygon fill="#80b1d3" stroke="transparent" points="1920.5,-10 1920.5,-30 1940.5,-30 1940.5,-10 1920.5,-10"/>
<text text-anchor="start" x="1944.28" y="-15.4" font-family="Times-12" font-size="14.00"> &#160;Bootstrap</text>
<polygon fill="#fdb462" stroke="transparent" points="2017.5,-10 2017.5,-30 2037.5,-30 2037.5,-10 2017.5,-10"/>
<text text-anchor="start" x="2041.17" y="-15.4" font-family="Times-12" font-size="14.00"> &#160;Providers</text>
<polygon fill="#fb8072" stroke="transparent" points="2113.5,-10 2113.5,-30 2133.5,-30 2133.5,-10 2113.5,-10"/>
<text text-anchor="start" x="2137.23" y="-15.4" font-family="Times-12" font-size="14.00"> &#160;Exports</text>
<g id="clust1" class="cluster">
<title>cluster_ToolApiModule</title>
<polygon fill="none" stroke="black" stroke-dasharray="1,5" points="8,-70 8,-195 3903,-195 3903,-70 8,-70"/>
</g>
<g id="clust6" class="cluster">
<title>cluster_ToolApiModule_providers</title>
<polygon fill="none" stroke="black" points="1477,-78 1477,-130 3895,-130 3895,-78 1477,-78"/>
</g>
<g id="clust3" class="cluster">
<title>cluster_ToolApiModule_imports</title>
<polygon fill="none" stroke="black" points="16,-78 16,-130 1469,-130 1469,-78 16,-78"/>
</g>
<!-- AuthorizationModule -->
<g id="node1" class="node">
<title>AuthorizationModule</title>
<polygon fill="#8dd3c7" stroke="black" points="1460.81,-122 1457.81,-126 1436.81,-126 1433.81,-122 1323.19,-122 1323.19,-86 1460.81,-86 1460.81,-122"/>
<text text-anchor="middle" x="1392" y="-99.8" font-family="Times,serif" font-size="14.00">AuthorizationModule</text>
</g>
<!-- ToolApiModule -->
<g id="node12" class="node">
<title>ToolApiModule</title>
<polygon fill="#8dd3c7" stroke="black" points="1531.49,-187 1528.49,-191 1507.49,-191 1504.49,-187 1424.51,-187 1424.51,-151 1531.49,-151 1531.49,-187"/>
<text text-anchor="middle" x="1478" y="-164.8" font-family="Times,serif" font-size="14.00">ToolApiModule</text>
</g>
<!-- AuthorizationModule&#45;&gt;ToolApiModule -->
<g id="edge1" class="edge">
<title>AuthorizationModule&#45;&gt;ToolApiModule</title>
<path fill="none" stroke="black" d="M1442.58,-122.11C1442.58,-122.11 1442.58,-140.99 1442.58,-140.99"/>
<polygon fill="black" stroke="black" points="1439.08,-140.99 1442.58,-150.99 1446.08,-140.99 1439.08,-140.99"/>
</g>
<!-- BoardModule -->
<g id="node2" class="node">
<title>BoardModule</title>
<polygon fill="#8dd3c7" stroke="black" points="1304.76,-122 1301.76,-126 1280.76,-126 1277.76,-122 1211.24,-122 1211.24,-86 1304.76,-86 1304.76,-122"/>
<text text-anchor="middle" x="1258" y="-99.8" font-family="Times,serif" font-size="14.00">BoardModule</text>
</g>
<!-- BoardModule&#45;&gt;ToolApiModule -->
<g id="edge2" class="edge">
<title>BoardModule&#45;&gt;ToolApiModule</title>
<path fill="none" stroke="black" d="M1258,-122.12C1258,-136.78 1258,-155 1258,-155 1258,-155 1414.46,-155 1414.46,-155"/>
<polygon fill="black" stroke="black" points="1414.46,-158.5 1424.46,-155 1414.46,-151.5 1414.46,-158.5"/>
</g>
<!-- CommonToolModule -->
<g id="node3" class="node">
<title>CommonToolModule</title>
<polygon fill="#8dd3c7" stroke="black" points="1193.11,-122 1190.11,-126 1169.11,-126 1166.11,-122 1054.89,-122 1054.89,-86 1193.11,-86 1193.11,-122"/>
<text text-anchor="middle" x="1124" y="-99.8" font-family="Times,serif" font-size="14.00">CommonToolModule</text>
</g>
<!-- CommonToolModule&#45;&gt;ToolApiModule -->
<g id="edge3" class="edge">
<title>CommonToolModule&#45;&gt;ToolApiModule</title>
<path fill="none" stroke="black" d="M1124,-122.28C1124,-137.95 1124,-158 1124,-158 1124,-158 1414.24,-158 1414.24,-158"/>
<polygon fill="black" stroke="black" points="1414.24,-161.5 1424.24,-158 1414.23,-154.5 1414.24,-161.5"/>
</g>
<!-- LearnroomModule -->
<g id="node4" class="node">
<title>LearnroomModule</title>
<polygon fill="#8dd3c7" stroke="black" points="1036.74,-122 1033.74,-126 1012.74,-126 1009.74,-122 915.26,-122 915.26,-86 1036.74,-86 1036.74,-122"/>
<text text-anchor="middle" x="976" y="-99.8" font-family="Times,serif" font-size="14.00">LearnroomModule</text>
</g>
<!-- LearnroomModule&#45;&gt;ToolApiModule -->
<g id="edge4" class="edge">
<title>LearnroomModule&#45;&gt;ToolApiModule</title>
<path fill="none" stroke="black" d="M976,-122.04C976,-138.73 976,-161 976,-161 976,-161 1414.28,-161 1414.28,-161"/>
<polygon fill="black" stroke="black" points="1414.28,-164.5 1424.28,-161 1414.28,-157.5 1414.28,-164.5"/>
</g>
<!-- LegacySchoolModule -->
<g id="node5" class="node">
<title>LegacySchoolModule</title>
<polygon fill="#8dd3c7" stroke="black" points="896.63,-122 893.63,-126 872.63,-126 869.63,-122 757.37,-122 757.37,-86 896.63,-86 896.63,-122"/>
<text text-anchor="middle" x="827" y="-99.8" font-family="Times,serif" font-size="14.00">LegacySchoolModule</text>
</g>
<!-- LegacySchoolModule&#45;&gt;ToolApiModule -->
<g id="edge5" class="edge">
<title>LegacySchoolModule&#45;&gt;ToolApiModule</title>
<path fill="none" stroke="black" d="M827,-122.3C827,-140.27 827,-165 827,-165 827,-165 1414.45,-165 1414.45,-165"/>
<polygon fill="black" stroke="black" points="1414.45,-168.5 1424.45,-165 1414.45,-161.5 1414.45,-168.5"/>
</g>
<!-- LoggerModule -->
<g id="node6" class="node">
<title>LoggerModule</title>
<polygon fill="#8dd3c7" stroke="black" points="738.98,-122 735.98,-126 714.98,-126 711.98,-122 639.02,-122 639.02,-86 738.98,-86 738.98,-122"/>
<text text-anchor="middle" x="689" y="-99.8" font-family="Times,serif" font-size="14.00">LoggerModule</text>
</g>
<!-- LoggerModule&#45;&gt;ToolApiModule -->
<g id="edge6" class="edge">
<title>LoggerModule&#45;&gt;ToolApiModule</title>
<path fill="none" stroke="black" d="M689,-122.17C689,-141.09 689,-168 689,-168 689,-168 1414.39,-168 1414.39,-168"/>
<polygon fill="black" stroke="black" points="1414.39,-171.5 1424.39,-168 1414.39,-164.5 1414.39,-171.5"/>
</g>
<!-- SchoolModule -->
<g id="node7" class="node">
<title>SchoolModule</title>
<polygon fill="#8dd3c7" stroke="black" points="621.44,-122 618.44,-126 597.44,-126 594.44,-122 522.56,-122 522.56,-86 621.44,-86 621.44,-122"/>
<text text-anchor="middle" x="572" y="-99.8" font-family="Times,serif" font-size="14.00">SchoolModule</text>
</g>
<!-- SchoolModule&#45;&gt;ToolApiModule -->
<g id="edge7" class="edge">
<title>SchoolModule&#45;&gt;ToolApiModule</title>
<path fill="none" stroke="black" d="M572,-122.31C572,-142.15 572,-171 572,-171 572,-171 1414.37,-171 1414.37,-171"/>
<polygon fill="black" stroke="black" points="1414.37,-174.5 1424.37,-171 1414.37,-167.5 1414.37,-174.5"/>
</g>
<!-- ToolConfigModule -->
<g id="node8" class="node">
<title>ToolConfigModule</title>
<polygon fill="#8dd3c7" stroke="black" points="504.38,-122 501.38,-126 480.38,-126 477.38,-122 379.62,-122 379.62,-86 504.38,-86 504.38,-122"/>
<text text-anchor="middle" x="442" y="-99.8" font-family="Times,serif" font-size="14.00">ToolConfigModule</text>
</g>
<!-- ToolConfigModule&#45;&gt;ToolApiModule -->
<g id="edge8" class="edge">
<title>ToolConfigModule&#45;&gt;ToolApiModule</title>
<path fill="none" stroke="black" d="M442,-122.03C442,-142.77 442,-174 442,-174 442,-174 1414.48,-174 1414.48,-174"/>
<polygon fill="black" stroke="black" points="1414.48,-177.5 1424.48,-174 1414.48,-170.5 1414.48,-177.5"/>
</g>
<!-- ToolModule -->
<g id="node9" class="node">
<title>ToolModule</title>
<polygon fill="#8dd3c7" stroke="black" points="361.99,-122 358.99,-126 337.99,-126 334.99,-122 276.01,-122 276.01,-86 361.99,-86 361.99,-122"/>
<text text-anchor="middle" x="319" y="-99.8" font-family="Times,serif" font-size="14.00">ToolModule</text>
</g>
<!-- ToolModule&#45;&gt;ToolApiModule -->
<g id="edge9" class="edge">
<title>ToolModule&#45;&gt;ToolApiModule</title>
<path fill="none" stroke="black" d="M319,-122.29C319,-144.21 319,-178 319,-178 319,-178 1414.42,-178 1414.42,-178"/>
<polygon fill="black" stroke="black" points="1414.42,-181.5 1424.42,-178 1414.42,-174.5 1414.42,-181.5"/>
</g>
<!-- UserLicenseModule -->
<g id="node10" class="node">
<title>UserLicenseModule</title>
<polygon fill="#8dd3c7" stroke="black" points="257.51,-122 254.51,-126 233.51,-126 230.51,-122 128.49,-122 128.49,-86 257.51,-86 257.51,-122"/>
<text text-anchor="middle" x="193" y="-99.8" font-family="Times,serif" font-size="14.00">UserLicenseModule</text>
</g>
<!-- UserLicenseModule&#45;&gt;ToolApiModule -->
<g id="edge10" class="edge">
<title>UserLicenseModule&#45;&gt;ToolApiModule</title>
<path fill="none" stroke="black" d="M193,-122.25C193,-145.02 193,-181 193,-181 193,-181 1414.42,-181 1414.42,-181"/>
<polygon fill="black" stroke="black" points="1414.42,-184.5 1424.42,-181 1414.42,-177.5 1414.42,-184.5"/>
</g>
<!-- UserModule -->
<g id="node11" class="node">
<title>UserModule</title>
<polygon fill="#8dd3c7" stroke="black" points="109.98,-122 106.98,-126 85.98,-126 82.98,-122 24.02,-122 24.02,-86 109.98,-86 109.98,-122"/>
<text text-anchor="middle" x="67" y="-99.8" font-family="Times,serif" font-size="14.00">UserModule</text>
</g>
<!-- UserModule&#45;&gt;ToolApiModule -->
<g id="edge11" class="edge">
<title>UserModule&#45;&gt;ToolApiModule</title>
<path fill="none" stroke="black" d="M67,-122.15C67,-145.76 67,-184 67,-184 67,-184 1414.41,-184 1414.41,-184"/>
<polygon fill="black" stroke="black" points="1414.41,-187.5 1424.41,-184 1414.41,-180.5 1414.41,-187.5"/>
</g>
<!-- ContextExternalToolUc -->
<g id="node13" class="node">
<title>ContextExternalToolUc</title>
<ellipse fill="#fdb462" stroke="black" cx="3783" cy="-104" rx="103.65" ry="18"/>
<text text-anchor="middle" x="3783" y="-99.8" font-family="Times,serif" font-size="14.00">ContextExternalToolUc</text>
</g>
<!-- ContextExternalToolUc&#45;&gt;ToolApiModule -->
<g id="edge12" class="edge">
<title>ContextExternalToolUc&#45;&gt;ToolApiModule</title>
<path fill="none" stroke="black" d="M3783,-122.15C3783,-145.76 3783,-184 3783,-184 3783,-184 1541.58,-184 1541.58,-184"/>
<polygon fill="black" stroke="black" points="1541.58,-180.5 1531.58,-184 1541.58,-187.5 1541.58,-180.5"/>
</g>
<!-- ExternalToolConfigurationService -->
<g id="node14" class="node">
<title>ExternalToolConfigurationService</title>
<ellipse fill="#fdb462" stroke="black" cx="3516" cy="-104" rx="145.24" ry="18"/>
<text text-anchor="middle" x="3516" y="-99.8" font-family="Times,serif" font-size="14.00">ExternalToolConfigurationService</text>
</g>
<!-- ExternalToolConfigurationService&#45;&gt;ToolApiModule -->
<g id="edge13" class="edge">
<title>ExternalToolConfigurationService&#45;&gt;ToolApiModule</title>
<path fill="none" stroke="black" d="M3516,-122.25C3516,-145.02 3516,-181 3516,-181 3516,-181 1541.73,-181 1541.73,-181"/>
<polygon fill="black" stroke="black" points="1541.73,-177.5 1531.73,-181 1541.72,-184.5 1541.73,-177.5"/>
</g>
<!-- ExternalToolConfigurationUc -->
<g id="node15" class="node">
<title>ExternalToolConfigurationUc</title>
<ellipse fill="#fdb462" stroke="black" cx="3225" cy="-104" rx="127.35" ry="18"/>
<text text-anchor="middle" x="3225" y="-99.8" font-family="Times,serif" font-size="14.00">ExternalToolConfigurationUc</text>
</g>
<!-- ExternalToolConfigurationUc&#45;&gt;ToolApiModule -->
<g id="edge14" class="edge">
<title>ExternalToolConfigurationUc&#45;&gt;ToolApiModule</title>
<path fill="none" stroke="black" d="M3225,-122.29C3225,-144.21 3225,-178 3225,-178 3225,-178 1541.72,-178 1541.72,-178"/>
<polygon fill="black" stroke="black" points="1541.72,-174.5 1531.72,-178 1541.72,-181.5 1541.72,-174.5"/>
</g>
<!-- ExternalToolRequestMapper -->
<g id="node16" class="node">
<title>ExternalToolRequestMapper</title>
<ellipse fill="#fdb462" stroke="black" cx="2956" cy="-104" rx="123.26" ry="18"/>
<text text-anchor="middle" x="2956" y="-99.8" font-family="Times,serif" font-size="14.00">ExternalToolRequestMapper</text>
</g>
<!-- ExternalToolRequestMapper&#45;&gt;ToolApiModule -->
<g id="edge15" class="edge">
<title>ExternalToolRequestMapper&#45;&gt;ToolApiModule</title>
<path fill="none" stroke="black" d="M2956,-122.03C2956,-142.77 2956,-174 2956,-174 2956,-174 1541.92,-174 1541.92,-174"/>
<polygon fill="black" stroke="black" points="1541.92,-170.5 1531.92,-174 1541.91,-177.5 1541.92,-170.5"/>
</g>
<!-- ExternalToolResponseMapper -->
<g id="node17" class="node">
<title>ExternalToolResponseMapper</title>
<ellipse fill="#fdb462" stroke="black" cx="2686" cy="-104" rx="129.06" ry="18"/>
<text text-anchor="middle" x="2686" y="-99.8" font-family="Times,serif" font-size="14.00">ExternalToolResponseMapper</text>
</g>
<!-- ExternalToolResponseMapper&#45;&gt;ToolApiModule -->
<g id="edge16" class="edge">
<title>ExternalToolResponseMapper&#45;&gt;ToolApiModule</title>
<path fill="none" stroke="black" d="M2686,-122.31C2686,-142.15 2686,-171 2686,-171 2686,-171 1541.86,-171 1541.86,-171"/>
<polygon fill="black" stroke="black" points="1541.86,-167.5 1531.86,-171 1541.86,-174.5 1541.86,-167.5"/>
</g>
<!-- ExternalToolUc -->
<g id="node18" class="node">
<title>ExternalToolUc</title>
<ellipse fill="#fdb462" stroke="black" cx="2466" cy="-104" rx="73.49" ry="18"/>
<text text-anchor="middle" x="2466" y="-99.8" font-family="Times,serif" font-size="14.00">ExternalToolUc</text>
</g>
<!-- ExternalToolUc&#45;&gt;ToolApiModule -->
<g id="edge17" class="edge">
<title>ExternalToolUc&#45;&gt;ToolApiModule</title>
<path fill="none" stroke="black" d="M2466,-122.17C2466,-141.09 2466,-168 2466,-168 2466,-168 1541.82,-168 1541.82,-168"/>
<polygon fill="black" stroke="black" points="1541.82,-164.5 1531.82,-168 1541.82,-171.5 1541.82,-164.5"/>
</g>
<!-- LtiToolRepo -->
<g id="node19" class="node">
<title>LtiToolRepo</title>
<ellipse fill="#fdb462" stroke="black" cx="2314" cy="-104" rx="60.85" ry="18"/>
<text text-anchor="middle" x="2314" y="-99.8" font-family="Times,serif" font-size="14.00">LtiToolRepo</text>
</g>
<!-- LtiToolRepo&#45;&gt;ToolApiModule -->
<g id="edge18" class="edge">
<title>LtiToolRepo&#45;&gt;ToolApiModule</title>
<path fill="none" stroke="black" d="M2314,-122.3C2314,-140.27 2314,-165 2314,-165 2314,-165 1541.57,-165 1541.57,-165"/>
<polygon fill="black" stroke="black" points="1541.57,-161.5 1531.57,-165 1541.57,-168.5 1541.57,-161.5"/>
</g>
<!-- SchoolExternalToolUc -->
<g id="node20" class="node">
<title>SchoolExternalToolUc</title>
<ellipse fill="#fdb462" stroke="black" cx="2135" cy="-104" rx="100.14" ry="18"/>
<text text-anchor="middle" x="2135" y="-99.8" font-family="Times,serif" font-size="14.00">SchoolExternalToolUc</text>
</g>
<!-- SchoolExternalToolUc&#45;&gt;ToolApiModule -->
<g id="edge19" class="edge">
<title>SchoolExternalToolUc&#45;&gt;ToolApiModule</title>
<path fill="none" stroke="black" d="M2135,-122.04C2135,-138.73 2135,-161 2135,-161 2135,-161 1541.77,-161 1541.77,-161"/>
<polygon fill="black" stroke="black" points="1541.77,-157.5 1531.77,-161 1541.77,-164.5 1541.77,-157.5"/>
</g>
<!-- ToolLaunchUc -->
<g id="node21" class="node">
<title>ToolLaunchUc</title>
<ellipse fill="#fdb462" stroke="black" cx="1947" cy="-104" rx="69.49" ry="18"/>
<text text-anchor="middle" x="1947" y="-99.8" font-family="Times,serif" font-size="14.00">ToolLaunchUc</text>
</g>
<!-- ToolLaunchUc&#45;&gt;ToolApiModule -->
<g id="edge20" class="edge">
<title>ToolLaunchUc&#45;&gt;ToolApiModule</title>
<path fill="none" stroke="black" d="M1947,-122.28C1947,-137.95 1947,-158 1947,-158 1947,-158 1541.8,-158 1541.8,-158"/>
<polygon fill="black" stroke="black" points="1541.8,-154.5 1531.8,-158 1541.8,-161.5 1541.8,-154.5"/>
</g>
<!-- ToolPermissionHelper -->
<g id="node22" class="node">
<title>ToolPermissionHelper</title>
<ellipse fill="#fdb462" stroke="black" cx="1761" cy="-104" rx="98.43" ry="18"/>
<text text-anchor="middle" x="1761" y="-99.8" font-family="Times,serif" font-size="14.00">ToolPermissionHelper</text>
</g>
<!-- ToolPermissionHelper&#45;&gt;ToolApiModule -->
<g id="edge21" class="edge">
<title>ToolPermissionHelper&#45;&gt;ToolApiModule</title>
<path fill="none" stroke="black" d="M1761,-122.12C1761,-136.78 1761,-155 1761,-155 1761,-155 1541.56,-155 1541.56,-155"/>
<polygon fill="black" stroke="black" points="1541.56,-151.5 1531.56,-155 1541.56,-158.5 1541.56,-151.5"/>
</g>
<!-- ToolReferenceUc -->
<g id="node23" class="node">
<title>ToolReferenceUc</title>
<ellipse fill="#fdb462" stroke="black" cx="1565" cy="-104" rx="79.83" ry="18"/>
<text text-anchor="middle" x="1565" y="-99.8" font-family="Times,serif" font-size="14.00">ToolReferenceUc</text>
</g>
<!-- ToolReferenceUc&#45;&gt;ToolApiModule -->
<g id="edge22" class="edge">
<title>ToolReferenceUc&#45;&gt;ToolApiModule</title>
<path fill="none" stroke="black" d="M1508.41,-116.84C1508.41,-116.84 1508.41,-140.52 1508.41,-140.52"/>
<polygon fill="black" stroke="black" points="1504.91,-140.52 1508.41,-150.52 1511.91,-140.52 1504.91,-140.52"/>
</g>
</g>
</svg>
