<?xml version="1.0" encoding="UTF-8" standalone="no"?>
<!DOCTYPE svg PUBLIC "-//W3C//DTD SVG 1.1//EN"
 "http://www.w3.org/Graphics/SVG/1.1/DTD/svg11.dtd">
<!-- Generated by graphviz version 2.47.0 (20210316.0004)
 -->
<!-- Title: dependencies Pages: 1 -->
<svg width="3329pt" height="211pt"
 viewBox="0.00 0.00 3329.00 211.00" xmlns="http://www.w3.org/2000/svg" xmlns:xlink="http://www.w3.org/1999/xlink">
<g id="graph0" class="graph" transform="scale(1 1) rotate(0) translate(4 207)">
<title>dependencies</title>
<polygon fill="white" stroke="transparent" points="-4,4 -4,-207 3325,-207 3325,4 -4,4"/>
<text text-anchor="start" x="1639.51" y="-42.4" font-family="Times-12" font-weight="bold" font-size="14.00">Legend</text>
<polygon fill="#ffffb3" stroke="transparent" points="1426.5,-10 1426.5,-30 1446.5,-30 1446.5,-10 1426.5,-10"/>
<text text-anchor="start" x="1450.13" y="-15.4" font-family="Times-12" font-size="14.00"> &#160;Declarations</text>
<polygon fill="#8dd3c7" stroke="transparent" points="1539.5,-10 1539.5,-30 1559.5,-30 1559.5,-10 1539.5,-10"/>
<text text-anchor="start" x="1563.23" y="-15.4" font-family="Times-12" font-size="14.00"> &#160;Module</text>
<polygon fill="#80b1d3" stroke="transparent" points="1625.5,-10 1625.5,-30 1645.5,-30 1645.5,-10 1625.5,-10"/>
<text text-anchor="start" x="1649.28" y="-15.4" font-family="Times-12" font-size="14.00"> &#160;Bootstrap</text>
<polygon fill="#fdb462" stroke="transparent" points="1722.5,-10 1722.5,-30 1742.5,-30 1742.5,-10 1722.5,-10"/>
<text text-anchor="start" x="1746.17" y="-15.4" font-family="Times-12" font-size="14.00"> &#160;Providers</text>
<polygon fill="#fb8072" stroke="transparent" points="1818.5,-10 1818.5,-30 1838.5,-30 1838.5,-10 1818.5,-10"/>
<text text-anchor="start" x="1842.23" y="-15.4" font-family="Times-12" font-size="14.00"> &#160;Exports</text>
<g id="clust1" class="cluster">
<title>cluster_ToolApiModule</title>
<polygon fill="none" stroke="black" stroke-dasharray="1,5" points="8,-70 8,-195 3313,-195 3313,-70 8,-70"/>
</g>
<g id="clust6" class="cluster">
<title>cluster_ToolApiModule_providers</title>
<polygon fill="none" stroke="black" points="763,-78 763,-130 3305,-130 3305,-78 763,-78"/>
</g>
<g id="clust3" class="cluster">
<title>cluster_ToolApiModule_imports</title>
<polygon fill="none" stroke="black" points="16,-78 16,-130 755,-130 755,-78 16,-78"/>
</g>
<!-- AuthorizationModule -->
<g id="node1" class="node">
<title>AuthorizationModule</title>
<polygon fill="#8dd3c7" stroke="black" points="746.81,-122 743.81,-126 722.81,-126 719.81,-122 609.19,-122 609.19,-86 746.81,-86 746.81,-122"/>
<text text-anchor="middle" x="678" y="-99.8" font-family="Times,serif" font-size="14.00">AuthorizationModule</text>
</g>
<!-- ToolApiModule -->
<g id="node7" class="node">
<title>ToolApiModule</title>
<polygon fill="#8dd3c7" stroke="black" points="1259.49,-187 1256.49,-191 1235.49,-191 1232.49,-187 1152.51,-187 1152.51,-151 1259.49,-151 1259.49,-187"/>
<text text-anchor="middle" x="1206" y="-164.8" font-family="Times,serif" font-size="14.00">ToolApiModule</text>
</g>
<!-- AuthorizationModule&#45;&gt;ToolApiModule -->
<g id="edge1" class="edge">
<title>AuthorizationModule&#45;&gt;ToolApiModule</title>
<path fill="none" stroke="black" d="M678,-122.02C678,-139.37 678,-163 678,-163 678,-163 1142.47,-163 1142.47,-163"/>
<polygon fill="black" stroke="black" points="1142.47,-166.5 1152.47,-163 1142.47,-159.5 1142.47,-166.5"/>
</g>
<!-- LoggerModule -->
<g id="node2" class="node">
<title>LoggerModule</title>
<polygon fill="#8dd3c7" stroke="black" points="590.98,-122 587.98,-126 566.98,-126 563.98,-122 491.02,-122 491.02,-86 590.98,-86 590.98,-122"/>
<text text-anchor="middle" x="541" y="-99.8" font-family="Times,serif" font-size="14.00">LoggerModule</text>
</g>
<!-- LoggerModule&#45;&gt;ToolApiModule -->
<g id="edge2" class="edge">
<title>LoggerModule&#45;&gt;ToolApiModule</title>
<path fill="none" stroke="black" d="M541,-122.22C541,-140.83 541,-167 541,-167 541,-167 1142.42,-167 1142.42,-167"/>
<polygon fill="black" stroke="black" points="1142.42,-170.5 1152.42,-167 1142.42,-163.5 1142.42,-170.5"/>
</g>
<!-- SchoolModule -->
<g id="node3" class="node">
<title>SchoolModule</title>
<polygon fill="#8dd3c7" stroke="black" points="473.44,-122 470.44,-126 449.44,-126 446.44,-122 374.56,-122 374.56,-86 473.44,-86 473.44,-122"/>
<text text-anchor="middle" x="424" y="-99.8" font-family="Times,serif" font-size="14.00">SchoolModule</text>
</g>
<!-- SchoolModule&#45;&gt;ToolApiModule -->
<g id="edge3" class="edge">
<title>SchoolModule&#45;&gt;ToolApiModule</title>
<path fill="none" stroke="black" d="M424,-122.31C424,-142.15 424,-171 424,-171 424,-171 1142.25,-171 1142.25,-171"/>
<polygon fill="black" stroke="black" points="1142.25,-174.5 1152.25,-171 1142.25,-167.5 1142.25,-174.5"/>
</g>
<!-- ToolConfigModule -->
<g id="node4" class="node">
<title>ToolConfigModule</title>
<polygon fill="#8dd3c7" stroke="black" points="356.38,-122 353.38,-126 332.38,-126 329.38,-122 231.62,-122 231.62,-86 356.38,-86 356.38,-122"/>
<text text-anchor="middle" x="294" y="-99.8" font-family="Times,serif" font-size="14.00">ToolConfigModule</text>
</g>
<!-- ToolConfigModule&#45;&gt;ToolApiModule -->
<g id="edge4" class="edge">
<title>ToolConfigModule&#45;&gt;ToolApiModule</title>
<path fill="none" stroke="black" d="M294,-122.28C294,-143.32 294,-175 294,-175 294,-175 1142.36,-175 1142.36,-175"/>
<polygon fill="black" stroke="black" points="1142.36,-178.5 1152.36,-175 1142.36,-171.5 1142.36,-178.5"/>
</g>
<!-- ToolModule -->
<g id="node5" class="node">
<title>ToolModule</title>
<polygon fill="#8dd3c7" stroke="black" points="213.99,-122 210.99,-126 189.99,-126 186.99,-122 128.01,-122 128.01,-86 213.99,-86 213.99,-122"/>
<text text-anchor="middle" x="171" y="-99.8" font-family="Times,serif" font-size="14.00">ToolModule</text>
</g>
<!-- ToolModule&#45;&gt;ToolApiModule -->
<g id="edge5" class="edge">
<title>ToolModule&#45;&gt;ToolApiModule</title>
<path fill="none" stroke="black" d="M171,-122.16C171,-144.35 171,-179 171,-179 171,-179 1142.17,-179 1142.17,-179"/>
<polygon fill="black" stroke="black" points="1142.17,-182.5 1152.17,-179 1142.17,-175.5 1142.17,-182.5"/>
</g>
<!-- UserModule -->
<g id="node6" class="node">
<title>UserModule</title>
<polygon fill="#8dd3c7" stroke="black" points="109.98,-122 106.98,-126 85.98,-126 82.98,-122 24.02,-122 24.02,-86 109.98,-86 109.98,-122"/>
<text text-anchor="middle" x="67" y="-99.8" font-family="Times,serif" font-size="14.00">UserModule</text>
</g>
<!-- UserModule&#45;&gt;ToolApiModule -->
<g id="edge6" class="edge">
<title>UserModule&#45;&gt;ToolApiModule</title>
<path fill="none" stroke="black" d="M67,-122.32C67,-145.66 67,-183 67,-183 67,-183 1142.21,-183 1142.21,-183"/>
<polygon fill="black" stroke="black" points="1142.21,-186.5 1152.21,-183 1142.21,-179.5 1142.21,-186.5"/>
</g>
<!-- ContextExternalToolUc -->
<g id="node8" class="node">
<title>ContextExternalToolUc</title>
<ellipse fill="#fdb462" stroke="black" cx="3193" cy="-104" rx="103.65" ry="18"/>
<text text-anchor="middle" x="3193" y="-99.8" font-family="Times,serif" font-size="14.00">ContextExternalToolUc</text>
</g>
<!-- ContextExternalToolUc&#45;&gt;ToolApiModule -->
<g id="edge7" class="edge">
<title>ContextExternalToolUc&#45;&gt;ToolApiModule</title>
<path fill="none" stroke="black" d="M3193,-122.32C3193,-145.66 3193,-183 3193,-183 3193,-183 1269.66,-183 1269.66,-183"/>
<polygon fill="black" stroke="black" points="1269.66,-179.5 1259.66,-183 1269.66,-186.5 1269.66,-179.5"/>
</g>
<!-- ExternalToolConfigurationUc -->
<g id="node9" class="node">
<title>ExternalToolConfigurationUc</title>
<ellipse fill="#fdb462" stroke="black" cx="2944" cy="-104" rx="127.35" ry="18"/>
<text text-anchor="middle" x="2944" y="-99.8" font-family="Times,serif" font-size="14.00">ExternalToolConfigurationUc</text>
</g>
<!-- ExternalToolConfigurationUc&#45;&gt;ToolApiModule -->
<g id="edge8" class="edge">
<title>ExternalToolConfigurationUc&#45;&gt;ToolApiModule</title>
<path fill="none" stroke="black" d="M2944,-122.16C2944,-144.35 2944,-179 2944,-179 2944,-179 1269.92,-179 1269.92,-179"/>
<polygon fill="black" stroke="black" points="1269.92,-175.5 1259.92,-179 1269.92,-182.5 1269.92,-175.5"/>
</g>
<!-- ExternalToolRequestMapper -->
<g id="node10" class="node">
<title>ExternalToolRequestMapper</title>
<ellipse fill="#fdb462" stroke="black" cx="2675" cy="-104" rx="123.26" ry="18"/>
<text text-anchor="middle" x="2675" y="-99.8" font-family="Times,serif" font-size="14.00">ExternalToolRequestMapper</text>
</g>
<!-- ExternalToolRequestMapper&#45;&gt;ToolApiModule -->
<g id="edge9" class="edge">
<title>ExternalToolRequestMapper&#45;&gt;ToolApiModule</title>
<path fill="none" stroke="black" d="M2675,-122.28C2675,-143.32 2675,-175 2675,-175 2675,-175 1269.59,-175 1269.59,-175"/>
<polygon fill="black" stroke="black" points="1269.59,-171.5 1259.59,-175 1269.59,-178.5 1269.59,-171.5"/>
</g>
<!-- ExternalToolResponseMapper -->
<g id="node11" class="node">
<title>ExternalToolResponseMapper</title>
<ellipse fill="#fdb462" stroke="black" cx="2405" cy="-104" rx="129.06" ry="18"/>
<text text-anchor="middle" x="2405" y="-99.8" font-family="Times,serif" font-size="14.00">ExternalToolResponseMapper</text>
</g>
<!-- ExternalToolResponseMapper&#45;&gt;ToolApiModule -->
<g id="edge10" class="edge">
<title>ExternalToolResponseMapper&#45;&gt;ToolApiModule</title>
<path fill="none" stroke="black" d="M2405,-122.31C2405,-142.15 2405,-171 2405,-171 2405,-171 1269.85,-171 1269.85,-171"/>
<polygon fill="black" stroke="black" points="1269.85,-167.5 1259.85,-171 1269.85,-174.5 1269.85,-167.5"/>
</g>
<!-- ExternalToolUc -->
<g id="node12" class="node">
<title>ExternalToolUc</title>
<ellipse fill="#fdb462" stroke="black" cx="2185" cy="-104" rx="73.49" ry="18"/>
<text text-anchor="middle" x="2185" y="-99.8" font-family="Times,serif" font-size="14.00">ExternalToolUc</text>
</g>
<!-- ExternalToolUc&#45;&gt;ToolApiModule -->
<g id="edge11" class="edge">
<title>ExternalToolUc&#45;&gt;ToolApiModule</title>
<path fill="none" stroke="black" d="M2185,-122.22C2185,-140.83 2185,-167 2185,-167 2185,-167 1269.68,-167 1269.68,-167"/>
<polygon fill="black" stroke="black" points="1269.68,-163.5 1259.68,-167 1269.68,-170.5 1269.68,-163.5"/>
</g>
<!-- LtiToolRepo -->
<g id="node13" class="node">
<title>LtiToolRepo</title>
<ellipse fill="#fdb462" stroke="black" cx="2033" cy="-104" rx="60.85" ry="18"/>
<text text-anchor="middle" x="2033" y="-99.8" font-family="Times,serif" font-size="14.00">LtiToolRepo</text>
</g>
<!-- LtiToolRepo&#45;&gt;ToolApiModule -->
<g id="edge12" class="edge">
<title>LtiToolRepo&#45;&gt;ToolApiModule</title>
<path fill="none" stroke="black" d="M2033,-122.02C2033,-139.37 2033,-163 2033,-163 2033,-163 1269.62,-163 1269.62,-163"/>
<polygon fill="black" stroke="black" points="1269.62,-159.5 1259.62,-163 1269.62,-166.5 1269.62,-159.5"/>
</g>
<!-- SchoolExternalToolRequestMapper -->
<g id="node14" class="node">
<title>SchoolExternalToolRequestMapper</title>
<ellipse fill="#fdb462" stroke="black" cx="1804" cy="-104" rx="149.9" ry="18"/>
<text text-anchor="middle" x="1804" y="-99.8" font-family="Times,serif" font-size="14.00">SchoolExternalToolRequestMapper</text>
</g>
<!-- SchoolExternalToolRequestMapper&#45;&gt;ToolApiModule -->
<g id="edge13" class="edge">
<title>SchoolExternalToolRequestMapper&#45;&gt;ToolApiModule</title>
<path fill="none" stroke="black" d="M1804,-122.01C1804,-138.05 1804,-159 1804,-159 1804,-159 1269.59,-159 1269.59,-159"/>
<polygon fill="black" stroke="black" points="1269.59,-155.5 1259.59,-159 1269.59,-162.5 1269.59,-155.5"/>
</g>
<!-- SchoolExternalToolResponseMapper -->
<g id="node15" class="node">
<title>SchoolExternalToolResponseMapper</title>
<ellipse fill="#fdb462" stroke="black" cx="1480" cy="-104" rx="155.7" ry="18"/>
<text text-anchor="middle" x="1480" y="-99.8" font-family="Times,serif" font-size="14.00">SchoolExternalToolResponseMapper</text>
</g>
<!-- SchoolExternalToolResponseMapper&#45;&gt;ToolApiModule -->
<g id="edge14" class="edge">
<title>SchoolExternalToolResponseMapper&#45;&gt;ToolApiModule</title>
<path fill="none" stroke="black" d="M1480,-122.12C1480,-136.78 1480,-155 1480,-155 1480,-155 1269.81,-155 1269.81,-155"/>
<polygon fill="black" stroke="black" points="1269.81,-151.5 1259.81,-155 1269.81,-158.5 1269.81,-151.5"/>
</g>
<!-- SchoolExternalToolUc -->
<g id="node16" class="node">
<title>SchoolExternalToolUc</title>
<ellipse fill="#fdb462" stroke="black" cx="1206" cy="-104" rx="100.14" ry="18"/>
<text text-anchor="middle" x="1206" y="-99.8" font-family="Times,serif" font-size="14.00">SchoolExternalToolUc</text>
</g>
<!-- SchoolExternalToolUc&#45;&gt;ToolApiModule -->
<g id="edge15" class="edge">
<title>SchoolExternalToolUc&#45;&gt;ToolApiModule</title>
<path fill="none" stroke="black" d="M1206,-122.11C1206,-122.11 1206,-140.99 1206,-140.99"/>
<polygon fill="black" stroke="black" points="1202.5,-140.99 1206,-150.99 1209.5,-140.99 1202.5,-140.99"/>
</g>
<!-- ToolLaunchUc -->
<g id="node17" class="node">
<title>ToolLaunchUc</title>
<ellipse fill="#fdb462" stroke="black" cx="1018" cy="-104" rx="69.49" ry="18"/>
<text text-anchor="middle" x="1018" y="-99.8" font-family="Times,serif" font-size="14.00">ToolLaunchUc</text>
</g>
<!-- ToolLaunchUc&#45;&gt;ToolApiModule -->
<g id="edge16" class="edge">
<title>ToolLaunchUc&#45;&gt;ToolApiModule</title>
<path fill="none" stroke="black" d="M1018,-122.12C1018,-136.78 1018,-155 1018,-155 1018,-155 1142.38,-155 1142.38,-155"/>
<polygon fill="black" stroke="black" points="1142.38,-158.5 1152.38,-155 1142.38,-151.5 1142.38,-158.5"/>
</g>
<!-- ToolReferenceUc -->
<g id="node18" class="node">
<title>ToolReferenceUc</title>
<ellipse fill="#fdb462" stroke="black" cx="851" cy="-104" rx="79.83" ry="18"/>
<text text-anchor="middle" x="851" y="-99.8" font-family="Times,serif" font-size="14.00">ToolReferenceUc</text>
</g>
<!-- ToolReferenceUc&#45;&gt;ToolApiModule -->
<g id="edge17" class="edge">
<title>ToolReferenceUc&#45;&gt;ToolApiModule</title>
<path fill="none" stroke="black" d="M851,-122.01C851,-138.05 851,-159 851,-159 851,-159 1142.47,-159 1142.47,-159"/>
<polygon fill="black" stroke="black" points="1142.47,-162.5 1152.47,-159 1142.47,-155.5 1142.47,-162.5"/>
</g>
</g>
</svg>
