<?xml version="1.0" encoding="UTF-8" standalone="no"?>
<!DOCTYPE svg PUBLIC "-//W3C//DTD SVG 1.1//EN"
 "http://www.w3.org/Graphics/SVG/1.1/DTD/svg11.dtd">
<!-- Generated by graphviz version 2.47.0 (20210316.0004)
 -->
<!-- Title: dependencies Pages: 1 -->
<svg width="3008pt" height="211pt"
 viewBox="0.00 0.00 3008.00 211.00" xmlns="http://www.w3.org/2000/svg" xmlns:xlink="http://www.w3.org/1999/xlink">
<g id="graph0" class="graph" transform="scale(1 1) rotate(0) translate(4 207)">
<title>dependencies</title>
<polygon fill="white" stroke="transparent" points="-4,4 -4,-207 3004,-207 3004,4 -4,4"/>
<text text-anchor="start" x="1479.01" y="-42.4" font-family="Times-12" font-weight="bold" font-size="14.00">Legend</text>
<polygon fill="#ffffb3" stroke="transparent" points="1266,-10 1266,-30 1286,-30 1286,-10 1266,-10"/>
<text text-anchor="start" x="1289.63" y="-15.4" font-family="Times-12" font-size="14.00"> &#160;Declarations</text>
<polygon fill="#8dd3c7" stroke="transparent" points="1379,-10 1379,-30 1399,-30 1399,-10 1379,-10"/>
<text text-anchor="start" x="1402.73" y="-15.4" font-family="Times-12" font-size="14.00"> &#160;Module</text>
<polygon fill="#80b1d3" stroke="transparent" points="1465,-10 1465,-30 1485,-30 1485,-10 1465,-10"/>
<text text-anchor="start" x="1488.78" y="-15.4" font-family="Times-12" font-size="14.00"> &#160;Bootstrap</text>
<polygon fill="#fdb462" stroke="transparent" points="1562,-10 1562,-30 1582,-30 1582,-10 1562,-10"/>
<text text-anchor="start" x="1585.67" y="-15.4" font-family="Times-12" font-size="14.00"> &#160;Providers</text>
<polygon fill="#fb8072" stroke="transparent" points="1658,-10 1658,-30 1678,-30 1678,-10 1658,-10"/>
<text text-anchor="start" x="1681.73" y="-15.4" font-family="Times-12" font-size="14.00"> &#160;Exports</text>
<g id="clust1" class="cluster">
<title>cluster_ToolApiModule</title>
<polygon fill="none" stroke="black" stroke-dasharray="1,5" points="8,-70 8,-195 2992,-195 2992,-70 8,-70"/>
</g>
<g id="clust6" class="cluster">
<title>cluster_ToolApiModule_providers</title>
<polygon fill="none" stroke="black" points="620,-78 620,-130 2984,-130 2984,-78 620,-78"/>
</g>
<g id="clust3" class="cluster">
<title>cluster_ToolApiModule_imports</title>
<polygon fill="none" stroke="black" points="16,-78 16,-130 612,-130 612,-78 16,-78"/>
</g>
<!-- AuthorizationModule -->
<g id="node1" class="node">
<title>AuthorizationModule</title>
<polygon fill="#8dd3c7" stroke="black" points="603.81,-122 600.81,-126 579.81,-126 576.81,-122 466.19,-122 466.19,-86 603.81,-86 603.81,-122"/>
<text text-anchor="middle" x="535" y="-99.8" font-family="Times,serif" font-size="14.00">AuthorizationModule</text>
</g>
<!-- ToolApiModule -->
<g id="node6" class="node">
<title>ToolApiModule</title>
<polygon fill="#8dd3c7" stroke="black" points="1212.49,-187 1209.49,-191 1188.49,-191 1185.49,-187 1105.51,-187 1105.51,-151 1212.49,-151 1212.49,-187"/>
<text text-anchor="middle" x="1159" y="-164.8" font-family="Times,serif" font-size="14.00">ToolApiModule</text>
</g>
<!-- AuthorizationModule&#45;&gt;ToolApiModule -->
<g id="edge1" class="edge">
<title>AuthorizationModule&#45;&gt;ToolApiModule</title>
<path fill="none" stroke="black" d="M535,-122.3C535,-140.27 535,-165 535,-165 535,-165 1095.26,-165 1095.26,-165"/>
<polygon fill="black" stroke="black" points="1095.26,-168.5 1105.26,-165 1095.26,-161.5 1095.26,-168.5"/>
</g>
<!-- LoggerModule -->
<g id="node2" class="node">
<title>LoggerModule</title>
<polygon fill="#8dd3c7" stroke="black" points="447.98,-122 444.98,-126 423.98,-126 420.98,-122 348.02,-122 348.02,-86 447.98,-86 447.98,-122"/>
<text text-anchor="middle" x="398" y="-99.8" font-family="Times,serif" font-size="14.00">LoggerModule</text>
</g>
<!-- LoggerModule&#45;&gt;ToolApiModule -->
<g id="edge2" class="edge">
<title>LoggerModule&#45;&gt;ToolApiModule</title>
<path fill="none" stroke="black" d="M398,-122.11C398,-141.34 398,-169 398,-169 398,-169 1095.49,-169 1095.49,-169"/>
<polygon fill="black" stroke="black" points="1095.49,-172.5 1105.49,-169 1095.49,-165.5 1095.49,-172.5"/>
</g>
<!-- SchoolModule -->
<g id="node3" class="node">
<title>SchoolModule</title>
<polygon fill="#8dd3c7" stroke="black" points="330.44,-122 327.44,-126 306.44,-126 303.44,-122 231.56,-122 231.56,-86 330.44,-86 330.44,-122"/>
<text text-anchor="middle" x="281" y="-99.8" font-family="Times,serif" font-size="14.00">SchoolModule</text>
</g>
<!-- SchoolModule&#45;&gt;ToolApiModule -->
<g id="edge3" class="edge">
<title>SchoolModule&#45;&gt;ToolApiModule</title>
<path fill="none" stroke="black" d="M281,-122.03C281,-142.77 281,-174 281,-174 281,-174 1095.4,-174 1095.4,-174"/>
<polygon fill="black" stroke="black" points="1095.4,-177.5 1105.4,-174 1095.4,-170.5 1095.4,-177.5"/>
</g>
<!-- ToolModule -->
<g id="node4" class="node">
<title>ToolModule</title>
<polygon fill="#8dd3c7" stroke="black" points="213.99,-122 210.99,-126 189.99,-126 186.99,-122 128.01,-122 128.01,-86 213.99,-86 213.99,-122"/>
<text text-anchor="middle" x="171" y="-99.8" font-family="Times,serif" font-size="14.00">ToolModule</text>
</g>
<!-- ToolModule&#45;&gt;ToolApiModule -->
<g id="edge4" class="edge">
<title>ToolModule&#45;&gt;ToolApiModule</title>
<path fill="none" stroke="black" d="M171,-122.29C171,-144.21 171,-178 171,-178 171,-178 1095.18,-178 1095.18,-178"/>
<polygon fill="black" stroke="black" points="1095.18,-181.5 1105.18,-178 1095.18,-174.5 1095.18,-181.5"/>
</g>
<!-- UserModule -->
<g id="node5" class="node">
<title>UserModule</title>
<polygon fill="#8dd3c7" stroke="black" points="109.98,-122 106.98,-126 85.98,-126 82.98,-122 24.02,-122 24.02,-86 109.98,-86 109.98,-122"/>
<text text-anchor="middle" x="67" y="-99.8" font-family="Times,serif" font-size="14.00">UserModule</text>
</g>
<!-- UserModule&#45;&gt;ToolApiModule -->
<g id="edge5" class="edge">
<title>UserModule&#45;&gt;ToolApiModule</title>
<path fill="none" stroke="black" d="M67,-122.32C67,-145.66 67,-183 67,-183 67,-183 1095.22,-183 1095.22,-183"/>
<polygon fill="black" stroke="black" points="1095.22,-186.5 1105.22,-183 1095.22,-179.5 1095.22,-186.5"/>
</g>
<!-- ContextExternalToolUc -->
<g id="node7" class="node">
<title>ContextExternalToolUc</title>
<ellipse fill="#fdb462" stroke="black" cx="2872" cy="-104" rx="103.65" ry="18"/>
<text text-anchor="middle" x="2872" y="-99.8" font-family="Times,serif" font-size="14.00">ContextExternalToolUc</text>
</g>
<!-- ContextExternalToolUc&#45;&gt;ToolApiModule -->
<g id="edge6" class="edge">
<title>ContextExternalToolUc&#45;&gt;ToolApiModule</title>
<path fill="none" stroke="black" d="M2872,-122.32C2872,-145.66 2872,-183 2872,-183 2872,-183 1222.62,-183 1222.62,-183"/>
<polygon fill="black" stroke="black" points="1222.62,-179.5 1212.62,-183 1222.62,-186.5 1222.62,-179.5"/>
</g>
<!-- ExternalToolConfigurationUc -->
<g id="node8" class="node">
<title>ExternalToolConfigurationUc</title>
<ellipse fill="#fdb462" stroke="black" cx="2623" cy="-104" rx="127.35" ry="18"/>
<text text-anchor="middle" x="2623" y="-99.8" font-family="Times,serif" font-size="14.00">ExternalToolConfigurationUc</text>
</g>
<!-- ExternalToolConfigurationUc&#45;&gt;ToolApiModule -->
<g id="edge7" class="edge">
<title>ExternalToolConfigurationUc&#45;&gt;ToolApiModule</title>
<path fill="none" stroke="black" d="M2623,-122.29C2623,-144.21 2623,-178 2623,-178 2623,-178 1222.84,-178 1222.84,-178"/>
<polygon fill="black" stroke="black" points="1222.84,-174.5 1212.84,-178 1222.84,-181.5 1222.84,-174.5"/>
</g>
<!-- ExternalToolRequestMapper -->
<g id="node9" class="node">
<title>ExternalToolRequestMapper</title>
<ellipse fill="#fdb462" stroke="black" cx="2354" cy="-104" rx="123.26" ry="18"/>
<text text-anchor="middle" x="2354" y="-99.8" font-family="Times,serif" font-size="14.00">ExternalToolRequestMapper</text>
</g>
<!-- ExternalToolRequestMapper&#45;&gt;ToolApiModule -->
<g id="edge8" class="edge">
<title>ExternalToolRequestMapper&#45;&gt;ToolApiModule</title>
<path fill="none" stroke="black" d="M2354,-122.03C2354,-142.77 2354,-174 2354,-174 2354,-174 1222.67,-174 1222.67,-174"/>
<polygon fill="black" stroke="black" points="1222.67,-170.5 1212.67,-174 1222.67,-177.5 1222.67,-170.5"/>
</g>
<!-- ExternalToolResponseMapper -->
<g id="node10" class="node">
<title>ExternalToolResponseMapper</title>
<ellipse fill="#fdb462" stroke="black" cx="2084" cy="-104" rx="129.06" ry="18"/>
<text text-anchor="middle" x="2084" y="-99.8" font-family="Times,serif" font-size="14.00">ExternalToolResponseMapper</text>
</g>
<!-- ExternalToolResponseMapper&#45;&gt;ToolApiModule -->
<g id="edge9" class="edge">
<title>ExternalToolResponseMapper&#45;&gt;ToolApiModule</title>
<path fill="none" stroke="black" d="M2084,-122.11C2084,-141.34 2084,-169 2084,-169 2084,-169 1222.73,-169 1222.73,-169"/>
<polygon fill="black" stroke="black" points="1222.73,-165.5 1212.73,-169 1222.73,-172.5 1222.73,-165.5"/>
</g>
<!-- ExternalToolUc -->
<g id="node11" class="node">
<title>ExternalToolUc</title>
<ellipse fill="#fdb462" stroke="black" cx="1864" cy="-104" rx="73.49" ry="18"/>
<text text-anchor="middle" x="1864" y="-99.8" font-family="Times,serif" font-size="14.00">ExternalToolUc</text>
</g>
<!-- ExternalToolUc&#45;&gt;ToolApiModule -->
<g id="edge10" class="edge">
<title>ExternalToolUc&#45;&gt;ToolApiModule</title>
<path fill="none" stroke="black" d="M1864,-122.3C1864,-140.27 1864,-165 1864,-165 1864,-165 1222.57,-165 1222.57,-165"/>
<polygon fill="black" stroke="black" points="1222.57,-161.5 1212.57,-165 1222.57,-168.5 1222.57,-161.5"/>
</g>
<!-- LtiToolRepo -->
<g id="node12" class="node">
<title>LtiToolRepo</title>
<ellipse fill="#fdb462" stroke="black" cx="1712" cy="-104" rx="60.85" ry="18"/>
<text text-anchor="middle" x="1712" y="-99.8" font-family="Times,serif" font-size="14.00">LtiToolRepo</text>
</g>
<!-- LtiToolRepo&#45;&gt;ToolApiModule -->
<g id="edge11" class="edge">
<title>LtiToolRepo&#45;&gt;ToolApiModule</title>
<path fill="none" stroke="black" d="M1712,-122.03C1712,-138.4 1712,-160 1712,-160 1712,-160 1222.53,-160 1222.53,-160"/>
<polygon fill="black" stroke="black" points="1222.53,-156.5 1212.53,-160 1222.53,-163.5 1222.53,-156.5"/>
</g>
<!-- SchoolExternalToolRequestMapper -->
<g id="node13" class="node">
<title>SchoolExternalToolRequestMapper</title>
<ellipse fill="#fdb462" stroke="black" cx="1483" cy="-104" rx="149.9" ry="18"/>
<text text-anchor="middle" x="1483" y="-99.8" font-family="Times,serif" font-size="14.00">SchoolExternalToolRequestMapper</text>
</g>
<!-- SchoolExternalToolRequestMapper&#45;&gt;ToolApiModule -->
<g id="edge12" class="edge">
<title>SchoolExternalToolRequestMapper&#45;&gt;ToolApiModule</title>
<path fill="none" stroke="black" d="M1483,-122.19C1483,-137.18 1483,-156 1483,-156 1483,-156 1222.5,-156 1222.5,-156"/>
<polygon fill="black" stroke="black" points="1222.5,-152.5 1212.5,-156 1222.5,-159.5 1222.5,-152.5"/>
</g>
<!-- SchoolExternalToolResponseMapper -->
<g id="node14" class="node">
<title>SchoolExternalToolResponseMapper</title>
<ellipse fill="#fdb462" stroke="black" cx="1159" cy="-104" rx="155.7" ry="18"/>
<text text-anchor="middle" x="1159" y="-99.8" font-family="Times,serif" font-size="14.00">SchoolExternalToolResponseMapper</text>
</g>
<!-- SchoolExternalToolResponseMapper&#45;&gt;ToolApiModule -->
<g id="edge13" class="edge">
<title>SchoolExternalToolResponseMapper&#45;&gt;ToolApiModule</title>
<path fill="none" stroke="black" d="M1159,-122.11C1159,-122.11 1159,-140.99 1159,-140.99"/>
<polygon fill="black" stroke="black" points="1155.5,-140.99 1159,-150.99 1162.5,-140.99 1155.5,-140.99"/>
</g>
<!-- SchoolExternalToolUc -->
<g id="node15" class="node">
<title>SchoolExternalToolUc</title>
<ellipse fill="#fdb462" stroke="black" cx="885" cy="-104" rx="100.14" ry="18"/>
<text text-anchor="middle" x="885" y="-99.8" font-family="Times,serif" font-size="14.00">SchoolExternalToolUc</text>
</g>
<!-- SchoolExternalToolUc&#45;&gt;ToolApiModule -->
<g id="edge14" class="edge">
<title>SchoolExternalToolUc&#45;&gt;ToolApiModule</title>
<path fill="none" stroke="black" d="M885,-122.19C885,-137.18 885,-156 885,-156 885,-156 1095.19,-156 1095.19,-156"/>
<polygon fill="black" stroke="black" points="1095.19,-159.5 1105.19,-156 1095.19,-152.5 1095.19,-159.5"/>
</g>
<!-- ToolLaunchUc -->
<g id="node16" class="node">
<title>ToolLaunchUc</title>
<ellipse fill="#fdb462" stroke="black" cx="697" cy="-104" rx="69.49" ry="18"/>
<text text-anchor="middle" x="697" y="-99.8" font-family="Times,serif" font-size="14.00">ToolLaunchUc</text>
</g>
<!-- ToolLaunchUc&#45;&gt;ToolApiModule -->
<g id="edge15" class="edge">
<title>ToolLaunchUc&#45;&gt;ToolApiModule</title>
<path fill="none" stroke="black" d="M697,-122.03C697,-138.4 697,-160 697,-160 697,-160 1095.1,-160 1095.1,-160"/>
<polygon fill="black" stroke="black" points="1095.1,-163.5 1105.1,-160 1095.1,-156.5 1095.1,-163.5"/>
</g>
</g>
</svg>
