<?xml version="1.0" encoding="UTF-8" standalone="no"?>
<!DOCTYPE svg PUBLIC "-//W3C//DTD SVG 1.1//EN"
 "http://www.w3.org/Graphics/SVG/1.1/DTD/svg11.dtd">
<!-- Generated by graphviz version 2.47.0 (20210316.0004)
 -->
<!-- Title: dependencies Pages: 1 -->
<svg width="3794pt" height="211pt"
 viewBox="0.00 0.00 3794.00 211.00" xmlns="http://www.w3.org/2000/svg" xmlns:xlink="http://www.w3.org/1999/xlink">
<g id="graph0" class="graph" transform="scale(1 1) rotate(0) translate(4 207)">
<title>dependencies</title>
<polygon fill="white" stroke="transparent" points="-4,4 -4,-207 3790,-207 3790,4 -4,4"/>
<text text-anchor="start" x="1872.01" y="-42.4" font-family="Times-12" font-weight="bold" font-size="14.00">Legend</text>
<polygon fill="#ffffb3" stroke="transparent" points="1659,-10 1659,-30 1679,-30 1679,-10 1659,-10"/>
<text text-anchor="start" x="1682.63" y="-15.4" font-family="Times-12" font-size="14.00"> &#160;Declarations</text>
<polygon fill="#8dd3c7" stroke="transparent" points="1772,-10 1772,-30 1792,-30 1792,-10 1772,-10"/>
<text text-anchor="start" x="1795.73" y="-15.4" font-family="Times-12" font-size="14.00"> &#160;Module</text>
<polygon fill="#80b1d3" stroke="transparent" points="1858,-10 1858,-30 1878,-30 1878,-10 1858,-10"/>
<text text-anchor="start" x="1881.78" y="-15.4" font-family="Times-12" font-size="14.00"> &#160;Bootstrap</text>
<polygon fill="#fdb462" stroke="transparent" points="1955,-10 1955,-30 1975,-30 1975,-10 1955,-10"/>
<text text-anchor="start" x="1978.67" y="-15.4" font-family="Times-12" font-size="14.00"> &#160;Providers</text>
<polygon fill="#fb8072" stroke="transparent" points="2051,-10 2051,-30 2071,-30 2071,-10 2051,-10"/>
<text text-anchor="start" x="2074.73" y="-15.4" font-family="Times-12" font-size="14.00"> &#160;Exports</text>
<g id="clust1" class="cluster">
<title>cluster_ToolApiModule</title>
<polygon fill="none" stroke="black" stroke-dasharray="1,5" points="8,-70 8,-195 3778,-195 3778,-70 8,-70"/>
</g>
<g id="clust3" class="cluster">
<title>cluster_ToolApiModule_imports</title>
<polygon fill="none" stroke="black" points="2875,-78 2875,-130 3770,-130 3770,-78 2875,-78"/>
</g>
<g id="clust6" class="cluster">
<title>cluster_ToolApiModule_providers</title>
<polygon fill="none" stroke="black" points="16,-78 16,-130 2867,-130 2867,-78 16,-78"/>
</g>
<!-- AuthorizationModule -->
<g id="node1" class="node">
<title>AuthorizationModule</title>
<polygon fill="#8dd3c7" stroke="black" points="3761.81,-122 3758.81,-126 3737.81,-126 3734.81,-122 3624.19,-122 3624.19,-86 3761.81,-86 3761.81,-122"/>
<text text-anchor="middle" x="3693" y="-99.8" font-family="Times,serif" font-size="14.00">AuthorizationModule</text>
</g>
<!-- ToolApiModule -->
<g id="node8" class="node">
<title>ToolApiModule</title>
<polygon fill="#8dd3c7" stroke="black" points="2250.49,-187 2247.49,-191 2226.49,-191 2223.49,-187 2143.51,-187 2143.51,-151 2250.49,-151 2250.49,-187"/>
<text text-anchor="middle" x="2197" y="-164.8" font-family="Times,serif" font-size="14.00">ToolApiModule</text>
</g>
<!-- AuthorizationModule&#45;&gt;ToolApiModule -->
<g id="edge1" class="edge">
<title>AuthorizationModule&#45;&gt;ToolApiModule</title>
<path fill="none" stroke="black" d="M3693,-122.15C3693,-145.76 3693,-184 3693,-184 3693,-184 2260.68,-184 2260.68,-184"/>
<polygon fill="black" stroke="black" points="2260.68,-180.5 2250.68,-184 2260.68,-187.5 2260.68,-180.5"/>
</g>
<!-- CommonToolModule -->
<g id="node2" class="node">
<title>CommonToolModule</title>
<polygon fill="#8dd3c7" stroke="black" points="3606.11,-122 3603.11,-126 3582.11,-126 3579.11,-122 3467.89,-122 3467.89,-86 3606.11,-86 3606.11,-122"/>
<text text-anchor="middle" x="3537" y="-99.8" font-family="Times,serif" font-size="14.00">CommonToolModule</text>
</g>
<!-- CommonToolModule&#45;&gt;ToolApiModule -->
<g id="edge2" class="edge">
<title>CommonToolModule&#45;&gt;ToolApiModule</title>
<path fill="none" stroke="black" d="M3537,-122.01C3537,-144.49 3537,-180 3537,-180 3537,-180 2260.77,-180 2260.77,-180"/>
<polygon fill="black" stroke="black" points="2260.77,-176.5 2250.77,-180 2260.77,-183.5 2260.77,-176.5"/>
</g>
<!-- LoggerModule -->
<g id="node3" class="node">
<title>LoggerModule</title>
<polygon fill="#8dd3c7" stroke="black" points="3449.98,-122 3446.98,-126 3425.98,-126 3422.98,-122 3350.02,-122 3350.02,-86 3449.98,-86 3449.98,-122"/>
<text text-anchor="middle" x="3400" y="-99.8" font-family="Times,serif" font-size="14.00">LoggerModule</text>
</g>
<!-- LoggerModule&#45;&gt;ToolApiModule -->
<g id="edge3" class="edge">
<title>LoggerModule&#45;&gt;ToolApiModule</title>
<path fill="none" stroke="black" d="M3400,-122.04C3400,-143.66 3400,-177 3400,-177 3400,-177 2260.63,-177 2260.63,-177"/>
<polygon fill="black" stroke="black" points="2260.63,-173.5 2250.63,-177 2260.63,-180.5 2260.63,-173.5"/>
</g>
<!-- SchoolModule -->
<g id="node4" class="node">
<title>SchoolModule</title>
<polygon fill="#8dd3c7" stroke="black" points="3332.44,-122 3329.44,-126 3308.44,-126 3305.44,-122 3233.56,-122 3233.56,-86 3332.44,-86 3332.44,-122"/>
<text text-anchor="middle" x="3283" y="-99.8" font-family="Times,serif" font-size="14.00">SchoolModule</text>
</g>
<!-- SchoolModule&#45;&gt;ToolApiModule -->
<g id="edge4" class="edge">
<title>SchoolModule&#45;&gt;ToolApiModule</title>
<path fill="none" stroke="black" d="M3283,-122.13C3283,-142.57 3283,-173 3283,-173 3283,-173 2260.85,-173 2260.85,-173"/>
<polygon fill="black" stroke="black" points="2260.85,-169.5 2250.85,-173 2260.85,-176.5 2260.85,-169.5"/>
</g>
<!-- ToolConfigModule -->
<g id="node5" class="node">
<title>ToolConfigModule</title>
<polygon fill="#8dd3c7" stroke="black" points="3215.38,-122 3212.38,-126 3191.38,-126 3188.38,-122 3090.62,-122 3090.62,-86 3215.38,-86 3215.38,-122"/>
<text text-anchor="middle" x="3153" y="-99.8" font-family="Times,serif" font-size="14.00">ToolConfigModule</text>
</g>
<!-- ToolConfigModule&#45;&gt;ToolApiModule -->
<g id="edge5" class="edge">
<title>ToolConfigModule&#45;&gt;ToolApiModule</title>
<path fill="none" stroke="black" d="M3153,-122.11C3153,-141.34 3153,-169 3153,-169 3153,-169 2260.79,-169 2260.79,-169"/>
<polygon fill="black" stroke="black" points="2260.79,-165.5 2250.79,-169 2260.79,-172.5 2260.79,-165.5"/>
</g>
<!-- ToolModule -->
<g id="node6" class="node">
<title>ToolModule</title>
<polygon fill="#8dd3c7" stroke="black" points="3072.99,-122 3069.99,-126 3048.99,-126 3045.99,-122 2987.01,-122 2987.01,-86 3072.99,-86 3072.99,-122"/>
<text text-anchor="middle" x="3030" y="-99.8" font-family="Times,serif" font-size="14.00">ToolModule</text>
</g>
<!-- ToolModule&#45;&gt;ToolApiModule -->
<g id="edge6" class="edge">
<title>ToolModule&#45;&gt;ToolApiModule</title>
<path fill="none" stroke="black" d="M3030,-122.27C3030,-140.56 3030,-166 3030,-166 3030,-166 2260.69,-166 2260.69,-166"/>
<polygon fill="black" stroke="black" points="2260.69,-162.5 2250.69,-166 2260.69,-169.5 2260.69,-162.5"/>
</g>
<!-- UserModule -->
<g id="node7" class="node">
<title>UserModule</title>
<polygon fill="#8dd3c7" stroke="black" points="2968.98,-122 2965.98,-126 2944.98,-126 2941.98,-122 2883.02,-122 2883.02,-86 2968.98,-86 2968.98,-122"/>
<text text-anchor="middle" x="2926" y="-99.8" font-family="Times,serif" font-size="14.00">UserModule</text>
</g>
<!-- UserModule&#45;&gt;ToolApiModule -->
<g id="edge7" class="edge">
<title>UserModule&#45;&gt;ToolApiModule</title>
<path fill="none" stroke="black" d="M2926,-122.03C2926,-139.06 2926,-162 2926,-162 2926,-162 2260.61,-162 2260.61,-162"/>
<polygon fill="black" stroke="black" points="2260.61,-158.5 2250.61,-162 2260.61,-165.5 2260.61,-158.5"/>
</g>
<!-- ContextExternalToolUc -->
<g id="node9" class="node">
<title>ContextExternalToolUc</title>
<ellipse fill="#fdb462" stroke="black" cx="2755" cy="-104" rx="103.65" ry="18"/>
<text text-anchor="middle" x="2755" y="-99.8" font-family="Times,serif" font-size="14.00">ContextExternalToolUc</text>
</g>
<!-- ContextExternalToolUc&#45;&gt;ToolApiModule -->
<g id="edge8" class="edge">
<title>ContextExternalToolUc&#45;&gt;ToolApiModule</title>
<path fill="none" stroke="black" d="M2755,-122.01C2755,-138.05 2755,-159 2755,-159 2755,-159 2260.5,-159 2260.5,-159"/>
<polygon fill="black" stroke="black" points="2260.5,-155.5 2250.5,-159 2260.5,-162.5 2260.5,-155.5"/>
</g>
<!-- ExternalToolConfigurationService -->
<g id="node10" class="node">
<title>ExternalToolConfigurationService</title>
<ellipse fill="#fdb462" stroke="black" cx="2488" cy="-104" rx="145.24" ry="18"/>
<text text-anchor="middle" x="2488" y="-99.8" font-family="Times,serif" font-size="14.00">ExternalToolConfigurationService</text>
</g>
<!-- ExternalToolConfigurationService&#45;&gt;ToolApiModule -->
<g id="edge9" class="edge">
<title>ExternalToolConfigurationService&#45;&gt;ToolApiModule</title>
<path fill="none" stroke="black" d="M2488,-122.12C2488,-136.78 2488,-155 2488,-155 2488,-155 2260.71,-155 2260.71,-155"/>
<polygon fill="black" stroke="black" points="2260.71,-151.5 2250.71,-155 2260.71,-158.5 2260.71,-151.5"/>
</g>
<!-- ExternalToolConfigurationUc -->
<g id="node11" class="node">
<title>ExternalToolConfigurationUc</title>
<ellipse fill="#fdb462" stroke="black" cx="2197" cy="-104" rx="127.35" ry="18"/>
<text text-anchor="middle" x="2197" y="-99.8" font-family="Times,serif" font-size="14.00">ExternalToolConfigurationUc</text>
</g>
<!-- ExternalToolConfigurationUc&#45;&gt;ToolApiModule -->
<g id="edge10" class="edge">
<title>ExternalToolConfigurationUc&#45;&gt;ToolApiModule</title>
<path fill="none" stroke="black" d="M2197,-122.11C2197,-122.11 2197,-140.99 2197,-140.99"/>
<polygon fill="black" stroke="black" points="2193.5,-140.99 2197,-150.99 2200.5,-140.99 2193.5,-140.99"/>
</g>
<!-- ExternalToolRequestMapper -->
<g id="node12" class="node">
<title>ExternalToolRequestMapper</title>
<ellipse fill="#fdb462" stroke="black" cx="1928" cy="-104" rx="123.26" ry="18"/>
<text text-anchor="middle" x="1928" y="-99.8" font-family="Times,serif" font-size="14.00">ExternalToolRequestMapper</text>
</g>
<!-- ExternalToolRequestMapper&#45;&gt;ToolApiModule -->
<g id="edge11" class="edge">
<title>ExternalToolRequestMapper&#45;&gt;ToolApiModule</title>
<path fill="none" stroke="black" d="M1928,-122.12C1928,-136.78 1928,-155 1928,-155 1928,-155 2133.21,-155 2133.21,-155"/>
<polygon fill="black" stroke="black" points="2133.21,-158.5 2143.21,-155 2133.21,-151.5 2133.21,-158.5"/>
</g>
<!-- ExternalToolResponseMapper -->
<g id="node13" class="node">
<title>ExternalToolResponseMapper</title>
<ellipse fill="#fdb462" stroke="black" cx="1658" cy="-104" rx="129.06" ry="18"/>
<text text-anchor="middle" x="1658" y="-99.8" font-family="Times,serif" font-size="14.00">ExternalToolResponseMapper</text>
</g>
<!-- ExternalToolResponseMapper&#45;&gt;ToolApiModule -->
<g id="edge12" class="edge">
<title>ExternalToolResponseMapper&#45;&gt;ToolApiModule</title>
<path fill="none" stroke="black" d="M1658,-122.01C1658,-138.05 1658,-159 1658,-159 1658,-159 2133.35,-159 2133.35,-159"/>
<polygon fill="black" stroke="black" points="2133.35,-162.5 2143.35,-159 2133.35,-155.5 2133.35,-162.5"/>
</g>
<!-- ExternalToolUc -->
<g id="node14" class="node">
<title>ExternalToolUc</title>
<ellipse fill="#fdb462" stroke="black" cx="1438" cy="-104" rx="73.49" ry="18"/>
<text text-anchor="middle" x="1438" y="-99.8" font-family="Times,serif" font-size="14.00">ExternalToolUc</text>
</g>
<!-- ExternalToolUc&#45;&gt;ToolApiModule -->
<g id="edge13" class="edge">
<title>ExternalToolUc&#45;&gt;ToolApiModule</title>
<path fill="none" stroke="black" d="M1438,-122.03C1438,-139.06 1438,-162 1438,-162 1438,-162 2133.33,-162 2133.33,-162"/>
<polygon fill="black" stroke="black" points="2133.33,-165.5 2143.33,-162 2133.33,-158.5 2133.33,-165.5"/>
</g>
<!-- LtiToolRepo -->
<g id="node15" class="node">
<title>LtiToolRepo</title>
<ellipse fill="#fdb462" stroke="black" cx="1286" cy="-104" rx="60.85" ry="18"/>
<text text-anchor="middle" x="1286" y="-99.8" font-family="Times,serif" font-size="14.00">LtiToolRepo</text>
</g>
<!-- LtiToolRepo&#45;&gt;ToolApiModule -->
<g id="edge14" class="edge">
<title>LtiToolRepo&#45;&gt;ToolApiModule</title>
<path fill="none" stroke="black" d="M1286,-122.27C1286,-140.56 1286,-166 1286,-166 1286,-166 2133.41,-166 2133.41,-166"/>
<polygon fill="black" stroke="black" points="2133.41,-169.5 2143.41,-166 2133.41,-162.5 2133.41,-169.5"/>
</g>
<!-- SchoolExternalToolRequestMapper -->
<g id="node16" class="node">
<title>SchoolExternalToolRequestMapper</title>
<ellipse fill="#fdb462" stroke="black" cx="1057" cy="-104" rx="149.9" ry="18"/>
<text text-anchor="middle" x="1057" y="-99.8" font-family="Times,serif" font-size="14.00">SchoolExternalToolRequestMapper</text>
</g>
<!-- SchoolExternalToolRequestMapper&#45;&gt;ToolApiModule -->
<g id="edge15" class="edge">
<title>SchoolExternalToolRequestMapper&#45;&gt;ToolApiModule</title>
<path fill="none" stroke="black" d="M1057,-122.11C1057,-141.34 1057,-169 1057,-169 1057,-169 2133.16,-169 2133.16,-169"/>
<polygon fill="black" stroke="black" points="2133.16,-172.5 2143.16,-169 2133.16,-165.5 2133.16,-172.5"/>
</g>
<!-- SchoolExternalToolResponseMapper -->
<g id="node17" class="node">
<title>SchoolExternalToolResponseMapper</title>
<ellipse fill="#fdb462" stroke="black" cx="733" cy="-104" rx="155.7" ry="18"/>
<text text-anchor="middle" x="733" y="-99.8" font-family="Times,serif" font-size="14.00">SchoolExternalToolResponseMapper</text>
</g>
<!-- SchoolExternalToolResponseMapper&#45;&gt;ToolApiModule -->
<g id="edge16" class="edge">
<title>SchoolExternalToolResponseMapper&#45;&gt;ToolApiModule</title>
<path fill="none" stroke="black" d="M733,-122.13C733,-142.57 733,-173 733,-173 733,-173 2133.16,-173 2133.16,-173"/>
<polygon fill="black" stroke="black" points="2133.16,-176.5 2143.16,-173 2133.16,-169.5 2133.16,-176.5"/>
</g>
<!-- SchoolExternalToolUc -->
<g id="node18" class="node">
<title>SchoolExternalToolUc</title>
<ellipse fill="#fdb462" stroke="black" cx="459" cy="-104" rx="100.14" ry="18"/>
<text text-anchor="middle" x="459" y="-99.8" font-family="Times,serif" font-size="14.00">SchoolExternalToolUc</text>
</g>
<!-- SchoolExternalToolUc&#45;&gt;ToolApiModule -->
<g id="edge17" class="edge">
<title>SchoolExternalToolUc&#45;&gt;ToolApiModule</title>
<path fill="none" stroke="black" d="M459,-122.04C459,-143.66 459,-177 459,-177 459,-177 2133.08,-177 2133.08,-177"/>
<polygon fill="black" stroke="black" points="2133.08,-180.5 2143.08,-177 2133.08,-173.5 2133.08,-180.5"/>
</g>
<!-- ToolLaunchUc -->
<g id="node19" class="node">
<title>ToolLaunchUc</title>
<ellipse fill="#fdb462" stroke="black" cx="271" cy="-104" rx="69.49" ry="18"/>
<text text-anchor="middle" x="271" y="-99.8" font-family="Times,serif" font-size="14.00">ToolLaunchUc</text>
</g>
<!-- ToolLaunchUc&#45;&gt;ToolApiModule -->
<g id="edge18" class="edge">
<title>ToolLaunchUc&#45;&gt;ToolApiModule</title>
<path fill="none" stroke="black" d="M271,-122.01C271,-144.49 271,-180 271,-180 271,-180 2133.48,-180 2133.48,-180"/>
<polygon fill="black" stroke="black" points="2133.48,-183.5 2143.48,-180 2133.48,-176.5 2133.48,-183.5"/>
</g>
<!-- ToolReferenceUc -->
<g id="node20" class="node">
<title>ToolReferenceUc</title>
<ellipse fill="#fdb462" stroke="black" cx="104" cy="-104" rx="79.83" ry="18"/>
<text text-anchor="middle" x="104" y="-99.8" font-family="Times,serif" font-size="14.00">ToolReferenceUc</text>
</g>
<!-- ToolReferenceUc&#45;&gt;ToolApiModule -->
<g id="edge19" class="edge">
<title>ToolReferenceUc&#45;&gt;ToolApiModule</title>
<path fill="none" stroke="black" d="M104,-122.15C104,-145.76 104,-184 104,-184 104,-184 2133.42,-184 2133.42,-184"/>
<polygon fill="black" stroke="black" points="2133.42,-187.5 2143.42,-184 2133.42,-180.5 2133.42,-187.5"/>
</g>
</g>
</svg>
