<?xml version="1.0" encoding="UTF-8" standalone="no"?>
<!DOCTYPE svg PUBLIC "-//W3C//DTD SVG 1.1//EN"
 "http://www.w3.org/Graphics/SVG/1.1/DTD/svg11.dtd">
<!-- Generated by graphviz version 2.47.0 (20210316.0004)
 -->
<!-- Title: dependencies Pages: 1 -->
<svg width="4419pt" height="211pt"
 viewBox="0.00 0.00 4419.00 211.00" xmlns="http://www.w3.org/2000/svg" xmlns:xlink="http://www.w3.org/1999/xlink">
<g id="graph0" class="graph" transform="scale(1 1) rotate(0) translate(4 207)">
<title>dependencies</title>
<polygon fill="white" stroke="transparent" points="-4,4 -4,-207 4415,-207 4415,4 -4,4"/>
<text text-anchor="start" x="2184.51" y="-42.4" font-family="Times-12" font-weight="bold" font-size="14.00">Legend</text>
<polygon fill="#ffffb3" stroke="transparent" points="1971.5,-10 1971.5,-30 1991.5,-30 1991.5,-10 1971.5,-10"/>
<text text-anchor="start" x="1995.13" y="-15.4" font-family="Times-12" font-size="14.00"> &#160;Declarations</text>
<polygon fill="#8dd3c7" stroke="transparent" points="2084.5,-10 2084.5,-30 2104.5,-30 2104.5,-10 2084.5,-10"/>
<text text-anchor="start" x="2108.23" y="-15.4" font-family="Times-12" font-size="14.00"> &#160;Module</text>
<polygon fill="#80b1d3" stroke="transparent" points="2170.5,-10 2170.5,-30 2190.5,-30 2190.5,-10 2170.5,-10"/>
<text text-anchor="start" x="2194.28" y="-15.4" font-family="Times-12" font-size="14.00"> &#160;Bootstrap</text>
<polygon fill="#fdb462" stroke="transparent" points="2267.5,-10 2267.5,-30 2287.5,-30 2287.5,-10 2267.5,-10"/>
<text text-anchor="start" x="2291.17" y="-15.4" font-family="Times-12" font-size="14.00"> &#160;Providers</text>
<polygon fill="#fb8072" stroke="transparent" points="2363.5,-10 2363.5,-30 2383.5,-30 2383.5,-10 2363.5,-10"/>
<text text-anchor="start" x="2387.23" y="-15.4" font-family="Times-12" font-size="14.00"> &#160;Exports</text>
<g id="clust1" class="cluster">
<title>cluster_ToolApiModule</title>
<polygon fill="none" stroke="black" stroke-dasharray="1,5" points="8,-70 8,-195 4403,-195 4403,-70 8,-70"/>
</g>
<g id="clust3" class="cluster">
<title>cluster_ToolApiModule_imports</title>
<polygon fill="none" stroke="black" points="3090,-78 3090,-130 4395,-130 4395,-78 3090,-78"/>
</g>
<g id="clust6" class="cluster">
<title>cluster_ToolApiModule_providers</title>
<polygon fill="none" stroke="black" points="16,-78 16,-130 3082,-130 3082,-78 16,-78"/>
</g>
<!-- AuthorizationModule -->
<g id="node1" class="node">
<title>AuthorizationModule</title>
<polygon fill="#8dd3c7" stroke="black" points="4386.81,-122 4383.81,-126 4362.81,-126 4359.81,-122 4249.19,-122 4249.19,-86 4386.81,-86 4386.81,-122"/>
<text text-anchor="middle" x="4318" y="-99.8" font-family="Times,serif" font-size="14.00">AuthorizationModule</text>
</g>
<!-- ToolApiModule -->
<g id="node11" class="node">
<title>ToolApiModule</title>
<polygon fill="#8dd3c7" stroke="black" points="2756.49,-187 2753.49,-191 2732.49,-191 2729.49,-187 2649.51,-187 2649.51,-151 2756.49,-151 2756.49,-187"/>
<text text-anchor="middle" x="2703" y="-164.8" font-family="Times,serif" font-size="14.00">ToolApiModule</text>
</g>
<!-- AuthorizationModule&#45;&gt;ToolApiModule -->
<g id="edge1" class="edge">
<title>AuthorizationModule&#45;&gt;ToolApiModule</title>
<path fill="none" stroke="black" d="M4318,-122.15C4318,-145.76 4318,-184 4318,-184 4318,-184 2766.73,-184 2766.73,-184"/>
<polygon fill="black" stroke="black" points="2766.73,-180.5 2756.73,-184 2766.73,-187.5 2766.73,-180.5"/>
</g>
<!-- BoardModule -->
<g id="node2" class="node">
<title>BoardModule</title>
<polygon fill="#8dd3c7" stroke="black" points="4230.76,-122 4227.76,-126 4206.76,-126 4203.76,-122 4137.24,-122 4137.24,-86 4230.76,-86 4230.76,-122"/>
<text text-anchor="middle" x="4184" y="-99.8" font-family="Times,serif" font-size="14.00">BoardModule</text>
</g>
<!-- BoardModule&#45;&gt;ToolApiModule -->
<g id="edge2" class="edge">
<title>BoardModule&#45;&gt;ToolApiModule</title>
<path fill="none" stroke="black" d="M4184,-122.09C4184,-145.13 4184,-182 4184,-182 4184,-182 2766.58,-182 2766.58,-182"/>
<polygon fill="black" stroke="black" points="2766.58,-178.5 2756.58,-182 2766.58,-185.5 2766.58,-178.5"/>
</g>
<!-- CommonToolModule -->
<g id="node3" class="node">
<title>CommonToolModule</title>
<polygon fill="#8dd3c7" stroke="black" points="4119.11,-122 4116.11,-126 4095.11,-126 4092.11,-122 3980.89,-122 3980.89,-86 4119.11,-86 4119.11,-122"/>
<text text-anchor="middle" x="4050" y="-99.8" font-family="Times,serif" font-size="14.00">CommonToolModule</text>
</g>
<!-- CommonToolModule&#45;&gt;ToolApiModule -->
<g id="edge3" class="edge">
<title>CommonToolModule&#45;&gt;ToolApiModule</title>
<path fill="none" stroke="black" d="M4050,-122.29C4050,-144.21 4050,-178 4050,-178 4050,-178 2766.64,-178 2766.64,-178"/>
<polygon fill="black" stroke="black" points="2766.64,-174.5 2756.64,-178 2766.64,-181.5 2766.64,-174.5"/>
</g>
<!-- LearnroomModule -->
<g id="node4" class="node">
<title>LearnroomModule</title>
<polygon fill="#8dd3c7" stroke="black" points="3962.74,-122 3959.74,-126 3938.74,-126 3935.74,-122 3841.26,-122 3841.26,-86 3962.74,-86 3962.74,-122"/>
<text text-anchor="middle" x="3902" y="-99.8" font-family="Times,serif" font-size="14.00">LearnroomModule</text>
</g>
<!-- LearnroomModule&#45;&gt;ToolApiModule -->
<g id="edge4" class="edge">
<title>LearnroomModule&#45;&gt;ToolApiModule</title>
<path fill="none" stroke="black" d="M3902,-122.28C3902,-143.32 3902,-175 3902,-175 3902,-175 2766.85,-175 2766.85,-175"/>
<polygon fill="black" stroke="black" points="2766.85,-171.5 2756.85,-175 2766.85,-178.5 2766.85,-171.5"/>
</g>
<!-- LegacySchoolModule -->
<g id="node5" class="node">
<title>LegacySchoolModule</title>
<polygon fill="#8dd3c7" stroke="black" points="3822.63,-122 3819.63,-126 3798.63,-126 3795.63,-122 3683.37,-122 3683.37,-86 3822.63,-86 3822.63,-122"/>
<text text-anchor="middle" x="3753" y="-99.8" font-family="Times,serif" font-size="14.00">LegacySchoolModule</text>
</g>
<!-- LegacySchoolModule&#45;&gt;ToolApiModule -->
<g id="edge5" class="edge">
<title>LegacySchoolModule&#45;&gt;ToolApiModule</title>
<path fill="none" stroke="black" d="M3753,-122.22C3753,-142.37 3753,-172 3753,-172 3753,-172 2766.51,-172 2766.51,-172"/>
<polygon fill="black" stroke="black" points="2766.51,-168.5 2756.51,-172 2766.51,-175.5 2766.51,-168.5"/>
</g>
<!-- LoggerModule -->
<g id="node6" class="node">
<title>LoggerModule</title>
<polygon fill="#8dd3c7" stroke="black" points="3664.98,-122 3661.98,-126 3640.98,-126 3637.98,-122 3565.02,-122 3565.02,-86 3664.98,-86 3664.98,-122"/>
<text text-anchor="middle" x="3615" y="-99.8" font-family="Times,serif" font-size="14.00">LoggerModule</text>
</g>
<!-- LoggerModule&#45;&gt;ToolApiModule -->
<g id="edge6" class="edge">
<title>LoggerModule&#45;&gt;ToolApiModule</title>
<path fill="none" stroke="black" d="M3615,-122.11C3615,-141.34 3615,-169 3615,-169 3615,-169 2766.64,-169 2766.64,-169"/>
<polygon fill="black" stroke="black" points="2766.64,-165.5 2756.64,-169 2766.64,-172.5 2766.64,-165.5"/>
</g>
<!-- SchoolModule -->
<g id="node7" class="node">
<title>SchoolModule</title>
<polygon fill="#8dd3c7" stroke="black" points="3547.44,-122 3544.44,-126 3523.44,-126 3520.44,-122 3448.56,-122 3448.56,-86 3547.44,-86 3547.44,-122"/>
<text text-anchor="middle" x="3498" y="-99.8" font-family="Times,serif" font-size="14.00">SchoolModule</text>
</g>
<!-- SchoolModule&#45;&gt;ToolApiModule -->
<g id="edge7" class="edge">
<title>SchoolModule&#45;&gt;ToolApiModule</title>
<path fill="none" stroke="black" d="M3498,-122.22C3498,-140.83 3498,-167 3498,-167 3498,-167 2766.71,-167 2766.71,-167"/>
<polygon fill="black" stroke="black" points="2766.71,-163.5 2756.71,-167 2766.71,-170.5 2766.71,-163.5"/>
</g>
<!-- ToolConfigModule -->
<g id="node8" class="node">
<title>ToolConfigModule</title>
<polygon fill="#8dd3c7" stroke="black" points="3430.38,-122 3427.38,-126 3406.38,-126 3403.38,-122 3305.62,-122 3305.62,-86 3430.38,-86 3430.38,-122"/>
<text text-anchor="middle" x="3368" y="-99.8" font-family="Times,serif" font-size="14.00">ToolConfigModule</text>
</g>
<!-- ToolConfigModule&#45;&gt;ToolApiModule -->
<g id="edge8" class="edge">
<title>ToolConfigModule&#45;&gt;ToolApiModule</title>
<path fill="none" stroke="black" d="M3368,-122.02C3368,-139.37 3368,-163 3368,-163 3368,-163 2766.58,-163 2766.58,-163"/>
<polygon fill="black" stroke="black" points="2766.58,-159.5 2756.58,-163 2766.58,-166.5 2766.58,-159.5"/>
</g>
<!-- ToolModule -->
<g id="node9" class="node">
<title>ToolModule</title>
<polygon fill="#8dd3c7" stroke="black" points="3287.99,-122 3284.99,-126 3263.99,-126 3260.99,-122 3202.01,-122 3202.01,-86 3287.99,-86 3287.99,-122"/>
<text text-anchor="middle" x="3245" y="-99.8" font-family="Times,serif" font-size="14.00">ToolModule</text>
</g>
<!-- ToolModule&#45;&gt;ToolApiModule -->
<g id="edge9" class="edge">
<title>ToolModule&#45;&gt;ToolApiModule</title>
<path fill="none" stroke="black" d="M3245,-122.03C3245,-138.4 3245,-160 3245,-160 3245,-160 2766.95,-160 2766.95,-160"/>
<polygon fill="black" stroke="black" points="2766.95,-156.5 2756.95,-160 2766.95,-163.5 2766.95,-156.5"/>
</g>
<!-- UserModule -->
<g id="node10" class="node">
<title>UserModule</title>
<polygon fill="#8dd3c7" stroke="black" points="3183.98,-122 3180.98,-126 3159.98,-126 3156.98,-122 3098.02,-122 3098.02,-86 3183.98,-86 3183.98,-122"/>
<text text-anchor="middle" x="3141" y="-99.8" font-family="Times,serif" font-size="14.00">UserModule</text>
</g>
<!-- UserModule&#45;&gt;ToolApiModule -->
<g id="edge10" class="edge">
<title>UserModule&#45;&gt;ToolApiModule</title>
<path fill="none" stroke="black" d="M3141,-122.24C3141,-137.57 3141,-157 3141,-157 3141,-157 2766.71,-157 2766.71,-157"/>
<polygon fill="black" stroke="black" points="2766.71,-153.5 2756.71,-157 2766.71,-160.5 2766.71,-153.5"/>
</g>
<!-- ContextExternalToolUc -->
<g id="node12" class="node">
<title>ContextExternalToolUc</title>
<ellipse fill="#fdb462" stroke="black" cx="2970" cy="-104" rx="103.65" ry="18"/>
<text text-anchor="middle" x="2970" y="-99.8" font-family="Times,serif" font-size="14.00">ContextExternalToolUc</text>
</g>
<!-- ContextExternalToolUc&#45;&gt;ToolApiModule -->
<g id="edge11" class="edge">
<title>ContextExternalToolUc&#45;&gt;ToolApiModule</title>
<path fill="none" stroke="black" d="M2970,-122.05C2970,-136.37 2970,-154 2970,-154 2970,-154 2766.71,-154 2766.71,-154"/>
<polygon fill="black" stroke="black" points="2766.71,-150.5 2756.71,-154 2766.71,-157.5 2766.71,-150.5"/>
</g>
<!-- ExternalToolConfigurationService -->
<g id="node13" class="node">
<title>ExternalToolConfigurationService</title>
<ellipse fill="#fdb462" stroke="black" cx="2703" cy="-104" rx="145.24" ry="18"/>
<text text-anchor="middle" x="2703" y="-99.8" font-family="Times,serif" font-size="14.00">ExternalToolConfigurationService</text>
</g>
<!-- ExternalToolConfigurationService&#45;&gt;ToolApiModule -->
<g id="edge12" class="edge">
<title>ExternalToolConfigurationService&#45;&gt;ToolApiModule</title>
<path fill="none" stroke="black" d="M2703,-122.11C2703,-122.11 2703,-140.99 2703,-140.99"/>
<polygon fill="black" stroke="black" points="2699.5,-140.99 2703,-150.99 2706.5,-140.99 2699.5,-140.99"/>
</g>
<!-- ExternalToolConfigurationUc -->
<g id="node14" class="node">
<title>ExternalToolConfigurationUc</title>
<ellipse fill="#fdb462" stroke="black" cx="2412" cy="-104" rx="127.35" ry="18"/>
<text text-anchor="middle" x="2412" y="-99.8" font-family="Times,serif" font-size="14.00">ExternalToolConfigurationUc</text>
</g>
<!-- ExternalToolConfigurationUc&#45;&gt;ToolApiModule -->
<g id="edge13" class="edge">
<title>ExternalToolConfigurationUc&#45;&gt;ToolApiModule</title>
<path fill="none" stroke="black" d="M2412,-122.05C2412,-136.37 2412,-154 2412,-154 2412,-154 2639.29,-154 2639.29,-154"/>
<polygon fill="black" stroke="black" points="2639.29,-157.5 2649.29,-154 2639.29,-150.5 2639.29,-157.5"/>
</g>
<!-- ExternalToolRequestMapper -->
<g id="node15" class="node">
<title>ExternalToolRequestMapper</title>
<ellipse fill="#fdb462" stroke="black" cx="2143" cy="-104" rx="123.26" ry="18"/>
<text text-anchor="middle" x="2143" y="-99.8" font-family="Times,serif" font-size="14.00">ExternalToolRequestMapper</text>
</g>
<!-- ExternalToolRequestMapper&#45;&gt;ToolApiModule -->
<g id="edge14" class="edge">
<title>ExternalToolRequestMapper&#45;&gt;ToolApiModule</title>
<path fill="none" stroke="black" d="M2143,-122.24C2143,-137.57 2143,-157 2143,-157 2143,-157 2639.3,-157 2639.3,-157"/>
<polygon fill="black" stroke="black" points="2639.3,-160.5 2649.3,-157 2639.3,-153.5 2639.3,-160.5"/>
</g>
<!-- ExternalToolResponseMapper -->
<g id="node16" class="node">
<title>ExternalToolResponseMapper</title>
<ellipse fill="#fdb462" stroke="black" cx="1873" cy="-104" rx="129.06" ry="18"/>
<text text-anchor="middle" x="1873" y="-99.8" font-family="Times,serif" font-size="14.00">ExternalToolResponseMapper</text>
</g>
<!-- ExternalToolResponseMapper&#45;&gt;ToolApiModule -->
<g id="edge15" class="edge">
<title>ExternalToolResponseMapper&#45;&gt;ToolApiModule</title>
<path fill="none" stroke="black" d="M1873,-122.03C1873,-138.4 1873,-160 1873,-160 1873,-160 2639.5,-160 2639.5,-160"/>
<polygon fill="black" stroke="black" points="2639.5,-163.5 2649.5,-160 2639.5,-156.5 2639.5,-163.5"/>
</g>
<!-- ExternalToolUc -->
<g id="node17" class="node">
<title>ExternalToolUc</title>
<ellipse fill="#fdb462" stroke="black" cx="1653" cy="-104" rx="73.49" ry="18"/>
<text text-anchor="middle" x="1653" y="-99.8" font-family="Times,serif" font-size="14.00">ExternalToolUc</text>
</g>
<!-- ExternalToolUc&#45;&gt;ToolApiModule -->
<g id="edge16" class="edge">
<title>ExternalToolUc&#45;&gt;ToolApiModule</title>
<path fill="none" stroke="black" d="M1653,-122.02C1653,-139.37 1653,-163 1653,-163 1653,-163 2639.49,-163 2639.49,-163"/>
<polygon fill="black" stroke="black" points="2639.49,-166.5 2649.49,-163 2639.49,-159.5 2639.49,-166.5"/>
</g>
<!-- LtiToolRepo -->
<g id="node18" class="node">
<title>LtiToolRepo</title>
<ellipse fill="#fdb462" stroke="black" cx="1501" cy="-104" rx="60.85" ry="18"/>
<text text-anchor="middle" x="1501" y="-99.8" font-family="Times,serif" font-size="14.00">LtiToolRepo</text>
</g>
<!-- LtiToolRepo&#45;&gt;ToolApiModule -->
<g id="edge17" class="edge">
<title>LtiToolRepo&#45;&gt;ToolApiModule</title>
<path fill="none" stroke="black" d="M1501,-122.22C1501,-140.83 1501,-167 1501,-167 1501,-167 2639.41,-167 2639.41,-167"/>
<polygon fill="black" stroke="black" points="2639.41,-170.5 2649.41,-167 2639.41,-163.5 2639.41,-170.5"/>
</g>
<!-- SchoolExternalToolRequestMapper -->
<g id="node19" class="node">
<title>SchoolExternalToolRequestMapper</title>
<ellipse fill="#fdb462" stroke="black" cx="1272" cy="-104" rx="149.9" ry="18"/>
<text text-anchor="middle" x="1272" y="-99.8" font-family="Times,serif" font-size="14.00">SchoolExternalToolRequestMapper</text>
</g>
<!-- SchoolExternalToolRequestMapper&#45;&gt;ToolApiModule -->
<g id="edge18" class="edge">
<title>SchoolExternalToolRequestMapper&#45;&gt;ToolApiModule</title>
<path fill="none" stroke="black" d="M1272,-122.11C1272,-141.34 1272,-169 1272,-169 1272,-169 2639.08,-169 2639.08,-169"/>
<polygon fill="black" stroke="black" points="2639.08,-172.5 2649.08,-169 2639.08,-165.5 2639.08,-172.5"/>
</g>
<!-- SchoolExternalToolResponseMapper -->
<g id="node20" class="node">
<title>SchoolExternalToolResponseMapper</title>
<ellipse fill="#fdb462" stroke="black" cx="948" cy="-104" rx="155.7" ry="18"/>
<text text-anchor="middle" x="948" y="-99.8" font-family="Times,serif" font-size="14.00">SchoolExternalToolResponseMapper</text>
</g>
<!-- SchoolExternalToolResponseMapper&#45;&gt;ToolApiModule -->
<g id="edge19" class="edge">
<title>SchoolExternalToolResponseMapper&#45;&gt;ToolApiModule</title>
<path fill="none" stroke="black" d="M948,-122.22C948,-142.37 948,-172 948,-172 948,-172 2639.04,-172 2639.04,-172"/>
<polygon fill="black" stroke="black" points="2639.04,-175.5 2649.04,-172 2639.04,-168.5 2639.04,-175.5"/>
</g>
<!-- SchoolExternalToolUc -->
<g id="node21" class="node">
<title>SchoolExternalToolUc</title>
<ellipse fill="#fdb462" stroke="black" cx="674" cy="-104" rx="100.14" ry="18"/>
<text text-anchor="middle" x="674" y="-99.8" font-family="Times,serif" font-size="14.00">SchoolExternalToolUc</text>
</g>
<!-- SchoolExternalToolUc&#45;&gt;ToolApiModule -->
<g id="edge20" class="edge">
<title>SchoolExternalToolUc&#45;&gt;ToolApiModule</title>
<path fill="none" stroke="black" d="M674,-122.28C674,-143.32 674,-175 674,-175 674,-175 2639.25,-175 2639.25,-175"/>
<polygon fill="black" stroke="black" points="2639.25,-178.5 2649.25,-175 2639.25,-171.5 2639.25,-178.5"/>
</g>
<!-- ToolLaunchUc -->
<g id="node22" class="node">
<title>ToolLaunchUc</title>
<ellipse fill="#fdb462" stroke="black" cx="486" cy="-104" rx="69.49" ry="18"/>
<text text-anchor="middle" x="486" y="-99.8" font-family="Times,serif" font-size="14.00">ToolLaunchUc</text>
</g>
<!-- ToolLaunchUc&#45;&gt;ToolApiModule -->
<g id="edge21" class="edge">
<title>ToolLaunchUc&#45;&gt;ToolApiModule</title>
<path fill="none" stroke="black" d="M486,-122.29C486,-144.21 486,-178 486,-178 486,-178 2639.3,-178 2639.3,-178"/>
<polygon fill="black" stroke="black" points="2639.3,-181.5 2649.3,-178 2639.3,-174.5 2639.3,-181.5"/>
</g>
<!-- ToolPermissionHelper -->
<g id="node23" class="node">
<title>ToolPermissionHelper</title>
<ellipse fill="#fdb462" stroke="black" cx="300" cy="-104" rx="98.43" ry="18"/>
<text text-anchor="middle" x="300" y="-99.8" font-family="Times,serif" font-size="14.00">ToolPermissionHelper</text>
</g>
<!-- ToolPermissionHelper&#45;&gt;ToolApiModule -->
<g id="edge22" class="edge">
<title>ToolPermissionHelper&#45;&gt;ToolApiModule</title>
<path fill="none" stroke="black" d="M300,-122.09C300,-145.13 300,-182 300,-182 300,-182 2639.44,-182 2639.44,-182"/>
<polygon fill="black" stroke="black" points="2639.44,-185.5 2649.44,-182 2639.44,-178.5 2639.44,-185.5"/>
</g>
<!-- ToolReferenceUc -->
<g id="node24" class="node">
<title>ToolReferenceUc</title>
<ellipse fill="#fdb462" stroke="black" cx="104" cy="-104" rx="79.83" ry="18"/>
<text text-anchor="middle" x="104" y="-99.8" font-family="Times,serif" font-size="14.00">ToolReferenceUc</text>
</g>
<!-- ToolReferenceUc&#45;&gt;ToolApiModule -->
<g id="edge23" class="edge">
<title>ToolReferenceUc&#45;&gt;ToolApiModule</title>
<path fill="none" stroke="black" d="M104,-122.15C104,-145.76 104,-184 104,-184 104,-184 2639.31,-184 2639.31,-184"/>
<polygon fill="black" stroke="black" points="2639.31,-187.5 2649.31,-184 2639.31,-180.5 2639.31,-187.5"/>
</g>
</g>
</svg>
