<?xml version="1.0" encoding="UTF-8" standalone="no"?>
<!DOCTYPE svg PUBLIC "-//W3C//DTD SVG 1.1//EN"
 "http://www.w3.org/Graphics/SVG/1.1/DTD/svg11.dtd">
<!-- Generated by graphviz version 5.0.0 (20220707.1540)
 -->
<!-- Title: dependencies Pages: 1 -->
<svg width="622pt" height="174pt"
 viewBox="0.00 0.00 622.00 173.80" xmlns="http://www.w3.org/2000/svg" xmlns:xlink="http://www.w3.org/1999/xlink">
<g id="graph0" class="graph" transform="scale(1 1) rotate(0) translate(4 169.8)">
<title>dependencies</title>
<polygon fill="white" stroke="transparent" points="-4,4 -4,-169.8 618,-169.8 618,4 -4,4"/>
<text text-anchor="middle" x="307" y="-8.2" font-family="sans-serif" font-size="14.00">dependencies</text>
<g id="clust1" class="cluster">
<title>cluster_FilesModule</title>
<polygon fill="none" stroke="black" stroke-dasharray="1,5" points="8,-32.8 8,-157.8 606,-157.8 606,-32.8 8,-32.8"/>
</g>
<g id="clust6" class="cluster">
<title>cluster_FilesModule_providers</title>
<polygon fill="none" stroke="black" points="140,-40.8 140,-92.8 598,-92.8 598,-40.8 140,-40.8"/>
</g>
<g id="clust3" class="cluster">
<title>cluster_FilesModule_imports</title>
<polygon fill="none" stroke="black" points="16,-40.8 16,-92.8 132,-92.8 132,-40.8 16,-40.8"/>
</g>
<!-- LoggerModule -->
<g id="node1" class="node">
<title>LoggerModule</title>
<polygon fill="#8dd3c7" stroke="black" points="123.98,-84.8 120.98,-88.8 99.98,-88.8 96.98,-84.8 24.02,-84.8 24.02,-48.8 123.98,-48.8 123.98,-84.8"/>
<text text-anchor="middle" x="74" y="-62.6" font-family="Times,serif" font-size="14.00">LoggerModule</text>
</g>
<!-- FilesModule -->
<g id="node2" class="node">
<title>FilesModule</title>
<polygon fill="#8dd3c7" stroke="black" points="318.28,-149.8 315.28,-153.8 294.28,-153.8 291.28,-149.8 231.72,-149.8 231.72,-113.8 318.28,-113.8 318.28,-149.8"/>
<text text-anchor="middle" x="275" y="-127.6" font-family="Times,serif" font-size="14.00">FilesModule</text>
</g>
<!-- LoggerModule&#45;&gt;FilesModule -->
<g id="edge1" class="edge">
<title>LoggerModule&#45;&gt;FilesModule</title>
<path fill="none" stroke="black" d="M74,-84.91C74,-104.14 74,-131.8 74,-131.8 74,-131.8 221.39,-131.8 221.39,-131.8"/>
<polygon fill="black" stroke="black" points="221.39,-135.3 231.39,-131.8 221.39,-128.3 221.39,-135.3"/>
</g>
<!-- DeleteFilesUc -->
<g id="node3" class="node">
<title>DeleteFilesUc</title>
<ellipse fill="#fdb462" stroke="black" cx="524" cy="-66.8" rx="66.05" ry="18"/>
<text text-anchor="middle" x="524" y="-62.6" font-family="Times,serif" font-size="14.00">DeleteFilesUc</text>
</g>
<!-- DeleteFilesUc&#45;&gt;FilesModule -->
<g id="edge2" class="edge">
<title>DeleteFilesUc&#45;&gt;FilesModule</title>
<path fill="none" stroke="black" d="M524,-84.91C524,-104.14 524,-131.8 524,-131.8 524,-131.8 328.37,-131.8 328.37,-131.8"/>
<polygon fill="black" stroke="black" points="328.37,-128.3 318.37,-131.8 328.37,-135.3 328.37,-128.3"/>
</g>
<!-- FileStorageAdapter -->
<g id="node4" class="node">
<title>FileStorageAdapter</title>
<ellipse fill="#fdb462" stroke="black" cx="353" cy="-66.8" rx="86.82" ry="18"/>
<text text-anchor="middle" x="353" y="-62.6" font-family="Times,serif" font-size="14.00">FileStorageAdapter</text>
</g>
<!-- FileStorageAdapter&#45;&gt;FilesModule -->
<g id="edge3" class="edge">
<title>FileStorageAdapter&#45;&gt;FilesModule</title>
<path fill="none" stroke="black" d="M292.36,-79.95C292.36,-79.95 292.36,-103.49 292.36,-103.49"/>
<polygon fill="black" stroke="black" points="288.86,-103.49 292.36,-113.49 295.86,-103.49 288.86,-103.49"/>
</g>
<!-- FilesRepo -->
<g id="node5" class="node">
<title>FilesRepo</title>
<ellipse fill="#fdb462" stroke="black" cx="198" cy="-66.8" rx="50.4" ry="18"/>
<text text-anchor="middle" x="198" y="-62.6" font-family="Times,serif" font-size="14.00">FilesRepo</text>
</g>
<!-- FilesRepo&#45;&gt;FilesModule -->
<g id="edge4" class="edge">
<title>FilesRepo&#45;&gt;FilesModule</title>
<path fill="none" stroke="black" d="M239.91,-76.96C239.91,-76.96 239.91,-103.61 239.91,-103.61"/>
<polygon fill="black" stroke="black" points="236.41,-103.61 239.91,-113.61 243.41,-103.61 236.41,-103.61"/>
</g>
</g>
</svg>
