<?xml version="1.0" encoding="UTF-8" standalone="no"?>
<!DOCTYPE svg PUBLIC "-//W3C//DTD SVG 1.1//EN"
 "http://www.w3.org/Graphics/SVG/1.1/DTD/svg11.dtd">
<!-- Generated by graphviz version 2.47.0 (20210316.0004)
 -->
<!-- Title: dependencies Pages: 1 -->
<svg width="2015pt" height="284pt"
 viewBox="0.00 0.00 2015.00 284.00" xmlns="http://www.w3.org/2000/svg" xmlns:xlink="http://www.w3.org/1999/xlink">
<g id="graph0" class="graph" transform="scale(1 1) rotate(0) translate(4 280)">
<title>dependencies</title>
<polygon fill="white" stroke="transparent" points="-4,4 -4,-280 2011,-280 2011,4 -4,4"/>
<text text-anchor="start" x="982.51" y="-42.4" font-family="Times-12" font-weight="bold" font-size="14.00">Legend</text>
<polygon fill="#ffffb3" stroke="transparent" points="769.5,-10 769.5,-30 789.5,-30 789.5,-10 769.5,-10"/>
<text text-anchor="start" x="793.13" y="-15.4" font-family="Times-12" font-size="14.00"> &#160;Declarations</text>
<polygon fill="#8dd3c7" stroke="transparent" points="882.5,-10 882.5,-30 902.5,-30 902.5,-10 882.5,-10"/>
<text text-anchor="start" x="906.23" y="-15.4" font-family="Times-12" font-size="14.00"> &#160;Module</text>
<polygon fill="#80b1d3" stroke="transparent" points="968.5,-10 968.5,-30 988.5,-30 988.5,-10 968.5,-10"/>
<text text-anchor="start" x="992.28" y="-15.4" font-family="Times-12" font-size="14.00"> &#160;Bootstrap</text>
<polygon fill="#fdb462" stroke="transparent" points="1065.5,-10 1065.5,-30 1085.5,-30 1085.5,-10 1065.5,-10"/>
<text text-anchor="start" x="1089.17" y="-15.4" font-family="Times-12" font-size="14.00"> &#160;Providers</text>
<polygon fill="#fb8072" stroke="transparent" points="1161.5,-10 1161.5,-30 1181.5,-30 1181.5,-10 1161.5,-10"/>
<text text-anchor="start" x="1185.23" y="-15.4" font-family="Times-12" font-size="14.00"> &#160;Exports</text>
<g id="clust1" class="cluster">
<title>cluster_OauthModule</title>
<polygon fill="none" stroke="black" stroke-dasharray="1,5" points="8,-70 8,-268 1999,-268 1999,-70 8,-70"/>
</g>
<g id="clust4" class="cluster">
<title>cluster_OauthModule_exports</title>
<polygon fill="none" stroke="black" points="834,-208 834,-260 1242,-260 1242,-208 834,-208"/>
</g>
<g id="clust3" class="cluster">
<title>cluster_OauthModule_imports</title>
<polygon fill="none" stroke="black" points="694,-78 694,-130 1991,-130 1991,-78 694,-78"/>
</g>
<g id="clust6" class="cluster">
<title>cluster_OauthModule_providers</title>
<polygon fill="none" stroke="black" points="16,-78 16,-130 686,-130 686,-78 16,-78"/>
</g>
<!-- AuthorizationModule -->
<g id="node1" class="node">
<title>AuthorizationModule</title>
<polygon fill="#8dd3c7" stroke="black" points="1982.81,-122 1979.81,-126 1958.81,-126 1955.81,-122 1845.19,-122 1845.19,-86 1982.81,-86 1982.81,-122"/>
<text text-anchor="middle" x="1914" y="-99.8" font-family="Times,serif" font-size="14.00">AuthorizationModule</text>
</g>
<!-- OauthModule -->
<g id="node10" class="node">
<title>OauthModule</title>
<polygon fill="#8dd3c7" stroke="black" points="1096.76,-187 1093.76,-191 1072.76,-191 1069.76,-187 1003.24,-187 1003.24,-151 1096.76,-151 1096.76,-187"/>
<text text-anchor="middle" x="1050" y="-164.8" font-family="Times,serif" font-size="14.00">OauthModule</text>
</g>
<!-- AuthorizationModule&#45;&gt;OauthModule -->
<g id="edge1" class="edge">
<title>AuthorizationModule&#45;&gt;OauthModule</title>
<path fill="none" stroke="black" d="M1914,-122.29C1914,-144.21 1914,-178 1914,-178 1914,-178 1107.07,-178 1107.07,-178"/>
<polygon fill="black" stroke="black" points="1107.07,-174.5 1097.07,-178 1107.07,-181.5 1107.07,-174.5"/>
</g>
<!-- CacheWrapperModule -->
<g id="node2" class="node">
<title>CacheWrapperModule</title>
<polygon fill="#8dd3c7" stroke="black" points="1828,-122 1825,-126 1804,-126 1801,-122 1684,-122 1684,-86 1828,-86 1828,-122"/>
<text text-anchor="middle" x="1756" y="-99.8" font-family="Times,serif" font-size="14.00">CacheWrapperModule</text>
</g>
<!-- CacheWrapperModule&#45;&gt;OauthModule -->
<g id="edge2" class="edge">
<title>CacheWrapperModule&#45;&gt;OauthModule</title>
<path fill="none" stroke="black" d="M1756,-122.03C1756,-142.77 1756,-174 1756,-174 1756,-174 1106.87,-174 1106.87,-174"/>
<polygon fill="black" stroke="black" points="1106.87,-170.5 1096.87,-174 1106.87,-177.5 1106.87,-170.5"/>
</g>
<!-- EncryptionModule -->
<g id="node3" class="node">
<title>EncryptionModule</title>
<polygon fill="#8dd3c7" stroke="black" points="1665.76,-122 1662.76,-126 1641.76,-126 1638.76,-122 1544.24,-122 1544.24,-86 1665.76,-86 1665.76,-122"/>
<text text-anchor="middle" x="1605" y="-99.8" font-family="Times,serif" font-size="14.00">EncryptionModule</text>
</g>
<!-- EncryptionModule&#45;&gt;OauthModule -->
<g id="edge3" class="edge">
<title>EncryptionModule&#45;&gt;OauthModule</title>
<path fill="none" stroke="black" d="M1605,-122.11C1605,-141.34 1605,-169 1605,-169 1605,-169 1106.84,-169 1106.84,-169"/>
<polygon fill="black" stroke="black" points="1106.84,-165.5 1096.84,-169 1106.84,-172.5 1106.84,-165.5"/>
</g>
<!-- LegacySchoolModule -->
<g id="node4" class="node">
<title>LegacySchoolModule</title>
<polygon fill="#8dd3c7" stroke="black" points="1525.63,-122 1522.63,-126 1501.63,-126 1498.63,-122 1386.37,-122 1386.37,-86 1525.63,-86 1525.63,-122"/>
<text text-anchor="middle" x="1456" y="-99.8" font-family="Times,serif" font-size="14.00">LegacySchoolModule</text>
</g>
<!-- LegacySchoolModule&#45;&gt;OauthModule -->
<g id="edge4" class="edge">
<title>LegacySchoolModule&#45;&gt;OauthModule</title>
<path fill="none" stroke="black" d="M1456,-122.3C1456,-140.27 1456,-165 1456,-165 1456,-165 1106.97,-165 1106.97,-165"/>
<polygon fill="black" stroke="black" points="1106.97,-161.5 1096.97,-165 1106.97,-168.5 1106.97,-161.5"/>
</g>
<!-- LoggerModule -->
<g id="node5" class="node">
<title>LoggerModule</title>
<polygon fill="#8dd3c7" stroke="black" points="1367.98,-122 1364.98,-126 1343.98,-126 1340.98,-122 1268.02,-122 1268.02,-86 1367.98,-86 1367.98,-122"/>
<text text-anchor="middle" x="1318" y="-99.8" font-family="Times,serif" font-size="14.00">LoggerModule</text>
</g>
<!-- LoggerModule&#45;&gt;OauthModule -->
<g id="edge5" class="edge">
<title>LoggerModule&#45;&gt;OauthModule</title>
<path fill="none" stroke="black" d="M1318,-122.03C1318,-138.4 1318,-160 1318,-160 1318,-160 1106.99,-160 1106.99,-160"/>
<polygon fill="black" stroke="black" points="1106.99,-156.5 1096.99,-160 1106.99,-163.5 1106.99,-156.5"/>
</g>
<!-- ProvisioningModule -->
<g id="node6" class="node">
<title>ProvisioningModule</title>
<polygon fill="#8dd3c7" stroke="black" points="1249.61,-122 1246.61,-126 1225.61,-126 1222.61,-122 1118.39,-122 1118.39,-86 1249.61,-86 1249.61,-122"/>
<text text-anchor="middle" x="1184" y="-99.8" font-family="Times,serif" font-size="14.00">ProvisioningModule</text>
</g>
<!-- ProvisioningModule&#45;&gt;OauthModule -->
<g id="edge6" class="edge">
<title>ProvisioningModule&#45;&gt;OauthModule</title>
<path fill="none" stroke="black" d="M1157.08,-122.19C1157.08,-137.18 1157.08,-156 1157.08,-156 1157.08,-156 1106.97,-156 1106.97,-156"/>
<polygon fill="black" stroke="black" points="1106.97,-152.5 1096.97,-156 1106.97,-159.5 1106.97,-152.5"/>
</g>
<!-- SystemModule -->
<g id="node7" class="node">
<title>SystemModule</title>
<polygon fill="#8dd3c7" stroke="black" points="1100.27,-122 1097.27,-126 1076.27,-126 1073.27,-122 999.73,-122 999.73,-86 1100.27,-86 1100.27,-122"/>
<text text-anchor="middle" x="1050" y="-99.8" font-family="Times,serif" font-size="14.00">SystemModule</text>
</g>
<!-- SystemModule&#45;&gt;OauthModule -->
<g id="edge7" class="edge">
<title>SystemModule&#45;&gt;OauthModule</title>
<path fill="none" stroke="black" d="M1050,-122.11C1050,-122.11 1050,-140.99 1050,-140.99"/>
<polygon fill="black" stroke="black" points="1046.5,-140.99 1050,-150.99 1053.5,-140.99 1046.5,-140.99"/>
</g>
<!-- UserLoginMigrationModule -->
<g id="node8" class="node">
<title>UserLoginMigrationModule</title>
<polygon fill="#8dd3c7" stroke="black" points="981.91,-122 978.91,-126 957.91,-126 954.91,-122 806.09,-122 806.09,-86 981.91,-86 981.91,-122"/>
<text text-anchor="middle" x="894" y="-99.8" font-family="Times,serif" font-size="14.00">UserLoginMigrationModule</text>
</g>
<!-- UserLoginMigrationModule&#45;&gt;OauthModule -->
<g id="edge8" class="edge">
<title>UserLoginMigrationModule&#45;&gt;OauthModule</title>
<path fill="none" stroke="black" d="M888.31,-122.19C888.31,-137.18 888.31,-156 888.31,-156 888.31,-156 993.23,-156 993.23,-156"/>
<polygon fill="black" stroke="black" points="993.23,-159.5 1003.23,-156 993.23,-152.5 993.23,-159.5"/>
</g>
<!-- UserModule -->
<g id="node9" class="node">
<title>UserModule</title>
<polygon fill="#8dd3c7" stroke="black" points="787.98,-122 784.98,-126 763.98,-126 760.98,-122 702.02,-122 702.02,-86 787.98,-86 787.98,-122"/>
<text text-anchor="middle" x="745" y="-99.8" font-family="Times,serif" font-size="14.00">UserModule</text>
</g>
<!-- UserModule&#45;&gt;OauthModule -->
<g id="edge9" class="edge">
<title>UserModule&#45;&gt;OauthModule</title>
<path fill="none" stroke="black" d="M745,-122.03C745,-138.4 745,-160 745,-160 745,-160 993.01,-160 993.01,-160"/>
<polygon fill="black" stroke="black" points="993.01,-163.5 1003.01,-160 993.01,-156.5 993.01,-163.5"/>
</g>
<!-- HydraSsoService  -->
<g id="node11" class="node">
<title>HydraSsoService </title>
<polygon fill="#fb8072" stroke="black" points="1234.19,-252 1117.81,-252 1117.81,-216 1234.19,-216 1234.19,-252"/>
<text text-anchor="middle" x="1176" y="-229.8" font-family="Times,serif" font-size="14.00">HydraSsoService </text>
</g>
<!-- OauthModule&#45;&gt;HydraSsoService  -->
<g id="edge10" class="edge">
<title>OauthModule&#45;&gt;HydraSsoService </title>
<path fill="none" stroke="black" stroke-dasharray="5,2" d="M1096.91,-183C1139.5,-183 1195.71,-183 1195.71,-183 1195.71,-183 1195.71,-205.88 1195.71,-205.88"/>
<polygon fill="black" stroke="black" points="1192.21,-205.88 1195.71,-215.88 1199.21,-205.88 1192.21,-205.88"/>
</g>
<!-- OAuthService  -->
<g id="node12" class="node">
<title>OAuthService </title>
<polygon fill="#fb8072" stroke="black" points="1099.58,-252 1000.42,-252 1000.42,-216 1099.58,-216 1099.58,-252"/>
<text text-anchor="middle" x="1050" y="-229.8" font-family="Times,serif" font-size="14.00">OAuthService </text>
</g>
<!-- OauthModule&#45;&gt;OAuthService  -->
<g id="edge11" class="edge">
<title>OauthModule&#45;&gt;OAuthService </title>
<path fill="none" stroke="black" stroke-dasharray="5,2" d="M1050,-187.11C1050,-187.11 1050,-205.99 1050,-205.99"/>
<polygon fill="black" stroke="black" points="1046.5,-205.99 1050,-215.99 1053.5,-205.99 1046.5,-205.99"/>
</g>
<!-- OauthAdapterService  -->
<g id="node13" class="node">
<title>OauthAdapterService </title>
<polygon fill="#fb8072" stroke="black" points="982.28,-252 841.72,-252 841.72,-216 982.28,-216 982.28,-252"/>
<text text-anchor="middle" x="912" y="-229.8" font-family="Times,serif" font-size="14.00">OauthAdapterService </text>
</g>
<!-- OauthModule&#45;&gt;OauthAdapterService  -->
<g id="edge12" class="edge">
<title>OauthModule&#45;&gt;OauthAdapterService </title>
<path fill="none" stroke="black" stroke-dasharray="5,2" d="M1003.23,-183C971.39,-183 935.01,-183 935.01,-183 935.01,-183 935.01,-205.88 935.01,-205.88"/>
<polygon fill="black" stroke="black" points="931.51,-205.88 935.01,-215.88 938.51,-205.88 931.51,-205.88"/>
</g>
<!-- HydraSsoService -->
<g id="node14" class="node">
<title>HydraSsoService</title>
<ellipse fill="#fdb462" stroke="black" cx="600" cy="-104" rx="78.15" ry="18"/>
<text text-anchor="middle" x="600" y="-99.8" font-family="Times,serif" font-size="14.00">HydraSsoService</text>
</g>
<!-- HydraSsoService&#45;&gt;OauthModule -->
<g id="edge13" class="edge">
<title>HydraSsoService&#45;&gt;OauthModule</title>
<path fill="none" stroke="black" d="M600,-122.3C600,-140.27 600,-165 600,-165 600,-165 993.12,-165 993.12,-165"/>
<polygon fill="black" stroke="black" points="993.12,-168.5 1003.12,-165 993.12,-161.5 993.12,-168.5"/>
</g>
<!-- LtiToolRepo -->
<g id="node15" class="node">
<title>LtiToolRepo</title>
<ellipse fill="#fdb462" stroke="black" cx="443" cy="-104" rx="60.85" ry="18"/>
<text text-anchor="middle" x="443" y="-99.8" font-family="Times,serif" font-size="14.00">LtiToolRepo</text>
</g>
<!-- LtiToolRepo&#45;&gt;OauthModule -->
<g id="edge14" class="edge">
<title>LtiToolRepo&#45;&gt;OauthModule</title>
<path fill="none" stroke="black" d="M443,-122.11C443,-141.34 443,-169 443,-169 443,-169 993.13,-169 993.13,-169"/>
<polygon fill="black" stroke="black" points="993.13,-172.5 1003.13,-169 993.13,-165.5 993.13,-172.5"/>
</g>
<!-- OAuthService -->
<g id="node16" class="node">
<title>OAuthService</title>
<ellipse fill="#fdb462" stroke="black" cx="298" cy="-104" rx="66.05" ry="18"/>
<text text-anchor="middle" x="298" y="-99.8" font-family="Times,serif" font-size="14.00">OAuthService</text>
</g>
<!-- OAuthService&#45;&gt;OauthModule -->
<g id="edge15" class="edge">
<title>OAuthService&#45;&gt;OauthModule</title>
<path fill="none" stroke="black" d="M298,-122.03C298,-142.77 298,-174 298,-174 298,-174 992.96,-174 992.96,-174"/>
<polygon fill="black" stroke="black" points="992.96,-177.5 1002.96,-174 992.96,-170.5 992.96,-177.5"/>
</g>
<!-- OauthAdapterService -->
<g id="node17" class="node">
<title>OauthAdapterService</title>
<ellipse fill="#fdb462" stroke="black" cx="119" cy="-104" rx="94.88" ry="18"/>
<text text-anchor="middle" x="119" y="-99.8" font-family="Times,serif" font-size="14.00">OauthAdapterService</text>
</g>
<!-- OauthAdapterService&#45;&gt;OauthModule -->
<g id="edge16" class="edge">
<title>OauthAdapterService&#45;&gt;OauthModule</title>
<path fill="none" stroke="black" d="M119,-122.29C119,-144.21 119,-178 119,-178 119,-178 993.19,-178 993.19,-178"/>
<polygon fill="black" stroke="black" points="993.19,-181.5 1003.19,-178 993.19,-174.5 993.19,-181.5"/>
</g>
</g>
</svg>
