<?xml version="1.0" encoding="UTF-8" standalone="no"?>
<!DOCTYPE svg PUBLIC "-//W3C//DTD SVG 1.1//EN"
 "http://www.w3.org/Graphics/SVG/1.1/DTD/svg11.dtd">
<!-- Generated by graphviz version 2.47.0 (20210316.0004)
 -->
<!-- Title: dependencies Pages: 1 -->
<svg width="1974pt" height="284pt"
 viewBox="0.00 0.00 1974.00 284.00" xmlns="http://www.w3.org/2000/svg" xmlns:xlink="http://www.w3.org/1999/xlink">
<g id="graph0" class="graph" transform="scale(1 1) rotate(0) translate(4 280)">
<title>dependencies</title>
<polygon fill="white" stroke="transparent" points="-4,4 -4,-280 1970,-280 1970,4 -4,4"/>
<text text-anchor="start" x="962.01" y="-42.4" font-family="Times-12" font-weight="bold" font-size="14.00">Legend</text>
<polygon fill="#ffffb3" stroke="transparent" points="749,-10 749,-30 769,-30 769,-10 749,-10"/>
<text text-anchor="start" x="772.63" y="-15.4" font-family="Times-12" font-size="14.00"> &#160;Declarations</text>
<polygon fill="#8dd3c7" stroke="transparent" points="862,-10 862,-30 882,-30 882,-10 862,-10"/>
<text text-anchor="start" x="885.73" y="-15.4" font-family="Times-12" font-size="14.00"> &#160;Module</text>
<polygon fill="#80b1d3" stroke="transparent" points="948,-10 948,-30 968,-30 968,-10 948,-10"/>
<text text-anchor="start" x="971.78" y="-15.4" font-family="Times-12" font-size="14.00"> &#160;Bootstrap</text>
<polygon fill="#fdb462" stroke="transparent" points="1045,-10 1045,-30 1065,-30 1065,-10 1045,-10"/>
<text text-anchor="start" x="1068.67" y="-15.4" font-family="Times-12" font-size="14.00"> &#160;Providers</text>
<polygon fill="#fb8072" stroke="transparent" points="1141,-10 1141,-30 1161,-30 1161,-10 1141,-10"/>
<text text-anchor="start" x="1164.73" y="-15.4" font-family="Times-12" font-size="14.00"> &#160;Exports</text>
<g id="clust1" class="cluster">
<title>cluster_OauthModule</title>
<polygon fill="none" stroke="black" stroke-dasharray="1,5" points="8,-70 8,-268 1958,-268 1958,-70 8,-70"/>
</g>
<g id="clust3" class="cluster">
<title>cluster_OauthModule_imports</title>
<polygon fill="none" stroke="black" points="694,-78 694,-130 1950,-130 1950,-78 694,-78"/>
</g>
<g id="clust4" class="cluster">
<title>cluster_OauthModule_exports</title>
<polygon fill="none" stroke="black" points="929,-208 929,-260 1179,-260 1179,-208 929,-208"/>
</g>
<g id="clust6" class="cluster">
<title>cluster_OauthModule_providers</title>
<polygon fill="none" stroke="black" points="16,-78 16,-130 686,-130 686,-78 16,-78"/>
</g>
<!-- AuthorizationModule -->
<g id="node1" class="node">
<title>AuthorizationModule</title>
<polygon fill="#8dd3c7" stroke="black" points="1941.81,-122 1938.81,-126 1917.81,-126 1914.81,-122 1804.19,-122 1804.19,-86 1941.81,-86 1941.81,-122"/>
<text text-anchor="middle" x="1873" y="-99.8" font-family="Times,serif" font-size="14.00">AuthorizationModule</text>
</g>
<!-- OauthModule -->
<g id="node10" class="node">
<title>OauthModule</title>
<polygon fill="#8dd3c7" stroke="black" points="1096.76,-187 1093.76,-191 1072.76,-191 1069.76,-187 1003.24,-187 1003.24,-151 1096.76,-151 1096.76,-187"/>
<text text-anchor="middle" x="1050" y="-164.8" font-family="Times,serif" font-size="14.00">OauthModule</text>
</g>
<!-- AuthorizationModule&#45;&gt;OauthModule -->
<g id="edge1" class="edge">
<title>AuthorizationModule&#45;&gt;OauthModule</title>
<path fill="none" stroke="black" d="M1873,-122.09C1873,-145.13 1873,-182 1873,-182 1873,-182 1106.9,-182 1106.9,-182"/>
<polygon fill="black" stroke="black" points="1106.9,-178.5 1096.9,-182 1106.9,-185.5 1106.9,-178.5"/>
</g>
<!-- CacheWrapperModule -->
<g id="node2" class="node">
<title>CacheWrapperModule</title>
<polygon fill="#8dd3c7" stroke="black" points="1787,-122 1784,-126 1763,-126 1760,-122 1643,-122 1643,-86 1787,-86 1787,-122"/>
<text text-anchor="middle" x="1715" y="-99.8" font-family="Times,serif" font-size="14.00">CacheWrapperModule</text>
</g>
<!-- CacheWrapperModule&#45;&gt;OauthModule -->
<g id="edge2" class="edge">
<title>CacheWrapperModule&#45;&gt;OauthModule</title>
<path fill="none" stroke="black" d="M1715,-122.04C1715,-143.66 1715,-177 1715,-177 1715,-177 1107.03,-177 1107.03,-177"/>
<polygon fill="black" stroke="black" points="1107.03,-173.5 1097.03,-177 1107.03,-180.5 1107.03,-173.5"/>
</g>
<!-- EncryptionModule -->
<g id="node3" class="node">
<title>EncryptionModule</title>
<polygon fill="#8dd3c7" stroke="black" points="1624.76,-122 1621.76,-126 1600.76,-126 1597.76,-122 1503.24,-122 1503.24,-86 1624.76,-86 1624.76,-122"/>
<text text-anchor="middle" x="1564" y="-99.8" font-family="Times,serif" font-size="14.00">EncryptionModule</text>
</g>
<!-- EncryptionModule&#45;&gt;OauthModule -->
<g id="edge3" class="edge">
<title>EncryptionModule&#45;&gt;OauthModule</title>
<path fill="none" stroke="black" d="M1564,-122.22C1564,-142.37 1564,-172 1564,-172 1564,-172 1106.98,-172 1106.98,-172"/>
<polygon fill="black" stroke="black" points="1106.98,-168.5 1096.98,-172 1106.98,-175.5 1106.98,-168.5"/>
</g>
<!-- LoggerModule -->
<g id="node4" class="node">
<title>LoggerModule</title>
<polygon fill="#8dd3c7" stroke="black" points="1484.98,-122 1481.98,-126 1460.98,-126 1457.98,-122 1385.02,-122 1385.02,-86 1484.98,-86 1484.98,-122"/>
<text text-anchor="middle" x="1435" y="-99.8" font-family="Times,serif" font-size="14.00">LoggerModule</text>
</g>
<!-- LoggerModule&#45;&gt;OauthModule -->
<g id="edge4" class="edge">
<title>LoggerModule&#45;&gt;OauthModule</title>
<path fill="none" stroke="black" d="M1435,-122.22C1435,-140.83 1435,-167 1435,-167 1435,-167 1106.82,-167 1106.82,-167"/>
<polygon fill="black" stroke="black" points="1106.82,-163.5 1096.82,-167 1106.82,-170.5 1106.82,-163.5"/>
</g>
<!-- ProvisioningModule -->
<g id="node5" class="node">
<title>ProvisioningModule</title>
<polygon fill="#8dd3c7" stroke="black" points="1366.61,-122 1363.61,-126 1342.61,-126 1339.61,-122 1235.39,-122 1235.39,-86 1366.61,-86 1366.61,-122"/>
<text text-anchor="middle" x="1301" y="-99.8" font-family="Times,serif" font-size="14.00">ProvisioningModule</text>
</g>
<!-- ProvisioningModule&#45;&gt;OauthModule -->
<g id="edge5" class="edge">
<title>ProvisioningModule&#45;&gt;OauthModule</title>
<path fill="none" stroke="black" d="M1301,-122.03C1301,-139.06 1301,-162 1301,-162 1301,-162 1106.92,-162 1106.92,-162"/>
<polygon fill="black" stroke="black" points="1106.92,-158.5 1096.92,-162 1106.92,-165.5 1106.92,-158.5"/>
</g>
<!-- SchoolModule -->
<g id="node6" class="node">
<title>SchoolModule</title>
<polygon fill="#8dd3c7" stroke="black" points="1217.44,-122 1214.44,-126 1193.44,-126 1190.44,-122 1118.56,-122 1118.56,-86 1217.44,-86 1217.44,-122"/>
<text text-anchor="middle" x="1168" y="-99.8" font-family="Times,serif" font-size="14.00">SchoolModule</text>
</g>
<!-- SchoolModule&#45;&gt;OauthModule -->
<g id="edge6" class="edge">
<title>SchoolModule&#45;&gt;OauthModule</title>
<path fill="none" stroke="black" d="M1145.06,-122.24C1145.06,-137.57 1145.06,-157 1145.06,-157 1145.06,-157 1106.97,-157 1106.97,-157"/>
<polygon fill="black" stroke="black" points="1106.97,-153.5 1096.97,-157 1106.97,-160.5 1106.97,-153.5"/>
</g>
<!-- SystemModule -->
<g id="node7" class="node">
<title>SystemModule</title>
<polygon fill="#8dd3c7" stroke="black" points="1100.27,-122 1097.27,-126 1076.27,-126 1073.27,-122 999.73,-122 999.73,-86 1100.27,-86 1100.27,-122"/>
<text text-anchor="middle" x="1050" y="-99.8" font-family="Times,serif" font-size="14.00">SystemModule</text>
</g>
<!-- SystemModule&#45;&gt;OauthModule -->
<g id="edge7" class="edge">
<title>SystemModule&#45;&gt;OauthModule</title>
<path fill="none" stroke="black" d="M1050,-122.11C1050,-122.11 1050,-140.99 1050,-140.99"/>
<polygon fill="black" stroke="black" points="1046.5,-140.99 1050,-150.99 1053.5,-140.99 1046.5,-140.99"/>
</g>
<!-- UserLoginMigrationModule -->
<g id="node8" class="node">
<title>UserLoginMigrationModule</title>
<polygon fill="#8dd3c7" stroke="black" points="981.91,-122 978.91,-126 957.91,-126 954.91,-122 806.09,-122 806.09,-86 981.91,-86 981.91,-122"/>
<text text-anchor="middle" x="894" y="-99.8" font-family="Times,serif" font-size="14.00">UserLoginMigrationModule</text>
</g>
<!-- UserLoginMigrationModule&#45;&gt;OauthModule -->
<g id="edge8" class="edge">
<title>UserLoginMigrationModule&#45;&gt;OauthModule</title>
<path fill="none" stroke="black" d="M959.46,-122.24C959.46,-137.57 959.46,-157 959.46,-157 959.46,-157 993.14,-157 993.14,-157"/>
<polygon fill="black" stroke="black" points="993.14,-160.5 1003.14,-157 993.14,-153.5 993.14,-160.5"/>
</g>
<!-- UserModule -->
<g id="node9" class="node">
<title>UserModule</title>
<polygon fill="#8dd3c7" stroke="black" points="787.98,-122 784.98,-126 763.98,-126 760.98,-122 702.02,-122 702.02,-86 787.98,-86 787.98,-122"/>
<text text-anchor="middle" x="745" y="-99.8" font-family="Times,serif" font-size="14.00">UserModule</text>
</g>
<!-- UserModule&#45;&gt;OauthModule -->
<g id="edge9" class="edge">
<title>UserModule&#45;&gt;OauthModule</title>
<path fill="none" stroke="black" d="M745,-122.03C745,-139.06 745,-162 745,-162 745,-162 993.01,-162 993.01,-162"/>
<polygon fill="black" stroke="black" points="993.01,-165.5 1003.01,-162 993.01,-158.5 993.01,-165.5"/>
</g>
<!-- HydraSsoService  -->
<g id="node11" class="node">
<title>HydraSsoService </title>
<polygon fill="#fb8072" stroke="black" points="1171.19,-252 1054.81,-252 1054.81,-216 1171.19,-216 1171.19,-252"/>
<text text-anchor="middle" x="1113" y="-229.8" font-family="Times,serif" font-size="14.00">HydraSsoService </text>
</g>
<!-- OauthModule&#45;&gt;HydraSsoService  -->
<g id="edge10" class="edge">
<title>OauthModule&#45;&gt;HydraSsoService </title>
<path fill="none" stroke="black" stroke-dasharray="5,2" d="M1075.77,-187.11C1075.77,-187.11 1075.77,-205.99 1075.77,-205.99"/>
<polygon fill="black" stroke="black" points="1072.27,-205.99 1075.77,-215.99 1079.27,-205.99 1072.27,-205.99"/>
</g>
<!-- OAuthService  -->
<g id="node12" class="node">
<title>OAuthService </title>
<polygon fill="#fb8072" stroke="black" points="1036.58,-252 937.42,-252 937.42,-216 1036.58,-216 1036.58,-252"/>
<text text-anchor="middle" x="987" y="-229.8" font-family="Times,serif" font-size="14.00">OAuthService </text>
</g>
<!-- OauthModule&#45;&gt;OAuthService  -->
<g id="edge11" class="edge">
<title>OauthModule&#45;&gt;OAuthService </title>
<path fill="none" stroke="black" stroke-dasharray="5,2" d="M1019.95,-187.11C1019.95,-187.11 1019.95,-205.99 1019.95,-205.99"/>
<polygon fill="black" stroke="black" points="1016.46,-205.99 1019.95,-215.99 1023.46,-205.99 1016.46,-205.99"/>
</g>
<!-- HydraSsoService -->
<g id="node13" class="node">
<title>HydraSsoService</title>
<ellipse fill="#fdb462" stroke="black" cx="600" cy="-104" rx="78.15" ry="18"/>
<text text-anchor="middle" x="600" y="-99.8" font-family="Times,serif" font-size="14.00">HydraSsoService</text>
</g>
<!-- HydraSsoService&#45;&gt;OauthModule -->
<g id="edge12" class="edge">
<title>HydraSsoService&#45;&gt;OauthModule</title>
<path fill="none" stroke="black" d="M600,-122.22C600,-140.83 600,-167 600,-167 600,-167 993.12,-167 993.12,-167"/>
<polygon fill="black" stroke="black" points="993.12,-170.5 1003.12,-167 993.12,-163.5 993.12,-170.5"/>
</g>
<!-- LtiToolRepo -->
<g id="node14" class="node">
<title>LtiToolRepo</title>
<ellipse fill="#fdb462" stroke="black" cx="443" cy="-104" rx="60.85" ry="18"/>
<text text-anchor="middle" x="443" y="-99.8" font-family="Times,serif" font-size="14.00">LtiToolRepo</text>
</g>
<!-- LtiToolRepo&#45;&gt;OauthModule -->
<g id="edge13" class="edge">
<title>LtiToolRepo&#45;&gt;OauthModule</title>
<path fill="none" stroke="black" d="M443,-122.22C443,-142.37 443,-172 443,-172 443,-172 993.13,-172 993.13,-172"/>
<polygon fill="black" stroke="black" points="993.13,-175.5 1003.13,-172 993.13,-168.5 993.13,-175.5"/>
</g>
<!-- OAuthService -->
<g id="node15" class="node">
<title>OAuthService</title>
<ellipse fill="#fdb462" stroke="black" cx="298" cy="-104" rx="66.05" ry="18"/>
<text text-anchor="middle" x="298" y="-99.8" font-family="Times,serif" font-size="14.00">OAuthService</text>
</g>
<!-- OAuthService&#45;&gt;OauthModule -->
<g id="edge14" class="edge">
<title>OAuthService&#45;&gt;OauthModule</title>
<path fill="none" stroke="black" d="M298,-122.04C298,-143.66 298,-177 298,-177 298,-177 992.96,-177 992.96,-177"/>
<polygon fill="black" stroke="black" points="992.96,-180.5 1002.96,-177 992.96,-173.5 992.96,-180.5"/>
</g>
<!-- OauthAdapterService -->
<g id="node16" class="node">
<title>OauthAdapterService</title>
<ellipse fill="#fdb462" stroke="black" cx="119" cy="-104" rx="94.88" ry="18"/>
<text text-anchor="middle" x="119" y="-99.8" font-family="Times,serif" font-size="14.00">OauthAdapterService</text>
</g>
<!-- OauthAdapterService&#45;&gt;OauthModule -->
<g id="edge15" class="edge">
<title>OauthAdapterService&#45;&gt;OauthModule</title>
<path fill="none" stroke="black" d="M119,-122.09C119,-145.13 119,-182 119,-182 119,-182 993.19,-182 993.19,-182"/>
<polygon fill="black" stroke="black" points="993.19,-185.5 1003.19,-182 993.19,-178.5 993.19,-185.5"/>
</g>
</g>
</svg>
