<?xml version="1.0" encoding="UTF-8" standalone="no"?>
<!DOCTYPE svg PUBLIC "-//W3C//DTD SVG 1.1//EN"
 "http://www.w3.org/Graphics/SVG/1.1/DTD/svg11.dtd">
<!-- Generated by graphviz version 5.0.0 (20220707.1540)
 -->
<!-- Title: dependencies Pages: 1 -->
<svg width="1974pt" height="247pt"
 viewBox="0.00 0.00 1974.00 246.80" xmlns="http://www.w3.org/2000/svg" xmlns:xlink="http://www.w3.org/1999/xlink">
<g id="graph0" class="graph" transform="scale(1 1) rotate(0) translate(4 242.8)">
<title>dependencies</title>
<polygon fill="white" stroke="transparent" points="-4,4 -4,-242.8 1970,-242.8 1970,4 -4,4"/>
<text text-anchor="middle" x="983" y="-8.2" font-family="sans-serif" font-size="14.00">dependencies</text>
<g id="clust1" class="cluster">
<title>cluster_OauthModule</title>
<polygon fill="none" stroke="black" stroke-dasharray="1,5" points="8,-32.8 8,-230.8 1958,-230.8 1958,-32.8 8,-32.8"/>
</g>
<g id="clust4" class="cluster">
<title>cluster_OauthModule_exports</title>
<polygon fill="none" stroke="black" points="929,-170.8 929,-222.8 1179,-222.8 1179,-170.8 929,-170.8"/>
</g>
<g id="clust3" class="cluster">
<title>cluster_OauthModule_imports</title>
<polygon fill="none" stroke="black" points="694,-40.8 694,-92.8 1950,-92.8 1950,-40.8 694,-40.8"/>
</g>
<g id="clust6" class="cluster">
<title>cluster_OauthModule_providers</title>
<polygon fill="none" stroke="black" points="16,-40.8 16,-92.8 686,-92.8 686,-40.8 16,-40.8"/>
</g>
<!-- AuthorizationModule -->
<g id="node1" class="node">
<title>AuthorizationModule</title>
<polygon fill="#8dd3c7" stroke="black" points="1941.81,-84.8 1938.81,-88.8 1917.81,-88.8 1914.81,-84.8 1804.19,-84.8 1804.19,-48.8 1941.81,-48.8 1941.81,-84.8"/>
<text text-anchor="middle" x="1873" y="-62.6" font-family="Times,serif" font-size="14.00">AuthorizationModule</text>
</g>
<!-- OauthModule -->
<g id="node10" class="node">
<title>OauthModule</title>
<polygon fill="#8dd3c7" stroke="black" points="1096.77,-149.8 1093.77,-153.8 1072.77,-153.8 1069.77,-149.8 1003.23,-149.8 1003.23,-113.8 1096.77,-113.8 1096.77,-149.8"/>
<text text-anchor="middle" x="1050" y="-127.6" font-family="Times,serif" font-size="14.00">OauthModule</text>
</g>
<!-- AuthorizationModule&#45;&gt;OauthModule -->
<g id="edge1" class="edge">
<title>AuthorizationModule&#45;&gt;OauthModule</title>
<path fill="none" stroke="black" d="M1873,-84.89C1873,-107.93 1873,-144.8 1873,-144.8 1873,-144.8 1106.9,-144.8 1106.9,-144.8"/>
<polygon fill="black" stroke="black" points="1106.9,-141.3 1096.9,-144.8 1106.9,-148.3 1106.9,-141.3"/>
</g>
<!-- CacheWrapperModule -->
<g id="node2" class="node">
<title>CacheWrapperModule</title>
<polygon fill="#8dd3c7" stroke="black" points="1787,-84.8 1784,-88.8 1763,-88.8 1760,-84.8 1643,-84.8 1643,-48.8 1787,-48.8 1787,-84.8"/>
<text text-anchor="middle" x="1715" y="-62.6" font-family="Times,serif" font-size="14.00">CacheWrapperModule</text>
</g>
<!-- CacheWrapperModule&#45;&gt;OauthModule -->
<g id="edge2" class="edge">
<title>CacheWrapperModule&#45;&gt;OauthModule</title>
<path fill="none" stroke="black" d="M1715,-84.84C1715,-106.46 1715,-139.8 1715,-139.8 1715,-139.8 1107.03,-139.8 1107.03,-139.8"/>
<polygon fill="black" stroke="black" points="1107.03,-136.3 1097.03,-139.8 1107.03,-143.3 1107.03,-136.3"/>
</g>
<!-- EncryptionModule -->
<g id="node3" class="node">
<title>EncryptionModule</title>
<polygon fill="#8dd3c7" stroke="black" points="1624.76,-84.8 1621.76,-88.8 1600.76,-88.8 1597.76,-84.8 1503.24,-84.8 1503.24,-48.8 1624.76,-48.8 1624.76,-84.8"/>
<text text-anchor="middle" x="1564" y="-62.6" font-family="Times,serif" font-size="14.00">EncryptionModule</text>
</g>
<!-- EncryptionModule&#45;&gt;OauthModule -->
<g id="edge3" class="edge">
<title>EncryptionModule&#45;&gt;OauthModule</title>
<path fill="none" stroke="black" d="M1564,-85.02C1564,-105.17 1564,-134.8 1564,-134.8 1564,-134.8 1106.98,-134.8 1106.98,-134.8"/>
<polygon fill="black" stroke="black" points="1106.98,-131.3 1096.98,-134.8 1106.98,-138.3 1106.98,-131.3"/>
</g>
<!-- LoggerModule -->
<g id="node4" class="node">
<title>LoggerModule</title>
<polygon fill="#8dd3c7" stroke="black" points="1484.98,-84.8 1481.98,-88.8 1460.98,-88.8 1457.98,-84.8 1385.02,-84.8 1385.02,-48.8 1484.98,-48.8 1484.98,-84.8"/>
<text text-anchor="middle" x="1435" y="-62.6" font-family="Times,serif" font-size="14.00">LoggerModule</text>
</g>
<!-- LoggerModule&#45;&gt;OauthModule -->
<g id="edge4" class="edge">
<title>LoggerModule&#45;&gt;OauthModule</title>
<path fill="none" stroke="black" d="M1435,-85.02C1435,-103.63 1435,-129.8 1435,-129.8 1435,-129.8 1106.82,-129.8 1106.82,-129.8"/>
<polygon fill="black" stroke="black" points="1106.82,-126.3 1096.82,-129.8 1106.82,-133.3 1106.82,-126.3"/>
</g>
<!-- ProvisioningModule -->
<g id="node5" class="node">
<title>ProvisioningModule</title>
<polygon fill="#8dd3c7" stroke="black" points="1366.62,-84.8 1363.62,-88.8 1342.62,-88.8 1339.62,-84.8 1235.38,-84.8 1235.38,-48.8 1366.62,-48.8 1366.62,-84.8"/>
<text text-anchor="middle" x="1301" y="-62.6" font-family="Times,serif" font-size="14.00">ProvisioningModule</text>
</g>
<!-- ProvisioningModule&#45;&gt;OauthModule -->
<g id="edge5" class="edge">
<title>ProvisioningModule&#45;&gt;OauthModule</title>
<path fill="none" stroke="black" d="M1301,-84.83C1301,-101.86 1301,-124.8 1301,-124.8 1301,-124.8 1106.92,-124.8 1106.92,-124.8"/>
<polygon fill="black" stroke="black" points="1106.92,-121.3 1096.92,-124.8 1106.92,-128.3 1106.92,-121.3"/>
</g>
<!-- SchoolModule -->
<g id="node6" class="node">
<title>SchoolModule</title>
<polygon fill="#8dd3c7" stroke="black" points="1217.44,-84.8 1214.44,-88.8 1193.44,-88.8 1190.44,-84.8 1118.56,-84.8 1118.56,-48.8 1217.44,-48.8 1217.44,-84.8"/>
<text text-anchor="middle" x="1168" y="-62.6" font-family="Times,serif" font-size="14.00">SchoolModule</text>
</g>
<!-- SchoolModule&#45;&gt;OauthModule -->
<g id="edge6" class="edge">
<title>SchoolModule&#45;&gt;OauthModule</title>
<path fill="none" stroke="black" d="M1145.06,-85.04C1145.06,-100.37 1145.06,-119.8 1145.06,-119.8 1145.06,-119.8 1106.98,-119.8 1106.98,-119.8"/>
<polygon fill="black" stroke="black" points="1106.98,-116.3 1096.98,-119.8 1106.98,-123.3 1106.98,-116.3"/>
</g>
<!-- SystemModule -->
<g id="node7" class="node">
<title>SystemModule</title>
<polygon fill="#8dd3c7" stroke="black" points="1100.28,-84.8 1097.28,-88.8 1076.28,-88.8 1073.28,-84.8 999.72,-84.8 999.72,-48.8 1100.28,-48.8 1100.28,-84.8"/>
<text text-anchor="middle" x="1050" y="-62.6" font-family="Times,serif" font-size="14.00">SystemModule</text>
</g>
<!-- SystemModule&#45;&gt;OauthModule -->
<g id="edge7" class="edge">
<title>SystemModule&#45;&gt;OauthModule</title>
<path fill="none" stroke="black" d="M1050,-84.91C1050,-84.91 1050,-103.79 1050,-103.79"/>
<polygon fill="black" stroke="black" points="1046.5,-103.79 1050,-113.79 1053.5,-103.79 1046.5,-103.79"/>
</g>
<!-- UserLoginMigrationModule -->
<g id="node8" class="node">
<title>UserLoginMigrationModule</title>
<polygon fill="#8dd3c7" stroke="black" points="981.92,-84.8 978.92,-88.8 957.92,-88.8 954.92,-84.8 806.08,-84.8 806.08,-48.8 981.92,-48.8 981.92,-84.8"/>
<text text-anchor="middle" x="894" y="-62.6" font-family="Times,serif" font-size="14.00">UserLoginMigrationModule</text>
</g>
<!-- UserLoginMigrationModule&#45;&gt;OauthModule -->
<g id="edge8" class="edge">
<title>UserLoginMigrationModule&#45;&gt;OauthModule</title>
<path fill="none" stroke="black" d="M959.46,-85.04C959.46,-100.37 959.46,-119.8 959.46,-119.8 959.46,-119.8 993.14,-119.8 993.14,-119.8"/>
<polygon fill="black" stroke="black" points="993.14,-123.3 1003.14,-119.8 993.14,-116.3 993.14,-123.3"/>
</g>
<!-- UserModule -->
<g id="node9" class="node">
<title>UserModule</title>
<polygon fill="#8dd3c7" stroke="black" points="787.99,-84.8 784.99,-88.8 763.99,-88.8 760.99,-84.8 702.01,-84.8 702.01,-48.8 787.99,-48.8 787.99,-84.8"/>
<text text-anchor="middle" x="745" y="-62.6" font-family="Times,serif" font-size="14.00">UserModule</text>
</g>
<!-- UserModule&#45;&gt;OauthModule -->
<g id="edge9" class="edge">
<title>UserModule&#45;&gt;OauthModule</title>
<path fill="none" stroke="black" d="M745,-84.83C745,-101.86 745,-124.8 745,-124.8 745,-124.8 993.01,-124.8 993.01,-124.8"/>
<polygon fill="black" stroke="black" points="993.01,-128.3 1003.01,-124.8 993.01,-121.3 993.01,-128.3"/>
</g>
<!-- HydraSsoService  -->
<g id="node11" class="node">
<title>HydraSsoService </title>
<polygon fill="#fb8072" stroke="black" points="1171.2,-214.8 1054.8,-214.8 1054.8,-178.8 1171.2,-178.8 1171.2,-214.8"/>
<text text-anchor="middle" x="1113" y="-192.6" font-family="Times,serif" font-size="14.00">HydraSsoService </text>
</g>
<!-- OauthModule&#45;&gt;HydraSsoService  -->
<g id="edge10" class="edge">
<title>OauthModule&#45;&gt;HydraSsoService </title>
<path fill="none" stroke="black" stroke-dasharray="5,2" d="M1075.77,-149.91C1075.77,-149.91 1075.77,-168.79 1075.77,-168.79"/>
<polygon fill="black" stroke="black" points="1072.27,-168.79 1075.77,-178.79 1079.27,-168.79 1072.27,-168.79"/>
</g>
<!-- OAuthService  -->
<g id="node12" class="node">
<title>OAuthService </title>
<polygon fill="#fb8072" stroke="black" points="1036.59,-214.8 937.41,-214.8 937.41,-178.8 1036.59,-178.8 1036.59,-214.8"/>
<text text-anchor="middle" x="987" y="-192.6" font-family="Times,serif" font-size="14.00">OAuthService </text>
</g>
<!-- OauthModule&#45;&gt;OAuthService  -->
<g id="edge11" class="edge">
<title>OauthModule&#45;&gt;OAuthService </title>
<path fill="none" stroke="black" stroke-dasharray="5,2" d="M1019.96,-149.91C1019.96,-149.91 1019.96,-168.79 1019.96,-168.79"/>
<polygon fill="black" stroke="black" points="1016.46,-168.79 1019.96,-178.79 1023.46,-168.79 1016.46,-168.79"/>
</g>
<!-- HydraSsoService -->
<g id="node13" class="node">
<title>HydraSsoService</title>
<ellipse fill="#fdb462" stroke="black" cx="600" cy="-66.8" rx="78.17" ry="18"/>
<text text-anchor="middle" x="600" y="-62.6" font-family="Times,serif" font-size="14.00">HydraSsoService</text>
</g>
<!-- HydraSsoService&#45;&gt;OauthModule -->
<g id="edge12" class="edge">
<title>HydraSsoService&#45;&gt;OauthModule</title>
<path fill="none" stroke="black" d="M600,-85.02C600,-103.63 600,-129.8 600,-129.8 600,-129.8 993.12,-129.8 993.12,-129.8"/>
<polygon fill="black" stroke="black" points="993.12,-133.3 1003.12,-129.8 993.12,-126.3 993.12,-133.3"/>
</g>
<!-- LtiToolRepo -->
<g id="node14" class="node">
<title>LtiToolRepo</title>
<ellipse fill="#fdb462" stroke="black" cx="443" cy="-66.8" rx="60.85" ry="18"/>
<text text-anchor="middle" x="443" y="-62.6" font-family="Times,serif" font-size="14.00">LtiToolRepo</text>
</g>
<!-- LtiToolRepo&#45;&gt;OauthModule -->
<g id="edge13" class="edge">
<title>LtiToolRepo&#45;&gt;OauthModule</title>
<path fill="none" stroke="black" d="M443,-85.02C443,-105.17 443,-134.8 443,-134.8 443,-134.8 993.13,-134.8 993.13,-134.8"/>
<polygon fill="black" stroke="black" points="993.13,-138.3 1003.13,-134.8 993.13,-131.3 993.13,-138.3"/>
</g>
<!-- OAuthService -->
<g id="node15" class="node">
<title>OAuthService</title>
<ellipse fill="#fdb462" stroke="black" cx="298" cy="-66.8" rx="66.06" ry="18"/>
<text text-anchor="middle" x="298" y="-62.6" font-family="Times,serif" font-size="14.00">OAuthService</text>
</g>
<!-- OAuthService&#45;&gt;OauthModule -->
<g id="edge14" class="edge">
<title>OAuthService&#45;&gt;OauthModule</title>
<path fill="none" stroke="black" d="M298,-84.84C298,-106.46 298,-139.8 298,-139.8 298,-139.8 992.96,-139.8 992.96,-139.8"/>
<polygon fill="black" stroke="black" points="992.96,-143.3 1002.96,-139.8 992.96,-136.3 992.96,-143.3"/>
</g>
<!-- OauthAdapterService -->
<g id="node16" class="node">
<title>OauthAdapterService</title>
<ellipse fill="#fdb462" stroke="black" cx="119" cy="-66.8" rx="94.89" ry="18"/>
<text text-anchor="middle" x="119" y="-62.6" font-family="Times,serif" font-size="14.00">OauthAdapterService</text>
</g>
<!-- OauthAdapterService&#45;&gt;OauthModule -->
<g id="edge15" class="edge">
<title>OauthAdapterService&#45;&gt;OauthModule</title>
<path fill="none" stroke="black" d="M119,-84.89C119,-107.93 119,-144.8 119,-144.8 119,-144.8 993.19,-144.8 993.19,-144.8"/>
<polygon fill="black" stroke="black" points="993.19,-148.3 1003.19,-144.8 993.19,-141.3 993.19,-148.3"/>
</g>
</g>
</svg>
