<?xml version="1.0" encoding="UTF-8" standalone="no"?>
<!DOCTYPE svg PUBLIC "-//W3C//DTD SVG 1.1//EN"
 "http://www.w3.org/Graphics/SVG/1.1/DTD/svg11.dtd">
<!-- Generated by graphviz version 5.0.0 (20220707.1540)
 -->
<!-- Title: dependencies Pages: 1 -->
<svg width="1974pt" height="247pt"
 viewBox="0.00 0.00 1974.00 246.80" xmlns="http://www.w3.org/2000/svg" xmlns:xlink="http://www.w3.org/1999/xlink">
<g id="graph0" class="graph" transform="scale(1 1) rotate(0) translate(4 242.8)">
<title>dependencies</title>
<polygon fill="white" stroke="transparent" points="-4,4 -4,-242.8 1970,-242.8 1970,4 -4,4"/>
<text text-anchor="middle" x="983" y="-8.2" font-family="sans-serif" font-size="14.00">dependencies</text>
<g id="clust1" class="cluster">
<title>cluster_OauthModule</title>
<polygon fill="none" stroke="black" stroke-dasharray="1,5" points="8,-32.8 8,-230.8 1958,-230.8 1958,-32.8 8,-32.8"/>
</g>
<g id="clust6" class="cluster">
<title>cluster_OauthModule_providers</title>
<polygon fill="none" stroke="black" points="1280,-40.8 1280,-92.8 1950,-92.8 1950,-40.8 1280,-40.8"/>
</g>
<g id="clust3" class="cluster">
<title>cluster_OauthModule_imports</title>
<polygon fill="none" stroke="black" points="16,-40.8 16,-92.8 1272,-92.8 1272,-40.8 16,-40.8"/>
</g>
<g id="clust4" class="cluster">
<title>cluster_OauthModule_exports</title>
<polygon fill="none" stroke="black" points="765,-170.8 765,-222.8 1015,-222.8 1015,-170.8 765,-170.8"/>
</g>
<!-- AuthorizationModule -->
<g id="node1" class="node">
<title>AuthorizationModule</title>
<polygon fill="#8dd3c7" stroke="black" points="1263.81,-84.8 1260.81,-88.8 1239.81,-88.8 1236.81,-84.8 1126.19,-84.8 1126.19,-48.8 1263.81,-48.8 1263.81,-84.8"/>
<text text-anchor="middle" x="1195" y="-62.6" font-family="Times,serif" font-size="14.00">AuthorizationModule</text>
</g>
<!-- OauthModule -->
<g id="node10" class="node">
<title>OauthModule</title>
<polygon fill="#8dd3c7" stroke="black" points="932.77,-149.8 929.77,-153.8 908.77,-153.8 905.77,-149.8 839.23,-149.8 839.23,-113.8 932.77,-113.8 932.77,-149.8"/>
<text text-anchor="middle" x="886" y="-127.6" font-family="Times,serif" font-size="14.00">OauthModule</text>
</g>
<!-- AuthorizationModule&#45;&gt;OauthModule -->
<g id="edge1" class="edge">
<title>AuthorizationModule&#45;&gt;OauthModule</title>
<path fill="none" stroke="black" d="M1195,-84.83C1195,-101.86 1195,-124.8 1195,-124.8 1195,-124.8 942.93,-124.8 942.93,-124.8"/>
<polygon fill="black" stroke="black" points="942.93,-121.3 932.93,-124.8 942.93,-128.3 942.93,-121.3"/>
</g>
<!-- CacheWrapperModule -->
<g id="node2" class="node">
<title>CacheWrapperModule</title>
<polygon fill="#8dd3c7" stroke="black" points="1109,-84.8 1106,-88.8 1085,-88.8 1082,-84.8 965,-84.8 965,-48.8 1109,-48.8 1109,-84.8"/>
<text text-anchor="middle" x="1037" y="-62.6" font-family="Times,serif" font-size="14.00">CacheWrapperModule</text>
</g>
<!-- CacheWrapperModule&#45;&gt;OauthModule -->
<g id="edge2" class="edge">
<title>CacheWrapperModule&#45;&gt;OauthModule</title>
<path fill="none" stroke="black" d="M986.3,-85.04C986.3,-100.37 986.3,-119.8 986.3,-119.8 986.3,-119.8 942.92,-119.8 942.92,-119.8"/>
<polygon fill="black" stroke="black" points="942.92,-116.3 932.92,-119.8 942.92,-123.3 942.92,-116.3"/>
</g>
<!-- EncryptionModule -->
<g id="node3" class="node">
<title>EncryptionModule</title>
<polygon fill="#8dd3c7" stroke="black" points="946.76,-84.8 943.76,-88.8 922.76,-88.8 919.76,-84.8 825.24,-84.8 825.24,-48.8 946.76,-48.8 946.76,-84.8"/>
<text text-anchor="middle" x="886" y="-62.6" font-family="Times,serif" font-size="14.00">EncryptionModule</text>
</g>
<!-- EncryptionModule&#45;&gt;OauthModule -->
<g id="edge3" class="edge">
<title>EncryptionModule&#45;&gt;OauthModule</title>
<path fill="none" stroke="black" d="M886,-84.91C886,-84.91 886,-103.79 886,-103.79"/>
<polygon fill="black" stroke="black" points="882.5,-103.79 886,-113.79 889.5,-103.79 882.5,-103.79"/>
</g>
<!-- LoggerModule -->
<g id="node4" class="node">
<title>LoggerModule</title>
<polygon fill="#8dd3c7" stroke="black" points="806.98,-84.8 803.98,-88.8 782.98,-88.8 779.98,-84.8 707.02,-84.8 707.02,-48.8 806.98,-48.8 806.98,-84.8"/>
<text text-anchor="middle" x="757" y="-62.6" font-family="Times,serif" font-size="14.00">LoggerModule</text>
</g>
<!-- LoggerModule&#45;&gt;OauthModule -->
<g id="edge4" class="edge">
<title>LoggerModule&#45;&gt;OauthModule</title>
<path fill="none" stroke="black" d="M790.1,-85.04C790.1,-100.37 790.1,-119.8 790.1,-119.8 790.1,-119.8 829.17,-119.8 829.17,-119.8"/>
<polygon fill="black" stroke="black" points="829.17,-123.3 839.17,-119.8 829.17,-116.3 829.17,-123.3"/>
</g>
<!-- ProvisioningModule -->
<g id="node5" class="node">
<title>ProvisioningModule</title>
<polygon fill="#8dd3c7" stroke="black" points="688.62,-84.8 685.62,-88.8 664.62,-88.8 661.62,-84.8 557.38,-84.8 557.38,-48.8 688.62,-48.8 688.62,-84.8"/>
<text text-anchor="middle" x="623" y="-62.6" font-family="Times,serif" font-size="14.00">ProvisioningModule</text>
</g>
<!-- ProvisioningModule&#45;&gt;OauthModule -->
<g id="edge5" class="edge">
<title>ProvisioningModule&#45;&gt;OauthModule</title>
<path fill="none" stroke="black" d="M623,-84.83C623,-101.86 623,-124.8 623,-124.8 623,-124.8 828.98,-124.8 828.98,-124.8"/>
<polygon fill="black" stroke="black" points="828.98,-128.3 838.98,-124.8 828.98,-121.3 828.98,-128.3"/>
</g>
<!-- SchoolModule -->
<g id="node6" class="node">
<title>SchoolModule</title>
<polygon fill="#8dd3c7" stroke="black" points="539.44,-84.8 536.44,-88.8 515.44,-88.8 512.44,-84.8 440.56,-84.8 440.56,-48.8 539.44,-48.8 539.44,-84.8"/>
<text text-anchor="middle" x="490" y="-62.6" font-family="Times,serif" font-size="14.00">SchoolModule</text>
</g>
<!-- SchoolModule&#45;&gt;OauthModule -->
<g id="edge6" class="edge">
<title>SchoolModule&#45;&gt;OauthModule</title>
<path fill="none" stroke="black" d="M490,-85.02C490,-103.63 490,-129.8 490,-129.8 490,-129.8 829.02,-129.8 829.02,-129.8"/>
<polygon fill="black" stroke="black" points="829.02,-133.3 839.02,-129.8 829.02,-126.3 829.02,-133.3"/>
</g>
<!-- SystemModule -->
<g id="node7" class="node">
<title>SystemModule</title>
<polygon fill="#8dd3c7" stroke="black" points="422.28,-84.8 419.28,-88.8 398.28,-88.8 395.28,-84.8 321.72,-84.8 321.72,-48.8 422.28,-48.8 422.28,-84.8"/>
<text text-anchor="middle" x="372" y="-62.6" font-family="Times,serif" font-size="14.00">SystemModule</text>
</g>
<!-- SystemModule&#45;&gt;OauthModule -->
<g id="edge7" class="edge">
<title>SystemModule&#45;&gt;OauthModule</title>
<path fill="none" stroke="black" d="M372,-85.02C372,-105.17 372,-134.8 372,-134.8 372,-134.8 829.02,-134.8 829.02,-134.8"/>
<polygon fill="black" stroke="black" points="829.02,-138.3 839.02,-134.8 829.02,-131.3 829.02,-138.3"/>
</g>
<!-- UserLoginMigrationModule -->
<g id="node8" class="node">
<title>UserLoginMigrationModule</title>
<polygon fill="#8dd3c7" stroke="black" points="303.92,-84.8 300.92,-88.8 279.92,-88.8 276.92,-84.8 128.08,-84.8 128.08,-48.8 303.92,-48.8 303.92,-84.8"/>
<text text-anchor="middle" x="216" y="-62.6" font-family="Times,serif" font-size="14.00">UserLoginMigrationModule</text>
</g>
<!-- UserLoginMigrationModule&#45;&gt;OauthModule -->
<g id="edge8" class="edge">
<title>UserLoginMigrationModule&#45;&gt;OauthModule</title>
<path fill="none" stroke="black" d="M216,-84.84C216,-106.46 216,-139.8 216,-139.8 216,-139.8 829.15,-139.8 829.15,-139.8"/>
<polygon fill="black" stroke="black" points="829.15,-143.3 839.15,-139.8 829.15,-136.3 829.15,-143.3"/>
</g>
<!-- UserModule -->
<g id="node9" class="node">
<title>UserModule</title>
<polygon fill="#8dd3c7" stroke="black" points="109.99,-84.8 106.99,-88.8 85.99,-88.8 82.99,-84.8 24.01,-84.8 24.01,-48.8 109.99,-48.8 109.99,-84.8"/>
<text text-anchor="middle" x="67" y="-62.6" font-family="Times,serif" font-size="14.00">UserModule</text>
</g>
<!-- UserModule&#45;&gt;OauthModule -->
<g id="edge9" class="edge">
<title>UserModule&#45;&gt;OauthModule</title>
<path fill="none" stroke="black" d="M67,-84.89C67,-107.93 67,-144.8 67,-144.8 67,-144.8 829.03,-144.8 829.03,-144.8"/>
<polygon fill="black" stroke="black" points="829.03,-148.3 839.03,-144.8 829.03,-141.3 829.03,-148.3"/>
</g>
<!-- HydraSsoService  -->
<g id="node11" class="node">
<title>HydraSsoService </title>
<polygon fill="#fb8072" stroke="black" points="1007.2,-214.8 890.8,-214.8 890.8,-178.8 1007.2,-178.8 1007.2,-214.8"/>
<text text-anchor="middle" x="949" y="-192.6" font-family="Times,serif" font-size="14.00">HydraSsoService </text>
</g>
<!-- OauthModule&#45;&gt;HydraSsoService  -->
<g id="edge10" class="edge">
<title>OauthModule&#45;&gt;HydraSsoService </title>
<path fill="none" stroke="black" stroke-dasharray="5,2" d="M911.77,-149.91C911.77,-149.91 911.77,-168.79 911.77,-168.79"/>
<polygon fill="black" stroke="black" points="908.27,-168.79 911.77,-178.79 915.27,-168.79 908.27,-168.79"/>
</g>
<!-- OAuthService  -->
<g id="node12" class="node">
<title>OAuthService </title>
<polygon fill="#fb8072" stroke="black" points="872.59,-214.8 773.41,-214.8 773.41,-178.8 872.59,-178.8 872.59,-214.8"/>
<text text-anchor="middle" x="823" y="-192.6" font-family="Times,serif" font-size="14.00">OAuthService </text>
</g>
<!-- OauthModule&#45;&gt;OAuthService  -->
<g id="edge11" class="edge">
<title>OauthModule&#45;&gt;OAuthService </title>
<path fill="none" stroke="black" stroke-dasharray="5,2" d="M855.96,-149.91C855.96,-149.91 855.96,-168.79 855.96,-168.79"/>
<polygon fill="black" stroke="black" points="852.46,-168.79 855.96,-178.79 859.46,-168.79 852.46,-168.79"/>
</g>
<!-- HydraSsoService -->
<g id="node13" class="node">
<title>HydraSsoService</title>
<ellipse fill="#fdb462" stroke="black" cx="1864" cy="-66.8" rx="78.17" ry="18"/>
<text text-anchor="middle" x="1864" y="-62.6" font-family="Times,serif" font-size="14.00">HydraSsoService</text>
</g>
<!-- HydraSsoService&#45;&gt;OauthModule -->
<g id="edge12" class="edge">
<title>HydraSsoService&#45;&gt;OauthModule</title>
<path fill="none" stroke="black" d="M1864,-84.89C1864,-107.93 1864,-144.8 1864,-144.8 1864,-144.8 942.84,-144.8 942.84,-144.8"/>
<polygon fill="black" stroke="black" points="942.84,-141.3 932.84,-144.8 942.84,-148.3 942.84,-141.3"/>
</g>
<!-- LtiToolRepo -->
<g id="node14" class="node">
<title>LtiToolRepo</title>
<ellipse fill="#fdb462" stroke="black" cx="1707" cy="-66.8" rx="60.85" ry="18"/>
<text text-anchor="middle" x="1707" y="-62.6" font-family="Times,serif" font-size="14.00">LtiToolRepo</text>
</g>
<!-- LtiToolRepo&#45;&gt;OauthModule -->
<g id="edge13" class="edge">
<title>LtiToolRepo&#45;&gt;OauthModule</title>
<path fill="none" stroke="black" d="M1707,-84.84C1707,-106.46 1707,-139.8 1707,-139.8 1707,-139.8 942.79,-139.8 942.79,-139.8"/>
<polygon fill="black" stroke="black" points="942.79,-136.3 932.79,-139.8 942.79,-143.3 942.79,-136.3"/>
</g>
<!-- OAuthService -->
<g id="node15" class="node">
<title>OAuthService</title>
<ellipse fill="#fdb462" stroke="black" cx="1562" cy="-66.8" rx="66.06" ry="18"/>
<text text-anchor="middle" x="1562" y="-62.6" font-family="Times,serif" font-size="14.00">OAuthService</text>
</g>
<!-- OAuthService&#45;&gt;OauthModule -->
<g id="edge14" class="edge">
<title>OAuthService&#45;&gt;OauthModule</title>
<path fill="none" stroke="black" d="M1562,-85.02C1562,-105.17 1562,-134.8 1562,-134.8 1562,-134.8 943,-134.8 943,-134.8"/>
<polygon fill="black" stroke="black" points="943,-131.3 933,-134.8 943,-138.3 943,-131.3"/>
</g>
<!-- OauthAdapterService -->
<g id="node16" class="node">
<title>OauthAdapterService</title>
<ellipse fill="#fdb462" stroke="black" cx="1383" cy="-66.8" rx="94.89" ry="18"/>
<text text-anchor="middle" x="1383" y="-62.6" font-family="Times,serif" font-size="14.00">OauthAdapterService</text>
</g>
<!-- OauthAdapterService&#45;&gt;OauthModule -->
<g id="edge15" class="edge">
<title>OauthAdapterService&#45;&gt;OauthModule</title>
<path fill="none" stroke="black" d="M1383,-85.02C1383,-103.63 1383,-129.8 1383,-129.8 1383,-129.8 943.2,-129.8 943.2,-129.8"/>
<polygon fill="black" stroke="black" points="943.2,-126.3 933.2,-129.8 943.2,-133.3 943.2,-126.3"/>
</g>
</g>
</svg>
