<?xml version="1.0" encoding="UTF-8" standalone="no"?>
<!DOCTYPE svg PUBLIC "-//W3C//DTD SVG 1.1//EN"
 "http://www.w3.org/Graphics/SVG/1.1/DTD/svg11.dtd">
<!-- Generated by graphviz version 5.0.0 (20220707.1540)
 -->
<!-- Title: dependencies Pages: 1 -->
<svg width="1857pt" height="247pt"
 viewBox="0.00 0.00 1857.00 246.80" xmlns="http://www.w3.org/2000/svg" xmlns:xlink="http://www.w3.org/1999/xlink">
<g id="graph0" class="graph" transform="scale(1 1) rotate(0) translate(4 242.8)">
<title>dependencies</title>
<polygon fill="white" stroke="transparent" points="-4,4 -4,-242.8 1853,-242.8 1853,4 -4,4"/>
<text text-anchor="middle" x="924.5" y="-8.2" font-family="sans-serif" font-size="14.00">dependencies</text>
<g id="clust1" class="cluster">
<title>cluster_OauthModule</title>
<polygon fill="none" stroke="black" stroke-dasharray="1,5" points="8,-32.8 8,-230.8 1841,-230.8 1841,-32.8 8,-32.8"/>
</g>
<g id="clust4" class="cluster">
<title>cluster_OauthModule_exports</title>
<polygon fill="none" stroke="black" points="723,-170.8 723,-222.8 973,-222.8 973,-170.8 723,-170.8"/>
</g>
<g id="clust6" class="cluster">
<title>cluster_OauthModule_providers</title>
<polygon fill="none" stroke="black" points="1163,-40.8 1163,-92.8 1833,-92.8 1833,-40.8 1163,-40.8"/>
</g>
<g id="clust3" class="cluster">
<title>cluster_OauthModule_imports</title>
<polygon fill="none" stroke="black" points="16,-40.8 16,-92.8 1155,-92.8 1155,-40.8 16,-40.8"/>
</g>
<!-- AuthorizationModule -->
<g id="node1" class="node">
<title>AuthorizationModule</title>
<polygon fill="#8dd3c7" stroke="black" points="1146.81,-84.8 1143.81,-88.8 1122.81,-88.8 1119.81,-84.8 1009.19,-84.8 1009.19,-48.8 1146.81,-48.8 1146.81,-84.8"/>
<text text-anchor="middle" x="1078" y="-62.6" font-family="Times,serif" font-size="14.00">AuthorizationModule</text>
</g>
<!-- OauthModule -->
<g id="node9" class="node">
<title>OauthModule</title>
<polygon fill="#8dd3c7" stroke="black" points="890.77,-149.8 887.77,-153.8 866.77,-153.8 863.77,-149.8 797.23,-149.8 797.23,-113.8 890.77,-113.8 890.77,-149.8"/>
<text text-anchor="middle" x="844" y="-127.6" font-family="Times,serif" font-size="14.00">OauthModule</text>
</g>
<!-- AuthorizationModule&#45;&gt;OauthModule -->
<g id="edge1" class="edge">
<title>AuthorizationModule&#45;&gt;OauthModule</title>
<path fill="none" stroke="black" d="M1078,-85.04C1078,-100.37 1078,-119.8 1078,-119.8 1078,-119.8 900.79,-119.8 900.79,-119.8"/>
<polygon fill="black" stroke="black" points="900.79,-116.3 890.79,-119.8 900.79,-123.3 900.79,-116.3"/>
</g>
<!-- CacheWrapperModule -->
<g id="node2" class="node">
<title>CacheWrapperModule</title>
<polygon fill="#8dd3c7" stroke="black" points="992,-84.8 989,-88.8 968,-88.8 965,-84.8 848,-84.8 848,-48.8 992,-48.8 992,-84.8"/>
<text text-anchor="middle" x="920" y="-62.6" font-family="Times,serif" font-size="14.00">CacheWrapperModule</text>
</g>
<!-- CacheWrapperModule&#45;&gt;OauthModule -->
<g id="edge2" class="edge">
<title>CacheWrapperModule&#45;&gt;OauthModule</title>
<path fill="none" stroke="black" d="M869.57,-84.91C869.57,-84.91 869.57,-103.79 869.57,-103.79"/>
<polygon fill="black" stroke="black" points="866.07,-103.79 869.57,-113.79 873.07,-103.79 866.07,-103.79"/>
</g>
<!-- EncryptionModule -->
<g id="node3" class="node">
<title>EncryptionModule</title>
<polygon fill="#8dd3c7" stroke="black" points="829.76,-84.8 826.76,-88.8 805.76,-88.8 802.76,-84.8 708.24,-84.8 708.24,-48.8 829.76,-48.8 829.76,-84.8"/>
<text text-anchor="middle" x="769" y="-62.6" font-family="Times,serif" font-size="14.00">EncryptionModule</text>
</g>
<!-- EncryptionModule&#45;&gt;OauthModule -->
<g id="edge3" class="edge">
<title>EncryptionModule&#45;&gt;OauthModule</title>
<path fill="none" stroke="black" d="M813.5,-84.91C813.5,-84.91 813.5,-103.79 813.5,-103.79"/>
<polygon fill="black" stroke="black" points="810,-103.79 813.5,-113.79 817,-103.79 810,-103.79"/>
</g>
<!-- LoggerModule -->
<g id="node4" class="node">
<title>LoggerModule</title>
<polygon fill="#8dd3c7" stroke="black" points="689.98,-84.8 686.98,-88.8 665.98,-88.8 662.98,-84.8 590.02,-84.8 590.02,-48.8 689.98,-48.8 689.98,-84.8"/>
<text text-anchor="middle" x="640" y="-62.6" font-family="Times,serif" font-size="14.00">LoggerModule</text>
</g>
<!-- LoggerModule&#45;&gt;OauthModule -->
<g id="edge4" class="edge">
<title>LoggerModule&#45;&gt;OauthModule</title>
<path fill="none" stroke="black" d="M640,-85.04C640,-100.37 640,-119.8 640,-119.8 640,-119.8 787.2,-119.8 787.2,-119.8"/>
<polygon fill="black" stroke="black" points="787.2,-123.3 797.2,-119.8 787.2,-116.3 787.2,-123.3"/>
</g>
<!-- ProvisioningModule -->
<g id="node5" class="node">
<title>ProvisioningModule</title>
<polygon fill="#8dd3c7" stroke="black" points="571.62,-84.8 568.62,-88.8 547.62,-88.8 544.62,-84.8 440.38,-84.8 440.38,-48.8 571.62,-48.8 571.62,-84.8"/>
<text text-anchor="middle" x="506" y="-62.6" font-family="Times,serif" font-size="14.00">ProvisioningModule</text>
</g>
<!-- ProvisioningModule&#45;&gt;OauthModule -->
<g id="edge5" class="edge">
<title>ProvisioningModule&#45;&gt;OauthModule</title>
<path fill="none" stroke="black" d="M506,-84.82C506,-102.17 506,-125.8 506,-125.8 506,-125.8 787,-125.8 787,-125.8"/>
<polygon fill="black" stroke="black" points="787,-129.3 797,-125.8 787,-122.3 787,-129.3"/>
</g>
<!-- SystemModule -->
<g id="node6" class="node">
<title>SystemModule</title>
<polygon fill="#8dd3c7" stroke="black" points="422.28,-84.8 419.28,-88.8 398.28,-88.8 395.28,-84.8 321.72,-84.8 321.72,-48.8 422.28,-48.8 422.28,-84.8"/>
<text text-anchor="middle" x="372" y="-62.6" font-family="Times,serif" font-size="14.00">SystemModule</text>
</g>
<!-- SystemModule&#45;&gt;OauthModule -->
<g id="edge6" class="edge">
<title>SystemModule&#45;&gt;OauthModule</title>
<path fill="none" stroke="black" d="M372,-84.91C372,-104.14 372,-131.8 372,-131.8 372,-131.8 787.02,-131.8 787.02,-131.8"/>
<polygon fill="black" stroke="black" points="787.02,-135.3 797.02,-131.8 787.02,-128.3 787.02,-135.3"/>
</g>
<!-- UserLoginMigrationModule -->
<g id="node7" class="node">
<title>UserLoginMigrationModule</title>
<polygon fill="#8dd3c7" stroke="black" points="303.92,-84.8 300.92,-88.8 279.92,-88.8 276.92,-84.8 128.08,-84.8 128.08,-48.8 303.92,-48.8 303.92,-84.8"/>
<text text-anchor="middle" x="216" y="-62.6" font-family="Times,serif" font-size="14.00">UserLoginMigrationModule</text>
</g>
<!-- UserLoginMigrationModule&#45;&gt;OauthModule -->
<g id="edge7" class="edge">
<title>UserLoginMigrationModule&#45;&gt;OauthModule</title>
<path fill="none" stroke="black" d="M216,-85.08C216,-106.12 216,-137.8 216,-137.8 216,-137.8 787.05,-137.8 787.05,-137.8"/>
<polygon fill="black" stroke="black" points="787.05,-141.3 797.05,-137.8 787.05,-134.3 787.05,-141.3"/>
</g>
<!-- UserModule -->
<g id="node8" class="node">
<title>UserModule</title>
<polygon fill="#8dd3c7" stroke="black" points="109.99,-84.8 106.99,-88.8 85.99,-88.8 82.99,-84.8 24.01,-84.8 24.01,-48.8 109.99,-48.8 109.99,-84.8"/>
<text text-anchor="middle" x="67" y="-62.6" font-family="Times,serif" font-size="14.00">UserModule</text>
</g>
<!-- UserModule&#45;&gt;OauthModule -->
<g id="edge8" class="edge">
<title>UserModule&#45;&gt;OauthModule</title>
<path fill="none" stroke="black" d="M67,-85.05C67,-107.82 67,-143.8 67,-143.8 67,-143.8 787.14,-143.8 787.14,-143.8"/>
<polygon fill="black" stroke="black" points="787.15,-147.3 797.14,-143.8 787.14,-140.3 787.15,-147.3"/>
</g>
<!-- HydraSsoService  -->
<g id="node10" class="node">
<title>HydraSsoService </title>
<polygon fill="#fb8072" stroke="black" points="965.2,-214.8 848.8,-214.8 848.8,-178.8 965.2,-178.8 965.2,-214.8"/>
<text text-anchor="middle" x="907" y="-192.6" font-family="Times,serif" font-size="14.00">HydraSsoService </text>
</g>
<!-- OauthModule&#45;&gt;HydraSsoService  -->
<g id="edge9" class="edge">
<title>OauthModule&#45;&gt;HydraSsoService </title>
<path fill="none" stroke="black" stroke-dasharray="5,2" d="M869.77,-149.91C869.77,-149.91 869.77,-168.79 869.77,-168.79"/>
<polygon fill="black" stroke="black" points="866.27,-168.79 869.77,-178.79 873.27,-168.79 866.27,-168.79"/>
</g>
<!-- OAuthService  -->
<g id="node11" class="node">
<title>OAuthService </title>
<polygon fill="#fb8072" stroke="black" points="830.59,-214.8 731.41,-214.8 731.41,-178.8 830.59,-178.8 830.59,-214.8"/>
<text text-anchor="middle" x="781" y="-192.6" font-family="Times,serif" font-size="14.00">OAuthService </text>
</g>
<!-- OauthModule&#45;&gt;OAuthService  -->
<g id="edge10" class="edge">
<title>OauthModule&#45;&gt;OAuthService </title>
<path fill="none" stroke="black" stroke-dasharray="5,2" d="M813.96,-149.91C813.96,-149.91 813.96,-168.79 813.96,-168.79"/>
<polygon fill="black" stroke="black" points="810.46,-168.79 813.96,-178.79 817.46,-168.79 810.46,-168.79"/>
</g>
<!-- HydraSsoService -->
<g id="node12" class="node">
<title>HydraSsoService</title>
<ellipse fill="#fdb462" stroke="black" cx="1747" cy="-66.8" rx="78.17" ry="18"/>
<text text-anchor="middle" x="1747" y="-62.6" font-family="Times,serif" font-size="14.00">HydraSsoService</text>
</g>
<!-- HydraSsoService&#45;&gt;OauthModule -->
<g id="edge11" class="edge">
<title>HydraSsoService&#45;&gt;OauthModule</title>
<path fill="none" stroke="black" d="M1747,-85.05C1747,-107.82 1747,-143.8 1747,-143.8 1747,-143.8 900.96,-143.8 900.96,-143.8"/>
<polygon fill="black" stroke="black" points="900.96,-140.3 890.96,-143.8 900.96,-147.3 900.96,-140.3"/>
</g>
<!-- LtiToolRepo -->
<g id="node13" class="node">
<title>LtiToolRepo</title>
<ellipse fill="#fdb462" stroke="black" cx="1590" cy="-66.8" rx="60.85" ry="18"/>
<text text-anchor="middle" x="1590" y="-62.6" font-family="Times,serif" font-size="14.00">LtiToolRepo</text>
</g>
<!-- LtiToolRepo&#45;&gt;OauthModule -->
<g id="edge12" class="edge">
<title>LtiToolRepo&#45;&gt;OauthModule</title>
<path fill="none" stroke="black" d="M1590,-85.08C1590,-106.12 1590,-137.8 1590,-137.8 1590,-137.8 900.95,-137.8 900.95,-137.8"/>
<polygon fill="black" stroke="black" points="900.95,-134.3 890.95,-137.8 900.95,-141.3 900.95,-134.3"/>
</g>
<!-- OAuthService -->
<g id="node14" class="node">
<title>OAuthService</title>
<ellipse fill="#fdb462" stroke="black" cx="1445" cy="-66.8" rx="66.06" ry="18"/>
<text text-anchor="middle" x="1445" y="-62.6" font-family="Times,serif" font-size="14.00">OAuthService</text>
</g>
<!-- OAuthService&#45;&gt;OauthModule -->
<g id="edge13" class="edge">
<title>OAuthService&#45;&gt;OauthModule</title>
<path fill="none" stroke="black" d="M1445,-84.91C1445,-104.14 1445,-131.8 1445,-131.8 1445,-131.8 901.16,-131.8 901.16,-131.8"/>
<polygon fill="black" stroke="black" points="901.16,-128.3 891.16,-131.8 901.16,-135.3 901.16,-128.3"/>
</g>
<!-- OauthAdapterService -->
<g id="node15" class="node">
<title>OauthAdapterService</title>
<ellipse fill="#fdb462" stroke="black" cx="1266" cy="-66.8" rx="94.89" ry="18"/>
<text text-anchor="middle" x="1266" y="-62.6" font-family="Times,serif" font-size="14.00">OauthAdapterService</text>
</g>
<!-- OauthAdapterService&#45;&gt;OauthModule -->
<g id="edge14" class="edge">
<title>OauthAdapterService&#45;&gt;OauthModule</title>
<path fill="none" stroke="black" d="M1266,-84.82C1266,-102.17 1266,-125.8 1266,-125.8 1266,-125.8 900.77,-125.8 900.77,-125.8"/>
<polygon fill="black" stroke="black" points="900.77,-122.3 890.77,-125.8 900.77,-129.3 900.77,-122.3"/>
</g>
</g>
</svg>
