<?xml version="1.0" encoding="UTF-8" standalone="no"?>
<!DOCTYPE svg PUBLIC "-//W3C//DTD SVG 1.1//EN"
 "http://www.w3.org/Graphics/SVG/1.1/DTD/svg11.dtd">
<!-- Generated by graphviz version 2.47.0 (20210316.0004)
 -->
<!-- Title: dependencies Pages: 1 -->
<svg width="1974pt" height="284pt"
 viewBox="0.00 0.00 1974.00 284.00" xmlns="http://www.w3.org/2000/svg" xmlns:xlink="http://www.w3.org/1999/xlink">
<g id="graph0" class="graph" transform="scale(1 1) rotate(0) translate(4 280)">
<title>dependencies</title>
<polygon fill="white" stroke="transparent" points="-4,4 -4,-280 1970,-280 1970,4 -4,4"/>
<text text-anchor="start" x="962.01" y="-42.4" font-family="Times-12" font-weight="bold" font-size="14.00">Legend</text>
<polygon fill="#ffffb3" stroke="transparent" points="749,-10 749,-30 769,-30 769,-10 749,-10"/>
<text text-anchor="start" x="772.63" y="-15.4" font-family="Times-12" font-size="14.00"> &#160;Declarations</text>
<polygon fill="#8dd3c7" stroke="transparent" points="862,-10 862,-30 882,-30 882,-10 862,-10"/>
<text text-anchor="start" x="885.73" y="-15.4" font-family="Times-12" font-size="14.00"> &#160;Module</text>
<polygon fill="#80b1d3" stroke="transparent" points="948,-10 948,-30 968,-30 968,-10 948,-10"/>
<text text-anchor="start" x="971.78" y="-15.4" font-family="Times-12" font-size="14.00"> &#160;Bootstrap</text>
<polygon fill="#fdb462" stroke="transparent" points="1045,-10 1045,-30 1065,-30 1065,-10 1045,-10"/>
<text text-anchor="start" x="1068.67" y="-15.4" font-family="Times-12" font-size="14.00"> &#160;Providers</text>
<polygon fill="#fb8072" stroke="transparent" points="1141,-10 1141,-30 1161,-30 1161,-10 1141,-10"/>
<text text-anchor="start" x="1164.73" y="-15.4" font-family="Times-12" font-size="14.00"> &#160;Exports</text>
<g id="clust1" class="cluster">
<title>cluster_OauthModule</title>
<polygon fill="none" stroke="black" stroke-dasharray="1,5" points="8,-70 8,-268 1958,-268 1958,-70 8,-70"/>
</g>
<g id="clust4" class="cluster">
<title>cluster_OauthModule_exports</title>
<polygon fill="none" stroke="black" points="765,-208 765,-260 1015,-260 1015,-208 765,-208"/>
</g>
<g id="clust6" class="cluster">
<title>cluster_OauthModule_providers</title>
<polygon fill="none" stroke="black" points="1280,-78 1280,-130 1950,-130 1950,-78 1280,-78"/>
</g>
<g id="clust3" class="cluster">
<title>cluster_OauthModule_imports</title>
<polygon fill="none" stroke="black" points="16,-78 16,-130 1272,-130 1272,-78 16,-78"/>
</g>
<!-- AuthorizationModule -->
<g id="node1" class="node">
<title>AuthorizationModule</title>
<polygon fill="#8dd3c7" stroke="black" points="1263.81,-122 1260.81,-126 1239.81,-126 1236.81,-122 1126.19,-122 1126.19,-86 1263.81,-86 1263.81,-122"/>
<text text-anchor="middle" x="1195" y="-99.8" font-family="Times,serif" font-size="14.00">AuthorizationModule</text>
</g>
<!-- OauthModule -->
<g id="node10" class="node">
<title>OauthModule</title>
<polygon fill="#8dd3c7" stroke="black" points="932.76,-187 929.76,-191 908.76,-191 905.76,-187 839.24,-187 839.24,-151 932.76,-151 932.76,-187"/>
<text text-anchor="middle" x="886" y="-164.8" font-family="Times,serif" font-size="14.00">OauthModule</text>
</g>
<!-- AuthorizationModule&#45;&gt;OauthModule -->
<g id="edge1" class="edge">
<title>AuthorizationModule&#45;&gt;OauthModule</title>
<path fill="none" stroke="black" d="M1195,-122.03C1195,-139.06 1195,-162 1195,-162 1195,-162 942.93,-162 942.93,-162"/>
<polygon fill="black" stroke="black" points="942.93,-158.5 932.93,-162 942.93,-165.5 942.93,-158.5"/>
</g>
<!-- CacheWrapperModule -->
<g id="node2" class="node">
<title>CacheWrapperModule</title>
<polygon fill="#8dd3c7" stroke="black" points="1109,-122 1106,-126 1085,-126 1082,-122 965,-122 965,-86 1109,-86 1109,-122"/>
<text text-anchor="middle" x="1037" y="-99.8" font-family="Times,serif" font-size="14.00">CacheWrapperModule</text>
</g>
<!-- CacheWrapperModule&#45;&gt;OauthModule -->
<g id="edge2" class="edge">
<title>CacheWrapperModule&#45;&gt;OauthModule</title>
<path fill="none" stroke="black" d="M986.3,-122.24C986.3,-137.57 986.3,-157 986.3,-157 986.3,-157 942.92,-157 942.92,-157"/>
<polygon fill="black" stroke="black" points="942.92,-153.5 932.92,-157 942.92,-160.5 942.92,-153.5"/>
</g>
<!-- EncryptionModule -->
<g id="node3" class="node">
<title>EncryptionModule</title>
<polygon fill="#8dd3c7" stroke="black" points="946.76,-122 943.76,-126 922.76,-126 919.76,-122 825.24,-122 825.24,-86 946.76,-86 946.76,-122"/>
<text text-anchor="middle" x="886" y="-99.8" font-family="Times,serif" font-size="14.00">EncryptionModule</text>
</g>
<!-- EncryptionModule&#45;&gt;OauthModule -->
<g id="edge3" class="edge">
<title>EncryptionModule&#45;&gt;OauthModule</title>
<path fill="none" stroke="black" d="M886,-122.11C886,-122.11 886,-140.99 886,-140.99"/>
<polygon fill="black" stroke="black" points="882.5,-140.99 886,-150.99 889.5,-140.99 882.5,-140.99"/>
</g>
<!-- LoggerModule -->
<g id="node4" class="node">
<title>LoggerModule</title>
<polygon fill="#8dd3c7" stroke="black" points="806.98,-122 803.98,-126 782.98,-126 779.98,-122 707.02,-122 707.02,-86 806.98,-86 806.98,-122"/>
<text text-anchor="middle" x="757" y="-99.8" font-family="Times,serif" font-size="14.00">LoggerModule</text>
</g>
<!-- LoggerModule&#45;&gt;OauthModule -->
<g id="edge4" class="edge">
<title>LoggerModule&#45;&gt;OauthModule</title>
<path fill="none" stroke="black" d="M790.1,-122.24C790.1,-137.57 790.1,-157 790.1,-157 790.1,-157 829.17,-157 829.17,-157"/>
<polygon fill="black" stroke="black" points="829.17,-160.5 839.17,-157 829.17,-153.5 829.17,-160.5"/>
</g>
<!-- ProvisioningModule -->
<g id="node5" class="node">
<title>ProvisioningModule</title>
<polygon fill="#8dd3c7" stroke="black" points="688.61,-122 685.61,-126 664.61,-126 661.61,-122 557.39,-122 557.39,-86 688.61,-86 688.61,-122"/>
<text text-anchor="middle" x="623" y="-99.8" font-family="Times,serif" font-size="14.00">ProvisioningModule</text>
</g>
<!-- ProvisioningModule&#45;&gt;OauthModule -->
<g id="edge5" class="edge">
<title>ProvisioningModule&#45;&gt;OauthModule</title>
<path fill="none" stroke="black" d="M623,-122.03C623,-139.06 623,-162 623,-162 623,-162 828.98,-162 828.98,-162"/>
<polygon fill="black" stroke="black" points="828.98,-165.5 838.98,-162 828.98,-158.5 828.98,-165.5"/>
</g>
<!-- SchoolModule -->
<g id="node6" class="node">
<title>SchoolModule</title>
<polygon fill="#8dd3c7" stroke="black" points="539.44,-122 536.44,-126 515.44,-126 512.44,-122 440.56,-122 440.56,-86 539.44,-86 539.44,-122"/>
<text text-anchor="middle" x="490" y="-99.8" font-family="Times,serif" font-size="14.00">SchoolModule</text>
</g>
<!-- SchoolModule&#45;&gt;OauthModule -->
<g id="edge6" class="edge">
<title>SchoolModule&#45;&gt;OauthModule</title>
<path fill="none" stroke="black" d="M490,-122.22C490,-140.83 490,-167 490,-167 490,-167 829.02,-167 829.02,-167"/>
<polygon fill="black" stroke="black" points="829.02,-170.5 839.02,-167 829.02,-163.5 829.02,-170.5"/>
</g>
<!-- SystemModule -->
<g id="node7" class="node">
<title>SystemModule</title>
<polygon fill="#8dd3c7" stroke="black" points="422.27,-122 419.27,-126 398.27,-126 395.27,-122 321.73,-122 321.73,-86 422.27,-86 422.27,-122"/>
<text text-anchor="middle" x="372" y="-99.8" font-family="Times,serif" font-size="14.00">SystemModule</text>
</g>
<!-- SystemModule&#45;&gt;OauthModule -->
<g id="edge7" class="edge">
<title>SystemModule&#45;&gt;OauthModule</title>
<path fill="none" stroke="black" d="M372,-122.22C372,-142.37 372,-172 372,-172 372,-172 829.02,-172 829.02,-172"/>
<polygon fill="black" stroke="black" points="829.02,-175.5 839.02,-172 829.02,-168.5 829.02,-175.5"/>
</g>
<!-- UserLoginMigrationModule -->
<g id="node8" class="node">
<title>UserLoginMigrationModule</title>
<polygon fill="#8dd3c7" stroke="black" points="303.91,-122 300.91,-126 279.91,-126 276.91,-122 128.09,-122 128.09,-86 303.91,-86 303.91,-122"/>
<text text-anchor="middle" x="216" y="-99.8" font-family="Times,serif" font-size="14.00">UserLoginMigrationModule</text>
</g>
<!-- UserLoginMigrationModule&#45;&gt;OauthModule -->
<g id="edge8" class="edge">
<title>UserLoginMigrationModule&#45;&gt;OauthModule</title>
<path fill="none" stroke="black" d="M216,-122.04C216,-143.66 216,-177 216,-177 216,-177 829.15,-177 829.15,-177"/>
<polygon fill="black" stroke="black" points="829.15,-180.5 839.15,-177 829.15,-173.5 829.15,-180.5"/>
</g>
<!-- UserModule -->
<g id="node9" class="node">
<title>UserModule</title>
<polygon fill="#8dd3c7" stroke="black" points="109.98,-122 106.98,-126 85.98,-126 82.98,-122 24.02,-122 24.02,-86 109.98,-86 109.98,-122"/>
<text text-anchor="middle" x="67" y="-99.8" font-family="Times,serif" font-size="14.00">UserModule</text>
</g>
<!-- UserModule&#45;&gt;OauthModule -->
<g id="edge9" class="edge">
<title>UserModule&#45;&gt;OauthModule</title>
<path fill="none" stroke="black" d="M67,-122.09C67,-145.13 67,-182 67,-182 67,-182 829.03,-182 829.03,-182"/>
<polygon fill="black" stroke="black" points="829.03,-185.5 839.03,-182 829.03,-178.5 829.03,-185.5"/>
</g>
<!-- HydraSsoService  -->
<g id="node11" class="node">
<title>HydraSsoService </title>
<polygon fill="#fb8072" stroke="black" points="1007.19,-252 890.81,-252 890.81,-216 1007.19,-216 1007.19,-252"/>
<text text-anchor="middle" x="949" y="-229.8" font-family="Times,serif" font-size="14.00">HydraSsoService </text>
</g>
<!-- OauthModule&#45;&gt;HydraSsoService  -->
<g id="edge10" class="edge">
<title>OauthModule&#45;&gt;HydraSsoService </title>
<path fill="none" stroke="black" stroke-dasharray="5,2" d="M911.77,-187.11C911.77,-187.11 911.77,-205.99 911.77,-205.99"/>
<polygon fill="black" stroke="black" points="908.27,-205.99 911.77,-215.99 915.27,-205.99 908.27,-205.99"/>
</g>
<!-- OAuthService  -->
<g id="node12" class="node">
<title>OAuthService </title>
<polygon fill="#fb8072" stroke="black" points="872.58,-252 773.42,-252 773.42,-216 872.58,-216 872.58,-252"/>
<text text-anchor="middle" x="823" y="-229.8" font-family="Times,serif" font-size="14.00">OAuthService </text>
</g>
<!-- OauthModule&#45;&gt;OAuthService  -->
<g id="edge11" class="edge">
<title>OauthModule&#45;&gt;OAuthService </title>
<path fill="none" stroke="black" stroke-dasharray="5,2" d="M855.95,-187.11C855.95,-187.11 855.95,-205.99 855.95,-205.99"/>
<polygon fill="black" stroke="black" points="852.46,-205.99 855.95,-215.99 859.46,-205.99 852.46,-205.99"/>
</g>
<!-- HydraSsoService -->
<g id="node13" class="node">
<title>HydraSsoService</title>
<ellipse fill="#fdb462" stroke="black" cx="1864" cy="-104" rx="78.15" ry="18"/>
<text text-anchor="middle" x="1864" y="-99.8" font-family="Times,serif" font-size="14.00">HydraSsoService</text>
</g>
<!-- HydraSsoService&#45;&gt;OauthModule -->
<g id="edge12" class="edge">
<title>HydraSsoService&#45;&gt;OauthModule</title>
<path fill="none" stroke="black" d="M1864,-122.09C1864,-145.13 1864,-182 1864,-182 1864,-182 942.84,-182 942.84,-182"/>
<polygon fill="black" stroke="black" points="942.84,-178.5 932.84,-182 942.84,-185.5 942.84,-178.5"/>
</g>
<!-- LtiToolRepo -->
<g id="node14" class="node">
<title>LtiToolRepo</title>
<ellipse fill="#fdb462" stroke="black" cx="1707" cy="-104" rx="60.85" ry="18"/>
<text text-anchor="middle" x="1707" y="-99.8" font-family="Times,serif" font-size="14.00">LtiToolRepo</text>
</g>
<!-- LtiToolRepo&#45;&gt;OauthModule -->
<g id="edge13" class="edge">
<title>LtiToolRepo&#45;&gt;OauthModule</title>
<path fill="none" stroke="black" d="M1707,-122.04C1707,-143.66 1707,-177 1707,-177 1707,-177 942.79,-177 942.79,-177"/>
<polygon fill="black" stroke="black" points="942.79,-173.5 932.79,-177 942.79,-180.5 942.79,-173.5"/>
</g>
<!-- OAuthService -->
<g id="node15" class="node">
<title>OAuthService</title>
<ellipse fill="#fdb462" stroke="black" cx="1562" cy="-104" rx="66.05" ry="18"/>
<text text-anchor="middle" x="1562" y="-99.8" font-family="Times,serif" font-size="14.00">OAuthService</text>
</g>
<!-- OAuthService&#45;&gt;OauthModule -->
<g id="edge14" class="edge">
<title>OAuthService&#45;&gt;OauthModule</title>
<path fill="none" stroke="black" d="M1562,-122.22C1562,-142.37 1562,-172 1562,-172 1562,-172 943,-172 943,-172"/>
<polygon fill="black" stroke="black" points="943,-168.5 933,-172 943,-175.5 943,-168.5"/>
</g>
<!-- OauthAdapterService -->
<g id="node16" class="node">
<title>OauthAdapterService</title>
<ellipse fill="#fdb462" stroke="black" cx="1383" cy="-104" rx="94.88" ry="18"/>
<text text-anchor="middle" x="1383" y="-99.8" font-family="Times,serif" font-size="14.00">OauthAdapterService</text>
</g>
<!-- OauthAdapterService&#45;&gt;OauthModule -->
<g id="edge15" class="edge">
<title>OauthAdapterService&#45;&gt;OauthModule</title>
<path fill="none" stroke="black" d="M1383,-122.22C1383,-140.83 1383,-167 1383,-167 1383,-167 943.2,-167 943.2,-167"/>
<polygon fill="black" stroke="black" points="943.2,-163.5 933.2,-167 943.2,-170.5 943.2,-163.5"/>
</g>
</g>
</svg>
