<?xml version="1.0" encoding="UTF-8" standalone="no"?>
<!DOCTYPE svg PUBLIC "-//W3C//DTD SVG 1.1//EN"
 "http://www.w3.org/Graphics/SVG/1.1/DTD/svg11.dtd">
<!-- Generated by graphviz version 2.47.0 (20210316.0004)
 -->
<!-- Title: dependencies Pages: 1 -->
<svg width="915pt" height="284pt"
 viewBox="0.00 0.00 915.00 284.00" xmlns="http://www.w3.org/2000/svg" xmlns:xlink="http://www.w3.org/1999/xlink">
<g id="graph0" class="graph" transform="scale(1 1) rotate(0) translate(4 280)">
<title>dependencies</title>
<polygon fill="white" stroke="transparent" points="-4,4 -4,-280 911,-280 911,4 -4,4"/>
<text text-anchor="start" x="432.51" y="-42.4" font-family="Times-12" font-weight="bold" font-size="14.00">Legend</text>
<polygon fill="#ffffb3" stroke="transparent" points="219.5,-10 219.5,-30 239.5,-30 239.5,-10 219.5,-10"/>
<text text-anchor="start" x="243.13" y="-15.4" font-family="Times-12" font-size="14.00"> &#160;Declarations</text>
<polygon fill="#8dd3c7" stroke="transparent" points="332.5,-10 332.5,-30 352.5,-30 352.5,-10 332.5,-10"/>
<text text-anchor="start" x="356.23" y="-15.4" font-family="Times-12" font-size="14.00"> &#160;Module</text>
<polygon fill="#80b1d3" stroke="transparent" points="418.5,-10 418.5,-30 438.5,-30 438.5,-10 418.5,-10"/>
<text text-anchor="start" x="442.28" y="-15.4" font-family="Times-12" font-size="14.00"> &#160;Bootstrap</text>
<polygon fill="#fdb462" stroke="transparent" points="515.5,-10 515.5,-30 535.5,-30 535.5,-10 515.5,-10"/>
<text text-anchor="start" x="539.17" y="-15.4" font-family="Times-12" font-size="14.00"> &#160;Providers</text>
<polygon fill="#fb8072" stroke="transparent" points="611.5,-10 611.5,-30 631.5,-30 631.5,-10 611.5,-10"/>
<text text-anchor="start" x="635.23" y="-15.4" font-family="Times-12" font-size="14.00"> &#160;Exports</text>
<g id="clust1" class="cluster">
<title>cluster_CommonCartridgeModule</title>
<polygon fill="none" stroke="black" stroke-dasharray="1,5" points="8,-70 8,-268 899,-268 899,-70 8,-70"/>
</g>
<g id="clust3" class="cluster">
<title>cluster_CommonCartridgeModule_imports</title>
<polygon fill="none" stroke="black" points="525,-78 525,-130 891,-130 891,-78 525,-78"/>
</g>
<g id="clust4" class="cluster">
<title>cluster_CommonCartridgeModule_exports</title>
<polygon fill="none" stroke="black" points="415,-208 415,-260 571,-260 571,-208 415,-208"/>
</g>
<g id="clust6" class="cluster">
<title>cluster_CommonCartridgeModule_providers</title>
<polygon fill="none" stroke="black" points="16,-78 16,-130 517,-130 517,-78 16,-78"/>
</g>
<!-- FilesStorageClientModule -->
<g id="node1" class="node">
<title>FilesStorageClientModule</title>
<polygon fill="#8dd3c7" stroke="black" points="882.76,-122 879.76,-126 858.76,-126 855.76,-122 719.24,-122 719.24,-86 882.76,-86 882.76,-122"/>
<text text-anchor="middle" x="801" y="-99.8" font-family="Times,serif" font-size="14.00">FilesStorageClientModule</text>
</g>
<!-- CommonCartridgeModule -->
<g id="node3" class="node">
<title>CommonCartridgeModule</title>
<polygon fill="#8dd3c7" stroke="black" points="575.04,-187 572.04,-191 551.04,-191 548.04,-187 410.96,-187 410.96,-151 575.04,-151 575.04,-187"/>
<text text-anchor="middle" x="493" y="-164.8" font-family="Times,serif" font-size="14.00">CommonCartridgeModule</text>
</g>
<!-- FilesStorageClientModule&#45;&gt;CommonCartridgeModule -->
<g id="edge1" class="edge">
<title>FilesStorageClientModule&#45;&gt;CommonCartridgeModule</title>
<path fill="none" stroke="black" d="M801,-122.11C801,-141.34 801,-169 801,-169 801,-169 585.13,-169 585.13,-169"/>
<polygon fill="black" stroke="black" points="585.13,-165.5 575.13,-169 585.13,-172.5 585.13,-165.5"/>
</g>
<!-- RabbitMQWrapperModule -->
<g id="node2" class="node">
<title>RabbitMQWrapperModule</title>
<polygon fill="#8dd3c7" stroke="black" points="701.4,-122 698.4,-126 677.4,-126 674.4,-122 532.6,-122 532.6,-86 701.4,-86 701.4,-122"/>
<text text-anchor="middle" x="617" y="-99.8" font-family="Times,serif" font-size="14.00">RabbitMQWrapperModule</text>
</g>
<!-- RabbitMQWrapperModule&#45;&gt;CommonCartridgeModule -->
<g id="edge2" class="edge">
<title>RabbitMQWrapperModule&#45;&gt;CommonCartridgeModule</title>
<path fill="none" stroke="black" d="M554.03,-122.11C554.03,-122.11 554.03,-140.99 554.03,-140.99"/>
<polygon fill="black" stroke="black" points="550.53,-140.99 554.03,-150.99 557.53,-140.99 550.53,-140.99"/>
</g>
<!-- CommonCartridgeUc  -->
<g id="node4" class="node">
<title>CommonCartridgeUc </title>
<polygon fill="#fb8072" stroke="black" points="563.31,-252 422.69,-252 422.69,-216 563.31,-216 563.31,-252"/>
<text text-anchor="middle" x="493" y="-229.8" font-family="Times,serif" font-size="14.00">CommonCartridgeUc </text>
</g>
<!-- CommonCartridgeModule&#45;&gt;CommonCartridgeUc  -->
<g id="edge3" class="edge">
<title>CommonCartridgeModule&#45;&gt;CommonCartridgeUc </title>
<path fill="none" stroke="black" stroke-dasharray="5,2" d="M493,-187.11C493,-187.11 493,-205.99 493,-205.99"/>
<polygon fill="black" stroke="black" points="489.5,-205.99 493,-215.99 496.5,-205.99 489.5,-205.99"/>
</g>
<!-- CommonCartridgeExportService -->
<g id="node5" class="node">
<title>CommonCartridgeExportService</title>
<ellipse fill="#fdb462" stroke="black" cx="370" cy="-104" rx="138.89" ry="18"/>
<text text-anchor="middle" x="370" y="-99.8" font-family="Times,serif" font-size="14.00">CommonCartridgeExportService</text>
</g>
<!-- CommonCartridgeExportService&#45;&gt;CommonCartridgeModule -->
<g id="edge4" class="edge">
<title>CommonCartridgeExportService&#45;&gt;CommonCartridgeModule</title>
<path fill="none" stroke="black" d="M459.71,-117.78C459.71,-117.78 459.71,-140.55 459.71,-140.55"/>
<polygon fill="black" stroke="black" points="456.21,-140.55 459.71,-150.55 463.21,-140.55 456.21,-140.55"/>
</g>
<!-- CommonCartridgeUc -->
<g id="node6" class="node">
<title>CommonCartridgeUc</title>
<ellipse fill="#fdb462" stroke="black" cx="119" cy="-104" rx="94.92" ry="18"/>
<text text-anchor="middle" x="119" y="-99.8" font-family="Times,serif" font-size="14.00">CommonCartridgeUc</text>
</g>
<!-- CommonCartridgeUc&#45;&gt;CommonCartridgeModule -->
<g id="edge5" class="edge">
<title>CommonCartridgeUc&#45;&gt;CommonCartridgeModule</title>
<path fill="none" stroke="black" d="M119,-122.11C119,-141.34 119,-169 119,-169 119,-169 400.92,-169 400.92,-169"/>
<polygon fill="black" stroke="black" points="400.92,-172.5 410.92,-169 400.92,-165.5 400.92,-172.5"/>
</g>
</g>
</svg>
