<?xml version="1.0" encoding="UTF-8" standalone="no"?>
<!DOCTYPE svg PUBLIC "-//W3C//DTD SVG 1.1//EN"
 "http://www.w3.org/Graphics/SVG/1.1/DTD/svg11.dtd">
<!-- Generated by graphviz version 2.47.0 (20210316.0004)
 -->
<!-- Title: dependencies Pages: 1 -->
<svg width="915pt" height="284pt"
 viewBox="0.00 0.00 915.00 284.00" xmlns="http://www.w3.org/2000/svg" xmlns:xlink="http://www.w3.org/1999/xlink">
<g id="graph0" class="graph" transform="scale(1 1) rotate(0) translate(4 280)">
<title>dependencies</title>
<polygon fill="white" stroke="transparent" points="-4,4 -4,-280 911,-280 911,4 -4,4"/>
<text text-anchor="start" x="432.51" y="-42.4" font-family="Times-12" font-weight="bold" font-size="14.00">Legend</text>
<polygon fill="#ffffb3" stroke="transparent" points="219.5,-10 219.5,-30 239.5,-30 239.5,-10 219.5,-10"/>
<text text-anchor="start" x="243.13" y="-15.4" font-family="Times-12" font-size="14.00"> &#160;Declarations</text>
<polygon fill="#8dd3c7" stroke="transparent" points="332.5,-10 332.5,-30 352.5,-30 352.5,-10 332.5,-10"/>
<text text-anchor="start" x="356.23" y="-15.4" font-family="Times-12" font-size="14.00"> &#160;Module</text>
<polygon fill="#80b1d3" stroke="transparent" points="418.5,-10 418.5,-30 438.5,-30 438.5,-10 418.5,-10"/>
<text text-anchor="start" x="442.28" y="-15.4" font-family="Times-12" font-size="14.00"> &#160;Bootstrap</text>
<polygon fill="#fdb462" stroke="transparent" points="515.5,-10 515.5,-30 535.5,-30 535.5,-10 515.5,-10"/>
<text text-anchor="start" x="539.17" y="-15.4" font-family="Times-12" font-size="14.00"> &#160;Providers</text>
<polygon fill="#fb8072" stroke="transparent" points="611.5,-10 611.5,-30 631.5,-30 631.5,-10 611.5,-10"/>
<text text-anchor="start" x="635.23" y="-15.4" font-family="Times-12" font-size="14.00"> &#160;Exports</text>
<g id="clust1" class="cluster">
<title>cluster_CommonCartridgeModule</title>
<polygon fill="none" stroke="black" stroke-dasharray="1,5" points="8,-70 8,-268 899,-268 899,-70 8,-70"/>
</g>
<g id="clust6" class="cluster">
<title>cluster_CommonCartridgeModule_providers</title>
<polygon fill="none" stroke="black" points="390,-78 390,-130 891,-130 891,-78 390,-78"/>
</g>
<g id="clust4" class="cluster">
<title>cluster_CommonCartridgeModule_exports</title>
<polygon fill="none" stroke="black" points="314,-208 314,-260 470,-260 470,-208 314,-208"/>
</g>
<g id="clust3" class="cluster">
<title>cluster_CommonCartridgeModule_imports</title>
<polygon fill="none" stroke="black" points="16,-78 16,-130 382,-130 382,-78 16,-78"/>
</g>
<!-- FilesStorageClientModule -->
<g id="node1" class="node">
<title>FilesStorageClientModule</title>
<polygon fill="#8dd3c7" stroke="black" points="373.76,-122 370.76,-126 349.76,-126 346.76,-122 210.24,-122 210.24,-86 373.76,-86 373.76,-122"/>
<text text-anchor="middle" x="292" y="-99.8" font-family="Times,serif" font-size="14.00">FilesStorageClientModule</text>
</g>
<!-- CommonCartridgeModule -->
<g id="node3" class="node">
<title>CommonCartridgeModule</title>
<polygon fill="#8dd3c7" stroke="black" points="474.04,-187 471.04,-191 450.04,-191 447.04,-187 309.96,-187 309.96,-151 474.04,-151 474.04,-187"/>
<text text-anchor="middle" x="392" y="-164.8" font-family="Times,serif" font-size="14.00">CommonCartridgeModule</text>
</g>
<!-- FilesStorageClientModule&#45;&gt;CommonCartridgeModule -->
<g id="edge1" class="edge">
<title>FilesStorageClientModule&#45;&gt;CommonCartridgeModule</title>
<path fill="none" stroke="black" d="M341.81,-122.11C341.81,-122.11 341.81,-140.99 341.81,-140.99"/>
<polygon fill="black" stroke="black" points="338.31,-140.99 341.81,-150.99 345.31,-140.99 338.31,-140.99"/>
</g>
<!-- RabbitMQWrapperModule -->
<g id="node2" class="node">
<title>RabbitMQWrapperModule</title>
<polygon fill="#8dd3c7" stroke="black" points="192.4,-122 189.4,-126 168.4,-126 165.4,-122 23.6,-122 23.6,-86 192.4,-86 192.4,-122"/>
<text text-anchor="middle" x="108" y="-99.8" font-family="Times,serif" font-size="14.00">RabbitMQWrapperModule</text>
</g>
<!-- RabbitMQWrapperModule&#45;&gt;CommonCartridgeModule -->
<g id="edge2" class="edge">
<title>RabbitMQWrapperModule&#45;&gt;CommonCartridgeModule</title>
<path fill="none" stroke="black" d="M108,-122.11C108,-141.34 108,-169 108,-169 108,-169 299.86,-169 299.86,-169"/>
<polygon fill="black" stroke="black" points="299.86,-172.5 309.86,-169 299.86,-165.5 299.86,-172.5"/>
</g>
<!-- CommonCartridgeUc  -->
<g id="node4" class="node">
<title>CommonCartridgeUc </title>
<polygon fill="#fb8072" stroke="black" points="462.31,-252 321.69,-252 321.69,-216 462.31,-216 462.31,-252"/>
<text text-anchor="middle" x="392" y="-229.8" font-family="Times,serif" font-size="14.00">CommonCartridgeUc </text>
</g>
<!-- CommonCartridgeModule&#45;&gt;CommonCartridgeUc  -->
<g id="edge3" class="edge">
<title>CommonCartridgeModule&#45;&gt;CommonCartridgeUc </title>
<path fill="none" stroke="black" stroke-dasharray="5,2" d="M392,-187.11C392,-187.11 392,-205.99 392,-205.99"/>
<polygon fill="black" stroke="black" points="388.5,-205.99 392,-215.99 395.5,-205.99 388.5,-205.99"/>
</g>
<!-- CommonCartridgeExportService -->
<g id="node5" class="node">
<title>CommonCartridgeExportService</title>
<ellipse fill="#fdb462" stroke="black" cx="744" cy="-104" rx="138.89" ry="18"/>
<text text-anchor="middle" x="744" y="-99.8" font-family="Times,serif" font-size="14.00">CommonCartridgeExportService</text>
</g>
<!-- CommonCartridgeExportService&#45;&gt;CommonCartridgeModule -->
<g id="edge4" class="edge">
<title>CommonCartridgeExportService&#45;&gt;CommonCartridgeModule</title>
<path fill="none" stroke="black" d="M744,-122.11C744,-141.34 744,-169 744,-169 744,-169 484.08,-169 484.08,-169"/>
<polygon fill="black" stroke="black" points="484.08,-165.5 474.08,-169 484.08,-172.5 484.08,-165.5"/>
</g>
<!-- CommonCartridgeUc -->
<g id="node6" class="node">
<title>CommonCartridgeUc</title>
<ellipse fill="#fdb462" stroke="black" cx="493" cy="-104" rx="94.92" ry="18"/>
<text text-anchor="middle" x="493" y="-99.8" font-family="Times,serif" font-size="14.00">CommonCartridgeUc</text>
</g>
<!-- CommonCartridgeUc&#45;&gt;CommonCartridgeModule -->
<g id="edge5" class="edge">
<title>CommonCartridgeUc&#45;&gt;CommonCartridgeModule</title>
<path fill="none" stroke="black" d="M436.28,-118.43C436.28,-118.43 436.28,-140.89 436.28,-140.89"/>
<polygon fill="black" stroke="black" points="432.78,-140.89 436.28,-150.89 439.78,-140.89 432.78,-140.89"/>
</g>
</g>
</svg>
