<?xml version="1.0" encoding="UTF-8" standalone="no"?>
<!DOCTYPE svg PUBLIC "-//W3C//DTD SVG 1.1//EN"
 "http://www.w3.org/Graphics/SVG/1.1/DTD/svg11.dtd">
<!-- Generated by graphviz version 2.47.0 (20210316.0004)
 -->
<!-- Title: dependencies Pages: 1 -->
<svg width="934pt" height="284pt"
 viewBox="0.00 0.00 934.00 284.00" xmlns="http://www.w3.org/2000/svg" xmlns:xlink="http://www.w3.org/1999/xlink">
<g id="graph0" class="graph" transform="scale(1 1) rotate(0) translate(4 280)">
<title>dependencies</title>
<polygon fill="white" stroke="transparent" points="-4,4 -4,-280 930,-280 930,4 -4,4"/>
<text text-anchor="start" x="442.01" y="-42.4" font-family="Times-12" font-weight="bold" font-size="14.00">Legend</text>
<polygon fill="#ffffb3" stroke="transparent" points="229,-10 229,-30 249,-30 249,-10 229,-10"/>
<text text-anchor="start" x="252.63" y="-15.4" font-family="Times-12" font-size="14.00"> &#160;Declarations</text>
<polygon fill="#8dd3c7" stroke="transparent" points="342,-10 342,-30 362,-30 362,-10 342,-10"/>
<text text-anchor="start" x="365.73" y="-15.4" font-family="Times-12" font-size="14.00"> &#160;Module</text>
<polygon fill="#80b1d3" stroke="transparent" points="428,-10 428,-30 448,-30 448,-10 428,-10"/>
<text text-anchor="start" x="451.78" y="-15.4" font-family="Times-12" font-size="14.00"> &#160;Bootstrap</text>
<polygon fill="#fdb462" stroke="transparent" points="525,-10 525,-30 545,-30 545,-10 525,-10"/>
<text text-anchor="start" x="548.67" y="-15.4" font-family="Times-12" font-size="14.00"> &#160;Providers</text>
<polygon fill="#fb8072" stroke="transparent" points="621,-10 621,-30 641,-30 641,-10 621,-10"/>
<text text-anchor="start" x="644.73" y="-15.4" font-family="Times-12" font-size="14.00"> &#160;Exports</text>
<g id="clust1" class="cluster">
<title>cluster_ToolModule</title>
<polygon fill="none" stroke="black" stroke-dasharray="1,5" points="8,-70 8,-268 918,-268 918,-70 8,-70"/>
</g>
<g id="clust4" class="cluster">
<title>cluster_ToolModule_exports</title>
<polygon fill="none" stroke="black" points="48,-208 48,-260 902,-260 902,-208 48,-208"/>
</g>
<g id="clust3" class="cluster">
<title>cluster_ToolModule_imports</title>
<polygon fill="none" stroke="black" points="228,-78 228,-130 910,-130 910,-78 228,-78"/>
</g>
<g id="clust6" class="cluster">
<title>cluster_ToolModule_providers</title>
<polygon fill="none" stroke="black" points="16,-78 16,-130 220,-130 220,-78 16,-78"/>
</g>
<!-- ContextExternalToolModule -->
<g id="node1" class="node">
<title>ContextExternalToolModule</title>
<polygon fill="#8dd3c7" stroke="black" points="901.75,-122 898.75,-126 877.75,-126 874.75,-122 724.25,-122 724.25,-86 901.75,-86 901.75,-122"/>
<text text-anchor="middle" x="813" y="-99.8" font-family="Times,serif" font-size="14.00">ContextExternalToolModule</text>
</g>
<!-- ToolModule -->
<g id="node5" class="node">
<title>ToolModule</title>
<polygon fill="#8dd3c7" stroke="black" points="510.99,-187 507.99,-191 486.99,-191 483.99,-187 425.01,-187 425.01,-151 510.99,-151 510.99,-187"/>
<text text-anchor="middle" x="468" y="-164.8" font-family="Times,serif" font-size="14.00">ToolModule</text>
</g>
<!-- ContextExternalToolModule&#45;&gt;ToolModule -->
<g id="edge1" class="edge">
<title>ContextExternalToolModule&#45;&gt;ToolModule</title>
<path fill="none" stroke="black" d="M729.88,-122.27C729.88,-140.56 729.88,-166 729.88,-166 729.88,-166 521.24,-166 521.24,-166"/>
<polygon fill="black" stroke="black" points="521.24,-162.5 511.24,-166 521.24,-169.5 521.24,-162.5"/>
</g>
<!-- ExternalToolModule -->
<g id="node2" class="node">
<title>ExternalToolModule</title>
<polygon fill="#8dd3c7" stroke="black" points="705.92,-122 702.92,-126 681.92,-126 678.92,-122 572.08,-122 572.08,-86 705.92,-86 705.92,-122"/>
<text text-anchor="middle" x="639" y="-99.8" font-family="Times,serif" font-size="14.00">ExternalToolModule</text>
</g>
<!-- ExternalToolModule&#45;&gt;ToolModule -->
<g id="edge2" class="edge">
<title>ExternalToolModule&#45;&gt;ToolModule</title>
<path fill="none" stroke="black" d="M639,-122.01C639,-138.05 639,-159 639,-159 639,-159 521.15,-159 521.15,-159"/>
<polygon fill="black" stroke="black" points="521.15,-155.5 511.15,-159 521.15,-162.5 521.15,-155.5"/>
</g>
<!-- SchoolExternalToolModule -->
<g id="node3" class="node">
<title>SchoolExternalToolModule</title>
<polygon fill="#8dd3c7" stroke="black" points="554.3,-122 551.3,-126 530.3,-126 527.3,-122 381.7,-122 381.7,-86 554.3,-86 554.3,-122"/>
<text text-anchor="middle" x="468" y="-99.8" font-family="Times,serif" font-size="14.00">SchoolExternalToolModule</text>
</g>
<!-- SchoolExternalToolModule&#45;&gt;ToolModule -->
<g id="edge3" class="edge">
<title>SchoolExternalToolModule&#45;&gt;ToolModule</title>
<path fill="none" stroke="black" d="M468,-122.11C468,-122.11 468,-140.99 468,-140.99"/>
<polygon fill="black" stroke="black" points="464.5,-140.99 468,-150.99 471.5,-140.99 464.5,-140.99"/>
</g>
<!-- ToolLaunchModule -->
<g id="node4" class="node">
<title>ToolLaunchModule</title>
<polygon fill="#8dd3c7" stroke="black" points="363.97,-122 360.97,-126 339.97,-126 336.97,-122 236.03,-122 236.03,-86 363.97,-86 363.97,-122"/>
<text text-anchor="middle" x="300" y="-99.8" font-family="Times,serif" font-size="14.00">ToolLaunchModule</text>
</g>
<!-- ToolLaunchModule&#45;&gt;ToolModule -->
<g id="edge4" class="edge">
<title>ToolLaunchModule&#45;&gt;ToolModule</title>
<path fill="none" stroke="black" d="M300,-122.01C300,-138.05 300,-159 300,-159 300,-159 414.74,-159 414.74,-159"/>
<polygon fill="black" stroke="black" points="414.74,-162.5 424.74,-159 414.74,-155.5 414.74,-162.5"/>
</g>
<!-- CommonToolService  -->
<g id="node6" class="node">
<title>CommonToolService </title>
<polygon fill="#fb8072" stroke="black" points="894.04,-252 753.96,-252 753.96,-216 894.04,-216 894.04,-252"/>
<text text-anchor="middle" x="824" y="-229.8" font-family="Times,serif" font-size="14.00">CommonToolService </text>
</g>
<!-- ToolModule&#45;&gt;CommonToolService  -->
<g id="edge5" class="edge">
<title>ToolModule&#45;&gt;CommonToolService </title>
<path fill="none" stroke="black" stroke-dasharray="5,2" d="M511.3,-173C606.17,-173 824,-173 824,-173 824,-173 824,-205.7 824,-205.7"/>
<polygon fill="black" stroke="black" points="820.5,-205.7 824,-215.7 827.5,-205.7 820.5,-205.7"/>
</g>
<!-- ContextExternalToolModule  -->
<g id="node7" class="node">
<title>ContextExternalToolModule </title>
<polygon fill="#fb8072" stroke="black" points="735.75,-252 554.25,-252 554.25,-216 735.75,-216 735.75,-252"/>
<text text-anchor="middle" x="645" y="-229.8" font-family="Times,serif" font-size="14.00">ContextExternalToolModule </text>
</g>
<!-- ToolModule&#45;&gt;ContextExternalToolModule  -->
<g id="edge6" class="edge">
<title>ToolModule&#45;&gt;ContextExternalToolModule </title>
<path fill="none" stroke="black" stroke-dasharray="5,2" d="M511.2,-180C536.43,-180 563.33,-180 563.33,-180 563.33,-180 563.33,-205.72 563.33,-205.72"/>
<polygon fill="black" stroke="black" points="559.83,-205.72 563.33,-215.72 566.83,-205.72 559.83,-205.72"/>
</g>
<!-- ExternalToolModule  -->
<g id="node8" class="node">
<title>ExternalToolModule </title>
<polygon fill="#fb8072" stroke="black" points="536.42,-252 399.58,-252 399.58,-216 536.42,-216 536.42,-252"/>
<text text-anchor="middle" x="468" y="-229.8" font-family="Times,serif" font-size="14.00">ExternalToolModule </text>
</g>
<!-- ToolModule&#45;&gt;ExternalToolModule  -->
<g id="edge7" class="edge">
<title>ToolModule&#45;&gt;ExternalToolModule </title>
<path fill="none" stroke="black" stroke-dasharray="5,2" d="M468,-187.11C468,-187.11 468,-205.99 468,-205.99"/>
<polygon fill="black" stroke="black" points="464.5,-205.99 468,-215.99 471.5,-205.99 464.5,-205.99"/>
</g>
<!-- SchoolExternalToolModule  -->
<g id="node9" class="node">
<title>SchoolExternalToolModule </title>
<polygon fill="#fb8072" stroke="black" points="381.8,-252 206.2,-252 206.2,-216 381.8,-216 381.8,-252"/>
<text text-anchor="middle" x="294" y="-229.8" font-family="Times,serif" font-size="14.00">SchoolExternalToolModule </text>
</g>
<!-- ToolModule&#45;&gt;SchoolExternalToolModule  -->
<g id="edge8" class="edge">
<title>ToolModule&#45;&gt;SchoolExternalToolModule </title>
<path fill="none" stroke="black" stroke-dasharray="5,2" d="M424.91,-180C399.75,-180 372.92,-180 372.92,-180 372.92,-180 372.92,-205.72 372.92,-205.72"/>
<polygon fill="black" stroke="black" points="369.42,-205.72 372.92,-215.72 376.42,-205.72 369.42,-205.72"/>
</g>
<!-- ToolLaunchModule  -->
<g id="node10" class="node">
<title>ToolLaunchModule </title>
<polygon fill="#fb8072" stroke="black" points="187.98,-252 56.02,-252 56.02,-216 187.98,-216 187.98,-252"/>
<text text-anchor="middle" x="122" y="-229.8" font-family="Times,serif" font-size="14.00">ToolLaunchModule </text>
</g>
<!-- ToolModule&#45;&gt;ToolLaunchModule  -->
<g id="edge9" class="edge">
<title>ToolModule&#45;&gt;ToolLaunchModule </title>
<path fill="none" stroke="black" stroke-dasharray="5,2" d="M424.88,-173C332.13,-173 122,-173 122,-173 122,-173 122,-205.7 122,-205.7"/>
<polygon fill="black" stroke="black" points="118.5,-205.7 122,-215.7 125.5,-205.7 118.5,-205.7"/>
</g>
<!-- CommonToolService -->
<g id="node11" class="node">
<title>CommonToolService</title>
<ellipse fill="#fdb462" stroke="black" cx="118" cy="-104" rx="94.36" ry="18"/>
<text text-anchor="middle" x="118" y="-99.8" font-family="Times,serif" font-size="14.00">CommonToolService</text>
</g>
<!-- CommonToolService&#45;&gt;ToolModule -->
<g id="edge10" class="edge">
<title>CommonToolService&#45;&gt;ToolModule</title>
<path fill="none" stroke="black" d="M196.92,-113.96C196.92,-131.49 196.92,-166 196.92,-166 196.92,-166 414.75,-166 414.75,-166"/>
<polygon fill="black" stroke="black" points="414.75,-169.5 424.75,-166 414.75,-162.5 414.75,-169.5"/>
</g>
</g>
</svg>
