<?xml version="1.0" encoding="UTF-8" standalone="no"?>
<!DOCTYPE svg PUBLIC "-//W3C//DTD SVG 1.1//EN"
 "http://www.w3.org/Graphics/SVG/1.1/DTD/svg11.dtd">
<!-- Generated by graphviz version 2.47.0 (20210316.0004)
 -->
<!-- Title: dependencies Pages: 1 -->
<svg width="1233pt" height="284pt"
 viewBox="0.00 0.00 1233.00 284.00" xmlns="http://www.w3.org/2000/svg" xmlns:xlink="http://www.w3.org/1999/xlink">
<g id="graph0" class="graph" transform="scale(1 1) rotate(0) translate(4 280)">
<title>dependencies</title>
<polygon fill="white" stroke="transparent" points="-4,4 -4,-280 1229,-280 1229,4 -4,4"/>
<text text-anchor="start" x="591.51" y="-42.4" font-family="Times-12" font-weight="bold" font-size="14.00">Legend</text>
<polygon fill="#ffffb3" stroke="transparent" points="378.5,-10 378.5,-30 398.5,-30 398.5,-10 378.5,-10"/>
<text text-anchor="start" x="402.13" y="-15.4" font-family="Times-12" font-size="14.00"> &#160;Declarations</text>
<polygon fill="#8dd3c7" stroke="transparent" points="491.5,-10 491.5,-30 511.5,-30 511.5,-10 491.5,-10"/>
<text text-anchor="start" x="515.23" y="-15.4" font-family="Times-12" font-size="14.00"> &#160;Module</text>
<polygon fill="#80b1d3" stroke="transparent" points="577.5,-10 577.5,-30 597.5,-30 597.5,-10 577.5,-10"/>
<text text-anchor="start" x="601.28" y="-15.4" font-family="Times-12" font-size="14.00"> &#160;Bootstrap</text>
<polygon fill="#fdb462" stroke="transparent" points="674.5,-10 674.5,-30 694.5,-30 694.5,-10 674.5,-10"/>
<text text-anchor="start" x="698.17" y="-15.4" font-family="Times-12" font-size="14.00"> &#160;Providers</text>
<polygon fill="#fb8072" stroke="transparent" points="770.5,-10 770.5,-30 790.5,-30 790.5,-10 770.5,-10"/>
<text text-anchor="start" x="794.23" y="-15.4" font-family="Times-12" font-size="14.00"> &#160;Exports</text>
<g id="clust1" class="cluster">
<title>cluster_ToolModule</title>
<polygon fill="none" stroke="black" stroke-dasharray="1,5" points="8,-70 8,-268 1217,-268 1217,-70 8,-70"/>
</g>
<g id="clust3" class="cluster">
<title>cluster_ToolModule_imports</title>
<polygon fill="none" stroke="black" points="228,-78 228,-130 1209,-130 1209,-78 228,-78"/>
</g>
<g id="clust6" class="cluster">
<title>cluster_ToolModule_providers</title>
<polygon fill="none" stroke="black" points="16,-78 16,-130 220,-130 220,-78 16,-78"/>
</g>
<g id="clust4" class="cluster">
<title>cluster_ToolModule_exports</title>
<polygon fill="none" stroke="black" points="191,-208 191,-260 1045,-260 1045,-208 191,-208"/>
</g>
<!-- CommonToolModule -->
<g id="node1" class="node">
<title>CommonToolModule</title>
<polygon fill="#8dd3c7" stroke="black" points="1201.11,-122 1198.11,-126 1177.11,-126 1174.11,-122 1062.89,-122 1062.89,-86 1201.11,-86 1201.11,-122"/>
<text text-anchor="middle" x="1132" y="-99.8" font-family="Times,serif" font-size="14.00">CommonToolModule</text>
</g>
<!-- ToolModule -->
<g id="node7" class="node">
<title>ToolModule</title>
<polygon fill="#8dd3c7" stroke="black" points="653.99,-187 650.99,-191 629.99,-191 626.99,-187 568.01,-187 568.01,-151 653.99,-151 653.99,-187"/>
<text text-anchor="middle" x="611" y="-164.8" font-family="Times,serif" font-size="14.00">ToolModule</text>
</g>
<!-- CommonToolModule&#45;&gt;ToolModule -->
<g id="edge1" class="edge">
<title>CommonToolModule&#45;&gt;ToolModule</title>
<path fill="none" stroke="black" d="M1132,-122.11C1132,-141.34 1132,-169 1132,-169 1132,-169 664.08,-169 664.08,-169"/>
<polygon fill="black" stroke="black" points="664.08,-165.5 654.08,-169 664.08,-172.5 664.08,-165.5"/>
</g>
<!-- ContextExternalToolModule -->
<g id="node2" class="node">
<title>ContextExternalToolModule</title>
<polygon fill="#8dd3c7" stroke="black" points="1044.75,-122 1041.75,-126 1020.75,-126 1017.75,-122 867.25,-122 867.25,-86 1044.75,-86 1044.75,-122"/>
<text text-anchor="middle" x="956" y="-99.8" font-family="Times,serif" font-size="14.00">ContextExternalToolModule</text>
</g>
<!-- ContextExternalToolModule&#45;&gt;ToolModule -->
<g id="edge2" class="edge">
<title>ContextExternalToolModule&#45;&gt;ToolModule</title>
<path fill="none" stroke="black" d="M872.88,-122.02C872.88,-139.37 872.88,-163 872.88,-163 872.88,-163 664.24,-163 664.24,-163"/>
<polygon fill="black" stroke="black" points="664.24,-159.5 654.24,-163 664.24,-166.5 664.24,-159.5"/>
</g>
<!-- ExternalToolModule -->
<g id="node3" class="node">
<title>ExternalToolModule</title>
<polygon fill="#8dd3c7" stroke="black" points="848.92,-122 845.92,-126 824.92,-126 821.92,-122 715.08,-122 715.08,-86 848.92,-86 848.92,-122"/>
<text text-anchor="middle" x="782" y="-99.8" font-family="Times,serif" font-size="14.00">ExternalToolModule</text>
</g>
<!-- ExternalToolModule&#45;&gt;ToolModule -->
<g id="edge3" class="edge">
<title>ExternalToolModule&#45;&gt;ToolModule</title>
<path fill="none" stroke="black" d="M782,-122.24C782,-137.57 782,-157 782,-157 782,-157 664.15,-157 664.15,-157"/>
<polygon fill="black" stroke="black" points="664.15,-153.5 654.15,-157 664.15,-160.5 664.15,-153.5"/>
</g>
<!-- SchoolExternalToolModule -->
<g id="node4" class="node">
<title>SchoolExternalToolModule</title>
<polygon fill="#8dd3c7" stroke="black" points="697.3,-122 694.3,-126 673.3,-126 670.3,-122 524.7,-122 524.7,-86 697.3,-86 697.3,-122"/>
<text text-anchor="middle" x="611" y="-99.8" font-family="Times,serif" font-size="14.00">SchoolExternalToolModule</text>
</g>
<!-- SchoolExternalToolModule&#45;&gt;ToolModule -->
<g id="edge4" class="edge">
<title>SchoolExternalToolModule&#45;&gt;ToolModule</title>
<path fill="none" stroke="black" d="M611,-122.11C611,-122.11 611,-140.99 611,-140.99"/>
<polygon fill="black" stroke="black" points="607.5,-140.99 611,-150.99 614.5,-140.99 607.5,-140.99"/>
</g>
<!-- ToolConfigModule -->
<g id="node5" class="node">
<title>ToolConfigModule</title>
<polygon fill="#8dd3c7" stroke="black" points="506.38,-122 503.38,-126 482.38,-126 479.38,-122 381.62,-122 381.62,-86 506.38,-86 506.38,-122"/>
<text text-anchor="middle" x="444" y="-99.8" font-family="Times,serif" font-size="14.00">ToolConfigModule</text>
</g>
<!-- ToolConfigModule&#45;&gt;ToolModule -->
<g id="edge5" class="edge">
<title>ToolConfigModule&#45;&gt;ToolModule</title>
<path fill="none" stroke="black" d="M444,-122.24C444,-137.57 444,-157 444,-157 444,-157 557.99,-157 557.99,-157"/>
<polygon fill="black" stroke="black" points="557.99,-160.5 567.99,-157 557.99,-153.5 557.99,-160.5"/>
</g>
<!-- ToolLaunchModule -->
<g id="node6" class="node">
<title>ToolLaunchModule</title>
<polygon fill="#8dd3c7" stroke="black" points="363.97,-122 360.97,-126 339.97,-126 336.97,-122 236.03,-122 236.03,-86 363.97,-86 363.97,-122"/>
<text text-anchor="middle" x="300" y="-99.8" font-family="Times,serif" font-size="14.00">ToolLaunchModule</text>
</g>
<!-- ToolLaunchModule&#45;&gt;ToolModule -->
<g id="edge6" class="edge">
<title>ToolLaunchModule&#45;&gt;ToolModule</title>
<path fill="none" stroke="black" d="M356.54,-122.02C356.54,-139.37 356.54,-163 356.54,-163 356.54,-163 557.83,-163 557.83,-163"/>
<polygon fill="black" stroke="black" points="557.83,-166.5 567.83,-163 557.83,-159.5 557.83,-166.5"/>
</g>
<!-- CommonToolService  -->
<g id="node8" class="node">
<title>CommonToolService </title>
<polygon fill="#fb8072" stroke="black" points="1037.04,-252 896.96,-252 896.96,-216 1037.04,-216 1037.04,-252"/>
<text text-anchor="middle" x="967" y="-229.8" font-family="Times,serif" font-size="14.00">CommonToolService </text>
</g>
<!-- ToolModule&#45;&gt;CommonToolService  -->
<g id="edge7" class="edge">
<title>ToolModule&#45;&gt;CommonToolService </title>
<path fill="none" stroke="black" stroke-dasharray="5,2" d="M654.3,-175C749.17,-175 967,-175 967,-175 967,-175 967,-205.98 967,-205.98"/>
<polygon fill="black" stroke="black" points="963.5,-205.98 967,-215.98 970.5,-205.98 963.5,-205.98"/>
</g>
<!-- ContextExternalToolModule  -->
<g id="node9" class="node">
<title>ContextExternalToolModule </title>
<polygon fill="#fb8072" stroke="black" points="878.75,-252 697.25,-252 697.25,-216 878.75,-216 878.75,-252"/>
<text text-anchor="middle" x="788" y="-229.8" font-family="Times,serif" font-size="14.00">ContextExternalToolModule </text>
</g>
<!-- ToolModule&#45;&gt;ContextExternalToolModule  -->
<g id="edge8" class="edge">
<title>ToolModule&#45;&gt;ContextExternalToolModule </title>
<path fill="none" stroke="black" stroke-dasharray="5,2" d="M654.2,-181C679.43,-181 706.33,-181 706.33,-181 706.33,-181 706.33,-205.76 706.33,-205.76"/>
<polygon fill="black" stroke="black" points="702.83,-205.76 706.33,-215.76 709.83,-205.76 702.83,-205.76"/>
</g>
<!-- ExternalToolModule  -->
<g id="node10" class="node">
<title>ExternalToolModule </title>
<polygon fill="#fb8072" stroke="black" points="679.42,-252 542.58,-252 542.58,-216 679.42,-216 679.42,-252"/>
<text text-anchor="middle" x="611" y="-229.8" font-family="Times,serif" font-size="14.00">ExternalToolModule </text>
</g>
<!-- ToolModule&#45;&gt;ExternalToolModule  -->
<g id="edge9" class="edge">
<title>ToolModule&#45;&gt;ExternalToolModule </title>
<path fill="none" stroke="black" stroke-dasharray="5,2" d="M611,-187.11C611,-187.11 611,-205.99 611,-205.99"/>
<polygon fill="black" stroke="black" points="607.5,-205.99 611,-215.99 614.5,-205.99 607.5,-205.99"/>
</g>
<!-- SchoolExternalToolModule  -->
<g id="node11" class="node">
<title>SchoolExternalToolModule </title>
<polygon fill="#fb8072" stroke="black" points="524.8,-252 349.2,-252 349.2,-216 524.8,-216 524.8,-252"/>
<text text-anchor="middle" x="437" y="-229.8" font-family="Times,serif" font-size="14.00">SchoolExternalToolModule </text>
</g>
<!-- ToolModule&#45;&gt;SchoolExternalToolModule  -->
<g id="edge10" class="edge">
<title>ToolModule&#45;&gt;SchoolExternalToolModule </title>
<path fill="none" stroke="black" stroke-dasharray="5,2" d="M567.79,-181C542.56,-181 515.64,-181 515.64,-181 515.64,-181 515.64,-205.76 515.64,-205.76"/>
<polygon fill="black" stroke="black" points="512.14,-205.76 515.64,-215.76 519.14,-205.76 512.14,-205.76"/>
</g>
<!-- ToolLaunchModule  -->
<g id="node12" class="node">
<title>ToolLaunchModule </title>
<polygon fill="#fb8072" stroke="black" points="330.98,-252 199.02,-252 199.02,-216 330.98,-216 330.98,-252"/>
<text text-anchor="middle" x="265" y="-229.8" font-family="Times,serif" font-size="14.00">ToolLaunchModule </text>
</g>
<!-- ToolModule&#45;&gt;ToolLaunchModule  -->
<g id="edge11" class="edge">
<title>ToolModule&#45;&gt;ToolLaunchModule </title>
<path fill="none" stroke="black" stroke-dasharray="5,2" d="M567.83,-175C478.87,-175 283.38,-175 283.38,-175 283.38,-175 283.38,-205.98 283.38,-205.98"/>
<polygon fill="black" stroke="black" points="279.88,-205.98 283.38,-215.98 286.88,-205.98 279.88,-205.98"/>
</g>
<!-- CommonToolService -->
<g id="node13" class="node">
<title>CommonToolService</title>
<ellipse fill="#fdb462" stroke="black" cx="118" cy="-104" rx="94.36" ry="18"/>
<text text-anchor="middle" x="118" y="-99.8" font-family="Times,serif" font-size="14.00">CommonToolService</text>
</g>
<!-- CommonToolService&#45;&gt;ToolModule -->
<g id="edge12" class="edge">
<title>CommonToolService&#45;&gt;ToolModule</title>
<path fill="none" stroke="black" d="M205.72,-110.96C205.72,-127.72 205.72,-169 205.72,-169 205.72,-169 557.63,-169 557.63,-169"/>
<polygon fill="black" stroke="black" points="557.63,-172.5 567.63,-169 557.63,-165.5 557.63,-172.5"/>
</g>
</g>
</svg>
