<?xml version="1.0" encoding="UTF-8" standalone="no"?>
<!DOCTYPE svg PUBLIC "-//W3C//DTD SVG 1.1//EN"
 "http://www.w3.org/Graphics/SVG/1.1/DTD/svg11.dtd">
<!-- Generated by graphviz version 2.47.0 (20210316.0004)
 -->
<!-- Title: dependencies Pages: 1 -->
<svg width="5475pt" height="284pt"
 viewBox="0.00 0.00 5475.00 284.00" xmlns="http://www.w3.org/2000/svg" xmlns:xlink="http://www.w3.org/1999/xlink">
<g id="graph0" class="graph" transform="scale(1 1) rotate(0) translate(4 280)">
<title>dependencies</title>
<polygon fill="white" stroke="transparent" points="-4,4 -4,-280 5471,-280 5471,4 -4,4"/>
<text text-anchor="start" x="2712.51" y="-42.4" font-family="Times-12" font-weight="bold" font-size="14.00">Legend</text>
<polygon fill="#ffffb3" stroke="transparent" points="2499.5,-10 2499.5,-30 2519.5,-30 2519.5,-10 2499.5,-10"/>
<text text-anchor="start" x="2523.13" y="-15.4" font-family="Times-12" font-size="14.00"> &#160;Declarations</text>
<polygon fill="#8dd3c7" stroke="transparent" points="2612.5,-10 2612.5,-30 2632.5,-30 2632.5,-10 2612.5,-10"/>
<text text-anchor="start" x="2636.23" y="-15.4" font-family="Times-12" font-size="14.00"> &#160;Module</text>
<polygon fill="#80b1d3" stroke="transparent" points="2698.5,-10 2698.5,-30 2718.5,-30 2718.5,-10 2698.5,-10"/>
<text text-anchor="start" x="2722.28" y="-15.4" font-family="Times-12" font-size="14.00"> &#160;Bootstrap</text>
<polygon fill="#fdb462" stroke="transparent" points="2795.5,-10 2795.5,-30 2815.5,-30 2815.5,-10 2795.5,-10"/>
<text text-anchor="start" x="2819.17" y="-15.4" font-family="Times-12" font-size="14.00"> &#160;Providers</text>
<polygon fill="#fb8072" stroke="transparent" points="2891.5,-10 2891.5,-30 2911.5,-30 2911.5,-10 2891.5,-10"/>
<text text-anchor="start" x="2915.23" y="-15.4" font-family="Times-12" font-size="14.00"> &#160;Exports</text>
<g id="clust1" class="cluster">
<title>cluster_ToolModule</title>
<polygon fill="none" stroke="black" stroke-dasharray="1,5" points="8,-70 8,-268 5459,-268 5459,-70 8,-70"/>
</g>
<g id="clust6" class="cluster">
<title>cluster_ToolModule_providers</title>
<polygon fill="none" stroke="black" points="728,-78 728,-130 5451,-130 5451,-78 728,-78"/>
</g>
<g id="clust4" class="cluster">
<title>cluster_ToolModule_exports</title>
<polygon fill="none" stroke="black" points="1517,-208 1517,-260 3329,-260 3329,-208 1517,-208"/>
</g>
<g id="clust3" class="cluster">
<title>cluster_ToolModule_imports</title>
<polygon fill="none" stroke="black" points="16,-78 16,-130 720,-130 720,-78 16,-78"/>
</g>
<!-- EncryptionModule -->
<g id="node1" class="node">
<title>EncryptionModule</title>
<polygon fill="#8dd3c7" stroke="black" points="711.76,-122 708.76,-126 687.76,-126 684.76,-122 590.24,-122 590.24,-86 711.76,-86 711.76,-122"/>
<text text-anchor="middle" x="651" y="-99.8" font-family="Times,serif" font-size="14.00">EncryptionModule</text>
</g>
<!-- ToolModule -->
<g id="node6" class="node">
<title>ToolModule</title>
<polygon fill="#8dd3c7" stroke="black" points="2439.99,-187 2436.99,-191 2415.99,-191 2412.99,-187 2354.01,-187 2354.01,-151 2439.99,-151 2439.99,-187"/>
<text text-anchor="middle" x="2397" y="-164.8" font-family="Times,serif" font-size="14.00">ToolModule</text>
</g>
<!-- EncryptionModule&#45;&gt;ToolModule -->
<g id="edge1" class="edge">
<title>EncryptionModule&#45;&gt;ToolModule</title>
<path fill="none" stroke="black" d="M651,-122.22C651,-140.83 651,-167 651,-167 651,-167 2343.84,-167 2343.84,-167"/>
<polygon fill="black" stroke="black" points="2343.84,-170.5 2353.84,-167 2343.84,-163.5 2343.84,-170.5"/>
</g>
<!-- LoggerModule -->
<g id="node2" class="node">
<title>LoggerModule</title>
<polygon fill="#8dd3c7" stroke="black" points="571.98,-122 568.98,-126 547.98,-126 544.98,-122 472.02,-122 472.02,-86 571.98,-86 571.98,-122"/>
<text text-anchor="middle" x="522" y="-99.8" font-family="Times,serif" font-size="14.00">LoggerModule</text>
</g>
<!-- LoggerModule&#45;&gt;ToolModule -->
<g id="edge2" class="edge">
<title>LoggerModule&#45;&gt;ToolModule</title>
<path fill="none" stroke="black" d="M522,-122.11C522,-141.34 522,-169 522,-169 522,-169 2343.86,-169 2343.86,-169"/>
<polygon fill="black" stroke="black" points="2343.86,-172.5 2353.86,-169 2343.86,-165.5 2343.86,-172.5"/>
</g>
<!-- OauthProviderServiceModule -->
<g id="node3" class="node">
<title>OauthProviderServiceModule</title>
<polygon fill="#8dd3c7" stroke="black" points="453.95,-122 450.95,-126 429.95,-126 426.95,-122 270.05,-122 270.05,-86 453.95,-86 453.95,-122"/>
<text text-anchor="middle" x="362" y="-99.8" font-family="Times,serif" font-size="14.00">OauthProviderServiceModule</text>
</g>
<!-- OauthProviderServiceModule&#45;&gt;ToolModule -->
<g id="edge3" class="edge">
<title>OauthProviderServiceModule&#45;&gt;ToolModule</title>
<path fill="none" stroke="black" d="M362,-122.22C362,-142.37 362,-172 362,-172 362,-172 2343.55,-172 2343.55,-172"/>
<polygon fill="black" stroke="black" points="2343.55,-175.5 2353.55,-172 2343.55,-168.5 2343.55,-175.5"/>
</g>
<!-- PseudonymModule -->
<g id="node4" class="node">
<title>PseudonymModule</title>
<polygon fill="#8dd3c7" stroke="black" points="252.38,-122 249.38,-126 228.38,-126 225.38,-122 127.62,-122 127.62,-86 252.38,-86 252.38,-122"/>
<text text-anchor="middle" x="190" y="-99.8" font-family="Times,serif" font-size="14.00">PseudonymModule</text>
</g>
<!-- PseudonymModule&#45;&gt;ToolModule -->
<g id="edge4" class="edge">
<title>PseudonymModule&#45;&gt;ToolModule</title>
<path fill="none" stroke="black" d="M190,-122.03C190,-142.77 190,-174 190,-174 190,-174 2343.9,-174 2343.9,-174"/>
<polygon fill="black" stroke="black" points="2343.9,-177.5 2353.9,-174 2343.9,-170.5 2343.9,-177.5"/>
</g>
<!-- UserModule -->
<g id="node5" class="node">
<title>UserModule</title>
<polygon fill="#8dd3c7" stroke="black" points="109.98,-122 106.98,-126 85.98,-126 82.98,-122 24.02,-122 24.02,-86 109.98,-86 109.98,-122"/>
<text text-anchor="middle" x="67" y="-99.8" font-family="Times,serif" font-size="14.00">UserModule</text>
</g>
<!-- UserModule&#45;&gt;ToolModule -->
<g id="edge5" class="edge">
<title>UserModule&#45;&gt;ToolModule</title>
<path fill="none" stroke="black" d="M67,-122.17C67,-143.5 67,-176 67,-176 67,-176 2343.81,-176 2343.81,-176"/>
<polygon fill="black" stroke="black" points="2343.81,-179.5 2353.81,-176 2343.81,-172.5 2343.81,-179.5"/>
</g>
<!-- CommonToolValidationService  -->
<g id="node7" class="node">
<title>CommonToolValidationService </title>
<polygon fill="#fb8072" stroke="black" points="3320.64,-252 3121.36,-252 3121.36,-216 3320.64,-216 3320.64,-252"/>
<text text-anchor="middle" x="3221" y="-229.8" font-family="Times,serif" font-size="14.00">CommonToolValidationService </text>
</g>
<!-- ToolModule&#45;&gt;CommonToolValidationService  -->
<g id="edge6" class="edge">
<title>ToolModule&#45;&gt;CommonToolValidationService </title>
<path fill="none" stroke="black" stroke-dasharray="5,2" d="M2440.24,-178C2600.45,-178 3150.94,-178 3150.94,-178 3150.94,-178 3150.94,-205.97 3150.94,-205.97"/>
<polygon fill="black" stroke="black" points="3147.44,-205.97 3150.94,-215.97 3154.44,-205.97 3147.44,-205.97"/>
</g>
<!-- ContextExternalToolService  -->
<g id="node8" class="node">
<title>ContextExternalToolService </title>
<polygon fill="#fb8072" stroke="black" points="3103.68,-252 2924.32,-252 2924.32,-216 3103.68,-216 3103.68,-252"/>
<text text-anchor="middle" x="3014" y="-229.8" font-family="Times,serif" font-size="14.00">ContextExternalToolService </text>
</g>
<!-- ToolModule&#45;&gt;ContextExternalToolService  -->
<g id="edge7" class="edge">
<title>ToolModule&#45;&gt;ContextExternalToolService </title>
<path fill="none" stroke="black" stroke-dasharray="5,2" d="M2440.32,-181C2567.65,-181 2931.85,-181 2931.85,-181 2931.85,-181 2931.85,-205.76 2931.85,-205.76"/>
<polygon fill="black" stroke="black" points="2928.35,-205.76 2931.85,-215.76 2935.35,-205.76 2928.35,-205.76"/>
</g>
<!-- ContextExternalToolValidationService  -->
<g id="node9" class="node">
<title>ContextExternalToolValidationService </title>
<polygon fill="#fb8072" stroke="black" points="2906.28,-252 2667.72,-252 2667.72,-216 2906.28,-216 2906.28,-252"/>
<text text-anchor="middle" x="2787" y="-229.8" font-family="Times,serif" font-size="14.00">ContextExternalToolValidationService </text>
</g>
<!-- ToolModule&#45;&gt;ContextExternalToolValidationService  -->
<g id="edge8" class="edge">
<title>ToolModule&#45;&gt;ContextExternalToolValidationService </title>
<path fill="none" stroke="black" stroke-dasharray="5,2" d="M2440.23,-183C2541.77,-183 2787,-183 2787,-183 2787,-183 2787,-205.88 2787,-205.88"/>
<polygon fill="black" stroke="black" points="2783.5,-205.88 2787,-215.88 2790.5,-205.88 2783.5,-205.88"/>
</g>
<!-- ExternalToolRepoMapper  -->
<g id="node10" class="node">
<title>ExternalToolRepoMapper </title>
<polygon fill="#fb8072" stroke="black" points="2649.45,-252 2482.55,-252 2482.55,-216 2649.45,-216 2649.45,-252"/>
<text text-anchor="middle" x="2566" y="-229.8" font-family="Times,serif" font-size="14.00">ExternalToolRepoMapper </text>
</g>
<!-- ToolModule&#45;&gt;ExternalToolRepoMapper  -->
<g id="edge9" class="edge">
<title>ToolModule&#45;&gt;ExternalToolRepoMapper </title>
<path fill="none" stroke="black" stroke-dasharray="5,2" d="M2440.26,-185C2489.04,-185 2561.64,-185 2561.64,-185 2561.64,-185 2561.64,-205.75 2561.64,-205.75"/>
<polygon fill="black" stroke="black" points="2558.14,-205.75 2561.64,-215.75 2565.14,-205.75 2558.14,-205.75"/>
</g>
<!-- ExternalToolService  -->
<g id="node11" class="node">
<title>ExternalToolService </title>
<polygon fill="#fb8072" stroke="black" points="2464.84,-252 2329.16,-252 2329.16,-216 2464.84,-216 2464.84,-252"/>
<text text-anchor="middle" x="2397" y="-229.8" font-family="Times,serif" font-size="14.00">ExternalToolService </text>
</g>
<!-- ToolModule&#45;&gt;ExternalToolService  -->
<g id="edge10" class="edge">
<title>ToolModule&#45;&gt;ExternalToolService </title>
<path fill="none" stroke="black" stroke-dasharray="5,2" d="M2397,-187.11C2397,-187.11 2397,-205.99 2397,-205.99"/>
<polygon fill="black" stroke="black" points="2393.5,-205.99 2397,-215.99 2400.5,-205.99 2393.5,-205.99"/>
</g>
<!-- ExternalToolValidationService  -->
<g id="node12" class="node">
<title>ExternalToolValidationService </title>
<polygon fill="#fb8072" stroke="black" points="2311.44,-252 2116.56,-252 2116.56,-216 2311.44,-216 2311.44,-252"/>
<text text-anchor="middle" x="2214" y="-229.8" font-family="Times,serif" font-size="14.00">ExternalToolValidationService </text>
</g>
<!-- ToolModule&#45;&gt;ExternalToolValidationService  -->
<g id="edge11" class="edge">
<title>ToolModule&#45;&gt;ExternalToolValidationService </title>
<path fill="none" stroke="black" stroke-dasharray="5,2" d="M2353.74,-185C2307.79,-185 2241.7,-185 2241.7,-185 2241.7,-185 2241.7,-205.75 2241.7,-205.75"/>
<polygon fill="black" stroke="black" points="2238.2,-205.75 2241.7,-215.75 2245.2,-205.75 2238.2,-205.75"/>
</g>
<!-- SchoolExternalToolService  -->
<g id="node13" class="node">
<title>SchoolExternalToolService </title>
<polygon fill="#fb8072" stroke="black" points="2099.23,-252 1924.77,-252 1924.77,-216 2099.23,-216 2099.23,-252"/>
<text text-anchor="middle" x="2012" y="-229.8" font-family="Times,serif" font-size="14.00">SchoolExternalToolService </text>
</g>
<!-- ToolModule&#45;&gt;SchoolExternalToolService  -->
<g id="edge12" class="edge">
<title>ToolModule&#45;&gt;SchoolExternalToolService </title>
<path fill="none" stroke="black" stroke-dasharray="5,2" d="M2353.97,-183C2254.16,-183 2015.39,-183 2015.39,-183 2015.39,-183 2015.39,-205.88 2015.39,-205.88"/>
<polygon fill="black" stroke="black" points="2011.89,-205.88 2015.39,-215.88 2018.89,-205.88 2011.89,-205.88"/>
</g>
<!-- SchoolExternalToolValidationService  -->
<g id="node14" class="node">
<title>SchoolExternalToolValidationService </title>
<polygon fill="#fb8072" stroke="black" points="1906.83,-252 1673.17,-252 1673.17,-216 1906.83,-216 1906.83,-252"/>
<text text-anchor="middle" x="1790" y="-229.8" font-family="Times,serif" font-size="14.00">SchoolExternalToolValidationService </text>
</g>
<!-- ToolModule&#45;&gt;SchoolExternalToolValidationService  -->
<g id="edge13" class="edge">
<title>ToolModule&#45;&gt;SchoolExternalToolValidationService </title>
<path fill="none" stroke="black" stroke-dasharray="5,2" d="M2353.88,-181C2217.43,-181 1804.06,-181 1804.06,-181 1804.06,-181 1804.06,-205.76 1804.06,-205.76"/>
<polygon fill="black" stroke="black" points="1800.56,-205.76 1804.06,-215.76 1807.56,-205.76 1800.56,-205.76"/>
</g>
<!-- ToolLaunchService  -->
<g id="node15" class="node">
<title>ToolLaunchService </title>
<polygon fill="#fb8072" stroke="black" points="1654.9,-252 1525.1,-252 1525.1,-216 1654.9,-216 1654.9,-252"/>
<text text-anchor="middle" x="1590" y="-229.8" font-family="Times,serif" font-size="14.00">ToolLaunchService </text>
</g>
<!-- ToolModule&#45;&gt;ToolLaunchService  -->
<g id="edge14" class="edge">
<title>ToolModule&#45;&gt;ToolLaunchService </title>
<path fill="none" stroke="black" stroke-dasharray="5,2" d="M2353.9,-178C2186.67,-178 1590,-178 1590,-178 1590,-178 1590,-205.97 1590,-205.97"/>
<polygon fill="black" stroke="black" points="1586.5,-205.97 1590,-215.97 1593.5,-205.97 1586.5,-205.97"/>
</g>
<!-- BasicToolLaunchStrategy -->
<g id="node16" class="node">
<title>BasicToolLaunchStrategy</title>
<ellipse fill="#fdb462" stroke="black" cx="5331" cy="-104" rx="111.74" ry="18"/>
<text text-anchor="middle" x="5331" y="-99.8" font-family="Times,serif" font-size="14.00">BasicToolLaunchStrategy</text>
</g>
<!-- BasicToolLaunchStrategy&#45;&gt;ToolModule -->
<g id="edge15" class="edge">
<title>BasicToolLaunchStrategy&#45;&gt;ToolModule</title>
<path fill="none" stroke="black" d="M5331,-122.17C5331,-143.5 5331,-176 5331,-176 5331,-176 2450.18,-176 2450.18,-176"/>
<polygon fill="black" stroke="black" points="2450.18,-172.5 2440.18,-176 2450.18,-179.5 2450.18,-172.5"/>
</g>
<!-- CommonToolValidationService -->
<g id="node17" class="node">
<title>CommonToolValidationService</title>
<ellipse fill="#fdb462" stroke="black" cx="5066" cy="-104" rx="134.89" ry="18"/>
<text text-anchor="middle" x="5066" y="-99.8" font-family="Times,serif" font-size="14.00">CommonToolValidationService</text>
</g>
<!-- CommonToolValidationService&#45;&gt;ToolModule -->
<g id="edge16" class="edge">
<title>CommonToolValidationService&#45;&gt;ToolModule</title>
<path fill="none" stroke="black" d="M5066,-122.03C5066,-142.77 5066,-174 5066,-174 5066,-174 2450,-174 2450,-174"/>
<polygon fill="black" stroke="black" points="2450,-170.5 2440,-174 2450,-177.5 2450,-170.5"/>
</g>
<!-- ContextExternalToolRepo -->
<g id="node18" class="node">
<title>ContextExternalToolRepo</title>
<ellipse fill="#fdb462" stroke="black" cx="4800" cy="-104" rx="112.9" ry="18"/>
<text text-anchor="middle" x="4800" y="-99.8" font-family="Times,serif" font-size="14.00">ContextExternalToolRepo</text>
</g>
<!-- ContextExternalToolRepo&#45;&gt;ToolModule -->
<g id="edge17" class="edge">
<title>ContextExternalToolRepo&#45;&gt;ToolModule</title>
<path fill="none" stroke="black" d="M4800,-122.22C4800,-142.37 4800,-172 4800,-172 4800,-172 2450.24,-172 2450.24,-172"/>
<polygon fill="black" stroke="black" points="2450.24,-168.5 2440.24,-172 2450.24,-175.5 2450.24,-168.5"/>
</g>
<!-- ContextExternalToolService -->
<g id="node19" class="node">
<title>ContextExternalToolService</title>
<ellipse fill="#fdb462" stroke="black" cx="4548" cy="-104" rx="121.55" ry="18"/>
<text text-anchor="middle" x="4548" y="-99.8" font-family="Times,serif" font-size="14.00">ContextExternalToolService</text>
</g>
<!-- ContextExternalToolService&#45;&gt;ToolModule -->
<g id="edge18" class="edge">
<title>ContextExternalToolService&#45;&gt;ToolModule</title>
<path fill="none" stroke="black" d="M4548,-122.11C4548,-141.34 4548,-169 4548,-169 4548,-169 2450.45,-169 2450.45,-169"/>
<polygon fill="black" stroke="black" points="2450.45,-165.5 2440.45,-169 2450.45,-172.5 2450.45,-165.5"/>
</g>
<!-- ContextExternalToolValidationService -->
<g id="node20" class="node">
<title>ContextExternalToolValidationService</title>
<ellipse fill="#fdb462" stroke="black" cx="4246" cy="-104" rx="162.08" ry="18"/>
<text text-anchor="middle" x="4246" y="-99.8" font-family="Times,serif" font-size="14.00">ContextExternalToolValidationService</text>
</g>
<!-- ContextExternalToolValidationService&#45;&gt;ToolModule -->
<g id="edge19" class="edge">
<title>ContextExternalToolValidationService&#45;&gt;ToolModule</title>
<path fill="none" stroke="black" d="M4246,-122.22C4246,-140.83 4246,-167 4246,-167 4246,-167 2450.43,-167 2450.43,-167"/>
<polygon fill="black" stroke="black" points="2450.43,-163.5 2440.43,-167 2450.43,-170.5 2450.43,-163.5"/>
</g>
<!-- ExternalToolRepo -->
<g id="node21" class="node">
<title>ExternalToolRepo</title>
<ellipse fill="#fdb462" stroke="black" cx="3983" cy="-104" rx="82.24" ry="18"/>
<text text-anchor="middle" x="3983" y="-99.8" font-family="Times,serif" font-size="14.00">ExternalToolRepo</text>
</g>
<!-- ExternalToolRepo&#45;&gt;ToolModule -->
<g id="edge20" class="edge">
<title>ExternalToolRepo&#45;&gt;ToolModule</title>
<path fill="none" stroke="black" d="M3983,-122.3C3983,-140.27 3983,-165 3983,-165 3983,-165 2450.24,-165 2450.24,-165"/>
<polygon fill="black" stroke="black" points="2450.24,-161.5 2440.24,-165 2450.24,-168.5 2450.24,-161.5"/>
</g>
<!-- ExternalToolRepoMapper -->
<g id="node22" class="node">
<title>ExternalToolRepoMapper</title>
<ellipse fill="#fdb462" stroke="black" cx="3770" cy="-104" rx="112.3" ry="18"/>
<text text-anchor="middle" x="3770" y="-99.8" font-family="Times,serif" font-size="14.00">ExternalToolRepoMapper</text>
</g>
<!-- ExternalToolRepoMapper&#45;&gt;ToolModule -->
<g id="edge21" class="edge">
<title>ExternalToolRepoMapper&#45;&gt;ToolModule</title>
<path fill="none" stroke="black" d="M3770,-122.02C3770,-139.37 3770,-163 3770,-163 3770,-163 2450.36,-163 2450.36,-163"/>
<polygon fill="black" stroke="black" points="2450.36,-159.5 2440.36,-163 2450.36,-166.5 2450.36,-159.5"/>
</g>
<!-- ExternalToolService -->
<g id="node23" class="node">
<title>ExternalToolService</title>
<ellipse fill="#fdb462" stroke="black" cx="3549" cy="-104" rx="90.89" ry="18"/>
<text text-anchor="middle" x="3549" y="-99.8" font-family="Times,serif" font-size="14.00">ExternalToolService</text>
</g>
<!-- ExternalToolService&#45;&gt;ToolModule -->
<g id="edge22" class="edge">
<title>ExternalToolService&#45;&gt;ToolModule</title>
<path fill="none" stroke="black" d="M3549,-122.03C3549,-138.4 3549,-160 3549,-160 3549,-160 2450.06,-160 2450.06,-160"/>
<polygon fill="black" stroke="black" points="2450.06,-156.5 2440.06,-160 2450.06,-163.5 2450.06,-156.5"/>
</g>
<!-- ExternalToolServiceMapper -->
<g id="node24" class="node">
<title>ExternalToolServiceMapper</title>
<ellipse fill="#fdb462" stroke="black" cx="3319" cy="-104" rx="120.95" ry="18"/>
<text text-anchor="middle" x="3319" y="-99.8" font-family="Times,serif" font-size="14.00">ExternalToolServiceMapper</text>
</g>
<!-- ExternalToolServiceMapper&#45;&gt;ToolModule -->
<g id="edge23" class="edge">
<title>ExternalToolServiceMapper&#45;&gt;ToolModule</title>
<path fill="none" stroke="black" d="M3259.3,-119.91C3259.3,-135.84 3259.3,-158 3259.3,-158 3259.3,-158 2450.06,-158 2450.06,-158"/>
<polygon fill="black" stroke="black" points="2450.06,-154.5 2440.06,-158 2450.06,-161.5 2450.06,-154.5"/>
</g>
<!-- ExternalToolSortingMapper -->
<g id="node25" class="node">
<title>ExternalToolSortingMapper</title>
<ellipse fill="#fdb462" stroke="black" cx="3060" cy="-104" rx="120.41" ry="18"/>
<text text-anchor="middle" x="3060" y="-99.8" font-family="Times,serif" font-size="14.00">ExternalToolSortingMapper</text>
</g>
<!-- ExternalToolSortingMapper&#45;&gt;ToolModule -->
<g id="edge24" class="edge">
<title>ExternalToolSortingMapper&#45;&gt;ToolModule</title>
<path fill="none" stroke="black" d="M3021.69,-121.32C3021.69,-136.44 3021.69,-156 3021.69,-156 3021.69,-156 2450.43,-156 2450.43,-156"/>
<polygon fill="black" stroke="black" points="2450.43,-152.5 2440.43,-156 2450.43,-159.5 2450.43,-152.5"/>
</g>
<!-- ExternalToolValidationService -->
<g id="node26" class="node">
<title>ExternalToolValidationService</title>
<ellipse fill="#fdb462" stroke="black" cx="2790" cy="-104" rx="131.92" ry="18"/>
<text text-anchor="middle" x="2790" y="-99.8" font-family="Times,serif" font-size="14.00">ExternalToolValidationService</text>
</g>
<!-- ExternalToolValidationService&#45;&gt;ToolModule -->
<g id="edge25" class="edge">
<title>ExternalToolValidationService&#45;&gt;ToolModule</title>
<path fill="none" stroke="black" d="M2662.95,-108.98C2662.95,-121.62 2662.95,-154 2662.95,-154 2662.95,-154 2450.03,-154 2450.03,-154"/>
<polygon fill="black" stroke="black" points="2450.03,-150.5 2440.03,-154 2450.03,-157.5 2450.03,-150.5"/>
</g>
<!-- ExternalToolVersionService -->
<g id="node27" class="node">
<title>ExternalToolVersionService</title>
<ellipse fill="#fdb462" stroke="black" cx="2519" cy="-104" rx="121.53" ry="18"/>
<text text-anchor="middle" x="2519" y="-99.8" font-family="Times,serif" font-size="14.00">ExternalToolVersionService</text>
</g>
<!-- ExternalToolVersionService&#45;&gt;ToolModule -->
<g id="edge26" class="edge">
<title>ExternalToolVersionService&#45;&gt;ToolModule</title>
<path fill="none" stroke="black" d="M2418.74,-114.44C2418.74,-114.44 2418.74,-140.97 2418.74,-140.97"/>
<polygon fill="black" stroke="black" points="2415.24,-140.97 2418.74,-150.97 2422.24,-140.97 2415.24,-140.97"/>
</g>
<!-- Lti11EncryptionService -->
<g id="node28" class="node">
<title>Lti11EncryptionService</title>
<ellipse fill="#fdb462" stroke="black" cx="2276" cy="-104" rx="103.65" ry="18"/>
<text text-anchor="middle" x="2276" y="-99.8" font-family="Times,serif" font-size="14.00">Lti11EncryptionService</text>
</g>
<!-- Lti11EncryptionService&#45;&gt;ToolModule -->
<g id="edge27" class="edge">
<title>Lti11EncryptionService&#45;&gt;ToolModule</title>
<path fill="none" stroke="black" d="M2366.91,-112.77C2366.91,-112.77 2366.91,-140.8 2366.91,-140.8"/>
<polygon fill="black" stroke="black" points="2363.41,-140.8 2366.91,-150.8 2370.41,-140.8 2363.41,-140.8"/>
</g>
<!-- Lti11ToolLaunchStrategy -->
<g id="node29" class="node">
<title>Lti11ToolLaunchStrategy</title>
<ellipse fill="#fdb462" stroke="black" cx="2043" cy="-104" rx="111.18" ry="18"/>
<text text-anchor="middle" x="2043" y="-99.8" font-family="Times,serif" font-size="14.00">Lti11ToolLaunchStrategy</text>
</g>
<!-- Lti11ToolLaunchStrategy&#45;&gt;ToolModule -->
<g id="edge28" class="edge">
<title>Lti11ToolLaunchStrategy&#45;&gt;ToolModule</title>
<path fill="none" stroke="black" d="M2135.56,-114.12C2135.56,-128.73 2135.56,-154 2135.56,-154 2135.56,-154 2343.83,-154 2343.83,-154"/>
<polygon fill="black" stroke="black" points="2343.83,-157.5 2353.83,-154 2343.83,-150.5 2343.83,-157.5"/>
</g>
<!-- PseudonymsRepo -->
<g id="node30" class="node">
<title>PseudonymsRepo</title>
<ellipse fill="#fdb462" stroke="black" cx="1833" cy="-104" rx="80.48" ry="18"/>
<text text-anchor="middle" x="1833" y="-99.8" font-family="Times,serif" font-size="14.00">PseudonymsRepo</text>
</g>
<!-- PseudonymsRepo&#45;&gt;ToolModule -->
<g id="edge29" class="edge">
<title>PseudonymsRepo&#45;&gt;ToolModule</title>
<path fill="none" stroke="black" d="M1855.36,-121.32C1855.36,-136.44 1855.36,-156 1855.36,-156 1855.36,-156 2343.59,-156 2343.59,-156"/>
<polygon fill="black" stroke="black" points="2343.59,-159.5 2353.59,-156 2343.59,-152.5 2343.59,-159.5"/>
</g>
<!-- SchoolExternalToolRepo -->
<g id="node31" class="node">
<title>SchoolExternalToolRepo</title>
<ellipse fill="#fdb462" stroke="black" cx="1626" cy="-104" rx="109.39" ry="18"/>
<text text-anchor="middle" x="1626" y="-99.8" font-family="Times,serif" font-size="14.00">SchoolExternalToolRepo</text>
</g>
<!-- SchoolExternalToolRepo&#45;&gt;ToolModule -->
<g id="edge30" class="edge">
<title>SchoolExternalToolRepo&#45;&gt;ToolModule</title>
<path fill="none" stroke="black" d="M1704.27,-116.8C1704.27,-132.77 1704.27,-158 1704.27,-158 1704.27,-158 2343.93,-158 2343.93,-158"/>
<polygon fill="black" stroke="black" points="2343.93,-161.5 2353.93,-158 2343.93,-154.5 2343.93,-161.5"/>
</g>
<!-- SchoolExternalToolService -->
<g id="node32" class="node">
<title>SchoolExternalToolService</title>
<ellipse fill="#fdb462" stroke="black" cx="1381" cy="-104" rx="117.54" ry="18"/>
<text text-anchor="middle" x="1381" y="-99.8" font-family="Times,serif" font-size="14.00">SchoolExternalToolService</text>
</g>
<!-- SchoolExternalToolService&#45;&gt;ToolModule -->
<g id="edge31" class="edge">
<title>SchoolExternalToolService&#45;&gt;ToolModule</title>
<path fill="none" stroke="black" d="M1381,-122.03C1381,-138.4 1381,-160 1381,-160 1381,-160 2343.99,-160 2343.99,-160"/>
<polygon fill="black" stroke="black" points="2343.99,-163.5 2353.99,-160 2343.99,-156.5 2343.99,-163.5"/>
</g>
<!-- SchoolExternalToolValidationService -->
<g id="node33" class="node">
<title>SchoolExternalToolValidationService</title>
<ellipse fill="#fdb462" stroke="black" cx="1087" cy="-104" rx="158.57" ry="18"/>
<text text-anchor="middle" x="1087" y="-99.8" font-family="Times,serif" font-size="14.00">SchoolExternalToolValidationService</text>
</g>
<!-- SchoolExternalToolValidationService&#45;&gt;ToolModule -->
<g id="edge32" class="edge">
<title>SchoolExternalToolValidationService&#45;&gt;ToolModule</title>
<path fill="none" stroke="black" d="M1087,-122.02C1087,-139.37 1087,-163 1087,-163 1087,-163 2343.79,-163 2343.79,-163"/>
<polygon fill="black" stroke="black" points="2343.79,-166.5 2353.79,-163 2343.79,-159.5 2343.79,-166.5"/>
</g>
<!-- ToolLaunchService -->
<g id="node34" class="node">
<title>ToolLaunchService</title>
<ellipse fill="#fdb462" stroke="black" cx="823" cy="-104" rx="87.38" ry="18"/>
<text text-anchor="middle" x="823" y="-99.8" font-family="Times,serif" font-size="14.00">ToolLaunchService</text>
</g>
<!-- ToolLaunchService&#45;&gt;ToolModule -->
<g id="edge33" class="edge">
<title>ToolLaunchService&#45;&gt;ToolModule</title>
<path fill="none" stroke="black" d="M823,-122.3C823,-140.27 823,-165 823,-165 823,-165 2343.67,-165 2343.67,-165"/>
<polygon fill="black" stroke="black" points="2343.67,-168.5 2353.67,-165 2343.67,-161.5 2343.67,-168.5"/>
</g>
</g>
</svg>
