<?xml version="1.0" encoding="UTF-8" standalone="no"?>
<!DOCTYPE svg PUBLIC "-//W3C//DTD SVG 1.1//EN"
 "http://www.w3.org/Graphics/SVG/1.1/DTD/svg11.dtd">
<!-- Generated by graphviz version 2.47.0 (20210316.0004)
 -->
<!-- Title: dependencies Pages: 1 -->
<svg width="5942pt" height="284pt"
 viewBox="0.00 0.00 5942.00 284.00" xmlns="http://www.w3.org/2000/svg" xmlns:xlink="http://www.w3.org/1999/xlink">
<g id="graph0" class="graph" transform="scale(1 1) rotate(0) translate(4 280)">
<title>dependencies</title>
<polygon fill="white" stroke="transparent" points="-4,4 -4,-280 5938,-280 5938,4 -4,4"/>
<text text-anchor="start" x="2946.01" y="-42.4" font-family="Times-12" font-weight="bold" font-size="14.00">Legend</text>
<polygon fill="#ffffb3" stroke="transparent" points="2733,-10 2733,-30 2753,-30 2753,-10 2733,-10"/>
<text text-anchor="start" x="2756.63" y="-15.4" font-family="Times-12" font-size="14.00"> &#160;Declarations</text>
<polygon fill="#8dd3c7" stroke="transparent" points="2846,-10 2846,-30 2866,-30 2866,-10 2846,-10"/>
<text text-anchor="start" x="2869.73" y="-15.4" font-family="Times-12" font-size="14.00"> &#160;Module</text>
<polygon fill="#80b1d3" stroke="transparent" points="2932,-10 2932,-30 2952,-30 2952,-10 2932,-10"/>
<text text-anchor="start" x="2955.78" y="-15.4" font-family="Times-12" font-size="14.00"> &#160;Bootstrap</text>
<polygon fill="#fdb462" stroke="transparent" points="3029,-10 3029,-30 3049,-30 3049,-10 3029,-10"/>
<text text-anchor="start" x="3052.67" y="-15.4" font-family="Times-12" font-size="14.00"> &#160;Providers</text>
<polygon fill="#fb8072" stroke="transparent" points="3125,-10 3125,-30 3145,-30 3145,-10 3125,-10"/>
<text text-anchor="start" x="3148.73" y="-15.4" font-family="Times-12" font-size="14.00"> &#160;Exports</text>
<g id="clust1" class="cluster">
<title>cluster_ToolModule</title>
<polygon fill="none" stroke="black" stroke-dasharray="1,5" points="8,-70 8,-268 5926,-268 5926,-70 8,-70"/>
</g>
<g id="clust4" class="cluster">
<title>cluster_ToolModule_exports</title>
<polygon fill="none" stroke="black" points="2244,-208 2244,-260 4214,-260 4214,-208 2244,-208"/>
</g>
<g id="clust3" class="cluster">
<title>cluster_ToolModule_imports</title>
<polygon fill="none" stroke="black" points="5214,-78 5214,-130 5918,-130 5918,-78 5214,-78"/>
</g>
<g id="clust6" class="cluster">
<title>cluster_ToolModule_providers</title>
<polygon fill="none" stroke="black" points="16,-78 16,-130 5206,-130 5206,-78 16,-78"/>
</g>
<!-- EncryptionModule -->
<g id="node1" class="node">
<title>EncryptionModule</title>
<polygon fill="#8dd3c7" stroke="black" points="5909.76,-122 5906.76,-126 5885.76,-126 5882.76,-122 5788.24,-122 5788.24,-86 5909.76,-86 5909.76,-122"/>
<text text-anchor="middle" x="5849" y="-99.8" font-family="Times,serif" font-size="14.00">EncryptionModule</text>
</g>
<!-- ToolModule -->
<g id="node6" class="node">
<title>ToolModule</title>
<polygon fill="#8dd3c7" stroke="black" points="3250.99,-187 3247.99,-191 3226.99,-191 3223.99,-187 3165.01,-187 3165.01,-151 3250.99,-151 3250.99,-187"/>
<text text-anchor="middle" x="3208" y="-164.8" font-family="Times,serif" font-size="14.00">ToolModule</text>
</g>
<!-- EncryptionModule&#45;&gt;ToolModule -->
<g id="edge1" class="edge">
<title>EncryptionModule&#45;&gt;ToolModule</title>
<path fill="none" stroke="black" d="M5849,-122.04C5849,-143.66 5849,-177 5849,-177 5849,-177 3261.09,-177 3261.09,-177"/>
<polygon fill="black" stroke="black" points="3261.09,-173.5 3251.09,-177 3261.09,-180.5 3261.09,-173.5"/>
</g>
<!-- LoggerModule -->
<g id="node2" class="node">
<title>LoggerModule</title>
<polygon fill="#8dd3c7" stroke="black" points="5769.98,-122 5766.98,-126 5745.98,-126 5742.98,-122 5670.02,-122 5670.02,-86 5769.98,-86 5769.98,-122"/>
<text text-anchor="middle" x="5720" y="-99.8" font-family="Times,serif" font-size="14.00">LoggerModule</text>
</g>
<!-- LoggerModule&#45;&gt;ToolModule -->
<g id="edge2" class="edge">
<title>LoggerModule&#45;&gt;ToolModule</title>
<path fill="none" stroke="black" d="M5720,-122.28C5720,-143.32 5720,-175 5720,-175 5720,-175 3261.07,-175 3261.07,-175"/>
<polygon fill="black" stroke="black" points="3261.07,-171.5 3251.07,-175 3261.07,-178.5 3261.07,-171.5"/>
</g>
<!-- OauthProviderServiceModule -->
<g id="node3" class="node">
<title>OauthProviderServiceModule</title>
<polygon fill="#8dd3c7" stroke="black" points="5651.95,-122 5648.95,-126 5627.95,-126 5624.95,-122 5468.05,-122 5468.05,-86 5651.95,-86 5651.95,-122"/>
<text text-anchor="middle" x="5560" y="-99.8" font-family="Times,serif" font-size="14.00">OauthProviderServiceModule</text>
</g>
<!-- OauthProviderServiceModule&#45;&gt;ToolModule -->
<g id="edge3" class="edge">
<title>OauthProviderServiceModule&#45;&gt;ToolModule</title>
<path fill="none" stroke="black" d="M5560,-122.13C5560,-142.57 5560,-173 5560,-173 5560,-173 3261.09,-173 3261.09,-173"/>
<polygon fill="black" stroke="black" points="3261.09,-169.5 3251.09,-173 3261.09,-176.5 3261.09,-169.5"/>
</g>
<!-- PseudonymModule -->
<g id="node4" class="node">
<title>PseudonymModule</title>
<polygon fill="#8dd3c7" stroke="black" points="5450.38,-122 5447.38,-126 5426.38,-126 5423.38,-122 5325.62,-122 5325.62,-86 5450.38,-86 5450.38,-122"/>
<text text-anchor="middle" x="5388" y="-99.8" font-family="Times,serif" font-size="14.00">PseudonymModule</text>
</g>
<!-- PseudonymModule&#45;&gt;ToolModule -->
<g id="edge4" class="edge">
<title>PseudonymModule&#45;&gt;ToolModule</title>
<path fill="none" stroke="black" d="M5388,-122.31C5388,-142.15 5388,-171 5388,-171 5388,-171 3261.06,-171 3261.06,-171"/>
<polygon fill="black" stroke="black" points="3261.06,-167.5 3251.06,-171 3261.06,-174.5 3261.06,-167.5"/>
</g>
<!-- UserModule -->
<g id="node5" class="node">
<title>UserModule</title>
<polygon fill="#8dd3c7" stroke="black" points="5307.98,-122 5304.98,-126 5283.98,-126 5280.98,-122 5222.02,-122 5222.02,-86 5307.98,-86 5307.98,-122"/>
<text text-anchor="middle" x="5265" y="-99.8" font-family="Times,serif" font-size="14.00">UserModule</text>
</g>
<!-- UserModule&#45;&gt;ToolModule -->
<g id="edge5" class="edge">
<title>UserModule&#45;&gt;ToolModule</title>
<path fill="none" stroke="black" d="M5265,-122.17C5265,-141.09 5265,-168 5265,-168 5265,-168 3261.44,-168 3261.44,-168"/>
<polygon fill="black" stroke="black" points="3261.44,-164.5 3251.44,-168 3261.44,-171.5 3261.44,-164.5"/>
</g>
<!-- CommonToolService  -->
<g id="node7" class="node">
<title>CommonToolService </title>
<polygon fill="#fb8072" stroke="black" points="4206.04,-252 4065.96,-252 4065.96,-216 4206.04,-216 4206.04,-252"/>
<text text-anchor="middle" x="4136" y="-229.8" font-family="Times,serif" font-size="14.00">CommonToolService </text>
</g>
<!-- ToolModule&#45;&gt;CommonToolService  -->
<g id="edge6" class="edge">
<title>ToolModule&#45;&gt;CommonToolService </title>
<path fill="none" stroke="black" stroke-dasharray="5,2" d="M3251.21,-179C3434.2,-179 4136,-179 4136,-179 4136,-179 4136,-205.99 4136,-205.99"/>
<polygon fill="black" stroke="black" points="4132.5,-205.99 4136,-215.99 4139.5,-205.99 4132.5,-205.99"/>
</g>
<!-- CommonToolValidationService  -->
<g id="node8" class="node">
<title>CommonToolValidationService </title>
<polygon fill="#fb8072" stroke="black" points="4047.64,-252 3848.36,-252 3848.36,-216 4047.64,-216 4047.64,-252"/>
<text text-anchor="middle" x="3948" y="-229.8" font-family="Times,serif" font-size="14.00">CommonToolValidationService </text>
</g>
<!-- ToolModule&#45;&gt;CommonToolValidationService  -->
<g id="edge7" class="edge">
<title>ToolModule&#45;&gt;CommonToolValidationService </title>
<path fill="none" stroke="black" stroke-dasharray="5,2" d="M3251.2,-181C3403.01,-181 3902.86,-181 3902.86,-181 3902.86,-181 3902.86,-205.76 3902.86,-205.76"/>
<polygon fill="black" stroke="black" points="3899.36,-205.76 3902.86,-215.76 3906.36,-205.76 3899.36,-205.76"/>
</g>
<!-- ContextExternalToolService  -->
<g id="node9" class="node">
<title>ContextExternalToolService </title>
<polygon fill="#fb8072" stroke="black" points="3830.68,-252 3651.32,-252 3651.32,-216 3830.68,-216 3830.68,-252"/>
<text text-anchor="middle" x="3741" y="-229.8" font-family="Times,serif" font-size="14.00">ContextExternalToolService </text>
</g>
<!-- ToolModule&#45;&gt;ContextExternalToolService  -->
<g id="edge8" class="edge">
<title>ToolModule&#45;&gt;ContextExternalToolService </title>
<path fill="none" stroke="black" stroke-dasharray="5,2" d="M3251.17,-183C3378.06,-183 3741,-183 3741,-183 3741,-183 3741,-205.88 3741,-205.88"/>
<polygon fill="black" stroke="black" points="3737.5,-205.88 3741,-215.88 3744.5,-205.88 3737.5,-205.88"/>
</g>
<!-- ContextExternalToolValidationService  -->
<g id="node10" class="node">
<title>ContextExternalToolValidationService </title>
<polygon fill="#fb8072" stroke="black" points="3633.28,-252 3394.72,-252 3394.72,-216 3633.28,-216 3633.28,-252"/>
<text text-anchor="middle" x="3514" y="-229.8" font-family="Times,serif" font-size="14.00">ContextExternalToolValidationService </text>
</g>
<!-- ToolModule&#45;&gt;ContextExternalToolValidationService  -->
<g id="edge9" class="edge">
<title>ToolModule&#45;&gt;ContextExternalToolValidationService </title>
<path fill="none" stroke="black" stroke-dasharray="5,2" d="M3251.48,-185C3311.65,-185 3413.01,-185 3413.01,-185 3413.01,-185 3413.01,-205.75 3413.01,-205.75"/>
<polygon fill="black" stroke="black" points="3409.51,-205.75 3413.01,-215.75 3416.51,-205.75 3409.51,-205.75"/>
</g>
<!-- ExternalToolRepoMapper  -->
<g id="node11" class="node">
<title>ExternalToolRepoMapper </title>
<polygon fill="#fb8072" stroke="black" points="3376.45,-252 3209.55,-252 3209.55,-216 3376.45,-216 3376.45,-252"/>
<text text-anchor="middle" x="3293" y="-229.8" font-family="Times,serif" font-size="14.00">ExternalToolRepoMapper </text>
</g>
<!-- ToolModule&#45;&gt;ExternalToolRepoMapper  -->
<g id="edge10" class="edge">
<title>ToolModule&#45;&gt;ExternalToolRepoMapper </title>
<path fill="none" stroke="black" stroke-dasharray="5,2" d="M3230.39,-187.11C3230.39,-187.11 3230.39,-205.99 3230.39,-205.99"/>
<polygon fill="black" stroke="black" points="3226.89,-205.99 3230.39,-215.99 3233.89,-205.99 3226.89,-205.99"/>
</g>
<!-- ExternalToolService  -->
<g id="node12" class="node">
<title>ExternalToolService </title>
<polygon fill="#fb8072" stroke="black" points="3191.84,-252 3056.16,-252 3056.16,-216 3191.84,-216 3191.84,-252"/>
<text text-anchor="middle" x="3124" y="-229.8" font-family="Times,serif" font-size="14.00">ExternalToolService </text>
</g>
<!-- ToolModule&#45;&gt;ExternalToolService  -->
<g id="edge11" class="edge">
<title>ToolModule&#45;&gt;ExternalToolService </title>
<path fill="none" stroke="black" stroke-dasharray="5,2" d="M3178.34,-187.11C3178.34,-187.11 3178.34,-205.99 3178.34,-205.99"/>
<polygon fill="black" stroke="black" points="3174.84,-205.99 3178.34,-215.99 3181.84,-205.99 3174.84,-205.99"/>
</g>
<!-- ExternalToolValidationService  -->
<g id="node13" class="node">
<title>ExternalToolValidationService </title>
<polygon fill="#fb8072" stroke="black" points="3038.44,-252 2843.56,-252 2843.56,-216 3038.44,-216 3038.44,-252"/>
<text text-anchor="middle" x="2941" y="-229.8" font-family="Times,serif" font-size="14.00">ExternalToolValidationService </text>
</g>
<!-- ToolModule&#45;&gt;ExternalToolValidationService  -->
<g id="edge12" class="edge">
<title>ToolModule&#45;&gt;ExternalToolValidationService </title>
<path fill="none" stroke="black" stroke-dasharray="5,2" d="M3164.54,-185C3109.75,-185 3022.64,-185 3022.64,-185 3022.64,-185 3022.64,-205.75 3022.64,-205.75"/>
<polygon fill="black" stroke="black" points="3019.14,-205.75 3022.64,-215.75 3026.14,-205.75 3019.14,-205.75"/>
</g>
<!-- SchoolExternalToolService  -->
<g id="node14" class="node">
<title>SchoolExternalToolService </title>
<polygon fill="#fb8072" stroke="black" points="2826.23,-252 2651.77,-252 2651.77,-216 2826.23,-216 2826.23,-252"/>
<text text-anchor="middle" x="2739" y="-229.8" font-family="Times,serif" font-size="14.00">SchoolExternalToolService </text>
</g>
<!-- ToolModule&#45;&gt;SchoolExternalToolService  -->
<g id="edge13" class="edge">
<title>ToolModule&#45;&gt;SchoolExternalToolService </title>
<path fill="none" stroke="black" stroke-dasharray="5,2" d="M3164.88,-183C3057.47,-183 2786.57,-183 2786.57,-183 2786.57,-183 2786.57,-205.88 2786.57,-205.88"/>
<polygon fill="black" stroke="black" points="2783.07,-205.88 2786.57,-215.88 2790.07,-205.88 2783.07,-205.88"/>
</g>
<!-- SchoolExternalToolValidationService  -->
<g id="node15" class="node">
<title>SchoolExternalToolValidationService </title>
<polygon fill="#fb8072" stroke="black" points="2633.83,-252 2400.17,-252 2400.17,-216 2633.83,-216 2633.83,-252"/>
<text text-anchor="middle" x="2517" y="-229.8" font-family="Times,serif" font-size="14.00">SchoolExternalToolValidationService </text>
</g>
<!-- ToolModule&#45;&gt;SchoolExternalToolValidationService  -->
<g id="edge14" class="edge">
<title>ToolModule&#45;&gt;SchoolExternalToolValidationService </title>
<path fill="none" stroke="black" stroke-dasharray="5,2" d="M3164.8,-181C3020.04,-181 2561.11,-181 2561.11,-181 2561.11,-181 2561.11,-205.76 2561.11,-205.76"/>
<polygon fill="black" stroke="black" points="2557.61,-205.76 2561.11,-215.76 2564.61,-205.76 2557.61,-205.76"/>
</g>
<!-- ToolLaunchService  -->
<g id="node16" class="node">
<title>ToolLaunchService </title>
<polygon fill="#fb8072" stroke="black" points="2381.9,-252 2252.1,-252 2252.1,-216 2381.9,-216 2381.9,-252"/>
<text text-anchor="middle" x="2317" y="-229.8" font-family="Times,serif" font-size="14.00">ToolLaunchService </text>
</g>
<!-- ToolModule&#45;&gt;ToolLaunchService  -->
<g id="edge15" class="edge">
<title>ToolModule&#45;&gt;ToolLaunchService </title>
<path fill="none" stroke="black" stroke-dasharray="5,2" d="M3164.72,-179C2986.29,-179 2317,-179 2317,-179 2317,-179 2317,-205.99 2317,-205.99"/>
<polygon fill="black" stroke="black" points="2313.5,-205.99 2317,-215.99 2320.5,-205.99 2313.5,-205.99"/>
</g>
<!-- BasicToolLaunchStrategy -->
<g id="node17" class="node">
<title>BasicToolLaunchStrategy</title>
<ellipse fill="#fdb462" stroke="black" cx="5086" cy="-104" rx="111.74" ry="18"/>
<text text-anchor="middle" x="5086" y="-99.8" font-family="Times,serif" font-size="14.00">BasicToolLaunchStrategy</text>
</g>
<!-- BasicToolLaunchStrategy&#45;&gt;ToolModule -->
<g id="edge16" class="edge">
<title>BasicToolLaunchStrategy&#45;&gt;ToolModule</title>
<path fill="none" stroke="black" d="M5086,-122.27C5086,-140.56 5086,-166 5086,-166 5086,-166 3261.2,-166 3261.2,-166"/>
<polygon fill="black" stroke="black" points="3261.2,-162.5 3251.2,-166 3261.2,-169.5 3261.2,-162.5"/>
</g>
<!-- CommonToolService -->
<g id="node18" class="node">
<title>CommonToolService</title>
<ellipse fill="#fdb462" stroke="black" cx="4862" cy="-104" rx="94.36" ry="18"/>
<text text-anchor="middle" x="4862" y="-99.8" font-family="Times,serif" font-size="14.00">CommonToolService</text>
</g>
<!-- CommonToolService&#45;&gt;ToolModule -->
<g id="edge17" class="edge">
<title>CommonToolService&#45;&gt;ToolModule</title>
<path fill="none" stroke="black" d="M4862,-122C4862,-139.68 4862,-164 4862,-164 4862,-164 3261.39,-164 3261.39,-164"/>
<polygon fill="black" stroke="black" points="3261.39,-160.5 3251.39,-164 3261.39,-167.5 3261.39,-160.5"/>
</g>
<!-- CommonToolValidationService -->
<g id="node19" class="node">
<title>CommonToolValidationService</title>
<ellipse fill="#fdb462" stroke="black" cx="4615" cy="-104" rx="134.89" ry="18"/>
<text text-anchor="middle" x="4615" y="-99.8" font-family="Times,serif" font-size="14.00">CommonToolValidationService</text>
</g>
<!-- CommonToolValidationService&#45;&gt;ToolModule -->
<g id="edge18" class="edge">
<title>CommonToolValidationService&#45;&gt;ToolModule</title>
<path fill="none" stroke="black" d="M4615,-122.03C4615,-139.06 4615,-162 4615,-162 4615,-162 3261.26,-162 3261.26,-162"/>
<polygon fill="black" stroke="black" points="3261.26,-158.5 3251.26,-162 3261.26,-165.5 3261.26,-158.5"/>
</g>
<!-- ContextExternalToolRepo -->
<g id="node20" class="node">
<title>ContextExternalToolRepo</title>
<ellipse fill="#fdb462" stroke="black" cx="4349" cy="-104" rx="112.9" ry="18"/>
<text text-anchor="middle" x="4349" y="-99.8" font-family="Times,serif" font-size="14.00">ContextExternalToolRepo</text>
</g>
<!-- ContextExternalToolRepo&#45;&gt;ToolModule -->
<g id="edge19" class="edge">
<title>ContextExternalToolRepo&#45;&gt;ToolModule</title>
<path fill="none" stroke="black" d="M4349,-122.03C4349,-138.4 4349,-160 4349,-160 4349,-160 3261.34,-160 3261.34,-160"/>
<polygon fill="black" stroke="black" points="3261.34,-156.5 3251.34,-160 3261.34,-163.5 3261.34,-156.5"/>
</g>
<!-- ContextExternalToolService -->
<g id="node21" class="node">
<title>ContextExternalToolService</title>
<ellipse fill="#fdb462" stroke="black" cx="4097" cy="-104" rx="121.55" ry="18"/>
<text text-anchor="middle" x="4097" y="-99.8" font-family="Times,serif" font-size="14.00">ContextExternalToolService</text>
</g>
<!-- ContextExternalToolService&#45;&gt;ToolModule -->
<g id="edge20" class="edge">
<title>ContextExternalToolService&#45;&gt;ToolModule</title>
<path fill="none" stroke="black" d="M4011.52,-116.8C4011.52,-132.77 4011.52,-158 4011.52,-158 4011.52,-158 3261.2,-158 3261.2,-158"/>
<polygon fill="black" stroke="black" points="3261.2,-154.5 3251.2,-158 3261.2,-161.5 3261.2,-154.5"/>
</g>
<!-- ContextExternalToolValidationService -->
<g id="node22" class="node">
<title>ContextExternalToolValidationService</title>
<ellipse fill="#fdb462" stroke="black" cx="3795" cy="-104" rx="162.08" ry="18"/>
<text text-anchor="middle" x="3795" y="-99.8" font-family="Times,serif" font-size="14.00">ContextExternalToolValidationService</text>
</g>
<!-- ContextExternalToolValidationService&#45;&gt;ToolModule -->
<g id="edge21" class="edge">
<title>ContextExternalToolValidationService&#45;&gt;ToolModule</title>
<path fill="none" stroke="black" d="M3642.27,-110.38C3642.27,-124.26 3642.27,-156 3642.27,-156 3642.27,-156 3261.23,-156 3261.23,-156"/>
<polygon fill="black" stroke="black" points="3261.23,-152.5 3251.23,-156 3261.23,-159.5 3261.23,-152.5"/>
</g>
<!-- ExternalToolRepo -->
<g id="node23" class="node">
<title>ExternalToolRepo</title>
<ellipse fill="#fdb462" stroke="black" cx="3532" cy="-104" rx="82.24" ry="18"/>
<text text-anchor="middle" x="3532" y="-99.8" font-family="Times,serif" font-size="14.00">ExternalToolRepo</text>
</g>
<!-- ExternalToolRepo&#45;&gt;ToolModule -->
<g id="edge22" class="edge">
<title>ExternalToolRepo&#45;&gt;ToolModule</title>
<path fill="none" stroke="black" d="M3532,-122.05C3532,-136.37 3532,-154 3532,-154 3532,-154 3261.02,-154 3261.02,-154"/>
<polygon fill="black" stroke="black" points="3261.02,-150.5 3251.02,-154 3261.02,-157.5 3261.02,-150.5"/>
</g>
<!-- ExternalToolRepoMapper -->
<g id="node24" class="node">
<title>ExternalToolRepoMapper</title>
<ellipse fill="#fdb462" stroke="black" cx="3319" cy="-104" rx="112.3" ry="18"/>
<text text-anchor="middle" x="3319" y="-99.8" font-family="Times,serif" font-size="14.00">ExternalToolRepoMapper</text>
</g>
<!-- ExternalToolRepoMapper&#45;&gt;ToolModule -->
<g id="edge23" class="edge">
<title>ExternalToolRepoMapper&#45;&gt;ToolModule</title>
<path fill="none" stroke="black" d="M3228.8,-115.03C3228.8,-115.03 3228.8,-140.78 3228.8,-140.78"/>
<polygon fill="black" stroke="black" points="3225.3,-140.78 3228.8,-150.78 3232.3,-140.78 3225.3,-140.78"/>
</g>
<!-- ExternalToolService -->
<g id="node25" class="node">
<title>ExternalToolService</title>
<ellipse fill="#fdb462" stroke="black" cx="3098" cy="-104" rx="90.89" ry="18"/>
<text text-anchor="middle" x="3098" y="-99.8" font-family="Times,serif" font-size="14.00">ExternalToolService</text>
</g>
<!-- ExternalToolService&#45;&gt;ToolModule -->
<g id="edge24" class="edge">
<title>ExternalToolService&#45;&gt;ToolModule</title>
<path fill="none" stroke="black" d="M3176.97,-113.04C3176.97,-113.04 3176.97,-140.96 3176.97,-140.96"/>
<polygon fill="black" stroke="black" points="3173.47,-140.96 3176.97,-150.96 3180.47,-140.96 3173.47,-140.96"/>
</g>
<!-- ExternalToolServiceMapper -->
<g id="node26" class="node">
<title>ExternalToolServiceMapper</title>
<ellipse fill="#fdb462" stroke="black" cx="2868" cy="-104" rx="120.95" ry="18"/>
<text text-anchor="middle" x="2868" y="-99.8" font-family="Times,serif" font-size="14.00">ExternalToolServiceMapper</text>
</g>
<!-- ExternalToolServiceMapper&#45;&gt;ToolModule -->
<g id="edge25" class="edge">
<title>ExternalToolServiceMapper&#45;&gt;ToolModule</title>
<path fill="none" stroke="black" d="M2916.38,-120.65C2916.38,-135.19 2916.38,-154 2916.38,-154 2916.38,-154 3154.97,-154 3154.97,-154"/>
<polygon fill="black" stroke="black" points="3154.97,-157.5 3164.97,-154 3154.97,-150.5 3154.97,-157.5"/>
</g>
<!-- ExternalToolSortingMapper -->
<g id="node27" class="node">
<title>ExternalToolSortingMapper</title>
<ellipse fill="#fdb462" stroke="black" cx="2609" cy="-104" rx="120.41" ry="18"/>
<text text-anchor="middle" x="2609" y="-99.8" font-family="Times,serif" font-size="14.00">ExternalToolSortingMapper</text>
</g>
<!-- ExternalToolSortingMapper&#45;&gt;ToolModule -->
<g id="edge26" class="edge">
<title>ExternalToolSortingMapper&#45;&gt;ToolModule</title>
<path fill="none" stroke="black" d="M2690.67,-117.39C2690.67,-132.8 2690.67,-156 2690.67,-156 2690.67,-156 3154.78,-156 3154.78,-156"/>
<polygon fill="black" stroke="black" points="3154.78,-159.5 3164.78,-156 3154.78,-152.5 3154.78,-159.5"/>
</g>
<!-- ExternalToolValidationService -->
<g id="node28" class="node">
<title>ExternalToolValidationService</title>
<ellipse fill="#fdb462" stroke="black" cx="2339" cy="-104" rx="131.92" ry="18"/>
<text text-anchor="middle" x="2339" y="-99.8" font-family="Times,serif" font-size="14.00">ExternalToolValidationService</text>
</g>
<!-- ExternalToolValidationService&#45;&gt;ToolModule -->
<g id="edge27" class="edge">
<title>ExternalToolValidationService&#45;&gt;ToolModule</title>
<path fill="none" stroke="black" d="M2435.52,-116.25C2435.52,-132.19 2435.52,-158 2435.52,-158 2435.52,-158 3154.81,-158 3154.81,-158"/>
<polygon fill="black" stroke="black" points="3154.81,-161.5 3164.81,-158 3154.81,-154.5 3154.81,-161.5"/>
</g>
<!-- ExternalToolVersionService -->
<g id="node29" class="node">
<title>ExternalToolVersionService</title>
<ellipse fill="#fdb462" stroke="black" cx="2068" cy="-104" rx="121.53" ry="18"/>
<text text-anchor="middle" x="2068" y="-99.8" font-family="Times,serif" font-size="14.00">ExternalToolVersionService</text>
</g>
<!-- ExternalToolVersionService&#45;&gt;ToolModule -->
<g id="edge28" class="edge">
<title>ExternalToolVersionService&#45;&gt;ToolModule</title>
<path fill="none" stroke="black" d="M2068,-122.03C2068,-138.4 2068,-160 2068,-160 2068,-160 3154.7,-160 3154.7,-160"/>
<polygon fill="black" stroke="black" points="3154.7,-163.5 3164.7,-160 3154.7,-156.5 3154.7,-163.5"/>
</g>
<!-- Lti11EncryptionService -->
<g id="node30" class="node">
<title>Lti11EncryptionService</title>
<ellipse fill="#fdb462" stroke="black" cx="1825" cy="-104" rx="103.65" ry="18"/>
<text text-anchor="middle" x="1825" y="-99.8" font-family="Times,serif" font-size="14.00">Lti11EncryptionService</text>
</g>
<!-- Lti11EncryptionService&#45;&gt;ToolModule -->
<g id="edge29" class="edge">
<title>Lti11EncryptionService&#45;&gt;ToolModule</title>
<path fill="none" stroke="black" d="M1825,-122.03C1825,-139.06 1825,-162 1825,-162 1825,-162 3154.71,-162 3154.71,-162"/>
<polygon fill="black" stroke="black" points="3154.71,-165.5 3164.71,-162 3154.71,-158.5 3154.71,-165.5"/>
</g>
<!-- Lti11ToolLaunchStrategy -->
<g id="node31" class="node">
<title>Lti11ToolLaunchStrategy</title>
<ellipse fill="#fdb462" stroke="black" cx="1592" cy="-104" rx="111.18" ry="18"/>
<text text-anchor="middle" x="1592" y="-99.8" font-family="Times,serif" font-size="14.00">Lti11ToolLaunchStrategy</text>
</g>
<!-- Lti11ToolLaunchStrategy&#45;&gt;ToolModule -->
<g id="edge30" class="edge">
<title>Lti11ToolLaunchStrategy&#45;&gt;ToolModule</title>
<path fill="none" stroke="black" d="M1592,-122C1592,-139.68 1592,-164 1592,-164 1592,-164 3154.78,-164 3154.78,-164"/>
<polygon fill="black" stroke="black" points="3154.78,-167.5 3164.78,-164 3154.78,-160.5 3154.78,-167.5"/>
</g>
<!-- OAuth2ToolLaunchStrategy -->
<g id="node32" class="node">
<title>OAuth2ToolLaunchStrategy</title>
<ellipse fill="#fdb462" stroke="black" cx="1341" cy="-104" rx="121.55" ry="18"/>
<text text-anchor="middle" x="1341" y="-99.8" font-family="Times,serif" font-size="14.00">OAuth2ToolLaunchStrategy</text>
</g>
<!-- OAuth2ToolLaunchStrategy&#45;&gt;ToolModule -->
<g id="edge31" class="edge">
<title>OAuth2ToolLaunchStrategy&#45;&gt;ToolModule</title>
<path fill="none" stroke="black" d="M1341,-122.27C1341,-140.56 1341,-166 1341,-166 1341,-166 3154.6,-166 3154.6,-166"/>
<polygon fill="black" stroke="black" points="3154.6,-169.5 3164.6,-166 3154.6,-162.5 3154.6,-169.5"/>
</g>
<!-- PseudonymsRepo -->
<g id="node33" class="node">
<title>PseudonymsRepo</title>
<ellipse fill="#fdb462" stroke="black" cx="1121" cy="-104" rx="80.48" ry="18"/>
<text text-anchor="middle" x="1121" y="-99.8" font-family="Times,serif" font-size="14.00">PseudonymsRepo</text>
</g>
<!-- PseudonymsRepo&#45;&gt;ToolModule -->
<g id="edge32" class="edge">
<title>PseudonymsRepo&#45;&gt;ToolModule</title>
<path fill="none" stroke="black" d="M1121,-122.17C1121,-141.09 1121,-168 1121,-168 1121,-168 3154.89,-168 3154.89,-168"/>
<polygon fill="black" stroke="black" points="3154.89,-171.5 3164.89,-168 3154.89,-164.5 3154.89,-171.5"/>
</g>
<!-- SchoolExternalToolRepo -->
<g id="node34" class="node">
<title>SchoolExternalToolRepo</title>
<ellipse fill="#fdb462" stroke="black" cx="914" cy="-104" rx="109.39" ry="18"/>
<text text-anchor="middle" x="914" y="-99.8" font-family="Times,serif" font-size="14.00">SchoolExternalToolRepo</text>
</g>
<!-- SchoolExternalToolRepo&#45;&gt;ToolModule -->
<g id="edge33" class="edge">
<title>SchoolExternalToolRepo&#45;&gt;ToolModule</title>
<path fill="none" stroke="black" d="M914,-122.31C914,-142.15 914,-171 914,-171 914,-171 3154.98,-171 3154.98,-171"/>
<polygon fill="black" stroke="black" points="3154.98,-174.5 3164.98,-171 3154.98,-167.5 3154.98,-174.5"/>
</g>
<!-- SchoolExternalToolService -->
<g id="node35" class="node">
<title>SchoolExternalToolService</title>
<ellipse fill="#fdb462" stroke="black" cx="669" cy="-104" rx="117.54" ry="18"/>
<text text-anchor="middle" x="669" y="-99.8" font-family="Times,serif" font-size="14.00">SchoolExternalToolService</text>
</g>
<!-- SchoolExternalToolService&#45;&gt;ToolModule -->
<g id="edge34" class="edge">
<title>SchoolExternalToolService&#45;&gt;ToolModule</title>
<path fill="none" stroke="black" d="M669,-122.13C669,-142.57 669,-173 669,-173 669,-173 3155,-173 3155,-173"/>
<polygon fill="black" stroke="black" points="3155,-176.5 3165,-173 3155,-169.5 3155,-176.5"/>
</g>
<!-- SchoolExternalToolValidationService -->
<g id="node36" class="node">
<title>SchoolExternalToolValidationService</title>
<ellipse fill="#fdb462" stroke="black" cx="375" cy="-104" rx="158.57" ry="18"/>
<text text-anchor="middle" x="375" y="-99.8" font-family="Times,serif" font-size="14.00">SchoolExternalToolValidationService</text>
</g>
<!-- SchoolExternalToolValidationService&#45;&gt;ToolModule -->
<g id="edge35" class="edge">
<title>SchoolExternalToolValidationService&#45;&gt;ToolModule</title>
<path fill="none" stroke="black" d="M375,-122.28C375,-143.32 375,-175 375,-175 375,-175 3154.92,-175 3154.92,-175"/>
<polygon fill="black" stroke="black" points="3154.92,-178.5 3164.92,-175 3154.92,-171.5 3154.92,-178.5"/>
</g>
<!-- ToolLaunchService -->
<g id="node37" class="node">
<title>ToolLaunchService</title>
<ellipse fill="#fdb462" stroke="black" cx="111" cy="-104" rx="87.38" ry="18"/>
<text text-anchor="middle" x="111" y="-99.8" font-family="Times,serif" font-size="14.00">ToolLaunchService</text>
</g>
<!-- ToolLaunchService&#45;&gt;ToolModule -->
<g id="edge36" class="edge">
<title>ToolLaunchService&#45;&gt;ToolModule</title>
<path fill="none" stroke="black" d="M111,-122.04C111,-143.66 111,-177 111,-177 111,-177 3154.81,-177 3154.81,-177"/>
<polygon fill="black" stroke="black" points="3154.81,-180.5 3164.81,-177 3154.81,-173.5 3154.81,-180.5"/>
</g>
</g>
</svg>
