<?xml version="1.0" encoding="UTF-8" standalone="no"?>
<!DOCTYPE svg PUBLIC "-//W3C//DTD SVG 1.1//EN"
 "http://www.w3.org/Graphics/SVG/1.1/DTD/svg11.dtd">
<!-- Generated by graphviz version 2.47.0 (20210316.0004)
 -->
<!-- Title: dependencies Pages: 1 -->
<svg width="4468pt" height="284pt"
 viewBox="0.00 0.00 4468.00 284.00" xmlns="http://www.w3.org/2000/svg" xmlns:xlink="http://www.w3.org/1999/xlink">
<g id="graph0" class="graph" transform="scale(1 1) rotate(0) translate(4 280)">
<title>dependencies</title>
<polygon fill="white" stroke="transparent" points="-4,4 -4,-280 4464,-280 4464,4 -4,4"/>
<text text-anchor="start" x="2209.01" y="-42.4" font-family="Times-12" font-weight="bold" font-size="14.00">Legend</text>
<polygon fill="#ffffb3" stroke="transparent" points="1996,-10 1996,-30 2016,-30 2016,-10 1996,-10"/>
<text text-anchor="start" x="2019.63" y="-15.4" font-family="Times-12" font-size="14.00"> &#160;Declarations</text>
<polygon fill="#8dd3c7" stroke="transparent" points="2109,-10 2109,-30 2129,-30 2129,-10 2109,-10"/>
<text text-anchor="start" x="2132.73" y="-15.4" font-family="Times-12" font-size="14.00"> &#160;Module</text>
<polygon fill="#80b1d3" stroke="transparent" points="2195,-10 2195,-30 2215,-30 2215,-10 2195,-10"/>
<text text-anchor="start" x="2218.78" y="-15.4" font-family="Times-12" font-size="14.00"> &#160;Bootstrap</text>
<polygon fill="#fdb462" stroke="transparent" points="2292,-10 2292,-30 2312,-30 2312,-10 2292,-10"/>
<text text-anchor="start" x="2315.67" y="-15.4" font-family="Times-12" font-size="14.00"> &#160;Providers</text>
<polygon fill="#fb8072" stroke="transparent" points="2388,-10 2388,-30 2408,-30 2408,-10 2388,-10"/>
<text text-anchor="start" x="2411.73" y="-15.4" font-family="Times-12" font-size="14.00"> &#160;Exports</text>
<g id="clust1" class="cluster">
<title>cluster_ToolModule</title>
<polygon fill="none" stroke="black" stroke-dasharray="1,5" points="8,-70 8,-268 4452,-268 4452,-70 8,-70"/>
</g>
<g id="clust6" class="cluster">
<title>cluster_ToolModule_providers</title>
<polygon fill="none" stroke="black" points="482,-78 482,-130 4444,-130 4444,-78 482,-78"/>
</g>
<g id="clust4" class="cluster">
<title>cluster_ToolModule_exports</title>
<polygon fill="none" stroke="black" points="1183,-208 1183,-260 2957,-260 2957,-208 1183,-208"/>
</g>
<g id="clust3" class="cluster">
<title>cluster_ToolModule_imports</title>
<polygon fill="none" stroke="black" points="16,-78 16,-130 474,-130 474,-78 16,-78"/>
</g>
<!-- EncryptionModule -->
<g id="node1" class="node">
<title>EncryptionModule</title>
<polygon fill="#8dd3c7" stroke="black" points="465.76,-122 462.76,-126 441.76,-126 438.76,-122 344.24,-122 344.24,-86 465.76,-86 465.76,-122"/>
<text text-anchor="middle" x="405" y="-99.8" font-family="Times,serif" font-size="14.00">EncryptionModule</text>
</g>
<!-- ToolModule -->
<g id="node4" class="node">
<title>ToolModule</title>
<polygon fill="#8dd3c7" stroke="black" points="2067.99,-187 2064.99,-191 2043.99,-191 2040.99,-187 1982.01,-187 1982.01,-151 2067.99,-151 2067.99,-187"/>
<text text-anchor="middle" x="2025" y="-164.8" font-family="Times,serif" font-size="14.00">ToolModule</text>
</g>
<!-- EncryptionModule&#45;&gt;ToolModule -->
<g id="edge1" class="edge">
<title>EncryptionModule&#45;&gt;ToolModule</title>
<path fill="none" stroke="black" d="M405,-122.11C405,-141.34 405,-169 405,-169 405,-169 1971.67,-169 1971.67,-169"/>
<polygon fill="black" stroke="black" points="1971.67,-172.5 1981.67,-169 1971.67,-165.5 1971.67,-172.5"/>
</g>
<!-- LoggerModule -->
<g id="node2" class="node">
<title>LoggerModule</title>
<polygon fill="#8dd3c7" stroke="black" points="325.98,-122 322.98,-126 301.98,-126 298.98,-122 226.02,-122 226.02,-86 325.98,-86 325.98,-122"/>
<text text-anchor="middle" x="276" y="-99.8" font-family="Times,serif" font-size="14.00">LoggerModule</text>
</g>
<!-- LoggerModule&#45;&gt;ToolModule -->
<g id="edge2" class="edge">
<title>LoggerModule&#45;&gt;ToolModule</title>
<path fill="none" stroke="black" d="M276,-122.22C276,-142.37 276,-172 276,-172 276,-172 1971.77,-172 1971.77,-172"/>
<polygon fill="black" stroke="black" points="1971.77,-175.5 1981.77,-172 1971.77,-168.5 1971.77,-175.5"/>
</g>
<!-- OauthProviderServiceModule -->
<g id="node3" class="node">
<title>OauthProviderServiceModule</title>
<polygon fill="#8dd3c7" stroke="black" points="207.95,-122 204.95,-126 183.95,-126 180.95,-122 24.05,-122 24.05,-86 207.95,-86 207.95,-122"/>
<text text-anchor="middle" x="116" y="-99.8" font-family="Times,serif" font-size="14.00">OauthProviderServiceModule</text>
</g>
<!-- OauthProviderServiceModule&#45;&gt;ToolModule -->
<g id="edge3" class="edge">
<title>OauthProviderServiceModule&#45;&gt;ToolModule</title>
<path fill="none" stroke="black" d="M116,-122.28C116,-143.32 116,-175 116,-175 116,-175 1972,-175 1972,-175"/>
<polygon fill="black" stroke="black" points="1972,-178.5 1982,-175 1972,-171.5 1972,-178.5"/>
</g>
<!-- CommonToolValidationService  -->
<g id="node5" class="node">
<title>CommonToolValidationService </title>
<polygon fill="#fb8072" stroke="black" points="2948.64,-252 2749.36,-252 2749.36,-216 2948.64,-216 2948.64,-252"/>
<text text-anchor="middle" x="2849" y="-229.8" font-family="Times,serif" font-size="14.00">CommonToolValidationService </text>
</g>
<!-- ToolModule&#45;&gt;CommonToolValidationService  -->
<g id="edge4" class="edge">
<title>ToolModule&#45;&gt;CommonToolValidationService </title>
<path fill="none" stroke="black" stroke-dasharray="5,2" d="M2068.16,-177C2232.81,-177 2812.19,-177 2812.19,-177 2812.19,-177 2812.19,-205.96 2812.19,-205.96"/>
<polygon fill="black" stroke="black" points="2808.69,-205.96 2812.19,-215.96 2815.69,-205.96 2808.69,-205.96"/>
</g>
<!-- ContextExternalToolService  -->
<g id="node6" class="node">
<title>ContextExternalToolService </title>
<polygon fill="#fb8072" stroke="black" points="2731.68,-252 2552.32,-252 2552.32,-216 2731.68,-216 2731.68,-252"/>
<text text-anchor="middle" x="2642" y="-229.8" font-family="Times,serif" font-size="14.00">ContextExternalToolService </text>
</g>
<!-- ToolModule&#45;&gt;ContextExternalToolService  -->
<g id="edge5" class="edge">
<title>ToolModule&#45;&gt;ContextExternalToolService </title>
<path fill="none" stroke="black" stroke-dasharray="5,2" d="M2068.28,-180C2204.2,-180 2613.57,-180 2613.57,-180 2613.57,-180 2613.57,-205.72 2613.57,-205.72"/>
<polygon fill="black" stroke="black" points="2610.07,-205.72 2613.57,-215.72 2617.07,-205.72 2610.07,-205.72"/>
</g>
<!-- ContextExternalToolValidationService  -->
<g id="node7" class="node">
<title>ContextExternalToolValidationService </title>
<polygon fill="#fb8072" stroke="black" points="2534.28,-252 2295.72,-252 2295.72,-216 2534.28,-216 2534.28,-252"/>
<text text-anchor="middle" x="2415" y="-229.8" font-family="Times,serif" font-size="14.00">ContextExternalToolValidationService </text>
</g>
<!-- ToolModule&#45;&gt;ContextExternalToolValidationService  -->
<g id="edge6" class="edge">
<title>ToolModule&#45;&gt;ContextExternalToolValidationService </title>
<path fill="none" stroke="black" stroke-dasharray="5,2" d="M2068.21,-182C2157.81,-182 2355.53,-182 2355.53,-182 2355.53,-182 2355.53,-205.81 2355.53,-205.81"/>
<polygon fill="black" stroke="black" points="2352.03,-205.81 2355.53,-215.81 2359.03,-205.81 2352.03,-205.81"/>
</g>
<!-- ExternalToolRepoMapper  -->
<g id="node8" class="node">
<title>ExternalToolRepoMapper </title>
<polygon fill="#fb8072" stroke="black" points="2277.45,-252 2110.55,-252 2110.55,-216 2277.45,-216 2277.45,-252"/>
<text text-anchor="middle" x="2194" y="-229.8" font-family="Times,serif" font-size="14.00">ExternalToolRepoMapper </text>
</g>
<!-- ToolModule&#45;&gt;ExternalToolRepoMapper  -->
<g id="edge7" class="edge">
<title>ToolModule&#45;&gt;ExternalToolRepoMapper </title>
<path fill="none" stroke="black" stroke-dasharray="5,2" d="M2068.29,-185C2098.61,-185 2133.74,-185 2133.74,-185 2133.74,-185 2133.74,-205.75 2133.74,-205.75"/>
<polygon fill="black" stroke="black" points="2130.24,-205.75 2133.74,-215.75 2137.24,-205.75 2130.24,-205.75"/>
</g>
<!-- ExternalToolService  -->
<g id="node9" class="node">
<title>ExternalToolService </title>
<polygon fill="#fb8072" stroke="black" points="2092.84,-252 1957.16,-252 1957.16,-216 2092.84,-216 2092.84,-252"/>
<text text-anchor="middle" x="2025" y="-229.8" font-family="Times,serif" font-size="14.00">ExternalToolService </text>
</g>
<!-- ToolModule&#45;&gt;ExternalToolService  -->
<g id="edge8" class="edge">
<title>ToolModule&#45;&gt;ExternalToolService </title>
<path fill="none" stroke="black" stroke-dasharray="5,2" d="M2025,-187.11C2025,-187.11 2025,-205.99 2025,-205.99"/>
<polygon fill="black" stroke="black" points="2021.5,-205.99 2025,-215.99 2028.5,-205.99 2021.5,-205.99"/>
</g>
<!-- ExternalToolValidationService  -->
<g id="node10" class="node">
<title>ExternalToolValidationService </title>
<polygon fill="#fb8072" stroke="black" points="1939.44,-252 1744.56,-252 1744.56,-216 1939.44,-216 1939.44,-252"/>
<text text-anchor="middle" x="1842" y="-229.8" font-family="Times,serif" font-size="14.00">ExternalToolValidationService </text>
</g>
<!-- ToolModule&#45;&gt;ExternalToolValidationService  -->
<g id="edge9" class="edge">
<title>ToolModule&#45;&gt;ExternalToolValidationService </title>
<path fill="none" stroke="black" stroke-dasharray="5,2" d="M1981.71,-185C1951.38,-185 1916.26,-185 1916.26,-185 1916.26,-185 1916.26,-205.75 1916.26,-205.75"/>
<polygon fill="black" stroke="black" points="1912.76,-205.75 1916.26,-215.75 1919.76,-205.75 1912.76,-205.75"/>
</g>
<!-- Lti11Service  -->
<g id="node11" class="node">
<title>Lti11Service </title>
<polygon fill="#fb8072" stroke="black" points="1726.81,-252 1635.19,-252 1635.19,-216 1726.81,-216 1726.81,-252"/>
<text text-anchor="middle" x="1681" y="-229.8" font-family="Times,serif" font-size="14.00">Lti11Service </text>
</g>
<!-- ToolModule&#45;&gt;Lti11Service  -->
<g id="edge10" class="edge">
<title>ToolModule&#45;&gt;Lti11Service </title>
<path fill="none" stroke="black" stroke-dasharray="5,2" d="M1981.78,-182C1889.39,-182 1681,-182 1681,-182 1681,-182 1681,-205.81 1681,-205.81"/>
<polygon fill="black" stroke="black" points="1677.5,-205.81 1681,-215.81 1684.5,-205.81 1677.5,-205.81"/>
</g>
<!-- SchoolExternalToolService  -->
<g id="node12" class="node">
<title>SchoolExternalToolService </title>
<polygon fill="#fb8072" stroke="black" points="1617.23,-252 1442.77,-252 1442.77,-216 1617.23,-216 1617.23,-252"/>
<text text-anchor="middle" x="1530" y="-229.8" font-family="Times,serif" font-size="14.00">SchoolExternalToolService </text>
</g>
<!-- ToolModule&#45;&gt;SchoolExternalToolService  -->
<g id="edge11" class="edge">
<title>ToolModule&#45;&gt;SchoolExternalToolService </title>
<path fill="none" stroke="black" stroke-dasharray="5,2" d="M1981.83,-180C1861.94,-180 1533.69,-180 1533.69,-180 1533.69,-180 1533.69,-205.72 1533.69,-205.72"/>
<polygon fill="black" stroke="black" points="1530.19,-205.72 1533.69,-215.72 1537.19,-205.72 1530.19,-205.72"/>
</g>
<!-- SchoolExternalToolValidationService  -->
<g id="node13" class="node">
<title>SchoolExternalToolValidationService </title>
<polygon fill="#fb8072" stroke="black" points="1424.83,-252 1191.17,-252 1191.17,-216 1424.83,-216 1424.83,-252"/>
<text text-anchor="middle" x="1308" y="-229.8" font-family="Times,serif" font-size="14.00">SchoolExternalToolValidationService </text>
</g>
<!-- ToolModule&#45;&gt;SchoolExternalToolValidationService  -->
<g id="edge12" class="edge">
<title>ToolModule&#45;&gt;SchoolExternalToolValidationService </title>
<path fill="none" stroke="black" stroke-dasharray="5,2" d="M1982,-177C1836.22,-177 1369.71,-177 1369.71,-177 1369.71,-177 1369.71,-205.96 1369.71,-205.96"/>
<polygon fill="black" stroke="black" points="1366.21,-205.96 1369.71,-215.96 1373.21,-205.96 1366.21,-205.96"/>
</g>
<!-- CommonToolValidationService -->
<g id="node14" class="node">
<title>CommonToolValidationService</title>
<ellipse fill="#fdb462" stroke="black" cx="4301" cy="-104" rx="134.89" ry="18"/>
<text text-anchor="middle" x="4301" y="-99.8" font-family="Times,serif" font-size="14.00">CommonToolValidationService</text>
</g>
<!-- CommonToolValidationService&#45;&gt;ToolModule -->
<g id="edge13" class="edge">
<title>CommonToolValidationService&#45;&gt;ToolModule</title>
<path fill="none" stroke="black" d="M4301,-122.28C4301,-143.32 4301,-175 4301,-175 4301,-175 2078.43,-175 2078.43,-175"/>
<polygon fill="black" stroke="black" points="2078.43,-171.5 2068.43,-175 2078.43,-178.5 2078.43,-171.5"/>
</g>
<!-- ContextExternalToolRepo -->
<g id="node15" class="node">
<title>ContextExternalToolRepo</title>
<ellipse fill="#fdb462" stroke="black" cx="4035" cy="-104" rx="112.9" ry="18"/>
<text text-anchor="middle" x="4035" y="-99.8" font-family="Times,serif" font-size="14.00">ContextExternalToolRepo</text>
</g>
<!-- ContextExternalToolRepo&#45;&gt;ToolModule -->
<g id="edge14" class="edge">
<title>ContextExternalToolRepo&#45;&gt;ToolModule</title>
<path fill="none" stroke="black" d="M4035,-122.22C4035,-142.37 4035,-172 4035,-172 4035,-172 2078.38,-172 2078.38,-172"/>
<polygon fill="black" stroke="black" points="2078.38,-168.5 2068.38,-172 2078.38,-175.5 2078.38,-168.5"/>
</g>
<!-- ContextExternalToolService -->
<g id="node16" class="node">
<title>ContextExternalToolService</title>
<ellipse fill="#fdb462" stroke="black" cx="3783" cy="-104" rx="121.55" ry="18"/>
<text text-anchor="middle" x="3783" y="-99.8" font-family="Times,serif" font-size="14.00">ContextExternalToolService</text>
</g>
<!-- ContextExternalToolService&#45;&gt;ToolModule -->
<g id="edge15" class="edge">
<title>ContextExternalToolService&#45;&gt;ToolModule</title>
<path fill="none" stroke="black" d="M3783,-122.11C3783,-141.34 3783,-169 3783,-169 3783,-169 2078.02,-169 2078.02,-169"/>
<polygon fill="black" stroke="black" points="2078.02,-165.5 2068.02,-169 2078.02,-172.5 2078.02,-165.5"/>
</g>
<!-- ContextExternalToolValidationService -->
<g id="node17" class="node">
<title>ContextExternalToolValidationService</title>
<ellipse fill="#fdb462" stroke="black" cx="3481" cy="-104" rx="162.08" ry="18"/>
<text text-anchor="middle" x="3481" y="-99.8" font-family="Times,serif" font-size="14.00">ContextExternalToolValidationService</text>
</g>
<!-- ContextExternalToolValidationService&#45;&gt;ToolModule -->
<g id="edge16" class="edge">
<title>ContextExternalToolValidationService&#45;&gt;ToolModule</title>
<path fill="none" stroke="black" d="M3481,-122.22C3481,-140.83 3481,-167 3481,-167 3481,-167 2078.18,-167 2078.18,-167"/>
<polygon fill="black" stroke="black" points="2078.18,-163.5 2068.18,-167 2078.18,-170.5 2078.18,-163.5"/>
</g>
<!-- ExternalToolRepo -->
<g id="node18" class="node">
<title>ExternalToolRepo</title>
<ellipse fill="#fdb462" stroke="black" cx="3218" cy="-104" rx="82.24" ry="18"/>
<text text-anchor="middle" x="3218" y="-99.8" font-family="Times,serif" font-size="14.00">ExternalToolRepo</text>
</g>
<!-- ExternalToolRepo&#45;&gt;ToolModule -->
<g id="edge17" class="edge">
<title>ExternalToolRepo&#45;&gt;ToolModule</title>
<path fill="none" stroke="black" d="M3218,-122C3218,-139.68 3218,-164 3218,-164 3218,-164 2078.16,-164 2078.16,-164"/>
<polygon fill="black" stroke="black" points="2078.16,-160.5 2068.16,-164 2078.16,-167.5 2078.16,-160.5"/>
</g>
<!-- ExternalToolRepoMapper -->
<g id="node19" class="node">
<title>ExternalToolRepoMapper</title>
<ellipse fill="#fdb462" stroke="black" cx="3005" cy="-104" rx="112.3" ry="18"/>
<text text-anchor="middle" x="3005" y="-99.8" font-family="Times,serif" font-size="14.00">ExternalToolRepoMapper</text>
</g>
<!-- ExternalToolRepoMapper&#45;&gt;ToolModule -->
<g id="edge18" class="edge">
<title>ExternalToolRepoMapper&#45;&gt;ToolModule</title>
<path fill="none" stroke="black" d="M2920.58,-116.02C2920.58,-133.01 2920.58,-162 2920.58,-162 2920.58,-162 2078.2,-162 2078.2,-162"/>
<polygon fill="black" stroke="black" points="2078.2,-158.5 2068.2,-162 2078.2,-165.5 2078.2,-158.5"/>
</g>
<!-- ExternalToolService -->
<g id="node20" class="node">
<title>ExternalToolService</title>
<ellipse fill="#fdb462" stroke="black" cx="2784" cy="-104" rx="90.89" ry="18"/>
<text text-anchor="middle" x="2784" y="-99.8" font-family="Times,serif" font-size="14.00">ExternalToolService</text>
</g>
<!-- ExternalToolService&#45;&gt;ToolModule -->
<g id="edge19" class="edge">
<title>ExternalToolService&#45;&gt;ToolModule</title>
<path fill="none" stroke="black" d="M2712.45,-115.13C2712.45,-131.2 2712.45,-159 2712.45,-159 2712.45,-159 2078,-159 2078,-159"/>
<polygon fill="black" stroke="black" points="2078,-155.5 2068,-159 2078,-162.5 2078,-155.5"/>
</g>
<!-- ExternalToolServiceMapper -->
<g id="node21" class="node">
<title>ExternalToolServiceMapper</title>
<ellipse fill="#fdb462" stroke="black" cx="2554" cy="-104" rx="120.95" ry="18"/>
<text text-anchor="middle" x="2554" y="-99.8" font-family="Times,serif" font-size="14.00">ExternalToolServiceMapper</text>
</g>
<!-- ExternalToolServiceMapper&#45;&gt;ToolModule -->
<g id="edge20" class="edge">
<title>ExternalToolServiceMapper&#45;&gt;ToolModule</title>
<path fill="none" stroke="black" d="M2483.71,-118.76C2483.71,-134.45 2483.71,-157 2483.71,-157 2483.71,-157 2078.15,-157 2078.15,-157"/>
<polygon fill="black" stroke="black" points="2078.15,-153.5 2068.15,-157 2078.15,-160.5 2078.15,-153.5"/>
</g>
<!-- ExternalToolSortingMapper -->
<g id="node22" class="node">
<title>ExternalToolSortingMapper</title>
<ellipse fill="#fdb462" stroke="black" cx="2295" cy="-104" rx="120.41" ry="18"/>
<text text-anchor="middle" x="2295" y="-99.8" font-family="Times,serif" font-size="14.00">ExternalToolSortingMapper</text>
</g>
<!-- ExternalToolSortingMapper&#45;&gt;ToolModule -->
<g id="edge21" class="edge">
<title>ExternalToolSortingMapper&#45;&gt;ToolModule</title>
<path fill="none" stroke="black" d="M2225.89,-119C2225.89,-133.73 2225.89,-154 2225.89,-154 2225.89,-154 2078.1,-154 2078.1,-154"/>
<polygon fill="black" stroke="black" points="2078.1,-150.5 2068.1,-154 2078.1,-157.5 2078.1,-150.5"/>
</g>
<!-- ExternalToolValidationService -->
<g id="node23" class="node">
<title>ExternalToolValidationService</title>
<ellipse fill="#fdb462" stroke="black" cx="2025" cy="-104" rx="131.92" ry="18"/>
<text text-anchor="middle" x="2025" y="-99.8" font-family="Times,serif" font-size="14.00">ExternalToolValidationService</text>
</g>
<!-- ExternalToolValidationService&#45;&gt;ToolModule -->
<g id="edge22" class="edge">
<title>ExternalToolValidationService&#45;&gt;ToolModule</title>
<path fill="none" stroke="black" d="M2025,-122.11C2025,-122.11 2025,-140.99 2025,-140.99"/>
<polygon fill="black" stroke="black" points="2021.5,-140.99 2025,-150.99 2028.5,-140.99 2021.5,-140.99"/>
</g>
<!-- ExternalToolVersionService -->
<g id="node24" class="node">
<title>ExternalToolVersionService</title>
<ellipse fill="#fdb462" stroke="black" cx="1754" cy="-104" rx="121.53" ry="18"/>
<text text-anchor="middle" x="1754" y="-99.8" font-family="Times,serif" font-size="14.00">ExternalToolVersionService</text>
</g>
<!-- ExternalToolVersionService&#45;&gt;ToolModule -->
<g id="edge23" class="edge">
<title>ExternalToolVersionService&#45;&gt;ToolModule</title>
<path fill="none" stroke="black" d="M1810.15,-120.1C1810.15,-134.71 1810.15,-154 1810.15,-154 1810.15,-154 1971.78,-154 1971.78,-154"/>
<polygon fill="black" stroke="black" points="1971.78,-157.5 1981.78,-154 1971.78,-150.5 1971.78,-157.5"/>
</g>
<!-- Lti11Service -->
<g id="node25" class="node">
<title>Lti11Service</title>
<ellipse fill="#fdb462" stroke="black" cx="1554" cy="-104" rx="60.83" ry="18"/>
<text text-anchor="middle" x="1554" y="-99.8" font-family="Times,serif" font-size="14.00">Lti11Service</text>
</g>
<!-- Lti11Service&#45;&gt;ToolModule -->
<g id="edge24" class="edge">
<title>Lti11Service&#45;&gt;ToolModule</title>
<path fill="none" stroke="black" d="M1574.31,-121.06C1574.31,-136.55 1574.31,-157 1574.31,-157 1574.31,-157 1971.79,-157 1971.79,-157"/>
<polygon fill="black" stroke="black" points="1971.79,-160.5 1981.79,-157 1971.79,-153.5 1971.79,-160.5"/>
</g>
<!-- PseudonymsRepo -->
<g id="node26" class="node">
<title>PseudonymsRepo</title>
<ellipse fill="#fdb462" stroke="black" cx="1395" cy="-104" rx="80.48" ry="18"/>
<text text-anchor="middle" x="1395" y="-99.8" font-family="Times,serif" font-size="14.00">PseudonymsRepo</text>
</g>
<!-- PseudonymsRepo&#45;&gt;ToolModule -->
<g id="edge25" class="edge">
<title>PseudonymsRepo&#45;&gt;ToolModule</title>
<path fill="none" stroke="black" d="M1459.06,-114.87C1459.06,-130.89 1459.06,-159 1459.06,-159 1459.06,-159 1972,-159 1972,-159"/>
<polygon fill="black" stroke="black" points="1972,-162.5 1982,-159 1972,-155.5 1972,-162.5"/>
</g>
<!-- SchoolExternalToolRepo -->
<g id="node27" class="node">
<title>SchoolExternalToolRepo</title>
<ellipse fill="#fdb462" stroke="black" cx="1188" cy="-104" rx="109.39" ry="18"/>
<text text-anchor="middle" x="1188" y="-99.8" font-family="Times,serif" font-size="14.00">SchoolExternalToolRepo</text>
</g>
<!-- SchoolExternalToolRepo&#45;&gt;ToolModule -->
<g id="edge26" class="edge">
<title>SchoolExternalToolRepo&#45;&gt;ToolModule</title>
<path fill="none" stroke="black" d="M1244.27,-119.54C1244.27,-136.72 1244.27,-162 1244.27,-162 1244.27,-162 1971.91,-162 1971.91,-162"/>
<polygon fill="black" stroke="black" points="1971.91,-165.5 1981.91,-162 1971.91,-158.5 1971.91,-165.5"/>
</g>
<!-- SchoolExternalToolService -->
<g id="node28" class="node">
<title>SchoolExternalToolService</title>
<ellipse fill="#fdb462" stroke="black" cx="943" cy="-104" rx="117.54" ry="18"/>
<text text-anchor="middle" x="943" y="-99.8" font-family="Times,serif" font-size="14.00">SchoolExternalToolService</text>
</g>
<!-- SchoolExternalToolService&#45;&gt;ToolModule -->
<g id="edge27" class="edge">
<title>SchoolExternalToolService&#45;&gt;ToolModule</title>
<path fill="none" stroke="black" d="M943,-122C943,-139.68 943,-164 943,-164 943,-164 1971.92,-164 1971.92,-164"/>
<polygon fill="black" stroke="black" points="1971.92,-167.5 1981.92,-164 1971.92,-160.5 1971.92,-167.5"/>
</g>
<!-- SchoolExternalToolValidationService -->
<g id="node29" class="node">
<title>SchoolExternalToolValidationService</title>
<ellipse fill="#fdb462" stroke="black" cx="649" cy="-104" rx="158.57" ry="18"/>
<text text-anchor="middle" x="649" y="-99.8" font-family="Times,serif" font-size="14.00">SchoolExternalToolValidationService</text>
</g>
<!-- SchoolExternalToolValidationService&#45;&gt;ToolModule -->
<g id="edge28" class="edge">
<title>SchoolExternalToolValidationService&#45;&gt;ToolModule</title>
<path fill="none" stroke="black" d="M649,-122.22C649,-140.83 649,-167 649,-167 649,-167 1971.93,-167 1971.93,-167"/>
<polygon fill="black" stroke="black" points="1971.93,-170.5 1981.93,-167 1971.93,-163.5 1971.93,-170.5"/>
</g>
</g>
</svg>
