<?xml version="1.0" encoding="UTF-8" standalone="no"?>
<!DOCTYPE svg PUBLIC "-//W3C//DTD SVG 1.1//EN"
 "http://www.w3.org/Graphics/SVG/1.1/DTD/svg11.dtd">
<!-- Generated by graphviz version 2.47.0 (20210316.0004)
 -->
<!-- Title: dependencies Pages: 1 -->
<svg width="5622pt" height="284pt"
 viewBox="0.00 0.00 5622.00 284.00" xmlns="http://www.w3.org/2000/svg" xmlns:xlink="http://www.w3.org/1999/xlink">
<g id="graph0" class="graph" transform="scale(1 1) rotate(0) translate(4 280)">
<title>dependencies</title>
<polygon fill="white" stroke="transparent" points="-4,4 -4,-280 5618,-280 5618,4 -4,4"/>
<text text-anchor="start" x="2786.01" y="-42.4" font-family="Times-12" font-weight="bold" font-size="14.00">Legend</text>
<polygon fill="#ffffb3" stroke="transparent" points="2573,-10 2573,-30 2593,-30 2593,-10 2573,-10"/>
<text text-anchor="start" x="2596.63" y="-15.4" font-family="Times-12" font-size="14.00"> &#160;Declarations</text>
<polygon fill="#8dd3c7" stroke="transparent" points="2686,-10 2686,-30 2706,-30 2706,-10 2686,-10"/>
<text text-anchor="start" x="2709.73" y="-15.4" font-family="Times-12" font-size="14.00"> &#160;Module</text>
<polygon fill="#80b1d3" stroke="transparent" points="2772,-10 2772,-30 2792,-30 2792,-10 2772,-10"/>
<text text-anchor="start" x="2795.78" y="-15.4" font-family="Times-12" font-size="14.00"> &#160;Bootstrap</text>
<polygon fill="#fdb462" stroke="transparent" points="2869,-10 2869,-30 2889,-30 2889,-10 2869,-10"/>
<text text-anchor="start" x="2892.67" y="-15.4" font-family="Times-12" font-size="14.00"> &#160;Providers</text>
<polygon fill="#fb8072" stroke="transparent" points="2965,-10 2965,-30 2985,-30 2985,-10 2965,-10"/>
<text text-anchor="start" x="2988.73" y="-15.4" font-family="Times-12" font-size="14.00"> &#160;Exports</text>
<g id="clust1" class="cluster">
<title>cluster_ToolModule</title>
<polygon fill="none" stroke="black" stroke-dasharray="1,5" points="8,-70 8,-268 5606,-268 5606,-70 8,-70"/>
</g>
<g id="clust3" class="cluster">
<title>cluster_ToolModule_imports</title>
<polygon fill="none" stroke="black" points="5036,-78 5036,-130 5598,-130 5598,-78 5036,-78"/>
</g>
<g id="clust6" class="cluster">
<title>cluster_ToolModule_providers</title>
<polygon fill="none" stroke="black" points="16,-78 16,-130 5028,-130 5028,-78 16,-78"/>
</g>
<g id="clust4" class="cluster">
<title>cluster_ToolModule_exports</title>
<polygon fill="none" stroke="black" points="2066,-208 2066,-260 4036,-260 4036,-208 2066,-208"/>
</g>
<!-- EncryptionModule -->
<g id="node1" class="node">
<title>EncryptionModule</title>
<polygon fill="#8dd3c7" stroke="black" points="5589.76,-122 5586.76,-126 5565.76,-126 5562.76,-122 5468.24,-122 5468.24,-86 5589.76,-86 5589.76,-122"/>
<text text-anchor="middle" x="5529" y="-99.8" font-family="Times,serif" font-size="14.00">EncryptionModule</text>
</g>
<!-- ToolModule -->
<g id="node5" class="node">
<title>ToolModule</title>
<polygon fill="#8dd3c7" stroke="black" points="3072.99,-187 3069.99,-191 3048.99,-191 3045.99,-187 2987.01,-187 2987.01,-151 3072.99,-151 3072.99,-187"/>
<text text-anchor="middle" x="3030" y="-164.8" font-family="Times,serif" font-size="14.00">ToolModule</text>
</g>
<!-- EncryptionModule&#45;&gt;ToolModule -->
<g id="edge1" class="edge">
<title>EncryptionModule&#45;&gt;ToolModule</title>
<path fill="none" stroke="black" d="M5529,-122.17C5529,-143.5 5529,-176 5529,-176 5529,-176 3083.11,-176 3083.11,-176"/>
<polygon fill="black" stroke="black" points="3083.11,-172.5 3073.11,-176 3083.11,-179.5 3083.11,-172.5"/>
</g>
<!-- LoggerModule -->
<g id="node2" class="node">
<title>LoggerModule</title>
<polygon fill="#8dd3c7" stroke="black" points="5449.98,-122 5446.98,-126 5425.98,-126 5422.98,-122 5350.02,-122 5350.02,-86 5449.98,-86 5449.98,-122"/>
<text text-anchor="middle" x="5400" y="-99.8" font-family="Times,serif" font-size="14.00">LoggerModule</text>
</g>
<!-- LoggerModule&#45;&gt;ToolModule -->
<g id="edge2" class="edge">
<title>LoggerModule&#45;&gt;ToolModule</title>
<path fill="none" stroke="black" d="M5400,-122.03C5400,-142.77 5400,-174 5400,-174 5400,-174 3083.16,-174 3083.16,-174"/>
<polygon fill="black" stroke="black" points="3083.16,-170.5 3073.16,-174 3083.16,-177.5 3083.16,-170.5"/>
</g>
<!-- OauthProviderServiceModule -->
<g id="node3" class="node">
<title>OauthProviderServiceModule</title>
<polygon fill="#8dd3c7" stroke="black" points="5331.95,-122 5328.95,-126 5307.95,-126 5304.95,-122 5148.05,-122 5148.05,-86 5331.95,-86 5331.95,-122"/>
<text text-anchor="middle" x="5240" y="-99.8" font-family="Times,serif" font-size="14.00">OauthProviderServiceModule</text>
</g>
<!-- OauthProviderServiceModule&#45;&gt;ToolModule -->
<g id="edge3" class="edge">
<title>OauthProviderServiceModule&#45;&gt;ToolModule</title>
<path fill="none" stroke="black" d="M5240,-122.22C5240,-142.37 5240,-172 5240,-172 5240,-172 3083.15,-172 3083.15,-172"/>
<polygon fill="black" stroke="black" points="3083.15,-168.5 3073.15,-172 3083.15,-175.5 3083.15,-168.5"/>
</g>
<!-- UserModule -->
<g id="node4" class="node">
<title>UserModule</title>
<polygon fill="#8dd3c7" stroke="black" points="5129.98,-122 5126.98,-126 5105.98,-126 5102.98,-122 5044.02,-122 5044.02,-86 5129.98,-86 5129.98,-122"/>
<text text-anchor="middle" x="5087" y="-99.8" font-family="Times,serif" font-size="14.00">UserModule</text>
</g>
<!-- UserModule&#45;&gt;ToolModule -->
<g id="edge4" class="edge">
<title>UserModule&#45;&gt;ToolModule</title>
<path fill="none" stroke="black" d="M5087,-122.11C5087,-141.34 5087,-169 5087,-169 5087,-169 3083.44,-169 3083.44,-169"/>
<polygon fill="black" stroke="black" points="3083.44,-165.5 3073.44,-169 3083.44,-172.5 3083.44,-165.5"/>
</g>
<!-- CommonToolService  -->
<g id="node6" class="node">
<title>CommonToolService </title>
<polygon fill="#fb8072" stroke="black" points="4028.04,-252 3887.96,-252 3887.96,-216 4028.04,-216 4028.04,-252"/>
<text text-anchor="middle" x="3958" y="-229.8" font-family="Times,serif" font-size="14.00">CommonToolService </text>
</g>
<!-- ToolModule&#45;&gt;CommonToolService  -->
<g id="edge5" class="edge">
<title>ToolModule&#45;&gt;CommonToolService </title>
<path fill="none" stroke="black" stroke-dasharray="5,2" d="M3073.21,-178C3256.2,-178 3958,-178 3958,-178 3958,-178 3958,-205.97 3958,-205.97"/>
<polygon fill="black" stroke="black" points="3954.5,-205.97 3958,-215.97 3961.5,-205.97 3954.5,-205.97"/>
</g>
<!-- CommonToolValidationService  -->
<g id="node7" class="node">
<title>CommonToolValidationService </title>
<polygon fill="#fb8072" stroke="black" points="3869.64,-252 3670.36,-252 3670.36,-216 3869.64,-216 3869.64,-252"/>
<text text-anchor="middle" x="3770" y="-229.8" font-family="Times,serif" font-size="14.00">CommonToolValidationService </text>
</g>
<!-- ToolModule&#45;&gt;CommonToolValidationService  -->
<g id="edge6" class="edge">
<title>ToolModule&#45;&gt;CommonToolValidationService </title>
<path fill="none" stroke="black" stroke-dasharray="5,2" d="M3073.2,-181C3225.01,-181 3724.86,-181 3724.86,-181 3724.86,-181 3724.86,-205.76 3724.86,-205.76"/>
<polygon fill="black" stroke="black" points="3721.36,-205.76 3724.86,-215.76 3728.36,-205.76 3721.36,-205.76"/>
</g>
<!-- ContextExternalToolService  -->
<g id="node8" class="node">
<title>ContextExternalToolService </title>
<polygon fill="#fb8072" stroke="black" points="3652.68,-252 3473.32,-252 3473.32,-216 3652.68,-216 3652.68,-252"/>
<text text-anchor="middle" x="3563" y="-229.8" font-family="Times,serif" font-size="14.00">ContextExternalToolService </text>
</g>
<!-- ToolModule&#45;&gt;ContextExternalToolService  -->
<g id="edge7" class="edge">
<title>ToolModule&#45;&gt;ContextExternalToolService </title>
<path fill="none" stroke="black" stroke-dasharray="5,2" d="M3073.17,-183C3200.06,-183 3563,-183 3563,-183 3563,-183 3563,-205.88 3563,-205.88"/>
<polygon fill="black" stroke="black" points="3559.5,-205.88 3563,-215.88 3566.5,-205.88 3559.5,-205.88"/>
</g>
<!-- ContextExternalToolValidationService  -->
<g id="node9" class="node">
<title>ContextExternalToolValidationService </title>
<polygon fill="#fb8072" stroke="black" points="3455.28,-252 3216.72,-252 3216.72,-216 3455.28,-216 3455.28,-252"/>
<text text-anchor="middle" x="3336" y="-229.8" font-family="Times,serif" font-size="14.00">ContextExternalToolValidationService </text>
</g>
<!-- ToolModule&#45;&gt;ContextExternalToolValidationService  -->
<g id="edge8" class="edge">
<title>ToolModule&#45;&gt;ContextExternalToolValidationService </title>
<path fill="none" stroke="black" stroke-dasharray="5,2" d="M3073.48,-185C3133.65,-185 3235.01,-185 3235.01,-185 3235.01,-185 3235.01,-205.75 3235.01,-205.75"/>
<polygon fill="black" stroke="black" points="3231.51,-205.75 3235.01,-215.75 3238.51,-205.75 3231.51,-205.75"/>
</g>
<!-- ExternalToolRepoMapper  -->
<g id="node10" class="node">
<title>ExternalToolRepoMapper </title>
<polygon fill="#fb8072" stroke="black" points="3198.45,-252 3031.55,-252 3031.55,-216 3198.45,-216 3198.45,-252"/>
<text text-anchor="middle" x="3115" y="-229.8" font-family="Times,serif" font-size="14.00">ExternalToolRepoMapper </text>
</g>
<!-- ToolModule&#45;&gt;ExternalToolRepoMapper  -->
<g id="edge9" class="edge">
<title>ToolModule&#45;&gt;ExternalToolRepoMapper </title>
<path fill="none" stroke="black" stroke-dasharray="5,2" d="M3052.39,-187.11C3052.39,-187.11 3052.39,-205.99 3052.39,-205.99"/>
<polygon fill="black" stroke="black" points="3048.89,-205.99 3052.39,-215.99 3055.89,-205.99 3048.89,-205.99"/>
</g>
<!-- ExternalToolService  -->
<g id="node11" class="node">
<title>ExternalToolService </title>
<polygon fill="#fb8072" stroke="black" points="3013.84,-252 2878.16,-252 2878.16,-216 3013.84,-216 3013.84,-252"/>
<text text-anchor="middle" x="2946" y="-229.8" font-family="Times,serif" font-size="14.00">ExternalToolService </text>
</g>
<!-- ToolModule&#45;&gt;ExternalToolService  -->
<g id="edge10" class="edge">
<title>ToolModule&#45;&gt;ExternalToolService </title>
<path fill="none" stroke="black" stroke-dasharray="5,2" d="M3000.34,-187.11C3000.34,-187.11 3000.34,-205.99 3000.34,-205.99"/>
<polygon fill="black" stroke="black" points="2996.84,-205.99 3000.34,-215.99 3003.84,-205.99 2996.84,-205.99"/>
</g>
<!-- ExternalToolValidationService  -->
<g id="node12" class="node">
<title>ExternalToolValidationService </title>
<polygon fill="#fb8072" stroke="black" points="2860.44,-252 2665.56,-252 2665.56,-216 2860.44,-216 2860.44,-252"/>
<text text-anchor="middle" x="2763" y="-229.8" font-family="Times,serif" font-size="14.00">ExternalToolValidationService </text>
</g>
<!-- ToolModule&#45;&gt;ExternalToolValidationService  -->
<g id="edge11" class="edge">
<title>ToolModule&#45;&gt;ExternalToolValidationService </title>
<path fill="none" stroke="black" stroke-dasharray="5,2" d="M2986.54,-185C2931.75,-185 2844.64,-185 2844.64,-185 2844.64,-185 2844.64,-205.75 2844.64,-205.75"/>
<polygon fill="black" stroke="black" points="2841.14,-205.75 2844.64,-215.75 2848.14,-205.75 2841.14,-205.75"/>
</g>
<!-- SchoolExternalToolService  -->
<g id="node13" class="node">
<title>SchoolExternalToolService </title>
<polygon fill="#fb8072" stroke="black" points="2648.23,-252 2473.77,-252 2473.77,-216 2648.23,-216 2648.23,-252"/>
<text text-anchor="middle" x="2561" y="-229.8" font-family="Times,serif" font-size="14.00">SchoolExternalToolService </text>
</g>
<!-- ToolModule&#45;&gt;SchoolExternalToolService  -->
<g id="edge12" class="edge">
<title>ToolModule&#45;&gt;SchoolExternalToolService </title>
<path fill="none" stroke="black" stroke-dasharray="5,2" d="M2986.88,-183C2879.47,-183 2608.57,-183 2608.57,-183 2608.57,-183 2608.57,-205.88 2608.57,-205.88"/>
<polygon fill="black" stroke="black" points="2605.07,-205.88 2608.57,-215.88 2612.07,-205.88 2605.07,-205.88"/>
</g>
<!-- SchoolExternalToolValidationService  -->
<g id="node14" class="node">
<title>SchoolExternalToolValidationService </title>
<polygon fill="#fb8072" stroke="black" points="2455.83,-252 2222.17,-252 2222.17,-216 2455.83,-216 2455.83,-252"/>
<text text-anchor="middle" x="2339" y="-229.8" font-family="Times,serif" font-size="14.00">SchoolExternalToolValidationService </text>
</g>
<!-- ToolModule&#45;&gt;SchoolExternalToolValidationService  -->
<g id="edge13" class="edge">
<title>ToolModule&#45;&gt;SchoolExternalToolValidationService </title>
<path fill="none" stroke="black" stroke-dasharray="5,2" d="M2986.8,-181C2842.04,-181 2383.11,-181 2383.11,-181 2383.11,-181 2383.11,-205.76 2383.11,-205.76"/>
<polygon fill="black" stroke="black" points="2379.61,-205.76 2383.11,-215.76 2386.61,-205.76 2379.61,-205.76"/>
</g>
<!-- ToolLaunchService  -->
<g id="node15" class="node">
<title>ToolLaunchService </title>
<polygon fill="#fb8072" stroke="black" points="2203.9,-252 2074.1,-252 2074.1,-216 2203.9,-216 2203.9,-252"/>
<text text-anchor="middle" x="2139" y="-229.8" font-family="Times,serif" font-size="14.00">ToolLaunchService </text>
</g>
<!-- ToolModule&#45;&gt;ToolLaunchService  -->
<g id="edge14" class="edge">
<title>ToolModule&#45;&gt;ToolLaunchService </title>
<path fill="none" stroke="black" stroke-dasharray="5,2" d="M2986.72,-178C2808.29,-178 2139,-178 2139,-178 2139,-178 2139,-205.97 2139,-205.97"/>
<polygon fill="black" stroke="black" points="2135.5,-205.97 2139,-215.97 2142.5,-205.97 2135.5,-205.97"/>
</g>
<!-- BasicToolLaunchStrategy -->
<g id="node16" class="node">
<title>BasicToolLaunchStrategy</title>
<ellipse fill="#fdb462" stroke="black" cx="4908" cy="-104" rx="111.74" ry="18"/>
<text text-anchor="middle" x="4908" y="-99.8" font-family="Times,serif" font-size="14.00">BasicToolLaunchStrategy</text>
</g>
<!-- BasicToolLaunchStrategy&#45;&gt;ToolModule -->
<g id="edge15" class="edge">
<title>BasicToolLaunchStrategy&#45;&gt;ToolModule</title>
<path fill="none" stroke="black" d="M4908,-122.22C4908,-140.83 4908,-167 4908,-167 4908,-167 3083.2,-167 3083.2,-167"/>
<polygon fill="black" stroke="black" points="3083.2,-163.5 3073.2,-167 3083.2,-170.5 3083.2,-163.5"/>
</g>
<!-- CommonToolService -->
<g id="node17" class="node">
<title>CommonToolService</title>
<ellipse fill="#fdb462" stroke="black" cx="4684" cy="-104" rx="94.36" ry="18"/>
<text text-anchor="middle" x="4684" y="-99.8" font-family="Times,serif" font-size="14.00">CommonToolService</text>
</g>
<!-- CommonToolService&#45;&gt;ToolModule -->
<g id="edge16" class="edge">
<title>CommonToolService&#45;&gt;ToolModule</title>
<path fill="none" stroke="black" d="M4684,-122.3C4684,-140.27 4684,-165 4684,-165 4684,-165 3083.39,-165 3083.39,-165"/>
<polygon fill="black" stroke="black" points="3083.39,-161.5 3073.39,-165 3083.39,-168.5 3083.39,-161.5"/>
</g>
<!-- CommonToolValidationService -->
<g id="node18" class="node">
<title>CommonToolValidationService</title>
<ellipse fill="#fdb462" stroke="black" cx="4437" cy="-104" rx="134.89" ry="18"/>
<text text-anchor="middle" x="4437" y="-99.8" font-family="Times,serif" font-size="14.00">CommonToolValidationService</text>
</g>
<!-- CommonToolValidationService&#45;&gt;ToolModule -->
<g id="edge17" class="edge">
<title>CommonToolValidationService&#45;&gt;ToolModule</title>
<path fill="none" stroke="black" d="M4437,-122.02C4437,-139.37 4437,-163 4437,-163 4437,-163 3083.26,-163 3083.26,-163"/>
<polygon fill="black" stroke="black" points="3083.26,-159.5 3073.26,-163 3083.26,-166.5 3083.26,-159.5"/>
</g>
<!-- ContextExternalToolRepo -->
<g id="node19" class="node">
<title>ContextExternalToolRepo</title>
<ellipse fill="#fdb462" stroke="black" cx="4171" cy="-104" rx="112.9" ry="18"/>
<text text-anchor="middle" x="4171" y="-99.8" font-family="Times,serif" font-size="14.00">ContextExternalToolRepo</text>
</g>
<!-- ContextExternalToolRepo&#45;&gt;ToolModule -->
<g id="edge18" class="edge">
<title>ContextExternalToolRepo&#45;&gt;ToolModule</title>
<path fill="none" stroke="black" d="M4171,-122.03C4171,-138.4 4171,-160 4171,-160 4171,-160 3083.34,-160 3083.34,-160"/>
<polygon fill="black" stroke="black" points="3083.34,-156.5 3073.34,-160 3083.34,-163.5 3083.34,-156.5"/>
</g>
<!-- ContextExternalToolService -->
<g id="node20" class="node">
<title>ContextExternalToolService</title>
<ellipse fill="#fdb462" stroke="black" cx="3919" cy="-104" rx="121.55" ry="18"/>
<text text-anchor="middle" x="3919" y="-99.8" font-family="Times,serif" font-size="14.00">ContextExternalToolService</text>
</g>
<!-- ContextExternalToolService&#45;&gt;ToolModule -->
<g id="edge19" class="edge">
<title>ContextExternalToolService&#45;&gt;ToolModule</title>
<path fill="none" stroke="black" d="M3833.52,-116.8C3833.52,-132.77 3833.52,-158 3833.52,-158 3833.52,-158 3083.2,-158 3083.2,-158"/>
<polygon fill="black" stroke="black" points="3083.2,-154.5 3073.2,-158 3083.2,-161.5 3083.2,-154.5"/>
</g>
<!-- ContextExternalToolValidationService -->
<g id="node21" class="node">
<title>ContextExternalToolValidationService</title>
<ellipse fill="#fdb462" stroke="black" cx="3617" cy="-104" rx="162.08" ry="18"/>
<text text-anchor="middle" x="3617" y="-99.8" font-family="Times,serif" font-size="14.00">ContextExternalToolValidationService</text>
</g>
<!-- ContextExternalToolValidationService&#45;&gt;ToolModule -->
<g id="edge20" class="edge">
<title>ContextExternalToolValidationService&#45;&gt;ToolModule</title>
<path fill="none" stroke="black" d="M3464.27,-110.38C3464.27,-124.26 3464.27,-156 3464.27,-156 3464.27,-156 3083.23,-156 3083.23,-156"/>
<polygon fill="black" stroke="black" points="3083.23,-152.5 3073.23,-156 3083.23,-159.5 3083.23,-152.5"/>
</g>
<!-- ExternalToolRepo -->
<g id="node22" class="node">
<title>ExternalToolRepo</title>
<ellipse fill="#fdb462" stroke="black" cx="3354" cy="-104" rx="82.24" ry="18"/>
<text text-anchor="middle" x="3354" y="-99.8" font-family="Times,serif" font-size="14.00">ExternalToolRepo</text>
</g>
<!-- ExternalToolRepo&#45;&gt;ToolModule -->
<g id="edge21" class="edge">
<title>ExternalToolRepo&#45;&gt;ToolModule</title>
<path fill="none" stroke="black" d="M3354,-122.05C3354,-136.37 3354,-154 3354,-154 3354,-154 3083.02,-154 3083.02,-154"/>
<polygon fill="black" stroke="black" points="3083.02,-150.5 3073.02,-154 3083.02,-157.5 3083.02,-150.5"/>
</g>
<!-- ExternalToolRepoMapper -->
<g id="node23" class="node">
<title>ExternalToolRepoMapper</title>
<ellipse fill="#fdb462" stroke="black" cx="3141" cy="-104" rx="112.3" ry="18"/>
<text text-anchor="middle" x="3141" y="-99.8" font-family="Times,serif" font-size="14.00">ExternalToolRepoMapper</text>
</g>
<!-- ExternalToolRepoMapper&#45;&gt;ToolModule -->
<g id="edge22" class="edge">
<title>ExternalToolRepoMapper&#45;&gt;ToolModule</title>
<path fill="none" stroke="black" d="M3050.8,-115.03C3050.8,-115.03 3050.8,-140.78 3050.8,-140.78"/>
<polygon fill="black" stroke="black" points="3047.3,-140.78 3050.8,-150.78 3054.3,-140.78 3047.3,-140.78"/>
</g>
<!-- ExternalToolService -->
<g id="node24" class="node">
<title>ExternalToolService</title>
<ellipse fill="#fdb462" stroke="black" cx="2920" cy="-104" rx="90.89" ry="18"/>
<text text-anchor="middle" x="2920" y="-99.8" font-family="Times,serif" font-size="14.00">ExternalToolService</text>
</g>
<!-- ExternalToolService&#45;&gt;ToolModule -->
<g id="edge23" class="edge">
<title>ExternalToolService&#45;&gt;ToolModule</title>
<path fill="none" stroke="black" d="M2998.97,-113.04C2998.97,-113.04 2998.97,-140.96 2998.97,-140.96"/>
<polygon fill="black" stroke="black" points="2995.47,-140.96 2998.97,-150.96 3002.47,-140.96 2995.47,-140.96"/>
</g>
<!-- ExternalToolServiceMapper -->
<g id="node25" class="node">
<title>ExternalToolServiceMapper</title>
<ellipse fill="#fdb462" stroke="black" cx="2690" cy="-104" rx="120.95" ry="18"/>
<text text-anchor="middle" x="2690" y="-99.8" font-family="Times,serif" font-size="14.00">ExternalToolServiceMapper</text>
</g>
<!-- ExternalToolServiceMapper&#45;&gt;ToolModule -->
<g id="edge24" class="edge">
<title>ExternalToolServiceMapper&#45;&gt;ToolModule</title>
<path fill="none" stroke="black" d="M2738.38,-120.65C2738.38,-135.19 2738.38,-154 2738.38,-154 2738.38,-154 2976.97,-154 2976.97,-154"/>
<polygon fill="black" stroke="black" points="2976.97,-157.5 2986.97,-154 2976.97,-150.5 2976.97,-157.5"/>
</g>
<!-- ExternalToolSortingMapper -->
<g id="node26" class="node">
<title>ExternalToolSortingMapper</title>
<ellipse fill="#fdb462" stroke="black" cx="2431" cy="-104" rx="120.41" ry="18"/>
<text text-anchor="middle" x="2431" y="-99.8" font-family="Times,serif" font-size="14.00">ExternalToolSortingMapper</text>
</g>
<!-- ExternalToolSortingMapper&#45;&gt;ToolModule -->
<g id="edge25" class="edge">
<title>ExternalToolSortingMapper&#45;&gt;ToolModule</title>
<path fill="none" stroke="black" d="M2512.67,-117.39C2512.67,-132.8 2512.67,-156 2512.67,-156 2512.67,-156 2976.78,-156 2976.78,-156"/>
<polygon fill="black" stroke="black" points="2976.78,-159.5 2986.78,-156 2976.78,-152.5 2976.78,-159.5"/>
</g>
<!-- ExternalToolValidationService -->
<g id="node27" class="node">
<title>ExternalToolValidationService</title>
<ellipse fill="#fdb462" stroke="black" cx="2161" cy="-104" rx="131.92" ry="18"/>
<text text-anchor="middle" x="2161" y="-99.8" font-family="Times,serif" font-size="14.00">ExternalToolValidationService</text>
</g>
<!-- ExternalToolValidationService&#45;&gt;ToolModule -->
<g id="edge26" class="edge">
<title>ExternalToolValidationService&#45;&gt;ToolModule</title>
<path fill="none" stroke="black" d="M2257.52,-116.25C2257.52,-132.19 2257.52,-158 2257.52,-158 2257.52,-158 2976.81,-158 2976.81,-158"/>
<polygon fill="black" stroke="black" points="2976.81,-161.5 2986.81,-158 2976.81,-154.5 2976.81,-161.5"/>
</g>
<!-- ExternalToolVersionService -->
<g id="node28" class="node">
<title>ExternalToolVersionService</title>
<ellipse fill="#fdb462" stroke="black" cx="1890" cy="-104" rx="121.53" ry="18"/>
<text text-anchor="middle" x="1890" y="-99.8" font-family="Times,serif" font-size="14.00">ExternalToolVersionService</text>
</g>
<!-- ExternalToolVersionService&#45;&gt;ToolModule -->
<g id="edge27" class="edge">
<title>ExternalToolVersionService&#45;&gt;ToolModule</title>
<path fill="none" stroke="black" d="M1890,-122.03C1890,-138.4 1890,-160 1890,-160 1890,-160 2976.7,-160 2976.7,-160"/>
<polygon fill="black" stroke="black" points="2976.7,-163.5 2986.7,-160 2976.7,-156.5 2976.7,-163.5"/>
</g>
<!-- Lti11EncryptionService -->
<g id="node29" class="node">
<title>Lti11EncryptionService</title>
<ellipse fill="#fdb462" stroke="black" cx="1647" cy="-104" rx="103.65" ry="18"/>
<text text-anchor="middle" x="1647" y="-99.8" font-family="Times,serif" font-size="14.00">Lti11EncryptionService</text>
</g>
<!-- Lti11EncryptionService&#45;&gt;ToolModule -->
<g id="edge28" class="edge">
<title>Lti11EncryptionService&#45;&gt;ToolModule</title>
<path fill="none" stroke="black" d="M1647,-122.02C1647,-139.37 1647,-163 1647,-163 1647,-163 2976.71,-163 2976.71,-163"/>
<polygon fill="black" stroke="black" points="2976.71,-166.5 2986.71,-163 2976.71,-159.5 2976.71,-166.5"/>
</g>
<!-- Lti11ToolLaunchStrategy -->
<g id="node30" class="node">
<title>Lti11ToolLaunchStrategy</title>
<ellipse fill="#fdb462" stroke="black" cx="1414" cy="-104" rx="111.18" ry="18"/>
<text text-anchor="middle" x="1414" y="-99.8" font-family="Times,serif" font-size="14.00">Lti11ToolLaunchStrategy</text>
</g>
<!-- Lti11ToolLaunchStrategy&#45;&gt;ToolModule -->
<g id="edge29" class="edge">
<title>Lti11ToolLaunchStrategy&#45;&gt;ToolModule</title>
<path fill="none" stroke="black" d="M1414,-122.3C1414,-140.27 1414,-165 1414,-165 1414,-165 2976.78,-165 2976.78,-165"/>
<polygon fill="black" stroke="black" points="2976.78,-168.5 2986.78,-165 2976.78,-161.5 2976.78,-168.5"/>
</g>
<!-- OAuth2ToolLaunchStrategy -->
<g id="node31" class="node">
<title>OAuth2ToolLaunchStrategy</title>
<ellipse fill="#fdb462" stroke="black" cx="1163" cy="-104" rx="121.55" ry="18"/>
<text text-anchor="middle" x="1163" y="-99.8" font-family="Times,serif" font-size="14.00">OAuth2ToolLaunchStrategy</text>
</g>
<!-- OAuth2ToolLaunchStrategy&#45;&gt;ToolModule -->
<g id="edge30" class="edge">
<title>OAuth2ToolLaunchStrategy&#45;&gt;ToolModule</title>
<path fill="none" stroke="black" d="M1163,-122.22C1163,-140.83 1163,-167 1163,-167 1163,-167 2976.6,-167 2976.6,-167"/>
<polygon fill="black" stroke="black" points="2976.6,-170.5 2986.6,-167 2976.6,-163.5 2976.6,-170.5"/>
</g>
<!-- SchoolExternalToolRepo -->
<g id="node32" class="node">
<title>SchoolExternalToolRepo</title>
<ellipse fill="#fdb462" stroke="black" cx="914" cy="-104" rx="109.39" ry="18"/>
<text text-anchor="middle" x="914" y="-99.8" font-family="Times,serif" font-size="14.00">SchoolExternalToolRepo</text>
</g>
<!-- SchoolExternalToolRepo&#45;&gt;ToolModule -->
<g id="edge31" class="edge">
<title>SchoolExternalToolRepo&#45;&gt;ToolModule</title>
<path fill="none" stroke="black" d="M914,-122.11C914,-141.34 914,-169 914,-169 914,-169 2976.77,-169 2976.77,-169"/>
<polygon fill="black" stroke="black" points="2976.77,-172.5 2986.77,-169 2976.77,-165.5 2976.77,-172.5"/>
</g>
<!-- SchoolExternalToolService -->
<g id="node33" class="node">
<title>SchoolExternalToolService</title>
<ellipse fill="#fdb462" stroke="black" cx="669" cy="-104" rx="117.54" ry="18"/>
<text text-anchor="middle" x="669" y="-99.8" font-family="Times,serif" font-size="14.00">SchoolExternalToolService</text>
</g>
<!-- SchoolExternalToolService&#45;&gt;ToolModule -->
<g id="edge32" class="edge">
<title>SchoolExternalToolService&#45;&gt;ToolModule</title>
<path fill="none" stroke="black" d="M669,-122.22C669,-142.37 669,-172 669,-172 669,-172 2977,-172 2977,-172"/>
<polygon fill="black" stroke="black" points="2977.01,-175.5 2987,-172 2977,-168.5 2977.01,-175.5"/>
</g>
<!-- SchoolExternalToolValidationService -->
<g id="node34" class="node">
<title>SchoolExternalToolValidationService</title>
<ellipse fill="#fdb462" stroke="black" cx="375" cy="-104" rx="158.57" ry="18"/>
<text text-anchor="middle" x="375" y="-99.8" font-family="Times,serif" font-size="14.00">SchoolExternalToolValidationService</text>
</g>
<!-- SchoolExternalToolValidationService&#45;&gt;ToolModule -->
<g id="edge33" class="edge">
<title>SchoolExternalToolValidationService&#45;&gt;ToolModule</title>
<path fill="none" stroke="black" d="M375,-122.03C375,-142.77 375,-174 375,-174 375,-174 2976.95,-174 2976.95,-174"/>
<polygon fill="black" stroke="black" points="2976.95,-177.5 2986.95,-174 2976.95,-170.5 2976.95,-177.5"/>
</g>
<!-- ToolLaunchService -->
<g id="node35" class="node">
<title>ToolLaunchService</title>
<ellipse fill="#fdb462" stroke="black" cx="111" cy="-104" rx="87.38" ry="18"/>
<text text-anchor="middle" x="111" y="-99.8" font-family="Times,serif" font-size="14.00">ToolLaunchService</text>
</g>
<!-- ToolLaunchService&#45;&gt;ToolModule -->
<g id="edge34" class="edge">
<title>ToolLaunchService&#45;&gt;ToolModule</title>
<path fill="none" stroke="black" d="M111,-122.17C111,-143.5 111,-176 111,-176 111,-176 2976.76,-176 2976.76,-176"/>
<polygon fill="black" stroke="black" points="2976.76,-179.5 2986.76,-176 2976.76,-172.5 2976.76,-179.5"/>
</g>
</g>
</svg>
