<?xml version="1.0" encoding="UTF-8" standalone="no"?>
<!DOCTYPE svg PUBLIC "-//W3C//DTD SVG 1.1//EN"
 "http://www.w3.org/Graphics/SVG/1.1/DTD/svg11.dtd">
<!-- Generated by graphviz version 2.47.0 (20210316.0004)
 -->
<!-- Title: dependencies Pages: 1 -->
<svg width="5681pt" height="284pt"
 viewBox="0.00 0.00 5681.00 284.00" xmlns="http://www.w3.org/2000/svg" xmlns:xlink="http://www.w3.org/1999/xlink">
<g id="graph0" class="graph" transform="scale(1 1) rotate(0) translate(4 280)">
<title>dependencies</title>
<polygon fill="white" stroke="transparent" points="-4,4 -4,-280 5677,-280 5677,4 -4,4"/>
<text text-anchor="start" x="2815.51" y="-42.4" font-family="Times-12" font-weight="bold" font-size="14.00">Legend</text>
<polygon fill="#ffffb3" stroke="transparent" points="2602.5,-10 2602.5,-30 2622.5,-30 2622.5,-10 2602.5,-10"/>
<text text-anchor="start" x="2626.13" y="-15.4" font-family="Times-12" font-size="14.00"> &#160;Declarations</text>
<polygon fill="#8dd3c7" stroke="transparent" points="2715.5,-10 2715.5,-30 2735.5,-30 2735.5,-10 2715.5,-10"/>
<text text-anchor="start" x="2739.23" y="-15.4" font-family="Times-12" font-size="14.00"> &#160;Module</text>
<polygon fill="#80b1d3" stroke="transparent" points="2801.5,-10 2801.5,-30 2821.5,-30 2821.5,-10 2801.5,-10"/>
<text text-anchor="start" x="2825.28" y="-15.4" font-family="Times-12" font-size="14.00"> &#160;Bootstrap</text>
<polygon fill="#fdb462" stroke="transparent" points="2898.5,-10 2898.5,-30 2918.5,-30 2918.5,-10 2898.5,-10"/>
<text text-anchor="start" x="2922.17" y="-15.4" font-family="Times-12" font-size="14.00"> &#160;Providers</text>
<polygon fill="#fb8072" stroke="transparent" points="2994.5,-10 2994.5,-30 3014.5,-30 3014.5,-10 2994.5,-10"/>
<text text-anchor="start" x="3018.23" y="-15.4" font-family="Times-12" font-size="14.00"> &#160;Exports</text>
<g id="clust1" class="cluster">
<title>cluster_ToolModule</title>
<polygon fill="none" stroke="black" stroke-dasharray="1,5" points="8,-70 8,-268 5665,-268 5665,-70 8,-70"/>
</g>
<g id="clust3" class="cluster">
<title>cluster_ToolModule_imports</title>
<polygon fill="none" stroke="black" points="4953,-78 4953,-130 5657,-130 5657,-78 4953,-78"/>
</g>
<g id="clust6" class="cluster">
<title>cluster_ToolModule_providers</title>
<polygon fill="none" stroke="black" points="16,-78 16,-130 4945,-130 4945,-78 16,-78"/>
</g>
<g id="clust4" class="cluster">
<title>cluster_ToolModule_exports</title>
<polygon fill="none" stroke="black" points="2094,-208 2094,-260 4064,-260 4064,-208 2094,-208"/>
</g>
<!-- EncryptionModule -->
<g id="node1" class="node">
<title>EncryptionModule</title>
<polygon fill="#8dd3c7" stroke="black" points="5648.76,-122 5645.76,-126 5624.76,-126 5621.76,-122 5527.24,-122 5527.24,-86 5648.76,-86 5648.76,-122"/>
<text text-anchor="middle" x="5588" y="-99.8" font-family="Times,serif" font-size="14.00">EncryptionModule</text>
</g>
<!-- ToolModule -->
<g id="node6" class="node">
<title>ToolModule</title>
<polygon fill="#8dd3c7" stroke="black" points="3100.99,-187 3097.99,-191 3076.99,-191 3073.99,-187 3015.01,-187 3015.01,-151 3100.99,-151 3100.99,-187"/>
<text text-anchor="middle" x="3058" y="-164.8" font-family="Times,serif" font-size="14.00">ToolModule</text>
</g>
<!-- EncryptionModule&#45;&gt;ToolModule -->
<g id="edge1" class="edge">
<title>EncryptionModule&#45;&gt;ToolModule</title>
<path fill="none" stroke="black" d="M5588,-122.04C5588,-143.66 5588,-177 5588,-177 5588,-177 3111.12,-177 3111.12,-177"/>
<polygon fill="black" stroke="black" points="3111.12,-173.5 3101.12,-177 3111.12,-180.5 3111.12,-173.5"/>
</g>
<!-- LoggerModule -->
<g id="node2" class="node">
<title>LoggerModule</title>
<polygon fill="#8dd3c7" stroke="black" points="5508.98,-122 5505.98,-126 5484.98,-126 5481.98,-122 5409.02,-122 5409.02,-86 5508.98,-86 5508.98,-122"/>
<text text-anchor="middle" x="5459" y="-99.8" font-family="Times,serif" font-size="14.00">LoggerModule</text>
</g>
<!-- LoggerModule&#45;&gt;ToolModule -->
<g id="edge2" class="edge">
<title>LoggerModule&#45;&gt;ToolModule</title>
<path fill="none" stroke="black" d="M5459,-122.28C5459,-143.32 5459,-175 5459,-175 5459,-175 3111.21,-175 3111.21,-175"/>
<polygon fill="black" stroke="black" points="3111.21,-171.5 3101.21,-175 3111.21,-178.5 3111.21,-171.5"/>
</g>
<!-- OauthProviderServiceModule -->
<g id="node3" class="node">
<title>OauthProviderServiceModule</title>
<polygon fill="#8dd3c7" stroke="black" points="5390.95,-122 5387.95,-126 5366.95,-126 5363.95,-122 5207.05,-122 5207.05,-86 5390.95,-86 5390.95,-122"/>
<text text-anchor="middle" x="5299" y="-99.8" font-family="Times,serif" font-size="14.00">OauthProviderServiceModule</text>
</g>
<!-- OauthProviderServiceModule&#45;&gt;ToolModule -->
<g id="edge3" class="edge">
<title>OauthProviderServiceModule&#45;&gt;ToolModule</title>
<path fill="none" stroke="black" d="M5299,-122.13C5299,-142.57 5299,-173 5299,-173 5299,-173 3111.26,-173 3111.26,-173"/>
<polygon fill="black" stroke="black" points="3111.26,-169.5 3101.26,-173 3111.26,-176.5 3111.26,-169.5"/>
</g>
<!-- PseudonymModule -->
<g id="node4" class="node">
<title>PseudonymModule</title>
<polygon fill="#8dd3c7" stroke="black" points="5189.38,-122 5186.38,-126 5165.38,-126 5162.38,-122 5064.62,-122 5064.62,-86 5189.38,-86 5189.38,-122"/>
<text text-anchor="middle" x="5127" y="-99.8" font-family="Times,serif" font-size="14.00">PseudonymModule</text>
</g>
<!-- PseudonymModule&#45;&gt;ToolModule -->
<g id="edge4" class="edge">
<title>PseudonymModule&#45;&gt;ToolModule</title>
<path fill="none" stroke="black" d="M5127,-122.31C5127,-142.15 5127,-171 5127,-171 5127,-171 3111.21,-171 3111.21,-171"/>
<polygon fill="black" stroke="black" points="3111.21,-167.5 3101.21,-171 3111.21,-174.5 3111.21,-167.5"/>
</g>
<!-- UserModule -->
<g id="node5" class="node">
<title>UserModule</title>
<polygon fill="#8dd3c7" stroke="black" points="5046.98,-122 5043.98,-126 5022.98,-126 5019.98,-122 4961.02,-122 4961.02,-86 5046.98,-86 5046.98,-122"/>
<text text-anchor="middle" x="5004" y="-99.8" font-family="Times,serif" font-size="14.00">UserModule</text>
</g>
<!-- UserModule&#45;&gt;ToolModule -->
<g id="edge5" class="edge">
<title>UserModule&#45;&gt;ToolModule</title>
<path fill="none" stroke="black" d="M5004,-122.17C5004,-141.09 5004,-168 5004,-168 5004,-168 3111.37,-168 3111.37,-168"/>
<polygon fill="black" stroke="black" points="3111.37,-164.5 3101.37,-168 3111.37,-171.5 3111.37,-164.5"/>
</g>
<!-- CommonToolService  -->
<g id="node7" class="node">
<title>CommonToolService </title>
<polygon fill="#fb8072" stroke="black" points="4056.04,-252 3915.96,-252 3915.96,-216 4056.04,-216 4056.04,-252"/>
<text text-anchor="middle" x="3986" y="-229.8" font-family="Times,serif" font-size="14.00">CommonToolService </text>
</g>
<!-- ToolModule&#45;&gt;CommonToolService  -->
<g id="edge6" class="edge">
<title>ToolModule&#45;&gt;CommonToolService </title>
<path fill="none" stroke="black" stroke-dasharray="5,2" d="M3101.28,-179C3278.15,-179 3936.75,-179 3936.75,-179 3936.75,-179 3936.75,-205.99 3936.75,-205.99"/>
<polygon fill="black" stroke="black" points="3933.25,-205.99 3936.75,-215.99 3940.25,-205.99 3933.25,-205.99"/>
</g>
<!-- CommonToolValidationService  -->
<g id="node8" class="node">
<title>CommonToolValidationService </title>
<polygon fill="#fb8072" stroke="black" points="3897.64,-252 3698.36,-252 3698.36,-216 3897.64,-216 3897.64,-252"/>
<text text-anchor="middle" x="3798" y="-229.8" font-family="Times,serif" font-size="14.00">CommonToolValidationService </text>
</g>
<!-- ToolModule&#45;&gt;CommonToolValidationService  -->
<g id="edge7" class="edge">
<title>ToolModule&#45;&gt;CommonToolValidationService </title>
<path fill="none" stroke="black" stroke-dasharray="5,2" d="M3101.05,-181C3245.88,-181 3706.45,-181 3706.45,-181 3706.45,-181 3706.45,-205.76 3706.45,-205.76"/>
<polygon fill="black" stroke="black" points="3702.95,-205.76 3706.45,-215.76 3709.95,-205.76 3702.95,-205.76"/>
</g>
<!-- ContextExternalToolService  -->
<g id="node9" class="node">
<title>ContextExternalToolService </title>
<polygon fill="#fb8072" stroke="black" points="3680.68,-252 3501.32,-252 3501.32,-216 3680.68,-216 3680.68,-252"/>
<text text-anchor="middle" x="3591" y="-229.8" font-family="Times,serif" font-size="14.00">ContextExternalToolService </text>
</g>
<!-- ToolModule&#45;&gt;ContextExternalToolService  -->
<g id="edge8" class="edge">
<title>ToolModule&#45;&gt;ContextExternalToolService </title>
<path fill="none" stroke="black" stroke-dasharray="5,2" d="M3101.17,-183C3228.06,-183 3591,-183 3591,-183 3591,-183 3591,-205.88 3591,-205.88"/>
<polygon fill="black" stroke="black" points="3587.5,-205.88 3591,-215.88 3594.5,-205.88 3587.5,-205.88"/>
</g>
<!-- ContextExternalToolValidationService  -->
<g id="node10" class="node">
<title>ContextExternalToolValidationService </title>
<polygon fill="#fb8072" stroke="black" points="3483.28,-252 3244.72,-252 3244.72,-216 3483.28,-216 3483.28,-252"/>
<text text-anchor="middle" x="3364" y="-229.8" font-family="Times,serif" font-size="14.00">ContextExternalToolValidationService </text>
</g>
<!-- ToolModule&#45;&gt;ContextExternalToolValidationService  -->
<g id="edge9" class="edge">
<title>ToolModule&#45;&gt;ContextExternalToolValidationService </title>
<path fill="none" stroke="black" stroke-dasharray="5,2" d="M3101.08,-185C3170.4,-185 3298.99,-185 3298.99,-185 3298.99,-185 3298.99,-205.75 3298.99,-205.75"/>
<polygon fill="black" stroke="black" points="3295.49,-205.75 3298.99,-215.75 3302.49,-205.75 3295.49,-205.75"/>
</g>
<!-- ExternalToolRepoMapper  -->
<g id="node11" class="node">
<title>ExternalToolRepoMapper </title>
<polygon fill="#fb8072" stroke="black" points="3226.45,-252 3059.55,-252 3059.55,-216 3226.45,-216 3226.45,-252"/>
<text text-anchor="middle" x="3143" y="-229.8" font-family="Times,serif" font-size="14.00">ExternalToolRepoMapper </text>
</g>
<!-- ToolModule&#45;&gt;ExternalToolRepoMapper  -->
<g id="edge10" class="edge">
<title>ToolModule&#45;&gt;ExternalToolRepoMapper </title>
<path fill="none" stroke="black" stroke-dasharray="5,2" d="M3080.39,-187.11C3080.39,-187.11 3080.39,-205.99 3080.39,-205.99"/>
<polygon fill="black" stroke="black" points="3076.89,-205.99 3080.39,-215.99 3083.89,-205.99 3076.89,-205.99"/>
</g>
<!-- ExternalToolService  -->
<g id="node12" class="node">
<title>ExternalToolService </title>
<polygon fill="#fb8072" stroke="black" points="3041.84,-252 2906.16,-252 2906.16,-216 3041.84,-216 3041.84,-252"/>
<text text-anchor="middle" x="2974" y="-229.8" font-family="Times,serif" font-size="14.00">ExternalToolService </text>
</g>
<!-- ToolModule&#45;&gt;ExternalToolService  -->
<g id="edge11" class="edge">
<title>ToolModule&#45;&gt;ExternalToolService </title>
<path fill="none" stroke="black" stroke-dasharray="5,2" d="M3028.34,-187.11C3028.34,-187.11 3028.34,-205.99 3028.34,-205.99"/>
<polygon fill="black" stroke="black" points="3024.84,-205.99 3028.34,-215.99 3031.84,-205.99 3024.84,-205.99"/>
</g>
<!-- ExternalToolValidationService  -->
<g id="node13" class="node">
<title>ExternalToolValidationService </title>
<polygon fill="#fb8072" stroke="black" points="2888.44,-252 2693.56,-252 2693.56,-216 2888.44,-216 2888.44,-252"/>
<text text-anchor="middle" x="2791" y="-229.8" font-family="Times,serif" font-size="14.00">ExternalToolValidationService </text>
</g>
<!-- ToolModule&#45;&gt;ExternalToolValidationService  -->
<g id="edge12" class="edge">
<title>ToolModule&#45;&gt;ExternalToolValidationService </title>
<path fill="none" stroke="black" stroke-dasharray="5,2" d="M3014.94,-185C2945.66,-185 2817.14,-185 2817.14,-185 2817.14,-185 2817.14,-205.75 2817.14,-205.75"/>
<polygon fill="black" stroke="black" points="2813.64,-205.75 2817.14,-215.75 2820.64,-205.75 2813.64,-205.75"/>
</g>
<!-- SchoolExternalToolService  -->
<g id="node14" class="node">
<title>SchoolExternalToolService </title>
<polygon fill="#fb8072" stroke="black" points="2676.23,-252 2501.77,-252 2501.77,-216 2676.23,-216 2676.23,-252"/>
<text text-anchor="middle" x="2589" y="-229.8" font-family="Times,serif" font-size="14.00">SchoolExternalToolService </text>
</g>
<!-- ToolModule&#45;&gt;SchoolExternalToolService  -->
<g id="edge13" class="edge">
<title>ToolModule&#45;&gt;SchoolExternalToolService </title>
<path fill="none" stroke="black" stroke-dasharray="5,2" d="M3014.72,-183C2898.61,-183 2589,-183 2589,-183 2589,-183 2589,-205.88 2589,-205.88"/>
<polygon fill="black" stroke="black" points="2585.5,-205.88 2589,-215.88 2592.5,-205.88 2585.5,-205.88"/>
</g>
<!-- SchoolExternalToolValidationService  -->
<g id="node15" class="node">
<title>SchoolExternalToolValidationService </title>
<polygon fill="#fb8072" stroke="black" points="2483.83,-252 2250.17,-252 2250.17,-216 2483.83,-216 2483.83,-252"/>
<text text-anchor="middle" x="2367" y="-229.8" font-family="Times,serif" font-size="14.00">SchoolExternalToolValidationService </text>
</g>
<!-- ToolModule&#45;&gt;SchoolExternalToolValidationService  -->
<g id="edge14" class="edge">
<title>ToolModule&#45;&gt;SchoolExternalToolValidationService </title>
<path fill="none" stroke="black" stroke-dasharray="5,2" d="M3014.74,-181C2879.87,-181 2476.06,-181 2476.06,-181 2476.06,-181 2476.06,-205.76 2476.06,-205.76"/>
<polygon fill="black" stroke="black" points="2472.56,-205.76 2476.06,-215.76 2479.56,-205.76 2472.56,-205.76"/>
</g>
<!-- ToolLaunchService  -->
<g id="node16" class="node">
<title>ToolLaunchService </title>
<polygon fill="#fb8072" stroke="black" points="2231.9,-252 2102.1,-252 2102.1,-216 2231.9,-216 2231.9,-252"/>
<text text-anchor="middle" x="2167" y="-229.8" font-family="Times,serif" font-size="14.00">ToolLaunchService </text>
</g>
<!-- ToolModule&#45;&gt;ToolLaunchService  -->
<g id="edge15" class="edge">
<title>ToolModule&#45;&gt;ToolLaunchService </title>
<path fill="none" stroke="black" stroke-dasharray="5,2" d="M3014.93,-179C2843.47,-179 2218.63,-179 2218.63,-179 2218.63,-179 2218.63,-205.99 2218.63,-205.99"/>
<polygon fill="black" stroke="black" points="2215.13,-205.99 2218.63,-215.99 2222.13,-205.99 2215.13,-205.99"/>
</g>
<!-- BasicToolLaunchStrategy -->
<g id="node17" class="node">
<title>BasicToolLaunchStrategy</title>
<ellipse fill="#fdb462" stroke="black" cx="4825" cy="-104" rx="111.74" ry="18"/>
<text text-anchor="middle" x="4825" y="-99.8" font-family="Times,serif" font-size="14.00">BasicToolLaunchStrategy</text>
</g>
<!-- BasicToolLaunchStrategy&#45;&gt;ToolModule -->
<g id="edge16" class="edge">
<title>BasicToolLaunchStrategy&#45;&gt;ToolModule</title>
<path fill="none" stroke="black" d="M4825,-122.27C4825,-140.56 4825,-166 4825,-166 4825,-166 3111.24,-166 3111.24,-166"/>
<polygon fill="black" stroke="black" points="3111.24,-162.5 3101.24,-166 3111.24,-169.5 3111.24,-162.5"/>
</g>
<!-- CommonToolService -->
<g id="node18" class="node">
<title>CommonToolService</title>
<ellipse fill="#fdb462" stroke="black" cx="4601" cy="-104" rx="94.36" ry="18"/>
<text text-anchor="middle" x="4601" y="-99.8" font-family="Times,serif" font-size="14.00">CommonToolService</text>
</g>
<!-- CommonToolService&#45;&gt;ToolModule -->
<g id="edge17" class="edge">
<title>CommonToolService&#45;&gt;ToolModule</title>
<path fill="none" stroke="black" d="M4601,-122C4601,-139.68 4601,-164 4601,-164 4601,-164 3111.29,-164 3111.29,-164"/>
<polygon fill="black" stroke="black" points="3111.29,-160.5 3101.29,-164 3111.29,-167.5 3111.29,-160.5"/>
</g>
<!-- CommonToolValidationService -->
<g id="node19" class="node">
<title>CommonToolValidationService</title>
<ellipse fill="#fdb462" stroke="black" cx="4354" cy="-104" rx="134.89" ry="18"/>
<text text-anchor="middle" x="4354" y="-99.8" font-family="Times,serif" font-size="14.00">CommonToolValidationService</text>
</g>
<!-- CommonToolValidationService&#45;&gt;ToolModule -->
<g id="edge18" class="edge">
<title>CommonToolValidationService&#45;&gt;ToolModule</title>
<path fill="none" stroke="black" d="M4354,-122.03C4354,-139.06 4354,-162 4354,-162 4354,-162 3111.12,-162 3111.12,-162"/>
<polygon fill="black" stroke="black" points="3111.12,-158.5 3101.12,-162 3111.12,-165.5 3111.12,-158.5"/>
</g>
<!-- ContextExternalToolRepo -->
<g id="node20" class="node">
<title>ContextExternalToolRepo</title>
<ellipse fill="#fdb462" stroke="black" cx="4088" cy="-104" rx="112.9" ry="18"/>
<text text-anchor="middle" x="4088" y="-99.8" font-family="Times,serif" font-size="14.00">ContextExternalToolRepo</text>
</g>
<!-- ContextExternalToolRepo&#45;&gt;ToolModule -->
<g id="edge19" class="edge">
<title>ContextExternalToolRepo&#45;&gt;ToolModule</title>
<path fill="none" stroke="black" d="M4015.53,-117.84C4015.53,-134.43 4015.53,-160 4015.53,-160 4015.53,-160 3111,-160 3111,-160"/>
<polygon fill="black" stroke="black" points="3111,-156.5 3101,-160 3111,-163.5 3111,-156.5"/>
</g>
<!-- ContextExternalToolService -->
<g id="node21" class="node">
<title>ContextExternalToolService</title>
<ellipse fill="#fdb462" stroke="black" cx="3836" cy="-104" rx="121.55" ry="18"/>
<text text-anchor="middle" x="3836" y="-99.8" font-family="Times,serif" font-size="14.00">ContextExternalToolService</text>
</g>
<!-- ContextExternalToolService&#45;&gt;ToolModule -->
<g id="edge20" class="edge">
<title>ContextExternalToolService&#45;&gt;ToolModule</title>
<path fill="none" stroke="black" d="M3806.02,-121.68C3806.02,-137.43 3806.02,-158 3806.02,-158 3806.02,-158 3111.18,-158 3111.18,-158"/>
<polygon fill="black" stroke="black" points="3111.18,-154.5 3101.18,-158 3111.18,-161.5 3111.18,-154.5"/>
</g>
<!-- ContextExternalToolValidationService -->
<g id="node22" class="node">
<title>ContextExternalToolValidationService</title>
<ellipse fill="#fdb462" stroke="black" cx="3534" cy="-104" rx="162.08" ry="18"/>
<text text-anchor="middle" x="3534" y="-99.8" font-family="Times,serif" font-size="14.00">ContextExternalToolValidationService</text>
</g>
<!-- ContextExternalToolValidationService&#45;&gt;ToolModule -->
<g id="edge21" class="edge">
<title>ContextExternalToolValidationService&#45;&gt;ToolModule</title>
<path fill="none" stroke="black" d="M3427.55,-117.66C3427.55,-133.07 3427.55,-156 3427.55,-156 3427.55,-156 3111.12,-156 3111.12,-156"/>
<polygon fill="black" stroke="black" points="3111.12,-152.5 3101.12,-156 3111.12,-159.5 3111.12,-152.5"/>
</g>
<!-- ExternalToolRepo -->
<g id="node23" class="node">
<title>ExternalToolRepo</title>
<ellipse fill="#fdb462" stroke="black" cx="3271" cy="-104" rx="82.24" ry="18"/>
<text text-anchor="middle" x="3271" y="-99.8" font-family="Times,serif" font-size="14.00">ExternalToolRepo</text>
</g>
<!-- ExternalToolRepo&#45;&gt;ToolModule -->
<g id="edge22" class="edge">
<title>ExternalToolRepo&#45;&gt;ToolModule</title>
<path fill="none" stroke="black" d="M3207.43,-115.6C3207.43,-130.37 3207.43,-154 3207.43,-154 3207.43,-154 3111.22,-154 3111.22,-154"/>
<polygon fill="black" stroke="black" points="3111.22,-150.5 3101.22,-154 3111.22,-157.5 3111.22,-150.5"/>
</g>
<!-- ExternalToolRepoMapper -->
<g id="node24" class="node">
<title>ExternalToolRepoMapper</title>
<ellipse fill="#fdb462" stroke="black" cx="3058" cy="-104" rx="112.3" ry="18"/>
<text text-anchor="middle" x="3058" y="-99.8" font-family="Times,serif" font-size="14.00">ExternalToolRepoMapper</text>
</g>
<!-- ExternalToolRepoMapper&#45;&gt;ToolModule -->
<g id="edge23" class="edge">
<title>ExternalToolRepoMapper&#45;&gt;ToolModule</title>
<path fill="none" stroke="black" d="M3058,-122.11C3058,-122.11 3058,-140.99 3058,-140.99"/>
<polygon fill="black" stroke="black" points="3054.5,-140.99 3058,-150.99 3061.5,-140.99 3054.5,-140.99"/>
</g>
<!-- ExternalToolService -->
<g id="node25" class="node">
<title>ExternalToolService</title>
<ellipse fill="#fdb462" stroke="black" cx="2837" cy="-104" rx="90.89" ry="18"/>
<text text-anchor="middle" x="2837" y="-99.8" font-family="Times,serif" font-size="14.00">ExternalToolService</text>
</g>
<!-- ExternalToolService&#45;&gt;ToolModule -->
<g id="edge24" class="edge">
<title>ExternalToolService&#45;&gt;ToolModule</title>
<path fill="none" stroke="black" d="M2917.14,-112.71C2917.14,-127.03 2917.14,-154 2917.14,-154 2917.14,-154 3004.97,-154 3004.97,-154"/>
<polygon fill="black" stroke="black" points="3004.97,-157.5 3014.97,-154 3004.97,-150.5 3004.97,-157.5"/>
</g>
<!-- ExternalToolServiceMapper -->
<g id="node26" class="node">
<title>ExternalToolServiceMapper</title>
<ellipse fill="#fdb462" stroke="black" cx="2607" cy="-104" rx="120.95" ry="18"/>
<text text-anchor="middle" x="2607" y="-99.8" font-family="Times,serif" font-size="14.00">ExternalToolServiceMapper</text>
</g>
<!-- ExternalToolServiceMapper&#45;&gt;ToolModule -->
<g id="edge25" class="edge">
<title>ExternalToolServiceMapper&#45;&gt;ToolModule</title>
<path fill="none" stroke="black" d="M2710.88,-113.54C2710.88,-128.55 2710.88,-156 2710.88,-156 2710.88,-156 3004.74,-156 3004.74,-156"/>
<polygon fill="black" stroke="black" points="3004.74,-159.5 3014.74,-156 3004.74,-152.5 3004.74,-159.5"/>
</g>
<!-- ExternalToolSortingMapper -->
<g id="node27" class="node">
<title>ExternalToolSortingMapper</title>
<ellipse fill="#fdb462" stroke="black" cx="2348" cy="-104" rx="120.41" ry="18"/>
<text text-anchor="middle" x="2348" y="-99.8" font-family="Times,serif" font-size="14.00">ExternalToolSortingMapper</text>
</g>
<!-- ExternalToolSortingMapper&#45;&gt;ToolModule -->
<g id="edge26" class="edge">
<title>ExternalToolSortingMapper&#45;&gt;ToolModule</title>
<path fill="none" stroke="black" d="M2359.39,-121.98C2359.39,-137.69 2359.39,-158 2359.39,-158 2359.39,-158 3004.83,-158 3004.83,-158"/>
<polygon fill="black" stroke="black" points="3004.83,-161.5 3014.83,-158 3004.83,-154.5 3004.83,-161.5"/>
</g>
<!-- ExternalToolValidationService -->
<g id="node28" class="node">
<title>ExternalToolValidationService</title>
<ellipse fill="#fdb462" stroke="black" cx="2078" cy="-104" rx="131.92" ry="18"/>
<text text-anchor="middle" x="2078" y="-99.8" font-family="Times,serif" font-size="14.00">ExternalToolValidationService</text>
</g>
<!-- ExternalToolValidationService&#45;&gt;ToolModule -->
<g id="edge27" class="edge">
<title>ExternalToolValidationService&#45;&gt;ToolModule</title>
<path fill="none" stroke="black" d="M2155.88,-118.71C2155.88,-135.31 2155.88,-160 2155.88,-160 2155.88,-160 3004.79,-160 3004.79,-160"/>
<polygon fill="black" stroke="black" points="3004.79,-163.5 3014.79,-160 3004.79,-156.5 3004.79,-163.5"/>
</g>
<!-- ExternalToolVersionService -->
<g id="node29" class="node">
<title>ExternalToolVersionService</title>
<ellipse fill="#fdb462" stroke="black" cx="1807" cy="-104" rx="121.53" ry="18"/>
<text text-anchor="middle" x="1807" y="-99.8" font-family="Times,serif" font-size="14.00">ExternalToolVersionService</text>
</g>
<!-- ExternalToolVersionService&#45;&gt;ToolModule -->
<g id="edge28" class="edge">
<title>ExternalToolVersionService&#45;&gt;ToolModule</title>
<path fill="none" stroke="black" d="M1807,-122.03C1807,-139.06 1807,-162 1807,-162 1807,-162 3004.94,-162 3004.94,-162"/>
<polygon fill="black" stroke="black" points="3004.94,-165.5 3014.94,-162 3004.94,-158.5 3004.94,-165.5"/>
</g>
<!-- Lti11EncryptionService -->
<g id="node30" class="node">
<title>Lti11EncryptionService</title>
<ellipse fill="#fdb462" stroke="black" cx="1564" cy="-104" rx="103.65" ry="18"/>
<text text-anchor="middle" x="1564" y="-99.8" font-family="Times,serif" font-size="14.00">Lti11EncryptionService</text>
</g>
<!-- Lti11EncryptionService&#45;&gt;ToolModule -->
<g id="edge29" class="edge">
<title>Lti11EncryptionService&#45;&gt;ToolModule</title>
<path fill="none" stroke="black" d="M1564,-122C1564,-139.68 1564,-164 1564,-164 1564,-164 3004.9,-164 3004.9,-164"/>
<polygon fill="black" stroke="black" points="3004.9,-167.5 3014.9,-164 3004.9,-160.5 3004.9,-167.5"/>
</g>
<!-- Lti11ToolLaunchStrategy -->
<g id="node31" class="node">
<title>Lti11ToolLaunchStrategy</title>
<ellipse fill="#fdb462" stroke="black" cx="1331" cy="-104" rx="111.18" ry="18"/>
<text text-anchor="middle" x="1331" y="-99.8" font-family="Times,serif" font-size="14.00">Lti11ToolLaunchStrategy</text>
</g>
<!-- Lti11ToolLaunchStrategy&#45;&gt;ToolModule -->
<g id="edge30" class="edge">
<title>Lti11ToolLaunchStrategy&#45;&gt;ToolModule</title>
<path fill="none" stroke="black" d="M1331,-122.27C1331,-140.56 1331,-166 1331,-166 1331,-166 3004.88,-166 3004.88,-166"/>
<polygon fill="black" stroke="black" points="3004.88,-169.5 3014.88,-166 3004.88,-162.5 3004.88,-169.5"/>
</g>
<!-- PseudonymsRepo -->
<g id="node32" class="node">
<title>PseudonymsRepo</title>
<ellipse fill="#fdb462" stroke="black" cx="1121" cy="-104" rx="80.48" ry="18"/>
<text text-anchor="middle" x="1121" y="-99.8" font-family="Times,serif" font-size="14.00">PseudonymsRepo</text>
</g>
<!-- PseudonymsRepo&#45;&gt;ToolModule -->
<g id="edge31" class="edge">
<title>PseudonymsRepo&#45;&gt;ToolModule</title>
<path fill="none" stroke="black" d="M1121,-122.17C1121,-141.09 1121,-168 1121,-168 1121,-168 3004.83,-168 3004.83,-168"/>
<polygon fill="black" stroke="black" points="3004.83,-171.5 3014.83,-168 3004.83,-164.5 3004.83,-171.5"/>
</g>
<!-- SchoolExternalToolRepo -->
<g id="node33" class="node">
<title>SchoolExternalToolRepo</title>
<ellipse fill="#fdb462" stroke="black" cx="914" cy="-104" rx="109.39" ry="18"/>
<text text-anchor="middle" x="914" y="-99.8" font-family="Times,serif" font-size="14.00">SchoolExternalToolRepo</text>
</g>
<!-- SchoolExternalToolRepo&#45;&gt;ToolModule -->
<g id="edge32" class="edge">
<title>SchoolExternalToolRepo&#45;&gt;ToolModule</title>
<path fill="none" stroke="black" d="M914,-122.31C914,-142.15 914,-171 914,-171 914,-171 3004.69,-171 3004.69,-171"/>
<polygon fill="black" stroke="black" points="3004.69,-174.5 3014.69,-171 3004.69,-167.5 3004.69,-174.5"/>
</g>
<!-- SchoolExternalToolService -->
<g id="node34" class="node">
<title>SchoolExternalToolService</title>
<ellipse fill="#fdb462" stroke="black" cx="669" cy="-104" rx="117.54" ry="18"/>
<text text-anchor="middle" x="669" y="-99.8" font-family="Times,serif" font-size="14.00">SchoolExternalToolService</text>
</g>
<!-- SchoolExternalToolService&#45;&gt;ToolModule -->
<g id="edge33" class="edge">
<title>SchoolExternalToolService&#45;&gt;ToolModule</title>
<path fill="none" stroke="black" d="M669,-122.13C669,-142.57 669,-173 669,-173 669,-173 3004.75,-173 3004.75,-173"/>
<polygon fill="black" stroke="black" points="3004.75,-176.5 3014.75,-173 3004.75,-169.5 3004.75,-176.5"/>
</g>
<!-- SchoolExternalToolValidationService -->
<g id="node35" class="node">
<title>SchoolExternalToolValidationService</title>
<ellipse fill="#fdb462" stroke="black" cx="375" cy="-104" rx="158.57" ry="18"/>
<text text-anchor="middle" x="375" y="-99.8" font-family="Times,serif" font-size="14.00">SchoolExternalToolValidationService</text>
</g>
<!-- SchoolExternalToolValidationService&#45;&gt;ToolModule -->
<g id="edge34" class="edge">
<title>SchoolExternalToolValidationService&#45;&gt;ToolModule</title>
<path fill="none" stroke="black" d="M375,-122.28C375,-143.32 375,-175 375,-175 375,-175 3004.77,-175 3004.77,-175"/>
<polygon fill="black" stroke="black" points="3004.77,-178.5 3014.77,-175 3004.77,-171.5 3004.77,-178.5"/>
</g>
<!-- ToolLaunchService -->
<g id="node36" class="node">
<title>ToolLaunchService</title>
<ellipse fill="#fdb462" stroke="black" cx="111" cy="-104" rx="87.38" ry="18"/>
<text text-anchor="middle" x="111" y="-99.8" font-family="Times,serif" font-size="14.00">ToolLaunchService</text>
</g>
<!-- ToolLaunchService&#45;&gt;ToolModule -->
<g id="edge35" class="edge">
<title>ToolLaunchService&#45;&gt;ToolModule</title>
<path fill="none" stroke="black" d="M111,-122.04C111,-143.66 111,-177 111,-177 111,-177 3004.92,-177 3004.92,-177"/>
<polygon fill="black" stroke="black" points="3004.92,-180.5 3014.92,-177 3004.92,-173.5 3004.92,-180.5"/>
</g>
</g>
</svg>
