<?xml version="1.0" encoding="UTF-8" standalone="no"?>
<!DOCTYPE svg PUBLIC "-//W3C//DTD SVG 1.1//EN"
 "http://www.w3.org/Graphics/SVG/1.1/DTD/svg11.dtd">
<!-- Generated by graphviz version 2.47.0 (20210316.0004)
 -->
<!-- Title: dependencies Pages: 1 -->
<svg width="934pt" height="284pt"
 viewBox="0.00 0.00 934.00 284.00" xmlns="http://www.w3.org/2000/svg" xmlns:xlink="http://www.w3.org/1999/xlink">
<g id="graph0" class="graph" transform="scale(1 1) rotate(0) translate(4 280)">
<title>dependencies</title>
<polygon fill="white" stroke="transparent" points="-4,4 -4,-280 930,-280 930,4 -4,4"/>
<text text-anchor="start" x="442.01" y="-42.4" font-family="Times-12" font-weight="bold" font-size="14.00">Legend</text>
<polygon fill="#ffffb3" stroke="transparent" points="229,-10 229,-30 249,-30 249,-10 229,-10"/>
<text text-anchor="start" x="252.63" y="-15.4" font-family="Times-12" font-size="14.00"> &#160;Declarations</text>
<polygon fill="#8dd3c7" stroke="transparent" points="342,-10 342,-30 362,-30 362,-10 342,-10"/>
<text text-anchor="start" x="365.73" y="-15.4" font-family="Times-12" font-size="14.00"> &#160;Module</text>
<polygon fill="#80b1d3" stroke="transparent" points="428,-10 428,-30 448,-30 448,-10 428,-10"/>
<text text-anchor="start" x="451.78" y="-15.4" font-family="Times-12" font-size="14.00"> &#160;Bootstrap</text>
<polygon fill="#fdb462" stroke="transparent" points="525,-10 525,-30 545,-30 545,-10 525,-10"/>
<text text-anchor="start" x="548.67" y="-15.4" font-family="Times-12" font-size="14.00"> &#160;Providers</text>
<polygon fill="#fb8072" stroke="transparent" points="621,-10 621,-30 641,-30 641,-10 621,-10"/>
<text text-anchor="start" x="644.73" y="-15.4" font-family="Times-12" font-size="14.00"> &#160;Exports</text>
<g id="clust1" class="cluster">
<title>cluster_ToolModule</title>
<polygon fill="none" stroke="black" stroke-dasharray="1,5" points="8,-70 8,-268 918,-268 918,-70 8,-70"/>
</g>
<g id="clust4" class="cluster">
<title>cluster_ToolModule_exports</title>
<polygon fill="none" stroke="black" points="16,-208 16,-260 870,-260 870,-208 16,-208"/>
</g>
<g id="clust6" class="cluster">
<title>cluster_ToolModule_providers</title>
<polygon fill="none" stroke="black" points="706,-78 706,-130 910,-130 910,-78 706,-78"/>
</g>
<g id="clust3" class="cluster">
<title>cluster_ToolModule_imports</title>
<polygon fill="none" stroke="black" points="16,-78 16,-130 698,-130 698,-78 16,-78"/>
</g>
<!-- ContextExternalToolModule -->
<g id="node1" class="node">
<title>ContextExternalToolModule</title>
<polygon fill="#8dd3c7" stroke="black" points="689.75,-122 686.75,-126 665.75,-126 662.75,-122 512.25,-122 512.25,-86 689.75,-86 689.75,-122"/>
<text text-anchor="middle" x="601" y="-99.8" font-family="Times,serif" font-size="14.00">ContextExternalToolModule</text>
</g>
<!-- ToolModule -->
<g id="node5" class="node">
<title>ToolModule</title>
<polygon fill="#8dd3c7" stroke="black" points="473.99,-187 470.99,-191 449.99,-191 446.99,-187 388.01,-187 388.01,-151 473.99,-151 473.99,-187"/>
<text text-anchor="middle" x="431" y="-164.8" font-family="Times,serif" font-size="14.00">ToolModule</text>
</g>
<!-- ContextExternalToolModule&#45;&gt;ToolModule -->
<g id="edge1" class="edge">
<title>ContextExternalToolModule&#45;&gt;ToolModule</title>
<path fill="none" stroke="black" d="M517.25,-122.01C517.25,-138.05 517.25,-159 517.25,-159 517.25,-159 484.13,-159 484.13,-159"/>
<polygon fill="black" stroke="black" points="484.13,-155.5 474.13,-159 484.13,-162.5 484.13,-155.5"/>
</g>
<!-- ExternalToolModule -->
<g id="node2" class="node">
<title>ExternalToolModule</title>
<polygon fill="#8dd3c7" stroke="black" points="493.92,-122 490.92,-126 469.92,-126 466.92,-122 360.08,-122 360.08,-86 493.92,-86 493.92,-122"/>
<text text-anchor="middle" x="427" y="-99.8" font-family="Times,serif" font-size="14.00">ExternalToolModule</text>
</g>
<!-- ExternalToolModule&#45;&gt;ToolModule -->
<g id="edge2" class="edge">
<title>ExternalToolModule&#45;&gt;ToolModule</title>
<path fill="none" stroke="black" d="M431,-122.11C431,-122.11 431,-140.99 431,-140.99"/>
<polygon fill="black" stroke="black" points="427.5,-140.99 431,-150.99 434.5,-140.99 427.5,-140.99"/>
</g>
<!-- SchoolExternalToolModule -->
<g id="node3" class="node">
<title>SchoolExternalToolModule</title>
<polygon fill="#8dd3c7" stroke="black" points="342.3,-122 339.3,-126 318.3,-126 315.3,-122 169.7,-122 169.7,-86 342.3,-86 342.3,-122"/>
<text text-anchor="middle" x="256" y="-99.8" font-family="Times,serif" font-size="14.00">SchoolExternalToolModule</text>
</g>
<!-- SchoolExternalToolModule&#45;&gt;ToolModule -->
<g id="edge3" class="edge">
<title>SchoolExternalToolModule&#45;&gt;ToolModule</title>
<path fill="none" stroke="black" d="M258.12,-122.01C258.12,-138.05 258.12,-159 258.12,-159 258.12,-159 377.82,-159 377.82,-159"/>
<polygon fill="black" stroke="black" points="377.82,-162.5 387.82,-159 377.82,-155.5 377.82,-162.5"/>
</g>
<!-- ToolLaunchModule -->
<g id="node4" class="node">
<title>ToolLaunchModule</title>
<polygon fill="#8dd3c7" stroke="black" points="151.97,-122 148.97,-126 127.97,-126 124.97,-122 24.03,-122 24.03,-86 151.97,-86 151.97,-122"/>
<text text-anchor="middle" x="88" y="-99.8" font-family="Times,serif" font-size="14.00">ToolLaunchModule</text>
</g>
<!-- ToolLaunchModule&#45;&gt;ToolModule -->
<g id="edge4" class="edge">
<title>ToolLaunchModule&#45;&gt;ToolModule</title>
<path fill="none" stroke="black" d="M66.84,-122.27C66.84,-140.56 66.84,-166 66.84,-166 66.84,-166 377.8,-166 377.8,-166"/>
<polygon fill="black" stroke="black" points="377.8,-169.5 387.8,-166 377.8,-162.5 377.8,-169.5"/>
</g>
<!-- CommonToolService  -->
<g id="node6" class="node">
<title>CommonToolService </title>
<polygon fill="#fb8072" stroke="black" points="862.04,-252 721.96,-252 721.96,-216 862.04,-216 862.04,-252"/>
<text text-anchor="middle" x="792" y="-229.8" font-family="Times,serif" font-size="14.00">CommonToolService </text>
</g>
<!-- ToolModule&#45;&gt;CommonToolService  -->
<g id="edge5" class="edge">
<title>ToolModule&#45;&gt;CommonToolService </title>
<path fill="none" stroke="black" stroke-dasharray="5,2" d="M474.19,-173C570.01,-173 792,-173 792,-173 792,-173 792,-205.7 792,-205.7"/>
<polygon fill="black" stroke="black" points="788.5,-205.7 792,-215.7 795.5,-205.7 788.5,-205.7"/>
</g>
<!-- ContextExternalToolModule  -->
<g id="node7" class="node">
<title>ContextExternalToolModule </title>
<polygon fill="#fb8072" stroke="black" points="703.75,-252 522.25,-252 522.25,-216 703.75,-216 703.75,-252"/>
<text text-anchor="middle" x="613" y="-229.8" font-family="Times,serif" font-size="14.00">ContextExternalToolModule </text>
</g>
<!-- ToolModule&#45;&gt;ContextExternalToolModule  -->
<g id="edge6" class="edge">
<title>ToolModule&#45;&gt;ContextExternalToolModule </title>
<path fill="none" stroke="black" stroke-dasharray="5,2" d="M474.29,-180C526.15,-180 606.12,-180 606.12,-180 606.12,-180 606.12,-205.72 606.12,-205.72"/>
<polygon fill="black" stroke="black" points="602.63,-205.72 606.12,-215.72 609.63,-205.72 602.63,-205.72"/>
</g>
<!-- ExternalToolModule  -->
<g id="node8" class="node">
<title>ExternalToolModule </title>
<polygon fill="#fb8072" stroke="black" points="504.42,-252 367.58,-252 367.58,-216 504.42,-216 504.42,-252"/>
<text text-anchor="middle" x="436" y="-229.8" font-family="Times,serif" font-size="14.00">ExternalToolModule </text>
</g>
<!-- ToolModule&#45;&gt;ExternalToolModule  -->
<g id="edge7" class="edge">
<title>ToolModule&#45;&gt;ExternalToolModule </title>
<path fill="none" stroke="black" stroke-dasharray="5,2" d="M431,-187.11C431,-187.11 431,-205.99 431,-205.99"/>
<polygon fill="black" stroke="black" points="427.5,-205.99 431,-215.99 434.5,-205.99 427.5,-205.99"/>
</g>
<!-- SchoolExternalToolModule  -->
<g id="node9" class="node">
<title>SchoolExternalToolModule </title>
<polygon fill="#fb8072" stroke="black" points="349.8,-252 174.2,-252 174.2,-216 349.8,-216 349.8,-252"/>
<text text-anchor="middle" x="262" y="-229.8" font-family="Times,serif" font-size="14.00">SchoolExternalToolModule </text>
</g>
<!-- ToolModule&#45;&gt;SchoolExternalToolModule  -->
<g id="edge8" class="edge">
<title>ToolModule&#45;&gt;SchoolExternalToolModule </title>
<path fill="none" stroke="black" stroke-dasharray="5,2" d="M387.52,-180C366.61,-180 346.03,-180 346.03,-180 346.03,-180 346.03,-205.72 346.03,-205.72"/>
<polygon fill="black" stroke="black" points="342.53,-205.72 346.03,-215.72 349.53,-205.72 342.53,-205.72"/>
</g>
<!-- ToolLaunchModule  -->
<g id="node10" class="node">
<title>ToolLaunchModule </title>
<polygon fill="#fb8072" stroke="black" points="155.98,-252 24.02,-252 24.02,-216 155.98,-216 155.98,-252"/>
<text text-anchor="middle" x="90" y="-229.8" font-family="Times,serif" font-size="14.00">ToolLaunchModule </text>
</g>
<!-- ToolModule&#45;&gt;ToolLaunchModule  -->
<g id="edge9" class="edge">
<title>ToolModule&#45;&gt;ToolLaunchModule </title>
<path fill="none" stroke="black" stroke-dasharray="5,2" d="M387.96,-173C300.33,-173 109.41,-173 109.41,-173 109.41,-173 109.41,-205.7 109.41,-205.7"/>
<polygon fill="black" stroke="black" points="105.91,-205.7 109.41,-215.7 112.91,-205.7 105.91,-205.7"/>
</g>
<!-- CommonToolService -->
<g id="node11" class="node">
<title>CommonToolService</title>
<ellipse fill="#fdb462" stroke="black" cx="808" cy="-104" rx="94.36" ry="18"/>
<text text-anchor="middle" x="808" y="-99.8" font-family="Times,serif" font-size="14.00">CommonToolService</text>
</g>
<!-- CommonToolService&#45;&gt;ToolModule -->
<g id="edge10" class="edge">
<title>CommonToolService&#45;&gt;ToolModule</title>
<path fill="none" stroke="black" d="M717.9,-109.29C717.9,-124.28 717.9,-166 717.9,-166 717.9,-166 484.26,-166 484.26,-166"/>
<polygon fill="black" stroke="black" points="484.26,-162.5 474.26,-166 484.26,-169.5 484.26,-162.5"/>
</g>
</g>
</svg>
