<?xml version="1.0" encoding="UTF-8" standalone="no"?>
<!DOCTYPE svg PUBLIC "-//W3C//DTD SVG 1.1//EN"
 "http://www.w3.org/Graphics/SVG/1.1/DTD/svg11.dtd">
<!-- Generated by graphviz version 2.47.0 (20210316.0004)
 -->
<!-- Title: dependencies Pages: 1 -->
<svg width="1233pt" height="284pt"
 viewBox="0.00 0.00 1233.00 284.00" xmlns="http://www.w3.org/2000/svg" xmlns:xlink="http://www.w3.org/1999/xlink">
<g id="graph0" class="graph" transform="scale(1 1) rotate(0) translate(4 280)">
<title>dependencies</title>
<polygon fill="white" stroke="transparent" points="-4,4 -4,-280 1229,-280 1229,4 -4,4"/>
<text text-anchor="start" x="591.51" y="-42.4" font-family="Times-12" font-weight="bold" font-size="14.00">Legend</text>
<polygon fill="#ffffb3" stroke="transparent" points="378.5,-10 378.5,-30 398.5,-30 398.5,-10 378.5,-10"/>
<text text-anchor="start" x="402.13" y="-15.4" font-family="Times-12" font-size="14.00"> &#160;Declarations</text>
<polygon fill="#8dd3c7" stroke="transparent" points="491.5,-10 491.5,-30 511.5,-30 511.5,-10 491.5,-10"/>
<text text-anchor="start" x="515.23" y="-15.4" font-family="Times-12" font-size="14.00"> &#160;Module</text>
<polygon fill="#80b1d3" stroke="transparent" points="577.5,-10 577.5,-30 597.5,-30 597.5,-10 577.5,-10"/>
<text text-anchor="start" x="601.28" y="-15.4" font-family="Times-12" font-size="14.00"> &#160;Bootstrap</text>
<polygon fill="#fdb462" stroke="transparent" points="674.5,-10 674.5,-30 694.5,-30 694.5,-10 674.5,-10"/>
<text text-anchor="start" x="698.17" y="-15.4" font-family="Times-12" font-size="14.00"> &#160;Providers</text>
<polygon fill="#fb8072" stroke="transparent" points="770.5,-10 770.5,-30 790.5,-30 790.5,-10 770.5,-10"/>
<text text-anchor="start" x="794.23" y="-15.4" font-family="Times-12" font-size="14.00"> &#160;Exports</text>
<g id="clust1" class="cluster">
<title>cluster_ToolModule</title>
<polygon fill="none" stroke="black" stroke-dasharray="1,5" points="8,-70 8,-268 1217,-268 1217,-70 8,-70"/>
</g>
<g id="clust6" class="cluster">
<title>cluster_ToolModule_providers</title>
<polygon fill="none" stroke="black" points="1005,-78 1005,-130 1209,-130 1209,-78 1005,-78"/>
</g>
<g id="clust3" class="cluster">
<title>cluster_ToolModule_imports</title>
<polygon fill="none" stroke="black" points="16,-78 16,-130 997,-130 997,-78 16,-78"/>
</g>
<g id="clust4" class="cluster">
<title>cluster_ToolModule_exports</title>
<polygon fill="none" stroke="black" points="150,-208 150,-260 1004,-260 1004,-208 150,-208"/>
</g>
<!-- CommonToolModule -->
<g id="node1" class="node">
<title>CommonToolModule</title>
<polygon fill="#8dd3c7" stroke="black" points="989.11,-122 986.11,-126 965.11,-126 962.11,-122 850.89,-122 850.89,-86 989.11,-86 989.11,-122"/>
<text text-anchor="middle" x="920" y="-99.8" font-family="Times,serif" font-size="14.00">CommonToolModule</text>
</g>
<!-- ToolModule -->
<g id="node7" class="node">
<title>ToolModule</title>
<polygon fill="#8dd3c7" stroke="black" points="612.99,-187 609.99,-191 588.99,-191 585.99,-187 527.01,-187 527.01,-151 612.99,-151 612.99,-187"/>
<text text-anchor="middle" x="570" y="-164.8" font-family="Times,serif" font-size="14.00">ToolModule</text>
</g>
<!-- CommonToolModule&#45;&gt;ToolModule -->
<g id="edge1" class="edge">
<title>CommonToolModule&#45;&gt;ToolModule</title>
<path fill="none" stroke="black" d="M944.7,-122.02C944.7,-139.37 944.7,-163 944.7,-163 944.7,-163 623.35,-163 623.35,-163"/>
<polygon fill="black" stroke="black" points="623.35,-159.5 613.35,-163 623.35,-166.5 623.35,-159.5"/>
</g>
<!-- ContextExternalToolModule -->
<g id="node2" class="node">
<title>ContextExternalToolModule</title>
<polygon fill="#8dd3c7" stroke="black" points="832.75,-122 829.75,-126 808.75,-126 805.75,-122 655.25,-122 655.25,-86 832.75,-86 832.75,-122"/>
<text text-anchor="middle" x="744" y="-99.8" font-family="Times,serif" font-size="14.00">ContextExternalToolModule</text>
</g>
<!-- ContextExternalToolModule&#45;&gt;ToolModule -->
<g id="edge2" class="edge">
<title>ContextExternalToolModule&#45;&gt;ToolModule</title>
<path fill="none" stroke="black" d="M774.04,-122.24C774.04,-137.57 774.04,-157 774.04,-157 774.04,-157 623.27,-157 623.27,-157"/>
<polygon fill="black" stroke="black" points="623.27,-153.5 613.27,-157 623.27,-160.5 623.27,-153.5"/>
</g>
<!-- ExternalToolModule -->
<g id="node3" class="node">
<title>ExternalToolModule</title>
<polygon fill="#8dd3c7" stroke="black" points="636.92,-122 633.92,-126 612.92,-126 609.92,-122 503.08,-122 503.08,-86 636.92,-86 636.92,-122"/>
<text text-anchor="middle" x="570" y="-99.8" font-family="Times,serif" font-size="14.00">ExternalToolModule</text>
</g>
<!-- ExternalToolModule&#45;&gt;ToolModule -->
<g id="edge3" class="edge">
<title>ExternalToolModule&#45;&gt;ToolModule</title>
<path fill="none" stroke="black" d="M570,-122.11C570,-122.11 570,-140.99 570,-140.99"/>
<polygon fill="black" stroke="black" points="566.5,-140.99 570,-150.99 573.5,-140.99 566.5,-140.99"/>
</g>
<!-- SchoolExternalToolModule -->
<g id="node4" class="node">
<title>SchoolExternalToolModule</title>
<polygon fill="#8dd3c7" stroke="black" points="485.3,-122 482.3,-126 461.3,-126 458.3,-122 312.7,-122 312.7,-86 485.3,-86 485.3,-122"/>
<text text-anchor="middle" x="399" y="-99.8" font-family="Times,serif" font-size="14.00">SchoolExternalToolModule</text>
</g>
<!-- SchoolExternalToolModule&#45;&gt;ToolModule -->
<g id="edge4" class="edge">
<title>SchoolExternalToolModule&#45;&gt;ToolModule</title>
<path fill="none" stroke="black" d="M426.88,-122.24C426.88,-137.57 426.88,-157 426.88,-157 426.88,-157 516.67,-157 516.67,-157"/>
<polygon fill="black" stroke="black" points="516.67,-160.5 526.67,-157 516.67,-153.5 516.67,-160.5"/>
</g>
<!-- ToolConfigModule -->
<g id="node5" class="node">
<title>ToolConfigModule</title>
<polygon fill="#8dd3c7" stroke="black" points="294.38,-122 291.38,-126 270.38,-126 267.38,-122 169.62,-122 169.62,-86 294.38,-86 294.38,-122"/>
<text text-anchor="middle" x="232" y="-99.8" font-family="Times,serif" font-size="14.00">ToolConfigModule</text>
</g>
<!-- ToolConfigModule&#45;&gt;ToolModule -->
<g id="edge5" class="edge">
<title>ToolConfigModule&#45;&gt;ToolModule</title>
<path fill="none" stroke="black" d="M249.68,-122.02C249.68,-139.37 249.68,-163 249.68,-163 249.68,-163 516.8,-163 516.8,-163"/>
<polygon fill="black" stroke="black" points="516.8,-166.5 526.8,-163 516.8,-159.5 516.8,-166.5"/>
</g>
<!-- ToolLaunchModule -->
<g id="node6" class="node">
<title>ToolLaunchModule</title>
<polygon fill="#8dd3c7" stroke="black" points="151.97,-122 148.97,-126 127.97,-126 124.97,-122 24.03,-122 24.03,-86 151.97,-86 151.97,-122"/>
<text text-anchor="middle" x="88" y="-99.8" font-family="Times,serif" font-size="14.00">ToolLaunchModule</text>
</g>
<!-- ToolLaunchModule&#45;&gt;ToolModule -->
<g id="edge6" class="edge">
<title>ToolLaunchModule&#45;&gt;ToolModule</title>
<path fill="none" stroke="black" d="M88,-122.11C88,-141.34 88,-169 88,-169 88,-169 516.8,-169 516.8,-169"/>
<polygon fill="black" stroke="black" points="516.8,-172.5 526.8,-169 516.8,-165.5 516.8,-172.5"/>
</g>
<!-- CommonToolService  -->
<g id="node8" class="node">
<title>CommonToolService </title>
<polygon fill="#fb8072" stroke="black" points="996.04,-252 855.96,-252 855.96,-216 996.04,-216 996.04,-252"/>
<text text-anchor="middle" x="926" y="-229.8" font-family="Times,serif" font-size="14.00">CommonToolService </text>
</g>
<!-- ToolModule&#45;&gt;CommonToolService  -->
<g id="edge7" class="edge">
<title>ToolModule&#45;&gt;CommonToolService </title>
<path fill="none" stroke="black" stroke-dasharray="5,2" d="M613.19,-175C702.73,-175 900.34,-175 900.34,-175 900.34,-175 900.34,-205.98 900.34,-205.98"/>
<polygon fill="black" stroke="black" points="896.84,-205.98 900.34,-215.98 903.84,-205.98 896.84,-205.98"/>
</g>
<!-- ContextExternalToolModule  -->
<g id="node9" class="node">
<title>ContextExternalToolModule </title>
<polygon fill="#fb8072" stroke="black" points="837.75,-252 656.25,-252 656.25,-216 837.75,-216 837.75,-252"/>
<text text-anchor="middle" x="747" y="-229.8" font-family="Times,serif" font-size="14.00">ContextExternalToolModule </text>
</g>
<!-- ToolModule&#45;&gt;ContextExternalToolModule  -->
<g id="edge8" class="edge">
<title>ToolModule&#45;&gt;ContextExternalToolModule </title>
<path fill="none" stroke="black" stroke-dasharray="5,2" d="M613.17,-181C655.98,-181 715.21,-181 715.21,-181 715.21,-181 715.21,-205.76 715.21,-205.76"/>
<polygon fill="black" stroke="black" points="711.71,-205.76 715.21,-215.76 718.71,-205.76 711.71,-205.76"/>
</g>
<!-- ExternalToolModule  -->
<g id="node10" class="node">
<title>ExternalToolModule </title>
<polygon fill="#fb8072" stroke="black" points="638.42,-252 501.58,-252 501.58,-216 638.42,-216 638.42,-252"/>
<text text-anchor="middle" x="570" y="-229.8" font-family="Times,serif" font-size="14.00">ExternalToolModule </text>
</g>
<!-- ToolModule&#45;&gt;ExternalToolModule  -->
<g id="edge9" class="edge">
<title>ToolModule&#45;&gt;ExternalToolModule </title>
<path fill="none" stroke="black" stroke-dasharray="5,2" d="M570,-187.11C570,-187.11 570,-205.99 570,-205.99"/>
<polygon fill="black" stroke="black" points="566.5,-205.99 570,-215.99 573.5,-205.99 566.5,-205.99"/>
</g>
<!-- SchoolExternalToolModule  -->
<g id="node11" class="node">
<title>SchoolExternalToolModule </title>
<polygon fill="#fb8072" stroke="black" points="483.8,-252 308.2,-252 308.2,-216 483.8,-216 483.8,-252"/>
<text text-anchor="middle" x="396" y="-229.8" font-family="Times,serif" font-size="14.00">SchoolExternalToolModule </text>
</g>
<!-- ToolModule&#45;&gt;SchoolExternalToolModule  -->
<g id="edge10" class="edge">
<title>ToolModule&#45;&gt;SchoolExternalToolModule </title>
<path fill="none" stroke="black" stroke-dasharray="5,2" d="M526.57,-181C467.71,-181 369.87,-181 369.87,-181 369.87,-181 369.87,-205.76 369.87,-205.76"/>
<polygon fill="black" stroke="black" points="366.37,-205.76 369.87,-215.76 373.37,-205.76 366.37,-205.76"/>
</g>
<!-- ToolLaunchModule  -->
<g id="node12" class="node">
<title>ToolLaunchModule </title>
<polygon fill="#fb8072" stroke="black" points="289.98,-252 158.02,-252 158.02,-216 289.98,-216 289.98,-252"/>
<text text-anchor="middle" x="224" y="-229.8" font-family="Times,serif" font-size="14.00">ToolLaunchModule </text>
</g>
<!-- ToolModule&#45;&gt;ToolLaunchModule  -->
<g id="edge11" class="edge">
<title>ToolModule&#45;&gt;ToolLaunchModule </title>
<path fill="none" stroke="black" stroke-dasharray="5,2" d="M526.89,-175C431.23,-175 209.62,-175 209.62,-175 209.62,-175 209.62,-205.98 209.62,-205.98"/>
<polygon fill="black" stroke="black" points="206.12,-205.98 209.62,-215.98 213.12,-205.98 206.12,-205.98"/>
</g>
<!-- CommonToolService -->
<g id="node13" class="node">
<title>CommonToolService</title>
<ellipse fill="#fdb462" stroke="black" cx="1107" cy="-104" rx="94.36" ry="18"/>
<text text-anchor="middle" x="1107" y="-99.8" font-family="Times,serif" font-size="14.00">CommonToolService</text>
</g>
<!-- CommonToolService&#45;&gt;ToolModule -->
<g id="edge12" class="edge">
<title>CommonToolService&#45;&gt;ToolModule</title>
<path fill="none" stroke="black" d="M1107,-122.11C1107,-141.34 1107,-169 1107,-169 1107,-169 623.04,-169 623.04,-169"/>
<polygon fill="black" stroke="black" points="623.04,-165.5 613.04,-169 623.04,-172.5 623.04,-165.5"/>
</g>
</g>
</svg>
