<?xml version="1.0" encoding="UTF-8" standalone="no"?>
<!DOCTYPE svg PUBLIC "-//W3C//DTD SVG 1.1//EN"
 "http://www.w3.org/Graphics/SVG/1.1/DTD/svg11.dtd">
<!-- Generated by graphviz version 2.47.0 (20210316.0004)
 -->
<!-- Title: dependencies Pages: 1 -->
<svg width="668pt" height="211pt"
 viewBox="0.00 0.00 668.00 211.00" xmlns="http://www.w3.org/2000/svg" xmlns:xlink="http://www.w3.org/1999/xlink">
<g id="graph0" class="graph" transform="scale(1 1) rotate(0) translate(4 207)">
<title>dependencies</title>
<polygon fill="white" stroke="transparent" points="-4,4 -4,-207 664,-207 664,4 -4,4"/>
<text text-anchor="start" x="309.01" y="-42.4" font-family="Times-12" font-weight="bold" font-size="14.00">Legend</text>
<polygon fill="#ffffb3" stroke="transparent" points="96,-10 96,-30 116,-30 116,-10 96,-10"/>
<text text-anchor="start" x="119.63" y="-15.4" font-family="Times-12" font-size="14.00"> &#160;Declarations</text>
<polygon fill="#8dd3c7" stroke="transparent" points="209,-10 209,-30 229,-30 229,-10 209,-10"/>
<text text-anchor="start" x="232.73" y="-15.4" font-family="Times-12" font-size="14.00"> &#160;Module</text>
<polygon fill="#80b1d3" stroke="transparent" points="295,-10 295,-30 315,-30 315,-10 295,-10"/>
<text text-anchor="start" x="318.78" y="-15.4" font-family="Times-12" font-size="14.00"> &#160;Bootstrap</text>
<polygon fill="#fdb462" stroke="transparent" points="392,-10 392,-30 412,-30 412,-10 392,-10"/>
<text text-anchor="start" x="415.67" y="-15.4" font-family="Times-12" font-size="14.00"> &#160;Providers</text>
<polygon fill="#fb8072" stroke="transparent" points="488,-10 488,-30 508,-30 508,-10 488,-10"/>
<text text-anchor="start" x="511.73" y="-15.4" font-family="Times-12" font-size="14.00"> &#160;Exports</text>
<g id="clust1" class="cluster">
<title>cluster_TldrawWsTestModule</title>
<polygon fill="none" stroke="black" stroke-dasharray="1,5" points="8,-70 8,-195 652,-195 652,-70 8,-70"/>
</g>
<g id="clust3" class="cluster">
<title>cluster_TldrawWsTestModule_imports</title>
<polygon fill="none" stroke="black" points="542,-78 542,-130 644,-130 644,-78 542,-78"/>
</g>
<g id="clust6" class="cluster">
<title>cluster_TldrawWsTestModule_providers</title>
<polygon fill="none" stroke="black" points="16,-78 16,-130 534,-130 534,-78 16,-78"/>
</g>
<!-- CoreModule -->
<g id="node1" class="node">
<title>CoreModule</title>
<polygon fill="#8dd3c7" stroke="black" points="636.26,-122 633.26,-126 612.26,-126 609.26,-122 549.74,-122 549.74,-86 636.26,-86 636.26,-122"/>
<text text-anchor="middle" x="593" y="-99.8" font-family="Times,serif" font-size="14.00">CoreModule</text>
</g>
<!-- TldrawWsTestModule -->
<g id="node2" class="node">
<title>TldrawWsTestModule</title>
<polygon fill="#8dd3c7" stroke="black" points="443.24,-187 440.24,-191 419.24,-191 416.24,-187 300.76,-187 300.76,-151 443.24,-151 443.24,-187"/>
<text text-anchor="middle" x="372" y="-164.8" font-family="Times,serif" font-size="14.00">TldrawWsTestModule</text>
</g>
<!-- CoreModule&#45;&gt;TldrawWsTestModule -->
<g id="edge1" class="edge">
<title>CoreModule&#45;&gt;TldrawWsTestModule</title>
<path fill="none" stroke="black" d="M593,-122.11C593,-141.34 593,-169 593,-169 593,-169 453.45,-169 453.45,-169"/>
<polygon fill="black" stroke="black" points="453.45,-165.5 443.45,-169 453.45,-172.5 453.45,-165.5"/>
</g>
<!-- MetricsService -->
<g id="node3" class="node">
<title>MetricsService</title>
<ellipse fill="#fdb462" stroke="black" cx="457" cy="-104" rx="69.47" ry="18"/>
<text text-anchor="middle" x="457" y="-99.8" font-family="Times,serif" font-size="14.00">MetricsService</text>
</g>
<!-- MetricsService&#45;&gt;TldrawWsTestModule -->
<g id="edge2" class="edge">
<title>MetricsService&#45;&gt;TldrawWsTestModule</title>
<path fill="none" stroke="black" d="M415.44,-118.75C415.44,-118.75 415.44,-140.59 415.44,-140.59"/>
<polygon fill="black" stroke="black" points="411.94,-140.59 415.44,-150.59 418.94,-140.59 411.94,-140.59"/>
</g>
<!-- TldrawBoardRepo -->
<g id="node4" class="node">
<title>TldrawBoardRepo</title>
<ellipse fill="#fdb462" stroke="black" cx="287" cy="-104" rx="82.81" ry="18"/>
<text text-anchor="middle" x="287" y="-99.8" font-family="Times,serif" font-size="14.00">TldrawBoardRepo</text>
</g>
<!-- TldrawBoardRepo&#45;&gt;TldrawWsTestModule -->
<g id="edge3" class="edge">
<title>TldrawBoardRepo&#45;&gt;TldrawWsTestModule</title>
<path fill="none" stroke="black" d="M335.27,-118.75C335.27,-118.75 335.27,-140.59 335.27,-140.59"/>
<polygon fill="black" stroke="black" points="331.77,-140.59 335.27,-150.59 338.77,-140.59 331.77,-140.59"/>
</g>
<!-- TldrawWsService -->
<g id="node5" class="node">
<title>TldrawWsService</title>
<ellipse fill="#fdb462" stroke="black" cx="105" cy="-104" rx="80.99" ry="18"/>
<text text-anchor="middle" x="105" y="-99.8" font-family="Times,serif" font-size="14.00">TldrawWsService</text>
</g>
<!-- TldrawWsService&#45;&gt;TldrawWsTestModule -->
<g id="edge4" class="edge">
<title>TldrawWsService&#45;&gt;TldrawWsTestModule</title>
<path fill="none" stroke="black" d="M105,-122.11C105,-141.34 105,-169 105,-169 105,-169 290.45,-169 290.45,-169"/>
<polygon fill="black" stroke="black" points="290.45,-172.5 300.45,-169 290.45,-165.5 290.45,-172.5"/>
</g>
</g>
</svg>
