<?xml version="1.0" encoding="UTF-8" standalone="no"?>
<!DOCTYPE svg PUBLIC "-//W3C//DTD SVG 1.1//EN"
 "http://www.w3.org/Graphics/SVG/1.1/DTD/svg11.dtd">
<!-- Generated by graphviz version 2.47.0 (20210316.0004)
 -->
<!-- Title: dependencies Pages: 1 -->
<svg width="512pt" height="211pt"
 viewBox="0.00 0.00 512.00 211.00" xmlns="http://www.w3.org/2000/svg" xmlns:xlink="http://www.w3.org/1999/xlink">
<g id="graph0" class="graph" transform="scale(1 1) rotate(0) translate(4 207)">
<title>dependencies</title>
<polygon fill="white" stroke="transparent" points="-4,4 -4,-207 508,-207 508,4 -4,4"/>
<text text-anchor="start" x="231.01" y="-42.4" font-family="Times-12" font-weight="bold" font-size="14.00">Legend</text>
<polygon fill="#ffffb3" stroke="transparent" points="18,-10 18,-30 38,-30 38,-10 18,-10"/>
<text text-anchor="start" x="41.63" y="-15.4" font-family="Times-12" font-size="14.00"> &#160;Declarations</text>
<polygon fill="#8dd3c7" stroke="transparent" points="131,-10 131,-30 151,-30 151,-10 131,-10"/>
<text text-anchor="start" x="154.73" y="-15.4" font-family="Times-12" font-size="14.00"> &#160;Module</text>
<polygon fill="#80b1d3" stroke="transparent" points="217,-10 217,-30 237,-30 237,-10 217,-10"/>
<text text-anchor="start" x="240.78" y="-15.4" font-family="Times-12" font-size="14.00"> &#160;Bootstrap</text>
<polygon fill="#fdb462" stroke="transparent" points="314,-10 314,-30 334,-30 334,-10 314,-10"/>
<text text-anchor="start" x="337.67" y="-15.4" font-family="Times-12" font-size="14.00"> &#160;Providers</text>
<polygon fill="#fb8072" stroke="transparent" points="410,-10 410,-30 430,-30 430,-10 410,-10"/>
<text text-anchor="start" x="433.73" y="-15.4" font-family="Times-12" font-size="14.00"> &#160;Exports</text>
<g id="clust1" class="cluster">
<title>cluster_TldrawWsTestModule</title>
<polygon fill="none" stroke="black" stroke-dasharray="1,5" points="8,-70 8,-195 496,-195 496,-70 8,-70"/>
</g>
<g id="clust6" class="cluster">
<title>cluster_TldrawWsTestModule_providers</title>
<polygon fill="none" stroke="black" points="126,-78 126,-130 488,-130 488,-78 126,-78"/>
</g>
<g id="clust3" class="cluster">
<title>cluster_TldrawWsTestModule_imports</title>
<polygon fill="none" stroke="black" points="16,-78 16,-130 118,-130 118,-78 16,-78"/>
</g>
<!-- CoreModule -->
<g id="node1" class="node">
<title>CoreModule</title>
<polygon fill="#8dd3c7" stroke="black" points="110.26,-122 107.26,-126 86.26,-126 83.26,-122 23.74,-122 23.74,-86 110.26,-86 110.26,-122"/>
<text text-anchor="middle" x="67" y="-99.8" font-family="Times,serif" font-size="14.00">CoreModule</text>
</g>
<!-- TldrawWsTestModule -->
<g id="node2" class="node">
<title>TldrawWsTestModule</title>
<polygon fill="#8dd3c7" stroke="black" points="286.24,-187 283.24,-191 262.24,-191 259.24,-187 143.76,-187 143.76,-151 286.24,-151 286.24,-187"/>
<text text-anchor="middle" x="215" y="-164.8" font-family="Times,serif" font-size="14.00">TldrawWsTestModule</text>
</g>
<!-- CoreModule&#45;&gt;TldrawWsTestModule -->
<g id="edge1" class="edge">
<title>CoreModule&#45;&gt;TldrawWsTestModule</title>
<path fill="none" stroke="black" d="M67,-122.11C67,-141.34 67,-169 67,-169 67,-169 133.6,-169 133.6,-169"/>
<polygon fill="black" stroke="black" points="133.6,-172.5 143.6,-169 133.6,-165.5 133.6,-172.5"/>
</g>
<!-- TldrawBoardRepo -->
<g id="node3" class="node">
<title>TldrawBoardRepo</title>
<ellipse fill="#fdb462" stroke="black" cx="397" cy="-104" rx="82.81" ry="18"/>
<text text-anchor="middle" x="397" y="-99.8" font-family="Times,serif" font-size="14.00">TldrawBoardRepo</text>
</g>
<!-- TldrawBoardRepo&#45;&gt;TldrawWsTestModule -->
<g id="edge2" class="edge">
<title>TldrawBoardRepo&#45;&gt;TldrawWsTestModule</title>
<path fill="none" stroke="black" d="M397,-122.11C397,-141.34 397,-169 397,-169 397,-169 296.41,-169 296.41,-169"/>
<polygon fill="black" stroke="black" points="296.41,-165.5 286.41,-169 296.41,-172.5 296.41,-165.5"/>
</g>
<!-- TldrawWsService -->
<g id="node4" class="node">
<title>TldrawWsService</title>
<ellipse fill="#fdb462" stroke="black" cx="215" cy="-104" rx="80.99" ry="18"/>
<text text-anchor="middle" x="215" y="-99.8" font-family="Times,serif" font-size="14.00">TldrawWsService</text>
</g>
<!-- TldrawWsService&#45;&gt;TldrawWsTestModule -->
<g id="edge3" class="edge">
<title>TldrawWsService&#45;&gt;TldrawWsTestModule</title>
<path fill="none" stroke="black" d="M215,-122.11C215,-122.11 215,-140.99 215,-140.99"/>
<polygon fill="black" stroke="black" points="211.5,-140.99 215,-150.99 218.5,-140.99 211.5,-140.99"/>
</g>
</g>
</svg>
