<?xml version="1.0" encoding="UTF-8" standalone="no"?>
<!DOCTYPE svg PUBLIC "-//W3C//DTD SVG 1.1//EN"
 "http://www.w3.org/Graphics/SVG/1.1/DTD/svg11.dtd">
<!-- Generated by graphviz version 2.47.0 (20210316.0004)
 -->
<!-- Title: dependencies Pages: 1 -->
<svg width="1665pt" height="211pt"
 viewBox="0.00 0.00 1665.00 211.00" xmlns="http://www.w3.org/2000/svg" xmlns:xlink="http://www.w3.org/1999/xlink">
<g id="graph0" class="graph" transform="scale(1 1) rotate(0) translate(4 207)">
<title>dependencies</title>
<polygon fill="white" stroke="transparent" points="-4,4 -4,-207 1661,-207 1661,4 -4,4"/>
<text text-anchor="start" x="807.51" y="-42.4" font-family="Times-12" font-weight="bold" font-size="14.00">Legend</text>
<polygon fill="#ffffb3" stroke="transparent" points="594.5,-10 594.5,-30 614.5,-30 614.5,-10 594.5,-10"/>
<text text-anchor="start" x="618.13" y="-15.4" font-family="Times-12" font-size="14.00"> &#160;Declarations</text>
<polygon fill="#8dd3c7" stroke="transparent" points="707.5,-10 707.5,-30 727.5,-30 727.5,-10 707.5,-10"/>
<text text-anchor="start" x="731.23" y="-15.4" font-family="Times-12" font-size="14.00"> &#160;Module</text>
<polygon fill="#80b1d3" stroke="transparent" points="793.5,-10 793.5,-30 813.5,-30 813.5,-10 793.5,-10"/>
<text text-anchor="start" x="817.28" y="-15.4" font-family="Times-12" font-size="14.00"> &#160;Bootstrap</text>
<polygon fill="#fdb462" stroke="transparent" points="890.5,-10 890.5,-30 910.5,-30 910.5,-10 890.5,-10"/>
<text text-anchor="start" x="914.17" y="-15.4" font-family="Times-12" font-size="14.00"> &#160;Providers</text>
<polygon fill="#fb8072" stroke="transparent" points="986.5,-10 986.5,-30 1006.5,-30 1006.5,-10 986.5,-10"/>
<text text-anchor="start" x="1010.23" y="-15.4" font-family="Times-12" font-size="14.00"> &#160;Exports</text>
<g id="clust1" class="cluster">
<title>cluster_TldrawWsTestModule</title>
<polygon fill="none" stroke="black" stroke-dasharray="1,5" points="8,-70 8,-195 1649,-195 1649,-70 8,-70"/>
</g>
<g id="clust6" class="cluster">
<title>cluster_TldrawWsTestModule_providers</title>
<polygon fill="none" stroke="black" points="462,-78 462,-130 1641,-130 1641,-78 462,-78"/>
</g>
<g id="clust3" class="cluster">
<title>cluster_TldrawWsTestModule_imports</title>
<polygon fill="none" stroke="black" points="16,-78 16,-130 454,-130 454,-78 16,-78"/>
</g>
<!-- CoreModule -->
<g id="node1" class="node">
<title>CoreModule</title>
<polygon fill="#8dd3c7" stroke="black" points="446.26,-122 443.26,-126 422.26,-126 419.26,-122 359.74,-122 359.74,-86 446.26,-86 446.26,-122"/>
<text text-anchor="middle" x="403" y="-99.8" font-family="Times,serif" font-size="14.00">CoreModule</text>
</g>
<!-- TldrawWsTestModule -->
<g id="node4" class="node">
<title>TldrawWsTestModule</title>
<polygon fill="#8dd3c7" stroke="black" points="830.24,-187 827.24,-191 806.24,-191 803.24,-187 687.76,-187 687.76,-151 830.24,-151 830.24,-187"/>
<text text-anchor="middle" x="759" y="-164.8" font-family="Times,serif" font-size="14.00">TldrawWsTestModule</text>
</g>
<!-- CoreModule&#45;&gt;TldrawWsTestModule -->
<g id="edge1" class="edge">
<title>CoreModule&#45;&gt;TldrawWsTestModule</title>
<path fill="none" stroke="black" d="M403,-122.27C403,-140.56 403,-166 403,-166 403,-166 677.39,-166 677.39,-166"/>
<polygon fill="black" stroke="black" points="677.39,-169.5 687.39,-166 677.39,-162.5 677.39,-169.5"/>
</g>
<!-- LoggerModule -->
<g id="node2" class="node">
<title>LoggerModule</title>
<polygon fill="#8dd3c7" stroke="black" points="341.98,-122 338.98,-126 317.98,-126 314.98,-122 242.02,-122 242.02,-86 341.98,-86 341.98,-122"/>
<text text-anchor="middle" x="292" y="-99.8" font-family="Times,serif" font-size="14.00">LoggerModule</text>
</g>
<!-- LoggerModule&#45;&gt;TldrawWsTestModule -->
<g id="edge2" class="edge">
<title>LoggerModule&#45;&gt;TldrawWsTestModule</title>
<path fill="none" stroke="black" d="M292,-122.13C292,-142.57 292,-173 292,-173 292,-173 677.56,-173 677.56,-173"/>
<polygon fill="black" stroke="black" points="677.56,-176.5 687.56,-173 677.56,-169.5 677.56,-176.5"/>
</g>
<!-- MongoMemoryDatabaseModule -->
<g id="node3" class="node">
<title>MongoMemoryDatabaseModule</title>
<polygon fill="#8dd3c7" stroke="black" points="223.51,-122 220.51,-126 199.51,-126 196.51,-122 24.49,-122 24.49,-86 223.51,-86 223.51,-122"/>
<text text-anchor="middle" x="124" y="-99.8" font-family="Times,serif" font-size="14.00">MongoMemoryDatabaseModule</text>
</g>
<!-- MongoMemoryDatabaseModule&#45;&gt;TldrawWsTestModule -->
<g id="edge3" class="edge">
<title>MongoMemoryDatabaseModule&#45;&gt;TldrawWsTestModule</title>
<path fill="none" stroke="black" d="M124,-122.01C124,-144.49 124,-180 124,-180 124,-180 677.7,-180 677.7,-180"/>
<polygon fill="black" stroke="black" points="677.7,-183.5 687.7,-180 677.7,-176.5 677.7,-183.5"/>
</g>
<!-- MetricsService -->
<g id="node5" class="node">
<title>MetricsService</title>
<ellipse fill="#fdb462" stroke="black" cx="1564" cy="-104" rx="69.47" ry="18"/>
<text text-anchor="middle" x="1564" y="-99.8" font-family="Times,serif" font-size="14.00">MetricsService</text>
</g>
<!-- MetricsService&#45;&gt;TldrawWsTestModule -->
<g id="edge4" class="edge">
<title>MetricsService&#45;&gt;TldrawWsTestModule</title>
<path fill="none" stroke="black" d="M1564,-122.01C1564,-144.49 1564,-180 1564,-180 1564,-180 840.44,-180 840.44,-180"/>
<polygon fill="black" stroke="black" points="840.44,-176.5 830.44,-180 840.44,-183.5 840.44,-176.5"/>
</g>
<!-- TldrawBoardRepo -->
<g id="node6" class="node">
<title>TldrawBoardRepo</title>
<ellipse fill="#fdb462" stroke="black" cx="1394" cy="-104" rx="82.81" ry="18"/>
<text text-anchor="middle" x="1394" y="-99.8" font-family="Times,serif" font-size="14.00">TldrawBoardRepo</text>
</g>
<!-- TldrawBoardRepo&#45;&gt;TldrawWsTestModule -->
<g id="edge5" class="edge">
<title>TldrawBoardRepo&#45;&gt;TldrawWsTestModule</title>
<path fill="none" stroke="black" d="M1394,-122.13C1394,-142.57 1394,-173 1394,-173 1394,-173 840.3,-173 840.3,-173"/>
<polygon fill="black" stroke="black" points="840.3,-169.5 830.3,-173 840.3,-176.5 840.3,-169.5"/>
</g>
<!-- TldrawRedisFactory -->
<g id="node7" class="node">
<title>TldrawRedisFactory</title>
<ellipse fill="#fdb462" stroke="black" cx="1203" cy="-104" rx="90.33" ry="18"/>
<text text-anchor="middle" x="1203" y="-99.8" font-family="Times,serif" font-size="14.00">TldrawRedisFactory</text>
</g>
<!-- TldrawRedisFactory&#45;&gt;TldrawWsTestModule -->
<g id="edge6" class="edge">
<title>TldrawRedisFactory&#45;&gt;TldrawWsTestModule</title>
<path fill="none" stroke="black" d="M1203,-122.27C1203,-140.56 1203,-166 1203,-166 1203,-166 840.34,-166 840.34,-166"/>
<polygon fill="black" stroke="black" points="840.34,-162.5 830.34,-166 840.34,-169.5 840.34,-162.5"/>
</g>
<!-- TldrawRedisService -->
<g id="node8" class="node">
<title>TldrawRedisService</title>
<ellipse fill="#fdb462" stroke="black" cx="1005" cy="-104" rx="89.74" ry="18"/>
<text text-anchor="middle" x="1005" y="-99.8" font-family="Times,serif" font-size="14.00">TldrawRedisService</text>
</g>
<!-- TldrawRedisService&#45;&gt;TldrawWsTestModule -->
<g id="edge7" class="edge">
<title>TldrawRedisService&#45;&gt;TldrawWsTestModule</title>
<path fill="none" stroke="black" d="M1005,-122.01C1005,-138.05 1005,-159 1005,-159 1005,-159 840.48,-159 840.48,-159"/>
<polygon fill="black" stroke="black" points="840.48,-155.5 830.48,-159 840.48,-162.5 840.48,-155.5"/>
</g>
<!-- TldrawRepo -->
<g id="node9" class="node">
<title>TldrawRepo</title>
<ellipse fill="#fdb462" stroke="black" cx="838" cy="-104" rx="59.11" ry="18"/>
<text text-anchor="middle" x="838" y="-99.8" font-family="Times,serif" font-size="14.00">TldrawRepo</text>
</g>
<!-- TldrawRepo&#45;&gt;TldrawWsTestModule -->
<g id="edge8" class="edge">
<title>TldrawRepo&#45;&gt;TldrawWsTestModule</title>
<path fill="none" stroke="black" d="M804.53,-119.08C804.53,-119.08 804.53,-140.76 804.53,-140.76"/>
<polygon fill="black" stroke="black" points="801.03,-140.76 804.53,-150.76 808.03,-140.76 801.03,-140.76"/>
</g>
<!-- TldrawWsService -->
<g id="node10" class="node">
<title>TldrawWsService</title>
<ellipse fill="#fdb462" stroke="black" cx="680" cy="-104" rx="80.99" ry="18"/>
<text text-anchor="middle" x="680" y="-99.8" font-family="Times,serif" font-size="14.00">TldrawWsService</text>
</g>
<!-- TldrawWsService&#45;&gt;TldrawWsTestModule -->
<g id="edge9" class="edge">
<title>TldrawWsService&#45;&gt;TldrawWsTestModule</title>
<path fill="none" stroke="black" d="M724.19,-119.08C724.19,-119.08 724.19,-140.76 724.19,-140.76"/>
<polygon fill="black" stroke="black" points="720.69,-140.76 724.19,-150.76 727.69,-140.76 720.69,-140.76"/>
</g>
<!-- YMongodb -->
<g id="node11" class="node">
<title>YMongodb</title>
<ellipse fill="#fdb462" stroke="black" cx="526" cy="-104" rx="55.63" ry="18"/>
<text text-anchor="middle" x="526" y="-99.8" font-family="Times,serif" font-size="14.00">YMongodb</text>
</g>
<!-- YMongodb&#45;&gt;TldrawWsTestModule -->
<g id="edge10" class="edge">
<title>YMongodb&#45;&gt;TldrawWsTestModule</title>
<path fill="none" stroke="black" d="M526,-122.01C526,-138.05 526,-159 526,-159 526,-159 677.51,-159 677.51,-159"/>
<polygon fill="black" stroke="black" points="677.51,-162.5 687.51,-159 677.51,-155.5 677.51,-162.5"/>
</g>
</g>
</svg>
