<?xml version="1.0" encoding="UTF-8" standalone="no"?>
<!DOCTYPE svg PUBLIC "-//W3C//DTD SVG 1.1//EN"
 "http://www.w3.org/Graphics/SVG/1.1/DTD/svg11.dtd">
<!-- Generated by graphviz version 2.47.0 (20210316.0004)
 -->
<!-- Title: dependencies Pages: 1 -->
<svg width="1665pt" height="211pt"
 viewBox="0.00 0.00 1665.00 211.00" xmlns="http://www.w3.org/2000/svg" xmlns:xlink="http://www.w3.org/1999/xlink">
<g id="graph0" class="graph" transform="scale(1 1) rotate(0) translate(4 207)">
<title>dependencies</title>
<polygon fill="white" stroke="transparent" points="-4,4 -4,-207 1661,-207 1661,4 -4,4"/>
<text text-anchor="start" x="807.51" y="-42.4" font-family="Times-12" font-weight="bold" font-size="14.00">Legend</text>
<polygon fill="#ffffb3" stroke="transparent" points="594.5,-10 594.5,-30 614.5,-30 614.5,-10 594.5,-10"/>
<text text-anchor="start" x="618.13" y="-15.4" font-family="Times-12" font-size="14.00"> &#160;Declarations</text>
<polygon fill="#8dd3c7" stroke="transparent" points="707.5,-10 707.5,-30 727.5,-30 727.5,-10 707.5,-10"/>
<text text-anchor="start" x="731.23" y="-15.4" font-family="Times-12" font-size="14.00"> &#160;Module</text>
<polygon fill="#80b1d3" stroke="transparent" points="793.5,-10 793.5,-30 813.5,-30 813.5,-10 793.5,-10"/>
<text text-anchor="start" x="817.28" y="-15.4" font-family="Times-12" font-size="14.00"> &#160;Bootstrap</text>
<polygon fill="#fdb462" stroke="transparent" points="890.5,-10 890.5,-30 910.5,-30 910.5,-10 890.5,-10"/>
<text text-anchor="start" x="914.17" y="-15.4" font-family="Times-12" font-size="14.00"> &#160;Providers</text>
<polygon fill="#fb8072" stroke="transparent" points="986.5,-10 986.5,-30 1006.5,-30 1006.5,-10 986.5,-10"/>
<text text-anchor="start" x="1010.23" y="-15.4" font-family="Times-12" font-size="14.00"> &#160;Exports</text>
<g id="clust1" class="cluster">
<title>cluster_TldrawWsTestModule</title>
<polygon fill="none" stroke="black" stroke-dasharray="1,5" points="8,-70 8,-195 1649,-195 1649,-70 8,-70"/>
</g>
<g id="clust3" class="cluster">
<title>cluster_TldrawWsTestModule_imports</title>
<polygon fill="none" stroke="black" points="1203,-78 1203,-130 1641,-130 1641,-78 1203,-78"/>
</g>
<g id="clust6" class="cluster">
<title>cluster_TldrawWsTestModule_providers</title>
<polygon fill="none" stroke="black" points="16,-78 16,-130 1195,-130 1195,-78 16,-78"/>
</g>
<!-- CoreModule -->
<g id="node1" class="node">
<title>CoreModule</title>
<polygon fill="#8dd3c7" stroke="black" points="1633.26,-122 1630.26,-126 1609.26,-126 1606.26,-122 1546.74,-122 1546.74,-86 1633.26,-86 1633.26,-122"/>
<text text-anchor="middle" x="1590" y="-99.8" font-family="Times,serif" font-size="14.00">CoreModule</text>
</g>
<!-- TldrawWsTestModule -->
<g id="node4" class="node">
<title>TldrawWsTestModule</title>
<polygon fill="#8dd3c7" stroke="black" points="923.24,-187 920.24,-191 899.24,-191 896.24,-187 780.76,-187 780.76,-151 923.24,-151 923.24,-187"/>
<text text-anchor="middle" x="852" y="-164.8" font-family="Times,serif" font-size="14.00">TldrawWsTestModule</text>
</g>
<!-- CoreModule&#45;&gt;TldrawWsTestModule -->
<g id="edge1" class="edge">
<title>CoreModule&#45;&gt;TldrawWsTestModule</title>
<path fill="none" stroke="black" d="M1590,-122.01C1590,-144.49 1590,-180 1590,-180 1590,-180 933.43,-180 933.43,-180"/>
<polygon fill="black" stroke="black" points="933.43,-176.5 923.43,-180 933.43,-183.5 933.43,-176.5"/>
</g>
<!-- LoggerModule -->
<g id="node2" class="node">
<title>LoggerModule</title>
<polygon fill="#8dd3c7" stroke="black" points="1528.98,-122 1525.98,-126 1504.98,-126 1501.98,-122 1429.02,-122 1429.02,-86 1528.98,-86 1528.98,-122"/>
<text text-anchor="middle" x="1479" y="-99.8" font-family="Times,serif" font-size="14.00">LoggerModule</text>
</g>
<!-- LoggerModule&#45;&gt;TldrawWsTestModule -->
<g id="edge2" class="edge">
<title>LoggerModule&#45;&gt;TldrawWsTestModule</title>
<path fill="none" stroke="black" d="M1479,-122.13C1479,-142.57 1479,-173 1479,-173 1479,-173 933.31,-173 933.31,-173"/>
<polygon fill="black" stroke="black" points="933.31,-169.5 923.31,-173 933.31,-176.5 933.31,-169.5"/>
</g>
<!-- MongoMemoryDatabaseModule -->
<g id="node3" class="node">
<title>MongoMemoryDatabaseModule</title>
<polygon fill="#8dd3c7" stroke="black" points="1410.51,-122 1407.51,-126 1386.51,-126 1383.51,-122 1211.49,-122 1211.49,-86 1410.51,-86 1410.51,-122"/>
<text text-anchor="middle" x="1311" y="-99.8" font-family="Times,serif" font-size="14.00">MongoMemoryDatabaseModule</text>
</g>
<!-- MongoMemoryDatabaseModule&#45;&gt;TldrawWsTestModule -->
<g id="edge3" class="edge">
<title>MongoMemoryDatabaseModule&#45;&gt;TldrawWsTestModule</title>
<path fill="none" stroke="black" d="M1311,-122.27C1311,-140.56 1311,-166 1311,-166 1311,-166 933.47,-166 933.47,-166"/>
<polygon fill="black" stroke="black" points="933.47,-162.5 923.47,-166 933.47,-169.5 933.47,-162.5"/>
</g>
<!-- MetricsService -->
<g id="node5" class="node">
<title>MetricsService</title>
<ellipse fill="#fdb462" stroke="black" cx="1118" cy="-104" rx="69.47" ry="18"/>
<text text-anchor="middle" x="1118" y="-99.8" font-family="Times,serif" font-size="14.00">MetricsService</text>
</g>
<!-- MetricsService&#45;&gt;TldrawWsTestModule -->
<g id="edge4" class="edge">
<title>MetricsService&#45;&gt;TldrawWsTestModule</title>
<path fill="none" stroke="black" d="M1118,-122.01C1118,-138.05 1118,-159 1118,-159 1118,-159 933.28,-159 933.28,-159"/>
<polygon fill="black" stroke="black" points="933.28,-155.5 923.28,-159 933.28,-162.5 933.28,-155.5"/>
</g>
<!-- TldrawBoardRepo -->
<g id="node6" class="node">
<title>TldrawBoardRepo</title>
<ellipse fill="#fdb462" stroke="black" cx="948" cy="-104" rx="82.81" ry="18"/>
<text text-anchor="middle" x="948" y="-99.8" font-family="Times,serif" font-size="14.00">TldrawBoardRepo</text>
</g>
<!-- TldrawBoardRepo&#45;&gt;TldrawWsTestModule -->
<g id="edge5" class="edge">
<title>TldrawBoardRepo&#45;&gt;TldrawWsTestModule</title>
<path fill="none" stroke="black" d="M894.23,-117.78C894.23,-117.78 894.23,-140.55 894.23,-140.55"/>
<polygon fill="black" stroke="black" points="890.73,-140.55 894.23,-150.55 897.73,-140.55 890.73,-140.55"/>
</g>
<!-- TldrawRedisFactory -->
<g id="node7" class="node">
<title>TldrawRedisFactory</title>
<ellipse fill="#fdb462" stroke="black" cx="757" cy="-104" rx="90.33" ry="18"/>
<text text-anchor="middle" x="757" y="-99.8" font-family="Times,serif" font-size="14.00">TldrawRedisFactory</text>
</g>
<!-- TldrawRedisFactory&#45;&gt;TldrawWsTestModule -->
<g id="edge6" class="edge">
<title>TldrawRedisFactory&#45;&gt;TldrawWsTestModule</title>
<path fill="none" stroke="black" d="M814.02,-118.1C814.02,-118.1 814.02,-140.72 814.02,-140.72"/>
<polygon fill="black" stroke="black" points="810.52,-140.72 814.02,-150.72 817.52,-140.72 810.52,-140.72"/>
</g>
<!-- TldrawRedisService -->
<g id="node8" class="node">
<title>TldrawRedisService</title>
<ellipse fill="#fdb462" stroke="black" cx="559" cy="-104" rx="89.74" ry="18"/>
<text text-anchor="middle" x="559" y="-99.8" font-family="Times,serif" font-size="14.00">TldrawRedisService</text>
</g>
<!-- TldrawRedisService&#45;&gt;TldrawWsTestModule -->
<g id="edge7" class="edge">
<title>TldrawRedisService&#45;&gt;TldrawWsTestModule</title>
<path fill="none" stroke="black" d="M559,-122.01C559,-138.05 559,-159 559,-159 559,-159 770.7,-159 770.7,-159"/>
<polygon fill="black" stroke="black" points="770.7,-162.5 780.7,-159 770.7,-155.5 770.7,-162.5"/>
</g>
<!-- TldrawRepo -->
<g id="node9" class="node">
<title>TldrawRepo</title>
<ellipse fill="#fdb462" stroke="black" cx="392" cy="-104" rx="59.11" ry="18"/>
<text text-anchor="middle" x="392" y="-99.8" font-family="Times,serif" font-size="14.00">TldrawRepo</text>
</g>
<!-- TldrawRepo&#45;&gt;TldrawWsTestModule -->
<g id="edge8" class="edge">
<title>TldrawRepo&#45;&gt;TldrawWsTestModule</title>
<path fill="none" stroke="black" d="M392,-122.27C392,-140.56 392,-166 392,-166 392,-166 770.63,-166 770.63,-166"/>
<polygon fill="black" stroke="black" points="770.63,-169.5 780.63,-166 770.63,-162.5 770.63,-169.5"/>
</g>
<!-- TldrawWsService -->
<g id="node10" class="node">
<title>TldrawWsService</title>
<ellipse fill="#fdb462" stroke="black" cx="234" cy="-104" rx="80.99" ry="18"/>
<text text-anchor="middle" x="234" y="-99.8" font-family="Times,serif" font-size="14.00">TldrawWsService</text>
</g>
<!-- TldrawWsService&#45;&gt;TldrawWsTestModule -->
<g id="edge9" class="edge">
<title>TldrawWsService&#45;&gt;TldrawWsTestModule</title>
<path fill="none" stroke="black" d="M234,-122.13C234,-142.57 234,-173 234,-173 234,-173 770.5,-173 770.5,-173"/>
<polygon fill="black" stroke="black" points="770.5,-176.5 780.5,-173 770.5,-169.5 770.5,-176.5"/>
</g>
<!-- YMongodb -->
<g id="node11" class="node">
<title>YMongodb</title>
<ellipse fill="#fdb462" stroke="black" cx="80" cy="-104" rx="55.63" ry="18"/>
<text text-anchor="middle" x="80" y="-99.8" font-family="Times,serif" font-size="14.00">YMongodb</text>
</g>
<!-- YMongodb&#45;&gt;TldrawWsTestModule -->
<g id="edge10" class="edge">
<title>YMongodb&#45;&gt;TldrawWsTestModule</title>
<path fill="none" stroke="black" d="M80,-122.01C80,-144.49 80,-180 80,-180 80,-180 770.76,-180 770.76,-180"/>
<polygon fill="black" stroke="black" points="770.76,-183.5 780.76,-180 770.76,-176.5 770.76,-183.5"/>
</g>
</g>
</svg>
