<?xml version="1.0" encoding="UTF-8" standalone="no"?>
<!DOCTYPE svg PUBLIC "-//W3C//DTD SVG 1.1//EN"
 "http://www.w3.org/Graphics/SVG/1.1/DTD/svg11.dtd">
<!-- Generated by graphviz version 2.47.0 (20210316.0004)
 -->
<!-- Title: dependencies Pages: 1 -->
<svg width="2149pt" height="211pt"
 viewBox="0.00 0.00 2149.00 211.00" xmlns="http://www.w3.org/2000/svg" xmlns:xlink="http://www.w3.org/1999/xlink">
<g id="graph0" class="graph" transform="scale(1 1) rotate(0) translate(4 207)">
<title>dependencies</title>
<polygon fill="white" stroke="transparent" points="-4,4 -4,-207 2145,-207 2145,4 -4,4"/>
<text text-anchor="start" x="1049.51" y="-42.4" font-family="Times-12" font-weight="bold" font-size="14.00">Legend</text>
<polygon fill="#ffffb3" stroke="transparent" points="836.5,-10 836.5,-30 856.5,-30 856.5,-10 836.5,-10"/>
<text text-anchor="start" x="860.13" y="-15.4" font-family="Times-12" font-size="14.00"> &#160;Declarations</text>
<polygon fill="#8dd3c7" stroke="transparent" points="949.5,-10 949.5,-30 969.5,-30 969.5,-10 949.5,-10"/>
<text text-anchor="start" x="973.23" y="-15.4" font-family="Times-12" font-size="14.00"> &#160;Module</text>
<polygon fill="#80b1d3" stroke="transparent" points="1035.5,-10 1035.5,-30 1055.5,-30 1055.5,-10 1035.5,-10"/>
<text text-anchor="start" x="1059.28" y="-15.4" font-family="Times-12" font-size="14.00"> &#160;Bootstrap</text>
<polygon fill="#fdb462" stroke="transparent" points="1132.5,-10 1132.5,-30 1152.5,-30 1152.5,-10 1132.5,-10"/>
<text text-anchor="start" x="1156.17" y="-15.4" font-family="Times-12" font-size="14.00"> &#160;Providers</text>
<polygon fill="#fb8072" stroke="transparent" points="1228.5,-10 1228.5,-30 1248.5,-30 1248.5,-10 1228.5,-10"/>
<text text-anchor="start" x="1252.23" y="-15.4" font-family="Times-12" font-size="14.00"> &#160;Exports</text>
<g id="clust1" class="cluster">
<title>cluster_TldrawWsTestModule</title>
<polygon fill="none" stroke="black" stroke-dasharray="1,5" points="8,-70 8,-195 2133,-195 2133,-70 8,-70"/>
</g>
<g id="clust3" class="cluster">
<title>cluster_TldrawWsTestModule_imports</title>
<polygon fill="none" stroke="black" points="1319,-78 1319,-130 2125,-130 2125,-78 1319,-78"/>
</g>
<g id="clust6" class="cluster">
<title>cluster_TldrawWsTestModule_providers</title>
<polygon fill="none" stroke="black" points="16,-78 16,-130 1311,-130 1311,-78 16,-78"/>
</g>
<!-- CoreModule -->
<g id="node1" class="node">
<title>CoreModule</title>
<polygon fill="#8dd3c7" stroke="black" points="2117.26,-122 2114.26,-126 2093.26,-126 2090.26,-122 2030.74,-122 2030.74,-86 2117.26,-86 2117.26,-122"/>
<text text-anchor="middle" x="2074" y="-99.8" font-family="Times,serif" font-size="14.00">CoreModule</text>
</g>
<!-- TldrawWsTestModule -->
<g id="node6" class="node">
<title>TldrawWsTestModule</title>
<polygon fill="#8dd3c7" stroke="black" points="1220.24,-187 1217.24,-191 1196.24,-191 1193.24,-187 1077.76,-187 1077.76,-151 1220.24,-151 1220.24,-187"/>
<text text-anchor="middle" x="1149" y="-164.8" font-family="Times,serif" font-size="14.00">TldrawWsTestModule</text>
</g>
<!-- CoreModule&#45;&gt;TldrawWsTestModule -->
<g id="edge1" class="edge">
<title>CoreModule&#45;&gt;TldrawWsTestModule</title>
<path fill="none" stroke="black" d="M2074,-122.09C2074,-145.13 2074,-182 2074,-182 2074,-182 1230.43,-182 1230.43,-182"/>
<polygon fill="black" stroke="black" points="1230.43,-178.5 1220.43,-182 1230.43,-185.5 1230.43,-178.5"/>
</g>
<!-- FilesStorageClientModule -->
<g id="node2" class="node">
<title>FilesStorageClientModule</title>
<polygon fill="#8dd3c7" stroke="black" points="2012.76,-122 2009.76,-126 1988.76,-126 1985.76,-122 1849.24,-122 1849.24,-86 2012.76,-86 2012.76,-122"/>
<text text-anchor="middle" x="1931" y="-99.8" font-family="Times,serif" font-size="14.00">FilesStorageClientModule</text>
</g>
<!-- FilesStorageClientModule&#45;&gt;TldrawWsTestModule -->
<g id="edge2" class="edge">
<title>FilesStorageClientModule&#45;&gt;TldrawWsTestModule</title>
<path fill="none" stroke="black" d="M1931,-122.28C1931,-143.32 1931,-175 1931,-175 1931,-175 1230.47,-175 1230.47,-175"/>
<polygon fill="black" stroke="black" points="1230.47,-171.5 1220.47,-175 1230.47,-178.5 1230.47,-171.5"/>
</g>
<!-- LoggerModule -->
<g id="node3" class="node">
<title>LoggerModule</title>
<polygon fill="#8dd3c7" stroke="black" points="1830.98,-122 1827.98,-126 1806.98,-126 1803.98,-122 1731.02,-122 1731.02,-86 1830.98,-86 1830.98,-122"/>
<text text-anchor="middle" x="1781" y="-99.8" font-family="Times,serif" font-size="14.00">LoggerModule</text>
</g>
<!-- LoggerModule&#45;&gt;TldrawWsTestModule -->
<g id="edge3" class="edge">
<title>LoggerModule&#45;&gt;TldrawWsTestModule</title>
<path fill="none" stroke="black" d="M1781,-122.11C1781,-141.34 1781,-169 1781,-169 1781,-169 1230.27,-169 1230.27,-169"/>
<polygon fill="black" stroke="black" points="1230.27,-165.5 1220.27,-169 1230.27,-172.5 1230.27,-165.5"/>
</g>
<!-- MongoMemoryDatabaseModule -->
<g id="node4" class="node">
<title>MongoMemoryDatabaseModule</title>
<polygon fill="#8dd3c7" stroke="black" points="1712.51,-122 1709.51,-126 1688.51,-126 1685.51,-122 1513.49,-122 1513.49,-86 1712.51,-86 1712.51,-122"/>
<text text-anchor="middle" x="1613" y="-99.8" font-family="Times,serif" font-size="14.00">MongoMemoryDatabaseModule</text>
</g>
<!-- MongoMemoryDatabaseModule&#45;&gt;TldrawWsTestModule -->
<g id="edge4" class="edge">
<title>MongoMemoryDatabaseModule&#45;&gt;TldrawWsTestModule</title>
<path fill="none" stroke="black" d="M1613,-122.02C1613,-139.37 1613,-163 1613,-163 1613,-163 1230.48,-163 1230.48,-163"/>
<polygon fill="black" stroke="black" points="1230.48,-159.5 1220.48,-163 1230.48,-166.5 1230.48,-159.5"/>
</g>
<!-- RabbitMQWrapperModule -->
<g id="node5" class="node">
<title>RabbitMQWrapperModule</title>
<polygon fill="#8dd3c7" stroke="black" points="1495.4,-122 1492.4,-126 1471.4,-126 1468.4,-122 1326.6,-122 1326.6,-86 1495.4,-86 1495.4,-122"/>
<text text-anchor="middle" x="1411" y="-99.8" font-family="Times,serif" font-size="14.00">RabbitMQWrapperModule</text>
</g>
<!-- RabbitMQWrapperModule&#45;&gt;TldrawWsTestModule -->
<g id="edge5" class="edge">
<title>RabbitMQWrapperModule&#45;&gt;TldrawWsTestModule</title>
<path fill="none" stroke="black" d="M1411,-122.24C1411,-137.57 1411,-157 1411,-157 1411,-157 1230.25,-157 1230.25,-157"/>
<polygon fill="black" stroke="black" points="1230.25,-153.5 1220.25,-157 1230.25,-160.5 1230.25,-153.5"/>
</g>
<!-- MetricsService -->
<g id="node7" class="node">
<title>MetricsService</title>
<ellipse fill="#fdb462" stroke="black" cx="1234" cy="-104" rx="69.47" ry="18"/>
<text text-anchor="middle" x="1234" y="-99.8" font-family="Times,serif" font-size="14.00">MetricsService</text>
</g>
<!-- MetricsService&#45;&gt;TldrawWsTestModule -->
<g id="edge6" class="edge">
<title>MetricsService&#45;&gt;TldrawWsTestModule</title>
<path fill="none" stroke="black" d="M1192.44,-118.75C1192.44,-118.75 1192.44,-140.59 1192.44,-140.59"/>
<polygon fill="black" stroke="black" points="1188.94,-140.59 1192.44,-150.59 1195.94,-140.59 1188.94,-140.59"/>
</g>
<!-- TldrawBoardRepo -->
<g id="node8" class="node">
<title>TldrawBoardRepo</title>
<ellipse fill="#fdb462" stroke="black" cx="1064" cy="-104" rx="82.81" ry="18"/>
<text text-anchor="middle" x="1064" y="-99.8" font-family="Times,serif" font-size="14.00">TldrawBoardRepo</text>
</g>
<!-- TldrawBoardRepo&#45;&gt;TldrawWsTestModule -->
<g id="edge7" class="edge">
<title>TldrawBoardRepo&#45;&gt;TldrawWsTestModule</title>
<path fill="none" stroke="black" d="M1112.27,-118.75C1112.27,-118.75 1112.27,-140.59 1112.27,-140.59"/>
<polygon fill="black" stroke="black" points="1108.77,-140.59 1112.27,-150.59 1115.77,-140.59 1108.77,-140.59"/>
</g>
<!-- TldrawFilesStorageAdapterService -->
<g id="node9" class="node">
<title>TldrawFilesStorageAdapterService</title>
<ellipse fill="#fdb462" stroke="black" cx="816" cy="-104" rx="147" ry="18"/>
<text text-anchor="middle" x="816" y="-99.8" font-family="Times,serif" font-size="14.00">TldrawFilesStorageAdapterService</text>
</g>
<!-- TldrawFilesStorageAdapterService&#45;&gt;TldrawWsTestModule -->
<g id="edge8" class="edge">
<title>TldrawFilesStorageAdapterService&#45;&gt;TldrawWsTestModule</title>
<path fill="none" stroke="black" d="M816,-122.24C816,-137.57 816,-157 816,-157 816,-157 1067.56,-157 1067.56,-157"/>
<polygon fill="black" stroke="black" points="1067.56,-160.5 1077.56,-157 1067.56,-153.5 1067.56,-160.5"/>
</g>
<!-- TldrawRedisFactory -->
<g id="node10" class="node">
<title>TldrawRedisFactory</title>
<ellipse fill="#fdb462" stroke="black" cx="560" cy="-104" rx="90.33" ry="18"/>
<text text-anchor="middle" x="560" y="-99.8" font-family="Times,serif" font-size="14.00">TldrawRedisFactory</text>
</g>
<!-- TldrawRedisFactory&#45;&gt;TldrawWsTestModule -->
<g id="edge9" class="edge">
<title>TldrawRedisFactory&#45;&gt;TldrawWsTestModule</title>
<path fill="none" stroke="black" d="M560,-122.02C560,-139.37 560,-163 560,-163 560,-163 1067.66,-163 1067.66,-163"/>
<polygon fill="black" stroke="black" points="1067.66,-166.5 1077.66,-163 1067.66,-159.5 1067.66,-166.5"/>
</g>
<!-- TldrawRepo -->
<g id="node11" class="node">
<title>TldrawRepo</title>
<ellipse fill="#fdb462" stroke="black" cx="392" cy="-104" rx="59.11" ry="18"/>
<text text-anchor="middle" x="392" y="-99.8" font-family="Times,serif" font-size="14.00">TldrawRepo</text>
</g>
<!-- TldrawRepo&#45;&gt;TldrawWsTestModule -->
<g id="edge10" class="edge">
<title>TldrawRepo&#45;&gt;TldrawWsTestModule</title>
<path fill="none" stroke="black" d="M392,-122.11C392,-141.34 392,-169 392,-169 392,-169 1067.44,-169 1067.44,-169"/>
<polygon fill="black" stroke="black" points="1067.44,-172.5 1077.44,-169 1067.44,-165.5 1067.44,-172.5"/>
</g>
<!-- TldrawWsService -->
<g id="node12" class="node">
<title>TldrawWsService</title>
<ellipse fill="#fdb462" stroke="black" cx="234" cy="-104" rx="80.99" ry="18"/>
<text text-anchor="middle" x="234" y="-99.8" font-family="Times,serif" font-size="14.00">TldrawWsService</text>
</g>
<!-- TldrawWsService&#45;&gt;TldrawWsTestModule -->
<g id="edge11" class="edge">
<title>TldrawWsService&#45;&gt;TldrawWsTestModule</title>
<path fill="none" stroke="black" d="M234,-122.28C234,-143.32 234,-175 234,-175 234,-175 1067.58,-175 1067.58,-175"/>
<polygon fill="black" stroke="black" points="1067.58,-178.5 1077.58,-175 1067.58,-171.5 1067.58,-178.5"/>
</g>
<!-- YMongodb -->
<g id="node13" class="node">
<title>YMongodb</title>
<ellipse fill="#fdb462" stroke="black" cx="80" cy="-104" rx="55.63" ry="18"/>
<text text-anchor="middle" x="80" y="-99.8" font-family="Times,serif" font-size="14.00">YMongodb</text>
</g>
<!-- YMongodb&#45;&gt;TldrawWsTestModule -->
<g id="edge12" class="edge">
<title>YMongodb&#45;&gt;TldrawWsTestModule</title>
<path fill="none" stroke="black" d="M80,-122.09C80,-145.13 80,-182 80,-182 80,-182 1067.62,-182 1067.62,-182"/>
<polygon fill="black" stroke="black" points="1067.62,-185.5 1077.62,-182 1067.62,-178.5 1067.62,-185.5"/>
</g>
</g>
</svg>
