<?xml version="1.0" encoding="UTF-8" standalone="no"?>
<!DOCTYPE svg PUBLIC "-//W3C//DTD SVG 1.1//EN"
 "http://www.w3.org/Graphics/SVG/1.1/DTD/svg11.dtd">
<!-- Generated by graphviz version 2.47.0 (20210316.0004)
 -->
<!-- Title: dependencies Pages: 1 -->
<svg width="4410pt" height="284pt"
 viewBox="0.00 0.00 4410.00 284.00" xmlns="http://www.w3.org/2000/svg" xmlns:xlink="http://www.w3.org/1999/xlink">
<g id="graph0" class="graph" transform="scale(1 1) rotate(0) translate(4 280)">
<title>dependencies</title>
<polygon fill="white" stroke="transparent" points="-4,4 -4,-280 4406,-280 4406,4 -4,4"/>
<text text-anchor="start" x="2180.01" y="-42.4" font-family="Times-12" font-weight="bold" font-size="14.00">Legend</text>
<polygon fill="#ffffb3" stroke="transparent" points="1967,-10 1967,-30 1987,-30 1987,-10 1967,-10"/>
<text text-anchor="start" x="1990.63" y="-15.4" font-family="Times-12" font-size="14.00"> &#160;Declarations</text>
<polygon fill="#8dd3c7" stroke="transparent" points="2080,-10 2080,-30 2100,-30 2100,-10 2080,-10"/>
<text text-anchor="start" x="2103.73" y="-15.4" font-family="Times-12" font-size="14.00"> &#160;Module</text>
<polygon fill="#80b1d3" stroke="transparent" points="2166,-10 2166,-30 2186,-30 2186,-10 2166,-10"/>
<text text-anchor="start" x="2189.78" y="-15.4" font-family="Times-12" font-size="14.00"> &#160;Bootstrap</text>
<polygon fill="#fdb462" stroke="transparent" points="2263,-10 2263,-30 2283,-30 2283,-10 2263,-10"/>
<text text-anchor="start" x="2286.67" y="-15.4" font-family="Times-12" font-size="14.00"> &#160;Providers</text>
<polygon fill="#fb8072" stroke="transparent" points="2359,-10 2359,-30 2379,-30 2379,-10 2359,-10"/>
<text text-anchor="start" x="2382.73" y="-15.4" font-family="Times-12" font-size="14.00"> &#160;Exports</text>
<g id="clust1" class="cluster">
<title>cluster_AuthorizationModule</title>
<polygon fill="none" stroke="black" stroke-dasharray="1,5" points="8,-70 8,-268 4394,-268 4394,-70 8,-70"/>
</g>
<g id="clust4" class="cluster">
<title>cluster_AuthorizationModule_exports</title>
<polygon fill="none" stroke="black" points="1809,-208 1809,-260 2275,-260 2275,-208 1809,-208"/>
</g>
<g id="clust6" class="cluster">
<title>cluster_AuthorizationModule_providers</title>
<polygon fill="none" stroke="black" points="264,-78 264,-130 4386,-130 4386,-78 264,-78"/>
</g>
<g id="clust3" class="cluster">
<title>cluster_AuthorizationModule_imports</title>
<polygon fill="none" stroke="black" points="16,-78 16,-130 256,-130 256,-78 16,-78"/>
</g>
<!-- FeathersModule -->
<g id="node1" class="node">
<title>FeathersModule</title>
<polygon fill="#8dd3c7" stroke="black" points="248.47,-122 245.47,-126 224.47,-126 221.47,-122 141.53,-122 141.53,-86 248.47,-86 248.47,-122"/>
<text text-anchor="middle" x="195" y="-99.8" font-family="Times,serif" font-size="14.00">FeathersModule</text>
</g>
<!-- AuthorizationModule -->
<g id="node3" class="node">
<title>AuthorizationModule</title>
<polygon fill="#8dd3c7" stroke="black" points="2084.81,-187 2081.81,-191 2060.81,-191 2057.81,-187 1947.19,-187 1947.19,-151 2084.81,-151 2084.81,-187"/>
<text text-anchor="middle" x="2016" y="-164.8" font-family="Times,serif" font-size="14.00">AuthorizationModule</text>
</g>
<!-- FeathersModule&#45;&gt;AuthorizationModule -->
<g id="edge1" class="edge">
<title>FeathersModule&#45;&gt;AuthorizationModule</title>
<path fill="none" stroke="black" d="M195,-122.01C195,-144.49 195,-180 195,-180 195,-180 1937.11,-180 1937.11,-180"/>
<polygon fill="black" stroke="black" points="1937.11,-183.5 1947.11,-180 1937.11,-176.5 1937.11,-183.5"/>
</g>
<!-- LoggerModule -->
<g id="node2" class="node">
<title>LoggerModule</title>
<polygon fill="#8dd3c7" stroke="black" points="123.98,-122 120.98,-126 99.98,-126 96.98,-122 24.02,-122 24.02,-86 123.98,-86 123.98,-122"/>
<text text-anchor="middle" x="74" y="-99.8" font-family="Times,serif" font-size="14.00">LoggerModule</text>
</g>
<!-- LoggerModule&#45;&gt;AuthorizationModule -->
<g id="edge2" class="edge">
<title>LoggerModule&#45;&gt;AuthorizationModule</title>
<path fill="none" stroke="black" d="M74,-122.09C74,-145.13 74,-182 74,-182 74,-182 1937.17,-182 1937.17,-182"/>
<polygon fill="black" stroke="black" points="1937.17,-185.5 1947.17,-182 1937.17,-178.5 1937.17,-185.5"/>
</g>
<!-- AuthorizationService  -->
<g id="node4" class="node">
<title>AuthorizationService </title>
<polygon fill="#fb8072" stroke="black" points="2266.74,-252 2127.26,-252 2127.26,-216 2266.74,-216 2266.74,-252"/>
<text text-anchor="middle" x="2197" y="-229.8" font-family="Times,serif" font-size="14.00">AuthorizationService </text>
</g>
<!-- AuthorizationModule&#45;&gt;AuthorizationService  -->
<g id="edge3" class="edge">
<title>AuthorizationModule&#45;&gt;AuthorizationService </title>
<path fill="none" stroke="black" stroke-dasharray="5,2" d="M2084.94,-185C2111.01,-185 2134.51,-185 2134.51,-185 2134.51,-185 2134.51,-205.75 2134.51,-205.75"/>
<polygon fill="black" stroke="black" points="2131.01,-205.75 2134.51,-215.75 2138.01,-205.75 2131.01,-205.75"/>
</g>
<!-- FeathersAuthorizationService  -->
<g id="node5" class="node">
<title>FeathersAuthorizationService </title>
<polygon fill="#fb8072" stroke="black" points="2109.16,-252 1922.84,-252 1922.84,-216 2109.16,-216 2109.16,-252"/>
<text text-anchor="middle" x="2016" y="-229.8" font-family="Times,serif" font-size="14.00">FeathersAuthorizationService </text>
</g>
<!-- AuthorizationModule&#45;&gt;FeathersAuthorizationService  -->
<g id="edge4" class="edge">
<title>AuthorizationModule&#45;&gt;FeathersAuthorizationService </title>
<path fill="none" stroke="black" stroke-dasharray="5,2" d="M2016,-187.11C2016,-187.11 2016,-205.99 2016,-205.99"/>
<polygon fill="black" stroke="black" points="2012.5,-205.99 2016,-215.99 2019.5,-205.99 2012.5,-205.99"/>
</g>
<!-- SystemRule  -->
<g id="node6" class="node">
<title>SystemRule </title>
<polygon fill="#fb8072" stroke="black" points="1904.66,-252 1817.34,-252 1817.34,-216 1904.66,-216 1904.66,-252"/>
<text text-anchor="middle" x="1861" y="-229.8" font-family="Times,serif" font-size="14.00">SystemRule </text>
</g>
<!-- AuthorizationModule&#45;&gt;SystemRule  -->
<g id="edge5" class="edge">
<title>AuthorizationModule&#45;&gt;SystemRule </title>
<path fill="none" stroke="black" stroke-dasharray="5,2" d="M1947.15,-185C1919.48,-185 1894,-185 1894,-185 1894,-185 1894,-205.75 1894,-205.75"/>
<polygon fill="black" stroke="black" points="1890.5,-205.75 1894,-215.75 1897.5,-205.75 1890.5,-205.75"/>
</g>
<!-- AuthorizationHelper -->
<g id="node7" class="node">
<title>AuthorizationHelper</title>
<ellipse fill="#fdb462" stroke="black" cx="4287" cy="-104" rx="90.89" ry="18"/>
<text text-anchor="middle" x="4287" y="-99.8" font-family="Times,serif" font-size="14.00">AuthorizationHelper</text>
</g>
<!-- AuthorizationHelper&#45;&gt;AuthorizationModule -->
<g id="edge6" class="edge">
<title>AuthorizationHelper&#45;&gt;AuthorizationModule</title>
<path fill="none" stroke="black" d="M4287,-122.09C4287,-145.13 4287,-182 4287,-182 4287,-182 2094.9,-182 2094.9,-182"/>
<polygon fill="black" stroke="black" points="2094.9,-178.5 2084.9,-182 2094.9,-185.5 2094.9,-178.5"/>
</g>
<!-- AuthorizationService -->
<g id="node8" class="node">
<title>AuthorizationService</title>
<ellipse fill="#fdb462" stroke="black" cx="4084" cy="-104" rx="93.76" ry="18"/>
<text text-anchor="middle" x="4084" y="-99.8" font-family="Times,serif" font-size="14.00">AuthorizationService</text>
</g>
<!-- AuthorizationService&#45;&gt;AuthorizationModule -->
<g id="edge7" class="edge">
<title>AuthorizationService&#45;&gt;AuthorizationModule</title>
<path fill="none" stroke="black" d="M4084,-122.01C4084,-144.49 4084,-180 4084,-180 4084,-180 2094.81,-180 2094.81,-180"/>
<polygon fill="black" stroke="black" points="2094.81,-176.5 2084.81,-180 2094.81,-183.5 2094.81,-176.5"/>
</g>
<!-- BoardNodeRule -->
<g id="node9" class="node">
<title>BoardNodeRule</title>
<ellipse fill="#fdb462" stroke="black" cx="3899" cy="-104" rx="73.58" ry="18"/>
<text text-anchor="middle" x="3899" y="-99.8" font-family="Times,serif" font-size="14.00">BoardNodeRule</text>
</g>
<!-- BoardNodeRule&#45;&gt;AuthorizationModule -->
<g id="edge8" class="edge">
<title>BoardNodeRule&#45;&gt;AuthorizationModule</title>
<path fill="none" stroke="black" d="M3899,-122.04C3899,-143.66 3899,-177 3899,-177 3899,-177 2094.69,-177 2094.69,-177"/>
<polygon fill="black" stroke="black" points="2094.69,-173.5 2084.69,-177 2094.69,-180.5 2094.69,-173.5"/>
</g>
<!-- ContextExternalToolRule -->
<g id="node10" class="node">
<title>ContextExternalToolRule</title>
<ellipse fill="#fdb462" stroke="black" cx="3696" cy="-104" rx="110.61" ry="18"/>
<text text-anchor="middle" x="3696" y="-99.8" font-family="Times,serif" font-size="14.00">ContextExternalToolRule</text>
</g>
<!-- ContextExternalToolRule&#45;&gt;AuthorizationModule -->
<g id="edge9" class="edge">
<title>ContextExternalToolRule&#45;&gt;AuthorizationModule</title>
<path fill="none" stroke="black" d="M3696,-122.28C3696,-143.32 3696,-175 3696,-175 3696,-175 2094.73,-175 2094.73,-175"/>
<polygon fill="black" stroke="black" points="2094.73,-171.5 2084.73,-175 2094.73,-178.5 2094.73,-171.5"/>
</g>
<!-- CourseGroupRule -->
<g id="node11" class="node">
<title>CourseGroupRule</title>
<ellipse fill="#fdb462" stroke="black" cx="3486" cy="-104" rx="81.1" ry="18"/>
<text text-anchor="middle" x="3486" y="-99.8" font-family="Times,serif" font-size="14.00">CourseGroupRule</text>
</g>
<!-- CourseGroupRule&#45;&gt;AuthorizationModule -->
<g id="edge10" class="edge">
<title>CourseGroupRule&#45;&gt;AuthorizationModule</title>
<path fill="none" stroke="black" d="M3486,-122.22C3486,-142.37 3486,-172 3486,-172 3486,-172 2094.93,-172 2094.93,-172"/>
<polygon fill="black" stroke="black" points="2094.93,-168.5 2084.93,-172 2094.93,-175.5 2094.93,-168.5"/>
</g>
<!-- CourseRule -->
<g id="node12" class="node">
<title>CourseRule</title>
<ellipse fill="#fdb462" stroke="black" cx="3330" cy="-104" rx="56.76" ry="18"/>
<text text-anchor="middle" x="3330" y="-99.8" font-family="Times,serif" font-size="14.00">CourseRule</text>
</g>
<!-- CourseRule&#45;&gt;AuthorizationModule -->
<g id="edge11" class="edge">
<title>CourseRule&#45;&gt;AuthorizationModule</title>
<path fill="none" stroke="black" d="M3330,-122.11C3330,-141.34 3330,-169 3330,-169 3330,-169 2094.8,-169 2094.8,-169"/>
<polygon fill="black" stroke="black" points="2094.8,-165.5 2084.8,-169 2094.8,-172.5 2094.8,-165.5"/>
</g>
<!-- ExternalToolRule -->
<g id="node13" class="node">
<title>ExternalToolRule</title>
<ellipse fill="#fdb462" stroke="black" cx="3175" cy="-104" rx="80.46" ry="18"/>
<text text-anchor="middle" x="3175" y="-99.8" font-family="Times,serif" font-size="14.00">ExternalToolRule</text>
</g>
<!-- ExternalToolRule&#45;&gt;AuthorizationModule -->
<g id="edge12" class="edge">
<title>ExternalToolRule&#45;&gt;AuthorizationModule</title>
<path fill="none" stroke="black" d="M3175,-122.22C3175,-140.83 3175,-167 3175,-167 3175,-167 2095.03,-167 2095.03,-167"/>
<polygon fill="black" stroke="black" points="2095.03,-163.5 2085.03,-167 2095.03,-170.5 2095.03,-163.5"/>
</g>
<!-- FeathersAuthProvider -->
<g id="node14" class="node">
<title>FeathersAuthProvider</title>
<ellipse fill="#fdb462" stroke="black" cx="2980" cy="-104" rx="96.13" ry="18"/>
<text text-anchor="middle" x="2980" y="-99.8" font-family="Times,serif" font-size="14.00">FeathersAuthProvider</text>
</g>
<!-- FeathersAuthProvider&#45;&gt;AuthorizationModule -->
<g id="edge13" class="edge">
<title>FeathersAuthProvider&#45;&gt;AuthorizationModule</title>
<path fill="none" stroke="black" d="M2980,-122C2980,-139.68 2980,-164 2980,-164 2980,-164 2094.94,-164 2094.94,-164"/>
<polygon fill="black" stroke="black" points="2094.94,-160.5 2084.94,-164 2094.94,-167.5 2094.94,-160.5"/>
</g>
<!-- FeathersAuthorizationService -->
<g id="node15" class="node">
<title>FeathersAuthorizationService</title>
<ellipse fill="#fdb462" stroke="black" cx="2739" cy="-104" rx="126.18" ry="18"/>
<text text-anchor="middle" x="2739" y="-99.8" font-family="Times,serif" font-size="14.00">FeathersAuthorizationService</text>
</g>
<!-- FeathersAuthorizationService&#45;&gt;AuthorizationModule -->
<g id="edge14" class="edge">
<title>FeathersAuthorizationService&#45;&gt;AuthorizationModule</title>
<path fill="none" stroke="black" d="M2739,-122.03C2739,-139.06 2739,-162 2739,-162 2739,-162 2094.67,-162 2094.67,-162"/>
<polygon fill="black" stroke="black" points="2094.67,-158.5 2084.67,-162 2094.67,-165.5 2094.67,-158.5"/>
</g>
<!-- GroupRule -->
<g id="node16" class="node">
<title>GroupRule</title>
<ellipse fill="#fdb462" stroke="black" cx="2541" cy="-104" rx="53.89" ry="18"/>
<text text-anchor="middle" x="2541" y="-99.8" font-family="Times,serif" font-size="14.00">GroupRule</text>
</g>
<!-- GroupRule&#45;&gt;AuthorizationModule -->
<g id="edge15" class="edge">
<title>GroupRule&#45;&gt;AuthorizationModule</title>
<path fill="none" stroke="black" d="M2541,-122.01C2541,-138.05 2541,-159 2541,-159 2541,-159 2094.9,-159 2094.9,-159"/>
<polygon fill="black" stroke="black" points="2094.9,-155.5 2084.9,-159 2094.9,-162.5 2094.9,-155.5"/>
</g>
<!-- InstanceRule -->
<g id="node17" class="node">
<title>InstanceRule</title>
<ellipse fill="#fdb462" stroke="black" cx="2408" cy="-104" rx="61.39" ry="18"/>
<text text-anchor="middle" x="2408" y="-99.8" font-family="Times,serif" font-size="14.00">InstanceRule</text>
</g>
<!-- InstanceRule&#45;&gt;AuthorizationModule -->
<g id="edge16" class="edge">
<title>InstanceRule&#45;&gt;AuthorizationModule</title>
<path fill="none" stroke="black" d="M2408,-122.24C2408,-137.57 2408,-157 2408,-157 2408,-157 2094.73,-157 2094.73,-157"/>
<polygon fill="black" stroke="black" points="2094.73,-153.5 2084.73,-157 2094.73,-160.5 2094.73,-153.5"/>
</g>
<!-- LegacySchoolRule -->
<g id="node18" class="node">
<title>LegacySchoolRule</title>
<ellipse fill="#fdb462" stroke="black" cx="2244" cy="-104" rx="84.53" ry="18"/>
<text text-anchor="middle" x="2244" y="-99.8" font-family="Times,serif" font-size="14.00">LegacySchoolRule</text>
</g>
<!-- LegacySchoolRule&#45;&gt;AuthorizationModule -->
<g id="edge17" class="edge">
<title>LegacySchoolRule&#45;&gt;AuthorizationModule</title>
<path fill="none" stroke="black" d="M2213.05,-120.93C2213.05,-135.43 2213.05,-154 2213.05,-154 2213.05,-154 2094.92,-154 2094.92,-154"/>
<polygon fill="black" stroke="black" points="2094.92,-150.5 2084.92,-154 2094.92,-157.5 2094.92,-150.5"/>
</g>
<!-- LessonRule -->
<g id="node19" class="node">
<title>LessonRule</title>
<ellipse fill="#fdb462" stroke="black" cx="2085" cy="-104" rx="56.76" ry="18"/>
<text text-anchor="middle" x="2085" y="-99.8" font-family="Times,serif" font-size="14.00">LessonRule</text>
</g>
<!-- LessonRule&#45;&gt;AuthorizationModule -->
<g id="edge18" class="edge">
<title>LessonRule&#45;&gt;AuthorizationModule</title>
<path fill="none" stroke="black" d="M2056.51,-119.73C2056.51,-119.73 2056.51,-140.65 2056.51,-140.65"/>
<polygon fill="black" stroke="black" points="2053.01,-140.65 2056.51,-150.65 2060.01,-140.65 2053.01,-140.65"/>
</g>
<!-- RuleManager -->
<g id="node20" class="node">
<title>RuleManager</title>
<ellipse fill="#fdb462" stroke="black" cx="1947" cy="-104" rx="63.68" ry="18"/>
<text text-anchor="middle" x="1947" y="-99.8" font-family="Times,serif" font-size="14.00">RuleManager</text>
</g>
<!-- RuleManager&#45;&gt;AuthorizationModule -->
<g id="edge19" class="edge">
<title>RuleManager&#45;&gt;AuthorizationModule</title>
<path fill="none" stroke="black" d="M1978.97,-119.73C1978.97,-119.73 1978.97,-140.65 1978.97,-140.65"/>
<polygon fill="black" stroke="black" points="1975.47,-140.65 1978.97,-150.65 1982.47,-140.65 1975.47,-140.65"/>
</g>
<!-- SchoolExternalToolRule -->
<g id="node21" class="node">
<title>SchoolExternalToolRule</title>
<ellipse fill="#fdb462" stroke="black" cx="1758" cy="-104" rx="107.1" ry="18"/>
<text text-anchor="middle" x="1758" y="-99.8" font-family="Times,serif" font-size="14.00">SchoolExternalToolRule</text>
</g>
<!-- SchoolExternalToolRule&#45;&gt;AuthorizationModule -->
<g id="edge20" class="edge">
<title>SchoolExternalToolRule&#45;&gt;AuthorizationModule</title>
<path fill="none" stroke="black" d="M1841.23,-115.6C1841.23,-130.37 1841.23,-154 1841.23,-154 1841.23,-154 1937.18,-154 1937.18,-154"/>
<polygon fill="black" stroke="black" points="1937.18,-157.5 1947.18,-154 1937.18,-150.5 1937.18,-157.5"/>
</g>
<!-- SchoolRule -->
<g id="node22" class="node">
<title>SchoolRule</title>
<ellipse fill="#fdb462" stroke="black" cx="1577" cy="-104" rx="56.2" ry="18"/>
<text text-anchor="middle" x="1577" y="-99.8" font-family="Times,serif" font-size="14.00">SchoolRule</text>
</g>
<!-- SchoolRule&#45;&gt;AuthorizationModule -->
<g id="edge21" class="edge">
<title>SchoolRule&#45;&gt;AuthorizationModule</title>
<path fill="none" stroke="black" d="M1577,-122.24C1577,-137.57 1577,-157 1577,-157 1577,-157 1936.92,-157 1936.92,-157"/>
<polygon fill="black" stroke="black" points="1936.92,-160.5 1946.92,-157 1936.92,-153.5 1936.92,-160.5"/>
</g>
<!-- SchoolSystemOptionsRule -->
<g id="node23" class="node">
<title>SchoolSystemOptionsRule</title>
<ellipse fill="#fdb462" stroke="black" cx="1388" cy="-104" rx="115.23" ry="18"/>
<text text-anchor="middle" x="1388" y="-99.8" font-family="Times,serif" font-size="14.00">SchoolSystemOptionsRule</text>
</g>
<!-- SchoolSystemOptionsRule&#45;&gt;AuthorizationModule -->
<g id="edge22" class="edge">
<title>SchoolSystemOptionsRule&#45;&gt;AuthorizationModule</title>
<path fill="none" stroke="black" d="M1388,-122.01C1388,-138.05 1388,-159 1388,-159 1388,-159 1937.3,-159 1937.3,-159"/>
<polygon fill="black" stroke="black" points="1937.3,-162.5 1947.3,-159 1937.3,-155.5 1937.3,-162.5"/>
</g>
<!-- SubmissionRule -->
<g id="node24" class="node">
<title>SubmissionRule</title>
<ellipse fill="#fdb462" stroke="black" cx="1181" cy="-104" rx="74.2" ry="18"/>
<text text-anchor="middle" x="1181" y="-99.8" font-family="Times,serif" font-size="14.00">SubmissionRule</text>
</g>
<!-- SubmissionRule&#45;&gt;AuthorizationModule -->
<g id="edge23" class="edge">
<title>SubmissionRule&#45;&gt;AuthorizationModule</title>
<path fill="none" stroke="black" d="M1181,-122.03C1181,-139.06 1181,-162 1181,-162 1181,-162 1937.31,-162 1937.31,-162"/>
<polygon fill="black" stroke="black" points="1937.31,-165.5 1947.31,-162 1937.31,-158.5 1937.31,-165.5"/>
</g>
<!-- SystemRule -->
<g id="node25" class="node">
<title>SystemRule</title>
<ellipse fill="#fdb462" stroke="black" cx="1031" cy="-104" rx="57.92" ry="18"/>
<text text-anchor="middle" x="1031" y="-99.8" font-family="Times,serif" font-size="14.00">SystemRule</text>
</g>
<!-- SystemRule&#45;&gt;AuthorizationModule -->
<g id="edge24" class="edge">
<title>SystemRule&#45;&gt;AuthorizationModule</title>
<path fill="none" stroke="black" d="M1031,-122C1031,-139.68 1031,-164 1031,-164 1031,-164 1937.13,-164 1937.13,-164"/>
<polygon fill="black" stroke="black" points="1937.13,-167.5 1947.13,-164 1937.13,-160.5 1937.13,-167.5"/>
</g>
<!-- TaskRule -->
<g id="node26" class="node">
<title>TaskRule</title>
<ellipse fill="#fdb462" stroke="black" cx="907" cy="-104" rx="48.09" ry="18"/>
<text text-anchor="middle" x="907" y="-99.8" font-family="Times,serif" font-size="14.00">TaskRule</text>
</g>
<!-- TaskRule&#45;&gt;AuthorizationModule -->
<g id="edge25" class="edge">
<title>TaskRule&#45;&gt;AuthorizationModule</title>
<path fill="none" stroke="black" d="M907,-122.22C907,-140.83 907,-167 907,-167 907,-167 1937.05,-167 1937.05,-167"/>
<polygon fill="black" stroke="black" points="1937.05,-170.5 1947.05,-167 1937.05,-163.5 1937.05,-170.5"/>
</g>
<!-- TeamRule -->
<g id="node27" class="node">
<title>TeamRule</title>
<ellipse fill="#fdb462" stroke="black" cx="790" cy="-104" rx="51.02" ry="18"/>
<text text-anchor="middle" x="790" y="-99.8" font-family="Times,serif" font-size="14.00">TeamRule</text>
</g>
<!-- TeamRule&#45;&gt;AuthorizationModule -->
<g id="edge26" class="edge">
<title>TeamRule&#45;&gt;AuthorizationModule</title>
<path fill="none" stroke="black" d="M790,-122.11C790,-141.34 790,-169 790,-169 790,-169 1937.02,-169 1937.02,-169"/>
<polygon fill="black" stroke="black" points="1937.02,-172.5 1947.02,-169 1937.02,-165.5 1937.02,-172.5"/>
</g>
<!-- UserLoginMigrationRule -->
<g id="node28" class="node">
<title>UserLoginMigrationRule</title>
<ellipse fill="#fdb462" stroke="black" cx="612" cy="-104" rx="109.39" ry="18"/>
<text text-anchor="middle" x="612" y="-99.8" font-family="Times,serif" font-size="14.00">UserLoginMigrationRule</text>
</g>
<!-- UserLoginMigrationRule&#45;&gt;AuthorizationModule -->
<g id="edge27" class="edge">
<title>UserLoginMigrationRule&#45;&gt;AuthorizationModule</title>
<path fill="none" stroke="black" d="M612,-122.22C612,-142.37 612,-172 612,-172 612,-172 1937.33,-172 1937.33,-172"/>
<polygon fill="black" stroke="black" points="1937.33,-175.5 1947.33,-172 1937.33,-168.5 1937.33,-175.5"/>
</g>
<!-- UserRepo -->
<g id="node29" class="node">
<title>UserRepo</title>
<ellipse fill="#fdb462" stroke="black" cx="435" cy="-104" rx="49.8" ry="18"/>
<text text-anchor="middle" x="435" y="-99.8" font-family="Times,serif" font-size="14.00">UserRepo</text>
</g>
<!-- UserRepo&#45;&gt;AuthorizationModule -->
<g id="edge28" class="edge">
<title>UserRepo&#45;&gt;AuthorizationModule</title>
<path fill="none" stroke="black" d="M435,-122.28C435,-143.32 435,-175 435,-175 435,-175 1937.3,-175 1937.3,-175"/>
<polygon fill="black" stroke="black" points="1937.3,-178.5 1947.3,-175 1937.3,-171.5 1937.3,-178.5"/>
</g>
<!-- UserRule -->
<g id="node30" class="node">
<title>UserRule</title>
<ellipse fill="#fdb462" stroke="black" cx="320" cy="-104" rx="47.51" ry="18"/>
<text text-anchor="middle" x="320" y="-99.8" font-family="Times,serif" font-size="14.00">UserRule</text>
</g>
<!-- UserRule&#45;&gt;AuthorizationModule -->
<g id="edge29" class="edge">
<title>UserRule&#45;&gt;AuthorizationModule</title>
<path fill="none" stroke="black" d="M320,-122.04C320,-143.66 320,-177 320,-177 320,-177 1937.15,-177 1937.15,-177"/>
<polygon fill="black" stroke="black" points="1937.15,-180.5 1947.15,-177 1937.15,-173.5 1937.15,-180.5"/>
</g>
</g>
</svg>
