<?xml version="1.0" encoding="UTF-8" standalone="no"?>
<!DOCTYPE svg PUBLIC "-//W3C//DTD SVG 1.1//EN"
 "http://www.w3.org/Graphics/SVG/1.1/DTD/svg11.dtd">
<!-- Generated by graphviz version 2.47.0 (20210316.0004)
 -->
<!-- Title: dependencies Pages: 1 -->
<svg width="4071pt" height="284pt"
 viewBox="0.00 0.00 4071.00 284.00" xmlns="http://www.w3.org/2000/svg" xmlns:xlink="http://www.w3.org/1999/xlink">
<g id="graph0" class="graph" transform="scale(1 1) rotate(0) translate(4 280)">
<title>dependencies</title>
<polygon fill="white" stroke="transparent" points="-4,4 -4,-280 4067,-280 4067,4 -4,4"/>
<text text-anchor="start" x="2010.51" y="-42.4" font-family="Times-12" font-weight="bold" font-size="14.00">Legend</text>
<polygon fill="#ffffb3" stroke="transparent" points="1797.5,-10 1797.5,-30 1817.5,-30 1817.5,-10 1797.5,-10"/>
<text text-anchor="start" x="1821.13" y="-15.4" font-family="Times-12" font-size="14.00"> &#160;Declarations</text>
<polygon fill="#8dd3c7" stroke="transparent" points="1910.5,-10 1910.5,-30 1930.5,-30 1930.5,-10 1910.5,-10"/>
<text text-anchor="start" x="1934.23" y="-15.4" font-family="Times-12" font-size="14.00"> &#160;Module</text>
<polygon fill="#80b1d3" stroke="transparent" points="1996.5,-10 1996.5,-30 2016.5,-30 2016.5,-10 1996.5,-10"/>
<text text-anchor="start" x="2020.28" y="-15.4" font-family="Times-12" font-size="14.00"> &#160;Bootstrap</text>
<polygon fill="#fdb462" stroke="transparent" points="2093.5,-10 2093.5,-30 2113.5,-30 2113.5,-10 2093.5,-10"/>
<text text-anchor="start" x="2117.17" y="-15.4" font-family="Times-12" font-size="14.00"> &#160;Providers</text>
<polygon fill="#fb8072" stroke="transparent" points="2189.5,-10 2189.5,-30 2209.5,-30 2209.5,-10 2189.5,-10"/>
<text text-anchor="start" x="2213.23" y="-15.4" font-family="Times-12" font-size="14.00"> &#160;Exports</text>
<g id="clust1" class="cluster">
<title>cluster_AuthorizationModule</title>
<polygon fill="none" stroke="black" stroke-dasharray="1,5" points="8,-70 8,-268 4055,-268 4055,-70 8,-70"/>
</g>
<g id="clust6" class="cluster">
<title>cluster_AuthorizationModule_providers</title>
<polygon fill="none" stroke="black" points="264,-78 264,-130 4047,-130 4047,-78 264,-78"/>
</g>
<g id="clust3" class="cluster">
<title>cluster_AuthorizationModule_imports</title>
<polygon fill="none" stroke="black" points="16,-78 16,-130 256,-130 256,-78 16,-78"/>
</g>
<g id="clust4" class="cluster">
<title>cluster_AuthorizationModule_exports</title>
<polygon fill="none" stroke="black" points="1645,-208 1645,-260 2111,-260 2111,-208 1645,-208"/>
</g>
<!-- FeathersModule -->
<g id="node1" class="node">
<title>FeathersModule</title>
<polygon fill="#8dd3c7" stroke="black" points="248.47,-122 245.47,-126 224.47,-126 221.47,-122 141.53,-122 141.53,-86 248.47,-86 248.47,-122"/>
<text text-anchor="middle" x="195" y="-99.8" font-family="Times,serif" font-size="14.00">FeathersModule</text>
</g>
<!-- AuthorizationModule -->
<g id="node3" class="node">
<title>AuthorizationModule</title>
<polygon fill="#8dd3c7" stroke="black" points="1920.81,-187 1917.81,-191 1896.81,-191 1893.81,-187 1783.19,-187 1783.19,-151 1920.81,-151 1920.81,-187"/>
<text text-anchor="middle" x="1852" y="-164.8" font-family="Times,serif" font-size="14.00">AuthorizationModule</text>
</g>
<!-- FeathersModule&#45;&gt;AuthorizationModule -->
<g id="edge1" class="edge">
<title>FeathersModule&#45;&gt;AuthorizationModule</title>
<path fill="none" stroke="black" d="M195,-122.16C195,-144.35 195,-179 195,-179 195,-179 1773.17,-179 1773.17,-179"/>
<polygon fill="black" stroke="black" points="1773.17,-182.5 1783.17,-179 1773.17,-175.5 1773.17,-182.5"/>
</g>
<!-- LoggerModule -->
<g id="node2" class="node">
<title>LoggerModule</title>
<polygon fill="#8dd3c7" stroke="black" points="123.98,-122 120.98,-126 99.98,-126 96.98,-122 24.02,-122 24.02,-86 123.98,-86 123.98,-122"/>
<text text-anchor="middle" x="74" y="-99.8" font-family="Times,serif" font-size="14.00">LoggerModule</text>
</g>
<!-- LoggerModule&#45;&gt;AuthorizationModule -->
<g id="edge2" class="edge">
<title>LoggerModule&#45;&gt;AuthorizationModule</title>
<path fill="none" stroke="black" d="M74,-122.09C74,-145.13 74,-182 74,-182 74,-182 1773.12,-182 1773.12,-182"/>
<polygon fill="black" stroke="black" points="1773.12,-185.5 1783.12,-182 1773.12,-178.5 1773.12,-185.5"/>
</g>
<!-- AuthorizationService  -->
<g id="node4" class="node">
<title>AuthorizationService </title>
<polygon fill="#fb8072" stroke="black" points="2102.74,-252 1963.26,-252 1963.26,-216 2102.74,-216 2102.74,-252"/>
<text text-anchor="middle" x="2033" y="-229.8" font-family="Times,serif" font-size="14.00">AuthorizationService </text>
</g>
<!-- AuthorizationModule&#45;&gt;AuthorizationService  -->
<g id="edge3" class="edge">
<title>AuthorizationModule&#45;&gt;AuthorizationService </title>
<path fill="none" stroke="black" stroke-dasharray="5,2" d="M1920.68,-185C1954.03,-185 1986.99,-185 1986.99,-185 1986.99,-185 1986.99,-205.75 1986.99,-205.75"/>
<polygon fill="black" stroke="black" points="1983.49,-205.75 1986.99,-215.75 1990.49,-205.75 1983.49,-205.75"/>
</g>
<!-- FeathersAuthorizationService  -->
<g id="node5" class="node">
<title>FeathersAuthorizationService </title>
<polygon fill="#fb8072" stroke="black" points="1945.16,-252 1758.84,-252 1758.84,-216 1945.16,-216 1945.16,-252"/>
<text text-anchor="middle" x="1852" y="-229.8" font-family="Times,serif" font-size="14.00">FeathersAuthorizationService </text>
</g>
<!-- AuthorizationModule&#45;&gt;FeathersAuthorizationService  -->
<g id="edge4" class="edge">
<title>AuthorizationModule&#45;&gt;FeathersAuthorizationService </title>
<path fill="none" stroke="black" stroke-dasharray="5,2" d="M1852,-187.11C1852,-187.11 1852,-205.99 1852,-205.99"/>
<polygon fill="black" stroke="black" points="1848.5,-205.99 1852,-215.99 1855.5,-205.99 1848.5,-205.99"/>
</g>
<!-- SystemRule  -->
<g id="node6" class="node">
<title>SystemRule </title>
<polygon fill="#fb8072" stroke="black" points="1740.66,-252 1653.34,-252 1653.34,-216 1740.66,-216 1740.66,-252"/>
<text text-anchor="middle" x="1697" y="-229.8" font-family="Times,serif" font-size="14.00">SystemRule </text>
</g>
<!-- AuthorizationModule&#45;&gt;SystemRule  -->
<g id="edge5" class="edge">
<title>AuthorizationModule&#45;&gt;SystemRule </title>
<path fill="none" stroke="black" stroke-dasharray="5,2" d="M1783.11,-185C1741.72,-185 1697,-185 1697,-185 1697,-185 1697,-205.75 1697,-205.75"/>
<polygon fill="black" stroke="black" points="1693.5,-205.75 1697,-215.75 1700.5,-205.75 1693.5,-205.75"/>
</g>
<!-- AuthorizationHelper -->
<g id="node7" class="node">
<title>AuthorizationHelper</title>
<ellipse fill="#fdb462" stroke="black" cx="3948" cy="-104" rx="90.89" ry="18"/>
<text text-anchor="middle" x="3948" y="-99.8" font-family="Times,serif" font-size="14.00">AuthorizationHelper</text>
</g>
<!-- AuthorizationHelper&#45;&gt;AuthorizationModule -->
<g id="edge6" class="edge">
<title>AuthorizationHelper&#45;&gt;AuthorizationModule</title>
<path fill="none" stroke="black" d="M3948,-122.09C3948,-145.13 3948,-182 3948,-182 3948,-182 1930.84,-182 1930.84,-182"/>
<polygon fill="black" stroke="black" points="1930.84,-178.5 1920.84,-182 1930.84,-185.5 1930.84,-178.5"/>
</g>
<!-- AuthorizationService -->
<g id="node8" class="node">
<title>AuthorizationService</title>
<ellipse fill="#fdb462" stroke="black" cx="3745" cy="-104" rx="93.76" ry="18"/>
<text text-anchor="middle" x="3745" y="-99.8" font-family="Times,serif" font-size="14.00">AuthorizationService</text>
</g>
<!-- AuthorizationService&#45;&gt;AuthorizationModule -->
<g id="edge7" class="edge">
<title>AuthorizationService&#45;&gt;AuthorizationModule</title>
<path fill="none" stroke="black" d="M3745,-122.16C3745,-144.35 3745,-179 3745,-179 3745,-179 1930.77,-179 1930.77,-179"/>
<polygon fill="black" stroke="black" points="1930.77,-175.5 1920.77,-179 1930.77,-182.5 1930.77,-175.5"/>
</g>
<!-- BoardDoRule -->
<g id="node9" class="node">
<title>BoardDoRule</title>
<ellipse fill="#fdb462" stroke="black" cx="3569" cy="-104" rx="64.85" ry="18"/>
<text text-anchor="middle" x="3569" y="-99.8" font-family="Times,serif" font-size="14.00">BoardDoRule</text>
</g>
<!-- BoardDoRule&#45;&gt;AuthorizationModule -->
<g id="edge8" class="edge">
<title>BoardDoRule&#45;&gt;AuthorizationModule</title>
<path fill="none" stroke="black" d="M3569,-122.17C3569,-143.5 3569,-176 3569,-176 3569,-176 1930.9,-176 1930.9,-176"/>
<polygon fill="black" stroke="black" points="1930.9,-172.5 1920.9,-176 1930.9,-179.5 1930.9,-172.5"/>
</g>
<!-- ContextExternalToolRule -->
<g id="node10" class="node">
<title>ContextExternalToolRule</title>
<ellipse fill="#fdb462" stroke="black" cx="3376" cy="-104" rx="110.61" ry="18"/>
<text text-anchor="middle" x="3376" y="-99.8" font-family="Times,serif" font-size="14.00">ContextExternalToolRule</text>
</g>
<!-- ContextExternalToolRule&#45;&gt;AuthorizationModule -->
<g id="edge9" class="edge">
<title>ContextExternalToolRule&#45;&gt;AuthorizationModule</title>
<path fill="none" stroke="black" d="M3376,-122.03C3376,-142.77 3376,-174 3376,-174 3376,-174 1930.94,-174 1930.94,-174"/>
<polygon fill="black" stroke="black" points="1930.94,-170.5 1920.94,-174 1930.94,-177.5 1930.94,-170.5"/>
</g>
<!-- CourseGroupRule -->
<g id="node11" class="node">
<title>CourseGroupRule</title>
<ellipse fill="#fdb462" stroke="black" cx="3166" cy="-104" rx="81.1" ry="18"/>
<text text-anchor="middle" x="3166" y="-99.8" font-family="Times,serif" font-size="14.00">CourseGroupRule</text>
</g>
<!-- CourseGroupRule&#45;&gt;AuthorizationModule -->
<g id="edge10" class="edge">
<title>CourseGroupRule&#45;&gt;AuthorizationModule</title>
<path fill="none" stroke="black" d="M3166,-122.31C3166,-142.15 3166,-171 3166,-171 3166,-171 1930.8,-171 1930.8,-171"/>
<polygon fill="black" stroke="black" points="1930.8,-167.5 1920.8,-171 1930.8,-174.5 1930.8,-167.5"/>
</g>
<!-- CourseRule -->
<g id="node12" class="node">
<title>CourseRule</title>
<ellipse fill="#fdb462" stroke="black" cx="3010" cy="-104" rx="56.76" ry="18"/>
<text text-anchor="middle" x="3010" y="-99.8" font-family="Times,serif" font-size="14.00">CourseRule</text>
</g>
<!-- CourseRule&#45;&gt;AuthorizationModule -->
<g id="edge11" class="edge">
<title>CourseRule&#45;&gt;AuthorizationModule</title>
<path fill="none" stroke="black" d="M3010,-122.17C3010,-141.09 3010,-168 3010,-168 3010,-168 1930.97,-168 1930.97,-168"/>
<polygon fill="black" stroke="black" points="1930.97,-164.5 1920.97,-168 1930.97,-171.5 1930.97,-164.5"/>
</g>
<!-- FeathersAuthProvider -->
<g id="node13" class="node">
<title>FeathersAuthProvider</title>
<ellipse fill="#fdb462" stroke="black" cx="2839" cy="-104" rx="96.13" ry="18"/>
<text text-anchor="middle" x="2839" y="-99.8" font-family="Times,serif" font-size="14.00">FeathersAuthProvider</text>
</g>
<!-- FeathersAuthProvider&#45;&gt;AuthorizationModule -->
<g id="edge12" class="edge">
<title>FeathersAuthProvider&#45;&gt;AuthorizationModule</title>
<path fill="none" stroke="black" d="M2839,-122.3C2839,-140.27 2839,-165 2839,-165 2839,-165 1931.01,-165 1931.01,-165"/>
<polygon fill="black" stroke="black" points="1931.01,-161.5 1921.01,-165 1931.01,-168.5 1931.01,-161.5"/>
</g>
<!-- FeathersAuthorizationService -->
<g id="node14" class="node">
<title>FeathersAuthorizationService</title>
<ellipse fill="#fdb462" stroke="black" cx="2598" cy="-104" rx="126.18" ry="18"/>
<text text-anchor="middle" x="2598" y="-99.8" font-family="Times,serif" font-size="14.00">FeathersAuthorizationService</text>
</g>
<!-- FeathersAuthorizationService&#45;&gt;AuthorizationModule -->
<g id="edge13" class="edge">
<title>FeathersAuthorizationService&#45;&gt;AuthorizationModule</title>
<path fill="none" stroke="black" d="M2598,-122.02C2598,-139.37 2598,-163 2598,-163 2598,-163 1930.84,-163 1930.84,-163"/>
<polygon fill="black" stroke="black" points="1930.84,-159.5 1920.84,-163 1930.84,-166.5 1930.84,-159.5"/>
</g>
<!-- GroupRule -->
<g id="node15" class="node">
<title>GroupRule</title>
<ellipse fill="#fdb462" stroke="black" cx="2400" cy="-104" rx="53.89" ry="18"/>
<text text-anchor="middle" x="2400" y="-99.8" font-family="Times,serif" font-size="14.00">GroupRule</text>
</g>
<!-- GroupRule&#45;&gt;AuthorizationModule -->
<g id="edge14" class="edge">
<title>GroupRule&#45;&gt;AuthorizationModule</title>
<path fill="none" stroke="black" d="M2400,-122.03C2400,-138.4 2400,-160 2400,-160 2400,-160 1930.85,-160 1930.85,-160"/>
<polygon fill="black" stroke="black" points="1930.85,-156.5 1920.85,-160 1930.85,-163.5 1930.85,-156.5"/>
</g>
<!-- LegacySchoolRule -->
<g id="node16" class="node">
<title>LegacySchoolRule</title>
<ellipse fill="#fdb462" stroke="black" cx="2244" cy="-104" rx="84.53" ry="18"/>
<text text-anchor="middle" x="2244" y="-99.8" font-family="Times,serif" font-size="14.00">LegacySchoolRule</text>
</g>
<!-- LegacySchoolRule&#45;&gt;AuthorizationModule -->
<g id="edge15" class="edge">
<title>LegacySchoolRule&#45;&gt;AuthorizationModule</title>
<path fill="none" stroke="black" d="M2244,-122.24C2244,-137.57 2244,-157 2244,-157 2244,-157 1930.73,-157 1930.73,-157"/>
<polygon fill="black" stroke="black" points="1930.73,-153.5 1920.73,-157 1930.73,-160.5 1930.73,-153.5"/>
</g>
<!-- LessonRule -->
<g id="node17" class="node">
<title>LessonRule</title>
<ellipse fill="#fdb462" stroke="black" cx="2085" cy="-104" rx="56.76" ry="18"/>
<text text-anchor="middle" x="2085" y="-99.8" font-family="Times,serif" font-size="14.00">LessonRule</text>
</g>
<!-- LessonRule&#45;&gt;AuthorizationModule -->
<g id="edge16" class="edge">
<title>LessonRule&#45;&gt;AuthorizationModule</title>
<path fill="none" stroke="black" d="M2065.49,-120.93C2065.49,-135.43 2065.49,-154 2065.49,-154 2065.49,-154 1930.73,-154 1930.73,-154"/>
<polygon fill="black" stroke="black" points="1930.73,-150.5 1920.73,-154 1930.73,-157.5 1930.73,-150.5"/>
</g>
<!-- RuleManager -->
<g id="node18" class="node">
<title>RuleManager</title>
<ellipse fill="#fdb462" stroke="black" cx="1947" cy="-104" rx="63.68" ry="18"/>
<text text-anchor="middle" x="1947" y="-99.8" font-family="Times,serif" font-size="14.00">RuleManager</text>
</g>
<!-- RuleManager&#45;&gt;AuthorizationModule -->
<g id="edge17" class="edge">
<title>RuleManager&#45;&gt;AuthorizationModule</title>
<path fill="none" stroke="black" d="M1902.03,-116.84C1902.03,-116.84 1902.03,-140.52 1902.03,-140.52"/>
<polygon fill="black" stroke="black" points="1898.53,-140.52 1902.03,-150.52 1905.53,-140.52 1898.53,-140.52"/>
</g>
<!-- SchoolExternalToolRule -->
<g id="node19" class="node">
<title>SchoolExternalToolRule</title>
<ellipse fill="#fdb462" stroke="black" cx="1758" cy="-104" rx="107.1" ry="18"/>
<text text-anchor="middle" x="1758" y="-99.8" font-family="Times,serif" font-size="14.00">SchoolExternalToolRule</text>
</g>
<!-- SchoolExternalToolRule&#45;&gt;AuthorizationModule -->
<g id="edge18" class="edge">
<title>SchoolExternalToolRule&#45;&gt;AuthorizationModule</title>
<path fill="none" stroke="black" d="M1824.2,-118.43C1824.2,-118.43 1824.2,-140.89 1824.2,-140.89"/>
<polygon fill="black" stroke="black" points="1820.7,-140.89 1824.2,-150.89 1827.7,-140.89 1820.7,-140.89"/>
</g>
<!-- SchoolRule -->
<g id="node20" class="node">
<title>SchoolRule</title>
<ellipse fill="#fdb462" stroke="black" cx="1577" cy="-104" rx="56.2" ry="18"/>
<text text-anchor="middle" x="1577" y="-99.8" font-family="Times,serif" font-size="14.00">SchoolRule</text>
</g>
<!-- SchoolRule&#45;&gt;AuthorizationModule -->
<g id="edge19" class="edge">
<title>SchoolRule&#45;&gt;AuthorizationModule</title>
<path fill="none" stroke="black" d="M1577,-122.05C1577,-136.37 1577,-154 1577,-154 1577,-154 1773.32,-154 1773.32,-154"/>
<polygon fill="black" stroke="black" points="1773.32,-157.5 1783.32,-154 1773.32,-150.5 1773.32,-157.5"/>
</g>
<!-- SchoolSystemOptionsRule -->
<g id="node21" class="node">
<title>SchoolSystemOptionsRule</title>
<ellipse fill="#fdb462" stroke="black" cx="1388" cy="-104" rx="115.23" ry="18"/>
<text text-anchor="middle" x="1388" y="-99.8" font-family="Times,serif" font-size="14.00">SchoolSystemOptionsRule</text>
</g>
<!-- SchoolSystemOptionsRule&#45;&gt;AuthorizationModule -->
<g id="edge20" class="edge">
<title>SchoolSystemOptionsRule&#45;&gt;AuthorizationModule</title>
<path fill="none" stroke="black" d="M1388,-122.24C1388,-137.57 1388,-157 1388,-157 1388,-157 1773.29,-157 1773.29,-157"/>
<polygon fill="black" stroke="black" points="1773.29,-160.5 1783.29,-157 1773.29,-153.5 1773.29,-160.5"/>
</g>
<!-- SubmissionRule -->
<g id="node22" class="node">
<title>SubmissionRule</title>
<ellipse fill="#fdb462" stroke="black" cx="1181" cy="-104" rx="74.2" ry="18"/>
<text text-anchor="middle" x="1181" y="-99.8" font-family="Times,serif" font-size="14.00">SubmissionRule</text>
</g>
<!-- SubmissionRule&#45;&gt;AuthorizationModule -->
<g id="edge21" class="edge">
<title>SubmissionRule&#45;&gt;AuthorizationModule</title>
<path fill="none" stroke="black" d="M1181,-122.03C1181,-138.4 1181,-160 1181,-160 1181,-160 1773.34,-160 1773.34,-160"/>
<polygon fill="black" stroke="black" points="1773.34,-163.5 1783.34,-160 1773.34,-156.5 1773.34,-163.5"/>
</g>
<!-- SystemRule -->
<g id="node23" class="node">
<title>SystemRule</title>
<ellipse fill="#fdb462" stroke="black" cx="1031" cy="-104" rx="57.92" ry="18"/>
<text text-anchor="middle" x="1031" y="-99.8" font-family="Times,serif" font-size="14.00">SystemRule</text>
</g>
<!-- SystemRule&#45;&gt;AuthorizationModule -->
<g id="edge22" class="edge">
<title>SystemRule&#45;&gt;AuthorizationModule</title>
<path fill="none" stroke="black" d="M1031,-122.02C1031,-139.37 1031,-163 1031,-163 1031,-163 1773.06,-163 1773.06,-163"/>
<polygon fill="black" stroke="black" points="1773.06,-166.5 1783.06,-163 1773.06,-159.5 1773.06,-166.5"/>
</g>
<!-- TaskRule -->
<g id="node24" class="node">
<title>TaskRule</title>
<ellipse fill="#fdb462" stroke="black" cx="907" cy="-104" rx="48.09" ry="18"/>
<text text-anchor="middle" x="907" y="-99.8" font-family="Times,serif" font-size="14.00">TaskRule</text>
</g>
<!-- TaskRule&#45;&gt;AuthorizationModule -->
<g id="edge23" class="edge">
<title>TaskRule&#45;&gt;AuthorizationModule</title>
<path fill="none" stroke="black" d="M907,-122.3C907,-140.27 907,-165 907,-165 907,-165 1773.28,-165 1773.28,-165"/>
<polygon fill="black" stroke="black" points="1773.28,-168.5 1783.28,-165 1773.28,-161.5 1773.28,-168.5"/>
</g>
<!-- TeamRule -->
<g id="node25" class="node">
<title>TeamRule</title>
<ellipse fill="#fdb462" stroke="black" cx="790" cy="-104" rx="51.02" ry="18"/>
<text text-anchor="middle" x="790" y="-99.8" font-family="Times,serif" font-size="14.00">TeamRule</text>
</g>
<!-- TeamRule&#45;&gt;AuthorizationModule -->
<g id="edge24" class="edge">
<title>TeamRule&#45;&gt;AuthorizationModule</title>
<path fill="none" stroke="black" d="M790,-122.17C790,-141.09 790,-168 790,-168 790,-168 1773.14,-168 1773.14,-168"/>
<polygon fill="black" stroke="black" points="1773.14,-171.5 1783.14,-168 1773.14,-164.5 1773.14,-171.5"/>
</g>
<!-- UserLoginMigrationRule -->
<g id="node26" class="node">
<title>UserLoginMigrationRule</title>
<ellipse fill="#fdb462" stroke="black" cx="612" cy="-104" rx="109.39" ry="18"/>
<text text-anchor="middle" x="612" y="-99.8" font-family="Times,serif" font-size="14.00">UserLoginMigrationRule</text>
</g>
<!-- UserLoginMigrationRule&#45;&gt;AuthorizationModule -->
<g id="edge25" class="edge">
<title>UserLoginMigrationRule&#45;&gt;AuthorizationModule</title>
<path fill="none" stroke="black" d="M612,-122.31C612,-142.15 612,-171 612,-171 612,-171 1773.12,-171 1773.12,-171"/>
<polygon fill="black" stroke="black" points="1773.12,-174.5 1783.12,-171 1773.12,-167.5 1773.12,-174.5"/>
</g>
<!-- UserRepo -->
<g id="node27" class="node">
<title>UserRepo</title>
<ellipse fill="#fdb462" stroke="black" cx="435" cy="-104" rx="49.8" ry="18"/>
<text text-anchor="middle" x="435" y="-99.8" font-family="Times,serif" font-size="14.00">UserRepo</text>
</g>
<!-- UserRepo&#45;&gt;AuthorizationModule -->
<g id="edge26" class="edge">
<title>UserRepo&#45;&gt;AuthorizationModule</title>
<path fill="none" stroke="black" d="M435,-122.03C435,-142.77 435,-174 435,-174 435,-174 1773.18,-174 1773.18,-174"/>
<polygon fill="black" stroke="black" points="1773.18,-177.5 1783.18,-174 1773.18,-170.5 1773.18,-177.5"/>
</g>
<!-- UserRule -->
<g id="node28" class="node">
<title>UserRule</title>
<ellipse fill="#fdb462" stroke="black" cx="320" cy="-104" rx="47.51" ry="18"/>
<text text-anchor="middle" x="320" y="-99.8" font-family="Times,serif" font-size="14.00">UserRule</text>
</g>
<!-- UserRule&#45;&gt;AuthorizationModule -->
<g id="edge27" class="edge">
<title>UserRule&#45;&gt;AuthorizationModule</title>
<path fill="none" stroke="black" d="M320,-122.17C320,-143.5 320,-176 320,-176 320,-176 1773.2,-176 1773.2,-176"/>
<polygon fill="black" stroke="black" points="1773.2,-179.5 1783.2,-176 1773.2,-172.5 1773.2,-179.5"/>
</g>
</g>
</svg>
