<?xml version="1.0" encoding="UTF-8" standalone="no"?>
<!DOCTYPE svg PUBLIC "-//W3C//DTD SVG 1.1//EN"
 "http://www.w3.org/Graphics/SVG/1.1/DTD/svg11.dtd">
<!-- Generated by graphviz version 2.47.0 (20210316.0004)
 -->
<!-- Title: dependencies Pages: 1 -->
<svg width="5065pt" height="284pt"
 viewBox="0.00 0.00 5065.00 284.00" xmlns="http://www.w3.org/2000/svg" xmlns:xlink="http://www.w3.org/1999/xlink">
<g id="graph0" class="graph" transform="scale(1 1) rotate(0) translate(4 280)">
<title>dependencies</title>
<polygon fill="white" stroke="transparent" points="-4,4 -4,-280 5061,-280 5061,4 -4,4"/>
<text text-anchor="start" x="2507.51" y="-42.4" font-family="Times-12" font-weight="bold" font-size="14.00">Legend</text>
<polygon fill="#ffffb3" stroke="transparent" points="2294.5,-10 2294.5,-30 2314.5,-30 2314.5,-10 2294.5,-10"/>
<text text-anchor="start" x="2318.13" y="-15.4" font-family="Times-12" font-size="14.00"> &#160;Declarations</text>
<polygon fill="#8dd3c7" stroke="transparent" points="2407.5,-10 2407.5,-30 2427.5,-30 2427.5,-10 2407.5,-10"/>
<text text-anchor="start" x="2431.23" y="-15.4" font-family="Times-12" font-size="14.00"> &#160;Module</text>
<polygon fill="#80b1d3" stroke="transparent" points="2493.5,-10 2493.5,-30 2513.5,-30 2513.5,-10 2493.5,-10"/>
<text text-anchor="start" x="2517.28" y="-15.4" font-family="Times-12" font-size="14.00"> &#160;Bootstrap</text>
<polygon fill="#fdb462" stroke="transparent" points="2590.5,-10 2590.5,-30 2610.5,-30 2610.5,-10 2590.5,-10"/>
<text text-anchor="start" x="2614.17" y="-15.4" font-family="Times-12" font-size="14.00"> &#160;Providers</text>
<polygon fill="#fb8072" stroke="transparent" points="2686.5,-10 2686.5,-30 2706.5,-30 2706.5,-10 2686.5,-10"/>
<text text-anchor="start" x="2710.23" y="-15.4" font-family="Times-12" font-size="14.00"> &#160;Exports</text>
<g id="clust1" class="cluster">
<title>cluster_AuthorizationModule</title>
<polygon fill="none" stroke="black" stroke-dasharray="1,5" points="8,-70 8,-268 5049,-268 5049,-70 8,-70"/>
</g>
<g id="clust4" class="cluster">
<title>cluster_AuthorizationModule_exports</title>
<polygon fill="none" stroke="black" points="2009,-208 2009,-260 2369,-260 2369,-208 2009,-208"/>
</g>
<g id="clust6" class="cluster">
<title>cluster_AuthorizationModule_providers</title>
<polygon fill="none" stroke="black" points="380,-78 380,-130 5041,-130 5041,-78 380,-78"/>
</g>
<g id="clust3" class="cluster">
<title>cluster_AuthorizationModule_imports</title>
<polygon fill="none" stroke="black" points="16,-78 16,-130 372,-130 372,-78 16,-78"/>
</g>
<!-- FeathersModule -->
<g id="node1" class="node">
<title>FeathersModule</title>
<polygon fill="#8dd3c7" stroke="black" points="364.47,-122 361.47,-126 340.47,-126 337.47,-122 257.53,-122 257.53,-86 364.47,-86 364.47,-122"/>
<text text-anchor="middle" x="311" y="-99.8" font-family="Times,serif" font-size="14.00">FeathersModule</text>
</g>
<!-- AuthorizationModule -->
<g id="node4" class="node">
<title>AuthorizationModule</title>
<polygon fill="#8dd3c7" stroke="black" points="2268.81,-187 2265.81,-191 2244.81,-191 2241.81,-187 2131.19,-187 2131.19,-151 2268.81,-151 2268.81,-187"/>
<text text-anchor="middle" x="2200" y="-164.8" font-family="Times,serif" font-size="14.00">AuthorizationModule</text>
</g>
<!-- FeathersModule&#45;&gt;AuthorizationModule -->
<g id="edge1" class="edge">
<title>FeathersModule&#45;&gt;AuthorizationModule</title>
<path fill="none" stroke="black" d="M311,-122.25C311,-145.02 311,-181 311,-181 311,-181 2121.09,-181 2121.09,-181"/>
<polygon fill="black" stroke="black" points="2121.09,-184.5 2131.09,-181 2121.09,-177.5 2121.09,-184.5"/>
</g>
<!-- LoggerModule -->
<g id="node2" class="node">
<title>LoggerModule</title>
<polygon fill="#8dd3c7" stroke="black" points="239.98,-122 236.98,-126 215.98,-126 212.98,-122 140.02,-122 140.02,-86 239.98,-86 239.98,-122"/>
<text text-anchor="middle" x="190" y="-99.8" font-family="Times,serif" font-size="14.00">LoggerModule</text>
</g>
<!-- LoggerModule&#45;&gt;AuthorizationModule -->
<g id="edge2" class="edge">
<title>LoggerModule&#45;&gt;AuthorizationModule</title>
<path fill="none" stroke="black" d="M190,-122.32C190,-145.66 190,-183 190,-183 190,-183 2121.1,-183 2121.1,-183"/>
<polygon fill="black" stroke="black" points="2121.1,-186.5 2131.1,-183 2121.1,-179.5 2121.1,-186.5"/>
</g>
<!-- SchoolModule -->
<g id="node3" class="node">
<title>SchoolModule</title>
<polygon fill="#8dd3c7" stroke="black" points="122.44,-122 119.44,-126 98.44,-126 95.44,-122 23.56,-122 23.56,-86 122.44,-86 122.44,-122"/>
<text text-anchor="middle" x="73" y="-99.8" font-family="Times,serif" font-size="14.00">SchoolModule</text>
</g>
<!-- SchoolModule&#45;&gt;AuthorizationModule -->
<g id="edge3" class="edge">
<title>SchoolModule&#45;&gt;AuthorizationModule</title>
<path fill="none" stroke="black" d="M73,-122.38C73,-146.28 73,-185 73,-185 73,-185 2121.34,-185 2121.34,-185"/>
<polygon fill="black" stroke="black" points="2121.34,-188.5 2131.34,-185 2121.34,-181.5 2121.34,-188.5"/>
</g>
<!-- AuthorizationService  -->
<g id="node5" class="node">
<title>AuthorizationService </title>
<polygon fill="#fb8072" stroke="black" points="2360.74,-252 2221.26,-252 2221.26,-216 2360.74,-216 2360.74,-252"/>
<text text-anchor="middle" x="2291" y="-229.8" font-family="Times,serif" font-size="14.00">AuthorizationService </text>
</g>
<!-- AuthorizationModule&#45;&gt;AuthorizationService  -->
<g id="edge4" class="edge">
<title>AuthorizationModule&#45;&gt;AuthorizationService </title>
<path fill="none" stroke="black" stroke-dasharray="5,2" d="M2245.02,-187.11C2245.02,-187.11 2245.02,-205.99 2245.02,-205.99"/>
<polygon fill="black" stroke="black" points="2241.52,-205.99 2245.02,-215.99 2248.52,-205.99 2241.52,-205.99"/>
</g>
<!-- FeathersAuthorizationService  -->
<g id="node6" class="node">
<title>FeathersAuthorizationService </title>
<polygon fill="#fb8072" stroke="black" points="2203.16,-252 2016.84,-252 2016.84,-216 2203.16,-216 2203.16,-252"/>
<text text-anchor="middle" x="2110" y="-229.8" font-family="Times,serif" font-size="14.00">FeathersAuthorizationService </text>
</g>
<!-- AuthorizationModule&#45;&gt;FeathersAuthorizationService  -->
<g id="edge5" class="edge">
<title>AuthorizationModule&#45;&gt;FeathersAuthorizationService </title>
<path fill="none" stroke="black" stroke-dasharray="5,2" d="M2167.34,-187.11C2167.34,-187.11 2167.34,-205.99 2167.34,-205.99"/>
<polygon fill="black" stroke="black" points="2163.84,-205.99 2167.34,-215.99 2170.84,-205.99 2163.84,-205.99"/>
</g>
<!-- AuthorizationHelper -->
<g id="node7" class="node">
<title>AuthorizationHelper</title>
<ellipse fill="#fdb462" stroke="black" cx="4942" cy="-104" rx="90.89" ry="18"/>
<text text-anchor="middle" x="4942" y="-99.8" font-family="Times,serif" font-size="14.00">AuthorizationHelper</text>
</g>
<!-- AuthorizationHelper&#45;&gt;AuthorizationModule -->
<g id="edge6" class="edge">
<title>AuthorizationHelper&#45;&gt;AuthorizationModule</title>
<path fill="none" stroke="black" d="M4942,-122.38C4942,-146.28 4942,-185 4942,-185 4942,-185 2278.81,-185 2278.81,-185"/>
<polygon fill="black" stroke="black" points="2278.81,-181.5 2268.81,-185 2278.81,-188.5 2278.81,-181.5"/>
</g>
<!-- AuthorizationService -->
<g id="node8" class="node">
<title>AuthorizationService</title>
<ellipse fill="#fdb462" stroke="black" cx="4739" cy="-104" rx="93.76" ry="18"/>
<text text-anchor="middle" x="4739" y="-99.8" font-family="Times,serif" font-size="14.00">AuthorizationService</text>
</g>
<!-- AuthorizationService&#45;&gt;AuthorizationModule -->
<g id="edge7" class="edge">
<title>AuthorizationService&#45;&gt;AuthorizationModule</title>
<path fill="none" stroke="black" d="M4739,-122.32C4739,-145.66 4739,-183 4739,-183 4739,-183 2278.9,-183 2278.9,-183"/>
<polygon fill="black" stroke="black" points="2278.9,-179.5 2268.9,-183 2278.9,-186.5 2278.9,-179.5"/>
</g>
<!-- BoardDoRule -->
<g id="node9" class="node">
<title>BoardDoRule</title>
<ellipse fill="#fdb462" stroke="black" cx="4563" cy="-104" rx="64.85" ry="18"/>
<text text-anchor="middle" x="4563" y="-99.8" font-family="Times,serif" font-size="14.00">BoardDoRule</text>
</g>
<!-- BoardDoRule&#45;&gt;AuthorizationModule -->
<g id="edge8" class="edge">
<title>BoardDoRule&#45;&gt;AuthorizationModule</title>
<path fill="none" stroke="black" d="M4563,-122.25C4563,-145.02 4563,-181 4563,-181 4563,-181 2278.8,-181 2278.8,-181"/>
<polygon fill="black" stroke="black" points="2278.8,-177.5 2268.8,-181 2278.8,-184.5 2278.8,-177.5"/>
</g>
<!-- ContextExternalToolRule -->
<g id="node10" class="node">
<title>ContextExternalToolRule</title>
<ellipse fill="#fdb462" stroke="black" cx="4370" cy="-104" rx="110.61" ry="18"/>
<text text-anchor="middle" x="4370" y="-99.8" font-family="Times,serif" font-size="14.00">ContextExternalToolRule</text>
</g>
<!-- ContextExternalToolRule&#45;&gt;AuthorizationModule -->
<g id="edge9" class="edge">
<title>ContextExternalToolRule&#45;&gt;AuthorizationModule</title>
<path fill="none" stroke="black" d="M4370,-122.29C4370,-144.21 4370,-178 4370,-178 4370,-178 2278.83,-178 2278.83,-178"/>
<polygon fill="black" stroke="black" points="2278.83,-174.5 2268.83,-178 2278.83,-181.5 2278.83,-174.5"/>
</g>
<!-- CourseGroupRepo -->
<g id="node11" class="node">
<title>CourseGroupRepo</title>
<ellipse fill="#fdb462" stroke="black" cx="4158" cy="-104" rx="83.39" ry="18"/>
<text text-anchor="middle" x="4158" y="-99.8" font-family="Times,serif" font-size="14.00">CourseGroupRepo</text>
</g>
<!-- CourseGroupRepo&#45;&gt;AuthorizationModule -->
<g id="edge10" class="edge">
<title>CourseGroupRepo&#45;&gt;AuthorizationModule</title>
<path fill="none" stroke="black" d="M4158,-122.17C4158,-143.5 4158,-176 4158,-176 4158,-176 2278.82,-176 2278.82,-176"/>
<polygon fill="black" stroke="black" points="2278.82,-172.5 2268.82,-176 2278.82,-179.5 2278.82,-172.5"/>
</g>
<!-- CourseGroupRule -->
<g id="node12" class="node">
<title>CourseGroupRule</title>
<ellipse fill="#fdb462" stroke="black" cx="3975" cy="-104" rx="81.1" ry="18"/>
<text text-anchor="middle" x="3975" y="-99.8" font-family="Times,serif" font-size="14.00">CourseGroupRule</text>
</g>
<!-- CourseGroupRule&#45;&gt;AuthorizationModule -->
<g id="edge11" class="edge">
<title>CourseGroupRule&#45;&gt;AuthorizationModule</title>
<path fill="none" stroke="black" d="M3975,-122.03C3975,-142.77 3975,-174 3975,-174 3975,-174 2278.77,-174 2278.77,-174"/>
<polygon fill="black" stroke="black" points="2278.77,-170.5 2268.77,-174 2278.77,-177.5 2278.77,-170.5"/>
</g>
<!-- CourseRepo -->
<g id="node13" class="node">
<title>CourseRepo</title>
<ellipse fill="#fdb462" stroke="black" cx="3817" cy="-104" rx="58.55" ry="18"/>
<text text-anchor="middle" x="3817" y="-99.8" font-family="Times,serif" font-size="14.00">CourseRepo</text>
</g>
<!-- CourseRepo&#45;&gt;AuthorizationModule -->
<g id="edge12" class="edge">
<title>CourseRepo&#45;&gt;AuthorizationModule</title>
<path fill="none" stroke="black" d="M3817,-122.22C3817,-142.37 3817,-172 3817,-172 3817,-172 2278.71,-172 2278.71,-172"/>
<polygon fill="black" stroke="black" points="2278.71,-168.5 2268.71,-172 2278.71,-175.5 2278.71,-168.5"/>
</g>
<!-- CourseRule -->
<g id="node14" class="node">
<title>CourseRule</title>
<ellipse fill="#fdb462" stroke="black" cx="3684" cy="-104" rx="56.76" ry="18"/>
<text text-anchor="middle" x="3684" y="-99.8" font-family="Times,serif" font-size="14.00">CourseRule</text>
</g>
<!-- CourseRule&#45;&gt;AuthorizationModule -->
<g id="edge13" class="edge">
<title>CourseRule&#45;&gt;AuthorizationModule</title>
<path fill="none" stroke="black" d="M3684,-122.11C3684,-141.34 3684,-169 3684,-169 3684,-169 2279.09,-169 2279.09,-169"/>
<polygon fill="black" stroke="black" points="2279.09,-165.5 2269.09,-169 2279.09,-172.5 2279.09,-165.5"/>
</g>
<!-- FeathersAuthProvider -->
<g id="node15" class="node">
<title>FeathersAuthProvider</title>
<ellipse fill="#fdb462" stroke="black" cx="3513" cy="-104" rx="96.13" ry="18"/>
<text text-anchor="middle" x="3513" y="-99.8" font-family="Times,serif" font-size="14.00">FeathersAuthProvider</text>
</g>
<!-- FeathersAuthProvider&#45;&gt;AuthorizationModule -->
<g id="edge14" class="edge">
<title>FeathersAuthProvider&#45;&gt;AuthorizationModule</title>
<path fill="none" stroke="black" d="M3513,-122.22C3513,-140.83 3513,-167 3513,-167 3513,-167 2278.74,-167 2278.74,-167"/>
<polygon fill="black" stroke="black" points="2278.74,-163.5 2268.74,-167 2278.74,-170.5 2278.74,-163.5"/>
</g>
<!-- FeathersAuthorizationService -->
<g id="node16" class="node">
<title>FeathersAuthorizationService</title>
<ellipse fill="#fdb462" stroke="black" cx="3272" cy="-104" rx="126.18" ry="18"/>
<text text-anchor="middle" x="3272" y="-99.8" font-family="Times,serif" font-size="14.00">FeathersAuthorizationService</text>
</g>
<!-- FeathersAuthorizationService&#45;&gt;AuthorizationModule -->
<g id="edge15" class="edge">
<title>FeathersAuthorizationService&#45;&gt;AuthorizationModule</title>
<path fill="none" stroke="black" d="M3272,-122.3C3272,-140.27 3272,-165 3272,-165 3272,-165 2278.69,-165 2278.69,-165"/>
<polygon fill="black" stroke="black" points="2278.69,-161.5 2268.69,-165 2278.69,-168.5 2278.69,-161.5"/>
</g>
<!-- LessonRepo -->
<g id="node17" class="node">
<title>LessonRepo</title>
<ellipse fill="#fdb462" stroke="black" cx="3069" cy="-104" rx="58.55" ry="18"/>
<text text-anchor="middle" x="3069" y="-99.8" font-family="Times,serif" font-size="14.00">LessonRepo</text>
</g>
<!-- LessonRepo&#45;&gt;AuthorizationModule -->
<g id="edge16" class="edge">
<title>LessonRepo&#45;&gt;AuthorizationModule</title>
<path fill="none" stroke="black" d="M3069,-122.02C3069,-139.37 3069,-163 3069,-163 3069,-163 2278.92,-163 2278.92,-163"/>
<polygon fill="black" stroke="black" points="2278.92,-159.5 2268.92,-163 2278.92,-166.5 2278.92,-159.5"/>
</g>
<!-- LessonRule -->
<g id="node18" class="node">
<title>LessonRule</title>
<ellipse fill="#fdb462" stroke="black" cx="2936" cy="-104" rx="56.76" ry="18"/>
<text text-anchor="middle" x="2936" y="-99.8" font-family="Times,serif" font-size="14.00">LessonRule</text>
</g>
<!-- LessonRule&#45;&gt;AuthorizationModule -->
<g id="edge17" class="edge">
<title>LessonRule&#45;&gt;AuthorizationModule</title>
<path fill="none" stroke="black" d="M2936,-122.03C2936,-138.4 2936,-160 2936,-160 2936,-160 2278.91,-160 2278.91,-160"/>
<polygon fill="black" stroke="black" points="2278.91,-156.5 2268.91,-160 2278.91,-163.5 2278.91,-156.5"/>
</g>
<!-- ReferenceLoader -->
<g id="node19" class="node">
<title>ReferenceLoader</title>
<ellipse fill="#fdb462" stroke="black" cx="2784" cy="-104" rx="77.53" ry="18"/>
<text text-anchor="middle" x="2784" y="-99.8" font-family="Times,serif" font-size="14.00">ReferenceLoader</text>
</g>
<!-- ReferenceLoader&#45;&gt;AuthorizationModule -->
<g id="edge18" class="edge">
<title>ReferenceLoader&#45;&gt;AuthorizationModule</title>
<path fill="none" stroke="black" d="M2784,-122.28C2784,-137.95 2784,-158 2784,-158 2784,-158 2278.71,-158 2278.71,-158"/>
<polygon fill="black" stroke="black" points="2278.71,-154.5 2268.71,-158 2278.71,-161.5 2278.71,-154.5"/>
</g>
<!-- RuleManager -->
<g id="node20" class="node">
<title>RuleManager</title>
<ellipse fill="#fdb462" stroke="black" cx="2625" cy="-104" rx="63.68" ry="18"/>
<text text-anchor="middle" x="2625" y="-99.8" font-family="Times,serif" font-size="14.00">RuleManager</text>
</g>
<!-- RuleManager&#45;&gt;AuthorizationModule -->
<g id="edge19" class="edge">
<title>RuleManager&#45;&gt;AuthorizationModule</title>
<path fill="none" stroke="black" d="M2625,-122.19C2625,-137.18 2625,-156 2625,-156 2625,-156 2278.76,-156 2278.76,-156"/>
<polygon fill="black" stroke="black" points="2278.76,-152.5 2268.76,-156 2278.76,-159.5 2278.76,-152.5"/>
</g>
<!-- SchoolExternalToolRepo -->
<g id="node21" class="node">
<title>SchoolExternalToolRepo</title>
<ellipse fill="#fdb462" stroke="black" cx="2434" cy="-104" rx="109.39" ry="18"/>
<text text-anchor="middle" x="2434" y="-99.8" font-family="Times,serif" font-size="14.00">SchoolExternalToolRepo</text>
</g>
<!-- SchoolExternalToolRepo&#45;&gt;AuthorizationModule -->
<g id="edge20" class="edge">
<title>SchoolExternalToolRepo&#45;&gt;AuthorizationModule</title>
<path fill="none" stroke="black" d="M2342.71,-114.12C2342.71,-128.73 2342.71,-154 2342.71,-154 2342.71,-154 2278.85,-154 2278.85,-154"/>
<polygon fill="black" stroke="black" points="2278.85,-150.5 2268.85,-154 2278.85,-157.5 2278.85,-150.5"/>
</g>
<!-- SchoolExternalToolRule -->
<g id="node22" class="node">
<title>SchoolExternalToolRule</title>
<ellipse fill="#fdb462" stroke="black" cx="2200" cy="-104" rx="107.1" ry="18"/>
<text text-anchor="middle" x="2200" y="-99.8" font-family="Times,serif" font-size="14.00">SchoolExternalToolRule</text>
</g>
<!-- SchoolExternalToolRule&#45;&gt;AuthorizationModule -->
<g id="edge21" class="edge">
<title>SchoolExternalToolRule&#45;&gt;AuthorizationModule</title>
<path fill="none" stroke="black" d="M2200,-122.11C2200,-122.11 2200,-140.99 2200,-140.99"/>
<polygon fill="black" stroke="black" points="2196.5,-140.99 2200,-150.99 2203.5,-140.99 2196.5,-140.99"/>
</g>
<!-- SchoolRepo -->
<g id="node23" class="node">
<title>SchoolRepo</title>
<ellipse fill="#fdb462" stroke="black" cx="2017" cy="-104" rx="58.49" ry="18"/>
<text text-anchor="middle" x="2017" y="-99.8" font-family="Times,serif" font-size="14.00">SchoolRepo</text>
</g>
<!-- SchoolRepo&#45;&gt;AuthorizationModule -->
<g id="edge22" class="edge">
<title>SchoolRepo&#45;&gt;AuthorizationModule</title>
<path fill="none" stroke="black" d="M2045.96,-119.82C2045.96,-134.47 2045.96,-154 2045.96,-154 2045.96,-154 2121.09,-154 2121.09,-154"/>
<polygon fill="black" stroke="black" points="2121.09,-157.5 2131.09,-154 2121.09,-150.5 2121.09,-157.5"/>
</g>
<!-- SchoolRule -->
<g id="node24" class="node">
<title>SchoolRule</title>
<ellipse fill="#fdb462" stroke="black" cx="1885" cy="-104" rx="56.2" ry="18"/>
<text text-anchor="middle" x="1885" y="-99.8" font-family="Times,serif" font-size="14.00">SchoolRule</text>
</g>
<!-- SchoolRule&#45;&gt;AuthorizationModule -->
<g id="edge23" class="edge">
<title>SchoolRule&#45;&gt;AuthorizationModule</title>
<path fill="none" stroke="black" d="M1885,-122.19C1885,-137.18 1885,-156 1885,-156 1885,-156 2121.26,-156 2121.26,-156"/>
<polygon fill="black" stroke="black" points="2121.26,-159.5 2131.26,-156 2121.26,-152.5 2121.26,-159.5"/>
</g>
<!-- SubmissionRepo -->
<g id="node25" class="node">
<title>SubmissionRepo</title>
<ellipse fill="#fdb462" stroke="black" cx="1734" cy="-104" rx="76.49" ry="18"/>
<text text-anchor="middle" x="1734" y="-99.8" font-family="Times,serif" font-size="14.00">SubmissionRepo</text>
</g>
<!-- SubmissionRepo&#45;&gt;AuthorizationModule -->
<g id="edge24" class="edge">
<title>SubmissionRepo&#45;&gt;AuthorizationModule</title>
<path fill="none" stroke="black" d="M1734,-122.28C1734,-137.95 1734,-158 1734,-158 1734,-158 2121.24,-158 2121.24,-158"/>
<polygon fill="black" stroke="black" points="2121.24,-161.5 2131.24,-158 2121.24,-154.5 2121.24,-161.5"/>
</g>
<!-- SubmissionRule -->
<g id="node26" class="node">
<title>SubmissionRule</title>
<ellipse fill="#fdb462" stroke="black" cx="1565" cy="-104" rx="74.2" ry="18"/>
<text text-anchor="middle" x="1565" y="-99.8" font-family="Times,serif" font-size="14.00">SubmissionRule</text>
</g>
<!-- SubmissionRule&#45;&gt;AuthorizationModule -->
<g id="edge25" class="edge">
<title>SubmissionRule&#45;&gt;AuthorizationModule</title>
<path fill="none" stroke="black" d="M1565,-122.03C1565,-138.4 1565,-160 1565,-160 1565,-160 2121.14,-160 2121.14,-160"/>
<polygon fill="black" stroke="black" points="2121.14,-163.5 2131.14,-160 2121.14,-156.5 2121.14,-163.5"/>
</g>
<!-- TaskCardRule -->
<g id="node27" class="node">
<title>TaskCardRule</title>
<ellipse fill="#fdb462" stroke="black" cx="1406" cy="-104" rx="66.63" ry="18"/>
<text text-anchor="middle" x="1406" y="-99.8" font-family="Times,serif" font-size="14.00">TaskCardRule</text>
</g>
<!-- TaskCardRule&#45;&gt;AuthorizationModule -->
<g id="edge26" class="edge">
<title>TaskCardRule&#45;&gt;AuthorizationModule</title>
<path fill="none" stroke="black" d="M1406,-122.02C1406,-139.37 1406,-163 1406,-163 1406,-163 2121.27,-163 2121.27,-163"/>
<polygon fill="black" stroke="black" points="2121.27,-166.5 2131.27,-163 2121.27,-159.5 2121.27,-166.5"/>
</g>
<!-- TaskRepo -->
<g id="node28" class="node">
<title>TaskRepo</title>
<ellipse fill="#fdb462" stroke="black" cx="1271" cy="-104" rx="50.38" ry="18"/>
<text text-anchor="middle" x="1271" y="-99.8" font-family="Times,serif" font-size="14.00">TaskRepo</text>
</g>
<!-- TaskRepo&#45;&gt;AuthorizationModule -->
<g id="edge27" class="edge">
<title>TaskRepo&#45;&gt;AuthorizationModule</title>
<path fill="none" stroke="black" d="M1271,-122.3C1271,-140.27 1271,-165 1271,-165 1271,-165 2121.31,-165 2121.31,-165"/>
<polygon fill="black" stroke="black" points="2121.31,-168.5 2131.31,-165 2121.31,-161.5 2121.31,-168.5"/>
</g>
<!-- TaskRule -->
<g id="node29" class="node">
<title>TaskRule</title>
<ellipse fill="#fdb462" stroke="black" cx="1155" cy="-104" rx="48.09" ry="18"/>
<text text-anchor="middle" x="1155" y="-99.8" font-family="Times,serif" font-size="14.00">TaskRule</text>
</g>
<!-- TaskRule&#45;&gt;AuthorizationModule -->
<g id="edge28" class="edge">
<title>TaskRule&#45;&gt;AuthorizationModule</title>
<path fill="none" stroke="black" d="M1155,-122.22C1155,-140.83 1155,-167 1155,-167 1155,-167 2121.03,-167 2121.03,-167"/>
<polygon fill="black" stroke="black" points="2121.03,-170.5 2131.03,-167 2121.03,-163.5 2121.03,-170.5"/>
</g>
<!-- TeamRule -->
<g id="node30" class="node">
<title>TeamRule</title>
<ellipse fill="#fdb462" stroke="black" cx="1038" cy="-104" rx="51.02" ry="18"/>
<text text-anchor="middle" x="1038" y="-99.8" font-family="Times,serif" font-size="14.00">TeamRule</text>
</g>
<!-- TeamRule&#45;&gt;AuthorizationModule -->
<g id="edge29" class="edge">
<title>TeamRule&#45;&gt;AuthorizationModule</title>
<path fill="none" stroke="black" d="M1038,-122.11C1038,-141.34 1038,-169 1038,-169 1038,-169 2121.22,-169 2121.22,-169"/>
<polygon fill="black" stroke="black" points="2121.22,-172.5 2131.22,-169 2121.22,-165.5 2121.22,-172.5"/>
</g>
<!-- TeamsRepo -->
<g id="node31" class="node">
<title>TeamsRepo</title>
<ellipse fill="#fdb462" stroke="black" cx="912" cy="-104" rx="57.32" ry="18"/>
<text text-anchor="middle" x="912" y="-99.8" font-family="Times,serif" font-size="14.00">TeamsRepo</text>
</g>
<!-- TeamsRepo&#45;&gt;AuthorizationModule -->
<g id="edge30" class="edge">
<title>TeamsRepo&#45;&gt;AuthorizationModule</title>
<path fill="none" stroke="black" d="M912,-122.22C912,-142.37 912,-172 912,-172 912,-172 2121.21,-172 2121.21,-172"/>
<polygon fill="black" stroke="black" points="2121.21,-175.5 2131.21,-172 2121.21,-168.5 2121.21,-175.5"/>
</g>
<!-- UserLoginMigrationRule -->
<g id="node32" class="node">
<title>UserLoginMigrationRule</title>
<ellipse fill="#fdb462" stroke="black" cx="728" cy="-104" rx="109.39" ry="18"/>
<text text-anchor="middle" x="728" y="-99.8" font-family="Times,serif" font-size="14.00">UserLoginMigrationRule</text>
</g>
<!-- UserLoginMigrationRule&#45;&gt;AuthorizationModule -->
<g id="edge31" class="edge">
<title>UserLoginMigrationRule&#45;&gt;AuthorizationModule</title>
<path fill="none" stroke="black" d="M728,-122.03C728,-142.77 728,-174 728,-174 728,-174 2120.98,-174 2120.98,-174"/>
<polygon fill="black" stroke="black" points="2120.98,-177.5 2130.98,-174 2120.98,-170.5 2120.98,-177.5"/>
</g>
<!-- UserRepo -->
<g id="node33" class="node">
<title>UserRepo</title>
<ellipse fill="#fdb462" stroke="black" cx="551" cy="-104" rx="49.8" ry="18"/>
<text text-anchor="middle" x="551" y="-99.8" font-family="Times,serif" font-size="14.00">UserRepo</text>
</g>
<!-- UserRepo&#45;&gt;AuthorizationModule -->
<g id="edge32" class="edge">
<title>UserRepo&#45;&gt;AuthorizationModule</title>
<path fill="none" stroke="black" d="M551,-122.17C551,-143.5 551,-176 551,-176 551,-176 2121.24,-176 2121.24,-176"/>
<polygon fill="black" stroke="black" points="2121.24,-179.5 2131.24,-176 2121.24,-172.5 2121.24,-179.5"/>
</g>
<!-- UserRule -->
<g id="node34" class="node">
<title>UserRule</title>
<ellipse fill="#fdb462" stroke="black" cx="436" cy="-104" rx="47.51" ry="18"/>
<text text-anchor="middle" x="436" y="-99.8" font-family="Times,serif" font-size="14.00">UserRule</text>
</g>
<!-- UserRule&#45;&gt;AuthorizationModule -->
<g id="edge33" class="edge">
<title>UserRule&#45;&gt;AuthorizationModule</title>
<path fill="none" stroke="black" d="M436,-122.29C436,-144.21 436,-178 436,-178 436,-178 2121.12,-178 2121.12,-178"/>
<polygon fill="black" stroke="black" points="2121.12,-181.5 2131.12,-178 2121.12,-174.5 2121.12,-181.5"/>
</g>
</g>
</svg>
