<?xml version="1.0" encoding="UTF-8" standalone="no"?>
<!DOCTYPE svg PUBLIC "-//W3C//DTD SVG 1.1//EN"
 "http://www.w3.org/Graphics/SVG/1.1/DTD/svg11.dtd">
<!-- Generated by graphviz version 2.47.0 (20210316.0004)
 -->
<!-- Title: dependencies Pages: 1 -->
<svg width="4071pt" height="284pt"
 viewBox="0.00 0.00 4071.00 284.00" xmlns="http://www.w3.org/2000/svg" xmlns:xlink="http://www.w3.org/1999/xlink">
<g id="graph0" class="graph" transform="scale(1 1) rotate(0) translate(4 280)">
<title>dependencies</title>
<polygon fill="white" stroke="transparent" points="-4,4 -4,-280 4067,-280 4067,4 -4,4"/>
<text text-anchor="start" x="2010.51" y="-42.4" font-family="Times-12" font-weight="bold" font-size="14.00">Legend</text>
<polygon fill="#ffffb3" stroke="transparent" points="1797.5,-10 1797.5,-30 1817.5,-30 1817.5,-10 1797.5,-10"/>
<text text-anchor="start" x="1821.13" y="-15.4" font-family="Times-12" font-size="14.00"> &#160;Declarations</text>
<polygon fill="#8dd3c7" stroke="transparent" points="1910.5,-10 1910.5,-30 1930.5,-30 1930.5,-10 1910.5,-10"/>
<text text-anchor="start" x="1934.23" y="-15.4" font-family="Times-12" font-size="14.00"> &#160;Module</text>
<polygon fill="#80b1d3" stroke="transparent" points="1996.5,-10 1996.5,-30 2016.5,-30 2016.5,-10 1996.5,-10"/>
<text text-anchor="start" x="2020.28" y="-15.4" font-family="Times-12" font-size="14.00"> &#160;Bootstrap</text>
<polygon fill="#fdb462" stroke="transparent" points="2093.5,-10 2093.5,-30 2113.5,-30 2113.5,-10 2093.5,-10"/>
<text text-anchor="start" x="2117.17" y="-15.4" font-family="Times-12" font-size="14.00"> &#160;Providers</text>
<polygon fill="#fb8072" stroke="transparent" points="2189.5,-10 2189.5,-30 2209.5,-30 2209.5,-10 2189.5,-10"/>
<text text-anchor="start" x="2213.23" y="-15.4" font-family="Times-12" font-size="14.00"> &#160;Exports</text>
<g id="clust1" class="cluster">
<title>cluster_AuthorizationModule</title>
<polygon fill="none" stroke="black" stroke-dasharray="1,5" points="8,-70 8,-268 4055,-268 4055,-70 8,-70"/>
</g>
<g id="clust3" class="cluster">
<title>cluster_AuthorizationModule_imports</title>
<polygon fill="none" stroke="black" points="3807,-78 3807,-130 4047,-130 4047,-78 3807,-78"/>
</g>
<g id="clust6" class="cluster">
<title>cluster_AuthorizationModule_providers</title>
<polygon fill="none" stroke="black" points="16,-78 16,-130 3799,-130 3799,-78 16,-78"/>
</g>
<g id="clust4" class="cluster">
<title>cluster_AuthorizationModule_exports</title>
<polygon fill="none" stroke="black" points="1709,-208 1709,-260 2175,-260 2175,-208 1709,-208"/>
</g>
<!-- FeathersModule -->
<g id="node1" class="node">
<title>FeathersModule</title>
<polygon fill="#8dd3c7" stroke="black" points="4039.47,-122 4036.47,-126 4015.47,-126 4012.47,-122 3932.53,-122 3932.53,-86 4039.47,-86 4039.47,-122"/>
<text text-anchor="middle" x="3986" y="-99.8" font-family="Times,serif" font-size="14.00">FeathersModule</text>
</g>
<!-- AuthorizationModule -->
<g id="node3" class="node">
<title>AuthorizationModule</title>
<polygon fill="#8dd3c7" stroke="black" points="1984.81,-187 1981.81,-191 1960.81,-191 1957.81,-187 1847.19,-187 1847.19,-151 1984.81,-151 1984.81,-187"/>
<text text-anchor="middle" x="1916" y="-164.8" font-family="Times,serif" font-size="14.00">AuthorizationModule</text>
</g>
<!-- FeathersModule&#45;&gt;AuthorizationModule -->
<g id="edge1" class="edge">
<title>FeathersModule&#45;&gt;AuthorizationModule</title>
<path fill="none" stroke="black" d="M3986,-122.09C3986,-145.13 3986,-182 3986,-182 3986,-182 1994.87,-182 1994.87,-182"/>
<polygon fill="black" stroke="black" points="1994.87,-178.5 1984.87,-182 1994.87,-185.5 1994.87,-178.5"/>
</g>
<!-- LoggerModule -->
<g id="node2" class="node">
<title>LoggerModule</title>
<polygon fill="#8dd3c7" stroke="black" points="3914.98,-122 3911.98,-126 3890.98,-126 3887.98,-122 3815.02,-122 3815.02,-86 3914.98,-86 3914.98,-122"/>
<text text-anchor="middle" x="3865" y="-99.8" font-family="Times,serif" font-size="14.00">LoggerModule</text>
</g>
<!-- LoggerModule&#45;&gt;AuthorizationModule -->
<g id="edge2" class="edge">
<title>LoggerModule&#45;&gt;AuthorizationModule</title>
<path fill="none" stroke="black" d="M3865,-122.16C3865,-144.35 3865,-179 3865,-179 3865,-179 1994.79,-179 1994.79,-179"/>
<polygon fill="black" stroke="black" points="1994.79,-175.5 1984.79,-179 1994.79,-182.5 1994.79,-175.5"/>
</g>
<!-- AuthorizationService  -->
<g id="node4" class="node">
<title>AuthorizationService </title>
<polygon fill="#fb8072" stroke="black" points="2166.74,-252 2027.26,-252 2027.26,-216 2166.74,-216 2166.74,-252"/>
<text text-anchor="middle" x="2097" y="-229.8" font-family="Times,serif" font-size="14.00">AuthorizationService </text>
</g>
<!-- AuthorizationModule&#45;&gt;AuthorizationService  -->
<g id="edge3" class="edge">
<title>AuthorizationModule&#45;&gt;AuthorizationService </title>
<path fill="none" stroke="black" stroke-dasharray="5,2" d="M1984.97,-185C2019.46,-185 2053.95,-185 2053.95,-185 2053.95,-185 2053.95,-205.75 2053.95,-205.75"/>
<polygon fill="black" stroke="black" points="2050.45,-205.75 2053.95,-215.75 2057.45,-205.75 2050.45,-205.75"/>
</g>
<!-- FeathersAuthorizationService  -->
<g id="node5" class="node">
<title>FeathersAuthorizationService </title>
<polygon fill="#fb8072" stroke="black" points="2009.16,-252 1822.84,-252 1822.84,-216 2009.16,-216 2009.16,-252"/>
<text text-anchor="middle" x="1916" y="-229.8" font-family="Times,serif" font-size="14.00">FeathersAuthorizationService </text>
</g>
<!-- AuthorizationModule&#45;&gt;FeathersAuthorizationService  -->
<g id="edge4" class="edge">
<title>AuthorizationModule&#45;&gt;FeathersAuthorizationService </title>
<path fill="none" stroke="black" stroke-dasharray="5,2" d="M1916,-187.11C1916,-187.11 1916,-205.99 1916,-205.99"/>
<polygon fill="black" stroke="black" points="1912.5,-205.99 1916,-215.99 1919.5,-205.99 1912.5,-205.99"/>
</g>
<!-- SystemRule  -->
<g id="node6" class="node">
<title>SystemRule </title>
<polygon fill="#fb8072" stroke="black" points="1804.66,-252 1717.34,-252 1717.34,-216 1804.66,-216 1804.66,-252"/>
<text text-anchor="middle" x="1761" y="-229.8" font-family="Times,serif" font-size="14.00">SystemRule </text>
</g>
<!-- AuthorizationModule&#45;&gt;SystemRule  -->
<g id="edge5" class="edge">
<title>AuthorizationModule&#45;&gt;SystemRule </title>
<path fill="none" stroke="black" stroke-dasharray="5,2" d="M1847.02,-185C1818.72,-185 1792.48,-185 1792.48,-185 1792.48,-185 1792.48,-205.75 1792.48,-205.75"/>
<polygon fill="black" stroke="black" points="1788.98,-205.75 1792.48,-215.75 1795.98,-205.75 1788.98,-205.75"/>
</g>
<!-- AuthorizationHelper -->
<g id="node7" class="node">
<title>AuthorizationHelper</title>
<ellipse fill="#fdb462" stroke="black" cx="3700" cy="-104" rx="90.89" ry="18"/>
<text text-anchor="middle" x="3700" y="-99.8" font-family="Times,serif" font-size="14.00">AuthorizationHelper</text>
</g>
<!-- AuthorizationHelper&#45;&gt;AuthorizationModule -->
<g id="edge6" class="edge">
<title>AuthorizationHelper&#45;&gt;AuthorizationModule</title>
<path fill="none" stroke="black" d="M3700,-122.17C3700,-143.5 3700,-176 3700,-176 3700,-176 1994.84,-176 1994.84,-176"/>
<polygon fill="black" stroke="black" points="1994.84,-172.5 1984.84,-176 1994.84,-179.5 1994.84,-172.5"/>
</g>
<!-- AuthorizationService -->
<g id="node8" class="node">
<title>AuthorizationService</title>
<ellipse fill="#fdb462" stroke="black" cx="3497" cy="-104" rx="93.76" ry="18"/>
<text text-anchor="middle" x="3497" y="-99.8" font-family="Times,serif" font-size="14.00">AuthorizationService</text>
</g>
<!-- AuthorizationService&#45;&gt;AuthorizationModule -->
<g id="edge7" class="edge">
<title>AuthorizationService&#45;&gt;AuthorizationModule</title>
<path fill="none" stroke="black" d="M3497,-122.03C3497,-142.77 3497,-174 3497,-174 3497,-174 1994.7,-174 1994.7,-174"/>
<polygon fill="black" stroke="black" points="1994.7,-170.5 1984.7,-174 1994.7,-177.5 1994.7,-170.5"/>
</g>
<!-- BoardDoRule -->
<g id="node9" class="node">
<title>BoardDoRule</title>
<ellipse fill="#fdb462" stroke="black" cx="3321" cy="-104" rx="64.85" ry="18"/>
<text text-anchor="middle" x="3321" y="-99.8" font-family="Times,serif" font-size="14.00">BoardDoRule</text>
</g>
<!-- BoardDoRule&#45;&gt;AuthorizationModule -->
<g id="edge8" class="edge">
<title>BoardDoRule&#45;&gt;AuthorizationModule</title>
<path fill="none" stroke="black" d="M3321,-122.31C3321,-142.15 3321,-171 3321,-171 3321,-171 1994.72,-171 1994.72,-171"/>
<polygon fill="black" stroke="black" points="1994.72,-167.5 1984.72,-171 1994.72,-174.5 1994.72,-167.5"/>
</g>
<!-- ContextExternalToolRule -->
<g id="node10" class="node">
<title>ContextExternalToolRule</title>
<ellipse fill="#fdb462" stroke="black" cx="3128" cy="-104" rx="110.61" ry="18"/>
<text text-anchor="middle" x="3128" y="-99.8" font-family="Times,serif" font-size="14.00">ContextExternalToolRule</text>
</g>
<!-- ContextExternalToolRule&#45;&gt;AuthorizationModule -->
<g id="edge9" class="edge">
<title>ContextExternalToolRule&#45;&gt;AuthorizationModule</title>
<path fill="none" stroke="black" d="M3128,-122.17C3128,-141.09 3128,-168 3128,-168 3128,-168 1995.07,-168 1995.07,-168"/>
<polygon fill="black" stroke="black" points="1995.07,-164.5 1985.07,-168 1995.07,-171.5 1995.07,-164.5"/>
</g>
<!-- CourseGroupRule -->
<g id="node11" class="node">
<title>CourseGroupRule</title>
<ellipse fill="#fdb462" stroke="black" cx="2918" cy="-104" rx="81.1" ry="18"/>
<text text-anchor="middle" x="2918" y="-99.8" font-family="Times,serif" font-size="14.00">CourseGroupRule</text>
</g>
<!-- CourseGroupRule&#45;&gt;AuthorizationModule -->
<g id="edge10" class="edge">
<title>CourseGroupRule&#45;&gt;AuthorizationModule</title>
<path fill="none" stroke="black" d="M2918,-122.3C2918,-140.27 2918,-165 2918,-165 2918,-165 1994.87,-165 1994.87,-165"/>
<polygon fill="black" stroke="black" points="1994.87,-161.5 1984.87,-165 1994.87,-168.5 1994.87,-161.5"/>
</g>
<!-- CourseRule -->
<g id="node12" class="node">
<title>CourseRule</title>
<ellipse fill="#fdb462" stroke="black" cx="2762" cy="-104" rx="56.76" ry="18"/>
<text text-anchor="middle" x="2762" y="-99.8" font-family="Times,serif" font-size="14.00">CourseRule</text>
</g>
<!-- CourseRule&#45;&gt;AuthorizationModule -->
<g id="edge11" class="edge">
<title>CourseRule&#45;&gt;AuthorizationModule</title>
<path fill="none" stroke="black" d="M2762,-122.02C2762,-139.37 2762,-163 2762,-163 2762,-163 1994.87,-163 1994.87,-163"/>
<polygon fill="black" stroke="black" points="1994.87,-159.5 1984.87,-163 1994.87,-166.5 1994.87,-159.5"/>
</g>
<!-- FeathersAuthProvider -->
<g id="node13" class="node">
<title>FeathersAuthProvider</title>
<ellipse fill="#fdb462" stroke="black" cx="2591" cy="-104" rx="96.13" ry="18"/>
<text text-anchor="middle" x="2591" y="-99.8" font-family="Times,serif" font-size="14.00">FeathersAuthProvider</text>
</g>
<!-- FeathersAuthProvider&#45;&gt;AuthorizationModule -->
<g id="edge12" class="edge">
<title>FeathersAuthProvider&#45;&gt;AuthorizationModule</title>
<path fill="none" stroke="black" d="M2591,-122.03C2591,-138.4 2591,-160 2591,-160 2591,-160 1994.75,-160 1994.75,-160"/>
<polygon fill="black" stroke="black" points="1994.75,-156.5 1984.75,-160 1994.75,-163.5 1994.75,-156.5"/>
</g>
<!-- FeathersAuthorizationService -->
<g id="node14" class="node">
<title>FeathersAuthorizationService</title>
<ellipse fill="#fdb462" stroke="black" cx="2350" cy="-104" rx="126.18" ry="18"/>
<text text-anchor="middle" x="2350" y="-99.8" font-family="Times,serif" font-size="14.00">FeathersAuthorizationService</text>
</g>
<!-- FeathersAuthorizationService&#45;&gt;AuthorizationModule -->
<g id="edge13" class="edge">
<title>FeathersAuthorizationService&#45;&gt;AuthorizationModule</title>
<path fill="none" stroke="black" d="M2350,-122.24C2350,-137.57 2350,-157 2350,-157 2350,-157 1994.77,-157 1994.77,-157"/>
<polygon fill="black" stroke="black" points="1994.77,-153.5 1984.77,-157 1994.77,-160.5 1994.77,-153.5"/>
</g>
<!-- GroupRule -->
<g id="node15" class="node">
<title>GroupRule</title>
<ellipse fill="#fdb462" stroke="black" cx="2152" cy="-104" rx="53.89" ry="18"/>
<text text-anchor="middle" x="2152" y="-99.8" font-family="Times,serif" font-size="14.00">GroupRule</text>
</g>
<!-- GroupRule&#45;&gt;AuthorizationModule -->
<g id="edge14" class="edge">
<title>GroupRule&#45;&gt;AuthorizationModule</title>
<path fill="none" stroke="black" d="M2132.34,-120.93C2132.34,-135.43 2132.34,-154 2132.34,-154 2132.34,-154 1994.75,-154 1994.75,-154"/>
<polygon fill="black" stroke="black" points="1994.75,-150.5 1984.75,-154 1994.75,-157.5 1994.75,-150.5"/>
</g>
<!-- LegacySchoolRule -->
<g id="node16" class="node">
<title>LegacySchoolRule</title>
<ellipse fill="#fdb462" stroke="black" cx="1996" cy="-104" rx="84.53" ry="18"/>
<text text-anchor="middle" x="1996" y="-99.8" font-family="Times,serif" font-size="14.00">LegacySchoolRule</text>
</g>
<!-- LegacySchoolRule&#45;&gt;AuthorizationModule -->
<g id="edge15" class="edge">
<title>LegacySchoolRule&#45;&gt;AuthorizationModule</title>
<path fill="none" stroke="black" d="M1948.07,-119.08C1948.07,-119.08 1948.07,-140.76 1948.07,-140.76"/>
<polygon fill="black" stroke="black" points="1944.57,-140.76 1948.07,-150.76 1951.57,-140.76 1944.57,-140.76"/>
</g>
<!-- LessonRule -->
<g id="node17" class="node">
<title>LessonRule</title>
<ellipse fill="#fdb462" stroke="black" cx="1837" cy="-104" rx="56.76" ry="18"/>
<text text-anchor="middle" x="1837" y="-99.8" font-family="Times,serif" font-size="14.00">LessonRule</text>
</g>
<!-- LessonRule&#45;&gt;AuthorizationModule -->
<g id="edge16" class="edge">
<title>LessonRule&#45;&gt;AuthorizationModule</title>
<path fill="none" stroke="black" d="M1870.49,-118.75C1870.49,-118.75 1870.49,-140.59 1870.49,-140.59"/>
<polygon fill="black" stroke="black" points="1866.99,-140.59 1870.49,-150.59 1873.99,-140.59 1866.99,-140.59"/>
</g>
<!-- RuleManager -->
<g id="node18" class="node">
<title>RuleManager</title>
<ellipse fill="#fdb462" stroke="black" cx="1699" cy="-104" rx="63.68" ry="18"/>
<text text-anchor="middle" x="1699" y="-99.8" font-family="Times,serif" font-size="14.00">RuleManager</text>
</g>
<!-- RuleManager&#45;&gt;AuthorizationModule -->
<g id="edge17" class="edge">
<title>RuleManager&#45;&gt;AuthorizationModule</title>
<path fill="none" stroke="black" d="M1740,-117.93C1740,-132.72 1740,-154 1740,-154 1740,-154 1837.2,-154 1837.2,-154"/>
<polygon fill="black" stroke="black" points="1837.2,-157.5 1847.2,-154 1837.2,-150.5 1837.2,-157.5"/>
</g>
<!-- SchoolExternalToolRule -->
<g id="node19" class="node">
<title>SchoolExternalToolRule</title>
<ellipse fill="#fdb462" stroke="black" cx="1510" cy="-104" rx="107.1" ry="18"/>
<text text-anchor="middle" x="1510" y="-99.8" font-family="Times,serif" font-size="14.00">SchoolExternalToolRule</text>
</g>
<!-- SchoolExternalToolRule&#45;&gt;AuthorizationModule -->
<g id="edge18" class="edge">
<title>SchoolExternalToolRule&#45;&gt;AuthorizationModule</title>
<path fill="none" stroke="black" d="M1510,-122.24C1510,-137.57 1510,-157 1510,-157 1510,-157 1837.13,-157 1837.13,-157"/>
<polygon fill="black" stroke="black" points="1837.13,-160.5 1847.13,-157 1837.13,-153.5 1837.13,-160.5"/>
</g>
<!-- SchoolRule -->
<g id="node20" class="node">
<title>SchoolRule</title>
<ellipse fill="#fdb462" stroke="black" cx="1329" cy="-104" rx="56.2" ry="18"/>
<text text-anchor="middle" x="1329" y="-99.8" font-family="Times,serif" font-size="14.00">SchoolRule</text>
</g>
<!-- SchoolRule&#45;&gt;AuthorizationModule -->
<g id="edge19" class="edge">
<title>SchoolRule&#45;&gt;AuthorizationModule</title>
<path fill="none" stroke="black" d="M1329,-122.03C1329,-138.4 1329,-160 1329,-160 1329,-160 1837.23,-160 1837.23,-160"/>
<polygon fill="black" stroke="black" points="1837.23,-163.5 1847.23,-160 1837.23,-156.5 1837.23,-163.5"/>
</g>
<!-- SchoolSystemOptionsRule -->
<g id="node21" class="node">
<title>SchoolSystemOptionsRule</title>
<ellipse fill="#fdb462" stroke="black" cx="1140" cy="-104" rx="115.23" ry="18"/>
<text text-anchor="middle" x="1140" y="-99.8" font-family="Times,serif" font-size="14.00">SchoolSystemOptionsRule</text>
</g>
<!-- SchoolSystemOptionsRule&#45;&gt;AuthorizationModule -->
<g id="edge20" class="edge">
<title>SchoolSystemOptionsRule&#45;&gt;AuthorizationModule</title>
<path fill="none" stroke="black" d="M1140,-122.02C1140,-139.37 1140,-163 1140,-163 1140,-163 1837.14,-163 1837.14,-163"/>
<polygon fill="black" stroke="black" points="1837.14,-166.5 1847.14,-163 1837.14,-159.5 1837.14,-166.5"/>
</g>
<!-- SubmissionRule -->
<g id="node22" class="node">
<title>SubmissionRule</title>
<ellipse fill="#fdb462" stroke="black" cx="933" cy="-104" rx="74.2" ry="18"/>
<text text-anchor="middle" x="933" y="-99.8" font-family="Times,serif" font-size="14.00">SubmissionRule</text>
</g>
<!-- SubmissionRule&#45;&gt;AuthorizationModule -->
<g id="edge21" class="edge">
<title>SubmissionRule&#45;&gt;AuthorizationModule</title>
<path fill="none" stroke="black" d="M933,-122.3C933,-140.27 933,-165 933,-165 933,-165 1837.27,-165 1837.27,-165"/>
<polygon fill="black" stroke="black" points="1837.27,-168.5 1847.27,-165 1837.27,-161.5 1837.27,-168.5"/>
</g>
<!-- SystemRule -->
<g id="node23" class="node">
<title>SystemRule</title>
<ellipse fill="#fdb462" stroke="black" cx="783" cy="-104" rx="57.92" ry="18"/>
<text text-anchor="middle" x="783" y="-99.8" font-family="Times,serif" font-size="14.00">SystemRule</text>
</g>
<!-- SystemRule&#45;&gt;AuthorizationModule -->
<g id="edge22" class="edge">
<title>SystemRule&#45;&gt;AuthorizationModule</title>
<path fill="none" stroke="black" d="M783,-122.17C783,-141.09 783,-168 783,-168 783,-168 1837.25,-168 1837.25,-168"/>
<polygon fill="black" stroke="black" points="1837.25,-171.5 1847.25,-168 1837.25,-164.5 1837.25,-171.5"/>
</g>
<!-- TaskRule -->
<g id="node24" class="node">
<title>TaskRule</title>
<ellipse fill="#fdb462" stroke="black" cx="659" cy="-104" rx="48.09" ry="18"/>
<text text-anchor="middle" x="659" y="-99.8" font-family="Times,serif" font-size="14.00">TaskRule</text>
</g>
<!-- TaskRule&#45;&gt;AuthorizationModule -->
<g id="edge23" class="edge">
<title>TaskRule&#45;&gt;AuthorizationModule</title>
<path fill="none" stroke="black" d="M659,-122.31C659,-142.15 659,-171 659,-171 659,-171 1837.08,-171 1837.08,-171"/>
<polygon fill="black" stroke="black" points="1837.08,-174.5 1847.08,-171 1837.08,-167.5 1837.08,-174.5"/>
</g>
<!-- TeamRule -->
<g id="node25" class="node">
<title>TeamRule</title>
<ellipse fill="#fdb462" stroke="black" cx="542" cy="-104" rx="51.02" ry="18"/>
<text text-anchor="middle" x="542" y="-99.8" font-family="Times,serif" font-size="14.00">TeamRule</text>
</g>
<!-- TeamRule&#45;&gt;AuthorizationModule -->
<g id="edge24" class="edge">
<title>TeamRule&#45;&gt;AuthorizationModule</title>
<path fill="none" stroke="black" d="M542,-122.03C542,-142.77 542,-174 542,-174 542,-174 1836.92,-174 1836.92,-174"/>
<polygon fill="black" stroke="black" points="1836.92,-177.5 1846.92,-174 1836.92,-170.5 1836.92,-177.5"/>
</g>
<!-- UserLoginMigrationRule -->
<g id="node26" class="node">
<title>UserLoginMigrationRule</title>
<ellipse fill="#fdb462" stroke="black" cx="364" cy="-104" rx="109.39" ry="18"/>
<text text-anchor="middle" x="364" y="-99.8" font-family="Times,serif" font-size="14.00">UserLoginMigrationRule</text>
</g>
<!-- UserLoginMigrationRule&#45;&gt;AuthorizationModule -->
<g id="edge25" class="edge">
<title>UserLoginMigrationRule&#45;&gt;AuthorizationModule</title>
<path fill="none" stroke="black" d="M364,-122.17C364,-143.5 364,-176 364,-176 364,-176 1837.31,-176 1837.31,-176"/>
<polygon fill="black" stroke="black" points="1837.31,-179.5 1847.31,-176 1837.31,-172.5 1837.31,-179.5"/>
</g>
<!-- UserRepo -->
<g id="node27" class="node">
<title>UserRepo</title>
<ellipse fill="#fdb462" stroke="black" cx="187" cy="-104" rx="49.8" ry="18"/>
<text text-anchor="middle" x="187" y="-99.8" font-family="Times,serif" font-size="14.00">UserRepo</text>
</g>
<!-- UserRepo&#45;&gt;AuthorizationModule -->
<g id="edge26" class="edge">
<title>UserRepo&#45;&gt;AuthorizationModule</title>
<path fill="none" stroke="black" d="M187,-122.16C187,-144.35 187,-179 187,-179 187,-179 1837.15,-179 1837.15,-179"/>
<polygon fill="black" stroke="black" points="1837.15,-182.5 1847.15,-179 1837.15,-175.5 1837.15,-182.5"/>
</g>
<!-- UserRule -->
<g id="node28" class="node">
<title>UserRule</title>
<ellipse fill="#fdb462" stroke="black" cx="72" cy="-104" rx="47.51" ry="18"/>
<text text-anchor="middle" x="72" y="-99.8" font-family="Times,serif" font-size="14.00">UserRule</text>
</g>
<!-- UserRule&#45;&gt;AuthorizationModule -->
<g id="edge27" class="edge">
<title>UserRule&#45;&gt;AuthorizationModule</title>
<path fill="none" stroke="black" d="M72,-122.09C72,-145.13 72,-182 72,-182 72,-182 1837.08,-182 1837.08,-182"/>
<polygon fill="black" stroke="black" points="1837.08,-185.5 1847.08,-182 1837.08,-178.5 1837.08,-185.5"/>
</g>
</g>
</svg>
