<?xml version="1.0" encoding="UTF-8" standalone="no"?>
<!DOCTYPE svg PUBLIC "-//W3C//DTD SVG 1.1//EN"
 "http://www.w3.org/Graphics/SVG/1.1/DTD/svg11.dtd">
<!-- Generated by graphviz version 2.47.0 (20210316.0004)
 -->
<!-- Title: dependencies Pages: 1 -->
<svg width="5070pt" height="284pt"
 viewBox="0.00 0.00 5070.00 284.00" xmlns="http://www.w3.org/2000/svg" xmlns:xlink="http://www.w3.org/1999/xlink">
<g id="graph0" class="graph" transform="scale(1 1) rotate(0) translate(4 280)">
<title>dependencies</title>
<polygon fill="white" stroke="transparent" points="-4,4 -4,-280 5066,-280 5066,4 -4,4"/>
<text text-anchor="start" x="2510.01" y="-42.4" font-family="Times-12" font-weight="bold" font-size="14.00">Legend</text>
<polygon fill="#ffffb3" stroke="transparent" points="2297,-10 2297,-30 2317,-30 2317,-10 2297,-10"/>
<text text-anchor="start" x="2320.63" y="-15.4" font-family="Times-12" font-size="14.00"> &#160;Declarations</text>
<polygon fill="#8dd3c7" stroke="transparent" points="2410,-10 2410,-30 2430,-30 2430,-10 2410,-10"/>
<text text-anchor="start" x="2433.73" y="-15.4" font-family="Times-12" font-size="14.00"> &#160;Module</text>
<polygon fill="#80b1d3" stroke="transparent" points="2496,-10 2496,-30 2516,-30 2516,-10 2496,-10"/>
<text text-anchor="start" x="2519.78" y="-15.4" font-family="Times-12" font-size="14.00"> &#160;Bootstrap</text>
<polygon fill="#fdb462" stroke="transparent" points="2593,-10 2593,-30 2613,-30 2613,-10 2593,-10"/>
<text text-anchor="start" x="2616.67" y="-15.4" font-family="Times-12" font-size="14.00"> &#160;Providers</text>
<polygon fill="#fb8072" stroke="transparent" points="2689,-10 2689,-30 2709,-30 2709,-10 2689,-10"/>
<text text-anchor="start" x="2712.73" y="-15.4" font-family="Times-12" font-size="14.00"> &#160;Exports</text>
<g id="clust1" class="cluster">
<title>cluster_AuthorizationModule</title>
<polygon fill="none" stroke="black" stroke-dasharray="1,5" points="8,-70 8,-268 5054,-268 5054,-70 8,-70"/>
</g>
<g id="clust3" class="cluster">
<title>cluster_AuthorizationModule_imports</title>
<polygon fill="none" stroke="black" points="4648,-78 4648,-130 5046,-130 5046,-78 4648,-78"/>
</g>
<g id="clust6" class="cluster">
<title>cluster_AuthorizationModule_providers</title>
<polygon fill="none" stroke="black" points="16,-78 16,-130 4640,-130 4640,-78 16,-78"/>
</g>
<g id="clust4" class="cluster">
<title>cluster_AuthorizationModule_exports</title>
<polygon fill="none" stroke="black" points="2179,-208 2179,-260 2539,-260 2539,-208 2179,-208"/>
</g>
<!-- FeathersModule -->
<g id="node1" class="node">
<title>FeathersModule</title>
<polygon fill="#8dd3c7" stroke="black" points="5038.47,-122 5035.47,-126 5014.47,-126 5011.47,-122 4931.53,-122 4931.53,-86 5038.47,-86 5038.47,-122"/>
<text text-anchor="middle" x="4985" y="-99.8" font-family="Times,serif" font-size="14.00">FeathersModule</text>
</g>
<!-- AuthorizationModule -->
<g id="node4" class="node">
<title>AuthorizationModule</title>
<polygon fill="#8dd3c7" stroke="black" points="2438.81,-187 2435.81,-191 2414.81,-191 2411.81,-187 2301.19,-187 2301.19,-151 2438.81,-151 2438.81,-187"/>
<text text-anchor="middle" x="2370" y="-164.8" font-family="Times,serif" font-size="14.00">AuthorizationModule</text>
</g>
<!-- FeathersModule&#45;&gt;AuthorizationModule -->
<g id="edge1" class="edge">
<title>FeathersModule&#45;&gt;AuthorizationModule</title>
<path fill="none" stroke="black" d="M4985,-122.38C4985,-146.28 4985,-185 4985,-185 4985,-185 2448.94,-185 2448.94,-185"/>
<polygon fill="black" stroke="black" points="2448.94,-181.5 2438.94,-185 2448.94,-188.5 2448.94,-181.5"/>
</g>
<!-- LegacySchoolModule -->
<g id="node2" class="node">
<title>LegacySchoolModule</title>
<polygon fill="#8dd3c7" stroke="black" points="4913.63,-122 4910.63,-126 4889.63,-126 4886.63,-122 4774.37,-122 4774.37,-86 4913.63,-86 4913.63,-122"/>
<text text-anchor="middle" x="4844" y="-99.8" font-family="Times,serif" font-size="14.00">LegacySchoolModule</text>
</g>
<!-- LegacySchoolModule&#45;&gt;AuthorizationModule -->
<g id="edge2" class="edge">
<title>LegacySchoolModule&#45;&gt;AuthorizationModule</title>
<path fill="none" stroke="black" d="M4844,-122.32C4844,-145.66 4844,-183 4844,-183 4844,-183 2448.75,-183 2448.75,-183"/>
<polygon fill="black" stroke="black" points="2448.75,-179.5 2438.75,-183 2448.75,-186.5 2448.75,-179.5"/>
</g>
<!-- LoggerModule -->
<g id="node3" class="node">
<title>LoggerModule</title>
<polygon fill="#8dd3c7" stroke="black" points="4755.98,-122 4752.98,-126 4731.98,-126 4728.98,-122 4656.02,-122 4656.02,-86 4755.98,-86 4755.98,-122"/>
<text text-anchor="middle" x="4706" y="-99.8" font-family="Times,serif" font-size="14.00">LoggerModule</text>
</g>
<!-- LoggerModule&#45;&gt;AuthorizationModule -->
<g id="edge3" class="edge">
<title>LoggerModule&#45;&gt;AuthorizationModule</title>
<path fill="none" stroke="black" d="M4706,-122.01C4706,-144.49 4706,-180 4706,-180 4706,-180 2448.96,-180 2448.96,-180"/>
<polygon fill="black" stroke="black" points="2448.96,-176.5 2438.96,-180 2448.96,-183.5 2448.96,-176.5"/>
</g>
<!-- AuthorizationService  -->
<g id="node5" class="node">
<title>AuthorizationService </title>
<polygon fill="#fb8072" stroke="black" points="2530.74,-252 2391.26,-252 2391.26,-216 2530.74,-216 2530.74,-252"/>
<text text-anchor="middle" x="2461" y="-229.8" font-family="Times,serif" font-size="14.00">AuthorizationService </text>
</g>
<!-- AuthorizationModule&#45;&gt;AuthorizationService  -->
<g id="edge4" class="edge">
<title>AuthorizationModule&#45;&gt;AuthorizationService </title>
<path fill="none" stroke="black" stroke-dasharray="5,2" d="M2415.02,-187.11C2415.02,-187.11 2415.02,-205.99 2415.02,-205.99"/>
<polygon fill="black" stroke="black" points="2411.52,-205.99 2415.02,-215.99 2418.52,-205.99 2411.52,-205.99"/>
</g>
<!-- FeathersAuthorizationService  -->
<g id="node6" class="node">
<title>FeathersAuthorizationService </title>
<polygon fill="#fb8072" stroke="black" points="2373.16,-252 2186.84,-252 2186.84,-216 2373.16,-216 2373.16,-252"/>
<text text-anchor="middle" x="2280" y="-229.8" font-family="Times,serif" font-size="14.00">FeathersAuthorizationService </text>
</g>
<!-- AuthorizationModule&#45;&gt;FeathersAuthorizationService  -->
<g id="edge5" class="edge">
<title>AuthorizationModule&#45;&gt;FeathersAuthorizationService </title>
<path fill="none" stroke="black" stroke-dasharray="5,2" d="M2337.34,-187.11C2337.34,-187.11 2337.34,-205.99 2337.34,-205.99"/>
<polygon fill="black" stroke="black" points="2333.84,-205.99 2337.34,-215.99 2340.84,-205.99 2333.84,-205.99"/>
</g>
<!-- AuthorizationHelper -->
<g id="node7" class="node">
<title>AuthorizationHelper</title>
<ellipse fill="#fdb462" stroke="black" cx="4541" cy="-104" rx="90.89" ry="18"/>
<text text-anchor="middle" x="4541" y="-99.8" font-family="Times,serif" font-size="14.00">AuthorizationHelper</text>
</g>
<!-- AuthorizationHelper&#45;&gt;AuthorizationModule -->
<g id="edge6" class="edge">
<title>AuthorizationHelper&#45;&gt;AuthorizationModule</title>
<path fill="none" stroke="black" d="M4541,-122.29C4541,-144.21 4541,-178 4541,-178 4541,-178 2448.86,-178 2448.86,-178"/>
<polygon fill="black" stroke="black" points="2448.86,-174.5 2438.86,-178 2448.86,-181.5 2448.86,-174.5"/>
</g>
<!-- AuthorizationService -->
<g id="node8" class="node">
<title>AuthorizationService</title>
<ellipse fill="#fdb462" stroke="black" cx="4338" cy="-104" rx="93.76" ry="18"/>
<text text-anchor="middle" x="4338" y="-99.8" font-family="Times,serif" font-size="14.00">AuthorizationService</text>
</g>
<!-- AuthorizationService&#45;&gt;AuthorizationModule -->
<g id="edge7" class="edge">
<title>AuthorizationService&#45;&gt;AuthorizationModule</title>
<path fill="none" stroke="black" d="M4338,-122.28C4338,-143.32 4338,-175 4338,-175 4338,-175 2448.89,-175 2448.89,-175"/>
<polygon fill="black" stroke="black" points="2448.89,-171.5 2438.89,-175 2448.89,-178.5 2448.89,-171.5"/>
</g>
<!-- BoardDoRule -->
<g id="node9" class="node">
<title>BoardDoRule</title>
<ellipse fill="#fdb462" stroke="black" cx="4162" cy="-104" rx="64.85" ry="18"/>
<text text-anchor="middle" x="4162" y="-99.8" font-family="Times,serif" font-size="14.00">BoardDoRule</text>
</g>
<!-- BoardDoRule&#45;&gt;AuthorizationModule -->
<g id="edge8" class="edge">
<title>BoardDoRule&#45;&gt;AuthorizationModule</title>
<path fill="none" stroke="black" d="M4162,-122.13C4162,-142.57 4162,-173 4162,-173 4162,-173 2448.88,-173 2448.88,-173"/>
<polygon fill="black" stroke="black" points="2448.88,-169.5 2438.88,-173 2448.88,-176.5 2448.88,-169.5"/>
</g>
<!-- ContextExternalToolRule -->
<g id="node10" class="node">
<title>ContextExternalToolRule</title>
<ellipse fill="#fdb462" stroke="black" cx="3969" cy="-104" rx="110.61" ry="18"/>
<text text-anchor="middle" x="3969" y="-99.8" font-family="Times,serif" font-size="14.00">ContextExternalToolRule</text>
</g>
<!-- ContextExternalToolRule&#45;&gt;AuthorizationModule -->
<g id="edge9" class="edge">
<title>ContextExternalToolRule&#45;&gt;AuthorizationModule</title>
<path fill="none" stroke="black" d="M3969,-122.31C3969,-142.15 3969,-171 3969,-171 3969,-171 2448.71,-171 2448.71,-171"/>
<polygon fill="black" stroke="black" points="2448.71,-167.5 2438.71,-171 2448.71,-174.5 2448.71,-167.5"/>
</g>
<!-- CourseGroupRepo -->
<g id="node11" class="node">
<title>CourseGroupRepo</title>
<ellipse fill="#fdb462" stroke="black" cx="3757" cy="-104" rx="83.39" ry="18"/>
<text text-anchor="middle" x="3757" y="-99.8" font-family="Times,serif" font-size="14.00">CourseGroupRepo</text>
</g>
<!-- CourseGroupRepo&#45;&gt;AuthorizationModule -->
<g id="edge10" class="edge">
<title>CourseGroupRepo&#45;&gt;AuthorizationModule</title>
<path fill="none" stroke="black" d="M3757,-122.17C3757,-141.09 3757,-168 3757,-168 3757,-168 2448.78,-168 2448.78,-168"/>
<polygon fill="black" stroke="black" points="2448.78,-164.5 2438.78,-168 2448.78,-171.5 2448.78,-164.5"/>
</g>
<!-- CourseGroupRule -->
<g id="node12" class="node">
<title>CourseGroupRule</title>
<ellipse fill="#fdb462" stroke="black" cx="3574" cy="-104" rx="81.1" ry="18"/>
<text text-anchor="middle" x="3574" y="-99.8" font-family="Times,serif" font-size="14.00">CourseGroupRule</text>
</g>
<!-- CourseGroupRule&#45;&gt;AuthorizationModule -->
<g id="edge11" class="edge">
<title>CourseGroupRule&#45;&gt;AuthorizationModule</title>
<path fill="none" stroke="black" d="M3574,-122.27C3574,-140.56 3574,-166 3574,-166 3574,-166 2449.06,-166 2449.06,-166"/>
<polygon fill="black" stroke="black" points="2449.06,-162.5 2439.06,-166 2449.06,-169.5 2449.06,-162.5"/>
</g>
<!-- CourseRepo -->
<g id="node13" class="node">
<title>CourseRepo</title>
<ellipse fill="#fdb462" stroke="black" cx="3416" cy="-104" rx="58.55" ry="18"/>
<text text-anchor="middle" x="3416" y="-99.8" font-family="Times,serif" font-size="14.00">CourseRepo</text>
</g>
<!-- CourseRepo&#45;&gt;AuthorizationModule -->
<g id="edge12" class="edge">
<title>CourseRepo&#45;&gt;AuthorizationModule</title>
<path fill="none" stroke="black" d="M3416,-122.02C3416,-139.37 3416,-163 3416,-163 3416,-163 2449.04,-163 2449.04,-163"/>
<polygon fill="black" stroke="black" points="2449.04,-159.5 2439.04,-163 2449.04,-166.5 2449.04,-159.5"/>
</g>
<!-- CourseRule -->
<g id="node14" class="node">
<title>CourseRule</title>
<ellipse fill="#fdb462" stroke="black" cx="3283" cy="-104" rx="56.76" ry="18"/>
<text text-anchor="middle" x="3283" y="-99.8" font-family="Times,serif" font-size="14.00">CourseRule</text>
</g>
<!-- CourseRule&#45;&gt;AuthorizationModule -->
<g id="edge13" class="edge">
<title>CourseRule&#45;&gt;AuthorizationModule</title>
<path fill="none" stroke="black" d="M3283,-122.04C3283,-138.73 3283,-161 3283,-161 3283,-161 2449,-161 2449,-161"/>
<polygon fill="black" stroke="black" points="2449,-157.5 2439,-161 2449,-164.5 2449,-157.5"/>
</g>
<!-- FeathersAuthProvider -->
<g id="node15" class="node">
<title>FeathersAuthProvider</title>
<ellipse fill="#fdb462" stroke="black" cx="3112" cy="-104" rx="96.13" ry="18"/>
<text text-anchor="middle" x="3112" y="-99.8" font-family="Times,serif" font-size="14.00">FeathersAuthProvider</text>
</g>
<!-- FeathersAuthProvider&#45;&gt;AuthorizationModule -->
<g id="edge14" class="edge">
<title>FeathersAuthProvider&#45;&gt;AuthorizationModule</title>
<path fill="none" stroke="black" d="M3112,-122.01C3112,-138.05 3112,-159 3112,-159 3112,-159 2448.81,-159 2448.81,-159"/>
<polygon fill="black" stroke="black" points="2448.81,-155.5 2438.81,-159 2448.81,-162.5 2448.81,-155.5"/>
</g>
<!-- FeathersAuthorizationService -->
<g id="node16" class="node">
<title>FeathersAuthorizationService</title>
<ellipse fill="#fdb462" stroke="black" cx="2871" cy="-104" rx="126.18" ry="18"/>
<text text-anchor="middle" x="2871" y="-99.8" font-family="Times,serif" font-size="14.00">FeathersAuthorizationService</text>
</g>
<!-- FeathersAuthorizationService&#45;&gt;AuthorizationModule -->
<g id="edge15" class="edge">
<title>FeathersAuthorizationService&#45;&gt;AuthorizationModule</title>
<path fill="none" stroke="black" d="M2871,-122.19C2871,-137.18 2871,-156 2871,-156 2871,-156 2448.87,-156 2448.87,-156"/>
<polygon fill="black" stroke="black" points="2448.87,-152.5 2438.87,-156 2448.87,-159.5 2448.87,-152.5"/>
</g>
<!-- LegacySchoolRepo -->
<g id="node17" class="node">
<title>LegacySchoolRepo</title>
<ellipse fill="#fdb462" stroke="black" cx="2640" cy="-104" rx="86.82" ry="18"/>
<text text-anchor="middle" x="2640" y="-99.8" font-family="Times,serif" font-size="14.00">LegacySchoolRepo</text>
</g>
<!-- LegacySchoolRepo&#45;&gt;AuthorizationModule -->
<g id="edge16" class="edge">
<title>LegacySchoolRepo&#45;&gt;AuthorizationModule</title>
<path fill="none" stroke="black" d="M2640,-122.05C2640,-136.37 2640,-154 2640,-154 2640,-154 2448.83,-154 2448.83,-154"/>
<polygon fill="black" stroke="black" points="2448.83,-150.5 2438.83,-154 2448.83,-157.5 2448.83,-150.5"/>
</g>
<!-- LegacySchoolRule -->
<g id="node18" class="node">
<title>LegacySchoolRule</title>
<ellipse fill="#fdb462" stroke="black" cx="2451" cy="-104" rx="84.53" ry="18"/>
<text text-anchor="middle" x="2451" y="-99.8" font-family="Times,serif" font-size="14.00">LegacySchoolRule</text>
</g>
<!-- LegacySchoolRule&#45;&gt;AuthorizationModule -->
<g id="edge17" class="edge">
<title>LegacySchoolRule&#45;&gt;AuthorizationModule</title>
<path fill="none" stroke="black" d="M2402.57,-119.08C2402.57,-119.08 2402.57,-140.76 2402.57,-140.76"/>
<polygon fill="black" stroke="black" points="2399.07,-140.76 2402.57,-150.76 2406.07,-140.76 2399.07,-140.76"/>
</g>
<!-- LessonRepo -->
<g id="node19" class="node">
<title>LessonRepo</title>
<ellipse fill="#fdb462" stroke="black" cx="2290" cy="-104" rx="58.55" ry="18"/>
<text text-anchor="middle" x="2290" y="-99.8" font-family="Times,serif" font-size="14.00">LessonRepo</text>
</g>
<!-- LessonRepo&#45;&gt;AuthorizationModule -->
<g id="edge18" class="edge">
<title>LessonRepo&#45;&gt;AuthorizationModule</title>
<path fill="none" stroke="black" d="M2325.06,-118.75C2325.06,-118.75 2325.06,-140.59 2325.06,-140.59"/>
<polygon fill="black" stroke="black" points="2321.56,-140.59 2325.06,-150.59 2328.56,-140.59 2321.56,-140.59"/>
</g>
<!-- LessonRule -->
<g id="node20" class="node">
<title>LessonRule</title>
<ellipse fill="#fdb462" stroke="black" cx="2157" cy="-104" rx="56.76" ry="18"/>
<text text-anchor="middle" x="2157" y="-99.8" font-family="Times,serif" font-size="14.00">LessonRule</text>
</g>
<!-- LessonRule&#45;&gt;AuthorizationModule -->
<g id="edge19" class="edge">
<title>LessonRule&#45;&gt;AuthorizationModule</title>
<path fill="none" stroke="black" d="M2200.15,-115.85C2200.15,-130.63 2200.15,-154 2200.15,-154 2200.15,-154 2290.92,-154 2290.92,-154"/>
<polygon fill="black" stroke="black" points="2290.92,-157.5 2300.92,-154 2290.92,-150.5 2290.92,-157.5"/>
</g>
<!-- ReferenceLoader -->
<g id="node21" class="node">
<title>ReferenceLoader</title>
<ellipse fill="#fdb462" stroke="black" cx="2005" cy="-104" rx="77.53" ry="18"/>
<text text-anchor="middle" x="2005" y="-99.8" font-family="Times,serif" font-size="14.00">ReferenceLoader</text>
</g>
<!-- ReferenceLoader&#45;&gt;AuthorizationModule -->
<g id="edge20" class="edge">
<title>ReferenceLoader&#45;&gt;AuthorizationModule</title>
<path fill="none" stroke="black" d="M2005,-122.19C2005,-137.18 2005,-156 2005,-156 2005,-156 2290.92,-156 2290.92,-156"/>
<polygon fill="black" stroke="black" points="2290.92,-159.5 2300.92,-156 2290.92,-152.5 2290.92,-159.5"/>
</g>
<!-- RuleManager -->
<g id="node22" class="node">
<title>RuleManager</title>
<ellipse fill="#fdb462" stroke="black" cx="1846" cy="-104" rx="63.68" ry="18"/>
<text text-anchor="middle" x="1846" y="-99.8" font-family="Times,serif" font-size="14.00">RuleManager</text>
</g>
<!-- RuleManager&#45;&gt;AuthorizationModule -->
<g id="edge21" class="edge">
<title>RuleManager&#45;&gt;AuthorizationModule</title>
<path fill="none" stroke="black" d="M1846,-122.01C1846,-138.05 1846,-159 1846,-159 1846,-159 2291.23,-159 2291.23,-159"/>
<polygon fill="black" stroke="black" points="2291.23,-162.5 2301.23,-159 2291.23,-155.5 2291.23,-162.5"/>
</g>
<!-- SchoolExternalToolRepo -->
<g id="node23" class="node">
<title>SchoolExternalToolRepo</title>
<ellipse fill="#fdb462" stroke="black" cx="1655" cy="-104" rx="109.39" ry="18"/>
<text text-anchor="middle" x="1655" y="-99.8" font-family="Times,serif" font-size="14.00">SchoolExternalToolRepo</text>
</g>
<!-- SchoolExternalToolRepo&#45;&gt;AuthorizationModule -->
<g id="edge22" class="edge">
<title>SchoolExternalToolRepo&#45;&gt;AuthorizationModule</title>
<path fill="none" stroke="black" d="M1655,-122.04C1655,-138.73 1655,-161 1655,-161 1655,-161 2291.12,-161 2291.12,-161"/>
<polygon fill="black" stroke="black" points="2291.12,-164.5 2301.12,-161 2291.12,-157.5 2291.12,-164.5"/>
</g>
<!-- SchoolExternalToolRule -->
<g id="node24" class="node">
<title>SchoolExternalToolRule</title>
<ellipse fill="#fdb462" stroke="black" cx="1421" cy="-104" rx="107.1" ry="18"/>
<text text-anchor="middle" x="1421" y="-99.8" font-family="Times,serif" font-size="14.00">SchoolExternalToolRule</text>
</g>
<!-- SchoolExternalToolRule&#45;&gt;AuthorizationModule -->
<g id="edge23" class="edge">
<title>SchoolExternalToolRule&#45;&gt;AuthorizationModule</title>
<path fill="none" stroke="black" d="M1421,-122.02C1421,-139.37 1421,-163 1421,-163 1421,-163 2290.99,-163 2290.99,-163"/>
<polygon fill="black" stroke="black" points="2290.99,-166.5 2300.99,-163 2290.99,-159.5 2290.99,-166.5"/>
</g>
<!-- SubmissionRepo -->
<g id="node25" class="node">
<title>SubmissionRepo</title>
<ellipse fill="#fdb462" stroke="black" cx="1219" cy="-104" rx="76.49" ry="18"/>
<text text-anchor="middle" x="1219" y="-99.8" font-family="Times,serif" font-size="14.00">SubmissionRepo</text>
</g>
<!-- SubmissionRepo&#45;&gt;AuthorizationModule -->
<g id="edge24" class="edge">
<title>SubmissionRepo&#45;&gt;AuthorizationModule</title>
<path fill="none" stroke="black" d="M1219,-122.27C1219,-140.56 1219,-166 1219,-166 1219,-166 2291.02,-166 2291.02,-166"/>
<polygon fill="black" stroke="black" points="2291.02,-169.5 2301.02,-166 2291.02,-162.5 2291.02,-169.5"/>
</g>
<!-- SubmissionRule -->
<g id="node26" class="node">
<title>SubmissionRule</title>
<ellipse fill="#fdb462" stroke="black" cx="1050" cy="-104" rx="74.2" ry="18"/>
<text text-anchor="middle" x="1050" y="-99.8" font-family="Times,serif" font-size="14.00">SubmissionRule</text>
</g>
<!-- SubmissionRule&#45;&gt;AuthorizationModule -->
<g id="edge25" class="edge">
<title>SubmissionRule&#45;&gt;AuthorizationModule</title>
<path fill="none" stroke="black" d="M1050,-122.17C1050,-141.09 1050,-168 1050,-168 1050,-168 2290.89,-168 2290.89,-168"/>
<polygon fill="black" stroke="black" points="2290.89,-171.5 2300.89,-168 2290.89,-164.5 2290.89,-171.5"/>
</g>
<!-- TaskRepo -->
<g id="node27" class="node">
<title>TaskRepo</title>
<ellipse fill="#fdb462" stroke="black" cx="907" cy="-104" rx="50.38" ry="18"/>
<text text-anchor="middle" x="907" y="-99.8" font-family="Times,serif" font-size="14.00">TaskRepo</text>
</g>
<!-- TaskRepo&#45;&gt;AuthorizationModule -->
<g id="edge26" class="edge">
<title>TaskRepo&#45;&gt;AuthorizationModule</title>
<path fill="none" stroke="black" d="M907,-122.31C907,-142.15 907,-171 907,-171 907,-171 2290.91,-171 2290.91,-171"/>
<polygon fill="black" stroke="black" points="2290.91,-174.5 2300.91,-171 2290.91,-167.5 2290.91,-174.5"/>
</g>
<!-- TaskRule -->
<g id="node28" class="node">
<title>TaskRule</title>
<ellipse fill="#fdb462" stroke="black" cx="791" cy="-104" rx="48.09" ry="18"/>
<text text-anchor="middle" x="791" y="-99.8" font-family="Times,serif" font-size="14.00">TaskRule</text>
</g>
<!-- TaskRule&#45;&gt;AuthorizationModule -->
<g id="edge27" class="edge">
<title>TaskRule&#45;&gt;AuthorizationModule</title>
<path fill="none" stroke="black" d="M791,-122.13C791,-142.57 791,-173 791,-173 791,-173 2291.14,-173 2291.14,-173"/>
<polygon fill="black" stroke="black" points="2291.14,-176.5 2301.14,-173 2291.14,-169.5 2291.14,-176.5"/>
</g>
<!-- TeamRule -->
<g id="node29" class="node">
<title>TeamRule</title>
<ellipse fill="#fdb462" stroke="black" cx="674" cy="-104" rx="51.02" ry="18"/>
<text text-anchor="middle" x="674" y="-99.8" font-family="Times,serif" font-size="14.00">TeamRule</text>
</g>
<!-- TeamRule&#45;&gt;AuthorizationModule -->
<g id="edge28" class="edge">
<title>TeamRule&#45;&gt;AuthorizationModule</title>
<path fill="none" stroke="black" d="M674,-122.28C674,-143.32 674,-175 674,-175 674,-175 2291.15,-175 2291.15,-175"/>
<polygon fill="black" stroke="black" points="2291.15,-178.5 2301.15,-175 2291.15,-171.5 2291.15,-178.5"/>
</g>
<!-- TeamsRepo -->
<g id="node30" class="node">
<title>TeamsRepo</title>
<ellipse fill="#fdb462" stroke="black" cx="548" cy="-104" rx="57.32" ry="18"/>
<text text-anchor="middle" x="548" y="-99.8" font-family="Times,serif" font-size="14.00">TeamsRepo</text>
</g>
<!-- TeamsRepo&#45;&gt;AuthorizationModule -->
<g id="edge29" class="edge">
<title>TeamsRepo&#45;&gt;AuthorizationModule</title>
<path fill="none" stroke="black" d="M548,-122.29C548,-144.21 548,-178 548,-178 548,-178 2291.08,-178 2291.08,-178"/>
<polygon fill="black" stroke="black" points="2291.08,-181.5 2301.08,-178 2291.08,-174.5 2291.08,-181.5"/>
</g>
<!-- UserLoginMigrationRule -->
<g id="node31" class="node">
<title>UserLoginMigrationRule</title>
<ellipse fill="#fdb462" stroke="black" cx="364" cy="-104" rx="109.39" ry="18"/>
<text text-anchor="middle" x="364" y="-99.8" font-family="Times,serif" font-size="14.00">UserLoginMigrationRule</text>
</g>
<!-- UserLoginMigrationRule&#45;&gt;AuthorizationModule -->
<g id="edge30" class="edge">
<title>UserLoginMigrationRule&#45;&gt;AuthorizationModule</title>
<path fill="none" stroke="black" d="M364,-122.01C364,-144.49 364,-180 364,-180 364,-180 2291.24,-180 2291.24,-180"/>
<polygon fill="black" stroke="black" points="2291.24,-183.5 2301.24,-180 2291.24,-176.5 2291.24,-183.5"/>
</g>
<!-- UserRepo -->
<g id="node32" class="node">
<title>UserRepo</title>
<ellipse fill="#fdb462" stroke="black" cx="187" cy="-104" rx="49.8" ry="18"/>
<text text-anchor="middle" x="187" y="-99.8" font-family="Times,serif" font-size="14.00">UserRepo</text>
</g>
<!-- UserRepo&#45;&gt;AuthorizationModule -->
<g id="edge31" class="edge">
<title>UserRepo&#45;&gt;AuthorizationModule</title>
<path fill="none" stroke="black" d="M187,-122.32C187,-145.66 187,-183 187,-183 187,-183 2291.06,-183 2291.06,-183"/>
<polygon fill="black" stroke="black" points="2291.06,-186.5 2301.06,-183 2291.06,-179.5 2291.06,-186.5"/>
</g>
<!-- UserRule -->
<g id="node33" class="node">
<title>UserRule</title>
<ellipse fill="#fdb462" stroke="black" cx="72" cy="-104" rx="47.51" ry="18"/>
<text text-anchor="middle" x="72" y="-99.8" font-family="Times,serif" font-size="14.00">UserRule</text>
</g>
<!-- UserRule&#45;&gt;AuthorizationModule -->
<g id="edge32" class="edge">
<title>UserRule&#45;&gt;AuthorizationModule</title>
<path fill="none" stroke="black" d="M72,-122.38C72,-146.28 72,-185 72,-185 72,-185 2291.23,-185 2291.23,-185"/>
<polygon fill="black" stroke="black" points="2291.23,-188.5 2301.23,-185 2291.23,-181.5 2291.23,-188.5"/>
</g>
</g>
</svg>
