<?xml version="1.0" encoding="UTF-8" standalone="no"?>
<!DOCTYPE svg PUBLIC "-//W3C//DTD SVG 1.1//EN"
 "http://www.w3.org/Graphics/SVG/1.1/DTD/svg11.dtd">
<!-- Generated by graphviz version 2.47.0 (20210316.0004)
 -->
<!-- Title: dependencies Pages: 1 -->
<svg width="5070pt" height="284pt"
 viewBox="0.00 0.00 5070.00 284.00" xmlns="http://www.w3.org/2000/svg" xmlns:xlink="http://www.w3.org/1999/xlink">
<g id="graph0" class="graph" transform="scale(1 1) rotate(0) translate(4 280)">
<title>dependencies</title>
<polygon fill="white" stroke="transparent" points="-4,4 -4,-280 5066,-280 5066,4 -4,4"/>
<text text-anchor="start" x="2510.01" y="-42.4" font-family="Times-12" font-weight="bold" font-size="14.00">Legend</text>
<polygon fill="#ffffb3" stroke="transparent" points="2297,-10 2297,-30 2317,-30 2317,-10 2297,-10"/>
<text text-anchor="start" x="2320.63" y="-15.4" font-family="Times-12" font-size="14.00"> &#160;Declarations</text>
<polygon fill="#8dd3c7" stroke="transparent" points="2410,-10 2410,-30 2430,-30 2430,-10 2410,-10"/>
<text text-anchor="start" x="2433.73" y="-15.4" font-family="Times-12" font-size="14.00"> &#160;Module</text>
<polygon fill="#80b1d3" stroke="transparent" points="2496,-10 2496,-30 2516,-30 2516,-10 2496,-10"/>
<text text-anchor="start" x="2519.78" y="-15.4" font-family="Times-12" font-size="14.00"> &#160;Bootstrap</text>
<polygon fill="#fdb462" stroke="transparent" points="2593,-10 2593,-30 2613,-30 2613,-10 2593,-10"/>
<text text-anchor="start" x="2616.67" y="-15.4" font-family="Times-12" font-size="14.00"> &#160;Providers</text>
<polygon fill="#fb8072" stroke="transparent" points="2689,-10 2689,-30 2709,-30 2709,-10 2689,-10"/>
<text text-anchor="start" x="2712.73" y="-15.4" font-family="Times-12" font-size="14.00"> &#160;Exports</text>
<g id="clust1" class="cluster">
<title>cluster_AuthorizationModule</title>
<polygon fill="none" stroke="black" stroke-dasharray="1,5" points="8,-70 8,-268 5054,-268 5054,-70 8,-70"/>
</g>
<g id="clust6" class="cluster">
<title>cluster_AuthorizationModule_providers</title>
<polygon fill="none" stroke="black" points="422,-78 422,-130 5046,-130 5046,-78 422,-78"/>
</g>
<g id="clust4" class="cluster">
<title>cluster_AuthorizationModule_exports</title>
<polygon fill="none" stroke="black" points="2140,-208 2140,-260 2500,-260 2500,-208 2140,-208"/>
</g>
<g id="clust3" class="cluster">
<title>cluster_AuthorizationModule_imports</title>
<polygon fill="none" stroke="black" points="16,-78 16,-130 414,-130 414,-78 16,-78"/>
</g>
<!-- FeathersModule -->
<g id="node1" class="node">
<title>FeathersModule</title>
<polygon fill="#8dd3c7" stroke="black" points="406.47,-122 403.47,-126 382.47,-126 379.47,-122 299.53,-122 299.53,-86 406.47,-86 406.47,-122"/>
<text text-anchor="middle" x="353" y="-99.8" font-family="Times,serif" font-size="14.00">FeathersModule</text>
</g>
<!-- AuthorizationModule -->
<g id="node4" class="node">
<title>AuthorizationModule</title>
<polygon fill="#8dd3c7" stroke="black" points="2399.81,-187 2396.81,-191 2375.81,-191 2372.81,-187 2262.19,-187 2262.19,-151 2399.81,-151 2399.81,-187"/>
<text text-anchor="middle" x="2331" y="-164.8" font-family="Times,serif" font-size="14.00">AuthorizationModule</text>
</g>
<!-- FeathersModule&#45;&gt;AuthorizationModule -->
<g id="edge1" class="edge">
<title>FeathersModule&#45;&gt;AuthorizationModule</title>
<path fill="none" stroke="black" d="M353,-122.01C353,-144.49 353,-180 353,-180 353,-180 2252.34,-180 2252.34,-180"/>
<polygon fill="black" stroke="black" points="2252.34,-183.5 2262.34,-180 2252.34,-176.5 2252.34,-183.5"/>
</g>
<!-- LegacySchoolModule -->
<g id="node2" class="node">
<title>LegacySchoolModule</title>
<polygon fill="#8dd3c7" stroke="black" points="281.63,-122 278.63,-126 257.63,-126 254.63,-122 142.37,-122 142.37,-86 281.63,-86 281.63,-122"/>
<text text-anchor="middle" x="212" y="-99.8" font-family="Times,serif" font-size="14.00">LegacySchoolModule</text>
</g>
<!-- LegacySchoolModule&#45;&gt;AuthorizationModule -->
<g id="edge2" class="edge">
<title>LegacySchoolModule&#45;&gt;AuthorizationModule</title>
<path fill="none" stroke="black" d="M212,-122.32C212,-145.66 212,-183 212,-183 212,-183 2252.3,-183 2252.3,-183"/>
<polygon fill="black" stroke="black" points="2252.3,-186.5 2262.3,-183 2252.3,-179.5 2252.3,-186.5"/>
</g>
<!-- LoggerModule -->
<g id="node3" class="node">
<title>LoggerModule</title>
<polygon fill="#8dd3c7" stroke="black" points="123.98,-122 120.98,-126 99.98,-126 96.98,-122 24.02,-122 24.02,-86 123.98,-86 123.98,-122"/>
<text text-anchor="middle" x="74" y="-99.8" font-family="Times,serif" font-size="14.00">LoggerModule</text>
</g>
<!-- LoggerModule&#45;&gt;AuthorizationModule -->
<g id="edge3" class="edge">
<title>LoggerModule&#45;&gt;AuthorizationModule</title>
<path fill="none" stroke="black" d="M74,-122.38C74,-146.28 74,-185 74,-185 74,-185 2252.22,-185 2252.22,-185"/>
<polygon fill="black" stroke="black" points="2252.22,-188.5 2262.22,-185 2252.22,-181.5 2252.22,-188.5"/>
</g>
<!-- AuthorizationService  -->
<g id="node5" class="node">
<title>AuthorizationService </title>
<polygon fill="#fb8072" stroke="black" points="2491.74,-252 2352.26,-252 2352.26,-216 2491.74,-216 2491.74,-252"/>
<text text-anchor="middle" x="2422" y="-229.8" font-family="Times,serif" font-size="14.00">AuthorizationService </text>
</g>
<!-- AuthorizationModule&#45;&gt;AuthorizationService  -->
<g id="edge4" class="edge">
<title>AuthorizationModule&#45;&gt;AuthorizationService </title>
<path fill="none" stroke="black" stroke-dasharray="5,2" d="M2376.02,-187.11C2376.02,-187.11 2376.02,-205.99 2376.02,-205.99"/>
<polygon fill="black" stroke="black" points="2372.52,-205.99 2376.02,-215.99 2379.52,-205.99 2372.52,-205.99"/>
</g>
<!-- FeathersAuthorizationService  -->
<g id="node6" class="node">
<title>FeathersAuthorizationService </title>
<polygon fill="#fb8072" stroke="black" points="2334.16,-252 2147.84,-252 2147.84,-216 2334.16,-216 2334.16,-252"/>
<text text-anchor="middle" x="2241" y="-229.8" font-family="Times,serif" font-size="14.00">FeathersAuthorizationService </text>
</g>
<!-- AuthorizationModule&#45;&gt;FeathersAuthorizationService  -->
<g id="edge5" class="edge">
<title>AuthorizationModule&#45;&gt;FeathersAuthorizationService </title>
<path fill="none" stroke="black" stroke-dasharray="5,2" d="M2298.34,-187.11C2298.34,-187.11 2298.34,-205.99 2298.34,-205.99"/>
<polygon fill="black" stroke="black" points="2294.84,-205.99 2298.34,-215.99 2301.84,-205.99 2294.84,-205.99"/>
</g>
<!-- AuthorizationHelper -->
<g id="node7" class="node">
<title>AuthorizationHelper</title>
<ellipse fill="#fdb462" stroke="black" cx="4947" cy="-104" rx="90.89" ry="18"/>
<text text-anchor="middle" x="4947" y="-99.8" font-family="Times,serif" font-size="14.00">AuthorizationHelper</text>
</g>
<!-- AuthorizationHelper&#45;&gt;AuthorizationModule -->
<g id="edge6" class="edge">
<title>AuthorizationHelper&#45;&gt;AuthorizationModule</title>
<path fill="none" stroke="black" d="M4947,-122.38C4947,-146.28 4947,-185 4947,-185 4947,-185 2409.96,-185 2409.96,-185"/>
<polygon fill="black" stroke="black" points="2409.96,-181.5 2399.96,-185 2409.96,-188.5 2409.96,-181.5"/>
</g>
<!-- AuthorizationService -->
<g id="node8" class="node">
<title>AuthorizationService</title>
<ellipse fill="#fdb462" stroke="black" cx="4744" cy="-104" rx="93.76" ry="18"/>
<text text-anchor="middle" x="4744" y="-99.8" font-family="Times,serif" font-size="14.00">AuthorizationService</text>
</g>
<!-- AuthorizationService&#45;&gt;AuthorizationModule -->
<g id="edge7" class="edge">
<title>AuthorizationService&#45;&gt;AuthorizationModule</title>
<path fill="none" stroke="black" d="M4744,-122.32C4744,-145.66 4744,-183 4744,-183 4744,-183 2409.97,-183 2409.97,-183"/>
<polygon fill="black" stroke="black" points="2409.97,-179.5 2399.97,-183 2409.97,-186.5 2409.97,-179.5"/>
</g>
<!-- BoardDoRule -->
<g id="node9" class="node">
<title>BoardDoRule</title>
<ellipse fill="#fdb462" stroke="black" cx="4568" cy="-104" rx="64.85" ry="18"/>
<text text-anchor="middle" x="4568" y="-99.8" font-family="Times,serif" font-size="14.00">BoardDoRule</text>
</g>
<!-- BoardDoRule&#45;&gt;AuthorizationModule -->
<g id="edge8" class="edge">
<title>BoardDoRule&#45;&gt;AuthorizationModule</title>
<path fill="none" stroke="black" d="M4568,-122.01C4568,-144.49 4568,-180 4568,-180 4568,-180 2409.78,-180 2409.78,-180"/>
<polygon fill="black" stroke="black" points="2409.78,-176.5 2399.78,-180 2409.78,-183.5 2409.78,-176.5"/>
</g>
<!-- ContextExternalToolRule -->
<g id="node10" class="node">
<title>ContextExternalToolRule</title>
<ellipse fill="#fdb462" stroke="black" cx="4375" cy="-104" rx="110.61" ry="18"/>
<text text-anchor="middle" x="4375" y="-99.8" font-family="Times,serif" font-size="14.00">ContextExternalToolRule</text>
</g>
<!-- ContextExternalToolRule&#45;&gt;AuthorizationModule -->
<g id="edge9" class="edge">
<title>ContextExternalToolRule&#45;&gt;AuthorizationModule</title>
<path fill="none" stroke="black" d="M4375,-122.29C4375,-144.21 4375,-178 4375,-178 4375,-178 2409.89,-178 2409.89,-178"/>
<polygon fill="black" stroke="black" points="2409.89,-174.5 2399.89,-178 2409.89,-181.5 2409.89,-174.5"/>
</g>
<!-- CourseGroupRepo -->
<g id="node11" class="node">
<title>CourseGroupRepo</title>
<ellipse fill="#fdb462" stroke="black" cx="4163" cy="-104" rx="83.39" ry="18"/>
<text text-anchor="middle" x="4163" y="-99.8" font-family="Times,serif" font-size="14.00">CourseGroupRepo</text>
</g>
<!-- CourseGroupRepo&#45;&gt;AuthorizationModule -->
<g id="edge10" class="edge">
<title>CourseGroupRepo&#45;&gt;AuthorizationModule</title>
<path fill="none" stroke="black" d="M4163,-122.28C4163,-143.32 4163,-175 4163,-175 4163,-175 2409.75,-175 2409.75,-175"/>
<polygon fill="black" stroke="black" points="2409.75,-171.5 2399.75,-175 2409.75,-178.5 2409.75,-171.5"/>
</g>
<!-- CourseGroupRule -->
<g id="node12" class="node">
<title>CourseGroupRule</title>
<ellipse fill="#fdb462" stroke="black" cx="3980" cy="-104" rx="81.1" ry="18"/>
<text text-anchor="middle" x="3980" y="-99.8" font-family="Times,serif" font-size="14.00">CourseGroupRule</text>
</g>
<!-- CourseGroupRule&#45;&gt;AuthorizationModule -->
<g id="edge11" class="edge">
<title>CourseGroupRule&#45;&gt;AuthorizationModule</title>
<path fill="none" stroke="black" d="M3980,-122.13C3980,-142.57 3980,-173 3980,-173 3980,-173 2409.76,-173 2409.76,-173"/>
<polygon fill="black" stroke="black" points="2409.76,-169.5 2399.76,-173 2409.76,-176.5 2409.76,-169.5"/>
</g>
<!-- CourseRepo -->
<g id="node13" class="node">
<title>CourseRepo</title>
<ellipse fill="#fdb462" stroke="black" cx="3822" cy="-104" rx="58.55" ry="18"/>
<text text-anchor="middle" x="3822" y="-99.8" font-family="Times,serif" font-size="14.00">CourseRepo</text>
</g>
<!-- CourseRepo&#45;&gt;AuthorizationModule -->
<g id="edge12" class="edge">
<title>CourseRepo&#45;&gt;AuthorizationModule</title>
<path fill="none" stroke="black" d="M3822,-122.31C3822,-142.15 3822,-171 3822,-171 3822,-171 2409.92,-171 2409.92,-171"/>
<polygon fill="black" stroke="black" points="2409.92,-167.5 2399.92,-171 2409.92,-174.5 2409.92,-167.5"/>
</g>
<!-- CourseRule -->
<g id="node14" class="node">
<title>CourseRule</title>
<ellipse fill="#fdb462" stroke="black" cx="3689" cy="-104" rx="56.76" ry="18"/>
<text text-anchor="middle" x="3689" y="-99.8" font-family="Times,serif" font-size="14.00">CourseRule</text>
</g>
<!-- CourseRule&#45;&gt;AuthorizationModule -->
<g id="edge13" class="edge">
<title>CourseRule&#45;&gt;AuthorizationModule</title>
<path fill="none" stroke="black" d="M3689,-122.17C3689,-141.09 3689,-168 3689,-168 3689,-168 2409.74,-168 2409.74,-168"/>
<polygon fill="black" stroke="black" points="2409.74,-164.5 2399.74,-168 2409.74,-171.5 2409.74,-164.5"/>
</g>
<!-- FeathersAuthProvider -->
<g id="node15" class="node">
<title>FeathersAuthProvider</title>
<ellipse fill="#fdb462" stroke="black" cx="3518" cy="-104" rx="96.13" ry="18"/>
<text text-anchor="middle" x="3518" y="-99.8" font-family="Times,serif" font-size="14.00">FeathersAuthProvider</text>
</g>
<!-- FeathersAuthProvider&#45;&gt;AuthorizationModule -->
<g id="edge14" class="edge">
<title>FeathersAuthProvider&#45;&gt;AuthorizationModule</title>
<path fill="none" stroke="black" d="M3518,-122.27C3518,-140.56 3518,-166 3518,-166 3518,-166 2409.95,-166 2409.95,-166"/>
<polygon fill="black" stroke="black" points="2409.95,-162.5 2399.95,-166 2409.95,-169.5 2409.95,-162.5"/>
</g>
<!-- FeathersAuthorizationService -->
<g id="node16" class="node">
<title>FeathersAuthorizationService</title>
<ellipse fill="#fdb462" stroke="black" cx="3277" cy="-104" rx="126.18" ry="18"/>
<text text-anchor="middle" x="3277" y="-99.8" font-family="Times,serif" font-size="14.00">FeathersAuthorizationService</text>
</g>
<!-- FeathersAuthorizationService&#45;&gt;AuthorizationModule -->
<g id="edge15" class="edge">
<title>FeathersAuthorizationService&#45;&gt;AuthorizationModule</title>
<path fill="none" stroke="black" d="M3277,-122.02C3277,-139.37 3277,-163 3277,-163 3277,-163 2409.8,-163 2409.8,-163"/>
<polygon fill="black" stroke="black" points="2409.8,-159.5 2399.8,-163 2409.8,-166.5 2409.8,-159.5"/>
</g>
<!-- LegacySchoolRepo -->
<g id="node17" class="node">
<title>LegacySchoolRepo</title>
<ellipse fill="#fdb462" stroke="black" cx="3046" cy="-104" rx="86.82" ry="18"/>
<text text-anchor="middle" x="3046" y="-99.8" font-family="Times,serif" font-size="14.00">LegacySchoolRepo</text>
</g>
<!-- LegacySchoolRepo&#45;&gt;AuthorizationModule -->
<g id="edge16" class="edge">
<title>LegacySchoolRepo&#45;&gt;AuthorizationModule</title>
<path fill="none" stroke="black" d="M3046,-122.04C3046,-138.73 3046,-161 3046,-161 3046,-161 2409.88,-161 2409.88,-161"/>
<polygon fill="black" stroke="black" points="2409.88,-157.5 2399.88,-161 2409.88,-164.5 2409.88,-157.5"/>
</g>
<!-- LegacySchoolRule -->
<g id="node18" class="node">
<title>LegacySchoolRule</title>
<ellipse fill="#fdb462" stroke="black" cx="2857" cy="-104" rx="84.53" ry="18"/>
<text text-anchor="middle" x="2857" y="-99.8" font-family="Times,serif" font-size="14.00">LegacySchoolRule</text>
</g>
<!-- LegacySchoolRule&#45;&gt;AuthorizationModule -->
<g id="edge17" class="edge">
<title>LegacySchoolRule&#45;&gt;AuthorizationModule</title>
<path fill="none" stroke="black" d="M2857,-122.01C2857,-138.05 2857,-159 2857,-159 2857,-159 2409.77,-159 2409.77,-159"/>
<polygon fill="black" stroke="black" points="2409.77,-155.5 2399.77,-159 2409.77,-162.5 2409.77,-155.5"/>
</g>
<!-- LessonRepo -->
<g id="node19" class="node">
<title>LessonRepo</title>
<ellipse fill="#fdb462" stroke="black" cx="2696" cy="-104" rx="58.55" ry="18"/>
<text text-anchor="middle" x="2696" y="-99.8" font-family="Times,serif" font-size="14.00">LessonRepo</text>
</g>
<!-- LessonRepo&#45;&gt;AuthorizationModule -->
<g id="edge18" class="edge">
<title>LessonRepo&#45;&gt;AuthorizationModule</title>
<path fill="none" stroke="black" d="M2696,-122.19C2696,-137.18 2696,-156 2696,-156 2696,-156 2410.08,-156 2410.08,-156"/>
<polygon fill="black" stroke="black" points="2410.08,-152.5 2400.08,-156 2410.08,-159.5 2410.08,-152.5"/>
</g>
<!-- LessonRule -->
<g id="node20" class="node">
<title>LessonRule</title>
<ellipse fill="#fdb462" stroke="black" cx="2563" cy="-104" rx="56.76" ry="18"/>
<text text-anchor="middle" x="2563" y="-99.8" font-family="Times,serif" font-size="14.00">LessonRule</text>
</g>
<!-- LessonRule&#45;&gt;AuthorizationModule -->
<g id="edge19" class="edge">
<title>LessonRule&#45;&gt;AuthorizationModule</title>
<path fill="none" stroke="black" d="M2563,-122.05C2563,-136.37 2563,-154 2563,-154 2563,-154 2409.67,-154 2409.67,-154"/>
<polygon fill="black" stroke="black" points="2409.67,-150.5 2399.67,-154 2409.67,-157.5 2409.67,-150.5"/>
</g>
<!-- ReferenceLoader -->
<g id="node21" class="node">
<title>ReferenceLoader</title>
<ellipse fill="#fdb462" stroke="black" cx="2411" cy="-104" rx="77.53" ry="18"/>
<text text-anchor="middle" x="2411" y="-99.8" font-family="Times,serif" font-size="14.00">ReferenceLoader</text>
</g>
<!-- ReferenceLoader&#45;&gt;AuthorizationModule -->
<g id="edge20" class="edge">
<title>ReferenceLoader&#45;&gt;AuthorizationModule</title>
<path fill="none" stroke="black" d="M2366.57,-119.08C2366.57,-119.08 2366.57,-140.76 2366.57,-140.76"/>
<polygon fill="black" stroke="black" points="2363.07,-140.76 2366.57,-150.76 2370.07,-140.76 2363.07,-140.76"/>
</g>
<!-- RuleManager -->
<g id="node22" class="node">
<title>RuleManager</title>
<ellipse fill="#fdb462" stroke="black" cx="2252" cy="-104" rx="63.68" ry="18"/>
<text text-anchor="middle" x="2252" y="-99.8" font-family="Times,serif" font-size="14.00">RuleManager</text>
</g>
<!-- RuleManager&#45;&gt;AuthorizationModule -->
<g id="edge21" class="edge">
<title>RuleManager&#45;&gt;AuthorizationModule</title>
<path fill="none" stroke="black" d="M2288.97,-118.75C2288.97,-118.75 2288.97,-140.59 2288.97,-140.59"/>
<polygon fill="black" stroke="black" points="2285.47,-140.59 2288.97,-150.59 2292.47,-140.59 2285.47,-140.59"/>
</g>
<!-- SchoolExternalToolRepo -->
<g id="node23" class="node">
<title>SchoolExternalToolRepo</title>
<ellipse fill="#fdb462" stroke="black" cx="2061" cy="-104" rx="109.39" ry="18"/>
<text text-anchor="middle" x="2061" y="-99.8" font-family="Times,serif" font-size="14.00">SchoolExternalToolRepo</text>
</g>
<!-- SchoolExternalToolRepo&#45;&gt;AuthorizationModule -->
<g id="edge22" class="edge">
<title>SchoolExternalToolRepo&#45;&gt;AuthorizationModule</title>
<path fill="none" stroke="black" d="M2158.93,-112.26C2158.93,-126.46 2158.93,-154 2158.93,-154 2158.93,-154 2252.01,-154 2252.01,-154"/>
<polygon fill="black" stroke="black" points="2252.01,-157.5 2262.01,-154 2252.01,-150.5 2252.01,-157.5"/>
</g>
<!-- SchoolExternalToolRule -->
<g id="node24" class="node">
<title>SchoolExternalToolRule</title>
<ellipse fill="#fdb462" stroke="black" cx="1827" cy="-104" rx="107.1" ry="18"/>
<text text-anchor="middle" x="1827" y="-99.8" font-family="Times,serif" font-size="14.00">SchoolExternalToolRule</text>
</g>
<!-- SchoolExternalToolRule&#45;&gt;AuthorizationModule -->
<g id="edge23" class="edge">
<title>SchoolExternalToolRule&#45;&gt;AuthorizationModule</title>
<path fill="none" stroke="black" d="M1827,-122.19C1827,-137.18 1827,-156 1827,-156 1827,-156 2252.24,-156 2252.24,-156"/>
<polygon fill="black" stroke="black" points="2252.24,-159.5 2262.24,-156 2252.24,-152.5 2252.24,-159.5"/>
</g>
<!-- SubmissionRepo -->
<g id="node25" class="node">
<title>SubmissionRepo</title>
<ellipse fill="#fdb462" stroke="black" cx="1625" cy="-104" rx="76.49" ry="18"/>
<text text-anchor="middle" x="1625" y="-99.8" font-family="Times,serif" font-size="14.00">SubmissionRepo</text>
</g>
<!-- SubmissionRepo&#45;&gt;AuthorizationModule -->
<g id="edge24" class="edge">
<title>SubmissionRepo&#45;&gt;AuthorizationModule</title>
<path fill="none" stroke="black" d="M1625,-122.01C1625,-138.05 1625,-159 1625,-159 1625,-159 2252.34,-159 2252.34,-159"/>
<polygon fill="black" stroke="black" points="2252.34,-162.5 2262.34,-159 2252.34,-155.5 2252.34,-162.5"/>
</g>
<!-- SubmissionRule -->
<g id="node26" class="node">
<title>SubmissionRule</title>
<ellipse fill="#fdb462" stroke="black" cx="1456" cy="-104" rx="74.2" ry="18"/>
<text text-anchor="middle" x="1456" y="-99.8" font-family="Times,serif" font-size="14.00">SubmissionRule</text>
</g>
<!-- SubmissionRule&#45;&gt;AuthorizationModule -->
<g id="edge25" class="edge">
<title>SubmissionRule&#45;&gt;AuthorizationModule</title>
<path fill="none" stroke="black" d="M1456,-122.04C1456,-138.73 1456,-161 1456,-161 1456,-161 2252.34,-161 2252.34,-161"/>
<polygon fill="black" stroke="black" points="2252.34,-164.5 2262.34,-161 2252.34,-157.5 2252.34,-164.5"/>
</g>
<!-- TaskRepo -->
<g id="node27" class="node">
<title>TaskRepo</title>
<ellipse fill="#fdb462" stroke="black" cx="1313" cy="-104" rx="50.38" ry="18"/>
<text text-anchor="middle" x="1313" y="-99.8" font-family="Times,serif" font-size="14.00">TaskRepo</text>
</g>
<!-- TaskRepo&#45;&gt;AuthorizationModule -->
<g id="edge26" class="edge">
<title>TaskRepo&#45;&gt;AuthorizationModule</title>
<path fill="none" stroke="black" d="M1313,-122.02C1313,-139.37 1313,-163 1313,-163 1313,-163 2252.23,-163 2252.23,-163"/>
<polygon fill="black" stroke="black" points="2252.23,-166.5 2262.23,-163 2252.23,-159.5 2252.23,-166.5"/>
</g>
<!-- TaskRule -->
<g id="node28" class="node">
<title>TaskRule</title>
<ellipse fill="#fdb462" stroke="black" cx="1197" cy="-104" rx="48.09" ry="18"/>
<text text-anchor="middle" x="1197" y="-99.8" font-family="Times,serif" font-size="14.00">TaskRule</text>
</g>
<!-- TaskRule&#45;&gt;AuthorizationModule -->
<g id="edge27" class="edge">
<title>TaskRule&#45;&gt;AuthorizationModule</title>
<path fill="none" stroke="black" d="M1197,-122.27C1197,-140.56 1197,-166 1197,-166 1197,-166 2252.19,-166 2252.19,-166"/>
<polygon fill="black" stroke="black" points="2252.19,-169.5 2262.19,-166 2252.19,-162.5 2252.19,-169.5"/>
</g>
<!-- TeamRule -->
<g id="node29" class="node">
<title>TeamRule</title>
<ellipse fill="#fdb462" stroke="black" cx="1080" cy="-104" rx="51.02" ry="18"/>
<text text-anchor="middle" x="1080" y="-99.8" font-family="Times,serif" font-size="14.00">TeamRule</text>
</g>
<!-- TeamRule&#45;&gt;AuthorizationModule -->
<g id="edge28" class="edge">
<title>TeamRule&#45;&gt;AuthorizationModule</title>
<path fill="none" stroke="black" d="M1080,-122.17C1080,-141.09 1080,-168 1080,-168 1080,-168 2251.96,-168 2251.96,-168"/>
<polygon fill="black" stroke="black" points="2251.96,-171.5 2261.96,-168 2251.96,-164.5 2251.96,-171.5"/>
</g>
<!-- TeamsRepo -->
<g id="node30" class="node">
<title>TeamsRepo</title>
<ellipse fill="#fdb462" stroke="black" cx="954" cy="-104" rx="57.32" ry="18"/>
<text text-anchor="middle" x="954" y="-99.8" font-family="Times,serif" font-size="14.00">TeamsRepo</text>
</g>
<!-- TeamsRepo&#45;&gt;AuthorizationModule -->
<g id="edge29" class="edge">
<title>TeamsRepo&#45;&gt;AuthorizationModule</title>
<path fill="none" stroke="black" d="M954,-122.31C954,-142.15 954,-171 954,-171 954,-171 2252.24,-171 2252.24,-171"/>
<polygon fill="black" stroke="black" points="2252.24,-174.5 2262.24,-171 2252.24,-167.5 2252.24,-174.5"/>
</g>
<!-- UserLoginMigrationRule -->
<g id="node31" class="node">
<title>UserLoginMigrationRule</title>
<ellipse fill="#fdb462" stroke="black" cx="770" cy="-104" rx="109.39" ry="18"/>
<text text-anchor="middle" x="770" y="-99.8" font-family="Times,serif" font-size="14.00">UserLoginMigrationRule</text>
</g>
<!-- UserLoginMigrationRule&#45;&gt;AuthorizationModule -->
<g id="edge30" class="edge">
<title>UserLoginMigrationRule&#45;&gt;AuthorizationModule</title>
<path fill="none" stroke="black" d="M770,-122.13C770,-142.57 770,-173 770,-173 770,-173 2252.16,-173 2252.16,-173"/>
<polygon fill="black" stroke="black" points="2252.16,-176.5 2262.16,-173 2252.16,-169.5 2252.16,-176.5"/>
</g>
<!-- UserRepo -->
<g id="node32" class="node">
<title>UserRepo</title>
<ellipse fill="#fdb462" stroke="black" cx="593" cy="-104" rx="49.8" ry="18"/>
<text text-anchor="middle" x="593" y="-99.8" font-family="Times,serif" font-size="14.00">UserRepo</text>
</g>
<!-- UserRepo&#45;&gt;AuthorizationModule -->
<g id="edge31" class="edge">
<title>UserRepo&#45;&gt;AuthorizationModule</title>
<path fill="none" stroke="black" d="M593,-122.28C593,-143.32 593,-175 593,-175 593,-175 2252.33,-175 2252.33,-175"/>
<polygon fill="black" stroke="black" points="2252.33,-178.5 2262.33,-175 2252.33,-171.5 2252.33,-178.5"/>
</g>
<!-- UserRule -->
<g id="node33" class="node">
<title>UserRule</title>
<ellipse fill="#fdb462" stroke="black" cx="478" cy="-104" rx="47.51" ry="18"/>
<text text-anchor="middle" x="478" y="-99.8" font-family="Times,serif" font-size="14.00">UserRule</text>
</g>
<!-- UserRule&#45;&gt;AuthorizationModule -->
<g id="edge32" class="edge">
<title>UserRule&#45;&gt;AuthorizationModule</title>
<path fill="none" stroke="black" d="M478,-122.29C478,-144.21 478,-178 478,-178 478,-178 2252.3,-178 2252.3,-178"/>
<polygon fill="black" stroke="black" points="2252.3,-181.5 2262.3,-178 2252.3,-174.5 2252.3,-181.5"/>
</g>
</g>
</svg>
