<?xml version="1.0" encoding="UTF-8" standalone="no"?>
<!DOCTYPE svg PUBLIC "-//W3C//DTD SVG 1.1//EN"
 "http://www.w3.org/Graphics/SVG/1.1/DTD/svg11.dtd">
<!-- Generated by graphviz version 5.0.0 (20220707.1540)
 -->
<!-- Title: dependencies Pages: 1 -->
<svg width="4479pt" height="247pt"
 viewBox="0.00 0.00 4479.00 246.80" xmlns="http://www.w3.org/2000/svg" xmlns:xlink="http://www.w3.org/1999/xlink">
<g id="graph0" class="graph" transform="scale(1 1) rotate(0) translate(4 242.8)">
<title>dependencies</title>
<polygon fill="white" stroke="transparent" points="-4,4 -4,-242.8 4475,-242.8 4475,4 -4,4"/>
<text text-anchor="middle" x="2235.5" y="-8.2" font-family="sans-serif" font-size="14.00">dependencies</text>
<g id="clust1" class="cluster">
<title>cluster_AuthorizationModule</title>
<polygon fill="none" stroke="black" stroke-dasharray="1,5" points="8,-32.8 8,-230.8 4463,-230.8 4463,-32.8 8,-32.8"/>
</g>
<g id="clust3" class="cluster">
<title>cluster_AuthorizationModule_imports</title>
<polygon fill="none" stroke="black" points="3883,-40.8 3883,-92.8 4455,-92.8 4455,-40.8 3883,-40.8"/>
</g>
<g id="clust6" class="cluster">
<title>cluster_AuthorizationModule_providers</title>
<polygon fill="none" stroke="black" points="16,-40.8 16,-92.8 3875,-92.8 3875,-40.8 16,-40.8"/>
</g>
<g id="clust4" class="cluster">
<title>cluster_AuthorizationModule_exports</title>
<polygon fill="none" stroke="black" points="2000,-170.8 2000,-222.8 2360,-222.8 2360,-170.8 2000,-170.8"/>
</g>
<!-- BoardModule -->
<g id="node1" class="node">
<title>BoardModule</title>
<polygon fill="#8dd3c7" stroke="black" points="4446.77,-84.8 4443.77,-88.8 4422.77,-88.8 4419.77,-84.8 4353.23,-84.8 4353.23,-48.8 4446.77,-48.8 4446.77,-84.8"/>
<text text-anchor="middle" x="4400" y="-62.6" font-family="Times,serif" font-size="14.00">BoardModule</text>
</g>
<!-- AuthorizationModule -->
<g id="node6" class="node">
<title>AuthorizationModule</title>
<polygon fill="#8dd3c7" stroke="black" points="2259.81,-149.8 2256.81,-153.8 2235.81,-153.8 2232.81,-149.8 2122.19,-149.8 2122.19,-113.8 2259.81,-113.8 2259.81,-149.8"/>
<text text-anchor="middle" x="2191" y="-127.6" font-family="Times,serif" font-size="14.00">AuthorizationModule</text>
</g>
<!-- BoardModule&#45;&gt;AuthorizationModule -->
<g id="edge1" class="edge">
<title>BoardModule&#45;&gt;AuthorizationModule</title>
<path fill="none" stroke="black" d="M4400,-85.18C4400,-109.08 4400,-147.8 4400,-147.8 4400,-147.8 2269.84,-147.8 2269.84,-147.8"/>
<polygon fill="black" stroke="black" points="2269.84,-144.3 2259.84,-147.8 2269.84,-151.3 2269.84,-144.3"/>
</g>
<!-- FeathersModule -->
<g id="node2" class="node">
<title>FeathersModule</title>
<polygon fill="#8dd3c7" stroke="black" points="4335.48,-84.8 4332.48,-88.8 4311.48,-88.8 4308.48,-84.8 4228.52,-84.8 4228.52,-48.8 4335.48,-48.8 4335.48,-84.8"/>
<text text-anchor="middle" x="4282" y="-62.6" font-family="Times,serif" font-size="14.00">FeathersModule</text>
</g>
<!-- FeathersModule&#45;&gt;AuthorizationModule -->
<g id="edge2" class="edge">
<title>FeathersModule&#45;&gt;AuthorizationModule</title>
<path fill="none" stroke="black" d="M4282,-84.89C4282,-107.93 4282,-144.8 4282,-144.8 4282,-144.8 2269.68,-144.8 2269.68,-144.8"/>
<polygon fill="black" stroke="black" points="2269.68,-141.3 2259.68,-144.8 2269.68,-148.3 2269.68,-141.3"/>
</g>
<!-- LoggerModule -->
<g id="node3" class="node">
<title>LoggerModule</title>
<polygon fill="#8dd3c7" stroke="black" points="4210.98,-84.8 4207.98,-88.8 4186.98,-88.8 4183.98,-84.8 4111.02,-84.8 4111.02,-48.8 4210.98,-48.8 4210.98,-84.8"/>
<text text-anchor="middle" x="4161" y="-62.6" font-family="Times,serif" font-size="14.00">LoggerModule</text>
</g>
<!-- LoggerModule&#45;&gt;AuthorizationModule -->
<g id="edge3" class="edge">
<title>LoggerModule&#45;&gt;AuthorizationModule</title>
<path fill="none" stroke="black" d="M4161,-84.81C4161,-107.29 4161,-142.8 4161,-142.8 4161,-142.8 2269.67,-142.8 2269.67,-142.8"/>
<polygon fill="black" stroke="black" points="2269.67,-139.3 2259.67,-142.8 2269.67,-146.3 2269.67,-139.3"/>
</g>
<!-- SchoolModule -->
<g id="node4" class="node">
<title>SchoolModule</title>
<polygon fill="#8dd3c7" stroke="black" points="4093.44,-84.8 4090.44,-88.8 4069.44,-88.8 4066.44,-84.8 3994.56,-84.8 3994.56,-48.8 4093.44,-48.8 4093.44,-84.8"/>
<text text-anchor="middle" x="4044" y="-62.6" font-family="Times,serif" font-size="14.00">SchoolModule</text>
</g>
<!-- SchoolModule&#45;&gt;AuthorizationModule -->
<g id="edge4" class="edge">
<title>SchoolModule&#45;&gt;AuthorizationModule</title>
<path fill="none" stroke="black" d="M4044,-84.84C4044,-106.46 4044,-139.8 4044,-139.8 4044,-139.8 2269.7,-139.8 2269.7,-139.8"/>
<polygon fill="black" stroke="black" points="2269.7,-136.3 2259.7,-139.8 2269.7,-143.3 2269.7,-136.3"/>
</g>
<!-- ToolModule -->
<g id="node5" class="node">
<title>ToolModule</title>
<polygon fill="#8dd3c7" stroke="black" points="3976.99,-84.8 3973.99,-88.8 3952.99,-88.8 3949.99,-84.8 3891.01,-84.8 3891.01,-48.8 3976.99,-48.8 3976.99,-84.8"/>
<text text-anchor="middle" x="3934" y="-62.6" font-family="Times,serif" font-size="14.00">ToolModule</text>
</g>
<!-- ToolModule&#45;&gt;AuthorizationModule -->
<g id="edge5" class="edge">
<title>ToolModule&#45;&gt;AuthorizationModule</title>
<path fill="none" stroke="black" d="M3934,-85.08C3934,-106.12 3934,-137.8 3934,-137.8 3934,-137.8 2269.86,-137.8 2269.86,-137.8"/>
<polygon fill="black" stroke="black" points="2269.86,-134.3 2259.86,-137.8 2269.86,-141.3 2269.86,-134.3"/>
</g>
<!-- AuthorizationService  -->
<g id="node7" class="node">
<title>AuthorizationService </title>
<polygon fill="#fb8072" stroke="black" points="2351.74,-214.8 2212.26,-214.8 2212.26,-178.8 2351.74,-178.8 2351.74,-214.8"/>
<text text-anchor="middle" x="2282" y="-192.6" font-family="Times,serif" font-size="14.00">AuthorizationService </text>
</g>
<!-- AuthorizationModule&#45;&gt;AuthorizationService  -->
<g id="edge6" class="edge">
<title>AuthorizationModule&#45;&gt;AuthorizationService </title>
<path fill="none" stroke="black" stroke-dasharray="5,2" d="M2236.02,-149.91C2236.02,-149.91 2236.02,-168.79 2236.02,-168.79"/>
<polygon fill="black" stroke="black" points="2232.52,-168.79 2236.02,-178.79 2239.52,-168.79 2232.52,-168.79"/>
</g>
<!-- FeathersAuthorizationService  -->
<g id="node8" class="node">
<title>FeathersAuthorizationService </title>
<polygon fill="#fb8072" stroke="black" points="2194.17,-214.8 2007.83,-214.8 2007.83,-178.8 2194.17,-178.8 2194.17,-214.8"/>
<text text-anchor="middle" x="2101" y="-192.6" font-family="Times,serif" font-size="14.00">FeathersAuthorizationService </text>
</g>
<!-- AuthorizationModule&#45;&gt;FeathersAuthorizationService  -->
<g id="edge7" class="edge">
<title>AuthorizationModule&#45;&gt;FeathersAuthorizationService </title>
<path fill="none" stroke="black" stroke-dasharray="5,2" d="M2158.34,-149.91C2158.34,-149.91 2158.34,-168.79 2158.34,-168.79"/>
<polygon fill="black" stroke="black" points="2154.84,-168.79 2158.34,-178.79 2161.84,-168.79 2154.84,-168.79"/>
</g>
<!-- AuthorizationService -->
<g id="node9" class="node">
<title>AuthorizationService</title>
<ellipse fill="#fdb462" stroke="black" cx="3773" cy="-66.8" rx="93.76" ry="18"/>
<text text-anchor="middle" x="3773" y="-62.6" font-family="Times,serif" font-size="14.00">AuthorizationService</text>
</g>
<!-- AuthorizationService&#45;&gt;AuthorizationModule -->
<g id="edge8" class="edge">
<title>AuthorizationService&#45;&gt;AuthorizationModule</title>
<path fill="none" stroke="black" d="M3773,-85.02C3773,-105.17 3773,-134.8 3773,-134.8 3773,-134.8 2269.74,-134.8 2269.74,-134.8"/>
<polygon fill="black" stroke="black" points="2269.74,-131.3 2259.74,-134.8 2269.74,-138.3 2269.74,-131.3"/>
</g>
<!-- BoardNodeRule -->
<g id="node10" class="node">
<title>BoardNodeRule</title>
<ellipse fill="#fdb462" stroke="black" cx="3588" cy="-66.8" rx="73.59" ry="18"/>
<text text-anchor="middle" x="3588" y="-62.6" font-family="Times,serif" font-size="14.00">BoardNodeRule</text>
</g>
<!-- BoardNodeRule&#45;&gt;AuthorizationModule -->
<g id="edge9" class="edge">
<title>BoardNodeRule&#45;&gt;AuthorizationModule</title>
<path fill="none" stroke="black" d="M3588,-84.91C3588,-104.14 3588,-131.8 3588,-131.8 3588,-131.8 2269.8,-131.8 2269.8,-131.8"/>
<polygon fill="black" stroke="black" points="2269.8,-128.3 2259.8,-131.8 2269.8,-135.3 2269.8,-128.3"/>
</g>
<!-- CourseGroupRepo -->
<g id="node11" class="node">
<title>CourseGroupRepo</title>
<ellipse fill="#fdb462" stroke="black" cx="3413" cy="-66.8" rx="83.41" ry="18"/>
<text text-anchor="middle" x="3413" y="-62.6" font-family="Times,serif" font-size="14.00">CourseGroupRepo</text>
</g>
<!-- CourseGroupRepo&#45;&gt;AuthorizationModule -->
<g id="edge10" class="edge">
<title>CourseGroupRepo&#45;&gt;AuthorizationModule</title>
<path fill="none" stroke="black" d="M3413,-85.02C3413,-103.63 3413,-129.8 3413,-129.8 3413,-129.8 2269.76,-129.8 2269.76,-129.8"/>
<polygon fill="black" stroke="black" points="2269.76,-126.3 2259.76,-129.8 2269.76,-133.3 2269.76,-126.3"/>
</g>
<!-- CourseGroupRule -->
<g id="node12" class="node">
<title>CourseGroupRule</title>
<ellipse fill="#fdb462" stroke="black" cx="3230" cy="-66.8" rx="81.12" ry="18"/>
<text text-anchor="middle" x="3230" y="-62.6" font-family="Times,serif" font-size="14.00">CourseGroupRule</text>
</g>
<!-- CourseGroupRule&#45;&gt;AuthorizationModule -->
<g id="edge11" class="edge">
<title>CourseGroupRule&#45;&gt;AuthorizationModule</title>
<path fill="none" stroke="black" d="M3230,-84.8C3230,-102.48 3230,-126.8 3230,-126.8 3230,-126.8 2269.98,-126.8 2269.98,-126.8"/>
<polygon fill="black" stroke="black" points="2269.98,-123.3 2259.98,-126.8 2269.98,-130.3 2269.98,-123.3"/>
</g>
<!-- CourseRepo -->
<g id="node13" class="node">
<title>CourseRepo</title>
<ellipse fill="#fdb462" stroke="black" cx="3072" cy="-66.8" rx="58.56" ry="18"/>
<text text-anchor="middle" x="3072" y="-62.6" font-family="Times,serif" font-size="14.00">CourseRepo</text>
</g>
<!-- CourseRepo&#45;&gt;AuthorizationModule -->
<g id="edge12" class="edge">
<title>CourseRepo&#45;&gt;AuthorizationModule</title>
<path fill="none" stroke="black" d="M3072,-84.83C3072,-101.86 3072,-124.8 3072,-124.8 3072,-124.8 2269.76,-124.8 2269.76,-124.8"/>
<polygon fill="black" stroke="black" points="2269.76,-121.3 2259.76,-124.8 2269.76,-128.3 2269.76,-121.3"/>
</g>
<!-- CourseRule -->
<g id="node14" class="node">
<title>CourseRule</title>
<ellipse fill="#fdb462" stroke="black" cx="2939" cy="-66.8" rx="56.77" ry="18"/>
<text text-anchor="middle" x="2939" y="-62.6" font-family="Times,serif" font-size="14.00">CourseRule</text>
</g>
<!-- CourseRule&#45;&gt;AuthorizationModule -->
<g id="edge13" class="edge">
<title>CourseRule&#45;&gt;AuthorizationModule</title>
<path fill="none" stroke="black" d="M2939,-84.81C2939,-100.85 2939,-121.8 2939,-121.8 2939,-121.8 2269.7,-121.8 2269.7,-121.8"/>
<polygon fill="black" stroke="black" points="2269.7,-118.3 2259.7,-121.8 2269.7,-125.3 2269.7,-118.3"/>
</g>
<!-- FeathersAuthProvider -->
<g id="node15" class="node">
<title>FeathersAuthProvider</title>
<ellipse fill="#fdb462" stroke="black" cx="2768" cy="-66.8" rx="96.14" ry="18"/>
<text text-anchor="middle" x="2768" y="-62.6" font-family="Times,serif" font-size="14.00">FeathersAuthProvider</text>
</g>
<!-- FeathersAuthProvider&#45;&gt;AuthorizationModule -->
<g id="edge14" class="edge">
<title>FeathersAuthProvider&#45;&gt;AuthorizationModule</title>
<path fill="none" stroke="black" d="M2768,-85.04C2768,-100.37 2768,-119.8 2768,-119.8 2768,-119.8 2269.74,-119.8 2269.74,-119.8"/>
<polygon fill="black" stroke="black" points="2269.74,-116.3 2259.74,-119.8 2269.74,-123.3 2269.74,-116.3"/>
</g>
<!-- FeathersAuthorizationService -->
<g id="node16" class="node">
<title>FeathersAuthorizationService</title>
<ellipse fill="#fdb462" stroke="black" cx="2527" cy="-66.8" rx="126.19" ry="18"/>
<text text-anchor="middle" x="2527" y="-62.6" font-family="Times,serif" font-size="14.00">FeathersAuthorizationService</text>
</g>
<!-- FeathersAuthorizationService&#45;&gt;AuthorizationModule -->
<g id="edge15" class="edge">
<title>FeathersAuthorizationService&#45;&gt;AuthorizationModule</title>
<path fill="none" stroke="black" d="M2527,-84.85C2527,-99.17 2527,-116.8 2527,-116.8 2527,-116.8 2269.81,-116.8 2269.81,-116.8"/>
<polygon fill="black" stroke="black" points="2269.81,-113.3 2259.81,-116.8 2269.81,-120.3 2269.81,-113.3"/>
</g>
<!-- LessonRepo -->
<g id="node17" class="node">
<title>LessonRepo</title>
<ellipse fill="#fdb462" stroke="black" cx="2324" cy="-66.8" rx="58.56" ry="18"/>
<text text-anchor="middle" x="2324" y="-62.6" font-family="Times,serif" font-size="14.00">LessonRepo</text>
</g>
<!-- LessonRepo&#45;&gt;AuthorizationModule -->
<g id="edge16" class="edge">
<title>LessonRepo&#45;&gt;AuthorizationModule</title>
<path fill="none" stroke="black" d="M2264.95,-66.8C2258.18,-66.8 2253.64,-66.8 2253.64,-66.8 2253.64,-66.8 2253.64,-103.69 2253.64,-103.69"/>
<polygon fill="black" stroke="black" points="2250.14,-103.69 2253.64,-113.69 2257.14,-103.69 2250.14,-103.69"/>
</g>
<!-- LessonRule -->
<g id="node18" class="node">
<title>LessonRule</title>
<ellipse fill="#fdb462" stroke="black" cx="2191" cy="-66.8" rx="56.77" ry="18"/>
<text text-anchor="middle" x="2191" y="-62.6" font-family="Times,serif" font-size="14.00">LessonRule</text>
</g>
<!-- LessonRule&#45;&gt;AuthorizationModule -->
<g id="edge17" class="edge">
<title>LessonRule&#45;&gt;AuthorizationModule</title>
<path fill="none" stroke="black" d="M2191,-84.91C2191,-84.91 2191,-103.79 2191,-103.79"/>
<polygon fill="black" stroke="black" points="2187.5,-103.79 2191,-113.79 2194.5,-103.79 2187.5,-103.79"/>
</g>
<!-- ReferenceLoader -->
<g id="node19" class="node">
<title>ReferenceLoader</title>
<ellipse fill="#fdb462" stroke="black" cx="2039" cy="-66.8" rx="77.53" ry="18"/>
<text text-anchor="middle" x="2039" y="-62.6" font-family="Times,serif" font-size="14.00">ReferenceLoader</text>
</g>
<!-- ReferenceLoader&#45;&gt;AuthorizationModule -->
<g id="edge18" class="edge">
<title>ReferenceLoader&#45;&gt;AuthorizationModule</title>
<path fill="none" stroke="black" d="M2116.67,-66.8C2123.77,-66.8 2128.36,-66.8 2128.36,-66.8 2128.36,-66.8 2128.36,-103.69 2128.36,-103.69"/>
<polygon fill="black" stroke="black" points="2124.86,-103.69 2128.36,-113.69 2131.86,-103.69 2124.86,-103.69"/>
</g>
<!-- SchoolExternalToolRepo -->
<g id="node20" class="node">
<title>SchoolExternalToolRepo</title>
<ellipse fill="#fdb462" stroke="black" cx="1834" cy="-66.8" rx="109.39" ry="18"/>
<text text-anchor="middle" x="1834" y="-62.6" font-family="Times,serif" font-size="14.00">SchoolExternalToolRepo</text>
</g>
<!-- SchoolExternalToolRepo&#45;&gt;AuthorizationModule -->
<g id="edge19" class="edge">
<title>SchoolExternalToolRepo&#45;&gt;AuthorizationModule</title>
<path fill="none" stroke="black" d="M1834,-84.85C1834,-99.17 1834,-116.8 1834,-116.8 1834,-116.8 2112.17,-116.8 2112.17,-116.8"/>
<polygon fill="black" stroke="black" points="2112.17,-120.3 2122.17,-116.8 2112.17,-113.3 2112.17,-120.3"/>
</g>
<!-- SchoolExternalToolRule -->
<g id="node21" class="node">
<title>SchoolExternalToolRule</title>
<ellipse fill="#fdb462" stroke="black" cx="1600" cy="-66.8" rx="107.1" ry="18"/>
<text text-anchor="middle" x="1600" y="-62.6" font-family="Times,serif" font-size="14.00">SchoolExternalToolRule</text>
</g>
<!-- SchoolExternalToolRule&#45;&gt;AuthorizationModule -->
<g id="edge20" class="edge">
<title>SchoolExternalToolRule&#45;&gt;AuthorizationModule</title>
<path fill="none" stroke="black" d="M1600,-85.04C1600,-100.37 1600,-119.8 1600,-119.8 1600,-119.8 2112.34,-119.8 2112.34,-119.8"/>
<polygon fill="black" stroke="black" points="2112.34,-123.3 2122.34,-119.8 2112.34,-116.3 2112.34,-123.3"/>
</g>
<!-- SchoolRepo -->
<g id="node22" class="node">
<title>SchoolRepo</title>
<ellipse fill="#fdb462" stroke="black" cx="1417" cy="-66.8" rx="58.49" ry="18"/>
<text text-anchor="middle" x="1417" y="-62.6" font-family="Times,serif" font-size="14.00">SchoolRepo</text>
</g>
<!-- SchoolRepo&#45;&gt;AuthorizationModule -->
<g id="edge21" class="edge">
<title>SchoolRepo&#45;&gt;AuthorizationModule</title>
<path fill="none" stroke="black" d="M1417,-84.81C1417,-100.85 1417,-121.8 1417,-121.8 1417,-121.8 2112.31,-121.8 2112.31,-121.8"/>
<polygon fill="black" stroke="black" points="2112.31,-125.3 2122.31,-121.8 2112.31,-118.3 2112.31,-125.3"/>
</g>
<!-- SchoolRule -->
<g id="node23" class="node">
<title>SchoolRule</title>
<ellipse fill="#fdb462" stroke="black" cx="1285" cy="-66.8" rx="56.2" ry="18"/>
<text text-anchor="middle" x="1285" y="-62.6" font-family="Times,serif" font-size="14.00">SchoolRule</text>
</g>
<!-- SchoolRule&#45;&gt;AuthorizationModule -->
<g id="edge22" class="edge">
<title>SchoolRule&#45;&gt;AuthorizationModule</title>
<path fill="none" stroke="black" d="M1285,-84.83C1285,-101.86 1285,-124.8 1285,-124.8 1285,-124.8 2112.16,-124.8 2112.16,-124.8"/>
<polygon fill="black" stroke="black" points="2112.16,-128.3 2122.16,-124.8 2112.16,-121.3 2112.16,-128.3"/>
</g>
<!-- SubmissionRepo -->
<g id="node24" class="node">
<title>SubmissionRepo</title>
<ellipse fill="#fdb462" stroke="black" cx="1134" cy="-66.8" rx="76.5" ry="18"/>
<text text-anchor="middle" x="1134" y="-62.6" font-family="Times,serif" font-size="14.00">SubmissionRepo</text>
</g>
<!-- SubmissionRepo&#45;&gt;AuthorizationModule -->
<g id="edge23" class="edge">
<title>SubmissionRepo&#45;&gt;AuthorizationModule</title>
<path fill="none" stroke="black" d="M1134,-84.8C1134,-102.48 1134,-126.8 1134,-126.8 1134,-126.8 2112.06,-126.8 2112.06,-126.8"/>
<polygon fill="black" stroke="black" points="2112.06,-130.3 2122.06,-126.8 2112.05,-123.3 2112.06,-130.3"/>
</g>
<!-- SubmissionRule -->
<g id="node25" class="node">
<title>SubmissionRule</title>
<ellipse fill="#fdb462" stroke="black" cx="965" cy="-66.8" rx="74.21" ry="18"/>
<text text-anchor="middle" x="965" y="-62.6" font-family="Times,serif" font-size="14.00">SubmissionRule</text>
</g>
<!-- SubmissionRule&#45;&gt;AuthorizationModule -->
<g id="edge24" class="edge">
<title>SubmissionRule&#45;&gt;AuthorizationModule</title>
<path fill="none" stroke="black" d="M965,-85.02C965,-103.63 965,-129.8 965,-129.8 965,-129.8 2112.02,-129.8 2112.02,-129.8"/>
<polygon fill="black" stroke="black" points="2112.02,-133.3 2122.02,-129.8 2112.02,-126.3 2112.02,-133.3"/>
</g>
<!-- TaskCardRule -->
<g id="node26" class="node">
<title>TaskCardRule</title>
<ellipse fill="#fdb462" stroke="black" cx="806" cy="-66.8" rx="66.64" ry="18"/>
<text text-anchor="middle" x="806" y="-62.6" font-family="Times,serif" font-size="14.00">TaskCardRule</text>
</g>
<!-- TaskCardRule&#45;&gt;AuthorizationModule -->
<g id="edge25" class="edge">
<title>TaskCardRule&#45;&gt;AuthorizationModule</title>
<path fill="none" stroke="black" d="M806,-84.91C806,-104.14 806,-131.8 806,-131.8 806,-131.8 2112.32,-131.8 2112.32,-131.8"/>
<polygon fill="black" stroke="black" points="2112.32,-135.3 2122.32,-131.8 2112.32,-128.3 2112.32,-135.3"/>
</g>
<!-- TaskRepo -->
<g id="node27" class="node">
<title>TaskRepo</title>
<ellipse fill="#fdb462" stroke="black" cx="671" cy="-66.8" rx="50.39" ry="18"/>
<text text-anchor="middle" x="671" y="-62.6" font-family="Times,serif" font-size="14.00">TaskRepo</text>
</g>
<!-- TaskRepo&#45;&gt;AuthorizationModule -->
<g id="edge26" class="edge">
<title>TaskRepo&#45;&gt;AuthorizationModule</title>
<path fill="none" stroke="black" d="M671,-85.02C671,-105.17 671,-134.8 671,-134.8 671,-134.8 2112.24,-134.8 2112.24,-134.8"/>
<polygon fill="black" stroke="black" points="2112.24,-138.3 2122.24,-134.8 2112.24,-131.3 2112.24,-138.3"/>
</g>
<!-- TaskRule -->
<g id="node28" class="node">
<title>TaskRule</title>
<ellipse fill="#fdb462" stroke="black" cx="555" cy="-66.8" rx="48.09" ry="18"/>
<text text-anchor="middle" x="555" y="-62.6" font-family="Times,serif" font-size="14.00">TaskRule</text>
</g>
<!-- TaskRule&#45;&gt;AuthorizationModule -->
<g id="edge27" class="edge">
<title>TaskRule&#45;&gt;AuthorizationModule</title>
<path fill="none" stroke="black" d="M555,-85.08C555,-106.12 555,-137.8 555,-137.8 555,-137.8 2112.27,-137.8 2112.27,-137.8"/>
<polygon fill="black" stroke="black" points="2112.27,-141.3 2122.27,-137.8 2112.27,-134.3 2112.27,-141.3"/>
</g>
<!-- TeamRule -->
<g id="node29" class="node">
<title>TeamRule</title>
<ellipse fill="#fdb462" stroke="black" cx="438" cy="-66.8" rx="51.02" ry="18"/>
<text text-anchor="middle" x="438" y="-62.6" font-family="Times,serif" font-size="14.00">TeamRule</text>
</g>
<!-- TeamRule&#45;&gt;AuthorizationModule -->
<g id="edge28" class="edge">
<title>TeamRule&#45;&gt;AuthorizationModule</title>
<path fill="none" stroke="black" d="M438,-84.84C438,-106.46 438,-139.8 438,-139.8 438,-139.8 2112.28,-139.8 2112.28,-139.8"/>
<polygon fill="black" stroke="black" points="2112.28,-143.3 2122.28,-139.8 2112.28,-136.3 2112.28,-143.3"/>
</g>
<!-- TeamsRepo -->
<g id="node30" class="node">
<title>TeamsRepo</title>
<ellipse fill="#fdb462" stroke="black" cx="312" cy="-66.8" rx="57.32" ry="18"/>
<text text-anchor="middle" x="312" y="-62.6" font-family="Times,serif" font-size="14.00">TeamsRepo</text>
</g>
<!-- TeamsRepo&#45;&gt;AuthorizationModule -->
<g id="edge29" class="edge">
<title>TeamsRepo&#45;&gt;AuthorizationModule</title>
<path fill="none" stroke="black" d="M312,-84.81C312,-107.29 312,-142.8 312,-142.8 312,-142.8 2112.18,-142.8 2112.18,-142.8"/>
<polygon fill="black" stroke="black" points="2112.18,-146.3 2122.18,-142.8 2112.18,-139.3 2112.18,-146.3"/>
</g>
<!-- UserRepo -->
<g id="node31" class="node">
<title>UserRepo</title>
<ellipse fill="#fdb462" stroke="black" cx="187" cy="-66.8" rx="49.81" ry="18"/>
<text text-anchor="middle" x="187" y="-62.6" font-family="Times,serif" font-size="14.00">UserRepo</text>
</g>
<!-- UserRepo&#45;&gt;AuthorizationModule -->
<g id="edge30" class="edge">
<title>UserRepo&#45;&gt;AuthorizationModule</title>
<path fill="none" stroke="black" d="M187,-84.89C187,-107.93 187,-144.8 187,-144.8 187,-144.8 2112.31,-144.8 2112.31,-144.8"/>
<polygon fill="black" stroke="black" points="2112.31,-148.3 2122.31,-144.8 2112.31,-141.3 2112.31,-148.3"/>
</g>
<!-- UserRule -->
<g id="node32" class="node">
<title>UserRule</title>
<ellipse fill="#fdb462" stroke="black" cx="72" cy="-66.8" rx="47.52" ry="18"/>
<text text-anchor="middle" x="72" y="-62.6" font-family="Times,serif" font-size="14.00">UserRule</text>
</g>
<!-- UserRule&#45;&gt;AuthorizationModule -->
<g id="edge31" class="edge">
<title>UserRule&#45;&gt;AuthorizationModule</title>
<path fill="none" stroke="black" d="M72,-85.18C72,-109.08 72,-147.8 72,-147.8 72,-147.8 2112.3,-147.8 2112.3,-147.8"/>
<polygon fill="black" stroke="black" points="2112.3,-151.3 2122.3,-147.8 2112.3,-144.3 2112.3,-151.3"/>
</g>
</g>
</svg>
