<?xml version="1.0" encoding="UTF-8" standalone="no"?>
<!DOCTYPE svg PUBLIC "-//W3C//DTD SVG 1.1//EN"
 "http://www.w3.org/Graphics/SVG/1.1/DTD/svg11.dtd">
<!-- Generated by graphviz version 2.47.0 (20210316.0004)
 -->
<!-- Title: dependencies Pages: 1 -->
<svg width="3693pt" height="284pt"
 viewBox="0.00 0.00 3693.00 284.00" xmlns="http://www.w3.org/2000/svg" xmlns:xlink="http://www.w3.org/1999/xlink">
<g id="graph0" class="graph" transform="scale(1 1) rotate(0) translate(4 280)">
<title>dependencies</title>
<polygon fill="white" stroke="transparent" points="-4,4 -4,-280 3689,-280 3689,4 -4,4"/>
<text text-anchor="start" x="1821.51" y="-42.4" font-family="Times-12" font-weight="bold" font-size="14.00">Legend</text>
<polygon fill="#ffffb3" stroke="transparent" points="1608.5,-10 1608.5,-30 1628.5,-30 1628.5,-10 1608.5,-10"/>
<text text-anchor="start" x="1632.13" y="-15.4" font-family="Times-12" font-size="14.00"> &#160;Declarations</text>
<polygon fill="#8dd3c7" stroke="transparent" points="1721.5,-10 1721.5,-30 1741.5,-30 1741.5,-10 1721.5,-10"/>
<text text-anchor="start" x="1745.23" y="-15.4" font-family="Times-12" font-size="14.00"> &#160;Module</text>
<polygon fill="#80b1d3" stroke="transparent" points="1807.5,-10 1807.5,-30 1827.5,-30 1827.5,-10 1807.5,-10"/>
<text text-anchor="start" x="1831.28" y="-15.4" font-family="Times-12" font-size="14.00"> &#160;Bootstrap</text>
<polygon fill="#fdb462" stroke="transparent" points="1904.5,-10 1904.5,-30 1924.5,-30 1924.5,-10 1904.5,-10"/>
<text text-anchor="start" x="1928.17" y="-15.4" font-family="Times-12" font-size="14.00"> &#160;Providers</text>
<polygon fill="#fb8072" stroke="transparent" points="2000.5,-10 2000.5,-30 2020.5,-30 2020.5,-10 2000.5,-10"/>
<text text-anchor="start" x="2024.23" y="-15.4" font-family="Times-12" font-size="14.00"> &#160;Exports</text>
<g id="clust1" class="cluster">
<title>cluster_AuthorizationModule</title>
<polygon fill="none" stroke="black" stroke-dasharray="1,5" points="8,-70 8,-268 3677,-268 3677,-70 8,-70"/>
</g>
<g id="clust4" class="cluster">
<title>cluster_AuthorizationModule_exports</title>
<polygon fill="none" stroke="black" points="1431,-208 1431,-260 1897,-260 1897,-208 1431,-208"/>
</g>
<g id="clust6" class="cluster">
<title>cluster_AuthorizationModule_providers</title>
<polygon fill="none" stroke="black" points="264,-78 264,-130 3669,-130 3669,-78 264,-78"/>
</g>
<g id="clust3" class="cluster">
<title>cluster_AuthorizationModule_imports</title>
<polygon fill="none" stroke="black" points="16,-78 16,-130 256,-130 256,-78 16,-78"/>
</g>
<!-- FeathersModule -->
<g id="node1" class="node">
<title>FeathersModule</title>
<polygon fill="#8dd3c7" stroke="black" points="248.47,-122 245.47,-126 224.47,-126 221.47,-122 141.53,-122 141.53,-86 248.47,-86 248.47,-122"/>
<text text-anchor="middle" x="195" y="-99.8" font-family="Times,serif" font-size="14.00">FeathersModule</text>
</g>
<!-- AuthorizationModule -->
<g id="node3" class="node">
<title>AuthorizationModule</title>
<polygon fill="#8dd3c7" stroke="black" points="1706.81,-187 1703.81,-191 1682.81,-191 1679.81,-187 1569.19,-187 1569.19,-151 1706.81,-151 1706.81,-187"/>
<text text-anchor="middle" x="1638" y="-164.8" font-family="Times,serif" font-size="14.00">AuthorizationModule</text>
</g>
<!-- FeathersModule&#45;&gt;AuthorizationModule -->
<g id="edge1" class="edge">
<title>FeathersModule&#45;&gt;AuthorizationModule</title>
<path fill="none" stroke="black" d="M195,-122.29C195,-144.21 195,-178 195,-178 195,-178 1558.89,-178 1558.89,-178"/>
<polygon fill="black" stroke="black" points="1558.89,-181.5 1568.89,-178 1558.89,-174.5 1558.89,-181.5"/>
</g>
<!-- LoggerModule -->
<g id="node2" class="node">
<title>LoggerModule</title>
<polygon fill="#8dd3c7" stroke="black" points="123.98,-122 120.98,-126 99.98,-126 96.98,-122 24.02,-122 24.02,-86 123.98,-86 123.98,-122"/>
<text text-anchor="middle" x="74" y="-99.8" font-family="Times,serif" font-size="14.00">LoggerModule</text>
</g>
<!-- LoggerModule&#45;&gt;AuthorizationModule -->
<g id="edge2" class="edge">
<title>LoggerModule&#45;&gt;AuthorizationModule</title>
<path fill="none" stroke="black" d="M74,-122.25C74,-145.02 74,-181 74,-181 74,-181 1559.29,-181 1559.29,-181"/>
<polygon fill="black" stroke="black" points="1559.29,-184.5 1569.29,-181 1559.29,-177.5 1559.29,-184.5"/>
</g>
<!-- AuthorizationService  -->
<g id="node4" class="node">
<title>AuthorizationService </title>
<polygon fill="#fb8072" stroke="black" points="1888.74,-252 1749.26,-252 1749.26,-216 1888.74,-216 1888.74,-252"/>
<text text-anchor="middle" x="1819" y="-229.8" font-family="Times,serif" font-size="14.00">AuthorizationService </text>
</g>
<!-- AuthorizationModule&#45;&gt;AuthorizationService  -->
<g id="edge3" class="edge">
<title>AuthorizationModule&#45;&gt;AuthorizationService </title>
<path fill="none" stroke="black" stroke-dasharray="5,2" d="M1706.94,-184C1733.01,-184 1756.51,-184 1756.51,-184 1756.51,-184 1756.51,-205.95 1756.51,-205.95"/>
<polygon fill="black" stroke="black" points="1753.01,-205.95 1756.51,-215.95 1760.01,-205.95 1753.01,-205.95"/>
</g>
<!-- FeathersAuthorizationService  -->
<g id="node5" class="node">
<title>FeathersAuthorizationService </title>
<polygon fill="#fb8072" stroke="black" points="1731.16,-252 1544.84,-252 1544.84,-216 1731.16,-216 1731.16,-252"/>
<text text-anchor="middle" x="1638" y="-229.8" font-family="Times,serif" font-size="14.00">FeathersAuthorizationService </text>
</g>
<!-- AuthorizationModule&#45;&gt;FeathersAuthorizationService  -->
<g id="edge4" class="edge">
<title>AuthorizationModule&#45;&gt;FeathersAuthorizationService </title>
<path fill="none" stroke="black" stroke-dasharray="5,2" d="M1638,-187.11C1638,-187.11 1638,-205.99 1638,-205.99"/>
<polygon fill="black" stroke="black" points="1634.5,-205.99 1638,-215.99 1641.5,-205.99 1634.5,-205.99"/>
</g>
<!-- SystemRule  -->
<g id="node6" class="node">
<title>SystemRule </title>
<polygon fill="#fb8072" stroke="black" points="1526.66,-252 1439.34,-252 1439.34,-216 1526.66,-216 1526.66,-252"/>
<text text-anchor="middle" x="1483" y="-229.8" font-family="Times,serif" font-size="14.00">SystemRule </text>
</g>
<!-- AuthorizationModule&#45;&gt;SystemRule  -->
<g id="edge5" class="edge">
<title>AuthorizationModule&#45;&gt;SystemRule </title>
<path fill="none" stroke="black" stroke-dasharray="5,2" d="M1569.15,-184C1541.48,-184 1516,-184 1516,-184 1516,-184 1516,-205.95 1516,-205.95"/>
<polygon fill="black" stroke="black" points="1512.5,-205.95 1516,-215.95 1519.5,-205.95 1512.5,-205.95"/>
</g>
<!-- AuthorizationHelper -->
<g id="node7" class="node">
<title>AuthorizationHelper</title>
<ellipse fill="#fdb462" stroke="black" cx="3570" cy="-104" rx="90.89" ry="18"/>
<text text-anchor="middle" x="3570" y="-99.8" font-family="Times,serif" font-size="14.00">AuthorizationHelper</text>
</g>
<!-- AuthorizationHelper&#45;&gt;AuthorizationModule -->
<g id="edge6" class="edge">
<title>AuthorizationHelper&#45;&gt;AuthorizationModule</title>
<path fill="none" stroke="black" d="M3570,-122.25C3570,-145.02 3570,-181 3570,-181 3570,-181 1716.76,-181 1716.76,-181"/>
<polygon fill="black" stroke="black" points="1716.76,-177.5 1706.76,-181 1716.76,-184.5 1716.76,-177.5"/>
</g>
<!-- AuthorizationService -->
<g id="node8" class="node">
<title>AuthorizationService</title>
<ellipse fill="#fdb462" stroke="black" cx="3367" cy="-104" rx="93.76" ry="18"/>
<text text-anchor="middle" x="3367" y="-99.8" font-family="Times,serif" font-size="14.00">AuthorizationService</text>
</g>
<!-- AuthorizationService&#45;&gt;AuthorizationModule -->
<g id="edge7" class="edge">
<title>AuthorizationService&#45;&gt;AuthorizationModule</title>
<path fill="none" stroke="black" d="M3367,-122.29C3367,-144.21 3367,-178 3367,-178 3367,-178 1716.85,-178 1716.85,-178"/>
<polygon fill="black" stroke="black" points="1716.85,-174.5 1706.85,-178 1716.85,-181.5 1716.85,-174.5"/>
</g>
<!-- BoardDoRule -->
<g id="node9" class="node">
<title>BoardDoRule</title>
<ellipse fill="#fdb462" stroke="black" cx="3191" cy="-104" rx="64.85" ry="18"/>
<text text-anchor="middle" x="3191" y="-99.8" font-family="Times,serif" font-size="14.00">BoardDoRule</text>
</g>
<!-- BoardDoRule&#45;&gt;AuthorizationModule -->
<g id="edge8" class="edge">
<title>BoardDoRule&#45;&gt;AuthorizationModule</title>
<path fill="none" stroke="black" d="M3191,-122.28C3191,-143.32 3191,-175 3191,-175 3191,-175 1716.73,-175 1716.73,-175"/>
<polygon fill="black" stroke="black" points="1716.73,-171.5 1706.73,-175 1716.73,-178.5 1716.73,-171.5"/>
</g>
<!-- ContextExternalToolRule -->
<g id="node10" class="node">
<title>ContextExternalToolRule</title>
<ellipse fill="#fdb462" stroke="black" cx="2998" cy="-104" rx="110.61" ry="18"/>
<text text-anchor="middle" x="2998" y="-99.8" font-family="Times,serif" font-size="14.00">ContextExternalToolRule</text>
</g>
<!-- ContextExternalToolRule&#45;&gt;AuthorizationModule -->
<g id="edge9" class="edge">
<title>ContextExternalToolRule&#45;&gt;AuthorizationModule</title>
<path fill="none" stroke="black" d="M2998,-122.22C2998,-142.37 2998,-172 2998,-172 2998,-172 1716.84,-172 1716.84,-172"/>
<polygon fill="black" stroke="black" points="1716.84,-168.5 1706.84,-172 1716.84,-175.5 1716.84,-168.5"/>
</g>
<!-- CourseGroupRule -->
<g id="node11" class="node">
<title>CourseGroupRule</title>
<ellipse fill="#fdb462" stroke="black" cx="2788" cy="-104" rx="81.1" ry="18"/>
<text text-anchor="middle" x="2788" y="-99.8" font-family="Times,serif" font-size="14.00">CourseGroupRule</text>
</g>
<!-- CourseGroupRule&#45;&gt;AuthorizationModule -->
<g id="edge10" class="edge">
<title>CourseGroupRule&#45;&gt;AuthorizationModule</title>
<path fill="none" stroke="black" d="M2788,-122.11C2788,-141.34 2788,-169 2788,-169 2788,-169 1716.92,-169 1716.92,-169"/>
<polygon fill="black" stroke="black" points="1716.92,-165.5 1706.92,-169 1716.92,-172.5 1716.92,-165.5"/>
</g>
<!-- CourseRule -->
<g id="node12" class="node">
<title>CourseRule</title>
<ellipse fill="#fdb462" stroke="black" cx="2632" cy="-104" rx="56.76" ry="18"/>
<text text-anchor="middle" x="2632" y="-99.8" font-family="Times,serif" font-size="14.00">CourseRule</text>
</g>
<!-- CourseRule&#45;&gt;AuthorizationModule -->
<g id="edge11" class="edge">
<title>CourseRule&#45;&gt;AuthorizationModule</title>
<path fill="none" stroke="black" d="M2632,-122.27C2632,-140.56 2632,-166 2632,-166 2632,-166 1716.71,-166 1716.71,-166"/>
<polygon fill="black" stroke="black" points="1716.71,-162.5 1706.71,-166 1716.71,-169.5 1716.71,-162.5"/>
</g>
<!-- FeathersAuthProvider -->
<g id="node13" class="node">
<title>FeathersAuthProvider</title>
<ellipse fill="#fdb462" stroke="black" cx="2461" cy="-104" rx="96.13" ry="18"/>
<text text-anchor="middle" x="2461" y="-99.8" font-family="Times,serif" font-size="14.00">FeathersAuthProvider</text>
</g>
<!-- FeathersAuthProvider&#45;&gt;AuthorizationModule -->
<g id="edge12" class="edge">
<title>FeathersAuthProvider&#45;&gt;AuthorizationModule</title>
<path fill="none" stroke="black" d="M2461,-122.02C2461,-139.37 2461,-163 2461,-163 2461,-163 1716.75,-163 1716.75,-163"/>
<polygon fill="black" stroke="black" points="1716.75,-159.5 1706.75,-163 1716.75,-166.5 1716.75,-159.5"/>
</g>
<!-- FeathersAuthorizationService -->
<g id="node14" class="node">
<title>FeathersAuthorizationService</title>
<ellipse fill="#fdb462" stroke="black" cx="2220" cy="-104" rx="126.18" ry="18"/>
<text text-anchor="middle" x="2220" y="-99.8" font-family="Times,serif" font-size="14.00">FeathersAuthorizationService</text>
</g>
<!-- FeathersAuthorizationService&#45;&gt;AuthorizationModule -->
<g id="edge13" class="edge">
<title>FeathersAuthorizationService&#45;&gt;AuthorizationModule</title>
<path fill="none" stroke="black" d="M2220,-122.03C2220,-138.4 2220,-160 2220,-160 2220,-160 1716.76,-160 1716.76,-160"/>
<polygon fill="black" stroke="black" points="1716.76,-156.5 1706.76,-160 1716.76,-163.5 1716.76,-156.5"/>
</g>
<!-- GroupRule -->
<g id="node15" class="node">
<title>GroupRule</title>
<ellipse fill="#fdb462" stroke="black" cx="2022" cy="-104" rx="53.89" ry="18"/>
<text text-anchor="middle" x="2022" y="-99.8" font-family="Times,serif" font-size="14.00">GroupRule</text>
</g>
<!-- GroupRule&#45;&gt;AuthorizationModule -->
<g id="edge14" class="edge">
<title>GroupRule&#45;&gt;AuthorizationModule</title>
<path fill="none" stroke="black" d="M2022,-122.24C2022,-137.57 2022,-157 2022,-157 2022,-157 1717.09,-157 1717.09,-157"/>
<polygon fill="black" stroke="black" points="1717.1,-153.5 1707.09,-157 1717.09,-160.5 1717.1,-153.5"/>
</g>
<!-- LegacySchoolRule -->
<g id="node16" class="node">
<title>LegacySchoolRule</title>
<ellipse fill="#fdb462" stroke="black" cx="1866" cy="-104" rx="84.53" ry="18"/>
<text text-anchor="middle" x="1866" y="-99.8" font-family="Times,serif" font-size="14.00">LegacySchoolRule</text>
</g>
<!-- LegacySchoolRule&#45;&gt;AuthorizationModule -->
<g id="edge15" class="edge">
<title>LegacySchoolRule&#45;&gt;AuthorizationModule</title>
<path fill="none" stroke="black" d="M1835.05,-120.93C1835.05,-135.43 1835.05,-154 1835.05,-154 1835.05,-154 1716.92,-154 1716.92,-154"/>
<polygon fill="black" stroke="black" points="1716.92,-150.5 1706.92,-154 1716.92,-157.5 1716.92,-150.5"/>
</g>
<!-- LessonRule -->
<g id="node17" class="node">
<title>LessonRule</title>
<ellipse fill="#fdb462" stroke="black" cx="1707" cy="-104" rx="56.76" ry="18"/>
<text text-anchor="middle" x="1707" y="-99.8" font-family="Times,serif" font-size="14.00">LessonRule</text>
</g>
<!-- LessonRule&#45;&gt;AuthorizationModule -->
<g id="edge16" class="edge">
<title>LessonRule&#45;&gt;AuthorizationModule</title>
<path fill="none" stroke="black" d="M1678.51,-119.73C1678.51,-119.73 1678.51,-140.65 1678.51,-140.65"/>
<polygon fill="black" stroke="black" points="1675.01,-140.65 1678.51,-150.65 1682.01,-140.65 1675.01,-140.65"/>
</g>
<!-- RuleManager -->
<g id="node18" class="node">
<title>RuleManager</title>
<ellipse fill="#fdb462" stroke="black" cx="1569" cy="-104" rx="63.68" ry="18"/>
<text text-anchor="middle" x="1569" y="-99.8" font-family="Times,serif" font-size="14.00">RuleManager</text>
</g>
<!-- RuleManager&#45;&gt;AuthorizationModule -->
<g id="edge17" class="edge">
<title>RuleManager&#45;&gt;AuthorizationModule</title>
<path fill="none" stroke="black" d="M1600.97,-119.73C1600.97,-119.73 1600.97,-140.65 1600.97,-140.65"/>
<polygon fill="black" stroke="black" points="1597.47,-140.65 1600.97,-150.65 1604.47,-140.65 1597.47,-140.65"/>
</g>
<!-- SchoolExternalToolRule -->
<g id="node19" class="node">
<title>SchoolExternalToolRule</title>
<ellipse fill="#fdb462" stroke="black" cx="1380" cy="-104" rx="107.1" ry="18"/>
<text text-anchor="middle" x="1380" y="-99.8" font-family="Times,serif" font-size="14.00">SchoolExternalToolRule</text>
</g>
<!-- SchoolExternalToolRule&#45;&gt;AuthorizationModule -->
<g id="edge18" class="edge">
<title>SchoolExternalToolRule&#45;&gt;AuthorizationModule</title>
<path fill="none" stroke="black" d="M1463.23,-115.6C1463.23,-130.37 1463.23,-154 1463.23,-154 1463.23,-154 1559.18,-154 1559.18,-154"/>
<polygon fill="black" stroke="black" points="1559.18,-157.5 1569.18,-154 1559.18,-150.5 1559.18,-157.5"/>
</g>
<!-- SubmissionRule -->
<g id="node20" class="node">
<title>SubmissionRule</title>
<ellipse fill="#fdb462" stroke="black" cx="1181" cy="-104" rx="74.2" ry="18"/>
<text text-anchor="middle" x="1181" y="-99.8" font-family="Times,serif" font-size="14.00">SubmissionRule</text>
</g>
<!-- SubmissionRule&#45;&gt;AuthorizationModule -->
<g id="edge19" class="edge">
<title>SubmissionRule&#45;&gt;AuthorizationModule</title>
<path fill="none" stroke="black" d="M1181,-122.24C1181,-137.57 1181,-157 1181,-157 1181,-157 1559.09,-157 1559.09,-157"/>
<polygon fill="black" stroke="black" points="1559.09,-160.5 1569.09,-157 1559.09,-153.5 1559.09,-160.5"/>
</g>
<!-- SystemRule -->
<g id="node21" class="node">
<title>SystemRule</title>
<ellipse fill="#fdb462" stroke="black" cx="1031" cy="-104" rx="57.92" ry="18"/>
<text text-anchor="middle" x="1031" y="-99.8" font-family="Times,serif" font-size="14.00">SystemRule</text>
</g>
<!-- SystemRule&#45;&gt;AuthorizationModule -->
<g id="edge20" class="edge">
<title>SystemRule&#45;&gt;AuthorizationModule</title>
<path fill="none" stroke="black" d="M1031,-122.03C1031,-138.4 1031,-160 1031,-160 1031,-160 1559.26,-160 1559.26,-160"/>
<polygon fill="black" stroke="black" points="1559.26,-163.5 1569.26,-160 1559.26,-156.5 1559.26,-163.5"/>
</g>
<!-- TaskRule -->
<g id="node22" class="node">
<title>TaskRule</title>
<ellipse fill="#fdb462" stroke="black" cx="907" cy="-104" rx="48.09" ry="18"/>
<text text-anchor="middle" x="907" y="-99.8" font-family="Times,serif" font-size="14.00">TaskRule</text>
</g>
<!-- TaskRule&#45;&gt;AuthorizationModule -->
<g id="edge21" class="edge">
<title>TaskRule&#45;&gt;AuthorizationModule</title>
<path fill="none" stroke="black" d="M907,-122.02C907,-139.37 907,-163 907,-163 907,-163 1559.23,-163 1559.23,-163"/>
<polygon fill="black" stroke="black" points="1559.23,-166.5 1569.23,-163 1559.23,-159.5 1559.23,-166.5"/>
</g>
<!-- TeamRule -->
<g id="node23" class="node">
<title>TeamRule</title>
<ellipse fill="#fdb462" stroke="black" cx="790" cy="-104" rx="51.02" ry="18"/>
<text text-anchor="middle" x="790" y="-99.8" font-family="Times,serif" font-size="14.00">TeamRule</text>
</g>
<!-- TeamRule&#45;&gt;AuthorizationModule -->
<g id="edge22" class="edge">
<title>TeamRule&#45;&gt;AuthorizationModule</title>
<path fill="none" stroke="black" d="M790,-122.27C790,-140.56 790,-166 790,-166 790,-166 1559.32,-166 1559.32,-166"/>
<polygon fill="black" stroke="black" points="1559.32,-169.5 1569.32,-166 1559.32,-162.5 1559.32,-169.5"/>
</g>
<!-- UserLoginMigrationRule -->
<g id="node24" class="node">
<title>UserLoginMigrationRule</title>
<ellipse fill="#fdb462" stroke="black" cx="612" cy="-104" rx="109.39" ry="18"/>
<text text-anchor="middle" x="612" y="-99.8" font-family="Times,serif" font-size="14.00">UserLoginMigrationRule</text>
</g>
<!-- UserLoginMigrationRule&#45;&gt;AuthorizationModule -->
<g id="edge23" class="edge">
<title>UserLoginMigrationRule&#45;&gt;AuthorizationModule</title>
<path fill="none" stroke="black" d="M612,-122.11C612,-141.34 612,-169 612,-169 612,-169 1559.09,-169 1559.09,-169"/>
<polygon fill="black" stroke="black" points="1559.09,-172.5 1569.09,-169 1559.09,-165.5 1559.09,-172.5"/>
</g>
<!-- UserRepo -->
<g id="node25" class="node">
<title>UserRepo</title>
<ellipse fill="#fdb462" stroke="black" cx="435" cy="-104" rx="49.8" ry="18"/>
<text text-anchor="middle" x="435" y="-99.8" font-family="Times,serif" font-size="14.00">UserRepo</text>
</g>
<!-- UserRepo&#45;&gt;AuthorizationModule -->
<g id="edge24" class="edge">
<title>UserRepo&#45;&gt;AuthorizationModule</title>
<path fill="none" stroke="black" d="M435,-122.22C435,-142.37 435,-172 435,-172 435,-172 1559,-172 1559,-172"/>
<polygon fill="black" stroke="black" points="1559,-175.5 1569,-172 1559,-168.5 1559,-175.5"/>
</g>
<!-- UserRule -->
<g id="node26" class="node">
<title>UserRule</title>
<ellipse fill="#fdb462" stroke="black" cx="320" cy="-104" rx="47.51" ry="18"/>
<text text-anchor="middle" x="320" y="-99.8" font-family="Times,serif" font-size="14.00">UserRule</text>
</g>
<!-- UserRule&#45;&gt;AuthorizationModule -->
<g id="edge25" class="edge">
<title>UserRule&#45;&gt;AuthorizationModule</title>
<path fill="none" stroke="black" d="M320,-122.28C320,-143.32 320,-175 320,-175 320,-175 1558.99,-175 1558.99,-175"/>
<polygon fill="black" stroke="black" points="1558.99,-178.5 1568.99,-175 1558.99,-171.5 1558.99,-178.5"/>
</g>
</g>
</svg>
