<?xml version="1.0" encoding="UTF-8" standalone="no"?>
<!DOCTYPE svg PUBLIC "-//W3C//DTD SVG 1.1//EN"
 "http://www.w3.org/Graphics/SVG/1.1/DTD/svg11.dtd">
<!-- Generated by graphviz version 2.47.0 (20210316.0004)
 -->
<!-- Title: dependencies Pages: 1 -->
<svg width="3693pt" height="284pt"
 viewBox="0.00 0.00 3693.00 284.00" xmlns="http://www.w3.org/2000/svg" xmlns:xlink="http://www.w3.org/1999/xlink">
<g id="graph0" class="graph" transform="scale(1 1) rotate(0) translate(4 280)">
<title>dependencies</title>
<polygon fill="white" stroke="transparent" points="-4,4 -4,-280 3689,-280 3689,4 -4,4"/>
<text text-anchor="start" x="1821.51" y="-42.4" font-family="Times-12" font-weight="bold" font-size="14.00">Legend</text>
<polygon fill="#ffffb3" stroke="transparent" points="1608.5,-10 1608.5,-30 1628.5,-30 1628.5,-10 1608.5,-10"/>
<text text-anchor="start" x="1632.13" y="-15.4" font-family="Times-12" font-size="14.00"> &#160;Declarations</text>
<polygon fill="#8dd3c7" stroke="transparent" points="1721.5,-10 1721.5,-30 1741.5,-30 1741.5,-10 1721.5,-10"/>
<text text-anchor="start" x="1745.23" y="-15.4" font-family="Times-12" font-size="14.00"> &#160;Module</text>
<polygon fill="#80b1d3" stroke="transparent" points="1807.5,-10 1807.5,-30 1827.5,-30 1827.5,-10 1807.5,-10"/>
<text text-anchor="start" x="1831.28" y="-15.4" font-family="Times-12" font-size="14.00"> &#160;Bootstrap</text>
<polygon fill="#fdb462" stroke="transparent" points="1904.5,-10 1904.5,-30 1924.5,-30 1924.5,-10 1904.5,-10"/>
<text text-anchor="start" x="1928.17" y="-15.4" font-family="Times-12" font-size="14.00"> &#160;Providers</text>
<polygon fill="#fb8072" stroke="transparent" points="2000.5,-10 2000.5,-30 2020.5,-30 2020.5,-10 2000.5,-10"/>
<text text-anchor="start" x="2024.23" y="-15.4" font-family="Times-12" font-size="14.00"> &#160;Exports</text>
<g id="clust1" class="cluster">
<title>cluster_AuthorizationModule</title>
<polygon fill="none" stroke="black" stroke-dasharray="1,5" points="8,-70 8,-268 3677,-268 3677,-70 8,-70"/>
</g>
<g id="clust4" class="cluster">
<title>cluster_AuthorizationModule_exports</title>
<polygon fill="none" stroke="black" points="1489,-208 1489,-260 1955,-260 1955,-208 1489,-208"/>
</g>
<g id="clust3" class="cluster">
<title>cluster_AuthorizationModule_imports</title>
<polygon fill="none" stroke="black" points="3429,-78 3429,-130 3669,-130 3669,-78 3429,-78"/>
</g>
<g id="clust6" class="cluster">
<title>cluster_AuthorizationModule_providers</title>
<polygon fill="none" stroke="black" points="16,-78 16,-130 3421,-130 3421,-78 16,-78"/>
</g>
<!-- FeathersModule -->
<g id="node1" class="node">
<title>FeathersModule</title>
<polygon fill="#8dd3c7" stroke="black" points="3661.47,-122 3658.47,-126 3637.47,-126 3634.47,-122 3554.53,-122 3554.53,-86 3661.47,-86 3661.47,-122"/>
<text text-anchor="middle" x="3608" y="-99.8" font-family="Times,serif" font-size="14.00">FeathersModule</text>
</g>
<!-- AuthorizationModule -->
<g id="node3" class="node">
<title>AuthorizationModule</title>
<polygon fill="#8dd3c7" stroke="black" points="1764.81,-187 1761.81,-191 1740.81,-191 1737.81,-187 1627.19,-187 1627.19,-151 1764.81,-151 1764.81,-187"/>
<text text-anchor="middle" x="1696" y="-164.8" font-family="Times,serif" font-size="14.00">AuthorizationModule</text>
</g>
<!-- FeathersModule&#45;&gt;AuthorizationModule -->
<g id="edge1" class="edge">
<title>FeathersModule&#45;&gt;AuthorizationModule</title>
<path fill="none" stroke="black" d="M3608,-122.25C3608,-145.02 3608,-181 3608,-181 3608,-181 1774.9,-181 1774.9,-181"/>
<polygon fill="black" stroke="black" points="1774.9,-177.5 1764.9,-181 1774.9,-184.5 1774.9,-177.5"/>
</g>
<!-- LoggerModule -->
<g id="node2" class="node">
<title>LoggerModule</title>
<polygon fill="#8dd3c7" stroke="black" points="3536.98,-122 3533.98,-126 3512.98,-126 3509.98,-122 3437.02,-122 3437.02,-86 3536.98,-86 3536.98,-122"/>
<text text-anchor="middle" x="3487" y="-99.8" font-family="Times,serif" font-size="14.00">LoggerModule</text>
</g>
<!-- LoggerModule&#45;&gt;AuthorizationModule -->
<g id="edge2" class="edge">
<title>LoggerModule&#45;&gt;AuthorizationModule</title>
<path fill="none" stroke="black" d="M3487,-122.29C3487,-144.21 3487,-178 3487,-178 3487,-178 1774.84,-178 1774.84,-178"/>
<polygon fill="black" stroke="black" points="1774.84,-174.5 1764.84,-178 1774.84,-181.5 1774.84,-174.5"/>
</g>
<!-- AuthorizationService  -->
<g id="node4" class="node">
<title>AuthorizationService </title>
<polygon fill="#fb8072" stroke="black" points="1946.74,-252 1807.26,-252 1807.26,-216 1946.74,-216 1946.74,-252"/>
<text text-anchor="middle" x="1877" y="-229.8" font-family="Times,serif" font-size="14.00">AuthorizationService </text>
</g>
<!-- AuthorizationModule&#45;&gt;AuthorizationService  -->
<g id="edge3" class="edge">
<title>AuthorizationModule&#45;&gt;AuthorizationService </title>
<path fill="none" stroke="black" stroke-dasharray="5,2" d="M1764.65,-184C1792.25,-184 1817.66,-184 1817.66,-184 1817.66,-184 1817.66,-205.95 1817.66,-205.95"/>
<polygon fill="black" stroke="black" points="1814.16,-205.95 1817.66,-215.95 1821.16,-205.95 1814.16,-205.95"/>
</g>
<!-- FeathersAuthorizationService  -->
<g id="node5" class="node">
<title>FeathersAuthorizationService </title>
<polygon fill="#fb8072" stroke="black" points="1789.16,-252 1602.84,-252 1602.84,-216 1789.16,-216 1789.16,-252"/>
<text text-anchor="middle" x="1696" y="-229.8" font-family="Times,serif" font-size="14.00">FeathersAuthorizationService </text>
</g>
<!-- AuthorizationModule&#45;&gt;FeathersAuthorizationService  -->
<g id="edge4" class="edge">
<title>AuthorizationModule&#45;&gt;FeathersAuthorizationService </title>
<path fill="none" stroke="black" stroke-dasharray="5,2" d="M1696,-187.11C1696,-187.11 1696,-205.99 1696,-205.99"/>
<polygon fill="black" stroke="black" points="1692.5,-205.99 1696,-215.99 1699.5,-205.99 1692.5,-205.99"/>
</g>
<!-- SystemRule  -->
<g id="node6" class="node">
<title>SystemRule </title>
<polygon fill="#fb8072" stroke="black" points="1584.66,-252 1497.34,-252 1497.34,-216 1584.66,-216 1584.66,-252"/>
<text text-anchor="middle" x="1541" y="-229.8" font-family="Times,serif" font-size="14.00">SystemRule </text>
</g>
<!-- AuthorizationModule&#45;&gt;SystemRule  -->
<g id="edge5" class="edge">
<title>AuthorizationModule&#45;&gt;SystemRule </title>
<path fill="none" stroke="black" stroke-dasharray="5,2" d="M1627.12,-184C1593.01,-184 1559.03,-184 1559.03,-184 1559.03,-184 1559.03,-205.95 1559.03,-205.95"/>
<polygon fill="black" stroke="black" points="1555.53,-205.95 1559.03,-215.95 1562.53,-205.95 1555.53,-205.95"/>
</g>
<!-- AuthorizationHelper -->
<g id="node7" class="node">
<title>AuthorizationHelper</title>
<ellipse fill="#fdb462" stroke="black" cx="3322" cy="-104" rx="90.89" ry="18"/>
<text text-anchor="middle" x="3322" y="-99.8" font-family="Times,serif" font-size="14.00">AuthorizationHelper</text>
</g>
<!-- AuthorizationHelper&#45;&gt;AuthorizationModule -->
<g id="edge6" class="edge">
<title>AuthorizationHelper&#45;&gt;AuthorizationModule</title>
<path fill="none" stroke="black" d="M3322,-122.28C3322,-143.32 3322,-175 3322,-175 3322,-175 1774.83,-175 1774.83,-175"/>
<polygon fill="black" stroke="black" points="1774.83,-171.5 1764.83,-175 1774.83,-178.5 1774.83,-171.5"/>
</g>
<!-- AuthorizationService -->
<g id="node8" class="node">
<title>AuthorizationService</title>
<ellipse fill="#fdb462" stroke="black" cx="3119" cy="-104" rx="93.76" ry="18"/>
<text text-anchor="middle" x="3119" y="-99.8" font-family="Times,serif" font-size="14.00">AuthorizationService</text>
</g>
<!-- AuthorizationService&#45;&gt;AuthorizationModule -->
<g id="edge7" class="edge">
<title>AuthorizationService&#45;&gt;AuthorizationModule</title>
<path fill="none" stroke="black" d="M3119,-122.22C3119,-142.37 3119,-172 3119,-172 3119,-172 1775.12,-172 1775.12,-172"/>
<polygon fill="black" stroke="black" points="1775.12,-168.5 1765.12,-172 1775.12,-175.5 1775.12,-168.5"/>
</g>
<!-- BoardDoRule -->
<g id="node9" class="node">
<title>BoardDoRule</title>
<ellipse fill="#fdb462" stroke="black" cx="2943" cy="-104" rx="64.85" ry="18"/>
<text text-anchor="middle" x="2943" y="-99.8" font-family="Times,serif" font-size="14.00">BoardDoRule</text>
</g>
<!-- BoardDoRule&#45;&gt;AuthorizationModule -->
<g id="edge8" class="edge">
<title>BoardDoRule&#45;&gt;AuthorizationModule</title>
<path fill="none" stroke="black" d="M2943,-122.11C2943,-141.34 2943,-169 2943,-169 2943,-169 1774.82,-169 1774.82,-169"/>
<polygon fill="black" stroke="black" points="1774.82,-165.5 1764.82,-169 1774.82,-172.5 1774.82,-165.5"/>
</g>
<!-- ContextExternalToolRule -->
<g id="node10" class="node">
<title>ContextExternalToolRule</title>
<ellipse fill="#fdb462" stroke="black" cx="2750" cy="-104" rx="110.61" ry="18"/>
<text text-anchor="middle" x="2750" y="-99.8" font-family="Times,serif" font-size="14.00">ContextExternalToolRule</text>
</g>
<!-- ContextExternalToolRule&#45;&gt;AuthorizationModule -->
<g id="edge9" class="edge">
<title>ContextExternalToolRule&#45;&gt;AuthorizationModule</title>
<path fill="none" stroke="black" d="M2750,-122.27C2750,-140.56 2750,-166 2750,-166 2750,-166 1774.75,-166 1774.75,-166"/>
<polygon fill="black" stroke="black" points="1774.75,-162.5 1764.75,-166 1774.75,-169.5 1774.75,-162.5"/>
</g>
<!-- CourseGroupRule -->
<g id="node11" class="node">
<title>CourseGroupRule</title>
<ellipse fill="#fdb462" stroke="black" cx="2540" cy="-104" rx="81.1" ry="18"/>
<text text-anchor="middle" x="2540" y="-99.8" font-family="Times,serif" font-size="14.00">CourseGroupRule</text>
</g>
<!-- CourseGroupRule&#45;&gt;AuthorizationModule -->
<g id="edge10" class="edge">
<title>CourseGroupRule&#45;&gt;AuthorizationModule</title>
<path fill="none" stroke="black" d="M2540,-122.02C2540,-139.37 2540,-163 2540,-163 2540,-163 1774.71,-163 1774.71,-163"/>
<polygon fill="black" stroke="black" points="1774.71,-159.5 1764.71,-163 1774.71,-166.5 1774.71,-159.5"/>
</g>
<!-- CourseRule -->
<g id="node12" class="node">
<title>CourseRule</title>
<ellipse fill="#fdb462" stroke="black" cx="2384" cy="-104" rx="56.76" ry="18"/>
<text text-anchor="middle" x="2384" y="-99.8" font-family="Times,serif" font-size="14.00">CourseRule</text>
</g>
<!-- CourseRule&#45;&gt;AuthorizationModule -->
<g id="edge11" class="edge">
<title>CourseRule&#45;&gt;AuthorizationModule</title>
<path fill="none" stroke="black" d="M2384,-122.03C2384,-138.4 2384,-160 2384,-160 2384,-160 1774.8,-160 1774.8,-160"/>
<polygon fill="black" stroke="black" points="1774.8,-156.5 1764.8,-160 1774.8,-163.5 1774.8,-156.5"/>
</g>
<!-- FeathersAuthProvider -->
<g id="node13" class="node">
<title>FeathersAuthProvider</title>
<ellipse fill="#fdb462" stroke="black" cx="2213" cy="-104" rx="96.13" ry="18"/>
<text text-anchor="middle" x="2213" y="-99.8" font-family="Times,serif" font-size="14.00">FeathersAuthProvider</text>
</g>
<!-- FeathersAuthProvider&#45;&gt;AuthorizationModule -->
<g id="edge12" class="edge">
<title>FeathersAuthProvider&#45;&gt;AuthorizationModule</title>
<path fill="none" stroke="black" d="M2213,-122.24C2213,-137.57 2213,-157 2213,-157 2213,-157 1774.92,-157 1774.92,-157"/>
<polygon fill="black" stroke="black" points="1774.92,-153.5 1764.92,-157 1774.92,-160.5 1774.92,-153.5"/>
</g>
<!-- FeathersAuthorizationService -->
<g id="node14" class="node">
<title>FeathersAuthorizationService</title>
<ellipse fill="#fdb462" stroke="black" cx="1972" cy="-104" rx="126.18" ry="18"/>
<text text-anchor="middle" x="1972" y="-99.8" font-family="Times,serif" font-size="14.00">FeathersAuthorizationService</text>
</g>
<!-- FeathersAuthorizationService&#45;&gt;AuthorizationModule -->
<g id="edge13" class="edge">
<title>FeathersAuthorizationService&#45;&gt;AuthorizationModule</title>
<path fill="none" stroke="black" d="M1896.14,-118.46C1896.14,-133.23 1896.14,-154 1896.14,-154 1896.14,-154 1774.88,-154 1774.88,-154"/>
<polygon fill="black" stroke="black" points="1774.88,-150.5 1764.88,-154 1774.88,-157.5 1774.88,-150.5"/>
</g>
<!-- GroupRule -->
<g id="node15" class="node">
<title>GroupRule</title>
<ellipse fill="#fdb462" stroke="black" cx="1774" cy="-104" rx="53.89" ry="18"/>
<text text-anchor="middle" x="1774" y="-99.8" font-family="Times,serif" font-size="14.00">GroupRule</text>
</g>
<!-- GroupRule&#45;&gt;AuthorizationModule -->
<g id="edge14" class="edge">
<title>GroupRule&#45;&gt;AuthorizationModule</title>
<path fill="none" stroke="black" d="M1742.35,-118.75C1742.35,-118.75 1742.35,-140.59 1742.35,-140.59"/>
<polygon fill="black" stroke="black" points="1738.85,-140.59 1742.35,-150.59 1745.85,-140.59 1738.85,-140.59"/>
</g>
<!-- LegacySchoolRule -->
<g id="node16" class="node">
<title>LegacySchoolRule</title>
<ellipse fill="#fdb462" stroke="black" cx="1618" cy="-104" rx="84.53" ry="18"/>
<text text-anchor="middle" x="1618" y="-99.8" font-family="Times,serif" font-size="14.00">LegacySchoolRule</text>
</g>
<!-- LegacySchoolRule&#45;&gt;AuthorizationModule -->
<g id="edge15" class="edge">
<title>LegacySchoolRule&#45;&gt;AuthorizationModule</title>
<path fill="none" stroke="black" d="M1664.93,-119.08C1664.93,-119.08 1664.93,-140.76 1664.93,-140.76"/>
<polygon fill="black" stroke="black" points="1661.43,-140.76 1664.93,-150.76 1668.43,-140.76 1661.43,-140.76"/>
</g>
<!-- LessonRule -->
<g id="node17" class="node">
<title>LessonRule</title>
<ellipse fill="#fdb462" stroke="black" cx="1459" cy="-104" rx="56.76" ry="18"/>
<text text-anchor="middle" x="1459" y="-99.8" font-family="Times,serif" font-size="14.00">LessonRule</text>
</g>
<!-- LessonRule&#45;&gt;AuthorizationModule -->
<g id="edge16" class="edge">
<title>LessonRule&#45;&gt;AuthorizationModule</title>
<path fill="none" stroke="black" d="M1506.52,-114.12C1506.52,-128.73 1506.52,-154 1506.52,-154 1506.52,-154 1617.33,-154 1617.33,-154"/>
<polygon fill="black" stroke="black" points="1617.33,-157.5 1627.33,-154 1617.33,-150.5 1617.33,-157.5"/>
</g>
<!-- RuleManager -->
<g id="node18" class="node">
<title>RuleManager</title>
<ellipse fill="#fdb462" stroke="black" cx="1321" cy="-104" rx="63.68" ry="18"/>
<text text-anchor="middle" x="1321" y="-99.8" font-family="Times,serif" font-size="14.00">RuleManager</text>
</g>
<!-- RuleManager&#45;&gt;AuthorizationModule -->
<g id="edge17" class="edge">
<title>RuleManager&#45;&gt;AuthorizationModule</title>
<path fill="none" stroke="black" d="M1321,-122.24C1321,-137.57 1321,-157 1321,-157 1321,-157 1617.22,-157 1617.22,-157"/>
<polygon fill="black" stroke="black" points="1617.22,-160.5 1627.22,-157 1617.22,-153.5 1617.22,-160.5"/>
</g>
<!-- SchoolExternalToolRule -->
<g id="node19" class="node">
<title>SchoolExternalToolRule</title>
<ellipse fill="#fdb462" stroke="black" cx="1132" cy="-104" rx="107.1" ry="18"/>
<text text-anchor="middle" x="1132" y="-99.8" font-family="Times,serif" font-size="14.00">SchoolExternalToolRule</text>
</g>
<!-- SchoolExternalToolRule&#45;&gt;AuthorizationModule -->
<g id="edge18" class="edge">
<title>SchoolExternalToolRule&#45;&gt;AuthorizationModule</title>
<path fill="none" stroke="black" d="M1132,-122.03C1132,-138.4 1132,-160 1132,-160 1132,-160 1617.12,-160 1617.12,-160"/>
<polygon fill="black" stroke="black" points="1617.12,-163.5 1627.12,-160 1617.12,-156.5 1617.12,-163.5"/>
</g>
<!-- SubmissionRule -->
<g id="node20" class="node">
<title>SubmissionRule</title>
<ellipse fill="#fdb462" stroke="black" cx="933" cy="-104" rx="74.2" ry="18"/>
<text text-anchor="middle" x="933" y="-99.8" font-family="Times,serif" font-size="14.00">SubmissionRule</text>
</g>
<!-- SubmissionRule&#45;&gt;AuthorizationModule -->
<g id="edge19" class="edge">
<title>SubmissionRule&#45;&gt;AuthorizationModule</title>
<path fill="none" stroke="black" d="M933,-122.02C933,-139.37 933,-163 933,-163 933,-163 1617.28,-163 1617.28,-163"/>
<polygon fill="black" stroke="black" points="1617.28,-166.5 1627.28,-163 1617.28,-159.5 1617.28,-166.5"/>
</g>
<!-- SystemRule -->
<g id="node21" class="node">
<title>SystemRule</title>
<ellipse fill="#fdb462" stroke="black" cx="783" cy="-104" rx="57.92" ry="18"/>
<text text-anchor="middle" x="783" y="-99.8" font-family="Times,serif" font-size="14.00">SystemRule</text>
</g>
<!-- SystemRule&#45;&gt;AuthorizationModule -->
<g id="edge20" class="edge">
<title>SystemRule&#45;&gt;AuthorizationModule</title>
<path fill="none" stroke="black" d="M783,-122.27C783,-140.56 783,-166 783,-166 783,-166 1617,-166 1617,-166"/>
<polygon fill="black" stroke="black" points="1617,-169.5 1627,-166 1617,-162.5 1617,-169.5"/>
</g>
<!-- TaskRule -->
<g id="node22" class="node">
<title>TaskRule</title>
<ellipse fill="#fdb462" stroke="black" cx="659" cy="-104" rx="48.09" ry="18"/>
<text text-anchor="middle" x="659" y="-99.8" font-family="Times,serif" font-size="14.00">TaskRule</text>
</g>
<!-- TaskRule&#45;&gt;AuthorizationModule -->
<g id="edge21" class="edge">
<title>TaskRule&#45;&gt;AuthorizationModule</title>
<path fill="none" stroke="black" d="M659,-122.11C659,-141.34 659,-169 659,-169 659,-169 1617.16,-169 1617.16,-169"/>
<polygon fill="black" stroke="black" points="1617.16,-172.5 1627.16,-169 1617.16,-165.5 1617.16,-172.5"/>
</g>
<!-- TeamRule -->
<g id="node23" class="node">
<title>TeamRule</title>
<ellipse fill="#fdb462" stroke="black" cx="542" cy="-104" rx="51.02" ry="18"/>
<text text-anchor="middle" x="542" y="-99.8" font-family="Times,serif" font-size="14.00">TeamRule</text>
</g>
<!-- TeamRule&#45;&gt;AuthorizationModule -->
<g id="edge22" class="edge">
<title>TeamRule&#45;&gt;AuthorizationModule</title>
<path fill="none" stroke="black" d="M542,-122.22C542,-142.37 542,-172 542,-172 542,-172 1617.27,-172 1617.27,-172"/>
<polygon fill="black" stroke="black" points="1617.27,-175.5 1627.27,-172 1617.27,-168.5 1617.27,-175.5"/>
</g>
<!-- UserLoginMigrationRule -->
<g id="node24" class="node">
<title>UserLoginMigrationRule</title>
<ellipse fill="#fdb462" stroke="black" cx="364" cy="-104" rx="109.39" ry="18"/>
<text text-anchor="middle" x="364" y="-99.8" font-family="Times,serif" font-size="14.00">UserLoginMigrationRule</text>
</g>
<!-- UserLoginMigrationRule&#45;&gt;AuthorizationModule -->
<g id="edge23" class="edge">
<title>UserLoginMigrationRule&#45;&gt;AuthorizationModule</title>
<path fill="none" stroke="black" d="M364,-122.28C364,-143.32 364,-175 364,-175 364,-175 1617.19,-175 1617.19,-175"/>
<polygon fill="black" stroke="black" points="1617.19,-178.5 1627.19,-175 1617.19,-171.5 1617.19,-178.5"/>
</g>
<!-- UserRepo -->
<g id="node25" class="node">
<title>UserRepo</title>
<ellipse fill="#fdb462" stroke="black" cx="187" cy="-104" rx="49.8" ry="18"/>
<text text-anchor="middle" x="187" y="-99.8" font-family="Times,serif" font-size="14.00">UserRepo</text>
</g>
<!-- UserRepo&#45;&gt;AuthorizationModule -->
<g id="edge24" class="edge">
<title>UserRepo&#45;&gt;AuthorizationModule</title>
<path fill="none" stroke="black" d="M187,-122.29C187,-144.21 187,-178 187,-178 187,-178 1617.24,-178 1617.24,-178"/>
<polygon fill="black" stroke="black" points="1617.24,-181.5 1627.24,-178 1617.24,-174.5 1617.24,-181.5"/>
</g>
<!-- UserRule -->
<g id="node26" class="node">
<title>UserRule</title>
<ellipse fill="#fdb462" stroke="black" cx="72" cy="-104" rx="47.51" ry="18"/>
<text text-anchor="middle" x="72" y="-99.8" font-family="Times,serif" font-size="14.00">UserRule</text>
</g>
<!-- UserRule&#45;&gt;AuthorizationModule -->
<g id="edge25" class="edge">
<title>UserRule&#45;&gt;AuthorizationModule</title>
<path fill="none" stroke="black" d="M72,-122.25C72,-145.02 72,-181 72,-181 72,-181 1617.26,-181 1617.26,-181"/>
<polygon fill="black" stroke="black" points="1617.26,-184.5 1627.26,-181 1617.26,-177.5 1617.26,-184.5"/>
</g>
</g>
</svg>
