<?xml version="1.0" encoding="UTF-8" standalone="no"?>
<!DOCTYPE svg PUBLIC "-//W3C//DTD SVG 1.1//EN"
 "http://www.w3.org/Graphics/SVG/1.1/DTD/svg11.dtd">
<!-- Generated by graphviz version 2.47.0 (20210316.0004)
 -->
<!-- Title: dependencies Pages: 1 -->
<svg width="4914pt" height="284pt"
 viewBox="0.00 0.00 4914.00 284.00" xmlns="http://www.w3.org/2000/svg" xmlns:xlink="http://www.w3.org/1999/xlink">
<g id="graph0" class="graph" transform="scale(1 1) rotate(0) translate(4 280)">
<title>dependencies</title>
<polygon fill="white" stroke="transparent" points="-4,4 -4,-280 4910,-280 4910,4 -4,4"/>
<text text-anchor="start" x="2432.01" y="-42.4" font-family="Times-12" font-weight="bold" font-size="14.00">Legend</text>
<polygon fill="#ffffb3" stroke="transparent" points="2219,-10 2219,-30 2239,-30 2239,-10 2219,-10"/>
<text text-anchor="start" x="2242.63" y="-15.4" font-family="Times-12" font-size="14.00"> &#160;Declarations</text>
<polygon fill="#8dd3c7" stroke="transparent" points="2332,-10 2332,-30 2352,-30 2352,-10 2332,-10"/>
<text text-anchor="start" x="2355.73" y="-15.4" font-family="Times-12" font-size="14.00"> &#160;Module</text>
<polygon fill="#80b1d3" stroke="transparent" points="2418,-10 2418,-30 2438,-30 2438,-10 2418,-10"/>
<text text-anchor="start" x="2441.78" y="-15.4" font-family="Times-12" font-size="14.00"> &#160;Bootstrap</text>
<polygon fill="#fdb462" stroke="transparent" points="2515,-10 2515,-30 2535,-30 2535,-10 2515,-10"/>
<text text-anchor="start" x="2538.67" y="-15.4" font-family="Times-12" font-size="14.00"> &#160;Providers</text>
<polygon fill="#fb8072" stroke="transparent" points="2611,-10 2611,-30 2631,-30 2631,-10 2611,-10"/>
<text text-anchor="start" x="2634.73" y="-15.4" font-family="Times-12" font-size="14.00"> &#160;Exports</text>
<g id="clust1" class="cluster">
<title>cluster_AuthorizationModule</title>
<polygon fill="none" stroke="black" stroke-dasharray="1,5" points="8,-70 8,-268 4898,-268 4898,-70 8,-70"/>
</g>
<g id="clust4" class="cluster">
<title>cluster_AuthorizationModule_exports</title>
<polygon fill="none" stroke="black" points="2154,-208 2154,-260 2514,-260 2514,-208 2154,-208"/>
</g>
<g id="clust3" class="cluster">
<title>cluster_AuthorizationModule_imports</title>
<polygon fill="none" stroke="black" points="4534,-78 4534,-130 4890,-130 4890,-78 4534,-78"/>
</g>
<g id="clust6" class="cluster">
<title>cluster_AuthorizationModule_providers</title>
<polygon fill="none" stroke="black" points="16,-78 16,-130 4526,-130 4526,-78 16,-78"/>
</g>
<!-- FeathersModule -->
<g id="node1" class="node">
<title>FeathersModule</title>
<polygon fill="#8dd3c7" stroke="black" points="4882.47,-122 4879.47,-126 4858.47,-126 4855.47,-122 4775.53,-122 4775.53,-86 4882.47,-86 4882.47,-122"/>
<text text-anchor="middle" x="4829" y="-99.8" font-family="Times,serif" font-size="14.00">FeathersModule</text>
</g>
<!-- AuthorizationModule -->
<g id="node4" class="node">
<title>AuthorizationModule</title>
<polygon fill="#8dd3c7" stroke="black" points="2413.81,-187 2410.81,-191 2389.81,-191 2386.81,-187 2276.19,-187 2276.19,-151 2413.81,-151 2413.81,-187"/>
<text text-anchor="middle" x="2345" y="-164.8" font-family="Times,serif" font-size="14.00">AuthorizationModule</text>
</g>
<!-- FeathersModule&#45;&gt;AuthorizationModule -->
<g id="edge1" class="edge">
<title>FeathersModule&#45;&gt;AuthorizationModule</title>
<path fill="none" stroke="black" d="M4829,-122.38C4829,-146.28 4829,-185 4829,-185 4829,-185 2423.7,-185 2423.7,-185"/>
<polygon fill="black" stroke="black" points="2423.7,-181.5 2413.7,-185 2423.7,-188.5 2423.7,-181.5"/>
</g>
<!-- LoggerModule -->
<g id="node2" class="node">
<title>LoggerModule</title>
<polygon fill="#8dd3c7" stroke="black" points="4757.98,-122 4754.98,-126 4733.98,-126 4730.98,-122 4658.02,-122 4658.02,-86 4757.98,-86 4757.98,-122"/>
<text text-anchor="middle" x="4708" y="-99.8" font-family="Times,serif" font-size="14.00">LoggerModule</text>
</g>
<!-- LoggerModule&#45;&gt;AuthorizationModule -->
<g id="edge2" class="edge">
<title>LoggerModule&#45;&gt;AuthorizationModule</title>
<path fill="none" stroke="black" d="M4708,-122.32C4708,-145.66 4708,-183 4708,-183 4708,-183 2423.8,-183 2423.8,-183"/>
<polygon fill="black" stroke="black" points="2423.8,-179.5 2413.8,-183 2423.8,-186.5 2423.8,-179.5"/>
</g>
<!-- SchoolModule -->
<g id="node3" class="node">
<title>SchoolModule</title>
<polygon fill="#8dd3c7" stroke="black" points="4640.44,-122 4637.44,-126 4616.44,-126 4613.44,-122 4541.56,-122 4541.56,-86 4640.44,-86 4640.44,-122"/>
<text text-anchor="middle" x="4591" y="-99.8" font-family="Times,serif" font-size="14.00">SchoolModule</text>
</g>
<!-- SchoolModule&#45;&gt;AuthorizationModule -->
<g id="edge3" class="edge">
<title>SchoolModule&#45;&gt;AuthorizationModule</title>
<path fill="none" stroke="black" d="M4591,-122.01C4591,-144.49 4591,-180 4591,-180 4591,-180 2423.75,-180 2423.75,-180"/>
<polygon fill="black" stroke="black" points="2423.75,-176.5 2413.75,-180 2423.75,-183.5 2423.75,-176.5"/>
</g>
<!-- AuthorizationService  -->
<g id="node5" class="node">
<title>AuthorizationService </title>
<polygon fill="#fb8072" stroke="black" points="2505.74,-252 2366.26,-252 2366.26,-216 2505.74,-216 2505.74,-252"/>
<text text-anchor="middle" x="2436" y="-229.8" font-family="Times,serif" font-size="14.00">AuthorizationService </text>
</g>
<!-- AuthorizationModule&#45;&gt;AuthorizationService  -->
<g id="edge4" class="edge">
<title>AuthorizationModule&#45;&gt;AuthorizationService </title>
<path fill="none" stroke="black" stroke-dasharray="5,2" d="M2390.02,-187.11C2390.02,-187.11 2390.02,-205.99 2390.02,-205.99"/>
<polygon fill="black" stroke="black" points="2386.52,-205.99 2390.02,-215.99 2393.52,-205.99 2386.52,-205.99"/>
</g>
<!-- FeathersAuthorizationService  -->
<g id="node6" class="node">
<title>FeathersAuthorizationService </title>
<polygon fill="#fb8072" stroke="black" points="2348.16,-252 2161.84,-252 2161.84,-216 2348.16,-216 2348.16,-252"/>
<text text-anchor="middle" x="2255" y="-229.8" font-family="Times,serif" font-size="14.00">FeathersAuthorizationService </text>
</g>
<!-- AuthorizationModule&#45;&gt;FeathersAuthorizationService  -->
<g id="edge5" class="edge">
<title>AuthorizationModule&#45;&gt;FeathersAuthorizationService </title>
<path fill="none" stroke="black" stroke-dasharray="5,2" d="M2312.34,-187.11C2312.34,-187.11 2312.34,-205.99 2312.34,-205.99"/>
<polygon fill="black" stroke="black" points="2308.84,-205.99 2312.34,-215.99 2315.84,-205.99 2308.84,-205.99"/>
</g>
<!-- AuthorizationHelper -->
<g id="node7" class="node">
<title>AuthorizationHelper</title>
<ellipse fill="#fdb462" stroke="black" cx="4427" cy="-104" rx="90.89" ry="18"/>
<text text-anchor="middle" x="4427" y="-99.8" font-family="Times,serif" font-size="14.00">AuthorizationHelper</text>
</g>
<!-- AuthorizationHelper&#45;&gt;AuthorizationModule -->
<g id="edge6" class="edge">
<title>AuthorizationHelper&#45;&gt;AuthorizationModule</title>
<path fill="none" stroke="black" d="M4427,-122.29C4427,-144.21 4427,-178 4427,-178 4427,-178 2423.68,-178 2423.68,-178"/>
<polygon fill="black" stroke="black" points="2423.68,-174.5 2413.68,-178 2423.68,-181.5 2423.68,-174.5"/>
</g>
<!-- AuthorizationService -->
<g id="node8" class="node">
<title>AuthorizationService</title>
<ellipse fill="#fdb462" stroke="black" cx="4224" cy="-104" rx="93.76" ry="18"/>
<text text-anchor="middle" x="4224" y="-99.8" font-family="Times,serif" font-size="14.00">AuthorizationService</text>
</g>
<!-- AuthorizationService&#45;&gt;AuthorizationModule -->
<g id="edge7" class="edge">
<title>AuthorizationService&#45;&gt;AuthorizationModule</title>
<path fill="none" stroke="black" d="M4224,-122.28C4224,-143.32 4224,-175 4224,-175 4224,-175 2423.82,-175 2423.82,-175"/>
<polygon fill="black" stroke="black" points="2423.82,-171.5 2413.82,-175 2423.82,-178.5 2423.82,-171.5"/>
</g>
<!-- BoardDoRule -->
<g id="node9" class="node">
<title>BoardDoRule</title>
<ellipse fill="#fdb462" stroke="black" cx="4048" cy="-104" rx="64.85" ry="18"/>
<text text-anchor="middle" x="4048" y="-99.8" font-family="Times,serif" font-size="14.00">BoardDoRule</text>
</g>
<!-- BoardDoRule&#45;&gt;AuthorizationModule -->
<g id="edge8" class="edge">
<title>BoardDoRule&#45;&gt;AuthorizationModule</title>
<path fill="none" stroke="black" d="M4048,-122.13C4048,-142.57 4048,-173 4048,-173 4048,-173 2423.87,-173 2423.87,-173"/>
<polygon fill="black" stroke="black" points="2423.87,-169.5 2413.87,-173 2423.87,-176.5 2423.87,-169.5"/>
</g>
<!-- ContextExternalToolRule -->
<g id="node10" class="node">
<title>ContextExternalToolRule</title>
<ellipse fill="#fdb462" stroke="black" cx="3855" cy="-104" rx="110.61" ry="18"/>
<text text-anchor="middle" x="3855" y="-99.8" font-family="Times,serif" font-size="14.00">ContextExternalToolRule</text>
</g>
<!-- ContextExternalToolRule&#45;&gt;AuthorizationModule -->
<g id="edge9" class="edge">
<title>ContextExternalToolRule&#45;&gt;AuthorizationModule</title>
<path fill="none" stroke="black" d="M3855,-122.31C3855,-142.15 3855,-171 3855,-171 3855,-171 2423.81,-171 2423.81,-171"/>
<polygon fill="black" stroke="black" points="2423.81,-167.5 2413.81,-171 2423.81,-174.5 2423.81,-167.5"/>
</g>
<!-- CourseGroupRepo -->
<g id="node11" class="node">
<title>CourseGroupRepo</title>
<ellipse fill="#fdb462" stroke="black" cx="3643" cy="-104" rx="83.39" ry="18"/>
<text text-anchor="middle" x="3643" y="-99.8" font-family="Times,serif" font-size="14.00">CourseGroupRepo</text>
</g>
<!-- CourseGroupRepo&#45;&gt;AuthorizationModule -->
<g id="edge10" class="edge">
<title>CourseGroupRepo&#45;&gt;AuthorizationModule</title>
<path fill="none" stroke="black" d="M3643,-122.17C3643,-141.09 3643,-168 3643,-168 3643,-168 2423.87,-168 2423.87,-168"/>
<polygon fill="black" stroke="black" points="2423.87,-164.5 2413.87,-168 2423.87,-171.5 2423.87,-164.5"/>
</g>
<!-- CourseGroupRule -->
<g id="node12" class="node">
<title>CourseGroupRule</title>
<ellipse fill="#fdb462" stroke="black" cx="3460" cy="-104" rx="81.1" ry="18"/>
<text text-anchor="middle" x="3460" y="-99.8" font-family="Times,serif" font-size="14.00">CourseGroupRule</text>
</g>
<!-- CourseGroupRule&#45;&gt;AuthorizationModule -->
<g id="edge11" class="edge">
<title>CourseGroupRule&#45;&gt;AuthorizationModule</title>
<path fill="none" stroke="black" d="M3460,-122.27C3460,-140.56 3460,-166 3460,-166 3460,-166 2423.91,-166 2423.91,-166"/>
<polygon fill="black" stroke="black" points="2423.91,-162.5 2413.91,-166 2423.91,-169.5 2423.91,-162.5"/>
</g>
<!-- CourseRepo -->
<g id="node13" class="node">
<title>CourseRepo</title>
<ellipse fill="#fdb462" stroke="black" cx="3302" cy="-104" rx="58.55" ry="18"/>
<text text-anchor="middle" x="3302" y="-99.8" font-family="Times,serif" font-size="14.00">CourseRepo</text>
</g>
<!-- CourseRepo&#45;&gt;AuthorizationModule -->
<g id="edge12" class="edge">
<title>CourseRepo&#45;&gt;AuthorizationModule</title>
<path fill="none" stroke="black" d="M3302,-122.02C3302,-139.37 3302,-163 3302,-163 3302,-163 2423.83,-163 2423.83,-163"/>
<polygon fill="black" stroke="black" points="2423.83,-159.5 2413.83,-163 2423.83,-166.5 2423.83,-159.5"/>
</g>
<!-- CourseRule -->
<g id="node14" class="node">
<title>CourseRule</title>
<ellipse fill="#fdb462" stroke="black" cx="3169" cy="-104" rx="56.76" ry="18"/>
<text text-anchor="middle" x="3169" y="-99.8" font-family="Times,serif" font-size="14.00">CourseRule</text>
</g>
<!-- CourseRule&#45;&gt;AuthorizationModule -->
<g id="edge13" class="edge">
<title>CourseRule&#45;&gt;AuthorizationModule</title>
<path fill="none" stroke="black" d="M3169,-122.04C3169,-138.73 3169,-161 3169,-161 3169,-161 2423.84,-161 2423.84,-161"/>
<polygon fill="black" stroke="black" points="2423.84,-157.5 2413.84,-161 2423.84,-164.5 2423.84,-157.5"/>
</g>
<!-- FeathersAuthProvider -->
<g id="node15" class="node">
<title>FeathersAuthProvider</title>
<ellipse fill="#fdb462" stroke="black" cx="2998" cy="-104" rx="96.13" ry="18"/>
<text text-anchor="middle" x="2998" y="-99.8" font-family="Times,serif" font-size="14.00">FeathersAuthProvider</text>
</g>
<!-- FeathersAuthProvider&#45;&gt;AuthorizationModule -->
<g id="edge14" class="edge">
<title>FeathersAuthProvider&#45;&gt;AuthorizationModule</title>
<path fill="none" stroke="black" d="M2998,-122.01C2998,-138.05 2998,-159 2998,-159 2998,-159 2423.96,-159 2423.96,-159"/>
<polygon fill="black" stroke="black" points="2423.96,-155.5 2413.96,-159 2423.96,-162.5 2423.96,-155.5"/>
</g>
<!-- FeathersAuthorizationService -->
<g id="node16" class="node">
<title>FeathersAuthorizationService</title>
<ellipse fill="#fdb462" stroke="black" cx="2757" cy="-104" rx="126.18" ry="18"/>
<text text-anchor="middle" x="2757" y="-99.8" font-family="Times,serif" font-size="14.00">FeathersAuthorizationService</text>
</g>
<!-- FeathersAuthorizationService&#45;&gt;AuthorizationModule -->
<g id="edge15" class="edge">
<title>FeathersAuthorizationService&#45;&gt;AuthorizationModule</title>
<path fill="none" stroke="black" d="M2757,-122.19C2757,-137.18 2757,-156 2757,-156 2757,-156 2423.96,-156 2423.96,-156"/>
<polygon fill="black" stroke="black" points="2423.96,-152.5 2413.96,-156 2423.96,-159.5 2423.96,-152.5"/>
</g>
<!-- LessonRepo -->
<g id="node17" class="node">
<title>LessonRepo</title>
<ellipse fill="#fdb462" stroke="black" cx="2554" cy="-104" rx="58.55" ry="18"/>
<text text-anchor="middle" x="2554" y="-99.8" font-family="Times,serif" font-size="14.00">LessonRepo</text>
</g>
<!-- LessonRepo&#45;&gt;AuthorizationModule -->
<g id="edge16" class="edge">
<title>LessonRepo&#45;&gt;AuthorizationModule</title>
<path fill="none" stroke="black" d="M2500.42,-111.81C2500.42,-125.88 2500.42,-154 2500.42,-154 2500.42,-154 2424.08,-154 2424.08,-154"/>
<polygon fill="black" stroke="black" points="2424.08,-150.5 2414.08,-154 2424.08,-157.5 2424.08,-150.5"/>
</g>
<!-- LessonRule -->
<g id="node18" class="node">
<title>LessonRule</title>
<ellipse fill="#fdb462" stroke="black" cx="2421" cy="-104" rx="56.76" ry="18"/>
<text text-anchor="middle" x="2421" y="-99.8" font-family="Times,serif" font-size="14.00">LessonRule</text>
</g>
<!-- LessonRule&#45;&gt;AuthorizationModule -->
<g id="edge17" class="edge">
<title>LessonRule&#45;&gt;AuthorizationModule</title>
<path fill="none" stroke="black" d="M2389.01,-119.08C2389.01,-119.08 2389.01,-140.76 2389.01,-140.76"/>
<polygon fill="black" stroke="black" points="2385.51,-140.76 2389.01,-150.76 2392.51,-140.76 2385.51,-140.76"/>
</g>
<!-- ReferenceLoader -->
<g id="node19" class="node">
<title>ReferenceLoader</title>
<ellipse fill="#fdb462" stroke="black" cx="2269" cy="-104" rx="77.53" ry="18"/>
<text text-anchor="middle" x="2269" y="-99.8" font-family="Times,serif" font-size="14.00">ReferenceLoader</text>
</g>
<!-- ReferenceLoader&#45;&gt;AuthorizationModule -->
<g id="edge18" class="edge">
<title>ReferenceLoader&#45;&gt;AuthorizationModule</title>
<path fill="none" stroke="black" d="M2311.43,-119.08C2311.43,-119.08 2311.43,-140.76 2311.43,-140.76"/>
<polygon fill="black" stroke="black" points="2307.93,-140.76 2311.43,-150.76 2314.93,-140.76 2307.93,-140.76"/>
</g>
<!-- RuleManager -->
<g id="node20" class="node">
<title>RuleManager</title>
<ellipse fill="#fdb462" stroke="black" cx="2110" cy="-104" rx="63.68" ry="18"/>
<text text-anchor="middle" x="2110" y="-99.8" font-family="Times,serif" font-size="14.00">RuleManager</text>
</g>
<!-- RuleManager&#45;&gt;AuthorizationModule -->
<g id="edge19" class="edge">
<title>RuleManager&#45;&gt;AuthorizationModule</title>
<path fill="none" stroke="black" d="M2167.63,-111.81C2167.63,-125.88 2167.63,-154 2167.63,-154 2167.63,-154 2266.17,-154 2266.17,-154"/>
<polygon fill="black" stroke="black" points="2266.17,-157.5 2276.17,-154 2266.17,-150.5 2266.17,-157.5"/>
</g>
<!-- SchoolExternalToolRepo -->
<g id="node21" class="node">
<title>SchoolExternalToolRepo</title>
<ellipse fill="#fdb462" stroke="black" cx="1919" cy="-104" rx="109.39" ry="18"/>
<text text-anchor="middle" x="1919" y="-99.8" font-family="Times,serif" font-size="14.00">SchoolExternalToolRepo</text>
</g>
<!-- SchoolExternalToolRepo&#45;&gt;AuthorizationModule -->
<g id="edge20" class="edge">
<title>SchoolExternalToolRepo&#45;&gt;AuthorizationModule</title>
<path fill="none" stroke="black" d="M1919,-122.19C1919,-137.18 1919,-156 1919,-156 1919,-156 2266.08,-156 2266.08,-156"/>
<polygon fill="black" stroke="black" points="2266.08,-159.5 2276.08,-156 2266.08,-152.5 2266.08,-159.5"/>
</g>
<!-- SchoolExternalToolRule -->
<g id="node22" class="node">
<title>SchoolExternalToolRule</title>
<ellipse fill="#fdb462" stroke="black" cx="1685" cy="-104" rx="107.1" ry="18"/>
<text text-anchor="middle" x="1685" y="-99.8" font-family="Times,serif" font-size="14.00">SchoolExternalToolRule</text>
</g>
<!-- SchoolExternalToolRule&#45;&gt;AuthorizationModule -->
<g id="edge21" class="edge">
<title>SchoolExternalToolRule&#45;&gt;AuthorizationModule</title>
<path fill="none" stroke="black" d="M1685,-122.01C1685,-138.05 1685,-159 1685,-159 1685,-159 2266.24,-159 2266.24,-159"/>
<polygon fill="black" stroke="black" points="2266.24,-162.5 2276.24,-159 2266.24,-155.5 2266.24,-162.5"/>
</g>
<!-- SchoolRepo -->
<g id="node23" class="node">
<title>SchoolRepo</title>
<ellipse fill="#fdb462" stroke="black" cx="1502" cy="-104" rx="58.49" ry="18"/>
<text text-anchor="middle" x="1502" y="-99.8" font-family="Times,serif" font-size="14.00">SchoolRepo</text>
</g>
<!-- SchoolRepo&#45;&gt;AuthorizationModule -->
<g id="edge22" class="edge">
<title>SchoolRepo&#45;&gt;AuthorizationModule</title>
<path fill="none" stroke="black" d="M1502,-122.04C1502,-138.73 1502,-161 1502,-161 1502,-161 2266.01,-161 2266.01,-161"/>
<polygon fill="black" stroke="black" points="2266.01,-164.5 2276.01,-161 2266.01,-157.5 2266.01,-164.5"/>
</g>
<!-- SchoolRule -->
<g id="node24" class="node">
<title>SchoolRule</title>
<ellipse fill="#fdb462" stroke="black" cx="1370" cy="-104" rx="56.2" ry="18"/>
<text text-anchor="middle" x="1370" y="-99.8" font-family="Times,serif" font-size="14.00">SchoolRule</text>
</g>
<!-- SchoolRule&#45;&gt;AuthorizationModule -->
<g id="edge23" class="edge">
<title>SchoolRule&#45;&gt;AuthorizationModule</title>
<path fill="none" stroke="black" d="M1370,-122.02C1370,-139.37 1370,-163 1370,-163 1370,-163 2266.05,-163 2266.05,-163"/>
<polygon fill="black" stroke="black" points="2266.05,-166.5 2276.05,-163 2266.05,-159.5 2266.05,-166.5"/>
</g>
<!-- SubmissionRepo -->
<g id="node25" class="node">
<title>SubmissionRepo</title>
<ellipse fill="#fdb462" stroke="black" cx="1219" cy="-104" rx="76.49" ry="18"/>
<text text-anchor="middle" x="1219" y="-99.8" font-family="Times,serif" font-size="14.00">SubmissionRepo</text>
</g>
<!-- SubmissionRepo&#45;&gt;AuthorizationModule -->
<g id="edge24" class="edge">
<title>SubmissionRepo&#45;&gt;AuthorizationModule</title>
<path fill="none" stroke="black" d="M1219,-122.27C1219,-140.56 1219,-166 1219,-166 1219,-166 2266.26,-166 2266.26,-166"/>
<polygon fill="black" stroke="black" points="2266.26,-169.5 2276.26,-166 2266.26,-162.5 2266.26,-169.5"/>
</g>
<!-- SubmissionRule -->
<g id="node26" class="node">
<title>SubmissionRule</title>
<ellipse fill="#fdb462" stroke="black" cx="1050" cy="-104" rx="74.2" ry="18"/>
<text text-anchor="middle" x="1050" y="-99.8" font-family="Times,serif" font-size="14.00">SubmissionRule</text>
</g>
<!-- SubmissionRule&#45;&gt;AuthorizationModule -->
<g id="edge25" class="edge">
<title>SubmissionRule&#45;&gt;AuthorizationModule</title>
<path fill="none" stroke="black" d="M1050,-122.17C1050,-141.09 1050,-168 1050,-168 1050,-168 2266.29,-168 2266.29,-168"/>
<polygon fill="black" stroke="black" points="2266.29,-171.5 2276.29,-168 2266.29,-164.5 2266.29,-171.5"/>
</g>
<!-- TaskRepo -->
<g id="node27" class="node">
<title>TaskRepo</title>
<ellipse fill="#fdb462" stroke="black" cx="907" cy="-104" rx="50.38" ry="18"/>
<text text-anchor="middle" x="907" y="-99.8" font-family="Times,serif" font-size="14.00">TaskRepo</text>
</g>
<!-- TaskRepo&#45;&gt;AuthorizationModule -->
<g id="edge26" class="edge">
<title>TaskRepo&#45;&gt;AuthorizationModule</title>
<path fill="none" stroke="black" d="M907,-122.31C907,-142.15 907,-171 907,-171 907,-171 2266.13,-171 2266.13,-171"/>
<polygon fill="black" stroke="black" points="2266.13,-174.5 2276.13,-171 2266.13,-167.5 2266.13,-174.5"/>
</g>
<!-- TaskRule -->
<g id="node28" class="node">
<title>TaskRule</title>
<ellipse fill="#fdb462" stroke="black" cx="791" cy="-104" rx="48.09" ry="18"/>
<text text-anchor="middle" x="791" y="-99.8" font-family="Times,serif" font-size="14.00">TaskRule</text>
</g>
<!-- TaskRule&#45;&gt;AuthorizationModule -->
<g id="edge27" class="edge">
<title>TaskRule&#45;&gt;AuthorizationModule</title>
<path fill="none" stroke="black" d="M791,-122.13C791,-142.57 791,-173 791,-173 791,-173 2266.22,-173 2266.22,-173"/>
<polygon fill="black" stroke="black" points="2266.22,-176.5 2276.22,-173 2266.22,-169.5 2266.22,-176.5"/>
</g>
<!-- TeamRule -->
<g id="node29" class="node">
<title>TeamRule</title>
<ellipse fill="#fdb462" stroke="black" cx="674" cy="-104" rx="51.02" ry="18"/>
<text text-anchor="middle" x="674" y="-99.8" font-family="Times,serif" font-size="14.00">TeamRule</text>
</g>
<!-- TeamRule&#45;&gt;AuthorizationModule -->
<g id="edge28" class="edge">
<title>TeamRule&#45;&gt;AuthorizationModule</title>
<path fill="none" stroke="black" d="M674,-122.28C674,-143.32 674,-175 674,-175 674,-175 2266.12,-175 2266.12,-175"/>
<polygon fill="black" stroke="black" points="2266.12,-178.5 2276.12,-175 2266.12,-171.5 2266.12,-178.5"/>
</g>
<!-- TeamsRepo -->
<g id="node30" class="node">
<title>TeamsRepo</title>
<ellipse fill="#fdb462" stroke="black" cx="548" cy="-104" rx="57.32" ry="18"/>
<text text-anchor="middle" x="548" y="-99.8" font-family="Times,serif" font-size="14.00">TeamsRepo</text>
</g>
<!-- TeamsRepo&#45;&gt;AuthorizationModule -->
<g id="edge29" class="edge">
<title>TeamsRepo&#45;&gt;AuthorizationModule</title>
<path fill="none" stroke="black" d="M548,-122.29C548,-144.21 548,-178 548,-178 548,-178 2266.2,-178 2266.2,-178"/>
<polygon fill="black" stroke="black" points="2266.2,-181.5 2276.2,-178 2266.2,-174.5 2266.2,-181.5"/>
</g>
<!-- UserLoginMigrationRule -->
<g id="node31" class="node">
<title>UserLoginMigrationRule</title>
<ellipse fill="#fdb462" stroke="black" cx="364" cy="-104" rx="109.39" ry="18"/>
<text text-anchor="middle" x="364" y="-99.8" font-family="Times,serif" font-size="14.00">UserLoginMigrationRule</text>
</g>
<!-- UserLoginMigrationRule&#45;&gt;AuthorizationModule -->
<g id="edge30" class="edge">
<title>UserLoginMigrationRule&#45;&gt;AuthorizationModule</title>
<path fill="none" stroke="black" d="M364,-122.01C364,-144.49 364,-180 364,-180 364,-180 2266.23,-180 2266.23,-180"/>
<polygon fill="black" stroke="black" points="2266.23,-183.5 2276.23,-180 2266.23,-176.5 2266.23,-183.5"/>
</g>
<!-- UserRepo -->
<g id="node32" class="node">
<title>UserRepo</title>
<ellipse fill="#fdb462" stroke="black" cx="187" cy="-104" rx="49.8" ry="18"/>
<text text-anchor="middle" x="187" y="-99.8" font-family="Times,serif" font-size="14.00">UserRepo</text>
</g>
<!-- UserRepo&#45;&gt;AuthorizationModule -->
<g id="edge31" class="edge">
<title>UserRepo&#45;&gt;AuthorizationModule</title>
<path fill="none" stroke="black" d="M187,-122.32C187,-145.66 187,-183 187,-183 187,-183 2266.25,-183 2266.25,-183"/>
<polygon fill="black" stroke="black" points="2266.25,-186.5 2276.25,-183 2266.25,-179.5 2266.25,-186.5"/>
</g>
<!-- UserRule -->
<g id="node33" class="node">
<title>UserRule</title>
<ellipse fill="#fdb462" stroke="black" cx="72" cy="-104" rx="47.51" ry="18"/>
<text text-anchor="middle" x="72" y="-99.8" font-family="Times,serif" font-size="14.00">UserRule</text>
</g>
<!-- UserRule&#45;&gt;AuthorizationModule -->
<g id="edge32" class="edge">
<title>UserRule&#45;&gt;AuthorizationModule</title>
<path fill="none" stroke="black" d="M72,-122.38C72,-146.28 72,-185 72,-185 72,-185 2266.04,-185 2266.04,-185"/>
<polygon fill="black" stroke="black" points="2266.04,-188.5 2276.04,-185 2266.04,-181.5 2266.04,-188.5"/>
</g>
</g>
</svg>
