<?xml version="1.0" encoding="UTF-8" standalone="no"?>
<!DOCTYPE svg PUBLIC "-//W3C//DTD SVG 1.1//EN"
 "http://www.w3.org/Graphics/SVG/1.1/DTD/svg11.dtd">
<!-- Generated by graphviz version 2.47.0 (20210316.0004)
 -->
<!-- Title: dependencies Pages: 1 -->
<svg width="4806pt" height="284pt"
 viewBox="0.00 0.00 4806.00 284.00" xmlns="http://www.w3.org/2000/svg" xmlns:xlink="http://www.w3.org/1999/xlink">
<g id="graph0" class="graph" transform="scale(1 1) rotate(0) translate(4 280)">
<title>dependencies</title>
<polygon fill="white" stroke="transparent" points="-4,4 -4,-280 4802,-280 4802,4 -4,4"/>
<text text-anchor="start" x="2378.01" y="-42.4" font-family="Times-12" font-weight="bold" font-size="14.00">Legend</text>
<polygon fill="#ffffb3" stroke="transparent" points="2165,-10 2165,-30 2185,-30 2185,-10 2165,-10"/>
<text text-anchor="start" x="2188.63" y="-15.4" font-family="Times-12" font-size="14.00"> &#160;Declarations</text>
<polygon fill="#8dd3c7" stroke="transparent" points="2278,-10 2278,-30 2298,-30 2298,-10 2278,-10"/>
<text text-anchor="start" x="2301.73" y="-15.4" font-family="Times-12" font-size="14.00"> &#160;Module</text>
<polygon fill="#80b1d3" stroke="transparent" points="2364,-10 2364,-30 2384,-30 2384,-10 2364,-10"/>
<text text-anchor="start" x="2387.78" y="-15.4" font-family="Times-12" font-size="14.00"> &#160;Bootstrap</text>
<polygon fill="#fdb462" stroke="transparent" points="2461,-10 2461,-30 2481,-30 2481,-10 2461,-10"/>
<text text-anchor="start" x="2484.67" y="-15.4" font-family="Times-12" font-size="14.00"> &#160;Providers</text>
<polygon fill="#fb8072" stroke="transparent" points="2557,-10 2557,-30 2577,-30 2577,-10 2557,-10"/>
<text text-anchor="start" x="2580.73" y="-15.4" font-family="Times-12" font-size="14.00"> &#160;Exports</text>
<g id="clust1" class="cluster">
<title>cluster_AuthorizationModule</title>
<polygon fill="none" stroke="black" stroke-dasharray="1,5" points="8,-70 8,-268 4790,-268 4790,-70 8,-70"/>
</g>
<g id="clust4" class="cluster">
<title>cluster_AuthorizationModule_exports</title>
<polygon fill="none" stroke="black" points="2145,-208 2145,-260 2505,-260 2505,-208 2145,-208"/>
</g>
<g id="clust3" class="cluster">
<title>cluster_AuthorizationModule_imports</title>
<polygon fill="none" stroke="black" points="4210,-78 4210,-130 4782,-130 4782,-78 4210,-78"/>
</g>
<g id="clust6" class="cluster">
<title>cluster_AuthorizationModule_providers</title>
<polygon fill="none" stroke="black" points="16,-78 16,-130 4202,-130 4202,-78 16,-78"/>
</g>
<!-- BoardModule -->
<g id="node1" class="node">
<title>BoardModule</title>
<polygon fill="#8dd3c7" stroke="black" points="4773.76,-122 4770.76,-126 4749.76,-126 4746.76,-122 4680.24,-122 4680.24,-86 4773.76,-86 4773.76,-122"/>
<text text-anchor="middle" x="4727" y="-99.8" font-family="Times,serif" font-size="14.00">BoardModule</text>
</g>
<!-- AuthorizationModule -->
<g id="node6" class="node">
<title>AuthorizationModule</title>
<polygon fill="#8dd3c7" stroke="black" points="2404.81,-187 2401.81,-191 2380.81,-191 2377.81,-187 2267.19,-187 2267.19,-151 2404.81,-151 2404.81,-187"/>
<text text-anchor="middle" x="2336" y="-164.8" font-family="Times,serif" font-size="14.00">AuthorizationModule</text>
</g>
<!-- BoardModule&#45;&gt;AuthorizationModule -->
<g id="edge1" class="edge">
<title>BoardModule&#45;&gt;AuthorizationModule</title>
<path fill="none" stroke="black" d="M4727,-122.38C4727,-146.28 4727,-185 4727,-185 4727,-185 2414.66,-185 2414.66,-185"/>
<polygon fill="black" stroke="black" points="2414.66,-181.5 2404.66,-185 2414.66,-188.5 2414.66,-181.5"/>
</g>
<!-- FeathersModule -->
<g id="node2" class="node">
<title>FeathersModule</title>
<polygon fill="#8dd3c7" stroke="black" points="4662.47,-122 4659.47,-126 4638.47,-126 4635.47,-122 4555.53,-122 4555.53,-86 4662.47,-86 4662.47,-122"/>
<text text-anchor="middle" x="4609" y="-99.8" font-family="Times,serif" font-size="14.00">FeathersModule</text>
</g>
<!-- FeathersModule&#45;&gt;AuthorizationModule -->
<g id="edge2" class="edge">
<title>FeathersModule&#45;&gt;AuthorizationModule</title>
<path fill="none" stroke="black" d="M4609,-122.32C4609,-145.66 4609,-183 4609,-183 4609,-183 2414.96,-183 2414.96,-183"/>
<polygon fill="black" stroke="black" points="2414.96,-179.5 2404.96,-183 2414.96,-186.5 2414.96,-179.5"/>
</g>
<!-- LoggerModule -->
<g id="node3" class="node">
<title>LoggerModule</title>
<polygon fill="#8dd3c7" stroke="black" points="4537.98,-122 4534.98,-126 4513.98,-126 4510.98,-122 4438.02,-122 4438.02,-86 4537.98,-86 4537.98,-122"/>
<text text-anchor="middle" x="4488" y="-99.8" font-family="Times,serif" font-size="14.00">LoggerModule</text>
</g>
<!-- LoggerModule&#45;&gt;AuthorizationModule -->
<g id="edge3" class="edge">
<title>LoggerModule&#45;&gt;AuthorizationModule</title>
<path fill="none" stroke="black" d="M4488,-122.01C4488,-144.49 4488,-180 4488,-180 4488,-180 2414.86,-180 2414.86,-180"/>
<polygon fill="black" stroke="black" points="2414.86,-176.5 2404.86,-180 2414.86,-183.5 2414.86,-176.5"/>
</g>
<!-- SchoolModule -->
<g id="node4" class="node">
<title>SchoolModule</title>
<polygon fill="#8dd3c7" stroke="black" points="4420.44,-122 4417.44,-126 4396.44,-126 4393.44,-122 4321.56,-122 4321.56,-86 4420.44,-86 4420.44,-122"/>
<text text-anchor="middle" x="4371" y="-99.8" font-family="Times,serif" font-size="14.00">SchoolModule</text>
</g>
<!-- SchoolModule&#45;&gt;AuthorizationModule -->
<g id="edge4" class="edge">
<title>SchoolModule&#45;&gt;AuthorizationModule</title>
<path fill="none" stroke="black" d="M4371,-122.29C4371,-144.21 4371,-178 4371,-178 4371,-178 2414.87,-178 2414.87,-178"/>
<polygon fill="black" stroke="black" points="2414.87,-174.5 2404.87,-178 2414.87,-181.5 2414.87,-174.5"/>
</g>
<!-- ToolModule -->
<g id="node5" class="node">
<title>ToolModule</title>
<polygon fill="#8dd3c7" stroke="black" points="4303.99,-122 4300.99,-126 4279.99,-126 4276.99,-122 4218.01,-122 4218.01,-86 4303.99,-86 4303.99,-122"/>
<text text-anchor="middle" x="4261" y="-99.8" font-family="Times,serif" font-size="14.00">ToolModule</text>
</g>
<!-- ToolModule&#45;&gt;AuthorizationModule -->
<g id="edge5" class="edge">
<title>ToolModule&#45;&gt;AuthorizationModule</title>
<path fill="none" stroke="black" d="M4261,-122.28C4261,-143.32 4261,-175 4261,-175 4261,-175 2414.8,-175 2414.8,-175"/>
<polygon fill="black" stroke="black" points="2414.8,-171.5 2404.8,-175 2414.8,-178.5 2414.8,-171.5"/>
</g>
<!-- AuthorizationService  -->
<g id="node7" class="node">
<title>AuthorizationService </title>
<polygon fill="#fb8072" stroke="black" points="2496.74,-252 2357.26,-252 2357.26,-216 2496.74,-216 2496.74,-252"/>
<text text-anchor="middle" x="2427" y="-229.8" font-family="Times,serif" font-size="14.00">AuthorizationService </text>
</g>
<!-- AuthorizationModule&#45;&gt;AuthorizationService  -->
<g id="edge6" class="edge">
<title>AuthorizationModule&#45;&gt;AuthorizationService </title>
<path fill="none" stroke="black" stroke-dasharray="5,2" d="M2381.02,-187.11C2381.02,-187.11 2381.02,-205.99 2381.02,-205.99"/>
<polygon fill="black" stroke="black" points="2377.52,-205.99 2381.02,-215.99 2384.52,-205.99 2377.52,-205.99"/>
</g>
<!-- FeathersAuthorizationService  -->
<g id="node8" class="node">
<title>FeathersAuthorizationService </title>
<polygon fill="#fb8072" stroke="black" points="2339.16,-252 2152.84,-252 2152.84,-216 2339.16,-216 2339.16,-252"/>
<text text-anchor="middle" x="2246" y="-229.8" font-family="Times,serif" font-size="14.00">FeathersAuthorizationService </text>
</g>
<!-- AuthorizationModule&#45;&gt;FeathersAuthorizationService  -->
<g id="edge7" class="edge">
<title>AuthorizationModule&#45;&gt;FeathersAuthorizationService </title>
<path fill="none" stroke="black" stroke-dasharray="5,2" d="M2303.34,-187.11C2303.34,-187.11 2303.34,-205.99 2303.34,-205.99"/>
<polygon fill="black" stroke="black" points="2299.84,-205.99 2303.34,-215.99 2306.84,-205.99 2299.84,-205.99"/>
</g>
<!-- AuthorizationHelper -->
<g id="node9" class="node">
<title>AuthorizationHelper</title>
<ellipse fill="#fdb462" stroke="black" cx="4103" cy="-104" rx="90.89" ry="18"/>
<text text-anchor="middle" x="4103" y="-99.8" font-family="Times,serif" font-size="14.00">AuthorizationHelper</text>
</g>
<!-- AuthorizationHelper&#45;&gt;AuthorizationModule -->
<g id="edge8" class="edge">
<title>AuthorizationHelper&#45;&gt;AuthorizationModule</title>
<path fill="none" stroke="black" d="M4103,-122.13C4103,-142.57 4103,-173 4103,-173 4103,-173 2414.73,-173 2414.73,-173"/>
<polygon fill="black" stroke="black" points="2414.73,-169.5 2404.73,-173 2414.73,-176.5 2414.73,-169.5"/>
</g>
<!-- AuthorizationService -->
<g id="node10" class="node">
<title>AuthorizationService</title>
<ellipse fill="#fdb462" stroke="black" cx="3900" cy="-104" rx="93.76" ry="18"/>
<text text-anchor="middle" x="3900" y="-99.8" font-family="Times,serif" font-size="14.00">AuthorizationService</text>
</g>
<!-- AuthorizationService&#45;&gt;AuthorizationModule -->
<g id="edge9" class="edge">
<title>AuthorizationService&#45;&gt;AuthorizationModule</title>
<path fill="none" stroke="black" d="M3900,-122.31C3900,-142.15 3900,-171 3900,-171 3900,-171 2414.71,-171 2414.71,-171"/>
<polygon fill="black" stroke="black" points="2414.71,-167.5 2404.71,-171 2414.71,-174.5 2414.71,-167.5"/>
</g>
<!-- BoardDoRule -->
<g id="node11" class="node">
<title>BoardDoRule</title>
<ellipse fill="#fdb462" stroke="black" cx="3724" cy="-104" rx="64.85" ry="18"/>
<text text-anchor="middle" x="3724" y="-99.8" font-family="Times,serif" font-size="14.00">BoardDoRule</text>
</g>
<!-- BoardDoRule&#45;&gt;AuthorizationModule -->
<g id="edge10" class="edge">
<title>BoardDoRule&#45;&gt;AuthorizationModule</title>
<path fill="none" stroke="black" d="M3724,-122.17C3724,-141.09 3724,-168 3724,-168 3724,-168 2414.83,-168 2414.83,-168"/>
<polygon fill="black" stroke="black" points="2414.83,-164.5 2404.83,-168 2414.83,-171.5 2414.83,-164.5"/>
</g>
<!-- CourseGroupRepo -->
<g id="node12" class="node">
<title>CourseGroupRepo</title>
<ellipse fill="#fdb462" stroke="black" cx="3558" cy="-104" rx="83.39" ry="18"/>
<text text-anchor="middle" x="3558" y="-99.8" font-family="Times,serif" font-size="14.00">CourseGroupRepo</text>
</g>
<!-- CourseGroupRepo&#45;&gt;AuthorizationModule -->
<g id="edge11" class="edge">
<title>CourseGroupRepo&#45;&gt;AuthorizationModule</title>
<path fill="none" stroke="black" d="M3558,-122.27C3558,-140.56 3558,-166 3558,-166 3558,-166 2414.76,-166 2414.76,-166"/>
<polygon fill="black" stroke="black" points="2414.76,-162.5 2404.76,-166 2414.76,-169.5 2414.76,-162.5"/>
</g>
<!-- CourseGroupRule -->
<g id="node13" class="node">
<title>CourseGroupRule</title>
<ellipse fill="#fdb462" stroke="black" cx="3375" cy="-104" rx="81.1" ry="18"/>
<text text-anchor="middle" x="3375" y="-99.8" font-family="Times,serif" font-size="14.00">CourseGroupRule</text>
</g>
<!-- CourseGroupRule&#45;&gt;AuthorizationModule -->
<g id="edge12" class="edge">
<title>CourseGroupRule&#45;&gt;AuthorizationModule</title>
<path fill="none" stroke="black" d="M3375,-122.02C3375,-139.37 3375,-163 3375,-163 3375,-163 2414.98,-163 2414.98,-163"/>
<polygon fill="black" stroke="black" points="2414.98,-159.5 2404.98,-163 2414.98,-166.5 2414.98,-159.5"/>
</g>
<!-- CourseRepo -->
<g id="node14" class="node">
<title>CourseRepo</title>
<ellipse fill="#fdb462" stroke="black" cx="3217" cy="-104" rx="58.55" ry="18"/>
<text text-anchor="middle" x="3217" y="-99.8" font-family="Times,serif" font-size="14.00">CourseRepo</text>
</g>
<!-- CourseRepo&#45;&gt;AuthorizationModule -->
<g id="edge13" class="edge">
<title>CourseRepo&#45;&gt;AuthorizationModule</title>
<path fill="none" stroke="black" d="M3217,-122.04C3217,-138.73 3217,-161 3217,-161 3217,-161 2414.76,-161 2414.76,-161"/>
<polygon fill="black" stroke="black" points="2414.76,-157.5 2404.76,-161 2414.76,-164.5 2414.76,-157.5"/>
</g>
<!-- CourseRule -->
<g id="node15" class="node">
<title>CourseRule</title>
<ellipse fill="#fdb462" stroke="black" cx="3084" cy="-104" rx="56.76" ry="18"/>
<text text-anchor="middle" x="3084" y="-99.8" font-family="Times,serif" font-size="14.00">CourseRule</text>
</g>
<!-- CourseRule&#45;&gt;AuthorizationModule -->
<g id="edge14" class="edge">
<title>CourseRule&#45;&gt;AuthorizationModule</title>
<path fill="none" stroke="black" d="M3084,-122.01C3084,-138.05 3084,-159 3084,-159 3084,-159 2414.7,-159 2414.7,-159"/>
<polygon fill="black" stroke="black" points="2414.7,-155.5 2404.7,-159 2414.7,-162.5 2414.7,-155.5"/>
</g>
<!-- FeathersAuthProvider -->
<g id="node16" class="node">
<title>FeathersAuthProvider</title>
<ellipse fill="#fdb462" stroke="black" cx="2913" cy="-104" rx="96.13" ry="18"/>
<text text-anchor="middle" x="2913" y="-99.8" font-family="Times,serif" font-size="14.00">FeathersAuthProvider</text>
</g>
<!-- FeathersAuthProvider&#45;&gt;AuthorizationModule -->
<g id="edge15" class="edge">
<title>FeathersAuthProvider&#45;&gt;AuthorizationModule</title>
<path fill="none" stroke="black" d="M2913,-122.19C2913,-137.18 2913,-156 2913,-156 2913,-156 2414.74,-156 2414.74,-156"/>
<polygon fill="black" stroke="black" points="2414.74,-152.5 2404.74,-156 2414.74,-159.5 2414.74,-152.5"/>
</g>
<!-- FeathersAuthorizationService -->
<g id="node17" class="node">
<title>FeathersAuthorizationService</title>
<ellipse fill="#fdb462" stroke="black" cx="2672" cy="-104" rx="126.18" ry="18"/>
<text text-anchor="middle" x="2672" y="-99.8" font-family="Times,serif" font-size="14.00">FeathersAuthorizationService</text>
</g>
<!-- FeathersAuthorizationService&#45;&gt;AuthorizationModule -->
<g id="edge16" class="edge">
<title>FeathersAuthorizationService&#45;&gt;AuthorizationModule</title>
<path fill="none" stroke="black" d="M2672,-122.05C2672,-136.37 2672,-154 2672,-154 2672,-154 2414.81,-154 2414.81,-154"/>
<polygon fill="black" stroke="black" points="2414.81,-150.5 2404.81,-154 2414.81,-157.5 2414.81,-150.5"/>
</g>
<!-- LessonRepo -->
<g id="node18" class="node">
<title>LessonRepo</title>
<ellipse fill="#fdb462" stroke="black" cx="2469" cy="-104" rx="58.55" ry="18"/>
<text text-anchor="middle" x="2469" y="-99.8" font-family="Times,serif" font-size="14.00">LessonRepo</text>
</g>
<!-- LessonRepo&#45;&gt;AuthorizationModule -->
<g id="edge17" class="edge">
<title>LessonRepo&#45;&gt;AuthorizationModule</title>
<path fill="none" stroke="black" d="M2409.95,-104C2403.18,-104 2398.64,-104 2398.64,-104 2398.64,-104 2398.64,-140.89 2398.64,-140.89"/>
<polygon fill="black" stroke="black" points="2395.14,-140.89 2398.64,-150.89 2402.14,-140.89 2395.14,-140.89"/>
</g>
<!-- LessonRule -->
<g id="node19" class="node">
<title>LessonRule</title>
<ellipse fill="#fdb462" stroke="black" cx="2336" cy="-104" rx="56.76" ry="18"/>
<text text-anchor="middle" x="2336" y="-99.8" font-family="Times,serif" font-size="14.00">LessonRule</text>
</g>
<!-- LessonRule&#45;&gt;AuthorizationModule -->
<g id="edge18" class="edge">
<title>LessonRule&#45;&gt;AuthorizationModule</title>
<path fill="none" stroke="black" d="M2336,-122.11C2336,-122.11 2336,-140.99 2336,-140.99"/>
<polygon fill="black" stroke="black" points="2332.5,-140.99 2336,-150.99 2339.5,-140.99 2332.5,-140.99"/>
</g>
<!-- ReferenceLoader -->
<g id="node20" class="node">
<title>ReferenceLoader</title>
<ellipse fill="#fdb462" stroke="black" cx="2184" cy="-104" rx="77.53" ry="18"/>
<text text-anchor="middle" x="2184" y="-99.8" font-family="Times,serif" font-size="14.00">ReferenceLoader</text>
</g>
<!-- ReferenceLoader&#45;&gt;AuthorizationModule -->
<g id="edge19" class="edge">
<title>ReferenceLoader&#45;&gt;AuthorizationModule</title>
<path fill="none" stroke="black" d="M2261.68,-104C2268.77,-104 2273.36,-104 2273.36,-104 2273.36,-104 2273.36,-140.89 2273.36,-140.89"/>
<polygon fill="black" stroke="black" points="2269.86,-140.89 2273.36,-150.89 2276.86,-140.89 2269.86,-140.89"/>
</g>
<!-- RuleManager -->
<g id="node21" class="node">
<title>RuleManager</title>
<ellipse fill="#fdb462" stroke="black" cx="2025" cy="-104" rx="63.68" ry="18"/>
<text text-anchor="middle" x="2025" y="-99.8" font-family="Times,serif" font-size="14.00">RuleManager</text>
</g>
<!-- RuleManager&#45;&gt;AuthorizationModule -->
<g id="edge20" class="edge">
<title>RuleManager&#45;&gt;AuthorizationModule</title>
<path fill="none" stroke="black" d="M2025,-122.05C2025,-136.37 2025,-154 2025,-154 2025,-154 2256.98,-154 2256.98,-154"/>
<polygon fill="black" stroke="black" points="2256.98,-157.5 2266.98,-154 2256.98,-150.5 2256.98,-157.5"/>
</g>
<!-- SchoolExternalToolRepo -->
<g id="node22" class="node">
<title>SchoolExternalToolRepo</title>
<ellipse fill="#fdb462" stroke="black" cx="1834" cy="-104" rx="109.39" ry="18"/>
<text text-anchor="middle" x="1834" y="-99.8" font-family="Times,serif" font-size="14.00">SchoolExternalToolRepo</text>
</g>
<!-- SchoolExternalToolRepo&#45;&gt;AuthorizationModule -->
<g id="edge21" class="edge">
<title>SchoolExternalToolRepo&#45;&gt;AuthorizationModule</title>
<path fill="none" stroke="black" d="M1834,-122.19C1834,-137.18 1834,-156 1834,-156 1834,-156 2257.25,-156 2257.25,-156"/>
<polygon fill="black" stroke="black" points="2257.25,-159.5 2267.25,-156 2257.25,-152.5 2257.25,-159.5"/>
</g>
<!-- SchoolExternalToolRule -->
<g id="node23" class="node">
<title>SchoolExternalToolRule</title>
<ellipse fill="#fdb462" stroke="black" cx="1600" cy="-104" rx="107.1" ry="18"/>
<text text-anchor="middle" x="1600" y="-99.8" font-family="Times,serif" font-size="14.00">SchoolExternalToolRule</text>
</g>
<!-- SchoolExternalToolRule&#45;&gt;AuthorizationModule -->
<g id="edge22" class="edge">
<title>SchoolExternalToolRule&#45;&gt;AuthorizationModule</title>
<path fill="none" stroke="black" d="M1600,-122.01C1600,-138.05 1600,-159 1600,-159 1600,-159 2257.09,-159 2257.09,-159"/>
<polygon fill="black" stroke="black" points="2257.09,-162.5 2267.09,-159 2257.09,-155.5 2257.09,-162.5"/>
</g>
<!-- SchoolRepo -->
<g id="node24" class="node">
<title>SchoolRepo</title>
<ellipse fill="#fdb462" stroke="black" cx="1417" cy="-104" rx="58.49" ry="18"/>
<text text-anchor="middle" x="1417" y="-99.8" font-family="Times,serif" font-size="14.00">SchoolRepo</text>
</g>
<!-- SchoolRepo&#45;&gt;AuthorizationModule -->
<g id="edge23" class="edge">
<title>SchoolRepo&#45;&gt;AuthorizationModule</title>
<path fill="none" stroke="black" d="M1417,-122.04C1417,-138.73 1417,-161 1417,-161 1417,-161 2257.3,-161 2257.3,-161"/>
<polygon fill="black" stroke="black" points="2257.3,-164.5 2267.3,-161 2257.3,-157.5 2257.3,-164.5"/>
</g>
<!-- SchoolRule -->
<g id="node25" class="node">
<title>SchoolRule</title>
<ellipse fill="#fdb462" stroke="black" cx="1285" cy="-104" rx="56.2" ry="18"/>
<text text-anchor="middle" x="1285" y="-99.8" font-family="Times,serif" font-size="14.00">SchoolRule</text>
</g>
<!-- SchoolRule&#45;&gt;AuthorizationModule -->
<g id="edge24" class="edge">
<title>SchoolRule&#45;&gt;AuthorizationModule</title>
<path fill="none" stroke="black" d="M1285,-122.02C1285,-139.37 1285,-163 1285,-163 1285,-163 2257.04,-163 2257.04,-163"/>
<polygon fill="black" stroke="black" points="2257.04,-166.5 2267.04,-163 2257.04,-159.5 2257.04,-166.5"/>
</g>
<!-- SubmissionRepo -->
<g id="node26" class="node">
<title>SubmissionRepo</title>
<ellipse fill="#fdb462" stroke="black" cx="1134" cy="-104" rx="76.49" ry="18"/>
<text text-anchor="middle" x="1134" y="-99.8" font-family="Times,serif" font-size="14.00">SubmissionRepo</text>
</g>
<!-- SubmissionRepo&#45;&gt;AuthorizationModule -->
<g id="edge25" class="edge">
<title>SubmissionRepo&#45;&gt;AuthorizationModule</title>
<path fill="none" stroke="black" d="M1134,-122.27C1134,-140.56 1134,-166 1134,-166 1134,-166 2257.06,-166 2257.06,-166"/>
<polygon fill="black" stroke="black" points="2257.06,-169.5 2267.06,-166 2257.06,-162.5 2257.06,-169.5"/>
</g>
<!-- SubmissionRule -->
<g id="node27" class="node">
<title>SubmissionRule</title>
<ellipse fill="#fdb462" stroke="black" cx="965" cy="-104" rx="74.2" ry="18"/>
<text text-anchor="middle" x="965" y="-99.8" font-family="Times,serif" font-size="14.00">SubmissionRule</text>
</g>
<!-- SubmissionRule&#45;&gt;AuthorizationModule -->
<g id="edge26" class="edge">
<title>SubmissionRule&#45;&gt;AuthorizationModule</title>
<path fill="none" stroke="black" d="M965,-122.17C965,-141.09 965,-168 965,-168 965,-168 2257.07,-168 2257.07,-168"/>
<polygon fill="black" stroke="black" points="2257.07,-171.5 2267.07,-168 2257.07,-164.5 2257.07,-171.5"/>
</g>
<!-- TaskCardRule -->
<g id="node28" class="node">
<title>TaskCardRule</title>
<ellipse fill="#fdb462" stroke="black" cx="806" cy="-104" rx="66.63" ry="18"/>
<text text-anchor="middle" x="806" y="-99.8" font-family="Times,serif" font-size="14.00">TaskCardRule</text>
</g>
<!-- TaskCardRule&#45;&gt;AuthorizationModule -->
<g id="edge27" class="edge">
<title>TaskCardRule&#45;&gt;AuthorizationModule</title>
<path fill="none" stroke="black" d="M806,-122.31C806,-142.15 806,-171 806,-171 806,-171 2257.29,-171 2257.29,-171"/>
<polygon fill="black" stroke="black" points="2257.29,-174.5 2267.29,-171 2257.29,-167.5 2257.29,-174.5"/>
</g>
<!-- TaskRepo -->
<g id="node29" class="node">
<title>TaskRepo</title>
<ellipse fill="#fdb462" stroke="black" cx="671" cy="-104" rx="50.38" ry="18"/>
<text text-anchor="middle" x="671" y="-99.8" font-family="Times,serif" font-size="14.00">TaskRepo</text>
</g>
<!-- TaskRepo&#45;&gt;AuthorizationModule -->
<g id="edge28" class="edge">
<title>TaskRepo&#45;&gt;AuthorizationModule</title>
<path fill="none" stroke="black" d="M671,-122.13C671,-142.57 671,-173 671,-173 671,-173 2257.1,-173 2257.1,-173"/>
<polygon fill="black" stroke="black" points="2257.1,-176.5 2267.1,-173 2257.1,-169.5 2257.1,-176.5"/>
</g>
<!-- TaskRule -->
<g id="node30" class="node">
<title>TaskRule</title>
<ellipse fill="#fdb462" stroke="black" cx="555" cy="-104" rx="48.09" ry="18"/>
<text text-anchor="middle" x="555" y="-99.8" font-family="Times,serif" font-size="14.00">TaskRule</text>
</g>
<!-- TaskRule&#45;&gt;AuthorizationModule -->
<g id="edge29" class="edge">
<title>TaskRule&#45;&gt;AuthorizationModule</title>
<path fill="none" stroke="black" d="M555,-122.28C555,-143.32 555,-175 555,-175 555,-175 2257.27,-175 2257.27,-175"/>
<polygon fill="black" stroke="black" points="2257.27,-178.5 2267.27,-175 2257.27,-171.5 2257.27,-178.5"/>
</g>
<!-- TeamRule -->
<g id="node31" class="node">
<title>TeamRule</title>
<ellipse fill="#fdb462" stroke="black" cx="438" cy="-104" rx="51.02" ry="18"/>
<text text-anchor="middle" x="438" y="-99.8" font-family="Times,serif" font-size="14.00">TeamRule</text>
</g>
<!-- TeamRule&#45;&gt;AuthorizationModule -->
<g id="edge30" class="edge">
<title>TeamRule&#45;&gt;AuthorizationModule</title>
<path fill="none" stroke="black" d="M438,-122.29C438,-144.21 438,-178 438,-178 438,-178 2257.33,-178 2257.33,-178"/>
<polygon fill="black" stroke="black" points="2257.33,-181.5 2267.33,-178 2257.33,-174.5 2257.33,-181.5"/>
</g>
<!-- TeamsRepo -->
<g id="node32" class="node">
<title>TeamsRepo</title>
<ellipse fill="#fdb462" stroke="black" cx="312" cy="-104" rx="57.32" ry="18"/>
<text text-anchor="middle" x="312" y="-99.8" font-family="Times,serif" font-size="14.00">TeamsRepo</text>
</g>
<!-- TeamsRepo&#45;&gt;AuthorizationModule -->
<g id="edge31" class="edge">
<title>TeamsRepo&#45;&gt;AuthorizationModule</title>
<path fill="none" stroke="black" d="M312,-122.01C312,-144.49 312,-180 312,-180 312,-180 2257.21,-180 2257.21,-180"/>
<polygon fill="black" stroke="black" points="2257.21,-183.5 2267.21,-180 2257.21,-176.5 2257.21,-183.5"/>
</g>
<!-- UserRepo -->
<g id="node33" class="node">
<title>UserRepo</title>
<ellipse fill="#fdb462" stroke="black" cx="187" cy="-104" rx="49.8" ry="18"/>
<text text-anchor="middle" x="187" y="-99.8" font-family="Times,serif" font-size="14.00">UserRepo</text>
</g>
<!-- UserRepo&#45;&gt;AuthorizationModule -->
<g id="edge32" class="edge">
<title>UserRepo&#45;&gt;AuthorizationModule</title>
<path fill="none" stroke="black" d="M187,-122.32C187,-145.66 187,-183 187,-183 187,-183 2257.23,-183 2257.23,-183"/>
<polygon fill="black" stroke="black" points="2257.23,-186.5 2267.23,-183 2257.23,-179.5 2257.23,-186.5"/>
</g>
<!-- UserRule -->
<g id="node34" class="node">
<title>UserRule</title>
<ellipse fill="#fdb462" stroke="black" cx="72" cy="-104" rx="47.51" ry="18"/>
<text text-anchor="middle" x="72" y="-99.8" font-family="Times,serif" font-size="14.00">UserRule</text>
</g>
<!-- UserRule&#45;&gt;AuthorizationModule -->
<g id="edge33" class="edge">
<title>UserRule&#45;&gt;AuthorizationModule</title>
<path fill="none" stroke="black" d="M72,-122.38C72,-146.28 72,-185 72,-185 72,-185 2257.32,-185 2257.32,-185"/>
<polygon fill="black" stroke="black" points="2257.32,-188.5 2267.32,-185 2257.32,-181.5 2257.32,-188.5"/>
</g>
</g>
</svg>
