<?xml version="1.0" encoding="UTF-8" standalone="no"?>
<!DOCTYPE svg PUBLIC "-//W3C//DTD SVG 1.1//EN"
 "http://www.w3.org/Graphics/SVG/1.1/DTD/svg11.dtd">
<!-- Generated by graphviz version 2.47.0 (20210316.0004)
 -->
<!-- Title: dependencies Pages: 1 -->
<svg width="3941pt" height="284pt"
 viewBox="0.00 0.00 3941.00 284.00" xmlns="http://www.w3.org/2000/svg" xmlns:xlink="http://www.w3.org/1999/xlink">
<g id="graph0" class="graph" transform="scale(1 1) rotate(0) translate(4 280)">
<title>dependencies</title>
<polygon fill="white" stroke="transparent" points="-4,4 -4,-280 3937,-280 3937,4 -4,4"/>
<text text-anchor="start" x="1945.51" y="-42.4" font-family="Times-12" font-weight="bold" font-size="14.00">Legend</text>
<polygon fill="#ffffb3" stroke="transparent" points="1732.5,-10 1732.5,-30 1752.5,-30 1752.5,-10 1732.5,-10"/>
<text text-anchor="start" x="1756.13" y="-15.4" font-family="Times-12" font-size="14.00"> &#160;Declarations</text>
<polygon fill="#8dd3c7" stroke="transparent" points="1845.5,-10 1845.5,-30 1865.5,-30 1865.5,-10 1845.5,-10"/>
<text text-anchor="start" x="1869.23" y="-15.4" font-family="Times-12" font-size="14.00"> &#160;Module</text>
<polygon fill="#80b1d3" stroke="transparent" points="1931.5,-10 1931.5,-30 1951.5,-30 1951.5,-10 1931.5,-10"/>
<text text-anchor="start" x="1955.28" y="-15.4" font-family="Times-12" font-size="14.00"> &#160;Bootstrap</text>
<polygon fill="#fdb462" stroke="transparent" points="2028.5,-10 2028.5,-30 2048.5,-30 2048.5,-10 2028.5,-10"/>
<text text-anchor="start" x="2052.17" y="-15.4" font-family="Times-12" font-size="14.00"> &#160;Providers</text>
<polygon fill="#fb8072" stroke="transparent" points="2124.5,-10 2124.5,-30 2144.5,-30 2144.5,-10 2124.5,-10"/>
<text text-anchor="start" x="2148.23" y="-15.4" font-family="Times-12" font-size="14.00"> &#160;Exports</text>
<g id="clust1" class="cluster">
<title>cluster_AuthorizationModule</title>
<polygon fill="none" stroke="black" stroke-dasharray="1,5" points="8,-70 8,-268 3925,-268 3925,-70 8,-70"/>
</g>
<g id="clust6" class="cluster">
<title>cluster_AuthorizationModule_providers</title>
<polygon fill="none" stroke="black" points="264,-78 264,-130 3917,-130 3917,-78 264,-78"/>
</g>
<g id="clust4" class="cluster">
<title>cluster_AuthorizationModule_exports</title>
<polygon fill="none" stroke="black" points="1610,-208 1610,-260 2076,-260 2076,-208 1610,-208"/>
</g>
<g id="clust3" class="cluster">
<title>cluster_AuthorizationModule_imports</title>
<polygon fill="none" stroke="black" points="16,-78 16,-130 256,-130 256,-78 16,-78"/>
</g>
<!-- FeathersModule -->
<g id="node1" class="node">
<title>FeathersModule</title>
<polygon fill="#8dd3c7" stroke="black" points="248.47,-122 245.47,-126 224.47,-126 221.47,-122 141.53,-122 141.53,-86 248.47,-86 248.47,-122"/>
<text text-anchor="middle" x="195" y="-99.8" font-family="Times,serif" font-size="14.00">FeathersModule</text>
</g>
<!-- AuthorizationModule -->
<g id="node3" class="node">
<title>AuthorizationModule</title>
<polygon fill="#8dd3c7" stroke="black" points="1885.81,-187 1882.81,-191 1861.81,-191 1858.81,-187 1748.19,-187 1748.19,-151 1885.81,-151 1885.81,-187"/>
<text text-anchor="middle" x="1817" y="-164.8" font-family="Times,serif" font-size="14.00">AuthorizationModule</text>
</g>
<!-- FeathersModule&#45;&gt;AuthorizationModule -->
<g id="edge1" class="edge">
<title>FeathersModule&#45;&gt;AuthorizationModule</title>
<path fill="none" stroke="black" d="M195,-122.16C195,-144.35 195,-179 195,-179 195,-179 1738.34,-179 1738.34,-179"/>
<polygon fill="black" stroke="black" points="1738.34,-182.5 1748.34,-179 1738.34,-175.5 1738.34,-182.5"/>
</g>
<!-- LoggerModule -->
<g id="node2" class="node">
<title>LoggerModule</title>
<polygon fill="#8dd3c7" stroke="black" points="123.98,-122 120.98,-126 99.98,-126 96.98,-122 24.02,-122 24.02,-86 123.98,-86 123.98,-122"/>
<text text-anchor="middle" x="74" y="-99.8" font-family="Times,serif" font-size="14.00">LoggerModule</text>
</g>
<!-- LoggerModule&#45;&gt;AuthorizationModule -->
<g id="edge2" class="edge">
<title>LoggerModule&#45;&gt;AuthorizationModule</title>
<path fill="none" stroke="black" d="M74,-122.09C74,-145.13 74,-182 74,-182 74,-182 1738.14,-182 1738.14,-182"/>
<polygon fill="black" stroke="black" points="1738.14,-185.5 1748.14,-182 1738.14,-178.5 1738.14,-185.5"/>
</g>
<!-- AuthorizationService  -->
<g id="node4" class="node">
<title>AuthorizationService </title>
<polygon fill="#fb8072" stroke="black" points="2067.74,-252 1928.26,-252 1928.26,-216 2067.74,-216 2067.74,-252"/>
<text text-anchor="middle" x="1998" y="-229.8" font-family="Times,serif" font-size="14.00">AuthorizationService </text>
</g>
<!-- AuthorizationModule&#45;&gt;AuthorizationService  -->
<g id="edge3" class="edge">
<title>AuthorizationModule&#45;&gt;AuthorizationService </title>
<path fill="none" stroke="black" stroke-dasharray="5,2" d="M1885.89,-185C1926.51,-185 1970.01,-185 1970.01,-185 1970.01,-185 1970.01,-205.75 1970.01,-205.75"/>
<polygon fill="black" stroke="black" points="1966.51,-205.75 1970.01,-215.75 1973.51,-205.75 1966.51,-205.75"/>
</g>
<!-- FeathersAuthorizationService  -->
<g id="node5" class="node">
<title>FeathersAuthorizationService </title>
<polygon fill="#fb8072" stroke="black" points="1910.16,-252 1723.84,-252 1723.84,-216 1910.16,-216 1910.16,-252"/>
<text text-anchor="middle" x="1817" y="-229.8" font-family="Times,serif" font-size="14.00">FeathersAuthorizationService </text>
</g>
<!-- AuthorizationModule&#45;&gt;FeathersAuthorizationService  -->
<g id="edge4" class="edge">
<title>AuthorizationModule&#45;&gt;FeathersAuthorizationService </title>
<path fill="none" stroke="black" stroke-dasharray="5,2" d="M1817,-187.11C1817,-187.11 1817,-205.99 1817,-205.99"/>
<polygon fill="black" stroke="black" points="1813.5,-205.99 1817,-215.99 1820.5,-205.99 1813.5,-205.99"/>
</g>
<!-- SystemRule  -->
<g id="node6" class="node">
<title>SystemRule </title>
<polygon fill="#fb8072" stroke="black" points="1705.66,-252 1618.34,-252 1618.34,-216 1705.66,-216 1705.66,-252"/>
<text text-anchor="middle" x="1662" y="-229.8" font-family="Times,serif" font-size="14.00">SystemRule </text>
</g>
<!-- AuthorizationModule&#45;&gt;SystemRule  -->
<g id="edge5" class="edge">
<title>AuthorizationModule&#45;&gt;SystemRule </title>
<path fill="none" stroke="black" stroke-dasharray="5,2" d="M1748.11,-185C1706.72,-185 1662,-185 1662,-185 1662,-185 1662,-205.75 1662,-205.75"/>
<polygon fill="black" stroke="black" points="1658.5,-205.75 1662,-215.75 1665.5,-205.75 1658.5,-205.75"/>
</g>
<!-- AuthorizationHelper -->
<g id="node7" class="node">
<title>AuthorizationHelper</title>
<ellipse fill="#fdb462" stroke="black" cx="3818" cy="-104" rx="90.89" ry="18"/>
<text text-anchor="middle" x="3818" y="-99.8" font-family="Times,serif" font-size="14.00">AuthorizationHelper</text>
</g>
<!-- AuthorizationHelper&#45;&gt;AuthorizationModule -->
<g id="edge6" class="edge">
<title>AuthorizationHelper&#45;&gt;AuthorizationModule</title>
<path fill="none" stroke="black" d="M3818,-122.09C3818,-145.13 3818,-182 3818,-182 3818,-182 1895.88,-182 1895.88,-182"/>
<polygon fill="black" stroke="black" points="1895.88,-178.5 1885.88,-182 1895.88,-185.5 1895.88,-178.5"/>
</g>
<!-- AuthorizationService -->
<g id="node8" class="node">
<title>AuthorizationService</title>
<ellipse fill="#fdb462" stroke="black" cx="3615" cy="-104" rx="93.76" ry="18"/>
<text text-anchor="middle" x="3615" y="-99.8" font-family="Times,serif" font-size="14.00">AuthorizationService</text>
</g>
<!-- AuthorizationService&#45;&gt;AuthorizationModule -->
<g id="edge7" class="edge">
<title>AuthorizationService&#45;&gt;AuthorizationModule</title>
<path fill="none" stroke="black" d="M3615,-122.16C3615,-144.35 3615,-179 3615,-179 3615,-179 1895.83,-179 1895.83,-179"/>
<polygon fill="black" stroke="black" points="1895.83,-175.5 1885.83,-179 1895.83,-182.5 1895.83,-175.5"/>
</g>
<!-- BoardDoRule -->
<g id="node9" class="node">
<title>BoardDoRule</title>
<ellipse fill="#fdb462" stroke="black" cx="3439" cy="-104" rx="64.85" ry="18"/>
<text text-anchor="middle" x="3439" y="-99.8" font-family="Times,serif" font-size="14.00">BoardDoRule</text>
</g>
<!-- BoardDoRule&#45;&gt;AuthorizationModule -->
<g id="edge8" class="edge">
<title>BoardDoRule&#45;&gt;AuthorizationModule</title>
<path fill="none" stroke="black" d="M3439,-122.17C3439,-143.5 3439,-176 3439,-176 3439,-176 1895.66,-176 1895.66,-176"/>
<polygon fill="black" stroke="black" points="1895.66,-172.5 1885.66,-176 1895.66,-179.5 1895.66,-172.5"/>
</g>
<!-- ContextExternalToolRule -->
<g id="node10" class="node">
<title>ContextExternalToolRule</title>
<ellipse fill="#fdb462" stroke="black" cx="3246" cy="-104" rx="110.61" ry="18"/>
<text text-anchor="middle" x="3246" y="-99.8" font-family="Times,serif" font-size="14.00">ContextExternalToolRule</text>
</g>
<!-- ContextExternalToolRule&#45;&gt;AuthorizationModule -->
<g id="edge9" class="edge">
<title>ContextExternalToolRule&#45;&gt;AuthorizationModule</title>
<path fill="none" stroke="black" d="M3246,-122.03C3246,-142.77 3246,-174 3246,-174 3246,-174 1895.92,-174 1895.92,-174"/>
<polygon fill="black" stroke="black" points="1895.92,-170.5 1885.92,-174 1895.92,-177.5 1895.92,-170.5"/>
</g>
<!-- CourseGroupRule -->
<g id="node11" class="node">
<title>CourseGroupRule</title>
<ellipse fill="#fdb462" stroke="black" cx="3036" cy="-104" rx="81.1" ry="18"/>
<text text-anchor="middle" x="3036" y="-99.8" font-family="Times,serif" font-size="14.00">CourseGroupRule</text>
</g>
<!-- CourseGroupRule&#45;&gt;AuthorizationModule -->
<g id="edge10" class="edge">
<title>CourseGroupRule&#45;&gt;AuthorizationModule</title>
<path fill="none" stroke="black" d="M3036,-122.31C3036,-142.15 3036,-171 3036,-171 3036,-171 1896.03,-171 1896.03,-171"/>
<polygon fill="black" stroke="black" points="1896.03,-167.5 1886.03,-171 1896.03,-174.5 1896.03,-167.5"/>
</g>
<!-- CourseRule -->
<g id="node12" class="node">
<title>CourseRule</title>
<ellipse fill="#fdb462" stroke="black" cx="2880" cy="-104" rx="56.76" ry="18"/>
<text text-anchor="middle" x="2880" y="-99.8" font-family="Times,serif" font-size="14.00">CourseRule</text>
</g>
<!-- CourseRule&#45;&gt;AuthorizationModule -->
<g id="edge11" class="edge">
<title>CourseRule&#45;&gt;AuthorizationModule</title>
<path fill="none" stroke="black" d="M2880,-122.17C2880,-141.09 2880,-168 2880,-168 2880,-168 1895.93,-168 1895.93,-168"/>
<polygon fill="black" stroke="black" points="1895.93,-164.5 1885.93,-168 1895.93,-171.5 1895.93,-164.5"/>
</g>
<!-- FeathersAuthProvider -->
<g id="node13" class="node">
<title>FeathersAuthProvider</title>
<ellipse fill="#fdb462" stroke="black" cx="2709" cy="-104" rx="96.13" ry="18"/>
<text text-anchor="middle" x="2709" y="-99.8" font-family="Times,serif" font-size="14.00">FeathersAuthProvider</text>
</g>
<!-- FeathersAuthProvider&#45;&gt;AuthorizationModule -->
<g id="edge12" class="edge">
<title>FeathersAuthProvider&#45;&gt;AuthorizationModule</title>
<path fill="none" stroke="black" d="M2709,-122.3C2709,-140.27 2709,-165 2709,-165 2709,-165 1895.88,-165 1895.88,-165"/>
<polygon fill="black" stroke="black" points="1895.88,-161.5 1885.88,-165 1895.88,-168.5 1895.88,-161.5"/>
</g>
<!-- FeathersAuthorizationService -->
<g id="node14" class="node">
<title>FeathersAuthorizationService</title>
<ellipse fill="#fdb462" stroke="black" cx="2468" cy="-104" rx="126.18" ry="18"/>
<text text-anchor="middle" x="2468" y="-99.8" font-family="Times,serif" font-size="14.00">FeathersAuthorizationService</text>
</g>
<!-- FeathersAuthorizationService&#45;&gt;AuthorizationModule -->
<g id="edge13" class="edge">
<title>FeathersAuthorizationService&#45;&gt;AuthorizationModule</title>
<path fill="none" stroke="black" d="M2468,-122.02C2468,-139.37 2468,-163 2468,-163 2468,-163 1895.74,-163 1895.74,-163"/>
<polygon fill="black" stroke="black" points="1895.74,-159.5 1885.74,-163 1895.74,-166.5 1895.74,-159.5"/>
</g>
<!-- GroupRule -->
<g id="node15" class="node">
<title>GroupRule</title>
<ellipse fill="#fdb462" stroke="black" cx="2270" cy="-104" rx="53.89" ry="18"/>
<text text-anchor="middle" x="2270" y="-99.8" font-family="Times,serif" font-size="14.00">GroupRule</text>
</g>
<!-- GroupRule&#45;&gt;AuthorizationModule -->
<g id="edge14" class="edge">
<title>GroupRule&#45;&gt;AuthorizationModule</title>
<path fill="none" stroke="black" d="M2270,-122.03C2270,-138.4 2270,-160 2270,-160 2270,-160 1895.8,-160 1895.8,-160"/>
<polygon fill="black" stroke="black" points="1895.8,-156.5 1885.8,-160 1895.8,-163.5 1895.8,-156.5"/>
</g>
<!-- LegacySchoolRule -->
<g id="node16" class="node">
<title>LegacySchoolRule</title>
<ellipse fill="#fdb462" stroke="black" cx="2114" cy="-104" rx="84.53" ry="18"/>
<text text-anchor="middle" x="2114" y="-99.8" font-family="Times,serif" font-size="14.00">LegacySchoolRule</text>
</g>
<!-- LegacySchoolRule&#45;&gt;AuthorizationModule -->
<g id="edge15" class="edge">
<title>LegacySchoolRule&#45;&gt;AuthorizationModule</title>
<path fill="none" stroke="black" d="M2048.55,-115.5C2048.55,-131.09 2048.55,-157 2048.55,-157 2048.55,-157 1895.85,-157 1895.85,-157"/>
<polygon fill="black" stroke="black" points="1895.85,-153.5 1885.85,-157 1895.85,-160.5 1895.85,-153.5"/>
</g>
<!-- LessonRule -->
<g id="node17" class="node">
<title>LessonRule</title>
<ellipse fill="#fdb462" stroke="black" cx="1955" cy="-104" rx="56.76" ry="18"/>
<text text-anchor="middle" x="1955" y="-99.8" font-family="Times,serif" font-size="14.00">LessonRule</text>
</g>
<!-- LessonRule&#45;&gt;AuthorizationModule -->
<g id="edge16" class="edge">
<title>LessonRule&#45;&gt;AuthorizationModule</title>
<path fill="none" stroke="black" d="M1904.35,-112.26C1904.35,-126.46 1904.35,-154 1904.35,-154 1904.35,-154 1895.83,-154 1895.83,-154"/>
<polygon fill="black" stroke="black" points="1895.83,-150.5 1885.83,-154 1895.83,-157.5 1895.83,-150.5"/>
</g>
<!-- RuleManager -->
<g id="node18" class="node">
<title>RuleManager</title>
<ellipse fill="#fdb462" stroke="black" cx="1817" cy="-104" rx="63.68" ry="18"/>
<text text-anchor="middle" x="1817" y="-99.8" font-family="Times,serif" font-size="14.00">RuleManager</text>
</g>
<!-- RuleManager&#45;&gt;AuthorizationModule -->
<g id="edge17" class="edge">
<title>RuleManager&#45;&gt;AuthorizationModule</title>
<path fill="none" stroke="black" d="M1817,-122.11C1817,-122.11 1817,-140.99 1817,-140.99"/>
<polygon fill="black" stroke="black" points="1813.5,-140.99 1817,-150.99 1820.5,-140.99 1813.5,-140.99"/>
</g>
<!-- SchoolExternalToolRule -->
<g id="node19" class="node">
<title>SchoolExternalToolRule</title>
<ellipse fill="#fdb462" stroke="black" cx="1628" cy="-104" rx="107.1" ry="18"/>
<text text-anchor="middle" x="1628" y="-99.8" font-family="Times,serif" font-size="14.00">SchoolExternalToolRule</text>
</g>
<!-- SchoolExternalToolRule&#45;&gt;AuthorizationModule -->
<g id="edge18" class="edge">
<title>SchoolExternalToolRule&#45;&gt;AuthorizationModule</title>
<path fill="none" stroke="black" d="M1729.36,-110.13C1729.36,-123.48 1729.36,-154 1729.36,-154 1729.36,-154 1737.95,-154 1737.95,-154"/>
<polygon fill="black" stroke="black" points="1737.95,-157.5 1747.95,-154 1737.95,-150.5 1737.95,-157.5"/>
</g>
<!-- SchoolSystemOptionsRule -->
<g id="node20" class="node">
<title>SchoolSystemOptionsRule</title>
<ellipse fill="#fdb462" stroke="black" cx="1388" cy="-104" rx="115.23" ry="18"/>
<text text-anchor="middle" x="1388" y="-99.8" font-family="Times,serif" font-size="14.00">SchoolSystemOptionsRule</text>
</g>
<!-- SchoolSystemOptionsRule&#45;&gt;AuthorizationModule -->
<g id="edge19" class="edge">
<title>SchoolSystemOptionsRule&#45;&gt;AuthorizationModule</title>
<path fill="none" stroke="black" d="M1388,-122.24C1388,-137.57 1388,-157 1388,-157 1388,-157 1738.07,-157 1738.07,-157"/>
<polygon fill="black" stroke="black" points="1738.07,-160.5 1748.07,-157 1738.07,-153.5 1738.07,-160.5"/>
</g>
<!-- SubmissionRule -->
<g id="node21" class="node">
<title>SubmissionRule</title>
<ellipse fill="#fdb462" stroke="black" cx="1181" cy="-104" rx="74.2" ry="18"/>
<text text-anchor="middle" x="1181" y="-99.8" font-family="Times,serif" font-size="14.00">SubmissionRule</text>
</g>
<!-- SubmissionRule&#45;&gt;AuthorizationModule -->
<g id="edge20" class="edge">
<title>SubmissionRule&#45;&gt;AuthorizationModule</title>
<path fill="none" stroke="black" d="M1181,-122.03C1181,-138.4 1181,-160 1181,-160 1181,-160 1738.33,-160 1738.33,-160"/>
<polygon fill="black" stroke="black" points="1738.33,-163.5 1748.33,-160 1738.33,-156.5 1738.33,-163.5"/>
</g>
<!-- SystemRule -->
<g id="node22" class="node">
<title>SystemRule</title>
<ellipse fill="#fdb462" stroke="black" cx="1031" cy="-104" rx="57.92" ry="18"/>
<text text-anchor="middle" x="1031" y="-99.8" font-family="Times,serif" font-size="14.00">SystemRule</text>
</g>
<!-- SystemRule&#45;&gt;AuthorizationModule -->
<g id="edge21" class="edge">
<title>SystemRule&#45;&gt;AuthorizationModule</title>
<path fill="none" stroke="black" d="M1031,-122.02C1031,-139.37 1031,-163 1031,-163 1031,-163 1738.28,-163 1738.28,-163"/>
<polygon fill="black" stroke="black" points="1738.28,-166.5 1748.28,-163 1738.28,-159.5 1738.28,-166.5"/>
</g>
<!-- TaskRule -->
<g id="node23" class="node">
<title>TaskRule</title>
<ellipse fill="#fdb462" stroke="black" cx="907" cy="-104" rx="48.09" ry="18"/>
<text text-anchor="middle" x="907" y="-99.8" font-family="Times,serif" font-size="14.00">TaskRule</text>
</g>
<!-- TaskRule&#45;&gt;AuthorizationModule -->
<g id="edge22" class="edge">
<title>TaskRule&#45;&gt;AuthorizationModule</title>
<path fill="none" stroke="black" d="M907,-122.3C907,-140.27 907,-165 907,-165 907,-165 1738.23,-165 1738.23,-165"/>
<polygon fill="black" stroke="black" points="1738.23,-168.5 1748.23,-165 1738.23,-161.5 1738.23,-168.5"/>
</g>
<!-- TeamRule -->
<g id="node24" class="node">
<title>TeamRule</title>
<ellipse fill="#fdb462" stroke="black" cx="790" cy="-104" rx="51.02" ry="18"/>
<text text-anchor="middle" x="790" y="-99.8" font-family="Times,serif" font-size="14.00">TeamRule</text>
</g>
<!-- TeamRule&#45;&gt;AuthorizationModule -->
<g id="edge23" class="edge">
<title>TeamRule&#45;&gt;AuthorizationModule</title>
<path fill="none" stroke="black" d="M790,-122.17C790,-141.09 790,-168 790,-168 790,-168 1738.02,-168 1738.02,-168"/>
<polygon fill="black" stroke="black" points="1738.02,-171.5 1748.02,-168 1738.02,-164.5 1738.02,-171.5"/>
</g>
<!-- UserLoginMigrationRule -->
<g id="node25" class="node">
<title>UserLoginMigrationRule</title>
<ellipse fill="#fdb462" stroke="black" cx="612" cy="-104" rx="109.39" ry="18"/>
<text text-anchor="middle" x="612" y="-99.8" font-family="Times,serif" font-size="14.00">UserLoginMigrationRule</text>
</g>
<!-- UserLoginMigrationRule&#45;&gt;AuthorizationModule -->
<g id="edge24" class="edge">
<title>UserLoginMigrationRule&#45;&gt;AuthorizationModule</title>
<path fill="none" stroke="black" d="M612,-122.31C612,-142.15 612,-171 612,-171 612,-171 1738.32,-171 1738.32,-171"/>
<polygon fill="black" stroke="black" points="1738.32,-174.5 1748.32,-171 1738.32,-167.5 1738.32,-174.5"/>
</g>
<!-- UserRepo -->
<g id="node26" class="node">
<title>UserRepo</title>
<ellipse fill="#fdb462" stroke="black" cx="435" cy="-104" rx="49.8" ry="18"/>
<text text-anchor="middle" x="435" y="-99.8" font-family="Times,serif" font-size="14.00">UserRepo</text>
</g>
<!-- UserRepo&#45;&gt;AuthorizationModule -->
<g id="edge25" class="edge">
<title>UserRepo&#45;&gt;AuthorizationModule</title>
<path fill="none" stroke="black" d="M435,-122.03C435,-142.77 435,-174 435,-174 435,-174 1737.99,-174 1737.99,-174"/>
<polygon fill="black" stroke="black" points="1737.99,-177.5 1747.99,-174 1737.99,-170.5 1737.99,-177.5"/>
</g>
<!-- UserRule -->
<g id="node27" class="node">
<title>UserRule</title>
<ellipse fill="#fdb462" stroke="black" cx="320" cy="-104" rx="47.51" ry="18"/>
<text text-anchor="middle" x="320" y="-99.8" font-family="Times,serif" font-size="14.00">UserRule</text>
</g>
<!-- UserRule&#45;&gt;AuthorizationModule -->
<g id="edge26" class="edge">
<title>UserRule&#45;&gt;AuthorizationModule</title>
<path fill="none" stroke="black" d="M320,-122.17C320,-143.5 320,-176 320,-176 320,-176 1738.29,-176 1738.29,-176"/>
<polygon fill="black" stroke="black" points="1738.29,-179.5 1748.29,-176 1738.29,-172.5 1738.29,-179.5"/>
</g>
</g>
</svg>
