<?xml version="1.0" encoding="UTF-8" standalone="no"?>
<!DOCTYPE svg PUBLIC "-//W3C//DTD SVG 1.1//EN"
 "http://www.w3.org/Graphics/SVG/1.1/DTD/svg11.dtd">
<!-- Generated by graphviz version 2.47.0 (20210316.0004)
 -->
<!-- Title: dependencies Pages: 1 -->
<svg width="4829pt" height="284pt"
 viewBox="0.00 0.00 4829.00 284.00" xmlns="http://www.w3.org/2000/svg" xmlns:xlink="http://www.w3.org/1999/xlink">
<g id="graph0" class="graph" transform="scale(1 1) rotate(0) translate(4 280)">
<title>dependencies</title>
<polygon fill="white" stroke="transparent" points="-4,4 -4,-280 4825,-280 4825,4 -4,4"/>
<text text-anchor="start" x="2389.51" y="-42.4" font-family="Times-12" font-weight="bold" font-size="14.00">Legend</text>
<polygon fill="#ffffb3" stroke="transparent" points="2176.5,-10 2176.5,-30 2196.5,-30 2196.5,-10 2176.5,-10"/>
<text text-anchor="start" x="2200.13" y="-15.4" font-family="Times-12" font-size="14.00"> &#160;Declarations</text>
<polygon fill="#8dd3c7" stroke="transparent" points="2289.5,-10 2289.5,-30 2309.5,-30 2309.5,-10 2289.5,-10"/>
<text text-anchor="start" x="2313.23" y="-15.4" font-family="Times-12" font-size="14.00"> &#160;Module</text>
<polygon fill="#80b1d3" stroke="transparent" points="2375.5,-10 2375.5,-30 2395.5,-30 2395.5,-10 2375.5,-10"/>
<text text-anchor="start" x="2399.28" y="-15.4" font-family="Times-12" font-size="14.00"> &#160;Bootstrap</text>
<polygon fill="#fdb462" stroke="transparent" points="2472.5,-10 2472.5,-30 2492.5,-30 2492.5,-10 2472.5,-10"/>
<text text-anchor="start" x="2496.17" y="-15.4" font-family="Times-12" font-size="14.00"> &#160;Providers</text>
<polygon fill="#fb8072" stroke="transparent" points="2568.5,-10 2568.5,-30 2588.5,-30 2588.5,-10 2568.5,-10"/>
<text text-anchor="start" x="2592.23" y="-15.4" font-family="Times-12" font-size="14.00"> &#160;Exports</text>
<g id="clust1" class="cluster">
<title>cluster_AuthorizationModule</title>
<polygon fill="none" stroke="black" stroke-dasharray="1,5" points="8,-70 8,-268 4813,-268 4813,-70 8,-70"/>
</g>
<g id="clust4" class="cluster">
<title>cluster_AuthorizationModule_exports</title>
<polygon fill="none" stroke="black" points="1890,-208 1890,-260 2250,-260 2250,-208 1890,-208"/>
</g>
<g id="clust6" class="cluster">
<title>cluster_AuthorizationModule_providers</title>
<polygon fill="none" stroke="black" points="380,-78 380,-130 4805,-130 4805,-78 380,-78"/>
</g>
<g id="clust3" class="cluster">
<title>cluster_AuthorizationModule_imports</title>
<polygon fill="none" stroke="black" points="16,-78 16,-130 372,-130 372,-78 16,-78"/>
</g>
<!-- FeathersModule -->
<g id="node1" class="node">
<title>FeathersModule</title>
<polygon fill="#8dd3c7" stroke="black" points="364.47,-122 361.47,-126 340.47,-126 337.47,-122 257.53,-122 257.53,-86 364.47,-86 364.47,-122"/>
<text text-anchor="middle" x="311" y="-99.8" font-family="Times,serif" font-size="14.00">FeathersModule</text>
</g>
<!-- AuthorizationModule -->
<g id="node4" class="node">
<title>AuthorizationModule</title>
<polygon fill="#8dd3c7" stroke="black" points="2149.81,-187 2146.81,-191 2125.81,-191 2122.81,-187 2012.19,-187 2012.19,-151 2149.81,-151 2149.81,-187"/>
<text text-anchor="middle" x="2081" y="-164.8" font-family="Times,serif" font-size="14.00">AuthorizationModule</text>
</g>
<!-- FeathersModule&#45;&gt;AuthorizationModule -->
<g id="edge1" class="edge">
<title>FeathersModule&#45;&gt;AuthorizationModule</title>
<path fill="none" stroke="black" d="M311,-122.01C311,-144.49 311,-180 311,-180 311,-180 2002.16,-180 2002.16,-180"/>
<polygon fill="black" stroke="black" points="2002.16,-183.5 2012.16,-180 2002.16,-176.5 2002.16,-183.5"/>
</g>
<!-- LoggerModule -->
<g id="node2" class="node">
<title>LoggerModule</title>
<polygon fill="#8dd3c7" stroke="black" points="239.98,-122 236.98,-126 215.98,-126 212.98,-122 140.02,-122 140.02,-86 239.98,-86 239.98,-122"/>
<text text-anchor="middle" x="190" y="-99.8" font-family="Times,serif" font-size="14.00">LoggerModule</text>
</g>
<!-- LoggerModule&#45;&gt;AuthorizationModule -->
<g id="edge2" class="edge">
<title>LoggerModule&#45;&gt;AuthorizationModule</title>
<path fill="none" stroke="black" d="M190,-122.32C190,-145.66 190,-183 190,-183 190,-183 2002.3,-183 2002.3,-183"/>
<polygon fill="black" stroke="black" points="2002.3,-186.5 2012.3,-183 2002.3,-179.5 2002.3,-186.5"/>
</g>
<!-- SchoolModule -->
<g id="node3" class="node">
<title>SchoolModule</title>
<polygon fill="#8dd3c7" stroke="black" points="122.44,-122 119.44,-126 98.44,-126 95.44,-122 23.56,-122 23.56,-86 122.44,-86 122.44,-122"/>
<text text-anchor="middle" x="73" y="-99.8" font-family="Times,serif" font-size="14.00">SchoolModule</text>
</g>
<!-- SchoolModule&#45;&gt;AuthorizationModule -->
<g id="edge3" class="edge">
<title>SchoolModule&#45;&gt;AuthorizationModule</title>
<path fill="none" stroke="black" d="M73,-122.38C73,-146.28 73,-185 73,-185 73,-185 2002.17,-185 2002.17,-185"/>
<polygon fill="black" stroke="black" points="2002.17,-188.5 2012.17,-185 2002.17,-181.5 2002.17,-188.5"/>
</g>
<!-- AuthorizationService  -->
<g id="node5" class="node">
<title>AuthorizationService </title>
<polygon fill="#fb8072" stroke="black" points="2241.74,-252 2102.26,-252 2102.26,-216 2241.74,-216 2241.74,-252"/>
<text text-anchor="middle" x="2172" y="-229.8" font-family="Times,serif" font-size="14.00">AuthorizationService </text>
</g>
<!-- AuthorizationModule&#45;&gt;AuthorizationService  -->
<g id="edge4" class="edge">
<title>AuthorizationModule&#45;&gt;AuthorizationService </title>
<path fill="none" stroke="black" stroke-dasharray="5,2" d="M2126.02,-187.11C2126.02,-187.11 2126.02,-205.99 2126.02,-205.99"/>
<polygon fill="black" stroke="black" points="2122.52,-205.99 2126.02,-215.99 2129.52,-205.99 2122.52,-205.99"/>
</g>
<!-- FeathersAuthorizationService  -->
<g id="node6" class="node">
<title>FeathersAuthorizationService </title>
<polygon fill="#fb8072" stroke="black" points="2084.16,-252 1897.84,-252 1897.84,-216 2084.16,-216 2084.16,-252"/>
<text text-anchor="middle" x="1991" y="-229.8" font-family="Times,serif" font-size="14.00">FeathersAuthorizationService </text>
</g>
<!-- AuthorizationModule&#45;&gt;FeathersAuthorizationService  -->
<g id="edge5" class="edge">
<title>AuthorizationModule&#45;&gt;FeathersAuthorizationService </title>
<path fill="none" stroke="black" stroke-dasharray="5,2" d="M2048.34,-187.11C2048.34,-187.11 2048.34,-205.99 2048.34,-205.99"/>
<polygon fill="black" stroke="black" points="2044.84,-205.99 2048.34,-215.99 2051.84,-205.99 2044.84,-205.99"/>
</g>
<!-- AuthorizationHelper -->
<g id="node7" class="node">
<title>AuthorizationHelper</title>
<ellipse fill="#fdb462" stroke="black" cx="4706" cy="-104" rx="90.89" ry="18"/>
<text text-anchor="middle" x="4706" y="-99.8" font-family="Times,serif" font-size="14.00">AuthorizationHelper</text>
</g>
<!-- AuthorizationHelper&#45;&gt;AuthorizationModule -->
<g id="edge6" class="edge">
<title>AuthorizationHelper&#45;&gt;AuthorizationModule</title>
<path fill="none" stroke="black" d="M4706,-122.38C4706,-146.28 4706,-185 4706,-185 4706,-185 2159.86,-185 2159.86,-185"/>
<polygon fill="black" stroke="black" points="2159.86,-181.5 2149.86,-185 2159.86,-188.5 2159.86,-181.5"/>
</g>
<!-- AuthorizationService -->
<g id="node8" class="node">
<title>AuthorizationService</title>
<ellipse fill="#fdb462" stroke="black" cx="4503" cy="-104" rx="93.76" ry="18"/>
<text text-anchor="middle" x="4503" y="-99.8" font-family="Times,serif" font-size="14.00">AuthorizationService</text>
</g>
<!-- AuthorizationService&#45;&gt;AuthorizationModule -->
<g id="edge7" class="edge">
<title>AuthorizationService&#45;&gt;AuthorizationModule</title>
<path fill="none" stroke="black" d="M4503,-122.32C4503,-145.66 4503,-183 4503,-183 4503,-183 2159.91,-183 2159.91,-183"/>
<polygon fill="black" stroke="black" points="2159.91,-179.5 2149.91,-183 2159.91,-186.5 2159.91,-179.5"/>
</g>
<!-- BoardDoRule -->
<g id="node9" class="node">
<title>BoardDoRule</title>
<ellipse fill="#fdb462" stroke="black" cx="4327" cy="-104" rx="64.85" ry="18"/>
<text text-anchor="middle" x="4327" y="-99.8" font-family="Times,serif" font-size="14.00">BoardDoRule</text>
</g>
<!-- BoardDoRule&#45;&gt;AuthorizationModule -->
<g id="edge8" class="edge">
<title>BoardDoRule&#45;&gt;AuthorizationModule</title>
<path fill="none" stroke="black" d="M4327,-122.01C4327,-144.49 4327,-180 4327,-180 4327,-180 2159.75,-180 2159.75,-180"/>
<polygon fill="black" stroke="black" points="2159.75,-176.5 2149.75,-180 2159.75,-183.5 2159.75,-176.5"/>
</g>
<!-- ContextExternalToolRule -->
<g id="node10" class="node">
<title>ContextExternalToolRule</title>
<ellipse fill="#fdb462" stroke="black" cx="4134" cy="-104" rx="110.61" ry="18"/>
<text text-anchor="middle" x="4134" y="-99.8" font-family="Times,serif" font-size="14.00">ContextExternalToolRule</text>
</g>
<!-- ContextExternalToolRule&#45;&gt;AuthorizationModule -->
<g id="edge9" class="edge">
<title>ContextExternalToolRule&#45;&gt;AuthorizationModule</title>
<path fill="none" stroke="black" d="M4134,-122.29C4134,-144.21 4134,-178 4134,-178 4134,-178 2159.89,-178 2159.89,-178"/>
<polygon fill="black" stroke="black" points="2159.89,-174.5 2149.89,-178 2159.89,-181.5 2159.89,-174.5"/>
</g>
<!-- CourseGroupRepo -->
<g id="node11" class="node">
<title>CourseGroupRepo</title>
<ellipse fill="#fdb462" stroke="black" cx="3922" cy="-104" rx="83.39" ry="18"/>
<text text-anchor="middle" x="3922" y="-99.8" font-family="Times,serif" font-size="14.00">CourseGroupRepo</text>
</g>
<!-- CourseGroupRepo&#45;&gt;AuthorizationModule -->
<g id="edge10" class="edge">
<title>CourseGroupRepo&#45;&gt;AuthorizationModule</title>
<path fill="none" stroke="black" d="M3922,-122.28C3922,-143.32 3922,-175 3922,-175 3922,-175 2159.81,-175 2159.81,-175"/>
<polygon fill="black" stroke="black" points="2159.81,-171.5 2149.81,-175 2159.81,-178.5 2159.81,-171.5"/>
</g>
<!-- CourseGroupRule -->
<g id="node12" class="node">
<title>CourseGroupRule</title>
<ellipse fill="#fdb462" stroke="black" cx="3739" cy="-104" rx="81.1" ry="18"/>
<text text-anchor="middle" x="3739" y="-99.8" font-family="Times,serif" font-size="14.00">CourseGroupRule</text>
</g>
<!-- CourseGroupRule&#45;&gt;AuthorizationModule -->
<g id="edge11" class="edge">
<title>CourseGroupRule&#45;&gt;AuthorizationModule</title>
<path fill="none" stroke="black" d="M3739,-122.13C3739,-142.57 3739,-173 3739,-173 3739,-173 2159.87,-173 2159.87,-173"/>
<polygon fill="black" stroke="black" points="2159.87,-169.5 2149.87,-173 2159.87,-176.5 2159.87,-169.5"/>
</g>
<!-- CourseRepo -->
<g id="node13" class="node">
<title>CourseRepo</title>
<ellipse fill="#fdb462" stroke="black" cx="3581" cy="-104" rx="58.55" ry="18"/>
<text text-anchor="middle" x="3581" y="-99.8" font-family="Times,serif" font-size="14.00">CourseRepo</text>
</g>
<!-- CourseRepo&#45;&gt;AuthorizationModule -->
<g id="edge12" class="edge">
<title>CourseRepo&#45;&gt;AuthorizationModule</title>
<path fill="none" stroke="black" d="M3581,-122.31C3581,-142.15 3581,-171 3581,-171 3581,-171 2159.84,-171 2159.84,-171"/>
<polygon fill="black" stroke="black" points="2159.84,-167.5 2149.84,-171 2159.84,-174.5 2159.84,-167.5"/>
</g>
<!-- CourseRule -->
<g id="node14" class="node">
<title>CourseRule</title>
<ellipse fill="#fdb462" stroke="black" cx="3448" cy="-104" rx="56.76" ry="18"/>
<text text-anchor="middle" x="3448" y="-99.8" font-family="Times,serif" font-size="14.00">CourseRule</text>
</g>
<!-- CourseRule&#45;&gt;AuthorizationModule -->
<g id="edge13" class="edge">
<title>CourseRule&#45;&gt;AuthorizationModule</title>
<path fill="none" stroke="black" d="M3448,-122.17C3448,-141.09 3448,-168 3448,-168 3448,-168 2159.73,-168 2159.73,-168"/>
<polygon fill="black" stroke="black" points="2159.73,-164.5 2149.73,-168 2159.73,-171.5 2159.73,-164.5"/>
</g>
<!-- FeathersAuthProvider -->
<g id="node15" class="node">
<title>FeathersAuthProvider</title>
<ellipse fill="#fdb462" stroke="black" cx="3277" cy="-104" rx="96.13" ry="18"/>
<text text-anchor="middle" x="3277" y="-99.8" font-family="Times,serif" font-size="14.00">FeathersAuthProvider</text>
</g>
<!-- FeathersAuthProvider&#45;&gt;AuthorizationModule -->
<g id="edge14" class="edge">
<title>FeathersAuthProvider&#45;&gt;AuthorizationModule</title>
<path fill="none" stroke="black" d="M3277,-122.27C3277,-140.56 3277,-166 3277,-166 3277,-166 2160.03,-166 2160.03,-166"/>
<polygon fill="black" stroke="black" points="2160.03,-162.5 2150.03,-166 2160.03,-169.5 2160.03,-162.5"/>
</g>
<!-- FeathersAuthorizationService -->
<g id="node16" class="node">
<title>FeathersAuthorizationService</title>
<ellipse fill="#fdb462" stroke="black" cx="3036" cy="-104" rx="126.18" ry="18"/>
<text text-anchor="middle" x="3036" y="-99.8" font-family="Times,serif" font-size="14.00">FeathersAuthorizationService</text>
</g>
<!-- FeathersAuthorizationService&#45;&gt;AuthorizationModule -->
<g id="edge15" class="edge">
<title>FeathersAuthorizationService&#45;&gt;AuthorizationModule</title>
<path fill="none" stroke="black" d="M3036,-122.02C3036,-139.37 3036,-163 3036,-163 3036,-163 2159.68,-163 2159.68,-163"/>
<polygon fill="black" stroke="black" points="2159.68,-159.5 2149.68,-163 2159.68,-166.5 2159.68,-159.5"/>
</g>
<!-- LessonRepo -->
<g id="node17" class="node">
<title>LessonRepo</title>
<ellipse fill="#fdb462" stroke="black" cx="2833" cy="-104" rx="58.55" ry="18"/>
<text text-anchor="middle" x="2833" y="-99.8" font-family="Times,serif" font-size="14.00">LessonRepo</text>
</g>
<!-- LessonRepo&#45;&gt;AuthorizationModule -->
<g id="edge16" class="edge">
<title>LessonRepo&#45;&gt;AuthorizationModule</title>
<path fill="none" stroke="black" d="M2833,-122.04C2833,-138.73 2833,-161 2833,-161 2833,-161 2159.73,-161 2159.73,-161"/>
<polygon fill="black" stroke="black" points="2159.73,-157.5 2149.73,-161 2159.73,-164.5 2159.73,-157.5"/>
</g>
<!-- LessonRule -->
<g id="node18" class="node">
<title>LessonRule</title>
<ellipse fill="#fdb462" stroke="black" cx="2700" cy="-104" rx="56.76" ry="18"/>
<text text-anchor="middle" x="2700" y="-99.8" font-family="Times,serif" font-size="14.00">LessonRule</text>
</g>
<!-- LessonRule&#45;&gt;AuthorizationModule -->
<g id="edge17" class="edge">
<title>LessonRule&#45;&gt;AuthorizationModule</title>
<path fill="none" stroke="black" d="M2700,-122.01C2700,-138.05 2700,-159 2700,-159 2700,-159 2159.91,-159 2159.91,-159"/>
<polygon fill="black" stroke="black" points="2159.91,-155.5 2149.91,-159 2159.91,-162.5 2159.91,-155.5"/>
</g>
<!-- ReferenceLoader -->
<g id="node19" class="node">
<title>ReferenceLoader</title>
<ellipse fill="#fdb462" stroke="black" cx="2548" cy="-104" rx="77.53" ry="18"/>
<text text-anchor="middle" x="2548" y="-99.8" font-family="Times,serif" font-size="14.00">ReferenceLoader</text>
</g>
<!-- ReferenceLoader&#45;&gt;AuthorizationModule -->
<g id="edge18" class="edge">
<title>ReferenceLoader&#45;&gt;AuthorizationModule</title>
<path fill="none" stroke="black" d="M2548,-122.19C2548,-137.18 2548,-156 2548,-156 2548,-156 2159.66,-156 2159.66,-156"/>
<polygon fill="black" stroke="black" points="2159.66,-152.5 2149.66,-156 2159.66,-159.5 2159.66,-152.5"/>
</g>
<!-- RuleManager -->
<g id="node20" class="node">
<title>RuleManager</title>
<ellipse fill="#fdb462" stroke="black" cx="2389" cy="-104" rx="63.68" ry="18"/>
<text text-anchor="middle" x="2389" y="-99.8" font-family="Times,serif" font-size="14.00">RuleManager</text>
</g>
<!-- RuleManager&#45;&gt;AuthorizationModule -->
<g id="edge19" class="edge">
<title>RuleManager&#45;&gt;AuthorizationModule</title>
<path fill="none" stroke="black" d="M2389,-122.05C2389,-136.37 2389,-154 2389,-154 2389,-154 2159.74,-154 2159.74,-154"/>
<polygon fill="black" stroke="black" points="2159.74,-150.5 2149.74,-154 2159.74,-157.5 2159.74,-150.5"/>
</g>
<!-- SchoolExternalToolRepo -->
<g id="node21" class="node">
<title>SchoolExternalToolRepo</title>
<ellipse fill="#fdb462" stroke="black" cx="2198" cy="-104" rx="109.39" ry="18"/>
<text text-anchor="middle" x="2198" y="-99.8" font-family="Times,serif" font-size="14.00">SchoolExternalToolRepo</text>
</g>
<!-- SchoolExternalToolRepo&#45;&gt;AuthorizationModule -->
<g id="edge20" class="edge">
<title>SchoolExternalToolRepo&#45;&gt;AuthorizationModule</title>
<path fill="none" stroke="black" d="M2119.23,-116.53C2119.23,-116.53 2119.23,-140.85 2119.23,-140.85"/>
<polygon fill="black" stroke="black" points="2115.73,-140.85 2119.23,-150.85 2122.73,-140.85 2115.73,-140.85"/>
</g>
<!-- SchoolExternalToolRule -->
<g id="node22" class="node">
<title>SchoolExternalToolRule</title>
<ellipse fill="#fdb462" stroke="black" cx="1964" cy="-104" rx="107.1" ry="18"/>
<text text-anchor="middle" x="1964" y="-99.8" font-family="Times,serif" font-size="14.00">SchoolExternalToolRule</text>
</g>
<!-- SchoolExternalToolRule&#45;&gt;AuthorizationModule -->
<g id="edge21" class="edge">
<title>SchoolExternalToolRule&#45;&gt;AuthorizationModule</title>
<path fill="none" stroke="black" d="M2041.7,-116.53C2041.7,-116.53 2041.7,-140.85 2041.7,-140.85"/>
<polygon fill="black" stroke="black" points="2038.2,-140.85 2041.7,-150.85 2045.2,-140.85 2038.2,-140.85"/>
</g>
<!-- SchoolRepo -->
<g id="node23" class="node">
<title>SchoolRepo</title>
<ellipse fill="#fdb462" stroke="black" cx="1781" cy="-104" rx="58.49" ry="18"/>
<text text-anchor="middle" x="1781" y="-99.8" font-family="Times,serif" font-size="14.00">SchoolRepo</text>
</g>
<!-- SchoolRepo&#45;&gt;AuthorizationModule -->
<g id="edge22" class="edge">
<title>SchoolRepo&#45;&gt;AuthorizationModule</title>
<path fill="none" stroke="black" d="M1781,-122.05C1781,-136.37 1781,-154 1781,-154 1781,-154 2002.17,-154 2002.17,-154"/>
<polygon fill="black" stroke="black" points="2002.17,-157.5 2012.17,-154 2002.17,-150.5 2002.17,-157.5"/>
</g>
<!-- SchoolRule -->
<g id="node24" class="node">
<title>SchoolRule</title>
<ellipse fill="#fdb462" stroke="black" cx="1649" cy="-104" rx="56.2" ry="18"/>
<text text-anchor="middle" x="1649" y="-99.8" font-family="Times,serif" font-size="14.00">SchoolRule</text>
</g>
<!-- SchoolRule&#45;&gt;AuthorizationModule -->
<g id="edge23" class="edge">
<title>SchoolRule&#45;&gt;AuthorizationModule</title>
<path fill="none" stroke="black" d="M1649,-122.19C1649,-137.18 1649,-156 1649,-156 1649,-156 2002.07,-156 2002.07,-156"/>
<polygon fill="black" stroke="black" points="2002.07,-159.5 2012.07,-156 2002.07,-152.5 2002.07,-159.5"/>
</g>
<!-- SubmissionRepo -->
<g id="node25" class="node">
<title>SubmissionRepo</title>
<ellipse fill="#fdb462" stroke="black" cx="1498" cy="-104" rx="76.49" ry="18"/>
<text text-anchor="middle" x="1498" y="-99.8" font-family="Times,serif" font-size="14.00">SubmissionRepo</text>
</g>
<!-- SubmissionRepo&#45;&gt;AuthorizationModule -->
<g id="edge24" class="edge">
<title>SubmissionRepo&#45;&gt;AuthorizationModule</title>
<path fill="none" stroke="black" d="M1498,-122.01C1498,-138.05 1498,-159 1498,-159 1498,-159 2002.12,-159 2002.12,-159"/>
<polygon fill="black" stroke="black" points="2002.12,-162.5 2012.12,-159 2002.12,-155.5 2002.12,-162.5"/>
</g>
<!-- SubmissionRule -->
<g id="node26" class="node">
<title>SubmissionRule</title>
<ellipse fill="#fdb462" stroke="black" cx="1329" cy="-104" rx="74.2" ry="18"/>
<text text-anchor="middle" x="1329" y="-99.8" font-family="Times,serif" font-size="14.00">SubmissionRule</text>
</g>
<!-- SubmissionRule&#45;&gt;AuthorizationModule -->
<g id="edge25" class="edge">
<title>SubmissionRule&#45;&gt;AuthorizationModule</title>
<path fill="none" stroke="black" d="M1329,-122.04C1329,-138.73 1329,-161 1329,-161 1329,-161 2002.27,-161 2002.27,-161"/>
<polygon fill="black" stroke="black" points="2002.27,-164.5 2012.27,-161 2002.27,-157.5 2002.27,-164.5"/>
</g>
<!-- TaskCardRule -->
<g id="node27" class="node">
<title>TaskCardRule</title>
<ellipse fill="#fdb462" stroke="black" cx="1170" cy="-104" rx="66.63" ry="18"/>
<text text-anchor="middle" x="1170" y="-99.8" font-family="Times,serif" font-size="14.00">TaskCardRule</text>
</g>
<!-- TaskCardRule&#45;&gt;AuthorizationModule -->
<g id="edge26" class="edge">
<title>TaskCardRule&#45;&gt;AuthorizationModule</title>
<path fill="none" stroke="black" d="M1170,-122.02C1170,-139.37 1170,-163 1170,-163 1170,-163 2002.15,-163 2002.15,-163"/>
<polygon fill="black" stroke="black" points="2002.15,-166.5 2012.15,-163 2002.15,-159.5 2002.15,-166.5"/>
</g>
<!-- TaskRepo -->
<g id="node28" class="node">
<title>TaskRepo</title>
<ellipse fill="#fdb462" stroke="black" cx="1035" cy="-104" rx="50.38" ry="18"/>
<text text-anchor="middle" x="1035" y="-99.8" font-family="Times,serif" font-size="14.00">TaskRepo</text>
</g>
<!-- TaskRepo&#45;&gt;AuthorizationModule -->
<g id="edge27" class="edge">
<title>TaskRepo&#45;&gt;AuthorizationModule</title>
<path fill="none" stroke="black" d="M1035,-122.27C1035,-140.56 1035,-166 1035,-166 1035,-166 2001.96,-166 2001.96,-166"/>
<polygon fill="black" stroke="black" points="2001.96,-169.5 2011.96,-166 2001.96,-162.5 2001.96,-169.5"/>
</g>
<!-- TaskRule -->
<g id="node29" class="node">
<title>TaskRule</title>
<ellipse fill="#fdb462" stroke="black" cx="919" cy="-104" rx="48.09" ry="18"/>
<text text-anchor="middle" x="919" y="-99.8" font-family="Times,serif" font-size="14.00">TaskRule</text>
</g>
<!-- TaskRule&#45;&gt;AuthorizationModule -->
<g id="edge28" class="edge">
<title>TaskRule&#45;&gt;AuthorizationModule</title>
<path fill="none" stroke="black" d="M919,-122.17C919,-141.09 919,-168 919,-168 919,-168 2002.22,-168 2002.22,-168"/>
<polygon fill="black" stroke="black" points="2002.22,-171.5 2012.22,-168 2002.22,-164.5 2002.22,-171.5"/>
</g>
<!-- TeamRule -->
<g id="node30" class="node">
<title>TeamRule</title>
<ellipse fill="#fdb462" stroke="black" cx="802" cy="-104" rx="51.02" ry="18"/>
<text text-anchor="middle" x="802" y="-99.8" font-family="Times,serif" font-size="14.00">TeamRule</text>
</g>
<!-- TeamRule&#45;&gt;AuthorizationModule -->
<g id="edge29" class="edge">
<title>TeamRule&#45;&gt;AuthorizationModule</title>
<path fill="none" stroke="black" d="M802,-122.31C802,-142.15 802,-171 802,-171 802,-171 2002.24,-171 2002.24,-171"/>
<polygon fill="black" stroke="black" points="2002.24,-174.5 2012.24,-171 2002.24,-167.5 2002.24,-174.5"/>
</g>
<!-- TeamsRepo -->
<g id="node31" class="node">
<title>TeamsRepo</title>
<ellipse fill="#fdb462" stroke="black" cx="676" cy="-104" rx="57.32" ry="18"/>
<text text-anchor="middle" x="676" y="-99.8" font-family="Times,serif" font-size="14.00">TeamsRepo</text>
</g>
<!-- TeamsRepo&#45;&gt;AuthorizationModule -->
<g id="edge30" class="edge">
<title>TeamsRepo&#45;&gt;AuthorizationModule</title>
<path fill="none" stroke="black" d="M676,-122.13C676,-142.57 676,-173 676,-173 676,-173 2002.28,-173 2002.28,-173"/>
<polygon fill="black" stroke="black" points="2002.28,-176.5 2012.28,-173 2002.28,-169.5 2002.28,-176.5"/>
</g>
<!-- UserRepo -->
<g id="node32" class="node">
<title>UserRepo</title>
<ellipse fill="#fdb462" stroke="black" cx="551" cy="-104" rx="49.8" ry="18"/>
<text text-anchor="middle" x="551" y="-99.8" font-family="Times,serif" font-size="14.00">UserRepo</text>
</g>
<!-- UserRepo&#45;&gt;AuthorizationModule -->
<g id="edge31" class="edge">
<title>UserRepo&#45;&gt;AuthorizationModule</title>
<path fill="none" stroke="black" d="M551,-122.28C551,-143.32 551,-175 551,-175 551,-175 2002.29,-175 2002.29,-175"/>
<polygon fill="black" stroke="black" points="2002.29,-178.5 2012.29,-175 2002.29,-171.5 2002.29,-178.5"/>
</g>
<!-- UserRule -->
<g id="node33" class="node">
<title>UserRule</title>
<ellipse fill="#fdb462" stroke="black" cx="436" cy="-104" rx="47.51" ry="18"/>
<text text-anchor="middle" x="436" y="-99.8" font-family="Times,serif" font-size="14.00">UserRule</text>
</g>
<!-- UserRule&#45;&gt;AuthorizationModule -->
<g id="edge32" class="edge">
<title>UserRule&#45;&gt;AuthorizationModule</title>
<path fill="none" stroke="black" d="M436,-122.29C436,-144.21 436,-178 436,-178 436,-178 2002.15,-178 2002.15,-178"/>
<polygon fill="black" stroke="black" points="2002.15,-181.5 2012.15,-178 2002.15,-174.5 2002.15,-181.5"/>
</g>
</g>
</svg>
