<?xml version="1.0" encoding="UTF-8" standalone="no"?>
<!DOCTYPE svg PUBLIC "-//W3C//DTD SVG 1.1//EN"
 "http://www.w3.org/Graphics/SVG/1.1/DTD/svg11.dtd">
<!-- Generated by graphviz version 2.47.0 (20210316.0004)
 -->
<!-- Title: dependencies Pages: 1 -->
<svg width="4829pt" height="284pt"
 viewBox="0.00 0.00 4829.00 284.00" xmlns="http://www.w3.org/2000/svg" xmlns:xlink="http://www.w3.org/1999/xlink">
<g id="graph0" class="graph" transform="scale(1 1) rotate(0) translate(4 280)">
<title>dependencies</title>
<polygon fill="white" stroke="transparent" points="-4,4 -4,-280 4825,-280 4825,4 -4,4"/>
<text text-anchor="start" x="2389.51" y="-42.4" font-family="Times-12" font-weight="bold" font-size="14.00">Legend</text>
<polygon fill="#ffffb3" stroke="transparent" points="2176.5,-10 2176.5,-30 2196.5,-30 2196.5,-10 2176.5,-10"/>
<text text-anchor="start" x="2200.13" y="-15.4" font-family="Times-12" font-size="14.00"> &#160;Declarations</text>
<polygon fill="#8dd3c7" stroke="transparent" points="2289.5,-10 2289.5,-30 2309.5,-30 2309.5,-10 2289.5,-10"/>
<text text-anchor="start" x="2313.23" y="-15.4" font-family="Times-12" font-size="14.00"> &#160;Module</text>
<polygon fill="#80b1d3" stroke="transparent" points="2375.5,-10 2375.5,-30 2395.5,-30 2395.5,-10 2375.5,-10"/>
<text text-anchor="start" x="2399.28" y="-15.4" font-family="Times-12" font-size="14.00"> &#160;Bootstrap</text>
<polygon fill="#fdb462" stroke="transparent" points="2472.5,-10 2472.5,-30 2492.5,-30 2492.5,-10 2472.5,-10"/>
<text text-anchor="start" x="2496.17" y="-15.4" font-family="Times-12" font-size="14.00"> &#160;Providers</text>
<polygon fill="#fb8072" stroke="transparent" points="2568.5,-10 2568.5,-30 2588.5,-30 2588.5,-10 2568.5,-10"/>
<text text-anchor="start" x="2592.23" y="-15.4" font-family="Times-12" font-size="14.00"> &#160;Exports</text>
<g id="clust1" class="cluster">
<title>cluster_AuthorizationModule</title>
<polygon fill="none" stroke="black" stroke-dasharray="1,5" points="8,-70 8,-268 4813,-268 4813,-70 8,-70"/>
</g>
<g id="clust3" class="cluster">
<title>cluster_AuthorizationModule_imports</title>
<polygon fill="none" stroke="black" points="4449,-78 4449,-130 4805,-130 4805,-78 4449,-78"/>
</g>
<g id="clust4" class="cluster">
<title>cluster_AuthorizationModule_exports</title>
<polygon fill="none" stroke="black" points="2069,-208 2069,-260 2429,-260 2429,-208 2069,-208"/>
</g>
<g id="clust6" class="cluster">
<title>cluster_AuthorizationModule_providers</title>
<polygon fill="none" stroke="black" points="16,-78 16,-130 4441,-130 4441,-78 16,-78"/>
</g>
<!-- FeathersModule -->
<g id="node1" class="node">
<title>FeathersModule</title>
<polygon fill="#8dd3c7" stroke="black" points="4797.47,-122 4794.47,-126 4773.47,-126 4770.47,-122 4690.53,-122 4690.53,-86 4797.47,-86 4797.47,-122"/>
<text text-anchor="middle" x="4744" y="-99.8" font-family="Times,serif" font-size="14.00">FeathersModule</text>
</g>
<!-- AuthorizationModule -->
<g id="node4" class="node">
<title>AuthorizationModule</title>
<polygon fill="#8dd3c7" stroke="black" points="2328.81,-187 2325.81,-191 2304.81,-191 2301.81,-187 2191.19,-187 2191.19,-151 2328.81,-151 2328.81,-187"/>
<text text-anchor="middle" x="2260" y="-164.8" font-family="Times,serif" font-size="14.00">AuthorizationModule</text>
</g>
<!-- FeathersModule&#45;&gt;AuthorizationModule -->
<g id="edge1" class="edge">
<title>FeathersModule&#45;&gt;AuthorizationModule</title>
<path fill="none" stroke="black" d="M4744,-122.38C4744,-146.28 4744,-185 4744,-185 4744,-185 2338.7,-185 2338.7,-185"/>
<polygon fill="black" stroke="black" points="2338.7,-181.5 2328.7,-185 2338.7,-188.5 2338.7,-181.5"/>
</g>
<!-- LoggerModule -->
<g id="node2" class="node">
<title>LoggerModule</title>
<polygon fill="#8dd3c7" stroke="black" points="4672.98,-122 4669.98,-126 4648.98,-126 4645.98,-122 4573.02,-122 4573.02,-86 4672.98,-86 4672.98,-122"/>
<text text-anchor="middle" x="4623" y="-99.8" font-family="Times,serif" font-size="14.00">LoggerModule</text>
</g>
<!-- LoggerModule&#45;&gt;AuthorizationModule -->
<g id="edge2" class="edge">
<title>LoggerModule&#45;&gt;AuthorizationModule</title>
<path fill="none" stroke="black" d="M4623,-122.32C4623,-145.66 4623,-183 4623,-183 4623,-183 2338.8,-183 2338.8,-183"/>
<polygon fill="black" stroke="black" points="2338.8,-179.5 2328.8,-183 2338.8,-186.5 2338.8,-179.5"/>
</g>
<!-- SchoolModule -->
<g id="node3" class="node">
<title>SchoolModule</title>
<polygon fill="#8dd3c7" stroke="black" points="4555.44,-122 4552.44,-126 4531.44,-126 4528.44,-122 4456.56,-122 4456.56,-86 4555.44,-86 4555.44,-122"/>
<text text-anchor="middle" x="4506" y="-99.8" font-family="Times,serif" font-size="14.00">SchoolModule</text>
</g>
<!-- SchoolModule&#45;&gt;AuthorizationModule -->
<g id="edge3" class="edge">
<title>SchoolModule&#45;&gt;AuthorizationModule</title>
<path fill="none" stroke="black" d="M4506,-122.01C4506,-144.49 4506,-180 4506,-180 4506,-180 2338.75,-180 2338.75,-180"/>
<polygon fill="black" stroke="black" points="2338.75,-176.5 2328.75,-180 2338.75,-183.5 2338.75,-176.5"/>
</g>
<!-- AuthorizationService  -->
<g id="node5" class="node">
<title>AuthorizationService </title>
<polygon fill="#fb8072" stroke="black" points="2420.74,-252 2281.26,-252 2281.26,-216 2420.74,-216 2420.74,-252"/>
<text text-anchor="middle" x="2351" y="-229.8" font-family="Times,serif" font-size="14.00">AuthorizationService </text>
</g>
<!-- AuthorizationModule&#45;&gt;AuthorizationService  -->
<g id="edge4" class="edge">
<title>AuthorizationModule&#45;&gt;AuthorizationService </title>
<path fill="none" stroke="black" stroke-dasharray="5,2" d="M2305.02,-187.11C2305.02,-187.11 2305.02,-205.99 2305.02,-205.99"/>
<polygon fill="black" stroke="black" points="2301.52,-205.99 2305.02,-215.99 2308.52,-205.99 2301.52,-205.99"/>
</g>
<!-- FeathersAuthorizationService  -->
<g id="node6" class="node">
<title>FeathersAuthorizationService </title>
<polygon fill="#fb8072" stroke="black" points="2263.16,-252 2076.84,-252 2076.84,-216 2263.16,-216 2263.16,-252"/>
<text text-anchor="middle" x="2170" y="-229.8" font-family="Times,serif" font-size="14.00">FeathersAuthorizationService </text>
</g>
<!-- AuthorizationModule&#45;&gt;FeathersAuthorizationService  -->
<g id="edge5" class="edge">
<title>AuthorizationModule&#45;&gt;FeathersAuthorizationService </title>
<path fill="none" stroke="black" stroke-dasharray="5,2" d="M2227.34,-187.11C2227.34,-187.11 2227.34,-205.99 2227.34,-205.99"/>
<polygon fill="black" stroke="black" points="2223.84,-205.99 2227.34,-215.99 2230.84,-205.99 2223.84,-205.99"/>
</g>
<!-- AuthorizationHelper -->
<g id="node7" class="node">
<title>AuthorizationHelper</title>
<ellipse fill="#fdb462" stroke="black" cx="4342" cy="-104" rx="90.89" ry="18"/>
<text text-anchor="middle" x="4342" y="-99.8" font-family="Times,serif" font-size="14.00">AuthorizationHelper</text>
</g>
<!-- AuthorizationHelper&#45;&gt;AuthorizationModule -->
<g id="edge6" class="edge">
<title>AuthorizationHelper&#45;&gt;AuthorizationModule</title>
<path fill="none" stroke="black" d="M4342,-122.29C4342,-144.21 4342,-178 4342,-178 4342,-178 2338.68,-178 2338.68,-178"/>
<polygon fill="black" stroke="black" points="2338.68,-174.5 2328.68,-178 2338.68,-181.5 2338.68,-174.5"/>
</g>
<!-- AuthorizationService -->
<g id="node8" class="node">
<title>AuthorizationService</title>
<ellipse fill="#fdb462" stroke="black" cx="4139" cy="-104" rx="93.76" ry="18"/>
<text text-anchor="middle" x="4139" y="-99.8" font-family="Times,serif" font-size="14.00">AuthorizationService</text>
</g>
<!-- AuthorizationService&#45;&gt;AuthorizationModule -->
<g id="edge7" class="edge">
<title>AuthorizationService&#45;&gt;AuthorizationModule</title>
<path fill="none" stroke="black" d="M4139,-122.28C4139,-143.32 4139,-175 4139,-175 4139,-175 2338.82,-175 2338.82,-175"/>
<polygon fill="black" stroke="black" points="2338.82,-171.5 2328.82,-175 2338.82,-178.5 2338.82,-171.5"/>
</g>
<!-- BoardDoRule -->
<g id="node9" class="node">
<title>BoardDoRule</title>
<ellipse fill="#fdb462" stroke="black" cx="3963" cy="-104" rx="64.85" ry="18"/>
<text text-anchor="middle" x="3963" y="-99.8" font-family="Times,serif" font-size="14.00">BoardDoRule</text>
</g>
<!-- BoardDoRule&#45;&gt;AuthorizationModule -->
<g id="edge8" class="edge">
<title>BoardDoRule&#45;&gt;AuthorizationModule</title>
<path fill="none" stroke="black" d="M3963,-122.13C3963,-142.57 3963,-173 3963,-173 3963,-173 2338.87,-173 2338.87,-173"/>
<polygon fill="black" stroke="black" points="2338.87,-169.5 2328.87,-173 2338.87,-176.5 2338.87,-169.5"/>
</g>
<!-- ContextExternalToolRule -->
<g id="node10" class="node">
<title>ContextExternalToolRule</title>
<ellipse fill="#fdb462" stroke="black" cx="3770" cy="-104" rx="110.61" ry="18"/>
<text text-anchor="middle" x="3770" y="-99.8" font-family="Times,serif" font-size="14.00">ContextExternalToolRule</text>
</g>
<!-- ContextExternalToolRule&#45;&gt;AuthorizationModule -->
<g id="edge9" class="edge">
<title>ContextExternalToolRule&#45;&gt;AuthorizationModule</title>
<path fill="none" stroke="black" d="M3770,-122.31C3770,-142.15 3770,-171 3770,-171 3770,-171 2338.81,-171 2338.81,-171"/>
<polygon fill="black" stroke="black" points="2338.81,-167.5 2328.81,-171 2338.81,-174.5 2338.81,-167.5"/>
</g>
<!-- CourseGroupRepo -->
<g id="node11" class="node">
<title>CourseGroupRepo</title>
<ellipse fill="#fdb462" stroke="black" cx="3558" cy="-104" rx="83.39" ry="18"/>
<text text-anchor="middle" x="3558" y="-99.8" font-family="Times,serif" font-size="14.00">CourseGroupRepo</text>
</g>
<!-- CourseGroupRepo&#45;&gt;AuthorizationModule -->
<g id="edge10" class="edge">
<title>CourseGroupRepo&#45;&gt;AuthorizationModule</title>
<path fill="none" stroke="black" d="M3558,-122.17C3558,-141.09 3558,-168 3558,-168 3558,-168 2338.87,-168 2338.87,-168"/>
<polygon fill="black" stroke="black" points="2338.87,-164.5 2328.87,-168 2338.87,-171.5 2338.87,-164.5"/>
</g>
<!-- CourseGroupRule -->
<g id="node12" class="node">
<title>CourseGroupRule</title>
<ellipse fill="#fdb462" stroke="black" cx="3375" cy="-104" rx="81.1" ry="18"/>
<text text-anchor="middle" x="3375" y="-99.8" font-family="Times,serif" font-size="14.00">CourseGroupRule</text>
</g>
<!-- CourseGroupRule&#45;&gt;AuthorizationModule -->
<g id="edge11" class="edge">
<title>CourseGroupRule&#45;&gt;AuthorizationModule</title>
<path fill="none" stroke="black" d="M3375,-122.27C3375,-140.56 3375,-166 3375,-166 3375,-166 2338.91,-166 2338.91,-166"/>
<polygon fill="black" stroke="black" points="2338.91,-162.5 2328.91,-166 2338.91,-169.5 2338.91,-162.5"/>
</g>
<!-- CourseRepo -->
<g id="node13" class="node">
<title>CourseRepo</title>
<ellipse fill="#fdb462" stroke="black" cx="3217" cy="-104" rx="58.55" ry="18"/>
<text text-anchor="middle" x="3217" y="-99.8" font-family="Times,serif" font-size="14.00">CourseRepo</text>
</g>
<!-- CourseRepo&#45;&gt;AuthorizationModule -->
<g id="edge12" class="edge">
<title>CourseRepo&#45;&gt;AuthorizationModule</title>
<path fill="none" stroke="black" d="M3217,-122.02C3217,-139.37 3217,-163 3217,-163 3217,-163 2338.83,-163 2338.83,-163"/>
<polygon fill="black" stroke="black" points="2338.83,-159.5 2328.83,-163 2338.83,-166.5 2338.83,-159.5"/>
</g>
<!-- CourseRule -->
<g id="node14" class="node">
<title>CourseRule</title>
<ellipse fill="#fdb462" stroke="black" cx="3084" cy="-104" rx="56.76" ry="18"/>
<text text-anchor="middle" x="3084" y="-99.8" font-family="Times,serif" font-size="14.00">CourseRule</text>
</g>
<!-- CourseRule&#45;&gt;AuthorizationModule -->
<g id="edge13" class="edge">
<title>CourseRule&#45;&gt;AuthorizationModule</title>
<path fill="none" stroke="black" d="M3084,-122.04C3084,-138.73 3084,-161 3084,-161 3084,-161 2338.84,-161 2338.84,-161"/>
<polygon fill="black" stroke="black" points="2338.84,-157.5 2328.84,-161 2338.84,-164.5 2338.84,-157.5"/>
</g>
<!-- FeathersAuthProvider -->
<g id="node15" class="node">
<title>FeathersAuthProvider</title>
<ellipse fill="#fdb462" stroke="black" cx="2913" cy="-104" rx="96.13" ry="18"/>
<text text-anchor="middle" x="2913" y="-99.8" font-family="Times,serif" font-size="14.00">FeathersAuthProvider</text>
</g>
<!-- FeathersAuthProvider&#45;&gt;AuthorizationModule -->
<g id="edge14" class="edge">
<title>FeathersAuthProvider&#45;&gt;AuthorizationModule</title>
<path fill="none" stroke="black" d="M2913,-122.01C2913,-138.05 2913,-159 2913,-159 2913,-159 2338.96,-159 2338.96,-159"/>
<polygon fill="black" stroke="black" points="2338.96,-155.5 2328.96,-159 2338.96,-162.5 2338.96,-155.5"/>
</g>
<!-- FeathersAuthorizationService -->
<g id="node16" class="node">
<title>FeathersAuthorizationService</title>
<ellipse fill="#fdb462" stroke="black" cx="2672" cy="-104" rx="126.18" ry="18"/>
<text text-anchor="middle" x="2672" y="-99.8" font-family="Times,serif" font-size="14.00">FeathersAuthorizationService</text>
</g>
<!-- FeathersAuthorizationService&#45;&gt;AuthorizationModule -->
<g id="edge15" class="edge">
<title>FeathersAuthorizationService&#45;&gt;AuthorizationModule</title>
<path fill="none" stroke="black" d="M2672,-122.19C2672,-137.18 2672,-156 2672,-156 2672,-156 2338.96,-156 2338.96,-156"/>
<polygon fill="black" stroke="black" points="2338.96,-152.5 2328.96,-156 2338.96,-159.5 2338.96,-152.5"/>
</g>
<!-- LessonRepo -->
<g id="node17" class="node">
<title>LessonRepo</title>
<ellipse fill="#fdb462" stroke="black" cx="2469" cy="-104" rx="58.55" ry="18"/>
<text text-anchor="middle" x="2469" y="-99.8" font-family="Times,serif" font-size="14.00">LessonRepo</text>
</g>
<!-- LessonRepo&#45;&gt;AuthorizationModule -->
<g id="edge16" class="edge">
<title>LessonRepo&#45;&gt;AuthorizationModule</title>
<path fill="none" stroke="black" d="M2415.42,-111.81C2415.42,-125.88 2415.42,-154 2415.42,-154 2415.42,-154 2339.08,-154 2339.08,-154"/>
<polygon fill="black" stroke="black" points="2339.08,-150.5 2329.08,-154 2339.08,-157.5 2339.08,-150.5"/>
</g>
<!-- LessonRule -->
<g id="node18" class="node">
<title>LessonRule</title>
<ellipse fill="#fdb462" stroke="black" cx="2336" cy="-104" rx="56.76" ry="18"/>
<text text-anchor="middle" x="2336" y="-99.8" font-family="Times,serif" font-size="14.00">LessonRule</text>
</g>
<!-- LessonRule&#45;&gt;AuthorizationModule -->
<g id="edge17" class="edge">
<title>LessonRule&#45;&gt;AuthorizationModule</title>
<path fill="none" stroke="black" d="M2304.01,-119.08C2304.01,-119.08 2304.01,-140.76 2304.01,-140.76"/>
<polygon fill="black" stroke="black" points="2300.51,-140.76 2304.01,-150.76 2307.51,-140.76 2300.51,-140.76"/>
</g>
<!-- ReferenceLoader -->
<g id="node19" class="node">
<title>ReferenceLoader</title>
<ellipse fill="#fdb462" stroke="black" cx="2184" cy="-104" rx="77.53" ry="18"/>
<text text-anchor="middle" x="2184" y="-99.8" font-family="Times,serif" font-size="14.00">ReferenceLoader</text>
</g>
<!-- ReferenceLoader&#45;&gt;AuthorizationModule -->
<g id="edge18" class="edge">
<title>ReferenceLoader&#45;&gt;AuthorizationModule</title>
<path fill="none" stroke="black" d="M2226.43,-119.08C2226.43,-119.08 2226.43,-140.76 2226.43,-140.76"/>
<polygon fill="black" stroke="black" points="2222.93,-140.76 2226.43,-150.76 2229.93,-140.76 2222.93,-140.76"/>
</g>
<!-- RuleManager -->
<g id="node20" class="node">
<title>RuleManager</title>
<ellipse fill="#fdb462" stroke="black" cx="2025" cy="-104" rx="63.68" ry="18"/>
<text text-anchor="middle" x="2025" y="-99.8" font-family="Times,serif" font-size="14.00">RuleManager</text>
</g>
<!-- RuleManager&#45;&gt;AuthorizationModule -->
<g id="edge19" class="edge">
<title>RuleManager&#45;&gt;AuthorizationModule</title>
<path fill="none" stroke="black" d="M2082.63,-111.81C2082.63,-125.88 2082.63,-154 2082.63,-154 2082.63,-154 2181.17,-154 2181.17,-154"/>
<polygon fill="black" stroke="black" points="2181.17,-157.5 2191.17,-154 2181.17,-150.5 2181.17,-157.5"/>
</g>
<!-- SchoolExternalToolRepo -->
<g id="node21" class="node">
<title>SchoolExternalToolRepo</title>
<ellipse fill="#fdb462" stroke="black" cx="1834" cy="-104" rx="109.39" ry="18"/>
<text text-anchor="middle" x="1834" y="-99.8" font-family="Times,serif" font-size="14.00">SchoolExternalToolRepo</text>
</g>
<!-- SchoolExternalToolRepo&#45;&gt;AuthorizationModule -->
<g id="edge20" class="edge">
<title>SchoolExternalToolRepo&#45;&gt;AuthorizationModule</title>
<path fill="none" stroke="black" d="M1834,-122.19C1834,-137.18 1834,-156 1834,-156 1834,-156 2181.08,-156 2181.08,-156"/>
<polygon fill="black" stroke="black" points="2181.08,-159.5 2191.08,-156 2181.08,-152.5 2181.08,-159.5"/>
</g>
<!-- SchoolExternalToolRule -->
<g id="node22" class="node">
<title>SchoolExternalToolRule</title>
<ellipse fill="#fdb462" stroke="black" cx="1600" cy="-104" rx="107.1" ry="18"/>
<text text-anchor="middle" x="1600" y="-99.8" font-family="Times,serif" font-size="14.00">SchoolExternalToolRule</text>
</g>
<!-- SchoolExternalToolRule&#45;&gt;AuthorizationModule -->
<g id="edge21" class="edge">
<title>SchoolExternalToolRule&#45;&gt;AuthorizationModule</title>
<path fill="none" stroke="black" d="M1600,-122.01C1600,-138.05 1600,-159 1600,-159 1600,-159 2181.24,-159 2181.24,-159"/>
<polygon fill="black" stroke="black" points="2181.24,-162.5 2191.24,-159 2181.24,-155.5 2181.24,-162.5"/>
</g>
<!-- SchoolRepo -->
<g id="node23" class="node">
<title>SchoolRepo</title>
<ellipse fill="#fdb462" stroke="black" cx="1417" cy="-104" rx="58.49" ry="18"/>
<text text-anchor="middle" x="1417" y="-99.8" font-family="Times,serif" font-size="14.00">SchoolRepo</text>
</g>
<!-- SchoolRepo&#45;&gt;AuthorizationModule -->
<g id="edge22" class="edge">
<title>SchoolRepo&#45;&gt;AuthorizationModule</title>
<path fill="none" stroke="black" d="M1417,-122.04C1417,-138.73 1417,-161 1417,-161 1417,-161 2181.01,-161 2181.01,-161"/>
<polygon fill="black" stroke="black" points="2181.01,-164.5 2191.01,-161 2181.01,-157.5 2181.01,-164.5"/>
</g>
<!-- SchoolRule -->
<g id="node24" class="node">
<title>SchoolRule</title>
<ellipse fill="#fdb462" stroke="black" cx="1285" cy="-104" rx="56.2" ry="18"/>
<text text-anchor="middle" x="1285" y="-99.8" font-family="Times,serif" font-size="14.00">SchoolRule</text>
</g>
<!-- SchoolRule&#45;&gt;AuthorizationModule -->
<g id="edge23" class="edge">
<title>SchoolRule&#45;&gt;AuthorizationModule</title>
<path fill="none" stroke="black" d="M1285,-122.02C1285,-139.37 1285,-163 1285,-163 1285,-163 2181.05,-163 2181.05,-163"/>
<polygon fill="black" stroke="black" points="2181.05,-166.5 2191.05,-163 2181.05,-159.5 2181.05,-166.5"/>
</g>
<!-- SubmissionRepo -->
<g id="node25" class="node">
<title>SubmissionRepo</title>
<ellipse fill="#fdb462" stroke="black" cx="1134" cy="-104" rx="76.49" ry="18"/>
<text text-anchor="middle" x="1134" y="-99.8" font-family="Times,serif" font-size="14.00">SubmissionRepo</text>
</g>
<!-- SubmissionRepo&#45;&gt;AuthorizationModule -->
<g id="edge24" class="edge">
<title>SubmissionRepo&#45;&gt;AuthorizationModule</title>
<path fill="none" stroke="black" d="M1134,-122.27C1134,-140.56 1134,-166 1134,-166 1134,-166 2181.26,-166 2181.26,-166"/>
<polygon fill="black" stroke="black" points="2181.26,-169.5 2191.26,-166 2181.26,-162.5 2181.26,-169.5"/>
</g>
<!-- SubmissionRule -->
<g id="node26" class="node">
<title>SubmissionRule</title>
<ellipse fill="#fdb462" stroke="black" cx="965" cy="-104" rx="74.2" ry="18"/>
<text text-anchor="middle" x="965" y="-99.8" font-family="Times,serif" font-size="14.00">SubmissionRule</text>
</g>
<!-- SubmissionRule&#45;&gt;AuthorizationModule -->
<g id="edge25" class="edge">
<title>SubmissionRule&#45;&gt;AuthorizationModule</title>
<path fill="none" stroke="black" d="M965,-122.17C965,-141.09 965,-168 965,-168 965,-168 2181.29,-168 2181.29,-168"/>
<polygon fill="black" stroke="black" points="2181.29,-171.5 2191.29,-168 2181.29,-164.5 2181.29,-171.5"/>
</g>
<!-- TaskCardRule -->
<g id="node27" class="node">
<title>TaskCardRule</title>
<ellipse fill="#fdb462" stroke="black" cx="806" cy="-104" rx="66.63" ry="18"/>
<text text-anchor="middle" x="806" y="-99.8" font-family="Times,serif" font-size="14.00">TaskCardRule</text>
</g>
<!-- TaskCardRule&#45;&gt;AuthorizationModule -->
<g id="edge26" class="edge">
<title>TaskCardRule&#45;&gt;AuthorizationModule</title>
<path fill="none" stroke="black" d="M806,-122.31C806,-142.15 806,-171 806,-171 806,-171 2181.34,-171 2181.34,-171"/>
<polygon fill="black" stroke="black" points="2181.34,-174.5 2191.34,-171 2181.34,-167.5 2181.34,-174.5"/>
</g>
<!-- TaskRepo -->
<g id="node28" class="node">
<title>TaskRepo</title>
<ellipse fill="#fdb462" stroke="black" cx="671" cy="-104" rx="50.38" ry="18"/>
<text text-anchor="middle" x="671" y="-99.8" font-family="Times,serif" font-size="14.00">TaskRepo</text>
</g>
<!-- TaskRepo&#45;&gt;AuthorizationModule -->
<g id="edge27" class="edge">
<title>TaskRepo&#45;&gt;AuthorizationModule</title>
<path fill="none" stroke="black" d="M671,-122.13C671,-142.57 671,-173 671,-173 671,-173 2181.21,-173 2181.21,-173"/>
<polygon fill="black" stroke="black" points="2181.21,-176.5 2191.21,-173 2181.21,-169.5 2181.21,-176.5"/>
</g>
<!-- TaskRule -->
<g id="node29" class="node">
<title>TaskRule</title>
<ellipse fill="#fdb462" stroke="black" cx="555" cy="-104" rx="48.09" ry="18"/>
<text text-anchor="middle" x="555" y="-99.8" font-family="Times,serif" font-size="14.00">TaskRule</text>
</g>
<!-- TaskRule&#45;&gt;AuthorizationModule -->
<g id="edge28" class="edge">
<title>TaskRule&#45;&gt;AuthorizationModule</title>
<path fill="none" stroke="black" d="M555,-122.28C555,-143.32 555,-175 555,-175 555,-175 2181.32,-175 2181.32,-175"/>
<polygon fill="black" stroke="black" points="2181.32,-178.5 2191.32,-175 2181.32,-171.5 2181.32,-178.5"/>
</g>
<!-- TeamRule -->
<g id="node30" class="node">
<title>TeamRule</title>
<ellipse fill="#fdb462" stroke="black" cx="438" cy="-104" rx="51.02" ry="18"/>
<text text-anchor="middle" x="438" y="-99.8" font-family="Times,serif" font-size="14.00">TeamRule</text>
</g>
<!-- TeamRule&#45;&gt;AuthorizationModule -->
<g id="edge29" class="edge">
<title>TeamRule&#45;&gt;AuthorizationModule</title>
<path fill="none" stroke="black" d="M438,-122.29C438,-144.21 438,-178 438,-178 438,-178 2181.08,-178 2181.08,-178"/>
<polygon fill="black" stroke="black" points="2181.08,-181.5 2191.08,-178 2181.08,-174.5 2181.08,-181.5"/>
</g>
<!-- TeamsRepo -->
<g id="node31" class="node">
<title>TeamsRepo</title>
<ellipse fill="#fdb462" stroke="black" cx="312" cy="-104" rx="57.32" ry="18"/>
<text text-anchor="middle" x="312" y="-99.8" font-family="Times,serif" font-size="14.00">TeamsRepo</text>
</g>
<!-- TeamsRepo&#45;&gt;AuthorizationModule -->
<g id="edge30" class="edge">
<title>TeamsRepo&#45;&gt;AuthorizationModule</title>
<path fill="none" stroke="black" d="M312,-122.01C312,-144.49 312,-180 312,-180 312,-180 2181.24,-180 2181.24,-180"/>
<polygon fill="black" stroke="black" points="2181.24,-183.5 2191.24,-180 2181.24,-176.5 2181.24,-183.5"/>
</g>
<!-- UserRepo -->
<g id="node32" class="node">
<title>UserRepo</title>
<ellipse fill="#fdb462" stroke="black" cx="187" cy="-104" rx="49.8" ry="18"/>
<text text-anchor="middle" x="187" y="-99.8" font-family="Times,serif" font-size="14.00">UserRepo</text>
</g>
<!-- UserRepo&#45;&gt;AuthorizationModule -->
<g id="edge31" class="edge">
<title>UserRepo&#45;&gt;AuthorizationModule</title>
<path fill="none" stroke="black" d="M187,-122.32C187,-145.66 187,-183 187,-183 187,-183 2181.32,-183 2181.32,-183"/>
<polygon fill="black" stroke="black" points="2181.32,-186.5 2191.32,-183 2181.32,-179.5 2181.32,-186.5"/>
</g>
<!-- UserRule -->
<g id="node33" class="node">
<title>UserRule</title>
<ellipse fill="#fdb462" stroke="black" cx="72" cy="-104" rx="47.51" ry="18"/>
<text text-anchor="middle" x="72" y="-99.8" font-family="Times,serif" font-size="14.00">UserRule</text>
</g>
<!-- UserRule&#45;&gt;AuthorizationModule -->
<g id="edge32" class="edge">
<title>UserRule&#45;&gt;AuthorizationModule</title>
<path fill="none" stroke="black" d="M72,-122.38C72,-146.28 72,-185 72,-185 72,-185 2181.21,-185 2181.21,-185"/>
<polygon fill="black" stroke="black" points="2181.21,-188.5 2191.21,-185 2181.21,-181.5 2181.21,-188.5"/>
</g>
</g>
</svg>
