<?xml version="1.0" encoding="UTF-8" standalone="no"?>
<!DOCTYPE svg PUBLIC "-//W3C//DTD SVG 1.1//EN"
 "http://www.w3.org/Graphics/SVG/1.1/DTD/svg11.dtd">
<!-- Generated by graphviz version 2.47.0 (20210316.0004)
 -->
<!-- Title: dependencies Pages: 1 -->
<svg width="3941pt" height="284pt"
 viewBox="0.00 0.00 3941.00 284.00" xmlns="http://www.w3.org/2000/svg" xmlns:xlink="http://www.w3.org/1999/xlink">
<g id="graph0" class="graph" transform="scale(1 1) rotate(0) translate(4 280)">
<title>dependencies</title>
<polygon fill="white" stroke="transparent" points="-4,4 -4,-280 3937,-280 3937,4 -4,4"/>
<text text-anchor="start" x="1945.51" y="-42.4" font-family="Times-12" font-weight="bold" font-size="14.00">Legend</text>
<polygon fill="#ffffb3" stroke="transparent" points="1732.5,-10 1732.5,-30 1752.5,-30 1752.5,-10 1732.5,-10"/>
<text text-anchor="start" x="1756.13" y="-15.4" font-family="Times-12" font-size="14.00"> &#160;Declarations</text>
<polygon fill="#8dd3c7" stroke="transparent" points="1845.5,-10 1845.5,-30 1865.5,-30 1865.5,-10 1845.5,-10"/>
<text text-anchor="start" x="1869.23" y="-15.4" font-family="Times-12" font-size="14.00"> &#160;Module</text>
<polygon fill="#80b1d3" stroke="transparent" points="1931.5,-10 1931.5,-30 1951.5,-30 1951.5,-10 1931.5,-10"/>
<text text-anchor="start" x="1955.28" y="-15.4" font-family="Times-12" font-size="14.00"> &#160;Bootstrap</text>
<polygon fill="#fdb462" stroke="transparent" points="2028.5,-10 2028.5,-30 2048.5,-30 2048.5,-10 2028.5,-10"/>
<text text-anchor="start" x="2052.17" y="-15.4" font-family="Times-12" font-size="14.00"> &#160;Providers</text>
<polygon fill="#fb8072" stroke="transparent" points="2124.5,-10 2124.5,-30 2144.5,-30 2144.5,-10 2124.5,-10"/>
<text text-anchor="start" x="2148.23" y="-15.4" font-family="Times-12" font-size="14.00"> &#160;Exports</text>
<g id="clust1" class="cluster">
<title>cluster_AuthorizationModule</title>
<polygon fill="none" stroke="black" stroke-dasharray="1,5" points="8,-70 8,-268 3925,-268 3925,-70 8,-70"/>
</g>
<g id="clust3" class="cluster">
<title>cluster_AuthorizationModule_imports</title>
<polygon fill="none" stroke="black" points="3677,-78 3677,-130 3917,-130 3917,-78 3677,-78"/>
</g>
<g id="clust4" class="cluster">
<title>cluster_AuthorizationModule_exports</title>
<polygon fill="none" stroke="black" points="1659,-208 1659,-260 2125,-260 2125,-208 1659,-208"/>
</g>
<g id="clust6" class="cluster">
<title>cluster_AuthorizationModule_providers</title>
<polygon fill="none" stroke="black" points="16,-78 16,-130 3669,-130 3669,-78 16,-78"/>
</g>
<!-- FeathersModule -->
<g id="node1" class="node">
<title>FeathersModule</title>
<polygon fill="#8dd3c7" stroke="black" points="3909.47,-122 3906.47,-126 3885.47,-126 3882.47,-122 3802.53,-122 3802.53,-86 3909.47,-86 3909.47,-122"/>
<text text-anchor="middle" x="3856" y="-99.8" font-family="Times,serif" font-size="14.00">FeathersModule</text>
</g>
<!-- AuthorizationModule -->
<g id="node3" class="node">
<title>AuthorizationModule</title>
<polygon fill="#8dd3c7" stroke="black" points="1934.81,-187 1931.81,-191 1910.81,-191 1907.81,-187 1797.19,-187 1797.19,-151 1934.81,-151 1934.81,-187"/>
<text text-anchor="middle" x="1866" y="-164.8" font-family="Times,serif" font-size="14.00">AuthorizationModule</text>
</g>
<!-- FeathersModule&#45;&gt;AuthorizationModule -->
<g id="edge1" class="edge">
<title>FeathersModule&#45;&gt;AuthorizationModule</title>
<path fill="none" stroke="black" d="M3856,-122.09C3856,-145.13 3856,-182 3856,-182 3856,-182 1944.79,-182 1944.79,-182"/>
<polygon fill="black" stroke="black" points="1944.79,-178.5 1934.79,-182 1944.79,-185.5 1944.79,-178.5"/>
</g>
<!-- LoggerModule -->
<g id="node2" class="node">
<title>LoggerModule</title>
<polygon fill="#8dd3c7" stroke="black" points="3784.98,-122 3781.98,-126 3760.98,-126 3757.98,-122 3685.02,-122 3685.02,-86 3784.98,-86 3784.98,-122"/>
<text text-anchor="middle" x="3735" y="-99.8" font-family="Times,serif" font-size="14.00">LoggerModule</text>
</g>
<!-- LoggerModule&#45;&gt;AuthorizationModule -->
<g id="edge2" class="edge">
<title>LoggerModule&#45;&gt;AuthorizationModule</title>
<path fill="none" stroke="black" d="M3735,-122.16C3735,-144.35 3735,-179 3735,-179 3735,-179 1944.74,-179 1944.74,-179"/>
<polygon fill="black" stroke="black" points="1944.74,-175.5 1934.74,-179 1944.74,-182.5 1944.74,-175.5"/>
</g>
<!-- AuthorizationService  -->
<g id="node4" class="node">
<title>AuthorizationService </title>
<polygon fill="#fb8072" stroke="black" points="2116.74,-252 1977.26,-252 1977.26,-216 2116.74,-216 2116.74,-252"/>
<text text-anchor="middle" x="2047" y="-229.8" font-family="Times,serif" font-size="14.00">AuthorizationService </text>
</g>
<!-- AuthorizationModule&#45;&gt;AuthorizationService  -->
<g id="edge3" class="edge">
<title>AuthorizationModule&#45;&gt;AuthorizationService </title>
<path fill="none" stroke="black" stroke-dasharray="5,2" d="M1935.07,-185C1978.61,-185 2026.66,-185 2026.66,-185 2026.66,-185 2026.66,-205.75 2026.66,-205.75"/>
<polygon fill="black" stroke="black" points="2023.16,-205.75 2026.66,-215.75 2030.16,-205.75 2023.16,-205.75"/>
</g>
<!-- FeathersAuthorizationService  -->
<g id="node5" class="node">
<title>FeathersAuthorizationService </title>
<polygon fill="#fb8072" stroke="black" points="1959.16,-252 1772.84,-252 1772.84,-216 1959.16,-216 1959.16,-252"/>
<text text-anchor="middle" x="1866" y="-229.8" font-family="Times,serif" font-size="14.00">FeathersAuthorizationService </text>
</g>
<!-- AuthorizationModule&#45;&gt;FeathersAuthorizationService  -->
<g id="edge4" class="edge">
<title>AuthorizationModule&#45;&gt;FeathersAuthorizationService </title>
<path fill="none" stroke="black" stroke-dasharray="5,2" d="M1866,-187.11C1866,-187.11 1866,-205.99 1866,-205.99"/>
<polygon fill="black" stroke="black" points="1862.5,-205.99 1866,-215.99 1869.5,-205.99 1862.5,-205.99"/>
</g>
<!-- SystemRule  -->
<g id="node6" class="node">
<title>SystemRule </title>
<polygon fill="#fb8072" stroke="black" points="1754.66,-252 1667.34,-252 1667.34,-216 1754.66,-216 1754.66,-252"/>
<text text-anchor="middle" x="1711" y="-229.8" font-family="Times,serif" font-size="14.00">SystemRule </text>
</g>
<!-- AuthorizationModule&#45;&gt;SystemRule  -->
<g id="edge5" class="edge">
<title>AuthorizationModule&#45;&gt;SystemRule </title>
<path fill="none" stroke="black" stroke-dasharray="5,2" d="M1797.11,-185C1755.72,-185 1711,-185 1711,-185 1711,-185 1711,-205.75 1711,-205.75"/>
<polygon fill="black" stroke="black" points="1707.5,-205.75 1711,-215.75 1714.5,-205.75 1707.5,-205.75"/>
</g>
<!-- AuthorizationHelper -->
<g id="node7" class="node">
<title>AuthorizationHelper</title>
<ellipse fill="#fdb462" stroke="black" cx="3570" cy="-104" rx="90.89" ry="18"/>
<text text-anchor="middle" x="3570" y="-99.8" font-family="Times,serif" font-size="14.00">AuthorizationHelper</text>
</g>
<!-- AuthorizationHelper&#45;&gt;AuthorizationModule -->
<g id="edge6" class="edge">
<title>AuthorizationHelper&#45;&gt;AuthorizationModule</title>
<path fill="none" stroke="black" d="M3570,-122.17C3570,-143.5 3570,-176 3570,-176 3570,-176 1944.91,-176 1944.91,-176"/>
<polygon fill="black" stroke="black" points="1944.91,-172.5 1934.91,-176 1944.91,-179.5 1944.91,-172.5"/>
</g>
<!-- AuthorizationService -->
<g id="node8" class="node">
<title>AuthorizationService</title>
<ellipse fill="#fdb462" stroke="black" cx="3367" cy="-104" rx="93.76" ry="18"/>
<text text-anchor="middle" x="3367" y="-99.8" font-family="Times,serif" font-size="14.00">AuthorizationService</text>
</g>
<!-- AuthorizationService&#45;&gt;AuthorizationModule -->
<g id="edge7" class="edge">
<title>AuthorizationService&#45;&gt;AuthorizationModule</title>
<path fill="none" stroke="black" d="M3367,-122.03C3367,-142.77 3367,-174 3367,-174 3367,-174 1944.89,-174 1944.89,-174"/>
<polygon fill="black" stroke="black" points="1944.89,-170.5 1934.89,-174 1944.89,-177.5 1944.89,-170.5"/>
</g>
<!-- BoardDoRule -->
<g id="node9" class="node">
<title>BoardDoRule</title>
<ellipse fill="#fdb462" stroke="black" cx="3191" cy="-104" rx="64.85" ry="18"/>
<text text-anchor="middle" x="3191" y="-99.8" font-family="Times,serif" font-size="14.00">BoardDoRule</text>
</g>
<!-- BoardDoRule&#45;&gt;AuthorizationModule -->
<g id="edge8" class="edge">
<title>BoardDoRule&#45;&gt;AuthorizationModule</title>
<path fill="none" stroke="black" d="M3191,-122.31C3191,-142.15 3191,-171 3191,-171 3191,-171 1944.91,-171 1944.91,-171"/>
<polygon fill="black" stroke="black" points="1944.91,-167.5 1934.91,-171 1944.91,-174.5 1944.91,-167.5"/>
</g>
<!-- ContextExternalToolRule -->
<g id="node10" class="node">
<title>ContextExternalToolRule</title>
<ellipse fill="#fdb462" stroke="black" cx="2998" cy="-104" rx="110.61" ry="18"/>
<text text-anchor="middle" x="2998" y="-99.8" font-family="Times,serif" font-size="14.00">ContextExternalToolRule</text>
</g>
<!-- ContextExternalToolRule&#45;&gt;AuthorizationModule -->
<g id="edge9" class="edge">
<title>ContextExternalToolRule&#45;&gt;AuthorizationModule</title>
<path fill="none" stroke="black" d="M2998,-122.17C2998,-141.09 2998,-168 2998,-168 2998,-168 1944.68,-168 1944.68,-168"/>
<polygon fill="black" stroke="black" points="1944.68,-164.5 1934.68,-168 1944.68,-171.5 1944.68,-164.5"/>
</g>
<!-- CourseGroupRule -->
<g id="node11" class="node">
<title>CourseGroupRule</title>
<ellipse fill="#fdb462" stroke="black" cx="2788" cy="-104" rx="81.1" ry="18"/>
<text text-anchor="middle" x="2788" y="-99.8" font-family="Times,serif" font-size="14.00">CourseGroupRule</text>
</g>
<!-- CourseGroupRule&#45;&gt;AuthorizationModule -->
<g id="edge10" class="edge">
<title>CourseGroupRule&#45;&gt;AuthorizationModule</title>
<path fill="none" stroke="black" d="M2788,-122.3C2788,-140.27 2788,-165 2788,-165 2788,-165 1944.92,-165 1944.92,-165"/>
<polygon fill="black" stroke="black" points="1944.92,-161.5 1934.92,-165 1944.92,-168.5 1944.92,-161.5"/>
</g>
<!-- CourseRule -->
<g id="node12" class="node">
<title>CourseRule</title>
<ellipse fill="#fdb462" stroke="black" cx="2632" cy="-104" rx="56.76" ry="18"/>
<text text-anchor="middle" x="2632" y="-99.8" font-family="Times,serif" font-size="14.00">CourseRule</text>
</g>
<!-- CourseRule&#45;&gt;AuthorizationModule -->
<g id="edge11" class="edge">
<title>CourseRule&#45;&gt;AuthorizationModule</title>
<path fill="none" stroke="black" d="M2632,-122.02C2632,-139.37 2632,-163 2632,-163 2632,-163 1944.99,-163 1944.99,-163"/>
<polygon fill="black" stroke="black" points="1944.99,-159.5 1934.99,-163 1944.99,-166.5 1944.99,-159.5"/>
</g>
<!-- FeathersAuthProvider -->
<g id="node13" class="node">
<title>FeathersAuthProvider</title>
<ellipse fill="#fdb462" stroke="black" cx="2461" cy="-104" rx="96.13" ry="18"/>
<text text-anchor="middle" x="2461" y="-99.8" font-family="Times,serif" font-size="14.00">FeathersAuthProvider</text>
</g>
<!-- FeathersAuthProvider&#45;&gt;AuthorizationModule -->
<g id="edge12" class="edge">
<title>FeathersAuthProvider&#45;&gt;AuthorizationModule</title>
<path fill="none" stroke="black" d="M2461,-122.03C2461,-138.4 2461,-160 2461,-160 2461,-160 1944.84,-160 1944.84,-160"/>
<polygon fill="black" stroke="black" points="1944.84,-156.5 1934.84,-160 1944.84,-163.5 1944.84,-156.5"/>
</g>
<!-- FeathersAuthorizationService -->
<g id="node14" class="node">
<title>FeathersAuthorizationService</title>
<ellipse fill="#fdb462" stroke="black" cx="2220" cy="-104" rx="126.18" ry="18"/>
<text text-anchor="middle" x="2220" y="-99.8" font-family="Times,serif" font-size="14.00">FeathersAuthorizationService</text>
</g>
<!-- FeathersAuthorizationService&#45;&gt;AuthorizationModule -->
<g id="edge13" class="edge">
<title>FeathersAuthorizationService&#45;&gt;AuthorizationModule</title>
<path fill="none" stroke="black" d="M2105.14,-111.82C2105.14,-126.56 2105.14,-157 2105.14,-157 2105.14,-157 1944.85,-157 1944.85,-157"/>
<polygon fill="black" stroke="black" points="1944.85,-153.5 1934.85,-157 1944.85,-160.5 1944.85,-153.5"/>
</g>
<!-- GroupRule -->
<g id="node15" class="node">
<title>GroupRule</title>
<ellipse fill="#fdb462" stroke="black" cx="2022" cy="-104" rx="53.89" ry="18"/>
<text text-anchor="middle" x="2022" y="-99.8" font-family="Times,serif" font-size="14.00">GroupRule</text>
</g>
<!-- GroupRule&#45;&gt;AuthorizationModule -->
<g id="edge14" class="edge">
<title>GroupRule&#45;&gt;AuthorizationModule</title>
<path fill="none" stroke="black" d="M1972.72,-111.38C1972.72,-125.29 1972.72,-154 1972.72,-154 1972.72,-154 1944.79,-154 1944.79,-154"/>
<polygon fill="black" stroke="black" points="1944.79,-150.5 1934.79,-154 1944.79,-157.5 1944.79,-150.5"/>
</g>
<!-- LegacySchoolRule -->
<g id="node16" class="node">
<title>LegacySchoolRule</title>
<ellipse fill="#fdb462" stroke="black" cx="1866" cy="-104" rx="84.53" ry="18"/>
<text text-anchor="middle" x="1866" y="-99.8" font-family="Times,serif" font-size="14.00">LegacySchoolRule</text>
</g>
<!-- LegacySchoolRule&#45;&gt;AuthorizationModule -->
<g id="edge15" class="edge">
<title>LegacySchoolRule&#45;&gt;AuthorizationModule</title>
<path fill="none" stroke="black" d="M1866,-122.11C1866,-122.11 1866,-140.99 1866,-140.99"/>
<polygon fill="black" stroke="black" points="1862.5,-140.99 1866,-150.99 1869.5,-140.99 1862.5,-140.99"/>
</g>
<!-- LessonRule -->
<g id="node17" class="node">
<title>LessonRule</title>
<ellipse fill="#fdb462" stroke="black" cx="1707" cy="-104" rx="56.76" ry="18"/>
<text text-anchor="middle" x="1707" y="-99.8" font-family="Times,serif" font-size="14.00">LessonRule</text>
</g>
<!-- LessonRule&#45;&gt;AuthorizationModule -->
<g id="edge16" class="edge">
<title>LessonRule&#45;&gt;AuthorizationModule</title>
<path fill="none" stroke="black" d="M1759.11,-111.38C1759.11,-125.29 1759.11,-154 1759.11,-154 1759.11,-154 1787.09,-154 1787.09,-154"/>
<polygon fill="black" stroke="black" points="1787.09,-157.5 1797.09,-154 1787.09,-150.5 1787.09,-157.5"/>
</g>
<!-- RuleManager -->
<g id="node18" class="node">
<title>RuleManager</title>
<ellipse fill="#fdb462" stroke="black" cx="1569" cy="-104" rx="63.68" ry="18"/>
<text text-anchor="middle" x="1569" y="-99.8" font-family="Times,serif" font-size="14.00">RuleManager</text>
</g>
<!-- RuleManager&#45;&gt;AuthorizationModule -->
<g id="edge17" class="edge">
<title>RuleManager&#45;&gt;AuthorizationModule</title>
<path fill="none" stroke="black" d="M1569,-122.24C1569,-137.57 1569,-157 1569,-157 1569,-157 1787.12,-157 1787.12,-157"/>
<polygon fill="black" stroke="black" points="1787.12,-160.5 1797.12,-157 1787.12,-153.5 1787.12,-160.5"/>
</g>
<!-- SchoolExternalToolRule -->
<g id="node19" class="node">
<title>SchoolExternalToolRule</title>
<ellipse fill="#fdb462" stroke="black" cx="1380" cy="-104" rx="107.1" ry="18"/>
<text text-anchor="middle" x="1380" y="-99.8" font-family="Times,serif" font-size="14.00">SchoolExternalToolRule</text>
</g>
<!-- SchoolExternalToolRule&#45;&gt;AuthorizationModule -->
<g id="edge18" class="edge">
<title>SchoolExternalToolRule&#45;&gt;AuthorizationModule</title>
<path fill="none" stroke="black" d="M1380,-122.03C1380,-138.4 1380,-160 1380,-160 1380,-160 1787.14,-160 1787.14,-160"/>
<polygon fill="black" stroke="black" points="1787.14,-163.5 1797.14,-160 1787.14,-156.5 1787.14,-163.5"/>
</g>
<!-- SchoolSystemOptionsRule -->
<g id="node20" class="node">
<title>SchoolSystemOptionsRule</title>
<ellipse fill="#fdb462" stroke="black" cx="1140" cy="-104" rx="115.23" ry="18"/>
<text text-anchor="middle" x="1140" y="-99.8" font-family="Times,serif" font-size="14.00">SchoolSystemOptionsRule</text>
</g>
<!-- SchoolSystemOptionsRule&#45;&gt;AuthorizationModule -->
<g id="edge19" class="edge">
<title>SchoolSystemOptionsRule&#45;&gt;AuthorizationModule</title>
<path fill="none" stroke="black" d="M1140,-122.02C1140,-139.37 1140,-163 1140,-163 1140,-163 1787.05,-163 1787.05,-163"/>
<polygon fill="black" stroke="black" points="1787.05,-166.5 1797.05,-163 1787.05,-159.5 1787.05,-166.5"/>
</g>
<!-- SubmissionRule -->
<g id="node21" class="node">
<title>SubmissionRule</title>
<ellipse fill="#fdb462" stroke="black" cx="933" cy="-104" rx="74.2" ry="18"/>
<text text-anchor="middle" x="933" y="-99.8" font-family="Times,serif" font-size="14.00">SubmissionRule</text>
</g>
<!-- SubmissionRule&#45;&gt;AuthorizationModule -->
<g id="edge20" class="edge">
<title>SubmissionRule&#45;&gt;AuthorizationModule</title>
<path fill="none" stroke="black" d="M933,-122.3C933,-140.27 933,-165 933,-165 933,-165 1787.02,-165 1787.02,-165"/>
<polygon fill="black" stroke="black" points="1787.02,-168.5 1797.02,-165 1787.02,-161.5 1787.02,-168.5"/>
</g>
<!-- SystemRule -->
<g id="node22" class="node">
<title>SystemRule</title>
<ellipse fill="#fdb462" stroke="black" cx="783" cy="-104" rx="57.92" ry="18"/>
<text text-anchor="middle" x="783" y="-99.8" font-family="Times,serif" font-size="14.00">SystemRule</text>
</g>
<!-- SystemRule&#45;&gt;AuthorizationModule -->
<g id="edge21" class="edge">
<title>SystemRule&#45;&gt;AuthorizationModule</title>
<path fill="none" stroke="black" d="M783,-122.17C783,-141.09 783,-168 783,-168 783,-168 1787.02,-168 1787.02,-168"/>
<polygon fill="black" stroke="black" points="1787.02,-171.5 1797.02,-168 1787.02,-164.5 1787.02,-171.5"/>
</g>
<!-- TaskRule -->
<g id="node23" class="node">
<title>TaskRule</title>
<ellipse fill="#fdb462" stroke="black" cx="659" cy="-104" rx="48.09" ry="18"/>
<text text-anchor="middle" x="659" y="-99.8" font-family="Times,serif" font-size="14.00">TaskRule</text>
</g>
<!-- TaskRule&#45;&gt;AuthorizationModule -->
<g id="edge22" class="edge">
<title>TaskRule&#45;&gt;AuthorizationModule</title>
<path fill="none" stroke="black" d="M659,-122.31C659,-142.15 659,-171 659,-171 659,-171 1787.21,-171 1787.21,-171"/>
<polygon fill="black" stroke="black" points="1787.21,-174.5 1797.21,-171 1787.21,-167.5 1787.21,-174.5"/>
</g>
<!-- TeamRule -->
<g id="node24" class="node">
<title>TeamRule</title>
<ellipse fill="#fdb462" stroke="black" cx="542" cy="-104" rx="51.02" ry="18"/>
<text text-anchor="middle" x="542" y="-99.8" font-family="Times,serif" font-size="14.00">TeamRule</text>
</g>
<!-- TeamRule&#45;&gt;AuthorizationModule -->
<g id="edge23" class="edge">
<title>TeamRule&#45;&gt;AuthorizationModule</title>
<path fill="none" stroke="black" d="M542,-122.03C542,-142.77 542,-174 542,-174 542,-174 1787.14,-174 1787.14,-174"/>
<polygon fill="black" stroke="black" points="1787.14,-177.5 1797.14,-174 1787.14,-170.5 1787.14,-177.5"/>
</g>
<!-- UserLoginMigrationRule -->
<g id="node25" class="node">
<title>UserLoginMigrationRule</title>
<ellipse fill="#fdb462" stroke="black" cx="364" cy="-104" rx="109.39" ry="18"/>
<text text-anchor="middle" x="364" y="-99.8" font-family="Times,serif" font-size="14.00">UserLoginMigrationRule</text>
</g>
<!-- UserLoginMigrationRule&#45;&gt;AuthorizationModule -->
<g id="edge24" class="edge">
<title>UserLoginMigrationRule&#45;&gt;AuthorizationModule</title>
<path fill="none" stroke="black" d="M364,-122.17C364,-143.5 364,-176 364,-176 364,-176 1787.06,-176 1787.06,-176"/>
<polygon fill="black" stroke="black" points="1787.06,-179.5 1797.06,-176 1787.06,-172.5 1787.06,-179.5"/>
</g>
<!-- UserRepo -->
<g id="node26" class="node">
<title>UserRepo</title>
<ellipse fill="#fdb462" stroke="black" cx="187" cy="-104" rx="49.8" ry="18"/>
<text text-anchor="middle" x="187" y="-99.8" font-family="Times,serif" font-size="14.00">UserRepo</text>
</g>
<!-- UserRepo&#45;&gt;AuthorizationModule -->
<g id="edge25" class="edge">
<title>UserRepo&#45;&gt;AuthorizationModule</title>
<path fill="none" stroke="black" d="M187,-122.16C187,-144.35 187,-179 187,-179 187,-179 1787.31,-179 1787.31,-179"/>
<polygon fill="black" stroke="black" points="1787.31,-182.5 1797.31,-179 1787.31,-175.5 1787.31,-182.5"/>
</g>
<!-- UserRule -->
<g id="node27" class="node">
<title>UserRule</title>
<ellipse fill="#fdb462" stroke="black" cx="72" cy="-104" rx="47.51" ry="18"/>
<text text-anchor="middle" x="72" y="-99.8" font-family="Times,serif" font-size="14.00">UserRule</text>
</g>
<!-- UserRule&#45;&gt;AuthorizationModule -->
<g id="edge26" class="edge">
<title>UserRule&#45;&gt;AuthorizationModule</title>
<path fill="none" stroke="black" d="M72,-122.09C72,-145.13 72,-182 72,-182 72,-182 1787.32,-182 1787.32,-182"/>
<polygon fill="black" stroke="black" points="1787.32,-185.5 1797.32,-182 1787.32,-178.5 1787.32,-185.5"/>
</g>
</g>
</svg>
