<?xml version="1.0" encoding="UTF-8" standalone="no"?>
<!DOCTYPE svg PUBLIC "-//W3C//DTD SVG 1.1//EN"
 "http://www.w3.org/Graphics/SVG/1.1/DTD/svg11.dtd">
<!-- Generated by graphviz version 5.0.0 (20220707.1540)
 -->
<!-- Title: dependencies Pages: 1 -->
<svg width="4824pt" height="247pt"
 viewBox="0.00 0.00 4824.00 246.80" xmlns="http://www.w3.org/2000/svg" xmlns:xlink="http://www.w3.org/1999/xlink">
<g id="graph0" class="graph" transform="scale(1 1) rotate(0) translate(4 242.8)">
<title>dependencies</title>
<polygon fill="white" stroke="transparent" points="-4,4 -4,-242.8 4820,-242.8 4820,4 -4,4"/>
<text text-anchor="middle" x="2408" y="-8.2" font-family="sans-serif" font-size="14.00">dependencies</text>
<g id="clust1" class="cluster">
<title>cluster_AuthorizationModule</title>
<polygon fill="none" stroke="black" stroke-dasharray="1,5" points="8,-32.8 8,-230.8 4808,-230.8 4808,-32.8 8,-32.8"/>
</g>
<g id="clust3" class="cluster">
<title>cluster_AuthorizationModule_imports</title>
<polygon fill="none" stroke="black" points="4228,-40.8 4228,-92.8 4800,-92.8 4800,-40.8 4228,-40.8"/>
</g>
<g id="clust6" class="cluster">
<title>cluster_AuthorizationModule_providers</title>
<polygon fill="none" stroke="black" points="16,-40.8 16,-92.8 4220,-92.8 4220,-40.8 16,-40.8"/>
</g>
<g id="clust4" class="cluster">
<title>cluster_AuthorizationModule_exports</title>
<polygon fill="none" stroke="black" points="2145,-170.8 2145,-222.8 2505,-222.8 2505,-170.8 2145,-170.8"/>
</g>
<!-- BoardModule -->
<g id="node1" class="node">
<title>BoardModule</title>
<polygon fill="#8dd3c7" stroke="black" points="4791.77,-84.8 4788.77,-88.8 4767.77,-88.8 4764.77,-84.8 4698.23,-84.8 4698.23,-48.8 4791.77,-48.8 4791.77,-84.8"/>
<text text-anchor="middle" x="4745" y="-62.6" font-family="Times,serif" font-size="14.00">BoardModule</text>
</g>
<!-- AuthorizationModule -->
<g id="node6" class="node">
<title>AuthorizationModule</title>
<polygon fill="#8dd3c7" stroke="black" points="2404.81,-149.8 2401.81,-153.8 2380.81,-153.8 2377.81,-149.8 2267.19,-149.8 2267.19,-113.8 2404.81,-113.8 2404.81,-149.8"/>
<text text-anchor="middle" x="2336" y="-127.6" font-family="Times,serif" font-size="14.00">AuthorizationModule</text>
</g>
<!-- BoardModule&#45;&gt;AuthorizationModule -->
<g id="edge1" class="edge">
<title>BoardModule&#45;&gt;AuthorizationModule</title>
<path fill="none" stroke="black" d="M4745,-85.18C4745,-109.08 4745,-147.8 4745,-147.8 4745,-147.8 2414.86,-147.8 2414.86,-147.8"/>
<polygon fill="black" stroke="black" points="2414.86,-144.3 2404.86,-147.8 2414.86,-151.3 2414.86,-144.3"/>
</g>
<!-- FeathersModule -->
<g id="node2" class="node">
<title>FeathersModule</title>
<polygon fill="#8dd3c7" stroke="black" points="4680.48,-84.8 4677.48,-88.8 4656.48,-88.8 4653.48,-84.8 4573.52,-84.8 4573.52,-48.8 4680.48,-48.8 4680.48,-84.8"/>
<text text-anchor="middle" x="4627" y="-62.6" font-family="Times,serif" font-size="14.00">FeathersModule</text>
</g>
<!-- FeathersModule&#45;&gt;AuthorizationModule -->
<g id="edge2" class="edge">
<title>FeathersModule&#45;&gt;AuthorizationModule</title>
<path fill="none" stroke="black" d="M4627,-85.12C4627,-108.46 4627,-145.8 4627,-145.8 4627,-145.8 2414.88,-145.8 2414.88,-145.8"/>
<polygon fill="black" stroke="black" points="2414.88,-142.3 2404.88,-145.8 2414.88,-149.3 2414.88,-142.3"/>
</g>
<!-- LoggerModule -->
<g id="node3" class="node">
<title>LoggerModule</title>
<polygon fill="#8dd3c7" stroke="black" points="4555.98,-84.8 4552.98,-88.8 4531.98,-88.8 4528.98,-84.8 4456.02,-84.8 4456.02,-48.8 4555.98,-48.8 4555.98,-84.8"/>
<text text-anchor="middle" x="4506" y="-62.6" font-family="Times,serif" font-size="14.00">LoggerModule</text>
</g>
<!-- LoggerModule&#45;&gt;AuthorizationModule -->
<g id="edge3" class="edge">
<title>LoggerModule&#45;&gt;AuthorizationModule</title>
<path fill="none" stroke="black" d="M4506,-84.81C4506,-107.29 4506,-142.8 4506,-142.8 4506,-142.8 2414.83,-142.8 2414.83,-142.8"/>
<polygon fill="black" stroke="black" points="2414.83,-139.3 2404.83,-142.8 2414.83,-146.3 2414.83,-139.3"/>
</g>
<!-- SchoolModule -->
<g id="node4" class="node">
<title>SchoolModule</title>
<polygon fill="#8dd3c7" stroke="black" points="4438.44,-84.8 4435.44,-88.8 4414.44,-88.8 4411.44,-84.8 4339.56,-84.8 4339.56,-48.8 4438.44,-48.8 4438.44,-84.8"/>
<text text-anchor="middle" x="4389" y="-62.6" font-family="Times,serif" font-size="14.00">SchoolModule</text>
</g>
<!-- SchoolModule&#45;&gt;AuthorizationModule -->
<g id="edge4" class="edge">
<title>SchoolModule&#45;&gt;AuthorizationModule</title>
<path fill="none" stroke="black" d="M4389,-85.09C4389,-107.01 4389,-140.8 4389,-140.8 4389,-140.8 2414.89,-140.8 2414.89,-140.8"/>
<polygon fill="black" stroke="black" points="2414.89,-137.3 2404.89,-140.8 2414.89,-144.3 2414.89,-137.3"/>
</g>
<!-- ToolModule -->
<g id="node5" class="node">
<title>ToolModule</title>
<polygon fill="#8dd3c7" stroke="black" points="4321.99,-84.8 4318.99,-88.8 4297.99,-88.8 4294.99,-84.8 4236.01,-84.8 4236.01,-48.8 4321.99,-48.8 4321.99,-84.8"/>
<text text-anchor="middle" x="4279" y="-62.6" font-family="Times,serif" font-size="14.00">ToolModule</text>
</g>
<!-- ToolModule&#45;&gt;AuthorizationModule -->
<g id="edge5" class="edge">
<title>ToolModule&#45;&gt;AuthorizationModule</title>
<path fill="none" stroke="black" d="M4279,-85.08C4279,-106.12 4279,-137.8 4279,-137.8 4279,-137.8 2414.87,-137.8 2414.87,-137.8"/>
<polygon fill="black" stroke="black" points="2414.87,-134.3 2404.87,-137.8 2414.87,-141.3 2414.87,-134.3"/>
</g>
<!-- AuthorizationService  -->
<g id="node7" class="node">
<title>AuthorizationService </title>
<polygon fill="#fb8072" stroke="black" points="2496.74,-214.8 2357.26,-214.8 2357.26,-178.8 2496.74,-178.8 2496.74,-214.8"/>
<text text-anchor="middle" x="2427" y="-192.6" font-family="Times,serif" font-size="14.00">AuthorizationService </text>
</g>
<!-- AuthorizationModule&#45;&gt;AuthorizationService  -->
<g id="edge6" class="edge">
<title>AuthorizationModule&#45;&gt;AuthorizationService </title>
<path fill="none" stroke="black" stroke-dasharray="5,2" d="M2381.02,-149.91C2381.02,-149.91 2381.02,-168.79 2381.02,-168.79"/>
<polygon fill="black" stroke="black" points="2377.52,-168.79 2381.02,-178.79 2384.52,-168.79 2377.52,-168.79"/>
</g>
<!-- FeathersAuthorizationService  -->
<g id="node8" class="node">
<title>FeathersAuthorizationService </title>
<polygon fill="#fb8072" stroke="black" points="2339.17,-214.8 2152.83,-214.8 2152.83,-178.8 2339.17,-178.8 2339.17,-214.8"/>
<text text-anchor="middle" x="2246" y="-192.6" font-family="Times,serif" font-size="14.00">FeathersAuthorizationService </text>
</g>
<!-- AuthorizationModule&#45;&gt;FeathersAuthorizationService  -->
<g id="edge7" class="edge">
<title>AuthorizationModule&#45;&gt;FeathersAuthorizationService </title>
<path fill="none" stroke="black" stroke-dasharray="5,2" d="M2303.34,-149.91C2303.34,-149.91 2303.34,-168.79 2303.34,-168.79"/>
<polygon fill="black" stroke="black" points="2299.84,-168.79 2303.34,-178.79 2306.84,-168.79 2299.84,-168.79"/>
</g>
<!-- AuthorizationHelper -->
<g id="node9" class="node">
<title>AuthorizationHelper</title>
<ellipse fill="#fdb462" stroke="black" cx="4121" cy="-66.8" rx="90.89" ry="18"/>
<text text-anchor="middle" x="4121" y="-62.6" font-family="Times,serif" font-size="14.00">AuthorizationHelper</text>
</g>
<!-- AuthorizationHelper&#45;&gt;AuthorizationModule -->
<g id="edge8" class="edge">
<title>AuthorizationHelper&#45;&gt;AuthorizationModule</title>
<path fill="none" stroke="black" d="M4121,-84.93C4121,-105.37 4121,-135.8 4121,-135.8 4121,-135.8 2414.88,-135.8 2414.88,-135.8"/>
<polygon fill="black" stroke="black" points="2414.88,-132.3 2404.88,-135.8 2414.88,-139.3 2414.88,-132.3"/>
</g>
<!-- AuthorizationService -->
<g id="node10" class="node">
<title>AuthorizationService</title>
<ellipse fill="#fdb462" stroke="black" cx="3918" cy="-66.8" rx="93.76" ry="18"/>
<text text-anchor="middle" x="3918" y="-62.6" font-family="Times,serif" font-size="14.00">AuthorizationService</text>
</g>
<!-- AuthorizationService&#45;&gt;AuthorizationModule -->
<g id="edge9" class="edge">
<title>AuthorizationService&#45;&gt;AuthorizationModule</title>
<path fill="none" stroke="black" d="M3918,-85.11C3918,-104.95 3918,-133.8 3918,-133.8 3918,-133.8 2414.74,-133.8 2414.74,-133.8"/>
<polygon fill="black" stroke="black" points="2414.74,-130.3 2404.74,-133.8 2414.74,-137.3 2414.74,-130.3"/>
</g>
<!-- BoardNodeRule -->
<g id="node11" class="node">
<title>BoardNodeRule</title>
<ellipse fill="#fdb462" stroke="black" cx="3733" cy="-66.8" rx="73.59" ry="18"/>
<text text-anchor="middle" x="3733" y="-62.6" font-family="Times,serif" font-size="14.00">BoardNodeRule</text>
</g>
<!-- BoardNodeRule&#45;&gt;AuthorizationModule -->
<g id="edge10" class="edge">
<title>BoardNodeRule&#45;&gt;AuthorizationModule</title>
<path fill="none" stroke="black" d="M3733,-84.97C3733,-103.89 3733,-130.8 3733,-130.8 3733,-130.8 2414.8,-130.8 2414.8,-130.8"/>
<polygon fill="black" stroke="black" points="2414.8,-127.3 2404.8,-130.8 2414.8,-134.3 2414.8,-127.3"/>
</g>
<!-- CourseGroupRepo -->
<g id="node12" class="node">
<title>CourseGroupRepo</title>
<ellipse fill="#fdb462" stroke="black" cx="3558" cy="-66.8" rx="83.41" ry="18"/>
<text text-anchor="middle" x="3558" y="-62.6" font-family="Times,serif" font-size="14.00">CourseGroupRepo</text>
</g>
<!-- CourseGroupRepo&#45;&gt;AuthorizationModule -->
<g id="edge11" class="edge">
<title>CourseGroupRepo&#45;&gt;AuthorizationModule</title>
<path fill="none" stroke="black" d="M3558,-85.07C3558,-103.36 3558,-128.8 3558,-128.8 3558,-128.8 2414.76,-128.8 2414.76,-128.8"/>
<polygon fill="black" stroke="black" points="2414.76,-125.3 2404.76,-128.8 2414.76,-132.3 2414.76,-125.3"/>
</g>
<!-- CourseGroupRule -->
<g id="node13" class="node">
<title>CourseGroupRule</title>
<ellipse fill="#fdb462" stroke="black" cx="3375" cy="-66.8" rx="81.12" ry="18"/>
<text text-anchor="middle" x="3375" y="-62.6" font-family="Times,serif" font-size="14.00">CourseGroupRule</text>
</g>
<!-- CourseGroupRule&#45;&gt;AuthorizationModule -->
<g id="edge12" class="edge">
<title>CourseGroupRule&#45;&gt;AuthorizationModule</title>
<path fill="none" stroke="black" d="M3375,-84.82C3375,-102.17 3375,-125.8 3375,-125.8 3375,-125.8 2414.98,-125.8 2414.98,-125.8"/>
<polygon fill="black" stroke="black" points="2414.98,-122.3 2404.98,-125.8 2414.98,-129.3 2414.98,-122.3"/>
</g>
<!-- CourseRepo -->
<g id="node14" class="node">
<title>CourseRepo</title>
<ellipse fill="#fdb462" stroke="black" cx="3217" cy="-66.8" rx="58.56" ry="18"/>
<text text-anchor="middle" x="3217" y="-62.6" font-family="Times,serif" font-size="14.00">CourseRepo</text>
</g>
<!-- CourseRepo&#45;&gt;AuthorizationModule -->
<g id="edge13" class="edge">
<title>CourseRepo&#45;&gt;AuthorizationModule</title>
<path fill="none" stroke="black" d="M3217,-84.84C3217,-101.53 3217,-123.8 3217,-123.8 3217,-123.8 2414.76,-123.8 2414.76,-123.8"/>
<polygon fill="black" stroke="black" points="2414.76,-120.3 2404.76,-123.8 2414.76,-127.3 2414.76,-120.3"/>
</g>
<!-- CourseRule -->
<g id="node15" class="node">
<title>CourseRule</title>
<ellipse fill="#fdb462" stroke="black" cx="3084" cy="-66.8" rx="56.77" ry="18"/>
<text text-anchor="middle" x="3084" y="-62.6" font-family="Times,serif" font-size="14.00">CourseRule</text>
</g>
<!-- CourseRule&#45;&gt;AuthorizationModule -->
<g id="edge14" class="edge">
<title>CourseRule&#45;&gt;AuthorizationModule</title>
<path fill="none" stroke="black" d="M3084,-84.81C3084,-100.85 3084,-121.8 3084,-121.8 3084,-121.8 2414.7,-121.8 2414.7,-121.8"/>
<polygon fill="black" stroke="black" points="2414.7,-118.3 2404.7,-121.8 2414.7,-125.3 2414.7,-118.3"/>
</g>
<!-- FeathersAuthProvider -->
<g id="node16" class="node">
<title>FeathersAuthProvider</title>
<ellipse fill="#fdb462" stroke="black" cx="2913" cy="-66.8" rx="96.14" ry="18"/>
<text text-anchor="middle" x="2913" y="-62.6" font-family="Times,serif" font-size="14.00">FeathersAuthProvider</text>
</g>
<!-- FeathersAuthProvider&#45;&gt;AuthorizationModule -->
<g id="edge15" class="edge">
<title>FeathersAuthProvider&#45;&gt;AuthorizationModule</title>
<path fill="none" stroke="black" d="M2913,-84.99C2913,-99.98 2913,-118.8 2913,-118.8 2913,-118.8 2414.74,-118.8 2414.74,-118.8"/>
<polygon fill="black" stroke="black" points="2414.74,-115.3 2404.74,-118.8 2414.74,-122.3 2414.74,-115.3"/>
</g>
<!-- FeathersAuthorizationService -->
<g id="node17" class="node">
<title>FeathersAuthorizationService</title>
<ellipse fill="#fdb462" stroke="black" cx="2672" cy="-66.8" rx="126.19" ry="18"/>
<text text-anchor="middle" x="2672" y="-62.6" font-family="Times,serif" font-size="14.00">FeathersAuthorizationService</text>
</g>
<!-- FeathersAuthorizationService&#45;&gt;AuthorizationModule -->
<g id="edge16" class="edge">
<title>FeathersAuthorizationService&#45;&gt;AuthorizationModule</title>
<path fill="none" stroke="black" d="M2672,-84.85C2672,-99.17 2672,-116.8 2672,-116.8 2672,-116.8 2414.81,-116.8 2414.81,-116.8"/>
<polygon fill="black" stroke="black" points="2414.81,-113.3 2404.81,-116.8 2414.81,-120.3 2414.81,-113.3"/>
</g>
<!-- LessonRepo -->
<g id="node18" class="node">
<title>LessonRepo</title>
<ellipse fill="#fdb462" stroke="black" cx="2469" cy="-66.8" rx="58.56" ry="18"/>
<text text-anchor="middle" x="2469" y="-62.6" font-family="Times,serif" font-size="14.00">LessonRepo</text>
</g>
<!-- LessonRepo&#45;&gt;AuthorizationModule -->
<g id="edge17" class="edge">
<title>LessonRepo&#45;&gt;AuthorizationModule</title>
<path fill="none" stroke="black" d="M2409.95,-66.8C2403.18,-66.8 2398.64,-66.8 2398.64,-66.8 2398.64,-66.8 2398.64,-103.69 2398.64,-103.69"/>
<polygon fill="black" stroke="black" points="2395.14,-103.69 2398.64,-113.69 2402.14,-103.69 2395.14,-103.69"/>
</g>
<!-- LessonRule -->
<g id="node19" class="node">
<title>LessonRule</title>
<ellipse fill="#fdb462" stroke="black" cx="2336" cy="-66.8" rx="56.77" ry="18"/>
<text text-anchor="middle" x="2336" y="-62.6" font-family="Times,serif" font-size="14.00">LessonRule</text>
</g>
<!-- LessonRule&#45;&gt;AuthorizationModule -->
<g id="edge18" class="edge">
<title>LessonRule&#45;&gt;AuthorizationModule</title>
<path fill="none" stroke="black" d="M2336,-84.91C2336,-84.91 2336,-103.79 2336,-103.79"/>
<polygon fill="black" stroke="black" points="2332.5,-103.79 2336,-113.79 2339.5,-103.79 2332.5,-103.79"/>
</g>
<!-- ReferenceLoader -->
<g id="node20" class="node">
<title>ReferenceLoader</title>
<ellipse fill="#fdb462" stroke="black" cx="2184" cy="-66.8" rx="77.53" ry="18"/>
<text text-anchor="middle" x="2184" y="-62.6" font-family="Times,serif" font-size="14.00">ReferenceLoader</text>
</g>
<!-- ReferenceLoader&#45;&gt;AuthorizationModule -->
<g id="edge19" class="edge">
<title>ReferenceLoader&#45;&gt;AuthorizationModule</title>
<path fill="none" stroke="black" d="M2261.67,-66.8C2268.77,-66.8 2273.36,-66.8 2273.36,-66.8 2273.36,-66.8 2273.36,-103.69 2273.36,-103.69"/>
<polygon fill="black" stroke="black" points="2269.86,-103.69 2273.36,-113.69 2276.86,-103.69 2269.86,-103.69"/>
</g>
<!-- RuleManager -->
<g id="node21" class="node">
<title>RuleManager</title>
<ellipse fill="#fdb462" stroke="black" cx="2025" cy="-66.8" rx="63.69" ry="18"/>
<text text-anchor="middle" x="2025" y="-62.6" font-family="Times,serif" font-size="14.00">RuleManager</text>
</g>
<!-- RuleManager&#45;&gt;AuthorizationModule -->
<g id="edge20" class="edge">
<title>RuleManager&#45;&gt;AuthorizationModule</title>
<path fill="none" stroke="black" d="M2025,-84.85C2025,-99.17 2025,-116.8 2025,-116.8 2025,-116.8 2256.98,-116.8 2256.98,-116.8"/>
<polygon fill="black" stroke="black" points="2256.98,-120.3 2266.98,-116.8 2256.98,-113.3 2256.98,-120.3"/>
</g>
<!-- SchoolExternalToolRepo -->
<g id="node22" class="node">
<title>SchoolExternalToolRepo</title>
<ellipse fill="#fdb462" stroke="black" cx="1834" cy="-66.8" rx="109.39" ry="18"/>
<text text-anchor="middle" x="1834" y="-62.6" font-family="Times,serif" font-size="14.00">SchoolExternalToolRepo</text>
</g>
<!-- SchoolExternalToolRepo&#45;&gt;AuthorizationModule -->
<g id="edge21" class="edge">
<title>SchoolExternalToolRepo&#45;&gt;AuthorizationModule</title>
<path fill="none" stroke="black" d="M1834,-84.99C1834,-99.98 1834,-118.8 1834,-118.8 1834,-118.8 2257.25,-118.8 2257.25,-118.8"/>
<polygon fill="black" stroke="black" points="2257.25,-122.3 2267.25,-118.8 2257.25,-115.3 2257.25,-122.3"/>
</g>
<!-- SchoolExternalToolRule -->
<g id="node23" class="node">
<title>SchoolExternalToolRule</title>
<ellipse fill="#fdb462" stroke="black" cx="1600" cy="-66.8" rx="107.1" ry="18"/>
<text text-anchor="middle" x="1600" y="-62.6" font-family="Times,serif" font-size="14.00">SchoolExternalToolRule</text>
</g>
<!-- SchoolExternalToolRule&#45;&gt;AuthorizationModule -->
<g id="edge22" class="edge">
<title>SchoolExternalToolRule&#45;&gt;AuthorizationModule</title>
<path fill="none" stroke="black" d="M1600,-84.81C1600,-100.85 1600,-121.8 1600,-121.8 1600,-121.8 2257.09,-121.8 2257.09,-121.8"/>
<polygon fill="black" stroke="black" points="2257.09,-125.3 2267.09,-121.8 2257.09,-118.3 2257.09,-125.3"/>
</g>
<!-- SchoolRepo -->
<g id="node24" class="node">
<title>SchoolRepo</title>
<ellipse fill="#fdb462" stroke="black" cx="1417" cy="-66.8" rx="58.49" ry="18"/>
<text text-anchor="middle" x="1417" y="-62.6" font-family="Times,serif" font-size="14.00">SchoolRepo</text>
</g>
<!-- SchoolRepo&#45;&gt;AuthorizationModule -->
<g id="edge23" class="edge">
<title>SchoolRepo&#45;&gt;AuthorizationModule</title>
<path fill="none" stroke="black" d="M1417,-84.84C1417,-101.53 1417,-123.8 1417,-123.8 1417,-123.8 2257.3,-123.8 2257.3,-123.8"/>
<polygon fill="black" stroke="black" points="2257.3,-127.3 2267.3,-123.8 2257.3,-120.3 2257.3,-127.3"/>
</g>
<!-- SchoolRule -->
<g id="node25" class="node">
<title>SchoolRule</title>
<ellipse fill="#fdb462" stroke="black" cx="1285" cy="-66.8" rx="56.2" ry="18"/>
<text text-anchor="middle" x="1285" y="-62.6" font-family="Times,serif" font-size="14.00">SchoolRule</text>
</g>
<!-- SchoolRule&#45;&gt;AuthorizationModule -->
<g id="edge24" class="edge">
<title>SchoolRule&#45;&gt;AuthorizationModule</title>
<path fill="none" stroke="black" d="M1285,-84.82C1285,-102.17 1285,-125.8 1285,-125.8 1285,-125.8 2257.04,-125.8 2257.04,-125.8"/>
<polygon fill="black" stroke="black" points="2257.04,-129.3 2267.04,-125.8 2257.04,-122.3 2257.04,-129.3"/>
</g>
<!-- SubmissionRepo -->
<g id="node26" class="node">
<title>SubmissionRepo</title>
<ellipse fill="#fdb462" stroke="black" cx="1134" cy="-66.8" rx="76.5" ry="18"/>
<text text-anchor="middle" x="1134" y="-62.6" font-family="Times,serif" font-size="14.00">SubmissionRepo</text>
</g>
<!-- SubmissionRepo&#45;&gt;AuthorizationModule -->
<g id="edge25" class="edge">
<title>SubmissionRepo&#45;&gt;AuthorizationModule</title>
<path fill="none" stroke="black" d="M1134,-85.07C1134,-103.36 1134,-128.8 1134,-128.8 1134,-128.8 2257.06,-128.8 2257.06,-128.8"/>
<polygon fill="black" stroke="black" points="2257.06,-132.3 2267.06,-128.8 2257.06,-125.3 2257.06,-132.3"/>
</g>
<!-- SubmissionRule -->
<g id="node27" class="node">
<title>SubmissionRule</title>
<ellipse fill="#fdb462" stroke="black" cx="965" cy="-66.8" rx="74.21" ry="18"/>
<text text-anchor="middle" x="965" y="-62.6" font-family="Times,serif" font-size="14.00">SubmissionRule</text>
</g>
<!-- SubmissionRule&#45;&gt;AuthorizationModule -->
<g id="edge26" class="edge">
<title>SubmissionRule&#45;&gt;AuthorizationModule</title>
<path fill="none" stroke="black" d="M965,-84.97C965,-103.89 965,-130.8 965,-130.8 965,-130.8 2257.07,-130.8 2257.07,-130.8"/>
<polygon fill="black" stroke="black" points="2257.07,-134.3 2267.07,-130.8 2257.07,-127.3 2257.07,-134.3"/>
</g>
<!-- TaskCardRule -->
<g id="node28" class="node">
<title>TaskCardRule</title>
<ellipse fill="#fdb462" stroke="black" cx="806" cy="-66.8" rx="66.64" ry="18"/>
<text text-anchor="middle" x="806" y="-62.6" font-family="Times,serif" font-size="14.00">TaskCardRule</text>
</g>
<!-- TaskCardRule&#45;&gt;AuthorizationModule -->
<g id="edge27" class="edge">
<title>TaskCardRule&#45;&gt;AuthorizationModule</title>
<path fill="none" stroke="black" d="M806,-85.11C806,-104.95 806,-133.8 806,-133.8 806,-133.8 2257.29,-133.8 2257.29,-133.8"/>
<polygon fill="black" stroke="black" points="2257.29,-137.3 2267.29,-133.8 2257.29,-130.3 2257.29,-137.3"/>
</g>
<!-- TaskRepo -->
<g id="node29" class="node">
<title>TaskRepo</title>
<ellipse fill="#fdb462" stroke="black" cx="671" cy="-66.8" rx="50.39" ry="18"/>
<text text-anchor="middle" x="671" y="-62.6" font-family="Times,serif" font-size="14.00">TaskRepo</text>
</g>
<!-- TaskRepo&#45;&gt;AuthorizationModule -->
<g id="edge28" class="edge">
<title>TaskRepo&#45;&gt;AuthorizationModule</title>
<path fill="none" stroke="black" d="M671,-84.93C671,-105.37 671,-135.8 671,-135.8 671,-135.8 2257.1,-135.8 2257.1,-135.8"/>
<polygon fill="black" stroke="black" points="2257.1,-139.3 2267.1,-135.8 2257.1,-132.3 2257.1,-139.3"/>
</g>
<!-- TaskRule -->
<g id="node30" class="node">
<title>TaskRule</title>
<ellipse fill="#fdb462" stroke="black" cx="555" cy="-66.8" rx="48.09" ry="18"/>
<text text-anchor="middle" x="555" y="-62.6" font-family="Times,serif" font-size="14.00">TaskRule</text>
</g>
<!-- TaskRule&#45;&gt;AuthorizationModule -->
<g id="edge29" class="edge">
<title>TaskRule&#45;&gt;AuthorizationModule</title>
<path fill="none" stroke="black" d="M555,-85.08C555,-106.12 555,-137.8 555,-137.8 555,-137.8 2257.27,-137.8 2257.27,-137.8"/>
<polygon fill="black" stroke="black" points="2257.27,-141.3 2267.27,-137.8 2257.27,-134.3 2257.27,-141.3"/>
</g>
<!-- TeamRule -->
<g id="node31" class="node">
<title>TeamRule</title>
<ellipse fill="#fdb462" stroke="black" cx="438" cy="-66.8" rx="51.02" ry="18"/>
<text text-anchor="middle" x="438" y="-62.6" font-family="Times,serif" font-size="14.00">TeamRule</text>
</g>
<!-- TeamRule&#45;&gt;AuthorizationModule -->
<g id="edge30" class="edge">
<title>TeamRule&#45;&gt;AuthorizationModule</title>
<path fill="none" stroke="black" d="M438,-85.09C438,-107.01 438,-140.8 438,-140.8 438,-140.8 2257.33,-140.8 2257.33,-140.8"/>
<polygon fill="black" stroke="black" points="2257.33,-144.3 2267.33,-140.8 2257.33,-137.3 2257.33,-144.3"/>
</g>
<!-- TeamsRepo -->
<g id="node32" class="node">
<title>TeamsRepo</title>
<ellipse fill="#fdb462" stroke="black" cx="312" cy="-66.8" rx="57.32" ry="18"/>
<text text-anchor="middle" x="312" y="-62.6" font-family="Times,serif" font-size="14.00">TeamsRepo</text>
</g>
<!-- TeamsRepo&#45;&gt;AuthorizationModule -->
<g id="edge31" class="edge">
<title>TeamsRepo&#45;&gt;AuthorizationModule</title>
<path fill="none" stroke="black" d="M312,-84.81C312,-107.29 312,-142.8 312,-142.8 312,-142.8 2257.21,-142.8 2257.21,-142.8"/>
<polygon fill="black" stroke="black" points="2257.21,-146.3 2267.21,-142.8 2257.21,-139.3 2257.21,-146.3"/>
</g>
<!-- UserRepo -->
<g id="node33" class="node">
<title>UserRepo</title>
<ellipse fill="#fdb462" stroke="black" cx="187" cy="-66.8" rx="49.81" ry="18"/>
<text text-anchor="middle" x="187" y="-62.6" font-family="Times,serif" font-size="14.00">UserRepo</text>
</g>
<!-- UserRepo&#45;&gt;AuthorizationModule -->
<g id="edge32" class="edge">
<title>UserRepo&#45;&gt;AuthorizationModule</title>
<path fill="none" stroke="black" d="M187,-85.12C187,-108.46 187,-145.8 187,-145.8 187,-145.8 2257.23,-145.8 2257.23,-145.8"/>
<polygon fill="black" stroke="black" points="2257.23,-149.3 2267.23,-145.8 2257.23,-142.3 2257.23,-149.3"/>
</g>
<!-- UserRule -->
<g id="node34" class="node">
<title>UserRule</title>
<ellipse fill="#fdb462" stroke="black" cx="72" cy="-66.8" rx="47.52" ry="18"/>
<text text-anchor="middle" x="72" y="-62.6" font-family="Times,serif" font-size="14.00">UserRule</text>
</g>
<!-- UserRule&#45;&gt;AuthorizationModule -->
<g id="edge33" class="edge">
<title>UserRule&#45;&gt;AuthorizationModule</title>
<path fill="none" stroke="black" d="M72,-85.18C72,-109.08 72,-147.8 72,-147.8 72,-147.8 2257.32,-147.8 2257.32,-147.8"/>
<polygon fill="black" stroke="black" points="2257.32,-151.3 2267.32,-147.8 2257.32,-144.3 2257.32,-151.3"/>
</g>
</g>
</svg>
