<?xml version="1.0" encoding="UTF-8" standalone="no"?>
<!DOCTYPE svg PUBLIC "-//W3C//DTD SVG 1.1//EN"
 "http://www.w3.org/Graphics/SVG/1.1/DTD/svg11.dtd">
<!-- Generated by graphviz version 2.47.0 (20210316.0004)
 -->
<!-- Title: dependencies Pages: 1 -->
<svg width="4914pt" height="284pt"
 viewBox="0.00 0.00 4914.00 284.00" xmlns="http://www.w3.org/2000/svg" xmlns:xlink="http://www.w3.org/1999/xlink">
<g id="graph0" class="graph" transform="scale(1 1) rotate(0) translate(4 280)">
<title>dependencies</title>
<polygon fill="white" stroke="transparent" points="-4,4 -4,-280 4910,-280 4910,4 -4,4"/>
<text text-anchor="start" x="2432.01" y="-42.4" font-family="Times-12" font-weight="bold" font-size="14.00">Legend</text>
<polygon fill="#ffffb3" stroke="transparent" points="2219,-10 2219,-30 2239,-30 2239,-10 2219,-10"/>
<text text-anchor="start" x="2242.63" y="-15.4" font-family="Times-12" font-size="14.00"> &#160;Declarations</text>
<polygon fill="#8dd3c7" stroke="transparent" points="2332,-10 2332,-30 2352,-30 2352,-10 2332,-10"/>
<text text-anchor="start" x="2355.73" y="-15.4" font-family="Times-12" font-size="14.00"> &#160;Module</text>
<polygon fill="#80b1d3" stroke="transparent" points="2418,-10 2418,-30 2438,-30 2438,-10 2418,-10"/>
<text text-anchor="start" x="2441.78" y="-15.4" font-family="Times-12" font-size="14.00"> &#160;Bootstrap</text>
<polygon fill="#fdb462" stroke="transparent" points="2515,-10 2515,-30 2535,-30 2535,-10 2515,-10"/>
<text text-anchor="start" x="2538.67" y="-15.4" font-family="Times-12" font-size="14.00"> &#160;Providers</text>
<polygon fill="#fb8072" stroke="transparent" points="2611,-10 2611,-30 2631,-30 2631,-10 2611,-10"/>
<text text-anchor="start" x="2634.73" y="-15.4" font-family="Times-12" font-size="14.00"> &#160;Exports</text>
<g id="clust1" class="cluster">
<title>cluster_AuthorizationModule</title>
<polygon fill="none" stroke="black" stroke-dasharray="1,5" points="8,-70 8,-268 4898,-268 4898,-70 8,-70"/>
</g>
<g id="clust4" class="cluster">
<title>cluster_AuthorizationModule_exports</title>
<polygon fill="none" stroke="black" points="1975,-208 1975,-260 2335,-260 2335,-208 1975,-208"/>
</g>
<g id="clust6" class="cluster">
<title>cluster_AuthorizationModule_providers</title>
<polygon fill="none" stroke="black" points="380,-78 380,-130 4890,-130 4890,-78 380,-78"/>
</g>
<g id="clust3" class="cluster">
<title>cluster_AuthorizationModule_imports</title>
<polygon fill="none" stroke="black" points="16,-78 16,-130 372,-130 372,-78 16,-78"/>
</g>
<!-- FeathersModule -->
<g id="node1" class="node">
<title>FeathersModule</title>
<polygon fill="#8dd3c7" stroke="black" points="364.47,-122 361.47,-126 340.47,-126 337.47,-122 257.53,-122 257.53,-86 364.47,-86 364.47,-122"/>
<text text-anchor="middle" x="311" y="-99.8" font-family="Times,serif" font-size="14.00">FeathersModule</text>
</g>
<!-- AuthorizationModule -->
<g id="node4" class="node">
<title>AuthorizationModule</title>
<polygon fill="#8dd3c7" stroke="black" points="2234.81,-187 2231.81,-191 2210.81,-191 2207.81,-187 2097.19,-187 2097.19,-151 2234.81,-151 2234.81,-187"/>
<text text-anchor="middle" x="2166" y="-164.8" font-family="Times,serif" font-size="14.00">AuthorizationModule</text>
</g>
<!-- FeathersModule&#45;&gt;AuthorizationModule -->
<g id="edge1" class="edge">
<title>FeathersModule&#45;&gt;AuthorizationModule</title>
<path fill="none" stroke="black" d="M311,-122.01C311,-144.49 311,-180 311,-180 311,-180 2087.22,-180 2087.22,-180"/>
<polygon fill="black" stroke="black" points="2087.22,-183.5 2097.22,-180 2087.22,-176.5 2087.22,-183.5"/>
</g>
<!-- LoggerModule -->
<g id="node2" class="node">
<title>LoggerModule</title>
<polygon fill="#8dd3c7" stroke="black" points="239.98,-122 236.98,-126 215.98,-126 212.98,-122 140.02,-122 140.02,-86 239.98,-86 239.98,-122"/>
<text text-anchor="middle" x="190" y="-99.8" font-family="Times,serif" font-size="14.00">LoggerModule</text>
</g>
<!-- LoggerModule&#45;&gt;AuthorizationModule -->
<g id="edge2" class="edge">
<title>LoggerModule&#45;&gt;AuthorizationModule</title>
<path fill="none" stroke="black" d="M190,-122.32C190,-145.66 190,-183 190,-183 190,-183 2087.12,-183 2087.12,-183"/>
<polygon fill="black" stroke="black" points="2087.12,-186.5 2097.12,-183 2087.12,-179.5 2087.12,-186.5"/>
</g>
<!-- SchoolModule -->
<g id="node3" class="node">
<title>SchoolModule</title>
<polygon fill="#8dd3c7" stroke="black" points="122.44,-122 119.44,-126 98.44,-126 95.44,-122 23.56,-122 23.56,-86 122.44,-86 122.44,-122"/>
<text text-anchor="middle" x="73" y="-99.8" font-family="Times,serif" font-size="14.00">SchoolModule</text>
</g>
<!-- SchoolModule&#45;&gt;AuthorizationModule -->
<g id="edge3" class="edge">
<title>SchoolModule&#45;&gt;AuthorizationModule</title>
<path fill="none" stroke="black" d="M73,-122.38C73,-146.28 73,-185 73,-185 73,-185 2087.26,-185 2087.26,-185"/>
<polygon fill="black" stroke="black" points="2087.26,-188.5 2097.26,-185 2087.26,-181.5 2087.26,-188.5"/>
</g>
<!-- AuthorizationService  -->
<g id="node5" class="node">
<title>AuthorizationService </title>
<polygon fill="#fb8072" stroke="black" points="2326.74,-252 2187.26,-252 2187.26,-216 2326.74,-216 2326.74,-252"/>
<text text-anchor="middle" x="2257" y="-229.8" font-family="Times,serif" font-size="14.00">AuthorizationService </text>
</g>
<!-- AuthorizationModule&#45;&gt;AuthorizationService  -->
<g id="edge4" class="edge">
<title>AuthorizationModule&#45;&gt;AuthorizationService </title>
<path fill="none" stroke="black" stroke-dasharray="5,2" d="M2211.02,-187.11C2211.02,-187.11 2211.02,-205.99 2211.02,-205.99"/>
<polygon fill="black" stroke="black" points="2207.52,-205.99 2211.02,-215.99 2214.52,-205.99 2207.52,-205.99"/>
</g>
<!-- FeathersAuthorizationService  -->
<g id="node6" class="node">
<title>FeathersAuthorizationService </title>
<polygon fill="#fb8072" stroke="black" points="2169.16,-252 1982.84,-252 1982.84,-216 2169.16,-216 2169.16,-252"/>
<text text-anchor="middle" x="2076" y="-229.8" font-family="Times,serif" font-size="14.00">FeathersAuthorizationService </text>
</g>
<!-- AuthorizationModule&#45;&gt;FeathersAuthorizationService  -->
<g id="edge5" class="edge">
<title>AuthorizationModule&#45;&gt;FeathersAuthorizationService </title>
<path fill="none" stroke="black" stroke-dasharray="5,2" d="M2133.34,-187.11C2133.34,-187.11 2133.34,-205.99 2133.34,-205.99"/>
<polygon fill="black" stroke="black" points="2129.84,-205.99 2133.34,-215.99 2136.84,-205.99 2129.84,-205.99"/>
</g>
<!-- AuthorizationHelper -->
<g id="node7" class="node">
<title>AuthorizationHelper</title>
<ellipse fill="#fdb462" stroke="black" cx="4791" cy="-104" rx="90.89" ry="18"/>
<text text-anchor="middle" x="4791" y="-99.8" font-family="Times,serif" font-size="14.00">AuthorizationHelper</text>
</g>
<!-- AuthorizationHelper&#45;&gt;AuthorizationModule -->
<g id="edge6" class="edge">
<title>AuthorizationHelper&#45;&gt;AuthorizationModule</title>
<path fill="none" stroke="black" d="M4791,-122.38C4791,-146.28 4791,-185 4791,-185 4791,-185 2244.86,-185 2244.86,-185"/>
<polygon fill="black" stroke="black" points="2244.86,-181.5 2234.86,-185 2244.86,-188.5 2244.86,-181.5"/>
</g>
<!-- AuthorizationService -->
<g id="node8" class="node">
<title>AuthorizationService</title>
<ellipse fill="#fdb462" stroke="black" cx="4588" cy="-104" rx="93.76" ry="18"/>
<text text-anchor="middle" x="4588" y="-99.8" font-family="Times,serif" font-size="14.00">AuthorizationService</text>
</g>
<!-- AuthorizationService&#45;&gt;AuthorizationModule -->
<g id="edge7" class="edge">
<title>AuthorizationService&#45;&gt;AuthorizationModule</title>
<path fill="none" stroke="black" d="M4588,-122.32C4588,-145.66 4588,-183 4588,-183 4588,-183 2244.91,-183 2244.91,-183"/>
<polygon fill="black" stroke="black" points="2244.91,-179.5 2234.91,-183 2244.91,-186.5 2244.91,-179.5"/>
</g>
<!-- BoardDoRule -->
<g id="node9" class="node">
<title>BoardDoRule</title>
<ellipse fill="#fdb462" stroke="black" cx="4412" cy="-104" rx="64.85" ry="18"/>
<text text-anchor="middle" x="4412" y="-99.8" font-family="Times,serif" font-size="14.00">BoardDoRule</text>
</g>
<!-- BoardDoRule&#45;&gt;AuthorizationModule -->
<g id="edge8" class="edge">
<title>BoardDoRule&#45;&gt;AuthorizationModule</title>
<path fill="none" stroke="black" d="M4412,-122.01C4412,-144.49 4412,-180 4412,-180 4412,-180 2244.75,-180 2244.75,-180"/>
<polygon fill="black" stroke="black" points="2244.75,-176.5 2234.75,-180 2244.75,-183.5 2244.75,-176.5"/>
</g>
<!-- ContextExternalToolRule -->
<g id="node10" class="node">
<title>ContextExternalToolRule</title>
<ellipse fill="#fdb462" stroke="black" cx="4219" cy="-104" rx="110.61" ry="18"/>
<text text-anchor="middle" x="4219" y="-99.8" font-family="Times,serif" font-size="14.00">ContextExternalToolRule</text>
</g>
<!-- ContextExternalToolRule&#45;&gt;AuthorizationModule -->
<g id="edge9" class="edge">
<title>ContextExternalToolRule&#45;&gt;AuthorizationModule</title>
<path fill="none" stroke="black" d="M4219,-122.29C4219,-144.21 4219,-178 4219,-178 4219,-178 2244.89,-178 2244.89,-178"/>
<polygon fill="black" stroke="black" points="2244.89,-174.5 2234.89,-178 2244.89,-181.5 2244.89,-174.5"/>
</g>
<!-- CourseGroupRepo -->
<g id="node11" class="node">
<title>CourseGroupRepo</title>
<ellipse fill="#fdb462" stroke="black" cx="4007" cy="-104" rx="83.39" ry="18"/>
<text text-anchor="middle" x="4007" y="-99.8" font-family="Times,serif" font-size="14.00">CourseGroupRepo</text>
</g>
<!-- CourseGroupRepo&#45;&gt;AuthorizationModule -->
<g id="edge10" class="edge">
<title>CourseGroupRepo&#45;&gt;AuthorizationModule</title>
<path fill="none" stroke="black" d="M4007,-122.28C4007,-143.32 4007,-175 4007,-175 4007,-175 2244.81,-175 2244.81,-175"/>
<polygon fill="black" stroke="black" points="2244.81,-171.5 2234.81,-175 2244.81,-178.5 2244.81,-171.5"/>
</g>
<!-- CourseGroupRule -->
<g id="node12" class="node">
<title>CourseGroupRule</title>
<ellipse fill="#fdb462" stroke="black" cx="3824" cy="-104" rx="81.1" ry="18"/>
<text text-anchor="middle" x="3824" y="-99.8" font-family="Times,serif" font-size="14.00">CourseGroupRule</text>
</g>
<!-- CourseGroupRule&#45;&gt;AuthorizationModule -->
<g id="edge11" class="edge">
<title>CourseGroupRule&#45;&gt;AuthorizationModule</title>
<path fill="none" stroke="black" d="M3824,-122.13C3824,-142.57 3824,-173 3824,-173 3824,-173 2244.87,-173 2244.87,-173"/>
<polygon fill="black" stroke="black" points="2244.87,-169.5 2234.87,-173 2244.87,-176.5 2244.87,-169.5"/>
</g>
<!-- CourseRepo -->
<g id="node13" class="node">
<title>CourseRepo</title>
<ellipse fill="#fdb462" stroke="black" cx="3666" cy="-104" rx="58.55" ry="18"/>
<text text-anchor="middle" x="3666" y="-99.8" font-family="Times,serif" font-size="14.00">CourseRepo</text>
</g>
<!-- CourseRepo&#45;&gt;AuthorizationModule -->
<g id="edge12" class="edge">
<title>CourseRepo&#45;&gt;AuthorizationModule</title>
<path fill="none" stroke="black" d="M3666,-122.31C3666,-142.15 3666,-171 3666,-171 3666,-171 2244.84,-171 2244.84,-171"/>
<polygon fill="black" stroke="black" points="2244.84,-167.5 2234.84,-171 2244.84,-174.5 2244.84,-167.5"/>
</g>
<!-- CourseRule -->
<g id="node14" class="node">
<title>CourseRule</title>
<ellipse fill="#fdb462" stroke="black" cx="3533" cy="-104" rx="56.76" ry="18"/>
<text text-anchor="middle" x="3533" y="-99.8" font-family="Times,serif" font-size="14.00">CourseRule</text>
</g>
<!-- CourseRule&#45;&gt;AuthorizationModule -->
<g id="edge13" class="edge">
<title>CourseRule&#45;&gt;AuthorizationModule</title>
<path fill="none" stroke="black" d="M3533,-122.17C3533,-141.09 3533,-168 3533,-168 3533,-168 2244.73,-168 2244.73,-168"/>
<polygon fill="black" stroke="black" points="2244.73,-164.5 2234.73,-168 2244.73,-171.5 2244.73,-164.5"/>
</g>
<!-- FeathersAuthProvider -->
<g id="node15" class="node">
<title>FeathersAuthProvider</title>
<ellipse fill="#fdb462" stroke="black" cx="3362" cy="-104" rx="96.13" ry="18"/>
<text text-anchor="middle" x="3362" y="-99.8" font-family="Times,serif" font-size="14.00">FeathersAuthProvider</text>
</g>
<!-- FeathersAuthProvider&#45;&gt;AuthorizationModule -->
<g id="edge14" class="edge">
<title>FeathersAuthProvider&#45;&gt;AuthorizationModule</title>
<path fill="none" stroke="black" d="M3362,-122.27C3362,-140.56 3362,-166 3362,-166 3362,-166 2245.03,-166 2245.03,-166"/>
<polygon fill="black" stroke="black" points="2245.03,-162.5 2235.03,-166 2245.03,-169.5 2245.03,-162.5"/>
</g>
<!-- FeathersAuthorizationService -->
<g id="node16" class="node">
<title>FeathersAuthorizationService</title>
<ellipse fill="#fdb462" stroke="black" cx="3121" cy="-104" rx="126.18" ry="18"/>
<text text-anchor="middle" x="3121" y="-99.8" font-family="Times,serif" font-size="14.00">FeathersAuthorizationService</text>
</g>
<!-- FeathersAuthorizationService&#45;&gt;AuthorizationModule -->
<g id="edge15" class="edge">
<title>FeathersAuthorizationService&#45;&gt;AuthorizationModule</title>
<path fill="none" stroke="black" d="M3121,-122.02C3121,-139.37 3121,-163 3121,-163 3121,-163 2244.68,-163 2244.68,-163"/>
<polygon fill="black" stroke="black" points="2244.68,-159.5 2234.68,-163 2244.68,-166.5 2244.68,-159.5"/>
</g>
<!-- LessonRepo -->
<g id="node17" class="node">
<title>LessonRepo</title>
<ellipse fill="#fdb462" stroke="black" cx="2918" cy="-104" rx="58.55" ry="18"/>
<text text-anchor="middle" x="2918" y="-99.8" font-family="Times,serif" font-size="14.00">LessonRepo</text>
</g>
<!-- LessonRepo&#45;&gt;AuthorizationModule -->
<g id="edge16" class="edge">
<title>LessonRepo&#45;&gt;AuthorizationModule</title>
<path fill="none" stroke="black" d="M2918,-122.04C2918,-138.73 2918,-161 2918,-161 2918,-161 2244.73,-161 2244.73,-161"/>
<polygon fill="black" stroke="black" points="2244.73,-157.5 2234.73,-161 2244.73,-164.5 2244.73,-157.5"/>
</g>
<!-- LessonRule -->
<g id="node18" class="node">
<title>LessonRule</title>
<ellipse fill="#fdb462" stroke="black" cx="2785" cy="-104" rx="56.76" ry="18"/>
<text text-anchor="middle" x="2785" y="-99.8" font-family="Times,serif" font-size="14.00">LessonRule</text>
</g>
<!-- LessonRule&#45;&gt;AuthorizationModule -->
<g id="edge17" class="edge">
<title>LessonRule&#45;&gt;AuthorizationModule</title>
<path fill="none" stroke="black" d="M2785,-122.01C2785,-138.05 2785,-159 2785,-159 2785,-159 2244.91,-159 2244.91,-159"/>
<polygon fill="black" stroke="black" points="2244.91,-155.5 2234.91,-159 2244.91,-162.5 2244.91,-155.5"/>
</g>
<!-- ReferenceLoader -->
<g id="node19" class="node">
<title>ReferenceLoader</title>
<ellipse fill="#fdb462" stroke="black" cx="2633" cy="-104" rx="77.53" ry="18"/>
<text text-anchor="middle" x="2633" y="-99.8" font-family="Times,serif" font-size="14.00">ReferenceLoader</text>
</g>
<!-- ReferenceLoader&#45;&gt;AuthorizationModule -->
<g id="edge18" class="edge">
<title>ReferenceLoader&#45;&gt;AuthorizationModule</title>
<path fill="none" stroke="black" d="M2633,-122.19C2633,-137.18 2633,-156 2633,-156 2633,-156 2244.66,-156 2244.66,-156"/>
<polygon fill="black" stroke="black" points="2244.66,-152.5 2234.66,-156 2244.66,-159.5 2244.66,-152.5"/>
</g>
<!-- RuleManager -->
<g id="node20" class="node">
<title>RuleManager</title>
<ellipse fill="#fdb462" stroke="black" cx="2474" cy="-104" rx="63.68" ry="18"/>
<text text-anchor="middle" x="2474" y="-99.8" font-family="Times,serif" font-size="14.00">RuleManager</text>
</g>
<!-- RuleManager&#45;&gt;AuthorizationModule -->
<g id="edge19" class="edge">
<title>RuleManager&#45;&gt;AuthorizationModule</title>
<path fill="none" stroke="black" d="M2474,-122.05C2474,-136.37 2474,-154 2474,-154 2474,-154 2244.74,-154 2244.74,-154"/>
<polygon fill="black" stroke="black" points="2244.74,-150.5 2234.74,-154 2244.74,-157.5 2244.74,-150.5"/>
</g>
<!-- SchoolExternalToolRepo -->
<g id="node21" class="node">
<title>SchoolExternalToolRepo</title>
<ellipse fill="#fdb462" stroke="black" cx="2283" cy="-104" rx="109.39" ry="18"/>
<text text-anchor="middle" x="2283" y="-99.8" font-family="Times,serif" font-size="14.00">SchoolExternalToolRepo</text>
</g>
<!-- SchoolExternalToolRepo&#45;&gt;AuthorizationModule -->
<g id="edge20" class="edge">
<title>SchoolExternalToolRepo&#45;&gt;AuthorizationModule</title>
<path fill="none" stroke="black" d="M2204.23,-116.53C2204.23,-116.53 2204.23,-140.85 2204.23,-140.85"/>
<polygon fill="black" stroke="black" points="2200.73,-140.85 2204.23,-150.85 2207.73,-140.85 2200.73,-140.85"/>
</g>
<!-- SchoolExternalToolRule -->
<g id="node22" class="node">
<title>SchoolExternalToolRule</title>
<ellipse fill="#fdb462" stroke="black" cx="2049" cy="-104" rx="107.1" ry="18"/>
<text text-anchor="middle" x="2049" y="-99.8" font-family="Times,serif" font-size="14.00">SchoolExternalToolRule</text>
</g>
<!-- SchoolExternalToolRule&#45;&gt;AuthorizationModule -->
<g id="edge21" class="edge">
<title>SchoolExternalToolRule&#45;&gt;AuthorizationModule</title>
<path fill="none" stroke="black" d="M2126.7,-116.53C2126.7,-116.53 2126.7,-140.85 2126.7,-140.85"/>
<polygon fill="black" stroke="black" points="2123.2,-140.85 2126.7,-150.85 2130.2,-140.85 2123.2,-140.85"/>
</g>
<!-- SchoolRepo -->
<g id="node23" class="node">
<title>SchoolRepo</title>
<ellipse fill="#fdb462" stroke="black" cx="1866" cy="-104" rx="58.49" ry="18"/>
<text text-anchor="middle" x="1866" y="-99.8" font-family="Times,serif" font-size="14.00">SchoolRepo</text>
</g>
<!-- SchoolRepo&#45;&gt;AuthorizationModule -->
<g id="edge22" class="edge">
<title>SchoolRepo&#45;&gt;AuthorizationModule</title>
<path fill="none" stroke="black" d="M1866,-122.05C1866,-136.37 1866,-154 1866,-154 1866,-154 2087.17,-154 2087.17,-154"/>
<polygon fill="black" stroke="black" points="2087.17,-157.5 2097.17,-154 2087.17,-150.5 2087.17,-157.5"/>
</g>
<!-- SchoolRule -->
<g id="node24" class="node">
<title>SchoolRule</title>
<ellipse fill="#fdb462" stroke="black" cx="1734" cy="-104" rx="56.2" ry="18"/>
<text text-anchor="middle" x="1734" y="-99.8" font-family="Times,serif" font-size="14.00">SchoolRule</text>
</g>
<!-- SchoolRule&#45;&gt;AuthorizationModule -->
<g id="edge23" class="edge">
<title>SchoolRule&#45;&gt;AuthorizationModule</title>
<path fill="none" stroke="black" d="M1734,-122.19C1734,-137.18 1734,-156 1734,-156 1734,-156 2087.07,-156 2087.07,-156"/>
<polygon fill="black" stroke="black" points="2087.07,-159.5 2097.07,-156 2087.07,-152.5 2087.07,-159.5"/>
</g>
<!-- SubmissionRepo -->
<g id="node25" class="node">
<title>SubmissionRepo</title>
<ellipse fill="#fdb462" stroke="black" cx="1583" cy="-104" rx="76.49" ry="18"/>
<text text-anchor="middle" x="1583" y="-99.8" font-family="Times,serif" font-size="14.00">SubmissionRepo</text>
</g>
<!-- SubmissionRepo&#45;&gt;AuthorizationModule -->
<g id="edge24" class="edge">
<title>SubmissionRepo&#45;&gt;AuthorizationModule</title>
<path fill="none" stroke="black" d="M1583,-122.01C1583,-138.05 1583,-159 1583,-159 1583,-159 2087.12,-159 2087.12,-159"/>
<polygon fill="black" stroke="black" points="2087.12,-162.5 2097.12,-159 2087.12,-155.5 2087.12,-162.5"/>
</g>
<!-- SubmissionRule -->
<g id="node26" class="node">
<title>SubmissionRule</title>
<ellipse fill="#fdb462" stroke="black" cx="1414" cy="-104" rx="74.2" ry="18"/>
<text text-anchor="middle" x="1414" y="-99.8" font-family="Times,serif" font-size="14.00">SubmissionRule</text>
</g>
<!-- SubmissionRule&#45;&gt;AuthorizationModule -->
<g id="edge25" class="edge">
<title>SubmissionRule&#45;&gt;AuthorizationModule</title>
<path fill="none" stroke="black" d="M1414,-122.04C1414,-138.73 1414,-161 1414,-161 1414,-161 2087.27,-161 2087.27,-161"/>
<polygon fill="black" stroke="black" points="2087.27,-164.5 2097.27,-161 2087.27,-157.5 2087.27,-164.5"/>
</g>
<!-- TaskRepo -->
<g id="node27" class="node">
<title>TaskRepo</title>
<ellipse fill="#fdb462" stroke="black" cx="1271" cy="-104" rx="50.38" ry="18"/>
<text text-anchor="middle" x="1271" y="-99.8" font-family="Times,serif" font-size="14.00">TaskRepo</text>
</g>
<!-- TaskRepo&#45;&gt;AuthorizationModule -->
<g id="edge26" class="edge">
<title>TaskRepo&#45;&gt;AuthorizationModule</title>
<path fill="none" stroke="black" d="M1271,-122.02C1271,-139.37 1271,-163 1271,-163 1271,-163 2087.26,-163 2087.26,-163"/>
<polygon fill="black" stroke="black" points="2087.26,-166.5 2097.26,-163 2087.26,-159.5 2087.26,-166.5"/>
</g>
<!-- TaskRule -->
<g id="node28" class="node">
<title>TaskRule</title>
<ellipse fill="#fdb462" stroke="black" cx="1155" cy="-104" rx="48.09" ry="18"/>
<text text-anchor="middle" x="1155" y="-99.8" font-family="Times,serif" font-size="14.00">TaskRule</text>
</g>
<!-- TaskRule&#45;&gt;AuthorizationModule -->
<g id="edge27" class="edge">
<title>TaskRule&#45;&gt;AuthorizationModule</title>
<path fill="none" stroke="black" d="M1155,-122.27C1155,-140.56 1155,-166 1155,-166 1155,-166 2087.3,-166 2087.3,-166"/>
<polygon fill="black" stroke="black" points="2087.3,-169.5 2097.3,-166 2087.3,-162.5 2087.3,-169.5"/>
</g>
<!-- TeamRule -->
<g id="node29" class="node">
<title>TeamRule</title>
<ellipse fill="#fdb462" stroke="black" cx="1038" cy="-104" rx="51.02" ry="18"/>
<text text-anchor="middle" x="1038" y="-99.8" font-family="Times,serif" font-size="14.00">TeamRule</text>
</g>
<!-- TeamRule&#45;&gt;AuthorizationModule -->
<g id="edge28" class="edge">
<title>TeamRule&#45;&gt;AuthorizationModule</title>
<path fill="none" stroke="black" d="M1038,-122.17C1038,-141.09 1038,-168 1038,-168 1038,-168 2087.14,-168 2087.14,-168"/>
<polygon fill="black" stroke="black" points="2087.14,-171.5 2097.14,-168 2087.14,-164.5 2087.14,-171.5"/>
</g>
<!-- TeamsRepo -->
<g id="node30" class="node">
<title>TeamsRepo</title>
<ellipse fill="#fdb462" stroke="black" cx="912" cy="-104" rx="57.32" ry="18"/>
<text text-anchor="middle" x="912" y="-99.8" font-family="Times,serif" font-size="14.00">TeamsRepo</text>
</g>
<!-- TeamsRepo&#45;&gt;AuthorizationModule -->
<g id="edge29" class="edge">
<title>TeamsRepo&#45;&gt;AuthorizationModule</title>
<path fill="none" stroke="black" d="M912,-122.31C912,-142.15 912,-171 912,-171 912,-171 2087.24,-171 2087.24,-171"/>
<polygon fill="black" stroke="black" points="2087.24,-174.5 2097.24,-171 2087.24,-167.5 2087.24,-174.5"/>
</g>
<!-- UserLoginMigrationRule -->
<g id="node31" class="node">
<title>UserLoginMigrationRule</title>
<ellipse fill="#fdb462" stroke="black" cx="728" cy="-104" rx="109.39" ry="18"/>
<text text-anchor="middle" x="728" y="-99.8" font-family="Times,serif" font-size="14.00">UserLoginMigrationRule</text>
</g>
<!-- UserLoginMigrationRule&#45;&gt;AuthorizationModule -->
<g id="edge30" class="edge">
<title>UserLoginMigrationRule&#45;&gt;AuthorizationModule</title>
<path fill="none" stroke="black" d="M728,-122.13C728,-142.57 728,-173 728,-173 728,-173 2087.13,-173 2087.13,-173"/>
<polygon fill="black" stroke="black" points="2087.13,-176.5 2097.13,-173 2087.13,-169.5 2087.13,-176.5"/>
</g>
<!-- UserRepo -->
<g id="node32" class="node">
<title>UserRepo</title>
<ellipse fill="#fdb462" stroke="black" cx="551" cy="-104" rx="49.8" ry="18"/>
<text text-anchor="middle" x="551" y="-99.8" font-family="Times,serif" font-size="14.00">UserRepo</text>
</g>
<!-- UserRepo&#45;&gt;AuthorizationModule -->
<g id="edge31" class="edge">
<title>UserRepo&#45;&gt;AuthorizationModule</title>
<path fill="none" stroke="black" d="M551,-122.28C551,-143.32 551,-175 551,-175 551,-175 2087.12,-175 2087.12,-175"/>
<polygon fill="black" stroke="black" points="2087.12,-178.5 2097.12,-175 2087.12,-171.5 2087.12,-178.5"/>
</g>
<!-- UserRule -->
<g id="node33" class="node">
<title>UserRule</title>
<ellipse fill="#fdb462" stroke="black" cx="436" cy="-104" rx="47.51" ry="18"/>
<text text-anchor="middle" x="436" y="-99.8" font-family="Times,serif" font-size="14.00">UserRule</text>
</g>
<!-- UserRule&#45;&gt;AuthorizationModule -->
<g id="edge32" class="edge">
<title>UserRule&#45;&gt;AuthorizationModule</title>
<path fill="none" stroke="black" d="M436,-122.29C436,-144.21 436,-178 436,-178 436,-178 2087.11,-178 2087.11,-178"/>
<polygon fill="black" stroke="black" points="2087.11,-181.5 2097.11,-178 2087.11,-174.5 2087.11,-181.5"/>
</g>
</g>
</svg>
