<?xml version="1.0" encoding="UTF-8" standalone="no"?>
<!DOCTYPE svg PUBLIC "-//W3C//DTD SVG 1.1//EN"
 "http://www.w3.org/Graphics/SVG/1.1/DTD/svg11.dtd">
<!-- Generated by graphviz version 2.47.0 (20210316.0004)
 -->
<!-- Title: dependencies Pages: 1 -->
<svg width="3559pt" height="284pt"
 viewBox="0.00 0.00 3559.00 284.00" xmlns="http://www.w3.org/2000/svg" xmlns:xlink="http://www.w3.org/1999/xlink">
<g id="graph0" class="graph" transform="scale(1 1) rotate(0) translate(4 280)">
<title>dependencies</title>
<polygon fill="white" stroke="transparent" points="-4,4 -4,-280 3555,-280 3555,4 -4,4"/>
<text text-anchor="start" x="1754.51" y="-42.4" font-family="Times-12" font-weight="bold" font-size="14.00">Legend</text>
<polygon fill="#ffffb3" stroke="transparent" points="1541.5,-10 1541.5,-30 1561.5,-30 1561.5,-10 1541.5,-10"/>
<text text-anchor="start" x="1565.13" y="-15.4" font-family="Times-12" font-size="14.00"> &#160;Declarations</text>
<polygon fill="#8dd3c7" stroke="transparent" points="1654.5,-10 1654.5,-30 1674.5,-30 1674.5,-10 1654.5,-10"/>
<text text-anchor="start" x="1678.23" y="-15.4" font-family="Times-12" font-size="14.00"> &#160;Module</text>
<polygon fill="#80b1d3" stroke="transparent" points="1740.5,-10 1740.5,-30 1760.5,-30 1760.5,-10 1740.5,-10"/>
<text text-anchor="start" x="1764.28" y="-15.4" font-family="Times-12" font-size="14.00"> &#160;Bootstrap</text>
<polygon fill="#fdb462" stroke="transparent" points="1837.5,-10 1837.5,-30 1857.5,-30 1857.5,-10 1837.5,-10"/>
<text text-anchor="start" x="1861.17" y="-15.4" font-family="Times-12" font-size="14.00"> &#160;Providers</text>
<polygon fill="#fb8072" stroke="transparent" points="1933.5,-10 1933.5,-30 1953.5,-30 1953.5,-10 1933.5,-10"/>
<text text-anchor="start" x="1957.23" y="-15.4" font-family="Times-12" font-size="14.00"> &#160;Exports</text>
<g id="clust1" class="cluster">
<title>cluster_AuthorizationModule</title>
<polygon fill="none" stroke="black" stroke-dasharray="1,5" points="8,-70 8,-268 3543,-268 3543,-70 8,-70"/>
</g>
<g id="clust6" class="cluster">
<title>cluster_AuthorizationModule_providers</title>
<polygon fill="none" stroke="black" points="264,-78 264,-130 3535,-130 3535,-78 264,-78"/>
</g>
<g id="clust4" class="cluster">
<title>cluster_AuthorizationModule_exports</title>
<polygon fill="none" stroke="black" points="1382,-208 1382,-260 1742,-260 1742,-208 1382,-208"/>
</g>
<g id="clust3" class="cluster">
<title>cluster_AuthorizationModule_imports</title>
<polygon fill="none" stroke="black" points="16,-78 16,-130 256,-130 256,-78 16,-78"/>
</g>
<!-- FeathersModule -->
<g id="node1" class="node">
<title>FeathersModule</title>
<polygon fill="#8dd3c7" stroke="black" points="248.47,-122 245.47,-126 224.47,-126 221.47,-122 141.53,-122 141.53,-86 248.47,-86 248.47,-122"/>
<text text-anchor="middle" x="195" y="-99.8" font-family="Times,serif" font-size="14.00">FeathersModule</text>
</g>
<!-- AuthorizationModule -->
<g id="node3" class="node">
<title>AuthorizationModule</title>
<polygon fill="#8dd3c7" stroke="black" points="1641.81,-187 1638.81,-191 1617.81,-191 1614.81,-187 1504.19,-187 1504.19,-151 1641.81,-151 1641.81,-187"/>
<text text-anchor="middle" x="1573" y="-164.8" font-family="Times,serif" font-size="14.00">AuthorizationModule</text>
</g>
<!-- FeathersModule&#45;&gt;AuthorizationModule -->
<g id="edge1" class="edge">
<title>FeathersModule&#45;&gt;AuthorizationModule</title>
<path fill="none" stroke="black" d="M195,-122.01C195,-144.49 195,-180 195,-180 195,-180 1494.19,-180 1494.19,-180"/>
<polygon fill="black" stroke="black" points="1494.19,-183.5 1504.19,-180 1494.19,-176.5 1494.19,-183.5"/>
</g>
<!-- LoggerModule -->
<g id="node2" class="node">
<title>LoggerModule</title>
<polygon fill="#8dd3c7" stroke="black" points="123.98,-122 120.98,-126 99.98,-126 96.98,-122 24.02,-122 24.02,-86 123.98,-86 123.98,-122"/>
<text text-anchor="middle" x="74" y="-99.8" font-family="Times,serif" font-size="14.00">LoggerModule</text>
</g>
<!-- LoggerModule&#45;&gt;AuthorizationModule -->
<g id="edge2" class="edge">
<title>LoggerModule&#45;&gt;AuthorizationModule</title>
<path fill="none" stroke="black" d="M74,-122.15C74,-145.76 74,-184 74,-184 74,-184 1494.2,-184 1494.2,-184"/>
<polygon fill="black" stroke="black" points="1494.2,-187.5 1504.2,-184 1494.2,-180.5 1494.2,-187.5"/>
</g>
<!-- AuthorizationService  -->
<g id="node4" class="node">
<title>AuthorizationService </title>
<polygon fill="#fb8072" stroke="black" points="1733.74,-252 1594.26,-252 1594.26,-216 1733.74,-216 1733.74,-252"/>
<text text-anchor="middle" x="1664" y="-229.8" font-family="Times,serif" font-size="14.00">AuthorizationService </text>
</g>
<!-- AuthorizationModule&#45;&gt;AuthorizationService  -->
<g id="edge3" class="edge">
<title>AuthorizationModule&#45;&gt;AuthorizationService </title>
<path fill="none" stroke="black" stroke-dasharray="5,2" d="M1618.02,-187.11C1618.02,-187.11 1618.02,-205.99 1618.02,-205.99"/>
<polygon fill="black" stroke="black" points="1614.52,-205.99 1618.02,-215.99 1621.52,-205.99 1614.52,-205.99"/>
</g>
<!-- FeathersAuthorizationService  -->
<g id="node5" class="node">
<title>FeathersAuthorizationService </title>
<polygon fill="#fb8072" stroke="black" points="1576.16,-252 1389.84,-252 1389.84,-216 1576.16,-216 1576.16,-252"/>
<text text-anchor="middle" x="1483" y="-229.8" font-family="Times,serif" font-size="14.00">FeathersAuthorizationService </text>
</g>
<!-- AuthorizationModule&#45;&gt;FeathersAuthorizationService  -->
<g id="edge4" class="edge">
<title>AuthorizationModule&#45;&gt;FeathersAuthorizationService </title>
<path fill="none" stroke="black" stroke-dasharray="5,2" d="M1540.34,-187.11C1540.34,-187.11 1540.34,-205.99 1540.34,-205.99"/>
<polygon fill="black" stroke="black" points="1536.84,-205.99 1540.34,-215.99 1543.84,-205.99 1536.84,-205.99"/>
</g>
<!-- AuthorizationHelper -->
<g id="node6" class="node">
<title>AuthorizationHelper</title>
<ellipse fill="#fdb462" stroke="black" cx="3436" cy="-104" rx="90.89" ry="18"/>
<text text-anchor="middle" x="3436" y="-99.8" font-family="Times,serif" font-size="14.00">AuthorizationHelper</text>
</g>
<!-- AuthorizationHelper&#45;&gt;AuthorizationModule -->
<g id="edge5" class="edge">
<title>AuthorizationHelper&#45;&gt;AuthorizationModule</title>
<path fill="none" stroke="black" d="M3436,-122.15C3436,-145.76 3436,-184 3436,-184 3436,-184 1651.79,-184 1651.79,-184"/>
<polygon fill="black" stroke="black" points="1651.79,-180.5 1641.79,-184 1651.79,-187.5 1651.79,-180.5"/>
</g>
<!-- AuthorizationService -->
<g id="node7" class="node">
<title>AuthorizationService</title>
<ellipse fill="#fdb462" stroke="black" cx="3233" cy="-104" rx="93.76" ry="18"/>
<text text-anchor="middle" x="3233" y="-99.8" font-family="Times,serif" font-size="14.00">AuthorizationService</text>
</g>
<!-- AuthorizationService&#45;&gt;AuthorizationModule -->
<g id="edge6" class="edge">
<title>AuthorizationService&#45;&gt;AuthorizationModule</title>
<path fill="none" stroke="black" d="M3233,-122.01C3233,-144.49 3233,-180 3233,-180 3233,-180 1651.69,-180 1651.69,-180"/>
<polygon fill="black" stroke="black" points="1651.69,-176.5 1641.69,-180 1651.69,-183.5 1651.69,-176.5"/>
</g>
<!-- BoardDoRule -->
<g id="node8" class="node">
<title>BoardDoRule</title>
<ellipse fill="#fdb462" stroke="black" cx="3057" cy="-104" rx="64.85" ry="18"/>
<text text-anchor="middle" x="3057" y="-99.8" font-family="Times,serif" font-size="14.00">BoardDoRule</text>
</g>
<!-- BoardDoRule&#45;&gt;AuthorizationModule -->
<g id="edge7" class="edge">
<title>BoardDoRule&#45;&gt;AuthorizationModule</title>
<path fill="none" stroke="black" d="M3057,-122.04C3057,-143.66 3057,-177 3057,-177 3057,-177 1652.09,-177 1652.09,-177"/>
<polygon fill="black" stroke="black" points="1652.09,-173.5 1642.09,-177 1652.09,-180.5 1652.09,-173.5"/>
</g>
<!-- ContextExternalToolRule -->
<g id="node9" class="node">
<title>ContextExternalToolRule</title>
<ellipse fill="#fdb462" stroke="black" cx="2864" cy="-104" rx="110.61" ry="18"/>
<text text-anchor="middle" x="2864" y="-99.8" font-family="Times,serif" font-size="14.00">ContextExternalToolRule</text>
</g>
<!-- ContextExternalToolRule&#45;&gt;AuthorizationModule -->
<g id="edge8" class="edge">
<title>ContextExternalToolRule&#45;&gt;AuthorizationModule</title>
<path fill="none" stroke="black" d="M2864,-122.13C2864,-142.57 2864,-173 2864,-173 2864,-173 1651.95,-173 1651.95,-173"/>
<polygon fill="black" stroke="black" points="1651.95,-169.5 1641.95,-173 1651.95,-176.5 1651.95,-169.5"/>
</g>
<!-- CourseGroupRule -->
<g id="node10" class="node">
<title>CourseGroupRule</title>
<ellipse fill="#fdb462" stroke="black" cx="2654" cy="-104" rx="81.1" ry="18"/>
<text text-anchor="middle" x="2654" y="-99.8" font-family="Times,serif" font-size="14.00">CourseGroupRule</text>
</g>
<!-- CourseGroupRule&#45;&gt;AuthorizationModule -->
<g id="edge9" class="edge">
<title>CourseGroupRule&#45;&gt;AuthorizationModule</title>
<path fill="none" stroke="black" d="M2654,-122.11C2654,-141.34 2654,-169 2654,-169 2654,-169 1651.85,-169 1651.85,-169"/>
<polygon fill="black" stroke="black" points="1651.85,-165.5 1641.85,-169 1651.85,-172.5 1651.85,-165.5"/>
</g>
<!-- CourseRule -->
<g id="node11" class="node">
<title>CourseRule</title>
<ellipse fill="#fdb462" stroke="black" cx="2498" cy="-104" rx="56.76" ry="18"/>
<text text-anchor="middle" x="2498" y="-99.8" font-family="Times,serif" font-size="14.00">CourseRule</text>
</g>
<!-- CourseRule&#45;&gt;AuthorizationModule -->
<g id="edge10" class="edge">
<title>CourseRule&#45;&gt;AuthorizationModule</title>
<path fill="none" stroke="black" d="M2498,-122.27C2498,-140.56 2498,-166 2498,-166 2498,-166 1651.77,-166 1651.77,-166"/>
<polygon fill="black" stroke="black" points="1651.77,-162.5 1641.77,-166 1651.77,-169.5 1651.77,-162.5"/>
</g>
<!-- FeathersAuthProvider -->
<g id="node12" class="node">
<title>FeathersAuthProvider</title>
<ellipse fill="#fdb462" stroke="black" cx="2327" cy="-104" rx="96.13" ry="18"/>
<text text-anchor="middle" x="2327" y="-99.8" font-family="Times,serif" font-size="14.00">FeathersAuthProvider</text>
</g>
<!-- FeathersAuthProvider&#45;&gt;AuthorizationModule -->
<g id="edge11" class="edge">
<title>FeathersAuthProvider&#45;&gt;AuthorizationModule</title>
<path fill="none" stroke="black" d="M2327,-122.03C2327,-139.06 2327,-162 2327,-162 2327,-162 1651.91,-162 1651.91,-162"/>
<polygon fill="black" stroke="black" points="1651.91,-158.5 1641.91,-162 1651.91,-165.5 1651.91,-158.5"/>
</g>
<!-- FeathersAuthorizationService -->
<g id="node13" class="node">
<title>FeathersAuthorizationService</title>
<ellipse fill="#fdb462" stroke="black" cx="2086" cy="-104" rx="126.18" ry="18"/>
<text text-anchor="middle" x="2086" y="-99.8" font-family="Times,serif" font-size="14.00">FeathersAuthorizationService</text>
</g>
<!-- FeathersAuthorizationService&#45;&gt;AuthorizationModule -->
<g id="edge12" class="edge">
<title>FeathersAuthorizationService&#45;&gt;AuthorizationModule</title>
<path fill="none" stroke="black" d="M2086,-122.01C2086,-138.05 2086,-159 2086,-159 2086,-159 1651.92,-159 1651.92,-159"/>
<polygon fill="black" stroke="black" points="1651.92,-155.5 1641.92,-159 1651.92,-162.5 1651.92,-155.5"/>
</g>
<!-- GroupRule -->
<g id="node14" class="node">
<title>GroupRule</title>
<ellipse fill="#fdb462" stroke="black" cx="1888" cy="-104" rx="53.89" ry="18"/>
<text text-anchor="middle" x="1888" y="-99.8" font-family="Times,serif" font-size="14.00">GroupRule</text>
</g>
<!-- GroupRule&#45;&gt;AuthorizationModule -->
<g id="edge13" class="edge">
<title>GroupRule&#45;&gt;AuthorizationModule</title>
<path fill="none" stroke="black" d="M1888,-122.12C1888,-136.78 1888,-155 1888,-155 1888,-155 1651.74,-155 1651.74,-155"/>
<polygon fill="black" stroke="black" points="1651.74,-151.5 1641.74,-155 1651.74,-158.5 1651.74,-151.5"/>
</g>
<!-- LegacySchoolRule -->
<g id="node15" class="node">
<title>LegacySchoolRule</title>
<ellipse fill="#fdb462" stroke="black" cx="1732" cy="-104" rx="84.53" ry="18"/>
<text text-anchor="middle" x="1732" y="-99.8" font-family="Times,serif" font-size="14.00">LegacySchoolRule</text>
</g>
<!-- LegacySchoolRule&#45;&gt;AuthorizationModule -->
<g id="edge14" class="edge">
<title>LegacySchoolRule&#45;&gt;AuthorizationModule</title>
<path fill="none" stroke="black" d="M1647.46,-104C1640.25,-104 1635.64,-104 1635.64,-104 1635.64,-104 1635.64,-140.89 1635.64,-140.89"/>
<polygon fill="black" stroke="black" points="1632.14,-140.89 1635.64,-150.89 1639.14,-140.89 1632.14,-140.89"/>
</g>
<!-- LessonRule -->
<g id="node16" class="node">
<title>LessonRule</title>
<ellipse fill="#fdb462" stroke="black" cx="1573" cy="-104" rx="56.76" ry="18"/>
<text text-anchor="middle" x="1573" y="-99.8" font-family="Times,serif" font-size="14.00">LessonRule</text>
</g>
<!-- LessonRule&#45;&gt;AuthorizationModule -->
<g id="edge15" class="edge">
<title>LessonRule&#45;&gt;AuthorizationModule</title>
<path fill="none" stroke="black" d="M1573,-122.11C1573,-122.11 1573,-140.99 1573,-140.99"/>
<polygon fill="black" stroke="black" points="1569.5,-140.99 1573,-150.99 1576.5,-140.99 1569.5,-140.99"/>
</g>
<!-- RuleManager -->
<g id="node17" class="node">
<title>RuleManager</title>
<ellipse fill="#fdb462" stroke="black" cx="1435" cy="-104" rx="63.68" ry="18"/>
<text text-anchor="middle" x="1435" y="-99.8" font-family="Times,serif" font-size="14.00">RuleManager</text>
</g>
<!-- RuleManager&#45;&gt;AuthorizationModule -->
<g id="edge16" class="edge">
<title>RuleManager&#45;&gt;AuthorizationModule</title>
<path fill="none" stroke="black" d="M1498.91,-104C1505.79,-104 1510.36,-104 1510.36,-104 1510.36,-104 1510.36,-140.89 1510.36,-140.89"/>
<polygon fill="black" stroke="black" points="1506.86,-140.89 1510.36,-150.89 1513.86,-140.89 1506.86,-140.89"/>
</g>
<!-- SchoolExternalToolRule -->
<g id="node18" class="node">
<title>SchoolExternalToolRule</title>
<ellipse fill="#fdb462" stroke="black" cx="1246" cy="-104" rx="107.1" ry="18"/>
<text text-anchor="middle" x="1246" y="-99.8" font-family="Times,serif" font-size="14.00">SchoolExternalToolRule</text>
</g>
<!-- SchoolExternalToolRule&#45;&gt;AuthorizationModule -->
<g id="edge17" class="edge">
<title>SchoolExternalToolRule&#45;&gt;AuthorizationModule</title>
<path fill="none" stroke="black" d="M1246,-122.12C1246,-136.78 1246,-155 1246,-155 1246,-155 1494.05,-155 1494.05,-155"/>
<polygon fill="black" stroke="black" points="1494.05,-158.5 1504.05,-155 1494.05,-151.5 1494.05,-158.5"/>
</g>
<!-- SubmissionRule -->
<g id="node19" class="node">
<title>SubmissionRule</title>
<ellipse fill="#fdb462" stroke="black" cx="1047" cy="-104" rx="74.2" ry="18"/>
<text text-anchor="middle" x="1047" y="-99.8" font-family="Times,serif" font-size="14.00">SubmissionRule</text>
</g>
<!-- SubmissionRule&#45;&gt;AuthorizationModule -->
<g id="edge18" class="edge">
<title>SubmissionRule&#45;&gt;AuthorizationModule</title>
<path fill="none" stroke="black" d="M1047,-122.01C1047,-138.05 1047,-159 1047,-159 1047,-159 1494.23,-159 1494.23,-159"/>
<polygon fill="black" stroke="black" points="1494.23,-162.5 1504.23,-159 1494.23,-155.5 1494.23,-162.5"/>
</g>
<!-- TaskRule -->
<g id="node20" class="node">
<title>TaskRule</title>
<ellipse fill="#fdb462" stroke="black" cx="907" cy="-104" rx="48.09" ry="18"/>
<text text-anchor="middle" x="907" y="-99.8" font-family="Times,serif" font-size="14.00">TaskRule</text>
</g>
<!-- TaskRule&#45;&gt;AuthorizationModule -->
<g id="edge19" class="edge">
<title>TaskRule&#45;&gt;AuthorizationModule</title>
<path fill="none" stroke="black" d="M907,-122.03C907,-139.06 907,-162 907,-162 907,-162 1494.23,-162 1494.23,-162"/>
<polygon fill="black" stroke="black" points="1494.23,-165.5 1504.23,-162 1494.23,-158.5 1494.23,-165.5"/>
</g>
<!-- TeamRule -->
<g id="node21" class="node">
<title>TeamRule</title>
<ellipse fill="#fdb462" stroke="black" cx="790" cy="-104" rx="51.02" ry="18"/>
<text text-anchor="middle" x="790" y="-99.8" font-family="Times,serif" font-size="14.00">TeamRule</text>
</g>
<!-- TeamRule&#45;&gt;AuthorizationModule -->
<g id="edge20" class="edge">
<title>TeamRule&#45;&gt;AuthorizationModule</title>
<path fill="none" stroke="black" d="M790,-122.27C790,-140.56 790,-166 790,-166 790,-166 1494.2,-166 1494.2,-166"/>
<polygon fill="black" stroke="black" points="1494.2,-169.5 1504.2,-166 1494.2,-162.5 1494.2,-169.5"/>
</g>
<!-- UserLoginMigrationRule -->
<g id="node22" class="node">
<title>UserLoginMigrationRule</title>
<ellipse fill="#fdb462" stroke="black" cx="612" cy="-104" rx="109.39" ry="18"/>
<text text-anchor="middle" x="612" y="-99.8" font-family="Times,serif" font-size="14.00">UserLoginMigrationRule</text>
</g>
<!-- UserLoginMigrationRule&#45;&gt;AuthorizationModule -->
<g id="edge21" class="edge">
<title>UserLoginMigrationRule&#45;&gt;AuthorizationModule</title>
<path fill="none" stroke="black" d="M612,-122.11C612,-141.34 612,-169 612,-169 612,-169 1494.27,-169 1494.27,-169"/>
<polygon fill="black" stroke="black" points="1494.27,-172.5 1504.27,-169 1494.27,-165.5 1494.27,-172.5"/>
</g>
<!-- UserRepo -->
<g id="node23" class="node">
<title>UserRepo</title>
<ellipse fill="#fdb462" stroke="black" cx="435" cy="-104" rx="49.8" ry="18"/>
<text text-anchor="middle" x="435" y="-99.8" font-family="Times,serif" font-size="14.00">UserRepo</text>
</g>
<!-- UserRepo&#45;&gt;AuthorizationModule -->
<g id="edge22" class="edge">
<title>UserRepo&#45;&gt;AuthorizationModule</title>
<path fill="none" stroke="black" d="M435,-122.13C435,-142.57 435,-173 435,-173 435,-173 1493.95,-173 1493.95,-173"/>
<polygon fill="black" stroke="black" points="1493.95,-176.5 1503.95,-173 1493.95,-169.5 1493.95,-176.5"/>
</g>
<!-- UserRule -->
<g id="node24" class="node">
<title>UserRule</title>
<ellipse fill="#fdb462" stroke="black" cx="320" cy="-104" rx="47.51" ry="18"/>
<text text-anchor="middle" x="320" y="-99.8" font-family="Times,serif" font-size="14.00">UserRule</text>
</g>
<!-- UserRule&#45;&gt;AuthorizationModule -->
<g id="edge23" class="edge">
<title>UserRule&#45;&gt;AuthorizationModule</title>
<path fill="none" stroke="black" d="M320,-122.04C320,-143.66 320,-177 320,-177 320,-177 1494.3,-177 1494.3,-177"/>
<polygon fill="black" stroke="black" points="1494.3,-180.5 1504.3,-177 1494.3,-173.5 1494.3,-180.5"/>
</g>
</g>
</svg>
