<?xml version="1.0" encoding="UTF-8" standalone="no"?>
<!DOCTYPE svg PUBLIC "-//W3C//DTD SVG 1.1//EN"
 "http://www.w3.org/Graphics/SVG/1.1/DTD/svg11.dtd">
<!-- Generated by graphviz version 2.47.0 (20210316.0004)
 -->
<!-- Title: dependencies Pages: 1 -->
<svg width="1008pt" height="284pt"
 viewBox="0.00 0.00 1008.00 284.00" xmlns="http://www.w3.org/2000/svg" xmlns:xlink="http://www.w3.org/1999/xlink">
<g id="graph0" class="graph" transform="scale(1 1) rotate(0) translate(4 280)">
<title>dependencies</title>
<polygon fill="white" stroke="transparent" points="-4,4 -4,-280 1004,-280 1004,4 -4,4"/>
<text text-anchor="start" x="479.01" y="-42.4" font-family="Times-12" font-weight="bold" font-size="14.00">Legend</text>
<polygon fill="#ffffb3" stroke="transparent" points="266,-10 266,-30 286,-30 286,-10 266,-10"/>
<text text-anchor="start" x="289.63" y="-15.4" font-family="Times-12" font-size="14.00"> &#160;Declarations</text>
<polygon fill="#8dd3c7" stroke="transparent" points="379,-10 379,-30 399,-30 399,-10 379,-10"/>
<text text-anchor="start" x="402.73" y="-15.4" font-family="Times-12" font-size="14.00"> &#160;Module</text>
<polygon fill="#80b1d3" stroke="transparent" points="465,-10 465,-30 485,-30 485,-10 465,-10"/>
<text text-anchor="start" x="488.78" y="-15.4" font-family="Times-12" font-size="14.00"> &#160;Bootstrap</text>
<polygon fill="#fdb462" stroke="transparent" points="562,-10 562,-30 582,-30 582,-10 562,-10"/>
<text text-anchor="start" x="585.67" y="-15.4" font-family="Times-12" font-size="14.00"> &#160;Providers</text>
<polygon fill="#fb8072" stroke="transparent" points="658,-10 658,-30 678,-30 678,-10 658,-10"/>
<text text-anchor="start" x="681.73" y="-15.4" font-family="Times-12" font-size="14.00"> &#160;Exports</text>
<g id="clust1" class="cluster">
<title>cluster_MediaBoardModule</title>
<polygon fill="none" stroke="black" stroke-dasharray="1,5" points="8,-70 8,-268 992,-268 992,-70 8,-70"/>
</g>
<g id="clust3" class="cluster">
<title>cluster_MediaBoardModule_imports</title>
<polygon fill="none" stroke="black" points="882,-78 882,-130 984,-130 984,-78 882,-78"/>
</g>
<g id="clust6" class="cluster">
<title>cluster_MediaBoardModule_providers</title>
<polygon fill="none" stroke="black" points="16,-78 16,-130 874,-130 874,-78 16,-78"/>
</g>
<g id="clust4" class="cluster">
<title>cluster_MediaBoardModule_exports</title>
<polygon fill="none" stroke="black" points="337,-208 337,-260 861,-260 861,-208 337,-208"/>
</g>
<!-- ToolModule -->
<g id="node1" class="node">
<title>ToolModule</title>
<polygon fill="#8dd3c7" stroke="black" points="975.99,-122 972.99,-126 951.99,-126 948.99,-122 890.01,-122 890.01,-86 975.99,-86 975.99,-122"/>
<text text-anchor="middle" x="933" y="-99.8" font-family="Times,serif" font-size="14.00">ToolModule</text>
</g>
<!-- MediaBoardModule -->
<g id="node2" class="node">
<title>MediaBoardModule</title>
<polygon fill="#8dd3c7" stroke="black" points="640.53,-187 637.53,-191 616.53,-191 613.53,-187 511.47,-187 511.47,-151 640.53,-151 640.53,-187"/>
<text text-anchor="middle" x="576" y="-164.8" font-family="Times,serif" font-size="14.00">MediaBoardModule</text>
</g>
<!-- ToolModule&#45;&gt;MediaBoardModule -->
<g id="edge1" class="edge">
<title>ToolModule&#45;&gt;MediaBoardModule</title>
<path fill="none" stroke="black" d="M933,-122.11C933,-141.34 933,-169 933,-169 933,-169 650.65,-169 650.65,-169"/>
<polygon fill="black" stroke="black" points="650.65,-165.5 640.65,-169 650.65,-172.5 650.65,-165.5"/>
</g>
<!-- MediaAvailableLineService  -->
<g id="node3" class="node">
<title>MediaAvailableLineService </title>
<polygon fill="#fb8072" stroke="black" points="852.82,-252 675.18,-252 675.18,-216 852.82,-216 852.82,-252"/>
<text text-anchor="middle" x="764" y="-229.8" font-family="Times,serif" font-size="14.00">MediaAvailableLineService </text>
</g>
<!-- MediaBoardModule&#45;&gt;MediaAvailableLineService  -->
<g id="edge2" class="edge">
<title>MediaBoardModule&#45;&gt;MediaAvailableLineService </title>
<path fill="none" stroke="black" stroke-dasharray="5,2" d="M640.72,-178C664.45,-178 685.62,-178 685.62,-178 685.62,-178 685.62,-205.97 685.62,-205.97"/>
<polygon fill="black" stroke="black" points="682.12,-205.97 685.62,-215.97 689.12,-205.97 682.12,-205.97"/>
</g>
<!-- MediaBoardNodeFactory  -->
<g id="node4" class="node">
<title>MediaBoardNodeFactory </title>
<polygon fill="#fb8072" stroke="black" points="657.06,-252 494.94,-252 494.94,-216 657.06,-216 657.06,-252"/>
<text text-anchor="middle" x="576" y="-229.8" font-family="Times,serif" font-size="14.00">MediaBoardNodeFactory </text>
</g>
<!-- MediaBoardModule&#45;&gt;MediaBoardNodeFactory  -->
<g id="edge3" class="edge">
<title>MediaBoardModule&#45;&gt;MediaBoardNodeFactory </title>
<path fill="none" stroke="black" stroke-dasharray="5,2" d="M576,-187.11C576,-187.11 576,-205.99 576,-205.99"/>
<polygon fill="black" stroke="black" points="572.5,-205.99 576,-215.99 579.5,-205.99 572.5,-205.99"/>
</g>
<!-- MediaBoardService  -->
<g id="node5" class="node">
<title>MediaBoardService </title>
<polygon fill="#fb8072" stroke="black" points="476.95,-252 345.05,-252 345.05,-216 476.95,-216 476.95,-252"/>
<text text-anchor="middle" x="411" y="-229.8" font-family="Times,serif" font-size="14.00">MediaBoardService </text>
</g>
<!-- MediaBoardModule&#45;&gt;MediaBoardService  -->
<g id="edge4" class="edge">
<title>MediaBoardModule&#45;&gt;MediaBoardService </title>
<path fill="none" stroke="black" stroke-dasharray="5,2" d="M511.3,-178C487.58,-178 466.41,-178 466.41,-178 466.41,-178 466.41,-205.97 466.41,-205.97"/>
<polygon fill="black" stroke="black" points="462.91,-205.97 466.41,-215.97 469.91,-205.97 462.91,-205.97"/>
</g>
<!-- BoardNodeRepo -->
<g id="node6" class="node">
<title>BoardNodeRepo</title>
<ellipse fill="#fdb462" stroke="black" cx="790" cy="-104" rx="75.87" ry="18"/>
<text text-anchor="middle" x="790" y="-99.8" font-family="Times,serif" font-size="14.00">BoardNodeRepo</text>
</g>
<!-- BoardNodeRepo&#45;&gt;MediaBoardModule -->
<g id="edge5" class="edge">
<title>BoardNodeRepo&#45;&gt;MediaBoardModule</title>
<path fill="none" stroke="black" d="M783.36,-122.03C783.36,-138.4 783.36,-160 783.36,-160 783.36,-160 650.76,-160 650.76,-160"/>
<polygon fill="black" stroke="black" points="650.76,-156.5 640.76,-160 650.76,-163.5 650.76,-156.5"/>
</g>
<!-- MediaAvailableLineService -->
<g id="node7" class="node">
<title>MediaAvailableLineService</title>
<ellipse fill="#fdb462" stroke="black" cx="576" cy="-104" rx="119.8" ry="18"/>
<text text-anchor="middle" x="576" y="-99.8" font-family="Times,serif" font-size="14.00">MediaAvailableLineService</text>
</g>
<!-- MediaAvailableLineService&#45;&gt;MediaBoardModule -->
<g id="edge6" class="edge">
<title>MediaAvailableLineService&#45;&gt;MediaBoardModule</title>
<path fill="none" stroke="black" d="M576,-122.11C576,-122.11 576,-140.99 576,-140.99"/>
<polygon fill="black" stroke="black" points="572.5,-140.99 576,-150.99 579.5,-140.99 572.5,-140.99"/>
</g>
<!-- MediaBoardNodeFactory -->
<g id="node8" class="node">
<title>MediaBoardNodeFactory</title>
<ellipse fill="#fdb462" stroke="black" cx="328" cy="-104" rx="109.93" ry="18"/>
<text text-anchor="middle" x="328" y="-99.8" font-family="Times,serif" font-size="14.00">MediaBoardNodeFactory</text>
</g>
<!-- MediaBoardNodeFactory&#45;&gt;MediaBoardModule -->
<g id="edge7" class="edge">
<title>MediaBoardNodeFactory&#45;&gt;MediaBoardModule</title>
<path fill="none" stroke="black" d="M391.5,-118.71C391.5,-135.31 391.5,-160 391.5,-160 391.5,-160 501.47,-160 501.47,-160"/>
<polygon fill="black" stroke="black" points="501.47,-163.5 511.47,-160 501.47,-156.5 501.47,-163.5"/>
</g>
<!-- MediaBoardService -->
<g id="node9" class="node">
<title>MediaBoardService</title>
<ellipse fill="#fdb462" stroke="black" cx="112" cy="-104" rx="88.02" ry="18"/>
<text text-anchor="middle" x="112" y="-99.8" font-family="Times,serif" font-size="14.00">MediaBoardService</text>
</g>
<!-- MediaBoardService&#45;&gt;MediaBoardModule -->
<g id="edge8" class="edge">
<title>MediaBoardService&#45;&gt;MediaBoardModule</title>
<path fill="none" stroke="black" d="M112,-122.11C112,-141.34 112,-169 112,-169 112,-169 500.99,-169 500.99,-169"/>
<polygon fill="black" stroke="black" points="500.99,-172.5 510.99,-169 500.99,-165.5 500.99,-172.5"/>
</g>
</g>
</svg>
