<?xml version="1.0" encoding="UTF-8" standalone="no"?>
<!DOCTYPE svg PUBLIC "-//W3C//DTD SVG 1.1//EN"
 "http://www.w3.org/Graphics/SVG/1.1/DTD/svg11.dtd">
<!-- Generated by graphviz version 2.47.0 (20210316.0004)
 -->
<!-- Title: dependencies Pages: 1 -->
<svg width="504pt" height="284pt"
 viewBox="0.00 0.00 504.00 284.00" xmlns="http://www.w3.org/2000/svg" xmlns:xlink="http://www.w3.org/1999/xlink">
<g id="graph0" class="graph" transform="scale(1 1) rotate(0) translate(4 280)">
<title>dependencies</title>
<polygon fill="white" stroke="transparent" points="-4,4 -4,-280 500,-280 500,4 -4,4"/>
<text text-anchor="start" x="227.01" y="-42.4" font-family="Times-12" font-weight="bold" font-size="14.00">Legend</text>
<polygon fill="#ffffb3" stroke="transparent" points="14,-10 14,-30 34,-30 34,-10 14,-10"/>
<text text-anchor="start" x="37.63" y="-15.4" font-family="Times-12" font-size="14.00"> &#160;Declarations</text>
<polygon fill="#8dd3c7" stroke="transparent" points="127,-10 127,-30 147,-30 147,-10 127,-10"/>
<text text-anchor="start" x="150.73" y="-15.4" font-family="Times-12" font-size="14.00"> &#160;Module</text>
<polygon fill="#80b1d3" stroke="transparent" points="213,-10 213,-30 233,-30 233,-10 213,-10"/>
<text text-anchor="start" x="236.78" y="-15.4" font-family="Times-12" font-size="14.00"> &#160;Bootstrap</text>
<polygon fill="#fdb462" stroke="transparent" points="310,-10 310,-30 330,-30 330,-10 310,-10"/>
<text text-anchor="start" x="333.67" y="-15.4" font-family="Times-12" font-size="14.00"> &#160;Providers</text>
<polygon fill="#fb8072" stroke="transparent" points="406,-10 406,-30 426,-30 426,-10 406,-10"/>
<text text-anchor="start" x="429.73" y="-15.4" font-family="Times-12" font-size="14.00"> &#160;Exports</text>
<g id="clust1" class="cluster">
<title>cluster_MediaBoardModule</title>
<polygon fill="none" stroke="black" stroke-dasharray="1,5" points="57,-70 57,-268 439,-268 439,-70 57,-70"/>
</g>
<g id="clust6" class="cluster">
<title>cluster_MediaBoardModule_providers</title>
<polygon fill="none" stroke="black" points="175,-78 175,-130 431,-130 431,-78 175,-78"/>
</g>
<g id="clust4" class="cluster">
<title>cluster_MediaBoardModule_exports</title>
<polygon fill="none" stroke="black" points="135,-208 135,-260 329,-260 329,-208 135,-208"/>
</g>
<g id="clust3" class="cluster">
<title>cluster_MediaBoardModule_imports</title>
<polygon fill="none" stroke="black" points="65,-78 65,-130 167,-130 167,-78 65,-78"/>
</g>
<!-- ToolModule -->
<g id="node1" class="node">
<title>ToolModule</title>
<polygon fill="#8dd3c7" stroke="black" points="158.99,-122 155.99,-126 134.99,-126 131.99,-122 73.01,-122 73.01,-86 158.99,-86 158.99,-122"/>
<text text-anchor="middle" x="116" y="-99.8" font-family="Times,serif" font-size="14.00">ToolModule</text>
</g>
<!-- MediaBoardModule -->
<g id="node2" class="node">
<title>MediaBoardModule</title>
<polygon fill="#8dd3c7" stroke="black" points="296.53,-187 293.53,-191 272.53,-191 269.53,-187 167.47,-187 167.47,-151 296.53,-151 296.53,-187"/>
<text text-anchor="middle" x="232" y="-164.8" font-family="Times,serif" font-size="14.00">MediaBoardModule</text>
</g>
<!-- ToolModule&#45;&gt;MediaBoardModule -->
<g id="edge1" class="edge">
<title>ToolModule&#45;&gt;MediaBoardModule</title>
<path fill="none" stroke="black" d="M151.17,-122.11C151.17,-141.34 151.17,-169 151.17,-169 151.17,-169 157.14,-169 157.14,-169"/>
<polygon fill="black" stroke="black" points="157.14,-172.5 167.14,-169 157.14,-165.5 157.14,-172.5"/>
</g>
<!-- MediaAvailableLineService  -->
<g id="node3" class="node">
<title>MediaAvailableLineService </title>
<polygon fill="#fb8072" stroke="black" points="320.82,-252 143.18,-252 143.18,-216 320.82,-216 320.82,-252"/>
<text text-anchor="middle" x="232" y="-229.8" font-family="Times,serif" font-size="14.00">MediaAvailableLineService </text>
</g>
<!-- MediaBoardModule&#45;&gt;MediaAvailableLineService  -->
<g id="edge2" class="edge">
<title>MediaBoardModule&#45;&gt;MediaAvailableLineService </title>
<path fill="none" stroke="black" stroke-dasharray="5,2" d="M232,-187.11C232,-187.11 232,-205.99 232,-205.99"/>
<polygon fill="black" stroke="black" points="228.5,-205.99 232,-215.99 235.5,-205.99 228.5,-205.99"/>
</g>
<!-- MediaAvailableLineService -->
<g id="node4" class="node">
<title>MediaAvailableLineService</title>
<ellipse fill="#fdb462" stroke="black" cx="303" cy="-104" rx="119.8" ry="18"/>
<text text-anchor="middle" x="303" y="-99.8" font-family="Times,serif" font-size="14.00">MediaAvailableLineService</text>
</g>
<!-- MediaAvailableLineService&#45;&gt;MediaBoardModule -->
<g id="edge3" class="edge">
<title>MediaAvailableLineService&#45;&gt;MediaBoardModule</title>
<path fill="none" stroke="black" d="M239.93,-119.4C239.93,-119.4 239.93,-140.94 239.93,-140.94"/>
<polygon fill="black" stroke="black" points="236.43,-140.94 239.93,-150.94 243.43,-140.94 236.43,-140.94"/>
</g>
</g>
</svg>
