<?xml version="1.0" encoding="UTF-8" standalone="no"?>
<!DOCTYPE svg PUBLIC "-//W3C//DTD SVG 1.1//EN"
 "http://www.w3.org/Graphics/SVG/1.1/DTD/svg11.dtd">
<!-- Generated by graphviz version 2.47.0 (20210316.0004)
 -->
<!-- Title: dependencies Pages: 1 -->
<svg width="2470pt" height="211pt"
 viewBox="0.00 0.00 2470.00 211.00" xmlns="http://www.w3.org/2000/svg" xmlns:xlink="http://www.w3.org/1999/xlink">
<g id="graph0" class="graph" transform="scale(1 1) rotate(0) translate(4 207)">
<title>dependencies</title>
<polygon fill="white" stroke="transparent" points="-4,4 -4,-207 2466,-207 2466,4 -4,4"/>
<text text-anchor="start" x="1210.01" y="-42.4" font-family="Times-12" font-weight="bold" font-size="14.00">Legend</text>
<polygon fill="#ffffb3" stroke="transparent" points="997,-10 997,-30 1017,-30 1017,-10 997,-10"/>
<text text-anchor="start" x="1020.63" y="-15.4" font-family="Times-12" font-size="14.00"> &#160;Declarations</text>
<polygon fill="#8dd3c7" stroke="transparent" points="1110,-10 1110,-30 1130,-30 1130,-10 1110,-10"/>
<text text-anchor="start" x="1133.73" y="-15.4" font-family="Times-12" font-size="14.00"> &#160;Module</text>
<polygon fill="#80b1d3" stroke="transparent" points="1196,-10 1196,-30 1216,-30 1216,-10 1196,-10"/>
<text text-anchor="start" x="1219.78" y="-15.4" font-family="Times-12" font-size="14.00"> &#160;Bootstrap</text>
<polygon fill="#fdb462" stroke="transparent" points="1293,-10 1293,-30 1313,-30 1313,-10 1293,-10"/>
<text text-anchor="start" x="1316.67" y="-15.4" font-family="Times-12" font-size="14.00"> &#160;Providers</text>
<polygon fill="#fb8072" stroke="transparent" points="1389,-10 1389,-30 1409,-30 1409,-10 1389,-10"/>
<text text-anchor="start" x="1412.73" y="-15.4" font-family="Times-12" font-size="14.00"> &#160;Exports</text>
<g id="clust1" class="cluster">
<title>cluster_DeletionApiModule</title>
<polygon fill="none" stroke="black" stroke-dasharray="1,5" points="8,-70 8,-195 2454,-195 2454,-70 8,-70"/>
</g>
<g id="clust6" class="cluster">
<title>cluster_DeletionApiModule_providers</title>
<polygon fill="none" stroke="black" points="2256,-78 2256,-130 2446,-130 2446,-78 2256,-78"/>
</g>
<g id="clust3" class="cluster">
<title>cluster_DeletionApiModule_imports</title>
<polygon fill="none" stroke="black" points="16,-78 16,-130 2248,-130 2248,-78 16,-78"/>
</g>
<!-- AccountModule -->
<g id="node1" class="node">
<title>AccountModule</title>
<polygon fill="#8dd3c7" stroke="black" points="2240.48,-122 2237.48,-126 2216.48,-126 2213.48,-122 2133.52,-122 2133.52,-86 2240.48,-86 2240.48,-122"/>
<text text-anchor="middle" x="2187" y="-99.8" font-family="Times,serif" font-size="14.00">AccountModule</text>
</g>
<!-- DeletionApiModule -->
<g id="node18" class="node">
<title>DeletionApiModule</title>
<polygon fill="#8dd3c7" stroke="black" points="1251.25,-187 1248.25,-191 1227.25,-191 1224.25,-187 1122.75,-187 1122.75,-151 1251.25,-151 1251.25,-187"/>
<text text-anchor="middle" x="1187" y="-164.8" font-family="Times,serif" font-size="14.00">DeletionApiModule</text>
</g>
<!-- AccountModule&#45;&gt;DeletionApiModule -->
<g id="edge1" class="edge">
<title>AccountModule&#45;&gt;DeletionApiModule</title>
<path fill="none" stroke="black" d="M2187,-122.16C2187,-144.35 2187,-179 2187,-179 2187,-179 1261.46,-179 1261.46,-179"/>
<polygon fill="black" stroke="black" points="1261.46,-175.5 1251.46,-179 1261.46,-182.5 1261.46,-175.5"/>
</g>
<!-- AuthenticationModule -->
<g id="node2" class="node">
<title>AuthenticationModule</title>
<polygon fill="#8dd3c7" stroke="black" points="2115.25,-122 2112.25,-126 2091.25,-126 2088.25,-122 1972.75,-122 1972.75,-86 2115.25,-86 2115.25,-122"/>
<text text-anchor="middle" x="2044" y="-99.8" font-family="Times,serif" font-size="14.00">AuthenticationModule</text>
</g>
<!-- AuthenticationModule&#45;&gt;DeletionApiModule -->
<g id="edge2" class="edge">
<title>AuthenticationModule&#45;&gt;DeletionApiModule</title>
<path fill="none" stroke="black" d="M2044,-122.28C2044,-143.32 2044,-175 2044,-175 2044,-175 1261.41,-175 1261.41,-175"/>
<polygon fill="black" stroke="black" points="1261.41,-171.5 1251.41,-175 1261.41,-178.5 1261.41,-171.5"/>
</g>
<!-- ClassModule -->
<g id="node3" class="node">
<title>ClassModule</title>
<polygon fill="#8dd3c7" stroke="black" points="1954.88,-122 1951.88,-126 1930.88,-126 1927.88,-122 1865.12,-122 1865.12,-86 1954.88,-86 1954.88,-122"/>
<text text-anchor="middle" x="1910" y="-99.8" font-family="Times,serif" font-size="14.00">ClassModule</text>
</g>
<!-- ClassModule&#45;&gt;DeletionApiModule -->
<g id="edge3" class="edge">
<title>ClassModule&#45;&gt;DeletionApiModule</title>
<path fill="none" stroke="black" d="M1910,-122.31C1910,-142.15 1910,-171 1910,-171 1910,-171 1261.48,-171 1261.48,-171"/>
<polygon fill="black" stroke="black" points="1261.48,-167.5 1251.48,-171 1261.48,-174.5 1261.48,-167.5"/>
</g>
<!-- DeletionModule -->
<g id="node4" class="node">
<title>DeletionModule</title>
<polygon fill="#8dd3c7" stroke="black" points="1846.76,-122 1843.76,-126 1822.76,-126 1819.76,-122 1739.24,-122 1739.24,-86 1846.76,-86 1846.76,-122"/>
<text text-anchor="middle" x="1793" y="-99.8" font-family="Times,serif" font-size="14.00">DeletionModule</text>
</g>
<!-- DeletionModule&#45;&gt;DeletionApiModule -->
<g id="edge4" class="edge">
<title>DeletionModule&#45;&gt;DeletionApiModule</title>
<path fill="none" stroke="black" d="M1793,-122.22C1793,-140.83 1793,-167 1793,-167 1793,-167 1261.28,-167 1261.28,-167"/>
<polygon fill="black" stroke="black" points="1261.28,-163.5 1251.28,-167 1261.28,-170.5 1261.28,-163.5"/>
</g>
<!-- FilesModule -->
<g id="node5" class="node">
<title>FilesModule</title>
<polygon fill="#8dd3c7" stroke="black" points="1721.27,-122 1718.27,-126 1697.27,-126 1694.27,-122 1634.73,-122 1634.73,-86 1721.27,-86 1721.27,-122"/>
<text text-anchor="middle" x="1678" y="-99.8" font-family="Times,serif" font-size="14.00">FilesModule</text>
</g>
<!-- FilesModule&#45;&gt;DeletionApiModule -->
<g id="edge5" class="edge">
<title>FilesModule&#45;&gt;DeletionApiModule</title>
<path fill="none" stroke="black" d="M1678,-122.02C1678,-139.37 1678,-163 1678,-163 1678,-163 1261.44,-163 1261.44,-163"/>
<polygon fill="black" stroke="black" points="1261.44,-159.5 1251.44,-163 1261.44,-166.5 1261.44,-159.5"/>
</g>
<!-- FilesStorageClientModule -->
<g id="node6" class="node">
<title>FilesStorageClientModule</title>
<polygon fill="#8dd3c7" stroke="black" points="1616.76,-122 1613.76,-126 1592.76,-126 1589.76,-122 1453.24,-122 1453.24,-86 1616.76,-86 1616.76,-122"/>
<text text-anchor="middle" x="1535" y="-99.8" font-family="Times,serif" font-size="14.00">FilesStorageClientModule</text>
</g>
<!-- FilesStorageClientModule&#45;&gt;DeletionApiModule -->
<g id="edge6" class="edge">
<title>FilesStorageClientModule&#45;&gt;DeletionApiModule</title>
<path fill="none" stroke="black" d="M1535,-122.01C1535,-138.05 1535,-159 1535,-159 1535,-159 1261.64,-159 1261.64,-159"/>
<polygon fill="black" stroke="black" points="1261.64,-155.5 1251.64,-159 1261.64,-162.5 1261.64,-155.5"/>
</g>
<!-- LearnroomModule -->
<g id="node7" class="node">
<title>LearnroomModule</title>
<polygon fill="#8dd3c7" stroke="black" points="1434.74,-122 1431.74,-126 1410.74,-126 1407.74,-122 1313.26,-122 1313.26,-86 1434.74,-86 1434.74,-122"/>
<text text-anchor="middle" x="1374" y="-99.8" font-family="Times,serif" font-size="14.00">LearnroomModule</text>
</g>
<!-- LearnroomModule&#45;&gt;DeletionApiModule -->
<g id="edge7" class="edge">
<title>LearnroomModule&#45;&gt;DeletionApiModule</title>
<path fill="none" stroke="black" d="M1374,-122.12C1374,-136.78 1374,-155 1374,-155 1374,-155 1261.35,-155 1261.35,-155"/>
<polygon fill="black" stroke="black" points="1261.35,-151.5 1251.35,-155 1261.35,-158.5 1261.35,-151.5"/>
</g>
<!-- LessonModule -->
<g id="node8" class="node">
<title>LessonModule</title>
<polygon fill="#8dd3c7" stroke="black" points="1295.71,-122 1292.71,-126 1271.71,-126 1268.71,-122 1196.29,-122 1196.29,-86 1295.71,-86 1295.71,-122"/>
<text text-anchor="middle" x="1246" y="-99.8" font-family="Times,serif" font-size="14.00">LessonModule</text>
</g>
<!-- LessonModule&#45;&gt;DeletionApiModule -->
<g id="edge8" class="edge">
<title>LessonModule&#45;&gt;DeletionApiModule</title>
<path fill="none" stroke="black" d="M1223.89,-122.11C1223.89,-122.11 1223.89,-140.99 1223.89,-140.99"/>
<polygon fill="black" stroke="black" points="1220.39,-140.99 1223.89,-150.99 1227.39,-140.99 1220.39,-140.99"/>
</g>
<!-- LoggerModule -->
<g id="node9" class="node">
<title>LoggerModule</title>
<polygon fill="#8dd3c7" stroke="black" points="1177.98,-122 1174.98,-126 1153.98,-126 1150.98,-122 1078.02,-122 1078.02,-86 1177.98,-86 1177.98,-122"/>
<text text-anchor="middle" x="1128" y="-99.8" font-family="Times,serif" font-size="14.00">LoggerModule</text>
</g>
<!-- LoggerModule&#45;&gt;DeletionApiModule -->
<g id="edge9" class="edge">
<title>LoggerModule&#45;&gt;DeletionApiModule</title>
<path fill="none" stroke="black" d="M1150.31,-122.11C1150.31,-122.11 1150.31,-140.99 1150.31,-140.99"/>
<polygon fill="black" stroke="black" points="1146.81,-140.99 1150.31,-150.99 1153.81,-140.99 1146.81,-140.99"/>
</g>
<!-- NewsModule -->
<g id="node10" class="node">
<title>NewsModule</title>
<polygon fill="#8dd3c7" stroke="black" points="1059.92,-122 1056.92,-126 1035.92,-126 1032.92,-122 968.08,-122 968.08,-86 1059.92,-86 1059.92,-122"/>
<text text-anchor="middle" x="1014" y="-99.8" font-family="Times,serif" font-size="14.00">NewsModule</text>
</g>
<!-- NewsModule&#45;&gt;DeletionApiModule -->
<g id="edge10" class="edge">
<title>NewsModule&#45;&gt;DeletionApiModule</title>
<path fill="none" stroke="black" d="M1014,-122.12C1014,-136.78 1014,-155 1014,-155 1014,-155 1112.58,-155 1112.58,-155"/>
<polygon fill="black" stroke="black" points="1112.58,-158.5 1122.58,-155 1112.58,-151.5 1112.58,-158.5"/>
</g>
<!-- PseudonymModule -->
<g id="node11" class="node">
<title>PseudonymModule</title>
<polygon fill="#8dd3c7" stroke="black" points="950.38,-122 947.38,-126 926.38,-126 923.38,-122 825.62,-122 825.62,-86 950.38,-86 950.38,-122"/>
<text text-anchor="middle" x="888" y="-99.8" font-family="Times,serif" font-size="14.00">PseudonymModule</text>
</g>
<!-- PseudonymModule&#45;&gt;DeletionApiModule -->
<g id="edge11" class="edge">
<title>PseudonymModule&#45;&gt;DeletionApiModule</title>
<path fill="none" stroke="black" d="M888,-122.01C888,-138.05 888,-159 888,-159 888,-159 1112.49,-159 1112.49,-159"/>
<polygon fill="black" stroke="black" points="1112.49,-162.5 1122.49,-159 1112.49,-155.5 1112.49,-162.5"/>
</g>
<!-- RegistrationPinModule -->
<g id="node12" class="node">
<title>RegistrationPinModule</title>
<polygon fill="#8dd3c7" stroke="black" points="807.16,-122 804.16,-126 783.16,-126 780.16,-122 660.84,-122 660.84,-86 807.16,-86 807.16,-122"/>
<text text-anchor="middle" x="734" y="-99.8" font-family="Times,serif" font-size="14.00">RegistrationPinModule</text>
</g>
<!-- RegistrationPinModule&#45;&gt;DeletionApiModule -->
<g id="edge12" class="edge">
<title>RegistrationPinModule&#45;&gt;DeletionApiModule</title>
<path fill="none" stroke="black" d="M734,-122.02C734,-139.37 734,-163 734,-163 734,-163 1112.58,-163 1112.58,-163"/>
<polygon fill="black" stroke="black" points="1112.58,-166.5 1122.58,-163 1112.58,-159.5 1112.58,-166.5"/>
</g>
<!-- RocketChatModule -->
<g id="node13" class="node">
<title>RocketChatModule</title>
<polygon fill="#8dd3c7" stroke="black" points="642.65,-122 639.65,-126 618.65,-126 615.65,-122 517.35,-122 517.35,-86 642.65,-86 642.65,-122"/>
<text text-anchor="middle" x="580" y="-99.8" font-family="Times,serif" font-size="14.00">RocketChatModule</text>
</g>
<!-- RocketChatModule&#45;&gt;DeletionApiModule -->
<g id="edge13" class="edge">
<title>RocketChatModule&#45;&gt;DeletionApiModule</title>
<path fill="none" stroke="black" d="M580,-122.22C580,-140.83 580,-167 580,-167 580,-167 1112.62,-167 1112.62,-167"/>
<polygon fill="black" stroke="black" points="1112.62,-170.5 1122.62,-167 1112.61,-163.5 1112.62,-170.5"/>
</g>
<!-- RocketChatUserModule -->
<g id="node14" class="node">
<title>RocketChatUserModule</title>
<polygon fill="#8dd3c7" stroke="black" points="499.07,-122 496.07,-126 475.07,-126 472.07,-122 346.93,-122 346.93,-86 499.07,-86 499.07,-122"/>
<text text-anchor="middle" x="423" y="-99.8" font-family="Times,serif" font-size="14.00">RocketChatUserModule</text>
</g>
<!-- RocketChatUserModule&#45;&gt;DeletionApiModule -->
<g id="edge14" class="edge">
<title>RocketChatUserModule&#45;&gt;DeletionApiModule</title>
<path fill="none" stroke="black" d="M423,-122.31C423,-142.15 423,-171 423,-171 423,-171 1112.52,-171 1112.52,-171"/>
<polygon fill="black" stroke="black" points="1112.52,-174.5 1122.52,-171 1112.52,-167.5 1112.52,-174.5"/>
</g>
<!-- TaskModule -->
<g id="node15" class="node">
<title>TaskModule</title>
<polygon fill="#8dd3c7" stroke="black" points="329.26,-122 326.26,-126 305.26,-126 302.26,-122 242.74,-122 242.74,-86 329.26,-86 329.26,-122"/>
<text text-anchor="middle" x="286" y="-99.8" font-family="Times,serif" font-size="14.00">TaskModule</text>
</g>
<!-- TaskModule&#45;&gt;DeletionApiModule -->
<g id="edge15" class="edge">
<title>TaskModule&#45;&gt;DeletionApiModule</title>
<path fill="none" stroke="black" d="M286,-122.28C286,-143.32 286,-175 286,-175 286,-175 1112.56,-175 1112.56,-175"/>
<polygon fill="black" stroke="black" points="1112.56,-178.5 1122.56,-175 1112.56,-171.5 1112.56,-178.5"/>
</g>
<!-- TeamsModule -->
<g id="node16" class="node">
<title>TeamsModule</title>
<polygon fill="#8dd3c7" stroke="black" points="224.37,-122 221.37,-126 200.37,-126 197.37,-122 127.63,-122 127.63,-86 224.37,-86 224.37,-122"/>
<text text-anchor="middle" x="176" y="-99.8" font-family="Times,serif" font-size="14.00">TeamsModule</text>
</g>
<!-- TeamsModule&#45;&gt;DeletionApiModule -->
<g id="edge16" class="edge">
<title>TeamsModule&#45;&gt;DeletionApiModule</title>
<path fill="none" stroke="black" d="M176,-122.16C176,-144.35 176,-179 176,-179 176,-179 1112.61,-179 1112.61,-179"/>
<polygon fill="black" stroke="black" points="1112.61,-182.5 1122.61,-179 1112.61,-175.5 1112.61,-182.5"/>
</g>
<!-- UserModule -->
<g id="node17" class="node">
<title>UserModule</title>
<polygon fill="#8dd3c7" stroke="black" points="109.98,-122 106.98,-126 85.98,-126 82.98,-122 24.02,-122 24.02,-86 109.98,-86 109.98,-122"/>
<text text-anchor="middle" x="67" y="-99.8" font-family="Times,serif" font-size="14.00">UserModule</text>
</g>
<!-- UserModule&#45;&gt;DeletionApiModule -->
<g id="edge17" class="edge">
<title>UserModule&#45;&gt;DeletionApiModule</title>
<path fill="none" stroke="black" d="M67,-122.32C67,-145.66 67,-183 67,-183 67,-183 1112.35,-183 1112.35,-183"/>
<polygon fill="black" stroke="black" points="1112.35,-186.5 1122.35,-183 1112.35,-179.5 1112.35,-186.5"/>
</g>
<!-- DeletionRequestUc -->
<g id="node19" class="node">
<title>DeletionRequestUc</title>
<ellipse fill="#fdb462" stroke="black" cx="2351" cy="-104" rx="86.81" ry="18"/>
<text text-anchor="middle" x="2351" y="-99.8" font-family="Times,serif" font-size="14.00">DeletionRequestUc</text>
</g>
<!-- DeletionRequestUc&#45;&gt;DeletionApiModule -->
<g id="edge18" class="edge">
<title>DeletionRequestUc&#45;&gt;DeletionApiModule</title>
<path fill="none" stroke="black" d="M2351,-122.32C2351,-145.66 2351,-183 2351,-183 2351,-183 1261.66,-183 1261.66,-183"/>
<polygon fill="black" stroke="black" points="1261.66,-179.5 1251.66,-183 1261.66,-186.5 1261.66,-179.5"/>
</g>
</g>
</svg>
