<?xml version="1.0" encoding="UTF-8" standalone="no"?>
<!DOCTYPE svg PUBLIC "-//W3C//DTD SVG 1.1//EN"
 "http://www.w3.org/Graphics/SVG/1.1/DTD/svg11.dtd">
<!-- Generated by graphviz version 2.47.0 (20210316.0004)
 -->
<!-- Title: dependencies Pages: 1 -->
<svg width="2255pt" height="211pt"
 viewBox="0.00 0.00 2255.00 211.00" xmlns="http://www.w3.org/2000/svg" xmlns:xlink="http://www.w3.org/1999/xlink">
<g id="graph0" class="graph" transform="scale(1 1) rotate(0) translate(4 207)">
<title>dependencies</title>
<polygon fill="white" stroke="transparent" points="-4,4 -4,-207 2251,-207 2251,4 -4,4"/>
<text text-anchor="start" x="1102.51" y="-42.4" font-family="Times-12" font-weight="bold" font-size="14.00">Legend</text>
<polygon fill="#ffffb3" stroke="transparent" points="889.5,-10 889.5,-30 909.5,-30 909.5,-10 889.5,-10"/>
<text text-anchor="start" x="913.13" y="-15.4" font-family="Times-12" font-size="14.00"> &#160;Declarations</text>
<polygon fill="#8dd3c7" stroke="transparent" points="1002.5,-10 1002.5,-30 1022.5,-30 1022.5,-10 1002.5,-10"/>
<text text-anchor="start" x="1026.23" y="-15.4" font-family="Times-12" font-size="14.00"> &#160;Module</text>
<polygon fill="#80b1d3" stroke="transparent" points="1088.5,-10 1088.5,-30 1108.5,-30 1108.5,-10 1088.5,-10"/>
<text text-anchor="start" x="1112.28" y="-15.4" font-family="Times-12" font-size="14.00"> &#160;Bootstrap</text>
<polygon fill="#fdb462" stroke="transparent" points="1185.5,-10 1185.5,-30 1205.5,-30 1205.5,-10 1185.5,-10"/>
<text text-anchor="start" x="1209.17" y="-15.4" font-family="Times-12" font-size="14.00"> &#160;Providers</text>
<polygon fill="#fb8072" stroke="transparent" points="1281.5,-10 1281.5,-30 1301.5,-30 1301.5,-10 1281.5,-10"/>
<text text-anchor="start" x="1305.23" y="-15.4" font-family="Times-12" font-size="14.00"> &#160;Exports</text>
<g id="clust1" class="cluster">
<title>cluster_DeletionApiModule</title>
<polygon fill="none" stroke="black" stroke-dasharray="1,5" points="8,-70 8,-195 2239,-195 2239,-70 8,-70"/>
</g>
<g id="clust3" class="cluster">
<title>cluster_DeletionApiModule_imports</title>
<polygon fill="none" stroke="black" points="214,-78 214,-130 2231,-130 2231,-78 214,-78"/>
</g>
<g id="clust6" class="cluster">
<title>cluster_DeletionApiModule_providers</title>
<polygon fill="none" stroke="black" points="16,-78 16,-130 206,-130 206,-78 16,-78"/>
</g>
<!-- AccountModule -->
<g id="node1" class="node">
<title>AccountModule</title>
<polygon fill="#8dd3c7" stroke="black" points="2223.48,-122 2220.48,-126 2199.48,-126 2196.48,-122 2116.52,-122 2116.52,-86 2223.48,-86 2223.48,-122"/>
<text text-anchor="middle" x="2170" y="-99.8" font-family="Times,serif" font-size="14.00">AccountModule</text>
</g>
<!-- DeletionApiModule -->
<g id="node16" class="node">
<title>DeletionApiModule</title>
<polygon fill="#8dd3c7" stroke="black" points="1234.25,-187 1231.25,-191 1210.25,-191 1207.25,-187 1105.75,-187 1105.75,-151 1234.25,-151 1234.25,-187"/>
<text text-anchor="middle" x="1170" y="-164.8" font-family="Times,serif" font-size="14.00">DeletionApiModule</text>
</g>
<!-- AccountModule&#45;&gt;DeletionApiModule -->
<g id="edge1" class="edge">
<title>AccountModule&#45;&gt;DeletionApiModule</title>
<path fill="none" stroke="black" d="M2170,-122.32C2170,-145.66 2170,-183 2170,-183 2170,-183 1244.46,-183 1244.46,-183"/>
<polygon fill="black" stroke="black" points="1244.46,-179.5 1234.46,-183 1244.46,-186.5 1244.46,-179.5"/>
</g>
<!-- AuthenticationModule -->
<g id="node2" class="node">
<title>AuthenticationModule</title>
<polygon fill="#8dd3c7" stroke="black" points="2098.25,-122 2095.25,-126 2074.25,-126 2071.25,-122 1955.75,-122 1955.75,-86 2098.25,-86 2098.25,-122"/>
<text text-anchor="middle" x="2027" y="-99.8" font-family="Times,serif" font-size="14.00">AuthenticationModule</text>
</g>
<!-- AuthenticationModule&#45;&gt;DeletionApiModule -->
<g id="edge2" class="edge">
<title>AuthenticationModule&#45;&gt;DeletionApiModule</title>
<path fill="none" stroke="black" d="M2027,-122.29C2027,-144.21 2027,-178 2027,-178 2027,-178 1244.41,-178 1244.41,-178"/>
<polygon fill="black" stroke="black" points="1244.41,-174.5 1234.41,-178 1244.41,-181.5 1244.41,-174.5"/>
</g>
<!-- ClassModule -->
<g id="node3" class="node">
<title>ClassModule</title>
<polygon fill="#8dd3c7" stroke="black" points="1937.88,-122 1934.88,-126 1913.88,-126 1910.88,-122 1848.12,-122 1848.12,-86 1937.88,-86 1937.88,-122"/>
<text text-anchor="middle" x="1893" y="-99.8" font-family="Times,serif" font-size="14.00">ClassModule</text>
</g>
<!-- ClassModule&#45;&gt;DeletionApiModule -->
<g id="edge3" class="edge">
<title>ClassModule&#45;&gt;DeletionApiModule</title>
<path fill="none" stroke="black" d="M1893,-122.03C1893,-142.77 1893,-174 1893,-174 1893,-174 1244.48,-174 1244.48,-174"/>
<polygon fill="black" stroke="black" points="1244.48,-170.5 1234.48,-174 1244.48,-177.5 1244.48,-170.5"/>
</g>
<!-- DeletionModule -->
<g id="node4" class="node">
<title>DeletionModule</title>
<polygon fill="#8dd3c7" stroke="black" points="1829.76,-122 1826.76,-126 1805.76,-126 1802.76,-122 1722.24,-122 1722.24,-86 1829.76,-86 1829.76,-122"/>
<text text-anchor="middle" x="1776" y="-99.8" font-family="Times,serif" font-size="14.00">DeletionModule</text>
</g>
<!-- DeletionModule&#45;&gt;DeletionApiModule -->
<g id="edge4" class="edge">
<title>DeletionModule&#45;&gt;DeletionApiModule</title>
<path fill="none" stroke="black" d="M1776,-122.11C1776,-141.34 1776,-169 1776,-169 1776,-169 1244.28,-169 1244.28,-169"/>
<polygon fill="black" stroke="black" points="1244.28,-165.5 1234.28,-169 1244.28,-172.5 1244.28,-165.5"/>
</g>
<!-- FilesModule -->
<g id="node5" class="node">
<title>FilesModule</title>
<polygon fill="#8dd3c7" stroke="black" points="1704.27,-122 1701.27,-126 1680.27,-126 1677.27,-122 1617.73,-122 1617.73,-86 1704.27,-86 1704.27,-122"/>
<text text-anchor="middle" x="1661" y="-99.8" font-family="Times,serif" font-size="14.00">FilesModule</text>
</g>
<!-- FilesModule&#45;&gt;DeletionApiModule -->
<g id="edge5" class="edge">
<title>FilesModule&#45;&gt;DeletionApiModule</title>
<path fill="none" stroke="black" d="M1661,-122.3C1661,-140.27 1661,-165 1661,-165 1661,-165 1244.44,-165 1244.44,-165"/>
<polygon fill="black" stroke="black" points="1244.44,-161.5 1234.44,-165 1244.44,-168.5 1244.44,-161.5"/>
</g>
<!-- FilesStorageClientModule -->
<g id="node6" class="node">
<title>FilesStorageClientModule</title>
<polygon fill="#8dd3c7" stroke="black" points="1599.76,-122 1596.76,-126 1575.76,-126 1572.76,-122 1436.24,-122 1436.24,-86 1599.76,-86 1599.76,-122"/>
<text text-anchor="middle" x="1518" y="-99.8" font-family="Times,serif" font-size="14.00">FilesStorageClientModule</text>
</g>
<!-- FilesStorageClientModule&#45;&gt;DeletionApiModule -->
<g id="edge6" class="edge">
<title>FilesStorageClientModule&#45;&gt;DeletionApiModule</title>
<path fill="none" stroke="black" d="M1518,-122.03C1518,-138.4 1518,-160 1518,-160 1518,-160 1244.64,-160 1244.64,-160"/>
<polygon fill="black" stroke="black" points="1244.64,-156.5 1234.64,-160 1244.64,-163.5 1244.64,-156.5"/>
</g>
<!-- LearnroomModule -->
<g id="node7" class="node">
<title>LearnroomModule</title>
<polygon fill="#8dd3c7" stroke="black" points="1417.74,-122 1414.74,-126 1393.74,-126 1390.74,-122 1296.26,-122 1296.26,-86 1417.74,-86 1417.74,-122"/>
<text text-anchor="middle" x="1357" y="-99.8" font-family="Times,serif" font-size="14.00">LearnroomModule</text>
</g>
<!-- LearnroomModule&#45;&gt;DeletionApiModule -->
<g id="edge7" class="edge">
<title>LearnroomModule&#45;&gt;DeletionApiModule</title>
<path fill="none" stroke="black" d="M1357,-122.19C1357,-137.18 1357,-156 1357,-156 1357,-156 1244.35,-156 1244.35,-156"/>
<polygon fill="black" stroke="black" points="1244.35,-152.5 1234.35,-156 1244.35,-159.5 1244.35,-152.5"/>
</g>
<!-- LessonModule -->
<g id="node8" class="node">
<title>LessonModule</title>
<polygon fill="#8dd3c7" stroke="black" points="1278.71,-122 1275.71,-126 1254.71,-126 1251.71,-122 1179.29,-122 1179.29,-86 1278.71,-86 1278.71,-122"/>
<text text-anchor="middle" x="1229" y="-99.8" font-family="Times,serif" font-size="14.00">LessonModule</text>
</g>
<!-- LessonModule&#45;&gt;DeletionApiModule -->
<g id="edge8" class="edge">
<title>LessonModule&#45;&gt;DeletionApiModule</title>
<path fill="none" stroke="black" d="M1206.89,-122.11C1206.89,-122.11 1206.89,-140.99 1206.89,-140.99"/>
<polygon fill="black" stroke="black" points="1203.39,-140.99 1206.89,-150.99 1210.39,-140.99 1203.39,-140.99"/>
</g>
<!-- LoggerModule -->
<g id="node9" class="node">
<title>LoggerModule</title>
<polygon fill="#8dd3c7" stroke="black" points="1160.98,-122 1157.98,-126 1136.98,-126 1133.98,-122 1061.02,-122 1061.02,-86 1160.98,-86 1160.98,-122"/>
<text text-anchor="middle" x="1111" y="-99.8" font-family="Times,serif" font-size="14.00">LoggerModule</text>
</g>
<!-- LoggerModule&#45;&gt;DeletionApiModule -->
<g id="edge9" class="edge">
<title>LoggerModule&#45;&gt;DeletionApiModule</title>
<path fill="none" stroke="black" d="M1133.31,-122.11C1133.31,-122.11 1133.31,-140.99 1133.31,-140.99"/>
<polygon fill="black" stroke="black" points="1129.81,-140.99 1133.31,-150.99 1136.81,-140.99 1129.81,-140.99"/>
</g>
<!-- PseudonymModule -->
<g id="node10" class="node">
<title>PseudonymModule</title>
<polygon fill="#8dd3c7" stroke="black" points="1043.38,-122 1040.38,-126 1019.38,-126 1016.38,-122 918.62,-122 918.62,-86 1043.38,-86 1043.38,-122"/>
<text text-anchor="middle" x="981" y="-99.8" font-family="Times,serif" font-size="14.00">PseudonymModule</text>
</g>
<!-- PseudonymModule&#45;&gt;DeletionApiModule -->
<g id="edge10" class="edge">
<title>PseudonymModule&#45;&gt;DeletionApiModule</title>
<path fill="none" stroke="black" d="M981,-122.19C981,-137.18 981,-156 981,-156 981,-156 1095.49,-156 1095.49,-156"/>
<polygon fill="black" stroke="black" points="1095.49,-159.5 1105.49,-156 1095.49,-152.5 1095.49,-159.5"/>
</g>
<!-- RegistrationPinModule -->
<g id="node11" class="node">
<title>RegistrationPinModule</title>
<polygon fill="#8dd3c7" stroke="black" points="900.16,-122 897.16,-126 876.16,-126 873.16,-122 753.84,-122 753.84,-86 900.16,-86 900.16,-122"/>
<text text-anchor="middle" x="827" y="-99.8" font-family="Times,serif" font-size="14.00">RegistrationPinModule</text>
</g>
<!-- RegistrationPinModule&#45;&gt;DeletionApiModule -->
<g id="edge11" class="edge">
<title>RegistrationPinModule&#45;&gt;DeletionApiModule</title>
<path fill="none" stroke="black" d="M827,-122.03C827,-138.4 827,-160 827,-160 827,-160 1095.48,-160 1095.48,-160"/>
<polygon fill="black" stroke="black" points="1095.48,-163.5 1105.48,-160 1095.48,-156.5 1095.48,-163.5"/>
</g>
<!-- RocketChatModule -->
<g id="node12" class="node">
<title>RocketChatModule</title>
<polygon fill="#8dd3c7" stroke="black" points="735.65,-122 732.65,-126 711.65,-126 708.65,-122 610.35,-122 610.35,-86 735.65,-86 735.65,-122"/>
<text text-anchor="middle" x="673" y="-99.8" font-family="Times,serif" font-size="14.00">RocketChatModule</text>
</g>
<!-- RocketChatModule&#45;&gt;DeletionApiModule -->
<g id="edge12" class="edge">
<title>RocketChatModule&#45;&gt;DeletionApiModule</title>
<path fill="none" stroke="black" d="M673,-122.3C673,-140.27 673,-165 673,-165 673,-165 1095.54,-165 1095.54,-165"/>
<polygon fill="black" stroke="black" points="1095.54,-168.5 1105.54,-165 1095.54,-161.5 1095.54,-168.5"/>
</g>
<!-- RocketChatUserModule -->
<g id="node13" class="node">
<title>RocketChatUserModule</title>
<polygon fill="#8dd3c7" stroke="black" points="592.07,-122 589.07,-126 568.07,-126 565.07,-122 439.93,-122 439.93,-86 592.07,-86 592.07,-122"/>
<text text-anchor="middle" x="516" y="-99.8" font-family="Times,serif" font-size="14.00">RocketChatUserModule</text>
</g>
<!-- RocketChatUserModule&#45;&gt;DeletionApiModule -->
<g id="edge13" class="edge">
<title>RocketChatUserModule&#45;&gt;DeletionApiModule</title>
<path fill="none" stroke="black" d="M516,-122.11C516,-141.34 516,-169 516,-169 516,-169 1095.5,-169 1095.5,-169"/>
<polygon fill="black" stroke="black" points="1095.5,-172.5 1105.5,-169 1095.5,-165.5 1095.5,-172.5"/>
</g>
<!-- TeamsModule -->
<g id="node14" class="node">
<title>TeamsModule</title>
<polygon fill="#8dd3c7" stroke="black" points="422.37,-122 419.37,-126 398.37,-126 395.37,-122 325.63,-122 325.63,-86 422.37,-86 422.37,-122"/>
<text text-anchor="middle" x="374" y="-99.8" font-family="Times,serif" font-size="14.00">TeamsModule</text>
</g>
<!-- TeamsModule&#45;&gt;DeletionApiModule -->
<g id="edge14" class="edge">
<title>TeamsModule&#45;&gt;DeletionApiModule</title>
<path fill="none" stroke="black" d="M374,-122.03C374,-142.77 374,-174 374,-174 374,-174 1095.53,-174 1095.53,-174"/>
<polygon fill="black" stroke="black" points="1095.53,-177.5 1105.53,-174 1095.53,-170.5 1095.53,-177.5"/>
</g>
<!-- UserModule -->
<g id="node15" class="node">
<title>UserModule</title>
<polygon fill="#8dd3c7" stroke="black" points="307.98,-122 304.98,-126 283.98,-126 280.98,-122 222.02,-122 222.02,-86 307.98,-86 307.98,-122"/>
<text text-anchor="middle" x="265" y="-99.8" font-family="Times,serif" font-size="14.00">UserModule</text>
</g>
<!-- UserModule&#45;&gt;DeletionApiModule -->
<g id="edge15" class="edge">
<title>UserModule&#45;&gt;DeletionApiModule</title>
<path fill="none" stroke="black" d="M265,-122.29C265,-144.21 265,-178 265,-178 265,-178 1095.64,-178 1095.64,-178"/>
<polygon fill="black" stroke="black" points="1095.64,-181.5 1105.64,-178 1095.64,-174.5 1095.64,-181.5"/>
</g>
<!-- DeletionRequestUc -->
<g id="node17" class="node">
<title>DeletionRequestUc</title>
<ellipse fill="#fdb462" stroke="black" cx="111" cy="-104" rx="86.81" ry="18"/>
<text text-anchor="middle" x="111" y="-99.8" font-family="Times,serif" font-size="14.00">DeletionRequestUc</text>
</g>
<!-- DeletionRequestUc&#45;&gt;DeletionApiModule -->
<g id="edge16" class="edge">
<title>DeletionRequestUc&#45;&gt;DeletionApiModule</title>
<path fill="none" stroke="black" d="M111,-122.32C111,-145.66 111,-183 111,-183 111,-183 1095.74,-183 1095.74,-183"/>
<polygon fill="black" stroke="black" points="1095.74,-186.5 1105.74,-183 1095.74,-179.5 1095.74,-186.5"/>
</g>
</g>
</svg>
