<?xml version="1.0" encoding="UTF-8" standalone="no"?>
<!DOCTYPE svg PUBLIC "-//W3C//DTD SVG 1.1//EN"
 "http://www.w3.org/Graphics/SVG/1.1/DTD/svg11.dtd">
<!-- Generated by graphviz version 2.47.0 (20210316.0004)
 -->
<!-- Title: dependencies Pages: 1 -->
<svg width="1516pt" height="211pt"
 viewBox="0.00 0.00 1516.00 211.00" xmlns="http://www.w3.org/2000/svg" xmlns:xlink="http://www.w3.org/1999/xlink">
<g id="graph0" class="graph" transform="scale(1 1) rotate(0) translate(4 207)">
<title>dependencies</title>
<polygon fill="white" stroke="transparent" points="-4,4 -4,-207 1512,-207 1512,4 -4,4"/>
<text text-anchor="start" x="733.01" y="-42.4" font-family="Times-12" font-weight="bold" font-size="14.00">Legend</text>
<polygon fill="#ffffb3" stroke="transparent" points="520,-10 520,-30 540,-30 540,-10 520,-10"/>
<text text-anchor="start" x="543.63" y="-15.4" font-family="Times-12" font-size="14.00"> &#160;Declarations</text>
<polygon fill="#8dd3c7" stroke="transparent" points="633,-10 633,-30 653,-30 653,-10 633,-10"/>
<text text-anchor="start" x="656.73" y="-15.4" font-family="Times-12" font-size="14.00"> &#160;Module</text>
<polygon fill="#80b1d3" stroke="transparent" points="719,-10 719,-30 739,-30 739,-10 719,-10"/>
<text text-anchor="start" x="742.78" y="-15.4" font-family="Times-12" font-size="14.00"> &#160;Bootstrap</text>
<polygon fill="#fdb462" stroke="transparent" points="816,-10 816,-30 836,-30 836,-10 816,-10"/>
<text text-anchor="start" x="839.67" y="-15.4" font-family="Times-12" font-size="14.00"> &#160;Providers</text>
<polygon fill="#fb8072" stroke="transparent" points="912,-10 912,-30 932,-30 932,-10 912,-10"/>
<text text-anchor="start" x="935.73" y="-15.4" font-family="Times-12" font-size="14.00"> &#160;Exports</text>
<g id="clust1" class="cluster">
<title>cluster_DeletionApiModule</title>
<polygon fill="none" stroke="black" stroke-dasharray="1,5" points="8,-70 8,-195 1500,-195 1500,-70 8,-70"/>
</g>
<g id="clust3" class="cluster">
<title>cluster_DeletionApiModule_imports</title>
<polygon fill="none" stroke="black" points="214,-78 214,-130 1492,-130 1492,-78 214,-78"/>
</g>
<g id="clust6" class="cluster">
<title>cluster_DeletionApiModule_providers</title>
<polygon fill="none" stroke="black" points="16,-78 16,-130 206,-130 206,-78 16,-78"/>
</g>
<!-- AuthenticationModule -->
<g id="node1" class="node">
<title>AuthenticationModule</title>
<polygon fill="#8dd3c7" stroke="black" points="1484.25,-122 1481.25,-126 1460.25,-126 1457.25,-122 1341.75,-122 1341.75,-86 1484.25,-86 1484.25,-122"/>
<text text-anchor="middle" x="1413" y="-99.8" font-family="Times,serif" font-size="14.00">AuthenticationModule</text>
</g>
<!-- DeletionApiModule -->
<g id="node11" class="node">
<title>DeletionApiModule</title>
<polygon fill="#8dd3c7" stroke="black" points="872.25,-187 869.25,-191 848.25,-191 845.25,-187 743.75,-187 743.75,-151 872.25,-151 872.25,-187"/>
<text text-anchor="middle" x="808" y="-164.8" font-family="Times,serif" font-size="14.00">DeletionApiModule</text>
</g>
<!-- AuthenticationModule&#45;&gt;DeletionApiModule -->
<g id="edge1" class="edge">
<title>AuthenticationModule&#45;&gt;DeletionApiModule</title>
<path fill="none" stroke="black" d="M1413,-122.01C1413,-144.49 1413,-180 1413,-180 1413,-180 882.46,-180 882.46,-180"/>
<polygon fill="black" stroke="black" points="882.46,-176.5 872.46,-180 882.46,-183.5 882.46,-176.5"/>
</g>
<!-- CalendarModule -->
<g id="node2" class="node">
<title>CalendarModule</title>
<polygon fill="#8dd3c7" stroke="black" points="1324.08,-122 1321.08,-126 1300.08,-126 1297.08,-122 1213.92,-122 1213.92,-86 1324.08,-86 1324.08,-122"/>
<text text-anchor="middle" x="1269" y="-99.8" font-family="Times,serif" font-size="14.00">CalendarModule</text>
</g>
<!-- CalendarModule&#45;&gt;DeletionApiModule -->
<g id="edge2" class="edge">
<title>CalendarModule&#45;&gt;DeletionApiModule</title>
<path fill="none" stroke="black" d="M1269,-122.13C1269,-142.57 1269,-173 1269,-173 1269,-173 882.59,-173 882.59,-173"/>
<polygon fill="black" stroke="black" points="882.59,-169.5 872.59,-173 882.59,-176.5 882.59,-169.5"/>
</g>
<!-- ClassModule -->
<g id="node3" class="node">
<title>ClassModule</title>
<polygon fill="#8dd3c7" stroke="black" points="1195.88,-122 1192.88,-126 1171.88,-126 1168.88,-122 1106.12,-122 1106.12,-86 1195.88,-86 1195.88,-122"/>
<text text-anchor="middle" x="1151" y="-99.8" font-family="Times,serif" font-size="14.00">ClassModule</text>
</g>
<!-- ClassModule&#45;&gt;DeletionApiModule -->
<g id="edge3" class="edge">
<title>ClassModule&#45;&gt;DeletionApiModule</title>
<path fill="none" stroke="black" d="M1151,-122.27C1151,-140.56 1151,-166 1151,-166 1151,-166 882.52,-166 882.52,-166"/>
<polygon fill="black" stroke="black" points="882.52,-162.5 872.52,-166 882.52,-169.5 882.52,-162.5"/>
</g>
<!-- DeletionModule -->
<g id="node4" class="node">
<title>DeletionModule</title>
<polygon fill="#8dd3c7" stroke="black" points="1087.76,-122 1084.76,-126 1063.76,-126 1060.76,-122 980.24,-122 980.24,-86 1087.76,-86 1087.76,-122"/>
<text text-anchor="middle" x="1034" y="-99.8" font-family="Times,serif" font-size="14.00">DeletionModule</text>
</g>
<!-- DeletionModule&#45;&gt;DeletionApiModule -->
<g id="edge4" class="edge">
<title>DeletionModule&#45;&gt;DeletionApiModule</title>
<path fill="none" stroke="black" d="M1034,-122.01C1034,-138.05 1034,-159 1034,-159 1034,-159 882.46,-159 882.46,-159"/>
<polygon fill="black" stroke="black" points="882.46,-155.5 872.46,-159 882.46,-162.5 882.46,-155.5"/>
</g>
<!-- FilesModule -->
<g id="node5" class="node">
<title>FilesModule</title>
<polygon fill="#8dd3c7" stroke="black" points="962.27,-122 959.27,-126 938.27,-126 935.27,-122 875.73,-122 875.73,-86 962.27,-86 962.27,-122"/>
<text text-anchor="middle" x="919" y="-99.8" font-family="Times,serif" font-size="14.00">FilesModule</text>
</g>
<!-- FilesModule&#45;&gt;DeletionApiModule -->
<g id="edge5" class="edge">
<title>FilesModule&#45;&gt;DeletionApiModule</title>
<path fill="none" stroke="black" d="M875.56,-104C869.44,-104 865.18,-104 865.18,-104 865.18,-104 865.18,-140.89 865.18,-140.89"/>
<polygon fill="black" stroke="black" points="861.68,-140.89 865.18,-150.89 868.68,-140.89 861.68,-140.89"/>
</g>
<!-- LoggerModule -->
<g id="node6" class="node">
<title>LoggerModule</title>
<polygon fill="#8dd3c7" stroke="black" points="857.98,-122 854.98,-126 833.98,-126 830.98,-122 758.02,-122 758.02,-86 857.98,-86 857.98,-122"/>
<text text-anchor="middle" x="808" y="-99.8" font-family="Times,serif" font-size="14.00">LoggerModule</text>
</g>
<!-- LoggerModule&#45;&gt;DeletionApiModule -->
<g id="edge6" class="edge">
<title>LoggerModule&#45;&gt;DeletionApiModule</title>
<path fill="none" stroke="black" d="M808,-122.11C808,-122.11 808,-140.99 808,-140.99"/>
<polygon fill="black" stroke="black" points="804.5,-140.99 808,-150.99 811.5,-140.99 804.5,-140.99"/>
</g>
<!-- NewsModule -->
<g id="node7" class="node">
<title>NewsModule</title>
<polygon fill="#8dd3c7" stroke="black" points="739.92,-122 736.92,-126 715.92,-126 712.92,-122 648.08,-122 648.08,-86 739.92,-86 739.92,-122"/>
<text text-anchor="middle" x="694" y="-99.8" font-family="Times,serif" font-size="14.00">NewsModule</text>
</g>
<!-- NewsModule&#45;&gt;DeletionApiModule -->
<g id="edge7" class="edge">
<title>NewsModule&#45;&gt;DeletionApiModule</title>
<path fill="none" stroke="black" d="M739.86,-104C746.32,-104 750.82,-104 750.82,-104 750.82,-104 750.82,-140.89 750.82,-140.89"/>
<polygon fill="black" stroke="black" points="747.32,-140.89 750.82,-150.89 754.32,-140.89 747.32,-140.89"/>
</g>
<!-- PseudonymModule -->
<g id="node8" class="node">
<title>PseudonymModule</title>
<polygon fill="#8dd3c7" stroke="black" points="630.38,-122 627.38,-126 606.38,-126 603.38,-122 505.62,-122 505.62,-86 630.38,-86 630.38,-122"/>
<text text-anchor="middle" x="568" y="-99.8" font-family="Times,serif" font-size="14.00">PseudonymModule</text>
</g>
<!-- PseudonymModule&#45;&gt;DeletionApiModule -->
<g id="edge8" class="edge">
<title>PseudonymModule&#45;&gt;DeletionApiModule</title>
<path fill="none" stroke="black" d="M568,-122.01C568,-138.05 568,-159 568,-159 568,-159 733.68,-159 733.68,-159"/>
<polygon fill="black" stroke="black" points="733.68,-162.5 743.68,-159 733.68,-155.5 733.68,-162.5"/>
</g>
<!-- RocketChatUserModule -->
<g id="node9" class="node">
<title>RocketChatUserModule</title>
<polygon fill="#8dd3c7" stroke="black" points="488.07,-122 485.07,-126 464.07,-126 461.07,-122 335.93,-122 335.93,-86 488.07,-86 488.07,-122"/>
<text text-anchor="middle" x="412" y="-99.8" font-family="Times,serif" font-size="14.00">RocketChatUserModule</text>
</g>
<!-- RocketChatUserModule&#45;&gt;DeletionApiModule -->
<g id="edge9" class="edge">
<title>RocketChatUserModule&#45;&gt;DeletionApiModule</title>
<path fill="none" stroke="black" d="M412,-122.27C412,-140.56 412,-166 412,-166 412,-166 733.49,-166 733.49,-166"/>
<polygon fill="black" stroke="black" points="733.49,-169.5 743.49,-166 733.49,-162.5 733.49,-169.5"/>
</g>
<!-- TeamsModule -->
<g id="node10" class="node">
<title>TeamsModule</title>
<polygon fill="#8dd3c7" stroke="black" points="318.37,-122 315.37,-126 294.37,-126 291.37,-122 221.63,-122 221.63,-86 318.37,-86 318.37,-122"/>
<text text-anchor="middle" x="270" y="-99.8" font-family="Times,serif" font-size="14.00">TeamsModule</text>
</g>
<!-- TeamsModule&#45;&gt;DeletionApiModule -->
<g id="edge10" class="edge">
<title>TeamsModule&#45;&gt;DeletionApiModule</title>
<path fill="none" stroke="black" d="M270,-122.13C270,-142.57 270,-173 270,-173 270,-173 733.64,-173 733.64,-173"/>
<polygon fill="black" stroke="black" points="733.64,-176.5 743.64,-173 733.64,-169.5 733.64,-176.5"/>
</g>
<!-- DeletionRequestUc -->
<g id="node12" class="node">
<title>DeletionRequestUc</title>
<ellipse fill="#fdb462" stroke="black" cx="111" cy="-104" rx="86.81" ry="18"/>
<text text-anchor="middle" x="111" y="-99.8" font-family="Times,serif" font-size="14.00">DeletionRequestUc</text>
</g>
<!-- DeletionRequestUc&#45;&gt;DeletionApiModule -->
<g id="edge11" class="edge">
<title>DeletionRequestUc&#45;&gt;DeletionApiModule</title>
<path fill="none" stroke="black" d="M111,-122.01C111,-144.49 111,-180 111,-180 111,-180 733.68,-180 733.68,-180"/>
<polygon fill="black" stroke="black" points="733.68,-183.5 743.68,-180 733.68,-176.5 733.68,-183.5"/>
</g>
</g>
</svg>
