<?xml version="1.0" encoding="UTF-8" standalone="no"?>
<!DOCTYPE svg PUBLIC "-//W3C//DTD SVG 1.1//EN"
 "http://www.w3.org/Graphics/SVG/1.1/DTD/svg11.dtd">
<!-- Generated by graphviz version 2.47.0 (20210316.0004)
 -->
<!-- Title: dependencies Pages: 1 -->
<svg width="2470pt" height="211pt"
 viewBox="0.00 0.00 2470.00 211.00" xmlns="http://www.w3.org/2000/svg" xmlns:xlink="http://www.w3.org/1999/xlink">
<g id="graph0" class="graph" transform="scale(1 1) rotate(0) translate(4 207)">
<title>dependencies</title>
<polygon fill="white" stroke="transparent" points="-4,4 -4,-207 2466,-207 2466,4 -4,4"/>
<text text-anchor="start" x="1210.01" y="-42.4" font-family="Times-12" font-weight="bold" font-size="14.00">Legend</text>
<polygon fill="#ffffb3" stroke="transparent" points="997,-10 997,-30 1017,-30 1017,-10 997,-10"/>
<text text-anchor="start" x="1020.63" y="-15.4" font-family="Times-12" font-size="14.00"> &#160;Declarations</text>
<polygon fill="#8dd3c7" stroke="transparent" points="1110,-10 1110,-30 1130,-30 1130,-10 1110,-10"/>
<text text-anchor="start" x="1133.73" y="-15.4" font-family="Times-12" font-size="14.00"> &#160;Module</text>
<polygon fill="#80b1d3" stroke="transparent" points="1196,-10 1196,-30 1216,-30 1216,-10 1196,-10"/>
<text text-anchor="start" x="1219.78" y="-15.4" font-family="Times-12" font-size="14.00"> &#160;Bootstrap</text>
<polygon fill="#fdb462" stroke="transparent" points="1293,-10 1293,-30 1313,-30 1313,-10 1293,-10"/>
<text text-anchor="start" x="1316.67" y="-15.4" font-family="Times-12" font-size="14.00"> &#160;Providers</text>
<polygon fill="#fb8072" stroke="transparent" points="1389,-10 1389,-30 1409,-30 1409,-10 1389,-10"/>
<text text-anchor="start" x="1412.73" y="-15.4" font-family="Times-12" font-size="14.00"> &#160;Exports</text>
<g id="clust1" class="cluster">
<title>cluster_DeletionApiModule</title>
<polygon fill="none" stroke="black" stroke-dasharray="1,5" points="8,-70 8,-195 2454,-195 2454,-70 8,-70"/>
</g>
<g id="clust3" class="cluster">
<title>cluster_DeletionApiModule_imports</title>
<polygon fill="none" stroke="black" points="214,-78 214,-130 2446,-130 2446,-78 214,-78"/>
</g>
<g id="clust6" class="cluster">
<title>cluster_DeletionApiModule_providers</title>
<polygon fill="none" stroke="black" points="16,-78 16,-130 206,-130 206,-78 16,-78"/>
</g>
<!-- AccountModule -->
<g id="node1" class="node">
<title>AccountModule</title>
<polygon fill="#8dd3c7" stroke="black" points="2438.48,-122 2435.48,-126 2414.48,-126 2411.48,-122 2331.52,-122 2331.52,-86 2438.48,-86 2438.48,-122"/>
<text text-anchor="middle" x="2385" y="-99.8" font-family="Times,serif" font-size="14.00">AccountModule</text>
</g>
<!-- DeletionApiModule -->
<g id="node18" class="node">
<title>DeletionApiModule</title>
<polygon fill="#8dd3c7" stroke="black" points="1333.25,-187 1330.25,-191 1309.25,-191 1306.25,-187 1204.75,-187 1204.75,-151 1333.25,-151 1333.25,-187"/>
<text text-anchor="middle" x="1269" y="-164.8" font-family="Times,serif" font-size="14.00">DeletionApiModule</text>
</g>
<!-- AccountModule&#45;&gt;DeletionApiModule -->
<g id="edge1" class="edge">
<title>AccountModule&#45;&gt;DeletionApiModule</title>
<path fill="none" stroke="black" d="M2385,-122.32C2385,-145.66 2385,-183 2385,-183 2385,-183 1343.42,-183 1343.42,-183"/>
<polygon fill="black" stroke="black" points="1343.42,-179.5 1333.42,-183 1343.42,-186.5 1343.42,-179.5"/>
</g>
<!-- AuthenticationModule -->
<g id="node2" class="node">
<title>AuthenticationModule</title>
<polygon fill="#8dd3c7" stroke="black" points="2313.25,-122 2310.25,-126 2289.25,-126 2286.25,-122 2170.75,-122 2170.75,-86 2313.25,-86 2313.25,-122"/>
<text text-anchor="middle" x="2242" y="-99.8" font-family="Times,serif" font-size="14.00">AuthenticationModule</text>
</g>
<!-- AuthenticationModule&#45;&gt;DeletionApiModule -->
<g id="edge2" class="edge">
<title>AuthenticationModule&#45;&gt;DeletionApiModule</title>
<path fill="none" stroke="black" d="M2242,-122.16C2242,-144.35 2242,-179 2242,-179 2242,-179 1343.59,-179 1343.59,-179"/>
<polygon fill="black" stroke="black" points="1343.59,-175.5 1333.59,-179 1343.59,-182.5 1343.59,-175.5"/>
</g>
<!-- ClassModule -->
<g id="node3" class="node">
<title>ClassModule</title>
<polygon fill="#8dd3c7" stroke="black" points="2152.88,-122 2149.88,-126 2128.88,-126 2125.88,-122 2063.12,-122 2063.12,-86 2152.88,-86 2152.88,-122"/>
<text text-anchor="middle" x="2108" y="-99.8" font-family="Times,serif" font-size="14.00">ClassModule</text>
</g>
<!-- ClassModule&#45;&gt;DeletionApiModule -->
<g id="edge3" class="edge">
<title>ClassModule&#45;&gt;DeletionApiModule</title>
<path fill="none" stroke="black" d="M2108,-122.28C2108,-143.32 2108,-175 2108,-175 2108,-175 1343.44,-175 1343.44,-175"/>
<polygon fill="black" stroke="black" points="1343.44,-171.5 1333.44,-175 1343.44,-178.5 1343.44,-171.5"/>
</g>
<!-- DeletionModule -->
<g id="node4" class="node">
<title>DeletionModule</title>
<polygon fill="#8dd3c7" stroke="black" points="2044.76,-122 2041.76,-126 2020.76,-126 2017.76,-122 1937.24,-122 1937.24,-86 2044.76,-86 2044.76,-122"/>
<text text-anchor="middle" x="1991" y="-99.8" font-family="Times,serif" font-size="14.00">DeletionModule</text>
</g>
<!-- DeletionModule&#45;&gt;DeletionApiModule -->
<g id="edge4" class="edge">
<title>DeletionModule&#45;&gt;DeletionApiModule</title>
<path fill="none" stroke="black" d="M1991,-122.31C1991,-142.15 1991,-171 1991,-171 1991,-171 1343.39,-171 1343.39,-171"/>
<polygon fill="black" stroke="black" points="1343.39,-167.5 1333.39,-171 1343.39,-174.5 1343.39,-167.5"/>
</g>
<!-- FilesModule -->
<g id="node5" class="node">
<title>FilesModule</title>
<polygon fill="#8dd3c7" stroke="black" points="1919.27,-122 1916.27,-126 1895.27,-126 1892.27,-122 1832.73,-122 1832.73,-86 1919.27,-86 1919.27,-122"/>
<text text-anchor="middle" x="1876" y="-99.8" font-family="Times,serif" font-size="14.00">FilesModule</text>
</g>
<!-- FilesModule&#45;&gt;DeletionApiModule -->
<g id="edge5" class="edge">
<title>FilesModule&#45;&gt;DeletionApiModule</title>
<path fill="none" stroke="black" d="M1876,-122.22C1876,-140.83 1876,-167 1876,-167 1876,-167 1343.38,-167 1343.38,-167"/>
<polygon fill="black" stroke="black" points="1343.39,-163.5 1333.38,-167 1343.38,-170.5 1343.39,-163.5"/>
</g>
<!-- FilesStorageClientModule -->
<g id="node6" class="node">
<title>FilesStorageClientModule</title>
<polygon fill="#8dd3c7" stroke="black" points="1814.76,-122 1811.76,-126 1790.76,-126 1787.76,-122 1651.24,-122 1651.24,-86 1814.76,-86 1814.76,-122"/>
<text text-anchor="middle" x="1733" y="-99.8" font-family="Times,serif" font-size="14.00">FilesStorageClientModule</text>
</g>
<!-- FilesStorageClientModule&#45;&gt;DeletionApiModule -->
<g id="edge6" class="edge">
<title>FilesStorageClientModule&#45;&gt;DeletionApiModule</title>
<path fill="none" stroke="black" d="M1733,-122.02C1733,-139.37 1733,-163 1733,-163 1733,-163 1343.52,-163 1343.52,-163"/>
<polygon fill="black" stroke="black" points="1343.52,-159.5 1333.52,-163 1343.52,-166.5 1343.52,-159.5"/>
</g>
<!-- LearnroomModule -->
<g id="node7" class="node">
<title>LearnroomModule</title>
<polygon fill="#8dd3c7" stroke="black" points="1632.74,-122 1629.74,-126 1608.74,-126 1605.74,-122 1511.26,-122 1511.26,-86 1632.74,-86 1632.74,-122"/>
<text text-anchor="middle" x="1572" y="-99.8" font-family="Times,serif" font-size="14.00">LearnroomModule</text>
</g>
<!-- LearnroomModule&#45;&gt;DeletionApiModule -->
<g id="edge7" class="edge">
<title>LearnroomModule&#45;&gt;DeletionApiModule</title>
<path fill="none" stroke="black" d="M1572,-122.01C1572,-138.05 1572,-159 1572,-159 1572,-159 1343.26,-159 1343.26,-159"/>
<polygon fill="black" stroke="black" points="1343.26,-155.5 1333.26,-159 1343.26,-162.5 1343.26,-155.5"/>
</g>
<!-- LessonModule -->
<g id="node8" class="node">
<title>LessonModule</title>
<polygon fill="#8dd3c7" stroke="black" points="1493.71,-122 1490.71,-126 1469.71,-126 1466.71,-122 1394.29,-122 1394.29,-86 1493.71,-86 1493.71,-122"/>
<text text-anchor="middle" x="1444" y="-99.8" font-family="Times,serif" font-size="14.00">LessonModule</text>
</g>
<!-- LessonModule&#45;&gt;DeletionApiModule -->
<g id="edge8" class="edge">
<title>LessonModule&#45;&gt;DeletionApiModule</title>
<path fill="none" stroke="black" d="M1444,-122.12C1444,-136.78 1444,-155 1444,-155 1444,-155 1343.67,-155 1343.67,-155"/>
<polygon fill="black" stroke="black" points="1343.67,-151.5 1333.67,-155 1343.67,-158.5 1343.67,-151.5"/>
</g>
<!-- LoggerModule -->
<g id="node9" class="node">
<title>LoggerModule</title>
<polygon fill="#8dd3c7" stroke="black" points="1375.98,-122 1372.98,-126 1351.98,-126 1348.98,-122 1276.02,-122 1276.02,-86 1375.98,-86 1375.98,-122"/>
<text text-anchor="middle" x="1326" y="-99.8" font-family="Times,serif" font-size="14.00">LoggerModule</text>
</g>
<!-- LoggerModule&#45;&gt;DeletionApiModule -->
<g id="edge9" class="edge">
<title>LoggerModule&#45;&gt;DeletionApiModule</title>
<path fill="none" stroke="black" d="M1304.69,-122.11C1304.69,-122.11 1304.69,-140.99 1304.69,-140.99"/>
<polygon fill="black" stroke="black" points="1301.19,-140.99 1304.69,-150.99 1308.19,-140.99 1301.19,-140.99"/>
</g>
<!-- NewsModule -->
<g id="node10" class="node">
<title>NewsModule</title>
<polygon fill="#8dd3c7" stroke="black" points="1257.92,-122 1254.92,-126 1233.92,-126 1230.92,-122 1166.08,-122 1166.08,-86 1257.92,-86 1257.92,-122"/>
<text text-anchor="middle" x="1212" y="-99.8" font-family="Times,serif" font-size="14.00">NewsModule</text>
</g>
<!-- NewsModule&#45;&gt;DeletionApiModule -->
<g id="edge10" class="edge">
<title>NewsModule&#45;&gt;DeletionApiModule</title>
<path fill="none" stroke="black" d="M1231.17,-122.11C1231.17,-122.11 1231.17,-140.99 1231.17,-140.99"/>
<polygon fill="black" stroke="black" points="1227.67,-140.99 1231.17,-150.99 1234.67,-140.99 1227.67,-140.99"/>
</g>
<!-- PseudonymModule -->
<g id="node11" class="node">
<title>PseudonymModule</title>
<polygon fill="#8dd3c7" stroke="black" points="1148.38,-122 1145.38,-126 1124.38,-126 1121.38,-122 1023.62,-122 1023.62,-86 1148.38,-86 1148.38,-122"/>
<text text-anchor="middle" x="1086" y="-99.8" font-family="Times,serif" font-size="14.00">PseudonymModule</text>
</g>
<!-- PseudonymModule&#45;&gt;DeletionApiModule -->
<g id="edge11" class="edge">
<title>PseudonymModule&#45;&gt;DeletionApiModule</title>
<path fill="none" stroke="black" d="M1086,-122.12C1086,-136.78 1086,-155 1086,-155 1086,-155 1194.74,-155 1194.74,-155"/>
<polygon fill="black" stroke="black" points="1194.74,-158.5 1204.74,-155 1194.74,-151.5 1194.74,-158.5"/>
</g>
<!-- RegistrationPinModule -->
<g id="node12" class="node">
<title>RegistrationPinModule</title>
<polygon fill="#8dd3c7" stroke="black" points="1005.16,-122 1002.16,-126 981.16,-126 978.16,-122 858.84,-122 858.84,-86 1005.16,-86 1005.16,-122"/>
<text text-anchor="middle" x="932" y="-99.8" font-family="Times,serif" font-size="14.00">RegistrationPinModule</text>
</g>
<!-- RegistrationPinModule&#45;&gt;DeletionApiModule -->
<g id="edge12" class="edge">
<title>RegistrationPinModule&#45;&gt;DeletionApiModule</title>
<path fill="none" stroke="black" d="M932,-122.01C932,-138.05 932,-159 932,-159 932,-159 1194.42,-159 1194.42,-159"/>
<polygon fill="black" stroke="black" points="1194.42,-162.5 1204.42,-159 1194.42,-155.5 1194.42,-162.5"/>
</g>
<!-- RocketChatModule -->
<g id="node13" class="node">
<title>RocketChatModule</title>
<polygon fill="#8dd3c7" stroke="black" points="840.65,-122 837.65,-126 816.65,-126 813.65,-122 715.35,-122 715.35,-86 840.65,-86 840.65,-122"/>
<text text-anchor="middle" x="778" y="-99.8" font-family="Times,serif" font-size="14.00">RocketChatModule</text>
</g>
<!-- RocketChatModule&#45;&gt;DeletionApiModule -->
<g id="edge13" class="edge">
<title>RocketChatModule&#45;&gt;DeletionApiModule</title>
<path fill="none" stroke="black" d="M778,-122.02C778,-139.37 778,-163 778,-163 778,-163 1194.56,-163 1194.56,-163"/>
<polygon fill="black" stroke="black" points="1194.56,-166.5 1204.56,-163 1194.56,-159.5 1194.56,-166.5"/>
</g>
<!-- RocketChatUserModule -->
<g id="node14" class="node">
<title>RocketChatUserModule</title>
<polygon fill="#8dd3c7" stroke="black" points="697.07,-122 694.07,-126 673.07,-126 670.07,-122 544.93,-122 544.93,-86 697.07,-86 697.07,-122"/>
<text text-anchor="middle" x="621" y="-99.8" font-family="Times,serif" font-size="14.00">RocketChatUserModule</text>
</g>
<!-- RocketChatUserModule&#45;&gt;DeletionApiModule -->
<g id="edge14" class="edge">
<title>RocketChatUserModule&#45;&gt;DeletionApiModule</title>
<path fill="none" stroke="black" d="M621,-122.22C621,-140.83 621,-167 621,-167 621,-167 1194.5,-167 1194.5,-167"/>
<polygon fill="black" stroke="black" points="1194.5,-170.5 1204.5,-167 1194.5,-163.5 1194.5,-170.5"/>
</g>
<!-- TaskModule -->
<g id="node15" class="node">
<title>TaskModule</title>
<polygon fill="#8dd3c7" stroke="black" points="527.26,-122 524.26,-126 503.26,-126 500.26,-122 440.74,-122 440.74,-86 527.26,-86 527.26,-122"/>
<text text-anchor="middle" x="484" y="-99.8" font-family="Times,serif" font-size="14.00">TaskModule</text>
</g>
<!-- TaskModule&#45;&gt;DeletionApiModule -->
<g id="edge15" class="edge">
<title>TaskModule&#45;&gt;DeletionApiModule</title>
<path fill="none" stroke="black" d="M484,-122.31C484,-142.15 484,-171 484,-171 484,-171 1194.43,-171 1194.43,-171"/>
<polygon fill="black" stroke="black" points="1194.43,-174.5 1204.43,-171 1194.43,-167.5 1194.43,-174.5"/>
</g>
<!-- TeamsModule -->
<g id="node16" class="node">
<title>TeamsModule</title>
<polygon fill="#8dd3c7" stroke="black" points="422.37,-122 419.37,-126 398.37,-126 395.37,-122 325.63,-122 325.63,-86 422.37,-86 422.37,-122"/>
<text text-anchor="middle" x="374" y="-99.8" font-family="Times,serif" font-size="14.00">TeamsModule</text>
</g>
<!-- TeamsModule&#45;&gt;DeletionApiModule -->
<g id="edge16" class="edge">
<title>TeamsModule&#45;&gt;DeletionApiModule</title>
<path fill="none" stroke="black" d="M374,-122.28C374,-143.32 374,-175 374,-175 374,-175 1194.63,-175 1194.63,-175"/>
<polygon fill="black" stroke="black" points="1194.63,-178.5 1204.63,-175 1194.63,-171.5 1194.63,-178.5"/>
</g>
<!-- UserModule -->
<g id="node17" class="node">
<title>UserModule</title>
<polygon fill="#8dd3c7" stroke="black" points="307.98,-122 304.98,-126 283.98,-126 280.98,-122 222.02,-122 222.02,-86 307.98,-86 307.98,-122"/>
<text text-anchor="middle" x="265" y="-99.8" font-family="Times,serif" font-size="14.00">UserModule</text>
</g>
<!-- UserModule&#45;&gt;DeletionApiModule -->
<g id="edge17" class="edge">
<title>UserModule&#45;&gt;DeletionApiModule</title>
<path fill="none" stroke="black" d="M265,-122.16C265,-144.35 265,-179 265,-179 265,-179 1194.67,-179 1194.67,-179"/>
<polygon fill="black" stroke="black" points="1194.67,-182.5 1204.67,-179 1194.67,-175.5 1194.67,-182.5"/>
</g>
<!-- DeletionRequestUc -->
<g id="node19" class="node">
<title>DeletionRequestUc</title>
<ellipse fill="#fdb462" stroke="black" cx="111" cy="-104" rx="86.81" ry="18"/>
<text text-anchor="middle" x="111" y="-99.8" font-family="Times,serif" font-size="14.00">DeletionRequestUc</text>
</g>
<!-- DeletionRequestUc&#45;&gt;DeletionApiModule -->
<g id="edge18" class="edge">
<title>DeletionRequestUc&#45;&gt;DeletionApiModule</title>
<path fill="none" stroke="black" d="M111,-122.32C111,-145.66 111,-183 111,-183 111,-183 1194.68,-183 1194.68,-183"/>
<polygon fill="black" stroke="black" points="1194.68,-186.5 1204.68,-183 1194.68,-179.5 1194.68,-186.5"/>
</g>
</g>
</svg>
