<?xml version="1.0" encoding="UTF-8" standalone="no"?>
<!DOCTYPE svg PUBLIC "-//W3C//DTD SVG 1.1//EN"
 "http://www.w3.org/Graphics/SVG/1.1/DTD/svg11.dtd">
<!-- Generated by graphviz version 2.47.0 (20210316.0004)
 -->
<!-- Title: dependencies Pages: 1 -->
<svg width="1388pt" height="211pt"
 viewBox="0.00 0.00 1388.00 211.00" xmlns="http://www.w3.org/2000/svg" xmlns:xlink="http://www.w3.org/1999/xlink">
<g id="graph0" class="graph" transform="scale(1 1) rotate(0) translate(4 207)">
<title>dependencies</title>
<polygon fill="white" stroke="transparent" points="-4,4 -4,-207 1384,-207 1384,4 -4,4"/>
<text text-anchor="start" x="669.01" y="-42.4" font-family="Times-12" font-weight="bold" font-size="14.00">Legend</text>
<polygon fill="#ffffb3" stroke="transparent" points="456,-10 456,-30 476,-30 476,-10 456,-10"/>
<text text-anchor="start" x="479.63" y="-15.4" font-family="Times-12" font-size="14.00"> &#160;Declarations</text>
<polygon fill="#8dd3c7" stroke="transparent" points="569,-10 569,-30 589,-30 589,-10 569,-10"/>
<text text-anchor="start" x="592.73" y="-15.4" font-family="Times-12" font-size="14.00"> &#160;Module</text>
<polygon fill="#80b1d3" stroke="transparent" points="655,-10 655,-30 675,-30 675,-10 655,-10"/>
<text text-anchor="start" x="678.78" y="-15.4" font-family="Times-12" font-size="14.00"> &#160;Bootstrap</text>
<polygon fill="#fdb462" stroke="transparent" points="752,-10 752,-30 772,-30 772,-10 752,-10"/>
<text text-anchor="start" x="775.67" y="-15.4" font-family="Times-12" font-size="14.00"> &#160;Providers</text>
<polygon fill="#fb8072" stroke="transparent" points="848,-10 848,-30 868,-30 868,-10 848,-10"/>
<text text-anchor="start" x="871.73" y="-15.4" font-family="Times-12" font-size="14.00"> &#160;Exports</text>
<g id="clust1" class="cluster">
<title>cluster_DeletionApiModule</title>
<polygon fill="none" stroke="black" stroke-dasharray="1,5" points="8,-70 8,-195 1372,-195 1372,-70 8,-70"/>
</g>
<g id="clust6" class="cluster">
<title>cluster_DeletionApiModule_providers</title>
<polygon fill="none" stroke="black" points="1174,-78 1174,-130 1364,-130 1364,-78 1174,-78"/>
</g>
<g id="clust3" class="cluster">
<title>cluster_DeletionApiModule_imports</title>
<polygon fill="none" stroke="black" points="16,-78 16,-130 1166,-130 1166,-78 16,-78"/>
</g>
<!-- AuthenticationModule -->
<g id="node1" class="node">
<title>AuthenticationModule</title>
<polygon fill="#8dd3c7" stroke="black" points="1158.25,-122 1155.25,-126 1134.25,-126 1131.25,-122 1015.75,-122 1015.75,-86 1158.25,-86 1158.25,-122"/>
<text text-anchor="middle" x="1087" y="-99.8" font-family="Times,serif" font-size="14.00">AuthenticationModule</text>
</g>
<!-- DeletionApiModule -->
<g id="node10" class="node">
<title>DeletionApiModule</title>
<polygon fill="#8dd3c7" stroke="black" points="729.25,-187 726.25,-191 705.25,-191 702.25,-187 600.75,-187 600.75,-151 729.25,-151 729.25,-187"/>
<text text-anchor="middle" x="665" y="-164.8" font-family="Times,serif" font-size="14.00">DeletionApiModule</text>
</g>
<!-- AuthenticationModule&#45;&gt;DeletionApiModule -->
<g id="edge1" class="edge">
<title>AuthenticationModule&#45;&gt;DeletionApiModule</title>
<path fill="none" stroke="black" d="M1087,-122.13C1087,-142.57 1087,-173 1087,-173 1087,-173 739.55,-173 739.55,-173"/>
<polygon fill="black" stroke="black" points="739.55,-169.5 729.55,-173 739.55,-176.5 739.55,-169.5"/>
</g>
<!-- ClassModule -->
<g id="node2" class="node">
<title>ClassModule</title>
<polygon fill="#8dd3c7" stroke="black" points="997.88,-122 994.88,-126 973.88,-126 970.88,-122 908.12,-122 908.12,-86 997.88,-86 997.88,-122"/>
<text text-anchor="middle" x="953" y="-99.8" font-family="Times,serif" font-size="14.00">ClassModule</text>
</g>
<!-- ClassModule&#45;&gt;DeletionApiModule -->
<g id="edge2" class="edge">
<title>ClassModule&#45;&gt;DeletionApiModule</title>
<path fill="none" stroke="black" d="M953,-122.27C953,-140.56 953,-166 953,-166 953,-166 739.27,-166 739.27,-166"/>
<polygon fill="black" stroke="black" points="739.27,-162.5 729.27,-166 739.27,-169.5 739.27,-162.5"/>
</g>
<!-- DeletionModule -->
<g id="node3" class="node">
<title>DeletionModule</title>
<polygon fill="#8dd3c7" stroke="black" points="889.76,-122 886.76,-126 865.76,-126 862.76,-122 782.24,-122 782.24,-86 889.76,-86 889.76,-122"/>
<text text-anchor="middle" x="836" y="-99.8" font-family="Times,serif" font-size="14.00">DeletionModule</text>
</g>
<!-- DeletionModule&#45;&gt;DeletionApiModule -->
<g id="edge3" class="edge">
<title>DeletionModule&#45;&gt;DeletionApiModule</title>
<path fill="none" stroke="black" d="M836,-122.01C836,-138.05 836,-159 836,-159 836,-159 739.65,-159 739.65,-159"/>
<polygon fill="black" stroke="black" points="739.65,-155.5 729.65,-159 739.65,-162.5 739.65,-155.5"/>
</g>
<!-- FilesModule -->
<g id="node4" class="node">
<title>FilesModule</title>
<polygon fill="#8dd3c7" stroke="black" points="764.27,-122 761.27,-126 740.27,-126 737.27,-122 677.73,-122 677.73,-86 764.27,-86 764.27,-122"/>
<text text-anchor="middle" x="721" y="-99.8" font-family="Times,serif" font-size="14.00">FilesModule</text>
</g>
<!-- FilesModule&#45;&gt;DeletionApiModule -->
<g id="edge4" class="edge">
<title>FilesModule&#45;&gt;DeletionApiModule</title>
<path fill="none" stroke="black" d="M703.5,-122.11C703.5,-122.11 703.5,-140.99 703.5,-140.99"/>
<polygon fill="black" stroke="black" points="700,-140.99 703.5,-150.99 707,-140.99 700,-140.99"/>
</g>
<!-- LoggerModule -->
<g id="node5" class="node">
<title>LoggerModule</title>
<polygon fill="#8dd3c7" stroke="black" points="659.98,-122 656.98,-126 635.98,-126 632.98,-122 560.02,-122 560.02,-86 659.98,-86 659.98,-122"/>
<text text-anchor="middle" x="610" y="-99.8" font-family="Times,serif" font-size="14.00">LoggerModule</text>
</g>
<!-- LoggerModule&#45;&gt;DeletionApiModule -->
<g id="edge5" class="edge">
<title>LoggerModule&#45;&gt;DeletionApiModule</title>
<path fill="none" stroke="black" d="M630.31,-122.11C630.31,-122.11 630.31,-140.99 630.31,-140.99"/>
<polygon fill="black" stroke="black" points="626.81,-140.99 630.31,-150.99 633.81,-140.99 626.81,-140.99"/>
</g>
<!-- NewsModule -->
<g id="node6" class="node">
<title>NewsModule</title>
<polygon fill="#8dd3c7" stroke="black" points="541.92,-122 538.92,-126 517.92,-126 514.92,-122 450.08,-122 450.08,-86 541.92,-86 541.92,-122"/>
<text text-anchor="middle" x="496" y="-99.8" font-family="Times,serif" font-size="14.00">NewsModule</text>
</g>
<!-- NewsModule&#45;&gt;DeletionApiModule -->
<g id="edge6" class="edge">
<title>NewsModule&#45;&gt;DeletionApiModule</title>
<path fill="none" stroke="black" d="M496,-122.01C496,-138.05 496,-159 496,-159 496,-159 590.63,-159 590.63,-159"/>
<polygon fill="black" stroke="black" points="590.63,-162.5 600.63,-159 590.63,-155.5 590.63,-162.5"/>
</g>
<!-- PseudonymModule -->
<g id="node7" class="node">
<title>PseudonymModule</title>
<polygon fill="#8dd3c7" stroke="black" points="432.38,-122 429.38,-126 408.38,-126 405.38,-122 307.62,-122 307.62,-86 432.38,-86 432.38,-122"/>
<text text-anchor="middle" x="370" y="-99.8" font-family="Times,serif" font-size="14.00">PseudonymModule</text>
</g>
<!-- PseudonymModule&#45;&gt;DeletionApiModule -->
<g id="edge7" class="edge">
<title>PseudonymModule&#45;&gt;DeletionApiModule</title>
<path fill="none" stroke="black" d="M370,-122.27C370,-140.56 370,-166 370,-166 370,-166 590.63,-166 590.63,-166"/>
<polygon fill="black" stroke="black" points="590.63,-169.5 600.63,-166 590.63,-162.5 590.63,-169.5"/>
</g>
<!-- RocketChatUserModule -->
<g id="node8" class="node">
<title>RocketChatUserModule</title>
<polygon fill="#8dd3c7" stroke="black" points="290.07,-122 287.07,-126 266.07,-126 263.07,-122 137.93,-122 137.93,-86 290.07,-86 290.07,-122"/>
<text text-anchor="middle" x="214" y="-99.8" font-family="Times,serif" font-size="14.00">RocketChatUserModule</text>
</g>
<!-- RocketChatUserModule&#45;&gt;DeletionApiModule -->
<g id="edge8" class="edge">
<title>RocketChatUserModule&#45;&gt;DeletionApiModule</title>
<path fill="none" stroke="black" d="M214,-122.13C214,-142.57 214,-173 214,-173 214,-173 590.38,-173 590.38,-173"/>
<polygon fill="black" stroke="black" points="590.38,-176.5 600.38,-173 590.38,-169.5 590.38,-176.5"/>
</g>
<!-- TeamsModule -->
<g id="node9" class="node">
<title>TeamsModule</title>
<polygon fill="#8dd3c7" stroke="black" points="120.37,-122 117.37,-126 96.37,-126 93.37,-122 23.63,-122 23.63,-86 120.37,-86 120.37,-122"/>
<text text-anchor="middle" x="72" y="-99.8" font-family="Times,serif" font-size="14.00">TeamsModule</text>
</g>
<!-- TeamsModule&#45;&gt;DeletionApiModule -->
<g id="edge9" class="edge">
<title>TeamsModule&#45;&gt;DeletionApiModule</title>
<path fill="none" stroke="black" d="M72,-122.01C72,-144.49 72,-180 72,-180 72,-180 590.69,-180 590.69,-180"/>
<polygon fill="black" stroke="black" points="590.69,-183.5 600.69,-180 590.69,-176.5 590.69,-183.5"/>
</g>
<!-- DeletionRequestUc -->
<g id="node11" class="node">
<title>DeletionRequestUc</title>
<ellipse fill="#fdb462" stroke="black" cx="1269" cy="-104" rx="86.81" ry="18"/>
<text text-anchor="middle" x="1269" y="-99.8" font-family="Times,serif" font-size="14.00">DeletionRequestUc</text>
</g>
<!-- DeletionRequestUc&#45;&gt;DeletionApiModule -->
<g id="edge10" class="edge">
<title>DeletionRequestUc&#45;&gt;DeletionApiModule</title>
<path fill="none" stroke="black" d="M1269,-122.01C1269,-144.49 1269,-180 1269,-180 1269,-180 739.35,-180 739.35,-180"/>
<polygon fill="black" stroke="black" points="739.35,-176.5 729.35,-180 739.35,-183.5 739.35,-176.5"/>
</g>
</g>
</svg>
