<?xml version="1.0" encoding="UTF-8" standalone="no"?>
<!DOCTYPE svg PUBLIC "-//W3C//DTD SVG 1.1//EN"
 "http://www.w3.org/Graphics/SVG/1.1/DTD/svg11.dtd">
<!-- Generated by graphviz version 2.47.0 (20210316.0004)
 -->
<!-- Title: dependencies Pages: 1 -->
<svg width="2360pt" height="211pt"
 viewBox="0.00 0.00 2360.00 211.00" xmlns="http://www.w3.org/2000/svg" xmlns:xlink="http://www.w3.org/1999/xlink">
<g id="graph0" class="graph" transform="scale(1 1) rotate(0) translate(4 207)">
<title>dependencies</title>
<polygon fill="white" stroke="transparent" points="-4,4 -4,-207 2356,-207 2356,4 -4,4"/>
<text text-anchor="start" x="1155.01" y="-42.4" font-family="Times-12" font-weight="bold" font-size="14.00">Legend</text>
<polygon fill="#ffffb3" stroke="transparent" points="942,-10 942,-30 962,-30 962,-10 942,-10"/>
<text text-anchor="start" x="965.63" y="-15.4" font-family="Times-12" font-size="14.00"> &#160;Declarations</text>
<polygon fill="#8dd3c7" stroke="transparent" points="1055,-10 1055,-30 1075,-30 1075,-10 1055,-10"/>
<text text-anchor="start" x="1078.73" y="-15.4" font-family="Times-12" font-size="14.00"> &#160;Module</text>
<polygon fill="#80b1d3" stroke="transparent" points="1141,-10 1141,-30 1161,-30 1161,-10 1141,-10"/>
<text text-anchor="start" x="1164.78" y="-15.4" font-family="Times-12" font-size="14.00"> &#160;Bootstrap</text>
<polygon fill="#fdb462" stroke="transparent" points="1238,-10 1238,-30 1258,-30 1258,-10 1238,-10"/>
<text text-anchor="start" x="1261.67" y="-15.4" font-family="Times-12" font-size="14.00"> &#160;Providers</text>
<polygon fill="#fb8072" stroke="transparent" points="1334,-10 1334,-30 1354,-30 1354,-10 1334,-10"/>
<text text-anchor="start" x="1357.73" y="-15.4" font-family="Times-12" font-size="14.00"> &#160;Exports</text>
<g id="clust1" class="cluster">
<title>cluster_DeletionApiModule</title>
<polygon fill="none" stroke="black" stroke-dasharray="1,5" points="8,-70 8,-195 2344,-195 2344,-70 8,-70"/>
</g>
<g id="clust3" class="cluster">
<title>cluster_DeletionApiModule_imports</title>
<polygon fill="none" stroke="black" points="214,-78 214,-130 2336,-130 2336,-78 214,-78"/>
</g>
<g id="clust6" class="cluster">
<title>cluster_DeletionApiModule_providers</title>
<polygon fill="none" stroke="black" points="16,-78 16,-130 206,-130 206,-78 16,-78"/>
</g>
<!-- AccountModule -->
<g id="node1" class="node">
<title>AccountModule</title>
<polygon fill="#8dd3c7" stroke="black" points="2328.48,-122 2325.48,-126 2304.48,-126 2301.48,-122 2221.52,-122 2221.52,-86 2328.48,-86 2328.48,-122"/>
<text text-anchor="middle" x="2275" y="-99.8" font-family="Times,serif" font-size="14.00">AccountModule</text>
</g>
<!-- DeletionApiModule -->
<g id="node17" class="node">
<title>DeletionApiModule</title>
<polygon fill="#8dd3c7" stroke="black" points="1280.25,-187 1277.25,-191 1256.25,-191 1253.25,-187 1151.75,-187 1151.75,-151 1280.25,-151 1280.25,-187"/>
<text text-anchor="middle" x="1216" y="-164.8" font-family="Times,serif" font-size="14.00">DeletionApiModule</text>
</g>
<!-- AccountModule&#45;&gt;DeletionApiModule -->
<g id="edge1" class="edge">
<title>AccountModule&#45;&gt;DeletionApiModule</title>
<path fill="none" stroke="black" d="M2275,-122.32C2275,-145.66 2275,-183 2275,-183 2275,-183 1290.26,-183 1290.26,-183"/>
<polygon fill="black" stroke="black" points="1290.26,-179.5 1280.26,-183 1290.26,-186.5 1290.26,-179.5"/>
</g>
<!-- AuthenticationModule -->
<g id="node2" class="node">
<title>AuthenticationModule</title>
<polygon fill="#8dd3c7" stroke="black" points="2203.25,-122 2200.25,-126 2179.25,-126 2176.25,-122 2060.75,-122 2060.75,-86 2203.25,-86 2203.25,-122"/>
<text text-anchor="middle" x="2132" y="-99.8" font-family="Times,serif" font-size="14.00">AuthenticationModule</text>
</g>
<!-- AuthenticationModule&#45;&gt;DeletionApiModule -->
<g id="edge2" class="edge">
<title>AuthenticationModule&#45;&gt;DeletionApiModule</title>
<path fill="none" stroke="black" d="M2132,-122.29C2132,-144.21 2132,-178 2132,-178 2132,-178 1290.41,-178 1290.41,-178"/>
<polygon fill="black" stroke="black" points="1290.41,-174.5 1280.41,-178 1290.41,-181.5 1290.41,-174.5"/>
</g>
<!-- ClassModule -->
<g id="node3" class="node">
<title>ClassModule</title>
<polygon fill="#8dd3c7" stroke="black" points="2042.88,-122 2039.88,-126 2018.88,-126 2015.88,-122 1953.12,-122 1953.12,-86 2042.88,-86 2042.88,-122"/>
<text text-anchor="middle" x="1998" y="-99.8" font-family="Times,serif" font-size="14.00">ClassModule</text>
</g>
<!-- ClassModule&#45;&gt;DeletionApiModule -->
<g id="edge3" class="edge">
<title>ClassModule&#45;&gt;DeletionApiModule</title>
<path fill="none" stroke="black" d="M1998,-122.03C1998,-142.77 1998,-174 1998,-174 1998,-174 1290.33,-174 1290.33,-174"/>
<polygon fill="black" stroke="black" points="1290.33,-170.5 1280.33,-174 1290.33,-177.5 1290.33,-170.5"/>
</g>
<!-- DeletionModule -->
<g id="node4" class="node">
<title>DeletionModule</title>
<polygon fill="#8dd3c7" stroke="black" points="1934.76,-122 1931.76,-126 1910.76,-126 1907.76,-122 1827.24,-122 1827.24,-86 1934.76,-86 1934.76,-122"/>
<text text-anchor="middle" x="1881" y="-99.8" font-family="Times,serif" font-size="14.00">DeletionModule</text>
</g>
<!-- DeletionModule&#45;&gt;DeletionApiModule -->
<g id="edge4" class="edge">
<title>DeletionModule&#45;&gt;DeletionApiModule</title>
<path fill="none" stroke="black" d="M1881,-122.11C1881,-141.34 1881,-169 1881,-169 1881,-169 1290.37,-169 1290.37,-169"/>
<polygon fill="black" stroke="black" points="1290.37,-165.5 1280.37,-169 1290.37,-172.5 1290.37,-165.5"/>
</g>
<!-- FilesModule -->
<g id="node5" class="node">
<title>FilesModule</title>
<polygon fill="#8dd3c7" stroke="black" points="1809.27,-122 1806.27,-126 1785.27,-126 1782.27,-122 1722.73,-122 1722.73,-86 1809.27,-86 1809.27,-122"/>
<text text-anchor="middle" x="1766" y="-99.8" font-family="Times,serif" font-size="14.00">FilesModule</text>
</g>
<!-- FilesModule&#45;&gt;DeletionApiModule -->
<g id="edge5" class="edge">
<title>FilesModule&#45;&gt;DeletionApiModule</title>
<path fill="none" stroke="black" d="M1766,-122.3C1766,-140.27 1766,-165 1766,-165 1766,-165 1290.44,-165 1290.44,-165"/>
<polygon fill="black" stroke="black" points="1290.44,-161.5 1280.44,-165 1290.44,-168.5 1290.44,-161.5"/>
</g>
<!-- FilesStorageClientModule -->
<g id="node6" class="node">
<title>FilesStorageClientModule</title>
<polygon fill="#8dd3c7" stroke="black" points="1704.76,-122 1701.76,-126 1680.76,-126 1677.76,-122 1541.24,-122 1541.24,-86 1704.76,-86 1704.76,-122"/>
<text text-anchor="middle" x="1623" y="-99.8" font-family="Times,serif" font-size="14.00">FilesStorageClientModule</text>
</g>
<!-- FilesStorageClientModule&#45;&gt;DeletionApiModule -->
<g id="edge6" class="edge">
<title>FilesStorageClientModule&#45;&gt;DeletionApiModule</title>
<path fill="none" stroke="black" d="M1623,-122.03C1623,-138.4 1623,-160 1623,-160 1623,-160 1290.49,-160 1290.49,-160"/>
<polygon fill="black" stroke="black" points="1290.49,-156.5 1280.49,-160 1290.49,-163.5 1290.49,-156.5"/>
</g>
<!-- LearnroomModule -->
<g id="node7" class="node">
<title>LearnroomModule</title>
<polygon fill="#8dd3c7" stroke="black" points="1522.74,-122 1519.74,-126 1498.74,-126 1495.74,-122 1401.26,-122 1401.26,-86 1522.74,-86 1522.74,-122"/>
<text text-anchor="middle" x="1462" y="-99.8" font-family="Times,serif" font-size="14.00">LearnroomModule</text>
</g>
<!-- LearnroomModule&#45;&gt;DeletionApiModule -->
<g id="edge7" class="edge">
<title>LearnroomModule&#45;&gt;DeletionApiModule</title>
<path fill="none" stroke="black" d="M1462,-122.19C1462,-137.18 1462,-156 1462,-156 1462,-156 1290.31,-156 1290.31,-156"/>
<polygon fill="black" stroke="black" points="1290.31,-152.5 1280.31,-156 1290.31,-159.5 1290.31,-152.5"/>
</g>
<!-- LessonModule -->
<g id="node8" class="node">
<title>LessonModule</title>
<polygon fill="#8dd3c7" stroke="black" points="1383.71,-122 1380.71,-126 1359.71,-126 1356.71,-122 1284.29,-122 1284.29,-86 1383.71,-86 1383.71,-122"/>
<text text-anchor="middle" x="1334" y="-99.8" font-family="Times,serif" font-size="14.00">LessonModule</text>
</g>
<!-- LessonModule&#45;&gt;DeletionApiModule -->
<g id="edge8" class="edge">
<title>LessonModule&#45;&gt;DeletionApiModule</title>
<path fill="none" stroke="black" d="M1284.34,-104C1277.73,-104 1273.18,-104 1273.18,-104 1273.18,-104 1273.18,-140.89 1273.18,-140.89"/>
<polygon fill="black" stroke="black" points="1269.68,-140.89 1273.18,-150.89 1276.68,-140.89 1269.68,-140.89"/>
</g>
<!-- LoggerModule -->
<g id="node9" class="node">
<title>LoggerModule</title>
<polygon fill="#8dd3c7" stroke="black" points="1265.98,-122 1262.98,-126 1241.98,-126 1238.98,-122 1166.02,-122 1166.02,-86 1265.98,-86 1265.98,-122"/>
<text text-anchor="middle" x="1216" y="-99.8" font-family="Times,serif" font-size="14.00">LoggerModule</text>
</g>
<!-- LoggerModule&#45;&gt;DeletionApiModule -->
<g id="edge9" class="edge">
<title>LoggerModule&#45;&gt;DeletionApiModule</title>
<path fill="none" stroke="black" d="M1216,-122.11C1216,-122.11 1216,-140.99 1216,-140.99"/>
<polygon fill="black" stroke="black" points="1212.5,-140.99 1216,-150.99 1219.5,-140.99 1212.5,-140.99"/>
</g>
<!-- PseudonymModule -->
<g id="node10" class="node">
<title>PseudonymModule</title>
<polygon fill="#8dd3c7" stroke="black" points="1148.38,-122 1145.38,-126 1124.38,-126 1121.38,-122 1023.62,-122 1023.62,-86 1148.38,-86 1148.38,-122"/>
<text text-anchor="middle" x="1086" y="-99.8" font-family="Times,serif" font-size="14.00">PseudonymModule</text>
</g>
<!-- PseudonymModule&#45;&gt;DeletionApiModule -->
<g id="edge10" class="edge">
<title>PseudonymModule&#45;&gt;DeletionApiModule</title>
<path fill="none" stroke="black" d="M1148.38,-104C1154.68,-104 1158.82,-104 1158.82,-104 1158.82,-104 1158.82,-140.89 1158.82,-140.89"/>
<polygon fill="black" stroke="black" points="1155.32,-140.89 1158.82,-150.89 1162.32,-140.89 1155.32,-140.89"/>
</g>
<!-- RegistrationPinModule -->
<g id="node11" class="node">
<title>RegistrationPinModule</title>
<polygon fill="#8dd3c7" stroke="black" points="1005.16,-122 1002.16,-126 981.16,-126 978.16,-122 858.84,-122 858.84,-86 1005.16,-86 1005.16,-122"/>
<text text-anchor="middle" x="932" y="-99.8" font-family="Times,serif" font-size="14.00">RegistrationPinModule</text>
</g>
<!-- RegistrationPinModule&#45;&gt;DeletionApiModule -->
<g id="edge11" class="edge">
<title>RegistrationPinModule&#45;&gt;DeletionApiModule</title>
<path fill="none" stroke="black" d="M932,-122.19C932,-137.18 932,-156 932,-156 932,-156 1141.56,-156 1141.56,-156"/>
<polygon fill="black" stroke="black" points="1141.56,-159.5 1151.56,-156 1141.56,-152.5 1141.56,-159.5"/>
</g>
<!-- RocketChatModule -->
<g id="node12" class="node">
<title>RocketChatModule</title>
<polygon fill="#8dd3c7" stroke="black" points="840.65,-122 837.65,-126 816.65,-126 813.65,-122 715.35,-122 715.35,-86 840.65,-86 840.65,-122"/>
<text text-anchor="middle" x="778" y="-99.8" font-family="Times,serif" font-size="14.00">RocketChatModule</text>
</g>
<!-- RocketChatModule&#45;&gt;DeletionApiModule -->
<g id="edge12" class="edge">
<title>RocketChatModule&#45;&gt;DeletionApiModule</title>
<path fill="none" stroke="black" d="M778,-122.03C778,-138.4 778,-160 778,-160 778,-160 1141.37,-160 1141.37,-160"/>
<polygon fill="black" stroke="black" points="1141.37,-163.5 1151.37,-160 1141.37,-156.5 1141.37,-163.5"/>
</g>
<!-- RocketChatUserModule -->
<g id="node13" class="node">
<title>RocketChatUserModule</title>
<polygon fill="#8dd3c7" stroke="black" points="697.07,-122 694.07,-126 673.07,-126 670.07,-122 544.93,-122 544.93,-86 697.07,-86 697.07,-122"/>
<text text-anchor="middle" x="621" y="-99.8" font-family="Times,serif" font-size="14.00">RocketChatUserModule</text>
</g>
<!-- RocketChatUserModule&#45;&gt;DeletionApiModule -->
<g id="edge13" class="edge">
<title>RocketChatUserModule&#45;&gt;DeletionApiModule</title>
<path fill="none" stroke="black" d="M621,-122.3C621,-140.27 621,-165 621,-165 621,-165 1141.48,-165 1141.48,-165"/>
<polygon fill="black" stroke="black" points="1141.48,-168.5 1151.48,-165 1141.48,-161.5 1141.48,-168.5"/>
</g>
<!-- TaskModule -->
<g id="node14" class="node">
<title>TaskModule</title>
<polygon fill="#8dd3c7" stroke="black" points="527.26,-122 524.26,-126 503.26,-126 500.26,-122 440.74,-122 440.74,-86 527.26,-86 527.26,-122"/>
<text text-anchor="middle" x="484" y="-99.8" font-family="Times,serif" font-size="14.00">TaskModule</text>
</g>
<!-- TaskModule&#45;&gt;DeletionApiModule -->
<g id="edge14" class="edge">
<title>TaskModule&#45;&gt;DeletionApiModule</title>
<path fill="none" stroke="black" d="M484,-122.11C484,-141.34 484,-169 484,-169 484,-169 1141.68,-169 1141.68,-169"/>
<polygon fill="black" stroke="black" points="1141.68,-172.5 1151.68,-169 1141.68,-165.5 1141.68,-172.5"/>
</g>
<!-- TeamsModule -->
<g id="node15" class="node">
<title>TeamsModule</title>
<polygon fill="#8dd3c7" stroke="black" points="422.37,-122 419.37,-126 398.37,-126 395.37,-122 325.63,-122 325.63,-86 422.37,-86 422.37,-122"/>
<text text-anchor="middle" x="374" y="-99.8" font-family="Times,serif" font-size="14.00">TeamsModule</text>
</g>
<!-- TeamsModule&#45;&gt;DeletionApiModule -->
<g id="edge15" class="edge">
<title>TeamsModule&#45;&gt;DeletionApiModule</title>
<path fill="none" stroke="black" d="M374,-122.03C374,-142.77 374,-174 374,-174 374,-174 1141.68,-174 1141.68,-174"/>
<polygon fill="black" stroke="black" points="1141.68,-177.5 1151.68,-174 1141.68,-170.5 1141.68,-177.5"/>
</g>
<!-- UserModule -->
<g id="node16" class="node">
<title>UserModule</title>
<polygon fill="#8dd3c7" stroke="black" points="307.98,-122 304.98,-126 283.98,-126 280.98,-122 222.02,-122 222.02,-86 307.98,-86 307.98,-122"/>
<text text-anchor="middle" x="265" y="-99.8" font-family="Times,serif" font-size="14.00">UserModule</text>
</g>
<!-- UserModule&#45;&gt;DeletionApiModule -->
<g id="edge16" class="edge">
<title>UserModule&#45;&gt;DeletionApiModule</title>
<path fill="none" stroke="black" d="M265,-122.29C265,-144.21 265,-178 265,-178 265,-178 1141.38,-178 1141.38,-178"/>
<polygon fill="black" stroke="black" points="1141.38,-181.5 1151.38,-178 1141.38,-174.5 1141.38,-181.5"/>
</g>
<!-- DeletionRequestUc -->
<g id="node18" class="node">
<title>DeletionRequestUc</title>
<ellipse fill="#fdb462" stroke="black" cx="111" cy="-104" rx="86.81" ry="18"/>
<text text-anchor="middle" x="111" y="-99.8" font-family="Times,serif" font-size="14.00">DeletionRequestUc</text>
</g>
<!-- DeletionRequestUc&#45;&gt;DeletionApiModule -->
<g id="edge17" class="edge">
<title>DeletionRequestUc&#45;&gt;DeletionApiModule</title>
<path fill="none" stroke="black" d="M111,-122.32C111,-145.66 111,-183 111,-183 111,-183 1141.41,-183 1141.41,-183"/>
<polygon fill="black" stroke="black" points="1141.41,-186.5 1151.41,-183 1141.41,-179.5 1141.41,-186.5"/>
</g>
</g>
</svg>
