<?xml version="1.0" encoding="UTF-8" standalone="no"?>
<!DOCTYPE svg PUBLIC "-//W3C//DTD SVG 1.1//EN"
 "http://www.w3.org/Graphics/SVG/1.1/DTD/svg11.dtd">
<!-- Generated by graphviz version 2.47.0 (20210316.0004)
 -->
<!-- Title: dependencies Pages: 1 -->
<svg width="2073pt" height="211pt"
 viewBox="0.00 0.00 2073.00 211.00" xmlns="http://www.w3.org/2000/svg" xmlns:xlink="http://www.w3.org/1999/xlink">
<g id="graph0" class="graph" transform="scale(1 1) rotate(0) translate(4 207)">
<title>dependencies</title>
<polygon fill="white" stroke="transparent" points="-4,4 -4,-207 2069,-207 2069,4 -4,4"/>
<text text-anchor="start" x="1011.51" y="-42.4" font-family="Times-12" font-weight="bold" font-size="14.00">Legend</text>
<polygon fill="#ffffb3" stroke="transparent" points="798.5,-10 798.5,-30 818.5,-30 818.5,-10 798.5,-10"/>
<text text-anchor="start" x="822.13" y="-15.4" font-family="Times-12" font-size="14.00"> &#160;Declarations</text>
<polygon fill="#8dd3c7" stroke="transparent" points="911.5,-10 911.5,-30 931.5,-30 931.5,-10 911.5,-10"/>
<text text-anchor="start" x="935.23" y="-15.4" font-family="Times-12" font-size="14.00"> &#160;Module</text>
<polygon fill="#80b1d3" stroke="transparent" points="997.5,-10 997.5,-30 1017.5,-30 1017.5,-10 997.5,-10"/>
<text text-anchor="start" x="1021.28" y="-15.4" font-family="Times-12" font-size="14.00"> &#160;Bootstrap</text>
<polygon fill="#fdb462" stroke="transparent" points="1094.5,-10 1094.5,-30 1114.5,-30 1114.5,-10 1094.5,-10"/>
<text text-anchor="start" x="1118.17" y="-15.4" font-family="Times-12" font-size="14.00"> &#160;Providers</text>
<polygon fill="#fb8072" stroke="transparent" points="1190.5,-10 1190.5,-30 1210.5,-30 1210.5,-10 1190.5,-10"/>
<text text-anchor="start" x="1214.23" y="-15.4" font-family="Times-12" font-size="14.00"> &#160;Exports</text>
<g id="clust1" class="cluster">
<title>cluster_DeletionApiModule</title>
<polygon fill="none" stroke="black" stroke-dasharray="1,5" points="8,-70 8,-195 2057,-195 2057,-70 8,-70"/>
</g>
<g id="clust3" class="cluster">
<title>cluster_DeletionApiModule_imports</title>
<polygon fill="none" stroke="black" points="214,-78 214,-130 2049,-130 2049,-78 214,-78"/>
</g>
<g id="clust6" class="cluster">
<title>cluster_DeletionApiModule_providers</title>
<polygon fill="none" stroke="black" points="16,-78 16,-130 206,-130 206,-78 16,-78"/>
</g>
<!-- AccountModule -->
<g id="node1" class="node">
<title>AccountModule</title>
<polygon fill="#8dd3c7" stroke="black" points="2041.48,-122 2038.48,-126 2017.48,-126 2014.48,-122 1934.52,-122 1934.52,-86 2041.48,-86 2041.48,-122"/>
<text text-anchor="middle" x="1988" y="-99.8" font-family="Times,serif" font-size="14.00">AccountModule</text>
</g>
<!-- DeletionApiModule -->
<g id="node15" class="node">
<title>DeletionApiModule</title>
<polygon fill="#8dd3c7" stroke="black" points="1175.25,-187 1172.25,-191 1151.25,-191 1148.25,-187 1046.75,-187 1046.75,-151 1175.25,-151 1175.25,-187"/>
<text text-anchor="middle" x="1111" y="-164.8" font-family="Times,serif" font-size="14.00">DeletionApiModule</text>
</g>
<!-- AccountModule&#45;&gt;DeletionApiModule -->
<g id="edge1" class="edge">
<title>AccountModule&#45;&gt;DeletionApiModule</title>
<path fill="none" stroke="black" d="M1988,-122.09C1988,-145.13 1988,-182 1988,-182 1988,-182 1185.49,-182 1185.49,-182"/>
<polygon fill="black" stroke="black" points="1185.49,-178.5 1175.49,-182 1185.49,-185.5 1185.49,-178.5"/>
</g>
<!-- AuthenticationModule -->
<g id="node2" class="node">
<title>AuthenticationModule</title>
<polygon fill="#8dd3c7" stroke="black" points="1916.25,-122 1913.25,-126 1892.25,-126 1889.25,-122 1773.75,-122 1773.75,-86 1916.25,-86 1916.25,-122"/>
<text text-anchor="middle" x="1845" y="-99.8" font-family="Times,serif" font-size="14.00">AuthenticationModule</text>
</g>
<!-- AuthenticationModule&#45;&gt;DeletionApiModule -->
<g id="edge2" class="edge">
<title>AuthenticationModule&#45;&gt;DeletionApiModule</title>
<path fill="none" stroke="black" d="M1845,-122.04C1845,-143.66 1845,-177 1845,-177 1845,-177 1185.49,-177 1185.49,-177"/>
<polygon fill="black" stroke="black" points="1185.49,-173.5 1175.49,-177 1185.49,-180.5 1185.49,-173.5"/>
</g>
<!-- ClassModule -->
<g id="node3" class="node">
<title>ClassModule</title>
<polygon fill="#8dd3c7" stroke="black" points="1755.88,-122 1752.88,-126 1731.88,-126 1728.88,-122 1666.12,-122 1666.12,-86 1755.88,-86 1755.88,-122"/>
<text text-anchor="middle" x="1711" y="-99.8" font-family="Times,serif" font-size="14.00">ClassModule</text>
</g>
<!-- ClassModule&#45;&gt;DeletionApiModule -->
<g id="edge3" class="edge">
<title>ClassModule&#45;&gt;DeletionApiModule</title>
<path fill="none" stroke="black" d="M1711,-122.22C1711,-142.37 1711,-172 1711,-172 1711,-172 1185.5,-172 1185.5,-172"/>
<polygon fill="black" stroke="black" points="1185.5,-168.5 1175.5,-172 1185.5,-175.5 1185.5,-168.5"/>
</g>
<!-- DeletionModule -->
<g id="node4" class="node">
<title>DeletionModule</title>
<polygon fill="#8dd3c7" stroke="black" points="1647.76,-122 1644.76,-126 1623.76,-126 1620.76,-122 1540.24,-122 1540.24,-86 1647.76,-86 1647.76,-122"/>
<text text-anchor="middle" x="1594" y="-99.8" font-family="Times,serif" font-size="14.00">DeletionModule</text>
</g>
<!-- DeletionModule&#45;&gt;DeletionApiModule -->
<g id="edge4" class="edge">
<title>DeletionModule&#45;&gt;DeletionApiModule</title>
<path fill="none" stroke="black" d="M1594,-122.22C1594,-140.83 1594,-167 1594,-167 1594,-167 1185.64,-167 1185.64,-167"/>
<polygon fill="black" stroke="black" points="1185.64,-163.5 1175.64,-167 1185.64,-170.5 1185.64,-163.5"/>
</g>
<!-- FilesModule -->
<g id="node5" class="node">
<title>FilesModule</title>
<polygon fill="#8dd3c7" stroke="black" points="1522.27,-122 1519.27,-126 1498.27,-126 1495.27,-122 1435.73,-122 1435.73,-86 1522.27,-86 1522.27,-122"/>
<text text-anchor="middle" x="1479" y="-99.8" font-family="Times,serif" font-size="14.00">FilesModule</text>
</g>
<!-- FilesModule&#45;&gt;DeletionApiModule -->
<g id="edge5" class="edge">
<title>FilesModule&#45;&gt;DeletionApiModule</title>
<path fill="none" stroke="black" d="M1479,-122.03C1479,-139.06 1479,-162 1479,-162 1479,-162 1185.52,-162 1185.52,-162"/>
<polygon fill="black" stroke="black" points="1185.52,-158.5 1175.52,-162 1185.52,-165.5 1185.52,-158.5"/>
</g>
<!-- LearnroomModule -->
<g id="node6" class="node">
<title>LearnroomModule</title>
<polygon fill="#8dd3c7" stroke="black" points="1417.74,-122 1414.74,-126 1393.74,-126 1390.74,-122 1296.26,-122 1296.26,-86 1417.74,-86 1417.74,-122"/>
<text text-anchor="middle" x="1357" y="-99.8" font-family="Times,serif" font-size="14.00">LearnroomModule</text>
</g>
<!-- LearnroomModule&#45;&gt;DeletionApiModule -->
<g id="edge6" class="edge">
<title>LearnroomModule&#45;&gt;DeletionApiModule</title>
<path fill="none" stroke="black" d="M1357,-122.24C1357,-137.57 1357,-157 1357,-157 1357,-157 1185.31,-157 1185.31,-157"/>
<polygon fill="black" stroke="black" points="1185.31,-153.5 1175.31,-157 1185.31,-160.5 1185.31,-153.5"/>
</g>
<!-- LessonModule -->
<g id="node7" class="node">
<title>LessonModule</title>
<polygon fill="#8dd3c7" stroke="black" points="1278.71,-122 1275.71,-126 1254.71,-126 1251.71,-122 1179.29,-122 1179.29,-86 1278.71,-86 1278.71,-122"/>
<text text-anchor="middle" x="1229" y="-99.8" font-family="Times,serif" font-size="14.00">LessonModule</text>
</g>
<!-- LessonModule&#45;&gt;DeletionApiModule -->
<g id="edge7" class="edge">
<title>LessonModule&#45;&gt;DeletionApiModule</title>
<path fill="none" stroke="black" d="M1179.34,-104C1172.73,-104 1168.18,-104 1168.18,-104 1168.18,-104 1168.18,-140.89 1168.18,-140.89"/>
<polygon fill="black" stroke="black" points="1164.68,-140.89 1168.18,-150.89 1171.68,-140.89 1164.68,-140.89"/>
</g>
<!-- LoggerModule -->
<g id="node8" class="node">
<title>LoggerModule</title>
<polygon fill="#8dd3c7" stroke="black" points="1160.98,-122 1157.98,-126 1136.98,-126 1133.98,-122 1061.02,-122 1061.02,-86 1160.98,-86 1160.98,-122"/>
<text text-anchor="middle" x="1111" y="-99.8" font-family="Times,serif" font-size="14.00">LoggerModule</text>
</g>
<!-- LoggerModule&#45;&gt;DeletionApiModule -->
<g id="edge8" class="edge">
<title>LoggerModule&#45;&gt;DeletionApiModule</title>
<path fill="none" stroke="black" d="M1111,-122.11C1111,-122.11 1111,-140.99 1111,-140.99"/>
<polygon fill="black" stroke="black" points="1107.5,-140.99 1111,-150.99 1114.5,-140.99 1107.5,-140.99"/>
</g>
<!-- PseudonymModule -->
<g id="node9" class="node">
<title>PseudonymModule</title>
<polygon fill="#8dd3c7" stroke="black" points="1043.38,-122 1040.38,-126 1019.38,-126 1016.38,-122 918.62,-122 918.62,-86 1043.38,-86 1043.38,-122"/>
<text text-anchor="middle" x="981" y="-99.8" font-family="Times,serif" font-size="14.00">PseudonymModule</text>
</g>
<!-- PseudonymModule&#45;&gt;DeletionApiModule -->
<g id="edge9" class="edge">
<title>PseudonymModule&#45;&gt;DeletionApiModule</title>
<path fill="none" stroke="black" d="M1043.38,-104C1049.68,-104 1053.82,-104 1053.82,-104 1053.82,-104 1053.82,-140.89 1053.82,-140.89"/>
<polygon fill="black" stroke="black" points="1050.32,-140.89 1053.82,-150.89 1057.32,-140.89 1050.32,-140.89"/>
</g>
<!-- RegistrationPinModule -->
<g id="node10" class="node">
<title>RegistrationPinModule</title>
<polygon fill="#8dd3c7" stroke="black" points="900.16,-122 897.16,-126 876.16,-126 873.16,-122 753.84,-122 753.84,-86 900.16,-86 900.16,-122"/>
<text text-anchor="middle" x="827" y="-99.8" font-family="Times,serif" font-size="14.00">RegistrationPinModule</text>
</g>
<!-- RegistrationPinModule&#45;&gt;DeletionApiModule -->
<g id="edge10" class="edge">
<title>RegistrationPinModule&#45;&gt;DeletionApiModule</title>
<path fill="none" stroke="black" d="M827,-122.24C827,-137.57 827,-157 827,-157 827,-157 1036.56,-157 1036.56,-157"/>
<polygon fill="black" stroke="black" points="1036.56,-160.5 1046.56,-157 1036.56,-153.5 1036.56,-160.5"/>
</g>
<!-- RocketChatModule -->
<g id="node11" class="node">
<title>RocketChatModule</title>
<polygon fill="#8dd3c7" stroke="black" points="735.65,-122 732.65,-126 711.65,-126 708.65,-122 610.35,-122 610.35,-86 735.65,-86 735.65,-122"/>
<text text-anchor="middle" x="673" y="-99.8" font-family="Times,serif" font-size="14.00">RocketChatModule</text>
</g>
<!-- RocketChatModule&#45;&gt;DeletionApiModule -->
<g id="edge11" class="edge">
<title>RocketChatModule&#45;&gt;DeletionApiModule</title>
<path fill="none" stroke="black" d="M673,-122.03C673,-139.06 673,-162 673,-162 673,-162 1036.37,-162 1036.37,-162"/>
<polygon fill="black" stroke="black" points="1036.37,-165.5 1046.37,-162 1036.37,-158.5 1036.37,-165.5"/>
</g>
<!-- RocketChatUserModule -->
<g id="node12" class="node">
<title>RocketChatUserModule</title>
<polygon fill="#8dd3c7" stroke="black" points="592.07,-122 589.07,-126 568.07,-126 565.07,-122 439.93,-122 439.93,-86 592.07,-86 592.07,-122"/>
<text text-anchor="middle" x="516" y="-99.8" font-family="Times,serif" font-size="14.00">RocketChatUserModule</text>
</g>
<!-- RocketChatUserModule&#45;&gt;DeletionApiModule -->
<g id="edge12" class="edge">
<title>RocketChatUserModule&#45;&gt;DeletionApiModule</title>
<path fill="none" stroke="black" d="M516,-122.22C516,-140.83 516,-167 516,-167 516,-167 1036.48,-167 1036.48,-167"/>
<polygon fill="black" stroke="black" points="1036.48,-170.5 1046.48,-167 1036.48,-163.5 1036.48,-170.5"/>
</g>
<!-- TeamsModule -->
<g id="node13" class="node">
<title>TeamsModule</title>
<polygon fill="#8dd3c7" stroke="black" points="422.37,-122 419.37,-126 398.37,-126 395.37,-122 325.63,-122 325.63,-86 422.37,-86 422.37,-122"/>
<text text-anchor="middle" x="374" y="-99.8" font-family="Times,serif" font-size="14.00">TeamsModule</text>
</g>
<!-- TeamsModule&#45;&gt;DeletionApiModule -->
<g id="edge13" class="edge">
<title>TeamsModule&#45;&gt;DeletionApiModule</title>
<path fill="none" stroke="black" d="M374,-122.22C374,-142.37 374,-172 374,-172 374,-172 1036.56,-172 1036.56,-172"/>
<polygon fill="black" stroke="black" points="1036.56,-175.5 1046.56,-172 1036.56,-168.5 1036.56,-175.5"/>
</g>
<!-- UserModule -->
<g id="node14" class="node">
<title>UserModule</title>
<polygon fill="#8dd3c7" stroke="black" points="307.98,-122 304.98,-126 283.98,-126 280.98,-122 222.02,-122 222.02,-86 307.98,-86 307.98,-122"/>
<text text-anchor="middle" x="265" y="-99.8" font-family="Times,serif" font-size="14.00">UserModule</text>
</g>
<!-- UserModule&#45;&gt;DeletionApiModule -->
<g id="edge14" class="edge">
<title>UserModule&#45;&gt;DeletionApiModule</title>
<path fill="none" stroke="black" d="M265,-122.04C265,-143.66 265,-177 265,-177 265,-177 1036.72,-177 1036.72,-177"/>
<polygon fill="black" stroke="black" points="1036.72,-180.5 1046.72,-177 1036.72,-173.5 1036.72,-180.5"/>
</g>
<!-- DeletionRequestUc -->
<g id="node16" class="node">
<title>DeletionRequestUc</title>
<ellipse fill="#fdb462" stroke="black" cx="111" cy="-104" rx="86.81" ry="18"/>
<text text-anchor="middle" x="111" y="-99.8" font-family="Times,serif" font-size="14.00">DeletionRequestUc</text>
</g>
<!-- DeletionRequestUc&#45;&gt;DeletionApiModule -->
<g id="edge15" class="edge">
<title>DeletionRequestUc&#45;&gt;DeletionApiModule</title>
<path fill="none" stroke="black" d="M111,-122.09C111,-145.13 111,-182 111,-182 111,-182 1036.54,-182 1036.54,-182"/>
<polygon fill="black" stroke="black" points="1036.54,-185.5 1046.54,-182 1036.54,-178.5 1036.54,-185.5"/>
</g>
</g>
</svg>
