<?xml version="1.0" encoding="UTF-8" standalone="no"?>
<!DOCTYPE svg PUBLIC "-//W3C//DTD SVG 1.1//EN"
 "http://www.w3.org/Graphics/SVG/1.1/DTD/svg11.dtd">
<!-- Generated by graphviz version 2.47.0 (20210316.0004)
 -->
<!-- Title: dependencies Pages: 1 -->
<svg width="2073pt" height="211pt"
 viewBox="0.00 0.00 2073.00 211.00" xmlns="http://www.w3.org/2000/svg" xmlns:xlink="http://www.w3.org/1999/xlink">
<g id="graph0" class="graph" transform="scale(1 1) rotate(0) translate(4 207)">
<title>dependencies</title>
<polygon fill="white" stroke="transparent" points="-4,4 -4,-207 2069,-207 2069,4 -4,4"/>
<text text-anchor="start" x="1011.51" y="-42.4" font-family="Times-12" font-weight="bold" font-size="14.00">Legend</text>
<polygon fill="#ffffb3" stroke="transparent" points="798.5,-10 798.5,-30 818.5,-30 818.5,-10 798.5,-10"/>
<text text-anchor="start" x="822.13" y="-15.4" font-family="Times-12" font-size="14.00"> &#160;Declarations</text>
<polygon fill="#8dd3c7" stroke="transparent" points="911.5,-10 911.5,-30 931.5,-30 931.5,-10 911.5,-10"/>
<text text-anchor="start" x="935.23" y="-15.4" font-family="Times-12" font-size="14.00"> &#160;Module</text>
<polygon fill="#80b1d3" stroke="transparent" points="997.5,-10 997.5,-30 1017.5,-30 1017.5,-10 997.5,-10"/>
<text text-anchor="start" x="1021.28" y="-15.4" font-family="Times-12" font-size="14.00"> &#160;Bootstrap</text>
<polygon fill="#fdb462" stroke="transparent" points="1094.5,-10 1094.5,-30 1114.5,-30 1114.5,-10 1094.5,-10"/>
<text text-anchor="start" x="1118.17" y="-15.4" font-family="Times-12" font-size="14.00"> &#160;Providers</text>
<polygon fill="#fb8072" stroke="transparent" points="1190.5,-10 1190.5,-30 1210.5,-30 1210.5,-10 1190.5,-10"/>
<text text-anchor="start" x="1214.23" y="-15.4" font-family="Times-12" font-size="14.00"> &#160;Exports</text>
<g id="clust1" class="cluster">
<title>cluster_DeletionApiModule</title>
<polygon fill="none" stroke="black" stroke-dasharray="1,5" points="8,-70 8,-195 2057,-195 2057,-70 8,-70"/>
</g>
<g id="clust6" class="cluster">
<title>cluster_DeletionApiModule_providers</title>
<polygon fill="none" stroke="black" points="1859,-78 1859,-130 2049,-130 2049,-78 1859,-78"/>
</g>
<g id="clust3" class="cluster">
<title>cluster_DeletionApiModule_imports</title>
<polygon fill="none" stroke="black" points="16,-78 16,-130 1851,-130 1851,-78 16,-78"/>
</g>
<!-- AccountModule -->
<g id="node1" class="node">
<title>AccountModule</title>
<polygon fill="#8dd3c7" stroke="black" points="1843.48,-122 1840.48,-126 1819.48,-126 1816.48,-122 1736.52,-122 1736.52,-86 1843.48,-86 1843.48,-122"/>
<text text-anchor="middle" x="1790" y="-99.8" font-family="Times,serif" font-size="14.00">AccountModule</text>
</g>
<!-- DeletionApiModule -->
<g id="node15" class="node">
<title>DeletionApiModule</title>
<polygon fill="#8dd3c7" stroke="black" points="1095.25,-187 1092.25,-191 1071.25,-191 1068.25,-187 966.75,-187 966.75,-151 1095.25,-151 1095.25,-187"/>
<text text-anchor="middle" x="1031" y="-164.8" font-family="Times,serif" font-size="14.00">DeletionApiModule</text>
</g>
<!-- AccountModule&#45;&gt;DeletionApiModule -->
<g id="edge1" class="edge">
<title>AccountModule&#45;&gt;DeletionApiModule</title>
<path fill="none" stroke="black" d="M1790,-122.04C1790,-143.66 1790,-177 1790,-177 1790,-177 1105.38,-177 1105.38,-177"/>
<polygon fill="black" stroke="black" points="1105.38,-173.5 1095.38,-177 1105.38,-180.5 1105.38,-173.5"/>
</g>
<!-- AuthenticationModule -->
<g id="node2" class="node">
<title>AuthenticationModule</title>
<polygon fill="#8dd3c7" stroke="black" points="1718.25,-122 1715.25,-126 1694.25,-126 1691.25,-122 1575.75,-122 1575.75,-86 1718.25,-86 1718.25,-122"/>
<text text-anchor="middle" x="1647" y="-99.8" font-family="Times,serif" font-size="14.00">AuthenticationModule</text>
</g>
<!-- AuthenticationModule&#45;&gt;DeletionApiModule -->
<g id="edge2" class="edge">
<title>AuthenticationModule&#45;&gt;DeletionApiModule</title>
<path fill="none" stroke="black" d="M1647,-122.22C1647,-142.37 1647,-172 1647,-172 1647,-172 1105.47,-172 1105.47,-172"/>
<polygon fill="black" stroke="black" points="1105.47,-168.5 1095.47,-172 1105.47,-175.5 1105.47,-168.5"/>
</g>
<!-- ClassModule -->
<g id="node3" class="node">
<title>ClassModule</title>
<polygon fill="#8dd3c7" stroke="black" points="1557.88,-122 1554.88,-126 1533.88,-126 1530.88,-122 1468.12,-122 1468.12,-86 1557.88,-86 1557.88,-122"/>
<text text-anchor="middle" x="1513" y="-99.8" font-family="Times,serif" font-size="14.00">ClassModule</text>
</g>
<!-- ClassModule&#45;&gt;DeletionApiModule -->
<g id="edge3" class="edge">
<title>ClassModule&#45;&gt;DeletionApiModule</title>
<path fill="none" stroke="black" d="M1513,-122.22C1513,-140.83 1513,-167 1513,-167 1513,-167 1105.5,-167 1105.5,-167"/>
<polygon fill="black" stroke="black" points="1105.5,-163.5 1095.5,-167 1105.5,-170.5 1105.5,-163.5"/>
</g>
<!-- DeletionModule -->
<g id="node4" class="node">
<title>DeletionModule</title>
<polygon fill="#8dd3c7" stroke="black" points="1449.76,-122 1446.76,-126 1425.76,-126 1422.76,-122 1342.24,-122 1342.24,-86 1449.76,-86 1449.76,-122"/>
<text text-anchor="middle" x="1396" y="-99.8" font-family="Times,serif" font-size="14.00">DeletionModule</text>
</g>
<!-- DeletionModule&#45;&gt;DeletionApiModule -->
<g id="edge4" class="edge">
<title>DeletionModule&#45;&gt;DeletionApiModule</title>
<path fill="none" stroke="black" d="M1396,-122.03C1396,-139.06 1396,-162 1396,-162 1396,-162 1105.41,-162 1105.41,-162"/>
<polygon fill="black" stroke="black" points="1105.41,-158.5 1095.41,-162 1105.41,-165.5 1105.41,-158.5"/>
</g>
<!-- FilesModule -->
<g id="node5" class="node">
<title>FilesModule</title>
<polygon fill="#8dd3c7" stroke="black" points="1324.27,-122 1321.27,-126 1300.27,-126 1297.27,-122 1237.73,-122 1237.73,-86 1324.27,-86 1324.27,-122"/>
<text text-anchor="middle" x="1281" y="-99.8" font-family="Times,serif" font-size="14.00">FilesModule</text>
</g>
<!-- FilesModule&#45;&gt;DeletionApiModule -->
<g id="edge5" class="edge">
<title>FilesModule&#45;&gt;DeletionApiModule</title>
<path fill="none" stroke="black" d="M1281,-122.24C1281,-137.57 1281,-157 1281,-157 1281,-157 1105.38,-157 1105.38,-157"/>
<polygon fill="black" stroke="black" points="1105.38,-153.5 1095.38,-157 1105.38,-160.5 1105.38,-153.5"/>
</g>
<!-- LearnroomModule -->
<g id="node6" class="node">
<title>LearnroomModule</title>
<polygon fill="#8dd3c7" stroke="black" points="1219.74,-122 1216.74,-126 1195.74,-126 1192.74,-122 1098.26,-122 1098.26,-86 1219.74,-86 1219.74,-122"/>
<text text-anchor="middle" x="1159" y="-99.8" font-family="Times,serif" font-size="14.00">LearnroomModule</text>
</g>
<!-- LearnroomModule&#45;&gt;DeletionApiModule -->
<g id="edge6" class="edge">
<title>LearnroomModule&#45;&gt;DeletionApiModule</title>
<path fill="none" stroke="black" d="M1098.16,-104C1092.02,-104 1087.99,-104 1087.99,-104 1087.99,-104 1087.99,-140.89 1087.99,-140.89"/>
<polygon fill="black" stroke="black" points="1084.49,-140.89 1087.99,-150.89 1091.49,-140.89 1084.49,-140.89"/>
</g>
<!-- LessonModule -->
<g id="node7" class="node">
<title>LessonModule</title>
<polygon fill="#8dd3c7" stroke="black" points="1080.71,-122 1077.71,-126 1056.71,-126 1053.71,-122 981.29,-122 981.29,-86 1080.71,-86 1080.71,-122"/>
<text text-anchor="middle" x="1031" y="-99.8" font-family="Times,serif" font-size="14.00">LessonModule</text>
</g>
<!-- LessonModule&#45;&gt;DeletionApiModule -->
<g id="edge7" class="edge">
<title>LessonModule&#45;&gt;DeletionApiModule</title>
<path fill="none" stroke="black" d="M1031,-122.11C1031,-122.11 1031,-140.99 1031,-140.99"/>
<polygon fill="black" stroke="black" points="1027.5,-140.99 1031,-150.99 1034.5,-140.99 1027.5,-140.99"/>
</g>
<!-- LoggerModule -->
<g id="node8" class="node">
<title>LoggerModule</title>
<polygon fill="#8dd3c7" stroke="black" points="962.98,-122 959.98,-126 938.98,-126 935.98,-122 863.02,-122 863.02,-86 962.98,-86 962.98,-122"/>
<text text-anchor="middle" x="913" y="-99.8" font-family="Times,serif" font-size="14.00">LoggerModule</text>
</g>
<!-- LoggerModule&#45;&gt;DeletionApiModule -->
<g id="edge8" class="edge">
<title>LoggerModule&#45;&gt;DeletionApiModule</title>
<path fill="none" stroke="black" d="M963.1,-104C969.58,-104 974.01,-104 974.01,-104 974.01,-104 974.01,-140.89 974.01,-140.89"/>
<polygon fill="black" stroke="black" points="970.51,-140.89 974.01,-150.89 977.51,-140.89 970.51,-140.89"/>
</g>
<!-- PseudonymModule -->
<g id="node9" class="node">
<title>PseudonymModule</title>
<polygon fill="#8dd3c7" stroke="black" points="845.38,-122 842.38,-126 821.38,-126 818.38,-122 720.62,-122 720.62,-86 845.38,-86 845.38,-122"/>
<text text-anchor="middle" x="783" y="-99.8" font-family="Times,serif" font-size="14.00">PseudonymModule</text>
</g>
<!-- PseudonymModule&#45;&gt;DeletionApiModule -->
<g id="edge9" class="edge">
<title>PseudonymModule&#45;&gt;DeletionApiModule</title>
<path fill="none" stroke="black" d="M783,-122.24C783,-137.57 783,-157 783,-157 783,-157 956.49,-157 956.49,-157"/>
<polygon fill="black" stroke="black" points="956.49,-160.5 966.49,-157 956.49,-153.5 956.49,-160.5"/>
</g>
<!-- RegistrationPinModule -->
<g id="node10" class="node">
<title>RegistrationPinModule</title>
<polygon fill="#8dd3c7" stroke="black" points="702.16,-122 699.16,-126 678.16,-126 675.16,-122 555.84,-122 555.84,-86 702.16,-86 702.16,-122"/>
<text text-anchor="middle" x="629" y="-99.8" font-family="Times,serif" font-size="14.00">RegistrationPinModule</text>
</g>
<!-- RegistrationPinModule&#45;&gt;DeletionApiModule -->
<g id="edge10" class="edge">
<title>RegistrationPinModule&#45;&gt;DeletionApiModule</title>
<path fill="none" stroke="black" d="M629,-122.03C629,-139.06 629,-162 629,-162 629,-162 956.41,-162 956.41,-162"/>
<polygon fill="black" stroke="black" points="956.41,-165.5 966.41,-162 956.41,-158.5 956.41,-165.5"/>
</g>
<!-- RocketChatModule -->
<g id="node11" class="node">
<title>RocketChatModule</title>
<polygon fill="#8dd3c7" stroke="black" points="537.65,-122 534.65,-126 513.65,-126 510.65,-122 412.35,-122 412.35,-86 537.65,-86 537.65,-122"/>
<text text-anchor="middle" x="475" y="-99.8" font-family="Times,serif" font-size="14.00">RocketChatModule</text>
</g>
<!-- RocketChatModule&#45;&gt;DeletionApiModule -->
<g id="edge11" class="edge">
<title>RocketChatModule&#45;&gt;DeletionApiModule</title>
<path fill="none" stroke="black" d="M475,-122.22C475,-140.83 475,-167 475,-167 475,-167 956.68,-167 956.68,-167"/>
<polygon fill="black" stroke="black" points="956.68,-170.5 966.68,-167 956.68,-163.5 956.68,-170.5"/>
</g>
<!-- RocketChatUserModule -->
<g id="node12" class="node">
<title>RocketChatUserModule</title>
<polygon fill="#8dd3c7" stroke="black" points="394.07,-122 391.07,-126 370.07,-126 367.07,-122 241.93,-122 241.93,-86 394.07,-86 394.07,-122"/>
<text text-anchor="middle" x="318" y="-99.8" font-family="Times,serif" font-size="14.00">RocketChatUserModule</text>
</g>
<!-- RocketChatUserModule&#45;&gt;DeletionApiModule -->
<g id="edge12" class="edge">
<title>RocketChatUserModule&#45;&gt;DeletionApiModule</title>
<path fill="none" stroke="black" d="M318,-122.22C318,-142.37 318,-172 318,-172 318,-172 956.47,-172 956.47,-172"/>
<polygon fill="black" stroke="black" points="956.47,-175.5 966.47,-172 956.47,-168.5 956.47,-175.5"/>
</g>
<!-- TeamsModule -->
<g id="node13" class="node">
<title>TeamsModule</title>
<polygon fill="#8dd3c7" stroke="black" points="224.37,-122 221.37,-126 200.37,-126 197.37,-122 127.63,-122 127.63,-86 224.37,-86 224.37,-122"/>
<text text-anchor="middle" x="176" y="-99.8" font-family="Times,serif" font-size="14.00">TeamsModule</text>
</g>
<!-- TeamsModule&#45;&gt;DeletionApiModule -->
<g id="edge13" class="edge">
<title>TeamsModule&#45;&gt;DeletionApiModule</title>
<path fill="none" stroke="black" d="M176,-122.04C176,-143.66 176,-177 176,-177 176,-177 956.74,-177 956.74,-177"/>
<polygon fill="black" stroke="black" points="956.74,-180.5 966.74,-177 956.74,-173.5 956.74,-180.5"/>
</g>
<!-- UserModule -->
<g id="node14" class="node">
<title>UserModule</title>
<polygon fill="#8dd3c7" stroke="black" points="109.98,-122 106.98,-126 85.98,-126 82.98,-122 24.02,-122 24.02,-86 109.98,-86 109.98,-122"/>
<text text-anchor="middle" x="67" y="-99.8" font-family="Times,serif" font-size="14.00">UserModule</text>
</g>
<!-- UserModule&#45;&gt;DeletionApiModule -->
<g id="edge14" class="edge">
<title>UserModule&#45;&gt;DeletionApiModule</title>
<path fill="none" stroke="black" d="M67,-122.09C67,-145.13 67,-182 67,-182 67,-182 956.63,-182 956.63,-182"/>
<polygon fill="black" stroke="black" points="956.63,-185.5 966.63,-182 956.63,-178.5 956.63,-185.5"/>
</g>
<!-- DeletionRequestUc -->
<g id="node16" class="node">
<title>DeletionRequestUc</title>
<ellipse fill="#fdb462" stroke="black" cx="1954" cy="-104" rx="86.81" ry="18"/>
<text text-anchor="middle" x="1954" y="-99.8" font-family="Times,serif" font-size="14.00">DeletionRequestUc</text>
</g>
<!-- DeletionRequestUc&#45;&gt;DeletionApiModule -->
<g id="edge15" class="edge">
<title>DeletionRequestUc&#45;&gt;DeletionApiModule</title>
<path fill="none" stroke="black" d="M1954,-122.09C1954,-145.13 1954,-182 1954,-182 1954,-182 1105.54,-182 1105.54,-182"/>
<polygon fill="black" stroke="black" points="1105.54,-178.5 1095.54,-182 1105.54,-185.5 1105.54,-178.5"/>
</g>
</g>
</svg>
