<?xml version="1.0" encoding="UTF-8" standalone="no"?>
<!DOCTYPE svg PUBLIC "-//W3C//DTD SVG 1.1//EN"
 "http://www.w3.org/Graphics/SVG/1.1/DTD/svg11.dtd">
<!-- Generated by graphviz version 2.47.0 (20210316.0004)
 -->
<!-- Title: dependencies Pages: 1 -->
<svg width="1388pt" height="211pt"
 viewBox="0.00 0.00 1388.00 211.00" xmlns="http://www.w3.org/2000/svg" xmlns:xlink="http://www.w3.org/1999/xlink">
<g id="graph0" class="graph" transform="scale(1 1) rotate(0) translate(4 207)">
<title>dependencies</title>
<polygon fill="white" stroke="transparent" points="-4,4 -4,-207 1384,-207 1384,4 -4,4"/>
<text text-anchor="start" x="669.01" y="-42.4" font-family="Times-12" font-weight="bold" font-size="14.00">Legend</text>
<polygon fill="#ffffb3" stroke="transparent" points="456,-10 456,-30 476,-30 476,-10 456,-10"/>
<text text-anchor="start" x="479.63" y="-15.4" font-family="Times-12" font-size="14.00"> &#160;Declarations</text>
<polygon fill="#8dd3c7" stroke="transparent" points="569,-10 569,-30 589,-30 589,-10 569,-10"/>
<text text-anchor="start" x="592.73" y="-15.4" font-family="Times-12" font-size="14.00"> &#160;Module</text>
<polygon fill="#80b1d3" stroke="transparent" points="655,-10 655,-30 675,-30 675,-10 655,-10"/>
<text text-anchor="start" x="678.78" y="-15.4" font-family="Times-12" font-size="14.00"> &#160;Bootstrap</text>
<polygon fill="#fdb462" stroke="transparent" points="752,-10 752,-30 772,-30 772,-10 752,-10"/>
<text text-anchor="start" x="775.67" y="-15.4" font-family="Times-12" font-size="14.00"> &#160;Providers</text>
<polygon fill="#fb8072" stroke="transparent" points="848,-10 848,-30 868,-30 868,-10 848,-10"/>
<text text-anchor="start" x="871.73" y="-15.4" font-family="Times-12" font-size="14.00"> &#160;Exports</text>
<g id="clust1" class="cluster">
<title>cluster_DeletionApiModule</title>
<polygon fill="none" stroke="black" stroke-dasharray="1,5" points="8,-70 8,-195 1372,-195 1372,-70 8,-70"/>
</g>
<g id="clust3" class="cluster">
<title>cluster_DeletionApiModule_imports</title>
<polygon fill="none" stroke="black" points="214,-78 214,-130 1364,-130 1364,-78 214,-78"/>
</g>
<g id="clust6" class="cluster">
<title>cluster_DeletionApiModule_providers</title>
<polygon fill="none" stroke="black" points="16,-78 16,-130 206,-130 206,-78 16,-78"/>
</g>
<!-- AuthenticationModule -->
<g id="node1" class="node">
<title>AuthenticationModule</title>
<polygon fill="#8dd3c7" stroke="black" points="1356.25,-122 1353.25,-126 1332.25,-126 1329.25,-122 1213.75,-122 1213.75,-86 1356.25,-86 1356.25,-122"/>
<text text-anchor="middle" x="1285" y="-99.8" font-family="Times,serif" font-size="14.00">AuthenticationModule</text>
</g>
<!-- DeletionApiModule -->
<g id="node10" class="node">
<title>DeletionApiModule</title>
<polygon fill="#8dd3c7" stroke="black" points="815.25,-187 812.25,-191 791.25,-191 788.25,-187 686.75,-187 686.75,-151 815.25,-151 815.25,-187"/>
<text text-anchor="middle" x="751" y="-164.8" font-family="Times,serif" font-size="14.00">DeletionApiModule</text>
</g>
<!-- AuthenticationModule&#45;&gt;DeletionApiModule -->
<g id="edge1" class="edge">
<title>AuthenticationModule&#45;&gt;DeletionApiModule</title>
<path fill="none" stroke="black" d="M1285,-122.01C1285,-144.49 1285,-180 1285,-180 1285,-180 825.41,-180 825.41,-180"/>
<polygon fill="black" stroke="black" points="825.41,-176.5 815.41,-180 825.41,-183.5 825.41,-176.5"/>
</g>
<!-- ClassModule -->
<g id="node2" class="node">
<title>ClassModule</title>
<polygon fill="#8dd3c7" stroke="black" points="1195.88,-122 1192.88,-126 1171.88,-126 1168.88,-122 1106.12,-122 1106.12,-86 1195.88,-86 1195.88,-122"/>
<text text-anchor="middle" x="1151" y="-99.8" font-family="Times,serif" font-size="14.00">ClassModule</text>
</g>
<!-- ClassModule&#45;&gt;DeletionApiModule -->
<g id="edge2" class="edge">
<title>ClassModule&#45;&gt;DeletionApiModule</title>
<path fill="none" stroke="black" d="M1151,-122.13C1151,-142.57 1151,-173 1151,-173 1151,-173 825.27,-173 825.27,-173"/>
<polygon fill="black" stroke="black" points="825.27,-169.5 815.27,-173 825.27,-176.5 825.27,-169.5"/>
</g>
<!-- DeletionModule -->
<g id="node3" class="node">
<title>DeletionModule</title>
<polygon fill="#8dd3c7" stroke="black" points="1087.76,-122 1084.76,-126 1063.76,-126 1060.76,-122 980.24,-122 980.24,-86 1087.76,-86 1087.76,-122"/>
<text text-anchor="middle" x="1034" y="-99.8" font-family="Times,serif" font-size="14.00">DeletionModule</text>
</g>
<!-- DeletionModule&#45;&gt;DeletionApiModule -->
<g id="edge3" class="edge">
<title>DeletionModule&#45;&gt;DeletionApiModule</title>
<path fill="none" stroke="black" d="M1034,-122.27C1034,-140.56 1034,-166 1034,-166 1034,-166 825.57,-166 825.57,-166"/>
<polygon fill="black" stroke="black" points="825.57,-162.5 815.57,-166 825.57,-169.5 825.57,-162.5"/>
</g>
<!-- FilesModule -->
<g id="node4" class="node">
<title>FilesModule</title>
<polygon fill="#8dd3c7" stroke="black" points="962.27,-122 959.27,-126 938.27,-126 935.27,-122 875.73,-122 875.73,-86 962.27,-86 962.27,-122"/>
<text text-anchor="middle" x="919" y="-99.8" font-family="Times,serif" font-size="14.00">FilesModule</text>
</g>
<!-- FilesModule&#45;&gt;DeletionApiModule -->
<g id="edge4" class="edge">
<title>FilesModule&#45;&gt;DeletionApiModule</title>
<path fill="none" stroke="black" d="M919,-122.01C919,-138.05 919,-159 919,-159 919,-159 825.47,-159 825.47,-159"/>
<polygon fill="black" stroke="black" points="825.47,-155.5 815.47,-159 825.47,-162.5 825.47,-155.5"/>
</g>
<!-- LoggerModule -->
<g id="node5" class="node">
<title>LoggerModule</title>
<polygon fill="#8dd3c7" stroke="black" points="857.98,-122 854.98,-126 833.98,-126 830.98,-122 758.02,-122 758.02,-86 857.98,-86 857.98,-122"/>
<text text-anchor="middle" x="808" y="-99.8" font-family="Times,serif" font-size="14.00">LoggerModule</text>
</g>
<!-- LoggerModule&#45;&gt;DeletionApiModule -->
<g id="edge5" class="edge">
<title>LoggerModule&#45;&gt;DeletionApiModule</title>
<path fill="none" stroke="black" d="M786.69,-122.11C786.69,-122.11 786.69,-140.99 786.69,-140.99"/>
<polygon fill="black" stroke="black" points="783.19,-140.99 786.69,-150.99 790.19,-140.99 783.19,-140.99"/>
</g>
<!-- NewsModule -->
<g id="node6" class="node">
<title>NewsModule</title>
<polygon fill="#8dd3c7" stroke="black" points="739.92,-122 736.92,-126 715.92,-126 712.92,-122 648.08,-122 648.08,-86 739.92,-86 739.92,-122"/>
<text text-anchor="middle" x="694" y="-99.8" font-family="Times,serif" font-size="14.00">NewsModule</text>
</g>
<!-- NewsModule&#45;&gt;DeletionApiModule -->
<g id="edge6" class="edge">
<title>NewsModule&#45;&gt;DeletionApiModule</title>
<path fill="none" stroke="black" d="M713.17,-122.11C713.17,-122.11 713.17,-140.99 713.17,-140.99"/>
<polygon fill="black" stroke="black" points="709.67,-140.99 713.17,-150.99 716.67,-140.99 709.67,-140.99"/>
</g>
<!-- PseudonymModule -->
<g id="node7" class="node">
<title>PseudonymModule</title>
<polygon fill="#8dd3c7" stroke="black" points="630.38,-122 627.38,-126 606.38,-126 603.38,-122 505.62,-122 505.62,-86 630.38,-86 630.38,-122"/>
<text text-anchor="middle" x="568" y="-99.8" font-family="Times,serif" font-size="14.00">PseudonymModule</text>
</g>
<!-- PseudonymModule&#45;&gt;DeletionApiModule -->
<g id="edge7" class="edge">
<title>PseudonymModule&#45;&gt;DeletionApiModule</title>
<path fill="none" stroke="black" d="M568,-122.01C568,-138.05 568,-159 568,-159 568,-159 676.74,-159 676.74,-159"/>
<polygon fill="black" stroke="black" points="676.74,-162.5 686.74,-159 676.74,-155.5 676.74,-162.5"/>
</g>
<!-- RocketChatUserModule -->
<g id="node8" class="node">
<title>RocketChatUserModule</title>
<polygon fill="#8dd3c7" stroke="black" points="488.07,-122 485.07,-126 464.07,-126 461.07,-122 335.93,-122 335.93,-86 488.07,-86 488.07,-122"/>
<text text-anchor="middle" x="412" y="-99.8" font-family="Times,serif" font-size="14.00">RocketChatUserModule</text>
</g>
<!-- RocketChatUserModule&#45;&gt;DeletionApiModule -->
<g id="edge8" class="edge">
<title>RocketChatUserModule&#45;&gt;DeletionApiModule</title>
<path fill="none" stroke="black" d="M412,-122.27C412,-140.56 412,-166 412,-166 412,-166 676.44,-166 676.44,-166"/>
<polygon fill="black" stroke="black" points="676.44,-169.5 686.44,-166 676.44,-162.5 676.44,-169.5"/>
</g>
<!-- TeamsModule -->
<g id="node9" class="node">
<title>TeamsModule</title>
<polygon fill="#8dd3c7" stroke="black" points="318.37,-122 315.37,-126 294.37,-126 291.37,-122 221.63,-122 221.63,-86 318.37,-86 318.37,-122"/>
<text text-anchor="middle" x="270" y="-99.8" font-family="Times,serif" font-size="14.00">TeamsModule</text>
</g>
<!-- TeamsModule&#45;&gt;DeletionApiModule -->
<g id="edge9" class="edge">
<title>TeamsModule&#45;&gt;DeletionApiModule</title>
<path fill="none" stroke="black" d="M270,-122.13C270,-142.57 270,-173 270,-173 270,-173 676.63,-173 676.63,-173"/>
<polygon fill="black" stroke="black" points="676.63,-176.5 686.63,-173 676.63,-169.5 676.63,-176.5"/>
</g>
<!-- DeletionRequestUc -->
<g id="node11" class="node">
<title>DeletionRequestUc</title>
<ellipse fill="#fdb462" stroke="black" cx="111" cy="-104" rx="86.81" ry="18"/>
<text text-anchor="middle" x="111" y="-99.8" font-family="Times,serif" font-size="14.00">DeletionRequestUc</text>
</g>
<!-- DeletionRequestUc&#45;&gt;DeletionApiModule -->
<g id="edge10" class="edge">
<title>DeletionRequestUc&#45;&gt;DeletionApiModule</title>
<path fill="none" stroke="black" d="M111,-122.01C111,-144.49 111,-180 111,-180 111,-180 676.7,-180 676.7,-180"/>
<polygon fill="black" stroke="black" points="676.7,-183.5 686.7,-180 676.7,-176.5 676.7,-183.5"/>
</g>
</g>
</svg>
