<?xml version="1.0" encoding="UTF-8" standalone="no"?>
<!DOCTYPE svg PUBLIC "-//W3C//DTD SVG 1.1//EN"
 "http://www.w3.org/Graphics/SVG/1.1/DTD/svg11.dtd">
<!-- Generated by graphviz version 2.47.0 (20210316.0004)
 -->
<!-- Title: dependencies Pages: 1 -->
<svg width="2379pt" height="284pt"
 viewBox="0.00 0.00 2379.00 284.00" xmlns="http://www.w3.org/2000/svg" xmlns:xlink="http://www.w3.org/1999/xlink">
<g id="graph0" class="graph" transform="scale(1 1) rotate(0) translate(4 280)">
<title>dependencies</title>
<polygon fill="white" stroke="transparent" points="-4,4 -4,-280 2375,-280 2375,4 -4,4"/>
<text text-anchor="start" x="1164.51" y="-42.4" font-family="Times-12" font-weight="bold" font-size="14.00">Legend</text>
<polygon fill="#ffffb3" stroke="transparent" points="951.5,-10 951.5,-30 971.5,-30 971.5,-10 951.5,-10"/>
<text text-anchor="start" x="975.13" y="-15.4" font-family="Times-12" font-size="14.00"> &#160;Declarations</text>
<polygon fill="#8dd3c7" stroke="transparent" points="1064.5,-10 1064.5,-30 1084.5,-30 1084.5,-10 1064.5,-10"/>
<text text-anchor="start" x="1088.23" y="-15.4" font-family="Times-12" font-size="14.00"> &#160;Module</text>
<polygon fill="#80b1d3" stroke="transparent" points="1150.5,-10 1150.5,-30 1170.5,-30 1170.5,-10 1150.5,-10"/>
<text text-anchor="start" x="1174.28" y="-15.4" font-family="Times-12" font-size="14.00"> &#160;Bootstrap</text>
<polygon fill="#fdb462" stroke="transparent" points="1247.5,-10 1247.5,-30 1267.5,-30 1267.5,-10 1247.5,-10"/>
<text text-anchor="start" x="1271.17" y="-15.4" font-family="Times-12" font-size="14.00"> &#160;Providers</text>
<polygon fill="#fb8072" stroke="transparent" points="1343.5,-10 1343.5,-30 1363.5,-30 1363.5,-10 1343.5,-10"/>
<text text-anchor="start" x="1367.23" y="-15.4" font-family="Times-12" font-size="14.00"> &#160;Exports</text>
<g id="clust1" class="cluster">
<title>cluster_AuthorizationReferenceModule</title>
<polygon fill="none" stroke="black" stroke-dasharray="1,5" points="8,-70 8,-268 2363,-268 2363,-70 8,-70"/>
</g>
<g id="clust3" class="cluster">
<title>cluster_AuthorizationReferenceModule_imports</title>
<polygon fill="none" stroke="black" points="1966,-78 1966,-130 2355,-130 2355,-78 1966,-78"/>
</g>
<g id="clust4" class="cluster">
<title>cluster_AuthorizationReferenceModule_exports</title>
<polygon fill="none" stroke="black" points="1035,-208 1035,-260 1247,-260 1247,-208 1035,-208"/>
</g>
<g id="clust6" class="cluster">
<title>cluster_AuthorizationReferenceModule_providers</title>
<polygon fill="none" stroke="black" points="16,-78 16,-130 1958,-130 1958,-78 16,-78"/>
</g>
<!-- AuthorizationModule -->
<g id="node1" class="node">
<title>AuthorizationModule</title>
<polygon fill="#8dd3c7" stroke="black" points="2346.81,-122 2343.81,-126 2322.81,-126 2319.81,-122 2209.19,-122 2209.19,-86 2346.81,-86 2346.81,-122"/>
<text text-anchor="middle" x="2278" y="-99.8" font-family="Times,serif" font-size="14.00">AuthorizationModule</text>
</g>
<!-- AuthorizationReferenceModule -->
<g id="node4" class="node">
<title>AuthorizationReferenceModule</title>
<polygon fill="#8dd3c7" stroke="black" points="1238.04,-187 1235.04,-191 1214.04,-191 1211.04,-187 1043.96,-187 1043.96,-151 1238.04,-151 1238.04,-187"/>
<text text-anchor="middle" x="1141" y="-164.8" font-family="Times,serif" font-size="14.00">AuthorizationReferenceModule</text>
</g>
<!-- AuthorizationModule&#45;&gt;AuthorizationReferenceModule -->
<g id="edge1" class="edge">
<title>AuthorizationModule&#45;&gt;AuthorizationReferenceModule</title>
<path fill="none" stroke="black" d="M2278,-122.09C2278,-145.13 2278,-182 2278,-182 2278,-182 1248.43,-182 1248.43,-182"/>
<polygon fill="black" stroke="black" points="1248.43,-178.5 1238.43,-182 1248.43,-185.5 1248.43,-178.5"/>
</g>
<!-- LessonModule -->
<g id="node2" class="node">
<title>LessonModule</title>
<polygon fill="#8dd3c7" stroke="black" points="2191.71,-122 2188.71,-126 2167.71,-126 2164.71,-122 2092.29,-122 2092.29,-86 2191.71,-86 2191.71,-122"/>
<text text-anchor="middle" x="2142" y="-99.8" font-family="Times,serif" font-size="14.00">LessonModule</text>
</g>
<!-- LessonModule&#45;&gt;AuthorizationReferenceModule -->
<g id="edge2" class="edge">
<title>LessonModule&#45;&gt;AuthorizationReferenceModule</title>
<path fill="none" stroke="black" d="M2142,-122.04C2142,-143.66 2142,-177 2142,-177 2142,-177 1248.35,-177 1248.35,-177"/>
<polygon fill="black" stroke="black" points="1248.35,-173.5 1238.35,-177 1248.35,-180.5 1248.35,-173.5"/>
</g>
<!-- LoggerModule -->
<g id="node3" class="node">
<title>LoggerModule</title>
<polygon fill="#8dd3c7" stroke="black" points="2073.98,-122 2070.98,-126 2049.98,-126 2046.98,-122 1974.02,-122 1974.02,-86 2073.98,-86 2073.98,-122"/>
<text text-anchor="middle" x="2024" y="-99.8" font-family="Times,serif" font-size="14.00">LoggerModule</text>
</g>
<!-- LoggerModule&#45;&gt;AuthorizationReferenceModule -->
<g id="edge3" class="edge">
<title>LoggerModule&#45;&gt;AuthorizationReferenceModule</title>
<path fill="none" stroke="black" d="M2024,-122.22C2024,-142.37 2024,-172 2024,-172 2024,-172 1248.02,-172 1248.02,-172"/>
<polygon fill="black" stroke="black" points="1248.02,-168.5 1238.02,-172 1248.02,-175.5 1248.02,-168.5"/>
</g>
<!-- AuthorizationReferenceService  -->
<g id="node5" class="node">
<title>AuthorizationReferenceService </title>
<polygon fill="#fb8072" stroke="black" points="1238.97,-252 1043.03,-252 1043.03,-216 1238.97,-216 1238.97,-252"/>
<text text-anchor="middle" x="1141" y="-229.8" font-family="Times,serif" font-size="14.00">AuthorizationReferenceService </text>
</g>
<!-- AuthorizationReferenceModule&#45;&gt;AuthorizationReferenceService  -->
<g id="edge4" class="edge">
<title>AuthorizationReferenceModule&#45;&gt;AuthorizationReferenceService </title>
<path fill="none" stroke="black" stroke-dasharray="5,2" d="M1141,-187.11C1141,-187.11 1141,-205.99 1141,-205.99"/>
<polygon fill="black" stroke="black" points="1137.5,-205.99 1141,-215.99 1144.5,-205.99 1137.5,-205.99"/>
</g>
<!-- AuthorizationHelper -->
<g id="node6" class="node">
<title>AuthorizationHelper</title>
<ellipse fill="#fdb462" stroke="black" cx="1859" cy="-104" rx="90.89" ry="18"/>
<text text-anchor="middle" x="1859" y="-99.8" font-family="Times,serif" font-size="14.00">AuthorizationHelper</text>
</g>
<!-- AuthorizationHelper&#45;&gt;AuthorizationReferenceModule -->
<g id="edge5" class="edge">
<title>AuthorizationHelper&#45;&gt;AuthorizationReferenceModule</title>
<path fill="none" stroke="black" d="M1859,-122.22C1859,-140.83 1859,-167 1859,-167 1859,-167 1248.21,-167 1248.21,-167"/>
<polygon fill="black" stroke="black" points="1248.21,-163.5 1238.21,-167 1248.21,-170.5 1248.21,-163.5"/>
</g>
<!-- AuthorizationReferenceService -->
<g id="node7" class="node">
<title>AuthorizationReferenceService</title>
<ellipse fill="#fdb462" stroke="black" cx="1617" cy="-104" rx="132.52" ry="18"/>
<text text-anchor="middle" x="1617" y="-99.8" font-family="Times,serif" font-size="14.00">AuthorizationReferenceService</text>
</g>
<!-- AuthorizationReferenceService&#45;&gt;AuthorizationReferenceModule -->
<g id="edge6" class="edge">
<title>AuthorizationReferenceService&#45;&gt;AuthorizationReferenceModule</title>
<path fill="none" stroke="black" d="M1617,-122.03C1617,-139.06 1617,-162 1617,-162 1617,-162 1248.19,-162 1248.19,-162"/>
<polygon fill="black" stroke="black" points="1248.19,-158.5 1238.19,-162 1248.19,-165.5 1248.19,-158.5"/>
</g>
<!-- CourseGroupRepo -->
<g id="node8" class="node">
<title>CourseGroupRepo</title>
<ellipse fill="#fdb462" stroke="black" cx="1383" cy="-104" rx="83.39" ry="18"/>
<text text-anchor="middle" x="1383" y="-99.8" font-family="Times,serif" font-size="14.00">CourseGroupRepo</text>
</g>
<!-- CourseGroupRepo&#45;&gt;AuthorizationReferenceModule -->
<g id="edge7" class="edge">
<title>CourseGroupRepo&#45;&gt;AuthorizationReferenceModule</title>
<path fill="none" stroke="black" d="M1383,-122.24C1383,-137.57 1383,-157 1383,-157 1383,-157 1248.04,-157 1248.04,-157"/>
<polygon fill="black" stroke="black" points="1248.04,-153.5 1238.04,-157 1248.04,-160.5 1248.04,-153.5"/>
</g>
<!-- CourseRepo -->
<g id="node9" class="node">
<title>CourseRepo</title>
<ellipse fill="#fdb462" stroke="black" cx="1223" cy="-104" rx="58.55" ry="18"/>
<text text-anchor="middle" x="1223" y="-99.8" font-family="Times,serif" font-size="14.00">CourseRepo</text>
</g>
<!-- CourseRepo&#45;&gt;AuthorizationReferenceModule -->
<g id="edge8" class="edge">
<title>CourseRepo&#45;&gt;AuthorizationReferenceModule</title>
<path fill="none" stroke="black" d="M1201.12,-120.74C1201.12,-120.74 1201.12,-140.72 1201.12,-140.72"/>
<polygon fill="black" stroke="black" points="1197.62,-140.72 1201.12,-150.72 1204.62,-140.72 1197.62,-140.72"/>
</g>
<!-- LegacySchoolRepo -->
<g id="node10" class="node">
<title>LegacySchoolRepo</title>
<ellipse fill="#fdb462" stroke="black" cx="1060" cy="-104" rx="86.82" ry="18"/>
<text text-anchor="middle" x="1060" y="-99.8" font-family="Times,serif" font-size="14.00">LegacySchoolRepo</text>
</g>
<!-- LegacySchoolRepo&#45;&gt;AuthorizationReferenceModule -->
<g id="edge9" class="edge">
<title>LegacySchoolRepo&#45;&gt;AuthorizationReferenceModule</title>
<path fill="none" stroke="black" d="M1095.32,-120.74C1095.32,-120.74 1095.32,-140.72 1095.32,-140.72"/>
<polygon fill="black" stroke="black" points="1091.82,-140.72 1095.32,-150.72 1098.82,-140.72 1091.82,-140.72"/>
</g>
<!-- ReferenceLoader -->
<g id="node11" class="node">
<title>ReferenceLoader</title>
<ellipse fill="#fdb462" stroke="black" cx="878" cy="-104" rx="77.53" ry="18"/>
<text text-anchor="middle" x="878" y="-99.8" font-family="Times,serif" font-size="14.00">ReferenceLoader</text>
</g>
<!-- ReferenceLoader&#45;&gt;AuthorizationReferenceModule -->
<g id="edge10" class="edge">
<title>ReferenceLoader&#45;&gt;AuthorizationReferenceModule</title>
<path fill="none" stroke="black" d="M878,-122.24C878,-137.57 878,-157 878,-157 878,-157 1033.82,-157 1033.82,-157"/>
<polygon fill="black" stroke="black" points="1033.82,-160.5 1043.82,-157 1033.82,-153.5 1033.82,-160.5"/>
</g>
<!-- SchoolExternalToolRepo -->
<g id="node12" class="node">
<title>SchoolExternalToolRepo</title>
<ellipse fill="#fdb462" stroke="black" cx="673" cy="-104" rx="109.39" ry="18"/>
<text text-anchor="middle" x="673" y="-99.8" font-family="Times,serif" font-size="14.00">SchoolExternalToolRepo</text>
</g>
<!-- SchoolExternalToolRepo&#45;&gt;AuthorizationReferenceModule -->
<g id="edge11" class="edge">
<title>SchoolExternalToolRepo&#45;&gt;AuthorizationReferenceModule</title>
<path fill="none" stroke="black" d="M673,-122.03C673,-139.06 673,-162 673,-162 673,-162 1033.75,-162 1033.75,-162"/>
<polygon fill="black" stroke="black" points="1033.75,-165.5 1043.75,-162 1033.75,-158.5 1033.75,-165.5"/>
</g>
<!-- SubmissionRepo -->
<g id="node13" class="node">
<title>SubmissionRepo</title>
<ellipse fill="#fdb462" stroke="black" cx="469" cy="-104" rx="76.49" ry="18"/>
<text text-anchor="middle" x="469" y="-99.8" font-family="Times,serif" font-size="14.00">SubmissionRepo</text>
</g>
<!-- SubmissionRepo&#45;&gt;AuthorizationReferenceModule -->
<g id="edge12" class="edge">
<title>SubmissionRepo&#45;&gt;AuthorizationReferenceModule</title>
<path fill="none" stroke="black" d="M469,-122.22C469,-140.83 469,-167 469,-167 469,-167 1033.64,-167 1033.64,-167"/>
<polygon fill="black" stroke="black" points="1033.64,-170.5 1043.64,-167 1033.64,-163.5 1033.64,-170.5"/>
</g>
<!-- TaskRepo -->
<g id="node14" class="node">
<title>TaskRepo</title>
<ellipse fill="#fdb462" stroke="black" cx="324" cy="-104" rx="50.38" ry="18"/>
<text text-anchor="middle" x="324" y="-99.8" font-family="Times,serif" font-size="14.00">TaskRepo</text>
</g>
<!-- TaskRepo&#45;&gt;AuthorizationReferenceModule -->
<g id="edge13" class="edge">
<title>TaskRepo&#45;&gt;AuthorizationReferenceModule</title>
<path fill="none" stroke="black" d="M324,-122.22C324,-142.37 324,-172 324,-172 324,-172 1033.67,-172 1033.67,-172"/>
<polygon fill="black" stroke="black" points="1033.67,-175.5 1043.67,-172 1033.67,-168.5 1033.67,-175.5"/>
</g>
<!-- TeamsRepo -->
<g id="node15" class="node">
<title>TeamsRepo</title>
<ellipse fill="#fdb462" stroke="black" cx="199" cy="-104" rx="57.32" ry="18"/>
<text text-anchor="middle" x="199" y="-99.8" font-family="Times,serif" font-size="14.00">TeamsRepo</text>
</g>
<!-- TeamsRepo&#45;&gt;AuthorizationReferenceModule -->
<g id="edge14" class="edge">
<title>TeamsRepo&#45;&gt;AuthorizationReferenceModule</title>
<path fill="none" stroke="black" d="M199,-122.04C199,-143.66 199,-177 199,-177 199,-177 1033.74,-177 1033.74,-177"/>
<polygon fill="black" stroke="black" points="1033.74,-180.5 1043.74,-177 1033.74,-173.5 1033.74,-180.5"/>
</g>
<!-- UserRepo -->
<g id="node16" class="node">
<title>UserRepo</title>
<ellipse fill="#fdb462" stroke="black" cx="74" cy="-104" rx="49.8" ry="18"/>
<text text-anchor="middle" x="74" y="-99.8" font-family="Times,serif" font-size="14.00">UserRepo</text>
</g>
<!-- UserRepo&#45;&gt;AuthorizationReferenceModule -->
<g id="edge15" class="edge">
<title>UserRepo&#45;&gt;AuthorizationReferenceModule</title>
<path fill="none" stroke="black" d="M74,-122.09C74,-145.13 74,-182 74,-182 74,-182 1033.96,-182 1033.96,-182"/>
<polygon fill="black" stroke="black" points="1033.96,-185.5 1043.96,-182 1033.96,-178.5 1033.96,-185.5"/>
</g>
</g>
</svg>
