<?xml version="1.0" encoding="UTF-8" standalone="no"?>
<!DOCTYPE svg PUBLIC "-//W3C//DTD SVG 1.1//EN"
 "http://www.w3.org/Graphics/SVG/1.1/DTD/svg11.dtd">
<!-- Generated by graphviz version 2.47.0 (20210316.0004)
 -->
<!-- Title: dependencies Pages: 1 -->
<svg width="2504pt" height="284pt"
 viewBox="0.00 0.00 2504.00 284.00" xmlns="http://www.w3.org/2000/svg" xmlns:xlink="http://www.w3.org/1999/xlink">
<g id="graph0" class="graph" transform="scale(1 1) rotate(0) translate(4 280)">
<title>dependencies</title>
<polygon fill="white" stroke="transparent" points="-4,4 -4,-280 2500,-280 2500,4 -4,4"/>
<text text-anchor="start" x="1227.01" y="-42.4" font-family="Times-12" font-weight="bold" font-size="14.00">Legend</text>
<polygon fill="#ffffb3" stroke="transparent" points="1014,-10 1014,-30 1034,-30 1034,-10 1014,-10"/>
<text text-anchor="start" x="1037.63" y="-15.4" font-family="Times-12" font-size="14.00"> &#160;Declarations</text>
<polygon fill="#8dd3c7" stroke="transparent" points="1127,-10 1127,-30 1147,-30 1147,-10 1127,-10"/>
<text text-anchor="start" x="1150.73" y="-15.4" font-family="Times-12" font-size="14.00"> &#160;Module</text>
<polygon fill="#80b1d3" stroke="transparent" points="1213,-10 1213,-30 1233,-30 1233,-10 1213,-10"/>
<text text-anchor="start" x="1236.78" y="-15.4" font-family="Times-12" font-size="14.00"> &#160;Bootstrap</text>
<polygon fill="#fdb462" stroke="transparent" points="1310,-10 1310,-30 1330,-30 1330,-10 1310,-10"/>
<text text-anchor="start" x="1333.67" y="-15.4" font-family="Times-12" font-size="14.00"> &#160;Providers</text>
<polygon fill="#fb8072" stroke="transparent" points="1406,-10 1406,-30 1426,-30 1426,-10 1406,-10"/>
<text text-anchor="start" x="1429.73" y="-15.4" font-family="Times-12" font-size="14.00"> &#160;Exports</text>
<g id="clust1" class="cluster">
<title>cluster_AuthorizationReferenceModule</title>
<polygon fill="none" stroke="black" stroke-dasharray="1,5" points="8,-70 8,-268 2488,-268 2488,-70 8,-70"/>
</g>
<g id="clust6" class="cluster">
<title>cluster_AuthorizationReferenceModule_providers</title>
<polygon fill="none" stroke="black" points="538,-78 538,-130 2480,-130 2480,-78 538,-78"/>
</g>
<g id="clust4" class="cluster">
<title>cluster_AuthorizationReferenceModule_exports</title>
<polygon fill="none" stroke="black" points="885,-208 885,-260 1097,-260 1097,-208 885,-208"/>
</g>
<g id="clust3" class="cluster">
<title>cluster_AuthorizationReferenceModule_imports</title>
<polygon fill="none" stroke="black" points="16,-78 16,-130 530,-130 530,-78 16,-78"/>
</g>
<!-- AuthorizationModule -->
<g id="node1" class="node">
<title>AuthorizationModule</title>
<polygon fill="#8dd3c7" stroke="black" points="521.81,-122 518.81,-126 497.81,-126 494.81,-122 384.19,-122 384.19,-86 521.81,-86 521.81,-122"/>
<text text-anchor="middle" x="453" y="-99.8" font-family="Times,serif" font-size="14.00">AuthorizationModule</text>
</g>
<!-- AuthorizationReferenceModule -->
<g id="node5" class="node">
<title>AuthorizationReferenceModule</title>
<polygon fill="#8dd3c7" stroke="black" points="1088.04,-187 1085.04,-191 1064.04,-191 1061.04,-187 893.96,-187 893.96,-151 1088.04,-151 1088.04,-187"/>
<text text-anchor="middle" x="991" y="-164.8" font-family="Times,serif" font-size="14.00">AuthorizationReferenceModule</text>
</g>
<!-- AuthorizationModule&#45;&gt;AuthorizationReferenceModule -->
<g id="edge1" class="edge">
<title>AuthorizationModule&#45;&gt;AuthorizationReferenceModule</title>
<path fill="none" stroke="black" d="M453,-122.22C453,-140.83 453,-167 453,-167 453,-167 883.88,-167 883.88,-167"/>
<polygon fill="black" stroke="black" points="883.88,-170.5 893.88,-167 883.88,-163.5 883.88,-170.5"/>
</g>
<!-- InstanceModule -->
<g id="node2" class="node">
<title>InstanceModule</title>
<polygon fill="#8dd3c7" stroke="black" points="366.19,-122 363.19,-126 342.19,-126 339.19,-122 259.81,-122 259.81,-86 366.19,-86 366.19,-122"/>
<text text-anchor="middle" x="313" y="-99.8" font-family="Times,serif" font-size="14.00">InstanceModule</text>
</g>
<!-- InstanceModule&#45;&gt;AuthorizationReferenceModule -->
<g id="edge2" class="edge">
<title>InstanceModule&#45;&gt;AuthorizationReferenceModule</title>
<path fill="none" stroke="black" d="M313,-122.22C313,-142.37 313,-172 313,-172 313,-172 883.86,-172 883.86,-172"/>
<polygon fill="black" stroke="black" points="883.86,-175.5 893.86,-172 883.86,-168.5 883.86,-175.5"/>
</g>
<!-- LessonModule -->
<g id="node3" class="node">
<title>LessonModule</title>
<polygon fill="#8dd3c7" stroke="black" points="241.71,-122 238.71,-126 217.71,-126 214.71,-122 142.29,-122 142.29,-86 241.71,-86 241.71,-122"/>
<text text-anchor="middle" x="192" y="-99.8" font-family="Times,serif" font-size="14.00">LessonModule</text>
</g>
<!-- LessonModule&#45;&gt;AuthorizationReferenceModule -->
<g id="edge3" class="edge">
<title>LessonModule&#45;&gt;AuthorizationReferenceModule</title>
<path fill="none" stroke="black" d="M192,-122.04C192,-143.66 192,-177 192,-177 192,-177 883.83,-177 883.83,-177"/>
<polygon fill="black" stroke="black" points="883.83,-180.5 893.83,-177 883.83,-173.5 883.83,-180.5"/>
</g>
<!-- LoggerModule -->
<g id="node4" class="node">
<title>LoggerModule</title>
<polygon fill="#8dd3c7" stroke="black" points="123.98,-122 120.98,-126 99.98,-126 96.98,-122 24.02,-122 24.02,-86 123.98,-86 123.98,-122"/>
<text text-anchor="middle" x="74" y="-99.8" font-family="Times,serif" font-size="14.00">LoggerModule</text>
</g>
<!-- LoggerModule&#45;&gt;AuthorizationReferenceModule -->
<g id="edge4" class="edge">
<title>LoggerModule&#45;&gt;AuthorizationReferenceModule</title>
<path fill="none" stroke="black" d="M74,-122.09C74,-145.13 74,-182 74,-182 74,-182 883.73,-182 883.73,-182"/>
<polygon fill="black" stroke="black" points="883.73,-185.5 893.73,-182 883.73,-178.5 883.73,-185.5"/>
</g>
<!-- AuthorizationReferenceService  -->
<g id="node6" class="node">
<title>AuthorizationReferenceService </title>
<polygon fill="#fb8072" stroke="black" points="1088.97,-252 893.03,-252 893.03,-216 1088.97,-216 1088.97,-252"/>
<text text-anchor="middle" x="991" y="-229.8" font-family="Times,serif" font-size="14.00">AuthorizationReferenceService </text>
</g>
<!-- AuthorizationReferenceModule&#45;&gt;AuthorizationReferenceService  -->
<g id="edge5" class="edge">
<title>AuthorizationReferenceModule&#45;&gt;AuthorizationReferenceService </title>
<path fill="none" stroke="black" stroke-dasharray="5,2" d="M991,-187.11C991,-187.11 991,-205.99 991,-205.99"/>
<polygon fill="black" stroke="black" points="987.5,-205.99 991,-215.99 994.5,-205.99 987.5,-205.99"/>
</g>
<!-- AuthorizationHelper -->
<g id="node7" class="node">
<title>AuthorizationHelper</title>
<ellipse fill="#fdb462" stroke="black" cx="2381" cy="-104" rx="90.89" ry="18"/>
<text text-anchor="middle" x="2381" y="-99.8" font-family="Times,serif" font-size="14.00">AuthorizationHelper</text>
</g>
<!-- AuthorizationHelper&#45;&gt;AuthorizationReferenceModule -->
<g id="edge6" class="edge">
<title>AuthorizationHelper&#45;&gt;AuthorizationReferenceModule</title>
<path fill="none" stroke="black" d="M2381,-122.09C2381,-145.13 2381,-182 2381,-182 2381,-182 1098.19,-182 1098.19,-182"/>
<polygon fill="black" stroke="black" points="1098.19,-178.5 1088.19,-182 1098.19,-185.5 1098.19,-178.5"/>
</g>
<!-- AuthorizationReferenceService -->
<g id="node8" class="node">
<title>AuthorizationReferenceService</title>
<ellipse fill="#fdb462" stroke="black" cx="2139" cy="-104" rx="132.52" ry="18"/>
<text text-anchor="middle" x="2139" y="-99.8" font-family="Times,serif" font-size="14.00">AuthorizationReferenceService</text>
</g>
<!-- AuthorizationReferenceService&#45;&gt;AuthorizationReferenceModule -->
<g id="edge7" class="edge">
<title>AuthorizationReferenceService&#45;&gt;AuthorizationReferenceModule</title>
<path fill="none" stroke="black" d="M2139,-122.04C2139,-143.66 2139,-177 2139,-177 2139,-177 1098.38,-177 1098.38,-177"/>
<polygon fill="black" stroke="black" points="1098.38,-173.5 1088.38,-177 1098.38,-180.5 1098.38,-173.5"/>
</g>
<!-- CourseGroupRepo -->
<g id="node9" class="node">
<title>CourseGroupRepo</title>
<ellipse fill="#fdb462" stroke="black" cx="1905" cy="-104" rx="83.39" ry="18"/>
<text text-anchor="middle" x="1905" y="-99.8" font-family="Times,serif" font-size="14.00">CourseGroupRepo</text>
</g>
<!-- CourseGroupRepo&#45;&gt;AuthorizationReferenceModule -->
<g id="edge8" class="edge">
<title>CourseGroupRepo&#45;&gt;AuthorizationReferenceModule</title>
<path fill="none" stroke="black" d="M1905,-122.22C1905,-142.37 1905,-172 1905,-172 1905,-172 1098.38,-172 1098.38,-172"/>
<polygon fill="black" stroke="black" points="1098.38,-168.5 1088.38,-172 1098.38,-175.5 1098.38,-168.5"/>
</g>
<!-- CourseRepo -->
<g id="node10" class="node">
<title>CourseRepo</title>
<ellipse fill="#fdb462" stroke="black" cx="1745" cy="-104" rx="58.55" ry="18"/>
<text text-anchor="middle" x="1745" y="-99.8" font-family="Times,serif" font-size="14.00">CourseRepo</text>
</g>
<!-- CourseRepo&#45;&gt;AuthorizationReferenceModule -->
<g id="edge9" class="edge">
<title>CourseRepo&#45;&gt;AuthorizationReferenceModule</title>
<path fill="none" stroke="black" d="M1745,-122.22C1745,-140.83 1745,-167 1745,-167 1745,-167 1098.03,-167 1098.03,-167"/>
<polygon fill="black" stroke="black" points="1098.03,-163.5 1088.03,-167 1098.03,-170.5 1098.03,-163.5"/>
</g>
<!-- LegacySchoolRepo -->
<g id="node11" class="node">
<title>LegacySchoolRepo</title>
<ellipse fill="#fdb462" stroke="black" cx="1582" cy="-104" rx="86.82" ry="18"/>
<text text-anchor="middle" x="1582" y="-99.8" font-family="Times,serif" font-size="14.00">LegacySchoolRepo</text>
</g>
<!-- LegacySchoolRepo&#45;&gt;AuthorizationReferenceModule -->
<g id="edge10" class="edge">
<title>LegacySchoolRepo&#45;&gt;AuthorizationReferenceModule</title>
<path fill="none" stroke="black" d="M1582,-122.03C1582,-139.06 1582,-162 1582,-162 1582,-162 1098.26,-162 1098.26,-162"/>
<polygon fill="black" stroke="black" points="1098.26,-158.5 1088.26,-162 1098.26,-165.5 1098.26,-158.5"/>
</g>
<!-- ReferenceLoader -->
<g id="node12" class="node">
<title>ReferenceLoader</title>
<ellipse fill="#fdb462" stroke="black" cx="1400" cy="-104" rx="77.53" ry="18"/>
<text text-anchor="middle" x="1400" y="-99.8" font-family="Times,serif" font-size="14.00">ReferenceLoader</text>
</g>
<!-- ReferenceLoader&#45;&gt;AuthorizationReferenceModule -->
<g id="edge11" class="edge">
<title>ReferenceLoader&#45;&gt;AuthorizationReferenceModule</title>
<path fill="none" stroke="black" d="M1400,-122.24C1400,-137.57 1400,-157 1400,-157 1400,-157 1098.19,-157 1098.19,-157"/>
<polygon fill="black" stroke="black" points="1098.19,-153.5 1088.19,-157 1098.19,-160.5 1098.19,-153.5"/>
</g>
<!-- SchoolExternalToolRepo -->
<g id="node13" class="node">
<title>SchoolExternalToolRepo</title>
<ellipse fill="#fdb462" stroke="black" cx="1195" cy="-104" rx="109.39" ry="18"/>
<text text-anchor="middle" x="1195" y="-99.8" font-family="Times,serif" font-size="14.00">SchoolExternalToolRepo</text>
</g>
<!-- SchoolExternalToolRepo&#45;&gt;AuthorizationReferenceModule -->
<g id="edge12" class="edge">
<title>SchoolExternalToolRepo&#45;&gt;AuthorizationReferenceModule</title>
<path fill="none" stroke="black" d="M1085.54,-104C1079.99,-104 1076.65,-104 1076.65,-104 1076.65,-104 1076.65,-140.89 1076.65,-140.89"/>
<polygon fill="black" stroke="black" points="1073.15,-140.89 1076.65,-150.89 1080.15,-140.89 1073.15,-140.89"/>
</g>
<!-- SubmissionRepo -->
<g id="node14" class="node">
<title>SubmissionRepo</title>
<ellipse fill="#fdb462" stroke="black" cx="991" cy="-104" rx="76.49" ry="18"/>
<text text-anchor="middle" x="991" y="-99.8" font-family="Times,serif" font-size="14.00">SubmissionRepo</text>
</g>
<!-- SubmissionRepo&#45;&gt;AuthorizationReferenceModule -->
<g id="edge13" class="edge">
<title>SubmissionRepo&#45;&gt;AuthorizationReferenceModule</title>
<path fill="none" stroke="black" d="M991,-122.11C991,-122.11 991,-140.99 991,-140.99"/>
<polygon fill="black" stroke="black" points="987.5,-140.99 991,-150.99 994.5,-140.99 987.5,-140.99"/>
</g>
<!-- TaskRepo -->
<g id="node15" class="node">
<title>TaskRepo</title>
<ellipse fill="#fdb462" stroke="black" cx="846" cy="-104" rx="50.38" ry="18"/>
<text text-anchor="middle" x="846" y="-99.8" font-family="Times,serif" font-size="14.00">TaskRepo</text>
</g>
<!-- TaskRepo&#45;&gt;AuthorizationReferenceModule -->
<g id="edge14" class="edge">
<title>TaskRepo&#45;&gt;AuthorizationReferenceModule</title>
<path fill="none" stroke="black" d="M896.33,-104C901.75,-104 905.35,-104 905.35,-104 905.35,-104 905.35,-140.89 905.35,-140.89"/>
<polygon fill="black" stroke="black" points="901.85,-140.89 905.35,-150.89 908.85,-140.89 901.85,-140.89"/>
</g>
<!-- TeamsRepo -->
<g id="node16" class="node">
<title>TeamsRepo</title>
<ellipse fill="#fdb462" stroke="black" cx="721" cy="-104" rx="57.32" ry="18"/>
<text text-anchor="middle" x="721" y="-99.8" font-family="Times,serif" font-size="14.00">TeamsRepo</text>
</g>
<!-- TeamsRepo&#45;&gt;AuthorizationReferenceModule -->
<g id="edge15" class="edge">
<title>TeamsRepo&#45;&gt;AuthorizationReferenceModule</title>
<path fill="none" stroke="black" d="M721,-122.24C721,-137.57 721,-157 721,-157 721,-157 883.91,-157 883.91,-157"/>
<polygon fill="black" stroke="black" points="883.91,-160.5 893.91,-157 883.91,-153.5 883.91,-160.5"/>
</g>
<!-- UserRepo -->
<g id="node17" class="node">
<title>UserRepo</title>
<ellipse fill="#fdb462" stroke="black" cx="596" cy="-104" rx="49.8" ry="18"/>
<text text-anchor="middle" x="596" y="-99.8" font-family="Times,serif" font-size="14.00">UserRepo</text>
</g>
<!-- UserRepo&#45;&gt;AuthorizationReferenceModule -->
<g id="edge16" class="edge">
<title>UserRepo&#45;&gt;AuthorizationReferenceModule</title>
<path fill="none" stroke="black" d="M596,-122.03C596,-139.06 596,-162 596,-162 596,-162 883.87,-162 883.87,-162"/>
<polygon fill="black" stroke="black" points="883.87,-165.5 893.87,-162 883.87,-158.5 883.87,-165.5"/>
</g>
</g>
</svg>
