<?xml version="1.0" encoding="UTF-8" standalone="no"?>
<!DOCTYPE svg PUBLIC "-//W3C//DTD SVG 1.1//EN"
 "http://www.w3.org/Graphics/SVG/1.1/DTD/svg11.dtd">
<!-- Generated by graphviz version 2.47.0 (20210316.0004)
 -->
<!-- Title: dependencies Pages: 1 -->
<svg width="2379pt" height="284pt"
 viewBox="0.00 0.00 2379.00 284.00" xmlns="http://www.w3.org/2000/svg" xmlns:xlink="http://www.w3.org/1999/xlink">
<g id="graph0" class="graph" transform="scale(1 1) rotate(0) translate(4 280)">
<title>dependencies</title>
<polygon fill="white" stroke="transparent" points="-4,4 -4,-280 2375,-280 2375,4 -4,4"/>
<text text-anchor="start" x="1164.51" y="-42.4" font-family="Times-12" font-weight="bold" font-size="14.00">Legend</text>
<polygon fill="#ffffb3" stroke="transparent" points="951.5,-10 951.5,-30 971.5,-30 971.5,-10 951.5,-10"/>
<text text-anchor="start" x="975.13" y="-15.4" font-family="Times-12" font-size="14.00"> &#160;Declarations</text>
<polygon fill="#8dd3c7" stroke="transparent" points="1064.5,-10 1064.5,-30 1084.5,-30 1084.5,-10 1064.5,-10"/>
<text text-anchor="start" x="1088.23" y="-15.4" font-family="Times-12" font-size="14.00"> &#160;Module</text>
<polygon fill="#80b1d3" stroke="transparent" points="1150.5,-10 1150.5,-30 1170.5,-30 1170.5,-10 1150.5,-10"/>
<text text-anchor="start" x="1174.28" y="-15.4" font-family="Times-12" font-size="14.00"> &#160;Bootstrap</text>
<polygon fill="#fdb462" stroke="transparent" points="1247.5,-10 1247.5,-30 1267.5,-30 1267.5,-10 1247.5,-10"/>
<text text-anchor="start" x="1271.17" y="-15.4" font-family="Times-12" font-size="14.00"> &#160;Providers</text>
<polygon fill="#fb8072" stroke="transparent" points="1343.5,-10 1343.5,-30 1363.5,-30 1363.5,-10 1343.5,-10"/>
<text text-anchor="start" x="1367.23" y="-15.4" font-family="Times-12" font-size="14.00"> &#160;Exports</text>
<g id="clust1" class="cluster">
<title>cluster_AuthorizationReferenceModule</title>
<polygon fill="none" stroke="black" stroke-dasharray="1,5" points="8,-70 8,-268 2363,-268 2363,-70 8,-70"/>
</g>
<g id="clust6" class="cluster">
<title>cluster_AuthorizationReferenceModule_providers</title>
<polygon fill="none" stroke="black" points="413,-78 413,-130 2355,-130 2355,-78 413,-78"/>
</g>
<g id="clust3" class="cluster">
<title>cluster_AuthorizationReferenceModule_imports</title>
<polygon fill="none" stroke="black" points="16,-78 16,-130 405,-130 405,-78 16,-78"/>
</g>
<g id="clust4" class="cluster">
<title>cluster_AuthorizationReferenceModule_exports</title>
<polygon fill="none" stroke="black" points="862,-208 862,-260 1074,-260 1074,-208 862,-208"/>
</g>
<!-- AuthorizationModule -->
<g id="node1" class="node">
<title>AuthorizationModule</title>
<polygon fill="#8dd3c7" stroke="black" points="396.81,-122 393.81,-126 372.81,-126 369.81,-122 259.19,-122 259.19,-86 396.81,-86 396.81,-122"/>
<text text-anchor="middle" x="328" y="-99.8" font-family="Times,serif" font-size="14.00">AuthorizationModule</text>
</g>
<!-- AuthorizationReferenceModule -->
<g id="node4" class="node">
<title>AuthorizationReferenceModule</title>
<polygon fill="#8dd3c7" stroke="black" points="1065.04,-187 1062.04,-191 1041.04,-191 1038.04,-187 870.96,-187 870.96,-151 1065.04,-151 1065.04,-187"/>
<text text-anchor="middle" x="968" y="-164.8" font-family="Times,serif" font-size="14.00">AuthorizationReferenceModule</text>
</g>
<!-- AuthorizationModule&#45;&gt;AuthorizationReferenceModule -->
<g id="edge1" class="edge">
<title>AuthorizationModule&#45;&gt;AuthorizationReferenceModule</title>
<path fill="none" stroke="black" d="M328,-122.22C328,-142.37 328,-172 328,-172 328,-172 860.8,-172 860.8,-172"/>
<polygon fill="black" stroke="black" points="860.8,-175.5 870.8,-172 860.8,-168.5 860.8,-175.5"/>
</g>
<!-- LessonModule -->
<g id="node2" class="node">
<title>LessonModule</title>
<polygon fill="#8dd3c7" stroke="black" points="241.71,-122 238.71,-126 217.71,-126 214.71,-122 142.29,-122 142.29,-86 241.71,-86 241.71,-122"/>
<text text-anchor="middle" x="192" y="-99.8" font-family="Times,serif" font-size="14.00">LessonModule</text>
</g>
<!-- LessonModule&#45;&gt;AuthorizationReferenceModule -->
<g id="edge2" class="edge">
<title>LessonModule&#45;&gt;AuthorizationReferenceModule</title>
<path fill="none" stroke="black" d="M192,-122.04C192,-143.66 192,-177 192,-177 192,-177 860.9,-177 860.9,-177"/>
<polygon fill="black" stroke="black" points="860.9,-180.5 870.9,-177 860.9,-173.5 860.9,-180.5"/>
</g>
<!-- LoggerModule -->
<g id="node3" class="node">
<title>LoggerModule</title>
<polygon fill="#8dd3c7" stroke="black" points="123.98,-122 120.98,-126 99.98,-126 96.98,-122 24.02,-122 24.02,-86 123.98,-86 123.98,-122"/>
<text text-anchor="middle" x="74" y="-99.8" font-family="Times,serif" font-size="14.00">LoggerModule</text>
</g>
<!-- LoggerModule&#45;&gt;AuthorizationReferenceModule -->
<g id="edge3" class="edge">
<title>LoggerModule&#45;&gt;AuthorizationReferenceModule</title>
<path fill="none" stroke="black" d="M74,-122.09C74,-145.13 74,-182 74,-182 74,-182 860.62,-182 860.62,-182"/>
<polygon fill="black" stroke="black" points="860.62,-185.5 870.62,-182 860.62,-178.5 860.62,-185.5"/>
</g>
<!-- AuthorizationReferenceService  -->
<g id="node5" class="node">
<title>AuthorizationReferenceService </title>
<polygon fill="#fb8072" stroke="black" points="1065.97,-252 870.03,-252 870.03,-216 1065.97,-216 1065.97,-252"/>
<text text-anchor="middle" x="968" y="-229.8" font-family="Times,serif" font-size="14.00">AuthorizationReferenceService </text>
</g>
<!-- AuthorizationReferenceModule&#45;&gt;AuthorizationReferenceService  -->
<g id="edge4" class="edge">
<title>AuthorizationReferenceModule&#45;&gt;AuthorizationReferenceService </title>
<path fill="none" stroke="black" stroke-dasharray="5,2" d="M968,-187.11C968,-187.11 968,-205.99 968,-205.99"/>
<polygon fill="black" stroke="black" points="964.5,-205.99 968,-215.99 971.5,-205.99 964.5,-205.99"/>
</g>
<!-- AuthorizationHelper -->
<g id="node6" class="node">
<title>AuthorizationHelper</title>
<ellipse fill="#fdb462" stroke="black" cx="2256" cy="-104" rx="90.89" ry="18"/>
<text text-anchor="middle" x="2256" y="-99.8" font-family="Times,serif" font-size="14.00">AuthorizationHelper</text>
</g>
<!-- AuthorizationHelper&#45;&gt;AuthorizationReferenceModule -->
<g id="edge5" class="edge">
<title>AuthorizationHelper&#45;&gt;AuthorizationReferenceModule</title>
<path fill="none" stroke="black" d="M2256,-122.09C2256,-145.13 2256,-182 2256,-182 2256,-182 1075.07,-182 1075.07,-182"/>
<polygon fill="black" stroke="black" points="1075.07,-178.5 1065.07,-182 1075.07,-185.5 1075.07,-178.5"/>
</g>
<!-- AuthorizationReferenceService -->
<g id="node7" class="node">
<title>AuthorizationReferenceService</title>
<ellipse fill="#fdb462" stroke="black" cx="2014" cy="-104" rx="132.52" ry="18"/>
<text text-anchor="middle" x="2014" y="-99.8" font-family="Times,serif" font-size="14.00">AuthorizationReferenceService</text>
</g>
<!-- AuthorizationReferenceService&#45;&gt;AuthorizationReferenceModule -->
<g id="edge6" class="edge">
<title>AuthorizationReferenceService&#45;&gt;AuthorizationReferenceModule</title>
<path fill="none" stroke="black" d="M2014,-122.04C2014,-143.66 2014,-177 2014,-177 2014,-177 1075.47,-177 1075.47,-177"/>
<polygon fill="black" stroke="black" points="1075.47,-173.5 1065.47,-177 1075.47,-180.5 1075.47,-173.5"/>
</g>
<!-- CourseGroupRepo -->
<g id="node8" class="node">
<title>CourseGroupRepo</title>
<ellipse fill="#fdb462" stroke="black" cx="1780" cy="-104" rx="83.39" ry="18"/>
<text text-anchor="middle" x="1780" y="-99.8" font-family="Times,serif" font-size="14.00">CourseGroupRepo</text>
</g>
<!-- CourseGroupRepo&#45;&gt;AuthorizationReferenceModule -->
<g id="edge7" class="edge">
<title>CourseGroupRepo&#45;&gt;AuthorizationReferenceModule</title>
<path fill="none" stroke="black" d="M1780,-122.22C1780,-142.37 1780,-172 1780,-172 1780,-172 1075.14,-172 1075.14,-172"/>
<polygon fill="black" stroke="black" points="1075.14,-168.5 1065.14,-172 1075.14,-175.5 1075.14,-168.5"/>
</g>
<!-- CourseRepo -->
<g id="node9" class="node">
<title>CourseRepo</title>
<ellipse fill="#fdb462" stroke="black" cx="1620" cy="-104" rx="58.55" ry="18"/>
<text text-anchor="middle" x="1620" y="-99.8" font-family="Times,serif" font-size="14.00">CourseRepo</text>
</g>
<!-- CourseRepo&#45;&gt;AuthorizationReferenceModule -->
<g id="edge8" class="edge">
<title>CourseRepo&#45;&gt;AuthorizationReferenceModule</title>
<path fill="none" stroke="black" d="M1620,-122.22C1620,-140.83 1620,-167 1620,-167 1620,-167 1075.26,-167 1075.26,-167"/>
<polygon fill="black" stroke="black" points="1075.26,-163.5 1065.26,-167 1075.26,-170.5 1075.26,-163.5"/>
</g>
<!-- LegacySchoolRepo -->
<g id="node10" class="node">
<title>LegacySchoolRepo</title>
<ellipse fill="#fdb462" stroke="black" cx="1457" cy="-104" rx="86.82" ry="18"/>
<text text-anchor="middle" x="1457" y="-99.8" font-family="Times,serif" font-size="14.00">LegacySchoolRepo</text>
</g>
<!-- LegacySchoolRepo&#45;&gt;AuthorizationReferenceModule -->
<g id="edge9" class="edge">
<title>LegacySchoolRepo&#45;&gt;AuthorizationReferenceModule</title>
<path fill="none" stroke="black" d="M1457,-122.03C1457,-139.06 1457,-162 1457,-162 1457,-162 1075.2,-162 1075.2,-162"/>
<polygon fill="black" stroke="black" points="1075.2,-158.5 1065.2,-162 1075.2,-165.5 1075.2,-158.5"/>
</g>
<!-- ReferenceLoader -->
<g id="node11" class="node">
<title>ReferenceLoader</title>
<ellipse fill="#fdb462" stroke="black" cx="1275" cy="-104" rx="77.53" ry="18"/>
<text text-anchor="middle" x="1275" y="-99.8" font-family="Times,serif" font-size="14.00">ReferenceLoader</text>
</g>
<!-- ReferenceLoader&#45;&gt;AuthorizationReferenceModule -->
<g id="edge10" class="edge">
<title>ReferenceLoader&#45;&gt;AuthorizationReferenceModule</title>
<path fill="none" stroke="black" d="M1275,-122.24C1275,-137.57 1275,-157 1275,-157 1275,-157 1075.14,-157 1075.14,-157"/>
<polygon fill="black" stroke="black" points="1075.14,-153.5 1065.14,-157 1075.14,-160.5 1075.14,-153.5"/>
</g>
<!-- SchoolExternalToolRepo -->
<g id="node12" class="node">
<title>SchoolExternalToolRepo</title>
<ellipse fill="#fdb462" stroke="black" cx="1070" cy="-104" rx="109.39" ry="18"/>
<text text-anchor="middle" x="1070" y="-99.8" font-family="Times,serif" font-size="14.00">SchoolExternalToolRepo</text>
</g>
<!-- SchoolExternalToolRepo&#45;&gt;AuthorizationReferenceModule -->
<g id="edge11" class="edge">
<title>SchoolExternalToolRepo&#45;&gt;AuthorizationReferenceModule</title>
<path fill="none" stroke="black" d="M1012.91,-119.4C1012.91,-119.4 1012.91,-140.94 1012.91,-140.94"/>
<polygon fill="black" stroke="black" points="1009.41,-140.94 1012.91,-150.94 1016.41,-140.94 1009.41,-140.94"/>
</g>
<!-- SubmissionRepo -->
<g id="node13" class="node">
<title>SubmissionRepo</title>
<ellipse fill="#fdb462" stroke="black" cx="866" cy="-104" rx="76.49" ry="18"/>
<text text-anchor="middle" x="866" y="-99.8" font-family="Times,serif" font-size="14.00">SubmissionRepo</text>
</g>
<!-- SubmissionRepo&#45;&gt;AuthorizationReferenceModule -->
<g id="edge12" class="edge">
<title>SubmissionRepo&#45;&gt;AuthorizationReferenceModule</title>
<path fill="none" stroke="black" d="M906.74,-119.4C906.74,-119.4 906.74,-140.94 906.74,-140.94"/>
<polygon fill="black" stroke="black" points="903.24,-140.94 906.74,-150.94 910.24,-140.94 903.24,-140.94"/>
</g>
<!-- TaskRepo -->
<g id="node14" class="node">
<title>TaskRepo</title>
<ellipse fill="#fdb462" stroke="black" cx="721" cy="-104" rx="50.38" ry="18"/>
<text text-anchor="middle" x="721" y="-99.8" font-family="Times,serif" font-size="14.00">TaskRepo</text>
</g>
<!-- TaskRepo&#45;&gt;AuthorizationReferenceModule -->
<g id="edge13" class="edge">
<title>TaskRepo&#45;&gt;AuthorizationReferenceModule</title>
<path fill="none" stroke="black" d="M721,-122.24C721,-137.57 721,-157 721,-157 721,-157 860.73,-157 860.73,-157"/>
<polygon fill="black" stroke="black" points="860.73,-160.5 870.73,-157 860.73,-153.5 860.73,-160.5"/>
</g>
<!-- TeamsRepo -->
<g id="node15" class="node">
<title>TeamsRepo</title>
<ellipse fill="#fdb462" stroke="black" cx="596" cy="-104" rx="57.32" ry="18"/>
<text text-anchor="middle" x="596" y="-99.8" font-family="Times,serif" font-size="14.00">TeamsRepo</text>
</g>
<!-- TeamsRepo&#45;&gt;AuthorizationReferenceModule -->
<g id="edge14" class="edge">
<title>TeamsRepo&#45;&gt;AuthorizationReferenceModule</title>
<path fill="none" stroke="black" d="M596,-122.03C596,-139.06 596,-162 596,-162 596,-162 860.75,-162 860.75,-162"/>
<polygon fill="black" stroke="black" points="860.75,-165.5 870.75,-162 860.75,-158.5 860.75,-165.5"/>
</g>
<!-- UserRepo -->
<g id="node16" class="node">
<title>UserRepo</title>
<ellipse fill="#fdb462" stroke="black" cx="471" cy="-104" rx="49.8" ry="18"/>
<text text-anchor="middle" x="471" y="-99.8" font-family="Times,serif" font-size="14.00">UserRepo</text>
</g>
<!-- UserRepo&#45;&gt;AuthorizationReferenceModule -->
<g id="edge15" class="edge">
<title>UserRepo&#45;&gt;AuthorizationReferenceModule</title>
<path fill="none" stroke="black" d="M471,-122.22C471,-140.83 471,-167 471,-167 471,-167 860.7,-167 860.7,-167"/>
<polygon fill="black" stroke="black" points="860.7,-170.5 870.7,-167 860.7,-163.5 860.7,-170.5"/>
</g>
</g>
</svg>
