<?xml version="1.0" encoding="UTF-8" standalone="no"?>
<!DOCTYPE svg PUBLIC "-//W3C//DTD SVG 1.1//EN"
 "http://www.w3.org/Graphics/SVG/1.1/DTD/svg11.dtd">
<!-- Generated by graphviz version 2.47.0 (20210316.0004)
 -->
<!-- Title: dependencies Pages: 1 -->
<svg width="2504pt" height="284pt"
 viewBox="0.00 0.00 2504.00 284.00" xmlns="http://www.w3.org/2000/svg" xmlns:xlink="http://www.w3.org/1999/xlink">
<g id="graph0" class="graph" transform="scale(1 1) rotate(0) translate(4 280)">
<title>dependencies</title>
<polygon fill="white" stroke="transparent" points="-4,4 -4,-280 2500,-280 2500,4 -4,4"/>
<text text-anchor="start" x="1227.01" y="-42.4" font-family="Times-12" font-weight="bold" font-size="14.00">Legend</text>
<polygon fill="#ffffb3" stroke="transparent" points="1014,-10 1014,-30 1034,-30 1034,-10 1014,-10"/>
<text text-anchor="start" x="1037.63" y="-15.4" font-family="Times-12" font-size="14.00"> &#160;Declarations</text>
<polygon fill="#8dd3c7" stroke="transparent" points="1127,-10 1127,-30 1147,-30 1147,-10 1127,-10"/>
<text text-anchor="start" x="1150.73" y="-15.4" font-family="Times-12" font-size="14.00"> &#160;Module</text>
<polygon fill="#80b1d3" stroke="transparent" points="1213,-10 1213,-30 1233,-30 1233,-10 1213,-10"/>
<text text-anchor="start" x="1236.78" y="-15.4" font-family="Times-12" font-size="14.00"> &#160;Bootstrap</text>
<polygon fill="#fdb462" stroke="transparent" points="1310,-10 1310,-30 1330,-30 1330,-10 1310,-10"/>
<text text-anchor="start" x="1333.67" y="-15.4" font-family="Times-12" font-size="14.00"> &#160;Providers</text>
<polygon fill="#fb8072" stroke="transparent" points="1406,-10 1406,-30 1426,-30 1426,-10 1406,-10"/>
<text text-anchor="start" x="1429.73" y="-15.4" font-family="Times-12" font-size="14.00"> &#160;Exports</text>
<g id="clust1" class="cluster">
<title>cluster_AuthorizationReferenceModule</title>
<polygon fill="none" stroke="black" stroke-dasharray="1,5" points="8,-70 8,-268 2488,-268 2488,-70 8,-70"/>
</g>
<g id="clust4" class="cluster">
<title>cluster_AuthorizationReferenceModule_exports</title>
<polygon fill="none" stroke="black" points="1117,-208 1117,-260 1329,-260 1329,-208 1117,-208"/>
</g>
<g id="clust3" class="cluster">
<title>cluster_AuthorizationReferenceModule_imports</title>
<polygon fill="none" stroke="black" points="1966,-78 1966,-130 2480,-130 2480,-78 1966,-78"/>
</g>
<g id="clust6" class="cluster">
<title>cluster_AuthorizationReferenceModule_providers</title>
<polygon fill="none" stroke="black" points="16,-78 16,-130 1958,-130 1958,-78 16,-78"/>
</g>
<!-- AuthorizationModule -->
<g id="node1" class="node">
<title>AuthorizationModule</title>
<polygon fill="#8dd3c7" stroke="black" points="2471.81,-122 2468.81,-126 2447.81,-126 2444.81,-122 2334.19,-122 2334.19,-86 2471.81,-86 2471.81,-122"/>
<text text-anchor="middle" x="2403" y="-99.8" font-family="Times,serif" font-size="14.00">AuthorizationModule</text>
</g>
<!-- AuthorizationReferenceModule -->
<g id="node5" class="node">
<title>AuthorizationReferenceModule</title>
<polygon fill="#8dd3c7" stroke="black" points="1320.04,-187 1317.04,-191 1296.04,-191 1293.04,-187 1125.96,-187 1125.96,-151 1320.04,-151 1320.04,-187"/>
<text text-anchor="middle" x="1223" y="-164.8" font-family="Times,serif" font-size="14.00">AuthorizationReferenceModule</text>
</g>
<!-- AuthorizationModule&#45;&gt;AuthorizationReferenceModule -->
<g id="edge1" class="edge">
<title>AuthorizationModule&#45;&gt;AuthorizationReferenceModule</title>
<path fill="none" stroke="black" d="M2403,-122.09C2403,-145.13 2403,-182 2403,-182 2403,-182 1330.07,-182 1330.07,-182"/>
<polygon fill="black" stroke="black" points="1330.07,-178.5 1320.07,-182 1330.07,-185.5 1330.07,-178.5"/>
</g>
<!-- InstanceModule -->
<g id="node2" class="node">
<title>InstanceModule</title>
<polygon fill="#8dd3c7" stroke="black" points="2316.19,-122 2313.19,-126 2292.19,-126 2289.19,-122 2209.81,-122 2209.81,-86 2316.19,-86 2316.19,-122"/>
<text text-anchor="middle" x="2263" y="-99.8" font-family="Times,serif" font-size="14.00">InstanceModule</text>
</g>
<!-- InstanceModule&#45;&gt;AuthorizationReferenceModule -->
<g id="edge2" class="edge">
<title>InstanceModule&#45;&gt;AuthorizationReferenceModule</title>
<path fill="none" stroke="black" d="M2263,-122.04C2263,-143.66 2263,-177 2263,-177 2263,-177 1330.37,-177 1330.37,-177"/>
<polygon fill="black" stroke="black" points="1330.37,-173.5 1320.37,-177 1330.37,-180.5 1330.37,-173.5"/>
</g>
<!-- LessonModule -->
<g id="node3" class="node">
<title>LessonModule</title>
<polygon fill="#8dd3c7" stroke="black" points="2191.71,-122 2188.71,-126 2167.71,-126 2164.71,-122 2092.29,-122 2092.29,-86 2191.71,-86 2191.71,-122"/>
<text text-anchor="middle" x="2142" y="-99.8" font-family="Times,serif" font-size="14.00">LessonModule</text>
</g>
<!-- LessonModule&#45;&gt;AuthorizationReferenceModule -->
<g id="edge3" class="edge">
<title>LessonModule&#45;&gt;AuthorizationReferenceModule</title>
<path fill="none" stroke="black" d="M2142,-122.22C2142,-142.37 2142,-172 2142,-172 2142,-172 1330.05,-172 1330.05,-172"/>
<polygon fill="black" stroke="black" points="1330.05,-168.5 1320.05,-172 1330.05,-175.5 1330.05,-168.5"/>
</g>
<!-- LoggerModule -->
<g id="node4" class="node">
<title>LoggerModule</title>
<polygon fill="#8dd3c7" stroke="black" points="2073.98,-122 2070.98,-126 2049.98,-126 2046.98,-122 1974.02,-122 1974.02,-86 2073.98,-86 2073.98,-122"/>
<text text-anchor="middle" x="2024" y="-99.8" font-family="Times,serif" font-size="14.00">LoggerModule</text>
</g>
<!-- LoggerModule&#45;&gt;AuthorizationReferenceModule -->
<g id="edge4" class="edge">
<title>LoggerModule&#45;&gt;AuthorizationReferenceModule</title>
<path fill="none" stroke="black" d="M2024,-122.22C2024,-140.83 2024,-167 2024,-167 2024,-167 1330.42,-167 1330.42,-167"/>
<polygon fill="black" stroke="black" points="1330.42,-163.5 1320.42,-167 1330.42,-170.5 1330.42,-163.5"/>
</g>
<!-- AuthorizationReferenceService  -->
<g id="node6" class="node">
<title>AuthorizationReferenceService </title>
<polygon fill="#fb8072" stroke="black" points="1320.97,-252 1125.03,-252 1125.03,-216 1320.97,-216 1320.97,-252"/>
<text text-anchor="middle" x="1223" y="-229.8" font-family="Times,serif" font-size="14.00">AuthorizationReferenceService </text>
</g>
<!-- AuthorizationReferenceModule&#45;&gt;AuthorizationReferenceService  -->
<g id="edge5" class="edge">
<title>AuthorizationReferenceModule&#45;&gt;AuthorizationReferenceService </title>
<path fill="none" stroke="black" stroke-dasharray="5,2" d="M1223,-187.11C1223,-187.11 1223,-205.99 1223,-205.99"/>
<polygon fill="black" stroke="black" points="1219.5,-205.99 1223,-215.99 1226.5,-205.99 1219.5,-205.99"/>
</g>
<!-- AuthorizationHelper -->
<g id="node7" class="node">
<title>AuthorizationHelper</title>
<ellipse fill="#fdb462" stroke="black" cx="1859" cy="-104" rx="90.89" ry="18"/>
<text text-anchor="middle" x="1859" y="-99.8" font-family="Times,serif" font-size="14.00">AuthorizationHelper</text>
</g>
<!-- AuthorizationHelper&#45;&gt;AuthorizationReferenceModule -->
<g id="edge6" class="edge">
<title>AuthorizationHelper&#45;&gt;AuthorizationReferenceModule</title>
<path fill="none" stroke="black" d="M1859,-122.03C1859,-139.06 1859,-162 1859,-162 1859,-162 1330.29,-162 1330.29,-162"/>
<polygon fill="black" stroke="black" points="1330.29,-158.5 1320.29,-162 1330.29,-165.5 1330.29,-158.5"/>
</g>
<!-- AuthorizationReferenceService -->
<g id="node8" class="node">
<title>AuthorizationReferenceService</title>
<ellipse fill="#fdb462" stroke="black" cx="1617" cy="-104" rx="132.52" ry="18"/>
<text text-anchor="middle" x="1617" y="-99.8" font-family="Times,serif" font-size="14.00">AuthorizationReferenceService</text>
</g>
<!-- AuthorizationReferenceService&#45;&gt;AuthorizationReferenceModule -->
<g id="edge7" class="edge">
<title>AuthorizationReferenceService&#45;&gt;AuthorizationReferenceModule</title>
<path fill="none" stroke="black" d="M1617,-122.24C1617,-137.57 1617,-157 1617,-157 1617,-157 1330.14,-157 1330.14,-157"/>
<polygon fill="black" stroke="black" points="1330.14,-153.5 1320.14,-157 1330.14,-160.5 1330.14,-153.5"/>
</g>
<!-- CourseGroupRepo -->
<g id="node9" class="node">
<title>CourseGroupRepo</title>
<ellipse fill="#fdb462" stroke="black" cx="1383" cy="-104" rx="83.39" ry="18"/>
<text text-anchor="middle" x="1383" y="-99.8" font-family="Times,serif" font-size="14.00">CourseGroupRepo</text>
</g>
<!-- CourseGroupRepo&#45;&gt;AuthorizationReferenceModule -->
<g id="edge8" class="edge">
<title>CourseGroupRepo&#45;&gt;AuthorizationReferenceModule</title>
<path fill="none" stroke="black" d="M1309.79,-112.77C1309.79,-112.77 1309.79,-140.8 1309.79,-140.8"/>
<polygon fill="black" stroke="black" points="1306.29,-140.8 1309.79,-150.8 1313.29,-140.8 1306.29,-140.8"/>
</g>
<!-- CourseRepo -->
<g id="node10" class="node">
<title>CourseRepo</title>
<ellipse fill="#fdb462" stroke="black" cx="1223" cy="-104" rx="58.55" ry="18"/>
<text text-anchor="middle" x="1223" y="-99.8" font-family="Times,serif" font-size="14.00">CourseRepo</text>
</g>
<!-- CourseRepo&#45;&gt;AuthorizationReferenceModule -->
<g id="edge9" class="edge">
<title>CourseRepo&#45;&gt;AuthorizationReferenceModule</title>
<path fill="none" stroke="black" d="M1223,-122.11C1223,-122.11 1223,-140.99 1223,-140.99"/>
<polygon fill="black" stroke="black" points="1219.5,-140.99 1223,-150.99 1226.5,-140.99 1219.5,-140.99"/>
</g>
<!-- LegacySchoolRepo -->
<g id="node11" class="node">
<title>LegacySchoolRepo</title>
<ellipse fill="#fdb462" stroke="black" cx="1060" cy="-104" rx="86.82" ry="18"/>
<text text-anchor="middle" x="1060" y="-99.8" font-family="Times,serif" font-size="14.00">LegacySchoolRepo</text>
</g>
<!-- LegacySchoolRepo&#45;&gt;AuthorizationReferenceModule -->
<g id="edge10" class="edge">
<title>LegacySchoolRepo&#45;&gt;AuthorizationReferenceModule</title>
<path fill="none" stroke="black" d="M1136.32,-112.77C1136.32,-112.77 1136.32,-140.8 1136.32,-140.8"/>
<polygon fill="black" stroke="black" points="1132.82,-140.8 1136.32,-150.8 1139.82,-140.8 1132.82,-140.8"/>
</g>
<!-- ReferenceLoader -->
<g id="node12" class="node">
<title>ReferenceLoader</title>
<ellipse fill="#fdb462" stroke="black" cx="878" cy="-104" rx="77.53" ry="18"/>
<text text-anchor="middle" x="878" y="-99.8" font-family="Times,serif" font-size="14.00">ReferenceLoader</text>
</g>
<!-- ReferenceLoader&#45;&gt;AuthorizationReferenceModule -->
<g id="edge11" class="edge">
<title>ReferenceLoader&#45;&gt;AuthorizationReferenceModule</title>
<path fill="none" stroke="black" d="M878,-122.24C878,-137.57 878,-157 878,-157 878,-157 1115.98,-157 1115.98,-157"/>
<polygon fill="black" stroke="black" points="1115.98,-160.5 1125.98,-157 1115.98,-153.5 1115.98,-160.5"/>
</g>
<!-- SchoolExternalToolRepo -->
<g id="node13" class="node">
<title>SchoolExternalToolRepo</title>
<ellipse fill="#fdb462" stroke="black" cx="673" cy="-104" rx="109.39" ry="18"/>
<text text-anchor="middle" x="673" y="-99.8" font-family="Times,serif" font-size="14.00">SchoolExternalToolRepo</text>
</g>
<!-- SchoolExternalToolRepo&#45;&gt;AuthorizationReferenceModule -->
<g id="edge12" class="edge">
<title>SchoolExternalToolRepo&#45;&gt;AuthorizationReferenceModule</title>
<path fill="none" stroke="black" d="M673,-122.03C673,-139.06 673,-162 673,-162 673,-162 1115.94,-162 1115.94,-162"/>
<polygon fill="black" stroke="black" points="1115.94,-165.5 1125.94,-162 1115.94,-158.5 1115.94,-165.5"/>
</g>
<!-- SubmissionRepo -->
<g id="node14" class="node">
<title>SubmissionRepo</title>
<ellipse fill="#fdb462" stroke="black" cx="469" cy="-104" rx="76.49" ry="18"/>
<text text-anchor="middle" x="469" y="-99.8" font-family="Times,serif" font-size="14.00">SubmissionRepo</text>
</g>
<!-- SubmissionRepo&#45;&gt;AuthorizationReferenceModule -->
<g id="edge13" class="edge">
<title>SubmissionRepo&#45;&gt;AuthorizationReferenceModule</title>
<path fill="none" stroke="black" d="M469,-122.22C469,-140.83 469,-167 469,-167 469,-167 1115.97,-167 1115.97,-167"/>
<polygon fill="black" stroke="black" points="1115.97,-170.5 1125.97,-167 1115.97,-163.5 1115.97,-170.5"/>
</g>
<!-- TaskRepo -->
<g id="node15" class="node">
<title>TaskRepo</title>
<ellipse fill="#fdb462" stroke="black" cx="324" cy="-104" rx="50.38" ry="18"/>
<text text-anchor="middle" x="324" y="-99.8" font-family="Times,serif" font-size="14.00">TaskRepo</text>
</g>
<!-- TaskRepo&#45;&gt;AuthorizationReferenceModule -->
<g id="edge14" class="edge">
<title>TaskRepo&#45;&gt;AuthorizationReferenceModule</title>
<path fill="none" stroke="black" d="M324,-122.22C324,-142.37 324,-172 324,-172 324,-172 1115.94,-172 1115.94,-172"/>
<polygon fill="black" stroke="black" points="1115.94,-175.5 1125.94,-172 1115.94,-168.5 1115.94,-175.5"/>
</g>
<!-- TeamsRepo -->
<g id="node16" class="node">
<title>TeamsRepo</title>
<ellipse fill="#fdb462" stroke="black" cx="199" cy="-104" rx="57.32" ry="18"/>
<text text-anchor="middle" x="199" y="-99.8" font-family="Times,serif" font-size="14.00">TeamsRepo</text>
</g>
<!-- TeamsRepo&#45;&gt;AuthorizationReferenceModule -->
<g id="edge15" class="edge">
<title>TeamsRepo&#45;&gt;AuthorizationReferenceModule</title>
<path fill="none" stroke="black" d="M199,-122.04C199,-143.66 199,-177 199,-177 199,-177 1115.74,-177 1115.74,-177"/>
<polygon fill="black" stroke="black" points="1115.74,-180.5 1125.74,-177 1115.74,-173.5 1115.74,-180.5"/>
</g>
<!-- UserRepo -->
<g id="node17" class="node">
<title>UserRepo</title>
<ellipse fill="#fdb462" stroke="black" cx="74" cy="-104" rx="49.8" ry="18"/>
<text text-anchor="middle" x="74" y="-99.8" font-family="Times,serif" font-size="14.00">UserRepo</text>
</g>
<!-- UserRepo&#45;&gt;AuthorizationReferenceModule -->
<g id="edge16" class="edge">
<title>UserRepo&#45;&gt;AuthorizationReferenceModule</title>
<path fill="none" stroke="black" d="M74,-122.09C74,-145.13 74,-182 74,-182 74,-182 1115.53,-182 1115.53,-182"/>
<polygon fill="black" stroke="black" points="1115.53,-185.5 1125.53,-182 1115.53,-178.5 1115.53,-185.5"/>
</g>
</g>
</svg>
