<?xml version="1.0" encoding="UTF-8" standalone="no"?>
<!DOCTYPE svg PUBLIC "-//W3C//DTD SVG 1.1//EN"
 "http://www.w3.org/Graphics/SVG/1.1/DTD/svg11.dtd">
<!-- Generated by graphviz version 2.47.0 (20210316.0004)
 -->
<!-- Title: dependencies Pages: 1 -->
<svg width="558pt" height="211pt"
 viewBox="0.00 0.00 558.00 211.00" xmlns="http://www.w3.org/2000/svg" xmlns:xlink="http://www.w3.org/1999/xlink">
<g id="graph0" class="graph" transform="scale(1 1) rotate(0) translate(4 207)">
<title>dependencies</title>
<polygon fill="white" stroke="transparent" points="-4,4 -4,-207 554,-207 554,4 -4,4"/>
<text text-anchor="start" x="254.01" y="-42.4" font-family="Times-12" font-weight="bold" font-size="14.00">Legend</text>
<polygon fill="#ffffb3" stroke="transparent" points="41,-10 41,-30 61,-30 61,-10 41,-10"/>
<text text-anchor="start" x="64.63" y="-15.4" font-family="Times-12" font-size="14.00"> &#160;Declarations</text>
<polygon fill="#8dd3c7" stroke="transparent" points="154,-10 154,-30 174,-30 174,-10 154,-10"/>
<text text-anchor="start" x="177.73" y="-15.4" font-family="Times-12" font-size="14.00"> &#160;Module</text>
<polygon fill="#80b1d3" stroke="transparent" points="240,-10 240,-30 260,-30 260,-10 240,-10"/>
<text text-anchor="start" x="263.78" y="-15.4" font-family="Times-12" font-size="14.00"> &#160;Bootstrap</text>
<polygon fill="#fdb462" stroke="transparent" points="337,-10 337,-30 357,-30 357,-10 337,-10"/>
<text text-anchor="start" x="360.67" y="-15.4" font-family="Times-12" font-size="14.00"> &#160;Providers</text>
<polygon fill="#fb8072" stroke="transparent" points="433,-10 433,-30 453,-30 453,-10 433,-10"/>
<text text-anchor="start" x="456.73" y="-15.4" font-family="Times-12" font-size="14.00"> &#160;Exports</text>
<g id="clust1" class="cluster">
<title>cluster_UserAdminApiModule</title>
<polygon fill="none" stroke="black" stroke-dasharray="1,5" points="8,-70 8,-195 542,-195 542,-70 8,-70"/>
</g>
<g id="clust6" class="cluster">
<title>cluster_UserAdminApiModule_providers</title>
<polygon fill="none" stroke="black" points="354,-78 354,-130 534,-130 534,-78 354,-78"/>
</g>
<g id="clust3" class="cluster">
<title>cluster_UserAdminApiModule_imports</title>
<polygon fill="none" stroke="black" points="16,-78 16,-130 346,-130 346,-78 16,-78"/>
</g>
<!-- AccountModule -->
<g id="node1" class="node">
<title>AccountModule</title>
<polygon fill="#8dd3c7" stroke="black" points="338.48,-122 335.48,-126 314.48,-126 311.48,-122 231.52,-122 231.52,-86 338.48,-86 338.48,-122"/>
<text text-anchor="middle" x="285" y="-99.8" font-family="Times,serif" font-size="14.00">AccountModule</text>
</g>
<!-- UserAdminApiModule -->
<g id="node4" class="node">
<title>UserAdminApiModule</title>
<polygon fill="#8dd3c7" stroke="black" points="300.86,-187 297.86,-191 276.86,-191 273.86,-187 155.14,-187 155.14,-151 300.86,-151 300.86,-187"/>
<text text-anchor="middle" x="228" y="-164.8" font-family="Times,serif" font-size="14.00">UserAdminApiModule</text>
</g>
<!-- AccountModule&#45;&gt;UserAdminApiModule -->
<g id="edge1" class="edge">
<title>AccountModule&#45;&gt;UserAdminApiModule</title>
<path fill="none" stroke="black" d="M266.22,-122.11C266.22,-122.11 266.22,-140.99 266.22,-140.99"/>
<polygon fill="black" stroke="black" points="262.72,-140.99 266.22,-150.99 269.72,-140.99 262.72,-140.99"/>
</g>
<!-- RoleModule -->
<g id="node2" class="node">
<title>RoleModule</title>
<polygon fill="#8dd3c7" stroke="black" points="213.99,-122 210.99,-126 189.99,-126 186.99,-122 128.01,-122 128.01,-86 213.99,-86 213.99,-122"/>
<text text-anchor="middle" x="171" y="-99.8" font-family="Times,serif" font-size="14.00">RoleModule</text>
</g>
<!-- RoleModule&#45;&gt;UserAdminApiModule -->
<g id="edge2" class="edge">
<title>RoleModule&#45;&gt;UserAdminApiModule</title>
<path fill="none" stroke="black" d="M184.53,-122.11C184.53,-122.11 184.53,-140.99 184.53,-140.99"/>
<polygon fill="black" stroke="black" points="181.03,-140.99 184.53,-150.99 188.03,-140.99 181.03,-140.99"/>
</g>
<!-- UserModule -->
<g id="node3" class="node">
<title>UserModule</title>
<polygon fill="#8dd3c7" stroke="black" points="109.98,-122 106.98,-126 85.98,-126 82.98,-122 24.02,-122 24.02,-86 109.98,-86 109.98,-122"/>
<text text-anchor="middle" x="67" y="-99.8" font-family="Times,serif" font-size="14.00">UserModule</text>
</g>
<!-- UserModule&#45;&gt;UserAdminApiModule -->
<g id="edge3" class="edge">
<title>UserModule&#45;&gt;UserAdminApiModule</title>
<path fill="none" stroke="black" d="M67,-122.11C67,-141.34 67,-169 67,-169 67,-169 145.04,-169 145.04,-169"/>
<polygon fill="black" stroke="black" points="145.04,-172.5 155.04,-169 145.04,-165.5 145.04,-172.5"/>
</g>
<!-- AdminApiUserUc -->
<g id="node5" class="node">
<title>AdminApiUserUc</title>
<ellipse fill="#fdb462" stroke="black" cx="444" cy="-104" rx="81.66" ry="18"/>
<text text-anchor="middle" x="444" y="-99.8" font-family="Times,serif" font-size="14.00">AdminApiUserUc</text>
</g>
<!-- AdminApiUserUc&#45;&gt;UserAdminApiModule -->
<g id="edge4" class="edge">
<title>AdminApiUserUc&#45;&gt;UserAdminApiModule</title>
<path fill="none" stroke="black" d="M444,-122.11C444,-141.34 444,-169 444,-169 444,-169 311.13,-169 311.13,-169"/>
<polygon fill="black" stroke="black" points="311.13,-165.5 301.13,-169 311.13,-172.5 311.13,-165.5"/>
</g>
</g>
</svg>
