<?xml version="1.0" encoding="UTF-8" standalone="no"?>
<!DOCTYPE svg PUBLIC "-//W3C//DTD SVG 1.1//EN"
 "http://www.w3.org/Graphics/SVG/1.1/DTD/svg11.dtd">
<!-- Generated by graphviz version 2.47.0 (20210316.0004)
 -->
<!-- Title: dependencies Pages: 1 -->
<svg width="558pt" height="211pt"
 viewBox="0.00 0.00 558.00 211.00" xmlns="http://www.w3.org/2000/svg" xmlns:xlink="http://www.w3.org/1999/xlink">
<g id="graph0" class="graph" transform="scale(1 1) rotate(0) translate(4 207)">
<title>dependencies</title>
<polygon fill="white" stroke="transparent" points="-4,4 -4,-207 554,-207 554,4 -4,4"/>
<text text-anchor="start" x="254.01" y="-42.4" font-family="Times-12" font-weight="bold" font-size="14.00">Legend</text>
<polygon fill="#ffffb3" stroke="transparent" points="41,-10 41,-30 61,-30 61,-10 41,-10"/>
<text text-anchor="start" x="64.63" y="-15.4" font-family="Times-12" font-size="14.00"> &#160;Declarations</text>
<polygon fill="#8dd3c7" stroke="transparent" points="154,-10 154,-30 174,-30 174,-10 154,-10"/>
<text text-anchor="start" x="177.73" y="-15.4" font-family="Times-12" font-size="14.00"> &#160;Module</text>
<polygon fill="#80b1d3" stroke="transparent" points="240,-10 240,-30 260,-30 260,-10 240,-10"/>
<text text-anchor="start" x="263.78" y="-15.4" font-family="Times-12" font-size="14.00"> &#160;Bootstrap</text>
<polygon fill="#fdb462" stroke="transparent" points="337,-10 337,-30 357,-30 357,-10 337,-10"/>
<text text-anchor="start" x="360.67" y="-15.4" font-family="Times-12" font-size="14.00"> &#160;Providers</text>
<polygon fill="#fb8072" stroke="transparent" points="433,-10 433,-30 453,-30 453,-10 433,-10"/>
<text text-anchor="start" x="456.73" y="-15.4" font-family="Times-12" font-size="14.00"> &#160;Exports</text>
<g id="clust1" class="cluster">
<title>cluster_UserAdminApiModule</title>
<polygon fill="none" stroke="black" stroke-dasharray="1,5" points="8,-70 8,-195 542,-195 542,-70 8,-70"/>
</g>
<g id="clust3" class="cluster">
<title>cluster_UserAdminApiModule_imports</title>
<polygon fill="none" stroke="black" points="204,-78 204,-130 534,-130 534,-78 204,-78"/>
</g>
<g id="clust6" class="cluster">
<title>cluster_UserAdminApiModule_providers</title>
<polygon fill="none" stroke="black" points="16,-78 16,-130 196,-130 196,-78 16,-78"/>
</g>
<!-- AccountModule -->
<g id="node1" class="node">
<title>AccountModule</title>
<polygon fill="#8dd3c7" stroke="black" points="526.48,-122 523.48,-126 502.48,-126 499.48,-122 419.52,-122 419.52,-86 526.48,-86 526.48,-122"/>
<text text-anchor="middle" x="473" y="-99.8" font-family="Times,serif" font-size="14.00">AccountModule</text>
</g>
<!-- UserAdminApiModule -->
<g id="node4" class="node">
<title>UserAdminApiModule</title>
<polygon fill="#8dd3c7" stroke="black" points="379.86,-187 376.86,-191 355.86,-191 352.86,-187 234.14,-187 234.14,-151 379.86,-151 379.86,-187"/>
<text text-anchor="middle" x="307" y="-164.8" font-family="Times,serif" font-size="14.00">UserAdminApiModule</text>
</g>
<!-- AccountModule&#45;&gt;UserAdminApiModule -->
<g id="edge1" class="edge">
<title>AccountModule&#45;&gt;UserAdminApiModule</title>
<path fill="none" stroke="black" d="M473,-122.11C473,-141.34 473,-169 473,-169 473,-169 390.29,-169 390.29,-169"/>
<polygon fill="black" stroke="black" points="390.29,-165.5 380.29,-169 390.29,-172.5 390.29,-165.5"/>
</g>
<!-- RoleModule -->
<g id="node2" class="node">
<title>RoleModule</title>
<polygon fill="#8dd3c7" stroke="black" points="401.99,-122 398.99,-126 377.99,-126 374.99,-122 316.01,-122 316.01,-86 401.99,-86 401.99,-122"/>
<text text-anchor="middle" x="359" y="-99.8" font-family="Times,serif" font-size="14.00">RoleModule</text>
</g>
<!-- RoleModule&#45;&gt;UserAdminApiModule -->
<g id="edge2" class="edge">
<title>RoleModule&#45;&gt;UserAdminApiModule</title>
<path fill="none" stroke="black" d="M347.97,-122.11C347.97,-122.11 347.97,-140.99 347.97,-140.99"/>
<polygon fill="black" stroke="black" points="344.47,-140.99 347.97,-150.99 351.47,-140.99 344.47,-140.99"/>
</g>
<!-- UserModule -->
<g id="node3" class="node">
<title>UserModule</title>
<polygon fill="#8dd3c7" stroke="black" points="297.98,-122 294.98,-126 273.98,-126 270.98,-122 212.02,-122 212.02,-86 297.98,-86 297.98,-122"/>
<text text-anchor="middle" x="255" y="-99.8" font-family="Times,serif" font-size="14.00">UserModule</text>
</g>
<!-- UserModule&#45;&gt;UserAdminApiModule -->
<g id="edge3" class="edge">
<title>UserModule&#45;&gt;UserAdminApiModule</title>
<path fill="none" stroke="black" d="M266.03,-122.11C266.03,-122.11 266.03,-140.99 266.03,-140.99"/>
<polygon fill="black" stroke="black" points="262.53,-140.99 266.03,-150.99 269.53,-140.99 262.53,-140.99"/>
</g>
<!-- AdminApiUserUc -->
<g id="node5" class="node">
<title>AdminApiUserUc</title>
<ellipse fill="#fdb462" stroke="black" cx="106" cy="-104" rx="81.66" ry="18"/>
<text text-anchor="middle" x="106" y="-99.8" font-family="Times,serif" font-size="14.00">AdminApiUserUc</text>
</g>
<!-- AdminApiUserUc&#45;&gt;UserAdminApiModule -->
<g id="edge4" class="edge">
<title>AdminApiUserUc&#45;&gt;UserAdminApiModule</title>
<path fill="none" stroke="black" d="M106,-122.11C106,-141.34 106,-169 106,-169 106,-169 223.87,-169 223.87,-169"/>
<polygon fill="black" stroke="black" points="223.87,-172.5 233.87,-169 223.87,-165.5 223.87,-172.5"/>
</g>
</g>
</svg>
