<?xml version="1.0" encoding="UTF-8" standalone="no"?>
<!DOCTYPE svg PUBLIC "-//W3C//DTD SVG 1.1//EN"
 "http://www.w3.org/Graphics/SVG/1.1/DTD/svg11.dtd">
<!-- Generated by graphviz version 2.47.0 (20210316.0004)
 -->
<!-- Title: dependencies Pages: 1 -->
<svg width="504pt" height="284pt"
 viewBox="0.00 0.00 504.00 284.00" xmlns="http://www.w3.org/2000/svg" xmlns:xlink="http://www.w3.org/1999/xlink">
<g id="graph0" class="graph" transform="scale(1 1) rotate(0) translate(4 280)">
<title>dependencies</title>
<polygon fill="white" stroke="transparent" points="-4,4 -4,-280 500,-280 500,4 -4,4"/>
<text text-anchor="start" x="227.01" y="-42.4" font-family="Times-12" font-weight="bold" font-size="14.00">Legend</text>
<polygon fill="#ffffb3" stroke="transparent" points="14,-10 14,-30 34,-30 34,-10 14,-10"/>
<text text-anchor="start" x="37.63" y="-15.4" font-family="Times-12" font-size="14.00"> &#160;Declarations</text>
<polygon fill="#8dd3c7" stroke="transparent" points="127,-10 127,-30 147,-30 147,-10 127,-10"/>
<text text-anchor="start" x="150.73" y="-15.4" font-family="Times-12" font-size="14.00"> &#160;Module</text>
<polygon fill="#80b1d3" stroke="transparent" points="213,-10 213,-30 233,-30 233,-10 213,-10"/>
<text text-anchor="start" x="236.78" y="-15.4" font-family="Times-12" font-size="14.00"> &#160;Bootstrap</text>
<polygon fill="#fdb462" stroke="transparent" points="310,-10 310,-30 330,-30 330,-10 310,-10"/>
<text text-anchor="start" x="333.67" y="-15.4" font-family="Times-12" font-size="14.00"> &#160;Providers</text>
<polygon fill="#fb8072" stroke="transparent" points="406,-10 406,-30 426,-30 426,-10 406,-10"/>
<text text-anchor="start" x="429.73" y="-15.4" font-family="Times-12" font-size="14.00"> &#160;Exports</text>
<g id="clust1" class="cluster">
<title>cluster_RoleModule</title>
<polygon fill="none" stroke="black" stroke-dasharray="1,5" points="65,-70 65,-268 431,-268 431,-70 65,-70"/>
</g>
<g id="clust4" class="cluster">
<title>cluster_RoleModule_exports</title>
<polygon fill="none" stroke="black" points="107,-208 107,-260 385,-260 385,-208 107,-208"/>
</g>
<g id="clust6" class="cluster">
<title>cluster_RoleModule_providers</title>
<polygon fill="none" stroke="black" points="73,-78 73,-130 423,-130 423,-78 73,-78"/>
</g>
<!-- RoleRepo  -->
<g id="node1" class="node">
<title>RoleRepo </title>
<polygon fill="#fb8072" stroke="black" points="376.99,-252 301.01,-252 301.01,-216 376.99,-216 376.99,-252"/>
<text text-anchor="middle" x="339" y="-229.8" font-family="Times,serif" font-size="14.00">RoleRepo </text>
</g>
<!-- RoleService  -->
<g id="node2" class="node">
<title>RoleService </title>
<polygon fill="#fb8072" stroke="black" points="282.92,-252 195.08,-252 195.08,-216 282.92,-216 282.92,-252"/>
<text text-anchor="middle" x="239" y="-229.8" font-family="Times,serif" font-size="14.00">RoleService </text>
</g>
<!-- RoleUc  -->
<g id="node3" class="node">
<title>RoleUc </title>
<polygon fill="#fb8072" stroke="black" points="177.26,-252 114.74,-252 114.74,-216 177.26,-216 177.26,-252"/>
<text text-anchor="middle" x="146" y="-229.8" font-family="Times,serif" font-size="14.00">RoleUc </text>
</g>
<!-- RoleModule -->
<g id="node4" class="node">
<title>RoleModule</title>
<polygon fill="#8dd3c7" stroke="black" points="281.99,-187 278.99,-191 257.99,-191 254.99,-187 196.01,-187 196.01,-151 281.99,-151 281.99,-187"/>
<text text-anchor="middle" x="239" y="-164.8" font-family="Times,serif" font-size="14.00">RoleModule</text>
</g>
<!-- RoleModule&#45;&gt;RoleRepo  -->
<g id="edge1" class="edge">
<title>RoleModule&#45;&gt;RoleRepo </title>
<path fill="none" stroke="black" stroke-dasharray="5,2" d="M282.1,-175C296.19,-175 308.3,-175 308.3,-175 308.3,-175 308.3,-205.98 308.3,-205.98"/>
<polygon fill="black" stroke="black" points="304.8,-205.98 308.3,-215.98 311.8,-205.98 304.8,-205.98"/>
</g>
<!-- RoleModule&#45;&gt;RoleService  -->
<g id="edge2" class="edge">
<title>RoleModule&#45;&gt;RoleService </title>
<path fill="none" stroke="black" stroke-dasharray="5,2" d="M239,-187.11C239,-187.11 239,-205.99 239,-205.99"/>
<polygon fill="black" stroke="black" points="235.5,-205.99 239,-215.99 242.5,-205.99 235.5,-205.99"/>
</g>
<!-- RoleModule&#45;&gt;RoleUc  -->
<g id="edge3" class="edge">
<title>RoleModule&#45;&gt;RoleUc </title>
<path fill="none" stroke="black" stroke-dasharray="5,2" d="M195.98,-175C181.92,-175 169.83,-175 169.83,-175 169.83,-175 169.83,-205.98 169.83,-205.98"/>
<polygon fill="black" stroke="black" points="166.33,-205.98 169.83,-215.98 173.33,-205.98 166.33,-205.98"/>
</g>
<!-- RoleRepo -->
<g id="node5" class="node">
<title>RoleRepo</title>
<ellipse fill="#fdb462" stroke="black" cx="365" cy="-104" rx="49.82" ry="18"/>
<text text-anchor="middle" x="365" y="-99.8" font-family="Times,serif" font-size="14.00">RoleRepo</text>
</g>
<!-- RoleRepo&#45;&gt;RoleModule -->
<g id="edge4" class="edge">
<title>RoleRepo&#45;&gt;RoleModule</title>
<path fill="none" stroke="black" d="M346.04,-120.75C346.04,-138.19 346.04,-163 346.04,-163 346.04,-163 292.23,-163 292.23,-163"/>
<polygon fill="black" stroke="black" points="292.23,-159.5 282.23,-163 292.23,-166.5 292.23,-159.5"/>
</g>
<!-- RoleService -->
<g id="node6" class="node">
<title>RoleService</title>
<ellipse fill="#fdb462" stroke="black" cx="239" cy="-104" rx="58.46" ry="18"/>
<text text-anchor="middle" x="239" y="-99.8" font-family="Times,serif" font-size="14.00">RoleService</text>
</g>
<!-- RoleService&#45;&gt;RoleModule -->
<g id="edge5" class="edge">
<title>RoleService&#45;&gt;RoleModule</title>
<path fill="none" stroke="black" d="M239,-122.11C239,-122.11 239,-140.99 239,-140.99"/>
<polygon fill="black" stroke="black" points="235.5,-140.99 239,-150.99 242.5,-140.99 235.5,-140.99"/>
</g>
<!-- RoleUc -->
<g id="node7" class="node">
<title>RoleUc</title>
<ellipse fill="#fdb462" stroke="black" cx="122" cy="-104" rx="40.57" ry="18"/>
<text text-anchor="middle" x="122" y="-99.8" font-family="Times,serif" font-size="14.00">RoleUc</text>
</g>
<!-- RoleUc&#45;&gt;RoleModule -->
<g id="edge6" class="edge">
<title>RoleUc&#45;&gt;RoleModule</title>
<path fill="none" stroke="black" d="M138.7,-120.43C138.7,-137.89 138.7,-163 138.7,-163 138.7,-163 185.88,-163 185.88,-163"/>
<polygon fill="black" stroke="black" points="185.88,-166.5 195.88,-163 185.88,-159.5 185.88,-166.5"/>
</g>
</g>
</svg>
