<?xml version="1.0" encoding="UTF-8" standalone="no"?>
<!DOCTYPE svg PUBLIC "-//W3C//DTD SVG 1.1//EN"
 "http://www.w3.org/Graphics/SVG/1.1/DTD/svg11.dtd">
<!-- Generated by graphviz version 2.47.0 (20210316.0004)
 -->
<!-- Title: dependencies Pages: 1 -->
<svg width="504pt" height="211pt"
 viewBox="0.00 0.00 504.00 211.00" xmlns="http://www.w3.org/2000/svg" xmlns:xlink="http://www.w3.org/1999/xlink">
<g id="graph0" class="graph" transform="scale(1 1) rotate(0) translate(4 207)">
<title>dependencies</title>
<polygon fill="white" stroke="transparent" points="-4,4 -4,-207 500,-207 500,4 -4,4"/>
<text text-anchor="start" x="227.01" y="-42.4" font-family="Times-12" font-weight="bold" font-size="14.00">Legend</text>
<polygon fill="#ffffb3" stroke="transparent" points="14,-10 14,-30 34,-30 34,-10 14,-10"/>
<text text-anchor="start" x="37.63" y="-15.4" font-family="Times-12" font-size="14.00"> &#160;Declarations</text>
<polygon fill="#8dd3c7" stroke="transparent" points="127,-10 127,-30 147,-30 147,-10 127,-10"/>
<text text-anchor="start" x="150.73" y="-15.4" font-family="Times-12" font-size="14.00"> &#160;Module</text>
<polygon fill="#80b1d3" stroke="transparent" points="213,-10 213,-30 233,-30 233,-10 213,-10"/>
<text text-anchor="start" x="236.78" y="-15.4" font-family="Times-12" font-size="14.00"> &#160;Bootstrap</text>
<polygon fill="#fdb462" stroke="transparent" points="310,-10 310,-30 330,-30 330,-10 310,-10"/>
<text text-anchor="start" x="333.67" y="-15.4" font-family="Times-12" font-size="14.00"> &#160;Providers</text>
<polygon fill="#fb8072" stroke="transparent" points="406,-10 406,-30 426,-30 426,-10 406,-10"/>
<text text-anchor="start" x="429.73" y="-15.4" font-family="Times-12" font-size="14.00"> &#160;Exports</text>
<g id="clust1" class="cluster">
<title>cluster_OauthApiModule</title>
<polygon fill="none" stroke="black" stroke-dasharray="1,5" points="44,-70 44,-195 452,-195 452,-70 44,-70"/>
</g>
<g id="clust6" class="cluster">
<title>cluster_OauthApiModule_providers</title>
<polygon fill="none" stroke="black" points="288,-78 288,-130 444,-130 444,-78 288,-78"/>
</g>
<g id="clust3" class="cluster">
<title>cluster_OauthApiModule_imports</title>
<polygon fill="none" stroke="black" points="52,-78 52,-130 280,-130 280,-78 52,-78"/>
</g>
<!-- LoggerModule -->
<g id="node1" class="node">
<title>LoggerModule</title>
<polygon fill="#8dd3c7" stroke="black" points="271.98,-122 268.98,-126 247.98,-126 244.98,-122 172.02,-122 172.02,-86 271.98,-86 271.98,-122"/>
<text text-anchor="middle" x="222" y="-99.8" font-family="Times,serif" font-size="14.00">LoggerModule</text>
</g>
<!-- OauthApiModule -->
<g id="node3" class="node">
<title>OauthApiModule</title>
<polygon fill="#8dd3c7" stroke="black" points="279.26,-187 276.26,-191 255.26,-191 252.26,-187 164.74,-187 164.74,-151 279.26,-151 279.26,-187"/>
<text text-anchor="middle" x="222" y="-164.8" font-family="Times,serif" font-size="14.00">OauthApiModule</text>
</g>
<!-- LoggerModule&#45;&gt;OauthApiModule -->
<g id="edge1" class="edge">
<title>LoggerModule&#45;&gt;OauthApiModule</title>
<path fill="none" stroke="black" d="M222,-122.11C222,-122.11 222,-140.99 222,-140.99"/>
<polygon fill="black" stroke="black" points="218.5,-140.99 222,-150.99 225.5,-140.99 218.5,-140.99"/>
</g>
<!-- OauthModule -->
<g id="node2" class="node">
<title>OauthModule</title>
<polygon fill="#8dd3c7" stroke="black" points="153.76,-122 150.76,-126 129.76,-126 126.76,-122 60.24,-122 60.24,-86 153.76,-86 153.76,-122"/>
<text text-anchor="middle" x="107" y="-99.8" font-family="Times,serif" font-size="14.00">OauthModule</text>
</g>
<!-- OauthModule&#45;&gt;OauthApiModule -->
<g id="edge2" class="edge">
<title>OauthModule&#45;&gt;OauthApiModule</title>
<path fill="none" stroke="black" d="M153.78,-104C162.18,-104 168.32,-104 168.32,-104 168.32,-104 168.32,-140.89 168.32,-140.89"/>
<polygon fill="black" stroke="black" points="164.82,-140.89 168.32,-150.89 171.82,-140.89 164.82,-140.89"/>
</g>
<!-- HydraOauthUc -->
<g id="node4" class="node">
<title>HydraOauthUc</title>
<ellipse fill="#fdb462" stroke="black" cx="366" cy="-104" rx="70.05" ry="18"/>
<text text-anchor="middle" x="366" y="-99.8" font-family="Times,serif" font-size="14.00">HydraOauthUc</text>
</g>
<!-- HydraOauthUc&#45;&gt;OauthApiModule -->
<g id="edge3" class="edge">
<title>HydraOauthUc&#45;&gt;OauthApiModule</title>
<path fill="none" stroke="black" d="M295.73,-104C284.07,-104 275.68,-104 275.68,-104 275.68,-104 275.68,-140.89 275.68,-140.89"/>
<polygon fill="black" stroke="black" points="272.18,-140.89 275.68,-150.89 279.18,-140.89 272.18,-140.89"/>
</g>
</g>
</svg>
