<?xml version="1.0" encoding="UTF-8" standalone="no"?>
<!DOCTYPE svg PUBLIC "-//W3C//DTD SVG 1.1//EN"
 "http://www.w3.org/Graphics/SVG/1.1/DTD/svg11.dtd">
<!-- Generated by graphviz version 2.47.0 (20210316.0004)
 -->
<!-- Title: dependencies Pages: 1 -->
<svg width="1580pt" height="211pt"
 viewBox="0.00 0.00 1580.00 211.00" xmlns="http://www.w3.org/2000/svg" xmlns:xlink="http://www.w3.org/1999/xlink">
<g id="graph0" class="graph" transform="scale(1 1) rotate(0) translate(4 207)">
<title>dependencies</title>
<polygon fill="white" stroke="transparent" points="-4,4 -4,-207 1576,-207 1576,4 -4,4"/>
<text text-anchor="start" x="765.01" y="-42.4" font-family="Times-12" font-weight="bold" font-size="14.00">Legend</text>
<polygon fill="#ffffb3" stroke="transparent" points="552,-10 552,-30 572,-30 572,-10 552,-10"/>
<text text-anchor="start" x="575.63" y="-15.4" font-family="Times-12" font-size="14.00"> &#160;Declarations</text>
<polygon fill="#8dd3c7" stroke="transparent" points="665,-10 665,-30 685,-30 685,-10 665,-10"/>
<text text-anchor="start" x="688.73" y="-15.4" font-family="Times-12" font-size="14.00"> &#160;Module</text>
<polygon fill="#80b1d3" stroke="transparent" points="751,-10 751,-30 771,-30 771,-10 751,-10"/>
<text text-anchor="start" x="774.78" y="-15.4" font-family="Times-12" font-size="14.00"> &#160;Bootstrap</text>
<polygon fill="#fdb462" stroke="transparent" points="848,-10 848,-30 868,-30 868,-10 848,-10"/>
<text text-anchor="start" x="871.67" y="-15.4" font-family="Times-12" font-size="14.00"> &#160;Providers</text>
<polygon fill="#fb8072" stroke="transparent" points="944,-10 944,-30 964,-30 964,-10 944,-10"/>
<text text-anchor="start" x="967.73" y="-15.4" font-family="Times-12" font-size="14.00"> &#160;Exports</text>
<g id="clust1" class="cluster">
<title>cluster_OauthApiModule</title>
<polygon fill="none" stroke="black" stroke-dasharray="1,5" points="8,-70 8,-195 1564,-195 1564,-70 8,-70"/>
</g>
<g id="clust6" class="cluster">
<title>cluster_OauthApiModule_providers</title>
<polygon fill="none" stroke="black" points="1290,-78 1290,-130 1556,-130 1556,-78 1290,-78"/>
</g>
<g id="clust3" class="cluster">
<title>cluster_OauthApiModule_imports</title>
<polygon fill="none" stroke="black" points="16,-78 16,-130 1282,-130 1282,-78 16,-78"/>
</g>
<!-- AuthenticationModule -->
<g id="node1" class="node">
<title>AuthenticationModule</title>
<polygon fill="#8dd3c7" stroke="black" points="1274.25,-122 1271.25,-126 1250.25,-126 1247.25,-122 1131.75,-122 1131.75,-86 1274.25,-86 1274.25,-122"/>
<text text-anchor="middle" x="1203" y="-99.8" font-family="Times,serif" font-size="14.00">AuthenticationModule</text>
</g>
<!-- OauthApiModule -->
<g id="node10" class="node">
<title>OauthApiModule</title>
<polygon fill="#8dd3c7" stroke="black" points="808.26,-187 805.26,-191 784.26,-191 781.26,-187 693.74,-187 693.74,-151 808.26,-151 808.26,-187"/>
<text text-anchor="middle" x="751" y="-164.8" font-family="Times,serif" font-size="14.00">OauthApiModule</text>
</g>
<!-- AuthenticationModule&#45;&gt;OauthApiModule -->
<g id="edge1" class="edge">
<title>AuthenticationModule&#45;&gt;OauthApiModule</title>
<path fill="none" stroke="black" d="M1203,-122.27C1203,-140.56 1203,-166 1203,-166 1203,-166 818.71,-166 818.71,-166"/>
<polygon fill="black" stroke="black" points="818.71,-162.5 808.71,-166 818.71,-169.5 818.71,-162.5"/>
</g>
<!-- AuthorizationModule -->
<g id="node2" class="node">
<title>AuthorizationModule</title>
<polygon fill="#8dd3c7" stroke="black" points="1113.81,-122 1110.81,-126 1089.81,-126 1086.81,-122 976.19,-122 976.19,-86 1113.81,-86 1113.81,-122"/>
<text text-anchor="middle" x="1045" y="-99.8" font-family="Times,serif" font-size="14.00">AuthorizationModule</text>
</g>
<!-- AuthorizationModule&#45;&gt;OauthApiModule -->
<g id="edge2" class="edge">
<title>AuthorizationModule&#45;&gt;OauthApiModule</title>
<path fill="none" stroke="black" d="M1045,-122.01C1045,-138.05 1045,-159 1045,-159 1045,-159 818.38,-159 818.38,-159"/>
<polygon fill="black" stroke="black" points="818.38,-155.5 808.38,-159 818.38,-162.5 818.38,-155.5"/>
</g>
<!-- LegacySchoolModule -->
<g id="node3" class="node">
<title>LegacySchoolModule</title>
<polygon fill="#8dd3c7" stroke="black" points="958.63,-122 955.63,-126 934.63,-126 931.63,-122 819.37,-122 819.37,-86 958.63,-86 958.63,-122"/>
<text text-anchor="middle" x="889" y="-99.8" font-family="Times,serif" font-size="14.00">LegacySchoolModule</text>
</g>
<!-- LegacySchoolModule&#45;&gt;OauthApiModule -->
<g id="edge3" class="edge">
<title>LegacySchoolModule&#45;&gt;OauthApiModule</title>
<path fill="none" stroke="black" d="M818.99,-104C810.46,-104 804.68,-104 804.68,-104 804.68,-104 804.68,-140.89 804.68,-140.89"/>
<polygon fill="black" stroke="black" points="801.18,-140.89 804.68,-150.89 808.18,-140.89 801.18,-140.89"/>
</g>
<!-- LoggerModule -->
<g id="node4" class="node">
<title>LoggerModule</title>
<polygon fill="#8dd3c7" stroke="black" points="800.98,-122 797.98,-126 776.98,-126 773.98,-122 701.02,-122 701.02,-86 800.98,-86 800.98,-122"/>
<text text-anchor="middle" x="751" y="-99.8" font-family="Times,serif" font-size="14.00">LoggerModule</text>
</g>
<!-- LoggerModule&#45;&gt;OauthApiModule -->
<g id="edge4" class="edge">
<title>LoggerModule&#45;&gt;OauthApiModule</title>
<path fill="none" stroke="black" d="M751,-122.11C751,-122.11 751,-140.99 751,-140.99"/>
<polygon fill="black" stroke="black" points="747.5,-140.99 751,-150.99 754.5,-140.99 747.5,-140.99"/>
</g>
<!-- OauthModule -->
<g id="node5" class="node">
<title>OauthModule</title>
<polygon fill="#8dd3c7" stroke="black" points="682.76,-122 679.76,-126 658.76,-126 655.76,-122 589.24,-122 589.24,-86 682.76,-86 682.76,-122"/>
<text text-anchor="middle" x="636" y="-99.8" font-family="Times,serif" font-size="14.00">OauthModule</text>
</g>
<!-- OauthModule&#45;&gt;OauthApiModule -->
<g id="edge5" class="edge">
<title>OauthModule&#45;&gt;OauthApiModule</title>
<path fill="none" stroke="black" d="M682.78,-104C691.18,-104 697.32,-104 697.32,-104 697.32,-104 697.32,-140.89 697.32,-140.89"/>
<polygon fill="black" stroke="black" points="693.82,-140.89 697.32,-150.89 700.82,-140.89 693.82,-140.89"/>
</g>
<!-- ProvisioningModule -->
<g id="node6" class="node">
<title>ProvisioningModule</title>
<polygon fill="#8dd3c7" stroke="black" points="571.61,-122 568.61,-126 547.61,-126 544.61,-122 440.39,-122 440.39,-86 571.61,-86 571.61,-122"/>
<text text-anchor="middle" x="506" y="-99.8" font-family="Times,serif" font-size="14.00">ProvisioningModule</text>
</g>
<!-- ProvisioningModule&#45;&gt;OauthApiModule -->
<g id="edge6" class="edge">
<title>ProvisioningModule&#45;&gt;OauthApiModule</title>
<path fill="none" stroke="black" d="M506,-122.01C506,-138.05 506,-159 506,-159 506,-159 683.56,-159 683.56,-159"/>
<polygon fill="black" stroke="black" points="683.56,-162.5 693.56,-159 683.56,-155.5 683.56,-162.5"/>
</g>
<!-- SystemModule -->
<g id="node7" class="node">
<title>SystemModule</title>
<polygon fill="#8dd3c7" stroke="black" points="422.27,-122 419.27,-126 398.27,-126 395.27,-122 321.73,-122 321.73,-86 422.27,-86 422.27,-122"/>
<text text-anchor="middle" x="372" y="-99.8" font-family="Times,serif" font-size="14.00">SystemModule</text>
</g>
<!-- SystemModule&#45;&gt;OauthApiModule -->
<g id="edge7" class="edge">
<title>SystemModule&#45;&gt;OauthApiModule</title>
<path fill="none" stroke="black" d="M372,-122.27C372,-140.56 372,-166 372,-166 372,-166 683.44,-166 683.44,-166"/>
<polygon fill="black" stroke="black" points="683.44,-169.5 693.44,-166 683.44,-162.5 683.44,-169.5"/>
</g>
<!-- UserLoginMigrationModule -->
<g id="node8" class="node">
<title>UserLoginMigrationModule</title>
<polygon fill="#8dd3c7" stroke="black" points="303.91,-122 300.91,-126 279.91,-126 276.91,-122 128.09,-122 128.09,-86 303.91,-86 303.91,-122"/>
<text text-anchor="middle" x="216" y="-99.8" font-family="Times,serif" font-size="14.00">UserLoginMigrationModule</text>
</g>
<!-- UserLoginMigrationModule&#45;&gt;OauthApiModule -->
<g id="edge8" class="edge">
<title>UserLoginMigrationModule&#45;&gt;OauthApiModule</title>
<path fill="none" stroke="black" d="M216,-122.13C216,-142.57 216,-173 216,-173 216,-173 683.49,-173 683.49,-173"/>
<polygon fill="black" stroke="black" points="683.49,-176.5 693.49,-173 683.49,-169.5 683.49,-176.5"/>
</g>
<!-- UserModule -->
<g id="node9" class="node">
<title>UserModule</title>
<polygon fill="#8dd3c7" stroke="black" points="109.98,-122 106.98,-126 85.98,-126 82.98,-122 24.02,-122 24.02,-86 109.98,-86 109.98,-122"/>
<text text-anchor="middle" x="67" y="-99.8" font-family="Times,serif" font-size="14.00">UserModule</text>
</g>
<!-- UserModule&#45;&gt;OauthApiModule -->
<g id="edge9" class="edge">
<title>UserModule&#45;&gt;OauthApiModule</title>
<path fill="none" stroke="black" d="M67,-122.01C67,-144.49 67,-180 67,-180 67,-180 683.57,-180 683.57,-180"/>
<polygon fill="black" stroke="black" points="683.57,-183.5 693.57,-180 683.57,-176.5 683.57,-183.5"/>
</g>
<!-- HydraOauthUc -->
<g id="node11" class="node">
<title>HydraOauthUc</title>
<ellipse fill="#fdb462" stroke="black" cx="1478" cy="-104" rx="70.05" ry="18"/>
<text text-anchor="middle" x="1478" y="-99.8" font-family="Times,serif" font-size="14.00">HydraOauthUc</text>
</g>
<!-- HydraOauthUc&#45;&gt;OauthApiModule -->
<g id="edge10" class="edge">
<title>HydraOauthUc&#45;&gt;OauthApiModule</title>
<path fill="none" stroke="black" d="M1478,-122.01C1478,-144.49 1478,-180 1478,-180 1478,-180 818.35,-180 818.35,-180"/>
<polygon fill="black" stroke="black" points="818.35,-176.5 808.35,-180 818.35,-183.5 818.35,-176.5"/>
</g>
<!-- OauthUc -->
<g id="node12" class="node">
<title>OauthUc</title>
<ellipse fill="#fdb462" stroke="black" cx="1344" cy="-104" rx="45.79" ry="18"/>
<text text-anchor="middle" x="1344" y="-99.8" font-family="Times,serif" font-size="14.00">OauthUc</text>
</g>
<!-- OauthUc&#45;&gt;OauthApiModule -->
<g id="edge11" class="edge">
<title>OauthUc&#45;&gt;OauthApiModule</title>
<path fill="none" stroke="black" d="M1344,-122.13C1344,-142.57 1344,-173 1344,-173 1344,-173 818.4,-173 818.4,-173"/>
<polygon fill="black" stroke="black" points="818.4,-169.5 808.4,-173 818.4,-176.5 818.4,-169.5"/>
</g>
</g>
</svg>
