<?xml version="1.0" encoding="UTF-8" standalone="no"?>
<!DOCTYPE svg PUBLIC "-//W3C//DTD SVG 1.1//EN"
 "http://www.w3.org/Graphics/SVG/1.1/DTD/svg11.dtd">
<!-- Generated by graphviz version 2.47.0 (20210316.0004)
 -->
<!-- Title: dependencies Pages: 1 -->
<svg width="1470pt" height="211pt"
 viewBox="0.00 0.00 1470.00 211.00" xmlns="http://www.w3.org/2000/svg" xmlns:xlink="http://www.w3.org/1999/xlink">
<g id="graph0" class="graph" transform="scale(1 1) rotate(0) translate(4 207)">
<title>dependencies</title>
<polygon fill="white" stroke="transparent" points="-4,4 -4,-207 1466,-207 1466,4 -4,4"/>
<text text-anchor="start" x="710.01" y="-42.4" font-family="Times-12" font-weight="bold" font-size="14.00">Legend</text>
<polygon fill="#ffffb3" stroke="transparent" points="497,-10 497,-30 517,-30 517,-10 497,-10"/>
<text text-anchor="start" x="520.63" y="-15.4" font-family="Times-12" font-size="14.00"> &#160;Declarations</text>
<polygon fill="#8dd3c7" stroke="transparent" points="610,-10 610,-30 630,-30 630,-10 610,-10"/>
<text text-anchor="start" x="633.73" y="-15.4" font-family="Times-12" font-size="14.00"> &#160;Module</text>
<polygon fill="#80b1d3" stroke="transparent" points="696,-10 696,-30 716,-30 716,-10 696,-10"/>
<text text-anchor="start" x="719.78" y="-15.4" font-family="Times-12" font-size="14.00"> &#160;Bootstrap</text>
<polygon fill="#fdb462" stroke="transparent" points="793,-10 793,-30 813,-30 813,-10 793,-10"/>
<text text-anchor="start" x="816.67" y="-15.4" font-family="Times-12" font-size="14.00"> &#160;Providers</text>
<polygon fill="#fb8072" stroke="transparent" points="889,-10 889,-30 909,-30 909,-10 889,-10"/>
<text text-anchor="start" x="912.73" y="-15.4" font-family="Times-12" font-size="14.00"> &#160;Exports</text>
<g id="clust1" class="cluster">
<title>cluster_OauthApiModule</title>
<polygon fill="none" stroke="black" stroke-dasharray="1,5" points="8,-70 8,-195 1454,-195 1454,-70 8,-70"/>
</g>
<g id="clust3" class="cluster">
<title>cluster_OauthApiModule_imports</title>
<polygon fill="none" stroke="black" points="180,-78 180,-130 1446,-130 1446,-78 180,-78"/>
</g>
<g id="clust6" class="cluster">
<title>cluster_OauthApiModule_providers</title>
<polygon fill="none" stroke="black" points="16,-78 16,-130 172,-130 172,-78 16,-78"/>
</g>
<!-- AuthenticationModule -->
<g id="node1" class="node">
<title>AuthenticationModule</title>
<polygon fill="#8dd3c7" stroke="black" points="1438.25,-122 1435.25,-126 1414.25,-126 1411.25,-122 1295.75,-122 1295.75,-86 1438.25,-86 1438.25,-122"/>
<text text-anchor="middle" x="1367" y="-99.8" font-family="Times,serif" font-size="14.00">AuthenticationModule</text>
</g>
<!-- OauthApiModule -->
<g id="node10" class="node">
<title>OauthApiModule</title>
<polygon fill="#8dd3c7" stroke="black" points="792.26,-187 789.26,-191 768.26,-191 765.26,-187 677.74,-187 677.74,-151 792.26,-151 792.26,-187"/>
<text text-anchor="middle" x="735" y="-164.8" font-family="Times,serif" font-size="14.00">OauthApiModule</text>
</g>
<!-- AuthenticationModule&#45;&gt;OauthApiModule -->
<g id="edge1" class="edge">
<title>AuthenticationModule&#45;&gt;OauthApiModule</title>
<path fill="none" stroke="black" d="M1367,-122.01C1367,-144.49 1367,-180 1367,-180 1367,-180 802.48,-180 802.48,-180"/>
<polygon fill="black" stroke="black" points="802.48,-176.5 792.48,-180 802.48,-183.5 802.48,-176.5"/>
</g>
<!-- AuthorizationModule -->
<g id="node2" class="node">
<title>AuthorizationModule</title>
<polygon fill="#8dd3c7" stroke="black" points="1277.81,-122 1274.81,-126 1253.81,-126 1250.81,-122 1140.19,-122 1140.19,-86 1277.81,-86 1277.81,-122"/>
<text text-anchor="middle" x="1209" y="-99.8" font-family="Times,serif" font-size="14.00">AuthorizationModule</text>
</g>
<!-- AuthorizationModule&#45;&gt;OauthApiModule -->
<g id="edge2" class="edge">
<title>AuthorizationModule&#45;&gt;OauthApiModule</title>
<path fill="none" stroke="black" d="M1209,-122.13C1209,-142.57 1209,-173 1209,-173 1209,-173 802.65,-173 802.65,-173"/>
<polygon fill="black" stroke="black" points="802.65,-169.5 792.65,-173 802.65,-176.5 802.65,-169.5"/>
</g>
<!-- LegacySchoolModule -->
<g id="node3" class="node">
<title>LegacySchoolModule</title>
<polygon fill="#8dd3c7" stroke="black" points="1122.63,-122 1119.63,-126 1098.63,-126 1095.63,-122 983.37,-122 983.37,-86 1122.63,-86 1122.63,-122"/>
<text text-anchor="middle" x="1053" y="-99.8" font-family="Times,serif" font-size="14.00">LegacySchoolModule</text>
</g>
<!-- LegacySchoolModule&#45;&gt;OauthApiModule -->
<g id="edge3" class="edge">
<title>LegacySchoolModule&#45;&gt;OauthApiModule</title>
<path fill="none" stroke="black" d="M1053,-122.27C1053,-140.56 1053,-166 1053,-166 1053,-166 802.59,-166 802.59,-166"/>
<polygon fill="black" stroke="black" points="802.59,-162.5 792.59,-166 802.59,-169.5 802.59,-162.5"/>
</g>
<!-- LoggerModule -->
<g id="node4" class="node">
<title>LoggerModule</title>
<polygon fill="#8dd3c7" stroke="black" points="964.98,-122 961.98,-126 940.98,-126 937.98,-122 865.02,-122 865.02,-86 964.98,-86 964.98,-122"/>
<text text-anchor="middle" x="915" y="-99.8" font-family="Times,serif" font-size="14.00">LoggerModule</text>
</g>
<!-- LoggerModule&#45;&gt;OauthApiModule -->
<g id="edge4" class="edge">
<title>LoggerModule&#45;&gt;OauthApiModule</title>
<path fill="none" stroke="black" d="M915,-122.01C915,-138.05 915,-159 915,-159 915,-159 802.45,-159 802.45,-159"/>
<polygon fill="black" stroke="black" points="802.45,-155.5 792.45,-159 802.45,-162.5 802.45,-155.5"/>
</g>
<!-- OauthModule -->
<g id="node5" class="node">
<title>OauthModule</title>
<polygon fill="#8dd3c7" stroke="black" points="846.76,-122 843.76,-126 822.76,-126 819.76,-122 753.24,-122 753.24,-86 846.76,-86 846.76,-122"/>
<text text-anchor="middle" x="800" y="-99.8" font-family="Times,serif" font-size="14.00">OauthModule</text>
</g>
<!-- OauthModule&#45;&gt;OauthApiModule -->
<g id="edge5" class="edge">
<title>OauthModule&#45;&gt;OauthApiModule</title>
<path fill="none" stroke="black" d="M772.75,-122.11C772.75,-122.11 772.75,-140.99 772.75,-140.99"/>
<polygon fill="black" stroke="black" points="769.25,-140.99 772.75,-150.99 776.25,-140.99 769.25,-140.99"/>
</g>
<!-- ProvisioningModule -->
<g id="node6" class="node">
<title>ProvisioningModule</title>
<polygon fill="#8dd3c7" stroke="black" points="735.61,-122 732.61,-126 711.61,-126 708.61,-122 604.39,-122 604.39,-86 735.61,-86 735.61,-122"/>
<text text-anchor="middle" x="670" y="-99.8" font-family="Times,serif" font-size="14.00">ProvisioningModule</text>
</g>
<!-- ProvisioningModule&#45;&gt;OauthApiModule -->
<g id="edge6" class="edge">
<title>ProvisioningModule&#45;&gt;OauthApiModule</title>
<path fill="none" stroke="black" d="M706.59,-122.11C706.59,-122.11 706.59,-140.99 706.59,-140.99"/>
<polygon fill="black" stroke="black" points="703.09,-140.99 706.59,-150.99 710.09,-140.99 703.09,-140.99"/>
</g>
<!-- SystemModule -->
<g id="node7" class="node">
<title>SystemModule</title>
<polygon fill="#8dd3c7" stroke="black" points="586.27,-122 583.27,-126 562.27,-126 559.27,-122 485.73,-122 485.73,-86 586.27,-86 586.27,-122"/>
<text text-anchor="middle" x="536" y="-99.8" font-family="Times,serif" font-size="14.00">SystemModule</text>
</g>
<!-- SystemModule&#45;&gt;OauthApiModule -->
<g id="edge7" class="edge">
<title>SystemModule&#45;&gt;OauthApiModule</title>
<path fill="none" stroke="black" d="M536,-122.01C536,-138.05 536,-159 536,-159 536,-159 667.71,-159 667.71,-159"/>
<polygon fill="black" stroke="black" points="667.71,-162.5 677.71,-159 667.71,-155.5 667.71,-162.5"/>
</g>
<!-- UserLoginMigrationModule -->
<g id="node8" class="node">
<title>UserLoginMigrationModule</title>
<polygon fill="#8dd3c7" stroke="black" points="467.91,-122 464.91,-126 443.91,-126 440.91,-122 292.09,-122 292.09,-86 467.91,-86 467.91,-122"/>
<text text-anchor="middle" x="380" y="-99.8" font-family="Times,serif" font-size="14.00">UserLoginMigrationModule</text>
</g>
<!-- UserLoginMigrationModule&#45;&gt;OauthApiModule -->
<g id="edge8" class="edge">
<title>UserLoginMigrationModule&#45;&gt;OauthApiModule</title>
<path fill="none" stroke="black" d="M380,-122.27C380,-140.56 380,-166 380,-166 380,-166 667.57,-166 667.57,-166"/>
<polygon fill="black" stroke="black" points="667.57,-169.5 677.57,-166 667.57,-162.5 667.57,-169.5"/>
</g>
<!-- UserModule -->
<g id="node9" class="node">
<title>UserModule</title>
<polygon fill="#8dd3c7" stroke="black" points="273.98,-122 270.98,-126 249.98,-126 246.98,-122 188.02,-122 188.02,-86 273.98,-86 273.98,-122"/>
<text text-anchor="middle" x="231" y="-99.8" font-family="Times,serif" font-size="14.00">UserModule</text>
</g>
<!-- UserModule&#45;&gt;OauthApiModule -->
<g id="edge9" class="edge">
<title>UserModule&#45;&gt;OauthApiModule</title>
<path fill="none" stroke="black" d="M231,-122.13C231,-142.57 231,-173 231,-173 231,-173 667.68,-173 667.68,-173"/>
<polygon fill="black" stroke="black" points="667.68,-176.5 677.68,-173 667.68,-169.5 667.68,-176.5"/>
</g>
<!-- HydraOauthUc -->
<g id="node11" class="node">
<title>HydraOauthUc</title>
<ellipse fill="#fdb462" stroke="black" cx="94" cy="-104" rx="70.05" ry="18"/>
<text text-anchor="middle" x="94" y="-99.8" font-family="Times,serif" font-size="14.00">HydraOauthUc</text>
</g>
<!-- HydraOauthUc&#45;&gt;OauthApiModule -->
<g id="edge10" class="edge">
<title>HydraOauthUc&#45;&gt;OauthApiModule</title>
<path fill="none" stroke="black" d="M94,-122.01C94,-144.49 94,-180 94,-180 94,-180 667.55,-180 667.55,-180"/>
<polygon fill="black" stroke="black" points="667.55,-183.5 677.55,-180 667.55,-176.5 667.55,-183.5"/>
</g>
</g>
</svg>
