<?xml version="1.0" encoding="UTF-8" standalone="no"?>
<!DOCTYPE svg PUBLIC "-//W3C//DTD SVG 1.1//EN"
 "http://www.w3.org/Graphics/SVG/1.1/DTD/svg11.dtd">
<!-- Generated by graphviz version 2.47.0 (20210316.0004)
 -->
<!-- Title: dependencies Pages: 1 -->
<svg width="1540pt" height="211pt"
 viewBox="0.00 0.00 1540.00 211.00" xmlns="http://www.w3.org/2000/svg" xmlns:xlink="http://www.w3.org/1999/xlink">
<g id="graph0" class="graph" transform="scale(1 1) rotate(0) translate(4 207)">
<title>dependencies</title>
<polygon fill="white" stroke="transparent" points="-4,4 -4,-207 1536,-207 1536,4 -4,4"/>
<text text-anchor="start" x="745.01" y="-42.4" font-family="Times-12" font-weight="bold" font-size="14.00">Legend</text>
<polygon fill="#ffffb3" stroke="transparent" points="532,-10 532,-30 552,-30 552,-10 532,-10"/>
<text text-anchor="start" x="555.63" y="-15.4" font-family="Times-12" font-size="14.00"> &#160;Declarations</text>
<polygon fill="#8dd3c7" stroke="transparent" points="645,-10 645,-30 665,-30 665,-10 645,-10"/>
<text text-anchor="start" x="668.73" y="-15.4" font-family="Times-12" font-size="14.00"> &#160;Module</text>
<polygon fill="#80b1d3" stroke="transparent" points="731,-10 731,-30 751,-30 751,-10 731,-10"/>
<text text-anchor="start" x="754.78" y="-15.4" font-family="Times-12" font-size="14.00"> &#160;Bootstrap</text>
<polygon fill="#fdb462" stroke="transparent" points="828,-10 828,-30 848,-30 848,-10 828,-10"/>
<text text-anchor="start" x="851.67" y="-15.4" font-family="Times-12" font-size="14.00"> &#160;Providers</text>
<polygon fill="#fb8072" stroke="transparent" points="924,-10 924,-30 944,-30 944,-10 924,-10"/>
<text text-anchor="start" x="947.73" y="-15.4" font-family="Times-12" font-size="14.00"> &#160;Exports</text>
<g id="clust1" class="cluster">
<title>cluster_OauthApiModule</title>
<polygon fill="none" stroke="black" stroke-dasharray="1,5" points="8,-70 8,-195 1524,-195 1524,-70 8,-70"/>
</g>
<g id="clust3" class="cluster">
<title>cluster_OauthApiModule_imports</title>
<polygon fill="none" stroke="black" points="290,-78 290,-130 1516,-130 1516,-78 290,-78"/>
</g>
<g id="clust6" class="cluster">
<title>cluster_OauthApiModule_providers</title>
<polygon fill="none" stroke="black" points="16,-78 16,-130 282,-130 282,-78 16,-78"/>
</g>
<!-- AuthenticationModule -->
<g id="node1" class="node">
<title>AuthenticationModule</title>
<polygon fill="#8dd3c7" stroke="black" points="1508.25,-122 1505.25,-126 1484.25,-126 1481.25,-122 1365.75,-122 1365.75,-86 1508.25,-86 1508.25,-122"/>
<text text-anchor="middle" x="1437" y="-99.8" font-family="Times,serif" font-size="14.00">AuthenticationModule</text>
</g>
<!-- OauthApiModule -->
<g id="node10" class="node">
<title>OauthApiModule</title>
<polygon fill="#8dd3c7" stroke="black" points="821.26,-187 818.26,-191 797.26,-191 794.26,-187 706.74,-187 706.74,-151 821.26,-151 821.26,-187"/>
<text text-anchor="middle" x="764" y="-164.8" font-family="Times,serif" font-size="14.00">OauthApiModule</text>
</g>
<!-- AuthenticationModule&#45;&gt;OauthApiModule -->
<g id="edge1" class="edge">
<title>AuthenticationModule&#45;&gt;OauthApiModule</title>
<path fill="none" stroke="black" d="M1437,-122.01C1437,-144.49 1437,-180 1437,-180 1437,-180 831.38,-180 831.38,-180"/>
<polygon fill="black" stroke="black" points="831.38,-176.5 821.38,-180 831.38,-183.5 831.38,-176.5"/>
</g>
<!-- AuthorizationModule -->
<g id="node2" class="node">
<title>AuthorizationModule</title>
<polygon fill="#8dd3c7" stroke="black" points="1347.81,-122 1344.81,-126 1323.81,-126 1320.81,-122 1210.19,-122 1210.19,-86 1347.81,-86 1347.81,-122"/>
<text text-anchor="middle" x="1279" y="-99.8" font-family="Times,serif" font-size="14.00">AuthorizationModule</text>
</g>
<!-- AuthorizationModule&#45;&gt;OauthApiModule -->
<g id="edge2" class="edge">
<title>AuthorizationModule&#45;&gt;OauthApiModule</title>
<path fill="none" stroke="black" d="M1279,-122.13C1279,-142.57 1279,-173 1279,-173 1279,-173 831.58,-173 831.58,-173"/>
<polygon fill="black" stroke="black" points="831.58,-169.5 821.58,-173 831.58,-176.5 831.58,-169.5"/>
</g>
<!-- LoggerModule -->
<g id="node3" class="node">
<title>LoggerModule</title>
<polygon fill="#8dd3c7" stroke="black" points="1191.98,-122 1188.98,-126 1167.98,-126 1164.98,-122 1092.02,-122 1092.02,-86 1191.98,-86 1191.98,-122"/>
<text text-anchor="middle" x="1142" y="-99.8" font-family="Times,serif" font-size="14.00">LoggerModule</text>
</g>
<!-- LoggerModule&#45;&gt;OauthApiModule -->
<g id="edge3" class="edge">
<title>LoggerModule&#45;&gt;OauthApiModule</title>
<path fill="none" stroke="black" d="M1142,-122.27C1142,-140.56 1142,-166 1142,-166 1142,-166 831.41,-166 831.41,-166"/>
<polygon fill="black" stroke="black" points="831.41,-162.5 821.41,-166 831.41,-169.5 831.41,-162.5"/>
</g>
<!-- OauthModule -->
<g id="node4" class="node">
<title>OauthModule</title>
<polygon fill="#8dd3c7" stroke="black" points="1073.76,-122 1070.76,-126 1049.76,-126 1046.76,-122 980.24,-122 980.24,-86 1073.76,-86 1073.76,-122"/>
<text text-anchor="middle" x="1027" y="-99.8" font-family="Times,serif" font-size="14.00">OauthModule</text>
</g>
<!-- OauthModule&#45;&gt;OauthApiModule -->
<g id="edge4" class="edge">
<title>OauthModule&#45;&gt;OauthApiModule</title>
<path fill="none" stroke="black" d="M1027,-122.01C1027,-138.05 1027,-159 1027,-159 1027,-159 831.39,-159 831.39,-159"/>
<polygon fill="black" stroke="black" points="831.39,-155.5 821.39,-159 831.39,-162.5 831.39,-155.5"/>
</g>
<!-- ProvisioningModule -->
<g id="node5" class="node">
<title>ProvisioningModule</title>
<polygon fill="#8dd3c7" stroke="black" points="962.61,-122 959.61,-126 938.61,-126 935.61,-122 831.39,-122 831.39,-86 962.61,-86 962.61,-122"/>
<text text-anchor="middle" x="897" y="-99.8" font-family="Times,serif" font-size="14.00">ProvisioningModule</text>
</g>
<!-- ProvisioningModule&#45;&gt;OauthApiModule -->
<g id="edge5" class="edge">
<title>ProvisioningModule&#45;&gt;OauthApiModule</title>
<path fill="none" stroke="black" d="M831.18,-104C822.92,-104 817.3,-104 817.3,-104 817.3,-104 817.3,-140.89 817.3,-140.89"/>
<polygon fill="black" stroke="black" points="813.8,-140.89 817.3,-150.89 820.8,-140.89 813.8,-140.89"/>
</g>
<!-- SchoolModule -->
<g id="node6" class="node">
<title>SchoolModule</title>
<polygon fill="#8dd3c7" stroke="black" points="813.44,-122 810.44,-126 789.44,-126 786.44,-122 714.56,-122 714.56,-86 813.44,-86 813.44,-122"/>
<text text-anchor="middle" x="764" y="-99.8" font-family="Times,serif" font-size="14.00">SchoolModule</text>
</g>
<!-- SchoolModule&#45;&gt;OauthApiModule -->
<g id="edge6" class="edge">
<title>SchoolModule&#45;&gt;OauthApiModule</title>
<path fill="none" stroke="black" d="M764,-122.11C764,-122.11 764,-140.99 764,-140.99"/>
<polygon fill="black" stroke="black" points="760.5,-140.99 764,-150.99 767.5,-140.99 760.5,-140.99"/>
</g>
<!-- SystemModule -->
<g id="node7" class="node">
<title>SystemModule</title>
<polygon fill="#8dd3c7" stroke="black" points="696.27,-122 693.27,-126 672.27,-126 669.27,-122 595.73,-122 595.73,-86 696.27,-86 696.27,-122"/>
<text text-anchor="middle" x="646" y="-99.8" font-family="Times,serif" font-size="14.00">SystemModule</text>
</g>
<!-- SystemModule&#45;&gt;OauthApiModule -->
<g id="edge7" class="edge">
<title>SystemModule&#45;&gt;OauthApiModule</title>
<path fill="none" stroke="black" d="M696.34,-104C704.69,-104 710.7,-104 710.7,-104 710.7,-104 710.7,-140.89 710.7,-140.89"/>
<polygon fill="black" stroke="black" points="707.2,-140.89 710.7,-150.89 714.2,-140.89 707.2,-140.89"/>
</g>
<!-- UserLoginMigrationModule -->
<g id="node8" class="node">
<title>UserLoginMigrationModule</title>
<polygon fill="#8dd3c7" stroke="black" points="577.91,-122 574.91,-126 553.91,-126 550.91,-122 402.09,-122 402.09,-86 577.91,-86 577.91,-122"/>
<text text-anchor="middle" x="490" y="-99.8" font-family="Times,serif" font-size="14.00">UserLoginMigrationModule</text>
</g>
<!-- UserLoginMigrationModule&#45;&gt;OauthApiModule -->
<g id="edge8" class="edge">
<title>UserLoginMigrationModule&#45;&gt;OauthApiModule</title>
<path fill="none" stroke="black" d="M490,-122.01C490,-138.05 490,-159 490,-159 490,-159 696.56,-159 696.56,-159"/>
<polygon fill="black" stroke="black" points="696.56,-162.5 706.56,-159 696.56,-155.5 696.56,-162.5"/>
</g>
<!-- UserModule -->
<g id="node9" class="node">
<title>UserModule</title>
<polygon fill="#8dd3c7" stroke="black" points="383.98,-122 380.98,-126 359.98,-126 356.98,-122 298.02,-122 298.02,-86 383.98,-86 383.98,-122"/>
<text text-anchor="middle" x="341" y="-99.8" font-family="Times,serif" font-size="14.00">UserModule</text>
</g>
<!-- UserModule&#45;&gt;OauthApiModule -->
<g id="edge9" class="edge">
<title>UserModule&#45;&gt;OauthApiModule</title>
<path fill="none" stroke="black" d="M341,-122.27C341,-140.56 341,-166 341,-166 341,-166 696.51,-166 696.51,-166"/>
<polygon fill="black" stroke="black" points="696.51,-169.5 706.51,-166 696.51,-162.5 696.51,-169.5"/>
</g>
<!-- HydraOauthUc -->
<g id="node11" class="node">
<title>HydraOauthUc</title>
<ellipse fill="#fdb462" stroke="black" cx="204" cy="-104" rx="70.05" ry="18"/>
<text text-anchor="middle" x="204" y="-99.8" font-family="Times,serif" font-size="14.00">HydraOauthUc</text>
</g>
<!-- HydraOauthUc&#45;&gt;OauthApiModule -->
<g id="edge10" class="edge">
<title>HydraOauthUc&#45;&gt;OauthApiModule</title>
<path fill="none" stroke="black" d="M204,-122.13C204,-142.57 204,-173 204,-173 204,-173 696.7,-173 696.7,-173"/>
<polygon fill="black" stroke="black" points="696.7,-176.5 706.7,-173 696.7,-169.5 696.7,-176.5"/>
</g>
<!-- OauthUc -->
<g id="node12" class="node">
<title>OauthUc</title>
<ellipse fill="#fdb462" stroke="black" cx="70" cy="-104" rx="45.79" ry="18"/>
<text text-anchor="middle" x="70" y="-99.8" font-family="Times,serif" font-size="14.00">OauthUc</text>
</g>
<!-- OauthUc&#45;&gt;OauthApiModule -->
<g id="edge11" class="edge">
<title>OauthUc&#45;&gt;OauthApiModule</title>
<path fill="none" stroke="black" d="M70,-122.01C70,-144.49 70,-180 70,-180 70,-180 696.62,-180 696.62,-180"/>
<polygon fill="black" stroke="black" points="696.62,-183.5 706.62,-180 696.62,-176.5 696.62,-183.5"/>
</g>
</g>
</svg>
