<?xml version="1.0" encoding="UTF-8" standalone="no"?>
<!DOCTYPE svg PUBLIC "-//W3C//DTD SVG 1.1//EN"
 "http://www.w3.org/Graphics/SVG/1.1/DTD/svg11.dtd">
<!-- Generated by graphviz version 2.47.0 (20210316.0004)
 -->
<!-- Title: dependencies Pages: 1 -->
<svg width="1540pt" height="211pt"
 viewBox="0.00 0.00 1540.00 211.00" xmlns="http://www.w3.org/2000/svg" xmlns:xlink="http://www.w3.org/1999/xlink">
<g id="graph0" class="graph" transform="scale(1 1) rotate(0) translate(4 207)">
<title>dependencies</title>
<polygon fill="white" stroke="transparent" points="-4,4 -4,-207 1536,-207 1536,4 -4,4"/>
<text text-anchor="start" x="745.01" y="-42.4" font-family="Times-12" font-weight="bold" font-size="14.00">Legend</text>
<polygon fill="#ffffb3" stroke="transparent" points="532,-10 532,-30 552,-30 552,-10 532,-10"/>
<text text-anchor="start" x="555.63" y="-15.4" font-family="Times-12" font-size="14.00"> &#160;Declarations</text>
<polygon fill="#8dd3c7" stroke="transparent" points="645,-10 645,-30 665,-30 665,-10 645,-10"/>
<text text-anchor="start" x="668.73" y="-15.4" font-family="Times-12" font-size="14.00"> &#160;Module</text>
<polygon fill="#80b1d3" stroke="transparent" points="731,-10 731,-30 751,-30 751,-10 731,-10"/>
<text text-anchor="start" x="754.78" y="-15.4" font-family="Times-12" font-size="14.00"> &#160;Bootstrap</text>
<polygon fill="#fdb462" stroke="transparent" points="828,-10 828,-30 848,-30 848,-10 828,-10"/>
<text text-anchor="start" x="851.67" y="-15.4" font-family="Times-12" font-size="14.00"> &#160;Providers</text>
<polygon fill="#fb8072" stroke="transparent" points="924,-10 924,-30 944,-30 944,-10 924,-10"/>
<text text-anchor="start" x="947.73" y="-15.4" font-family="Times-12" font-size="14.00"> &#160;Exports</text>
<g id="clust1" class="cluster">
<title>cluster_OauthApiModule</title>
<polygon fill="none" stroke="black" stroke-dasharray="1,5" points="8,-70 8,-195 1524,-195 1524,-70 8,-70"/>
</g>
<g id="clust6" class="cluster">
<title>cluster_OauthApiModule_providers</title>
<polygon fill="none" stroke="black" points="1250,-78 1250,-130 1516,-130 1516,-78 1250,-78"/>
</g>
<g id="clust3" class="cluster">
<title>cluster_OauthApiModule_imports</title>
<polygon fill="none" stroke="black" points="16,-78 16,-130 1242,-130 1242,-78 16,-78"/>
</g>
<!-- AuthenticationModule -->
<g id="node1" class="node">
<title>AuthenticationModule</title>
<polygon fill="#8dd3c7" stroke="black" points="1234.25,-122 1231.25,-126 1210.25,-126 1207.25,-122 1091.75,-122 1091.75,-86 1234.25,-86 1234.25,-122"/>
<text text-anchor="middle" x="1163" y="-99.8" font-family="Times,serif" font-size="14.00">AuthenticationModule</text>
</g>
<!-- OauthApiModule -->
<g id="node10" class="node">
<title>OauthApiModule</title>
<polygon fill="#8dd3c7" stroke="black" points="810.26,-187 807.26,-191 786.26,-191 783.26,-187 695.74,-187 695.74,-151 810.26,-151 810.26,-187"/>
<text text-anchor="middle" x="753" y="-164.8" font-family="Times,serif" font-size="14.00">OauthApiModule</text>
</g>
<!-- AuthenticationModule&#45;&gt;OauthApiModule -->
<g id="edge1" class="edge">
<title>AuthenticationModule&#45;&gt;OauthApiModule</title>
<path fill="none" stroke="black" d="M1163,-122.27C1163,-140.56 1163,-166 1163,-166 1163,-166 820.44,-166 820.44,-166"/>
<polygon fill="black" stroke="black" points="820.44,-162.5 810.44,-166 820.44,-169.5 820.44,-162.5"/>
</g>
<!-- AuthorizationModule -->
<g id="node2" class="node">
<title>AuthorizationModule</title>
<polygon fill="#8dd3c7" stroke="black" points="1073.81,-122 1070.81,-126 1049.81,-126 1046.81,-122 936.19,-122 936.19,-86 1073.81,-86 1073.81,-122"/>
<text text-anchor="middle" x="1005" y="-99.8" font-family="Times,serif" font-size="14.00">AuthorizationModule</text>
</g>
<!-- AuthorizationModule&#45;&gt;OauthApiModule -->
<g id="edge2" class="edge">
<title>AuthorizationModule&#45;&gt;OauthApiModule</title>
<path fill="none" stroke="black" d="M1005,-122.01C1005,-138.05 1005,-159 1005,-159 1005,-159 820.5,-159 820.5,-159"/>
<polygon fill="black" stroke="black" points="820.5,-155.5 810.5,-159 820.5,-162.5 820.5,-155.5"/>
</g>
<!-- LoggerModule -->
<g id="node3" class="node">
<title>LoggerModule</title>
<polygon fill="#8dd3c7" stroke="black" points="917.98,-122 914.98,-126 893.98,-126 890.98,-122 818.02,-122 818.02,-86 917.98,-86 917.98,-122"/>
<text text-anchor="middle" x="868" y="-99.8" font-family="Times,serif" font-size="14.00">LoggerModule</text>
</g>
<!-- LoggerModule&#45;&gt;OauthApiModule -->
<g id="edge3" class="edge">
<title>LoggerModule&#45;&gt;OauthApiModule</title>
<path fill="none" stroke="black" d="M817.85,-104C810.38,-104 805.13,-104 805.13,-104 805.13,-104 805.13,-140.89 805.13,-140.89"/>
<polygon fill="black" stroke="black" points="801.63,-140.89 805.13,-150.89 808.63,-140.89 801.63,-140.89"/>
</g>
<!-- OauthModule -->
<g id="node4" class="node">
<title>OauthModule</title>
<polygon fill="#8dd3c7" stroke="black" points="799.76,-122 796.76,-126 775.76,-126 772.76,-122 706.24,-122 706.24,-86 799.76,-86 799.76,-122"/>
<text text-anchor="middle" x="753" y="-99.8" font-family="Times,serif" font-size="14.00">OauthModule</text>
</g>
<!-- OauthModule&#45;&gt;OauthApiModule -->
<g id="edge4" class="edge">
<title>OauthModule&#45;&gt;OauthApiModule</title>
<path fill="none" stroke="black" d="M753,-122.11C753,-122.11 753,-140.99 753,-140.99"/>
<polygon fill="black" stroke="black" points="749.5,-140.99 753,-150.99 756.5,-140.99 749.5,-140.99"/>
</g>
<!-- ProvisioningModule -->
<g id="node5" class="node">
<title>ProvisioningModule</title>
<polygon fill="#8dd3c7" stroke="black" points="688.61,-122 685.61,-126 664.61,-126 661.61,-122 557.39,-122 557.39,-86 688.61,-86 688.61,-122"/>
<text text-anchor="middle" x="623" y="-99.8" font-family="Times,serif" font-size="14.00">ProvisioningModule</text>
</g>
<!-- ProvisioningModule&#45;&gt;OauthApiModule -->
<g id="edge5" class="edge">
<title>ProvisioningModule&#45;&gt;OauthApiModule</title>
<path fill="none" stroke="black" d="M688.7,-104C696,-104 700.87,-104 700.87,-104 700.87,-104 700.87,-140.89 700.87,-140.89"/>
<polygon fill="black" stroke="black" points="697.37,-140.89 700.87,-150.89 704.37,-140.89 697.37,-140.89"/>
</g>
<!-- SchoolModule -->
<g id="node6" class="node">
<title>SchoolModule</title>
<polygon fill="#8dd3c7" stroke="black" points="539.44,-122 536.44,-126 515.44,-126 512.44,-122 440.56,-122 440.56,-86 539.44,-86 539.44,-122"/>
<text text-anchor="middle" x="490" y="-99.8" font-family="Times,serif" font-size="14.00">SchoolModule</text>
</g>
<!-- SchoolModule&#45;&gt;OauthApiModule -->
<g id="edge6" class="edge">
<title>SchoolModule&#45;&gt;OauthApiModule</title>
<path fill="none" stroke="black" d="M490,-122.01C490,-138.05 490,-159 490,-159 490,-159 685.61,-159 685.61,-159"/>
<polygon fill="black" stroke="black" points="685.61,-162.5 695.61,-159 685.61,-155.5 685.61,-162.5"/>
</g>
<!-- SystemModule -->
<g id="node7" class="node">
<title>SystemModule</title>
<polygon fill="#8dd3c7" stroke="black" points="422.27,-122 419.27,-126 398.27,-126 395.27,-122 321.73,-122 321.73,-86 422.27,-86 422.27,-122"/>
<text text-anchor="middle" x="372" y="-99.8" font-family="Times,serif" font-size="14.00">SystemModule</text>
</g>
<!-- SystemModule&#45;&gt;OauthApiModule -->
<g id="edge7" class="edge">
<title>SystemModule&#45;&gt;OauthApiModule</title>
<path fill="none" stroke="black" d="M372,-122.27C372,-140.56 372,-166 372,-166 372,-166 685.55,-166 685.55,-166"/>
<polygon fill="black" stroke="black" points="685.55,-169.5 695.55,-166 685.55,-162.5 685.55,-169.5"/>
</g>
<!-- UserLoginMigrationModule -->
<g id="node8" class="node">
<title>UserLoginMigrationModule</title>
<polygon fill="#8dd3c7" stroke="black" points="303.91,-122 300.91,-126 279.91,-126 276.91,-122 128.09,-122 128.09,-86 303.91,-86 303.91,-122"/>
<text text-anchor="middle" x="216" y="-99.8" font-family="Times,serif" font-size="14.00">UserLoginMigrationModule</text>
</g>
<!-- UserLoginMigrationModule&#45;&gt;OauthApiModule -->
<g id="edge8" class="edge">
<title>UserLoginMigrationModule&#45;&gt;OauthApiModule</title>
<path fill="none" stroke="black" d="M216,-122.13C216,-142.57 216,-173 216,-173 216,-173 685.53,-173 685.53,-173"/>
<polygon fill="black" stroke="black" points="685.53,-176.5 695.53,-173 685.53,-169.5 685.53,-176.5"/>
</g>
<!-- UserModule -->
<g id="node9" class="node">
<title>UserModule</title>
<polygon fill="#8dd3c7" stroke="black" points="109.98,-122 106.98,-126 85.98,-126 82.98,-122 24.02,-122 24.02,-86 109.98,-86 109.98,-122"/>
<text text-anchor="middle" x="67" y="-99.8" font-family="Times,serif" font-size="14.00">UserModule</text>
</g>
<!-- UserModule&#45;&gt;OauthApiModule -->
<g id="edge9" class="edge">
<title>UserModule&#45;&gt;OauthApiModule</title>
<path fill="none" stroke="black" d="M67,-122.01C67,-144.49 67,-180 67,-180 67,-180 685.69,-180 685.69,-180"/>
<polygon fill="black" stroke="black" points="685.69,-183.5 695.69,-180 685.69,-176.5 685.69,-183.5"/>
</g>
<!-- HydraOauthUc -->
<g id="node11" class="node">
<title>HydraOauthUc</title>
<ellipse fill="#fdb462" stroke="black" cx="1438" cy="-104" rx="70.05" ry="18"/>
<text text-anchor="middle" x="1438" y="-99.8" font-family="Times,serif" font-size="14.00">HydraOauthUc</text>
</g>
<!-- HydraOauthUc&#45;&gt;OauthApiModule -->
<g id="edge10" class="edge">
<title>HydraOauthUc&#45;&gt;OauthApiModule</title>
<path fill="none" stroke="black" d="M1438,-122.01C1438,-144.49 1438,-180 1438,-180 1438,-180 820.52,-180 820.52,-180"/>
<polygon fill="black" stroke="black" points="820.52,-176.5 810.52,-180 820.52,-183.5 820.52,-176.5"/>
</g>
<!-- OauthUc -->
<g id="node12" class="node">
<title>OauthUc</title>
<ellipse fill="#fdb462" stroke="black" cx="1304" cy="-104" rx="45.79" ry="18"/>
<text text-anchor="middle" x="1304" y="-99.8" font-family="Times,serif" font-size="14.00">OauthUc</text>
</g>
<!-- OauthUc&#45;&gt;OauthApiModule -->
<g id="edge11" class="edge">
<title>OauthUc&#45;&gt;OauthApiModule</title>
<path fill="none" stroke="black" d="M1304,-122.13C1304,-142.57 1304,-173 1304,-173 1304,-173 820.41,-173 820.41,-173"/>
<polygon fill="black" stroke="black" points="820.41,-169.5 810.41,-173 820.41,-176.5 820.41,-169.5"/>
</g>
</g>
</svg>
