<?xml version="1.0" encoding="UTF-8" standalone="no"?>
<!DOCTYPE svg PUBLIC "-//W3C//DTD SVG 1.1//EN"
 "http://www.w3.org/Graphics/SVG/1.1/DTD/svg11.dtd">
<!-- Generated by graphviz version 2.47.0 (20210316.0004)
 -->
<!-- Title: dependencies Pages: 1 -->
<svg width="504pt" height="211pt"
 viewBox="0.00 0.00 504.00 211.00" xmlns="http://www.w3.org/2000/svg" xmlns:xlink="http://www.w3.org/1999/xlink">
<g id="graph0" class="graph" transform="scale(1 1) rotate(0) translate(4 207)">
<title>dependencies</title>
<polygon fill="white" stroke="transparent" points="-4,4 -4,-207 500,-207 500,4 -4,4"/>
<text text-anchor="start" x="227.01" y="-42.4" font-family="Times-12" font-weight="bold" font-size="14.00">Legend</text>
<polygon fill="#ffffb3" stroke="transparent" points="14,-10 14,-30 34,-30 34,-10 14,-10"/>
<text text-anchor="start" x="37.63" y="-15.4" font-family="Times-12" font-size="14.00"> &#160;Declarations</text>
<polygon fill="#8dd3c7" stroke="transparent" points="127,-10 127,-30 147,-30 147,-10 127,-10"/>
<text text-anchor="start" x="150.73" y="-15.4" font-family="Times-12" font-size="14.00"> &#160;Module</text>
<polygon fill="#80b1d3" stroke="transparent" points="213,-10 213,-30 233,-30 233,-10 213,-10"/>
<text text-anchor="start" x="236.78" y="-15.4" font-family="Times-12" font-size="14.00"> &#160;Bootstrap</text>
<polygon fill="#fdb462" stroke="transparent" points="310,-10 310,-30 330,-30 330,-10 310,-10"/>
<text text-anchor="start" x="333.67" y="-15.4" font-family="Times-12" font-size="14.00"> &#160;Providers</text>
<polygon fill="#fb8072" stroke="transparent" points="406,-10 406,-30 426,-30 426,-10 406,-10"/>
<text text-anchor="start" x="429.73" y="-15.4" font-family="Times-12" font-size="14.00"> &#160;Exports</text>
<g id="clust1" class="cluster">
<title>cluster_OauthApiModule</title>
<polygon fill="none" stroke="black" stroke-dasharray="1,5" points="44,-70 44,-195 452,-195 452,-70 44,-70"/>
</g>
<g id="clust3" class="cluster">
<title>cluster_OauthApiModule_imports</title>
<polygon fill="none" stroke="black" points="216,-78 216,-130 444,-130 444,-78 216,-78"/>
</g>
<g id="clust6" class="cluster">
<title>cluster_OauthApiModule_providers</title>
<polygon fill="none" stroke="black" points="52,-78 52,-130 208,-130 208,-78 52,-78"/>
</g>
<!-- LoggerModule -->
<g id="node1" class="node">
<title>LoggerModule</title>
<polygon fill="#8dd3c7" stroke="black" points="435.98,-122 432.98,-126 411.98,-126 408.98,-122 336.02,-122 336.02,-86 435.98,-86 435.98,-122"/>
<text text-anchor="middle" x="386" y="-99.8" font-family="Times,serif" font-size="14.00">LoggerModule</text>
</g>
<!-- OauthApiModule -->
<g id="node3" class="node">
<title>OauthApiModule</title>
<polygon fill="#8dd3c7" stroke="black" points="328.26,-187 325.26,-191 304.26,-191 301.26,-187 213.74,-187 213.74,-151 328.26,-151 328.26,-187"/>
<text text-anchor="middle" x="271" y="-164.8" font-family="Times,serif" font-size="14.00">OauthApiModule</text>
</g>
<!-- LoggerModule&#45;&gt;OauthApiModule -->
<g id="edge1" class="edge">
<title>LoggerModule&#45;&gt;OauthApiModule</title>
<path fill="none" stroke="black" d="M335.85,-104C328.38,-104 323.13,-104 323.13,-104 323.13,-104 323.13,-140.89 323.13,-140.89"/>
<polygon fill="black" stroke="black" points="319.63,-140.89 323.13,-150.89 326.63,-140.89 319.63,-140.89"/>
</g>
<!-- OauthModule -->
<g id="node2" class="node">
<title>OauthModule</title>
<polygon fill="#8dd3c7" stroke="black" points="317.76,-122 314.76,-126 293.76,-126 290.76,-122 224.24,-122 224.24,-86 317.76,-86 317.76,-122"/>
<text text-anchor="middle" x="271" y="-99.8" font-family="Times,serif" font-size="14.00">OauthModule</text>
</g>
<!-- OauthModule&#45;&gt;OauthApiModule -->
<g id="edge2" class="edge">
<title>OauthModule&#45;&gt;OauthApiModule</title>
<path fill="none" stroke="black" d="M271,-122.11C271,-122.11 271,-140.99 271,-140.99"/>
<polygon fill="black" stroke="black" points="267.5,-140.99 271,-150.99 274.5,-140.99 267.5,-140.99"/>
</g>
<!-- HydraOauthUc -->
<g id="node4" class="node">
<title>HydraOauthUc</title>
<ellipse fill="#fdb462" stroke="black" cx="130" cy="-104" rx="70.05" ry="18"/>
<text text-anchor="middle" x="130" y="-99.8" font-family="Times,serif" font-size="14.00">HydraOauthUc</text>
</g>
<!-- HydraOauthUc&#45;&gt;OauthApiModule -->
<g id="edge3" class="edge">
<title>HydraOauthUc&#45;&gt;OauthApiModule</title>
<path fill="none" stroke="black" d="M200.46,-104C211.24,-104 218.87,-104 218.87,-104 218.87,-104 218.87,-140.89 218.87,-140.89"/>
<polygon fill="black" stroke="black" points="215.37,-140.89 218.87,-150.89 222.37,-140.89 215.37,-140.89"/>
</g>
</g>
</svg>
