<?xml version="1.0" encoding="UTF-8" standalone="no"?>
<!DOCTYPE svg PUBLIC "-//W3C//DTD SVG 1.1//EN"
 "http://www.w3.org/Graphics/SVG/1.1/DTD/svg11.dtd">
<!-- Generated by graphviz version 5.0.0 (20220707.1540)
 -->
<!-- Title: dependencies Pages: 1 -->
<svg width="1540pt" height="174pt"
 viewBox="0.00 0.00 1540.00 173.80" xmlns="http://www.w3.org/2000/svg" xmlns:xlink="http://www.w3.org/1999/xlink">
<g id="graph0" class="graph" transform="scale(1 1) rotate(0) translate(4 169.8)">
<title>dependencies</title>
<polygon fill="white" stroke="transparent" points="-4,4 -4,-169.8 1536,-169.8 1536,4 -4,4"/>
<text text-anchor="middle" x="766" y="-8.2" font-family="sans-serif" font-size="14.00">dependencies</text>
<g id="clust1" class="cluster">
<title>cluster_OauthApiModule</title>
<polygon fill="none" stroke="black" stroke-dasharray="1,5" points="8,-32.8 8,-157.8 1524,-157.8 1524,-32.8 8,-32.8"/>
</g>
<g id="clust3" class="cluster">
<title>cluster_OauthApiModule_imports</title>
<polygon fill="none" stroke="black" points="290,-40.8 290,-92.8 1516,-92.8 1516,-40.8 290,-40.8"/>
</g>
<g id="clust6" class="cluster">
<title>cluster_OauthApiModule_providers</title>
<polygon fill="none" stroke="black" points="16,-40.8 16,-92.8 282,-92.8 282,-40.8 16,-40.8"/>
</g>
<!-- AuthenticationModule -->
<g id="node1" class="node">
<title>AuthenticationModule</title>
<polygon fill="#8dd3c7" stroke="black" points="1508.25,-84.8 1505.25,-88.8 1484.25,-88.8 1481.25,-84.8 1365.75,-84.8 1365.75,-48.8 1508.25,-48.8 1508.25,-84.8"/>
<text text-anchor="middle" x="1437" y="-62.6" font-family="Times,serif" font-size="14.00">AuthenticationModule</text>
</g>
<!-- OauthApiModule -->
<g id="node10" class="node">
<title>OauthApiModule</title>
<polygon fill="#8dd3c7" stroke="black" points="821.27,-149.8 818.27,-153.8 797.27,-153.8 794.27,-149.8 706.73,-149.8 706.73,-113.8 821.27,-113.8 821.27,-149.8"/>
<text text-anchor="middle" x="764" y="-127.6" font-family="Times,serif" font-size="14.00">OauthApiModule</text>
</g>
<!-- AuthenticationModule&#45;&gt;OauthApiModule -->
<g id="edge1" class="edge">
<title>AuthenticationModule&#45;&gt;OauthApiModule</title>
<path fill="none" stroke="black" d="M1437,-84.81C1437,-107.29 1437,-142.8 1437,-142.8 1437,-142.8 831.38,-142.8 831.38,-142.8"/>
<polygon fill="black" stroke="black" points="831.38,-139.3 821.38,-142.8 831.38,-146.3 831.38,-139.3"/>
</g>
<!-- AuthorizationModule -->
<g id="node2" class="node">
<title>AuthorizationModule</title>
<polygon fill="#8dd3c7" stroke="black" points="1347.81,-84.8 1344.81,-88.8 1323.81,-88.8 1320.81,-84.8 1210.19,-84.8 1210.19,-48.8 1347.81,-48.8 1347.81,-84.8"/>
<text text-anchor="middle" x="1279" y="-62.6" font-family="Times,serif" font-size="14.00">AuthorizationModule</text>
</g>
<!-- AuthorizationModule&#45;&gt;OauthApiModule -->
<g id="edge2" class="edge">
<title>AuthorizationModule&#45;&gt;OauthApiModule</title>
<path fill="none" stroke="black" d="M1279,-84.93C1279,-105.37 1279,-135.8 1279,-135.8 1279,-135.8 831.58,-135.8 831.58,-135.8"/>
<polygon fill="black" stroke="black" points="831.58,-132.3 821.58,-135.8 831.58,-139.3 831.58,-132.3"/>
</g>
<!-- LoggerModule -->
<g id="node3" class="node">
<title>LoggerModule</title>
<polygon fill="#8dd3c7" stroke="black" points="1191.98,-84.8 1188.98,-88.8 1167.98,-88.8 1164.98,-84.8 1092.02,-84.8 1092.02,-48.8 1191.98,-48.8 1191.98,-84.8"/>
<text text-anchor="middle" x="1142" y="-62.6" font-family="Times,serif" font-size="14.00">LoggerModule</text>
</g>
<!-- LoggerModule&#45;&gt;OauthApiModule -->
<g id="edge3" class="edge">
<title>LoggerModule&#45;&gt;OauthApiModule</title>
<path fill="none" stroke="black" d="M1142,-85.07C1142,-103.36 1142,-128.8 1142,-128.8 1142,-128.8 831.41,-128.8 831.41,-128.8"/>
<polygon fill="black" stroke="black" points="831.41,-125.3 821.41,-128.8 831.41,-132.3 831.41,-125.3"/>
</g>
<!-- OauthModule -->
<g id="node4" class="node">
<title>OauthModule</title>
<polygon fill="#8dd3c7" stroke="black" points="1073.77,-84.8 1070.77,-88.8 1049.77,-88.8 1046.77,-84.8 980.23,-84.8 980.23,-48.8 1073.77,-48.8 1073.77,-84.8"/>
<text text-anchor="middle" x="1027" y="-62.6" font-family="Times,serif" font-size="14.00">OauthModule</text>
</g>
<!-- OauthModule&#45;&gt;OauthApiModule -->
<g id="edge4" class="edge">
<title>OauthModule&#45;&gt;OauthApiModule</title>
<path fill="none" stroke="black" d="M1027,-84.81C1027,-100.85 1027,-121.8 1027,-121.8 1027,-121.8 831.39,-121.8 831.39,-121.8"/>
<polygon fill="black" stroke="black" points="831.39,-118.3 821.39,-121.8 831.39,-125.3 831.39,-118.3"/>
</g>
<!-- ProvisioningModule -->
<g id="node5" class="node">
<title>ProvisioningModule</title>
<polygon fill="#8dd3c7" stroke="black" points="962.62,-84.8 959.62,-88.8 938.62,-88.8 935.62,-84.8 831.38,-84.8 831.38,-48.8 962.62,-48.8 962.62,-84.8"/>
<text text-anchor="middle" x="897" y="-62.6" font-family="Times,serif" font-size="14.00">ProvisioningModule</text>
</g>
<!-- ProvisioningModule&#45;&gt;OauthApiModule -->
<g id="edge5" class="edge">
<title>ProvisioningModule&#45;&gt;OauthApiModule</title>
<path fill="none" stroke="black" d="M831.18,-66.8C822.92,-66.8 817.3,-66.8 817.3,-66.8 817.3,-66.8 817.3,-103.69 817.3,-103.69"/>
<polygon fill="black" stroke="black" points="813.8,-103.69 817.3,-113.69 820.8,-103.69 813.8,-103.69"/>
</g>
<!-- SchoolModule -->
<g id="node6" class="node">
<title>SchoolModule</title>
<polygon fill="#8dd3c7" stroke="black" points="813.44,-84.8 810.44,-88.8 789.44,-88.8 786.44,-84.8 714.56,-84.8 714.56,-48.8 813.44,-48.8 813.44,-84.8"/>
<text text-anchor="middle" x="764" y="-62.6" font-family="Times,serif" font-size="14.00">SchoolModule</text>
</g>
<!-- SchoolModule&#45;&gt;OauthApiModule -->
<g id="edge6" class="edge">
<title>SchoolModule&#45;&gt;OauthApiModule</title>
<path fill="none" stroke="black" d="M764,-84.91C764,-84.91 764,-103.79 764,-103.79"/>
<polygon fill="black" stroke="black" points="760.5,-103.79 764,-113.79 767.5,-103.79 760.5,-103.79"/>
</g>
<!-- SystemModule -->
<g id="node7" class="node">
<title>SystemModule</title>
<polygon fill="#8dd3c7" stroke="black" points="696.28,-84.8 693.28,-88.8 672.28,-88.8 669.28,-84.8 595.72,-84.8 595.72,-48.8 696.28,-48.8 696.28,-84.8"/>
<text text-anchor="middle" x="646" y="-62.6" font-family="Times,serif" font-size="14.00">SystemModule</text>
</g>
<!-- SystemModule&#45;&gt;OauthApiModule -->
<g id="edge7" class="edge">
<title>SystemModule&#45;&gt;OauthApiModule</title>
<path fill="none" stroke="black" d="M696.34,-66.8C704.69,-66.8 710.7,-66.8 710.7,-66.8 710.7,-66.8 710.7,-103.69 710.7,-103.69"/>
<polygon fill="black" stroke="black" points="707.2,-103.69 710.7,-113.69 714.2,-103.69 707.2,-103.69"/>
</g>
<!-- UserLoginMigrationModule -->
<g id="node8" class="node">
<title>UserLoginMigrationModule</title>
<polygon fill="#8dd3c7" stroke="black" points="577.92,-84.8 574.92,-88.8 553.92,-88.8 550.92,-84.8 402.08,-84.8 402.08,-48.8 577.92,-48.8 577.92,-84.8"/>
<text text-anchor="middle" x="490" y="-62.6" font-family="Times,serif" font-size="14.00">UserLoginMigrationModule</text>
</g>
<!-- UserLoginMigrationModule&#45;&gt;OauthApiModule -->
<g id="edge8" class="edge">
<title>UserLoginMigrationModule&#45;&gt;OauthApiModule</title>
<path fill="none" stroke="black" d="M490,-84.81C490,-100.85 490,-121.8 490,-121.8 490,-121.8 696.56,-121.8 696.56,-121.8"/>
<polygon fill="black" stroke="black" points="696.56,-125.3 706.56,-121.8 696.56,-118.3 696.56,-125.3"/>
</g>
<!-- UserModule -->
<g id="node9" class="node">
<title>UserModule</title>
<polygon fill="#8dd3c7" stroke="black" points="383.99,-84.8 380.99,-88.8 359.99,-88.8 356.99,-84.8 298.01,-84.8 298.01,-48.8 383.99,-48.8 383.99,-84.8"/>
<text text-anchor="middle" x="341" y="-62.6" font-family="Times,serif" font-size="14.00">UserModule</text>
</g>
<!-- UserModule&#45;&gt;OauthApiModule -->
<g id="edge9" class="edge">
<title>UserModule&#45;&gt;OauthApiModule</title>
<path fill="none" stroke="black" d="M341,-85.07C341,-103.36 341,-128.8 341,-128.8 341,-128.8 696.51,-128.8 696.51,-128.8"/>
<polygon fill="black" stroke="black" points="696.51,-132.3 706.51,-128.8 696.51,-125.3 696.51,-132.3"/>
</g>
<!-- HydraOauthUc -->
<g id="node11" class="node">
<title>HydraOauthUc</title>
<ellipse fill="#fdb462" stroke="black" cx="204" cy="-66.8" rx="70.06" ry="18"/>
<text text-anchor="middle" x="204" y="-62.6" font-family="Times,serif" font-size="14.00">HydraOauthUc</text>
</g>
<!-- HydraOauthUc&#45;&gt;OauthApiModule -->
<g id="edge10" class="edge">
<title>HydraOauthUc&#45;&gt;OauthApiModule</title>
<path fill="none" stroke="black" d="M204,-84.93C204,-105.37 204,-135.8 204,-135.8 204,-135.8 696.7,-135.8 696.7,-135.8"/>
<polygon fill="black" stroke="black" points="696.7,-139.3 706.7,-135.8 696.7,-132.3 696.7,-139.3"/>
</g>
<!-- OauthUc -->
<g id="node12" class="node">
<title>OauthUc</title>
<ellipse fill="#fdb462" stroke="black" cx="70" cy="-66.8" rx="45.79" ry="18"/>
<text text-anchor="middle" x="70" y="-62.6" font-family="Times,serif" font-size="14.00">OauthUc</text>
</g>
<!-- OauthUc&#45;&gt;OauthApiModule -->
<g id="edge11" class="edge">
<title>OauthUc&#45;&gt;OauthApiModule</title>
<path fill="none" stroke="black" d="M70,-84.81C70,-107.29 70,-142.8 70,-142.8 70,-142.8 696.62,-142.8 696.62,-142.8"/>
<polygon fill="black" stroke="black" points="696.62,-146.3 706.62,-142.8 696.62,-139.3 696.62,-146.3"/>
</g>
</g>
</svg>
