<?xml version="1.0" encoding="UTF-8" standalone="no"?>
<!DOCTYPE svg PUBLIC "-//W3C//DTD SVG 1.1//EN"
 "http://www.w3.org/Graphics/SVG/1.1/DTD/svg11.dtd">
<!-- Generated by graphviz version 2.47.0 (20210316.0004)
 -->
<!-- Title: dependencies Pages: 1 -->
<svg width="1580pt" height="211pt"
 viewBox="0.00 0.00 1580.00 211.00" xmlns="http://www.w3.org/2000/svg" xmlns:xlink="http://www.w3.org/1999/xlink">
<g id="graph0" class="graph" transform="scale(1 1) rotate(0) translate(4 207)">
<title>dependencies</title>
<polygon fill="white" stroke="transparent" points="-4,4 -4,-207 1576,-207 1576,4 -4,4"/>
<text text-anchor="start" x="765.01" y="-42.4" font-family="Times-12" font-weight="bold" font-size="14.00">Legend</text>
<polygon fill="#ffffb3" stroke="transparent" points="552,-10 552,-30 572,-30 572,-10 552,-10"/>
<text text-anchor="start" x="575.63" y="-15.4" font-family="Times-12" font-size="14.00"> &#160;Declarations</text>
<polygon fill="#8dd3c7" stroke="transparent" points="665,-10 665,-30 685,-30 685,-10 665,-10"/>
<text text-anchor="start" x="688.73" y="-15.4" font-family="Times-12" font-size="14.00"> &#160;Module</text>
<polygon fill="#80b1d3" stroke="transparent" points="751,-10 751,-30 771,-30 771,-10 751,-10"/>
<text text-anchor="start" x="774.78" y="-15.4" font-family="Times-12" font-size="14.00"> &#160;Bootstrap</text>
<polygon fill="#fdb462" stroke="transparent" points="848,-10 848,-30 868,-30 868,-10 848,-10"/>
<text text-anchor="start" x="871.67" y="-15.4" font-family="Times-12" font-size="14.00"> &#160;Providers</text>
<polygon fill="#fb8072" stroke="transparent" points="944,-10 944,-30 964,-30 964,-10 944,-10"/>
<text text-anchor="start" x="967.73" y="-15.4" font-family="Times-12" font-size="14.00"> &#160;Exports</text>
<g id="clust1" class="cluster">
<title>cluster_OauthApiModule</title>
<polygon fill="none" stroke="black" stroke-dasharray="1,5" points="8,-70 8,-195 1564,-195 1564,-70 8,-70"/>
</g>
<g id="clust3" class="cluster">
<title>cluster_OauthApiModule_imports</title>
<polygon fill="none" stroke="black" points="290,-78 290,-130 1556,-130 1556,-78 290,-78"/>
</g>
<g id="clust6" class="cluster">
<title>cluster_OauthApiModule_providers</title>
<polygon fill="none" stroke="black" points="16,-78 16,-130 282,-130 282,-78 16,-78"/>
</g>
<!-- AuthenticationModule -->
<g id="node1" class="node">
<title>AuthenticationModule</title>
<polygon fill="#8dd3c7" stroke="black" points="1548.25,-122 1545.25,-126 1524.25,-126 1521.25,-122 1405.75,-122 1405.75,-86 1548.25,-86 1548.25,-122"/>
<text text-anchor="middle" x="1477" y="-99.8" font-family="Times,serif" font-size="14.00">AuthenticationModule</text>
</g>
<!-- OauthApiModule -->
<g id="node10" class="node">
<title>OauthApiModule</title>
<polygon fill="#8dd3c7" stroke="black" points="837.26,-187 834.26,-191 813.26,-191 810.26,-187 722.74,-187 722.74,-151 837.26,-151 837.26,-187"/>
<text text-anchor="middle" x="780" y="-164.8" font-family="Times,serif" font-size="14.00">OauthApiModule</text>
</g>
<!-- AuthenticationModule&#45;&gt;OauthApiModule -->
<g id="edge1" class="edge">
<title>AuthenticationModule&#45;&gt;OauthApiModule</title>
<path fill="none" stroke="black" d="M1477,-122.09C1477,-145.13 1477,-182 1477,-182 1477,-182 847.33,-182 847.33,-182"/>
<polygon fill="black" stroke="black" points="847.33,-178.5 837.33,-182 847.33,-185.5 847.33,-178.5"/>
</g>
<!-- AuthorizationModule -->
<g id="node2" class="node">
<title>AuthorizationModule</title>
<polygon fill="#8dd3c7" stroke="black" points="1387.81,-122 1384.81,-126 1363.81,-126 1360.81,-122 1250.19,-122 1250.19,-86 1387.81,-86 1387.81,-122"/>
<text text-anchor="middle" x="1319" y="-99.8" font-family="Times,serif" font-size="14.00">AuthorizationModule</text>
</g>
<!-- AuthorizationModule&#45;&gt;OauthApiModule -->
<g id="edge2" class="edge">
<title>AuthorizationModule&#45;&gt;OauthApiModule</title>
<path fill="none" stroke="black" d="M1319,-122.28C1319,-143.32 1319,-175 1319,-175 1319,-175 847.43,-175 847.43,-175"/>
<polygon fill="black" stroke="black" points="847.43,-171.5 837.43,-175 847.43,-178.5 847.43,-171.5"/>
</g>
<!-- LegacySchoolModule -->
<g id="node3" class="node">
<title>LegacySchoolModule</title>
<polygon fill="#8dd3c7" stroke="black" points="1232.63,-122 1229.63,-126 1208.63,-126 1205.63,-122 1093.37,-122 1093.37,-86 1232.63,-86 1232.63,-122"/>
<text text-anchor="middle" x="1163" y="-99.8" font-family="Times,serif" font-size="14.00">LegacySchoolModule</text>
</g>
<!-- LegacySchoolModule&#45;&gt;OauthApiModule -->
<g id="edge3" class="edge">
<title>LegacySchoolModule&#45;&gt;OauthApiModule</title>
<path fill="none" stroke="black" d="M1163,-122.11C1163,-141.34 1163,-169 1163,-169 1163,-169 847.34,-169 847.34,-169"/>
<polygon fill="black" stroke="black" points="847.34,-165.5 837.34,-169 847.34,-172.5 847.34,-165.5"/>
</g>
<!-- LoggerModule -->
<g id="node4" class="node">
<title>LoggerModule</title>
<polygon fill="#8dd3c7" stroke="black" points="1074.98,-122 1071.98,-126 1050.98,-126 1047.98,-122 975.02,-122 975.02,-86 1074.98,-86 1074.98,-122"/>
<text text-anchor="middle" x="1025" y="-99.8" font-family="Times,serif" font-size="14.00">LoggerModule</text>
</g>
<!-- LoggerModule&#45;&gt;OauthApiModule -->
<g id="edge4" class="edge">
<title>LoggerModule&#45;&gt;OauthApiModule</title>
<path fill="none" stroke="black" d="M1025,-122.02C1025,-139.37 1025,-163 1025,-163 1025,-163 847.44,-163 847.44,-163"/>
<polygon fill="black" stroke="black" points="847.44,-159.5 837.44,-163 847.44,-166.5 847.44,-159.5"/>
</g>
<!-- OauthModule -->
<g id="node5" class="node">
<title>OauthModule</title>
<polygon fill="#8dd3c7" stroke="black" points="956.76,-122 953.76,-126 932.76,-126 929.76,-122 863.24,-122 863.24,-86 956.76,-86 956.76,-122"/>
<text text-anchor="middle" x="910" y="-99.8" font-family="Times,serif" font-size="14.00">OauthModule</text>
</g>
<!-- OauthModule&#45;&gt;OauthApiModule -->
<g id="edge5" class="edge">
<title>OauthModule&#45;&gt;OauthApiModule</title>
<path fill="none" stroke="black" d="M910,-122.24C910,-137.57 910,-157 910,-157 910,-157 847.4,-157 847.4,-157"/>
<polygon fill="black" stroke="black" points="847.4,-153.5 837.4,-157 847.4,-160.5 847.4,-153.5"/>
</g>
<!-- ProvisioningModule -->
<g id="node6" class="node">
<title>ProvisioningModule</title>
<polygon fill="#8dd3c7" stroke="black" points="845.61,-122 842.61,-126 821.61,-126 818.61,-122 714.39,-122 714.39,-86 845.61,-86 845.61,-122"/>
<text text-anchor="middle" x="780" y="-99.8" font-family="Times,serif" font-size="14.00">ProvisioningModule</text>
</g>
<!-- ProvisioningModule&#45;&gt;OauthApiModule -->
<g id="edge6" class="edge">
<title>ProvisioningModule&#45;&gt;OauthApiModule</title>
<path fill="none" stroke="black" d="M780,-122.11C780,-122.11 780,-140.99 780,-140.99"/>
<polygon fill="black" stroke="black" points="776.5,-140.99 780,-150.99 783.5,-140.99 776.5,-140.99"/>
</g>
<!-- SystemModule -->
<g id="node7" class="node">
<title>SystemModule</title>
<polygon fill="#8dd3c7" stroke="black" points="696.27,-122 693.27,-126 672.27,-126 669.27,-122 595.73,-122 595.73,-86 696.27,-86 696.27,-122"/>
<text text-anchor="middle" x="646" y="-99.8" font-family="Times,serif" font-size="14.00">SystemModule</text>
</g>
<!-- SystemModule&#45;&gt;OauthApiModule -->
<g id="edge7" class="edge">
<title>SystemModule&#45;&gt;OauthApiModule</title>
<path fill="none" stroke="black" d="M646,-122.24C646,-137.57 646,-157 646,-157 646,-157 712.39,-157 712.39,-157"/>
<polygon fill="black" stroke="black" points="712.39,-160.5 722.39,-157 712.39,-153.5 712.39,-160.5"/>
</g>
<!-- UserLoginMigrationModule -->
<g id="node8" class="node">
<title>UserLoginMigrationModule</title>
<polygon fill="#8dd3c7" stroke="black" points="577.91,-122 574.91,-126 553.91,-126 550.91,-122 402.09,-122 402.09,-86 577.91,-86 577.91,-122"/>
<text text-anchor="middle" x="490" y="-99.8" font-family="Times,serif" font-size="14.00">UserLoginMigrationModule</text>
</g>
<!-- UserLoginMigrationModule&#45;&gt;OauthApiModule -->
<g id="edge8" class="edge">
<title>UserLoginMigrationModule&#45;&gt;OauthApiModule</title>
<path fill="none" stroke="black" d="M490,-122.02C490,-139.37 490,-163 490,-163 490,-163 712.71,-163 712.71,-163"/>
<polygon fill="black" stroke="black" points="712.71,-166.5 722.71,-163 712.71,-159.5 712.71,-166.5"/>
</g>
<!-- UserModule -->
<g id="node9" class="node">
<title>UserModule</title>
<polygon fill="#8dd3c7" stroke="black" points="383.98,-122 380.98,-126 359.98,-126 356.98,-122 298.02,-122 298.02,-86 383.98,-86 383.98,-122"/>
<text text-anchor="middle" x="341" y="-99.8" font-family="Times,serif" font-size="14.00">UserModule</text>
</g>
<!-- UserModule&#45;&gt;OauthApiModule -->
<g id="edge9" class="edge">
<title>UserModule&#45;&gt;OauthApiModule</title>
<path fill="none" stroke="black" d="M341,-122.11C341,-141.34 341,-169 341,-169 341,-169 712.61,-169 712.61,-169"/>
<polygon fill="black" stroke="black" points="712.61,-172.5 722.61,-169 712.61,-165.5 712.61,-172.5"/>
</g>
<!-- HydraOauthUc -->
<g id="node11" class="node">
<title>HydraOauthUc</title>
<ellipse fill="#fdb462" stroke="black" cx="204" cy="-104" rx="70.05" ry="18"/>
<text text-anchor="middle" x="204" y="-99.8" font-family="Times,serif" font-size="14.00">HydraOauthUc</text>
</g>
<!-- HydraOauthUc&#45;&gt;OauthApiModule -->
<g id="edge10" class="edge">
<title>HydraOauthUc&#45;&gt;OauthApiModule</title>
<path fill="none" stroke="black" d="M204,-122.28C204,-143.32 204,-175 204,-175 204,-175 712.67,-175 712.67,-175"/>
<polygon fill="black" stroke="black" points="712.67,-178.5 722.67,-175 712.67,-171.5 712.67,-178.5"/>
</g>
<!-- OauthUc -->
<g id="node12" class="node">
<title>OauthUc</title>
<ellipse fill="#fdb462" stroke="black" cx="70" cy="-104" rx="45.79" ry="18"/>
<text text-anchor="middle" x="70" y="-99.8" font-family="Times,serif" font-size="14.00">OauthUc</text>
</g>
<!-- OauthUc&#45;&gt;OauthApiModule -->
<g id="edge11" class="edge">
<title>OauthUc&#45;&gt;OauthApiModule</title>
<path fill="none" stroke="black" d="M70,-122.09C70,-145.13 70,-182 70,-182 70,-182 712.5,-182 712.5,-182"/>
<polygon fill="black" stroke="black" points="712.5,-185.5 722.5,-182 712.5,-178.5 712.5,-185.5"/>
</g>
</g>
</svg>
