<?xml version="1.0" encoding="UTF-8" standalone="no"?>
<!DOCTYPE svg PUBLIC "-//W3C//DTD SVG 1.1//EN"
 "http://www.w3.org/Graphics/SVG/1.1/DTD/svg11.dtd">
<!-- Generated by graphviz version 5.0.0 (20220707.1540)
 -->
<!-- Title: dependencies Pages: 1 -->
<svg width="922pt" height="174pt"
 viewBox="0.00 0.00 922.00 173.80" xmlns="http://www.w3.org/2000/svg" xmlns:xlink="http://www.w3.org/1999/xlink">
<g id="graph0" class="graph" transform="scale(1 1) rotate(0) translate(4 169.8)">
<title>dependencies</title>
<polygon fill="white" stroke="transparent" points="-4,4 -4,-169.8 918,-169.8 918,4 -4,4"/>
<text text-anchor="middle" x="457" y="-8.2" font-family="sans-serif" font-size="14.00">dependencies</text>
<g id="clust1" class="cluster">
<title>cluster_SchoolApiModule</title>
<polygon fill="none" stroke="black" stroke-dasharray="1,5" points="8,-32.8 8,-157.8 906,-157.8 906,-32.8 8,-32.8"/>
</g>
<g id="clust6" class="cluster">
<title>cluster_SchoolApiModule_providers</title>
<polygon fill="none" stroke="black" points="606,-40.8 606,-92.8 898,-92.8 898,-40.8 606,-40.8"/>
</g>
<g id="clust3" class="cluster">
<title>cluster_SchoolApiModule_imports</title>
<polygon fill="none" stroke="black" points="16,-40.8 16,-92.8 598,-92.8 598,-40.8 16,-40.8"/>
</g>
<!-- AuthorizationModule -->
<g id="node1" class="node">
<title>AuthorizationModule</title>
<polygon fill="#8dd3c7" stroke="black" points="589.81,-84.8 586.81,-88.8 565.81,-88.8 562.81,-84.8 452.19,-84.8 452.19,-48.8 589.81,-48.8 589.81,-84.8"/>
<text text-anchor="middle" x="521" y="-62.6" font-family="Times,serif" font-size="14.00">AuthorizationModule</text>
</g>
<!-- SchoolApiModule -->
<g id="node5" class="node">
<title>SchoolApiModule</title>
<polygon fill="#8dd3c7" stroke="black" points="511.94,-149.8 508.94,-153.8 487.94,-153.8 484.94,-149.8 392.06,-149.8 392.06,-113.8 511.94,-113.8 511.94,-149.8"/>
<text text-anchor="middle" x="452" y="-127.6" font-family="Times,serif" font-size="14.00">SchoolApiModule</text>
</g>
<!-- AuthorizationModule&#45;&gt;SchoolApiModule -->
<g id="edge1" class="edge">
<title>AuthorizationModule&#45;&gt;SchoolApiModule</title>
<path fill="none" stroke="black" d="M482.03,-84.91C482.03,-84.91 482.03,-103.79 482.03,-103.79"/>
<polygon fill="black" stroke="black" points="478.53,-103.79 482.03,-113.79 485.53,-103.79 478.53,-103.79"/>
</g>
<!-- LoggerModule -->
<g id="node2" class="node">
<title>LoggerModule</title>
<polygon fill="#8dd3c7" stroke="black" points="433.98,-84.8 430.98,-88.8 409.98,-88.8 406.98,-84.8 334.02,-84.8 334.02,-48.8 433.98,-48.8 433.98,-84.8"/>
<text text-anchor="middle" x="384" y="-62.6" font-family="Times,serif" font-size="14.00">LoggerModule</text>
</g>
<!-- LoggerModule&#45;&gt;SchoolApiModule -->
<g id="edge2" class="edge">
<title>LoggerModule&#45;&gt;SchoolApiModule</title>
<path fill="none" stroke="black" d="M413.13,-84.91C413.13,-84.91 413.13,-103.79 413.13,-103.79"/>
<polygon fill="black" stroke="black" points="409.63,-103.79 413.13,-113.79 416.63,-103.79 409.63,-103.79"/>
</g>
<!-- SchoolModule -->
<g id="node3" class="node">
<title>SchoolModule</title>
<polygon fill="#8dd3c7" stroke="black" points="316.44,-84.8 313.44,-88.8 292.44,-88.8 289.44,-84.8 217.56,-84.8 217.56,-48.8 316.44,-48.8 316.44,-84.8"/>
<text text-anchor="middle" x="267" y="-62.6" font-family="Times,serif" font-size="14.00">SchoolModule</text>
</g>
<!-- SchoolModule&#45;&gt;SchoolApiModule -->
<g id="edge3" class="edge">
<title>SchoolModule&#45;&gt;SchoolApiModule</title>
<path fill="none" stroke="black" d="M267,-84.82C267,-102.17 267,-125.8 267,-125.8 267,-125.8 382.19,-125.8 382.19,-125.8"/>
<polygon fill="black" stroke="black" points="382.19,-129.3 392.19,-125.8 382.19,-122.3 382.19,-129.3"/>
</g>
<!-- UserLoginMigrationModule -->
<g id="node4" class="node">
<title>UserLoginMigrationModule</title>
<polygon fill="#8dd3c7" stroke="black" points="199.92,-84.8 196.92,-88.8 175.92,-88.8 172.92,-84.8 24.08,-84.8 24.08,-48.8 199.92,-48.8 199.92,-84.8"/>
<text text-anchor="middle" x="112" y="-62.6" font-family="Times,serif" font-size="14.00">UserLoginMigrationModule</text>
</g>
<!-- UserLoginMigrationModule&#45;&gt;SchoolApiModule -->
<g id="edge4" class="edge">
<title>UserLoginMigrationModule&#45;&gt;SchoolApiModule</title>
<path fill="none" stroke="black" d="M112,-85.08C112,-106.12 112,-137.8 112,-137.8 112,-137.8 382,-137.8 382,-137.8"/>
<polygon fill="black" stroke="black" points="382,-141.3 392,-137.8 382,-134.3 382,-141.3"/>
</g>
<!-- MigrationMapper -->
<g id="node6" class="node">
<title>MigrationMapper</title>
<ellipse fill="#fdb462" stroke="black" cx="810" cy="-66.8" rx="79.88" ry="18"/>
<text text-anchor="middle" x="810" y="-62.6" font-family="Times,serif" font-size="14.00">MigrationMapper</text>
</g>
<!-- MigrationMapper&#45;&gt;SchoolApiModule -->
<g id="edge5" class="edge">
<title>MigrationMapper&#45;&gt;SchoolApiModule</title>
<path fill="none" stroke="black" d="M810,-85.08C810,-106.12 810,-137.8 810,-137.8 810,-137.8 521.92,-137.8 521.92,-137.8"/>
<polygon fill="black" stroke="black" points="521.92,-134.3 511.92,-137.8 521.92,-141.3 521.92,-134.3"/>
</g>
<!-- SchoolUc -->
<g id="node7" class="node">
<title>SchoolUc</title>
<ellipse fill="#fdb462" stroke="black" cx="663" cy="-66.8" rx="49.24" ry="18"/>
<text text-anchor="middle" x="663" y="-62.6" font-family="Times,serif" font-size="14.00">SchoolUc</text>
</g>
<!-- SchoolUc&#45;&gt;SchoolApiModule -->
<g id="edge6" class="edge">
<title>SchoolUc&#45;&gt;SchoolApiModule</title>
<path fill="none" stroke="black" d="M663,-84.82C663,-102.17 663,-125.8 663,-125.8 663,-125.8 521.9,-125.8 521.9,-125.8"/>
<polygon fill="black" stroke="black" points="521.9,-122.3 511.9,-125.8 521.9,-129.3 521.9,-122.3"/>
</g>
</g>
</svg>
