<?xml version="1.0" encoding="UTF-8" standalone="no"?>
<!DOCTYPE svg PUBLIC "-//W3C//DTD SVG 1.1//EN"
 "http://www.w3.org/Graphics/SVG/1.1/DTD/svg11.dtd">
<!-- Generated by graphviz version 2.47.0 (20210316.0004)
 -->
<!-- Title: dependencies Pages: 1 -->
<svg width="979pt" height="211pt"
 viewBox="0.00 0.00 979.00 211.00" xmlns="http://www.w3.org/2000/svg" xmlns:xlink="http://www.w3.org/1999/xlink">
<g id="graph0" class="graph" transform="scale(1 1) rotate(0) translate(4 207)">
<title>dependencies</title>
<polygon fill="white" stroke="transparent" points="-4,4 -4,-207 975,-207 975,4 -4,4"/>
<text text-anchor="start" x="464.51" y="-42.4" font-family="Times-12" font-weight="bold" font-size="14.00">Legend</text>
<polygon fill="#ffffb3" stroke="transparent" points="251.5,-10 251.5,-30 271.5,-30 271.5,-10 251.5,-10"/>
<text text-anchor="start" x="275.13" y="-15.4" font-family="Times-12" font-size="14.00"> &#160;Declarations</text>
<polygon fill="#8dd3c7" stroke="transparent" points="364.5,-10 364.5,-30 384.5,-30 384.5,-10 364.5,-10"/>
<text text-anchor="start" x="388.23" y="-15.4" font-family="Times-12" font-size="14.00"> &#160;Module</text>
<polygon fill="#80b1d3" stroke="transparent" points="450.5,-10 450.5,-30 470.5,-30 470.5,-10 450.5,-10"/>
<text text-anchor="start" x="474.28" y="-15.4" font-family="Times-12" font-size="14.00"> &#160;Bootstrap</text>
<polygon fill="#fdb462" stroke="transparent" points="547.5,-10 547.5,-30 567.5,-30 567.5,-10 547.5,-10"/>
<text text-anchor="start" x="571.17" y="-15.4" font-family="Times-12" font-size="14.00"> &#160;Providers</text>
<polygon fill="#fb8072" stroke="transparent" points="643.5,-10 643.5,-30 663.5,-30 663.5,-10 643.5,-10"/>
<text text-anchor="start" x="667.23" y="-15.4" font-family="Times-12" font-size="14.00"> &#160;Exports</text>
<g id="clust1" class="cluster">
<title>cluster_SchoolApiModule</title>
<polygon fill="none" stroke="black" stroke-dasharray="1,5" points="8,-70 8,-195 963,-195 963,-70 8,-70"/>
</g>
<g id="clust6" class="cluster">
<title>cluster_SchoolApiModule_providers</title>
<polygon fill="none" stroke="black" points="606,-78 606,-130 955,-130 955,-78 606,-78"/>
</g>
<g id="clust3" class="cluster">
<title>cluster_SchoolApiModule_imports</title>
<polygon fill="none" stroke="black" points="16,-78 16,-130 598,-130 598,-78 16,-78"/>
</g>
<!-- AuthorizationModule -->
<g id="node1" class="node">
<title>AuthorizationModule</title>
<polygon fill="#8dd3c7" stroke="black" points="589.81,-122 586.81,-126 565.81,-126 562.81,-122 452.19,-122 452.19,-86 589.81,-86 589.81,-122"/>
<text text-anchor="middle" x="521" y="-99.8" font-family="Times,serif" font-size="14.00">AuthorizationModule</text>
</g>
<!-- SchoolApiModule -->
<g id="node5" class="node">
<title>SchoolApiModule</title>
<polygon fill="#8dd3c7" stroke="black" points="511.94,-187 508.94,-191 487.94,-191 484.94,-187 392.06,-187 392.06,-151 511.94,-151 511.94,-187"/>
<text text-anchor="middle" x="452" y="-164.8" font-family="Times,serif" font-size="14.00">SchoolApiModule</text>
</g>
<!-- AuthorizationModule&#45;&gt;SchoolApiModule -->
<g id="edge1" class="edge">
<title>AuthorizationModule&#45;&gt;SchoolApiModule</title>
<path fill="none" stroke="black" d="M482.03,-122.11C482.03,-122.11 482.03,-140.99 482.03,-140.99"/>
<polygon fill="black" stroke="black" points="478.53,-140.99 482.03,-150.99 485.53,-140.99 478.53,-140.99"/>
</g>
<!-- LoggerModule -->
<g id="node2" class="node">
<title>LoggerModule</title>
<polygon fill="#8dd3c7" stroke="black" points="433.98,-122 430.98,-126 409.98,-126 406.98,-122 334.02,-122 334.02,-86 433.98,-86 433.98,-122"/>
<text text-anchor="middle" x="384" y="-99.8" font-family="Times,serif" font-size="14.00">LoggerModule</text>
</g>
<!-- LoggerModule&#45;&gt;SchoolApiModule -->
<g id="edge2" class="edge">
<title>LoggerModule&#45;&gt;SchoolApiModule</title>
<path fill="none" stroke="black" d="M413.14,-122.11C413.14,-122.11 413.14,-140.99 413.14,-140.99"/>
<polygon fill="black" stroke="black" points="409.64,-140.99 413.14,-150.99 416.64,-140.99 409.64,-140.99"/>
</g>
<!-- SchoolModule -->
<g id="node3" class="node">
<title>SchoolModule</title>
<polygon fill="#8dd3c7" stroke="black" points="316.44,-122 313.44,-126 292.44,-126 289.44,-122 217.56,-122 217.56,-86 316.44,-86 316.44,-122"/>
<text text-anchor="middle" x="267" y="-99.8" font-family="Times,serif" font-size="14.00">SchoolModule</text>
</g>
<!-- SchoolModule&#45;&gt;SchoolApiModule -->
<g id="edge3" class="edge">
<title>SchoolModule&#45;&gt;SchoolApiModule</title>
<path fill="none" stroke="black" d="M267,-122.02C267,-139.37 267,-163 267,-163 267,-163 382.19,-163 382.19,-163"/>
<polygon fill="black" stroke="black" points="382.19,-166.5 392.19,-163 382.19,-159.5 382.19,-166.5"/>
</g>
<!-- UserLoginMigrationModule -->
<g id="node4" class="node">
<title>UserLoginMigrationModule</title>
<polygon fill="#8dd3c7" stroke="black" points="199.91,-122 196.91,-126 175.91,-126 172.91,-122 24.09,-122 24.09,-86 199.91,-86 199.91,-122"/>
<text text-anchor="middle" x="112" y="-99.8" font-family="Times,serif" font-size="14.00">UserLoginMigrationModule</text>
</g>
<!-- UserLoginMigrationModule&#45;&gt;SchoolApiModule -->
<g id="edge4" class="edge">
<title>UserLoginMigrationModule&#45;&gt;SchoolApiModule</title>
<path fill="none" stroke="black" d="M112,-122.28C112,-143.32 112,-175 112,-175 112,-175 382,-175 382,-175"/>
<polygon fill="black" stroke="black" points="382,-178.5 392,-175 382,-171.5 382,-178.5"/>
</g>
<!-- LegacySchoolUc -->
<g id="node6" class="node">
<title>LegacySchoolUc</title>
<ellipse fill="#fdb462" stroke="black" cx="869" cy="-104" rx="77.57" ry="18"/>
<text text-anchor="middle" x="869" y="-99.8" font-family="Times,serif" font-size="14.00">LegacySchoolUc</text>
</g>
<!-- LegacySchoolUc&#45;&gt;SchoolApiModule -->
<g id="edge5" class="edge">
<title>LegacySchoolUc&#45;&gt;SchoolApiModule</title>
<path fill="none" stroke="black" d="M869,-122.28C869,-143.32 869,-175 869,-175 869,-175 521.75,-175 521.75,-175"/>
<polygon fill="black" stroke="black" points="521.75,-171.5 511.75,-175 521.75,-178.5 521.75,-171.5"/>
</g>
<!-- MigrationMapper -->
<g id="node7" class="node">
<title>MigrationMapper</title>
<ellipse fill="#fdb462" stroke="black" cx="694" cy="-104" rx="79.88" ry="18"/>
<text text-anchor="middle" x="694" y="-99.8" font-family="Times,serif" font-size="14.00">MigrationMapper</text>
</g>
<!-- MigrationMapper&#45;&gt;SchoolApiModule -->
<g id="edge6" class="edge">
<title>MigrationMapper&#45;&gt;SchoolApiModule</title>
<path fill="none" stroke="black" d="M694,-122.02C694,-139.37 694,-163 694,-163 694,-163 521.82,-163 521.82,-163"/>
<polygon fill="black" stroke="black" points="521.82,-159.5 511.82,-163 521.82,-166.5 521.82,-159.5"/>
</g>
</g>
</svg>
