<?xml version="1.0" encoding="UTF-8" standalone="no"?>
<!DOCTYPE svg PUBLIC "-//W3C//DTD SVG 1.1//EN"
 "http://www.w3.org/Graphics/SVG/1.1/DTD/svg11.dtd">
<!-- Generated by graphviz version 2.47.0 (20210316.0004)
 -->
<!-- Title: dependencies Pages: 1 -->
<svg width="979pt" height="211pt"
 viewBox="0.00 0.00 979.00 211.00" xmlns="http://www.w3.org/2000/svg" xmlns:xlink="http://www.w3.org/1999/xlink">
<g id="graph0" class="graph" transform="scale(1 1) rotate(0) translate(4 207)">
<title>dependencies</title>
<polygon fill="white" stroke="transparent" points="-4,4 -4,-207 975,-207 975,4 -4,4"/>
<text text-anchor="start" x="464.51" y="-42.4" font-family="Times-12" font-weight="bold" font-size="14.00">Legend</text>
<polygon fill="#ffffb3" stroke="transparent" points="251.5,-10 251.5,-30 271.5,-30 271.5,-10 251.5,-10"/>
<text text-anchor="start" x="275.13" y="-15.4" font-family="Times-12" font-size="14.00"> &#160;Declarations</text>
<polygon fill="#8dd3c7" stroke="transparent" points="364.5,-10 364.5,-30 384.5,-30 384.5,-10 364.5,-10"/>
<text text-anchor="start" x="388.23" y="-15.4" font-family="Times-12" font-size="14.00"> &#160;Module</text>
<polygon fill="#80b1d3" stroke="transparent" points="450.5,-10 450.5,-30 470.5,-30 470.5,-10 450.5,-10"/>
<text text-anchor="start" x="474.28" y="-15.4" font-family="Times-12" font-size="14.00"> &#160;Bootstrap</text>
<polygon fill="#fdb462" stroke="transparent" points="547.5,-10 547.5,-30 567.5,-30 567.5,-10 547.5,-10"/>
<text text-anchor="start" x="571.17" y="-15.4" font-family="Times-12" font-size="14.00"> &#160;Providers</text>
<polygon fill="#fb8072" stroke="transparent" points="643.5,-10 643.5,-30 663.5,-30 663.5,-10 643.5,-10"/>
<text text-anchor="start" x="667.23" y="-15.4" font-family="Times-12" font-size="14.00"> &#160;Exports</text>
<g id="clust1" class="cluster">
<title>cluster_SchoolApiModule</title>
<polygon fill="none" stroke="black" stroke-dasharray="1,5" points="8,-70 8,-195 963,-195 963,-70 8,-70"/>
</g>
<g id="clust3" class="cluster">
<title>cluster_SchoolApiModule_imports</title>
<polygon fill="none" stroke="black" points="373,-78 373,-130 955,-130 955,-78 373,-78"/>
</g>
<g id="clust6" class="cluster">
<title>cluster_SchoolApiModule_providers</title>
<polygon fill="none" stroke="black" points="16,-78 16,-130 365,-130 365,-78 16,-78"/>
</g>
<!-- AuthorizationModule -->
<g id="node1" class="node">
<title>AuthorizationModule</title>
<polygon fill="#8dd3c7" stroke="black" points="946.81,-122 943.81,-126 922.81,-126 919.81,-122 809.19,-122 809.19,-86 946.81,-86 946.81,-122"/>
<text text-anchor="middle" x="878" y="-99.8" font-family="Times,serif" font-size="14.00">AuthorizationModule</text>
</g>
<!-- SchoolApiModule -->
<g id="node5" class="node">
<title>SchoolApiModule</title>
<polygon fill="#8dd3c7" stroke="black" points="605.94,-187 602.94,-191 581.94,-191 578.94,-187 486.06,-187 486.06,-151 605.94,-151 605.94,-187"/>
<text text-anchor="middle" x="546" y="-164.8" font-family="Times,serif" font-size="14.00">SchoolApiModule</text>
</g>
<!-- AuthorizationModule&#45;&gt;SchoolApiModule -->
<g id="edge1" class="edge">
<title>AuthorizationModule&#45;&gt;SchoolApiModule</title>
<path fill="none" stroke="black" d="M878,-122.28C878,-143.32 878,-175 878,-175 878,-175 615.74,-175 615.74,-175"/>
<polygon fill="black" stroke="black" points="615.74,-171.5 605.74,-175 615.74,-178.5 615.74,-171.5"/>
</g>
<!-- LoggerModule -->
<g id="node2" class="node">
<title>LoggerModule</title>
<polygon fill="#8dd3c7" stroke="black" points="790.98,-122 787.98,-126 766.98,-126 763.98,-122 691.02,-122 691.02,-86 790.98,-86 790.98,-122"/>
<text text-anchor="middle" x="741" y="-99.8" font-family="Times,serif" font-size="14.00">LoggerModule</text>
</g>
<!-- LoggerModule&#45;&gt;SchoolApiModule -->
<g id="edge2" class="edge">
<title>LoggerModule&#45;&gt;SchoolApiModule</title>
<path fill="none" stroke="black" d="M741,-122.02C741,-139.37 741,-163 741,-163 741,-163 615.83,-163 615.83,-163"/>
<polygon fill="black" stroke="black" points="615.83,-159.5 605.83,-163 615.83,-166.5 615.83,-159.5"/>
</g>
<!-- SchoolModule -->
<g id="node3" class="node">
<title>SchoolModule</title>
<polygon fill="#8dd3c7" stroke="black" points="673.44,-122 670.44,-126 649.44,-126 646.44,-122 574.56,-122 574.56,-86 673.44,-86 673.44,-122"/>
<text text-anchor="middle" x="624" y="-99.8" font-family="Times,serif" font-size="14.00">SchoolModule</text>
</g>
<!-- SchoolModule&#45;&gt;SchoolApiModule -->
<g id="edge3" class="edge">
<title>SchoolModule&#45;&gt;SchoolApiModule</title>
<path fill="none" stroke="black" d="M590.25,-122.11C590.25,-122.11 590.25,-140.99 590.25,-140.99"/>
<polygon fill="black" stroke="black" points="586.75,-140.99 590.25,-150.99 593.75,-140.99 586.75,-140.99"/>
</g>
<!-- UserLoginMigrationModule -->
<g id="node4" class="node">
<title>UserLoginMigrationModule</title>
<polygon fill="#8dd3c7" stroke="black" points="556.91,-122 553.91,-126 532.91,-126 529.91,-122 381.09,-122 381.09,-86 556.91,-86 556.91,-122"/>
<text text-anchor="middle" x="469" y="-99.8" font-family="Times,serif" font-size="14.00">UserLoginMigrationModule</text>
</g>
<!-- UserLoginMigrationModule&#45;&gt;SchoolApiModule -->
<g id="edge4" class="edge">
<title>UserLoginMigrationModule&#45;&gt;SchoolApiModule</title>
<path fill="none" stroke="black" d="M521.49,-122.11C521.49,-122.11 521.49,-140.99 521.49,-140.99"/>
<polygon fill="black" stroke="black" points="517.99,-140.99 521.49,-150.99 524.99,-140.99 517.99,-140.99"/>
</g>
<!-- LegacySchoolUc -->
<g id="node6" class="node">
<title>LegacySchoolUc</title>
<ellipse fill="#fdb462" stroke="black" cx="279" cy="-104" rx="77.57" ry="18"/>
<text text-anchor="middle" x="279" y="-99.8" font-family="Times,serif" font-size="14.00">LegacySchoolUc</text>
</g>
<!-- LegacySchoolUc&#45;&gt;SchoolApiModule -->
<g id="edge5" class="edge">
<title>LegacySchoolUc&#45;&gt;SchoolApiModule</title>
<path fill="none" stroke="black" d="M279,-122.02C279,-139.37 279,-163 279,-163 279,-163 476.08,-163 476.08,-163"/>
<polygon fill="black" stroke="black" points="476.08,-166.5 486.08,-163 476.08,-159.5 476.08,-166.5"/>
</g>
<!-- MigrationMapper -->
<g id="node7" class="node">
<title>MigrationMapper</title>
<ellipse fill="#fdb462" stroke="black" cx="104" cy="-104" rx="79.88" ry="18"/>
<text text-anchor="middle" x="104" y="-99.8" font-family="Times,serif" font-size="14.00">MigrationMapper</text>
</g>
<!-- MigrationMapper&#45;&gt;SchoolApiModule -->
<g id="edge6" class="edge">
<title>MigrationMapper&#45;&gt;SchoolApiModule</title>
<path fill="none" stroke="black" d="M104,-122.28C104,-143.32 104,-175 104,-175 104,-175 475.93,-175 475.93,-175"/>
<polygon fill="black" stroke="black" points="475.93,-178.5 485.93,-175 475.93,-171.5 475.93,-178.5"/>
</g>
</g>
</svg>
