<?xml version="1.0" encoding="UTF-8" standalone="no"?>
<!DOCTYPE svg PUBLIC "-//W3C//DTD SVG 1.1//EN"
 "http://www.w3.org/Graphics/SVG/1.1/DTD/svg11.dtd">
<!-- Generated by graphviz version 5.0.0 (20220707.1540)
 -->
<!-- Title: dependencies Pages: 1 -->
<svg width="922pt" height="174pt"
 viewBox="0.00 0.00 922.00 173.80" xmlns="http://www.w3.org/2000/svg" xmlns:xlink="http://www.w3.org/1999/xlink">
<g id="graph0" class="graph" transform="scale(1 1) rotate(0) translate(4 169.8)">
<title>dependencies</title>
<polygon fill="white" stroke="transparent" points="-4,4 -4,-169.8 918,-169.8 918,4 -4,4"/>
<text text-anchor="middle" x="457" y="-8.2" font-family="sans-serif" font-size="14.00">dependencies</text>
<g id="clust1" class="cluster">
<title>cluster_SchoolApiModule</title>
<polygon fill="none" stroke="black" stroke-dasharray="1,5" points="8,-32.8 8,-157.8 906,-157.8 906,-32.8 8,-32.8"/>
</g>
<g id="clust3" class="cluster">
<title>cluster_SchoolApiModule_imports</title>
<polygon fill="none" stroke="black" points="316,-40.8 316,-92.8 898,-92.8 898,-40.8 316,-40.8"/>
</g>
<g id="clust6" class="cluster">
<title>cluster_SchoolApiModule_providers</title>
<polygon fill="none" stroke="black" points="16,-40.8 16,-92.8 308,-92.8 308,-40.8 16,-40.8"/>
</g>
<!-- AuthorizationModule -->
<g id="node1" class="node">
<title>AuthorizationModule</title>
<polygon fill="#8dd3c7" stroke="black" points="889.81,-84.8 886.81,-88.8 865.81,-88.8 862.81,-84.8 752.19,-84.8 752.19,-48.8 889.81,-48.8 889.81,-84.8"/>
<text text-anchor="middle" x="821" y="-62.6" font-family="Times,serif" font-size="14.00">AuthorizationModule</text>
</g>
<!-- SchoolApiModule -->
<g id="node5" class="node">
<title>SchoolApiModule</title>
<polygon fill="#8dd3c7" stroke="black" points="548.94,-149.8 545.94,-153.8 524.94,-153.8 521.94,-149.8 429.06,-149.8 429.06,-113.8 548.94,-113.8 548.94,-149.8"/>
<text text-anchor="middle" x="489" y="-127.6" font-family="Times,serif" font-size="14.00">SchoolApiModule</text>
</g>
<!-- AuthorizationModule&#45;&gt;SchoolApiModule -->
<g id="edge1" class="edge">
<title>AuthorizationModule&#45;&gt;SchoolApiModule</title>
<path fill="none" stroke="black" d="M821,-85.08C821,-106.12 821,-137.8 821,-137.8 821,-137.8 558.74,-137.8 558.74,-137.8"/>
<polygon fill="black" stroke="black" points="558.74,-134.3 548.74,-137.8 558.74,-141.3 558.74,-134.3"/>
</g>
<!-- LoggerModule -->
<g id="node2" class="node">
<title>LoggerModule</title>
<polygon fill="#8dd3c7" stroke="black" points="733.98,-84.8 730.98,-88.8 709.98,-88.8 706.98,-84.8 634.02,-84.8 634.02,-48.8 733.98,-48.8 733.98,-84.8"/>
<text text-anchor="middle" x="684" y="-62.6" font-family="Times,serif" font-size="14.00">LoggerModule</text>
</g>
<!-- LoggerModule&#45;&gt;SchoolApiModule -->
<g id="edge2" class="edge">
<title>LoggerModule&#45;&gt;SchoolApiModule</title>
<path fill="none" stroke="black" d="M684,-84.82C684,-102.17 684,-125.8 684,-125.8 684,-125.8 558.83,-125.8 558.83,-125.8"/>
<polygon fill="black" stroke="black" points="558.83,-122.3 548.83,-125.8 558.83,-129.3 558.83,-122.3"/>
</g>
<!-- SchoolModule -->
<g id="node3" class="node">
<title>SchoolModule</title>
<polygon fill="#8dd3c7" stroke="black" points="616.44,-84.8 613.44,-88.8 592.44,-88.8 589.44,-84.8 517.56,-84.8 517.56,-48.8 616.44,-48.8 616.44,-84.8"/>
<text text-anchor="middle" x="567" y="-62.6" font-family="Times,serif" font-size="14.00">SchoolModule</text>
</g>
<!-- SchoolModule&#45;&gt;SchoolApiModule -->
<g id="edge3" class="edge">
<title>SchoolModule&#45;&gt;SchoolApiModule</title>
<path fill="none" stroke="black" d="M533.25,-84.91C533.25,-84.91 533.25,-103.79 533.25,-103.79"/>
<polygon fill="black" stroke="black" points="529.75,-103.79 533.25,-113.79 536.75,-103.79 529.75,-103.79"/>
</g>
<!-- UserLoginMigrationModule -->
<g id="node4" class="node">
<title>UserLoginMigrationModule</title>
<polygon fill="#8dd3c7" stroke="black" points="499.92,-84.8 496.92,-88.8 475.92,-88.8 472.92,-84.8 324.08,-84.8 324.08,-48.8 499.92,-48.8 499.92,-84.8"/>
<text text-anchor="middle" x="412" y="-62.6" font-family="Times,serif" font-size="14.00">UserLoginMigrationModule</text>
</g>
<!-- UserLoginMigrationModule&#45;&gt;SchoolApiModule -->
<g id="edge4" class="edge">
<title>UserLoginMigrationModule&#45;&gt;SchoolApiModule</title>
<path fill="none" stroke="black" d="M464.49,-84.91C464.49,-84.91 464.49,-103.79 464.49,-103.79"/>
<polygon fill="black" stroke="black" points="460.99,-103.79 464.49,-113.79 467.99,-103.79 460.99,-103.79"/>
</g>
<!-- MigrationMapper -->
<g id="node6" class="node">
<title>MigrationMapper</title>
<ellipse fill="#fdb462" stroke="black" cx="220" cy="-66.8" rx="79.88" ry="18"/>
<text text-anchor="middle" x="220" y="-62.6" font-family="Times,serif" font-size="14.00">MigrationMapper</text>
</g>
<!-- MigrationMapper&#45;&gt;SchoolApiModule -->
<g id="edge5" class="edge">
<title>MigrationMapper&#45;&gt;SchoolApiModule</title>
<path fill="none" stroke="black" d="M220,-84.82C220,-102.17 220,-125.8 220,-125.8 220,-125.8 418.97,-125.8 418.97,-125.8"/>
<polygon fill="black" stroke="black" points="418.97,-129.3 428.97,-125.8 418.97,-122.3 418.97,-129.3"/>
</g>
<!-- SchoolUc -->
<g id="node7" class="node">
<title>SchoolUc</title>
<ellipse fill="#fdb462" stroke="black" cx="73" cy="-66.8" rx="49.24" ry="18"/>
<text text-anchor="middle" x="73" y="-62.6" font-family="Times,serif" font-size="14.00">SchoolUc</text>
</g>
<!-- SchoolUc&#45;&gt;SchoolApiModule -->
<g id="edge6" class="edge">
<title>SchoolUc&#45;&gt;SchoolApiModule</title>
<path fill="none" stroke="black" d="M73,-85.08C73,-106.12 73,-137.8 73,-137.8 73,-137.8 418.95,-137.8 418.95,-137.8"/>
<polygon fill="black" stroke="black" points="418.95,-141.3 428.95,-137.8 418.95,-134.3 418.95,-141.3"/>
</g>
</g>
</svg>
