<?xml version="1.0" encoding="UTF-8" standalone="no"?>
<!DOCTYPE svg PUBLIC "-//W3C//DTD SVG 1.1//EN"
 "http://www.w3.org/Graphics/SVG/1.1/DTD/svg11.dtd">
<!-- Generated by graphviz version 2.47.0 (20210316.0004)
 -->
<!-- Title: dependencies Pages: 1 -->
<svg width="504pt" height="211pt"
 viewBox="0.00 0.00 504.00 211.00" xmlns="http://www.w3.org/2000/svg" xmlns:xlink="http://www.w3.org/1999/xlink">
<g id="graph0" class="graph" transform="scale(1 1) rotate(0) translate(4 207)">
<title>dependencies</title>
<polygon fill="white" stroke="transparent" points="-4,4 -4,-207 500,-207 500,4 -4,4"/>
<text text-anchor="start" x="227.01" y="-42.4" font-family="Times-12" font-weight="bold" font-size="14.00">Legend</text>
<polygon fill="#ffffb3" stroke="transparent" points="14,-10 14,-30 34,-30 34,-10 14,-10"/>
<text text-anchor="start" x="37.63" y="-15.4" font-family="Times-12" font-size="14.00"> &#160;Declarations</text>
<polygon fill="#8dd3c7" stroke="transparent" points="127,-10 127,-30 147,-30 147,-10 127,-10"/>
<text text-anchor="start" x="150.73" y="-15.4" font-family="Times-12" font-size="14.00"> &#160;Module</text>
<polygon fill="#80b1d3" stroke="transparent" points="213,-10 213,-30 233,-30 233,-10 213,-10"/>
<text text-anchor="start" x="236.78" y="-15.4" font-family="Times-12" font-size="14.00"> &#160;Bootstrap</text>
<polygon fill="#fdb462" stroke="transparent" points="310,-10 310,-30 330,-30 330,-10 310,-10"/>
<text text-anchor="start" x="333.67" y="-15.4" font-family="Times-12" font-size="14.00"> &#160;Providers</text>
<polygon fill="#fb8072" stroke="transparent" points="406,-10 406,-30 426,-30 426,-10 406,-10"/>
<text text-anchor="start" x="429.73" y="-15.4" font-family="Times-12" font-size="14.00"> &#160;Exports</text>
<g id="clust1" class="cluster">
<title>cluster_SchoolApiModule</title>
<polygon fill="none" stroke="black" stroke-dasharray="1,5" points="44,-70 44,-195 452,-195 452,-70 44,-70"/>
</g>
<g id="clust6" class="cluster">
<title>cluster_SchoolApiModule_providers</title>
<polygon fill="none" stroke="black" points="330,-78 330,-130 444,-130 444,-78 330,-78"/>
</g>
<g id="clust3" class="cluster">
<title>cluster_SchoolApiModule_imports</title>
<polygon fill="none" stroke="black" points="52,-78 52,-130 322,-130 322,-78 52,-78"/>
</g>
<!-- AuthorizationModule -->
<g id="node1" class="node">
<title>AuthorizationModule</title>
<polygon fill="#8dd3c7" stroke="black" points="313.81,-122 310.81,-126 289.81,-126 286.81,-122 176.19,-122 176.19,-86 313.81,-86 313.81,-122"/>
<text text-anchor="middle" x="245" y="-99.8" font-family="Times,serif" font-size="14.00">AuthorizationModule</text>
</g>
<!-- SchoolApiModule -->
<g id="node3" class="node">
<title>SchoolApiModule</title>
<polygon fill="#8dd3c7" stroke="black" points="304.94,-187 301.94,-191 280.94,-191 277.94,-187 185.06,-187 185.06,-151 304.94,-151 304.94,-187"/>
<text text-anchor="middle" x="245" y="-164.8" font-family="Times,serif" font-size="14.00">SchoolApiModule</text>
</g>
<!-- AuthorizationModule&#45;&gt;SchoolApiModule -->
<g id="edge1" class="edge">
<title>AuthorizationModule&#45;&gt;SchoolApiModule</title>
<path fill="none" stroke="black" d="M245,-122.11C245,-122.11 245,-140.99 245,-140.99"/>
<polygon fill="black" stroke="black" points="241.5,-140.99 245,-150.99 248.5,-140.99 241.5,-140.99"/>
</g>
<!-- SchoolModule -->
<g id="node2" class="node">
<title>SchoolModule</title>
<polygon fill="#8dd3c7" stroke="black" points="158.44,-122 155.44,-126 134.44,-126 131.44,-122 59.56,-122 59.56,-86 158.44,-86 158.44,-122"/>
<text text-anchor="middle" x="109" y="-99.8" font-family="Times,serif" font-size="14.00">SchoolModule</text>
</g>
<!-- SchoolModule&#45;&gt;SchoolApiModule -->
<g id="edge2" class="edge">
<title>SchoolModule&#45;&gt;SchoolApiModule</title>
<path fill="none" stroke="black" d="M109,-122.11C109,-141.34 109,-169 109,-169 109,-169 174.95,-169 174.95,-169"/>
<polygon fill="black" stroke="black" points="174.95,-172.5 184.95,-169 174.95,-165.5 174.95,-172.5"/>
</g>
<!-- SchoolUc -->
<g id="node4" class="node">
<title>SchoolUc</title>
<ellipse fill="#fdb462" stroke="black" cx="387" cy="-104" rx="49.24" ry="18"/>
<text text-anchor="middle" x="387" y="-99.8" font-family="Times,serif" font-size="14.00">SchoolUc</text>
</g>
<!-- SchoolUc&#45;&gt;SchoolApiModule -->
<g id="edge3" class="edge">
<title>SchoolUc&#45;&gt;SchoolApiModule</title>
<path fill="none" stroke="black" d="M387,-122.11C387,-141.34 387,-169 387,-169 387,-169 314.81,-169 314.81,-169"/>
<polygon fill="black" stroke="black" points="314.81,-165.5 304.81,-169 314.81,-172.5 314.81,-165.5"/>
</g>
</g>
</svg>
