<?xml version="1.0" encoding="UTF-8" standalone="no"?>
<!DOCTYPE svg PUBLIC "-//W3C//DTD SVG 1.1//EN"
 "http://www.w3.org/Graphics/SVG/1.1/DTD/svg11.dtd">
<!-- Generated by graphviz version 5.0.0 (20220707.1540)
 -->
<!-- Title: dependencies Pages: 1 -->
<svg width="1230pt" height="247pt"
 viewBox="0.00 0.00 1230.00 246.80" xmlns="http://www.w3.org/2000/svg" xmlns:xlink="http://www.w3.org/1999/xlink">
<g id="graph0" class="graph" transform="scale(1 1) rotate(0) translate(4 242.8)">
<title>dependencies</title>
<polygon fill="white" stroke="transparent" points="-4,4 -4,-242.8 1226,-242.8 1226,4 -4,4"/>
<text text-anchor="middle" x="611" y="-8.2" font-family="sans-serif" font-size="14.00">dependencies</text>
<g id="clust1" class="cluster">
<title>cluster_KeycloakModule</title>
<polygon fill="none" stroke="black" stroke-dasharray="1,5" points="8,-32.8 8,-230.8 1214,-230.8 1214,-32.8 8,-32.8"/>
</g>
<g id="clust6" class="cluster">
<title>cluster_KeycloakModule_providers</title>
<polygon fill="none" stroke="black" points="496,-40.8 496,-92.8 1206,-92.8 1206,-40.8 496,-40.8"/>
</g>
<g id="clust4" class="cluster">
<title>cluster_KeycloakModule_exports</title>
<polygon fill="none" stroke="black" points="162,-170.8 162,-222.8 694,-222.8 694,-170.8 162,-170.8"/>
</g>
<g id="clust3" class="cluster">
<title>cluster_KeycloakModule_imports</title>
<polygon fill="none" stroke="black" points="16,-40.8 16,-92.8 488,-92.8 488,-40.8 16,-40.8"/>
</g>
<!-- EncryptionModule -->
<g id="node1" class="node">
<title>EncryptionModule</title>
<polygon fill="#8dd3c7" stroke="black" points="479.76,-84.8 476.76,-88.8 455.76,-88.8 452.76,-84.8 358.24,-84.8 358.24,-48.8 479.76,-48.8 479.76,-84.8"/>
<text text-anchor="middle" x="419" y="-62.6" font-family="Times,serif" font-size="14.00">EncryptionModule</text>
</g>
<!-- KeycloakModule -->
<g id="node4" class="node">
<title>KeycloakModule</title>
<polygon fill="#8dd3c7" stroke="black" points="475.69,-149.8 472.69,-153.8 451.69,-153.8 448.69,-149.8 362.31,-149.8 362.31,-113.8 475.69,-113.8 475.69,-149.8"/>
<text text-anchor="middle" x="419" y="-127.6" font-family="Times,serif" font-size="14.00">KeycloakModule</text>
</g>
<!-- EncryptionModule&#45;&gt;KeycloakModule -->
<g id="edge1" class="edge">
<title>EncryptionModule&#45;&gt;KeycloakModule</title>
<path fill="none" stroke="black" d="M419,-84.91C419,-84.91 419,-103.79 419,-103.79"/>
<polygon fill="black" stroke="black" points="415.5,-103.79 419,-113.79 422.5,-103.79 415.5,-103.79"/>
</g>
<!-- KeycloakAdministrationModule -->
<g id="node2" class="node">
<title>KeycloakAdministrationModule</title>
<polygon fill="#8dd3c7" stroke="black" points="339.97,-84.8 336.97,-88.8 315.97,-88.8 312.97,-84.8 142.03,-84.8 142.03,-48.8 339.97,-48.8 339.97,-84.8"/>
<text text-anchor="middle" x="241" y="-62.6" font-family="Times,serif" font-size="14.00">KeycloakAdministrationModule</text>
</g>
<!-- KeycloakAdministrationModule&#45;&gt;KeycloakModule -->
<g id="edge2" class="edge">
<title>KeycloakAdministrationModule&#45;&gt;KeycloakModule</title>
<path fill="none" stroke="black" d="M255.05,-84.82C255.05,-102.17 255.05,-125.8 255.05,-125.8 255.05,-125.8 352.12,-125.8 352.12,-125.8"/>
<polygon fill="black" stroke="black" points="352.12,-129.3 362.12,-125.8 352.12,-122.3 352.12,-129.3"/>
</g>
<!-- LoggerModule -->
<g id="node3" class="node">
<title>LoggerModule</title>
<polygon fill="#8dd3c7" stroke="black" points="123.98,-84.8 120.98,-88.8 99.98,-88.8 96.98,-84.8 24.02,-84.8 24.02,-48.8 123.98,-48.8 123.98,-84.8"/>
<text text-anchor="middle" x="74" y="-62.6" font-family="Times,serif" font-size="14.00">LoggerModule</text>
</g>
<!-- LoggerModule&#45;&gt;KeycloakModule -->
<g id="edge3" class="edge">
<title>LoggerModule&#45;&gt;KeycloakModule</title>
<path fill="none" stroke="black" d="M74,-85.08C74,-106.12 74,-137.8 74,-137.8 74,-137.8 352.03,-137.8 352.03,-137.8"/>
<polygon fill="black" stroke="black" points="352.03,-141.3 362.03,-137.8 352.03,-134.3 352.03,-141.3"/>
</g>
<!-- KeycloakIdentityManagementOauthService  -->
<g id="node5" class="node">
<title>KeycloakIdentityManagementOauthService </title>
<polygon fill="#fb8072" stroke="black" points="685.96,-214.8 420.04,-214.8 420.04,-178.8 685.96,-178.8 685.96,-214.8"/>
<text text-anchor="middle" x="553" y="-192.6" font-family="Times,serif" font-size="14.00">KeycloakIdentityManagementOauthService </text>
</g>
<!-- KeycloakModule&#45;&gt;KeycloakIdentityManagementOauthService  -->
<g id="edge4" class="edge">
<title>KeycloakModule&#45;&gt;KeycloakIdentityManagementOauthService </title>
<path fill="none" stroke="black" stroke-dasharray="5,2" d="M447.81,-149.91C447.81,-149.91 447.81,-168.79 447.81,-168.79"/>
<polygon fill="black" stroke="black" points="444.31,-168.79 447.81,-178.79 451.31,-168.79 444.31,-168.79"/>
</g>
<!-- KeycloakIdentityManagementService  -->
<g id="node6" class="node">
<title>KeycloakIdentityManagementService </title>
<polygon fill="#fb8072" stroke="black" points="401.75,-214.8 170.25,-214.8 170.25,-178.8 401.75,-178.8 401.75,-214.8"/>
<text text-anchor="middle" x="286" y="-192.6" font-family="Times,serif" font-size="14.00">KeycloakIdentityManagementService </text>
</g>
<!-- KeycloakModule&#45;&gt;KeycloakIdentityManagementService  -->
<g id="edge5" class="edge">
<title>KeycloakModule&#45;&gt;KeycloakIdentityManagementService </title>
<path fill="none" stroke="black" stroke-dasharray="5,2" d="M382.14,-149.91C382.14,-149.91 382.14,-168.79 382.14,-168.79"/>
<polygon fill="black" stroke="black" points="378.64,-168.79 382.14,-178.79 385.64,-168.79 378.64,-168.79"/>
</g>
<!-- KeycloakIdentityManagementOauthService -->
<g id="node7" class="node">
<title>KeycloakIdentityManagementOauthService</title>
<ellipse fill="#fdb462" stroke="black" cx="1017" cy="-66.8" rx="181.08" ry="18"/>
<text text-anchor="middle" x="1017" y="-62.6" font-family="Times,serif" font-size="14.00">KeycloakIdentityManagementOauthService</text>
</g>
<!-- KeycloakIdentityManagementOauthService&#45;&gt;KeycloakModule -->
<g id="edge6" class="edge">
<title>KeycloakIdentityManagementOauthService&#45;&gt;KeycloakModule</title>
<path fill="none" stroke="black" d="M1017,-85.08C1017,-106.12 1017,-137.8 1017,-137.8 1017,-137.8 485.8,-137.8 485.8,-137.8"/>
<polygon fill="black" stroke="black" points="485.8,-134.3 475.8,-137.8 485.8,-141.3 485.8,-134.3"/>
</g>
<!-- KeycloakIdentityManagementService -->
<g id="node8" class="node">
<title>KeycloakIdentityManagementService</title>
<ellipse fill="#fdb462" stroke="black" cx="661" cy="-66.8" rx="157.38" ry="18"/>
<text text-anchor="middle" x="661" y="-62.6" font-family="Times,serif" font-size="14.00">KeycloakIdentityManagementService</text>
</g>
<!-- KeycloakIdentityManagementService&#45;&gt;KeycloakModule -->
<g id="edge7" class="edge">
<title>KeycloakIdentityManagementService&#45;&gt;KeycloakModule</title>
<path fill="none" stroke="black" d="M594.77,-83.23C594.77,-100.69 594.77,-125.8 594.77,-125.8 594.77,-125.8 486.07,-125.8 486.07,-125.8"/>
<polygon fill="black" stroke="black" points="486.07,-122.3 476.07,-125.8 486.07,-129.3 486.07,-122.3"/>
</g>
</g>
</svg>
