<?xml version="1.0" encoding="UTF-8" standalone="no"?>
<!DOCTYPE svg PUBLIC "-//W3C//DTD SVG 1.1//EN"
 "http://www.w3.org/Graphics/SVG/1.1/DTD/svg11.dtd">
<!-- Generated by graphviz version 2.47.0 (20210316.0004)
 -->
<!-- Title: dependencies Pages: 1 -->
<svg width="1230pt" height="284pt"
 viewBox="0.00 0.00 1230.00 284.00" xmlns="http://www.w3.org/2000/svg" xmlns:xlink="http://www.w3.org/1999/xlink">
<g id="graph0" class="graph" transform="scale(1 1) rotate(0) translate(4 280)">
<title>dependencies</title>
<polygon fill="white" stroke="transparent" points="-4,4 -4,-280 1226,-280 1226,4 -4,4"/>
<text text-anchor="start" x="590.01" y="-42.4" font-family="Times-12" font-weight="bold" font-size="14.00">Legend</text>
<polygon fill="#ffffb3" stroke="transparent" points="377,-10 377,-30 397,-30 397,-10 377,-10"/>
<text text-anchor="start" x="400.63" y="-15.4" font-family="Times-12" font-size="14.00"> &#160;Declarations</text>
<polygon fill="#8dd3c7" stroke="transparent" points="490,-10 490,-30 510,-30 510,-10 490,-10"/>
<text text-anchor="start" x="513.73" y="-15.4" font-family="Times-12" font-size="14.00"> &#160;Module</text>
<polygon fill="#80b1d3" stroke="transparent" points="576,-10 576,-30 596,-30 596,-10 576,-10"/>
<text text-anchor="start" x="599.78" y="-15.4" font-family="Times-12" font-size="14.00"> &#160;Bootstrap</text>
<polygon fill="#fdb462" stroke="transparent" points="673,-10 673,-30 693,-30 693,-10 673,-10"/>
<text text-anchor="start" x="696.67" y="-15.4" font-family="Times-12" font-size="14.00"> &#160;Providers</text>
<polygon fill="#fb8072" stroke="transparent" points="769,-10 769,-30 789,-30 789,-10 769,-10"/>
<text text-anchor="start" x="792.73" y="-15.4" font-family="Times-12" font-size="14.00"> &#160;Exports</text>
<g id="clust1" class="cluster">
<title>cluster_KeycloakModule</title>
<polygon fill="none" stroke="black" stroke-dasharray="1,5" points="8,-70 8,-268 1214,-268 1214,-70 8,-70"/>
</g>
<g id="clust4" class="cluster">
<title>cluster_KeycloakModule_exports</title>
<polygon fill="none" stroke="black" points="162,-208 162,-260 694,-260 694,-208 162,-208"/>
</g>
<g id="clust6" class="cluster">
<title>cluster_KeycloakModule_providers</title>
<polygon fill="none" stroke="black" points="496,-78 496,-130 1206,-130 1206,-78 496,-78"/>
</g>
<g id="clust3" class="cluster">
<title>cluster_KeycloakModule_imports</title>
<polygon fill="none" stroke="black" points="16,-78 16,-130 488,-130 488,-78 16,-78"/>
</g>
<!-- EncryptionModule -->
<g id="node1" class="node">
<title>EncryptionModule</title>
<polygon fill="#8dd3c7" stroke="black" points="479.76,-122 476.76,-126 455.76,-126 452.76,-122 358.24,-122 358.24,-86 479.76,-86 479.76,-122"/>
<text text-anchor="middle" x="419" y="-99.8" font-family="Times,serif" font-size="14.00">EncryptionModule</text>
</g>
<!-- KeycloakModule -->
<g id="node4" class="node">
<title>KeycloakModule</title>
<polygon fill="#8dd3c7" stroke="black" points="475.69,-187 472.69,-191 451.69,-191 448.69,-187 362.31,-187 362.31,-151 475.69,-151 475.69,-187"/>
<text text-anchor="middle" x="419" y="-164.8" font-family="Times,serif" font-size="14.00">KeycloakModule</text>
</g>
<!-- EncryptionModule&#45;&gt;KeycloakModule -->
<g id="edge1" class="edge">
<title>EncryptionModule&#45;&gt;KeycloakModule</title>
<path fill="none" stroke="black" d="M419,-122.11C419,-122.11 419,-140.99 419,-140.99"/>
<polygon fill="black" stroke="black" points="415.5,-140.99 419,-150.99 422.5,-140.99 415.5,-140.99"/>
</g>
<!-- KeycloakAdministrationModule -->
<g id="node2" class="node">
<title>KeycloakAdministrationModule</title>
<polygon fill="#8dd3c7" stroke="black" points="339.96,-122 336.96,-126 315.96,-126 312.96,-122 142.04,-122 142.04,-86 339.96,-86 339.96,-122"/>
<text text-anchor="middle" x="241" y="-99.8" font-family="Times,serif" font-size="14.00">KeycloakAdministrationModule</text>
</g>
<!-- KeycloakAdministrationModule&#45;&gt;KeycloakModule -->
<g id="edge2" class="edge">
<title>KeycloakAdministrationModule&#45;&gt;KeycloakModule</title>
<path fill="none" stroke="black" d="M255.05,-122.02C255.05,-139.37 255.05,-163 255.05,-163 255.05,-163 352.12,-163 352.12,-163"/>
<polygon fill="black" stroke="black" points="352.12,-166.5 362.12,-163 352.12,-159.5 352.12,-166.5"/>
</g>
<!-- LoggerModule -->
<g id="node3" class="node">
<title>LoggerModule</title>
<polygon fill="#8dd3c7" stroke="black" points="123.98,-122 120.98,-126 99.98,-126 96.98,-122 24.02,-122 24.02,-86 123.98,-86 123.98,-122"/>
<text text-anchor="middle" x="74" y="-99.8" font-family="Times,serif" font-size="14.00">LoggerModule</text>
</g>
<!-- LoggerModule&#45;&gt;KeycloakModule -->
<g id="edge3" class="edge">
<title>LoggerModule&#45;&gt;KeycloakModule</title>
<path fill="none" stroke="black" d="M74,-122.28C74,-143.32 74,-175 74,-175 74,-175 352.03,-175 352.03,-175"/>
<polygon fill="black" stroke="black" points="352.03,-178.5 362.03,-175 352.03,-171.5 352.03,-178.5"/>
</g>
<!-- KeycloakIdentityManagementOauthService  -->
<g id="node5" class="node">
<title>KeycloakIdentityManagementOauthService </title>
<polygon fill="#fb8072" stroke="black" points="685.96,-252 420.04,-252 420.04,-216 685.96,-216 685.96,-252"/>
<text text-anchor="middle" x="553" y="-229.8" font-family="Times,serif" font-size="14.00">KeycloakIdentityManagementOauthService </text>
</g>
<!-- KeycloakModule&#45;&gt;KeycloakIdentityManagementOauthService  -->
<g id="edge4" class="edge">
<title>KeycloakModule&#45;&gt;KeycloakIdentityManagementOauthService </title>
<path fill="none" stroke="black" stroke-dasharray="5,2" d="M447.81,-187.11C447.81,-187.11 447.81,-205.99 447.81,-205.99"/>
<polygon fill="black" stroke="black" points="444.31,-205.99 447.81,-215.99 451.31,-205.99 444.31,-205.99"/>
</g>
<!-- KeycloakIdentityManagementService  -->
<g id="node6" class="node">
<title>KeycloakIdentityManagementService </title>
<polygon fill="#fb8072" stroke="black" points="401.75,-252 170.25,-252 170.25,-216 401.75,-216 401.75,-252"/>
<text text-anchor="middle" x="286" y="-229.8" font-family="Times,serif" font-size="14.00">KeycloakIdentityManagementService </text>
</g>
<!-- KeycloakModule&#45;&gt;KeycloakIdentityManagementService  -->
<g id="edge5" class="edge">
<title>KeycloakModule&#45;&gt;KeycloakIdentityManagementService </title>
<path fill="none" stroke="black" stroke-dasharray="5,2" d="M382.14,-187.11C382.14,-187.11 382.14,-205.99 382.14,-205.99"/>
<polygon fill="black" stroke="black" points="378.64,-205.99 382.14,-215.99 385.64,-205.99 378.64,-205.99"/>
</g>
<!-- KeycloakIdentityManagementOauthService -->
<g id="node7" class="node">
<title>KeycloakIdentityManagementOauthService</title>
<ellipse fill="#fdb462" stroke="black" cx="1017" cy="-104" rx="181.08" ry="18"/>
<text text-anchor="middle" x="1017" y="-99.8" font-family="Times,serif" font-size="14.00">KeycloakIdentityManagementOauthService</text>
</g>
<!-- KeycloakIdentityManagementOauthService&#45;&gt;KeycloakModule -->
<g id="edge6" class="edge">
<title>KeycloakIdentityManagementOauthService&#45;&gt;KeycloakModule</title>
<path fill="none" stroke="black" d="M1017,-122.28C1017,-143.32 1017,-175 1017,-175 1017,-175 485.8,-175 485.8,-175"/>
<polygon fill="black" stroke="black" points="485.8,-171.5 475.8,-175 485.8,-178.5 485.8,-171.5"/>
</g>
<!-- KeycloakIdentityManagementService -->
<g id="node8" class="node">
<title>KeycloakIdentityManagementService</title>
<ellipse fill="#fdb462" stroke="black" cx="661" cy="-104" rx="157.39" ry="18"/>
<text text-anchor="middle" x="661" y="-99.8" font-family="Times,serif" font-size="14.00">KeycloakIdentityManagementService</text>
</g>
<!-- KeycloakIdentityManagementService&#45;&gt;KeycloakModule -->
<g id="edge7" class="edge">
<title>KeycloakIdentityManagementService&#45;&gt;KeycloakModule</title>
<path fill="none" stroke="black" d="M594.77,-120.43C594.77,-137.89 594.77,-163 594.77,-163 594.77,-163 486.07,-163 486.07,-163"/>
<polygon fill="black" stroke="black" points="486.07,-159.5 476.07,-163 486.07,-166.5 486.07,-159.5"/>
</g>
</g>
</svg>
