<?xml version="1.0" encoding="UTF-8" standalone="no"?>
<!DOCTYPE svg PUBLIC "-//W3C//DTD SVG 1.1//EN"
 "http://www.w3.org/Graphics/SVG/1.1/DTD/svg11.dtd">
<!-- Generated by graphviz version 2.47.0 (20210316.0004)
 -->
<!-- Title: dependencies Pages: 1 -->
<svg width="1230pt" height="284pt"
 viewBox="0.00 0.00 1230.00 284.00" xmlns="http://www.w3.org/2000/svg" xmlns:xlink="http://www.w3.org/1999/xlink">
<g id="graph0" class="graph" transform="scale(1 1) rotate(0) translate(4 280)">
<title>dependencies</title>
<polygon fill="white" stroke="transparent" points="-4,4 -4,-280 1226,-280 1226,4 -4,4"/>
<text text-anchor="start" x="590.01" y="-42.4" font-family="Times-12" font-weight="bold" font-size="14.00">Legend</text>
<polygon fill="#ffffb3" stroke="transparent" points="377,-10 377,-30 397,-30 397,-10 377,-10"/>
<text text-anchor="start" x="400.63" y="-15.4" font-family="Times-12" font-size="14.00"> &#160;Declarations</text>
<polygon fill="#8dd3c7" stroke="transparent" points="490,-10 490,-30 510,-30 510,-10 490,-10"/>
<text text-anchor="start" x="513.73" y="-15.4" font-family="Times-12" font-size="14.00"> &#160;Module</text>
<polygon fill="#80b1d3" stroke="transparent" points="576,-10 576,-30 596,-30 596,-10 576,-10"/>
<text text-anchor="start" x="599.78" y="-15.4" font-family="Times-12" font-size="14.00"> &#160;Bootstrap</text>
<polygon fill="#fdb462" stroke="transparent" points="673,-10 673,-30 693,-30 693,-10 673,-10"/>
<text text-anchor="start" x="696.67" y="-15.4" font-family="Times-12" font-size="14.00"> &#160;Providers</text>
<polygon fill="#fb8072" stroke="transparent" points="769,-10 769,-30 789,-30 789,-10 769,-10"/>
<text text-anchor="start" x="792.73" y="-15.4" font-family="Times-12" font-size="14.00"> &#160;Exports</text>
<g id="clust1" class="cluster">
<title>cluster_KeycloakModule</title>
<polygon fill="none" stroke="black" stroke-dasharray="1,5" points="8,-70 8,-268 1214,-268 1214,-70 8,-70"/>
</g>
<g id="clust3" class="cluster">
<title>cluster_KeycloakModule_imports</title>
<polygon fill="none" stroke="black" points="734,-78 734,-130 1206,-130 1206,-78 734,-78"/>
</g>
<g id="clust6" class="cluster">
<title>cluster_KeycloakModule_providers</title>
<polygon fill="none" stroke="black" points="16,-78 16,-130 726,-130 726,-78 16,-78"/>
</g>
<g id="clust4" class="cluster">
<title>cluster_KeycloakModule_exports</title>
<polygon fill="none" stroke="black" points="535,-208 535,-260 1067,-260 1067,-208 535,-208"/>
</g>
<!-- EncryptionModule -->
<g id="node1" class="node">
<title>EncryptionModule</title>
<polygon fill="#8dd3c7" stroke="black" points="1197.76,-122 1194.76,-126 1173.76,-126 1170.76,-122 1076.24,-122 1076.24,-86 1197.76,-86 1197.76,-122"/>
<text text-anchor="middle" x="1137" y="-99.8" font-family="Times,serif" font-size="14.00">EncryptionModule</text>
</g>
<!-- KeycloakModule -->
<g id="node4" class="node">
<title>KeycloakModule</title>
<polygon fill="#8dd3c7" stroke="black" points="848.69,-187 845.69,-191 824.69,-191 821.69,-187 735.31,-187 735.31,-151 848.69,-151 848.69,-187"/>
<text text-anchor="middle" x="792" y="-164.8" font-family="Times,serif" font-size="14.00">KeycloakModule</text>
</g>
<!-- EncryptionModule&#45;&gt;KeycloakModule -->
<g id="edge1" class="edge">
<title>EncryptionModule&#45;&gt;KeycloakModule</title>
<path fill="none" stroke="black" d="M1137,-122.28C1137,-143.32 1137,-175 1137,-175 1137,-175 858.97,-175 858.97,-175"/>
<polygon fill="black" stroke="black" points="858.97,-171.5 848.97,-175 858.97,-178.5 858.97,-171.5"/>
</g>
<!-- KeycloakAdministrationModule -->
<g id="node2" class="node">
<title>KeycloakAdministrationModule</title>
<polygon fill="#8dd3c7" stroke="black" points="1057.96,-122 1054.96,-126 1033.96,-126 1030.96,-122 860.04,-122 860.04,-86 1057.96,-86 1057.96,-122"/>
<text text-anchor="middle" x="959" y="-99.8" font-family="Times,serif" font-size="14.00">KeycloakAdministrationModule</text>
</g>
<!-- KeycloakAdministrationModule&#45;&gt;KeycloakModule -->
<g id="edge2" class="edge">
<title>KeycloakAdministrationModule&#45;&gt;KeycloakModule</title>
<path fill="none" stroke="black" d="M959,-122.02C959,-139.37 959,-163 959,-163 959,-163 859,-163 859,-163"/>
<polygon fill="black" stroke="black" points="859,-159.5 849,-163 859,-166.5 859,-159.5"/>
</g>
<!-- LoggerModule -->
<g id="node3" class="node">
<title>LoggerModule</title>
<polygon fill="#8dd3c7" stroke="black" points="841.98,-122 838.98,-126 817.98,-126 814.98,-122 742.02,-122 742.02,-86 841.98,-86 841.98,-122"/>
<text text-anchor="middle" x="792" y="-99.8" font-family="Times,serif" font-size="14.00">LoggerModule</text>
</g>
<!-- LoggerModule&#45;&gt;KeycloakModule -->
<g id="edge3" class="edge">
<title>LoggerModule&#45;&gt;KeycloakModule</title>
<path fill="none" stroke="black" d="M792,-122.11C792,-122.11 792,-140.99 792,-140.99"/>
<polygon fill="black" stroke="black" points="788.5,-140.99 792,-150.99 795.5,-140.99 788.5,-140.99"/>
</g>
<!-- KeycloakIdentityManagementOauthService  -->
<g id="node5" class="node">
<title>KeycloakIdentityManagementOauthService </title>
<polygon fill="#fb8072" stroke="black" points="1058.96,-252 793.04,-252 793.04,-216 1058.96,-216 1058.96,-252"/>
<text text-anchor="middle" x="926" y="-229.8" font-family="Times,serif" font-size="14.00">KeycloakIdentityManagementOauthService </text>
</g>
<!-- KeycloakModule&#45;&gt;KeycloakIdentityManagementOauthService  -->
<g id="edge4" class="edge">
<title>KeycloakModule&#45;&gt;KeycloakIdentityManagementOauthService </title>
<path fill="none" stroke="black" stroke-dasharray="5,2" d="M820.81,-187.11C820.81,-187.11 820.81,-205.99 820.81,-205.99"/>
<polygon fill="black" stroke="black" points="817.31,-205.99 820.81,-215.99 824.31,-205.99 817.31,-205.99"/>
</g>
<!-- KeycloakIdentityManagementService  -->
<g id="node6" class="node">
<title>KeycloakIdentityManagementService </title>
<polygon fill="#fb8072" stroke="black" points="774.75,-252 543.25,-252 543.25,-216 774.75,-216 774.75,-252"/>
<text text-anchor="middle" x="659" y="-229.8" font-family="Times,serif" font-size="14.00">KeycloakIdentityManagementService </text>
</g>
<!-- KeycloakModule&#45;&gt;KeycloakIdentityManagementService  -->
<g id="edge5" class="edge">
<title>KeycloakModule&#45;&gt;KeycloakIdentityManagementService </title>
<path fill="none" stroke="black" stroke-dasharray="5,2" d="M755.14,-187.11C755.14,-187.11 755.14,-205.99 755.14,-205.99"/>
<polygon fill="black" stroke="black" points="751.64,-205.99 755.14,-215.99 758.64,-205.99 751.64,-205.99"/>
</g>
<!-- KeycloakIdentityManagementOauthService -->
<g id="node7" class="node">
<title>KeycloakIdentityManagementOauthService</title>
<ellipse fill="#fdb462" stroke="black" cx="537" cy="-104" rx="181.08" ry="18"/>
<text text-anchor="middle" x="537" y="-99.8" font-family="Times,serif" font-size="14.00">KeycloakIdentityManagementOauthService</text>
</g>
<!-- KeycloakIdentityManagementOauthService&#45;&gt;KeycloakModule -->
<g id="edge6" class="edge">
<title>KeycloakIdentityManagementOauthService&#45;&gt;KeycloakModule</title>
<path fill="none" stroke="black" d="M630.58,-119.5C630.58,-136.98 630.58,-163 630.58,-163 630.58,-163 725.09,-163 725.09,-163"/>
<polygon fill="black" stroke="black" points="725.09,-166.5 735.09,-163 725.09,-159.5 725.09,-166.5"/>
</g>
<!-- KeycloakIdentityManagementService -->
<g id="node8" class="node">
<title>KeycloakIdentityManagementService</title>
<ellipse fill="#fdb462" stroke="black" cx="181" cy="-104" rx="157.39" ry="18"/>
<text text-anchor="middle" x="181" y="-99.8" font-family="Times,serif" font-size="14.00">KeycloakIdentityManagementService</text>
</g>
<!-- KeycloakIdentityManagementService&#45;&gt;KeycloakModule -->
<g id="edge7" class="edge">
<title>KeycloakIdentityManagementService&#45;&gt;KeycloakModule</title>
<path fill="none" stroke="black" d="M181,-122.28C181,-143.32 181,-175 181,-175 181,-175 725.34,-175 725.34,-175"/>
<polygon fill="black" stroke="black" points="725.34,-178.5 735.34,-175 725.34,-171.5 725.34,-178.5"/>
</g>
</g>
</svg>
