<?xml version="1.0" encoding="UTF-8" standalone="no"?>
<!DOCTYPE svg PUBLIC "-//W3C//DTD SVG 1.1//EN"
 "http://www.w3.org/Graphics/SVG/1.1/DTD/svg11.dtd">
<!-- Generated by graphviz version 5.0.0 (20220707.1540)
 -->
<!-- Title: dependencies Pages: 1 -->
<svg width="1230pt" height="247pt"
 viewBox="0.00 0.00 1230.00 246.80" xmlns="http://www.w3.org/2000/svg" xmlns:xlink="http://www.w3.org/1999/xlink">
<g id="graph0" class="graph" transform="scale(1 1) rotate(0) translate(4 242.8)">
<title>dependencies</title>
<polygon fill="white" stroke="transparent" points="-4,4 -4,-242.8 1226,-242.8 1226,4 -4,4"/>
<text text-anchor="middle" x="611" y="-8.2" font-family="sans-serif" font-size="14.00">dependencies</text>
<g id="clust1" class="cluster">
<title>cluster_KeycloakModule</title>
<polygon fill="none" stroke="black" stroke-dasharray="1,5" points="8,-32.8 8,-230.8 1214,-230.8 1214,-32.8 8,-32.8"/>
</g>
<g id="clust4" class="cluster">
<title>cluster_KeycloakModule_exports</title>
<polygon fill="none" stroke="black" points="535,-170.8 535,-222.8 1067,-222.8 1067,-170.8 535,-170.8"/>
</g>
<g id="clust3" class="cluster">
<title>cluster_KeycloakModule_imports</title>
<polygon fill="none" stroke="black" points="734,-40.8 734,-92.8 1206,-92.8 1206,-40.8 734,-40.8"/>
</g>
<g id="clust6" class="cluster">
<title>cluster_KeycloakModule_providers</title>
<polygon fill="none" stroke="black" points="16,-40.8 16,-92.8 726,-92.8 726,-40.8 16,-40.8"/>
</g>
<!-- EncryptionModule -->
<g id="node1" class="node">
<title>EncryptionModule</title>
<polygon fill="#8dd3c7" stroke="black" points="1197.76,-84.8 1194.76,-88.8 1173.76,-88.8 1170.76,-84.8 1076.24,-84.8 1076.24,-48.8 1197.76,-48.8 1197.76,-84.8"/>
<text text-anchor="middle" x="1137" y="-62.6" font-family="Times,serif" font-size="14.00">EncryptionModule</text>
</g>
<!-- KeycloakModule -->
<g id="node4" class="node">
<title>KeycloakModule</title>
<polygon fill="#8dd3c7" stroke="black" points="848.69,-149.8 845.69,-153.8 824.69,-153.8 821.69,-149.8 735.31,-149.8 735.31,-113.8 848.69,-113.8 848.69,-149.8"/>
<text text-anchor="middle" x="792" y="-127.6" font-family="Times,serif" font-size="14.00">KeycloakModule</text>
</g>
<!-- EncryptionModule&#45;&gt;KeycloakModule -->
<g id="edge1" class="edge">
<title>EncryptionModule&#45;&gt;KeycloakModule</title>
<path fill="none" stroke="black" d="M1137,-85.08C1137,-106.12 1137,-137.8 1137,-137.8 1137,-137.8 858.97,-137.8 858.97,-137.8"/>
<polygon fill="black" stroke="black" points="858.97,-134.3 848.97,-137.8 858.97,-141.3 858.97,-134.3"/>
</g>
<!-- KeycloakAdministrationModule -->
<g id="node2" class="node">
<title>KeycloakAdministrationModule</title>
<polygon fill="#8dd3c7" stroke="black" points="1057.97,-84.8 1054.97,-88.8 1033.97,-88.8 1030.97,-84.8 860.03,-84.8 860.03,-48.8 1057.97,-48.8 1057.97,-84.8"/>
<text text-anchor="middle" x="959" y="-62.6" font-family="Times,serif" font-size="14.00">KeycloakAdministrationModule</text>
</g>
<!-- KeycloakAdministrationModule&#45;&gt;KeycloakModule -->
<g id="edge2" class="edge">
<title>KeycloakAdministrationModule&#45;&gt;KeycloakModule</title>
<path fill="none" stroke="black" d="M959,-84.82C959,-102.17 959,-125.8 959,-125.8 959,-125.8 859,-125.8 859,-125.8"/>
<polygon fill="black" stroke="black" points="859,-122.3 849,-125.8 859,-129.3 859,-122.3"/>
</g>
<!-- LoggerModule -->
<g id="node3" class="node">
<title>LoggerModule</title>
<polygon fill="#8dd3c7" stroke="black" points="841.98,-84.8 838.98,-88.8 817.98,-88.8 814.98,-84.8 742.02,-84.8 742.02,-48.8 841.98,-48.8 841.98,-84.8"/>
<text text-anchor="middle" x="792" y="-62.6" font-family="Times,serif" font-size="14.00">LoggerModule</text>
</g>
<!-- LoggerModule&#45;&gt;KeycloakModule -->
<g id="edge3" class="edge">
<title>LoggerModule&#45;&gt;KeycloakModule</title>
<path fill="none" stroke="black" d="M792,-84.91C792,-84.91 792,-103.79 792,-103.79"/>
<polygon fill="black" stroke="black" points="788.5,-103.79 792,-113.79 795.5,-103.79 788.5,-103.79"/>
</g>
<!-- KeycloakIdentityManagementOauthService  -->
<g id="node5" class="node">
<title>KeycloakIdentityManagementOauthService </title>
<polygon fill="#fb8072" stroke="black" points="1058.96,-214.8 793.04,-214.8 793.04,-178.8 1058.96,-178.8 1058.96,-214.8"/>
<text text-anchor="middle" x="926" y="-192.6" font-family="Times,serif" font-size="14.00">KeycloakIdentityManagementOauthService </text>
</g>
<!-- KeycloakModule&#45;&gt;KeycloakIdentityManagementOauthService  -->
<g id="edge4" class="edge">
<title>KeycloakModule&#45;&gt;KeycloakIdentityManagementOauthService </title>
<path fill="none" stroke="black" stroke-dasharray="5,2" d="M820.81,-149.91C820.81,-149.91 820.81,-168.79 820.81,-168.79"/>
<polygon fill="black" stroke="black" points="817.31,-168.79 820.81,-178.79 824.31,-168.79 817.31,-168.79"/>
</g>
<!-- KeycloakIdentityManagementService  -->
<g id="node6" class="node">
<title>KeycloakIdentityManagementService </title>
<polygon fill="#fb8072" stroke="black" points="774.75,-214.8 543.25,-214.8 543.25,-178.8 774.75,-178.8 774.75,-214.8"/>
<text text-anchor="middle" x="659" y="-192.6" font-family="Times,serif" font-size="14.00">KeycloakIdentityManagementService </text>
</g>
<!-- KeycloakModule&#45;&gt;KeycloakIdentityManagementService  -->
<g id="edge5" class="edge">
<title>KeycloakModule&#45;&gt;KeycloakIdentityManagementService </title>
<path fill="none" stroke="black" stroke-dasharray="5,2" d="M755.14,-149.91C755.14,-149.91 755.14,-168.79 755.14,-168.79"/>
<polygon fill="black" stroke="black" points="751.64,-168.79 755.14,-178.79 758.64,-168.79 751.64,-168.79"/>
</g>
<!-- KeycloakIdentityManagementOauthService -->
<g id="node7" class="node">
<title>KeycloakIdentityManagementOauthService</title>
<ellipse fill="#fdb462" stroke="black" cx="537" cy="-66.8" rx="181.08" ry="18"/>
<text text-anchor="middle" x="537" y="-62.6" font-family="Times,serif" font-size="14.00">KeycloakIdentityManagementOauthService</text>
</g>
<!-- KeycloakIdentityManagementOauthService&#45;&gt;KeycloakModule -->
<g id="edge6" class="edge">
<title>KeycloakIdentityManagementOauthService&#45;&gt;KeycloakModule</title>
<path fill="none" stroke="black" d="M630.58,-82.3C630.58,-99.78 630.58,-125.8 630.58,-125.8 630.58,-125.8 725.09,-125.8 725.09,-125.8"/>
<polygon fill="black" stroke="black" points="725.09,-129.3 735.09,-125.8 725.09,-122.3 725.09,-129.3"/>
</g>
<!-- KeycloakIdentityManagementService -->
<g id="node8" class="node">
<title>KeycloakIdentityManagementService</title>
<ellipse fill="#fdb462" stroke="black" cx="181" cy="-66.8" rx="157.38" ry="18"/>
<text text-anchor="middle" x="181" y="-62.6" font-family="Times,serif" font-size="14.00">KeycloakIdentityManagementService</text>
</g>
<!-- KeycloakIdentityManagementService&#45;&gt;KeycloakModule -->
<g id="edge7" class="edge">
<title>KeycloakIdentityManagementService&#45;&gt;KeycloakModule</title>
<path fill="none" stroke="black" d="M181,-85.08C181,-106.12 181,-137.8 181,-137.8 181,-137.8 725.34,-137.8 725.34,-137.8"/>
<polygon fill="black" stroke="black" points="725.34,-141.3 735.34,-137.8 725.34,-134.3 725.34,-141.3"/>
</g>
</g>
</svg>
