<?xml version="1.0" encoding="UTF-8" standalone="no"?>
<!DOCTYPE svg PUBLIC "-//W3C//DTD SVG 1.1//EN"
 "http://www.w3.org/Graphics/SVG/1.1/DTD/svg11.dtd">
<!-- Generated by graphviz version 2.47.0 (20210316.0004)
 -->
<!-- Title: dependencies Pages: 1 -->
<svg width="709pt" height="211pt"
 viewBox="0.00 0.00 709.00 211.00" xmlns="http://www.w3.org/2000/svg" xmlns:xlink="http://www.w3.org/1999/xlink">
<g id="graph0" class="graph" transform="scale(1 1) rotate(0) translate(4 207)">
<title>dependencies</title>
<polygon fill="white" stroke="transparent" points="-4,4 -4,-207 705,-207 705,4 -4,4"/>
<text text-anchor="start" x="329.51" y="-42.4" font-family="Times-12" font-weight="bold" font-size="14.00">Legend</text>
<polygon fill="#ffffb3" stroke="transparent" points="116.5,-10 116.5,-30 136.5,-30 136.5,-10 116.5,-10"/>
<text text-anchor="start" x="140.13" y="-15.4" font-family="Times-12" font-size="14.00"> &#160;Declarations</text>
<polygon fill="#8dd3c7" stroke="transparent" points="229.5,-10 229.5,-30 249.5,-30 249.5,-10 229.5,-10"/>
<text text-anchor="start" x="253.23" y="-15.4" font-family="Times-12" font-size="14.00"> &#160;Module</text>
<polygon fill="#80b1d3" stroke="transparent" points="315.5,-10 315.5,-30 335.5,-30 335.5,-10 315.5,-10"/>
<text text-anchor="start" x="339.28" y="-15.4" font-family="Times-12" font-size="14.00"> &#160;Bootstrap</text>
<polygon fill="#fdb462" stroke="transparent" points="412.5,-10 412.5,-30 432.5,-30 432.5,-10 412.5,-10"/>
<text text-anchor="start" x="436.17" y="-15.4" font-family="Times-12" font-size="14.00"> &#160;Providers</text>
<polygon fill="#fb8072" stroke="transparent" points="508.5,-10 508.5,-30 528.5,-30 528.5,-10 508.5,-10"/>
<text text-anchor="start" x="532.23" y="-15.4" font-family="Times-12" font-size="14.00"> &#160;Exports</text>
<g id="clust1" class="cluster">
<title>cluster_LegacySchoolApiModule</title>
<polygon fill="none" stroke="black" stroke-dasharray="1,5" points="8,-70 8,-195 693,-195 693,-70 8,-70"/>
</g>
<g id="clust3" class="cluster">
<title>cluster_LegacySchoolApiModule_imports</title>
<polygon fill="none" stroke="black" points="256,-78 256,-130 685,-130 685,-78 256,-78"/>
</g>
<g id="clust6" class="cluster">
<title>cluster_LegacySchoolApiModule_providers</title>
<polygon fill="none" stroke="black" points="16,-78 16,-130 248,-130 248,-78 16,-78"/>
</g>
<!-- AuthorizationModule -->
<g id="node1" class="node">
<title>AuthorizationModule</title>
<polygon fill="#8dd3c7" stroke="black" points="676.81,-122 673.81,-126 652.81,-126 649.81,-122 539.19,-122 539.19,-86 676.81,-86 676.81,-122"/>
<text text-anchor="middle" x="608" y="-99.8" font-family="Times,serif" font-size="14.00">AuthorizationModule</text>
</g>
<!-- LegacySchoolApiModule -->
<g id="node4" class="node">
<title>LegacySchoolApiModule</title>
<polygon fill="#8dd3c7" stroke="black" points="463.13,-187 460.13,-191 439.13,-191 436.13,-187 302.87,-187 302.87,-151 463.13,-151 463.13,-187"/>
<text text-anchor="middle" x="383" y="-164.8" font-family="Times,serif" font-size="14.00">LegacySchoolApiModule</text>
</g>
<!-- AuthorizationModule&#45;&gt;LegacySchoolApiModule -->
<g id="edge1" class="edge">
<title>AuthorizationModule&#45;&gt;LegacySchoolApiModule</title>
<path fill="none" stroke="black" d="M608,-122.11C608,-141.34 608,-169 608,-169 608,-169 473.28,-169 473.28,-169"/>
<polygon fill="black" stroke="black" points="473.28,-165.5 463.28,-169 473.28,-172.5 473.28,-165.5"/>
</g>
<!-- LegacySchoolModule -->
<g id="node2" class="node">
<title>LegacySchoolModule</title>
<polygon fill="#8dd3c7" stroke="black" points="521.63,-122 518.63,-126 497.63,-126 494.63,-122 382.37,-122 382.37,-86 521.63,-86 521.63,-122"/>
<text text-anchor="middle" x="452" y="-99.8" font-family="Times,serif" font-size="14.00">LegacySchoolModule</text>
</g>
<!-- LegacySchoolModule&#45;&gt;LegacySchoolApiModule -->
<g id="edge2" class="edge">
<title>LegacySchoolModule&#45;&gt;LegacySchoolApiModule</title>
<path fill="none" stroke="black" d="M422.75,-122.11C422.75,-122.11 422.75,-140.99 422.75,-140.99"/>
<polygon fill="black" stroke="black" points="419.25,-140.99 422.75,-150.99 426.25,-140.99 419.25,-140.99"/>
</g>
<!-- SystemModule -->
<g id="node3" class="node">
<title>SystemModule</title>
<polygon fill="#8dd3c7" stroke="black" points="364.27,-122 361.27,-126 340.27,-126 337.27,-122 263.73,-122 263.73,-86 364.27,-86 364.27,-122"/>
<text text-anchor="middle" x="314" y="-99.8" font-family="Times,serif" font-size="14.00">SystemModule</text>
</g>
<!-- SystemModule&#45;&gt;LegacySchoolApiModule -->
<g id="edge3" class="edge">
<title>SystemModule&#45;&gt;LegacySchoolApiModule</title>
<path fill="none" stroke="black" d="M333.54,-122.11C333.54,-122.11 333.54,-140.99 333.54,-140.99"/>
<polygon fill="black" stroke="black" points="330.04,-140.99 333.54,-150.99 337.04,-140.99 330.04,-140.99"/>
</g>
<!-- SchoolSystemOptionsUc -->
<g id="node5" class="node">
<title>SchoolSystemOptionsUc</title>
<ellipse fill="#fdb462" stroke="black" cx="132" cy="-104" rx="108.27" ry="18"/>
<text text-anchor="middle" x="132" y="-99.8" font-family="Times,serif" font-size="14.00">SchoolSystemOptionsUc</text>
</g>
<!-- SchoolSystemOptionsUc&#45;&gt;LegacySchoolApiModule -->
<g id="edge4" class="edge">
<title>SchoolSystemOptionsUc&#45;&gt;LegacySchoolApiModule</title>
<path fill="none" stroke="black" d="M132,-122.11C132,-141.34 132,-169 132,-169 132,-169 292.55,-169 292.55,-169"/>
<polygon fill="black" stroke="black" points="292.55,-172.5 302.55,-169 292.55,-165.5 292.55,-172.5"/>
</g>
</g>
</svg>
