<?xml version="1.0" encoding="UTF-8" standalone="no"?>
<!DOCTYPE svg PUBLIC "-//W3C//DTD SVG 1.1//EN"
 "http://www.w3.org/Graphics/SVG/1.1/DTD/svg11.dtd">
<!-- Generated by graphviz version 2.47.0 (20210316.0004)
 -->
<!-- Title: dependencies Pages: 1 -->
<svg width="1020pt" height="211pt"
 viewBox="0.00 0.00 1020.00 211.00" xmlns="http://www.w3.org/2000/svg" xmlns:xlink="http://www.w3.org/1999/xlink">
<g id="graph0" class="graph" transform="scale(1 1) rotate(0) translate(4 207)">
<title>dependencies</title>
<polygon fill="white" stroke="transparent" points="-4,4 -4,-207 1016,-207 1016,4 -4,4"/>
<text text-anchor="start" x="485.01" y="-42.4" font-family="Times-12" font-weight="bold" font-size="14.00">Legend</text>
<polygon fill="#ffffb3" stroke="transparent" points="272,-10 272,-30 292,-30 292,-10 272,-10"/>
<text text-anchor="start" x="295.63" y="-15.4" font-family="Times-12" font-size="14.00"> &#160;Declarations</text>
<polygon fill="#8dd3c7" stroke="transparent" points="385,-10 385,-30 405,-30 405,-10 385,-10"/>
<text text-anchor="start" x="408.73" y="-15.4" font-family="Times-12" font-size="14.00"> &#160;Module</text>
<polygon fill="#80b1d3" stroke="transparent" points="471,-10 471,-30 491,-30 491,-10 471,-10"/>
<text text-anchor="start" x="494.78" y="-15.4" font-family="Times-12" font-size="14.00"> &#160;Bootstrap</text>
<polygon fill="#fdb462" stroke="transparent" points="568,-10 568,-30 588,-30 588,-10 568,-10"/>
<text text-anchor="start" x="591.67" y="-15.4" font-family="Times-12" font-size="14.00"> &#160;Providers</text>
<polygon fill="#fb8072" stroke="transparent" points="664,-10 664,-30 684,-30 684,-10 664,-10"/>
<text text-anchor="start" x="687.73" y="-15.4" font-family="Times-12" font-size="14.00"> &#160;Exports</text>
<g id="clust1" class="cluster">
<title>cluster_LegacySchoolApiModule</title>
<polygon fill="none" stroke="black" stroke-dasharray="1,5" points="8,-70 8,-195 1004,-195 1004,-70 8,-70"/>
</g>
<g id="clust3" class="cluster">
<title>cluster_LegacySchoolApiModule_imports</title>
<polygon fill="none" stroke="black" points="373,-78 373,-130 996,-130 996,-78 373,-78"/>
</g>
<g id="clust6" class="cluster">
<title>cluster_LegacySchoolApiModule_providers</title>
<polygon fill="none" stroke="black" points="16,-78 16,-130 365,-130 365,-78 16,-78"/>
</g>
<!-- AuthorizationModule -->
<g id="node1" class="node">
<title>AuthorizationModule</title>
<polygon fill="#8dd3c7" stroke="black" points="987.81,-122 984.81,-126 963.81,-126 960.81,-122 850.19,-122 850.19,-86 987.81,-86 987.81,-122"/>
<text text-anchor="middle" x="919" y="-99.8" font-family="Times,serif" font-size="14.00">AuthorizationModule</text>
</g>
<!-- LegacySchoolApiModule -->
<g id="node5" class="node">
<title>LegacySchoolApiModule</title>
<polygon fill="#8dd3c7" stroke="black" points="627.13,-187 624.13,-191 603.13,-191 600.13,-187 466.87,-187 466.87,-151 627.13,-151 627.13,-187"/>
<text text-anchor="middle" x="547" y="-164.8" font-family="Times,serif" font-size="14.00">LegacySchoolApiModule</text>
</g>
<!-- AuthorizationModule&#45;&gt;LegacySchoolApiModule -->
<g id="edge1" class="edge">
<title>AuthorizationModule&#45;&gt;LegacySchoolApiModule</title>
<path fill="none" stroke="black" d="M919,-122.28C919,-143.32 919,-175 919,-175 919,-175 637.26,-175 637.26,-175"/>
<polygon fill="black" stroke="black" points="637.26,-171.5 627.26,-175 637.26,-178.5 637.26,-171.5"/>
</g>
<!-- LegacySchoolModule -->
<g id="node2" class="node">
<title>LegacySchoolModule</title>
<polygon fill="#8dd3c7" stroke="black" points="832.63,-122 829.63,-126 808.63,-126 805.63,-122 693.37,-122 693.37,-86 832.63,-86 832.63,-122"/>
<text text-anchor="middle" x="763" y="-99.8" font-family="Times,serif" font-size="14.00">LegacySchoolModule</text>
</g>
<!-- LegacySchoolModule&#45;&gt;LegacySchoolApiModule -->
<g id="edge2" class="edge">
<title>LegacySchoolModule&#45;&gt;LegacySchoolApiModule</title>
<path fill="none" stroke="black" d="M763,-122.02C763,-139.37 763,-163 763,-163 763,-163 637.43,-163 637.43,-163"/>
<polygon fill="black" stroke="black" points="637.43,-159.5 627.43,-163 637.43,-166.5 637.43,-159.5"/>
</g>
<!-- LoggerModule -->
<g id="node3" class="node">
<title>LoggerModule</title>
<polygon fill="#8dd3c7" stroke="black" points="674.98,-122 671.98,-126 650.98,-126 647.98,-122 575.02,-122 575.02,-86 674.98,-86 674.98,-122"/>
<text text-anchor="middle" x="625" y="-99.8" font-family="Times,serif" font-size="14.00">LoggerModule</text>
</g>
<!-- LoggerModule&#45;&gt;LegacySchoolApiModule -->
<g id="edge3" class="edge">
<title>LoggerModule&#45;&gt;LegacySchoolApiModule</title>
<path fill="none" stroke="black" d="M601.16,-122.11C601.16,-122.11 601.16,-140.99 601.16,-140.99"/>
<polygon fill="black" stroke="black" points="597.66,-140.99 601.16,-150.99 604.66,-140.99 597.66,-140.99"/>
</g>
<!-- UserLoginMigrationModule -->
<g id="node4" class="node">
<title>UserLoginMigrationModule</title>
<polygon fill="#8dd3c7" stroke="black" points="556.91,-122 553.91,-126 532.91,-126 529.91,-122 381.09,-122 381.09,-86 556.91,-86 556.91,-122"/>
<text text-anchor="middle" x="469" y="-99.8" font-family="Times,serif" font-size="14.00">UserLoginMigrationModule</text>
</g>
<!-- UserLoginMigrationModule&#45;&gt;LegacySchoolApiModule -->
<g id="edge4" class="edge">
<title>UserLoginMigrationModule&#45;&gt;LegacySchoolApiModule</title>
<path fill="none" stroke="black" d="M511.69,-122.11C511.69,-122.11 511.69,-140.99 511.69,-140.99"/>
<polygon fill="black" stroke="black" points="508.2,-140.99 511.69,-150.99 515.2,-140.99 508.2,-140.99"/>
</g>
<!-- LegacySchoolUc -->
<g id="node6" class="node">
<title>LegacySchoolUc</title>
<ellipse fill="#fdb462" stroke="black" cx="279" cy="-104" rx="77.57" ry="18"/>
<text text-anchor="middle" x="279" y="-99.8" font-family="Times,serif" font-size="14.00">LegacySchoolUc</text>
</g>
<!-- LegacySchoolUc&#45;&gt;LegacySchoolApiModule -->
<g id="edge5" class="edge">
<title>LegacySchoolUc&#45;&gt;LegacySchoolApiModule</title>
<path fill="none" stroke="black" d="M279,-122.02C279,-139.37 279,-163 279,-163 279,-163 456.59,-163 456.59,-163"/>
<polygon fill="black" stroke="black" points="456.59,-166.5 466.59,-163 456.59,-159.5 456.59,-166.5"/>
</g>
<!-- MigrationMapper -->
<g id="node7" class="node">
<title>MigrationMapper</title>
<ellipse fill="#fdb462" stroke="black" cx="104" cy="-104" rx="79.88" ry="18"/>
<text text-anchor="middle" x="104" y="-99.8" font-family="Times,serif" font-size="14.00">MigrationMapper</text>
</g>
<!-- MigrationMapper&#45;&gt;LegacySchoolApiModule -->
<g id="edge6" class="edge">
<title>MigrationMapper&#45;&gt;LegacySchoolApiModule</title>
<path fill="none" stroke="black" d="M104,-122.28C104,-143.32 104,-175 104,-175 104,-175 456.78,-175 456.78,-175"/>
<polygon fill="black" stroke="black" points="456.78,-178.5 466.78,-175 456.78,-171.5 456.78,-178.5"/>
</g>
</g>
</svg>
