<?xml version="1.0" encoding="UTF-8" standalone="no"?>
<!DOCTYPE svg PUBLIC "-//W3C//DTD SVG 1.1//EN"
 "http://www.w3.org/Graphics/SVG/1.1/DTD/svg11.dtd">
<!-- Generated by graphviz version 2.47.0 (20210316.0004)
 -->
<!-- Title: dependencies Pages: 1 -->
<svg width="709pt" height="211pt"
 viewBox="0.00 0.00 709.00 211.00" xmlns="http://www.w3.org/2000/svg" xmlns:xlink="http://www.w3.org/1999/xlink">
<g id="graph0" class="graph" transform="scale(1 1) rotate(0) translate(4 207)">
<title>dependencies</title>
<polygon fill="white" stroke="transparent" points="-4,4 -4,-207 705,-207 705,4 -4,4"/>
<text text-anchor="start" x="329.51" y="-42.4" font-family="Times-12" font-weight="bold" font-size="14.00">Legend</text>
<polygon fill="#ffffb3" stroke="transparent" points="116.5,-10 116.5,-30 136.5,-30 136.5,-10 116.5,-10"/>
<text text-anchor="start" x="140.13" y="-15.4" font-family="Times-12" font-size="14.00"> &#160;Declarations</text>
<polygon fill="#8dd3c7" stroke="transparent" points="229.5,-10 229.5,-30 249.5,-30 249.5,-10 229.5,-10"/>
<text text-anchor="start" x="253.23" y="-15.4" font-family="Times-12" font-size="14.00"> &#160;Module</text>
<polygon fill="#80b1d3" stroke="transparent" points="315.5,-10 315.5,-30 335.5,-30 335.5,-10 315.5,-10"/>
<text text-anchor="start" x="339.28" y="-15.4" font-family="Times-12" font-size="14.00"> &#160;Bootstrap</text>
<polygon fill="#fdb462" stroke="transparent" points="412.5,-10 412.5,-30 432.5,-30 432.5,-10 412.5,-10"/>
<text text-anchor="start" x="436.17" y="-15.4" font-family="Times-12" font-size="14.00"> &#160;Providers</text>
<polygon fill="#fb8072" stroke="transparent" points="508.5,-10 508.5,-30 528.5,-30 528.5,-10 508.5,-10"/>
<text text-anchor="start" x="532.23" y="-15.4" font-family="Times-12" font-size="14.00"> &#160;Exports</text>
<g id="clust1" class="cluster">
<title>cluster_LegacySchoolApiModule</title>
<polygon fill="none" stroke="black" stroke-dasharray="1,5" points="8,-70 8,-195 693,-195 693,-70 8,-70"/>
</g>
<g id="clust6" class="cluster">
<title>cluster_LegacySchoolApiModule_providers</title>
<polygon fill="none" stroke="black" points="453,-78 453,-130 685,-130 685,-78 453,-78"/>
</g>
<g id="clust3" class="cluster">
<title>cluster_LegacySchoolApiModule_imports</title>
<polygon fill="none" stroke="black" points="16,-78 16,-130 445,-130 445,-78 16,-78"/>
</g>
<!-- AuthorizationModule -->
<g id="node1" class="node">
<title>AuthorizationModule</title>
<polygon fill="#8dd3c7" stroke="black" points="436.81,-122 433.81,-126 412.81,-126 409.81,-122 299.19,-122 299.19,-86 436.81,-86 436.81,-122"/>
<text text-anchor="middle" x="368" y="-99.8" font-family="Times,serif" font-size="14.00">AuthorizationModule</text>
</g>
<!-- LegacySchoolApiModule -->
<g id="node4" class="node">
<title>LegacySchoolApiModule</title>
<polygon fill="#8dd3c7" stroke="black" points="370.13,-187 367.13,-191 346.13,-191 343.13,-187 209.87,-187 209.87,-151 370.13,-151 370.13,-187"/>
<text text-anchor="middle" x="290" y="-164.8" font-family="Times,serif" font-size="14.00">LegacySchoolApiModule</text>
</g>
<!-- AuthorizationModule&#45;&gt;LegacySchoolApiModule -->
<g id="edge1" class="edge">
<title>AuthorizationModule&#45;&gt;LegacySchoolApiModule</title>
<path fill="none" stroke="black" d="M334.83,-122.11C334.83,-122.11 334.83,-140.99 334.83,-140.99"/>
<polygon fill="black" stroke="black" points="331.33,-140.99 334.83,-150.99 338.33,-140.99 331.33,-140.99"/>
</g>
<!-- LegacySchoolModule -->
<g id="node2" class="node">
<title>LegacySchoolModule</title>
<polygon fill="#8dd3c7" stroke="black" points="281.63,-122 278.63,-126 257.63,-126 254.63,-122 142.37,-122 142.37,-86 281.63,-86 281.63,-122"/>
<text text-anchor="middle" x="212" y="-99.8" font-family="Times,serif" font-size="14.00">LegacySchoolModule</text>
</g>
<!-- LegacySchoolModule&#45;&gt;LegacySchoolApiModule -->
<g id="edge2" class="edge">
<title>LegacySchoolModule&#45;&gt;LegacySchoolApiModule</title>
<path fill="none" stroke="black" d="M245.75,-122.11C245.75,-122.11 245.75,-140.99 245.75,-140.99"/>
<polygon fill="black" stroke="black" points="242.25,-140.99 245.75,-150.99 249.25,-140.99 242.25,-140.99"/>
</g>
<!-- SystemModule -->
<g id="node3" class="node">
<title>SystemModule</title>
<polygon fill="#8dd3c7" stroke="black" points="124.27,-122 121.27,-126 100.27,-126 97.27,-122 23.73,-122 23.73,-86 124.27,-86 124.27,-122"/>
<text text-anchor="middle" x="74" y="-99.8" font-family="Times,serif" font-size="14.00">SystemModule</text>
</g>
<!-- SystemModule&#45;&gt;LegacySchoolApiModule -->
<g id="edge3" class="edge">
<title>SystemModule&#45;&gt;LegacySchoolApiModule</title>
<path fill="none" stroke="black" d="M74,-122.11C74,-141.34 74,-169 74,-169 74,-169 199.57,-169 199.57,-169"/>
<polygon fill="black" stroke="black" points="199.57,-172.5 209.57,-169 199.57,-165.5 199.57,-172.5"/>
</g>
<!-- SchoolSystemOptionsUc -->
<g id="node5" class="node">
<title>SchoolSystemOptionsUc</title>
<ellipse fill="#fdb462" stroke="black" cx="569" cy="-104" rx="108.27" ry="18"/>
<text text-anchor="middle" x="569" y="-99.8" font-family="Times,serif" font-size="14.00">SchoolSystemOptionsUc</text>
</g>
<!-- SchoolSystemOptionsUc&#45;&gt;LegacySchoolApiModule -->
<g id="edge4" class="edge">
<title>SchoolSystemOptionsUc&#45;&gt;LegacySchoolApiModule</title>
<path fill="none" stroke="black" d="M569,-122.11C569,-141.34 569,-169 569,-169 569,-169 380.32,-169 380.32,-169"/>
<polygon fill="black" stroke="black" points="380.32,-165.5 370.32,-169 380.32,-172.5 380.32,-165.5"/>
</g>
</g>
</svg>
