<?xml version="1.0" encoding="UTF-8" standalone="no"?>
<!DOCTYPE svg PUBLIC "-//W3C//DTD SVG 1.1//EN"
 "http://www.w3.org/Graphics/SVG/1.1/DTD/svg11.dtd">
<!-- Generated by graphviz version 2.47.0 (20210316.0004)
 -->
<!-- Title: dependencies Pages: 1 -->
<svg width="1020pt" height="211pt"
 viewBox="0.00 0.00 1020.00 211.00" xmlns="http://www.w3.org/2000/svg" xmlns:xlink="http://www.w3.org/1999/xlink">
<g id="graph0" class="graph" transform="scale(1 1) rotate(0) translate(4 207)">
<title>dependencies</title>
<polygon fill="white" stroke="transparent" points="-4,4 -4,-207 1016,-207 1016,4 -4,4"/>
<text text-anchor="start" x="485.01" y="-42.4" font-family="Times-12" font-weight="bold" font-size="14.00">Legend</text>
<polygon fill="#ffffb3" stroke="transparent" points="272,-10 272,-30 292,-30 292,-10 272,-10"/>
<text text-anchor="start" x="295.63" y="-15.4" font-family="Times-12" font-size="14.00"> &#160;Declarations</text>
<polygon fill="#8dd3c7" stroke="transparent" points="385,-10 385,-30 405,-30 405,-10 385,-10"/>
<text text-anchor="start" x="408.73" y="-15.4" font-family="Times-12" font-size="14.00"> &#160;Module</text>
<polygon fill="#80b1d3" stroke="transparent" points="471,-10 471,-30 491,-30 491,-10 471,-10"/>
<text text-anchor="start" x="494.78" y="-15.4" font-family="Times-12" font-size="14.00"> &#160;Bootstrap</text>
<polygon fill="#fdb462" stroke="transparent" points="568,-10 568,-30 588,-30 588,-10 568,-10"/>
<text text-anchor="start" x="591.67" y="-15.4" font-family="Times-12" font-size="14.00"> &#160;Providers</text>
<polygon fill="#fb8072" stroke="transparent" points="664,-10 664,-30 684,-30 684,-10 664,-10"/>
<text text-anchor="start" x="687.73" y="-15.4" font-family="Times-12" font-size="14.00"> &#160;Exports</text>
<g id="clust1" class="cluster">
<title>cluster_LegacySchoolApiModule</title>
<polygon fill="none" stroke="black" stroke-dasharray="1,5" points="8,-70 8,-195 1004,-195 1004,-70 8,-70"/>
</g>
<g id="clust6" class="cluster">
<title>cluster_LegacySchoolApiModule_providers</title>
<polygon fill="none" stroke="black" points="647,-78 647,-130 996,-130 996,-78 647,-78"/>
</g>
<g id="clust3" class="cluster">
<title>cluster_LegacySchoolApiModule_imports</title>
<polygon fill="none" stroke="black" points="16,-78 16,-130 639,-130 639,-78 16,-78"/>
</g>
<!-- AuthorizationModule -->
<g id="node1" class="node">
<title>AuthorizationModule</title>
<polygon fill="#8dd3c7" stroke="black" points="630.81,-122 627.81,-126 606.81,-126 603.81,-122 493.19,-122 493.19,-86 630.81,-86 630.81,-122"/>
<text text-anchor="middle" x="562" y="-99.8" font-family="Times,serif" font-size="14.00">AuthorizationModule</text>
</g>
<!-- LegacySchoolApiModule -->
<g id="node5" class="node">
<title>LegacySchoolApiModule</title>
<polygon fill="#8dd3c7" stroke="black" points="564.13,-187 561.13,-191 540.13,-191 537.13,-187 403.87,-187 403.87,-151 564.13,-151 564.13,-187"/>
<text text-anchor="middle" x="484" y="-164.8" font-family="Times,serif" font-size="14.00">LegacySchoolApiModule</text>
</g>
<!-- AuthorizationModule&#45;&gt;LegacySchoolApiModule -->
<g id="edge1" class="edge">
<title>AuthorizationModule&#45;&gt;LegacySchoolApiModule</title>
<path fill="none" stroke="black" d="M528.83,-122.11C528.83,-122.11 528.83,-140.99 528.83,-140.99"/>
<polygon fill="black" stroke="black" points="525.33,-140.99 528.83,-150.99 532.33,-140.99 525.33,-140.99"/>
</g>
<!-- LegacySchoolModule -->
<g id="node2" class="node">
<title>LegacySchoolModule</title>
<polygon fill="#8dd3c7" stroke="black" points="475.63,-122 472.63,-126 451.63,-126 448.63,-122 336.37,-122 336.37,-86 475.63,-86 475.63,-122"/>
<text text-anchor="middle" x="406" y="-99.8" font-family="Times,serif" font-size="14.00">LegacySchoolModule</text>
</g>
<!-- LegacySchoolModule&#45;&gt;LegacySchoolApiModule -->
<g id="edge2" class="edge">
<title>LegacySchoolModule&#45;&gt;LegacySchoolApiModule</title>
<path fill="none" stroke="black" d="M439.75,-122.11C439.75,-122.11 439.75,-140.99 439.75,-140.99"/>
<polygon fill="black" stroke="black" points="436.25,-140.99 439.75,-150.99 443.25,-140.99 436.25,-140.99"/>
</g>
<!-- LoggerModule -->
<g id="node3" class="node">
<title>LoggerModule</title>
<polygon fill="#8dd3c7" stroke="black" points="317.98,-122 314.98,-126 293.98,-126 290.98,-122 218.02,-122 218.02,-86 317.98,-86 317.98,-122"/>
<text text-anchor="middle" x="268" y="-99.8" font-family="Times,serif" font-size="14.00">LoggerModule</text>
</g>
<!-- LoggerModule&#45;&gt;LegacySchoolApiModule -->
<g id="edge3" class="edge">
<title>LoggerModule&#45;&gt;LegacySchoolApiModule</title>
<path fill="none" stroke="black" d="M268,-122.02C268,-139.37 268,-163 268,-163 268,-163 393.57,-163 393.57,-163"/>
<polygon fill="black" stroke="black" points="393.57,-166.5 403.57,-163 393.57,-159.5 393.57,-166.5"/>
</g>
<!-- UserLoginMigrationModule -->
<g id="node4" class="node">
<title>UserLoginMigrationModule</title>
<polygon fill="#8dd3c7" stroke="black" points="199.91,-122 196.91,-126 175.91,-126 172.91,-122 24.09,-122 24.09,-86 199.91,-86 199.91,-122"/>
<text text-anchor="middle" x="112" y="-99.8" font-family="Times,serif" font-size="14.00">UserLoginMigrationModule</text>
</g>
<!-- UserLoginMigrationModule&#45;&gt;LegacySchoolApiModule -->
<g id="edge4" class="edge">
<title>UserLoginMigrationModule&#45;&gt;LegacySchoolApiModule</title>
<path fill="none" stroke="black" d="M112,-122.28C112,-143.32 112,-175 112,-175 112,-175 393.74,-175 393.74,-175"/>
<polygon fill="black" stroke="black" points="393.74,-178.5 403.74,-175 393.74,-171.5 393.74,-178.5"/>
</g>
<!-- LegacySchoolUc -->
<g id="node6" class="node">
<title>LegacySchoolUc</title>
<ellipse fill="#fdb462" stroke="black" cx="910" cy="-104" rx="77.57" ry="18"/>
<text text-anchor="middle" x="910" y="-99.8" font-family="Times,serif" font-size="14.00">LegacySchoolUc</text>
</g>
<!-- LegacySchoolUc&#45;&gt;LegacySchoolApiModule -->
<g id="edge5" class="edge">
<title>LegacySchoolUc&#45;&gt;LegacySchoolApiModule</title>
<path fill="none" stroke="black" d="M910,-122.28C910,-143.32 910,-175 910,-175 910,-175 574.38,-175 574.38,-175"/>
<polygon fill="black" stroke="black" points="574.38,-171.5 564.38,-175 574.38,-178.5 574.38,-171.5"/>
</g>
<!-- MigrationMapper -->
<g id="node7" class="node">
<title>MigrationMapper</title>
<ellipse fill="#fdb462" stroke="black" cx="735" cy="-104" rx="79.88" ry="18"/>
<text text-anchor="middle" x="735" y="-99.8" font-family="Times,serif" font-size="14.00">MigrationMapper</text>
</g>
<!-- MigrationMapper&#45;&gt;LegacySchoolApiModule -->
<g id="edge6" class="edge">
<title>MigrationMapper&#45;&gt;LegacySchoolApiModule</title>
<path fill="none" stroke="black" d="M735,-122.02C735,-139.37 735,-163 735,-163 735,-163 574.45,-163 574.45,-163"/>
<polygon fill="black" stroke="black" points="574.45,-159.5 564.45,-163 574.45,-166.5 574.45,-159.5"/>
</g>
</g>
</svg>
