<?xml version="1.0" encoding="UTF-8" standalone="no"?>
<!DOCTYPE svg PUBLIC "-//W3C//DTD SVG 1.1//EN"
 "http://www.w3.org/Graphics/SVG/1.1/DTD/svg11.dtd">
<!-- Generated by graphviz version 2.47.0 (20210316.0004)
 -->
<!-- Title: dependencies Pages: 1 -->
<svg width="908pt" height="211pt"
 viewBox="0.00 0.00 908.00 211.00" xmlns="http://www.w3.org/2000/svg" xmlns:xlink="http://www.w3.org/1999/xlink">
<g id="graph0" class="graph" transform="scale(1 1) rotate(0) translate(4 207)">
<title>dependencies</title>
<polygon fill="white" stroke="transparent" points="-4,4 -4,-207 904,-207 904,4 -4,4"/>
<text text-anchor="start" x="429.01" y="-42.4" font-family="Times-12" font-weight="bold" font-size="14.00">Legend</text>
<polygon fill="#ffffb3" stroke="transparent" points="216,-10 216,-30 236,-30 236,-10 216,-10"/>
<text text-anchor="start" x="239.63" y="-15.4" font-family="Times-12" font-size="14.00"> &#160;Declarations</text>
<polygon fill="#8dd3c7" stroke="transparent" points="329,-10 329,-30 349,-30 349,-10 329,-10"/>
<text text-anchor="start" x="352.73" y="-15.4" font-family="Times-12" font-size="14.00"> &#160;Module</text>
<polygon fill="#80b1d3" stroke="transparent" points="415,-10 415,-30 435,-30 435,-10 415,-10"/>
<text text-anchor="start" x="438.78" y="-15.4" font-family="Times-12" font-size="14.00"> &#160;Bootstrap</text>
<polygon fill="#fdb462" stroke="transparent" points="512,-10 512,-30 532,-30 532,-10 512,-10"/>
<text text-anchor="start" x="535.67" y="-15.4" font-family="Times-12" font-size="14.00"> &#160;Providers</text>
<polygon fill="#fb8072" stroke="transparent" points="608,-10 608,-30 628,-30 628,-10 608,-10"/>
<text text-anchor="start" x="631.73" y="-15.4" font-family="Times-12" font-size="14.00"> &#160;Exports</text>
<g id="clust1" class="cluster">
<title>cluster_LegacySchoolApiModule</title>
<polygon fill="none" stroke="black" stroke-dasharray="1,5" points="8,-70 8,-195 892,-195 892,-70 8,-70"/>
</g>
<g id="clust3" class="cluster">
<title>cluster_LegacySchoolApiModule_imports</title>
<polygon fill="none" stroke="black" points="455,-78 455,-130 884,-130 884,-78 455,-78"/>
</g>
<g id="clust6" class="cluster">
<title>cluster_LegacySchoolApiModule_providers</title>
<polygon fill="none" stroke="black" points="16,-78 16,-130 447,-130 447,-78 16,-78"/>
</g>
<!-- AuthorizationModule -->
<g id="node1" class="node">
<title>AuthorizationModule</title>
<polygon fill="#8dd3c7" stroke="black" points="875.81,-122 872.81,-126 851.81,-126 848.81,-122 738.19,-122 738.19,-86 875.81,-86 875.81,-122"/>
<text text-anchor="middle" x="807" y="-99.8" font-family="Times,serif" font-size="14.00">AuthorizationModule</text>
</g>
<!-- LegacySchoolApiModule -->
<g id="node4" class="node">
<title>LegacySchoolApiModule</title>
<polygon fill="#8dd3c7" stroke="black" points="593.13,-187 590.13,-191 569.13,-191 566.13,-187 432.87,-187 432.87,-151 593.13,-151 593.13,-187"/>
<text text-anchor="middle" x="513" y="-164.8" font-family="Times,serif" font-size="14.00">LegacySchoolApiModule</text>
</g>
<!-- AuthorizationModule&#45;&gt;LegacySchoolApiModule -->
<g id="edge1" class="edge">
<title>AuthorizationModule&#45;&gt;LegacySchoolApiModule</title>
<path fill="none" stroke="black" d="M807,-122.11C807,-141.34 807,-169 807,-169 807,-169 603.34,-169 603.34,-169"/>
<polygon fill="black" stroke="black" points="603.34,-165.5 593.34,-169 603.34,-172.5 603.34,-165.5"/>
</g>
<!-- LegacySchoolModule -->
<g id="node2" class="node">
<title>LegacySchoolModule</title>
<polygon fill="#8dd3c7" stroke="black" points="720.63,-122 717.63,-126 696.63,-126 693.63,-122 581.37,-122 581.37,-86 720.63,-86 720.63,-122"/>
<text text-anchor="middle" x="651" y="-99.8" font-family="Times,serif" font-size="14.00">LegacySchoolModule</text>
</g>
<!-- LegacySchoolModule&#45;&gt;LegacySchoolApiModule -->
<g id="edge2" class="edge">
<title>LegacySchoolModule&#45;&gt;LegacySchoolApiModule</title>
<path fill="none" stroke="black" d="M587.25,-122.11C587.25,-122.11 587.25,-140.99 587.25,-140.99"/>
<polygon fill="black" stroke="black" points="583.75,-140.99 587.25,-150.99 590.75,-140.99 583.75,-140.99"/>
</g>
<!-- SystemModule -->
<g id="node3" class="node">
<title>SystemModule</title>
<polygon fill="#8dd3c7" stroke="black" points="563.27,-122 560.27,-126 539.27,-126 536.27,-122 462.73,-122 462.73,-86 563.27,-86 563.27,-122"/>
<text text-anchor="middle" x="513" y="-99.8" font-family="Times,serif" font-size="14.00">SystemModule</text>
</g>
<!-- SystemModule&#45;&gt;LegacySchoolApiModule -->
<g id="edge3" class="edge">
<title>SystemModule&#45;&gt;LegacySchoolApiModule</title>
<path fill="none" stroke="black" d="M513,-122.11C513,-122.11 513,-140.99 513,-140.99"/>
<polygon fill="black" stroke="black" points="509.5,-140.99 513,-150.99 516.5,-140.99 509.5,-140.99"/>
</g>
<!-- AdminApiSchoolUc -->
<g id="node5" class="node">
<title>AdminApiSchoolUc</title>
<ellipse fill="#fdb462" stroke="black" cx="349" cy="-104" rx="90.35" ry="18"/>
<text text-anchor="middle" x="349" y="-99.8" font-family="Times,serif" font-size="14.00">AdminApiSchoolUc</text>
</g>
<!-- AdminApiSchoolUc&#45;&gt;LegacySchoolApiModule -->
<g id="edge4" class="edge">
<title>AdminApiSchoolUc&#45;&gt;LegacySchoolApiModule</title>
<path fill="none" stroke="black" d="M439.71,-104C446.65,-104 451.02,-104 451.02,-104 451.02,-104 451.02,-140.89 451.02,-140.89"/>
<polygon fill="black" stroke="black" points="447.52,-140.89 451.02,-150.89 454.52,-140.89 447.52,-140.89"/>
</g>
<!-- SchoolSystemOptionsUc -->
<g id="node6" class="node">
<title>SchoolSystemOptionsUc</title>
<ellipse fill="#fdb462" stroke="black" cx="132" cy="-104" rx="108.27" ry="18"/>
<text text-anchor="middle" x="132" y="-99.8" font-family="Times,serif" font-size="14.00">SchoolSystemOptionsUc</text>
</g>
<!-- SchoolSystemOptionsUc&#45;&gt;LegacySchoolApiModule -->
<g id="edge5" class="edge">
<title>SchoolSystemOptionsUc&#45;&gt;LegacySchoolApiModule</title>
<path fill="none" stroke="black" d="M132,-122.11C132,-141.34 132,-169 132,-169 132,-169 422.67,-169 422.67,-169"/>
<polygon fill="black" stroke="black" points="422.67,-172.5 432.67,-169 422.67,-165.5 422.67,-172.5"/>
</g>
</g>
</svg>
