<?xml version="1.0" encoding="UTF-8" standalone="no"?>
<!DOCTYPE svg PUBLIC "-//W3C//DTD SVG 1.1//EN"
 "http://www.w3.org/Graphics/SVG/1.1/DTD/svg11.dtd">
<!-- Generated by graphviz version 2.47.0 (20210316.0004)
 -->
<!-- Title: dependencies Pages: 1 -->
<svg width="1695pt" height="284pt"
 viewBox="0.00 0.00 1695.00 284.00" xmlns="http://www.w3.org/2000/svg" xmlns:xlink="http://www.w3.org/1999/xlink">
<g id="graph0" class="graph" transform="scale(1 1) rotate(0) translate(4 280)">
<title>dependencies</title>
<polygon fill="white" stroke="transparent" points="-4,4 -4,-280 1691,-280 1691,4 -4,4"/>
<text text-anchor="start" x="822.51" y="-42.4" font-family="Times-12" font-weight="bold" font-size="14.00">Legend</text>
<polygon fill="#ffffb3" stroke="transparent" points="609.5,-10 609.5,-30 629.5,-30 629.5,-10 609.5,-10"/>
<text text-anchor="start" x="633.13" y="-15.4" font-family="Times-12" font-size="14.00"> &#160;Declarations</text>
<polygon fill="#8dd3c7" stroke="transparent" points="722.5,-10 722.5,-30 742.5,-30 742.5,-10 722.5,-10"/>
<text text-anchor="start" x="746.23" y="-15.4" font-family="Times-12" font-size="14.00"> &#160;Module</text>
<polygon fill="#80b1d3" stroke="transparent" points="808.5,-10 808.5,-30 828.5,-30 828.5,-10 808.5,-10"/>
<text text-anchor="start" x="832.28" y="-15.4" font-family="Times-12" font-size="14.00"> &#160;Bootstrap</text>
<polygon fill="#fdb462" stroke="transparent" points="905.5,-10 905.5,-30 925.5,-30 925.5,-10 905.5,-10"/>
<text text-anchor="start" x="929.17" y="-15.4" font-family="Times-12" font-size="14.00"> &#160;Providers</text>
<polygon fill="#fb8072" stroke="transparent" points="1001.5,-10 1001.5,-30 1021.5,-30 1021.5,-10 1001.5,-10"/>
<text text-anchor="start" x="1025.23" y="-15.4" font-family="Times-12" font-size="14.00"> &#160;Exports</text>
<g id="clust1" class="cluster">
<title>cluster_KeycloakConfigurationModule</title>
<polygon fill="none" stroke="black" stroke-dasharray="1,5" points="8,-70 8,-268 1679,-268 1679,-70 8,-70"/>
</g>
<g id="clust3" class="cluster">
<title>cluster_KeycloakConfigurationModule_imports</title>
<polygon fill="none" stroke="black" points="797,-78 797,-130 1671,-130 1671,-78 797,-78"/>
</g>
<g id="clust6" class="cluster">
<title>cluster_KeycloakConfigurationModule_providers</title>
<polygon fill="none" stroke="black" points="16,-78 16,-130 789,-130 789,-78 16,-78"/>
</g>
<g id="clust4" class="cluster">
<title>cluster_KeycloakConfigurationModule_exports</title>
<polygon fill="none" stroke="black" points="745,-208 745,-260 1252,-260 1252,-208 745,-208"/>
</g>
<!-- AccountModule -->
<g id="node1" class="node">
<title>AccountModule</title>
<polygon fill="#8dd3c7" stroke="black" points="1663.48,-122 1660.48,-126 1639.48,-126 1636.48,-122 1556.52,-122 1556.52,-86 1663.48,-86 1663.48,-122"/>
<text text-anchor="middle" x="1610" y="-99.8" font-family="Times,serif" font-size="14.00">AccountModule</text>
</g>
<!-- KeycloakConfigurationModule -->
<g id="node7" class="node">
<title>KeycloakConfigurationModule</title>
<polygon fill="#8dd3c7" stroke="black" points="1068.74,-187 1065.74,-191 1044.74,-191 1041.74,-187 877.26,-187 877.26,-151 1068.74,-151 1068.74,-187"/>
<text text-anchor="middle" x="973" y="-164.8" font-family="Times,serif" font-size="14.00">KeycloakConfigurationModule</text>
</g>
<!-- AccountModule&#45;&gt;KeycloakConfigurationModule -->
<g id="edge1" class="edge">
<title>AccountModule&#45;&gt;KeycloakConfigurationModule</title>
<path fill="none" stroke="black" d="M1610,-122.29C1610,-144.21 1610,-178 1610,-178 1610,-178 1079.06,-178 1079.06,-178"/>
<polygon fill="black" stroke="black" points="1079.06,-174.5 1069.06,-178 1079.05,-181.5 1079.06,-174.5"/>
</g>
<!-- ConsoleWriterModule -->
<g id="node2" class="node">
<title>ConsoleWriterModule</title>
<polygon fill="#8dd3c7" stroke="black" points="1538.97,-122 1535.97,-126 1514.97,-126 1511.97,-122 1397.03,-122 1397.03,-86 1538.97,-86 1538.97,-122"/>
<text text-anchor="middle" x="1468" y="-99.8" font-family="Times,serif" font-size="14.00">ConsoleWriterModule</text>
</g>
<!-- ConsoleWriterModule&#45;&gt;KeycloakConfigurationModule -->
<g id="edge2" class="edge">
<title>ConsoleWriterModule&#45;&gt;KeycloakConfigurationModule</title>
<path fill="none" stroke="black" d="M1468,-122.11C1468,-141.34 1468,-169 1468,-169 1468,-169 1079.03,-169 1079.03,-169"/>
<polygon fill="black" stroke="black" points="1079.03,-165.5 1069.03,-169 1079.03,-172.5 1079.03,-165.5"/>
</g>
<!-- EncryptionModule -->
<g id="node3" class="node">
<title>EncryptionModule</title>
<polygon fill="#8dd3c7" stroke="black" points="1378.76,-122 1375.76,-126 1354.76,-126 1351.76,-122 1257.24,-122 1257.24,-86 1378.76,-86 1378.76,-122"/>
<text text-anchor="middle" x="1318" y="-99.8" font-family="Times,serif" font-size="14.00">EncryptionModule</text>
</g>
<!-- EncryptionModule&#45;&gt;KeycloakConfigurationModule -->
<g id="edge3" class="edge">
<title>EncryptionModule&#45;&gt;KeycloakConfigurationModule</title>
<path fill="none" stroke="black" d="M1318,-122.03C1318,-138.4 1318,-160 1318,-160 1318,-160 1079.1,-160 1079.1,-160"/>
<polygon fill="black" stroke="black" points="1079.1,-156.5 1069.1,-160 1079.1,-163.5 1079.1,-156.5"/>
</g>
<!-- KeycloakAdministrationModule -->
<g id="node4" class="node">
<title>KeycloakAdministrationModule</title>
<polygon fill="#8dd3c7" stroke="black" points="1238.96,-122 1235.96,-126 1214.96,-126 1211.96,-122 1041.04,-122 1041.04,-86 1238.96,-86 1238.96,-122"/>
<text text-anchor="middle" x="1140" y="-99.8" font-family="Times,serif" font-size="14.00">KeycloakAdministrationModule</text>
</g>
<!-- KeycloakAdministrationModule&#45;&gt;KeycloakConfigurationModule -->
<g id="edge4" class="edge">
<title>KeycloakAdministrationModule&#45;&gt;KeycloakConfigurationModule</title>
<path fill="none" stroke="black" d="M1054.94,-122.11C1054.94,-122.11 1054.94,-140.99 1054.94,-140.99"/>
<polygon fill="black" stroke="black" points="1051.44,-140.99 1054.94,-150.99 1058.44,-140.99 1051.44,-140.99"/>
</g>
<!-- LoggerModule -->
<g id="node5" class="node">
<title>LoggerModule</title>
<polygon fill="#8dd3c7" stroke="black" points="1022.98,-122 1019.98,-126 998.98,-126 995.98,-122 923.02,-122 923.02,-86 1022.98,-86 1022.98,-122"/>
<text text-anchor="middle" x="973" y="-99.8" font-family="Times,serif" font-size="14.00">LoggerModule</text>
</g>
<!-- LoggerModule&#45;&gt;KeycloakConfigurationModule -->
<g id="edge5" class="edge">
<title>LoggerModule&#45;&gt;KeycloakConfigurationModule</title>
<path fill="none" stroke="black" d="M973,-122.11C973,-122.11 973,-140.99 973,-140.99"/>
<polygon fill="black" stroke="black" points="969.5,-140.99 973,-150.99 976.5,-140.99 969.5,-140.99"/>
</g>
<!-- SystemModule -->
<g id="node6" class="node">
<title>SystemModule</title>
<polygon fill="#8dd3c7" stroke="black" points="905.27,-122 902.27,-126 881.27,-126 878.27,-122 804.73,-122 804.73,-86 905.27,-86 905.27,-122"/>
<text text-anchor="middle" x="855" y="-99.8" font-family="Times,serif" font-size="14.00">SystemModule</text>
</g>
<!-- SystemModule&#45;&gt;KeycloakConfigurationModule -->
<g id="edge6" class="edge">
<title>SystemModule&#45;&gt;KeycloakConfigurationModule</title>
<path fill="none" stroke="black" d="M891.26,-122.11C891.26,-122.11 891.26,-140.99 891.26,-140.99"/>
<polygon fill="black" stroke="black" points="887.76,-140.99 891.26,-150.99 894.76,-140.99 887.76,-140.99"/>
</g>
<!-- KeycloakConfigurationService  -->
<g id="node8" class="node">
<title>KeycloakConfigurationService </title>
<polygon fill="#fb8072" stroke="black" points="1243.66,-252 1050.34,-252 1050.34,-216 1243.66,-216 1243.66,-252"/>
<text text-anchor="middle" x="1147" y="-229.8" font-family="Times,serif" font-size="14.00">KeycloakConfigurationService </text>
</g>
<!-- KeycloakConfigurationModule&#45;&gt;KeycloakConfigurationService  -->
<g id="edge7" class="edge">
<title>KeycloakConfigurationModule&#45;&gt;KeycloakConfigurationService </title>
<path fill="none" stroke="black" stroke-dasharray="5,2" d="M1059.52,-187.11C1059.52,-187.11 1059.52,-205.99 1059.52,-205.99"/>
<polygon fill="black" stroke="black" points="1056.02,-205.99 1059.52,-215.99 1063.02,-205.99 1056.02,-205.99"/>
</g>
<!-- KeycloakConsole  -->
<g id="node9" class="node">
<title>KeycloakConsole </title>
<polygon fill="#fb8072" stroke="black" points="1032.53,-252 913.47,-252 913.47,-216 1032.53,-216 1032.53,-252"/>
<text text-anchor="middle" x="973" y="-229.8" font-family="Times,serif" font-size="14.00">KeycloakConsole </text>
</g>
<!-- KeycloakConfigurationModule&#45;&gt;KeycloakConsole  -->
<g id="edge8" class="edge">
<title>KeycloakConfigurationModule&#45;&gt;KeycloakConsole </title>
<path fill="none" stroke="black" stroke-dasharray="5,2" d="M973,-187.11C973,-187.11 973,-205.99 973,-205.99"/>
<polygon fill="black" stroke="black" points="969.5,-205.99 973,-215.99 976.5,-205.99 969.5,-205.99"/>
</g>
<!-- KeycloakSeedService  -->
<g id="node10" class="node">
<title>KeycloakSeedService </title>
<polygon fill="#fb8072" stroke="black" points="895.33,-252 752.67,-252 752.67,-216 895.33,-216 895.33,-252"/>
<text text-anchor="middle" x="824" y="-229.8" font-family="Times,serif" font-size="14.00">KeycloakSeedService </text>
</g>
<!-- KeycloakConfigurationModule&#45;&gt;KeycloakSeedService  -->
<g id="edge9" class="edge">
<title>KeycloakConfigurationModule&#45;&gt;KeycloakSeedService </title>
<path fill="none" stroke="black" stroke-dasharray="5,2" d="M886.15,-187.11C886.15,-187.11 886.15,-205.99 886.15,-205.99"/>
<polygon fill="black" stroke="black" points="882.65,-205.99 886.15,-215.99 889.65,-205.99 882.65,-205.99"/>
</g>
<!-- KeycloakConfigurationService -->
<g id="node11" class="node">
<title>KeycloakConfigurationService</title>
<ellipse fill="#fdb462" stroke="black" cx="650" cy="-104" rx="131.34" ry="18"/>
<text text-anchor="middle" x="650" y="-99.8" font-family="Times,serif" font-size="14.00">KeycloakConfigurationService</text>
</g>
<!-- KeycloakConfigurationService&#45;&gt;KeycloakConfigurationModule -->
<g id="edge10" class="edge">
<title>KeycloakConfigurationService&#45;&gt;KeycloakConfigurationModule</title>
<path fill="none" stroke="black" d="M767,-112.26C767,-127.84 767,-160 767,-160 767,-160 867.24,-160 867.24,-160"/>
<polygon fill="black" stroke="black" points="867.24,-163.5 877.24,-160 867.24,-156.5 867.24,-163.5"/>
</g>
<!-- KeycloakConfigurationUc -->
<g id="node12" class="node">
<title>KeycloakConfigurationUc</title>
<ellipse fill="#fdb462" stroke="black" cx="387" cy="-104" rx="113.45" ry="18"/>
<text text-anchor="middle" x="387" y="-99.8" font-family="Times,serif" font-size="14.00">KeycloakConfigurationUc</text>
</g>
<!-- KeycloakConfigurationUc&#45;&gt;KeycloakConfigurationModule -->
<g id="edge11" class="edge">
<title>KeycloakConfigurationUc&#45;&gt;KeycloakConfigurationModule</title>
<path fill="none" stroke="black" d="M387,-122.11C387,-141.34 387,-169 387,-169 387,-169 867.22,-169 867.22,-169"/>
<polygon fill="black" stroke="black" points="867.22,-172.5 877.22,-169 867.22,-165.5 867.22,-172.5"/>
</g>
<!-- KeycloakMigrationService -->
<g id="node13" class="node">
<title>KeycloakMigrationService</title>
<ellipse fill="#fdb462" stroke="black" cx="140" cy="-104" rx="115.73" ry="18"/>
<text text-anchor="middle" x="140" y="-99.8" font-family="Times,serif" font-size="14.00">KeycloakMigrationService</text>
</g>
<!-- KeycloakMigrationService&#45;&gt;KeycloakConfigurationModule -->
<g id="edge12" class="edge">
<title>KeycloakMigrationService&#45;&gt;KeycloakConfigurationModule</title>
<path fill="none" stroke="black" d="M140,-122.29C140,-144.21 140,-178 140,-178 140,-178 867.04,-178 867.04,-178"/>
<polygon fill="black" stroke="black" points="867.04,-181.5 877.04,-178 867.04,-174.5 867.04,-181.5"/>
</g>
</g>
</svg>
