<?xml version="1.0" encoding="UTF-8" standalone="no"?>
<!DOCTYPE svg PUBLIC "-//W3C//DTD SVG 1.1//EN"
 "http://www.w3.org/Graphics/SVG/1.1/DTD/svg11.dtd">
<!-- Generated by graphviz version 5.0.0 (20220707.1540)
 -->
<!-- Title: dependencies Pages: 1 -->
<svg width="1695pt" height="247pt"
 viewBox="0.00 0.00 1695.00 246.80" xmlns="http://www.w3.org/2000/svg" xmlns:xlink="http://www.w3.org/1999/xlink">
<g id="graph0" class="graph" transform="scale(1 1) rotate(0) translate(4 242.8)">
<title>dependencies</title>
<polygon fill="white" stroke="transparent" points="-4,4 -4,-242.8 1691,-242.8 1691,4 -4,4"/>
<text text-anchor="middle" x="843.5" y="-8.2" font-family="sans-serif" font-size="14.00">dependencies</text>
<g id="clust1" class="cluster">
<title>cluster_KeycloakConfigurationModule</title>
<polygon fill="none" stroke="black" stroke-dasharray="1,5" points="8,-32.8 8,-230.8 1679,-230.8 1679,-32.8 8,-32.8"/>
</g>
<g id="clust3" class="cluster">
<title>cluster_KeycloakConfigurationModule_imports</title>
<polygon fill="none" stroke="black" points="797,-40.8 797,-92.8 1671,-92.8 1671,-40.8 797,-40.8"/>
</g>
<g id="clust6" class="cluster">
<title>cluster_KeycloakConfigurationModule_providers</title>
<polygon fill="none" stroke="black" points="16,-40.8 16,-92.8 789,-92.8 789,-40.8 16,-40.8"/>
</g>
<g id="clust4" class="cluster">
<title>cluster_KeycloakConfigurationModule_exports</title>
<polygon fill="none" stroke="black" points="745,-170.8 745,-222.8 1252,-222.8 1252,-170.8 745,-170.8"/>
</g>
<!-- AccountModule -->
<g id="node1" class="node">
<title>AccountModule</title>
<polygon fill="#8dd3c7" stroke="black" points="1663.48,-84.8 1660.48,-88.8 1639.48,-88.8 1636.48,-84.8 1556.52,-84.8 1556.52,-48.8 1663.48,-48.8 1663.48,-84.8"/>
<text text-anchor="middle" x="1610" y="-62.6" font-family="Times,serif" font-size="14.00">AccountModule</text>
</g>
<!-- KeycloakConfigurationModule -->
<g id="node7" class="node">
<title>KeycloakConfigurationModule</title>
<polygon fill="#8dd3c7" stroke="black" points="1068.74,-149.8 1065.74,-153.8 1044.74,-153.8 1041.74,-149.8 877.26,-149.8 877.26,-113.8 1068.74,-113.8 1068.74,-149.8"/>
<text text-anchor="middle" x="973" y="-127.6" font-family="Times,serif" font-size="14.00">KeycloakConfigurationModule</text>
</g>
<!-- AccountModule&#45;&gt;KeycloakConfigurationModule -->
<g id="edge1" class="edge">
<title>AccountModule&#45;&gt;KeycloakConfigurationModule</title>
<path fill="none" stroke="black" d="M1610,-85.09C1610,-107.01 1610,-140.8 1610,-140.8 1610,-140.8 1079.06,-140.8 1079.06,-140.8"/>
<polygon fill="black" stroke="black" points="1079.06,-137.3 1069.06,-140.8 1079.05,-144.3 1079.06,-137.3"/>
</g>
<!-- ConsoleWriterModule -->
<g id="node2" class="node">
<title>ConsoleWriterModule</title>
<polygon fill="#8dd3c7" stroke="black" points="1538.97,-84.8 1535.97,-88.8 1514.97,-88.8 1511.97,-84.8 1397.03,-84.8 1397.03,-48.8 1538.97,-48.8 1538.97,-84.8"/>
<text text-anchor="middle" x="1468" y="-62.6" font-family="Times,serif" font-size="14.00">ConsoleWriterModule</text>
</g>
<!-- ConsoleWriterModule&#45;&gt;KeycloakConfigurationModule -->
<g id="edge2" class="edge">
<title>ConsoleWriterModule&#45;&gt;KeycloakConfigurationModule</title>
<path fill="none" stroke="black" d="M1468,-84.91C1468,-104.14 1468,-131.8 1468,-131.8 1468,-131.8 1079.03,-131.8 1079.03,-131.8"/>
<polygon fill="black" stroke="black" points="1079.03,-128.3 1069.03,-131.8 1079.03,-135.3 1079.03,-128.3"/>
</g>
<!-- EncryptionModule -->
<g id="node3" class="node">
<title>EncryptionModule</title>
<polygon fill="#8dd3c7" stroke="black" points="1378.76,-84.8 1375.76,-88.8 1354.76,-88.8 1351.76,-84.8 1257.24,-84.8 1257.24,-48.8 1378.76,-48.8 1378.76,-84.8"/>
<text text-anchor="middle" x="1318" y="-62.6" font-family="Times,serif" font-size="14.00">EncryptionModule</text>
</g>
<!-- EncryptionModule&#45;&gt;KeycloakConfigurationModule -->
<g id="edge3" class="edge">
<title>EncryptionModule&#45;&gt;KeycloakConfigurationModule</title>
<path fill="none" stroke="black" d="M1318,-84.83C1318,-101.2 1318,-122.8 1318,-122.8 1318,-122.8 1079.1,-122.8 1079.1,-122.8"/>
<polygon fill="black" stroke="black" points="1079.1,-119.3 1069.1,-122.8 1079.1,-126.3 1079.1,-119.3"/>
</g>
<!-- KeycloakAdministrationModule -->
<g id="node4" class="node">
<title>KeycloakAdministrationModule</title>
<polygon fill="#8dd3c7" stroke="black" points="1238.97,-84.8 1235.97,-88.8 1214.97,-88.8 1211.97,-84.8 1041.03,-84.8 1041.03,-48.8 1238.97,-48.8 1238.97,-84.8"/>
<text text-anchor="middle" x="1140" y="-62.6" font-family="Times,serif" font-size="14.00">KeycloakAdministrationModule</text>
</g>
<!-- KeycloakAdministrationModule&#45;&gt;KeycloakConfigurationModule -->
<g id="edge4" class="edge">
<title>KeycloakAdministrationModule&#45;&gt;KeycloakConfigurationModule</title>
<path fill="none" stroke="black" d="M1054.94,-84.91C1054.94,-84.91 1054.94,-103.79 1054.94,-103.79"/>
<polygon fill="black" stroke="black" points="1051.44,-103.79 1054.94,-113.79 1058.44,-103.79 1051.44,-103.79"/>
</g>
<!-- LoggerModule -->
<g id="node5" class="node">
<title>LoggerModule</title>
<polygon fill="#8dd3c7" stroke="black" points="1022.98,-84.8 1019.98,-88.8 998.98,-88.8 995.98,-84.8 923.02,-84.8 923.02,-48.8 1022.98,-48.8 1022.98,-84.8"/>
<text text-anchor="middle" x="973" y="-62.6" font-family="Times,serif" font-size="14.00">LoggerModule</text>
</g>
<!-- LoggerModule&#45;&gt;KeycloakConfigurationModule -->
<g id="edge5" class="edge">
<title>LoggerModule&#45;&gt;KeycloakConfigurationModule</title>
<path fill="none" stroke="black" d="M973,-84.91C973,-84.91 973,-103.79 973,-103.79"/>
<polygon fill="black" stroke="black" points="969.5,-103.79 973,-113.79 976.5,-103.79 969.5,-103.79"/>
</g>
<!-- SystemModule -->
<g id="node6" class="node">
<title>SystemModule</title>
<polygon fill="#8dd3c7" stroke="black" points="905.28,-84.8 902.28,-88.8 881.28,-88.8 878.28,-84.8 804.72,-84.8 804.72,-48.8 905.28,-48.8 905.28,-84.8"/>
<text text-anchor="middle" x="855" y="-62.6" font-family="Times,serif" font-size="14.00">SystemModule</text>
</g>
<!-- SystemModule&#45;&gt;KeycloakConfigurationModule -->
<g id="edge6" class="edge">
<title>SystemModule&#45;&gt;KeycloakConfigurationModule</title>
<path fill="none" stroke="black" d="M891.26,-84.91C891.26,-84.91 891.26,-103.79 891.26,-103.79"/>
<polygon fill="black" stroke="black" points="887.76,-103.79 891.26,-113.79 894.76,-103.79 887.76,-103.79"/>
</g>
<!-- KeycloakConfigurationService  -->
<g id="node8" class="node">
<title>KeycloakConfigurationService </title>
<polygon fill="#fb8072" stroke="black" points="1243.67,-214.8 1050.33,-214.8 1050.33,-178.8 1243.67,-178.8 1243.67,-214.8"/>
<text text-anchor="middle" x="1147" y="-192.6" font-family="Times,serif" font-size="14.00">KeycloakConfigurationService </text>
</g>
<!-- KeycloakConfigurationModule&#45;&gt;KeycloakConfigurationService  -->
<g id="edge7" class="edge">
<title>KeycloakConfigurationModule&#45;&gt;KeycloakConfigurationService </title>
<path fill="none" stroke="black" stroke-dasharray="5,2" d="M1059.52,-149.91C1059.52,-149.91 1059.52,-168.79 1059.52,-168.79"/>
<polygon fill="black" stroke="black" points="1056.02,-168.79 1059.52,-178.79 1063.02,-168.79 1056.02,-168.79"/>
</g>
<!-- KeycloakConsole  -->
<g id="node9" class="node">
<title>KeycloakConsole </title>
<polygon fill="#fb8072" stroke="black" points="1032.53,-214.8 913.47,-214.8 913.47,-178.8 1032.53,-178.8 1032.53,-214.8"/>
<text text-anchor="middle" x="973" y="-192.6" font-family="Times,serif" font-size="14.00">KeycloakConsole </text>
</g>
<!-- KeycloakConfigurationModule&#45;&gt;KeycloakConsole  -->
<g id="edge8" class="edge">
<title>KeycloakConfigurationModule&#45;&gt;KeycloakConsole </title>
<path fill="none" stroke="black" stroke-dasharray="5,2" d="M973,-149.91C973,-149.91 973,-168.79 973,-168.79"/>
<polygon fill="black" stroke="black" points="969.5,-168.79 973,-178.79 976.5,-168.79 969.5,-168.79"/>
</g>
<!-- KeycloakSeedService  -->
<g id="node10" class="node">
<title>KeycloakSeedService </title>
<polygon fill="#fb8072" stroke="black" points="895.34,-214.8 752.66,-214.8 752.66,-178.8 895.34,-178.8 895.34,-214.8"/>
<text text-anchor="middle" x="824" y="-192.6" font-family="Times,serif" font-size="14.00">KeycloakSeedService </text>
</g>
<!-- KeycloakConfigurationModule&#45;&gt;KeycloakSeedService  -->
<g id="edge9" class="edge">
<title>KeycloakConfigurationModule&#45;&gt;KeycloakSeedService </title>
<path fill="none" stroke="black" stroke-dasharray="5,2" d="M886.15,-149.91C886.15,-149.91 886.15,-168.79 886.15,-168.79"/>
<polygon fill="black" stroke="black" points="882.65,-168.79 886.15,-178.79 889.65,-168.79 882.65,-168.79"/>
</g>
<!-- KeycloakConfigurationService -->
<g id="node11" class="node">
<title>KeycloakConfigurationService</title>
<ellipse fill="#fdb462" stroke="black" cx="650" cy="-66.8" rx="131.35" ry="18"/>
<text text-anchor="middle" x="650" y="-62.6" font-family="Times,serif" font-size="14.00">KeycloakConfigurationService</text>
</g>
<!-- KeycloakConfigurationService&#45;&gt;KeycloakConfigurationModule -->
<g id="edge10" class="edge">
<title>KeycloakConfigurationService&#45;&gt;KeycloakConfigurationModule</title>
<path fill="none" stroke="black" d="M767,-75.06C767,-90.64 767,-122.8 767,-122.8 767,-122.8 867.24,-122.8 867.24,-122.8"/>
<polygon fill="black" stroke="black" points="867.24,-126.3 877.24,-122.8 867.24,-119.3 867.24,-126.3"/>
</g>
<!-- KeycloakConfigurationUc -->
<g id="node12" class="node">
<title>KeycloakConfigurationUc</title>
<ellipse fill="#fdb462" stroke="black" cx="387" cy="-66.8" rx="113.45" ry="18"/>
<text text-anchor="middle" x="387" y="-62.6" font-family="Times,serif" font-size="14.00">KeycloakConfigurationUc</text>
</g>
<!-- KeycloakConfigurationUc&#45;&gt;KeycloakConfigurationModule -->
<g id="edge11" class="edge">
<title>KeycloakConfigurationUc&#45;&gt;KeycloakConfigurationModule</title>
<path fill="none" stroke="black" d="M387,-84.91C387,-104.14 387,-131.8 387,-131.8 387,-131.8 867.22,-131.8 867.22,-131.8"/>
<polygon fill="black" stroke="black" points="867.22,-135.3 877.22,-131.8 867.22,-128.3 867.22,-135.3"/>
</g>
<!-- KeycloakMigrationService -->
<g id="node13" class="node">
<title>KeycloakMigrationService</title>
<ellipse fill="#fdb462" stroke="black" cx="140" cy="-66.8" rx="115.73" ry="18"/>
<text text-anchor="middle" x="140" y="-62.6" font-family="Times,serif" font-size="14.00">KeycloakMigrationService</text>
</g>
<!-- KeycloakMigrationService&#45;&gt;KeycloakConfigurationModule -->
<g id="edge12" class="edge">
<title>KeycloakMigrationService&#45;&gt;KeycloakConfigurationModule</title>
<path fill="none" stroke="black" d="M140,-85.09C140,-107.01 140,-140.8 140,-140.8 140,-140.8 867.04,-140.8 867.04,-140.8"/>
<polygon fill="black" stroke="black" points="867.04,-144.3 877.04,-140.8 867.04,-137.3 867.04,-144.3"/>
</g>
</g>
</svg>
