<?xml version="1.0" encoding="UTF-8" standalone="no"?>
<!DOCTYPE svg PUBLIC "-//W3C//DTD SVG 1.1//EN"
 "http://www.w3.org/Graphics/SVG/1.1/DTD/svg11.dtd">
<!-- Generated by graphviz version 2.47.0 (20210316.0004)
 -->
<!-- Title: dependencies Pages: 1 -->
<svg width="504pt" height="211pt"
 viewBox="0.00 0.00 504.00 211.00" xmlns="http://www.w3.org/2000/svg" xmlns:xlink="http://www.w3.org/1999/xlink">
<g id="graph0" class="graph" transform="scale(1 1) rotate(0) translate(4 207)">
<title>dependencies</title>
<polygon fill="white" stroke="transparent" points="-4,4 -4,-207 500,-207 500,4 -4,4"/>
<text text-anchor="start" x="227.01" y="-42.4" font-family="Times-12" font-weight="bold" font-size="14.00">Legend</text>
<polygon fill="#ffffb3" stroke="transparent" points="14,-10 14,-30 34,-30 34,-10 14,-10"/>
<text text-anchor="start" x="37.63" y="-15.4" font-family="Times-12" font-size="14.00"> &#160;Declarations</text>
<polygon fill="#8dd3c7" stroke="transparent" points="127,-10 127,-30 147,-30 147,-10 127,-10"/>
<text text-anchor="start" x="150.73" y="-15.4" font-family="Times-12" font-size="14.00"> &#160;Module</text>
<polygon fill="#80b1d3" stroke="transparent" points="213,-10 213,-30 233,-30 233,-10 213,-10"/>
<text text-anchor="start" x="236.78" y="-15.4" font-family="Times-12" font-size="14.00"> &#160;Bootstrap</text>
<polygon fill="#fdb462" stroke="transparent" points="310,-10 310,-30 330,-30 330,-10 310,-10"/>
<text text-anchor="start" x="333.67" y="-15.4" font-family="Times-12" font-size="14.00"> &#160;Providers</text>
<polygon fill="#fb8072" stroke="transparent" points="406,-10 406,-30 426,-30 426,-10 406,-10"/>
<text text-anchor="start" x="429.73" y="-15.4" font-family="Times-12" font-size="14.00"> &#160;Exports</text>
<g id="clust1" class="cluster">
<title>cluster_TldrawClientModule</title>
<polygon fill="none" stroke="black" stroke-dasharray="1,5" points="33,-70 33,-195 463,-195 463,-70 33,-70"/>
</g>
<g id="clust6" class="cluster">
<title>cluster_TldrawClientModule_providers</title>
<polygon fill="none" stroke="black" points="165,-78 165,-130 455,-130 455,-78 165,-78"/>
</g>
<g id="clust3" class="cluster">
<title>cluster_TldrawClientModule_imports</title>
<polygon fill="none" stroke="black" points="41,-78 41,-130 157,-130 157,-78 41,-78"/>
</g>
<!-- LoggerModule -->
<g id="node1" class="node">
<title>LoggerModule</title>
<polygon fill="#8dd3c7" stroke="black" points="148.98,-122 145.98,-126 124.98,-126 121.98,-122 49.02,-122 49.02,-86 148.98,-86 148.98,-122"/>
<text text-anchor="middle" x="99" y="-99.8" font-family="Times,serif" font-size="14.00">LoggerModule</text>
</g>
<!-- TldrawClientModule -->
<g id="node2" class="node">
<title>TldrawClientModule</title>
<polygon fill="#8dd3c7" stroke="black" points="276.2,-187 273.2,-191 252.2,-191 249.2,-187 141.8,-187 141.8,-151 276.2,-151 276.2,-187"/>
<text text-anchor="middle" x="209" y="-164.8" font-family="Times,serif" font-size="14.00">TldrawClientModule</text>
</g>
<!-- LoggerModule&#45;&gt;TldrawClientModule -->
<g id="edge1" class="edge">
<title>LoggerModule&#45;&gt;TldrawClientModule</title>
<path fill="none" stroke="black" d="M145.44,-122.11C145.44,-122.11 145.44,-140.99 145.44,-140.99"/>
<polygon fill="black" stroke="black" points="141.95,-140.99 145.44,-150.99 148.95,-140.99 141.95,-140.99"/>
</g>
<!-- DrawingElementAdapterService -->
<g id="node3" class="node">
<title>DrawingElementAdapterService</title>
<ellipse fill="#fdb462" stroke="black" cx="310" cy="-104" rx="137.12" ry="18"/>
<text text-anchor="middle" x="310" y="-99.8" font-family="Times,serif" font-size="14.00">DrawingElementAdapterService</text>
</g>
<!-- DrawingElementAdapterService&#45;&gt;TldrawClientModule -->
<g id="edge2" class="edge">
<title>DrawingElementAdapterService&#45;&gt;TldrawClientModule</title>
<path fill="none" stroke="black" d="M224.52,-118.1C224.52,-118.1 224.52,-140.72 224.52,-140.72"/>
<polygon fill="black" stroke="black" points="221.02,-140.72 224.52,-150.72 228.02,-140.72 221.02,-140.72"/>
</g>
</g>
</svg>
