<?xml version="1.0" encoding="UTF-8" standalone="no"?>
<!DOCTYPE svg PUBLIC "-//W3C//DTD SVG 1.1//EN"
 "http://www.w3.org/Graphics/SVG/1.1/DTD/svg11.dtd">
<!-- Generated by graphviz version 2.47.0 (20210316.0004)
 -->
<!-- Title: dependencies Pages: 1 -->
<svg width="504pt" height="284pt"
 viewBox="0.00 0.00 504.00 284.00" xmlns="http://www.w3.org/2000/svg" xmlns:xlink="http://www.w3.org/1999/xlink">
<g id="graph0" class="graph" transform="scale(1 1) rotate(0) translate(4 280)">
<title>dependencies</title>
<polygon fill="white" stroke="transparent" points="-4,4 -4,-280 500,-280 500,4 -4,4"/>
<text text-anchor="start" x="227.01" y="-42.4" font-family="Times-12" font-weight="bold" font-size="14.00">Legend</text>
<polygon fill="#ffffb3" stroke="transparent" points="14,-10 14,-30 34,-30 34,-10 14,-10"/>
<text text-anchor="start" x="37.63" y="-15.4" font-family="Times-12" font-size="14.00"> &#160;Declarations</text>
<polygon fill="#8dd3c7" stroke="transparent" points="127,-10 127,-30 147,-30 147,-10 127,-10"/>
<text text-anchor="start" x="150.73" y="-15.4" font-family="Times-12" font-size="14.00"> &#160;Module</text>
<polygon fill="#80b1d3" stroke="transparent" points="213,-10 213,-30 233,-30 233,-10 213,-10"/>
<text text-anchor="start" x="236.78" y="-15.4" font-family="Times-12" font-size="14.00"> &#160;Bootstrap</text>
<polygon fill="#fdb462" stroke="transparent" points="310,-10 310,-30 330,-30 330,-10 310,-10"/>
<text text-anchor="start" x="333.67" y="-15.4" font-family="Times-12" font-size="14.00"> &#160;Providers</text>
<polygon fill="#fb8072" stroke="transparent" points="406,-10 406,-30 426,-30 426,-10 406,-10"/>
<text text-anchor="start" x="429.73" y="-15.4" font-family="Times-12" font-size="14.00"> &#160;Exports</text>
<g id="clust1" class="cluster">
<title>cluster_TldrawClientModule</title>
<polygon fill="none" stroke="black" stroke-dasharray="1,5" points="33,-70 33,-268 463,-268 463,-70 33,-70"/>
</g>
<g id="clust3" class="cluster">
<title>cluster_TldrawClientModule_imports</title>
<polygon fill="none" stroke="black" points="339,-78 339,-130 455,-130 455,-78 339,-78"/>
</g>
<g id="clust4" class="cluster">
<title>cluster_TldrawClientModule_exports</title>
<polygon fill="none" stroke="black" points="157,-208 157,-260 375,-260 375,-208 157,-208"/>
</g>
<g id="clust6" class="cluster">
<title>cluster_TldrawClientModule_providers</title>
<polygon fill="none" stroke="black" points="41,-78 41,-130 331,-130 331,-78 41,-78"/>
</g>
<!-- LoggerModule -->
<g id="node1" class="node">
<title>LoggerModule</title>
<polygon fill="#8dd3c7" stroke="black" points="446.98,-122 443.98,-126 422.98,-126 419.98,-122 347.02,-122 347.02,-86 446.98,-86 446.98,-122"/>
<text text-anchor="middle" x="397" y="-99.8" font-family="Times,serif" font-size="14.00">LoggerModule</text>
</g>
<!-- TldrawClientModule -->
<g id="node2" class="node">
<title>TldrawClientModule</title>
<polygon fill="#8dd3c7" stroke="black" points="333.2,-187 330.2,-191 309.2,-191 306.2,-187 198.8,-187 198.8,-151 333.2,-151 333.2,-187"/>
<text text-anchor="middle" x="266" y="-164.8" font-family="Times,serif" font-size="14.00">TldrawClientModule</text>
</g>
<!-- LoggerModule&#45;&gt;TldrawClientModule -->
<g id="edge1" class="edge">
<title>LoggerModule&#45;&gt;TldrawClientModule</title>
<path fill="none" stroke="black" d="M346.91,-104C336.22,-104 328.08,-104 328.08,-104 328.08,-104 328.08,-140.89 328.08,-140.89"/>
<polygon fill="black" stroke="black" points="324.58,-140.89 328.08,-150.89 331.58,-140.89 324.58,-140.89"/>
</g>
<!-- DrawingElementAdapterService  -->
<g id="node3" class="node">
<title>DrawingElementAdapterService </title>
<polygon fill="#fb8072" stroke="black" points="367.2,-252 164.8,-252 164.8,-216 367.2,-216 367.2,-252"/>
<text text-anchor="middle" x="266" y="-229.8" font-family="Times,serif" font-size="14.00">DrawingElementAdapterService </text>
</g>
<!-- TldrawClientModule&#45;&gt;DrawingElementAdapterService  -->
<g id="edge2" class="edge">
<title>TldrawClientModule&#45;&gt;DrawingElementAdapterService </title>
<path fill="none" stroke="black" stroke-dasharray="5,2" d="M266,-187.11C266,-187.11 266,-205.99 266,-205.99"/>
<polygon fill="black" stroke="black" points="262.5,-205.99 266,-215.99 269.5,-205.99 262.5,-205.99"/>
</g>
<!-- DrawingElementAdapterService -->
<g id="node4" class="node">
<title>DrawingElementAdapterService</title>
<ellipse fill="#fdb462" stroke="black" cx="186" cy="-104" rx="137.12" ry="18"/>
<text text-anchor="middle" x="186" y="-99.8" font-family="Times,serif" font-size="14.00">DrawingElementAdapterService</text>
</g>
<!-- DrawingElementAdapterService&#45;&gt;TldrawClientModule -->
<g id="edge3" class="edge">
<title>DrawingElementAdapterService&#45;&gt;TldrawClientModule</title>
<path fill="none" stroke="black" d="M260.98,-119.08C260.98,-119.08 260.98,-140.76 260.98,-140.76"/>
<polygon fill="black" stroke="black" points="257.48,-140.76 260.98,-150.76 264.48,-140.76 257.48,-140.76"/>
</g>
</g>
</svg>
