<?xml version="1.0" encoding="UTF-8" standalone="no"?>
<!DOCTYPE svg PUBLIC "-//W3C//DTD SVG 1.1//EN"
 "http://www.w3.org/Graphics/SVG/1.1/DTD/svg11.dtd">
<!-- Generated by graphviz version 2.47.0 (20210316.0004)
 -->
<!-- Title: dependencies Pages: 1 -->
<svg width="1421pt" height="211pt"
 viewBox="0.00 0.00 1421.00 211.00" xmlns="http://www.w3.org/2000/svg" xmlns:xlink="http://www.w3.org/1999/xlink">
<g id="graph0" class="graph" transform="scale(1 1) rotate(0) translate(4 207)">
<title>dependencies</title>
<polygon fill="white" stroke="transparent" points="-4,4 -4,-207 1417,-207 1417,4 -4,4"/>
<text text-anchor="start" x="685.51" y="-42.4" font-family="Times-12" font-weight="bold" font-size="14.00">Legend</text>
<polygon fill="#ffffb3" stroke="transparent" points="472.5,-10 472.5,-30 492.5,-30 492.5,-10 472.5,-10"/>
<text text-anchor="start" x="496.13" y="-15.4" font-family="Times-12" font-size="14.00"> &#160;Declarations</text>
<polygon fill="#8dd3c7" stroke="transparent" points="585.5,-10 585.5,-30 605.5,-30 605.5,-10 585.5,-10"/>
<text text-anchor="start" x="609.23" y="-15.4" font-family="Times-12" font-size="14.00"> &#160;Module</text>
<polygon fill="#80b1d3" stroke="transparent" points="671.5,-10 671.5,-30 691.5,-30 691.5,-10 671.5,-10"/>
<text text-anchor="start" x="695.28" y="-15.4" font-family="Times-12" font-size="14.00"> &#160;Bootstrap</text>
<polygon fill="#fdb462" stroke="transparent" points="768.5,-10 768.5,-30 788.5,-30 788.5,-10 768.5,-10"/>
<text text-anchor="start" x="792.17" y="-15.4" font-family="Times-12" font-size="14.00"> &#160;Providers</text>
<polygon fill="#fb8072" stroke="transparent" points="864.5,-10 864.5,-30 884.5,-30 884.5,-10 864.5,-10"/>
<text text-anchor="start" x="888.23" y="-15.4" font-family="Times-12" font-size="14.00"> &#160;Exports</text>
<g id="clust1" class="cluster">
<title>cluster_VideoConferenceApiModule</title>
<polygon fill="none" stroke="black" stroke-dasharray="1,5" points="8,-70 8,-195 1405,-195 1405,-70 8,-70"/>
</g>
<g id="clust3" class="cluster">
<title>cluster_VideoConferenceApiModule_imports</title>
<polygon fill="none" stroke="black" points="963,-78 963,-130 1397,-130 1397,-78 963,-78"/>
</g>
<g id="clust6" class="cluster">
<title>cluster_VideoConferenceApiModule_providers</title>
<polygon fill="none" stroke="black" points="16,-78 16,-130 955,-130 955,-78 16,-78"/>
</g>
<!-- AuthorizationModule -->
<g id="node1" class="node">
<title>AuthorizationModule</title>
<polygon fill="#8dd3c7" stroke="black" points="1388.81,-122 1385.81,-126 1364.81,-126 1361.81,-122 1251.19,-122 1251.19,-86 1388.81,-86 1388.81,-122"/>
<text text-anchor="middle" x="1320" y="-99.8" font-family="Times,serif" font-size="14.00">AuthorizationModule</text>
</g>
<!-- VideoConferenceApiModule -->
<g id="node4" class="node">
<title>VideoConferenceApiModule</title>
<polygon fill="#8dd3c7" stroke="black" points="920.78,-187 917.78,-191 896.78,-191 893.78,-187 741.22,-187 741.22,-151 920.78,-151 920.78,-187"/>
<text text-anchor="middle" x="831" y="-164.8" font-family="Times,serif" font-size="14.00">VideoConferenceApiModule</text>
</g>
<!-- AuthorizationModule&#45;&gt;VideoConferenceApiModule -->
<g id="edge1" class="edge">
<title>AuthorizationModule&#45;&gt;VideoConferenceApiModule</title>
<path fill="none" stroke="black" d="M1320,-122.29C1320,-144.21 1320,-178 1320,-178 1320,-178 930.69,-178 930.69,-178"/>
<polygon fill="black" stroke="black" points="930.69,-174.5 920.69,-178 930.69,-181.5 930.69,-174.5"/>
</g>
<!-- UserModule -->
<g id="node2" class="node">
<title>UserModule</title>
<polygon fill="#8dd3c7" stroke="black" points="1232.98,-122 1229.98,-126 1208.98,-126 1205.98,-122 1147.02,-122 1147.02,-86 1232.98,-86 1232.98,-122"/>
<text text-anchor="middle" x="1190" y="-99.8" font-family="Times,serif" font-size="14.00">UserModule</text>
</g>
<!-- UserModule&#45;&gt;VideoConferenceApiModule -->
<g id="edge2" class="edge">
<title>UserModule&#45;&gt;VideoConferenceApiModule</title>
<path fill="none" stroke="black" d="M1190,-122.11C1190,-141.34 1190,-169 1190,-169 1190,-169 930.66,-169 930.66,-169"/>
<polygon fill="black" stroke="black" points="930.66,-165.5 920.66,-169 930.66,-172.5 930.66,-165.5"/>
</g>
<!-- VideoConferenceModule -->
<g id="node3" class="node">
<title>VideoConferenceModule</title>
<polygon fill="#8dd3c7" stroke="black" points="1129.28,-122 1126.28,-126 1105.28,-126 1102.28,-122 970.72,-122 970.72,-86 1129.28,-86 1129.28,-122"/>
<text text-anchor="middle" x="1050" y="-99.8" font-family="Times,serif" font-size="14.00">VideoConferenceModule</text>
</g>
<!-- VideoConferenceModule&#45;&gt;VideoConferenceApiModule -->
<g id="edge3" class="edge">
<title>VideoConferenceModule&#45;&gt;VideoConferenceApiModule</title>
<path fill="none" stroke="black" d="M1050,-122.03C1050,-138.4 1050,-160 1050,-160 1050,-160 930.71,-160 930.71,-160"/>
<polygon fill="black" stroke="black" points="930.71,-156.5 920.71,-160 930.71,-163.5 930.71,-156.5"/>
</g>
<!-- VideoConferenceCreateUc -->
<g id="node5" class="node">
<title>VideoConferenceCreateUc</title>
<ellipse fill="#fdb462" stroke="black" cx="831" cy="-104" rx="115.69" ry="18"/>
<text text-anchor="middle" x="831" y="-99.8" font-family="Times,serif" font-size="14.00">VideoConferenceCreateUc</text>
</g>
<!-- VideoConferenceCreateUc&#45;&gt;VideoConferenceApiModule -->
<g id="edge4" class="edge">
<title>VideoConferenceCreateUc&#45;&gt;VideoConferenceApiModule</title>
<path fill="none" stroke="black" d="M831,-122.11C831,-122.11 831,-140.99 831,-140.99"/>
<polygon fill="black" stroke="black" points="827.5,-140.99 831,-150.99 834.5,-140.99 827.5,-140.99"/>
</g>
<!-- VideoConferenceEndUc -->
<g id="node6" class="node">
<title>VideoConferenceEndUc</title>
<ellipse fill="#fdb462" stroke="black" cx="591" cy="-104" rx="105.9" ry="18"/>
<text text-anchor="middle" x="591" y="-99.8" font-family="Times,serif" font-size="14.00">VideoConferenceEndUc</text>
</g>
<!-- VideoConferenceEndUc&#45;&gt;VideoConferenceApiModule -->
<g id="edge5" class="edge">
<title>VideoConferenceEndUc&#45;&gt;VideoConferenceApiModule</title>
<path fill="none" stroke="black" d="M591,-122.03C591,-138.4 591,-160 591,-160 591,-160 731.29,-160 731.29,-160"/>
<polygon fill="black" stroke="black" points="731.29,-163.5 741.29,-160 731.29,-156.5 731.29,-163.5"/>
</g>
<!-- VideoConferenceInfoUc -->
<g id="node7" class="node">
<title>VideoConferenceInfoUc</title>
<ellipse fill="#fdb462" stroke="black" cx="361" cy="-104" rx="106.46" ry="18"/>
<text text-anchor="middle" x="361" y="-99.8" font-family="Times,serif" font-size="14.00">VideoConferenceInfoUc</text>
</g>
<!-- VideoConferenceInfoUc&#45;&gt;VideoConferenceApiModule -->
<g id="edge6" class="edge">
<title>VideoConferenceInfoUc&#45;&gt;VideoConferenceApiModule</title>
<path fill="none" stroke="black" d="M361,-122.11C361,-141.34 361,-169 361,-169 361,-169 731.21,-169 731.21,-169"/>
<polygon fill="black" stroke="black" points="731.21,-172.5 741.21,-169 731.21,-165.5 731.21,-172.5"/>
</g>
<!-- VideoConferenceJoinUc -->
<g id="node8" class="node">
<title>VideoConferenceJoinUc</title>
<ellipse fill="#fdb462" stroke="black" cx="130" cy="-104" rx="106.48" ry="18"/>
<text text-anchor="middle" x="130" y="-99.8" font-family="Times,serif" font-size="14.00">VideoConferenceJoinUc</text>
</g>
<!-- VideoConferenceJoinUc&#45;&gt;VideoConferenceApiModule -->
<g id="edge7" class="edge">
<title>VideoConferenceJoinUc&#45;&gt;VideoConferenceApiModule</title>
<path fill="none" stroke="black" d="M130,-122.29C130,-144.21 130,-178 130,-178 130,-178 731.15,-178 731.15,-178"/>
<polygon fill="black" stroke="black" points="731.15,-181.5 741.15,-178 731.15,-174.5 731.15,-181.5"/>
</g>
</g>
</svg>
