<?xml version="1.0" encoding="UTF-8" standalone="no"?>
<!DOCTYPE svg PUBLIC "-//W3C//DTD SVG 1.1//EN"
 "http://www.w3.org/Graphics/SVG/1.1/DTD/svg11.dtd">
<!-- Generated by graphviz version 2.47.0 (20210316.0004)
 -->
<!-- Title: dependencies Pages: 1 -->
<svg width="1421pt" height="211pt"
 viewBox="0.00 0.00 1421.00 211.00" xmlns="http://www.w3.org/2000/svg" xmlns:xlink="http://www.w3.org/1999/xlink">
<g id="graph0" class="graph" transform="scale(1 1) rotate(0) translate(4 207)">
<title>dependencies</title>
<polygon fill="white" stroke="transparent" points="-4,4 -4,-207 1417,-207 1417,4 -4,4"/>
<text text-anchor="start" x="685.51" y="-42.4" font-family="Times-12" font-weight="bold" font-size="14.00">Legend</text>
<polygon fill="#ffffb3" stroke="transparent" points="472.5,-10 472.5,-30 492.5,-30 492.5,-10 472.5,-10"/>
<text text-anchor="start" x="496.13" y="-15.4" font-family="Times-12" font-size="14.00"> &#160;Declarations</text>
<polygon fill="#8dd3c7" stroke="transparent" points="585.5,-10 585.5,-30 605.5,-30 605.5,-10 585.5,-10"/>
<text text-anchor="start" x="609.23" y="-15.4" font-family="Times-12" font-size="14.00"> &#160;Module</text>
<polygon fill="#80b1d3" stroke="transparent" points="671.5,-10 671.5,-30 691.5,-30 691.5,-10 671.5,-10"/>
<text text-anchor="start" x="695.28" y="-15.4" font-family="Times-12" font-size="14.00"> &#160;Bootstrap</text>
<polygon fill="#fdb462" stroke="transparent" points="768.5,-10 768.5,-30 788.5,-30 788.5,-10 768.5,-10"/>
<text text-anchor="start" x="792.17" y="-15.4" font-family="Times-12" font-size="14.00"> &#160;Providers</text>
<polygon fill="#fb8072" stroke="transparent" points="864.5,-10 864.5,-30 884.5,-30 884.5,-10 864.5,-10"/>
<text text-anchor="start" x="888.23" y="-15.4" font-family="Times-12" font-size="14.00"> &#160;Exports</text>
<g id="clust1" class="cluster">
<title>cluster_VideoConferenceApiModule</title>
<polygon fill="none" stroke="black" stroke-dasharray="1,5" points="8,-70 8,-195 1405,-195 1405,-70 8,-70"/>
</g>
<g id="clust6" class="cluster">
<title>cluster_VideoConferenceApiModule_providers</title>
<polygon fill="none" stroke="black" points="458,-78 458,-130 1397,-130 1397,-78 458,-78"/>
</g>
<g id="clust3" class="cluster">
<title>cluster_VideoConferenceApiModule_imports</title>
<polygon fill="none" stroke="black" points="16,-78 16,-130 450,-130 450,-78 16,-78"/>
</g>
<!-- AuthorizationModule -->
<g id="node1" class="node">
<title>AuthorizationModule</title>
<polygon fill="#8dd3c7" stroke="black" points="441.81,-122 438.81,-126 417.81,-126 414.81,-122 304.19,-122 304.19,-86 441.81,-86 441.81,-122"/>
<text text-anchor="middle" x="373" y="-99.8" font-family="Times,serif" font-size="14.00">AuthorizationModule</text>
</g>
<!-- VideoConferenceApiModule -->
<g id="node4" class="node">
<title>VideoConferenceApiModule</title>
<polygon fill="#8dd3c7" stroke="black" points="661.78,-187 658.78,-191 637.78,-191 634.78,-187 482.22,-187 482.22,-151 661.78,-151 661.78,-187"/>
<text text-anchor="middle" x="572" y="-164.8" font-family="Times,serif" font-size="14.00">VideoConferenceApiModule</text>
</g>
<!-- AuthorizationModule&#45;&gt;VideoConferenceApiModule -->
<g id="edge1" class="edge">
<title>AuthorizationModule&#45;&gt;VideoConferenceApiModule</title>
<path fill="none" stroke="black" d="M373,-122.03C373,-138.4 373,-160 373,-160 373,-160 472.11,-160 472.11,-160"/>
<polygon fill="black" stroke="black" points="472.11,-163.5 482.11,-160 472.11,-156.5 472.11,-163.5"/>
</g>
<!-- UserModule -->
<g id="node2" class="node">
<title>UserModule</title>
<polygon fill="#8dd3c7" stroke="black" points="285.98,-122 282.98,-126 261.98,-126 258.98,-122 200.02,-122 200.02,-86 285.98,-86 285.98,-122"/>
<text text-anchor="middle" x="243" y="-99.8" font-family="Times,serif" font-size="14.00">UserModule</text>
</g>
<!-- UserModule&#45;&gt;VideoConferenceApiModule -->
<g id="edge2" class="edge">
<title>UserModule&#45;&gt;VideoConferenceApiModule</title>
<path fill="none" stroke="black" d="M243,-122.11C243,-141.34 243,-169 243,-169 243,-169 472.1,-169 472.1,-169"/>
<polygon fill="black" stroke="black" points="472.1,-172.5 482.1,-169 472.1,-165.5 472.1,-172.5"/>
</g>
<!-- VideoConferenceModule -->
<g id="node3" class="node">
<title>VideoConferenceModule</title>
<polygon fill="#8dd3c7" stroke="black" points="182.28,-122 179.28,-126 158.28,-126 155.28,-122 23.72,-122 23.72,-86 182.28,-86 182.28,-122"/>
<text text-anchor="middle" x="103" y="-99.8" font-family="Times,serif" font-size="14.00">VideoConferenceModule</text>
</g>
<!-- VideoConferenceModule&#45;&gt;VideoConferenceApiModule -->
<g id="edge3" class="edge">
<title>VideoConferenceModule&#45;&gt;VideoConferenceApiModule</title>
<path fill="none" stroke="black" d="M103,-122.29C103,-144.21 103,-178 103,-178 103,-178 472.13,-178 472.13,-178"/>
<polygon fill="black" stroke="black" points="472.13,-181.5 482.13,-178 472.13,-174.5 472.13,-181.5"/>
</g>
<!-- VideoConferenceCreateUc -->
<g id="node5" class="node">
<title>VideoConferenceCreateUc</title>
<ellipse fill="#fdb462" stroke="black" cx="1273" cy="-104" rx="115.69" ry="18"/>
<text text-anchor="middle" x="1273" y="-99.8" font-family="Times,serif" font-size="14.00">VideoConferenceCreateUc</text>
</g>
<!-- VideoConferenceCreateUc&#45;&gt;VideoConferenceApiModule -->
<g id="edge4" class="edge">
<title>VideoConferenceCreateUc&#45;&gt;VideoConferenceApiModule</title>
<path fill="none" stroke="black" d="M1273,-122.29C1273,-144.21 1273,-178 1273,-178 1273,-178 671.85,-178 671.85,-178"/>
<polygon fill="black" stroke="black" points="671.85,-174.5 661.85,-178 671.85,-181.5 671.85,-174.5"/>
</g>
<!-- VideoConferenceEndUc -->
<g id="node6" class="node">
<title>VideoConferenceEndUc</title>
<ellipse fill="#fdb462" stroke="black" cx="1033" cy="-104" rx="105.9" ry="18"/>
<text text-anchor="middle" x="1033" y="-99.8" font-family="Times,serif" font-size="14.00">VideoConferenceEndUc</text>
</g>
<!-- VideoConferenceEndUc&#45;&gt;VideoConferenceApiModule -->
<g id="edge5" class="edge">
<title>VideoConferenceEndUc&#45;&gt;VideoConferenceApiModule</title>
<path fill="none" stroke="black" d="M1033,-122.11C1033,-141.34 1033,-169 1033,-169 1033,-169 671.71,-169 671.71,-169"/>
<polygon fill="black" stroke="black" points="671.71,-165.5 661.71,-169 671.71,-172.5 671.71,-165.5"/>
</g>
<!-- VideoConferenceInfoUc -->
<g id="node7" class="node">
<title>VideoConferenceInfoUc</title>
<ellipse fill="#fdb462" stroke="black" cx="803" cy="-104" rx="106.46" ry="18"/>
<text text-anchor="middle" x="803" y="-99.8" font-family="Times,serif" font-size="14.00">VideoConferenceInfoUc</text>
</g>
<!-- VideoConferenceInfoUc&#45;&gt;VideoConferenceApiModule -->
<g id="edge6" class="edge">
<title>VideoConferenceInfoUc&#45;&gt;VideoConferenceApiModule</title>
<path fill="none" stroke="black" d="M803,-122.03C803,-138.4 803,-160 803,-160 803,-160 671.64,-160 671.64,-160"/>
<polygon fill="black" stroke="black" points="671.64,-156.5 661.64,-160 671.64,-163.5 671.64,-156.5"/>
</g>
<!-- VideoConferenceJoinUc -->
<g id="node8" class="node">
<title>VideoConferenceJoinUc</title>
<ellipse fill="#fdb462" stroke="black" cx="572" cy="-104" rx="106.48" ry="18"/>
<text text-anchor="middle" x="572" y="-99.8" font-family="Times,serif" font-size="14.00">VideoConferenceJoinUc</text>
</g>
<!-- VideoConferenceJoinUc&#45;&gt;VideoConferenceApiModule -->
<g id="edge7" class="edge">
<title>VideoConferenceJoinUc&#45;&gt;VideoConferenceApiModule</title>
<path fill="none" stroke="black" d="M572,-122.11C572,-122.11 572,-140.99 572,-140.99"/>
<polygon fill="black" stroke="black" points="568.5,-140.99 572,-150.99 575.5,-140.99 568.5,-140.99"/>
</g>
</g>
</svg>
