<?xml version="1.0" encoding="UTF-8" standalone="no"?>
<!DOCTYPE svg PUBLIC "-//W3C//DTD SVG 1.1//EN"
 "http://www.w3.org/Graphics/SVG/1.1/DTD/svg11.dtd">
<!-- Generated by graphviz version 2.47.0 (20210316.0004)
 -->
<!-- Title: dependencies Pages: 1 -->
<svg width="1408pt" height="284pt"
 viewBox="0.00 0.00 1408.00 284.00" xmlns="http://www.w3.org/2000/svg" xmlns:xlink="http://www.w3.org/1999/xlink">
<g id="graph0" class="graph" transform="scale(1 1) rotate(0) translate(4 280)">
<title>dependencies</title>
<polygon fill="white" stroke="transparent" points="-4,4 -4,-280 1404,-280 1404,4 -4,4"/>
<text text-anchor="start" x="679.01" y="-42.4" font-family="Times-12" font-weight="bold" font-size="14.00">Legend</text>
<polygon fill="#ffffb3" stroke="transparent" points="466,-10 466,-30 486,-30 486,-10 466,-10"/>
<text text-anchor="start" x="489.63" y="-15.4" font-family="Times-12" font-size="14.00"> &#160;Declarations</text>
<polygon fill="#8dd3c7" stroke="transparent" points="579,-10 579,-30 599,-30 599,-10 579,-10"/>
<text text-anchor="start" x="602.73" y="-15.4" font-family="Times-12" font-size="14.00"> &#160;Module</text>
<polygon fill="#80b1d3" stroke="transparent" points="665,-10 665,-30 685,-30 685,-10 665,-10"/>
<text text-anchor="start" x="688.78" y="-15.4" font-family="Times-12" font-size="14.00"> &#160;Bootstrap</text>
<polygon fill="#fdb462" stroke="transparent" points="762,-10 762,-30 782,-30 782,-10 762,-10"/>
<text text-anchor="start" x="785.67" y="-15.4" font-family="Times-12" font-size="14.00"> &#160;Providers</text>
<polygon fill="#fb8072" stroke="transparent" points="858,-10 858,-30 878,-30 878,-10 858,-10"/>
<text text-anchor="start" x="881.73" y="-15.4" font-family="Times-12" font-size="14.00"> &#160;Exports</text>
<g id="clust1" class="cluster">
<title>cluster_SchoolExternalToolModule</title>
<polygon fill="none" stroke="black" stroke-dasharray="1,5" points="8,-70 8,-268 1392,-268 1392,-70 8,-70"/>
</g>
<g id="clust6" class="cluster">
<title>cluster_SchoolExternalToolModule_providers</title>
<polygon fill="none" stroke="black" points="472,-78 472,-130 1384,-130 1384,-78 472,-78"/>
</g>
<g id="clust3" class="cluster">
<title>cluster_SchoolExternalToolModule_imports</title>
<polygon fill="none" stroke="black" points="16,-78 16,-130 464,-130 464,-78 16,-78"/>
</g>
<g id="clust4" class="cluster">
<title>cluster_SchoolExternalToolModule_exports</title>
<polygon fill="none" stroke="black" points="166,-208 166,-260 852,-260 852,-208 166,-208"/>
</g>
<!-- CommonToolModule -->
<g id="node1" class="node">
<title>CommonToolModule</title>
<polygon fill="#8dd3c7" stroke="black" points="456.11,-122 453.11,-126 432.11,-126 429.11,-122 317.89,-122 317.89,-86 456.11,-86 456.11,-122"/>
<text text-anchor="middle" x="387" y="-99.8" font-family="Times,serif" font-size="14.00">CommonToolModule</text>
</g>
<!-- SchoolExternalToolModule -->
<g id="node4" class="node">
<title>SchoolExternalToolModule</title>
<polygon fill="#8dd3c7" stroke="black" points="599.3,-187 596.3,-191 575.3,-191 572.3,-187 426.7,-187 426.7,-151 599.3,-151 599.3,-187"/>
<text text-anchor="middle" x="513" y="-164.8" font-family="Times,serif" font-size="14.00">SchoolExternalToolModule</text>
</g>
<!-- CommonToolModule&#45;&gt;SchoolExternalToolModule -->
<g id="edge1" class="edge">
<title>CommonToolModule&#45;&gt;SchoolExternalToolModule</title>
<path fill="none" stroke="black" d="M441.45,-122.11C441.45,-122.11 441.45,-140.99 441.45,-140.99"/>
<polygon fill="black" stroke="black" points="437.95,-140.99 441.45,-150.99 444.95,-140.99 437.95,-140.99"/>
</g>
<!-- ExternalToolModule -->
<g id="node2" class="node">
<title>ExternalToolModule</title>
<polygon fill="#8dd3c7" stroke="black" points="299.92,-122 296.92,-126 275.92,-126 272.92,-122 166.08,-122 166.08,-86 299.92,-86 299.92,-122"/>
<text text-anchor="middle" x="233" y="-99.8" font-family="Times,serif" font-size="14.00">ExternalToolModule</text>
</g>
<!-- ExternalToolModule&#45;&gt;SchoolExternalToolModule -->
<g id="edge2" class="edge">
<title>ExternalToolModule&#45;&gt;SchoolExternalToolModule</title>
<path fill="none" stroke="black" d="M237.02,-122.03C237.02,-138.4 237.02,-160 237.02,-160 237.02,-160 416.81,-160 416.81,-160"/>
<polygon fill="black" stroke="black" points="416.81,-163.5 426.81,-160 416.81,-156.5 416.81,-163.5"/>
</g>
<!-- ToolConfigModule -->
<g id="node3" class="node">
<title>ToolConfigModule</title>
<polygon fill="#8dd3c7" stroke="black" points="148.38,-122 145.38,-126 124.38,-126 121.38,-122 23.62,-122 23.62,-86 148.38,-86 148.38,-122"/>
<text text-anchor="middle" x="86" y="-99.8" font-family="Times,serif" font-size="14.00">ToolConfigModule</text>
</g>
<!-- ToolConfigModule&#45;&gt;SchoolExternalToolModule -->
<g id="edge3" class="edge">
<title>ToolConfigModule&#45;&gt;SchoolExternalToolModule</title>
<path fill="none" stroke="black" d="M86,-122.11C86,-141.34 86,-169 86,-169 86,-169 416.85,-169 416.85,-169"/>
<polygon fill="black" stroke="black" points="416.85,-172.5 426.85,-169 416.85,-165.5 416.85,-172.5"/>
</g>
<!-- SchoolExternalToolMetadataService  -->
<g id="node5" class="node">
<title>SchoolExternalToolMetadataService </title>
<polygon fill="#fb8072" stroke="black" points="844.32,-252 617.68,-252 617.68,-216 844.32,-216 844.32,-252"/>
<text text-anchor="middle" x="731" y="-229.8" font-family="Times,serif" font-size="14.00">SchoolExternalToolMetadataService </text>
</g>
<!-- SchoolExternalToolModule&#45;&gt;SchoolExternalToolMetadataService  -->
<g id="edge4" class="edge">
<title>SchoolExternalToolModule&#45;&gt;SchoolExternalToolMetadataService </title>
<path fill="none" stroke="black" stroke-dasharray="5,2" d="M599.24,-178C651.32,-178 707.69,-178 707.69,-178 707.69,-178 707.69,-205.97 707.69,-205.97"/>
<polygon fill="black" stroke="black" points="704.19,-205.97 707.69,-215.97 711.19,-205.97 704.19,-205.97"/>
</g>
<!-- SchoolExternalToolService  -->
<g id="node6" class="node">
<title>SchoolExternalToolService </title>
<polygon fill="#fb8072" stroke="black" points="600.23,-252 425.77,-252 425.77,-216 600.23,-216 600.23,-252"/>
<text text-anchor="middle" x="513" y="-229.8" font-family="Times,serif" font-size="14.00">SchoolExternalToolService </text>
</g>
<!-- SchoolExternalToolModule&#45;&gt;SchoolExternalToolService  -->
<g id="edge5" class="edge">
<title>SchoolExternalToolModule&#45;&gt;SchoolExternalToolService </title>
<path fill="none" stroke="black" stroke-dasharray="5,2" d="M513,-187.11C513,-187.11 513,-205.99 513,-205.99"/>
<polygon fill="black" stroke="black" points="509.5,-205.99 513,-215.99 516.5,-205.99 509.5,-205.99"/>
</g>
<!-- SchoolExternalToolValidationService  -->
<g id="node7" class="node">
<title>SchoolExternalToolValidationService </title>
<polygon fill="#fb8072" stroke="black" points="407.83,-252 174.17,-252 174.17,-216 407.83,-216 407.83,-252"/>
<text text-anchor="middle" x="291" y="-229.8" font-family="Times,serif" font-size="14.00">SchoolExternalToolValidationService </text>
</g>
<!-- SchoolExternalToolModule&#45;&gt;SchoolExternalToolValidationService  -->
<g id="edge6" class="edge">
<title>SchoolExternalToolModule&#45;&gt;SchoolExternalToolValidationService </title>
<path fill="none" stroke="black" stroke-dasharray="5,2" d="M426.5,-178C393.11,-178 362.8,-178 362.8,-178 362.8,-178 362.8,-205.97 362.8,-205.97"/>
<polygon fill="black" stroke="black" points="359.3,-205.97 362.8,-215.97 366.3,-205.97 359.3,-205.97"/>
</g>
<!-- SchoolExternalToolMetadataService -->
<g id="node8" class="node">
<title>SchoolExternalToolMetadataService</title>
<ellipse fill="#fdb462" stroke="black" cx="1222" cy="-104" rx="153.89" ry="18"/>
<text text-anchor="middle" x="1222" y="-99.8" font-family="Times,serif" font-size="14.00">SchoolExternalToolMetadataService</text>
</g>
<!-- SchoolExternalToolMetadataService&#45;&gt;SchoolExternalToolModule -->
<g id="edge7" class="edge">
<title>SchoolExternalToolMetadataService&#45;&gt;SchoolExternalToolModule</title>
<path fill="none" stroke="black" d="M1222,-122.11C1222,-141.34 1222,-169 1222,-169 1222,-169 609.23,-169 609.23,-169"/>
<polygon fill="black" stroke="black" points="609.23,-165.5 599.23,-169 609.23,-172.5 609.23,-165.5"/>
</g>
<!-- SchoolExternalToolService -->
<g id="node9" class="node">
<title>SchoolExternalToolService</title>
<ellipse fill="#fdb462" stroke="black" cx="933" cy="-104" rx="117.54" ry="18"/>
<text text-anchor="middle" x="933" y="-99.8" font-family="Times,serif" font-size="14.00">SchoolExternalToolService</text>
</g>
<!-- SchoolExternalToolService&#45;&gt;SchoolExternalToolModule -->
<g id="edge8" class="edge">
<title>SchoolExternalToolService&#45;&gt;SchoolExternalToolModule</title>
<path fill="none" stroke="black" d="M829.7,-112.75C829.7,-128.5 829.7,-160 829.7,-160 829.7,-160 609.54,-160 609.54,-160"/>
<polygon fill="black" stroke="black" points="609.54,-156.5 599.54,-160 609.54,-163.5 609.54,-156.5"/>
</g>
<!-- SchoolExternalToolValidationService -->
<g id="node10" class="node">
<title>SchoolExternalToolValidationService</title>
<ellipse fill="#fdb462" stroke="black" cx="639" cy="-104" rx="158.57" ry="18"/>
<text text-anchor="middle" x="639" y="-99.8" font-family="Times,serif" font-size="14.00">SchoolExternalToolValidationService</text>
</g>
<!-- SchoolExternalToolValidationService&#45;&gt;SchoolExternalToolModule -->
<g id="edge9" class="edge">
<title>SchoolExternalToolValidationService&#45;&gt;SchoolExternalToolModule</title>
<path fill="none" stroke="black" d="M539.81,-118.1C539.81,-118.1 539.81,-140.72 539.81,-140.72"/>
<polygon fill="black" stroke="black" points="536.31,-140.72 539.81,-150.72 543.31,-140.72 536.31,-140.72"/>
</g>
</g>
</svg>
