<?xml version="1.0" encoding="UTF-8" standalone="no"?>
<!DOCTYPE svg PUBLIC "-//W3C//DTD SVG 1.1//EN"
 "http://www.w3.org/Graphics/SVG/1.1/DTD/svg11.dtd">
<!-- Generated by graphviz version 2.47.0 (20210316.0004)
 -->
<!-- Title: dependencies Pages: 1 -->
<svg width="775pt" height="284pt"
 viewBox="0.00 0.00 775.00 284.00" xmlns="http://www.w3.org/2000/svg" xmlns:xlink="http://www.w3.org/1999/xlink">
<g id="graph0" class="graph" transform="scale(1 1) rotate(0) translate(4 280)">
<title>dependencies</title>
<polygon fill="white" stroke="transparent" points="-4,4 -4,-280 771,-280 771,4 -4,4"/>
<text text-anchor="start" x="362.51" y="-42.4" font-family="Times-12" font-weight="bold" font-size="14.00">Legend</text>
<polygon fill="#ffffb3" stroke="transparent" points="149.5,-10 149.5,-30 169.5,-30 169.5,-10 149.5,-10"/>
<text text-anchor="start" x="173.13" y="-15.4" font-family="Times-12" font-size="14.00"> &#160;Declarations</text>
<polygon fill="#8dd3c7" stroke="transparent" points="262.5,-10 262.5,-30 282.5,-30 282.5,-10 262.5,-10"/>
<text text-anchor="start" x="286.23" y="-15.4" font-family="Times-12" font-size="14.00"> &#160;Module</text>
<polygon fill="#80b1d3" stroke="transparent" points="348.5,-10 348.5,-30 368.5,-30 368.5,-10 348.5,-10"/>
<text text-anchor="start" x="372.28" y="-15.4" font-family="Times-12" font-size="14.00"> &#160;Bootstrap</text>
<polygon fill="#fdb462" stroke="transparent" points="445.5,-10 445.5,-30 465.5,-30 465.5,-10 445.5,-10"/>
<text text-anchor="start" x="469.17" y="-15.4" font-family="Times-12" font-size="14.00"> &#160;Providers</text>
<polygon fill="#fb8072" stroke="transparent" points="541.5,-10 541.5,-30 561.5,-30 561.5,-10 541.5,-10"/>
<text text-anchor="start" x="565.23" y="-15.4" font-family="Times-12" font-size="14.00"> &#160;Exports</text>
<g id="clust1" class="cluster">
<title>cluster_SchoolExternalToolModule</title>
<polygon fill="none" stroke="black" stroke-dasharray="1,5" points="8,-70 8,-268 759,-268 759,-70 8,-70"/>
</g>
<g id="clust6" class="cluster">
<title>cluster_SchoolExternalToolModule_providers</title>
<polygon fill="none" stroke="black" points="164,-78 164,-130 751,-130 751,-78 164,-78"/>
</g>
<g id="clust4" class="cluster">
<title>cluster_SchoolExternalToolModule_exports</title>
<polygon fill="none" stroke="black" points="111,-208 111,-260 553,-260 553,-208 111,-208"/>
</g>
<g id="clust3" class="cluster">
<title>cluster_SchoolExternalToolModule_imports</title>
<polygon fill="none" stroke="black" points="16,-78 16,-130 156,-130 156,-78 16,-78"/>
</g>
<!-- ToolConfigModule -->
<g id="node1" class="node">
<title>ToolConfigModule</title>
<polygon fill="#8dd3c7" stroke="black" points="148.38,-122 145.38,-126 124.38,-126 121.38,-122 23.62,-122 23.62,-86 148.38,-86 148.38,-122"/>
<text text-anchor="middle" x="86" y="-99.8" font-family="Times,serif" font-size="14.00">ToolConfigModule</text>
</g>
<!-- SchoolExternalToolModule -->
<g id="node2" class="node">
<title>SchoolExternalToolModule</title>
<polygon fill="#8dd3c7" stroke="black" points="417.3,-187 414.3,-191 393.3,-191 390.3,-187 244.7,-187 244.7,-151 417.3,-151 417.3,-187"/>
<text text-anchor="middle" x="331" y="-164.8" font-family="Times,serif" font-size="14.00">SchoolExternalToolModule</text>
</g>
<!-- ToolConfigModule&#45;&gt;SchoolExternalToolModule -->
<g id="edge1" class="edge">
<title>ToolConfigModule&#45;&gt;SchoolExternalToolModule</title>
<path fill="none" stroke="black" d="M133.89,-122.11C133.89,-141.34 133.89,-169 133.89,-169 133.89,-169 234.83,-169 234.83,-169"/>
<polygon fill="black" stroke="black" points="234.83,-172.5 244.83,-169 234.83,-165.5 234.83,-172.5"/>
</g>
<!-- SchoolExternalToolService  -->
<g id="node3" class="node">
<title>SchoolExternalToolService </title>
<polygon fill="#fb8072" stroke="black" points="545.23,-252 370.77,-252 370.77,-216 545.23,-216 545.23,-252"/>
<text text-anchor="middle" x="458" y="-229.8" font-family="Times,serif" font-size="14.00">SchoolExternalToolService </text>
</g>
<!-- SchoolExternalToolModule&#45;&gt;SchoolExternalToolService  -->
<g id="edge2" class="edge">
<title>SchoolExternalToolModule&#45;&gt;SchoolExternalToolService </title>
<path fill="none" stroke="black" stroke-dasharray="5,2" d="M394.02,-187.11C394.02,-187.11 394.02,-205.99 394.02,-205.99"/>
<polygon fill="black" stroke="black" points="390.52,-205.99 394.02,-215.99 397.52,-205.99 390.52,-205.99"/>
</g>
<!-- SchoolExternalToolValidationService  -->
<g id="node4" class="node">
<title>SchoolExternalToolValidationService </title>
<polygon fill="#fb8072" stroke="black" points="352.83,-252 119.17,-252 119.17,-216 352.83,-216 352.83,-252"/>
<text text-anchor="middle" x="236" y="-229.8" font-family="Times,serif" font-size="14.00">SchoolExternalToolValidationService </text>
</g>
<!-- SchoolExternalToolModule&#45;&gt;SchoolExternalToolValidationService  -->
<g id="edge3" class="edge">
<title>SchoolExternalToolModule&#45;&gt;SchoolExternalToolValidationService </title>
<path fill="none" stroke="black" stroke-dasharray="5,2" d="M298.76,-187.11C298.76,-187.11 298.76,-205.99 298.76,-205.99"/>
<polygon fill="black" stroke="black" points="295.26,-205.99 298.76,-215.99 302.26,-205.99 295.26,-205.99"/>
</g>
<!-- SchoolExternalToolService -->
<g id="node5" class="node">
<title>SchoolExternalToolService</title>
<ellipse fill="#fdb462" stroke="black" cx="625" cy="-104" rx="117.54" ry="18"/>
<text text-anchor="middle" x="625" y="-99.8" font-family="Times,serif" font-size="14.00">SchoolExternalToolService</text>
</g>
<!-- SchoolExternalToolService&#45;&gt;SchoolExternalToolModule -->
<g id="edge4" class="edge">
<title>SchoolExternalToolService&#45;&gt;SchoolExternalToolModule</title>
<path fill="none" stroke="black" d="M526.17,-113.87C526.17,-132.06 526.17,-169 526.17,-169 526.17,-169 427.17,-169 427.17,-169"/>
<polygon fill="black" stroke="black" points="427.17,-165.5 417.17,-169 427.17,-172.5 427.17,-165.5"/>
</g>
<!-- SchoolExternalToolValidationService -->
<g id="node6" class="node">
<title>SchoolExternalToolValidationService</title>
<ellipse fill="#fdb462" stroke="black" cx="331" cy="-104" rx="158.57" ry="18"/>
<text text-anchor="middle" x="331" y="-99.8" font-family="Times,serif" font-size="14.00">SchoolExternalToolValidationService</text>
</g>
<!-- SchoolExternalToolValidationService&#45;&gt;SchoolExternalToolModule -->
<g id="edge5" class="edge">
<title>SchoolExternalToolValidationService&#45;&gt;SchoolExternalToolModule</title>
<path fill="none" stroke="black" d="M331,-122.11C331,-122.11 331,-140.99 331,-140.99"/>
<polygon fill="black" stroke="black" points="327.5,-140.99 331,-150.99 334.5,-140.99 327.5,-140.99"/>
</g>
</g>
</svg>
