<?xml version="1.0" encoding="UTF-8" standalone="no"?>
<!DOCTYPE svg PUBLIC "-//W3C//DTD SVG 1.1//EN"
 "http://www.w3.org/Graphics/SVG/1.1/DTD/svg11.dtd">
<!-- Generated by graphviz version 2.47.0 (20210316.0004)
 -->
<!-- Title: dependencies Pages: 1 -->
<svg width="1083pt" height="284pt"
 viewBox="0.00 0.00 1083.00 284.00" xmlns="http://www.w3.org/2000/svg" xmlns:xlink="http://www.w3.org/1999/xlink">
<g id="graph0" class="graph" transform="scale(1 1) rotate(0) translate(4 280)">
<title>dependencies</title>
<polygon fill="white" stroke="transparent" points="-4,4 -4,-280 1079,-280 1079,4 -4,4"/>
<text text-anchor="start" x="516.51" y="-42.4" font-family="Times-12" font-weight="bold" font-size="14.00">Legend</text>
<polygon fill="#ffffb3" stroke="transparent" points="303.5,-10 303.5,-30 323.5,-30 323.5,-10 303.5,-10"/>
<text text-anchor="start" x="327.13" y="-15.4" font-family="Times-12" font-size="14.00"> &#160;Declarations</text>
<polygon fill="#8dd3c7" stroke="transparent" points="416.5,-10 416.5,-30 436.5,-30 436.5,-10 416.5,-10"/>
<text text-anchor="start" x="440.23" y="-15.4" font-family="Times-12" font-size="14.00"> &#160;Module</text>
<polygon fill="#80b1d3" stroke="transparent" points="502.5,-10 502.5,-30 522.5,-30 522.5,-10 502.5,-10"/>
<text text-anchor="start" x="526.28" y="-15.4" font-family="Times-12" font-size="14.00"> &#160;Bootstrap</text>
<polygon fill="#fdb462" stroke="transparent" points="599.5,-10 599.5,-30 619.5,-30 619.5,-10 599.5,-10"/>
<text text-anchor="start" x="623.17" y="-15.4" font-family="Times-12" font-size="14.00"> &#160;Providers</text>
<polygon fill="#fb8072" stroke="transparent" points="695.5,-10 695.5,-30 715.5,-30 715.5,-10 695.5,-10"/>
<text text-anchor="start" x="719.23" y="-15.4" font-family="Times-12" font-size="14.00"> &#160;Exports</text>
<g id="clust1" class="cluster">
<title>cluster_SchoolExternalToolModule</title>
<polygon fill="none" stroke="black" stroke-dasharray="1,5" points="8,-70 8,-268 1067,-268 1067,-70 8,-70"/>
</g>
<g id="clust6" class="cluster">
<title>cluster_SchoolExternalToolModule_providers</title>
<polygon fill="none" stroke="black" points="472,-78 472,-130 1059,-130 1059,-78 472,-78"/>
</g>
<g id="clust4" class="cluster">
<title>cluster_SchoolExternalToolModule_exports</title>
<polygon fill="none" stroke="black" points="151,-208 151,-260 593,-260 593,-208 151,-208"/>
</g>
<g id="clust3" class="cluster">
<title>cluster_SchoolExternalToolModule_imports</title>
<polygon fill="none" stroke="black" points="16,-78 16,-130 464,-130 464,-78 16,-78"/>
</g>
<!-- CommonToolModule -->
<g id="node1" class="node">
<title>CommonToolModule</title>
<polygon fill="#8dd3c7" stroke="black" points="456.11,-122 453.11,-126 432.11,-126 429.11,-122 317.89,-122 317.89,-86 456.11,-86 456.11,-122"/>
<text text-anchor="middle" x="387" y="-99.8" font-family="Times,serif" font-size="14.00">CommonToolModule</text>
</g>
<!-- SchoolExternalToolModule -->
<g id="node4" class="node">
<title>SchoolExternalToolModule</title>
<polygon fill="#8dd3c7" stroke="black" points="473.3,-187 470.3,-191 449.3,-191 446.3,-187 300.7,-187 300.7,-151 473.3,-151 473.3,-187"/>
<text text-anchor="middle" x="387" y="-164.8" font-family="Times,serif" font-size="14.00">SchoolExternalToolModule</text>
</g>
<!-- CommonToolModule&#45;&gt;SchoolExternalToolModule -->
<g id="edge1" class="edge">
<title>CommonToolModule&#45;&gt;SchoolExternalToolModule</title>
<path fill="none" stroke="black" d="M387,-122.11C387,-122.11 387,-140.99 387,-140.99"/>
<polygon fill="black" stroke="black" points="383.5,-140.99 387,-150.99 390.5,-140.99 383.5,-140.99"/>
</g>
<!-- ExternalToolModule -->
<g id="node2" class="node">
<title>ExternalToolModule</title>
<polygon fill="#8dd3c7" stroke="black" points="299.92,-122 296.92,-126 275.92,-126 272.92,-122 166.08,-122 166.08,-86 299.92,-86 299.92,-122"/>
<text text-anchor="middle" x="233" y="-99.8" font-family="Times,serif" font-size="14.00">ExternalToolModule</text>
</g>
<!-- ExternalToolModule&#45;&gt;SchoolExternalToolModule -->
<g id="edge2" class="edge">
<title>ExternalToolModule&#45;&gt;SchoolExternalToolModule</title>
<path fill="none" stroke="black" d="M299.72,-104C305.61,-104 309.4,-104 309.4,-104 309.4,-104 309.4,-140.89 309.4,-140.89"/>
<polygon fill="black" stroke="black" points="305.9,-140.89 309.4,-150.89 312.9,-140.89 305.9,-140.89"/>
</g>
<!-- ToolConfigModule -->
<g id="node3" class="node">
<title>ToolConfigModule</title>
<polygon fill="#8dd3c7" stroke="black" points="148.38,-122 145.38,-126 124.38,-126 121.38,-122 23.62,-122 23.62,-86 148.38,-86 148.38,-122"/>
<text text-anchor="middle" x="86" y="-99.8" font-family="Times,serif" font-size="14.00">ToolConfigModule</text>
</g>
<!-- ToolConfigModule&#45;&gt;SchoolExternalToolModule -->
<g id="edge3" class="edge">
<title>ToolConfigModule&#45;&gt;SchoolExternalToolModule</title>
<path fill="none" stroke="black" d="M86,-122.11C86,-141.34 86,-169 86,-169 86,-169 290.75,-169 290.75,-169"/>
<polygon fill="black" stroke="black" points="290.75,-172.5 300.75,-169 290.75,-165.5 290.75,-172.5"/>
</g>
<!-- SchoolExternalToolService  -->
<g id="node5" class="node">
<title>SchoolExternalToolService </title>
<polygon fill="#fb8072" stroke="black" points="585.23,-252 410.77,-252 410.77,-216 585.23,-216 585.23,-252"/>
<text text-anchor="middle" x="498" y="-229.8" font-family="Times,serif" font-size="14.00">SchoolExternalToolService </text>
</g>
<!-- SchoolExternalToolModule&#45;&gt;SchoolExternalToolService  -->
<g id="edge4" class="edge">
<title>SchoolExternalToolModule&#45;&gt;SchoolExternalToolService </title>
<path fill="none" stroke="black" stroke-dasharray="5,2" d="M442.02,-187.11C442.02,-187.11 442.02,-205.99 442.02,-205.99"/>
<polygon fill="black" stroke="black" points="438.52,-205.99 442.02,-215.99 445.52,-205.99 438.52,-205.99"/>
</g>
<!-- SchoolExternalToolValidationService  -->
<g id="node6" class="node">
<title>SchoolExternalToolValidationService </title>
<polygon fill="#fb8072" stroke="black" points="392.83,-252 159.17,-252 159.17,-216 392.83,-216 392.83,-252"/>
<text text-anchor="middle" x="276" y="-229.8" font-family="Times,serif" font-size="14.00">SchoolExternalToolValidationService </text>
</g>
<!-- SchoolExternalToolModule&#45;&gt;SchoolExternalToolValidationService  -->
<g id="edge5" class="edge">
<title>SchoolExternalToolModule&#45;&gt;SchoolExternalToolValidationService </title>
<path fill="none" stroke="black" stroke-dasharray="5,2" d="M346.76,-187.11C346.76,-187.11 346.76,-205.99 346.76,-205.99"/>
<polygon fill="black" stroke="black" points="343.26,-205.99 346.76,-215.99 350.26,-205.99 343.26,-205.99"/>
</g>
<!-- SchoolExternalToolService -->
<g id="node7" class="node">
<title>SchoolExternalToolService</title>
<ellipse fill="#fdb462" stroke="black" cx="933" cy="-104" rx="117.54" ry="18"/>
<text text-anchor="middle" x="933" y="-99.8" font-family="Times,serif" font-size="14.00">SchoolExternalToolService</text>
</g>
<!-- SchoolExternalToolService&#45;&gt;SchoolExternalToolModule -->
<g id="edge6" class="edge">
<title>SchoolExternalToolService&#45;&gt;SchoolExternalToolModule</title>
<path fill="none" stroke="black" d="M933,-122.11C933,-141.34 933,-169 933,-169 933,-169 483.21,-169 483.21,-169"/>
<polygon fill="black" stroke="black" points="483.21,-165.5 473.21,-169 483.21,-172.5 483.21,-165.5"/>
</g>
<!-- SchoolExternalToolValidationService -->
<g id="node8" class="node">
<title>SchoolExternalToolValidationService</title>
<ellipse fill="#fdb462" stroke="black" cx="639" cy="-104" rx="158.57" ry="18"/>
<text text-anchor="middle" x="639" y="-99.8" font-family="Times,serif" font-size="14.00">SchoolExternalToolValidationService</text>
</g>
<!-- SchoolExternalToolValidationService&#45;&gt;SchoolExternalToolModule -->
<g id="edge7" class="edge">
<title>SchoolExternalToolValidationService&#45;&gt;SchoolExternalToolModule</title>
<path fill="none" stroke="black" d="M480.39,-104C470.61,-104 464.6,-104 464.6,-104 464.6,-104 464.6,-140.89 464.6,-140.89"/>
<polygon fill="black" stroke="black" points="461.1,-140.89 464.6,-150.89 468.1,-140.89 461.1,-140.89"/>
</g>
</g>
</svg>
