<?xml version="1.0" encoding="UTF-8" standalone="no"?>
<!DOCTYPE svg PUBLIC "-//W3C//DTD SVG 1.1//EN"
 "http://www.w3.org/Graphics/SVG/1.1/DTD/svg11.dtd">
<!-- Generated by graphviz version 2.47.0 (20210316.0004)
 -->
<!-- Title: dependencies Pages: 1 -->
<svg width="775pt" height="284pt"
 viewBox="0.00 0.00 775.00 284.00" xmlns="http://www.w3.org/2000/svg" xmlns:xlink="http://www.w3.org/1999/xlink">
<g id="graph0" class="graph" transform="scale(1 1) rotate(0) translate(4 280)">
<title>dependencies</title>
<polygon fill="white" stroke="transparent" points="-4,4 -4,-280 771,-280 771,4 -4,4"/>
<text text-anchor="start" x="362.51" y="-42.4" font-family="Times-12" font-weight="bold" font-size="14.00">Legend</text>
<polygon fill="#ffffb3" stroke="transparent" points="149.5,-10 149.5,-30 169.5,-30 169.5,-10 149.5,-10"/>
<text text-anchor="start" x="173.13" y="-15.4" font-family="Times-12" font-size="14.00"> &#160;Declarations</text>
<polygon fill="#8dd3c7" stroke="transparent" points="262.5,-10 262.5,-30 282.5,-30 282.5,-10 262.5,-10"/>
<text text-anchor="start" x="286.23" y="-15.4" font-family="Times-12" font-size="14.00"> &#160;Module</text>
<polygon fill="#80b1d3" stroke="transparent" points="348.5,-10 348.5,-30 368.5,-30 368.5,-10 348.5,-10"/>
<text text-anchor="start" x="372.28" y="-15.4" font-family="Times-12" font-size="14.00"> &#160;Bootstrap</text>
<polygon fill="#fdb462" stroke="transparent" points="445.5,-10 445.5,-30 465.5,-30 465.5,-10 445.5,-10"/>
<text text-anchor="start" x="469.17" y="-15.4" font-family="Times-12" font-size="14.00"> &#160;Providers</text>
<polygon fill="#fb8072" stroke="transparent" points="541.5,-10 541.5,-30 561.5,-30 561.5,-10 541.5,-10"/>
<text text-anchor="start" x="565.23" y="-15.4" font-family="Times-12" font-size="14.00"> &#160;Exports</text>
<g id="clust1" class="cluster">
<title>cluster_SchoolExternalToolModule</title>
<polygon fill="none" stroke="black" stroke-dasharray="1,5" points="8,-70 8,-268 759,-268 759,-70 8,-70"/>
</g>
<g id="clust3" class="cluster">
<title>cluster_SchoolExternalToolModule_imports</title>
<polygon fill="none" stroke="black" points="611,-78 611,-130 751,-130 751,-78 611,-78"/>
</g>
<g id="clust6" class="cluster">
<title>cluster_SchoolExternalToolModule_providers</title>
<polygon fill="none" stroke="black" points="16,-78 16,-130 603,-130 603,-78 16,-78"/>
</g>
<g id="clust4" class="cluster">
<title>cluster_SchoolExternalToolModule_exports</title>
<polygon fill="none" stroke="black" points="220,-208 220,-260 662,-260 662,-208 220,-208"/>
</g>
<!-- ToolConfigModule -->
<g id="node1" class="node">
<title>ToolConfigModule</title>
<polygon fill="#8dd3c7" stroke="black" points="743.38,-122 740.38,-126 719.38,-126 716.38,-122 618.62,-122 618.62,-86 743.38,-86 743.38,-122"/>
<text text-anchor="middle" x="681" y="-99.8" font-family="Times,serif" font-size="14.00">ToolConfigModule</text>
</g>
<!-- SchoolExternalToolModule -->
<g id="node2" class="node">
<title>SchoolExternalToolModule</title>
<polygon fill="#8dd3c7" stroke="black" points="563.3,-187 560.3,-191 539.3,-191 536.3,-187 390.7,-187 390.7,-151 563.3,-151 563.3,-187"/>
<text text-anchor="middle" x="477" y="-164.8" font-family="Times,serif" font-size="14.00">SchoolExternalToolModule</text>
</g>
<!-- ToolConfigModule&#45;&gt;SchoolExternalToolModule -->
<g id="edge1" class="edge">
<title>ToolConfigModule&#45;&gt;SchoolExternalToolModule</title>
<path fill="none" stroke="black" d="M636.34,-122.11C636.34,-141.34 636.34,-169 636.34,-169 636.34,-169 573.2,-169 573.2,-169"/>
<polygon fill="black" stroke="black" points="573.2,-165.5 563.2,-169 573.2,-172.5 573.2,-165.5"/>
</g>
<!-- SchoolExternalToolService  -->
<g id="node3" class="node">
<title>SchoolExternalToolService </title>
<polygon fill="#fb8072" stroke="black" points="654.23,-252 479.77,-252 479.77,-216 654.23,-216 654.23,-252"/>
<text text-anchor="middle" x="567" y="-229.8" font-family="Times,serif" font-size="14.00">SchoolExternalToolService </text>
</g>
<!-- SchoolExternalToolModule&#45;&gt;SchoolExternalToolService  -->
<g id="edge2" class="edge">
<title>SchoolExternalToolModule&#45;&gt;SchoolExternalToolService </title>
<path fill="none" stroke="black" stroke-dasharray="5,2" d="M521.52,-187.11C521.52,-187.11 521.52,-205.99 521.52,-205.99"/>
<polygon fill="black" stroke="black" points="518.02,-205.99 521.52,-215.99 525.02,-205.99 518.02,-205.99"/>
</g>
<!-- SchoolExternalToolValidationService  -->
<g id="node4" class="node">
<title>SchoolExternalToolValidationService </title>
<polygon fill="#fb8072" stroke="black" points="461.83,-252 228.17,-252 228.17,-216 461.83,-216 461.83,-252"/>
<text text-anchor="middle" x="345" y="-229.8" font-family="Times,serif" font-size="14.00">SchoolExternalToolValidationService </text>
</g>
<!-- SchoolExternalToolModule&#45;&gt;SchoolExternalToolValidationService  -->
<g id="edge3" class="edge">
<title>SchoolExternalToolModule&#45;&gt;SchoolExternalToolValidationService </title>
<path fill="none" stroke="black" stroke-dasharray="5,2" d="M426.26,-187.11C426.26,-187.11 426.26,-205.99 426.26,-205.99"/>
<polygon fill="black" stroke="black" points="422.76,-205.99 426.26,-215.99 429.76,-205.99 422.76,-205.99"/>
</g>
<!-- SchoolExternalToolService -->
<g id="node5" class="node">
<title>SchoolExternalToolService</title>
<ellipse fill="#fdb462" stroke="black" cx="477" cy="-104" rx="117.54" ry="18"/>
<text text-anchor="middle" x="477" y="-99.8" font-family="Times,serif" font-size="14.00">SchoolExternalToolService</text>
</g>
<!-- SchoolExternalToolService&#45;&gt;SchoolExternalToolModule -->
<g id="edge4" class="edge">
<title>SchoolExternalToolService&#45;&gt;SchoolExternalToolModule</title>
<path fill="none" stroke="black" d="M477,-122.11C477,-122.11 477,-140.99 477,-140.99"/>
<polygon fill="black" stroke="black" points="473.5,-140.99 477,-150.99 480.5,-140.99 473.5,-140.99"/>
</g>
<!-- SchoolExternalToolValidationService -->
<g id="node6" class="node">
<title>SchoolExternalToolValidationService</title>
<ellipse fill="#fdb462" stroke="black" cx="183" cy="-104" rx="158.57" ry="18"/>
<text text-anchor="middle" x="183" y="-99.8" font-family="Times,serif" font-size="14.00">SchoolExternalToolValidationService</text>
</g>
<!-- SchoolExternalToolValidationService&#45;&gt;SchoolExternalToolModule -->
<g id="edge5" class="edge">
<title>SchoolExternalToolValidationService&#45;&gt;SchoolExternalToolModule</title>
<path fill="none" stroke="black" d="M284.93,-118.1C284.93,-137.22 284.93,-169 284.93,-169 284.93,-169 380.8,-169 380.8,-169"/>
<polygon fill="black" stroke="black" points="380.8,-172.5 390.8,-169 380.8,-165.5 380.8,-172.5"/>
</g>
</g>
</svg>
