<?xml version="1.0" encoding="UTF-8" standalone="no"?>
<!DOCTYPE svg PUBLIC "-//W3C//DTD SVG 1.1//EN"
 "http://www.w3.org/Graphics/SVG/1.1/DTD/svg11.dtd">
<!-- Generated by graphviz version 2.47.0 (20210316.0004)
 -->
<!-- Title: dependencies Pages: 1 -->
<svg width="941pt" height="284pt"
 viewBox="0.00 0.00 941.00 284.00" xmlns="http://www.w3.org/2000/svg" xmlns:xlink="http://www.w3.org/1999/xlink">
<g id="graph0" class="graph" transform="scale(1 1) rotate(0) translate(4 280)">
<title>dependencies</title>
<polygon fill="white" stroke="transparent" points="-4,4 -4,-280 937,-280 937,4 -4,4"/>
<text text-anchor="start" x="445.51" y="-42.4" font-family="Times-12" font-weight="bold" font-size="14.00">Legend</text>
<polygon fill="#ffffb3" stroke="transparent" points="232.5,-10 232.5,-30 252.5,-30 252.5,-10 232.5,-10"/>
<text text-anchor="start" x="256.13" y="-15.4" font-family="Times-12" font-size="14.00"> &#160;Declarations</text>
<polygon fill="#8dd3c7" stroke="transparent" points="345.5,-10 345.5,-30 365.5,-30 365.5,-10 345.5,-10"/>
<text text-anchor="start" x="369.23" y="-15.4" font-family="Times-12" font-size="14.00"> &#160;Module</text>
<polygon fill="#80b1d3" stroke="transparent" points="431.5,-10 431.5,-30 451.5,-30 451.5,-10 431.5,-10"/>
<text text-anchor="start" x="455.28" y="-15.4" font-family="Times-12" font-size="14.00"> &#160;Bootstrap</text>
<polygon fill="#fdb462" stroke="transparent" points="528.5,-10 528.5,-30 548.5,-30 548.5,-10 528.5,-10"/>
<text text-anchor="start" x="552.17" y="-15.4" font-family="Times-12" font-size="14.00"> &#160;Providers</text>
<polygon fill="#fb8072" stroke="transparent" points="624.5,-10 624.5,-30 644.5,-30 644.5,-10 624.5,-10"/>
<text text-anchor="start" x="648.23" y="-15.4" font-family="Times-12" font-size="14.00"> &#160;Exports</text>
<g id="clust1" class="cluster">
<title>cluster_SchoolExternalToolModule</title>
<polygon fill="none" stroke="black" stroke-dasharray="1,5" points="8,-70 8,-268 925,-268 925,-70 8,-70"/>
</g>
<g id="clust6" class="cluster">
<title>cluster_SchoolExternalToolModule_providers</title>
<polygon fill="none" stroke="black" points="330,-78 330,-130 917,-130 917,-78 330,-78"/>
</g>
<g id="clust4" class="cluster">
<title>cluster_SchoolExternalToolModule_exports</title>
<polygon fill="none" stroke="black" points="135,-208 135,-260 577,-260 577,-208 135,-208"/>
</g>
<g id="clust3" class="cluster">
<title>cluster_SchoolExternalToolModule_imports</title>
<polygon fill="none" stroke="black" points="16,-78 16,-130 322,-130 322,-78 16,-78"/>
</g>
<!-- CommonToolModule -->
<g id="node1" class="node">
<title>CommonToolModule</title>
<polygon fill="#8dd3c7" stroke="black" points="314.11,-122 311.11,-126 290.11,-126 287.11,-122 175.89,-122 175.89,-86 314.11,-86 314.11,-122"/>
<text text-anchor="middle" x="245" y="-99.8" font-family="Times,serif" font-size="14.00">CommonToolModule</text>
</g>
<!-- SchoolExternalToolModule -->
<g id="node3" class="node">
<title>SchoolExternalToolModule</title>
<polygon fill="#8dd3c7" stroke="black" points="457.3,-187 454.3,-191 433.3,-191 430.3,-187 284.7,-187 284.7,-151 457.3,-151 457.3,-187"/>
<text text-anchor="middle" x="371" y="-164.8" font-family="Times,serif" font-size="14.00">SchoolExternalToolModule</text>
</g>
<!-- CommonToolModule&#45;&gt;SchoolExternalToolModule -->
<g id="edge1" class="edge">
<title>CommonToolModule&#45;&gt;SchoolExternalToolModule</title>
<path fill="none" stroke="black" d="M299.45,-122.11C299.45,-122.11 299.45,-140.99 299.45,-140.99"/>
<polygon fill="black" stroke="black" points="295.95,-140.99 299.45,-150.99 302.95,-140.99 295.95,-140.99"/>
</g>
<!-- ExternalToolModule -->
<g id="node2" class="node">
<title>ExternalToolModule</title>
<polygon fill="#8dd3c7" stroke="black" points="157.92,-122 154.92,-126 133.92,-126 130.92,-122 24.08,-122 24.08,-86 157.92,-86 157.92,-122"/>
<text text-anchor="middle" x="91" y="-99.8" font-family="Times,serif" font-size="14.00">ExternalToolModule</text>
</g>
<!-- ExternalToolModule&#45;&gt;SchoolExternalToolModule -->
<g id="edge2" class="edge">
<title>ExternalToolModule&#45;&gt;SchoolExternalToolModule</title>
<path fill="none" stroke="black" d="M150.52,-122.11C150.52,-141.34 150.52,-169 150.52,-169 150.52,-169 274.81,-169 274.81,-169"/>
<polygon fill="black" stroke="black" points="274.81,-172.5 284.81,-169 274.81,-165.5 274.81,-172.5"/>
</g>
<!-- SchoolExternalToolService  -->
<g id="node4" class="node">
<title>SchoolExternalToolService </title>
<polygon fill="#fb8072" stroke="black" points="569.23,-252 394.77,-252 394.77,-216 569.23,-216 569.23,-252"/>
<text text-anchor="middle" x="482" y="-229.8" font-family="Times,serif" font-size="14.00">SchoolExternalToolService </text>
</g>
<!-- SchoolExternalToolModule&#45;&gt;SchoolExternalToolService  -->
<g id="edge3" class="edge">
<title>SchoolExternalToolModule&#45;&gt;SchoolExternalToolService </title>
<path fill="none" stroke="black" stroke-dasharray="5,2" d="M426.02,-187.11C426.02,-187.11 426.02,-205.99 426.02,-205.99"/>
<polygon fill="black" stroke="black" points="422.52,-205.99 426.02,-215.99 429.52,-205.99 422.52,-205.99"/>
</g>
<!-- SchoolExternalToolValidationService  -->
<g id="node5" class="node">
<title>SchoolExternalToolValidationService </title>
<polygon fill="#fb8072" stroke="black" points="376.83,-252 143.17,-252 143.17,-216 376.83,-216 376.83,-252"/>
<text text-anchor="middle" x="260" y="-229.8" font-family="Times,serif" font-size="14.00">SchoolExternalToolValidationService </text>
</g>
<!-- SchoolExternalToolModule&#45;&gt;SchoolExternalToolValidationService  -->
<g id="edge4" class="edge">
<title>SchoolExternalToolModule&#45;&gt;SchoolExternalToolValidationService </title>
<path fill="none" stroke="black" stroke-dasharray="5,2" d="M330.76,-187.11C330.76,-187.11 330.76,-205.99 330.76,-205.99"/>
<polygon fill="black" stroke="black" points="327.26,-205.99 330.76,-215.99 334.26,-205.99 327.26,-205.99"/>
</g>
<!-- SchoolExternalToolService -->
<g id="node6" class="node">
<title>SchoolExternalToolService</title>
<ellipse fill="#fdb462" stroke="black" cx="791" cy="-104" rx="117.54" ry="18"/>
<text text-anchor="middle" x="791" y="-99.8" font-family="Times,serif" font-size="14.00">SchoolExternalToolService</text>
</g>
<!-- SchoolExternalToolService&#45;&gt;SchoolExternalToolModule -->
<g id="edge5" class="edge">
<title>SchoolExternalToolService&#45;&gt;SchoolExternalToolModule</title>
<path fill="none" stroke="black" d="M791,-122.11C791,-141.34 791,-169 791,-169 791,-169 467.26,-169 467.26,-169"/>
<polygon fill="black" stroke="black" points="467.26,-165.5 457.26,-169 467.26,-172.5 467.26,-165.5"/>
</g>
<!-- SchoolExternalToolValidationService -->
<g id="node7" class="node">
<title>SchoolExternalToolValidationService</title>
<ellipse fill="#fdb462" stroke="black" cx="497" cy="-104" rx="158.57" ry="18"/>
<text text-anchor="middle" x="497" y="-99.8" font-family="Times,serif" font-size="14.00">SchoolExternalToolValidationService</text>
</g>
<!-- SchoolExternalToolValidationService&#45;&gt;SchoolExternalToolModule -->
<g id="edge6" class="edge">
<title>SchoolExternalToolValidationService&#45;&gt;SchoolExternalToolModule</title>
<path fill="none" stroke="black" d="M397.81,-118.1C397.81,-118.1 397.81,-140.72 397.81,-140.72"/>
<polygon fill="black" stroke="black" points="394.31,-140.72 397.81,-150.72 401.31,-140.72 394.31,-140.72"/>
</g>
</g>
</svg>
