<?xml version="1.0" encoding="UTF-8" standalone="no"?>
<!DOCTYPE svg PUBLIC "-//W3C//DTD SVG 1.1//EN"
 "http://www.w3.org/Graphics/SVG/1.1/DTD/svg11.dtd">
<!-- Generated by graphviz version 2.47.0 (20210316.0004)
 -->
<!-- Title: dependencies Pages: 1 -->
<svg width="1408pt" height="284pt"
 viewBox="0.00 0.00 1408.00 284.00" xmlns="http://www.w3.org/2000/svg" xmlns:xlink="http://www.w3.org/1999/xlink">
<g id="graph0" class="graph" transform="scale(1 1) rotate(0) translate(4 280)">
<title>dependencies</title>
<polygon fill="white" stroke="transparent" points="-4,4 -4,-280 1404,-280 1404,4 -4,4"/>
<text text-anchor="start" x="679.01" y="-42.4" font-family="Times-12" font-weight="bold" font-size="14.00">Legend</text>
<polygon fill="#ffffb3" stroke="transparent" points="466,-10 466,-30 486,-30 486,-10 466,-10"/>
<text text-anchor="start" x="489.63" y="-15.4" font-family="Times-12" font-size="14.00"> &#160;Declarations</text>
<polygon fill="#8dd3c7" stroke="transparent" points="579,-10 579,-30 599,-30 599,-10 579,-10"/>
<text text-anchor="start" x="602.73" y="-15.4" font-family="Times-12" font-size="14.00"> &#160;Module</text>
<polygon fill="#80b1d3" stroke="transparent" points="665,-10 665,-30 685,-30 685,-10 665,-10"/>
<text text-anchor="start" x="688.78" y="-15.4" font-family="Times-12" font-size="14.00"> &#160;Bootstrap</text>
<polygon fill="#fdb462" stroke="transparent" points="762,-10 762,-30 782,-30 782,-10 762,-10"/>
<text text-anchor="start" x="785.67" y="-15.4" font-family="Times-12" font-size="14.00"> &#160;Providers</text>
<polygon fill="#fb8072" stroke="transparent" points="858,-10 858,-30 878,-30 878,-10 858,-10"/>
<text text-anchor="start" x="881.73" y="-15.4" font-family="Times-12" font-size="14.00"> &#160;Exports</text>
<g id="clust1" class="cluster">
<title>cluster_SchoolExternalToolModule</title>
<polygon fill="none" stroke="black" stroke-dasharray="1,5" points="8,-70 8,-268 1392,-268 1392,-70 8,-70"/>
</g>
<g id="clust3" class="cluster">
<title>cluster_SchoolExternalToolModule_imports</title>
<polygon fill="none" stroke="black" points="936,-78 936,-130 1384,-130 1384,-78 936,-78"/>
</g>
<g id="clust6" class="cluster">
<title>cluster_SchoolExternalToolModule_providers</title>
<polygon fill="none" stroke="black" points="16,-78 16,-130 928,-130 928,-78 16,-78"/>
</g>
<g id="clust4" class="cluster">
<title>cluster_SchoolExternalToolModule_exports</title>
<polygon fill="none" stroke="black" points="539,-208 539,-260 1225,-260 1225,-208 539,-208"/>
</g>
<!-- CommonToolModule -->
<g id="node1" class="node">
<title>CommonToolModule</title>
<polygon fill="#8dd3c7" stroke="black" points="1376.11,-122 1373.11,-126 1352.11,-126 1349.11,-122 1237.89,-122 1237.89,-86 1376.11,-86 1376.11,-122"/>
<text text-anchor="middle" x="1307" y="-99.8" font-family="Times,serif" font-size="14.00">CommonToolModule</text>
</g>
<!-- SchoolExternalToolModule -->
<g id="node4" class="node">
<title>SchoolExternalToolModule</title>
<polygon fill="#8dd3c7" stroke="black" points="972.3,-187 969.3,-191 948.3,-191 945.3,-187 799.7,-187 799.7,-151 972.3,-151 972.3,-187"/>
<text text-anchor="middle" x="886" y="-164.8" font-family="Times,serif" font-size="14.00">SchoolExternalToolModule</text>
</g>
<!-- CommonToolModule&#45;&gt;SchoolExternalToolModule -->
<g id="edge1" class="edge">
<title>CommonToolModule&#45;&gt;SchoolExternalToolModule</title>
<path fill="none" stroke="black" d="M1307,-122.11C1307,-141.34 1307,-169 1307,-169 1307,-169 982.21,-169 982.21,-169"/>
<polygon fill="black" stroke="black" points="982.21,-165.5 972.21,-169 982.21,-172.5 982.21,-165.5"/>
</g>
<!-- ExternalToolModule -->
<g id="node2" class="node">
<title>ExternalToolModule</title>
<polygon fill="#8dd3c7" stroke="black" points="1219.92,-122 1216.92,-126 1195.92,-126 1192.92,-122 1086.08,-122 1086.08,-86 1219.92,-86 1219.92,-122"/>
<text text-anchor="middle" x="1153" y="-99.8" font-family="Times,serif" font-size="14.00">ExternalToolModule</text>
</g>
<!-- ExternalToolModule&#45;&gt;SchoolExternalToolModule -->
<g id="edge2" class="edge">
<title>ExternalToolModule&#45;&gt;SchoolExternalToolModule</title>
<path fill="none" stroke="black" d="M1151.72,-122.03C1151.72,-138.4 1151.72,-160 1151.72,-160 1151.72,-160 982.27,-160 982.27,-160"/>
<polygon fill="black" stroke="black" points="982.27,-156.5 972.27,-160 982.27,-163.5 982.27,-156.5"/>
</g>
<!-- ToolConfigModule -->
<g id="node3" class="node">
<title>ToolConfigModule</title>
<polygon fill="#8dd3c7" stroke="black" points="1068.38,-122 1065.38,-126 1044.38,-126 1041.38,-122 943.62,-122 943.62,-86 1068.38,-86 1068.38,-122"/>
<text text-anchor="middle" x="1006" y="-99.8" font-family="Times,serif" font-size="14.00">ToolConfigModule</text>
</g>
<!-- ToolConfigModule&#45;&gt;SchoolExternalToolModule -->
<g id="edge3" class="edge">
<title>ToolConfigModule&#45;&gt;SchoolExternalToolModule</title>
<path fill="none" stroke="black" d="M957.86,-122.11C957.86,-122.11 957.86,-140.99 957.86,-140.99"/>
<polygon fill="black" stroke="black" points="954.36,-140.99 957.86,-150.99 961.36,-140.99 954.36,-140.99"/>
</g>
<!-- SchoolExternalToolMetadataService  -->
<g id="node5" class="node">
<title>SchoolExternalToolMetadataService </title>
<polygon fill="#fb8072" stroke="black" points="1217.32,-252 990.68,-252 990.68,-216 1217.32,-216 1217.32,-252"/>
<text text-anchor="middle" x="1104" y="-229.8" font-family="Times,serif" font-size="14.00">SchoolExternalToolMetadataService </text>
</g>
<!-- SchoolExternalToolModule&#45;&gt;SchoolExternalToolMetadataService  -->
<g id="edge4" class="edge">
<title>SchoolExternalToolModule&#45;&gt;SchoolExternalToolMetadataService </title>
<path fill="none" stroke="black" stroke-dasharray="5,2" d="M972.46,-178C1002.88,-178 1029.64,-178 1029.64,-178 1029.64,-178 1029.64,-205.97 1029.64,-205.97"/>
<polygon fill="black" stroke="black" points="1026.14,-205.97 1029.64,-215.97 1033.14,-205.97 1026.14,-205.97"/>
</g>
<!-- SchoolExternalToolService  -->
<g id="node6" class="node">
<title>SchoolExternalToolService </title>
<polygon fill="#fb8072" stroke="black" points="973.23,-252 798.77,-252 798.77,-216 973.23,-216 973.23,-252"/>
<text text-anchor="middle" x="886" y="-229.8" font-family="Times,serif" font-size="14.00">SchoolExternalToolService </text>
</g>
<!-- SchoolExternalToolModule&#45;&gt;SchoolExternalToolService  -->
<g id="edge5" class="edge">
<title>SchoolExternalToolModule&#45;&gt;SchoolExternalToolService </title>
<path fill="none" stroke="black" stroke-dasharray="5,2" d="M886,-187.11C886,-187.11 886,-205.99 886,-205.99"/>
<polygon fill="black" stroke="black" points="882.5,-205.99 886,-215.99 889.5,-205.99 882.5,-205.99"/>
</g>
<!-- SchoolExternalToolValidationService  -->
<g id="node7" class="node">
<title>SchoolExternalToolValidationService </title>
<polygon fill="#fb8072" stroke="black" points="780.83,-252 547.17,-252 547.17,-216 780.83,-216 780.83,-252"/>
<text text-anchor="middle" x="664" y="-229.8" font-family="Times,serif" font-size="14.00">SchoolExternalToolValidationService </text>
</g>
<!-- SchoolExternalToolModule&#45;&gt;SchoolExternalToolValidationService  -->
<g id="edge6" class="edge">
<title>SchoolExternalToolModule&#45;&gt;SchoolExternalToolValidationService </title>
<path fill="none" stroke="black" stroke-dasharray="5,2" d="M799.84,-178C749.77,-178 696.49,-178 696.49,-178 696.49,-178 696.49,-205.97 696.49,-205.97"/>
<polygon fill="black" stroke="black" points="692.99,-205.97 696.49,-215.97 699.99,-205.97 692.99,-205.97"/>
</g>
<!-- SchoolExternalToolMetadataService -->
<g id="node8" class="node">
<title>SchoolExternalToolMetadataService</title>
<ellipse fill="#fdb462" stroke="black" cx="766" cy="-104" rx="153.89" ry="18"/>
<text text-anchor="middle" x="766" y="-99.8" font-family="Times,serif" font-size="14.00">SchoolExternalToolMetadataService</text>
</g>
<!-- SchoolExternalToolMetadataService&#45;&gt;SchoolExternalToolModule -->
<g id="edge7" class="edge">
<title>SchoolExternalToolMetadataService&#45;&gt;SchoolExternalToolModule</title>
<path fill="none" stroke="black" d="M859.77,-118.43C859.77,-118.43 859.77,-140.89 859.77,-140.89"/>
<polygon fill="black" stroke="black" points="856.27,-140.89 859.77,-150.89 863.27,-140.89 856.27,-140.89"/>
</g>
<!-- SchoolExternalToolService -->
<g id="node9" class="node">
<title>SchoolExternalToolService</title>
<ellipse fill="#fdb462" stroke="black" cx="477" cy="-104" rx="117.54" ry="18"/>
<text text-anchor="middle" x="477" y="-99.8" font-family="Times,serif" font-size="14.00">SchoolExternalToolService</text>
</g>
<!-- SchoolExternalToolService&#45;&gt;SchoolExternalToolModule -->
<g id="edge8" class="edge">
<title>SchoolExternalToolService&#45;&gt;SchoolExternalToolModule</title>
<path fill="none" stroke="black" d="M571.05,-115.06C571.05,-131.38 571.05,-160 571.05,-160 571.05,-160 789.52,-160 789.52,-160"/>
<polygon fill="black" stroke="black" points="789.52,-163.5 799.52,-160 789.52,-156.5 789.52,-163.5"/>
</g>
<!-- SchoolExternalToolValidationService -->
<g id="node10" class="node">
<title>SchoolExternalToolValidationService</title>
<ellipse fill="#fdb462" stroke="black" cx="183" cy="-104" rx="158.57" ry="18"/>
<text text-anchor="middle" x="183" y="-99.8" font-family="Times,serif" font-size="14.00">SchoolExternalToolValidationService</text>
</g>
<!-- SchoolExternalToolValidationService&#45;&gt;SchoolExternalToolModule -->
<g id="edge9" class="edge">
<title>SchoolExternalToolValidationService&#45;&gt;SchoolExternalToolModule</title>
<path fill="none" stroke="black" d="M183,-122.11C183,-141.34 183,-169 183,-169 183,-169 789.8,-169 789.8,-169"/>
<polygon fill="black" stroke="black" points="789.8,-172.5 799.8,-169 789.8,-165.5 789.8,-172.5"/>
</g>
</g>
</svg>
