<?xml version="1.0" encoding="UTF-8" standalone="no"?>
<!DOCTYPE svg PUBLIC "-//W3C//DTD SVG 1.1//EN"
 "http://www.w3.org/Graphics/SVG/1.1/DTD/svg11.dtd">
<!-- Generated by graphviz version 2.47.0 (20210316.0004)
 -->
<!-- Title: dependencies Pages: 1 -->
<svg width="1535pt" height="284pt"
 viewBox="0.00 0.00 1535.00 284.00" xmlns="http://www.w3.org/2000/svg" xmlns:xlink="http://www.w3.org/1999/xlink">
<g id="graph0" class="graph" transform="scale(1 1) rotate(0) translate(4 280)">
<title>dependencies</title>
<polygon fill="white" stroke="transparent" points="-4,4 -4,-280 1531,-280 1531,4 -4,4"/>
<text text-anchor="start" x="742.51" y="-42.4" font-family="Times-12" font-weight="bold" font-size="14.00">Legend</text>
<polygon fill="#ffffb3" stroke="transparent" points="529.5,-10 529.5,-30 549.5,-30 549.5,-10 529.5,-10"/>
<text text-anchor="start" x="553.13" y="-15.4" font-family="Times-12" font-size="14.00"> &#160;Declarations</text>
<polygon fill="#8dd3c7" stroke="transparent" points="642.5,-10 642.5,-30 662.5,-30 662.5,-10 642.5,-10"/>
<text text-anchor="start" x="666.23" y="-15.4" font-family="Times-12" font-size="14.00"> &#160;Module</text>
<polygon fill="#80b1d3" stroke="transparent" points="728.5,-10 728.5,-30 748.5,-30 748.5,-10 728.5,-10"/>
<text text-anchor="start" x="752.28" y="-15.4" font-family="Times-12" font-size="14.00"> &#160;Bootstrap</text>
<polygon fill="#fdb462" stroke="transparent" points="825.5,-10 825.5,-30 845.5,-30 845.5,-10 825.5,-10"/>
<text text-anchor="start" x="849.17" y="-15.4" font-family="Times-12" font-size="14.00"> &#160;Providers</text>
<polygon fill="#fb8072" stroke="transparent" points="921.5,-10 921.5,-30 941.5,-30 941.5,-10 921.5,-10"/>
<text text-anchor="start" x="945.23" y="-15.4" font-family="Times-12" font-size="14.00"> &#160;Exports</text>
<g id="clust1" class="cluster">
<title>cluster_SharingModule</title>
<polygon fill="none" stroke="black" stroke-dasharray="1,5" points="8,-70 8,-268 1519,-268 1519,-70 8,-70"/>
</g>
<g id="clust3" class="cluster">
<title>cluster_SharingModule_imports</title>
<polygon fill="none" stroke="black" points="554,-78 554,-130 1511,-130 1511,-78 554,-78"/>
</g>
<g id="clust4" class="cluster">
<title>cluster_SharingModule_exports</title>
<polygon fill="none" stroke="black" points="702,-208 702,-260 848,-260 848,-208 702,-208"/>
</g>
<g id="clust6" class="cluster">
<title>cluster_SharingModule_providers</title>
<polygon fill="none" stroke="black" points="16,-78 16,-130 546,-130 546,-78 16,-78"/>
</g>
<!-- AuthorizationModule -->
<g id="node1" class="node">
<title>AuthorizationModule</title>
<polygon fill="#8dd3c7" stroke="black" points="1502.81,-122 1499.81,-126 1478.81,-126 1475.81,-122 1365.19,-122 1365.19,-86 1502.81,-86 1502.81,-122"/>
<text text-anchor="middle" x="1434" y="-99.8" font-family="Times,serif" font-size="14.00">AuthorizationModule</text>
</g>
<!-- SharingModule -->
<g id="node8" class="node">
<title>SharingModule</title>
<polygon fill="#8dd3c7" stroke="black" points="826.6,-187 823.6,-191 802.6,-191 799.6,-187 723.4,-187 723.4,-151 826.6,-151 826.6,-187"/>
<text text-anchor="middle" x="775" y="-164.8" font-family="Times,serif" font-size="14.00">SharingModule</text>
</g>
<!-- AuthorizationModule&#45;&gt;SharingModule -->
<g id="edge1" class="edge">
<title>AuthorizationModule&#45;&gt;SharingModule</title>
<path fill="none" stroke="black" d="M1434,-122.01C1434,-144.49 1434,-180 1434,-180 1434,-180 836.71,-180 836.71,-180"/>
<polygon fill="black" stroke="black" points="836.71,-176.5 826.71,-180 836.71,-183.5 836.71,-176.5"/>
</g>
<!-- AuthorizationReferenceModule -->
<g id="node2" class="node">
<title>AuthorizationReferenceModule</title>
<polygon fill="#8dd3c7" stroke="black" points="1347.04,-122 1344.04,-126 1323.04,-126 1320.04,-122 1152.96,-122 1152.96,-86 1347.04,-86 1347.04,-122"/>
<text text-anchor="middle" x="1250" y="-99.8" font-family="Times,serif" font-size="14.00">AuthorizationReferenceModule</text>
</g>
<!-- AuthorizationReferenceModule&#45;&gt;SharingModule -->
<g id="edge2" class="edge">
<title>AuthorizationReferenceModule&#45;&gt;SharingModule</title>
<path fill="none" stroke="black" d="M1250,-122.13C1250,-142.57 1250,-173 1250,-173 1250,-173 836.74,-173 836.74,-173"/>
<polygon fill="black" stroke="black" points="836.74,-169.5 826.74,-173 836.74,-176.5 836.74,-169.5"/>
</g>
<!-- BoardModule -->
<g id="node3" class="node">
<title>BoardModule</title>
<polygon fill="#8dd3c7" stroke="black" points="1134.76,-122 1131.76,-126 1110.76,-126 1107.76,-122 1041.24,-122 1041.24,-86 1134.76,-86 1134.76,-122"/>
<text text-anchor="middle" x="1088" y="-99.8" font-family="Times,serif" font-size="14.00">BoardModule</text>
</g>
<!-- BoardModule&#45;&gt;SharingModule -->
<g id="edge3" class="edge">
<title>BoardModule&#45;&gt;SharingModule</title>
<path fill="none" stroke="black" d="M1088,-122.27C1088,-140.56 1088,-166 1088,-166 1088,-166 836.69,-166 836.69,-166"/>
<polygon fill="black" stroke="black" points="836.69,-162.5 826.69,-166 836.69,-169.5 836.69,-162.5"/>
</g>
<!-- LearnroomModule -->
<g id="node4" class="node">
<title>LearnroomModule</title>
<polygon fill="#8dd3c7" stroke="black" points="1022.74,-122 1019.74,-126 998.74,-126 995.74,-122 901.26,-122 901.26,-86 1022.74,-86 1022.74,-122"/>
<text text-anchor="middle" x="962" y="-99.8" font-family="Times,serif" font-size="14.00">LearnroomModule</text>
</g>
<!-- LearnroomModule&#45;&gt;SharingModule -->
<g id="edge4" class="edge">
<title>LearnroomModule&#45;&gt;SharingModule</title>
<path fill="none" stroke="black" d="M962,-122.01C962,-138.05 962,-159 962,-159 962,-159 836.59,-159 836.59,-159"/>
<polygon fill="black" stroke="black" points="836.59,-155.5 826.59,-159 836.59,-162.5 836.59,-155.5"/>
</g>
<!-- LessonModule -->
<g id="node5" class="node">
<title>LessonModule</title>
<polygon fill="#8dd3c7" stroke="black" points="883.71,-122 880.71,-126 859.71,-126 856.71,-122 784.29,-122 784.29,-86 883.71,-86 883.71,-122"/>
<text text-anchor="middle" x="834" y="-99.8" font-family="Times,serif" font-size="14.00">LessonModule</text>
</g>
<!-- LessonModule&#45;&gt;SharingModule -->
<g id="edge5" class="edge">
<title>LessonModule&#45;&gt;SharingModule</title>
<path fill="none" stroke="black" d="M805.47,-122.11C805.47,-122.11 805.47,-140.99 805.47,-140.99"/>
<polygon fill="black" stroke="black" points="801.97,-140.99 805.47,-150.99 808.97,-140.99 801.97,-140.99"/>
</g>
<!-- LoggerModule -->
<g id="node6" class="node">
<title>LoggerModule</title>
<polygon fill="#8dd3c7" stroke="black" points="765.98,-122 762.98,-126 741.98,-126 738.98,-122 666.02,-122 666.02,-86 765.98,-86 765.98,-122"/>
<text text-anchor="middle" x="716" y="-99.8" font-family="Times,serif" font-size="14.00">LoggerModule</text>
</g>
<!-- LoggerModule&#45;&gt;SharingModule -->
<g id="edge6" class="edge">
<title>LoggerModule&#45;&gt;SharingModule</title>
<path fill="none" stroke="black" d="M744.72,-122.11C744.72,-122.11 744.72,-140.99 744.72,-140.99"/>
<polygon fill="black" stroke="black" points="741.22,-140.99 744.72,-150.99 748.22,-140.99 741.22,-140.99"/>
</g>
<!-- TaskModule -->
<g id="node7" class="node">
<title>TaskModule</title>
<polygon fill="#8dd3c7" stroke="black" points="648.26,-122 645.26,-126 624.26,-126 621.26,-122 561.74,-122 561.74,-86 648.26,-86 648.26,-122"/>
<text text-anchor="middle" x="605" y="-99.8" font-family="Times,serif" font-size="14.00">TaskModule</text>
</g>
<!-- TaskModule&#45;&gt;SharingModule -->
<g id="edge7" class="edge">
<title>TaskModule&#45;&gt;SharingModule</title>
<path fill="none" stroke="black" d="M605,-122.01C605,-138.05 605,-159 605,-159 605,-159 713.07,-159 713.07,-159"/>
<polygon fill="black" stroke="black" points="713.07,-162.5 723.07,-159 713.07,-155.5 713.07,-162.5"/>
</g>
<!-- ShareTokenService  -->
<g id="node9" class="node">
<title>ShareTokenService </title>
<polygon fill="#fb8072" stroke="black" points="839.62,-252 710.38,-252 710.38,-216 839.62,-216 839.62,-252"/>
<text text-anchor="middle" x="775" y="-229.8" font-family="Times,serif" font-size="14.00">ShareTokenService </text>
</g>
<!-- SharingModule&#45;&gt;ShareTokenService  -->
<g id="edge8" class="edge">
<title>SharingModule&#45;&gt;ShareTokenService </title>
<path fill="none" stroke="black" stroke-dasharray="5,2" d="M775,-187.11C775,-187.11 775,-205.99 775,-205.99"/>
<polygon fill="black" stroke="black" points="771.5,-205.99 775,-215.99 778.5,-205.99 771.5,-205.99"/>
</g>
<!-- ShareTokenRepo -->
<g id="node10" class="node">
<title>ShareTokenRepo</title>
<ellipse fill="#fdb462" stroke="black" cx="460" cy="-104" rx="78.15" ry="18"/>
<text text-anchor="middle" x="460" y="-99.8" font-family="Times,serif" font-size="14.00">ShareTokenRepo</text>
</g>
<!-- ShareTokenRepo&#45;&gt;SharingModule -->
<g id="edge9" class="edge">
<title>ShareTokenRepo&#45;&gt;SharingModule</title>
<path fill="none" stroke="black" d="M460,-122.27C460,-140.56 460,-166 460,-166 460,-166 713.34,-166 713.34,-166"/>
<polygon fill="black" stroke="black" points="713.34,-169.5 723.34,-166 713.34,-162.5 713.34,-169.5"/>
</g>
<!-- ShareTokenService -->
<g id="node11" class="node">
<title>ShareTokenService</title>
<ellipse fill="#fdb462" stroke="black" cx="277" cy="-104" rx="86.8" ry="18"/>
<text text-anchor="middle" x="277" y="-99.8" font-family="Times,serif" font-size="14.00">ShareTokenService</text>
</g>
<!-- ShareTokenService&#45;&gt;SharingModule -->
<g id="edge10" class="edge">
<title>ShareTokenService&#45;&gt;SharingModule</title>
<path fill="none" stroke="black" d="M277,-122.13C277,-142.57 277,-173 277,-173 277,-173 713.11,-173 713.11,-173"/>
<polygon fill="black" stroke="black" points="713.11,-176.5 723.11,-173 713.11,-169.5 713.11,-176.5"/>
</g>
<!-- TokenGenerator -->
<g id="node12" class="node">
<title>TokenGenerator</title>
<ellipse fill="#fdb462" stroke="black" cx="98" cy="-104" rx="74.12" ry="18"/>
<text text-anchor="middle" x="98" y="-99.8" font-family="Times,serif" font-size="14.00">TokenGenerator</text>
</g>
<!-- TokenGenerator&#45;&gt;SharingModule -->
<g id="edge11" class="edge">
<title>TokenGenerator&#45;&gt;SharingModule</title>
<path fill="none" stroke="black" d="M98,-122.01C98,-144.49 98,-180 98,-180 98,-180 713.28,-180 713.28,-180"/>
<polygon fill="black" stroke="black" points="713.28,-183.5 723.28,-180 713.28,-176.5 713.28,-183.5"/>
</g>
</g>
</svg>
