<?xml version="1.0" encoding="UTF-8" standalone="no"?>
<!DOCTYPE svg PUBLIC "-//W3C//DTD SVG 1.1//EN"
 "http://www.w3.org/Graphics/SVG/1.1/DTD/svg11.dtd">
<!-- Generated by graphviz version 2.47.0 (20210316.0004)
 -->
<!-- Title: dependencies Pages: 1 -->
<svg width="1211pt" height="284pt"
 viewBox="0.00 0.00 1211.00 284.00" xmlns="http://www.w3.org/2000/svg" xmlns:xlink="http://www.w3.org/1999/xlink">
<g id="graph0" class="graph" transform="scale(1 1) rotate(0) translate(4 280)">
<title>dependencies</title>
<polygon fill="white" stroke="transparent" points="-4,4 -4,-280 1207,-280 1207,4 -4,4"/>
<text text-anchor="start" x="580.51" y="-42.4" font-family="Times-12" font-weight="bold" font-size="14.00">Legend</text>
<polygon fill="#ffffb3" stroke="transparent" points="367.5,-10 367.5,-30 387.5,-30 387.5,-10 367.5,-10"/>
<text text-anchor="start" x="391.13" y="-15.4" font-family="Times-12" font-size="14.00"> &#160;Declarations</text>
<polygon fill="#8dd3c7" stroke="transparent" points="480.5,-10 480.5,-30 500.5,-30 500.5,-10 480.5,-10"/>
<text text-anchor="start" x="504.23" y="-15.4" font-family="Times-12" font-size="14.00"> &#160;Module</text>
<polygon fill="#80b1d3" stroke="transparent" points="566.5,-10 566.5,-30 586.5,-30 586.5,-10 566.5,-10"/>
<text text-anchor="start" x="590.28" y="-15.4" font-family="Times-12" font-size="14.00"> &#160;Bootstrap</text>
<polygon fill="#fdb462" stroke="transparent" points="663.5,-10 663.5,-30 683.5,-30 683.5,-10 663.5,-10"/>
<text text-anchor="start" x="687.17" y="-15.4" font-family="Times-12" font-size="14.00"> &#160;Providers</text>
<polygon fill="#fb8072" stroke="transparent" points="759.5,-10 759.5,-30 779.5,-30 779.5,-10 759.5,-10"/>
<text text-anchor="start" x="783.23" y="-15.4" font-family="Times-12" font-size="14.00"> &#160;Exports</text>
<g id="clust1" class="cluster">
<title>cluster_SharingModule</title>
<polygon fill="none" stroke="black" stroke-dasharray="1,5" points="8,-70 8,-268 1195,-268 1195,-70 8,-70"/>
</g>
<g id="clust4" class="cluster">
<title>cluster_SharingModule_exports</title>
<polygon fill="none" stroke="black" points="425,-208 425,-260 571,-260 571,-208 425,-208"/>
</g>
<g id="clust6" class="cluster">
<title>cluster_SharingModule_providers</title>
<polygon fill="none" stroke="black" points="657,-78 657,-130 1187,-130 1187,-78 657,-78"/>
</g>
<g id="clust3" class="cluster">
<title>cluster_SharingModule_imports</title>
<polygon fill="none" stroke="black" points="16,-78 16,-130 649,-130 649,-78 16,-78"/>
</g>
<!-- AuthorizationModule -->
<g id="node1" class="node">
<title>AuthorizationModule</title>
<polygon fill="#8dd3c7" stroke="black" points="640.81,-122 637.81,-126 616.81,-126 613.81,-122 503.19,-122 503.19,-86 640.81,-86 640.81,-122"/>
<text text-anchor="middle" x="572" y="-99.8" font-family="Times,serif" font-size="14.00">AuthorizationModule</text>
</g>
<!-- SharingModule -->
<g id="node6" class="node">
<title>SharingModule</title>
<polygon fill="#8dd3c7" stroke="black" points="549.6,-187 546.6,-191 525.6,-191 522.6,-187 446.4,-187 446.4,-151 549.6,-151 549.6,-187"/>
<text text-anchor="middle" x="498" y="-164.8" font-family="Times,serif" font-size="14.00">SharingModule</text>
</g>
<!-- AuthorizationModule&#45;&gt;SharingModule -->
<g id="edge1" class="edge">
<title>AuthorizationModule&#45;&gt;SharingModule</title>
<path fill="none" stroke="black" d="M526.45,-122.11C526.45,-122.11 526.45,-140.99 526.45,-140.99"/>
<polygon fill="black" stroke="black" points="522.95,-140.99 526.45,-150.99 529.95,-140.99 522.95,-140.99"/>
</g>
<!-- LearnroomModule -->
<g id="node2" class="node">
<title>LearnroomModule</title>
<polygon fill="#8dd3c7" stroke="black" points="484.74,-122 481.74,-126 460.74,-126 457.74,-122 363.26,-122 363.26,-86 484.74,-86 484.74,-122"/>
<text text-anchor="middle" x="424" y="-99.8" font-family="Times,serif" font-size="14.00">LearnroomModule</text>
</g>
<!-- LearnroomModule&#45;&gt;SharingModule -->
<g id="edge2" class="edge">
<title>LearnroomModule&#45;&gt;SharingModule</title>
<path fill="none" stroke="black" d="M465.66,-122.11C465.66,-122.11 465.66,-140.99 465.66,-140.99"/>
<polygon fill="black" stroke="black" points="462.16,-140.99 465.66,-150.99 469.16,-140.99 462.16,-140.99"/>
</g>
<!-- LessonModule -->
<g id="node3" class="node">
<title>LessonModule</title>
<polygon fill="#8dd3c7" stroke="black" points="345.71,-122 342.71,-126 321.71,-126 318.71,-122 246.29,-122 246.29,-86 345.71,-86 345.71,-122"/>
<text text-anchor="middle" x="296" y="-99.8" font-family="Times,serif" font-size="14.00">LessonModule</text>
</g>
<!-- LessonModule&#45;&gt;SharingModule -->
<g id="edge3" class="edge">
<title>LessonModule&#45;&gt;SharingModule</title>
<path fill="none" stroke="black" d="M296,-122.03C296,-138.4 296,-160 296,-160 296,-160 436.24,-160 436.24,-160"/>
<polygon fill="black" stroke="black" points="436.24,-163.5 446.24,-160 436.24,-156.5 436.24,-163.5"/>
</g>
<!-- LoggerModule -->
<g id="node4" class="node">
<title>LoggerModule</title>
<polygon fill="#8dd3c7" stroke="black" points="227.98,-122 224.98,-126 203.98,-126 200.98,-122 128.02,-122 128.02,-86 227.98,-86 227.98,-122"/>
<text text-anchor="middle" x="178" y="-99.8" font-family="Times,serif" font-size="14.00">LoggerModule</text>
</g>
<!-- LoggerModule&#45;&gt;SharingModule -->
<g id="edge4" class="edge">
<title>LoggerModule&#45;&gt;SharingModule</title>
<path fill="none" stroke="black" d="M178,-122.11C178,-141.34 178,-169 178,-169 178,-169 436.23,-169 436.23,-169"/>
<polygon fill="black" stroke="black" points="436.23,-172.5 446.23,-169 436.23,-165.5 436.23,-172.5"/>
</g>
<!-- TaskModule -->
<g id="node5" class="node">
<title>TaskModule</title>
<polygon fill="#8dd3c7" stroke="black" points="110.26,-122 107.26,-126 86.26,-126 83.26,-122 23.74,-122 23.74,-86 110.26,-86 110.26,-122"/>
<text text-anchor="middle" x="67" y="-99.8" font-family="Times,serif" font-size="14.00">TaskModule</text>
</g>
<!-- TaskModule&#45;&gt;SharingModule -->
<g id="edge5" class="edge">
<title>TaskModule&#45;&gt;SharingModule</title>
<path fill="none" stroke="black" d="M67,-122.29C67,-144.21 67,-178 67,-178 67,-178 436.44,-178 436.44,-178"/>
<polygon fill="black" stroke="black" points="436.44,-181.5 446.44,-178 436.44,-174.5 436.44,-181.5"/>
</g>
<!-- ShareTokenService  -->
<g id="node7" class="node">
<title>ShareTokenService </title>
<polygon fill="#fb8072" stroke="black" points="562.62,-252 433.38,-252 433.38,-216 562.62,-216 562.62,-252"/>
<text text-anchor="middle" x="498" y="-229.8" font-family="Times,serif" font-size="14.00">ShareTokenService </text>
</g>
<!-- SharingModule&#45;&gt;ShareTokenService  -->
<g id="edge6" class="edge">
<title>SharingModule&#45;&gt;ShareTokenService </title>
<path fill="none" stroke="black" stroke-dasharray="5,2" d="M498,-187.11C498,-187.11 498,-205.99 498,-205.99"/>
<polygon fill="black" stroke="black" points="494.5,-205.99 498,-215.99 501.5,-205.99 494.5,-205.99"/>
</g>
<!-- ShareTokenRepo -->
<g id="node8" class="node">
<title>ShareTokenRepo</title>
<ellipse fill="#fdb462" stroke="black" cx="1101" cy="-104" rx="78.15" ry="18"/>
<text text-anchor="middle" x="1101" y="-99.8" font-family="Times,serif" font-size="14.00">ShareTokenRepo</text>
</g>
<!-- ShareTokenRepo&#45;&gt;SharingModule -->
<g id="edge7" class="edge">
<title>ShareTokenRepo&#45;&gt;SharingModule</title>
<path fill="none" stroke="black" d="M1101,-122.29C1101,-144.21 1101,-178 1101,-178 1101,-178 559.67,-178 559.67,-178"/>
<polygon fill="black" stroke="black" points="559.67,-174.5 549.67,-178 559.67,-181.5 559.67,-174.5"/>
</g>
<!-- ShareTokenService -->
<g id="node9" class="node">
<title>ShareTokenService</title>
<ellipse fill="#fdb462" stroke="black" cx="918" cy="-104" rx="86.8" ry="18"/>
<text text-anchor="middle" x="918" y="-99.8" font-family="Times,serif" font-size="14.00">ShareTokenService</text>
</g>
<!-- ShareTokenService&#45;&gt;SharingModule -->
<g id="edge8" class="edge">
<title>ShareTokenService&#45;&gt;SharingModule</title>
<path fill="none" stroke="black" d="M918,-122.11C918,-141.34 918,-169 918,-169 918,-169 559.92,-169 559.92,-169"/>
<polygon fill="black" stroke="black" points="559.92,-165.5 549.92,-169 559.92,-172.5 559.92,-165.5"/>
</g>
<!-- TokenGenerator -->
<g id="node10" class="node">
<title>TokenGenerator</title>
<ellipse fill="#fdb462" stroke="black" cx="739" cy="-104" rx="74.12" ry="18"/>
<text text-anchor="middle" x="739" y="-99.8" font-family="Times,serif" font-size="14.00">TokenGenerator</text>
</g>
<!-- TokenGenerator&#45;&gt;SharingModule -->
<g id="edge9" class="edge">
<title>TokenGenerator&#45;&gt;SharingModule</title>
<path fill="none" stroke="black" d="M739,-122.03C739,-138.4 739,-160 739,-160 739,-160 559.7,-160 559.7,-160"/>
<polygon fill="black" stroke="black" points="559.7,-156.5 549.7,-160 559.7,-163.5 559.7,-156.5"/>
</g>
</g>
</svg>
