<?xml version="1.0" encoding="UTF-8" standalone="no"?>
<!DOCTYPE svg PUBLIC "-//W3C//DTD SVG 1.1//EN"
 "http://www.w3.org/Graphics/SVG/1.1/DTD/svg11.dtd">
<!-- Generated by graphviz version 5.0.0 (20220707.1540)
 -->
<!-- Title: dependencies Pages: 1 -->
<svg width="1211pt" height="247pt"
 viewBox="0.00 0.00 1211.00 246.80" xmlns="http://www.w3.org/2000/svg" xmlns:xlink="http://www.w3.org/1999/xlink">
<g id="graph0" class="graph" transform="scale(1 1) rotate(0) translate(4 242.8)">
<title>dependencies</title>
<polygon fill="white" stroke="transparent" points="-4,4 -4,-242.8 1207,-242.8 1207,4 -4,4"/>
<text text-anchor="middle" x="601.5" y="-8.2" font-family="sans-serif" font-size="14.00">dependencies</text>
<g id="clust1" class="cluster">
<title>cluster_SharingModule</title>
<polygon fill="none" stroke="black" stroke-dasharray="1,5" points="8,-32.8 8,-230.8 1195,-230.8 1195,-32.8 8,-32.8"/>
</g>
<g id="clust4" class="cluster">
<title>cluster_SharingModule_exports</title>
<polygon fill="none" stroke="black" points="425,-170.8 425,-222.8 571,-222.8 571,-170.8 425,-170.8"/>
</g>
<g id="clust6" class="cluster">
<title>cluster_SharingModule_providers</title>
<polygon fill="none" stroke="black" points="657,-40.8 657,-92.8 1187,-92.8 1187,-40.8 657,-40.8"/>
</g>
<g id="clust3" class="cluster">
<title>cluster_SharingModule_imports</title>
<polygon fill="none" stroke="black" points="16,-40.8 16,-92.8 649,-92.8 649,-40.8 16,-40.8"/>
</g>
<!-- AuthorizationModule -->
<g id="node1" class="node">
<title>AuthorizationModule</title>
<polygon fill="#8dd3c7" stroke="black" points="640.81,-84.8 637.81,-88.8 616.81,-88.8 613.81,-84.8 503.19,-84.8 503.19,-48.8 640.81,-48.8 640.81,-84.8"/>
<text text-anchor="middle" x="572" y="-62.6" font-family="Times,serif" font-size="14.00">AuthorizationModule</text>
</g>
<!-- SharingModule -->
<g id="node6" class="node">
<title>SharingModule</title>
<polygon fill="#8dd3c7" stroke="black" points="549.6,-149.8 546.6,-153.8 525.6,-153.8 522.6,-149.8 446.4,-149.8 446.4,-113.8 549.6,-113.8 549.6,-149.8"/>
<text text-anchor="middle" x="498" y="-127.6" font-family="Times,serif" font-size="14.00">SharingModule</text>
</g>
<!-- AuthorizationModule&#45;&gt;SharingModule -->
<g id="edge1" class="edge">
<title>AuthorizationModule&#45;&gt;SharingModule</title>
<path fill="none" stroke="black" d="M526.45,-84.91C526.45,-84.91 526.45,-103.79 526.45,-103.79"/>
<polygon fill="black" stroke="black" points="522.95,-103.79 526.45,-113.79 529.95,-103.79 522.95,-103.79"/>
</g>
<!-- LearnroomModule -->
<g id="node2" class="node">
<title>LearnroomModule</title>
<polygon fill="#8dd3c7" stroke="black" points="484.75,-84.8 481.75,-88.8 460.75,-88.8 457.75,-84.8 363.25,-84.8 363.25,-48.8 484.75,-48.8 484.75,-84.8"/>
<text text-anchor="middle" x="424" y="-62.6" font-family="Times,serif" font-size="14.00">LearnroomModule</text>
</g>
<!-- LearnroomModule&#45;&gt;SharingModule -->
<g id="edge2" class="edge">
<title>LearnroomModule&#45;&gt;SharingModule</title>
<path fill="none" stroke="black" d="M465.66,-84.91C465.66,-84.91 465.66,-103.79 465.66,-103.79"/>
<polygon fill="black" stroke="black" points="462.16,-103.79 465.66,-113.79 469.16,-103.79 462.16,-103.79"/>
</g>
<!-- LessonModule -->
<g id="node3" class="node">
<title>LessonModule</title>
<polygon fill="#8dd3c7" stroke="black" points="345.71,-84.8 342.71,-88.8 321.71,-88.8 318.71,-84.8 246.29,-84.8 246.29,-48.8 345.71,-48.8 345.71,-84.8"/>
<text text-anchor="middle" x="296" y="-62.6" font-family="Times,serif" font-size="14.00">LessonModule</text>
</g>
<!-- LessonModule&#45;&gt;SharingModule -->
<g id="edge3" class="edge">
<title>LessonModule&#45;&gt;SharingModule</title>
<path fill="none" stroke="black" d="M296,-84.83C296,-101.2 296,-122.8 296,-122.8 296,-122.8 436.24,-122.8 436.24,-122.8"/>
<polygon fill="black" stroke="black" points="436.24,-126.3 446.24,-122.8 436.24,-119.3 436.24,-126.3"/>
</g>
<!-- LoggerModule -->
<g id="node4" class="node">
<title>LoggerModule</title>
<polygon fill="#8dd3c7" stroke="black" points="227.98,-84.8 224.98,-88.8 203.98,-88.8 200.98,-84.8 128.02,-84.8 128.02,-48.8 227.98,-48.8 227.98,-84.8"/>
<text text-anchor="middle" x="178" y="-62.6" font-family="Times,serif" font-size="14.00">LoggerModule</text>
</g>
<!-- LoggerModule&#45;&gt;SharingModule -->
<g id="edge4" class="edge">
<title>LoggerModule&#45;&gt;SharingModule</title>
<path fill="none" stroke="black" d="M178,-84.91C178,-104.14 178,-131.8 178,-131.8 178,-131.8 436.23,-131.8 436.23,-131.8"/>
<polygon fill="black" stroke="black" points="436.23,-135.3 446.23,-131.8 436.23,-128.3 436.23,-135.3"/>
</g>
<!-- TaskModule -->
<g id="node5" class="node">
<title>TaskModule</title>
<polygon fill="#8dd3c7" stroke="black" points="110.27,-84.8 107.27,-88.8 86.27,-88.8 83.27,-84.8 23.73,-84.8 23.73,-48.8 110.27,-48.8 110.27,-84.8"/>
<text text-anchor="middle" x="67" y="-62.6" font-family="Times,serif" font-size="14.00">TaskModule</text>
</g>
<!-- TaskModule&#45;&gt;SharingModule -->
<g id="edge5" class="edge">
<title>TaskModule&#45;&gt;SharingModule</title>
<path fill="none" stroke="black" d="M67,-85.09C67,-107.01 67,-140.8 67,-140.8 67,-140.8 436.44,-140.8 436.44,-140.8"/>
<polygon fill="black" stroke="black" points="436.44,-144.3 446.44,-140.8 436.44,-137.3 436.44,-144.3"/>
</g>
<!-- ShareTokenService  -->
<g id="node7" class="node">
<title>ShareTokenService </title>
<polygon fill="#fb8072" stroke="black" points="562.62,-214.8 433.38,-214.8 433.38,-178.8 562.62,-178.8 562.62,-214.8"/>
<text text-anchor="middle" x="498" y="-192.6" font-family="Times,serif" font-size="14.00">ShareTokenService </text>
</g>
<!-- SharingModule&#45;&gt;ShareTokenService  -->
<g id="edge6" class="edge">
<title>SharingModule&#45;&gt;ShareTokenService </title>
<path fill="none" stroke="black" stroke-dasharray="5,2" d="M498,-149.91C498,-149.91 498,-168.79 498,-168.79"/>
<polygon fill="black" stroke="black" points="494.5,-168.79 498,-178.79 501.5,-168.79 494.5,-168.79"/>
</g>
<!-- ShareTokenRepo -->
<g id="node8" class="node">
<title>ShareTokenRepo</title>
<ellipse fill="#fdb462" stroke="black" cx="1101" cy="-66.8" rx="78.16" ry="18"/>
<text text-anchor="middle" x="1101" y="-62.6" font-family="Times,serif" font-size="14.00">ShareTokenRepo</text>
</g>
<!-- ShareTokenRepo&#45;&gt;SharingModule -->
<g id="edge7" class="edge">
<title>ShareTokenRepo&#45;&gt;SharingModule</title>
<path fill="none" stroke="black" d="M1101,-85.09C1101,-107.01 1101,-140.8 1101,-140.8 1101,-140.8 559.67,-140.8 559.67,-140.8"/>
<polygon fill="black" stroke="black" points="559.67,-137.3 549.67,-140.8 559.67,-144.3 559.67,-137.3"/>
</g>
<!-- ShareTokenService -->
<g id="node9" class="node">
<title>ShareTokenService</title>
<ellipse fill="#fdb462" stroke="black" cx="918" cy="-66.8" rx="86.8" ry="18"/>
<text text-anchor="middle" x="918" y="-62.6" font-family="Times,serif" font-size="14.00">ShareTokenService</text>
</g>
<!-- ShareTokenService&#45;&gt;SharingModule -->
<g id="edge8" class="edge">
<title>ShareTokenService&#45;&gt;SharingModule</title>
<path fill="none" stroke="black" d="M918,-84.91C918,-104.14 918,-131.8 918,-131.8 918,-131.8 559.92,-131.8 559.92,-131.8"/>
<polygon fill="black" stroke="black" points="559.92,-128.3 549.92,-131.8 559.92,-135.3 559.92,-128.3"/>
</g>
<!-- TokenGenerator -->
<g id="node10" class="node">
<title>TokenGenerator</title>
<ellipse fill="#fdb462" stroke="black" cx="739" cy="-66.8" rx="74.12" ry="18"/>
<text text-anchor="middle" x="739" y="-62.6" font-family="Times,serif" font-size="14.00">TokenGenerator</text>
</g>
<!-- TokenGenerator&#45;&gt;SharingModule -->
<g id="edge9" class="edge">
<title>TokenGenerator&#45;&gt;SharingModule</title>
<path fill="none" stroke="black" d="M739,-84.83C739,-101.2 739,-122.8 739,-122.8 739,-122.8 559.7,-122.8 559.7,-122.8"/>
<polygon fill="black" stroke="black" points="559.7,-119.3 549.7,-122.8 559.7,-126.3 559.7,-119.3"/>
</g>
</g>
</svg>
