<?xml version="1.0" encoding="UTF-8" standalone="no"?>
<!DOCTYPE svg PUBLIC "-//W3C//DTD SVG 1.1//EN"
 "http://www.w3.org/Graphics/SVG/1.1/DTD/svg11.dtd">
<!-- Generated by graphviz version 5.0.0 (20220707.1540)
 -->
<!-- Title: dependencies Pages: 1 -->
<svg width="1211pt" height="247pt"
 viewBox="0.00 0.00 1211.00 246.80" xmlns="http://www.w3.org/2000/svg" xmlns:xlink="http://www.w3.org/1999/xlink">
<g id="graph0" class="graph" transform="scale(1 1) rotate(0) translate(4 242.8)">
<title>dependencies</title>
<polygon fill="white" stroke="transparent" points="-4,4 -4,-242.8 1207,-242.8 1207,4 -4,4"/>
<text text-anchor="middle" x="601.5" y="-8.2" font-family="sans-serif" font-size="14.00">dependencies</text>
<g id="clust1" class="cluster">
<title>cluster_SharingModule</title>
<polygon fill="none" stroke="black" stroke-dasharray="1,5" points="8,-32.8 8,-230.8 1195,-230.8 1195,-32.8 8,-32.8"/>
</g>
<g id="clust4" class="cluster">
<title>cluster_SharingModule_exports</title>
<polygon fill="none" stroke="black" points="587,-170.8 587,-222.8 733,-222.8 733,-170.8 587,-170.8"/>
</g>
<g id="clust3" class="cluster">
<title>cluster_SharingModule_imports</title>
<polygon fill="none" stroke="black" points="554,-40.8 554,-92.8 1187,-92.8 1187,-40.8 554,-40.8"/>
</g>
<g id="clust6" class="cluster">
<title>cluster_SharingModule_providers</title>
<polygon fill="none" stroke="black" points="16,-40.8 16,-92.8 546,-92.8 546,-40.8 16,-40.8"/>
</g>
<!-- AuthorizationModule -->
<g id="node1" class="node">
<title>AuthorizationModule</title>
<polygon fill="#8dd3c7" stroke="black" points="1178.81,-84.8 1175.81,-88.8 1154.81,-88.8 1151.81,-84.8 1041.19,-84.8 1041.19,-48.8 1178.81,-48.8 1178.81,-84.8"/>
<text text-anchor="middle" x="1110" y="-62.6" font-family="Times,serif" font-size="14.00">AuthorizationModule</text>
</g>
<!-- SharingModule -->
<g id="node6" class="node">
<title>SharingModule</title>
<polygon fill="#8dd3c7" stroke="black" points="711.6,-149.8 708.6,-153.8 687.6,-153.8 684.6,-149.8 608.4,-149.8 608.4,-113.8 711.6,-113.8 711.6,-149.8"/>
<text text-anchor="middle" x="660" y="-127.6" font-family="Times,serif" font-size="14.00">SharingModule</text>
</g>
<!-- AuthorizationModule&#45;&gt;SharingModule -->
<g id="edge1" class="edge">
<title>AuthorizationModule&#45;&gt;SharingModule</title>
<path fill="none" stroke="black" d="M1110,-85.09C1110,-107.01 1110,-140.8 1110,-140.8 1110,-140.8 721.62,-140.8 721.62,-140.8"/>
<polygon fill="black" stroke="black" points="721.62,-137.3 711.62,-140.8 721.62,-144.3 721.62,-137.3"/>
</g>
<!-- LearnroomModule -->
<g id="node2" class="node">
<title>LearnroomModule</title>
<polygon fill="#8dd3c7" stroke="black" points="1022.75,-84.8 1019.75,-88.8 998.75,-88.8 995.75,-84.8 901.25,-84.8 901.25,-48.8 1022.75,-48.8 1022.75,-84.8"/>
<text text-anchor="middle" x="962" y="-62.6" font-family="Times,serif" font-size="14.00">LearnroomModule</text>
</g>
<!-- LearnroomModule&#45;&gt;SharingModule -->
<g id="edge2" class="edge">
<title>LearnroomModule&#45;&gt;SharingModule</title>
<path fill="none" stroke="black" d="M962,-84.91C962,-104.14 962,-131.8 962,-131.8 962,-131.8 721.57,-131.8 721.57,-131.8"/>
<polygon fill="black" stroke="black" points="721.57,-128.3 711.57,-131.8 721.57,-135.3 721.57,-128.3"/>
</g>
<!-- LessonModule -->
<g id="node3" class="node">
<title>LessonModule</title>
<polygon fill="#8dd3c7" stroke="black" points="883.71,-84.8 880.71,-88.8 859.71,-88.8 856.71,-84.8 784.29,-84.8 784.29,-48.8 883.71,-48.8 883.71,-84.8"/>
<text text-anchor="middle" x="834" y="-62.6" font-family="Times,serif" font-size="14.00">LessonModule</text>
</g>
<!-- LessonModule&#45;&gt;SharingModule -->
<g id="edge3" class="edge">
<title>LessonModule&#45;&gt;SharingModule</title>
<path fill="none" stroke="black" d="M834,-84.83C834,-101.2 834,-122.8 834,-122.8 834,-122.8 721.73,-122.8 721.73,-122.8"/>
<polygon fill="black" stroke="black" points="721.73,-119.3 711.73,-122.8 721.73,-126.3 721.73,-119.3"/>
</g>
<!-- LoggerModule -->
<g id="node4" class="node">
<title>LoggerModule</title>
<polygon fill="#8dd3c7" stroke="black" points="765.98,-84.8 762.98,-88.8 741.98,-88.8 738.98,-84.8 666.02,-84.8 666.02,-48.8 765.98,-48.8 765.98,-84.8"/>
<text text-anchor="middle" x="716" y="-62.6" font-family="Times,serif" font-size="14.00">LoggerModule</text>
</g>
<!-- LoggerModule&#45;&gt;SharingModule -->
<g id="edge4" class="edge">
<title>LoggerModule&#45;&gt;SharingModule</title>
<path fill="none" stroke="black" d="M688.78,-84.91C688.78,-84.91 688.78,-103.79 688.78,-103.79"/>
<polygon fill="black" stroke="black" points="685.28,-103.79 688.78,-113.79 692.28,-103.79 685.28,-103.79"/>
</g>
<!-- TaskModule -->
<g id="node5" class="node">
<title>TaskModule</title>
<polygon fill="#8dd3c7" stroke="black" points="648.27,-84.8 645.27,-88.8 624.27,-88.8 621.27,-84.8 561.73,-84.8 561.73,-48.8 648.27,-48.8 648.27,-84.8"/>
<text text-anchor="middle" x="605" y="-62.6" font-family="Times,serif" font-size="14.00">TaskModule</text>
</g>
<!-- TaskModule&#45;&gt;SharingModule -->
<g id="edge5" class="edge">
<title>TaskModule&#45;&gt;SharingModule</title>
<path fill="none" stroke="black" d="M628.42,-84.91C628.42,-84.91 628.42,-103.79 628.42,-103.79"/>
<polygon fill="black" stroke="black" points="624.92,-103.79 628.42,-113.79 631.92,-103.79 624.92,-103.79"/>
</g>
<!-- ShareTokenService  -->
<g id="node7" class="node">
<title>ShareTokenService </title>
<polygon fill="#fb8072" stroke="black" points="724.62,-214.8 595.38,-214.8 595.38,-178.8 724.62,-178.8 724.62,-214.8"/>
<text text-anchor="middle" x="660" y="-192.6" font-family="Times,serif" font-size="14.00">ShareTokenService </text>
</g>
<!-- SharingModule&#45;&gt;ShareTokenService  -->
<g id="edge6" class="edge">
<title>SharingModule&#45;&gt;ShareTokenService </title>
<path fill="none" stroke="black" stroke-dasharray="5,2" d="M660,-149.91C660,-149.91 660,-168.79 660,-168.79"/>
<polygon fill="black" stroke="black" points="656.5,-168.79 660,-178.79 663.5,-168.79 656.5,-168.79"/>
</g>
<!-- ShareTokenRepo -->
<g id="node8" class="node">
<title>ShareTokenRepo</title>
<ellipse fill="#fdb462" stroke="black" cx="460" cy="-66.8" rx="78.16" ry="18"/>
<text text-anchor="middle" x="460" y="-62.6" font-family="Times,serif" font-size="14.00">ShareTokenRepo</text>
</g>
<!-- ShareTokenRepo&#45;&gt;SharingModule -->
<g id="edge7" class="edge">
<title>ShareTokenRepo&#45;&gt;SharingModule</title>
<path fill="none" stroke="black" d="M460,-84.83C460,-101.2 460,-122.8 460,-122.8 460,-122.8 598.23,-122.8 598.23,-122.8"/>
<polygon fill="black" stroke="black" points="598.23,-126.3 608.23,-122.8 598.23,-119.3 598.23,-126.3"/>
</g>
<!-- ShareTokenService -->
<g id="node9" class="node">
<title>ShareTokenService</title>
<ellipse fill="#fdb462" stroke="black" cx="277" cy="-66.8" rx="86.8" ry="18"/>
<text text-anchor="middle" x="277" y="-62.6" font-family="Times,serif" font-size="14.00">ShareTokenService</text>
</g>
<!-- ShareTokenService&#45;&gt;SharingModule -->
<g id="edge8" class="edge">
<title>ShareTokenService&#45;&gt;SharingModule</title>
<path fill="none" stroke="black" d="M277,-84.91C277,-104.14 277,-131.8 277,-131.8 277,-131.8 598.35,-131.8 598.35,-131.8"/>
<polygon fill="black" stroke="black" points="598.35,-135.3 608.35,-131.8 598.35,-128.3 598.35,-135.3"/>
</g>
<!-- TokenGenerator -->
<g id="node10" class="node">
<title>TokenGenerator</title>
<ellipse fill="#fdb462" stroke="black" cx="98" cy="-66.8" rx="74.12" ry="18"/>
<text text-anchor="middle" x="98" y="-62.6" font-family="Times,serif" font-size="14.00">TokenGenerator</text>
</g>
<!-- TokenGenerator&#45;&gt;SharingModule -->
<g id="edge9" class="edge">
<title>TokenGenerator&#45;&gt;SharingModule</title>
<path fill="none" stroke="black" d="M98,-85.09C98,-107.01 98,-140.8 98,-140.8 98,-140.8 598.14,-140.8 598.14,-140.8"/>
<polygon fill="black" stroke="black" points="598.14,-144.3 608.14,-140.8 598.14,-137.3 598.14,-144.3"/>
</g>
</g>
</svg>
