<?xml version="1.0" encoding="UTF-8" standalone="no"?>
<!DOCTYPE svg PUBLIC "-//W3C//DTD SVG 1.1//EN"
 "http://www.w3.org/Graphics/SVG/1.1/DTD/svg11.dtd">
<!-- Generated by graphviz version 2.47.0 (20210316.0004)
 -->
<!-- Title: dependencies Pages: 1 -->
<svg width="1211pt" height="284pt"
 viewBox="0.00 0.00 1211.00 284.00" xmlns="http://www.w3.org/2000/svg" xmlns:xlink="http://www.w3.org/1999/xlink">
<g id="graph0" class="graph" transform="scale(1 1) rotate(0) translate(4 280)">
<title>dependencies</title>
<polygon fill="white" stroke="transparent" points="-4,4 -4,-280 1207,-280 1207,4 -4,4"/>
<text text-anchor="start" x="580.51" y="-42.4" font-family="Times-12" font-weight="bold" font-size="14.00">Legend</text>
<polygon fill="#ffffb3" stroke="transparent" points="367.5,-10 367.5,-30 387.5,-30 387.5,-10 367.5,-10"/>
<text text-anchor="start" x="391.13" y="-15.4" font-family="Times-12" font-size="14.00"> &#160;Declarations</text>
<polygon fill="#8dd3c7" stroke="transparent" points="480.5,-10 480.5,-30 500.5,-30 500.5,-10 480.5,-10"/>
<text text-anchor="start" x="504.23" y="-15.4" font-family="Times-12" font-size="14.00"> &#160;Module</text>
<polygon fill="#80b1d3" stroke="transparent" points="566.5,-10 566.5,-30 586.5,-30 586.5,-10 566.5,-10"/>
<text text-anchor="start" x="590.28" y="-15.4" font-family="Times-12" font-size="14.00"> &#160;Bootstrap</text>
<polygon fill="#fdb462" stroke="transparent" points="663.5,-10 663.5,-30 683.5,-30 683.5,-10 663.5,-10"/>
<text text-anchor="start" x="687.17" y="-15.4" font-family="Times-12" font-size="14.00"> &#160;Providers</text>
<polygon fill="#fb8072" stroke="transparent" points="759.5,-10 759.5,-30 779.5,-30 779.5,-10 759.5,-10"/>
<text text-anchor="start" x="783.23" y="-15.4" font-family="Times-12" font-size="14.00"> &#160;Exports</text>
<g id="clust1" class="cluster">
<title>cluster_SharingModule</title>
<polygon fill="none" stroke="black" stroke-dasharray="1,5" points="8,-70 8,-268 1195,-268 1195,-70 8,-70"/>
</g>
<g id="clust4" class="cluster">
<title>cluster_SharingModule_exports</title>
<polygon fill="none" stroke="black" points="587,-208 587,-260 733,-260 733,-208 587,-208"/>
</g>
<g id="clust3" class="cluster">
<title>cluster_SharingModule_imports</title>
<polygon fill="none" stroke="black" points="554,-78 554,-130 1187,-130 1187,-78 554,-78"/>
</g>
<g id="clust6" class="cluster">
<title>cluster_SharingModule_providers</title>
<polygon fill="none" stroke="black" points="16,-78 16,-130 546,-130 546,-78 16,-78"/>
</g>
<!-- AuthorizationModule -->
<g id="node1" class="node">
<title>AuthorizationModule</title>
<polygon fill="#8dd3c7" stroke="black" points="1178.81,-122 1175.81,-126 1154.81,-126 1151.81,-122 1041.19,-122 1041.19,-86 1178.81,-86 1178.81,-122"/>
<text text-anchor="middle" x="1110" y="-99.8" font-family="Times,serif" font-size="14.00">AuthorizationModule</text>
</g>
<!-- SharingModule -->
<g id="node6" class="node">
<title>SharingModule</title>
<polygon fill="#8dd3c7" stroke="black" points="711.6,-187 708.6,-191 687.6,-191 684.6,-187 608.4,-187 608.4,-151 711.6,-151 711.6,-187"/>
<text text-anchor="middle" x="660" y="-164.8" font-family="Times,serif" font-size="14.00">SharingModule</text>
</g>
<!-- AuthorizationModule&#45;&gt;SharingModule -->
<g id="edge1" class="edge">
<title>AuthorizationModule&#45;&gt;SharingModule</title>
<path fill="none" stroke="black" d="M1110,-122.29C1110,-144.21 1110,-178 1110,-178 1110,-178 721.62,-178 721.62,-178"/>
<polygon fill="black" stroke="black" points="721.62,-174.5 711.62,-178 721.62,-181.5 721.62,-174.5"/>
</g>
<!-- LearnroomModule -->
<g id="node2" class="node">
<title>LearnroomModule</title>
<polygon fill="#8dd3c7" stroke="black" points="1022.74,-122 1019.74,-126 998.74,-126 995.74,-122 901.26,-122 901.26,-86 1022.74,-86 1022.74,-122"/>
<text text-anchor="middle" x="962" y="-99.8" font-family="Times,serif" font-size="14.00">LearnroomModule</text>
</g>
<!-- LearnroomModule&#45;&gt;SharingModule -->
<g id="edge2" class="edge">
<title>LearnroomModule&#45;&gt;SharingModule</title>
<path fill="none" stroke="black" d="M962,-122.11C962,-141.34 962,-169 962,-169 962,-169 721.57,-169 721.57,-169"/>
<polygon fill="black" stroke="black" points="721.57,-165.5 711.57,-169 721.57,-172.5 721.57,-165.5"/>
</g>
<!-- LessonModule -->
<g id="node3" class="node">
<title>LessonModule</title>
<polygon fill="#8dd3c7" stroke="black" points="883.71,-122 880.71,-126 859.71,-126 856.71,-122 784.29,-122 784.29,-86 883.71,-86 883.71,-122"/>
<text text-anchor="middle" x="834" y="-99.8" font-family="Times,serif" font-size="14.00">LessonModule</text>
</g>
<!-- LessonModule&#45;&gt;SharingModule -->
<g id="edge3" class="edge">
<title>LessonModule&#45;&gt;SharingModule</title>
<path fill="none" stroke="black" d="M834,-122.03C834,-138.4 834,-160 834,-160 834,-160 721.73,-160 721.73,-160"/>
<polygon fill="black" stroke="black" points="721.73,-156.5 711.73,-160 721.73,-163.5 721.73,-156.5"/>
</g>
<!-- LoggerModule -->
<g id="node4" class="node">
<title>LoggerModule</title>
<polygon fill="#8dd3c7" stroke="black" points="765.98,-122 762.98,-126 741.98,-126 738.98,-122 666.02,-122 666.02,-86 765.98,-86 765.98,-122"/>
<text text-anchor="middle" x="716" y="-99.8" font-family="Times,serif" font-size="14.00">LoggerModule</text>
</g>
<!-- LoggerModule&#45;&gt;SharingModule -->
<g id="edge4" class="edge">
<title>LoggerModule&#45;&gt;SharingModule</title>
<path fill="none" stroke="black" d="M688.78,-122.11C688.78,-122.11 688.78,-140.99 688.78,-140.99"/>
<polygon fill="black" stroke="black" points="685.28,-140.99 688.78,-150.99 692.28,-140.99 685.28,-140.99"/>
</g>
<!-- TaskModule -->
<g id="node5" class="node">
<title>TaskModule</title>
<polygon fill="#8dd3c7" stroke="black" points="648.26,-122 645.26,-126 624.26,-126 621.26,-122 561.74,-122 561.74,-86 648.26,-86 648.26,-122"/>
<text text-anchor="middle" x="605" y="-99.8" font-family="Times,serif" font-size="14.00">TaskModule</text>
</g>
<!-- TaskModule&#45;&gt;SharingModule -->
<g id="edge5" class="edge">
<title>TaskModule&#45;&gt;SharingModule</title>
<path fill="none" stroke="black" d="M628.42,-122.11C628.42,-122.11 628.42,-140.99 628.42,-140.99"/>
<polygon fill="black" stroke="black" points="624.92,-140.99 628.42,-150.99 631.92,-140.99 624.92,-140.99"/>
</g>
<!-- ShareTokenService  -->
<g id="node7" class="node">
<title>ShareTokenService </title>
<polygon fill="#fb8072" stroke="black" points="724.62,-252 595.38,-252 595.38,-216 724.62,-216 724.62,-252"/>
<text text-anchor="middle" x="660" y="-229.8" font-family="Times,serif" font-size="14.00">ShareTokenService </text>
</g>
<!-- SharingModule&#45;&gt;ShareTokenService  -->
<g id="edge6" class="edge">
<title>SharingModule&#45;&gt;ShareTokenService </title>
<path fill="none" stroke="black" stroke-dasharray="5,2" d="M660,-187.11C660,-187.11 660,-205.99 660,-205.99"/>
<polygon fill="black" stroke="black" points="656.5,-205.99 660,-215.99 663.5,-205.99 656.5,-205.99"/>
</g>
<!-- ShareTokenRepo -->
<g id="node8" class="node">
<title>ShareTokenRepo</title>
<ellipse fill="#fdb462" stroke="black" cx="460" cy="-104" rx="78.15" ry="18"/>
<text text-anchor="middle" x="460" y="-99.8" font-family="Times,serif" font-size="14.00">ShareTokenRepo</text>
</g>
<!-- ShareTokenRepo&#45;&gt;SharingModule -->
<g id="edge7" class="edge">
<title>ShareTokenRepo&#45;&gt;SharingModule</title>
<path fill="none" stroke="black" d="M460,-122.03C460,-138.4 460,-160 460,-160 460,-160 598.23,-160 598.23,-160"/>
<polygon fill="black" stroke="black" points="598.23,-163.5 608.23,-160 598.23,-156.5 598.23,-163.5"/>
</g>
<!-- ShareTokenService -->
<g id="node9" class="node">
<title>ShareTokenService</title>
<ellipse fill="#fdb462" stroke="black" cx="277" cy="-104" rx="86.8" ry="18"/>
<text text-anchor="middle" x="277" y="-99.8" font-family="Times,serif" font-size="14.00">ShareTokenService</text>
</g>
<!-- ShareTokenService&#45;&gt;SharingModule -->
<g id="edge8" class="edge">
<title>ShareTokenService&#45;&gt;SharingModule</title>
<path fill="none" stroke="black" d="M277,-122.11C277,-141.34 277,-169 277,-169 277,-169 598.35,-169 598.35,-169"/>
<polygon fill="black" stroke="black" points="598.35,-172.5 608.35,-169 598.35,-165.5 598.35,-172.5"/>
</g>
<!-- TokenGenerator -->
<g id="node10" class="node">
<title>TokenGenerator</title>
<ellipse fill="#fdb462" stroke="black" cx="98" cy="-104" rx="74.12" ry="18"/>
<text text-anchor="middle" x="98" y="-99.8" font-family="Times,serif" font-size="14.00">TokenGenerator</text>
</g>
<!-- TokenGenerator&#45;&gt;SharingModule -->
<g id="edge9" class="edge">
<title>TokenGenerator&#45;&gt;SharingModule</title>
<path fill="none" stroke="black" d="M98,-122.29C98,-144.21 98,-178 98,-178 98,-178 598.14,-178 598.14,-178"/>
<polygon fill="black" stroke="black" points="598.14,-181.5 608.14,-178 598.14,-174.5 598.14,-181.5"/>
</g>
</g>
</svg>
