<?xml version="1.0" encoding="UTF-8" standalone="no"?>
<!DOCTYPE svg PUBLIC "-//W3C//DTD SVG 1.1//EN"
 "http://www.w3.org/Graphics/SVG/1.1/DTD/svg11.dtd">
<!-- Generated by graphviz version 2.47.0 (20210316.0004)
 -->
<!-- Title: dependencies Pages: 1 -->
<svg width="1535pt" height="284pt"
 viewBox="0.00 0.00 1535.00 284.00" xmlns="http://www.w3.org/2000/svg" xmlns:xlink="http://www.w3.org/1999/xlink">
<g id="graph0" class="graph" transform="scale(1 1) rotate(0) translate(4 280)">
<title>dependencies</title>
<polygon fill="white" stroke="transparent" points="-4,4 -4,-280 1531,-280 1531,4 -4,4"/>
<text text-anchor="start" x="742.51" y="-42.4" font-family="Times-12" font-weight="bold" font-size="14.00">Legend</text>
<polygon fill="#ffffb3" stroke="transparent" points="529.5,-10 529.5,-30 549.5,-30 549.5,-10 529.5,-10"/>
<text text-anchor="start" x="553.13" y="-15.4" font-family="Times-12" font-size="14.00"> &#160;Declarations</text>
<polygon fill="#8dd3c7" stroke="transparent" points="642.5,-10 642.5,-30 662.5,-30 662.5,-10 642.5,-10"/>
<text text-anchor="start" x="666.23" y="-15.4" font-family="Times-12" font-size="14.00"> &#160;Module</text>
<polygon fill="#80b1d3" stroke="transparent" points="728.5,-10 728.5,-30 748.5,-30 748.5,-10 728.5,-10"/>
<text text-anchor="start" x="752.28" y="-15.4" font-family="Times-12" font-size="14.00"> &#160;Bootstrap</text>
<polygon fill="#fdb462" stroke="transparent" points="825.5,-10 825.5,-30 845.5,-30 845.5,-10 825.5,-10"/>
<text text-anchor="start" x="849.17" y="-15.4" font-family="Times-12" font-size="14.00"> &#160;Providers</text>
<polygon fill="#fb8072" stroke="transparent" points="921.5,-10 921.5,-30 941.5,-30 941.5,-10 921.5,-10"/>
<text text-anchor="start" x="945.23" y="-15.4" font-family="Times-12" font-size="14.00"> &#160;Exports</text>
<g id="clust1" class="cluster">
<title>cluster_SharingModule</title>
<polygon fill="none" stroke="black" stroke-dasharray="1,5" points="8,-70 8,-268 1519,-268 1519,-70 8,-70"/>
</g>
<g id="clust6" class="cluster">
<title>cluster_SharingModule_providers</title>
<polygon fill="none" stroke="black" points="981,-78 981,-130 1511,-130 1511,-78 981,-78"/>
</g>
<g id="clust3" class="cluster">
<title>cluster_SharingModule_imports</title>
<polygon fill="none" stroke="black" points="16,-78 16,-130 973,-130 973,-78 16,-78"/>
</g>
<g id="clust4" class="cluster">
<title>cluster_SharingModule_exports</title>
<polygon fill="none" stroke="black" points="558,-208 558,-260 704,-260 704,-208 558,-208"/>
</g>
<!-- AuthorizationModule -->
<g id="node1" class="node">
<title>AuthorizationModule</title>
<polygon fill="#8dd3c7" stroke="black" points="964.81,-122 961.81,-126 940.81,-126 937.81,-122 827.19,-122 827.19,-86 964.81,-86 964.81,-122"/>
<text text-anchor="middle" x="896" y="-99.8" font-family="Times,serif" font-size="14.00">AuthorizationModule</text>
</g>
<!-- SharingModule -->
<g id="node8" class="node">
<title>SharingModule</title>
<polygon fill="#8dd3c7" stroke="black" points="682.6,-187 679.6,-191 658.6,-191 655.6,-187 579.4,-187 579.4,-151 682.6,-151 682.6,-187"/>
<text text-anchor="middle" x="631" y="-164.8" font-family="Times,serif" font-size="14.00">SharingModule</text>
</g>
<!-- AuthorizationModule&#45;&gt;SharingModule -->
<g id="edge1" class="edge">
<title>AuthorizationModule&#45;&gt;SharingModule</title>
<path fill="none" stroke="black" d="M896,-122.01C896,-138.05 896,-159 896,-159 896,-159 692.72,-159 692.72,-159"/>
<polygon fill="black" stroke="black" points="692.72,-155.5 682.72,-159 692.72,-162.5 692.72,-155.5"/>
</g>
<!-- AuthorizationReferenceModule -->
<g id="node2" class="node">
<title>AuthorizationReferenceModule</title>
<polygon fill="#8dd3c7" stroke="black" points="809.04,-122 806.04,-126 785.04,-126 782.04,-122 614.96,-122 614.96,-86 809.04,-86 809.04,-122"/>
<text text-anchor="middle" x="712" y="-99.8" font-family="Times,serif" font-size="14.00">AuthorizationReferenceModule</text>
</g>
<!-- AuthorizationReferenceModule&#45;&gt;SharingModule -->
<g id="edge2" class="edge">
<title>AuthorizationReferenceModule&#45;&gt;SharingModule</title>
<path fill="none" stroke="black" d="M648.76,-122.11C648.76,-122.11 648.76,-140.99 648.76,-140.99"/>
<polygon fill="black" stroke="black" points="645.26,-140.99 648.76,-150.99 652.26,-140.99 645.26,-140.99"/>
</g>
<!-- BoardModule -->
<g id="node3" class="node">
<title>BoardModule</title>
<polygon fill="#8dd3c7" stroke="black" points="596.76,-122 593.76,-126 572.76,-126 569.76,-122 503.24,-122 503.24,-86 596.76,-86 596.76,-122"/>
<text text-anchor="middle" x="550" y="-99.8" font-family="Times,serif" font-size="14.00">BoardModule</text>
</g>
<!-- BoardModule&#45;&gt;SharingModule -->
<g id="edge3" class="edge">
<title>BoardModule&#45;&gt;SharingModule</title>
<path fill="none" stroke="black" d="M588.17,-122.11C588.17,-122.11 588.17,-140.99 588.17,-140.99"/>
<polygon fill="black" stroke="black" points="584.67,-140.99 588.17,-150.99 591.67,-140.99 584.67,-140.99"/>
</g>
<!-- LearnroomModule -->
<g id="node4" class="node">
<title>LearnroomModule</title>
<polygon fill="#8dd3c7" stroke="black" points="484.74,-122 481.74,-126 460.74,-126 457.74,-122 363.26,-122 363.26,-86 484.74,-86 484.74,-122"/>
<text text-anchor="middle" x="424" y="-99.8" font-family="Times,serif" font-size="14.00">LearnroomModule</text>
</g>
<!-- LearnroomModule&#45;&gt;SharingModule -->
<g id="edge4" class="edge">
<title>LearnroomModule&#45;&gt;SharingModule</title>
<path fill="none" stroke="black" d="M424,-122.01C424,-138.05 424,-159 424,-159 424,-159 569.3,-159 569.3,-159"/>
<polygon fill="black" stroke="black" points="569.3,-162.5 579.3,-159 569.3,-155.5 569.3,-162.5"/>
</g>
<!-- LessonModule -->
<g id="node5" class="node">
<title>LessonModule</title>
<polygon fill="#8dd3c7" stroke="black" points="345.71,-122 342.71,-126 321.71,-126 318.71,-122 246.29,-122 246.29,-86 345.71,-86 345.71,-122"/>
<text text-anchor="middle" x="296" y="-99.8" font-family="Times,serif" font-size="14.00">LessonModule</text>
</g>
<!-- LessonModule&#45;&gt;SharingModule -->
<g id="edge5" class="edge">
<title>LessonModule&#45;&gt;SharingModule</title>
<path fill="none" stroke="black" d="M296,-122.27C296,-140.56 296,-166 296,-166 296,-166 569.39,-166 569.39,-166"/>
<polygon fill="black" stroke="black" points="569.39,-169.5 579.39,-166 569.39,-162.5 569.39,-169.5"/>
</g>
<!-- LoggerModule -->
<g id="node6" class="node">
<title>LoggerModule</title>
<polygon fill="#8dd3c7" stroke="black" points="227.98,-122 224.98,-126 203.98,-126 200.98,-122 128.02,-122 128.02,-86 227.98,-86 227.98,-122"/>
<text text-anchor="middle" x="178" y="-99.8" font-family="Times,serif" font-size="14.00">LoggerModule</text>
</g>
<!-- LoggerModule&#45;&gt;SharingModule -->
<g id="edge6" class="edge">
<title>LoggerModule&#45;&gt;SharingModule</title>
<path fill="none" stroke="black" d="M178,-122.13C178,-142.57 178,-173 178,-173 178,-173 569.04,-173 569.04,-173"/>
<polygon fill="black" stroke="black" points="569.04,-176.5 579.04,-173 569.04,-169.5 569.04,-176.5"/>
</g>
<!-- TaskModule -->
<g id="node7" class="node">
<title>TaskModule</title>
<polygon fill="#8dd3c7" stroke="black" points="110.26,-122 107.26,-126 86.26,-126 83.26,-122 23.74,-122 23.74,-86 110.26,-86 110.26,-122"/>
<text text-anchor="middle" x="67" y="-99.8" font-family="Times,serif" font-size="14.00">TaskModule</text>
</g>
<!-- TaskModule&#45;&gt;SharingModule -->
<g id="edge7" class="edge">
<title>TaskModule&#45;&gt;SharingModule</title>
<path fill="none" stroke="black" d="M67,-122.01C67,-144.49 67,-180 67,-180 67,-180 569.2,-180 569.2,-180"/>
<polygon fill="black" stroke="black" points="569.2,-183.5 579.2,-180 569.2,-176.5 569.2,-183.5"/>
</g>
<!-- ShareTokenService  -->
<g id="node9" class="node">
<title>ShareTokenService </title>
<polygon fill="#fb8072" stroke="black" points="695.62,-252 566.38,-252 566.38,-216 695.62,-216 695.62,-252"/>
<text text-anchor="middle" x="631" y="-229.8" font-family="Times,serif" font-size="14.00">ShareTokenService </text>
</g>
<!-- SharingModule&#45;&gt;ShareTokenService  -->
<g id="edge8" class="edge">
<title>SharingModule&#45;&gt;ShareTokenService </title>
<path fill="none" stroke="black" stroke-dasharray="5,2" d="M631,-187.11C631,-187.11 631,-205.99 631,-205.99"/>
<polygon fill="black" stroke="black" points="627.5,-205.99 631,-215.99 634.5,-205.99 627.5,-205.99"/>
</g>
<!-- ShareTokenRepo -->
<g id="node10" class="node">
<title>ShareTokenRepo</title>
<ellipse fill="#fdb462" stroke="black" cx="1425" cy="-104" rx="78.15" ry="18"/>
<text text-anchor="middle" x="1425" y="-99.8" font-family="Times,serif" font-size="14.00">ShareTokenRepo</text>
</g>
<!-- ShareTokenRepo&#45;&gt;SharingModule -->
<g id="edge9" class="edge">
<title>ShareTokenRepo&#45;&gt;SharingModule</title>
<path fill="none" stroke="black" d="M1425,-122.01C1425,-144.49 1425,-180 1425,-180 1425,-180 692.79,-180 692.79,-180"/>
<polygon fill="black" stroke="black" points="692.79,-176.5 682.79,-180 692.79,-183.5 692.79,-176.5"/>
</g>
<!-- ShareTokenService -->
<g id="node11" class="node">
<title>ShareTokenService</title>
<ellipse fill="#fdb462" stroke="black" cx="1242" cy="-104" rx="86.8" ry="18"/>
<text text-anchor="middle" x="1242" y="-99.8" font-family="Times,serif" font-size="14.00">ShareTokenService</text>
</g>
<!-- ShareTokenService&#45;&gt;SharingModule -->
<g id="edge10" class="edge">
<title>ShareTokenService&#45;&gt;SharingModule</title>
<path fill="none" stroke="black" d="M1242,-122.13C1242,-142.57 1242,-173 1242,-173 1242,-173 692.57,-173 692.57,-173"/>
<polygon fill="black" stroke="black" points="692.57,-169.5 682.57,-173 692.57,-176.5 692.57,-169.5"/>
</g>
<!-- TokenGenerator -->
<g id="node12" class="node">
<title>TokenGenerator</title>
<ellipse fill="#fdb462" stroke="black" cx="1063" cy="-104" rx="74.12" ry="18"/>
<text text-anchor="middle" x="1063" y="-99.8" font-family="Times,serif" font-size="14.00">TokenGenerator</text>
</g>
<!-- TokenGenerator&#45;&gt;SharingModule -->
<g id="edge11" class="edge">
<title>TokenGenerator&#45;&gt;SharingModule</title>
<path fill="none" stroke="black" d="M1063,-122.27C1063,-140.56 1063,-166 1063,-166 1063,-166 692.68,-166 692.68,-166"/>
<polygon fill="black" stroke="black" points="692.68,-162.5 682.68,-166 692.68,-169.5 692.68,-162.5"/>
</g>
</g>
</svg>
