<?xml version="1.0" encoding="UTF-8" standalone="no"?>
<!DOCTYPE svg PUBLIC "-//W3C//DTD SVG 1.1//EN"
 "http://www.w3.org/Graphics/SVG/1.1/DTD/svg11.dtd">
<!-- Generated by graphviz version 2.47.0 (20210316.0004)
 -->
<!-- Title: dependencies Pages: 1 -->
<svg width="1423pt" height="284pt"
 viewBox="0.00 0.00 1423.00 284.00" xmlns="http://www.w3.org/2000/svg" xmlns:xlink="http://www.w3.org/1999/xlink">
<g id="graph0" class="graph" transform="scale(1 1) rotate(0) translate(4 280)">
<title>dependencies</title>
<polygon fill="white" stroke="transparent" points="-4,4 -4,-280 1419,-280 1419,4 -4,4"/>
<text text-anchor="start" x="686.51" y="-42.4" font-family="Times-12" font-weight="bold" font-size="14.00">Legend</text>
<polygon fill="#ffffb3" stroke="transparent" points="473.5,-10 473.5,-30 493.5,-30 493.5,-10 473.5,-10"/>
<text text-anchor="start" x="497.13" y="-15.4" font-family="Times-12" font-size="14.00"> &#160;Declarations</text>
<polygon fill="#8dd3c7" stroke="transparent" points="586.5,-10 586.5,-30 606.5,-30 606.5,-10 586.5,-10"/>
<text text-anchor="start" x="610.23" y="-15.4" font-family="Times-12" font-size="14.00"> &#160;Module</text>
<polygon fill="#80b1d3" stroke="transparent" points="672.5,-10 672.5,-30 692.5,-30 692.5,-10 672.5,-10"/>
<text text-anchor="start" x="696.28" y="-15.4" font-family="Times-12" font-size="14.00"> &#160;Bootstrap</text>
<polygon fill="#fdb462" stroke="transparent" points="769.5,-10 769.5,-30 789.5,-30 789.5,-10 769.5,-10"/>
<text text-anchor="start" x="793.17" y="-15.4" font-family="Times-12" font-size="14.00"> &#160;Providers</text>
<polygon fill="#fb8072" stroke="transparent" points="865.5,-10 865.5,-30 885.5,-30 885.5,-10 865.5,-10"/>
<text text-anchor="start" x="889.23" y="-15.4" font-family="Times-12" font-size="14.00"> &#160;Exports</text>
<g id="clust1" class="cluster">
<title>cluster_SharingModule</title>
<polygon fill="none" stroke="black" stroke-dasharray="1,5" points="8,-70 8,-268 1407,-268 1407,-70 8,-70"/>
</g>
<g id="clust4" class="cluster">
<title>cluster_SharingModule_exports</title>
<polygon fill="none" stroke="black" points="527,-208 527,-260 673,-260 673,-208 527,-208"/>
</g>
<g id="clust6" class="cluster">
<title>cluster_SharingModule_providers</title>
<polygon fill="none" stroke="black" points="869,-78 869,-130 1399,-130 1399,-78 869,-78"/>
</g>
<g id="clust3" class="cluster">
<title>cluster_SharingModule_imports</title>
<polygon fill="none" stroke="black" points="16,-78 16,-130 861,-130 861,-78 16,-78"/>
</g>
<!-- AuthorizationModule -->
<g id="node1" class="node">
<title>AuthorizationModule</title>
<polygon fill="#8dd3c7" stroke="black" points="852.81,-122 849.81,-126 828.81,-126 825.81,-122 715.19,-122 715.19,-86 852.81,-86 852.81,-122"/>
<text text-anchor="middle" x="784" y="-99.8" font-family="Times,serif" font-size="14.00">AuthorizationModule</text>
</g>
<!-- SharingModule -->
<g id="node7" class="node">
<title>SharingModule</title>
<polygon fill="#8dd3c7" stroke="black" points="651.6,-187 648.6,-191 627.6,-191 624.6,-187 548.4,-187 548.4,-151 651.6,-151 651.6,-187"/>
<text text-anchor="middle" x="600" y="-164.8" font-family="Times,serif" font-size="14.00">SharingModule</text>
</g>
<!-- AuthorizationModule&#45;&gt;SharingModule -->
<g id="edge1" class="edge">
<title>AuthorizationModule&#45;&gt;SharingModule</title>
<path fill="none" stroke="black" d="M784,-122.01C784,-138.05 784,-159 784,-159 784,-159 661.74,-159 661.74,-159"/>
<polygon fill="black" stroke="black" points="661.74,-155.5 651.74,-159 661.74,-162.5 661.74,-155.5"/>
</g>
<!-- AuthorizationReferenceModule -->
<g id="node2" class="node">
<title>AuthorizationReferenceModule</title>
<polygon fill="#8dd3c7" stroke="black" points="697.04,-122 694.04,-126 673.04,-126 670.04,-122 502.96,-122 502.96,-86 697.04,-86 697.04,-122"/>
<text text-anchor="middle" x="600" y="-99.8" font-family="Times,serif" font-size="14.00">AuthorizationReferenceModule</text>
</g>
<!-- AuthorizationReferenceModule&#45;&gt;SharingModule -->
<g id="edge2" class="edge">
<title>AuthorizationReferenceModule&#45;&gt;SharingModule</title>
<path fill="none" stroke="black" d="M600,-122.11C600,-122.11 600,-140.99 600,-140.99"/>
<polygon fill="black" stroke="black" points="596.5,-140.99 600,-150.99 603.5,-140.99 596.5,-140.99"/>
</g>
<!-- LearnroomModule -->
<g id="node3" class="node">
<title>LearnroomModule</title>
<polygon fill="#8dd3c7" stroke="black" points="484.74,-122 481.74,-126 460.74,-126 457.74,-122 363.26,-122 363.26,-86 484.74,-86 484.74,-122"/>
<text text-anchor="middle" x="424" y="-99.8" font-family="Times,serif" font-size="14.00">LearnroomModule</text>
</g>
<!-- LearnroomModule&#45;&gt;SharingModule -->
<g id="edge3" class="edge">
<title>LearnroomModule&#45;&gt;SharingModule</title>
<path fill="none" stroke="black" d="M424,-122.01C424,-138.05 424,-159 424,-159 424,-159 538.15,-159 538.15,-159"/>
<polygon fill="black" stroke="black" points="538.15,-162.5 548.15,-159 538.15,-155.5 538.15,-162.5"/>
</g>
<!-- LessonModule -->
<g id="node4" class="node">
<title>LessonModule</title>
<polygon fill="#8dd3c7" stroke="black" points="345.71,-122 342.71,-126 321.71,-126 318.71,-122 246.29,-122 246.29,-86 345.71,-86 345.71,-122"/>
<text text-anchor="middle" x="296" y="-99.8" font-family="Times,serif" font-size="14.00">LessonModule</text>
</g>
<!-- LessonModule&#45;&gt;SharingModule -->
<g id="edge4" class="edge">
<title>LessonModule&#45;&gt;SharingModule</title>
<path fill="none" stroke="black" d="M296,-122.27C296,-140.56 296,-166 296,-166 296,-166 538.43,-166 538.43,-166"/>
<polygon fill="black" stroke="black" points="538.43,-169.5 548.43,-166 538.43,-162.5 538.43,-169.5"/>
</g>
<!-- LoggerModule -->
<g id="node5" class="node">
<title>LoggerModule</title>
<polygon fill="#8dd3c7" stroke="black" points="227.98,-122 224.98,-126 203.98,-126 200.98,-122 128.02,-122 128.02,-86 227.98,-86 227.98,-122"/>
<text text-anchor="middle" x="178" y="-99.8" font-family="Times,serif" font-size="14.00">LoggerModule</text>
</g>
<!-- LoggerModule&#45;&gt;SharingModule -->
<g id="edge5" class="edge">
<title>LoggerModule&#45;&gt;SharingModule</title>
<path fill="none" stroke="black" d="M178,-122.13C178,-142.57 178,-173 178,-173 178,-173 538.25,-173 538.25,-173"/>
<polygon fill="black" stroke="black" points="538.25,-176.5 548.25,-173 538.25,-169.5 538.25,-176.5"/>
</g>
<!-- TaskModule -->
<g id="node6" class="node">
<title>TaskModule</title>
<polygon fill="#8dd3c7" stroke="black" points="110.26,-122 107.26,-126 86.26,-126 83.26,-122 23.74,-122 23.74,-86 110.26,-86 110.26,-122"/>
<text text-anchor="middle" x="67" y="-99.8" font-family="Times,serif" font-size="14.00">TaskModule</text>
</g>
<!-- TaskModule&#45;&gt;SharingModule -->
<g id="edge6" class="edge">
<title>TaskModule&#45;&gt;SharingModule</title>
<path fill="none" stroke="black" d="M67,-122.01C67,-144.49 67,-180 67,-180 67,-180 538.41,-180 538.41,-180"/>
<polygon fill="black" stroke="black" points="538.41,-183.5 548.41,-180 538.41,-176.5 538.41,-183.5"/>
</g>
<!-- ShareTokenService  -->
<g id="node8" class="node">
<title>ShareTokenService </title>
<polygon fill="#fb8072" stroke="black" points="664.62,-252 535.38,-252 535.38,-216 664.62,-216 664.62,-252"/>
<text text-anchor="middle" x="600" y="-229.8" font-family="Times,serif" font-size="14.00">ShareTokenService </text>
</g>
<!-- SharingModule&#45;&gt;ShareTokenService  -->
<g id="edge7" class="edge">
<title>SharingModule&#45;&gt;ShareTokenService </title>
<path fill="none" stroke="black" stroke-dasharray="5,2" d="M600,-187.11C600,-187.11 600,-205.99 600,-205.99"/>
<polygon fill="black" stroke="black" points="596.5,-205.99 600,-215.99 603.5,-205.99 596.5,-205.99"/>
</g>
<!-- ShareTokenRepo -->
<g id="node9" class="node">
<title>ShareTokenRepo</title>
<ellipse fill="#fdb462" stroke="black" cx="1313" cy="-104" rx="78.15" ry="18"/>
<text text-anchor="middle" x="1313" y="-99.8" font-family="Times,serif" font-size="14.00">ShareTokenRepo</text>
</g>
<!-- ShareTokenRepo&#45;&gt;SharingModule -->
<g id="edge8" class="edge">
<title>ShareTokenRepo&#45;&gt;SharingModule</title>
<path fill="none" stroke="black" d="M1313,-122.01C1313,-144.49 1313,-180 1313,-180 1313,-180 661.56,-180 661.56,-180"/>
<polygon fill="black" stroke="black" points="661.56,-176.5 651.56,-180 661.56,-183.5 661.56,-176.5"/>
</g>
<!-- ShareTokenService -->
<g id="node10" class="node">
<title>ShareTokenService</title>
<ellipse fill="#fdb462" stroke="black" cx="1130" cy="-104" rx="86.8" ry="18"/>
<text text-anchor="middle" x="1130" y="-99.8" font-family="Times,serif" font-size="14.00">ShareTokenService</text>
</g>
<!-- ShareTokenService&#45;&gt;SharingModule -->
<g id="edge9" class="edge">
<title>ShareTokenService&#45;&gt;SharingModule</title>
<path fill="none" stroke="black" d="M1130,-122.13C1130,-142.57 1130,-173 1130,-173 1130,-173 661.78,-173 661.78,-173"/>
<polygon fill="black" stroke="black" points="661.78,-169.5 651.78,-173 661.78,-176.5 661.78,-169.5"/>
</g>
<!-- TokenGenerator -->
<g id="node11" class="node">
<title>TokenGenerator</title>
<ellipse fill="#fdb462" stroke="black" cx="951" cy="-104" rx="74.12" ry="18"/>
<text text-anchor="middle" x="951" y="-99.8" font-family="Times,serif" font-size="14.00">TokenGenerator</text>
</g>
<!-- TokenGenerator&#45;&gt;SharingModule -->
<g id="edge10" class="edge">
<title>TokenGenerator&#45;&gt;SharingModule</title>
<path fill="none" stroke="black" d="M951,-122.27C951,-140.56 951,-166 951,-166 951,-166 661.79,-166 661.79,-166"/>
<polygon fill="black" stroke="black" points="661.79,-162.5 651.79,-166 661.79,-169.5 661.79,-162.5"/>
</g>
</g>
</svg>
