<?xml version="1.0" encoding="UTF-8" standalone="no"?>
<!DOCTYPE svg PUBLIC "-//W3C//DTD SVG 1.1//EN"
 "http://www.w3.org/Graphics/SVG/1.1/DTD/svg11.dtd">
<!-- Generated by graphviz version 2.47.0 (20210316.0004)
 -->
<!-- Title: dependencies Pages: 1 -->
<svg width="1423pt" height="284pt"
 viewBox="0.00 0.00 1423.00 284.00" xmlns="http://www.w3.org/2000/svg" xmlns:xlink="http://www.w3.org/1999/xlink">
<g id="graph0" class="graph" transform="scale(1 1) rotate(0) translate(4 280)">
<title>dependencies</title>
<polygon fill="white" stroke="transparent" points="-4,4 -4,-280 1419,-280 1419,4 -4,4"/>
<text text-anchor="start" x="686.51" y="-42.4" font-family="Times-12" font-weight="bold" font-size="14.00">Legend</text>
<polygon fill="#ffffb3" stroke="transparent" points="473.5,-10 473.5,-30 493.5,-30 493.5,-10 473.5,-10"/>
<text text-anchor="start" x="497.13" y="-15.4" font-family="Times-12" font-size="14.00"> &#160;Declarations</text>
<polygon fill="#8dd3c7" stroke="transparent" points="586.5,-10 586.5,-30 606.5,-30 606.5,-10 586.5,-10"/>
<text text-anchor="start" x="610.23" y="-15.4" font-family="Times-12" font-size="14.00"> &#160;Module</text>
<polygon fill="#80b1d3" stroke="transparent" points="672.5,-10 672.5,-30 692.5,-30 692.5,-10 672.5,-10"/>
<text text-anchor="start" x="696.28" y="-15.4" font-family="Times-12" font-size="14.00"> &#160;Bootstrap</text>
<polygon fill="#fdb462" stroke="transparent" points="769.5,-10 769.5,-30 789.5,-30 789.5,-10 769.5,-10"/>
<text text-anchor="start" x="793.17" y="-15.4" font-family="Times-12" font-size="14.00"> &#160;Providers</text>
<polygon fill="#fb8072" stroke="transparent" points="865.5,-10 865.5,-30 885.5,-30 885.5,-10 865.5,-10"/>
<text text-anchor="start" x="889.23" y="-15.4" font-family="Times-12" font-size="14.00"> &#160;Exports</text>
<g id="clust1" class="cluster">
<title>cluster_SharingModule</title>
<polygon fill="none" stroke="black" stroke-dasharray="1,5" points="8,-70 8,-268 1407,-268 1407,-70 8,-70"/>
</g>
<g id="clust3" class="cluster">
<title>cluster_SharingModule_imports</title>
<polygon fill="none" stroke="black" points="554,-78 554,-130 1399,-130 1399,-78 554,-78"/>
</g>
<g id="clust6" class="cluster">
<title>cluster_SharingModule_providers</title>
<polygon fill="none" stroke="black" points="16,-78 16,-130 546,-130 546,-78 16,-78"/>
</g>
<g id="clust4" class="cluster">
<title>cluster_SharingModule_exports</title>
<polygon fill="none" stroke="black" points="643,-208 643,-260 789,-260 789,-208 643,-208"/>
</g>
<!-- AuthorizationModule -->
<g id="node1" class="node">
<title>AuthorizationModule</title>
<polygon fill="#8dd3c7" stroke="black" points="1390.81,-122 1387.81,-126 1366.81,-126 1363.81,-122 1253.19,-122 1253.19,-86 1390.81,-86 1390.81,-122"/>
<text text-anchor="middle" x="1322" y="-99.8" font-family="Times,serif" font-size="14.00">AuthorizationModule</text>
</g>
<!-- SharingModule -->
<g id="node7" class="node">
<title>SharingModule</title>
<polygon fill="#8dd3c7" stroke="black" points="767.6,-187 764.6,-191 743.6,-191 740.6,-187 664.4,-187 664.4,-151 767.6,-151 767.6,-187"/>
<text text-anchor="middle" x="716" y="-164.8" font-family="Times,serif" font-size="14.00">SharingModule</text>
</g>
<!-- AuthorizationModule&#45;&gt;SharingModule -->
<g id="edge1" class="edge">
<title>AuthorizationModule&#45;&gt;SharingModule</title>
<path fill="none" stroke="black" d="M1322,-122.01C1322,-144.49 1322,-180 1322,-180 1322,-180 777.67,-180 777.67,-180"/>
<polygon fill="black" stroke="black" points="777.67,-176.5 767.67,-180 777.67,-183.5 777.67,-176.5"/>
</g>
<!-- AuthorizationReferenceModule -->
<g id="node2" class="node">
<title>AuthorizationReferenceModule</title>
<polygon fill="#8dd3c7" stroke="black" points="1235.04,-122 1232.04,-126 1211.04,-126 1208.04,-122 1040.96,-122 1040.96,-86 1235.04,-86 1235.04,-122"/>
<text text-anchor="middle" x="1138" y="-99.8" font-family="Times,serif" font-size="14.00">AuthorizationReferenceModule</text>
</g>
<!-- AuthorizationReferenceModule&#45;&gt;SharingModule -->
<g id="edge2" class="edge">
<title>AuthorizationReferenceModule&#45;&gt;SharingModule</title>
<path fill="none" stroke="black" d="M1138,-122.13C1138,-142.57 1138,-173 1138,-173 1138,-173 777.75,-173 777.75,-173"/>
<polygon fill="black" stroke="black" points="777.75,-169.5 767.75,-173 777.75,-176.5 777.75,-169.5"/>
</g>
<!-- LearnroomModule -->
<g id="node3" class="node">
<title>LearnroomModule</title>
<polygon fill="#8dd3c7" stroke="black" points="1022.74,-122 1019.74,-126 998.74,-126 995.74,-122 901.26,-122 901.26,-86 1022.74,-86 1022.74,-122"/>
<text text-anchor="middle" x="962" y="-99.8" font-family="Times,serif" font-size="14.00">LearnroomModule</text>
</g>
<!-- LearnroomModule&#45;&gt;SharingModule -->
<g id="edge3" class="edge">
<title>LearnroomModule&#45;&gt;SharingModule</title>
<path fill="none" stroke="black" d="M962,-122.27C962,-140.56 962,-166 962,-166 962,-166 777.57,-166 777.57,-166"/>
<polygon fill="black" stroke="black" points="777.57,-162.5 767.57,-166 777.57,-169.5 777.57,-162.5"/>
</g>
<!-- LessonModule -->
<g id="node4" class="node">
<title>LessonModule</title>
<polygon fill="#8dd3c7" stroke="black" points="883.71,-122 880.71,-126 859.71,-126 856.71,-122 784.29,-122 784.29,-86 883.71,-86 883.71,-122"/>
<text text-anchor="middle" x="834" y="-99.8" font-family="Times,serif" font-size="14.00">LessonModule</text>
</g>
<!-- LessonModule&#45;&gt;SharingModule -->
<g id="edge4" class="edge">
<title>LessonModule&#45;&gt;SharingModule</title>
<path fill="none" stroke="black" d="M834,-122.01C834,-138.05 834,-159 834,-159 834,-159 777.76,-159 777.76,-159"/>
<polygon fill="black" stroke="black" points="777.76,-155.5 767.76,-159 777.76,-162.5 777.76,-155.5"/>
</g>
<!-- LoggerModule -->
<g id="node5" class="node">
<title>LoggerModule</title>
<polygon fill="#8dd3c7" stroke="black" points="765.98,-122 762.98,-126 741.98,-126 738.98,-122 666.02,-122 666.02,-86 765.98,-86 765.98,-122"/>
<text text-anchor="middle" x="716" y="-99.8" font-family="Times,serif" font-size="14.00">LoggerModule</text>
</g>
<!-- LoggerModule&#45;&gt;SharingModule -->
<g id="edge5" class="edge">
<title>LoggerModule&#45;&gt;SharingModule</title>
<path fill="none" stroke="black" d="M716,-122.11C716,-122.11 716,-140.99 716,-140.99"/>
<polygon fill="black" stroke="black" points="712.5,-140.99 716,-150.99 719.5,-140.99 712.5,-140.99"/>
</g>
<!-- TaskModule -->
<g id="node6" class="node">
<title>TaskModule</title>
<polygon fill="#8dd3c7" stroke="black" points="648.26,-122 645.26,-126 624.26,-126 621.26,-122 561.74,-122 561.74,-86 648.26,-86 648.26,-122"/>
<text text-anchor="middle" x="605" y="-99.8" font-family="Times,serif" font-size="14.00">TaskModule</text>
</g>
<!-- TaskModule&#45;&gt;SharingModule -->
<g id="edge6" class="edge">
<title>TaskModule&#45;&gt;SharingModule</title>
<path fill="none" stroke="black" d="M605,-122.01C605,-138.05 605,-159 605,-159 605,-159 654.4,-159 654.4,-159"/>
<polygon fill="black" stroke="black" points="654.4,-162.5 664.4,-159 654.4,-155.5 654.4,-162.5"/>
</g>
<!-- ShareTokenService  -->
<g id="node8" class="node">
<title>ShareTokenService </title>
<polygon fill="#fb8072" stroke="black" points="780.62,-252 651.38,-252 651.38,-216 780.62,-216 780.62,-252"/>
<text text-anchor="middle" x="716" y="-229.8" font-family="Times,serif" font-size="14.00">ShareTokenService </text>
</g>
<!-- SharingModule&#45;&gt;ShareTokenService  -->
<g id="edge7" class="edge">
<title>SharingModule&#45;&gt;ShareTokenService </title>
<path fill="none" stroke="black" stroke-dasharray="5,2" d="M716,-187.11C716,-187.11 716,-205.99 716,-205.99"/>
<polygon fill="black" stroke="black" points="712.5,-205.99 716,-215.99 719.5,-205.99 712.5,-205.99"/>
</g>
<!-- ShareTokenRepo -->
<g id="node9" class="node">
<title>ShareTokenRepo</title>
<ellipse fill="#fdb462" stroke="black" cx="460" cy="-104" rx="78.15" ry="18"/>
<text text-anchor="middle" x="460" y="-99.8" font-family="Times,serif" font-size="14.00">ShareTokenRepo</text>
</g>
<!-- ShareTokenRepo&#45;&gt;SharingModule -->
<g id="edge8" class="edge">
<title>ShareTokenRepo&#45;&gt;SharingModule</title>
<path fill="none" stroke="black" d="M460,-122.27C460,-140.56 460,-166 460,-166 460,-166 654.19,-166 654.19,-166"/>
<polygon fill="black" stroke="black" points="654.19,-169.5 664.19,-166 654.19,-162.5 654.19,-169.5"/>
</g>
<!-- ShareTokenService -->
<g id="node10" class="node">
<title>ShareTokenService</title>
<ellipse fill="#fdb462" stroke="black" cx="277" cy="-104" rx="86.8" ry="18"/>
<text text-anchor="middle" x="277" y="-99.8" font-family="Times,serif" font-size="14.00">ShareTokenService</text>
</g>
<!-- ShareTokenService&#45;&gt;SharingModule -->
<g id="edge9" class="edge">
<title>ShareTokenService&#45;&gt;SharingModule</title>
<path fill="none" stroke="black" d="M277,-122.13C277,-142.57 277,-173 277,-173 277,-173 654.35,-173 654.35,-173"/>
<polygon fill="black" stroke="black" points="654.35,-176.5 664.35,-173 654.35,-169.5 654.35,-176.5"/>
</g>
<!-- TokenGenerator -->
<g id="node11" class="node">
<title>TokenGenerator</title>
<ellipse fill="#fdb462" stroke="black" cx="98" cy="-104" rx="74.12" ry="18"/>
<text text-anchor="middle" x="98" y="-99.8" font-family="Times,serif" font-size="14.00">TokenGenerator</text>
</g>
<!-- TokenGenerator&#45;&gt;SharingModule -->
<g id="edge10" class="edge">
<title>TokenGenerator&#45;&gt;SharingModule</title>
<path fill="none" stroke="black" d="M98,-122.01C98,-144.49 98,-180 98,-180 98,-180 654.37,-180 654.37,-180"/>
<polygon fill="black" stroke="black" points="654.37,-183.5 664.37,-180 654.37,-176.5 654.37,-183.5"/>
</g>
</g>
</svg>
