<?xml version="1.0" encoding="UTF-8" standalone="no"?>
<!DOCTYPE svg PUBLIC "-//W3C//DTD SVG 1.1//EN"
 "http://www.w3.org/Graphics/SVG/1.1/DTD/svg11.dtd">
<!-- Generated by graphviz version 2.47.0 (20210316.0004)
 -->
<!-- Title: dependencies Pages: 1 -->
<svg width="504pt" height="211pt"
 viewBox="0.00 0.00 504.00 211.00" xmlns="http://www.w3.org/2000/svg" xmlns:xlink="http://www.w3.org/1999/xlink">
<g id="graph0" class="graph" transform="scale(1 1) rotate(0) translate(4 207)">
<title>dependencies</title>
<polygon fill="white" stroke="transparent" points="-4,4 -4,-207 500,-207 500,4 -4,4"/>
<text text-anchor="start" x="227.01" y="-42.4" font-family="Times-12" font-weight="bold" font-size="14.00">Legend</text>
<polygon fill="#ffffb3" stroke="transparent" points="14,-10 14,-30 34,-30 34,-10 14,-10"/>
<text text-anchor="start" x="37.63" y="-15.4" font-family="Times-12" font-size="14.00"> &#160;Declarations</text>
<polygon fill="#8dd3c7" stroke="transparent" points="127,-10 127,-30 147,-30 147,-10 127,-10"/>
<text text-anchor="start" x="150.73" y="-15.4" font-family="Times-12" font-size="14.00"> &#160;Module</text>
<polygon fill="#80b1d3" stroke="transparent" points="213,-10 213,-30 233,-30 233,-10 213,-10"/>
<text text-anchor="start" x="236.78" y="-15.4" font-family="Times-12" font-size="14.00"> &#160;Bootstrap</text>
<polygon fill="#fdb462" stroke="transparent" points="310,-10 310,-30 330,-30 330,-10 310,-10"/>
<text text-anchor="start" x="333.67" y="-15.4" font-family="Times-12" font-size="14.00"> &#160;Providers</text>
<polygon fill="#fb8072" stroke="transparent" points="406,-10 406,-30 426,-30 426,-10 406,-10"/>
<text text-anchor="start" x="429.73" y="-15.4" font-family="Times-12" font-size="14.00"> &#160;Exports</text>
<g id="clust1" class="cluster">
<title>cluster_PreviewGeneratorAMQPModule</title>
<polygon fill="none" stroke="black" stroke-dasharray="1,5" points="70.5,-70 70.5,-195 425.5,-195 425.5,-70 70.5,-70"/>
</g>
<g id="clust3" class="cluster">
<title>cluster_PreviewGeneratorAMQPModule_imports</title>
<polygon fill="none" stroke="black" points="78.5,-78 78.5,-130 417.5,-130 417.5,-78 78.5,-78"/>
</g>
<!-- CoreModule -->
<g id="node1" class="node">
<title>CoreModule</title>
<polygon fill="#8dd3c7" stroke="black" points="409.76,-122 406.76,-126 385.76,-126 382.76,-122 323.24,-122 323.24,-86 409.76,-86 409.76,-122"/>
<text text-anchor="middle" x="366.5" y="-99.8" font-family="Times,serif" font-size="14.00">CoreModule</text>
</g>
<!-- PreviewGeneratorAMQPModule -->
<g id="node3" class="node">
<title>PreviewGeneratorAMQPModule</title>
<polygon fill="#8dd3c7" stroke="black" points="356.32,-187 353.32,-191 332.32,-191 329.32,-187 154.68,-187 154.68,-151 356.32,-151 356.32,-187"/>
<text text-anchor="middle" x="255.5" y="-164.8" font-family="Times,serif" font-size="14.00">PreviewGeneratorAMQPModule</text>
</g>
<!-- CoreModule&#45;&gt;PreviewGeneratorAMQPModule -->
<g id="edge1" class="edge">
<title>CoreModule&#45;&gt;PreviewGeneratorAMQPModule</title>
<path fill="none" stroke="black" d="M339.77,-122.11C339.77,-122.11 339.77,-140.99 339.77,-140.99"/>
<polygon fill="black" stroke="black" points="336.27,-140.99 339.77,-150.99 343.27,-140.99 336.27,-140.99"/>
</g>
<!-- PreviewGeneratorConsumerModule -->
<g id="node2" class="node">
<title>PreviewGeneratorConsumerModule</title>
<polygon fill="#8dd3c7" stroke="black" points="304.93,-122 301.93,-126 280.93,-126 277.93,-122 86.07,-122 86.07,-86 304.93,-86 304.93,-122"/>
<text text-anchor="middle" x="195.5" y="-99.8" font-family="Times,serif" font-size="14.00">PreviewGeneratorConsumerModule</text>
</g>
<!-- PreviewGeneratorConsumerModule&#45;&gt;PreviewGeneratorAMQPModule -->
<g id="edge2" class="edge">
<title>PreviewGeneratorConsumerModule&#45;&gt;PreviewGeneratorAMQPModule</title>
<path fill="none" stroke="black" d="M229.78,-122.11C229.78,-122.11 229.78,-140.99 229.78,-140.99"/>
<polygon fill="black" stroke="black" points="226.28,-140.99 229.78,-150.99 233.28,-140.99 226.28,-140.99"/>
</g>
</g>
</svg>
