<?xml version="1.0" encoding="UTF-8" standalone="no"?>
<!DOCTYPE svg PUBLIC "-//W3C//DTD SVG 1.1//EN"
 "http://www.w3.org/Graphics/SVG/1.1/DTD/svg11.dtd">
<!-- Generated by graphviz version 2.47.0 (20210316.0004)
 -->
<!-- Title: dependencies Pages: 1 -->
<svg width="504pt" height="211pt"
 viewBox="0.00 0.00 504.00 211.00" xmlns="http://www.w3.org/2000/svg" xmlns:xlink="http://www.w3.org/1999/xlink">
<g id="graph0" class="graph" transform="scale(1 1) rotate(0) translate(4 207)">
<title>dependencies</title>
<polygon fill="white" stroke="transparent" points="-4,4 -4,-207 500,-207 500,4 -4,4"/>
<text text-anchor="start" x="227.01" y="-42.4" font-family="Times-12" font-weight="bold" font-size="14.00">Legend</text>
<polygon fill="#ffffb3" stroke="transparent" points="14,-10 14,-30 34,-30 34,-10 14,-10"/>
<text text-anchor="start" x="37.63" y="-15.4" font-family="Times-12" font-size="14.00"> &#160;Declarations</text>
<polygon fill="#8dd3c7" stroke="transparent" points="127,-10 127,-30 147,-30 147,-10 127,-10"/>
<text text-anchor="start" x="150.73" y="-15.4" font-family="Times-12" font-size="14.00"> &#160;Module</text>
<polygon fill="#80b1d3" stroke="transparent" points="213,-10 213,-30 233,-30 233,-10 213,-10"/>
<text text-anchor="start" x="236.78" y="-15.4" font-family="Times-12" font-size="14.00"> &#160;Bootstrap</text>
<polygon fill="#fdb462" stroke="transparent" points="310,-10 310,-30 330,-30 330,-10 310,-10"/>
<text text-anchor="start" x="333.67" y="-15.4" font-family="Times-12" font-size="14.00"> &#160;Providers</text>
<polygon fill="#fb8072" stroke="transparent" points="406,-10 406,-30 426,-30 426,-10 406,-10"/>
<text text-anchor="start" x="429.73" y="-15.4" font-family="Times-12" font-size="14.00"> &#160;Exports</text>
<g id="clust1" class="cluster">
<title>cluster_PreviewGeneratorAMQPModule</title>
<polygon fill="none" stroke="black" stroke-dasharray="1,5" points="123,-70 123,-195 373,-195 373,-70 123,-70"/>
</g>
<g id="clust3" class="cluster">
<title>cluster_PreviewGeneratorAMQPModule_imports</title>
<polygon fill="none" stroke="black" points="131,-78 131,-130 365,-130 365,-78 131,-78"/>
</g>
<!-- PreviewGeneratorConsumerModule -->
<g id="node1" class="node">
<title>PreviewGeneratorConsumerModule</title>
<polygon fill="#8dd3c7" stroke="black" points="357.43,-122 354.43,-126 333.43,-126 330.43,-122 138.57,-122 138.57,-86 357.43,-86 357.43,-122"/>
<text text-anchor="middle" x="248" y="-99.8" font-family="Times,serif" font-size="14.00">PreviewGeneratorConsumerModule</text>
</g>
<!-- PreviewGeneratorAMQPModule -->
<g id="node2" class="node">
<title>PreviewGeneratorAMQPModule</title>
<polygon fill="#8dd3c7" stroke="black" points="348.82,-187 345.82,-191 324.82,-191 321.82,-187 147.18,-187 147.18,-151 348.82,-151 348.82,-187"/>
<text text-anchor="middle" x="248" y="-164.8" font-family="Times,serif" font-size="14.00">PreviewGeneratorAMQPModule</text>
</g>
<!-- PreviewGeneratorConsumerModule&#45;&gt;PreviewGeneratorAMQPModule -->
<g id="edge1" class="edge">
<title>PreviewGeneratorConsumerModule&#45;&gt;PreviewGeneratorAMQPModule</title>
<path fill="none" stroke="black" d="M248,-122.11C248,-122.11 248,-140.99 248,-140.99"/>
<polygon fill="black" stroke="black" points="244.5,-140.99 248,-150.99 251.5,-140.99 244.5,-140.99"/>
</g>
</g>
</svg>
