<?xml version="1.0" encoding="UTF-8" standalone="no"?>
<!DOCTYPE svg PUBLIC "-//W3C//DTD SVG 1.1//EN"
 "http://www.w3.org/Graphics/SVG/1.1/DTD/svg11.dtd">
<!-- Generated by graphviz version 2.47.0 (20210316.0004)
 -->
<!-- Title: dependencies Pages: 1 -->
<svg width="504pt" height="284pt"
 viewBox="0.00 0.00 504.00 284.00" xmlns="http://www.w3.org/2000/svg" xmlns:xlink="http://www.w3.org/1999/xlink">
<g id="graph0" class="graph" transform="scale(1 1) rotate(0) translate(4 280)">
<title>dependencies</title>
<polygon fill="white" stroke="transparent" points="-4,4 -4,-280 500,-280 500,4 -4,4"/>
<text text-anchor="start" x="227.01" y="-42.4" font-family="Times-12" font-weight="bold" font-size="14.00">Legend</text>
<polygon fill="#ffffb3" stroke="transparent" points="14,-10 14,-30 34,-30 34,-10 14,-10"/>
<text text-anchor="start" x="37.63" y="-15.4" font-family="Times-12" font-size="14.00"> &#160;Declarations</text>
<polygon fill="#8dd3c7" stroke="transparent" points="127,-10 127,-30 147,-30 147,-10 127,-10"/>
<text text-anchor="start" x="150.73" y="-15.4" font-family="Times-12" font-size="14.00"> &#160;Module</text>
<polygon fill="#80b1d3" stroke="transparent" points="213,-10 213,-30 233,-30 233,-10 213,-10"/>
<text text-anchor="start" x="236.78" y="-15.4" font-family="Times-12" font-size="14.00"> &#160;Bootstrap</text>
<polygon fill="#fdb462" stroke="transparent" points="310,-10 310,-30 330,-30 330,-10 310,-10"/>
<text text-anchor="start" x="333.67" y="-15.4" font-family="Times-12" font-size="14.00"> &#160;Providers</text>
<polygon fill="#fb8072" stroke="transparent" points="406,-10 406,-30 426,-30 426,-10 406,-10"/>
<text text-anchor="start" x="429.73" y="-15.4" font-family="Times-12" font-size="14.00"> &#160;Exports</text>
<g id="clust1" class="cluster">
<title>cluster_InstanceModule</title>
<polygon fill="none" stroke="black" stroke-dasharray="1,5" points="87,-70 87,-268 409,-268 409,-70 87,-70"/>
</g>
<g id="clust4" class="cluster">
<title>cluster_InstanceModule_exports</title>
<polygon fill="none" stroke="black" points="190,-208 190,-260 314,-260 314,-208 190,-208"/>
</g>
<g id="clust6" class="cluster">
<title>cluster_InstanceModule_providers</title>
<polygon fill="none" stroke="black" points="95,-78 95,-130 401,-130 401,-78 95,-78"/>
</g>
<!-- InstanceService  -->
<g id="node1" class="node">
<title>InstanceService </title>
<polygon fill="#fb8072" stroke="black" points="306.12,-252 197.88,-252 197.88,-216 306.12,-216 306.12,-252"/>
<text text-anchor="middle" x="252" y="-229.8" font-family="Times,serif" font-size="14.00">InstanceService </text>
</g>
<!-- InstanceModule -->
<g id="node2" class="node">
<title>InstanceModule</title>
<polygon fill="#8dd3c7" stroke="black" points="305.19,-187 302.19,-191 281.19,-191 278.19,-187 198.81,-187 198.81,-151 305.19,-151 305.19,-187"/>
<text text-anchor="middle" x="252" y="-164.8" font-family="Times,serif" font-size="14.00">InstanceModule</text>
</g>
<!-- InstanceModule&#45;&gt;InstanceService  -->
<g id="edge1" class="edge">
<title>InstanceModule&#45;&gt;InstanceService </title>
<path fill="none" stroke="black" stroke-dasharray="5,2" d="M252,-187.11C252,-187.11 252,-205.99 252,-205.99"/>
<polygon fill="black" stroke="black" points="248.5,-205.99 252,-215.99 255.5,-205.99 248.5,-205.99"/>
</g>
<!-- InstanceRepo -->
<g id="node3" class="node">
<title>InstanceRepo</title>
<ellipse fill="#fdb462" stroke="black" cx="329" cy="-104" rx="63.68" ry="18"/>
<text text-anchor="middle" x="329" y="-99.8" font-family="Times,serif" font-size="14.00">InstanceRepo</text>
</g>
<!-- InstanceRepo&#45;&gt;InstanceModule -->
<g id="edge2" class="edge">
<title>InstanceRepo&#45;&gt;InstanceModule</title>
<path fill="none" stroke="black" d="M285.25,-117.15C285.25,-117.15 285.25,-140.69 285.25,-140.69"/>
<polygon fill="black" stroke="black" points="281.75,-140.69 285.25,-150.69 288.75,-140.69 281.75,-140.69"/>
</g>
<!-- InstanceService -->
<g id="node4" class="node">
<title>InstanceService</title>
<ellipse fill="#fdb462" stroke="black" cx="175" cy="-104" rx="72.33" ry="18"/>
<text text-anchor="middle" x="175" y="-99.8" font-family="Times,serif" font-size="14.00">InstanceService</text>
</g>
<!-- InstanceService&#45;&gt;InstanceModule -->
<g id="edge3" class="edge">
<title>InstanceService&#45;&gt;InstanceModule</title>
<path fill="none" stroke="black" d="M223.03,-117.47C223.03,-117.47 223.03,-140.86 223.03,-140.86"/>
<polygon fill="black" stroke="black" points="219.53,-140.86 223.03,-150.86 226.53,-140.86 219.53,-140.86"/>
</g>
</g>
</svg>
