<?xml version="1.0" encoding="UTF-8" standalone="no"?>
<!DOCTYPE svg PUBLIC "-//W3C//DTD SVG 1.1//EN"
 "http://www.w3.org/Graphics/SVG/1.1/DTD/svg11.dtd">
<!-- Generated by graphviz version 2.47.0 (20210316.0004)
 -->
<!-- Title: dependencies Pages: 1 -->
<svg width="1403pt" height="211pt"
 viewBox="0.00 0.00 1403.00 211.00" xmlns="http://www.w3.org/2000/svg" xmlns:xlink="http://www.w3.org/1999/xlink">
<g id="graph0" class="graph" transform="scale(1 1) rotate(0) translate(4 207)">
<title>dependencies</title>
<polygon fill="white" stroke="transparent" points="-4,4 -4,-207 1399,-207 1399,4 -4,4"/>
<text text-anchor="start" x="676.51" y="-42.4" font-family="Times-12" font-weight="bold" font-size="14.00">Legend</text>
<polygon fill="#ffffb3" stroke="transparent" points="463.5,-10 463.5,-30 483.5,-30 483.5,-10 463.5,-10"/>
<text text-anchor="start" x="487.13" y="-15.4" font-family="Times-12" font-size="14.00"> &#160;Declarations</text>
<polygon fill="#8dd3c7" stroke="transparent" points="576.5,-10 576.5,-30 596.5,-30 596.5,-10 576.5,-10"/>
<text text-anchor="start" x="600.23" y="-15.4" font-family="Times-12" font-size="14.00"> &#160;Module</text>
<polygon fill="#80b1d3" stroke="transparent" points="662.5,-10 662.5,-30 682.5,-30 682.5,-10 662.5,-10"/>
<text text-anchor="start" x="686.28" y="-15.4" font-family="Times-12" font-size="14.00"> &#160;Bootstrap</text>
<polygon fill="#fdb462" stroke="transparent" points="759.5,-10 759.5,-30 779.5,-30 779.5,-10 759.5,-10"/>
<text text-anchor="start" x="783.17" y="-15.4" font-family="Times-12" font-size="14.00"> &#160;Providers</text>
<polygon fill="#fb8072" stroke="transparent" points="855.5,-10 855.5,-30 875.5,-30 875.5,-10 855.5,-10"/>
<text text-anchor="start" x="879.23" y="-15.4" font-family="Times-12" font-size="14.00"> &#160;Exports</text>
<g id="clust1" class="cluster">
<title>cluster_BoardWsApiModule</title>
<polygon fill="none" stroke="black" stroke-dasharray="1,5" points="8,-70 8,-195 1387,-195 1387,-70 8,-70"/>
</g>
<g id="clust6" class="cluster">
<title>cluster_BoardWsApiModule_providers</title>
<polygon fill="none" stroke="black" points="356,-78 356,-130 1379,-130 1379,-78 356,-78"/>
</g>
<g id="clust3" class="cluster">
<title>cluster_BoardWsApiModule_imports</title>
<polygon fill="none" stroke="black" points="16,-78 16,-130 348,-130 348,-78 16,-78"/>
</g>
<!-- BoardModule -->
<g id="node1" class="node">
<title>BoardModule</title>
<polygon fill="#8dd3c7" stroke="black" points="339.76,-122 336.76,-126 315.76,-126 312.76,-122 246.24,-122 246.24,-86 339.76,-86 339.76,-122"/>
<text text-anchor="middle" x="293" y="-99.8" font-family="Times,serif" font-size="14.00">BoardModule</text>
</g>
<!-- BoardWsApiModule -->
<g id="node4" class="node">
<title>BoardWsApiModule</title>
<polygon fill="#8dd3c7" stroke="black" points="706.92,-187 703.92,-191 682.92,-191 679.92,-187 573.08,-187 573.08,-151 706.92,-151 706.92,-187"/>
<text text-anchor="middle" x="640" y="-164.8" font-family="Times,serif" font-size="14.00">BoardWsApiModule</text>
</g>
<!-- BoardModule&#45;&gt;BoardWsApiModule -->
<g id="edge1" class="edge">
<title>BoardModule&#45;&gt;BoardWsApiModule</title>
<path fill="none" stroke="black" d="M293,-122.27C293,-140.56 293,-166 293,-166 293,-166 563.09,-166 563.09,-166"/>
<polygon fill="black" stroke="black" points="563.09,-169.5 573.09,-166 563.09,-162.5 563.09,-169.5"/>
</g>
<!-- LoggerModule -->
<g id="node2" class="node">
<title>LoggerModule</title>
<polygon fill="#8dd3c7" stroke="black" points="227.98,-122 224.98,-126 203.98,-126 200.98,-122 128.02,-122 128.02,-86 227.98,-86 227.98,-122"/>
<text text-anchor="middle" x="178" y="-99.8" font-family="Times,serif" font-size="14.00">LoggerModule</text>
</g>
<!-- LoggerModule&#45;&gt;BoardWsApiModule -->
<g id="edge2" class="edge">
<title>LoggerModule&#45;&gt;BoardWsApiModule</title>
<path fill="none" stroke="black" d="M178,-122.13C178,-142.57 178,-173 178,-173 178,-173 562.82,-173 562.82,-173"/>
<polygon fill="black" stroke="black" points="562.82,-176.5 572.82,-173 562.82,-169.5 562.82,-176.5"/>
</g>
<!-- UserModule -->
<g id="node3" class="node">
<title>UserModule</title>
<polygon fill="#8dd3c7" stroke="black" points="109.98,-122 106.98,-126 85.98,-126 82.98,-122 24.02,-122 24.02,-86 109.98,-86 109.98,-122"/>
<text text-anchor="middle" x="67" y="-99.8" font-family="Times,serif" font-size="14.00">UserModule</text>
</g>
<!-- UserModule&#45;&gt;BoardWsApiModule -->
<g id="edge3" class="edge">
<title>UserModule&#45;&gt;BoardWsApiModule</title>
<path fill="none" stroke="black" d="M67,-122.01C67,-144.49 67,-180 67,-180 67,-180 563.15,-180 563.15,-180"/>
<polygon fill="black" stroke="black" points="563.15,-183.5 573.15,-180 563.15,-176.5 563.15,-183.5"/>
</g>
<!-- BoardNodePermissionService -->
<g id="node5" class="node">
<title>BoardNodePermissionService</title>
<ellipse fill="#fdb462" stroke="black" cx="1244" cy="-104" rx="127.35" ry="18"/>
<text text-anchor="middle" x="1244" y="-99.8" font-family="Times,serif" font-size="14.00">BoardNodePermissionService</text>
</g>
<!-- BoardNodePermissionService&#45;&gt;BoardWsApiModule -->
<g id="edge4" class="edge">
<title>BoardNodePermissionService&#45;&gt;BoardWsApiModule</title>
<path fill="none" stroke="black" d="M1244,-122.01C1244,-144.49 1244,-180 1244,-180 1244,-180 716.95,-180 716.95,-180"/>
<polygon fill="black" stroke="black" points="716.95,-176.5 706.95,-180 716.95,-183.5 716.95,-176.5"/>
</g>
<!-- BoardUc -->
<g id="node6" class="node">
<title>BoardUc</title>
<ellipse fill="#fdb462" stroke="black" cx="1053" cy="-104" rx="45.79" ry="18"/>
<text text-anchor="middle" x="1053" y="-99.8" font-family="Times,serif" font-size="14.00">BoardUc</text>
</g>
<!-- BoardUc&#45;&gt;BoardWsApiModule -->
<g id="edge5" class="edge">
<title>BoardUc&#45;&gt;BoardWsApiModule</title>
<path fill="none" stroke="black" d="M1053,-122.13C1053,-142.57 1053,-173 1053,-173 1053,-173 716.81,-173 716.81,-173"/>
<polygon fill="black" stroke="black" points="716.81,-169.5 706.81,-173 716.81,-176.5 716.81,-169.5"/>
</g>
<!-- CardUc -->
<g id="node7" class="node">
<title>CardUc</title>
<ellipse fill="#fdb462" stroke="black" cx="948" cy="-104" rx="41.13" ry="18"/>
<text text-anchor="middle" x="948" y="-99.8" font-family="Times,serif" font-size="14.00">CardUc</text>
</g>
<!-- CardUc&#45;&gt;BoardWsApiModule -->
<g id="edge6" class="edge">
<title>CardUc&#45;&gt;BoardWsApiModule</title>
<path fill="none" stroke="black" d="M948,-122.27C948,-140.56 948,-166 948,-166 948,-166 716.83,-166 716.83,-166"/>
<polygon fill="black" stroke="black" points="716.83,-162.5 706.83,-166 716.83,-169.5 716.83,-162.5"/>
</g>
<!-- ColumnUc -->
<g id="node8" class="node">
<title>ColumnUc</title>
<ellipse fill="#fdb462" stroke="black" cx="836" cy="-104" rx="53.33" ry="18"/>
<text text-anchor="middle" x="836" y="-99.8" font-family="Times,serif" font-size="14.00">ColumnUc</text>
</g>
<!-- ColumnUc&#45;&gt;BoardWsApiModule -->
<g id="edge7" class="edge">
<title>ColumnUc&#45;&gt;BoardWsApiModule</title>
<path fill="none" stroke="black" d="M836,-122.01C836,-138.05 836,-159 836,-159 836,-159 716.9,-159 716.9,-159"/>
<polygon fill="black" stroke="black" points="716.9,-155.5 706.9,-159 716.9,-162.5 716.9,-155.5"/>
</g>
<!-- CourseRepo -->
<g id="node9" class="node">
<title>CourseRepo</title>
<ellipse fill="#fdb462" stroke="black" cx="706" cy="-104" rx="58.55" ry="18"/>
<text text-anchor="middle" x="706" y="-99.8" font-family="Times,serif" font-size="14.00">CourseRepo</text>
</g>
<!-- CourseRepo&#45;&gt;BoardWsApiModule -->
<g id="edge8" class="edge">
<title>CourseRepo&#45;&gt;BoardWsApiModule</title>
<path fill="none" stroke="black" d="M676.97,-119.73C676.97,-119.73 676.97,-140.65 676.97,-140.65"/>
<polygon fill="black" stroke="black" points="673.47,-140.65 676.97,-150.65 680.47,-140.65 673.47,-140.65"/>
</g>
<!-- ElementUc -->
<g id="node10" class="node">
<title>ElementUc</title>
<ellipse fill="#fdb462" stroke="black" cx="575" cy="-104" rx="54.45" ry="18"/>
<text text-anchor="middle" x="575" y="-99.8" font-family="Times,serif" font-size="14.00">ElementUc</text>
</g>
<!-- ElementUc&#45;&gt;BoardWsApiModule -->
<g id="edge9" class="edge">
<title>ElementUc&#45;&gt;BoardWsApiModule</title>
<path fill="none" stroke="black" d="M601.38,-120.07C601.38,-120.07 601.38,-140.82 601.38,-140.82"/>
<polygon fill="black" stroke="black" points="597.88,-140.82 601.38,-150.82 604.88,-140.82 597.88,-140.82"/>
</g>
<!-- MetricsService -->
<g id="node11" class="node">
<title>MetricsService</title>
<ellipse fill="#fdb462" stroke="black" cx="433" cy="-104" rx="69.47" ry="18"/>
<text text-anchor="middle" x="433" y="-99.8" font-family="Times,serif" font-size="14.00">MetricsService</text>
</g>
<!-- MetricsService&#45;&gt;BoardWsApiModule -->
<g id="edge10" class="edge">
<title>MetricsService&#45;&gt;BoardWsApiModule</title>
<path fill="none" stroke="black" d="M433,-122.01C433,-138.05 433,-159 433,-159 433,-159 563.08,-159 563.08,-159"/>
<polygon fill="black" stroke="black" points="563.08,-162.5 573.08,-159 563.08,-155.5 563.08,-162.5"/>
</g>
</g>
</svg>
