<?xml version="1.0" encoding="UTF-8" standalone="no"?>
<!DOCTYPE svg PUBLIC "-//W3C//DTD SVG 1.1//EN"
 "http://www.w3.org/Graphics/SVG/1.1/DTD/svg11.dtd">
<!-- Generated by graphviz version 2.47.0 (20210316.0004)
 -->
<!-- Title: dependencies Pages: 1 -->
<svg width="870pt" height="211pt"
 viewBox="0.00 0.00 870.00 211.00" xmlns="http://www.w3.org/2000/svg" xmlns:xlink="http://www.w3.org/1999/xlink">
<g id="graph0" class="graph" transform="scale(1 1) rotate(0) translate(4 207)">
<title>dependencies</title>
<polygon fill="white" stroke="transparent" points="-4,4 -4,-207 866,-207 866,4 -4,4"/>
<text text-anchor="start" x="410.01" y="-42.4" font-family="Times-12" font-weight="bold" font-size="14.00">Legend</text>
<polygon fill="#ffffb3" stroke="transparent" points="197,-10 197,-30 217,-30 217,-10 197,-10"/>
<text text-anchor="start" x="220.63" y="-15.4" font-family="Times-12" font-size="14.00"> &#160;Declarations</text>
<polygon fill="#8dd3c7" stroke="transparent" points="310,-10 310,-30 330,-30 330,-10 310,-10"/>
<text text-anchor="start" x="333.73" y="-15.4" font-family="Times-12" font-size="14.00"> &#160;Module</text>
<polygon fill="#80b1d3" stroke="transparent" points="396,-10 396,-30 416,-30 416,-10 396,-10"/>
<text text-anchor="start" x="419.78" y="-15.4" font-family="Times-12" font-size="14.00"> &#160;Bootstrap</text>
<polygon fill="#fdb462" stroke="transparent" points="493,-10 493,-30 513,-30 513,-10 493,-10"/>
<text text-anchor="start" x="516.67" y="-15.4" font-family="Times-12" font-size="14.00"> &#160;Providers</text>
<polygon fill="#fb8072" stroke="transparent" points="589,-10 589,-30 609,-30 609,-10 589,-10"/>
<text text-anchor="start" x="612.73" y="-15.4" font-family="Times-12" font-size="14.00"> &#160;Exports</text>
<g id="clust1" class="cluster">
<title>cluster_BoardWsApiModule</title>
<polygon fill="none" stroke="black" stroke-dasharray="1,5" points="8,-70 8,-195 854,-195 854,-70 8,-70"/>
</g>
<g id="clust3" class="cluster">
<title>cluster_BoardWsApiModule_imports</title>
<polygon fill="none" stroke="black" points="618,-78 618,-130 846,-130 846,-78 618,-78"/>
</g>
<g id="clust6" class="cluster">
<title>cluster_BoardWsApiModule_providers</title>
<polygon fill="none" stroke="black" points="16,-78 16,-130 610,-130 610,-78 16,-78"/>
</g>
<!-- BoardModule -->
<g id="node1" class="node">
<title>BoardModule</title>
<polygon fill="#8dd3c7" stroke="black" points="837.76,-122 834.76,-126 813.76,-126 810.76,-122 744.24,-122 744.24,-86 837.76,-86 837.76,-122"/>
<text text-anchor="middle" x="791" y="-99.8" font-family="Times,serif" font-size="14.00">BoardModule</text>
</g>
<!-- BoardWsApiModule -->
<g id="node3" class="node">
<title>BoardWsApiModule</title>
<polygon fill="#8dd3c7" stroke="black" points="517.92,-187 514.92,-191 493.92,-191 490.92,-187 384.08,-187 384.08,-151 517.92,-151 517.92,-187"/>
<text text-anchor="middle" x="451" y="-164.8" font-family="Times,serif" font-size="14.00">BoardWsApiModule</text>
</g>
<!-- BoardModule&#45;&gt;BoardWsApiModule -->
<g id="edge1" class="edge">
<title>BoardModule&#45;&gt;BoardWsApiModule</title>
<path fill="none" stroke="black" d="M791,-122.28C791,-143.32 791,-175 791,-175 791,-175 527.77,-175 527.77,-175"/>
<polygon fill="black" stroke="black" points="527.77,-171.5 517.77,-175 527.77,-178.5 527.77,-171.5"/>
</g>
<!-- LoggerModule -->
<g id="node2" class="node">
<title>LoggerModule</title>
<polygon fill="#8dd3c7" stroke="black" points="725.98,-122 722.98,-126 701.98,-126 698.98,-122 626.02,-122 626.02,-86 725.98,-86 725.98,-122"/>
<text text-anchor="middle" x="676" y="-99.8" font-family="Times,serif" font-size="14.00">LoggerModule</text>
</g>
<!-- LoggerModule&#45;&gt;BoardWsApiModule -->
<g id="edge2" class="edge">
<title>LoggerModule&#45;&gt;BoardWsApiModule</title>
<path fill="none" stroke="black" d="M676,-122.02C676,-139.37 676,-163 676,-163 676,-163 527.9,-163 527.9,-163"/>
<polygon fill="black" stroke="black" points="527.9,-159.5 517.9,-163 527.9,-166.5 527.9,-159.5"/>
</g>
<!-- BoardUc -->
<g id="node4" class="node">
<title>BoardUc</title>
<ellipse fill="#fdb462" stroke="black" cx="556" cy="-104" rx="45.79" ry="18"/>
<text text-anchor="middle" x="556" y="-99.8" font-family="Times,serif" font-size="14.00">BoardUc</text>
</g>
<!-- BoardUc&#45;&gt;BoardWsApiModule -->
<g id="edge3" class="edge">
<title>BoardUc&#45;&gt;BoardWsApiModule</title>
<path fill="none" stroke="black" d="M513.91,-111.2C513.91,-111.2 513.91,-140.96 513.91,-140.96"/>
<polygon fill="black" stroke="black" points="510.41,-140.96 513.91,-150.96 517.41,-140.96 510.41,-140.96"/>
</g>
<!-- CardUc -->
<g id="node5" class="node">
<title>CardUc</title>
<ellipse fill="#fdb462" stroke="black" cx="451" cy="-104" rx="41.13" ry="18"/>
<text text-anchor="middle" x="451" y="-99.8" font-family="Times,serif" font-size="14.00">CardUc</text>
</g>
<!-- CardUc&#45;&gt;BoardWsApiModule -->
<g id="edge4" class="edge">
<title>CardUc&#45;&gt;BoardWsApiModule</title>
<path fill="none" stroke="black" d="M451,-122.11C451,-122.11 451,-140.99 451,-140.99"/>
<polygon fill="black" stroke="black" points="447.5,-140.99 451,-150.99 454.5,-140.99 447.5,-140.99"/>
</g>
<!-- ColumnUc -->
<g id="node6" class="node">
<title>ColumnUc</title>
<ellipse fill="#fdb462" stroke="black" cx="339" cy="-104" rx="53.33" ry="18"/>
<text text-anchor="middle" x="339" y="-99.8" font-family="Times,serif" font-size="14.00">ColumnUc</text>
</g>
<!-- ColumnUc&#45;&gt;BoardWsApiModule -->
<g id="edge5" class="edge">
<title>ColumnUc&#45;&gt;BoardWsApiModule</title>
<path fill="none" stroke="black" d="M388.35,-110.96C388.35,-110.96 388.35,-140.81 388.35,-140.81"/>
<polygon fill="black" stroke="black" points="384.85,-140.81 388.35,-150.81 391.85,-140.81 384.85,-140.81"/>
</g>
<!-- CourseRepo -->
<g id="node7" class="node">
<title>CourseRepo</title>
<ellipse fill="#fdb462" stroke="black" cx="209" cy="-104" rx="58.55" ry="18"/>
<text text-anchor="middle" x="209" y="-99.8" font-family="Times,serif" font-size="14.00">CourseRepo</text>
</g>
<!-- CourseRepo&#45;&gt;BoardWsApiModule -->
<g id="edge6" class="edge">
<title>CourseRepo&#45;&gt;BoardWsApiModule</title>
<path fill="none" stroke="black" d="M209,-122.02C209,-139.37 209,-163 209,-163 209,-163 374.23,-163 374.23,-163"/>
<polygon fill="black" stroke="black" points="374.23,-166.5 384.23,-163 374.23,-159.5 374.23,-166.5"/>
</g>
<!-- ElementUc -->
<g id="node8" class="node">
<title>ElementUc</title>
<ellipse fill="#fdb462" stroke="black" cx="78" cy="-104" rx="54.45" ry="18"/>
<text text-anchor="middle" x="78" y="-99.8" font-family="Times,serif" font-size="14.00">ElementUc</text>
</g>
<!-- ElementUc&#45;&gt;BoardWsApiModule -->
<g id="edge7" class="edge">
<title>ElementUc&#45;&gt;BoardWsApiModule</title>
<path fill="none" stroke="black" d="M78,-122.28C78,-143.32 78,-175 78,-175 78,-175 373.88,-175 373.88,-175"/>
<polygon fill="black" stroke="black" points="373.88,-178.5 383.88,-175 373.88,-171.5 373.88,-178.5"/>
</g>
</g>
</svg>
