<?xml version="1.0" encoding="UTF-8" standalone="no"?>
<!DOCTYPE svg PUBLIC "-//W3C//DTD SVG 1.1//EN"
 "http://www.w3.org/Graphics/SVG/1.1/DTD/svg11.dtd">
<!-- Generated by graphviz version 2.47.0 (20210316.0004)
 -->
<!-- Title: dependencies Pages: 1 -->
<svg width="1142pt" height="211pt"
 viewBox="0.00 0.00 1142.00 211.00" xmlns="http://www.w3.org/2000/svg" xmlns:xlink="http://www.w3.org/1999/xlink">
<g id="graph0" class="graph" transform="scale(1 1) rotate(0) translate(4 207)">
<title>dependencies</title>
<polygon fill="white" stroke="transparent" points="-4,4 -4,-207 1138,-207 1138,4 -4,4"/>
<text text-anchor="start" x="546.01" y="-42.4" font-family="Times-12" font-weight="bold" font-size="14.00">Legend</text>
<polygon fill="#ffffb3" stroke="transparent" points="333,-10 333,-30 353,-30 353,-10 333,-10"/>
<text text-anchor="start" x="356.63" y="-15.4" font-family="Times-12" font-size="14.00"> &#160;Declarations</text>
<polygon fill="#8dd3c7" stroke="transparent" points="446,-10 446,-30 466,-30 466,-10 446,-10"/>
<text text-anchor="start" x="469.73" y="-15.4" font-family="Times-12" font-size="14.00"> &#160;Module</text>
<polygon fill="#80b1d3" stroke="transparent" points="532,-10 532,-30 552,-30 552,-10 532,-10"/>
<text text-anchor="start" x="555.78" y="-15.4" font-family="Times-12" font-size="14.00"> &#160;Bootstrap</text>
<polygon fill="#fdb462" stroke="transparent" points="629,-10 629,-30 649,-30 649,-10 629,-10"/>
<text text-anchor="start" x="652.67" y="-15.4" font-family="Times-12" font-size="14.00"> &#160;Providers</text>
<polygon fill="#fb8072" stroke="transparent" points="725,-10 725,-30 745,-30 745,-10 725,-10"/>
<text text-anchor="start" x="748.73" y="-15.4" font-family="Times-12" font-size="14.00"> &#160;Exports</text>
<g id="clust1" class="cluster">
<title>cluster_BoardWsApiModule</title>
<polygon fill="none" stroke="black" stroke-dasharray="1,5" points="8,-70 8,-195 1126,-195 1126,-70 8,-70"/>
</g>
<g id="clust6" class="cluster">
<title>cluster_BoardWsApiModule_providers</title>
<polygon fill="none" stroke="black" points="252,-78 252,-130 1118,-130 1118,-78 252,-78"/>
</g>
<g id="clust3" class="cluster">
<title>cluster_BoardWsApiModule_imports</title>
<polygon fill="none" stroke="black" points="16,-78 16,-130 244,-130 244,-78 16,-78"/>
</g>
<!-- BoardModule -->
<g id="node1" class="node">
<title>BoardModule</title>
<polygon fill="#8dd3c7" stroke="black" points="235.76,-122 232.76,-126 211.76,-126 208.76,-122 142.24,-122 142.24,-86 235.76,-86 235.76,-122"/>
<text text-anchor="middle" x="189" y="-99.8" font-family="Times,serif" font-size="14.00">BoardModule</text>
</g>
<!-- BoardWsApiModule -->
<g id="node3" class="node">
<title>BoardWsApiModule</title>
<polygon fill="#8dd3c7" stroke="black" points="576.92,-187 573.92,-191 552.92,-191 549.92,-187 443.08,-187 443.08,-151 576.92,-151 576.92,-187"/>
<text text-anchor="middle" x="510" y="-164.8" font-family="Times,serif" font-size="14.00">BoardWsApiModule</text>
</g>
<!-- BoardModule&#45;&gt;BoardWsApiModule -->
<g id="edge1" class="edge">
<title>BoardModule&#45;&gt;BoardWsApiModule</title>
<path fill="none" stroke="black" d="M189,-122.11C189,-141.34 189,-169 189,-169 189,-169 433.1,-169 433.1,-169"/>
<polygon fill="black" stroke="black" points="433.1,-172.5 443.1,-169 433.1,-165.5 433.1,-172.5"/>
</g>
<!-- LoggerModule -->
<g id="node2" class="node">
<title>LoggerModule</title>
<polygon fill="#8dd3c7" stroke="black" points="123.98,-122 120.98,-126 99.98,-126 96.98,-122 24.02,-122 24.02,-86 123.98,-86 123.98,-122"/>
<text text-anchor="middle" x="74" y="-99.8" font-family="Times,serif" font-size="14.00">LoggerModule</text>
</g>
<!-- LoggerModule&#45;&gt;BoardWsApiModule -->
<g id="edge2" class="edge">
<title>LoggerModule&#45;&gt;BoardWsApiModule</title>
<path fill="none" stroke="black" d="M74,-122.29C74,-144.21 74,-178 74,-178 74,-178 432.83,-178 432.83,-178"/>
<polygon fill="black" stroke="black" points="432.83,-181.5 442.83,-178 432.83,-174.5 432.83,-181.5"/>
</g>
<!-- BoardNodePermissionService -->
<g id="node4" class="node">
<title>BoardNodePermissionService</title>
<ellipse fill="#fdb462" stroke="black" cx="983" cy="-104" rx="127.35" ry="18"/>
<text text-anchor="middle" x="983" y="-99.8" font-family="Times,serif" font-size="14.00">BoardNodePermissionService</text>
</g>
<!-- BoardNodePermissionService&#45;&gt;BoardWsApiModule -->
<g id="edge3" class="edge">
<title>BoardNodePermissionService&#45;&gt;BoardWsApiModule</title>
<path fill="none" stroke="black" d="M983,-122.29C983,-144.21 983,-178 983,-178 983,-178 586.77,-178 586.77,-178"/>
<polygon fill="black" stroke="black" points="586.77,-174.5 576.77,-178 586.77,-181.5 586.77,-174.5"/>
</g>
<!-- BoardUc -->
<g id="node5" class="node">
<title>BoardUc</title>
<ellipse fill="#fdb462" stroke="black" cx="792" cy="-104" rx="45.79" ry="18"/>
<text text-anchor="middle" x="792" y="-99.8" font-family="Times,serif" font-size="14.00">BoardUc</text>
</g>
<!-- BoardUc&#45;&gt;BoardWsApiModule -->
<g id="edge4" class="edge">
<title>BoardUc&#45;&gt;BoardWsApiModule</title>
<path fill="none" stroke="black" d="M792,-122.11C792,-141.34 792,-169 792,-169 792,-169 586.83,-169 586.83,-169"/>
<polygon fill="black" stroke="black" points="586.83,-165.5 576.83,-169 586.83,-172.5 586.83,-165.5"/>
</g>
<!-- CardUc -->
<g id="node6" class="node">
<title>CardUc</title>
<ellipse fill="#fdb462" stroke="black" cx="687" cy="-104" rx="41.13" ry="18"/>
<text text-anchor="middle" x="687" y="-99.8" font-family="Times,serif" font-size="14.00">CardUc</text>
</g>
<!-- CardUc&#45;&gt;BoardWsApiModule -->
<g id="edge5" class="edge">
<title>CardUc&#45;&gt;BoardWsApiModule</title>
<path fill="none" stroke="black" d="M687,-122.03C687,-138.4 687,-160 687,-160 687,-160 586.92,-160 586.92,-160"/>
<polygon fill="black" stroke="black" points="586.92,-156.5 576.92,-160 586.92,-163.5 586.92,-156.5"/>
</g>
<!-- ColumnUc -->
<g id="node7" class="node">
<title>ColumnUc</title>
<ellipse fill="#fdb462" stroke="black" cx="575" cy="-104" rx="53.33" ry="18"/>
<text text-anchor="middle" x="575" y="-99.8" font-family="Times,serif" font-size="14.00">ColumnUc</text>
</g>
<!-- ColumnUc&#45;&gt;BoardWsApiModule -->
<g id="edge6" class="edge">
<title>ColumnUc&#45;&gt;BoardWsApiModule</title>
<path fill="none" stroke="black" d="M549.15,-120.07C549.15,-120.07 549.15,-140.82 549.15,-140.82"/>
<polygon fill="black" stroke="black" points="545.65,-140.82 549.15,-150.82 552.65,-140.82 545.65,-140.82"/>
</g>
<!-- CourseRepo -->
<g id="node8" class="node">
<title>CourseRepo</title>
<ellipse fill="#fdb462" stroke="black" cx="445" cy="-104" rx="58.55" ry="18"/>
<text text-anchor="middle" x="445" y="-99.8" font-family="Times,serif" font-size="14.00">CourseRepo</text>
</g>
<!-- CourseRepo&#45;&gt;BoardWsApiModule -->
<g id="edge7" class="edge">
<title>CourseRepo&#45;&gt;BoardWsApiModule</title>
<path fill="none" stroke="black" d="M473.53,-120.07C473.53,-120.07 473.53,-140.82 473.53,-140.82"/>
<polygon fill="black" stroke="black" points="470.03,-140.82 473.53,-150.82 477.03,-140.82 470.03,-140.82"/>
</g>
<!-- ElementUc -->
<g id="node9" class="node">
<title>ElementUc</title>
<ellipse fill="#fdb462" stroke="black" cx="314" cy="-104" rx="54.45" ry="18"/>
<text text-anchor="middle" x="314" y="-99.8" font-family="Times,serif" font-size="14.00">ElementUc</text>
</g>
<!-- ElementUc&#45;&gt;BoardWsApiModule -->
<g id="edge8" class="edge">
<title>ElementUc&#45;&gt;BoardWsApiModule</title>
<path fill="none" stroke="black" d="M314,-122.03C314,-138.4 314,-160 314,-160 314,-160 433.1,-160 433.1,-160"/>
<polygon fill="black" stroke="black" points="433.1,-163.5 443.1,-160 433.1,-156.5 433.1,-163.5"/>
</g>
</g>
</svg>
