<?xml version="1.0" encoding="UTF-8" standalone="no"?>
<!DOCTYPE svg PUBLIC "-//W3C//DTD SVG 1.1//EN"
 "http://www.w3.org/Graphics/SVG/1.1/DTD/svg11.dtd">
<!-- Generated by graphviz version 2.47.0 (20210316.0004)
 -->
<!-- Title: dependencies Pages: 1 -->
<svg width="744pt" height="211pt"
 viewBox="0.00 0.00 744.00 211.00" xmlns="http://www.w3.org/2000/svg" xmlns:xlink="http://www.w3.org/1999/xlink">
<g id="graph0" class="graph" transform="scale(1 1) rotate(0) translate(4 207)">
<title>dependencies</title>
<polygon fill="white" stroke="transparent" points="-4,4 -4,-207 740,-207 740,4 -4,4"/>
<text text-anchor="start" x="347.01" y="-42.4" font-family="Times-12" font-weight="bold" font-size="14.00">Legend</text>
<polygon fill="#ffffb3" stroke="transparent" points="134,-10 134,-30 154,-30 154,-10 134,-10"/>
<text text-anchor="start" x="157.63" y="-15.4" font-family="Times-12" font-size="14.00"> &#160;Declarations</text>
<polygon fill="#8dd3c7" stroke="transparent" points="247,-10 247,-30 267,-30 267,-10 247,-10"/>
<text text-anchor="start" x="270.73" y="-15.4" font-family="Times-12" font-size="14.00"> &#160;Module</text>
<polygon fill="#80b1d3" stroke="transparent" points="333,-10 333,-30 353,-30 353,-10 333,-10"/>
<text text-anchor="start" x="356.78" y="-15.4" font-family="Times-12" font-size="14.00"> &#160;Bootstrap</text>
<polygon fill="#fdb462" stroke="transparent" points="430,-10 430,-30 450,-30 450,-10 430,-10"/>
<text text-anchor="start" x="453.67" y="-15.4" font-family="Times-12" font-size="14.00"> &#160;Providers</text>
<polygon fill="#fb8072" stroke="transparent" points="526,-10 526,-30 546,-30 546,-10 526,-10"/>
<text text-anchor="start" x="549.73" y="-15.4" font-family="Times-12" font-size="14.00"> &#160;Exports</text>
<g id="clust1" class="cluster">
<title>cluster_BoardWsApiModule</title>
<polygon fill="none" stroke="black" stroke-dasharray="1,5" points="8,-70 8,-195 728,-195 728,-70 8,-70"/>
</g>
<g id="clust3" class="cluster">
<title>cluster_BoardWsApiModule_imports</title>
<polygon fill="none" stroke="black" points="492,-78 492,-130 720,-130 720,-78 492,-78"/>
</g>
<g id="clust6" class="cluster">
<title>cluster_BoardWsApiModule_providers</title>
<polygon fill="none" stroke="black" points="16,-78 16,-130 484,-130 484,-78 16,-78"/>
</g>
<!-- BoardModule -->
<g id="node1" class="node">
<title>BoardModule</title>
<polygon fill="#8dd3c7" stroke="black" points="711.76,-122 708.76,-126 687.76,-126 684.76,-122 618.24,-122 618.24,-86 711.76,-86 711.76,-122"/>
<text text-anchor="middle" x="665" y="-99.8" font-family="Times,serif" font-size="14.00">BoardModule</text>
</g>
<!-- BoardWsApiModule -->
<g id="node3" class="node">
<title>BoardWsApiModule</title>
<polygon fill="#8dd3c7" stroke="black" points="443.92,-187 440.92,-191 419.92,-191 416.92,-187 310.08,-187 310.08,-151 443.92,-151 443.92,-187"/>
<text text-anchor="middle" x="377" y="-164.8" font-family="Times,serif" font-size="14.00">BoardWsApiModule</text>
</g>
<!-- BoardModule&#45;&gt;BoardWsApiModule -->
<g id="edge1" class="edge">
<title>BoardModule&#45;&gt;BoardWsApiModule</title>
<path fill="none" stroke="black" d="M665,-122.28C665,-143.32 665,-175 665,-175 665,-175 453.8,-175 453.8,-175"/>
<polygon fill="black" stroke="black" points="453.8,-171.5 443.8,-175 453.8,-178.5 453.8,-171.5"/>
</g>
<!-- LoggerModule -->
<g id="node2" class="node">
<title>LoggerModule</title>
<polygon fill="#8dd3c7" stroke="black" points="599.98,-122 596.98,-126 575.98,-126 572.98,-122 500.02,-122 500.02,-86 599.98,-86 599.98,-122"/>
<text text-anchor="middle" x="550" y="-99.8" font-family="Times,serif" font-size="14.00">LoggerModule</text>
</g>
<!-- LoggerModule&#45;&gt;BoardWsApiModule -->
<g id="edge2" class="edge">
<title>LoggerModule&#45;&gt;BoardWsApiModule</title>
<path fill="none" stroke="black" d="M550,-122.02C550,-139.37 550,-163 550,-163 550,-163 453.89,-163 453.89,-163"/>
<polygon fill="black" stroke="black" points="453.89,-159.5 443.89,-163 453.89,-166.5 453.89,-159.5"/>
</g>
<!-- BoardUc -->
<g id="node4" class="node">
<title>BoardUc</title>
<ellipse fill="#fdb462" stroke="black" cx="430" cy="-104" rx="45.79" ry="18"/>
<text text-anchor="middle" x="430" y="-99.8" font-family="Times,serif" font-size="14.00">BoardUc</text>
</g>
<!-- BoardUc&#45;&gt;BoardWsApiModule -->
<g id="edge3" class="edge">
<title>BoardUc&#45;&gt;BoardWsApiModule</title>
<path fill="none" stroke="black" d="M413.91,-121.08C413.91,-121.08 413.91,-140.9 413.91,-140.9"/>
<polygon fill="black" stroke="black" points="410.41,-140.9 413.91,-150.9 417.41,-140.9 410.41,-140.9"/>
</g>
<!-- CardUc -->
<g id="node5" class="node">
<title>CardUc</title>
<ellipse fill="#fdb462" stroke="black" cx="325" cy="-104" rx="41.13" ry="18"/>
<text text-anchor="middle" x="325" y="-99.8" font-family="Times,serif" font-size="14.00">CardUc</text>
</g>
<!-- CardUc&#45;&gt;BoardWsApiModule -->
<g id="edge4" class="edge">
<title>CardUc&#45;&gt;BoardWsApiModule</title>
<path fill="none" stroke="black" d="M338.18,-121.08C338.18,-121.08 338.18,-140.9 338.18,-140.9"/>
<polygon fill="black" stroke="black" points="334.68,-140.9 338.18,-150.9 341.68,-140.9 334.68,-140.9"/>
</g>
<!-- ColumnUc -->
<g id="node6" class="node">
<title>ColumnUc</title>
<ellipse fill="#fdb462" stroke="black" cx="213" cy="-104" rx="53.33" ry="18"/>
<text text-anchor="middle" x="213" y="-99.8" font-family="Times,serif" font-size="14.00">ColumnUc</text>
</g>
<!-- ColumnUc&#45;&gt;BoardWsApiModule -->
<g id="edge5" class="edge">
<title>ColumnUc&#45;&gt;BoardWsApiModule</title>
<path fill="none" stroke="black" d="M213,-122.02C213,-139.37 213,-163 213,-163 213,-163 299.82,-163 299.82,-163"/>
<polygon fill="black" stroke="black" points="299.82,-166.5 309.82,-163 299.82,-159.5 299.82,-166.5"/>
</g>
<!-- CourseRepo -->
<g id="node7" class="node">
<title>CourseRepo</title>
<ellipse fill="#fdb462" stroke="black" cx="83" cy="-104" rx="58.55" ry="18"/>
<text text-anchor="middle" x="83" y="-99.8" font-family="Times,serif" font-size="14.00">CourseRepo</text>
</g>
<!-- CourseRepo&#45;&gt;BoardWsApiModule -->
<g id="edge6" class="edge">
<title>CourseRepo&#45;&gt;BoardWsApiModule</title>
<path fill="none" stroke="black" d="M83,-122.28C83,-143.32 83,-175 83,-175 83,-175 300.29,-175 300.29,-175"/>
<polygon fill="black" stroke="black" points="300.29,-178.5 310.29,-175 300.29,-171.5 300.29,-178.5"/>
</g>
</g>
</svg>
