<?xml version="1.0" encoding="UTF-8" standalone="no"?>
<!DOCTYPE svg PUBLIC "-//W3C//DTD SVG 1.1//EN"
 "http://www.w3.org/Graphics/SVG/1.1/DTD/svg11.dtd">
<!-- Generated by graphviz version 2.47.0 (20210316.0004)
 -->
<!-- Title: dependencies Pages: 1 -->
<svg width="1403pt" height="211pt"
 viewBox="0.00 0.00 1403.00 211.00" xmlns="http://www.w3.org/2000/svg" xmlns:xlink="http://www.w3.org/1999/xlink">
<g id="graph0" class="graph" transform="scale(1 1) rotate(0) translate(4 207)">
<title>dependencies</title>
<polygon fill="white" stroke="transparent" points="-4,4 -4,-207 1399,-207 1399,4 -4,4"/>
<text text-anchor="start" x="676.51" y="-42.4" font-family="Times-12" font-weight="bold" font-size="14.00">Legend</text>
<polygon fill="#ffffb3" stroke="transparent" points="463.5,-10 463.5,-30 483.5,-30 483.5,-10 463.5,-10"/>
<text text-anchor="start" x="487.13" y="-15.4" font-family="Times-12" font-size="14.00"> &#160;Declarations</text>
<polygon fill="#8dd3c7" stroke="transparent" points="576.5,-10 576.5,-30 596.5,-30 596.5,-10 576.5,-10"/>
<text text-anchor="start" x="600.23" y="-15.4" font-family="Times-12" font-size="14.00"> &#160;Module</text>
<polygon fill="#80b1d3" stroke="transparent" points="662.5,-10 662.5,-30 682.5,-30 682.5,-10 662.5,-10"/>
<text text-anchor="start" x="686.28" y="-15.4" font-family="Times-12" font-size="14.00"> &#160;Bootstrap</text>
<polygon fill="#fdb462" stroke="transparent" points="759.5,-10 759.5,-30 779.5,-30 779.5,-10 759.5,-10"/>
<text text-anchor="start" x="783.17" y="-15.4" font-family="Times-12" font-size="14.00"> &#160;Providers</text>
<polygon fill="#fb8072" stroke="transparent" points="855.5,-10 855.5,-30 875.5,-30 875.5,-10 855.5,-10"/>
<text text-anchor="start" x="879.23" y="-15.4" font-family="Times-12" font-size="14.00"> &#160;Exports</text>
<g id="clust1" class="cluster">
<title>cluster_BoardWsApiModule</title>
<polygon fill="none" stroke="black" stroke-dasharray="1,5" points="8,-70 8,-195 1387,-195 1387,-70 8,-70"/>
</g>
<g id="clust3" class="cluster">
<title>cluster_BoardWsApiModule_imports</title>
<polygon fill="none" stroke="black" points="1047,-78 1047,-130 1379,-130 1379,-78 1047,-78"/>
</g>
<g id="clust6" class="cluster">
<title>cluster_BoardWsApiModule_providers</title>
<polygon fill="none" stroke="black" points="16,-78 16,-130 1039,-130 1039,-78 16,-78"/>
</g>
<!-- BoardModule -->
<g id="node1" class="node">
<title>BoardModule</title>
<polygon fill="#8dd3c7" stroke="black" points="1370.76,-122 1367.76,-126 1346.76,-126 1343.76,-122 1277.24,-122 1277.24,-86 1370.76,-86 1370.76,-122"/>
<text text-anchor="middle" x="1324" y="-99.8" font-family="Times,serif" font-size="14.00">BoardModule</text>
</g>
<!-- BoardWsApiModule -->
<g id="node4" class="node">
<title>BoardWsApiModule</title>
<polygon fill="#8dd3c7" stroke="black" points="726.92,-187 723.92,-191 702.92,-191 699.92,-187 593.08,-187 593.08,-151 726.92,-151 726.92,-187"/>
<text text-anchor="middle" x="660" y="-164.8" font-family="Times,serif" font-size="14.00">BoardWsApiModule</text>
</g>
<!-- BoardModule&#45;&gt;BoardWsApiModule -->
<g id="edge1" class="edge">
<title>BoardModule&#45;&gt;BoardWsApiModule</title>
<path fill="none" stroke="black" d="M1324,-122.01C1324,-144.49 1324,-180 1324,-180 1324,-180 737.01,-180 737.01,-180"/>
<polygon fill="black" stroke="black" points="737.01,-176.5 727.01,-180 737.01,-183.5 737.01,-176.5"/>
</g>
<!-- LoggerModule -->
<g id="node2" class="node">
<title>LoggerModule</title>
<polygon fill="#8dd3c7" stroke="black" points="1258.98,-122 1255.98,-126 1234.98,-126 1231.98,-122 1159.02,-122 1159.02,-86 1258.98,-86 1258.98,-122"/>
<text text-anchor="middle" x="1209" y="-99.8" font-family="Times,serif" font-size="14.00">LoggerModule</text>
</g>
<!-- LoggerModule&#45;&gt;BoardWsApiModule -->
<g id="edge2" class="edge">
<title>LoggerModule&#45;&gt;BoardWsApiModule</title>
<path fill="none" stroke="black" d="M1209,-122.13C1209,-142.57 1209,-173 1209,-173 1209,-173 736.77,-173 736.77,-173"/>
<polygon fill="black" stroke="black" points="736.77,-169.5 726.77,-173 736.77,-176.5 736.77,-169.5"/>
</g>
<!-- UserModule -->
<g id="node3" class="node">
<title>UserModule</title>
<polygon fill="#8dd3c7" stroke="black" points="1140.98,-122 1137.98,-126 1116.98,-126 1113.98,-122 1055.02,-122 1055.02,-86 1140.98,-86 1140.98,-122"/>
<text text-anchor="middle" x="1098" y="-99.8" font-family="Times,serif" font-size="14.00">UserModule</text>
</g>
<!-- UserModule&#45;&gt;BoardWsApiModule -->
<g id="edge3" class="edge">
<title>UserModule&#45;&gt;BoardWsApiModule</title>
<path fill="none" stroke="black" d="M1098,-122.27C1098,-140.56 1098,-166 1098,-166 1098,-166 737,-166 737,-166"/>
<polygon fill="black" stroke="black" points="737,-162.5 727,-166 737,-169.5 737,-162.5"/>
</g>
<!-- BoardNodePermissionService -->
<g id="node5" class="node">
<title>BoardNodePermissionService</title>
<ellipse fill="#fdb462" stroke="black" cx="904" cy="-104" rx="127.35" ry="18"/>
<text text-anchor="middle" x="904" y="-99.8" font-family="Times,serif" font-size="14.00">BoardNodePermissionService</text>
</g>
<!-- BoardNodePermissionService&#45;&gt;BoardWsApiModule -->
<g id="edge4" class="edge">
<title>BoardNodePermissionService&#45;&gt;BoardWsApiModule</title>
<path fill="none" stroke="black" d="M904,-122.01C904,-138.05 904,-159 904,-159 904,-159 737,-159 737,-159"/>
<polygon fill="black" stroke="black" points="737,-155.5 727,-159 737,-162.5 737,-155.5"/>
</g>
<!-- BoardUc -->
<g id="node6" class="node">
<title>BoardUc</title>
<ellipse fill="#fdb462" stroke="black" cx="713" cy="-104" rx="45.79" ry="18"/>
<text text-anchor="middle" x="713" y="-99.8" font-family="Times,serif" font-size="14.00">BoardUc</text>
</g>
<!-- BoardUc&#45;&gt;BoardWsApiModule -->
<g id="edge5" class="edge">
<title>BoardUc&#45;&gt;BoardWsApiModule</title>
<path fill="none" stroke="black" d="M696.91,-121.08C696.91,-121.08 696.91,-140.9 696.91,-140.9"/>
<polygon fill="black" stroke="black" points="693.41,-140.9 696.91,-150.9 700.41,-140.9 693.41,-140.9"/>
</g>
<!-- CardUc -->
<g id="node7" class="node">
<title>CardUc</title>
<ellipse fill="#fdb462" stroke="black" cx="608" cy="-104" rx="41.13" ry="18"/>
<text text-anchor="middle" x="608" y="-99.8" font-family="Times,serif" font-size="14.00">CardUc</text>
</g>
<!-- CardUc&#45;&gt;BoardWsApiModule -->
<g id="edge6" class="edge">
<title>CardUc&#45;&gt;BoardWsApiModule</title>
<path fill="none" stroke="black" d="M621.18,-121.08C621.18,-121.08 621.18,-140.9 621.18,-140.9"/>
<polygon fill="black" stroke="black" points="617.68,-140.9 621.18,-150.9 624.68,-140.9 617.68,-140.9"/>
</g>
<!-- ColumnUc -->
<g id="node8" class="node">
<title>ColumnUc</title>
<ellipse fill="#fdb462" stroke="black" cx="496" cy="-104" rx="53.33" ry="18"/>
<text text-anchor="middle" x="496" y="-99.8" font-family="Times,serif" font-size="14.00">ColumnUc</text>
</g>
<!-- ColumnUc&#45;&gt;BoardWsApiModule -->
<g id="edge7" class="edge">
<title>ColumnUc&#45;&gt;BoardWsApiModule</title>
<path fill="none" stroke="black" d="M496,-122.01C496,-138.05 496,-159 496,-159 496,-159 582.82,-159 582.82,-159"/>
<polygon fill="black" stroke="black" points="582.82,-162.5 592.82,-159 582.82,-155.5 582.82,-162.5"/>
</g>
<!-- CourseRepo -->
<g id="node9" class="node">
<title>CourseRepo</title>
<ellipse fill="#fdb462" stroke="black" cx="366" cy="-104" rx="58.55" ry="18"/>
<text text-anchor="middle" x="366" y="-99.8" font-family="Times,serif" font-size="14.00">CourseRepo</text>
</g>
<!-- CourseRepo&#45;&gt;BoardWsApiModule -->
<g id="edge8" class="edge">
<title>CourseRepo&#45;&gt;BoardWsApiModule</title>
<path fill="none" stroke="black" d="M366,-122.27C366,-140.56 366,-166 366,-166 366,-166 583.29,-166 583.29,-166"/>
<polygon fill="black" stroke="black" points="583.29,-169.5 593.29,-166 583.29,-162.5 583.29,-169.5"/>
</g>
<!-- ElementUc -->
<g id="node10" class="node">
<title>ElementUc</title>
<ellipse fill="#fdb462" stroke="black" cx="235" cy="-104" rx="54.45" ry="18"/>
<text text-anchor="middle" x="235" y="-99.8" font-family="Times,serif" font-size="14.00">ElementUc</text>
</g>
<!-- ElementUc&#45;&gt;BoardWsApiModule -->
<g id="edge9" class="edge">
<title>ElementUc&#45;&gt;BoardWsApiModule</title>
<path fill="none" stroke="black" d="M235,-122.13C235,-142.57 235,-173 235,-173 235,-173 583.13,-173 583.13,-173"/>
<polygon fill="black" stroke="black" points="583.13,-176.5 593.13,-173 583.13,-169.5 583.13,-176.5"/>
</g>
<!-- MetricsService -->
<g id="node11" class="node">
<title>MetricsService</title>
<ellipse fill="#fdb462" stroke="black" cx="93" cy="-104" rx="69.47" ry="18"/>
<text text-anchor="middle" x="93" y="-99.8" font-family="Times,serif" font-size="14.00">MetricsService</text>
</g>
<!-- MetricsService&#45;&gt;BoardWsApiModule -->
<g id="edge10" class="edge">
<title>MetricsService&#45;&gt;BoardWsApiModule</title>
<path fill="none" stroke="black" d="M93,-122.01C93,-144.49 93,-180 93,-180 93,-180 583.29,-180 583.29,-180"/>
<polygon fill="black" stroke="black" points="583.29,-183.5 593.29,-180 583.29,-176.5 583.29,-183.5"/>
</g>
</g>
</svg>
