<?xml version="1.0" encoding="UTF-8" standalone="no"?>
<!DOCTYPE svg PUBLIC "-//W3C//DTD SVG 1.1//EN"
 "http://www.w3.org/Graphics/SVG/1.1/DTD/svg11.dtd">
<!-- Generated by graphviz version 2.47.0 (20210316.0004)
 -->
<!-- Title: dependencies Pages: 1 -->
<svg width="644pt" height="211pt"
 viewBox="0.00 0.00 644.00 211.00" xmlns="http://www.w3.org/2000/svg" xmlns:xlink="http://www.w3.org/1999/xlink">
<g id="graph0" class="graph" transform="scale(1 1) rotate(0) translate(4 207)">
<title>dependencies</title>
<polygon fill="white" stroke="transparent" points="-4,4 -4,-207 640,-207 640,4 -4,4"/>
<text text-anchor="start" x="297.01" y="-42.4" font-family="Times-12" font-weight="bold" font-size="14.00">Legend</text>
<polygon fill="#ffffb3" stroke="transparent" points="84,-10 84,-30 104,-30 104,-10 84,-10"/>
<text text-anchor="start" x="107.63" y="-15.4" font-family="Times-12" font-size="14.00"> &#160;Declarations</text>
<polygon fill="#8dd3c7" stroke="transparent" points="197,-10 197,-30 217,-30 217,-10 197,-10"/>
<text text-anchor="start" x="220.73" y="-15.4" font-family="Times-12" font-size="14.00"> &#160;Module</text>
<polygon fill="#80b1d3" stroke="transparent" points="283,-10 283,-30 303,-30 303,-10 283,-10"/>
<text text-anchor="start" x="306.78" y="-15.4" font-family="Times-12" font-size="14.00"> &#160;Bootstrap</text>
<polygon fill="#fdb462" stroke="transparent" points="380,-10 380,-30 400,-30 400,-10 380,-10"/>
<text text-anchor="start" x="403.67" y="-15.4" font-family="Times-12" font-size="14.00"> &#160;Providers</text>
<polygon fill="#fb8072" stroke="transparent" points="476,-10 476,-30 496,-30 496,-10 476,-10"/>
<text text-anchor="start" x="499.73" y="-15.4" font-family="Times-12" font-size="14.00"> &#160;Exports</text>
<g id="clust1" class="cluster">
<title>cluster_BoardWsApiModule</title>
<polygon fill="none" stroke="black" stroke-dasharray="1,5" points="8,-70 8,-195 628,-195 628,-70 8,-70"/>
</g>
<g id="clust6" class="cluster">
<title>cluster_BoardWsApiModule_providers</title>
<polygon fill="none" stroke="black" points="252,-78 252,-130 620,-130 620,-78 252,-78"/>
</g>
<g id="clust3" class="cluster">
<title>cluster_BoardWsApiModule_imports</title>
<polygon fill="none" stroke="black" points="16,-78 16,-130 244,-130 244,-78 16,-78"/>
</g>
<!-- BoardModule -->
<g id="node1" class="node">
<title>BoardModule</title>
<polygon fill="#8dd3c7" stroke="black" points="235.76,-122 232.76,-126 211.76,-126 208.76,-122 142.24,-122 142.24,-86 235.76,-86 235.76,-122"/>
<text text-anchor="middle" x="189" y="-99.8" font-family="Times,serif" font-size="14.00">BoardModule</text>
</g>
<!-- BoardWsApiModule -->
<g id="node3" class="node">
<title>BoardWsApiModule</title>
<polygon fill="#8dd3c7" stroke="black" points="385.92,-187 382.92,-191 361.92,-191 358.92,-187 252.08,-187 252.08,-151 385.92,-151 385.92,-187"/>
<text text-anchor="middle" x="319" y="-164.8" font-family="Times,serif" font-size="14.00">BoardWsApiModule</text>
</g>
<!-- BoardModule&#45;&gt;BoardWsApiModule -->
<g id="edge1" class="edge">
<title>BoardModule&#45;&gt;BoardWsApiModule</title>
<path fill="none" stroke="black" d="M236.08,-104C247.38,-104 256.26,-104 256.26,-104 256.26,-104 256.26,-140.89 256.26,-140.89"/>
<polygon fill="black" stroke="black" points="252.76,-140.89 256.26,-150.89 259.76,-140.89 252.76,-140.89"/>
</g>
<!-- LoggerModule -->
<g id="node2" class="node">
<title>LoggerModule</title>
<polygon fill="#8dd3c7" stroke="black" points="123.98,-122 120.98,-126 99.98,-126 96.98,-122 24.02,-122 24.02,-86 123.98,-86 123.98,-122"/>
<text text-anchor="middle" x="74" y="-99.8" font-family="Times,serif" font-size="14.00">LoggerModule</text>
</g>
<!-- LoggerModule&#45;&gt;BoardWsApiModule -->
<g id="edge2" class="edge">
<title>LoggerModule&#45;&gt;BoardWsApiModule</title>
<path fill="none" stroke="black" d="M74,-122.11C74,-141.34 74,-169 74,-169 74,-169 242.05,-169 242.05,-169"/>
<polygon fill="black" stroke="black" points="242.05,-172.5 252.05,-169 242.05,-165.5 242.05,-172.5"/>
</g>
<!-- BoardUc -->
<g id="node4" class="node">
<title>BoardUc</title>
<ellipse fill="#fdb462" stroke="black" cx="566" cy="-104" rx="45.79" ry="18"/>
<text text-anchor="middle" x="566" y="-99.8" font-family="Times,serif" font-size="14.00">BoardUc</text>
</g>
<!-- BoardUc&#45;&gt;BoardWsApiModule -->
<g id="edge3" class="edge">
<title>BoardUc&#45;&gt;BoardWsApiModule</title>
<path fill="none" stroke="black" d="M566,-122.11C566,-141.34 566,-169 566,-169 566,-169 395.84,-169 395.84,-169"/>
<polygon fill="black" stroke="black" points="395.84,-165.5 385.84,-169 395.84,-172.5 395.84,-165.5"/>
</g>
<!-- ColumnUc -->
<g id="node5" class="node">
<title>ColumnUc</title>
<ellipse fill="#fdb462" stroke="black" cx="449" cy="-104" rx="53.33" ry="18"/>
<text text-anchor="middle" x="449" y="-99.8" font-family="Times,serif" font-size="14.00">ColumnUc</text>
</g>
<!-- ColumnUc&#45;&gt;BoardWsApiModule -->
<g id="edge4" class="edge">
<title>ColumnUc&#45;&gt;BoardWsApiModule</title>
<path fill="none" stroke="black" d="M395.35,-104C387.36,-104 381.74,-104 381.74,-104 381.74,-104 381.74,-140.89 381.74,-140.89"/>
<polygon fill="black" stroke="black" points="378.24,-140.89 381.74,-150.89 385.24,-140.89 378.24,-140.89"/>
</g>
<!-- CourseRepo -->
<g id="node6" class="node">
<title>CourseRepo</title>
<ellipse fill="#fdb462" stroke="black" cx="319" cy="-104" rx="58.55" ry="18"/>
<text text-anchor="middle" x="319" y="-99.8" font-family="Times,serif" font-size="14.00">CourseRepo</text>
</g>
<!-- CourseRepo&#45;&gt;BoardWsApiModule -->
<g id="edge5" class="edge">
<title>CourseRepo&#45;&gt;BoardWsApiModule</title>
<path fill="none" stroke="black" d="M319,-122.11C319,-122.11 319,-140.99 319,-140.99"/>
<polygon fill="black" stroke="black" points="315.5,-140.99 319,-150.99 322.5,-140.99 315.5,-140.99"/>
</g>
</g>
</svg>
