<?xml version="1.0" encoding="UTF-8" standalone="no"?>
<!DOCTYPE svg PUBLIC "-//W3C//DTD SVG 1.1//EN"
 "http://www.w3.org/Graphics/SVG/1.1/DTD/svg11.dtd">
<!-- Generated by graphviz version 2.47.0 (20210316.0004)
 -->
<!-- Title: dependencies Pages: 1 -->
<svg width="644pt" height="211pt"
 viewBox="0.00 0.00 644.00 211.00" xmlns="http://www.w3.org/2000/svg" xmlns:xlink="http://www.w3.org/1999/xlink">
<g id="graph0" class="graph" transform="scale(1 1) rotate(0) translate(4 207)">
<title>dependencies</title>
<polygon fill="white" stroke="transparent" points="-4,4 -4,-207 640,-207 640,4 -4,4"/>
<text text-anchor="start" x="297.01" y="-42.4" font-family="Times-12" font-weight="bold" font-size="14.00">Legend</text>
<polygon fill="#ffffb3" stroke="transparent" points="84,-10 84,-30 104,-30 104,-10 84,-10"/>
<text text-anchor="start" x="107.63" y="-15.4" font-family="Times-12" font-size="14.00"> &#160;Declarations</text>
<polygon fill="#8dd3c7" stroke="transparent" points="197,-10 197,-30 217,-30 217,-10 197,-10"/>
<text text-anchor="start" x="220.73" y="-15.4" font-family="Times-12" font-size="14.00"> &#160;Module</text>
<polygon fill="#80b1d3" stroke="transparent" points="283,-10 283,-30 303,-30 303,-10 283,-10"/>
<text text-anchor="start" x="306.78" y="-15.4" font-family="Times-12" font-size="14.00"> &#160;Bootstrap</text>
<polygon fill="#fdb462" stroke="transparent" points="380,-10 380,-30 400,-30 400,-10 380,-10"/>
<text text-anchor="start" x="403.67" y="-15.4" font-family="Times-12" font-size="14.00"> &#160;Providers</text>
<polygon fill="#fb8072" stroke="transparent" points="476,-10 476,-30 496,-30 496,-10 476,-10"/>
<text text-anchor="start" x="499.73" y="-15.4" font-family="Times-12" font-size="14.00"> &#160;Exports</text>
<g id="clust1" class="cluster">
<title>cluster_BoardWsApiModule</title>
<polygon fill="none" stroke="black" stroke-dasharray="1,5" points="8,-70 8,-195 628,-195 628,-70 8,-70"/>
</g>
<g id="clust3" class="cluster">
<title>cluster_BoardWsApiModule_imports</title>
<polygon fill="none" stroke="black" points="392,-78 392,-130 620,-130 620,-78 392,-78"/>
</g>
<g id="clust6" class="cluster">
<title>cluster_BoardWsApiModule_providers</title>
<polygon fill="none" stroke="black" points="16,-78 16,-130 384,-130 384,-78 16,-78"/>
</g>
<!-- BoardModule -->
<g id="node1" class="node">
<title>BoardModule</title>
<polygon fill="#8dd3c7" stroke="black" points="611.76,-122 608.76,-126 587.76,-126 584.76,-122 518.24,-122 518.24,-86 611.76,-86 611.76,-122"/>
<text text-anchor="middle" x="565" y="-99.8" font-family="Times,serif" font-size="14.00">BoardModule</text>
</g>
<!-- BoardWsApiModule -->
<g id="node3" class="node">
<title>BoardWsApiModule</title>
<polygon fill="#8dd3c7" stroke="black" points="396.92,-187 393.92,-191 372.92,-191 369.92,-187 263.08,-187 263.08,-151 396.92,-151 396.92,-187"/>
<text text-anchor="middle" x="330" y="-164.8" font-family="Times,serif" font-size="14.00">BoardWsApiModule</text>
</g>
<!-- BoardModule&#45;&gt;BoardWsApiModule -->
<g id="edge1" class="edge">
<title>BoardModule&#45;&gt;BoardWsApiModule</title>
<path fill="none" stroke="black" d="M565,-122.11C565,-141.34 565,-169 565,-169 565,-169 406.71,-169 406.71,-169"/>
<polygon fill="black" stroke="black" points="406.71,-165.5 396.71,-169 406.71,-172.5 406.71,-165.5"/>
</g>
<!-- LoggerModule -->
<g id="node2" class="node">
<title>LoggerModule</title>
<polygon fill="#8dd3c7" stroke="black" points="499.98,-122 496.98,-126 475.98,-126 472.98,-122 400.02,-122 400.02,-86 499.98,-86 499.98,-122"/>
<text text-anchor="middle" x="450" y="-99.8" font-family="Times,serif" font-size="14.00">LoggerModule</text>
</g>
<!-- LoggerModule&#45;&gt;BoardWsApiModule -->
<g id="edge2" class="edge">
<title>LoggerModule&#45;&gt;BoardWsApiModule</title>
<path fill="none" stroke="black" d="M399.81,-104C391.92,-104 386.3,-104 386.3,-104 386.3,-104 386.3,-140.89 386.3,-140.89"/>
<polygon fill="black" stroke="black" points="382.8,-140.89 386.3,-150.89 389.8,-140.89 382.8,-140.89"/>
</g>
<!-- BoardUc -->
<g id="node4" class="node">
<title>BoardUc</title>
<ellipse fill="#fdb462" stroke="black" cx="330" cy="-104" rx="45.79" ry="18"/>
<text text-anchor="middle" x="330" y="-99.8" font-family="Times,serif" font-size="14.00">BoardUc</text>
</g>
<!-- BoardUc&#45;&gt;BoardWsApiModule -->
<g id="edge3" class="edge">
<title>BoardUc&#45;&gt;BoardWsApiModule</title>
<path fill="none" stroke="black" d="M330,-122.11C330,-122.11 330,-140.99 330,-140.99"/>
<polygon fill="black" stroke="black" points="326.5,-140.99 330,-150.99 333.5,-140.99 326.5,-140.99"/>
</g>
<!-- ColumnUc -->
<g id="node5" class="node">
<title>ColumnUc</title>
<ellipse fill="#fdb462" stroke="black" cx="213" cy="-104" rx="53.33" ry="18"/>
<text text-anchor="middle" x="213" y="-99.8" font-family="Times,serif" font-size="14.00">ColumnUc</text>
</g>
<!-- ColumnUc&#45;&gt;BoardWsApiModule -->
<g id="edge4" class="edge">
<title>ColumnUc&#45;&gt;BoardWsApiModule</title>
<path fill="none" stroke="black" d="M266.6,-104C271.84,-104 275.26,-104 275.26,-104 275.26,-104 275.26,-140.89 275.26,-140.89"/>
<polygon fill="black" stroke="black" points="271.76,-140.89 275.26,-150.89 278.76,-140.89 271.76,-140.89"/>
</g>
<!-- CourseRepo -->
<g id="node6" class="node">
<title>CourseRepo</title>
<ellipse fill="#fdb462" stroke="black" cx="83" cy="-104" rx="58.55" ry="18"/>
<text text-anchor="middle" x="83" y="-99.8" font-family="Times,serif" font-size="14.00">CourseRepo</text>
</g>
<!-- CourseRepo&#45;&gt;BoardWsApiModule -->
<g id="edge5" class="edge">
<title>CourseRepo&#45;&gt;BoardWsApiModule</title>
<path fill="none" stroke="black" d="M83,-122.11C83,-141.34 83,-169 83,-169 83,-169 253.16,-169 253.16,-169"/>
<polygon fill="black" stroke="black" points="253.16,-172.5 263.16,-169 253.16,-165.5 253.16,-172.5"/>
</g>
</g>
</svg>
