<?xml version="1.0" encoding="UTF-8" standalone="no"?>
<!DOCTYPE svg PUBLIC "-//W3C//DTD SVG 1.1//EN"
 "http://www.w3.org/Graphics/SVG/1.1/DTD/svg11.dtd">
<!-- Generated by graphviz version 2.47.0 (20210316.0004)
 -->
<!-- Title: dependencies Pages: 1 -->
<svg width="1243pt" height="211pt"
 viewBox="0.00 0.00 1243.00 211.00" xmlns="http://www.w3.org/2000/svg" xmlns:xlink="http://www.w3.org/1999/xlink">
<g id="graph0" class="graph" transform="scale(1 1) rotate(0) translate(4 207)">
<title>dependencies</title>
<polygon fill="white" stroke="transparent" points="-4,4 -4,-207 1239,-207 1239,4 -4,4"/>
<text text-anchor="start" x="596.51" y="-42.4" font-family="Times-12" font-weight="bold" font-size="14.00">Legend</text>
<polygon fill="#ffffb3" stroke="transparent" points="383.5,-10 383.5,-30 403.5,-30 403.5,-10 383.5,-10"/>
<text text-anchor="start" x="407.13" y="-15.4" font-family="Times-12" font-size="14.00"> &#160;Declarations</text>
<polygon fill="#8dd3c7" stroke="transparent" points="496.5,-10 496.5,-30 516.5,-30 516.5,-10 496.5,-10"/>
<text text-anchor="start" x="520.23" y="-15.4" font-family="Times-12" font-size="14.00"> &#160;Module</text>
<polygon fill="#80b1d3" stroke="transparent" points="582.5,-10 582.5,-30 602.5,-30 602.5,-10 582.5,-10"/>
<text text-anchor="start" x="606.28" y="-15.4" font-family="Times-12" font-size="14.00"> &#160;Bootstrap</text>
<polygon fill="#fdb462" stroke="transparent" points="679.5,-10 679.5,-30 699.5,-30 699.5,-10 679.5,-10"/>
<text text-anchor="start" x="703.17" y="-15.4" font-family="Times-12" font-size="14.00"> &#160;Providers</text>
<polygon fill="#fb8072" stroke="transparent" points="775.5,-10 775.5,-30 795.5,-30 795.5,-10 775.5,-10"/>
<text text-anchor="start" x="799.23" y="-15.4" font-family="Times-12" font-size="14.00"> &#160;Exports</text>
<g id="clust1" class="cluster">
<title>cluster_TaskApiModule</title>
<polygon fill="none" stroke="black" stroke-dasharray="1,5" points="8,-70 8,-195 1227,-195 1227,-70 8,-70"/>
</g>
<g id="clust3" class="cluster">
<title>cluster_TaskApiModule_imports</title>
<polygon fill="none" stroke="black" points="815,-78 815,-130 1219,-130 1219,-78 815,-78"/>
</g>
<g id="clust6" class="cluster">
<title>cluster_TaskApiModule_providers</title>
<polygon fill="none" stroke="black" points="16,-78 16,-130 807,-130 807,-78 16,-78"/>
</g>
<!-- AuthorizationModule -->
<g id="node1" class="node">
<title>AuthorizationModule</title>
<polygon fill="#8dd3c7" stroke="black" points="1210.81,-122 1207.81,-126 1186.81,-126 1183.81,-122 1073.19,-122 1073.19,-86 1210.81,-86 1210.81,-122"/>
<text text-anchor="middle" x="1142" y="-99.8" font-family="Times,serif" font-size="14.00">AuthorizationModule</text>
</g>
<!-- TaskApiModule -->
<g id="node4" class="node">
<title>TaskApiModule</title>
<polygon fill="#8dd3c7" stroke="black" points="657.76,-187 654.76,-191 633.76,-191 630.76,-187 550.24,-187 550.24,-151 657.76,-151 657.76,-187"/>
<text text-anchor="middle" x="604" y="-164.8" font-family="Times,serif" font-size="14.00">TaskApiModule</text>
</g>
<!-- AuthorizationModule&#45;&gt;TaskApiModule -->
<g id="edge1" class="edge">
<title>AuthorizationModule&#45;&gt;TaskApiModule</title>
<path fill="none" stroke="black" d="M1142,-122.01C1142,-144.49 1142,-180 1142,-180 1142,-180 668.05,-180 668.05,-180"/>
<polygon fill="black" stroke="black" points="668.05,-176.5 658.05,-180 668.05,-183.5 668.05,-176.5"/>
</g>
<!-- CopyHelperModule -->
<g id="node2" class="node">
<title>CopyHelperModule</title>
<polygon fill="#8dd3c7" stroke="black" points="1054.97,-122 1051.97,-126 1030.97,-126 1027.97,-122 927.03,-122 927.03,-86 1054.97,-86 1054.97,-122"/>
<text text-anchor="middle" x="991" y="-99.8" font-family="Times,serif" font-size="14.00">CopyHelperModule</text>
</g>
<!-- CopyHelperModule&#45;&gt;TaskApiModule -->
<g id="edge2" class="edge">
<title>CopyHelperModule&#45;&gt;TaskApiModule</title>
<path fill="none" stroke="black" d="M991,-122.13C991,-142.57 991,-173 991,-173 991,-173 667.81,-173 667.81,-173"/>
<polygon fill="black" stroke="black" points="667.81,-169.5 657.81,-173 667.81,-176.5 667.81,-169.5"/>
</g>
<!-- TaskModule -->
<g id="node3" class="node">
<title>TaskModule</title>
<polygon fill="#8dd3c7" stroke="black" points="909.26,-122 906.26,-126 885.26,-126 882.26,-122 822.74,-122 822.74,-86 909.26,-86 909.26,-122"/>
<text text-anchor="middle" x="866" y="-99.8" font-family="Times,serif" font-size="14.00">TaskModule</text>
</g>
<!-- TaskModule&#45;&gt;TaskApiModule -->
<g id="edge3" class="edge">
<title>TaskModule&#45;&gt;TaskApiModule</title>
<path fill="none" stroke="black" d="M866,-122.27C866,-140.56 866,-166 866,-166 866,-166 667.97,-166 667.97,-166"/>
<polygon fill="black" stroke="black" points="667.97,-162.5 657.97,-166 667.97,-169.5 667.97,-162.5"/>
</g>
<!-- CourseRepo -->
<g id="node5" class="node">
<title>CourseRepo</title>
<ellipse fill="#fdb462" stroke="black" cx="740" cy="-104" rx="58.55" ry="18"/>
<text text-anchor="middle" x="740" y="-99.8" font-family="Times,serif" font-size="14.00">CourseRepo</text>
</g>
<!-- CourseRepo&#45;&gt;TaskApiModule -->
<g id="edge4" class="edge">
<title>CourseRepo&#45;&gt;TaskApiModule</title>
<path fill="none" stroke="black" d="M740,-122.01C740,-138.05 740,-159 740,-159 740,-159 668.14,-159 668.14,-159"/>
<polygon fill="black" stroke="black" points="668.14,-155.5 658.14,-159 668.14,-162.5 668.14,-155.5"/>
</g>
<!-- LessonRepo -->
<g id="node6" class="node">
<title>LessonRepo</title>
<ellipse fill="#fdb462" stroke="black" cx="604" cy="-104" rx="58.55" ry="18"/>
<text text-anchor="middle" x="604" y="-99.8" font-family="Times,serif" font-size="14.00">LessonRepo</text>
</g>
<!-- LessonRepo&#45;&gt;TaskApiModule -->
<g id="edge5" class="edge">
<title>LessonRepo&#45;&gt;TaskApiModule</title>
<path fill="none" stroke="black" d="M604,-122.11C604,-122.11 604,-140.99 604,-140.99"/>
<polygon fill="black" stroke="black" points="600.5,-140.99 604,-150.99 607.5,-140.99 600.5,-140.99"/>
</g>
<!-- SubmissionUc -->
<g id="node7" class="node">
<title>SubmissionUc</title>
<ellipse fill="#fdb462" stroke="black" cx="460" cy="-104" rx="67.24" ry="18"/>
<text text-anchor="middle" x="460" y="-99.8" font-family="Times,serif" font-size="14.00">SubmissionUc</text>
</g>
<!-- SubmissionUc&#45;&gt;TaskApiModule -->
<g id="edge6" class="edge">
<title>SubmissionUc&#45;&gt;TaskApiModule</title>
<path fill="none" stroke="black" d="M460,-122.01C460,-138.05 460,-159 460,-159 460,-159 539.97,-159 539.97,-159"/>
<polygon fill="black" stroke="black" points="539.97,-162.5 549.97,-159 539.97,-155.5 539.97,-162.5"/>
</g>
<!-- TaskCopyUC -->
<g id="node8" class="node">
<title>TaskCopyUC</title>
<ellipse fill="#fdb462" stroke="black" cx="310" cy="-104" rx="64.29" ry="18"/>
<text text-anchor="middle" x="310" y="-99.8" font-family="Times,serif" font-size="14.00">TaskCopyUC</text>
</g>
<!-- TaskCopyUC&#45;&gt;TaskApiModule -->
<g id="edge7" class="edge">
<title>TaskCopyUC&#45;&gt;TaskApiModule</title>
<path fill="none" stroke="black" d="M310,-122.27C310,-140.56 310,-166 310,-166 310,-166 540.08,-166 540.08,-166"/>
<polygon fill="black" stroke="black" points="540.08,-169.5 550.08,-166 540.08,-162.5 540.08,-169.5"/>
</g>
<!-- TaskRepo -->
<g id="node9" class="node">
<title>TaskRepo</title>
<ellipse fill="#fdb462" stroke="black" cx="178" cy="-104" rx="50.38" ry="18"/>
<text text-anchor="middle" x="178" y="-99.8" font-family="Times,serif" font-size="14.00">TaskRepo</text>
</g>
<!-- TaskRepo&#45;&gt;TaskApiModule -->
<g id="edge8" class="edge">
<title>TaskRepo&#45;&gt;TaskApiModule</title>
<path fill="none" stroke="black" d="M178,-122.13C178,-142.57 178,-173 178,-173 178,-173 540.05,-173 540.05,-173"/>
<polygon fill="black" stroke="black" points="540.05,-176.5 550.05,-173 540.05,-169.5 540.05,-176.5"/>
</g>
<!-- TaskUC -->
<g id="node10" class="node">
<title>TaskUC</title>
<ellipse fill="#fdb462" stroke="black" cx="67" cy="-104" rx="43.44" ry="18"/>
<text text-anchor="middle" x="67" y="-99.8" font-family="Times,serif" font-size="14.00">TaskUC</text>
</g>
<!-- TaskUC&#45;&gt;TaskApiModule -->
<g id="edge9" class="edge">
<title>TaskUC&#45;&gt;TaskApiModule</title>
<path fill="none" stroke="black" d="M67,-122.01C67,-144.49 67,-180 67,-180 67,-180 540.05,-180 540.05,-180"/>
<polygon fill="black" stroke="black" points="540.05,-183.5 550.05,-180 540.05,-176.5 540.05,-183.5"/>
</g>
</g>
</svg>
