<?xml version="1.0" encoding="UTF-8" standalone="no"?>
<!DOCTYPE svg PUBLIC "-//W3C//DTD SVG 1.1//EN"
 "http://www.w3.org/Graphics/SVG/1.1/DTD/svg11.dtd">
<!-- Generated by graphviz version 2.47.0 (20210316.0004)
 -->
<!-- Title: dependencies Pages: 1 -->
<svg width="1225pt" height="211pt"
 viewBox="0.00 0.00 1225.00 211.00" xmlns="http://www.w3.org/2000/svg" xmlns:xlink="http://www.w3.org/1999/xlink">
<g id="graph0" class="graph" transform="scale(1 1) rotate(0) translate(4 207)">
<title>dependencies</title>
<polygon fill="white" stroke="transparent" points="-4,4 -4,-207 1221,-207 1221,4 -4,4"/>
<text text-anchor="start" x="587.51" y="-42.4" font-family="Times-12" font-weight="bold" font-size="14.00">Legend</text>
<polygon fill="#ffffb3" stroke="transparent" points="374.5,-10 374.5,-30 394.5,-30 394.5,-10 374.5,-10"/>
<text text-anchor="start" x="398.13" y="-15.4" font-family="Times-12" font-size="14.00"> &#160;Declarations</text>
<polygon fill="#8dd3c7" stroke="transparent" points="487.5,-10 487.5,-30 507.5,-30 507.5,-10 487.5,-10"/>
<text text-anchor="start" x="511.23" y="-15.4" font-family="Times-12" font-size="14.00"> &#160;Module</text>
<polygon fill="#80b1d3" stroke="transparent" points="573.5,-10 573.5,-30 593.5,-30 593.5,-10 573.5,-10"/>
<text text-anchor="start" x="597.28" y="-15.4" font-family="Times-12" font-size="14.00"> &#160;Bootstrap</text>
<polygon fill="#fdb462" stroke="transparent" points="670.5,-10 670.5,-30 690.5,-30 690.5,-10 670.5,-10"/>
<text text-anchor="start" x="694.17" y="-15.4" font-family="Times-12" font-size="14.00"> &#160;Providers</text>
<polygon fill="#fb8072" stroke="transparent" points="766.5,-10 766.5,-30 786.5,-30 786.5,-10 766.5,-10"/>
<text text-anchor="start" x="790.23" y="-15.4" font-family="Times-12" font-size="14.00"> &#160;Exports</text>
<g id="clust1" class="cluster">
<title>cluster_TaskApiModule</title>
<polygon fill="none" stroke="black" stroke-dasharray="1,5" points="8,-70 8,-195 1209,-195 1209,-70 8,-70"/>
</g>
<g id="clust6" class="cluster">
<title>cluster_TaskApiModule_providers</title>
<polygon fill="none" stroke="black" points="546,-78 546,-130 1201,-130 1201,-78 546,-78"/>
</g>
<g id="clust3" class="cluster">
<title>cluster_TaskApiModule_imports</title>
<polygon fill="none" stroke="black" points="16,-78 16,-130 538,-130 538,-78 16,-78"/>
</g>
<!-- AuthorizationModule -->
<g id="node1" class="node">
<title>AuthorizationModule</title>
<polygon fill="#8dd3c7" stroke="black" points="529.81,-122 526.81,-126 505.81,-126 502.81,-122 392.19,-122 392.19,-86 529.81,-86 529.81,-122"/>
<text text-anchor="middle" x="461" y="-99.8" font-family="Times,serif" font-size="14.00">AuthorizationModule</text>
</g>
<!-- TaskApiModule -->
<g id="node5" class="node">
<title>TaskApiModule</title>
<polygon fill="#8dd3c7" stroke="black" points="650.76,-187 647.76,-191 626.76,-191 623.76,-187 543.24,-187 543.24,-151 650.76,-151 650.76,-187"/>
<text text-anchor="middle" x="597" y="-164.8" font-family="Times,serif" font-size="14.00">TaskApiModule</text>
</g>
<!-- AuthorizationModule&#45;&gt;TaskApiModule -->
<g id="edge1" class="edge">
<title>AuthorizationModule&#45;&gt;TaskApiModule</title>
<path fill="none" stroke="black" d="M529.91,-104C540.74,-104 548.45,-104 548.45,-104 548.45,-104 548.45,-140.89 548.45,-140.89"/>
<polygon fill="black" stroke="black" points="544.95,-140.89 548.45,-150.89 551.95,-140.89 544.95,-140.89"/>
</g>
<!-- CopyHelperModule -->
<g id="node2" class="node">
<title>CopyHelperModule</title>
<polygon fill="#8dd3c7" stroke="black" points="373.97,-122 370.97,-126 349.97,-126 346.97,-122 246.03,-122 246.03,-86 373.97,-86 373.97,-122"/>
<text text-anchor="middle" x="310" y="-99.8" font-family="Times,serif" font-size="14.00">CopyHelperModule</text>
</g>
<!-- CopyHelperModule&#45;&gt;TaskApiModule -->
<g id="edge2" class="edge">
<title>CopyHelperModule&#45;&gt;TaskApiModule</title>
<path fill="none" stroke="black" d="M310,-122.03C310,-138.4 310,-160 310,-160 310,-160 533.02,-160 533.02,-160"/>
<polygon fill="black" stroke="black" points="533.02,-163.5 543.02,-160 533.02,-156.5 533.02,-163.5"/>
</g>
<!-- LessonModule -->
<g id="node3" class="node">
<title>LessonModule</title>
<polygon fill="#8dd3c7" stroke="black" points="227.71,-122 224.71,-126 203.71,-126 200.71,-122 128.29,-122 128.29,-86 227.71,-86 227.71,-122"/>
<text text-anchor="middle" x="178" y="-99.8" font-family="Times,serif" font-size="14.00">LessonModule</text>
</g>
<!-- LessonModule&#45;&gt;TaskApiModule -->
<g id="edge3" class="edge">
<title>LessonModule&#45;&gt;TaskApiModule</title>
<path fill="none" stroke="black" d="M178,-122.11C178,-141.34 178,-169 178,-169 178,-169 533.08,-169 533.08,-169"/>
<polygon fill="black" stroke="black" points="533.08,-172.5 543.08,-169 533.08,-165.5 533.08,-172.5"/>
</g>
<!-- TaskModule -->
<g id="node4" class="node">
<title>TaskModule</title>
<polygon fill="#8dd3c7" stroke="black" points="110.26,-122 107.26,-126 86.26,-126 83.26,-122 23.74,-122 23.74,-86 110.26,-86 110.26,-122"/>
<text text-anchor="middle" x="67" y="-99.8" font-family="Times,serif" font-size="14.00">TaskModule</text>
</g>
<!-- TaskModule&#45;&gt;TaskApiModule -->
<g id="edge4" class="edge">
<title>TaskModule&#45;&gt;TaskApiModule</title>
<path fill="none" stroke="black" d="M67,-122.29C67,-144.21 67,-178 67,-178 67,-178 532.77,-178 532.77,-178"/>
<polygon fill="black" stroke="black" points="532.77,-181.5 542.77,-178 532.77,-174.5 532.77,-181.5"/>
</g>
<!-- CourseRepo -->
<g id="node6" class="node">
<title>CourseRepo</title>
<ellipse fill="#fdb462" stroke="black" cx="1134" cy="-104" rx="58.55" ry="18"/>
<text text-anchor="middle" x="1134" y="-99.8" font-family="Times,serif" font-size="14.00">CourseRepo</text>
</g>
<!-- CourseRepo&#45;&gt;TaskApiModule -->
<g id="edge5" class="edge">
<title>CourseRepo&#45;&gt;TaskApiModule</title>
<path fill="none" stroke="black" d="M1134,-122.29C1134,-144.21 1134,-178 1134,-178 1134,-178 660.95,-178 660.95,-178"/>
<polygon fill="black" stroke="black" points="660.95,-174.5 650.95,-178 660.95,-181.5 660.95,-174.5"/>
</g>
<!-- SubmissionUc -->
<g id="node7" class="node">
<title>SubmissionUc</title>
<ellipse fill="#fdb462" stroke="black" cx="990" cy="-104" rx="67.24" ry="18"/>
<text text-anchor="middle" x="990" y="-99.8" font-family="Times,serif" font-size="14.00">SubmissionUc</text>
</g>
<!-- SubmissionUc&#45;&gt;TaskApiModule -->
<g id="edge6" class="edge">
<title>SubmissionUc&#45;&gt;TaskApiModule</title>
<path fill="none" stroke="black" d="M990,-122.11C990,-141.34 990,-169 990,-169 990,-169 660.82,-169 660.82,-169"/>
<polygon fill="black" stroke="black" points="660.82,-165.5 650.82,-169 660.82,-172.5 660.82,-165.5"/>
</g>
<!-- TaskCopyUC -->
<g id="node8" class="node">
<title>TaskCopyUC</title>
<ellipse fill="#fdb462" stroke="black" cx="840" cy="-104" rx="64.29" ry="18"/>
<text text-anchor="middle" x="840" y="-99.8" font-family="Times,serif" font-size="14.00">TaskCopyUC</text>
</g>
<!-- TaskCopyUC&#45;&gt;TaskApiModule -->
<g id="edge7" class="edge">
<title>TaskCopyUC&#45;&gt;TaskApiModule</title>
<path fill="none" stroke="black" d="M840,-122.03C840,-138.4 840,-160 840,-160 840,-160 660.93,-160 660.93,-160"/>
<polygon fill="black" stroke="black" points="660.93,-156.5 650.93,-160 660.93,-163.5 660.93,-156.5"/>
</g>
<!-- TaskRepo -->
<g id="node9" class="node">
<title>TaskRepo</title>
<ellipse fill="#fdb462" stroke="black" cx="708" cy="-104" rx="50.38" ry="18"/>
<text text-anchor="middle" x="708" y="-99.8" font-family="Times,serif" font-size="14.00">TaskRepo</text>
</g>
<!-- TaskRepo&#45;&gt;TaskApiModule -->
<g id="edge8" class="edge">
<title>TaskRepo&#45;&gt;TaskApiModule</title>
<path fill="none" stroke="black" d="M657.59,-104C650.49,-104 645.55,-104 645.55,-104 645.55,-104 645.55,-140.89 645.55,-140.89"/>
<polygon fill="black" stroke="black" points="642.05,-140.89 645.55,-150.89 649.05,-140.89 642.05,-140.89"/>
</g>
<!-- TaskUC -->
<g id="node10" class="node">
<title>TaskUC</title>
<ellipse fill="#fdb462" stroke="black" cx="597" cy="-104" rx="43.44" ry="18"/>
<text text-anchor="middle" x="597" y="-99.8" font-family="Times,serif" font-size="14.00">TaskUC</text>
</g>
<!-- TaskUC&#45;&gt;TaskApiModule -->
<g id="edge9" class="edge">
<title>TaskUC&#45;&gt;TaskApiModule</title>
<path fill="none" stroke="black" d="M597,-122.11C597,-122.11 597,-140.99 597,-140.99"/>
<polygon fill="black" stroke="black" points="593.5,-140.99 597,-150.99 600.5,-140.99 593.5,-140.99"/>
</g>
</g>
</svg>
