<?xml version="1.0" encoding="UTF-8" standalone="no"?>
<!DOCTYPE svg PUBLIC "-//W3C//DTD SVG 1.1//EN"
 "http://www.w3.org/Graphics/SVG/1.1/DTD/svg11.dtd">
<!-- Generated by graphviz version 2.47.0 (20210316.0004)
 -->
<!-- Title: dependencies Pages: 1 -->
<svg width="1243pt" height="211pt"
 viewBox="0.00 0.00 1243.00 211.00" xmlns="http://www.w3.org/2000/svg" xmlns:xlink="http://www.w3.org/1999/xlink">
<g id="graph0" class="graph" transform="scale(1 1) rotate(0) translate(4 207)">
<title>dependencies</title>
<polygon fill="white" stroke="transparent" points="-4,4 -4,-207 1239,-207 1239,4 -4,4"/>
<text text-anchor="start" x="596.51" y="-42.4" font-family="Times-12" font-weight="bold" font-size="14.00">Legend</text>
<polygon fill="#ffffb3" stroke="transparent" points="383.5,-10 383.5,-30 403.5,-30 403.5,-10 383.5,-10"/>
<text text-anchor="start" x="407.13" y="-15.4" font-family="Times-12" font-size="14.00"> &#160;Declarations</text>
<polygon fill="#8dd3c7" stroke="transparent" points="496.5,-10 496.5,-30 516.5,-30 516.5,-10 496.5,-10"/>
<text text-anchor="start" x="520.23" y="-15.4" font-family="Times-12" font-size="14.00"> &#160;Module</text>
<polygon fill="#80b1d3" stroke="transparent" points="582.5,-10 582.5,-30 602.5,-30 602.5,-10 582.5,-10"/>
<text text-anchor="start" x="606.28" y="-15.4" font-family="Times-12" font-size="14.00"> &#160;Bootstrap</text>
<polygon fill="#fdb462" stroke="transparent" points="679.5,-10 679.5,-30 699.5,-30 699.5,-10 679.5,-10"/>
<text text-anchor="start" x="703.17" y="-15.4" font-family="Times-12" font-size="14.00"> &#160;Providers</text>
<polygon fill="#fb8072" stroke="transparent" points="775.5,-10 775.5,-30 795.5,-30 795.5,-10 775.5,-10"/>
<text text-anchor="start" x="799.23" y="-15.4" font-family="Times-12" font-size="14.00"> &#160;Exports</text>
<g id="clust1" class="cluster">
<title>cluster_TaskApiModule</title>
<polygon fill="none" stroke="black" stroke-dasharray="1,5" points="8,-70 8,-195 1227,-195 1227,-70 8,-70"/>
</g>
<g id="clust6" class="cluster">
<title>cluster_TaskApiModule_providers</title>
<polygon fill="none" stroke="black" points="428,-78 428,-130 1219,-130 1219,-78 428,-78"/>
</g>
<g id="clust3" class="cluster">
<title>cluster_TaskApiModule_imports</title>
<polygon fill="none" stroke="black" points="16,-78 16,-130 420,-130 420,-78 16,-78"/>
</g>
<!-- AuthorizationModule -->
<g id="node1" class="node">
<title>AuthorizationModule</title>
<polygon fill="#8dd3c7" stroke="black" points="411.81,-122 408.81,-126 387.81,-126 384.81,-122 274.19,-122 274.19,-86 411.81,-86 411.81,-122"/>
<text text-anchor="middle" x="343" y="-99.8" font-family="Times,serif" font-size="14.00">AuthorizationModule</text>
</g>
<!-- TaskApiModule -->
<g id="node4" class="node">
<title>TaskApiModule</title>
<polygon fill="#8dd3c7" stroke="black" points="643.76,-187 640.76,-191 619.76,-191 616.76,-187 536.24,-187 536.24,-151 643.76,-151 643.76,-187"/>
<text text-anchor="middle" x="590" y="-164.8" font-family="Times,serif" font-size="14.00">TaskApiModule</text>
</g>
<!-- AuthorizationModule&#45;&gt;TaskApiModule -->
<g id="edge1" class="edge">
<title>AuthorizationModule&#45;&gt;TaskApiModule</title>
<path fill="none" stroke="black" d="M343,-122.27C343,-140.56 343,-166 343,-166 343,-166 526.1,-166 526.1,-166"/>
<polygon fill="black" stroke="black" points="526.1,-169.5 536.1,-166 526.1,-162.5 526.1,-169.5"/>
</g>
<!-- CopyHelperModule -->
<g id="node2" class="node">
<title>CopyHelperModule</title>
<polygon fill="#8dd3c7" stroke="black" points="255.97,-122 252.97,-126 231.97,-126 228.97,-122 128.03,-122 128.03,-86 255.97,-86 255.97,-122"/>
<text text-anchor="middle" x="192" y="-99.8" font-family="Times,serif" font-size="14.00">CopyHelperModule</text>
</g>
<!-- CopyHelperModule&#45;&gt;TaskApiModule -->
<g id="edge2" class="edge">
<title>CopyHelperModule&#45;&gt;TaskApiModule</title>
<path fill="none" stroke="black" d="M192,-122.13C192,-142.57 192,-173 192,-173 192,-173 525.91,-173 525.91,-173"/>
<polygon fill="black" stroke="black" points="525.91,-176.5 535.91,-173 525.91,-169.5 525.91,-176.5"/>
</g>
<!-- TaskModule -->
<g id="node3" class="node">
<title>TaskModule</title>
<polygon fill="#8dd3c7" stroke="black" points="110.26,-122 107.26,-126 86.26,-126 83.26,-122 23.74,-122 23.74,-86 110.26,-86 110.26,-122"/>
<text text-anchor="middle" x="67" y="-99.8" font-family="Times,serif" font-size="14.00">TaskModule</text>
</g>
<!-- TaskModule&#45;&gt;TaskApiModule -->
<g id="edge3" class="edge">
<title>TaskModule&#45;&gt;TaskApiModule</title>
<path fill="none" stroke="black" d="M67,-122.01C67,-144.49 67,-180 67,-180 67,-180 526,-180 526,-180"/>
<polygon fill="black" stroke="black" points="526,-183.5 536,-180 526,-176.5 526,-183.5"/>
</g>
<!-- CourseRepo -->
<g id="node5" class="node">
<title>CourseRepo</title>
<ellipse fill="#fdb462" stroke="black" cx="1152" cy="-104" rx="58.55" ry="18"/>
<text text-anchor="middle" x="1152" y="-99.8" font-family="Times,serif" font-size="14.00">CourseRepo</text>
</g>
<!-- CourseRepo&#45;&gt;TaskApiModule -->
<g id="edge4" class="edge">
<title>CourseRepo&#45;&gt;TaskApiModule</title>
<path fill="none" stroke="black" d="M1152,-122.01C1152,-144.49 1152,-180 1152,-180 1152,-180 653.89,-180 653.89,-180"/>
<polygon fill="black" stroke="black" points="653.89,-176.5 643.89,-180 653.89,-183.5 653.89,-176.5"/>
</g>
<!-- LessonRepo -->
<g id="node6" class="node">
<title>LessonRepo</title>
<ellipse fill="#fdb462" stroke="black" cx="1016" cy="-104" rx="58.55" ry="18"/>
<text text-anchor="middle" x="1016" y="-99.8" font-family="Times,serif" font-size="14.00">LessonRepo</text>
</g>
<!-- LessonRepo&#45;&gt;TaskApiModule -->
<g id="edge5" class="edge">
<title>LessonRepo&#45;&gt;TaskApiModule</title>
<path fill="none" stroke="black" d="M1016,-122.13C1016,-142.57 1016,-173 1016,-173 1016,-173 653.95,-173 653.95,-173"/>
<polygon fill="black" stroke="black" points="653.95,-169.5 643.95,-173 653.95,-176.5 653.95,-169.5"/>
</g>
<!-- SubmissionUc -->
<g id="node7" class="node">
<title>SubmissionUc</title>
<ellipse fill="#fdb462" stroke="black" cx="872" cy="-104" rx="67.24" ry="18"/>
<text text-anchor="middle" x="872" y="-99.8" font-family="Times,serif" font-size="14.00">SubmissionUc</text>
</g>
<!-- SubmissionUc&#45;&gt;TaskApiModule -->
<g id="edge6" class="edge">
<title>SubmissionUc&#45;&gt;TaskApiModule</title>
<path fill="none" stroke="black" d="M872,-122.27C872,-140.56 872,-166 872,-166 872,-166 654.04,-166 654.04,-166"/>
<polygon fill="black" stroke="black" points="654.04,-162.5 644.04,-166 654.04,-169.5 654.04,-162.5"/>
</g>
<!-- TaskCopyUC -->
<g id="node8" class="node">
<title>TaskCopyUC</title>
<ellipse fill="#fdb462" stroke="black" cx="722" cy="-104" rx="64.29" ry="18"/>
<text text-anchor="middle" x="722" y="-99.8" font-family="Times,serif" font-size="14.00">TaskCopyUC</text>
</g>
<!-- TaskCopyUC&#45;&gt;TaskApiModule -->
<g id="edge7" class="edge">
<title>TaskCopyUC&#45;&gt;TaskApiModule</title>
<path fill="none" stroke="black" d="M722,-122.01C722,-138.05 722,-159 722,-159 722,-159 654.07,-159 654.07,-159"/>
<polygon fill="black" stroke="black" points="654.07,-155.5 644.07,-159 654.07,-162.5 654.07,-155.5"/>
</g>
<!-- TaskRepo -->
<g id="node9" class="node">
<title>TaskRepo</title>
<ellipse fill="#fdb462" stroke="black" cx="590" cy="-104" rx="50.38" ry="18"/>
<text text-anchor="middle" x="590" y="-99.8" font-family="Times,serif" font-size="14.00">TaskRepo</text>
</g>
<!-- TaskRepo&#45;&gt;TaskApiModule -->
<g id="edge8" class="edge">
<title>TaskRepo&#45;&gt;TaskApiModule</title>
<path fill="none" stroke="black" d="M590,-122.11C590,-122.11 590,-140.99 590,-140.99"/>
<polygon fill="black" stroke="black" points="586.5,-140.99 590,-150.99 593.5,-140.99 586.5,-140.99"/>
</g>
<!-- TaskUC -->
<g id="node10" class="node">
<title>TaskUC</title>
<ellipse fill="#fdb462" stroke="black" cx="479" cy="-104" rx="43.44" ry="18"/>
<text text-anchor="middle" x="479" y="-99.8" font-family="Times,serif" font-size="14.00">TaskUC</text>
</g>
<!-- TaskUC&#45;&gt;TaskApiModule -->
<g id="edge9" class="edge">
<title>TaskUC&#45;&gt;TaskApiModule</title>
<path fill="none" stroke="black" d="M479,-122.01C479,-138.05 479,-159 479,-159 479,-159 526.13,-159 526.13,-159"/>
<polygon fill="black" stroke="black" points="526.13,-162.5 536.13,-159 526.13,-155.5 526.13,-162.5"/>
</g>
</g>
</svg>
