<?xml version="1.0" encoding="UTF-8" standalone="no"?>
<!DOCTYPE svg PUBLIC "-//W3C//DTD SVG 1.1//EN"
 "http://www.w3.org/Graphics/SVG/1.1/DTD/svg11.dtd">
<!-- Generated by graphviz version 2.47.0 (20210316.0004)
 -->
<!-- Title: dependencies Pages: 1 -->
<svg width="1638pt" height="211pt"
 viewBox="0.00 0.00 1638.00 211.00" xmlns="http://www.w3.org/2000/svg" xmlns:xlink="http://www.w3.org/1999/xlink">
<g id="graph0" class="graph" transform="scale(1 1) rotate(0) translate(4 207)">
<title>dependencies</title>
<polygon fill="white" stroke="transparent" points="-4,4 -4,-207 1634,-207 1634,4 -4,4"/>
<text text-anchor="start" x="794.01" y="-42.4" font-family="Times-12" font-weight="bold" font-size="14.00">Legend</text>
<polygon fill="#ffffb3" stroke="transparent" points="581,-10 581,-30 601,-30 601,-10 581,-10"/>
<text text-anchor="start" x="604.63" y="-15.4" font-family="Times-12" font-size="14.00"> &#160;Declarations</text>
<polygon fill="#8dd3c7" stroke="transparent" points="694,-10 694,-30 714,-30 714,-10 694,-10"/>
<text text-anchor="start" x="717.73" y="-15.4" font-family="Times-12" font-size="14.00"> &#160;Module</text>
<polygon fill="#80b1d3" stroke="transparent" points="780,-10 780,-30 800,-30 800,-10 780,-10"/>
<text text-anchor="start" x="803.78" y="-15.4" font-family="Times-12" font-size="14.00"> &#160;Bootstrap</text>
<polygon fill="#fdb462" stroke="transparent" points="877,-10 877,-30 897,-30 897,-10 877,-10"/>
<text text-anchor="start" x="900.67" y="-15.4" font-family="Times-12" font-size="14.00"> &#160;Providers</text>
<polygon fill="#fb8072" stroke="transparent" points="973,-10 973,-30 993,-30 993,-10 973,-10"/>
<text text-anchor="start" x="996.73" y="-15.4" font-family="Times-12" font-size="14.00"> &#160;Exports</text>
<g id="clust1" class="cluster">
<title>cluster_TldrawTestModule</title>
<polygon fill="none" stroke="black" stroke-dasharray="1,5" points="8,-70 8,-195 1622,-195 1622,-70 8,-70"/>
</g>
<g id="clust6" class="cluster">
<title>cluster_TldrawTestModule_providers</title>
<polygon fill="none" stroke="black" points="1096,-78 1096,-130 1614,-130 1614,-78 1096,-78"/>
</g>
<g id="clust3" class="cluster">
<title>cluster_TldrawTestModule_imports</title>
<polygon fill="none" stroke="black" points="16,-78 16,-130 1088,-130 1088,-78 16,-78"/>
</g>
<!-- AuthenticationApiModule -->
<g id="node1" class="node">
<title>AuthenticationApiModule</title>
<polygon fill="#8dd3c7" stroke="black" points="1079.75,-122 1076.75,-126 1055.75,-126 1052.75,-122 916.25,-122 916.25,-86 1079.75,-86 1079.75,-122"/>
<text text-anchor="middle" x="998" y="-99.8" font-family="Times,serif" font-size="14.00">AuthenticationApiModule</text>
</g>
<!-- TldrawTestModule -->
<g id="node8" class="node">
<title>TldrawTestModule</title>
<polygon fill="#8dd3c7" stroke="black" points="810.08,-187 807.08,-191 786.08,-191 783.08,-187 685.92,-187 685.92,-151 810.08,-151 810.08,-187"/>
<text text-anchor="middle" x="748" y="-164.8" font-family="Times,serif" font-size="14.00">TldrawTestModule</text>
</g>
<!-- AuthenticationApiModule&#45;&gt;TldrawTestModule -->
<g id="edge1" class="edge">
<title>AuthenticationApiModule&#45;&gt;TldrawTestModule</title>
<path fill="none" stroke="black" d="M998,-122.01C998,-138.05 998,-159 998,-159 998,-159 820.12,-159 820.12,-159"/>
<polygon fill="black" stroke="black" points="820.12,-155.5 810.12,-159 820.12,-162.5 820.12,-155.5"/>
</g>
<!-- AuthenticationModule -->
<g id="node2" class="node">
<title>AuthenticationModule</title>
<polygon fill="#8dd3c7" stroke="black" points="898.25,-122 895.25,-126 874.25,-126 871.25,-122 755.75,-122 755.75,-86 898.25,-86 898.25,-122"/>
<text text-anchor="middle" x="827" y="-99.8" font-family="Times,serif" font-size="14.00">AuthenticationModule</text>
</g>
<!-- AuthenticationModule&#45;&gt;TldrawTestModule -->
<g id="edge2" class="edge">
<title>AuthenticationModule&#45;&gt;TldrawTestModule</title>
<path fill="none" stroke="black" d="M782.83,-122.11C782.83,-122.11 782.83,-140.99 782.83,-140.99"/>
<polygon fill="black" stroke="black" points="779.33,-140.99 782.83,-150.99 786.33,-140.99 779.33,-140.99"/>
</g>
<!-- AuthorizationModule -->
<g id="node3" class="node">
<title>AuthorizationModule</title>
<polygon fill="#8dd3c7" stroke="black" points="737.81,-122 734.81,-126 713.81,-126 710.81,-122 600.19,-122 600.19,-86 737.81,-86 737.81,-122"/>
<text text-anchor="middle" x="669" y="-99.8" font-family="Times,serif" font-size="14.00">AuthorizationModule</text>
</g>
<!-- AuthorizationModule&#45;&gt;TldrawTestModule -->
<g id="edge3" class="edge">
<title>AuthorizationModule&#45;&gt;TldrawTestModule</title>
<path fill="none" stroke="black" d="M711.81,-122.11C711.81,-122.11 711.81,-140.99 711.81,-140.99"/>
<polygon fill="black" stroke="black" points="708.31,-140.99 711.81,-150.99 715.31,-140.99 708.31,-140.99"/>
</g>
<!-- CoreModule -->
<g id="node4" class="node">
<title>CoreModule</title>
<polygon fill="#8dd3c7" stroke="black" points="582.26,-122 579.26,-126 558.26,-126 555.26,-122 495.74,-122 495.74,-86 582.26,-86 582.26,-122"/>
<text text-anchor="middle" x="539" y="-99.8" font-family="Times,serif" font-size="14.00">CoreModule</text>
</g>
<!-- CoreModule&#45;&gt;TldrawTestModule -->
<g id="edge4" class="edge">
<title>CoreModule&#45;&gt;TldrawTestModule</title>
<path fill="none" stroke="black" d="M539,-122.01C539,-138.05 539,-159 539,-159 539,-159 675.86,-159 675.86,-159"/>
<polygon fill="black" stroke="black" points="675.86,-162.5 685.86,-159 675.86,-155.5 675.86,-162.5"/>
</g>
<!-- LoggerModule -->
<g id="node5" class="node">
<title>LoggerModule</title>
<polygon fill="#8dd3c7" stroke="black" points="477.98,-122 474.98,-126 453.98,-126 450.98,-122 378.02,-122 378.02,-86 477.98,-86 477.98,-122"/>
<text text-anchor="middle" x="428" y="-99.8" font-family="Times,serif" font-size="14.00">LoggerModule</text>
</g>
<!-- LoggerModule&#45;&gt;TldrawTestModule -->
<g id="edge5" class="edge">
<title>LoggerModule&#45;&gt;TldrawTestModule</title>
<path fill="none" stroke="black" d="M428,-122.27C428,-140.56 428,-166 428,-166 428,-166 675.92,-166 675.92,-166"/>
<polygon fill="black" stroke="black" points="675.92,-169.5 685.92,-166 675.92,-162.5 675.92,-169.5"/>
</g>
<!-- MongoMemoryDatabaseModule -->
<g id="node6" class="node">
<title>MongoMemoryDatabaseModule</title>
<polygon fill="#8dd3c7" stroke="black" points="359.51,-122 356.51,-126 335.51,-126 332.51,-122 160.49,-122 160.49,-86 359.51,-86 359.51,-122"/>
<text text-anchor="middle" x="260" y="-99.8" font-family="Times,serif" font-size="14.00">MongoMemoryDatabaseModule</text>
</g>
<!-- MongoMemoryDatabaseModule&#45;&gt;TldrawTestModule -->
<g id="edge6" class="edge">
<title>MongoMemoryDatabaseModule&#45;&gt;TldrawTestModule</title>
<path fill="none" stroke="black" d="M260,-122.13C260,-142.57 260,-173 260,-173 260,-173 675.7,-173 675.7,-173"/>
<polygon fill="black" stroke="black" points="675.7,-176.5 685.7,-173 675.7,-169.5 675.7,-176.5"/>
</g>
<!-- TldrawWsModule -->
<g id="node7" class="node">
<title>TldrawWsModule</title>
<polygon fill="#8dd3c7" stroke="black" points="142.13,-122 139.13,-126 118.13,-126 115.13,-122 23.87,-122 23.87,-86 142.13,-86 142.13,-122"/>
<text text-anchor="middle" x="83" y="-99.8" font-family="Times,serif" font-size="14.00">TldrawWsModule</text>
</g>
<!-- TldrawWsModule&#45;&gt;TldrawTestModule -->
<g id="edge7" class="edge">
<title>TldrawWsModule&#45;&gt;TldrawTestModule</title>
<path fill="none" stroke="black" d="M83,-122.01C83,-144.49 83,-180 83,-180 83,-180 675.74,-180 675.74,-180"/>
<polygon fill="black" stroke="black" points="675.74,-183.5 685.74,-180 675.74,-176.5 675.74,-183.5"/>
</g>
<!-- MetricsService -->
<g id="node9" class="node">
<title>MetricsService</title>
<ellipse fill="#fdb462" stroke="black" cx="1537" cy="-104" rx="69.47" ry="18"/>
<text text-anchor="middle" x="1537" y="-99.8" font-family="Times,serif" font-size="14.00">MetricsService</text>
</g>
<!-- MetricsService&#45;&gt;TldrawTestModule -->
<g id="edge8" class="edge">
<title>MetricsService&#45;&gt;TldrawTestModule</title>
<path fill="none" stroke="black" d="M1537,-122.01C1537,-144.49 1537,-180 1537,-180 1537,-180 820.24,-180 820.24,-180"/>
<polygon fill="black" stroke="black" points="820.24,-176.5 810.24,-180 820.24,-183.5 820.24,-176.5"/>
</g>
<!-- TldrawBoardRepo -->
<g id="node10" class="node">
<title>TldrawBoardRepo</title>
<ellipse fill="#fdb462" stroke="black" cx="1367" cy="-104" rx="82.81" ry="18"/>
<text text-anchor="middle" x="1367" y="-99.8" font-family="Times,serif" font-size="14.00">TldrawBoardRepo</text>
</g>
<!-- TldrawBoardRepo&#45;&gt;TldrawTestModule -->
<g id="edge9" class="edge">
<title>TldrawBoardRepo&#45;&gt;TldrawTestModule</title>
<path fill="none" stroke="black" d="M1367,-122.13C1367,-142.57 1367,-173 1367,-173 1367,-173 820.19,-173 820.19,-173"/>
<polygon fill="black" stroke="black" points="820.19,-169.5 810.19,-173 820.19,-176.5 820.19,-169.5"/>
</g>
<!-- TldrawWsService -->
<g id="node11" class="node">
<title>TldrawWsService</title>
<ellipse fill="#fdb462" stroke="black" cx="1185" cy="-104" rx="80.99" ry="18"/>
<text text-anchor="middle" x="1185" y="-99.8" font-family="Times,serif" font-size="14.00">TldrawWsService</text>
</g>
<!-- TldrawWsService&#45;&gt;TldrawTestModule -->
<g id="edge10" class="edge">
<title>TldrawWsService&#45;&gt;TldrawTestModule</title>
<path fill="none" stroke="black" d="M1185,-122.27C1185,-140.56 1185,-166 1185,-166 1185,-166 820.15,-166 820.15,-166"/>
<polygon fill="black" stroke="black" points="820.15,-162.5 810.15,-166 820.15,-169.5 820.15,-162.5"/>
</g>
</g>
</svg>
