<?xml version="1.0" encoding="UTF-8" standalone="no"?>
<!DOCTYPE svg PUBLIC "-//W3C//DTD SVG 1.1//EN"
 "http://www.w3.org/Graphics/SVG/1.1/DTD/svg11.dtd">
<!-- Generated by graphviz version 2.47.0 (20210316.0004)
 -->
<!-- Title: dependencies Pages: 1 -->
<svg width="1122pt" height="211pt"
 viewBox="0.00 0.00 1122.00 211.00" xmlns="http://www.w3.org/2000/svg" xmlns:xlink="http://www.w3.org/1999/xlink">
<g id="graph0" class="graph" transform="scale(1 1) rotate(0) translate(4 207)">
<title>dependencies</title>
<polygon fill="white" stroke="transparent" points="-4,4 -4,-207 1118,-207 1118,4 -4,4"/>
<text text-anchor="start" x="536.01" y="-42.4" font-family="Times-12" font-weight="bold" font-size="14.00">Legend</text>
<polygon fill="#ffffb3" stroke="transparent" points="323,-10 323,-30 343,-30 343,-10 323,-10"/>
<text text-anchor="start" x="346.63" y="-15.4" font-family="Times-12" font-size="14.00"> &#160;Declarations</text>
<polygon fill="#8dd3c7" stroke="transparent" points="436,-10 436,-30 456,-30 456,-10 436,-10"/>
<text text-anchor="start" x="459.73" y="-15.4" font-family="Times-12" font-size="14.00"> &#160;Module</text>
<polygon fill="#80b1d3" stroke="transparent" points="522,-10 522,-30 542,-30 542,-10 522,-10"/>
<text text-anchor="start" x="545.78" y="-15.4" font-family="Times-12" font-size="14.00"> &#160;Bootstrap</text>
<polygon fill="#fdb462" stroke="transparent" points="619,-10 619,-30 639,-30 639,-10 619,-10"/>
<text text-anchor="start" x="642.67" y="-15.4" font-family="Times-12" font-size="14.00"> &#160;Providers</text>
<polygon fill="#fb8072" stroke="transparent" points="715,-10 715,-30 735,-30 735,-10 715,-10"/>
<text text-anchor="start" x="738.73" y="-15.4" font-family="Times-12" font-size="14.00"> &#160;Exports</text>
<g id="clust1" class="cluster">
<title>cluster_TldrawTestModule</title>
<polygon fill="none" stroke="black" stroke-dasharray="1,5" points="8,-70 8,-195 1106,-195 1106,-70 8,-70"/>
</g>
<g id="clust6" class="cluster">
<title>cluster_TldrawTestModule_providers</title>
<polygon fill="none" stroke="black" points="358,-78 358,-130 1098,-130 1098,-78 358,-78"/>
</g>
<g id="clust3" class="cluster">
<title>cluster_TldrawTestModule_imports</title>
<polygon fill="none" stroke="black" points="16,-78 16,-130 350,-130 350,-78 16,-78"/>
</g>
<!-- LoggerModule -->
<g id="node1" class="node">
<title>LoggerModule</title>
<polygon fill="#8dd3c7" stroke="black" points="341.98,-122 338.98,-126 317.98,-126 314.98,-122 242.02,-122 242.02,-86 341.98,-86 341.98,-122"/>
<text text-anchor="middle" x="292" y="-99.8" font-family="Times,serif" font-size="14.00">LoggerModule</text>
</g>
<!-- TldrawTestModule -->
<g id="node3" class="node">
<title>TldrawTestModule</title>
<polygon fill="#8dd3c7" stroke="black" points="641.08,-187 638.08,-191 617.08,-191 614.08,-187 516.92,-187 516.92,-151 641.08,-151 641.08,-187"/>
<text text-anchor="middle" x="579" y="-164.8" font-family="Times,serif" font-size="14.00">TldrawTestModule</text>
</g>
<!-- LoggerModule&#45;&gt;TldrawTestModule -->
<g id="edge1" class="edge">
<title>LoggerModule&#45;&gt;TldrawTestModule</title>
<path fill="none" stroke="black" d="M292,-122.11C292,-141.34 292,-169 292,-169 292,-169 506.73,-169 506.73,-169"/>
<polygon fill="black" stroke="black" points="506.73,-172.5 516.73,-169 506.73,-165.5 506.73,-172.5"/>
</g>
<!-- MongoMemoryDatabaseModule -->
<g id="node2" class="node">
<title>MongoMemoryDatabaseModule</title>
<polygon fill="#8dd3c7" stroke="black" points="223.51,-122 220.51,-126 199.51,-126 196.51,-122 24.49,-122 24.49,-86 223.51,-86 223.51,-122"/>
<text text-anchor="middle" x="124" y="-99.8" font-family="Times,serif" font-size="14.00">MongoMemoryDatabaseModule</text>
</g>
<!-- MongoMemoryDatabaseModule&#45;&gt;TldrawTestModule -->
<g id="edge2" class="edge">
<title>MongoMemoryDatabaseModule&#45;&gt;TldrawTestModule</title>
<path fill="none" stroke="black" d="M124,-122.29C124,-144.21 124,-178 124,-178 124,-178 506.69,-178 506.69,-178"/>
<polygon fill="black" stroke="black" points="506.69,-181.5 516.69,-178 506.69,-174.5 506.69,-181.5"/>
</g>
<!-- Logger -->
<g id="node4" class="node">
<title>Logger</title>
<ellipse fill="#fdb462" stroke="black" cx="1051" cy="-104" rx="38.85" ry="18"/>
<text text-anchor="middle" x="1051" y="-99.8" font-family="Times,serif" font-size="14.00">Logger</text>
</g>
<!-- Logger&#45;&gt;TldrawTestModule -->
<g id="edge3" class="edge">
<title>Logger&#45;&gt;TldrawTestModule</title>
<path fill="none" stroke="black" d="M1051,-122.29C1051,-144.21 1051,-178 1051,-178 1051,-178 651.19,-178 651.19,-178"/>
<polygon fill="black" stroke="black" points="651.19,-174.5 641.19,-178 651.19,-181.5 651.19,-174.5"/>
</g>
<!-- MetricsService -->
<g id="node5" class="node">
<title>MetricsService</title>
<ellipse fill="#fdb462" stroke="black" cx="925" cy="-104" rx="69.47" ry="18"/>
<text text-anchor="middle" x="925" y="-99.8" font-family="Times,serif" font-size="14.00">MetricsService</text>
</g>
<!-- MetricsService&#45;&gt;TldrawTestModule -->
<g id="edge4" class="edge">
<title>MetricsService&#45;&gt;TldrawTestModule</title>
<path fill="none" stroke="black" d="M925,-122.11C925,-141.34 925,-169 925,-169 925,-169 651.26,-169 651.26,-169"/>
<polygon fill="black" stroke="black" points="651.26,-165.5 641.26,-169 651.26,-172.5 651.26,-165.5"/>
</g>
<!-- TldrawRedisFactory -->
<g id="node6" class="node">
<title>TldrawRedisFactory</title>
<ellipse fill="#fdb462" stroke="black" cx="747" cy="-104" rx="90.33" ry="18"/>
<text text-anchor="middle" x="747" y="-99.8" font-family="Times,serif" font-size="14.00">TldrawRedisFactory</text>
</g>
<!-- TldrawRedisFactory&#45;&gt;TldrawTestModule -->
<g id="edge5" class="edge">
<title>TldrawRedisFactory&#45;&gt;TldrawTestModule</title>
<path fill="none" stroke="black" d="M747,-122.03C747,-138.4 747,-160 747,-160 747,-160 651.08,-160 651.08,-160"/>
<polygon fill="black" stroke="black" points="651.08,-156.5 641.08,-160 651.08,-163.5 651.08,-156.5"/>
</g>
<!-- TldrawRepo -->
<g id="node7" class="node">
<title>TldrawRepo</title>
<ellipse fill="#fdb462" stroke="black" cx="579" cy="-104" rx="59.11" ry="18"/>
<text text-anchor="middle" x="579" y="-99.8" font-family="Times,serif" font-size="14.00">TldrawRepo</text>
</g>
<!-- TldrawRepo&#45;&gt;TldrawTestModule -->
<g id="edge6" class="edge">
<title>TldrawRepo&#45;&gt;TldrawTestModule</title>
<path fill="none" stroke="black" d="M579,-122.11C579,-122.11 579,-140.99 579,-140.99"/>
<polygon fill="black" stroke="black" points="575.5,-140.99 579,-150.99 582.5,-140.99 575.5,-140.99"/>
</g>
<!-- TldrawService -->
<g id="node8" class="node">
<title>TldrawService</title>
<ellipse fill="#fdb462" stroke="black" cx="434" cy="-104" rx="67.75" ry="18"/>
<text text-anchor="middle" x="434" y="-99.8" font-family="Times,serif" font-size="14.00">TldrawService</text>
</g>
<!-- TldrawService&#45;&gt;TldrawTestModule -->
<g id="edge7" class="edge">
<title>TldrawService&#45;&gt;TldrawTestModule</title>
<path fill="none" stroke="black" d="M434,-122.03C434,-138.4 434,-160 434,-160 434,-160 506.67,-160 506.67,-160"/>
<polygon fill="black" stroke="black" points="506.67,-163.5 516.67,-160 506.67,-156.5 506.67,-163.5"/>
</g>
</g>
</svg>
