<?xml version="1.0" encoding="UTF-8" standalone="no"?>
<!DOCTYPE svg PUBLIC "-//W3C//DTD SVG 1.1//EN"
 "http://www.w3.org/Graphics/SVG/1.1/DTD/svg11.dtd">
<!-- Generated by graphviz version 2.47.0 (20210316.0004)
 -->
<!-- Title: dependencies Pages: 1 -->
<svg width="1032pt" height="211pt"
 viewBox="0.00 0.00 1032.00 211.00" xmlns="http://www.w3.org/2000/svg" xmlns:xlink="http://www.w3.org/1999/xlink">
<g id="graph0" class="graph" transform="scale(1 1) rotate(0) translate(4 207)">
<title>dependencies</title>
<polygon fill="white" stroke="transparent" points="-4,4 -4,-207 1028,-207 1028,4 -4,4"/>
<text text-anchor="start" x="491.01" y="-42.4" font-family="Times-12" font-weight="bold" font-size="14.00">Legend</text>
<polygon fill="#ffffb3" stroke="transparent" points="278,-10 278,-30 298,-30 298,-10 278,-10"/>
<text text-anchor="start" x="301.63" y="-15.4" font-family="Times-12" font-size="14.00"> &#160;Declarations</text>
<polygon fill="#8dd3c7" stroke="transparent" points="391,-10 391,-30 411,-30 411,-10 391,-10"/>
<text text-anchor="start" x="414.73" y="-15.4" font-family="Times-12" font-size="14.00"> &#160;Module</text>
<polygon fill="#80b1d3" stroke="transparent" points="477,-10 477,-30 497,-30 497,-10 477,-10"/>
<text text-anchor="start" x="500.78" y="-15.4" font-family="Times-12" font-size="14.00"> &#160;Bootstrap</text>
<polygon fill="#fdb462" stroke="transparent" points="574,-10 574,-30 594,-30 594,-10 574,-10"/>
<text text-anchor="start" x="597.67" y="-15.4" font-family="Times-12" font-size="14.00"> &#160;Providers</text>
<polygon fill="#fb8072" stroke="transparent" points="670,-10 670,-30 690,-30 690,-10 670,-10"/>
<text text-anchor="start" x="693.73" y="-15.4" font-family="Times-12" font-size="14.00"> &#160;Exports</text>
<g id="clust1" class="cluster">
<title>cluster_TldrawTestModule</title>
<polygon fill="none" stroke="black" stroke-dasharray="1,5" points="8,-70 8,-195 1016,-195 1016,-70 8,-70"/>
</g>
<g id="clust6" class="cluster">
<title>cluster_TldrawTestModule_providers</title>
<polygon fill="none" stroke="black" points="467,-78 467,-130 1008,-130 1008,-78 467,-78"/>
</g>
<g id="clust3" class="cluster">
<title>cluster_TldrawTestModule_imports</title>
<polygon fill="none" stroke="black" points="16,-78 16,-130 459,-130 459,-78 16,-78"/>
</g>
<!-- LoggerModule -->
<g id="node1" class="node">
<title>LoggerModule</title>
<polygon fill="#8dd3c7" stroke="black" points="450.98,-122 447.98,-126 426.98,-126 423.98,-122 351.02,-122 351.02,-86 450.98,-86 450.98,-122"/>
<text text-anchor="middle" x="401" y="-99.8" font-family="Times,serif" font-size="14.00">LoggerModule</text>
</g>
<!-- TldrawTestModule -->
<g id="node4" class="node">
<title>TldrawTestModule</title>
<polygon fill="#8dd3c7" stroke="black" points="605.08,-187 602.08,-191 581.08,-191 578.08,-187 480.92,-187 480.92,-151 605.08,-151 605.08,-187"/>
<text text-anchor="middle" x="543" y="-164.8" font-family="Times,serif" font-size="14.00">TldrawTestModule</text>
</g>
<!-- LoggerModule&#45;&gt;TldrawTestModule -->
<g id="edge1" class="edge">
<title>LoggerModule&#45;&gt;TldrawTestModule</title>
<path fill="none" stroke="black" d="M401,-122.03C401,-138.4 401,-160 401,-160 401,-160 470.72,-160 470.72,-160"/>
<polygon fill="black" stroke="black" points="470.72,-163.5 480.72,-160 470.72,-156.5 470.72,-163.5"/>
</g>
<!-- MongoMemoryDatabaseModule -->
<g id="node2" class="node">
<title>MongoMemoryDatabaseModule</title>
<polygon fill="#8dd3c7" stroke="black" points="332.51,-122 329.51,-126 308.51,-126 305.51,-122 133.49,-122 133.49,-86 332.51,-86 332.51,-122"/>
<text text-anchor="middle" x="233" y="-99.8" font-family="Times,serif" font-size="14.00">MongoMemoryDatabaseModule</text>
</g>
<!-- MongoMemoryDatabaseModule&#45;&gt;TldrawTestModule -->
<g id="edge2" class="edge">
<title>MongoMemoryDatabaseModule&#45;&gt;TldrawTestModule</title>
<path fill="none" stroke="black" d="M233,-122.11C233,-141.34 233,-169 233,-169 233,-169 470.64,-169 470.64,-169"/>
<polygon fill="black" stroke="black" points="470.64,-172.5 480.64,-169 470.64,-165.5 470.64,-172.5"/>
</g>
<!-- RedisModule -->
<g id="node3" class="node">
<title>RedisModule</title>
<polygon fill="#8dd3c7" stroke="black" points="115.94,-122 112.94,-126 91.94,-126 88.94,-122 24.06,-122 24.06,-86 115.94,-86 115.94,-122"/>
<text text-anchor="middle" x="70" y="-99.8" font-family="Times,serif" font-size="14.00">RedisModule</text>
</g>
<!-- RedisModule&#45;&gt;TldrawTestModule -->
<g id="edge3" class="edge">
<title>RedisModule&#45;&gt;TldrawTestModule</title>
<path fill="none" stroke="black" d="M70,-122.29C70,-144.21 70,-178 70,-178 70,-178 470.68,-178 470.68,-178"/>
<polygon fill="black" stroke="black" points="470.68,-181.5 480.68,-178 470.68,-174.5 470.68,-181.5"/>
</g>
<!-- Logger -->
<g id="node5" class="node">
<title>Logger</title>
<ellipse fill="#fdb462" stroke="black" cx="961" cy="-104" rx="38.85" ry="18"/>
<text text-anchor="middle" x="961" y="-99.8" font-family="Times,serif" font-size="14.00">Logger</text>
</g>
<!-- Logger&#45;&gt;TldrawTestModule -->
<g id="edge4" class="edge">
<title>Logger&#45;&gt;TldrawTestModule</title>
<path fill="none" stroke="black" d="M961,-122.29C961,-144.21 961,-178 961,-178 961,-178 615.13,-178 615.13,-178"/>
<polygon fill="black" stroke="black" points="615.13,-174.5 605.13,-178 615.13,-181.5 615.13,-174.5"/>
</g>
<!-- MetricsService -->
<g id="node6" class="node">
<title>MetricsService</title>
<ellipse fill="#fdb462" stroke="black" cx="835" cy="-104" rx="69.47" ry="18"/>
<text text-anchor="middle" x="835" y="-99.8" font-family="Times,serif" font-size="14.00">MetricsService</text>
</g>
<!-- MetricsService&#45;&gt;TldrawTestModule -->
<g id="edge5" class="edge">
<title>MetricsService&#45;&gt;TldrawTestModule</title>
<path fill="none" stroke="black" d="M835,-122.11C835,-141.34 835,-169 835,-169 835,-169 615.28,-169 615.28,-169"/>
<polygon fill="black" stroke="black" points="615.28,-165.5 605.28,-169 615.28,-172.5 615.28,-165.5"/>
</g>
<!-- TldrawRepo -->
<g id="node7" class="node">
<title>TldrawRepo</title>
<ellipse fill="#fdb462" stroke="black" cx="688" cy="-104" rx="59.11" ry="18"/>
<text text-anchor="middle" x="688" y="-99.8" font-family="Times,serif" font-size="14.00">TldrawRepo</text>
</g>
<!-- TldrawRepo&#45;&gt;TldrawTestModule -->
<g id="edge6" class="edge">
<title>TldrawRepo&#45;&gt;TldrawTestModule</title>
<path fill="none" stroke="black" d="M688,-122.03C688,-138.4 688,-160 688,-160 688,-160 615.33,-160 615.33,-160"/>
<polygon fill="black" stroke="black" points="615.33,-156.5 605.33,-160 615.33,-163.5 615.33,-156.5"/>
</g>
<!-- TldrawService -->
<g id="node8" class="node">
<title>TldrawService</title>
<ellipse fill="#fdb462" stroke="black" cx="543" cy="-104" rx="67.75" ry="18"/>
<text text-anchor="middle" x="543" y="-99.8" font-family="Times,serif" font-size="14.00">TldrawService</text>
</g>
<!-- TldrawService&#45;&gt;TldrawTestModule -->
<g id="edge7" class="edge">
<title>TldrawService&#45;&gt;TldrawTestModule</title>
<path fill="none" stroke="black" d="M543,-122.11C543,-122.11 543,-140.99 543,-140.99"/>
<polygon fill="black" stroke="black" points="539.5,-140.99 543,-150.99 546.5,-140.99 539.5,-140.99"/>
</g>
</g>
</svg>
