<?xml version="1.0" encoding="UTF-8" standalone="no"?>
<!DOCTYPE svg PUBLIC "-//W3C//DTD SVG 1.1//EN"
 "http://www.w3.org/Graphics/SVG/1.1/DTD/svg11.dtd">
<!-- Generated by graphviz version 2.47.0 (20210316.0004)
 -->
<!-- Title: dependencies Pages: 1 -->
<svg width="1032pt" height="211pt"
 viewBox="0.00 0.00 1032.00 211.00" xmlns="http://www.w3.org/2000/svg" xmlns:xlink="http://www.w3.org/1999/xlink">
<g id="graph0" class="graph" transform="scale(1 1) rotate(0) translate(4 207)">
<title>dependencies</title>
<polygon fill="white" stroke="transparent" points="-4,4 -4,-207 1028,-207 1028,4 -4,4"/>
<text text-anchor="start" x="491.01" y="-42.4" font-family="Times-12" font-weight="bold" font-size="14.00">Legend</text>
<polygon fill="#ffffb3" stroke="transparent" points="278,-10 278,-30 298,-30 298,-10 278,-10"/>
<text text-anchor="start" x="301.63" y="-15.4" font-family="Times-12" font-size="14.00"> &#160;Declarations</text>
<polygon fill="#8dd3c7" stroke="transparent" points="391,-10 391,-30 411,-30 411,-10 391,-10"/>
<text text-anchor="start" x="414.73" y="-15.4" font-family="Times-12" font-size="14.00"> &#160;Module</text>
<polygon fill="#80b1d3" stroke="transparent" points="477,-10 477,-30 497,-30 497,-10 477,-10"/>
<text text-anchor="start" x="500.78" y="-15.4" font-family="Times-12" font-size="14.00"> &#160;Bootstrap</text>
<polygon fill="#fdb462" stroke="transparent" points="574,-10 574,-30 594,-30 594,-10 574,-10"/>
<text text-anchor="start" x="597.67" y="-15.4" font-family="Times-12" font-size="14.00"> &#160;Providers</text>
<polygon fill="#fb8072" stroke="transparent" points="670,-10 670,-30 690,-30 690,-10 670,-10"/>
<text text-anchor="start" x="693.73" y="-15.4" font-family="Times-12" font-size="14.00"> &#160;Exports</text>
<g id="clust1" class="cluster">
<title>cluster_TldrawTestModule</title>
<polygon fill="none" stroke="black" stroke-dasharray="1,5" points="8,-70 8,-195 1016,-195 1016,-70 8,-70"/>
</g>
<g id="clust3" class="cluster">
<title>cluster_TldrawTestModule_imports</title>
<polygon fill="none" stroke="black" points="565,-78 565,-130 1008,-130 1008,-78 565,-78"/>
</g>
<g id="clust6" class="cluster">
<title>cluster_TldrawTestModule_providers</title>
<polygon fill="none" stroke="black" points="16,-78 16,-130 557,-130 557,-78 16,-78"/>
</g>
<!-- LoggerModule -->
<g id="node1" class="node">
<title>LoggerModule</title>
<polygon fill="#8dd3c7" stroke="black" points="999.98,-122 996.98,-126 975.98,-126 972.98,-122 900.02,-122 900.02,-86 999.98,-86 999.98,-122"/>
<text text-anchor="middle" x="950" y="-99.8" font-family="Times,serif" font-size="14.00">LoggerModule</text>
</g>
<!-- TldrawTestModule -->
<g id="node4" class="node">
<title>TldrawTestModule</title>
<polygon fill="#8dd3c7" stroke="black" points="572.08,-187 569.08,-191 548.08,-191 545.08,-187 447.92,-187 447.92,-151 572.08,-151 572.08,-187"/>
<text text-anchor="middle" x="510" y="-164.8" font-family="Times,serif" font-size="14.00">TldrawTestModule</text>
</g>
<!-- LoggerModule&#45;&gt;TldrawTestModule -->
<g id="edge1" class="edge">
<title>LoggerModule&#45;&gt;TldrawTestModule</title>
<path fill="none" stroke="black" d="M950,-122.28C950,-143.32 950,-175 950,-175 950,-175 582.11,-175 582.11,-175"/>
<polygon fill="black" stroke="black" points="582.11,-171.5 572.11,-175 582.11,-178.5 582.11,-171.5"/>
</g>
<!-- MongoMemoryDatabaseModule -->
<g id="node2" class="node">
<title>MongoMemoryDatabaseModule</title>
<polygon fill="#8dd3c7" stroke="black" points="881.51,-122 878.51,-126 857.51,-126 854.51,-122 682.49,-122 682.49,-86 881.51,-86 881.51,-122"/>
<text text-anchor="middle" x="782" y="-99.8" font-family="Times,serif" font-size="14.00">MongoMemoryDatabaseModule</text>
</g>
<!-- MongoMemoryDatabaseModule&#45;&gt;TldrawTestModule -->
<g id="edge2" class="edge">
<title>MongoMemoryDatabaseModule&#45;&gt;TldrawTestModule</title>
<path fill="none" stroke="black" d="M782,-122.02C782,-139.37 782,-163 782,-163 782,-163 582.06,-163 582.06,-163"/>
<polygon fill="black" stroke="black" points="582.06,-159.5 572.06,-163 582.06,-166.5 582.06,-159.5"/>
</g>
<!-- RedisModule -->
<g id="node3" class="node">
<title>RedisModule</title>
<polygon fill="#8dd3c7" stroke="black" points="664.94,-122 661.94,-126 640.94,-126 637.94,-122 573.06,-122 573.06,-86 664.94,-86 664.94,-122"/>
<text text-anchor="middle" x="619" y="-99.8" font-family="Times,serif" font-size="14.00">RedisModule</text>
</g>
<!-- RedisModule&#45;&gt;TldrawTestModule -->
<g id="edge3" class="edge">
<title>RedisModule&#45;&gt;TldrawTestModule</title>
<path fill="none" stroke="black" d="M573.18,-104C565.77,-104 560.48,-104 560.48,-104 560.48,-104 560.48,-140.89 560.48,-140.89"/>
<polygon fill="black" stroke="black" points="556.98,-140.89 560.48,-150.89 563.98,-140.89 556.98,-140.89"/>
</g>
<!-- Logger -->
<g id="node5" class="node">
<title>Logger</title>
<ellipse fill="#fdb462" stroke="black" cx="510" cy="-104" rx="38.85" ry="18"/>
<text text-anchor="middle" x="510" y="-99.8" font-family="Times,serif" font-size="14.00">Logger</text>
</g>
<!-- Logger&#45;&gt;TldrawTestModule -->
<g id="edge4" class="edge">
<title>Logger&#45;&gt;TldrawTestModule</title>
<path fill="none" stroke="black" d="M510,-122.11C510,-122.11 510,-140.99 510,-140.99"/>
<polygon fill="black" stroke="black" points="506.5,-140.99 510,-150.99 513.5,-140.99 506.5,-140.99"/>
</g>
<!-- MetricsService -->
<g id="node6" class="node">
<title>MetricsService</title>
<ellipse fill="#fdb462" stroke="black" cx="384" cy="-104" rx="69.47" ry="18"/>
<text text-anchor="middle" x="384" y="-99.8" font-family="Times,serif" font-size="14.00">MetricsService</text>
</g>
<!-- MetricsService&#45;&gt;TldrawTestModule -->
<g id="edge5" class="edge">
<title>MetricsService&#45;&gt;TldrawTestModule</title>
<path fill="none" stroke="black" d="M453.61,-104C458.93,-104 462.28,-104 462.28,-104 462.28,-104 462.28,-140.89 462.28,-140.89"/>
<polygon fill="black" stroke="black" points="458.78,-140.89 462.28,-150.89 465.78,-140.89 458.78,-140.89"/>
</g>
<!-- TldrawRepo -->
<g id="node7" class="node">
<title>TldrawRepo</title>
<ellipse fill="#fdb462" stroke="black" cx="237" cy="-104" rx="59.11" ry="18"/>
<text text-anchor="middle" x="237" y="-99.8" font-family="Times,serif" font-size="14.00">TldrawRepo</text>
</g>
<!-- TldrawRepo&#45;&gt;TldrawTestModule -->
<g id="edge6" class="edge">
<title>TldrawRepo&#45;&gt;TldrawTestModule</title>
<path fill="none" stroke="black" d="M237,-122.02C237,-139.37 237,-163 237,-163 237,-163 437.71,-163 437.71,-163"/>
<polygon fill="black" stroke="black" points="437.71,-166.5 447.71,-163 437.71,-159.5 437.71,-166.5"/>
</g>
<!-- TldrawService -->
<g id="node8" class="node">
<title>TldrawService</title>
<ellipse fill="#fdb462" stroke="black" cx="92" cy="-104" rx="67.75" ry="18"/>
<text text-anchor="middle" x="92" y="-99.8" font-family="Times,serif" font-size="14.00">TldrawService</text>
</g>
<!-- TldrawService&#45;&gt;TldrawTestModule -->
<g id="edge7" class="edge">
<title>TldrawService&#45;&gt;TldrawTestModule</title>
<path fill="none" stroke="black" d="M92,-122.28C92,-143.32 92,-175 92,-175 92,-175 437.87,-175 437.87,-175"/>
<polygon fill="black" stroke="black" points="437.87,-178.5 447.87,-175 437.87,-171.5 437.87,-178.5"/>
</g>
</g>
</svg>
