<?xml version="1.0" encoding="UTF-8" standalone="no"?>
<!DOCTYPE svg PUBLIC "-//W3C//DTD SVG 1.1//EN"
 "http://www.w3.org/Graphics/SVG/1.1/DTD/svg11.dtd">
<!-- Generated by graphviz version 2.47.0 (20210316.0004)
 -->
<!-- Title: dependencies Pages: 1 -->
<svg width="923pt" height="211pt"
 viewBox="0.00 0.00 923.00 211.00" xmlns="http://www.w3.org/2000/svg" xmlns:xlink="http://www.w3.org/1999/xlink">
<g id="graph0" class="graph" transform="scale(1 1) rotate(0) translate(4 207)">
<title>dependencies</title>
<polygon fill="white" stroke="transparent" points="-4,4 -4,-207 919,-207 919,4 -4,4"/>
<text text-anchor="start" x="436.51" y="-42.4" font-family="Times-12" font-weight="bold" font-size="14.00">Legend</text>
<polygon fill="#ffffb3" stroke="transparent" points="223.5,-10 223.5,-30 243.5,-30 243.5,-10 223.5,-10"/>
<text text-anchor="start" x="247.13" y="-15.4" font-family="Times-12" font-size="14.00"> &#160;Declarations</text>
<polygon fill="#8dd3c7" stroke="transparent" points="336.5,-10 336.5,-30 356.5,-30 356.5,-10 336.5,-10"/>
<text text-anchor="start" x="360.23" y="-15.4" font-family="Times-12" font-size="14.00"> &#160;Module</text>
<polygon fill="#80b1d3" stroke="transparent" points="422.5,-10 422.5,-30 442.5,-30 442.5,-10 422.5,-10"/>
<text text-anchor="start" x="446.28" y="-15.4" font-family="Times-12" font-size="14.00"> &#160;Bootstrap</text>
<polygon fill="#fdb462" stroke="transparent" points="519.5,-10 519.5,-30 539.5,-30 539.5,-10 519.5,-10"/>
<text text-anchor="start" x="543.17" y="-15.4" font-family="Times-12" font-size="14.00"> &#160;Providers</text>
<polygon fill="#fb8072" stroke="transparent" points="615.5,-10 615.5,-30 635.5,-30 635.5,-10 615.5,-10"/>
<text text-anchor="start" x="639.23" y="-15.4" font-family="Times-12" font-size="14.00"> &#160;Exports</text>
<g id="clust1" class="cluster">
<title>cluster_TldrawTestModule</title>
<polygon fill="none" stroke="black" stroke-dasharray="1,5" points="8,-70 8,-195 907,-195 907,-70 8,-70"/>
</g>
<g id="clust3" class="cluster">
<title>cluster_TldrawTestModule_imports</title>
<polygon fill="none" stroke="black" points="565,-78 565,-130 899,-130 899,-78 565,-78"/>
</g>
<g id="clust6" class="cluster">
<title>cluster_TldrawTestModule_providers</title>
<polygon fill="none" stroke="black" points="16,-78 16,-130 557,-130 557,-78 16,-78"/>
</g>
<!-- LoggerModule -->
<g id="node1" class="node">
<title>LoggerModule</title>
<polygon fill="#8dd3c7" stroke="black" points="890.98,-122 887.98,-126 866.98,-126 863.98,-122 791.02,-122 791.02,-86 890.98,-86 890.98,-122"/>
<text text-anchor="middle" x="841" y="-99.8" font-family="Times,serif" font-size="14.00">LoggerModule</text>
</g>
<!-- TldrawTestModule -->
<g id="node3" class="node">
<title>TldrawTestModule</title>
<polygon fill="#8dd3c7" stroke="black" points="509.08,-187 506.08,-191 485.08,-191 482.08,-187 384.92,-187 384.92,-151 509.08,-151 509.08,-187"/>
<text text-anchor="middle" x="447" y="-164.8" font-family="Times,serif" font-size="14.00">TldrawTestModule</text>
</g>
<!-- LoggerModule&#45;&gt;TldrawTestModule -->
<g id="edge1" class="edge">
<title>LoggerModule&#45;&gt;TldrawTestModule</title>
<path fill="none" stroke="black" d="M841,-122.28C841,-143.32 841,-175 841,-175 841,-175 519.43,-175 519.43,-175"/>
<polygon fill="black" stroke="black" points="519.43,-171.5 509.43,-175 519.43,-178.5 519.43,-171.5"/>
</g>
<!-- MongoMemoryDatabaseModule -->
<g id="node2" class="node">
<title>MongoMemoryDatabaseModule</title>
<polygon fill="#8dd3c7" stroke="black" points="772.51,-122 769.51,-126 748.51,-126 745.51,-122 573.49,-122 573.49,-86 772.51,-86 772.51,-122"/>
<text text-anchor="middle" x="673" y="-99.8" font-family="Times,serif" font-size="14.00">MongoMemoryDatabaseModule</text>
</g>
<!-- MongoMemoryDatabaseModule&#45;&gt;TldrawTestModule -->
<g id="edge2" class="edge">
<title>MongoMemoryDatabaseModule&#45;&gt;TldrawTestModule</title>
<path fill="none" stroke="black" d="M673,-122.02C673,-139.37 673,-163 673,-163 673,-163 519.05,-163 519.05,-163"/>
<polygon fill="black" stroke="black" points="519.05,-159.5 509.05,-163 519.05,-166.5 519.05,-159.5"/>
</g>
<!-- Logger -->
<g id="node4" class="node">
<title>Logger</title>
<ellipse fill="#fdb462" stroke="black" cx="510" cy="-104" rx="38.85" ry="18"/>
<text text-anchor="middle" x="510" y="-99.8" font-family="Times,serif" font-size="14.00">Logger</text>
</g>
<!-- Logger&#45;&gt;TldrawTestModule -->
<g id="edge3" class="edge">
<title>Logger&#45;&gt;TldrawTestModule</title>
<path fill="none" stroke="black" d="M490.06,-119.73C490.06,-119.73 490.06,-140.65 490.06,-140.65"/>
<polygon fill="black" stroke="black" points="486.56,-140.65 490.06,-150.65 493.56,-140.65 486.56,-140.65"/>
</g>
<!-- MetricsService -->
<g id="node5" class="node">
<title>MetricsService</title>
<ellipse fill="#fdb462" stroke="black" cx="384" cy="-104" rx="69.47" ry="18"/>
<text text-anchor="middle" x="384" y="-99.8" font-family="Times,serif" font-size="14.00">MetricsService</text>
</g>
<!-- MetricsService&#45;&gt;TldrawTestModule -->
<g id="edge4" class="edge">
<title>MetricsService&#45;&gt;TldrawTestModule</title>
<path fill="none" stroke="black" d="M419.22,-119.73C419.22,-119.73 419.22,-140.65 419.22,-140.65"/>
<polygon fill="black" stroke="black" points="415.72,-140.65 419.22,-150.65 422.72,-140.65 415.72,-140.65"/>
</g>
<!-- TldrawRepo -->
<g id="node6" class="node">
<title>TldrawRepo</title>
<ellipse fill="#fdb462" stroke="black" cx="237" cy="-104" rx="59.11" ry="18"/>
<text text-anchor="middle" x="237" y="-99.8" font-family="Times,serif" font-size="14.00">TldrawRepo</text>
</g>
<!-- TldrawRepo&#45;&gt;TldrawTestModule -->
<g id="edge5" class="edge">
<title>TldrawRepo&#45;&gt;TldrawTestModule</title>
<path fill="none" stroke="black" d="M237,-122.02C237,-139.37 237,-163 237,-163 237,-163 374.85,-163 374.85,-163"/>
<polygon fill="black" stroke="black" points="374.85,-166.5 384.85,-163 374.85,-159.5 374.85,-166.5"/>
</g>
<!-- TldrawService -->
<g id="node7" class="node">
<title>TldrawService</title>
<ellipse fill="#fdb462" stroke="black" cx="92" cy="-104" rx="67.75" ry="18"/>
<text text-anchor="middle" x="92" y="-99.8" font-family="Times,serif" font-size="14.00">TldrawService</text>
</g>
<!-- TldrawService&#45;&gt;TldrawTestModule -->
<g id="edge6" class="edge">
<title>TldrawService&#45;&gt;TldrawTestModule</title>
<path fill="none" stroke="black" d="M92,-122.28C92,-143.32 92,-175 92,-175 92,-175 374.76,-175 374.76,-175"/>
<polygon fill="black" stroke="black" points="374.76,-178.5 384.76,-175 374.76,-171.5 374.76,-178.5"/>
</g>
</g>
</svg>
