<?xml version="1.0" encoding="UTF-8" standalone="no"?>
<!DOCTYPE svg PUBLIC "-//W3C//DTD SVG 1.1//EN"
 "http://www.w3.org/Graphics/SVG/1.1/DTD/svg11.dtd">
<!-- Generated by graphviz version 2.47.0 (20210316.0004)
 -->
<!-- Title: dependencies Pages: 1 -->
<svg width="1482pt" height="211pt"
 viewBox="0.00 0.00 1482.00 211.00" xmlns="http://www.w3.org/2000/svg" xmlns:xlink="http://www.w3.org/1999/xlink">
<g id="graph0" class="graph" transform="scale(1 1) rotate(0) translate(4 207)">
<title>dependencies</title>
<polygon fill="white" stroke="transparent" points="-4,4 -4,-207 1478,-207 1478,4 -4,4"/>
<text text-anchor="start" x="716.01" y="-42.4" font-family="Times-12" font-weight="bold" font-size="14.00">Legend</text>
<polygon fill="#ffffb3" stroke="transparent" points="503,-10 503,-30 523,-30 523,-10 503,-10"/>
<text text-anchor="start" x="526.63" y="-15.4" font-family="Times-12" font-size="14.00"> &#160;Declarations</text>
<polygon fill="#8dd3c7" stroke="transparent" points="616,-10 616,-30 636,-30 636,-10 616,-10"/>
<text text-anchor="start" x="639.73" y="-15.4" font-family="Times-12" font-size="14.00"> &#160;Module</text>
<polygon fill="#80b1d3" stroke="transparent" points="702,-10 702,-30 722,-30 722,-10 702,-10"/>
<text text-anchor="start" x="725.78" y="-15.4" font-family="Times-12" font-size="14.00"> &#160;Bootstrap</text>
<polygon fill="#fdb462" stroke="transparent" points="799,-10 799,-30 819,-30 819,-10 799,-10"/>
<text text-anchor="start" x="822.67" y="-15.4" font-family="Times-12" font-size="14.00"> &#160;Providers</text>
<polygon fill="#fb8072" stroke="transparent" points="895,-10 895,-30 915,-30 915,-10 895,-10"/>
<text text-anchor="start" x="918.73" y="-15.4" font-family="Times-12" font-size="14.00"> &#160;Exports</text>
<g id="clust1" class="cluster">
<title>cluster_TldrawTestModule</title>
<polygon fill="none" stroke="black" stroke-dasharray="1,5" points="8,-70 8,-195 1466,-195 1466,-70 8,-70"/>
</g>
<g id="clust3" class="cluster">
<title>cluster_TldrawTestModule_imports</title>
<polygon fill="none" stroke="black" points="386,-78 386,-130 1458,-130 1458,-78 386,-78"/>
</g>
<g id="clust6" class="cluster">
<title>cluster_TldrawTestModule_providers</title>
<polygon fill="none" stroke="black" points="16,-78 16,-130 378,-130 378,-78 16,-78"/>
</g>
<!-- AuthenticationApiModule -->
<g id="node1" class="node">
<title>AuthenticationApiModule</title>
<polygon fill="#8dd3c7" stroke="black" points="1449.75,-122 1446.75,-126 1425.75,-126 1422.75,-122 1286.25,-122 1286.25,-86 1449.75,-86 1449.75,-122"/>
<text text-anchor="middle" x="1368" y="-99.8" font-family="Times,serif" font-size="14.00">AuthenticationApiModule</text>
</g>
<!-- TldrawTestModule -->
<g id="node8" class="node">
<title>TldrawTestModule</title>
<polygon fill="#8dd3c7" stroke="black" points="860.08,-187 857.08,-191 836.08,-191 833.08,-187 735.92,-187 735.92,-151 860.08,-151 860.08,-187"/>
<text text-anchor="middle" x="798" y="-164.8" font-family="Times,serif" font-size="14.00">TldrawTestModule</text>
</g>
<!-- AuthenticationApiModule&#45;&gt;TldrawTestModule -->
<g id="edge1" class="edge">
<title>AuthenticationApiModule&#45;&gt;TldrawTestModule</title>
<path fill="none" stroke="black" d="M1368,-122.29C1368,-144.21 1368,-178 1368,-178 1368,-178 870.09,-178 870.09,-178"/>
<polygon fill="black" stroke="black" points="870.09,-174.5 860.09,-178 870.09,-181.5 870.09,-174.5"/>
</g>
<!-- AuthenticationModule -->
<g id="node2" class="node">
<title>AuthenticationModule</title>
<polygon fill="#8dd3c7" stroke="black" points="1268.25,-122 1265.25,-126 1244.25,-126 1241.25,-122 1125.75,-122 1125.75,-86 1268.25,-86 1268.25,-122"/>
<text text-anchor="middle" x="1197" y="-99.8" font-family="Times,serif" font-size="14.00">AuthenticationModule</text>
</g>
<!-- AuthenticationModule&#45;&gt;TldrawTestModule -->
<g id="edge2" class="edge">
<title>AuthenticationModule&#45;&gt;TldrawTestModule</title>
<path fill="none" stroke="black" d="M1197,-122.11C1197,-141.34 1197,-169 1197,-169 1197,-169 870.34,-169 870.34,-169"/>
<polygon fill="black" stroke="black" points="870.34,-165.5 860.34,-169 870.34,-172.5 870.34,-165.5"/>
</g>
<!-- AuthorizationModule -->
<g id="node3" class="node">
<title>AuthorizationModule</title>
<polygon fill="#8dd3c7" stroke="black" points="1107.81,-122 1104.81,-126 1083.81,-126 1080.81,-122 970.19,-122 970.19,-86 1107.81,-86 1107.81,-122"/>
<text text-anchor="middle" x="1039" y="-99.8" font-family="Times,serif" font-size="14.00">AuthorizationModule</text>
</g>
<!-- AuthorizationModule&#45;&gt;TldrawTestModule -->
<g id="edge3" class="edge">
<title>AuthorizationModule&#45;&gt;TldrawTestModule</title>
<path fill="none" stroke="black" d="M1039,-122.03C1039,-138.4 1039,-160 1039,-160 1039,-160 870.06,-160 870.06,-160"/>
<polygon fill="black" stroke="black" points="870.06,-156.5 860.06,-160 870.06,-163.5 870.06,-156.5"/>
</g>
<!-- CoreModule -->
<g id="node4" class="node">
<title>CoreModule</title>
<polygon fill="#8dd3c7" stroke="black" points="952.26,-122 949.26,-126 928.26,-126 925.26,-122 865.74,-122 865.74,-86 952.26,-86 952.26,-122"/>
<text text-anchor="middle" x="909" y="-99.8" font-family="Times,serif" font-size="14.00">CoreModule</text>
</g>
<!-- CoreModule&#45;&gt;TldrawTestModule -->
<g id="edge4" class="edge">
<title>CoreModule&#45;&gt;TldrawTestModule</title>
<path fill="none" stroke="black" d="M865.67,-104C858.86,-104 854.01,-104 854.01,-104 854.01,-104 854.01,-140.89 854.01,-140.89"/>
<polygon fill="black" stroke="black" points="850.51,-140.89 854.01,-150.89 857.51,-140.89 850.51,-140.89"/>
</g>
<!-- LoggerModule -->
<g id="node5" class="node">
<title>LoggerModule</title>
<polygon fill="#8dd3c7" stroke="black" points="847.98,-122 844.98,-126 823.98,-126 820.98,-122 748.02,-122 748.02,-86 847.98,-86 847.98,-122"/>
<text text-anchor="middle" x="798" y="-99.8" font-family="Times,serif" font-size="14.00">LoggerModule</text>
</g>
<!-- LoggerModule&#45;&gt;TldrawTestModule -->
<g id="edge5" class="edge">
<title>LoggerModule&#45;&gt;TldrawTestModule</title>
<path fill="none" stroke="black" d="M798,-122.11C798,-122.11 798,-140.99 798,-140.99"/>
<polygon fill="black" stroke="black" points="794.5,-140.99 798,-150.99 801.5,-140.99 794.5,-140.99"/>
</g>
<!-- MongoMemoryDatabaseModule -->
<g id="node6" class="node">
<title>MongoMemoryDatabaseModule</title>
<polygon fill="#8dd3c7" stroke="black" points="729.51,-122 726.51,-126 705.51,-126 702.51,-122 530.49,-122 530.49,-86 729.51,-86 729.51,-122"/>
<text text-anchor="middle" x="630" y="-99.8" font-family="Times,serif" font-size="14.00">MongoMemoryDatabaseModule</text>
</g>
<!-- MongoMemoryDatabaseModule&#45;&gt;TldrawTestModule -->
<g id="edge6" class="edge">
<title>MongoMemoryDatabaseModule&#45;&gt;TldrawTestModule</title>
<path fill="none" stroke="black" d="M729.57,-104C737.19,-104 741.99,-104 741.99,-104 741.99,-104 741.99,-140.89 741.99,-140.89"/>
<polygon fill="black" stroke="black" points="738.49,-140.89 741.99,-150.89 745.49,-140.89 738.49,-140.89"/>
</g>
<!-- TldrawWsModule -->
<g id="node7" class="node">
<title>TldrawWsModule</title>
<polygon fill="#8dd3c7" stroke="black" points="512.13,-122 509.13,-126 488.13,-126 485.13,-122 393.87,-122 393.87,-86 512.13,-86 512.13,-122"/>
<text text-anchor="middle" x="453" y="-99.8" font-family="Times,serif" font-size="14.00">TldrawWsModule</text>
</g>
<!-- TldrawWsModule&#45;&gt;TldrawTestModule -->
<g id="edge7" class="edge">
<title>TldrawWsModule&#45;&gt;TldrawTestModule</title>
<path fill="none" stroke="black" d="M453,-122.03C453,-138.4 453,-160 453,-160 453,-160 725.92,-160 725.92,-160"/>
<polygon fill="black" stroke="black" points="725.92,-163.5 735.92,-160 725.92,-156.5 725.92,-163.5"/>
</g>
<!-- TldrawBoardRepo -->
<g id="node9" class="node">
<title>TldrawBoardRepo</title>
<ellipse fill="#fdb462" stroke="black" cx="287" cy="-104" rx="82.81" ry="18"/>
<text text-anchor="middle" x="287" y="-99.8" font-family="Times,serif" font-size="14.00">TldrawBoardRepo</text>
</g>
<!-- TldrawBoardRepo&#45;&gt;TldrawTestModule -->
<g id="edge8" class="edge">
<title>TldrawBoardRepo&#45;&gt;TldrawTestModule</title>
<path fill="none" stroke="black" d="M287,-122.11C287,-141.34 287,-169 287,-169 287,-169 725.85,-169 725.85,-169"/>
<polygon fill="black" stroke="black" points="725.85,-172.5 735.85,-169 725.85,-165.5 725.85,-172.5"/>
</g>
<!-- TldrawWsService -->
<g id="node10" class="node">
<title>TldrawWsService</title>
<ellipse fill="#fdb462" stroke="black" cx="105" cy="-104" rx="80.99" ry="18"/>
<text text-anchor="middle" x="105" y="-99.8" font-family="Times,serif" font-size="14.00">TldrawWsService</text>
</g>
<!-- TldrawWsService&#45;&gt;TldrawTestModule -->
<g id="edge9" class="edge">
<title>TldrawWsService&#45;&gt;TldrawTestModule</title>
<path fill="none" stroke="black" d="M105,-122.29C105,-144.21 105,-178 105,-178 105,-178 725.89,-178 725.89,-178"/>
<polygon fill="black" stroke="black" points="725.89,-181.5 735.89,-178 725.89,-174.5 725.89,-181.5"/>
</g>
</g>
</svg>
