<?xml version="1.0" encoding="UTF-8" standalone="no"?>
<!DOCTYPE svg PUBLIC "-//W3C//DTD SVG 1.1//EN"
 "http://www.w3.org/Graphics/SVG/1.1/DTD/svg11.dtd">
<!-- Generated by graphviz version 2.47.0 (20210316.0004)
 -->
<!-- Title: dependencies Pages: 1 -->
<svg width="5137pt" height="284pt"
 viewBox="0.00 0.00 5137.00 284.00" xmlns="http://www.w3.org/2000/svg" xmlns:xlink="http://www.w3.org/1999/xlink">
<g id="graph0" class="graph" transform="scale(1 1) rotate(0) translate(4 280)">
<title>dependencies</title>
<polygon fill="white" stroke="transparent" points="-4,4 -4,-280 5133,-280 5133,4 -4,4"/>
<text text-anchor="start" x="2543.51" y="-42.4" font-family="Times-12" font-weight="bold" font-size="14.00">Legend</text>
<polygon fill="#ffffb3" stroke="transparent" points="2330.5,-10 2330.5,-30 2350.5,-30 2350.5,-10 2330.5,-10"/>
<text text-anchor="start" x="2354.13" y="-15.4" font-family="Times-12" font-size="14.00"> &#160;Declarations</text>
<polygon fill="#8dd3c7" stroke="transparent" points="2443.5,-10 2443.5,-30 2463.5,-30 2463.5,-10 2443.5,-10"/>
<text text-anchor="start" x="2467.23" y="-15.4" font-family="Times-12" font-size="14.00"> &#160;Module</text>
<polygon fill="#80b1d3" stroke="transparent" points="2529.5,-10 2529.5,-30 2549.5,-30 2549.5,-10 2529.5,-10"/>
<text text-anchor="start" x="2553.28" y="-15.4" font-family="Times-12" font-size="14.00"> &#160;Bootstrap</text>
<polygon fill="#fdb462" stroke="transparent" points="2626.5,-10 2626.5,-30 2646.5,-30 2646.5,-10 2626.5,-10"/>
<text text-anchor="start" x="2650.17" y="-15.4" font-family="Times-12" font-size="14.00"> &#160;Providers</text>
<polygon fill="#fb8072" stroke="transparent" points="2722.5,-10 2722.5,-30 2742.5,-30 2742.5,-10 2722.5,-10"/>
<text text-anchor="start" x="2746.23" y="-15.4" font-family="Times-12" font-size="14.00"> &#160;Exports</text>
<g id="clust1" class="cluster">
<title>cluster_ProvisioningModule</title>
<polygon fill="none" stroke="black" stroke-dasharray="1,5" points="8,-70 8,-268 5121,-268 5121,-70 8,-70"/>
</g>
<g id="clust4" class="cluster">
<title>cluster_ProvisioningModule_exports</title>
<polygon fill="none" stroke="black" points="1650,-208 1650,-260 1800,-260 1800,-208 1650,-208"/>
</g>
<g id="clust6" class="cluster">
<title>cluster_ProvisioningModule_providers</title>
<polygon fill="none" stroke="black" points="1863,-78 1863,-130 5113,-130 5113,-78 1863,-78"/>
</g>
<g id="clust3" class="cluster">
<title>cluster_ProvisioningModule_imports</title>
<polygon fill="none" stroke="black" points="16,-78 16,-130 1855,-130 1855,-78 16,-78"/>
</g>
<!-- AccountModule -->
<g id="node1" class="node">
<title>AccountModule</title>
<polygon fill="#8dd3c7" stroke="black" points="1847.48,-122 1844.48,-126 1823.48,-126 1820.48,-122 1740.52,-122 1740.52,-86 1847.48,-86 1847.48,-122"/>
<text text-anchor="middle" x="1794" y="-99.8" font-family="Times,serif" font-size="14.00">AccountModule</text>
</g>
<!-- ProvisioningModule -->
<g id="node14" class="node">
<title>ProvisioningModule</title>
<polygon fill="#8dd3c7" stroke="black" points="1790.61,-187 1787.61,-191 1766.61,-191 1763.61,-187 1659.39,-187 1659.39,-151 1790.61,-151 1790.61,-187"/>
<text text-anchor="middle" x="1725" y="-164.8" font-family="Times,serif" font-size="14.00">ProvisioningModule</text>
</g>
<!-- AccountModule&#45;&gt;ProvisioningModule -->
<g id="edge1" class="edge">
<title>AccountModule&#45;&gt;ProvisioningModule</title>
<path fill="none" stroke="black" d="M1765.53,-122.11C1765.53,-122.11 1765.53,-140.99 1765.53,-140.99"/>
<polygon fill="black" stroke="black" points="1762.03,-140.99 1765.53,-150.99 1769.03,-140.99 1762.03,-140.99"/>
</g>
<!-- ExternalToolModule -->
<g id="node2" class="node">
<title>ExternalToolModule</title>
<polygon fill="#8dd3c7" stroke="black" points="1722.92,-122 1719.92,-126 1698.92,-126 1695.92,-122 1589.08,-122 1589.08,-86 1722.92,-86 1722.92,-122"/>
<text text-anchor="middle" x="1656" y="-99.8" font-family="Times,serif" font-size="14.00">ExternalToolModule</text>
</g>
<!-- ExternalToolModule&#45;&gt;ProvisioningModule -->
<g id="edge2" class="edge">
<title>ExternalToolModule&#45;&gt;ProvisioningModule</title>
<path fill="none" stroke="black" d="M1691.08,-122.11C1691.08,-122.11 1691.08,-140.99 1691.08,-140.99"/>
<polygon fill="black" stroke="black" points="1687.58,-140.99 1691.08,-150.99 1694.58,-140.99 1687.58,-140.99"/>
</g>
<!-- GroupModule -->
<g id="node3" class="node">
<title>GroupModule</title>
<polygon fill="#8dd3c7" stroke="black" points="1571.82,-122 1568.82,-126 1547.82,-126 1544.82,-122 1476.18,-122 1476.18,-86 1571.82,-86 1571.82,-122"/>
<text text-anchor="middle" x="1524" y="-99.8" font-family="Times,serif" font-size="14.00">GroupModule</text>
</g>
<!-- GroupModule&#45;&gt;ProvisioningModule -->
<g id="edge3" class="edge">
<title>GroupModule&#45;&gt;ProvisioningModule</title>
<path fill="none" stroke="black" d="M1524,-122.05C1524,-136.37 1524,-154 1524,-154 1524,-154 1649.19,-154 1649.19,-154"/>
<polygon fill="black" stroke="black" points="1649.19,-157.5 1659.19,-154 1649.19,-150.5 1649.19,-157.5"/>
</g>
<!-- LearnroomModule -->
<g id="node4" class="node">
<title>LearnroomModule</title>
<polygon fill="#8dd3c7" stroke="black" points="1457.74,-122 1454.74,-126 1433.74,-126 1430.74,-122 1336.26,-122 1336.26,-86 1457.74,-86 1457.74,-122"/>
<text text-anchor="middle" x="1397" y="-99.8" font-family="Times,serif" font-size="14.00">LearnroomModule</text>
</g>
<!-- LearnroomModule&#45;&gt;ProvisioningModule -->
<g id="edge4" class="edge">
<title>LearnroomModule&#45;&gt;ProvisioningModule</title>
<path fill="none" stroke="black" d="M1397,-122.24C1397,-137.57 1397,-157 1397,-157 1397,-157 1649.41,-157 1649.41,-157"/>
<polygon fill="black" stroke="black" points="1649.41,-160.5 1659.41,-157 1649.41,-153.5 1649.41,-160.5"/>
</g>
<!-- LegacySchoolModule -->
<g id="node5" class="node">
<title>LegacySchoolModule</title>
<polygon fill="#8dd3c7" stroke="black" points="1317.63,-122 1314.63,-126 1293.63,-126 1290.63,-122 1178.37,-122 1178.37,-86 1317.63,-86 1317.63,-122"/>
<text text-anchor="middle" x="1248" y="-99.8" font-family="Times,serif" font-size="14.00">LegacySchoolModule</text>
</g>
<!-- LegacySchoolModule&#45;&gt;ProvisioningModule -->
<g id="edge5" class="edge">
<title>LegacySchoolModule&#45;&gt;ProvisioningModule</title>
<path fill="none" stroke="black" d="M1248,-122.03C1248,-138.4 1248,-160 1248,-160 1248,-160 1649.18,-160 1649.18,-160"/>
<polygon fill="black" stroke="black" points="1649.18,-163.5 1659.18,-160 1649.18,-156.5 1649.18,-163.5"/>
</g>
<!-- LoggerModule -->
<g id="node6" class="node">
<title>LoggerModule</title>
<polygon fill="#8dd3c7" stroke="black" points="1159.98,-122 1156.98,-126 1135.98,-126 1132.98,-122 1060.02,-122 1060.02,-86 1159.98,-86 1159.98,-122"/>
<text text-anchor="middle" x="1110" y="-99.8" font-family="Times,serif" font-size="14.00">LoggerModule</text>
</g>
<!-- LoggerModule&#45;&gt;ProvisioningModule -->
<g id="edge6" class="edge">
<title>LoggerModule&#45;&gt;ProvisioningModule</title>
<path fill="none" stroke="black" d="M1110,-122.02C1110,-139.37 1110,-163 1110,-163 1110,-163 1649.18,-163 1649.18,-163"/>
<polygon fill="black" stroke="black" points="1649.18,-166.5 1659.18,-163 1649.18,-159.5 1649.18,-166.5"/>
</g>
<!-- ProvisioningConfigModule -->
<g id="node7" class="node">
<title>ProvisioningConfigModule</title>
<polygon fill="#8dd3c7" stroke="black" points="1042,-122 1039,-126 1018,-126 1015,-122 872,-122 872,-86 1042,-86 1042,-122"/>
<text text-anchor="middle" x="957" y="-99.8" font-family="Times,serif" font-size="14.00">ProvisioningConfigModule</text>
</g>
<!-- ProvisioningConfigModule&#45;&gt;ProvisioningModule -->
<g id="edge7" class="edge">
<title>ProvisioningConfigModule&#45;&gt;ProvisioningModule</title>
<path fill="none" stroke="black" d="M957,-122.27C957,-140.56 957,-166 957,-166 957,-166 1649.19,-166 1649.19,-166"/>
<polygon fill="black" stroke="black" points="1649.19,-169.5 1659.19,-166 1649.19,-162.5 1649.19,-169.5"/>
</g>
<!-- RoleModule -->
<g id="node8" class="node">
<title>RoleModule</title>
<polygon fill="#8dd3c7" stroke="black" points="853.99,-122 850.99,-126 829.99,-126 826.99,-122 768.01,-122 768.01,-86 853.99,-86 853.99,-122"/>
<text text-anchor="middle" x="811" y="-99.8" font-family="Times,serif" font-size="14.00">RoleModule</text>
</g>
<!-- RoleModule&#45;&gt;ProvisioningModule -->
<g id="edge8" class="edge">
<title>RoleModule&#45;&gt;ProvisioningModule</title>
<path fill="none" stroke="black" d="M811,-122.11C811,-141.34 811,-169 811,-169 811,-169 1649.27,-169 1649.27,-169"/>
<polygon fill="black" stroke="black" points="1649.27,-172.5 1659.27,-169 1649.27,-165.5 1649.27,-172.5"/>
</g>
<!-- SchoolExternalToolModule -->
<g id="node9" class="node">
<title>SchoolExternalToolModule</title>
<polygon fill="#8dd3c7" stroke="black" points="750.3,-122 747.3,-126 726.3,-126 723.3,-122 577.7,-122 577.7,-86 750.3,-86 750.3,-122"/>
<text text-anchor="middle" x="664" y="-99.8" font-family="Times,serif" font-size="14.00">SchoolExternalToolModule</text>
</g>
<!-- SchoolExternalToolModule&#45;&gt;ProvisioningModule -->
<g id="edge9" class="edge">
<title>SchoolExternalToolModule&#45;&gt;ProvisioningModule</title>
<path fill="none" stroke="black" d="M664,-122.22C664,-142.37 664,-172 664,-172 664,-172 1649.43,-172 1649.43,-172"/>
<polygon fill="black" stroke="black" points="1649.43,-175.5 1659.43,-172 1649.43,-168.5 1649.43,-175.5"/>
</g>
<!-- SchulconnexClientModule -->
<g id="node10" class="node">
<title>SchulconnexClientModule</title>
<polygon fill="#8dd3c7" stroke="black" points="560.09,-122 557.09,-126 536.09,-126 533.09,-122 393.91,-122 393.91,-86 560.09,-86 560.09,-122"/>
<text text-anchor="middle" x="477" y="-99.8" font-family="Times,serif" font-size="14.00">SchulconnexClientModule</text>
</g>
<!-- SchulconnexClientModule&#45;&gt;ProvisioningModule -->
<g id="edge10" class="edge">
<title>SchulconnexClientModule&#45;&gt;ProvisioningModule</title>
<path fill="none" stroke="black" d="M477,-122.28C477,-143.32 477,-175 477,-175 477,-175 1649.22,-175 1649.22,-175"/>
<polygon fill="black" stroke="black" points="1649.22,-178.5 1659.22,-175 1649.22,-171.5 1649.22,-178.5"/>
</g>
<!-- SystemModule -->
<g id="node11" class="node">
<title>SystemModule</title>
<polygon fill="#8dd3c7" stroke="black" points="376.27,-122 373.27,-126 352.27,-126 349.27,-122 275.73,-122 275.73,-86 376.27,-86 376.27,-122"/>
<text text-anchor="middle" x="326" y="-99.8" font-family="Times,serif" font-size="14.00">SystemModule</text>
</g>
<!-- SystemModule&#45;&gt;ProvisioningModule -->
<g id="edge11" class="edge">
<title>SystemModule&#45;&gt;ProvisioningModule</title>
<path fill="none" stroke="black" d="M326,-122.29C326,-144.21 326,-178 326,-178 326,-178 1649.4,-178 1649.4,-178"/>
<polygon fill="black" stroke="black" points="1649.4,-181.5 1659.4,-178 1649.4,-174.5 1649.4,-181.5"/>
</g>
<!-- UserLicenseModule -->
<g id="node12" class="node">
<title>UserLicenseModule</title>
<polygon fill="#8dd3c7" stroke="black" points="257.51,-122 254.51,-126 233.51,-126 230.51,-122 128.49,-122 128.49,-86 257.51,-86 257.51,-122"/>
<text text-anchor="middle" x="193" y="-99.8" font-family="Times,serif" font-size="14.00">UserLicenseModule</text>
</g>
<!-- UserLicenseModule&#45;&gt;ProvisioningModule -->
<g id="edge12" class="edge">
<title>UserLicenseModule&#45;&gt;ProvisioningModule</title>
<path fill="none" stroke="black" d="M193,-122.25C193,-145.02 193,-181 193,-181 193,-181 1649.17,-181 1649.17,-181"/>
<polygon fill="black" stroke="black" points="1649.17,-184.5 1659.17,-181 1649.17,-177.5 1649.17,-184.5"/>
</g>
<!-- UserModule -->
<g id="node13" class="node">
<title>UserModule</title>
<polygon fill="#8dd3c7" stroke="black" points="109.98,-122 106.98,-126 85.98,-126 82.98,-122 24.02,-122 24.02,-86 109.98,-86 109.98,-122"/>
<text text-anchor="middle" x="67" y="-99.8" font-family="Times,serif" font-size="14.00">UserModule</text>
</g>
<!-- UserModule&#45;&gt;ProvisioningModule -->
<g id="edge13" class="edge">
<title>UserModule&#45;&gt;ProvisioningModule</title>
<path fill="none" stroke="black" d="M67,-122.15C67,-145.76 67,-184 67,-184 67,-184 1649.24,-184 1649.24,-184"/>
<polygon fill="black" stroke="black" points="1649.24,-187.5 1659.24,-184 1649.24,-180.5 1649.24,-187.5"/>
</g>
<!-- ProvisioningService  -->
<g id="node15" class="node">
<title>ProvisioningService </title>
<polygon fill="#fb8072" stroke="black" points="1791.54,-252 1658.46,-252 1658.46,-216 1791.54,-216 1791.54,-252"/>
<text text-anchor="middle" x="1725" y="-229.8" font-family="Times,serif" font-size="14.00">ProvisioningService </text>
</g>
<!-- ProvisioningModule&#45;&gt;ProvisioningService  -->
<g id="edge14" class="edge">
<title>ProvisioningModule&#45;&gt;ProvisioningService </title>
<path fill="none" stroke="black" stroke-dasharray="5,2" d="M1725,-187.11C1725,-187.11 1725,-205.99 1725,-205.99"/>
<polygon fill="black" stroke="black" points="1721.5,-205.99 1725,-215.99 1728.5,-205.99 1721.5,-205.99"/>
</g>
<!-- IservProvisioningStrategy -->
<g id="node16" class="node">
<title>IservProvisioningStrategy</title>
<ellipse fill="#fdb462" stroke="black" cx="4993" cy="-104" rx="111.76" ry="18"/>
<text text-anchor="middle" x="4993" y="-99.8" font-family="Times,serif" font-size="14.00">IservProvisioningStrategy</text>
</g>
<!-- IservProvisioningStrategy&#45;&gt;ProvisioningModule -->
<g id="edge15" class="edge">
<title>IservProvisioningStrategy&#45;&gt;ProvisioningModule</title>
<path fill="none" stroke="black" d="M4993,-122.15C4993,-145.76 4993,-184 4993,-184 4993,-184 1800.65,-184 1800.65,-184"/>
<polygon fill="black" stroke="black" points="1800.65,-180.5 1790.65,-184 1800.65,-187.5 1800.65,-180.5"/>
</g>
<!-- OidcMockProvisioningStrategy -->
<g id="node17" class="node">
<title>OidcMockProvisioningStrategy</title>
<ellipse fill="#fdb462" stroke="black" cx="4729" cy="-104" rx="133.75" ry="18"/>
<text text-anchor="middle" x="4729" y="-99.8" font-family="Times,serif" font-size="14.00">OidcMockProvisioningStrategy</text>
</g>
<!-- OidcMockProvisioningStrategy&#45;&gt;ProvisioningModule -->
<g id="edge16" class="edge">
<title>OidcMockProvisioningStrategy&#45;&gt;ProvisioningModule</title>
<path fill="none" stroke="black" d="M4729,-122.25C4729,-145.02 4729,-181 4729,-181 4729,-181 1800.89,-181 1800.89,-181"/>
<polygon fill="black" stroke="black" points="1800.89,-177.5 1790.89,-181 1800.89,-184.5 1800.89,-177.5"/>
</g>
<!-- ProvisioningService -->
<g id="node18" class="node">
<title>ProvisioningService</title>
<ellipse fill="#fdb462" stroke="black" cx="4488" cy="-104" rx="89.21" ry="18"/>
<text text-anchor="middle" x="4488" y="-99.8" font-family="Times,serif" font-size="14.00">ProvisioningService</text>
</g>
<!-- ProvisioningService&#45;&gt;ProvisioningModule -->
<g id="edge17" class="edge">
<title>ProvisioningService&#45;&gt;ProvisioningModule</title>
<path fill="none" stroke="black" d="M4488,-122.29C4488,-144.21 4488,-178 4488,-178 4488,-178 1800.57,-178 1800.57,-178"/>
<polygon fill="black" stroke="black" points="1800.57,-174.5 1790.57,-178 1800.57,-181.5 1800.57,-174.5"/>
</g>
<!-- SanisProvisioningStrategy -->
<g id="node19" class="node">
<title>SanisProvisioningStrategy</title>
<ellipse fill="#fdb462" stroke="black" cx="4267" cy="-104" rx="113.5" ry="18"/>
<text text-anchor="middle" x="4267" y="-99.8" font-family="Times,serif" font-size="14.00">SanisProvisioningStrategy</text>
</g>
<!-- SanisProvisioningStrategy&#45;&gt;ProvisioningModule -->
<g id="edge18" class="edge">
<title>SanisProvisioningStrategy&#45;&gt;ProvisioningModule</title>
<path fill="none" stroke="black" d="M4267,-122.28C4267,-143.32 4267,-175 4267,-175 4267,-175 1800.71,-175 1800.71,-175"/>
<polygon fill="black" stroke="black" points="1800.71,-171.5 1790.71,-175 1800.71,-178.5 1800.71,-171.5"/>
</g>
<!-- SchulconnexCourseSyncService -->
<g id="node20" class="node">
<title>SchulconnexCourseSyncService</title>
<ellipse fill="#fdb462" stroke="black" cx="3999" cy="-104" rx="136.58" ry="18"/>
<text text-anchor="middle" x="3999" y="-99.8" font-family="Times,serif" font-size="14.00">SchulconnexCourseSyncService</text>
</g>
<!-- SchulconnexCourseSyncService&#45;&gt;ProvisioningModule -->
<g id="edge19" class="edge">
<title>SchulconnexCourseSyncService&#45;&gt;ProvisioningModule</title>
<path fill="none" stroke="black" d="M3999,-122.22C3999,-142.37 3999,-172 3999,-172 3999,-172 1800.6,-172 1800.6,-172"/>
<polygon fill="black" stroke="black" points="1800.6,-168.5 1790.6,-172 1800.6,-175.5 1800.6,-168.5"/>
</g>
<!-- SchulconnexGroupProvisioningService -->
<g id="node21" class="node">
<title>SchulconnexGroupProvisioningService</title>
<ellipse fill="#fdb462" stroke="black" cx="3681" cy="-104" rx="163.81" ry="18"/>
<text text-anchor="middle" x="3681" y="-99.8" font-family="Times,serif" font-size="14.00">SchulconnexGroupProvisioningService</text>
</g>
<!-- SchulconnexGroupProvisioningService&#45;&gt;ProvisioningModule -->
<g id="edge20" class="edge">
<title>SchulconnexGroupProvisioningService&#45;&gt;ProvisioningModule</title>
<path fill="none" stroke="black" d="M3681,-122.11C3681,-141.34 3681,-169 3681,-169 3681,-169 1800.64,-169 1800.64,-169"/>
<polygon fill="black" stroke="black" points="1800.64,-165.5 1790.64,-169 1800.64,-172.5 1800.64,-165.5"/>
</g>
<!-- SchulconnexLicenseProvisioningService -->
<g id="node22" class="node">
<title>SchulconnexLicenseProvisioningService</title>
<ellipse fill="#fdb462" stroke="black" cx="3330" cy="-104" rx="169.03" ry="18"/>
<text text-anchor="middle" x="3330" y="-99.8" font-family="Times,serif" font-size="14.00">SchulconnexLicenseProvisioningService</text>
</g>
<!-- SchulconnexLicenseProvisioningService&#45;&gt;ProvisioningModule -->
<g id="edge21" class="edge">
<title>SchulconnexLicenseProvisioningService&#45;&gt;ProvisioningModule</title>
<path fill="none" stroke="black" d="M3330,-122.27C3330,-140.56 3330,-166 3330,-166 3330,-166 1800.66,-166 1800.66,-166"/>
<polygon fill="black" stroke="black" points="1800.66,-162.5 1790.66,-166 1800.66,-169.5 1800.66,-162.5"/>
</g>
<!-- SchulconnexResponseMapper -->
<g id="node23" class="node">
<title>SchulconnexResponseMapper</title>
<ellipse fill="#fdb462" stroke="black" cx="3015" cy="-104" rx="127.92" ry="18"/>
<text text-anchor="middle" x="3015" y="-99.8" font-family="Times,serif" font-size="14.00">SchulconnexResponseMapper</text>
</g>
<!-- SchulconnexResponseMapper&#45;&gt;ProvisioningModule -->
<g id="edge22" class="edge">
<title>SchulconnexResponseMapper&#45;&gt;ProvisioningModule</title>
<path fill="none" stroke="black" d="M3015,-122.02C3015,-139.37 3015,-163 3015,-163 3015,-163 1800.74,-163 1800.74,-163"/>
<polygon fill="black" stroke="black" points="1800.74,-159.5 1790.74,-163 1800.74,-166.5 1800.74,-159.5"/>
</g>
<!-- SchulconnexSchoolProvisioningService -->
<g id="node24" class="node">
<title>SchulconnexSchoolProvisioningService</title>
<ellipse fill="#fdb462" stroke="black" cx="2703" cy="-104" rx="166.12" ry="18"/>
<text text-anchor="middle" x="2703" y="-99.8" font-family="Times,serif" font-size="14.00">SchulconnexSchoolProvisioningService</text>
</g>
<!-- SchulconnexSchoolProvisioningService&#45;&gt;ProvisioningModule -->
<g id="edge23" class="edge">
<title>SchulconnexSchoolProvisioningService&#45;&gt;ProvisioningModule</title>
<path fill="none" stroke="black" d="M2703,-122.03C2703,-138.4 2703,-160 2703,-160 2703,-160 1800.69,-160 1800.69,-160"/>
<polygon fill="black" stroke="black" points="1800.69,-156.5 1790.69,-160 1800.69,-163.5 1800.69,-156.5"/>
</g>
<!-- SchulconnexToolProvisioningService -->
<g id="node25" class="node">
<title>SchulconnexToolProvisioningService</title>
<ellipse fill="#fdb462" stroke="black" cx="2361" cy="-104" rx="157.45" ry="18"/>
<text text-anchor="middle" x="2361" y="-99.8" font-family="Times,serif" font-size="14.00">SchulconnexToolProvisioningService</text>
</g>
<!-- SchulconnexToolProvisioningService&#45;&gt;ProvisioningModule -->
<g id="edge24" class="edge">
<title>SchulconnexToolProvisioningService&#45;&gt;ProvisioningModule</title>
<path fill="none" stroke="black" d="M2361,-122.24C2361,-137.57 2361,-157 2361,-157 2361,-157 1800.67,-157 1800.67,-157"/>
<polygon fill="black" stroke="black" points="1800.67,-153.5 1790.67,-157 1800.67,-160.5 1800.67,-153.5"/>
</g>
<!-- SchulconnexUserProvisioningService -->
<g id="node26" class="node">
<title>SchulconnexUserProvisioningService</title>
<ellipse fill="#fdb462" stroke="black" cx="2028" cy="-104" rx="157.43" ry="18"/>
<text text-anchor="middle" x="2028" y="-99.8" font-family="Times,serif" font-size="14.00">SchulconnexUserProvisioningService</text>
</g>
<!-- SchulconnexUserProvisioningService&#45;&gt;ProvisioningModule -->
<g id="edge25" class="edge">
<title>SchulconnexUserProvisioningService&#45;&gt;ProvisioningModule</title>
<path fill="none" stroke="black" d="M2028,-122.05C2028,-136.37 2028,-154 2028,-154 2028,-154 1800.75,-154 1800.75,-154"/>
<polygon fill="black" stroke="black" points="1800.75,-150.5 1790.75,-154 1800.75,-157.5 1800.75,-150.5"/>
</g>
</g>
</svg>
