<?xml version="1.0" encoding="UTF-8" standalone="no"?>
<!DOCTYPE svg PUBLIC "-//W3C//DTD SVG 1.1//EN"
 "http://www.w3.org/Graphics/SVG/1.1/DTD/svg11.dtd">
<!-- Generated by graphviz version 5.0.0 (20220707.1540)
 -->
<!-- Title: dependencies Pages: 1 -->
<svg width="2149pt" height="247pt"
 viewBox="0.00 0.00 2149.00 246.80" xmlns="http://www.w3.org/2000/svg" xmlns:xlink="http://www.w3.org/1999/xlink">
<g id="graph0" class="graph" transform="scale(1 1) rotate(0) translate(4 242.8)">
<title>dependencies</title>
<polygon fill="white" stroke="transparent" points="-4,4 -4,-242.8 2145,-242.8 2145,4 -4,4"/>
<text text-anchor="middle" x="1070.5" y="-8.2" font-family="sans-serif" font-size="14.00">dependencies</text>
<g id="clust1" class="cluster">
<title>cluster_ProvisioningModule</title>
<polygon fill="none" stroke="black" stroke-dasharray="1,5" points="8,-32.8 8,-230.8 2133,-230.8 2133,-32.8 8,-32.8"/>
</g>
<g id="clust6" class="cluster">
<title>cluster_ProvisioningModule_providers</title>
<polygon fill="none" stroke="black" points="707,-40.8 707,-92.8 2125,-92.8 2125,-40.8 707,-40.8"/>
</g>
<g id="clust3" class="cluster">
<title>cluster_ProvisioningModule_imports</title>
<polygon fill="none" stroke="black" points="16,-40.8 16,-92.8 699,-92.8 699,-40.8 16,-40.8"/>
</g>
<g id="clust4" class="cluster">
<title>cluster_ProvisioningModule_exports</title>
<polygon fill="none" stroke="black" points="651,-170.8 651,-222.8 801,-222.8 801,-170.8 651,-170.8"/>
</g>
<!-- AccountModule -->
<g id="node1" class="node">
<title>AccountModule</title>
<polygon fill="#8dd3c7" stroke="black" points="691.48,-84.8 688.48,-88.8 667.48,-88.8 664.48,-84.8 584.52,-84.8 584.52,-48.8 691.48,-48.8 691.48,-84.8"/>
<text text-anchor="middle" x="638" y="-62.6" font-family="Times,serif" font-size="14.00">AccountModule</text>
</g>
<!-- ProvisioningModule -->
<g id="node7" class="node">
<title>ProvisioningModule</title>
<polygon fill="#8dd3c7" stroke="black" points="791.62,-149.8 788.62,-153.8 767.62,-153.8 764.62,-149.8 660.38,-149.8 660.38,-113.8 791.62,-113.8 791.62,-149.8"/>
<text text-anchor="middle" x="726" y="-127.6" font-family="Times,serif" font-size="14.00">ProvisioningModule</text>
</g>
<!-- AccountModule&#45;&gt;ProvisioningModule -->
<g id="edge1" class="edge">
<title>AccountModule&#45;&gt;ProvisioningModule</title>
<path fill="none" stroke="black" d="M675.97,-84.91C675.97,-84.91 675.97,-103.79 675.97,-103.79"/>
<polygon fill="black" stroke="black" points="672.47,-103.79 675.97,-113.79 679.47,-103.79 672.47,-103.79"/>
</g>
<!-- LoggerModule -->
<g id="node2" class="node">
<title>LoggerModule</title>
<polygon fill="#8dd3c7" stroke="black" points="566.98,-84.8 563.98,-88.8 542.98,-88.8 539.98,-84.8 467.02,-84.8 467.02,-48.8 566.98,-48.8 566.98,-84.8"/>
<text text-anchor="middle" x="517" y="-62.6" font-family="Times,serif" font-size="14.00">LoggerModule</text>
</g>
<!-- LoggerModule&#45;&gt;ProvisioningModule -->
<g id="edge2" class="edge">
<title>LoggerModule&#45;&gt;ProvisioningModule</title>
<path fill="none" stroke="black" d="M517,-85.04C517,-100.37 517,-119.8 517,-119.8 517,-119.8 650.16,-119.8 650.16,-119.8"/>
<polygon fill="black" stroke="black" points="650.16,-123.3 660.16,-119.8 650.16,-116.3 650.16,-123.3"/>
</g>
<!-- RoleModule -->
<g id="node3" class="node">
<title>RoleModule</title>
<polygon fill="#8dd3c7" stroke="black" points="448.99,-84.8 445.99,-88.8 424.99,-88.8 421.99,-84.8 363.01,-84.8 363.01,-48.8 448.99,-48.8 448.99,-84.8"/>
<text text-anchor="middle" x="406" y="-62.6" font-family="Times,serif" font-size="14.00">RoleModule</text>
</g>
<!-- RoleModule&#45;&gt;ProvisioningModule -->
<g id="edge3" class="edge">
<title>RoleModule&#45;&gt;ProvisioningModule</title>
<path fill="none" stroke="black" d="M406,-84.82C406,-102.17 406,-125.8 406,-125.8 406,-125.8 650.08,-125.8 650.08,-125.8"/>
<polygon fill="black" stroke="black" points="650.08,-129.3 660.08,-125.8 650.08,-122.3 650.08,-129.3"/>
</g>
<!-- SchoolModule -->
<g id="node4" class="node">
<title>SchoolModule</title>
<polygon fill="#8dd3c7" stroke="black" points="345.44,-84.8 342.44,-88.8 321.44,-88.8 318.44,-84.8 246.56,-84.8 246.56,-48.8 345.44,-48.8 345.44,-84.8"/>
<text text-anchor="middle" x="296" y="-62.6" font-family="Times,serif" font-size="14.00">SchoolModule</text>
</g>
<!-- SchoolModule&#45;&gt;ProvisioningModule -->
<g id="edge4" class="edge">
<title>SchoolModule&#45;&gt;ProvisioningModule</title>
<path fill="none" stroke="black" d="M296,-84.91C296,-104.14 296,-131.8 296,-131.8 296,-131.8 650.22,-131.8 650.22,-131.8"/>
<polygon fill="black" stroke="black" points="650.22,-135.3 660.22,-131.8 650.22,-128.3 650.22,-135.3"/>
</g>
<!-- SystemModule -->
<g id="node5" class="node">
<title>SystemModule</title>
<polygon fill="#8dd3c7" stroke="black" points="228.28,-84.8 225.28,-88.8 204.28,-88.8 201.28,-84.8 127.72,-84.8 127.72,-48.8 228.28,-48.8 228.28,-84.8"/>
<text text-anchor="middle" x="178" y="-62.6" font-family="Times,serif" font-size="14.00">SystemModule</text>
</g>
<!-- SystemModule&#45;&gt;ProvisioningModule -->
<g id="edge5" class="edge">
<title>SystemModule&#45;&gt;ProvisioningModule</title>
<path fill="none" stroke="black" d="M178,-85.08C178,-106.12 178,-137.8 178,-137.8 178,-137.8 650.17,-137.8 650.17,-137.8"/>
<polygon fill="black" stroke="black" points="650.17,-141.3 660.17,-137.8 650.17,-134.3 650.17,-141.3"/>
</g>
<!-- UserModule -->
<g id="node6" class="node">
<title>UserModule</title>
<polygon fill="#8dd3c7" stroke="black" points="109.99,-84.8 106.99,-88.8 85.99,-88.8 82.99,-84.8 24.01,-84.8 24.01,-48.8 109.99,-48.8 109.99,-84.8"/>
<text text-anchor="middle" x="67" y="-62.6" font-family="Times,serif" font-size="14.00">UserModule</text>
</g>
<!-- UserModule&#45;&gt;ProvisioningModule -->
<g id="edge6" class="edge">
<title>UserModule&#45;&gt;ProvisioningModule</title>
<path fill="none" stroke="black" d="M67,-85.05C67,-107.82 67,-143.8 67,-143.8 67,-143.8 650.4,-143.8 650.4,-143.8"/>
<polygon fill="black" stroke="black" points="650.4,-147.3 660.4,-143.8 650.4,-140.3 650.4,-147.3"/>
</g>
<!-- ProvisioningService  -->
<g id="node8" class="node">
<title>ProvisioningService </title>
<polygon fill="#fb8072" stroke="black" points="792.54,-214.8 659.46,-214.8 659.46,-178.8 792.54,-178.8 792.54,-214.8"/>
<text text-anchor="middle" x="726" y="-192.6" font-family="Times,serif" font-size="14.00">ProvisioningService </text>
</g>
<!-- ProvisioningModule&#45;&gt;ProvisioningService  -->
<g id="edge7" class="edge">
<title>ProvisioningModule&#45;&gt;ProvisioningService </title>
<path fill="none" stroke="black" stroke-dasharray="5,2" d="M726,-149.91C726,-149.91 726,-168.79 726,-168.79"/>
<polygon fill="black" stroke="black" points="722.5,-168.79 726,-178.79 729.5,-168.79 722.5,-168.79"/>
</g>
<!-- IservProvisioningStrategy -->
<g id="node9" class="node">
<title>IservProvisioningStrategy</title>
<ellipse fill="#fdb462" stroke="black" cx="2005" cy="-66.8" rx="111.78" ry="18"/>
<text text-anchor="middle" x="2005" y="-62.6" font-family="Times,serif" font-size="14.00">IservProvisioningStrategy</text>
</g>
<!-- IservProvisioningStrategy&#45;&gt;ProvisioningModule -->
<g id="edge8" class="edge">
<title>IservProvisioningStrategy&#45;&gt;ProvisioningModule</title>
<path fill="none" stroke="black" d="M2005,-85.05C2005,-107.82 2005,-143.8 2005,-143.8 2005,-143.8 801.63,-143.8 801.63,-143.8"/>
<polygon fill="black" stroke="black" points="801.63,-140.3 791.63,-143.8 801.63,-147.3 801.63,-140.3"/>
</g>
<!-- OidcMockProvisioningStrategy -->
<g id="node10" class="node">
<title>OidcMockProvisioningStrategy</title>
<ellipse fill="#fdb462" stroke="black" cx="1741" cy="-66.8" rx="133.77" ry="18"/>
<text text-anchor="middle" x="1741" y="-62.6" font-family="Times,serif" font-size="14.00">OidcMockProvisioningStrategy</text>
</g>
<!-- OidcMockProvisioningStrategy&#45;&gt;ProvisioningModule -->
<g id="edge9" class="edge">
<title>OidcMockProvisioningStrategy&#45;&gt;ProvisioningModule</title>
<path fill="none" stroke="black" d="M1741,-85.08C1741,-106.12 1741,-137.8 1741,-137.8 1741,-137.8 801.81,-137.8 801.81,-137.8"/>
<polygon fill="black" stroke="black" points="801.81,-134.3 791.81,-137.8 801.81,-141.3 801.81,-134.3"/>
</g>
<!-- OidcProvisioningService -->
<g id="node11" class="node">
<title>OidcProvisioningService</title>
<ellipse fill="#fdb462" stroke="black" cx="1481" cy="-66.8" rx="108.26" ry="18"/>
<text text-anchor="middle" x="1481" y="-62.6" font-family="Times,serif" font-size="14.00">OidcProvisioningService</text>
</g>
<!-- OidcProvisioningService&#45;&gt;ProvisioningModule -->
<g id="edge10" class="edge">
<title>OidcProvisioningService&#45;&gt;ProvisioningModule</title>
<path fill="none" stroke="black" d="M1481,-84.91C1481,-104.14 1481,-131.8 1481,-131.8 1481,-131.8 801.68,-131.8 801.68,-131.8"/>
<polygon fill="black" stroke="black" points="801.68,-128.3 791.68,-131.8 801.68,-135.3 801.68,-128.3"/>
</g>
<!-- ProvisioningService -->
<g id="node12" class="node">
<title>ProvisioningService</title>
<ellipse fill="#fdb462" stroke="black" cx="1266" cy="-66.8" rx="89.22" ry="18"/>
<text text-anchor="middle" x="1266" y="-62.6" font-family="Times,serif" font-size="14.00">ProvisioningService</text>
</g>
<!-- ProvisioningService&#45;&gt;ProvisioningModule -->
<g id="edge11" class="edge">
<title>ProvisioningService&#45;&gt;ProvisioningModule</title>
<path fill="none" stroke="black" d="M1266,-84.82C1266,-102.17 1266,-125.8 1266,-125.8 1266,-125.8 801.67,-125.8 801.67,-125.8"/>
<polygon fill="black" stroke="black" points="801.67,-122.3 791.67,-125.8 801.67,-129.3 801.67,-122.3"/>
</g>
<!-- SanisProvisioningStrategy -->
<g id="node13" class="node">
<title>SanisProvisioningStrategy</title>
<ellipse fill="#fdb462" stroke="black" cx="1045" cy="-66.8" rx="113.52" ry="18"/>
<text text-anchor="middle" x="1045" y="-62.6" font-family="Times,serif" font-size="14.00">SanisProvisioningStrategy</text>
</g>
<!-- SanisProvisioningStrategy&#45;&gt;ProvisioningModule -->
<g id="edge12" class="edge">
<title>SanisProvisioningStrategy&#45;&gt;ProvisioningModule</title>
<path fill="none" stroke="black" d="M1045,-85.04C1045,-100.37 1045,-119.8 1045,-119.8 1045,-119.8 801.71,-119.8 801.71,-119.8"/>
<polygon fill="black" stroke="black" points="801.71,-116.3 791.71,-119.8 801.71,-123.3 801.71,-116.3"/>
</g>
<!-- SanisResponseMapper -->
<g id="node14" class="node">
<title>SanisResponseMapper</title>
<ellipse fill="#fdb462" stroke="black" cx="814" cy="-66.8" rx="99.02" ry="18"/>
<text text-anchor="middle" x="814" y="-62.6" font-family="Times,serif" font-size="14.00">SanisResponseMapper</text>
</g>
<!-- SanisResponseMapper&#45;&gt;ProvisioningModule -->
<g id="edge13" class="edge">
<title>SanisResponseMapper&#45;&gt;ProvisioningModule</title>
<path fill="none" stroke="black" d="M753.27,-81.23C753.27,-81.23 753.27,-103.69 753.27,-103.69"/>
<polygon fill="black" stroke="black" points="749.77,-103.69 753.27,-113.69 756.77,-103.69 749.77,-103.69"/>
</g>
</g>
</svg>
