<?xml version="1.0" encoding="UTF-8" standalone="no"?>
<!DOCTYPE svg PUBLIC "-//W3C//DTD SVG 1.1//EN"
 "http://www.w3.org/Graphics/SVG/1.1/DTD/svg11.dtd">
<!-- Generated by graphviz version 5.0.0 (20220707.1540)
 -->
<!-- Title: dependencies Pages: 1 -->
<svg width="2149pt" height="247pt"
 viewBox="0.00 0.00 2149.00 246.80" xmlns="http://www.w3.org/2000/svg" xmlns:xlink="http://www.w3.org/1999/xlink">
<g id="graph0" class="graph" transform="scale(1 1) rotate(0) translate(4 242.8)">
<title>dependencies</title>
<polygon fill="white" stroke="transparent" points="-4,4 -4,-242.8 2145,-242.8 2145,4 -4,4"/>
<text text-anchor="middle" x="1070.5" y="-8.2" font-family="sans-serif" font-size="14.00">dependencies</text>
<g id="clust1" class="cluster">
<title>cluster_ProvisioningModule</title>
<polygon fill="none" stroke="black" stroke-dasharray="1,5" points="8,-32.8 8,-230.8 2133,-230.8 2133,-32.8 8,-32.8"/>
</g>
<g id="clust3" class="cluster">
<title>cluster_ProvisioningModule_imports</title>
<polygon fill="none" stroke="black" points="1442,-40.8 1442,-92.8 2125,-92.8 2125,-40.8 1442,-40.8"/>
</g>
<g id="clust4" class="cluster">
<title>cluster_ProvisioningModule_exports</title>
<polygon fill="none" stroke="black" points="1328,-170.8 1328,-222.8 1478,-222.8 1478,-170.8 1328,-170.8"/>
</g>
<g id="clust6" class="cluster">
<title>cluster_ProvisioningModule_providers</title>
<polygon fill="none" stroke="black" points="16,-40.8 16,-92.8 1434,-92.8 1434,-40.8 16,-40.8"/>
</g>
<!-- AccountModule -->
<g id="node1" class="node">
<title>AccountModule</title>
<polygon fill="#8dd3c7" stroke="black" points="2117.48,-84.8 2114.48,-88.8 2093.48,-88.8 2090.48,-84.8 2010.52,-84.8 2010.52,-48.8 2117.48,-48.8 2117.48,-84.8"/>
<text text-anchor="middle" x="2064" y="-62.6" font-family="Times,serif" font-size="14.00">AccountModule</text>
</g>
<!-- ProvisioningModule -->
<g id="node7" class="node">
<title>ProvisioningModule</title>
<polygon fill="#8dd3c7" stroke="black" points="1468.62,-149.8 1465.62,-153.8 1444.62,-153.8 1441.62,-149.8 1337.38,-149.8 1337.38,-113.8 1468.62,-113.8 1468.62,-149.8"/>
<text text-anchor="middle" x="1403" y="-127.6" font-family="Times,serif" font-size="14.00">ProvisioningModule</text>
</g>
<!-- AccountModule&#45;&gt;ProvisioningModule -->
<g id="edge1" class="edge">
<title>AccountModule&#45;&gt;ProvisioningModule</title>
<path fill="none" stroke="black" d="M2064,-85.05C2064,-107.82 2064,-143.8 2064,-143.8 2064,-143.8 1478.8,-143.8 1478.8,-143.8"/>
<polygon fill="black" stroke="black" points="1478.8,-140.3 1468.8,-143.8 1478.8,-147.3 1478.8,-140.3"/>
</g>
<!-- LoggerModule -->
<g id="node2" class="node">
<title>LoggerModule</title>
<polygon fill="#8dd3c7" stroke="black" points="1992.98,-84.8 1989.98,-88.8 1968.98,-88.8 1965.98,-84.8 1893.02,-84.8 1893.02,-48.8 1992.98,-48.8 1992.98,-84.8"/>
<text text-anchor="middle" x="1943" y="-62.6" font-family="Times,serif" font-size="14.00">LoggerModule</text>
</g>
<!-- LoggerModule&#45;&gt;ProvisioningModule -->
<g id="edge2" class="edge">
<title>LoggerModule&#45;&gt;ProvisioningModule</title>
<path fill="none" stroke="black" d="M1943,-85.08C1943,-106.12 1943,-137.8 1943,-137.8 1943,-137.8 1478.67,-137.8 1478.67,-137.8"/>
<polygon fill="black" stroke="black" points="1478.67,-134.3 1468.67,-137.8 1478.67,-141.3 1478.67,-134.3"/>
</g>
<!-- RoleModule -->
<g id="node3" class="node">
<title>RoleModule</title>
<polygon fill="#8dd3c7" stroke="black" points="1874.99,-84.8 1871.99,-88.8 1850.99,-88.8 1847.99,-84.8 1789.01,-84.8 1789.01,-48.8 1874.99,-48.8 1874.99,-84.8"/>
<text text-anchor="middle" x="1832" y="-62.6" font-family="Times,serif" font-size="14.00">RoleModule</text>
</g>
<!-- RoleModule&#45;&gt;ProvisioningModule -->
<g id="edge3" class="edge">
<title>RoleModule&#45;&gt;ProvisioningModule</title>
<path fill="none" stroke="black" d="M1832,-84.91C1832,-104.14 1832,-131.8 1832,-131.8 1832,-131.8 1478.62,-131.8 1478.62,-131.8"/>
<polygon fill="black" stroke="black" points="1478.62,-128.3 1468.62,-131.8 1478.62,-135.3 1478.62,-128.3"/>
</g>
<!-- SchoolModule -->
<g id="node4" class="node">
<title>SchoolModule</title>
<polygon fill="#8dd3c7" stroke="black" points="1771.44,-84.8 1768.44,-88.8 1747.44,-88.8 1744.44,-84.8 1672.56,-84.8 1672.56,-48.8 1771.44,-48.8 1771.44,-84.8"/>
<text text-anchor="middle" x="1722" y="-62.6" font-family="Times,serif" font-size="14.00">SchoolModule</text>
</g>
<!-- SchoolModule&#45;&gt;ProvisioningModule -->
<g id="edge4" class="edge">
<title>SchoolModule&#45;&gt;ProvisioningModule</title>
<path fill="none" stroke="black" d="M1722,-84.82C1722,-102.17 1722,-125.8 1722,-125.8 1722,-125.8 1478.71,-125.8 1478.71,-125.8"/>
<polygon fill="black" stroke="black" points="1478.71,-122.3 1468.71,-125.8 1478.71,-129.3 1478.71,-122.3"/>
</g>
<!-- SystemModule -->
<g id="node5" class="node">
<title>SystemModule</title>
<polygon fill="#8dd3c7" stroke="black" points="1654.28,-84.8 1651.28,-88.8 1630.28,-88.8 1627.28,-84.8 1553.72,-84.8 1553.72,-48.8 1654.28,-48.8 1654.28,-84.8"/>
<text text-anchor="middle" x="1604" y="-62.6" font-family="Times,serif" font-size="14.00">SystemModule</text>
</g>
<!-- SystemModule&#45;&gt;ProvisioningModule -->
<g id="edge5" class="edge">
<title>SystemModule&#45;&gt;ProvisioningModule</title>
<path fill="none" stroke="black" d="M1604,-85.04C1604,-100.37 1604,-119.8 1604,-119.8 1604,-119.8 1478.81,-119.8 1478.81,-119.8"/>
<polygon fill="black" stroke="black" points="1478.81,-116.3 1468.81,-119.8 1478.81,-123.3 1478.81,-116.3"/>
</g>
<!-- UserModule -->
<g id="node6" class="node">
<title>UserModule</title>
<polygon fill="#8dd3c7" stroke="black" points="1535.99,-84.8 1532.99,-88.8 1511.99,-88.8 1508.99,-84.8 1450.01,-84.8 1450.01,-48.8 1535.99,-48.8 1535.99,-84.8"/>
<text text-anchor="middle" x="1493" y="-62.6" font-family="Times,serif" font-size="14.00">UserModule</text>
</g>
<!-- UserModule&#45;&gt;ProvisioningModule -->
<g id="edge6" class="edge">
<title>UserModule&#45;&gt;ProvisioningModule</title>
<path fill="none" stroke="black" d="M1459.28,-84.91C1459.28,-84.91 1459.28,-103.79 1459.28,-103.79"/>
<polygon fill="black" stroke="black" points="1455.78,-103.79 1459.28,-113.79 1462.78,-103.79 1455.78,-103.79"/>
</g>
<!-- ProvisioningService  -->
<g id="node8" class="node">
<title>ProvisioningService </title>
<polygon fill="#fb8072" stroke="black" points="1469.54,-214.8 1336.46,-214.8 1336.46,-178.8 1469.54,-178.8 1469.54,-214.8"/>
<text text-anchor="middle" x="1403" y="-192.6" font-family="Times,serif" font-size="14.00">ProvisioningService </text>
</g>
<!-- ProvisioningModule&#45;&gt;ProvisioningService  -->
<g id="edge7" class="edge">
<title>ProvisioningModule&#45;&gt;ProvisioningService </title>
<path fill="none" stroke="black" stroke-dasharray="5,2" d="M1403,-149.91C1403,-149.91 1403,-168.79 1403,-168.79"/>
<polygon fill="black" stroke="black" points="1399.5,-168.79 1403,-178.79 1406.5,-168.79 1399.5,-168.79"/>
</g>
<!-- IservProvisioningStrategy -->
<g id="node9" class="node">
<title>IservProvisioningStrategy</title>
<ellipse fill="#fdb462" stroke="black" cx="1314" cy="-66.8" rx="111.78" ry="18"/>
<text text-anchor="middle" x="1314" y="-62.6" font-family="Times,serif" font-size="14.00">IservProvisioningStrategy</text>
</g>
<!-- IservProvisioningStrategy&#45;&gt;ProvisioningModule -->
<g id="edge8" class="edge">
<title>IservProvisioningStrategy&#45;&gt;ProvisioningModule</title>
<path fill="none" stroke="black" d="M1381.66,-81.23C1381.66,-81.23 1381.66,-103.69 1381.66,-103.69"/>
<polygon fill="black" stroke="black" points="1378.16,-103.69 1381.66,-113.69 1385.16,-103.69 1378.16,-103.69"/>
</g>
<!-- OidcMockProvisioningStrategy -->
<g id="node10" class="node">
<title>OidcMockProvisioningStrategy</title>
<ellipse fill="#fdb462" stroke="black" cx="1050" cy="-66.8" rx="133.77" ry="18"/>
<text text-anchor="middle" x="1050" y="-62.6" font-family="Times,serif" font-size="14.00">OidcMockProvisioningStrategy</text>
</g>
<!-- OidcMockProvisioningStrategy&#45;&gt;ProvisioningModule -->
<g id="edge9" class="edge">
<title>OidcMockProvisioningStrategy&#45;&gt;ProvisioningModule</title>
<path fill="none" stroke="black" d="M1050,-85.04C1050,-100.37 1050,-119.8 1050,-119.8 1050,-119.8 1327.43,-119.8 1327.43,-119.8"/>
<polygon fill="black" stroke="black" points="1327.43,-123.3 1337.43,-119.8 1327.43,-116.3 1327.43,-123.3"/>
</g>
<!-- OidcProvisioningService -->
<g id="node11" class="node">
<title>OidcProvisioningService</title>
<ellipse fill="#fdb462" stroke="black" cx="790" cy="-66.8" rx="108.26" ry="18"/>
<text text-anchor="middle" x="790" y="-62.6" font-family="Times,serif" font-size="14.00">OidcProvisioningService</text>
</g>
<!-- OidcProvisioningService&#45;&gt;ProvisioningModule -->
<g id="edge10" class="edge">
<title>OidcProvisioningService&#45;&gt;ProvisioningModule</title>
<path fill="none" stroke="black" d="M790,-84.82C790,-102.17 790,-125.8 790,-125.8 790,-125.8 1327.4,-125.8 1327.4,-125.8"/>
<polygon fill="black" stroke="black" points="1327.4,-129.3 1337.4,-125.8 1327.4,-122.3 1327.4,-129.3"/>
</g>
<!-- ProvisioningService -->
<g id="node12" class="node">
<title>ProvisioningService</title>
<ellipse fill="#fdb462" stroke="black" cx="575" cy="-66.8" rx="89.22" ry="18"/>
<text text-anchor="middle" x="575" y="-62.6" font-family="Times,serif" font-size="14.00">ProvisioningService</text>
</g>
<!-- ProvisioningService&#45;&gt;ProvisioningModule -->
<g id="edge11" class="edge">
<title>ProvisioningService&#45;&gt;ProvisioningModule</title>
<path fill="none" stroke="black" d="M575,-84.91C575,-104.14 575,-131.8 575,-131.8 575,-131.8 1327.34,-131.8 1327.34,-131.8"/>
<polygon fill="black" stroke="black" points="1327.34,-135.3 1337.34,-131.8 1327.34,-128.3 1327.34,-135.3"/>
</g>
<!-- SanisProvisioningStrategy -->
<g id="node13" class="node">
<title>SanisProvisioningStrategy</title>
<ellipse fill="#fdb462" stroke="black" cx="354" cy="-66.8" rx="113.52" ry="18"/>
<text text-anchor="middle" x="354" y="-62.6" font-family="Times,serif" font-size="14.00">SanisProvisioningStrategy</text>
</g>
<!-- SanisProvisioningStrategy&#45;&gt;ProvisioningModule -->
<g id="edge12" class="edge">
<title>SanisProvisioningStrategy&#45;&gt;ProvisioningModule</title>
<path fill="none" stroke="black" d="M354,-85.08C354,-106.12 354,-137.8 354,-137.8 354,-137.8 1327.38,-137.8 1327.38,-137.8"/>
<polygon fill="black" stroke="black" points="1327.38,-141.3 1337.38,-137.8 1327.38,-134.3 1327.38,-141.3"/>
</g>
<!-- SanisResponseMapper -->
<g id="node14" class="node">
<title>SanisResponseMapper</title>
<ellipse fill="#fdb462" stroke="black" cx="123" cy="-66.8" rx="99.02" ry="18"/>
<text text-anchor="middle" x="123" y="-62.6" font-family="Times,serif" font-size="14.00">SanisResponseMapper</text>
</g>
<!-- SanisResponseMapper&#45;&gt;ProvisioningModule -->
<g id="edge13" class="edge">
<title>SanisResponseMapper&#45;&gt;ProvisioningModule</title>
<path fill="none" stroke="black" d="M123,-85.05C123,-107.82 123,-143.8 123,-143.8 123,-143.8 1327.32,-143.8 1327.32,-143.8"/>
<polygon fill="black" stroke="black" points="1327.32,-147.3 1337.32,-143.8 1327.32,-140.3 1327.32,-147.3"/>
</g>
</g>
</svg>
