<?xml version="1.0" encoding="UTF-8" standalone="no"?>
<!DOCTYPE svg PUBLIC "-//W3C//DTD SVG 1.1//EN"
 "http://www.w3.org/Graphics/SVG/1.1/DTD/svg11.dtd">
<!-- Generated by graphviz version 2.47.0 (20210316.0004)
 -->
<!-- Title: dependencies Pages: 1 -->
<svg width="2148pt" height="284pt"
 viewBox="0.00 0.00 2148.00 284.00" xmlns="http://www.w3.org/2000/svg" xmlns:xlink="http://www.w3.org/1999/xlink">
<g id="graph0" class="graph" transform="scale(1 1) rotate(0) translate(4 280)">
<title>dependencies</title>
<polygon fill="white" stroke="transparent" points="-4,4 -4,-280 2144,-280 2144,4 -4,4"/>
<text text-anchor="start" x="1049.01" y="-42.4" font-family="Times-12" font-weight="bold" font-size="14.00">Legend</text>
<polygon fill="#ffffb3" stroke="transparent" points="836,-10 836,-30 856,-30 856,-10 836,-10"/>
<text text-anchor="start" x="859.63" y="-15.4" font-family="Times-12" font-size="14.00"> &#160;Declarations</text>
<polygon fill="#8dd3c7" stroke="transparent" points="949,-10 949,-30 969,-30 969,-10 949,-10"/>
<text text-anchor="start" x="972.73" y="-15.4" font-family="Times-12" font-size="14.00"> &#160;Module</text>
<polygon fill="#80b1d3" stroke="transparent" points="1035,-10 1035,-30 1055,-30 1055,-10 1035,-10"/>
<text text-anchor="start" x="1058.78" y="-15.4" font-family="Times-12" font-size="14.00"> &#160;Bootstrap</text>
<polygon fill="#fdb462" stroke="transparent" points="1132,-10 1132,-30 1152,-30 1152,-10 1132,-10"/>
<text text-anchor="start" x="1155.67" y="-15.4" font-family="Times-12" font-size="14.00"> &#160;Providers</text>
<polygon fill="#fb8072" stroke="transparent" points="1228,-10 1228,-30 1248,-30 1248,-10 1228,-10"/>
<text text-anchor="start" x="1251.73" y="-15.4" font-family="Times-12" font-size="14.00"> &#160;Exports</text>
<g id="clust1" class="cluster">
<title>cluster_ProvisioningModule</title>
<polygon fill="none" stroke="black" stroke-dasharray="1,5" points="8,-70 8,-268 2132,-268 2132,-70 8,-70"/>
</g>
<g id="clust6" class="cluster">
<title>cluster_ProvisioningModule_providers</title>
<polygon fill="none" stroke="black" points="707,-78 707,-130 2124,-130 2124,-78 707,-78"/>
</g>
<g id="clust4" class="cluster">
<title>cluster_ProvisioningModule_exports</title>
<polygon fill="none" stroke="black" points="651,-208 651,-260 801,-260 801,-208 651,-208"/>
</g>
<g id="clust3" class="cluster">
<title>cluster_ProvisioningModule_imports</title>
<polygon fill="none" stroke="black" points="16,-78 16,-130 699,-130 699,-78 16,-78"/>
</g>
<!-- AccountModule -->
<g id="node1" class="node">
<title>AccountModule</title>
<polygon fill="#8dd3c7" stroke="black" points="691.48,-122 688.48,-126 667.48,-126 664.48,-122 584.52,-122 584.52,-86 691.48,-86 691.48,-122"/>
<text text-anchor="middle" x="638" y="-99.8" font-family="Times,serif" font-size="14.00">AccountModule</text>
</g>
<!-- ProvisioningModule -->
<g id="node7" class="node">
<title>ProvisioningModule</title>
<polygon fill="#8dd3c7" stroke="black" points="791.61,-187 788.61,-191 767.61,-191 764.61,-187 660.39,-187 660.39,-151 791.61,-151 791.61,-187"/>
<text text-anchor="middle" x="726" y="-164.8" font-family="Times,serif" font-size="14.00">ProvisioningModule</text>
</g>
<!-- AccountModule&#45;&gt;ProvisioningModule -->
<g id="edge1" class="edge">
<title>AccountModule&#45;&gt;ProvisioningModule</title>
<path fill="none" stroke="black" d="M675.97,-122.11C675.97,-122.11 675.97,-140.99 675.97,-140.99"/>
<polygon fill="black" stroke="black" points="672.47,-140.99 675.97,-150.99 679.47,-140.99 672.47,-140.99"/>
</g>
<!-- LoggerModule -->
<g id="node2" class="node">
<title>LoggerModule</title>
<polygon fill="#8dd3c7" stroke="black" points="566.98,-122 563.98,-126 542.98,-126 539.98,-122 467.02,-122 467.02,-86 566.98,-86 566.98,-122"/>
<text text-anchor="middle" x="517" y="-99.8" font-family="Times,serif" font-size="14.00">LoggerModule</text>
</g>
<!-- LoggerModule&#45;&gt;ProvisioningModule -->
<g id="edge2" class="edge">
<title>LoggerModule&#45;&gt;ProvisioningModule</title>
<path fill="none" stroke="black" d="M517,-122.24C517,-137.57 517,-157 517,-157 517,-157 650.44,-157 650.44,-157"/>
<polygon fill="black" stroke="black" points="650.44,-160.5 660.44,-157 650.44,-153.5 650.44,-160.5"/>
</g>
<!-- RoleModule -->
<g id="node3" class="node">
<title>RoleModule</title>
<polygon fill="#8dd3c7" stroke="black" points="448.99,-122 445.99,-126 424.99,-126 421.99,-122 363.01,-122 363.01,-86 448.99,-86 448.99,-122"/>
<text text-anchor="middle" x="406" y="-99.8" font-family="Times,serif" font-size="14.00">RoleModule</text>
</g>
<!-- RoleModule&#45;&gt;ProvisioningModule -->
<g id="edge3" class="edge">
<title>RoleModule&#45;&gt;ProvisioningModule</title>
<path fill="none" stroke="black" d="M406,-122.02C406,-139.37 406,-163 406,-163 406,-163 650.08,-163 650.08,-163"/>
<polygon fill="black" stroke="black" points="650.08,-166.5 660.08,-163 650.08,-159.5 650.08,-166.5"/>
</g>
<!-- SchoolModule -->
<g id="node4" class="node">
<title>SchoolModule</title>
<polygon fill="#8dd3c7" stroke="black" points="345.44,-122 342.44,-126 321.44,-126 318.44,-122 246.56,-122 246.56,-86 345.44,-86 345.44,-122"/>
<text text-anchor="middle" x="296" y="-99.8" font-family="Times,serif" font-size="14.00">SchoolModule</text>
</g>
<!-- SchoolModule&#45;&gt;ProvisioningModule -->
<g id="edge4" class="edge">
<title>SchoolModule&#45;&gt;ProvisioningModule</title>
<path fill="none" stroke="black" d="M296,-122.11C296,-141.34 296,-169 296,-169 296,-169 650.22,-169 650.22,-169"/>
<polygon fill="black" stroke="black" points="650.22,-172.5 660.22,-169 650.22,-165.5 650.22,-172.5"/>
</g>
<!-- SystemModule -->
<g id="node5" class="node">
<title>SystemModule</title>
<polygon fill="#8dd3c7" stroke="black" points="228.27,-122 225.27,-126 204.27,-126 201.27,-122 127.73,-122 127.73,-86 228.27,-86 228.27,-122"/>
<text text-anchor="middle" x="178" y="-99.8" font-family="Times,serif" font-size="14.00">SystemModule</text>
</g>
<!-- SystemModule&#45;&gt;ProvisioningModule -->
<g id="edge5" class="edge">
<title>SystemModule&#45;&gt;ProvisioningModule</title>
<path fill="none" stroke="black" d="M178,-122.28C178,-143.32 178,-175 178,-175 178,-175 650.44,-175 650.44,-175"/>
<polygon fill="black" stroke="black" points="650.44,-178.5 660.44,-175 650.44,-171.5 650.44,-178.5"/>
</g>
<!-- UserModule -->
<g id="node6" class="node">
<title>UserModule</title>
<polygon fill="#8dd3c7" stroke="black" points="109.98,-122 106.98,-126 85.98,-126 82.98,-122 24.02,-122 24.02,-86 109.98,-86 109.98,-122"/>
<text text-anchor="middle" x="67" y="-99.8" font-family="Times,serif" font-size="14.00">UserModule</text>
</g>
<!-- UserModule&#45;&gt;ProvisioningModule -->
<g id="edge6" class="edge">
<title>UserModule&#45;&gt;ProvisioningModule</title>
<path fill="none" stroke="black" d="M67,-122.25C67,-145.02 67,-181 67,-181 67,-181 650.4,-181 650.4,-181"/>
<polygon fill="black" stroke="black" points="650.4,-184.5 660.4,-181 650.4,-177.5 650.4,-184.5"/>
</g>
<!-- ProvisioningService  -->
<g id="node8" class="node">
<title>ProvisioningService </title>
<polygon fill="#fb8072" stroke="black" points="792.54,-252 659.46,-252 659.46,-216 792.54,-216 792.54,-252"/>
<text text-anchor="middle" x="726" y="-229.8" font-family="Times,serif" font-size="14.00">ProvisioningService </text>
</g>
<!-- ProvisioningModule&#45;&gt;ProvisioningService  -->
<g id="edge7" class="edge">
<title>ProvisioningModule&#45;&gt;ProvisioningService </title>
<path fill="none" stroke="black" stroke-dasharray="5,2" d="M726,-187.11C726,-187.11 726,-205.99 726,-205.99"/>
<polygon fill="black" stroke="black" points="722.5,-205.99 726,-215.99 729.5,-205.99 722.5,-205.99"/>
</g>
<!-- IservProvisioningStrategy -->
<g id="node9" class="node">
<title>IservProvisioningStrategy</title>
<ellipse fill="#fdb462" stroke="black" cx="2004" cy="-104" rx="111.76" ry="18"/>
<text text-anchor="middle" x="2004" y="-99.8" font-family="Times,serif" font-size="14.00">IservProvisioningStrategy</text>
</g>
<!-- IservProvisioningStrategy&#45;&gt;ProvisioningModule -->
<g id="edge8" class="edge">
<title>IservProvisioningStrategy&#45;&gt;ProvisioningModule</title>
<path fill="none" stroke="black" d="M2004,-122.25C2004,-145.02 2004,-181 2004,-181 2004,-181 801.58,-181 801.58,-181"/>
<polygon fill="black" stroke="black" points="801.58,-177.5 791.58,-181 801.58,-184.5 801.58,-177.5"/>
</g>
<!-- OidcMockProvisioningStrategy -->
<g id="node10" class="node">
<title>OidcMockProvisioningStrategy</title>
<ellipse fill="#fdb462" stroke="black" cx="1740" cy="-104" rx="133.75" ry="18"/>
<text text-anchor="middle" x="1740" y="-99.8" font-family="Times,serif" font-size="14.00">OidcMockProvisioningStrategy</text>
</g>
<!-- OidcMockProvisioningStrategy&#45;&gt;ProvisioningModule -->
<g id="edge9" class="edge">
<title>OidcMockProvisioningStrategy&#45;&gt;ProvisioningModule</title>
<path fill="none" stroke="black" d="M1740,-122.28C1740,-143.32 1740,-175 1740,-175 1740,-175 801.75,-175 801.75,-175"/>
<polygon fill="black" stroke="black" points="801.75,-171.5 791.75,-175 801.75,-178.5 801.75,-171.5"/>
</g>
<!-- OidcProvisioningService -->
<g id="node11" class="node">
<title>OidcProvisioningService</title>
<ellipse fill="#fdb462" stroke="black" cx="1480" cy="-104" rx="108.25" ry="18"/>
<text text-anchor="middle" x="1480" y="-99.8" font-family="Times,serif" font-size="14.00">OidcProvisioningService</text>
</g>
<!-- OidcProvisioningService&#45;&gt;ProvisioningModule -->
<g id="edge10" class="edge">
<title>OidcProvisioningService&#45;&gt;ProvisioningModule</title>
<path fill="none" stroke="black" d="M1480,-122.11C1480,-141.34 1480,-169 1480,-169 1480,-169 801.59,-169 801.59,-169"/>
<polygon fill="black" stroke="black" points="801.59,-165.5 791.59,-169 801.59,-172.5 801.59,-165.5"/>
</g>
<!-- ProvisioningService -->
<g id="node12" class="node">
<title>ProvisioningService</title>
<ellipse fill="#fdb462" stroke="black" cx="1265" cy="-104" rx="89.21" ry="18"/>
<text text-anchor="middle" x="1265" y="-99.8" font-family="Times,serif" font-size="14.00">ProvisioningService</text>
</g>
<!-- ProvisioningService&#45;&gt;ProvisioningModule -->
<g id="edge11" class="edge">
<title>ProvisioningService&#45;&gt;ProvisioningModule</title>
<path fill="none" stroke="black" d="M1265,-122.02C1265,-139.37 1265,-163 1265,-163 1265,-163 801.82,-163 801.82,-163"/>
<polygon fill="black" stroke="black" points="801.82,-159.5 791.82,-163 801.82,-166.5 801.82,-159.5"/>
</g>
<!-- SanisProvisioningStrategy -->
<g id="node13" class="node">
<title>SanisProvisioningStrategy</title>
<ellipse fill="#fdb462" stroke="black" cx="1044" cy="-104" rx="113.5" ry="18"/>
<text text-anchor="middle" x="1044" y="-99.8" font-family="Times,serif" font-size="14.00">SanisProvisioningStrategy</text>
</g>
<!-- SanisProvisioningStrategy&#45;&gt;ProvisioningModule -->
<g id="edge12" class="edge">
<title>SanisProvisioningStrategy&#45;&gt;ProvisioningModule</title>
<path fill="none" stroke="black" d="M1044,-122.24C1044,-137.57 1044,-157 1044,-157 1044,-157 801.89,-157 801.89,-157"/>
<polygon fill="black" stroke="black" points="801.89,-153.5 791.89,-157 801.89,-160.5 801.89,-153.5"/>
</g>
<!-- SanisResponseMapper -->
<g id="node14" class="node">
<title>SanisResponseMapper</title>
<ellipse fill="#fdb462" stroke="black" cx="814" cy="-104" rx="99" ry="18"/>
<text text-anchor="middle" x="814" y="-99.8" font-family="Times,serif" font-size="14.00">SanisResponseMapper</text>
</g>
<!-- SanisResponseMapper&#45;&gt;ProvisioningModule -->
<g id="edge13" class="edge">
<title>SanisResponseMapper&#45;&gt;ProvisioningModule</title>
<path fill="none" stroke="black" d="M753.28,-118.43C753.28,-118.43 753.28,-140.89 753.28,-140.89"/>
<polygon fill="black" stroke="black" points="749.78,-140.89 753.28,-150.89 756.78,-140.89 749.78,-140.89"/>
</g>
</g>
</svg>
