<?xml version="1.0" encoding="UTF-8" standalone="no"?>
<!DOCTYPE svg PUBLIC "-//W3C//DTD SVG 1.1//EN"
 "http://www.w3.org/Graphics/SVG/1.1/DTD/svg11.dtd">
<!-- Generated by graphviz version 2.47.0 (20210316.0004)
 -->
<!-- Title: dependencies Pages: 1 -->
<svg width="2148pt" height="284pt"
 viewBox="0.00 0.00 2148.00 284.00" xmlns="http://www.w3.org/2000/svg" xmlns:xlink="http://www.w3.org/1999/xlink">
<g id="graph0" class="graph" transform="scale(1 1) rotate(0) translate(4 280)">
<title>dependencies</title>
<polygon fill="white" stroke="transparent" points="-4,4 -4,-280 2144,-280 2144,4 -4,4"/>
<text text-anchor="start" x="1049.01" y="-42.4" font-family="Times-12" font-weight="bold" font-size="14.00">Legend</text>
<polygon fill="#ffffb3" stroke="transparent" points="836,-10 836,-30 856,-30 856,-10 836,-10"/>
<text text-anchor="start" x="859.63" y="-15.4" font-family="Times-12" font-size="14.00"> &#160;Declarations</text>
<polygon fill="#8dd3c7" stroke="transparent" points="949,-10 949,-30 969,-30 969,-10 949,-10"/>
<text text-anchor="start" x="972.73" y="-15.4" font-family="Times-12" font-size="14.00"> &#160;Module</text>
<polygon fill="#80b1d3" stroke="transparent" points="1035,-10 1035,-30 1055,-30 1055,-10 1035,-10"/>
<text text-anchor="start" x="1058.78" y="-15.4" font-family="Times-12" font-size="14.00"> &#160;Bootstrap</text>
<polygon fill="#fdb462" stroke="transparent" points="1132,-10 1132,-30 1152,-30 1152,-10 1132,-10"/>
<text text-anchor="start" x="1155.67" y="-15.4" font-family="Times-12" font-size="14.00"> &#160;Providers</text>
<polygon fill="#fb8072" stroke="transparent" points="1228,-10 1228,-30 1248,-30 1248,-10 1228,-10"/>
<text text-anchor="start" x="1251.73" y="-15.4" font-family="Times-12" font-size="14.00"> &#160;Exports</text>
<g id="clust1" class="cluster">
<title>cluster_ProvisioningModule</title>
<polygon fill="none" stroke="black" stroke-dasharray="1,5" points="8,-70 8,-268 2132,-268 2132,-70 8,-70"/>
</g>
<g id="clust3" class="cluster">
<title>cluster_ProvisioningModule_imports</title>
<polygon fill="none" stroke="black" points="1441,-78 1441,-130 2124,-130 2124,-78 1441,-78"/>
</g>
<g id="clust4" class="cluster">
<title>cluster_ProvisioningModule_exports</title>
<polygon fill="none" stroke="black" points="1327,-208 1327,-260 1477,-260 1477,-208 1327,-208"/>
</g>
<g id="clust6" class="cluster">
<title>cluster_ProvisioningModule_providers</title>
<polygon fill="none" stroke="black" points="16,-78 16,-130 1433,-130 1433,-78 16,-78"/>
</g>
<!-- AccountModule -->
<g id="node1" class="node">
<title>AccountModule</title>
<polygon fill="#8dd3c7" stroke="black" points="2116.48,-122 2113.48,-126 2092.48,-126 2089.48,-122 2009.52,-122 2009.52,-86 2116.48,-86 2116.48,-122"/>
<text text-anchor="middle" x="2063" y="-99.8" font-family="Times,serif" font-size="14.00">AccountModule</text>
</g>
<!-- ProvisioningModule -->
<g id="node7" class="node">
<title>ProvisioningModule</title>
<polygon fill="#8dd3c7" stroke="black" points="1467.61,-187 1464.61,-191 1443.61,-191 1440.61,-187 1336.39,-187 1336.39,-151 1467.61,-151 1467.61,-187"/>
<text text-anchor="middle" x="1402" y="-164.8" font-family="Times,serif" font-size="14.00">ProvisioningModule</text>
</g>
<!-- AccountModule&#45;&gt;ProvisioningModule -->
<g id="edge1" class="edge">
<title>AccountModule&#45;&gt;ProvisioningModule</title>
<path fill="none" stroke="black" d="M2063,-122.25C2063,-145.02 2063,-181 2063,-181 2063,-181 1477.8,-181 1477.8,-181"/>
<polygon fill="black" stroke="black" points="1477.8,-177.5 1467.8,-181 1477.8,-184.5 1477.8,-177.5"/>
</g>
<!-- LoggerModule -->
<g id="node2" class="node">
<title>LoggerModule</title>
<polygon fill="#8dd3c7" stroke="black" points="1991.98,-122 1988.98,-126 1967.98,-126 1964.98,-122 1892.02,-122 1892.02,-86 1991.98,-86 1991.98,-122"/>
<text text-anchor="middle" x="1942" y="-99.8" font-family="Times,serif" font-size="14.00">LoggerModule</text>
</g>
<!-- LoggerModule&#45;&gt;ProvisioningModule -->
<g id="edge2" class="edge">
<title>LoggerModule&#45;&gt;ProvisioningModule</title>
<path fill="none" stroke="black" d="M1942,-122.28C1942,-143.32 1942,-175 1942,-175 1942,-175 1477.67,-175 1477.67,-175"/>
<polygon fill="black" stroke="black" points="1477.67,-171.5 1467.67,-175 1477.67,-178.5 1477.67,-171.5"/>
</g>
<!-- RoleModule -->
<g id="node3" class="node">
<title>RoleModule</title>
<polygon fill="#8dd3c7" stroke="black" points="1873.99,-122 1870.99,-126 1849.99,-126 1846.99,-122 1788.01,-122 1788.01,-86 1873.99,-86 1873.99,-122"/>
<text text-anchor="middle" x="1831" y="-99.8" font-family="Times,serif" font-size="14.00">RoleModule</text>
</g>
<!-- RoleModule&#45;&gt;ProvisioningModule -->
<g id="edge3" class="edge">
<title>RoleModule&#45;&gt;ProvisioningModule</title>
<path fill="none" stroke="black" d="M1831,-122.11C1831,-141.34 1831,-169 1831,-169 1831,-169 1477.62,-169 1477.62,-169"/>
<polygon fill="black" stroke="black" points="1477.62,-165.5 1467.62,-169 1477.62,-172.5 1477.62,-165.5"/>
</g>
<!-- SchoolModule -->
<g id="node4" class="node">
<title>SchoolModule</title>
<polygon fill="#8dd3c7" stroke="black" points="1770.44,-122 1767.44,-126 1746.44,-126 1743.44,-122 1671.56,-122 1671.56,-86 1770.44,-86 1770.44,-122"/>
<text text-anchor="middle" x="1721" y="-99.8" font-family="Times,serif" font-size="14.00">SchoolModule</text>
</g>
<!-- SchoolModule&#45;&gt;ProvisioningModule -->
<g id="edge4" class="edge">
<title>SchoolModule&#45;&gt;ProvisioningModule</title>
<path fill="none" stroke="black" d="M1721,-122.02C1721,-139.37 1721,-163 1721,-163 1721,-163 1477.71,-163 1477.71,-163"/>
<polygon fill="black" stroke="black" points="1477.71,-159.5 1467.71,-163 1477.71,-166.5 1477.71,-159.5"/>
</g>
<!-- SystemModule -->
<g id="node5" class="node">
<title>SystemModule</title>
<polygon fill="#8dd3c7" stroke="black" points="1653.27,-122 1650.27,-126 1629.27,-126 1626.27,-122 1552.73,-122 1552.73,-86 1653.27,-86 1653.27,-122"/>
<text text-anchor="middle" x="1603" y="-99.8" font-family="Times,serif" font-size="14.00">SystemModule</text>
</g>
<!-- SystemModule&#45;&gt;ProvisioningModule -->
<g id="edge5" class="edge">
<title>SystemModule&#45;&gt;ProvisioningModule</title>
<path fill="none" stroke="black" d="M1603,-122.24C1603,-137.57 1603,-157 1603,-157 1603,-157 1477.81,-157 1477.81,-157"/>
<polygon fill="black" stroke="black" points="1477.81,-153.5 1467.81,-157 1477.81,-160.5 1477.81,-153.5"/>
</g>
<!-- UserModule -->
<g id="node6" class="node">
<title>UserModule</title>
<polygon fill="#8dd3c7" stroke="black" points="1534.98,-122 1531.98,-126 1510.98,-126 1507.98,-122 1449.02,-122 1449.02,-86 1534.98,-86 1534.98,-122"/>
<text text-anchor="middle" x="1492" y="-99.8" font-family="Times,serif" font-size="14.00">UserModule</text>
</g>
<!-- UserModule&#45;&gt;ProvisioningModule -->
<g id="edge6" class="edge">
<title>UserModule&#45;&gt;ProvisioningModule</title>
<path fill="none" stroke="black" d="M1458.28,-122.11C1458.28,-122.11 1458.28,-140.99 1458.28,-140.99"/>
<polygon fill="black" stroke="black" points="1454.78,-140.99 1458.28,-150.99 1461.78,-140.99 1454.78,-140.99"/>
</g>
<!-- ProvisioningService  -->
<g id="node8" class="node">
<title>ProvisioningService </title>
<polygon fill="#fb8072" stroke="black" points="1468.54,-252 1335.46,-252 1335.46,-216 1468.54,-216 1468.54,-252"/>
<text text-anchor="middle" x="1402" y="-229.8" font-family="Times,serif" font-size="14.00">ProvisioningService </text>
</g>
<!-- ProvisioningModule&#45;&gt;ProvisioningService  -->
<g id="edge7" class="edge">
<title>ProvisioningModule&#45;&gt;ProvisioningService </title>
<path fill="none" stroke="black" stroke-dasharray="5,2" d="M1402,-187.11C1402,-187.11 1402,-205.99 1402,-205.99"/>
<polygon fill="black" stroke="black" points="1398.5,-205.99 1402,-215.99 1405.5,-205.99 1398.5,-205.99"/>
</g>
<!-- IservProvisioningStrategy -->
<g id="node9" class="node">
<title>IservProvisioningStrategy</title>
<ellipse fill="#fdb462" stroke="black" cx="1313" cy="-104" rx="111.76" ry="18"/>
<text text-anchor="middle" x="1313" y="-99.8" font-family="Times,serif" font-size="14.00">IservProvisioningStrategy</text>
</g>
<!-- IservProvisioningStrategy&#45;&gt;ProvisioningModule -->
<g id="edge8" class="edge">
<title>IservProvisioningStrategy&#45;&gt;ProvisioningModule</title>
<path fill="none" stroke="black" d="M1380.66,-118.43C1380.66,-118.43 1380.66,-140.89 1380.66,-140.89"/>
<polygon fill="black" stroke="black" points="1377.16,-140.89 1380.66,-150.89 1384.16,-140.89 1377.16,-140.89"/>
</g>
<!-- OidcMockProvisioningStrategy -->
<g id="node10" class="node">
<title>OidcMockProvisioningStrategy</title>
<ellipse fill="#fdb462" stroke="black" cx="1049" cy="-104" rx="133.75" ry="18"/>
<text text-anchor="middle" x="1049" y="-99.8" font-family="Times,serif" font-size="14.00">OidcMockProvisioningStrategy</text>
</g>
<!-- OidcMockProvisioningStrategy&#45;&gt;ProvisioningModule -->
<g id="edge9" class="edge">
<title>OidcMockProvisioningStrategy&#45;&gt;ProvisioningModule</title>
<path fill="none" stroke="black" d="M1049,-122.24C1049,-137.57 1049,-157 1049,-157 1049,-157 1326.43,-157 1326.43,-157"/>
<polygon fill="black" stroke="black" points="1326.43,-160.5 1336.43,-157 1326.43,-153.5 1326.43,-160.5"/>
</g>
<!-- OidcProvisioningService -->
<g id="node11" class="node">
<title>OidcProvisioningService</title>
<ellipse fill="#fdb462" stroke="black" cx="789" cy="-104" rx="108.25" ry="18"/>
<text text-anchor="middle" x="789" y="-99.8" font-family="Times,serif" font-size="14.00">OidcProvisioningService</text>
</g>
<!-- OidcProvisioningService&#45;&gt;ProvisioningModule -->
<g id="edge10" class="edge">
<title>OidcProvisioningService&#45;&gt;ProvisioningModule</title>
<path fill="none" stroke="black" d="M789,-122.02C789,-139.37 789,-163 789,-163 789,-163 1326.4,-163 1326.4,-163"/>
<polygon fill="black" stroke="black" points="1326.4,-166.5 1336.4,-163 1326.4,-159.5 1326.4,-166.5"/>
</g>
<!-- ProvisioningService -->
<g id="node12" class="node">
<title>ProvisioningService</title>
<ellipse fill="#fdb462" stroke="black" cx="574" cy="-104" rx="89.21" ry="18"/>
<text text-anchor="middle" x="574" y="-99.8" font-family="Times,serif" font-size="14.00">ProvisioningService</text>
</g>
<!-- ProvisioningService&#45;&gt;ProvisioningModule -->
<g id="edge11" class="edge">
<title>ProvisioningService&#45;&gt;ProvisioningModule</title>
<path fill="none" stroke="black" d="M574,-122.11C574,-141.34 574,-169 574,-169 574,-169 1326.34,-169 1326.34,-169"/>
<polygon fill="black" stroke="black" points="1326.34,-172.5 1336.34,-169 1326.34,-165.5 1326.34,-172.5"/>
</g>
<!-- SanisProvisioningStrategy -->
<g id="node13" class="node">
<title>SanisProvisioningStrategy</title>
<ellipse fill="#fdb462" stroke="black" cx="353" cy="-104" rx="113.5" ry="18"/>
<text text-anchor="middle" x="353" y="-99.8" font-family="Times,serif" font-size="14.00">SanisProvisioningStrategy</text>
</g>
<!-- SanisProvisioningStrategy&#45;&gt;ProvisioningModule -->
<g id="edge12" class="edge">
<title>SanisProvisioningStrategy&#45;&gt;ProvisioningModule</title>
<path fill="none" stroke="black" d="M353,-122.28C353,-143.32 353,-175 353,-175 353,-175 1326.38,-175 1326.38,-175"/>
<polygon fill="black" stroke="black" points="1326.38,-178.5 1336.38,-175 1326.38,-171.5 1326.38,-178.5"/>
</g>
<!-- SanisResponseMapper -->
<g id="node14" class="node">
<title>SanisResponseMapper</title>
<ellipse fill="#fdb462" stroke="black" cx="123" cy="-104" rx="99" ry="18"/>
<text text-anchor="middle" x="123" y="-99.8" font-family="Times,serif" font-size="14.00">SanisResponseMapper</text>
</g>
<!-- SanisResponseMapper&#45;&gt;ProvisioningModule -->
<g id="edge13" class="edge">
<title>SanisResponseMapper&#45;&gt;ProvisioningModule</title>
<path fill="none" stroke="black" d="M123,-122.25C123,-145.02 123,-181 123,-181 123,-181 1326.37,-181 1326.37,-181"/>
<polygon fill="black" stroke="black" points="1326.37,-184.5 1336.37,-181 1326.37,-177.5 1326.37,-184.5"/>
</g>
</g>
</svg>
