<?xml version="1.0" encoding="UTF-8" standalone="no"?>
<!DOCTYPE svg PUBLIC "-//W3C//DTD SVG 1.1//EN"
 "http://www.w3.org/Graphics/SVG/1.1/DTD/svg11.dtd">
<!-- Generated by graphviz version 2.47.0 (20210316.0004)
 -->
<!-- Title: dependencies Pages: 1 -->
<svg width="4405pt" height="284pt"
 viewBox="0.00 0.00 4405.00 284.00" xmlns="http://www.w3.org/2000/svg" xmlns:xlink="http://www.w3.org/1999/xlink">
<g id="graph0" class="graph" transform="scale(1 1) rotate(0) translate(4 280)">
<title>dependencies</title>
<polygon fill="white" stroke="transparent" points="-4,4 -4,-280 4401,-280 4401,4 -4,4"/>
<text text-anchor="start" x="2177.51" y="-42.4" font-family="Times-12" font-weight="bold" font-size="14.00">Legend</text>
<polygon fill="#ffffb3" stroke="transparent" points="1964.5,-10 1964.5,-30 1984.5,-30 1984.5,-10 1964.5,-10"/>
<text text-anchor="start" x="1988.13" y="-15.4" font-family="Times-12" font-size="14.00"> &#160;Declarations</text>
<polygon fill="#8dd3c7" stroke="transparent" points="2077.5,-10 2077.5,-30 2097.5,-30 2097.5,-10 2077.5,-10"/>
<text text-anchor="start" x="2101.23" y="-15.4" font-family="Times-12" font-size="14.00"> &#160;Module</text>
<polygon fill="#80b1d3" stroke="transparent" points="2163.5,-10 2163.5,-30 2183.5,-30 2183.5,-10 2163.5,-10"/>
<text text-anchor="start" x="2187.28" y="-15.4" font-family="Times-12" font-size="14.00"> &#160;Bootstrap</text>
<polygon fill="#fdb462" stroke="transparent" points="2260.5,-10 2260.5,-30 2280.5,-30 2280.5,-10 2260.5,-10"/>
<text text-anchor="start" x="2284.17" y="-15.4" font-family="Times-12" font-size="14.00"> &#160;Providers</text>
<polygon fill="#fb8072" stroke="transparent" points="2356.5,-10 2356.5,-30 2376.5,-30 2376.5,-10 2356.5,-10"/>
<text text-anchor="start" x="2380.23" y="-15.4" font-family="Times-12" font-size="14.00"> &#160;Exports</text>
<g id="clust1" class="cluster">
<title>cluster_ProvisioningModule</title>
<polygon fill="none" stroke="black" stroke-dasharray="1,5" points="8,-70 8,-268 4389,-268 4389,-70 8,-70"/>
</g>
<g id="clust6" class="cluster">
<title>cluster_ProvisioningModule_providers</title>
<polygon fill="none" stroke="black" points="1522,-78 1522,-130 4381,-130 4381,-78 1522,-78"/>
</g>
<g id="clust3" class="cluster">
<title>cluster_ProvisioningModule_imports</title>
<polygon fill="none" stroke="black" points="16,-78 16,-130 1514,-130 1514,-78 16,-78"/>
</g>
<g id="clust4" class="cluster">
<title>cluster_ProvisioningModule_exports</title>
<polygon fill="none" stroke="black" points="1378,-208 1378,-260 1528,-260 1528,-208 1378,-208"/>
</g>
<!-- AccountModule -->
<g id="node1" class="node">
<title>AccountModule</title>
<polygon fill="#8dd3c7" stroke="black" points="1506.48,-122 1503.48,-126 1482.48,-126 1479.48,-122 1399.52,-122 1399.52,-86 1506.48,-86 1506.48,-122"/>
<text text-anchor="middle" x="1453" y="-99.8" font-family="Times,serif" font-size="14.00">AccountModule</text>
</g>
<!-- ProvisioningModule -->
<g id="node12" class="node">
<title>ProvisioningModule</title>
<polygon fill="#8dd3c7" stroke="black" points="1518.61,-187 1515.61,-191 1494.61,-191 1491.61,-187 1387.39,-187 1387.39,-151 1518.61,-151 1518.61,-187"/>
<text text-anchor="middle" x="1453" y="-164.8" font-family="Times,serif" font-size="14.00">ProvisioningModule</text>
</g>
<!-- AccountModule&#45;&gt;ProvisioningModule -->
<g id="edge1" class="edge">
<title>AccountModule&#45;&gt;ProvisioningModule</title>
<path fill="none" stroke="black" d="M1453,-122.11C1453,-122.11 1453,-140.99 1453,-140.99"/>
<polygon fill="black" stroke="black" points="1449.5,-140.99 1453,-150.99 1456.5,-140.99 1449.5,-140.99"/>
</g>
<!-- GroupModule -->
<g id="node2" class="node">
<title>GroupModule</title>
<polygon fill="#8dd3c7" stroke="black" points="1381.82,-122 1378.82,-126 1357.82,-126 1354.82,-122 1286.18,-122 1286.18,-86 1381.82,-86 1381.82,-122"/>
<text text-anchor="middle" x="1334" y="-99.8" font-family="Times,serif" font-size="14.00">GroupModule</text>
</g>
<!-- GroupModule&#45;&gt;ProvisioningModule -->
<g id="edge2" class="edge">
<title>GroupModule&#45;&gt;ProvisioningModule</title>
<path fill="none" stroke="black" d="M1381.73,-104C1388.64,-104 1393.48,-104 1393.48,-104 1393.48,-104 1393.48,-140.89 1393.48,-140.89"/>
<polygon fill="black" stroke="black" points="1389.98,-140.89 1393.48,-150.89 1396.98,-140.89 1389.98,-140.89"/>
</g>
<!-- LearnroomModule -->
<g id="node3" class="node">
<title>LearnroomModule</title>
<polygon fill="#8dd3c7" stroke="black" points="1267.74,-122 1264.74,-126 1243.74,-126 1240.74,-122 1146.26,-122 1146.26,-86 1267.74,-86 1267.74,-122"/>
<text text-anchor="middle" x="1207" y="-99.8" font-family="Times,serif" font-size="14.00">LearnroomModule</text>
</g>
<!-- LearnroomModule&#45;&gt;ProvisioningModule -->
<g id="edge3" class="edge">
<title>LearnroomModule&#45;&gt;ProvisioningModule</title>
<path fill="none" stroke="black" d="M1207,-122.12C1207,-136.78 1207,-155 1207,-155 1207,-155 1377.4,-155 1377.4,-155"/>
<polygon fill="black" stroke="black" points="1377.4,-158.5 1387.4,-155 1377.4,-151.5 1377.4,-158.5"/>
</g>
<!-- LegacySchoolModule -->
<g id="node4" class="node">
<title>LegacySchoolModule</title>
<polygon fill="#8dd3c7" stroke="black" points="1127.63,-122 1124.63,-126 1103.63,-126 1100.63,-122 988.37,-122 988.37,-86 1127.63,-86 1127.63,-122"/>
<text text-anchor="middle" x="1058" y="-99.8" font-family="Times,serif" font-size="14.00">LegacySchoolModule</text>
</g>
<!-- LegacySchoolModule&#45;&gt;ProvisioningModule -->
<g id="edge4" class="edge">
<title>LegacySchoolModule&#45;&gt;ProvisioningModule</title>
<path fill="none" stroke="black" d="M1058,-122.01C1058,-138.05 1058,-159 1058,-159 1058,-159 1377.33,-159 1377.33,-159"/>
<polygon fill="black" stroke="black" points="1377.33,-162.5 1387.33,-159 1377.33,-155.5 1377.33,-162.5"/>
</g>
<!-- LoggerModule -->
<g id="node5" class="node">
<title>LoggerModule</title>
<polygon fill="#8dd3c7" stroke="black" points="969.98,-122 966.98,-126 945.98,-126 942.98,-122 870.02,-122 870.02,-86 969.98,-86 969.98,-122"/>
<text text-anchor="middle" x="920" y="-99.8" font-family="Times,serif" font-size="14.00">LoggerModule</text>
</g>
<!-- LoggerModule&#45;&gt;ProvisioningModule -->
<g id="edge5" class="edge">
<title>LoggerModule&#45;&gt;ProvisioningModule</title>
<path fill="none" stroke="black" d="M920,-122.03C920,-139.06 920,-162 920,-162 920,-162 1377.38,-162 1377.38,-162"/>
<polygon fill="black" stroke="black" points="1377.38,-165.5 1387.38,-162 1377.38,-158.5 1377.38,-165.5"/>
</g>
<!-- ProvisioningConfigModule -->
<g id="node6" class="node">
<title>ProvisioningConfigModule</title>
<polygon fill="#8dd3c7" stroke="black" points="852,-122 849,-126 828,-126 825,-122 682,-122 682,-86 852,-86 852,-122"/>
<text text-anchor="middle" x="767" y="-99.8" font-family="Times,serif" font-size="14.00">ProvisioningConfigModule</text>
</g>
<!-- ProvisioningConfigModule&#45;&gt;ProvisioningModule -->
<g id="edge6" class="edge">
<title>ProvisioningConfigModule&#45;&gt;ProvisioningModule</title>
<path fill="none" stroke="black" d="M767,-122.27C767,-140.56 767,-166 767,-166 767,-166 1377.22,-166 1377.22,-166"/>
<polygon fill="black" stroke="black" points="1377.22,-169.5 1387.22,-166 1377.22,-162.5 1377.22,-169.5"/>
</g>
<!-- RoleModule -->
<g id="node7" class="node">
<title>RoleModule</title>
<polygon fill="#8dd3c7" stroke="black" points="663.99,-122 660.99,-126 639.99,-126 636.99,-122 578.01,-122 578.01,-86 663.99,-86 663.99,-122"/>
<text text-anchor="middle" x="621" y="-99.8" font-family="Times,serif" font-size="14.00">RoleModule</text>
</g>
<!-- RoleModule&#45;&gt;ProvisioningModule -->
<g id="edge7" class="edge">
<title>RoleModule&#45;&gt;ProvisioningModule</title>
<path fill="none" stroke="black" d="M621,-122.11C621,-141.34 621,-169 621,-169 621,-169 1377.37,-169 1377.37,-169"/>
<polygon fill="black" stroke="black" points="1377.37,-172.5 1387.37,-169 1377.37,-165.5 1377.37,-172.5"/>
</g>
<!-- SchulconnexClientModule -->
<g id="node8" class="node">
<title>SchulconnexClientModule</title>
<polygon fill="#8dd3c7" stroke="black" points="560.09,-122 557.09,-126 536.09,-126 533.09,-122 393.91,-122 393.91,-86 560.09,-86 560.09,-122"/>
<text text-anchor="middle" x="477" y="-99.8" font-family="Times,serif" font-size="14.00">SchulconnexClientModule</text>
</g>
<!-- SchulconnexClientModule&#45;&gt;ProvisioningModule -->
<g id="edge8" class="edge">
<title>SchulconnexClientModule&#45;&gt;ProvisioningModule</title>
<path fill="none" stroke="black" d="M477,-122.13C477,-142.57 477,-173 477,-173 477,-173 1377.07,-173 1377.07,-173"/>
<polygon fill="black" stroke="black" points="1377.07,-176.5 1387.07,-173 1377.07,-169.5 1377.07,-176.5"/>
</g>
<!-- SystemModule -->
<g id="node9" class="node">
<title>SystemModule</title>
<polygon fill="#8dd3c7" stroke="black" points="376.27,-122 373.27,-126 352.27,-126 349.27,-122 275.73,-122 275.73,-86 376.27,-86 376.27,-122"/>
<text text-anchor="middle" x="326" y="-99.8" font-family="Times,serif" font-size="14.00">SystemModule</text>
</g>
<!-- SystemModule&#45;&gt;ProvisioningModule -->
<g id="edge9" class="edge">
<title>SystemModule&#45;&gt;ProvisioningModule</title>
<path fill="none" stroke="black" d="M326,-122.04C326,-143.66 326,-177 326,-177 326,-177 1377.12,-177 1377.12,-177"/>
<polygon fill="black" stroke="black" points="1377.12,-180.5 1387.12,-177 1377.12,-173.5 1377.12,-180.5"/>
</g>
<!-- UserLicenseModule -->
<g id="node10" class="node">
<title>UserLicenseModule</title>
<polygon fill="#8dd3c7" stroke="black" points="257.51,-122 254.51,-126 233.51,-126 230.51,-122 128.49,-122 128.49,-86 257.51,-86 257.51,-122"/>
<text text-anchor="middle" x="193" y="-99.8" font-family="Times,serif" font-size="14.00">UserLicenseModule</text>
</g>
<!-- UserLicenseModule&#45;&gt;ProvisioningModule -->
<g id="edge10" class="edge">
<title>UserLicenseModule&#45;&gt;ProvisioningModule</title>
<path fill="none" stroke="black" d="M193,-122.01C193,-144.49 193,-180 193,-180 193,-180 1377.03,-180 1377.03,-180"/>
<polygon fill="black" stroke="black" points="1377.03,-183.5 1387.03,-180 1377.03,-176.5 1377.03,-183.5"/>
</g>
<!-- UserModule -->
<g id="node11" class="node">
<title>UserModule</title>
<polygon fill="#8dd3c7" stroke="black" points="109.98,-122 106.98,-126 85.98,-126 82.98,-122 24.02,-122 24.02,-86 109.98,-86 109.98,-122"/>
<text text-anchor="middle" x="67" y="-99.8" font-family="Times,serif" font-size="14.00">UserModule</text>
</g>
<!-- UserModule&#45;&gt;ProvisioningModule -->
<g id="edge11" class="edge">
<title>UserModule&#45;&gt;ProvisioningModule</title>
<path fill="none" stroke="black" d="M67,-122.15C67,-145.76 67,-184 67,-184 67,-184 1377.08,-184 1377.08,-184"/>
<polygon fill="black" stroke="black" points="1377.08,-187.5 1387.08,-184 1377.08,-180.5 1377.08,-187.5"/>
</g>
<!-- ProvisioningService  -->
<g id="node13" class="node">
<title>ProvisioningService </title>
<polygon fill="#fb8072" stroke="black" points="1519.54,-252 1386.46,-252 1386.46,-216 1519.54,-216 1519.54,-252"/>
<text text-anchor="middle" x="1453" y="-229.8" font-family="Times,serif" font-size="14.00">ProvisioningService </text>
</g>
<!-- ProvisioningModule&#45;&gt;ProvisioningService  -->
<g id="edge12" class="edge">
<title>ProvisioningModule&#45;&gt;ProvisioningService </title>
<path fill="none" stroke="black" stroke-dasharray="5,2" d="M1453,-187.11C1453,-187.11 1453,-205.99 1453,-205.99"/>
<polygon fill="black" stroke="black" points="1449.5,-205.99 1453,-215.99 1456.5,-205.99 1449.5,-205.99"/>
</g>
<!-- IservProvisioningStrategy -->
<g id="node14" class="node">
<title>IservProvisioningStrategy</title>
<ellipse fill="#fdb462" stroke="black" cx="4261" cy="-104" rx="111.76" ry="18"/>
<text text-anchor="middle" x="4261" y="-99.8" font-family="Times,serif" font-size="14.00">IservProvisioningStrategy</text>
</g>
<!-- IservProvisioningStrategy&#45;&gt;ProvisioningModule -->
<g id="edge13" class="edge">
<title>IservProvisioningStrategy&#45;&gt;ProvisioningModule</title>
<path fill="none" stroke="black" d="M4261,-122.15C4261,-145.76 4261,-184 4261,-184 4261,-184 1528.62,-184 1528.62,-184"/>
<polygon fill="black" stroke="black" points="1528.62,-180.5 1518.62,-184 1528.62,-187.5 1528.62,-180.5"/>
</g>
<!-- OidcMockProvisioningStrategy -->
<g id="node15" class="node">
<title>OidcMockProvisioningStrategy</title>
<ellipse fill="#fdb462" stroke="black" cx="3997" cy="-104" rx="133.75" ry="18"/>
<text text-anchor="middle" x="3997" y="-99.8" font-family="Times,serif" font-size="14.00">OidcMockProvisioningStrategy</text>
</g>
<!-- OidcMockProvisioningStrategy&#45;&gt;ProvisioningModule -->
<g id="edge14" class="edge">
<title>OidcMockProvisioningStrategy&#45;&gt;ProvisioningModule</title>
<path fill="none" stroke="black" d="M3997,-122.01C3997,-144.49 3997,-180 3997,-180 3997,-180 1528.77,-180 1528.77,-180"/>
<polygon fill="black" stroke="black" points="1528.77,-176.5 1518.77,-180 1528.77,-183.5 1528.77,-176.5"/>
</g>
<!-- ProvisioningService -->
<g id="node16" class="node">
<title>ProvisioningService</title>
<ellipse fill="#fdb462" stroke="black" cx="3756" cy="-104" rx="89.21" ry="18"/>
<text text-anchor="middle" x="3756" y="-99.8" font-family="Times,serif" font-size="14.00">ProvisioningService</text>
</g>
<!-- ProvisioningService&#45;&gt;ProvisioningModule -->
<g id="edge15" class="edge">
<title>ProvisioningService&#45;&gt;ProvisioningModule</title>
<path fill="none" stroke="black" d="M3756,-122.04C3756,-143.66 3756,-177 3756,-177 3756,-177 1528.83,-177 1528.83,-177"/>
<polygon fill="black" stroke="black" points="1528.83,-173.5 1518.83,-177 1528.83,-180.5 1528.83,-173.5"/>
</g>
<!-- SanisProvisioningStrategy -->
<g id="node17" class="node">
<title>SanisProvisioningStrategy</title>
<ellipse fill="#fdb462" stroke="black" cx="3535" cy="-104" rx="113.5" ry="18"/>
<text text-anchor="middle" x="3535" y="-99.8" font-family="Times,serif" font-size="14.00">SanisProvisioningStrategy</text>
</g>
<!-- SanisProvisioningStrategy&#45;&gt;ProvisioningModule -->
<g id="edge16" class="edge">
<title>SanisProvisioningStrategy&#45;&gt;ProvisioningModule</title>
<path fill="none" stroke="black" d="M3535,-122.13C3535,-142.57 3535,-173 3535,-173 3535,-173 1528.75,-173 1528.75,-173"/>
<polygon fill="black" stroke="black" points="1528.75,-169.5 1518.75,-173 1528.75,-176.5 1528.75,-169.5"/>
</g>
<!-- SanisResponseMapper -->
<g id="node18" class="node">
<title>SanisResponseMapper</title>
<ellipse fill="#fdb462" stroke="black" cx="3305" cy="-104" rx="99" ry="18"/>
<text text-anchor="middle" x="3305" y="-99.8" font-family="Times,serif" font-size="14.00">SanisResponseMapper</text>
</g>
<!-- SanisResponseMapper&#45;&gt;ProvisioningModule -->
<g id="edge17" class="edge">
<title>SanisResponseMapper&#45;&gt;ProvisioningModule</title>
<path fill="none" stroke="black" d="M3305,-122.11C3305,-141.34 3305,-169 3305,-169 3305,-169 1528.64,-169 1528.64,-169"/>
<polygon fill="black" stroke="black" points="1528.64,-165.5 1518.64,-169 1528.64,-172.5 1528.64,-165.5"/>
</g>
<!-- SchulconnexCourseSyncService -->
<g id="node19" class="node">
<title>SchulconnexCourseSyncService</title>
<ellipse fill="#fdb462" stroke="black" cx="3051" cy="-104" rx="136.58" ry="18"/>
<text text-anchor="middle" x="3051" y="-99.8" font-family="Times,serif" font-size="14.00">SchulconnexCourseSyncService</text>
</g>
<!-- SchulconnexCourseSyncService&#45;&gt;ProvisioningModule -->
<g id="edge18" class="edge">
<title>SchulconnexCourseSyncService&#45;&gt;ProvisioningModule</title>
<path fill="none" stroke="black" d="M3051,-122.27C3051,-140.56 3051,-166 3051,-166 3051,-166 1528.62,-166 1528.62,-166"/>
<polygon fill="black" stroke="black" points="1528.62,-162.5 1518.62,-166 1528.62,-169.5 1528.62,-162.5"/>
</g>
<!-- SchulconnexGroupProvisioningService -->
<g id="node20" class="node">
<title>SchulconnexGroupProvisioningService</title>
<ellipse fill="#fdb462" stroke="black" cx="2733" cy="-104" rx="163.81" ry="18"/>
<text text-anchor="middle" x="2733" y="-99.8" font-family="Times,serif" font-size="14.00">SchulconnexGroupProvisioningService</text>
</g>
<!-- SchulconnexGroupProvisioningService&#45;&gt;ProvisioningModule -->
<g id="edge19" class="edge">
<title>SchulconnexGroupProvisioningService&#45;&gt;ProvisioningModule</title>
<path fill="none" stroke="black" d="M2733,-122.03C2733,-139.06 2733,-162 2733,-162 2733,-162 1528.68,-162 1528.68,-162"/>
<polygon fill="black" stroke="black" points="1528.68,-158.5 1518.68,-162 1528.68,-165.5 1528.68,-158.5"/>
</g>
<!-- SchulconnexLicenseProvisioningService -->
<g id="node21" class="node">
<title>SchulconnexLicenseProvisioningService</title>
<ellipse fill="#fdb462" stroke="black" cx="2382" cy="-104" rx="169.03" ry="18"/>
<text text-anchor="middle" x="2382" y="-99.8" font-family="Times,serif" font-size="14.00">SchulconnexLicenseProvisioningService</text>
</g>
<!-- SchulconnexLicenseProvisioningService&#45;&gt;ProvisioningModule -->
<g id="edge20" class="edge">
<title>SchulconnexLicenseProvisioningService&#45;&gt;ProvisioningModule</title>
<path fill="none" stroke="black" d="M2382,-122.01C2382,-138.05 2382,-159 2382,-159 2382,-159 1528.7,-159 1528.7,-159"/>
<polygon fill="black" stroke="black" points="1528.7,-155.5 1518.7,-159 1528.7,-162.5 1528.7,-155.5"/>
</g>
<!-- SchulconnexSchoolProvisioningService -->
<g id="node22" class="node">
<title>SchulconnexSchoolProvisioningService</title>
<ellipse fill="#fdb462" stroke="black" cx="2029" cy="-104" rx="166.12" ry="18"/>
<text text-anchor="middle" x="2029" y="-99.8" font-family="Times,serif" font-size="14.00">SchulconnexSchoolProvisioningService</text>
</g>
<!-- SchulconnexSchoolProvisioningService&#45;&gt;ProvisioningModule -->
<g id="edge21" class="edge">
<title>SchulconnexSchoolProvisioningService&#45;&gt;ProvisioningModule</title>
<path fill="none" stroke="black" d="M2029,-122.12C2029,-136.78 2029,-155 2029,-155 2029,-155 1528.79,-155 1528.79,-155"/>
<polygon fill="black" stroke="black" points="1528.79,-151.5 1518.79,-155 1528.79,-158.5 1528.79,-151.5"/>
</g>
<!-- SchulconnexUserProvisioningService -->
<g id="node23" class="node">
<title>SchulconnexUserProvisioningService</title>
<ellipse fill="#fdb462" stroke="black" cx="1687" cy="-104" rx="157.43" ry="18"/>
<text text-anchor="middle" x="1687" y="-99.8" font-family="Times,serif" font-size="14.00">SchulconnexUserProvisioningService</text>
</g>
<!-- SchulconnexUserProvisioningService&#45;&gt;ProvisioningModule -->
<g id="edge22" class="edge">
<title>SchulconnexUserProvisioningService&#45;&gt;ProvisioningModule</title>
<path fill="none" stroke="black" d="M1529.25,-104C1518.91,-104 1512.52,-104 1512.52,-104 1512.52,-104 1512.52,-140.89 1512.52,-140.89"/>
<polygon fill="black" stroke="black" points="1509.02,-140.89 1512.52,-150.89 1516.02,-140.89 1509.02,-140.89"/>
</g>
</g>
</svg>
