<?xml version="1.0" encoding="UTF-8" standalone="no"?>
<!DOCTYPE svg PUBLIC "-//W3C//DTD SVG 1.1//EN"
 "http://www.w3.org/Graphics/SVG/1.1/DTD/svg11.dtd">
<!-- Generated by graphviz version 2.47.0 (20210316.0004)
 -->
<!-- Title: dependencies Pages: 1 -->
<svg width="4405pt" height="284pt"
 viewBox="0.00 0.00 4405.00 284.00" xmlns="http://www.w3.org/2000/svg" xmlns:xlink="http://www.w3.org/1999/xlink">
<g id="graph0" class="graph" transform="scale(1 1) rotate(0) translate(4 280)">
<title>dependencies</title>
<polygon fill="white" stroke="transparent" points="-4,4 -4,-280 4401,-280 4401,4 -4,4"/>
<text text-anchor="start" x="2177.51" y="-42.4" font-family="Times-12" font-weight="bold" font-size="14.00">Legend</text>
<polygon fill="#ffffb3" stroke="transparent" points="1964.5,-10 1964.5,-30 1984.5,-30 1984.5,-10 1964.5,-10"/>
<text text-anchor="start" x="1988.13" y="-15.4" font-family="Times-12" font-size="14.00"> &#160;Declarations</text>
<polygon fill="#8dd3c7" stroke="transparent" points="2077.5,-10 2077.5,-30 2097.5,-30 2097.5,-10 2077.5,-10"/>
<text text-anchor="start" x="2101.23" y="-15.4" font-family="Times-12" font-size="14.00"> &#160;Module</text>
<polygon fill="#80b1d3" stroke="transparent" points="2163.5,-10 2163.5,-30 2183.5,-30 2183.5,-10 2163.5,-10"/>
<text text-anchor="start" x="2187.28" y="-15.4" font-family="Times-12" font-size="14.00"> &#160;Bootstrap</text>
<polygon fill="#fdb462" stroke="transparent" points="2260.5,-10 2260.5,-30 2280.5,-30 2280.5,-10 2260.5,-10"/>
<text text-anchor="start" x="2284.17" y="-15.4" font-family="Times-12" font-size="14.00"> &#160;Providers</text>
<polygon fill="#fb8072" stroke="transparent" points="2356.5,-10 2356.5,-30 2376.5,-30 2376.5,-10 2356.5,-10"/>
<text text-anchor="start" x="2380.23" y="-15.4" font-family="Times-12" font-size="14.00"> &#160;Exports</text>
<g id="clust1" class="cluster">
<title>cluster_ProvisioningModule</title>
<polygon fill="none" stroke="black" stroke-dasharray="1,5" points="8,-70 8,-268 4389,-268 4389,-70 8,-70"/>
</g>
<g id="clust4" class="cluster">
<title>cluster_ProvisioningModule_exports</title>
<polygon fill="none" stroke="black" points="2859,-208 2859,-260 3009,-260 3009,-208 2859,-208"/>
</g>
<g id="clust3" class="cluster">
<title>cluster_ProvisioningModule_imports</title>
<polygon fill="none" stroke="black" points="2883,-78 2883,-130 4381,-130 4381,-78 2883,-78"/>
</g>
<g id="clust6" class="cluster">
<title>cluster_ProvisioningModule_providers</title>
<polygon fill="none" stroke="black" points="16,-78 16,-130 2875,-130 2875,-78 16,-78"/>
</g>
<!-- AccountModule -->
<g id="node1" class="node">
<title>AccountModule</title>
<polygon fill="#8dd3c7" stroke="black" points="4373.48,-122 4370.48,-126 4349.48,-126 4346.48,-122 4266.52,-122 4266.52,-86 4373.48,-86 4373.48,-122"/>
<text text-anchor="middle" x="4320" y="-99.8" font-family="Times,serif" font-size="14.00">AccountModule</text>
</g>
<!-- ProvisioningModule -->
<g id="node12" class="node">
<title>ProvisioningModule</title>
<polygon fill="#8dd3c7" stroke="black" points="2999.61,-187 2996.61,-191 2975.61,-191 2972.61,-187 2868.39,-187 2868.39,-151 2999.61,-151 2999.61,-187"/>
<text text-anchor="middle" x="2934" y="-164.8" font-family="Times,serif" font-size="14.00">ProvisioningModule</text>
</g>
<!-- AccountModule&#45;&gt;ProvisioningModule -->
<g id="edge1" class="edge">
<title>AccountModule&#45;&gt;ProvisioningModule</title>
<path fill="none" stroke="black" d="M4320,-122.15C4320,-145.76 4320,-184 4320,-184 4320,-184 3009.92,-184 3009.92,-184"/>
<polygon fill="black" stroke="black" points="3009.92,-180.5 2999.92,-184 3009.92,-187.5 3009.92,-180.5"/>
</g>
<!-- GroupModule -->
<g id="node2" class="node">
<title>GroupModule</title>
<polygon fill="#8dd3c7" stroke="black" points="4248.82,-122 4245.82,-126 4224.82,-126 4221.82,-122 4153.18,-122 4153.18,-86 4248.82,-86 4248.82,-122"/>
<text text-anchor="middle" x="4201" y="-99.8" font-family="Times,serif" font-size="14.00">GroupModule</text>
</g>
<!-- GroupModule&#45;&gt;ProvisioningModule -->
<g id="edge2" class="edge">
<title>GroupModule&#45;&gt;ProvisioningModule</title>
<path fill="none" stroke="black" d="M4201,-122.01C4201,-144.49 4201,-180 4201,-180 4201,-180 3009.89,-180 3009.89,-180"/>
<polygon fill="black" stroke="black" points="3009.89,-176.5 2999.89,-180 3009.89,-183.5 3009.89,-176.5"/>
</g>
<!-- LearnroomModule -->
<g id="node3" class="node">
<title>LearnroomModule</title>
<polygon fill="#8dd3c7" stroke="black" points="4134.74,-122 4131.74,-126 4110.74,-126 4107.74,-122 4013.26,-122 4013.26,-86 4134.74,-86 4134.74,-122"/>
<text text-anchor="middle" x="4074" y="-99.8" font-family="Times,serif" font-size="14.00">LearnroomModule</text>
</g>
<!-- LearnroomModule&#45;&gt;ProvisioningModule -->
<g id="edge3" class="edge">
<title>LearnroomModule&#45;&gt;ProvisioningModule</title>
<path fill="none" stroke="black" d="M4074,-122.04C4074,-143.66 4074,-177 4074,-177 4074,-177 3009.8,-177 3009.8,-177"/>
<polygon fill="black" stroke="black" points="3009.8,-173.5 2999.8,-177 3009.8,-180.5 3009.8,-173.5"/>
</g>
<!-- LegacySchoolModule -->
<g id="node4" class="node">
<title>LegacySchoolModule</title>
<polygon fill="#8dd3c7" stroke="black" points="3994.63,-122 3991.63,-126 3970.63,-126 3967.63,-122 3855.37,-122 3855.37,-86 3994.63,-86 3994.63,-122"/>
<text text-anchor="middle" x="3925" y="-99.8" font-family="Times,serif" font-size="14.00">LegacySchoolModule</text>
</g>
<!-- LegacySchoolModule&#45;&gt;ProvisioningModule -->
<g id="edge4" class="edge">
<title>LegacySchoolModule&#45;&gt;ProvisioningModule</title>
<path fill="none" stroke="black" d="M3925,-122.13C3925,-142.57 3925,-173 3925,-173 3925,-173 3009.79,-173 3009.79,-173"/>
<polygon fill="black" stroke="black" points="3009.79,-169.5 2999.79,-173 3009.79,-176.5 3009.79,-169.5"/>
</g>
<!-- LoggerModule -->
<g id="node5" class="node">
<title>LoggerModule</title>
<polygon fill="#8dd3c7" stroke="black" points="3836.98,-122 3833.98,-126 3812.98,-126 3809.98,-122 3737.02,-122 3737.02,-86 3836.98,-86 3836.98,-122"/>
<text text-anchor="middle" x="3787" y="-99.8" font-family="Times,serif" font-size="14.00">LoggerModule</text>
</g>
<!-- LoggerModule&#45;&gt;ProvisioningModule -->
<g id="edge5" class="edge">
<title>LoggerModule&#45;&gt;ProvisioningModule</title>
<path fill="none" stroke="black" d="M3787,-122.11C3787,-141.34 3787,-169 3787,-169 3787,-169 3009.87,-169 3009.87,-169"/>
<polygon fill="black" stroke="black" points="3009.87,-165.5 2999.87,-169 3009.87,-172.5 3009.87,-165.5"/>
</g>
<!-- ProvisioningConfigModule -->
<g id="node6" class="node">
<title>ProvisioningConfigModule</title>
<polygon fill="#8dd3c7" stroke="black" points="3719,-122 3716,-126 3695,-126 3692,-122 3549,-122 3549,-86 3719,-86 3719,-122"/>
<text text-anchor="middle" x="3634" y="-99.8" font-family="Times,serif" font-size="14.00">ProvisioningConfigModule</text>
</g>
<!-- ProvisioningConfigModule&#45;&gt;ProvisioningModule -->
<g id="edge6" class="edge">
<title>ProvisioningConfigModule&#45;&gt;ProvisioningModule</title>
<path fill="none" stroke="black" d="M3634,-122.27C3634,-140.56 3634,-166 3634,-166 3634,-166 3009.85,-166 3009.85,-166"/>
<polygon fill="black" stroke="black" points="3009.85,-162.5 2999.85,-166 3009.85,-169.5 3009.85,-162.5"/>
</g>
<!-- RoleModule -->
<g id="node7" class="node">
<title>RoleModule</title>
<polygon fill="#8dd3c7" stroke="black" points="3530.99,-122 3527.99,-126 3506.99,-126 3503.99,-122 3445.01,-122 3445.01,-86 3530.99,-86 3530.99,-122"/>
<text text-anchor="middle" x="3488" y="-99.8" font-family="Times,serif" font-size="14.00">RoleModule</text>
</g>
<!-- RoleModule&#45;&gt;ProvisioningModule -->
<g id="edge7" class="edge">
<title>RoleModule&#45;&gt;ProvisioningModule</title>
<path fill="none" stroke="black" d="M3488,-122.03C3488,-139.06 3488,-162 3488,-162 3488,-162 3009.73,-162 3009.73,-162"/>
<polygon fill="black" stroke="black" points="3009.73,-158.5 2999.73,-162 3009.73,-165.5 3009.73,-158.5"/>
</g>
<!-- SchulconnexClientModule -->
<g id="node8" class="node">
<title>SchulconnexClientModule</title>
<polygon fill="#8dd3c7" stroke="black" points="3427.09,-122 3424.09,-126 3403.09,-126 3400.09,-122 3260.91,-122 3260.91,-86 3427.09,-86 3427.09,-122"/>
<text text-anchor="middle" x="3344" y="-99.8" font-family="Times,serif" font-size="14.00">SchulconnexClientModule</text>
</g>
<!-- SchulconnexClientModule&#45;&gt;ProvisioningModule -->
<g id="edge8" class="edge">
<title>SchulconnexClientModule&#45;&gt;ProvisioningModule</title>
<path fill="none" stroke="black" d="M3344,-122.01C3344,-138.05 3344,-159 3344,-159 3344,-159 3009.87,-159 3009.87,-159"/>
<polygon fill="black" stroke="black" points="3009.87,-155.5 2999.87,-159 3009.87,-162.5 3009.87,-155.5"/>
</g>
<!-- SystemModule -->
<g id="node9" class="node">
<title>SystemModule</title>
<polygon fill="#8dd3c7" stroke="black" points="3243.27,-122 3240.27,-126 3219.27,-126 3216.27,-122 3142.73,-122 3142.73,-86 3243.27,-86 3243.27,-122"/>
<text text-anchor="middle" x="3193" y="-99.8" font-family="Times,serif" font-size="14.00">SystemModule</text>
</g>
<!-- SystemModule&#45;&gt;ProvisioningModule -->
<g id="edge9" class="edge">
<title>SystemModule&#45;&gt;ProvisioningModule</title>
<path fill="none" stroke="black" d="M3193,-122.12C3193,-136.78 3193,-155 3193,-155 3193,-155 3009.69,-155 3009.69,-155"/>
<polygon fill="black" stroke="black" points="3009.69,-151.5 2999.69,-155 3009.69,-158.5 3009.69,-151.5"/>
</g>
<!-- UserLicenseModule -->
<g id="node10" class="node">
<title>UserLicenseModule</title>
<polygon fill="#8dd3c7" stroke="black" points="3124.51,-122 3121.51,-126 3100.51,-126 3097.51,-122 2995.49,-122 2995.49,-86 3124.51,-86 3124.51,-122"/>
<text text-anchor="middle" x="3060" y="-99.8" font-family="Times,serif" font-size="14.00">UserLicenseModule</text>
</g>
<!-- UserLicenseModule&#45;&gt;ProvisioningModule -->
<g id="edge10" class="edge">
<title>UserLicenseModule&#45;&gt;ProvisioningModule</title>
<path fill="none" stroke="black" d="M2995.47,-104C2989.78,-104 2986.12,-104 2986.12,-104 2986.12,-104 2986.12,-140.89 2986.12,-140.89"/>
<polygon fill="black" stroke="black" points="2982.62,-140.89 2986.12,-150.89 2989.62,-140.89 2982.62,-140.89"/>
</g>
<!-- UserModule -->
<g id="node11" class="node">
<title>UserModule</title>
<polygon fill="#8dd3c7" stroke="black" points="2976.98,-122 2973.98,-126 2952.98,-126 2949.98,-122 2891.02,-122 2891.02,-86 2976.98,-86 2976.98,-122"/>
<text text-anchor="middle" x="2934" y="-99.8" font-family="Times,serif" font-size="14.00">UserModule</text>
</g>
<!-- UserModule&#45;&gt;ProvisioningModule -->
<g id="edge11" class="edge">
<title>UserModule&#45;&gt;ProvisioningModule</title>
<path fill="none" stroke="black" d="M2934,-122.11C2934,-122.11 2934,-140.99 2934,-140.99"/>
<polygon fill="black" stroke="black" points="2930.5,-140.99 2934,-150.99 2937.5,-140.99 2930.5,-140.99"/>
</g>
<!-- ProvisioningService  -->
<g id="node13" class="node">
<title>ProvisioningService </title>
<polygon fill="#fb8072" stroke="black" points="3000.54,-252 2867.46,-252 2867.46,-216 3000.54,-216 3000.54,-252"/>
<text text-anchor="middle" x="2934" y="-229.8" font-family="Times,serif" font-size="14.00">ProvisioningService </text>
</g>
<!-- ProvisioningModule&#45;&gt;ProvisioningService  -->
<g id="edge12" class="edge">
<title>ProvisioningModule&#45;&gt;ProvisioningService </title>
<path fill="none" stroke="black" stroke-dasharray="5,2" d="M2934,-187.11C2934,-187.11 2934,-205.99 2934,-205.99"/>
<polygon fill="black" stroke="black" points="2930.5,-205.99 2934,-215.99 2937.5,-205.99 2930.5,-205.99"/>
</g>
<!-- IservProvisioningStrategy -->
<g id="node14" class="node">
<title>IservProvisioningStrategy</title>
<ellipse fill="#fdb462" stroke="black" cx="2755" cy="-104" rx="111.76" ry="18"/>
<text text-anchor="middle" x="2755" y="-99.8" font-family="Times,serif" font-size="14.00">IservProvisioningStrategy</text>
</g>
<!-- IservProvisioningStrategy&#45;&gt;ProvisioningModule -->
<g id="edge13" class="edge">
<title>IservProvisioningStrategy&#45;&gt;ProvisioningModule</title>
<path fill="none" stroke="black" d="M2867.31,-104C2874.97,-104 2879.73,-104 2879.73,-104 2879.73,-104 2879.73,-140.89 2879.73,-140.89"/>
<polygon fill="black" stroke="black" points="2876.23,-140.89 2879.73,-150.89 2883.23,-140.89 2876.23,-140.89"/>
</g>
<!-- OidcMockProvisioningStrategy -->
<g id="node15" class="node">
<title>OidcMockProvisioningStrategy</title>
<ellipse fill="#fdb462" stroke="black" cx="2491" cy="-104" rx="133.75" ry="18"/>
<text text-anchor="middle" x="2491" y="-99.8" font-family="Times,serif" font-size="14.00">OidcMockProvisioningStrategy</text>
</g>
<!-- OidcMockProvisioningStrategy&#45;&gt;ProvisioningModule -->
<g id="edge14" class="edge">
<title>OidcMockProvisioningStrategy&#45;&gt;ProvisioningModule</title>
<path fill="none" stroke="black" d="M2491,-122.12C2491,-136.78 2491,-155 2491,-155 2491,-155 2858.16,-155 2858.16,-155"/>
<polygon fill="black" stroke="black" points="2858.16,-158.5 2868.16,-155 2858.16,-151.5 2858.16,-158.5"/>
</g>
<!-- ProvisioningService -->
<g id="node16" class="node">
<title>ProvisioningService</title>
<ellipse fill="#fdb462" stroke="black" cx="2250" cy="-104" rx="89.21" ry="18"/>
<text text-anchor="middle" x="2250" y="-99.8" font-family="Times,serif" font-size="14.00">ProvisioningService</text>
</g>
<!-- ProvisioningService&#45;&gt;ProvisioningModule -->
<g id="edge15" class="edge">
<title>ProvisioningService&#45;&gt;ProvisioningModule</title>
<path fill="none" stroke="black" d="M2250,-122.01C2250,-138.05 2250,-159 2250,-159 2250,-159 2858.42,-159 2858.42,-159"/>
<polygon fill="black" stroke="black" points="2858.42,-162.5 2868.42,-159 2858.42,-155.5 2858.42,-162.5"/>
</g>
<!-- SanisProvisioningStrategy -->
<g id="node17" class="node">
<title>SanisProvisioningStrategy</title>
<ellipse fill="#fdb462" stroke="black" cx="2029" cy="-104" rx="113.5" ry="18"/>
<text text-anchor="middle" x="2029" y="-99.8" font-family="Times,serif" font-size="14.00">SanisProvisioningStrategy</text>
</g>
<!-- SanisProvisioningStrategy&#45;&gt;ProvisioningModule -->
<g id="edge16" class="edge">
<title>SanisProvisioningStrategy&#45;&gt;ProvisioningModule</title>
<path fill="none" stroke="black" d="M2029,-122.03C2029,-139.06 2029,-162 2029,-162 2029,-162 2858.19,-162 2858.19,-162"/>
<polygon fill="black" stroke="black" points="2858.19,-165.5 2868.19,-162 2858.19,-158.5 2858.19,-165.5"/>
</g>
<!-- SanisResponseMapper -->
<g id="node18" class="node">
<title>SanisResponseMapper</title>
<ellipse fill="#fdb462" stroke="black" cx="1799" cy="-104" rx="99" ry="18"/>
<text text-anchor="middle" x="1799" y="-99.8" font-family="Times,serif" font-size="14.00">SanisResponseMapper</text>
</g>
<!-- SanisResponseMapper&#45;&gt;ProvisioningModule -->
<g id="edge17" class="edge">
<title>SanisResponseMapper&#45;&gt;ProvisioningModule</title>
<path fill="none" stroke="black" d="M1799,-122.27C1799,-140.56 1799,-166 1799,-166 1799,-166 2858.07,-166 2858.07,-166"/>
<polygon fill="black" stroke="black" points="2858.07,-169.5 2868.07,-166 2858.07,-162.5 2858.07,-169.5"/>
</g>
<!-- SchulconnexCourseSyncService -->
<g id="node19" class="node">
<title>SchulconnexCourseSyncService</title>
<ellipse fill="#fdb462" stroke="black" cx="1545" cy="-104" rx="136.58" ry="18"/>
<text text-anchor="middle" x="1545" y="-99.8" font-family="Times,serif" font-size="14.00">SchulconnexCourseSyncService</text>
</g>
<!-- SchulconnexCourseSyncService&#45;&gt;ProvisioningModule -->
<g id="edge18" class="edge">
<title>SchulconnexCourseSyncService&#45;&gt;ProvisioningModule</title>
<path fill="none" stroke="black" d="M1545,-122.11C1545,-141.34 1545,-169 1545,-169 1545,-169 2858.41,-169 2858.41,-169"/>
<polygon fill="black" stroke="black" points="2858.41,-172.5 2868.41,-169 2858.41,-165.5 2858.41,-172.5"/>
</g>
<!-- SchulconnexGroupProvisioningService -->
<g id="node20" class="node">
<title>SchulconnexGroupProvisioningService</title>
<ellipse fill="#fdb462" stroke="black" cx="1227" cy="-104" rx="163.81" ry="18"/>
<text text-anchor="middle" x="1227" y="-99.8" font-family="Times,serif" font-size="14.00">SchulconnexGroupProvisioningService</text>
</g>
<!-- SchulconnexGroupProvisioningService&#45;&gt;ProvisioningModule -->
<g id="edge19" class="edge">
<title>SchulconnexGroupProvisioningService&#45;&gt;ProvisioningModule</title>
<path fill="none" stroke="black" d="M1227,-122.13C1227,-142.57 1227,-173 1227,-173 1227,-173 2858.39,-173 2858.39,-173"/>
<polygon fill="black" stroke="black" points="2858.39,-176.5 2868.39,-173 2858.39,-169.5 2858.39,-176.5"/>
</g>
<!-- SchulconnexLicenseProvisioningService -->
<g id="node21" class="node">
<title>SchulconnexLicenseProvisioningService</title>
<ellipse fill="#fdb462" stroke="black" cx="876" cy="-104" rx="169.03" ry="18"/>
<text text-anchor="middle" x="876" y="-99.8" font-family="Times,serif" font-size="14.00">SchulconnexLicenseProvisioningService</text>
</g>
<!-- SchulconnexLicenseProvisioningService&#45;&gt;ProvisioningModule -->
<g id="edge20" class="edge">
<title>SchulconnexLicenseProvisioningService&#45;&gt;ProvisioningModule</title>
<path fill="none" stroke="black" d="M876,-122.04C876,-143.66 876,-177 876,-177 876,-177 2858.43,-177 2858.43,-177"/>
<polygon fill="black" stroke="black" points="2858.43,-180.5 2868.43,-177 2858.43,-173.5 2858.43,-180.5"/>
</g>
<!-- SchulconnexSchoolProvisioningService -->
<g id="node22" class="node">
<title>SchulconnexSchoolProvisioningService</title>
<ellipse fill="#fdb462" stroke="black" cx="523" cy="-104" rx="166.12" ry="18"/>
<text text-anchor="middle" x="523" y="-99.8" font-family="Times,serif" font-size="14.00">SchulconnexSchoolProvisioningService</text>
</g>
<!-- SchulconnexSchoolProvisioningService&#45;&gt;ProvisioningModule -->
<g id="edge21" class="edge">
<title>SchulconnexSchoolProvisioningService&#45;&gt;ProvisioningModule</title>
<path fill="none" stroke="black" d="M523,-122.01C523,-144.49 523,-180 523,-180 523,-180 2858.26,-180 2858.26,-180"/>
<polygon fill="black" stroke="black" points="2858.26,-183.5 2868.26,-180 2858.26,-176.5 2858.26,-183.5"/>
</g>
<!-- SchulconnexUserProvisioningService -->
<g id="node23" class="node">
<title>SchulconnexUserProvisioningService</title>
<ellipse fill="#fdb462" stroke="black" cx="181" cy="-104" rx="157.43" ry="18"/>
<text text-anchor="middle" x="181" y="-99.8" font-family="Times,serif" font-size="14.00">SchulconnexUserProvisioningService</text>
</g>
<!-- SchulconnexUserProvisioningService&#45;&gt;ProvisioningModule -->
<g id="edge22" class="edge">
<title>SchulconnexUserProvisioningService&#45;&gt;ProvisioningModule</title>
<path fill="none" stroke="black" d="M181,-122.15C181,-145.76 181,-184 181,-184 181,-184 2858.33,-184 2858.33,-184"/>
<polygon fill="black" stroke="black" points="2858.33,-187.5 2868.33,-184 2858.33,-180.5 2858.33,-187.5"/>
</g>
</g>
</svg>
