<?xml version="1.0" encoding="UTF-8" standalone="no"?>
<!DOCTYPE svg PUBLIC "-//W3C//DTD SVG 1.1//EN"
 "http://www.w3.org/Graphics/SVG/1.1/DTD/svg11.dtd">
<!-- Generated by graphviz version 2.47.0 (20210316.0004)
 -->
<!-- Title: dependencies Pages: 1 -->
<svg width="4949pt" height="284pt"
 viewBox="0.00 0.00 4949.00 284.00" xmlns="http://www.w3.org/2000/svg" xmlns:xlink="http://www.w3.org/1999/xlink">
<g id="graph0" class="graph" transform="scale(1 1) rotate(0) translate(4 280)">
<title>dependencies</title>
<polygon fill="white" stroke="transparent" points="-4,4 -4,-280 4945,-280 4945,4 -4,4"/>
<text text-anchor="start" x="2449.51" y="-42.4" font-family="Times-12" font-weight="bold" font-size="14.00">Legend</text>
<polygon fill="#ffffb3" stroke="transparent" points="2236.5,-10 2236.5,-30 2256.5,-30 2256.5,-10 2236.5,-10"/>
<text text-anchor="start" x="2260.13" y="-15.4" font-family="Times-12" font-size="14.00"> &#160;Declarations</text>
<polygon fill="#8dd3c7" stroke="transparent" points="2349.5,-10 2349.5,-30 2369.5,-30 2369.5,-10 2349.5,-10"/>
<text text-anchor="start" x="2373.23" y="-15.4" font-family="Times-12" font-size="14.00"> &#160;Module</text>
<polygon fill="#80b1d3" stroke="transparent" points="2435.5,-10 2435.5,-30 2455.5,-30 2455.5,-10 2435.5,-10"/>
<text text-anchor="start" x="2459.28" y="-15.4" font-family="Times-12" font-size="14.00"> &#160;Bootstrap</text>
<polygon fill="#fdb462" stroke="transparent" points="2532.5,-10 2532.5,-30 2552.5,-30 2552.5,-10 2532.5,-10"/>
<text text-anchor="start" x="2556.17" y="-15.4" font-family="Times-12" font-size="14.00"> &#160;Providers</text>
<polygon fill="#fb8072" stroke="transparent" points="2628.5,-10 2628.5,-30 2648.5,-30 2648.5,-10 2628.5,-10"/>
<text text-anchor="start" x="2652.23" y="-15.4" font-family="Times-12" font-size="14.00"> &#160;Exports</text>
<g id="clust1" class="cluster">
<title>cluster_ProvisioningModule</title>
<polygon fill="none" stroke="black" stroke-dasharray="1,5" points="8,-70 8,-268 4933,-268 4933,-70 8,-70"/>
</g>
<g id="clust4" class="cluster">
<title>cluster_ProvisioningModule_exports</title>
<polygon fill="none" stroke="black" points="3250,-208 3250,-260 3400,-260 3400,-208 3250,-208"/>
</g>
<g id="clust3" class="cluster">
<title>cluster_ProvisioningModule_imports</title>
<polygon fill="none" stroke="black" points="3274,-78 3274,-130 4925,-130 4925,-78 3274,-78"/>
</g>
<g id="clust6" class="cluster">
<title>cluster_ProvisioningModule_providers</title>
<polygon fill="none" stroke="black" points="16,-78 16,-130 3266,-130 3266,-78 16,-78"/>
</g>
<!-- AccountModule -->
<g id="node1" class="node">
<title>AccountModule</title>
<polygon fill="#8dd3c7" stroke="black" points="4917.48,-122 4914.48,-126 4893.48,-126 4890.48,-122 4810.52,-122 4810.52,-86 4917.48,-86 4917.48,-122"/>
<text text-anchor="middle" x="4864" y="-99.8" font-family="Times,serif" font-size="14.00">AccountModule</text>
</g>
<!-- ProvisioningModule -->
<g id="node13" class="node">
<title>ProvisioningModule</title>
<polygon fill="#8dd3c7" stroke="black" points="3390.61,-187 3387.61,-191 3366.61,-191 3363.61,-187 3259.39,-187 3259.39,-151 3390.61,-151 3390.61,-187"/>
<text text-anchor="middle" x="3325" y="-164.8" font-family="Times,serif" font-size="14.00">ProvisioningModule</text>
</g>
<!-- AccountModule&#45;&gt;ProvisioningModule -->
<g id="edge1" class="edge">
<title>AccountModule&#45;&gt;ProvisioningModule</title>
<path fill="none" stroke="black" d="M4864,-122.15C4864,-145.76 4864,-184 4864,-184 4864,-184 3400.64,-184 3400.64,-184"/>
<polygon fill="black" stroke="black" points="3400.64,-180.5 3390.64,-184 3400.64,-187.5 3400.64,-180.5"/>
</g>
<!-- ExternalToolModule -->
<g id="node2" class="node">
<title>ExternalToolModule</title>
<polygon fill="#8dd3c7" stroke="black" points="4792.92,-122 4789.92,-126 4768.92,-126 4765.92,-122 4659.08,-122 4659.08,-86 4792.92,-86 4792.92,-122"/>
<text text-anchor="middle" x="4726" y="-99.8" font-family="Times,serif" font-size="14.00">ExternalToolModule</text>
</g>
<!-- ExternalToolModule&#45;&gt;ProvisioningModule -->
<g id="edge2" class="edge">
<title>ExternalToolModule&#45;&gt;ProvisioningModule</title>
<path fill="none" stroke="black" d="M4726,-122.25C4726,-145.02 4726,-181 4726,-181 4726,-181 3400.69,-181 3400.69,-181"/>
<polygon fill="black" stroke="black" points="3400.69,-177.5 3390.69,-181 3400.69,-184.5 3400.69,-177.5"/>
</g>
<!-- GroupModule -->
<g id="node3" class="node">
<title>GroupModule</title>
<polygon fill="#8dd3c7" stroke="black" points="4641.82,-122 4638.82,-126 4617.82,-126 4614.82,-122 4546.18,-122 4546.18,-86 4641.82,-86 4641.82,-122"/>
<text text-anchor="middle" x="4594" y="-99.8" font-family="Times,serif" font-size="14.00">GroupModule</text>
</g>
<!-- GroupModule&#45;&gt;ProvisioningModule -->
<g id="edge3" class="edge">
<title>GroupModule&#45;&gt;ProvisioningModule</title>
<path fill="none" stroke="black" d="M4594,-122.29C4594,-144.21 4594,-178 4594,-178 4594,-178 3400.55,-178 3400.55,-178"/>
<polygon fill="black" stroke="black" points="3400.55,-174.5 3390.55,-178 3400.55,-181.5 3400.55,-174.5"/>
</g>
<!-- LearnroomModule -->
<g id="node4" class="node">
<title>LearnroomModule</title>
<polygon fill="#8dd3c7" stroke="black" points="4527.74,-122 4524.74,-126 4503.74,-126 4500.74,-122 4406.26,-122 4406.26,-86 4527.74,-86 4527.74,-122"/>
<text text-anchor="middle" x="4467" y="-99.8" font-family="Times,serif" font-size="14.00">LearnroomModule</text>
</g>
<!-- LearnroomModule&#45;&gt;ProvisioningModule -->
<g id="edge4" class="edge">
<title>LearnroomModule&#45;&gt;ProvisioningModule</title>
<path fill="none" stroke="black" d="M4467,-122.03C4467,-142.77 4467,-174 4467,-174 4467,-174 3400.92,-174 3400.92,-174"/>
<polygon fill="black" stroke="black" points="3400.92,-170.5 3390.92,-174 3400.92,-177.5 3400.92,-170.5"/>
</g>
<!-- LegacySchoolModule -->
<g id="node5" class="node">
<title>LegacySchoolModule</title>
<polygon fill="#8dd3c7" stroke="black" points="4387.63,-122 4384.63,-126 4363.63,-126 4360.63,-122 4248.37,-122 4248.37,-86 4387.63,-86 4387.63,-122"/>
<text text-anchor="middle" x="4318" y="-99.8" font-family="Times,serif" font-size="14.00">LegacySchoolModule</text>
</g>
<!-- LegacySchoolModule&#45;&gt;ProvisioningModule -->
<g id="edge5" class="edge">
<title>LegacySchoolModule&#45;&gt;ProvisioningModule</title>
<path fill="none" stroke="black" d="M4318,-122.31C4318,-142.15 4318,-171 4318,-171 4318,-171 3400.92,-171 3400.92,-171"/>
<polygon fill="black" stroke="black" points="3400.92,-167.5 3390.92,-171 3400.92,-174.5 3400.92,-167.5"/>
</g>
<!-- LoggerModule -->
<g id="node6" class="node">
<title>LoggerModule</title>
<polygon fill="#8dd3c7" stroke="black" points="4229.98,-122 4226.98,-126 4205.98,-126 4202.98,-122 4130.02,-122 4130.02,-86 4229.98,-86 4229.98,-122"/>
<text text-anchor="middle" x="4180" y="-99.8" font-family="Times,serif" font-size="14.00">LoggerModule</text>
</g>
<!-- LoggerModule&#45;&gt;ProvisioningModule -->
<g id="edge6" class="edge">
<title>LoggerModule&#45;&gt;ProvisioningModule</title>
<path fill="none" stroke="black" d="M4180,-122.17C4180,-141.09 4180,-168 4180,-168 4180,-168 3400.67,-168 3400.67,-168"/>
<polygon fill="black" stroke="black" points="3400.67,-164.5 3390.67,-168 3400.67,-171.5 3400.67,-164.5"/>
</g>
<!-- RoleModule -->
<g id="node7" class="node">
<title>RoleModule</title>
<polygon fill="#8dd3c7" stroke="black" points="4111.99,-122 4108.99,-126 4087.99,-126 4084.99,-122 4026.01,-122 4026.01,-86 4111.99,-86 4111.99,-122"/>
<text text-anchor="middle" x="4069" y="-99.8" font-family="Times,serif" font-size="14.00">RoleModule</text>
</g>
<!-- RoleModule&#45;&gt;ProvisioningModule -->
<g id="edge7" class="edge">
<title>RoleModule&#45;&gt;ProvisioningModule</title>
<path fill="none" stroke="black" d="M4069,-122.3C4069,-140.27 4069,-165 4069,-165 4069,-165 3400.7,-165 3400.7,-165"/>
<polygon fill="black" stroke="black" points="3400.7,-161.5 3390.7,-165 3400.7,-168.5 3400.7,-161.5"/>
</g>
<!-- SchoolExternalToolModule -->
<g id="node8" class="node">
<title>SchoolExternalToolModule</title>
<polygon fill="#8dd3c7" stroke="black" points="4008.3,-122 4005.3,-126 3984.3,-126 3981.3,-122 3835.7,-122 3835.7,-86 4008.3,-86 4008.3,-122"/>
<text text-anchor="middle" x="3922" y="-99.8" font-family="Times,serif" font-size="14.00">SchoolExternalToolModule</text>
</g>
<!-- SchoolExternalToolModule&#45;&gt;ProvisioningModule -->
<g id="edge8" class="edge">
<title>SchoolExternalToolModule&#45;&gt;ProvisioningModule</title>
<path fill="none" stroke="black" d="M3922,-122.04C3922,-138.73 3922,-161 3922,-161 3922,-161 3400.6,-161 3400.6,-161"/>
<polygon fill="black" stroke="black" points="3400.6,-157.5 3390.6,-161 3400.6,-164.5 3400.6,-157.5"/>
</g>
<!-- SchulconnexClientModule -->
<g id="node9" class="node">
<title>SchulconnexClientModule</title>
<polygon fill="#8dd3c7" stroke="black" points="3818.09,-122 3815.09,-126 3794.09,-126 3791.09,-122 3651.91,-122 3651.91,-86 3818.09,-86 3818.09,-122"/>
<text text-anchor="middle" x="3735" y="-99.8" font-family="Times,serif" font-size="14.00">SchulconnexClientModule</text>
</g>
<!-- SchulconnexClientModule&#45;&gt;ProvisioningModule -->
<g id="edge9" class="edge">
<title>SchulconnexClientModule&#45;&gt;ProvisioningModule</title>
<path fill="none" stroke="black" d="M3735,-122.28C3735,-137.95 3735,-158 3735,-158 3735,-158 3400.87,-158 3400.87,-158"/>
<polygon fill="black" stroke="black" points="3400.87,-154.5 3390.87,-158 3400.87,-161.5 3400.87,-154.5"/>
</g>
<!-- SystemModule -->
<g id="node10" class="node">
<title>SystemModule</title>
<polygon fill="#8dd3c7" stroke="black" points="3634.27,-122 3631.27,-126 3610.27,-126 3607.27,-122 3533.73,-122 3533.73,-86 3634.27,-86 3634.27,-122"/>
<text text-anchor="middle" x="3584" y="-99.8" font-family="Times,serif" font-size="14.00">SystemModule</text>
</g>
<!-- SystemModule&#45;&gt;ProvisioningModule -->
<g id="edge10" class="edge">
<title>SystemModule&#45;&gt;ProvisioningModule</title>
<path fill="none" stroke="black" d="M3584,-122.12C3584,-136.78 3584,-155 3584,-155 3584,-155 3400.69,-155 3400.69,-155"/>
<polygon fill="black" stroke="black" points="3400.69,-151.5 3390.69,-155 3400.69,-158.5 3400.69,-151.5"/>
</g>
<!-- UserLicenseModule -->
<g id="node11" class="node">
<title>UserLicenseModule</title>
<polygon fill="#8dd3c7" stroke="black" points="3515.51,-122 3512.51,-126 3491.51,-126 3488.51,-122 3386.49,-122 3386.49,-86 3515.51,-86 3515.51,-122"/>
<text text-anchor="middle" x="3451" y="-99.8" font-family="Times,serif" font-size="14.00">UserLicenseModule</text>
</g>
<!-- UserLicenseModule&#45;&gt;ProvisioningModule -->
<g id="edge11" class="edge">
<title>UserLicenseModule&#45;&gt;ProvisioningModule</title>
<path fill="none" stroke="black" d="M3386.47,-104C3380.78,-104 3377.12,-104 3377.12,-104 3377.12,-104 3377.12,-140.89 3377.12,-140.89"/>
<polygon fill="black" stroke="black" points="3373.62,-140.89 3377.12,-150.89 3380.62,-140.89 3373.62,-140.89"/>
</g>
<!-- UserModule -->
<g id="node12" class="node">
<title>UserModule</title>
<polygon fill="#8dd3c7" stroke="black" points="3367.98,-122 3364.98,-126 3343.98,-126 3340.98,-122 3282.02,-122 3282.02,-86 3367.98,-86 3367.98,-122"/>
<text text-anchor="middle" x="3325" y="-99.8" font-family="Times,serif" font-size="14.00">UserModule</text>
</g>
<!-- UserModule&#45;&gt;ProvisioningModule -->
<g id="edge12" class="edge">
<title>UserModule&#45;&gt;ProvisioningModule</title>
<path fill="none" stroke="black" d="M3325,-122.11C3325,-122.11 3325,-140.99 3325,-140.99"/>
<polygon fill="black" stroke="black" points="3321.5,-140.99 3325,-150.99 3328.5,-140.99 3321.5,-140.99"/>
</g>
<!-- ProvisioningService  -->
<g id="node14" class="node">
<title>ProvisioningService </title>
<polygon fill="#fb8072" stroke="black" points="3391.54,-252 3258.46,-252 3258.46,-216 3391.54,-216 3391.54,-252"/>
<text text-anchor="middle" x="3325" y="-229.8" font-family="Times,serif" font-size="14.00">ProvisioningService </text>
</g>
<!-- ProvisioningModule&#45;&gt;ProvisioningService  -->
<g id="edge13" class="edge">
<title>ProvisioningModule&#45;&gt;ProvisioningService </title>
<path fill="none" stroke="black" stroke-dasharray="5,2" d="M3325,-187.11C3325,-187.11 3325,-205.99 3325,-205.99"/>
<polygon fill="black" stroke="black" points="3321.5,-205.99 3325,-215.99 3328.5,-205.99 3321.5,-205.99"/>
</g>
<!-- IservProvisioningStrategy -->
<g id="node15" class="node">
<title>IservProvisioningStrategy</title>
<ellipse fill="#fdb462" stroke="black" cx="3146" cy="-104" rx="111.76" ry="18"/>
<text text-anchor="middle" x="3146" y="-99.8" font-family="Times,serif" font-size="14.00">IservProvisioningStrategy</text>
</g>
<!-- IservProvisioningStrategy&#45;&gt;ProvisioningModule -->
<g id="edge14" class="edge">
<title>IservProvisioningStrategy&#45;&gt;ProvisioningModule</title>
<path fill="none" stroke="black" d="M3258.31,-104C3265.97,-104 3270.73,-104 3270.73,-104 3270.73,-104 3270.73,-140.89 3270.73,-140.89"/>
<polygon fill="black" stroke="black" points="3267.23,-140.89 3270.73,-150.89 3274.23,-140.89 3267.23,-140.89"/>
</g>
<!-- OidcMockProvisioningStrategy -->
<g id="node16" class="node">
<title>OidcMockProvisioningStrategy</title>
<ellipse fill="#fdb462" stroke="black" cx="2882" cy="-104" rx="133.75" ry="18"/>
<text text-anchor="middle" x="2882" y="-99.8" font-family="Times,serif" font-size="14.00">OidcMockProvisioningStrategy</text>
</g>
<!-- OidcMockProvisioningStrategy&#45;&gt;ProvisioningModule -->
<g id="edge15" class="edge">
<title>OidcMockProvisioningStrategy&#45;&gt;ProvisioningModule</title>
<path fill="none" stroke="black" d="M2882,-122.12C2882,-136.78 2882,-155 2882,-155 2882,-155 3249.16,-155 3249.16,-155"/>
<polygon fill="black" stroke="black" points="3249.16,-158.5 3259.16,-155 3249.16,-151.5 3249.16,-158.5"/>
</g>
<!-- ProvisioningService -->
<g id="node17" class="node">
<title>ProvisioningService</title>
<ellipse fill="#fdb462" stroke="black" cx="2641" cy="-104" rx="89.21" ry="18"/>
<text text-anchor="middle" x="2641" y="-99.8" font-family="Times,serif" font-size="14.00">ProvisioningService</text>
</g>
<!-- ProvisioningService&#45;&gt;ProvisioningModule -->
<g id="edge16" class="edge">
<title>ProvisioningService&#45;&gt;ProvisioningModule</title>
<path fill="none" stroke="black" d="M2641,-122.28C2641,-137.95 2641,-158 2641,-158 2641,-158 3249.42,-158 3249.42,-158"/>
<polygon fill="black" stroke="black" points="3249.42,-161.5 3259.42,-158 3249.42,-154.5 3249.42,-161.5"/>
</g>
<!-- SanisProvisioningStrategy -->
<g id="node18" class="node">
<title>SanisProvisioningStrategy</title>
<ellipse fill="#fdb462" stroke="black" cx="2420" cy="-104" rx="113.5" ry="18"/>
<text text-anchor="middle" x="2420" y="-99.8" font-family="Times,serif" font-size="14.00">SanisProvisioningStrategy</text>
</g>
<!-- SanisProvisioningStrategy&#45;&gt;ProvisioningModule -->
<g id="edge17" class="edge">
<title>SanisProvisioningStrategy&#45;&gt;ProvisioningModule</title>
<path fill="none" stroke="black" d="M2420,-122.04C2420,-138.73 2420,-161 2420,-161 2420,-161 3249.19,-161 3249.19,-161"/>
<polygon fill="black" stroke="black" points="3249.19,-164.5 3259.19,-161 3249.19,-157.5 3249.19,-164.5"/>
</g>
<!-- SchulconnexCourseSyncService -->
<g id="node19" class="node">
<title>SchulconnexCourseSyncService</title>
<ellipse fill="#fdb462" stroke="black" cx="2152" cy="-104" rx="136.58" ry="18"/>
<text text-anchor="middle" x="2152" y="-99.8" font-family="Times,serif" font-size="14.00">SchulconnexCourseSyncService</text>
</g>
<!-- SchulconnexCourseSyncService&#45;&gt;ProvisioningModule -->
<g id="edge18" class="edge">
<title>SchulconnexCourseSyncService&#45;&gt;ProvisioningModule</title>
<path fill="none" stroke="black" d="M2152,-122.3C2152,-140.27 2152,-165 2152,-165 2152,-165 3249.42,-165 3249.42,-165"/>
<polygon fill="black" stroke="black" points="3249.42,-168.5 3259.42,-165 3249.42,-161.5 3249.42,-168.5"/>
</g>
<!-- SchulconnexGroupProvisioningService -->
<g id="node20" class="node">
<title>SchulconnexGroupProvisioningService</title>
<ellipse fill="#fdb462" stroke="black" cx="1834" cy="-104" rx="163.81" ry="18"/>
<text text-anchor="middle" x="1834" y="-99.8" font-family="Times,serif" font-size="14.00">SchulconnexGroupProvisioningService</text>
</g>
<!-- SchulconnexGroupProvisioningService&#45;&gt;ProvisioningModule -->
<g id="edge19" class="edge">
<title>SchulconnexGroupProvisioningService&#45;&gt;ProvisioningModule</title>
<path fill="none" stroke="black" d="M1834,-122.17C1834,-141.09 1834,-168 1834,-168 1834,-168 3249.01,-168 3249.01,-168"/>
<polygon fill="black" stroke="black" points="3249.01,-171.5 3259.01,-168 3249.01,-164.5 3249.01,-171.5"/>
</g>
<!-- SchulconnexLicenseProvisioningService -->
<g id="node21" class="node">
<title>SchulconnexLicenseProvisioningService</title>
<ellipse fill="#fdb462" stroke="black" cx="1483" cy="-104" rx="169.03" ry="18"/>
<text text-anchor="middle" x="1483" y="-99.8" font-family="Times,serif" font-size="14.00">SchulconnexLicenseProvisioningService</text>
</g>
<!-- SchulconnexLicenseProvisioningService&#45;&gt;ProvisioningModule -->
<g id="edge20" class="edge">
<title>SchulconnexLicenseProvisioningService&#45;&gt;ProvisioningModule</title>
<path fill="none" stroke="black" d="M1483,-122.31C1483,-142.15 1483,-171 1483,-171 1483,-171 3249.44,-171 3249.44,-171"/>
<polygon fill="black" stroke="black" points="3249.44,-174.5 3259.44,-171 3249.44,-167.5 3249.44,-174.5"/>
</g>
<!-- SchulconnexResponseMapper -->
<g id="node22" class="node">
<title>SchulconnexResponseMapper</title>
<ellipse fill="#fdb462" stroke="black" cx="1168" cy="-104" rx="127.92" ry="18"/>
<text text-anchor="middle" x="1168" y="-99.8" font-family="Times,serif" font-size="14.00">SchulconnexResponseMapper</text>
</g>
<!-- SchulconnexResponseMapper&#45;&gt;ProvisioningModule -->
<g id="edge21" class="edge">
<title>SchulconnexResponseMapper&#45;&gt;ProvisioningModule</title>
<path fill="none" stroke="black" d="M1168,-122.03C1168,-142.77 1168,-174 1168,-174 1168,-174 3249.27,-174 3249.27,-174"/>
<polygon fill="black" stroke="black" points="3249.27,-177.5 3259.27,-174 3249.27,-170.5 3249.27,-177.5"/>
</g>
<!-- SchulconnexSchoolProvisioningService -->
<g id="node23" class="node">
<title>SchulconnexSchoolProvisioningService</title>
<ellipse fill="#fdb462" stroke="black" cx="856" cy="-104" rx="166.12" ry="18"/>
<text text-anchor="middle" x="856" y="-99.8" font-family="Times,serif" font-size="14.00">SchulconnexSchoolProvisioningService</text>
</g>
<!-- SchulconnexSchoolProvisioningService&#45;&gt;ProvisioningModule -->
<g id="edge22" class="edge">
<title>SchulconnexSchoolProvisioningService&#45;&gt;ProvisioningModule</title>
<path fill="none" stroke="black" d="M856,-122.29C856,-144.21 856,-178 856,-178 856,-178 3249.28,-178 3249.28,-178"/>
<polygon fill="black" stroke="black" points="3249.28,-181.5 3259.28,-178 3249.28,-174.5 3249.28,-181.5"/>
</g>
<!-- SchulconnexToolProvisioningService -->
<g id="node24" class="node">
<title>SchulconnexToolProvisioningService</title>
<ellipse fill="#fdb462" stroke="black" cx="514" cy="-104" rx="157.45" ry="18"/>
<text text-anchor="middle" x="514" y="-99.8" font-family="Times,serif" font-size="14.00">SchulconnexToolProvisioningService</text>
</g>
<!-- SchulconnexToolProvisioningService&#45;&gt;ProvisioningModule -->
<g id="edge23" class="edge">
<title>SchulconnexToolProvisioningService&#45;&gt;ProvisioningModule</title>
<path fill="none" stroke="black" d="M514,-122.25C514,-145.02 514,-181 514,-181 514,-181 3249.31,-181 3249.31,-181"/>
<polygon fill="black" stroke="black" points="3249.31,-184.5 3259.31,-181 3249.31,-177.5 3249.31,-184.5"/>
</g>
<!-- SchulconnexUserProvisioningService -->
<g id="node25" class="node">
<title>SchulconnexUserProvisioningService</title>
<ellipse fill="#fdb462" stroke="black" cx="181" cy="-104" rx="157.43" ry="18"/>
<text text-anchor="middle" x="181" y="-99.8" font-family="Times,serif" font-size="14.00">SchulconnexUserProvisioningService</text>
</g>
<!-- SchulconnexUserProvisioningService&#45;&gt;ProvisioningModule -->
<g id="edge24" class="edge">
<title>SchulconnexUserProvisioningService&#45;&gt;ProvisioningModule</title>
<path fill="none" stroke="black" d="M181,-122.15C181,-145.76 181,-184 181,-184 181,-184 3249.33,-184 3249.33,-184"/>
<polygon fill="black" stroke="black" points="3249.33,-187.5 3259.33,-184 3249.33,-180.5 3249.33,-187.5"/>
</g>
</g>
</svg>
