<?xml version="1.0" encoding="UTF-8" standalone="no"?>
<!DOCTYPE svg PUBLIC "-//W3C//DTD SVG 1.1//EN"
 "http://www.w3.org/Graphics/SVG/1.1/DTD/svg11.dtd">
<!-- Generated by graphviz version 2.47.0 (20210316.0004)
 -->
<!-- Title: dependencies Pages: 1 -->
<svg width="3717pt" height="284pt"
 viewBox="0.00 0.00 3717.00 284.00" xmlns="http://www.w3.org/2000/svg" xmlns:xlink="http://www.w3.org/1999/xlink">
<g id="graph0" class="graph" transform="scale(1 1) rotate(0) translate(4 280)">
<title>dependencies</title>
<polygon fill="white" stroke="transparent" points="-4,4 -4,-280 3713,-280 3713,4 -4,4"/>
<text text-anchor="start" x="1833.51" y="-42.4" font-family="Times-12" font-weight="bold" font-size="14.00">Legend</text>
<polygon fill="#ffffb3" stroke="transparent" points="1620.5,-10 1620.5,-30 1640.5,-30 1640.5,-10 1620.5,-10"/>
<text text-anchor="start" x="1644.13" y="-15.4" font-family="Times-12" font-size="14.00"> &#160;Declarations</text>
<polygon fill="#8dd3c7" stroke="transparent" points="1733.5,-10 1733.5,-30 1753.5,-30 1753.5,-10 1733.5,-10"/>
<text text-anchor="start" x="1757.23" y="-15.4" font-family="Times-12" font-size="14.00"> &#160;Module</text>
<polygon fill="#80b1d3" stroke="transparent" points="1819.5,-10 1819.5,-30 1839.5,-30 1839.5,-10 1819.5,-10"/>
<text text-anchor="start" x="1843.28" y="-15.4" font-family="Times-12" font-size="14.00"> &#160;Bootstrap</text>
<polygon fill="#fdb462" stroke="transparent" points="1916.5,-10 1916.5,-30 1936.5,-30 1936.5,-10 1916.5,-10"/>
<text text-anchor="start" x="1940.17" y="-15.4" font-family="Times-12" font-size="14.00"> &#160;Providers</text>
<polygon fill="#fb8072" stroke="transparent" points="2012.5,-10 2012.5,-30 2032.5,-30 2032.5,-10 2012.5,-10"/>
<text text-anchor="start" x="2036.23" y="-15.4" font-family="Times-12" font-size="14.00"> &#160;Exports</text>
<g id="clust1" class="cluster">
<title>cluster_ProvisioningModule</title>
<polygon fill="none" stroke="black" stroke-dasharray="1,5" points="8,-70 8,-268 3701,-268 3701,-70 8,-70"/>
</g>
<g id="clust3" class="cluster">
<title>cluster_ProvisioningModule_imports</title>
<polygon fill="none" stroke="black" points="2527,-78 2527,-130 3693,-130 3693,-78 2527,-78"/>
</g>
<g id="clust6" class="cluster">
<title>cluster_ProvisioningModule_providers</title>
<polygon fill="none" stroke="black" points="16,-78 16,-130 2519,-130 2519,-78 16,-78"/>
</g>
<g id="clust4" class="cluster">
<title>cluster_ProvisioningModule_exports</title>
<polygon fill="none" stroke="black" points="2413,-208 2413,-260 2563,-260 2563,-208 2413,-208"/>
</g>
<!-- AccountModule -->
<g id="node1" class="node">
<title>AccountModule</title>
<polygon fill="#8dd3c7" stroke="black" points="3685.48,-122 3682.48,-126 3661.48,-126 3658.48,-122 3578.52,-122 3578.52,-86 3685.48,-86 3685.48,-122"/>
<text text-anchor="middle" x="3632" y="-99.8" font-family="Times,serif" font-size="14.00">AccountModule</text>
</g>
<!-- ProvisioningModule -->
<g id="node10" class="node">
<title>ProvisioningModule</title>
<polygon fill="#8dd3c7" stroke="black" points="2553.61,-187 2550.61,-191 2529.61,-191 2526.61,-187 2422.39,-187 2422.39,-151 2553.61,-151 2553.61,-187"/>
<text text-anchor="middle" x="2488" y="-164.8" font-family="Times,serif" font-size="14.00">ProvisioningModule</text>
</g>
<!-- AccountModule&#45;&gt;ProvisioningModule -->
<g id="edge1" class="edge">
<title>AccountModule&#45;&gt;ProvisioningModule</title>
<path fill="none" stroke="black" d="M3632,-122.32C3632,-145.66 3632,-183 3632,-183 3632,-183 2563.62,-183 2563.62,-183"/>
<polygon fill="black" stroke="black" points="2563.62,-179.5 2553.62,-183 2563.62,-186.5 2563.62,-179.5"/>
</g>
<!-- GroupModule -->
<g id="node2" class="node">
<title>GroupModule</title>
<polygon fill="#8dd3c7" stroke="black" points="3560.82,-122 3557.82,-126 3536.82,-126 3533.82,-122 3465.18,-122 3465.18,-86 3560.82,-86 3560.82,-122"/>
<text text-anchor="middle" x="3513" y="-99.8" font-family="Times,serif" font-size="14.00">GroupModule</text>
</g>
<!-- GroupModule&#45;&gt;ProvisioningModule -->
<g id="edge2" class="edge">
<title>GroupModule&#45;&gt;ProvisioningModule</title>
<path fill="none" stroke="black" d="M3513,-122.16C3513,-144.35 3513,-179 3513,-179 3513,-179 2563.68,-179 2563.68,-179"/>
<polygon fill="black" stroke="black" points="2563.68,-175.5 2553.68,-179 2563.68,-182.5 2563.68,-175.5"/>
</g>
<!-- LearnroomModule -->
<g id="node3" class="node">
<title>LearnroomModule</title>
<polygon fill="#8dd3c7" stroke="black" points="3446.74,-122 3443.74,-126 3422.74,-126 3419.74,-122 3325.26,-122 3325.26,-86 3446.74,-86 3446.74,-122"/>
<text text-anchor="middle" x="3386" y="-99.8" font-family="Times,serif" font-size="14.00">LearnroomModule</text>
</g>
<!-- LearnroomModule&#45;&gt;ProvisioningModule -->
<g id="edge3" class="edge">
<title>LearnroomModule&#45;&gt;ProvisioningModule</title>
<path fill="none" stroke="black" d="M3386,-122.28C3386,-143.32 3386,-175 3386,-175 3386,-175 2563.67,-175 2563.67,-175"/>
<polygon fill="black" stroke="black" points="2563.67,-171.5 2553.67,-175 2563.67,-178.5 2563.67,-171.5"/>
</g>
<!-- LegacySchoolModule -->
<g id="node4" class="node">
<title>LegacySchoolModule</title>
<polygon fill="#8dd3c7" stroke="black" points="3306.63,-122 3303.63,-126 3282.63,-126 3279.63,-122 3167.37,-122 3167.37,-86 3306.63,-86 3306.63,-122"/>
<text text-anchor="middle" x="3237" y="-99.8" font-family="Times,serif" font-size="14.00">LegacySchoolModule</text>
</g>
<!-- LegacySchoolModule&#45;&gt;ProvisioningModule -->
<g id="edge4" class="edge">
<title>LegacySchoolModule&#45;&gt;ProvisioningModule</title>
<path fill="none" stroke="black" d="M3237,-122.31C3237,-142.15 3237,-171 3237,-171 3237,-171 2563.81,-171 2563.81,-171"/>
<polygon fill="black" stroke="black" points="2563.81,-167.5 2553.81,-171 2563.81,-174.5 2563.81,-167.5"/>
</g>
<!-- LoggerModule -->
<g id="node5" class="node">
<title>LoggerModule</title>
<polygon fill="#8dd3c7" stroke="black" points="3148.98,-122 3145.98,-126 3124.98,-126 3121.98,-122 3049.02,-122 3049.02,-86 3148.98,-86 3148.98,-122"/>
<text text-anchor="middle" x="3099" y="-99.8" font-family="Times,serif" font-size="14.00">LoggerModule</text>
</g>
<!-- LoggerModule&#45;&gt;ProvisioningModule -->
<g id="edge5" class="edge">
<title>LoggerModule&#45;&gt;ProvisioningModule</title>
<path fill="none" stroke="black" d="M3099,-122.22C3099,-140.83 3099,-167 3099,-167 3099,-167 2563.68,-167 2563.68,-167"/>
<polygon fill="black" stroke="black" points="2563.68,-163.5 2553.68,-167 2563.68,-170.5 2563.68,-163.5"/>
</g>
<!-- ProvisioningConfigModule -->
<g id="node6" class="node">
<title>ProvisioningConfigModule</title>
<polygon fill="#8dd3c7" stroke="black" points="3031,-122 3028,-126 3007,-126 3004,-122 2861,-122 2861,-86 3031,-86 3031,-122"/>
<text text-anchor="middle" x="2946" y="-99.8" font-family="Times,serif" font-size="14.00">ProvisioningConfigModule</text>
</g>
<!-- ProvisioningConfigModule&#45;&gt;ProvisioningModule -->
<g id="edge6" class="edge">
<title>ProvisioningConfigModule&#45;&gt;ProvisioningModule</title>
<path fill="none" stroke="black" d="M2946,-122.02C2946,-139.37 2946,-163 2946,-163 2946,-163 2563.62,-163 2563.62,-163"/>
<polygon fill="black" stroke="black" points="2563.62,-159.5 2553.62,-163 2563.62,-166.5 2563.62,-159.5"/>
</g>
<!-- RoleModule -->
<g id="node7" class="node">
<title>RoleModule</title>
<polygon fill="#8dd3c7" stroke="black" points="2842.99,-122 2839.99,-126 2818.99,-126 2815.99,-122 2757.01,-122 2757.01,-86 2842.99,-86 2842.99,-122"/>
<text text-anchor="middle" x="2800" y="-99.8" font-family="Times,serif" font-size="14.00">RoleModule</text>
</g>
<!-- RoleModule&#45;&gt;ProvisioningModule -->
<g id="edge7" class="edge">
<title>RoleModule&#45;&gt;ProvisioningModule</title>
<path fill="none" stroke="black" d="M2800,-122.01C2800,-138.05 2800,-159 2800,-159 2800,-159 2563.79,-159 2563.79,-159"/>
<polygon fill="black" stroke="black" points="2563.79,-155.5 2553.79,-159 2563.79,-162.5 2563.79,-155.5"/>
</g>
<!-- SystemModule -->
<g id="node8" class="node">
<title>SystemModule</title>
<polygon fill="#8dd3c7" stroke="black" points="2739.27,-122 2736.27,-126 2715.27,-126 2712.27,-122 2638.73,-122 2638.73,-86 2739.27,-86 2739.27,-122"/>
<text text-anchor="middle" x="2689" y="-99.8" font-family="Times,serif" font-size="14.00">SystemModule</text>
</g>
<!-- SystemModule&#45;&gt;ProvisioningModule -->
<g id="edge8" class="edge">
<title>SystemModule&#45;&gt;ProvisioningModule</title>
<path fill="none" stroke="black" d="M2689,-122.12C2689,-136.78 2689,-155 2689,-155 2689,-155 2563.81,-155 2563.81,-155"/>
<polygon fill="black" stroke="black" points="2563.81,-151.5 2553.81,-155 2563.81,-158.5 2563.81,-151.5"/>
</g>
<!-- UserModule -->
<g id="node9" class="node">
<title>UserModule</title>
<polygon fill="#8dd3c7" stroke="black" points="2620.98,-122 2617.98,-126 2596.98,-126 2593.98,-122 2535.02,-122 2535.02,-86 2620.98,-86 2620.98,-122"/>
<text text-anchor="middle" x="2578" y="-99.8" font-family="Times,serif" font-size="14.00">UserModule</text>
</g>
<!-- UserModule&#45;&gt;ProvisioningModule -->
<g id="edge9" class="edge">
<title>UserModule&#45;&gt;ProvisioningModule</title>
<path fill="none" stroke="black" d="M2544.28,-122.11C2544.28,-122.11 2544.28,-140.99 2544.28,-140.99"/>
<polygon fill="black" stroke="black" points="2540.78,-140.99 2544.28,-150.99 2547.78,-140.99 2540.78,-140.99"/>
</g>
<!-- ProvisioningService  -->
<g id="node11" class="node">
<title>ProvisioningService </title>
<polygon fill="#fb8072" stroke="black" points="2554.54,-252 2421.46,-252 2421.46,-216 2554.54,-216 2554.54,-252"/>
<text text-anchor="middle" x="2488" y="-229.8" font-family="Times,serif" font-size="14.00">ProvisioningService </text>
</g>
<!-- ProvisioningModule&#45;&gt;ProvisioningService  -->
<g id="edge10" class="edge">
<title>ProvisioningModule&#45;&gt;ProvisioningService </title>
<path fill="none" stroke="black" stroke-dasharray="5,2" d="M2488,-187.11C2488,-187.11 2488,-205.99 2488,-205.99"/>
<polygon fill="black" stroke="black" points="2484.5,-205.99 2488,-215.99 2491.5,-205.99 2484.5,-205.99"/>
</g>
<!-- IservProvisioningStrategy -->
<g id="node12" class="node">
<title>IservProvisioningStrategy</title>
<ellipse fill="#fdb462" stroke="black" cx="2399" cy="-104" rx="111.76" ry="18"/>
<text text-anchor="middle" x="2399" y="-99.8" font-family="Times,serif" font-size="14.00">IservProvisioningStrategy</text>
</g>
<!-- IservProvisioningStrategy&#45;&gt;ProvisioningModule -->
<g id="edge11" class="edge">
<title>IservProvisioningStrategy&#45;&gt;ProvisioningModule</title>
<path fill="none" stroke="black" d="M2466.66,-118.43C2466.66,-118.43 2466.66,-140.89 2466.66,-140.89"/>
<polygon fill="black" stroke="black" points="2463.16,-140.89 2466.66,-150.89 2470.16,-140.89 2463.16,-140.89"/>
</g>
<!-- OidcMockProvisioningStrategy -->
<g id="node13" class="node">
<title>OidcMockProvisioningStrategy</title>
<ellipse fill="#fdb462" stroke="black" cx="2135" cy="-104" rx="133.75" ry="18"/>
<text text-anchor="middle" x="2135" y="-99.8" font-family="Times,serif" font-size="14.00">OidcMockProvisioningStrategy</text>
</g>
<!-- OidcMockProvisioningStrategy&#45;&gt;ProvisioningModule -->
<g id="edge12" class="edge">
<title>OidcMockProvisioningStrategy&#45;&gt;ProvisioningModule</title>
<path fill="none" stroke="black" d="M2135,-122.12C2135,-136.78 2135,-155 2135,-155 2135,-155 2412.43,-155 2412.43,-155"/>
<polygon fill="black" stroke="black" points="2412.43,-158.5 2422.43,-155 2412.43,-151.5 2412.43,-158.5"/>
</g>
<!-- ProvisioningService -->
<g id="node14" class="node">
<title>ProvisioningService</title>
<ellipse fill="#fdb462" stroke="black" cx="1894" cy="-104" rx="89.21" ry="18"/>
<text text-anchor="middle" x="1894" y="-99.8" font-family="Times,serif" font-size="14.00">ProvisioningService</text>
</g>
<!-- ProvisioningService&#45;&gt;ProvisioningModule -->
<g id="edge13" class="edge">
<title>ProvisioningService&#45;&gt;ProvisioningModule</title>
<path fill="none" stroke="black" d="M1894,-122.01C1894,-138.05 1894,-159 1894,-159 1894,-159 2412.16,-159 2412.16,-159"/>
<polygon fill="black" stroke="black" points="2412.16,-162.5 2422.16,-159 2412.16,-155.5 2412.16,-162.5"/>
</g>
<!-- SanisProvisioningStrategy -->
<g id="node15" class="node">
<title>SanisProvisioningStrategy</title>
<ellipse fill="#fdb462" stroke="black" cx="1673" cy="-104" rx="113.5" ry="18"/>
<text text-anchor="middle" x="1673" y="-99.8" font-family="Times,serif" font-size="14.00">SanisProvisioningStrategy</text>
</g>
<!-- SanisProvisioningStrategy&#45;&gt;ProvisioningModule -->
<g id="edge14" class="edge">
<title>SanisProvisioningStrategy&#45;&gt;ProvisioningModule</title>
<path fill="none" stroke="black" d="M1673,-122.02C1673,-139.37 1673,-163 1673,-163 1673,-163 2412.34,-163 2412.34,-163"/>
<polygon fill="black" stroke="black" points="2412.34,-166.5 2422.34,-163 2412.34,-159.5 2412.34,-166.5"/>
</g>
<!-- SanisResponseMapper -->
<g id="node16" class="node">
<title>SanisResponseMapper</title>
<ellipse fill="#fdb462" stroke="black" cx="1443" cy="-104" rx="99" ry="18"/>
<text text-anchor="middle" x="1443" y="-99.8" font-family="Times,serif" font-size="14.00">SanisResponseMapper</text>
</g>
<!-- SanisResponseMapper&#45;&gt;ProvisioningModule -->
<g id="edge15" class="edge">
<title>SanisResponseMapper&#45;&gt;ProvisioningModule</title>
<path fill="none" stroke="black" d="M1443,-122.22C1443,-140.83 1443,-167 1443,-167 1443,-167 2412.23,-167 2412.23,-167"/>
<polygon fill="black" stroke="black" points="2412.23,-170.5 2422.23,-167 2412.23,-163.5 2412.23,-170.5"/>
</g>
<!-- SchulconnexCourseSyncService -->
<g id="node17" class="node">
<title>SchulconnexCourseSyncService</title>
<ellipse fill="#fdb462" stroke="black" cx="1189" cy="-104" rx="136.58" ry="18"/>
<text text-anchor="middle" x="1189" y="-99.8" font-family="Times,serif" font-size="14.00">SchulconnexCourseSyncService</text>
</g>
<!-- SchulconnexCourseSyncService&#45;&gt;ProvisioningModule -->
<g id="edge16" class="edge">
<title>SchulconnexCourseSyncService&#45;&gt;ProvisioningModule</title>
<path fill="none" stroke="black" d="M1189,-122.31C1189,-142.15 1189,-171 1189,-171 1189,-171 2412.25,-171 2412.25,-171"/>
<polygon fill="black" stroke="black" points="2412.25,-174.5 2422.25,-171 2412.24,-167.5 2412.25,-174.5"/>
</g>
<!-- SchulconnexGroupProvisioningService -->
<g id="node18" class="node">
<title>SchulconnexGroupProvisioningService</title>
<ellipse fill="#fdb462" stroke="black" cx="871" cy="-104" rx="163.81" ry="18"/>
<text text-anchor="middle" x="871" y="-99.8" font-family="Times,serif" font-size="14.00">SchulconnexGroupProvisioningService</text>
</g>
<!-- SchulconnexGroupProvisioningService&#45;&gt;ProvisioningModule -->
<g id="edge17" class="edge">
<title>SchulconnexGroupProvisioningService&#45;&gt;ProvisioningModule</title>
<path fill="none" stroke="black" d="M871,-122.28C871,-143.32 871,-175 871,-175 871,-175 2412.36,-175 2412.36,-175"/>
<polygon fill="black" stroke="black" points="2412.36,-178.5 2422.36,-175 2412.36,-171.5 2412.36,-178.5"/>
</g>
<!-- SchulconnexSchoolProvisioningService -->
<g id="node19" class="node">
<title>SchulconnexSchoolProvisioningService</title>
<ellipse fill="#fdb462" stroke="black" cx="523" cy="-104" rx="166.12" ry="18"/>
<text text-anchor="middle" x="523" y="-99.8" font-family="Times,serif" font-size="14.00">SchulconnexSchoolProvisioningService</text>
</g>
<!-- SchulconnexSchoolProvisioningService&#45;&gt;ProvisioningModule -->
<g id="edge18" class="edge">
<title>SchulconnexSchoolProvisioningService&#45;&gt;ProvisioningModule</title>
<path fill="none" stroke="black" d="M523,-122.16C523,-144.35 523,-179 523,-179 523,-179 2412.34,-179 2412.34,-179"/>
<polygon fill="black" stroke="black" points="2412.34,-182.5 2422.34,-179 2412.34,-175.5 2412.34,-182.5"/>
</g>
<!-- SchulconnexUserProvisioningService -->
<g id="node20" class="node">
<title>SchulconnexUserProvisioningService</title>
<ellipse fill="#fdb462" stroke="black" cx="181" cy="-104" rx="157.43" ry="18"/>
<text text-anchor="middle" x="181" y="-99.8" font-family="Times,serif" font-size="14.00">SchulconnexUserProvisioningService</text>
</g>
<!-- SchulconnexUserProvisioningService&#45;&gt;ProvisioningModule -->
<g id="edge19" class="edge">
<title>SchulconnexUserProvisioningService&#45;&gt;ProvisioningModule</title>
<path fill="none" stroke="black" d="M181,-122.32C181,-145.66 181,-183 181,-183 181,-183 2412.37,-183 2412.37,-183"/>
<polygon fill="black" stroke="black" points="2412.37,-186.5 2422.37,-183 2412.37,-179.5 2412.37,-186.5"/>
</g>
</g>
</svg>
