<?xml version="1.0" encoding="UTF-8" standalone="no"?>
<!DOCTYPE svg PUBLIC "-//W3C//DTD SVG 1.1//EN"
 "http://www.w3.org/Graphics/SVG/1.1/DTD/svg11.dtd">
<!-- Generated by graphviz version 2.47.0 (20210316.0004)
 -->
<!-- Title: dependencies Pages: 1 -->
<svg width="2490pt" height="284pt"
 viewBox="0.00 0.00 2490.00 284.00" xmlns="http://www.w3.org/2000/svg" xmlns:xlink="http://www.w3.org/1999/xlink">
<g id="graph0" class="graph" transform="scale(1 1) rotate(0) translate(4 280)">
<title>dependencies</title>
<polygon fill="white" stroke="transparent" points="-4,4 -4,-280 2486,-280 2486,4 -4,4"/>
<text text-anchor="start" x="1220.01" y="-42.4" font-family="Times-12" font-weight="bold" font-size="14.00">Legend</text>
<polygon fill="#ffffb3" stroke="transparent" points="1007,-10 1007,-30 1027,-30 1027,-10 1007,-10"/>
<text text-anchor="start" x="1030.63" y="-15.4" font-family="Times-12" font-size="14.00"> &#160;Declarations</text>
<polygon fill="#8dd3c7" stroke="transparent" points="1120,-10 1120,-30 1140,-30 1140,-10 1120,-10"/>
<text text-anchor="start" x="1143.73" y="-15.4" font-family="Times-12" font-size="14.00"> &#160;Module</text>
<polygon fill="#80b1d3" stroke="transparent" points="1206,-10 1206,-30 1226,-30 1226,-10 1206,-10"/>
<text text-anchor="start" x="1229.78" y="-15.4" font-family="Times-12" font-size="14.00"> &#160;Bootstrap</text>
<polygon fill="#fdb462" stroke="transparent" points="1303,-10 1303,-30 1323,-30 1323,-10 1303,-10"/>
<text text-anchor="start" x="1326.67" y="-15.4" font-family="Times-12" font-size="14.00"> &#160;Providers</text>
<polygon fill="#fb8072" stroke="transparent" points="1399,-10 1399,-30 1419,-30 1419,-10 1399,-10"/>
<text text-anchor="start" x="1422.73" y="-15.4" font-family="Times-12" font-size="14.00"> &#160;Exports</text>
<g id="clust1" class="cluster">
<title>cluster_ProvisioningModule</title>
<polygon fill="none" stroke="black" stroke-dasharray="1,5" points="8,-70 8,-268 2474,-268 2474,-70 8,-70"/>
</g>
<g id="clust6" class="cluster">
<title>cluster_ProvisioningModule_providers</title>
<polygon fill="none" stroke="black" points="1049,-78 1049,-130 2466,-130 2466,-78 1049,-78"/>
</g>
<g id="clust4" class="cluster">
<title>cluster_ProvisioningModule_exports</title>
<polygon fill="none" stroke="black" points="845,-208 845,-260 995,-260 995,-208 845,-208"/>
</g>
<g id="clust3" class="cluster">
<title>cluster_ProvisioningModule_imports</title>
<polygon fill="none" stroke="black" points="16,-78 16,-130 1041,-130 1041,-78 16,-78"/>
</g>
<!-- AccountModule -->
<g id="node1" class="node">
<title>AccountModule</title>
<polygon fill="#8dd3c7" stroke="black" points="1033.48,-122 1030.48,-126 1009.48,-126 1006.48,-122 926.52,-122 926.52,-86 1033.48,-86 1033.48,-122"/>
<text text-anchor="middle" x="980" y="-99.8" font-family="Times,serif" font-size="14.00">AccountModule</text>
</g>
<!-- ProvisioningModule -->
<g id="node9" class="node">
<title>ProvisioningModule</title>
<polygon fill="#8dd3c7" stroke="black" points="985.61,-187 982.61,-191 961.61,-191 958.61,-187 854.39,-187 854.39,-151 985.61,-151 985.61,-187"/>
<text text-anchor="middle" x="920" y="-164.8" font-family="Times,serif" font-size="14.00">ProvisioningModule</text>
</g>
<!-- AccountModule&#45;&gt;ProvisioningModule -->
<g id="edge1" class="edge">
<title>AccountModule&#45;&gt;ProvisioningModule</title>
<path fill="none" stroke="black" d="M956.03,-122.11C956.03,-122.11 956.03,-140.99 956.03,-140.99"/>
<polygon fill="black" stroke="black" points="952.53,-140.99 956.03,-150.99 959.53,-140.99 952.53,-140.99"/>
</g>
<!-- GroupModule -->
<g id="node2" class="node">
<title>GroupModule</title>
<polygon fill="#8dd3c7" stroke="black" points="908.82,-122 905.82,-126 884.82,-126 881.82,-122 813.18,-122 813.18,-86 908.82,-86 908.82,-122"/>
<text text-anchor="middle" x="861" y="-99.8" font-family="Times,serif" font-size="14.00">GroupModule</text>
</g>
<!-- GroupModule&#45;&gt;ProvisioningModule -->
<g id="edge2" class="edge">
<title>GroupModule&#45;&gt;ProvisioningModule</title>
<path fill="none" stroke="black" d="M881.55,-122.11C881.55,-122.11 881.55,-140.99 881.55,-140.99"/>
<polygon fill="black" stroke="black" points="878.05,-140.99 881.55,-150.99 885.05,-140.99 878.05,-140.99"/>
</g>
<!-- LegacySchoolModule -->
<g id="node3" class="node">
<title>LegacySchoolModule</title>
<polygon fill="#8dd3c7" stroke="black" points="795.63,-122 792.63,-126 771.63,-126 768.63,-122 656.37,-122 656.37,-86 795.63,-86 795.63,-122"/>
<text text-anchor="middle" x="726" y="-99.8" font-family="Times,serif" font-size="14.00">LegacySchoolModule</text>
</g>
<!-- LegacySchoolModule&#45;&gt;ProvisioningModule -->
<g id="edge3" class="edge">
<title>LegacySchoolModule&#45;&gt;ProvisioningModule</title>
<path fill="none" stroke="black" d="M726,-122.24C726,-137.57 726,-157 726,-157 726,-157 844.32,-157 844.32,-157"/>
<polygon fill="black" stroke="black" points="844.32,-160.5 854.32,-157 844.32,-153.5 844.32,-160.5"/>
</g>
<!-- LoggerModule -->
<g id="node4" class="node">
<title>LoggerModule</title>
<polygon fill="#8dd3c7" stroke="black" points="637.98,-122 634.98,-126 613.98,-126 610.98,-122 538.02,-122 538.02,-86 637.98,-86 637.98,-122"/>
<text text-anchor="middle" x="588" y="-99.8" font-family="Times,serif" font-size="14.00">LoggerModule</text>
</g>
<!-- LoggerModule&#45;&gt;ProvisioningModule -->
<g id="edge4" class="edge">
<title>LoggerModule&#45;&gt;ProvisioningModule</title>
<path fill="none" stroke="black" d="M588,-122.03C588,-139.06 588,-162 588,-162 588,-162 844.41,-162 844.41,-162"/>
<polygon fill="black" stroke="black" points="844.41,-165.5 854.41,-162 844.41,-158.5 844.41,-165.5"/>
</g>
<!-- ProvisioningConfigModule -->
<g id="node5" class="node">
<title>ProvisioningConfigModule</title>
<polygon fill="#8dd3c7" stroke="black" points="520,-122 517,-126 496,-126 493,-122 350,-122 350,-86 520,-86 520,-122"/>
<text text-anchor="middle" x="435" y="-99.8" font-family="Times,serif" font-size="14.00">ProvisioningConfigModule</text>
</g>
<!-- ProvisioningConfigModule&#45;&gt;ProvisioningModule -->
<g id="edge5" class="edge">
<title>ProvisioningConfigModule&#45;&gt;ProvisioningModule</title>
<path fill="none" stroke="black" d="M435,-122.22C435,-140.83 435,-167 435,-167 435,-167 844.34,-167 844.34,-167"/>
<polygon fill="black" stroke="black" points="844.34,-170.5 854.34,-167 844.34,-163.5 844.34,-170.5"/>
</g>
<!-- RoleModule -->
<g id="node6" class="node">
<title>RoleModule</title>
<polygon fill="#8dd3c7" stroke="black" points="331.99,-122 328.99,-126 307.99,-126 304.99,-122 246.01,-122 246.01,-86 331.99,-86 331.99,-122"/>
<text text-anchor="middle" x="289" y="-99.8" font-family="Times,serif" font-size="14.00">RoleModule</text>
</g>
<!-- RoleModule&#45;&gt;ProvisioningModule -->
<g id="edge6" class="edge">
<title>RoleModule&#45;&gt;ProvisioningModule</title>
<path fill="none" stroke="black" d="M289,-122.22C289,-142.37 289,-172 289,-172 289,-172 844.26,-172 844.26,-172"/>
<polygon fill="black" stroke="black" points="844.26,-175.5 854.26,-172 844.26,-168.5 844.26,-175.5"/>
</g>
<!-- SystemModule -->
<g id="node7" class="node">
<title>SystemModule</title>
<polygon fill="#8dd3c7" stroke="black" points="228.27,-122 225.27,-126 204.27,-126 201.27,-122 127.73,-122 127.73,-86 228.27,-86 228.27,-122"/>
<text text-anchor="middle" x="178" y="-99.8" font-family="Times,serif" font-size="14.00">SystemModule</text>
</g>
<!-- SystemModule&#45;&gt;ProvisioningModule -->
<g id="edge7" class="edge">
<title>SystemModule&#45;&gt;ProvisioningModule</title>
<path fill="none" stroke="black" d="M178,-122.04C178,-143.66 178,-177 178,-177 178,-177 844.15,-177 844.15,-177"/>
<polygon fill="black" stroke="black" points="844.15,-180.5 854.15,-177 844.15,-173.5 844.15,-180.5"/>
</g>
<!-- UserModule -->
<g id="node8" class="node">
<title>UserModule</title>
<polygon fill="#8dd3c7" stroke="black" points="109.98,-122 106.98,-126 85.98,-126 82.98,-122 24.02,-122 24.02,-86 109.98,-86 109.98,-122"/>
<text text-anchor="middle" x="67" y="-99.8" font-family="Times,serif" font-size="14.00">UserModule</text>
</g>
<!-- UserModule&#45;&gt;ProvisioningModule -->
<g id="edge8" class="edge">
<title>UserModule&#45;&gt;ProvisioningModule</title>
<path fill="none" stroke="black" d="M67,-122.09C67,-145.13 67,-182 67,-182 67,-182 844.13,-182 844.13,-182"/>
<polygon fill="black" stroke="black" points="844.13,-185.5 854.13,-182 844.13,-178.5 844.13,-185.5"/>
</g>
<!-- ProvisioningService  -->
<g id="node10" class="node">
<title>ProvisioningService </title>
<polygon fill="#fb8072" stroke="black" points="986.54,-252 853.46,-252 853.46,-216 986.54,-216 986.54,-252"/>
<text text-anchor="middle" x="920" y="-229.8" font-family="Times,serif" font-size="14.00">ProvisioningService </text>
</g>
<!-- ProvisioningModule&#45;&gt;ProvisioningService  -->
<g id="edge9" class="edge">
<title>ProvisioningModule&#45;&gt;ProvisioningService </title>
<path fill="none" stroke="black" stroke-dasharray="5,2" d="M920,-187.11C920,-187.11 920,-205.99 920,-205.99"/>
<polygon fill="black" stroke="black" points="916.5,-205.99 920,-215.99 923.5,-205.99 916.5,-205.99"/>
</g>
<!-- IservProvisioningStrategy -->
<g id="node11" class="node">
<title>IservProvisioningStrategy</title>
<ellipse fill="#fdb462" stroke="black" cx="2346" cy="-104" rx="111.76" ry="18"/>
<text text-anchor="middle" x="2346" y="-99.8" font-family="Times,serif" font-size="14.00">IservProvisioningStrategy</text>
</g>
<!-- IservProvisioningStrategy&#45;&gt;ProvisioningModule -->
<g id="edge10" class="edge">
<title>IservProvisioningStrategy&#45;&gt;ProvisioningModule</title>
<path fill="none" stroke="black" d="M2346,-122.09C2346,-145.13 2346,-182 2346,-182 2346,-182 995.92,-182 995.92,-182"/>
<polygon fill="black" stroke="black" points="995.92,-178.5 985.92,-182 995.92,-185.5 995.92,-178.5"/>
</g>
<!-- OidcMockProvisioningStrategy -->
<g id="node12" class="node">
<title>OidcMockProvisioningStrategy</title>
<ellipse fill="#fdb462" stroke="black" cx="2082" cy="-104" rx="133.75" ry="18"/>
<text text-anchor="middle" x="2082" y="-99.8" font-family="Times,serif" font-size="14.00">OidcMockProvisioningStrategy</text>
</g>
<!-- OidcMockProvisioningStrategy&#45;&gt;ProvisioningModule -->
<g id="edge11" class="edge">
<title>OidcMockProvisioningStrategy&#45;&gt;ProvisioningModule</title>
<path fill="none" stroke="black" d="M2082,-122.04C2082,-143.66 2082,-177 2082,-177 2082,-177 995.8,-177 995.8,-177"/>
<polygon fill="black" stroke="black" points="995.8,-173.5 985.8,-177 995.8,-180.5 995.8,-173.5"/>
</g>
<!-- OidcProvisioningService -->
<g id="node13" class="node">
<title>OidcProvisioningService</title>
<ellipse fill="#fdb462" stroke="black" cx="1822" cy="-104" rx="108.25" ry="18"/>
<text text-anchor="middle" x="1822" y="-99.8" font-family="Times,serif" font-size="14.00">OidcProvisioningService</text>
</g>
<!-- OidcProvisioningService&#45;&gt;ProvisioningModule -->
<g id="edge12" class="edge">
<title>OidcProvisioningService&#45;&gt;ProvisioningModule</title>
<path fill="none" stroke="black" d="M1822,-122.22C1822,-142.37 1822,-172 1822,-172 1822,-172 995.6,-172 995.6,-172"/>
<polygon fill="black" stroke="black" points="995.6,-168.5 985.6,-172 995.6,-175.5 995.6,-168.5"/>
</g>
<!-- ProvisioningService -->
<g id="node14" class="node">
<title>ProvisioningService</title>
<ellipse fill="#fdb462" stroke="black" cx="1607" cy="-104" rx="89.21" ry="18"/>
<text text-anchor="middle" x="1607" y="-99.8" font-family="Times,serif" font-size="14.00">ProvisioningService</text>
</g>
<!-- ProvisioningService&#45;&gt;ProvisioningModule -->
<g id="edge13" class="edge">
<title>ProvisioningService&#45;&gt;ProvisioningModule</title>
<path fill="none" stroke="black" d="M1607,-122.22C1607,-140.83 1607,-167 1607,-167 1607,-167 995.56,-167 995.56,-167"/>
<polygon fill="black" stroke="black" points="995.56,-163.5 985.56,-167 995.56,-170.5 995.56,-163.5"/>
</g>
<!-- SanisProvisioningStrategy -->
<g id="node15" class="node">
<title>SanisProvisioningStrategy</title>
<ellipse fill="#fdb462" stroke="black" cx="1386" cy="-104" rx="113.5" ry="18"/>
<text text-anchor="middle" x="1386" y="-99.8" font-family="Times,serif" font-size="14.00">SanisProvisioningStrategy</text>
</g>
<!-- SanisProvisioningStrategy&#45;&gt;ProvisioningModule -->
<g id="edge14" class="edge">
<title>SanisProvisioningStrategy&#45;&gt;ProvisioningModule</title>
<path fill="none" stroke="black" d="M1386,-122.03C1386,-139.06 1386,-162 1386,-162 1386,-162 995.78,-162 995.78,-162"/>
<polygon fill="black" stroke="black" points="995.78,-158.5 985.78,-162 995.78,-165.5 995.78,-158.5"/>
</g>
<!-- SanisResponseMapper -->
<g id="node16" class="node">
<title>SanisResponseMapper</title>
<ellipse fill="#fdb462" stroke="black" cx="1156" cy="-104" rx="99" ry="18"/>
<text text-anchor="middle" x="1156" y="-99.8" font-family="Times,serif" font-size="14.00">SanisResponseMapper</text>
</g>
<!-- SanisResponseMapper&#45;&gt;ProvisioningModule -->
<g id="edge15" class="edge">
<title>SanisResponseMapper&#45;&gt;ProvisioningModule</title>
<path fill="none" stroke="black" d="M1156,-122.24C1156,-137.57 1156,-157 1156,-157 1156,-157 995.74,-157 995.74,-157"/>
<polygon fill="black" stroke="black" points="995.74,-153.5 985.74,-157 995.74,-160.5 995.74,-153.5"/>
</g>
</g>
</svg>
