<?xml version="1.0" encoding="UTF-8" standalone="no"?>
<!DOCTYPE svg PUBLIC "-//W3C//DTD SVG 1.1//EN"
 "http://www.w3.org/Graphics/SVG/1.1/DTD/svg11.dtd">
<!-- Generated by graphviz version 2.47.0 (20210316.0004)
 -->
<!-- Title: dependencies Pages: 1 -->
<svg width="2302pt" height="284pt"
 viewBox="0.00 0.00 2302.00 284.00" xmlns="http://www.w3.org/2000/svg" xmlns:xlink="http://www.w3.org/1999/xlink">
<g id="graph0" class="graph" transform="scale(1 1) rotate(0) translate(4 280)">
<title>dependencies</title>
<polygon fill="white" stroke="transparent" points="-4,4 -4,-280 2298,-280 2298,4 -4,4"/>
<text text-anchor="start" x="1126.01" y="-42.4" font-family="Times-12" font-weight="bold" font-size="14.00">Legend</text>
<polygon fill="#ffffb3" stroke="transparent" points="913,-10 913,-30 933,-30 933,-10 913,-10"/>
<text text-anchor="start" x="936.63" y="-15.4" font-family="Times-12" font-size="14.00"> &#160;Declarations</text>
<polygon fill="#8dd3c7" stroke="transparent" points="1026,-10 1026,-30 1046,-30 1046,-10 1026,-10"/>
<text text-anchor="start" x="1049.73" y="-15.4" font-family="Times-12" font-size="14.00"> &#160;Module</text>
<polygon fill="#80b1d3" stroke="transparent" points="1112,-10 1112,-30 1132,-30 1132,-10 1112,-10"/>
<text text-anchor="start" x="1135.78" y="-15.4" font-family="Times-12" font-size="14.00"> &#160;Bootstrap</text>
<polygon fill="#fdb462" stroke="transparent" points="1209,-10 1209,-30 1229,-30 1229,-10 1209,-10"/>
<text text-anchor="start" x="1232.67" y="-15.4" font-family="Times-12" font-size="14.00"> &#160;Providers</text>
<polygon fill="#fb8072" stroke="transparent" points="1305,-10 1305,-30 1325,-30 1325,-10 1305,-10"/>
<text text-anchor="start" x="1328.73" y="-15.4" font-family="Times-12" font-size="14.00"> &#160;Exports</text>
<g id="clust1" class="cluster">
<title>cluster_ProvisioningModule</title>
<polygon fill="none" stroke="black" stroke-dasharray="1,5" points="8,-70 8,-268 2286,-268 2286,-70 8,-70"/>
</g>
<g id="clust3" class="cluster">
<title>cluster_ProvisioningModule_imports</title>
<polygon fill="none" stroke="black" points="1441,-78 1441,-130 2278,-130 2278,-78 1441,-78"/>
</g>
<g id="clust4" class="cluster">
<title>cluster_ProvisioningModule_exports</title>
<polygon fill="none" stroke="black" points="1417,-208 1417,-260 1567,-260 1567,-208 1417,-208"/>
</g>
<g id="clust6" class="cluster">
<title>cluster_ProvisioningModule_providers</title>
<polygon fill="none" stroke="black" points="16,-78 16,-130 1433,-130 1433,-78 16,-78"/>
</g>
<!-- AccountModule -->
<g id="node1" class="node">
<title>AccountModule</title>
<polygon fill="#8dd3c7" stroke="black" points="2270.48,-122 2267.48,-126 2246.48,-126 2243.48,-122 2163.52,-122 2163.52,-86 2270.48,-86 2270.48,-122"/>
<text text-anchor="middle" x="2217" y="-99.8" font-family="Times,serif" font-size="14.00">AccountModule</text>
</g>
<!-- ProvisioningModule -->
<g id="node8" class="node">
<title>ProvisioningModule</title>
<polygon fill="#8dd3c7" stroke="black" points="1557.61,-187 1554.61,-191 1533.61,-191 1530.61,-187 1426.39,-187 1426.39,-151 1557.61,-151 1557.61,-187"/>
<text text-anchor="middle" x="1492" y="-164.8" font-family="Times,serif" font-size="14.00">ProvisioningModule</text>
</g>
<!-- AccountModule&#45;&gt;ProvisioningModule -->
<g id="edge1" class="edge">
<title>AccountModule&#45;&gt;ProvisioningModule</title>
<path fill="none" stroke="black" d="M2217,-122.25C2217,-145.02 2217,-181 2217,-181 2217,-181 1567.62,-181 1567.62,-181"/>
<polygon fill="black" stroke="black" points="1567.62,-177.5 1557.62,-181 1567.62,-184.5 1567.62,-177.5"/>
</g>
<!-- GroupModule -->
<g id="node2" class="node">
<title>GroupModule</title>
<polygon fill="#8dd3c7" stroke="black" points="2145.82,-122 2142.82,-126 2121.82,-126 2118.82,-122 2050.18,-122 2050.18,-86 2145.82,-86 2145.82,-122"/>
<text text-anchor="middle" x="2098" y="-99.8" font-family="Times,serif" font-size="14.00">GroupModule</text>
</g>
<!-- GroupModule&#45;&gt;ProvisioningModule -->
<g id="edge2" class="edge">
<title>GroupModule&#45;&gt;ProvisioningModule</title>
<path fill="none" stroke="black" d="M2098,-122.28C2098,-143.32 2098,-175 2098,-175 2098,-175 1567.72,-175 1567.72,-175"/>
<polygon fill="black" stroke="black" points="1567.72,-171.5 1557.72,-175 1567.72,-178.5 1567.72,-171.5"/>
</g>
<!-- LegacySchoolModule -->
<g id="node3" class="node">
<title>LegacySchoolModule</title>
<polygon fill="#8dd3c7" stroke="black" points="2032.63,-122 2029.63,-126 2008.63,-126 2005.63,-122 1893.37,-122 1893.37,-86 2032.63,-86 2032.63,-122"/>
<text text-anchor="middle" x="1963" y="-99.8" font-family="Times,serif" font-size="14.00">LegacySchoolModule</text>
</g>
<!-- LegacySchoolModule&#45;&gt;ProvisioningModule -->
<g id="edge3" class="edge">
<title>LegacySchoolModule&#45;&gt;ProvisioningModule</title>
<path fill="none" stroke="black" d="M1963,-122.11C1963,-141.34 1963,-169 1963,-169 1963,-169 1567.99,-169 1567.99,-169"/>
<polygon fill="black" stroke="black" points="1567.99,-165.5 1557.99,-169 1567.99,-172.5 1567.99,-165.5"/>
</g>
<!-- LoggerModule -->
<g id="node4" class="node">
<title>LoggerModule</title>
<polygon fill="#8dd3c7" stroke="black" points="1874.98,-122 1871.98,-126 1850.98,-126 1847.98,-122 1775.02,-122 1775.02,-86 1874.98,-86 1874.98,-122"/>
<text text-anchor="middle" x="1825" y="-99.8" font-family="Times,serif" font-size="14.00">LoggerModule</text>
</g>
<!-- LoggerModule&#45;&gt;ProvisioningModule -->
<g id="edge4" class="edge">
<title>LoggerModule&#45;&gt;ProvisioningModule</title>
<path fill="none" stroke="black" d="M1825,-122.02C1825,-139.37 1825,-163 1825,-163 1825,-163 1567.79,-163 1567.79,-163"/>
<polygon fill="black" stroke="black" points="1567.79,-159.5 1557.79,-163 1567.79,-166.5 1567.79,-159.5"/>
</g>
<!-- RoleModule -->
<g id="node5" class="node">
<title>RoleModule</title>
<polygon fill="#8dd3c7" stroke="black" points="1756.99,-122 1753.99,-126 1732.99,-126 1729.99,-122 1671.01,-122 1671.01,-86 1756.99,-86 1756.99,-122"/>
<text text-anchor="middle" x="1714" y="-99.8" font-family="Times,serif" font-size="14.00">RoleModule</text>
</g>
<!-- RoleModule&#45;&gt;ProvisioningModule -->
<g id="edge5" class="edge">
<title>RoleModule&#45;&gt;ProvisioningModule</title>
<path fill="none" stroke="black" d="M1714,-122.24C1714,-137.57 1714,-157 1714,-157 1714,-157 1567.71,-157 1567.71,-157"/>
<polygon fill="black" stroke="black" points="1567.71,-153.5 1557.71,-157 1567.71,-160.5 1567.71,-153.5"/>
</g>
<!-- SystemModule -->
<g id="node6" class="node">
<title>SystemModule</title>
<polygon fill="#8dd3c7" stroke="black" points="1653.27,-122 1650.27,-126 1629.27,-126 1626.27,-122 1552.73,-122 1552.73,-86 1653.27,-86 1653.27,-122"/>
<text text-anchor="middle" x="1603" y="-99.8" font-family="Times,serif" font-size="14.00">SystemModule</text>
</g>
<!-- SystemModule&#45;&gt;ProvisioningModule -->
<g id="edge6" class="edge">
<title>SystemModule&#45;&gt;ProvisioningModule</title>
<path fill="none" stroke="black" d="M1552.54,-104C1547.27,-104 1543.8,-104 1543.8,-104 1543.8,-104 1543.8,-140.89 1543.8,-140.89"/>
<polygon fill="black" stroke="black" points="1540.3,-140.89 1543.8,-150.89 1547.3,-140.89 1540.3,-140.89"/>
</g>
<!-- UserModule -->
<g id="node7" class="node">
<title>UserModule</title>
<polygon fill="#8dd3c7" stroke="black" points="1534.98,-122 1531.98,-126 1510.98,-126 1507.98,-122 1449.02,-122 1449.02,-86 1534.98,-86 1534.98,-122"/>
<text text-anchor="middle" x="1492" y="-99.8" font-family="Times,serif" font-size="14.00">UserModule</text>
</g>
<!-- UserModule&#45;&gt;ProvisioningModule -->
<g id="edge7" class="edge">
<title>UserModule&#45;&gt;ProvisioningModule</title>
<path fill="none" stroke="black" d="M1492,-122.11C1492,-122.11 1492,-140.99 1492,-140.99"/>
<polygon fill="black" stroke="black" points="1488.5,-140.99 1492,-150.99 1495.5,-140.99 1488.5,-140.99"/>
</g>
<!-- ProvisioningService  -->
<g id="node9" class="node">
<title>ProvisioningService </title>
<polygon fill="#fb8072" stroke="black" points="1558.54,-252 1425.46,-252 1425.46,-216 1558.54,-216 1558.54,-252"/>
<text text-anchor="middle" x="1492" y="-229.8" font-family="Times,serif" font-size="14.00">ProvisioningService </text>
</g>
<!-- ProvisioningModule&#45;&gt;ProvisioningService  -->
<g id="edge8" class="edge">
<title>ProvisioningModule&#45;&gt;ProvisioningService </title>
<path fill="none" stroke="black" stroke-dasharray="5,2" d="M1492,-187.11C1492,-187.11 1492,-205.99 1492,-205.99"/>
<polygon fill="black" stroke="black" points="1488.5,-205.99 1492,-215.99 1495.5,-205.99 1488.5,-205.99"/>
</g>
<!-- IservProvisioningStrategy -->
<g id="node10" class="node">
<title>IservProvisioningStrategy</title>
<ellipse fill="#fdb462" stroke="black" cx="1313" cy="-104" rx="111.76" ry="18"/>
<text text-anchor="middle" x="1313" y="-99.8" font-family="Times,serif" font-size="14.00">IservProvisioningStrategy</text>
</g>
<!-- IservProvisioningStrategy&#45;&gt;ProvisioningModule -->
<g id="edge9" class="edge">
<title>IservProvisioningStrategy&#45;&gt;ProvisioningModule</title>
<path fill="none" stroke="black" d="M1425.31,-104C1432.97,-104 1437.73,-104 1437.73,-104 1437.73,-104 1437.73,-140.89 1437.73,-140.89"/>
<polygon fill="black" stroke="black" points="1434.23,-140.89 1437.73,-150.89 1441.23,-140.89 1434.23,-140.89"/>
</g>
<!-- OidcMockProvisioningStrategy -->
<g id="node11" class="node">
<title>OidcMockProvisioningStrategy</title>
<ellipse fill="#fdb462" stroke="black" cx="1049" cy="-104" rx="133.75" ry="18"/>
<text text-anchor="middle" x="1049" y="-99.8" font-family="Times,serif" font-size="14.00">OidcMockProvisioningStrategy</text>
</g>
<!-- OidcMockProvisioningStrategy&#45;&gt;ProvisioningModule -->
<g id="edge10" class="edge">
<title>OidcMockProvisioningStrategy&#45;&gt;ProvisioningModule</title>
<path fill="none" stroke="black" d="M1049,-122.24C1049,-137.57 1049,-157 1049,-157 1049,-157 1416.16,-157 1416.16,-157"/>
<polygon fill="black" stroke="black" points="1416.16,-160.5 1426.16,-157 1416.16,-153.5 1416.16,-160.5"/>
</g>
<!-- OidcProvisioningService -->
<g id="node12" class="node">
<title>OidcProvisioningService</title>
<ellipse fill="#fdb462" stroke="black" cx="789" cy="-104" rx="108.25" ry="18"/>
<text text-anchor="middle" x="789" y="-99.8" font-family="Times,serif" font-size="14.00">OidcProvisioningService</text>
</g>
<!-- OidcProvisioningService&#45;&gt;ProvisioningModule -->
<g id="edge11" class="edge">
<title>OidcProvisioningService&#45;&gt;ProvisioningModule</title>
<path fill="none" stroke="black" d="M789,-122.02C789,-139.37 789,-163 789,-163 789,-163 1416.18,-163 1416.18,-163"/>
<polygon fill="black" stroke="black" points="1416.18,-166.5 1426.18,-163 1416.18,-159.5 1416.18,-166.5"/>
</g>
<!-- ProvisioningService -->
<g id="node13" class="node">
<title>ProvisioningService</title>
<ellipse fill="#fdb462" stroke="black" cx="574" cy="-104" rx="89.21" ry="18"/>
<text text-anchor="middle" x="574" y="-99.8" font-family="Times,serif" font-size="14.00">ProvisioningService</text>
</g>
<!-- ProvisioningService&#45;&gt;ProvisioningModule -->
<g id="edge12" class="edge">
<title>ProvisioningService&#45;&gt;ProvisioningModule</title>
<path fill="none" stroke="black" d="M574,-122.11C574,-141.34 574,-169 574,-169 574,-169 1416.35,-169 1416.35,-169"/>
<polygon fill="black" stroke="black" points="1416.35,-172.5 1426.35,-169 1416.35,-165.5 1416.35,-172.5"/>
</g>
<!-- SanisProvisioningStrategy -->
<g id="node14" class="node">
<title>SanisProvisioningStrategy</title>
<ellipse fill="#fdb462" stroke="black" cx="353" cy="-104" rx="113.5" ry="18"/>
<text text-anchor="middle" x="353" y="-99.8" font-family="Times,serif" font-size="14.00">SanisProvisioningStrategy</text>
</g>
<!-- SanisProvisioningStrategy&#45;&gt;ProvisioningModule -->
<g id="edge13" class="edge">
<title>SanisProvisioningStrategy&#45;&gt;ProvisioningModule</title>
<path fill="none" stroke="black" d="M353,-122.28C353,-143.32 353,-175 353,-175 353,-175 1416.26,-175 1416.26,-175"/>
<polygon fill="black" stroke="black" points="1416.26,-178.5 1426.26,-175 1416.26,-171.5 1416.26,-178.5"/>
</g>
<!-- SanisResponseMapper -->
<g id="node15" class="node">
<title>SanisResponseMapper</title>
<ellipse fill="#fdb462" stroke="black" cx="123" cy="-104" rx="99" ry="18"/>
<text text-anchor="middle" x="123" y="-99.8" font-family="Times,serif" font-size="14.00">SanisResponseMapper</text>
</g>
<!-- SanisResponseMapper&#45;&gt;ProvisioningModule -->
<g id="edge14" class="edge">
<title>SanisResponseMapper&#45;&gt;ProvisioningModule</title>
<path fill="none" stroke="black" d="M123,-122.25C123,-145.02 123,-181 123,-181 123,-181 1416.43,-181 1416.43,-181"/>
<polygon fill="black" stroke="black" points="1416.43,-184.5 1426.43,-181 1416.43,-177.5 1416.43,-184.5"/>
</g>
</g>
</svg>
