<?xml version="1.0" encoding="UTF-8" standalone="no"?>
<!DOCTYPE svg PUBLIC "-//W3C//DTD SVG 1.1//EN"
 "http://www.w3.org/Graphics/SVG/1.1/DTD/svg11.dtd">
<!-- Generated by graphviz version 2.47.0 (20210316.0004)
 -->
<!-- Title: dependencies Pages: 1 -->
<svg width="1059pt" height="211pt"
 viewBox="0.00 0.00 1059.00 211.00" xmlns="http://www.w3.org/2000/svg" xmlns:xlink="http://www.w3.org/1999/xlink">
<g id="graph0" class="graph" transform="scale(1 1) rotate(0) translate(4 207)">
<title>dependencies</title>
<polygon fill="white" stroke="transparent" points="-4,4 -4,-207 1055,-207 1055,4 -4,4"/>
<text text-anchor="start" x="504.51" y="-42.4" font-family="Times-12" font-weight="bold" font-size="14.00">Legend</text>
<polygon fill="#ffffb3" stroke="transparent" points="291.5,-10 291.5,-30 311.5,-30 311.5,-10 291.5,-10"/>
<text text-anchor="start" x="315.13" y="-15.4" font-family="Times-12" font-size="14.00"> &#160;Declarations</text>
<polygon fill="#8dd3c7" stroke="transparent" points="404.5,-10 404.5,-30 424.5,-30 424.5,-10 404.5,-10"/>
<text text-anchor="start" x="428.23" y="-15.4" font-family="Times-12" font-size="14.00"> &#160;Module</text>
<polygon fill="#80b1d3" stroke="transparent" points="490.5,-10 490.5,-30 510.5,-30 510.5,-10 490.5,-10"/>
<text text-anchor="start" x="514.28" y="-15.4" font-family="Times-12" font-size="14.00"> &#160;Bootstrap</text>
<polygon fill="#fdb462" stroke="transparent" points="587.5,-10 587.5,-30 607.5,-30 607.5,-10 587.5,-10"/>
<text text-anchor="start" x="611.17" y="-15.4" font-family="Times-12" font-size="14.00"> &#160;Providers</text>
<polygon fill="#fb8072" stroke="transparent" points="683.5,-10 683.5,-30 703.5,-30 703.5,-10 683.5,-10"/>
<text text-anchor="start" x="707.23" y="-15.4" font-family="Times-12" font-size="14.00"> &#160;Exports</text>
<g id="clust1" class="cluster">
<title>cluster_BoardApiModule</title>
<polygon fill="none" stroke="black" stroke-dasharray="1,5" points="8,-70 8,-195 1043,-195 1043,-70 8,-70"/>
</g>
<g id="clust3" class="cluster">
<title>cluster_BoardApiModule_imports</title>
<polygon fill="none" stroke="black" points="807,-78 807,-130 1035,-130 1035,-78 807,-78"/>
</g>
<g id="clust6" class="cluster">
<title>cluster_BoardApiModule_providers</title>
<polygon fill="none" stroke="black" points="16,-78 16,-130 799,-130 799,-78 16,-78"/>
</g>
<!-- BoardModule -->
<g id="node1" class="node">
<title>BoardModule</title>
<polygon fill="#8dd3c7" stroke="black" points="1026.76,-122 1023.76,-126 1002.76,-126 999.76,-122 933.24,-122 933.24,-86 1026.76,-86 1026.76,-122"/>
<text text-anchor="middle" x="980" y="-99.8" font-family="Times,serif" font-size="14.00">BoardModule</text>
</g>
<!-- BoardApiModule -->
<g id="node3" class="node">
<title>BoardApiModule</title>
<polygon fill="#8dd3c7" stroke="black" points="641.26,-187 638.26,-191 617.26,-191 614.26,-187 526.74,-187 526.74,-151 641.26,-151 641.26,-187"/>
<text text-anchor="middle" x="584" y="-164.8" font-family="Times,serif" font-size="14.00">BoardApiModule</text>
</g>
<!-- BoardModule&#45;&gt;BoardApiModule -->
<g id="edge1" class="edge">
<title>BoardModule&#45;&gt;BoardApiModule</title>
<path fill="none" stroke="black" d="M980,-122.29C980,-144.21 980,-178 980,-178 980,-178 651.58,-178 651.58,-178"/>
<polygon fill="black" stroke="black" points="651.58,-174.5 641.58,-178 651.58,-181.5 651.58,-174.5"/>
</g>
<!-- LoggerModule -->
<g id="node2" class="node">
<title>LoggerModule</title>
<polygon fill="#8dd3c7" stroke="black" points="914.98,-122 911.98,-126 890.98,-126 887.98,-122 815.02,-122 815.02,-86 914.98,-86 914.98,-122"/>
<text text-anchor="middle" x="865" y="-99.8" font-family="Times,serif" font-size="14.00">LoggerModule</text>
</g>
<!-- LoggerModule&#45;&gt;BoardApiModule -->
<g id="edge2" class="edge">
<title>LoggerModule&#45;&gt;BoardApiModule</title>
<path fill="none" stroke="black" d="M865,-122.11C865,-141.34 865,-169 865,-169 865,-169 651.54,-169 651.54,-169"/>
<polygon fill="black" stroke="black" points="651.54,-165.5 641.54,-169 651.54,-172.5 651.54,-165.5"/>
</g>
<!-- BoardUc -->
<g id="node4" class="node">
<title>BoardUc</title>
<ellipse fill="#fdb462" stroke="black" cx="745" cy="-104" rx="45.79" ry="18"/>
<text text-anchor="middle" x="745" y="-99.8" font-family="Times,serif" font-size="14.00">BoardUc</text>
</g>
<!-- BoardUc&#45;&gt;BoardApiModule -->
<g id="edge3" class="edge">
<title>BoardUc&#45;&gt;BoardApiModule</title>
<path fill="none" stroke="black" d="M745,-122.03C745,-138.4 745,-160 745,-160 745,-160 651.67,-160 651.67,-160"/>
<polygon fill="black" stroke="black" points="651.67,-156.5 641.67,-160 651.67,-163.5 651.67,-156.5"/>
</g>
<!-- CardUc -->
<g id="node5" class="node">
<title>CardUc</title>
<ellipse fill="#fdb462" stroke="black" cx="640" cy="-104" rx="41.13" ry="18"/>
<text text-anchor="middle" x="640" y="-99.8" font-family="Times,serif" font-size="14.00">CardUc</text>
</g>
<!-- CardUc&#45;&gt;BoardApiModule -->
<g id="edge4" class="edge">
<title>CardUc&#45;&gt;BoardApiModule</title>
<path fill="none" stroke="black" d="M620.16,-120.07C620.16,-120.07 620.16,-140.82 620.16,-140.82"/>
<polygon fill="black" stroke="black" points="616.66,-140.82 620.16,-150.82 623.66,-140.82 616.66,-140.82"/>
</g>
<!-- ColumnUc -->
<g id="node6" class="node">
<title>ColumnUc</title>
<ellipse fill="#fdb462" stroke="black" cx="528" cy="-104" rx="53.33" ry="18"/>
<text text-anchor="middle" x="528" y="-99.8" font-family="Times,serif" font-size="14.00">ColumnUc</text>
</g>
<!-- ColumnUc&#45;&gt;BoardApiModule -->
<g id="edge5" class="edge">
<title>ColumnUc&#45;&gt;BoardApiModule</title>
<path fill="none" stroke="black" d="M554.02,-119.73C554.02,-119.73 554.02,-140.65 554.02,-140.65"/>
<polygon fill="black" stroke="black" points="550.52,-140.65 554.02,-150.65 557.52,-140.65 550.52,-140.65"/>
</g>
<!-- CourseRepo -->
<g id="node7" class="node">
<title>CourseRepo</title>
<ellipse fill="#fdb462" stroke="black" cx="398" cy="-104" rx="58.55" ry="18"/>
<text text-anchor="middle" x="398" y="-99.8" font-family="Times,serif" font-size="14.00">CourseRepo</text>
</g>
<!-- CourseRepo&#45;&gt;BoardApiModule -->
<g id="edge6" class="edge">
<title>CourseRepo&#45;&gt;BoardApiModule</title>
<path fill="none" stroke="black" d="M398,-122.03C398,-138.4 398,-160 398,-160 398,-160 516.68,-160 516.68,-160"/>
<polygon fill="black" stroke="black" points="516.68,-163.5 526.68,-160 516.68,-156.5 516.68,-163.5"/>
</g>
<!-- ElementUc -->
<g id="node8" class="node">
<title>ElementUc</title>
<ellipse fill="#fdb462" stroke="black" cx="267" cy="-104" rx="54.45" ry="18"/>
<text text-anchor="middle" x="267" y="-99.8" font-family="Times,serif" font-size="14.00">ElementUc</text>
</g>
<!-- ElementUc&#45;&gt;BoardApiModule -->
<g id="edge7" class="edge">
<title>ElementUc&#45;&gt;BoardApiModule</title>
<path fill="none" stroke="black" d="M267,-122.11C267,-141.34 267,-169 267,-169 267,-169 516.59,-169 516.59,-169"/>
<polygon fill="black" stroke="black" points="516.59,-172.5 526.59,-169 516.59,-165.5 516.59,-172.5"/>
</g>
<!-- SubmissionItemUc -->
<g id="node9" class="node">
<title>SubmissionItemUc</title>
<ellipse fill="#fdb462" stroke="black" cx="109" cy="-104" rx="85.13" ry="18"/>
<text text-anchor="middle" x="109" y="-99.8" font-family="Times,serif" font-size="14.00">SubmissionItemUc</text>
</g>
<!-- SubmissionItemUc&#45;&gt;BoardApiModule -->
<g id="edge8" class="edge">
<title>SubmissionItemUc&#45;&gt;BoardApiModule</title>
<path fill="none" stroke="black" d="M109,-122.29C109,-144.21 109,-178 109,-178 109,-178 516.7,-178 516.7,-178"/>
<polygon fill="black" stroke="black" points="516.7,-181.5 526.7,-178 516.7,-174.5 516.7,-181.5"/>
</g>
</g>
</svg>
