<?xml version="1.0" encoding="UTF-8" standalone="no"?>
<!DOCTYPE svg PUBLIC "-//W3C//DTD SVG 1.1//EN"
 "http://www.w3.org/Graphics/SVG/1.1/DTD/svg11.dtd">
<!-- Generated by graphviz version 2.47.0 (20210316.0004)
 -->
<!-- Title: dependencies Pages: 1 -->
<svg width="924pt" height="211pt"
 viewBox="0.00 0.00 924.00 211.00" xmlns="http://www.w3.org/2000/svg" xmlns:xlink="http://www.w3.org/1999/xlink">
<g id="graph0" class="graph" transform="scale(1 1) rotate(0) translate(4 207)">
<title>dependencies</title>
<polygon fill="white" stroke="transparent" points="-4,4 -4,-207 920,-207 920,4 -4,4"/>
<text text-anchor="start" x="437.01" y="-42.4" font-family="Times-12" font-weight="bold" font-size="14.00">Legend</text>
<polygon fill="#ffffb3" stroke="transparent" points="224,-10 224,-30 244,-30 244,-10 224,-10"/>
<text text-anchor="start" x="247.63" y="-15.4" font-family="Times-12" font-size="14.00"> &#160;Declarations</text>
<polygon fill="#8dd3c7" stroke="transparent" points="337,-10 337,-30 357,-30 357,-10 337,-10"/>
<text text-anchor="start" x="360.73" y="-15.4" font-family="Times-12" font-size="14.00"> &#160;Module</text>
<polygon fill="#80b1d3" stroke="transparent" points="423,-10 423,-30 443,-30 443,-10 423,-10"/>
<text text-anchor="start" x="446.78" y="-15.4" font-family="Times-12" font-size="14.00"> &#160;Bootstrap</text>
<polygon fill="#fdb462" stroke="transparent" points="520,-10 520,-30 540,-30 540,-10 520,-10"/>
<text text-anchor="start" x="543.67" y="-15.4" font-family="Times-12" font-size="14.00"> &#160;Providers</text>
<polygon fill="#fb8072" stroke="transparent" points="616,-10 616,-30 636,-30 636,-10 616,-10"/>
<text text-anchor="start" x="639.73" y="-15.4" font-family="Times-12" font-size="14.00"> &#160;Exports</text>
<g id="clust1" class="cluster">
<title>cluster_BoardApiModule</title>
<polygon fill="none" stroke="black" stroke-dasharray="1,5" points="8,-70 8,-195 908,-195 908,-70 8,-70"/>
</g>
<g id="clust3" class="cluster">
<title>cluster_BoardApiModule_imports</title>
<polygon fill="none" stroke="black" points="672,-78 672,-130 900,-130 900,-78 672,-78"/>
</g>
<g id="clust6" class="cluster">
<title>cluster_BoardApiModule_providers</title>
<polygon fill="none" stroke="black" points="16,-78 16,-130 664,-130 664,-78 16,-78"/>
</g>
<!-- BoardModule -->
<g id="node1" class="node">
<title>BoardModule</title>
<polygon fill="#8dd3c7" stroke="black" points="891.76,-122 888.76,-126 867.76,-126 864.76,-122 798.24,-122 798.24,-86 891.76,-86 891.76,-122"/>
<text text-anchor="middle" x="845" y="-99.8" font-family="Times,serif" font-size="14.00">BoardModule</text>
</g>
<!-- BoardApiModule -->
<g id="node3" class="node">
<title>BoardApiModule</title>
<polygon fill="#8dd3c7" stroke="black" points="562.26,-187 559.26,-191 538.26,-191 535.26,-187 447.74,-187 447.74,-151 562.26,-151 562.26,-187"/>
<text text-anchor="middle" x="505" y="-164.8" font-family="Times,serif" font-size="14.00">BoardApiModule</text>
</g>
<!-- BoardModule&#45;&gt;BoardApiModule -->
<g id="edge1" class="edge">
<title>BoardModule&#45;&gt;BoardApiModule</title>
<path fill="none" stroke="black" d="M845,-122.28C845,-143.32 845,-175 845,-175 845,-175 572.29,-175 572.29,-175"/>
<polygon fill="black" stroke="black" points="572.29,-171.5 562.29,-175 572.29,-178.5 572.29,-171.5"/>
</g>
<!-- LoggerModule -->
<g id="node2" class="node">
<title>LoggerModule</title>
<polygon fill="#8dd3c7" stroke="black" points="779.98,-122 776.98,-126 755.98,-126 752.98,-122 680.02,-122 680.02,-86 779.98,-86 779.98,-122"/>
<text text-anchor="middle" x="730" y="-99.8" font-family="Times,serif" font-size="14.00">LoggerModule</text>
</g>
<!-- LoggerModule&#45;&gt;BoardApiModule -->
<g id="edge2" class="edge">
<title>LoggerModule&#45;&gt;BoardApiModule</title>
<path fill="none" stroke="black" d="M730,-122.02C730,-139.37 730,-163 730,-163 730,-163 572.36,-163 572.36,-163"/>
<polygon fill="black" stroke="black" points="572.36,-159.5 562.36,-163 572.36,-166.5 572.36,-159.5"/>
</g>
<!-- BoardUc -->
<g id="node4" class="node">
<title>BoardUc</title>
<ellipse fill="#fdb462" stroke="black" cx="610" cy="-104" rx="45.79" ry="18"/>
<text text-anchor="middle" x="610" y="-99.8" font-family="Times,serif" font-size="14.00">BoardUc</text>
</g>
<!-- BoardUc&#45;&gt;BoardApiModule -->
<g id="edge3" class="edge">
<title>BoardUc&#45;&gt;BoardApiModule</title>
<path fill="none" stroke="black" d="M563.94,-104C558.16,-104 554.22,-104 554.22,-104 554.22,-104 554.22,-140.89 554.22,-140.89"/>
<polygon fill="black" stroke="black" points="550.72,-140.89 554.22,-150.89 557.72,-140.89 550.72,-140.89"/>
</g>
<!-- CardUc -->
<g id="node5" class="node">
<title>CardUc</title>
<ellipse fill="#fdb462" stroke="black" cx="505" cy="-104" rx="41.13" ry="18"/>
<text text-anchor="middle" x="505" y="-99.8" font-family="Times,serif" font-size="14.00">CardUc</text>
</g>
<!-- CardUc&#45;&gt;BoardApiModule -->
<g id="edge4" class="edge">
<title>CardUc&#45;&gt;BoardApiModule</title>
<path fill="none" stroke="black" d="M505,-122.11C505,-122.11 505,-140.99 505,-140.99"/>
<polygon fill="black" stroke="black" points="501.5,-140.99 505,-150.99 508.5,-140.99 501.5,-140.99"/>
</g>
<!-- ColumnUc -->
<g id="node6" class="node">
<title>ColumnUc</title>
<ellipse fill="#fdb462" stroke="black" cx="393" cy="-104" rx="53.33" ry="18"/>
<text text-anchor="middle" x="393" y="-99.8" font-family="Times,serif" font-size="14.00">ColumnUc</text>
</g>
<!-- ColumnUc&#45;&gt;BoardApiModule -->
<g id="edge5" class="edge">
<title>ColumnUc&#45;&gt;BoardApiModule</title>
<path fill="none" stroke="black" d="M446.51,-104C452.1,-104 455.78,-104 455.78,-104 455.78,-104 455.78,-140.89 455.78,-140.89"/>
<polygon fill="black" stroke="black" points="452.28,-140.89 455.78,-150.89 459.28,-140.89 452.28,-140.89"/>
</g>
<!-- ElementUc -->
<g id="node7" class="node">
<title>ElementUc</title>
<ellipse fill="#fdb462" stroke="black" cx="267" cy="-104" rx="54.45" ry="18"/>
<text text-anchor="middle" x="267" y="-99.8" font-family="Times,serif" font-size="14.00">ElementUc</text>
</g>
<!-- ElementUc&#45;&gt;BoardApiModule -->
<g id="edge6" class="edge">
<title>ElementUc&#45;&gt;BoardApiModule</title>
<path fill="none" stroke="black" d="M267,-122.02C267,-139.37 267,-163 267,-163 267,-163 437.69,-163 437.69,-163"/>
<polygon fill="black" stroke="black" points="437.69,-166.5 447.69,-163 437.69,-159.5 437.69,-166.5"/>
</g>
<!-- SubmissionItemUc -->
<g id="node8" class="node">
<title>SubmissionItemUc</title>
<ellipse fill="#fdb462" stroke="black" cx="109" cy="-104" rx="85.13" ry="18"/>
<text text-anchor="middle" x="109" y="-99.8" font-family="Times,serif" font-size="14.00">SubmissionItemUc</text>
</g>
<!-- SubmissionItemUc&#45;&gt;BoardApiModule -->
<g id="edge7" class="edge">
<title>SubmissionItemUc&#45;&gt;BoardApiModule</title>
<path fill="none" stroke="black" d="M109,-122.28C109,-143.32 109,-175 109,-175 109,-175 437.42,-175 437.42,-175"/>
<polygon fill="black" stroke="black" points="437.42,-178.5 447.42,-175 437.42,-171.5 437.42,-178.5"/>
</g>
</g>
</svg>
