<?xml version="1.0" encoding="UTF-8" standalone="no"?>
<!DOCTYPE svg PUBLIC "-//W3C//DTD SVG 1.1//EN"
 "http://www.w3.org/Graphics/SVG/1.1/DTD/svg11.dtd">
<!-- Generated by graphviz version 5.0.0 (20220707.1540)
 -->
<!-- Title: dependencies Pages: 1 -->
<svg width="484pt" height="174pt"
 viewBox="0.00 0.00 484.00 173.80" xmlns="http://www.w3.org/2000/svg" xmlns:xlink="http://www.w3.org/1999/xlink">
<g id="graph0" class="graph" transform="scale(1 1) rotate(0) translate(4 169.8)">
<title>dependencies</title>
<polygon fill="white" stroke="transparent" points="-4,4 -4,-169.8 480,-169.8 480,4 -4,4"/>
<text text-anchor="middle" x="238" y="-8.2" font-family="sans-serif" font-size="14.00">dependencies</text>
<g id="clust1" class="cluster">
<title>cluster_BoardApiModule</title>
<polygon fill="none" stroke="black" stroke-dasharray="1,5" points="8,-32.8 8,-157.8 468,-157.8 468,-32.8 8,-32.8"/>
</g>
<g id="clust3" class="cluster">
<title>cluster_BoardApiModule_imports</title>
<polygon fill="none" stroke="black" points="232,-40.8 232,-92.8 460,-92.8 460,-40.8 232,-40.8"/>
</g>
<g id="clust6" class="cluster">
<title>cluster_BoardApiModule_providers</title>
<polygon fill="none" stroke="black" points="16,-40.8 16,-92.8 224,-92.8 224,-40.8 16,-40.8"/>
</g>
<!-- BoardModule -->
<g id="node1" class="node">
<title>BoardModule</title>
<polygon fill="#8dd3c7" stroke="black" points="451.77,-84.8 448.77,-88.8 427.77,-88.8 424.77,-84.8 358.23,-84.8 358.23,-48.8 451.77,-48.8 451.77,-84.8"/>
<text text-anchor="middle" x="405" y="-62.6" font-family="Times,serif" font-size="14.00">BoardModule</text>
</g>
<!-- BoardApiModule -->
<g id="node3" class="node">
<title>BoardApiModule</title>
<polygon fill="#8dd3c7" stroke="black" points="287.27,-149.8 284.27,-153.8 263.27,-153.8 260.27,-149.8 172.73,-149.8 172.73,-113.8 287.27,-113.8 287.27,-149.8"/>
<text text-anchor="middle" x="230" y="-127.6" font-family="Times,serif" font-size="14.00">BoardApiModule</text>
</g>
<!-- BoardModule&#45;&gt;BoardApiModule -->
<g id="edge1" class="edge">
<title>BoardModule&#45;&gt;BoardApiModule</title>
<path fill="none" stroke="black" d="M405,-84.91C405,-104.14 405,-131.8 405,-131.8 405,-131.8 297.3,-131.8 297.3,-131.8"/>
<polygon fill="black" stroke="black" points="297.3,-128.3 287.3,-131.8 297.3,-135.3 297.3,-128.3"/>
</g>
<!-- LoggerModule -->
<g id="node2" class="node">
<title>LoggerModule</title>
<polygon fill="#8dd3c7" stroke="black" points="339.98,-84.8 336.98,-88.8 315.98,-88.8 312.98,-84.8 240.02,-84.8 240.02,-48.8 339.98,-48.8 339.98,-84.8"/>
<text text-anchor="middle" x="290" y="-62.6" font-family="Times,serif" font-size="14.00">LoggerModule</text>
</g>
<!-- LoggerModule&#45;&gt;BoardApiModule -->
<g id="edge2" class="edge">
<title>LoggerModule&#45;&gt;BoardApiModule</title>
<path fill="none" stroke="black" d="M263.7,-84.91C263.7,-84.91 263.7,-103.79 263.7,-103.79"/>
<polygon fill="black" stroke="black" points="260.2,-103.79 263.7,-113.79 267.2,-103.79 260.2,-103.79"/>
</g>
<!-- BoardUc -->
<g id="node4" class="node">
<title>BoardUc</title>
<ellipse fill="#fdb462" stroke="black" cx="170" cy="-66.8" rx="45.79" ry="18"/>
<text text-anchor="middle" x="170" y="-62.6" font-family="Times,serif" font-size="14.00">BoardUc</text>
</g>
<!-- BoardUc&#45;&gt;BoardApiModule -->
<g id="edge3" class="edge">
<title>BoardUc&#45;&gt;BoardApiModule</title>
<path fill="none" stroke="black" d="M194.26,-82.2C194.26,-82.2 194.26,-103.74 194.26,-103.74"/>
<polygon fill="black" stroke="black" points="190.76,-103.74 194.26,-113.74 197.76,-103.74 190.76,-103.74"/>
</g>
<!-- CardUc -->
<g id="node5" class="node">
<title>CardUc</title>
<ellipse fill="#fdb462" stroke="black" cx="65" cy="-66.8" rx="41.14" ry="18"/>
<text text-anchor="middle" x="65" y="-62.6" font-family="Times,serif" font-size="14.00">CardUc</text>
</g>
<!-- CardUc&#45;&gt;BoardApiModule -->
<g id="edge4" class="edge">
<title>CardUc&#45;&gt;BoardApiModule</title>
<path fill="none" stroke="black" d="M65,-84.91C65,-104.14 65,-131.8 65,-131.8 65,-131.8 162.29,-131.8 162.29,-131.8"/>
<polygon fill="black" stroke="black" points="162.29,-135.3 172.29,-131.8 162.29,-128.3 162.29,-135.3"/>
</g>
</g>
</svg>
