<?xml version="1.0" encoding="UTF-8" standalone="no"?>
<!DOCTYPE svg PUBLIC "-//W3C//DTD SVG 1.1//EN"
 "http://www.w3.org/Graphics/SVG/1.1/DTD/svg11.dtd">
<!-- Generated by graphviz version 2.47.0 (20210316.0004)
 -->
<!-- Title: dependencies Pages: 1 -->
<svg width="1331pt" height="211pt"
 viewBox="0.00 0.00 1331.00 211.00" xmlns="http://www.w3.org/2000/svg" xmlns:xlink="http://www.w3.org/1999/xlink">
<g id="graph0" class="graph" transform="scale(1 1) rotate(0) translate(4 207)">
<title>dependencies</title>
<polygon fill="white" stroke="transparent" points="-4,4 -4,-207 1327,-207 1327,4 -4,4"/>
<text text-anchor="start" x="640.51" y="-42.4" font-family="Times-12" font-weight="bold" font-size="14.00">Legend</text>
<polygon fill="#ffffb3" stroke="transparent" points="427.5,-10 427.5,-30 447.5,-30 447.5,-10 427.5,-10"/>
<text text-anchor="start" x="451.13" y="-15.4" font-family="Times-12" font-size="14.00"> &#160;Declarations</text>
<polygon fill="#8dd3c7" stroke="transparent" points="540.5,-10 540.5,-30 560.5,-30 560.5,-10 540.5,-10"/>
<text text-anchor="start" x="564.23" y="-15.4" font-family="Times-12" font-size="14.00"> &#160;Module</text>
<polygon fill="#80b1d3" stroke="transparent" points="626.5,-10 626.5,-30 646.5,-30 646.5,-10 626.5,-10"/>
<text text-anchor="start" x="650.28" y="-15.4" font-family="Times-12" font-size="14.00"> &#160;Bootstrap</text>
<polygon fill="#fdb462" stroke="transparent" points="723.5,-10 723.5,-30 743.5,-30 743.5,-10 723.5,-10"/>
<text text-anchor="start" x="747.17" y="-15.4" font-family="Times-12" font-size="14.00"> &#160;Providers</text>
<polygon fill="#fb8072" stroke="transparent" points="819.5,-10 819.5,-30 839.5,-30 839.5,-10 819.5,-10"/>
<text text-anchor="start" x="843.23" y="-15.4" font-family="Times-12" font-size="14.00"> &#160;Exports</text>
<g id="clust1" class="cluster">
<title>cluster_BoardApiModule</title>
<polygon fill="none" stroke="black" stroke-dasharray="1,5" points="8,-70 8,-195 1315,-195 1315,-70 8,-70"/>
</g>
<g id="clust6" class="cluster">
<title>cluster_BoardApiModule_providers</title>
<polygon fill="none" stroke="black" points="252,-78 252,-130 1307,-130 1307,-78 252,-78"/>
</g>
<g id="clust3" class="cluster">
<title>cluster_BoardApiModule_imports</title>
<polygon fill="none" stroke="black" points="16,-78 16,-130 244,-130 244,-78 16,-78"/>
</g>
<!-- BoardModule -->
<g id="node1" class="node">
<title>BoardModule</title>
<polygon fill="#8dd3c7" stroke="black" points="235.76,-122 232.76,-126 211.76,-126 208.76,-122 142.24,-122 142.24,-86 235.76,-86 235.76,-122"/>
<text text-anchor="middle" x="189" y="-99.8" font-family="Times,serif" font-size="14.00">BoardModule</text>
</g>
<!-- BoardApiModule -->
<g id="node3" class="node">
<title>BoardApiModule</title>
<polygon fill="#8dd3c7" stroke="black" points="691.26,-187 688.26,-191 667.26,-191 664.26,-187 576.74,-187 576.74,-151 691.26,-151 691.26,-187"/>
<text text-anchor="middle" x="634" y="-164.8" font-family="Times,serif" font-size="14.00">BoardApiModule</text>
</g>
<!-- BoardModule&#45;&gt;BoardApiModule -->
<g id="edge1" class="edge">
<title>BoardModule&#45;&gt;BoardApiModule</title>
<path fill="none" stroke="black" d="M189,-122.13C189,-142.57 189,-173 189,-173 189,-173 566.74,-173 566.74,-173"/>
<polygon fill="black" stroke="black" points="566.74,-176.5 576.74,-173 566.74,-169.5 566.74,-176.5"/>
</g>
<!-- LoggerModule -->
<g id="node2" class="node">
<title>LoggerModule</title>
<polygon fill="#8dd3c7" stroke="black" points="123.98,-122 120.98,-126 99.98,-126 96.98,-122 24.02,-122 24.02,-86 123.98,-86 123.98,-122"/>
<text text-anchor="middle" x="74" y="-99.8" font-family="Times,serif" font-size="14.00">LoggerModule</text>
</g>
<!-- LoggerModule&#45;&gt;BoardApiModule -->
<g id="edge2" class="edge">
<title>LoggerModule&#45;&gt;BoardApiModule</title>
<path fill="none" stroke="black" d="M74,-122.01C74,-144.49 74,-180 74,-180 74,-180 566.7,-180 566.7,-180"/>
<polygon fill="black" stroke="black" points="566.7,-183.5 576.7,-180 566.7,-176.5 566.7,-183.5"/>
</g>
<!-- BoardNodePermissionService -->
<g id="node4" class="node">
<title>BoardNodePermissionService</title>
<ellipse fill="#fdb462" stroke="black" cx="1172" cy="-104" rx="127.35" ry="18"/>
<text text-anchor="middle" x="1172" y="-99.8" font-family="Times,serif" font-size="14.00">BoardNodePermissionService</text>
</g>
<!-- BoardNodePermissionService&#45;&gt;BoardApiModule -->
<g id="edge3" class="edge">
<title>BoardNodePermissionService&#45;&gt;BoardApiModule</title>
<path fill="none" stroke="black" d="M1172,-122.01C1172,-144.49 1172,-180 1172,-180 1172,-180 701.32,-180 701.32,-180"/>
<polygon fill="black" stroke="black" points="701.32,-176.5 691.32,-180 701.32,-183.5 701.32,-176.5"/>
</g>
<!-- BoardUc -->
<g id="node5" class="node">
<title>BoardUc</title>
<ellipse fill="#fdb462" stroke="black" cx="981" cy="-104" rx="45.79" ry="18"/>
<text text-anchor="middle" x="981" y="-99.8" font-family="Times,serif" font-size="14.00">BoardUc</text>
</g>
<!-- BoardUc&#45;&gt;BoardApiModule -->
<g id="edge4" class="edge">
<title>BoardUc&#45;&gt;BoardApiModule</title>
<path fill="none" stroke="black" d="M981,-122.13C981,-142.57 981,-173 981,-173 981,-173 701.3,-173 701.3,-173"/>
<polygon fill="black" stroke="black" points="701.3,-169.5 691.3,-173 701.3,-176.5 701.3,-169.5"/>
</g>
<!-- CardUc -->
<g id="node6" class="node">
<title>CardUc</title>
<ellipse fill="#fdb462" stroke="black" cx="876" cy="-104" rx="41.13" ry="18"/>
<text text-anchor="middle" x="876" y="-99.8" font-family="Times,serif" font-size="14.00">CardUc</text>
</g>
<!-- CardUc&#45;&gt;BoardApiModule -->
<g id="edge5" class="edge">
<title>CardUc&#45;&gt;BoardApiModule</title>
<path fill="none" stroke="black" d="M876,-122.27C876,-140.56 876,-166 876,-166 876,-166 701.35,-166 701.35,-166"/>
<polygon fill="black" stroke="black" points="701.35,-162.5 691.35,-166 701.35,-169.5 701.35,-162.5"/>
</g>
<!-- ColumnUc -->
<g id="node7" class="node">
<title>ColumnUc</title>
<ellipse fill="#fdb462" stroke="black" cx="764" cy="-104" rx="53.33" ry="18"/>
<text text-anchor="middle" x="764" y="-99.8" font-family="Times,serif" font-size="14.00">ColumnUc</text>
</g>
<!-- ColumnUc&#45;&gt;BoardApiModule -->
<g id="edge6" class="edge">
<title>ColumnUc&#45;&gt;BoardApiModule</title>
<path fill="none" stroke="black" d="M764,-122.01C764,-138.05 764,-159 764,-159 764,-159 701.4,-159 701.4,-159"/>
<polygon fill="black" stroke="black" points="701.4,-155.5 691.4,-159 701.4,-162.5 701.4,-155.5"/>
</g>
<!-- CourseRepo -->
<g id="node8" class="node">
<title>CourseRepo</title>
<ellipse fill="#fdb462" stroke="black" cx="634" cy="-104" rx="58.55" ry="18"/>
<text text-anchor="middle" x="634" y="-99.8" font-family="Times,serif" font-size="14.00">CourseRepo</text>
</g>
<!-- CourseRepo&#45;&gt;BoardApiModule -->
<g id="edge7" class="edge">
<title>CourseRepo&#45;&gt;BoardApiModule</title>
<path fill="none" stroke="black" d="M634,-122.11C634,-122.11 634,-140.99 634,-140.99"/>
<polygon fill="black" stroke="black" points="630.5,-140.99 634,-150.99 637.5,-140.99 630.5,-140.99"/>
</g>
<!-- ElementUc -->
<g id="node9" class="node">
<title>ElementUc</title>
<ellipse fill="#fdb462" stroke="black" cx="503" cy="-104" rx="54.45" ry="18"/>
<text text-anchor="middle" x="503" y="-99.8" font-family="Times,serif" font-size="14.00">ElementUc</text>
</g>
<!-- ElementUc&#45;&gt;BoardApiModule -->
<g id="edge8" class="edge">
<title>ElementUc&#45;&gt;BoardApiModule</title>
<path fill="none" stroke="black" d="M503,-122.01C503,-138.05 503,-159 503,-159 503,-159 566.54,-159 566.54,-159"/>
<polygon fill="black" stroke="black" points="566.54,-162.5 576.54,-159 566.54,-155.5 566.54,-162.5"/>
</g>
<!-- SubmissionItemUc -->
<g id="node10" class="node">
<title>SubmissionItemUc</title>
<ellipse fill="#fdb462" stroke="black" cx="345" cy="-104" rx="85.13" ry="18"/>
<text text-anchor="middle" x="345" y="-99.8" font-family="Times,serif" font-size="14.00">SubmissionItemUc</text>
</g>
<!-- SubmissionItemUc&#45;&gt;BoardApiModule -->
<g id="edge9" class="edge">
<title>SubmissionItemUc&#45;&gt;BoardApiModule</title>
<path fill="none" stroke="black" d="M345,-122.27C345,-140.56 345,-166 345,-166 345,-166 566.56,-166 566.56,-166"/>
<polygon fill="black" stroke="black" points="566.56,-169.5 576.56,-166 566.56,-162.5 566.56,-169.5"/>
</g>
</g>
</svg>
