<?xml version="1.0" encoding="UTF-8" standalone="no"?>
<!DOCTYPE svg PUBLIC "-//W3C//DTD SVG 1.1//EN"
 "http://www.w3.org/Graphics/SVG/1.1/DTD/svg11.dtd">
<!-- Generated by graphviz version 2.47.0 (20210316.0004)
 -->
<!-- Title: dependencies Pages: 1 -->
<svg width="924pt" height="211pt"
 viewBox="0.00 0.00 924.00 211.00" xmlns="http://www.w3.org/2000/svg" xmlns:xlink="http://www.w3.org/1999/xlink">
<g id="graph0" class="graph" transform="scale(1 1) rotate(0) translate(4 207)">
<title>dependencies</title>
<polygon fill="white" stroke="transparent" points="-4,4 -4,-207 920,-207 920,4 -4,4"/>
<text text-anchor="start" x="437.01" y="-42.4" font-family="Times-12" font-weight="bold" font-size="14.00">Legend</text>
<polygon fill="#ffffb3" stroke="transparent" points="224,-10 224,-30 244,-30 244,-10 224,-10"/>
<text text-anchor="start" x="247.63" y="-15.4" font-family="Times-12" font-size="14.00"> &#160;Declarations</text>
<polygon fill="#8dd3c7" stroke="transparent" points="337,-10 337,-30 357,-30 357,-10 337,-10"/>
<text text-anchor="start" x="360.73" y="-15.4" font-family="Times-12" font-size="14.00"> &#160;Module</text>
<polygon fill="#80b1d3" stroke="transparent" points="423,-10 423,-30 443,-30 443,-10 423,-10"/>
<text text-anchor="start" x="446.78" y="-15.4" font-family="Times-12" font-size="14.00"> &#160;Bootstrap</text>
<polygon fill="#fdb462" stroke="transparent" points="520,-10 520,-30 540,-30 540,-10 520,-10"/>
<text text-anchor="start" x="543.67" y="-15.4" font-family="Times-12" font-size="14.00"> &#160;Providers</text>
<polygon fill="#fb8072" stroke="transparent" points="616,-10 616,-30 636,-30 636,-10 616,-10"/>
<text text-anchor="start" x="639.73" y="-15.4" font-family="Times-12" font-size="14.00"> &#160;Exports</text>
<g id="clust1" class="cluster">
<title>cluster_BoardApiModule</title>
<polygon fill="none" stroke="black" stroke-dasharray="1,5" points="8,-70 8,-195 908,-195 908,-70 8,-70"/>
</g>
<g id="clust6" class="cluster">
<title>cluster_BoardApiModule_providers</title>
<polygon fill="none" stroke="black" points="252,-78 252,-130 900,-130 900,-78 252,-78"/>
</g>
<g id="clust3" class="cluster">
<title>cluster_BoardApiModule_imports</title>
<polygon fill="none" stroke="black" points="16,-78 16,-130 244,-130 244,-78 16,-78"/>
</g>
<!-- BoardModule -->
<g id="node1" class="node">
<title>BoardModule</title>
<polygon fill="#8dd3c7" stroke="black" points="235.76,-122 232.76,-126 211.76,-126 208.76,-122 142.24,-122 142.24,-86 235.76,-86 235.76,-122"/>
<text text-anchor="middle" x="189" y="-99.8" font-family="Times,serif" font-size="14.00">BoardModule</text>
</g>
<!-- BoardApiModule -->
<g id="node3" class="node">
<title>BoardApiModule</title>
<polygon fill="#8dd3c7" stroke="black" points="560.26,-187 557.26,-191 536.26,-191 533.26,-187 445.74,-187 445.74,-151 560.26,-151 560.26,-187"/>
<text text-anchor="middle" x="503" y="-164.8" font-family="Times,serif" font-size="14.00">BoardApiModule</text>
</g>
<!-- BoardModule&#45;&gt;BoardApiModule -->
<g id="edge1" class="edge">
<title>BoardModule&#45;&gt;BoardApiModule</title>
<path fill="none" stroke="black" d="M189,-122.11C189,-141.34 189,-169 189,-169 189,-169 435.41,-169 435.41,-169"/>
<polygon fill="black" stroke="black" points="435.41,-172.5 445.41,-169 435.41,-165.5 435.41,-172.5"/>
</g>
<!-- LoggerModule -->
<g id="node2" class="node">
<title>LoggerModule</title>
<polygon fill="#8dd3c7" stroke="black" points="123.98,-122 120.98,-126 99.98,-126 96.98,-122 24.02,-122 24.02,-86 123.98,-86 123.98,-122"/>
<text text-anchor="middle" x="74" y="-99.8" font-family="Times,serif" font-size="14.00">LoggerModule</text>
</g>
<!-- LoggerModule&#45;&gt;BoardApiModule -->
<g id="edge2" class="edge">
<title>LoggerModule&#45;&gt;BoardApiModule</title>
<path fill="none" stroke="black" d="M74,-122.29C74,-144.21 74,-178 74,-178 74,-178 435.59,-178 435.59,-178"/>
<polygon fill="black" stroke="black" points="435.59,-181.5 445.59,-178 435.59,-174.5 435.59,-181.5"/>
</g>
<!-- BoardUc -->
<g id="node4" class="node">
<title>BoardUc</title>
<ellipse fill="#fdb462" stroke="black" cx="846" cy="-104" rx="45.79" ry="18"/>
<text text-anchor="middle" x="846" y="-99.8" font-family="Times,serif" font-size="14.00">BoardUc</text>
</g>
<!-- BoardUc&#45;&gt;BoardApiModule -->
<g id="edge3" class="edge">
<title>BoardUc&#45;&gt;BoardApiModule</title>
<path fill="none" stroke="black" d="M846,-122.29C846,-144.21 846,-178 846,-178 846,-178 570.41,-178 570.41,-178"/>
<polygon fill="black" stroke="black" points="570.41,-174.5 560.41,-178 570.41,-181.5 570.41,-174.5"/>
</g>
<!-- CardUc -->
<g id="node5" class="node">
<title>CardUc</title>
<ellipse fill="#fdb462" stroke="black" cx="741" cy="-104" rx="41.13" ry="18"/>
<text text-anchor="middle" x="741" y="-99.8" font-family="Times,serif" font-size="14.00">CardUc</text>
</g>
<!-- CardUc&#45;&gt;BoardApiModule -->
<g id="edge4" class="edge">
<title>CardUc&#45;&gt;BoardApiModule</title>
<path fill="none" stroke="black" d="M741,-122.11C741,-141.34 741,-169 741,-169 741,-169 570.31,-169 570.31,-169"/>
<polygon fill="black" stroke="black" points="570.31,-165.5 560.31,-169 570.31,-172.5 570.31,-165.5"/>
</g>
<!-- ColumnUc -->
<g id="node6" class="node">
<title>ColumnUc</title>
<ellipse fill="#fdb462" stroke="black" cx="629" cy="-104" rx="53.33" ry="18"/>
<text text-anchor="middle" x="629" y="-99.8" font-family="Times,serif" font-size="14.00">ColumnUc</text>
</g>
<!-- ColumnUc&#45;&gt;BoardApiModule -->
<g id="edge5" class="edge">
<title>ColumnUc&#45;&gt;BoardApiModule</title>
<path fill="none" stroke="black" d="M629,-122.03C629,-138.4 629,-160 629,-160 629,-160 570.47,-160 570.47,-160"/>
<polygon fill="black" stroke="black" points="570.47,-156.5 560.47,-160 570.47,-163.5 570.47,-156.5"/>
</g>
<!-- ElementUc -->
<g id="node7" class="node">
<title>ElementUc</title>
<ellipse fill="#fdb462" stroke="black" cx="503" cy="-104" rx="54.45" ry="18"/>
<text text-anchor="middle" x="503" y="-99.8" font-family="Times,serif" font-size="14.00">ElementUc</text>
</g>
<!-- ElementUc&#45;&gt;BoardApiModule -->
<g id="edge6" class="edge">
<title>ElementUc&#45;&gt;BoardApiModule</title>
<path fill="none" stroke="black" d="M503,-122.11C503,-122.11 503,-140.99 503,-140.99"/>
<polygon fill="black" stroke="black" points="499.5,-140.99 503,-150.99 506.5,-140.99 499.5,-140.99"/>
</g>
<!-- SubmissionItemUc -->
<g id="node8" class="node">
<title>SubmissionItemUc</title>
<ellipse fill="#fdb462" stroke="black" cx="345" cy="-104" rx="85.13" ry="18"/>
<text text-anchor="middle" x="345" y="-99.8" font-family="Times,serif" font-size="14.00">SubmissionItemUc</text>
</g>
<!-- SubmissionItemUc&#45;&gt;BoardApiModule -->
<g id="edge7" class="edge">
<title>SubmissionItemUc&#45;&gt;BoardApiModule</title>
<path fill="none" stroke="black" d="M345,-122.03C345,-138.4 345,-160 345,-160 345,-160 435.51,-160 435.51,-160"/>
<polygon fill="black" stroke="black" points="435.51,-163.5 445.51,-160 435.51,-156.5 435.51,-163.5"/>
</g>
</g>
</svg>
