<?xml version="1.0" encoding="UTF-8" standalone="no"?>
<!DOCTYPE svg PUBLIC "-//W3C//DTD SVG 1.1//EN"
 "http://www.w3.org/Graphics/SVG/1.1/DTD/svg11.dtd">
<!-- Generated by graphviz version 2.47.0 (20210316.0004)
 -->
<!-- Title: dependencies Pages: 1 -->
<svg width="800pt" height="211pt"
 viewBox="0.00 0.00 800.00 211.00" xmlns="http://www.w3.org/2000/svg" xmlns:xlink="http://www.w3.org/1999/xlink">
<g id="graph0" class="graph" transform="scale(1 1) rotate(0) translate(4 207)">
<title>dependencies</title>
<polygon fill="white" stroke="transparent" points="-4,4 -4,-207 796,-207 796,4 -4,4"/>
<text text-anchor="start" x="375.01" y="-42.4" font-family="Times-12" font-weight="bold" font-size="14.00">Legend</text>
<polygon fill="#ffffb3" stroke="transparent" points="162,-10 162,-30 182,-30 182,-10 162,-10"/>
<text text-anchor="start" x="185.63" y="-15.4" font-family="Times-12" font-size="14.00"> &#160;Declarations</text>
<polygon fill="#8dd3c7" stroke="transparent" points="275,-10 275,-30 295,-30 295,-10 275,-10"/>
<text text-anchor="start" x="298.73" y="-15.4" font-family="Times-12" font-size="14.00"> &#160;Module</text>
<polygon fill="#80b1d3" stroke="transparent" points="361,-10 361,-30 381,-30 381,-10 361,-10"/>
<text text-anchor="start" x="384.78" y="-15.4" font-family="Times-12" font-size="14.00"> &#160;Bootstrap</text>
<polygon fill="#fdb462" stroke="transparent" points="458,-10 458,-30 478,-30 478,-10 458,-10"/>
<text text-anchor="start" x="481.67" y="-15.4" font-family="Times-12" font-size="14.00"> &#160;Providers</text>
<polygon fill="#fb8072" stroke="transparent" points="554,-10 554,-30 574,-30 574,-10 554,-10"/>
<text text-anchor="start" x="577.73" y="-15.4" font-family="Times-12" font-size="14.00"> &#160;Exports</text>
<g id="clust1" class="cluster">
<title>cluster_BoardApiModule</title>
<polygon fill="none" stroke="black" stroke-dasharray="1,5" points="8,-70 8,-195 784,-195 784,-70 8,-70"/>
</g>
<g id="clust6" class="cluster">
<title>cluster_BoardApiModule_providers</title>
<polygon fill="none" stroke="black" points="252,-78 252,-130 776,-130 776,-78 252,-78"/>
</g>
<g id="clust3" class="cluster">
<title>cluster_BoardApiModule_imports</title>
<polygon fill="none" stroke="black" points="16,-78 16,-130 244,-130 244,-78 16,-78"/>
</g>
<!-- BoardModule -->
<g id="node1" class="node">
<title>BoardModule</title>
<polygon fill="#8dd3c7" stroke="black" points="235.76,-122 232.76,-126 211.76,-126 208.76,-122 142.24,-122 142.24,-86 235.76,-86 235.76,-122"/>
<text text-anchor="middle" x="189" y="-99.8" font-family="Times,serif" font-size="14.00">BoardModule</text>
</g>
<!-- BoardApiModule -->
<g id="node3" class="node">
<title>BoardApiModule</title>
<polygon fill="#8dd3c7" stroke="black" points="481.26,-187 478.26,-191 457.26,-191 454.26,-187 366.74,-187 366.74,-151 481.26,-151 481.26,-187"/>
<text text-anchor="middle" x="424" y="-164.8" font-family="Times,serif" font-size="14.00">BoardApiModule</text>
</g>
<!-- BoardModule&#45;&gt;BoardApiModule -->
<g id="edge1" class="edge">
<title>BoardModule&#45;&gt;BoardApiModule</title>
<path fill="none" stroke="black" d="M189,-122.02C189,-139.37 189,-163 189,-163 189,-163 356.51,-163 356.51,-163"/>
<polygon fill="black" stroke="black" points="356.51,-166.5 366.51,-163 356.51,-159.5 356.51,-166.5"/>
</g>
<!-- LoggerModule -->
<g id="node2" class="node">
<title>LoggerModule</title>
<polygon fill="#8dd3c7" stroke="black" points="123.98,-122 120.98,-126 99.98,-126 96.98,-122 24.02,-122 24.02,-86 123.98,-86 123.98,-122"/>
<text text-anchor="middle" x="74" y="-99.8" font-family="Times,serif" font-size="14.00">LoggerModule</text>
</g>
<!-- LoggerModule&#45;&gt;BoardApiModule -->
<g id="edge2" class="edge">
<title>LoggerModule&#45;&gt;BoardApiModule</title>
<path fill="none" stroke="black" d="M74,-122.28C74,-143.32 74,-175 74,-175 74,-175 356.6,-175 356.6,-175"/>
<polygon fill="black" stroke="black" points="356.6,-178.5 366.6,-175 356.6,-171.5 356.6,-178.5"/>
</g>
<!-- BoardUc -->
<g id="node4" class="node">
<title>BoardUc</title>
<ellipse fill="#fdb462" stroke="black" cx="722" cy="-104" rx="45.79" ry="18"/>
<text text-anchor="middle" x="722" y="-99.8" font-family="Times,serif" font-size="14.00">BoardUc</text>
</g>
<!-- BoardUc&#45;&gt;BoardApiModule -->
<g id="edge3" class="edge">
<title>BoardUc&#45;&gt;BoardApiModule</title>
<path fill="none" stroke="black" d="M722,-122.28C722,-143.32 722,-175 722,-175 722,-175 491.46,-175 491.46,-175"/>
<polygon fill="black" stroke="black" points="491.46,-171.5 481.46,-175 491.46,-178.5 491.46,-171.5"/>
</g>
<!-- CardUc -->
<g id="node5" class="node">
<title>CardUc</title>
<ellipse fill="#fdb462" stroke="black" cx="617" cy="-104" rx="41.13" ry="18"/>
<text text-anchor="middle" x="617" y="-99.8" font-family="Times,serif" font-size="14.00">CardUc</text>
</g>
<!-- CardUc&#45;&gt;BoardApiModule -->
<g id="edge4" class="edge">
<title>CardUc&#45;&gt;BoardApiModule</title>
<path fill="none" stroke="black" d="M617,-122.02C617,-139.37 617,-163 617,-163 617,-163 491.38,-163 491.38,-163"/>
<polygon fill="black" stroke="black" points="491.38,-159.5 481.38,-163 491.38,-166.5 491.38,-159.5"/>
</g>
<!-- ElementUc -->
<g id="node6" class="node">
<title>ElementUc</title>
<ellipse fill="#fdb462" stroke="black" cx="503" cy="-104" rx="54.45" ry="18"/>
<text text-anchor="middle" x="503" y="-99.8" font-family="Times,serif" font-size="14.00">ElementUc</text>
</g>
<!-- ElementUc&#45;&gt;BoardApiModule -->
<g id="edge5" class="edge">
<title>ElementUc&#45;&gt;BoardApiModule</title>
<path fill="none" stroke="black" d="M464.95,-117.15C464.95,-117.15 464.95,-140.69 464.95,-140.69"/>
<polygon fill="black" stroke="black" points="461.45,-140.69 464.95,-150.69 468.45,-140.69 461.45,-140.69"/>
</g>
<!-- SubmissionItemUc -->
<g id="node7" class="node">
<title>SubmissionItemUc</title>
<ellipse fill="#fdb462" stroke="black" cx="345" cy="-104" rx="85.13" ry="18"/>
<text text-anchor="middle" x="345" y="-99.8" font-family="Times,serif" font-size="14.00">SubmissionItemUc</text>
</g>
<!-- SubmissionItemUc&#45;&gt;BoardApiModule -->
<g id="edge6" class="edge">
<title>SubmissionItemUc&#45;&gt;BoardApiModule</title>
<path fill="none" stroke="black" d="M398.34,-118.1C398.34,-118.1 398.34,-140.72 398.34,-140.72"/>
<polygon fill="black" stroke="black" points="394.84,-140.72 398.34,-150.72 401.84,-140.72 394.84,-140.72"/>
</g>
</g>
</svg>
