<?xml version="1.0" encoding="UTF-8" standalone="no"?>
<!DOCTYPE svg PUBLIC "-//W3C//DTD SVG 1.1//EN"
 "http://www.w3.org/Graphics/SVG/1.1/DTD/svg11.dtd">
<!-- Generated by graphviz version 2.47.0 (20210316.0004)
 -->
<!-- Title: dependencies Pages: 1 -->
<svg width="611pt" height="211pt"
 viewBox="0.00 0.00 611.00 211.00" xmlns="http://www.w3.org/2000/svg" xmlns:xlink="http://www.w3.org/1999/xlink">
<g id="graph0" class="graph" transform="scale(1 1) rotate(0) translate(4 207)">
<title>dependencies</title>
<polygon fill="white" stroke="transparent" points="-4,4 -4,-207 607,-207 607,4 -4,4"/>
<text text-anchor="start" x="280.51" y="-42.4" font-family="Times-12" font-weight="bold" font-size="14.00">Legend</text>
<polygon fill="#ffffb3" stroke="transparent" points="67.5,-10 67.5,-30 87.5,-30 87.5,-10 67.5,-10"/>
<text text-anchor="start" x="91.13" y="-15.4" font-family="Times-12" font-size="14.00"> &#160;Declarations</text>
<polygon fill="#8dd3c7" stroke="transparent" points="180.5,-10 180.5,-30 200.5,-30 200.5,-10 180.5,-10"/>
<text text-anchor="start" x="204.23" y="-15.4" font-family="Times-12" font-size="14.00"> &#160;Module</text>
<polygon fill="#80b1d3" stroke="transparent" points="266.5,-10 266.5,-30 286.5,-30 286.5,-10 266.5,-10"/>
<text text-anchor="start" x="290.28" y="-15.4" font-family="Times-12" font-size="14.00"> &#160;Bootstrap</text>
<polygon fill="#fdb462" stroke="transparent" points="363.5,-10 363.5,-30 383.5,-30 383.5,-10 363.5,-10"/>
<text text-anchor="start" x="387.17" y="-15.4" font-family="Times-12" font-size="14.00"> &#160;Providers</text>
<polygon fill="#fb8072" stroke="transparent" points="459.5,-10 459.5,-30 479.5,-30 479.5,-10 459.5,-10"/>
<text text-anchor="start" x="483.23" y="-15.4" font-family="Times-12" font-size="14.00"> &#160;Exports</text>
<g id="clust1" class="cluster">
<title>cluster_BoardApiModule</title>
<polygon fill="none" stroke="black" stroke-dasharray="1,5" points="8,-70 8,-195 595,-195 595,-70 8,-70"/>
</g>
<g id="clust3" class="cluster">
<title>cluster_BoardApiModule_imports</title>
<polygon fill="none" stroke="black" points="359,-78 359,-130 587,-130 587,-78 359,-78"/>
</g>
<g id="clust6" class="cluster">
<title>cluster_BoardApiModule_providers</title>
<polygon fill="none" stroke="black" points="16,-78 16,-130 351,-130 351,-78 16,-78"/>
</g>
<!-- BoardModule -->
<g id="node1" class="node">
<title>BoardModule</title>
<polygon fill="#8dd3c7" stroke="black" points="578.76,-122 575.76,-126 554.76,-126 551.76,-122 485.24,-122 485.24,-86 578.76,-86 578.76,-122"/>
<text text-anchor="middle" x="532" y="-99.8" font-family="Times,serif" font-size="14.00">BoardModule</text>
</g>
<!-- BoardApiModule -->
<g id="node3" class="node">
<title>BoardApiModule</title>
<polygon fill="#8dd3c7" stroke="black" points="354.26,-187 351.26,-191 330.26,-191 327.26,-187 239.74,-187 239.74,-151 354.26,-151 354.26,-187"/>
<text text-anchor="middle" x="297" y="-164.8" font-family="Times,serif" font-size="14.00">BoardApiModule</text>
</g>
<!-- BoardModule&#45;&gt;BoardApiModule -->
<g id="edge1" class="edge">
<title>BoardModule&#45;&gt;BoardApiModule</title>
<path fill="none" stroke="black" d="M532,-122.11C532,-141.34 532,-169 532,-169 532,-169 364.49,-169 364.49,-169"/>
<polygon fill="black" stroke="black" points="364.49,-165.5 354.49,-169 364.49,-172.5 364.49,-165.5"/>
</g>
<!-- LoggerModule -->
<g id="node2" class="node">
<title>LoggerModule</title>
<polygon fill="#8dd3c7" stroke="black" points="466.98,-122 463.98,-126 442.98,-126 439.98,-122 367.02,-122 367.02,-86 466.98,-86 466.98,-122"/>
<text text-anchor="middle" x="417" y="-99.8" font-family="Times,serif" font-size="14.00">LoggerModule</text>
</g>
<!-- LoggerModule&#45;&gt;BoardApiModule -->
<g id="edge2" class="edge">
<title>LoggerModule&#45;&gt;BoardApiModule</title>
<path fill="none" stroke="black" d="M366.96,-104C356.53,-104 348.64,-104 348.64,-104 348.64,-104 348.64,-140.89 348.64,-140.89"/>
<polygon fill="black" stroke="black" points="345.14,-140.89 348.64,-150.89 352.14,-140.89 345.14,-140.89"/>
</g>
<!-- BoardUc -->
<g id="node4" class="node">
<title>BoardUc</title>
<ellipse fill="#fdb462" stroke="black" cx="297" cy="-104" rx="45.79" ry="18"/>
<text text-anchor="middle" x="297" y="-99.8" font-family="Times,serif" font-size="14.00">BoardUc</text>
</g>
<!-- BoardUc&#45;&gt;BoardApiModule -->
<g id="edge3" class="edge">
<title>BoardUc&#45;&gt;BoardApiModule</title>
<path fill="none" stroke="black" d="M297,-122.11C297,-122.11 297,-140.99 297,-140.99"/>
<polygon fill="black" stroke="black" points="293.5,-140.99 297,-150.99 300.5,-140.99 293.5,-140.99"/>
</g>
<!-- CardUc -->
<g id="node5" class="node">
<title>CardUc</title>
<ellipse fill="#fdb462" stroke="black" cx="192" cy="-104" rx="41.13" ry="18"/>
<text text-anchor="middle" x="192" y="-99.8" font-family="Times,serif" font-size="14.00">CardUc</text>
</g>
<!-- CardUc&#45;&gt;BoardApiModule -->
<g id="edge4" class="edge">
<title>CardUc&#45;&gt;BoardApiModule</title>
<path fill="none" stroke="black" d="M233.25,-104C240.28,-104 245.36,-104 245.36,-104 245.36,-104 245.36,-140.89 245.36,-140.89"/>
<polygon fill="black" stroke="black" points="241.86,-140.89 245.36,-150.89 248.86,-140.89 241.86,-140.89"/>
</g>
<!-- ElementUc -->
<g id="node6" class="node">
<title>ElementUc</title>
<ellipse fill="#fdb462" stroke="black" cx="78" cy="-104" rx="54.45" ry="18"/>
<text text-anchor="middle" x="78" y="-99.8" font-family="Times,serif" font-size="14.00">ElementUc</text>
</g>
<!-- ElementUc&#45;&gt;BoardApiModule -->
<g id="edge5" class="edge">
<title>ElementUc&#45;&gt;BoardApiModule</title>
<path fill="none" stroke="black" d="M78,-122.11C78,-141.34 78,-169 78,-169 78,-169 229.46,-169 229.46,-169"/>
<polygon fill="black" stroke="black" points="229.46,-172.5 239.46,-169 229.46,-165.5 229.46,-172.5"/>
</g>
</g>
</svg>
