<?xml version="1.0" encoding="UTF-8" standalone="no"?>
<!DOCTYPE svg PUBLIC "-//W3C//DTD SVG 1.1//EN"
 "http://www.w3.org/Graphics/SVG/1.1/DTD/svg11.dtd">
<!-- Generated by graphviz version 5.0.0 (20220707.1540)
 -->
<!-- Title: dependencies Pages: 1 -->
<svg width="611pt" height="174pt"
 viewBox="0.00 0.00 611.00 173.80" xmlns="http://www.w3.org/2000/svg" xmlns:xlink="http://www.w3.org/1999/xlink">
<g id="graph0" class="graph" transform="scale(1 1) rotate(0) translate(4 169.8)">
<title>dependencies</title>
<polygon fill="white" stroke="transparent" points="-4,4 -4,-169.8 607,-169.8 607,4 -4,4"/>
<text text-anchor="middle" x="301.5" y="-8.2" font-family="sans-serif" font-size="14.00">dependencies</text>
<g id="clust1" class="cluster">
<title>cluster_BoardApiModule</title>
<polygon fill="none" stroke="black" stroke-dasharray="1,5" points="8,-32.8 8,-157.8 595,-157.8 595,-32.8 8,-32.8"/>
</g>
<g id="clust3" class="cluster">
<title>cluster_BoardApiModule_imports</title>
<polygon fill="none" stroke="black" points="359,-40.8 359,-92.8 587,-92.8 587,-40.8 359,-40.8"/>
</g>
<g id="clust6" class="cluster">
<title>cluster_BoardApiModule_providers</title>
<polygon fill="none" stroke="black" points="16,-40.8 16,-92.8 351,-92.8 351,-40.8 16,-40.8"/>
</g>
<!-- BoardModule -->
<g id="node1" class="node">
<title>BoardModule</title>
<polygon fill="#8dd3c7" stroke="black" points="578.77,-84.8 575.77,-88.8 554.77,-88.8 551.77,-84.8 485.23,-84.8 485.23,-48.8 578.77,-48.8 578.77,-84.8"/>
<text text-anchor="middle" x="532" y="-62.6" font-family="Times,serif" font-size="14.00">BoardModule</text>
</g>
<!-- BoardApiModule -->
<g id="node3" class="node">
<title>BoardApiModule</title>
<polygon fill="#8dd3c7" stroke="black" points="354.27,-149.8 351.27,-153.8 330.27,-153.8 327.27,-149.8 239.73,-149.8 239.73,-113.8 354.27,-113.8 354.27,-149.8"/>
<text text-anchor="middle" x="297" y="-127.6" font-family="Times,serif" font-size="14.00">BoardApiModule</text>
</g>
<!-- BoardModule&#45;&gt;BoardApiModule -->
<g id="edge1" class="edge">
<title>BoardModule&#45;&gt;BoardApiModule</title>
<path fill="none" stroke="black" d="M532,-84.91C532,-104.14 532,-131.8 532,-131.8 532,-131.8 364.49,-131.8 364.49,-131.8"/>
<polygon fill="black" stroke="black" points="364.49,-128.3 354.49,-131.8 364.49,-135.3 364.49,-128.3"/>
</g>
<!-- LoggerModule -->
<g id="node2" class="node">
<title>LoggerModule</title>
<polygon fill="#8dd3c7" stroke="black" points="466.98,-84.8 463.98,-88.8 442.98,-88.8 439.98,-84.8 367.02,-84.8 367.02,-48.8 466.98,-48.8 466.98,-84.8"/>
<text text-anchor="middle" x="417" y="-62.6" font-family="Times,serif" font-size="14.00">LoggerModule</text>
</g>
<!-- LoggerModule&#45;&gt;BoardApiModule -->
<g id="edge2" class="edge">
<title>LoggerModule&#45;&gt;BoardApiModule</title>
<path fill="none" stroke="black" d="M366.96,-66.8C356.53,-66.8 348.64,-66.8 348.64,-66.8 348.64,-66.8 348.64,-103.69 348.64,-103.69"/>
<polygon fill="black" stroke="black" points="345.14,-103.69 348.64,-113.69 352.14,-103.69 345.14,-103.69"/>
</g>
<!-- BoardUc -->
<g id="node4" class="node">
<title>BoardUc</title>
<ellipse fill="#fdb462" stroke="black" cx="297" cy="-66.8" rx="45.79" ry="18"/>
<text text-anchor="middle" x="297" y="-62.6" font-family="Times,serif" font-size="14.00">BoardUc</text>
</g>
<!-- BoardUc&#45;&gt;BoardApiModule -->
<g id="edge3" class="edge">
<title>BoardUc&#45;&gt;BoardApiModule</title>
<path fill="none" stroke="black" d="M297,-84.91C297,-84.91 297,-103.79 297,-103.79"/>
<polygon fill="black" stroke="black" points="293.5,-103.79 297,-113.79 300.5,-103.79 293.5,-103.79"/>
</g>
<!-- CardUc -->
<g id="node5" class="node">
<title>CardUc</title>
<ellipse fill="#fdb462" stroke="black" cx="192" cy="-66.8" rx="41.14" ry="18"/>
<text text-anchor="middle" x="192" y="-62.6" font-family="Times,serif" font-size="14.00">CardUc</text>
</g>
<!-- CardUc&#45;&gt;BoardApiModule -->
<g id="edge4" class="edge">
<title>CardUc&#45;&gt;BoardApiModule</title>
<path fill="none" stroke="black" d="M233.25,-66.8C240.28,-66.8 245.36,-66.8 245.36,-66.8 245.36,-66.8 245.36,-103.69 245.36,-103.69"/>
<polygon fill="black" stroke="black" points="241.86,-103.69 245.36,-113.69 248.86,-103.69 241.86,-103.69"/>
</g>
<!-- ElementUc -->
<g id="node6" class="node">
<title>ElementUc</title>
<ellipse fill="#fdb462" stroke="black" cx="78" cy="-66.8" rx="54.45" ry="18"/>
<text text-anchor="middle" x="78" y="-62.6" font-family="Times,serif" font-size="14.00">ElementUc</text>
</g>
<!-- ElementUc&#45;&gt;BoardApiModule -->
<g id="edge5" class="edge">
<title>ElementUc&#45;&gt;BoardApiModule</title>
<path fill="none" stroke="black" d="M78,-84.91C78,-104.14 78,-131.8 78,-131.8 78,-131.8 229.46,-131.8 229.46,-131.8"/>
<polygon fill="black" stroke="black" points="229.46,-135.3 239.46,-131.8 229.46,-128.3 229.46,-135.3"/>
</g>
</g>
</svg>
