<?xml version="1.0" encoding="UTF-8" standalone="no"?>
<!DOCTYPE svg PUBLIC "-//W3C//DTD SVG 1.1//EN"
 "http://www.w3.org/Graphics/SVG/1.1/DTD/svg11.dtd">
<!-- Generated by graphviz version 2.47.0 (20210316.0004)
 -->
<!-- Title: dependencies Pages: 1 -->
<svg width="716pt" height="211pt"
 viewBox="0.00 0.00 716.00 211.00" xmlns="http://www.w3.org/2000/svg" xmlns:xlink="http://www.w3.org/1999/xlink">
<g id="graph0" class="graph" transform="scale(1 1) rotate(0) translate(4 207)">
<title>dependencies</title>
<polygon fill="white" stroke="transparent" points="-4,4 -4,-207 712,-207 712,4 -4,4"/>
<text text-anchor="start" x="333.01" y="-42.4" font-family="Times-12" font-weight="bold" font-size="14.00">Legend</text>
<polygon fill="#ffffb3" stroke="transparent" points="120,-10 120,-30 140,-30 140,-10 120,-10"/>
<text text-anchor="start" x="143.63" y="-15.4" font-family="Times-12" font-size="14.00"> &#160;Declarations</text>
<polygon fill="#8dd3c7" stroke="transparent" points="233,-10 233,-30 253,-30 253,-10 233,-10"/>
<text text-anchor="start" x="256.73" y="-15.4" font-family="Times-12" font-size="14.00"> &#160;Module</text>
<polygon fill="#80b1d3" stroke="transparent" points="319,-10 319,-30 339,-30 339,-10 319,-10"/>
<text text-anchor="start" x="342.78" y="-15.4" font-family="Times-12" font-size="14.00"> &#160;Bootstrap</text>
<polygon fill="#fdb462" stroke="transparent" points="416,-10 416,-30 436,-30 436,-10 416,-10"/>
<text text-anchor="start" x="439.67" y="-15.4" font-family="Times-12" font-size="14.00"> &#160;Providers</text>
<polygon fill="#fb8072" stroke="transparent" points="512,-10 512,-30 532,-30 532,-10 512,-10"/>
<text text-anchor="start" x="535.73" y="-15.4" font-family="Times-12" font-size="14.00"> &#160;Exports</text>
<g id="clust1" class="cluster">
<title>cluster_AccountApiModule</title>
<polygon fill="none" stroke="black" stroke-dasharray="1,5" points="8,-70 8,-195 700,-195 700,-70 8,-70"/>
</g>
<g id="clust3" class="cluster">
<title>cluster_AccountApiModule_imports</title>
<polygon fill="none" stroke="black" points="452,-78 452,-130 692,-130 692,-78 452,-78"/>
</g>
<g id="clust6" class="cluster">
<title>cluster_AccountApiModule_providers</title>
<polygon fill="none" stroke="black" points="16,-78 16,-130 444,-130 444,-78 16,-78"/>
</g>
<!-- AccountModule -->
<g id="node1" class="node">
<title>AccountModule</title>
<polygon fill="#8dd3c7" stroke="black" points="684.48,-122 681.48,-126 660.48,-126 657.48,-122 577.52,-122 577.52,-86 684.48,-86 684.48,-122"/>
<text text-anchor="middle" x="631" y="-99.8" font-family="Times,serif" font-size="14.00">AccountModule</text>
</g>
<!-- AccountApiModule -->
<g id="node3" class="node">
<title>AccountApiModule</title>
<polygon fill="#8dd3c7" stroke="black" points="444.97,-187 441.97,-191 420.97,-191 417.97,-187 317.03,-187 317.03,-151 444.97,-151 444.97,-187"/>
<text text-anchor="middle" x="381" y="-164.8" font-family="Times,serif" font-size="14.00">AccountApiModule</text>
</g>
<!-- AccountModule&#45;&gt;AccountApiModule -->
<g id="edge1" class="edge">
<title>AccountModule&#45;&gt;AccountApiModule</title>
<path fill="none" stroke="black" d="M631,-122.11C631,-141.34 631,-169 631,-169 631,-169 455.06,-169 455.06,-169"/>
<polygon fill="black" stroke="black" points="455.06,-165.5 445.06,-169 455.06,-172.5 455.06,-165.5"/>
</g>
<!-- LoggerModule -->
<g id="node2" class="node">
<title>LoggerModule</title>
<polygon fill="#8dd3c7" stroke="black" points="559.98,-122 556.98,-126 535.98,-126 532.98,-122 460.02,-122 460.02,-86 559.98,-86 559.98,-122"/>
<text text-anchor="middle" x="510" y="-99.8" font-family="Times,serif" font-size="14.00">LoggerModule</text>
</g>
<!-- LoggerModule&#45;&gt;AccountApiModule -->
<g id="edge2" class="edge">
<title>LoggerModule&#45;&gt;AccountApiModule</title>
<path fill="none" stroke="black" d="M459.86,-104C448.9,-104 440.5,-104 440.5,-104 440.5,-104 440.5,-140.89 440.5,-140.89"/>
<polygon fill="black" stroke="black" points="437,-140.89 440.5,-150.89 444,-140.89 437,-140.89"/>
</g>
<!-- AccountUc -->
<g id="node4" class="node">
<title>AccountUc</title>
<ellipse fill="#fdb462" stroke="black" cx="381" cy="-104" rx="55.02" ry="18"/>
<text text-anchor="middle" x="381" y="-99.8" font-family="Times,serif" font-size="14.00">AccountUc</text>
</g>
<!-- AccountUc&#45;&gt;AccountApiModule -->
<g id="edge3" class="edge">
<title>AccountUc&#45;&gt;AccountApiModule</title>
<path fill="none" stroke="black" d="M381,-122.11C381,-122.11 381,-140.99 381,-140.99"/>
<polygon fill="black" stroke="black" points="377.5,-140.99 381,-150.99 384.5,-140.99 377.5,-140.99"/>
</g>
<!-- PermissionService -->
<g id="node5" class="node">
<title>PermissionService</title>
<ellipse fill="#fdb462" stroke="black" cx="225" cy="-104" rx="82.82" ry="18"/>
<text text-anchor="middle" x="225" y="-99.8" font-family="Times,serif" font-size="14.00">PermissionService</text>
</g>
<!-- PermissionService&#45;&gt;AccountApiModule -->
<g id="edge4" class="edge">
<title>PermissionService&#45;&gt;AccountApiModule</title>
<path fill="none" stroke="black" d="M308.08,-104C316.2,-104 321.5,-104 321.5,-104 321.5,-104 321.5,-140.89 321.5,-140.89"/>
<polygon fill="black" stroke="black" points="318,-140.89 321.5,-150.89 325,-140.89 318,-140.89"/>
</g>
<!-- UserRepo -->
<g id="node6" class="node">
<title>UserRepo</title>
<ellipse fill="#fdb462" stroke="black" cx="74" cy="-104" rx="49.8" ry="18"/>
<text text-anchor="middle" x="74" y="-99.8" font-family="Times,serif" font-size="14.00">UserRepo</text>
</g>
<!-- UserRepo&#45;&gt;AccountApiModule -->
<g id="edge5" class="edge">
<title>UserRepo&#45;&gt;AccountApiModule</title>
<path fill="none" stroke="black" d="M74,-122.11C74,-141.34 74,-169 74,-169 74,-169 307.02,-169 307.02,-169"/>
<polygon fill="black" stroke="black" points="307.02,-172.5 317.02,-169 307.02,-165.5 307.02,-172.5"/>
</g>
</g>
</svg>
