<?xml version="1.0" encoding="UTF-8" standalone="no"?>
<!DOCTYPE svg PUBLIC "-//W3C//DTD SVG 1.1//EN"
 "http://www.w3.org/Graphics/SVG/1.1/DTD/svg11.dtd">
<!-- Generated by graphviz version 2.47.0 (20210316.0004)
 -->
<!-- Title: dependencies Pages: 1 -->
<svg width="688pt" height="211pt"
 viewBox="0.00 0.00 688.00 211.00" xmlns="http://www.w3.org/2000/svg" xmlns:xlink="http://www.w3.org/1999/xlink">
<g id="graph0" class="graph" transform="scale(1 1) rotate(0) translate(4 207)">
<title>dependencies</title>
<polygon fill="white" stroke="transparent" points="-4,4 -4,-207 684,-207 684,4 -4,4"/>
<text text-anchor="start" x="319.01" y="-42.4" font-family="Times-12" font-weight="bold" font-size="14.00">Legend</text>
<polygon fill="#ffffb3" stroke="transparent" points="106,-10 106,-30 126,-30 126,-10 106,-10"/>
<text text-anchor="start" x="129.63" y="-15.4" font-family="Times-12" font-size="14.00"> &#160;Declarations</text>
<polygon fill="#8dd3c7" stroke="transparent" points="219,-10 219,-30 239,-30 239,-10 219,-10"/>
<text text-anchor="start" x="242.73" y="-15.4" font-family="Times-12" font-size="14.00"> &#160;Module</text>
<polygon fill="#80b1d3" stroke="transparent" points="305,-10 305,-30 325,-30 325,-10 305,-10"/>
<text text-anchor="start" x="328.78" y="-15.4" font-family="Times-12" font-size="14.00"> &#160;Bootstrap</text>
<polygon fill="#fdb462" stroke="transparent" points="402,-10 402,-30 422,-30 422,-10 402,-10"/>
<text text-anchor="start" x="425.67" y="-15.4" font-family="Times-12" font-size="14.00"> &#160;Providers</text>
<polygon fill="#fb8072" stroke="transparent" points="498,-10 498,-30 518,-30 518,-10 498,-10"/>
<text text-anchor="start" x="521.73" y="-15.4" font-family="Times-12" font-size="14.00"> &#160;Exports</text>
<g id="clust1" class="cluster">
<title>cluster_AccountApiModule</title>
<polygon fill="none" stroke="black" stroke-dasharray="1,5" points="8,-70 8,-195 672,-195 672,-70 8,-70"/>
</g>
<g id="clust6" class="cluster">
<title>cluster_AccountApiModule_providers</title>
<polygon fill="none" stroke="black" points="420,-78 420,-130 664,-130 664,-78 420,-78"/>
</g>
<g id="clust3" class="cluster">
<title>cluster_AccountApiModule_imports</title>
<polygon fill="none" stroke="black" points="16,-78 16,-130 412,-130 412,-78 16,-78"/>
</g>
<!-- AccountModule -->
<g id="node1" class="node">
<title>AccountModule</title>
<polygon fill="#8dd3c7" stroke="black" points="404.48,-122 401.48,-126 380.48,-126 377.48,-122 297.52,-122 297.52,-86 404.48,-86 404.48,-122"/>
<text text-anchor="middle" x="351" y="-99.8" font-family="Times,serif" font-size="14.00">AccountModule</text>
</g>
<!-- AccountApiModule -->
<g id="node4" class="node">
<title>AccountApiModule</title>
<polygon fill="#8dd3c7" stroke="black" points="414.97,-187 411.97,-191 390.97,-191 387.97,-187 287.03,-187 287.03,-151 414.97,-151 414.97,-187"/>
<text text-anchor="middle" x="351" y="-164.8" font-family="Times,serif" font-size="14.00">AccountApiModule</text>
</g>
<!-- AccountModule&#45;&gt;AccountApiModule -->
<g id="edge1" class="edge">
<title>AccountModule&#45;&gt;AccountApiModule</title>
<path fill="none" stroke="black" d="M351,-122.11C351,-122.11 351,-140.99 351,-140.99"/>
<polygon fill="black" stroke="black" points="347.5,-140.99 351,-150.99 354.5,-140.99 347.5,-140.99"/>
</g>
<!-- AuthorizationModule -->
<g id="node2" class="node">
<title>AuthorizationModule</title>
<polygon fill="#8dd3c7" stroke="black" points="279.81,-122 276.81,-126 255.81,-126 252.81,-122 142.19,-122 142.19,-86 279.81,-86 279.81,-122"/>
<text text-anchor="middle" x="211" y="-99.8" font-family="Times,serif" font-size="14.00">AuthorizationModule</text>
</g>
<!-- AuthorizationModule&#45;&gt;AccountApiModule -->
<g id="edge2" class="edge">
<title>AuthorizationModule&#45;&gt;AccountApiModule</title>
<path fill="none" stroke="black" d="M279.92,-104C287.34,-104 292.26,-104 292.26,-104 292.26,-104 292.26,-140.89 292.26,-140.89"/>
<polygon fill="black" stroke="black" points="288.76,-140.89 292.26,-150.89 295.76,-140.89 288.76,-140.89"/>
</g>
<!-- LoggerModule -->
<g id="node3" class="node">
<title>LoggerModule</title>
<polygon fill="#8dd3c7" stroke="black" points="123.98,-122 120.98,-126 99.98,-126 96.98,-122 24.02,-122 24.02,-86 123.98,-86 123.98,-122"/>
<text text-anchor="middle" x="74" y="-99.8" font-family="Times,serif" font-size="14.00">LoggerModule</text>
</g>
<!-- LoggerModule&#45;&gt;AccountApiModule -->
<g id="edge3" class="edge">
<title>LoggerModule&#45;&gt;AccountApiModule</title>
<path fill="none" stroke="black" d="M74,-122.11C74,-141.34 74,-169 74,-169 74,-169 276.75,-169 276.75,-169"/>
<polygon fill="black" stroke="black" points="276.75,-172.5 286.75,-169 276.75,-165.5 276.75,-172.5"/>
</g>
<!-- AccountUc -->
<g id="node5" class="node">
<title>AccountUc</title>
<ellipse fill="#fdb462" stroke="black" cx="601" cy="-104" rx="55.02" ry="18"/>
<text text-anchor="middle" x="601" y="-99.8" font-family="Times,serif" font-size="14.00">AccountUc</text>
</g>
<!-- AccountUc&#45;&gt;AccountApiModule -->
<g id="edge4" class="edge">
<title>AccountUc&#45;&gt;AccountApiModule</title>
<path fill="none" stroke="black" d="M601,-122.11C601,-141.34 601,-169 601,-169 601,-169 425.06,-169 425.06,-169"/>
<polygon fill="black" stroke="black" points="425.06,-165.5 415.06,-169 425.06,-172.5 425.06,-165.5"/>
</g>
<!-- UserRepo -->
<g id="node6" class="node">
<title>UserRepo</title>
<ellipse fill="#fdb462" stroke="black" cx="478" cy="-104" rx="49.8" ry="18"/>
<text text-anchor="middle" x="478" y="-99.8" font-family="Times,serif" font-size="14.00">UserRepo</text>
</g>
<!-- UserRepo&#45;&gt;AccountApiModule -->
<g id="edge5" class="edge">
<title>UserRepo&#45;&gt;AccountApiModule</title>
<path fill="none" stroke="black" d="M428.03,-104C417.62,-104 409.74,-104 409.74,-104 409.74,-104 409.74,-140.89 409.74,-140.89"/>
<polygon fill="black" stroke="black" points="406.24,-140.89 409.74,-150.89 413.24,-140.89 406.24,-140.89"/>
</g>
</g>
</svg>
