<?xml version="1.0" encoding="UTF-8" standalone="no"?>
<!DOCTYPE svg PUBLIC "-//W3C//DTD SVG 1.1//EN"
 "http://www.w3.org/Graphics/SVG/1.1/DTD/svg11.dtd">
<!-- Generated by graphviz version 2.47.0 (20210316.0004)
 -->
<!-- Title: dependencies Pages: 1 -->
<svg width="716pt" height="211pt"
 viewBox="0.00 0.00 716.00 211.00" xmlns="http://www.w3.org/2000/svg" xmlns:xlink="http://www.w3.org/1999/xlink">
<g id="graph0" class="graph" transform="scale(1 1) rotate(0) translate(4 207)">
<title>dependencies</title>
<polygon fill="white" stroke="transparent" points="-4,4 -4,-207 712,-207 712,4 -4,4"/>
<text text-anchor="start" x="333.01" y="-42.4" font-family="Times-12" font-weight="bold" font-size="14.00">Legend</text>
<polygon fill="#ffffb3" stroke="transparent" points="120,-10 120,-30 140,-30 140,-10 120,-10"/>
<text text-anchor="start" x="143.63" y="-15.4" font-family="Times-12" font-size="14.00"> &#160;Declarations</text>
<polygon fill="#8dd3c7" stroke="transparent" points="233,-10 233,-30 253,-30 253,-10 233,-10"/>
<text text-anchor="start" x="256.73" y="-15.4" font-family="Times-12" font-size="14.00"> &#160;Module</text>
<polygon fill="#80b1d3" stroke="transparent" points="319,-10 319,-30 339,-30 339,-10 319,-10"/>
<text text-anchor="start" x="342.78" y="-15.4" font-family="Times-12" font-size="14.00"> &#160;Bootstrap</text>
<polygon fill="#fdb462" stroke="transparent" points="416,-10 416,-30 436,-30 436,-10 416,-10"/>
<text text-anchor="start" x="439.67" y="-15.4" font-family="Times-12" font-size="14.00"> &#160;Providers</text>
<polygon fill="#fb8072" stroke="transparent" points="512,-10 512,-30 532,-30 532,-10 512,-10"/>
<text text-anchor="start" x="535.73" y="-15.4" font-family="Times-12" font-size="14.00"> &#160;Exports</text>
<g id="clust1" class="cluster">
<title>cluster_AccountApiModule</title>
<polygon fill="none" stroke="black" stroke-dasharray="1,5" points="8,-70 8,-195 700,-195 700,-70 8,-70"/>
</g>
<g id="clust6" class="cluster">
<title>cluster_AccountApiModule_providers</title>
<polygon fill="none" stroke="black" points="264,-78 264,-130 692,-130 692,-78 264,-78"/>
</g>
<g id="clust3" class="cluster">
<title>cluster_AccountApiModule_imports</title>
<polygon fill="none" stroke="black" points="16,-78 16,-130 256,-130 256,-78 16,-78"/>
</g>
<!-- AccountModule -->
<g id="node1" class="node">
<title>AccountModule</title>
<polygon fill="#8dd3c7" stroke="black" points="248.48,-122 245.48,-126 224.48,-126 221.48,-122 141.52,-122 141.52,-86 248.48,-86 248.48,-122"/>
<text text-anchor="middle" x="195" y="-99.8" font-family="Times,serif" font-size="14.00">AccountModule</text>
</g>
<!-- AccountApiModule -->
<g id="node3" class="node">
<title>AccountApiModule</title>
<polygon fill="#8dd3c7" stroke="black" points="385.97,-187 382.97,-191 361.97,-191 358.97,-187 258.03,-187 258.03,-151 385.97,-151 385.97,-187"/>
<text text-anchor="middle" x="322" y="-164.8" font-family="Times,serif" font-size="14.00">AccountApiModule</text>
</g>
<!-- AccountModule&#45;&gt;AccountApiModule -->
<g id="edge1" class="edge">
<title>AccountModule&#45;&gt;AccountApiModule</title>
<path fill="none" stroke="black" d="M248.55,-104C258.16,-104 265.18,-104 265.18,-104 265.18,-104 265.18,-140.89 265.18,-140.89"/>
<polygon fill="black" stroke="black" points="261.68,-140.89 265.18,-150.89 268.68,-140.89 261.68,-140.89"/>
</g>
<!-- LoggerModule -->
<g id="node2" class="node">
<title>LoggerModule</title>
<polygon fill="#8dd3c7" stroke="black" points="123.98,-122 120.98,-126 99.98,-126 96.98,-122 24.02,-122 24.02,-86 123.98,-86 123.98,-122"/>
<text text-anchor="middle" x="74" y="-99.8" font-family="Times,serif" font-size="14.00">LoggerModule</text>
</g>
<!-- LoggerModule&#45;&gt;AccountApiModule -->
<g id="edge2" class="edge">
<title>LoggerModule&#45;&gt;AccountApiModule</title>
<path fill="none" stroke="black" d="M74,-122.11C74,-141.34 74,-169 74,-169 74,-169 247.81,-169 247.81,-169"/>
<polygon fill="black" stroke="black" points="247.81,-172.5 257.81,-169 247.81,-165.5 247.81,-172.5"/>
</g>
<!-- AccountUc -->
<g id="node4" class="node">
<title>AccountUc</title>
<ellipse fill="#fdb462" stroke="black" cx="629" cy="-104" rx="55.02" ry="18"/>
<text text-anchor="middle" x="629" y="-99.8" font-family="Times,serif" font-size="14.00">AccountUc</text>
</g>
<!-- AccountUc&#45;&gt;AccountApiModule -->
<g id="edge3" class="edge">
<title>AccountUc&#45;&gt;AccountApiModule</title>
<path fill="none" stroke="black" d="M629,-122.11C629,-141.34 629,-169 629,-169 629,-169 395.98,-169 395.98,-169"/>
<polygon fill="black" stroke="black" points="395.98,-165.5 385.98,-169 395.98,-172.5 395.98,-165.5"/>
</g>
<!-- PermissionService -->
<g id="node5" class="node">
<title>PermissionService</title>
<ellipse fill="#fdb462" stroke="black" cx="473" cy="-104" rx="82.82" ry="18"/>
<text text-anchor="middle" x="473" y="-99.8" font-family="Times,serif" font-size="14.00">PermissionService</text>
</g>
<!-- PermissionService&#45;&gt;AccountApiModule -->
<g id="edge4" class="edge">
<title>PermissionService&#45;&gt;AccountApiModule</title>
<path fill="none" stroke="black" d="M389.99,-104C383.17,-104 378.82,-104 378.82,-104 378.82,-104 378.82,-140.89 378.82,-140.89"/>
<polygon fill="black" stroke="black" points="375.32,-140.89 378.82,-150.89 382.32,-140.89 375.32,-140.89"/>
</g>
<!-- UserRepo -->
<g id="node6" class="node">
<title>UserRepo</title>
<ellipse fill="#fdb462" stroke="black" cx="322" cy="-104" rx="49.8" ry="18"/>
<text text-anchor="middle" x="322" y="-99.8" font-family="Times,serif" font-size="14.00">UserRepo</text>
</g>
<!-- UserRepo&#45;&gt;AccountApiModule -->
<g id="edge5" class="edge">
<title>UserRepo&#45;&gt;AccountApiModule</title>
<path fill="none" stroke="black" d="M322,-122.11C322,-122.11 322,-140.99 322,-140.99"/>
<polygon fill="black" stroke="black" points="318.5,-140.99 322,-150.99 325.5,-140.99 318.5,-140.99"/>
</g>
</g>
</svg>
