<?xml version="1.0" encoding="UTF-8" standalone="no"?>
<!DOCTYPE svg PUBLIC "-//W3C//DTD SVG 1.1//EN"
 "http://www.w3.org/Graphics/SVG/1.1/DTD/svg11.dtd">
<!-- Generated by graphviz version 2.47.0 (20210316.0004)
 -->
<!-- Title: dependencies Pages: 1 -->
<svg width="872pt" height="211pt"
 viewBox="0.00 0.00 872.00 211.00" xmlns="http://www.w3.org/2000/svg" xmlns:xlink="http://www.w3.org/1999/xlink">
<g id="graph0" class="graph" transform="scale(1 1) rotate(0) translate(4 207)">
<title>dependencies</title>
<polygon fill="white" stroke="transparent" points="-4,4 -4,-207 868,-207 868,4 -4,4"/>
<text text-anchor="start" x="411.01" y="-42.4" font-family="Times-12" font-weight="bold" font-size="14.00">Legend</text>
<polygon fill="#ffffb3" stroke="transparent" points="198,-10 198,-30 218,-30 218,-10 198,-10"/>
<text text-anchor="start" x="221.63" y="-15.4" font-family="Times-12" font-size="14.00"> &#160;Declarations</text>
<polygon fill="#8dd3c7" stroke="transparent" points="311,-10 311,-30 331,-30 331,-10 311,-10"/>
<text text-anchor="start" x="334.73" y="-15.4" font-family="Times-12" font-size="14.00"> &#160;Module</text>
<polygon fill="#80b1d3" stroke="transparent" points="397,-10 397,-30 417,-30 417,-10 397,-10"/>
<text text-anchor="start" x="420.78" y="-15.4" font-family="Times-12" font-size="14.00"> &#160;Bootstrap</text>
<polygon fill="#fdb462" stroke="transparent" points="494,-10 494,-30 514,-30 514,-10 494,-10"/>
<text text-anchor="start" x="517.67" y="-15.4" font-family="Times-12" font-size="14.00"> &#160;Providers</text>
<polygon fill="#fb8072" stroke="transparent" points="590,-10 590,-30 610,-30 610,-10 590,-10"/>
<text text-anchor="start" x="613.73" y="-15.4" font-family="Times-12" font-size="14.00"> &#160;Exports</text>
<g id="clust1" class="cluster">
<title>cluster_AccountApiModule</title>
<polygon fill="none" stroke="black" stroke-dasharray="1,5" points="8,-70 8,-195 856,-195 856,-70 8,-70"/>
</g>
<g id="clust3" class="cluster">
<title>cluster_AccountApiModule_imports</title>
<polygon fill="none" stroke="black" points="452,-78 452,-130 848,-130 848,-78 452,-78"/>
</g>
<g id="clust6" class="cluster">
<title>cluster_AccountApiModule_providers</title>
<polygon fill="none" stroke="black" points="16,-78 16,-130 444,-130 444,-78 16,-78"/>
</g>
<!-- AccountModule -->
<g id="node1" class="node">
<title>AccountModule</title>
<polygon fill="#8dd3c7" stroke="black" points="840.48,-122 837.48,-126 816.48,-126 813.48,-122 733.52,-122 733.52,-86 840.48,-86 840.48,-122"/>
<text text-anchor="middle" x="787" y="-99.8" font-family="Times,serif" font-size="14.00">AccountModule</text>
</g>
<!-- AccountApiModule -->
<g id="node4" class="node">
<title>AccountApiModule</title>
<polygon fill="#8dd3c7" stroke="black" points="508.97,-187 505.97,-191 484.97,-191 481.97,-187 381.03,-187 381.03,-151 508.97,-151 508.97,-187"/>
<text text-anchor="middle" x="445" y="-164.8" font-family="Times,serif" font-size="14.00">AccountApiModule</text>
</g>
<!-- AccountModule&#45;&gt;AccountApiModule -->
<g id="edge1" class="edge">
<title>AccountModule&#45;&gt;AccountApiModule</title>
<path fill="none" stroke="black" d="M787,-122.28C787,-143.32 787,-175 787,-175 787,-175 519.33,-175 519.33,-175"/>
<polygon fill="black" stroke="black" points="519.33,-171.5 509.33,-175 519.33,-178.5 519.33,-171.5"/>
</g>
<!-- AuthorizationModule -->
<g id="node2" class="node">
<title>AuthorizationModule</title>
<polygon fill="#8dd3c7" stroke="black" points="715.81,-122 712.81,-126 691.81,-126 688.81,-122 578.19,-122 578.19,-86 715.81,-86 715.81,-122"/>
<text text-anchor="middle" x="647" y="-99.8" font-family="Times,serif" font-size="14.00">AuthorizationModule</text>
</g>
<!-- AuthorizationModule&#45;&gt;AccountApiModule -->
<g id="edge2" class="edge">
<title>AuthorizationModule&#45;&gt;AccountApiModule</title>
<path fill="none" stroke="black" d="M647,-122.02C647,-139.37 647,-163 647,-163 647,-163 519.19,-163 519.19,-163"/>
<polygon fill="black" stroke="black" points="519.19,-159.5 509.19,-163 519.19,-166.5 519.19,-159.5"/>
</g>
<!-- LoggerModule -->
<g id="node3" class="node">
<title>LoggerModule</title>
<polygon fill="#8dd3c7" stroke="black" points="559.98,-122 556.98,-126 535.98,-126 532.98,-122 460.02,-122 460.02,-86 559.98,-86 559.98,-122"/>
<text text-anchor="middle" x="510" y="-99.8" font-family="Times,serif" font-size="14.00">LoggerModule</text>
</g>
<!-- LoggerModule&#45;&gt;AccountApiModule -->
<g id="edge3" class="edge">
<title>LoggerModule&#45;&gt;AccountApiModule</title>
<path fill="none" stroke="black" d="M484.5,-122.11C484.5,-122.11 484.5,-140.99 484.5,-140.99"/>
<polygon fill="black" stroke="black" points="481,-140.99 484.5,-150.99 488,-140.99 481,-140.99"/>
</g>
<!-- AccountUc -->
<g id="node5" class="node">
<title>AccountUc</title>
<ellipse fill="#fdb462" stroke="black" cx="381" cy="-104" rx="55.02" ry="18"/>
<text text-anchor="middle" x="381" y="-99.8" font-family="Times,serif" font-size="14.00">AccountUc</text>
</g>
<!-- AccountUc&#45;&gt;AccountApiModule -->
<g id="edge4" class="edge">
<title>AccountUc&#45;&gt;AccountApiModule</title>
<path fill="none" stroke="black" d="M408.51,-119.73C408.51,-119.73 408.51,-140.65 408.51,-140.65"/>
<polygon fill="black" stroke="black" points="405.01,-140.65 408.51,-150.65 412.01,-140.65 405.01,-140.65"/>
</g>
<!-- PermissionService -->
<g id="node6" class="node">
<title>PermissionService</title>
<ellipse fill="#fdb462" stroke="black" cx="225" cy="-104" rx="82.82" ry="18"/>
<text text-anchor="middle" x="225" y="-99.8" font-family="Times,serif" font-size="14.00">PermissionService</text>
</g>
<!-- PermissionService&#45;&gt;AccountApiModule -->
<g id="edge5" class="edge">
<title>PermissionService&#45;&gt;AccountApiModule</title>
<path fill="none" stroke="black" d="M225,-122.02C225,-139.37 225,-163 225,-163 225,-163 370.78,-163 370.78,-163"/>
<polygon fill="black" stroke="black" points="370.78,-166.5 380.78,-163 370.78,-159.5 370.78,-166.5"/>
</g>
<!-- UserRepo -->
<g id="node7" class="node">
<title>UserRepo</title>
<ellipse fill="#fdb462" stroke="black" cx="74" cy="-104" rx="49.8" ry="18"/>
<text text-anchor="middle" x="74" y="-99.8" font-family="Times,serif" font-size="14.00">UserRepo</text>
</g>
<!-- UserRepo&#45;&gt;AccountApiModule -->
<g id="edge6" class="edge">
<title>UserRepo&#45;&gt;AccountApiModule</title>
<path fill="none" stroke="black" d="M74,-122.28C74,-143.32 74,-175 74,-175 74,-175 370.8,-175 370.8,-175"/>
<polygon fill="black" stroke="black" points="370.8,-178.5 380.8,-175 370.8,-171.5 370.8,-178.5"/>
</g>
</g>
</svg>
