<?xml version="1.0" encoding="UTF-8" standalone="no"?>
<!DOCTYPE svg PUBLIC "-//W3C//DTD SVG 1.1//EN"
 "http://www.w3.org/Graphics/SVG/1.1/DTD/svg11.dtd">
<!-- Generated by graphviz version 2.47.0 (20210316.0004)
 -->
<!-- Title: dependencies Pages: 1 -->
<svg width="504pt" height="284pt"
 viewBox="0.00 0.00 504.00 284.00" xmlns="http://www.w3.org/2000/svg" xmlns:xlink="http://www.w3.org/1999/xlink">
<g id="graph0" class="graph" transform="scale(1 1) rotate(0) translate(4 280)">
<title>dependencies</title>
<polygon fill="white" stroke="transparent" points="-4,4 -4,-280 500,-280 500,4 -4,4"/>
<text text-anchor="start" x="227.01" y="-42.4" font-family="Times-12" font-weight="bold" font-size="14.00">Legend</text>
<polygon fill="#ffffb3" stroke="transparent" points="14,-10 14,-30 34,-30 34,-10 14,-10"/>
<text text-anchor="start" x="37.63" y="-15.4" font-family="Times-12" font-size="14.00"> &#160;Declarations</text>
<polygon fill="#8dd3c7" stroke="transparent" points="127,-10 127,-30 147,-30 147,-10 127,-10"/>
<text text-anchor="start" x="150.73" y="-15.4" font-family="Times-12" font-size="14.00"> &#160;Module</text>
<polygon fill="#80b1d3" stroke="transparent" points="213,-10 213,-30 233,-30 233,-10 213,-10"/>
<text text-anchor="start" x="236.78" y="-15.4" font-family="Times-12" font-size="14.00"> &#160;Bootstrap</text>
<polygon fill="#fdb462" stroke="transparent" points="310,-10 310,-30 330,-30 330,-10 310,-10"/>
<text text-anchor="start" x="333.67" y="-15.4" font-family="Times-12" font-size="14.00"> &#160;Providers</text>
<polygon fill="#fb8072" stroke="transparent" points="406,-10 406,-30 426,-30 426,-10 406,-10"/>
<text text-anchor="start" x="429.73" y="-15.4" font-family="Times-12" font-size="14.00"> &#160;Exports</text>
<g id="clust1" class="cluster">
<title>cluster_LtiToolModule</title>
<polygon fill="none" stroke="black" stroke-dasharray="1,5" points="17,-70 17,-268 479,-268 479,-70 17,-70"/>
</g>
<g id="clust6" class="cluster">
<title>cluster_LtiToolModule_providers</title>
<polygon fill="none" stroke="black" points="25,-78 25,-130 471,-130 471,-78 25,-78"/>
</g>
<g id="clust4" class="cluster">
<title>cluster_LtiToolModule_exports</title>
<polygon fill="none" stroke="black" points="190,-208 190,-260 310,-260 310,-208 190,-208"/>
</g>
<!-- LtiToolService  -->
<g id="node1" class="node">
<title>LtiToolService </title>
<polygon fill="#fb8072" stroke="black" points="302.25,-252 197.75,-252 197.75,-216 302.25,-216 302.25,-252"/>
<text text-anchor="middle" x="250" y="-229.8" font-family="Times,serif" font-size="14.00">LtiToolService </text>
</g>
<!-- LtiToolModule -->
<g id="node2" class="node">
<title>LtiToolModule</title>
<polygon fill="#8dd3c7" stroke="black" points="301.33,-187 298.33,-191 277.33,-191 274.33,-187 198.67,-187 198.67,-151 301.33,-151 301.33,-187"/>
<text text-anchor="middle" x="250" y="-164.8" font-family="Times,serif" font-size="14.00">LtiToolModule</text>
</g>
<!-- LtiToolModule&#45;&gt;LtiToolService  -->
<g id="edge1" class="edge">
<title>LtiToolModule&#45;&gt;LtiToolService </title>
<path fill="none" stroke="black" stroke-dasharray="5,2" d="M250,-187.11C250,-187.11 250,-205.99 250,-205.99"/>
<polygon fill="black" stroke="black" points="246.5,-205.99 250,-215.99 253.5,-205.99 246.5,-205.99"/>
</g>
<!-- LegacyLogger -->
<g id="node3" class="node">
<title>LegacyLogger</title>
<ellipse fill="#fdb462" stroke="black" cx="396" cy="-104" rx="67.18" ry="18"/>
<text text-anchor="middle" x="396" y="-99.8" font-family="Times,serif" font-size="14.00">LegacyLogger</text>
</g>
<!-- LegacyLogger&#45;&gt;LtiToolModule -->
<g id="edge2" class="edge">
<title>LegacyLogger&#45;&gt;LtiToolModule</title>
<path fill="none" stroke="black" d="M396,-122.11C396,-141.34 396,-169 396,-169 396,-169 311.47,-169 311.47,-169"/>
<polygon fill="black" stroke="black" points="311.47,-165.5 301.47,-169 311.47,-172.5 311.47,-165.5"/>
</g>
<!-- LtiToolRepo -->
<g id="node4" class="node">
<title>LtiToolRepo</title>
<ellipse fill="#fdb462" stroke="black" cx="250" cy="-104" rx="60.85" ry="18"/>
<text text-anchor="middle" x="250" y="-99.8" font-family="Times,serif" font-size="14.00">LtiToolRepo</text>
</g>
<!-- LtiToolRepo&#45;&gt;LtiToolModule -->
<g id="edge3" class="edge">
<title>LtiToolRepo&#45;&gt;LtiToolModule</title>
<path fill="none" stroke="black" d="M250,-122.11C250,-122.11 250,-140.99 250,-140.99"/>
<polygon fill="black" stroke="black" points="246.5,-140.99 250,-150.99 253.5,-140.99 246.5,-140.99"/>
</g>
<!-- LtiToolService -->
<g id="node5" class="node">
<title>LtiToolService</title>
<ellipse fill="#fdb462" stroke="black" cx="102" cy="-104" rx="69.5" ry="18"/>
<text text-anchor="middle" x="102" y="-99.8" font-family="Times,serif" font-size="14.00">LtiToolService</text>
</g>
<!-- LtiToolService&#45;&gt;LtiToolModule -->
<g id="edge4" class="edge">
<title>LtiToolService&#45;&gt;LtiToolModule</title>
<path fill="none" stroke="black" d="M102,-122.11C102,-141.34 102,-169 102,-169 102,-169 188.65,-169 188.65,-169"/>
<polygon fill="black" stroke="black" points="188.65,-172.5 198.65,-169 188.65,-165.5 188.65,-172.5"/>
</g>
</g>
</svg>
