<?xml version="1.0" encoding="UTF-8" standalone="no"?>
<!DOCTYPE svg PUBLIC "-//W3C//DTD SVG 1.1//EN"
 "http://www.w3.org/Graphics/SVG/1.1/DTD/svg11.dtd">
<!-- Generated by graphviz version 2.47.0 (20210316.0004)
 -->
<!-- Title: dependencies Pages: 1 -->
<svg width="1245pt" height="211pt"
 viewBox="0.00 0.00 1245.00 211.00" xmlns="http://www.w3.org/2000/svg" xmlns:xlink="http://www.w3.org/1999/xlink">
<g id="graph0" class="graph" transform="scale(1 1) rotate(0) translate(4 207)">
<title>dependencies</title>
<polygon fill="white" stroke="transparent" points="-4,4 -4,-207 1241,-207 1241,4 -4,4"/>
<text text-anchor="start" x="597.51" y="-42.4" font-family="Times-12" font-weight="bold" font-size="14.00">Legend</text>
<polygon fill="#ffffb3" stroke="transparent" points="384.5,-10 384.5,-30 404.5,-30 404.5,-10 384.5,-10"/>
<text text-anchor="start" x="408.13" y="-15.4" font-family="Times-12" font-size="14.00"> &#160;Declarations</text>
<polygon fill="#8dd3c7" stroke="transparent" points="497.5,-10 497.5,-30 517.5,-30 517.5,-10 497.5,-10"/>
<text text-anchor="start" x="521.23" y="-15.4" font-family="Times-12" font-size="14.00"> &#160;Module</text>
<polygon fill="#80b1d3" stroke="transparent" points="583.5,-10 583.5,-30 603.5,-30 603.5,-10 583.5,-10"/>
<text text-anchor="start" x="607.28" y="-15.4" font-family="Times-12" font-size="14.00"> &#160;Bootstrap</text>
<polygon fill="#fdb462" stroke="transparent" points="680.5,-10 680.5,-30 700.5,-30 700.5,-10 680.5,-10"/>
<text text-anchor="start" x="704.17" y="-15.4" font-family="Times-12" font-size="14.00"> &#160;Providers</text>
<polygon fill="#fb8072" stroke="transparent" points="776.5,-10 776.5,-30 796.5,-30 796.5,-10 776.5,-10"/>
<text text-anchor="start" x="800.23" y="-15.4" font-family="Times-12" font-size="14.00"> &#160;Exports</text>
<g id="clust1" class="cluster">
<title>cluster_TldrawModule</title>
<polygon fill="none" stroke="black" stroke-dasharray="1,5" points="8,-70 8,-195 1229,-195 1229,-70 8,-70"/>
</g>
<g id="clust3" class="cluster">
<title>cluster_TldrawModule_imports</title>
<polygon fill="none" stroke="black" points="592,-78 592,-130 1221,-130 1221,-78 592,-78"/>
</g>
<g id="clust6" class="cluster">
<title>cluster_TldrawModule_providers</title>
<polygon fill="none" stroke="black" points="16,-78 16,-130 584,-130 584,-78 16,-78"/>
</g>
<!-- AuthenticationModule -->
<g id="node1" class="node">
<title>AuthenticationModule</title>
<polygon fill="#8dd3c7" stroke="black" points="1213.25,-122 1210.25,-126 1189.25,-126 1186.25,-122 1070.75,-122 1070.75,-86 1213.25,-86 1213.25,-122"/>
<text text-anchor="middle" x="1142" y="-99.8" font-family="Times,serif" font-size="14.00">AuthenticationModule</text>
</g>
<!-- TldrawModule -->
<g id="node5" class="node">
<title>TldrawModule</title>
<polygon fill="#8dd3c7" stroke="black" points="665.97,-187 662.97,-191 641.97,-191 638.97,-187 566.03,-187 566.03,-151 665.97,-151 665.97,-187"/>
<text text-anchor="middle" x="616" y="-164.8" font-family="Times,serif" font-size="14.00">TldrawModule</text>
</g>
<!-- AuthenticationModule&#45;&gt;TldrawModule -->
<g id="edge1" class="edge">
<title>AuthenticationModule&#45;&gt;TldrawModule</title>
<path fill="none" stroke="black" d="M1142,-122.29C1142,-144.21 1142,-178 1142,-178 1142,-178 676.44,-178 676.44,-178"/>
<polygon fill="black" stroke="black" points="676.44,-174.5 666.44,-178 676.44,-181.5 676.44,-174.5"/>
</g>
<!-- AuthorizationModule -->
<g id="node2" class="node">
<title>AuthorizationModule</title>
<polygon fill="#8dd3c7" stroke="black" points="1052.81,-122 1049.81,-126 1028.81,-126 1025.81,-122 915.19,-122 915.19,-86 1052.81,-86 1052.81,-122"/>
<text text-anchor="middle" x="984" y="-99.8" font-family="Times,serif" font-size="14.00">AuthorizationModule</text>
</g>
<!-- AuthorizationModule&#45;&gt;TldrawModule -->
<g id="edge2" class="edge">
<title>AuthorizationModule&#45;&gt;TldrawModule</title>
<path fill="none" stroke="black" d="M984,-122.11C984,-141.34 984,-169 984,-169 984,-169 676.01,-169 676.01,-169"/>
<polygon fill="black" stroke="black" points="676.01,-165.5 666.01,-169 676.01,-172.5 676.01,-165.5"/>
</g>
<!-- CoreModule -->
<g id="node3" class="node">
<title>CoreModule</title>
<polygon fill="#8dd3c7" stroke="black" points="897.26,-122 894.26,-126 873.26,-126 870.26,-122 810.74,-122 810.74,-86 897.26,-86 897.26,-122"/>
<text text-anchor="middle" x="854" y="-99.8" font-family="Times,serif" font-size="14.00">CoreModule</text>
</g>
<!-- CoreModule&#45;&gt;TldrawModule -->
<g id="edge3" class="edge">
<title>CoreModule&#45;&gt;TldrawModule</title>
<path fill="none" stroke="black" d="M854,-122.03C854,-138.4 854,-160 854,-160 854,-160 676.18,-160 676.18,-160"/>
<polygon fill="black" stroke="black" points="676.18,-156.5 666.18,-160 676.18,-163.5 676.18,-156.5"/>
</g>
<!-- RabbitMQWrapperTestModule -->
<g id="node4" class="node">
<title>RabbitMQWrapperTestModule</title>
<polygon fill="#8dd3c7" stroke="black" points="792,-122 789,-126 768,-126 765,-122 600,-122 600,-86 792,-86 792,-122"/>
<text text-anchor="middle" x="696" y="-99.8" font-family="Times,serif" font-size="14.00">RabbitMQWrapperTestModule</text>
</g>
<!-- RabbitMQWrapperTestModule&#45;&gt;TldrawModule -->
<g id="edge4" class="edge">
<title>RabbitMQWrapperTestModule&#45;&gt;TldrawModule</title>
<path fill="none" stroke="black" d="M632.87,-122.11C632.87,-122.11 632.87,-140.99 632.87,-140.99"/>
<polygon fill="black" stroke="black" points="629.37,-140.99 632.87,-150.99 636.37,-140.99 629.37,-140.99"/>
</g>
<!-- Logger -->
<g id="node6" class="node">
<title>Logger</title>
<ellipse fill="#fdb462" stroke="black" cx="537" cy="-104" rx="38.85" ry="18"/>
<text text-anchor="middle" x="537" y="-99.8" font-family="Times,serif" font-size="14.00">Logger</text>
</g>
<!-- Logger&#45;&gt;TldrawModule -->
<g id="edge5" class="edge">
<title>Logger&#45;&gt;TldrawModule</title>
<path fill="none" stroke="black" d="M570.97,-113.04C570.97,-113.04 570.97,-140.96 570.97,-140.96"/>
<polygon fill="black" stroke="black" points="567.47,-140.96 570.97,-150.96 574.47,-140.96 567.47,-140.96"/>
</g>
<!-- TldrawBoardRepo -->
<g id="node7" class="node">
<title>TldrawBoardRepo</title>
<ellipse fill="#fdb462" stroke="black" cx="397" cy="-104" rx="82.81" ry="18"/>
<text text-anchor="middle" x="397" y="-99.8" font-family="Times,serif" font-size="14.00">TldrawBoardRepo</text>
</g>
<!-- TldrawBoardRepo&#45;&gt;TldrawModule -->
<g id="edge6" class="edge">
<title>TldrawBoardRepo&#45;&gt;TldrawModule</title>
<path fill="none" stroke="black" d="M397,-122.03C397,-138.4 397,-160 397,-160 397,-160 555.76,-160 555.76,-160"/>
<polygon fill="black" stroke="black" points="555.76,-163.5 565.76,-160 555.76,-156.5 555.76,-163.5"/>
</g>
<!-- TldrawRepo -->
<g id="node8" class="node">
<title>TldrawRepo</title>
<ellipse fill="#fdb462" stroke="black" cx="237" cy="-104" rx="59.11" ry="18"/>
<text text-anchor="middle" x="237" y="-99.8" font-family="Times,serif" font-size="14.00">TldrawRepo</text>
</g>
<!-- TldrawRepo&#45;&gt;TldrawModule -->
<g id="edge7" class="edge">
<title>TldrawRepo&#45;&gt;TldrawModule</title>
<path fill="none" stroke="black" d="M237,-122.11C237,-141.34 237,-169 237,-169 237,-169 555.67,-169 555.67,-169"/>
<polygon fill="black" stroke="black" points="555.67,-172.5 565.67,-169 555.67,-165.5 555.67,-172.5"/>
</g>
<!-- TldrawService -->
<g id="node9" class="node">
<title>TldrawService</title>
<ellipse fill="#fdb462" stroke="black" cx="92" cy="-104" rx="67.75" ry="18"/>
<text text-anchor="middle" x="92" y="-99.8" font-family="Times,serif" font-size="14.00">TldrawService</text>
</g>
<!-- TldrawService&#45;&gt;TldrawModule -->
<g id="edge8" class="edge">
<title>TldrawService&#45;&gt;TldrawModule</title>
<path fill="none" stroke="black" d="M92,-122.29C92,-144.21 92,-178 92,-178 92,-178 555.76,-178 555.76,-178"/>
<polygon fill="black" stroke="black" points="555.76,-181.5 565.76,-178 555.76,-174.5 555.76,-181.5"/>
</g>
</g>
</svg>
