<?xml version="1.0" encoding="UTF-8" standalone="no"?>
<!DOCTYPE svg PUBLIC "-//W3C//DTD SVG 1.1//EN"
 "http://www.w3.org/Graphics/SVG/1.1/DTD/svg11.dtd">
<!-- Generated by graphviz version 2.47.0 (20210316.0004)
 -->
<!-- Title: dependencies Pages: 1 -->
<svg width="1371pt" height="211pt"
 viewBox="0.00 0.00 1371.00 211.00" xmlns="http://www.w3.org/2000/svg" xmlns:xlink="http://www.w3.org/1999/xlink">
<g id="graph0" class="graph" transform="scale(1 1) rotate(0) translate(4 207)">
<title>dependencies</title>
<polygon fill="white" stroke="transparent" points="-4,4 -4,-207 1367,-207 1367,4 -4,4"/>
<text text-anchor="start" x="660.51" y="-42.4" font-family="Times-12" font-weight="bold" font-size="14.00">Legend</text>
<polygon fill="#ffffb3" stroke="transparent" points="447.5,-10 447.5,-30 467.5,-30 467.5,-10 447.5,-10"/>
<text text-anchor="start" x="471.13" y="-15.4" font-family="Times-12" font-size="14.00"> &#160;Declarations</text>
<polygon fill="#8dd3c7" stroke="transparent" points="560.5,-10 560.5,-30 580.5,-30 580.5,-10 560.5,-10"/>
<text text-anchor="start" x="584.23" y="-15.4" font-family="Times-12" font-size="14.00"> &#160;Module</text>
<polygon fill="#80b1d3" stroke="transparent" points="646.5,-10 646.5,-30 666.5,-30 666.5,-10 646.5,-10"/>
<text text-anchor="start" x="670.28" y="-15.4" font-family="Times-12" font-size="14.00"> &#160;Bootstrap</text>
<polygon fill="#fdb462" stroke="transparent" points="743.5,-10 743.5,-30 763.5,-30 763.5,-10 743.5,-10"/>
<text text-anchor="start" x="767.17" y="-15.4" font-family="Times-12" font-size="14.00"> &#160;Providers</text>
<polygon fill="#fb8072" stroke="transparent" points="839.5,-10 839.5,-30 859.5,-30 859.5,-10 839.5,-10"/>
<text text-anchor="start" x="863.23" y="-15.4" font-family="Times-12" font-size="14.00"> &#160;Exports</text>
<g id="clust1" class="cluster">
<title>cluster_TldrawModule</title>
<polygon fill="none" stroke="black" stroke-dasharray="1,5" points="8,-70 8,-195 1355,-195 1355,-70 8,-70"/>
</g>
<g id="clust6" class="cluster">
<title>cluster_TldrawModule_providers</title>
<polygon fill="none" stroke="black" points="746,-78 746,-130 1347,-130 1347,-78 746,-78"/>
</g>
<g id="clust3" class="cluster">
<title>cluster_TldrawModule_imports</title>
<polygon fill="none" stroke="black" points="16,-78 16,-130 738,-130 738,-78 16,-78"/>
</g>
<!-- AuthenticationModule -->
<g id="node1" class="node">
<title>AuthenticationModule</title>
<polygon fill="#8dd3c7" stroke="black" points="730.25,-122 727.25,-126 706.25,-126 703.25,-122 587.75,-122 587.75,-86 730.25,-86 730.25,-122"/>
<text text-anchor="middle" x="659" y="-99.8" font-family="Times,serif" font-size="14.00">AuthenticationModule</text>
</g>
<!-- TldrawModule -->
<g id="node6" class="node">
<title>TldrawModule</title>
<polygon fill="#8dd3c7" stroke="black" points="708.97,-187 705.97,-191 684.97,-191 681.97,-187 609.03,-187 609.03,-151 708.97,-151 708.97,-187"/>
<text text-anchor="middle" x="659" y="-164.8" font-family="Times,serif" font-size="14.00">TldrawModule</text>
</g>
<!-- AuthenticationModule&#45;&gt;TldrawModule -->
<g id="edge1" class="edge">
<title>AuthenticationModule&#45;&gt;TldrawModule</title>
<path fill="none" stroke="black" d="M659,-122.11C659,-122.11 659,-140.99 659,-140.99"/>
<polygon fill="black" stroke="black" points="655.5,-140.99 659,-150.99 662.5,-140.99 655.5,-140.99"/>
</g>
<!-- AuthorizationModule -->
<g id="node2" class="node">
<title>AuthorizationModule</title>
<polygon fill="#8dd3c7" stroke="black" points="569.81,-122 566.81,-126 545.81,-126 542.81,-122 432.19,-122 432.19,-86 569.81,-86 569.81,-122"/>
<text text-anchor="middle" x="501" y="-99.8" font-family="Times,serif" font-size="14.00">AuthorizationModule</text>
</g>
<!-- AuthorizationModule&#45;&gt;TldrawModule -->
<g id="edge2" class="edge">
<title>AuthorizationModule&#45;&gt;TldrawModule</title>
<path fill="none" stroke="black" d="M501,-122.01C501,-138.05 501,-159 501,-159 501,-159 599.01,-159 599.01,-159"/>
<polygon fill="black" stroke="black" points="599.01,-162.5 609.01,-159 599.01,-155.5 599.01,-162.5"/>
</g>
<!-- CoreModule -->
<g id="node3" class="node">
<title>CoreModule</title>
<polygon fill="#8dd3c7" stroke="black" points="414.26,-122 411.26,-126 390.26,-126 387.26,-122 327.74,-122 327.74,-86 414.26,-86 414.26,-122"/>
<text text-anchor="middle" x="371" y="-99.8" font-family="Times,serif" font-size="14.00">CoreModule</text>
</g>
<!-- CoreModule&#45;&gt;TldrawModule -->
<g id="edge3" class="edge">
<title>CoreModule&#45;&gt;TldrawModule</title>
<path fill="none" stroke="black" d="M371,-122.27C371,-140.56 371,-166 371,-166 371,-166 598.83,-166 598.83,-166"/>
<polygon fill="black" stroke="black" points="598.83,-169.5 608.83,-166 598.83,-162.5 598.83,-169.5"/>
</g>
<!-- LoggerModule -->
<g id="node4" class="node">
<title>LoggerModule</title>
<polygon fill="#8dd3c7" stroke="black" points="309.98,-122 306.98,-126 285.98,-126 282.98,-122 210.02,-122 210.02,-86 309.98,-86 309.98,-122"/>
<text text-anchor="middle" x="260" y="-99.8" font-family="Times,serif" font-size="14.00">LoggerModule</text>
</g>
<!-- LoggerModule&#45;&gt;TldrawModule -->
<g id="edge4" class="edge">
<title>LoggerModule&#45;&gt;TldrawModule</title>
<path fill="none" stroke="black" d="M260,-122.13C260,-142.57 260,-173 260,-173 260,-173 598.87,-173 598.87,-173"/>
<polygon fill="black" stroke="black" points="598.87,-176.5 608.87,-173 598.87,-169.5 598.87,-176.5"/>
</g>
<!-- RabbitMQWrapperModule -->
<g id="node5" class="node">
<title>RabbitMQWrapperModule</title>
<polygon fill="#8dd3c7" stroke="black" points="192.4,-122 189.4,-126 168.4,-126 165.4,-122 23.6,-122 23.6,-86 192.4,-86 192.4,-122"/>
<text text-anchor="middle" x="108" y="-99.8" font-family="Times,serif" font-size="14.00">RabbitMQWrapperModule</text>
</g>
<!-- RabbitMQWrapperModule&#45;&gt;TldrawModule -->
<g id="edge5" class="edge">
<title>RabbitMQWrapperModule&#45;&gt;TldrawModule</title>
<path fill="none" stroke="black" d="M108,-122.01C108,-144.49 108,-180 108,-180 108,-180 598.64,-180 598.64,-180"/>
<polygon fill="black" stroke="black" points="598.64,-183.5 608.64,-180 598.64,-176.5 598.64,-183.5"/>
</g>
<!-- TldrawBoardRepo -->
<g id="node7" class="node">
<title>TldrawBoardRepo</title>
<ellipse fill="#fdb462" stroke="black" cx="1256" cy="-104" rx="82.81" ry="18"/>
<text text-anchor="middle" x="1256" y="-99.8" font-family="Times,serif" font-size="14.00">TldrawBoardRepo</text>
</g>
<!-- TldrawBoardRepo&#45;&gt;TldrawModule -->
<g id="edge6" class="edge">
<title>TldrawBoardRepo&#45;&gt;TldrawModule</title>
<path fill="none" stroke="black" d="M1256,-122.01C1256,-144.49 1256,-180 1256,-180 1256,-180 719.13,-180 719.13,-180"/>
<polygon fill="black" stroke="black" points="719.13,-176.5 709.13,-180 719.13,-183.5 719.13,-176.5"/>
</g>
<!-- TldrawRepo -->
<g id="node8" class="node">
<title>TldrawRepo</title>
<ellipse fill="#fdb462" stroke="black" cx="1096" cy="-104" rx="59.11" ry="18"/>
<text text-anchor="middle" x="1096" y="-99.8" font-family="Times,serif" font-size="14.00">TldrawRepo</text>
</g>
<!-- TldrawRepo&#45;&gt;TldrawModule -->
<g id="edge7" class="edge">
<title>TldrawRepo&#45;&gt;TldrawModule</title>
<path fill="none" stroke="black" d="M1096,-122.13C1096,-142.57 1096,-173 1096,-173 1096,-173 719.13,-173 719.13,-173"/>
<polygon fill="black" stroke="black" points="719.13,-169.5 709.13,-173 719.13,-176.5 719.13,-169.5"/>
</g>
<!-- TldrawService -->
<g id="node9" class="node">
<title>TldrawService</title>
<ellipse fill="#fdb462" stroke="black" cx="951" cy="-104" rx="67.75" ry="18"/>
<text text-anchor="middle" x="951" y="-99.8" font-family="Times,serif" font-size="14.00">TldrawService</text>
</g>
<!-- TldrawService&#45;&gt;TldrawModule -->
<g id="edge8" class="edge">
<title>TldrawService&#45;&gt;TldrawModule</title>
<path fill="none" stroke="black" d="M951,-122.27C951,-140.56 951,-166 951,-166 951,-166 719.2,-166 719.2,-166"/>
<polygon fill="black" stroke="black" points="719.2,-162.5 709.2,-166 719.2,-169.5 719.2,-162.5"/>
</g>
<!-- YMongodb -->
<g id="node10" class="node">
<title>YMongodb</title>
<ellipse fill="#fdb462" stroke="black" cx="810" cy="-104" rx="55.63" ry="18"/>
<text text-anchor="middle" x="810" y="-99.8" font-family="Times,serif" font-size="14.00">YMongodb</text>
</g>
<!-- YMongodb&#45;&gt;TldrawModule -->
<g id="edge9" class="edge">
<title>YMongodb&#45;&gt;TldrawModule</title>
<path fill="none" stroke="black" d="M810,-122.01C810,-138.05 810,-159 810,-159 810,-159 719.28,-159 719.28,-159"/>
<polygon fill="black" stroke="black" points="719.28,-155.5 709.28,-159 719.28,-162.5 719.28,-155.5"/>
</g>
</g>
</svg>
