<?xml version="1.0" encoding="UTF-8" standalone="no"?>
<!DOCTYPE svg PUBLIC "-//W3C//DTD SVG 1.1//EN"
 "http://www.w3.org/Graphics/SVG/1.1/DTD/svg11.dtd">
<!-- Generated by graphviz version 2.47.0 (20210316.0004)
 -->
<!-- Title: dependencies Pages: 1 -->
<svg width="1245pt" height="211pt"
 viewBox="0.00 0.00 1245.00 211.00" xmlns="http://www.w3.org/2000/svg" xmlns:xlink="http://www.w3.org/1999/xlink">
<g id="graph0" class="graph" transform="scale(1 1) rotate(0) translate(4 207)">
<title>dependencies</title>
<polygon fill="white" stroke="transparent" points="-4,4 -4,-207 1241,-207 1241,4 -4,4"/>
<text text-anchor="start" x="597.51" y="-42.4" font-family="Times-12" font-weight="bold" font-size="14.00">Legend</text>
<polygon fill="#ffffb3" stroke="transparent" points="384.5,-10 384.5,-30 404.5,-30 404.5,-10 384.5,-10"/>
<text text-anchor="start" x="408.13" y="-15.4" font-family="Times-12" font-size="14.00"> &#160;Declarations</text>
<polygon fill="#8dd3c7" stroke="transparent" points="497.5,-10 497.5,-30 517.5,-30 517.5,-10 497.5,-10"/>
<text text-anchor="start" x="521.23" y="-15.4" font-family="Times-12" font-size="14.00"> &#160;Module</text>
<polygon fill="#80b1d3" stroke="transparent" points="583.5,-10 583.5,-30 603.5,-30 603.5,-10 583.5,-10"/>
<text text-anchor="start" x="607.28" y="-15.4" font-family="Times-12" font-size="14.00"> &#160;Bootstrap</text>
<polygon fill="#fdb462" stroke="transparent" points="680.5,-10 680.5,-30 700.5,-30 700.5,-10 680.5,-10"/>
<text text-anchor="start" x="704.17" y="-15.4" font-family="Times-12" font-size="14.00"> &#160;Providers</text>
<polygon fill="#fb8072" stroke="transparent" points="776.5,-10 776.5,-30 796.5,-30 796.5,-10 776.5,-10"/>
<text text-anchor="start" x="800.23" y="-15.4" font-family="Times-12" font-size="14.00"> &#160;Exports</text>
<g id="clust1" class="cluster">
<title>cluster_TldrawModule</title>
<polygon fill="none" stroke="black" stroke-dasharray="1,5" points="8,-70 8,-195 1229,-195 1229,-70 8,-70"/>
</g>
<g id="clust6" class="cluster">
<title>cluster_TldrawModule_providers</title>
<polygon fill="none" stroke="black" points="653,-78 653,-130 1221,-130 1221,-78 653,-78"/>
</g>
<g id="clust3" class="cluster">
<title>cluster_TldrawModule_imports</title>
<polygon fill="none" stroke="black" points="16,-78 16,-130 645,-130 645,-78 16,-78"/>
</g>
<!-- AuthenticationModule -->
<g id="node1" class="node">
<title>AuthenticationModule</title>
<polygon fill="#8dd3c7" stroke="black" points="637.25,-122 634.25,-126 613.25,-126 610.25,-122 494.75,-122 494.75,-86 637.25,-86 637.25,-122"/>
<text text-anchor="middle" x="566" y="-99.8" font-family="Times,serif" font-size="14.00">AuthenticationModule</text>
</g>
<!-- TldrawModule -->
<g id="node5" class="node">
<title>TldrawModule</title>
<polygon fill="#8dd3c7" stroke="black" points="696.97,-187 693.97,-191 672.97,-191 669.97,-187 597.03,-187 597.03,-151 696.97,-151 696.97,-187"/>
<text text-anchor="middle" x="647" y="-164.8" font-family="Times,serif" font-size="14.00">TldrawModule</text>
</g>
<!-- AuthenticationModule&#45;&gt;TldrawModule -->
<g id="edge1" class="edge">
<title>AuthenticationModule&#45;&gt;TldrawModule</title>
<path fill="none" stroke="black" d="M617.19,-122.11C617.19,-122.11 617.19,-140.99 617.19,-140.99"/>
<polygon fill="black" stroke="black" points="613.69,-140.99 617.19,-150.99 620.69,-140.99 613.69,-140.99"/>
</g>
<!-- AuthorizationModule -->
<g id="node2" class="node">
<title>AuthorizationModule</title>
<polygon fill="#8dd3c7" stroke="black" points="476.81,-122 473.81,-126 452.81,-126 449.81,-122 339.19,-122 339.19,-86 476.81,-86 476.81,-122"/>
<text text-anchor="middle" x="408" y="-99.8" font-family="Times,serif" font-size="14.00">AuthorizationModule</text>
</g>
<!-- AuthorizationModule&#45;&gt;TldrawModule -->
<g id="edge2" class="edge">
<title>AuthorizationModule&#45;&gt;TldrawModule</title>
<path fill="none" stroke="black" d="M408,-122.03C408,-138.4 408,-160 408,-160 408,-160 586.9,-160 586.9,-160"/>
<polygon fill="black" stroke="black" points="586.9,-163.5 596.9,-160 586.9,-156.5 586.9,-163.5"/>
</g>
<!-- CoreModule -->
<g id="node3" class="node">
<title>CoreModule</title>
<polygon fill="#8dd3c7" stroke="black" points="321.26,-122 318.26,-126 297.26,-126 294.26,-122 234.74,-122 234.74,-86 321.26,-86 321.26,-122"/>
<text text-anchor="middle" x="278" y="-99.8" font-family="Times,serif" font-size="14.00">CoreModule</text>
</g>
<!-- CoreModule&#45;&gt;TldrawModule -->
<g id="edge3" class="edge">
<title>CoreModule&#45;&gt;TldrawModule</title>
<path fill="none" stroke="black" d="M278,-122.11C278,-141.34 278,-169 278,-169 278,-169 586.85,-169 586.85,-169"/>
<polygon fill="black" stroke="black" points="586.85,-172.5 596.85,-169 586.85,-165.5 586.85,-172.5"/>
</g>
<!-- RabbitMQWrapperTestModule -->
<g id="node4" class="node">
<title>RabbitMQWrapperTestModule</title>
<polygon fill="#8dd3c7" stroke="black" points="216,-122 213,-126 192,-126 189,-122 24,-122 24,-86 216,-86 216,-122"/>
<text text-anchor="middle" x="120" y="-99.8" font-family="Times,serif" font-size="14.00">RabbitMQWrapperTestModule</text>
</g>
<!-- RabbitMQWrapperTestModule&#45;&gt;TldrawModule -->
<g id="edge4" class="edge">
<title>RabbitMQWrapperTestModule&#45;&gt;TldrawModule</title>
<path fill="none" stroke="black" d="M120,-122.29C120,-144.21 120,-178 120,-178 120,-178 586.95,-178 586.95,-178"/>
<polygon fill="black" stroke="black" points="586.95,-181.5 596.95,-178 586.95,-174.5 586.95,-181.5"/>
</g>
<!-- Logger -->
<g id="node6" class="node">
<title>Logger</title>
<ellipse fill="#fdb462" stroke="black" cx="1174" cy="-104" rx="38.85" ry="18"/>
<text text-anchor="middle" x="1174" y="-99.8" font-family="Times,serif" font-size="14.00">Logger</text>
</g>
<!-- Logger&#45;&gt;TldrawModule -->
<g id="edge5" class="edge">
<title>Logger&#45;&gt;TldrawModule</title>
<path fill="none" stroke="black" d="M1174,-122.29C1174,-144.21 1174,-178 1174,-178 1174,-178 707.05,-178 707.05,-178"/>
<polygon fill="black" stroke="black" points="707.05,-174.5 697.05,-178 707.05,-181.5 707.05,-174.5"/>
</g>
<!-- TldrawBoardRepo -->
<g id="node7" class="node">
<title>TldrawBoardRepo</title>
<ellipse fill="#fdb462" stroke="black" cx="1034" cy="-104" rx="82.81" ry="18"/>
<text text-anchor="middle" x="1034" y="-99.8" font-family="Times,serif" font-size="14.00">TldrawBoardRepo</text>
</g>
<!-- TldrawBoardRepo&#45;&gt;TldrawModule -->
<g id="edge6" class="edge">
<title>TldrawBoardRepo&#45;&gt;TldrawModule</title>
<path fill="none" stroke="black" d="M1034,-122.11C1034,-141.34 1034,-169 1034,-169 1034,-169 707.2,-169 707.2,-169"/>
<polygon fill="black" stroke="black" points="707.2,-165.5 697.2,-169 707.2,-172.5 707.2,-165.5"/>
</g>
<!-- TldrawRepo -->
<g id="node8" class="node">
<title>TldrawRepo</title>
<ellipse fill="#fdb462" stroke="black" cx="874" cy="-104" rx="59.11" ry="18"/>
<text text-anchor="middle" x="874" y="-99.8" font-family="Times,serif" font-size="14.00">TldrawRepo</text>
</g>
<!-- TldrawRepo&#45;&gt;TldrawModule -->
<g id="edge7" class="edge">
<title>TldrawRepo&#45;&gt;TldrawModule</title>
<path fill="none" stroke="black" d="M874,-122.03C874,-138.4 874,-160 874,-160 874,-160 707.1,-160 707.1,-160"/>
<polygon fill="black" stroke="black" points="707.1,-156.5 697.1,-160 707.1,-163.5 707.1,-156.5"/>
</g>
<!-- TldrawService -->
<g id="node9" class="node">
<title>TldrawService</title>
<ellipse fill="#fdb462" stroke="black" cx="729" cy="-104" rx="67.75" ry="18"/>
<text text-anchor="middle" x="729" y="-99.8" font-family="Times,serif" font-size="14.00">TldrawService</text>
</g>
<!-- TldrawService&#45;&gt;TldrawModule -->
<g id="edge8" class="edge">
<title>TldrawService&#45;&gt;TldrawModule</title>
<path fill="none" stroke="black" d="M679.06,-116.23C679.06,-116.23 679.06,-140.68 679.06,-140.68"/>
<polygon fill="black" stroke="black" points="675.56,-140.68 679.06,-150.68 682.56,-140.68 675.56,-140.68"/>
</g>
</g>
</svg>
