<?xml version="1.0" encoding="UTF-8" standalone="no"?>
<!DOCTYPE svg PUBLIC "-//W3C//DTD SVG 1.1//EN"
 "http://www.w3.org/Graphics/SVG/1.1/DTD/svg11.dtd">
<!-- Generated by graphviz version 2.47.0 (20210316.0004)
 -->
<!-- Title: dependencies Pages: 1 -->
<svg width="1030pt" height="211pt"
 viewBox="0.00 0.00 1030.00 211.00" xmlns="http://www.w3.org/2000/svg" xmlns:xlink="http://www.w3.org/1999/xlink">
<g id="graph0" class="graph" transform="scale(1 1) rotate(0) translate(4 207)">
<title>dependencies</title>
<polygon fill="white" stroke="transparent" points="-4,4 -4,-207 1026,-207 1026,4 -4,4"/>
<text text-anchor="start" x="490.01" y="-42.4" font-family="Times-12" font-weight="bold" font-size="14.00">Legend</text>
<polygon fill="#ffffb3" stroke="transparent" points="277,-10 277,-30 297,-30 297,-10 277,-10"/>
<text text-anchor="start" x="300.63" y="-15.4" font-family="Times-12" font-size="14.00"> &#160;Declarations</text>
<polygon fill="#8dd3c7" stroke="transparent" points="390,-10 390,-30 410,-30 410,-10 390,-10"/>
<text text-anchor="start" x="413.73" y="-15.4" font-family="Times-12" font-size="14.00"> &#160;Module</text>
<polygon fill="#80b1d3" stroke="transparent" points="476,-10 476,-30 496,-30 496,-10 476,-10"/>
<text text-anchor="start" x="499.78" y="-15.4" font-family="Times-12" font-size="14.00"> &#160;Bootstrap</text>
<polygon fill="#fdb462" stroke="transparent" points="573,-10 573,-30 593,-30 593,-10 573,-10"/>
<text text-anchor="start" x="596.67" y="-15.4" font-family="Times-12" font-size="14.00"> &#160;Providers</text>
<polygon fill="#fb8072" stroke="transparent" points="669,-10 669,-30 689,-30 689,-10 669,-10"/>
<text text-anchor="start" x="692.73" y="-15.4" font-family="Times-12" font-size="14.00"> &#160;Exports</text>
<g id="clust1" class="cluster">
<title>cluster_TldrawModule</title>
<polygon fill="none" stroke="black" stroke-dasharray="1,5" points="8,-70 8,-195 1014,-195 1014,-70 8,-70"/>
</g>
<g id="clust3" class="cluster">
<title>cluster_TldrawModule_imports</title>
<polygon fill="none" stroke="black" points="625,-78 625,-130 1006,-130 1006,-78 625,-78"/>
</g>
<g id="clust6" class="cluster">
<title>cluster_TldrawModule_providers</title>
<polygon fill="none" stroke="black" points="16,-78 16,-130 617,-130 617,-78 16,-78"/>
</g>
<!-- AuthenticationModule -->
<g id="node1" class="node">
<title>AuthenticationModule</title>
<polygon fill="#8dd3c7" stroke="black" points="998.25,-122 995.25,-126 974.25,-126 971.25,-122 855.75,-122 855.75,-86 998.25,-86 998.25,-122"/>
<text text-anchor="middle" x="927" y="-99.8" font-family="Times,serif" font-size="14.00">AuthenticationModule</text>
</g>
<!-- TldrawModule -->
<g id="node4" class="node">
<title>TldrawModule</title>
<polygon fill="#8dd3c7" stroke="black" points="575.97,-187 572.97,-191 551.97,-191 548.97,-187 476.03,-187 476.03,-151 575.97,-151 575.97,-187"/>
<text text-anchor="middle" x="526" y="-164.8" font-family="Times,serif" font-size="14.00">TldrawModule</text>
</g>
<!-- AuthenticationModule&#45;&gt;TldrawModule -->
<g id="edge1" class="edge">
<title>AuthenticationModule&#45;&gt;TldrawModule</title>
<path fill="none" stroke="black" d="M927,-122.29C927,-144.21 927,-178 927,-178 927,-178 585.98,-178 585.98,-178"/>
<polygon fill="black" stroke="black" points="585.98,-174.5 575.98,-178 585.98,-181.5 585.98,-174.5"/>
</g>
<!-- CoreModule -->
<g id="node2" class="node">
<title>CoreModule</title>
<polygon fill="#8dd3c7" stroke="black" points="837.26,-122 834.26,-126 813.26,-126 810.26,-122 750.74,-122 750.74,-86 837.26,-86 837.26,-122"/>
<text text-anchor="middle" x="794" y="-99.8" font-family="Times,serif" font-size="14.00">CoreModule</text>
</g>
<!-- CoreModule&#45;&gt;TldrawModule -->
<g id="edge2" class="edge">
<title>CoreModule&#45;&gt;TldrawModule</title>
<path fill="none" stroke="black" d="M794,-122.11C794,-141.34 794,-169 794,-169 794,-169 586.09,-169 586.09,-169"/>
<polygon fill="black" stroke="black" points="586.09,-165.5 576.09,-169 586.09,-172.5 586.09,-165.5"/>
</g>
<!-- LoggerModule -->
<g id="node3" class="node">
<title>LoggerModule</title>
<polygon fill="#8dd3c7" stroke="black" points="732.98,-122 729.98,-126 708.98,-126 705.98,-122 633.02,-122 633.02,-86 732.98,-86 732.98,-122"/>
<text text-anchor="middle" x="683" y="-99.8" font-family="Times,serif" font-size="14.00">LoggerModule</text>
</g>
<!-- LoggerModule&#45;&gt;TldrawModule -->
<g id="edge3" class="edge">
<title>LoggerModule&#45;&gt;TldrawModule</title>
<path fill="none" stroke="black" d="M683,-122.03C683,-138.4 683,-160 683,-160 683,-160 586.11,-160 586.11,-160"/>
<polygon fill="black" stroke="black" points="586.11,-156.5 576.11,-160 586.11,-163.5 586.11,-156.5"/>
</g>
<!-- TldrawBoardRepo -->
<g id="node5" class="node">
<title>TldrawBoardRepo</title>
<ellipse fill="#fdb462" stroke="black" cx="526" cy="-104" rx="82.81" ry="18"/>
<text text-anchor="middle" x="526" y="-99.8" font-family="Times,serif" font-size="14.00">TldrawBoardRepo</text>
</g>
<!-- TldrawBoardRepo&#45;&gt;TldrawModule -->
<g id="edge4" class="edge">
<title>TldrawBoardRepo&#45;&gt;TldrawModule</title>
<path fill="none" stroke="black" d="M526,-122.11C526,-122.11 526,-140.99 526,-140.99"/>
<polygon fill="black" stroke="black" points="522.5,-140.99 526,-150.99 529.5,-140.99 522.5,-140.99"/>
</g>
<!-- TldrawRepo -->
<g id="node6" class="node">
<title>TldrawRepo</title>
<ellipse fill="#fdb462" stroke="black" cx="366" cy="-104" rx="59.11" ry="18"/>
<text text-anchor="middle" x="366" y="-99.8" font-family="Times,serif" font-size="14.00">TldrawRepo</text>
</g>
<!-- TldrawRepo&#45;&gt;TldrawModule -->
<g id="edge5" class="edge">
<title>TldrawRepo&#45;&gt;TldrawModule</title>
<path fill="none" stroke="black" d="M366,-122.03C366,-138.4 366,-160 366,-160 366,-160 465.81,-160 465.81,-160"/>
<polygon fill="black" stroke="black" points="465.81,-163.5 475.81,-160 465.81,-156.5 465.81,-163.5"/>
</g>
<!-- TldrawService -->
<g id="node7" class="node">
<title>TldrawService</title>
<ellipse fill="#fdb462" stroke="black" cx="221" cy="-104" rx="67.75" ry="18"/>
<text text-anchor="middle" x="221" y="-99.8" font-family="Times,serif" font-size="14.00">TldrawService</text>
</g>
<!-- TldrawService&#45;&gt;TldrawModule -->
<g id="edge6" class="edge">
<title>TldrawService&#45;&gt;TldrawModule</title>
<path fill="none" stroke="black" d="M221,-122.11C221,-141.34 221,-169 221,-169 221,-169 465.98,-169 465.98,-169"/>
<polygon fill="black" stroke="black" points="465.98,-172.5 475.98,-169 465.98,-165.5 465.98,-172.5"/>
</g>
<!-- YMongodb -->
<g id="node8" class="node">
<title>YMongodb</title>
<ellipse fill="#fdb462" stroke="black" cx="80" cy="-104" rx="55.63" ry="18"/>
<text text-anchor="middle" x="80" y="-99.8" font-family="Times,serif" font-size="14.00">YMongodb</text>
</g>
<!-- YMongodb&#45;&gt;TldrawModule -->
<g id="edge7" class="edge">
<title>YMongodb&#45;&gt;TldrawModule</title>
<path fill="none" stroke="black" d="M80,-122.29C80,-144.21 80,-178 80,-178 80,-178 465.71,-178 465.71,-178"/>
<polygon fill="black" stroke="black" points="465.71,-181.5 475.71,-178 465.71,-174.5 465.71,-181.5"/>
</g>
</g>
</svg>
