<?xml version="1.0" encoding="UTF-8" standalone="no"?>
<!DOCTYPE svg PUBLIC "-//W3C//DTD SVG 1.1//EN"
 "http://www.w3.org/Graphics/SVG/1.1/DTD/svg11.dtd">
<!-- Generated by graphviz version 2.47.0 (20210316.0004)
 -->
<!-- Title: dependencies Pages: 1 -->
<svg width="1049pt" height="211pt"
 viewBox="0.00 0.00 1049.00 211.00" xmlns="http://www.w3.org/2000/svg" xmlns:xlink="http://www.w3.org/1999/xlink">
<g id="graph0" class="graph" transform="scale(1 1) rotate(0) translate(4 207)">
<title>dependencies</title>
<polygon fill="white" stroke="transparent" points="-4,4 -4,-207 1045,-207 1045,4 -4,4"/>
<text text-anchor="start" x="499.51" y="-42.4" font-family="Times-12" font-weight="bold" font-size="14.00">Legend</text>
<polygon fill="#ffffb3" stroke="transparent" points="286.5,-10 286.5,-30 306.5,-30 306.5,-10 286.5,-10"/>
<text text-anchor="start" x="310.13" y="-15.4" font-family="Times-12" font-size="14.00"> &#160;Declarations</text>
<polygon fill="#8dd3c7" stroke="transparent" points="399.5,-10 399.5,-30 419.5,-30 419.5,-10 399.5,-10"/>
<text text-anchor="start" x="423.23" y="-15.4" font-family="Times-12" font-size="14.00"> &#160;Module</text>
<polygon fill="#80b1d3" stroke="transparent" points="485.5,-10 485.5,-30 505.5,-30 505.5,-10 485.5,-10"/>
<text text-anchor="start" x="509.28" y="-15.4" font-family="Times-12" font-size="14.00"> &#160;Bootstrap</text>
<polygon fill="#fdb462" stroke="transparent" points="582.5,-10 582.5,-30 602.5,-30 602.5,-10 582.5,-10"/>
<text text-anchor="start" x="606.17" y="-15.4" font-family="Times-12" font-size="14.00"> &#160;Providers</text>
<polygon fill="#fb8072" stroke="transparent" points="678.5,-10 678.5,-30 698.5,-30 698.5,-10 678.5,-10"/>
<text text-anchor="start" x="702.23" y="-15.4" font-family="Times-12" font-size="14.00"> &#160;Exports</text>
<g id="clust1" class="cluster">
<title>cluster_TldrawModule</title>
<polygon fill="none" stroke="black" stroke-dasharray="1,5" points="8,-70 8,-195 1033,-195 1033,-70 8,-70"/>
</g>
<g id="clust6" class="cluster">
<title>cluster_TldrawModule_providers</title>
<polygon fill="none" stroke="black" points="244,-78 244,-130 1025,-130 1025,-78 244,-78"/>
</g>
<g id="clust3" class="cluster">
<title>cluster_TldrawModule_imports</title>
<polygon fill="none" stroke="black" points="16,-78 16,-130 236,-130 236,-78 16,-78"/>
</g>
<!-- CoreModule -->
<g id="node1" class="node">
<title>CoreModule</title>
<polygon fill="#8dd3c7" stroke="black" points="228.26,-122 225.26,-126 204.26,-126 201.26,-122 141.74,-122 141.74,-86 228.26,-86 228.26,-122"/>
<text text-anchor="middle" x="185" y="-99.8" font-family="Times,serif" font-size="14.00">CoreModule</text>
</g>
<!-- TldrawModule -->
<g id="node3" class="node">
<title>TldrawModule</title>
<polygon fill="#8dd3c7" stroke="black" points="511.97,-187 508.97,-191 487.97,-191 484.97,-187 412.03,-187 412.03,-151 511.97,-151 511.97,-187"/>
<text text-anchor="middle" x="462" y="-164.8" font-family="Times,serif" font-size="14.00">TldrawModule</text>
</g>
<!-- CoreModule&#45;&gt;TldrawModule -->
<g id="edge1" class="edge">
<title>CoreModule&#45;&gt;TldrawModule</title>
<path fill="none" stroke="black" d="M185,-122.11C185,-141.34 185,-169 185,-169 185,-169 401.84,-169 401.84,-169"/>
<polygon fill="black" stroke="black" points="401.84,-172.5 411.84,-169 401.84,-165.5 401.84,-172.5"/>
</g>
<!-- LoggerModule -->
<g id="node2" class="node">
<title>LoggerModule</title>
<polygon fill="#8dd3c7" stroke="black" points="123.98,-122 120.98,-126 99.98,-126 96.98,-122 24.02,-122 24.02,-86 123.98,-86 123.98,-122"/>
<text text-anchor="middle" x="74" y="-99.8" font-family="Times,serif" font-size="14.00">LoggerModule</text>
</g>
<!-- LoggerModule&#45;&gt;TldrawModule -->
<g id="edge2" class="edge">
<title>LoggerModule&#45;&gt;TldrawModule</title>
<path fill="none" stroke="black" d="M74,-122.29C74,-144.21 74,-178 74,-178 74,-178 401.67,-178 401.67,-178"/>
<polygon fill="black" stroke="black" points="401.67,-181.5 411.67,-178 401.67,-174.5 401.67,-181.5"/>
</g>
<!-- TldrawBoardRepo -->
<g id="node4" class="node">
<title>TldrawBoardRepo</title>
<ellipse fill="#fdb462" stroke="black" cx="934" cy="-104" rx="82.81" ry="18"/>
<text text-anchor="middle" x="934" y="-99.8" font-family="Times,serif" font-size="14.00">TldrawBoardRepo</text>
</g>
<!-- TldrawBoardRepo&#45;&gt;TldrawModule -->
<g id="edge3" class="edge">
<title>TldrawBoardRepo&#45;&gt;TldrawModule</title>
<path fill="none" stroke="black" d="M934,-122.29C934,-144.21 934,-178 934,-178 934,-178 522.07,-178 522.07,-178"/>
<polygon fill="black" stroke="black" points="522.07,-174.5 512.07,-178 522.07,-181.5 522.07,-174.5"/>
</g>
<!-- TldrawRepo -->
<g id="node5" class="node">
<title>TldrawRepo</title>
<ellipse fill="#fdb462" stroke="black" cx="774" cy="-104" rx="59.11" ry="18"/>
<text text-anchor="middle" x="774" y="-99.8" font-family="Times,serif" font-size="14.00">TldrawRepo</text>
</g>
<!-- TldrawRepo&#45;&gt;TldrawModule -->
<g id="edge4" class="edge">
<title>TldrawRepo&#45;&gt;TldrawModule</title>
<path fill="none" stroke="black" d="M774,-122.11C774,-141.34 774,-169 774,-169 774,-169 522.13,-169 522.13,-169"/>
<polygon fill="black" stroke="black" points="522.13,-165.5 512.13,-169 522.13,-172.5 522.13,-165.5"/>
</g>
<!-- TldrawService -->
<g id="node6" class="node">
<title>TldrawService</title>
<ellipse fill="#fdb462" stroke="black" cx="629" cy="-104" rx="67.75" ry="18"/>
<text text-anchor="middle" x="629" y="-99.8" font-family="Times,serif" font-size="14.00">TldrawService</text>
</g>
<!-- TldrawService&#45;&gt;TldrawModule -->
<g id="edge5" class="edge">
<title>TldrawService&#45;&gt;TldrawModule</title>
<path fill="none" stroke="black" d="M629,-122.03C629,-138.4 629,-160 629,-160 629,-160 522.11,-160 522.11,-160"/>
<polygon fill="black" stroke="black" points="522.11,-156.5 512.11,-160 522.11,-163.5 522.11,-156.5"/>
</g>
<!-- XApiKeyStrategy -->
<g id="node7" class="node">
<title>XApiKeyStrategy</title>
<ellipse fill="#fdb462" stroke="black" cx="462" cy="-104" rx="80.52" ry="18"/>
<text text-anchor="middle" x="462" y="-99.8" font-family="Times,serif" font-size="14.00">XApiKeyStrategy</text>
</g>
<!-- XApiKeyStrategy&#45;&gt;TldrawModule -->
<g id="edge6" class="edge">
<title>XApiKeyStrategy&#45;&gt;TldrawModule</title>
<path fill="none" stroke="black" d="M462,-122.11C462,-122.11 462,-140.99 462,-140.99"/>
<polygon fill="black" stroke="black" points="458.5,-140.99 462,-150.99 465.5,-140.99 458.5,-140.99"/>
</g>
<!-- YMongodb -->
<g id="node8" class="node">
<title>YMongodb</title>
<ellipse fill="#fdb462" stroke="black" cx="308" cy="-104" rx="55.63" ry="18"/>
<text text-anchor="middle" x="308" y="-99.8" font-family="Times,serif" font-size="14.00">YMongodb</text>
</g>
<!-- YMongodb&#45;&gt;TldrawModule -->
<g id="edge7" class="edge">
<title>YMongodb&#45;&gt;TldrawModule</title>
<path fill="none" stroke="black" d="M308,-122.03C308,-138.4 308,-160 308,-160 308,-160 402,-160 402,-160"/>
<polygon fill="black" stroke="black" points="402,-163.5 412,-160 402,-156.5 402,-163.5"/>
</g>
</g>
</svg>
