<?xml version="1.0" encoding="UTF-8" standalone="no"?>
<!DOCTYPE svg PUBLIC "-//W3C//DTD SVG 1.1//EN"
 "http://www.w3.org/Graphics/SVG/1.1/DTD/svg11.dtd">
<!-- Generated by graphviz version 2.47.0 (20210316.0004)
 -->
<!-- Title: dependencies Pages: 1 -->
<svg width="1371pt" height="211pt"
 viewBox="0.00 0.00 1371.00 211.00" xmlns="http://www.w3.org/2000/svg" xmlns:xlink="http://www.w3.org/1999/xlink">
<g id="graph0" class="graph" transform="scale(1 1) rotate(0) translate(4 207)">
<title>dependencies</title>
<polygon fill="white" stroke="transparent" points="-4,4 -4,-207 1367,-207 1367,4 -4,4"/>
<text text-anchor="start" x="660.51" y="-42.4" font-family="Times-12" font-weight="bold" font-size="14.00">Legend</text>
<polygon fill="#ffffb3" stroke="transparent" points="447.5,-10 447.5,-30 467.5,-30 467.5,-10 447.5,-10"/>
<text text-anchor="start" x="471.13" y="-15.4" font-family="Times-12" font-size="14.00"> &#160;Declarations</text>
<polygon fill="#8dd3c7" stroke="transparent" points="560.5,-10 560.5,-30 580.5,-30 580.5,-10 560.5,-10"/>
<text text-anchor="start" x="584.23" y="-15.4" font-family="Times-12" font-size="14.00"> &#160;Module</text>
<polygon fill="#80b1d3" stroke="transparent" points="646.5,-10 646.5,-30 666.5,-30 666.5,-10 646.5,-10"/>
<text text-anchor="start" x="670.28" y="-15.4" font-family="Times-12" font-size="14.00"> &#160;Bootstrap</text>
<polygon fill="#fdb462" stroke="transparent" points="743.5,-10 743.5,-30 763.5,-30 763.5,-10 743.5,-10"/>
<text text-anchor="start" x="767.17" y="-15.4" font-family="Times-12" font-size="14.00"> &#160;Providers</text>
<polygon fill="#fb8072" stroke="transparent" points="839.5,-10 839.5,-30 859.5,-30 859.5,-10 839.5,-10"/>
<text text-anchor="start" x="863.23" y="-15.4" font-family="Times-12" font-size="14.00"> &#160;Exports</text>
<g id="clust1" class="cluster">
<title>cluster_TldrawModule</title>
<polygon fill="none" stroke="black" stroke-dasharray="1,5" points="8,-70 8,-195 1355,-195 1355,-70 8,-70"/>
</g>
<g id="clust3" class="cluster">
<title>cluster_TldrawModule_imports</title>
<polygon fill="none" stroke="black" points="625,-78 625,-130 1347,-130 1347,-78 625,-78"/>
</g>
<g id="clust6" class="cluster">
<title>cluster_TldrawModule_providers</title>
<polygon fill="none" stroke="black" points="16,-78 16,-130 617,-130 617,-78 16,-78"/>
</g>
<!-- AuthenticationModule -->
<g id="node1" class="node">
<title>AuthenticationModule</title>
<polygon fill="#8dd3c7" stroke="black" points="1339.25,-122 1336.25,-126 1315.25,-126 1312.25,-122 1196.75,-122 1196.75,-86 1339.25,-86 1339.25,-122"/>
<text text-anchor="middle" x="1268" y="-99.8" font-family="Times,serif" font-size="14.00">AuthenticationModule</text>
</g>
<!-- TldrawModule -->
<g id="node6" class="node">
<title>TldrawModule</title>
<polygon fill="#8dd3c7" stroke="black" points="766.97,-187 763.97,-191 742.97,-191 739.97,-187 667.03,-187 667.03,-151 766.97,-151 766.97,-187"/>
<text text-anchor="middle" x="717" y="-164.8" font-family="Times,serif" font-size="14.00">TldrawModule</text>
</g>
<!-- AuthenticationModule&#45;&gt;TldrawModule -->
<g id="edge1" class="edge">
<title>AuthenticationModule&#45;&gt;TldrawModule</title>
<path fill="none" stroke="black" d="M1268,-122.01C1268,-144.49 1268,-180 1268,-180 1268,-180 777.36,-180 777.36,-180"/>
<polygon fill="black" stroke="black" points="777.36,-176.5 767.36,-180 777.36,-183.5 777.36,-176.5"/>
</g>
<!-- AuthorizationModule -->
<g id="node2" class="node">
<title>AuthorizationModule</title>
<polygon fill="#8dd3c7" stroke="black" points="1178.81,-122 1175.81,-126 1154.81,-126 1151.81,-122 1041.19,-122 1041.19,-86 1178.81,-86 1178.81,-122"/>
<text text-anchor="middle" x="1110" y="-99.8" font-family="Times,serif" font-size="14.00">AuthorizationModule</text>
</g>
<!-- AuthorizationModule&#45;&gt;TldrawModule -->
<g id="edge2" class="edge">
<title>AuthorizationModule&#45;&gt;TldrawModule</title>
<path fill="none" stroke="black" d="M1110,-122.13C1110,-142.57 1110,-173 1110,-173 1110,-173 777.17,-173 777.17,-173"/>
<polygon fill="black" stroke="black" points="777.17,-169.5 767.17,-173 777.17,-176.5 777.17,-169.5"/>
</g>
<!-- CoreModule -->
<g id="node3" class="node">
<title>CoreModule</title>
<polygon fill="#8dd3c7" stroke="black" points="1023.26,-122 1020.26,-126 999.26,-126 996.26,-122 936.74,-122 936.74,-86 1023.26,-86 1023.26,-122"/>
<text text-anchor="middle" x="980" y="-99.8" font-family="Times,serif" font-size="14.00">CoreModule</text>
</g>
<!-- CoreModule&#45;&gt;TldrawModule -->
<g id="edge3" class="edge">
<title>CoreModule&#45;&gt;TldrawModule</title>
<path fill="none" stroke="black" d="M980,-122.27C980,-140.56 980,-166 980,-166 980,-166 777.09,-166 777.09,-166"/>
<polygon fill="black" stroke="black" points="777.09,-162.5 767.09,-166 777.09,-169.5 777.09,-162.5"/>
</g>
<!-- LoggerModule -->
<g id="node4" class="node">
<title>LoggerModule</title>
<polygon fill="#8dd3c7" stroke="black" points="918.98,-122 915.98,-126 894.98,-126 891.98,-122 819.02,-122 819.02,-86 918.98,-86 918.98,-122"/>
<text text-anchor="middle" x="869" y="-99.8" font-family="Times,serif" font-size="14.00">LoggerModule</text>
</g>
<!-- LoggerModule&#45;&gt;TldrawModule -->
<g id="edge4" class="edge">
<title>LoggerModule&#45;&gt;TldrawModule</title>
<path fill="none" stroke="black" d="M869,-122.01C869,-138.05 869,-159 869,-159 869,-159 777.19,-159 777.19,-159"/>
<polygon fill="black" stroke="black" points="777.19,-155.5 767.19,-159 777.19,-162.5 777.19,-155.5"/>
</g>
<!-- RabbitMQWrapperModule -->
<g id="node5" class="node">
<title>RabbitMQWrapperModule</title>
<polygon fill="#8dd3c7" stroke="black" points="801.4,-122 798.4,-126 777.4,-126 774.4,-122 632.6,-122 632.6,-86 801.4,-86 801.4,-122"/>
<text text-anchor="middle" x="717" y="-99.8" font-family="Times,serif" font-size="14.00">RabbitMQWrapperModule</text>
</g>
<!-- RabbitMQWrapperModule&#45;&gt;TldrawModule -->
<g id="edge5" class="edge">
<title>RabbitMQWrapperModule&#45;&gt;TldrawModule</title>
<path fill="none" stroke="black" d="M717,-122.11C717,-122.11 717,-140.99 717,-140.99"/>
<polygon fill="black" stroke="black" points="713.5,-140.99 717,-150.99 720.5,-140.99 713.5,-140.99"/>
</g>
<!-- TldrawBoardRepo -->
<g id="node7" class="node">
<title>TldrawBoardRepo</title>
<ellipse fill="#fdb462" stroke="black" cx="526" cy="-104" rx="82.81" ry="18"/>
<text text-anchor="middle" x="526" y="-99.8" font-family="Times,serif" font-size="14.00">TldrawBoardRepo</text>
</g>
<!-- TldrawBoardRepo&#45;&gt;TldrawModule -->
<g id="edge6" class="edge">
<title>TldrawBoardRepo&#45;&gt;TldrawModule</title>
<path fill="none" stroke="black" d="M526,-122.01C526,-138.05 526,-159 526,-159 526,-159 656.82,-159 656.82,-159"/>
<polygon fill="black" stroke="black" points="656.82,-162.5 666.82,-159 656.82,-155.5 656.82,-162.5"/>
</g>
<!-- TldrawRepo -->
<g id="node8" class="node">
<title>TldrawRepo</title>
<ellipse fill="#fdb462" stroke="black" cx="366" cy="-104" rx="59.11" ry="18"/>
<text text-anchor="middle" x="366" y="-99.8" font-family="Times,serif" font-size="14.00">TldrawRepo</text>
</g>
<!-- TldrawRepo&#45;&gt;TldrawModule -->
<g id="edge7" class="edge">
<title>TldrawRepo&#45;&gt;TldrawModule</title>
<path fill="none" stroke="black" d="M366,-122.27C366,-140.56 366,-166 366,-166 366,-166 656.71,-166 656.71,-166"/>
<polygon fill="black" stroke="black" points="656.71,-169.5 666.71,-166 656.71,-162.5 656.71,-169.5"/>
</g>
<!-- TldrawService -->
<g id="node9" class="node">
<title>TldrawService</title>
<ellipse fill="#fdb462" stroke="black" cx="221" cy="-104" rx="67.75" ry="18"/>
<text text-anchor="middle" x="221" y="-99.8" font-family="Times,serif" font-size="14.00">TldrawService</text>
</g>
<!-- TldrawService&#45;&gt;TldrawModule -->
<g id="edge8" class="edge">
<title>TldrawService&#45;&gt;TldrawModule</title>
<path fill="none" stroke="black" d="M221,-122.13C221,-142.57 221,-173 221,-173 221,-173 656.71,-173 656.71,-173"/>
<polygon fill="black" stroke="black" points="656.71,-176.5 666.71,-173 656.71,-169.5 656.71,-176.5"/>
</g>
<!-- YMongodb -->
<g id="node10" class="node">
<title>YMongodb</title>
<ellipse fill="#fdb462" stroke="black" cx="80" cy="-104" rx="55.63" ry="18"/>
<text text-anchor="middle" x="80" y="-99.8" font-family="Times,serif" font-size="14.00">YMongodb</text>
</g>
<!-- YMongodb&#45;&gt;TldrawModule -->
<g id="edge9" class="edge">
<title>YMongodb&#45;&gt;TldrawModule</title>
<path fill="none" stroke="black" d="M80,-122.01C80,-144.49 80,-180 80,-180 80,-180 657.02,-180 657.02,-180"/>
<polygon fill="black" stroke="black" points="657.02,-183.5 667.02,-180 657.02,-176.5 657.02,-183.5"/>
</g>
</g>
</svg>
