<?xml version="1.0" encoding="UTF-8" standalone="no"?>
<!DOCTYPE svg PUBLIC "-//W3C//DTD SVG 1.1//EN"
 "http://www.w3.org/Graphics/SVG/1.1/DTD/svg11.dtd">
<!-- Generated by graphviz version 2.47.0 (20210316.0004)
 -->
<!-- Title: dependencies Pages: 1 -->
<svg width="1049pt" height="211pt"
 viewBox="0.00 0.00 1049.00 211.00" xmlns="http://www.w3.org/2000/svg" xmlns:xlink="http://www.w3.org/1999/xlink">
<g id="graph0" class="graph" transform="scale(1 1) rotate(0) translate(4 207)">
<title>dependencies</title>
<polygon fill="white" stroke="transparent" points="-4,4 -4,-207 1045,-207 1045,4 -4,4"/>
<text text-anchor="start" x="499.51" y="-42.4" font-family="Times-12" font-weight="bold" font-size="14.00">Legend</text>
<polygon fill="#ffffb3" stroke="transparent" points="286.5,-10 286.5,-30 306.5,-30 306.5,-10 286.5,-10"/>
<text text-anchor="start" x="310.13" y="-15.4" font-family="Times-12" font-size="14.00"> &#160;Declarations</text>
<polygon fill="#8dd3c7" stroke="transparent" points="399.5,-10 399.5,-30 419.5,-30 419.5,-10 399.5,-10"/>
<text text-anchor="start" x="423.23" y="-15.4" font-family="Times-12" font-size="14.00"> &#160;Module</text>
<polygon fill="#80b1d3" stroke="transparent" points="485.5,-10 485.5,-30 505.5,-30 505.5,-10 485.5,-10"/>
<text text-anchor="start" x="509.28" y="-15.4" font-family="Times-12" font-size="14.00"> &#160;Bootstrap</text>
<polygon fill="#fdb462" stroke="transparent" points="582.5,-10 582.5,-30 602.5,-30 602.5,-10 582.5,-10"/>
<text text-anchor="start" x="606.17" y="-15.4" font-family="Times-12" font-size="14.00"> &#160;Providers</text>
<polygon fill="#fb8072" stroke="transparent" points="678.5,-10 678.5,-30 698.5,-30 698.5,-10 678.5,-10"/>
<text text-anchor="start" x="702.23" y="-15.4" font-family="Times-12" font-size="14.00"> &#160;Exports</text>
<g id="clust1" class="cluster">
<title>cluster_TldrawModule</title>
<polygon fill="none" stroke="black" stroke-dasharray="1,5" points="8,-70 8,-195 1033,-195 1033,-70 8,-70"/>
</g>
<g id="clust3" class="cluster">
<title>cluster_TldrawModule_imports</title>
<polygon fill="none" stroke="black" points="805,-78 805,-130 1025,-130 1025,-78 805,-78"/>
</g>
<g id="clust6" class="cluster">
<title>cluster_TldrawModule_providers</title>
<polygon fill="none" stroke="black" points="16,-78 16,-130 797,-130 797,-78 16,-78"/>
</g>
<!-- CoreModule -->
<g id="node1" class="node">
<title>CoreModule</title>
<polygon fill="#8dd3c7" stroke="black" points="1017.26,-122 1014.26,-126 993.26,-126 990.26,-122 930.74,-122 930.74,-86 1017.26,-86 1017.26,-122"/>
<text text-anchor="middle" x="974" y="-99.8" font-family="Times,serif" font-size="14.00">CoreModule</text>
</g>
<!-- TldrawModule -->
<g id="node3" class="node">
<title>TldrawModule</title>
<polygon fill="#8dd3c7" stroke="black" points="595.97,-187 592.97,-191 571.97,-191 568.97,-187 496.03,-187 496.03,-151 595.97,-151 595.97,-187"/>
<text text-anchor="middle" x="546" y="-164.8" font-family="Times,serif" font-size="14.00">TldrawModule</text>
</g>
<!-- CoreModule&#45;&gt;TldrawModule -->
<g id="edge1" class="edge">
<title>CoreModule&#45;&gt;TldrawModule</title>
<path fill="none" stroke="black" d="M974,-122.29C974,-144.21 974,-178 974,-178 974,-178 606.36,-178 606.36,-178"/>
<polygon fill="black" stroke="black" points="606.36,-174.5 596.36,-178 606.36,-181.5 606.36,-174.5"/>
</g>
<!-- LoggerModule -->
<g id="node2" class="node">
<title>LoggerModule</title>
<polygon fill="#8dd3c7" stroke="black" points="912.98,-122 909.98,-126 888.98,-126 885.98,-122 813.02,-122 813.02,-86 912.98,-86 912.98,-122"/>
<text text-anchor="middle" x="863" y="-99.8" font-family="Times,serif" font-size="14.00">LoggerModule</text>
</g>
<!-- LoggerModule&#45;&gt;TldrawModule -->
<g id="edge2" class="edge">
<title>LoggerModule&#45;&gt;TldrawModule</title>
<path fill="none" stroke="black" d="M863,-122.11C863,-141.34 863,-169 863,-169 863,-169 606.23,-169 606.23,-169"/>
<polygon fill="black" stroke="black" points="606.23,-165.5 596.23,-169 606.23,-172.5 606.23,-165.5"/>
</g>
<!-- TldrawBoardRepo -->
<g id="node4" class="node">
<title>TldrawBoardRepo</title>
<ellipse fill="#fdb462" stroke="black" cx="706" cy="-104" rx="82.81" ry="18"/>
<text text-anchor="middle" x="706" y="-99.8" font-family="Times,serif" font-size="14.00">TldrawBoardRepo</text>
</g>
<!-- TldrawBoardRepo&#45;&gt;TldrawModule -->
<g id="edge3" class="edge">
<title>TldrawBoardRepo&#45;&gt;TldrawModule</title>
<path fill="none" stroke="black" d="M706,-122.03C706,-138.4 706,-160 706,-160 706,-160 606.19,-160 606.19,-160"/>
<polygon fill="black" stroke="black" points="606.19,-156.5 596.19,-160 606.19,-163.5 606.19,-156.5"/>
</g>
<!-- TldrawRepo -->
<g id="node5" class="node">
<title>TldrawRepo</title>
<ellipse fill="#fdb462" stroke="black" cx="546" cy="-104" rx="59.11" ry="18"/>
<text text-anchor="middle" x="546" y="-99.8" font-family="Times,serif" font-size="14.00">TldrawRepo</text>
</g>
<!-- TldrawRepo&#45;&gt;TldrawModule -->
<g id="edge4" class="edge">
<title>TldrawRepo&#45;&gt;TldrawModule</title>
<path fill="none" stroke="black" d="M546,-122.11C546,-122.11 546,-140.99 546,-140.99"/>
<polygon fill="black" stroke="black" points="542.5,-140.99 546,-150.99 549.5,-140.99 542.5,-140.99"/>
</g>
<!-- TldrawService -->
<g id="node6" class="node">
<title>TldrawService</title>
<ellipse fill="#fdb462" stroke="black" cx="401" cy="-104" rx="67.75" ry="18"/>
<text text-anchor="middle" x="401" y="-99.8" font-family="Times,serif" font-size="14.00">TldrawService</text>
</g>
<!-- TldrawService&#45;&gt;TldrawModule -->
<g id="edge5" class="edge">
<title>TldrawService&#45;&gt;TldrawModule</title>
<path fill="none" stroke="black" d="M401,-122.03C401,-138.4 401,-160 401,-160 401,-160 485.69,-160 485.69,-160"/>
<polygon fill="black" stroke="black" points="485.69,-163.5 495.69,-160 485.69,-156.5 485.69,-163.5"/>
</g>
<!-- XApiKeyStrategy -->
<g id="node7" class="node">
<title>XApiKeyStrategy</title>
<ellipse fill="#fdb462" stroke="black" cx="234" cy="-104" rx="80.52" ry="18"/>
<text text-anchor="middle" x="234" y="-99.8" font-family="Times,serif" font-size="14.00">XApiKeyStrategy</text>
</g>
<!-- XApiKeyStrategy&#45;&gt;TldrawModule -->
<g id="edge6" class="edge">
<title>XApiKeyStrategy&#45;&gt;TldrawModule</title>
<path fill="none" stroke="black" d="M234,-122.11C234,-141.34 234,-169 234,-169 234,-169 485.87,-169 485.87,-169"/>
<polygon fill="black" stroke="black" points="485.87,-172.5 495.87,-169 485.87,-165.5 485.87,-172.5"/>
</g>
<!-- YMongodb -->
<g id="node8" class="node">
<title>YMongodb</title>
<ellipse fill="#fdb462" stroke="black" cx="80" cy="-104" rx="55.63" ry="18"/>
<text text-anchor="middle" x="80" y="-99.8" font-family="Times,serif" font-size="14.00">YMongodb</text>
</g>
<!-- YMongodb&#45;&gt;TldrawModule -->
<g id="edge7" class="edge">
<title>YMongodb&#45;&gt;TldrawModule</title>
<path fill="none" stroke="black" d="M80,-122.29C80,-144.21 80,-178 80,-178 80,-178 485.69,-178 485.69,-178"/>
<polygon fill="black" stroke="black" points="485.69,-181.5 495.69,-178 485.69,-174.5 485.69,-181.5"/>
</g>
</g>
</svg>
