<?xml version="1.0" encoding="UTF-8" standalone="no"?>
<!DOCTYPE svg PUBLIC "-//W3C//DTD SVG 1.1//EN"
 "http://www.w3.org/Graphics/SVG/1.1/DTD/svg11.dtd">
<!-- Generated by graphviz version 2.47.0 (20210316.0004)
 -->
<!-- Title: dependencies Pages: 1 -->
<svg width="1030pt" height="211pt"
 viewBox="0.00 0.00 1030.00 211.00" xmlns="http://www.w3.org/2000/svg" xmlns:xlink="http://www.w3.org/1999/xlink">
<g id="graph0" class="graph" transform="scale(1 1) rotate(0) translate(4 207)">
<title>dependencies</title>
<polygon fill="white" stroke="transparent" points="-4,4 -4,-207 1026,-207 1026,4 -4,4"/>
<text text-anchor="start" x="490.01" y="-42.4" font-family="Times-12" font-weight="bold" font-size="14.00">Legend</text>
<polygon fill="#ffffb3" stroke="transparent" points="277,-10 277,-30 297,-30 297,-10 277,-10"/>
<text text-anchor="start" x="300.63" y="-15.4" font-family="Times-12" font-size="14.00"> &#160;Declarations</text>
<polygon fill="#8dd3c7" stroke="transparent" points="390,-10 390,-30 410,-30 410,-10 390,-10"/>
<text text-anchor="start" x="413.73" y="-15.4" font-family="Times-12" font-size="14.00"> &#160;Module</text>
<polygon fill="#80b1d3" stroke="transparent" points="476,-10 476,-30 496,-30 496,-10 476,-10"/>
<text text-anchor="start" x="499.78" y="-15.4" font-family="Times-12" font-size="14.00"> &#160;Bootstrap</text>
<polygon fill="#fdb462" stroke="transparent" points="573,-10 573,-30 593,-30 593,-10 573,-10"/>
<text text-anchor="start" x="596.67" y="-15.4" font-family="Times-12" font-size="14.00"> &#160;Providers</text>
<polygon fill="#fb8072" stroke="transparent" points="669,-10 669,-30 689,-30 689,-10 669,-10"/>
<text text-anchor="start" x="692.73" y="-15.4" font-family="Times-12" font-size="14.00"> &#160;Exports</text>
<g id="clust1" class="cluster">
<title>cluster_TldrawModule</title>
<polygon fill="none" stroke="black" stroke-dasharray="1,5" points="8,-70 8,-195 1014,-195 1014,-70 8,-70"/>
</g>
<g id="clust6" class="cluster">
<title>cluster_TldrawModule_providers</title>
<polygon fill="none" stroke="black" points="405,-78 405,-130 1006,-130 1006,-78 405,-78"/>
</g>
<g id="clust3" class="cluster">
<title>cluster_TldrawModule_imports</title>
<polygon fill="none" stroke="black" points="16,-78 16,-130 397,-130 397,-78 16,-78"/>
</g>
<!-- AuthenticationModule -->
<g id="node1" class="node">
<title>AuthenticationModule</title>
<polygon fill="#8dd3c7" stroke="black" points="389.25,-122 386.25,-126 365.25,-126 362.25,-122 246.75,-122 246.75,-86 389.25,-86 389.25,-122"/>
<text text-anchor="middle" x="318" y="-99.8" font-family="Times,serif" font-size="14.00">AuthenticationModule</text>
</g>
<!-- TldrawModule -->
<g id="node4" class="node">
<title>TldrawModule</title>
<polygon fill="#8dd3c7" stroke="black" points="518.97,-187 515.97,-191 494.97,-191 491.97,-187 419.03,-187 419.03,-151 518.97,-151 518.97,-187"/>
<text text-anchor="middle" x="469" y="-164.8" font-family="Times,serif" font-size="14.00">TldrawModule</text>
</g>
<!-- AuthenticationModule&#45;&gt;TldrawModule -->
<g id="edge1" class="edge">
<title>AuthenticationModule&#45;&gt;TldrawModule</title>
<path fill="none" stroke="black" d="M318,-122.03C318,-138.4 318,-160 318,-160 318,-160 408.72,-160 408.72,-160"/>
<polygon fill="black" stroke="black" points="408.72,-163.5 418.72,-160 408.72,-156.5 408.72,-163.5"/>
</g>
<!-- CoreModule -->
<g id="node2" class="node">
<title>CoreModule</title>
<polygon fill="#8dd3c7" stroke="black" points="228.26,-122 225.26,-126 204.26,-126 201.26,-122 141.74,-122 141.74,-86 228.26,-86 228.26,-122"/>
<text text-anchor="middle" x="185" y="-99.8" font-family="Times,serif" font-size="14.00">CoreModule</text>
</g>
<!-- CoreModule&#45;&gt;TldrawModule -->
<g id="edge2" class="edge">
<title>CoreModule&#45;&gt;TldrawModule</title>
<path fill="none" stroke="black" d="M185,-122.11C185,-141.34 185,-169 185,-169 185,-169 408.88,-169 408.88,-169"/>
<polygon fill="black" stroke="black" points="408.88,-172.5 418.88,-169 408.88,-165.5 408.88,-172.5"/>
</g>
<!-- LoggerModule -->
<g id="node3" class="node">
<title>LoggerModule</title>
<polygon fill="#8dd3c7" stroke="black" points="123.98,-122 120.98,-126 99.98,-126 96.98,-122 24.02,-122 24.02,-86 123.98,-86 123.98,-122"/>
<text text-anchor="middle" x="74" y="-99.8" font-family="Times,serif" font-size="14.00">LoggerModule</text>
</g>
<!-- LoggerModule&#45;&gt;TldrawModule -->
<g id="edge3" class="edge">
<title>LoggerModule&#45;&gt;TldrawModule</title>
<path fill="none" stroke="black" d="M74,-122.29C74,-144.21 74,-178 74,-178 74,-178 408.97,-178 408.97,-178"/>
<polygon fill="black" stroke="black" points="408.97,-181.5 418.97,-178 408.97,-174.5 408.97,-181.5"/>
</g>
<!-- TldrawBoardRepo -->
<g id="node5" class="node">
<title>TldrawBoardRepo</title>
<ellipse fill="#fdb462" stroke="black" cx="915" cy="-104" rx="82.81" ry="18"/>
<text text-anchor="middle" x="915" y="-99.8" font-family="Times,serif" font-size="14.00">TldrawBoardRepo</text>
</g>
<!-- TldrawBoardRepo&#45;&gt;TldrawModule -->
<g id="edge4" class="edge">
<title>TldrawBoardRepo&#45;&gt;TldrawModule</title>
<path fill="none" stroke="black" d="M915,-122.29C915,-144.21 915,-178 915,-178 915,-178 529.29,-178 529.29,-178"/>
<polygon fill="black" stroke="black" points="529.29,-174.5 519.29,-178 529.29,-181.5 529.29,-174.5"/>
</g>
<!-- TldrawRepo -->
<g id="node6" class="node">
<title>TldrawRepo</title>
<ellipse fill="#fdb462" stroke="black" cx="755" cy="-104" rx="59.11" ry="18"/>
<text text-anchor="middle" x="755" y="-99.8" font-family="Times,serif" font-size="14.00">TldrawRepo</text>
</g>
<!-- TldrawRepo&#45;&gt;TldrawModule -->
<g id="edge5" class="edge">
<title>TldrawRepo&#45;&gt;TldrawModule</title>
<path fill="none" stroke="black" d="M755,-122.11C755,-141.34 755,-169 755,-169 755,-169 529.14,-169 529.14,-169"/>
<polygon fill="black" stroke="black" points="529.14,-165.5 519.14,-169 529.14,-172.5 529.14,-165.5"/>
</g>
<!-- TldrawService -->
<g id="node7" class="node">
<title>TldrawService</title>
<ellipse fill="#fdb462" stroke="black" cx="610" cy="-104" rx="67.75" ry="18"/>
<text text-anchor="middle" x="610" y="-99.8" font-family="Times,serif" font-size="14.00">TldrawService</text>
</g>
<!-- TldrawService&#45;&gt;TldrawModule -->
<g id="edge6" class="edge">
<title>TldrawService&#45;&gt;TldrawModule</title>
<path fill="none" stroke="black" d="M610,-122.03C610,-138.4 610,-160 610,-160 610,-160 529.11,-160 529.11,-160"/>
<polygon fill="black" stroke="black" points="529.11,-156.5 519.11,-160 529.11,-163.5 529.11,-156.5"/>
</g>
<!-- YMongodb -->
<g id="node8" class="node">
<title>YMongodb</title>
<ellipse fill="#fdb462" stroke="black" cx="469" cy="-104" rx="55.63" ry="18"/>
<text text-anchor="middle" x="469" y="-99.8" font-family="Times,serif" font-size="14.00">YMongodb</text>
</g>
<!-- YMongodb&#45;&gt;TldrawModule -->
<g id="edge7" class="edge">
<title>YMongodb&#45;&gt;TldrawModule</title>
<path fill="none" stroke="black" d="M469,-122.11C469,-122.11 469,-140.99 469,-140.99"/>
<polygon fill="black" stroke="black" points="465.5,-140.99 469,-150.99 472.5,-140.99 465.5,-140.99"/>
</g>
</g>
</svg>
