<?xml version="1.0" encoding="UTF-8" standalone="no"?>
<!DOCTYPE svg PUBLIC "-//W3C//DTD SVG 1.1//EN"
 "http://www.w3.org/Graphics/SVG/1.1/DTD/svg11.dtd">
<!-- Generated by graphviz version 2.47.0 (20210316.0004)
 -->
<!-- Title: dependencies Pages: 1 -->
<svg width="1324pt" height="211pt"
 viewBox="0.00 0.00 1324.00 211.00" xmlns="http://www.w3.org/2000/svg" xmlns:xlink="http://www.w3.org/1999/xlink">
<g id="graph0" class="graph" transform="scale(1 1) rotate(0) translate(4 207)">
<title>dependencies</title>
<polygon fill="white" stroke="transparent" points="-4,4 -4,-207 1320,-207 1320,4 -4,4"/>
<text text-anchor="start" x="637.01" y="-42.4" font-family="Times-12" font-weight="bold" font-size="14.00">Legend</text>
<polygon fill="#ffffb3" stroke="transparent" points="424,-10 424,-30 444,-30 444,-10 424,-10"/>
<text text-anchor="start" x="447.63" y="-15.4" font-family="Times-12" font-size="14.00"> &#160;Declarations</text>
<polygon fill="#8dd3c7" stroke="transparent" points="537,-10 537,-30 557,-30 557,-10 537,-10"/>
<text text-anchor="start" x="560.73" y="-15.4" font-family="Times-12" font-size="14.00"> &#160;Module</text>
<polygon fill="#80b1d3" stroke="transparent" points="623,-10 623,-30 643,-30 643,-10 623,-10"/>
<text text-anchor="start" x="646.78" y="-15.4" font-family="Times-12" font-size="14.00"> &#160;Bootstrap</text>
<polygon fill="#fdb462" stroke="transparent" points="720,-10 720,-30 740,-30 740,-10 720,-10"/>
<text text-anchor="start" x="743.67" y="-15.4" font-family="Times-12" font-size="14.00"> &#160;Providers</text>
<polygon fill="#fb8072" stroke="transparent" points="816,-10 816,-30 836,-30 836,-10 816,-10"/>
<text text-anchor="start" x="839.73" y="-15.4" font-family="Times-12" font-size="14.00"> &#160;Exports</text>
<g id="clust1" class="cluster">
<title>cluster_H5PEditorTestModule</title>
<polygon fill="none" stroke="black" stroke-dasharray="1,5" points="8,-70 8,-195 1308,-195 1308,-70 8,-70"/>
</g>
<g id="clust3" class="cluster">
<title>cluster_H5PEditorTestModule_imports</title>
<polygon fill="none" stroke="black" points="16,-78 16,-130 1300,-130 1300,-78 16,-78"/>
</g>
<!-- AuthenticationApiModule -->
<g id="node1" class="node">
<title>AuthenticationApiModule</title>
<polygon fill="#8dd3c7" stroke="black" points="1291.75,-122 1288.75,-126 1267.75,-126 1264.75,-122 1128.25,-122 1128.25,-86 1291.75,-86 1291.75,-122"/>
<text text-anchor="middle" x="1210" y="-99.8" font-family="Times,serif" font-size="14.00">AuthenticationApiModule</text>
</g>
<!-- H5PEditorTestModule -->
<g id="node9" class="node">
<title>H5PEditorTestModule</title>
<polygon fill="#8dd3c7" stroke="black" points="761.54,-187 758.54,-191 737.54,-191 734.54,-187 618.46,-187 618.46,-151 761.54,-151 761.54,-187"/>
<text text-anchor="middle" x="690" y="-164.8" font-family="Times,serif" font-size="14.00">H5PEditorTestModule</text>
</g>
<!-- AuthenticationApiModule&#45;&gt;H5PEditorTestModule -->
<g id="edge1" class="edge">
<title>AuthenticationApiModule&#45;&gt;H5PEditorTestModule</title>
<path fill="none" stroke="black" d="M1210,-122.29C1210,-144.21 1210,-178 1210,-178 1210,-178 771.76,-178 771.76,-178"/>
<polygon fill="black" stroke="black" points="771.76,-174.5 761.76,-178 771.76,-181.5 771.76,-174.5"/>
</g>
<!-- AuthenticationModule -->
<g id="node2" class="node">
<title>AuthenticationModule</title>
<polygon fill="#8dd3c7" stroke="black" points="1110.25,-122 1107.25,-126 1086.25,-126 1083.25,-122 967.75,-122 967.75,-86 1110.25,-86 1110.25,-122"/>
<text text-anchor="middle" x="1039" y="-99.8" font-family="Times,serif" font-size="14.00">AuthenticationModule</text>
</g>
<!-- AuthenticationModule&#45;&gt;H5PEditorTestModule -->
<g id="edge2" class="edge">
<title>AuthenticationModule&#45;&gt;H5PEditorTestModule</title>
<path fill="none" stroke="black" d="M1039,-122.11C1039,-141.34 1039,-169 1039,-169 1039,-169 771.89,-169 771.89,-169"/>
<polygon fill="black" stroke="black" points="771.89,-165.5 761.89,-169 771.89,-172.5 771.89,-165.5"/>
</g>
<!-- AuthorizationModule -->
<g id="node3" class="node">
<title>AuthorizationModule</title>
<polygon fill="#8dd3c7" stroke="black" points="949.81,-122 946.81,-126 925.81,-126 922.81,-122 812.19,-122 812.19,-86 949.81,-86 949.81,-122"/>
<text text-anchor="middle" x="881" y="-99.8" font-family="Times,serif" font-size="14.00">AuthorizationModule</text>
</g>
<!-- AuthorizationModule&#45;&gt;H5PEditorTestModule -->
<g id="edge3" class="edge">
<title>AuthorizationModule&#45;&gt;H5PEditorTestModule</title>
<path fill="none" stroke="black" d="M881,-122.03C881,-138.4 881,-160 881,-160 881,-160 771.66,-160 771.66,-160"/>
<polygon fill="black" stroke="black" points="771.66,-156.5 761.66,-160 771.66,-163.5 771.66,-156.5"/>
</g>
<!-- CoreModule -->
<g id="node4" class="node">
<title>CoreModule</title>
<polygon fill="#8dd3c7" stroke="black" points="794.26,-122 791.26,-126 770.26,-126 767.26,-122 707.74,-122 707.74,-86 794.26,-86 794.26,-122"/>
<text text-anchor="middle" x="751" y="-99.8" font-family="Times,serif" font-size="14.00">CoreModule</text>
</g>
<!-- CoreModule&#45;&gt;H5PEditorTestModule -->
<g id="edge4" class="edge">
<title>CoreModule&#45;&gt;H5PEditorTestModule</title>
<path fill="none" stroke="black" d="M734.69,-122.11C734.69,-122.11 734.69,-140.99 734.69,-140.99"/>
<polygon fill="black" stroke="black" points="731.19,-140.99 734.69,-150.99 738.19,-140.99 731.19,-140.99"/>
</g>
<!-- H5PEditorModule -->
<g id="node5" class="node">
<title>H5PEditorModule</title>
<polygon fill="#8dd3c7" stroke="black" points="689.93,-122 686.93,-126 665.93,-126 662.93,-122 570.07,-122 570.07,-86 689.93,-86 689.93,-122"/>
<text text-anchor="middle" x="630" y="-99.8" font-family="Times,serif" font-size="14.00">H5PEditorModule</text>
</g>
<!-- H5PEditorModule&#45;&gt;H5PEditorTestModule -->
<g id="edge5" class="edge">
<title>H5PEditorModule&#45;&gt;H5PEditorTestModule</title>
<path fill="none" stroke="black" d="M653.97,-122.11C653.97,-122.11 653.97,-140.99 653.97,-140.99"/>
<polygon fill="black" stroke="black" points="650.47,-140.99 653.97,-150.99 657.47,-140.99 650.47,-140.99"/>
</g>
<!-- LoggerModule -->
<g id="node6" class="node">
<title>LoggerModule</title>
<polygon fill="#8dd3c7" stroke="black" points="551.98,-122 548.98,-126 527.98,-126 524.98,-122 452.02,-122 452.02,-86 551.98,-86 551.98,-122"/>
<text text-anchor="middle" x="502" y="-99.8" font-family="Times,serif" font-size="14.00">LoggerModule</text>
</g>
<!-- LoggerModule&#45;&gt;H5PEditorTestModule -->
<g id="edge6" class="edge">
<title>LoggerModule&#45;&gt;H5PEditorTestModule</title>
<path fill="none" stroke="black" d="M502,-122.03C502,-138.4 502,-160 502,-160 502,-160 608.39,-160 608.39,-160"/>
<polygon fill="black" stroke="black" points="608.39,-163.5 618.39,-160 608.39,-156.5 608.39,-163.5"/>
</g>
<!-- MongoMemoryDatabaseModule -->
<g id="node7" class="node">
<title>MongoMemoryDatabaseModule</title>
<polygon fill="#8dd3c7" stroke="black" points="433.51,-122 430.51,-126 409.51,-126 406.51,-122 234.49,-122 234.49,-86 433.51,-86 433.51,-122"/>
<text text-anchor="middle" x="334" y="-99.8" font-family="Times,serif" font-size="14.00">MongoMemoryDatabaseModule</text>
</g>
<!-- MongoMemoryDatabaseModule&#45;&gt;H5PEditorTestModule -->
<g id="edge7" class="edge">
<title>MongoMemoryDatabaseModule&#45;&gt;H5PEditorTestModule</title>
<path fill="none" stroke="black" d="M334,-122.11C334,-141.34 334,-169 334,-169 334,-169 608.39,-169 608.39,-169"/>
<polygon fill="black" stroke="black" points="608.39,-172.5 618.39,-169 608.39,-165.5 608.39,-172.5"/>
</g>
<!-- RabbitMQWrapperTestModule -->
<g id="node8" class="node">
<title>RabbitMQWrapperTestModule</title>
<polygon fill="#8dd3c7" stroke="black" points="216,-122 213,-126 192,-126 189,-122 24,-122 24,-86 216,-86 216,-122"/>
<text text-anchor="middle" x="120" y="-99.8" font-family="Times,serif" font-size="14.00">RabbitMQWrapperTestModule</text>
</g>
<!-- RabbitMQWrapperTestModule&#45;&gt;H5PEditorTestModule -->
<g id="edge8" class="edge">
<title>RabbitMQWrapperTestModule&#45;&gt;H5PEditorTestModule</title>
<path fill="none" stroke="black" d="M120,-122.29C120,-144.21 120,-178 120,-178 120,-178 608.39,-178 608.39,-178"/>
<polygon fill="black" stroke="black" points="608.39,-181.5 618.39,-178 608.39,-174.5 608.39,-181.5"/>
</g>
</g>
</svg>
