<?xml version="1.0" encoding="UTF-8" standalone="no"?>
<!DOCTYPE svg PUBLIC "-//W3C//DTD SVG 1.1//EN"
 "http://www.w3.org/Graphics/SVG/1.1/DTD/svg11.dtd">
<!-- Generated by graphviz version 2.47.0 (20210316.0004)
 -->
<!-- Title: dependencies Pages: 1 -->
<svg width="2806pt" height="211pt"
 viewBox="0.00 0.00 2806.00 211.00" xmlns="http://www.w3.org/2000/svg" xmlns:xlink="http://www.w3.org/1999/xlink">
<g id="graph0" class="graph" transform="scale(1 1) rotate(0) translate(4 207)">
<title>dependencies</title>
<polygon fill="white" stroke="transparent" points="-4,4 -4,-207 2802,-207 2802,4 -4,4"/>
<text text-anchor="start" x="1378.01" y="-42.4" font-family="Times-12" font-weight="bold" font-size="14.00">Legend</text>
<polygon fill="#ffffb3" stroke="transparent" points="1165,-10 1165,-30 1185,-30 1185,-10 1165,-10"/>
<text text-anchor="start" x="1188.63" y="-15.4" font-family="Times-12" font-size="14.00"> &#160;Declarations</text>
<polygon fill="#8dd3c7" stroke="transparent" points="1278,-10 1278,-30 1298,-30 1298,-10 1278,-10"/>
<text text-anchor="start" x="1301.73" y="-15.4" font-family="Times-12" font-size="14.00"> &#160;Module</text>
<polygon fill="#80b1d3" stroke="transparent" points="1364,-10 1364,-30 1384,-30 1384,-10 1364,-10"/>
<text text-anchor="start" x="1387.78" y="-15.4" font-family="Times-12" font-size="14.00"> &#160;Bootstrap</text>
<polygon fill="#fdb462" stroke="transparent" points="1461,-10 1461,-30 1481,-30 1481,-10 1461,-10"/>
<text text-anchor="start" x="1484.67" y="-15.4" font-family="Times-12" font-size="14.00"> &#160;Providers</text>
<polygon fill="#fb8072" stroke="transparent" points="1557,-10 1557,-30 1577,-30 1577,-10 1557,-10"/>
<text text-anchor="start" x="1580.73" y="-15.4" font-family="Times-12" font-size="14.00"> &#160;Exports</text>
<g id="clust1" class="cluster">
<title>cluster_H5PEditorTestModule</title>
<polygon fill="none" stroke="black" stroke-dasharray="1,5" points="8,-70 8,-195 2790,-195 2790,-70 8,-70"/>
</g>
<g id="clust3" class="cluster">
<title>cluster_H5PEditorTestModule_imports</title>
<polygon fill="none" stroke="black" points="1211,-78 1211,-130 2782,-130 2782,-78 1211,-78"/>
</g>
<g id="clust6" class="cluster">
<title>cluster_H5PEditorTestModule_providers</title>
<polygon fill="none" stroke="black" points="16,-78 16,-130 1203,-130 1203,-78 16,-78"/>
</g>
<!-- AuthenticationApiModule -->
<g id="node1" class="node">
<title>AuthenticationApiModule</title>
<polygon fill="#8dd3c7" stroke="black" points="2773.75,-122 2770.75,-126 2749.75,-126 2746.75,-122 2610.25,-122 2610.25,-86 2773.75,-86 2773.75,-122"/>
<text text-anchor="middle" x="2692" y="-99.8" font-family="Times,serif" font-size="14.00">AuthenticationApiModule</text>
</g>
<!-- H5PEditorTestModule -->
<g id="node11" class="node">
<title>H5PEditorTestModule</title>
<polygon fill="#8dd3c7" stroke="black" points="1448.54,-187 1445.54,-191 1424.54,-191 1421.54,-187 1305.46,-187 1305.46,-151 1448.54,-151 1448.54,-187"/>
<text text-anchor="middle" x="1377" y="-164.8" font-family="Times,serif" font-size="14.00">H5PEditorTestModule</text>
</g>
<!-- AuthenticationApiModule&#45;&gt;H5PEditorTestModule -->
<g id="edge1" class="edge">
<title>AuthenticationApiModule&#45;&gt;H5PEditorTestModule</title>
<path fill="none" stroke="black" d="M2692,-122.32C2692,-145.66 2692,-183 2692,-183 2692,-183 1458.63,-183 1458.63,-183"/>
<polygon fill="black" stroke="black" points="1458.63,-179.5 1448.63,-183 1458.63,-186.5 1458.63,-179.5"/>
</g>
<!-- AuthenticationModule -->
<g id="node2" class="node">
<title>AuthenticationModule</title>
<polygon fill="#8dd3c7" stroke="black" points="2592.25,-122 2589.25,-126 2568.25,-126 2565.25,-122 2449.75,-122 2449.75,-86 2592.25,-86 2592.25,-122"/>
<text text-anchor="middle" x="2521" y="-99.8" font-family="Times,serif" font-size="14.00">AuthenticationModule</text>
</g>
<!-- AuthenticationModule&#45;&gt;H5PEditorTestModule -->
<g id="edge2" class="edge">
<title>AuthenticationModule&#45;&gt;H5PEditorTestModule</title>
<path fill="none" stroke="black" d="M2521,-122.29C2521,-144.21 2521,-178 2521,-178 2521,-178 1458.56,-178 1458.56,-178"/>
<polygon fill="black" stroke="black" points="1458.56,-174.5 1448.56,-178 1458.56,-181.5 1458.56,-174.5"/>
</g>
<!-- AuthorizationReferenceModule -->
<g id="node3" class="node">
<title>AuthorizationReferenceModule</title>
<polygon fill="#8dd3c7" stroke="black" points="2432.04,-122 2429.04,-126 2408.04,-126 2405.04,-122 2237.96,-122 2237.96,-86 2432.04,-86 2432.04,-122"/>
<text text-anchor="middle" x="2335" y="-99.8" font-family="Times,serif" font-size="14.00">AuthorizationReferenceModule</text>
</g>
<!-- AuthorizationReferenceModule&#45;&gt;H5PEditorTestModule -->
<g id="edge3" class="edge">
<title>AuthorizationReferenceModule&#45;&gt;H5PEditorTestModule</title>
<path fill="none" stroke="black" d="M2335,-122.03C2335,-142.77 2335,-174 2335,-174 2335,-174 1458.61,-174 1458.61,-174"/>
<polygon fill="black" stroke="black" points="1458.61,-170.5 1448.61,-174 1458.61,-177.5 1458.61,-170.5"/>
</g>
<!-- CoreModule -->
<g id="node4" class="node">
<title>CoreModule</title>
<polygon fill="#8dd3c7" stroke="black" points="2220.26,-122 2217.26,-126 2196.26,-126 2193.26,-122 2133.74,-122 2133.74,-86 2220.26,-86 2220.26,-122"/>
<text text-anchor="middle" x="2177" y="-99.8" font-family="Times,serif" font-size="14.00">CoreModule</text>
</g>
<!-- CoreModule&#45;&gt;H5PEditorTestModule -->
<g id="edge4" class="edge">
<title>CoreModule&#45;&gt;H5PEditorTestModule</title>
<path fill="none" stroke="black" d="M2177,-122.11C2177,-141.34 2177,-169 2177,-169 2177,-169 1458.7,-169 1458.7,-169"/>
<polygon fill="black" stroke="black" points="1458.7,-165.5 1448.7,-169 1458.7,-172.5 1458.7,-165.5"/>
</g>
<!-- H5PEditorModule -->
<g id="node5" class="node">
<title>H5PEditorModule</title>
<polygon fill="#8dd3c7" stroke="black" points="2115.93,-122 2112.93,-126 2091.93,-126 2088.93,-122 1996.07,-122 1996.07,-86 2115.93,-86 2115.93,-122"/>
<text text-anchor="middle" x="2056" y="-99.8" font-family="Times,serif" font-size="14.00">H5PEditorModule</text>
</g>
<!-- H5PEditorModule&#45;&gt;H5PEditorTestModule -->
<g id="edge5" class="edge">
<title>H5PEditorModule&#45;&gt;H5PEditorTestModule</title>
<path fill="none" stroke="black" d="M2056,-122.3C2056,-140.27 2056,-165 2056,-165 2056,-165 1458.7,-165 1458.7,-165"/>
<polygon fill="black" stroke="black" points="1458.7,-161.5 1448.7,-165 1458.7,-168.5 1458.7,-161.5"/>
</g>
<!-- LoggerModule -->
<g id="node6" class="node">
<title>LoggerModule</title>
<polygon fill="#8dd3c7" stroke="black" points="1977.98,-122 1974.98,-126 1953.98,-126 1950.98,-122 1878.02,-122 1878.02,-86 1977.98,-86 1977.98,-122"/>
<text text-anchor="middle" x="1928" y="-99.8" font-family="Times,serif" font-size="14.00">LoggerModule</text>
</g>
<!-- LoggerModule&#45;&gt;H5PEditorTestModule -->
<g id="edge6" class="edge">
<title>LoggerModule&#45;&gt;H5PEditorTestModule</title>
<path fill="none" stroke="black" d="M1928,-122.03C1928,-138.4 1928,-160 1928,-160 1928,-160 1458.75,-160 1458.75,-160"/>
<polygon fill="black" stroke="black" points="1458.75,-156.5 1448.75,-160 1458.75,-163.5 1458.75,-156.5"/>
</g>
<!-- MongoMemoryDatabaseModule -->
<g id="node7" class="node">
<title>MongoMemoryDatabaseModule</title>
<polygon fill="#8dd3c7" stroke="black" points="1859.51,-122 1856.51,-126 1835.51,-126 1832.51,-122 1660.49,-122 1660.49,-86 1859.51,-86 1859.51,-122"/>
<text text-anchor="middle" x="1760" y="-99.8" font-family="Times,serif" font-size="14.00">MongoMemoryDatabaseModule</text>
</g>
<!-- MongoMemoryDatabaseModule&#45;&gt;H5PEditorTestModule -->
<g id="edge7" class="edge">
<title>MongoMemoryDatabaseModule&#45;&gt;H5PEditorTestModule</title>
<path fill="none" stroke="black" d="M1760,-122.19C1760,-137.18 1760,-156 1760,-156 1760,-156 1458.59,-156 1458.59,-156"/>
<polygon fill="black" stroke="black" points="1458.59,-152.5 1448.59,-156 1458.59,-159.5 1458.59,-152.5"/>
</g>
<!-- RabbitMQWrapperTestModule -->
<g id="node8" class="node">
<title>RabbitMQWrapperTestModule</title>
<polygon fill="#8dd3c7" stroke="black" points="1642,-122 1639,-126 1618,-126 1615,-122 1450,-122 1450,-86 1642,-86 1642,-122"/>
<text text-anchor="middle" x="1546" y="-99.8" font-family="Times,serif" font-size="14.00">RabbitMQWrapperTestModule</text>
</g>
<!-- RabbitMQWrapperTestModule&#45;&gt;H5PEditorTestModule -->
<g id="edge8" class="edge">
<title>RabbitMQWrapperTestModule&#45;&gt;H5PEditorTestModule</title>
<path fill="none" stroke="black" d="M1449.8,-104C1443.75,-104 1440.02,-104 1440.02,-104 1440.02,-104 1440.02,-140.89 1440.02,-140.89"/>
<polygon fill="black" stroke="black" points="1436.52,-140.89 1440.02,-150.89 1443.52,-140.89 1436.52,-140.89"/>
</g>
<!-- S3ClientModule -->
<g id="node9" class="node">
<title>S3ClientModule</title>
<polygon fill="#8dd3c7" stroke="black" points="1431.06,-122 1428.06,-126 1407.06,-126 1404.06,-122 1322.94,-122 1322.94,-86 1431.06,-86 1431.06,-122"/>
<text text-anchor="middle" x="1377" y="-99.8" font-family="Times,serif" font-size="14.00">S3ClientModule</text>
</g>
<!-- S3ClientModule&#45;&gt;H5PEditorTestModule -->
<g id="edge9" class="edge">
<title>S3ClientModule&#45;&gt;H5PEditorTestModule</title>
<path fill="none" stroke="black" d="M1377,-122.11C1377,-122.11 1377,-140.99 1377,-140.99"/>
<polygon fill="black" stroke="black" points="1373.5,-140.99 1377,-150.99 1380.5,-140.99 1373.5,-140.99"/>
</g>
<!-- UserModule -->
<g id="node10" class="node">
<title>UserModule</title>
<polygon fill="#8dd3c7" stroke="black" points="1304.98,-122 1301.98,-126 1280.98,-126 1277.98,-122 1219.02,-122 1219.02,-86 1304.98,-86 1304.98,-122"/>
<text text-anchor="middle" x="1262" y="-99.8" font-family="Times,serif" font-size="14.00">UserModule</text>
</g>
<!-- UserModule&#45;&gt;H5PEditorTestModule -->
<g id="edge10" class="edge">
<title>UserModule&#45;&gt;H5PEditorTestModule</title>
<path fill="none" stroke="black" d="M1305.39,-104C1310.52,-104 1313.98,-104 1313.98,-104 1313.98,-104 1313.98,-140.89 1313.98,-140.89"/>
<polygon fill="black" stroke="black" points="1310.48,-140.89 1313.98,-150.89 1317.48,-140.89 1310.48,-140.89"/>
</g>
<!-- ContentStorage -->
<g id="node12" class="node">
<title>ContentStorage</title>
<ellipse fill="#fdb462" stroke="black" cx="1124" cy="-104" rx="71.23" ry="18"/>
<text text-anchor="middle" x="1124" y="-99.8" font-family="Times,serif" font-size="14.00">ContentStorage</text>
</g>
<!-- ContentStorage&#45;&gt;H5PEditorTestModule -->
<g id="edge11" class="edge">
<title>ContentStorage&#45;&gt;H5PEditorTestModule</title>
<path fill="none" stroke="black" d="M1124,-122.19C1124,-137.18 1124,-156 1124,-156 1124,-156 1295.18,-156 1295.18,-156"/>
<polygon fill="black" stroke="black" points="1295.18,-159.5 1305.18,-156 1295.18,-152.5 1295.18,-159.5"/>
</g>
<!-- H5PContentRepo -->
<g id="node13" class="node">
<title>H5PContentRepo</title>
<ellipse fill="#fdb462" stroke="black" cx="956" cy="-104" rx="79.34" ry="18"/>
<text text-anchor="middle" x="956" y="-99.8" font-family="Times,serif" font-size="14.00">H5PContentRepo</text>
</g>
<!-- H5PContentRepo&#45;&gt;H5PEditorTestModule -->
<g id="edge12" class="edge">
<title>H5PContentRepo&#45;&gt;H5PEditorTestModule</title>
<path fill="none" stroke="black" d="M956,-122.03C956,-138.4 956,-160 956,-160 956,-160 1295.11,-160 1295.11,-160"/>
<polygon fill="black" stroke="black" points="1295.11,-163.5 1305.11,-160 1295.11,-156.5 1295.11,-163.5"/>
</g>
<!-- H5PEditorUc -->
<g id="node14" class="node">
<title>H5PEditorUc</title>
<ellipse fill="#fdb462" stroke="black" cx="795" cy="-104" rx="63.7" ry="18"/>
<text text-anchor="middle" x="795" y="-99.8" font-family="Times,serif" font-size="14.00">H5PEditorUc</text>
</g>
<!-- H5PEditorUc&#45;&gt;H5PEditorTestModule -->
<g id="edge13" class="edge">
<title>H5PEditorUc&#45;&gt;H5PEditorTestModule</title>
<path fill="none" stroke="black" d="M795,-122.3C795,-140.27 795,-165 795,-165 795,-165 1295.34,-165 1295.34,-165"/>
<polygon fill="black" stroke="black" points="1295.34,-168.5 1305.34,-165 1295.34,-161.5 1295.34,-168.5"/>
</g>
<!-- LibraryRepo -->
<g id="node15" class="node">
<title>LibraryRepo</title>
<ellipse fill="#fdb462" stroke="black" cx="653" cy="-104" rx="60.25" ry="18"/>
<text text-anchor="middle" x="653" y="-99.8" font-family="Times,serif" font-size="14.00">LibraryRepo</text>
</g>
<!-- LibraryRepo&#45;&gt;H5PEditorTestModule -->
<g id="edge14" class="edge">
<title>LibraryRepo&#45;&gt;H5PEditorTestModule</title>
<path fill="none" stroke="black" d="M653,-122.11C653,-141.34 653,-169 653,-169 653,-169 1295.27,-169 1295.27,-169"/>
<polygon fill="black" stroke="black" points="1295.27,-172.5 1305.27,-169 1295.27,-165.5 1295.27,-172.5"/>
</g>
<!-- LibraryStorage -->
<g id="node16" class="node">
<title>LibraryStorage</title>
<ellipse fill="#fdb462" stroke="black" cx="505" cy="-104" rx="69.48" ry="18"/>
<text text-anchor="middle" x="505" y="-99.8" font-family="Times,serif" font-size="14.00">LibraryStorage</text>
</g>
<!-- LibraryStorage&#45;&gt;H5PEditorTestModule -->
<g id="edge15" class="edge">
<title>LibraryStorage&#45;&gt;H5PEditorTestModule</title>
<path fill="none" stroke="black" d="M505,-122.03C505,-142.77 505,-174 505,-174 505,-174 1295.27,-174 1295.27,-174"/>
<polygon fill="black" stroke="black" points="1295.27,-177.5 1305.27,-174 1295.27,-170.5 1295.27,-177.5"/>
</g>
<!-- TemporaryFileRepo -->
<g id="node17" class="node">
<title>TemporaryFileRepo</title>
<ellipse fill="#fdb462" stroke="black" cx="328" cy="-104" rx="89.19" ry="18"/>
<text text-anchor="middle" x="328" y="-99.8" font-family="Times,serif" font-size="14.00">TemporaryFileRepo</text>
</g>
<!-- TemporaryFileRepo&#45;&gt;H5PEditorTestModule -->
<g id="edge16" class="edge">
<title>TemporaryFileRepo&#45;&gt;H5PEditorTestModule</title>
<path fill="none" stroke="black" d="M328,-122.29C328,-144.21 328,-178 328,-178 328,-178 1295.31,-178 1295.31,-178"/>
<polygon fill="black" stroke="black" points="1295.31,-181.5 1305.31,-178 1295.31,-174.5 1295.31,-181.5"/>
</g>
<!-- TemporaryFileStorage -->
<g id="node18" class="node">
<title>TemporaryFileStorage</title>
<ellipse fill="#fdb462" stroke="black" cx="122" cy="-104" rx="98.41" ry="18"/>
<text text-anchor="middle" x="122" y="-99.8" font-family="Times,serif" font-size="14.00">TemporaryFileStorage</text>
</g>
<!-- TemporaryFileStorage&#45;&gt;H5PEditorTestModule -->
<g id="edge17" class="edge">
<title>TemporaryFileStorage&#45;&gt;H5PEditorTestModule</title>
<path fill="none" stroke="black" d="M122,-122.32C122,-145.66 122,-183 122,-183 122,-183 1295.02,-183 1295.02,-183"/>
<polygon fill="black" stroke="black" points="1295.02,-186.5 1305.02,-183 1295.02,-179.5 1295.02,-186.5"/>
</g>
</g>
</svg>
