<?xml version="1.0" encoding="UTF-8" standalone="no"?>
<!DOCTYPE svg PUBLIC "-//W3C//DTD SVG 1.1//EN"
 "http://www.w3.org/Graphics/SVG/1.1/DTD/svg11.dtd">
<!-- Generated by graphviz version 2.47.0 (20210316.0004)
 -->
<!-- Title: dependencies Pages: 1 -->
<svg width="2587pt" height="211pt"
 viewBox="0.00 0.00 2587.00 211.00" xmlns="http://www.w3.org/2000/svg" xmlns:xlink="http://www.w3.org/1999/xlink">
<g id="graph0" class="graph" transform="scale(1 1) rotate(0) translate(4 207)">
<title>dependencies</title>
<polygon fill="white" stroke="transparent" points="-4,4 -4,-207 2583,-207 2583,4 -4,4"/>
<text text-anchor="start" x="1268.51" y="-42.4" font-family="Times-12" font-weight="bold" font-size="14.00">Legend</text>
<polygon fill="#ffffb3" stroke="transparent" points="1055.5,-10 1055.5,-30 1075.5,-30 1075.5,-10 1055.5,-10"/>
<text text-anchor="start" x="1079.13" y="-15.4" font-family="Times-12" font-size="14.00"> &#160;Declarations</text>
<polygon fill="#8dd3c7" stroke="transparent" points="1168.5,-10 1168.5,-30 1188.5,-30 1188.5,-10 1168.5,-10"/>
<text text-anchor="start" x="1192.23" y="-15.4" font-family="Times-12" font-size="14.00"> &#160;Module</text>
<polygon fill="#80b1d3" stroke="transparent" points="1254.5,-10 1254.5,-30 1274.5,-30 1274.5,-10 1254.5,-10"/>
<text text-anchor="start" x="1278.28" y="-15.4" font-family="Times-12" font-size="14.00"> &#160;Bootstrap</text>
<polygon fill="#fdb462" stroke="transparent" points="1351.5,-10 1351.5,-30 1371.5,-30 1371.5,-10 1351.5,-10"/>
<text text-anchor="start" x="1375.17" y="-15.4" font-family="Times-12" font-size="14.00"> &#160;Providers</text>
<polygon fill="#fb8072" stroke="transparent" points="1447.5,-10 1447.5,-30 1467.5,-30 1467.5,-10 1447.5,-10"/>
<text text-anchor="start" x="1471.23" y="-15.4" font-family="Times-12" font-size="14.00"> &#160;Exports</text>
<g id="clust1" class="cluster">
<title>cluster_H5PEditorTestModule</title>
<polygon fill="none" stroke="black" stroke-dasharray="1,5" points="8,-70 8,-195 2571,-195 2571,-70 8,-70"/>
</g>
<g id="clust6" class="cluster">
<title>cluster_H5PEditorTestModule_providers</title>
<polygon fill="none" stroke="black" points="1573,-78 1573,-130 2563,-130 2563,-78 1573,-78"/>
</g>
<g id="clust3" class="cluster">
<title>cluster_H5PEditorTestModule_imports</title>
<polygon fill="none" stroke="black" points="16,-78 16,-130 1565,-130 1565,-78 16,-78"/>
</g>
<!-- AuthenticationApiModule -->
<g id="node1" class="node">
<title>AuthenticationApiModule</title>
<polygon fill="#8dd3c7" stroke="black" points="1556.75,-122 1553.75,-126 1532.75,-126 1529.75,-122 1393.25,-122 1393.25,-86 1556.75,-86 1556.75,-122"/>
<text text-anchor="middle" x="1475" y="-99.8" font-family="Times,serif" font-size="14.00">AuthenticationApiModule</text>
</g>
<!-- H5PEditorTestModule -->
<g id="node11" class="node">
<title>H5PEditorTestModule</title>
<polygon fill="#8dd3c7" stroke="black" points="1287.54,-187 1284.54,-191 1263.54,-191 1260.54,-187 1144.46,-187 1144.46,-151 1287.54,-151 1287.54,-187"/>
<text text-anchor="middle" x="1216" y="-164.8" font-family="Times,serif" font-size="14.00">H5PEditorTestModule</text>
</g>
<!-- AuthenticationApiModule&#45;&gt;H5PEditorTestModule -->
<g id="edge1" class="edge">
<title>AuthenticationApiModule&#45;&gt;H5PEditorTestModule</title>
<path fill="none" stroke="black" d="M1475,-122.19C1475,-137.18 1475,-156 1475,-156 1475,-156 1297.8,-156 1297.8,-156"/>
<polygon fill="black" stroke="black" points="1297.8,-152.5 1287.8,-156 1297.8,-159.5 1297.8,-152.5"/>
</g>
<!-- AuthenticationModule -->
<g id="node2" class="node">
<title>AuthenticationModule</title>
<polygon fill="#8dd3c7" stroke="black" points="1375.25,-122 1372.25,-126 1351.25,-126 1348.25,-122 1232.75,-122 1232.75,-86 1375.25,-86 1375.25,-122"/>
<text text-anchor="middle" x="1304" y="-99.8" font-family="Times,serif" font-size="14.00">AuthenticationModule</text>
</g>
<!-- AuthenticationModule&#45;&gt;H5PEditorTestModule -->
<g id="edge2" class="edge">
<title>AuthenticationModule&#45;&gt;H5PEditorTestModule</title>
<path fill="none" stroke="black" d="M1260.2,-122.11C1260.2,-122.11 1260.2,-140.99 1260.2,-140.99"/>
<polygon fill="black" stroke="black" points="1256.7,-140.99 1260.2,-150.99 1263.7,-140.99 1256.7,-140.99"/>
</g>
<!-- AuthorizationClientModule -->
<g id="node3" class="node">
<title>AuthorizationClientModule</title>
<polygon fill="#8dd3c7" stroke="black" points="1214.53,-122 1211.53,-126 1190.53,-126 1187.53,-122 1043.47,-122 1043.47,-86 1214.53,-86 1214.53,-122"/>
<text text-anchor="middle" x="1129" y="-99.8" font-family="Times,serif" font-size="14.00">AuthorizationClientModule</text>
</g>
<!-- AuthorizationClientModule&#45;&gt;H5PEditorTestModule -->
<g id="edge3" class="edge">
<title>AuthorizationClientModule&#45;&gt;H5PEditorTestModule</title>
<path fill="none" stroke="black" d="M1179.5,-122.11C1179.5,-122.11 1179.5,-140.99 1179.5,-140.99"/>
<polygon fill="black" stroke="black" points="1176,-140.99 1179.5,-150.99 1183,-140.99 1176,-140.99"/>
</g>
<!-- CoreModule -->
<g id="node4" class="node">
<title>CoreModule</title>
<polygon fill="#8dd3c7" stroke="black" points="1025.26,-122 1022.26,-126 1001.26,-126 998.26,-122 938.74,-122 938.74,-86 1025.26,-86 1025.26,-122"/>
<text text-anchor="middle" x="982" y="-99.8" font-family="Times,serif" font-size="14.00">CoreModule</text>
</g>
<!-- CoreModule&#45;&gt;H5PEditorTestModule -->
<g id="edge4" class="edge">
<title>CoreModule&#45;&gt;H5PEditorTestModule</title>
<path fill="none" stroke="black" d="M982,-122.19C982,-137.18 982,-156 982,-156 982,-156 1134.2,-156 1134.2,-156"/>
<polygon fill="black" stroke="black" points="1134.2,-159.5 1144.2,-156 1134.2,-152.5 1134.2,-159.5"/>
</g>
<!-- H5PEditorModule -->
<g id="node5" class="node">
<title>H5PEditorModule</title>
<polygon fill="#8dd3c7" stroke="black" points="920.93,-122 917.93,-126 896.93,-126 893.93,-122 801.07,-122 801.07,-86 920.93,-86 920.93,-122"/>
<text text-anchor="middle" x="861" y="-99.8" font-family="Times,serif" font-size="14.00">H5PEditorModule</text>
</g>
<!-- H5PEditorModule&#45;&gt;H5PEditorTestModule -->
<g id="edge5" class="edge">
<title>H5PEditorModule&#45;&gt;H5PEditorTestModule</title>
<path fill="none" stroke="black" d="M861,-122.03C861,-138.4 861,-160 861,-160 861,-160 1134.16,-160 1134.16,-160"/>
<polygon fill="black" stroke="black" points="1134.16,-163.5 1144.16,-160 1134.16,-156.5 1134.16,-163.5"/>
</g>
<!-- LoggerModule -->
<g id="node6" class="node">
<title>LoggerModule</title>
<polygon fill="#8dd3c7" stroke="black" points="782.98,-122 779.98,-126 758.98,-126 755.98,-122 683.02,-122 683.02,-86 782.98,-86 782.98,-122"/>
<text text-anchor="middle" x="733" y="-99.8" font-family="Times,serif" font-size="14.00">LoggerModule</text>
</g>
<!-- LoggerModule&#45;&gt;H5PEditorTestModule -->
<g id="edge6" class="edge">
<title>LoggerModule&#45;&gt;H5PEditorTestModule</title>
<path fill="none" stroke="black" d="M733,-122.3C733,-140.27 733,-165 733,-165 733,-165 1134.21,-165 1134.21,-165"/>
<polygon fill="black" stroke="black" points="1134.21,-168.5 1144.21,-165 1134.21,-161.5 1134.21,-168.5"/>
</g>
<!-- MongoMemoryDatabaseModule -->
<g id="node7" class="node">
<title>MongoMemoryDatabaseModule</title>
<polygon fill="#8dd3c7" stroke="black" points="664.51,-122 661.51,-126 640.51,-126 637.51,-122 465.49,-122 465.49,-86 664.51,-86 664.51,-122"/>
<text text-anchor="middle" x="565" y="-99.8" font-family="Times,serif" font-size="14.00">MongoMemoryDatabaseModule</text>
</g>
<!-- MongoMemoryDatabaseModule&#45;&gt;H5PEditorTestModule -->
<g id="edge7" class="edge">
<title>MongoMemoryDatabaseModule&#45;&gt;H5PEditorTestModule</title>
<path fill="none" stroke="black" d="M565,-122.11C565,-141.34 565,-169 565,-169 565,-169 1134.16,-169 1134.16,-169"/>
<polygon fill="black" stroke="black" points="1134.16,-172.5 1144.16,-169 1134.16,-165.5 1134.16,-172.5"/>
</g>
<!-- RabbitMQWrapperTestModule -->
<g id="node8" class="node">
<title>RabbitMQWrapperTestModule</title>
<polygon fill="#8dd3c7" stroke="black" points="447,-122 444,-126 423,-126 420,-122 255,-122 255,-86 447,-86 447,-122"/>
<text text-anchor="middle" x="351" y="-99.8" font-family="Times,serif" font-size="14.00">RabbitMQWrapperTestModule</text>
</g>
<!-- RabbitMQWrapperTestModule&#45;&gt;H5PEditorTestModule -->
<g id="edge8" class="edge">
<title>RabbitMQWrapperTestModule&#45;&gt;H5PEditorTestModule</title>
<path fill="none" stroke="black" d="M351,-122.03C351,-142.77 351,-174 351,-174 351,-174 1134.11,-174 1134.11,-174"/>
<polygon fill="black" stroke="black" points="1134.11,-177.5 1144.11,-174 1134.11,-170.5 1134.11,-177.5"/>
</g>
<!-- S3ClientModule -->
<g id="node9" class="node">
<title>S3ClientModule</title>
<polygon fill="#8dd3c7" stroke="black" points="236.06,-122 233.06,-126 212.06,-126 209.06,-122 127.94,-122 127.94,-86 236.06,-86 236.06,-122"/>
<text text-anchor="middle" x="182" y="-99.8" font-family="Times,serif" font-size="14.00">S3ClientModule</text>
</g>
<!-- S3ClientModule&#45;&gt;H5PEditorTestModule -->
<g id="edge9" class="edge">
<title>S3ClientModule&#45;&gt;H5PEditorTestModule</title>
<path fill="none" stroke="black" d="M182,-122.29C182,-144.21 182,-178 182,-178 182,-178 1134.11,-178 1134.11,-178"/>
<polygon fill="black" stroke="black" points="1134.11,-181.5 1144.11,-178 1134.11,-174.5 1134.11,-181.5"/>
</g>
<!-- UserModule -->
<g id="node10" class="node">
<title>UserModule</title>
<polygon fill="#8dd3c7" stroke="black" points="109.98,-122 106.98,-126 85.98,-126 82.98,-122 24.02,-122 24.02,-86 109.98,-86 109.98,-122"/>
<text text-anchor="middle" x="67" y="-99.8" font-family="Times,serif" font-size="14.00">UserModule</text>
</g>
<!-- UserModule&#45;&gt;H5PEditorTestModule -->
<g id="edge10" class="edge">
<title>UserModule&#45;&gt;H5PEditorTestModule</title>
<path fill="none" stroke="black" d="M67,-122.32C67,-145.66 67,-183 67,-183 67,-183 1134.12,-183 1134.12,-183"/>
<polygon fill="black" stroke="black" points="1134.12,-186.5 1144.12,-183 1134.12,-179.5 1134.12,-186.5"/>
</g>
<!-- ContentStorage -->
<g id="node12" class="node">
<title>ContentStorage</title>
<ellipse fill="#fdb462" stroke="black" cx="2484" cy="-104" rx="71.23" ry="18"/>
<text text-anchor="middle" x="2484" y="-99.8" font-family="Times,serif" font-size="14.00">ContentStorage</text>
</g>
<!-- ContentStorage&#45;&gt;H5PEditorTestModule -->
<g id="edge11" class="edge">
<title>ContentStorage&#45;&gt;H5PEditorTestModule</title>
<path fill="none" stroke="black" d="M2484,-122.32C2484,-145.66 2484,-183 2484,-183 2484,-183 1297.81,-183 1297.81,-183"/>
<polygon fill="black" stroke="black" points="1297.81,-179.5 1287.81,-183 1297.81,-186.5 1297.81,-179.5"/>
</g>
<!-- H5PContentRepo -->
<g id="node13" class="node">
<title>H5PContentRepo</title>
<ellipse fill="#fdb462" stroke="black" cx="2316" cy="-104" rx="79.34" ry="18"/>
<text text-anchor="middle" x="2316" y="-99.8" font-family="Times,serif" font-size="14.00">H5PContentRepo</text>
</g>
<!-- H5PContentRepo&#45;&gt;H5PEditorTestModule -->
<g id="edge12" class="edge">
<title>H5PContentRepo&#45;&gt;H5PEditorTestModule</title>
<path fill="none" stroke="black" d="M2316,-122.29C2316,-144.21 2316,-178 2316,-178 2316,-178 1297.75,-178 1297.75,-178"/>
<polygon fill="black" stroke="black" points="1297.75,-174.5 1287.75,-178 1297.75,-181.5 1297.75,-174.5"/>
</g>
<!-- H5PEditorUc -->
<g id="node14" class="node">
<title>H5PEditorUc</title>
<ellipse fill="#fdb462" stroke="black" cx="2155" cy="-104" rx="63.7" ry="18"/>
<text text-anchor="middle" x="2155" y="-99.8" font-family="Times,serif" font-size="14.00">H5PEditorUc</text>
</g>
<!-- H5PEditorUc&#45;&gt;H5PEditorTestModule -->
<g id="edge13" class="edge">
<title>H5PEditorUc&#45;&gt;H5PEditorTestModule</title>
<path fill="none" stroke="black" d="M2155,-122.03C2155,-142.77 2155,-174 2155,-174 2155,-174 1297.74,-174 1297.74,-174"/>
<polygon fill="black" stroke="black" points="1297.74,-170.5 1287.74,-174 1297.73,-177.5 1297.74,-170.5"/>
</g>
<!-- LibraryRepo -->
<g id="node15" class="node">
<title>LibraryRepo</title>
<ellipse fill="#fdb462" stroke="black" cx="2013" cy="-104" rx="60.25" ry="18"/>
<text text-anchor="middle" x="2013" y="-99.8" font-family="Times,serif" font-size="14.00">LibraryRepo</text>
</g>
<!-- LibraryRepo&#45;&gt;H5PEditorTestModule -->
<g id="edge14" class="edge">
<title>LibraryRepo&#45;&gt;H5PEditorTestModule</title>
<path fill="none" stroke="black" d="M2013,-122.11C2013,-141.34 2013,-169 2013,-169 2013,-169 1297.78,-169 1297.78,-169"/>
<polygon fill="black" stroke="black" points="1297.78,-165.5 1287.78,-169 1297.78,-172.5 1297.78,-165.5"/>
</g>
<!-- LibraryStorage -->
<g id="node16" class="node">
<title>LibraryStorage</title>
<ellipse fill="#fdb462" stroke="black" cx="1865" cy="-104" rx="69.48" ry="18"/>
<text text-anchor="middle" x="1865" y="-99.8" font-family="Times,serif" font-size="14.00">LibraryStorage</text>
</g>
<!-- LibraryStorage&#45;&gt;H5PEditorTestModule -->
<g id="edge15" class="edge">
<title>LibraryStorage&#45;&gt;H5PEditorTestModule</title>
<path fill="none" stroke="black" d="M1865,-122.3C1865,-140.27 1865,-165 1865,-165 1865,-165 1297.62,-165 1297.62,-165"/>
<polygon fill="black" stroke="black" points="1297.62,-161.5 1287.62,-165 1297.62,-168.5 1297.62,-161.5"/>
</g>
<!-- TemporaryFileStorage -->
<g id="node17" class="node">
<title>TemporaryFileStorage</title>
<ellipse fill="#fdb462" stroke="black" cx="1679" cy="-104" rx="98.41" ry="18"/>
<text text-anchor="middle" x="1679" y="-99.8" font-family="Times,serif" font-size="14.00">TemporaryFileStorage</text>
</g>
<!-- TemporaryFileStorage&#45;&gt;H5PEditorTestModule -->
<g id="edge16" class="edge">
<title>TemporaryFileStorage&#45;&gt;H5PEditorTestModule</title>
<path fill="none" stroke="black" d="M1679,-122.03C1679,-138.4 1679,-160 1679,-160 1679,-160 1297.58,-160 1297.58,-160"/>
<polygon fill="black" stroke="black" points="1297.58,-156.5 1287.58,-160 1297.58,-163.5 1297.58,-156.5"/>
</g>
</g>
</svg>
