<?xml version="1.0" encoding="UTF-8" standalone="no"?>
<!DOCTYPE svg PUBLIC "-//W3C//DTD SVG 1.1//EN"
 "http://www.w3.org/Graphics/SVG/1.1/DTD/svg11.dtd">
<!-- Generated by graphviz version 2.47.0 (20210316.0004)
 -->
<!-- Title: dependencies Pages: 1 -->
<svg width="2609pt" height="211pt"
 viewBox="0.00 0.00 2609.00 211.00" xmlns="http://www.w3.org/2000/svg" xmlns:xlink="http://www.w3.org/1999/xlink">
<g id="graph0" class="graph" transform="scale(1 1) rotate(0) translate(4 207)">
<title>dependencies</title>
<polygon fill="white" stroke="transparent" points="-4,4 -4,-207 2605,-207 2605,4 -4,4"/>
<text text-anchor="start" x="1279.51" y="-42.4" font-family="Times-12" font-weight="bold" font-size="14.00">Legend</text>
<polygon fill="#ffffb3" stroke="transparent" points="1066.5,-10 1066.5,-30 1086.5,-30 1086.5,-10 1066.5,-10"/>
<text text-anchor="start" x="1090.13" y="-15.4" font-family="Times-12" font-size="14.00"> &#160;Declarations</text>
<polygon fill="#8dd3c7" stroke="transparent" points="1179.5,-10 1179.5,-30 1199.5,-30 1199.5,-10 1179.5,-10"/>
<text text-anchor="start" x="1203.23" y="-15.4" font-family="Times-12" font-size="14.00"> &#160;Module</text>
<polygon fill="#80b1d3" stroke="transparent" points="1265.5,-10 1265.5,-30 1285.5,-30 1285.5,-10 1265.5,-10"/>
<text text-anchor="start" x="1289.28" y="-15.4" font-family="Times-12" font-size="14.00"> &#160;Bootstrap</text>
<polygon fill="#fdb462" stroke="transparent" points="1362.5,-10 1362.5,-30 1382.5,-30 1382.5,-10 1362.5,-10"/>
<text text-anchor="start" x="1386.17" y="-15.4" font-family="Times-12" font-size="14.00"> &#160;Providers</text>
<polygon fill="#fb8072" stroke="transparent" points="1458.5,-10 1458.5,-30 1478.5,-30 1478.5,-10 1458.5,-10"/>
<text text-anchor="start" x="1482.23" y="-15.4" font-family="Times-12" font-size="14.00"> &#160;Exports</text>
<g id="clust1" class="cluster">
<title>cluster_H5PEditorTestModule</title>
<polygon fill="none" stroke="black" stroke-dasharray="1,5" points="8,-70 8,-195 2593,-195 2593,-70 8,-70"/>
</g>
<g id="clust6" class="cluster">
<title>cluster_H5PEditorTestModule_providers</title>
<polygon fill="none" stroke="black" points="1595,-78 1595,-130 2585,-130 2585,-78 1595,-78"/>
</g>
<g id="clust3" class="cluster">
<title>cluster_H5PEditorTestModule_imports</title>
<polygon fill="none" stroke="black" points="16,-78 16,-130 1587,-130 1587,-78 16,-78"/>
</g>
<!-- AuthenticationApiModule -->
<g id="node1" class="node">
<title>AuthenticationApiModule</title>
<polygon fill="#8dd3c7" stroke="black" points="1578.75,-122 1575.75,-126 1554.75,-126 1551.75,-122 1415.25,-122 1415.25,-86 1578.75,-86 1578.75,-122"/>
<text text-anchor="middle" x="1497" y="-99.8" font-family="Times,serif" font-size="14.00">AuthenticationApiModule</text>
</g>
<!-- H5PEditorTestModule -->
<g id="node11" class="node">
<title>H5PEditorTestModule</title>
<polygon fill="#8dd3c7" stroke="black" points="1304.54,-187 1301.54,-191 1280.54,-191 1277.54,-187 1161.46,-187 1161.46,-151 1304.54,-151 1304.54,-187"/>
<text text-anchor="middle" x="1233" y="-164.8" font-family="Times,serif" font-size="14.00">H5PEditorTestModule</text>
</g>
<!-- AuthenticationApiModule&#45;&gt;H5PEditorTestModule -->
<g id="edge1" class="edge">
<title>AuthenticationApiModule&#45;&gt;H5PEditorTestModule</title>
<path fill="none" stroke="black" d="M1497,-122.19C1497,-137.18 1497,-156 1497,-156 1497,-156 1314.79,-156 1314.79,-156"/>
<polygon fill="black" stroke="black" points="1314.79,-152.5 1304.79,-156 1314.79,-159.5 1314.79,-152.5"/>
</g>
<!-- AuthenticationModule -->
<g id="node2" class="node">
<title>AuthenticationModule</title>
<polygon fill="#8dd3c7" stroke="black" points="1397.25,-122 1394.25,-126 1373.25,-126 1370.25,-122 1254.75,-122 1254.75,-86 1397.25,-86 1397.25,-122"/>
<text text-anchor="middle" x="1326" y="-99.8" font-family="Times,serif" font-size="14.00">AuthenticationModule</text>
</g>
<!-- AuthenticationModule&#45;&gt;H5PEditorTestModule -->
<g id="edge2" class="edge">
<title>AuthenticationModule&#45;&gt;H5PEditorTestModule</title>
<path fill="none" stroke="black" d="M1279.7,-122.11C1279.7,-122.11 1279.7,-140.99 1279.7,-140.99"/>
<polygon fill="black" stroke="black" points="1276.2,-140.99 1279.7,-150.99 1283.2,-140.99 1276.2,-140.99"/>
</g>
<!-- AuthorizationReferenceModule -->
<g id="node3" class="node">
<title>AuthorizationReferenceModule</title>
<polygon fill="#8dd3c7" stroke="black" points="1237.04,-122 1234.04,-126 1213.04,-126 1210.04,-122 1042.96,-122 1042.96,-86 1237.04,-86 1237.04,-122"/>
<text text-anchor="middle" x="1140" y="-99.8" font-family="Times,serif" font-size="14.00">AuthorizationReferenceModule</text>
</g>
<!-- AuthorizationReferenceModule&#45;&gt;H5PEditorTestModule -->
<g id="edge3" class="edge">
<title>AuthorizationReferenceModule&#45;&gt;H5PEditorTestModule</title>
<path fill="none" stroke="black" d="M1199.13,-122.11C1199.13,-122.11 1199.13,-140.99 1199.13,-140.99"/>
<polygon fill="black" stroke="black" points="1195.63,-140.99 1199.13,-150.99 1202.63,-140.99 1195.63,-140.99"/>
</g>
<!-- CoreModule -->
<g id="node4" class="node">
<title>CoreModule</title>
<polygon fill="#8dd3c7" stroke="black" points="1025.26,-122 1022.26,-126 1001.26,-126 998.26,-122 938.74,-122 938.74,-86 1025.26,-86 1025.26,-122"/>
<text text-anchor="middle" x="982" y="-99.8" font-family="Times,serif" font-size="14.00">CoreModule</text>
</g>
<!-- CoreModule&#45;&gt;H5PEditorTestModule -->
<g id="edge4" class="edge">
<title>CoreModule&#45;&gt;H5PEditorTestModule</title>
<path fill="none" stroke="black" d="M982,-122.19C982,-137.18 982,-156 982,-156 982,-156 1151.41,-156 1151.41,-156"/>
<polygon fill="black" stroke="black" points="1151.41,-159.5 1161.41,-156 1151.41,-152.5 1151.41,-159.5"/>
</g>
<!-- H5PEditorModule -->
<g id="node5" class="node">
<title>H5PEditorModule</title>
<polygon fill="#8dd3c7" stroke="black" points="920.93,-122 917.93,-126 896.93,-126 893.93,-122 801.07,-122 801.07,-86 920.93,-86 920.93,-122"/>
<text text-anchor="middle" x="861" y="-99.8" font-family="Times,serif" font-size="14.00">H5PEditorModule</text>
</g>
<!-- H5PEditorModule&#45;&gt;H5PEditorTestModule -->
<g id="edge5" class="edge">
<title>H5PEditorModule&#45;&gt;H5PEditorTestModule</title>
<path fill="none" stroke="black" d="M861,-122.03C861,-138.4 861,-160 861,-160 861,-160 1151.27,-160 1151.27,-160"/>
<polygon fill="black" stroke="black" points="1151.27,-163.5 1161.27,-160 1151.27,-156.5 1151.27,-163.5"/>
</g>
<!-- LoggerModule -->
<g id="node6" class="node">
<title>LoggerModule</title>
<polygon fill="#8dd3c7" stroke="black" points="782.98,-122 779.98,-126 758.98,-126 755.98,-122 683.02,-122 683.02,-86 782.98,-86 782.98,-122"/>
<text text-anchor="middle" x="733" y="-99.8" font-family="Times,serif" font-size="14.00">LoggerModule</text>
</g>
<!-- LoggerModule&#45;&gt;H5PEditorTestModule -->
<g id="edge6" class="edge">
<title>LoggerModule&#45;&gt;H5PEditorTestModule</title>
<path fill="none" stroke="black" d="M733,-122.3C733,-140.27 733,-165 733,-165 733,-165 1151.36,-165 1151.36,-165"/>
<polygon fill="black" stroke="black" points="1151.36,-168.5 1161.36,-165 1151.36,-161.5 1151.36,-168.5"/>
</g>
<!-- MongoMemoryDatabaseModule -->
<g id="node7" class="node">
<title>MongoMemoryDatabaseModule</title>
<polygon fill="#8dd3c7" stroke="black" points="664.51,-122 661.51,-126 640.51,-126 637.51,-122 465.49,-122 465.49,-86 664.51,-86 664.51,-122"/>
<text text-anchor="middle" x="565" y="-99.8" font-family="Times,serif" font-size="14.00">MongoMemoryDatabaseModule</text>
</g>
<!-- MongoMemoryDatabaseModule&#45;&gt;H5PEditorTestModule -->
<g id="edge7" class="edge">
<title>MongoMemoryDatabaseModule&#45;&gt;H5PEditorTestModule</title>
<path fill="none" stroke="black" d="M565,-122.11C565,-141.34 565,-169 565,-169 565,-169 1151.2,-169 1151.2,-169"/>
<polygon fill="black" stroke="black" points="1151.2,-172.5 1161.2,-169 1151.2,-165.5 1151.2,-172.5"/>
</g>
<!-- RabbitMQWrapperTestModule -->
<g id="node8" class="node">
<title>RabbitMQWrapperTestModule</title>
<polygon fill="#8dd3c7" stroke="black" points="447,-122 444,-126 423,-126 420,-122 255,-122 255,-86 447,-86 447,-122"/>
<text text-anchor="middle" x="351" y="-99.8" font-family="Times,serif" font-size="14.00">RabbitMQWrapperTestModule</text>
</g>
<!-- RabbitMQWrapperTestModule&#45;&gt;H5PEditorTestModule -->
<g id="edge8" class="edge">
<title>RabbitMQWrapperTestModule&#45;&gt;H5PEditorTestModule</title>
<path fill="none" stroke="black" d="M351,-122.03C351,-142.77 351,-174 351,-174 351,-174 1151.2,-174 1151.2,-174"/>
<polygon fill="black" stroke="black" points="1151.2,-177.5 1161.2,-174 1151.2,-170.5 1151.2,-177.5"/>
</g>
<!-- S3ClientModule -->
<g id="node9" class="node">
<title>S3ClientModule</title>
<polygon fill="#8dd3c7" stroke="black" points="236.06,-122 233.06,-126 212.06,-126 209.06,-122 127.94,-122 127.94,-86 236.06,-86 236.06,-122"/>
<text text-anchor="middle" x="182" y="-99.8" font-family="Times,serif" font-size="14.00">S3ClientModule</text>
</g>
<!-- S3ClientModule&#45;&gt;H5PEditorTestModule -->
<g id="edge9" class="edge">
<title>S3ClientModule&#45;&gt;H5PEditorTestModule</title>
<path fill="none" stroke="black" d="M182,-122.29C182,-144.21 182,-178 182,-178 182,-178 1151.17,-178 1151.17,-178"/>
<polygon fill="black" stroke="black" points="1151.17,-181.5 1161.17,-178 1151.17,-174.5 1151.17,-181.5"/>
</g>
<!-- UserModule -->
<g id="node10" class="node">
<title>UserModule</title>
<polygon fill="#8dd3c7" stroke="black" points="109.98,-122 106.98,-126 85.98,-126 82.98,-122 24.02,-122 24.02,-86 109.98,-86 109.98,-122"/>
<text text-anchor="middle" x="67" y="-99.8" font-family="Times,serif" font-size="14.00">UserModule</text>
</g>
<!-- UserModule&#45;&gt;H5PEditorTestModule -->
<g id="edge10" class="edge">
<title>UserModule&#45;&gt;H5PEditorTestModule</title>
<path fill="none" stroke="black" d="M67,-122.32C67,-145.66 67,-183 67,-183 67,-183 1151.38,-183 1151.38,-183"/>
<polygon fill="black" stroke="black" points="1151.38,-186.5 1161.38,-183 1151.38,-179.5 1151.38,-186.5"/>
</g>
<!-- ContentStorage -->
<g id="node12" class="node">
<title>ContentStorage</title>
<ellipse fill="#fdb462" stroke="black" cx="2506" cy="-104" rx="71.23" ry="18"/>
<text text-anchor="middle" x="2506" y="-99.8" font-family="Times,serif" font-size="14.00">ContentStorage</text>
</g>
<!-- ContentStorage&#45;&gt;H5PEditorTestModule -->
<g id="edge11" class="edge">
<title>ContentStorage&#45;&gt;H5PEditorTestModule</title>
<path fill="none" stroke="black" d="M2506,-122.32C2506,-145.66 2506,-183 2506,-183 2506,-183 1314.63,-183 1314.63,-183"/>
<polygon fill="black" stroke="black" points="1314.63,-179.5 1304.63,-183 1314.63,-186.5 1314.63,-179.5"/>
</g>
<!-- H5PContentRepo -->
<g id="node13" class="node">
<title>H5PContentRepo</title>
<ellipse fill="#fdb462" stroke="black" cx="2338" cy="-104" rx="79.34" ry="18"/>
<text text-anchor="middle" x="2338" y="-99.8" font-family="Times,serif" font-size="14.00">H5PContentRepo</text>
</g>
<!-- H5PContentRepo&#45;&gt;H5PEditorTestModule -->
<g id="edge12" class="edge">
<title>H5PContentRepo&#45;&gt;H5PEditorTestModule</title>
<path fill="none" stroke="black" d="M2338,-122.29C2338,-144.21 2338,-178 2338,-178 2338,-178 1314.65,-178 1314.65,-178"/>
<polygon fill="black" stroke="black" points="1314.65,-174.5 1304.65,-178 1314.65,-181.5 1314.65,-174.5"/>
</g>
<!-- H5PEditorUc -->
<g id="node14" class="node">
<title>H5PEditorUc</title>
<ellipse fill="#fdb462" stroke="black" cx="2177" cy="-104" rx="63.7" ry="18"/>
<text text-anchor="middle" x="2177" y="-99.8" font-family="Times,serif" font-size="14.00">H5PEditorUc</text>
</g>
<!-- H5PEditorUc&#45;&gt;H5PEditorTestModule -->
<g id="edge13" class="edge">
<title>H5PEditorUc&#45;&gt;H5PEditorTestModule</title>
<path fill="none" stroke="black" d="M2177,-122.03C2177,-142.77 2177,-174 2177,-174 2177,-174 1314.73,-174 1314.73,-174"/>
<polygon fill="black" stroke="black" points="1314.73,-170.5 1304.73,-174 1314.73,-177.5 1314.73,-170.5"/>
</g>
<!-- LibraryRepo -->
<g id="node15" class="node">
<title>LibraryRepo</title>
<ellipse fill="#fdb462" stroke="black" cx="2035" cy="-104" rx="60.25" ry="18"/>
<text text-anchor="middle" x="2035" y="-99.8" font-family="Times,serif" font-size="14.00">LibraryRepo</text>
</g>
<!-- LibraryRepo&#45;&gt;H5PEditorTestModule -->
<g id="edge14" class="edge">
<title>LibraryRepo&#45;&gt;H5PEditorTestModule</title>
<path fill="none" stroke="black" d="M2035,-122.11C2035,-141.34 2035,-169 2035,-169 2035,-169 1314.88,-169 1314.88,-169"/>
<polygon fill="black" stroke="black" points="1314.88,-165.5 1304.88,-169 1314.88,-172.5 1314.88,-165.5"/>
</g>
<!-- LibraryStorage -->
<g id="node16" class="node">
<title>LibraryStorage</title>
<ellipse fill="#fdb462" stroke="black" cx="1887" cy="-104" rx="69.48" ry="18"/>
<text text-anchor="middle" x="1887" y="-99.8" font-family="Times,serif" font-size="14.00">LibraryStorage</text>
</g>
<!-- LibraryStorage&#45;&gt;H5PEditorTestModule -->
<g id="edge15" class="edge">
<title>LibraryStorage&#45;&gt;H5PEditorTestModule</title>
<path fill="none" stroke="black" d="M1887,-122.3C1887,-140.27 1887,-165 1887,-165 1887,-165 1314.55,-165 1314.55,-165"/>
<polygon fill="black" stroke="black" points="1314.55,-161.5 1304.55,-165 1314.55,-168.5 1314.55,-161.5"/>
</g>
<!-- TemporaryFileStorage -->
<g id="node17" class="node">
<title>TemporaryFileStorage</title>
<ellipse fill="#fdb462" stroke="black" cx="1701" cy="-104" rx="98.41" ry="18"/>
<text text-anchor="middle" x="1701" y="-99.8" font-family="Times,serif" font-size="14.00">TemporaryFileStorage</text>
</g>
<!-- TemporaryFileStorage&#45;&gt;H5PEditorTestModule -->
<g id="edge16" class="edge">
<title>TemporaryFileStorage&#45;&gt;H5PEditorTestModule</title>
<path fill="none" stroke="black" d="M1701,-122.03C1701,-138.4 1701,-160 1701,-160 1701,-160 1314.59,-160 1314.59,-160"/>
<polygon fill="black" stroke="black" points="1314.59,-156.5 1304.59,-160 1314.59,-163.5 1314.59,-156.5"/>
</g>
</g>
</svg>
