<?xml version="1.0" encoding="UTF-8" standalone="no"?>
<!DOCTYPE svg PUBLIC "-//W3C//DTD SVG 1.1//EN"
 "http://www.w3.org/Graphics/SVG/1.1/DTD/svg11.dtd">
<!-- Generated by graphviz version 2.47.0 (20210316.0004)
 -->
<!-- Title: dependencies Pages: 1 -->
<svg width="2806pt" height="211pt"
 viewBox="0.00 0.00 2806.00 211.00" xmlns="http://www.w3.org/2000/svg" xmlns:xlink="http://www.w3.org/1999/xlink">
<g id="graph0" class="graph" transform="scale(1 1) rotate(0) translate(4 207)">
<title>dependencies</title>
<polygon fill="white" stroke="transparent" points="-4,4 -4,-207 2802,-207 2802,4 -4,4"/>
<text text-anchor="start" x="1378.01" y="-42.4" font-family="Times-12" font-weight="bold" font-size="14.00">Legend</text>
<polygon fill="#ffffb3" stroke="transparent" points="1165,-10 1165,-30 1185,-30 1185,-10 1165,-10"/>
<text text-anchor="start" x="1188.63" y="-15.4" font-family="Times-12" font-size="14.00"> &#160;Declarations</text>
<polygon fill="#8dd3c7" stroke="transparent" points="1278,-10 1278,-30 1298,-30 1298,-10 1278,-10"/>
<text text-anchor="start" x="1301.73" y="-15.4" font-family="Times-12" font-size="14.00"> &#160;Module</text>
<polygon fill="#80b1d3" stroke="transparent" points="1364,-10 1364,-30 1384,-30 1384,-10 1364,-10"/>
<text text-anchor="start" x="1387.78" y="-15.4" font-family="Times-12" font-size="14.00"> &#160;Bootstrap</text>
<polygon fill="#fdb462" stroke="transparent" points="1461,-10 1461,-30 1481,-30 1481,-10 1461,-10"/>
<text text-anchor="start" x="1484.67" y="-15.4" font-family="Times-12" font-size="14.00"> &#160;Providers</text>
<polygon fill="#fb8072" stroke="transparent" points="1557,-10 1557,-30 1577,-30 1577,-10 1557,-10"/>
<text text-anchor="start" x="1580.73" y="-15.4" font-family="Times-12" font-size="14.00"> &#160;Exports</text>
<g id="clust1" class="cluster">
<title>cluster_H5PEditorTestModule</title>
<polygon fill="none" stroke="black" stroke-dasharray="1,5" points="8,-70 8,-195 2790,-195 2790,-70 8,-70"/>
</g>
<g id="clust6" class="cluster">
<title>cluster_H5PEditorTestModule_providers</title>
<polygon fill="none" stroke="black" points="1595,-78 1595,-130 2782,-130 2782,-78 1595,-78"/>
</g>
<g id="clust3" class="cluster">
<title>cluster_H5PEditorTestModule_imports</title>
<polygon fill="none" stroke="black" points="16,-78 16,-130 1587,-130 1587,-78 16,-78"/>
</g>
<!-- AuthenticationApiModule -->
<g id="node1" class="node">
<title>AuthenticationApiModule</title>
<polygon fill="#8dd3c7" stroke="black" points="1578.75,-122 1575.75,-126 1554.75,-126 1551.75,-122 1415.25,-122 1415.25,-86 1578.75,-86 1578.75,-122"/>
<text text-anchor="middle" x="1497" y="-99.8" font-family="Times,serif" font-size="14.00">AuthenticationApiModule</text>
</g>
<!-- H5PEditorTestModule -->
<g id="node11" class="node">
<title>H5PEditorTestModule</title>
<polygon fill="#8dd3c7" stroke="black" points="1397.54,-187 1394.54,-191 1373.54,-191 1370.54,-187 1254.46,-187 1254.46,-151 1397.54,-151 1397.54,-187"/>
<text text-anchor="middle" x="1326" y="-164.8" font-family="Times,serif" font-size="14.00">H5PEditorTestModule</text>
</g>
<!-- AuthenticationApiModule&#45;&gt;H5PEditorTestModule -->
<g id="edge1" class="edge">
<title>AuthenticationApiModule&#45;&gt;H5PEditorTestModule</title>
<path fill="none" stroke="black" d="M1497,-122.12C1497,-136.78 1497,-155 1497,-155 1497,-155 1408.02,-155 1408.02,-155"/>
<polygon fill="black" stroke="black" points="1408.02,-151.5 1398.02,-155 1408.02,-158.5 1408.02,-151.5"/>
</g>
<!-- AuthenticationModule -->
<g id="node2" class="node">
<title>AuthenticationModule</title>
<polygon fill="#8dd3c7" stroke="black" points="1397.25,-122 1394.25,-126 1373.25,-126 1370.25,-122 1254.75,-122 1254.75,-86 1397.25,-86 1397.25,-122"/>
<text text-anchor="middle" x="1326" y="-99.8" font-family="Times,serif" font-size="14.00">AuthenticationModule</text>
</g>
<!-- AuthenticationModule&#45;&gt;H5PEditorTestModule -->
<g id="edge2" class="edge">
<title>AuthenticationModule&#45;&gt;H5PEditorTestModule</title>
<path fill="none" stroke="black" d="M1326,-122.11C1326,-122.11 1326,-140.99 1326,-140.99"/>
<polygon fill="black" stroke="black" points="1322.5,-140.99 1326,-150.99 1329.5,-140.99 1322.5,-140.99"/>
</g>
<!-- AuthorizationReferenceModule -->
<g id="node3" class="node">
<title>AuthorizationReferenceModule</title>
<polygon fill="#8dd3c7" stroke="black" points="1237.04,-122 1234.04,-126 1213.04,-126 1210.04,-122 1042.96,-122 1042.96,-86 1237.04,-86 1237.04,-122"/>
<text text-anchor="middle" x="1140" y="-99.8" font-family="Times,serif" font-size="14.00">AuthorizationReferenceModule</text>
</g>
<!-- AuthorizationReferenceModule&#45;&gt;H5PEditorTestModule -->
<g id="edge3" class="edge">
<title>AuthorizationReferenceModule&#45;&gt;H5PEditorTestModule</title>
<path fill="none" stroke="black" d="M1140,-122.12C1140,-136.78 1140,-155 1140,-155 1140,-155 1244.35,-155 1244.35,-155"/>
<polygon fill="black" stroke="black" points="1244.35,-158.5 1254.35,-155 1244.35,-151.5 1244.35,-158.5"/>
</g>
<!-- CoreModule -->
<g id="node4" class="node">
<title>CoreModule</title>
<polygon fill="#8dd3c7" stroke="black" points="1025.26,-122 1022.26,-126 1001.26,-126 998.26,-122 938.74,-122 938.74,-86 1025.26,-86 1025.26,-122"/>
<text text-anchor="middle" x="982" y="-99.8" font-family="Times,serif" font-size="14.00">CoreModule</text>
</g>
<!-- CoreModule&#45;&gt;H5PEditorTestModule -->
<g id="edge4" class="edge">
<title>CoreModule&#45;&gt;H5PEditorTestModule</title>
<path fill="none" stroke="black" d="M982,-122.01C982,-138.05 982,-159 982,-159 982,-159 1244.31,-159 1244.31,-159"/>
<polygon fill="black" stroke="black" points="1244.31,-162.5 1254.31,-159 1244.31,-155.5 1244.31,-162.5"/>
</g>
<!-- H5PEditorModule -->
<g id="node5" class="node">
<title>H5PEditorModule</title>
<polygon fill="#8dd3c7" stroke="black" points="920.93,-122 917.93,-126 896.93,-126 893.93,-122 801.07,-122 801.07,-86 920.93,-86 920.93,-122"/>
<text text-anchor="middle" x="861" y="-99.8" font-family="Times,serif" font-size="14.00">H5PEditorModule</text>
</g>
<!-- H5PEditorModule&#45;&gt;H5PEditorTestModule -->
<g id="edge5" class="edge">
<title>H5PEditorModule&#45;&gt;H5PEditorTestModule</title>
<path fill="none" stroke="black" d="M861,-122.02C861,-139.37 861,-163 861,-163 861,-163 1244.36,-163 1244.36,-163"/>
<polygon fill="black" stroke="black" points="1244.36,-166.5 1254.36,-163 1244.36,-159.5 1244.36,-166.5"/>
</g>
<!-- LoggerModule -->
<g id="node6" class="node">
<title>LoggerModule</title>
<polygon fill="#8dd3c7" stroke="black" points="782.98,-122 779.98,-126 758.98,-126 755.98,-122 683.02,-122 683.02,-86 782.98,-86 782.98,-122"/>
<text text-anchor="middle" x="733" y="-99.8" font-family="Times,serif" font-size="14.00">LoggerModule</text>
</g>
<!-- LoggerModule&#45;&gt;H5PEditorTestModule -->
<g id="edge6" class="edge">
<title>LoggerModule&#45;&gt;H5PEditorTestModule</title>
<path fill="none" stroke="black" d="M733,-122.22C733,-140.83 733,-167 733,-167 733,-167 1244.18,-167 1244.18,-167"/>
<polygon fill="black" stroke="black" points="1244.18,-170.5 1254.18,-167 1244.18,-163.5 1244.18,-170.5"/>
</g>
<!-- MongoMemoryDatabaseModule -->
<g id="node7" class="node">
<title>MongoMemoryDatabaseModule</title>
<polygon fill="#8dd3c7" stroke="black" points="664.51,-122 661.51,-126 640.51,-126 637.51,-122 465.49,-122 465.49,-86 664.51,-86 664.51,-122"/>
<text text-anchor="middle" x="565" y="-99.8" font-family="Times,serif" font-size="14.00">MongoMemoryDatabaseModule</text>
</g>
<!-- MongoMemoryDatabaseModule&#45;&gt;H5PEditorTestModule -->
<g id="edge7" class="edge">
<title>MongoMemoryDatabaseModule&#45;&gt;H5PEditorTestModule</title>
<path fill="none" stroke="black" d="M565,-122.31C565,-142.15 565,-171 565,-171 565,-171 1244.41,-171 1244.41,-171"/>
<polygon fill="black" stroke="black" points="1244.41,-174.5 1254.41,-171 1244.41,-167.5 1244.41,-174.5"/>
</g>
<!-- RabbitMQWrapperTestModule -->
<g id="node8" class="node">
<title>RabbitMQWrapperTestModule</title>
<polygon fill="#8dd3c7" stroke="black" points="447,-122 444,-126 423,-126 420,-122 255,-122 255,-86 447,-86 447,-122"/>
<text text-anchor="middle" x="351" y="-99.8" font-family="Times,serif" font-size="14.00">RabbitMQWrapperTestModule</text>
</g>
<!-- RabbitMQWrapperTestModule&#45;&gt;H5PEditorTestModule -->
<g id="edge8" class="edge">
<title>RabbitMQWrapperTestModule&#45;&gt;H5PEditorTestModule</title>
<path fill="none" stroke="black" d="M351,-122.28C351,-143.32 351,-175 351,-175 351,-175 1244.31,-175 1244.31,-175"/>
<polygon fill="black" stroke="black" points="1244.31,-178.5 1254.31,-175 1244.31,-171.5 1244.31,-178.5"/>
</g>
<!-- S3ClientModule -->
<g id="node9" class="node">
<title>S3ClientModule</title>
<polygon fill="#8dd3c7" stroke="black" points="236.06,-122 233.06,-126 212.06,-126 209.06,-122 127.94,-122 127.94,-86 236.06,-86 236.06,-122"/>
<text text-anchor="middle" x="182" y="-99.8" font-family="Times,serif" font-size="14.00">S3ClientModule</text>
</g>
<!-- S3ClientModule&#45;&gt;H5PEditorTestModule -->
<g id="edge9" class="edge">
<title>S3ClientModule&#45;&gt;H5PEditorTestModule</title>
<path fill="none" stroke="black" d="M182,-122.16C182,-144.35 182,-179 182,-179 182,-179 1244.44,-179 1244.44,-179"/>
<polygon fill="black" stroke="black" points="1244.44,-182.5 1254.44,-179 1244.44,-175.5 1244.44,-182.5"/>
</g>
<!-- UserModule -->
<g id="node10" class="node">
<title>UserModule</title>
<polygon fill="#8dd3c7" stroke="black" points="109.98,-122 106.98,-126 85.98,-126 82.98,-122 24.02,-122 24.02,-86 109.98,-86 109.98,-122"/>
<text text-anchor="middle" x="67" y="-99.8" font-family="Times,serif" font-size="14.00">UserModule</text>
</g>
<!-- UserModule&#45;&gt;H5PEditorTestModule -->
<g id="edge10" class="edge">
<title>UserModule&#45;&gt;H5PEditorTestModule</title>
<path fill="none" stroke="black" d="M67,-122.32C67,-145.66 67,-183 67,-183 67,-183 1244.25,-183 1244.25,-183"/>
<polygon fill="black" stroke="black" points="1244.25,-186.5 1254.25,-183 1244.25,-179.5 1244.25,-186.5"/>
</g>
<!-- ContentStorage -->
<g id="node12" class="node">
<title>ContentStorage</title>
<ellipse fill="#fdb462" stroke="black" cx="2703" cy="-104" rx="71.23" ry="18"/>
<text text-anchor="middle" x="2703" y="-99.8" font-family="Times,serif" font-size="14.00">ContentStorage</text>
</g>
<!-- ContentStorage&#45;&gt;H5PEditorTestModule -->
<g id="edge11" class="edge">
<title>ContentStorage&#45;&gt;H5PEditorTestModule</title>
<path fill="none" stroke="black" d="M2703,-122.32C2703,-145.66 2703,-183 2703,-183 2703,-183 1407.61,-183 1407.61,-183"/>
<polygon fill="black" stroke="black" points="1407.61,-179.5 1397.61,-183 1407.61,-186.5 1407.61,-179.5"/>
</g>
<!-- H5PContentRepo -->
<g id="node13" class="node">
<title>H5PContentRepo</title>
<ellipse fill="#fdb462" stroke="black" cx="2535" cy="-104" rx="79.34" ry="18"/>
<text text-anchor="middle" x="2535" y="-99.8" font-family="Times,serif" font-size="14.00">H5PContentRepo</text>
</g>
<!-- H5PContentRepo&#45;&gt;H5PEditorTestModule -->
<g id="edge12" class="edge">
<title>H5PContentRepo&#45;&gt;H5PEditorTestModule</title>
<path fill="none" stroke="black" d="M2535,-122.16C2535,-144.35 2535,-179 2535,-179 2535,-179 1407.56,-179 1407.56,-179"/>
<polygon fill="black" stroke="black" points="1407.56,-175.5 1397.56,-179 1407.56,-182.5 1407.56,-175.5"/>
</g>
<!-- H5PEditorUc -->
<g id="node14" class="node">
<title>H5PEditorUc</title>
<ellipse fill="#fdb462" stroke="black" cx="2374" cy="-104" rx="63.7" ry="18"/>
<text text-anchor="middle" x="2374" y="-99.8" font-family="Times,serif" font-size="14.00">H5PEditorUc</text>
</g>
<!-- H5PEditorUc&#45;&gt;H5PEditorTestModule -->
<g id="edge13" class="edge">
<title>H5PEditorUc&#45;&gt;H5PEditorTestModule</title>
<path fill="none" stroke="black" d="M2374,-122.28C2374,-143.32 2374,-175 2374,-175 2374,-175 1407.62,-175 1407.62,-175"/>
<polygon fill="black" stroke="black" points="1407.62,-171.5 1397.62,-175 1407.62,-178.5 1407.62,-171.5"/>
</g>
<!-- LibraryRepo -->
<g id="node15" class="node">
<title>LibraryRepo</title>
<ellipse fill="#fdb462" stroke="black" cx="2232" cy="-104" rx="60.25" ry="18"/>
<text text-anchor="middle" x="2232" y="-99.8" font-family="Times,serif" font-size="14.00">LibraryRepo</text>
</g>
<!-- LibraryRepo&#45;&gt;H5PEditorTestModule -->
<g id="edge14" class="edge">
<title>LibraryRepo&#45;&gt;H5PEditorTestModule</title>
<path fill="none" stroke="black" d="M2232,-122.31C2232,-142.15 2232,-171 2232,-171 2232,-171 1407.85,-171 1407.85,-171"/>
<polygon fill="black" stroke="black" points="1407.85,-167.5 1397.85,-171 1407.85,-174.5 1407.85,-167.5"/>
</g>
<!-- LibraryStorage -->
<g id="node16" class="node">
<title>LibraryStorage</title>
<ellipse fill="#fdb462" stroke="black" cx="2084" cy="-104" rx="69.48" ry="18"/>
<text text-anchor="middle" x="2084" y="-99.8" font-family="Times,serif" font-size="14.00">LibraryStorage</text>
</g>
<!-- LibraryStorage&#45;&gt;H5PEditorTestModule -->
<g id="edge15" class="edge">
<title>LibraryStorage&#45;&gt;H5PEditorTestModule</title>
<path fill="none" stroke="black" d="M2084,-122.22C2084,-140.83 2084,-167 2084,-167 2084,-167 1407.65,-167 1407.65,-167"/>
<polygon fill="black" stroke="black" points="1407.65,-163.5 1397.65,-167 1407.65,-170.5 1407.65,-163.5"/>
</g>
<!-- TemporaryFileRepo -->
<g id="node17" class="node">
<title>TemporaryFileRepo</title>
<ellipse fill="#fdb462" stroke="black" cx="1907" cy="-104" rx="89.19" ry="18"/>
<text text-anchor="middle" x="1907" y="-99.8" font-family="Times,serif" font-size="14.00">TemporaryFileRepo</text>
</g>
<!-- TemporaryFileRepo&#45;&gt;H5PEditorTestModule -->
<g id="edge16" class="edge">
<title>TemporaryFileRepo&#45;&gt;H5PEditorTestModule</title>
<path fill="none" stroke="black" d="M1907,-122.02C1907,-139.37 1907,-163 1907,-163 1907,-163 1407.82,-163 1407.82,-163"/>
<polygon fill="black" stroke="black" points="1407.82,-159.5 1397.82,-163 1407.82,-166.5 1407.82,-159.5"/>
</g>
<!-- TemporaryFileStorage -->
<g id="node18" class="node">
<title>TemporaryFileStorage</title>
<ellipse fill="#fdb462" stroke="black" cx="1701" cy="-104" rx="98.41" ry="18"/>
<text text-anchor="middle" x="1701" y="-99.8" font-family="Times,serif" font-size="14.00">TemporaryFileStorage</text>
</g>
<!-- TemporaryFileStorage&#45;&gt;H5PEditorTestModule -->
<g id="edge17" class="edge">
<title>TemporaryFileStorage&#45;&gt;H5PEditorTestModule</title>
<path fill="none" stroke="black" d="M1701,-122.01C1701,-138.05 1701,-159 1701,-159 1701,-159 1407.86,-159 1407.86,-159"/>
<polygon fill="black" stroke="black" points="1407.86,-155.5 1397.86,-159 1407.86,-162.5 1407.86,-155.5"/>
</g>
</g>
</svg>
