<?xml version="1.0" encoding="UTF-8" standalone="no"?>
<!DOCTYPE svg PUBLIC "-//W3C//DTD SVG 1.1//EN"
 "http://www.w3.org/Graphics/SVG/1.1/DTD/svg11.dtd">
<!-- Generated by graphviz version 5.0.0 (20220707.1540)
 -->
<!-- Title: dependencies Pages: 1 -->
<svg width="1114pt" height="174pt"
 viewBox="0.00 0.00 1114.00 173.80" xmlns="http://www.w3.org/2000/svg" xmlns:xlink="http://www.w3.org/1999/xlink">
<g id="graph0" class="graph" transform="scale(1 1) rotate(0) translate(4 169.8)">
<title>dependencies</title>
<polygon fill="white" stroke="transparent" points="-4,4 -4,-169.8 1110,-169.8 1110,4 -4,4"/>
<text text-anchor="middle" x="553" y="-8.2" font-family="sans-serif" font-size="14.00">dependencies</text>
<g id="clust1" class="cluster">
<title>cluster_H5PEditorTestModule</title>
<polygon fill="none" stroke="black" stroke-dasharray="1,5" points="8,-32.8 8,-157.8 1098,-157.8 1098,-32.8 8,-32.8"/>
</g>
<g id="clust3" class="cluster">
<title>cluster_H5PEditorTestModule_imports</title>
<polygon fill="none" stroke="black" points="16,-40.8 16,-92.8 1090,-92.8 1090,-40.8 16,-40.8"/>
</g>
<!-- AuthenticationApiModule -->
<g id="node1" class="node">
<title>AuthenticationApiModule</title>
<polygon fill="#8dd3c7" stroke="black" points="1081.75,-84.8 1078.75,-88.8 1057.75,-88.8 1054.75,-84.8 918.25,-84.8 918.25,-48.8 1081.75,-48.8 1081.75,-84.8"/>
<text text-anchor="middle" x="1000" y="-62.6" font-family="Times,serif" font-size="14.00">AuthenticationApiModule</text>
</g>
<!-- H5PEditorTestModule -->
<g id="node8" class="node">
<title>H5PEditorTestModule</title>
<polygon fill="#8dd3c7" stroke="black" points="612.55,-149.8 609.55,-153.8 588.55,-153.8 585.55,-149.8 469.45,-149.8 469.45,-113.8 612.55,-113.8 612.55,-149.8"/>
<text text-anchor="middle" x="541" y="-127.6" font-family="Times,serif" font-size="14.00">H5PEditorTestModule</text>
</g>
<!-- AuthenticationApiModule&#45;&gt;H5PEditorTestModule -->
<g id="edge1" class="edge">
<title>AuthenticationApiModule&#45;&gt;H5PEditorTestModule</title>
<path fill="none" stroke="black" d="M1000,-85.08C1000,-106.12 1000,-137.8 1000,-137.8 1000,-137.8 622.72,-137.8 622.72,-137.8"/>
<polygon fill="black" stroke="black" points="622.72,-134.3 612.72,-137.8 622.72,-141.3 622.72,-134.3"/>
</g>
<!-- AuthenticationModule -->
<g id="node2" class="node">
<title>AuthenticationModule</title>
<polygon fill="#8dd3c7" stroke="black" points="900.25,-84.8 897.25,-88.8 876.25,-88.8 873.25,-84.8 757.75,-84.8 757.75,-48.8 900.25,-48.8 900.25,-84.8"/>
<text text-anchor="middle" x="829" y="-62.6" font-family="Times,serif" font-size="14.00">AuthenticationModule</text>
</g>
<!-- AuthenticationModule&#45;&gt;H5PEditorTestModule -->
<g id="edge2" class="edge">
<title>AuthenticationModule&#45;&gt;H5PEditorTestModule</title>
<path fill="none" stroke="black" d="M829,-84.82C829,-102.17 829,-125.8 829,-125.8 829,-125.8 622.56,-125.8 622.56,-125.8"/>
<polygon fill="black" stroke="black" points="622.56,-122.3 612.56,-125.8 622.56,-129.3 622.56,-122.3"/>
</g>
<!-- AuthorizationModule -->
<g id="node3" class="node">
<title>AuthorizationModule</title>
<polygon fill="#8dd3c7" stroke="black" points="739.81,-84.8 736.81,-88.8 715.81,-88.8 712.81,-84.8 602.19,-84.8 602.19,-48.8 739.81,-48.8 739.81,-84.8"/>
<text text-anchor="middle" x="671" y="-62.6" font-family="Times,serif" font-size="14.00">AuthorizationModule</text>
</g>
<!-- AuthorizationModule&#45;&gt;H5PEditorTestModule -->
<g id="edge3" class="edge">
<title>AuthorizationModule&#45;&gt;H5PEditorTestModule</title>
<path fill="none" stroke="black" d="M607.56,-84.91C607.56,-84.91 607.56,-103.79 607.56,-103.79"/>
<polygon fill="black" stroke="black" points="604.06,-103.79 607.56,-113.79 611.06,-103.79 604.06,-103.79"/>
</g>
<!-- CoreModule -->
<g id="node4" class="node">
<title>CoreModule</title>
<polygon fill="#8dd3c7" stroke="black" points="584.27,-84.8 581.27,-88.8 560.27,-88.8 557.27,-84.8 497.73,-84.8 497.73,-48.8 584.27,-48.8 584.27,-84.8"/>
<text text-anchor="middle" x="541" y="-62.6" font-family="Times,serif" font-size="14.00">CoreModule</text>
</g>
<!-- CoreModule&#45;&gt;H5PEditorTestModule -->
<g id="edge4" class="edge">
<title>CoreModule&#45;&gt;H5PEditorTestModule</title>
<path fill="none" stroke="black" d="M541,-84.91C541,-84.91 541,-103.79 541,-103.79"/>
<polygon fill="black" stroke="black" points="537.5,-103.79 541,-113.79 544.5,-103.79 537.5,-103.79"/>
</g>
<!-- H5PEditorModule -->
<g id="node5" class="node">
<title>H5PEditorModule</title>
<polygon fill="#8dd3c7" stroke="black" points="479.94,-84.8 476.94,-88.8 455.94,-88.8 452.94,-84.8 360.06,-84.8 360.06,-48.8 479.94,-48.8 479.94,-84.8"/>
<text text-anchor="middle" x="420" y="-62.6" font-family="Times,serif" font-size="14.00">H5PEditorModule</text>
</g>
<!-- H5PEditorModule&#45;&gt;H5PEditorTestModule -->
<g id="edge5" class="edge">
<title>H5PEditorModule&#45;&gt;H5PEditorTestModule</title>
<path fill="none" stroke="black" d="M474.47,-84.91C474.47,-84.91 474.47,-103.79 474.47,-103.79"/>
<polygon fill="black" stroke="black" points="470.97,-103.79 474.47,-113.79 477.97,-103.79 470.97,-103.79"/>
</g>
<!-- LoggerModule -->
<g id="node6" class="node">
<title>LoggerModule</title>
<polygon fill="#8dd3c7" stroke="black" points="341.98,-84.8 338.98,-88.8 317.98,-88.8 314.98,-84.8 242.02,-84.8 242.02,-48.8 341.98,-48.8 341.98,-84.8"/>
<text text-anchor="middle" x="292" y="-62.6" font-family="Times,serif" font-size="14.00">LoggerModule</text>
</g>
<!-- LoggerModule&#45;&gt;H5PEditorTestModule -->
<g id="edge6" class="edge">
<title>LoggerModule&#45;&gt;H5PEditorTestModule</title>
<path fill="none" stroke="black" d="M292,-84.82C292,-102.17 292,-125.8 292,-125.8 292,-125.8 459.31,-125.8 459.31,-125.8"/>
<polygon fill="black" stroke="black" points="459.31,-129.3 469.31,-125.8 459.31,-122.3 459.31,-129.3"/>
</g>
<!-- MongoMemoryDatabaseModule -->
<g id="node7" class="node">
<title>MongoMemoryDatabaseModule</title>
<polygon fill="#8dd3c7" stroke="black" points="223.52,-84.8 220.52,-88.8 199.52,-88.8 196.52,-84.8 24.48,-84.8 24.48,-48.8 223.52,-48.8 223.52,-84.8"/>
<text text-anchor="middle" x="124" y="-62.6" font-family="Times,serif" font-size="14.00">MongoMemoryDatabaseModule</text>
</g>
<!-- MongoMemoryDatabaseModule&#45;&gt;H5PEditorTestModule -->
<g id="edge7" class="edge">
<title>MongoMemoryDatabaseModule&#45;&gt;H5PEditorTestModule</title>
<path fill="none" stroke="black" d="M124,-85.08C124,-106.12 124,-137.8 124,-137.8 124,-137.8 459.32,-137.8 459.32,-137.8"/>
<polygon fill="black" stroke="black" points="459.32,-141.3 469.32,-137.8 459.32,-134.3 459.32,-141.3"/>
</g>
</g>
</svg>
