<?xml version="1.0" encoding="UTF-8" standalone="no"?>
<!DOCTYPE svg PUBLIC "-//W3C//DTD SVG 1.1//EN"
 "http://www.w3.org/Graphics/SVG/1.1/DTD/svg11.dtd">
<!-- Generated by graphviz version 2.47.0 (20210316.0004)
 -->
<!-- Title: dependencies Pages: 1 -->
<svg width="1156pt" height="211pt"
 viewBox="0.00 0.00 1156.00 211.00" xmlns="http://www.w3.org/2000/svg" xmlns:xlink="http://www.w3.org/1999/xlink">
<g id="graph0" class="graph" transform="scale(1 1) rotate(0) translate(4 207)">
<title>dependencies</title>
<polygon fill="white" stroke="transparent" points="-4,4 -4,-207 1152,-207 1152,4 -4,4"/>
<text text-anchor="start" x="553.01" y="-42.4" font-family="Times-12" font-weight="bold" font-size="14.00">Legend</text>
<polygon fill="#ffffb3" stroke="transparent" points="340,-10 340,-30 360,-30 360,-10 340,-10"/>
<text text-anchor="start" x="363.63" y="-15.4" font-family="Times-12" font-size="14.00"> &#160;Declarations</text>
<polygon fill="#8dd3c7" stroke="transparent" points="453,-10 453,-30 473,-30 473,-10 453,-10"/>
<text text-anchor="start" x="476.73" y="-15.4" font-family="Times-12" font-size="14.00"> &#160;Module</text>
<polygon fill="#80b1d3" stroke="transparent" points="539,-10 539,-30 559,-30 559,-10 539,-10"/>
<text text-anchor="start" x="562.78" y="-15.4" font-family="Times-12" font-size="14.00"> &#160;Bootstrap</text>
<polygon fill="#fdb462" stroke="transparent" points="636,-10 636,-30 656,-30 656,-10 636,-10"/>
<text text-anchor="start" x="659.67" y="-15.4" font-family="Times-12" font-size="14.00"> &#160;Providers</text>
<polygon fill="#fb8072" stroke="transparent" points="732,-10 732,-30 752,-30 752,-10 732,-10"/>
<text text-anchor="start" x="755.73" y="-15.4" font-family="Times-12" font-size="14.00"> &#160;Exports</text>
<g id="clust1" class="cluster">
<title>cluster_IdpConsoleModule</title>
<polygon fill="none" stroke="black" stroke-dasharray="1,5" points="8,-70 8,-195 1140,-195 1140,-70 8,-70"/>
</g>
<g id="clust3" class="cluster">
<title>cluster_IdpConsoleModule_imports</title>
<polygon fill="none" stroke="black" points="212,-78 212,-130 1132,-130 1132,-78 212,-78"/>
</g>
<g id="clust6" class="cluster">
<title>cluster_IdpConsoleModule_providers</title>
<polygon fill="none" stroke="black" points="16,-78 16,-130 204,-130 204,-78 16,-78"/>
</g>
<!-- ConsoleWriterModule -->
<g id="node1" class="node">
<title>ConsoleWriterModule</title>
<polygon fill="#8dd3c7" stroke="black" points="1123.97,-122 1120.97,-126 1099.97,-126 1096.97,-122 982.03,-122 982.03,-86 1123.97,-86 1123.97,-122"/>
<text text-anchor="middle" x="1053" y="-99.8" font-family="Times,serif" font-size="14.00">ConsoleWriterModule</text>
</g>
<!-- IdpConsoleModule -->
<g id="node7" class="node">
<title>IdpConsoleModule</title>
<polygon fill="#8dd3c7" stroke="black" points="639.1,-187 636.1,-191 615.1,-191 612.1,-187 514.9,-187 514.9,-151 639.1,-151 639.1,-187"/>
<text text-anchor="middle" x="577" y="-164.8" font-family="Times,serif" font-size="14.00">IdpConsoleModule</text>
</g>
<!-- ConsoleWriterModule&#45;&gt;IdpConsoleModule -->
<g id="edge1" class="edge">
<title>ConsoleWriterModule&#45;&gt;IdpConsoleModule</title>
<path fill="none" stroke="black" d="M1053,-122.29C1053,-144.21 1053,-178 1053,-178 1053,-178 649.23,-178 649.23,-178"/>
<polygon fill="black" stroke="black" points="649.23,-174.5 639.23,-178 649.23,-181.5 649.23,-174.5"/>
</g>
<!-- LoggerModule -->
<g id="node2" class="node">
<title>LoggerModule</title>
<polygon fill="#8dd3c7" stroke="black" points="963.98,-122 960.98,-126 939.98,-126 936.98,-122 864.02,-122 864.02,-86 963.98,-86 963.98,-122"/>
<text text-anchor="middle" x="914" y="-99.8" font-family="Times,serif" font-size="14.00">LoggerModule</text>
</g>
<!-- LoggerModule&#45;&gt;IdpConsoleModule -->
<g id="edge2" class="edge">
<title>LoggerModule&#45;&gt;IdpConsoleModule</title>
<path fill="none" stroke="black" d="M914,-122.11C914,-141.34 914,-169 914,-169 914,-169 649.2,-169 649.2,-169"/>
<polygon fill="black" stroke="black" points="649.2,-165.5 639.2,-169 649.2,-172.5 649.2,-165.5"/>
</g>
<!-- RabbitMQWrapperModule -->
<g id="node3" class="node">
<title>RabbitMQWrapperModule</title>
<polygon fill="#8dd3c7" stroke="black" points="846.4,-122 843.4,-126 822.4,-126 819.4,-122 677.6,-122 677.6,-86 846.4,-86 846.4,-122"/>
<text text-anchor="middle" x="762" y="-99.8" font-family="Times,serif" font-size="14.00">RabbitMQWrapperModule</text>
</g>
<!-- RabbitMQWrapperModule&#45;&gt;IdpConsoleModule -->
<g id="edge3" class="edge">
<title>RabbitMQWrapperModule&#45;&gt;IdpConsoleModule</title>
<path fill="none" stroke="black" d="M762,-122.03C762,-138.4 762,-160 762,-160 762,-160 649.12,-160 649.12,-160"/>
<polygon fill="black" stroke="black" points="649.12,-156.5 639.12,-160 649.12,-163.5 649.12,-156.5"/>
</g>
<!-- SchulconnexClientModule -->
<g id="node4" class="node">
<title>SchulconnexClientModule</title>
<polygon fill="#8dd3c7" stroke="black" points="660.09,-122 657.09,-126 636.09,-126 633.09,-122 493.91,-122 493.91,-86 660.09,-86 660.09,-122"/>
<text text-anchor="middle" x="577" y="-99.8" font-family="Times,serif" font-size="14.00">SchulconnexClientModule</text>
</g>
<!-- SchulconnexClientModule&#45;&gt;IdpConsoleModule -->
<g id="edge4" class="edge">
<title>SchulconnexClientModule&#45;&gt;IdpConsoleModule</title>
<path fill="none" stroke="black" d="M577,-122.11C577,-122.11 577,-140.99 577,-140.99"/>
<polygon fill="black" stroke="black" points="573.5,-140.99 577,-150.99 580.5,-140.99 573.5,-140.99"/>
</g>
<!-- SynchronizationModule -->
<g id="node5" class="node">
<title>SynchronizationModule</title>
<polygon fill="#8dd3c7" stroke="black" points="475.81,-122 472.81,-126 451.81,-126 448.81,-122 324.19,-122 324.19,-86 475.81,-86 475.81,-122"/>
<text text-anchor="middle" x="400" y="-99.8" font-family="Times,serif" font-size="14.00">SynchronizationModule</text>
</g>
<!-- SynchronizationModule&#45;&gt;IdpConsoleModule -->
<g id="edge5" class="edge">
<title>SynchronizationModule&#45;&gt;IdpConsoleModule</title>
<path fill="none" stroke="black" d="M400,-122.03C400,-138.4 400,-160 400,-160 400,-160 504.6,-160 504.6,-160"/>
<polygon fill="black" stroke="black" points="504.6,-163.5 514.6,-160 504.6,-156.5 504.6,-163.5"/>
</g>
<!-- UserModule -->
<g id="node6" class="node">
<title>UserModule</title>
<polygon fill="#8dd3c7" stroke="black" points="305.98,-122 302.98,-126 281.98,-126 278.98,-122 220.02,-122 220.02,-86 305.98,-86 305.98,-122"/>
<text text-anchor="middle" x="263" y="-99.8" font-family="Times,serif" font-size="14.00">UserModule</text>
</g>
<!-- UserModule&#45;&gt;IdpConsoleModule -->
<g id="edge6" class="edge">
<title>UserModule&#45;&gt;IdpConsoleModule</title>
<path fill="none" stroke="black" d="M263,-122.11C263,-141.34 263,-169 263,-169 263,-169 504.59,-169 504.59,-169"/>
<polygon fill="black" stroke="black" points="504.59,-172.5 514.59,-169 504.59,-165.5 504.59,-172.5"/>
</g>
<!-- SynchronizationUc -->
<g id="node8" class="node">
<title>SynchronizationUc</title>
<ellipse fill="#fdb462" stroke="black" cx="110" cy="-104" rx="85.68" ry="18"/>
<text text-anchor="middle" x="110" y="-99.8" font-family="Times,serif" font-size="14.00">SynchronizationUc</text>
</g>
<!-- SynchronizationUc&#45;&gt;IdpConsoleModule -->
<g id="edge7" class="edge">
<title>SynchronizationUc&#45;&gt;IdpConsoleModule</title>
<path fill="none" stroke="black" d="M110,-122.29C110,-144.21 110,-178 110,-178 110,-178 504.5,-178 504.5,-178"/>
<polygon fill="black" stroke="black" points="504.5,-181.5 514.5,-178 504.5,-174.5 504.5,-181.5"/>
</g>
</g>
</svg>
