<?xml version="1.0" encoding="UTF-8" standalone="no"?>
<!DOCTYPE svg PUBLIC "-//W3C//DTD SVG 1.1//EN"
 "http://www.w3.org/Graphics/SVG/1.1/DTD/svg11.dtd">
<!-- Generated by graphviz version 2.47.0 (20210316.0004)
 -->
<!-- Title: dependencies Pages: 1 -->
<svg width="2260pt" height="284pt"
 viewBox="0.00 0.00 2260.00 284.00" xmlns="http://www.w3.org/2000/svg" xmlns:xlink="http://www.w3.org/1999/xlink">
<g id="graph0" class="graph" transform="scale(1 1) rotate(0) translate(4 280)">
<title>dependencies</title>
<polygon fill="white" stroke="transparent" points="-4,4 -4,-280 2256,-280 2256,4 -4,4"/>
<text text-anchor="start" x="1105.01" y="-42.4" font-family="Times-12" font-weight="bold" font-size="14.00">Legend</text>
<polygon fill="#ffffb3" stroke="transparent" points="892,-10 892,-30 912,-30 912,-10 892,-10"/>
<text text-anchor="start" x="915.63" y="-15.4" font-family="Times-12" font-size="14.00"> &#160;Declarations</text>
<polygon fill="#8dd3c7" stroke="transparent" points="1005,-10 1005,-30 1025,-30 1025,-10 1005,-10"/>
<text text-anchor="start" x="1028.73" y="-15.4" font-family="Times-12" font-size="14.00"> &#160;Module</text>
<polygon fill="#80b1d3" stroke="transparent" points="1091,-10 1091,-30 1111,-30 1111,-10 1091,-10"/>
<text text-anchor="start" x="1114.78" y="-15.4" font-family="Times-12" font-size="14.00"> &#160;Bootstrap</text>
<polygon fill="#fdb462" stroke="transparent" points="1188,-10 1188,-30 1208,-30 1208,-10 1188,-10"/>
<text text-anchor="start" x="1211.67" y="-15.4" font-family="Times-12" font-size="14.00"> &#160;Providers</text>
<polygon fill="#fb8072" stroke="transparent" points="1284,-10 1284,-30 1304,-30 1304,-10 1284,-10"/>
<text text-anchor="start" x="1307.73" y="-15.4" font-family="Times-12" font-size="14.00"> &#160;Exports</text>
<g id="clust1" class="cluster">
<title>cluster_MetaTagExtractorModule</title>
<polygon fill="none" stroke="black" stroke-dasharray="1,5" points="8,-70 8,-268 2244,-268 2244,-70 8,-70"/>
</g>
<g id="clust6" class="cluster">
<title>cluster_MetaTagExtractorModule_providers</title>
<polygon fill="none" stroke="black" points="1037,-78 1037,-130 2236,-130 2236,-78 1037,-78"/>
</g>
<g id="clust4" class="cluster">
<title>cluster_MetaTagExtractorModule_exports</title>
<polygon fill="none" stroke="black" points="792,-208 792,-260 972,-260 972,-208 792,-208"/>
</g>
<g id="clust3" class="cluster">
<title>cluster_MetaTagExtractorModule_imports</title>
<polygon fill="none" stroke="black" points="16,-78 16,-130 1029,-130 1029,-78 16,-78"/>
</g>
<!-- AuthenticationModule -->
<g id="node1" class="node">
<title>AuthenticationModule</title>
<polygon fill="#8dd3c7" stroke="black" points="1021.25,-122 1018.25,-126 997.25,-126 994.25,-122 878.75,-122 878.75,-86 1021.25,-86 1021.25,-122"/>
<text text-anchor="middle" x="950" y="-99.8" font-family="Times,serif" font-size="14.00">AuthenticationModule</text>
</g>
<!-- MetaTagExtractorModule -->
<g id="node9" class="node">
<title>MetaTagExtractorModule</title>
<polygon fill="#8dd3c7" stroke="black" points="963.17,-187 960.17,-191 939.17,-191 936.17,-187 800.83,-187 800.83,-151 963.17,-151 963.17,-187"/>
<text text-anchor="middle" x="882" y="-164.8" font-family="Times,serif" font-size="14.00">MetaTagExtractorModule</text>
</g>
<!-- AuthenticationModule&#45;&gt;MetaTagExtractorModule -->
<g id="edge1" class="edge">
<title>AuthenticationModule&#45;&gt;MetaTagExtractorModule</title>
<path fill="none" stroke="black" d="M920.85,-122.11C920.85,-122.11 920.85,-140.99 920.85,-140.99"/>
<polygon fill="black" stroke="black" points="917.35,-140.99 920.85,-150.99 924.35,-140.99 917.35,-140.99"/>
</g>
<!-- BoardModule -->
<g id="node2" class="node">
<title>BoardModule</title>
<polygon fill="#8dd3c7" stroke="black" points="860.76,-122 857.76,-126 836.76,-126 833.76,-122 767.24,-122 767.24,-86 860.76,-86 860.76,-122"/>
<text text-anchor="middle" x="814" y="-99.8" font-family="Times,serif" font-size="14.00">BoardModule</text>
</g>
<!-- BoardModule&#45;&gt;MetaTagExtractorModule -->
<g id="edge2" class="edge">
<title>BoardModule&#45;&gt;MetaTagExtractorModule</title>
<path fill="none" stroke="black" d="M830.9,-122.11C830.9,-122.11 830.9,-140.99 830.9,-140.99"/>
<polygon fill="black" stroke="black" points="827.4,-140.99 830.9,-150.99 834.4,-140.99 827.4,-140.99"/>
</g>
<!-- ConsoleWriterModule -->
<g id="node3" class="node">
<title>ConsoleWriterModule</title>
<polygon fill="#8dd3c7" stroke="black" points="748.97,-122 745.97,-126 724.97,-126 721.97,-122 607.03,-122 607.03,-86 748.97,-86 748.97,-122"/>
<text text-anchor="middle" x="678" y="-99.8" font-family="Times,serif" font-size="14.00">ConsoleWriterModule</text>
</g>
<!-- ConsoleWriterModule&#45;&gt;MetaTagExtractorModule -->
<g id="edge3" class="edge">
<title>ConsoleWriterModule&#45;&gt;MetaTagExtractorModule</title>
<path fill="none" stroke="black" d="M678,-122.24C678,-137.57 678,-157 678,-157 678,-157 790.79,-157 790.79,-157"/>
<polygon fill="black" stroke="black" points="790.79,-160.5 800.79,-157 790.79,-153.5 790.79,-160.5"/>
</g>
<!-- LearnroomModule -->
<g id="node4" class="node">
<title>LearnroomModule</title>
<polygon fill="#8dd3c7" stroke="black" points="588.74,-122 585.74,-126 564.74,-126 561.74,-122 467.26,-122 467.26,-86 588.74,-86 588.74,-122"/>
<text text-anchor="middle" x="528" y="-99.8" font-family="Times,serif" font-size="14.00">LearnroomModule</text>
</g>
<!-- LearnroomModule&#45;&gt;MetaTagExtractorModule -->
<g id="edge4" class="edge">
<title>LearnroomModule&#45;&gt;MetaTagExtractorModule</title>
<path fill="none" stroke="black" d="M528,-122.03C528,-139.06 528,-162 528,-162 528,-162 790.79,-162 790.79,-162"/>
<polygon fill="black" stroke="black" points="790.79,-165.5 800.79,-162 790.79,-158.5 790.79,-165.5"/>
</g>
<!-- LessonModule -->
<g id="node5" class="node">
<title>LessonModule</title>
<polygon fill="#8dd3c7" stroke="black" points="449.71,-122 446.71,-126 425.71,-126 422.71,-122 350.29,-122 350.29,-86 449.71,-86 449.71,-122"/>
<text text-anchor="middle" x="400" y="-99.8" font-family="Times,serif" font-size="14.00">LessonModule</text>
</g>
<!-- LessonModule&#45;&gt;MetaTagExtractorModule -->
<g id="edge5" class="edge">
<title>LessonModule&#45;&gt;MetaTagExtractorModule</title>
<path fill="none" stroke="black" d="M400,-122.22C400,-140.83 400,-167 400,-167 400,-167 790.78,-167 790.78,-167"/>
<polygon fill="black" stroke="black" points="790.78,-170.5 800.78,-167 790.78,-163.5 790.78,-170.5"/>
</g>
<!-- LoggerModule -->
<g id="node6" class="node">
<title>LoggerModule</title>
<polygon fill="#8dd3c7" stroke="black" points="331.98,-122 328.98,-126 307.98,-126 304.98,-122 232.02,-122 232.02,-86 331.98,-86 331.98,-122"/>
<text text-anchor="middle" x="282" y="-99.8" font-family="Times,serif" font-size="14.00">LoggerModule</text>
</g>
<!-- LoggerModule&#45;&gt;MetaTagExtractorModule -->
<g id="edge6" class="edge">
<title>LoggerModule&#45;&gt;MetaTagExtractorModule</title>
<path fill="none" stroke="black" d="M282,-122.22C282,-142.37 282,-172 282,-172 282,-172 790.77,-172 790.77,-172"/>
<polygon fill="black" stroke="black" points="790.77,-175.5 800.77,-172 790.77,-168.5 790.77,-175.5"/>
</g>
<!-- TaskModule -->
<g id="node7" class="node">
<title>TaskModule</title>
<polygon fill="#8dd3c7" stroke="black" points="214.26,-122 211.26,-126 190.26,-126 187.26,-122 127.74,-122 127.74,-86 214.26,-86 214.26,-122"/>
<text text-anchor="middle" x="171" y="-99.8" font-family="Times,serif" font-size="14.00">TaskModule</text>
</g>
<!-- TaskModule&#45;&gt;MetaTagExtractorModule -->
<g id="edge7" class="edge">
<title>TaskModule&#45;&gt;MetaTagExtractorModule</title>
<path fill="none" stroke="black" d="M171,-122.04C171,-143.66 171,-177 171,-177 171,-177 790.79,-177 790.79,-177"/>
<polygon fill="black" stroke="black" points="790.79,-180.5 800.79,-177 790.79,-173.5 790.79,-180.5"/>
</g>
<!-- UserModule -->
<g id="node8" class="node">
<title>UserModule</title>
<polygon fill="#8dd3c7" stroke="black" points="109.98,-122 106.98,-126 85.98,-126 82.98,-122 24.02,-122 24.02,-86 109.98,-86 109.98,-122"/>
<text text-anchor="middle" x="67" y="-99.8" font-family="Times,serif" font-size="14.00">UserModule</text>
</g>
<!-- UserModule&#45;&gt;MetaTagExtractorModule -->
<g id="edge8" class="edge">
<title>UserModule&#45;&gt;MetaTagExtractorModule</title>
<path fill="none" stroke="black" d="M67,-122.09C67,-145.13 67,-182 67,-182 67,-182 790.88,-182 790.88,-182"/>
<polygon fill="black" stroke="black" points="790.88,-185.5 800.88,-182 790.88,-178.5 790.88,-185.5"/>
</g>
<!-- MetaTagExtractorService  -->
<g id="node10" class="node">
<title>MetaTagExtractorService </title>
<polygon fill="#fb8072" stroke="black" points="964.09,-252 799.91,-252 799.91,-216 964.09,-216 964.09,-252"/>
<text text-anchor="middle" x="882" y="-229.8" font-family="Times,serif" font-size="14.00">MetaTagExtractorService </text>
</g>
<!-- MetaTagExtractorModule&#45;&gt;MetaTagExtractorService  -->
<g id="edge9" class="edge">
<title>MetaTagExtractorModule&#45;&gt;MetaTagExtractorService </title>
<path fill="none" stroke="black" stroke-dasharray="5,2" d="M882,-187.11C882,-187.11 882,-205.99 882,-205.99"/>
<polygon fill="black" stroke="black" points="878.5,-205.99 882,-215.99 885.5,-205.99 878.5,-205.99"/>
</g>
<!-- BoardUrlHandler -->
<g id="node11" class="node">
<title>BoardUrlHandler</title>
<ellipse fill="#fdb462" stroke="black" cx="2149" cy="-104" rx="78.71" ry="18"/>
<text text-anchor="middle" x="2149" y="-99.8" font-family="Times,serif" font-size="14.00">BoardUrlHandler</text>
</g>
<!-- BoardUrlHandler&#45;&gt;MetaTagExtractorModule -->
<g id="edge10" class="edge">
<title>BoardUrlHandler&#45;&gt;MetaTagExtractorModule</title>
<path fill="none" stroke="black" d="M2149,-122.09C2149,-145.13 2149,-182 2149,-182 2149,-182 973.18,-182 973.18,-182"/>
<polygon fill="black" stroke="black" points="973.18,-178.5 963.18,-182 973.18,-185.5 973.18,-178.5"/>
</g>
<!-- CourseUrlHandler -->
<g id="node12" class="node">
<title>CourseUrlHandler</title>
<ellipse fill="#fdb462" stroke="black" cx="1970" cy="-104" rx="82.22" ry="18"/>
<text text-anchor="middle" x="1970" y="-99.8" font-family="Times,serif" font-size="14.00">CourseUrlHandler</text>
</g>
<!-- CourseUrlHandler&#45;&gt;MetaTagExtractorModule -->
<g id="edge11" class="edge">
<title>CourseUrlHandler&#45;&gt;MetaTagExtractorModule</title>
<path fill="none" stroke="black" d="M1970,-122.04C1970,-143.66 1970,-177 1970,-177 1970,-177 973.33,-177 973.33,-177"/>
<polygon fill="black" stroke="black" points="973.33,-173.5 963.33,-177 973.33,-180.5 973.33,-173.5"/>
</g>
<!-- LessonUrlHandler -->
<g id="node13" class="node">
<title>LessonUrlHandler</title>
<ellipse fill="#fdb462" stroke="black" cx="1787" cy="-104" rx="82.22" ry="18"/>
<text text-anchor="middle" x="1787" y="-99.8" font-family="Times,serif" font-size="14.00">LessonUrlHandler</text>
</g>
<!-- LessonUrlHandler&#45;&gt;MetaTagExtractorModule -->
<g id="edge12" class="edge">
<title>LessonUrlHandler&#45;&gt;MetaTagExtractorModule</title>
<path fill="none" stroke="black" d="M1787,-122.22C1787,-142.37 1787,-172 1787,-172 1787,-172 973.11,-172 973.11,-172"/>
<polygon fill="black" stroke="black" points="973.11,-168.5 963.11,-172 973.11,-175.5 973.11,-168.5"/>
</g>
<!-- MetaTagExtractorService -->
<g id="node14" class="node">
<title>MetaTagExtractorService</title>
<ellipse fill="#fdb462" stroke="black" cx="1576" cy="-104" rx="110.55" ry="18"/>
<text text-anchor="middle" x="1576" y="-99.8" font-family="Times,serif" font-size="14.00">MetaTagExtractorService</text>
</g>
<!-- MetaTagExtractorService&#45;&gt;MetaTagExtractorModule -->
<g id="edge13" class="edge">
<title>MetaTagExtractorService&#45;&gt;MetaTagExtractorModule</title>
<path fill="none" stroke="black" d="M1576,-122.22C1576,-140.83 1576,-167 1576,-167 1576,-167 973.31,-167 973.31,-167"/>
<polygon fill="black" stroke="black" points="973.31,-163.5 963.31,-167 973.31,-170.5 973.31,-163.5"/>
</g>
<!-- MetaTagInternalUrlService -->
<g id="node15" class="node">
<title>MetaTagInternalUrlService</title>
<ellipse fill="#fdb462" stroke="black" cx="1329" cy="-104" rx="117.99" ry="18"/>
<text text-anchor="middle" x="1329" y="-99.8" font-family="Times,serif" font-size="14.00">MetaTagInternalUrlService</text>
</g>
<!-- MetaTagInternalUrlService&#45;&gt;MetaTagExtractorModule -->
<g id="edge14" class="edge">
<title>MetaTagInternalUrlService&#45;&gt;MetaTagExtractorModule</title>
<path fill="none" stroke="black" d="M1329,-122.03C1329,-139.06 1329,-162 1329,-162 1329,-162 973.21,-162 973.21,-162"/>
<polygon fill="black" stroke="black" points="973.21,-158.5 963.21,-162 973.21,-165.5 973.21,-158.5"/>
</g>
<!-- TaskUrlHandler -->
<g id="node16" class="node">
<title>TaskUrlHandler</title>
<ellipse fill="#fdb462" stroke="black" cx="1119" cy="-104" rx="73.55" ry="18"/>
<text text-anchor="middle" x="1119" y="-99.8" font-family="Times,serif" font-size="14.00">TaskUrlHandler</text>
</g>
<!-- TaskUrlHandler&#45;&gt;MetaTagExtractorModule -->
<g id="edge15" class="edge">
<title>TaskUrlHandler&#45;&gt;MetaTagExtractorModule</title>
<path fill="none" stroke="black" d="M1119,-122.24C1119,-137.57 1119,-157 1119,-157 1119,-157 973.23,-157 973.23,-157"/>
<polygon fill="black" stroke="black" points="973.23,-153.5 963.23,-157 973.23,-160.5 973.23,-153.5"/>
</g>
</g>
</svg>
