<?xml version="1.0" encoding="UTF-8" standalone="no"?>
<!DOCTYPE svg PUBLIC "-//W3C//DTD SVG 1.1//EN"
 "http://www.w3.org/Graphics/SVG/1.1/DTD/svg11.dtd">
<!-- Generated by graphviz version 2.47.0 (20210316.0004)
 -->
<!-- Title: dependencies Pages: 1 -->
<svg width="826pt" height="284pt"
 viewBox="0.00 0.00 826.00 284.00" xmlns="http://www.w3.org/2000/svg" xmlns:xlink="http://www.w3.org/1999/xlink">
<g id="graph0" class="graph" transform="scale(1 1) rotate(0) translate(4 280)">
<title>dependencies</title>
<polygon fill="white" stroke="transparent" points="-4,4 -4,-280 822,-280 822,4 -4,4"/>
<text text-anchor="start" x="388.01" y="-42.4" font-family="Times-12" font-weight="bold" font-size="14.00">Legend</text>
<polygon fill="#ffffb3" stroke="transparent" points="175,-10 175,-30 195,-30 195,-10 175,-10"/>
<text text-anchor="start" x="198.63" y="-15.4" font-family="Times-12" font-size="14.00"> &#160;Declarations</text>
<polygon fill="#8dd3c7" stroke="transparent" points="288,-10 288,-30 308,-30 308,-10 288,-10"/>
<text text-anchor="start" x="311.73" y="-15.4" font-family="Times-12" font-size="14.00"> &#160;Module</text>
<polygon fill="#80b1d3" stroke="transparent" points="374,-10 374,-30 394,-30 394,-10 374,-10"/>
<text text-anchor="start" x="397.78" y="-15.4" font-family="Times-12" font-size="14.00"> &#160;Bootstrap</text>
<polygon fill="#fdb462" stroke="transparent" points="471,-10 471,-30 491,-30 491,-10 471,-10"/>
<text text-anchor="start" x="494.67" y="-15.4" font-family="Times-12" font-size="14.00"> &#160;Providers</text>
<polygon fill="#fb8072" stroke="transparent" points="567,-10 567,-30 587,-30 587,-10 567,-10"/>
<text text-anchor="start" x="590.73" y="-15.4" font-family="Times-12" font-size="14.00"> &#160;Exports</text>
<g id="clust1" class="cluster">
<title>cluster_MetaTagExtractorModule</title>
<polygon fill="none" stroke="black" stroke-dasharray="1,5" points="8,-70 8,-268 810,-268 810,-70 8,-70"/>
</g>
<g id="clust4" class="cluster">
<title>cluster_MetaTagExtractorModule_exports</title>
<polygon fill="none" stroke="black" points="227,-208 227,-260 407,-260 407,-208 227,-208"/>
</g>
<g id="clust6" class="cluster">
<title>cluster_MetaTagExtractorModule_providers</title>
<polygon fill="none" stroke="black" points="564,-78 564,-130 802,-130 802,-78 564,-78"/>
</g>
<g id="clust3" class="cluster">
<title>cluster_MetaTagExtractorModule_imports</title>
<polygon fill="none" stroke="black" points="16,-78 16,-130 556,-130 556,-78 16,-78"/>
</g>
<!-- AuthenticationModule -->
<g id="node1" class="node">
<title>AuthenticationModule</title>
<polygon fill="#8dd3c7" stroke="black" points="548.25,-122 545.25,-126 524.25,-126 521.25,-122 405.75,-122 405.75,-86 548.25,-86 548.25,-122"/>
<text text-anchor="middle" x="477" y="-99.8" font-family="Times,serif" font-size="14.00">AuthenticationModule</text>
</g>
<!-- MetaTagExtractorModule -->
<g id="node5" class="node">
<title>MetaTagExtractorModule</title>
<polygon fill="#8dd3c7" stroke="black" points="398.17,-187 395.17,-191 374.17,-191 371.17,-187 235.83,-187 235.83,-151 398.17,-151 398.17,-187"/>
<text text-anchor="middle" x="317" y="-164.8" font-family="Times,serif" font-size="14.00">MetaTagExtractorModule</text>
</g>
<!-- AuthenticationModule&#45;&gt;MetaTagExtractorModule -->
<g id="edge1" class="edge">
<title>AuthenticationModule&#45;&gt;MetaTagExtractorModule</title>
<path fill="none" stroke="black" d="M405.42,-104C397.96,-104 393.03,-104 393.03,-104 393.03,-104 393.03,-140.89 393.03,-140.89"/>
<polygon fill="black" stroke="black" points="389.53,-140.89 393.03,-150.89 396.53,-140.89 389.53,-140.89"/>
</g>
<!-- ConsoleWriterModule -->
<g id="node2" class="node">
<title>ConsoleWriterModule</title>
<polygon fill="#8dd3c7" stroke="black" points="387.97,-122 384.97,-126 363.97,-126 360.97,-122 246.03,-122 246.03,-86 387.97,-86 387.97,-122"/>
<text text-anchor="middle" x="317" y="-99.8" font-family="Times,serif" font-size="14.00">ConsoleWriterModule</text>
</g>
<!-- ConsoleWriterModule&#45;&gt;MetaTagExtractorModule -->
<g id="edge2" class="edge">
<title>ConsoleWriterModule&#45;&gt;MetaTagExtractorModule</title>
<path fill="none" stroke="black" d="M317,-122.11C317,-122.11 317,-140.99 317,-140.99"/>
<polygon fill="black" stroke="black" points="313.5,-140.99 317,-150.99 320.5,-140.99 313.5,-140.99"/>
</g>
<!-- LoggerModule -->
<g id="node3" class="node">
<title>LoggerModule</title>
<polygon fill="#8dd3c7" stroke="black" points="227.98,-122 224.98,-126 203.98,-126 200.98,-122 128.02,-122 128.02,-86 227.98,-86 227.98,-122"/>
<text text-anchor="middle" x="178" y="-99.8" font-family="Times,serif" font-size="14.00">LoggerModule</text>
</g>
<!-- LoggerModule&#45;&gt;MetaTagExtractorModule -->
<g id="edge3" class="edge">
<title>LoggerModule&#45;&gt;MetaTagExtractorModule</title>
<path fill="none" stroke="black" d="M228.22,-104C235.71,-104 240.97,-104 240.97,-104 240.97,-104 240.97,-140.89 240.97,-140.89"/>
<polygon fill="black" stroke="black" points="237.47,-140.89 240.97,-150.89 244.47,-140.89 237.47,-140.89"/>
</g>
<!-- UserModule -->
<g id="node4" class="node">
<title>UserModule</title>
<polygon fill="#8dd3c7" stroke="black" points="109.98,-122 106.98,-126 85.98,-126 82.98,-122 24.02,-122 24.02,-86 109.98,-86 109.98,-122"/>
<text text-anchor="middle" x="67" y="-99.8" font-family="Times,serif" font-size="14.00">UserModule</text>
</g>
<!-- UserModule&#45;&gt;MetaTagExtractorModule -->
<g id="edge4" class="edge">
<title>UserModule&#45;&gt;MetaTagExtractorModule</title>
<path fill="none" stroke="black" d="M67,-122.11C67,-141.34 67,-169 67,-169 67,-169 225.83,-169 225.83,-169"/>
<polygon fill="black" stroke="black" points="225.83,-172.5 235.83,-169 225.83,-165.5 225.83,-172.5"/>
</g>
<!-- MetaTagExtractorService  -->
<g id="node6" class="node">
<title>MetaTagExtractorService </title>
<polygon fill="#fb8072" stroke="black" points="399.09,-252 234.91,-252 234.91,-216 399.09,-216 399.09,-252"/>
<text text-anchor="middle" x="317" y="-229.8" font-family="Times,serif" font-size="14.00">MetaTagExtractorService </text>
</g>
<!-- MetaTagExtractorModule&#45;&gt;MetaTagExtractorService  -->
<g id="edge5" class="edge">
<title>MetaTagExtractorModule&#45;&gt;MetaTagExtractorService </title>
<path fill="none" stroke="black" stroke-dasharray="5,2" d="M317,-187.11C317,-187.11 317,-205.99 317,-205.99"/>
<polygon fill="black" stroke="black" points="313.5,-205.99 317,-215.99 320.5,-205.99 313.5,-205.99"/>
</g>
<!-- MetaTagExtractorService -->
<g id="node7" class="node">
<title>MetaTagExtractorService</title>
<ellipse fill="#fdb462" stroke="black" cx="683" cy="-104" rx="110.55" ry="18"/>
<text text-anchor="middle" x="683" y="-99.8" font-family="Times,serif" font-size="14.00">MetaTagExtractorService</text>
</g>
<!-- MetaTagExtractorService&#45;&gt;MetaTagExtractorModule -->
<g id="edge6" class="edge">
<title>MetaTagExtractorService&#45;&gt;MetaTagExtractorModule</title>
<path fill="none" stroke="black" d="M683,-122.11C683,-141.34 683,-169 683,-169 683,-169 408.23,-169 408.23,-169"/>
<polygon fill="black" stroke="black" points="408.23,-165.5 398.23,-169 408.23,-172.5 408.23,-165.5"/>
</g>
</g>
</svg>
