<?xml version="1.0" encoding="UTF-8" standalone="no"?>
<!DOCTYPE svg PUBLIC "-//W3C//DTD SVG 1.1//EN"
 "http://www.w3.org/Graphics/SVG/1.1/DTD/svg11.dtd">
<!-- Generated by graphviz version 2.47.0 (20210316.0004)
 -->
<!-- Title: dependencies Pages: 1 -->
<svg width="2260pt" height="284pt"
 viewBox="0.00 0.00 2260.00 284.00" xmlns="http://www.w3.org/2000/svg" xmlns:xlink="http://www.w3.org/1999/xlink">
<g id="graph0" class="graph" transform="scale(1 1) rotate(0) translate(4 280)">
<title>dependencies</title>
<polygon fill="white" stroke="transparent" points="-4,4 -4,-280 2256,-280 2256,4 -4,4"/>
<text text-anchor="start" x="1105.01" y="-42.4" font-family="Times-12" font-weight="bold" font-size="14.00">Legend</text>
<polygon fill="#ffffb3" stroke="transparent" points="892,-10 892,-30 912,-30 912,-10 892,-10"/>
<text text-anchor="start" x="915.63" y="-15.4" font-family="Times-12" font-size="14.00"> &#160;Declarations</text>
<polygon fill="#8dd3c7" stroke="transparent" points="1005,-10 1005,-30 1025,-30 1025,-10 1005,-10"/>
<text text-anchor="start" x="1028.73" y="-15.4" font-family="Times-12" font-size="14.00"> &#160;Module</text>
<polygon fill="#80b1d3" stroke="transparent" points="1091,-10 1091,-30 1111,-30 1111,-10 1091,-10"/>
<text text-anchor="start" x="1114.78" y="-15.4" font-family="Times-12" font-size="14.00"> &#160;Bootstrap</text>
<polygon fill="#fdb462" stroke="transparent" points="1188,-10 1188,-30 1208,-30 1208,-10 1188,-10"/>
<text text-anchor="start" x="1211.67" y="-15.4" font-family="Times-12" font-size="14.00"> &#160;Providers</text>
<polygon fill="#fb8072" stroke="transparent" points="1284,-10 1284,-30 1304,-30 1304,-10 1284,-10"/>
<text text-anchor="start" x="1307.73" y="-15.4" font-family="Times-12" font-size="14.00"> &#160;Exports</text>
<g id="clust1" class="cluster">
<title>cluster_MetaTagExtractorModule</title>
<polygon fill="none" stroke="black" stroke-dasharray="1,5" points="8,-70 8,-268 2244,-268 2244,-70 8,-70"/>
</g>
<g id="clust4" class="cluster">
<title>cluster_MetaTagExtractorModule_exports</title>
<polygon fill="none" stroke="black" points="1236,-208 1236,-260 1416,-260 1416,-208 1236,-208"/>
</g>
<g id="clust3" class="cluster">
<title>cluster_MetaTagExtractorModule_imports</title>
<polygon fill="none" stroke="black" points="1223,-78 1223,-130 2236,-130 2236,-78 1223,-78"/>
</g>
<g id="clust6" class="cluster">
<title>cluster_MetaTagExtractorModule_providers</title>
<polygon fill="none" stroke="black" points="16,-78 16,-130 1215,-130 1215,-78 16,-78"/>
</g>
<!-- AuthenticationModule -->
<g id="node1" class="node">
<title>AuthenticationModule</title>
<polygon fill="#8dd3c7" stroke="black" points="2228.25,-122 2225.25,-126 2204.25,-126 2201.25,-122 2085.75,-122 2085.75,-86 2228.25,-86 2228.25,-122"/>
<text text-anchor="middle" x="2157" y="-99.8" font-family="Times,serif" font-size="14.00">AuthenticationModule</text>
</g>
<!-- MetaTagExtractorModule -->
<g id="node9" class="node">
<title>MetaTagExtractorModule</title>
<polygon fill="#8dd3c7" stroke="black" points="1407.17,-187 1404.17,-191 1383.17,-191 1380.17,-187 1244.83,-187 1244.83,-151 1407.17,-151 1407.17,-187"/>
<text text-anchor="middle" x="1326" y="-164.8" font-family="Times,serif" font-size="14.00">MetaTagExtractorModule</text>
</g>
<!-- AuthenticationModule&#45;&gt;MetaTagExtractorModule -->
<g id="edge1" class="edge">
<title>AuthenticationModule&#45;&gt;MetaTagExtractorModule</title>
<path fill="none" stroke="black" d="M2157,-122.09C2157,-145.13 2157,-182 2157,-182 2157,-182 1417.19,-182 1417.19,-182"/>
<polygon fill="black" stroke="black" points="1417.19,-178.5 1407.19,-182 1417.19,-185.5 1417.19,-178.5"/>
</g>
<!-- BoardModule -->
<g id="node2" class="node">
<title>BoardModule</title>
<polygon fill="#8dd3c7" stroke="black" points="2067.76,-122 2064.76,-126 2043.76,-126 2040.76,-122 1974.24,-122 1974.24,-86 2067.76,-86 2067.76,-122"/>
<text text-anchor="middle" x="2021" y="-99.8" font-family="Times,serif" font-size="14.00">BoardModule</text>
</g>
<!-- BoardModule&#45;&gt;MetaTagExtractorModule -->
<g id="edge2" class="edge">
<title>BoardModule&#45;&gt;MetaTagExtractorModule</title>
<path fill="none" stroke="black" d="M2021,-122.04C2021,-143.66 2021,-177 2021,-177 2021,-177 1417.09,-177 1417.09,-177"/>
<polygon fill="black" stroke="black" points="1417.09,-173.5 1407.09,-177 1417.09,-180.5 1417.09,-173.5"/>
</g>
<!-- ConsoleWriterModule -->
<g id="node3" class="node">
<title>ConsoleWriterModule</title>
<polygon fill="#8dd3c7" stroke="black" points="1955.97,-122 1952.97,-126 1931.97,-126 1928.97,-122 1814.03,-122 1814.03,-86 1955.97,-86 1955.97,-122"/>
<text text-anchor="middle" x="1885" y="-99.8" font-family="Times,serif" font-size="14.00">ConsoleWriterModule</text>
</g>
<!-- ConsoleWriterModule&#45;&gt;MetaTagExtractorModule -->
<g id="edge3" class="edge">
<title>ConsoleWriterModule&#45;&gt;MetaTagExtractorModule</title>
<path fill="none" stroke="black" d="M1885,-122.22C1885,-142.37 1885,-172 1885,-172 1885,-172 1417.28,-172 1417.28,-172"/>
<polygon fill="black" stroke="black" points="1417.28,-168.5 1407.28,-172 1417.28,-175.5 1417.28,-168.5"/>
</g>
<!-- LearnroomModule -->
<g id="node4" class="node">
<title>LearnroomModule</title>
<polygon fill="#8dd3c7" stroke="black" points="1795.74,-122 1792.74,-126 1771.74,-126 1768.74,-122 1674.26,-122 1674.26,-86 1795.74,-86 1795.74,-122"/>
<text text-anchor="middle" x="1735" y="-99.8" font-family="Times,serif" font-size="14.00">LearnroomModule</text>
</g>
<!-- LearnroomModule&#45;&gt;MetaTagExtractorModule -->
<g id="edge4" class="edge">
<title>LearnroomModule&#45;&gt;MetaTagExtractorModule</title>
<path fill="none" stroke="black" d="M1735,-122.22C1735,-140.83 1735,-167 1735,-167 1735,-167 1417.29,-167 1417.29,-167"/>
<polygon fill="black" stroke="black" points="1417.29,-163.5 1407.29,-167 1417.29,-170.5 1417.29,-163.5"/>
</g>
<!-- LessonModule -->
<g id="node5" class="node">
<title>LessonModule</title>
<polygon fill="#8dd3c7" stroke="black" points="1656.71,-122 1653.71,-126 1632.71,-126 1629.71,-122 1557.29,-122 1557.29,-86 1656.71,-86 1656.71,-122"/>
<text text-anchor="middle" x="1607" y="-99.8" font-family="Times,serif" font-size="14.00">LessonModule</text>
</g>
<!-- LessonModule&#45;&gt;MetaTagExtractorModule -->
<g id="edge5" class="edge">
<title>LessonModule&#45;&gt;MetaTagExtractorModule</title>
<path fill="none" stroke="black" d="M1607,-122.03C1607,-139.06 1607,-162 1607,-162 1607,-162 1417.28,-162 1417.28,-162"/>
<polygon fill="black" stroke="black" points="1417.28,-158.5 1407.28,-162 1417.28,-165.5 1417.28,-158.5"/>
</g>
<!-- LoggerModule -->
<g id="node6" class="node">
<title>LoggerModule</title>
<polygon fill="#8dd3c7" stroke="black" points="1538.98,-122 1535.98,-126 1514.98,-126 1511.98,-122 1439.02,-122 1439.02,-86 1538.98,-86 1538.98,-122"/>
<text text-anchor="middle" x="1489" y="-99.8" font-family="Times,serif" font-size="14.00">LoggerModule</text>
</g>
<!-- LoggerModule&#45;&gt;MetaTagExtractorModule -->
<g id="edge6" class="edge">
<title>LoggerModule&#45;&gt;MetaTagExtractorModule</title>
<path fill="none" stroke="black" d="M1489,-122.24C1489,-137.57 1489,-157 1489,-157 1489,-157 1417.5,-157 1417.5,-157"/>
<polygon fill="black" stroke="black" points="1417.5,-153.5 1407.5,-157 1417.5,-160.5 1417.5,-153.5"/>
</g>
<!-- TaskModule -->
<g id="node7" class="node">
<title>TaskModule</title>
<polygon fill="#8dd3c7" stroke="black" points="1421.26,-122 1418.26,-126 1397.26,-126 1394.26,-122 1334.74,-122 1334.74,-86 1421.26,-86 1421.26,-122"/>
<text text-anchor="middle" x="1378" y="-99.8" font-family="Times,serif" font-size="14.00">TaskModule</text>
</g>
<!-- TaskModule&#45;&gt;MetaTagExtractorModule -->
<g id="edge7" class="edge">
<title>TaskModule&#45;&gt;MetaTagExtractorModule</title>
<path fill="none" stroke="black" d="M1370.85,-122.11C1370.85,-122.11 1370.85,-140.99 1370.85,-140.99"/>
<polygon fill="black" stroke="black" points="1367.35,-140.99 1370.85,-150.99 1374.35,-140.99 1367.35,-140.99"/>
</g>
<!-- UserModule -->
<g id="node8" class="node">
<title>UserModule</title>
<polygon fill="#8dd3c7" stroke="black" points="1316.98,-122 1313.98,-126 1292.98,-126 1289.98,-122 1231.02,-122 1231.02,-86 1316.98,-86 1316.98,-122"/>
<text text-anchor="middle" x="1274" y="-99.8" font-family="Times,serif" font-size="14.00">UserModule</text>
</g>
<!-- UserModule&#45;&gt;MetaTagExtractorModule -->
<g id="edge8" class="edge">
<title>UserModule&#45;&gt;MetaTagExtractorModule</title>
<path fill="none" stroke="black" d="M1280.95,-122.11C1280.95,-122.11 1280.95,-140.99 1280.95,-140.99"/>
<polygon fill="black" stroke="black" points="1277.45,-140.99 1280.95,-150.99 1284.45,-140.99 1277.45,-140.99"/>
</g>
<!-- MetaTagExtractorService  -->
<g id="node10" class="node">
<title>MetaTagExtractorService </title>
<polygon fill="#fb8072" stroke="black" points="1408.09,-252 1243.91,-252 1243.91,-216 1408.09,-216 1408.09,-252"/>
<text text-anchor="middle" x="1326" y="-229.8" font-family="Times,serif" font-size="14.00">MetaTagExtractorService </text>
</g>
<!-- MetaTagExtractorModule&#45;&gt;MetaTagExtractorService  -->
<g id="edge9" class="edge">
<title>MetaTagExtractorModule&#45;&gt;MetaTagExtractorService </title>
<path fill="none" stroke="black" stroke-dasharray="5,2" d="M1326,-187.11C1326,-187.11 1326,-205.99 1326,-205.99"/>
<polygon fill="black" stroke="black" points="1322.5,-205.99 1326,-215.99 1329.5,-205.99 1322.5,-205.99"/>
</g>
<!-- BoardUrlHandler -->
<g id="node11" class="node">
<title>BoardUrlHandler</title>
<ellipse fill="#fdb462" stroke="black" cx="1128" cy="-104" rx="78.71" ry="18"/>
<text text-anchor="middle" x="1128" y="-99.8" font-family="Times,serif" font-size="14.00">BoardUrlHandler</text>
</g>
<!-- BoardUrlHandler&#45;&gt;MetaTagExtractorModule -->
<g id="edge10" class="edge">
<title>BoardUrlHandler&#45;&gt;MetaTagExtractorModule</title>
<path fill="none" stroke="black" d="M1128,-122.24C1128,-137.57 1128,-157 1128,-157 1128,-157 1234.89,-157 1234.89,-157"/>
<polygon fill="black" stroke="black" points="1234.89,-160.5 1244.89,-157 1234.89,-153.5 1234.89,-160.5"/>
</g>
<!-- CourseUrlHandler -->
<g id="node12" class="node">
<title>CourseUrlHandler</title>
<ellipse fill="#fdb462" stroke="black" cx="949" cy="-104" rx="82.22" ry="18"/>
<text text-anchor="middle" x="949" y="-99.8" font-family="Times,serif" font-size="14.00">CourseUrlHandler</text>
</g>
<!-- CourseUrlHandler&#45;&gt;MetaTagExtractorModule -->
<g id="edge11" class="edge">
<title>CourseUrlHandler&#45;&gt;MetaTagExtractorModule</title>
<path fill="none" stroke="black" d="M949,-122.03C949,-139.06 949,-162 949,-162 949,-162 1234.66,-162 1234.66,-162"/>
<polygon fill="black" stroke="black" points="1234.66,-165.5 1244.66,-162 1234.66,-158.5 1234.66,-165.5"/>
</g>
<!-- LessonUrlHandler -->
<g id="node13" class="node">
<title>LessonUrlHandler</title>
<ellipse fill="#fdb462" stroke="black" cx="766" cy="-104" rx="82.22" ry="18"/>
<text text-anchor="middle" x="766" y="-99.8" font-family="Times,serif" font-size="14.00">LessonUrlHandler</text>
</g>
<!-- LessonUrlHandler&#45;&gt;MetaTagExtractorModule -->
<g id="edge12" class="edge">
<title>LessonUrlHandler&#45;&gt;MetaTagExtractorModule</title>
<path fill="none" stroke="black" d="M766,-122.22C766,-140.83 766,-167 766,-167 766,-167 1234.87,-167 1234.87,-167"/>
<polygon fill="black" stroke="black" points="1234.87,-170.5 1244.87,-167 1234.87,-163.5 1234.87,-170.5"/>
</g>
<!-- MetaTagExtractorService -->
<g id="node14" class="node">
<title>MetaTagExtractorService</title>
<ellipse fill="#fdb462" stroke="black" cx="555" cy="-104" rx="110.55" ry="18"/>
<text text-anchor="middle" x="555" y="-99.8" font-family="Times,serif" font-size="14.00">MetaTagExtractorService</text>
</g>
<!-- MetaTagExtractorService&#45;&gt;MetaTagExtractorModule -->
<g id="edge13" class="edge">
<title>MetaTagExtractorService&#45;&gt;MetaTagExtractorModule</title>
<path fill="none" stroke="black" d="M555,-122.22C555,-142.37 555,-172 555,-172 555,-172 1234.58,-172 1234.58,-172"/>
<polygon fill="black" stroke="black" points="1234.58,-175.5 1244.58,-172 1234.58,-168.5 1234.58,-175.5"/>
</g>
<!-- MetaTagInternalUrlService -->
<g id="node15" class="node">
<title>MetaTagInternalUrlService</title>
<ellipse fill="#fdb462" stroke="black" cx="308" cy="-104" rx="117.99" ry="18"/>
<text text-anchor="middle" x="308" y="-99.8" font-family="Times,serif" font-size="14.00">MetaTagInternalUrlService</text>
</g>
<!-- MetaTagInternalUrlService&#45;&gt;MetaTagExtractorModule -->
<g id="edge14" class="edge">
<title>MetaTagInternalUrlService&#45;&gt;MetaTagExtractorModule</title>
<path fill="none" stroke="black" d="M308,-122.04C308,-143.66 308,-177 308,-177 308,-177 1234.84,-177 1234.84,-177"/>
<polygon fill="black" stroke="black" points="1234.84,-180.5 1244.84,-177 1234.84,-173.5 1234.84,-180.5"/>
</g>
<!-- TaskUrlHandler -->
<g id="node16" class="node">
<title>TaskUrlHandler</title>
<ellipse fill="#fdb462" stroke="black" cx="98" cy="-104" rx="73.55" ry="18"/>
<text text-anchor="middle" x="98" y="-99.8" font-family="Times,serif" font-size="14.00">TaskUrlHandler</text>
</g>
<!-- TaskUrlHandler&#45;&gt;MetaTagExtractorModule -->
<g id="edge15" class="edge">
<title>TaskUrlHandler&#45;&gt;MetaTagExtractorModule</title>
<path fill="none" stroke="black" d="M98,-122.09C98,-145.13 98,-182 98,-182 98,-182 1234.48,-182 1234.48,-182"/>
<polygon fill="black" stroke="black" points="1234.48,-185.5 1244.48,-182 1234.48,-178.5 1234.48,-185.5"/>
</g>
</g>
</svg>
