<?xml version="1.0" encoding="UTF-8" standalone="no"?>
<!DOCTYPE svg PUBLIC "-//W3C//DTD SVG 1.1//EN"
 "http://www.w3.org/Graphics/SVG/1.1/DTD/svg11.dtd">
<!-- Generated by graphviz version 2.47.0 (20210316.0004)
 -->
<!-- Title: dependencies Pages: 1 -->
<svg width="826pt" height="284pt"
 viewBox="0.00 0.00 826.00 284.00" xmlns="http://www.w3.org/2000/svg" xmlns:xlink="http://www.w3.org/1999/xlink">
<g id="graph0" class="graph" transform="scale(1 1) rotate(0) translate(4 280)">
<title>dependencies</title>
<polygon fill="white" stroke="transparent" points="-4,4 -4,-280 822,-280 822,4 -4,4"/>
<text text-anchor="start" x="388.01" y="-42.4" font-family="Times-12" font-weight="bold" font-size="14.00">Legend</text>
<polygon fill="#ffffb3" stroke="transparent" points="175,-10 175,-30 195,-30 195,-10 175,-10"/>
<text text-anchor="start" x="198.63" y="-15.4" font-family="Times-12" font-size="14.00"> &#160;Declarations</text>
<polygon fill="#8dd3c7" stroke="transparent" points="288,-10 288,-30 308,-30 308,-10 288,-10"/>
<text text-anchor="start" x="311.73" y="-15.4" font-family="Times-12" font-size="14.00"> &#160;Module</text>
<polygon fill="#80b1d3" stroke="transparent" points="374,-10 374,-30 394,-30 394,-10 374,-10"/>
<text text-anchor="start" x="397.78" y="-15.4" font-family="Times-12" font-size="14.00"> &#160;Bootstrap</text>
<polygon fill="#fdb462" stroke="transparent" points="471,-10 471,-30 491,-30 491,-10 471,-10"/>
<text text-anchor="start" x="494.67" y="-15.4" font-family="Times-12" font-size="14.00"> &#160;Providers</text>
<polygon fill="#fb8072" stroke="transparent" points="567,-10 567,-30 587,-30 587,-10 567,-10"/>
<text text-anchor="start" x="590.73" y="-15.4" font-family="Times-12" font-size="14.00"> &#160;Exports</text>
<g id="clust1" class="cluster">
<title>cluster_MetaTagExtractorModule</title>
<polygon fill="none" stroke="black" stroke-dasharray="1,5" points="8,-70 8,-268 810,-268 810,-70 8,-70"/>
</g>
<g id="clust3" class="cluster">
<title>cluster_MetaTagExtractorModule_imports</title>
<polygon fill="none" stroke="black" points="262,-78 262,-130 802,-130 802,-78 262,-78"/>
</g>
<g id="clust4" class="cluster">
<title>cluster_MetaTagExtractorModule_exports</title>
<polygon fill="none" stroke="black" points="334,-208 334,-260 514,-260 514,-208 334,-208"/>
</g>
<g id="clust6" class="cluster">
<title>cluster_MetaTagExtractorModule_providers</title>
<polygon fill="none" stroke="black" points="16,-78 16,-130 254,-130 254,-78 16,-78"/>
</g>
<!-- AuthenticationModule -->
<g id="node1" class="node">
<title>AuthenticationModule</title>
<polygon fill="#8dd3c7" stroke="black" points="794.25,-122 791.25,-126 770.25,-126 767.25,-122 651.75,-122 651.75,-86 794.25,-86 794.25,-122"/>
<text text-anchor="middle" x="723" y="-99.8" font-family="Times,serif" font-size="14.00">AuthenticationModule</text>
</g>
<!-- MetaTagExtractorModule -->
<g id="node5" class="node">
<title>MetaTagExtractorModule</title>
<polygon fill="#8dd3c7" stroke="black" points="505.17,-187 502.17,-191 481.17,-191 478.17,-187 342.83,-187 342.83,-151 505.17,-151 505.17,-187"/>
<text text-anchor="middle" x="424" y="-164.8" font-family="Times,serif" font-size="14.00">MetaTagExtractorModule</text>
</g>
<!-- AuthenticationModule&#45;&gt;MetaTagExtractorModule -->
<g id="edge1" class="edge">
<title>AuthenticationModule&#45;&gt;MetaTagExtractorModule</title>
<path fill="none" stroke="black" d="M723,-122.11C723,-141.34 723,-169 723,-169 723,-169 515.31,-169 515.31,-169"/>
<polygon fill="black" stroke="black" points="515.31,-165.5 505.31,-169 515.31,-172.5 515.31,-165.5"/>
</g>
<!-- ConsoleWriterModule -->
<g id="node2" class="node">
<title>ConsoleWriterModule</title>
<polygon fill="#8dd3c7" stroke="black" points="633.97,-122 630.97,-126 609.97,-126 606.97,-122 492.03,-122 492.03,-86 633.97,-86 633.97,-122"/>
<text text-anchor="middle" x="563" y="-99.8" font-family="Times,serif" font-size="14.00">ConsoleWriterModule</text>
</g>
<!-- ConsoleWriterModule&#45;&gt;MetaTagExtractorModule -->
<g id="edge2" class="edge">
<title>ConsoleWriterModule&#45;&gt;MetaTagExtractorModule</title>
<path fill="none" stroke="black" d="M498.55,-122.11C498.55,-122.11 498.55,-140.99 498.55,-140.99"/>
<polygon fill="black" stroke="black" points="495.05,-140.99 498.55,-150.99 502.05,-140.99 495.05,-140.99"/>
</g>
<!-- LoggerModule -->
<g id="node3" class="node">
<title>LoggerModule</title>
<polygon fill="#8dd3c7" stroke="black" points="473.98,-122 470.98,-126 449.98,-126 446.98,-122 374.02,-122 374.02,-86 473.98,-86 473.98,-122"/>
<text text-anchor="middle" x="424" y="-99.8" font-family="Times,serif" font-size="14.00">LoggerModule</text>
</g>
<!-- LoggerModule&#45;&gt;MetaTagExtractorModule -->
<g id="edge3" class="edge">
<title>LoggerModule&#45;&gt;MetaTagExtractorModule</title>
<path fill="none" stroke="black" d="M424,-122.11C424,-122.11 424,-140.99 424,-140.99"/>
<polygon fill="black" stroke="black" points="420.5,-140.99 424,-150.99 427.5,-140.99 420.5,-140.99"/>
</g>
<!-- UserModule -->
<g id="node4" class="node">
<title>UserModule</title>
<polygon fill="#8dd3c7" stroke="black" points="355.98,-122 352.98,-126 331.98,-126 328.98,-122 270.02,-122 270.02,-86 355.98,-86 355.98,-122"/>
<text text-anchor="middle" x="313" y="-99.8" font-family="Times,serif" font-size="14.00">UserModule</text>
</g>
<!-- UserModule&#45;&gt;MetaTagExtractorModule -->
<g id="edge4" class="edge">
<title>UserModule&#45;&gt;MetaTagExtractorModule</title>
<path fill="none" stroke="black" d="M349.45,-122.11C349.45,-122.11 349.45,-140.99 349.45,-140.99"/>
<polygon fill="black" stroke="black" points="345.95,-140.99 349.45,-150.99 352.95,-140.99 345.95,-140.99"/>
</g>
<!-- MetaTagExtractorService  -->
<g id="node6" class="node">
<title>MetaTagExtractorService </title>
<polygon fill="#fb8072" stroke="black" points="506.09,-252 341.91,-252 341.91,-216 506.09,-216 506.09,-252"/>
<text text-anchor="middle" x="424" y="-229.8" font-family="Times,serif" font-size="14.00">MetaTagExtractorService </text>
</g>
<!-- MetaTagExtractorModule&#45;&gt;MetaTagExtractorService  -->
<g id="edge5" class="edge">
<title>MetaTagExtractorModule&#45;&gt;MetaTagExtractorService </title>
<path fill="none" stroke="black" stroke-dasharray="5,2" d="M424,-187.11C424,-187.11 424,-205.99 424,-205.99"/>
<polygon fill="black" stroke="black" points="420.5,-205.99 424,-215.99 427.5,-205.99 420.5,-205.99"/>
</g>
<!-- MetaTagExtractorService -->
<g id="node7" class="node">
<title>MetaTagExtractorService</title>
<ellipse fill="#fdb462" stroke="black" cx="135" cy="-104" rx="110.55" ry="18"/>
<text text-anchor="middle" x="135" y="-99.8" font-family="Times,serif" font-size="14.00">MetaTagExtractorService</text>
</g>
<!-- MetaTagExtractorService&#45;&gt;MetaTagExtractorModule -->
<g id="edge6" class="edge">
<title>MetaTagExtractorService&#45;&gt;MetaTagExtractorModule</title>
<path fill="none" stroke="black" d="M135,-122.11C135,-141.34 135,-169 135,-169 135,-169 332.73,-169 332.73,-169"/>
<polygon fill="black" stroke="black" points="332.73,-172.5 342.73,-169 332.73,-165.5 332.73,-172.5"/>
</g>
</g>
</svg>
