<?xml version="1.0" encoding="UTF-8" standalone="no"?>
<!DOCTYPE svg PUBLIC "-//W3C//DTD SVG 1.1//EN"
 "http://www.w3.org/Graphics/SVG/1.1/DTD/svg11.dtd">
<!-- Generated by graphviz version 5.0.0 (20220707.1540)
 -->
<!-- Title: dependencies Pages: 1 -->
<svg width="250pt" height="247pt"
 viewBox="0.00 0.00 250.00 246.80" xmlns="http://www.w3.org/2000/svg" xmlns:xlink="http://www.w3.org/1999/xlink">
<g id="graph0" class="graph" transform="scale(1 1) rotate(0) translate(4 242.8)">
<title>dependencies</title>
<polygon fill="white" stroke="transparent" points="-4,4 -4,-242.8 246,-242.8 246,4 -4,4"/>
<text text-anchor="middle" x="121" y="-8.2" font-family="sans-serif" font-size="14.00">dependencies</text>
<g id="clust1" class="cluster">
<title>cluster_ConsoleWriterModule</title>
<polygon fill="none" stroke="black" stroke-dasharray="1,5" points="8,-32.8 8,-230.8 234,-230.8 234,-32.8 8,-32.8"/>
</g>
<g id="clust6" class="cluster">
<title>cluster_ConsoleWriterModule_providers</title>
<polygon fill="none" stroke="black" points="16,-40.8 16,-92.8 226,-92.8 226,-40.8 16,-40.8"/>
</g>
<g id="clust4" class="cluster">
<title>cluster_ConsoleWriterModule_exports</title>
<polygon fill="none" stroke="black" points="41,-170.8 41,-222.8 201,-222.8 201,-170.8 41,-170.8"/>
</g>
<!-- ConsoleWriterService  -->
<g id="node1" class="node">
<title>ConsoleWriterService </title>
<polygon fill="#fb8072" stroke="black" points="192.9,-214.8 49.1,-214.8 49.1,-178.8 192.9,-178.8 192.9,-214.8"/>
<text text-anchor="middle" x="121" y="-192.6" font-family="Times,serif" font-size="14.00">ConsoleWriterService </text>
</g>
<!-- ConsoleWriterModule -->
<g id="node2" class="node">
<title>ConsoleWriterModule</title>
<polygon fill="#8dd3c7" stroke="black" points="191.97,-149.8 188.97,-153.8 167.97,-153.8 164.97,-149.8 50.03,-149.8 50.03,-113.8 191.97,-113.8 191.97,-149.8"/>
<text text-anchor="middle" x="121" y="-127.6" font-family="Times,serif" font-size="14.00">ConsoleWriterModule</text>
</g>
<!-- ConsoleWriterModule&#45;&gt;ConsoleWriterService  -->
<g id="edge1" class="edge">
<title>ConsoleWriterModule&#45;&gt;ConsoleWriterService </title>
<path fill="none" stroke="black" stroke-dasharray="5,2" d="M121,-149.91C121,-149.91 121,-168.79 121,-168.79"/>
<polygon fill="black" stroke="black" points="117.5,-168.79 121,-178.79 124.5,-168.79 117.5,-168.79"/>
</g>
<!-- ConsoleWriterService -->
<g id="node3" class="node">
<title>ConsoleWriterService</title>
<ellipse fill="#fdb462" stroke="black" cx="121" cy="-66.8" rx="96.69" ry="18"/>
<text text-anchor="middle" x="121" y="-62.6" font-family="Times,serif" font-size="14.00">ConsoleWriterService</text>
</g>
<!-- ConsoleWriterService&#45;&gt;ConsoleWriterModule -->
<g id="edge2" class="edge">
<title>ConsoleWriterService&#45;&gt;ConsoleWriterModule</title>
<path fill="none" stroke="black" d="M121,-84.91C121,-84.91 121,-103.79 121,-103.79"/>
<polygon fill="black" stroke="black" points="117.5,-103.79 121,-113.79 124.5,-103.79 117.5,-103.79"/>
</g>
</g>
</svg>
