<?xml version="1.0" encoding="UTF-8" standalone="no"?>
<!DOCTYPE svg PUBLIC "-//W3C//DTD SVG 1.1//EN"
 "http://www.w3.org/Graphics/SVG/1.1/DTD/svg11.dtd">
<!-- Generated by graphviz version 5.0.0 (20220707.1540)
 -->
<!-- Title: dependencies Pages: 1 -->
<svg width="1834pt" height="174pt"
 viewBox="0.00 0.00 1834.00 173.80" xmlns="http://www.w3.org/2000/svg" xmlns:xlink="http://www.w3.org/1999/xlink">
<g id="graph0" class="graph" transform="scale(1 1) rotate(0) translate(4 169.8)">
<title>dependencies</title>
<polygon fill="white" stroke="transparent" points="-4,4 -4,-169.8 1830,-169.8 1830,4 -4,4"/>
<text text-anchor="middle" x="913" y="-8.2" font-family="sans-serif" font-size="14.00">dependencies</text>
<g id="clust1" class="cluster">
<title>cluster_ManagementModule</title>
<polygon fill="none" stroke="black" stroke-dasharray="1,5" points="8,-32.8 8,-157.8 1818,-157.8 1818,-32.8 8,-32.8"/>
</g>
<g id="clust3" class="cluster">
<title>cluster_ManagementModule_imports</title>
<polygon fill="none" stroke="black" points="895,-40.8 895,-92.8 1810,-92.8 1810,-40.8 895,-40.8"/>
</g>
<g id="clust6" class="cluster">
<title>cluster_ManagementModule_providers</title>
<polygon fill="none" stroke="black" points="16,-40.8 16,-92.8 887,-92.8 887,-40.8 16,-40.8"/>
</g>
<!-- AuthenticationModule -->
<g id="node1" class="node">
<title>AuthenticationModule</title>
<polygon fill="#8dd3c7" stroke="black" points="1802.25,-84.8 1799.25,-88.8 1778.25,-88.8 1775.25,-84.8 1659.75,-84.8 1659.75,-48.8 1802.25,-48.8 1802.25,-84.8"/>
<text text-anchor="middle" x="1731" y="-62.6" font-family="Times,serif" font-size="14.00">AuthenticationModule</text>
</g>
<!-- ManagementModule -->
<g id="node7" class="node">
<title>ManagementModule</title>
<polygon fill="#8dd3c7" stroke="black" points="1147.14,-149.8 1144.14,-153.8 1123.14,-153.8 1120.14,-149.8 1014.86,-149.8 1014.86,-113.8 1147.14,-113.8 1147.14,-149.8"/>
<text text-anchor="middle" x="1081" y="-127.6" font-family="Times,serif" font-size="14.00">ManagementModule</text>
</g>
<!-- AuthenticationModule&#45;&gt;ManagementModule -->
<g id="edge1" class="edge">
<title>AuthenticationModule&#45;&gt;ManagementModule</title>
<path fill="none" stroke="black" d="M1731,-84.81C1731,-107.29 1731,-142.8 1731,-142.8 1731,-142.8 1157.2,-142.8 1157.2,-142.8"/>
<polygon fill="black" stroke="black" points="1157.2,-139.3 1147.2,-142.8 1157.2,-146.3 1157.2,-139.3"/>
</g>
<!-- AuthorizationModule -->
<g id="node2" class="node">
<title>AuthorizationModule</title>
<polygon fill="#8dd3c7" stroke="black" points="1641.81,-84.8 1638.81,-88.8 1617.81,-88.8 1614.81,-84.8 1504.19,-84.8 1504.19,-48.8 1641.81,-48.8 1641.81,-84.8"/>
<text text-anchor="middle" x="1573" y="-62.6" font-family="Times,serif" font-size="14.00">AuthorizationModule</text>
</g>
<!-- AuthorizationModule&#45;&gt;ManagementModule -->
<g id="edge2" class="edge">
<title>AuthorizationModule&#45;&gt;ManagementModule</title>
<path fill="none" stroke="black" d="M1573,-84.93C1573,-105.37 1573,-135.8 1573,-135.8 1573,-135.8 1157.35,-135.8 1157.35,-135.8"/>
<polygon fill="black" stroke="black" points="1157.35,-132.3 1147.35,-135.8 1157.35,-139.3 1157.35,-132.3"/>
</g>
<!-- CoreModule -->
<g id="node3" class="node">
<title>CoreModule</title>
<polygon fill="#8dd3c7" stroke="black" points="1486.27,-84.8 1483.27,-88.8 1462.27,-88.8 1459.27,-84.8 1399.73,-84.8 1399.73,-48.8 1486.27,-48.8 1486.27,-84.8"/>
<text text-anchor="middle" x="1443" y="-62.6" font-family="Times,serif" font-size="14.00">CoreModule</text>
</g>
<!-- CoreModule&#45;&gt;ManagementModule -->
<g id="edge3" class="edge">
<title>CoreModule&#45;&gt;ManagementModule</title>
<path fill="none" stroke="black" d="M1443,-85.07C1443,-103.36 1443,-128.8 1443,-128.8 1443,-128.8 1157.4,-128.8 1157.4,-128.8"/>
<polygon fill="black" stroke="black" points="1157.4,-125.3 1147.4,-128.8 1157.4,-132.3 1157.4,-125.3"/>
</g>
<!-- FilesStorageApiModule -->
<g id="node4" class="node">
<title>FilesStorageApiModule</title>
<polygon fill="#8dd3c7" stroke="black" points="1381.05,-84.8 1378.05,-88.8 1357.05,-88.8 1354.05,-84.8 1230.95,-84.8 1230.95,-48.8 1381.05,-48.8 1381.05,-84.8"/>
<text text-anchor="middle" x="1306" y="-62.6" font-family="Times,serif" font-size="14.00">FilesStorageApiModule</text>
</g>
<!-- FilesStorageApiModule&#45;&gt;ManagementModule -->
<g id="edge4" class="edge">
<title>FilesStorageApiModule&#45;&gt;ManagementModule</title>
<path fill="none" stroke="black" d="M1306,-84.81C1306,-100.85 1306,-121.8 1306,-121.8 1306,-121.8 1157.29,-121.8 1157.29,-121.8"/>
<polygon fill="black" stroke="black" points="1157.29,-118.3 1147.29,-121.8 1157.29,-125.3 1157.29,-118.3"/>
</g>
<!-- LoggerModule -->
<g id="node5" class="node">
<title>LoggerModule</title>
<polygon fill="#8dd3c7" stroke="black" points="1212.98,-84.8 1209.98,-88.8 1188.98,-88.8 1185.98,-84.8 1113.02,-84.8 1113.02,-48.8 1212.98,-48.8 1212.98,-84.8"/>
<text text-anchor="middle" x="1163" y="-62.6" font-family="Times,serif" font-size="14.00">LoggerModule</text>
</g>
<!-- LoggerModule&#45;&gt;ManagementModule -->
<g id="edge5" class="edge">
<title>LoggerModule&#45;&gt;ManagementModule</title>
<path fill="none" stroke="black" d="M1130.16,-84.91C1130.16,-84.91 1130.16,-103.79 1130.16,-103.79"/>
<polygon fill="black" stroke="black" points="1126.66,-103.79 1130.16,-113.79 1133.66,-103.79 1126.66,-103.79"/>
</g>
<!-- RabbitMQWrapperTestModule -->
<g id="node6" class="node">
<title>RabbitMQWrapperTestModule</title>
<polygon fill="#8dd3c7" stroke="black" points="1095.01,-84.8 1092.01,-88.8 1071.01,-88.8 1068.01,-84.8 902.99,-84.8 902.99,-48.8 1095.01,-48.8 1095.01,-84.8"/>
<text text-anchor="middle" x="999" y="-62.6" font-family="Times,serif" font-size="14.00">RabbitMQWrapperTestModule</text>
</g>
<!-- RabbitMQWrapperTestModule&#45;&gt;ManagementModule -->
<g id="edge6" class="edge">
<title>RabbitMQWrapperTestModule&#45;&gt;ManagementModule</title>
<path fill="none" stroke="black" d="M1054.97,-84.91C1054.97,-84.91 1054.97,-103.79 1054.97,-103.79"/>
<polygon fill="black" stroke="black" points="1051.47,-103.79 1054.97,-113.79 1058.47,-103.79 1051.47,-103.79"/>
</g>
<!-- BsonConverter -->
<g id="node8" class="node">
<title>BsonConverter</title>
<ellipse fill="#fdb462" stroke="black" cx="809" cy="-66.8" rx="69.51" ry="18"/>
<text text-anchor="middle" x="809" y="-62.6" font-family="Times,serif" font-size="14.00">BsonConverter</text>
</g>
<!-- BsonConverter&#45;&gt;ManagementModule -->
<g id="edge7" class="edge">
<title>BsonConverter&#45;&gt;ManagementModule</title>
<path fill="none" stroke="black" d="M809,-84.81C809,-100.85 809,-121.8 809,-121.8 809,-121.8 1004.81,-121.8 1004.81,-121.8"/>
<polygon fill="black" stroke="black" points="1004.81,-125.3 1014.81,-121.8 1004.81,-118.3 1004.81,-125.3"/>
</g>
<!-- ConsoleWriterService -->
<g id="node9" class="node">
<title>ConsoleWriterService</title>
<ellipse fill="#fdb462" stroke="black" cx="625" cy="-66.8" rx="96.69" ry="18"/>
<text text-anchor="middle" x="625" y="-62.6" font-family="Times,serif" font-size="14.00">ConsoleWriterService</text>
</g>
<!-- ConsoleWriterService&#45;&gt;ManagementModule -->
<g id="edge8" class="edge">
<title>ConsoleWriterService&#45;&gt;ManagementModule</title>
<path fill="none" stroke="black" d="M625,-85.07C625,-103.36 625,-128.8 625,-128.8 625,-128.8 1004.69,-128.8 1004.69,-128.8"/>
<polygon fill="black" stroke="black" points="1004.69,-132.3 1014.69,-128.8 1004.69,-125.3 1004.69,-132.3"/>
</g>
<!-- DatabaseManagementService -->
<g id="node10" class="node">
<title>DatabaseManagementService</title>
<ellipse fill="#fdb462" stroke="black" cx="384" cy="-66.8" rx="125.59" ry="18"/>
<text text-anchor="middle" x="384" y="-62.6" font-family="Times,serif" font-size="14.00">DatabaseManagementService</text>
</g>
<!-- DatabaseManagementService&#45;&gt;ManagementModule -->
<g id="edge9" class="edge">
<title>DatabaseManagementService&#45;&gt;ManagementModule</title>
<path fill="none" stroke="black" d="M384,-84.93C384,-105.37 384,-135.8 384,-135.8 384,-135.8 1004.8,-135.8 1004.8,-135.8"/>
<polygon fill="black" stroke="black" points="1004.8,-139.3 1014.8,-135.8 1004.8,-132.3 1004.8,-139.3"/>
</g>
<!-- DatabaseManagementUc -->
<g id="node11" class="node">
<title>DatabaseManagementUc</title>
<ellipse fill="#fdb462" stroke="black" cx="132" cy="-66.8" rx="108.19" ry="18"/>
<text text-anchor="middle" x="132" y="-62.6" font-family="Times,serif" font-size="14.00">DatabaseManagementUc</text>
</g>
<!-- DatabaseManagementUc&#45;&gt;ManagementModule -->
<g id="edge10" class="edge">
<title>DatabaseManagementUc&#45;&gt;ManagementModule</title>
<path fill="none" stroke="black" d="M132,-84.81C132,-107.29 132,-142.8 132,-142.8 132,-142.8 1004.65,-142.8 1004.65,-142.8"/>
<polygon fill="black" stroke="black" points="1004.65,-146.3 1014.65,-142.8 1004.65,-139.3 1004.65,-146.3"/>
</g>
</g>
</svg>
