<?xml version="1.0" encoding="UTF-8" standalone="no"?>
<!DOCTYPE svg PUBLIC "-//W3C//DTD SVG 1.1//EN"
 "http://www.w3.org/Graphics/SVG/1.1/DTD/svg11.dtd">
<!-- Generated by graphviz version 5.0.0 (20220707.1540)
 -->
<!-- Title: dependencies Pages: 1 -->
<svg width="1834pt" height="174pt"
 viewBox="0.00 0.00 1834.00 173.80" xmlns="http://www.w3.org/2000/svg" xmlns:xlink="http://www.w3.org/1999/xlink">
<g id="graph0" class="graph" transform="scale(1 1) rotate(0) translate(4 169.8)">
<title>dependencies</title>
<polygon fill="white" stroke="transparent" points="-4,4 -4,-169.8 1830,-169.8 1830,4 -4,4"/>
<text text-anchor="middle" x="913" y="-8.2" font-family="sans-serif" font-size="14.00">dependencies</text>
<g id="clust1" class="cluster">
<title>cluster_ManagementModule</title>
<polygon fill="none" stroke="black" stroke-dasharray="1,5" points="8,-32.8 8,-157.8 1818,-157.8 1818,-32.8 8,-32.8"/>
</g>
<g id="clust6" class="cluster">
<title>cluster_ManagementModule_providers</title>
<polygon fill="none" stroke="black" points="939,-40.8 939,-92.8 1810,-92.8 1810,-40.8 939,-40.8"/>
</g>
<g id="clust3" class="cluster">
<title>cluster_ManagementModule_imports</title>
<polygon fill="none" stroke="black" points="16,-40.8 16,-92.8 931,-92.8 931,-40.8 16,-40.8"/>
</g>
<!-- AuthenticationModule -->
<g id="node1" class="node">
<title>AuthenticationModule</title>
<polygon fill="#8dd3c7" stroke="black" points="923.25,-84.8 920.25,-88.8 899.25,-88.8 896.25,-84.8 780.75,-84.8 780.75,-48.8 923.25,-48.8 923.25,-84.8"/>
<text text-anchor="middle" x="852" y="-62.6" font-family="Times,serif" font-size="14.00">AuthenticationModule</text>
</g>
<!-- ManagementModule -->
<g id="node7" class="node">
<title>ManagementModule</title>
<polygon fill="#8dd3c7" stroke="black" points="839.14,-149.8 836.14,-153.8 815.14,-153.8 812.14,-149.8 706.86,-149.8 706.86,-113.8 839.14,-113.8 839.14,-149.8"/>
<text text-anchor="middle" x="773" y="-127.6" font-family="Times,serif" font-size="14.00">ManagementModule</text>
</g>
<!-- AuthenticationModule&#45;&gt;ManagementModule -->
<g id="edge1" class="edge">
<title>AuthenticationModule&#45;&gt;ManagementModule</title>
<path fill="none" stroke="black" d="M809.97,-84.91C809.97,-84.91 809.97,-103.79 809.97,-103.79"/>
<polygon fill="black" stroke="black" points="806.47,-103.79 809.97,-113.79 813.47,-103.79 806.47,-103.79"/>
</g>
<!-- AuthorizationModule -->
<g id="node2" class="node">
<title>AuthorizationModule</title>
<polygon fill="#8dd3c7" stroke="black" points="762.81,-84.8 759.81,-88.8 738.81,-88.8 735.81,-84.8 625.19,-84.8 625.19,-48.8 762.81,-48.8 762.81,-84.8"/>
<text text-anchor="middle" x="694" y="-62.6" font-family="Times,serif" font-size="14.00">AuthorizationModule</text>
</g>
<!-- AuthorizationModule&#45;&gt;ManagementModule -->
<g id="edge2" class="edge">
<title>AuthorizationModule&#45;&gt;ManagementModule</title>
<path fill="none" stroke="black" d="M734.67,-84.91C734.67,-84.91 734.67,-103.79 734.67,-103.79"/>
<polygon fill="black" stroke="black" points="731.17,-103.79 734.67,-113.79 738.17,-103.79 731.17,-103.79"/>
</g>
<!-- CoreModule -->
<g id="node3" class="node">
<title>CoreModule</title>
<polygon fill="#8dd3c7" stroke="black" points="607.27,-84.8 604.27,-88.8 583.27,-88.8 580.27,-84.8 520.73,-84.8 520.73,-48.8 607.27,-48.8 607.27,-84.8"/>
<text text-anchor="middle" x="564" y="-62.6" font-family="Times,serif" font-size="14.00">CoreModule</text>
</g>
<!-- CoreModule&#45;&gt;ManagementModule -->
<g id="edge3" class="edge">
<title>CoreModule&#45;&gt;ManagementModule</title>
<path fill="none" stroke="black" d="M564,-84.81C564,-100.85 564,-121.8 564,-121.8 564,-121.8 696.58,-121.8 696.58,-121.8"/>
<polygon fill="black" stroke="black" points="696.58,-125.3 706.58,-121.8 696.58,-118.3 696.58,-125.3"/>
</g>
<!-- FilesStorageApiModule -->
<g id="node4" class="node">
<title>FilesStorageApiModule</title>
<polygon fill="#8dd3c7" stroke="black" points="502.05,-84.8 499.05,-88.8 478.05,-88.8 475.05,-84.8 351.95,-84.8 351.95,-48.8 502.05,-48.8 502.05,-84.8"/>
<text text-anchor="middle" x="427" y="-62.6" font-family="Times,serif" font-size="14.00">FilesStorageApiModule</text>
</g>
<!-- FilesStorageApiModule&#45;&gt;ManagementModule -->
<g id="edge4" class="edge">
<title>FilesStorageApiModule&#45;&gt;ManagementModule</title>
<path fill="none" stroke="black" d="M427,-85.07C427,-103.36 427,-128.8 427,-128.8 427,-128.8 696.7,-128.8 696.7,-128.8"/>
<polygon fill="black" stroke="black" points="696.7,-132.3 706.7,-128.8 696.7,-125.3 696.7,-132.3"/>
</g>
<!-- LoggerModule -->
<g id="node5" class="node">
<title>LoggerModule</title>
<polygon fill="#8dd3c7" stroke="black" points="333.98,-84.8 330.98,-88.8 309.98,-88.8 306.98,-84.8 234.02,-84.8 234.02,-48.8 333.98,-48.8 333.98,-84.8"/>
<text text-anchor="middle" x="284" y="-62.6" font-family="Times,serif" font-size="14.00">LoggerModule</text>
</g>
<!-- LoggerModule&#45;&gt;ManagementModule -->
<g id="edge5" class="edge">
<title>LoggerModule&#45;&gt;ManagementModule</title>
<path fill="none" stroke="black" d="M284,-84.93C284,-105.37 284,-135.8 284,-135.8 284,-135.8 696.8,-135.8 696.8,-135.8"/>
<polygon fill="black" stroke="black" points="696.8,-139.3 706.8,-135.8 696.8,-132.3 696.8,-139.3"/>
</g>
<!-- RabbitMQWrapperTestModule -->
<g id="node6" class="node">
<title>RabbitMQWrapperTestModule</title>
<polygon fill="#8dd3c7" stroke="black" points="216.01,-84.8 213.01,-88.8 192.01,-88.8 189.01,-84.8 23.99,-84.8 23.99,-48.8 216.01,-48.8 216.01,-84.8"/>
<text text-anchor="middle" x="120" y="-62.6" font-family="Times,serif" font-size="14.00">RabbitMQWrapperTestModule</text>
</g>
<!-- RabbitMQWrapperTestModule&#45;&gt;ManagementModule -->
<g id="edge6" class="edge">
<title>RabbitMQWrapperTestModule&#45;&gt;ManagementModule</title>
<path fill="none" stroke="black" d="M120,-84.81C120,-107.29 120,-142.8 120,-142.8 120,-142.8 696.79,-142.8 696.79,-142.8"/>
<polygon fill="black" stroke="black" points="696.79,-146.3 706.79,-142.8 696.79,-139.3 696.79,-146.3"/>
</g>
<!-- BsonConverter -->
<g id="node8" class="node">
<title>BsonConverter</title>
<ellipse fill="#fdb462" stroke="black" cx="1732" cy="-66.8" rx="69.51" ry="18"/>
<text text-anchor="middle" x="1732" y="-62.6" font-family="Times,serif" font-size="14.00">BsonConverter</text>
</g>
<!-- BsonConverter&#45;&gt;ManagementModule -->
<g id="edge7" class="edge">
<title>BsonConverter&#45;&gt;ManagementModule</title>
<path fill="none" stroke="black" d="M1732,-84.81C1732,-107.29 1732,-142.8 1732,-142.8 1732,-142.8 849.29,-142.8 849.29,-142.8"/>
<polygon fill="black" stroke="black" points="849.29,-139.3 839.29,-142.8 849.29,-146.3 849.29,-139.3"/>
</g>
<!-- ConsoleWriterService -->
<g id="node9" class="node">
<title>ConsoleWriterService</title>
<ellipse fill="#fdb462" stroke="black" cx="1548" cy="-66.8" rx="96.69" ry="18"/>
<text text-anchor="middle" x="1548" y="-62.6" font-family="Times,serif" font-size="14.00">ConsoleWriterService</text>
</g>
<!-- ConsoleWriterService&#45;&gt;ManagementModule -->
<g id="edge8" class="edge">
<title>ConsoleWriterService&#45;&gt;ManagementModule</title>
<path fill="none" stroke="black" d="M1548,-84.93C1548,-105.37 1548,-135.8 1548,-135.8 1548,-135.8 849.41,-135.8 849.41,-135.8"/>
<polygon fill="black" stroke="black" points="849.41,-132.3 839.41,-135.8 849.41,-139.3 849.41,-132.3"/>
</g>
<!-- DatabaseManagementService -->
<g id="node10" class="node">
<title>DatabaseManagementService</title>
<ellipse fill="#fdb462" stroke="black" cx="1307" cy="-66.8" rx="125.59" ry="18"/>
<text text-anchor="middle" x="1307" y="-62.6" font-family="Times,serif" font-size="14.00">DatabaseManagementService</text>
</g>
<!-- DatabaseManagementService&#45;&gt;ManagementModule -->
<g id="edge9" class="edge">
<title>DatabaseManagementService&#45;&gt;ManagementModule</title>
<path fill="none" stroke="black" d="M1307,-85.07C1307,-103.36 1307,-128.8 1307,-128.8 1307,-128.8 849.28,-128.8 849.28,-128.8"/>
<polygon fill="black" stroke="black" points="849.28,-125.3 839.28,-128.8 849.28,-132.3 849.28,-125.3"/>
</g>
<!-- DatabaseManagementUc -->
<g id="node11" class="node">
<title>DatabaseManagementUc</title>
<ellipse fill="#fdb462" stroke="black" cx="1055" cy="-66.8" rx="108.19" ry="18"/>
<text text-anchor="middle" x="1055" y="-62.6" font-family="Times,serif" font-size="14.00">DatabaseManagementUc</text>
</g>
<!-- DatabaseManagementUc&#45;&gt;ManagementModule -->
<g id="edge10" class="edge">
<title>DatabaseManagementUc&#45;&gt;ManagementModule</title>
<path fill="none" stroke="black" d="M1055,-84.81C1055,-100.85 1055,-121.8 1055,-121.8 1055,-121.8 849.47,-121.8 849.47,-121.8"/>
<polygon fill="black" stroke="black" points="849.47,-118.3 839.47,-121.8 849.47,-125.3 849.47,-118.3"/>
</g>
</g>
</svg>
