<?xml version="1.0" encoding="UTF-8" standalone="no"?>
<!DOCTYPE svg PUBLIC "-//W3C//DTD SVG 1.1//EN"
 "http://www.w3.org/Graphics/SVG/1.1/DTD/svg11.dtd">
<!-- Generated by graphviz version 2.47.0 (20210316.0004)
 -->
<!-- Title: dependencies Pages: 1 -->
<svg width="1834pt" height="211pt"
 viewBox="0.00 0.00 1834.00 211.00" xmlns="http://www.w3.org/2000/svg" xmlns:xlink="http://www.w3.org/1999/xlink">
<g id="graph0" class="graph" transform="scale(1 1) rotate(0) translate(4 207)">
<title>dependencies</title>
<polygon fill="white" stroke="transparent" points="-4,4 -4,-207 1830,-207 1830,4 -4,4"/>
<text text-anchor="start" x="892.01" y="-42.4" font-family="Times-12" font-weight="bold" font-size="14.00">Legend</text>
<polygon fill="#ffffb3" stroke="transparent" points="679,-10 679,-30 699,-30 699,-10 679,-10"/>
<text text-anchor="start" x="702.63" y="-15.4" font-family="Times-12" font-size="14.00"> &#160;Declarations</text>
<polygon fill="#8dd3c7" stroke="transparent" points="792,-10 792,-30 812,-30 812,-10 792,-10"/>
<text text-anchor="start" x="815.73" y="-15.4" font-family="Times-12" font-size="14.00"> &#160;Module</text>
<polygon fill="#80b1d3" stroke="transparent" points="878,-10 878,-30 898,-30 898,-10 878,-10"/>
<text text-anchor="start" x="901.78" y="-15.4" font-family="Times-12" font-size="14.00"> &#160;Bootstrap</text>
<polygon fill="#fdb462" stroke="transparent" points="975,-10 975,-30 995,-30 995,-10 975,-10"/>
<text text-anchor="start" x="998.67" y="-15.4" font-family="Times-12" font-size="14.00"> &#160;Providers</text>
<polygon fill="#fb8072" stroke="transparent" points="1071,-10 1071,-30 1091,-30 1091,-10 1071,-10"/>
<text text-anchor="start" x="1094.73" y="-15.4" font-family="Times-12" font-size="14.00"> &#160;Exports</text>
<g id="clust1" class="cluster">
<title>cluster_ManagementModule</title>
<polygon fill="none" stroke="black" stroke-dasharray="1,5" points="8,-70 8,-195 1818,-195 1818,-70 8,-70"/>
</g>
<g id="clust3" class="cluster">
<title>cluster_ManagementModule_imports</title>
<polygon fill="none" stroke="black" points="895,-78 895,-130 1810,-130 1810,-78 895,-78"/>
</g>
<g id="clust6" class="cluster">
<title>cluster_ManagementModule_providers</title>
<polygon fill="none" stroke="black" points="16,-78 16,-130 887,-130 887,-78 16,-78"/>
</g>
<!-- AuthenticationModule -->
<g id="node1" class="node">
<title>AuthenticationModule</title>
<polygon fill="#8dd3c7" stroke="black" points="1802.25,-122 1799.25,-126 1778.25,-126 1775.25,-122 1659.75,-122 1659.75,-86 1802.25,-86 1802.25,-122"/>
<text text-anchor="middle" x="1731" y="-99.8" font-family="Times,serif" font-size="14.00">AuthenticationModule</text>
</g>
<!-- ManagementModule -->
<g id="node7" class="node">
<title>ManagementModule</title>
<polygon fill="#8dd3c7" stroke="black" points="1147.13,-187 1144.13,-191 1123.13,-191 1120.13,-187 1014.87,-187 1014.87,-151 1147.13,-151 1147.13,-187"/>
<text text-anchor="middle" x="1081" y="-164.8" font-family="Times,serif" font-size="14.00">ManagementModule</text>
</g>
<!-- AuthenticationModule&#45;&gt;ManagementModule -->
<g id="edge1" class="edge">
<title>AuthenticationModule&#45;&gt;ManagementModule</title>
<path fill="none" stroke="black" d="M1731,-122.01C1731,-144.49 1731,-180 1731,-180 1731,-180 1157.2,-180 1157.2,-180"/>
<polygon fill="black" stroke="black" points="1157.2,-176.5 1147.2,-180 1157.2,-183.5 1157.2,-176.5"/>
</g>
<!-- AuthorizationModule -->
<g id="node2" class="node">
<title>AuthorizationModule</title>
<polygon fill="#8dd3c7" stroke="black" points="1641.81,-122 1638.81,-126 1617.81,-126 1614.81,-122 1504.19,-122 1504.19,-86 1641.81,-86 1641.81,-122"/>
<text text-anchor="middle" x="1573" y="-99.8" font-family="Times,serif" font-size="14.00">AuthorizationModule</text>
</g>
<!-- AuthorizationModule&#45;&gt;ManagementModule -->
<g id="edge2" class="edge">
<title>AuthorizationModule&#45;&gt;ManagementModule</title>
<path fill="none" stroke="black" d="M1573,-122.13C1573,-142.57 1573,-173 1573,-173 1573,-173 1157.35,-173 1157.35,-173"/>
<polygon fill="black" stroke="black" points="1157.35,-169.5 1147.35,-173 1157.35,-176.5 1157.35,-169.5"/>
</g>
<!-- CoreModule -->
<g id="node3" class="node">
<title>CoreModule</title>
<polygon fill="#8dd3c7" stroke="black" points="1486.26,-122 1483.26,-126 1462.26,-126 1459.26,-122 1399.74,-122 1399.74,-86 1486.26,-86 1486.26,-122"/>
<text text-anchor="middle" x="1443" y="-99.8" font-family="Times,serif" font-size="14.00">CoreModule</text>
</g>
<!-- CoreModule&#45;&gt;ManagementModule -->
<g id="edge3" class="edge">
<title>CoreModule&#45;&gt;ManagementModule</title>
<path fill="none" stroke="black" d="M1443,-122.27C1443,-140.56 1443,-166 1443,-166 1443,-166 1157.4,-166 1157.4,-166"/>
<polygon fill="black" stroke="black" points="1157.4,-162.5 1147.4,-166 1157.4,-169.5 1157.4,-162.5"/>
</g>
<!-- FilesStorageApiModule -->
<g id="node4" class="node">
<title>FilesStorageApiModule</title>
<polygon fill="#8dd3c7" stroke="black" points="1381.03,-122 1378.03,-126 1357.03,-126 1354.03,-122 1230.97,-122 1230.97,-86 1381.03,-86 1381.03,-122"/>
<text text-anchor="middle" x="1306" y="-99.8" font-family="Times,serif" font-size="14.00">FilesStorageApiModule</text>
</g>
<!-- FilesStorageApiModule&#45;&gt;ManagementModule -->
<g id="edge4" class="edge">
<title>FilesStorageApiModule&#45;&gt;ManagementModule</title>
<path fill="none" stroke="black" d="M1306,-122.01C1306,-138.05 1306,-159 1306,-159 1306,-159 1157.29,-159 1157.29,-159"/>
<polygon fill="black" stroke="black" points="1157.29,-155.5 1147.29,-159 1157.29,-162.5 1157.29,-155.5"/>
</g>
<!-- LoggerModule -->
<g id="node5" class="node">
<title>LoggerModule</title>
<polygon fill="#8dd3c7" stroke="black" points="1212.98,-122 1209.98,-126 1188.98,-126 1185.98,-122 1113.02,-122 1113.02,-86 1212.98,-86 1212.98,-122"/>
<text text-anchor="middle" x="1163" y="-99.8" font-family="Times,serif" font-size="14.00">LoggerModule</text>
</g>
<!-- LoggerModule&#45;&gt;ManagementModule -->
<g id="edge5" class="edge">
<title>LoggerModule&#45;&gt;ManagementModule</title>
<path fill="none" stroke="black" d="M1130.16,-122.11C1130.16,-122.11 1130.16,-140.99 1130.16,-140.99"/>
<polygon fill="black" stroke="black" points="1126.66,-140.99 1130.16,-150.99 1133.66,-140.99 1126.66,-140.99"/>
</g>
<!-- RabbitMQWrapperTestModule -->
<g id="node6" class="node">
<title>RabbitMQWrapperTestModule</title>
<polygon fill="#8dd3c7" stroke="black" points="1095,-122 1092,-126 1071,-126 1068,-122 903,-122 903,-86 1095,-86 1095,-122"/>
<text text-anchor="middle" x="999" y="-99.8" font-family="Times,serif" font-size="14.00">RabbitMQWrapperTestModule</text>
</g>
<!-- RabbitMQWrapperTestModule&#45;&gt;ManagementModule -->
<g id="edge6" class="edge">
<title>RabbitMQWrapperTestModule&#45;&gt;ManagementModule</title>
<path fill="none" stroke="black" d="M1054.97,-122.11C1054.97,-122.11 1054.97,-140.99 1054.97,-140.99"/>
<polygon fill="black" stroke="black" points="1051.47,-140.99 1054.97,-150.99 1058.47,-140.99 1051.47,-140.99"/>
</g>
<!-- BsonConverter -->
<g id="node8" class="node">
<title>BsonConverter</title>
<ellipse fill="#fdb462" stroke="black" cx="809" cy="-104" rx="69.5" ry="18"/>
<text text-anchor="middle" x="809" y="-99.8" font-family="Times,serif" font-size="14.00">BsonConverter</text>
</g>
<!-- BsonConverter&#45;&gt;ManagementModule -->
<g id="edge7" class="edge">
<title>BsonConverter&#45;&gt;ManagementModule</title>
<path fill="none" stroke="black" d="M809,-122.01C809,-138.05 809,-159 809,-159 809,-159 1004.81,-159 1004.81,-159"/>
<polygon fill="black" stroke="black" points="1004.81,-162.5 1014.81,-159 1004.81,-155.5 1004.81,-162.5"/>
</g>
<!-- ConsoleWriterService -->
<g id="node9" class="node">
<title>ConsoleWriterService</title>
<ellipse fill="#fdb462" stroke="black" cx="625" cy="-104" rx="96.68" ry="18"/>
<text text-anchor="middle" x="625" y="-99.8" font-family="Times,serif" font-size="14.00">ConsoleWriterService</text>
</g>
<!-- ConsoleWriterService&#45;&gt;ManagementModule -->
<g id="edge8" class="edge">
<title>ConsoleWriterService&#45;&gt;ManagementModule</title>
<path fill="none" stroke="black" d="M625,-122.27C625,-140.56 625,-166 625,-166 625,-166 1004.69,-166 1004.69,-166"/>
<polygon fill="black" stroke="black" points="1004.69,-169.5 1014.69,-166 1004.69,-162.5 1004.69,-169.5"/>
</g>
<!-- DatabaseManagementService -->
<g id="node10" class="node">
<title>DatabaseManagementService</title>
<ellipse fill="#fdb462" stroke="black" cx="384" cy="-104" rx="125.58" ry="18"/>
<text text-anchor="middle" x="384" y="-99.8" font-family="Times,serif" font-size="14.00">DatabaseManagementService</text>
</g>
<!-- DatabaseManagementService&#45;&gt;ManagementModule -->
<g id="edge9" class="edge">
<title>DatabaseManagementService&#45;&gt;ManagementModule</title>
<path fill="none" stroke="black" d="M384,-122.13C384,-142.57 384,-173 384,-173 384,-173 1004.8,-173 1004.8,-173"/>
<polygon fill="black" stroke="black" points="1004.8,-176.5 1014.8,-173 1004.8,-169.5 1004.8,-176.5"/>
</g>
<!-- DatabaseManagementUc -->
<g id="node11" class="node">
<title>DatabaseManagementUc</title>
<ellipse fill="#fdb462" stroke="black" cx="132" cy="-104" rx="108.19" ry="18"/>
<text text-anchor="middle" x="132" y="-99.8" font-family="Times,serif" font-size="14.00">DatabaseManagementUc</text>
</g>
<!-- DatabaseManagementUc&#45;&gt;ManagementModule -->
<g id="edge10" class="edge">
<title>DatabaseManagementUc&#45;&gt;ManagementModule</title>
<path fill="none" stroke="black" d="M132,-122.01C132,-144.49 132,-180 132,-180 132,-180 1004.65,-180 1004.65,-180"/>
<polygon fill="black" stroke="black" points="1004.65,-183.5 1014.65,-180 1004.65,-176.5 1004.65,-183.5"/>
</g>
</g>
</svg>
