<?xml version="1.0" encoding="UTF-8" standalone="no"?>
<!DOCTYPE svg PUBLIC "-//W3C//DTD SVG 1.1//EN"
 "http://www.w3.org/Graphics/SVG/1.1/DTD/svg11.dtd">
<!-- Generated by graphviz version 2.47.0 (20210316.0004)
 -->
<!-- Title: dependencies Pages: 1 -->
<svg width="2044pt" height="211pt"
 viewBox="0.00 0.00 2044.00 211.00" xmlns="http://www.w3.org/2000/svg" xmlns:xlink="http://www.w3.org/1999/xlink">
<g id="graph0" class="graph" transform="scale(1 1) rotate(0) translate(4 207)">
<title>dependencies</title>
<polygon fill="white" stroke="transparent" points="-4,4 -4,-207 2040,-207 2040,4 -4,4"/>
<text text-anchor="start" x="997.01" y="-42.4" font-family="Times-12" font-weight="bold" font-size="14.00">Legend</text>
<polygon fill="#ffffb3" stroke="transparent" points="784,-10 784,-30 804,-30 804,-10 784,-10"/>
<text text-anchor="start" x="807.63" y="-15.4" font-family="Times-12" font-size="14.00"> &#160;Declarations</text>
<polygon fill="#8dd3c7" stroke="transparent" points="897,-10 897,-30 917,-30 917,-10 897,-10"/>
<text text-anchor="start" x="920.73" y="-15.4" font-family="Times-12" font-size="14.00"> &#160;Module</text>
<polygon fill="#80b1d3" stroke="transparent" points="983,-10 983,-30 1003,-30 1003,-10 983,-10"/>
<text text-anchor="start" x="1006.78" y="-15.4" font-family="Times-12" font-size="14.00"> &#160;Bootstrap</text>
<polygon fill="#fdb462" stroke="transparent" points="1080,-10 1080,-30 1100,-30 1100,-10 1080,-10"/>
<text text-anchor="start" x="1103.67" y="-15.4" font-family="Times-12" font-size="14.00"> &#160;Providers</text>
<polygon fill="#fb8072" stroke="transparent" points="1176,-10 1176,-30 1196,-30 1196,-10 1176,-10"/>
<text text-anchor="start" x="1199.73" y="-15.4" font-family="Times-12" font-size="14.00"> &#160;Exports</text>
<g id="clust1" class="cluster">
<title>cluster_ManagementModule</title>
<polygon fill="none" stroke="black" stroke-dasharray="1,5" points="8,-70 8,-195 2028,-195 2028,-70 8,-70"/>
</g>
<g id="clust3" class="cluster">
<title>cluster_ManagementModule_imports</title>
<polygon fill="none" stroke="black" points="1105,-78 1105,-130 2020,-130 2020,-78 1105,-78"/>
</g>
<g id="clust6" class="cluster">
<title>cluster_ManagementModule_providers</title>
<polygon fill="none" stroke="black" points="16,-78 16,-130 1097,-130 1097,-78 16,-78"/>
</g>
<!-- AuthenticationModule -->
<g id="node1" class="node">
<title>AuthenticationModule</title>
<polygon fill="#8dd3c7" stroke="black" points="2012.25,-122 2009.25,-126 1988.25,-126 1985.25,-122 1869.75,-122 1869.75,-86 2012.25,-86 2012.25,-122"/>
<text text-anchor="middle" x="1941" y="-99.8" font-family="Times,serif" font-size="14.00">AuthenticationModule</text>
</g>
<!-- ManagementModule -->
<g id="node7" class="node">
<title>ManagementModule</title>
<polygon fill="#8dd3c7" stroke="black" points="1275.13,-187 1272.13,-191 1251.13,-191 1248.13,-187 1142.87,-187 1142.87,-151 1275.13,-151 1275.13,-187"/>
<text text-anchor="middle" x="1209" y="-164.8" font-family="Times,serif" font-size="14.00">ManagementModule</text>
</g>
<!-- AuthenticationModule&#45;&gt;ManagementModule -->
<g id="edge1" class="edge">
<title>AuthenticationModule&#45;&gt;ManagementModule</title>
<path fill="none" stroke="black" d="M1941,-122.09C1941,-145.13 1941,-182 1941,-182 1941,-182 1285.25,-182 1285.25,-182"/>
<polygon fill="black" stroke="black" points="1285.25,-178.5 1275.25,-182 1285.25,-185.5 1285.25,-178.5"/>
</g>
<!-- AuthorizationModule -->
<g id="node2" class="node">
<title>AuthorizationModule</title>
<polygon fill="#8dd3c7" stroke="black" points="1851.81,-122 1848.81,-126 1827.81,-126 1824.81,-122 1714.19,-122 1714.19,-86 1851.81,-86 1851.81,-122"/>
<text text-anchor="middle" x="1783" y="-99.8" font-family="Times,serif" font-size="14.00">AuthorizationModule</text>
</g>
<!-- AuthorizationModule&#45;&gt;ManagementModule -->
<g id="edge2" class="edge">
<title>AuthorizationModule&#45;&gt;ManagementModule</title>
<path fill="none" stroke="black" d="M1783,-122.28C1783,-143.32 1783,-175 1783,-175 1783,-175 1285.41,-175 1285.41,-175"/>
<polygon fill="black" stroke="black" points="1285.41,-171.5 1275.41,-175 1285.41,-178.5 1285.41,-171.5"/>
</g>
<!-- CoreModule -->
<g id="node3" class="node">
<title>CoreModule</title>
<polygon fill="#8dd3c7" stroke="black" points="1696.26,-122 1693.26,-126 1672.26,-126 1669.26,-122 1609.74,-122 1609.74,-86 1696.26,-86 1696.26,-122"/>
<text text-anchor="middle" x="1653" y="-99.8" font-family="Times,serif" font-size="14.00">CoreModule</text>
</g>
<!-- CoreModule&#45;&gt;ManagementModule -->
<g id="edge3" class="edge">
<title>CoreModule&#45;&gt;ManagementModule</title>
<path fill="none" stroke="black" d="M1653,-122.11C1653,-141.34 1653,-169 1653,-169 1653,-169 1285.47,-169 1285.47,-169"/>
<polygon fill="black" stroke="black" points="1285.47,-165.5 1275.47,-169 1285.47,-172.5 1285.47,-165.5"/>
</g>
<!-- FilesStorageApiModule -->
<g id="node4" class="node">
<title>FilesStorageApiModule</title>
<polygon fill="#8dd3c7" stroke="black" points="1591.03,-122 1588.03,-126 1567.03,-126 1564.03,-122 1440.97,-122 1440.97,-86 1591.03,-86 1591.03,-122"/>
<text text-anchor="middle" x="1516" y="-99.8" font-family="Times,serif" font-size="14.00">FilesStorageApiModule</text>
</g>
<!-- FilesStorageApiModule&#45;&gt;ManagementModule -->
<g id="edge4" class="edge">
<title>FilesStorageApiModule&#45;&gt;ManagementModule</title>
<path fill="none" stroke="black" d="M1516,-122.02C1516,-139.37 1516,-163 1516,-163 1516,-163 1285.24,-163 1285.24,-163"/>
<polygon fill="black" stroke="black" points="1285.24,-159.5 1275.24,-163 1285.24,-166.5 1285.24,-159.5"/>
</g>
<!-- LoggerModule -->
<g id="node5" class="node">
<title>LoggerModule</title>
<polygon fill="#8dd3c7" stroke="black" points="1422.98,-122 1419.98,-126 1398.98,-126 1395.98,-122 1323.02,-122 1323.02,-86 1422.98,-86 1422.98,-122"/>
<text text-anchor="middle" x="1373" y="-99.8" font-family="Times,serif" font-size="14.00">LoggerModule</text>
</g>
<!-- LoggerModule&#45;&gt;ManagementModule -->
<g id="edge5" class="edge">
<title>LoggerModule&#45;&gt;ManagementModule</title>
<path fill="none" stroke="black" d="M1373,-122.24C1373,-137.57 1373,-157 1373,-157 1373,-157 1285.23,-157 1285.23,-157"/>
<polygon fill="black" stroke="black" points="1285.23,-153.5 1275.23,-157 1285.23,-160.5 1285.23,-153.5"/>
</g>
<!-- RabbitMQWrapperTestModule -->
<g id="node6" class="node">
<title>RabbitMQWrapperTestModule</title>
<polygon fill="#8dd3c7" stroke="black" points="1305,-122 1302,-126 1281,-126 1278,-122 1113,-122 1113,-86 1305,-86 1305,-122"/>
<text text-anchor="middle" x="1209" y="-99.8" font-family="Times,serif" font-size="14.00">RabbitMQWrapperTestModule</text>
</g>
<!-- RabbitMQWrapperTestModule&#45;&gt;ManagementModule -->
<g id="edge6" class="edge">
<title>RabbitMQWrapperTestModule&#45;&gt;ManagementModule</title>
<path fill="none" stroke="black" d="M1209,-122.11C1209,-122.11 1209,-140.99 1209,-140.99"/>
<polygon fill="black" stroke="black" points="1205.5,-140.99 1209,-150.99 1212.5,-140.99 1205.5,-140.99"/>
</g>
<!-- BoardManagementUc -->
<g id="node8" class="node">
<title>BoardManagementUc</title>
<ellipse fill="#fdb462" stroke="black" cx="993" cy="-104" rx="96.11" ry="18"/>
<text text-anchor="middle" x="993" y="-99.8" font-family="Times,serif" font-size="14.00">BoardManagementUc</text>
</g>
<!-- BoardManagementUc&#45;&gt;ManagementModule -->
<g id="edge7" class="edge">
<title>BoardManagementUc&#45;&gt;ManagementModule</title>
<path fill="none" stroke="black" d="M993,-122.24C993,-137.57 993,-157 993,-157 993,-157 1132.72,-157 1132.72,-157"/>
<polygon fill="black" stroke="black" points="1132.72,-160.5 1142.72,-157 1132.72,-153.5 1132.72,-160.5"/>
</g>
<!-- BsonConverter -->
<g id="node9" class="node">
<title>BsonConverter</title>
<ellipse fill="#fdb462" stroke="black" cx="809" cy="-104" rx="69.5" ry="18"/>
<text text-anchor="middle" x="809" y="-99.8" font-family="Times,serif" font-size="14.00">BsonConverter</text>
</g>
<!-- BsonConverter&#45;&gt;ManagementModule -->
<g id="edge8" class="edge">
<title>BsonConverter&#45;&gt;ManagementModule</title>
<path fill="none" stroke="black" d="M809,-122.02C809,-139.37 809,-163 809,-163 809,-163 1132.5,-163 1132.5,-163"/>
<polygon fill="black" stroke="black" points="1132.5,-166.5 1142.5,-163 1132.5,-159.5 1132.5,-166.5"/>
</g>
<!-- ConsoleWriterService -->
<g id="node10" class="node">
<title>ConsoleWriterService</title>
<ellipse fill="#fdb462" stroke="black" cx="625" cy="-104" rx="96.68" ry="18"/>
<text text-anchor="middle" x="625" y="-99.8" font-family="Times,serif" font-size="14.00">ConsoleWriterService</text>
</g>
<!-- ConsoleWriterService&#45;&gt;ManagementModule -->
<g id="edge9" class="edge">
<title>ConsoleWriterService&#45;&gt;ManagementModule</title>
<path fill="none" stroke="black" d="M625,-122.11C625,-141.34 625,-169 625,-169 625,-169 1132.86,-169 1132.86,-169"/>
<polygon fill="black" stroke="black" points="1132.86,-172.5 1142.86,-169 1132.86,-165.5 1132.86,-172.5"/>
</g>
<!-- DatabaseManagementService -->
<g id="node11" class="node">
<title>DatabaseManagementService</title>
<ellipse fill="#fdb462" stroke="black" cx="384" cy="-104" rx="125.58" ry="18"/>
<text text-anchor="middle" x="384" y="-99.8" font-family="Times,serif" font-size="14.00">DatabaseManagementService</text>
</g>
<!-- DatabaseManagementService&#45;&gt;ManagementModule -->
<g id="edge10" class="edge">
<title>DatabaseManagementService&#45;&gt;ManagementModule</title>
<path fill="none" stroke="black" d="M384,-122.28C384,-143.32 384,-175 384,-175 384,-175 1132.53,-175 1132.53,-175"/>
<polygon fill="black" stroke="black" points="1132.53,-178.5 1142.53,-175 1132.53,-171.5 1132.53,-178.5"/>
</g>
<!-- DatabaseManagementUc -->
<g id="node12" class="node">
<title>DatabaseManagementUc</title>
<ellipse fill="#fdb462" stroke="black" cx="132" cy="-104" rx="108.19" ry="18"/>
<text text-anchor="middle" x="132" y="-99.8" font-family="Times,serif" font-size="14.00">DatabaseManagementUc</text>
</g>
<!-- DatabaseManagementUc&#45;&gt;ManagementModule -->
<g id="edge11" class="edge">
<title>DatabaseManagementUc&#45;&gt;ManagementModule</title>
<path fill="none" stroke="black" d="M132,-122.09C132,-145.13 132,-182 132,-182 132,-182 1132.85,-182 1132.85,-182"/>
<polygon fill="black" stroke="black" points="1132.85,-185.5 1142.85,-182 1132.85,-178.5 1132.85,-185.5"/>
</g>
</g>
</svg>
