<?xml version="1.0" encoding="UTF-8" standalone="no"?>
<!DOCTYPE svg PUBLIC "-//W3C//DTD SVG 1.1//EN"
 "http://www.w3.org/Graphics/SVG/1.1/DTD/svg11.dtd">
<!-- Generated by graphviz version 2.47.0 (20210316.0004)
 -->
<!-- Title: dependencies Pages: 1 -->
<svg width="2044pt" height="211pt"
 viewBox="0.00 0.00 2044.00 211.00" xmlns="http://www.w3.org/2000/svg" xmlns:xlink="http://www.w3.org/1999/xlink">
<g id="graph0" class="graph" transform="scale(1 1) rotate(0) translate(4 207)">
<title>dependencies</title>
<polygon fill="white" stroke="transparent" points="-4,4 -4,-207 2040,-207 2040,4 -4,4"/>
<text text-anchor="start" x="997.01" y="-42.4" font-family="Times-12" font-weight="bold" font-size="14.00">Legend</text>
<polygon fill="#ffffb3" stroke="transparent" points="784,-10 784,-30 804,-30 804,-10 784,-10"/>
<text text-anchor="start" x="807.63" y="-15.4" font-family="Times-12" font-size="14.00"> &#160;Declarations</text>
<polygon fill="#8dd3c7" stroke="transparent" points="897,-10 897,-30 917,-30 917,-10 897,-10"/>
<text text-anchor="start" x="920.73" y="-15.4" font-family="Times-12" font-size="14.00"> &#160;Module</text>
<polygon fill="#80b1d3" stroke="transparent" points="983,-10 983,-30 1003,-30 1003,-10 983,-10"/>
<text text-anchor="start" x="1006.78" y="-15.4" font-family="Times-12" font-size="14.00"> &#160;Bootstrap</text>
<polygon fill="#fdb462" stroke="transparent" points="1080,-10 1080,-30 1100,-30 1100,-10 1080,-10"/>
<text text-anchor="start" x="1103.67" y="-15.4" font-family="Times-12" font-size="14.00"> &#160;Providers</text>
<polygon fill="#fb8072" stroke="transparent" points="1176,-10 1176,-30 1196,-30 1196,-10 1176,-10"/>
<text text-anchor="start" x="1199.73" y="-15.4" font-family="Times-12" font-size="14.00"> &#160;Exports</text>
<g id="clust1" class="cluster">
<title>cluster_ManagementModule</title>
<polygon fill="none" stroke="black" stroke-dasharray="1,5" points="8,-70 8,-195 2028,-195 2028,-70 8,-70"/>
</g>
<g id="clust6" class="cluster">
<title>cluster_ManagementModule_providers</title>
<polygon fill="none" stroke="black" points="939,-78 939,-130 2020,-130 2020,-78 939,-78"/>
</g>
<g id="clust3" class="cluster">
<title>cluster_ManagementModule_imports</title>
<polygon fill="none" stroke="black" points="16,-78 16,-130 931,-130 931,-78 16,-78"/>
</g>
<!-- AuthenticationModule -->
<g id="node1" class="node">
<title>AuthenticationModule</title>
<polygon fill="#8dd3c7" stroke="black" points="923.25,-122 920.25,-126 899.25,-126 896.25,-122 780.75,-122 780.75,-86 923.25,-86 923.25,-122"/>
<text text-anchor="middle" x="852" y="-99.8" font-family="Times,serif" font-size="14.00">AuthenticationModule</text>
</g>
<!-- ManagementModule -->
<g id="node7" class="node">
<title>ManagementModule</title>
<polygon fill="#8dd3c7" stroke="black" points="918.13,-187 915.13,-191 894.13,-191 891.13,-187 785.87,-187 785.87,-151 918.13,-151 918.13,-187"/>
<text text-anchor="middle" x="852" y="-164.8" font-family="Times,serif" font-size="14.00">ManagementModule</text>
</g>
<!-- AuthenticationModule&#45;&gt;ManagementModule -->
<g id="edge1" class="edge">
<title>AuthenticationModule&#45;&gt;ManagementModule</title>
<path fill="none" stroke="black" d="M852,-122.11C852,-122.11 852,-140.99 852,-140.99"/>
<polygon fill="black" stroke="black" points="848.5,-140.99 852,-150.99 855.5,-140.99 848.5,-140.99"/>
</g>
<!-- AuthorizationModule -->
<g id="node2" class="node">
<title>AuthorizationModule</title>
<polygon fill="#8dd3c7" stroke="black" points="762.81,-122 759.81,-126 738.81,-126 735.81,-122 625.19,-122 625.19,-86 762.81,-86 762.81,-122"/>
<text text-anchor="middle" x="694" y="-99.8" font-family="Times,serif" font-size="14.00">AuthorizationModule</text>
</g>
<!-- AuthorizationModule&#45;&gt;ManagementModule -->
<g id="edge2" class="edge">
<title>AuthorizationModule&#45;&gt;ManagementModule</title>
<path fill="none" stroke="black" d="M694,-122.24C694,-137.57 694,-157 694,-157 694,-157 775.45,-157 775.45,-157"/>
<polygon fill="black" stroke="black" points="775.45,-160.5 785.45,-157 775.45,-153.5 775.45,-160.5"/>
</g>
<!-- CoreModule -->
<g id="node3" class="node">
<title>CoreModule</title>
<polygon fill="#8dd3c7" stroke="black" points="607.26,-122 604.26,-126 583.26,-126 580.26,-122 520.74,-122 520.74,-86 607.26,-86 607.26,-122"/>
<text text-anchor="middle" x="564" y="-99.8" font-family="Times,serif" font-size="14.00">CoreModule</text>
</g>
<!-- CoreModule&#45;&gt;ManagementModule -->
<g id="edge3" class="edge">
<title>CoreModule&#45;&gt;ManagementModule</title>
<path fill="none" stroke="black" d="M564,-122.02C564,-139.37 564,-163 564,-163 564,-163 775.57,-163 775.57,-163"/>
<polygon fill="black" stroke="black" points="775.57,-166.5 785.57,-163 775.57,-159.5 775.57,-166.5"/>
</g>
<!-- FilesStorageApiModule -->
<g id="node4" class="node">
<title>FilesStorageApiModule</title>
<polygon fill="#8dd3c7" stroke="black" points="502.03,-122 499.03,-126 478.03,-126 475.03,-122 351.97,-122 351.97,-86 502.03,-86 502.03,-122"/>
<text text-anchor="middle" x="427" y="-99.8" font-family="Times,serif" font-size="14.00">FilesStorageApiModule</text>
</g>
<!-- FilesStorageApiModule&#45;&gt;ManagementModule -->
<g id="edge4" class="edge">
<title>FilesStorageApiModule&#45;&gt;ManagementModule</title>
<path fill="none" stroke="black" d="M427,-122.11C427,-141.34 427,-169 427,-169 427,-169 775.59,-169 775.59,-169"/>
<polygon fill="black" stroke="black" points="775.59,-172.5 785.59,-169 775.59,-165.5 775.59,-172.5"/>
</g>
<!-- LoggerModule -->
<g id="node5" class="node">
<title>LoggerModule</title>
<polygon fill="#8dd3c7" stroke="black" points="333.98,-122 330.98,-126 309.98,-126 306.98,-122 234.02,-122 234.02,-86 333.98,-86 333.98,-122"/>
<text text-anchor="middle" x="284" y="-99.8" font-family="Times,serif" font-size="14.00">LoggerModule</text>
</g>
<!-- LoggerModule&#45;&gt;ManagementModule -->
<g id="edge5" class="edge">
<title>LoggerModule&#45;&gt;ManagementModule</title>
<path fill="none" stroke="black" d="M284,-122.28C284,-143.32 284,-175 284,-175 284,-175 775.73,-175 775.73,-175"/>
<polygon fill="black" stroke="black" points="775.73,-178.5 785.73,-175 775.73,-171.5 775.73,-178.5"/>
</g>
<!-- RabbitMQWrapperTestModule -->
<g id="node6" class="node">
<title>RabbitMQWrapperTestModule</title>
<polygon fill="#8dd3c7" stroke="black" points="216,-122 213,-126 192,-126 189,-122 24,-122 24,-86 216,-86 216,-122"/>
<text text-anchor="middle" x="120" y="-99.8" font-family="Times,serif" font-size="14.00">RabbitMQWrapperTestModule</text>
</g>
<!-- RabbitMQWrapperTestModule&#45;&gt;ManagementModule -->
<g id="edge6" class="edge">
<title>RabbitMQWrapperTestModule&#45;&gt;ManagementModule</title>
<path fill="none" stroke="black" d="M120,-122.09C120,-145.13 120,-182 120,-182 120,-182 775.75,-182 775.75,-182"/>
<polygon fill="black" stroke="black" points="775.75,-185.5 785.75,-182 775.75,-178.5 775.75,-185.5"/>
</g>
<!-- BoardManagementUc -->
<g id="node8" class="node">
<title>BoardManagementUc</title>
<ellipse fill="#fdb462" stroke="black" cx="1916" cy="-104" rx="96.11" ry="18"/>
<text text-anchor="middle" x="1916" y="-99.8" font-family="Times,serif" font-size="14.00">BoardManagementUc</text>
</g>
<!-- BoardManagementUc&#45;&gt;ManagementModule -->
<g id="edge7" class="edge">
<title>BoardManagementUc&#45;&gt;ManagementModule</title>
<path fill="none" stroke="black" d="M1916,-122.09C1916,-145.13 1916,-182 1916,-182 1916,-182 928.16,-182 928.16,-182"/>
<polygon fill="black" stroke="black" points="928.16,-178.5 918.16,-182 928.16,-185.5 928.16,-178.5"/>
</g>
<!-- BsonConverter -->
<g id="node9" class="node">
<title>BsonConverter</title>
<ellipse fill="#fdb462" stroke="black" cx="1732" cy="-104" rx="69.5" ry="18"/>
<text text-anchor="middle" x="1732" y="-99.8" font-family="Times,serif" font-size="14.00">BsonConverter</text>
</g>
<!-- BsonConverter&#45;&gt;ManagementModule -->
<g id="edge8" class="edge">
<title>BsonConverter&#45;&gt;ManagementModule</title>
<path fill="none" stroke="black" d="M1732,-122.28C1732,-143.32 1732,-175 1732,-175 1732,-175 928.14,-175 928.14,-175"/>
<polygon fill="black" stroke="black" points="928.14,-171.5 918.14,-175 928.14,-178.5 928.14,-171.5"/>
</g>
<!-- ConsoleWriterService -->
<g id="node10" class="node">
<title>ConsoleWriterService</title>
<ellipse fill="#fdb462" stroke="black" cx="1548" cy="-104" rx="96.68" ry="18"/>
<text text-anchor="middle" x="1548" y="-99.8" font-family="Times,serif" font-size="14.00">ConsoleWriterService</text>
</g>
<!-- ConsoleWriterService&#45;&gt;ManagementModule -->
<g id="edge9" class="edge">
<title>ConsoleWriterService&#45;&gt;ManagementModule</title>
<path fill="none" stroke="black" d="M1548,-122.11C1548,-141.34 1548,-169 1548,-169 1548,-169 928.42,-169 928.42,-169"/>
<polygon fill="black" stroke="black" points="928.42,-165.5 918.42,-169 928.42,-172.5 928.42,-165.5"/>
</g>
<!-- DatabaseManagementService -->
<g id="node11" class="node">
<title>DatabaseManagementService</title>
<ellipse fill="#fdb462" stroke="black" cx="1307" cy="-104" rx="125.58" ry="18"/>
<text text-anchor="middle" x="1307" y="-99.8" font-family="Times,serif" font-size="14.00">DatabaseManagementService</text>
</g>
<!-- DatabaseManagementService&#45;&gt;ManagementModule -->
<g id="edge10" class="edge">
<title>DatabaseManagementService&#45;&gt;ManagementModule</title>
<path fill="none" stroke="black" d="M1307,-122.02C1307,-139.37 1307,-163 1307,-163 1307,-163 928.16,-163 928.16,-163"/>
<polygon fill="black" stroke="black" points="928.16,-159.5 918.16,-163 928.16,-166.5 928.16,-159.5"/>
</g>
<!-- DatabaseManagementUc -->
<g id="node12" class="node">
<title>DatabaseManagementUc</title>
<ellipse fill="#fdb462" stroke="black" cx="1055" cy="-104" rx="108.19" ry="18"/>
<text text-anchor="middle" x="1055" y="-99.8" font-family="Times,serif" font-size="14.00">DatabaseManagementUc</text>
</g>
<!-- DatabaseManagementUc&#45;&gt;ManagementModule -->
<g id="edge11" class="edge">
<title>DatabaseManagementUc&#45;&gt;ManagementModule</title>
<path fill="none" stroke="black" d="M1055,-122.24C1055,-137.57 1055,-157 1055,-157 1055,-157 928.19,-157 928.19,-157"/>
<polygon fill="black" stroke="black" points="928.19,-153.5 918.19,-157 928.19,-160.5 928.19,-153.5"/>
</g>
</g>
</svg>
