<?xml version="1.0" encoding="UTF-8" standalone="no"?>
<!DOCTYPE svg PUBLIC "-//W3C//DTD SVG 1.1//EN"
 "http://www.w3.org/Graphics/SVG/1.1/DTD/svg11.dtd">
<!-- Generated by graphviz version 2.47.0 (20210316.0004)
 -->
<!-- Title: dependencies Pages: 1 -->
<svg width="1834pt" height="211pt"
 viewBox="0.00 0.00 1834.00 211.00" xmlns="http://www.w3.org/2000/svg" xmlns:xlink="http://www.w3.org/1999/xlink">
<g id="graph0" class="graph" transform="scale(1 1) rotate(0) translate(4 207)">
<title>dependencies</title>
<polygon fill="white" stroke="transparent" points="-4,4 -4,-207 1830,-207 1830,4 -4,4"/>
<text text-anchor="start" x="892.01" y="-42.4" font-family="Times-12" font-weight="bold" font-size="14.00">Legend</text>
<polygon fill="#ffffb3" stroke="transparent" points="679,-10 679,-30 699,-30 699,-10 679,-10"/>
<text text-anchor="start" x="702.63" y="-15.4" font-family="Times-12" font-size="14.00"> &#160;Declarations</text>
<polygon fill="#8dd3c7" stroke="transparent" points="792,-10 792,-30 812,-30 812,-10 792,-10"/>
<text text-anchor="start" x="815.73" y="-15.4" font-family="Times-12" font-size="14.00"> &#160;Module</text>
<polygon fill="#80b1d3" stroke="transparent" points="878,-10 878,-30 898,-30 898,-10 878,-10"/>
<text text-anchor="start" x="901.78" y="-15.4" font-family="Times-12" font-size="14.00"> &#160;Bootstrap</text>
<polygon fill="#fdb462" stroke="transparent" points="975,-10 975,-30 995,-30 995,-10 975,-10"/>
<text text-anchor="start" x="998.67" y="-15.4" font-family="Times-12" font-size="14.00"> &#160;Providers</text>
<polygon fill="#fb8072" stroke="transparent" points="1071,-10 1071,-30 1091,-30 1091,-10 1071,-10"/>
<text text-anchor="start" x="1094.73" y="-15.4" font-family="Times-12" font-size="14.00"> &#160;Exports</text>
<g id="clust1" class="cluster">
<title>cluster_ManagementModule</title>
<polygon fill="none" stroke="black" stroke-dasharray="1,5" points="8,-70 8,-195 1818,-195 1818,-70 8,-70"/>
</g>
<g id="clust6" class="cluster">
<title>cluster_ManagementModule_providers</title>
<polygon fill="none" stroke="black" points="939,-78 939,-130 1810,-130 1810,-78 939,-78"/>
</g>
<g id="clust3" class="cluster">
<title>cluster_ManagementModule_imports</title>
<polygon fill="none" stroke="black" points="16,-78 16,-130 931,-130 931,-78 16,-78"/>
</g>
<!-- AuthenticationModule -->
<g id="node1" class="node">
<title>AuthenticationModule</title>
<polygon fill="#8dd3c7" stroke="black" points="923.25,-122 920.25,-126 899.25,-126 896.25,-122 780.75,-122 780.75,-86 923.25,-86 923.25,-122"/>
<text text-anchor="middle" x="852" y="-99.8" font-family="Times,serif" font-size="14.00">AuthenticationModule</text>
</g>
<!-- ManagementModule -->
<g id="node7" class="node">
<title>ManagementModule</title>
<polygon fill="#8dd3c7" stroke="black" points="839.13,-187 836.13,-191 815.13,-191 812.13,-187 706.87,-187 706.87,-151 839.13,-151 839.13,-187"/>
<text text-anchor="middle" x="773" y="-164.8" font-family="Times,serif" font-size="14.00">ManagementModule</text>
</g>
<!-- AuthenticationModule&#45;&gt;ManagementModule -->
<g id="edge1" class="edge">
<title>AuthenticationModule&#45;&gt;ManagementModule</title>
<path fill="none" stroke="black" d="M809.97,-122.11C809.97,-122.11 809.97,-140.99 809.97,-140.99"/>
<polygon fill="black" stroke="black" points="806.47,-140.99 809.97,-150.99 813.47,-140.99 806.47,-140.99"/>
</g>
<!-- AuthorizationModule -->
<g id="node2" class="node">
<title>AuthorizationModule</title>
<polygon fill="#8dd3c7" stroke="black" points="762.81,-122 759.81,-126 738.81,-126 735.81,-122 625.19,-122 625.19,-86 762.81,-86 762.81,-122"/>
<text text-anchor="middle" x="694" y="-99.8" font-family="Times,serif" font-size="14.00">AuthorizationModule</text>
</g>
<!-- AuthorizationModule&#45;&gt;ManagementModule -->
<g id="edge2" class="edge">
<title>AuthorizationModule&#45;&gt;ManagementModule</title>
<path fill="none" stroke="black" d="M734.67,-122.11C734.67,-122.11 734.67,-140.99 734.67,-140.99"/>
<polygon fill="black" stroke="black" points="731.17,-140.99 734.67,-150.99 738.17,-140.99 731.17,-140.99"/>
</g>
<!-- CoreModule -->
<g id="node3" class="node">
<title>CoreModule</title>
<polygon fill="#8dd3c7" stroke="black" points="607.26,-122 604.26,-126 583.26,-126 580.26,-122 520.74,-122 520.74,-86 607.26,-86 607.26,-122"/>
<text text-anchor="middle" x="564" y="-99.8" font-family="Times,serif" font-size="14.00">CoreModule</text>
</g>
<!-- CoreModule&#45;&gt;ManagementModule -->
<g id="edge3" class="edge">
<title>CoreModule&#45;&gt;ManagementModule</title>
<path fill="none" stroke="black" d="M564,-122.01C564,-138.05 564,-159 564,-159 564,-159 696.58,-159 696.58,-159"/>
<polygon fill="black" stroke="black" points="696.58,-162.5 706.58,-159 696.58,-155.5 696.58,-162.5"/>
</g>
<!-- FilesStorageApiModule -->
<g id="node4" class="node">
<title>FilesStorageApiModule</title>
<polygon fill="#8dd3c7" stroke="black" points="502.03,-122 499.03,-126 478.03,-126 475.03,-122 351.97,-122 351.97,-86 502.03,-86 502.03,-122"/>
<text text-anchor="middle" x="427" y="-99.8" font-family="Times,serif" font-size="14.00">FilesStorageApiModule</text>
</g>
<!-- FilesStorageApiModule&#45;&gt;ManagementModule -->
<g id="edge4" class="edge">
<title>FilesStorageApiModule&#45;&gt;ManagementModule</title>
<path fill="none" stroke="black" d="M427,-122.27C427,-140.56 427,-166 427,-166 427,-166 696.7,-166 696.7,-166"/>
<polygon fill="black" stroke="black" points="696.7,-169.5 706.7,-166 696.7,-162.5 696.7,-169.5"/>
</g>
<!-- LoggerModule -->
<g id="node5" class="node">
<title>LoggerModule</title>
<polygon fill="#8dd3c7" stroke="black" points="333.98,-122 330.98,-126 309.98,-126 306.98,-122 234.02,-122 234.02,-86 333.98,-86 333.98,-122"/>
<text text-anchor="middle" x="284" y="-99.8" font-family="Times,serif" font-size="14.00">LoggerModule</text>
</g>
<!-- LoggerModule&#45;&gt;ManagementModule -->
<g id="edge5" class="edge">
<title>LoggerModule&#45;&gt;ManagementModule</title>
<path fill="none" stroke="black" d="M284,-122.13C284,-142.57 284,-173 284,-173 284,-173 696.8,-173 696.8,-173"/>
<polygon fill="black" stroke="black" points="696.8,-176.5 706.8,-173 696.8,-169.5 696.8,-176.5"/>
</g>
<!-- RabbitMQWrapperTestModule -->
<g id="node6" class="node">
<title>RabbitMQWrapperTestModule</title>
<polygon fill="#8dd3c7" stroke="black" points="216,-122 213,-126 192,-126 189,-122 24,-122 24,-86 216,-86 216,-122"/>
<text text-anchor="middle" x="120" y="-99.8" font-family="Times,serif" font-size="14.00">RabbitMQWrapperTestModule</text>
</g>
<!-- RabbitMQWrapperTestModule&#45;&gt;ManagementModule -->
<g id="edge6" class="edge">
<title>RabbitMQWrapperTestModule&#45;&gt;ManagementModule</title>
<path fill="none" stroke="black" d="M120,-122.01C120,-144.49 120,-180 120,-180 120,-180 696.79,-180 696.79,-180"/>
<polygon fill="black" stroke="black" points="696.79,-183.5 706.79,-180 696.79,-176.5 696.79,-183.5"/>
</g>
<!-- BsonConverter -->
<g id="node8" class="node">
<title>BsonConverter</title>
<ellipse fill="#fdb462" stroke="black" cx="1732" cy="-104" rx="69.5" ry="18"/>
<text text-anchor="middle" x="1732" y="-99.8" font-family="Times,serif" font-size="14.00">BsonConverter</text>
</g>
<!-- BsonConverter&#45;&gt;ManagementModule -->
<g id="edge7" class="edge">
<title>BsonConverter&#45;&gt;ManagementModule</title>
<path fill="none" stroke="black" d="M1732,-122.01C1732,-144.49 1732,-180 1732,-180 1732,-180 849.29,-180 849.29,-180"/>
<polygon fill="black" stroke="black" points="849.29,-176.5 839.29,-180 849.29,-183.5 849.29,-176.5"/>
</g>
<!-- ConsoleWriterService -->
<g id="node9" class="node">
<title>ConsoleWriterService</title>
<ellipse fill="#fdb462" stroke="black" cx="1548" cy="-104" rx="96.68" ry="18"/>
<text text-anchor="middle" x="1548" y="-99.8" font-family="Times,serif" font-size="14.00">ConsoleWriterService</text>
</g>
<!-- ConsoleWriterService&#45;&gt;ManagementModule -->
<g id="edge8" class="edge">
<title>ConsoleWriterService&#45;&gt;ManagementModule</title>
<path fill="none" stroke="black" d="M1548,-122.13C1548,-142.57 1548,-173 1548,-173 1548,-173 849.41,-173 849.41,-173"/>
<polygon fill="black" stroke="black" points="849.41,-169.5 839.41,-173 849.41,-176.5 849.41,-169.5"/>
</g>
<!-- DatabaseManagementService -->
<g id="node10" class="node">
<title>DatabaseManagementService</title>
<ellipse fill="#fdb462" stroke="black" cx="1307" cy="-104" rx="125.58" ry="18"/>
<text text-anchor="middle" x="1307" y="-99.8" font-family="Times,serif" font-size="14.00">DatabaseManagementService</text>
</g>
<!-- DatabaseManagementService&#45;&gt;ManagementModule -->
<g id="edge9" class="edge">
<title>DatabaseManagementService&#45;&gt;ManagementModule</title>
<path fill="none" stroke="black" d="M1307,-122.27C1307,-140.56 1307,-166 1307,-166 1307,-166 849.28,-166 849.28,-166"/>
<polygon fill="black" stroke="black" points="849.28,-162.5 839.28,-166 849.28,-169.5 849.28,-162.5"/>
</g>
<!-- DatabaseManagementUc -->
<g id="node11" class="node">
<title>DatabaseManagementUc</title>
<ellipse fill="#fdb462" stroke="black" cx="1055" cy="-104" rx="108.19" ry="18"/>
<text text-anchor="middle" x="1055" y="-99.8" font-family="Times,serif" font-size="14.00">DatabaseManagementUc</text>
</g>
<!-- DatabaseManagementUc&#45;&gt;ManagementModule -->
<g id="edge10" class="edge">
<title>DatabaseManagementUc&#45;&gt;ManagementModule</title>
<path fill="none" stroke="black" d="M1055,-122.01C1055,-138.05 1055,-159 1055,-159 1055,-159 849.47,-159 849.47,-159"/>
<polygon fill="black" stroke="black" points="849.47,-155.5 839.47,-159 849.47,-162.5 849.47,-155.5"/>
</g>
</g>
</svg>
