<?xml version="1.0" encoding="UTF-8" standalone="no"?>
<!DOCTYPE svg PUBLIC "-//W3C//DTD SVG 1.1//EN"
 "http://www.w3.org/Graphics/SVG/1.1/DTD/svg11.dtd">
<!-- Generated by graphviz version 2.47.0 (20210316.0004)
 -->
<!-- Title: dependencies Pages: 1 -->
<svg width="654pt" height="284pt"
 viewBox="0.00 0.00 654.00 284.00" xmlns="http://www.w3.org/2000/svg" xmlns:xlink="http://www.w3.org/1999/xlink">
<g id="graph0" class="graph" transform="scale(1 1) rotate(0) translate(4 280)">
<title>dependencies</title>
<polygon fill="white" stroke="transparent" points="-4,4 -4,-280 650,-280 650,4 -4,4"/>
<text text-anchor="start" x="302.01" y="-42.4" font-family="Times-12" font-weight="bold" font-size="14.00">Legend</text>
<polygon fill="#ffffb3" stroke="transparent" points="89,-10 89,-30 109,-30 109,-10 89,-10"/>
<text text-anchor="start" x="112.63" y="-15.4" font-family="Times-12" font-size="14.00"> &#160;Declarations</text>
<polygon fill="#8dd3c7" stroke="transparent" points="202,-10 202,-30 222,-30 222,-10 202,-10"/>
<text text-anchor="start" x="225.73" y="-15.4" font-family="Times-12" font-size="14.00"> &#160;Module</text>
<polygon fill="#80b1d3" stroke="transparent" points="288,-10 288,-30 308,-30 308,-10 288,-10"/>
<text text-anchor="start" x="311.78" y="-15.4" font-family="Times-12" font-size="14.00"> &#160;Bootstrap</text>
<polygon fill="#fdb462" stroke="transparent" points="385,-10 385,-30 405,-30 405,-10 385,-10"/>
<text text-anchor="start" x="408.67" y="-15.4" font-family="Times-12" font-size="14.00"> &#160;Providers</text>
<polygon fill="#fb8072" stroke="transparent" points="481,-10 481,-30 501,-30 501,-10 481,-10"/>
<text text-anchor="start" x="504.73" y="-15.4" font-family="Times-12" font-size="14.00"> &#160;Exports</text>
<g id="clust1" class="cluster">
<title>cluster_UserLicenseModule</title>
<polygon fill="none" stroke="black" stroke-dasharray="1,5" points="8,-70 8,-268 638,-268 638,-70 8,-70"/>
</g>
<g id="clust6" class="cluster">
<title>cluster_UserLicenseModule_providers</title>
<polygon fill="none" stroke="black" points="16,-78 16,-130 630,-130 630,-78 16,-78"/>
</g>
<g id="clust4" class="cluster">
<title>cluster_UserLicenseModule_exports</title>
<polygon fill="none" stroke="black" points="141,-208 141,-260 474,-260 474,-208 141,-208"/>
</g>
<!-- MediaUserLicenseService  -->
<g id="node1" class="node">
<title>MediaUserLicenseService </title>
<polygon fill="#fb8072" stroke="black" points="465.7,-252 298.3,-252 298.3,-216 465.7,-216 465.7,-252"/>
<text text-anchor="middle" x="382" y="-229.8" font-family="Times,serif" font-size="14.00">MediaUserLicenseService </text>
</g>
<!-- UserLicenseService  -->
<g id="node2" class="node">
<title>UserLicenseService </title>
<polygon fill="#fb8072" stroke="black" points="280.94,-252 149.06,-252 149.06,-216 280.94,-216 280.94,-252"/>
<text text-anchor="middle" x="215" y="-229.8" font-family="Times,serif" font-size="14.00">UserLicenseService </text>
</g>
<!-- UserLicenseModule -->
<g id="node3" class="node">
<title>UserLicenseModule</title>
<polygon fill="#8dd3c7" stroke="black" points="362.51,-187 359.51,-191 338.51,-191 335.51,-187 233.49,-187 233.49,-151 362.51,-151 362.51,-187"/>
<text text-anchor="middle" x="298" y="-164.8" font-family="Times,serif" font-size="14.00">UserLicenseModule</text>
</g>
<!-- UserLicenseModule&#45;&gt;MediaUserLicenseService  -->
<g id="edge1" class="edge">
<title>UserLicenseModule&#45;&gt;MediaUserLicenseService </title>
<path fill="none" stroke="black" stroke-dasharray="5,2" d="M330.58,-187.11C330.58,-187.11 330.58,-205.99 330.58,-205.99"/>
<polygon fill="black" stroke="black" points="327.08,-205.99 330.58,-215.99 334.08,-205.99 327.08,-205.99"/>
</g>
<!-- UserLicenseModule&#45;&gt;UserLicenseService  -->
<g id="edge2" class="edge">
<title>UserLicenseModule&#45;&gt;UserLicenseService </title>
<path fill="none" stroke="black" stroke-dasharray="5,2" d="M256.98,-187.11C256.98,-187.11 256.98,-205.99 256.98,-205.99"/>
<polygon fill="black" stroke="black" points="253.48,-205.99 256.98,-215.99 260.48,-205.99 253.48,-205.99"/>
</g>
<!-- MediaUserLicenseService -->
<g id="node4" class="node">
<title>MediaUserLicenseService</title>
<ellipse fill="#fdb462" stroke="black" cx="509" cy="-104" rx="112.83" ry="18"/>
<text text-anchor="middle" x="509" y="-99.8" font-family="Times,serif" font-size="14.00">MediaUserLicenseService</text>
</g>
<!-- MediaUserLicenseService&#45;&gt;UserLicenseModule -->
<g id="edge3" class="edge">
<title>MediaUserLicenseService&#45;&gt;UserLicenseModule</title>
<path fill="none" stroke="black" d="M430.84,-117.15C430.84,-136.15 430.84,-169 430.84,-169 430.84,-169 372.86,-169 372.86,-169"/>
<polygon fill="black" stroke="black" points="372.86,-165.5 362.86,-169 372.86,-172.5 372.86,-165.5"/>
</g>
<!-- UserLicenseRepo -->
<g id="node5" class="node">
<title>UserLicenseRepo</title>
<ellipse fill="#fdb462" stroke="black" cx="298" cy="-104" rx="79.85" ry="18"/>
<text text-anchor="middle" x="298" y="-99.8" font-family="Times,serif" font-size="14.00">UserLicenseRepo</text>
</g>
<!-- UserLicenseRepo&#45;&gt;UserLicenseModule -->
<g id="edge4" class="edge">
<title>UserLicenseRepo&#45;&gt;UserLicenseModule</title>
<path fill="none" stroke="black" d="M298,-122.11C298,-122.11 298,-140.99 298,-140.99"/>
<polygon fill="black" stroke="black" points="294.5,-140.99 298,-150.99 301.5,-140.99 294.5,-140.99"/>
</g>
<!-- UserLicenseService -->
<g id="node6" class="node">
<title>UserLicenseService</title>
<ellipse fill="#fdb462" stroke="black" cx="112" cy="-104" rx="88.5" ry="18"/>
<text text-anchor="middle" x="112" y="-99.8" font-family="Times,serif" font-size="14.00">UserLicenseService</text>
</g>
<!-- UserLicenseService&#45;&gt;UserLicenseModule -->
<g id="edge5" class="edge">
<title>UserLicenseService&#45;&gt;UserLicenseModule</title>
<path fill="none" stroke="black" d="M174.76,-116.84C174.76,-135.78 174.76,-169 174.76,-169 174.76,-169 223.13,-169 223.13,-169"/>
<polygon fill="black" stroke="black" points="223.13,-172.5 233.13,-169 223.13,-165.5 223.13,-172.5"/>
</g>
</g>
</svg>
