<?xml version="1.0" encoding="UTF-8" standalone="no"?>
<!DOCTYPE svg PUBLIC "-//W3C//DTD SVG 1.1//EN"
 "http://www.w3.org/Graphics/SVG/1.1/DTD/svg11.dtd">
<!-- Generated by graphviz version 2.47.0 (20210316.0004)
 -->
<!-- Title: dependencies Pages: 1 -->
<svg width="893pt" height="284pt"
 viewBox="0.00 0.00 893.00 284.00" xmlns="http://www.w3.org/2000/svg" xmlns:xlink="http://www.w3.org/1999/xlink">
<g id="graph0" class="graph" transform="scale(1 1) rotate(0) translate(4 280)">
<title>dependencies</title>
<polygon fill="white" stroke="transparent" points="-4,4 -4,-280 889,-280 889,4 -4,4"/>
<text text-anchor="start" x="421.51" y="-42.4" font-family="Times-12" font-weight="bold" font-size="14.00">Legend</text>
<polygon fill="#ffffb3" stroke="transparent" points="208.5,-10 208.5,-30 228.5,-30 228.5,-10 208.5,-10"/>
<text text-anchor="start" x="232.13" y="-15.4" font-family="Times-12" font-size="14.00"> &#160;Declarations</text>
<polygon fill="#8dd3c7" stroke="transparent" points="321.5,-10 321.5,-30 341.5,-30 341.5,-10 321.5,-10"/>
<text text-anchor="start" x="345.23" y="-15.4" font-family="Times-12" font-size="14.00"> &#160;Module</text>
<polygon fill="#80b1d3" stroke="transparent" points="407.5,-10 407.5,-30 427.5,-30 427.5,-10 407.5,-10"/>
<text text-anchor="start" x="431.28" y="-15.4" font-family="Times-12" font-size="14.00"> &#160;Bootstrap</text>
<polygon fill="#fdb462" stroke="transparent" points="504.5,-10 504.5,-30 524.5,-30 524.5,-10 504.5,-10"/>
<text text-anchor="start" x="528.17" y="-15.4" font-family="Times-12" font-size="14.00"> &#160;Providers</text>
<polygon fill="#fb8072" stroke="transparent" points="600.5,-10 600.5,-30 620.5,-30 620.5,-10 600.5,-10"/>
<text text-anchor="start" x="624.23" y="-15.4" font-family="Times-12" font-size="14.00"> &#160;Exports</text>
<g id="clust1" class="cluster">
<title>cluster_UserLicenseModule</title>
<polygon fill="none" stroke="black" stroke-dasharray="1,5" points="8,-70 8,-268 877,-268 877,-70 8,-70"/>
</g>
<g id="clust6" class="cluster">
<title>cluster_UserLicenseModule_providers</title>
<polygon fill="none" stroke="black" points="16,-78 16,-130 869,-130 869,-78 16,-78"/>
</g>
<g id="clust4" class="cluster">
<title>cluster_UserLicenseModule_exports</title>
<polygon fill="none" stroke="black" points="302,-208 302,-260 640,-260 640,-208 302,-208"/>
</g>
<!-- MediaSourceService  -->
<g id="node1" class="node">
<title>MediaSourceService </title>
<polygon fill="#fb8072" stroke="black" points="632.11,-252 495.89,-252 495.89,-216 632.11,-216 632.11,-252"/>
<text text-anchor="middle" x="564" y="-229.8" font-family="Times,serif" font-size="14.00">MediaSourceService </text>
</g>
<!-- MediaUserLicenseService  -->
<g id="node2" class="node">
<title>MediaUserLicenseService </title>
<polygon fill="#fb8072" stroke="black" points="477.7,-252 310.3,-252 310.3,-216 477.7,-216 477.7,-252"/>
<text text-anchor="middle" x="394" y="-229.8" font-family="Times,serif" font-size="14.00">MediaUserLicenseService </text>
</g>
<!-- UserLicenseModule -->
<g id="node3" class="node">
<title>UserLicenseModule</title>
<polygon fill="#8dd3c7" stroke="black" points="543.51,-187 540.51,-191 519.51,-191 516.51,-187 414.49,-187 414.49,-151 543.51,-151 543.51,-187"/>
<text text-anchor="middle" x="479" y="-164.8" font-family="Times,serif" font-size="14.00">UserLicenseModule</text>
</g>
<!-- UserLicenseModule&#45;&gt;MediaSourceService  -->
<g id="edge1" class="edge">
<title>UserLicenseModule&#45;&gt;MediaSourceService </title>
<path fill="none" stroke="black" stroke-dasharray="5,2" d="M519.85,-187.11C519.85,-187.11 519.85,-205.99 519.85,-205.99"/>
<polygon fill="black" stroke="black" points="516.35,-205.99 519.85,-215.99 523.35,-205.99 516.35,-205.99"/>
</g>
<!-- UserLicenseModule&#45;&gt;MediaUserLicenseService  -->
<g id="edge2" class="edge">
<title>UserLicenseModule&#45;&gt;MediaUserLicenseService </title>
<path fill="none" stroke="black" stroke-dasharray="5,2" d="M445.92,-187.11C445.92,-187.11 445.92,-205.99 445.92,-205.99"/>
<polygon fill="black" stroke="black" points="442.42,-205.99 445.92,-215.99 449.42,-205.99 442.42,-205.99"/>
</g>
<!-- MediaSourceRepo -->
<g id="node4" class="node">
<title>MediaSourceRepo</title>
<ellipse fill="#fdb462" stroke="black" cx="778" cy="-104" rx="82.81" ry="18"/>
<text text-anchor="middle" x="778" y="-99.8" font-family="Times,serif" font-size="14.00">MediaSourceRepo</text>
</g>
<!-- MediaSourceRepo&#45;&gt;UserLicenseModule -->
<g id="edge3" class="edge">
<title>MediaSourceRepo&#45;&gt;UserLicenseModule</title>
<path fill="none" stroke="black" d="M778,-122.11C778,-141.34 778,-169 778,-169 778,-169 553.51,-169 553.51,-169"/>
<polygon fill="black" stroke="black" points="553.51,-165.5 543.51,-169 553.51,-172.5 553.51,-165.5"/>
</g>
<!-- MediaSourceService -->
<g id="node5" class="node">
<title>MediaSourceService</title>
<ellipse fill="#fdb462" stroke="black" cx="586" cy="-104" rx="91.45" ry="18"/>
<text text-anchor="middle" x="586" y="-99.8" font-family="Times,serif" font-size="14.00">MediaSourceService</text>
</g>
<!-- MediaSourceService&#45;&gt;UserLicenseModule -->
<g id="edge4" class="edge">
<title>MediaSourceService&#45;&gt;UserLicenseModule</title>
<path fill="none" stroke="black" d="M519.14,-116.53C519.14,-116.53 519.14,-140.85 519.14,-140.85"/>
<polygon fill="black" stroke="black" points="515.64,-140.85 519.14,-150.85 522.64,-140.85 515.64,-140.85"/>
</g>
<!-- MediaUserLicenseRepo -->
<g id="node6" class="node">
<title>MediaUserLicenseRepo</title>
<ellipse fill="#fdb462" stroke="black" cx="372" cy="-104" rx="104.19" ry="18"/>
<text text-anchor="middle" x="372" y="-99.8" font-family="Times,serif" font-size="14.00">MediaUserLicenseRepo</text>
</g>
<!-- MediaUserLicenseRepo&#45;&gt;UserLicenseModule -->
<g id="edge5" class="edge">
<title>MediaUserLicenseRepo&#45;&gt;UserLicenseModule</title>
<path fill="none" stroke="black" d="M445.3,-116.84C445.3,-116.84 445.3,-140.52 445.3,-140.52"/>
<polygon fill="black" stroke="black" points="441.8,-140.52 445.3,-150.52 448.8,-140.52 441.8,-140.52"/>
</g>
<!-- MediaUserLicenseService -->
<g id="node7" class="node">
<title>MediaUserLicenseService</title>
<ellipse fill="#fdb462" stroke="black" cx="137" cy="-104" rx="112.83" ry="18"/>
<text text-anchor="middle" x="137" y="-99.8" font-family="Times,serif" font-size="14.00">MediaUserLicenseService</text>
</g>
<!-- MediaUserLicenseService&#45;&gt;UserLicenseModule -->
<g id="edge6" class="edge">
<title>MediaUserLicenseService&#45;&gt;UserLicenseModule</title>
<path fill="none" stroke="black" d="M137,-122.11C137,-141.34 137,-169 137,-169 137,-169 404.27,-169 404.27,-169"/>
<polygon fill="black" stroke="black" points="404.27,-172.5 414.27,-169 404.27,-165.5 404.27,-172.5"/>
</g>
</g>
</svg>
