<?xml version="1.0" encoding="UTF-8" standalone="no"?>
<!DOCTYPE svg PUBLIC "-//W3C//DTD SVG 1.1//EN"
 "http://www.w3.org/Graphics/SVG/1.1/DTD/svg11.dtd">
<!-- Generated by graphviz version 2.47.0 (20210316.0004)
 -->
<!-- Title: dependencies Pages: 1 -->
<svg width="504pt" height="284pt"
 viewBox="0.00 0.00 504.00 284.00" xmlns="http://www.w3.org/2000/svg" xmlns:xlink="http://www.w3.org/1999/xlink">
<g id="graph0" class="graph" transform="scale(1 1) rotate(0) translate(4 280)">
<title>dependencies</title>
<polygon fill="white" stroke="transparent" points="-4,4 -4,-280 500,-280 500,4 -4,4"/>
<text text-anchor="start" x="227.01" y="-42.4" font-family="Times-12" font-weight="bold" font-size="14.00">Legend</text>
<polygon fill="#ffffb3" stroke="transparent" points="14,-10 14,-30 34,-30 34,-10 14,-10"/>
<text text-anchor="start" x="37.63" y="-15.4" font-family="Times-12" font-size="14.00"> &#160;Declarations</text>
<polygon fill="#8dd3c7" stroke="transparent" points="127,-10 127,-30 147,-30 147,-10 127,-10"/>
<text text-anchor="start" x="150.73" y="-15.4" font-family="Times-12" font-size="14.00"> &#160;Module</text>
<polygon fill="#80b1d3" stroke="transparent" points="213,-10 213,-30 233,-30 233,-10 213,-10"/>
<text text-anchor="start" x="236.78" y="-15.4" font-family="Times-12" font-size="14.00"> &#160;Bootstrap</text>
<polygon fill="#fdb462" stroke="transparent" points="310,-10 310,-30 330,-30 330,-10 310,-10"/>
<text text-anchor="start" x="333.67" y="-15.4" font-family="Times-12" font-size="14.00"> &#160;Providers</text>
<polygon fill="#fb8072" stroke="transparent" points="406,-10 406,-30 426,-30 426,-10 406,-10"/>
<text text-anchor="start" x="429.73" y="-15.4" font-family="Times-12" font-size="14.00"> &#160;Exports</text>
<g id="clust1" class="cluster">
<title>cluster_UserLicenseModule</title>
<polygon fill="none" stroke="black" stroke-dasharray="1,5" points="55,-70 55,-268 441,-268 441,-70 55,-70"/>
</g>
<g id="clust4" class="cluster">
<title>cluster_UserLicenseModule_exports</title>
<polygon fill="none" stroke="black" points="178,-208 178,-260 326,-260 326,-208 178,-208"/>
</g>
<g id="clust6" class="cluster">
<title>cluster_UserLicenseModule_providers</title>
<polygon fill="none" stroke="black" points="63,-78 63,-130 433,-130 433,-78 63,-78"/>
</g>
<!-- UserLicenseService  -->
<g id="node1" class="node">
<title>UserLicenseService </title>
<polygon fill="#fb8072" stroke="black" points="317.94,-252 186.06,-252 186.06,-216 317.94,-216 317.94,-252"/>
<text text-anchor="middle" x="252" y="-229.8" font-family="Times,serif" font-size="14.00">UserLicenseService </text>
</g>
<!-- UserLicenseModule -->
<g id="node2" class="node">
<title>UserLicenseModule</title>
<polygon fill="#8dd3c7" stroke="black" points="316.51,-187 313.51,-191 292.51,-191 289.51,-187 187.49,-187 187.49,-151 316.51,-151 316.51,-187"/>
<text text-anchor="middle" x="252" y="-164.8" font-family="Times,serif" font-size="14.00">UserLicenseModule</text>
</g>
<!-- UserLicenseModule&#45;&gt;UserLicenseService  -->
<g id="edge1" class="edge">
<title>UserLicenseModule&#45;&gt;UserLicenseService </title>
<path fill="none" stroke="black" stroke-dasharray="5,2" d="M252,-187.11C252,-187.11 252,-205.99 252,-205.99"/>
<polygon fill="black" stroke="black" points="248.5,-205.99 252,-215.99 255.5,-205.99 248.5,-205.99"/>
</g>
<!-- UserLicenseRepo -->
<g id="node3" class="node">
<title>UserLicenseRepo</title>
<ellipse fill="#fdb462" stroke="black" cx="345" cy="-104" rx="79.85" ry="18"/>
<text text-anchor="middle" x="345" y="-99.8" font-family="Times,serif" font-size="14.00">UserLicenseRepo</text>
</g>
<!-- UserLicenseRepo&#45;&gt;UserLicenseModule -->
<g id="edge2" class="edge">
<title>UserLicenseRepo&#45;&gt;UserLicenseModule</title>
<path fill="none" stroke="black" d="M291.04,-117.47C291.04,-117.47 291.04,-140.86 291.04,-140.86"/>
<polygon fill="black" stroke="black" points="287.54,-140.86 291.04,-150.86 294.54,-140.86 287.54,-140.86"/>
</g>
<!-- UserLicenseService -->
<g id="node4" class="node">
<title>UserLicenseService</title>
<ellipse fill="#fdb462" stroke="black" cx="159" cy="-104" rx="88.5" ry="18"/>
<text text-anchor="middle" x="159" y="-99.8" font-family="Times,serif" font-size="14.00">UserLicenseService</text>
</g>
<!-- UserLicenseService&#45;&gt;UserLicenseModule -->
<g id="edge3" class="edge">
<title>UserLicenseService&#45;&gt;UserLicenseModule</title>
<path fill="none" stroke="black" d="M217.25,-117.78C217.25,-117.78 217.25,-140.55 217.25,-140.55"/>
<polygon fill="black" stroke="black" points="213.75,-140.55 217.25,-150.55 220.75,-140.55 213.75,-140.55"/>
</g>
</g>
</svg>
