<?xml version="1.0" encoding="UTF-8" standalone="no"?>
<!DOCTYPE svg PUBLIC "-//W3C//DTD SVG 1.1//EN"
 "http://www.w3.org/Graphics/SVG/1.1/DTD/svg11.dtd">
<!-- Generated by graphviz version 2.47.0 (20210316.0004)
 -->
<!-- Title: dependencies Pages: 1 -->
<svg width="1605pt" height="284pt"
 viewBox="0.00 0.00 1605.00 284.00" xmlns="http://www.w3.org/2000/svg" xmlns:xlink="http://www.w3.org/1999/xlink">
<g id="graph0" class="graph" transform="scale(1 1) rotate(0) translate(4 280)">
<title>dependencies</title>
<polygon fill="white" stroke="transparent" points="-4,4 -4,-280 1601,-280 1601,4 -4,4"/>
<text text-anchor="start" x="777.51" y="-42.4" font-family="Times-12" font-weight="bold" font-size="14.00">Legend</text>
<polygon fill="#ffffb3" stroke="transparent" points="564.5,-10 564.5,-30 584.5,-30 584.5,-10 564.5,-10"/>
<text text-anchor="start" x="588.13" y="-15.4" font-family="Times-12" font-size="14.00"> &#160;Declarations</text>
<polygon fill="#8dd3c7" stroke="transparent" points="677.5,-10 677.5,-30 697.5,-30 697.5,-10 677.5,-10"/>
<text text-anchor="start" x="701.23" y="-15.4" font-family="Times-12" font-size="14.00"> &#160;Module</text>
<polygon fill="#80b1d3" stroke="transparent" points="763.5,-10 763.5,-30 783.5,-30 783.5,-10 763.5,-10"/>
<text text-anchor="start" x="787.28" y="-15.4" font-family="Times-12" font-size="14.00"> &#160;Bootstrap</text>
<polygon fill="#fdb462" stroke="transparent" points="860.5,-10 860.5,-30 880.5,-30 880.5,-10 860.5,-10"/>
<text text-anchor="start" x="884.17" y="-15.4" font-family="Times-12" font-size="14.00"> &#160;Providers</text>
<polygon fill="#fb8072" stroke="transparent" points="956.5,-10 956.5,-30 976.5,-30 976.5,-10 956.5,-10"/>
<text text-anchor="start" x="980.23" y="-15.4" font-family="Times-12" font-size="14.00"> &#160;Exports</text>
<g id="clust1" class="cluster">
<title>cluster_AccountModule</title>
<polygon fill="none" stroke="black" stroke-dasharray="1,5" points="8,-70 8,-268 1589,-268 1589,-70 8,-70"/>
</g>
<g id="clust4" class="cluster">
<title>cluster_AccountModule_exports</title>
<polygon fill="none" stroke="black" points="691,-208 691,-260 1001,-260 1001,-208 691,-208"/>
</g>
<g id="clust3" class="cluster">
<title>cluster_AccountModule_imports</title>
<polygon fill="none" stroke="black" points="1271,-78 1271,-130 1581,-130 1581,-78 1271,-78"/>
</g>
<g id="clust6" class="cluster">
<title>cluster_AccountModule_providers</title>
<polygon fill="none" stroke="black" points="16,-78 16,-130 1263,-130 1263,-78 16,-78"/>
</g>
<!-- IdentityManagementModule -->
<g id="node1" class="node">
<title>IdentityManagementModule</title>
<polygon fill="#8dd3c7" stroke="black" points="1573.18,-122 1570.18,-126 1549.18,-126 1546.18,-122 1396.82,-122 1396.82,-86 1573.18,-86 1573.18,-122"/>
<text text-anchor="middle" x="1485" y="-99.8" font-family="Times,serif" font-size="14.00">IdentityManagementModule</text>
</g>
<!-- AccountModule -->
<g id="node3" class="node">
<title>AccountModule</title>
<polygon fill="#8dd3c7" stroke="black" points="914.48,-187 911.48,-191 890.48,-191 887.48,-187 807.52,-187 807.52,-151 914.48,-151 914.48,-187"/>
<text text-anchor="middle" x="861" y="-164.8" font-family="Times,serif" font-size="14.00">AccountModule</text>
</g>
<!-- IdentityManagementModule&#45;&gt;AccountModule -->
<g id="edge1" class="edge">
<title>IdentityManagementModule&#45;&gt;AccountModule</title>
<path fill="none" stroke="black" d="M1485,-122.01C1485,-144.49 1485,-180 1485,-180 1485,-180 924.74,-180 924.74,-180"/>
<polygon fill="black" stroke="black" points="924.74,-176.5 914.74,-180 924.74,-183.5 924.74,-176.5"/>
</g>
<!-- LoggerModule -->
<g id="node2" class="node">
<title>LoggerModule</title>
<polygon fill="#8dd3c7" stroke="black" points="1378.98,-122 1375.98,-126 1354.98,-126 1351.98,-122 1279.02,-122 1279.02,-86 1378.98,-86 1378.98,-122"/>
<text text-anchor="middle" x="1329" y="-99.8" font-family="Times,serif" font-size="14.00">LoggerModule</text>
</g>
<!-- LoggerModule&#45;&gt;AccountModule -->
<g id="edge2" class="edge">
<title>LoggerModule&#45;&gt;AccountModule</title>
<path fill="none" stroke="black" d="M1329,-122.13C1329,-142.57 1329,-173 1329,-173 1329,-173 924.69,-173 924.69,-173"/>
<polygon fill="black" stroke="black" points="924.69,-169.5 914.69,-173 924.69,-176.5 924.69,-169.5"/>
</g>
<!-- AccountService  -->
<g id="node4" class="node">
<title>AccountService </title>
<polygon fill="#fb8072" stroke="black" points="993.4,-252 884.6,-252 884.6,-216 993.4,-216 993.4,-252"/>
<text text-anchor="middle" x="939" y="-229.8" font-family="Times,serif" font-size="14.00">AccountService </text>
</g>
<!-- AccountModule&#45;&gt;AccountService  -->
<g id="edge3" class="edge">
<title>AccountModule&#45;&gt;AccountService </title>
<path fill="none" stroke="black" stroke-dasharray="5,2" d="M899.52,-187.11C899.52,-187.11 899.52,-205.99 899.52,-205.99"/>
<polygon fill="black" stroke="black" points="896.02,-205.99 899.52,-215.99 903.02,-205.99 896.02,-205.99"/>
</g>
<!-- AccountValidationService  -->
<g id="node5" class="node">
<title>AccountValidationService </title>
<polygon fill="#fb8072" stroke="black" points="867,-252 699,-252 699,-216 867,-216 867,-252"/>
<text text-anchor="middle" x="783" y="-229.8" font-family="Times,serif" font-size="14.00">AccountValidationService </text>
</g>
<!-- AccountModule&#45;&gt;AccountValidationService  -->
<g id="edge4" class="edge">
<title>AccountModule&#45;&gt;AccountValidationService </title>
<path fill="none" stroke="black" stroke-dasharray="5,2" d="M837.26,-187.11C837.26,-187.11 837.26,-205.99 837.26,-205.99"/>
<polygon fill="black" stroke="black" points="833.76,-205.99 837.26,-215.99 840.76,-205.99 833.76,-205.99"/>
</g>
<!-- AccountRepo -->
<g id="node6" class="node">
<title>AccountRepo</title>
<ellipse fill="#fdb462" stroke="black" cx="1191" cy="-104" rx="64.27" ry="18"/>
<text text-anchor="middle" x="1191" y="-99.8" font-family="Times,serif" font-size="14.00">AccountRepo</text>
</g>
<!-- AccountRepo&#45;&gt;AccountModule -->
<g id="edge5" class="edge">
<title>AccountRepo&#45;&gt;AccountModule</title>
<path fill="none" stroke="black" d="M1191,-122.27C1191,-140.56 1191,-166 1191,-166 1191,-166 924.75,-166 924.75,-166"/>
<polygon fill="black" stroke="black" points="924.75,-162.5 914.75,-166 924.75,-169.5 924.75,-162.5"/>
</g>
<!-- AccountService -->
<g id="node7" class="node">
<title>AccountService</title>
<ellipse fill="#fdb462" stroke="black" cx="1036" cy="-104" rx="72.91" ry="18"/>
<text text-anchor="middle" x="1036" y="-99.8" font-family="Times,serif" font-size="14.00">AccountService</text>
</g>
<!-- AccountService&#45;&gt;AccountModule -->
<g id="edge6" class="edge">
<title>AccountService&#45;&gt;AccountModule</title>
<path fill="none" stroke="black" d="M978.37,-115.13C978.37,-131.2 978.37,-159 978.37,-159 978.37,-159 924.53,-159 924.53,-159"/>
<polygon fill="black" stroke="black" points="924.53,-155.5 914.53,-159 924.53,-162.5 924.53,-155.5"/>
</g>
<!-- AccountServiceDb -->
<g id="node8" class="node">
<title>AccountServiceDb</title>
<ellipse fill="#fdb462" stroke="black" cx="861" cy="-104" rx="84.51" ry="18"/>
<text text-anchor="middle" x="861" y="-99.8" font-family="Times,serif" font-size="14.00">AccountServiceDb</text>
</g>
<!-- AccountServiceDb&#45;&gt;AccountModule -->
<g id="edge7" class="edge">
<title>AccountServiceDb&#45;&gt;AccountModule</title>
<path fill="none" stroke="black" d="M861,-122.11C861,-122.11 861,-140.99 861,-140.99"/>
<polygon fill="black" stroke="black" points="857.5,-140.99 861,-150.99 864.5,-140.99 857.5,-140.99"/>
</g>
<!-- AccountServiceIdm -->
<g id="node9" class="node">
<title>AccountServiceIdm</title>
<ellipse fill="#fdb462" stroke="black" cx="670" cy="-104" rx="88.02" ry="18"/>
<text text-anchor="middle" x="670" y="-99.8" font-family="Times,serif" font-size="14.00">AccountServiceIdm</text>
</g>
<!-- AccountServiceIdm&#45;&gt;AccountModule -->
<g id="edge8" class="edge">
<title>AccountServiceIdm&#45;&gt;AccountModule</title>
<path fill="none" stroke="black" d="M728.63,-117.6C728.63,-133.88 728.63,-159 728.63,-159 728.63,-159 797.16,-159 797.16,-159"/>
<polygon fill="black" stroke="black" points="797.16,-162.5 807.16,-159 797.16,-155.5 797.16,-162.5"/>
</g>
<!-- AccountValidationService -->
<g id="node10" class="node">
<title>AccountValidationService</title>
<ellipse fill="#fdb462" stroke="black" cx="450" cy="-104" rx="113.44" ry="18"/>
<text text-anchor="middle" x="450" y="-99.8" font-family="Times,serif" font-size="14.00">AccountValidationService</text>
</g>
<!-- AccountValidationService&#45;&gt;AccountModule -->
<g id="edge9" class="edge">
<title>AccountValidationService&#45;&gt;AccountModule</title>
<path fill="none" stroke="black" d="M450,-122.27C450,-140.56 450,-166 450,-166 450,-166 797.27,-166 797.27,-166"/>
<polygon fill="black" stroke="black" points="797.27,-169.5 807.27,-166 797.27,-162.5 797.27,-169.5"/>
</g>
<!-- LegacySystemRepo -->
<g id="node11" class="node">
<title>LegacySystemRepo</title>
<ellipse fill="#fdb462" stroke="black" cx="230" cy="-104" rx="88.04" ry="18"/>
<text text-anchor="middle" x="230" y="-99.8" font-family="Times,serif" font-size="14.00">LegacySystemRepo</text>
</g>
<!-- LegacySystemRepo&#45;&gt;AccountModule -->
<g id="edge10" class="edge">
<title>LegacySystemRepo&#45;&gt;AccountModule</title>
<path fill="none" stroke="black" d="M230,-122.13C230,-142.57 230,-173 230,-173 230,-173 797.47,-173 797.47,-173"/>
<polygon fill="black" stroke="black" points="797.47,-176.5 807.47,-173 797.47,-169.5 797.47,-176.5"/>
</g>
<!-- UserRepo -->
<g id="node12" class="node">
<title>UserRepo</title>
<ellipse fill="#fdb462" stroke="black" cx="74" cy="-104" rx="49.8" ry="18"/>
<text text-anchor="middle" x="74" y="-99.8" font-family="Times,serif" font-size="14.00">UserRepo</text>
</g>
<!-- UserRepo&#45;&gt;AccountModule -->
<g id="edge11" class="edge">
<title>UserRepo&#45;&gt;AccountModule</title>
<path fill="none" stroke="black" d="M74,-122.01C74,-144.49 74,-180 74,-180 74,-180 797.22,-180 797.22,-180"/>
<polygon fill="black" stroke="black" points="797.22,-183.5 807.22,-180 797.22,-176.5 797.22,-183.5"/>
</g>
</g>
</svg>
