<?xml version="1.0" encoding="UTF-8" standalone="no"?>
<!DOCTYPE svg PUBLIC "-//W3C//DTD SVG 1.1//EN"
 "http://www.w3.org/Graphics/SVG/1.1/DTD/svg11.dtd">
<!-- Generated by graphviz version 5.0.0 (20220707.1540)
 -->
<!-- Title: dependencies Pages: 1 -->
<svg width="1732pt" height="247pt"
 viewBox="0.00 0.00 1732.00 246.80" xmlns="http://www.w3.org/2000/svg" xmlns:xlink="http://www.w3.org/1999/xlink">
<g id="graph0" class="graph" transform="scale(1 1) rotate(0) translate(4 242.8)">
<title>dependencies</title>
<polygon fill="white" stroke="transparent" points="-4,4 -4,-242.8 1728,-242.8 1728,4 -4,4"/>
<text text-anchor="middle" x="862" y="-8.2" font-family="sans-serif" font-size="14.00">dependencies</text>
<g id="clust1" class="cluster">
<title>cluster_AccountModule</title>
<polygon fill="none" stroke="black" stroke-dasharray="1,5" points="8,-32.8 8,-230.8 1716,-230.8 1716,-32.8 8,-32.8"/>
</g>
<g id="clust3" class="cluster">
<title>cluster_AccountModule_imports</title>
<polygon fill="none" stroke="black" points="1398,-40.8 1398,-92.8 1708,-92.8 1708,-40.8 1398,-40.8"/>
</g>
<g id="clust6" class="cluster">
<title>cluster_AccountModule_providers</title>
<polygon fill="none" stroke="black" points="16,-40.8 16,-92.8 1390,-92.8 1390,-40.8 16,-40.8"/>
</g>
<g id="clust4" class="cluster">
<title>cluster_AccountModule_exports</title>
<polygon fill="none" stroke="black" points="722,-170.8 722,-222.8 1032,-222.8 1032,-170.8 722,-170.8"/>
</g>
<!-- IdentityManagementModule -->
<g id="node1" class="node">
<title>IdentityManagementModule</title>
<polygon fill="#8dd3c7" stroke="black" points="1700.18,-84.8 1697.18,-88.8 1676.18,-88.8 1673.18,-84.8 1523.82,-84.8 1523.82,-48.8 1700.18,-48.8 1700.18,-84.8"/>
<text text-anchor="middle" x="1612" y="-62.6" font-family="Times,serif" font-size="14.00">IdentityManagementModule</text>
</g>
<!-- AccountModule -->
<g id="node3" class="node">
<title>AccountModule</title>
<polygon fill="#8dd3c7" stroke="black" points="945.48,-149.8 942.48,-153.8 921.48,-153.8 918.48,-149.8 838.52,-149.8 838.52,-113.8 945.48,-113.8 945.48,-149.8"/>
<text text-anchor="middle" x="892" y="-127.6" font-family="Times,serif" font-size="14.00">AccountModule</text>
</g>
<!-- IdentityManagementModule&#45;&gt;AccountModule -->
<g id="edge1" class="edge">
<title>IdentityManagementModule&#45;&gt;AccountModule</title>
<path fill="none" stroke="black" d="M1612,-84.81C1612,-107.29 1612,-142.8 1612,-142.8 1612,-142.8 955.53,-142.8 955.53,-142.8"/>
<polygon fill="black" stroke="black" points="955.53,-139.3 945.53,-142.8 955.53,-146.3 955.53,-139.3"/>
</g>
<!-- LoggerModule -->
<g id="node2" class="node">
<title>LoggerModule</title>
<polygon fill="#8dd3c7" stroke="black" points="1505.98,-84.8 1502.98,-88.8 1481.98,-88.8 1478.98,-84.8 1406.02,-84.8 1406.02,-48.8 1505.98,-48.8 1505.98,-84.8"/>
<text text-anchor="middle" x="1456" y="-62.6" font-family="Times,serif" font-size="14.00">LoggerModule</text>
</g>
<!-- LoggerModule&#45;&gt;AccountModule -->
<g id="edge2" class="edge">
<title>LoggerModule&#45;&gt;AccountModule</title>
<path fill="none" stroke="black" d="M1456,-84.93C1456,-105.37 1456,-135.8 1456,-135.8 1456,-135.8 955.57,-135.8 955.57,-135.8"/>
<polygon fill="black" stroke="black" points="955.57,-132.3 945.57,-135.8 955.57,-139.3 955.57,-132.3"/>
</g>
<!-- AccountService  -->
<g id="node4" class="node">
<title>AccountService </title>
<polygon fill="#fb8072" stroke="black" points="1024.41,-214.8 915.59,-214.8 915.59,-178.8 1024.41,-178.8 1024.41,-214.8"/>
<text text-anchor="middle" x="970" y="-192.6" font-family="Times,serif" font-size="14.00">AccountService </text>
</g>
<!-- AccountModule&#45;&gt;AccountService  -->
<g id="edge3" class="edge">
<title>AccountModule&#45;&gt;AccountService </title>
<path fill="none" stroke="black" stroke-dasharray="5,2" d="M930.52,-149.91C930.52,-149.91 930.52,-168.79 930.52,-168.79"/>
<polygon fill="black" stroke="black" points="927.02,-168.79 930.52,-178.79 934.02,-168.79 927.02,-168.79"/>
</g>
<!-- AccountValidationService  -->
<g id="node5" class="node">
<title>AccountValidationService </title>
<polygon fill="#fb8072" stroke="black" points="898,-214.8 730,-214.8 730,-178.8 898,-178.8 898,-214.8"/>
<text text-anchor="middle" x="814" y="-192.6" font-family="Times,serif" font-size="14.00">AccountValidationService </text>
</g>
<!-- AccountModule&#45;&gt;AccountValidationService  -->
<g id="edge4" class="edge">
<title>AccountModule&#45;&gt;AccountValidationService </title>
<path fill="none" stroke="black" stroke-dasharray="5,2" d="M868.26,-149.91C868.26,-149.91 868.26,-168.79 868.26,-168.79"/>
<polygon fill="black" stroke="black" points="864.76,-168.79 868.26,-178.79 871.76,-168.79 864.76,-168.79"/>
</g>
<!-- AccountRepo -->
<g id="node6" class="node">
<title>AccountRepo</title>
<ellipse fill="#fdb462" stroke="black" cx="1318" cy="-66.8" rx="64.27" ry="18"/>
<text text-anchor="middle" x="1318" y="-62.6" font-family="Times,serif" font-size="14.00">AccountRepo</text>
</g>
<!-- AccountRepo&#45;&gt;AccountModule -->
<g id="edge5" class="edge">
<title>AccountRepo&#45;&gt;AccountModule</title>
<path fill="none" stroke="black" d="M1318,-85.07C1318,-103.36 1318,-128.8 1318,-128.8 1318,-128.8 955.52,-128.8 955.52,-128.8"/>
<polygon fill="black" stroke="black" points="955.52,-125.3 945.52,-128.8 955.52,-132.3 955.52,-125.3"/>
</g>
<!-- AccountService -->
<g id="node7" class="node">
<title>AccountService</title>
<ellipse fill="#fdb462" stroke="black" cx="1163" cy="-66.8" rx="72.92" ry="18"/>
<text text-anchor="middle" x="1163" y="-62.6" font-family="Times,serif" font-size="14.00">AccountService</text>
</g>
<!-- AccountService&#45;&gt;AccountModule -->
<g id="edge6" class="edge">
<title>AccountService&#45;&gt;AccountModule</title>
<path fill="none" stroke="black" d="M1163,-84.81C1163,-100.85 1163,-121.8 1163,-121.8 1163,-121.8 955.54,-121.8 955.54,-121.8"/>
<polygon fill="black" stroke="black" points="955.54,-118.3 945.54,-121.8 955.54,-125.3 955.54,-118.3"/>
</g>
<!-- AccountServiceDb -->
<g id="node8" class="node">
<title>AccountServiceDb</title>
<ellipse fill="#fdb462" stroke="black" cx="988" cy="-66.8" rx="84.52" ry="18"/>
<text text-anchor="middle" x="988" y="-62.6" font-family="Times,serif" font-size="14.00">AccountServiceDb</text>
</g>
<!-- AccountServiceDb&#45;&gt;AccountModule -->
<g id="edge7" class="edge">
<title>AccountServiceDb&#45;&gt;AccountModule</title>
<path fill="none" stroke="black" d="M924.49,-78.72C924.49,-78.72 924.49,-103.57 924.49,-103.57"/>
<polygon fill="black" stroke="black" points="920.99,-103.57 924.49,-113.57 927.99,-103.57 920.99,-103.57"/>
</g>
<!-- AccountServiceIdm -->
<g id="node9" class="node">
<title>AccountServiceIdm</title>
<ellipse fill="#fdb462" stroke="black" cx="797" cy="-66.8" rx="88.03" ry="18"/>
<text text-anchor="middle" x="797" y="-62.6" font-family="Times,serif" font-size="14.00">AccountServiceIdm</text>
</g>
<!-- AccountServiceIdm&#45;&gt;AccountModule -->
<g id="edge8" class="edge">
<title>AccountServiceIdm&#45;&gt;AccountModule</title>
<path fill="none" stroke="black" d="M861.89,-79.03C861.89,-79.03 861.89,-103.48 861.89,-103.48"/>
<polygon fill="black" stroke="black" points="858.39,-103.48 861.89,-113.48 865.39,-103.48 858.39,-103.48"/>
</g>
<!-- AccountValidationService -->
<g id="node10" class="node">
<title>AccountValidationService</title>
<ellipse fill="#fdb462" stroke="black" cx="577" cy="-66.8" rx="113.44" ry="18"/>
<text text-anchor="middle" x="577" y="-62.6" font-family="Times,serif" font-size="14.00">AccountValidationService</text>
</g>
<!-- AccountValidationService&#45;&gt;AccountModule -->
<g id="edge9" class="edge">
<title>AccountValidationService&#45;&gt;AccountModule</title>
<path fill="none" stroke="black" d="M577,-84.81C577,-100.85 577,-121.8 577,-121.8 577,-121.8 828.21,-121.8 828.21,-121.8"/>
<polygon fill="black" stroke="black" points="828.21,-125.3 838.21,-121.8 828.21,-118.3 828.21,-125.3"/>
</g>
<!-- PermissionService -->
<g id="node11" class="node">
<title>PermissionService</title>
<ellipse fill="#fdb462" stroke="black" cx="363" cy="-66.8" rx="82.83" ry="18"/>
<text text-anchor="middle" x="363" y="-62.6" font-family="Times,serif" font-size="14.00">PermissionService</text>
</g>
<!-- PermissionService&#45;&gt;AccountModule -->
<g id="edge10" class="edge">
<title>PermissionService&#45;&gt;AccountModule</title>
<path fill="none" stroke="black" d="M363,-85.07C363,-103.36 363,-128.8 363,-128.8 363,-128.8 828.37,-128.8 828.37,-128.8"/>
<polygon fill="black" stroke="black" points="828.37,-132.3 838.37,-128.8 828.37,-125.3 828.37,-132.3"/>
</g>
<!-- SystemRepo -->
<g id="node12" class="node">
<title>SystemRepo</title>
<ellipse fill="#fdb462" stroke="black" cx="202" cy="-66.8" rx="59.72" ry="18"/>
<text text-anchor="middle" x="202" y="-62.6" font-family="Times,serif" font-size="14.00">SystemRepo</text>
</g>
<!-- SystemRepo&#45;&gt;AccountModule -->
<g id="edge11" class="edge">
<title>SystemRepo&#45;&gt;AccountModule</title>
<path fill="none" stroke="black" d="M202,-84.93C202,-105.37 202,-135.8 202,-135.8 202,-135.8 828.43,-135.8 828.43,-135.8"/>
<polygon fill="black" stroke="black" points="828.43,-139.3 838.43,-135.8 828.43,-132.3 828.43,-139.3"/>
</g>
<!-- UserRepo -->
<g id="node13" class="node">
<title>UserRepo</title>
<ellipse fill="#fdb462" stroke="black" cx="74" cy="-66.8" rx="49.81" ry="18"/>
<text text-anchor="middle" x="74" y="-62.6" font-family="Times,serif" font-size="14.00">UserRepo</text>
</g>
<!-- UserRepo&#45;&gt;AccountModule -->
<g id="edge12" class="edge">
<title>UserRepo&#45;&gt;AccountModule</title>
<path fill="none" stroke="black" d="M74,-84.81C74,-107.29 74,-142.8 74,-142.8 74,-142.8 828.33,-142.8 828.33,-142.8"/>
<polygon fill="black" stroke="black" points="828.33,-146.3 838.33,-142.8 828.33,-139.3 828.33,-146.3"/>
</g>
</g>
</svg>
