<?xml version="1.0" encoding="UTF-8" standalone="no"?>
<!DOCTYPE svg PUBLIC "-//W3C//DTD SVG 1.1//EN"
 "http://www.w3.org/Graphics/SVG/1.1/DTD/svg11.dtd">
<!-- Generated by graphviz version 2.47.0 (20210316.0004)
 -->
<!-- Title: dependencies Pages: 1 -->
<svg width="1605pt" height="284pt"
 viewBox="0.00 0.00 1605.00 284.00" xmlns="http://www.w3.org/2000/svg" xmlns:xlink="http://www.w3.org/1999/xlink">
<g id="graph0" class="graph" transform="scale(1 1) rotate(0) translate(4 280)">
<title>dependencies</title>
<polygon fill="white" stroke="transparent" points="-4,4 -4,-280 1601,-280 1601,4 -4,4"/>
<text text-anchor="start" x="777.51" y="-42.4" font-family="Times-12" font-weight="bold" font-size="14.00">Legend</text>
<polygon fill="#ffffb3" stroke="transparent" points="564.5,-10 564.5,-30 584.5,-30 584.5,-10 564.5,-10"/>
<text text-anchor="start" x="588.13" y="-15.4" font-family="Times-12" font-size="14.00"> &#160;Declarations</text>
<polygon fill="#8dd3c7" stroke="transparent" points="677.5,-10 677.5,-30 697.5,-30 697.5,-10 677.5,-10"/>
<text text-anchor="start" x="701.23" y="-15.4" font-family="Times-12" font-size="14.00"> &#160;Module</text>
<polygon fill="#80b1d3" stroke="transparent" points="763.5,-10 763.5,-30 783.5,-30 783.5,-10 763.5,-10"/>
<text text-anchor="start" x="787.28" y="-15.4" font-family="Times-12" font-size="14.00"> &#160;Bootstrap</text>
<polygon fill="#fdb462" stroke="transparent" points="860.5,-10 860.5,-30 880.5,-30 880.5,-10 860.5,-10"/>
<text text-anchor="start" x="884.17" y="-15.4" font-family="Times-12" font-size="14.00"> &#160;Providers</text>
<polygon fill="#fb8072" stroke="transparent" points="956.5,-10 956.5,-30 976.5,-30 976.5,-10 956.5,-10"/>
<text text-anchor="start" x="980.23" y="-15.4" font-family="Times-12" font-size="14.00"> &#160;Exports</text>
<g id="clust1" class="cluster">
<title>cluster_AccountModule</title>
<polygon fill="none" stroke="black" stroke-dasharray="1,5" points="8,-70 8,-268 1589,-268 1589,-70 8,-70"/>
</g>
<g id="clust6" class="cluster">
<title>cluster_AccountModule_providers</title>
<polygon fill="none" stroke="black" points="334,-78 334,-130 1581,-130 1581,-78 334,-78"/>
</g>
<g id="clust4" class="cluster">
<title>cluster_AccountModule_exports</title>
<polygon fill="none" stroke="black" points="598,-208 598,-260 908,-260 908,-208 598,-208"/>
</g>
<g id="clust3" class="cluster">
<title>cluster_AccountModule_imports</title>
<polygon fill="none" stroke="black" points="16,-78 16,-130 326,-130 326,-78 16,-78"/>
</g>
<!-- IdentityManagementModule -->
<g id="node1" class="node">
<title>IdentityManagementModule</title>
<polygon fill="#8dd3c7" stroke="black" points="318.18,-122 315.18,-126 294.18,-126 291.18,-122 141.82,-122 141.82,-86 318.18,-86 318.18,-122"/>
<text text-anchor="middle" x="230" y="-99.8" font-family="Times,serif" font-size="14.00">IdentityManagementModule</text>
</g>
<!-- AccountModule -->
<g id="node3" class="node">
<title>AccountModule</title>
<polygon fill="#8dd3c7" stroke="black" points="821.48,-187 818.48,-191 797.48,-191 794.48,-187 714.52,-187 714.52,-151 821.48,-151 821.48,-187"/>
<text text-anchor="middle" x="768" y="-164.8" font-family="Times,serif" font-size="14.00">AccountModule</text>
</g>
<!-- IdentityManagementModule&#45;&gt;AccountModule -->
<g id="edge1" class="edge">
<title>IdentityManagementModule&#45;&gt;AccountModule</title>
<path fill="none" stroke="black" d="M230,-122.13C230,-142.57 230,-173 230,-173 230,-173 704.45,-173 704.45,-173"/>
<polygon fill="black" stroke="black" points="704.45,-176.5 714.45,-173 704.45,-169.5 704.45,-176.5"/>
</g>
<!-- LoggerModule -->
<g id="node2" class="node">
<title>LoggerModule</title>
<polygon fill="#8dd3c7" stroke="black" points="123.98,-122 120.98,-126 99.98,-126 96.98,-122 24.02,-122 24.02,-86 123.98,-86 123.98,-122"/>
<text text-anchor="middle" x="74" y="-99.8" font-family="Times,serif" font-size="14.00">LoggerModule</text>
</g>
<!-- LoggerModule&#45;&gt;AccountModule -->
<g id="edge2" class="edge">
<title>LoggerModule&#45;&gt;AccountModule</title>
<path fill="none" stroke="black" d="M74,-122.01C74,-144.49 74,-180 74,-180 74,-180 704.41,-180 704.41,-180"/>
<polygon fill="black" stroke="black" points="704.41,-183.5 714.41,-180 704.41,-176.5 704.41,-183.5"/>
</g>
<!-- AccountService  -->
<g id="node4" class="node">
<title>AccountService </title>
<polygon fill="#fb8072" stroke="black" points="900.4,-252 791.6,-252 791.6,-216 900.4,-216 900.4,-252"/>
<text text-anchor="middle" x="846" y="-229.8" font-family="Times,serif" font-size="14.00">AccountService </text>
</g>
<!-- AccountModule&#45;&gt;AccountService  -->
<g id="edge3" class="edge">
<title>AccountModule&#45;&gt;AccountService </title>
<path fill="none" stroke="black" stroke-dasharray="5,2" d="M806.52,-187.11C806.52,-187.11 806.52,-205.99 806.52,-205.99"/>
<polygon fill="black" stroke="black" points="803.02,-205.99 806.52,-215.99 810.02,-205.99 803.02,-205.99"/>
</g>
<!-- AccountValidationService  -->
<g id="node5" class="node">
<title>AccountValidationService </title>
<polygon fill="#fb8072" stroke="black" points="774,-252 606,-252 606,-216 774,-216 774,-252"/>
<text text-anchor="middle" x="690" y="-229.8" font-family="Times,serif" font-size="14.00">AccountValidationService </text>
</g>
<!-- AccountModule&#45;&gt;AccountValidationService  -->
<g id="edge4" class="edge">
<title>AccountModule&#45;&gt;AccountValidationService </title>
<path fill="none" stroke="black" stroke-dasharray="5,2" d="M744.26,-187.11C744.26,-187.11 744.26,-205.99 744.26,-205.99"/>
<polygon fill="black" stroke="black" points="740.76,-205.99 744.26,-215.99 747.76,-205.99 740.76,-205.99"/>
</g>
<!-- AccountRepo -->
<g id="node6" class="node">
<title>AccountRepo</title>
<ellipse fill="#fdb462" stroke="black" cx="1509" cy="-104" rx="64.27" ry="18"/>
<text text-anchor="middle" x="1509" y="-99.8" font-family="Times,serif" font-size="14.00">AccountRepo</text>
</g>
<!-- AccountRepo&#45;&gt;AccountModule -->
<g id="edge5" class="edge">
<title>AccountRepo&#45;&gt;AccountModule</title>
<path fill="none" stroke="black" d="M1509,-122.01C1509,-144.49 1509,-180 1509,-180 1509,-180 831.59,-180 831.59,-180"/>
<polygon fill="black" stroke="black" points="831.59,-176.5 821.59,-180 831.59,-183.5 831.59,-176.5"/>
</g>
<!-- AccountService -->
<g id="node7" class="node">
<title>AccountService</title>
<ellipse fill="#fdb462" stroke="black" cx="1354" cy="-104" rx="72.91" ry="18"/>
<text text-anchor="middle" x="1354" y="-99.8" font-family="Times,serif" font-size="14.00">AccountService</text>
</g>
<!-- AccountService&#45;&gt;AccountModule -->
<g id="edge6" class="edge">
<title>AccountService&#45;&gt;AccountModule</title>
<path fill="none" stroke="black" d="M1354,-122.13C1354,-142.57 1354,-173 1354,-173 1354,-173 831.56,-173 831.56,-173"/>
<polygon fill="black" stroke="black" points="831.56,-169.5 821.56,-173 831.56,-176.5 831.56,-169.5"/>
</g>
<!-- AccountServiceDb -->
<g id="node8" class="node">
<title>AccountServiceDb</title>
<ellipse fill="#fdb462" stroke="black" cx="1179" cy="-104" rx="84.51" ry="18"/>
<text text-anchor="middle" x="1179" y="-99.8" font-family="Times,serif" font-size="14.00">AccountServiceDb</text>
</g>
<!-- AccountServiceDb&#45;&gt;AccountModule -->
<g id="edge7" class="edge">
<title>AccountServiceDb&#45;&gt;AccountModule</title>
<path fill="none" stroke="black" d="M1179,-122.27C1179,-140.56 1179,-166 1179,-166 1179,-166 831.73,-166 831.73,-166"/>
<polygon fill="black" stroke="black" points="831.73,-162.5 821.73,-166 831.73,-169.5 831.73,-162.5"/>
</g>
<!-- AccountServiceIdm -->
<g id="node9" class="node">
<title>AccountServiceIdm</title>
<ellipse fill="#fdb462" stroke="black" cx="988" cy="-104" rx="88.02" ry="18"/>
<text text-anchor="middle" x="988" y="-99.8" font-family="Times,serif" font-size="14.00">AccountServiceIdm</text>
</g>
<!-- AccountServiceIdm&#45;&gt;AccountModule -->
<g id="edge8" class="edge">
<title>AccountServiceIdm&#45;&gt;AccountModule</title>
<path fill="none" stroke="black" d="M988.36,-122.01C988.36,-138.05 988.36,-159 988.36,-159 988.36,-159 831.62,-159 831.62,-159"/>
<polygon fill="black" stroke="black" points="831.62,-155.5 821.62,-159 831.62,-162.5 831.62,-155.5"/>
</g>
<!-- AccountValidationService -->
<g id="node10" class="node">
<title>AccountValidationService</title>
<ellipse fill="#fdb462" stroke="black" cx="768" cy="-104" rx="113.44" ry="18"/>
<text text-anchor="middle" x="768" y="-99.8" font-family="Times,serif" font-size="14.00">AccountValidationService</text>
</g>
<!-- AccountValidationService&#45;&gt;AccountModule -->
<g id="edge9" class="edge">
<title>AccountValidationService&#45;&gt;AccountModule</title>
<path fill="none" stroke="black" d="M768,-122.11C768,-122.11 768,-140.99 768,-140.99"/>
<polygon fill="black" stroke="black" points="764.5,-140.99 768,-150.99 771.5,-140.99 764.5,-140.99"/>
</g>
<!-- LegacySystemRepo -->
<g id="node11" class="node">
<title>LegacySystemRepo</title>
<ellipse fill="#fdb462" stroke="black" cx="548" cy="-104" rx="88.04" ry="18"/>
<text text-anchor="middle" x="548" y="-99.8" font-family="Times,serif" font-size="14.00">LegacySystemRepo</text>
</g>
<!-- LegacySystemRepo&#45;&gt;AccountModule -->
<g id="edge10" class="edge">
<title>LegacySystemRepo&#45;&gt;AccountModule</title>
<path fill="none" stroke="black" d="M621.14,-114.09C621.14,-129.97 621.14,-159 621.14,-159 621.14,-159 704.15,-159 704.15,-159"/>
<polygon fill="black" stroke="black" points="704.15,-162.5 714.15,-159 704.15,-155.5 704.15,-162.5"/>
</g>
<!-- UserRepo -->
<g id="node12" class="node">
<title>UserRepo</title>
<ellipse fill="#fdb462" stroke="black" cx="392" cy="-104" rx="49.8" ry="18"/>
<text text-anchor="middle" x="392" y="-99.8" font-family="Times,serif" font-size="14.00">UserRepo</text>
</g>
<!-- UserRepo&#45;&gt;AccountModule -->
<g id="edge11" class="edge">
<title>UserRepo&#45;&gt;AccountModule</title>
<path fill="none" stroke="black" d="M392,-122.27C392,-140.56 392,-166 392,-166 392,-166 704.13,-166 704.13,-166"/>
<polygon fill="black" stroke="black" points="704.13,-169.5 714.13,-166 704.13,-162.5 704.13,-169.5"/>
</g>
</g>
</svg>
