<?xml version="1.0" encoding="UTF-8" standalone="no"?>
<!DOCTYPE svg PUBLIC "-//W3C//DTD SVG 1.1//EN"
 "http://www.w3.org/Graphics/SVG/1.1/DTD/svg11.dtd">
<!-- Generated by graphviz version 5.0.0 (20220707.1540)
 -->
<!-- Title: dependencies Pages: 1 -->
<svg width="1732pt" height="247pt"
 viewBox="0.00 0.00 1732.00 246.80" xmlns="http://www.w3.org/2000/svg" xmlns:xlink="http://www.w3.org/1999/xlink">
<g id="graph0" class="graph" transform="scale(1 1) rotate(0) translate(4 242.8)">
<title>dependencies</title>
<polygon fill="white" stroke="transparent" points="-4,4 -4,-242.8 1728,-242.8 1728,4 -4,4"/>
<text text-anchor="middle" x="862" y="-8.2" font-family="sans-serif" font-size="14.00">dependencies</text>
<g id="clust1" class="cluster">
<title>cluster_AccountModule</title>
<polygon fill="none" stroke="black" stroke-dasharray="1,5" points="8,-32.8 8,-230.8 1716,-230.8 1716,-32.8 8,-32.8"/>
</g>
<g id="clust6" class="cluster">
<title>cluster_AccountModule_providers</title>
<polygon fill="none" stroke="black" points="334,-40.8 334,-92.8 1708,-92.8 1708,-40.8 334,-40.8"/>
</g>
<g id="clust4" class="cluster">
<title>cluster_AccountModule_exports</title>
<polygon fill="none" stroke="black" points="618,-170.8 618,-222.8 928,-222.8 928,-170.8 618,-170.8"/>
</g>
<g id="clust3" class="cluster">
<title>cluster_AccountModule_imports</title>
<polygon fill="none" stroke="black" points="16,-40.8 16,-92.8 326,-92.8 326,-40.8 16,-40.8"/>
</g>
<!-- IdentityManagementModule -->
<g id="node1" class="node">
<title>IdentityManagementModule</title>
<polygon fill="#8dd3c7" stroke="black" points="318.18,-84.8 315.18,-88.8 294.18,-88.8 291.18,-84.8 141.82,-84.8 141.82,-48.8 318.18,-48.8 318.18,-84.8"/>
<text text-anchor="middle" x="230" y="-62.6" font-family="Times,serif" font-size="14.00">IdentityManagementModule</text>
</g>
<!-- AccountModule -->
<g id="node3" class="node">
<title>AccountModule</title>
<polygon fill="#8dd3c7" stroke="black" points="841.48,-149.8 838.48,-153.8 817.48,-153.8 814.48,-149.8 734.52,-149.8 734.52,-113.8 841.48,-113.8 841.48,-149.8"/>
<text text-anchor="middle" x="788" y="-127.6" font-family="Times,serif" font-size="14.00">AccountModule</text>
</g>
<!-- IdentityManagementModule&#45;&gt;AccountModule -->
<g id="edge1" class="edge">
<title>IdentityManagementModule&#45;&gt;AccountModule</title>
<path fill="none" stroke="black" d="M230,-84.93C230,-105.37 230,-135.8 230,-135.8 230,-135.8 724.5,-135.8 724.5,-135.8"/>
<polygon fill="black" stroke="black" points="724.5,-139.3 734.5,-135.8 724.5,-132.3 724.5,-139.3"/>
</g>
<!-- LoggerModule -->
<g id="node2" class="node">
<title>LoggerModule</title>
<polygon fill="#8dd3c7" stroke="black" points="123.98,-84.8 120.98,-88.8 99.98,-88.8 96.98,-84.8 24.02,-84.8 24.02,-48.8 123.98,-48.8 123.98,-84.8"/>
<text text-anchor="middle" x="74" y="-62.6" font-family="Times,serif" font-size="14.00">LoggerModule</text>
</g>
<!-- LoggerModule&#45;&gt;AccountModule -->
<g id="edge2" class="edge">
<title>LoggerModule&#45;&gt;AccountModule</title>
<path fill="none" stroke="black" d="M74,-84.81C74,-107.29 74,-142.8 74,-142.8 74,-142.8 724.33,-142.8 724.33,-142.8"/>
<polygon fill="black" stroke="black" points="724.33,-146.3 734.33,-142.8 724.33,-139.3 724.33,-146.3"/>
</g>
<!-- AccountService  -->
<g id="node4" class="node">
<title>AccountService </title>
<polygon fill="#fb8072" stroke="black" points="920.41,-214.8 811.59,-214.8 811.59,-178.8 920.41,-178.8 920.41,-214.8"/>
<text text-anchor="middle" x="866" y="-192.6" font-family="Times,serif" font-size="14.00">AccountService </text>
</g>
<!-- AccountModule&#45;&gt;AccountService  -->
<g id="edge3" class="edge">
<title>AccountModule&#45;&gt;AccountService </title>
<path fill="none" stroke="black" stroke-dasharray="5,2" d="M826.52,-149.91C826.52,-149.91 826.52,-168.79 826.52,-168.79"/>
<polygon fill="black" stroke="black" points="823.02,-168.79 826.52,-178.79 830.02,-168.79 823.02,-168.79"/>
</g>
<!-- AccountValidationService  -->
<g id="node5" class="node">
<title>AccountValidationService </title>
<polygon fill="#fb8072" stroke="black" points="794,-214.8 626,-214.8 626,-178.8 794,-178.8 794,-214.8"/>
<text text-anchor="middle" x="710" y="-192.6" font-family="Times,serif" font-size="14.00">AccountValidationService </text>
</g>
<!-- AccountModule&#45;&gt;AccountValidationService  -->
<g id="edge4" class="edge">
<title>AccountModule&#45;&gt;AccountValidationService </title>
<path fill="none" stroke="black" stroke-dasharray="5,2" d="M764.26,-149.91C764.26,-149.91 764.26,-168.79 764.26,-168.79"/>
<polygon fill="black" stroke="black" points="760.76,-168.79 764.26,-178.79 767.76,-168.79 760.76,-168.79"/>
</g>
<!-- AccountRepo -->
<g id="node6" class="node">
<title>AccountRepo</title>
<ellipse fill="#fdb462" stroke="black" cx="1636" cy="-66.8" rx="64.27" ry="18"/>
<text text-anchor="middle" x="1636" y="-62.6" font-family="Times,serif" font-size="14.00">AccountRepo</text>
</g>
<!-- AccountRepo&#45;&gt;AccountModule -->
<g id="edge5" class="edge">
<title>AccountRepo&#45;&gt;AccountModule</title>
<path fill="none" stroke="black" d="M1636,-84.81C1636,-107.29 1636,-142.8 1636,-142.8 1636,-142.8 851.69,-142.8 851.69,-142.8"/>
<polygon fill="black" stroke="black" points="851.69,-139.3 841.69,-142.8 851.69,-146.3 851.69,-139.3"/>
</g>
<!-- AccountService -->
<g id="node7" class="node">
<title>AccountService</title>
<ellipse fill="#fdb462" stroke="black" cx="1481" cy="-66.8" rx="72.92" ry="18"/>
<text text-anchor="middle" x="1481" y="-62.6" font-family="Times,serif" font-size="14.00">AccountService</text>
</g>
<!-- AccountService&#45;&gt;AccountModule -->
<g id="edge6" class="edge">
<title>AccountService&#45;&gt;AccountModule</title>
<path fill="none" stroke="black" d="M1481,-84.93C1481,-105.37 1481,-135.8 1481,-135.8 1481,-135.8 851.51,-135.8 851.51,-135.8"/>
<polygon fill="black" stroke="black" points="851.51,-132.3 841.51,-135.8 851.51,-139.3 851.51,-132.3"/>
</g>
<!-- AccountServiceDb -->
<g id="node8" class="node">
<title>AccountServiceDb</title>
<ellipse fill="#fdb462" stroke="black" cx="1306" cy="-66.8" rx="84.52" ry="18"/>
<text text-anchor="middle" x="1306" y="-62.6" font-family="Times,serif" font-size="14.00">AccountServiceDb</text>
</g>
<!-- AccountServiceDb&#45;&gt;AccountModule -->
<g id="edge7" class="edge">
<title>AccountServiceDb&#45;&gt;AccountModule</title>
<path fill="none" stroke="black" d="M1306,-85.07C1306,-103.36 1306,-128.8 1306,-128.8 1306,-128.8 851.48,-128.8 851.48,-128.8"/>
<polygon fill="black" stroke="black" points="851.48,-125.3 841.48,-128.8 851.48,-132.3 851.48,-125.3"/>
</g>
<!-- AccountServiceIdm -->
<g id="node9" class="node">
<title>AccountServiceIdm</title>
<ellipse fill="#fdb462" stroke="black" cx="1115" cy="-66.8" rx="88.03" ry="18"/>
<text text-anchor="middle" x="1115" y="-62.6" font-family="Times,serif" font-size="14.00">AccountServiceIdm</text>
</g>
<!-- AccountServiceIdm&#45;&gt;AccountModule -->
<g id="edge8" class="edge">
<title>AccountServiceIdm&#45;&gt;AccountModule</title>
<path fill="none" stroke="black" d="M1115,-84.81C1115,-100.85 1115,-121.8 1115,-121.8 1115,-121.8 851.63,-121.8 851.63,-121.8"/>
<polygon fill="black" stroke="black" points="851.63,-118.3 841.63,-121.8 851.63,-125.3 851.63,-118.3"/>
</g>
<!-- AccountValidationService -->
<g id="node10" class="node">
<title>AccountValidationService</title>
<ellipse fill="#fdb462" stroke="black" cx="895" cy="-66.8" rx="113.44" ry="18"/>
<text text-anchor="middle" x="895" y="-62.6" font-family="Times,serif" font-size="14.00">AccountValidationService</text>
</g>
<!-- AccountValidationService&#45;&gt;AccountModule -->
<g id="edge9" class="edge">
<title>AccountValidationService&#45;&gt;AccountModule</title>
<path fill="none" stroke="black" d="M811.51,-79.03C811.51,-79.03 811.51,-103.48 811.51,-103.48"/>
<polygon fill="black" stroke="black" points="808.01,-103.48 811.51,-113.48 815.01,-103.48 808.01,-103.48"/>
</g>
<!-- PermissionService -->
<g id="node11" class="node">
<title>PermissionService</title>
<ellipse fill="#fdb462" stroke="black" cx="681" cy="-66.8" rx="82.83" ry="18"/>
<text text-anchor="middle" x="681" y="-62.6" font-family="Times,serif" font-size="14.00">PermissionService</text>
</g>
<!-- PermissionService&#45;&gt;AccountModule -->
<g id="edge10" class="edge">
<title>PermissionService&#45;&gt;AccountModule</title>
<path fill="none" stroke="black" d="M749.21,-77.24C749.21,-77.24 749.21,-103.77 749.21,-103.77"/>
<polygon fill="black" stroke="black" points="745.71,-103.77 749.21,-113.77 752.71,-103.77 745.71,-103.77"/>
</g>
<!-- SystemRepo -->
<g id="node12" class="node">
<title>SystemRepo</title>
<ellipse fill="#fdb462" stroke="black" cx="520" cy="-66.8" rx="59.72" ry="18"/>
<text text-anchor="middle" x="520" y="-62.6" font-family="Times,serif" font-size="14.00">SystemRepo</text>
</g>
<!-- SystemRepo&#45;&gt;AccountModule -->
<g id="edge11" class="edge">
<title>SystemRepo&#45;&gt;AccountModule</title>
<path fill="none" stroke="black" d="M520,-84.81C520,-100.85 520,-121.8 520,-121.8 520,-121.8 724.41,-121.8 724.41,-121.8"/>
<polygon fill="black" stroke="black" points="724.41,-125.3 734.41,-121.8 724.41,-118.3 724.41,-125.3"/>
</g>
<!-- UserRepo -->
<g id="node13" class="node">
<title>UserRepo</title>
<ellipse fill="#fdb462" stroke="black" cx="392" cy="-66.8" rx="49.81" ry="18"/>
<text text-anchor="middle" x="392" y="-62.6" font-family="Times,serif" font-size="14.00">UserRepo</text>
</g>
<!-- UserRepo&#45;&gt;AccountModule -->
<g id="edge12" class="edge">
<title>UserRepo&#45;&gt;AccountModule</title>
<path fill="none" stroke="black" d="M392,-85.07C392,-103.36 392,-128.8 392,-128.8 392,-128.8 724.18,-128.8 724.18,-128.8"/>
<polygon fill="black" stroke="black" points="724.18,-132.3 734.18,-128.8 724.18,-125.3 724.18,-132.3"/>
</g>
</g>
</svg>
