<?xml version="1.0" encoding="UTF-8" standalone="no"?>
<!DOCTYPE svg PUBLIC "-//W3C//DTD SVG 1.1//EN"
 "http://www.w3.org/Graphics/SVG/1.1/DTD/svg11.dtd">
<!-- Generated by graphviz version 2.47.0 (20210316.0004)
 -->
<!-- Title: dependencies Pages: 1 -->
<svg width="1360pt" height="284pt"
 viewBox="0.00 0.00 1360.00 284.00" xmlns="http://www.w3.org/2000/svg" xmlns:xlink="http://www.w3.org/1999/xlink">
<g id="graph0" class="graph" transform="scale(1 1) rotate(0) translate(4 280)">
<title>dependencies</title>
<polygon fill="white" stroke="transparent" points="-4,4 -4,-280 1356,-280 1356,4 -4,4"/>
<text text-anchor="start" x="655.01" y="-42.4" font-family="Times-12" font-weight="bold" font-size="14.00">Legend</text>
<polygon fill="#ffffb3" stroke="transparent" points="442,-10 442,-30 462,-30 462,-10 442,-10"/>
<text text-anchor="start" x="465.63" y="-15.4" font-family="Times-12" font-size="14.00"> &#160;Declarations</text>
<polygon fill="#8dd3c7" stroke="transparent" points="555,-10 555,-30 575,-30 575,-10 555,-10"/>
<text text-anchor="start" x="578.73" y="-15.4" font-family="Times-12" font-size="14.00"> &#160;Module</text>
<polygon fill="#80b1d3" stroke="transparent" points="641,-10 641,-30 661,-30 661,-10 641,-10"/>
<text text-anchor="start" x="664.78" y="-15.4" font-family="Times-12" font-size="14.00"> &#160;Bootstrap</text>
<polygon fill="#fdb462" stroke="transparent" points="738,-10 738,-30 758,-30 758,-10 738,-10"/>
<text text-anchor="start" x="761.67" y="-15.4" font-family="Times-12" font-size="14.00"> &#160;Providers</text>
<polygon fill="#fb8072" stroke="transparent" points="834,-10 834,-30 854,-30 854,-10 834,-10"/>
<text text-anchor="start" x="857.73" y="-15.4" font-family="Times-12" font-size="14.00"> &#160;Exports</text>
<g id="clust1" class="cluster">
<title>cluster_AccountModule</title>
<polygon fill="none" stroke="black" stroke-dasharray="1,5" points="8,-70 8,-268 1344,-268 1344,-70 8,-70"/>
</g>
<g id="clust3" class="cluster">
<title>cluster_AccountModule_imports</title>
<polygon fill="none" stroke="black" points="1026,-78 1026,-130 1336,-130 1336,-78 1026,-78"/>
</g>
<g id="clust4" class="cluster">
<title>cluster_AccountModule_exports</title>
<polygon fill="none" stroke="black" points="641,-208 641,-260 765,-260 765,-208 641,-208"/>
</g>
<g id="clust6" class="cluster">
<title>cluster_AccountModule_providers</title>
<polygon fill="none" stroke="black" points="16,-78 16,-130 1018,-130 1018,-78 16,-78"/>
</g>
<!-- IdentityManagementModule -->
<g id="node1" class="node">
<title>IdentityManagementModule</title>
<polygon fill="#8dd3c7" stroke="black" points="1328.18,-122 1325.18,-126 1304.18,-126 1301.18,-122 1151.82,-122 1151.82,-86 1328.18,-86 1328.18,-122"/>
<text text-anchor="middle" x="1240" y="-99.8" font-family="Times,serif" font-size="14.00">IdentityManagementModule</text>
</g>
<!-- AccountModule -->
<g id="node3" class="node">
<title>AccountModule</title>
<polygon fill="#8dd3c7" stroke="black" points="756.48,-187 753.48,-191 732.48,-191 729.48,-187 649.52,-187 649.52,-151 756.48,-151 756.48,-187"/>
<text text-anchor="middle" x="703" y="-164.8" font-family="Times,serif" font-size="14.00">AccountModule</text>
</g>
<!-- IdentityManagementModule&#45;&gt;AccountModule -->
<g id="edge1" class="edge">
<title>IdentityManagementModule&#45;&gt;AccountModule</title>
<path fill="none" stroke="black" d="M1240,-122.29C1240,-144.21 1240,-178 1240,-178 1240,-178 766.95,-178 766.95,-178"/>
<polygon fill="black" stroke="black" points="766.95,-174.5 756.95,-178 766.95,-181.5 766.95,-174.5"/>
</g>
<!-- LoggerModule -->
<g id="node2" class="node">
<title>LoggerModule</title>
<polygon fill="#8dd3c7" stroke="black" points="1133.98,-122 1130.98,-126 1109.98,-126 1106.98,-122 1034.02,-122 1034.02,-86 1133.98,-86 1133.98,-122"/>
<text text-anchor="middle" x="1084" y="-99.8" font-family="Times,serif" font-size="14.00">LoggerModule</text>
</g>
<!-- LoggerModule&#45;&gt;AccountModule -->
<g id="edge2" class="edge">
<title>LoggerModule&#45;&gt;AccountModule</title>
<path fill="none" stroke="black" d="M1084,-122.11C1084,-141.34 1084,-169 1084,-169 1084,-169 766.78,-169 766.78,-169"/>
<polygon fill="black" stroke="black" points="766.78,-165.5 756.78,-169 766.78,-172.5 766.78,-165.5"/>
</g>
<!-- AccountService  -->
<g id="node4" class="node">
<title>AccountService </title>
<polygon fill="#fb8072" stroke="black" points="757.4,-252 648.6,-252 648.6,-216 757.4,-216 757.4,-252"/>
<text text-anchor="middle" x="703" y="-229.8" font-family="Times,serif" font-size="14.00">AccountService </text>
</g>
<!-- AccountModule&#45;&gt;AccountService  -->
<g id="edge3" class="edge">
<title>AccountModule&#45;&gt;AccountService </title>
<path fill="none" stroke="black" stroke-dasharray="5,2" d="M703,-187.11C703,-187.11 703,-205.99 703,-205.99"/>
<polygon fill="black" stroke="black" points="699.5,-205.99 703,-215.99 706.5,-205.99 699.5,-205.99"/>
</g>
<!-- AccountRepo -->
<g id="node5" class="node">
<title>AccountRepo</title>
<ellipse fill="#fdb462" stroke="black" cx="946" cy="-104" rx="64.27" ry="18"/>
<text text-anchor="middle" x="946" y="-99.8" font-family="Times,serif" font-size="14.00">AccountRepo</text>
</g>
<!-- AccountRepo&#45;&gt;AccountModule -->
<g id="edge4" class="edge">
<title>AccountRepo&#45;&gt;AccountModule</title>
<path fill="none" stroke="black" d="M946,-122.03C946,-138.4 946,-160 946,-160 946,-160 766.63,-160 766.63,-160"/>
<polygon fill="black" stroke="black" points="766.63,-156.5 756.63,-160 766.63,-163.5 766.63,-156.5"/>
</g>
<!-- AccountService -->
<g id="node6" class="node">
<title>AccountService</title>
<ellipse fill="#fdb462" stroke="black" cx="791" cy="-104" rx="72.91" ry="18"/>
<text text-anchor="middle" x="791" y="-99.8" font-family="Times,serif" font-size="14.00">AccountService</text>
</g>
<!-- AccountService&#45;&gt;AccountModule -->
<g id="edge5" class="edge">
<title>AccountService&#45;&gt;AccountModule</title>
<path fill="none" stroke="black" d="M737.39,-116.23C737.39,-116.23 737.39,-140.68 737.39,-140.68"/>
<polygon fill="black" stroke="black" points="733.89,-140.68 737.39,-150.68 740.89,-140.68 733.89,-140.68"/>
</g>
<!-- AccountServiceDb -->
<g id="node7" class="node">
<title>AccountServiceDb</title>
<ellipse fill="#fdb462" stroke="black" cx="616" cy="-104" rx="84.51" ry="18"/>
<text text-anchor="middle" x="616" y="-99.8" font-family="Times,serif" font-size="14.00">AccountServiceDb</text>
</g>
<!-- AccountServiceDb&#45;&gt;AccountModule -->
<g id="edge6" class="edge">
<title>AccountServiceDb&#45;&gt;AccountModule</title>
<path fill="none" stroke="black" d="M675.01,-117.15C675.01,-117.15 675.01,-140.69 675.01,-140.69"/>
<polygon fill="black" stroke="black" points="671.51,-140.69 675.01,-150.69 678.51,-140.69 671.51,-140.69"/>
</g>
<!-- AccountServiceIdm -->
<g id="node8" class="node">
<title>AccountServiceIdm</title>
<ellipse fill="#fdb462" stroke="black" cx="425" cy="-104" rx="88.02" ry="18"/>
<text text-anchor="middle" x="425" y="-99.8" font-family="Times,serif" font-size="14.00">AccountServiceIdm</text>
</g>
<!-- AccountServiceIdm&#45;&gt;AccountModule -->
<g id="edge7" class="edge">
<title>AccountServiceIdm&#45;&gt;AccountModule</title>
<path fill="none" stroke="black" d="M425,-122.03C425,-138.4 425,-160 425,-160 425,-160 639.4,-160 639.4,-160"/>
<polygon fill="black" stroke="black" points="639.4,-163.5 649.4,-160 639.4,-156.5 639.4,-163.5"/>
</g>
<!-- LegacySystemRepo -->
<g id="node9" class="node">
<title>LegacySystemRepo</title>
<ellipse fill="#fdb462" stroke="black" cx="230" cy="-104" rx="88.04" ry="18"/>
<text text-anchor="middle" x="230" y="-99.8" font-family="Times,serif" font-size="14.00">LegacySystemRepo</text>
</g>
<!-- LegacySystemRepo&#45;&gt;AccountModule -->
<g id="edge8" class="edge">
<title>LegacySystemRepo&#45;&gt;AccountModule</title>
<path fill="none" stroke="black" d="M230,-122.11C230,-141.34 230,-169 230,-169 230,-169 639.2,-169 639.2,-169"/>
<polygon fill="black" stroke="black" points="639.2,-172.5 649.2,-169 639.2,-165.5 639.2,-172.5"/>
</g>
<!-- UserRepo -->
<g id="node10" class="node">
<title>UserRepo</title>
<ellipse fill="#fdb462" stroke="black" cx="74" cy="-104" rx="49.8" ry="18"/>
<text text-anchor="middle" x="74" y="-99.8" font-family="Times,serif" font-size="14.00">UserRepo</text>
</g>
<!-- UserRepo&#45;&gt;AccountModule -->
<g id="edge9" class="edge">
<title>UserRepo&#45;&gt;AccountModule</title>
<path fill="none" stroke="black" d="M74,-122.29C74,-144.21 74,-178 74,-178 74,-178 639.37,-178 639.37,-178"/>
<polygon fill="black" stroke="black" points="639.37,-181.5 649.37,-178 639.37,-174.5 639.37,-181.5"/>
</g>
</g>
</svg>
