<?xml version="1.0" encoding="UTF-8" standalone="no"?>
<!DOCTYPE svg PUBLIC "-//W3C//DTD SVG 1.1//EN"
 "http://www.w3.org/Graphics/SVG/1.1/DTD/svg11.dtd">
<!-- Generated by graphviz version 5.0.0 (20220707.1540)
 -->
<!-- Title: dependencies Pages: 1 -->
<svg width="1956pt" height="247pt"
 viewBox="0.00 0.00 1956.00 246.80" xmlns="http://www.w3.org/2000/svg" xmlns:xlink="http://www.w3.org/1999/xlink">
<g id="graph0" class="graph" transform="scale(1 1) rotate(0) translate(4 242.8)">
<title>dependencies</title>
<polygon fill="white" stroke="transparent" points="-4,4 -4,-242.8 1952,-242.8 1952,4 -4,4"/>
<text text-anchor="middle" x="974" y="-8.2" font-family="sans-serif" font-size="14.00">dependencies</text>
<g id="clust1" class="cluster">
<title>cluster_AccountModule</title>
<polygon fill="none" stroke="black" stroke-dasharray="1,5" points="8,-32.8 8,-230.8 1940,-230.8 1940,-32.8 8,-32.8"/>
</g>
<g id="clust6" class="cluster">
<title>cluster_AccountModule_providers</title>
<polygon fill="none" stroke="black" points="334,-40.8 334,-92.8 1932,-92.8 1932,-40.8 334,-40.8"/>
</g>
<g id="clust3" class="cluster">
<title>cluster_AccountModule_imports</title>
<polygon fill="none" stroke="black" points="16,-40.8 16,-92.8 326,-92.8 326,-40.8 16,-40.8"/>
</g>
<g id="clust4" class="cluster">
<title>cluster_AccountModule_exports</title>
<polygon fill="none" stroke="black" points="725,-170.8 725,-222.8 1035,-222.8 1035,-170.8 725,-170.8"/>
</g>
<!-- IdentityManagementModule -->
<g id="node1" class="node">
<title>IdentityManagementModule</title>
<polygon fill="#8dd3c7" stroke="black" points="318.18,-84.8 315.18,-88.8 294.18,-88.8 291.18,-84.8 141.82,-84.8 141.82,-48.8 318.18,-48.8 318.18,-84.8"/>
<text text-anchor="middle" x="230" y="-62.6" font-family="Times,serif" font-size="14.00">IdentityManagementModule</text>
</g>
<!-- AccountModule -->
<g id="node3" class="node">
<title>AccountModule</title>
<polygon fill="#8dd3c7" stroke="black" points="948.48,-149.8 945.48,-153.8 924.48,-153.8 921.48,-149.8 841.52,-149.8 841.52,-113.8 948.48,-113.8 948.48,-149.8"/>
<text text-anchor="middle" x="895" y="-127.6" font-family="Times,serif" font-size="14.00">AccountModule</text>
</g>
<!-- IdentityManagementModule&#45;&gt;AccountModule -->
<g id="edge1" class="edge">
<title>IdentityManagementModule&#45;&gt;AccountModule</title>
<path fill="none" stroke="black" d="M230,-85.08C230,-106.12 230,-137.8 230,-137.8 230,-137.8 831.42,-137.8 831.42,-137.8"/>
<polygon fill="black" stroke="black" points="831.42,-141.3 841.42,-137.8 831.42,-134.3 831.42,-141.3"/>
</g>
<!-- LoggerModule -->
<g id="node2" class="node">
<title>LoggerModule</title>
<polygon fill="#8dd3c7" stroke="black" points="123.98,-84.8 120.98,-88.8 99.98,-88.8 96.98,-84.8 24.02,-84.8 24.02,-48.8 123.98,-48.8 123.98,-84.8"/>
<text text-anchor="middle" x="74" y="-62.6" font-family="Times,serif" font-size="14.00">LoggerModule</text>
</g>
<!-- LoggerModule&#45;&gt;AccountModule -->
<g id="edge2" class="edge">
<title>LoggerModule&#45;&gt;AccountModule</title>
<path fill="none" stroke="black" d="M74,-85.05C74,-107.82 74,-143.8 74,-143.8 74,-143.8 831.45,-143.8 831.45,-143.8"/>
<polygon fill="black" stroke="black" points="831.45,-147.3 841.45,-143.8 831.45,-140.3 831.45,-147.3"/>
</g>
<!-- AccountService  -->
<g id="node4" class="node">
<title>AccountService </title>
<polygon fill="#fb8072" stroke="black" points="1027.41,-214.8 918.59,-214.8 918.59,-178.8 1027.41,-178.8 1027.41,-214.8"/>
<text text-anchor="middle" x="973" y="-192.6" font-family="Times,serif" font-size="14.00">AccountService </text>
</g>
<!-- AccountModule&#45;&gt;AccountService  -->
<g id="edge3" class="edge">
<title>AccountModule&#45;&gt;AccountService </title>
<path fill="none" stroke="black" stroke-dasharray="5,2" d="M933.52,-149.91C933.52,-149.91 933.52,-168.79 933.52,-168.79"/>
<polygon fill="black" stroke="black" points="930.02,-168.79 933.52,-178.79 937.02,-168.79 930.02,-168.79"/>
</g>
<!-- AccountValidationService  -->
<g id="node5" class="node">
<title>AccountValidationService </title>
<polygon fill="#fb8072" stroke="black" points="901,-214.8 733,-214.8 733,-178.8 901,-178.8 901,-214.8"/>
<text text-anchor="middle" x="817" y="-192.6" font-family="Times,serif" font-size="14.00">AccountValidationService </text>
</g>
<!-- AccountModule&#45;&gt;AccountValidationService  -->
<g id="edge4" class="edge">
<title>AccountModule&#45;&gt;AccountValidationService </title>
<path fill="none" stroke="black" stroke-dasharray="5,2" d="M871.26,-149.91C871.26,-149.91 871.26,-168.79 871.26,-168.79"/>
<polygon fill="black" stroke="black" points="867.76,-168.79 871.26,-178.79 874.76,-168.79 867.76,-168.79"/>
</g>
<!-- AccountLookupService -->
<g id="node6" class="node">
<title>AccountLookupService</title>
<ellipse fill="#fdb462" stroke="black" cx="1821" cy="-66.8" rx="103" ry="18"/>
<text text-anchor="middle" x="1821" y="-62.6" font-family="Times,serif" font-size="14.00">AccountLookupService</text>
</g>
<!-- AccountLookupService&#45;&gt;AccountModule -->
<g id="edge5" class="edge">
<title>AccountLookupService&#45;&gt;AccountModule</title>
<path fill="none" stroke="black" d="M1821,-85.05C1821,-107.82 1821,-143.8 1821,-143.8 1821,-143.8 958.79,-143.8 958.79,-143.8"/>
<polygon fill="black" stroke="black" points="958.79,-140.3 948.79,-143.8 958.79,-147.3 958.79,-140.3"/>
</g>
<!-- AccountRepo -->
<g id="node7" class="node">
<title>AccountRepo</title>
<ellipse fill="#fdb462" stroke="black" cx="1636" cy="-66.8" rx="64.27" ry="18"/>
<text text-anchor="middle" x="1636" y="-62.6" font-family="Times,serif" font-size="14.00">AccountRepo</text>
</g>
<!-- AccountRepo&#45;&gt;AccountModule -->
<g id="edge6" class="edge">
<title>AccountRepo&#45;&gt;AccountModule</title>
<path fill="none" stroke="black" d="M1636,-85.08C1636,-106.12 1636,-137.8 1636,-137.8 1636,-137.8 958.59,-137.8 958.59,-137.8"/>
<polygon fill="black" stroke="black" points="958.59,-134.3 948.59,-137.8 958.59,-141.3 958.59,-134.3"/>
</g>
<!-- AccountService -->
<g id="node8" class="node">
<title>AccountService</title>
<ellipse fill="#fdb462" stroke="black" cx="1481" cy="-66.8" rx="72.92" ry="18"/>
<text text-anchor="middle" x="1481" y="-62.6" font-family="Times,serif" font-size="14.00">AccountService</text>
</g>
<!-- AccountService&#45;&gt;AccountModule -->
<g id="edge7" class="edge">
<title>AccountService&#45;&gt;AccountModule</title>
<path fill="none" stroke="black" d="M1481,-84.91C1481,-104.14 1481,-131.8 1481,-131.8 1481,-131.8 958.56,-131.8 958.56,-131.8"/>
<polygon fill="black" stroke="black" points="958.56,-128.3 948.56,-131.8 958.56,-135.3 958.56,-128.3"/>
</g>
<!-- AccountServiceDb -->
<g id="node9" class="node">
<title>AccountServiceDb</title>
<ellipse fill="#fdb462" stroke="black" cx="1306" cy="-66.8" rx="84.52" ry="18"/>
<text text-anchor="middle" x="1306" y="-62.6" font-family="Times,serif" font-size="14.00">AccountServiceDb</text>
</g>
<!-- AccountServiceDb&#45;&gt;AccountModule -->
<g id="edge8" class="edge">
<title>AccountServiceDb&#45;&gt;AccountModule</title>
<path fill="none" stroke="black" d="M1306,-84.82C1306,-102.17 1306,-125.8 1306,-125.8 1306,-125.8 958.73,-125.8 958.73,-125.8"/>
<polygon fill="black" stroke="black" points="958.73,-122.3 948.73,-125.8 958.73,-129.3 958.73,-122.3"/>
</g>
<!-- AccountServiceIdm -->
<g id="node10" class="node">
<title>AccountServiceIdm</title>
<ellipse fill="#fdb462" stroke="black" cx="1115" cy="-66.8" rx="88.03" ry="18"/>
<text text-anchor="middle" x="1115" y="-62.6" font-family="Times,serif" font-size="14.00">AccountServiceIdm</text>
</g>
<!-- AccountServiceIdm&#45;&gt;AccountModule -->
<g id="edge9" class="edge">
<title>AccountServiceIdm&#45;&gt;AccountModule</title>
<path fill="none" stroke="black" d="M1115.36,-85.04C1115.36,-100.37 1115.36,-119.8 1115.36,-119.8 1115.36,-119.8 958.62,-119.8 958.62,-119.8"/>
<polygon fill="black" stroke="black" points="958.62,-116.3 948.62,-119.8 958.62,-123.3 958.62,-116.3"/>
</g>
<!-- AccountValidationService -->
<g id="node11" class="node">
<title>AccountValidationService</title>
<ellipse fill="#fdb462" stroke="black" cx="895" cy="-66.8" rx="113.44" ry="18"/>
<text text-anchor="middle" x="895" y="-62.6" font-family="Times,serif" font-size="14.00">AccountValidationService</text>
</g>
<!-- AccountValidationService&#45;&gt;AccountModule -->
<g id="edge10" class="edge">
<title>AccountValidationService&#45;&gt;AccountModule</title>
<path fill="none" stroke="black" d="M895,-84.91C895,-84.91 895,-103.79 895,-103.79"/>
<polygon fill="black" stroke="black" points="891.5,-103.79 895,-113.79 898.5,-103.79 891.5,-103.79"/>
</g>
<!-- PermissionService -->
<g id="node12" class="node">
<title>PermissionService</title>
<ellipse fill="#fdb462" stroke="black" cx="681" cy="-66.8" rx="82.83" ry="18"/>
<text text-anchor="middle" x="681" y="-62.6" font-family="Times,serif" font-size="14.00">PermissionService</text>
</g>
<!-- PermissionService&#45;&gt;AccountModule -->
<g id="edge11" class="edge">
<title>PermissionService&#45;&gt;AccountModule</title>
<path fill="none" stroke="black" d="M748.46,-77.27C748.46,-92.72 748.46,-119.8 748.46,-119.8 748.46,-119.8 831.27,-119.8 831.27,-119.8"/>
<polygon fill="black" stroke="black" points="831.27,-123.3 841.27,-119.8 831.26,-116.3 831.27,-123.3"/>
</g>
<!-- SystemRepo -->
<g id="node13" class="node">
<title>SystemRepo</title>
<ellipse fill="#fdb462" stroke="black" cx="520" cy="-66.8" rx="59.72" ry="18"/>
<text text-anchor="middle" x="520" y="-62.6" font-family="Times,serif" font-size="14.00">SystemRepo</text>
</g>
<!-- SystemRepo&#45;&gt;AccountModule -->
<g id="edge12" class="edge">
<title>SystemRepo&#45;&gt;AccountModule</title>
<path fill="none" stroke="black" d="M520,-84.82C520,-102.17 520,-125.8 520,-125.8 520,-125.8 831.27,-125.8 831.27,-125.8"/>
<polygon fill="black" stroke="black" points="831.27,-129.3 841.27,-125.8 831.27,-122.3 831.27,-129.3"/>
</g>
<!-- UserRepo -->
<g id="node14" class="node">
<title>UserRepo</title>
<ellipse fill="#fdb462" stroke="black" cx="392" cy="-66.8" rx="49.81" ry="18"/>
<text text-anchor="middle" x="392" y="-62.6" font-family="Times,serif" font-size="14.00">UserRepo</text>
</g>
<!-- UserRepo&#45;&gt;AccountModule -->
<g id="edge13" class="edge">
<title>UserRepo&#45;&gt;AccountModule</title>
<path fill="none" stroke="black" d="M392,-84.91C392,-104.14 392,-131.8 392,-131.8 392,-131.8 831.17,-131.8 831.17,-131.8"/>
<polygon fill="black" stroke="black" points="831.17,-135.3 841.17,-131.8 831.17,-128.3 831.17,-135.3"/>
</g>
</g>
</svg>
