<?xml version="1.0" encoding="UTF-8" standalone="no"?>
<!DOCTYPE svg PUBLIC "-//W3C//DTD SVG 1.1//EN"
 "http://www.w3.org/Graphics/SVG/1.1/DTD/svg11.dtd">
<!-- Generated by graphviz version 5.0.0 (20220707.1540)
 -->
<!-- Title: dependencies Pages: 1 -->
<svg width="1956pt" height="247pt"
 viewBox="0.00 0.00 1956.00 246.80" xmlns="http://www.w3.org/2000/svg" xmlns:xlink="http://www.w3.org/1999/xlink">
<g id="graph0" class="graph" transform="scale(1 1) rotate(0) translate(4 242.8)">
<title>dependencies</title>
<polygon fill="white" stroke="transparent" points="-4,4 -4,-242.8 1952,-242.8 1952,4 -4,4"/>
<text text-anchor="middle" x="974" y="-8.2" font-family="sans-serif" font-size="14.00">dependencies</text>
<g id="clust1" class="cluster">
<title>cluster_AccountModule</title>
<polygon fill="none" stroke="black" stroke-dasharray="1,5" points="8,-32.8 8,-230.8 1940,-230.8 1940,-32.8 8,-32.8"/>
</g>
<g id="clust3" class="cluster">
<title>cluster_AccountModule_imports</title>
<polygon fill="none" stroke="black" points="1622,-40.8 1622,-92.8 1932,-92.8 1932,-40.8 1622,-40.8"/>
</g>
<g id="clust4" class="cluster">
<title>cluster_AccountModule_exports</title>
<polygon fill="none" stroke="black" points="818,-170.8 818,-222.8 1128,-222.8 1128,-170.8 818,-170.8"/>
</g>
<g id="clust6" class="cluster">
<title>cluster_AccountModule_providers</title>
<polygon fill="none" stroke="black" points="16,-40.8 16,-92.8 1614,-92.8 1614,-40.8 16,-40.8"/>
</g>
<!-- IdentityManagementModule -->
<g id="node1" class="node">
<title>IdentityManagementModule</title>
<polygon fill="#8dd3c7" stroke="black" points="1924.18,-84.8 1921.18,-88.8 1900.18,-88.8 1897.18,-84.8 1747.82,-84.8 1747.82,-48.8 1924.18,-48.8 1924.18,-84.8"/>
<text text-anchor="middle" x="1836" y="-62.6" font-family="Times,serif" font-size="14.00">IdentityManagementModule</text>
</g>
<!-- AccountModule -->
<g id="node3" class="node">
<title>AccountModule</title>
<polygon fill="#8dd3c7" stroke="black" points="1041.48,-149.8 1038.48,-153.8 1017.48,-153.8 1014.48,-149.8 934.52,-149.8 934.52,-113.8 1041.48,-113.8 1041.48,-149.8"/>
<text text-anchor="middle" x="988" y="-127.6" font-family="Times,serif" font-size="14.00">AccountModule</text>
</g>
<!-- IdentityManagementModule&#45;&gt;AccountModule -->
<g id="edge1" class="edge">
<title>IdentityManagementModule&#45;&gt;AccountModule</title>
<path fill="none" stroke="black" d="M1836,-85.05C1836,-107.82 1836,-143.8 1836,-143.8 1836,-143.8 1051.69,-143.8 1051.69,-143.8"/>
<polygon fill="black" stroke="black" points="1051.69,-140.3 1041.69,-143.8 1051.69,-147.3 1051.69,-140.3"/>
</g>
<!-- LoggerModule -->
<g id="node2" class="node">
<title>LoggerModule</title>
<polygon fill="#8dd3c7" stroke="black" points="1729.98,-84.8 1726.98,-88.8 1705.98,-88.8 1702.98,-84.8 1630.02,-84.8 1630.02,-48.8 1729.98,-48.8 1729.98,-84.8"/>
<text text-anchor="middle" x="1680" y="-62.6" font-family="Times,serif" font-size="14.00">LoggerModule</text>
</g>
<!-- LoggerModule&#45;&gt;AccountModule -->
<g id="edge2" class="edge">
<title>LoggerModule&#45;&gt;AccountModule</title>
<path fill="none" stroke="black" d="M1680,-85.08C1680,-106.12 1680,-137.8 1680,-137.8 1680,-137.8 1051.72,-137.8 1051.72,-137.8"/>
<polygon fill="black" stroke="black" points="1051.72,-134.3 1041.72,-137.8 1051.72,-141.3 1051.72,-134.3"/>
</g>
<!-- AccountService  -->
<g id="node4" class="node">
<title>AccountService </title>
<polygon fill="#fb8072" stroke="black" points="1120.41,-214.8 1011.59,-214.8 1011.59,-178.8 1120.41,-178.8 1120.41,-214.8"/>
<text text-anchor="middle" x="1066" y="-192.6" font-family="Times,serif" font-size="14.00">AccountService </text>
</g>
<!-- AccountModule&#45;&gt;AccountService  -->
<g id="edge3" class="edge">
<title>AccountModule&#45;&gt;AccountService </title>
<path fill="none" stroke="black" stroke-dasharray="5,2" d="M1026.52,-149.91C1026.52,-149.91 1026.52,-168.79 1026.52,-168.79"/>
<polygon fill="black" stroke="black" points="1023.02,-168.79 1026.52,-178.79 1030.02,-168.79 1023.02,-168.79"/>
</g>
<!-- AccountValidationService  -->
<g id="node5" class="node">
<title>AccountValidationService </title>
<polygon fill="#fb8072" stroke="black" points="994,-214.8 826,-214.8 826,-178.8 994,-178.8 994,-214.8"/>
<text text-anchor="middle" x="910" y="-192.6" font-family="Times,serif" font-size="14.00">AccountValidationService </text>
</g>
<!-- AccountModule&#45;&gt;AccountValidationService  -->
<g id="edge4" class="edge">
<title>AccountModule&#45;&gt;AccountValidationService </title>
<path fill="none" stroke="black" stroke-dasharray="5,2" d="M964.26,-149.91C964.26,-149.91 964.26,-168.79 964.26,-168.79"/>
<polygon fill="black" stroke="black" points="960.76,-168.79 964.26,-178.79 967.76,-168.79 960.76,-168.79"/>
</g>
<!-- AccountLookupService -->
<g id="node6" class="node">
<title>AccountLookupService</title>
<ellipse fill="#fdb462" stroke="black" cx="1503" cy="-66.8" rx="103" ry="18"/>
<text text-anchor="middle" x="1503" y="-62.6" font-family="Times,serif" font-size="14.00">AccountLookupService</text>
</g>
<!-- AccountLookupService&#45;&gt;AccountModule -->
<g id="edge5" class="edge">
<title>AccountLookupService&#45;&gt;AccountModule</title>
<path fill="none" stroke="black" d="M1503,-84.91C1503,-104.14 1503,-131.8 1503,-131.8 1503,-131.8 1051.66,-131.8 1051.66,-131.8"/>
<polygon fill="black" stroke="black" points="1051.66,-128.3 1041.66,-131.8 1051.66,-135.3 1051.66,-128.3"/>
</g>
<!-- AccountRepo -->
<g id="node7" class="node">
<title>AccountRepo</title>
<ellipse fill="#fdb462" stroke="black" cx="1318" cy="-66.8" rx="64.27" ry="18"/>
<text text-anchor="middle" x="1318" y="-62.6" font-family="Times,serif" font-size="14.00">AccountRepo</text>
</g>
<!-- AccountRepo&#45;&gt;AccountModule -->
<g id="edge6" class="edge">
<title>AccountRepo&#45;&gt;AccountModule</title>
<path fill="none" stroke="black" d="M1318,-84.82C1318,-102.17 1318,-125.8 1318,-125.8 1318,-125.8 1051.75,-125.8 1051.75,-125.8"/>
<polygon fill="black" stroke="black" points="1051.75,-122.3 1041.75,-125.8 1051.75,-129.3 1051.75,-122.3"/>
</g>
<!-- AccountService -->
<g id="node8" class="node">
<title>AccountService</title>
<ellipse fill="#fdb462" stroke="black" cx="1163" cy="-66.8" rx="72.92" ry="18"/>
<text text-anchor="middle" x="1163" y="-62.6" font-family="Times,serif" font-size="14.00">AccountService</text>
</g>
<!-- AccountService&#45;&gt;AccountModule -->
<g id="edge7" class="edge">
<title>AccountService&#45;&gt;AccountModule</title>
<path fill="none" stroke="black" d="M1105.37,-77.78C1105.37,-93.31 1105.37,-119.8 1105.37,-119.8 1105.37,-119.8 1051.53,-119.8 1051.53,-119.8"/>
<polygon fill="black" stroke="black" points="1051.53,-116.3 1041.53,-119.8 1051.53,-123.3 1051.53,-116.3"/>
</g>
<!-- AccountServiceDb -->
<g id="node9" class="node">
<title>AccountServiceDb</title>
<ellipse fill="#fdb462" stroke="black" cx="988" cy="-66.8" rx="84.52" ry="18"/>
<text text-anchor="middle" x="988" y="-62.6" font-family="Times,serif" font-size="14.00">AccountServiceDb</text>
</g>
<!-- AccountServiceDb&#45;&gt;AccountModule -->
<g id="edge8" class="edge">
<title>AccountServiceDb&#45;&gt;AccountModule</title>
<path fill="none" stroke="black" d="M988,-84.91C988,-84.91 988,-103.79 988,-103.79"/>
<polygon fill="black" stroke="black" points="984.5,-103.79 988,-113.79 991.5,-103.79 984.5,-103.79"/>
</g>
<!-- AccountServiceIdm -->
<g id="node10" class="node">
<title>AccountServiceIdm</title>
<ellipse fill="#fdb462" stroke="black" cx="797" cy="-66.8" rx="88.03" ry="18"/>
<text text-anchor="middle" x="797" y="-62.6" font-family="Times,serif" font-size="14.00">AccountServiceIdm</text>
</g>
<!-- AccountServiceIdm&#45;&gt;AccountModule -->
<g id="edge9" class="edge">
<title>AccountServiceIdm&#45;&gt;AccountModule</title>
<path fill="none" stroke="black" d="M855.63,-80.45C855.63,-96.15 855.63,-119.8 855.63,-119.8 855.63,-119.8 924.16,-119.8 924.16,-119.8"/>
<polygon fill="black" stroke="black" points="924.16,-123.3 934.16,-119.8 924.16,-116.3 924.16,-123.3"/>
</g>
<!-- AccountValidationService -->
<g id="node11" class="node">
<title>AccountValidationService</title>
<ellipse fill="#fdb462" stroke="black" cx="577" cy="-66.8" rx="113.44" ry="18"/>
<text text-anchor="middle" x="577" y="-62.6" font-family="Times,serif" font-size="14.00">AccountValidationService</text>
</g>
<!-- AccountValidationService&#45;&gt;AccountModule -->
<g id="edge10" class="edge">
<title>AccountValidationService&#45;&gt;AccountModule</title>
<path fill="none" stroke="black" d="M577,-84.82C577,-102.17 577,-125.8 577,-125.8 577,-125.8 924.27,-125.8 924.27,-125.8"/>
<polygon fill="black" stroke="black" points="924.27,-129.3 934.27,-125.8 924.27,-122.3 924.27,-129.3"/>
</g>
<!-- PermissionService -->
<g id="node12" class="node">
<title>PermissionService</title>
<ellipse fill="#fdb462" stroke="black" cx="363" cy="-66.8" rx="82.83" ry="18"/>
<text text-anchor="middle" x="363" y="-62.6" font-family="Times,serif" font-size="14.00">PermissionService</text>
</g>
<!-- PermissionService&#45;&gt;AccountModule -->
<g id="edge11" class="edge">
<title>PermissionService&#45;&gt;AccountModule</title>
<path fill="none" stroke="black" d="M363,-84.91C363,-104.14 363,-131.8 363,-131.8 363,-131.8 924.44,-131.8 924.44,-131.8"/>
<polygon fill="black" stroke="black" points="924.44,-135.3 934.44,-131.8 924.44,-128.3 924.44,-135.3"/>
</g>
<!-- SystemRepo -->
<g id="node13" class="node">
<title>SystemRepo</title>
<ellipse fill="#fdb462" stroke="black" cx="202" cy="-66.8" rx="59.72" ry="18"/>
<text text-anchor="middle" x="202" y="-62.6" font-family="Times,serif" font-size="14.00">SystemRepo</text>
</g>
<!-- SystemRepo&#45;&gt;AccountModule -->
<g id="edge12" class="edge">
<title>SystemRepo&#45;&gt;AccountModule</title>
<path fill="none" stroke="black" d="M202,-85.08C202,-106.12 202,-137.8 202,-137.8 202,-137.8 924.28,-137.8 924.28,-137.8"/>
<polygon fill="black" stroke="black" points="924.28,-141.3 934.28,-137.8 924.28,-134.3 924.28,-141.3"/>
</g>
<!-- UserRepo -->
<g id="node14" class="node">
<title>UserRepo</title>
<ellipse fill="#fdb462" stroke="black" cx="74" cy="-66.8" rx="49.81" ry="18"/>
<text text-anchor="middle" x="74" y="-62.6" font-family="Times,serif" font-size="14.00">UserRepo</text>
</g>
<!-- UserRepo&#45;&gt;AccountModule -->
<g id="edge13" class="edge">
<title>UserRepo&#45;&gt;AccountModule</title>
<path fill="none" stroke="black" d="M74,-85.05C74,-107.82 74,-143.8 74,-143.8 74,-143.8 924.24,-143.8 924.24,-143.8"/>
<polygon fill="black" stroke="black" points="924.24,-147.3 934.24,-143.8 924.24,-140.3 924.24,-147.3"/>
</g>
</g>
</svg>
