<?xml version="1.0" encoding="UTF-8" standalone="no"?>
<!DOCTYPE svg PUBLIC "-//W3C//DTD SVG 1.1//EN"
 "http://www.w3.org/Graphics/SVG/1.1/DTD/svg11.dtd">
<!-- Generated by graphviz version 2.47.0 (20210316.0004)
 -->
<!-- Title: dependencies Pages: 1 -->
<svg width="1789pt" height="284pt"
 viewBox="0.00 0.00 1789.00 284.00" xmlns="http://www.w3.org/2000/svg" xmlns:xlink="http://www.w3.org/1999/xlink">
<g id="graph0" class="graph" transform="scale(1 1) rotate(0) translate(4 280)">
<title>dependencies</title>
<polygon fill="white" stroke="transparent" points="-4,4 -4,-280 1785,-280 1785,4 -4,4"/>
<text text-anchor="start" x="869.51" y="-42.4" font-family="Times-12" font-weight="bold" font-size="14.00">Legend</text>
<polygon fill="#ffffb3" stroke="transparent" points="656.5,-10 656.5,-30 676.5,-30 676.5,-10 656.5,-10"/>
<text text-anchor="start" x="680.13" y="-15.4" font-family="Times-12" font-size="14.00"> &#160;Declarations</text>
<polygon fill="#8dd3c7" stroke="transparent" points="769.5,-10 769.5,-30 789.5,-30 789.5,-10 769.5,-10"/>
<text text-anchor="start" x="793.23" y="-15.4" font-family="Times-12" font-size="14.00"> &#160;Module</text>
<polygon fill="#80b1d3" stroke="transparent" points="855.5,-10 855.5,-30 875.5,-30 875.5,-10 855.5,-10"/>
<text text-anchor="start" x="879.28" y="-15.4" font-family="Times-12" font-size="14.00"> &#160;Bootstrap</text>
<polygon fill="#fdb462" stroke="transparent" points="952.5,-10 952.5,-30 972.5,-30 972.5,-10 952.5,-10"/>
<text text-anchor="start" x="976.17" y="-15.4" font-family="Times-12" font-size="14.00"> &#160;Providers</text>
<polygon fill="#fb8072" stroke="transparent" points="1048.5,-10 1048.5,-30 1068.5,-30 1068.5,-10 1048.5,-10"/>
<text text-anchor="start" x="1072.23" y="-15.4" font-family="Times-12" font-size="14.00"> &#160;Exports</text>
<g id="clust1" class="cluster">
<title>cluster_AccountModule</title>
<polygon fill="none" stroke="black" stroke-dasharray="1,5" points="8,-70 8,-268 1773,-268 1773,-70 8,-70"/>
</g>
<g id="clust4" class="cluster">
<title>cluster_AccountModule_exports</title>
<polygon fill="none" stroke="black" points="779,-208 779,-260 1089,-260 1089,-208 779,-208"/>
</g>
<g id="clust3" class="cluster">
<title>cluster_AccountModule_imports</title>
<polygon fill="none" stroke="black" points="1455,-78 1455,-130 1765,-130 1765,-78 1455,-78"/>
</g>
<g id="clust6" class="cluster">
<title>cluster_AccountModule_providers</title>
<polygon fill="none" stroke="black" points="16,-78 16,-130 1447,-130 1447,-78 16,-78"/>
</g>
<!-- IdentityManagementModule -->
<g id="node1" class="node">
<title>IdentityManagementModule</title>
<polygon fill="#8dd3c7" stroke="black" points="1757.18,-122 1754.18,-126 1733.18,-126 1730.18,-122 1580.82,-122 1580.82,-86 1757.18,-86 1757.18,-122"/>
<text text-anchor="middle" x="1669" y="-99.8" font-family="Times,serif" font-size="14.00">IdentityManagementModule</text>
</g>
<!-- AccountModule -->
<g id="node3" class="node">
<title>AccountModule</title>
<polygon fill="#8dd3c7" stroke="black" points="1002.48,-187 999.48,-191 978.48,-191 975.48,-187 895.52,-187 895.52,-151 1002.48,-151 1002.48,-187"/>
<text text-anchor="middle" x="949" y="-164.8" font-family="Times,serif" font-size="14.00">AccountModule</text>
</g>
<!-- IdentityManagementModule&#45;&gt;AccountModule -->
<g id="edge1" class="edge">
<title>IdentityManagementModule&#45;&gt;AccountModule</title>
<path fill="none" stroke="black" d="M1669,-122.01C1669,-144.49 1669,-180 1669,-180 1669,-180 1012.53,-180 1012.53,-180"/>
<polygon fill="black" stroke="black" points="1012.53,-176.5 1002.53,-180 1012.53,-183.5 1012.53,-176.5"/>
</g>
<!-- LoggerModule -->
<g id="node2" class="node">
<title>LoggerModule</title>
<polygon fill="#8dd3c7" stroke="black" points="1562.98,-122 1559.98,-126 1538.98,-126 1535.98,-122 1463.02,-122 1463.02,-86 1562.98,-86 1562.98,-122"/>
<text text-anchor="middle" x="1513" y="-99.8" font-family="Times,serif" font-size="14.00">LoggerModule</text>
</g>
<!-- LoggerModule&#45;&gt;AccountModule -->
<g id="edge2" class="edge">
<title>LoggerModule&#45;&gt;AccountModule</title>
<path fill="none" stroke="black" d="M1513,-122.13C1513,-142.57 1513,-173 1513,-173 1513,-173 1012.57,-173 1012.57,-173"/>
<polygon fill="black" stroke="black" points="1012.57,-169.5 1002.57,-173 1012.57,-176.5 1012.57,-169.5"/>
</g>
<!-- AccountService  -->
<g id="node4" class="node">
<title>AccountService </title>
<polygon fill="#fb8072" stroke="black" points="1081.4,-252 972.6,-252 972.6,-216 1081.4,-216 1081.4,-252"/>
<text text-anchor="middle" x="1027" y="-229.8" font-family="Times,serif" font-size="14.00">AccountService </text>
</g>
<!-- AccountModule&#45;&gt;AccountService  -->
<g id="edge3" class="edge">
<title>AccountModule&#45;&gt;AccountService </title>
<path fill="none" stroke="black" stroke-dasharray="5,2" d="M987.52,-187.11C987.52,-187.11 987.52,-205.99 987.52,-205.99"/>
<polygon fill="black" stroke="black" points="984.02,-205.99 987.52,-215.99 991.02,-205.99 984.02,-205.99"/>
</g>
<!-- AccountValidationService  -->
<g id="node5" class="node">
<title>AccountValidationService </title>
<polygon fill="#fb8072" stroke="black" points="955,-252 787,-252 787,-216 955,-216 955,-252"/>
<text text-anchor="middle" x="871" y="-229.8" font-family="Times,serif" font-size="14.00">AccountValidationService </text>
</g>
<!-- AccountModule&#45;&gt;AccountValidationService  -->
<g id="edge4" class="edge">
<title>AccountModule&#45;&gt;AccountValidationService </title>
<path fill="none" stroke="black" stroke-dasharray="5,2" d="M925.26,-187.11C925.26,-187.11 925.26,-205.99 925.26,-205.99"/>
<polygon fill="black" stroke="black" points="921.76,-205.99 925.26,-215.99 928.76,-205.99 921.76,-205.99"/>
</g>
<!-- AccountRepo -->
<g id="node6" class="node">
<title>AccountRepo</title>
<ellipse fill="#fdb462" stroke="black" cx="1375" cy="-104" rx="64.27" ry="18"/>
<text text-anchor="middle" x="1375" y="-99.8" font-family="Times,serif" font-size="14.00">AccountRepo</text>
</g>
<!-- AccountRepo&#45;&gt;AccountModule -->
<g id="edge5" class="edge">
<title>AccountRepo&#45;&gt;AccountModule</title>
<path fill="none" stroke="black" d="M1375,-122.27C1375,-140.56 1375,-166 1375,-166 1375,-166 1012.52,-166 1012.52,-166"/>
<polygon fill="black" stroke="black" points="1012.52,-162.5 1002.52,-166 1012.52,-169.5 1012.52,-162.5"/>
</g>
<!-- AccountService -->
<g id="node7" class="node">
<title>AccountService</title>
<ellipse fill="#fdb462" stroke="black" cx="1220" cy="-104" rx="72.91" ry="18"/>
<text text-anchor="middle" x="1220" y="-99.8" font-family="Times,serif" font-size="14.00">AccountService</text>
</g>
<!-- AccountService&#45;&gt;AccountModule -->
<g id="edge6" class="edge">
<title>AccountService&#45;&gt;AccountModule</title>
<path fill="none" stroke="black" d="M1220,-122.01C1220,-138.05 1220,-159 1220,-159 1220,-159 1012.54,-159 1012.54,-159"/>
<polygon fill="black" stroke="black" points="1012.54,-155.5 1002.54,-159 1012.54,-162.5 1012.54,-155.5"/>
</g>
<!-- AccountServiceDb -->
<g id="node8" class="node">
<title>AccountServiceDb</title>
<ellipse fill="#fdb462" stroke="black" cx="1045" cy="-104" rx="84.51" ry="18"/>
<text text-anchor="middle" x="1045" y="-99.8" font-family="Times,serif" font-size="14.00">AccountServiceDb</text>
</g>
<!-- AccountServiceDb&#45;&gt;AccountModule -->
<g id="edge7" class="edge">
<title>AccountServiceDb&#45;&gt;AccountModule</title>
<path fill="none" stroke="black" d="M981.49,-115.92C981.49,-115.92 981.49,-140.77 981.49,-140.77"/>
<polygon fill="black" stroke="black" points="977.99,-140.77 981.49,-150.77 984.99,-140.77 977.99,-140.77"/>
</g>
<!-- AccountServiceIdm -->
<g id="node9" class="node">
<title>AccountServiceIdm</title>
<ellipse fill="#fdb462" stroke="black" cx="854" cy="-104" rx="88.02" ry="18"/>
<text text-anchor="middle" x="854" y="-99.8" font-family="Times,serif" font-size="14.00">AccountServiceIdm</text>
</g>
<!-- AccountServiceIdm&#45;&gt;AccountModule -->
<g id="edge8" class="edge">
<title>AccountServiceIdm&#45;&gt;AccountModule</title>
<path fill="none" stroke="black" d="M918.89,-116.23C918.89,-116.23 918.89,-140.68 918.89,-140.68"/>
<polygon fill="black" stroke="black" points="915.39,-140.68 918.89,-150.68 922.39,-140.68 915.39,-140.68"/>
</g>
<!-- AccountValidationService -->
<g id="node10" class="node">
<title>AccountValidationService</title>
<ellipse fill="#fdb462" stroke="black" cx="634" cy="-104" rx="113.44" ry="18"/>
<text text-anchor="middle" x="634" y="-99.8" font-family="Times,serif" font-size="14.00">AccountValidationService</text>
</g>
<!-- AccountValidationService&#45;&gt;AccountModule -->
<g id="edge9" class="edge">
<title>AccountValidationService&#45;&gt;AccountModule</title>
<path fill="none" stroke="black" d="M634,-122.01C634,-138.05 634,-159 634,-159 634,-159 885.21,-159 885.21,-159"/>
<polygon fill="black" stroke="black" points="885.21,-162.5 895.21,-159 885.21,-155.5 885.21,-162.5"/>
</g>
<!-- LegacySystemRepo -->
<g id="node11" class="node">
<title>LegacySystemRepo</title>
<ellipse fill="#fdb462" stroke="black" cx="414" cy="-104" rx="88.04" ry="18"/>
<text text-anchor="middle" x="414" y="-99.8" font-family="Times,serif" font-size="14.00">LegacySystemRepo</text>
</g>
<!-- LegacySystemRepo&#45;&gt;AccountModule -->
<g id="edge10" class="edge">
<title>LegacySystemRepo&#45;&gt;AccountModule</title>
<path fill="none" stroke="black" d="M414,-122.27C414,-140.56 414,-166 414,-166 414,-166 885.25,-166 885.25,-166"/>
<polygon fill="black" stroke="black" points="885.25,-169.5 895.25,-166 885.25,-162.5 885.25,-169.5"/>
</g>
<!-- PermissionService -->
<g id="node12" class="node">
<title>PermissionService</title>
<ellipse fill="#fdb462" stroke="black" cx="225" cy="-104" rx="82.82" ry="18"/>
<text text-anchor="middle" x="225" y="-99.8" font-family="Times,serif" font-size="14.00">PermissionService</text>
</g>
<!-- PermissionService&#45;&gt;AccountModule -->
<g id="edge11" class="edge">
<title>PermissionService&#45;&gt;AccountModule</title>
<path fill="none" stroke="black" d="M225,-122.13C225,-142.57 225,-173 225,-173 225,-173 885.47,-173 885.47,-173"/>
<polygon fill="black" stroke="black" points="885.47,-176.5 895.47,-173 885.47,-169.5 885.47,-176.5"/>
</g>
<!-- UserRepo -->
<g id="node13" class="node">
<title>UserRepo</title>
<ellipse fill="#fdb462" stroke="black" cx="74" cy="-104" rx="49.8" ry="18"/>
<text text-anchor="middle" x="74" y="-99.8" font-family="Times,serif" font-size="14.00">UserRepo</text>
</g>
<!-- UserRepo&#45;&gt;AccountModule -->
<g id="edge12" class="edge">
<title>UserRepo&#45;&gt;AccountModule</title>
<path fill="none" stroke="black" d="M74,-122.01C74,-144.49 74,-180 74,-180 74,-180 885.25,-180 885.25,-180"/>
<polygon fill="black" stroke="black" points="885.25,-183.5 895.25,-180 885.25,-176.5 885.25,-183.5"/>
</g>
</g>
</svg>
