<?xml version="1.0" encoding="UTF-8" standalone="no"?>
<!DOCTYPE svg PUBLIC "-//W3C//DTD SVG 1.1//EN"
 "http://www.w3.org/Graphics/SVG/1.1/DTD/svg11.dtd">
<!-- Generated by graphviz version 2.47.0 (20210316.0004)
 -->
<!-- Title: dependencies Pages: 1 -->
<svg width="1283pt" height="284pt"
 viewBox="0.00 0.00 1283.00 284.00" xmlns="http://www.w3.org/2000/svg" xmlns:xlink="http://www.w3.org/1999/xlink">
<g id="graph0" class="graph" transform="scale(1 1) rotate(0) translate(4 280)">
<title>dependencies</title>
<polygon fill="white" stroke="transparent" points="-4,4 -4,-280 1279,-280 1279,4 -4,4"/>
<text text-anchor="start" x="616.51" y="-42.4" font-family="Times-12" font-weight="bold" font-size="14.00">Legend</text>
<polygon fill="#ffffb3" stroke="transparent" points="403.5,-10 403.5,-30 423.5,-30 423.5,-10 403.5,-10"/>
<text text-anchor="start" x="427.13" y="-15.4" font-family="Times-12" font-size="14.00"> &#160;Declarations</text>
<polygon fill="#8dd3c7" stroke="transparent" points="516.5,-10 516.5,-30 536.5,-30 536.5,-10 516.5,-10"/>
<text text-anchor="start" x="540.23" y="-15.4" font-family="Times-12" font-size="14.00"> &#160;Module</text>
<polygon fill="#80b1d3" stroke="transparent" points="602.5,-10 602.5,-30 622.5,-30 622.5,-10 602.5,-10"/>
<text text-anchor="start" x="626.28" y="-15.4" font-family="Times-12" font-size="14.00"> &#160;Bootstrap</text>
<polygon fill="#fdb462" stroke="transparent" points="699.5,-10 699.5,-30 719.5,-30 719.5,-10 699.5,-10"/>
<text text-anchor="start" x="723.17" y="-15.4" font-family="Times-12" font-size="14.00"> &#160;Providers</text>
<polygon fill="#fb8072" stroke="transparent" points="795.5,-10 795.5,-30 815.5,-30 815.5,-10 795.5,-10"/>
<text text-anchor="start" x="819.23" y="-15.4" font-family="Times-12" font-size="14.00"> &#160;Exports</text>
<g id="clust1" class="cluster">
<title>cluster_AccountModule</title>
<polygon fill="none" stroke="black" stroke-dasharray="1,5" points="8,-70 8,-268 1267,-268 1267,-70 8,-70"/>
</g>
<g id="clust4" class="cluster">
<title>cluster_AccountModule_exports</title>
<polygon fill="none" stroke="black" points="611,-208 611,-260 735,-260 735,-208 611,-208"/>
</g>
<g id="clust3" class="cluster">
<title>cluster_AccountModule_imports</title>
<polygon fill="none" stroke="black" points="831,-78 831,-130 1259,-130 1259,-78 831,-78"/>
</g>
<g id="clust6" class="cluster">
<title>cluster_AccountModule_providers</title>
<polygon fill="none" stroke="black" points="16,-78 16,-130 823,-130 823,-78 16,-78"/>
</g>
<!-- IdentityManagementModule -->
<g id="node1" class="node">
<title>IdentityManagementModule</title>
<polygon fill="#8dd3c7" stroke="black" points="1251.18,-122 1248.18,-126 1227.18,-126 1224.18,-122 1074.82,-122 1074.82,-86 1251.18,-86 1251.18,-122"/>
<text text-anchor="middle" x="1163" y="-99.8" font-family="Times,serif" font-size="14.00">IdentityManagementModule</text>
</g>
<!-- AccountModule -->
<g id="node4" class="node">
<title>AccountModule</title>
<polygon fill="#8dd3c7" stroke="black" points="726.48,-187 723.48,-191 702.48,-191 699.48,-187 619.52,-187 619.52,-151 726.48,-151 726.48,-187"/>
<text text-anchor="middle" x="673" y="-164.8" font-family="Times,serif" font-size="14.00">AccountModule</text>
</g>
<!-- IdentityManagementModule&#45;&gt;AccountModule -->
<g id="edge1" class="edge">
<title>IdentityManagementModule&#45;&gt;AccountModule</title>
<path fill="none" stroke="black" d="M1163,-122.29C1163,-144.21 1163,-178 1163,-178 1163,-178 736.84,-178 736.84,-178"/>
<polygon fill="black" stroke="black" points="736.84,-174.5 726.84,-178 736.84,-181.5 736.84,-174.5"/>
</g>
<!-- LoggerModule -->
<g id="node2" class="node">
<title>LoggerModule</title>
<polygon fill="#8dd3c7" stroke="black" points="1056.98,-122 1053.98,-126 1032.98,-126 1029.98,-122 957.02,-122 957.02,-86 1056.98,-86 1056.98,-122"/>
<text text-anchor="middle" x="1007" y="-99.8" font-family="Times,serif" font-size="14.00">LoggerModule</text>
</g>
<!-- LoggerModule&#45;&gt;AccountModule -->
<g id="edge2" class="edge">
<title>LoggerModule&#45;&gt;AccountModule</title>
<path fill="none" stroke="black" d="M1007,-122.11C1007,-141.34 1007,-169 1007,-169 1007,-169 736.66,-169 736.66,-169"/>
<polygon fill="black" stroke="black" points="736.66,-165.5 726.66,-169 736.66,-172.5 736.66,-165.5"/>
</g>
<!-- SystemModule -->
<g id="node3" class="node">
<title>SystemModule</title>
<polygon fill="#8dd3c7" stroke="black" points="939.27,-122 936.27,-126 915.27,-126 912.27,-122 838.73,-122 838.73,-86 939.27,-86 939.27,-122"/>
<text text-anchor="middle" x="889" y="-99.8" font-family="Times,serif" font-size="14.00">SystemModule</text>
</g>
<!-- SystemModule&#45;&gt;AccountModule -->
<g id="edge3" class="edge">
<title>SystemModule&#45;&gt;AccountModule</title>
<path fill="none" stroke="black" d="M889,-122.03C889,-138.4 889,-160 889,-160 889,-160 736.67,-160 736.67,-160"/>
<polygon fill="black" stroke="black" points="736.67,-156.5 726.67,-160 736.67,-163.5 736.67,-156.5"/>
</g>
<!-- AccountService  -->
<g id="node5" class="node">
<title>AccountService </title>
<polygon fill="#fb8072" stroke="black" points="727.4,-252 618.6,-252 618.6,-216 727.4,-216 727.4,-252"/>
<text text-anchor="middle" x="673" y="-229.8" font-family="Times,serif" font-size="14.00">AccountService </text>
</g>
<!-- AccountModule&#45;&gt;AccountService  -->
<g id="edge4" class="edge">
<title>AccountModule&#45;&gt;AccountService </title>
<path fill="none" stroke="black" stroke-dasharray="5,2" d="M673,-187.11C673,-187.11 673,-205.99 673,-205.99"/>
<polygon fill="black" stroke="black" points="669.5,-205.99 673,-215.99 676.5,-205.99 669.5,-205.99"/>
</g>
<!-- AccountRepo -->
<g id="node6" class="node">
<title>AccountRepo</title>
<ellipse fill="#fdb462" stroke="black" cx="751" cy="-104" rx="64.27" ry="18"/>
<text text-anchor="middle" x="751" y="-99.8" font-family="Times,serif" font-size="14.00">AccountRepo</text>
</g>
<!-- AccountRepo&#45;&gt;AccountModule -->
<g id="edge5" class="edge">
<title>AccountRepo&#45;&gt;AccountModule</title>
<path fill="none" stroke="black" d="M706.68,-117.15C706.68,-117.15 706.68,-140.69 706.68,-140.69"/>
<polygon fill="black" stroke="black" points="703.18,-140.69 706.68,-150.69 710.18,-140.69 703.18,-140.69"/>
</g>
<!-- AccountService -->
<g id="node7" class="node">
<title>AccountService</title>
<ellipse fill="#fdb462" stroke="black" cx="596" cy="-104" rx="72.91" ry="18"/>
<text text-anchor="middle" x="596" y="-99.8" font-family="Times,serif" font-size="14.00">AccountService</text>
</g>
<!-- AccountService&#45;&gt;AccountModule -->
<g id="edge6" class="edge">
<title>AccountService&#45;&gt;AccountModule</title>
<path fill="none" stroke="black" d="M644.11,-117.78C644.11,-117.78 644.11,-140.55 644.11,-140.55"/>
<polygon fill="black" stroke="black" points="640.61,-140.55 644.11,-150.55 647.61,-140.55 640.61,-140.55"/>
</g>
<!-- AccountServiceDb -->
<g id="node8" class="node">
<title>AccountServiceDb</title>
<ellipse fill="#fdb462" stroke="black" cx="421" cy="-104" rx="84.51" ry="18"/>
<text text-anchor="middle" x="421" y="-99.8" font-family="Times,serif" font-size="14.00">AccountServiceDb</text>
</g>
<!-- AccountServiceDb&#45;&gt;AccountModule -->
<g id="edge7" class="edge">
<title>AccountServiceDb&#45;&gt;AccountModule</title>
<path fill="none" stroke="black" d="M421,-122.03C421,-138.4 421,-160 421,-160 421,-160 609.25,-160 609.25,-160"/>
<polygon fill="black" stroke="black" points="609.25,-163.5 619.25,-160 609.25,-156.5 609.25,-163.5"/>
</g>
<!-- AccountServiceIdm -->
<g id="node9" class="node">
<title>AccountServiceIdm</title>
<ellipse fill="#fdb462" stroke="black" cx="230" cy="-104" rx="88.02" ry="18"/>
<text text-anchor="middle" x="230" y="-99.8" font-family="Times,serif" font-size="14.00">AccountServiceIdm</text>
</g>
<!-- AccountServiceIdm&#45;&gt;AccountModule -->
<g id="edge8" class="edge">
<title>AccountServiceIdm&#45;&gt;AccountModule</title>
<path fill="none" stroke="black" d="M230,-122.11C230,-141.34 230,-169 230,-169 230,-169 609.12,-169 609.12,-169"/>
<polygon fill="black" stroke="black" points="609.12,-172.5 619.12,-169 609.12,-165.5 609.12,-172.5"/>
</g>
<!-- UserRepo -->
<g id="node10" class="node">
<title>UserRepo</title>
<ellipse fill="#fdb462" stroke="black" cx="74" cy="-104" rx="49.8" ry="18"/>
<text text-anchor="middle" x="74" y="-99.8" font-family="Times,serif" font-size="14.00">UserRepo</text>
</g>
<!-- UserRepo&#45;&gt;AccountModule -->
<g id="edge9" class="edge">
<title>UserRepo&#45;&gt;AccountModule</title>
<path fill="none" stroke="black" d="M74,-122.29C74,-144.21 74,-178 74,-178 74,-178 609.32,-178 609.32,-178"/>
<polygon fill="black" stroke="black" points="609.32,-181.5 619.32,-178 609.32,-174.5 609.32,-181.5"/>
</g>
</g>
</svg>
