<?xml version="1.0" encoding="UTF-8" standalone="no"?>
<!DOCTYPE svg PUBLIC "-//W3C//DTD SVG 1.1//EN"
 "http://www.w3.org/Graphics/SVG/1.1/DTD/svg11.dtd">
<!-- Generated by graphviz version 2.47.0 (20210316.0004)
 -->
<!-- Title: dependencies Pages: 1 -->
<svg width="1956pt" height="284pt"
 viewBox="0.00 0.00 1956.00 284.00" xmlns="http://www.w3.org/2000/svg" xmlns:xlink="http://www.w3.org/1999/xlink">
<g id="graph0" class="graph" transform="scale(1 1) rotate(0) translate(4 280)">
<title>dependencies</title>
<polygon fill="white" stroke="transparent" points="-4,4 -4,-280 1952,-280 1952,4 -4,4"/>
<text text-anchor="start" x="953.01" y="-42.4" font-family="Times-12" font-weight="bold" font-size="14.00">Legend</text>
<polygon fill="#ffffb3" stroke="transparent" points="740,-10 740,-30 760,-30 760,-10 740,-10"/>
<text text-anchor="start" x="763.63" y="-15.4" font-family="Times-12" font-size="14.00"> &#160;Declarations</text>
<polygon fill="#8dd3c7" stroke="transparent" points="853,-10 853,-30 873,-30 873,-10 853,-10"/>
<text text-anchor="start" x="876.73" y="-15.4" font-family="Times-12" font-size="14.00"> &#160;Module</text>
<polygon fill="#80b1d3" stroke="transparent" points="939,-10 939,-30 959,-30 959,-10 939,-10"/>
<text text-anchor="start" x="962.78" y="-15.4" font-family="Times-12" font-size="14.00"> &#160;Bootstrap</text>
<polygon fill="#fdb462" stroke="transparent" points="1036,-10 1036,-30 1056,-30 1056,-10 1036,-10"/>
<text text-anchor="start" x="1059.67" y="-15.4" font-family="Times-12" font-size="14.00"> &#160;Providers</text>
<polygon fill="#fb8072" stroke="transparent" points="1132,-10 1132,-30 1152,-30 1152,-10 1132,-10"/>
<text text-anchor="start" x="1155.73" y="-15.4" font-family="Times-12" font-size="14.00"> &#160;Exports</text>
<g id="clust1" class="cluster">
<title>cluster_AccountModule</title>
<polygon fill="none" stroke="black" stroke-dasharray="1,5" points="8,-70 8,-268 1940,-268 1940,-70 8,-70"/>
</g>
<g id="clust4" class="cluster">
<title>cluster_AccountModule_exports</title>
<polygon fill="none" stroke="black" points="725,-208 725,-260 1035,-260 1035,-208 725,-208"/>
</g>
<g id="clust6" class="cluster">
<title>cluster_AccountModule_providers</title>
<polygon fill="none" stroke="black" points="334,-78 334,-130 1932,-130 1932,-78 334,-78"/>
</g>
<g id="clust3" class="cluster">
<title>cluster_AccountModule_imports</title>
<polygon fill="none" stroke="black" points="16,-78 16,-130 326,-130 326,-78 16,-78"/>
</g>
<!-- IdentityManagementModule -->
<g id="node1" class="node">
<title>IdentityManagementModule</title>
<polygon fill="#8dd3c7" stroke="black" points="318.18,-122 315.18,-126 294.18,-126 291.18,-122 141.82,-122 141.82,-86 318.18,-86 318.18,-122"/>
<text text-anchor="middle" x="230" y="-99.8" font-family="Times,serif" font-size="14.00">IdentityManagementModule</text>
</g>
<!-- AccountModule -->
<g id="node3" class="node">
<title>AccountModule</title>
<polygon fill="#8dd3c7" stroke="black" points="948.48,-187 945.48,-191 924.48,-191 921.48,-187 841.52,-187 841.52,-151 948.48,-151 948.48,-187"/>
<text text-anchor="middle" x="895" y="-164.8" font-family="Times,serif" font-size="14.00">AccountModule</text>
</g>
<!-- IdentityManagementModule&#45;&gt;AccountModule -->
<g id="edge1" class="edge">
<title>IdentityManagementModule&#45;&gt;AccountModule</title>
<path fill="none" stroke="black" d="M230,-122.28C230,-143.32 230,-175 230,-175 230,-175 831.42,-175 831.42,-175"/>
<polygon fill="black" stroke="black" points="831.42,-178.5 841.42,-175 831.42,-171.5 831.42,-178.5"/>
</g>
<!-- LoggerModule -->
<g id="node2" class="node">
<title>LoggerModule</title>
<polygon fill="#8dd3c7" stroke="black" points="123.98,-122 120.98,-126 99.98,-126 96.98,-122 24.02,-122 24.02,-86 123.98,-86 123.98,-122"/>
<text text-anchor="middle" x="74" y="-99.8" font-family="Times,serif" font-size="14.00">LoggerModule</text>
</g>
<!-- LoggerModule&#45;&gt;AccountModule -->
<g id="edge2" class="edge">
<title>LoggerModule&#45;&gt;AccountModule</title>
<path fill="none" stroke="black" d="M74,-122.25C74,-145.02 74,-181 74,-181 74,-181 831.45,-181 831.45,-181"/>
<polygon fill="black" stroke="black" points="831.45,-184.5 841.45,-181 831.45,-177.5 831.45,-184.5"/>
</g>
<!-- AccountService  -->
<g id="node4" class="node">
<title>AccountService </title>
<polygon fill="#fb8072" stroke="black" points="1027.4,-252 918.6,-252 918.6,-216 1027.4,-216 1027.4,-252"/>
<text text-anchor="middle" x="973" y="-229.8" font-family="Times,serif" font-size="14.00">AccountService </text>
</g>
<!-- AccountModule&#45;&gt;AccountService  -->
<g id="edge3" class="edge">
<title>AccountModule&#45;&gt;AccountService </title>
<path fill="none" stroke="black" stroke-dasharray="5,2" d="M933.52,-187.11C933.52,-187.11 933.52,-205.99 933.52,-205.99"/>
<polygon fill="black" stroke="black" points="930.02,-205.99 933.52,-215.99 937.02,-205.99 930.02,-205.99"/>
</g>
<!-- AccountValidationService  -->
<g id="node5" class="node">
<title>AccountValidationService </title>
<polygon fill="#fb8072" stroke="black" points="901,-252 733,-252 733,-216 901,-216 901,-252"/>
<text text-anchor="middle" x="817" y="-229.8" font-family="Times,serif" font-size="14.00">AccountValidationService </text>
</g>
<!-- AccountModule&#45;&gt;AccountValidationService  -->
<g id="edge4" class="edge">
<title>AccountModule&#45;&gt;AccountValidationService </title>
<path fill="none" stroke="black" stroke-dasharray="5,2" d="M871.26,-187.11C871.26,-187.11 871.26,-205.99 871.26,-205.99"/>
<polygon fill="black" stroke="black" points="867.76,-205.99 871.26,-215.99 874.76,-205.99 867.76,-205.99"/>
</g>
<!-- AccountLookupService -->
<g id="node6" class="node">
<title>AccountLookupService</title>
<ellipse fill="#fdb462" stroke="black" cx="1821" cy="-104" rx="103" ry="18"/>
<text text-anchor="middle" x="1821" y="-99.8" font-family="Times,serif" font-size="14.00">AccountLookupService</text>
</g>
<!-- AccountLookupService&#45;&gt;AccountModule -->
<g id="edge5" class="edge">
<title>AccountLookupService&#45;&gt;AccountModule</title>
<path fill="none" stroke="black" d="M1821,-122.25C1821,-145.02 1821,-181 1821,-181 1821,-181 958.79,-181 958.79,-181"/>
<polygon fill="black" stroke="black" points="958.79,-177.5 948.79,-181 958.79,-184.5 958.79,-177.5"/>
</g>
<!-- AccountRepo -->
<g id="node7" class="node">
<title>AccountRepo</title>
<ellipse fill="#fdb462" stroke="black" cx="1636" cy="-104" rx="64.27" ry="18"/>
<text text-anchor="middle" x="1636" y="-99.8" font-family="Times,serif" font-size="14.00">AccountRepo</text>
</g>
<!-- AccountRepo&#45;&gt;AccountModule -->
<g id="edge6" class="edge">
<title>AccountRepo&#45;&gt;AccountModule</title>
<path fill="none" stroke="black" d="M1636,-122.28C1636,-143.32 1636,-175 1636,-175 1636,-175 958.59,-175 958.59,-175"/>
<polygon fill="black" stroke="black" points="958.59,-171.5 948.59,-175 958.59,-178.5 958.59,-171.5"/>
</g>
<!-- AccountService -->
<g id="node8" class="node">
<title>AccountService</title>
<ellipse fill="#fdb462" stroke="black" cx="1481" cy="-104" rx="72.91" ry="18"/>
<text text-anchor="middle" x="1481" y="-99.8" font-family="Times,serif" font-size="14.00">AccountService</text>
</g>
<!-- AccountService&#45;&gt;AccountModule -->
<g id="edge7" class="edge">
<title>AccountService&#45;&gt;AccountModule</title>
<path fill="none" stroke="black" d="M1481,-122.11C1481,-141.34 1481,-169 1481,-169 1481,-169 958.56,-169 958.56,-169"/>
<polygon fill="black" stroke="black" points="958.56,-165.5 948.56,-169 958.56,-172.5 958.56,-165.5"/>
</g>
<!-- AccountServiceDb -->
<g id="node9" class="node">
<title>AccountServiceDb</title>
<ellipse fill="#fdb462" stroke="black" cx="1306" cy="-104" rx="84.51" ry="18"/>
<text text-anchor="middle" x="1306" y="-99.8" font-family="Times,serif" font-size="14.00">AccountServiceDb</text>
</g>
<!-- AccountServiceDb&#45;&gt;AccountModule -->
<g id="edge8" class="edge">
<title>AccountServiceDb&#45;&gt;AccountModule</title>
<path fill="none" stroke="black" d="M1306,-122.02C1306,-139.37 1306,-163 1306,-163 1306,-163 958.73,-163 958.73,-163"/>
<polygon fill="black" stroke="black" points="958.73,-159.5 948.73,-163 958.73,-166.5 958.73,-159.5"/>
</g>
<!-- AccountServiceIdm -->
<g id="node10" class="node">
<title>AccountServiceIdm</title>
<ellipse fill="#fdb462" stroke="black" cx="1115" cy="-104" rx="88.02" ry="18"/>
<text text-anchor="middle" x="1115" y="-99.8" font-family="Times,serif" font-size="14.00">AccountServiceIdm</text>
</g>
<!-- AccountServiceIdm&#45;&gt;AccountModule -->
<g id="edge9" class="edge">
<title>AccountServiceIdm&#45;&gt;AccountModule</title>
<path fill="none" stroke="black" d="M1115.36,-122.24C1115.36,-137.57 1115.36,-157 1115.36,-157 1115.36,-157 958.62,-157 958.62,-157"/>
<polygon fill="black" stroke="black" points="958.62,-153.5 948.62,-157 958.62,-160.5 958.62,-153.5"/>
</g>
<!-- AccountValidationService -->
<g id="node11" class="node">
<title>AccountValidationService</title>
<ellipse fill="#fdb462" stroke="black" cx="895" cy="-104" rx="113.44" ry="18"/>
<text text-anchor="middle" x="895" y="-99.8" font-family="Times,serif" font-size="14.00">AccountValidationService</text>
</g>
<!-- AccountValidationService&#45;&gt;AccountModule -->
<g id="edge10" class="edge">
<title>AccountValidationService&#45;&gt;AccountModule</title>
<path fill="none" stroke="black" d="M895,-122.11C895,-122.11 895,-140.99 895,-140.99"/>
<polygon fill="black" stroke="black" points="891.5,-140.99 895,-150.99 898.5,-140.99 891.5,-140.99"/>
</g>
<!-- PermissionService -->
<g id="node12" class="node">
<title>PermissionService</title>
<ellipse fill="#fdb462" stroke="black" cx="681" cy="-104" rx="82.82" ry="18"/>
<text text-anchor="middle" x="681" y="-99.8" font-family="Times,serif" font-size="14.00">PermissionService</text>
</g>
<!-- PermissionService&#45;&gt;AccountModule -->
<g id="edge11" class="edge">
<title>PermissionService&#45;&gt;AccountModule</title>
<path fill="none" stroke="black" d="M748.45,-114.47C748.45,-129.92 748.45,-157 748.45,-157 748.45,-157 831.26,-157 831.26,-157"/>
<polygon fill="black" stroke="black" points="831.26,-160.5 841.26,-157 831.26,-153.5 831.26,-160.5"/>
</g>
<!-- SystemRepo -->
<g id="node13" class="node">
<title>SystemRepo</title>
<ellipse fill="#fdb462" stroke="black" cx="520" cy="-104" rx="59.71" ry="18"/>
<text text-anchor="middle" x="520" y="-99.8" font-family="Times,serif" font-size="14.00">SystemRepo</text>
</g>
<!-- SystemRepo&#45;&gt;AccountModule -->
<g id="edge12" class="edge">
<title>SystemRepo&#45;&gt;AccountModule</title>
<path fill="none" stroke="black" d="M520,-122.02C520,-139.37 520,-163 520,-163 520,-163 831.27,-163 831.27,-163"/>
<polygon fill="black" stroke="black" points="831.27,-166.5 841.27,-163 831.27,-159.5 831.27,-166.5"/>
</g>
<!-- UserRepo -->
<g id="node14" class="node">
<title>UserRepo</title>
<ellipse fill="#fdb462" stroke="black" cx="392" cy="-104" rx="49.8" ry="18"/>
<text text-anchor="middle" x="392" y="-99.8" font-family="Times,serif" font-size="14.00">UserRepo</text>
</g>
<!-- UserRepo&#45;&gt;AccountModule -->
<g id="edge13" class="edge">
<title>UserRepo&#45;&gt;AccountModule</title>
<path fill="none" stroke="black" d="M392,-122.11C392,-141.34 392,-169 392,-169 392,-169 831.17,-169 831.17,-169"/>
<polygon fill="black" stroke="black" points="831.17,-172.5 841.17,-169 831.17,-165.5 831.17,-172.5"/>
</g>
</g>
</svg>
