<?xml version="1.0" encoding="UTF-8" standalone="no"?>
<!DOCTYPE svg PUBLIC "-//W3C//DTD SVG 1.1//EN"
 "http://www.w3.org/Graphics/SVG/1.1/DTD/svg11.dtd">
<!-- Generated by graphviz version 2.47.0 (20210316.0004)
 -->
<!-- Title: dependencies Pages: 1 -->
<svg width="2013pt" height="284pt"
 viewBox="0.00 0.00 2013.00 284.00" xmlns="http://www.w3.org/2000/svg" xmlns:xlink="http://www.w3.org/1999/xlink">
<g id="graph0" class="graph" transform="scale(1 1) rotate(0) translate(4 280)">
<title>dependencies</title>
<polygon fill="white" stroke="transparent" points="-4,4 -4,-280 2009,-280 2009,4 -4,4"/>
<text text-anchor="start" x="981.51" y="-42.4" font-family="Times-12" font-weight="bold" font-size="14.00">Legend</text>
<polygon fill="#ffffb3" stroke="transparent" points="768.5,-10 768.5,-30 788.5,-30 788.5,-10 768.5,-10"/>
<text text-anchor="start" x="792.13" y="-15.4" font-family="Times-12" font-size="14.00"> &#160;Declarations</text>
<polygon fill="#8dd3c7" stroke="transparent" points="881.5,-10 881.5,-30 901.5,-30 901.5,-10 881.5,-10"/>
<text text-anchor="start" x="905.23" y="-15.4" font-family="Times-12" font-size="14.00"> &#160;Module</text>
<polygon fill="#80b1d3" stroke="transparent" points="967.5,-10 967.5,-30 987.5,-30 987.5,-10 967.5,-10"/>
<text text-anchor="start" x="991.28" y="-15.4" font-family="Times-12" font-size="14.00"> &#160;Bootstrap</text>
<polygon fill="#fdb462" stroke="transparent" points="1064.5,-10 1064.5,-30 1084.5,-30 1084.5,-10 1064.5,-10"/>
<text text-anchor="start" x="1088.17" y="-15.4" font-family="Times-12" font-size="14.00"> &#160;Providers</text>
<polygon fill="#fb8072" stroke="transparent" points="1160.5,-10 1160.5,-30 1180.5,-30 1180.5,-10 1160.5,-10"/>
<text text-anchor="start" x="1184.23" y="-15.4" font-family="Times-12" font-size="14.00"> &#160;Exports</text>
<g id="clust1" class="cluster">
<title>cluster_AccountModule</title>
<polygon fill="none" stroke="black" stroke-dasharray="1,5" points="8,-70 8,-268 1997,-268 1997,-70 8,-70"/>
</g>
<g id="clust3" class="cluster">
<title>cluster_AccountModule_imports</title>
<polygon fill="none" stroke="black" points="1679,-78 1679,-130 1989,-130 1989,-78 1679,-78"/>
</g>
<g id="clust6" class="cluster">
<title>cluster_AccountModule_providers</title>
<polygon fill="none" stroke="black" points="16,-78 16,-130 1671,-130 1671,-78 16,-78"/>
</g>
<g id="clust4" class="cluster">
<title>cluster_AccountModule_exports</title>
<polygon fill="none" stroke="black" points="875,-208 875,-260 1185,-260 1185,-208 875,-208"/>
</g>
<!-- IdentityManagementModule -->
<g id="node1" class="node">
<title>IdentityManagementModule</title>
<polygon fill="#8dd3c7" stroke="black" points="1981.18,-122 1978.18,-126 1957.18,-126 1954.18,-122 1804.82,-122 1804.82,-86 1981.18,-86 1981.18,-122"/>
<text text-anchor="middle" x="1893" y="-99.8" font-family="Times,serif" font-size="14.00">IdentityManagementModule</text>
</g>
<!-- AccountModule -->
<g id="node3" class="node">
<title>AccountModule</title>
<polygon fill="#8dd3c7" stroke="black" points="1098.48,-187 1095.48,-191 1074.48,-191 1071.48,-187 991.52,-187 991.52,-151 1098.48,-151 1098.48,-187"/>
<text text-anchor="middle" x="1045" y="-164.8" font-family="Times,serif" font-size="14.00">AccountModule</text>
</g>
<!-- IdentityManagementModule&#45;&gt;AccountModule -->
<g id="edge1" class="edge">
<title>IdentityManagementModule&#45;&gt;AccountModule</title>
<path fill="none" stroke="black" d="M1893,-122.25C1893,-145.02 1893,-181 1893,-181 1893,-181 1108.69,-181 1108.69,-181"/>
<polygon fill="black" stroke="black" points="1108.69,-177.5 1098.69,-181 1108.69,-184.5 1108.69,-177.5"/>
</g>
<!-- LoggerModule -->
<g id="node2" class="node">
<title>LoggerModule</title>
<polygon fill="#8dd3c7" stroke="black" points="1786.98,-122 1783.98,-126 1762.98,-126 1759.98,-122 1687.02,-122 1687.02,-86 1786.98,-86 1786.98,-122"/>
<text text-anchor="middle" x="1737" y="-99.8" font-family="Times,serif" font-size="14.00">LoggerModule</text>
</g>
<!-- LoggerModule&#45;&gt;AccountModule -->
<g id="edge2" class="edge">
<title>LoggerModule&#45;&gt;AccountModule</title>
<path fill="none" stroke="black" d="M1737,-122.28C1737,-143.32 1737,-175 1737,-175 1737,-175 1108.72,-175 1108.72,-175"/>
<polygon fill="black" stroke="black" points="1108.72,-171.5 1098.72,-175 1108.72,-178.5 1108.72,-171.5"/>
</g>
<!-- AccountService  -->
<g id="node4" class="node">
<title>AccountService </title>
<polygon fill="#fb8072" stroke="black" points="1177.4,-252 1068.6,-252 1068.6,-216 1177.4,-216 1177.4,-252"/>
<text text-anchor="middle" x="1123" y="-229.8" font-family="Times,serif" font-size="14.00">AccountService </text>
</g>
<!-- AccountModule&#45;&gt;AccountService  -->
<g id="edge3" class="edge">
<title>AccountModule&#45;&gt;AccountService </title>
<path fill="none" stroke="black" stroke-dasharray="5,2" d="M1083.52,-187.11C1083.52,-187.11 1083.52,-205.99 1083.52,-205.99"/>
<polygon fill="black" stroke="black" points="1080.02,-205.99 1083.52,-215.99 1087.02,-205.99 1080.02,-205.99"/>
</g>
<!-- AccountValidationService  -->
<g id="node5" class="node">
<title>AccountValidationService </title>
<polygon fill="#fb8072" stroke="black" points="1051,-252 883,-252 883,-216 1051,-216 1051,-252"/>
<text text-anchor="middle" x="967" y="-229.8" font-family="Times,serif" font-size="14.00">AccountValidationService </text>
</g>
<!-- AccountModule&#45;&gt;AccountValidationService  -->
<g id="edge4" class="edge">
<title>AccountModule&#45;&gt;AccountValidationService </title>
<path fill="none" stroke="black" stroke-dasharray="5,2" d="M1021.26,-187.11C1021.26,-187.11 1021.26,-205.99 1021.26,-205.99"/>
<polygon fill="black" stroke="black" points="1017.76,-205.99 1021.26,-215.99 1024.76,-205.99 1017.76,-205.99"/>
</g>
<!-- AccountLookupService -->
<g id="node6" class="node">
<title>AccountLookupService</title>
<ellipse fill="#fdb462" stroke="black" cx="1560" cy="-104" rx="103" ry="18"/>
<text text-anchor="middle" x="1560" y="-99.8" font-family="Times,serif" font-size="14.00">AccountLookupService</text>
</g>
<!-- AccountLookupService&#45;&gt;AccountModule -->
<g id="edge5" class="edge">
<title>AccountLookupService&#45;&gt;AccountModule</title>
<path fill="none" stroke="black" d="M1560,-122.11C1560,-141.34 1560,-169 1560,-169 1560,-169 1108.66,-169 1108.66,-169"/>
<polygon fill="black" stroke="black" points="1108.66,-165.5 1098.66,-169 1108.66,-172.5 1108.66,-165.5"/>
</g>
<!-- AccountRepo -->
<g id="node7" class="node">
<title>AccountRepo</title>
<ellipse fill="#fdb462" stroke="black" cx="1375" cy="-104" rx="64.27" ry="18"/>
<text text-anchor="middle" x="1375" y="-99.8" font-family="Times,serif" font-size="14.00">AccountRepo</text>
</g>
<!-- AccountRepo&#45;&gt;AccountModule -->
<g id="edge6" class="edge">
<title>AccountRepo&#45;&gt;AccountModule</title>
<path fill="none" stroke="black" d="M1375,-122.02C1375,-139.37 1375,-163 1375,-163 1375,-163 1108.75,-163 1108.75,-163"/>
<polygon fill="black" stroke="black" points="1108.75,-159.5 1098.75,-163 1108.75,-166.5 1108.75,-159.5"/>
</g>
<!-- AccountService -->
<g id="node8" class="node">
<title>AccountService</title>
<ellipse fill="#fdb462" stroke="black" cx="1220" cy="-104" rx="72.91" ry="18"/>
<text text-anchor="middle" x="1220" y="-99.8" font-family="Times,serif" font-size="14.00">AccountService</text>
</g>
<!-- AccountService&#45;&gt;AccountModule -->
<g id="edge7" class="edge">
<title>AccountService&#45;&gt;AccountModule</title>
<path fill="none" stroke="black" d="M1162.37,-114.98C1162.37,-130.51 1162.37,-157 1162.37,-157 1162.37,-157 1108.53,-157 1108.53,-157"/>
<polygon fill="black" stroke="black" points="1108.53,-153.5 1098.53,-157 1108.53,-160.5 1108.53,-153.5"/>
</g>
<!-- AccountServiceDb -->
<g id="node9" class="node">
<title>AccountServiceDb</title>
<ellipse fill="#fdb462" stroke="black" cx="1045" cy="-104" rx="84.51" ry="18"/>
<text text-anchor="middle" x="1045" y="-99.8" font-family="Times,serif" font-size="14.00">AccountServiceDb</text>
</g>
<!-- AccountServiceDb&#45;&gt;AccountModule -->
<g id="edge8" class="edge">
<title>AccountServiceDb&#45;&gt;AccountModule</title>
<path fill="none" stroke="black" d="M1045,-122.11C1045,-122.11 1045,-140.99 1045,-140.99"/>
<polygon fill="black" stroke="black" points="1041.5,-140.99 1045,-150.99 1048.5,-140.99 1041.5,-140.99"/>
</g>
<!-- AccountServiceIdm -->
<g id="node10" class="node">
<title>AccountServiceIdm</title>
<ellipse fill="#fdb462" stroke="black" cx="854" cy="-104" rx="88.02" ry="18"/>
<text text-anchor="middle" x="854" y="-99.8" font-family="Times,serif" font-size="14.00">AccountServiceIdm</text>
</g>
<!-- AccountServiceIdm&#45;&gt;AccountModule -->
<g id="edge9" class="edge">
<title>AccountServiceIdm&#45;&gt;AccountModule</title>
<path fill="none" stroke="black" d="M912.63,-117.65C912.63,-133.35 912.63,-157 912.63,-157 912.63,-157 981.16,-157 981.16,-157"/>
<polygon fill="black" stroke="black" points="981.16,-160.5 991.16,-157 981.16,-153.5 981.16,-160.5"/>
</g>
<!-- AccountValidationService -->
<g id="node11" class="node">
<title>AccountValidationService</title>
<ellipse fill="#fdb462" stroke="black" cx="634" cy="-104" rx="113.44" ry="18"/>
<text text-anchor="middle" x="634" y="-99.8" font-family="Times,serif" font-size="14.00">AccountValidationService</text>
</g>
<!-- AccountValidationService&#45;&gt;AccountModule -->
<g id="edge10" class="edge">
<title>AccountValidationService&#45;&gt;AccountModule</title>
<path fill="none" stroke="black" d="M634,-122.02C634,-139.37 634,-163 634,-163 634,-163 981.27,-163 981.27,-163"/>
<polygon fill="black" stroke="black" points="981.27,-166.5 991.27,-163 981.27,-159.5 981.27,-166.5"/>
</g>
<!-- LegacySystemRepo -->
<g id="node12" class="node">
<title>LegacySystemRepo</title>
<ellipse fill="#fdb462" stroke="black" cx="414" cy="-104" rx="88.04" ry="18"/>
<text text-anchor="middle" x="414" y="-99.8" font-family="Times,serif" font-size="14.00">LegacySystemRepo</text>
</g>
<!-- LegacySystemRepo&#45;&gt;AccountModule -->
<g id="edge11" class="edge">
<title>LegacySystemRepo&#45;&gt;AccountModule</title>
<path fill="none" stroke="black" d="M414,-122.11C414,-141.34 414,-169 414,-169 414,-169 981.47,-169 981.47,-169"/>
<polygon fill="black" stroke="black" points="981.47,-172.5 991.47,-169 981.47,-165.5 981.47,-172.5"/>
</g>
<!-- PermissionService -->
<g id="node13" class="node">
<title>PermissionService</title>
<ellipse fill="#fdb462" stroke="black" cx="225" cy="-104" rx="82.82" ry="18"/>
<text text-anchor="middle" x="225" y="-99.8" font-family="Times,serif" font-size="14.00">PermissionService</text>
</g>
<!-- PermissionService&#45;&gt;AccountModule -->
<g id="edge12" class="edge">
<title>PermissionService&#45;&gt;AccountModule</title>
<path fill="none" stroke="black" d="M225,-122.28C225,-143.32 225,-175 225,-175 225,-175 981.51,-175 981.51,-175"/>
<polygon fill="black" stroke="black" points="981.51,-178.5 991.51,-175 981.51,-171.5 981.51,-178.5"/>
</g>
<!-- UserRepo -->
<g id="node14" class="node">
<title>UserRepo</title>
<ellipse fill="#fdb462" stroke="black" cx="74" cy="-104" rx="49.8" ry="18"/>
<text text-anchor="middle" x="74" y="-99.8" font-family="Times,serif" font-size="14.00">UserRepo</text>
</g>
<!-- UserRepo&#45;&gt;AccountModule -->
<g id="edge13" class="edge">
<title>UserRepo&#45;&gt;AccountModule</title>
<path fill="none" stroke="black" d="M74,-122.25C74,-145.02 74,-181 74,-181 74,-181 981.41,-181 981.41,-181"/>
<polygon fill="black" stroke="black" points="981.41,-184.5 991.41,-181 981.41,-177.5 981.41,-184.5"/>
</g>
</g>
</svg>
