<?xml version="1.0" encoding="UTF-8" standalone="no"?>
<!DOCTYPE svg PUBLIC "-//W3C//DTD SVG 1.1//EN"
 "http://www.w3.org/Graphics/SVG/1.1/DTD/svg11.dtd">
<!-- Generated by graphviz version 2.47.0 (20210316.0004)
 -->
<!-- Title: dependencies Pages: 1 -->
<svg width="2013pt" height="284pt"
 viewBox="0.00 0.00 2013.00 284.00" xmlns="http://www.w3.org/2000/svg" xmlns:xlink="http://www.w3.org/1999/xlink">
<g id="graph0" class="graph" transform="scale(1 1) rotate(0) translate(4 280)">
<title>dependencies</title>
<polygon fill="white" stroke="transparent" points="-4,4 -4,-280 2009,-280 2009,4 -4,4"/>
<text text-anchor="start" x="981.51" y="-42.4" font-family="Times-12" font-weight="bold" font-size="14.00">Legend</text>
<polygon fill="#ffffb3" stroke="transparent" points="768.5,-10 768.5,-30 788.5,-30 788.5,-10 768.5,-10"/>
<text text-anchor="start" x="792.13" y="-15.4" font-family="Times-12" font-size="14.00"> &#160;Declarations</text>
<polygon fill="#8dd3c7" stroke="transparent" points="881.5,-10 881.5,-30 901.5,-30 901.5,-10 881.5,-10"/>
<text text-anchor="start" x="905.23" y="-15.4" font-family="Times-12" font-size="14.00"> &#160;Module</text>
<polygon fill="#80b1d3" stroke="transparent" points="967.5,-10 967.5,-30 987.5,-30 987.5,-10 967.5,-10"/>
<text text-anchor="start" x="991.28" y="-15.4" font-family="Times-12" font-size="14.00"> &#160;Bootstrap</text>
<polygon fill="#fdb462" stroke="transparent" points="1064.5,-10 1064.5,-30 1084.5,-30 1084.5,-10 1064.5,-10"/>
<text text-anchor="start" x="1088.17" y="-15.4" font-family="Times-12" font-size="14.00"> &#160;Providers</text>
<polygon fill="#fb8072" stroke="transparent" points="1160.5,-10 1160.5,-30 1180.5,-30 1180.5,-10 1160.5,-10"/>
<text text-anchor="start" x="1184.23" y="-15.4" font-family="Times-12" font-size="14.00"> &#160;Exports</text>
<g id="clust1" class="cluster">
<title>cluster_AccountModule</title>
<polygon fill="none" stroke="black" stroke-dasharray="1,5" points="8,-70 8,-268 1997,-268 1997,-70 8,-70"/>
</g>
<g id="clust6" class="cluster">
<title>cluster_AccountModule_providers</title>
<polygon fill="none" stroke="black" points="334,-78 334,-130 1989,-130 1989,-78 334,-78"/>
</g>
<g id="clust4" class="cluster">
<title>cluster_AccountModule_exports</title>
<polygon fill="none" stroke="black" points="782,-208 782,-260 1092,-260 1092,-208 782,-208"/>
</g>
<g id="clust3" class="cluster">
<title>cluster_AccountModule_imports</title>
<polygon fill="none" stroke="black" points="16,-78 16,-130 326,-130 326,-78 16,-78"/>
</g>
<!-- IdentityManagementModule -->
<g id="node1" class="node">
<title>IdentityManagementModule</title>
<polygon fill="#8dd3c7" stroke="black" points="318.18,-122 315.18,-126 294.18,-126 291.18,-122 141.82,-122 141.82,-86 318.18,-86 318.18,-122"/>
<text text-anchor="middle" x="230" y="-99.8" font-family="Times,serif" font-size="14.00">IdentityManagementModule</text>
</g>
<!-- AccountModule -->
<g id="node3" class="node">
<title>AccountModule</title>
<polygon fill="#8dd3c7" stroke="black" points="1005.48,-187 1002.48,-191 981.48,-191 978.48,-187 898.52,-187 898.52,-151 1005.48,-151 1005.48,-187"/>
<text text-anchor="middle" x="952" y="-164.8" font-family="Times,serif" font-size="14.00">AccountModule</text>
</g>
<!-- IdentityManagementModule&#45;&gt;AccountModule -->
<g id="edge1" class="edge">
<title>IdentityManagementModule&#45;&gt;AccountModule</title>
<path fill="none" stroke="black" d="M230,-122.28C230,-143.32 230,-175 230,-175 230,-175 888.32,-175 888.32,-175"/>
<polygon fill="black" stroke="black" points="888.32,-178.5 898.32,-175 888.32,-171.5 888.32,-178.5"/>
</g>
<!-- LoggerModule -->
<g id="node2" class="node">
<title>LoggerModule</title>
<polygon fill="#8dd3c7" stroke="black" points="123.98,-122 120.98,-126 99.98,-126 96.98,-122 24.02,-122 24.02,-86 123.98,-86 123.98,-122"/>
<text text-anchor="middle" x="74" y="-99.8" font-family="Times,serif" font-size="14.00">LoggerModule</text>
</g>
<!-- LoggerModule&#45;&gt;AccountModule -->
<g id="edge2" class="edge">
<title>LoggerModule&#45;&gt;AccountModule</title>
<path fill="none" stroke="black" d="M74,-122.25C74,-145.02 74,-181 74,-181 74,-181 888.4,-181 888.4,-181"/>
<polygon fill="black" stroke="black" points="888.4,-184.5 898.4,-181 888.4,-177.5 888.4,-184.5"/>
</g>
<!-- AccountService  -->
<g id="node4" class="node">
<title>AccountService </title>
<polygon fill="#fb8072" stroke="black" points="1084.4,-252 975.6,-252 975.6,-216 1084.4,-216 1084.4,-252"/>
<text text-anchor="middle" x="1030" y="-229.8" font-family="Times,serif" font-size="14.00">AccountService </text>
</g>
<!-- AccountModule&#45;&gt;AccountService  -->
<g id="edge3" class="edge">
<title>AccountModule&#45;&gt;AccountService </title>
<path fill="none" stroke="black" stroke-dasharray="5,2" d="M990.52,-187.11C990.52,-187.11 990.52,-205.99 990.52,-205.99"/>
<polygon fill="black" stroke="black" points="987.02,-205.99 990.52,-215.99 994.02,-205.99 987.02,-205.99"/>
</g>
<!-- AccountValidationService  -->
<g id="node5" class="node">
<title>AccountValidationService </title>
<polygon fill="#fb8072" stroke="black" points="958,-252 790,-252 790,-216 958,-216 958,-252"/>
<text text-anchor="middle" x="874" y="-229.8" font-family="Times,serif" font-size="14.00">AccountValidationService </text>
</g>
<!-- AccountModule&#45;&gt;AccountValidationService  -->
<g id="edge4" class="edge">
<title>AccountModule&#45;&gt;AccountValidationService </title>
<path fill="none" stroke="black" stroke-dasharray="5,2" d="M928.26,-187.11C928.26,-187.11 928.26,-205.99 928.26,-205.99"/>
<polygon fill="black" stroke="black" points="924.76,-205.99 928.26,-215.99 931.76,-205.99 924.76,-205.99"/>
</g>
<!-- AccountLookupService -->
<g id="node6" class="node">
<title>AccountLookupService</title>
<ellipse fill="#fdb462" stroke="black" cx="1878" cy="-104" rx="103" ry="18"/>
<text text-anchor="middle" x="1878" y="-99.8" font-family="Times,serif" font-size="14.00">AccountLookupService</text>
</g>
<!-- AccountLookupService&#45;&gt;AccountModule -->
<g id="edge5" class="edge">
<title>AccountLookupService&#45;&gt;AccountModule</title>
<path fill="none" stroke="black" d="M1878,-122.25C1878,-145.02 1878,-181 1878,-181 1878,-181 1015.79,-181 1015.79,-181"/>
<polygon fill="black" stroke="black" points="1015.79,-177.5 1005.79,-181 1015.79,-184.5 1015.79,-177.5"/>
</g>
<!-- AccountRepo -->
<g id="node7" class="node">
<title>AccountRepo</title>
<ellipse fill="#fdb462" stroke="black" cx="1693" cy="-104" rx="64.27" ry="18"/>
<text text-anchor="middle" x="1693" y="-99.8" font-family="Times,serif" font-size="14.00">AccountRepo</text>
</g>
<!-- AccountRepo&#45;&gt;AccountModule -->
<g id="edge6" class="edge">
<title>AccountRepo&#45;&gt;AccountModule</title>
<path fill="none" stroke="black" d="M1693,-122.28C1693,-143.32 1693,-175 1693,-175 1693,-175 1015.59,-175 1015.59,-175"/>
<polygon fill="black" stroke="black" points="1015.59,-171.5 1005.59,-175 1015.59,-178.5 1015.59,-171.5"/>
</g>
<!-- AccountService -->
<g id="node8" class="node">
<title>AccountService</title>
<ellipse fill="#fdb462" stroke="black" cx="1538" cy="-104" rx="72.91" ry="18"/>
<text text-anchor="middle" x="1538" y="-99.8" font-family="Times,serif" font-size="14.00">AccountService</text>
</g>
<!-- AccountService&#45;&gt;AccountModule -->
<g id="edge7" class="edge">
<title>AccountService&#45;&gt;AccountModule</title>
<path fill="none" stroke="black" d="M1538,-122.11C1538,-141.34 1538,-169 1538,-169 1538,-169 1015.56,-169 1015.56,-169"/>
<polygon fill="black" stroke="black" points="1015.56,-165.5 1005.56,-169 1015.56,-172.5 1015.56,-165.5"/>
</g>
<!-- AccountServiceDb -->
<g id="node9" class="node">
<title>AccountServiceDb</title>
<ellipse fill="#fdb462" stroke="black" cx="1363" cy="-104" rx="84.51" ry="18"/>
<text text-anchor="middle" x="1363" y="-99.8" font-family="Times,serif" font-size="14.00">AccountServiceDb</text>
</g>
<!-- AccountServiceDb&#45;&gt;AccountModule -->
<g id="edge8" class="edge">
<title>AccountServiceDb&#45;&gt;AccountModule</title>
<path fill="none" stroke="black" d="M1363,-122.02C1363,-139.37 1363,-163 1363,-163 1363,-163 1015.73,-163 1015.73,-163"/>
<polygon fill="black" stroke="black" points="1015.73,-159.5 1005.73,-163 1015.73,-166.5 1015.73,-159.5"/>
</g>
<!-- AccountServiceIdm -->
<g id="node10" class="node">
<title>AccountServiceIdm</title>
<ellipse fill="#fdb462" stroke="black" cx="1172" cy="-104" rx="88.02" ry="18"/>
<text text-anchor="middle" x="1172" y="-99.8" font-family="Times,serif" font-size="14.00">AccountServiceIdm</text>
</g>
<!-- AccountServiceIdm&#45;&gt;AccountModule -->
<g id="edge9" class="edge">
<title>AccountServiceIdm&#45;&gt;AccountModule</title>
<path fill="none" stroke="black" d="M1172.36,-122.24C1172.36,-137.57 1172.36,-157 1172.36,-157 1172.36,-157 1015.62,-157 1015.62,-157"/>
<polygon fill="black" stroke="black" points="1015.62,-153.5 1005.62,-157 1015.62,-160.5 1015.62,-153.5"/>
</g>
<!-- AccountValidationService -->
<g id="node11" class="node">
<title>AccountValidationService</title>
<ellipse fill="#fdb462" stroke="black" cx="952" cy="-104" rx="113.44" ry="18"/>
<text text-anchor="middle" x="952" y="-99.8" font-family="Times,serif" font-size="14.00">AccountValidationService</text>
</g>
<!-- AccountValidationService&#45;&gt;AccountModule -->
<g id="edge10" class="edge">
<title>AccountValidationService&#45;&gt;AccountModule</title>
<path fill="none" stroke="black" d="M952,-122.11C952,-122.11 952,-140.99 952,-140.99"/>
<polygon fill="black" stroke="black" points="948.5,-140.99 952,-150.99 955.5,-140.99 948.5,-140.99"/>
</g>
<!-- LegacySystemRepo -->
<g id="node12" class="node">
<title>LegacySystemRepo</title>
<ellipse fill="#fdb462" stroke="black" cx="732" cy="-104" rx="88.04" ry="18"/>
<text text-anchor="middle" x="732" y="-99.8" font-family="Times,serif" font-size="14.00">LegacySystemRepo</text>
</g>
<!-- LegacySystemRepo&#45;&gt;AccountModule -->
<g id="edge11" class="edge">
<title>LegacySystemRepo&#45;&gt;AccountModule</title>
<path fill="none" stroke="black" d="M805.14,-114.22C805.14,-129.62 805.14,-157 805.14,-157 805.14,-157 888.15,-157 888.15,-157"/>
<polygon fill="black" stroke="black" points="888.15,-160.5 898.15,-157 888.15,-153.5 888.15,-160.5"/>
</g>
<!-- PermissionService -->
<g id="node13" class="node">
<title>PermissionService</title>
<ellipse fill="#fdb462" stroke="black" cx="543" cy="-104" rx="82.82" ry="18"/>
<text text-anchor="middle" x="543" y="-99.8" font-family="Times,serif" font-size="14.00">PermissionService</text>
</g>
<!-- PermissionService&#45;&gt;AccountModule -->
<g id="edge12" class="edge">
<title>PermissionService&#45;&gt;AccountModule</title>
<path fill="none" stroke="black" d="M543,-122.02C543,-139.37 543,-163 543,-163 543,-163 888.11,-163 888.11,-163"/>
<polygon fill="black" stroke="black" points="888.11,-166.5 898.11,-163 888.11,-159.5 888.11,-166.5"/>
</g>
<!-- UserRepo -->
<g id="node14" class="node">
<title>UserRepo</title>
<ellipse fill="#fdb462" stroke="black" cx="392" cy="-104" rx="49.8" ry="18"/>
<text text-anchor="middle" x="392" y="-99.8" font-family="Times,serif" font-size="14.00">UserRepo</text>
</g>
<!-- UserRepo&#45;&gt;AccountModule -->
<g id="edge13" class="edge">
<title>UserRepo&#45;&gt;AccountModule</title>
<path fill="none" stroke="black" d="M392,-122.11C392,-141.34 392,-169 392,-169 392,-169 888.3,-169 888.3,-169"/>
<polygon fill="black" stroke="black" points="888.3,-172.5 898.3,-169 888.3,-165.5 888.3,-172.5"/>
</g>
</g>
</svg>
