<?xml version="1.0" encoding="UTF-8" standalone="no"?>
<!DOCTYPE svg PUBLIC "-//W3C//DTD SVG 1.1//EN"
 "http://www.w3.org/Graphics/SVG/1.1/DTD/svg11.dtd">
<!-- Generated by graphviz version 2.47.0 (20210316.0004)
 -->
<!-- Title: dependencies Pages: 1 -->
<svg width="1018pt" height="211pt"
 viewBox="0.00 0.00 1018.00 211.00" xmlns="http://www.w3.org/2000/svg" xmlns:xlink="http://www.w3.org/1999/xlink">
<g id="graph0" class="graph" transform="scale(1 1) rotate(0) translate(4 207)">
<title>dependencies</title>
<polygon fill="white" stroke="transparent" points="-4,4 -4,-207 1014,-207 1014,4 -4,4"/>
<text text-anchor="start" x="484.01" y="-42.4" font-family="Times-12" font-weight="bold" font-size="14.00">Legend</text>
<polygon fill="#ffffb3" stroke="transparent" points="271,-10 271,-30 291,-30 291,-10 271,-10"/>
<text text-anchor="start" x="294.63" y="-15.4" font-family="Times-12" font-size="14.00"> &#160;Declarations</text>
<polygon fill="#8dd3c7" stroke="transparent" points="384,-10 384,-30 404,-30 404,-10 384,-10"/>
<text text-anchor="start" x="407.73" y="-15.4" font-family="Times-12" font-size="14.00"> &#160;Module</text>
<polygon fill="#80b1d3" stroke="transparent" points="470,-10 470,-30 490,-30 490,-10 470,-10"/>
<text text-anchor="start" x="493.78" y="-15.4" font-family="Times-12" font-size="14.00"> &#160;Bootstrap</text>
<polygon fill="#fdb462" stroke="transparent" points="567,-10 567,-30 587,-30 587,-10 567,-10"/>
<text text-anchor="start" x="590.67" y="-15.4" font-family="Times-12" font-size="14.00"> &#160;Providers</text>
<polygon fill="#fb8072" stroke="transparent" points="663,-10 663,-30 683,-30 683,-10 663,-10"/>
<text text-anchor="start" x="686.73" y="-15.4" font-family="Times-12" font-size="14.00"> &#160;Exports</text>
<g id="clust1" class="cluster">
<title>cluster_FilesStorageTestModule</title>
<polygon fill="none" stroke="black" stroke-dasharray="1,5" points="8,-70 8,-195 1002,-195 1002,-70 8,-70"/>
</g>
<g id="clust3" class="cluster">
<title>cluster_FilesStorageTestModule_imports</title>
<polygon fill="none" stroke="black" points="16,-78 16,-130 994,-130 994,-78 16,-78"/>
</g>
<!-- AuthenticationModule -->
<g id="node1" class="node">
<title>AuthenticationModule</title>
<polygon fill="#8dd3c7" stroke="black" points="986.25,-122 983.25,-126 962.25,-126 959.25,-122 843.75,-122 843.75,-86 986.25,-86 986.25,-122"/>
<text text-anchor="middle" x="915" y="-99.8" font-family="Times,serif" font-size="14.00">AuthenticationModule</text>
</g>
<!-- FilesStorageTestModule -->
<g id="node7" class="node">
<title>FilesStorageTestModule</title>
<polygon fill="#8dd3c7" stroke="black" points="649.64,-187 646.64,-191 625.64,-191 622.64,-187 496.36,-187 496.36,-151 649.64,-151 649.64,-187"/>
<text text-anchor="middle" x="573" y="-164.8" font-family="Times,serif" font-size="14.00">FilesStorageTestModule</text>
</g>
<!-- AuthenticationModule&#45;&gt;FilesStorageTestModule -->
<g id="edge1" class="edge">
<title>AuthenticationModule&#45;&gt;FilesStorageTestModule</title>
<path fill="none" stroke="black" d="M915,-122.28C915,-143.32 915,-175 915,-175 915,-175 659.75,-175 659.75,-175"/>
<polygon fill="black" stroke="black" points="659.75,-171.5 649.75,-175 659.75,-178.5 659.75,-171.5"/>
</g>
<!-- CoreModule -->
<g id="node2" class="node">
<title>CoreModule</title>
<polygon fill="#8dd3c7" stroke="black" points="825.26,-122 822.26,-126 801.26,-126 798.26,-122 738.74,-122 738.74,-86 825.26,-86 825.26,-122"/>
<text text-anchor="middle" x="782" y="-99.8" font-family="Times,serif" font-size="14.00">CoreModule</text>
</g>
<!-- CoreModule&#45;&gt;FilesStorageTestModule -->
<g id="edge2" class="edge">
<title>CoreModule&#45;&gt;FilesStorageTestModule</title>
<path fill="none" stroke="black" d="M782,-122.02C782,-139.37 782,-163 782,-163 782,-163 659.93,-163 659.93,-163"/>
<polygon fill="black" stroke="black" points="659.93,-159.5 649.93,-163 659.93,-166.5 659.93,-159.5"/>
</g>
<!-- FilesStorageApiModule -->
<g id="node3" class="node">
<title>FilesStorageApiModule</title>
<polygon fill="#8dd3c7" stroke="black" points="720.03,-122 717.03,-126 696.03,-126 693.03,-122 569.97,-122 569.97,-86 720.03,-86 720.03,-122"/>
<text text-anchor="middle" x="645" y="-99.8" font-family="Times,serif" font-size="14.00">FilesStorageApiModule</text>
</g>
<!-- FilesStorageApiModule&#45;&gt;FilesStorageTestModule -->
<g id="edge3" class="edge">
<title>FilesStorageApiModule&#45;&gt;FilesStorageTestModule</title>
<path fill="none" stroke="black" d="M609.78,-122.11C609.78,-122.11 609.78,-140.99 609.78,-140.99"/>
<polygon fill="black" stroke="black" points="606.28,-140.99 609.78,-150.99 613.28,-140.99 606.28,-140.99"/>
</g>
<!-- LoggerModule -->
<g id="node4" class="node">
<title>LoggerModule</title>
<polygon fill="#8dd3c7" stroke="black" points="551.98,-122 548.98,-126 527.98,-126 524.98,-122 452.02,-122 452.02,-86 551.98,-86 551.98,-122"/>
<text text-anchor="middle" x="502" y="-99.8" font-family="Times,serif" font-size="14.00">LoggerModule</text>
</g>
<!-- LoggerModule&#45;&gt;FilesStorageTestModule -->
<g id="edge4" class="edge">
<title>LoggerModule&#45;&gt;FilesStorageTestModule</title>
<path fill="none" stroke="black" d="M524.08,-122.11C524.08,-122.11 524.08,-140.99 524.08,-140.99"/>
<polygon fill="black" stroke="black" points="520.58,-140.99 524.08,-150.99 527.58,-140.99 520.58,-140.99"/>
</g>
<!-- MongoMemoryDatabaseModule -->
<g id="node5" class="node">
<title>MongoMemoryDatabaseModule</title>
<polygon fill="#8dd3c7" stroke="black" points="433.51,-122 430.51,-126 409.51,-126 406.51,-122 234.49,-122 234.49,-86 433.51,-86 433.51,-122"/>
<text text-anchor="middle" x="334" y="-99.8" font-family="Times,serif" font-size="14.00">MongoMemoryDatabaseModule</text>
</g>
<!-- MongoMemoryDatabaseModule&#45;&gt;FilesStorageTestModule -->
<g id="edge5" class="edge">
<title>MongoMemoryDatabaseModule&#45;&gt;FilesStorageTestModule</title>
<path fill="none" stroke="black" d="M334,-122.02C334,-139.37 334,-163 334,-163 334,-163 486.06,-163 486.06,-163"/>
<polygon fill="black" stroke="black" points="486.06,-166.5 496.06,-163 486.06,-159.5 486.06,-166.5"/>
</g>
<!-- RabbitMQWrapperTestModule -->
<g id="node6" class="node">
<title>RabbitMQWrapperTestModule</title>
<polygon fill="#8dd3c7" stroke="black" points="216,-122 213,-126 192,-126 189,-122 24,-122 24,-86 216,-86 216,-122"/>
<text text-anchor="middle" x="120" y="-99.8" font-family="Times,serif" font-size="14.00">RabbitMQWrapperTestModule</text>
</g>
<!-- RabbitMQWrapperTestModule&#45;&gt;FilesStorageTestModule -->
<g id="edge6" class="edge">
<title>RabbitMQWrapperTestModule&#45;&gt;FilesStorageTestModule</title>
<path fill="none" stroke="black" d="M120,-122.28C120,-143.32 120,-175 120,-175 120,-175 486.15,-175 486.15,-175"/>
<polygon fill="black" stroke="black" points="486.15,-178.5 496.15,-175 486.15,-171.5 486.15,-178.5"/>
</g>
</g>
</svg>
