<?xml version="1.0" encoding="UTF-8" standalone="no"?>
<!DOCTYPE svg PUBLIC "-//W3C//DTD SVG 1.1//EN"
 "http://www.w3.org/Graphics/SVG/1.1/DTD/svg11.dtd">
<!-- Generated by graphviz version 2.47.0 (20210316.0004)
 -->
<!-- Title: dependencies Pages: 1 -->
<svg width="1173pt" height="211pt"
 viewBox="0.00 0.00 1173.00 211.00" xmlns="http://www.w3.org/2000/svg" xmlns:xlink="http://www.w3.org/1999/xlink">
<g id="graph0" class="graph" transform="scale(1 1) rotate(0) translate(4 207)">
<title>dependencies</title>
<polygon fill="white" stroke="transparent" points="-4,4 -4,-207 1169,-207 1169,4 -4,4"/>
<text text-anchor="start" x="561.51" y="-42.4" font-family="Times-12" font-weight="bold" font-size="14.00">Legend</text>
<polygon fill="#ffffb3" stroke="transparent" points="348.5,-10 348.5,-30 368.5,-30 368.5,-10 348.5,-10"/>
<text text-anchor="start" x="372.13" y="-15.4" font-family="Times-12" font-size="14.00"> &#160;Declarations</text>
<polygon fill="#8dd3c7" stroke="transparent" points="461.5,-10 461.5,-30 481.5,-30 481.5,-10 461.5,-10"/>
<text text-anchor="start" x="485.23" y="-15.4" font-family="Times-12" font-size="14.00"> &#160;Module</text>
<polygon fill="#80b1d3" stroke="transparent" points="547.5,-10 547.5,-30 567.5,-30 567.5,-10 547.5,-10"/>
<text text-anchor="start" x="571.28" y="-15.4" font-family="Times-12" font-size="14.00"> &#160;Bootstrap</text>
<polygon fill="#fdb462" stroke="transparent" points="644.5,-10 644.5,-30 664.5,-30 664.5,-10 644.5,-10"/>
<text text-anchor="start" x="668.17" y="-15.4" font-family="Times-12" font-size="14.00"> &#160;Providers</text>
<polygon fill="#fb8072" stroke="transparent" points="740.5,-10 740.5,-30 760.5,-30 760.5,-10 740.5,-10"/>
<text text-anchor="start" x="764.23" y="-15.4" font-family="Times-12" font-size="14.00"> &#160;Exports</text>
<g id="clust1" class="cluster">
<title>cluster_FilesStorageTestModule</title>
<polygon fill="none" stroke="black" stroke-dasharray="1,5" points="8,-70 8,-195 1157,-195 1157,-70 8,-70"/>
</g>
<g id="clust3" class="cluster">
<title>cluster_FilesStorageTestModule_imports</title>
<polygon fill="none" stroke="black" points="16,-78 16,-130 1149,-130 1149,-78 16,-78"/>
</g>
<!-- AuthenticationModule -->
<g id="node1" class="node">
<title>AuthenticationModule</title>
<polygon fill="#8dd3c7" stroke="black" points="1141.25,-122 1138.25,-126 1117.25,-126 1114.25,-122 998.75,-122 998.75,-86 1141.25,-86 1141.25,-122"/>
<text text-anchor="middle" x="1070" y="-99.8" font-family="Times,serif" font-size="14.00">AuthenticationModule</text>
</g>
<!-- FilesStorageTestModule -->
<g id="node8" class="node">
<title>FilesStorageTestModule</title>
<polygon fill="#8dd3c7" stroke="black" points="721.64,-187 718.64,-191 697.64,-191 694.64,-187 568.36,-187 568.36,-151 721.64,-151 721.64,-187"/>
<text text-anchor="middle" x="645" y="-164.8" font-family="Times,serif" font-size="14.00">FilesStorageTestModule</text>
</g>
<!-- AuthenticationModule&#45;&gt;FilesStorageTestModule -->
<g id="edge1" class="edge">
<title>AuthenticationModule&#45;&gt;FilesStorageTestModule</title>
<path fill="none" stroke="black" d="M1070,-122.29C1070,-144.21 1070,-178 1070,-178 1070,-178 731.96,-178 731.96,-178"/>
<polygon fill="black" stroke="black" points="731.96,-174.5 721.96,-178 731.96,-181.5 731.96,-174.5"/>
</g>
<!-- AuthorizationModule -->
<g id="node2" class="node">
<title>AuthorizationModule</title>
<polygon fill="#8dd3c7" stroke="black" points="980.81,-122 977.81,-126 956.81,-126 953.81,-122 843.19,-122 843.19,-86 980.81,-86 980.81,-122"/>
<text text-anchor="middle" x="912" y="-99.8" font-family="Times,serif" font-size="14.00">AuthorizationModule</text>
</g>
<!-- AuthorizationModule&#45;&gt;FilesStorageTestModule -->
<g id="edge2" class="edge">
<title>AuthorizationModule&#45;&gt;FilesStorageTestModule</title>
<path fill="none" stroke="black" d="M912,-122.11C912,-141.34 912,-169 912,-169 912,-169 731.87,-169 731.87,-169"/>
<polygon fill="black" stroke="black" points="731.87,-165.5 721.87,-169 731.87,-172.5 731.87,-165.5"/>
</g>
<!-- CoreModule -->
<g id="node3" class="node">
<title>CoreModule</title>
<polygon fill="#8dd3c7" stroke="black" points="825.26,-122 822.26,-126 801.26,-126 798.26,-122 738.74,-122 738.74,-86 825.26,-86 825.26,-122"/>
<text text-anchor="middle" x="782" y="-99.8" font-family="Times,serif" font-size="14.00">CoreModule</text>
</g>
<!-- CoreModule&#45;&gt;FilesStorageTestModule -->
<g id="edge3" class="edge">
<title>CoreModule&#45;&gt;FilesStorageTestModule</title>
<path fill="none" stroke="black" d="M782,-122.03C782,-138.4 782,-160 782,-160 782,-160 731.91,-160 731.91,-160"/>
<polygon fill="black" stroke="black" points="731.91,-156.5 721.91,-160 731.91,-163.5 731.91,-156.5"/>
</g>
<!-- FilesStorageApiModule -->
<g id="node4" class="node">
<title>FilesStorageApiModule</title>
<polygon fill="#8dd3c7" stroke="black" points="720.03,-122 717.03,-126 696.03,-126 693.03,-122 569.97,-122 569.97,-86 720.03,-86 720.03,-122"/>
<text text-anchor="middle" x="645" y="-99.8" font-family="Times,serif" font-size="14.00">FilesStorageApiModule</text>
</g>
<!-- FilesStorageApiModule&#45;&gt;FilesStorageTestModule -->
<g id="edge4" class="edge">
<title>FilesStorageApiModule&#45;&gt;FilesStorageTestModule</title>
<path fill="none" stroke="black" d="M645,-122.11C645,-122.11 645,-140.99 645,-140.99"/>
<polygon fill="black" stroke="black" points="641.5,-140.99 645,-150.99 648.5,-140.99 641.5,-140.99"/>
</g>
<!-- LoggerModule -->
<g id="node5" class="node">
<title>LoggerModule</title>
<polygon fill="#8dd3c7" stroke="black" points="551.98,-122 548.98,-126 527.98,-126 524.98,-122 452.02,-122 452.02,-86 551.98,-86 551.98,-122"/>
<text text-anchor="middle" x="502" y="-99.8" font-family="Times,serif" font-size="14.00">LoggerModule</text>
</g>
<!-- LoggerModule&#45;&gt;FilesStorageTestModule -->
<g id="edge5" class="edge">
<title>LoggerModule&#45;&gt;FilesStorageTestModule</title>
<path fill="none" stroke="black" d="M502,-122.03C502,-138.4 502,-160 502,-160 502,-160 558.06,-160 558.06,-160"/>
<polygon fill="black" stroke="black" points="558.06,-163.5 568.06,-160 558.06,-156.5 558.06,-163.5"/>
</g>
<!-- MongoMemoryDatabaseModule -->
<g id="node6" class="node">
<title>MongoMemoryDatabaseModule</title>
<polygon fill="#8dd3c7" stroke="black" points="433.51,-122 430.51,-126 409.51,-126 406.51,-122 234.49,-122 234.49,-86 433.51,-86 433.51,-122"/>
<text text-anchor="middle" x="334" y="-99.8" font-family="Times,serif" font-size="14.00">MongoMemoryDatabaseModule</text>
</g>
<!-- MongoMemoryDatabaseModule&#45;&gt;FilesStorageTestModule -->
<g id="edge6" class="edge">
<title>MongoMemoryDatabaseModule&#45;&gt;FilesStorageTestModule</title>
<path fill="none" stroke="black" d="M334,-122.11C334,-141.34 334,-169 334,-169 334,-169 558.12,-169 558.12,-169"/>
<polygon fill="black" stroke="black" points="558.12,-172.5 568.12,-169 558.12,-165.5 558.12,-172.5"/>
</g>
<!-- RabbitMQWrapperTestModule -->
<g id="node7" class="node">
<title>RabbitMQWrapperTestModule</title>
<polygon fill="#8dd3c7" stroke="black" points="216,-122 213,-126 192,-126 189,-122 24,-122 24,-86 216,-86 216,-122"/>
<text text-anchor="middle" x="120" y="-99.8" font-family="Times,serif" font-size="14.00">RabbitMQWrapperTestModule</text>
</g>
<!-- RabbitMQWrapperTestModule&#45;&gt;FilesStorageTestModule -->
<g id="edge7" class="edge">
<title>RabbitMQWrapperTestModule&#45;&gt;FilesStorageTestModule</title>
<path fill="none" stroke="black" d="M120,-122.29C120,-144.21 120,-178 120,-178 120,-178 558.1,-178 558.1,-178"/>
<polygon fill="black" stroke="black" points="558.1,-181.5 568.1,-178 558.1,-174.5 558.1,-181.5"/>
</g>
</g>
</svg>
