<?xml version="1.0" encoding="UTF-8" standalone="no"?>
<!DOCTYPE svg PUBLIC "-//W3C//DTD SVG 1.1//EN"
 "http://www.w3.org/Graphics/SVG/1.1/DTD/svg11.dtd">
<!-- Generated by graphviz version 2.47.0 (20210316.0004)
 -->
<!-- Title: dependencies Pages: 1 -->
<svg width="504pt" height="284pt"
 viewBox="0.00 0.00 504.00 284.00" xmlns="http://www.w3.org/2000/svg" xmlns:xlink="http://www.w3.org/1999/xlink">
<g id="graph0" class="graph" transform="scale(1 1) rotate(0) translate(4 280)">
<title>dependencies</title>
<polygon fill="white" stroke="transparent" points="-4,4 -4,-280 500,-280 500,4 -4,4"/>
<text text-anchor="start" x="227.01" y="-42.4" font-family="Times-12" font-weight="bold" font-size="14.00">Legend</text>
<polygon fill="#ffffb3" stroke="transparent" points="14,-10 14,-30 34,-30 34,-10 14,-10"/>
<text text-anchor="start" x="37.63" y="-15.4" font-family="Times-12" font-size="14.00"> &#160;Declarations</text>
<polygon fill="#8dd3c7" stroke="transparent" points="127,-10 127,-30 147,-30 147,-10 127,-10"/>
<text text-anchor="start" x="150.73" y="-15.4" font-family="Times-12" font-size="14.00"> &#160;Module</text>
<polygon fill="#80b1d3" stroke="transparent" points="213,-10 213,-30 233,-30 233,-10 213,-10"/>
<text text-anchor="start" x="236.78" y="-15.4" font-family="Times-12" font-size="14.00"> &#160;Bootstrap</text>
<polygon fill="#fdb462" stroke="transparent" points="310,-10 310,-30 330,-30 330,-10 310,-10"/>
<text text-anchor="start" x="333.67" y="-15.4" font-family="Times-12" font-size="14.00"> &#160;Providers</text>
<polygon fill="#fb8072" stroke="transparent" points="406,-10 406,-30 426,-30 426,-10 406,-10"/>
<text text-anchor="start" x="429.73" y="-15.4" font-family="Times-12" font-size="14.00"> &#160;Exports</text>
<g id="clust1" class="cluster">
<title>cluster_CalendarModule</title>
<polygon fill="none" stroke="black" stroke-dasharray="1,5" points="72,-70 72,-268 424,-268 424,-70 72,-70"/>
</g>
<g id="clust6" class="cluster">
<title>cluster_CalendarModule_providers</title>
<polygon fill="none" stroke="black" points="80,-78 80,-130 416,-130 416,-78 80,-78"/>
</g>
<g id="clust4" class="cluster">
<title>cluster_CalendarModule_exports</title>
<polygon fill="none" stroke="black" points="183,-208 183,-260 311,-260 311,-208 183,-208"/>
</g>
<!-- CalendarService  -->
<g id="node1" class="node">
<title>CalendarService </title>
<polygon fill="#fb8072" stroke="black" points="303.01,-252 190.99,-252 190.99,-216 303.01,-216 303.01,-252"/>
<text text-anchor="middle" x="247" y="-229.8" font-family="Times,serif" font-size="14.00">CalendarService </text>
</g>
<!-- CalendarModule -->
<g id="node2" class="node">
<title>CalendarModule</title>
<polygon fill="#8dd3c7" stroke="black" points="302.08,-187 299.08,-191 278.08,-191 275.08,-187 191.92,-187 191.92,-151 302.08,-151 302.08,-187"/>
<text text-anchor="middle" x="247" y="-164.8" font-family="Times,serif" font-size="14.00">CalendarModule</text>
</g>
<!-- CalendarModule&#45;&gt;CalendarService  -->
<g id="edge1" class="edge">
<title>CalendarModule&#45;&gt;CalendarService </title>
<path fill="none" stroke="black" stroke-dasharray="5,2" d="M247,-187.11C247,-187.11 247,-205.99 247,-205.99"/>
<polygon fill="black" stroke="black" points="243.5,-205.99 247,-215.99 250.5,-205.99 243.5,-205.99"/>
</g>
<!-- CalendarMapper -->
<g id="node3" class="node">
<title>CalendarMapper</title>
<ellipse fill="#fdb462" stroke="black" cx="332" cy="-104" rx="75.84" ry="18"/>
<text text-anchor="middle" x="332" y="-99.8" font-family="Times,serif" font-size="14.00">CalendarMapper</text>
</g>
<!-- CalendarMapper&#45;&gt;CalendarModule -->
<g id="edge2" class="edge">
<title>CalendarMapper&#45;&gt;CalendarModule</title>
<path fill="none" stroke="black" d="M279.06,-117.15C279.06,-117.15 279.06,-140.69 279.06,-140.69"/>
<polygon fill="black" stroke="black" points="275.56,-140.69 279.06,-150.69 282.56,-140.69 275.56,-140.69"/>
</g>
<!-- CalendarService -->
<g id="node4" class="node">
<title>CalendarService</title>
<ellipse fill="#fdb462" stroke="black" cx="163" cy="-104" rx="74.7" ry="18"/>
<text text-anchor="middle" x="163" y="-99.8" font-family="Times,serif" font-size="14.00">CalendarService</text>
</g>
<!-- CalendarService&#45;&gt;CalendarModule -->
<g id="edge3" class="edge">
<title>CalendarService&#45;&gt;CalendarModule</title>
<path fill="none" stroke="black" d="M214.9,-117.15C214.9,-117.15 214.9,-140.69 214.9,-140.69"/>
<polygon fill="black" stroke="black" points="211.4,-140.69 214.9,-150.69 218.4,-140.69 211.4,-140.69"/>
</g>
</g>
</svg>
