<?xml version="1.0" encoding="UTF-8" standalone="no"?>
<!DOCTYPE svg PUBLIC "-//W3C//DTD SVG 1.1//EN"
 "http://www.w3.org/Graphics/SVG/1.1/DTD/svg11.dtd">
<!-- Generated by graphviz version 2.47.0 (20210316.0004)
 -->
<!-- Title: dependencies Pages: 1 -->
<svg width="504pt" height="284pt"
 viewBox="0.00 0.00 504.00 284.00" xmlns="http://www.w3.org/2000/svg" xmlns:xlink="http://www.w3.org/1999/xlink">
<g id="graph0" class="graph" transform="scale(1 1) rotate(0) translate(4 280)">
<title>dependencies</title>
<polygon fill="white" stroke="transparent" points="-4,4 -4,-280 500,-280 500,4 -4,4"/>
<text text-anchor="start" x="227.01" y="-42.4" font-family="Times-12" font-weight="bold" font-size="14.00">Legend</text>
<polygon fill="#ffffb3" stroke="transparent" points="14,-10 14,-30 34,-30 34,-10 14,-10"/>
<text text-anchor="start" x="37.63" y="-15.4" font-family="Times-12" font-size="14.00"> &#160;Declarations</text>
<polygon fill="#8dd3c7" stroke="transparent" points="127,-10 127,-30 147,-30 147,-10 127,-10"/>
<text text-anchor="start" x="150.73" y="-15.4" font-family="Times-12" font-size="14.00"> &#160;Module</text>
<polygon fill="#80b1d3" stroke="transparent" points="213,-10 213,-30 233,-30 233,-10 213,-10"/>
<text text-anchor="start" x="236.78" y="-15.4" font-family="Times-12" font-size="14.00"> &#160;Bootstrap</text>
<polygon fill="#fdb462" stroke="transparent" points="310,-10 310,-30 330,-30 330,-10 310,-10"/>
<text text-anchor="start" x="333.67" y="-15.4" font-family="Times-12" font-size="14.00"> &#160;Providers</text>
<polygon fill="#fb8072" stroke="transparent" points="406,-10 406,-30 426,-30 426,-10 406,-10"/>
<text text-anchor="start" x="429.73" y="-15.4" font-family="Times-12" font-size="14.00"> &#160;Exports</text>
<g id="clust1" class="cluster">
<title>cluster_CalendarModule</title>
<polygon fill="none" stroke="black" stroke-dasharray="1,5" points="10,-70 10,-268 486,-268 486,-70 10,-70"/>
</g>
<g id="clust3" class="cluster">
<title>cluster_CalendarModule_imports</title>
<polygon fill="none" stroke="black" points="362,-78 362,-130 478,-130 478,-78 362,-78"/>
</g>
<g id="clust4" class="cluster">
<title>cluster_CalendarModule_exports</title>
<polygon fill="none" stroke="black" points="206,-208 206,-260 334,-260 334,-208 206,-208"/>
</g>
<g id="clust6" class="cluster">
<title>cluster_CalendarModule_providers</title>
<polygon fill="none" stroke="black" points="18,-78 18,-130 354,-130 354,-78 18,-78"/>
</g>
<!-- LoggerModule -->
<g id="node1" class="node">
<title>LoggerModule</title>
<polygon fill="#8dd3c7" stroke="black" points="469.98,-122 466.98,-126 445.98,-126 442.98,-122 370.02,-122 370.02,-86 469.98,-86 469.98,-122"/>
<text text-anchor="middle" x="420" y="-99.8" font-family="Times,serif" font-size="14.00">LoggerModule</text>
</g>
<!-- CalendarModule -->
<g id="node2" class="node">
<title>CalendarModule</title>
<polygon fill="#8dd3c7" stroke="black" points="325.08,-187 322.08,-191 301.08,-191 298.08,-187 214.92,-187 214.92,-151 325.08,-151 325.08,-187"/>
<text text-anchor="middle" x="270" y="-164.8" font-family="Times,serif" font-size="14.00">CalendarModule</text>
</g>
<!-- LoggerModule&#45;&gt;CalendarModule -->
<g id="edge1" class="edge">
<title>LoggerModule&#45;&gt;CalendarModule</title>
<path fill="none" stroke="black" d="M420,-122.11C420,-141.34 420,-169 420,-169 420,-169 335.43,-169 335.43,-169"/>
<polygon fill="black" stroke="black" points="335.43,-165.5 325.43,-169 335.43,-172.5 335.43,-165.5"/>
</g>
<!-- CalendarService  -->
<g id="node3" class="node">
<title>CalendarService </title>
<polygon fill="#fb8072" stroke="black" points="326.01,-252 213.99,-252 213.99,-216 326.01,-216 326.01,-252"/>
<text text-anchor="middle" x="270" y="-229.8" font-family="Times,serif" font-size="14.00">CalendarService </text>
</g>
<!-- CalendarModule&#45;&gt;CalendarService  -->
<g id="edge2" class="edge">
<title>CalendarModule&#45;&gt;CalendarService </title>
<path fill="none" stroke="black" stroke-dasharray="5,2" d="M270,-187.11C270,-187.11 270,-205.99 270,-205.99"/>
<polygon fill="black" stroke="black" points="266.5,-205.99 270,-215.99 273.5,-205.99 266.5,-205.99"/>
</g>
<!-- CalendarMapper -->
<g id="node4" class="node">
<title>CalendarMapper</title>
<ellipse fill="#fdb462" stroke="black" cx="270" cy="-104" rx="75.84" ry="18"/>
<text text-anchor="middle" x="270" y="-99.8" font-family="Times,serif" font-size="14.00">CalendarMapper</text>
</g>
<!-- CalendarMapper&#45;&gt;CalendarModule -->
<g id="edge3" class="edge">
<title>CalendarMapper&#45;&gt;CalendarModule</title>
<path fill="none" stroke="black" d="M270,-122.11C270,-122.11 270,-140.99 270,-140.99"/>
<polygon fill="black" stroke="black" points="266.5,-140.99 270,-150.99 273.5,-140.99 266.5,-140.99"/>
</g>
<!-- CalendarService -->
<g id="node5" class="node">
<title>CalendarService</title>
<ellipse fill="#fdb462" stroke="black" cx="101" cy="-104" rx="74.7" ry="18"/>
<text text-anchor="middle" x="101" y="-99.8" font-family="Times,serif" font-size="14.00">CalendarService</text>
</g>
<!-- CalendarService&#45;&gt;CalendarModule -->
<g id="edge4" class="edge">
<title>CalendarService&#45;&gt;CalendarModule</title>
<path fill="none" stroke="black" d="M101,-122.11C101,-141.34 101,-169 101,-169 101,-169 204.66,-169 204.66,-169"/>
<polygon fill="black" stroke="black" points="204.66,-172.5 214.66,-169 204.66,-165.5 204.66,-172.5"/>
</g>
</g>
</svg>
