<?xml version="1.0" encoding="UTF-8" standalone="no"?>
<!DOCTYPE svg PUBLIC "-//W3C//DTD SVG 1.1//EN"
 "http://www.w3.org/Graphics/SVG/1.1/DTD/svg11.dtd">
<!-- Generated by graphviz version 5.0.0 (20220707.1540)
 -->
<!-- Title: dependencies Pages: 1 -->
<svg width="376pt" height="247pt"
 viewBox="0.00 0.00 376.00 246.80" xmlns="http://www.w3.org/2000/svg" xmlns:xlink="http://www.w3.org/1999/xlink">
<g id="graph0" class="graph" transform="scale(1 1) rotate(0) translate(4 242.8)">
<title>dependencies</title>
<polygon fill="white" stroke="transparent" points="-4,4 -4,-242.8 372,-242.8 372,4 -4,4"/>
<text text-anchor="middle" x="184" y="-8.2" font-family="sans-serif" font-size="14.00">dependencies</text>
<g id="clust1" class="cluster">
<title>cluster_CalendarModule</title>
<polygon fill="none" stroke="black" stroke-dasharray="1,5" points="8,-32.8 8,-230.8 360,-230.8 360,-32.8 8,-32.8"/>
</g>
<g id="clust6" class="cluster">
<title>cluster_CalendarModule_providers</title>
<polygon fill="none" stroke="black" points="16,-40.8 16,-92.8 352,-92.8 352,-40.8 16,-40.8"/>
</g>
<g id="clust4" class="cluster">
<title>cluster_CalendarModule_exports</title>
<polygon fill="none" stroke="black" points="119,-170.8 119,-222.8 247,-222.8 247,-170.8 119,-170.8"/>
</g>
<!-- CalendarService  -->
<g id="node1" class="node">
<title>CalendarService </title>
<polygon fill="#fb8072" stroke="black" points="239.01,-214.8 126.99,-214.8 126.99,-178.8 239.01,-178.8 239.01,-214.8"/>
<text text-anchor="middle" x="183" y="-192.6" font-family="Times,serif" font-size="14.00">CalendarService </text>
</g>
<!-- CalendarModule -->
<g id="node2" class="node">
<title>CalendarModule</title>
<polygon fill="#8dd3c7" stroke="black" points="238.08,-149.8 235.08,-153.8 214.08,-153.8 211.08,-149.8 127.92,-149.8 127.92,-113.8 238.08,-113.8 238.08,-149.8"/>
<text text-anchor="middle" x="183" y="-127.6" font-family="Times,serif" font-size="14.00">CalendarModule</text>
</g>
<!-- CalendarModule&#45;&gt;CalendarService  -->
<g id="edge1" class="edge">
<title>CalendarModule&#45;&gt;CalendarService </title>
<path fill="none" stroke="black" stroke-dasharray="5,2" d="M183,-149.91C183,-149.91 183,-168.79 183,-168.79"/>
<polygon fill="black" stroke="black" points="179.5,-168.79 183,-178.79 186.5,-168.79 179.5,-168.79"/>
</g>
<!-- CalendarMapper -->
<g id="node3" class="node">
<title>CalendarMapper</title>
<ellipse fill="#fdb462" stroke="black" cx="268" cy="-66.8" rx="75.85" ry="18"/>
<text text-anchor="middle" x="268" y="-62.6" font-family="Times,serif" font-size="14.00">CalendarMapper</text>
</g>
<!-- CalendarMapper&#45;&gt;CalendarModule -->
<g id="edge2" class="edge">
<title>CalendarMapper&#45;&gt;CalendarModule</title>
<path fill="none" stroke="black" d="M215.06,-79.95C215.06,-79.95 215.06,-103.49 215.06,-103.49"/>
<polygon fill="black" stroke="black" points="211.56,-103.49 215.06,-113.49 218.56,-103.49 211.56,-103.49"/>
</g>
<!-- CalendarService -->
<g id="node4" class="node">
<title>CalendarService</title>
<ellipse fill="#fdb462" stroke="black" cx="99" cy="-66.8" rx="74.7" ry="18"/>
<text text-anchor="middle" x="99" y="-62.6" font-family="Times,serif" font-size="14.00">CalendarService</text>
</g>
<!-- CalendarService&#45;&gt;CalendarModule -->
<g id="edge3" class="edge">
<title>CalendarService&#45;&gt;CalendarModule</title>
<path fill="none" stroke="black" d="M150.9,-79.95C150.9,-79.95 150.9,-103.49 150.9,-103.49"/>
<polygon fill="black" stroke="black" points="147.4,-103.49 150.9,-113.49 154.4,-103.49 147.4,-103.49"/>
</g>
</g>
</svg>
