<?xml version="1.0" encoding="UTF-8" standalone="no"?>
<!DOCTYPE svg PUBLIC "-//W3C//DTD SVG 1.1//EN"
 "http://www.w3.org/Graphics/SVG/1.1/DTD/svg11.dtd">
<!-- Generated by graphviz version 2.47.0 (20210316.0004)
 -->
<!-- Title: dependencies Pages: 1 -->
<svg width="1869pt" height="284pt"
 viewBox="0.00 0.00 1869.00 284.00" xmlns="http://www.w3.org/2000/svg" xmlns:xlink="http://www.w3.org/1999/xlink">
<g id="graph0" class="graph" transform="scale(1 1) rotate(0) translate(4 280)">
<title>dependencies</title>
<polygon fill="white" stroke="transparent" points="-4,4 -4,-280 1865,-280 1865,4 -4,4"/>
<text text-anchor="start" x="909.51" y="-42.4" font-family="Times-12" font-weight="bold" font-size="14.00">Legend</text>
<polygon fill="#ffffb3" stroke="transparent" points="696.5,-10 696.5,-30 716.5,-30 716.5,-10 696.5,-10"/>
<text text-anchor="start" x="720.13" y="-15.4" font-family="Times-12" font-size="14.00"> &#160;Declarations</text>
<polygon fill="#8dd3c7" stroke="transparent" points="809.5,-10 809.5,-30 829.5,-30 829.5,-10 809.5,-10"/>
<text text-anchor="start" x="833.23" y="-15.4" font-family="Times-12" font-size="14.00"> &#160;Module</text>
<polygon fill="#80b1d3" stroke="transparent" points="895.5,-10 895.5,-30 915.5,-30 915.5,-10 895.5,-10"/>
<text text-anchor="start" x="919.28" y="-15.4" font-family="Times-12" font-size="14.00"> &#160;Bootstrap</text>
<polygon fill="#fdb462" stroke="transparent" points="992.5,-10 992.5,-30 1012.5,-30 1012.5,-10 992.5,-10"/>
<text text-anchor="start" x="1016.17" y="-15.4" font-family="Times-12" font-size="14.00"> &#160;Providers</text>
<polygon fill="#fb8072" stroke="transparent" points="1088.5,-10 1088.5,-30 1108.5,-30 1108.5,-10 1088.5,-10"/>
<text text-anchor="start" x="1112.23" y="-15.4" font-family="Times-12" font-size="14.00"> &#160;Exports</text>
<g id="clust1" class="cluster">
<title>cluster_ContextExternalToolModule</title>
<polygon fill="none" stroke="black" stroke-dasharray="1,5" points="8,-70 8,-268 1853,-268 1853,-70 8,-70"/>
</g>
<g id="clust3" class="cluster">
<title>cluster_ContextExternalToolModule_imports</title>
<polygon fill="none" stroke="black" points="1396,-78 1396,-130 1845,-130 1845,-78 1396,-78"/>
</g>
<g id="clust4" class="cluster">
<title>cluster_ContextExternalToolModule_exports</title>
<polygon fill="none" stroke="black" points="612,-208 612,-260 1647,-260 1647,-208 612,-208"/>
</g>
<g id="clust6" class="cluster">
<title>cluster_ContextExternalToolModule_providers</title>
<polygon fill="none" stroke="black" points="16,-78 16,-130 1388,-130 1388,-78 16,-78"/>
</g>
<!-- LoggerModule -->
<g id="node1" class="node">
<title>LoggerModule</title>
<polygon fill="#8dd3c7" stroke="black" points="1836.98,-122 1833.98,-126 1812.98,-126 1809.98,-122 1737.02,-122 1737.02,-86 1836.98,-86 1836.98,-122"/>
<text text-anchor="middle" x="1787" y="-99.8" font-family="Times,serif" font-size="14.00">LoggerModule</text>
</g>
<!-- ContextExternalToolModule -->
<g id="node4" class="node">
<title>ContextExternalToolModule</title>
<polygon fill="#8dd3c7" stroke="black" points="1140.75,-187 1137.75,-191 1116.75,-191 1113.75,-187 963.25,-187 963.25,-151 1140.75,-151 1140.75,-187"/>
<text text-anchor="middle" x="1052" y="-164.8" font-family="Times,serif" font-size="14.00">ContextExternalToolModule</text>
</g>
<!-- LoggerModule&#45;&gt;ContextExternalToolModule -->
<g id="edge1" class="edge">
<title>LoggerModule&#45;&gt;ContextExternalToolModule</title>
<path fill="none" stroke="black" d="M1787,-122.11C1787,-141.34 1787,-169 1787,-169 1787,-169 1151.02,-169 1151.02,-169"/>
<polygon fill="black" stroke="black" points="1151.02,-165.5 1141.02,-169 1151.02,-172.5 1151.02,-165.5"/>
</g>
<!-- SchoolExternalToolModule -->
<g id="node2" class="node">
<title>SchoolExternalToolModule</title>
<polygon fill="#8dd3c7" stroke="black" points="1719.3,-122 1716.3,-126 1695.3,-126 1692.3,-122 1546.7,-122 1546.7,-86 1719.3,-86 1719.3,-122"/>
<text text-anchor="middle" x="1633" y="-99.8" font-family="Times,serif" font-size="14.00">SchoolExternalToolModule</text>
</g>
<!-- SchoolExternalToolModule&#45;&gt;ContextExternalToolModule -->
<g id="edge2" class="edge">
<title>SchoolExternalToolModule&#45;&gt;ContextExternalToolModule</title>
<path fill="none" stroke="black" d="M1593.11,-122.02C1593.11,-139.37 1593.11,-163 1593.11,-163 1593.11,-163 1151.05,-163 1151.05,-163"/>
<polygon fill="black" stroke="black" points="1151.05,-159.5 1141.05,-163 1151.05,-166.5 1151.05,-159.5"/>
</g>
<!-- ToolConfigModule -->
<g id="node3" class="node">
<title>ToolConfigModule</title>
<polygon fill="#8dd3c7" stroke="black" points="1528.38,-122 1525.38,-126 1504.38,-126 1501.38,-122 1403.62,-122 1403.62,-86 1528.38,-86 1528.38,-122"/>
<text text-anchor="middle" x="1466" y="-99.8" font-family="Times,serif" font-size="14.00">ToolConfigModule</text>
</g>
<!-- ToolConfigModule&#45;&gt;ContextExternalToolModule -->
<g id="edge3" class="edge">
<title>ToolConfigModule&#45;&gt;ContextExternalToolModule</title>
<path fill="none" stroke="black" d="M1466,-122.24C1466,-137.57 1466,-157 1466,-157 1466,-157 1150.81,-157 1150.81,-157"/>
<polygon fill="black" stroke="black" points="1150.81,-153.5 1140.81,-157 1150.81,-160.5 1150.81,-153.5"/>
</g>
<!-- ContextExternalToolAuthorizableService  -->
<g id="node5" class="node">
<title>ContextExternalToolAuthorizableService </title>
<polygon fill="#fb8072" stroke="black" points="1639.26,-252 1386.74,-252 1386.74,-216 1639.26,-216 1639.26,-252"/>
<text text-anchor="middle" x="1513" y="-229.8" font-family="Times,serif" font-size="14.00">ContextExternalToolAuthorizableService </text>
</g>
<!-- ContextExternalToolModule&#45;&gt;ContextExternalToolAuthorizableService  -->
<g id="edge4" class="edge">
<title>ContextExternalToolModule&#45;&gt;ContextExternalToolAuthorizableService </title>
<path fill="none" stroke="black" stroke-dasharray="5,2" d="M1140.8,-175C1242.46,-175 1395.09,-175 1395.09,-175 1395.09,-175 1395.09,-205.98 1395.09,-205.98"/>
<polygon fill="black" stroke="black" points="1391.59,-205.98 1395.09,-215.98 1398.59,-205.98 1391.59,-205.98"/>
</g>
<!-- ContextExternalToolService  -->
<g id="node6" class="node">
<title>ContextExternalToolService </title>
<polygon fill="#fb8072" stroke="black" points="1368.68,-252 1189.32,-252 1189.32,-216 1368.68,-216 1368.68,-252"/>
<text text-anchor="middle" x="1279" y="-229.8" font-family="Times,serif" font-size="14.00">ContextExternalToolService </text>
</g>
<!-- ContextExternalToolModule&#45;&gt;ContextExternalToolService  -->
<g id="edge5" class="edge">
<title>ContextExternalToolModule&#45;&gt;ContextExternalToolService </title>
<path fill="none" stroke="black" stroke-dasharray="5,2" d="M1141.06,-181C1204.66,-181 1279,-181 1279,-181 1279,-181 1279,-205.76 1279,-205.76"/>
<polygon fill="black" stroke="black" points="1275.5,-205.76 1279,-215.76 1282.5,-205.76 1275.5,-205.76"/>
</g>
<!-- ContextExternalToolValidationService  -->
<g id="node7" class="node">
<title>ContextExternalToolValidationService </title>
<polygon fill="#fb8072" stroke="black" points="1171.28,-252 932.72,-252 932.72,-216 1171.28,-216 1171.28,-252"/>
<text text-anchor="middle" x="1052" y="-229.8" font-family="Times,serif" font-size="14.00">ContextExternalToolValidationService </text>
</g>
<!-- ContextExternalToolModule&#45;&gt;ContextExternalToolValidationService  -->
<g id="edge6" class="edge">
<title>ContextExternalToolModule&#45;&gt;ContextExternalToolValidationService </title>
<path fill="none" stroke="black" stroke-dasharray="5,2" d="M1052,-187.11C1052,-187.11 1052,-205.99 1052,-205.99"/>
<polygon fill="black" stroke="black" points="1048.5,-205.99 1052,-215.99 1055.5,-205.99 1048.5,-205.99"/>
</g>
<!-- ToolReferenceService  -->
<g id="node8" class="node">
<title>ToolReferenceService </title>
<polygon fill="#fb8072" stroke="black" points="914.15,-252 769.85,-252 769.85,-216 914.15,-216 914.15,-252"/>
<text text-anchor="middle" x="842" y="-229.8" font-family="Times,serif" font-size="14.00">ToolReferenceService </text>
</g>
<!-- ContextExternalToolModule&#45;&gt;ToolReferenceService  -->
<g id="edge7" class="edge">
<title>ContextExternalToolModule&#45;&gt;ToolReferenceService </title>
<path fill="none" stroke="black" stroke-dasharray="5,2" d="M962.97,-181C906.84,-181 844.9,-181 844.9,-181 844.9,-181 844.9,-205.76 844.9,-205.76"/>
<polygon fill="black" stroke="black" points="841.4,-205.76 844.9,-215.76 848.4,-205.76 841.4,-205.76"/>
</g>
<!-- ToolVersionService  -->
<g id="node9" class="node">
<title>ToolVersionService </title>
<polygon fill="#fb8072" stroke="black" points="752.24,-252 619.76,-252 619.76,-216 752.24,-216 752.24,-252"/>
<text text-anchor="middle" x="686" y="-229.8" font-family="Times,serif" font-size="14.00">ToolVersionService </text>
</g>
<!-- ContextExternalToolModule&#45;&gt;ToolVersionService  -->
<g id="edge8" class="edge">
<title>ContextExternalToolModule&#45;&gt;ToolVersionService </title>
<path fill="none" stroke="black" stroke-dasharray="5,2" d="M962.97,-175C861.06,-175 708.04,-175 708.04,-175 708.04,-175 708.04,-205.98 708.04,-205.98"/>
<polygon fill="black" stroke="black" points="704.54,-205.98 708.04,-215.98 711.54,-205.98 704.54,-205.98"/>
</g>
<!-- ContextExternalToolAuthorizableService -->
<g id="node10" class="node">
<title>ContextExternalToolAuthorizableService</title>
<ellipse fill="#fdb462" stroke="black" cx="1208" cy="-104" rx="171.87" ry="18"/>
<text text-anchor="middle" x="1208" y="-99.8" font-family="Times,serif" font-size="14.00">ContextExternalToolAuthorizableService</text>
</g>
<!-- ContextExternalToolAuthorizableService&#45;&gt;ContextExternalToolModule -->
<g id="edge9" class="edge">
<title>ContextExternalToolAuthorizableService&#45;&gt;ContextExternalToolModule</title>
<path fill="none" stroke="black" d="M1088.47,-117.15C1088.47,-117.15 1088.47,-140.69 1088.47,-140.69"/>
<polygon fill="black" stroke="black" points="1084.97,-140.69 1088.47,-150.69 1091.97,-140.69 1084.97,-140.69"/>
</g>
<!-- ContextExternalToolService -->
<g id="node11" class="node">
<title>ContextExternalToolService</title>
<ellipse fill="#fdb462" stroke="black" cx="897" cy="-104" rx="121.55" ry="18"/>
<text text-anchor="middle" x="897" y="-99.8" font-family="Times,serif" font-size="14.00">ContextExternalToolService</text>
</g>
<!-- ContextExternalToolService&#45;&gt;ContextExternalToolModule -->
<g id="edge10" class="edge">
<title>ContextExternalToolService&#45;&gt;ContextExternalToolModule</title>
<path fill="none" stroke="black" d="M990.82,-115.62C990.82,-115.62 990.82,-140.85 990.82,-140.85"/>
<polygon fill="black" stroke="black" points="987.32,-140.85 990.82,-150.85 994.32,-140.85 987.32,-140.85"/>
</g>
<!-- ContextExternalToolValidationService -->
<g id="node12" class="node">
<title>ContextExternalToolValidationService</title>
<ellipse fill="#fdb462" stroke="black" cx="595" cy="-104" rx="162.08" ry="18"/>
<text text-anchor="middle" x="595" y="-99.8" font-family="Times,serif" font-size="14.00">ContextExternalToolValidationService</text>
</g>
<!-- ContextExternalToolValidationService&#45;&gt;ContextExternalToolModule -->
<g id="edge11" class="edge">
<title>ContextExternalToolValidationService&#45;&gt;ContextExternalToolModule</title>
<path fill="none" stroke="black" d="M663.96,-120.48C663.96,-136.04 663.96,-157 663.96,-157 663.96,-157 952.98,-157 952.98,-157"/>
<polygon fill="black" stroke="black" points="952.98,-160.5 962.98,-157 952.98,-153.5 952.98,-160.5"/>
</g>
<!-- ToolReferenceService -->
<g id="node13" class="node">
<title>ToolReferenceService</title>
<ellipse fill="#fdb462" stroke="black" cx="317" cy="-104" rx="97.23" ry="18"/>
<text text-anchor="middle" x="317" y="-99.8" font-family="Times,serif" font-size="14.00">ToolReferenceService</text>
</g>
<!-- ToolReferenceService&#45;&gt;ContextExternalToolModule -->
<g id="edge12" class="edge">
<title>ToolReferenceService&#45;&gt;ContextExternalToolModule</title>
<path fill="none" stroke="black" d="M317,-122.02C317,-139.37 317,-163 317,-163 317,-163 952.98,-163 952.98,-163"/>
<polygon fill="black" stroke="black" points="952.98,-166.5 962.98,-163 952.98,-159.5 952.98,-166.5"/>
</g>
<!-- ToolVersionService -->
<g id="node14" class="node">
<title>ToolVersionService</title>
<ellipse fill="#fdb462" stroke="black" cx="113" cy="-104" rx="88.6" ry="18"/>
<text text-anchor="middle" x="113" y="-99.8" font-family="Times,serif" font-size="14.00">ToolVersionService</text>
</g>
<!-- ToolVersionService&#45;&gt;ContextExternalToolModule -->
<g id="edge13" class="edge">
<title>ToolVersionService&#45;&gt;ContextExternalToolModule</title>
<path fill="none" stroke="black" d="M113,-122.11C113,-141.34 113,-169 113,-169 113,-169 953.24,-169 953.24,-169"/>
<polygon fill="black" stroke="black" points="953.24,-172.5 963.24,-169 953.24,-165.5 953.24,-172.5"/>
</g>
</g>
</svg>
