<?xml version="1.0" encoding="UTF-8" standalone="no"?>
<!DOCTYPE svg PUBLIC "-//W3C//DTD SVG 1.1//EN"
 "http://www.w3.org/Graphics/SVG/1.1/DTD/svg11.dtd">
<!-- Generated by graphviz version 2.47.0 (20210316.0004)
 -->
<!-- Title: dependencies Pages: 1 -->
<svg width="1625pt" height="284pt"
 viewBox="0.00 0.00 1625.00 284.00" xmlns="http://www.w3.org/2000/svg" xmlns:xlink="http://www.w3.org/1999/xlink">
<g id="graph0" class="graph" transform="scale(1 1) rotate(0) translate(4 280)">
<title>dependencies</title>
<polygon fill="white" stroke="transparent" points="-4,4 -4,-280 1621,-280 1621,4 -4,4"/>
<text text-anchor="start" x="787.51" y="-42.4" font-family="Times-12" font-weight="bold" font-size="14.00">Legend</text>
<polygon fill="#ffffb3" stroke="transparent" points="574.5,-10 574.5,-30 594.5,-30 594.5,-10 574.5,-10"/>
<text text-anchor="start" x="598.13" y="-15.4" font-family="Times-12" font-size="14.00"> &#160;Declarations</text>
<polygon fill="#8dd3c7" stroke="transparent" points="687.5,-10 687.5,-30 707.5,-30 707.5,-10 687.5,-10"/>
<text text-anchor="start" x="711.23" y="-15.4" font-family="Times-12" font-size="14.00"> &#160;Module</text>
<polygon fill="#80b1d3" stroke="transparent" points="773.5,-10 773.5,-30 793.5,-30 793.5,-10 773.5,-10"/>
<text text-anchor="start" x="797.28" y="-15.4" font-family="Times-12" font-size="14.00"> &#160;Bootstrap</text>
<polygon fill="#fdb462" stroke="transparent" points="870.5,-10 870.5,-30 890.5,-30 890.5,-10 870.5,-10"/>
<text text-anchor="start" x="894.17" y="-15.4" font-family="Times-12" font-size="14.00"> &#160;Providers</text>
<polygon fill="#fb8072" stroke="transparent" points="966.5,-10 966.5,-30 986.5,-30 986.5,-10 966.5,-10"/>
<text text-anchor="start" x="990.23" y="-15.4" font-family="Times-12" font-size="14.00"> &#160;Exports</text>
<g id="clust1" class="cluster">
<title>cluster_ContextExternalToolModule</title>
<polygon fill="none" stroke="black" stroke-dasharray="1,5" points="8,-70 8,-268 1609,-268 1609,-70 8,-70"/>
</g>
<g id="clust3" class="cluster">
<title>cluster_ContextExternalToolModule_imports</title>
<polygon fill="none" stroke="black" points="987,-78 987,-130 1601,-130 1601,-78 987,-78"/>
</g>
<g id="clust4" class="cluster">
<title>cluster_ContextExternalToolModule_exports</title>
<polygon fill="none" stroke="black" points="727,-208 727,-260 1449,-260 1449,-208 727,-208"/>
</g>
<g id="clust6" class="cluster">
<title>cluster_ContextExternalToolModule_providers</title>
<polygon fill="none" stroke="black" points="16,-78 16,-130 979,-130 979,-78 16,-78"/>
</g>
<!-- CommonToolModule -->
<g id="node1" class="node">
<title>CommonToolModule</title>
<polygon fill="#8dd3c7" stroke="black" points="1593.11,-122 1590.11,-126 1569.11,-126 1566.11,-122 1454.89,-122 1454.89,-86 1593.11,-86 1593.11,-122"/>
<text text-anchor="middle" x="1524" y="-99.8" font-family="Times,serif" font-size="14.00">CommonToolModule</text>
</g>
<!-- ContextExternalToolModule -->
<g id="node5" class="node">
<title>ContextExternalToolModule</title>
<polygon fill="#8dd3c7" stroke="black" points="1169.75,-187 1166.75,-191 1145.75,-191 1142.75,-187 992.25,-187 992.25,-151 1169.75,-151 1169.75,-187"/>
<text text-anchor="middle" x="1081" y="-164.8" font-family="Times,serif" font-size="14.00">ContextExternalToolModule</text>
</g>
<!-- CommonToolModule&#45;&gt;ContextExternalToolModule -->
<g id="edge1" class="edge">
<title>CommonToolModule&#45;&gt;ContextExternalToolModule</title>
<path fill="none" stroke="black" d="M1524,-122.13C1524,-142.57 1524,-173 1524,-173 1524,-173 1179.85,-173 1179.85,-173"/>
<polygon fill="black" stroke="black" points="1179.85,-169.5 1169.85,-173 1179.85,-176.5 1179.85,-169.5"/>
</g>
<!-- ExternalToolModule -->
<g id="node2" class="node">
<title>ExternalToolModule</title>
<polygon fill="#8dd3c7" stroke="black" points="1436.92,-122 1433.92,-126 1412.92,-126 1409.92,-122 1303.08,-122 1303.08,-86 1436.92,-86 1436.92,-122"/>
<text text-anchor="middle" x="1370" y="-99.8" font-family="Times,serif" font-size="14.00">ExternalToolModule</text>
</g>
<!-- ExternalToolModule&#45;&gt;ContextExternalToolModule -->
<g id="edge2" class="edge">
<title>ExternalToolModule&#45;&gt;ContextExternalToolModule</title>
<path fill="none" stroke="black" d="M1370,-122.27C1370,-140.56 1370,-166 1370,-166 1370,-166 1180.07,-166 1180.07,-166"/>
<polygon fill="black" stroke="black" points="1180.07,-162.5 1170.07,-166 1180.07,-169.5 1180.07,-162.5"/>
</g>
<!-- LoggerModule -->
<g id="node3" class="node">
<title>LoggerModule</title>
<polygon fill="#8dd3c7" stroke="black" points="1284.98,-122 1281.98,-126 1260.98,-126 1257.98,-122 1185.02,-122 1185.02,-86 1284.98,-86 1284.98,-122"/>
<text text-anchor="middle" x="1235" y="-99.8" font-family="Times,serif" font-size="14.00">LoggerModule</text>
</g>
<!-- LoggerModule&#45;&gt;ContextExternalToolModule -->
<g id="edge3" class="edge">
<title>LoggerModule&#45;&gt;ContextExternalToolModule</title>
<path fill="none" stroke="black" d="M1252.87,-122.01C1252.87,-138.05 1252.87,-159 1252.87,-159 1252.87,-159 1179.95,-159 1179.95,-159"/>
<polygon fill="black" stroke="black" points="1179.95,-155.5 1169.95,-159 1179.95,-162.5 1179.95,-155.5"/>
</g>
<!-- SchoolExternalToolModule -->
<g id="node4" class="node">
<title>SchoolExternalToolModule</title>
<polygon fill="#8dd3c7" stroke="black" points="1167.3,-122 1164.3,-126 1143.3,-126 1140.3,-122 994.7,-122 994.7,-86 1167.3,-86 1167.3,-122"/>
<text text-anchor="middle" x="1081" y="-99.8" font-family="Times,serif" font-size="14.00">SchoolExternalToolModule</text>
</g>
<!-- SchoolExternalToolModule&#45;&gt;ContextExternalToolModule -->
<g id="edge4" class="edge">
<title>SchoolExternalToolModule&#45;&gt;ContextExternalToolModule</title>
<path fill="none" stroke="black" d="M1081,-122.11C1081,-122.11 1081,-140.99 1081,-140.99"/>
<polygon fill="black" stroke="black" points="1077.5,-140.99 1081,-150.99 1084.5,-140.99 1077.5,-140.99"/>
</g>
<!-- ContextExternalToolAuthorizableService  -->
<g id="node6" class="node">
<title>ContextExternalToolAuthorizableService </title>
<polygon fill="#fb8072" stroke="black" points="1441.26,-252 1188.74,-252 1188.74,-216 1441.26,-216 1441.26,-252"/>
<text text-anchor="middle" x="1315" y="-229.8" font-family="Times,serif" font-size="14.00">ContextExternalToolAuthorizableService </text>
</g>
<!-- ContextExternalToolModule&#45;&gt;ContextExternalToolAuthorizableService  -->
<g id="edge5" class="edge">
<title>ContextExternalToolModule&#45;&gt;ContextExternalToolAuthorizableService </title>
<path fill="none" stroke="black" stroke-dasharray="5,2" d="M1169.9,-180C1197.46,-180 1220.74,-180 1220.74,-180 1220.74,-180 1220.74,-205.72 1220.74,-205.72"/>
<polygon fill="black" stroke="black" points="1217.24,-205.72 1220.74,-215.72 1224.24,-205.72 1217.24,-205.72"/>
</g>
<!-- ContextExternalToolService  -->
<g id="node7" class="node">
<title>ContextExternalToolService </title>
<polygon fill="#fb8072" stroke="black" points="1170.68,-252 991.32,-252 991.32,-216 1170.68,-216 1170.68,-252"/>
<text text-anchor="middle" x="1081" y="-229.8" font-family="Times,serif" font-size="14.00">ContextExternalToolService </text>
</g>
<!-- ContextExternalToolModule&#45;&gt;ContextExternalToolService  -->
<g id="edge6" class="edge">
<title>ContextExternalToolModule&#45;&gt;ContextExternalToolService </title>
<path fill="none" stroke="black" stroke-dasharray="5,2" d="M1081,-187.11C1081,-187.11 1081,-205.99 1081,-205.99"/>
<polygon fill="black" stroke="black" points="1077.5,-205.99 1081,-215.99 1084.5,-205.99 1077.5,-205.99"/>
</g>
<!-- ContextExternalToolValidationService  -->
<g id="node8" class="node">
<title>ContextExternalToolValidationService </title>
<polygon fill="#fb8072" stroke="black" points="973.28,-252 734.72,-252 734.72,-216 973.28,-216 973.28,-252"/>
<text text-anchor="middle" x="854" y="-229.8" font-family="Times,serif" font-size="14.00">ContextExternalToolValidationService </text>
</g>
<!-- ContextExternalToolModule&#45;&gt;ContextExternalToolValidationService  -->
<g id="edge7" class="edge">
<title>ContextExternalToolModule&#45;&gt;ContextExternalToolValidationService </title>
<path fill="none" stroke="black" stroke-dasharray="5,2" d="M992.11,-180C943.13,-180 892.16,-180 892.16,-180 892.16,-180 892.16,-205.72 892.16,-205.72"/>
<polygon fill="black" stroke="black" points="888.66,-205.72 892.16,-215.72 895.66,-205.72 888.66,-205.72"/>
</g>
<!-- ContextExternalToolAuthorizableService -->
<g id="node9" class="node">
<title>ContextExternalToolAuthorizableService</title>
<ellipse fill="#fdb462" stroke="black" cx="799" cy="-104" rx="171.87" ry="18"/>
<text text-anchor="middle" x="799" y="-99.8" font-family="Times,serif" font-size="14.00">ContextExternalToolAuthorizableService</text>
</g>
<!-- ContextExternalToolAuthorizableService&#45;&gt;ContextExternalToolModule -->
<g id="edge8" class="edge">
<title>ContextExternalToolAuthorizableService&#45;&gt;ContextExternalToolModule</title>
<path fill="none" stroke="black" d="M813.39,-122.01C813.39,-138.05 813.39,-159 813.39,-159 813.39,-159 981.89,-159 981.89,-159"/>
<polygon fill="black" stroke="black" points="981.89,-162.5 991.89,-159 981.89,-155.5 981.89,-162.5"/>
</g>
<!-- ContextExternalToolService -->
<g id="node10" class="node">
<title>ContextExternalToolService</title>
<ellipse fill="#fdb462" stroke="black" cx="488" cy="-104" rx="121.55" ry="18"/>
<text text-anchor="middle" x="488" y="-99.8" font-family="Times,serif" font-size="14.00">ContextExternalToolService</text>
</g>
<!-- ContextExternalToolService&#45;&gt;ContextExternalToolModule -->
<g id="edge9" class="edge">
<title>ContextExternalToolService&#45;&gt;ContextExternalToolModule</title>
<path fill="none" stroke="black" d="M488,-122.27C488,-140.56 488,-166 488,-166 488,-166 982.22,-166 982.22,-166"/>
<polygon fill="black" stroke="black" points="982.22,-169.5 992.22,-166 982.22,-162.5 982.22,-169.5"/>
</g>
<!-- ContextExternalToolValidationService -->
<g id="node11" class="node">
<title>ContextExternalToolValidationService</title>
<ellipse fill="#fdb462" stroke="black" cx="186" cy="-104" rx="162.08" ry="18"/>
<text text-anchor="middle" x="186" y="-99.8" font-family="Times,serif" font-size="14.00">ContextExternalToolValidationService</text>
</g>
<!-- ContextExternalToolValidationService&#45;&gt;ContextExternalToolModule -->
<g id="edge10" class="edge">
<title>ContextExternalToolValidationService&#45;&gt;ContextExternalToolModule</title>
<path fill="none" stroke="black" d="M186,-122.13C186,-142.57 186,-173 186,-173 186,-173 981.91,-173 981.91,-173"/>
<polygon fill="black" stroke="black" points="981.91,-176.5 991.91,-173 981.91,-169.5 981.91,-176.5"/>
</g>
</g>
</svg>
