<?xml version="1.0" encoding="UTF-8" standalone="no"?>
<!DOCTYPE svg PUBLIC "-//W3C//DTD SVG 1.1//EN"
 "http://www.w3.org/Graphics/SVG/1.1/DTD/svg11.dtd">
<!-- Generated by graphviz version 2.47.0 (20210316.0004)
 -->
<!-- Title: dependencies Pages: 1 -->
<svg width="1625pt" height="284pt"
 viewBox="0.00 0.00 1625.00 284.00" xmlns="http://www.w3.org/2000/svg" xmlns:xlink="http://www.w3.org/1999/xlink">
<g id="graph0" class="graph" transform="scale(1 1) rotate(0) translate(4 280)">
<title>dependencies</title>
<polygon fill="white" stroke="transparent" points="-4,4 -4,-280 1621,-280 1621,4 -4,4"/>
<text text-anchor="start" x="787.51" y="-42.4" font-family="Times-12" font-weight="bold" font-size="14.00">Legend</text>
<polygon fill="#ffffb3" stroke="transparent" points="574.5,-10 574.5,-30 594.5,-30 594.5,-10 574.5,-10"/>
<text text-anchor="start" x="598.13" y="-15.4" font-family="Times-12" font-size="14.00"> &#160;Declarations</text>
<polygon fill="#8dd3c7" stroke="transparent" points="687.5,-10 687.5,-30 707.5,-30 707.5,-10 687.5,-10"/>
<text text-anchor="start" x="711.23" y="-15.4" font-family="Times-12" font-size="14.00"> &#160;Module</text>
<polygon fill="#80b1d3" stroke="transparent" points="773.5,-10 773.5,-30 793.5,-30 793.5,-10 773.5,-10"/>
<text text-anchor="start" x="797.28" y="-15.4" font-family="Times-12" font-size="14.00"> &#160;Bootstrap</text>
<polygon fill="#fdb462" stroke="transparent" points="870.5,-10 870.5,-30 890.5,-30 890.5,-10 870.5,-10"/>
<text text-anchor="start" x="894.17" y="-15.4" font-family="Times-12" font-size="14.00"> &#160;Providers</text>
<polygon fill="#fb8072" stroke="transparent" points="966.5,-10 966.5,-30 986.5,-30 986.5,-10 966.5,-10"/>
<text text-anchor="start" x="990.23" y="-15.4" font-family="Times-12" font-size="14.00"> &#160;Exports</text>
<g id="clust1" class="cluster">
<title>cluster_ContextExternalToolModule</title>
<polygon fill="none" stroke="black" stroke-dasharray="1,5" points="8,-70 8,-268 1609,-268 1609,-70 8,-70"/>
</g>
<g id="clust4" class="cluster">
<title>cluster_ContextExternalToolModule_exports</title>
<polygon fill="none" stroke="black" points="199,-208 199,-260 921,-260 921,-208 199,-208"/>
</g>
<g id="clust6" class="cluster">
<title>cluster_ContextExternalToolModule_providers</title>
<polygon fill="none" stroke="black" points="638,-78 638,-130 1601,-130 1601,-78 638,-78"/>
</g>
<g id="clust3" class="cluster">
<title>cluster_ContextExternalToolModule_imports</title>
<polygon fill="none" stroke="black" points="16,-78 16,-130 630,-130 630,-78 16,-78"/>
</g>
<!-- CommonToolModule -->
<g id="node1" class="node">
<title>CommonToolModule</title>
<polygon fill="#8dd3c7" stroke="black" points="622.11,-122 619.11,-126 598.11,-126 595.11,-122 483.89,-122 483.89,-86 622.11,-86 622.11,-122"/>
<text text-anchor="middle" x="553" y="-99.8" font-family="Times,serif" font-size="14.00">CommonToolModule</text>
</g>
<!-- ContextExternalToolModule -->
<g id="node5" class="node">
<title>ContextExternalToolModule</title>
<polygon fill="#8dd3c7" stroke="black" points="641.75,-187 638.75,-191 617.75,-191 614.75,-187 464.25,-187 464.25,-151 641.75,-151 641.75,-187"/>
<text text-anchor="middle" x="553" y="-164.8" font-family="Times,serif" font-size="14.00">ContextExternalToolModule</text>
</g>
<!-- CommonToolModule&#45;&gt;ContextExternalToolModule -->
<g id="edge1" class="edge">
<title>CommonToolModule&#45;&gt;ContextExternalToolModule</title>
<path fill="none" stroke="black" d="M553,-122.11C553,-122.11 553,-140.99 553,-140.99"/>
<polygon fill="black" stroke="black" points="549.5,-140.99 553,-150.99 556.5,-140.99 549.5,-140.99"/>
</g>
<!-- ExternalToolModule -->
<g id="node2" class="node">
<title>ExternalToolModule</title>
<polygon fill="#8dd3c7" stroke="black" points="465.92,-122 462.92,-126 441.92,-126 438.92,-122 332.08,-122 332.08,-86 465.92,-86 465.92,-122"/>
<text text-anchor="middle" x="399" y="-99.8" font-family="Times,serif" font-size="14.00">ExternalToolModule</text>
</g>
<!-- ExternalToolModule&#45;&gt;ContextExternalToolModule -->
<g id="edge2" class="edge">
<title>ExternalToolModule&#45;&gt;ContextExternalToolModule</title>
<path fill="none" stroke="black" d="M454.27,-122.01C454.27,-138.05 454.27,-159 454.27,-159 454.27,-159 455.26,-159 455.26,-159"/>
<polygon fill="black" stroke="black" points="454.1,-162.5 464.1,-159 454.1,-155.5 454.1,-162.5"/>
</g>
<!-- LoggerModule -->
<g id="node3" class="node">
<title>LoggerModule</title>
<polygon fill="#8dd3c7" stroke="black" points="313.98,-122 310.98,-126 289.98,-126 286.98,-122 214.02,-122 214.02,-86 313.98,-86 313.98,-122"/>
<text text-anchor="middle" x="264" y="-99.8" font-family="Times,serif" font-size="14.00">LoggerModule</text>
</g>
<!-- LoggerModule&#45;&gt;ContextExternalToolModule -->
<g id="edge3" class="edge">
<title>LoggerModule&#45;&gt;ContextExternalToolModule</title>
<path fill="none" stroke="black" d="M264,-122.27C264,-140.56 264,-166 264,-166 264,-166 453.93,-166 453.93,-166"/>
<polygon fill="black" stroke="black" points="453.93,-169.5 463.93,-166 453.93,-162.5 453.93,-169.5"/>
</g>
<!-- SchoolExternalToolModule -->
<g id="node4" class="node">
<title>SchoolExternalToolModule</title>
<polygon fill="#8dd3c7" stroke="black" points="196.3,-122 193.3,-126 172.3,-126 169.3,-122 23.7,-122 23.7,-86 196.3,-86 196.3,-122"/>
<text text-anchor="middle" x="110" y="-99.8" font-family="Times,serif" font-size="14.00">SchoolExternalToolModule</text>
</g>
<!-- SchoolExternalToolModule&#45;&gt;ContextExternalToolModule -->
<g id="edge4" class="edge">
<title>SchoolExternalToolModule&#45;&gt;ContextExternalToolModule</title>
<path fill="none" stroke="black" d="M110,-122.13C110,-142.57 110,-173 110,-173 110,-173 454.15,-173 454.15,-173"/>
<polygon fill="black" stroke="black" points="454.15,-176.5 464.15,-173 454.15,-169.5 454.15,-176.5"/>
</g>
<!-- ContextExternalToolAuthorizableService  -->
<g id="node6" class="node">
<title>ContextExternalToolAuthorizableService </title>
<polygon fill="#fb8072" stroke="black" points="913.26,-252 660.74,-252 660.74,-216 913.26,-216 913.26,-252"/>
<text text-anchor="middle" x="787" y="-229.8" font-family="Times,serif" font-size="14.00">ContextExternalToolAuthorizableService </text>
</g>
<!-- ContextExternalToolModule&#45;&gt;ContextExternalToolAuthorizableService  -->
<g id="edge5" class="edge">
<title>ContextExternalToolModule&#45;&gt;ContextExternalToolAuthorizableService </title>
<path fill="none" stroke="black" stroke-dasharray="5,2" d="M641.8,-180C708,-180 787,-180 787,-180 787,-180 787,-205.72 787,-205.72"/>
<polygon fill="black" stroke="black" points="783.5,-205.72 787,-215.72 790.5,-205.72 783.5,-205.72"/>
</g>
<!-- ContextExternalToolService  -->
<g id="node7" class="node">
<title>ContextExternalToolService </title>
<polygon fill="#fb8072" stroke="black" points="642.68,-252 463.32,-252 463.32,-216 642.68,-216 642.68,-252"/>
<text text-anchor="middle" x="553" y="-229.8" font-family="Times,serif" font-size="14.00">ContextExternalToolService </text>
</g>
<!-- ContextExternalToolModule&#45;&gt;ContextExternalToolService  -->
<g id="edge6" class="edge">
<title>ContextExternalToolModule&#45;&gt;ContextExternalToolService </title>
<path fill="none" stroke="black" stroke-dasharray="5,2" d="M553,-187.11C553,-187.11 553,-205.99 553,-205.99"/>
<polygon fill="black" stroke="black" points="549.5,-205.99 553,-215.99 556.5,-205.99 549.5,-205.99"/>
</g>
<!-- ContextExternalToolValidationService  -->
<g id="node8" class="node">
<title>ContextExternalToolValidationService </title>
<polygon fill="#fb8072" stroke="black" points="445.28,-252 206.72,-252 206.72,-216 445.28,-216 445.28,-252"/>
<text text-anchor="middle" x="326" y="-229.8" font-family="Times,serif" font-size="14.00">ContextExternalToolValidationService </text>
</g>
<!-- ContextExternalToolModule&#45;&gt;ContextExternalToolValidationService  -->
<g id="edge7" class="edge">
<title>ContextExternalToolModule&#45;&gt;ContextExternalToolValidationService </title>
<path fill="none" stroke="black" stroke-dasharray="5,2" d="M464.19,-180C425.51,-180 388.84,-180 388.84,-180 388.84,-180 388.84,-205.72 388.84,-205.72"/>
<polygon fill="black" stroke="black" points="385.34,-205.72 388.84,-215.72 392.34,-205.72 385.34,-205.72"/>
</g>
<!-- ContextExternalToolAuthorizableService -->
<g id="node9" class="node">
<title>ContextExternalToolAuthorizableService</title>
<ellipse fill="#fdb462" stroke="black" cx="1421" cy="-104" rx="171.87" ry="18"/>
<text text-anchor="middle" x="1421" y="-99.8" font-family="Times,serif" font-size="14.00">ContextExternalToolAuthorizableService</text>
</g>
<!-- ContextExternalToolAuthorizableService&#45;&gt;ContextExternalToolModule -->
<g id="edge8" class="edge">
<title>ContextExternalToolAuthorizableService&#45;&gt;ContextExternalToolModule</title>
<path fill="none" stroke="black" d="M1421,-122.13C1421,-142.57 1421,-173 1421,-173 1421,-173 651.81,-173 651.81,-173"/>
<polygon fill="black" stroke="black" points="651.81,-169.5 641.81,-173 651.81,-176.5 651.81,-169.5"/>
</g>
<!-- ContextExternalToolService -->
<g id="node10" class="node">
<title>ContextExternalToolService</title>
<ellipse fill="#fdb462" stroke="black" cx="1110" cy="-104" rx="121.55" ry="18"/>
<text text-anchor="middle" x="1110" y="-99.8" font-family="Times,serif" font-size="14.00">ContextExternalToolService</text>
</g>
<!-- ContextExternalToolService&#45;&gt;ContextExternalToolModule -->
<g id="edge9" class="edge">
<title>ContextExternalToolService&#45;&gt;ContextExternalToolModule</title>
<path fill="none" stroke="black" d="M1110,-122.27C1110,-140.56 1110,-166 1110,-166 1110,-166 651.87,-166 651.87,-166"/>
<polygon fill="black" stroke="black" points="651.87,-162.5 641.87,-166 651.87,-169.5 651.87,-162.5"/>
</g>
<!-- ContextExternalToolValidationService -->
<g id="node11" class="node">
<title>ContextExternalToolValidationService</title>
<ellipse fill="#fdb462" stroke="black" cx="808" cy="-104" rx="162.08" ry="18"/>
<text text-anchor="middle" x="808" y="-99.8" font-family="Times,serif" font-size="14.00">ContextExternalToolValidationService</text>
</g>
<!-- ContextExternalToolValidationService&#45;&gt;ContextExternalToolModule -->
<g id="edge10" class="edge">
<title>ContextExternalToolValidationService&#45;&gt;ContextExternalToolModule</title>
<path fill="none" stroke="black" d="M653.17,-109.47C653.17,-123.39 653.17,-159 653.17,-159 653.17,-159 652.06,-159 652.06,-159"/>
<polygon fill="black" stroke="black" points="652.06,-155.5 642.06,-159 652.06,-162.5 652.06,-155.5"/>
</g>
</g>
</svg>
