<?xml version="1.0" encoding="UTF-8" standalone="no"?>
<!DOCTYPE svg PUBLIC "-//W3C//DTD SVG 1.1//EN"
 "http://www.w3.org/Graphics/SVG/1.1/DTD/svg11.dtd">
<!-- Generated by graphviz version 2.47.0 (20210316.0004)
 -->
<!-- Title: dependencies Pages: 1 -->
<svg width="1283pt" height="284pt"
 viewBox="0.00 0.00 1283.00 284.00" xmlns="http://www.w3.org/2000/svg" xmlns:xlink="http://www.w3.org/1999/xlink">
<g id="graph0" class="graph" transform="scale(1 1) rotate(0) translate(4 280)">
<title>dependencies</title>
<polygon fill="white" stroke="transparent" points="-4,4 -4,-280 1279,-280 1279,4 -4,4"/>
<text text-anchor="start" x="616.51" y="-42.4" font-family="Times-12" font-weight="bold" font-size="14.00">Legend</text>
<polygon fill="#ffffb3" stroke="transparent" points="403.5,-10 403.5,-30 423.5,-30 423.5,-10 403.5,-10"/>
<text text-anchor="start" x="427.13" y="-15.4" font-family="Times-12" font-size="14.00"> &#160;Declarations</text>
<polygon fill="#8dd3c7" stroke="transparent" points="516.5,-10 516.5,-30 536.5,-30 536.5,-10 516.5,-10"/>
<text text-anchor="start" x="540.23" y="-15.4" font-family="Times-12" font-size="14.00"> &#160;Module</text>
<polygon fill="#80b1d3" stroke="transparent" points="602.5,-10 602.5,-30 622.5,-30 622.5,-10 602.5,-10"/>
<text text-anchor="start" x="626.28" y="-15.4" font-family="Times-12" font-size="14.00"> &#160;Bootstrap</text>
<polygon fill="#fdb462" stroke="transparent" points="699.5,-10 699.5,-30 719.5,-30 719.5,-10 699.5,-10"/>
<text text-anchor="start" x="723.17" y="-15.4" font-family="Times-12" font-size="14.00"> &#160;Providers</text>
<polygon fill="#fb8072" stroke="transparent" points="795.5,-10 795.5,-30 815.5,-30 815.5,-10 795.5,-10"/>
<text text-anchor="start" x="819.23" y="-15.4" font-family="Times-12" font-size="14.00"> &#160;Exports</text>
<g id="clust1" class="cluster">
<title>cluster_ContextExternalToolModule</title>
<polygon fill="none" stroke="black" stroke-dasharray="1,5" points="8,-70 8,-268 1267,-268 1267,-70 8,-70"/>
</g>
<g id="clust6" class="cluster">
<title>cluster_ContextExternalToolModule_providers</title>
<polygon fill="none" stroke="black" points="296,-78 296,-130 1259,-130 1259,-78 296,-78"/>
</g>
<g id="clust3" class="cluster">
<title>cluster_ContextExternalToolModule_imports</title>
<polygon fill="none" stroke="black" points="16,-78 16,-130 288,-130 288,-78 16,-78"/>
</g>
<g id="clust4" class="cluster">
<title>cluster_ContextExternalToolModule_exports</title>
<polygon fill="none" stroke="black" points="112,-208 112,-260 834,-260 834,-208 112,-208"/>
</g>
<!-- CommonToolModule -->
<g id="node1" class="node">
<title>CommonToolModule</title>
<polygon fill="#8dd3c7" stroke="black" points="280.11,-122 277.11,-126 256.11,-126 253.11,-122 141.89,-122 141.89,-86 280.11,-86 280.11,-122"/>
<text text-anchor="middle" x="211" y="-99.8" font-family="Times,serif" font-size="14.00">CommonToolModule</text>
</g>
<!-- ContextExternalToolModule -->
<g id="node3" class="node">
<title>ContextExternalToolModule</title>
<polygon fill="#8dd3c7" stroke="black" points="554.75,-187 551.75,-191 530.75,-191 527.75,-187 377.25,-187 377.25,-151 554.75,-151 554.75,-187"/>
<text text-anchor="middle" x="466" y="-164.8" font-family="Times,serif" font-size="14.00">ContextExternalToolModule</text>
</g>
<!-- CommonToolModule&#45;&gt;ContextExternalToolModule -->
<g id="edge1" class="edge">
<title>CommonToolModule&#45;&gt;ContextExternalToolModule</title>
<path fill="none" stroke="black" d="M211,-122.03C211,-138.4 211,-160 211,-160 211,-160 367.17,-160 367.17,-160"/>
<polygon fill="black" stroke="black" points="367.17,-163.5 377.17,-160 367.17,-156.5 367.17,-163.5"/>
</g>
<!-- LoggerModule -->
<g id="node2" class="node">
<title>LoggerModule</title>
<polygon fill="#8dd3c7" stroke="black" points="123.98,-122 120.98,-126 99.98,-126 96.98,-122 24.02,-122 24.02,-86 123.98,-86 123.98,-122"/>
<text text-anchor="middle" x="74" y="-99.8" font-family="Times,serif" font-size="14.00">LoggerModule</text>
</g>
<!-- LoggerModule&#45;&gt;ContextExternalToolModule -->
<g id="edge2" class="edge">
<title>LoggerModule&#45;&gt;ContextExternalToolModule</title>
<path fill="none" stroke="black" d="M71.81,-122.11C71.81,-141.34 71.81,-169 71.81,-169 71.81,-169 367.04,-169 367.04,-169"/>
<polygon fill="black" stroke="black" points="367.05,-172.5 377.04,-169 367.04,-165.5 367.05,-172.5"/>
</g>
<!-- ContextExternalToolAuthorizableService  -->
<g id="node4" class="node">
<title>ContextExternalToolAuthorizableService </title>
<polygon fill="#fb8072" stroke="black" points="826.26,-252 573.74,-252 573.74,-216 826.26,-216 826.26,-252"/>
<text text-anchor="middle" x="700" y="-229.8" font-family="Times,serif" font-size="14.00">ContextExternalToolAuthorizableService </text>
</g>
<!-- ContextExternalToolModule&#45;&gt;ContextExternalToolAuthorizableService  -->
<g id="edge3" class="edge">
<title>ContextExternalToolModule&#45;&gt;ContextExternalToolAuthorizableService </title>
<path fill="none" stroke="black" stroke-dasharray="5,2" d="M554.89,-178C580.16,-178 600.95,-178 600.95,-178 600.95,-178 600.95,-205.97 600.95,-205.97"/>
<polygon fill="black" stroke="black" points="597.45,-205.97 600.95,-215.97 604.45,-205.97 597.45,-205.97"/>
</g>
<!-- ContextExternalToolService  -->
<g id="node5" class="node">
<title>ContextExternalToolService </title>
<polygon fill="#fb8072" stroke="black" points="555.68,-252 376.32,-252 376.32,-216 555.68,-216 555.68,-252"/>
<text text-anchor="middle" x="466" y="-229.8" font-family="Times,serif" font-size="14.00">ContextExternalToolService </text>
</g>
<!-- ContextExternalToolModule&#45;&gt;ContextExternalToolService  -->
<g id="edge4" class="edge">
<title>ContextExternalToolModule&#45;&gt;ContextExternalToolService </title>
<path fill="none" stroke="black" stroke-dasharray="5,2" d="M466,-187.11C466,-187.11 466,-205.99 466,-205.99"/>
<polygon fill="black" stroke="black" points="462.5,-205.99 466,-215.99 469.5,-205.99 462.5,-205.99"/>
</g>
<!-- ContextExternalToolValidationService  -->
<g id="node6" class="node">
<title>ContextExternalToolValidationService </title>
<polygon fill="#fb8072" stroke="black" points="358.28,-252 119.72,-252 119.72,-216 358.28,-216 358.28,-252"/>
<text text-anchor="middle" x="239" y="-229.8" font-family="Times,serif" font-size="14.00">ContextExternalToolValidationService </text>
</g>
<!-- ContextExternalToolModule&#45;&gt;ContextExternalToolValidationService  -->
<g id="edge5" class="edge">
<title>ContextExternalToolModule&#45;&gt;ContextExternalToolValidationService </title>
<path fill="none" stroke="black" stroke-dasharray="5,2" d="M377.11,-178C351.85,-178 331.05,-178 331.05,-178 331.05,-178 331.05,-205.97 331.05,-205.97"/>
<polygon fill="black" stroke="black" points="327.55,-205.97 331.05,-215.97 334.55,-205.97 327.55,-205.97"/>
</g>
<!-- ContextExternalToolAuthorizableService -->
<g id="node7" class="node">
<title>ContextExternalToolAuthorizableService</title>
<ellipse fill="#fdb462" stroke="black" cx="1079" cy="-104" rx="171.87" ry="18"/>
<text text-anchor="middle" x="1079" y="-99.8" font-family="Times,serif" font-size="14.00">ContextExternalToolAuthorizableService</text>
</g>
<!-- ContextExternalToolAuthorizableService&#45;&gt;ContextExternalToolModule -->
<g id="edge6" class="edge">
<title>ContextExternalToolAuthorizableService&#45;&gt;ContextExternalToolModule</title>
<path fill="none" stroke="black" d="M1079,-122.11C1079,-141.34 1079,-169 1079,-169 1079,-169 564.81,-169 564.81,-169"/>
<polygon fill="black" stroke="black" points="564.81,-165.5 554.81,-169 564.81,-172.5 564.81,-165.5"/>
</g>
<!-- ContextExternalToolService -->
<g id="node8" class="node">
<title>ContextExternalToolService</title>
<ellipse fill="#fdb462" stroke="black" cx="768" cy="-104" rx="121.55" ry="18"/>
<text text-anchor="middle" x="768" y="-99.8" font-family="Times,serif" font-size="14.00">ContextExternalToolService</text>
</g>
<!-- ContextExternalToolService&#45;&gt;ContextExternalToolModule -->
<g id="edge7" class="edge">
<title>ContextExternalToolService&#45;&gt;ContextExternalToolModule</title>
<path fill="none" stroke="black" d="M736.43,-121.41C736.43,-137.85 736.43,-160 736.43,-160 736.43,-160 564.92,-160 564.92,-160"/>
<polygon fill="black" stroke="black" points="564.92,-156.5 554.92,-160 564.92,-163.5 564.92,-156.5"/>
</g>
<!-- ContextExternalToolValidationService -->
<g id="node9" class="node">
<title>ContextExternalToolValidationService</title>
<ellipse fill="#fdb462" stroke="black" cx="466" cy="-104" rx="162.08" ry="18"/>
<text text-anchor="middle" x="466" y="-99.8" font-family="Times,serif" font-size="14.00">ContextExternalToolValidationService</text>
</g>
<!-- ContextExternalToolValidationService&#45;&gt;ContextExternalToolModule -->
<g id="edge8" class="edge">
<title>ContextExternalToolValidationService&#45;&gt;ContextExternalToolModule</title>
<path fill="none" stroke="black" d="M466,-122.11C466,-122.11 466,-140.99 466,-140.99"/>
<polygon fill="black" stroke="black" points="462.5,-140.99 466,-150.99 469.5,-140.99 462.5,-140.99"/>
</g>
</g>
</svg>
