<?xml version="1.0" encoding="UTF-8" standalone="no"?>
<!DOCTYPE svg PUBLIC "-//W3C//DTD SVG 1.1//EN"
 "http://www.w3.org/Graphics/SVG/1.1/DTD/svg11.dtd">
<!-- Generated by graphviz version 2.47.0 (20210316.0004)
 -->
<!-- Title: dependencies Pages: 1 -->
<svg width="1838pt" height="284pt"
 viewBox="0.00 0.00 1838.00 284.00" xmlns="http://www.w3.org/2000/svg" xmlns:xlink="http://www.w3.org/1999/xlink">
<g id="graph0" class="graph" transform="scale(1 1) rotate(0) translate(4 280)">
<title>dependencies</title>
<polygon fill="white" stroke="transparent" points="-4,4 -4,-280 1834,-280 1834,4 -4,4"/>
<text text-anchor="start" x="894.01" y="-42.4" font-family="Times-12" font-weight="bold" font-size="14.00">Legend</text>
<polygon fill="#ffffb3" stroke="transparent" points="681,-10 681,-30 701,-30 701,-10 681,-10"/>
<text text-anchor="start" x="704.63" y="-15.4" font-family="Times-12" font-size="14.00"> &#160;Declarations</text>
<polygon fill="#8dd3c7" stroke="transparent" points="794,-10 794,-30 814,-30 814,-10 794,-10"/>
<text text-anchor="start" x="817.73" y="-15.4" font-family="Times-12" font-size="14.00"> &#160;Module</text>
<polygon fill="#80b1d3" stroke="transparent" points="880,-10 880,-30 900,-30 900,-10 880,-10"/>
<text text-anchor="start" x="903.78" y="-15.4" font-family="Times-12" font-size="14.00"> &#160;Bootstrap</text>
<polygon fill="#fdb462" stroke="transparent" points="977,-10 977,-30 997,-30 997,-10 977,-10"/>
<text text-anchor="start" x="1000.67" y="-15.4" font-family="Times-12" font-size="14.00"> &#160;Providers</text>
<polygon fill="#fb8072" stroke="transparent" points="1073,-10 1073,-30 1093,-30 1093,-10 1073,-10"/>
<text text-anchor="start" x="1096.73" y="-15.4" font-family="Times-12" font-size="14.00"> &#160;Exports</text>
<g id="clust1" class="cluster">
<title>cluster_ContextExternalToolModule</title>
<polygon fill="none" stroke="black" stroke-dasharray="1,5" points="8,-70 8,-268 1822,-268 1822,-70 8,-70"/>
</g>
<g id="clust4" class="cluster">
<title>cluster_ContextExternalToolModule_exports</title>
<polygon fill="none" stroke="black" points="712,-208 712,-260 1597,-260 1597,-208 712,-208"/>
</g>
<g id="clust3" class="cluster">
<title>cluster_ContextExternalToolModule_imports</title>
<polygon fill="none" stroke="black" points="1200,-78 1200,-130 1814,-130 1814,-78 1200,-78"/>
</g>
<g id="clust6" class="cluster">
<title>cluster_ContextExternalToolModule_providers</title>
<polygon fill="none" stroke="black" points="16,-78 16,-130 1192,-130 1192,-78 16,-78"/>
</g>
<!-- CommonToolModule -->
<g id="node1" class="node">
<title>CommonToolModule</title>
<polygon fill="#8dd3c7" stroke="black" points="1806.11,-122 1803.11,-126 1782.11,-126 1779.11,-122 1667.89,-122 1667.89,-86 1806.11,-86 1806.11,-122"/>
<text text-anchor="middle" x="1737" y="-99.8" font-family="Times,serif" font-size="14.00">CommonToolModule</text>
</g>
<!-- ContextExternalToolModule -->
<g id="node5" class="node">
<title>ContextExternalToolModule</title>
<polygon fill="#8dd3c7" stroke="black" points="1203.75,-187 1200.75,-191 1179.75,-191 1176.75,-187 1026.25,-187 1026.25,-151 1203.75,-151 1203.75,-187"/>
<text text-anchor="middle" x="1115" y="-164.8" font-family="Times,serif" font-size="14.00">ContextExternalToolModule</text>
</g>
<!-- CommonToolModule&#45;&gt;ContextExternalToolModule -->
<g id="edge1" class="edge">
<title>CommonToolModule&#45;&gt;ContextExternalToolModule</title>
<path fill="none" stroke="black" d="M1737,-122.13C1737,-142.57 1737,-173 1737,-173 1737,-173 1213.79,-173 1213.79,-173"/>
<polygon fill="black" stroke="black" points="1213.79,-169.5 1203.79,-173 1213.79,-176.5 1213.79,-169.5"/>
</g>
<!-- ExternalToolModule -->
<g id="node2" class="node">
<title>ExternalToolModule</title>
<polygon fill="#8dd3c7" stroke="black" points="1649.92,-122 1646.92,-126 1625.92,-126 1622.92,-122 1516.08,-122 1516.08,-86 1649.92,-86 1649.92,-122"/>
<text text-anchor="middle" x="1583" y="-99.8" font-family="Times,serif" font-size="14.00">ExternalToolModule</text>
</g>
<!-- ExternalToolModule&#45;&gt;ContextExternalToolModule -->
<g id="edge2" class="edge">
<title>ExternalToolModule&#45;&gt;ContextExternalToolModule</title>
<path fill="none" stroke="black" d="M1552.84,-122.27C1552.84,-140.56 1552.84,-166 1552.84,-166 1552.84,-166 1213.87,-166 1213.87,-166"/>
<polygon fill="black" stroke="black" points="1213.87,-162.5 1203.87,-166 1213.87,-169.5 1213.87,-162.5"/>
</g>
<!-- LoggerModule -->
<g id="node3" class="node">
<title>LoggerModule</title>
<polygon fill="#8dd3c7" stroke="black" points="1497.98,-122 1494.98,-126 1473.98,-126 1470.98,-122 1398.02,-122 1398.02,-86 1497.98,-86 1497.98,-122"/>
<text text-anchor="middle" x="1448" y="-99.8" font-family="Times,serif" font-size="14.00">LoggerModule</text>
</g>
<!-- LoggerModule&#45;&gt;ContextExternalToolModule -->
<g id="edge3" class="edge">
<title>LoggerModule&#45;&gt;ContextExternalToolModule</title>
<path fill="none" stroke="black" d="M1448,-122.01C1448,-138.05 1448,-159 1448,-159 1448,-159 1213.8,-159 1213.8,-159"/>
<polygon fill="black" stroke="black" points="1213.8,-155.5 1203.8,-159 1213.8,-162.5 1213.8,-155.5"/>
</g>
<!-- SchoolExternalToolModule -->
<g id="node4" class="node">
<title>SchoolExternalToolModule</title>
<polygon fill="#8dd3c7" stroke="black" points="1380.3,-122 1377.3,-126 1356.3,-126 1353.3,-122 1207.7,-122 1207.7,-86 1380.3,-86 1380.3,-122"/>
<text text-anchor="middle" x="1294" y="-99.8" font-family="Times,serif" font-size="14.00">SchoolExternalToolModule</text>
</g>
<!-- SchoolExternalToolModule&#45;&gt;ContextExternalToolModule -->
<g id="edge4" class="edge">
<title>SchoolExternalToolModule&#45;&gt;ContextExternalToolModule</title>
<path fill="none" stroke="black" d="M1207.82,-104C1199.4,-104 1193.9,-104 1193.9,-104 1193.9,-104 1193.9,-140.89 1193.9,-140.89"/>
<polygon fill="black" stroke="black" points="1190.4,-140.89 1193.9,-150.89 1197.4,-140.89 1190.4,-140.89"/>
</g>
<!-- ContextExternalToolAuthorizableService  -->
<g id="node6" class="node">
<title>ContextExternalToolAuthorizableService </title>
<polygon fill="#fb8072" stroke="black" points="1589.26,-252 1336.74,-252 1336.74,-216 1589.26,-216 1589.26,-252"/>
<text text-anchor="middle" x="1463" y="-229.8" font-family="Times,serif" font-size="14.00">ContextExternalToolAuthorizableService </text>
</g>
<!-- ContextExternalToolModule&#45;&gt;ContextExternalToolAuthorizableService  -->
<g id="edge5" class="edge">
<title>ContextExternalToolModule&#45;&gt;ContextExternalToolAuthorizableService </title>
<path fill="none" stroke="black" stroke-dasharray="5,2" d="M1203.9,-180C1273.43,-180 1358.39,-180 1358.39,-180 1358.39,-180 1358.39,-205.72 1358.39,-205.72"/>
<polygon fill="black" stroke="black" points="1354.89,-205.72 1358.39,-215.72 1361.89,-205.72 1354.89,-205.72"/>
</g>
<!-- ContextExternalToolService  -->
<g id="node7" class="node">
<title>ContextExternalToolService </title>
<polygon fill="#fb8072" stroke="black" points="1318.68,-252 1139.32,-252 1139.32,-216 1318.68,-216 1318.68,-252"/>
<text text-anchor="middle" x="1229" y="-229.8" font-family="Times,serif" font-size="14.00">ContextExternalToolService </text>
</g>
<!-- ContextExternalToolModule&#45;&gt;ContextExternalToolService  -->
<g id="edge6" class="edge">
<title>ContextExternalToolModule&#45;&gt;ContextExternalToolService </title>
<path fill="none" stroke="black" stroke-dasharray="5,2" d="M1171.52,-187.11C1171.52,-187.11 1171.52,-205.99 1171.52,-205.99"/>
<polygon fill="black" stroke="black" points="1168.02,-205.99 1171.52,-215.99 1175.02,-205.99 1168.02,-205.99"/>
</g>
<!-- ContextExternalToolValidationService  -->
<g id="node8" class="node">
<title>ContextExternalToolValidationService </title>
<polygon fill="#fb8072" stroke="black" points="1121.28,-252 882.72,-252 882.72,-216 1121.28,-216 1121.28,-252"/>
<text text-anchor="middle" x="1002" y="-229.8" font-family="Times,serif" font-size="14.00">ContextExternalToolValidationService </text>
</g>
<!-- ContextExternalToolModule&#45;&gt;ContextExternalToolValidationService  -->
<g id="edge7" class="edge">
<title>ContextExternalToolModule&#45;&gt;ContextExternalToolValidationService </title>
<path fill="none" stroke="black" stroke-dasharray="5,2" d="M1073.76,-187.11C1073.76,-187.11 1073.76,-205.99 1073.76,-205.99"/>
<polygon fill="black" stroke="black" points="1070.26,-205.99 1073.76,-215.99 1077.26,-205.99 1070.26,-205.99"/>
</g>
<!-- ToolReferenceService  -->
<g id="node9" class="node">
<title>ToolReferenceService </title>
<polygon fill="#fb8072" stroke="black" points="864.15,-252 719.85,-252 719.85,-216 864.15,-216 864.15,-252"/>
<text text-anchor="middle" x="792" y="-229.8" font-family="Times,serif" font-size="14.00">ToolReferenceService </text>
</g>
<!-- ContextExternalToolModule&#45;&gt;ToolReferenceService  -->
<g id="edge8" class="edge">
<title>ContextExternalToolModule&#45;&gt;ToolReferenceService </title>
<path fill="none" stroke="black" stroke-dasharray="5,2" d="M1026.03,-180C949.78,-180 852.2,-180 852.2,-180 852.2,-180 852.2,-205.72 852.2,-205.72"/>
<polygon fill="black" stroke="black" points="848.7,-205.72 852.2,-215.72 855.7,-205.72 848.7,-205.72"/>
</g>
<!-- ContextExternalToolAuthorizableService -->
<g id="node10" class="node">
<title>ContextExternalToolAuthorizableService</title>
<ellipse fill="#fdb462" stroke="black" cx="1012" cy="-104" rx="171.87" ry="18"/>
<text text-anchor="middle" x="1012" y="-99.8" font-family="Times,serif" font-size="14.00">ContextExternalToolAuthorizableService</text>
</g>
<!-- ContextExternalToolAuthorizableService&#45;&gt;ContextExternalToolModule -->
<g id="edge9" class="edge">
<title>ContextExternalToolAuthorizableService&#45;&gt;ContextExternalToolModule</title>
<path fill="none" stroke="black" d="M1105.03,-119.4C1105.03,-119.4 1105.03,-140.94 1105.03,-140.94"/>
<polygon fill="black" stroke="black" points="1101.53,-140.94 1105.03,-150.94 1108.53,-140.94 1101.53,-140.94"/>
</g>
<!-- ContextExternalToolService -->
<g id="node11" class="node">
<title>ContextExternalToolService</title>
<ellipse fill="#fdb462" stroke="black" cx="701" cy="-104" rx="121.55" ry="18"/>
<text text-anchor="middle" x="701" y="-99.8" font-family="Times,serif" font-size="14.00">ContextExternalToolService</text>
</g>
<!-- ContextExternalToolService&#45;&gt;ContextExternalToolModule -->
<g id="edge10" class="edge">
<title>ContextExternalToolService&#45;&gt;ContextExternalToolModule</title>
<path fill="none" stroke="black" d="M771.1,-118.74C771.1,-135.03 771.1,-159 771.1,-159 771.1,-159 1015.99,-159 1015.99,-159"/>
<polygon fill="black" stroke="black" points="1015.99,-162.5 1025.99,-159 1015.99,-155.5 1015.99,-162.5"/>
</g>
<!-- ContextExternalToolValidationService -->
<g id="node12" class="node">
<title>ContextExternalToolValidationService</title>
<ellipse fill="#fdb462" stroke="black" cx="399" cy="-104" rx="162.08" ry="18"/>
<text text-anchor="middle" x="399" y="-99.8" font-family="Times,serif" font-size="14.00">ContextExternalToolValidationService</text>
</g>
<!-- ContextExternalToolValidationService&#45;&gt;ContextExternalToolModule -->
<g id="edge11" class="edge">
<title>ContextExternalToolValidationService&#45;&gt;ContextExternalToolModule</title>
<path fill="none" stroke="black" d="M399,-122.27C399,-140.56 399,-166 399,-166 399,-166 1016.13,-166 1016.13,-166"/>
<polygon fill="black" stroke="black" points="1016.13,-169.5 1026.13,-166 1016.13,-162.5 1016.13,-169.5"/>
</g>
<!-- ToolReferenceService -->
<g id="node13" class="node">
<title>ToolReferenceService</title>
<ellipse fill="#fdb462" stroke="black" cx="121" cy="-104" rx="97.23" ry="18"/>
<text text-anchor="middle" x="121" y="-99.8" font-family="Times,serif" font-size="14.00">ToolReferenceService</text>
</g>
<!-- ToolReferenceService&#45;&gt;ContextExternalToolModule -->
<g id="edge12" class="edge">
<title>ToolReferenceService&#45;&gt;ContextExternalToolModule</title>
<path fill="none" stroke="black" d="M121,-122.13C121,-142.57 121,-173 121,-173 121,-173 1015.91,-173 1015.91,-173"/>
<polygon fill="black" stroke="black" points="1015.91,-176.5 1025.91,-173 1015.91,-169.5 1015.91,-176.5"/>
</g>
</g>
</svg>
