<?xml version="1.0" encoding="UTF-8" standalone="no"?>
<!DOCTYPE svg PUBLIC "-//W3C//DTD SVG 1.1//EN"
 "http://www.w3.org/Graphics/SVG/1.1/DTD/svg11.dtd">
<!-- Generated by graphviz version 2.47.0 (20210316.0004)
 -->
<!-- Title: dependencies Pages: 1 -->
<svg width="1962pt" height="284pt"
 viewBox="0.00 0.00 1962.00 284.00" xmlns="http://www.w3.org/2000/svg" xmlns:xlink="http://www.w3.org/1999/xlink">
<g id="graph0" class="graph" transform="scale(1 1) rotate(0) translate(4 280)">
<title>dependencies</title>
<polygon fill="white" stroke="transparent" points="-4,4 -4,-280 1958,-280 1958,4 -4,4"/>
<text text-anchor="start" x="956.01" y="-42.4" font-family="Times-12" font-weight="bold" font-size="14.00">Legend</text>
<polygon fill="#ffffb3" stroke="transparent" points="743,-10 743,-30 763,-30 763,-10 743,-10"/>
<text text-anchor="start" x="766.63" y="-15.4" font-family="Times-12" font-size="14.00"> &#160;Declarations</text>
<polygon fill="#8dd3c7" stroke="transparent" points="856,-10 856,-30 876,-30 876,-10 856,-10"/>
<text text-anchor="start" x="879.73" y="-15.4" font-family="Times-12" font-size="14.00"> &#160;Module</text>
<polygon fill="#80b1d3" stroke="transparent" points="942,-10 942,-30 962,-30 962,-10 942,-10"/>
<text text-anchor="start" x="965.78" y="-15.4" font-family="Times-12" font-size="14.00"> &#160;Bootstrap</text>
<polygon fill="#fdb462" stroke="transparent" points="1039,-10 1039,-30 1059,-30 1059,-10 1039,-10"/>
<text text-anchor="start" x="1062.67" y="-15.4" font-family="Times-12" font-size="14.00"> &#160;Providers</text>
<polygon fill="#fb8072" stroke="transparent" points="1135,-10 1135,-30 1155,-30 1155,-10 1135,-10"/>
<text text-anchor="start" x="1158.73" y="-15.4" font-family="Times-12" font-size="14.00"> &#160;Exports</text>
<g id="clust1" class="cluster">
<title>cluster_ContextExternalToolModule</title>
<polygon fill="none" stroke="black" stroke-dasharray="1,5" points="8,-70 8,-268 1946,-268 1946,-70 8,-70"/>
</g>
<g id="clust6" class="cluster">
<title>cluster_ContextExternalToolModule_providers</title>
<polygon fill="none" stroke="black" points="473,-78 473,-130 1938,-130 1938,-78 473,-78"/>
</g>
<g id="clust4" class="cluster">
<title>cluster_ContextExternalToolModule_exports</title>
<polygon fill="none" stroke="black" points="194,-208 194,-260 1298,-260 1298,-208 194,-208"/>
</g>
<g id="clust3" class="cluster">
<title>cluster_ContextExternalToolModule_imports</title>
<polygon fill="none" stroke="black" points="16,-78 16,-130 465,-130 465,-78 16,-78"/>
</g>
<!-- LoggerModule -->
<g id="node1" class="node">
<title>LoggerModule</title>
<polygon fill="#8dd3c7" stroke="black" points="456.98,-122 453.98,-126 432.98,-126 429.98,-122 357.02,-122 357.02,-86 456.98,-86 456.98,-122"/>
<text text-anchor="middle" x="407" y="-99.8" font-family="Times,serif" font-size="14.00">LoggerModule</text>
</g>
<!-- ContextExternalToolModule -->
<g id="node4" class="node">
<title>ContextExternalToolModule</title>
<polygon fill="#8dd3c7" stroke="black" points="791.75,-187 788.75,-191 767.75,-191 764.75,-187 614.25,-187 614.25,-151 791.75,-151 791.75,-187"/>
<text text-anchor="middle" x="703" y="-164.8" font-family="Times,serif" font-size="14.00">ContextExternalToolModule</text>
</g>
<!-- LoggerModule&#45;&gt;ContextExternalToolModule -->
<g id="edge1" class="edge">
<title>LoggerModule&#45;&gt;ContextExternalToolModule</title>
<path fill="none" stroke="black" d="M410.82,-122.24C410.82,-137.57 410.82,-157 410.82,-157 410.82,-157 604.15,-157 604.15,-157"/>
<polygon fill="black" stroke="black" points="604.15,-160.5 614.15,-157 604.15,-153.5 604.15,-160.5"/>
</g>
<!-- SchoolExternalToolModule -->
<g id="node2" class="node">
<title>SchoolExternalToolModule</title>
<polygon fill="#8dd3c7" stroke="black" points="339.3,-122 336.3,-126 315.3,-126 312.3,-122 166.7,-122 166.7,-86 339.3,-86 339.3,-122"/>
<text text-anchor="middle" x="253" y="-99.8" font-family="Times,serif" font-size="14.00">SchoolExternalToolModule</text>
</g>
<!-- SchoolExternalToolModule&#45;&gt;ContextExternalToolModule -->
<g id="edge2" class="edge">
<title>SchoolExternalToolModule&#45;&gt;ContextExternalToolModule</title>
<path fill="none" stroke="black" d="M270.41,-122.02C270.41,-139.37 270.41,-163 270.41,-163 270.41,-163 604.15,-163 604.15,-163"/>
<polygon fill="black" stroke="black" points="604.15,-166.5 614.15,-163 604.15,-159.5 604.15,-166.5"/>
</g>
<!-- ToolConfigModule -->
<g id="node3" class="node">
<title>ToolConfigModule</title>
<polygon fill="#8dd3c7" stroke="black" points="148.38,-122 145.38,-126 124.38,-126 121.38,-122 23.62,-122 23.62,-86 148.38,-86 148.38,-122"/>
<text text-anchor="middle" x="86" y="-99.8" font-family="Times,serif" font-size="14.00">ToolConfigModule</text>
</g>
<!-- ToolConfigModule&#45;&gt;ContextExternalToolModule -->
<g id="edge3" class="edge">
<title>ToolConfigModule&#45;&gt;ContextExternalToolModule</title>
<path fill="none" stroke="black" d="M86,-122.11C86,-141.34 86,-169 86,-169 86,-169 603.94,-169 603.94,-169"/>
<polygon fill="black" stroke="black" points="603.94,-172.5 613.94,-169 603.94,-165.5 603.94,-172.5"/>
</g>
<!-- ContextExternalToolAuthorizableService  -->
<g id="node5" class="node">
<title>ContextExternalToolAuthorizableService </title>
<polygon fill="#fb8072" stroke="black" points="1290.26,-252 1037.74,-252 1037.74,-216 1290.26,-216 1290.26,-252"/>
<text text-anchor="middle" x="1164" y="-229.8" font-family="Times,serif" font-size="14.00">ContextExternalToolAuthorizableService </text>
</g>
<!-- ContextExternalToolModule&#45;&gt;ContextExternalToolAuthorizableService  -->
<g id="edge4" class="edge">
<title>ContextExternalToolModule&#45;&gt;ContextExternalToolAuthorizableService </title>
<path fill="none" stroke="black" stroke-dasharray="5,2" d="M791.89,-175C925.85,-175 1164,-175 1164,-175 1164,-175 1164,-205.98 1164,-205.98"/>
<polygon fill="black" stroke="black" points="1160.5,-205.98 1164,-215.98 1167.5,-205.98 1160.5,-205.98"/>
</g>
<!-- ContextExternalToolService  -->
<g id="node6" class="node">
<title>ContextExternalToolService </title>
<polygon fill="#fb8072" stroke="black" points="1019.68,-252 840.32,-252 840.32,-216 1019.68,-216 1019.68,-252"/>
<text text-anchor="middle" x="930" y="-229.8" font-family="Times,serif" font-size="14.00">ContextExternalToolService </text>
</g>
<!-- ContextExternalToolModule&#45;&gt;ContextExternalToolService  -->
<g id="edge5" class="edge">
<title>ContextExternalToolModule&#45;&gt;ContextExternalToolService </title>
<path fill="none" stroke="black" stroke-dasharray="5,2" d="M792,-181C845.22,-181 902.59,-181 902.59,-181 902.59,-181 902.59,-205.76 902.59,-205.76"/>
<polygon fill="black" stroke="black" points="899.09,-205.76 902.59,-215.76 906.09,-205.76 899.09,-205.76"/>
</g>
<!-- ContextExternalToolValidationService  -->
<g id="node7" class="node">
<title>ContextExternalToolValidationService </title>
<polygon fill="#fb8072" stroke="black" points="822.28,-252 583.72,-252 583.72,-216 822.28,-216 822.28,-252"/>
<text text-anchor="middle" x="703" y="-229.8" font-family="Times,serif" font-size="14.00">ContextExternalToolValidationService </text>
</g>
<!-- ContextExternalToolModule&#45;&gt;ContextExternalToolValidationService  -->
<g id="edge6" class="edge">
<title>ContextExternalToolModule&#45;&gt;ContextExternalToolValidationService </title>
<path fill="none" stroke="black" stroke-dasharray="5,2" d="M703,-187.11C703,-187.11 703,-205.99 703,-205.99"/>
<polygon fill="black" stroke="black" points="699.5,-205.99 703,-215.99 706.5,-205.99 699.5,-205.99"/>
</g>
<!-- ToolConfigurationStatusService  -->
<g id="node8" class="node">
<title>ToolConfigurationStatusService </title>
<polygon fill="#fb8072" stroke="black" points="565.19,-252 364.81,-252 364.81,-216 565.19,-216 565.19,-252"/>
<text text-anchor="middle" x="465" y="-229.8" font-family="Times,serif" font-size="14.00">ToolConfigurationStatusService </text>
</g>
<!-- ContextExternalToolModule&#45;&gt;ToolConfigurationStatusService  -->
<g id="edge7" class="edge">
<title>ContextExternalToolModule&#45;&gt;ToolConfigurationStatusService </title>
<path fill="none" stroke="black" stroke-dasharray="5,2" d="M614.05,-181C568.7,-181 522.99,-181 522.99,-181 522.99,-181 522.99,-205.76 522.99,-205.76"/>
<polygon fill="black" stroke="black" points="519.49,-205.76 522.99,-215.76 526.49,-205.76 519.49,-205.76"/>
</g>
<!-- ToolReferenceService  -->
<g id="node9" class="node">
<title>ToolReferenceService </title>
<polygon fill="#fb8072" stroke="black" points="346.15,-252 201.85,-252 201.85,-216 346.15,-216 346.15,-252"/>
<text text-anchor="middle" x="274" y="-229.8" font-family="Times,serif" font-size="14.00">ToolReferenceService </text>
</g>
<!-- ContextExternalToolModule&#45;&gt;ToolReferenceService  -->
<g id="edge8" class="edge">
<title>ContextExternalToolModule&#45;&gt;ToolReferenceService </title>
<path fill="none" stroke="black" stroke-dasharray="5,2" d="M613.95,-175C507.26,-175 342.74,-175 342.74,-175 342.74,-175 342.74,-205.98 342.74,-205.98"/>
<polygon fill="black" stroke="black" points="339.24,-205.98 342.74,-215.98 346.24,-205.98 339.24,-205.98"/>
</g>
<!-- ContextExternalToolAuthorizableService -->
<g id="node10" class="node">
<title>ContextExternalToolAuthorizableService</title>
<ellipse fill="#fdb462" stroke="black" cx="1758" cy="-104" rx="171.87" ry="18"/>
<text text-anchor="middle" x="1758" y="-99.8" font-family="Times,serif" font-size="14.00">ContextExternalToolAuthorizableService</text>
</g>
<!-- ContextExternalToolAuthorizableService&#45;&gt;ContextExternalToolModule -->
<g id="edge9" class="edge">
<title>ContextExternalToolAuthorizableService&#45;&gt;ContextExternalToolModule</title>
<path fill="none" stroke="black" d="M1758,-122.11C1758,-141.34 1758,-169 1758,-169 1758,-169 802.04,-169 802.04,-169"/>
<polygon fill="black" stroke="black" points="802.04,-165.5 792.04,-169 802.04,-172.5 802.04,-165.5"/>
</g>
<!-- ContextExternalToolService -->
<g id="node11" class="node">
<title>ContextExternalToolService</title>
<ellipse fill="#fdb462" stroke="black" cx="1447" cy="-104" rx="121.55" ry="18"/>
<text text-anchor="middle" x="1447" y="-99.8" font-family="Times,serif" font-size="14.00">ContextExternalToolService</text>
</g>
<!-- ContextExternalToolService&#45;&gt;ContextExternalToolModule -->
<g id="edge10" class="edge">
<title>ContextExternalToolService&#45;&gt;ContextExternalToolModule</title>
<path fill="none" stroke="black" d="M1447,-122.02C1447,-139.37 1447,-163 1447,-163 1447,-163 802,-163 802,-163"/>
<polygon fill="black" stroke="black" points="802,-159.5 792,-163 802,-166.5 802,-159.5"/>
</g>
<!-- ContextExternalToolValidationService -->
<g id="node12" class="node">
<title>ContextExternalToolValidationService</title>
<ellipse fill="#fdb462" stroke="black" cx="1145" cy="-104" rx="162.08" ry="18"/>
<text text-anchor="middle" x="1145" y="-99.8" font-family="Times,serif" font-size="14.00">ContextExternalToolValidationService</text>
</g>
<!-- ContextExternalToolValidationService&#45;&gt;ContextExternalToolModule -->
<g id="edge11" class="edge">
<title>ContextExternalToolValidationService&#45;&gt;ContextExternalToolModule</title>
<path fill="none" stroke="black" d="M1001.27,-112.75C1001.27,-127.81 1001.27,-157 1001.27,-157 1001.27,-157 802.09,-157 802.09,-157"/>
<polygon fill="black" stroke="black" points="802.09,-153.5 792.09,-157 802.09,-160.5 802.09,-153.5"/>
</g>
<!-- ToolConfigurationStatusService -->
<g id="node13" class="node">
<title>ToolConfigurationStatusService</title>
<ellipse fill="#fdb462" stroke="black" cx="829" cy="-104" rx="136.03" ry="18"/>
<text text-anchor="middle" x="829" y="-99.8" font-family="Times,serif" font-size="14.00">ToolConfigurationStatusService</text>
</g>
<!-- ToolConfigurationStatusService&#45;&gt;ContextExternalToolModule -->
<g id="edge12" class="edge">
<title>ToolConfigurationStatusService&#45;&gt;ContextExternalToolModule</title>
<path fill="none" stroke="black" d="M742.43,-118.1C742.43,-118.1 742.43,-140.72 742.43,-140.72"/>
<polygon fill="black" stroke="black" points="738.93,-140.72 742.43,-150.72 745.93,-140.72 738.93,-140.72"/>
</g>
<!-- ToolReferenceService -->
<g id="node14" class="node">
<title>ToolReferenceService</title>
<ellipse fill="#fdb462" stroke="black" cx="578" cy="-104" rx="97.23" ry="18"/>
<text text-anchor="middle" x="578" y="-99.8" font-family="Times,serif" font-size="14.00">ToolReferenceService</text>
</g>
<!-- ToolReferenceService&#45;&gt;ContextExternalToolModule -->
<g id="edge13" class="edge">
<title>ToolReferenceService&#45;&gt;ContextExternalToolModule</title>
<path fill="none" stroke="black" d="M644.74,-117.15C644.74,-117.15 644.74,-140.69 644.74,-140.69"/>
<polygon fill="black" stroke="black" points="641.24,-140.69 644.74,-150.69 648.24,-140.69 641.24,-140.69"/>
</g>
</g>
</svg>
