<?xml version="1.0" encoding="UTF-8" standalone="no"?>
<!DOCTYPE svg PUBLIC "-//W3C//DTD SVG 1.1//EN"
 "http://www.w3.org/Graphics/SVG/1.1/DTD/svg11.dtd">
<!-- Generated by graphviz version 2.47.0 (20210316.0004)
 -->
<!-- Title: dependencies Pages: 1 -->
<svg width="2177pt" height="284pt"
 viewBox="0.00 0.00 2177.00 284.00" xmlns="http://www.w3.org/2000/svg" xmlns:xlink="http://www.w3.org/1999/xlink">
<g id="graph0" class="graph" transform="scale(1 1) rotate(0) translate(4 280)">
<title>dependencies</title>
<polygon fill="white" stroke="transparent" points="-4,4 -4,-280 2173,-280 2173,4 -4,4"/>
<text text-anchor="start" x="1063.51" y="-42.4" font-family="Times-12" font-weight="bold" font-size="14.00">Legend</text>
<polygon fill="#ffffb3" stroke="transparent" points="850.5,-10 850.5,-30 870.5,-30 870.5,-10 850.5,-10"/>
<text text-anchor="start" x="874.13" y="-15.4" font-family="Times-12" font-size="14.00"> &#160;Declarations</text>
<polygon fill="#8dd3c7" stroke="transparent" points="963.5,-10 963.5,-30 983.5,-30 983.5,-10 963.5,-10"/>
<text text-anchor="start" x="987.23" y="-15.4" font-family="Times-12" font-size="14.00"> &#160;Module</text>
<polygon fill="#80b1d3" stroke="transparent" points="1049.5,-10 1049.5,-30 1069.5,-30 1069.5,-10 1049.5,-10"/>
<text text-anchor="start" x="1073.28" y="-15.4" font-family="Times-12" font-size="14.00"> &#160;Bootstrap</text>
<polygon fill="#fdb462" stroke="transparent" points="1146.5,-10 1146.5,-30 1166.5,-30 1166.5,-10 1146.5,-10"/>
<text text-anchor="start" x="1170.17" y="-15.4" font-family="Times-12" font-size="14.00"> &#160;Providers</text>
<polygon fill="#fb8072" stroke="transparent" points="1242.5,-10 1242.5,-30 1262.5,-30 1262.5,-10 1242.5,-10"/>
<text text-anchor="start" x="1266.23" y="-15.4" font-family="Times-12" font-size="14.00"> &#160;Exports</text>
<g id="clust1" class="cluster">
<title>cluster_ContextExternalToolModule</title>
<polygon fill="none" stroke="black" stroke-dasharray="1,5" points="8,-70 8,-268 2161,-268 2161,-70 8,-70"/>
</g>
<g id="clust3" class="cluster">
<title>cluster_ContextExternalToolModule_imports</title>
<polygon fill="none" stroke="black" points="1396,-78 1396,-130 2153,-130 2153,-78 1396,-78"/>
</g>
<g id="clust6" class="cluster">
<title>cluster_ContextExternalToolModule_providers</title>
<polygon fill="none" stroke="black" points="16,-78 16,-130 1388,-130 1388,-78 16,-78"/>
</g>
<g id="clust4" class="cluster">
<title>cluster_ContextExternalToolModule_exports</title>
<polygon fill="none" stroke="black" points="897,-208 897,-260 1932,-260 1932,-208 897,-208"/>
</g>
<!-- CommonToolModule -->
<g id="node1" class="node">
<title>CommonToolModule</title>
<polygon fill="#8dd3c7" stroke="black" points="2145.11,-122 2142.11,-126 2121.11,-126 2118.11,-122 2006.89,-122 2006.89,-86 2145.11,-86 2145.11,-122"/>
<text text-anchor="middle" x="2076" y="-99.8" font-family="Times,serif" font-size="14.00">CommonToolModule</text>
</g>
<!-- ContextExternalToolModule -->
<g id="node6" class="node">
<title>ContextExternalToolModule</title>
<polygon fill="#8dd3c7" stroke="black" points="1425.75,-187 1422.75,-191 1401.75,-191 1398.75,-187 1248.25,-187 1248.25,-151 1425.75,-151 1425.75,-187"/>
<text text-anchor="middle" x="1337" y="-164.8" font-family="Times,serif" font-size="14.00">ContextExternalToolModule</text>
</g>
<!-- CommonToolModule&#45;&gt;ContextExternalToolModule -->
<g id="edge1" class="edge">
<title>CommonToolModule&#45;&gt;ContextExternalToolModule</title>
<path fill="none" stroke="black" d="M2076,-122.22C2076,-142.37 2076,-172 2076,-172 2076,-172 1435.77,-172 1435.77,-172"/>
<polygon fill="black" stroke="black" points="1435.77,-168.5 1425.77,-172 1435.77,-175.5 1435.77,-168.5"/>
</g>
<!-- ExternalToolModule -->
<g id="node2" class="node">
<title>ExternalToolModule</title>
<polygon fill="#8dd3c7" stroke="black" points="1988.92,-122 1985.92,-126 1964.92,-126 1961.92,-122 1855.08,-122 1855.08,-86 1988.92,-86 1988.92,-122"/>
<text text-anchor="middle" x="1922" y="-99.8" font-family="Times,serif" font-size="14.00">ExternalToolModule</text>
</g>
<!-- ExternalToolModule&#45;&gt;ContextExternalToolModule -->
<g id="edge2" class="edge">
<title>ExternalToolModule&#45;&gt;ContextExternalToolModule</title>
<path fill="none" stroke="black" d="M1889.84,-122.22C1889.84,-140.83 1889.84,-167 1889.84,-167 1889.84,-167 1435.82,-167 1435.82,-167"/>
<polygon fill="black" stroke="black" points="1435.82,-163.5 1425.82,-167 1435.82,-170.5 1435.82,-163.5"/>
</g>
<!-- LoggerModule -->
<g id="node3" class="node">
<title>LoggerModule</title>
<polygon fill="#8dd3c7" stroke="black" points="1836.98,-122 1833.98,-126 1812.98,-126 1809.98,-122 1737.02,-122 1737.02,-86 1836.98,-86 1836.98,-122"/>
<text text-anchor="middle" x="1787" y="-99.8" font-family="Times,serif" font-size="14.00">LoggerModule</text>
</g>
<!-- LoggerModule&#45;&gt;ContextExternalToolModule -->
<g id="edge3" class="edge">
<title>LoggerModule&#45;&gt;ContextExternalToolModule</title>
<path fill="none" stroke="black" d="M1787,-122.03C1787,-139.06 1787,-162 1787,-162 1787,-162 1435.91,-162 1435.91,-162"/>
<polygon fill="black" stroke="black" points="1435.91,-158.5 1425.91,-162 1435.91,-165.5 1435.91,-158.5"/>
</g>
<!-- SchoolExternalToolModule -->
<g id="node4" class="node">
<title>SchoolExternalToolModule</title>
<polygon fill="#8dd3c7" stroke="black" points="1719.3,-122 1716.3,-126 1695.3,-126 1692.3,-122 1546.7,-122 1546.7,-86 1719.3,-86 1719.3,-122"/>
<text text-anchor="middle" x="1633" y="-99.8" font-family="Times,serif" font-size="14.00">SchoolExternalToolModule</text>
</g>
<!-- SchoolExternalToolModule&#45;&gt;ContextExternalToolModule -->
<g id="edge4" class="edge">
<title>SchoolExternalToolModule&#45;&gt;ContextExternalToolModule</title>
<path fill="none" stroke="black" d="M1600.34,-122.24C1600.34,-137.57 1600.34,-157 1600.34,-157 1600.34,-157 1435.79,-157 1435.79,-157"/>
<polygon fill="black" stroke="black" points="1435.79,-153.5 1425.79,-157 1435.79,-160.5 1435.79,-153.5"/>
</g>
<!-- ToolConfigModule -->
<g id="node5" class="node">
<title>ToolConfigModule</title>
<polygon fill="#8dd3c7" stroke="black" points="1528.38,-122 1525.38,-126 1504.38,-126 1501.38,-122 1403.62,-122 1403.62,-86 1528.38,-86 1528.38,-122"/>
<text text-anchor="middle" x="1466" y="-99.8" font-family="Times,serif" font-size="14.00">ToolConfigModule</text>
</g>
<!-- ToolConfigModule&#45;&gt;ContextExternalToolModule -->
<g id="edge5" class="edge">
<title>ToolConfigModule&#45;&gt;ContextExternalToolModule</title>
<path fill="none" stroke="black" d="M1414.72,-122.11C1414.72,-122.11 1414.72,-140.99 1414.72,-140.99"/>
<polygon fill="black" stroke="black" points="1411.22,-140.99 1414.72,-150.99 1418.22,-140.99 1411.22,-140.99"/>
</g>
<!-- ContextExternalToolAuthorizableService  -->
<g id="node7" class="node">
<title>ContextExternalToolAuthorizableService </title>
<polygon fill="#fb8072" stroke="black" points="1924.26,-252 1671.74,-252 1671.74,-216 1924.26,-216 1924.26,-252"/>
<text text-anchor="middle" x="1798" y="-229.8" font-family="Times,serif" font-size="14.00">ContextExternalToolAuthorizableService </text>
</g>
<!-- ContextExternalToolModule&#45;&gt;ContextExternalToolAuthorizableService  -->
<g id="edge6" class="edge">
<title>ContextExternalToolModule&#45;&gt;ContextExternalToolAuthorizableService </title>
<path fill="none" stroke="black" stroke-dasharray="5,2" d="M1426.05,-177C1532.19,-177 1695.39,-177 1695.39,-177 1695.39,-177 1695.39,-205.96 1695.39,-205.96"/>
<polygon fill="black" stroke="black" points="1691.89,-205.96 1695.39,-215.96 1698.89,-205.96 1691.89,-205.96"/>
</g>
<!-- ContextExternalToolService  -->
<g id="node8" class="node">
<title>ContextExternalToolService </title>
<polygon fill="#fb8072" stroke="black" points="1653.68,-252 1474.32,-252 1474.32,-216 1653.68,-216 1653.68,-252"/>
<text text-anchor="middle" x="1564" y="-229.8" font-family="Times,serif" font-size="14.00">ContextExternalToolService </text>
</g>
<!-- ContextExternalToolModule&#45;&gt;ContextExternalToolService  -->
<g id="edge7" class="edge">
<title>ContextExternalToolModule&#45;&gt;ContextExternalToolService </title>
<path fill="none" stroke="black" stroke-dasharray="5,2" d="M1425.88,-182C1464.6,-182 1501.3,-182 1501.3,-182 1501.3,-182 1501.3,-205.81 1501.3,-205.81"/>
<polygon fill="black" stroke="black" points="1497.8,-205.81 1501.3,-215.81 1504.8,-205.81 1497.8,-205.81"/>
</g>
<!-- ContextExternalToolValidationService  -->
<g id="node9" class="node">
<title>ContextExternalToolValidationService </title>
<polygon fill="#fb8072" stroke="black" points="1456.28,-252 1217.72,-252 1217.72,-216 1456.28,-216 1456.28,-252"/>
<text text-anchor="middle" x="1337" y="-229.8" font-family="Times,serif" font-size="14.00">ContextExternalToolValidationService </text>
</g>
<!-- ContextExternalToolModule&#45;&gt;ContextExternalToolValidationService  -->
<g id="edge8" class="edge">
<title>ContextExternalToolModule&#45;&gt;ContextExternalToolValidationService </title>
<path fill="none" stroke="black" stroke-dasharray="5,2" d="M1337,-187.11C1337,-187.11 1337,-205.99 1337,-205.99"/>
<polygon fill="black" stroke="black" points="1333.5,-205.99 1337,-215.99 1340.5,-205.99 1333.5,-205.99"/>
</g>
<!-- ToolReferenceService  -->
<g id="node10" class="node">
<title>ToolReferenceService </title>
<polygon fill="#fb8072" stroke="black" points="1199.15,-252 1054.85,-252 1054.85,-216 1199.15,-216 1199.15,-252"/>
<text text-anchor="middle" x="1127" y="-229.8" font-family="Times,serif" font-size="14.00">ToolReferenceService </text>
</g>
<!-- ContextExternalToolModule&#45;&gt;ToolReferenceService  -->
<g id="edge9" class="edge">
<title>ContextExternalToolModule&#45;&gt;ToolReferenceService </title>
<path fill="none" stroke="black" stroke-dasharray="5,2" d="M1248.25,-182C1190.93,-182 1127,-182 1127,-182 1127,-182 1127,-205.81 1127,-205.81"/>
<polygon fill="black" stroke="black" points="1123.5,-205.81 1127,-215.81 1130.5,-205.81 1123.5,-205.81"/>
</g>
<!-- ToolVersionService  -->
<g id="node11" class="node">
<title>ToolVersionService </title>
<polygon fill="#fb8072" stroke="black" points="1037.24,-252 904.76,-252 904.76,-216 1037.24,-216 1037.24,-252"/>
<text text-anchor="middle" x="971" y="-229.8" font-family="Times,serif" font-size="14.00">ToolVersionService </text>
</g>
<!-- ContextExternalToolModule&#45;&gt;ToolVersionService  -->
<g id="edge10" class="edge">
<title>ContextExternalToolModule&#45;&gt;ToolVersionService </title>
<path fill="none" stroke="black" stroke-dasharray="5,2" d="M1248.25,-177C1156.73,-177 1027.29,-177 1027.29,-177 1027.29,-177 1027.29,-205.96 1027.29,-205.96"/>
<polygon fill="black" stroke="black" points="1023.79,-205.96 1027.29,-215.96 1030.79,-205.96 1023.79,-205.96"/>
</g>
<!-- ContextExternalToolAuthorizableService -->
<g id="node12" class="node">
<title>ContextExternalToolAuthorizableService</title>
<ellipse fill="#fdb462" stroke="black" cx="1208" cy="-104" rx="171.87" ry="18"/>
<text text-anchor="middle" x="1208" y="-99.8" font-family="Times,serif" font-size="14.00">ContextExternalToolAuthorizableService</text>
</g>
<!-- ContextExternalToolAuthorizableService&#45;&gt;ContextExternalToolModule -->
<g id="edge11" class="edge">
<title>ContextExternalToolAuthorizableService&#45;&gt;ContextExternalToolModule</title>
<path fill="none" stroke="black" d="M1314.03,-118.43C1314.03,-118.43 1314.03,-140.89 1314.03,-140.89"/>
<polygon fill="black" stroke="black" points="1310.53,-140.89 1314.03,-150.89 1317.53,-140.89 1310.53,-140.89"/>
</g>
<!-- ContextExternalToolService -->
<g id="node13" class="node">
<title>ContextExternalToolService</title>
<ellipse fill="#fdb462" stroke="black" cx="897" cy="-104" rx="121.55" ry="18"/>
<text text-anchor="middle" x="897" y="-99.8" font-family="Times,serif" font-size="14.00">ContextExternalToolService</text>
</g>
<!-- ContextExternalToolService&#45;&gt;ContextExternalToolModule -->
<g id="edge12" class="edge">
<title>ContextExternalToolService&#45;&gt;ContextExternalToolModule</title>
<path fill="none" stroke="black" d="M961.7,-119.33C961.7,-134.98 961.7,-157 961.7,-157 961.7,-157 1238.06,-157 1238.06,-157"/>
<polygon fill="black" stroke="black" points="1238.06,-160.5 1248.06,-157 1238.06,-153.5 1238.06,-160.5"/>
</g>
<!-- ContextExternalToolValidationService -->
<g id="node14" class="node">
<title>ContextExternalToolValidationService</title>
<ellipse fill="#fdb462" stroke="black" cx="595" cy="-104" rx="162.08" ry="18"/>
<text text-anchor="middle" x="595" y="-99.8" font-family="Times,serif" font-size="14.00">ContextExternalToolValidationService</text>
</g>
<!-- ContextExternalToolValidationService&#45;&gt;ContextExternalToolModule -->
<g id="edge13" class="edge">
<title>ContextExternalToolValidationService&#45;&gt;ContextExternalToolModule</title>
<path fill="none" stroke="black" d="M595,-122.03C595,-139.06 595,-162 595,-162 595,-162 1238.23,-162 1238.23,-162"/>
<polygon fill="black" stroke="black" points="1238.23,-165.5 1248.23,-162 1238.23,-158.5 1238.23,-165.5"/>
</g>
<!-- ToolReferenceService -->
<g id="node15" class="node">
<title>ToolReferenceService</title>
<ellipse fill="#fdb462" stroke="black" cx="317" cy="-104" rx="97.23" ry="18"/>
<text text-anchor="middle" x="317" y="-99.8" font-family="Times,serif" font-size="14.00">ToolReferenceService</text>
</g>
<!-- ToolReferenceService&#45;&gt;ContextExternalToolModule -->
<g id="edge14" class="edge">
<title>ToolReferenceService&#45;&gt;ContextExternalToolModule</title>
<path fill="none" stroke="black" d="M317,-122.22C317,-140.83 317,-167 317,-167 317,-167 1237.82,-167 1237.82,-167"/>
<polygon fill="black" stroke="black" points="1237.82,-170.5 1247.82,-167 1237.82,-163.5 1237.82,-170.5"/>
</g>
<!-- ToolVersionService -->
<g id="node16" class="node">
<title>ToolVersionService</title>
<ellipse fill="#fdb462" stroke="black" cx="113" cy="-104" rx="88.6" ry="18"/>
<text text-anchor="middle" x="113" y="-99.8" font-family="Times,serif" font-size="14.00">ToolVersionService</text>
</g>
<!-- ToolVersionService&#45;&gt;ContextExternalToolModule -->
<g id="edge15" class="edge">
<title>ToolVersionService&#45;&gt;ContextExternalToolModule</title>
<path fill="none" stroke="black" d="M113,-122.22C113,-142.37 113,-172 113,-172 113,-172 1237.99,-172 1237.99,-172"/>
<polygon fill="black" stroke="black" points="1237.99,-175.5 1247.99,-172 1237.99,-168.5 1237.99,-175.5"/>
</g>
</g>
</svg>
