<?xml version="1.0" encoding="UTF-8" standalone="no"?>
<!DOCTYPE svg PUBLIC "-//W3C//DTD SVG 1.1//EN"
 "http://www.w3.org/Graphics/SVG/1.1/DTD/svg11.dtd">
<!-- Generated by graphviz version 2.47.0 (20210316.0004)
 -->
<!-- Title: dependencies Pages: 1 -->
<svg width="1962pt" height="284pt"
 viewBox="0.00 0.00 1962.00 284.00" xmlns="http://www.w3.org/2000/svg" xmlns:xlink="http://www.w3.org/1999/xlink">
<g id="graph0" class="graph" transform="scale(1 1) rotate(0) translate(4 280)">
<title>dependencies</title>
<polygon fill="white" stroke="transparent" points="-4,4 -4,-280 1958,-280 1958,4 -4,4"/>
<text text-anchor="start" x="956.01" y="-42.4" font-family="Times-12" font-weight="bold" font-size="14.00">Legend</text>
<polygon fill="#ffffb3" stroke="transparent" points="743,-10 743,-30 763,-30 763,-10 743,-10"/>
<text text-anchor="start" x="766.63" y="-15.4" font-family="Times-12" font-size="14.00"> &#160;Declarations</text>
<polygon fill="#8dd3c7" stroke="transparent" points="856,-10 856,-30 876,-30 876,-10 856,-10"/>
<text text-anchor="start" x="879.73" y="-15.4" font-family="Times-12" font-size="14.00"> &#160;Module</text>
<polygon fill="#80b1d3" stroke="transparent" points="942,-10 942,-30 962,-30 962,-10 942,-10"/>
<text text-anchor="start" x="965.78" y="-15.4" font-family="Times-12" font-size="14.00"> &#160;Bootstrap</text>
<polygon fill="#fdb462" stroke="transparent" points="1039,-10 1039,-30 1059,-30 1059,-10 1039,-10"/>
<text text-anchor="start" x="1062.67" y="-15.4" font-family="Times-12" font-size="14.00"> &#160;Providers</text>
<polygon fill="#fb8072" stroke="transparent" points="1135,-10 1135,-30 1155,-30 1155,-10 1135,-10"/>
<text text-anchor="start" x="1158.73" y="-15.4" font-family="Times-12" font-size="14.00"> &#160;Exports</text>
<g id="clust1" class="cluster">
<title>cluster_ContextExternalToolModule</title>
<polygon fill="none" stroke="black" stroke-dasharray="1,5" points="8,-70 8,-268 1946,-268 1946,-70 8,-70"/>
</g>
<g id="clust3" class="cluster">
<title>cluster_ContextExternalToolModule_imports</title>
<polygon fill="none" stroke="black" points="1489,-78 1489,-130 1938,-130 1938,-78 1489,-78"/>
</g>
<g id="clust6" class="cluster">
<title>cluster_ContextExternalToolModule_providers</title>
<polygon fill="none" stroke="black" points="16,-78 16,-130 1481,-130 1481,-78 16,-78"/>
</g>
<g id="clust4" class="cluster">
<title>cluster_ContextExternalToolModule_exports</title>
<polygon fill="none" stroke="black" points="636,-208 636,-260 1740,-260 1740,-208 636,-208"/>
</g>
<!-- LoggerModule -->
<g id="node1" class="node">
<title>LoggerModule</title>
<polygon fill="#8dd3c7" stroke="black" points="1929.98,-122 1926.98,-126 1905.98,-126 1902.98,-122 1830.02,-122 1830.02,-86 1929.98,-86 1929.98,-122"/>
<text text-anchor="middle" x="1880" y="-99.8" font-family="Times,serif" font-size="14.00">LoggerModule</text>
</g>
<!-- ContextExternalToolModule -->
<g id="node4" class="node">
<title>ContextExternalToolModule</title>
<polygon fill="#8dd3c7" stroke="black" points="1233.75,-187 1230.75,-191 1209.75,-191 1206.75,-187 1056.25,-187 1056.25,-151 1233.75,-151 1233.75,-187"/>
<text text-anchor="middle" x="1145" y="-164.8" font-family="Times,serif" font-size="14.00">ContextExternalToolModule</text>
</g>
<!-- LoggerModule&#45;&gt;ContextExternalToolModule -->
<g id="edge1" class="edge">
<title>LoggerModule&#45;&gt;ContextExternalToolModule</title>
<path fill="none" stroke="black" d="M1880,-122.11C1880,-141.34 1880,-169 1880,-169 1880,-169 1244.02,-169 1244.02,-169"/>
<polygon fill="black" stroke="black" points="1244.02,-165.5 1234.02,-169 1244.02,-172.5 1244.02,-165.5"/>
</g>
<!-- SchoolExternalToolModule -->
<g id="node2" class="node">
<title>SchoolExternalToolModule</title>
<polygon fill="#8dd3c7" stroke="black" points="1812.3,-122 1809.3,-126 1788.3,-126 1785.3,-122 1639.7,-122 1639.7,-86 1812.3,-86 1812.3,-122"/>
<text text-anchor="middle" x="1726" y="-99.8" font-family="Times,serif" font-size="14.00">SchoolExternalToolModule</text>
</g>
<!-- SchoolExternalToolModule&#45;&gt;ContextExternalToolModule -->
<g id="edge2" class="edge">
<title>SchoolExternalToolModule&#45;&gt;ContextExternalToolModule</title>
<path fill="none" stroke="black" d="M1686.11,-122.02C1686.11,-139.37 1686.11,-163 1686.11,-163 1686.11,-163 1244.05,-163 1244.05,-163"/>
<polygon fill="black" stroke="black" points="1244.05,-159.5 1234.05,-163 1244.05,-166.5 1244.05,-159.5"/>
</g>
<!-- ToolConfigModule -->
<g id="node3" class="node">
<title>ToolConfigModule</title>
<polygon fill="#8dd3c7" stroke="black" points="1621.38,-122 1618.38,-126 1597.38,-126 1594.38,-122 1496.62,-122 1496.62,-86 1621.38,-86 1621.38,-122"/>
<text text-anchor="middle" x="1559" y="-99.8" font-family="Times,serif" font-size="14.00">ToolConfigModule</text>
</g>
<!-- ToolConfigModule&#45;&gt;ContextExternalToolModule -->
<g id="edge3" class="edge">
<title>ToolConfigModule&#45;&gt;ContextExternalToolModule</title>
<path fill="none" stroke="black" d="M1559,-122.24C1559,-137.57 1559,-157 1559,-157 1559,-157 1243.81,-157 1243.81,-157"/>
<polygon fill="black" stroke="black" points="1243.81,-153.5 1233.81,-157 1243.81,-160.5 1243.81,-153.5"/>
</g>
<!-- ContextExternalToolAuthorizableService  -->
<g id="node5" class="node">
<title>ContextExternalToolAuthorizableService </title>
<polygon fill="#fb8072" stroke="black" points="1732.26,-252 1479.74,-252 1479.74,-216 1732.26,-216 1732.26,-252"/>
<text text-anchor="middle" x="1606" y="-229.8" font-family="Times,serif" font-size="14.00">ContextExternalToolAuthorizableService </text>
</g>
<!-- ContextExternalToolModule&#45;&gt;ContextExternalToolAuthorizableService  -->
<g id="edge4" class="edge">
<title>ContextExternalToolModule&#45;&gt;ContextExternalToolAuthorizableService </title>
<path fill="none" stroke="black" stroke-dasharray="5,2" d="M1233.8,-175C1335.46,-175 1488.09,-175 1488.09,-175 1488.09,-175 1488.09,-205.98 1488.09,-205.98"/>
<polygon fill="black" stroke="black" points="1484.59,-205.98 1488.09,-215.98 1491.59,-205.98 1484.59,-205.98"/>
</g>
<!-- ContextExternalToolService  -->
<g id="node6" class="node">
<title>ContextExternalToolService </title>
<polygon fill="#fb8072" stroke="black" points="1461.68,-252 1282.32,-252 1282.32,-216 1461.68,-216 1461.68,-252"/>
<text text-anchor="middle" x="1372" y="-229.8" font-family="Times,serif" font-size="14.00">ContextExternalToolService </text>
</g>
<!-- ContextExternalToolModule&#45;&gt;ContextExternalToolService  -->
<g id="edge5" class="edge">
<title>ContextExternalToolModule&#45;&gt;ContextExternalToolService </title>
<path fill="none" stroke="black" stroke-dasharray="5,2" d="M1234.06,-181C1297.66,-181 1372,-181 1372,-181 1372,-181 1372,-205.76 1372,-205.76"/>
<polygon fill="black" stroke="black" points="1368.5,-205.76 1372,-215.76 1375.5,-205.76 1368.5,-205.76"/>
</g>
<!-- ContextExternalToolValidationService  -->
<g id="node7" class="node">
<title>ContextExternalToolValidationService </title>
<polygon fill="#fb8072" stroke="black" points="1264.28,-252 1025.72,-252 1025.72,-216 1264.28,-216 1264.28,-252"/>
<text text-anchor="middle" x="1145" y="-229.8" font-family="Times,serif" font-size="14.00">ContextExternalToolValidationService </text>
</g>
<!-- ContextExternalToolModule&#45;&gt;ContextExternalToolValidationService  -->
<g id="edge6" class="edge">
<title>ContextExternalToolModule&#45;&gt;ContextExternalToolValidationService </title>
<path fill="none" stroke="black" stroke-dasharray="5,2" d="M1145,-187.11C1145,-187.11 1145,-205.99 1145,-205.99"/>
<polygon fill="black" stroke="black" points="1141.5,-205.99 1145,-215.99 1148.5,-205.99 1141.5,-205.99"/>
</g>
<!-- ToolConfigurationStatusService  -->
<g id="node8" class="node">
<title>ToolConfigurationStatusService </title>
<polygon fill="#fb8072" stroke="black" points="1007.19,-252 806.81,-252 806.81,-216 1007.19,-216 1007.19,-252"/>
<text text-anchor="middle" x="907" y="-229.8" font-family="Times,serif" font-size="14.00">ToolConfigurationStatusService </text>
</g>
<!-- ContextExternalToolModule&#45;&gt;ToolConfigurationStatusService  -->
<g id="edge7" class="edge">
<title>ContextExternalToolModule&#45;&gt;ToolConfigurationStatusService </title>
<path fill="none" stroke="black" stroke-dasharray="5,2" d="M1055.97,-181C999.85,-181 937.91,-181 937.91,-181 937.91,-181 937.91,-205.76 937.91,-205.76"/>
<polygon fill="black" stroke="black" points="934.41,-205.76 937.91,-215.76 941.41,-205.76 934.41,-205.76"/>
</g>
<!-- ToolReferenceService  -->
<g id="node9" class="node">
<title>ToolReferenceService </title>
<polygon fill="#fb8072" stroke="black" points="788.15,-252 643.85,-252 643.85,-216 788.15,-216 788.15,-252"/>
<text text-anchor="middle" x="716" y="-229.8" font-family="Times,serif" font-size="14.00">ToolReferenceService </text>
</g>
<!-- ContextExternalToolModule&#45;&gt;ToolReferenceService  -->
<g id="edge8" class="edge">
<title>ContextExternalToolModule&#45;&gt;ToolReferenceService </title>
<path fill="none" stroke="black" stroke-dasharray="5,2" d="M1056.11,-175C930.45,-175 716,-175 716,-175 716,-175 716,-205.98 716,-205.98"/>
<polygon fill="black" stroke="black" points="712.5,-205.98 716,-215.98 719.5,-205.98 712.5,-205.98"/>
</g>
<!-- ContextExternalToolAuthorizableService -->
<g id="node10" class="node">
<title>ContextExternalToolAuthorizableService</title>
<ellipse fill="#fdb462" stroke="black" cx="1301" cy="-104" rx="171.87" ry="18"/>
<text text-anchor="middle" x="1301" y="-99.8" font-family="Times,serif" font-size="14.00">ContextExternalToolAuthorizableService</text>
</g>
<!-- ContextExternalToolAuthorizableService&#45;&gt;ContextExternalToolModule -->
<g id="edge9" class="edge">
<title>ContextExternalToolAuthorizableService&#45;&gt;ContextExternalToolModule</title>
<path fill="none" stroke="black" d="M1181.47,-117.15C1181.47,-117.15 1181.47,-140.69 1181.47,-140.69"/>
<polygon fill="black" stroke="black" points="1177.97,-140.69 1181.47,-150.69 1184.97,-140.69 1177.97,-140.69"/>
</g>
<!-- ContextExternalToolService -->
<g id="node11" class="node">
<title>ContextExternalToolService</title>
<ellipse fill="#fdb462" stroke="black" cx="990" cy="-104" rx="121.55" ry="18"/>
<text text-anchor="middle" x="990" y="-99.8" font-family="Times,serif" font-size="14.00">ContextExternalToolService</text>
</g>
<!-- ContextExternalToolService&#45;&gt;ContextExternalToolModule -->
<g id="edge10" class="edge">
<title>ContextExternalToolService&#45;&gt;ContextExternalToolModule</title>
<path fill="none" stroke="black" d="M1083.82,-115.62C1083.82,-115.62 1083.82,-140.85 1083.82,-140.85"/>
<polygon fill="black" stroke="black" points="1080.32,-140.85 1083.82,-150.85 1087.32,-140.85 1080.32,-140.85"/>
</g>
<!-- ContextExternalToolValidationService -->
<g id="node12" class="node">
<title>ContextExternalToolValidationService</title>
<ellipse fill="#fdb462" stroke="black" cx="688" cy="-104" rx="162.08" ry="18"/>
<text text-anchor="middle" x="688" y="-99.8" font-family="Times,serif" font-size="14.00">ContextExternalToolValidationService</text>
</g>
<!-- ContextExternalToolValidationService&#45;&gt;ContextExternalToolModule -->
<g id="edge11" class="edge">
<title>ContextExternalToolValidationService&#45;&gt;ContextExternalToolModule</title>
<path fill="none" stroke="black" d="M828.47,-113.23C828.47,-128.42 828.47,-157 828.47,-157 828.47,-157 1045.99,-157 1045.99,-157"/>
<polygon fill="black" stroke="black" points="1045.99,-160.5 1055.99,-157 1045.99,-153.5 1045.99,-160.5"/>
</g>
<!-- ToolConfigurationStatusService -->
<g id="node13" class="node">
<title>ToolConfigurationStatusService</title>
<ellipse fill="#fdb462" stroke="black" cx="372" cy="-104" rx="136.03" ry="18"/>
<text text-anchor="middle" x="372" y="-99.8" font-family="Times,serif" font-size="14.00">ToolConfigurationStatusService</text>
</g>
<!-- ToolConfigurationStatusService&#45;&gt;ContextExternalToolModule -->
<g id="edge12" class="edge">
<title>ToolConfigurationStatusService&#45;&gt;ContextExternalToolModule</title>
<path fill="none" stroke="black" d="M372,-122.02C372,-139.37 372,-163 372,-163 372,-163 1045.95,-163 1045.95,-163"/>
<polygon fill="black" stroke="black" points="1045.95,-166.5 1055.95,-163 1045.95,-159.5 1045.95,-166.5"/>
</g>
<!-- ToolReferenceService -->
<g id="node14" class="node">
<title>ToolReferenceService</title>
<ellipse fill="#fdb462" stroke="black" cx="121" cy="-104" rx="97.23" ry="18"/>
<text text-anchor="middle" x="121" y="-99.8" font-family="Times,serif" font-size="14.00">ToolReferenceService</text>
</g>
<!-- ToolReferenceService&#45;&gt;ContextExternalToolModule -->
<g id="edge13" class="edge">
<title>ToolReferenceService&#45;&gt;ContextExternalToolModule</title>
<path fill="none" stroke="black" d="M121,-122.11C121,-141.34 121,-169 121,-169 121,-169 1045.92,-169 1045.92,-169"/>
<polygon fill="black" stroke="black" points="1045.92,-172.5 1055.92,-169 1045.92,-165.5 1045.92,-172.5"/>
</g>
</g>
</svg>
