<?xml version="1.0" encoding="UTF-8" standalone="no"?>
<!DOCTYPE svg PUBLIC "-//W3C//DTD SVG 1.1//EN"
 "http://www.w3.org/Graphics/SVG/1.1/DTD/svg11.dtd">
<!-- Generated by graphviz version 2.47.0 (20210316.0004)
 -->
<!-- Title: dependencies Pages: 1 -->
<svg width="1838pt" height="284pt"
 viewBox="0.00 0.00 1838.00 284.00" xmlns="http://www.w3.org/2000/svg" xmlns:xlink="http://www.w3.org/1999/xlink">
<g id="graph0" class="graph" transform="scale(1 1) rotate(0) translate(4 280)">
<title>dependencies</title>
<polygon fill="white" stroke="transparent" points="-4,4 -4,-280 1834,-280 1834,4 -4,4"/>
<text text-anchor="start" x="894.01" y="-42.4" font-family="Times-12" font-weight="bold" font-size="14.00">Legend</text>
<polygon fill="#ffffb3" stroke="transparent" points="681,-10 681,-30 701,-30 701,-10 681,-10"/>
<text text-anchor="start" x="704.63" y="-15.4" font-family="Times-12" font-size="14.00"> &#160;Declarations</text>
<polygon fill="#8dd3c7" stroke="transparent" points="794,-10 794,-30 814,-30 814,-10 794,-10"/>
<text text-anchor="start" x="817.73" y="-15.4" font-family="Times-12" font-size="14.00"> &#160;Module</text>
<polygon fill="#80b1d3" stroke="transparent" points="880,-10 880,-30 900,-30 900,-10 880,-10"/>
<text text-anchor="start" x="903.78" y="-15.4" font-family="Times-12" font-size="14.00"> &#160;Bootstrap</text>
<polygon fill="#fdb462" stroke="transparent" points="977,-10 977,-30 997,-30 997,-10 977,-10"/>
<text text-anchor="start" x="1000.67" y="-15.4" font-family="Times-12" font-size="14.00"> &#160;Providers</text>
<polygon fill="#fb8072" stroke="transparent" points="1073,-10 1073,-30 1093,-30 1093,-10 1073,-10"/>
<text text-anchor="start" x="1096.73" y="-15.4" font-family="Times-12" font-size="14.00"> &#160;Exports</text>
<g id="clust1" class="cluster">
<title>cluster_ContextExternalToolModule</title>
<polygon fill="none" stroke="black" stroke-dasharray="1,5" points="8,-70 8,-268 1822,-268 1822,-70 8,-70"/>
</g>
<g id="clust6" class="cluster">
<title>cluster_ContextExternalToolModule_providers</title>
<polygon fill="none" stroke="black" points="638,-78 638,-130 1814,-130 1814,-78 638,-78"/>
</g>
<g id="clust4" class="cluster">
<title>cluster_ContextExternalToolModule_exports</title>
<polygon fill="none" stroke="black" points="245,-208 245,-260 1130,-260 1130,-208 245,-208"/>
</g>
<g id="clust3" class="cluster">
<title>cluster_ContextExternalToolModule_imports</title>
<polygon fill="none" stroke="black" points="16,-78 16,-130 630,-130 630,-78 16,-78"/>
</g>
<!-- CommonToolModule -->
<g id="node1" class="node">
<title>CommonToolModule</title>
<polygon fill="#8dd3c7" stroke="black" points="622.11,-122 619.11,-126 598.11,-126 595.11,-122 483.89,-122 483.89,-86 622.11,-86 622.11,-122"/>
<text text-anchor="middle" x="553" y="-99.8" font-family="Times,serif" font-size="14.00">CommonToolModule</text>
</g>
<!-- ContextExternalToolModule -->
<g id="node5" class="node">
<title>ContextExternalToolModule</title>
<polygon fill="#8dd3c7" stroke="black" points="736.75,-187 733.75,-191 712.75,-191 709.75,-187 559.25,-187 559.25,-151 736.75,-151 736.75,-187"/>
<text text-anchor="middle" x="648" y="-164.8" font-family="Times,serif" font-size="14.00">ContextExternalToolModule</text>
</g>
<!-- CommonToolModule&#45;&gt;ContextExternalToolModule -->
<g id="edge1" class="edge">
<title>CommonToolModule&#45;&gt;ContextExternalToolModule</title>
<path fill="none" stroke="black" d="M590.59,-122.11C590.59,-122.11 590.59,-140.99 590.59,-140.99"/>
<polygon fill="black" stroke="black" points="587.09,-140.99 590.59,-150.99 594.09,-140.99 587.09,-140.99"/>
</g>
<!-- ExternalToolModule -->
<g id="node2" class="node">
<title>ExternalToolModule</title>
<polygon fill="#8dd3c7" stroke="black" points="465.92,-122 462.92,-126 441.92,-126 438.92,-122 332.08,-122 332.08,-86 465.92,-86 465.92,-122"/>
<text text-anchor="middle" x="399" y="-99.8" font-family="Times,serif" font-size="14.00">ExternalToolModule</text>
</g>
<!-- ExternalToolModule&#45;&gt;ContextExternalToolModule -->
<g id="edge2" class="edge">
<title>ExternalToolModule&#45;&gt;ContextExternalToolModule</title>
<path fill="none" stroke="black" d="M440.66,-122.01C440.66,-138.05 440.66,-159 440.66,-159 440.66,-159 549.17,-159 549.17,-159"/>
<polygon fill="black" stroke="black" points="549.17,-162.5 559.17,-159 549.17,-155.5 549.17,-162.5"/>
</g>
<!-- LoggerModule -->
<g id="node3" class="node">
<title>LoggerModule</title>
<polygon fill="#8dd3c7" stroke="black" points="313.98,-122 310.98,-126 289.98,-126 286.98,-122 214.02,-122 214.02,-86 313.98,-86 313.98,-122"/>
<text text-anchor="middle" x="264" y="-99.8" font-family="Times,serif" font-size="14.00">LoggerModule</text>
</g>
<!-- LoggerModule&#45;&gt;ContextExternalToolModule -->
<g id="edge3" class="edge">
<title>LoggerModule&#45;&gt;ContextExternalToolModule</title>
<path fill="none" stroke="black" d="M283.33,-122.27C283.33,-140.56 283.33,-166 283.33,-166 283.33,-166 548.79,-166 548.79,-166"/>
<polygon fill="black" stroke="black" points="548.79,-169.5 558.79,-166 548.79,-162.5 548.79,-169.5"/>
</g>
<!-- SchoolExternalToolModule -->
<g id="node4" class="node">
<title>SchoolExternalToolModule</title>
<polygon fill="#8dd3c7" stroke="black" points="196.3,-122 193.3,-126 172.3,-126 169.3,-122 23.7,-122 23.7,-86 196.3,-86 196.3,-122"/>
<text text-anchor="middle" x="110" y="-99.8" font-family="Times,serif" font-size="14.00">SchoolExternalToolModule</text>
</g>
<!-- SchoolExternalToolModule&#45;&gt;ContextExternalToolModule -->
<g id="edge4" class="edge">
<title>SchoolExternalToolModule&#45;&gt;ContextExternalToolModule</title>
<path fill="none" stroke="black" d="M110,-122.13C110,-142.57 110,-173 110,-173 110,-173 549.16,-173 549.16,-173"/>
<polygon fill="black" stroke="black" points="549.16,-176.5 559.16,-173 549.16,-169.5 549.16,-176.5"/>
</g>
<!-- ContextExternalToolAuthorizableService  -->
<g id="node6" class="node">
<title>ContextExternalToolAuthorizableService </title>
<polygon fill="#fb8072" stroke="black" points="1122.26,-252 869.74,-252 869.74,-216 1122.26,-216 1122.26,-252"/>
<text text-anchor="middle" x="996" y="-229.8" font-family="Times,serif" font-size="14.00">ContextExternalToolAuthorizableService </text>
</g>
<!-- ContextExternalToolModule&#45;&gt;ContextExternalToolAuthorizableService  -->
<g id="edge5" class="edge">
<title>ContextExternalToolModule&#45;&gt;ContextExternalToolAuthorizableService </title>
<path fill="none" stroke="black" stroke-dasharray="5,2" d="M737.17,-180C840.27,-180 996,-180 996,-180 996,-180 996,-205.72 996,-205.72"/>
<polygon fill="black" stroke="black" points="992.5,-205.72 996,-215.72 999.5,-205.72 992.5,-205.72"/>
</g>
<!-- ContextExternalToolService  -->
<g id="node7" class="node">
<title>ContextExternalToolService </title>
<polygon fill="#fb8072" stroke="black" points="851.68,-252 672.32,-252 672.32,-216 851.68,-216 851.68,-252"/>
<text text-anchor="middle" x="762" y="-229.8" font-family="Times,serif" font-size="14.00">ContextExternalToolService </text>
</g>
<!-- ContextExternalToolModule&#45;&gt;ContextExternalToolService  -->
<g id="edge6" class="edge">
<title>ContextExternalToolModule&#45;&gt;ContextExternalToolService </title>
<path fill="none" stroke="black" stroke-dasharray="5,2" d="M704.52,-187.11C704.52,-187.11 704.52,-205.99 704.52,-205.99"/>
<polygon fill="black" stroke="black" points="701.02,-205.99 704.52,-215.99 708.02,-205.99 701.02,-205.99"/>
</g>
<!-- ContextExternalToolValidationService  -->
<g id="node8" class="node">
<title>ContextExternalToolValidationService </title>
<polygon fill="#fb8072" stroke="black" points="654.28,-252 415.72,-252 415.72,-216 654.28,-216 654.28,-252"/>
<text text-anchor="middle" x="535" y="-229.8" font-family="Times,serif" font-size="14.00">ContextExternalToolValidationService </text>
</g>
<!-- ContextExternalToolModule&#45;&gt;ContextExternalToolValidationService  -->
<g id="edge7" class="edge">
<title>ContextExternalToolModule&#45;&gt;ContextExternalToolValidationService </title>
<path fill="none" stroke="black" stroke-dasharray="5,2" d="M606.76,-187.11C606.76,-187.11 606.76,-205.99 606.76,-205.99"/>
<polygon fill="black" stroke="black" points="603.26,-205.99 606.76,-215.99 610.26,-205.99 603.26,-205.99"/>
</g>
<!-- ToolReferenceService  -->
<g id="node9" class="node">
<title>ToolReferenceService </title>
<polygon fill="#fb8072" stroke="black" points="397.15,-252 252.85,-252 252.85,-216 397.15,-216 397.15,-252"/>
<text text-anchor="middle" x="325" y="-229.8" font-family="Times,serif" font-size="14.00">ToolReferenceService </text>
</g>
<!-- ContextExternalToolModule&#45;&gt;ToolReferenceService  -->
<g id="edge8" class="edge">
<title>ContextExternalToolModule&#45;&gt;ToolReferenceService </title>
<path fill="none" stroke="black" stroke-dasharray="5,2" d="M559.17,-180C476.12,-180 364.81,-180 364.81,-180 364.81,-180 364.81,-205.72 364.81,-205.72"/>
<polygon fill="black" stroke="black" points="361.31,-205.72 364.81,-215.72 368.31,-205.72 361.31,-205.72"/>
</g>
<!-- ContextExternalToolAuthorizableService -->
<g id="node10" class="node">
<title>ContextExternalToolAuthorizableService</title>
<ellipse fill="#fdb462" stroke="black" cx="1634" cy="-104" rx="171.87" ry="18"/>
<text text-anchor="middle" x="1634" y="-99.8" font-family="Times,serif" font-size="14.00">ContextExternalToolAuthorizableService</text>
</g>
<!-- ContextExternalToolAuthorizableService&#45;&gt;ContextExternalToolModule -->
<g id="edge9" class="edge">
<title>ContextExternalToolAuthorizableService&#45;&gt;ContextExternalToolModule</title>
<path fill="none" stroke="black" d="M1634,-122.13C1634,-142.57 1634,-173 1634,-173 1634,-173 746.8,-173 746.8,-173"/>
<polygon fill="black" stroke="black" points="746.8,-169.5 736.8,-173 746.8,-176.5 746.8,-169.5"/>
</g>
<!-- ContextExternalToolService -->
<g id="node11" class="node">
<title>ContextExternalToolService</title>
<ellipse fill="#fdb462" stroke="black" cx="1323" cy="-104" rx="121.55" ry="18"/>
<text text-anchor="middle" x="1323" y="-99.8" font-family="Times,serif" font-size="14.00">ContextExternalToolService</text>
</g>
<!-- ContextExternalToolService&#45;&gt;ContextExternalToolModule -->
<g id="edge10" class="edge">
<title>ContextExternalToolService&#45;&gt;ContextExternalToolModule</title>
<path fill="none" stroke="black" d="M1323,-122.27C1323,-140.56 1323,-166 1323,-166 1323,-166 746.94,-166 746.94,-166"/>
<polygon fill="black" stroke="black" points="746.94,-162.5 736.94,-166 746.94,-169.5 746.94,-162.5"/>
</g>
<!-- ContextExternalToolValidationService -->
<g id="node12" class="node">
<title>ContextExternalToolValidationService</title>
<ellipse fill="#fdb462" stroke="black" cx="1021" cy="-104" rx="162.08" ry="18"/>
<text text-anchor="middle" x="1021" y="-99.8" font-family="Times,serif" font-size="14.00">ContextExternalToolValidationService</text>
</g>
<!-- ContextExternalToolValidationService&#45;&gt;ContextExternalToolModule -->
<g id="edge11" class="edge">
<title>ContextExternalToolValidationService&#45;&gt;ContextExternalToolModule</title>
<path fill="none" stroke="black" d="M864.17,-108.69C864.17,-121.99 864.17,-159 864.17,-159 864.17,-159 746.86,-159 746.86,-159"/>
<polygon fill="black" stroke="black" points="746.86,-155.5 736.86,-159 746.86,-162.5 746.86,-155.5"/>
</g>
<!-- ToolReferenceService -->
<g id="node13" class="node">
<title>ToolReferenceService</title>
<ellipse fill="#fdb462" stroke="black" cx="743" cy="-104" rx="97.23" ry="18"/>
<text text-anchor="middle" x="743" y="-99.8" font-family="Times,serif" font-size="14.00">ToolReferenceService</text>
</g>
<!-- ToolReferenceService&#45;&gt;ContextExternalToolModule -->
<g id="edge12" class="edge">
<title>ToolReferenceService&#45;&gt;ContextExternalToolModule</title>
<path fill="none" stroke="black" d="M691.26,-119.4C691.26,-119.4 691.26,-140.94 691.26,-140.94"/>
<polygon fill="black" stroke="black" points="687.76,-140.94 691.26,-150.94 694.76,-140.94 687.76,-140.94"/>
</g>
</g>
</svg>
