<?xml version="1.0" encoding="UTF-8" standalone="no"?>
<!DOCTYPE svg PUBLIC "-//W3C//DTD SVG 1.1//EN"
 "http://www.w3.org/Graphics/SVG/1.1/DTD/svg11.dtd">
<!-- Generated by graphviz version 2.47.0 (20210316.0004)
 -->
<!-- Title: dependencies Pages: 1 -->
<svg width="1869pt" height="284pt"
 viewBox="0.00 0.00 1869.00 284.00" xmlns="http://www.w3.org/2000/svg" xmlns:xlink="http://www.w3.org/1999/xlink">
<g id="graph0" class="graph" transform="scale(1 1) rotate(0) translate(4 280)">
<title>dependencies</title>
<polygon fill="white" stroke="transparent" points="-4,4 -4,-280 1865,-280 1865,4 -4,4"/>
<text text-anchor="start" x="909.51" y="-42.4" font-family="Times-12" font-weight="bold" font-size="14.00">Legend</text>
<polygon fill="#ffffb3" stroke="transparent" points="696.5,-10 696.5,-30 716.5,-30 716.5,-10 696.5,-10"/>
<text text-anchor="start" x="720.13" y="-15.4" font-family="Times-12" font-size="14.00"> &#160;Declarations</text>
<polygon fill="#8dd3c7" stroke="transparent" points="809.5,-10 809.5,-30 829.5,-30 829.5,-10 809.5,-10"/>
<text text-anchor="start" x="833.23" y="-15.4" font-family="Times-12" font-size="14.00"> &#160;Module</text>
<polygon fill="#80b1d3" stroke="transparent" points="895.5,-10 895.5,-30 915.5,-30 915.5,-10 895.5,-10"/>
<text text-anchor="start" x="919.28" y="-15.4" font-family="Times-12" font-size="14.00"> &#160;Bootstrap</text>
<polygon fill="#fdb462" stroke="transparent" points="992.5,-10 992.5,-30 1012.5,-30 1012.5,-10 992.5,-10"/>
<text text-anchor="start" x="1016.17" y="-15.4" font-family="Times-12" font-size="14.00"> &#160;Providers</text>
<polygon fill="#fb8072" stroke="transparent" points="1088.5,-10 1088.5,-30 1108.5,-30 1108.5,-10 1088.5,-10"/>
<text text-anchor="start" x="1112.23" y="-15.4" font-family="Times-12" font-size="14.00"> &#160;Exports</text>
<g id="clust1" class="cluster">
<title>cluster_ContextExternalToolModule</title>
<polygon fill="none" stroke="black" stroke-dasharray="1,5" points="8,-70 8,-268 1853,-268 1853,-70 8,-70"/>
</g>
<g id="clust6" class="cluster">
<title>cluster_ContextExternalToolModule_providers</title>
<polygon fill="none" stroke="black" points="473,-78 473,-130 1845,-130 1845,-78 473,-78"/>
</g>
<g id="clust4" class="cluster">
<title>cluster_ContextExternalToolModule_exports</title>
<polygon fill="none" stroke="black" points="232,-208 232,-260 1267,-260 1267,-208 232,-208"/>
</g>
<g id="clust3" class="cluster">
<title>cluster_ContextExternalToolModule_imports</title>
<polygon fill="none" stroke="black" points="16,-78 16,-130 465,-130 465,-78 16,-78"/>
</g>
<!-- LoggerModule -->
<g id="node1" class="node">
<title>LoggerModule</title>
<polygon fill="#8dd3c7" stroke="black" points="456.98,-122 453.98,-126 432.98,-126 429.98,-122 357.02,-122 357.02,-86 456.98,-86 456.98,-122"/>
<text text-anchor="middle" x="407" y="-99.8" font-family="Times,serif" font-size="14.00">LoggerModule</text>
</g>
<!-- ContextExternalToolModule -->
<g id="node4" class="node">
<title>ContextExternalToolModule</title>
<polygon fill="#8dd3c7" stroke="black" points="760.75,-187 757.75,-191 736.75,-191 733.75,-187 583.25,-187 583.25,-151 760.75,-151 760.75,-187"/>
<text text-anchor="middle" x="672" y="-164.8" font-family="Times,serif" font-size="14.00">ContextExternalToolModule</text>
</g>
<!-- LoggerModule&#45;&gt;ContextExternalToolModule -->
<g id="edge1" class="edge">
<title>LoggerModule&#45;&gt;ContextExternalToolModule</title>
<path fill="none" stroke="black" d="M423.33,-122.24C423.33,-137.57 423.33,-157 423.33,-157 423.33,-157 572.93,-157 572.93,-157"/>
<polygon fill="black" stroke="black" points="572.93,-160.5 582.93,-157 572.93,-153.5 572.93,-160.5"/>
</g>
<!-- SchoolExternalToolModule -->
<g id="node2" class="node">
<title>SchoolExternalToolModule</title>
<polygon fill="#8dd3c7" stroke="black" points="339.3,-122 336.3,-126 315.3,-126 312.3,-122 166.7,-122 166.7,-86 339.3,-86 339.3,-122"/>
<text text-anchor="middle" x="253" y="-99.8" font-family="Times,serif" font-size="14.00">SchoolExternalToolModule</text>
</g>
<!-- SchoolExternalToolModule&#45;&gt;ContextExternalToolModule -->
<g id="edge2" class="edge">
<title>SchoolExternalToolModule&#45;&gt;ContextExternalToolModule</title>
<path fill="none" stroke="black" d="M289.52,-122.02C289.52,-139.37 289.52,-163 289.52,-163 289.52,-163 572.81,-163 572.81,-163"/>
<polygon fill="black" stroke="black" points="572.81,-166.5 582.81,-163 572.81,-159.5 572.81,-166.5"/>
</g>
<!-- ToolConfigModule -->
<g id="node3" class="node">
<title>ToolConfigModule</title>
<polygon fill="#8dd3c7" stroke="black" points="148.38,-122 145.38,-126 124.38,-126 121.38,-122 23.62,-122 23.62,-86 148.38,-86 148.38,-122"/>
<text text-anchor="middle" x="86" y="-99.8" font-family="Times,serif" font-size="14.00">ToolConfigModule</text>
</g>
<!-- ToolConfigModule&#45;&gt;ContextExternalToolModule -->
<g id="edge3" class="edge">
<title>ToolConfigModule&#45;&gt;ContextExternalToolModule</title>
<path fill="none" stroke="black" d="M86,-122.11C86,-141.34 86,-169 86,-169 86,-169 573,-169 573,-169"/>
<polygon fill="black" stroke="black" points="573,-172.5 583,-169 573,-165.5 573,-172.5"/>
</g>
<!-- ContextExternalToolAuthorizableService  -->
<g id="node5" class="node">
<title>ContextExternalToolAuthorizableService </title>
<polygon fill="#fb8072" stroke="black" points="1259.26,-252 1006.74,-252 1006.74,-216 1259.26,-216 1259.26,-252"/>
<text text-anchor="middle" x="1133" y="-229.8" font-family="Times,serif" font-size="14.00">ContextExternalToolAuthorizableService </text>
</g>
<!-- ContextExternalToolModule&#45;&gt;ContextExternalToolAuthorizableService  -->
<g id="edge4" class="edge">
<title>ContextExternalToolModule&#45;&gt;ContextExternalToolAuthorizableService </title>
<path fill="none" stroke="black" stroke-dasharray="5,2" d="M760.99,-175C889.15,-175 1110.45,-175 1110.45,-175 1110.45,-175 1110.45,-205.98 1110.45,-205.98"/>
<polygon fill="black" stroke="black" points="1106.95,-205.98 1110.45,-215.98 1113.95,-205.98 1106.95,-205.98"/>
</g>
<!-- ContextExternalToolService  -->
<g id="node6" class="node">
<title>ContextExternalToolService </title>
<polygon fill="#fb8072" stroke="black" points="988.68,-252 809.32,-252 809.32,-216 988.68,-216 988.68,-252"/>
<text text-anchor="middle" x="899" y="-229.8" font-family="Times,serif" font-size="14.00">ContextExternalToolService </text>
</g>
<!-- ContextExternalToolModule&#45;&gt;ContextExternalToolService  -->
<g id="edge5" class="edge">
<title>ContextExternalToolModule&#45;&gt;ContextExternalToolService </title>
<path fill="none" stroke="black" stroke-dasharray="5,2" d="M761.06,-181C801.42,-181 840.26,-181 840.26,-181 840.26,-181 840.26,-205.76 840.26,-205.76"/>
<polygon fill="black" stroke="black" points="836.76,-205.76 840.26,-215.76 843.76,-205.76 836.76,-205.76"/>
</g>
<!-- ContextExternalToolValidationService  -->
<g id="node7" class="node">
<title>ContextExternalToolValidationService </title>
<polygon fill="#fb8072" stroke="black" points="791.28,-252 552.72,-252 552.72,-216 791.28,-216 791.28,-252"/>
<text text-anchor="middle" x="672" y="-229.8" font-family="Times,serif" font-size="14.00">ContextExternalToolValidationService </text>
</g>
<!-- ContextExternalToolModule&#45;&gt;ContextExternalToolValidationService  -->
<g id="edge6" class="edge">
<title>ContextExternalToolModule&#45;&gt;ContextExternalToolValidationService </title>
<path fill="none" stroke="black" stroke-dasharray="5,2" d="M672,-187.11C672,-187.11 672,-205.99 672,-205.99"/>
<polygon fill="black" stroke="black" points="668.5,-205.99 672,-215.99 675.5,-205.99 668.5,-205.99"/>
</g>
<!-- ToolReferenceService  -->
<g id="node8" class="node">
<title>ToolReferenceService </title>
<polygon fill="#fb8072" stroke="black" points="534.15,-252 389.85,-252 389.85,-216 534.15,-216 534.15,-252"/>
<text text-anchor="middle" x="462" y="-229.8" font-family="Times,serif" font-size="14.00">ToolReferenceService </text>
</g>
<!-- ContextExternalToolModule&#45;&gt;ToolReferenceService  -->
<g id="edge7" class="edge">
<title>ContextExternalToolModule&#45;&gt;ToolReferenceService </title>
<path fill="none" stroke="black" stroke-dasharray="5,2" d="M583.15,-181C544.45,-181 507.76,-181 507.76,-181 507.76,-181 507.76,-205.76 507.76,-205.76"/>
<polygon fill="black" stroke="black" points="504.26,-205.76 507.76,-215.76 511.26,-205.76 504.26,-205.76"/>
</g>
<!-- ToolVersionService  -->
<g id="node9" class="node">
<title>ToolVersionService </title>
<polygon fill="#fb8072" stroke="black" points="372.24,-252 239.76,-252 239.76,-216 372.24,-216 372.24,-252"/>
<text text-anchor="middle" x="306" y="-229.8" font-family="Times,serif" font-size="14.00">ToolVersionService </text>
</g>
<!-- ContextExternalToolModule&#45;&gt;ToolVersionService  -->
<g id="edge8" class="edge">
<title>ContextExternalToolModule&#45;&gt;ToolVersionService </title>
<path fill="none" stroke="black" stroke-dasharray="5,2" d="M583.08,-175C492.28,-175 364.57,-175 364.57,-175 364.57,-175 364.57,-205.98 364.57,-205.98"/>
<polygon fill="black" stroke="black" points="361.07,-205.98 364.57,-215.98 368.07,-205.98 361.07,-205.98"/>
</g>
<!-- ContextExternalToolAuthorizableService -->
<g id="node10" class="node">
<title>ContextExternalToolAuthorizableService</title>
<ellipse fill="#fdb462" stroke="black" cx="1665" cy="-104" rx="171.87" ry="18"/>
<text text-anchor="middle" x="1665" y="-99.8" font-family="Times,serif" font-size="14.00">ContextExternalToolAuthorizableService</text>
</g>
<!-- ContextExternalToolAuthorizableService&#45;&gt;ContextExternalToolModule -->
<g id="edge9" class="edge">
<title>ContextExternalToolAuthorizableService&#45;&gt;ContextExternalToolModule</title>
<path fill="none" stroke="black" d="M1665,-122.11C1665,-141.34 1665,-169 1665,-169 1665,-169 771,-169 771,-169"/>
<polygon fill="black" stroke="black" points="771,-165.5 761,-169 771,-172.5 771,-165.5"/>
</g>
<!-- ContextExternalToolService -->
<g id="node11" class="node">
<title>ContextExternalToolService</title>
<ellipse fill="#fdb462" stroke="black" cx="1354" cy="-104" rx="121.55" ry="18"/>
<text text-anchor="middle" x="1354" y="-99.8" font-family="Times,serif" font-size="14.00">ContextExternalToolService</text>
</g>
<!-- ContextExternalToolService&#45;&gt;ContextExternalToolModule -->
<g id="edge10" class="edge">
<title>ContextExternalToolService&#45;&gt;ContextExternalToolModule</title>
<path fill="none" stroke="black" d="M1245.93,-112.45C1245.93,-128.77 1245.93,-163 1245.93,-163 1245.93,-163 771.05,-163 771.05,-163"/>
<polygon fill="black" stroke="black" points="771.05,-159.5 761.05,-163 771.05,-166.5 771.05,-159.5"/>
</g>
<!-- ContextExternalToolValidationService -->
<g id="node12" class="node">
<title>ContextExternalToolValidationService</title>
<ellipse fill="#fdb462" stroke="black" cx="1052" cy="-104" rx="162.08" ry="18"/>
<text text-anchor="middle" x="1052" y="-99.8" font-family="Times,serif" font-size="14.00">ContextExternalToolValidationService</text>
</g>
<!-- ContextExternalToolValidationService&#45;&gt;ContextExternalToolModule -->
<g id="edge11" class="edge">
<title>ContextExternalToolValidationService&#45;&gt;ContextExternalToolModule</title>
<path fill="none" stroke="black" d="M939.27,-117.1C939.27,-132.8 939.27,-157 939.27,-157 939.27,-157 771,-157 771,-157"/>
<polygon fill="black" stroke="black" points="771,-153.5 761,-157 771,-160.5 771,-153.5"/>
</g>
<!-- ToolReferenceService -->
<g id="node13" class="node">
<title>ToolReferenceService</title>
<ellipse fill="#fdb462" stroke="black" cx="774" cy="-104" rx="97.23" ry="18"/>
<text text-anchor="middle" x="774" y="-99.8" font-family="Times,serif" font-size="14.00">ToolReferenceService</text>
</g>
<!-- ToolReferenceService&#45;&gt;ContextExternalToolModule -->
<g id="edge12" class="edge">
<title>ToolReferenceService&#45;&gt;ContextExternalToolModule</title>
<path fill="none" stroke="black" d="M718.76,-119.08C718.76,-119.08 718.76,-140.76 718.76,-140.76"/>
<polygon fill="black" stroke="black" points="715.26,-140.76 718.76,-150.76 722.26,-140.76 715.26,-140.76"/>
</g>
<!-- ToolVersionService -->
<g id="node14" class="node">
<title>ToolVersionService</title>
<ellipse fill="#fdb462" stroke="black" cx="570" cy="-104" rx="88.6" ry="18"/>
<text text-anchor="middle" x="570" y="-99.8" font-family="Times,serif" font-size="14.00">ToolVersionService</text>
</g>
<!-- ToolVersionService&#45;&gt;ContextExternalToolModule -->
<g id="edge13" class="edge">
<title>ToolVersionService&#45;&gt;ContextExternalToolModule</title>
<path fill="none" stroke="black" d="M620.96,-118.75C620.96,-118.75 620.96,-140.59 620.96,-140.59"/>
<polygon fill="black" stroke="black" points="617.46,-140.59 620.96,-150.59 624.46,-140.59 617.46,-140.59"/>
</g>
</g>
</svg>
