<?xml version="1.0" encoding="UTF-8" standalone="no"?>
<!DOCTYPE svg PUBLIC "-//W3C//DTD SVG 1.1//EN"
 "http://www.w3.org/Graphics/SVG/1.1/DTD/svg11.dtd">
<!-- Generated by graphviz version 2.47.0 (20210316.0004)
 -->
<!-- Title: dependencies Pages: 1 -->
<svg width="2110pt" height="284pt"
 viewBox="0.00 0.00 2110.00 284.00" xmlns="http://www.w3.org/2000/svg" xmlns:xlink="http://www.w3.org/1999/xlink">
<g id="graph0" class="graph" transform="scale(1 1) rotate(0) translate(4 280)">
<title>dependencies</title>
<polygon fill="white" stroke="transparent" points="-4,4 -4,-280 2106,-280 2106,4 -4,4"/>
<text text-anchor="start" x="1030.01" y="-42.4" font-family="Times-12" font-weight="bold" font-size="14.00">Legend</text>
<polygon fill="#ffffb3" stroke="transparent" points="817,-10 817,-30 837,-30 837,-10 817,-10"/>
<text text-anchor="start" x="840.63" y="-15.4" font-family="Times-12" font-size="14.00"> &#160;Declarations</text>
<polygon fill="#8dd3c7" stroke="transparent" points="930,-10 930,-30 950,-30 950,-10 930,-10"/>
<text text-anchor="start" x="953.73" y="-15.4" font-family="Times-12" font-size="14.00"> &#160;Module</text>
<polygon fill="#80b1d3" stroke="transparent" points="1016,-10 1016,-30 1036,-30 1036,-10 1016,-10"/>
<text text-anchor="start" x="1039.78" y="-15.4" font-family="Times-12" font-size="14.00"> &#160;Bootstrap</text>
<polygon fill="#fdb462" stroke="transparent" points="1113,-10 1113,-30 1133,-30 1133,-10 1113,-10"/>
<text text-anchor="start" x="1136.67" y="-15.4" font-family="Times-12" font-size="14.00"> &#160;Providers</text>
<polygon fill="#fb8072" stroke="transparent" points="1209,-10 1209,-30 1229,-30 1229,-10 1209,-10"/>
<text text-anchor="start" x="1232.73" y="-15.4" font-family="Times-12" font-size="14.00"> &#160;Exports</text>
<g id="clust1" class="cluster">
<title>cluster_ContextExternalToolModule</title>
<polygon fill="none" stroke="black" stroke-dasharray="1,5" points="8,-70 8,-268 2094,-268 2094,-70 8,-70"/>
</g>
<g id="clust6" class="cluster">
<title>cluster_ContextExternalToolModule_providers</title>
<polygon fill="none" stroke="black" points="621,-78 621,-130 2086,-130 2086,-78 621,-78"/>
</g>
<g id="clust4" class="cluster">
<title>cluster_ContextExternalToolModule_exports</title>
<polygon fill="none" stroke="black" points="217,-208 217,-260 1321,-260 1321,-208 217,-208"/>
</g>
<g id="clust3" class="cluster">
<title>cluster_ContextExternalToolModule_imports</title>
<polygon fill="none" stroke="black" points="16,-78 16,-130 613,-130 613,-78 16,-78"/>
</g>
<!-- LoggerModule -->
<g id="node1" class="node">
<title>LoggerModule</title>
<polygon fill="#8dd3c7" stroke="black" points="604.98,-122 601.98,-126 580.98,-126 577.98,-122 505.02,-122 505.02,-86 604.98,-86 604.98,-122"/>
<text text-anchor="middle" x="555" y="-99.8" font-family="Times,serif" font-size="14.00">LoggerModule</text>
</g>
<!-- ContextExternalToolModule -->
<g id="node5" class="node">
<title>ContextExternalToolModule</title>
<polygon fill="#8dd3c7" stroke="black" points="814.75,-187 811.75,-191 790.75,-191 787.75,-187 637.25,-187 637.25,-151 814.75,-151 814.75,-187"/>
<text text-anchor="middle" x="726" y="-164.8" font-family="Times,serif" font-size="14.00">ContextExternalToolModule</text>
</g>
<!-- LoggerModule&#45;&gt;ContextExternalToolModule -->
<g id="edge1" class="edge">
<title>LoggerModule&#45;&gt;ContextExternalToolModule</title>
<path fill="none" stroke="black" d="M596.67,-122.24C596.67,-137.57 596.67,-157 596.67,-157 596.67,-157 627.23,-157 627.23,-157"/>
<polygon fill="black" stroke="black" points="627.23,-160.5 637.23,-157 627.23,-153.5 627.23,-160.5"/>
</g>
<!-- SchoolExternalToolModule -->
<g id="node2" class="node">
<title>SchoolExternalToolModule</title>
<polygon fill="#8dd3c7" stroke="black" points="487.3,-122 484.3,-126 463.3,-126 460.3,-122 314.7,-122 314.7,-86 487.3,-86 487.3,-122"/>
<text text-anchor="middle" x="401" y="-99.8" font-family="Times,serif" font-size="14.00">SchoolExternalToolModule</text>
</g>
<!-- SchoolExternalToolModule&#45;&gt;ContextExternalToolModule -->
<g id="edge2" class="edge">
<title>SchoolExternalToolModule&#45;&gt;ContextExternalToolModule</title>
<path fill="none" stroke="black" d="M437.4,-122.03C437.4,-139.06 437.4,-162 437.4,-162 437.4,-162 627.06,-162 627.06,-162"/>
<polygon fill="black" stroke="black" points="627.06,-165.5 637.06,-162 627.06,-158.5 627.06,-165.5"/>
</g>
<!-- ToolConfigModule -->
<g id="node3" class="node">
<title>ToolConfigModule</title>
<polygon fill="#8dd3c7" stroke="black" points="296.38,-122 293.38,-126 272.38,-126 269.38,-122 171.62,-122 171.62,-86 296.38,-86 296.38,-122"/>
<text text-anchor="middle" x="234" y="-99.8" font-family="Times,serif" font-size="14.00">ToolConfigModule</text>
</g>
<!-- ToolConfigModule&#45;&gt;ContextExternalToolModule -->
<g id="edge3" class="edge">
<title>ToolConfigModule&#45;&gt;ContextExternalToolModule</title>
<path fill="none" stroke="black" d="M260.56,-122.22C260.56,-140.83 260.56,-167 260.56,-167 260.56,-167 627.08,-167 627.08,-167"/>
<polygon fill="black" stroke="black" points="627.08,-170.5 637.08,-167 627.08,-163.5 627.08,-170.5"/>
</g>
<!-- UserLicenseModule -->
<g id="node4" class="node">
<title>UserLicenseModule</title>
<polygon fill="#8dd3c7" stroke="black" points="153.51,-122 150.51,-126 129.51,-126 126.51,-122 24.49,-122 24.49,-86 153.51,-86 153.51,-122"/>
<text text-anchor="middle" x="89" y="-99.8" font-family="Times,serif" font-size="14.00">UserLicenseModule</text>
</g>
<!-- UserLicenseModule&#45;&gt;ContextExternalToolModule -->
<g id="edge4" class="edge">
<title>UserLicenseModule&#45;&gt;ContextExternalToolModule</title>
<path fill="none" stroke="black" d="M89,-122.22C89,-142.37 89,-172 89,-172 89,-172 627.09,-172 627.09,-172"/>
<polygon fill="black" stroke="black" points="627.09,-175.5 637.09,-172 627.09,-168.5 627.09,-175.5"/>
</g>
<!-- ContextExternalToolAuthorizableService  -->
<g id="node6" class="node">
<title>ContextExternalToolAuthorizableService </title>
<polygon fill="#fb8072" stroke="black" points="1313.26,-252 1060.74,-252 1060.74,-216 1313.26,-216 1313.26,-252"/>
<text text-anchor="middle" x="1187" y="-229.8" font-family="Times,serif" font-size="14.00">ContextExternalToolAuthorizableService </text>
</g>
<!-- ContextExternalToolModule&#45;&gt;ContextExternalToolAuthorizableService  -->
<g id="edge5" class="edge">
<title>ContextExternalToolModule&#45;&gt;ContextExternalToolAuthorizableService </title>
<path fill="none" stroke="black" stroke-dasharray="5,2" d="M815.19,-177C922.04,-177 1086.82,-177 1086.82,-177 1086.82,-177 1086.82,-205.96 1086.82,-205.96"/>
<polygon fill="black" stroke="black" points="1083.32,-205.96 1086.82,-215.96 1090.32,-205.96 1083.32,-205.96"/>
</g>
<!-- ContextExternalToolService  -->
<g id="node7" class="node">
<title>ContextExternalToolService </title>
<polygon fill="#fb8072" stroke="black" points="1042.68,-252 863.32,-252 863.32,-216 1042.68,-216 1042.68,-252"/>
<text text-anchor="middle" x="953" y="-229.8" font-family="Times,serif" font-size="14.00">ContextExternalToolService </text>
</g>
<!-- ContextExternalToolModule&#45;&gt;ContextExternalToolService  -->
<g id="edge6" class="edge">
<title>ContextExternalToolModule&#45;&gt;ContextExternalToolService </title>
<path fill="none" stroke="black" stroke-dasharray="5,2" d="M815.06,-182C878.66,-182 953,-182 953,-182 953,-182 953,-205.81 953,-205.81"/>
<polygon fill="black" stroke="black" points="949.5,-205.81 953,-215.81 956.5,-205.81 949.5,-205.81"/>
</g>
<!-- ContextExternalToolValidationService  -->
<g id="node8" class="node">
<title>ContextExternalToolValidationService </title>
<polygon fill="#fb8072" stroke="black" points="845.28,-252 606.72,-252 606.72,-216 845.28,-216 845.28,-252"/>
<text text-anchor="middle" x="726" y="-229.8" font-family="Times,serif" font-size="14.00">ContextExternalToolValidationService </text>
</g>
<!-- ContextExternalToolModule&#45;&gt;ContextExternalToolValidationService  -->
<g id="edge7" class="edge">
<title>ContextExternalToolModule&#45;&gt;ContextExternalToolValidationService </title>
<path fill="none" stroke="black" stroke-dasharray="5,2" d="M726,-187.11C726,-187.11 726,-205.99 726,-205.99"/>
<polygon fill="black" stroke="black" points="722.5,-205.99 726,-215.99 729.5,-205.99 722.5,-205.99"/>
</g>
<!-- ToolConfigurationStatusService  -->
<g id="node9" class="node">
<title>ToolConfigurationStatusService </title>
<polygon fill="#fb8072" stroke="black" points="588.19,-252 387.81,-252 387.81,-216 588.19,-216 588.19,-252"/>
<text text-anchor="middle" x="488" y="-229.8" font-family="Times,serif" font-size="14.00">ToolConfigurationStatusService </text>
</g>
<!-- ContextExternalToolModule&#45;&gt;ToolConfigurationStatusService  -->
<g id="edge8" class="edge">
<title>ContextExternalToolModule&#45;&gt;ToolConfigurationStatusService </title>
<path fill="none" stroke="black" stroke-dasharray="5,2" d="M637.13,-182C592.04,-182 546.68,-182 546.68,-182 546.68,-182 546.68,-205.81 546.68,-205.81"/>
<polygon fill="black" stroke="black" points="543.18,-205.81 546.68,-215.81 550.18,-205.81 543.18,-205.81"/>
</g>
<!-- ToolReferenceService  -->
<g id="node10" class="node">
<title>ToolReferenceService </title>
<polygon fill="#fb8072" stroke="black" points="369.15,-252 224.85,-252 224.85,-216 369.15,-216 369.15,-252"/>
<text text-anchor="middle" x="297" y="-229.8" font-family="Times,serif" font-size="14.00">ToolReferenceService </text>
</g>
<!-- ContextExternalToolModule&#45;&gt;ToolReferenceService  -->
<g id="edge9" class="edge">
<title>ContextExternalToolModule&#45;&gt;ToolReferenceService </title>
<path fill="none" stroke="black" stroke-dasharray="5,2" d="M636.96,-177C523.55,-177 342.09,-177 342.09,-177 342.09,-177 342.09,-205.96 342.09,-205.96"/>
<polygon fill="black" stroke="black" points="338.59,-205.96 342.09,-215.96 345.59,-205.96 338.59,-205.96"/>
</g>
<!-- ContextExternalToolAuthorizableService -->
<g id="node11" class="node">
<title>ContextExternalToolAuthorizableService</title>
<ellipse fill="#fdb462" stroke="black" cx="1906" cy="-104" rx="171.87" ry="18"/>
<text text-anchor="middle" x="1906" y="-99.8" font-family="Times,serif" font-size="14.00">ContextExternalToolAuthorizableService</text>
</g>
<!-- ContextExternalToolAuthorizableService&#45;&gt;ContextExternalToolModule -->
<g id="edge10" class="edge">
<title>ContextExternalToolAuthorizableService&#45;&gt;ContextExternalToolModule</title>
<path fill="none" stroke="black" d="M1906,-122.22C1906,-142.37 1906,-172 1906,-172 1906,-172 825.18,-172 825.18,-172"/>
<polygon fill="black" stroke="black" points="825.18,-168.5 815.18,-172 825.18,-175.5 825.18,-168.5"/>
</g>
<!-- ContextExternalToolService -->
<g id="node12" class="node">
<title>ContextExternalToolService</title>
<ellipse fill="#fdb462" stroke="black" cx="1595" cy="-104" rx="121.55" ry="18"/>
<text text-anchor="middle" x="1595" y="-99.8" font-family="Times,serif" font-size="14.00">ContextExternalToolService</text>
</g>
<!-- ContextExternalToolService&#45;&gt;ContextExternalToolModule -->
<g id="edge11" class="edge">
<title>ContextExternalToolService&#45;&gt;ContextExternalToolModule</title>
<path fill="none" stroke="black" d="M1595,-122.22C1595,-140.83 1595,-167 1595,-167 1595,-167 824.91,-167 824.91,-167"/>
<polygon fill="black" stroke="black" points="824.91,-163.5 814.91,-167 824.91,-170.5 824.91,-163.5"/>
</g>
<!-- ContextExternalToolValidationService -->
<g id="node13" class="node">
<title>ContextExternalToolValidationService</title>
<ellipse fill="#fdb462" stroke="black" cx="1293" cy="-104" rx="162.08" ry="18"/>
<text text-anchor="middle" x="1293" y="-99.8" font-family="Times,serif" font-size="14.00">ContextExternalToolValidationService</text>
</g>
<!-- ContextExternalToolValidationService&#45;&gt;ContextExternalToolModule -->
<g id="edge12" class="edge">
<title>ContextExternalToolValidationService&#45;&gt;ContextExternalToolModule</title>
<path fill="none" stroke="black" d="M1222.05,-120.47C1222.05,-137.61 1222.05,-162 1222.05,-162 1222.05,-162 824.97,-162 824.97,-162"/>
<polygon fill="black" stroke="black" points="824.97,-158.5 814.97,-162 824.97,-165.5 824.97,-158.5"/>
</g>
<!-- ToolConfigurationStatusService -->
<g id="node14" class="node">
<title>ToolConfigurationStatusService</title>
<ellipse fill="#fdb462" stroke="black" cx="977" cy="-104" rx="136.03" ry="18"/>
<text text-anchor="middle" x="977" y="-99.8" font-family="Times,serif" font-size="14.00">ToolConfigurationStatusService</text>
</g>
<!-- ToolConfigurationStatusService&#45;&gt;ContextExternalToolModule -->
<g id="edge13" class="edge">
<title>ToolConfigurationStatusService&#45;&gt;ContextExternalToolModule</title>
<path fill="none" stroke="black" d="M854.27,-111.82C854.27,-126.56 854.27,-157 854.27,-157 854.27,-157 825.09,-157 825.09,-157"/>
<polygon fill="black" stroke="black" points="825.09,-153.5 815.09,-157 825.09,-160.5 825.09,-153.5"/>
</g>
<!-- ToolReferenceService -->
<g id="node15" class="node">
<title>ToolReferenceService</title>
<ellipse fill="#fdb462" stroke="black" cx="726" cy="-104" rx="97.23" ry="18"/>
<text text-anchor="middle" x="726" y="-99.8" font-family="Times,serif" font-size="14.00">ToolReferenceService</text>
</g>
<!-- ToolReferenceService&#45;&gt;ContextExternalToolModule -->
<g id="edge14" class="edge">
<title>ToolReferenceService&#45;&gt;ContextExternalToolModule</title>
<path fill="none" stroke="black" d="M726,-122.11C726,-122.11 726,-140.99 726,-140.99"/>
<polygon fill="black" stroke="black" points="722.5,-140.99 726,-150.99 729.5,-140.99 722.5,-140.99"/>
</g>
</g>
</svg>
