<?xml version="1.0" encoding="UTF-8" standalone="no"?>
<!DOCTYPE svg PUBLIC "-//W3C//DTD SVG 1.1//EN"
 "http://www.w3.org/Graphics/SVG/1.1/DTD/svg11.dtd">
<!-- Generated by graphviz version 2.47.0 (20210316.0004)
 -->
<!-- Title: dependencies Pages: 1 -->
<svg width="1967pt" height="284pt"
 viewBox="0.00 0.00 1967.00 284.00" xmlns="http://www.w3.org/2000/svg" xmlns:xlink="http://www.w3.org/1999/xlink">
<g id="graph0" class="graph" transform="scale(1 1) rotate(0) translate(4 280)">
<title>dependencies</title>
<polygon fill="white" stroke="transparent" points="-4,4 -4,-280 1963,-280 1963,4 -4,4"/>
<text text-anchor="start" x="958.51" y="-42.4" font-family="Times-12" font-weight="bold" font-size="14.00">Legend</text>
<polygon fill="#ffffb3" stroke="transparent" points="745.5,-10 745.5,-30 765.5,-30 765.5,-10 745.5,-10"/>
<text text-anchor="start" x="769.13" y="-15.4" font-family="Times-12" font-size="14.00"> &#160;Declarations</text>
<polygon fill="#8dd3c7" stroke="transparent" points="858.5,-10 858.5,-30 878.5,-30 878.5,-10 858.5,-10"/>
<text text-anchor="start" x="882.23" y="-15.4" font-family="Times-12" font-size="14.00"> &#160;Module</text>
<polygon fill="#80b1d3" stroke="transparent" points="944.5,-10 944.5,-30 964.5,-30 964.5,-10 944.5,-10"/>
<text text-anchor="start" x="968.28" y="-15.4" font-family="Times-12" font-size="14.00"> &#160;Bootstrap</text>
<polygon fill="#fdb462" stroke="transparent" points="1041.5,-10 1041.5,-30 1061.5,-30 1061.5,-10 1041.5,-10"/>
<text text-anchor="start" x="1065.17" y="-15.4" font-family="Times-12" font-size="14.00"> &#160;Providers</text>
<polygon fill="#fb8072" stroke="transparent" points="1137.5,-10 1137.5,-30 1157.5,-30 1157.5,-10 1137.5,-10"/>
<text text-anchor="start" x="1161.23" y="-15.4" font-family="Times-12" font-size="14.00"> &#160;Exports</text>
<g id="clust1" class="cluster">
<title>cluster_ContextExternalToolModule</title>
<polygon fill="none" stroke="black" stroke-dasharray="1,5" points="8,-70 8,-268 1951,-268 1951,-70 8,-70"/>
</g>
<g id="clust6" class="cluster">
<title>cluster_ContextExternalToolModule_providers</title>
<polygon fill="none" stroke="black" points="478,-78 478,-130 1943,-130 1943,-78 478,-78"/>
</g>
<g id="clust4" class="cluster">
<title>cluster_ContextExternalToolModule_exports</title>
<polygon fill="none" stroke="black" points="199,-208 199,-260 1303,-260 1303,-208 199,-208"/>
</g>
<g id="clust3" class="cluster">
<title>cluster_ContextExternalToolModule_imports</title>
<polygon fill="none" stroke="black" points="16,-78 16,-130 470,-130 470,-78 16,-78"/>
</g>
<!-- LoggerModule -->
<g id="node1" class="node">
<title>LoggerModule</title>
<polygon fill="#8dd3c7" stroke="black" points="461.98,-122 458.98,-126 437.98,-126 434.98,-122 362.02,-122 362.02,-86 461.98,-86 461.98,-122"/>
<text text-anchor="middle" x="412" y="-99.8" font-family="Times,serif" font-size="14.00">LoggerModule</text>
</g>
<!-- ContextExternalToolModule -->
<g id="node4" class="node">
<title>ContextExternalToolModule</title>
<polygon fill="#8dd3c7" stroke="black" points="796.75,-187 793.75,-191 772.75,-191 769.75,-187 619.25,-187 619.25,-151 796.75,-151 796.75,-187"/>
<text text-anchor="middle" x="708" y="-164.8" font-family="Times,serif" font-size="14.00">ContextExternalToolModule</text>
</g>
<!-- LoggerModule&#45;&gt;ContextExternalToolModule -->
<g id="edge1" class="edge">
<title>LoggerModule&#45;&gt;ContextExternalToolModule</title>
<path fill="none" stroke="black" d="M415.82,-122.24C415.82,-137.57 415.82,-157 415.82,-157 415.82,-157 609.15,-157 609.15,-157"/>
<polygon fill="black" stroke="black" points="609.15,-160.5 619.15,-157 609.15,-153.5 609.15,-160.5"/>
</g>
<!-- SchoolExternalToolModule -->
<g id="node2" class="node">
<title>SchoolExternalToolModule</title>
<polygon fill="#8dd3c7" stroke="black" points="344.3,-122 341.3,-126 320.3,-126 317.3,-122 171.7,-122 171.7,-86 344.3,-86 344.3,-122"/>
<text text-anchor="middle" x="258" y="-99.8" font-family="Times,serif" font-size="14.00">SchoolExternalToolModule</text>
</g>
<!-- SchoolExternalToolModule&#45;&gt;ContextExternalToolModule -->
<g id="edge2" class="edge">
<title>SchoolExternalToolModule&#45;&gt;ContextExternalToolModule</title>
<path fill="none" stroke="black" d="M275.41,-122.02C275.41,-139.37 275.41,-163 275.41,-163 275.41,-163 609.15,-163 609.15,-163"/>
<polygon fill="black" stroke="black" points="609.15,-166.5 619.15,-163 609.15,-159.5 609.15,-166.5"/>
</g>
<!-- UserLicenseModule -->
<g id="node3" class="node">
<title>UserLicenseModule</title>
<polygon fill="#8dd3c7" stroke="black" points="153.51,-122 150.51,-126 129.51,-126 126.51,-122 24.49,-122 24.49,-86 153.51,-86 153.51,-122"/>
<text text-anchor="middle" x="89" y="-99.8" font-family="Times,serif" font-size="14.00">UserLicenseModule</text>
</g>
<!-- UserLicenseModule&#45;&gt;ContextExternalToolModule -->
<g id="edge3" class="edge">
<title>UserLicenseModule&#45;&gt;ContextExternalToolModule</title>
<path fill="none" stroke="black" d="M89,-122.11C89,-141.34 89,-169 89,-169 89,-169 608.98,-169 608.98,-169"/>
<polygon fill="black" stroke="black" points="608.98,-172.5 618.98,-169 608.98,-165.5 608.98,-172.5"/>
</g>
<!-- ContextExternalToolAuthorizableService  -->
<g id="node5" class="node">
<title>ContextExternalToolAuthorizableService </title>
<polygon fill="#fb8072" stroke="black" points="1295.26,-252 1042.74,-252 1042.74,-216 1295.26,-216 1295.26,-252"/>
<text text-anchor="middle" x="1169" y="-229.8" font-family="Times,serif" font-size="14.00">ContextExternalToolAuthorizableService </text>
</g>
<!-- ContextExternalToolModule&#45;&gt;ContextExternalToolAuthorizableService  -->
<g id="edge4" class="edge">
<title>ContextExternalToolModule&#45;&gt;ContextExternalToolAuthorizableService </title>
<path fill="none" stroke="black" stroke-dasharray="5,2" d="M796.89,-175C930.85,-175 1169,-175 1169,-175 1169,-175 1169,-205.98 1169,-205.98"/>
<polygon fill="black" stroke="black" points="1165.5,-205.98 1169,-215.98 1172.5,-205.98 1165.5,-205.98"/>
</g>
<!-- ContextExternalToolService  -->
<g id="node6" class="node">
<title>ContextExternalToolService </title>
<polygon fill="#fb8072" stroke="black" points="1024.68,-252 845.32,-252 845.32,-216 1024.68,-216 1024.68,-252"/>
<text text-anchor="middle" x="935" y="-229.8" font-family="Times,serif" font-size="14.00">ContextExternalToolService </text>
</g>
<!-- ContextExternalToolModule&#45;&gt;ContextExternalToolService  -->
<g id="edge5" class="edge">
<title>ContextExternalToolModule&#45;&gt;ContextExternalToolService </title>
<path fill="none" stroke="black" stroke-dasharray="5,2" d="M797,-181C850.22,-181 907.59,-181 907.59,-181 907.59,-181 907.59,-205.76 907.59,-205.76"/>
<polygon fill="black" stroke="black" points="904.09,-205.76 907.59,-215.76 911.09,-205.76 904.09,-205.76"/>
</g>
<!-- ContextExternalToolValidationService  -->
<g id="node7" class="node">
<title>ContextExternalToolValidationService </title>
<polygon fill="#fb8072" stroke="black" points="827.28,-252 588.72,-252 588.72,-216 827.28,-216 827.28,-252"/>
<text text-anchor="middle" x="708" y="-229.8" font-family="Times,serif" font-size="14.00">ContextExternalToolValidationService </text>
</g>
<!-- ContextExternalToolModule&#45;&gt;ContextExternalToolValidationService  -->
<g id="edge6" class="edge">
<title>ContextExternalToolModule&#45;&gt;ContextExternalToolValidationService </title>
<path fill="none" stroke="black" stroke-dasharray="5,2" d="M708,-187.11C708,-187.11 708,-205.99 708,-205.99"/>
<polygon fill="black" stroke="black" points="704.5,-205.99 708,-215.99 711.5,-205.99 704.5,-205.99"/>
</g>
<!-- ToolConfigurationStatusService  -->
<g id="node8" class="node">
<title>ToolConfigurationStatusService </title>
<polygon fill="#fb8072" stroke="black" points="570.19,-252 369.81,-252 369.81,-216 570.19,-216 570.19,-252"/>
<text text-anchor="middle" x="470" y="-229.8" font-family="Times,serif" font-size="14.00">ToolConfigurationStatusService </text>
</g>
<!-- ContextExternalToolModule&#45;&gt;ToolConfigurationStatusService  -->
<g id="edge7" class="edge">
<title>ContextExternalToolModule&#45;&gt;ToolConfigurationStatusService </title>
<path fill="none" stroke="black" stroke-dasharray="5,2" d="M619.05,-181C573.7,-181 527.99,-181 527.99,-181 527.99,-181 527.99,-205.76 527.99,-205.76"/>
<polygon fill="black" stroke="black" points="524.49,-205.76 527.99,-215.76 531.49,-205.76 524.49,-205.76"/>
</g>
<!-- ToolReferenceService  -->
<g id="node9" class="node">
<title>ToolReferenceService </title>
<polygon fill="#fb8072" stroke="black" points="351.15,-252 206.85,-252 206.85,-216 351.15,-216 351.15,-252"/>
<text text-anchor="middle" x="279" y="-229.8" font-family="Times,serif" font-size="14.00">ToolReferenceService </text>
</g>
<!-- ContextExternalToolModule&#45;&gt;ToolReferenceService  -->
<g id="edge8" class="edge">
<title>ContextExternalToolModule&#45;&gt;ToolReferenceService </title>
<path fill="none" stroke="black" stroke-dasharray="5,2" d="M618.95,-175C512.26,-175 347.74,-175 347.74,-175 347.74,-175 347.74,-205.98 347.74,-205.98"/>
<polygon fill="black" stroke="black" points="344.24,-205.98 347.74,-215.98 351.24,-205.98 344.24,-205.98"/>
</g>
<!-- ContextExternalToolAuthorizableService -->
<g id="node10" class="node">
<title>ContextExternalToolAuthorizableService</title>
<ellipse fill="#fdb462" stroke="black" cx="1763" cy="-104" rx="171.87" ry="18"/>
<text text-anchor="middle" x="1763" y="-99.8" font-family="Times,serif" font-size="14.00">ContextExternalToolAuthorizableService</text>
</g>
<!-- ContextExternalToolAuthorizableService&#45;&gt;ContextExternalToolModule -->
<g id="edge9" class="edge">
<title>ContextExternalToolAuthorizableService&#45;&gt;ContextExternalToolModule</title>
<path fill="none" stroke="black" d="M1763,-122.11C1763,-141.34 1763,-169 1763,-169 1763,-169 807.04,-169 807.04,-169"/>
<polygon fill="black" stroke="black" points="807.04,-165.5 797.04,-169 807.04,-172.5 807.04,-165.5"/>
</g>
<!-- ContextExternalToolService -->
<g id="node11" class="node">
<title>ContextExternalToolService</title>
<ellipse fill="#fdb462" stroke="black" cx="1452" cy="-104" rx="121.55" ry="18"/>
<text text-anchor="middle" x="1452" y="-99.8" font-family="Times,serif" font-size="14.00">ContextExternalToolService</text>
</g>
<!-- ContextExternalToolService&#45;&gt;ContextExternalToolModule -->
<g id="edge10" class="edge">
<title>ContextExternalToolService&#45;&gt;ContextExternalToolModule</title>
<path fill="none" stroke="black" d="M1452,-122.02C1452,-139.37 1452,-163 1452,-163 1452,-163 807,-163 807,-163"/>
<polygon fill="black" stroke="black" points="807,-159.5 797,-163 807,-166.5 807,-159.5"/>
</g>
<!-- ContextExternalToolValidationService -->
<g id="node12" class="node">
<title>ContextExternalToolValidationService</title>
<ellipse fill="#fdb462" stroke="black" cx="1150" cy="-104" rx="162.08" ry="18"/>
<text text-anchor="middle" x="1150" y="-99.8" font-family="Times,serif" font-size="14.00">ContextExternalToolValidationService</text>
</g>
<!-- ContextExternalToolValidationService&#45;&gt;ContextExternalToolModule -->
<g id="edge11" class="edge">
<title>ContextExternalToolValidationService&#45;&gt;ContextExternalToolModule</title>
<path fill="none" stroke="black" d="M1006.27,-112.75C1006.27,-127.81 1006.27,-157 1006.27,-157 1006.27,-157 807.09,-157 807.09,-157"/>
<polygon fill="black" stroke="black" points="807.09,-153.5 797.09,-157 807.09,-160.5 807.09,-153.5"/>
</g>
<!-- ToolConfigurationStatusService -->
<g id="node13" class="node">
<title>ToolConfigurationStatusService</title>
<ellipse fill="#fdb462" stroke="black" cx="834" cy="-104" rx="136.03" ry="18"/>
<text text-anchor="middle" x="834" y="-99.8" font-family="Times,serif" font-size="14.00">ToolConfigurationStatusService</text>
</g>
<!-- ToolConfigurationStatusService&#45;&gt;ContextExternalToolModule -->
<g id="edge12" class="edge">
<title>ToolConfigurationStatusService&#45;&gt;ContextExternalToolModule</title>
<path fill="none" stroke="black" d="M747.43,-118.1C747.43,-118.1 747.43,-140.72 747.43,-140.72"/>
<polygon fill="black" stroke="black" points="743.93,-140.72 747.43,-150.72 750.93,-140.72 743.93,-140.72"/>
</g>
<!-- ToolReferenceService -->
<g id="node14" class="node">
<title>ToolReferenceService</title>
<ellipse fill="#fdb462" stroke="black" cx="583" cy="-104" rx="97.23" ry="18"/>
<text text-anchor="middle" x="583" y="-99.8" font-family="Times,serif" font-size="14.00">ToolReferenceService</text>
</g>
<!-- ToolReferenceService&#45;&gt;ContextExternalToolModule -->
<g id="edge13" class="edge">
<title>ToolReferenceService&#45;&gt;ContextExternalToolModule</title>
<path fill="none" stroke="black" d="M649.74,-117.15C649.74,-117.15 649.74,-140.69 649.74,-140.69"/>
<polygon fill="black" stroke="black" points="646.24,-140.69 649.74,-150.69 653.24,-140.69 646.24,-140.69"/>
</g>
</g>
</svg>
