<?xml version="1.0" encoding="UTF-8" standalone="no"?>
<!DOCTYPE svg PUBLIC "-//W3C//DTD SVG 1.1//EN"
 "http://www.w3.org/Graphics/SVG/1.1/DTD/svg11.dtd">
<!-- Generated by graphviz version 2.47.0 (20210316.0004)
 -->
<!-- Title: dependencies Pages: 1 -->
<svg width="2110pt" height="284pt"
 viewBox="0.00 0.00 2110.00 284.00" xmlns="http://www.w3.org/2000/svg" xmlns:xlink="http://www.w3.org/1999/xlink">
<g id="graph0" class="graph" transform="scale(1 1) rotate(0) translate(4 280)">
<title>dependencies</title>
<polygon fill="white" stroke="transparent" points="-4,4 -4,-280 2106,-280 2106,4 -4,4"/>
<text text-anchor="start" x="1030.01" y="-42.4" font-family="Times-12" font-weight="bold" font-size="14.00">Legend</text>
<polygon fill="#ffffb3" stroke="transparent" points="817,-10 817,-30 837,-30 837,-10 817,-10"/>
<text text-anchor="start" x="840.63" y="-15.4" font-family="Times-12" font-size="14.00"> &#160;Declarations</text>
<polygon fill="#8dd3c7" stroke="transparent" points="930,-10 930,-30 950,-30 950,-10 930,-10"/>
<text text-anchor="start" x="953.73" y="-15.4" font-family="Times-12" font-size="14.00"> &#160;Module</text>
<polygon fill="#80b1d3" stroke="transparent" points="1016,-10 1016,-30 1036,-30 1036,-10 1016,-10"/>
<text text-anchor="start" x="1039.78" y="-15.4" font-family="Times-12" font-size="14.00"> &#160;Bootstrap</text>
<polygon fill="#fdb462" stroke="transparent" points="1113,-10 1113,-30 1133,-30 1133,-10 1113,-10"/>
<text text-anchor="start" x="1136.67" y="-15.4" font-family="Times-12" font-size="14.00"> &#160;Providers</text>
<polygon fill="#fb8072" stroke="transparent" points="1209,-10 1209,-30 1229,-30 1229,-10 1209,-10"/>
<text text-anchor="start" x="1232.73" y="-15.4" font-family="Times-12" font-size="14.00"> &#160;Exports</text>
<g id="clust1" class="cluster">
<title>cluster_ContextExternalToolModule</title>
<polygon fill="none" stroke="black" stroke-dasharray="1,5" points="8,-70 8,-268 2094,-268 2094,-70 8,-70"/>
</g>
<g id="clust4" class="cluster">
<title>cluster_ContextExternalToolModule_exports</title>
<polygon fill="none" stroke="black" points="792,-208 792,-260 1896,-260 1896,-208 792,-208"/>
</g>
<g id="clust3" class="cluster">
<title>cluster_ContextExternalToolModule_imports</title>
<polygon fill="none" stroke="black" points="1489,-78 1489,-130 2086,-130 2086,-78 1489,-78"/>
</g>
<g id="clust6" class="cluster">
<title>cluster_ContextExternalToolModule_providers</title>
<polygon fill="none" stroke="black" points="16,-78 16,-130 1481,-130 1481,-78 16,-78"/>
</g>
<!-- LoggerModule -->
<g id="node1" class="node">
<title>LoggerModule</title>
<polygon fill="#8dd3c7" stroke="black" points="2077.98,-122 2074.98,-126 2053.98,-126 2050.98,-122 1978.02,-122 1978.02,-86 2077.98,-86 2077.98,-122"/>
<text text-anchor="middle" x="2028" y="-99.8" font-family="Times,serif" font-size="14.00">LoggerModule</text>
</g>
<!-- ContextExternalToolModule -->
<g id="node5" class="node">
<title>ContextExternalToolModule</title>
<polygon fill="#8dd3c7" stroke="black" points="1389.75,-187 1386.75,-191 1365.75,-191 1362.75,-187 1212.25,-187 1212.25,-151 1389.75,-151 1389.75,-187"/>
<text text-anchor="middle" x="1301" y="-164.8" font-family="Times,serif" font-size="14.00">ContextExternalToolModule</text>
</g>
<!-- LoggerModule&#45;&gt;ContextExternalToolModule -->
<g id="edge1" class="edge">
<title>LoggerModule&#45;&gt;ContextExternalToolModule</title>
<path fill="none" stroke="black" d="M2028,-122.22C2028,-142.37 2028,-172 2028,-172 2028,-172 1399.78,-172 1399.78,-172"/>
<polygon fill="black" stroke="black" points="1399.78,-168.5 1389.78,-172 1399.78,-175.5 1399.78,-168.5"/>
</g>
<!-- SchoolExternalToolModule -->
<g id="node2" class="node">
<title>SchoolExternalToolModule</title>
<polygon fill="#8dd3c7" stroke="black" points="1960.3,-122 1957.3,-126 1936.3,-126 1933.3,-122 1787.7,-122 1787.7,-86 1960.3,-86 1960.3,-122"/>
<text text-anchor="middle" x="1874" y="-99.8" font-family="Times,serif" font-size="14.00">SchoolExternalToolModule</text>
</g>
<!-- SchoolExternalToolModule&#45;&gt;ContextExternalToolModule -->
<g id="edge2" class="edge">
<title>SchoolExternalToolModule&#45;&gt;ContextExternalToolModule</title>
<path fill="none" stroke="black" d="M1838.11,-122.22C1838.11,-140.83 1838.11,-167 1838.11,-167 1838.11,-167 1399.99,-167 1399.99,-167"/>
<polygon fill="black" stroke="black" points="1399.99,-163.5 1389.99,-167 1399.99,-170.5 1399.99,-163.5"/>
</g>
<!-- ToolConfigModule -->
<g id="node3" class="node">
<title>ToolConfigModule</title>
<polygon fill="#8dd3c7" stroke="black" points="1769.38,-122 1766.38,-126 1745.38,-126 1742.38,-122 1644.62,-122 1644.62,-86 1769.38,-86 1769.38,-122"/>
<text text-anchor="middle" x="1707" y="-99.8" font-family="Times,serif" font-size="14.00">ToolConfigModule</text>
</g>
<!-- ToolConfigModule&#45;&gt;ContextExternalToolModule -->
<g id="edge3" class="edge">
<title>ToolConfigModule&#45;&gt;ContextExternalToolModule</title>
<path fill="none" stroke="black" d="M1707,-122.03C1707,-139.06 1707,-162 1707,-162 1707,-162 1399.85,-162 1399.85,-162"/>
<polygon fill="black" stroke="black" points="1399.85,-158.5 1389.85,-162 1399.85,-165.5 1399.85,-158.5"/>
</g>
<!-- UserLicenseModule -->
<g id="node4" class="node">
<title>UserLicenseModule</title>
<polygon fill="#8dd3c7" stroke="black" points="1626.51,-122 1623.51,-126 1602.51,-126 1599.51,-122 1497.49,-122 1497.49,-86 1626.51,-86 1626.51,-122"/>
<text text-anchor="middle" x="1562" y="-99.8" font-family="Times,serif" font-size="14.00">UserLicenseModule</text>
</g>
<!-- UserLicenseModule&#45;&gt;ContextExternalToolModule -->
<g id="edge4" class="edge">
<title>UserLicenseModule&#45;&gt;ContextExternalToolModule</title>
<path fill="none" stroke="black" d="M1557.54,-122.24C1557.54,-137.57 1557.54,-157 1557.54,-157 1557.54,-157 1400.01,-157 1400.01,-157"/>
<polygon fill="black" stroke="black" points="1400.01,-153.5 1390.01,-157 1400.01,-160.5 1400.01,-153.5"/>
</g>
<!-- ContextExternalToolAuthorizableService  -->
<g id="node6" class="node">
<title>ContextExternalToolAuthorizableService </title>
<polygon fill="#fb8072" stroke="black" points="1888.26,-252 1635.74,-252 1635.74,-216 1888.26,-216 1888.26,-252"/>
<text text-anchor="middle" x="1762" y="-229.8" font-family="Times,serif" font-size="14.00">ContextExternalToolAuthorizableService </text>
</g>
<!-- ContextExternalToolModule&#45;&gt;ContextExternalToolAuthorizableService  -->
<g id="edge5" class="edge">
<title>ContextExternalToolModule&#45;&gt;ContextExternalToolAuthorizableService </title>
<path fill="none" stroke="black" stroke-dasharray="5,2" d="M1390.09,-177C1490.56,-177 1640.09,-177 1640.09,-177 1640.09,-177 1640.09,-205.96 1640.09,-205.96"/>
<polygon fill="black" stroke="black" points="1636.59,-205.96 1640.09,-215.96 1643.59,-205.96 1636.59,-205.96"/>
</g>
<!-- ContextExternalToolService  -->
<g id="node7" class="node">
<title>ContextExternalToolService </title>
<polygon fill="#fb8072" stroke="black" points="1617.68,-252 1438.32,-252 1438.32,-216 1617.68,-216 1617.68,-252"/>
<text text-anchor="middle" x="1528" y="-229.8" font-family="Times,serif" font-size="14.00">ContextExternalToolService </text>
</g>
<!-- ContextExternalToolModule&#45;&gt;ContextExternalToolService  -->
<g id="edge6" class="edge">
<title>ContextExternalToolModule&#45;&gt;ContextExternalToolService </title>
<path fill="none" stroke="black" stroke-dasharray="5,2" d="M1390.01,-182C1424.36,-182 1455.55,-182 1455.55,-182 1455.55,-182 1455.55,-205.81 1455.55,-205.81"/>
<polygon fill="black" stroke="black" points="1452.05,-205.81 1455.55,-215.81 1459.05,-205.81 1452.05,-205.81"/>
</g>
<!-- ContextExternalToolValidationService  -->
<g id="node8" class="node">
<title>ContextExternalToolValidationService </title>
<polygon fill="#fb8072" stroke="black" points="1420.28,-252 1181.72,-252 1181.72,-216 1420.28,-216 1420.28,-252"/>
<text text-anchor="middle" x="1301" y="-229.8" font-family="Times,serif" font-size="14.00">ContextExternalToolValidationService </text>
</g>
<!-- ContextExternalToolModule&#45;&gt;ContextExternalToolValidationService  -->
<g id="edge7" class="edge">
<title>ContextExternalToolModule&#45;&gt;ContextExternalToolValidationService </title>
<path fill="none" stroke="black" stroke-dasharray="5,2" d="M1301,-187.11C1301,-187.11 1301,-205.99 1301,-205.99"/>
<polygon fill="black" stroke="black" points="1297.5,-205.99 1301,-215.99 1304.5,-205.99 1297.5,-205.99"/>
</g>
<!-- ToolConfigurationStatusService  -->
<g id="node9" class="node">
<title>ToolConfigurationStatusService </title>
<polygon fill="#fb8072" stroke="black" points="1163.19,-252 962.81,-252 962.81,-216 1163.19,-216 1163.19,-252"/>
<text text-anchor="middle" x="1063" y="-229.8" font-family="Times,serif" font-size="14.00">ToolConfigurationStatusService </text>
</g>
<!-- ContextExternalToolModule&#45;&gt;ToolConfigurationStatusService  -->
<g id="edge8" class="edge">
<title>ContextExternalToolModule&#45;&gt;ToolConfigurationStatusService </title>
<path fill="none" stroke="black" stroke-dasharray="5,2" d="M1211.85,-182C1177.44,-182 1146.2,-182 1146.2,-182 1146.2,-182 1146.2,-205.81 1146.2,-205.81"/>
<polygon fill="black" stroke="black" points="1142.7,-205.81 1146.2,-215.81 1149.7,-205.81 1142.7,-205.81"/>
</g>
<!-- ToolReferenceService  -->
<g id="node10" class="node">
<title>ToolReferenceService </title>
<polygon fill="#fb8072" stroke="black" points="944.15,-252 799.85,-252 799.85,-216 944.15,-216 944.15,-252"/>
<text text-anchor="middle" x="872" y="-229.8" font-family="Times,serif" font-size="14.00">ToolReferenceService </text>
</g>
<!-- ContextExternalToolModule&#45;&gt;ToolReferenceService  -->
<g id="edge9" class="edge">
<title>ContextExternalToolModule&#45;&gt;ToolReferenceService </title>
<path fill="none" stroke="black" stroke-dasharray="5,2" d="M1211.95,-177C1095.57,-177 906.4,-177 906.4,-177 906.4,-177 906.4,-205.96 906.4,-205.96"/>
<polygon fill="black" stroke="black" points="902.9,-205.96 906.4,-215.96 909.9,-205.96 902.9,-205.96"/>
</g>
<!-- ContextExternalToolAuthorizableService -->
<g id="node11" class="node">
<title>ContextExternalToolAuthorizableService</title>
<ellipse fill="#fdb462" stroke="black" cx="1301" cy="-104" rx="171.87" ry="18"/>
<text text-anchor="middle" x="1301" y="-99.8" font-family="Times,serif" font-size="14.00">ContextExternalToolAuthorizableService</text>
</g>
<!-- ContextExternalToolAuthorizableService&#45;&gt;ContextExternalToolModule -->
<g id="edge10" class="edge">
<title>ContextExternalToolAuthorizableService&#45;&gt;ContextExternalToolModule</title>
<path fill="none" stroke="black" d="M1301,-122.11C1301,-122.11 1301,-140.99 1301,-140.99"/>
<polygon fill="black" stroke="black" points="1297.5,-140.99 1301,-150.99 1304.5,-140.99 1297.5,-140.99"/>
</g>
<!-- ContextExternalToolService -->
<g id="node12" class="node">
<title>ContextExternalToolService</title>
<ellipse fill="#fdb462" stroke="black" cx="990" cy="-104" rx="121.55" ry="18"/>
<text text-anchor="middle" x="990" y="-99.8" font-family="Times,serif" font-size="14.00">ContextExternalToolService</text>
</g>
<!-- ContextExternalToolService&#45;&gt;ContextExternalToolModule -->
<g id="edge11" class="edge">
<title>ContextExternalToolService&#45;&gt;ContextExternalToolModule</title>
<path fill="none" stroke="black" d="M1037.09,-120.77C1037.09,-136.3 1037.09,-157 1037.09,-157 1037.09,-157 1202.02,-157 1202.02,-157"/>
<polygon fill="black" stroke="black" points="1202.02,-160.5 1212.02,-157 1202.02,-153.5 1202.02,-160.5"/>
</g>
<!-- ContextExternalToolValidationService -->
<g id="node13" class="node">
<title>ContextExternalToolValidationService</title>
<ellipse fill="#fdb462" stroke="black" cx="688" cy="-104" rx="162.08" ry="18"/>
<text text-anchor="middle" x="688" y="-99.8" font-family="Times,serif" font-size="14.00">ContextExternalToolValidationService</text>
</g>
<!-- ContextExternalToolValidationService&#45;&gt;ContextExternalToolModule -->
<g id="edge12" class="edge">
<title>ContextExternalToolValidationService&#45;&gt;ContextExternalToolModule</title>
<path fill="none" stroke="black" d="M824.98,-113.84C824.98,-130.39 824.98,-162 824.98,-162 824.98,-162 1202.02,-162 1202.02,-162"/>
<polygon fill="black" stroke="black" points="1202.02,-165.5 1212.02,-162 1202.02,-158.5 1202.02,-165.5"/>
</g>
<!-- ToolConfigurationStatusService -->
<g id="node14" class="node">
<title>ToolConfigurationStatusService</title>
<ellipse fill="#fdb462" stroke="black" cx="372" cy="-104" rx="136.03" ry="18"/>
<text text-anchor="middle" x="372" y="-99.8" font-family="Times,serif" font-size="14.00">ToolConfigurationStatusService</text>
</g>
<!-- ToolConfigurationStatusService&#45;&gt;ContextExternalToolModule -->
<g id="edge13" class="edge">
<title>ToolConfigurationStatusService&#45;&gt;ContextExternalToolModule</title>
<path fill="none" stroke="black" d="M372,-122.22C372,-140.83 372,-167 372,-167 372,-167 1201.92,-167 1201.92,-167"/>
<polygon fill="black" stroke="black" points="1201.92,-170.5 1211.92,-167 1201.92,-163.5 1201.92,-170.5"/>
</g>
<!-- ToolReferenceService -->
<g id="node15" class="node">
<title>ToolReferenceService</title>
<ellipse fill="#fdb462" stroke="black" cx="121" cy="-104" rx="97.23" ry="18"/>
<text text-anchor="middle" x="121" y="-99.8" font-family="Times,serif" font-size="14.00">ToolReferenceService</text>
</g>
<!-- ToolReferenceService&#45;&gt;ContextExternalToolModule -->
<g id="edge14" class="edge">
<title>ToolReferenceService&#45;&gt;ContextExternalToolModule</title>
<path fill="none" stroke="black" d="M121,-122.22C121,-142.37 121,-172 121,-172 121,-172 1201.82,-172 1201.82,-172"/>
<polygon fill="black" stroke="black" points="1201.82,-175.5 1211.82,-172 1201.82,-168.5 1201.82,-175.5"/>
</g>
</g>
</svg>
