<?xml version="1.0" encoding="UTF-8" standalone="no"?>
<!DOCTYPE svg PUBLIC "-//W3C//DTD SVG 1.1//EN"
 "http://www.w3.org/Graphics/SVG/1.1/DTD/svg11.dtd">
<!-- Generated by graphviz version 2.47.0 (20210316.0004)
 -->
<!-- Title: dependencies Pages: 1 -->
<svg width="1283pt" height="284pt"
 viewBox="0.00 0.00 1283.00 284.00" xmlns="http://www.w3.org/2000/svg" xmlns:xlink="http://www.w3.org/1999/xlink">
<g id="graph0" class="graph" transform="scale(1 1) rotate(0) translate(4 280)">
<title>dependencies</title>
<polygon fill="white" stroke="transparent" points="-4,4 -4,-280 1279,-280 1279,4 -4,4"/>
<text text-anchor="start" x="616.51" y="-42.4" font-family="Times-12" font-weight="bold" font-size="14.00">Legend</text>
<polygon fill="#ffffb3" stroke="transparent" points="403.5,-10 403.5,-30 423.5,-30 423.5,-10 403.5,-10"/>
<text text-anchor="start" x="427.13" y="-15.4" font-family="Times-12" font-size="14.00"> &#160;Declarations</text>
<polygon fill="#8dd3c7" stroke="transparent" points="516.5,-10 516.5,-30 536.5,-30 536.5,-10 516.5,-10"/>
<text text-anchor="start" x="540.23" y="-15.4" font-family="Times-12" font-size="14.00"> &#160;Module</text>
<polygon fill="#80b1d3" stroke="transparent" points="602.5,-10 602.5,-30 622.5,-30 622.5,-10 602.5,-10"/>
<text text-anchor="start" x="626.28" y="-15.4" font-family="Times-12" font-size="14.00"> &#160;Bootstrap</text>
<polygon fill="#fdb462" stroke="transparent" points="699.5,-10 699.5,-30 719.5,-30 719.5,-10 699.5,-10"/>
<text text-anchor="start" x="723.17" y="-15.4" font-family="Times-12" font-size="14.00"> &#160;Providers</text>
<polygon fill="#fb8072" stroke="transparent" points="795.5,-10 795.5,-30 815.5,-30 815.5,-10 795.5,-10"/>
<text text-anchor="start" x="819.23" y="-15.4" font-family="Times-12" font-size="14.00"> &#160;Exports</text>
<g id="clust1" class="cluster">
<title>cluster_ContextExternalToolModule</title>
<polygon fill="none" stroke="black" stroke-dasharray="1,5" points="8,-70 8,-268 1267,-268 1267,-70 8,-70"/>
</g>
<g id="clust3" class="cluster">
<title>cluster_ContextExternalToolModule_imports</title>
<polygon fill="none" stroke="black" points="987,-78 987,-130 1259,-130 1259,-78 987,-78"/>
</g>
<g id="clust6" class="cluster">
<title>cluster_ContextExternalToolModule_providers</title>
<polygon fill="none" stroke="black" points="16,-78 16,-130 979,-130 979,-78 16,-78"/>
</g>
<g id="clust4" class="cluster">
<title>cluster_ContextExternalToolModule_exports</title>
<polygon fill="none" stroke="black" points="445,-208 445,-260 1167,-260 1167,-208 445,-208"/>
</g>
<!-- CommonToolModule -->
<g id="node1" class="node">
<title>CommonToolModule</title>
<polygon fill="#8dd3c7" stroke="black" points="1251.11,-122 1248.11,-126 1227.11,-126 1224.11,-122 1112.89,-122 1112.89,-86 1251.11,-86 1251.11,-122"/>
<text text-anchor="middle" x="1182" y="-99.8" font-family="Times,serif" font-size="14.00">CommonToolModule</text>
</g>
<!-- ContextExternalToolModule -->
<g id="node3" class="node">
<title>ContextExternalToolModule</title>
<polygon fill="#8dd3c7" stroke="black" points="887.75,-187 884.75,-191 863.75,-191 860.75,-187 710.25,-187 710.25,-151 887.75,-151 887.75,-187"/>
<text text-anchor="middle" x="799" y="-164.8" font-family="Times,serif" font-size="14.00">ContextExternalToolModule</text>
</g>
<!-- CommonToolModule&#45;&gt;ContextExternalToolModule -->
<g id="edge1" class="edge">
<title>CommonToolModule&#45;&gt;ContextExternalToolModule</title>
<path fill="none" stroke="black" d="M1136.16,-122.11C1136.16,-141.34 1136.16,-169 1136.16,-169 1136.16,-169 898.03,-169 898.03,-169"/>
<polygon fill="black" stroke="black" points="898.03,-165.5 888.03,-169 898.03,-172.5 898.03,-165.5"/>
</g>
<!-- LoggerModule -->
<g id="node2" class="node">
<title>LoggerModule</title>
<polygon fill="#8dd3c7" stroke="black" points="1094.98,-122 1091.98,-126 1070.98,-126 1067.98,-122 995.02,-122 995.02,-86 1094.98,-86 1094.98,-122"/>
<text text-anchor="middle" x="1045" y="-99.8" font-family="Times,serif" font-size="14.00">LoggerModule</text>
</g>
<!-- LoggerModule&#45;&gt;ContextExternalToolModule -->
<g id="edge2" class="edge">
<title>LoggerModule&#45;&gt;ContextExternalToolModule</title>
<path fill="none" stroke="black" d="M1045,-122.03C1045,-138.4 1045,-160 1045,-160 1045,-160 897.81,-160 897.81,-160"/>
<polygon fill="black" stroke="black" points="897.81,-156.5 887.81,-160 897.81,-163.5 897.81,-156.5"/>
</g>
<!-- ContextExternalToolAuthorizableService  -->
<g id="node4" class="node">
<title>ContextExternalToolAuthorizableService </title>
<polygon fill="#fb8072" stroke="black" points="1159.26,-252 906.74,-252 906.74,-216 1159.26,-216 1159.26,-252"/>
<text text-anchor="middle" x="1033" y="-229.8" font-family="Times,serif" font-size="14.00">ContextExternalToolAuthorizableService </text>
</g>
<!-- ContextExternalToolModule&#45;&gt;ContextExternalToolAuthorizableService  -->
<g id="edge3" class="edge">
<title>ContextExternalToolModule&#45;&gt;ContextExternalToolAuthorizableService </title>
<path fill="none" stroke="black" stroke-dasharray="5,2" d="M887.92,-178C915.49,-178 938.78,-178 938.78,-178 938.78,-178 938.78,-205.97 938.78,-205.97"/>
<polygon fill="black" stroke="black" points="935.28,-205.97 938.78,-215.97 942.28,-205.97 935.28,-205.97"/>
</g>
<!-- ContextExternalToolService  -->
<g id="node5" class="node">
<title>ContextExternalToolService </title>
<polygon fill="#fb8072" stroke="black" points="888.68,-252 709.32,-252 709.32,-216 888.68,-216 888.68,-252"/>
<text text-anchor="middle" x="799" y="-229.8" font-family="Times,serif" font-size="14.00">ContextExternalToolService </text>
</g>
<!-- ContextExternalToolModule&#45;&gt;ContextExternalToolService  -->
<g id="edge4" class="edge">
<title>ContextExternalToolModule&#45;&gt;ContextExternalToolService </title>
<path fill="none" stroke="black" stroke-dasharray="5,2" d="M799,-187.11C799,-187.11 799,-205.99 799,-205.99"/>
<polygon fill="black" stroke="black" points="795.5,-205.99 799,-215.99 802.5,-205.99 795.5,-205.99"/>
</g>
<!-- ContextExternalToolValidationService  -->
<g id="node6" class="node">
<title>ContextExternalToolValidationService </title>
<polygon fill="#fb8072" stroke="black" points="691.28,-252 452.72,-252 452.72,-216 691.28,-216 691.28,-252"/>
<text text-anchor="middle" x="572" y="-229.8" font-family="Times,serif" font-size="14.00">ContextExternalToolValidationService </text>
</g>
<!-- ContextExternalToolModule&#45;&gt;ContextExternalToolValidationService  -->
<g id="edge5" class="edge">
<title>ContextExternalToolModule&#45;&gt;ContextExternalToolValidationService </title>
<path fill="none" stroke="black" stroke-dasharray="5,2" d="M710.08,-178C682.52,-178 659.23,-178 659.23,-178 659.23,-178 659.23,-205.97 659.23,-205.97"/>
<polygon fill="black" stroke="black" points="655.73,-205.97 659.23,-215.97 662.73,-205.97 655.73,-205.97"/>
</g>
<!-- ContextExternalToolAuthorizableService -->
<g id="node7" class="node">
<title>ContextExternalToolAuthorizableService</title>
<ellipse fill="#fdb462" stroke="black" cx="799" cy="-104" rx="171.87" ry="18"/>
<text text-anchor="middle" x="799" y="-99.8" font-family="Times,serif" font-size="14.00">ContextExternalToolAuthorizableService</text>
</g>
<!-- ContextExternalToolAuthorizableService&#45;&gt;ContextExternalToolModule -->
<g id="edge6" class="edge">
<title>ContextExternalToolAuthorizableService&#45;&gt;ContextExternalToolModule</title>
<path fill="none" stroke="black" d="M799,-122.11C799,-122.11 799,-140.99 799,-140.99"/>
<polygon fill="black" stroke="black" points="795.5,-140.99 799,-150.99 802.5,-140.99 795.5,-140.99"/>
</g>
<!-- ContextExternalToolService -->
<g id="node8" class="node">
<title>ContextExternalToolService</title>
<ellipse fill="#fdb462" stroke="black" cx="488" cy="-104" rx="121.55" ry="18"/>
<text text-anchor="middle" x="488" y="-99.8" font-family="Times,serif" font-size="14.00">ContextExternalToolService</text>
</g>
<!-- ContextExternalToolService&#45;&gt;ContextExternalToolModule -->
<g id="edge7" class="edge">
<title>ContextExternalToolService&#45;&gt;ContextExternalToolModule</title>
<path fill="none" stroke="black" d="M531.07,-121.11C531.07,-137.57 531.07,-160 531.07,-160 531.07,-160 700.15,-160 700.15,-160"/>
<polygon fill="black" stroke="black" points="700.15,-163.5 710.15,-160 700.15,-156.5 700.15,-163.5"/>
</g>
<!-- ContextExternalToolValidationService -->
<g id="node9" class="node">
<title>ContextExternalToolValidationService</title>
<ellipse fill="#fdb462" stroke="black" cx="186" cy="-104" rx="162.08" ry="18"/>
<text text-anchor="middle" x="186" y="-99.8" font-family="Times,serif" font-size="14.00">ContextExternalToolValidationService</text>
</g>
<!-- ContextExternalToolValidationService&#45;&gt;ContextExternalToolModule -->
<g id="edge8" class="edge">
<title>ContextExternalToolValidationService&#45;&gt;ContextExternalToolModule</title>
<path fill="none" stroke="black" d="M186,-122.11C186,-141.34 186,-169 186,-169 186,-169 700.19,-169 700.19,-169"/>
<polygon fill="black" stroke="black" points="700.19,-172.5 710.19,-169 700.19,-165.5 700.19,-172.5"/>
</g>
</g>
</svg>
