<?xml version="1.0" encoding="UTF-8" standalone="no"?>
<!DOCTYPE svg PUBLIC "-//W3C//DTD SVG 1.1//EN"
 "http://www.w3.org/Graphics/SVG/1.1/DTD/svg11.dtd">
<!-- Generated by graphviz version 2.47.0 (20210316.0004)
 -->
<!-- Title: dependencies Pages: 1 -->
<svg width="504pt" height="211pt"
 viewBox="0.00 0.00 504.00 211.00" xmlns="http://www.w3.org/2000/svg" xmlns:xlink="http://www.w3.org/1999/xlink">
<g id="graph0" class="graph" transform="scale(1 1) rotate(0) translate(4 207)">
<title>dependencies</title>
<polygon fill="white" stroke="transparent" points="-4,4 -4,-207 500,-207 500,4 -4,4"/>
<text text-anchor="start" x="227.01" y="-42.4" font-family="Times-12" font-weight="bold" font-size="14.00">Legend</text>
<polygon fill="#ffffb3" stroke="transparent" points="14,-10 14,-30 34,-30 34,-10 14,-10"/>
<text text-anchor="start" x="37.63" y="-15.4" font-family="Times-12" font-size="14.00"> &#160;Declarations</text>
<polygon fill="#8dd3c7" stroke="transparent" points="127,-10 127,-30 147,-30 147,-10 127,-10"/>
<text text-anchor="start" x="150.73" y="-15.4" font-family="Times-12" font-size="14.00"> &#160;Module</text>
<polygon fill="#80b1d3" stroke="transparent" points="213,-10 213,-30 233,-30 233,-10 213,-10"/>
<text text-anchor="start" x="236.78" y="-15.4" font-family="Times-12" font-size="14.00"> &#160;Bootstrap</text>
<polygon fill="#fdb462" stroke="transparent" points="310,-10 310,-30 330,-30 330,-10 310,-10"/>
<text text-anchor="start" x="333.67" y="-15.4" font-family="Times-12" font-size="14.00"> &#160;Providers</text>
<polygon fill="#fb8072" stroke="transparent" points="406,-10 406,-30 426,-30 426,-10 406,-10"/>
<text text-anchor="start" x="429.73" y="-15.4" font-family="Times-12" font-size="14.00"> &#160;Exports</text>
<g id="clust1" class="cluster">
<title>cluster_AlertModule</title>
<polygon fill="none" stroke="black" stroke-dasharray="1,5" points="22,-70 22,-195 474,-195 474,-70 22,-70"/>
</g>
<g id="clust6" class="cluster">
<title>cluster_AlertModule_providers</title>
<polygon fill="none" stroke="black" points="30,-78 30,-130 466,-130 466,-78 30,-78"/>
</g>
<!-- AlertCacheService -->
<g id="node1" class="node">
<title>AlertCacheService</title>
<ellipse fill="#fdb462" stroke="black" cx="374" cy="-104" rx="83.92" ry="18"/>
<text text-anchor="middle" x="374" y="-99.8" font-family="Times,serif" font-size="14.00">AlertCacheService</text>
</g>
<!-- AlertModule -->
<g id="node4" class="node">
<title>AlertModule</title>
<polygon fill="#8dd3c7" stroke="black" points="274.31,-187 271.31,-191 250.31,-191 247.31,-187 185.69,-187 185.69,-151 274.31,-151 274.31,-187"/>
<text text-anchor="middle" x="230" y="-164.8" font-family="Times,serif" font-size="14.00">AlertModule</text>
</g>
<!-- AlertCacheService&#45;&gt;AlertModule -->
<g id="edge1" class="edge">
<title>AlertCacheService&#45;&gt;AlertModule</title>
<path fill="none" stroke="black" d="M374,-122.11C374,-141.34 374,-169 374,-169 374,-169 284.38,-169 284.38,-169"/>
<polygon fill="black" stroke="black" points="284.38,-165.5 274.38,-169 284.38,-172.5 284.38,-165.5"/>
</g>
<!-- AlertUc -->
<g id="node2" class="node">
<title>AlertUc</title>
<ellipse fill="#fdb462" stroke="black" cx="230" cy="-104" rx="42.27" ry="18"/>
<text text-anchor="middle" x="230" y="-99.8" font-family="Times,serif" font-size="14.00">AlertUc</text>
</g>
<!-- AlertUc&#45;&gt;AlertModule -->
<g id="edge2" class="edge">
<title>AlertUc&#45;&gt;AlertModule</title>
<path fill="none" stroke="black" d="M230,-122.11C230,-122.11 230,-140.99 230,-140.99"/>
<polygon fill="black" stroke="black" points="226.5,-140.99 230,-150.99 233.5,-140.99 226.5,-140.99"/>
</g>
<!-- StatusAdapter -->
<g id="node3" class="node">
<title>StatusAdapter</title>
<ellipse fill="#fdb462" stroke="black" cx="104" cy="-104" rx="65.99" ry="18"/>
<text text-anchor="middle" x="104" y="-99.8" font-family="Times,serif" font-size="14.00">StatusAdapter</text>
</g>
<!-- StatusAdapter&#45;&gt;AlertModule -->
<g id="edge3" class="edge">
<title>StatusAdapter&#45;&gt;AlertModule</title>
<path fill="none" stroke="black" d="M104,-122.11C104,-141.34 104,-169 104,-169 104,-169 175.58,-169 175.58,-169"/>
<polygon fill="black" stroke="black" points="175.58,-172.5 185.58,-169 175.58,-165.5 175.58,-172.5"/>
</g>
</g>
</svg>
