<?xml version="1.0" encoding="UTF-8" standalone="no"?>
<!DOCTYPE svg PUBLIC "-//W3C//DTD SVG 1.1//EN"
 "http://www.w3.org/Graphics/SVG/1.1/DTD/svg11.dtd">
<!-- Generated by graphviz version 2.47.0 (20210316.0004)
 -->
<!-- Title: dependencies Pages: 1 -->
<svg width="522pt" height="284pt"
 viewBox="0.00 0.00 522.00 284.00" xmlns="http://www.w3.org/2000/svg" xmlns:xlink="http://www.w3.org/1999/xlink">
<g id="graph0" class="graph" transform="scale(1 1) rotate(0) translate(4 280)">
<title>dependencies</title>
<polygon fill="white" stroke="transparent" points="-4,4 -4,-280 518,-280 518,4 -4,4"/>
<text text-anchor="start" x="236.01" y="-42.4" font-family="Times-12" font-weight="bold" font-size="14.00">Legend</text>
<polygon fill="#ffffb3" stroke="transparent" points="23,-10 23,-30 43,-30 43,-10 23,-10"/>
<text text-anchor="start" x="46.63" y="-15.4" font-family="Times-12" font-size="14.00"> &#160;Declarations</text>
<polygon fill="#8dd3c7" stroke="transparent" points="136,-10 136,-30 156,-30 156,-10 136,-10"/>
<text text-anchor="start" x="159.73" y="-15.4" font-family="Times-12" font-size="14.00"> &#160;Module</text>
<polygon fill="#80b1d3" stroke="transparent" points="222,-10 222,-30 242,-30 242,-10 222,-10"/>
<text text-anchor="start" x="245.78" y="-15.4" font-family="Times-12" font-size="14.00"> &#160;Bootstrap</text>
<polygon fill="#fdb462" stroke="transparent" points="319,-10 319,-30 339,-30 339,-10 319,-10"/>
<text text-anchor="start" x="342.67" y="-15.4" font-family="Times-12" font-size="14.00"> &#160;Providers</text>
<polygon fill="#fb8072" stroke="transparent" points="415,-10 415,-30 435,-30 435,-10 415,-10"/>
<text text-anchor="start" x="438.73" y="-15.4" font-family="Times-12" font-size="14.00"> &#160;Exports</text>
<g id="clust1" class="cluster">
<title>cluster_PreviewGeneratorProducerModule</title>
<polygon fill="none" stroke="black" stroke-dasharray="1,5" points="8,-70 8,-268 506,-268 506,-70 8,-70"/>
</g>
<g id="clust3" class="cluster">
<title>cluster_PreviewGeneratorProducerModule_imports</title>
<polygon fill="none" stroke="black" points="196,-78 196,-130 498,-130 498,-78 196,-78"/>
</g>
<g id="clust6" class="cluster">
<title>cluster_PreviewGeneratorProducerModule_providers</title>
<polygon fill="none" stroke="black" points="16,-78 16,-130 188,-130 188,-78 16,-78"/>
</g>
<g id="clust4" class="cluster">
<title>cluster_PreviewGeneratorProducerModule_exports</title>
<polygon fill="none" stroke="black" points="222,-208 222,-260 354,-260 354,-208 222,-208"/>
</g>
<!-- LoggerModule -->
<g id="node1" class="node">
<title>LoggerModule</title>
<polygon fill="#8dd3c7" stroke="black" points="489.98,-122 486.98,-126 465.98,-126 462.98,-122 390.02,-122 390.02,-86 489.98,-86 489.98,-122"/>
<text text-anchor="middle" x="440" y="-99.8" font-family="Times,serif" font-size="14.00">LoggerModule</text>
</g>
<!-- PreviewGeneratorProducerModule -->
<g id="node3" class="node">
<title>PreviewGeneratorProducerModule</title>
<polygon fill="#8dd3c7" stroke="black" points="393.91,-187 390.91,-191 369.91,-191 366.91,-187 182.09,-187 182.09,-151 393.91,-151 393.91,-187"/>
<text text-anchor="middle" x="288" y="-164.8" font-family="Times,serif" font-size="14.00">PreviewGeneratorProducerModule</text>
</g>
<!-- LoggerModule&#45;&gt;PreviewGeneratorProducerModule -->
<g id="edge1" class="edge">
<title>LoggerModule&#45;&gt;PreviewGeneratorProducerModule</title>
<path fill="none" stroke="black" d="M389.8,-104C384.56,-104 381.11,-104 381.11,-104 381.11,-104 381.11,-140.89 381.11,-140.89"/>
<polygon fill="black" stroke="black" points="377.61,-140.89 381.11,-150.89 384.61,-140.89 377.61,-140.89"/>
</g>
<!-- RabbitMQWrapperModule -->
<g id="node2" class="node">
<title>RabbitMQWrapperModule</title>
<polygon fill="#8dd3c7" stroke="black" points="372.4,-122 369.4,-126 348.4,-126 345.4,-122 203.6,-122 203.6,-86 372.4,-86 372.4,-122"/>
<text text-anchor="middle" x="288" y="-99.8" font-family="Times,serif" font-size="14.00">RabbitMQWrapperModule</text>
</g>
<!-- RabbitMQWrapperModule&#45;&gt;PreviewGeneratorProducerModule -->
<g id="edge2" class="edge">
<title>RabbitMQWrapperModule&#45;&gt;PreviewGeneratorProducerModule</title>
<path fill="none" stroke="black" d="M288,-122.11C288,-122.11 288,-140.99 288,-140.99"/>
<polygon fill="black" stroke="black" points="284.5,-140.99 288,-150.99 291.5,-140.99 284.5,-140.99"/>
</g>
<!-- PreviewProducer  -->
<g id="node4" class="node">
<title>PreviewProducer </title>
<polygon fill="#fb8072" stroke="black" points="345.9,-252 230.1,-252 230.1,-216 345.9,-216 345.9,-252"/>
<text text-anchor="middle" x="288" y="-229.8" font-family="Times,serif" font-size="14.00">PreviewProducer </text>
</g>
<!-- PreviewGeneratorProducerModule&#45;&gt;PreviewProducer  -->
<g id="edge3" class="edge">
<title>PreviewGeneratorProducerModule&#45;&gt;PreviewProducer </title>
<path fill="none" stroke="black" stroke-dasharray="5,2" d="M288,-187.11C288,-187.11 288,-205.99 288,-205.99"/>
<polygon fill="black" stroke="black" points="284.5,-205.99 288,-215.99 291.5,-205.99 284.5,-205.99"/>
</g>
<!-- PreviewProducer -->
<g id="node5" class="node">
<title>PreviewProducer</title>
<ellipse fill="#fdb462" stroke="black" cx="102" cy="-104" rx="77.57" ry="18"/>
<text text-anchor="middle" x="102" y="-99.8" font-family="Times,serif" font-size="14.00">PreviewProducer</text>
</g>
<!-- PreviewProducer&#45;&gt;PreviewGeneratorProducerModule -->
<g id="edge4" class="edge">
<title>PreviewProducer&#45;&gt;PreviewGeneratorProducerModule</title>
<path fill="none" stroke="black" d="M179.89,-104C187.76,-104 192.92,-104 192.92,-104 192.92,-104 192.92,-140.89 192.92,-140.89"/>
<polygon fill="black" stroke="black" points="189.42,-140.89 192.92,-150.89 196.42,-140.89 189.42,-140.89"/>
</g>
</g>
</svg>
