<?xml version="1.0" encoding="UTF-8" standalone="no"?>
<!DOCTYPE svg PUBLIC "-//W3C//DTD SVG 1.1//EN"
 "http://www.w3.org/Graphics/SVG/1.1/DTD/svg11.dtd">
<!-- Generated by graphviz version 2.47.0 (20210316.0004)
 -->
<!-- Title: dependencies Pages: 1 -->
<svg width="522pt" height="284pt"
 viewBox="0.00 0.00 522.00 284.00" xmlns="http://www.w3.org/2000/svg" xmlns:xlink="http://www.w3.org/1999/xlink">
<g id="graph0" class="graph" transform="scale(1 1) rotate(0) translate(4 280)">
<title>dependencies</title>
<polygon fill="white" stroke="transparent" points="-4,4 -4,-280 518,-280 518,4 -4,4"/>
<text text-anchor="start" x="236.01" y="-42.4" font-family="Times-12" font-weight="bold" font-size="14.00">Legend</text>
<polygon fill="#ffffb3" stroke="transparent" points="23,-10 23,-30 43,-30 43,-10 23,-10"/>
<text text-anchor="start" x="46.63" y="-15.4" font-family="Times-12" font-size="14.00"> &#160;Declarations</text>
<polygon fill="#8dd3c7" stroke="transparent" points="136,-10 136,-30 156,-30 156,-10 136,-10"/>
<text text-anchor="start" x="159.73" y="-15.4" font-family="Times-12" font-size="14.00"> &#160;Module</text>
<polygon fill="#80b1d3" stroke="transparent" points="222,-10 222,-30 242,-30 242,-10 222,-10"/>
<text text-anchor="start" x="245.78" y="-15.4" font-family="Times-12" font-size="14.00"> &#160;Bootstrap</text>
<polygon fill="#fdb462" stroke="transparent" points="319,-10 319,-30 339,-30 339,-10 319,-10"/>
<text text-anchor="start" x="342.67" y="-15.4" font-family="Times-12" font-size="14.00"> &#160;Providers</text>
<polygon fill="#fb8072" stroke="transparent" points="415,-10 415,-30 435,-30 435,-10 415,-10"/>
<text text-anchor="start" x="438.73" y="-15.4" font-family="Times-12" font-size="14.00"> &#160;Exports</text>
<g id="clust1" class="cluster">
<title>cluster_PreviewGeneratorProducerModule</title>
<polygon fill="none" stroke="black" stroke-dasharray="1,5" points="8,-70 8,-268 506,-268 506,-70 8,-70"/>
</g>
<g id="clust4" class="cluster">
<title>cluster_PreviewGeneratorProducerModule_exports</title>
<polygon fill="none" stroke="black" points="194,-208 194,-260 326,-260 326,-208 194,-208"/>
</g>
<g id="clust6" class="cluster">
<title>cluster_PreviewGeneratorProducerModule_providers</title>
<polygon fill="none" stroke="black" points="326,-78 326,-130 498,-130 498,-78 326,-78"/>
</g>
<g id="clust3" class="cluster">
<title>cluster_PreviewGeneratorProducerModule_imports</title>
<polygon fill="none" stroke="black" points="16,-78 16,-130 318,-130 318,-78 16,-78"/>
</g>
<!-- LoggerModule -->
<g id="node1" class="node">
<title>LoggerModule</title>
<polygon fill="#8dd3c7" stroke="black" points="309.98,-122 306.98,-126 285.98,-126 282.98,-122 210.02,-122 210.02,-86 309.98,-86 309.98,-122"/>
<text text-anchor="middle" x="260" y="-99.8" font-family="Times,serif" font-size="14.00">LoggerModule</text>
</g>
<!-- PreviewGeneratorProducerModule -->
<g id="node3" class="node">
<title>PreviewGeneratorProducerModule</title>
<polygon fill="#8dd3c7" stroke="black" points="365.91,-187 362.91,-191 341.91,-191 338.91,-187 154.09,-187 154.09,-151 365.91,-151 365.91,-187"/>
<text text-anchor="middle" x="260" y="-164.8" font-family="Times,serif" font-size="14.00">PreviewGeneratorProducerModule</text>
</g>
<!-- LoggerModule&#45;&gt;PreviewGeneratorProducerModule -->
<g id="edge1" class="edge">
<title>LoggerModule&#45;&gt;PreviewGeneratorProducerModule</title>
<path fill="none" stroke="black" d="M260,-122.11C260,-122.11 260,-140.99 260,-140.99"/>
<polygon fill="black" stroke="black" points="256.5,-140.99 260,-150.99 263.5,-140.99 256.5,-140.99"/>
</g>
<!-- RabbitMQWrapperModule -->
<g id="node2" class="node">
<title>RabbitMQWrapperModule</title>
<polygon fill="#8dd3c7" stroke="black" points="192.4,-122 189.4,-126 168.4,-126 165.4,-122 23.6,-122 23.6,-86 192.4,-86 192.4,-122"/>
<text text-anchor="middle" x="108" y="-99.8" font-family="Times,serif" font-size="14.00">RabbitMQWrapperModule</text>
</g>
<!-- RabbitMQWrapperModule&#45;&gt;PreviewGeneratorProducerModule -->
<g id="edge2" class="edge">
<title>RabbitMQWrapperModule&#45;&gt;PreviewGeneratorProducerModule</title>
<path fill="none" stroke="black" d="M173.12,-122.11C173.12,-122.11 173.12,-140.99 173.12,-140.99"/>
<polygon fill="black" stroke="black" points="169.62,-140.99 173.12,-150.99 176.62,-140.99 169.62,-140.99"/>
</g>
<!-- PreviewProducer  -->
<g id="node4" class="node">
<title>PreviewProducer </title>
<polygon fill="#fb8072" stroke="black" points="317.9,-252 202.1,-252 202.1,-216 317.9,-216 317.9,-252"/>
<text text-anchor="middle" x="260" y="-229.8" font-family="Times,serif" font-size="14.00">PreviewProducer </text>
</g>
<!-- PreviewGeneratorProducerModule&#45;&gt;PreviewProducer  -->
<g id="edge3" class="edge">
<title>PreviewGeneratorProducerModule&#45;&gt;PreviewProducer </title>
<path fill="none" stroke="black" stroke-dasharray="5,2" d="M260,-187.11C260,-187.11 260,-205.99 260,-205.99"/>
<polygon fill="black" stroke="black" points="256.5,-205.99 260,-215.99 263.5,-205.99 256.5,-205.99"/>
</g>
<!-- PreviewProducer -->
<g id="node5" class="node">
<title>PreviewProducer</title>
<ellipse fill="#fdb462" stroke="black" cx="412" cy="-104" rx="77.57" ry="18"/>
<text text-anchor="middle" x="412" y="-99.8" font-family="Times,serif" font-size="14.00">PreviewProducer</text>
</g>
<!-- PreviewProducer&#45;&gt;PreviewGeneratorProducerModule -->
<g id="edge4" class="edge">
<title>PreviewProducer&#45;&gt;PreviewGeneratorProducerModule</title>
<path fill="none" stroke="black" d="M350.21,-115.03C350.21,-115.03 350.21,-140.78 350.21,-140.78"/>
<polygon fill="black" stroke="black" points="346.71,-140.78 350.21,-150.78 353.71,-140.78 346.71,-140.78"/>
</g>
</g>
</svg>
