<?xml version="1.0" encoding="UTF-8" standalone="no"?>
<!DOCTYPE svg PUBLIC "-//W3C//DTD SVG 1.1//EN"
 "http://www.w3.org/Graphics/SVG/1.1/DTD/svg11.dtd">
<!-- Generated by graphviz version 2.47.0 (20210316.0004)
 -->
<!-- Title: dependencies Pages: 1 -->
<svg width="549pt" height="284pt"
 viewBox="0.00 0.00 549.00 284.00" xmlns="http://www.w3.org/2000/svg" xmlns:xlink="http://www.w3.org/1999/xlink">
<g id="graph0" class="graph" transform="scale(1 1) rotate(0) translate(4 280)">
<title>dependencies</title>
<polygon fill="white" stroke="transparent" points="-4,4 -4,-280 545,-280 545,4 -4,4"/>
<text text-anchor="start" x="249.51" y="-42.4" font-family="Times-12" font-weight="bold" font-size="14.00">Legend</text>
<polygon fill="#ffffb3" stroke="transparent" points="36.5,-10 36.5,-30 56.5,-30 56.5,-10 36.5,-10"/>
<text text-anchor="start" x="60.13" y="-15.4" font-family="Times-12" font-size="14.00"> &#160;Declarations</text>
<polygon fill="#8dd3c7" stroke="transparent" points="149.5,-10 149.5,-30 169.5,-30 169.5,-10 149.5,-10"/>
<text text-anchor="start" x="173.23" y="-15.4" font-family="Times-12" font-size="14.00"> &#160;Module</text>
<polygon fill="#80b1d3" stroke="transparent" points="235.5,-10 235.5,-30 255.5,-30 255.5,-10 235.5,-10"/>
<text text-anchor="start" x="259.28" y="-15.4" font-family="Times-12" font-size="14.00"> &#160;Bootstrap</text>
<polygon fill="#fdb462" stroke="transparent" points="332.5,-10 332.5,-30 352.5,-30 352.5,-10 332.5,-10"/>
<text text-anchor="start" x="356.17" y="-15.4" font-family="Times-12" font-size="14.00"> &#160;Providers</text>
<polygon fill="#fb8072" stroke="transparent" points="428.5,-10 428.5,-30 448.5,-30 448.5,-10 428.5,-10"/>
<text text-anchor="start" x="452.23" y="-15.4" font-family="Times-12" font-size="14.00"> &#160;Exports</text>
<g id="clust1" class="cluster">
<title>cluster_NewsModule</title>
<polygon fill="none" stroke="black" stroke-dasharray="1,5" points="8,-70 8,-268 533,-268 533,-70 8,-70"/>
</g>
<g id="clust3" class="cluster">
<title>cluster_NewsModule_imports</title>
<polygon fill="none" stroke="black" points="253,-78 253,-130 525,-130 525,-78 253,-78"/>
</g>
<g id="clust4" class="cluster">
<title>cluster_NewsModule_exports</title>
<polygon fill="none" stroke="black" points="205,-208 205,-260 289,-260 289,-208 205,-208"/>
</g>
<g id="clust6" class="cluster">
<title>cluster_NewsModule_providers</title>
<polygon fill="none" stroke="black" points="16,-78 16,-130 245,-130 245,-78 16,-78"/>
</g>
<!-- AuthorizationModule -->
<g id="node1" class="node">
<title>AuthorizationModule</title>
<polygon fill="#8dd3c7" stroke="black" points="516.81,-122 513.81,-126 492.81,-126 489.81,-122 379.19,-122 379.19,-86 516.81,-86 516.81,-122"/>
<text text-anchor="middle" x="448" y="-99.8" font-family="Times,serif" font-size="14.00">AuthorizationModule</text>
</g>
<!-- NewsModule -->
<g id="node3" class="node">
<title>NewsModule</title>
<polygon fill="#8dd3c7" stroke="black" points="292.92,-187 289.92,-191 268.92,-191 265.92,-187 201.08,-187 201.08,-151 292.92,-151 292.92,-187"/>
<text text-anchor="middle" x="247" y="-164.8" font-family="Times,serif" font-size="14.00">NewsModule</text>
</g>
<!-- AuthorizationModule&#45;&gt;NewsModule -->
<g id="edge1" class="edge">
<title>AuthorizationModule&#45;&gt;NewsModule</title>
<path fill="none" stroke="black" d="M448,-122.11C448,-141.34 448,-169 448,-169 448,-169 302.86,-169 302.86,-169"/>
<polygon fill="black" stroke="black" points="302.86,-165.5 292.86,-169 302.86,-172.5 302.86,-165.5"/>
</g>
<!-- LoggerModule -->
<g id="node2" class="node">
<title>LoggerModule</title>
<polygon fill="#8dd3c7" stroke="black" points="360.98,-122 357.98,-126 336.98,-126 333.98,-122 261.02,-122 261.02,-86 360.98,-86 360.98,-122"/>
<text text-anchor="middle" x="311" y="-99.8" font-family="Times,serif" font-size="14.00">LoggerModule</text>
</g>
<!-- LoggerModule&#45;&gt;NewsModule -->
<g id="edge2" class="edge">
<title>LoggerModule&#45;&gt;NewsModule</title>
<path fill="none" stroke="black" d="M276.86,-122.11C276.86,-122.11 276.86,-140.99 276.86,-140.99"/>
<polygon fill="black" stroke="black" points="273.36,-140.99 276.86,-150.99 280.36,-140.99 273.36,-140.99"/>
</g>
<!-- NewsUc  -->
<g id="node4" class="node">
<title>NewsUc </title>
<polygon fill="#fb8072" stroke="black" points="280.69,-252 213.31,-252 213.31,-216 280.69,-216 280.69,-252"/>
<text text-anchor="middle" x="247" y="-229.8" font-family="Times,serif" font-size="14.00">NewsUc </text>
</g>
<!-- NewsModule&#45;&gt;NewsUc  -->
<g id="edge3" class="edge">
<title>NewsModule&#45;&gt;NewsUc </title>
<path fill="none" stroke="black" stroke-dasharray="5,2" d="M247,-187.11C247,-187.11 247,-205.99 247,-205.99"/>
<polygon fill="black" stroke="black" points="243.5,-205.99 247,-215.99 250.5,-205.99 243.5,-205.99"/>
</g>
<!-- NewsRepo -->
<g id="node5" class="node">
<title>NewsRepo</title>
<ellipse fill="#fdb462" stroke="black" cx="184" cy="-104" rx="53.31" ry="18"/>
<text text-anchor="middle" x="184" y="-99.8" font-family="Times,serif" font-size="14.00">NewsRepo</text>
</g>
<!-- NewsRepo&#45;&gt;NewsModule -->
<g id="edge4" class="edge">
<title>NewsRepo&#45;&gt;NewsModule</title>
<path fill="none" stroke="black" d="M219.35,-117.78C219.35,-117.78 219.35,-140.55 219.35,-140.55"/>
<polygon fill="black" stroke="black" points="215.85,-140.55 219.35,-150.55 222.85,-140.55 215.85,-140.55"/>
</g>
<!-- NewsUc -->
<g id="node6" class="node">
<title>NewsUc</title>
<ellipse fill="#fdb462" stroke="black" cx="68" cy="-104" rx="44.06" ry="18"/>
<text text-anchor="middle" x="68" y="-99.8" font-family="Times,serif" font-size="14.00">NewsUc</text>
</g>
<!-- NewsUc&#45;&gt;NewsModule -->
<g id="edge5" class="edge">
<title>NewsUc&#45;&gt;NewsModule</title>
<path fill="none" stroke="black" d="M68,-122.11C68,-141.34 68,-169 68,-169 68,-169 190.9,-169 190.9,-169"/>
<polygon fill="black" stroke="black" points="190.9,-172.5 200.9,-169 190.9,-165.5 190.9,-172.5"/>
</g>
</g>
</svg>
