<?xml version="1.0" encoding="UTF-8" standalone="no"?>
<!DOCTYPE svg PUBLIC "-//W3C//DTD SVG 1.1//EN"
 "http://www.w3.org/Graphics/SVG/1.1/DTD/svg11.dtd">
<!-- Generated by graphviz version 5.0.0 (20220707.1540)
 -->
<!-- Title: dependencies Pages: 1 -->
<svg width="549pt" height="247pt"
 viewBox="0.00 0.00 549.00 246.80" xmlns="http://www.w3.org/2000/svg" xmlns:xlink="http://www.w3.org/1999/xlink">
<g id="graph0" class="graph" transform="scale(1 1) rotate(0) translate(4 242.8)">
<title>dependencies</title>
<polygon fill="white" stroke="transparent" points="-4,4 -4,-242.8 545,-242.8 545,4 -4,4"/>
<text text-anchor="middle" x="270.5" y="-8.2" font-family="sans-serif" font-size="14.00">dependencies</text>
<g id="clust1" class="cluster">
<title>cluster_NewsModule</title>
<polygon fill="none" stroke="black" stroke-dasharray="1,5" points="8,-32.8 8,-230.8 533,-230.8 533,-32.8 8,-32.8"/>
</g>
<g id="clust6" class="cluster">
<title>cluster_NewsModule_providers</title>
<polygon fill="none" stroke="black" points="296,-40.8 296,-92.8 525,-92.8 525,-40.8 296,-40.8"/>
</g>
<g id="clust4" class="cluster">
<title>cluster_NewsModule_exports</title>
<polygon fill="none" stroke="black" points="237,-170.8 237,-222.8 321,-222.8 321,-170.8 237,-170.8"/>
</g>
<g id="clust3" class="cluster">
<title>cluster_NewsModule_imports</title>
<polygon fill="none" stroke="black" points="16,-40.8 16,-92.8 288,-92.8 288,-40.8 16,-40.8"/>
</g>
<!-- AuthorizationModule -->
<g id="node1" class="node">
<title>AuthorizationModule</title>
<polygon fill="#8dd3c7" stroke="black" points="279.81,-84.8 276.81,-88.8 255.81,-88.8 252.81,-84.8 142.19,-84.8 142.19,-48.8 279.81,-48.8 279.81,-84.8"/>
<text text-anchor="middle" x="211" y="-62.6" font-family="Times,serif" font-size="14.00">AuthorizationModule</text>
</g>
<!-- NewsModule -->
<g id="node3" class="node">
<title>NewsModule</title>
<polygon fill="#8dd3c7" stroke="black" points="324.94,-149.8 321.94,-153.8 300.94,-153.8 297.94,-149.8 233.06,-149.8 233.06,-113.8 324.94,-113.8 324.94,-149.8"/>
<text text-anchor="middle" x="279" y="-127.6" font-family="Times,serif" font-size="14.00">NewsModule</text>
</g>
<!-- AuthorizationModule&#45;&gt;NewsModule -->
<g id="edge1" class="edge">
<title>AuthorizationModule&#45;&gt;NewsModule</title>
<path fill="none" stroke="black" d="M256.47,-84.91C256.47,-84.91 256.47,-103.79 256.47,-103.79"/>
<polygon fill="black" stroke="black" points="252.97,-103.79 256.47,-113.79 259.97,-103.79 252.97,-103.79"/>
</g>
<!-- LoggerModule -->
<g id="node2" class="node">
<title>LoggerModule</title>
<polygon fill="#8dd3c7" stroke="black" points="123.98,-84.8 120.98,-88.8 99.98,-88.8 96.98,-84.8 24.02,-84.8 24.02,-48.8 123.98,-48.8 123.98,-84.8"/>
<text text-anchor="middle" x="74" y="-62.6" font-family="Times,serif" font-size="14.00">LoggerModule</text>
</g>
<!-- LoggerModule&#45;&gt;NewsModule -->
<g id="edge2" class="edge">
<title>LoggerModule&#45;&gt;NewsModule</title>
<path fill="none" stroke="black" d="M74,-84.91C74,-104.14 74,-131.8 74,-131.8 74,-131.8 223.25,-131.8 223.25,-131.8"/>
<polygon fill="black" stroke="black" points="223.25,-135.3 233.25,-131.8 223.25,-128.3 223.25,-135.3"/>
</g>
<!-- NewsUc  -->
<g id="node4" class="node">
<title>NewsUc </title>
<polygon fill="#fb8072" stroke="black" points="312.71,-214.8 245.29,-214.8 245.29,-178.8 312.71,-178.8 312.71,-214.8"/>
<text text-anchor="middle" x="279" y="-192.6" font-family="Times,serif" font-size="14.00">NewsUc </text>
</g>
<!-- NewsModule&#45;&gt;NewsUc  -->
<g id="edge3" class="edge">
<title>NewsModule&#45;&gt;NewsUc </title>
<path fill="none" stroke="black" stroke-dasharray="5,2" d="M279,-149.91C279,-149.91 279,-168.79 279,-168.79"/>
<polygon fill="black" stroke="black" points="275.5,-168.79 279,-178.79 282.5,-168.79 275.5,-168.79"/>
</g>
<!-- NewsRepo -->
<g id="node5" class="node">
<title>NewsRepo</title>
<ellipse fill="#fdb462" stroke="black" cx="464" cy="-66.8" rx="53.33" ry="18"/>
<text text-anchor="middle" x="464" y="-62.6" font-family="Times,serif" font-size="14.00">NewsRepo</text>
</g>
<!-- NewsRepo&#45;&gt;NewsModule -->
<g id="edge4" class="edge">
<title>NewsRepo&#45;&gt;NewsModule</title>
<path fill="none" stroke="black" d="M464,-84.91C464,-104.14 464,-131.8 464,-131.8 464,-131.8 334.73,-131.8 334.73,-131.8"/>
<polygon fill="black" stroke="black" points="334.73,-128.3 324.73,-131.8 334.73,-135.3 334.73,-128.3"/>
</g>
<!-- NewsUc -->
<g id="node6" class="node">
<title>NewsUc</title>
<ellipse fill="#fdb462" stroke="black" cx="348" cy="-66.8" rx="44.08" ry="18"/>
<text text-anchor="middle" x="348" y="-62.6" font-family="Times,serif" font-size="14.00">NewsUc</text>
</g>
<!-- NewsUc&#45;&gt;NewsModule -->
<g id="edge5" class="edge">
<title>NewsUc&#45;&gt;NewsModule</title>
<path fill="none" stroke="black" d="M314.21,-78.72C314.21,-78.72 314.21,-103.57 314.21,-103.57"/>
<polygon fill="black" stroke="black" points="310.71,-103.57 314.21,-113.57 317.71,-103.57 310.71,-103.57"/>
</g>
</g>
</svg>
