<?xml version="1.0" encoding="UTF-8" standalone="no"?>
<!DOCTYPE svg PUBLIC "-//W3C//DTD SVG 1.1//EN"
 "http://www.w3.org/Graphics/SVG/1.1/DTD/svg11.dtd">
<!-- Generated by graphviz version 5.0.0 (20220707.1540)
 -->
<!-- Title: dependencies Pages: 1 -->
<svg width="549pt" height="247pt"
 viewBox="0.00 0.00 549.00 246.80" xmlns="http://www.w3.org/2000/svg" xmlns:xlink="http://www.w3.org/1999/xlink">
<g id="graph0" class="graph" transform="scale(1 1) rotate(0) translate(4 242.8)">
<title>dependencies</title>
<polygon fill="white" stroke="transparent" points="-4,4 -4,-242.8 545,-242.8 545,4 -4,4"/>
<text text-anchor="middle" x="270.5" y="-8.2" font-family="sans-serif" font-size="14.00">dependencies</text>
<g id="clust1" class="cluster">
<title>cluster_NewsModule</title>
<polygon fill="none" stroke="black" stroke-dasharray="1,5" points="8,-32.8 8,-230.8 533,-230.8 533,-32.8 8,-32.8"/>
</g>
<g id="clust4" class="cluster">
<title>cluster_NewsModule_exports</title>
<polygon fill="none" stroke="black" points="205,-170.8 205,-222.8 289,-222.8 289,-170.8 205,-170.8"/>
</g>
<g id="clust3" class="cluster">
<title>cluster_NewsModule_imports</title>
<polygon fill="none" stroke="black" points="253,-40.8 253,-92.8 525,-92.8 525,-40.8 253,-40.8"/>
</g>
<g id="clust6" class="cluster">
<title>cluster_NewsModule_providers</title>
<polygon fill="none" stroke="black" points="16,-40.8 16,-92.8 245,-92.8 245,-40.8 16,-40.8"/>
</g>
<!-- AuthorizationModule -->
<g id="node1" class="node">
<title>AuthorizationModule</title>
<polygon fill="#8dd3c7" stroke="black" points="516.81,-84.8 513.81,-88.8 492.81,-88.8 489.81,-84.8 379.19,-84.8 379.19,-48.8 516.81,-48.8 516.81,-84.8"/>
<text text-anchor="middle" x="448" y="-62.6" font-family="Times,serif" font-size="14.00">AuthorizationModule</text>
</g>
<!-- NewsModule -->
<g id="node3" class="node">
<title>NewsModule</title>
<polygon fill="#8dd3c7" stroke="black" points="292.94,-149.8 289.94,-153.8 268.94,-153.8 265.94,-149.8 201.06,-149.8 201.06,-113.8 292.94,-113.8 292.94,-149.8"/>
<text text-anchor="middle" x="247" y="-127.6" font-family="Times,serif" font-size="14.00">NewsModule</text>
</g>
<!-- AuthorizationModule&#45;&gt;NewsModule -->
<g id="edge1" class="edge">
<title>AuthorizationModule&#45;&gt;NewsModule</title>
<path fill="none" stroke="black" d="M448,-84.91C448,-104.14 448,-131.8 448,-131.8 448,-131.8 302.86,-131.8 302.86,-131.8"/>
<polygon fill="black" stroke="black" points="302.86,-128.3 292.86,-131.8 302.86,-135.3 302.86,-128.3"/>
</g>
<!-- LoggerModule -->
<g id="node2" class="node">
<title>LoggerModule</title>
<polygon fill="#8dd3c7" stroke="black" points="360.98,-84.8 357.98,-88.8 336.98,-88.8 333.98,-84.8 261.02,-84.8 261.02,-48.8 360.98,-48.8 360.98,-84.8"/>
<text text-anchor="middle" x="311" y="-62.6" font-family="Times,serif" font-size="14.00">LoggerModule</text>
</g>
<!-- LoggerModule&#45;&gt;NewsModule -->
<g id="edge2" class="edge">
<title>LoggerModule&#45;&gt;NewsModule</title>
<path fill="none" stroke="black" d="M276.86,-84.91C276.86,-84.91 276.86,-103.79 276.86,-103.79"/>
<polygon fill="black" stroke="black" points="273.36,-103.79 276.86,-113.79 280.36,-103.79 273.36,-103.79"/>
</g>
<!-- NewsUc  -->
<g id="node4" class="node">
<title>NewsUc </title>
<polygon fill="#fb8072" stroke="black" points="280.71,-214.8 213.29,-214.8 213.29,-178.8 280.71,-178.8 280.71,-214.8"/>
<text text-anchor="middle" x="247" y="-192.6" font-family="Times,serif" font-size="14.00">NewsUc </text>
</g>
<!-- NewsModule&#45;&gt;NewsUc  -->
<g id="edge3" class="edge">
<title>NewsModule&#45;&gt;NewsUc </title>
<path fill="none" stroke="black" stroke-dasharray="5,2" d="M247,-149.91C247,-149.91 247,-168.79 247,-168.79"/>
<polygon fill="black" stroke="black" points="243.5,-168.79 247,-178.79 250.5,-168.79 243.5,-168.79"/>
</g>
<!-- NewsRepo -->
<g id="node5" class="node">
<title>NewsRepo</title>
<ellipse fill="#fdb462" stroke="black" cx="184" cy="-66.8" rx="53.33" ry="18"/>
<text text-anchor="middle" x="184" y="-62.6" font-family="Times,serif" font-size="14.00">NewsRepo</text>
</g>
<!-- NewsRepo&#45;&gt;NewsModule -->
<g id="edge4" class="edge">
<title>NewsRepo&#45;&gt;NewsModule</title>
<path fill="none" stroke="black" d="M219.35,-80.58C219.35,-80.58 219.35,-103.35 219.35,-103.35"/>
<polygon fill="black" stroke="black" points="215.85,-103.35 219.35,-113.35 222.85,-103.35 215.85,-103.35"/>
</g>
<!-- NewsUc -->
<g id="node6" class="node">
<title>NewsUc</title>
<ellipse fill="#fdb462" stroke="black" cx="68" cy="-66.8" rx="44.08" ry="18"/>
<text text-anchor="middle" x="68" y="-62.6" font-family="Times,serif" font-size="14.00">NewsUc</text>
</g>
<!-- NewsUc&#45;&gt;NewsModule -->
<g id="edge5" class="edge">
<title>NewsUc&#45;&gt;NewsModule</title>
<path fill="none" stroke="black" d="M68,-84.91C68,-104.14 68,-131.8 68,-131.8 68,-131.8 190.9,-131.8 190.9,-131.8"/>
<polygon fill="black" stroke="black" points="190.9,-135.3 200.9,-131.8 190.9,-128.3 190.9,-135.3"/>
</g>
</g>
</svg>
