<?xml version="1.0" encoding="UTF-8" standalone="no"?>
<!DOCTYPE svg PUBLIC "-//W3C//DTD SVG 1.1//EN"
 "http://www.w3.org/Graphics/SVG/1.1/DTD/svg11.dtd">
<!-- Generated by graphviz version 2.47.0 (20210316.0004)
 -->
<!-- Title: dependencies Pages: 1 -->
<svg width="690pt" height="284pt"
 viewBox="0.00 0.00 690.00 284.00" xmlns="http://www.w3.org/2000/svg" xmlns:xlink="http://www.w3.org/1999/xlink">
<g id="graph0" class="graph" transform="scale(1 1) rotate(0) translate(4 280)">
<title>dependencies</title>
<polygon fill="white" stroke="transparent" points="-4,4 -4,-280 686,-280 686,4 -4,4"/>
<text text-anchor="start" x="320.01" y="-42.4" font-family="Times-12" font-weight="bold" font-size="14.00">Legend</text>
<polygon fill="#ffffb3" stroke="transparent" points="107,-10 107,-30 127,-30 127,-10 107,-10"/>
<text text-anchor="start" x="130.63" y="-15.4" font-family="Times-12" font-size="14.00"> &#160;Declarations</text>
<polygon fill="#8dd3c7" stroke="transparent" points="220,-10 220,-30 240,-30 240,-10 220,-10"/>
<text text-anchor="start" x="243.73" y="-15.4" font-family="Times-12" font-size="14.00"> &#160;Module</text>
<polygon fill="#80b1d3" stroke="transparent" points="306,-10 306,-30 326,-30 326,-10 306,-10"/>
<text text-anchor="start" x="329.78" y="-15.4" font-family="Times-12" font-size="14.00"> &#160;Bootstrap</text>
<polygon fill="#fdb462" stroke="transparent" points="403,-10 403,-30 423,-30 423,-10 403,-10"/>
<text text-anchor="start" x="426.67" y="-15.4" font-family="Times-12" font-size="14.00"> &#160;Providers</text>
<polygon fill="#fb8072" stroke="transparent" points="499,-10 499,-30 519,-30 519,-10 499,-10"/>
<text text-anchor="start" x="522.73" y="-15.4" font-family="Times-12" font-size="14.00"> &#160;Exports</text>
<g id="clust1" class="cluster">
<title>cluster_NewsModule</title>
<polygon fill="none" stroke="black" stroke-dasharray="1,5" points="8,-70 8,-268 674,-268 674,-70 8,-70"/>
</g>
<g id="clust4" class="cluster">
<title>cluster_NewsModule_exports</title>
<polygon fill="none" stroke="black" points="256,-208 256,-260 452,-260 452,-208 256,-208"/>
</g>
<g id="clust6" class="cluster">
<title>cluster_NewsModule_providers</title>
<polygon fill="none" stroke="black" points="296,-78 296,-130 666,-130 666,-78 296,-78"/>
</g>
<g id="clust3" class="cluster">
<title>cluster_NewsModule_imports</title>
<polygon fill="none" stroke="black" points="16,-78 16,-130 288,-130 288,-78 16,-78"/>
</g>
<!-- AuthorizationModule -->
<g id="node1" class="node">
<title>AuthorizationModule</title>
<polygon fill="#8dd3c7" stroke="black" points="279.81,-122 276.81,-126 255.81,-126 252.81,-122 142.19,-122 142.19,-86 279.81,-86 279.81,-122"/>
<text text-anchor="middle" x="211" y="-99.8" font-family="Times,serif" font-size="14.00">AuthorizationModule</text>
</g>
<!-- NewsModule -->
<g id="node3" class="node">
<title>NewsModule</title>
<polygon fill="#8dd3c7" stroke="black" points="393.92,-187 390.92,-191 369.92,-191 366.92,-187 302.08,-187 302.08,-151 393.92,-151 393.92,-187"/>
<text text-anchor="middle" x="348" y="-164.8" font-family="Times,serif" font-size="14.00">NewsModule</text>
</g>
<!-- AuthorizationModule&#45;&gt;NewsModule -->
<g id="edge1" class="edge">
<title>AuthorizationModule&#45;&gt;NewsModule</title>
<path fill="none" stroke="black" d="M271.9,-122.02C271.9,-139.37 271.9,-163 271.9,-163 271.9,-163 291.98,-163 291.98,-163"/>
<polygon fill="black" stroke="black" points="291.98,-166.5 301.98,-163 291.98,-159.5 291.98,-166.5"/>
</g>
<!-- LoggerModule -->
<g id="node2" class="node">
<title>LoggerModule</title>
<polygon fill="#8dd3c7" stroke="black" points="123.98,-122 120.98,-126 99.98,-126 96.98,-122 24.02,-122 24.02,-86 123.98,-86 123.98,-122"/>
<text text-anchor="middle" x="74" y="-99.8" font-family="Times,serif" font-size="14.00">LoggerModule</text>
</g>
<!-- LoggerModule&#45;&gt;NewsModule -->
<g id="edge2" class="edge">
<title>LoggerModule&#45;&gt;NewsModule</title>
<path fill="none" stroke="black" d="M74,-122.28C74,-143.32 74,-175 74,-175 74,-175 292.14,-175 292.14,-175"/>
<polygon fill="black" stroke="black" points="292.14,-178.5 302.14,-175 292.14,-171.5 292.14,-178.5"/>
</g>
<!-- NewsService  -->
<g id="node4" class="node">
<title>NewsService </title>
<polygon fill="#fb8072" stroke="black" points="443.85,-252 350.15,-252 350.15,-216 443.85,-216 443.85,-252"/>
<text text-anchor="middle" x="397" y="-229.8" font-family="Times,serif" font-size="14.00">NewsService </text>
</g>
<!-- NewsModule&#45;&gt;NewsService  -->
<g id="edge3" class="edge">
<title>NewsModule&#45;&gt;NewsService </title>
<path fill="none" stroke="black" stroke-dasharray="5,2" d="M372.02,-187.11C372.02,-187.11 372.02,-205.99 372.02,-205.99"/>
<polygon fill="black" stroke="black" points="368.52,-205.99 372.02,-215.99 375.52,-205.99 368.52,-205.99"/>
</g>
<!-- NewsUc  -->
<g id="node5" class="node">
<title>NewsUc </title>
<polygon fill="#fb8072" stroke="black" points="331.69,-252 264.31,-252 264.31,-216 331.69,-216 331.69,-252"/>
<text text-anchor="middle" x="298" y="-229.8" font-family="Times,serif" font-size="14.00">NewsUc </text>
</g>
<!-- NewsModule&#45;&gt;NewsUc  -->
<g id="edge4" class="edge">
<title>NewsModule&#45;&gt;NewsUc </title>
<path fill="none" stroke="black" stroke-dasharray="5,2" d="M317.07,-187.11C317.07,-187.11 317.07,-205.99 317.07,-205.99"/>
<polygon fill="black" stroke="black" points="313.57,-205.99 317.07,-215.99 320.57,-205.99 313.57,-205.99"/>
</g>
<!-- NewsRepo -->
<g id="node6" class="node">
<title>NewsRepo</title>
<ellipse fill="#fdb462" stroke="black" cx="605" cy="-104" rx="53.31" ry="18"/>
<text text-anchor="middle" x="605" y="-99.8" font-family="Times,serif" font-size="14.00">NewsRepo</text>
</g>
<!-- NewsRepo&#45;&gt;NewsModule -->
<g id="edge5" class="edge">
<title>NewsRepo&#45;&gt;NewsModule</title>
<path fill="none" stroke="black" d="M605,-122.28C605,-143.32 605,-175 605,-175 605,-175 403.95,-175 403.95,-175"/>
<polygon fill="black" stroke="black" points="403.95,-171.5 393.95,-175 403.95,-178.5 403.95,-171.5"/>
</g>
<!-- NewsService -->
<g id="node7" class="node">
<title>NewsService</title>
<ellipse fill="#fdb462" stroke="black" cx="472" cy="-104" rx="61.95" ry="18"/>
<text text-anchor="middle" x="472" y="-99.8" font-family="Times,serif" font-size="14.00">NewsService</text>
</g>
<!-- NewsService&#45;&gt;NewsModule -->
<g id="edge6" class="edge">
<title>NewsService&#45;&gt;NewsModule</title>
<path fill="none" stroke="black" d="M426.85,-116.51C426.85,-133.83 426.85,-163 426.85,-163 426.85,-163 403.87,-163 403.87,-163"/>
<polygon fill="black" stroke="black" points="403.87,-159.5 393.87,-163 403.87,-166.5 403.87,-159.5"/>
</g>
<!-- NewsUc -->
<g id="node8" class="node">
<title>NewsUc</title>
<ellipse fill="#fdb462" stroke="black" cx="348" cy="-104" rx="44.06" ry="18"/>
<text text-anchor="middle" x="348" y="-99.8" font-family="Times,serif" font-size="14.00">NewsUc</text>
</g>
<!-- NewsUc&#45;&gt;NewsModule -->
<g id="edge7" class="edge">
<title>NewsUc&#45;&gt;NewsModule</title>
<path fill="none" stroke="black" d="M348,-122.11C348,-122.11 348,-140.99 348,-140.99"/>
<polygon fill="black" stroke="black" points="344.5,-140.99 348,-150.99 351.5,-140.99 344.5,-140.99"/>
</g>
</g>
</svg>
