<?xml version="1.0" encoding="UTF-8" standalone="no"?>
<!DOCTYPE svg PUBLIC "-//W3C//DTD SVG 1.1//EN"
 "http://www.w3.org/Graphics/SVG/1.1/DTD/svg11.dtd">
<!-- Generated by graphviz version 5.0.0 (20220707.1540)
 -->
<!-- Title: dependencies Pages: 1 -->
<svg width="527pt" height="247pt"
 viewBox="0.00 0.00 527.00 246.80" xmlns="http://www.w3.org/2000/svg" xmlns:xlink="http://www.w3.org/1999/xlink">
<g id="graph0" class="graph" transform="scale(1 1) rotate(0) translate(4 242.8)">
<title>dependencies</title>
<polygon fill="white" stroke="transparent" points="-4,4 -4,-242.8 523,-242.8 523,4 -4,4"/>
<text text-anchor="middle" x="259.5" y="-8.2" font-family="sans-serif" font-size="14.00">dependencies</text>
<g id="clust1" class="cluster">
<title>cluster_NewsModule</title>
<polygon fill="none" stroke="black" stroke-dasharray="1,5" points="8,-32.8 8,-230.8 511,-230.8 511,-32.8 8,-32.8"/>
</g>
<g id="clust6" class="cluster">
<title>cluster_NewsModule_providers</title>
<polygon fill="none" stroke="black" points="178,-40.8 178,-92.8 503,-92.8 503,-40.8 178,-40.8"/>
</g>
<g id="clust3" class="cluster">
<title>cluster_NewsModule_imports</title>
<polygon fill="none" stroke="black" points="16,-40.8 16,-92.8 170,-92.8 170,-40.8 16,-40.8"/>
</g>
<g id="clust4" class="cluster">
<title>cluster_NewsModule_exports</title>
<polygon fill="none" stroke="black" points="246,-170.8 246,-222.8 330,-222.8 330,-170.8 246,-170.8"/>
</g>
<!-- AuthorizationModule -->
<g id="node1" class="node">
<title>AuthorizationModule</title>
<polygon fill="#8dd3c7" stroke="black" points="161.81,-84.8 158.81,-88.8 137.81,-88.8 134.81,-84.8 24.19,-84.8 24.19,-48.8 161.81,-48.8 161.81,-84.8"/>
<text text-anchor="middle" x="93" y="-62.6" font-family="Times,serif" font-size="14.00">AuthorizationModule</text>
</g>
<!-- NewsModule -->
<g id="node2" class="node">
<title>NewsModule</title>
<polygon fill="#8dd3c7" stroke="black" points="333.94,-149.8 330.94,-153.8 309.94,-153.8 306.94,-149.8 242.06,-149.8 242.06,-113.8 333.94,-113.8 333.94,-149.8"/>
<text text-anchor="middle" x="288" y="-127.6" font-family="Times,serif" font-size="14.00">NewsModule</text>
</g>
<!-- AuthorizationModule&#45;&gt;NewsModule -->
<g id="edge1" class="edge">
<title>AuthorizationModule&#45;&gt;NewsModule</title>
<path fill="none" stroke="black" d="M93,-84.91C93,-104.14 93,-131.8 93,-131.8 93,-131.8 232.28,-131.8 232.28,-131.8"/>
<polygon fill="black" stroke="black" points="232.28,-135.3 242.28,-131.8 232.28,-128.3 232.28,-135.3"/>
</g>
<!-- NewsUc  -->
<g id="node3" class="node">
<title>NewsUc </title>
<polygon fill="#fb8072" stroke="black" points="321.71,-214.8 254.29,-214.8 254.29,-178.8 321.71,-178.8 321.71,-214.8"/>
<text text-anchor="middle" x="288" y="-192.6" font-family="Times,serif" font-size="14.00">NewsUc </text>
</g>
<!-- NewsModule&#45;&gt;NewsUc  -->
<g id="edge2" class="edge">
<title>NewsModule&#45;&gt;NewsUc </title>
<path fill="none" stroke="black" stroke-dasharray="5,2" d="M288,-149.91C288,-149.91 288,-168.79 288,-168.79"/>
<polygon fill="black" stroke="black" points="284.5,-168.79 288,-178.79 291.5,-168.79 284.5,-168.79"/>
</g>
<!-- Logger -->
<g id="node4" class="node">
<title>Logger</title>
<ellipse fill="#fdb462" stroke="black" cx="456" cy="-66.8" rx="38.85" ry="18"/>
<text text-anchor="middle" x="456" y="-62.6" font-family="Times,serif" font-size="14.00">Logger</text>
</g>
<!-- Logger&#45;&gt;NewsModule -->
<g id="edge3" class="edge">
<title>Logger&#45;&gt;NewsModule</title>
<path fill="none" stroke="black" d="M456,-84.91C456,-104.14 456,-131.8 456,-131.8 456,-131.8 343.91,-131.8 343.91,-131.8"/>
<polygon fill="black" stroke="black" points="343.91,-128.3 333.91,-131.8 343.91,-135.3 343.91,-128.3"/>
</g>
<!-- NewsRepo -->
<g id="node5" class="node">
<title>NewsRepo</title>
<ellipse fill="#fdb462" stroke="black" cx="346" cy="-66.8" rx="53.33" ry="18"/>
<text text-anchor="middle" x="346" y="-62.6" font-family="Times,serif" font-size="14.00">NewsRepo</text>
</g>
<!-- NewsRepo&#45;&gt;NewsModule -->
<g id="edge4" class="edge">
<title>NewsRepo&#45;&gt;NewsModule</title>
<path fill="none" stroke="black" d="M313.15,-81.23C313.15,-81.23 313.15,-103.69 313.15,-103.69"/>
<polygon fill="black" stroke="black" points="309.65,-103.69 313.15,-113.69 316.65,-103.69 309.65,-103.69"/>
</g>
<!-- NewsUc -->
<g id="node6" class="node">
<title>NewsUc</title>
<ellipse fill="#fdb462" stroke="black" cx="230" cy="-66.8" rx="44.08" ry="18"/>
<text text-anchor="middle" x="230" y="-62.6" font-family="Times,serif" font-size="14.00">NewsUc</text>
</g>
<!-- NewsUc&#45;&gt;NewsModule -->
<g id="edge5" class="edge">
<title>NewsUc&#45;&gt;NewsModule</title>
<path fill="none" stroke="black" d="M258.29,-80.9C258.29,-80.9 258.29,-103.52 258.29,-103.52"/>
<polygon fill="black" stroke="black" points="254.79,-103.52 258.29,-113.52 261.79,-103.52 254.79,-103.52"/>
</g>
</g>
</svg>
