<?xml version="1.0" encoding="UTF-8" standalone="no"?>
<!DOCTYPE svg PUBLIC "-//W3C//DTD SVG 1.1//EN"
 "http://www.w3.org/Graphics/SVG/1.1/DTD/svg11.dtd">
<!-- Generated by graphviz version 2.47.0 (20210316.0004)
 -->
<!-- Title: dependencies Pages: 1 -->
<svg width="690pt" height="284pt"
 viewBox="0.00 0.00 690.00 284.00" xmlns="http://www.w3.org/2000/svg" xmlns:xlink="http://www.w3.org/1999/xlink">
<g id="graph0" class="graph" transform="scale(1 1) rotate(0) translate(4 280)">
<title>dependencies</title>
<polygon fill="white" stroke="transparent" points="-4,4 -4,-280 686,-280 686,4 -4,4"/>
<text text-anchor="start" x="320.01" y="-42.4" font-family="Times-12" font-weight="bold" font-size="14.00">Legend</text>
<polygon fill="#ffffb3" stroke="transparent" points="107,-10 107,-30 127,-30 127,-10 107,-10"/>
<text text-anchor="start" x="130.63" y="-15.4" font-family="Times-12" font-size="14.00"> &#160;Declarations</text>
<polygon fill="#8dd3c7" stroke="transparent" points="220,-10 220,-30 240,-30 240,-10 220,-10"/>
<text text-anchor="start" x="243.73" y="-15.4" font-family="Times-12" font-size="14.00"> &#160;Module</text>
<polygon fill="#80b1d3" stroke="transparent" points="306,-10 306,-30 326,-30 326,-10 306,-10"/>
<text text-anchor="start" x="329.78" y="-15.4" font-family="Times-12" font-size="14.00"> &#160;Bootstrap</text>
<polygon fill="#fdb462" stroke="transparent" points="403,-10 403,-30 423,-30 423,-10 403,-10"/>
<text text-anchor="start" x="426.67" y="-15.4" font-family="Times-12" font-size="14.00"> &#160;Providers</text>
<polygon fill="#fb8072" stroke="transparent" points="499,-10 499,-30 519,-30 519,-10 499,-10"/>
<text text-anchor="start" x="522.73" y="-15.4" font-family="Times-12" font-size="14.00"> &#160;Exports</text>
<g id="clust1" class="cluster">
<title>cluster_NewsModule</title>
<polygon fill="none" stroke="black" stroke-dasharray="1,5" points="8,-70 8,-268 674,-268 674,-70 8,-70"/>
</g>
<g id="clust3" class="cluster">
<title>cluster_NewsModule_imports</title>
<polygon fill="none" stroke="black" points="394,-78 394,-130 666,-130 666,-78 394,-78"/>
</g>
<g id="clust4" class="cluster">
<title>cluster_NewsModule_exports</title>
<polygon fill="none" stroke="black" points="233,-208 233,-260 429,-260 429,-208 233,-208"/>
</g>
<g id="clust6" class="cluster">
<title>cluster_NewsModule_providers</title>
<polygon fill="none" stroke="black" points="16,-78 16,-130 386,-130 386,-78 16,-78"/>
</g>
<!-- AuthorizationModule -->
<g id="node1" class="node">
<title>AuthorizationModule</title>
<polygon fill="#8dd3c7" stroke="black" points="657.81,-122 654.81,-126 633.81,-126 630.81,-122 520.19,-122 520.19,-86 657.81,-86 657.81,-122"/>
<text text-anchor="middle" x="589" y="-99.8" font-family="Times,serif" font-size="14.00">AuthorizationModule</text>
</g>
<!-- NewsModule -->
<g id="node3" class="node">
<title>NewsModule</title>
<polygon fill="#8dd3c7" stroke="black" points="370.92,-187 367.92,-191 346.92,-191 343.92,-187 279.08,-187 279.08,-151 370.92,-151 370.92,-187"/>
<text text-anchor="middle" x="325" y="-164.8" font-family="Times,serif" font-size="14.00">NewsModule</text>
</g>
<!-- AuthorizationModule&#45;&gt;NewsModule -->
<g id="edge1" class="edge">
<title>AuthorizationModule&#45;&gt;NewsModule</title>
<path fill="none" stroke="black" d="M589,-122.28C589,-143.32 589,-175 589,-175 589,-175 380.99,-175 380.99,-175"/>
<polygon fill="black" stroke="black" points="380.99,-171.5 370.99,-175 380.99,-178.5 380.99,-171.5"/>
</g>
<!-- LoggerModule -->
<g id="node2" class="node">
<title>LoggerModule</title>
<polygon fill="#8dd3c7" stroke="black" points="501.98,-122 498.98,-126 477.98,-126 474.98,-122 402.02,-122 402.02,-86 501.98,-86 501.98,-122"/>
<text text-anchor="middle" x="452" y="-99.8" font-family="Times,serif" font-size="14.00">LoggerModule</text>
</g>
<!-- LoggerModule&#45;&gt;NewsModule -->
<g id="edge2" class="edge">
<title>LoggerModule&#45;&gt;NewsModule</title>
<path fill="none" stroke="black" d="M411.34,-122.02C411.34,-139.37 411.34,-163 411.34,-163 411.34,-163 380.95,-163 380.95,-163"/>
<polygon fill="black" stroke="black" points="380.95,-159.5 370.95,-163 380.95,-166.5 380.95,-159.5"/>
</g>
<!-- NewsService  -->
<g id="node4" class="node">
<title>NewsService </title>
<polygon fill="#fb8072" stroke="black" points="420.85,-252 327.15,-252 327.15,-216 420.85,-216 420.85,-252"/>
<text text-anchor="middle" x="374" y="-229.8" font-family="Times,serif" font-size="14.00">NewsService </text>
</g>
<!-- NewsModule&#45;&gt;NewsService  -->
<g id="edge3" class="edge">
<title>NewsModule&#45;&gt;NewsService </title>
<path fill="none" stroke="black" stroke-dasharray="5,2" d="M349.02,-187.11C349.02,-187.11 349.02,-205.99 349.02,-205.99"/>
<polygon fill="black" stroke="black" points="345.52,-205.99 349.02,-215.99 352.52,-205.99 345.52,-205.99"/>
</g>
<!-- NewsUc  -->
<g id="node5" class="node">
<title>NewsUc </title>
<polygon fill="#fb8072" stroke="black" points="308.69,-252 241.31,-252 241.31,-216 308.69,-216 308.69,-252"/>
<text text-anchor="middle" x="275" y="-229.8" font-family="Times,serif" font-size="14.00">NewsUc </text>
</g>
<!-- NewsModule&#45;&gt;NewsUc  -->
<g id="edge4" class="edge">
<title>NewsModule&#45;&gt;NewsUc </title>
<path fill="none" stroke="black" stroke-dasharray="5,2" d="M294.07,-187.11C294.07,-187.11 294.07,-205.99 294.07,-205.99"/>
<polygon fill="black" stroke="black" points="290.57,-205.99 294.07,-215.99 297.57,-205.99 290.57,-205.99"/>
</g>
<!-- NewsRepo -->
<g id="node6" class="node">
<title>NewsRepo</title>
<ellipse fill="#fdb462" stroke="black" cx="325" cy="-104" rx="53.31" ry="18"/>
<text text-anchor="middle" x="325" y="-99.8" font-family="Times,serif" font-size="14.00">NewsRepo</text>
</g>
<!-- NewsRepo&#45;&gt;NewsModule -->
<g id="edge5" class="edge">
<title>NewsRepo&#45;&gt;NewsModule</title>
<path fill="none" stroke="black" d="M325,-122.11C325,-122.11 325,-140.99 325,-140.99"/>
<polygon fill="black" stroke="black" points="321.5,-140.99 325,-150.99 328.5,-140.99 321.5,-140.99"/>
</g>
<!-- NewsService -->
<g id="node7" class="node">
<title>NewsService</title>
<ellipse fill="#fdb462" stroke="black" cx="192" cy="-104" rx="61.95" ry="18"/>
<text text-anchor="middle" x="192" y="-99.8" font-family="Times,serif" font-size="14.00">NewsService</text>
</g>
<!-- NewsService&#45;&gt;NewsModule -->
<g id="edge6" class="edge">
<title>NewsService&#45;&gt;NewsModule</title>
<path fill="none" stroke="black" d="M247.57,-112.2C247.57,-128.42 247.57,-163 247.57,-163 247.57,-163 269.06,-163 269.06,-163"/>
<polygon fill="black" stroke="black" points="269.06,-166.5 279.06,-163 269.06,-159.5 269.06,-166.5"/>
</g>
<!-- NewsUc -->
<g id="node8" class="node">
<title>NewsUc</title>
<ellipse fill="#fdb462" stroke="black" cx="68" cy="-104" rx="44.06" ry="18"/>
<text text-anchor="middle" x="68" y="-99.8" font-family="Times,serif" font-size="14.00">NewsUc</text>
</g>
<!-- NewsUc&#45;&gt;NewsModule -->
<g id="edge7" class="edge">
<title>NewsUc&#45;&gt;NewsModule</title>
<path fill="none" stroke="black" d="M68,-122.28C68,-143.32 68,-175 68,-175 68,-175 269.05,-175 269.05,-175"/>
<polygon fill="black" stroke="black" points="269.05,-178.5 279.05,-175 269.05,-171.5 269.05,-178.5"/>
</g>
</g>
</svg>
