<?xml version="1.0" encoding="UTF-8" standalone="no"?>
<!DOCTYPE svg PUBLIC "-//W3C//DTD SVG 1.1//EN"
 "http://www.w3.org/Graphics/SVG/1.1/DTD/svg11.dtd">
<!-- Generated by graphviz version 5.0.0 (20220707.1540)
 -->
<!-- Title: dependencies Pages: 1 -->
<svg width="527pt" height="247pt"
 viewBox="0.00 0.00 527.00 246.80" xmlns="http://www.w3.org/2000/svg" xmlns:xlink="http://www.w3.org/1999/xlink">
<g id="graph0" class="graph" transform="scale(1 1) rotate(0) translate(4 242.8)">
<title>dependencies</title>
<polygon fill="white" stroke="transparent" points="-4,4 -4,-242.8 523,-242.8 523,4 -4,4"/>
<text text-anchor="middle" x="259.5" y="-8.2" font-family="sans-serif" font-size="14.00">dependencies</text>
<g id="clust1" class="cluster">
<title>cluster_NewsModule</title>
<polygon fill="none" stroke="black" stroke-dasharray="1,5" points="8,-32.8 8,-230.8 511,-230.8 511,-32.8 8,-32.8"/>
</g>
<g id="clust4" class="cluster">
<title>cluster_NewsModule_exports</title>
<polygon fill="none" stroke="black" points="197,-170.8 197,-222.8 281,-222.8 281,-170.8 197,-170.8"/>
</g>
<g id="clust3" class="cluster">
<title>cluster_NewsModule_imports</title>
<polygon fill="none" stroke="black" points="349,-40.8 349,-92.8 503,-92.8 503,-40.8 349,-40.8"/>
</g>
<g id="clust6" class="cluster">
<title>cluster_NewsModule_providers</title>
<polygon fill="none" stroke="black" points="16,-40.8 16,-92.8 341,-92.8 341,-40.8 16,-40.8"/>
</g>
<!-- AuthorizationModule -->
<g id="node1" class="node">
<title>AuthorizationModule</title>
<polygon fill="#8dd3c7" stroke="black" points="494.81,-84.8 491.81,-88.8 470.81,-88.8 467.81,-84.8 357.19,-84.8 357.19,-48.8 494.81,-48.8 494.81,-84.8"/>
<text text-anchor="middle" x="426" y="-62.6" font-family="Times,serif" font-size="14.00">AuthorizationModule</text>
</g>
<!-- NewsModule -->
<g id="node2" class="node">
<title>NewsModule</title>
<polygon fill="#8dd3c7" stroke="black" points="284.94,-149.8 281.94,-153.8 260.94,-153.8 257.94,-149.8 193.06,-149.8 193.06,-113.8 284.94,-113.8 284.94,-149.8"/>
<text text-anchor="middle" x="239" y="-127.6" font-family="Times,serif" font-size="14.00">NewsModule</text>
</g>
<!-- AuthorizationModule&#45;&gt;NewsModule -->
<g id="edge1" class="edge">
<title>AuthorizationModule&#45;&gt;NewsModule</title>
<path fill="none" stroke="black" d="M426,-84.91C426,-104.14 426,-131.8 426,-131.8 426,-131.8 294.75,-131.8 294.75,-131.8"/>
<polygon fill="black" stroke="black" points="294.75,-128.3 284.75,-131.8 294.75,-135.3 294.75,-128.3"/>
</g>
<!-- NewsUc  -->
<g id="node3" class="node">
<title>NewsUc </title>
<polygon fill="#fb8072" stroke="black" points="272.71,-214.8 205.29,-214.8 205.29,-178.8 272.71,-178.8 272.71,-214.8"/>
<text text-anchor="middle" x="239" y="-192.6" font-family="Times,serif" font-size="14.00">NewsUc </text>
</g>
<!-- NewsModule&#45;&gt;NewsUc  -->
<g id="edge2" class="edge">
<title>NewsModule&#45;&gt;NewsUc </title>
<path fill="none" stroke="black" stroke-dasharray="5,2" d="M239,-149.91C239,-149.91 239,-168.79 239,-168.79"/>
<polygon fill="black" stroke="black" points="235.5,-168.79 239,-178.79 242.5,-168.79 235.5,-168.79"/>
</g>
<!-- Logger -->
<g id="node4" class="node">
<title>Logger</title>
<ellipse fill="#fdb462" stroke="black" cx="294" cy="-66.8" rx="38.85" ry="18"/>
<text text-anchor="middle" x="294" y="-62.6" font-family="Times,serif" font-size="14.00">Logger</text>
</g>
<!-- Logger&#45;&gt;NewsModule -->
<g id="edge3" class="edge">
<title>Logger&#45;&gt;NewsModule</title>
<path fill="none" stroke="black" d="M269.9,-81.23C269.9,-81.23 269.9,-103.69 269.9,-103.69"/>
<polygon fill="black" stroke="black" points="266.4,-103.69 269.9,-113.69 273.4,-103.69 266.4,-103.69"/>
</g>
<!-- NewsRepo -->
<g id="node5" class="node">
<title>NewsRepo</title>
<ellipse fill="#fdb462" stroke="black" cx="184" cy="-66.8" rx="53.33" ry="18"/>
<text text-anchor="middle" x="184" y="-62.6" font-family="Times,serif" font-size="14.00">NewsRepo</text>
</g>
<!-- NewsRepo&#45;&gt;NewsModule -->
<g id="edge4" class="edge">
<title>NewsRepo&#45;&gt;NewsModule</title>
<path fill="none" stroke="black" d="M215.35,-81.55C215.35,-81.55 215.35,-103.39 215.35,-103.39"/>
<polygon fill="black" stroke="black" points="211.85,-103.39 215.35,-113.39 218.85,-103.39 211.85,-103.39"/>
</g>
<!-- NewsUc -->
<g id="node6" class="node">
<title>NewsUc</title>
<ellipse fill="#fdb462" stroke="black" cx="68" cy="-66.8" rx="44.08" ry="18"/>
<text text-anchor="middle" x="68" y="-62.6" font-family="Times,serif" font-size="14.00">NewsUc</text>
</g>
<!-- NewsUc&#45;&gt;NewsModule -->
<g id="edge5" class="edge">
<title>NewsUc&#45;&gt;NewsModule</title>
<path fill="none" stroke="black" d="M68,-84.91C68,-104.14 68,-131.8 68,-131.8 68,-131.8 183.18,-131.8 183.18,-131.8"/>
<polygon fill="black" stroke="black" points="183.18,-135.3 193.18,-131.8 183.18,-128.3 183.18,-135.3"/>
</g>
</g>
</svg>
