<?xml version="1.0" encoding="UTF-8" standalone="no"?>
<!DOCTYPE svg PUBLIC "-//W3C//DTD SVG 1.1//EN"
 "http://www.w3.org/Graphics/SVG/1.1/DTD/svg11.dtd">
<!-- Generated by graphviz version 2.47.0 (20210316.0004)
 -->
<!-- Title: dependencies Pages: 1 -->
<svg width="651pt" height="211pt"
 viewBox="0.00 0.00 651.00 211.00" xmlns="http://www.w3.org/2000/svg" xmlns:xlink="http://www.w3.org/1999/xlink">
<g id="graph0" class="graph" transform="scale(1 1) rotate(0) translate(4 207)">
<title>dependencies</title>
<polygon fill="white" stroke="transparent" points="-4,4 -4,-207 647,-207 647,4 -4,4"/>
<text text-anchor="start" x="300.51" y="-42.4" font-family="Times-12" font-weight="bold" font-size="14.00">Legend</text>
<polygon fill="#ffffb3" stroke="transparent" points="87.5,-10 87.5,-30 107.5,-30 107.5,-10 87.5,-10"/>
<text text-anchor="start" x="111.13" y="-15.4" font-family="Times-12" font-size="14.00"> &#160;Declarations</text>
<polygon fill="#8dd3c7" stroke="transparent" points="200.5,-10 200.5,-30 220.5,-30 220.5,-10 200.5,-10"/>
<text text-anchor="start" x="224.23" y="-15.4" font-family="Times-12" font-size="14.00"> &#160;Module</text>
<polygon fill="#80b1d3" stroke="transparent" points="286.5,-10 286.5,-30 306.5,-30 306.5,-10 286.5,-10"/>
<text text-anchor="start" x="310.28" y="-15.4" font-family="Times-12" font-size="14.00"> &#160;Bootstrap</text>
<polygon fill="#fdb462" stroke="transparent" points="383.5,-10 383.5,-30 403.5,-30 403.5,-10 383.5,-10"/>
<text text-anchor="start" x="407.17" y="-15.4" font-family="Times-12" font-size="14.00"> &#160;Providers</text>
<polygon fill="#fb8072" stroke="transparent" points="479.5,-10 479.5,-30 499.5,-30 499.5,-10 479.5,-10"/>
<text text-anchor="start" x="503.23" y="-15.4" font-family="Times-12" font-size="14.00"> &#160;Exports</text>
<g id="clust1" class="cluster">
<title>cluster_PseudonymApiModule</title>
<polygon fill="none" stroke="black" stroke-dasharray="1,5" points="8,-70 8,-195 635,-195 635,-70 8,-70"/>
</g>
<g id="clust3" class="cluster">
<title>cluster_PseudonymApiModule_imports</title>
<polygon fill="none" stroke="black" points="174,-78 174,-130 627,-130 627,-78 174,-78"/>
</g>
<g id="clust6" class="cluster">
<title>cluster_PseudonymApiModule_providers</title>
<polygon fill="none" stroke="black" points="16,-78 16,-130 166,-130 166,-78 16,-78"/>
</g>
<!-- AuthorizationModule -->
<g id="node1" class="node">
<title>AuthorizationModule</title>
<polygon fill="#8dd3c7" stroke="black" points="618.81,-122 615.81,-126 594.81,-126 591.81,-122 481.19,-122 481.19,-86 618.81,-86 618.81,-122"/>
<text text-anchor="middle" x="550" y="-99.8" font-family="Times,serif" font-size="14.00">AuthorizationModule</text>
</g>
<!-- PseudonymApiModule -->
<g id="node4" class="node">
<title>PseudonymApiModule</title>
<polygon fill="#8dd3c7" stroke="black" points="391.88,-187 388.88,-191 367.88,-191 364.88,-187 246.12,-187 246.12,-151 391.88,-151 391.88,-187"/>
<text text-anchor="middle" x="319" y="-164.8" font-family="Times,serif" font-size="14.00">PseudonymApiModule</text>
</g>
<!-- AuthorizationModule&#45;&gt;PseudonymApiModule -->
<g id="edge1" class="edge">
<title>AuthorizationModule&#45;&gt;PseudonymApiModule</title>
<path fill="none" stroke="black" d="M550,-122.11C550,-141.34 550,-169 550,-169 550,-169 402.09,-169 402.09,-169"/>
<polygon fill="black" stroke="black" points="402.09,-165.5 392.09,-169 402.09,-172.5 402.09,-165.5"/>
</g>
<!-- LegacySchoolModule -->
<g id="node2" class="node">
<title>LegacySchoolModule</title>
<polygon fill="#8dd3c7" stroke="black" points="463.63,-122 460.63,-126 439.63,-126 436.63,-122 324.37,-122 324.37,-86 463.63,-86 463.63,-122"/>
<text text-anchor="middle" x="394" y="-99.8" font-family="Times,serif" font-size="14.00">LegacySchoolModule</text>
</g>
<!-- LegacySchoolModule&#45;&gt;PseudonymApiModule -->
<g id="edge2" class="edge">
<title>LegacySchoolModule&#45;&gt;PseudonymApiModule</title>
<path fill="none" stroke="black" d="M358.06,-122.11C358.06,-122.11 358.06,-140.99 358.06,-140.99"/>
<polygon fill="black" stroke="black" points="354.56,-140.99 358.06,-150.99 361.56,-140.99 354.56,-140.99"/>
</g>
<!-- PseudonymModule -->
<g id="node3" class="node">
<title>PseudonymModule</title>
<polygon fill="#8dd3c7" stroke="black" points="306.38,-122 303.38,-126 282.38,-126 279.38,-122 181.62,-122 181.62,-86 306.38,-86 306.38,-122"/>
<text text-anchor="middle" x="244" y="-99.8" font-family="Times,serif" font-size="14.00">PseudonymModule</text>
</g>
<!-- PseudonymModule&#45;&gt;PseudonymApiModule -->
<g id="edge3" class="edge">
<title>PseudonymModule&#45;&gt;PseudonymApiModule</title>
<path fill="none" stroke="black" d="M276.25,-122.11C276.25,-122.11 276.25,-140.99 276.25,-140.99"/>
<polygon fill="black" stroke="black" points="272.75,-140.99 276.25,-150.99 279.75,-140.99 272.75,-140.99"/>
</g>
<!-- PseudonymUc -->
<g id="node5" class="node">
<title>PseudonymUc</title>
<ellipse fill="#fdb462" stroke="black" cx="91" cy="-104" rx="67.22" ry="18"/>
<text text-anchor="middle" x="91" y="-99.8" font-family="Times,serif" font-size="14.00">PseudonymUc</text>
</g>
<!-- PseudonymUc&#45;&gt;PseudonymApiModule -->
<g id="edge4" class="edge">
<title>PseudonymUc&#45;&gt;PseudonymApiModule</title>
<path fill="none" stroke="black" d="M91,-122.11C91,-141.34 91,-169 91,-169 91,-169 235.92,-169 235.92,-169"/>
<polygon fill="black" stroke="black" points="235.92,-172.5 245.92,-169 235.92,-165.5 235.92,-172.5"/>
</g>
</g>
</svg>
