<?xml version="1.0" encoding="UTF-8" standalone="no"?>
<!DOCTYPE svg PUBLIC "-//W3C//DTD SVG 1.1//EN"
 "http://www.w3.org/Graphics/SVG/1.1/DTD/svg11.dtd">
<!-- Generated by graphviz version 2.47.0 (20210316.0004)
 -->
<!-- Title: dependencies Pages: 1 -->
<svg width="651pt" height="211pt"
 viewBox="0.00 0.00 651.00 211.00" xmlns="http://www.w3.org/2000/svg" xmlns:xlink="http://www.w3.org/1999/xlink">
<g id="graph0" class="graph" transform="scale(1 1) rotate(0) translate(4 207)">
<title>dependencies</title>
<polygon fill="white" stroke="transparent" points="-4,4 -4,-207 647,-207 647,4 -4,4"/>
<text text-anchor="start" x="300.51" y="-42.4" font-family="Times-12" font-weight="bold" font-size="14.00">Legend</text>
<polygon fill="#ffffb3" stroke="transparent" points="87.5,-10 87.5,-30 107.5,-30 107.5,-10 87.5,-10"/>
<text text-anchor="start" x="111.13" y="-15.4" font-family="Times-12" font-size="14.00"> &#160;Declarations</text>
<polygon fill="#8dd3c7" stroke="transparent" points="200.5,-10 200.5,-30 220.5,-30 220.5,-10 200.5,-10"/>
<text text-anchor="start" x="224.23" y="-15.4" font-family="Times-12" font-size="14.00"> &#160;Module</text>
<polygon fill="#80b1d3" stroke="transparent" points="286.5,-10 286.5,-30 306.5,-30 306.5,-10 286.5,-10"/>
<text text-anchor="start" x="310.28" y="-15.4" font-family="Times-12" font-size="14.00"> &#160;Bootstrap</text>
<polygon fill="#fdb462" stroke="transparent" points="383.5,-10 383.5,-30 403.5,-30 403.5,-10 383.5,-10"/>
<text text-anchor="start" x="407.17" y="-15.4" font-family="Times-12" font-size="14.00"> &#160;Providers</text>
<polygon fill="#fb8072" stroke="transparent" points="479.5,-10 479.5,-30 499.5,-30 499.5,-10 479.5,-10"/>
<text text-anchor="start" x="503.23" y="-15.4" font-family="Times-12" font-size="14.00"> &#160;Exports</text>
<g id="clust1" class="cluster">
<title>cluster_PseudonymApiModule</title>
<polygon fill="none" stroke="black" stroke-dasharray="1,5" points="8,-70 8,-195 635,-195 635,-70 8,-70"/>
</g>
<g id="clust6" class="cluster">
<title>cluster_PseudonymApiModule_providers</title>
<polygon fill="none" stroke="black" points="477,-78 477,-130 627,-130 627,-78 477,-78"/>
</g>
<g id="clust3" class="cluster">
<title>cluster_PseudonymApiModule_imports</title>
<polygon fill="none" stroke="black" points="16,-78 16,-130 469,-130 469,-78 16,-78"/>
</g>
<!-- AuthorizationModule -->
<g id="node1" class="node">
<title>AuthorizationModule</title>
<polygon fill="#8dd3c7" stroke="black" points="460.81,-122 457.81,-126 436.81,-126 433.81,-122 323.19,-122 323.19,-86 460.81,-86 460.81,-122"/>
<text text-anchor="middle" x="392" y="-99.8" font-family="Times,serif" font-size="14.00">AuthorizationModule</text>
</g>
<!-- PseudonymApiModule -->
<g id="node4" class="node">
<title>PseudonymApiModule</title>
<polygon fill="#8dd3c7" stroke="black" points="386.88,-187 383.88,-191 362.88,-191 359.88,-187 241.12,-187 241.12,-151 386.88,-151 386.88,-187"/>
<text text-anchor="middle" x="314" y="-164.8" font-family="Times,serif" font-size="14.00">PseudonymApiModule</text>
</g>
<!-- AuthorizationModule&#45;&gt;PseudonymApiModule -->
<g id="edge1" class="edge">
<title>AuthorizationModule&#45;&gt;PseudonymApiModule</title>
<path fill="none" stroke="black" d="M355.14,-122.11C355.14,-122.11 355.14,-140.99 355.14,-140.99"/>
<polygon fill="black" stroke="black" points="351.64,-140.99 355.14,-150.99 358.64,-140.99 351.64,-140.99"/>
</g>
<!-- LegacySchoolModule -->
<g id="node2" class="node">
<title>LegacySchoolModule</title>
<polygon fill="#8dd3c7" stroke="black" points="305.63,-122 302.63,-126 281.63,-126 278.63,-122 166.37,-122 166.37,-86 305.63,-86 305.63,-122"/>
<text text-anchor="middle" x="236" y="-99.8" font-family="Times,serif" font-size="14.00">LegacySchoolModule</text>
</g>
<!-- LegacySchoolModule&#45;&gt;PseudonymApiModule -->
<g id="edge2" class="edge">
<title>LegacySchoolModule&#45;&gt;PseudonymApiModule</title>
<path fill="none" stroke="black" d="M273.44,-122.11C273.44,-122.11 273.44,-140.99 273.44,-140.99"/>
<polygon fill="black" stroke="black" points="269.94,-140.99 273.44,-150.99 276.94,-140.99 269.94,-140.99"/>
</g>
<!-- PseudonymModule -->
<g id="node3" class="node">
<title>PseudonymModule</title>
<polygon fill="#8dd3c7" stroke="black" points="148.38,-122 145.38,-126 124.38,-126 121.38,-122 23.62,-122 23.62,-86 148.38,-86 148.38,-122"/>
<text text-anchor="middle" x="86" y="-99.8" font-family="Times,serif" font-size="14.00">PseudonymModule</text>
</g>
<!-- PseudonymModule&#45;&gt;PseudonymApiModule -->
<g id="edge3" class="edge">
<title>PseudonymModule&#45;&gt;PseudonymApiModule</title>
<path fill="none" stroke="black" d="M86,-122.11C86,-141.34 86,-169 86,-169 86,-169 230.92,-169 230.92,-169"/>
<polygon fill="black" stroke="black" points="230.92,-172.5 240.92,-169 230.92,-165.5 230.92,-172.5"/>
</g>
<!-- PseudonymUc -->
<g id="node5" class="node">
<title>PseudonymUc</title>
<ellipse fill="#fdb462" stroke="black" cx="552" cy="-104" rx="67.22" ry="18"/>
<text text-anchor="middle" x="552" y="-99.8" font-family="Times,serif" font-size="14.00">PseudonymUc</text>
</g>
<!-- PseudonymUc&#45;&gt;PseudonymApiModule -->
<g id="edge4" class="edge">
<title>PseudonymUc&#45;&gt;PseudonymApiModule</title>
<path fill="none" stroke="black" d="M552,-122.11C552,-141.34 552,-169 552,-169 552,-169 397.03,-169 397.03,-169"/>
<polygon fill="black" stroke="black" points="397.03,-165.5 387.03,-169 397.03,-172.5 397.03,-165.5"/>
</g>
</g>
</svg>
