<?xml version="1.0" encoding="UTF-8" standalone="no"?>
<!DOCTYPE svg PUBLIC "-//W3C//DTD SVG 1.1//EN"
 "http://www.w3.org/Graphics/SVG/1.1/DTD/svg11.dtd">
<!-- Generated by graphviz version 2.47.0 (20210316.0004)
 -->
<!-- Title: dependencies Pages: 1 -->
<svg width="596pt" height="284pt"
 viewBox="0.00 0.00 596.00 284.00" xmlns="http://www.w3.org/2000/svg" xmlns:xlink="http://www.w3.org/1999/xlink">
<g id="graph0" class="graph" transform="scale(1 1) rotate(0) translate(4 280)">
<title>dependencies</title>
<polygon fill="white" stroke="transparent" points="-4,4 -4,-280 592,-280 592,4 -4,4"/>
<text text-anchor="start" x="273.01" y="-42.4" font-family="Times-12" font-weight="bold" font-size="14.00">Legend</text>
<polygon fill="#ffffb3" stroke="transparent" points="60,-10 60,-30 80,-30 80,-10 60,-10"/>
<text text-anchor="start" x="83.63" y="-15.4" font-family="Times-12" font-size="14.00"> &#160;Declarations</text>
<polygon fill="#8dd3c7" stroke="transparent" points="173,-10 173,-30 193,-30 193,-10 173,-10"/>
<text text-anchor="start" x="196.73" y="-15.4" font-family="Times-12" font-size="14.00"> &#160;Module</text>
<polygon fill="#80b1d3" stroke="transparent" points="259,-10 259,-30 279,-30 279,-10 259,-10"/>
<text text-anchor="start" x="282.78" y="-15.4" font-family="Times-12" font-size="14.00"> &#160;Bootstrap</text>
<polygon fill="#fdb462" stroke="transparent" points="356,-10 356,-30 376,-30 376,-10 356,-10"/>
<text text-anchor="start" x="379.67" y="-15.4" font-family="Times-12" font-size="14.00"> &#160;Providers</text>
<polygon fill="#fb8072" stroke="transparent" points="452,-10 452,-30 472,-30 472,-10 452,-10"/>
<text text-anchor="start" x="475.73" y="-15.4" font-family="Times-12" font-size="14.00"> &#160;Exports</text>
<g id="clust1" class="cluster">
<title>cluster_RocketChatUserModule</title>
<polygon fill="none" stroke="black" stroke-dasharray="1,5" points="8,-70 8,-268 580,-268 580,-70 8,-70"/>
</g>
<g id="clust3" class="cluster">
<title>cluster_RocketChatUserModule_imports</title>
<polygon fill="none" stroke="black" points="456,-78 456,-130 572,-130 572,-78 456,-78"/>
</g>
<g id="clust6" class="cluster">
<title>cluster_RocketChatUserModule_providers</title>
<polygon fill="none" stroke="black" points="16,-78 16,-130 448,-130 448,-78 16,-78"/>
</g>
<g id="clust4" class="cluster">
<title>cluster_RocketChatUserModule_exports</title>
<polygon fill="none" stroke="black" points="260,-208 260,-260 430,-260 430,-208 260,-208"/>
</g>
<!-- LoggerModule -->
<g id="node1" class="node">
<title>LoggerModule</title>
<polygon fill="#8dd3c7" stroke="black" points="563.98,-122 560.98,-126 539.98,-126 536.98,-122 464.02,-122 464.02,-86 563.98,-86 563.98,-122"/>
<text text-anchor="middle" x="514" y="-99.8" font-family="Times,serif" font-size="14.00">LoggerModule</text>
</g>
<!-- RocketChatUserModule -->
<g id="node2" class="node">
<title>RocketChatUserModule</title>
<polygon fill="#8dd3c7" stroke="black" points="421.07,-187 418.07,-191 397.07,-191 394.07,-187 268.93,-187 268.93,-151 421.07,-151 421.07,-187"/>
<text text-anchor="middle" x="345" y="-164.8" font-family="Times,serif" font-size="14.00">RocketChatUserModule</text>
</g>
<!-- LoggerModule&#45;&gt;RocketChatUserModule -->
<g id="edge1" class="edge">
<title>LoggerModule&#45;&gt;RocketChatUserModule</title>
<path fill="none" stroke="black" d="M514,-122.11C514,-141.34 514,-169 514,-169 514,-169 431.1,-169 431.1,-169"/>
<polygon fill="black" stroke="black" points="431.1,-165.5 421.1,-169 431.1,-172.5 431.1,-165.5"/>
</g>
<!-- RocketChatUserService  -->
<g id="node3" class="node">
<title>RocketChatUserService </title>
<polygon fill="#fb8072" stroke="black" points="422,-252 268,-252 268,-216 422,-216 422,-252"/>
<text text-anchor="middle" x="345" y="-229.8" font-family="Times,serif" font-size="14.00">RocketChatUserService </text>
</g>
<!-- RocketChatUserModule&#45;&gt;RocketChatUserService  -->
<g id="edge2" class="edge">
<title>RocketChatUserModule&#45;&gt;RocketChatUserService </title>
<path fill="none" stroke="black" stroke-dasharray="5,2" d="M345,-187.11C345,-187.11 345,-205.99 345,-205.99"/>
<polygon fill="black" stroke="black" points="341.5,-205.99 345,-215.99 348.5,-205.99 341.5,-205.99"/>
</g>
<!-- RocketChatUserRepo -->
<g id="node4" class="node">
<title>RocketChatUserRepo</title>
<ellipse fill="#fdb462" stroke="black" cx="345" cy="-104" rx="95.48" ry="18"/>
<text text-anchor="middle" x="345" y="-99.8" font-family="Times,serif" font-size="14.00">RocketChatUserRepo</text>
</g>
<!-- RocketChatUserRepo&#45;&gt;RocketChatUserModule -->
<g id="edge3" class="edge">
<title>RocketChatUserRepo&#45;&gt;RocketChatUserModule</title>
<path fill="none" stroke="black" d="M345,-122.11C345,-122.11 345,-140.99 345,-140.99"/>
<polygon fill="black" stroke="black" points="341.5,-140.99 345,-150.99 348.5,-140.99 341.5,-140.99"/>
</g>
<!-- RocketChatUserService -->
<g id="node5" class="node">
<title>RocketChatUserService</title>
<ellipse fill="#fdb462" stroke="black" cx="128" cy="-104" rx="103.63" ry="18"/>
<text text-anchor="middle" x="128" y="-99.8" font-family="Times,serif" font-size="14.00">RocketChatUserService</text>
</g>
<!-- RocketChatUserService&#45;&gt;RocketChatUserModule -->
<g id="edge4" class="edge">
<title>RocketChatUserService&#45;&gt;RocketChatUserModule</title>
<path fill="none" stroke="black" d="M128,-122.11C128,-141.34 128,-169 128,-169 128,-169 258.8,-169 258.8,-169"/>
<polygon fill="black" stroke="black" points="258.8,-172.5 268.8,-169 258.8,-165.5 258.8,-172.5"/>
</g>
</g>
</svg>
