<?xml version="1.0" encoding="UTF-8" standalone="no"?>
<!DOCTYPE svg PUBLIC "-//W3C//DTD SVG 1.1//EN"
 "http://www.w3.org/Graphics/SVG/1.1/DTD/svg11.dtd">
<!-- Generated by graphviz version 2.47.0 (20210316.0004)
 -->
<!-- Title: dependencies Pages: 1 -->
<svg width="596pt" height="284pt"
 viewBox="0.00 0.00 596.00 284.00" xmlns="http://www.w3.org/2000/svg" xmlns:xlink="http://www.w3.org/1999/xlink">
<g id="graph0" class="graph" transform="scale(1 1) rotate(0) translate(4 280)">
<title>dependencies</title>
<polygon fill="white" stroke="transparent" points="-4,4 -4,-280 592,-280 592,4 -4,4"/>
<text text-anchor="start" x="273.01" y="-42.4" font-family="Times-12" font-weight="bold" font-size="14.00">Legend</text>
<polygon fill="#ffffb3" stroke="transparent" points="60,-10 60,-30 80,-30 80,-10 60,-10"/>
<text text-anchor="start" x="83.63" y="-15.4" font-family="Times-12" font-size="14.00"> &#160;Declarations</text>
<polygon fill="#8dd3c7" stroke="transparent" points="173,-10 173,-30 193,-30 193,-10 173,-10"/>
<text text-anchor="start" x="196.73" y="-15.4" font-family="Times-12" font-size="14.00"> &#160;Module</text>
<polygon fill="#80b1d3" stroke="transparent" points="259,-10 259,-30 279,-30 279,-10 259,-10"/>
<text text-anchor="start" x="282.78" y="-15.4" font-family="Times-12" font-size="14.00"> &#160;Bootstrap</text>
<polygon fill="#fdb462" stroke="transparent" points="356,-10 356,-30 376,-30 376,-10 356,-10"/>
<text text-anchor="start" x="379.67" y="-15.4" font-family="Times-12" font-size="14.00"> &#160;Providers</text>
<polygon fill="#fb8072" stroke="transparent" points="452,-10 452,-30 472,-30 472,-10 452,-10"/>
<text text-anchor="start" x="475.73" y="-15.4" font-family="Times-12" font-size="14.00"> &#160;Exports</text>
<g id="clust1" class="cluster">
<title>cluster_RocketChatUserModule</title>
<polygon fill="none" stroke="black" stroke-dasharray="1,5" points="8,-70 8,-268 580,-268 580,-70 8,-70"/>
</g>
<g id="clust6" class="cluster">
<title>cluster_RocketChatUserModule_providers</title>
<polygon fill="none" stroke="black" points="140,-78 140,-130 572,-130 572,-78 140,-78"/>
</g>
<g id="clust3" class="cluster">
<title>cluster_RocketChatUserModule_imports</title>
<polygon fill="none" stroke="black" points="16,-78 16,-130 132,-130 132,-78 16,-78"/>
</g>
<g id="clust4" class="cluster">
<title>cluster_RocketChatUserModule_exports</title>
<polygon fill="none" stroke="black" points="167,-208 167,-260 337,-260 337,-208 167,-208"/>
</g>
<!-- LoggerModule -->
<g id="node1" class="node">
<title>LoggerModule</title>
<polygon fill="#8dd3c7" stroke="black" points="123.98,-122 120.98,-126 99.98,-126 96.98,-122 24.02,-122 24.02,-86 123.98,-86 123.98,-122"/>
<text text-anchor="middle" x="74" y="-99.8" font-family="Times,serif" font-size="14.00">LoggerModule</text>
</g>
<!-- RocketChatUserModule -->
<g id="node2" class="node">
<title>RocketChatUserModule</title>
<polygon fill="#8dd3c7" stroke="black" points="328.07,-187 325.07,-191 304.07,-191 301.07,-187 175.93,-187 175.93,-151 328.07,-151 328.07,-187"/>
<text text-anchor="middle" x="252" y="-164.8" font-family="Times,serif" font-size="14.00">RocketChatUserModule</text>
</g>
<!-- LoggerModule&#45;&gt;RocketChatUserModule -->
<g id="edge1" class="edge">
<title>LoggerModule&#45;&gt;RocketChatUserModule</title>
<path fill="none" stroke="black" d="M74,-122.11C74,-141.34 74,-169 74,-169 74,-169 165.74,-169 165.74,-169"/>
<polygon fill="black" stroke="black" points="165.74,-172.5 175.74,-169 165.74,-165.5 165.74,-172.5"/>
</g>
<!-- RocketChatUserService  -->
<g id="node3" class="node">
<title>RocketChatUserService </title>
<polygon fill="#fb8072" stroke="black" points="329,-252 175,-252 175,-216 329,-216 329,-252"/>
<text text-anchor="middle" x="252" y="-229.8" font-family="Times,serif" font-size="14.00">RocketChatUserService </text>
</g>
<!-- RocketChatUserModule&#45;&gt;RocketChatUserService  -->
<g id="edge2" class="edge">
<title>RocketChatUserModule&#45;&gt;RocketChatUserService </title>
<path fill="none" stroke="black" stroke-dasharray="5,2" d="M252,-187.11C252,-187.11 252,-205.99 252,-205.99"/>
<polygon fill="black" stroke="black" points="248.5,-205.99 252,-215.99 255.5,-205.99 248.5,-205.99"/>
</g>
<!-- RocketChatUserRepo -->
<g id="node4" class="node">
<title>RocketChatUserRepo</title>
<ellipse fill="#fdb462" stroke="black" cx="469" cy="-104" rx="95.48" ry="18"/>
<text text-anchor="middle" x="469" y="-99.8" font-family="Times,serif" font-size="14.00">RocketChatUserRepo</text>
</g>
<!-- RocketChatUserRepo&#45;&gt;RocketChatUserModule -->
<g id="edge3" class="edge">
<title>RocketChatUserRepo&#45;&gt;RocketChatUserModule</title>
<path fill="none" stroke="black" d="M469,-122.11C469,-141.34 469,-169 469,-169 469,-169 338.2,-169 338.2,-169"/>
<polygon fill="black" stroke="black" points="338.2,-165.5 328.2,-169 338.2,-172.5 338.2,-165.5"/>
</g>
<!-- RocketChatUserService -->
<g id="node5" class="node">
<title>RocketChatUserService</title>
<ellipse fill="#fdb462" stroke="black" cx="252" cy="-104" rx="103.63" ry="18"/>
<text text-anchor="middle" x="252" y="-99.8" font-family="Times,serif" font-size="14.00">RocketChatUserService</text>
</g>
<!-- RocketChatUserService&#45;&gt;RocketChatUserModule -->
<g id="edge4" class="edge">
<title>RocketChatUserService&#45;&gt;RocketChatUserModule</title>
<path fill="none" stroke="black" d="M252,-122.11C252,-122.11 252,-140.99 252,-140.99"/>
<polygon fill="black" stroke="black" points="248.5,-140.99 252,-150.99 255.5,-140.99 248.5,-140.99"/>
</g>
</g>
</svg>
