<?xml version="1.0" encoding="UTF-8" standalone="no"?>
<!DOCTYPE svg PUBLIC "-//W3C//DTD SVG 1.1//EN"
 "http://www.w3.org/Graphics/SVG/1.1/DTD/svg11.dtd">
<!-- Generated by graphviz version 2.47.0 (20210316.0004)
 -->
<!-- Title: dependencies Pages: 1 -->
<svg width="740pt" height="284pt"
 viewBox="0.00 0.00 740.00 284.00" xmlns="http://www.w3.org/2000/svg" xmlns:xlink="http://www.w3.org/1999/xlink">
<g id="graph0" class="graph" transform="scale(1 1) rotate(0) translate(4 280)">
<title>dependencies</title>
<polygon fill="white" stroke="transparent" points="-4,4 -4,-280 736,-280 736,4 -4,4"/>
<text text-anchor="start" x="345.01" y="-42.4" font-family="Times-12" font-weight="bold" font-size="14.00">Legend</text>
<polygon fill="#ffffb3" stroke="transparent" points="132,-10 132,-30 152,-30 152,-10 132,-10"/>
<text text-anchor="start" x="155.63" y="-15.4" font-family="Times-12" font-size="14.00"> &#160;Declarations</text>
<polygon fill="#8dd3c7" stroke="transparent" points="245,-10 245,-30 265,-30 265,-10 245,-10"/>
<text text-anchor="start" x="268.73" y="-15.4" font-family="Times-12" font-size="14.00"> &#160;Module</text>
<polygon fill="#80b1d3" stroke="transparent" points="331,-10 331,-30 351,-30 351,-10 331,-10"/>
<text text-anchor="start" x="354.78" y="-15.4" font-family="Times-12" font-size="14.00"> &#160;Bootstrap</text>
<polygon fill="#fdb462" stroke="transparent" points="428,-10 428,-30 448,-30 448,-10 428,-10"/>
<text text-anchor="start" x="451.67" y="-15.4" font-family="Times-12" font-size="14.00"> &#160;Providers</text>
<polygon fill="#fb8072" stroke="transparent" points="524,-10 524,-30 544,-30 544,-10 524,-10"/>
<text text-anchor="start" x="547.73" y="-15.4" font-family="Times-12" font-size="14.00"> &#160;Exports</text>
<g id="clust1" class="cluster">
<title>cluster_RocketChatUserModule</title>
<polygon fill="none" stroke="black" stroke-dasharray="1,5" points="8,-70 8,-268 724,-268 724,-70 8,-70"/>
</g>
<g id="clust3" class="cluster">
<title>cluster_RocketChatUserModule_imports</title>
<polygon fill="none" stroke="black" points="456,-78 456,-130 716,-130 716,-78 456,-78"/>
</g>
<g id="clust4" class="cluster">
<title>cluster_RocketChatUserModule_exports</title>
<polygon fill="none" stroke="black" points="351,-208 351,-260 521,-260 521,-208 351,-208"/>
</g>
<g id="clust6" class="cluster">
<title>cluster_RocketChatUserModule_providers</title>
<polygon fill="none" stroke="black" points="16,-78 16,-130 448,-130 448,-78 16,-78"/>
</g>
<!-- LoggerModule -->
<g id="node1" class="node">
<title>LoggerModule</title>
<polygon fill="#8dd3c7" stroke="black" points="707.98,-122 704.98,-126 683.98,-126 680.98,-122 608.02,-122 608.02,-86 707.98,-86 707.98,-122"/>
<text text-anchor="middle" x="658" y="-99.8" font-family="Times,serif" font-size="14.00">LoggerModule</text>
</g>
<!-- RocketChatUserModule -->
<g id="node3" class="node">
<title>RocketChatUserModule</title>
<polygon fill="#8dd3c7" stroke="black" points="512.07,-187 509.07,-191 488.07,-191 485.07,-187 359.93,-187 359.93,-151 512.07,-151 512.07,-187"/>
<text text-anchor="middle" x="436" y="-164.8" font-family="Times,serif" font-size="14.00">RocketChatUserModule</text>
</g>
<!-- LoggerModule&#45;&gt;RocketChatUserModule -->
<g id="edge1" class="edge">
<title>LoggerModule&#45;&gt;RocketChatUserModule</title>
<path fill="none" stroke="black" d="M658,-122.11C658,-141.34 658,-169 658,-169 658,-169 522.09,-169 522.09,-169"/>
<polygon fill="black" stroke="black" points="522.09,-165.5 512.09,-169 522.09,-172.5 522.09,-165.5"/>
</g>
<!-- RocketChatModule -->
<g id="node2" class="node">
<title>RocketChatModule</title>
<polygon fill="#8dd3c7" stroke="black" points="589.65,-122 586.65,-126 565.65,-126 562.65,-122 464.35,-122 464.35,-86 589.65,-86 589.65,-122"/>
<text text-anchor="middle" x="527" y="-99.8" font-family="Times,serif" font-size="14.00">RocketChatModule</text>
</g>
<!-- RocketChatModule&#45;&gt;RocketChatUserModule -->
<g id="edge2" class="edge">
<title>RocketChatModule&#45;&gt;RocketChatUserModule</title>
<path fill="none" stroke="black" d="M488.11,-122.11C488.11,-122.11 488.11,-140.99 488.11,-140.99"/>
<polygon fill="black" stroke="black" points="484.61,-140.99 488.11,-150.99 491.61,-140.99 484.61,-140.99"/>
</g>
<!-- RocketChatUserService  -->
<g id="node4" class="node">
<title>RocketChatUserService </title>
<polygon fill="#fb8072" stroke="black" points="513,-252 359,-252 359,-216 513,-216 513,-252"/>
<text text-anchor="middle" x="436" y="-229.8" font-family="Times,serif" font-size="14.00">RocketChatUserService </text>
</g>
<!-- RocketChatUserModule&#45;&gt;RocketChatUserService  -->
<g id="edge3" class="edge">
<title>RocketChatUserModule&#45;&gt;RocketChatUserService </title>
<path fill="none" stroke="black" stroke-dasharray="5,2" d="M436,-187.11C436,-187.11 436,-205.99 436,-205.99"/>
<polygon fill="black" stroke="black" points="432.5,-205.99 436,-215.99 439.5,-205.99 432.5,-205.99"/>
</g>
<!-- RocketChatUserRepo -->
<g id="node5" class="node">
<title>RocketChatUserRepo</title>
<ellipse fill="#fdb462" stroke="black" cx="345" cy="-104" rx="95.48" ry="18"/>
<text text-anchor="middle" x="345" y="-99.8" font-family="Times,serif" font-size="14.00">RocketChatUserRepo</text>
</g>
<!-- RocketChatUserRepo&#45;&gt;RocketChatUserModule -->
<g id="edge4" class="edge">
<title>RocketChatUserRepo&#45;&gt;RocketChatUserModule</title>
<path fill="none" stroke="black" d="M400.1,-118.75C400.1,-118.75 400.1,-140.59 400.1,-140.59"/>
<polygon fill="black" stroke="black" points="396.6,-140.59 400.1,-150.59 403.6,-140.59 396.6,-140.59"/>
</g>
<!-- RocketChatUserService -->
<g id="node6" class="node">
<title>RocketChatUserService</title>
<ellipse fill="#fdb462" stroke="black" cx="128" cy="-104" rx="103.63" ry="18"/>
<text text-anchor="middle" x="128" y="-99.8" font-family="Times,serif" font-size="14.00">RocketChatUserService</text>
</g>
<!-- RocketChatUserService&#45;&gt;RocketChatUserModule -->
<g id="edge5" class="edge">
<title>RocketChatUserService&#45;&gt;RocketChatUserModule</title>
<path fill="none" stroke="black" d="M128,-122.11C128,-141.34 128,-169 128,-169 128,-169 349.87,-169 349.87,-169"/>
<polygon fill="black" stroke="black" points="349.87,-172.5 359.87,-169 349.87,-165.5 349.87,-172.5"/>
</g>
</g>
</svg>
