<?xml version="1.0" encoding="UTF-8" standalone="no"?>
<!DOCTYPE svg PUBLIC "-//W3C//DTD SVG 1.1//EN"
 "http://www.w3.org/Graphics/SVG/1.1/DTD/svg11.dtd">
<!-- Generated by graphviz version 2.47.0 (20210316.0004)
 -->
<!-- Title: dependencies Pages: 1 -->
<svg width="504pt" height="284pt"
 viewBox="0.00 0.00 504.00 284.00" xmlns="http://www.w3.org/2000/svg" xmlns:xlink="http://www.w3.org/1999/xlink">
<g id="graph0" class="graph" transform="scale(1 1) rotate(0) translate(4 280)">
<title>dependencies</title>
<polygon fill="white" stroke="transparent" points="-4,4 -4,-280 500,-280 500,4 -4,4"/>
<text text-anchor="start" x="227.01" y="-42.4" font-family="Times-12" font-weight="bold" font-size="14.00">Legend</text>
<polygon fill="#ffffb3" stroke="transparent" points="14,-10 14,-30 34,-30 34,-10 14,-10"/>
<text text-anchor="start" x="37.63" y="-15.4" font-family="Times-12" font-size="14.00"> &#160;Declarations</text>
<polygon fill="#8dd3c7" stroke="transparent" points="127,-10 127,-30 147,-30 147,-10 127,-10"/>
<text text-anchor="start" x="150.73" y="-15.4" font-family="Times-12" font-size="14.00"> &#160;Module</text>
<polygon fill="#80b1d3" stroke="transparent" points="213,-10 213,-30 233,-30 233,-10 213,-10"/>
<text text-anchor="start" x="236.78" y="-15.4" font-family="Times-12" font-size="14.00"> &#160;Bootstrap</text>
<polygon fill="#fdb462" stroke="transparent" points="310,-10 310,-30 330,-30 330,-10 310,-10"/>
<text text-anchor="start" x="333.67" y="-15.4" font-family="Times-12" font-size="14.00"> &#160;Providers</text>
<polygon fill="#fb8072" stroke="transparent" points="406,-10 406,-30 426,-30 426,-10 406,-10"/>
<text text-anchor="start" x="429.73" y="-15.4" font-family="Times-12" font-size="14.00"> &#160;Exports</text>
<g id="clust1" class="cluster">
<title>cluster_RocketChatUserModule</title>
<polygon fill="none" stroke="black" stroke-dasharray="1,5" points="24,-70 24,-268 472,-268 472,-70 24,-70"/>
</g>
<g id="clust6" class="cluster">
<title>cluster_RocketChatUserModule_providers</title>
<polygon fill="none" stroke="black" points="32,-78 32,-130 464,-130 464,-78 32,-78"/>
</g>
<g id="clust4" class="cluster">
<title>cluster_RocketChatUserModule_exports</title>
<polygon fill="none" stroke="black" points="180,-208 180,-260 324,-260 324,-208 180,-208"/>
</g>
<!-- RocketChatService  -->
<g id="node1" class="node">
<title>RocketChatService </title>
<polygon fill="#fb8072" stroke="black" points="315.58,-252 188.42,-252 188.42,-216 315.58,-216 315.58,-252"/>
<text text-anchor="middle" x="252" y="-229.8" font-family="Times,serif" font-size="14.00">RocketChatService </text>
</g>
<!-- RocketChatUserModule -->
<g id="node2" class="node">
<title>RocketChatUserModule</title>
<polygon fill="#8dd3c7" stroke="black" points="328.07,-187 325.07,-191 304.07,-191 301.07,-187 175.93,-187 175.93,-151 328.07,-151 328.07,-187"/>
<text text-anchor="middle" x="252" y="-164.8" font-family="Times,serif" font-size="14.00">RocketChatUserModule</text>
</g>
<!-- RocketChatUserModule&#45;&gt;RocketChatService  -->
<g id="edge1" class="edge">
<title>RocketChatUserModule&#45;&gt;RocketChatService </title>
<path fill="none" stroke="black" stroke-dasharray="5,2" d="M252,-187.11C252,-187.11 252,-205.99 252,-205.99"/>
<polygon fill="black" stroke="black" points="248.5,-205.99 252,-215.99 255.5,-205.99 248.5,-205.99"/>
</g>
<!-- RocketChatUserRepo -->
<g id="node3" class="node">
<title>RocketChatUserRepo</title>
<ellipse fill="#fdb462" stroke="black" cx="361" cy="-104" rx="95.48" ry="18"/>
<text text-anchor="middle" x="361" y="-99.8" font-family="Times,serif" font-size="14.00">RocketChatUserRepo</text>
</g>
<!-- RocketChatUserRepo&#45;&gt;RocketChatUserModule -->
<g id="edge2" class="edge">
<title>RocketChatUserRepo&#45;&gt;RocketChatUserModule</title>
<path fill="none" stroke="black" d="M296.9,-117.47C296.9,-117.47 296.9,-140.86 296.9,-140.86"/>
<polygon fill="black" stroke="black" points="293.4,-140.86 296.9,-150.86 300.4,-140.86 293.4,-140.86"/>
</g>
<!-- RocketChatUserService -->
<g id="node4" class="node">
<title>RocketChatUserService</title>
<ellipse fill="#fdb462" stroke="black" cx="144" cy="-104" rx="103.63" ry="18"/>
<text text-anchor="middle" x="144" y="-99.8" font-family="Times,serif" font-size="14.00">RocketChatUserService</text>
</g>
<!-- RocketChatUserService&#45;&gt;RocketChatUserModule -->
<g id="edge3" class="edge">
<title>RocketChatUserService&#45;&gt;RocketChatUserModule</title>
<path fill="none" stroke="black" d="M211.89,-117.78C211.89,-117.78 211.89,-140.55 211.89,-140.55"/>
<polygon fill="black" stroke="black" points="208.39,-140.55 211.89,-150.55 215.39,-140.55 208.39,-140.55"/>
</g>
</g>
</svg>
