<?xml version="1.0" encoding="UTF-8" standalone="no"?>
<!DOCTYPE svg PUBLIC "-//W3C//DTD SVG 1.1//EN"
 "http://www.w3.org/Graphics/SVG/1.1/DTD/svg11.dtd">
<!-- Generated by graphviz version 2.47.0 (20210316.0004)
 -->
<!-- Title: dependencies Pages: 1 -->
<svg width="740pt" height="284pt"
 viewBox="0.00 0.00 740.00 284.00" xmlns="http://www.w3.org/2000/svg" xmlns:xlink="http://www.w3.org/1999/xlink">
<g id="graph0" class="graph" transform="scale(1 1) rotate(0) translate(4 280)">
<title>dependencies</title>
<polygon fill="white" stroke="transparent" points="-4,4 -4,-280 736,-280 736,4 -4,4"/>
<text text-anchor="start" x="345.01" y="-42.4" font-family="Times-12" font-weight="bold" font-size="14.00">Legend</text>
<polygon fill="#ffffb3" stroke="transparent" points="132,-10 132,-30 152,-30 152,-10 132,-10"/>
<text text-anchor="start" x="155.63" y="-15.4" font-family="Times-12" font-size="14.00"> &#160;Declarations</text>
<polygon fill="#8dd3c7" stroke="transparent" points="245,-10 245,-30 265,-30 265,-10 245,-10"/>
<text text-anchor="start" x="268.73" y="-15.4" font-family="Times-12" font-size="14.00"> &#160;Module</text>
<polygon fill="#80b1d3" stroke="transparent" points="331,-10 331,-30 351,-30 351,-10 331,-10"/>
<text text-anchor="start" x="354.78" y="-15.4" font-family="Times-12" font-size="14.00"> &#160;Bootstrap</text>
<polygon fill="#fdb462" stroke="transparent" points="428,-10 428,-30 448,-30 448,-10 428,-10"/>
<text text-anchor="start" x="451.67" y="-15.4" font-family="Times-12" font-size="14.00"> &#160;Providers</text>
<polygon fill="#fb8072" stroke="transparent" points="524,-10 524,-30 544,-30 544,-10 524,-10"/>
<text text-anchor="start" x="547.73" y="-15.4" font-family="Times-12" font-size="14.00"> &#160;Exports</text>
<g id="clust1" class="cluster">
<title>cluster_RocketChatUserModule</title>
<polygon fill="none" stroke="black" stroke-dasharray="1,5" points="8,-70 8,-268 724,-268 724,-70 8,-70"/>
</g>
<g id="clust6" class="cluster">
<title>cluster_RocketChatUserModule_providers</title>
<polygon fill="none" stroke="black" points="284,-78 284,-130 716,-130 716,-78 284,-78"/>
</g>
<g id="clust3" class="cluster">
<title>cluster_RocketChatUserModule_imports</title>
<polygon fill="none" stroke="black" points="16,-78 16,-130 276,-130 276,-78 16,-78"/>
</g>
<g id="clust4" class="cluster">
<title>cluster_RocketChatUserModule_exports</title>
<polygon fill="none" stroke="black" points="222,-208 222,-260 392,-260 392,-208 222,-208"/>
</g>
<!-- LoggerModule -->
<g id="node1" class="node">
<title>LoggerModule</title>
<polygon fill="#8dd3c7" stroke="black" points="267.98,-122 264.98,-126 243.98,-126 240.98,-122 168.02,-122 168.02,-86 267.98,-86 267.98,-122"/>
<text text-anchor="middle" x="218" y="-99.8" font-family="Times,serif" font-size="14.00">LoggerModule</text>
</g>
<!-- RocketChatUserModule -->
<g id="node3" class="node">
<title>RocketChatUserModule</title>
<polygon fill="#8dd3c7" stroke="black" points="383.07,-187 380.07,-191 359.07,-191 356.07,-187 230.93,-187 230.93,-151 383.07,-151 383.07,-187"/>
<text text-anchor="middle" x="307" y="-164.8" font-family="Times,serif" font-size="14.00">RocketChatUserModule</text>
</g>
<!-- LoggerModule&#45;&gt;RocketChatUserModule -->
<g id="edge1" class="edge">
<title>LoggerModule&#45;&gt;RocketChatUserModule</title>
<path fill="none" stroke="black" d="M249.48,-122.11C249.48,-122.11 249.48,-140.99 249.48,-140.99"/>
<polygon fill="black" stroke="black" points="245.98,-140.99 249.48,-150.99 252.98,-140.99 245.98,-140.99"/>
</g>
<!-- RocketChatModule -->
<g id="node2" class="node">
<title>RocketChatModule</title>
<polygon fill="#8dd3c7" stroke="black" points="149.65,-122 146.65,-126 125.65,-126 122.65,-122 24.35,-122 24.35,-86 149.65,-86 149.65,-122"/>
<text text-anchor="middle" x="87" y="-99.8" font-family="Times,serif" font-size="14.00">RocketChatModule</text>
</g>
<!-- RocketChatModule&#45;&gt;RocketChatUserModule -->
<g id="edge2" class="edge">
<title>RocketChatModule&#45;&gt;RocketChatUserModule</title>
<path fill="none" stroke="black" d="M87,-122.11C87,-141.34 87,-169 87,-169 87,-169 220.67,-169 220.67,-169"/>
<polygon fill="black" stroke="black" points="220.67,-172.5 230.67,-169 220.67,-165.5 220.67,-172.5"/>
</g>
<!-- RocketChatUserService  -->
<g id="node4" class="node">
<title>RocketChatUserService </title>
<polygon fill="#fb8072" stroke="black" points="384,-252 230,-252 230,-216 384,-216 384,-252"/>
<text text-anchor="middle" x="307" y="-229.8" font-family="Times,serif" font-size="14.00">RocketChatUserService </text>
</g>
<!-- RocketChatUserModule&#45;&gt;RocketChatUserService  -->
<g id="edge3" class="edge">
<title>RocketChatUserModule&#45;&gt;RocketChatUserService </title>
<path fill="none" stroke="black" stroke-dasharray="5,2" d="M307,-187.11C307,-187.11 307,-205.99 307,-205.99"/>
<polygon fill="black" stroke="black" points="303.5,-205.99 307,-215.99 310.5,-205.99 303.5,-205.99"/>
</g>
<!-- RocketChatUserRepo -->
<g id="node5" class="node">
<title>RocketChatUserRepo</title>
<ellipse fill="#fdb462" stroke="black" cx="613" cy="-104" rx="95.48" ry="18"/>
<text text-anchor="middle" x="613" y="-99.8" font-family="Times,serif" font-size="14.00">RocketChatUserRepo</text>
</g>
<!-- RocketChatUserRepo&#45;&gt;RocketChatUserModule -->
<g id="edge4" class="edge">
<title>RocketChatUserRepo&#45;&gt;RocketChatUserModule</title>
<path fill="none" stroke="black" d="M613,-122.11C613,-141.34 613,-169 613,-169 613,-169 393.43,-169 393.43,-169"/>
<polygon fill="black" stroke="black" points="393.43,-165.5 383.43,-169 393.43,-172.5 393.43,-165.5"/>
</g>
<!-- RocketChatUserService -->
<g id="node6" class="node">
<title>RocketChatUserService</title>
<ellipse fill="#fdb462" stroke="black" cx="396" cy="-104" rx="103.63" ry="18"/>
<text text-anchor="middle" x="396" y="-99.8" font-family="Times,serif" font-size="14.00">RocketChatUserService</text>
</g>
<!-- RocketChatUserService&#45;&gt;RocketChatUserModule -->
<g id="edge5" class="edge">
<title>RocketChatUserService&#45;&gt;RocketChatUserModule</title>
<path fill="none" stroke="black" d="M337.61,-119.08C337.61,-119.08 337.61,-140.76 337.61,-140.76"/>
<polygon fill="black" stroke="black" points="334.11,-140.76 337.61,-150.76 341.11,-140.76 334.11,-140.76"/>
</g>
</g>
</svg>
