<?xml version="1.0" encoding="UTF-8" standalone="no"?>
<!DOCTYPE svg PUBLIC "-//W3C//DTD SVG 1.1//EN"
 "http://www.w3.org/Graphics/SVG/1.1/DTD/svg11.dtd">
<!-- Generated by graphviz version 2.47.0 (20210316.0004)
 -->
<!-- Title: dependencies Pages: 1 -->
<svg width="504pt" height="211pt"
 viewBox="0.00 0.00 504.00 211.00" xmlns="http://www.w3.org/2000/svg" xmlns:xlink="http://www.w3.org/1999/xlink">
<g id="graph0" class="graph" transform="scale(1 1) rotate(0) translate(4 207)">
<title>dependencies</title>
<polygon fill="white" stroke="transparent" points="-4,4 -4,-207 500,-207 500,4 -4,4"/>
<text text-anchor="start" x="227.01" y="-42.4" font-family="Times-12" font-weight="bold" font-size="14.00">Legend</text>
<polygon fill="#ffffb3" stroke="transparent" points="14,-10 14,-30 34,-30 34,-10 14,-10"/>
<text text-anchor="start" x="37.63" y="-15.4" font-family="Times-12" font-size="14.00"> &#160;Declarations</text>
<polygon fill="#8dd3c7" stroke="transparent" points="127,-10 127,-30 147,-30 147,-10 127,-10"/>
<text text-anchor="start" x="150.73" y="-15.4" font-family="Times-12" font-size="14.00"> &#160;Module</text>
<polygon fill="#80b1d3" stroke="transparent" points="213,-10 213,-30 233,-30 233,-10 213,-10"/>
<text text-anchor="start" x="236.78" y="-15.4" font-family="Times-12" font-size="14.00"> &#160;Bootstrap</text>
<polygon fill="#fdb462" stroke="transparent" points="310,-10 310,-30 330,-30 330,-10 310,-10"/>
<text text-anchor="start" x="333.67" y="-15.4" font-family="Times-12" font-size="14.00"> &#160;Providers</text>
<polygon fill="#fb8072" stroke="transparent" points="406,-10 406,-30 426,-30 426,-10 406,-10"/>
<text text-anchor="start" x="429.73" y="-15.4" font-family="Times-12" font-size="14.00"> &#160;Exports</text>
<g id="clust1" class="cluster">
<title>cluster_ServerConsoleModule</title>
<polygon fill="none" stroke="black" stroke-dasharray="1,5" points="33.5,-70 33.5,-195 462.5,-195 462.5,-70 33.5,-70"/>
</g>
<g id="clust3" class="cluster">
<title>cluster_ServerConsoleModule_imports</title>
<polygon fill="none" stroke="black" points="41.5,-78 41.5,-130 454.5,-130 454.5,-78 41.5,-78"/>
</g>
<!-- ConsoleWriterModule -->
<g id="node1" class="node">
<title>ConsoleWriterModule</title>
<polygon fill="#8dd3c7" stroke="black" points="446.47,-122 443.47,-126 422.47,-126 419.47,-122 304.53,-122 304.53,-86 446.47,-86 446.47,-122"/>
<text text-anchor="middle" x="375.5" y="-99.8" font-family="Times,serif" font-size="14.00">ConsoleWriterModule</text>
</g>
<!-- ServerConsoleModule -->
<g id="node4" class="node">
<title>ServerConsoleModule</title>
<polygon fill="#8dd3c7" stroke="black" points="314.47,-187 311.47,-191 290.47,-191 287.47,-187 172.53,-187 172.53,-151 314.47,-151 314.47,-187"/>
<text text-anchor="middle" x="243.5" y="-164.8" font-family="Times,serif" font-size="14.00">ServerConsoleModule</text>
</g>
<!-- ConsoleWriterModule&#45;&gt;ServerConsoleModule -->
<g id="edge1" class="edge">
<title>ConsoleWriterModule&#45;&gt;ServerConsoleModule</title>
<path fill="none" stroke="black" d="M309.5,-122.11C309.5,-122.11 309.5,-140.99 309.5,-140.99"/>
<polygon fill="black" stroke="black" points="306,-140.99 309.5,-150.99 313,-140.99 306,-140.99"/>
</g>
<!-- FilesModule -->
<g id="node2" class="node">
<title>FilesModule</title>
<polygon fill="#8dd3c7" stroke="black" points="286.77,-122 283.77,-126 262.77,-126 259.77,-122 200.23,-122 200.23,-86 286.77,-86 286.77,-122"/>
<text text-anchor="middle" x="243.5" y="-99.8" font-family="Times,serif" font-size="14.00">FilesModule</text>
</g>
<!-- FilesModule&#45;&gt;ServerConsoleModule -->
<g id="edge2" class="edge">
<title>FilesModule&#45;&gt;ServerConsoleModule</title>
<path fill="none" stroke="black" d="M243.5,-122.11C243.5,-122.11 243.5,-140.99 243.5,-140.99"/>
<polygon fill="black" stroke="black" points="240,-140.99 243.5,-150.99 247,-140.99 240,-140.99"/>
</g>
<!-- ManagementModule -->
<g id="node3" class="node">
<title>ManagementModule</title>
<polygon fill="#8dd3c7" stroke="black" points="181.63,-122 178.63,-126 157.63,-126 154.63,-122 49.37,-122 49.37,-86 181.63,-86 181.63,-122"/>
<text text-anchor="middle" x="115.5" y="-99.8" font-family="Times,serif" font-size="14.00">ManagementModule</text>
</g>
<!-- ManagementModule&#45;&gt;ServerConsoleModule -->
<g id="edge3" class="edge">
<title>ManagementModule&#45;&gt;ServerConsoleModule</title>
<path fill="none" stroke="black" d="M177.17,-122.11C177.17,-122.11 177.17,-140.99 177.17,-140.99"/>
<polygon fill="black" stroke="black" points="173.67,-140.99 177.17,-150.99 180.67,-140.99 173.67,-140.99"/>
</g>
</g>
</svg>
