<?xml version="1.0" encoding="UTF-8" standalone="no"?>
<!DOCTYPE svg PUBLIC "-//W3C//DTD SVG 1.1//EN"
 "http://www.w3.org/Graphics/SVG/1.1/DTD/svg11.dtd">
<!-- Generated by graphviz version 2.47.0 (20210316.0004)
 -->
<!-- Title: dependencies Pages: 1 -->
<svg width="565pt" height="211pt"
 viewBox="0.00 0.00 565.00 211.00" xmlns="http://www.w3.org/2000/svg" xmlns:xlink="http://www.w3.org/1999/xlink">
<g id="graph0" class="graph" transform="scale(1 1) rotate(0) translate(4 207)">
<title>dependencies</title>
<polygon fill="white" stroke="transparent" points="-4,4 -4,-207 561,-207 561,4 -4,4"/>
<text text-anchor="start" x="257.51" y="-42.4" font-family="Times-12" font-weight="bold" font-size="14.00">Legend</text>
<polygon fill="#ffffb3" stroke="transparent" points="44.5,-10 44.5,-30 64.5,-30 64.5,-10 44.5,-10"/>
<text text-anchor="start" x="68.13" y="-15.4" font-family="Times-12" font-size="14.00"> &#160;Declarations</text>
<polygon fill="#8dd3c7" stroke="transparent" points="157.5,-10 157.5,-30 177.5,-30 177.5,-10 157.5,-10"/>
<text text-anchor="start" x="181.23" y="-15.4" font-family="Times-12" font-size="14.00"> &#160;Module</text>
<polygon fill="#80b1d3" stroke="transparent" points="243.5,-10 243.5,-30 263.5,-30 263.5,-10 243.5,-10"/>
<text text-anchor="start" x="267.28" y="-15.4" font-family="Times-12" font-size="14.00"> &#160;Bootstrap</text>
<polygon fill="#fdb462" stroke="transparent" points="340.5,-10 340.5,-30 360.5,-30 360.5,-10 340.5,-10"/>
<text text-anchor="start" x="364.17" y="-15.4" font-family="Times-12" font-size="14.00"> &#160;Providers</text>
<polygon fill="#fb8072" stroke="transparent" points="436.5,-10 436.5,-30 456.5,-30 456.5,-10 436.5,-10"/>
<text text-anchor="start" x="460.23" y="-15.4" font-family="Times-12" font-size="14.00"> &#160;Exports</text>
<g id="clust1" class="cluster">
<title>cluster_ServerConsoleModule</title>
<polygon fill="none" stroke="black" stroke-dasharray="1,5" points="8,-70 8,-195 549,-195 549,-70 8,-70"/>
</g>
<g id="clust3" class="cluster">
<title>cluster_ServerConsoleModule_imports</title>
<polygon fill="none" stroke="black" points="16,-78 16,-130 541,-130 541,-78 16,-78"/>
</g>
<!-- BoardModule -->
<g id="node1" class="node">
<title>BoardModule</title>
<polygon fill="#8dd3c7" stroke="black" points="532.76,-122 529.76,-126 508.76,-126 505.76,-122 439.24,-122 439.24,-86 532.76,-86 532.76,-122"/>
<text text-anchor="middle" x="486" y="-99.8" font-family="Times,serif" font-size="14.00">BoardModule</text>
</g>
<!-- ServerConsoleModule -->
<g id="node5" class="node">
<title>ServerConsoleModule</title>
<polygon fill="#8dd3c7" stroke="black" points="354.97,-187 351.97,-191 330.97,-191 327.97,-187 213.03,-187 213.03,-151 354.97,-151 354.97,-187"/>
<text text-anchor="middle" x="284" y="-164.8" font-family="Times,serif" font-size="14.00">ServerConsoleModule</text>
</g>
<!-- BoardModule&#45;&gt;ServerConsoleModule -->
<g id="edge1" class="edge">
<title>BoardModule&#45;&gt;ServerConsoleModule</title>
<path fill="none" stroke="black" d="M486,-122.11C486,-141.34 486,-169 486,-169 486,-169 365.22,-169 365.22,-169"/>
<polygon fill="black" stroke="black" points="365.22,-165.5 355.22,-169 365.22,-172.5 365.22,-165.5"/>
</g>
<!-- ConsoleWriterModule -->
<g id="node2" class="node">
<title>ConsoleWriterModule</title>
<polygon fill="#8dd3c7" stroke="black" points="420.97,-122 417.97,-126 396.97,-126 393.97,-122 279.03,-122 279.03,-86 420.97,-86 420.97,-122"/>
<text text-anchor="middle" x="350" y="-99.8" font-family="Times,serif" font-size="14.00">ConsoleWriterModule</text>
</g>
<!-- ConsoleWriterModule&#45;&gt;ServerConsoleModule -->
<g id="edge2" class="edge">
<title>ConsoleWriterModule&#45;&gt;ServerConsoleModule</title>
<path fill="none" stroke="black" d="M317,-122.11C317,-122.11 317,-140.99 317,-140.99"/>
<polygon fill="black" stroke="black" points="313.5,-140.99 317,-150.99 320.5,-140.99 313.5,-140.99"/>
</g>
<!-- FilesModule -->
<g id="node3" class="node">
<title>FilesModule</title>
<polygon fill="#8dd3c7" stroke="black" points="261.27,-122 258.27,-126 237.27,-126 234.27,-122 174.73,-122 174.73,-86 261.27,-86 261.27,-122"/>
<text text-anchor="middle" x="218" y="-99.8" font-family="Times,serif" font-size="14.00">FilesModule</text>
</g>
<!-- FilesModule&#45;&gt;ServerConsoleModule -->
<g id="edge3" class="edge">
<title>FilesModule&#45;&gt;ServerConsoleModule</title>
<path fill="none" stroke="black" d="M237.2,-122.11C237.2,-122.11 237.2,-140.99 237.2,-140.99"/>
<polygon fill="black" stroke="black" points="233.7,-140.99 237.2,-150.99 240.7,-140.99 233.7,-140.99"/>
</g>
<!-- ManagementModule -->
<g id="node4" class="node">
<title>ManagementModule</title>
<polygon fill="#8dd3c7" stroke="black" points="156.13,-122 153.13,-126 132.13,-126 129.13,-122 23.87,-122 23.87,-86 156.13,-86 156.13,-122"/>
<text text-anchor="middle" x="90" y="-99.8" font-family="Times,serif" font-size="14.00">ManagementModule</text>
</g>
<!-- ManagementModule&#45;&gt;ServerConsoleModule -->
<g id="edge4" class="edge">
<title>ManagementModule&#45;&gt;ServerConsoleModule</title>
<path fill="none" stroke="black" d="M90,-122.11C90,-141.34 90,-169 90,-169 90,-169 202.86,-169 202.86,-169"/>
<polygon fill="black" stroke="black" points="202.86,-172.5 212.86,-169 202.86,-165.5 202.86,-172.5"/>
</g>
</g>
</svg>
