<?xml version="1.0" encoding="UTF-8" standalone="no"?>
<!DOCTYPE svg PUBLIC "-//W3C//DTD SVG 1.1//EN"
 "http://www.w3.org/Graphics/SVG/1.1/DTD/svg11.dtd">
<!-- Generated by graphviz version 2.47.0 (20210316.0004)
 -->
<!-- Title: dependencies Pages: 1 -->
<svg width="504pt" height="211pt"
 viewBox="0.00 0.00 504.00 211.00" xmlns="http://www.w3.org/2000/svg" xmlns:xlink="http://www.w3.org/1999/xlink">
<g id="graph0" class="graph" transform="scale(1 1) rotate(0) translate(4 207)">
<title>dependencies</title>
<polygon fill="white" stroke="transparent" points="-4,4 -4,-207 500,-207 500,4 -4,4"/>
<text text-anchor="start" x="227.01" y="-42.4" font-family="Times-12" font-weight="bold" font-size="14.00">Legend</text>
<polygon fill="#ffffb3" stroke="transparent" points="14,-10 14,-30 34,-30 34,-10 14,-10"/>
<text text-anchor="start" x="37.63" y="-15.4" font-family="Times-12" font-size="14.00"> &#160;Declarations</text>
<polygon fill="#8dd3c7" stroke="transparent" points="127,-10 127,-30 147,-30 147,-10 127,-10"/>
<text text-anchor="start" x="150.73" y="-15.4" font-family="Times-12" font-size="14.00"> &#160;Module</text>
<polygon fill="#80b1d3" stroke="transparent" points="213,-10 213,-30 233,-30 233,-10 213,-10"/>
<text text-anchor="start" x="236.78" y="-15.4" font-family="Times-12" font-size="14.00"> &#160;Bootstrap</text>
<polygon fill="#fdb462" stroke="transparent" points="310,-10 310,-30 330,-30 330,-10 310,-10"/>
<text text-anchor="start" x="333.67" y="-15.4" font-family="Times-12" font-size="14.00"> &#160;Providers</text>
<polygon fill="#fb8072" stroke="transparent" points="406,-10 406,-30 426,-30 426,-10 406,-10"/>
<text text-anchor="start" x="429.73" y="-15.4" font-family="Times-12" font-size="14.00"> &#160;Exports</text>
<g id="clust1" class="cluster">
<title>cluster_AuthorizationReferenceApiModule</title>
<polygon fill="none" stroke="black" stroke-dasharray="1,5" points="8,-70 8,-195 488,-195 488,-70 8,-70"/>
</g>
<g id="clust3" class="cluster">
<title>cluster_AuthorizationReferenceApiModule_imports</title>
<polygon fill="none" stroke="black" points="270,-78 270,-130 480,-130 480,-78 270,-78"/>
</g>
<g id="clust6" class="cluster">
<title>cluster_AuthorizationReferenceApiModule_providers</title>
<polygon fill="none" stroke="black" points="16,-78 16,-130 262,-130 262,-78 16,-78"/>
</g>
<!-- AuthorizationReferenceModule -->
<g id="node1" class="node">
<title>AuthorizationReferenceModule</title>
<polygon fill="#8dd3c7" stroke="black" points="472.04,-122 469.04,-126 448.04,-126 445.04,-122 277.96,-122 277.96,-86 472.04,-86 472.04,-122"/>
<text text-anchor="middle" x="375" y="-99.8" font-family="Times,serif" font-size="14.00">AuthorizationReferenceModule</text>
</g>
<!-- AuthorizationReferenceApiModule -->
<g id="node2" class="node">
<title>AuthorizationReferenceApiModule</title>
<polygon fill="#8dd3c7" stroke="black" points="362.54,-187 359.54,-191 338.54,-191 335.54,-187 147.46,-187 147.46,-151 362.54,-151 362.54,-187"/>
<text text-anchor="middle" x="255" y="-164.8" font-family="Times,serif" font-size="14.00">AuthorizationReferenceApiModule</text>
</g>
<!-- AuthorizationReferenceModule&#45;&gt;AuthorizationReferenceApiModule -->
<g id="edge1" class="edge">
<title>AuthorizationReferenceModule&#45;&gt;AuthorizationReferenceApiModule</title>
<path fill="none" stroke="black" d="M320.25,-122.11C320.25,-122.11 320.25,-140.99 320.25,-140.99"/>
<polygon fill="black" stroke="black" points="316.75,-140.99 320.25,-150.99 323.75,-140.99 316.75,-140.99"/>
</g>
<!-- AuthorizationReferenceUc -->
<g id="node3" class="node">
<title>AuthorizationReferenceUc</title>
<ellipse fill="#fdb462" stroke="black" cx="139" cy="-104" rx="115.13" ry="18"/>
<text text-anchor="middle" x="139" y="-99.8" font-family="Times,serif" font-size="14.00">AuthorizationReferenceUc</text>
</g>
<!-- AuthorizationReferenceUc&#45;&gt;AuthorizationReferenceApiModule -->
<g id="edge2" class="edge">
<title>AuthorizationReferenceUc&#45;&gt;AuthorizationReferenceApiModule</title>
<path fill="none" stroke="black" d="M200.77,-119.4C200.77,-119.4 200.77,-140.94 200.77,-140.94"/>
<polygon fill="black" stroke="black" points="197.27,-140.94 200.77,-150.94 204.27,-140.94 197.27,-140.94"/>
</g>
</g>
</svg>
