<?xml version="1.0" encoding="UTF-8" standalone="no"?>
<!DOCTYPE svg PUBLIC "-//W3C//DTD SVG 1.1//EN"
 "http://www.w3.org/Graphics/SVG/1.1/DTD/svg11.dtd">
<!-- Generated by graphviz version 2.47.0 (20210316.0004)
 -->
<!-- Title: dependencies Pages: 1 -->
<svg width="2051pt" height="284pt"
 viewBox="0.00 0.00 2051.00 284.00" xmlns="http://www.w3.org/2000/svg" xmlns:xlink="http://www.w3.org/1999/xlink">
<g id="graph0" class="graph" transform="scale(1 1) rotate(0) translate(4 280)">
<title>dependencies</title>
<polygon fill="white" stroke="transparent" points="-4,4 -4,-280 2047,-280 2047,4 -4,4"/>
<text text-anchor="start" x="1000.51" y="-42.4" font-family="Times-12" font-weight="bold" font-size="14.00">Legend</text>
<polygon fill="#ffffb3" stroke="transparent" points="787.5,-10 787.5,-30 807.5,-30 807.5,-10 787.5,-10"/>
<text text-anchor="start" x="811.13" y="-15.4" font-family="Times-12" font-size="14.00"> &#160;Declarations</text>
<polygon fill="#8dd3c7" stroke="transparent" points="900.5,-10 900.5,-30 920.5,-30 920.5,-10 900.5,-10"/>
<text text-anchor="start" x="924.23" y="-15.4" font-family="Times-12" font-size="14.00"> &#160;Module</text>
<polygon fill="#80b1d3" stroke="transparent" points="986.5,-10 986.5,-30 1006.5,-30 1006.5,-10 986.5,-10"/>
<text text-anchor="start" x="1010.28" y="-15.4" font-family="Times-12" font-size="14.00"> &#160;Bootstrap</text>
<polygon fill="#fdb462" stroke="transparent" points="1083.5,-10 1083.5,-30 1103.5,-30 1103.5,-10 1083.5,-10"/>
<text text-anchor="start" x="1107.17" y="-15.4" font-family="Times-12" font-size="14.00"> &#160;Providers</text>
<polygon fill="#fb8072" stroke="transparent" points="1179.5,-10 1179.5,-30 1199.5,-30 1199.5,-10 1179.5,-10"/>
<text text-anchor="start" x="1203.23" y="-15.4" font-family="Times-12" font-size="14.00"> &#160;Exports</text>
<g id="clust1" class="cluster">
<title>cluster_LegacySchoolModule</title>
<polygon fill="none" stroke="black" stroke-dasharray="1,5" points="8,-70 8,-268 2035,-268 2035,-70 8,-70"/>
</g>
<g id="clust4" class="cluster">
<title>cluster_LegacySchoolModule_exports</title>
<polygon fill="none" stroke="black" points="661,-208 661,-260 1319,-260 1319,-208 661,-208"/>
</g>
<g id="clust6" class="cluster">
<title>cluster_LegacySchoolModule_providers</title>
<polygon fill="none" stroke="black" points="140,-78 140,-130 2027,-130 2027,-78 140,-78"/>
</g>
<g id="clust3" class="cluster">
<title>cluster_LegacySchoolModule_imports</title>
<polygon fill="none" stroke="black" points="16,-78 16,-130 132,-130 132,-78 16,-78"/>
</g>
<!-- LoggerModule -->
<g id="node1" class="node">
<title>LoggerModule</title>
<polygon fill="#8dd3c7" stroke="black" points="123.98,-122 120.98,-126 99.98,-126 96.98,-122 24.02,-122 24.02,-86 123.98,-86 123.98,-122"/>
<text text-anchor="middle" x="74" y="-99.8" font-family="Times,serif" font-size="14.00">LoggerModule</text>
</g>
<!-- LegacySchoolModule -->
<g id="node2" class="node">
<title>LegacySchoolModule</title>
<polygon fill="#8dd3c7" stroke="black" points="1068.63,-187 1065.63,-191 1044.63,-191 1041.63,-187 929.37,-187 929.37,-151 1068.63,-151 1068.63,-187"/>
<text text-anchor="middle" x="999" y="-164.8" font-family="Times,serif" font-size="14.00">LegacySchoolModule</text>
</g>
<!-- LoggerModule&#45;&gt;LegacySchoolModule -->
<g id="edge1" class="edge">
<title>LoggerModule&#45;&gt;LegacySchoolModule</title>
<path fill="none" stroke="black" d="M74,-122.28C74,-143.32 74,-175 74,-175 74,-175 919.1,-175 919.1,-175"/>
<polygon fill="black" stroke="black" points="919.1,-178.5 929.1,-175 919.1,-171.5 919.1,-178.5"/>
</g>
<!-- FederalStateService  -->
<g id="node3" class="node">
<title>FederalStateService </title>
<polygon fill="#fb8072" stroke="black" points="1310.95,-252 1179.05,-252 1179.05,-216 1310.95,-216 1310.95,-252"/>
<text text-anchor="middle" x="1245" y="-229.8" font-family="Times,serif" font-size="14.00">FederalStateService </text>
</g>
<!-- LegacySchoolModule&#45;&gt;FederalStateService  -->
<g id="edge2" class="edge">
<title>LegacySchoolModule&#45;&gt;FederalStateService </title>
<path fill="none" stroke="black" stroke-dasharray="5,2" d="M1068.86,-181C1131.39,-181 1213.27,-181 1213.27,-181 1213.27,-181 1213.27,-205.76 1213.27,-205.76"/>
<polygon fill="black" stroke="black" points="1209.77,-205.76 1213.27,-215.76 1216.77,-205.76 1209.77,-205.76"/>
</g>
<!-- LegacySchoolService  -->
<g id="node4" class="node">
<title>LegacySchoolService </title>
<polygon fill="#fb8072" stroke="black" points="1160.56,-252 1019.44,-252 1019.44,-216 1160.56,-216 1160.56,-252"/>
<text text-anchor="middle" x="1090" y="-229.8" font-family="Times,serif" font-size="14.00">LegacySchoolService </text>
</g>
<!-- LegacySchoolModule&#45;&gt;LegacySchoolService  -->
<g id="edge3" class="edge">
<title>LegacySchoolModule&#45;&gt;LegacySchoolService </title>
<path fill="none" stroke="black" stroke-dasharray="5,2" d="M1044.02,-187.11C1044.02,-187.11 1044.02,-205.99 1044.02,-205.99"/>
<polygon fill="black" stroke="black" points="1040.52,-205.99 1044.02,-215.99 1047.52,-205.99 1040.52,-205.99"/>
</g>
<!-- SchoolSystemOptionsService  -->
<g id="node5" class="node">
<title>SchoolSystemOptionsService </title>
<polygon fill="#fb8072" stroke="black" points="1000.92,-252 815.08,-252 815.08,-216 1000.92,-216 1000.92,-252"/>
<text text-anchor="middle" x="908" y="-229.8" font-family="Times,serif" font-size="14.00">SchoolSystemOptionsService </text>
</g>
<!-- LegacySchoolModule&#45;&gt;SchoolSystemOptionsService  -->
<g id="edge4" class="edge">
<title>LegacySchoolModule&#45;&gt;SchoolSystemOptionsService </title>
<path fill="none" stroke="black" stroke-dasharray="5,2" d="M965.07,-187.11C965.07,-187.11 965.07,-205.99 965.07,-205.99"/>
<polygon fill="black" stroke="black" points="961.57,-205.99 965.07,-215.99 968.57,-205.99 961.57,-205.99"/>
</g>
<!-- SchoolYearService  -->
<g id="node6" class="node">
<title>SchoolYearService </title>
<polygon fill="#fb8072" stroke="black" points="796.56,-252 669.44,-252 669.44,-216 796.56,-216 796.56,-252"/>
<text text-anchor="middle" x="733" y="-229.8" font-family="Times,serif" font-size="14.00">SchoolYearService </text>
</g>
<!-- LegacySchoolModule&#45;&gt;SchoolYearService  -->
<g id="edge5" class="edge">
<title>LegacySchoolModule&#45;&gt;SchoolYearService </title>
<path fill="none" stroke="black" stroke-dasharray="5,2" d="M929.35,-181C861.97,-181 769.98,-181 769.98,-181 769.98,-181 769.98,-205.76 769.98,-205.76"/>
<polygon fill="black" stroke="black" points="766.48,-205.76 769.98,-215.76 773.48,-205.76 766.48,-205.76"/>
</g>
<!-- FederalStateRepo -->
<g id="node7" class="node">
<title>FederalStateRepo</title>
<ellipse fill="#fdb462" stroke="black" cx="1939" cy="-104" rx="79.87" ry="18"/>
<text text-anchor="middle" x="1939" y="-99.8" font-family="Times,serif" font-size="14.00">FederalStateRepo</text>
</g>
<!-- FederalStateRepo&#45;&gt;LegacySchoolModule -->
<g id="edge6" class="edge">
<title>FederalStateRepo&#45;&gt;LegacySchoolModule</title>
<path fill="none" stroke="black" d="M1939,-122.28C1939,-143.32 1939,-175 1939,-175 1939,-175 1078.88,-175 1078.88,-175"/>
<polygon fill="black" stroke="black" points="1078.88,-171.5 1068.88,-175 1078.88,-178.5 1078.88,-171.5"/>
</g>
<!-- FederalStateService -->
<g id="node8" class="node">
<title>FederalStateService</title>
<ellipse fill="#fdb462" stroke="black" cx="1753" cy="-104" rx="88.01" ry="18"/>
<text text-anchor="middle" x="1753" y="-99.8" font-family="Times,serif" font-size="14.00">FederalStateService</text>
</g>
<!-- FederalStateService&#45;&gt;LegacySchoolModule -->
<g id="edge7" class="edge">
<title>FederalStateService&#45;&gt;LegacySchoolModule</title>
<path fill="none" stroke="black" d="M1753,-122.11C1753,-141.34 1753,-169 1753,-169 1753,-169 1078.92,-169 1078.92,-169"/>
<polygon fill="black" stroke="black" points="1078.92,-165.5 1068.92,-169 1078.92,-172.5 1078.92,-165.5"/>
</g>
<!-- LegacySchoolRepo -->
<g id="node9" class="node">
<title>LegacySchoolRepo</title>
<ellipse fill="#fdb462" stroke="black" cx="1560" cy="-104" rx="86.82" ry="18"/>
<text text-anchor="middle" x="1560" y="-99.8" font-family="Times,serif" font-size="14.00">LegacySchoolRepo</text>
</g>
<!-- LegacySchoolRepo&#45;&gt;LegacySchoolModule -->
<g id="edge8" class="edge">
<title>LegacySchoolRepo&#45;&gt;LegacySchoolModule</title>
<path fill="none" stroke="black" d="M1560,-122.02C1560,-139.37 1560,-163 1560,-163 1560,-163 1078.92,-163 1078.92,-163"/>
<polygon fill="black" stroke="black" points="1078.92,-159.5 1068.92,-163 1078.92,-166.5 1078.92,-159.5"/>
</g>
<!-- LegacySchoolService -->
<g id="node10" class="node">
<title>LegacySchoolService</title>
<ellipse fill="#fdb462" stroke="black" cx="1360" cy="-104" rx="95.47" ry="18"/>
<text text-anchor="middle" x="1360" y="-99.8" font-family="Times,serif" font-size="14.00">LegacySchoolService</text>
</g>
<!-- LegacySchoolService&#45;&gt;LegacySchoolModule -->
<g id="edge9" class="edge">
<title>LegacySchoolService&#45;&gt;LegacySchoolModule</title>
<path fill="none" stroke="black" d="M1287.75,-115.76C1287.75,-131.38 1287.75,-157 1287.75,-157 1287.75,-157 1078.9,-157 1078.9,-157"/>
<polygon fill="black" stroke="black" points="1078.9,-153.5 1068.9,-157 1078.9,-160.5 1078.9,-153.5"/>
</g>
<!-- SchoolSystemOptionsRepo -->
<g id="node11" class="node">
<title>SchoolSystemOptionsRepo</title>
<ellipse fill="#fdb462" stroke="black" cx="1130" cy="-104" rx="117.02" ry="18"/>
<text text-anchor="middle" x="1130" y="-99.8" font-family="Times,serif" font-size="14.00">SchoolSystemOptionsRepo</text>
</g>
<!-- SchoolSystemOptionsRepo&#45;&gt;LegacySchoolModule -->
<g id="edge10" class="edge">
<title>SchoolSystemOptionsRepo&#45;&gt;LegacySchoolModule</title>
<path fill="none" stroke="black" d="M1040.78,-115.92C1040.78,-115.92 1040.78,-140.77 1040.78,-140.77"/>
<polygon fill="black" stroke="black" points="1037.28,-140.77 1040.78,-150.77 1044.28,-140.77 1037.28,-140.77"/>
</g>
<!-- SchoolSystemOptionsService -->
<g id="node12" class="node">
<title>SchoolSystemOptionsService</title>
<ellipse fill="#fdb462" stroke="black" cx="869" cy="-104" rx="125.66" ry="18"/>
<text text-anchor="middle" x="869" y="-99.8" font-family="Times,serif" font-size="14.00">SchoolSystemOptionsService</text>
</g>
<!-- SchoolSystemOptionsService&#45;&gt;LegacySchoolModule -->
<g id="edge11" class="edge">
<title>SchoolSystemOptionsService&#45;&gt;LegacySchoolModule</title>
<path fill="none" stroke="black" d="M962.01,-116.23C962.01,-116.23 962.01,-140.68 962.01,-140.68"/>
<polygon fill="black" stroke="black" points="958.51,-140.68 962.01,-150.68 965.51,-140.68 958.51,-140.68"/>
</g>
<!-- SchoolValidationService -->
<g id="node13" class="node">
<title>SchoolValidationService</title>
<ellipse fill="#fdb462" stroke="black" cx="618" cy="-104" rx="107.66" ry="18"/>
<text text-anchor="middle" x="618" y="-99.8" font-family="Times,serif" font-size="14.00">SchoolValidationService</text>
</g>
<!-- SchoolValidationService&#45;&gt;LegacySchoolModule -->
<g id="edge12" class="edge">
<title>SchoolValidationService&#45;&gt;LegacySchoolModule</title>
<path fill="none" stroke="black" d="M697.4,-116.29C697.4,-131.95 697.4,-157 697.4,-157 697.4,-157 919.05,-157 919.05,-157"/>
<polygon fill="black" stroke="black" points="919.05,-160.5 929.05,-157 919.05,-153.5 919.05,-160.5"/>
</g>
<!-- SchoolYearRepo -->
<g id="node14" class="node">
<title>SchoolYearRepo</title>
<ellipse fill="#fdb462" stroke="black" cx="415" cy="-104" rx="77.01" ry="18"/>
<text text-anchor="middle" x="415" y="-99.8" font-family="Times,serif" font-size="14.00">SchoolYearRepo</text>
</g>
<!-- SchoolYearRepo&#45;&gt;LegacySchoolModule -->
<g id="edge13" class="edge">
<title>SchoolYearRepo&#45;&gt;LegacySchoolModule</title>
<path fill="none" stroke="black" d="M415,-122.02C415,-139.37 415,-163 415,-163 415,-163 919.14,-163 919.14,-163"/>
<polygon fill="black" stroke="black" points="919.14,-166.5 929.14,-163 919.14,-159.5 919.14,-166.5"/>
</g>
<!-- SchoolYearService -->
<g id="node15" class="node">
<title>SchoolYearService</title>
<ellipse fill="#fdb462" stroke="black" cx="234" cy="-104" rx="85.65" ry="18"/>
<text text-anchor="middle" x="234" y="-99.8" font-family="Times,serif" font-size="14.00">SchoolYearService</text>
</g>
<!-- SchoolYearService&#45;&gt;LegacySchoolModule -->
<g id="edge14" class="edge">
<title>SchoolYearService&#45;&gt;LegacySchoolModule</title>
<path fill="none" stroke="black" d="M234,-122.11C234,-141.34 234,-169 234,-169 234,-169 919.08,-169 919.08,-169"/>
<polygon fill="black" stroke="black" points="919.08,-172.5 929.08,-169 919.08,-165.5 919.08,-172.5"/>
</g>
</g>
</svg>
