<?xml version="1.0" encoding="UTF-8" standalone="no"?>
<!DOCTYPE svg PUBLIC "-//W3C//DTD SVG 1.1//EN"
 "http://www.w3.org/Graphics/SVG/1.1/DTD/svg11.dtd">
<!-- Generated by graphviz version 2.47.0 (20210316.0004)
 -->
<!-- Title: dependencies Pages: 1 -->
<svg width="2892pt" height="284pt"
 viewBox="0.00 0.00 2892.00 284.00" xmlns="http://www.w3.org/2000/svg" xmlns:xlink="http://www.w3.org/1999/xlink">
<g id="graph0" class="graph" transform="scale(1 1) rotate(0) translate(4 280)">
<title>dependencies</title>
<polygon fill="white" stroke="transparent" points="-4,4 -4,-280 2888,-280 2888,4 -4,4"/>
<text text-anchor="start" x="1421.01" y="-42.4" font-family="Times-12" font-weight="bold" font-size="14.00">Legend</text>
<polygon fill="#ffffb3" stroke="transparent" points="1208,-10 1208,-30 1228,-30 1228,-10 1208,-10"/>
<text text-anchor="start" x="1231.63" y="-15.4" font-family="Times-12" font-size="14.00"> &#160;Declarations</text>
<polygon fill="#8dd3c7" stroke="transparent" points="1321,-10 1321,-30 1341,-30 1341,-10 1321,-10"/>
<text text-anchor="start" x="1344.73" y="-15.4" font-family="Times-12" font-size="14.00"> &#160;Module</text>
<polygon fill="#80b1d3" stroke="transparent" points="1407,-10 1407,-30 1427,-30 1427,-10 1407,-10"/>
<text text-anchor="start" x="1430.78" y="-15.4" font-family="Times-12" font-size="14.00"> &#160;Bootstrap</text>
<polygon fill="#fdb462" stroke="transparent" points="1504,-10 1504,-30 1524,-30 1524,-10 1504,-10"/>
<text text-anchor="start" x="1527.67" y="-15.4" font-family="Times-12" font-size="14.00"> &#160;Providers</text>
<polygon fill="#fb8072" stroke="transparent" points="1600,-10 1600,-30 1620,-30 1620,-10 1600,-10"/>
<text text-anchor="start" x="1623.73" y="-15.4" font-family="Times-12" font-size="14.00"> &#160;Exports</text>
<g id="clust1" class="cluster">
<title>cluster_LegacySchoolModule</title>
<polygon fill="none" stroke="black" stroke-dasharray="1,5" points="8,-70 8,-268 2876,-268 2876,-70 8,-70"/>
</g>
<g id="clust3" class="cluster">
<title>cluster_LegacySchoolModule_imports</title>
<polygon fill="none" stroke="black" points="2638,-78 2638,-130 2868,-130 2868,-78 2638,-78"/>
</g>
<g id="clust6" class="cluster">
<title>cluster_LegacySchoolModule_providers</title>
<polygon fill="none" stroke="black" points="16,-78 16,-130 2630,-130 2630,-78 16,-78"/>
</g>
<g id="clust4" class="cluster">
<title>cluster_LegacySchoolModule_exports</title>
<polygon fill="none" stroke="black" points="1235,-208 1235,-260 2129,-260 2129,-208 1235,-208"/>
</g>
<!-- GroupModule -->
<g id="node1" class="node">
<title>GroupModule</title>
<polygon fill="#8dd3c7" stroke="black" points="2859.82,-122 2856.82,-126 2835.82,-126 2832.82,-122 2764.18,-122 2764.18,-86 2859.82,-86 2859.82,-122"/>
<text text-anchor="middle" x="2812" y="-99.8" font-family="Times,serif" font-size="14.00">GroupModule</text>
</g>
<!-- LegacySchoolModule -->
<g id="node3" class="node">
<title>LegacySchoolModule</title>
<polygon fill="#8dd3c7" stroke="black" points="1771.63,-187 1768.63,-191 1747.63,-191 1744.63,-187 1632.37,-187 1632.37,-151 1771.63,-151 1771.63,-187"/>
<text text-anchor="middle" x="1702" y="-164.8" font-family="Times,serif" font-size="14.00">LegacySchoolModule</text>
</g>
<!-- GroupModule&#45;&gt;LegacySchoolModule -->
<g id="edge1" class="edge">
<title>GroupModule&#45;&gt;LegacySchoolModule</title>
<path fill="none" stroke="black" d="M2812,-122.28C2812,-143.32 2812,-175 2812,-175 2812,-175 1781.86,-175 1781.86,-175"/>
<polygon fill="black" stroke="black" points="1781.86,-171.5 1771.86,-175 1781.86,-178.5 1781.86,-171.5"/>
</g>
<!-- LoggerModule -->
<g id="node2" class="node">
<title>LoggerModule</title>
<polygon fill="#8dd3c7" stroke="black" points="2745.98,-122 2742.98,-126 2721.98,-126 2718.98,-122 2646.02,-122 2646.02,-86 2745.98,-86 2745.98,-122"/>
<text text-anchor="middle" x="2696" y="-99.8" font-family="Times,serif" font-size="14.00">LoggerModule</text>
</g>
<!-- LoggerModule&#45;&gt;LegacySchoolModule -->
<g id="edge2" class="edge">
<title>LoggerModule&#45;&gt;LegacySchoolModule</title>
<path fill="none" stroke="black" d="M2696,-122.31C2696,-142.15 2696,-171 2696,-171 2696,-171 1781.9,-171 1781.9,-171"/>
<polygon fill="black" stroke="black" points="1781.9,-167.5 1771.9,-171 1781.9,-174.5 1781.9,-167.5"/>
</g>
<!-- FederalStateService  -->
<g id="node4" class="node">
<title>FederalStateService </title>
<polygon fill="#fb8072" stroke="black" points="2120.95,-252 1989.05,-252 1989.05,-216 2120.95,-216 2120.95,-252"/>
<text text-anchor="middle" x="2055" y="-229.8" font-family="Times,serif" font-size="14.00">FederalStateService </text>
</g>
<!-- LegacySchoolModule&#45;&gt;FederalStateService  -->
<g id="edge3" class="edge">
<title>LegacySchoolModule&#45;&gt;FederalStateService </title>
<path fill="none" stroke="black" stroke-dasharray="5,2" d="M1771.82,-179C1866.45,-179 2023.75,-179 2023.75,-179 2023.75,-179 2023.75,-205.99 2023.75,-205.99"/>
<polygon fill="black" stroke="black" points="2020.25,-205.99 2023.75,-215.99 2027.25,-205.99 2020.25,-205.99"/>
</g>
<!-- LegacySchoolService  -->
<g id="node5" class="node">
<title>LegacySchoolService </title>
<polygon fill="#fb8072" stroke="black" points="1970.56,-252 1829.44,-252 1829.44,-216 1970.56,-216 1970.56,-252"/>
<text text-anchor="middle" x="1900" y="-229.8" font-family="Times,serif" font-size="14.00">LegacySchoolService </text>
</g>
<!-- LegacySchoolModule&#45;&gt;LegacySchoolService  -->
<g id="edge4" class="edge">
<title>LegacySchoolModule&#45;&gt;LegacySchoolService </title>
<path fill="none" stroke="black" stroke-dasharray="5,2" d="M1771.97,-183C1805.94,-183 1839.52,-183 1839.52,-183 1839.52,-183 1839.52,-205.88 1839.52,-205.88"/>
<polygon fill="black" stroke="black" points="1836.02,-205.88 1839.52,-215.88 1843.02,-205.88 1836.02,-205.88"/>
</g>
<!-- ProvisioningOptionsUpdateService  -->
<g id="node6" class="node">
<title>ProvisioningOptionsUpdateService </title>
<polygon fill="#fb8072" stroke="black" points="1810.8,-252 1593.2,-252 1593.2,-216 1810.8,-216 1810.8,-252"/>
<text text-anchor="middle" x="1702" y="-229.8" font-family="Times,serif" font-size="14.00">ProvisioningOptionsUpdateService </text>
</g>
<!-- LegacySchoolModule&#45;&gt;ProvisioningOptionsUpdateService  -->
<g id="edge5" class="edge">
<title>LegacySchoolModule&#45;&gt;ProvisioningOptionsUpdateService </title>
<path fill="none" stroke="black" stroke-dasharray="5,2" d="M1702,-187.11C1702,-187.11 1702,-205.99 1702,-205.99"/>
<polygon fill="black" stroke="black" points="1698.5,-205.99 1702,-215.99 1705.5,-205.99 1698.5,-205.99"/>
</g>
<!-- SchoolSystemOptionsService  -->
<g id="node7" class="node">
<title>SchoolSystemOptionsService </title>
<polygon fill="#fb8072" stroke="black" points="1574.92,-252 1389.08,-252 1389.08,-216 1574.92,-216 1574.92,-252"/>
<text text-anchor="middle" x="1482" y="-229.8" font-family="Times,serif" font-size="14.00">SchoolSystemOptionsService </text>
</g>
<!-- LegacySchoolModule&#45;&gt;SchoolSystemOptionsService  -->
<g id="edge6" class="edge">
<title>LegacySchoolModule&#45;&gt;SchoolSystemOptionsService </title>
<path fill="none" stroke="black" stroke-dasharray="5,2" d="M1632.08,-183C1598.13,-183 1564.57,-183 1564.57,-183 1564.57,-183 1564.57,-205.88 1564.57,-205.88"/>
<polygon fill="black" stroke="black" points="1561.07,-205.88 1564.57,-215.88 1568.07,-205.88 1561.07,-205.88"/>
</g>
<!-- SchoolYearService  -->
<g id="node8" class="node">
<title>SchoolYearService </title>
<polygon fill="#fb8072" stroke="black" points="1370.56,-252 1243.44,-252 1243.44,-216 1370.56,-216 1370.56,-252"/>
<text text-anchor="middle" x="1307" y="-229.8" font-family="Times,serif" font-size="14.00">SchoolYearService </text>
</g>
<!-- LegacySchoolModule&#45;&gt;SchoolYearService  -->
<g id="edge7" class="edge">
<title>LegacySchoolModule&#45;&gt;SchoolYearService </title>
<path fill="none" stroke="black" stroke-dasharray="5,2" d="M1632.35,-179C1526.23,-179 1336.26,-179 1336.26,-179 1336.26,-179 1336.26,-205.99 1336.26,-205.99"/>
<polygon fill="black" stroke="black" points="1332.76,-205.99 1336.26,-215.99 1339.76,-205.99 1332.76,-205.99"/>
</g>
<!-- FederalStateRepo -->
<g id="node9" class="node">
<title>FederalStateRepo</title>
<ellipse fill="#fdb462" stroke="black" cx="2542" cy="-104" rx="79.87" ry="18"/>
<text text-anchor="middle" x="2542" y="-99.8" font-family="Times,serif" font-size="14.00">FederalStateRepo</text>
</g>
<!-- FederalStateRepo&#45;&gt;LegacySchoolModule -->
<g id="edge8" class="edge">
<title>FederalStateRepo&#45;&gt;LegacySchoolModule</title>
<path fill="none" stroke="black" d="M2542,-122.22C2542,-140.83 2542,-167 2542,-167 2542,-167 1781.81,-167 1781.81,-167"/>
<polygon fill="black" stroke="black" points="1781.81,-163.5 1771.81,-167 1781.81,-170.5 1781.81,-163.5"/>
</g>
<!-- FederalStateService -->
<g id="node10" class="node">
<title>FederalStateService</title>
<ellipse fill="#fdb462" stroke="black" cx="2356" cy="-104" rx="88.01" ry="18"/>
<text text-anchor="middle" x="2356" y="-99.8" font-family="Times,serif" font-size="14.00">FederalStateService</text>
</g>
<!-- FederalStateService&#45;&gt;LegacySchoolModule -->
<g id="edge9" class="edge">
<title>FederalStateService&#45;&gt;LegacySchoolModule</title>
<path fill="none" stroke="black" d="M2356,-122.02C2356,-139.37 2356,-163 2356,-163 2356,-163 1781.68,-163 1781.68,-163"/>
<polygon fill="black" stroke="black" points="1781.68,-159.5 1771.68,-163 1781.68,-166.5 1781.68,-159.5"/>
</g>
<!-- LegacySchoolRepo -->
<g id="node11" class="node">
<title>LegacySchoolRepo</title>
<ellipse fill="#fdb462" stroke="black" cx="2163" cy="-104" rx="86.82" ry="18"/>
<text text-anchor="middle" x="2163" y="-99.8" font-family="Times,serif" font-size="14.00">LegacySchoolRepo</text>
</g>
<!-- LegacySchoolRepo&#45;&gt;LegacySchoolModule -->
<g id="edge10" class="edge">
<title>LegacySchoolRepo&#45;&gt;LegacySchoolModule</title>
<path fill="none" stroke="black" d="M2098.53,-116.21C2098.53,-132.41 2098.53,-159 2098.53,-159 2098.53,-159 1781.98,-159 1781.98,-159"/>
<polygon fill="black" stroke="black" points="1781.98,-155.5 1771.98,-159 1781.98,-162.5 1781.98,-155.5"/>
</g>
<!-- LegacySchoolService -->
<g id="node12" class="node">
<title>LegacySchoolService</title>
<ellipse fill="#fdb462" stroke="black" cx="1963" cy="-104" rx="95.47" ry="18"/>
<text text-anchor="middle" x="1963" y="-99.8" font-family="Times,serif" font-size="14.00">LegacySchoolService</text>
</g>
<!-- LegacySchoolService&#45;&gt;LegacySchoolModule -->
<g id="edge11" class="edge">
<title>LegacySchoolService&#45;&gt;LegacySchoolModule</title>
<path fill="none" stroke="black" d="M1919.27,-120.14C1919.27,-135.08 1919.27,-155 1919.27,-155 1919.27,-155 1781.64,-155 1781.64,-155"/>
<polygon fill="black" stroke="black" points="1781.64,-151.5 1771.64,-155 1781.64,-158.5 1781.64,-151.5"/>
</g>
<!-- ProvisioningOptionsUpdateService -->
<g id="node13" class="node">
<title>ProvisioningOptionsUpdateService</title>
<ellipse fill="#fdb462" stroke="black" cx="1702" cy="-104" rx="147.64" ry="18"/>
<text text-anchor="middle" x="1702" y="-99.8" font-family="Times,serif" font-size="14.00">ProvisioningOptionsUpdateService</text>
</g>
<!-- ProvisioningOptionsUpdateService&#45;&gt;LegacySchoolModule -->
<g id="edge12" class="edge">
<title>ProvisioningOptionsUpdateService&#45;&gt;LegacySchoolModule</title>
<path fill="none" stroke="black" d="M1702,-122.11C1702,-122.11 1702,-140.99 1702,-140.99"/>
<polygon fill="black" stroke="black" points="1698.5,-140.99 1702,-150.99 1705.5,-140.99 1698.5,-140.99"/>
</g>
<!-- SchoolSystemOptionsRepo -->
<g id="node14" class="node">
<title>SchoolSystemOptionsRepo</title>
<ellipse fill="#fdb462" stroke="black" cx="1419" cy="-104" rx="117.02" ry="18"/>
<text text-anchor="middle" x="1419" y="-99.8" font-family="Times,serif" font-size="14.00">SchoolSystemOptionsRepo</text>
</g>
<!-- SchoolSystemOptionsRepo&#45;&gt;LegacySchoolModule -->
<g id="edge13" class="edge">
<title>SchoolSystemOptionsRepo&#45;&gt;LegacySchoolModule</title>
<path fill="none" stroke="black" d="M1462.65,-120.98C1462.65,-135.82 1462.65,-155 1462.65,-155 1462.65,-155 1622.13,-155 1622.13,-155"/>
<polygon fill="black" stroke="black" points="1622.13,-158.5 1632.13,-155 1622.13,-151.5 1622.13,-158.5"/>
</g>
<!-- SchoolSystemOptionsService -->
<g id="node15" class="node">
<title>SchoolSystemOptionsService</title>
<ellipse fill="#fdb462" stroke="black" cx="1158" cy="-104" rx="125.66" ry="18"/>
<text text-anchor="middle" x="1158" y="-99.8" font-family="Times,serif" font-size="14.00">SchoolSystemOptionsService</text>
</g>
<!-- SchoolSystemOptionsService&#45;&gt;LegacySchoolModule -->
<g id="edge14" class="edge">
<title>SchoolSystemOptionsService&#45;&gt;LegacySchoolModule</title>
<path fill="none" stroke="black" d="M1263.52,-113.83C1263.52,-129.65 1263.52,-159 1263.52,-159 1263.52,-159 1622.04,-159 1622.04,-159"/>
<polygon fill="black" stroke="black" points="1622.04,-162.5 1632.04,-159 1622.04,-155.5 1622.04,-162.5"/>
</g>
<!-- SchoolValidationService -->
<g id="node16" class="node">
<title>SchoolValidationService</title>
<ellipse fill="#fdb462" stroke="black" cx="907" cy="-104" rx="107.66" ry="18"/>
<text text-anchor="middle" x="907" y="-99.8" font-family="Times,serif" font-size="14.00">SchoolValidationService</text>
</g>
<!-- SchoolValidationService&#45;&gt;LegacySchoolModule -->
<g id="edge15" class="edge">
<title>SchoolValidationService&#45;&gt;LegacySchoolModule</title>
<path fill="none" stroke="black" d="M907,-122.02C907,-139.37 907,-163 907,-163 907,-163 1622.15,-163 1622.15,-163"/>
<polygon fill="black" stroke="black" points="1622.15,-166.5 1632.15,-163 1622.15,-159.5 1622.15,-166.5"/>
</g>
<!-- SchoolYearRepo -->
<g id="node17" class="node">
<title>SchoolYearRepo</title>
<ellipse fill="#fdb462" stroke="black" cx="704" cy="-104" rx="77.01" ry="18"/>
<text text-anchor="middle" x="704" y="-99.8" font-family="Times,serif" font-size="14.00">SchoolYearRepo</text>
</g>
<!-- SchoolYearRepo&#45;&gt;LegacySchoolModule -->
<g id="edge16" class="edge">
<title>SchoolYearRepo&#45;&gt;LegacySchoolModule</title>
<path fill="none" stroke="black" d="M704,-122.22C704,-140.83 704,-167 704,-167 704,-167 1622.22,-167 1622.22,-167"/>
<polygon fill="black" stroke="black" points="1622.22,-170.5 1632.22,-167 1622.22,-163.5 1622.22,-170.5"/>
</g>
<!-- SchoolYearService -->
<g id="node18" class="node">
<title>SchoolYearService</title>
<ellipse fill="#fdb462" stroke="black" cx="523" cy="-104" rx="85.65" ry="18"/>
<text text-anchor="middle" x="523" y="-99.8" font-family="Times,serif" font-size="14.00">SchoolYearService</text>
</g>
<!-- SchoolYearService&#45;&gt;LegacySchoolModule -->
<g id="edge17" class="edge">
<title>SchoolYearService&#45;&gt;LegacySchoolModule</title>
<path fill="none" stroke="black" d="M523,-122.31C523,-142.15 523,-171 523,-171 523,-171 1622.21,-171 1622.21,-171"/>
<polygon fill="black" stroke="black" points="1622.22,-174.5 1632.21,-171 1622.21,-167.5 1622.22,-174.5"/>
</g>
<!-- SchulconnexProvisioningOptionsUpdateService -->
<g id="node19" class="node">
<title>SchulconnexProvisioningOptionsUpdateService</title>
<ellipse fill="#fdb462" stroke="black" cx="222" cy="-104" rx="197.9" ry="18"/>
<text text-anchor="middle" x="222" y="-99.8" font-family="Times,serif" font-size="14.00">SchulconnexProvisioningOptionsUpdateService</text>
</g>
<!-- SchulconnexProvisioningOptionsUpdateService&#45;&gt;LegacySchoolModule -->
<g id="edge18" class="edge">
<title>SchulconnexProvisioningOptionsUpdateService&#45;&gt;LegacySchoolModule</title>
<path fill="none" stroke="black" d="M222,-122.28C222,-143.32 222,-175 222,-175 222,-175 1622.11,-175 1622.11,-175"/>
<polygon fill="black" stroke="black" points="1622.11,-178.5 1632.11,-175 1622.11,-171.5 1622.11,-178.5"/>
</g>
</g>
</svg>
