<?xml version="1.0" encoding="UTF-8" standalone="no"?>
<!DOCTYPE svg PUBLIC "-//W3C//DTD SVG 1.1//EN"
 "http://www.w3.org/Graphics/SVG/1.1/DTD/svg11.dtd">
<!-- Generated by graphviz version 2.47.0 (20210316.0004)
 -->
<!-- Title: dependencies Pages: 1 -->
<svg width="2778pt" height="284pt"
 viewBox="0.00 0.00 2778.00 284.00" xmlns="http://www.w3.org/2000/svg" xmlns:xlink="http://www.w3.org/1999/xlink">
<g id="graph0" class="graph" transform="scale(1 1) rotate(0) translate(4 280)">
<title>dependencies</title>
<polygon fill="white" stroke="transparent" points="-4,4 -4,-280 2774,-280 2774,4 -4,4"/>
<text text-anchor="start" x="1364.01" y="-42.4" font-family="Times-12" font-weight="bold" font-size="14.00">Legend</text>
<polygon fill="#ffffb3" stroke="transparent" points="1151,-10 1151,-30 1171,-30 1171,-10 1151,-10"/>
<text text-anchor="start" x="1174.63" y="-15.4" font-family="Times-12" font-size="14.00"> &#160;Declarations</text>
<polygon fill="#8dd3c7" stroke="transparent" points="1264,-10 1264,-30 1284,-30 1284,-10 1264,-10"/>
<text text-anchor="start" x="1287.73" y="-15.4" font-family="Times-12" font-size="14.00"> &#160;Module</text>
<polygon fill="#80b1d3" stroke="transparent" points="1350,-10 1350,-30 1370,-30 1370,-10 1350,-10"/>
<text text-anchor="start" x="1373.78" y="-15.4" font-family="Times-12" font-size="14.00"> &#160;Bootstrap</text>
<polygon fill="#fdb462" stroke="transparent" points="1447,-10 1447,-30 1467,-30 1467,-10 1447,-10"/>
<text text-anchor="start" x="1470.67" y="-15.4" font-family="Times-12" font-size="14.00"> &#160;Providers</text>
<polygon fill="#fb8072" stroke="transparent" points="1543,-10 1543,-30 1563,-30 1563,-10 1543,-10"/>
<text text-anchor="start" x="1566.73" y="-15.4" font-family="Times-12" font-size="14.00"> &#160;Exports</text>
<g id="clust1" class="cluster">
<title>cluster_LegacySchoolModule</title>
<polygon fill="none" stroke="black" stroke-dasharray="1,5" points="8,-70 8,-268 2762,-268 2762,-70 8,-70"/>
</g>
<g id="clust4" class="cluster">
<title>cluster_LegacySchoolModule_exports</title>
<polygon fill="none" stroke="black" points="1093,-208 1093,-260 1987,-260 1987,-208 1093,-208"/>
</g>
<g id="clust3" class="cluster">
<title>cluster_LegacySchoolModule_imports</title>
<polygon fill="none" stroke="black" points="2638,-78 2638,-130 2754,-130 2754,-78 2638,-78"/>
</g>
<g id="clust6" class="cluster">
<title>cluster_LegacySchoolModule_providers</title>
<polygon fill="none" stroke="black" points="16,-78 16,-130 2630,-130 2630,-78 16,-78"/>
</g>
<!-- LoggerModule -->
<g id="node1" class="node">
<title>LoggerModule</title>
<polygon fill="#8dd3c7" stroke="black" points="2745.98,-122 2742.98,-126 2721.98,-126 2718.98,-122 2646.02,-122 2646.02,-86 2745.98,-86 2745.98,-122"/>
<text text-anchor="middle" x="2696" y="-99.8" font-family="Times,serif" font-size="14.00">LoggerModule</text>
</g>
<!-- LegacySchoolModule -->
<g id="node2" class="node">
<title>LegacySchoolModule</title>
<polygon fill="#8dd3c7" stroke="black" points="1629.63,-187 1626.63,-191 1605.63,-191 1602.63,-187 1490.37,-187 1490.37,-151 1629.63,-151 1629.63,-187"/>
<text text-anchor="middle" x="1560" y="-164.8" font-family="Times,serif" font-size="14.00">LegacySchoolModule</text>
</g>
<!-- LoggerModule&#45;&gt;LegacySchoolModule -->
<g id="edge1" class="edge">
<title>LoggerModule&#45;&gt;LegacySchoolModule</title>
<path fill="none" stroke="black" d="M2696,-122.03C2696,-142.77 2696,-174 2696,-174 2696,-174 1639.78,-174 1639.78,-174"/>
<polygon fill="black" stroke="black" points="1639.78,-170.5 1629.78,-174 1639.78,-177.5 1639.78,-170.5"/>
</g>
<!-- FederalStateService  -->
<g id="node3" class="node">
<title>FederalStateService </title>
<polygon fill="#fb8072" stroke="black" points="1978.95,-252 1847.05,-252 1847.05,-216 1978.95,-216 1978.95,-252"/>
<text text-anchor="middle" x="1913" y="-229.8" font-family="Times,serif" font-size="14.00">FederalStateService </text>
</g>
<!-- LegacySchoolModule&#45;&gt;FederalStateService  -->
<g id="edge2" class="edge">
<title>LegacySchoolModule&#45;&gt;FederalStateService </title>
<path fill="none" stroke="black" stroke-dasharray="5,2" d="M1629.68,-178C1717.97,-178 1858.79,-178 1858.79,-178 1858.79,-178 1858.79,-205.97 1858.79,-205.97"/>
<polygon fill="black" stroke="black" points="1855.29,-205.97 1858.79,-215.97 1862.29,-205.97 1855.29,-205.97"/>
</g>
<!-- LegacySchoolService  -->
<g id="node4" class="node">
<title>LegacySchoolService </title>
<polygon fill="#fb8072" stroke="black" points="1828.56,-252 1687.44,-252 1687.44,-216 1828.56,-216 1828.56,-252"/>
<text text-anchor="middle" x="1758" y="-229.8" font-family="Times,serif" font-size="14.00">LegacySchoolService </text>
</g>
<!-- LegacySchoolModule&#45;&gt;LegacySchoolService  -->
<g id="edge3" class="edge">
<title>LegacySchoolModule&#45;&gt;LegacySchoolService </title>
<path fill="none" stroke="black" stroke-dasharray="5,2" d="M1629.81,-183C1686.81,-183 1758,-183 1758,-183 1758,-183 1758,-205.88 1758,-205.88"/>
<polygon fill="black" stroke="black" points="1754.5,-205.88 1758,-215.88 1761.5,-205.88 1754.5,-205.88"/>
</g>
<!-- ProvisioningOptionsUpdateService  -->
<g id="node5" class="node">
<title>ProvisioningOptionsUpdateService </title>
<polygon fill="#fb8072" stroke="black" points="1668.8,-252 1451.2,-252 1451.2,-216 1668.8,-216 1668.8,-252"/>
<text text-anchor="middle" x="1560" y="-229.8" font-family="Times,serif" font-size="14.00">ProvisioningOptionsUpdateService </text>
</g>
<!-- LegacySchoolModule&#45;&gt;ProvisioningOptionsUpdateService  -->
<g id="edge4" class="edge">
<title>LegacySchoolModule&#45;&gt;ProvisioningOptionsUpdateService </title>
<path fill="none" stroke="black" stroke-dasharray="5,2" d="M1560,-187.11C1560,-187.11 1560,-205.99 1560,-205.99"/>
<polygon fill="black" stroke="black" points="1556.5,-205.99 1560,-215.99 1563.5,-205.99 1556.5,-205.99"/>
</g>
<!-- SchoolSystemOptionsService  -->
<g id="node6" class="node">
<title>SchoolSystemOptionsService </title>
<polygon fill="#fb8072" stroke="black" points="1432.92,-252 1247.08,-252 1247.08,-216 1432.92,-216 1432.92,-252"/>
<text text-anchor="middle" x="1340" y="-229.8" font-family="Times,serif" font-size="14.00">SchoolSystemOptionsService </text>
</g>
<!-- LegacySchoolModule&#45;&gt;SchoolSystemOptionsService  -->
<g id="edge5" class="edge">
<title>LegacySchoolModule&#45;&gt;SchoolSystemOptionsService </title>
<path fill="none" stroke="black" stroke-dasharray="5,2" d="M1490.18,-183C1435.04,-183 1367.35,-183 1367.35,-183 1367.35,-183 1367.35,-205.88 1367.35,-205.88"/>
<polygon fill="black" stroke="black" points="1363.85,-205.88 1367.35,-215.88 1370.85,-205.88 1363.85,-205.88"/>
</g>
<!-- SchoolYearService  -->
<g id="node7" class="node">
<title>SchoolYearService </title>
<polygon fill="#fb8072" stroke="black" points="1228.56,-252 1101.44,-252 1101.44,-216 1228.56,-216 1228.56,-252"/>
<text text-anchor="middle" x="1165" y="-229.8" font-family="Times,serif" font-size="14.00">SchoolYearService </text>
</g>
<!-- LegacySchoolModule&#45;&gt;SchoolYearService  -->
<g id="edge6" class="edge">
<title>LegacySchoolModule&#45;&gt;SchoolYearService </title>
<path fill="none" stroke="black" stroke-dasharray="5,2" d="M1490.29,-178C1376.89,-178 1165,-178 1165,-178 1165,-178 1165,-205.97 1165,-205.97"/>
<polygon fill="black" stroke="black" points="1161.5,-205.97 1165,-215.97 1168.5,-205.97 1161.5,-205.97"/>
</g>
<!-- FederalStateRepo -->
<g id="node8" class="node">
<title>FederalStateRepo</title>
<ellipse fill="#fdb462" stroke="black" cx="2542" cy="-104" rx="79.87" ry="18"/>
<text text-anchor="middle" x="2542" y="-99.8" font-family="Times,serif" font-size="14.00">FederalStateRepo</text>
</g>
<!-- FederalStateRepo&#45;&gt;LegacySchoolModule -->
<g id="edge7" class="edge">
<title>FederalStateRepo&#45;&gt;LegacySchoolModule</title>
<path fill="none" stroke="black" d="M2542,-122.11C2542,-141.34 2542,-169 2542,-169 2542,-169 1639.84,-169 1639.84,-169"/>
<polygon fill="black" stroke="black" points="1639.84,-165.5 1629.84,-169 1639.84,-172.5 1639.84,-165.5"/>
</g>
<!-- FederalStateService -->
<g id="node9" class="node">
<title>FederalStateService</title>
<ellipse fill="#fdb462" stroke="black" cx="2356" cy="-104" rx="88.01" ry="18"/>
<text text-anchor="middle" x="2356" y="-99.8" font-family="Times,serif" font-size="14.00">FederalStateService</text>
</g>
<!-- FederalStateService&#45;&gt;LegacySchoolModule -->
<g id="edge8" class="edge">
<title>FederalStateService&#45;&gt;LegacySchoolModule</title>
<path fill="none" stroke="black" d="M2356,-122.3C2356,-140.27 2356,-165 2356,-165 2356,-165 1639.94,-165 1639.94,-165"/>
<polygon fill="black" stroke="black" points="1639.94,-161.5 1629.94,-165 1639.94,-168.5 1639.94,-161.5"/>
</g>
<!-- LegacySchoolRepo -->
<g id="node10" class="node">
<title>LegacySchoolRepo</title>
<ellipse fill="#fdb462" stroke="black" cx="2163" cy="-104" rx="86.82" ry="18"/>
<text text-anchor="middle" x="2163" y="-99.8" font-family="Times,serif" font-size="14.00">LegacySchoolRepo</text>
</g>
<!-- LegacySchoolRepo&#45;&gt;LegacySchoolModule -->
<g id="edge9" class="edge">
<title>LegacySchoolRepo&#45;&gt;LegacySchoolModule</title>
<path fill="none" stroke="black" d="M2163,-122.03C2163,-138.4 2163,-160 2163,-160 2163,-160 1639.76,-160 1639.76,-160"/>
<polygon fill="black" stroke="black" points="1639.76,-156.5 1629.76,-160 1639.76,-163.5 1639.76,-156.5"/>
</g>
<!-- LegacySchoolService -->
<g id="node11" class="node">
<title>LegacySchoolService</title>
<ellipse fill="#fdb462" stroke="black" cx="1963" cy="-104" rx="95.47" ry="18"/>
<text text-anchor="middle" x="1963" y="-99.8" font-family="Times,serif" font-size="14.00">LegacySchoolService</text>
</g>
<!-- LegacySchoolService&#45;&gt;LegacySchoolModule -->
<g id="edge10" class="edge">
<title>LegacySchoolService&#45;&gt;LegacySchoolModule</title>
<path fill="none" stroke="black" d="M1923.25,-120.45C1923.25,-135.69 1923.25,-156 1923.25,-156 1923.25,-156 1640.04,-156 1640.04,-156"/>
<polygon fill="black" stroke="black" points="1640.04,-152.5 1630.04,-156 1640.04,-159.5 1640.04,-152.5"/>
</g>
<!-- ProvisioningOptionsUpdateService -->
<g id="node12" class="node">
<title>ProvisioningOptionsUpdateService</title>
<ellipse fill="#fdb462" stroke="black" cx="1702" cy="-104" rx="147.64" ry="18"/>
<text text-anchor="middle" x="1702" y="-99.8" font-family="Times,serif" font-size="14.00">ProvisioningOptionsUpdateService</text>
</g>
<!-- ProvisioningOptionsUpdateService&#45;&gt;LegacySchoolModule -->
<g id="edge11" class="edge">
<title>ProvisioningOptionsUpdateService&#45;&gt;LegacySchoolModule</title>
<path fill="none" stroke="black" d="M1592,-116.23C1592,-116.23 1592,-140.68 1592,-140.68"/>
<polygon fill="black" stroke="black" points="1588.5,-140.68 1592,-150.68 1595.5,-140.68 1588.5,-140.68"/>
</g>
<!-- SchoolSystemOptionsRepo -->
<g id="node13" class="node">
<title>SchoolSystemOptionsRepo</title>
<ellipse fill="#fdb462" stroke="black" cx="1419" cy="-104" rx="117.02" ry="18"/>
<text text-anchor="middle" x="1419" y="-99.8" font-family="Times,serif" font-size="14.00">SchoolSystemOptionsRepo</text>
</g>
<!-- SchoolSystemOptionsRepo&#45;&gt;LegacySchoolModule -->
<g id="edge12" class="edge">
<title>SchoolSystemOptionsRepo&#45;&gt;LegacySchoolModule</title>
<path fill="none" stroke="black" d="M1513.22,-114.73C1513.22,-114.73 1513.22,-140.87 1513.22,-140.87"/>
<polygon fill="black" stroke="black" points="1509.72,-140.87 1513.22,-150.87 1516.72,-140.87 1509.72,-140.87"/>
</g>
<!-- SchoolSystemOptionsService -->
<g id="node14" class="node">
<title>SchoolSystemOptionsService</title>
<ellipse fill="#fdb462" stroke="black" cx="1158" cy="-104" rx="125.66" ry="18"/>
<text text-anchor="middle" x="1158" y="-99.8" font-family="Times,serif" font-size="14.00">SchoolSystemOptionsService</text>
</g>
<!-- SchoolSystemOptionsService&#45;&gt;LegacySchoolModule -->
<g id="edge13" class="edge">
<title>SchoolSystemOptionsService&#45;&gt;LegacySchoolModule</title>
<path fill="none" stroke="black" d="M1265.44,-113.54C1265.44,-128.55 1265.44,-156 1265.44,-156 1265.44,-156 1480.19,-156 1480.19,-156"/>
<polygon fill="black" stroke="black" points="1480.19,-159.5 1490.19,-156 1480.19,-152.5 1480.19,-159.5"/>
</g>
<!-- SchoolValidationService -->
<g id="node15" class="node">
<title>SchoolValidationService</title>
<ellipse fill="#fdb462" stroke="black" cx="907" cy="-104" rx="107.66" ry="18"/>
<text text-anchor="middle" x="907" y="-99.8" font-family="Times,serif" font-size="14.00">SchoolValidationService</text>
</g>
<!-- SchoolValidationService&#45;&gt;LegacySchoolModule -->
<g id="edge14" class="edge">
<title>SchoolValidationService&#45;&gt;LegacySchoolModule</title>
<path fill="none" stroke="black" d="M907,-122.03C907,-138.4 907,-160 907,-160 907,-160 1480.12,-160 1480.12,-160"/>
<polygon fill="black" stroke="black" points="1480.12,-163.5 1490.12,-160 1480.12,-156.5 1480.12,-163.5"/>
</g>
<!-- SchoolYearRepo -->
<g id="node16" class="node">
<title>SchoolYearRepo</title>
<ellipse fill="#fdb462" stroke="black" cx="704" cy="-104" rx="77.01" ry="18"/>
<text text-anchor="middle" x="704" y="-99.8" font-family="Times,serif" font-size="14.00">SchoolYearRepo</text>
</g>
<!-- SchoolYearRepo&#45;&gt;LegacySchoolModule -->
<g id="edge15" class="edge">
<title>SchoolYearRepo&#45;&gt;LegacySchoolModule</title>
<path fill="none" stroke="black" d="M704,-122.3C704,-140.27 704,-165 704,-165 704,-165 1480.31,-165 1480.31,-165"/>
<polygon fill="black" stroke="black" points="1480.31,-168.5 1490.31,-165 1480.31,-161.5 1480.31,-168.5"/>
</g>
<!-- SchoolYearService -->
<g id="node17" class="node">
<title>SchoolYearService</title>
<ellipse fill="#fdb462" stroke="black" cx="523" cy="-104" rx="85.65" ry="18"/>
<text text-anchor="middle" x="523" y="-99.8" font-family="Times,serif" font-size="14.00">SchoolYearService</text>
</g>
<!-- SchoolYearService&#45;&gt;LegacySchoolModule -->
<g id="edge16" class="edge">
<title>SchoolYearService&#45;&gt;LegacySchoolModule</title>
<path fill="none" stroke="black" d="M523,-122.11C523,-141.34 523,-169 523,-169 523,-169 1480.35,-169 1480.35,-169"/>
<polygon fill="black" stroke="black" points="1480.35,-172.5 1490.35,-169 1480.35,-165.5 1480.35,-172.5"/>
</g>
<!-- SchulconnexProvisioningOptionsUpdateService -->
<g id="node18" class="node">
<title>SchulconnexProvisioningOptionsUpdateService</title>
<ellipse fill="#fdb462" stroke="black" cx="222" cy="-104" rx="197.9" ry="18"/>
<text text-anchor="middle" x="222" y="-99.8" font-family="Times,serif" font-size="14.00">SchulconnexProvisioningOptionsUpdateService</text>
</g>
<!-- SchulconnexProvisioningOptionsUpdateService&#45;&gt;LegacySchoolModule -->
<g id="edge17" class="edge">
<title>SchulconnexProvisioningOptionsUpdateService&#45;&gt;LegacySchoolModule</title>
<path fill="none" stroke="black" d="M222,-122.03C222,-142.77 222,-174 222,-174 222,-174 1479.95,-174 1479.95,-174"/>
<polygon fill="black" stroke="black" points="1479.95,-177.5 1489.95,-174 1479.95,-170.5 1479.95,-177.5"/>
</g>
</g>
</svg>
