<?xml version="1.0" encoding="UTF-8" standalone="no"?>
<!DOCTYPE svg PUBLIC "-//W3C//DTD SVG 1.1//EN"
 "http://www.w3.org/Graphics/SVG/1.1/DTD/svg11.dtd">
<!-- Generated by graphviz version 2.47.0 (20210316.0004)
 -->
<!-- Title: dependencies Pages: 1 -->
<svg width="2778pt" height="284pt"
 viewBox="0.00 0.00 2778.00 284.00" xmlns="http://www.w3.org/2000/svg" xmlns:xlink="http://www.w3.org/1999/xlink">
<g id="graph0" class="graph" transform="scale(1 1) rotate(0) translate(4 280)">
<title>dependencies</title>
<polygon fill="white" stroke="transparent" points="-4,4 -4,-280 2774,-280 2774,4 -4,4"/>
<text text-anchor="start" x="1364.01" y="-42.4" font-family="Times-12" font-weight="bold" font-size="14.00">Legend</text>
<polygon fill="#ffffb3" stroke="transparent" points="1151,-10 1151,-30 1171,-30 1171,-10 1151,-10"/>
<text text-anchor="start" x="1174.63" y="-15.4" font-family="Times-12" font-size="14.00"> &#160;Declarations</text>
<polygon fill="#8dd3c7" stroke="transparent" points="1264,-10 1264,-30 1284,-30 1284,-10 1264,-10"/>
<text text-anchor="start" x="1287.73" y="-15.4" font-family="Times-12" font-size="14.00"> &#160;Module</text>
<polygon fill="#80b1d3" stroke="transparent" points="1350,-10 1350,-30 1370,-30 1370,-10 1350,-10"/>
<text text-anchor="start" x="1373.78" y="-15.4" font-family="Times-12" font-size="14.00"> &#160;Bootstrap</text>
<polygon fill="#fdb462" stroke="transparent" points="1447,-10 1447,-30 1467,-30 1467,-10 1447,-10"/>
<text text-anchor="start" x="1470.67" y="-15.4" font-family="Times-12" font-size="14.00"> &#160;Providers</text>
<polygon fill="#fb8072" stroke="transparent" points="1543,-10 1543,-30 1563,-30 1563,-10 1543,-10"/>
<text text-anchor="start" x="1566.73" y="-15.4" font-family="Times-12" font-size="14.00"> &#160;Exports</text>
<g id="clust1" class="cluster">
<title>cluster_LegacySchoolModule</title>
<polygon fill="none" stroke="black" stroke-dasharray="1,5" points="8,-70 8,-268 2762,-268 2762,-70 8,-70"/>
</g>
<g id="clust4" class="cluster">
<title>cluster_LegacySchoolModule_exports</title>
<polygon fill="none" stroke="black" points="945,-208 945,-260 1839,-260 1839,-208 945,-208"/>
</g>
<g id="clust6" class="cluster">
<title>cluster_LegacySchoolModule_providers</title>
<polygon fill="none" stroke="black" points="140,-78 140,-130 2754,-130 2754,-78 140,-78"/>
</g>
<g id="clust3" class="cluster">
<title>cluster_LegacySchoolModule_imports</title>
<polygon fill="none" stroke="black" points="16,-78 16,-130 132,-130 132,-78 16,-78"/>
</g>
<!-- LoggerModule -->
<g id="node1" class="node">
<title>LoggerModule</title>
<polygon fill="#8dd3c7" stroke="black" points="123.98,-122 120.98,-126 99.98,-126 96.98,-122 24.02,-122 24.02,-86 123.98,-86 123.98,-122"/>
<text text-anchor="middle" x="74" y="-99.8" font-family="Times,serif" font-size="14.00">LoggerModule</text>
</g>
<!-- LegacySchoolModule -->
<g id="node2" class="node">
<title>LegacySchoolModule</title>
<polygon fill="#8dd3c7" stroke="black" points="1481.63,-187 1478.63,-191 1457.63,-191 1454.63,-187 1342.37,-187 1342.37,-151 1481.63,-151 1481.63,-187"/>
<text text-anchor="middle" x="1412" y="-164.8" font-family="Times,serif" font-size="14.00">LegacySchoolModule</text>
</g>
<!-- LoggerModule&#45;&gt;LegacySchoolModule -->
<g id="edge1" class="edge">
<title>LoggerModule&#45;&gt;LegacySchoolModule</title>
<path fill="none" stroke="black" d="M74,-122.03C74,-142.77 74,-174 74,-174 74,-174 1331.95,-174 1331.95,-174"/>
<polygon fill="black" stroke="black" points="1331.95,-177.5 1341.95,-174 1331.95,-170.5 1331.95,-177.5"/>
</g>
<!-- FederalStateService  -->
<g id="node3" class="node">
<title>FederalStateService </title>
<polygon fill="#fb8072" stroke="black" points="1830.95,-252 1699.05,-252 1699.05,-216 1830.95,-216 1830.95,-252"/>
<text text-anchor="middle" x="1765" y="-229.8" font-family="Times,serif" font-size="14.00">FederalStateService </text>
</g>
<!-- LegacySchoolModule&#45;&gt;FederalStateService  -->
<g id="edge2" class="edge">
<title>LegacySchoolModule&#45;&gt;FederalStateService </title>
<path fill="none" stroke="black" stroke-dasharray="5,2" d="M1481.74,-178C1584.62,-178 1765,-178 1765,-178 1765,-178 1765,-205.97 1765,-205.97"/>
<polygon fill="black" stroke="black" points="1761.5,-205.97 1765,-215.97 1768.5,-205.97 1761.5,-205.97"/>
</g>
<!-- LegacySchoolService  -->
<g id="node4" class="node">
<title>LegacySchoolService </title>
<polygon fill="#fb8072" stroke="black" points="1680.56,-252 1539.44,-252 1539.44,-216 1680.56,-216 1680.56,-252"/>
<text text-anchor="middle" x="1610" y="-229.8" font-family="Times,serif" font-size="14.00">LegacySchoolService </text>
</g>
<!-- LegacySchoolModule&#45;&gt;LegacySchoolService  -->
<g id="edge3" class="edge">
<title>LegacySchoolModule&#45;&gt;LegacySchoolService </title>
<path fill="none" stroke="black" stroke-dasharray="5,2" d="M1481.64,-183C1535.07,-183 1599.74,-183 1599.74,-183 1599.74,-183 1599.74,-205.88 1599.74,-205.88"/>
<polygon fill="black" stroke="black" points="1596.24,-205.88 1599.74,-215.88 1603.24,-205.88 1596.24,-205.88"/>
</g>
<!-- ProvisioningOptionsUpdateService  -->
<g id="node5" class="node">
<title>ProvisioningOptionsUpdateService </title>
<polygon fill="#fb8072" stroke="black" points="1520.8,-252 1303.2,-252 1303.2,-216 1520.8,-216 1520.8,-252"/>
<text text-anchor="middle" x="1412" y="-229.8" font-family="Times,serif" font-size="14.00">ProvisioningOptionsUpdateService </text>
</g>
<!-- LegacySchoolModule&#45;&gt;ProvisioningOptionsUpdateService  -->
<g id="edge4" class="edge">
<title>LegacySchoolModule&#45;&gt;ProvisioningOptionsUpdateService </title>
<path fill="none" stroke="black" stroke-dasharray="5,2" d="M1412,-187.11C1412,-187.11 1412,-205.99 1412,-205.99"/>
<polygon fill="black" stroke="black" points="1408.5,-205.99 1412,-215.99 1415.5,-205.99 1408.5,-205.99"/>
</g>
<!-- SchoolSystemOptionsService  -->
<g id="node6" class="node">
<title>SchoolSystemOptionsService </title>
<polygon fill="#fb8072" stroke="black" points="1284.92,-252 1099.08,-252 1099.08,-216 1284.92,-216 1284.92,-252"/>
<text text-anchor="middle" x="1192" y="-229.8" font-family="Times,serif" font-size="14.00">SchoolSystemOptionsService </text>
</g>
<!-- LegacySchoolModule&#45;&gt;SchoolSystemOptionsService  -->
<g id="edge5" class="edge">
<title>LegacySchoolModule&#45;&gt;SchoolSystemOptionsService </title>
<path fill="none" stroke="black" stroke-dasharray="5,2" d="M1342.35,-183C1287.61,-183 1220.56,-183 1220.56,-183 1220.56,-183 1220.56,-205.88 1220.56,-205.88"/>
<polygon fill="black" stroke="black" points="1217.07,-205.88 1220.56,-215.88 1224.07,-205.88 1217.07,-205.88"/>
</g>
<!-- SchoolYearService  -->
<g id="node7" class="node">
<title>SchoolYearService </title>
<polygon fill="#fb8072" stroke="black" points="1080.56,-252 953.44,-252 953.44,-216 1080.56,-216 1080.56,-252"/>
<text text-anchor="middle" x="1017" y="-229.8" font-family="Times,serif" font-size="14.00">SchoolYearService </text>
</g>
<!-- LegacySchoolModule&#45;&gt;SchoolYearService  -->
<g id="edge6" class="edge">
<title>LegacySchoolModule&#45;&gt;SchoolYearService </title>
<path fill="none" stroke="black" stroke-dasharray="5,2" d="M1342.29,-178C1228.89,-178 1017,-178 1017,-178 1017,-178 1017,-205.97 1017,-205.97"/>
<polygon fill="black" stroke="black" points="1013.5,-205.97 1017,-215.97 1020.5,-205.97 1013.5,-205.97"/>
</g>
<!-- FederalStateRepo -->
<g id="node8" class="node">
<title>FederalStateRepo</title>
<ellipse fill="#fdb462" stroke="black" cx="2666" cy="-104" rx="79.87" ry="18"/>
<text text-anchor="middle" x="2666" y="-99.8" font-family="Times,serif" font-size="14.00">FederalStateRepo</text>
</g>
<!-- FederalStateRepo&#45;&gt;LegacySchoolModule -->
<g id="edge7" class="edge">
<title>FederalStateRepo&#45;&gt;LegacySchoolModule</title>
<path fill="none" stroke="black" d="M2666,-122.03C2666,-142.77 2666,-174 2666,-174 2666,-174 1491.66,-174 1491.66,-174"/>
<polygon fill="black" stroke="black" points="1491.66,-170.5 1481.66,-174 1491.66,-177.5 1491.66,-170.5"/>
</g>
<!-- FederalStateService -->
<g id="node9" class="node">
<title>FederalStateService</title>
<ellipse fill="#fdb462" stroke="black" cx="2480" cy="-104" rx="88.01" ry="18"/>
<text text-anchor="middle" x="2480" y="-99.8" font-family="Times,serif" font-size="14.00">FederalStateService</text>
</g>
<!-- FederalStateService&#45;&gt;LegacySchoolModule -->
<g id="edge8" class="edge">
<title>FederalStateService&#45;&gt;LegacySchoolModule</title>
<path fill="none" stroke="black" d="M2480,-122.11C2480,-141.34 2480,-169 2480,-169 2480,-169 1491.66,-169 1491.66,-169"/>
<polygon fill="black" stroke="black" points="1491.66,-165.5 1481.66,-169 1491.66,-172.5 1491.66,-165.5"/>
</g>
<!-- LegacySchoolRepo -->
<g id="node10" class="node">
<title>LegacySchoolRepo</title>
<ellipse fill="#fdb462" stroke="black" cx="2287" cy="-104" rx="86.82" ry="18"/>
<text text-anchor="middle" x="2287" y="-99.8" font-family="Times,serif" font-size="14.00">LegacySchoolRepo</text>
</g>
<!-- LegacySchoolRepo&#45;&gt;LegacySchoolModule -->
<g id="edge9" class="edge">
<title>LegacySchoolRepo&#45;&gt;LegacySchoolModule</title>
<path fill="none" stroke="black" d="M2287,-122.3C2287,-140.27 2287,-165 2287,-165 2287,-165 1491.76,-165 1491.76,-165"/>
<polygon fill="black" stroke="black" points="1491.76,-161.5 1481.76,-165 1491.76,-168.5 1491.76,-161.5"/>
</g>
<!-- LegacySchoolService -->
<g id="node11" class="node">
<title>LegacySchoolService</title>
<ellipse fill="#fdb462" stroke="black" cx="2087" cy="-104" rx="95.47" ry="18"/>
<text text-anchor="middle" x="2087" y="-99.8" font-family="Times,serif" font-size="14.00">LegacySchoolService</text>
</g>
<!-- LegacySchoolService&#45;&gt;LegacySchoolModule -->
<g id="edge10" class="edge">
<title>LegacySchoolService&#45;&gt;LegacySchoolModule</title>
<path fill="none" stroke="black" d="M2087,-122.03C2087,-138.4 2087,-160 2087,-160 2087,-160 1491.69,-160 1491.69,-160"/>
<polygon fill="black" stroke="black" points="1491.69,-156.5 1481.69,-160 1491.69,-163.5 1491.69,-156.5"/>
</g>
<!-- ProvisioningOptionsUpdateService -->
<g id="node12" class="node">
<title>ProvisioningOptionsUpdateService</title>
<ellipse fill="#fdb462" stroke="black" cx="1826" cy="-104" rx="147.64" ry="18"/>
<text text-anchor="middle" x="1826" y="-99.8" font-family="Times,serif" font-size="14.00">ProvisioningOptionsUpdateService</text>
</g>
<!-- ProvisioningOptionsUpdateService&#45;&gt;LegacySchoolModule -->
<g id="edge11" class="edge">
<title>ProvisioningOptionsUpdateService&#45;&gt;LegacySchoolModule</title>
<path fill="none" stroke="black" d="M1690.03,-111.23C1690.03,-125.52 1690.03,-156 1690.03,-156 1690.03,-156 1491.8,-156 1491.8,-156"/>
<polygon fill="black" stroke="black" points="1491.8,-152.5 1481.8,-156 1491.8,-159.5 1491.8,-152.5"/>
</g>
<!-- SchoolSystemOptionsRepo -->
<g id="node13" class="node">
<title>SchoolSystemOptionsRepo</title>
<ellipse fill="#fdb462" stroke="black" cx="1543" cy="-104" rx="117.02" ry="18"/>
<text text-anchor="middle" x="1543" y="-99.8" font-family="Times,serif" font-size="14.00">SchoolSystemOptionsRepo</text>
</g>
<!-- SchoolSystemOptionsRepo&#45;&gt;LegacySchoolModule -->
<g id="edge12" class="edge">
<title>SchoolSystemOptionsRepo&#45;&gt;LegacySchoolModule</title>
<path fill="none" stroke="black" d="M1453.78,-115.92C1453.78,-115.92 1453.78,-140.77 1453.78,-140.77"/>
<polygon fill="black" stroke="black" points="1450.28,-140.77 1453.78,-150.77 1457.28,-140.77 1450.28,-140.77"/>
</g>
<!-- SchoolSystemOptionsService -->
<g id="node14" class="node">
<title>SchoolSystemOptionsService</title>
<ellipse fill="#fdb462" stroke="black" cx="1282" cy="-104" rx="125.66" ry="18"/>
<text text-anchor="middle" x="1282" y="-99.8" font-family="Times,serif" font-size="14.00">SchoolSystemOptionsService</text>
</g>
<!-- SchoolSystemOptionsService&#45;&gt;LegacySchoolModule -->
<g id="edge13" class="edge">
<title>SchoolSystemOptionsService&#45;&gt;LegacySchoolModule</title>
<path fill="none" stroke="black" d="M1375.01,-116.23C1375.01,-116.23 1375.01,-140.68 1375.01,-140.68"/>
<polygon fill="black" stroke="black" points="1371.51,-140.68 1375.01,-150.68 1378.51,-140.68 1371.51,-140.68"/>
</g>
<!-- SchoolValidationService -->
<g id="node15" class="node">
<title>SchoolValidationService</title>
<ellipse fill="#fdb462" stroke="black" cx="1031" cy="-104" rx="107.66" ry="18"/>
<text text-anchor="middle" x="1031" y="-99.8" font-family="Times,serif" font-size="14.00">SchoolValidationService</text>
</g>
<!-- SchoolValidationService&#45;&gt;LegacySchoolModule -->
<g id="edge14" class="edge">
<title>SchoolValidationService&#45;&gt;LegacySchoolModule</title>
<path fill="none" stroke="black" d="M1118.81,-114.52C1118.81,-129.72 1118.81,-156 1118.81,-156 1118.81,-156 1332.15,-156 1332.15,-156"/>
<polygon fill="black" stroke="black" points="1332.15,-159.5 1342.15,-156 1332.15,-152.5 1332.15,-159.5"/>
</g>
<!-- SchoolYearRepo -->
<g id="node16" class="node">
<title>SchoolYearRepo</title>
<ellipse fill="#fdb462" stroke="black" cx="828" cy="-104" rx="77.01" ry="18"/>
<text text-anchor="middle" x="828" y="-99.8" font-family="Times,serif" font-size="14.00">SchoolYearRepo</text>
</g>
<!-- SchoolYearRepo&#45;&gt;LegacySchoolModule -->
<g id="edge15" class="edge">
<title>SchoolYearRepo&#45;&gt;LegacySchoolModule</title>
<path fill="none" stroke="black" d="M828,-122.03C828,-138.4 828,-160 828,-160 828,-160 1332.14,-160 1332.14,-160"/>
<polygon fill="black" stroke="black" points="1332.14,-163.5 1342.14,-160 1332.14,-156.5 1332.14,-163.5"/>
</g>
<!-- SchoolYearService -->
<g id="node17" class="node">
<title>SchoolYearService</title>
<ellipse fill="#fdb462" stroke="black" cx="647" cy="-104" rx="85.65" ry="18"/>
<text text-anchor="middle" x="647" y="-99.8" font-family="Times,serif" font-size="14.00">SchoolYearService</text>
</g>
<!-- SchoolYearService&#45;&gt;LegacySchoolModule -->
<g id="edge16" class="edge">
<title>SchoolYearService&#45;&gt;LegacySchoolModule</title>
<path fill="none" stroke="black" d="M647,-122.3C647,-140.27 647,-165 647,-165 647,-165 1332.08,-165 1332.08,-165"/>
<polygon fill="black" stroke="black" points="1332.08,-168.5 1342.08,-165 1332.08,-161.5 1332.08,-168.5"/>
</g>
<!-- SchulconnexProvisioningOptionsUpdateService -->
<g id="node18" class="node">
<title>SchulconnexProvisioningOptionsUpdateService</title>
<ellipse fill="#fdb462" stroke="black" cx="346" cy="-104" rx="197.9" ry="18"/>
<text text-anchor="middle" x="346" y="-99.8" font-family="Times,serif" font-size="14.00">SchulconnexProvisioningOptionsUpdateService</text>
</g>
<!-- SchulconnexProvisioningOptionsUpdateService&#45;&gt;LegacySchoolModule -->
<g id="edge17" class="edge">
<title>SchulconnexProvisioningOptionsUpdateService&#45;&gt;LegacySchoolModule</title>
<path fill="none" stroke="black" d="M346,-122.11C346,-141.34 346,-169 346,-169 346,-169 1332.06,-169 1332.06,-169"/>
<polygon fill="black" stroke="black" points="1332.06,-172.5 1342.06,-169 1332.06,-165.5 1332.06,-172.5"/>
</g>
</g>
</svg>
