<?xml version="1.0" encoding="UTF-8" standalone="no"?>
<!DOCTYPE svg PUBLIC "-//W3C//DTD SVG 1.1//EN"
 "http://www.w3.org/Graphics/SVG/1.1/DTD/svg11.dtd">
<!-- Generated by graphviz version 2.47.0 (20210316.0004)
 -->
<!-- Title: dependencies Pages: 1 -->
<svg width="2892pt" height="284pt"
 viewBox="0.00 0.00 2892.00 284.00" xmlns="http://www.w3.org/2000/svg" xmlns:xlink="http://www.w3.org/1999/xlink">
<g id="graph0" class="graph" transform="scale(1 1) rotate(0) translate(4 280)">
<title>dependencies</title>
<polygon fill="white" stroke="transparent" points="-4,4 -4,-280 2888,-280 2888,4 -4,4"/>
<text text-anchor="start" x="1421.01" y="-42.4" font-family="Times-12" font-weight="bold" font-size="14.00">Legend</text>
<polygon fill="#ffffb3" stroke="transparent" points="1208,-10 1208,-30 1228,-30 1228,-10 1208,-10"/>
<text text-anchor="start" x="1231.63" y="-15.4" font-family="Times-12" font-size="14.00"> &#160;Declarations</text>
<polygon fill="#8dd3c7" stroke="transparent" points="1321,-10 1321,-30 1341,-30 1341,-10 1321,-10"/>
<text text-anchor="start" x="1344.73" y="-15.4" font-family="Times-12" font-size="14.00"> &#160;Module</text>
<polygon fill="#80b1d3" stroke="transparent" points="1407,-10 1407,-30 1427,-30 1427,-10 1407,-10"/>
<text text-anchor="start" x="1430.78" y="-15.4" font-family="Times-12" font-size="14.00"> &#160;Bootstrap</text>
<polygon fill="#fdb462" stroke="transparent" points="1504,-10 1504,-30 1524,-30 1524,-10 1504,-10"/>
<text text-anchor="start" x="1527.67" y="-15.4" font-family="Times-12" font-size="14.00"> &#160;Providers</text>
<polygon fill="#fb8072" stroke="transparent" points="1600,-10 1600,-30 1620,-30 1620,-10 1600,-10"/>
<text text-anchor="start" x="1623.73" y="-15.4" font-family="Times-12" font-size="14.00"> &#160;Exports</text>
<g id="clust1" class="cluster">
<title>cluster_LegacySchoolModule</title>
<polygon fill="none" stroke="black" stroke-dasharray="1,5" points="8,-70 8,-268 2876,-268 2876,-70 8,-70"/>
</g>
<g id="clust6" class="cluster">
<title>cluster_LegacySchoolModule_providers</title>
<polygon fill="none" stroke="black" points="254,-78 254,-130 2868,-130 2868,-78 254,-78"/>
</g>
<g id="clust3" class="cluster">
<title>cluster_LegacySchoolModule_imports</title>
<polygon fill="none" stroke="black" points="16,-78 16,-130 246,-130 246,-78 16,-78"/>
</g>
<g id="clust4" class="cluster">
<title>cluster_LegacySchoolModule_exports</title>
<polygon fill="none" stroke="black" points="929,-208 929,-260 1823,-260 1823,-208 929,-208"/>
</g>
<!-- GroupModule -->
<g id="node1" class="node">
<title>GroupModule</title>
<polygon fill="#8dd3c7" stroke="black" points="237.82,-122 234.82,-126 213.82,-126 210.82,-122 142.18,-122 142.18,-86 237.82,-86 237.82,-122"/>
<text text-anchor="middle" x="190" y="-99.8" font-family="Times,serif" font-size="14.00">GroupModule</text>
</g>
<!-- LegacySchoolModule -->
<g id="node3" class="node">
<title>LegacySchoolModule</title>
<polygon fill="#8dd3c7" stroke="black" points="1465.63,-187 1462.63,-191 1441.63,-191 1438.63,-187 1326.37,-187 1326.37,-151 1465.63,-151 1465.63,-187"/>
<text text-anchor="middle" x="1396" y="-164.8" font-family="Times,serif" font-size="14.00">LegacySchoolModule</text>
</g>
<!-- GroupModule&#45;&gt;LegacySchoolModule -->
<g id="edge1" class="edge">
<title>GroupModule&#45;&gt;LegacySchoolModule</title>
<path fill="none" stroke="black" d="M190,-122.31C190,-142.15 190,-171 190,-171 190,-171 1315.95,-171 1315.95,-171"/>
<polygon fill="black" stroke="black" points="1315.95,-174.5 1325.95,-171 1315.95,-167.5 1315.95,-174.5"/>
</g>
<!-- LoggerModule -->
<g id="node2" class="node">
<title>LoggerModule</title>
<polygon fill="#8dd3c7" stroke="black" points="123.98,-122 120.98,-126 99.98,-126 96.98,-122 24.02,-122 24.02,-86 123.98,-86 123.98,-122"/>
<text text-anchor="middle" x="74" y="-99.8" font-family="Times,serif" font-size="14.00">LoggerModule</text>
</g>
<!-- LoggerModule&#45;&gt;LegacySchoolModule -->
<g id="edge2" class="edge">
<title>LoggerModule&#45;&gt;LegacySchoolModule</title>
<path fill="none" stroke="black" d="M74,-122.28C74,-143.32 74,-175 74,-175 74,-175 1316.32,-175 1316.32,-175"/>
<polygon fill="black" stroke="black" points="1316.32,-178.5 1326.32,-175 1316.32,-171.5 1316.32,-178.5"/>
</g>
<!-- FederalStateService  -->
<g id="node4" class="node">
<title>FederalStateService </title>
<polygon fill="#fb8072" stroke="black" points="1814.95,-252 1683.05,-252 1683.05,-216 1814.95,-216 1814.95,-252"/>
<text text-anchor="middle" x="1749" y="-229.8" font-family="Times,serif" font-size="14.00">FederalStateService </text>
</g>
<!-- LegacySchoolModule&#45;&gt;FederalStateService  -->
<g id="edge3" class="edge">
<title>LegacySchoolModule&#45;&gt;FederalStateService </title>
<path fill="none" stroke="black" stroke-dasharray="5,2" d="M1465.76,-179C1563.34,-179 1728.77,-179 1728.77,-179 1728.77,-179 1728.77,-205.99 1728.77,-205.99"/>
<polygon fill="black" stroke="black" points="1725.27,-205.99 1728.77,-215.99 1732.27,-205.99 1725.27,-205.99"/>
</g>
<!-- LegacySchoolService  -->
<g id="node5" class="node">
<title>LegacySchoolService </title>
<polygon fill="#fb8072" stroke="black" points="1664.56,-252 1523.44,-252 1523.44,-216 1664.56,-216 1664.56,-252"/>
<text text-anchor="middle" x="1594" y="-229.8" font-family="Times,serif" font-size="14.00">LegacySchoolService </text>
</g>
<!-- LegacySchoolModule&#45;&gt;LegacySchoolService  -->
<g id="edge4" class="edge">
<title>LegacySchoolModule&#45;&gt;LegacySchoolService </title>
<path fill="none" stroke="black" stroke-dasharray="5,2" d="M1465.72,-183C1498.92,-183 1531.48,-183 1531.48,-183 1531.48,-183 1531.48,-205.88 1531.48,-205.88"/>
<polygon fill="black" stroke="black" points="1527.98,-205.88 1531.48,-215.88 1534.98,-205.88 1527.98,-205.88"/>
</g>
<!-- ProvisioningOptionsUpdateService  -->
<g id="node6" class="node">
<title>ProvisioningOptionsUpdateService </title>
<polygon fill="#fb8072" stroke="black" points="1504.8,-252 1287.2,-252 1287.2,-216 1504.8,-216 1504.8,-252"/>
<text text-anchor="middle" x="1396" y="-229.8" font-family="Times,serif" font-size="14.00">ProvisioningOptionsUpdateService </text>
</g>
<!-- LegacySchoolModule&#45;&gt;ProvisioningOptionsUpdateService  -->
<g id="edge5" class="edge">
<title>LegacySchoolModule&#45;&gt;ProvisioningOptionsUpdateService </title>
<path fill="none" stroke="black" stroke-dasharray="5,2" d="M1396,-187.11C1396,-187.11 1396,-205.99 1396,-205.99"/>
<polygon fill="black" stroke="black" points="1392.5,-205.99 1396,-215.99 1399.5,-205.99 1392.5,-205.99"/>
</g>
<!-- SchoolSystemOptionsService  -->
<g id="node7" class="node">
<title>SchoolSystemOptionsService </title>
<polygon fill="#fb8072" stroke="black" points="1268.92,-252 1083.08,-252 1083.08,-216 1268.92,-216 1268.92,-252"/>
<text text-anchor="middle" x="1176" y="-229.8" font-family="Times,serif" font-size="14.00">SchoolSystemOptionsService </text>
</g>
<!-- LegacySchoolModule&#45;&gt;SchoolSystemOptionsService  -->
<g id="edge6" class="edge">
<title>LegacySchoolModule&#45;&gt;SchoolSystemOptionsService </title>
<path fill="none" stroke="black" stroke-dasharray="5,2" d="M1326.01,-183C1293.01,-183 1260.77,-183 1260.77,-183 1260.77,-183 1260.77,-205.88 1260.77,-205.88"/>
<polygon fill="black" stroke="black" points="1257.27,-205.88 1260.77,-215.88 1264.27,-205.88 1257.27,-205.88"/>
</g>
<!-- SchoolYearService  -->
<g id="node8" class="node">
<title>SchoolYearService </title>
<polygon fill="#fb8072" stroke="black" points="1064.56,-252 937.44,-252 937.44,-216 1064.56,-216 1064.56,-252"/>
<text text-anchor="middle" x="1001" y="-229.8" font-family="Times,serif" font-size="14.00">SchoolYearService </text>
</g>
<!-- LegacySchoolModule&#45;&gt;SchoolYearService  -->
<g id="edge7" class="edge">
<title>LegacySchoolModule&#45;&gt;SchoolYearService </title>
<path fill="none" stroke="black" stroke-dasharray="5,2" d="M1326.2,-179C1225.42,-179 1051.1,-179 1051.1,-179 1051.1,-179 1051.1,-205.99 1051.1,-205.99"/>
<polygon fill="black" stroke="black" points="1047.6,-205.99 1051.1,-215.99 1054.6,-205.99 1047.6,-205.99"/>
</g>
<!-- FederalStateRepo -->
<g id="node9" class="node">
<title>FederalStateRepo</title>
<ellipse fill="#fdb462" stroke="black" cx="2780" cy="-104" rx="79.87" ry="18"/>
<text text-anchor="middle" x="2780" y="-99.8" font-family="Times,serif" font-size="14.00">FederalStateRepo</text>
</g>
<!-- FederalStateRepo&#45;&gt;LegacySchoolModule -->
<g id="edge8" class="edge">
<title>FederalStateRepo&#45;&gt;LegacySchoolModule</title>
<path fill="none" stroke="black" d="M2780,-122.28C2780,-143.32 2780,-175 2780,-175 2780,-175 1476.06,-175 1476.06,-175"/>
<polygon fill="black" stroke="black" points="1476.06,-171.5 1466.06,-175 1476.06,-178.5 1476.06,-171.5"/>
</g>
<!-- FederalStateService -->
<g id="node10" class="node">
<title>FederalStateService</title>
<ellipse fill="#fdb462" stroke="black" cx="2594" cy="-104" rx="88.01" ry="18"/>
<text text-anchor="middle" x="2594" y="-99.8" font-family="Times,serif" font-size="14.00">FederalStateService</text>
</g>
<!-- FederalStateService&#45;&gt;LegacySchoolModule -->
<g id="edge9" class="edge">
<title>FederalStateService&#45;&gt;LegacySchoolModule</title>
<path fill="none" stroke="black" d="M2594,-122.31C2594,-142.15 2594,-171 2594,-171 2594,-171 1476.03,-171 1476.03,-171"/>
<polygon fill="black" stroke="black" points="1476.03,-167.5 1466.03,-171 1476.03,-174.5 1476.03,-167.5"/>
</g>
<!-- LegacySchoolRepo -->
<g id="node11" class="node">
<title>LegacySchoolRepo</title>
<ellipse fill="#fdb462" stroke="black" cx="2401" cy="-104" rx="86.82" ry="18"/>
<text text-anchor="middle" x="2401" y="-99.8" font-family="Times,serif" font-size="14.00">LegacySchoolRepo</text>
</g>
<!-- LegacySchoolRepo&#45;&gt;LegacySchoolModule -->
<g id="edge10" class="edge">
<title>LegacySchoolRepo&#45;&gt;LegacySchoolModule</title>
<path fill="none" stroke="black" d="M2401,-122.22C2401,-140.83 2401,-167 2401,-167 2401,-167 1475.87,-167 1475.87,-167"/>
<polygon fill="black" stroke="black" points="1475.87,-163.5 1465.87,-167 1475.87,-170.5 1475.87,-163.5"/>
</g>
<!-- LegacySchoolService -->
<g id="node12" class="node">
<title>LegacySchoolService</title>
<ellipse fill="#fdb462" stroke="black" cx="2201" cy="-104" rx="95.47" ry="18"/>
<text text-anchor="middle" x="2201" y="-99.8" font-family="Times,serif" font-size="14.00">LegacySchoolService</text>
</g>
<!-- LegacySchoolService&#45;&gt;LegacySchoolModule -->
<g id="edge11" class="edge">
<title>LegacySchoolService&#45;&gt;LegacySchoolModule</title>
<path fill="none" stroke="black" d="M2201,-122.02C2201,-139.37 2201,-163 2201,-163 2201,-163 1475.68,-163 1475.68,-163"/>
<polygon fill="black" stroke="black" points="1475.68,-159.5 1465.68,-163 1475.68,-166.5 1475.68,-159.5"/>
</g>
<!-- ProvisioningOptionsUpdateService -->
<g id="node13" class="node">
<title>ProvisioningOptionsUpdateService</title>
<ellipse fill="#fdb462" stroke="black" cx="1940" cy="-104" rx="147.64" ry="18"/>
<text text-anchor="middle" x="1940" y="-99.8" font-family="Times,serif" font-size="14.00">ProvisioningOptionsUpdateService</text>
</g>
<!-- ProvisioningOptionsUpdateService&#45;&gt;LegacySchoolModule -->
<g id="edge12" class="edge">
<title>ProvisioningOptionsUpdateService&#45;&gt;LegacySchoolModule</title>
<path fill="none" stroke="black" d="M1803.45,-111.19C1803.45,-126.1 1803.45,-159 1803.45,-159 1803.45,-159 1476.04,-159 1476.04,-159"/>
<polygon fill="black" stroke="black" points="1476.04,-155.5 1466.04,-159 1476.04,-162.5 1476.04,-155.5"/>
</g>
<!-- SchoolSystemOptionsRepo -->
<g id="node14" class="node">
<title>SchoolSystemOptionsRepo</title>
<ellipse fill="#fdb462" stroke="black" cx="1657" cy="-104" rx="117.02" ry="18"/>
<text text-anchor="middle" x="1657" y="-99.8" font-family="Times,serif" font-size="14.00">SchoolSystemOptionsRepo</text>
</g>
<!-- SchoolSystemOptionsRepo&#45;&gt;LegacySchoolModule -->
<g id="edge13" class="edge">
<title>SchoolSystemOptionsRepo&#45;&gt;LegacySchoolModule</title>
<path fill="none" stroke="black" d="M1602.26,-120.14C1602.26,-135.08 1602.26,-155 1602.26,-155 1602.26,-155 1475.83,-155 1475.83,-155"/>
<polygon fill="black" stroke="black" points="1475.83,-151.5 1465.83,-155 1475.83,-158.5 1475.83,-151.5"/>
</g>
<!-- SchoolSystemOptionsService -->
<g id="node15" class="node">
<title>SchoolSystemOptionsService</title>
<ellipse fill="#fdb462" stroke="black" cx="1396" cy="-104" rx="125.66" ry="18"/>
<text text-anchor="middle" x="1396" y="-99.8" font-family="Times,serif" font-size="14.00">SchoolSystemOptionsService</text>
</g>
<!-- SchoolSystemOptionsService&#45;&gt;LegacySchoolModule -->
<g id="edge14" class="edge">
<title>SchoolSystemOptionsService&#45;&gt;LegacySchoolModule</title>
<path fill="none" stroke="black" d="M1396,-122.11C1396,-122.11 1396,-140.99 1396,-140.99"/>
<polygon fill="black" stroke="black" points="1392.5,-140.99 1396,-150.99 1399.5,-140.99 1392.5,-140.99"/>
</g>
<!-- SchoolValidationService -->
<g id="node16" class="node">
<title>SchoolValidationService</title>
<ellipse fill="#fdb462" stroke="black" cx="1145" cy="-104" rx="107.66" ry="18"/>
<text text-anchor="middle" x="1145" y="-99.8" font-family="Times,serif" font-size="14.00">SchoolValidationService</text>
</g>
<!-- SchoolValidationService&#45;&gt;LegacySchoolModule -->
<g id="edge15" class="edge">
<title>SchoolValidationService&#45;&gt;LegacySchoolModule</title>
<path fill="none" stroke="black" d="M1167.81,-121.84C1167.81,-136.54 1167.81,-155 1167.81,-155 1167.81,-155 1316.3,-155 1316.3,-155"/>
<polygon fill="black" stroke="black" points="1316.3,-158.5 1326.3,-155 1316.3,-151.5 1316.3,-158.5"/>
</g>
<!-- SchoolYearRepo -->
<g id="node17" class="node">
<title>SchoolYearRepo</title>
<ellipse fill="#fdb462" stroke="black" cx="942" cy="-104" rx="77.01" ry="18"/>
<text text-anchor="middle" x="942" y="-99.8" font-family="Times,serif" font-size="14.00">SchoolYearRepo</text>
</g>
<!-- SchoolYearRepo&#45;&gt;LegacySchoolModule -->
<g id="edge16" class="edge">
<title>SchoolYearRepo&#45;&gt;LegacySchoolModule</title>
<path fill="none" stroke="black" d="M978.11,-119.91C978.11,-136.15 978.11,-159 978.11,-159 978.11,-159 1316.05,-159 1316.05,-159"/>
<polygon fill="black" stroke="black" points="1316.05,-162.5 1326.05,-159 1316.05,-155.5 1316.05,-162.5"/>
</g>
<!-- SchoolYearService -->
<g id="node18" class="node">
<title>SchoolYearService</title>
<ellipse fill="#fdb462" stroke="black" cx="761" cy="-104" rx="85.65" ry="18"/>
<text text-anchor="middle" x="761" y="-99.8" font-family="Times,serif" font-size="14.00">SchoolYearService</text>
</g>
<!-- SchoolYearService&#45;&gt;LegacySchoolModule -->
<g id="edge17" class="edge">
<title>SchoolYearService&#45;&gt;LegacySchoolModule</title>
<path fill="none" stroke="black" d="M761,-122.02C761,-139.37 761,-163 761,-163 761,-163 1316.23,-163 1316.23,-163"/>
<polygon fill="black" stroke="black" points="1316.23,-166.5 1326.23,-163 1316.23,-159.5 1316.23,-166.5"/>
</g>
<!-- SchulconnexProvisioningOptionsUpdateService -->
<g id="node19" class="node">
<title>SchulconnexProvisioningOptionsUpdateService</title>
<ellipse fill="#fdb462" stroke="black" cx="460" cy="-104" rx="197.9" ry="18"/>
<text text-anchor="middle" x="460" y="-99.8" font-family="Times,serif" font-size="14.00">SchulconnexProvisioningOptionsUpdateService</text>
</g>
<!-- SchulconnexProvisioningOptionsUpdateService&#45;&gt;LegacySchoolModule -->
<g id="edge18" class="edge">
<title>SchulconnexProvisioningOptionsUpdateService&#45;&gt;LegacySchoolModule</title>
<path fill="none" stroke="black" d="M460,-122.22C460,-140.83 460,-167 460,-167 460,-167 1316.03,-167 1316.03,-167"/>
<polygon fill="black" stroke="black" points="1316.03,-170.5 1326.03,-167 1316.03,-163.5 1316.03,-170.5"/>
</g>
</g>
</svg>
