<?xml version="1.0" encoding="UTF-8" standalone="no"?>
<!DOCTYPE svg PUBLIC "-//W3C//DTD SVG 1.1//EN"
 "http://www.w3.org/Graphics/SVG/1.1/DTD/svg11.dtd">
<!-- Generated by graphviz version 2.47.0 (20210316.0004)
 -->
<!-- Title: dependencies Pages: 1 -->
<svg width="1530pt" height="284pt"
 viewBox="0.00 0.00 1530.00 284.00" xmlns="http://www.w3.org/2000/svg" xmlns:xlink="http://www.w3.org/1999/xlink">
<g id="graph0" class="graph" transform="scale(1 1) rotate(0) translate(4 280)">
<title>dependencies</title>
<polygon fill="white" stroke="transparent" points="-4,4 -4,-280 1526,-280 1526,4 -4,4"/>
<text text-anchor="start" x="740.01" y="-42.4" font-family="Times-12" font-weight="bold" font-size="14.00">Legend</text>
<polygon fill="#ffffb3" stroke="transparent" points="527,-10 527,-30 547,-30 547,-10 527,-10"/>
<text text-anchor="start" x="550.63" y="-15.4" font-family="Times-12" font-size="14.00"> &#160;Declarations</text>
<polygon fill="#8dd3c7" stroke="transparent" points="640,-10 640,-30 660,-30 660,-10 640,-10"/>
<text text-anchor="start" x="663.73" y="-15.4" font-family="Times-12" font-size="14.00"> &#160;Module</text>
<polygon fill="#80b1d3" stroke="transparent" points="726,-10 726,-30 746,-30 746,-10 726,-10"/>
<text text-anchor="start" x="749.78" y="-15.4" font-family="Times-12" font-size="14.00"> &#160;Bootstrap</text>
<polygon fill="#fdb462" stroke="transparent" points="823,-10 823,-30 843,-30 843,-10 823,-10"/>
<text text-anchor="start" x="846.67" y="-15.4" font-family="Times-12" font-size="14.00"> &#160;Providers</text>
<polygon fill="#fb8072" stroke="transparent" points="919,-10 919,-30 939,-30 939,-10 919,-10"/>
<text text-anchor="start" x="942.73" y="-15.4" font-family="Times-12" font-size="14.00"> &#160;Exports</text>
<g id="clust1" class="cluster">
<title>cluster_LegacySchoolModule</title>
<polygon fill="none" stroke="black" stroke-dasharray="1,5" points="8,-70 8,-268 1514,-268 1514,-70 8,-70"/>
</g>
<g id="clust3" class="cluster">
<title>cluster_LegacySchoolModule_imports</title>
<polygon fill="none" stroke="black" points="1390,-78 1390,-130 1506,-130 1506,-78 1390,-78"/>
</g>
<g id="clust4" class="cluster">
<title>cluster_LegacySchoolModule_exports</title>
<polygon fill="none" stroke="black" points="590,-208 590,-260 1044,-260 1044,-208 590,-208"/>
</g>
<g id="clust6" class="cluster">
<title>cluster_LegacySchoolModule_providers</title>
<polygon fill="none" stroke="black" points="16,-78 16,-130 1382,-130 1382,-78 16,-78"/>
</g>
<!-- LoggerModule -->
<g id="node1" class="node">
<title>LoggerModule</title>
<polygon fill="#8dd3c7" stroke="black" points="1497.98,-122 1494.98,-126 1473.98,-126 1470.98,-122 1398.02,-122 1398.02,-86 1497.98,-86 1497.98,-122"/>
<text text-anchor="middle" x="1448" y="-99.8" font-family="Times,serif" font-size="14.00">LoggerModule</text>
</g>
<!-- LegacySchoolModule -->
<g id="node2" class="node">
<title>LegacySchoolModule</title>
<polygon fill="#8dd3c7" stroke="black" points="884.63,-187 881.63,-191 860.63,-191 857.63,-187 745.37,-187 745.37,-151 884.63,-151 884.63,-187"/>
<text text-anchor="middle" x="815" y="-164.8" font-family="Times,serif" font-size="14.00">LegacySchoolModule</text>
</g>
<!-- LoggerModule&#45;&gt;LegacySchoolModule -->
<g id="edge1" class="edge">
<title>LoggerModule&#45;&gt;LegacySchoolModule</title>
<path fill="none" stroke="black" d="M1448,-122.13C1448,-142.57 1448,-173 1448,-173 1448,-173 894.86,-173 894.86,-173"/>
<polygon fill="black" stroke="black" points="894.86,-169.5 884.86,-173 894.86,-176.5 894.86,-169.5"/>
</g>
<!-- FederalStateService  -->
<g id="node3" class="node">
<title>FederalStateService </title>
<polygon fill="#fb8072" stroke="black" points="1035.95,-252 904.05,-252 904.05,-216 1035.95,-216 1035.95,-252"/>
<text text-anchor="middle" x="970" y="-229.8" font-family="Times,serif" font-size="14.00">FederalStateService </text>
</g>
<!-- LegacySchoolModule&#45;&gt;FederalStateService  -->
<g id="edge2" class="edge">
<title>LegacySchoolModule&#45;&gt;FederalStateService </title>
<path fill="none" stroke="black" stroke-dasharray="5,2" d="M884.79,-180C919.01,-180 952.97,-180 952.97,-180 952.97,-180 952.97,-205.72 952.97,-205.72"/>
<polygon fill="black" stroke="black" points="949.47,-205.72 952.97,-215.72 956.47,-205.72 949.47,-205.72"/>
</g>
<!-- LegacySchoolService  -->
<g id="node4" class="node">
<title>LegacySchoolService </title>
<polygon fill="#fb8072" stroke="black" points="885.56,-252 744.44,-252 744.44,-216 885.56,-216 885.56,-252"/>
<text text-anchor="middle" x="815" y="-229.8" font-family="Times,serif" font-size="14.00">LegacySchoolService </text>
</g>
<!-- LegacySchoolModule&#45;&gt;LegacySchoolService  -->
<g id="edge3" class="edge">
<title>LegacySchoolModule&#45;&gt;LegacySchoolService </title>
<path fill="none" stroke="black" stroke-dasharray="5,2" d="M815,-187.11C815,-187.11 815,-205.99 815,-205.99"/>
<polygon fill="black" stroke="black" points="811.5,-205.99 815,-215.99 818.5,-205.99 811.5,-205.99"/>
</g>
<!-- SchoolYearService  -->
<g id="node5" class="node">
<title>SchoolYearService </title>
<polygon fill="#fb8072" stroke="black" points="725.56,-252 598.44,-252 598.44,-216 725.56,-216 725.56,-252"/>
<text text-anchor="middle" x="662" y="-229.8" font-family="Times,serif" font-size="14.00">SchoolYearService </text>
</g>
<!-- LegacySchoolModule&#45;&gt;SchoolYearService  -->
<g id="edge4" class="edge">
<title>LegacySchoolModule&#45;&gt;SchoolYearService </title>
<path fill="none" stroke="black" stroke-dasharray="5,2" d="M745.14,-180C709.17,-180 672.77,-180 672.77,-180 672.77,-180 672.77,-205.72 672.77,-205.72"/>
<polygon fill="black" stroke="black" points="669.27,-205.72 672.77,-215.72 676.27,-205.72 669.27,-205.72"/>
</g>
<!-- FederalStateRepo -->
<g id="node6" class="node">
<title>FederalStateRepo</title>
<ellipse fill="#fdb462" stroke="black" cx="1294" cy="-104" rx="79.87" ry="18"/>
<text text-anchor="middle" x="1294" y="-99.8" font-family="Times,serif" font-size="14.00">FederalStateRepo</text>
</g>
<!-- FederalStateRepo&#45;&gt;LegacySchoolModule -->
<g id="edge5" class="edge">
<title>FederalStateRepo&#45;&gt;LegacySchoolModule</title>
<path fill="none" stroke="black" d="M1294,-122.27C1294,-140.56 1294,-166 1294,-166 1294,-166 894.65,-166 894.65,-166"/>
<polygon fill="black" stroke="black" points="894.65,-162.5 884.65,-166 894.65,-169.5 894.65,-162.5"/>
</g>
<!-- FederalStateService -->
<g id="node7" class="node">
<title>FederalStateService</title>
<ellipse fill="#fdb462" stroke="black" cx="1108" cy="-104" rx="88.01" ry="18"/>
<text text-anchor="middle" x="1108" y="-99.8" font-family="Times,serif" font-size="14.00">FederalStateService</text>
</g>
<!-- FederalStateService&#45;&gt;LegacySchoolModule -->
<g id="edge6" class="edge">
<title>FederalStateService&#45;&gt;LegacySchoolModule</title>
<path fill="none" stroke="black" d="M1027.73,-111.65C1027.73,-126.76 1027.73,-159 1027.73,-159 1027.73,-159 894.66,-159 894.66,-159"/>
<polygon fill="black" stroke="black" points="894.66,-155.5 884.66,-159 894.66,-162.5 894.66,-155.5"/>
</g>
<!-- LegacySchoolRepo -->
<g id="node8" class="node">
<title>LegacySchoolRepo</title>
<ellipse fill="#fdb462" stroke="black" cx="915" cy="-104" rx="86.82" ry="18"/>
<text text-anchor="middle" x="915" y="-99.8" font-family="Times,serif" font-size="14.00">LegacySchoolRepo</text>
</g>
<!-- LegacySchoolRepo&#45;&gt;LegacySchoolModule -->
<g id="edge7" class="edge">
<title>LegacySchoolRepo&#45;&gt;LegacySchoolModule</title>
<path fill="none" stroke="black" d="M856.58,-117.47C856.58,-117.47 856.58,-140.86 856.58,-140.86"/>
<polygon fill="black" stroke="black" points="853.08,-140.86 856.58,-150.86 860.08,-140.86 853.08,-140.86"/>
</g>
<!-- LegacySchoolService -->
<g id="node9" class="node">
<title>LegacySchoolService</title>
<ellipse fill="#fdb462" stroke="black" cx="715" cy="-104" rx="95.47" ry="18"/>
<text text-anchor="middle" x="715" y="-99.8" font-family="Times,serif" font-size="14.00">LegacySchoolService</text>
</g>
<!-- LegacySchoolService&#45;&gt;LegacySchoolModule -->
<g id="edge8" class="edge">
<title>LegacySchoolService&#45;&gt;LegacySchoolModule</title>
<path fill="none" stroke="black" d="M777.71,-117.78C777.71,-117.78 777.71,-140.55 777.71,-140.55"/>
<polygon fill="black" stroke="black" points="774.21,-140.55 777.71,-150.55 781.21,-140.55 774.21,-140.55"/>
</g>
<!-- SchoolValidationService -->
<g id="node10" class="node">
<title>SchoolValidationService</title>
<ellipse fill="#fdb462" stroke="black" cx="494" cy="-104" rx="107.66" ry="18"/>
<text text-anchor="middle" x="494" y="-99.8" font-family="Times,serif" font-size="14.00">SchoolValidationService</text>
</g>
<!-- SchoolValidationService&#45;&gt;LegacySchoolModule -->
<g id="edge9" class="edge">
<title>SchoolValidationService&#45;&gt;LegacySchoolModule</title>
<path fill="none" stroke="black" d="M492.32,-122.01C492.32,-138.05 492.32,-159 492.32,-159 492.32,-159 734.98,-159 734.98,-159"/>
<polygon fill="black" stroke="black" points="734.98,-162.5 744.98,-159 734.98,-155.5 734.98,-162.5"/>
</g>
<!-- SchoolYearRepo -->
<g id="node11" class="node">
<title>SchoolYearRepo</title>
<ellipse fill="#fdb462" stroke="black" cx="291" cy="-104" rx="77.01" ry="18"/>
<text text-anchor="middle" x="291" y="-99.8" font-family="Times,serif" font-size="14.00">SchoolYearRepo</text>
</g>
<!-- SchoolYearRepo&#45;&gt;LegacySchoolModule -->
<g id="edge10" class="edge">
<title>SchoolYearRepo&#45;&gt;LegacySchoolModule</title>
<path fill="none" stroke="black" d="M291,-122.27C291,-140.56 291,-166 291,-166 291,-166 735.15,-166 735.15,-166"/>
<polygon fill="black" stroke="black" points="735.15,-169.5 745.15,-166 735.15,-162.5 735.15,-169.5"/>
</g>
<!-- SchoolYearService -->
<g id="node12" class="node">
<title>SchoolYearService</title>
<ellipse fill="#fdb462" stroke="black" cx="110" cy="-104" rx="85.65" ry="18"/>
<text text-anchor="middle" x="110" y="-99.8" font-family="Times,serif" font-size="14.00">SchoolYearService</text>
</g>
<!-- SchoolYearService&#45;&gt;LegacySchoolModule -->
<g id="edge11" class="edge">
<title>SchoolYearService&#45;&gt;LegacySchoolModule</title>
<path fill="none" stroke="black" d="M110,-122.13C110,-142.57 110,-173 110,-173 110,-173 735.15,-173 735.15,-173"/>
<polygon fill="black" stroke="black" points="735.15,-176.5 745.15,-173 735.15,-169.5 735.15,-176.5"/>
</g>
</g>
</svg>
