<?xml version="1.0" encoding="UTF-8" standalone="no"?>
<!DOCTYPE svg PUBLIC "-//W3C//DTD SVG 1.1//EN"
 "http://www.w3.org/Graphics/SVG/1.1/DTD/svg11.dtd">
<!-- Generated by graphviz version 2.47.0 (20210316.0004)
 -->
<!-- Title: dependencies Pages: 1 -->
<svg width="697pt" height="211pt"
 viewBox="0.00 0.00 697.00 211.00" xmlns="http://www.w3.org/2000/svg" xmlns:xlink="http://www.w3.org/1999/xlink">
<g id="graph0" class="graph" transform="scale(1 1) rotate(0) translate(4 207)">
<title>dependencies</title>
<polygon fill="white" stroke="transparent" points="-4,4 -4,-207 693,-207 693,4 -4,4"/>
<text text-anchor="start" x="323.51" y="-42.4" font-family="Times-12" font-weight="bold" font-size="14.00">Legend</text>
<polygon fill="#ffffb3" stroke="transparent" points="110.5,-10 110.5,-30 130.5,-30 130.5,-10 110.5,-10"/>
<text text-anchor="start" x="134.13" y="-15.4" font-family="Times-12" font-size="14.00"> &#160;Declarations</text>
<polygon fill="#8dd3c7" stroke="transparent" points="223.5,-10 223.5,-30 243.5,-30 243.5,-10 223.5,-10"/>
<text text-anchor="start" x="247.23" y="-15.4" font-family="Times-12" font-size="14.00"> &#160;Module</text>
<polygon fill="#80b1d3" stroke="transparent" points="309.5,-10 309.5,-30 329.5,-30 329.5,-10 309.5,-10"/>
<text text-anchor="start" x="333.28" y="-15.4" font-family="Times-12" font-size="14.00"> &#160;Bootstrap</text>
<polygon fill="#fdb462" stroke="transparent" points="406.5,-10 406.5,-30 426.5,-30 426.5,-10 406.5,-10"/>
<text text-anchor="start" x="430.17" y="-15.4" font-family="Times-12" font-size="14.00"> &#160;Providers</text>
<polygon fill="#fb8072" stroke="transparent" points="502.5,-10 502.5,-30 522.5,-30 522.5,-10 502.5,-10"/>
<text text-anchor="start" x="526.23" y="-15.4" font-family="Times-12" font-size="14.00"> &#160;Exports</text>
<g id="clust1" class="cluster">
<title>cluster_MeApiModule</title>
<polygon fill="none" stroke="black" stroke-dasharray="1,5" points="8,-70 8,-195 681,-195 681,-70 8,-70"/>
</g>
<g id="clust3" class="cluster">
<title>cluster_MeApiModule_imports</title>
<polygon fill="none" stroke="black" points="294,-78 294,-130 673,-130 673,-78 294,-78"/>
</g>
<g id="clust6" class="cluster">
<title>cluster_MeApiModule_providers</title>
<polygon fill="none" stroke="black" points="16,-78 16,-130 286,-130 286,-78 16,-78"/>
</g>
<!-- AuthenticationModule -->
<g id="node1" class="node">
<title>AuthenticationModule</title>
<polygon fill="#8dd3c7" stroke="black" points="665.25,-122 662.25,-126 641.25,-126 638.25,-122 522.75,-122 522.75,-86 665.25,-86 665.25,-122"/>
<text text-anchor="middle" x="594" y="-99.8" font-family="Times,serif" font-size="14.00">AuthenticationModule</text>
</g>
<!-- MeApiModule -->
<g id="node4" class="node">
<title>MeApiModule</title>
<polygon fill="#8dd3c7" stroke="black" points="394.71,-187 391.71,-191 370.71,-191 367.71,-187 295.29,-187 295.29,-151 394.71,-151 394.71,-187"/>
<text text-anchor="middle" x="345" y="-164.8" font-family="Times,serif" font-size="14.00">MeApiModule</text>
</g>
<!-- AuthenticationModule&#45;&gt;MeApiModule -->
<g id="edge1" class="edge">
<title>AuthenticationModule&#45;&gt;MeApiModule</title>
<path fill="none" stroke="black" d="M594,-122.28C594,-143.32 594,-175 594,-175 594,-175 404.79,-175 404.79,-175"/>
<polygon fill="black" stroke="black" points="404.79,-171.5 394.79,-175 404.79,-178.5 404.79,-171.5"/>
</g>
<!-- SchoolModule -->
<g id="node2" class="node">
<title>SchoolModule</title>
<polygon fill="#8dd3c7" stroke="black" points="504.44,-122 501.44,-126 480.44,-126 477.44,-122 405.56,-122 405.56,-86 504.44,-86 504.44,-122"/>
<text text-anchor="middle" x="455" y="-99.8" font-family="Times,serif" font-size="14.00">SchoolModule</text>
</g>
<!-- SchoolModule&#45;&gt;MeApiModule -->
<g id="edge2" class="edge">
<title>SchoolModule&#45;&gt;MeApiModule</title>
<path fill="none" stroke="black" d="M455,-122.02C455,-139.37 455,-163 455,-163 455,-163 404.85,-163 404.85,-163"/>
<polygon fill="black" stroke="black" points="404.85,-159.5 394.85,-163 404.85,-166.5 404.85,-159.5"/>
</g>
<!-- UserModule -->
<g id="node3" class="node">
<title>UserModule</title>
<polygon fill="#8dd3c7" stroke="black" points="387.98,-122 384.98,-126 363.98,-126 360.98,-122 302.02,-122 302.02,-86 387.98,-86 387.98,-122"/>
<text text-anchor="middle" x="345" y="-99.8" font-family="Times,serif" font-size="14.00">UserModule</text>
</g>
<!-- UserModule&#45;&gt;MeApiModule -->
<g id="edge3" class="edge">
<title>UserModule&#45;&gt;MeApiModule</title>
<path fill="none" stroke="black" d="M345,-122.11C345,-122.11 345,-140.99 345,-140.99"/>
<polygon fill="black" stroke="black" points="341.5,-140.99 345,-150.99 348.5,-140.99 341.5,-140.99"/>
</g>
<!-- MeUc -->
<g id="node5" class="node">
<title>MeUc</title>
<ellipse fill="#fdb462" stroke="black" cx="243" cy="-104" rx="35.33" ry="18"/>
<text text-anchor="middle" x="243" y="-99.8" font-family="Times,serif" font-size="14.00">MeUc</text>
</g>
<!-- MeUc&#45;&gt;MeApiModule -->
<g id="edge4" class="edge">
<title>MeUc&#45;&gt;MeApiModule</title>
<path fill="none" stroke="black" d="M243,-122.02C243,-139.37 243,-163 243,-163 243,-163 285.2,-163 285.2,-163"/>
<polygon fill="black" stroke="black" points="285.2,-166.5 295.2,-163 285.2,-159.5 285.2,-166.5"/>
</g>
<!-- PermissionService -->
<g id="node6" class="node">
<title>PermissionService</title>
<ellipse fill="#fdb462" stroke="black" cx="107" cy="-104" rx="82.82" ry="18"/>
<text text-anchor="middle" x="107" y="-99.8" font-family="Times,serif" font-size="14.00">PermissionService</text>
</g>
<!-- PermissionService&#45;&gt;MeApiModule -->
<g id="edge5" class="edge">
<title>PermissionService&#45;&gt;MeApiModule</title>
<path fill="none" stroke="black" d="M107,-122.28C107,-143.32 107,-175 107,-175 107,-175 285.11,-175 285.11,-175"/>
<polygon fill="black" stroke="black" points="285.11,-178.5 295.11,-175 285.11,-171.5 285.11,-178.5"/>
</g>
</g>
</svg>
