<?xml version="1.0" encoding="UTF-8" standalone="no"?>
<!DOCTYPE svg PUBLIC "-//W3C//DTD SVG 1.1//EN"
 "http://www.w3.org/Graphics/SVG/1.1/DTD/svg11.dtd">
<!-- Generated by graphviz version 2.47.0 (20210316.0004)
 -->
<!-- Title: dependencies Pages: 1 -->
<svg width="751pt" height="211pt"
 viewBox="0.00 0.00 751.00 211.00" xmlns="http://www.w3.org/2000/svg" xmlns:xlink="http://www.w3.org/1999/xlink">
<g id="graph0" class="graph" transform="scale(1 1) rotate(0) translate(4 207)">
<title>dependencies</title>
<polygon fill="white" stroke="transparent" points="-4,4 -4,-207 747,-207 747,4 -4,4"/>
<text text-anchor="start" x="350.51" y="-42.4" font-family="Times-12" font-weight="bold" font-size="14.00">Legend</text>
<polygon fill="#ffffb3" stroke="transparent" points="137.5,-10 137.5,-30 157.5,-30 157.5,-10 137.5,-10"/>
<text text-anchor="start" x="161.13" y="-15.4" font-family="Times-12" font-size="14.00"> &#160;Declarations</text>
<polygon fill="#8dd3c7" stroke="transparent" points="250.5,-10 250.5,-30 270.5,-30 270.5,-10 250.5,-10"/>
<text text-anchor="start" x="274.23" y="-15.4" font-family="Times-12" font-size="14.00"> &#160;Module</text>
<polygon fill="#80b1d3" stroke="transparent" points="336.5,-10 336.5,-30 356.5,-30 356.5,-10 336.5,-10"/>
<text text-anchor="start" x="360.28" y="-15.4" font-family="Times-12" font-size="14.00"> &#160;Bootstrap</text>
<polygon fill="#fdb462" stroke="transparent" points="433.5,-10 433.5,-30 453.5,-30 453.5,-10 433.5,-10"/>
<text text-anchor="start" x="457.17" y="-15.4" font-family="Times-12" font-size="14.00"> &#160;Providers</text>
<polygon fill="#fb8072" stroke="transparent" points="529.5,-10 529.5,-30 549.5,-30 549.5,-10 529.5,-10"/>
<text text-anchor="start" x="553.23" y="-15.4" font-family="Times-12" font-size="14.00"> &#160;Exports</text>
<g id="clust1" class="cluster">
<title>cluster_MeApiModule</title>
<polygon fill="none" stroke="black" stroke-dasharray="1,5" points="8,-70 8,-195 735,-195 735,-70 8,-70"/>
</g>
<g id="clust6" class="cluster">
<title>cluster_MeApiModule_providers</title>
<polygon fill="none" stroke="black" points="403,-78 403,-130 727,-130 727,-78 403,-78"/>
</g>
<g id="clust3" class="cluster">
<title>cluster_MeApiModule_imports</title>
<polygon fill="none" stroke="black" points="16,-78 16,-130 395,-130 395,-78 16,-78"/>
</g>
<!-- AuthenticationModule -->
<g id="node1" class="node">
<title>AuthenticationModule</title>
<polygon fill="#8dd3c7" stroke="black" points="387.25,-122 384.25,-126 363.25,-126 360.25,-122 244.75,-122 244.75,-86 387.25,-86 387.25,-122"/>
<text text-anchor="middle" x="316" y="-99.8" font-family="Times,serif" font-size="14.00">AuthenticationModule</text>
</g>
<!-- MeApiModule -->
<g id="node4" class="node">
<title>MeApiModule</title>
<polygon fill="#8dd3c7" stroke="black" points="365.71,-187 362.71,-191 341.71,-191 338.71,-187 266.29,-187 266.29,-151 365.71,-151 365.71,-187"/>
<text text-anchor="middle" x="316" y="-164.8" font-family="Times,serif" font-size="14.00">MeApiModule</text>
</g>
<!-- AuthenticationModule&#45;&gt;MeApiModule -->
<g id="edge1" class="edge">
<title>AuthenticationModule&#45;&gt;MeApiModule</title>
<path fill="none" stroke="black" d="M316,-122.11C316,-122.11 316,-140.99 316,-140.99"/>
<polygon fill="black" stroke="black" points="312.5,-140.99 316,-150.99 319.5,-140.99 312.5,-140.99"/>
</g>
<!-- SchoolModule -->
<g id="node2" class="node">
<title>SchoolModule</title>
<polygon fill="#8dd3c7" stroke="black" points="226.44,-122 223.44,-126 202.44,-126 199.44,-122 127.56,-122 127.56,-86 226.44,-86 226.44,-122"/>
<text text-anchor="middle" x="177" y="-99.8" font-family="Times,serif" font-size="14.00">SchoolModule</text>
</g>
<!-- SchoolModule&#45;&gt;MeApiModule -->
<g id="edge2" class="edge">
<title>SchoolModule&#45;&gt;MeApiModule</title>
<path fill="none" stroke="black" d="M177,-122.02C177,-139.37 177,-163 177,-163 177,-163 256.21,-163 256.21,-163"/>
<polygon fill="black" stroke="black" points="256.21,-166.5 266.21,-163 256.21,-159.5 256.21,-166.5"/>
</g>
<!-- UserModule -->
<g id="node3" class="node">
<title>UserModule</title>
<polygon fill="#8dd3c7" stroke="black" points="109.98,-122 106.98,-126 85.98,-126 82.98,-122 24.02,-122 24.02,-86 109.98,-86 109.98,-122"/>
<text text-anchor="middle" x="67" y="-99.8" font-family="Times,serif" font-size="14.00">UserModule</text>
</g>
<!-- UserModule&#45;&gt;MeApiModule -->
<g id="edge3" class="edge">
<title>UserModule&#45;&gt;MeApiModule</title>
<path fill="none" stroke="black" d="M67,-122.28C67,-143.32 67,-175 67,-175 67,-175 256.21,-175 256.21,-175"/>
<polygon fill="black" stroke="black" points="256.21,-178.5 266.21,-175 256.21,-171.5 256.21,-178.5"/>
</g>
<!-- MeUc -->
<g id="node5" class="node">
<title>MeUc</title>
<ellipse fill="#fdb462" stroke="black" cx="684" cy="-104" rx="35.33" ry="18"/>
<text text-anchor="middle" x="684" y="-99.8" font-family="Times,serif" font-size="14.00">MeUc</text>
</g>
<!-- MeUc&#45;&gt;MeApiModule -->
<g id="edge4" class="edge">
<title>MeUc&#45;&gt;MeApiModule</title>
<path fill="none" stroke="black" d="M684,-122.28C684,-143.32 684,-175 684,-175 684,-175 375.63,-175 375.63,-175"/>
<polygon fill="black" stroke="black" points="375.63,-171.5 365.63,-175 375.63,-178.5 375.63,-171.5"/>
</g>
<!-- SchoolPermissionService -->
<g id="node6" class="node">
<title>SchoolPermissionService</title>
<ellipse fill="#fdb462" stroke="black" cx="521" cy="-104" rx="109.97" ry="18"/>
<text text-anchor="middle" x="521" y="-99.8" font-family="Times,serif" font-size="14.00">SchoolPermissionService</text>
</g>
<!-- SchoolPermissionService&#45;&gt;MeApiModule -->
<g id="edge5" class="edge">
<title>SchoolPermissionService&#45;&gt;MeApiModule</title>
<path fill="none" stroke="black" d="M521,-122.02C521,-139.37 521,-163 521,-163 521,-163 375.62,-163 375.62,-163"/>
<polygon fill="black" stroke="black" points="375.62,-159.5 365.62,-163 375.62,-166.5 375.62,-159.5"/>
</g>
</g>
</svg>
