<?xml version="1.0" encoding="UTF-8" standalone="no"?>
<!DOCTYPE svg PUBLIC "-//W3C//DTD SVG 1.1//EN"
 "http://www.w3.org/Graphics/SVG/1.1/DTD/svg11.dtd">
<!-- Generated by graphviz version 2.47.0 (20210316.0004)
 -->
<!-- Title: dependencies Pages: 1 -->
<svg width="513pt" height="211pt"
 viewBox="0.00 0.00 513.00 211.00" xmlns="http://www.w3.org/2000/svg" xmlns:xlink="http://www.w3.org/1999/xlink">
<g id="graph0" class="graph" transform="scale(1 1) rotate(0) translate(4 207)">
<title>dependencies</title>
<polygon fill="white" stroke="transparent" points="-4,4 -4,-207 509,-207 509,4 -4,4"/>
<text text-anchor="start" x="231.51" y="-42.4" font-family="Times-12" font-weight="bold" font-size="14.00">Legend</text>
<polygon fill="#ffffb3" stroke="transparent" points="18.5,-10 18.5,-30 38.5,-30 38.5,-10 18.5,-10"/>
<text text-anchor="start" x="42.13" y="-15.4" font-family="Times-12" font-size="14.00"> &#160;Declarations</text>
<polygon fill="#8dd3c7" stroke="transparent" points="131.5,-10 131.5,-30 151.5,-30 151.5,-10 131.5,-10"/>
<text text-anchor="start" x="155.23" y="-15.4" font-family="Times-12" font-size="14.00"> &#160;Module</text>
<polygon fill="#80b1d3" stroke="transparent" points="217.5,-10 217.5,-30 237.5,-30 237.5,-10 217.5,-10"/>
<text text-anchor="start" x="241.28" y="-15.4" font-family="Times-12" font-size="14.00"> &#160;Bootstrap</text>
<polygon fill="#fdb462" stroke="transparent" points="314.5,-10 314.5,-30 334.5,-30 334.5,-10 314.5,-10"/>
<text text-anchor="start" x="338.17" y="-15.4" font-family="Times-12" font-size="14.00"> &#160;Providers</text>
<polygon fill="#fb8072" stroke="transparent" points="410.5,-10 410.5,-30 430.5,-30 430.5,-10 410.5,-10"/>
<text text-anchor="start" x="434.23" y="-15.4" font-family="Times-12" font-size="14.00"> &#160;Exports</text>
<g id="clust1" class="cluster">
<title>cluster_MeApiModule</title>
<polygon fill="none" stroke="black" stroke-dasharray="1,5" points="8,-70 8,-195 497,-195 497,-70 8,-70"/>
</g>
<g id="clust6" class="cluster">
<title>cluster_MeApiModule_providers</title>
<polygon fill="none" stroke="black" points="403,-78 403,-130 489,-130 489,-78 403,-78"/>
</g>
<g id="clust3" class="cluster">
<title>cluster_MeApiModule_imports</title>
<polygon fill="none" stroke="black" points="16,-78 16,-130 395,-130 395,-78 16,-78"/>
</g>
<!-- AuthenticationModule -->
<g id="node1" class="node">
<title>AuthenticationModule</title>
<polygon fill="#8dd3c7" stroke="black" points="387.25,-122 384.25,-126 363.25,-126 360.25,-122 244.75,-122 244.75,-86 387.25,-86 387.25,-122"/>
<text text-anchor="middle" x="316" y="-99.8" font-family="Times,serif" font-size="14.00">AuthenticationModule</text>
</g>
<!-- MeApiModule -->
<g id="node4" class="node">
<title>MeApiModule</title>
<polygon fill="#8dd3c7" stroke="black" points="295.71,-187 292.71,-191 271.71,-191 268.71,-187 196.29,-187 196.29,-151 295.71,-151 295.71,-187"/>
<text text-anchor="middle" x="246" y="-164.8" font-family="Times,serif" font-size="14.00">MeApiModule</text>
</g>
<!-- AuthenticationModule&#45;&gt;MeApiModule -->
<g id="edge1" class="edge">
<title>AuthenticationModule&#45;&gt;MeApiModule</title>
<path fill="none" stroke="black" d="M270.11,-122.11C270.11,-122.11 270.11,-140.99 270.11,-140.99"/>
<polygon fill="black" stroke="black" points="266.61,-140.99 270.11,-150.99 273.61,-140.99 266.61,-140.99"/>
</g>
<!-- SchoolModule -->
<g id="node2" class="node">
<title>SchoolModule</title>
<polygon fill="#8dd3c7" stroke="black" points="226.44,-122 223.44,-126 202.44,-126 199.44,-122 127.56,-122 127.56,-86 226.44,-86 226.44,-122"/>
<text text-anchor="middle" x="177" y="-99.8" font-family="Times,serif" font-size="14.00">SchoolModule</text>
</g>
<!-- SchoolModule&#45;&gt;MeApiModule -->
<g id="edge2" class="edge">
<title>SchoolModule&#45;&gt;MeApiModule</title>
<path fill="none" stroke="black" d="M211.31,-122.11C211.31,-122.11 211.31,-140.99 211.31,-140.99"/>
<polygon fill="black" stroke="black" points="207.81,-140.99 211.31,-150.99 214.81,-140.99 207.81,-140.99"/>
</g>
<!-- UserModule -->
<g id="node3" class="node">
<title>UserModule</title>
<polygon fill="#8dd3c7" stroke="black" points="109.98,-122 106.98,-126 85.98,-126 82.98,-122 24.02,-122 24.02,-86 109.98,-86 109.98,-122"/>
<text text-anchor="middle" x="67" y="-99.8" font-family="Times,serif" font-size="14.00">UserModule</text>
</g>
<!-- UserModule&#45;&gt;MeApiModule -->
<g id="edge3" class="edge">
<title>UserModule&#45;&gt;MeApiModule</title>
<path fill="none" stroke="black" d="M67,-122.11C67,-141.34 67,-169 67,-169 67,-169 186.14,-169 186.14,-169"/>
<polygon fill="black" stroke="black" points="186.14,-172.5 196.14,-169 186.14,-165.5 186.14,-172.5"/>
</g>
<!-- MeUc -->
<g id="node5" class="node">
<title>MeUc</title>
<ellipse fill="#fdb462" stroke="black" cx="446" cy="-104" rx="35.33" ry="18"/>
<text text-anchor="middle" x="446" y="-99.8" font-family="Times,serif" font-size="14.00">MeUc</text>
</g>
<!-- MeUc&#45;&gt;MeApiModule -->
<g id="edge4" class="edge">
<title>MeUc&#45;&gt;MeApiModule</title>
<path fill="none" stroke="black" d="M446,-122.11C446,-141.34 446,-169 446,-169 446,-169 305.7,-169 305.7,-169"/>
<polygon fill="black" stroke="black" points="305.7,-165.5 295.7,-169 305.7,-172.5 305.7,-165.5"/>
</g>
</g>
</svg>
