<?xml version="1.0" encoding="UTF-8" standalone="no"?>
<!DOCTYPE svg PUBLIC "-//W3C//DTD SVG 1.1//EN"
 "http://www.w3.org/Graphics/SVG/1.1/DTD/svg11.dtd">
<!-- Generated by graphviz version 2.47.0 (20210316.0004)
 -->
<!-- Title: dependencies Pages: 1 -->
<svg width="751pt" height="211pt"
 viewBox="0.00 0.00 751.00 211.00" xmlns="http://www.w3.org/2000/svg" xmlns:xlink="http://www.w3.org/1999/xlink">
<g id="graph0" class="graph" transform="scale(1 1) rotate(0) translate(4 207)">
<title>dependencies</title>
<polygon fill="white" stroke="transparent" points="-4,4 -4,-207 747,-207 747,4 -4,4"/>
<text text-anchor="start" x="350.51" y="-42.4" font-family="Times-12" font-weight="bold" font-size="14.00">Legend</text>
<polygon fill="#ffffb3" stroke="transparent" points="137.5,-10 137.5,-30 157.5,-30 157.5,-10 137.5,-10"/>
<text text-anchor="start" x="161.13" y="-15.4" font-family="Times-12" font-size="14.00"> &#160;Declarations</text>
<polygon fill="#8dd3c7" stroke="transparent" points="250.5,-10 250.5,-30 270.5,-30 270.5,-10 250.5,-10"/>
<text text-anchor="start" x="274.23" y="-15.4" font-family="Times-12" font-size="14.00"> &#160;Module</text>
<polygon fill="#80b1d3" stroke="transparent" points="336.5,-10 336.5,-30 356.5,-30 356.5,-10 336.5,-10"/>
<text text-anchor="start" x="360.28" y="-15.4" font-family="Times-12" font-size="14.00"> &#160;Bootstrap</text>
<polygon fill="#fdb462" stroke="transparent" points="433.5,-10 433.5,-30 453.5,-30 453.5,-10 433.5,-10"/>
<text text-anchor="start" x="457.17" y="-15.4" font-family="Times-12" font-size="14.00"> &#160;Providers</text>
<polygon fill="#fb8072" stroke="transparent" points="529.5,-10 529.5,-30 549.5,-30 549.5,-10 529.5,-10"/>
<text text-anchor="start" x="553.23" y="-15.4" font-family="Times-12" font-size="14.00"> &#160;Exports</text>
<g id="clust1" class="cluster">
<title>cluster_MeApiModule</title>
<polygon fill="none" stroke="black" stroke-dasharray="1,5" points="8,-70 8,-195 735,-195 735,-70 8,-70"/>
</g>
<g id="clust3" class="cluster">
<title>cluster_MeApiModule_imports</title>
<polygon fill="none" stroke="black" points="348,-78 348,-130 727,-130 727,-78 348,-78"/>
</g>
<g id="clust6" class="cluster">
<title>cluster_MeApiModule_providers</title>
<polygon fill="none" stroke="black" points="16,-78 16,-130 340,-130 340,-78 16,-78"/>
</g>
<!-- AuthenticationModule -->
<g id="node1" class="node">
<title>AuthenticationModule</title>
<polygon fill="#8dd3c7" stroke="black" points="719.25,-122 716.25,-126 695.25,-126 692.25,-122 576.75,-122 576.75,-86 719.25,-86 719.25,-122"/>
<text text-anchor="middle" x="648" y="-99.8" font-family="Times,serif" font-size="14.00">AuthenticationModule</text>
</g>
<!-- MeApiModule -->
<g id="node4" class="node">
<title>MeApiModule</title>
<polygon fill="#8dd3c7" stroke="black" points="448.71,-187 445.71,-191 424.71,-191 421.71,-187 349.29,-187 349.29,-151 448.71,-151 448.71,-187"/>
<text text-anchor="middle" x="399" y="-164.8" font-family="Times,serif" font-size="14.00">MeApiModule</text>
</g>
<!-- AuthenticationModule&#45;&gt;MeApiModule -->
<g id="edge1" class="edge">
<title>AuthenticationModule&#45;&gt;MeApiModule</title>
<path fill="none" stroke="black" d="M648,-122.28C648,-143.32 648,-175 648,-175 648,-175 458.79,-175 458.79,-175"/>
<polygon fill="black" stroke="black" points="458.79,-171.5 448.79,-175 458.79,-178.5 458.79,-171.5"/>
</g>
<!-- SchoolModule -->
<g id="node2" class="node">
<title>SchoolModule</title>
<polygon fill="#8dd3c7" stroke="black" points="558.44,-122 555.44,-126 534.44,-126 531.44,-122 459.56,-122 459.56,-86 558.44,-86 558.44,-122"/>
<text text-anchor="middle" x="509" y="-99.8" font-family="Times,serif" font-size="14.00">SchoolModule</text>
</g>
<!-- SchoolModule&#45;&gt;MeApiModule -->
<g id="edge2" class="edge">
<title>SchoolModule&#45;&gt;MeApiModule</title>
<path fill="none" stroke="black" d="M509,-122.02C509,-139.37 509,-163 509,-163 509,-163 458.85,-163 458.85,-163"/>
<polygon fill="black" stroke="black" points="458.85,-159.5 448.85,-163 458.85,-166.5 458.85,-159.5"/>
</g>
<!-- UserModule -->
<g id="node3" class="node">
<title>UserModule</title>
<polygon fill="#8dd3c7" stroke="black" points="441.98,-122 438.98,-126 417.98,-126 414.98,-122 356.02,-122 356.02,-86 441.98,-86 441.98,-122"/>
<text text-anchor="middle" x="399" y="-99.8" font-family="Times,serif" font-size="14.00">UserModule</text>
</g>
<!-- UserModule&#45;&gt;MeApiModule -->
<g id="edge3" class="edge">
<title>UserModule&#45;&gt;MeApiModule</title>
<path fill="none" stroke="black" d="M399,-122.11C399,-122.11 399,-140.99 399,-140.99"/>
<polygon fill="black" stroke="black" points="395.5,-140.99 399,-150.99 402.5,-140.99 395.5,-140.99"/>
</g>
<!-- MeUc -->
<g id="node5" class="node">
<title>MeUc</title>
<ellipse fill="#fdb462" stroke="black" cx="297" cy="-104" rx="35.33" ry="18"/>
<text text-anchor="middle" x="297" y="-99.8" font-family="Times,serif" font-size="14.00">MeUc</text>
</g>
<!-- MeUc&#45;&gt;MeApiModule -->
<g id="edge4" class="edge">
<title>MeUc&#45;&gt;MeApiModule</title>
<path fill="none" stroke="black" d="M297,-122.02C297,-139.37 297,-163 297,-163 297,-163 339.2,-163 339.2,-163"/>
<polygon fill="black" stroke="black" points="339.2,-166.5 349.2,-163 339.2,-159.5 339.2,-166.5"/>
</g>
<!-- SchoolPermissionService -->
<g id="node6" class="node">
<title>SchoolPermissionService</title>
<ellipse fill="#fdb462" stroke="black" cx="134" cy="-104" rx="109.97" ry="18"/>
<text text-anchor="middle" x="134" y="-99.8" font-family="Times,serif" font-size="14.00">SchoolPermissionService</text>
</g>
<!-- SchoolPermissionService&#45;&gt;MeApiModule -->
<g id="edge5" class="edge">
<title>SchoolPermissionService&#45;&gt;MeApiModule</title>
<path fill="none" stroke="black" d="M134,-122.28C134,-143.32 134,-175 134,-175 134,-175 339.16,-175 339.16,-175"/>
<polygon fill="black" stroke="black" points="339.16,-178.5 349.16,-175 339.16,-171.5 339.16,-178.5"/>
</g>
</g>
</svg>
