<?xml version="1.0" encoding="UTF-8" standalone="no"?>
<!DOCTYPE svg PUBLIC "-//W3C//DTD SVG 1.1//EN"
 "http://www.w3.org/Graphics/SVG/1.1/DTD/svg11.dtd">
<!-- Generated by graphviz version 2.47.0 (20210316.0004)
 -->
<!-- Title: dependencies Pages: 1 -->
<svg width="2445pt" height="284pt"
 viewBox="0.00 0.00 2445.00 284.00" xmlns="http://www.w3.org/2000/svg" xmlns:xlink="http://www.w3.org/1999/xlink">
<g id="graph0" class="graph" transform="scale(1 1) rotate(0) translate(4 280)">
<title>dependencies</title>
<polygon fill="white" stroke="transparent" points="-4,4 -4,-280 2441,-280 2441,4 -4,4"/>
<text text-anchor="start" x="1197.51" y="-42.4" font-family="Times-12" font-weight="bold" font-size="14.00">Legend</text>
<polygon fill="#ffffb3" stroke="transparent" points="984.5,-10 984.5,-30 1004.5,-30 1004.5,-10 984.5,-10"/>
<text text-anchor="start" x="1008.13" y="-15.4" font-family="Times-12" font-size="14.00"> &#160;Declarations</text>
<polygon fill="#8dd3c7" stroke="transparent" points="1097.5,-10 1097.5,-30 1117.5,-30 1117.5,-10 1097.5,-10"/>
<text text-anchor="start" x="1121.23" y="-15.4" font-family="Times-12" font-size="14.00"> &#160;Module</text>
<polygon fill="#80b1d3" stroke="transparent" points="1183.5,-10 1183.5,-30 1203.5,-30 1203.5,-10 1183.5,-10"/>
<text text-anchor="start" x="1207.28" y="-15.4" font-family="Times-12" font-size="14.00"> &#160;Bootstrap</text>
<polygon fill="#fdb462" stroke="transparent" points="1280.5,-10 1280.5,-30 1300.5,-30 1300.5,-10 1280.5,-10"/>
<text text-anchor="start" x="1304.17" y="-15.4" font-family="Times-12" font-size="14.00"> &#160;Providers</text>
<polygon fill="#fb8072" stroke="transparent" points="1376.5,-10 1376.5,-30 1396.5,-30 1396.5,-10 1376.5,-10"/>
<text text-anchor="start" x="1400.23" y="-15.4" font-family="Times-12" font-size="14.00"> &#160;Exports</text>
<g id="clust1" class="cluster">
<title>cluster_ToolLaunchModule</title>
<polygon fill="none" stroke="black" stroke-dasharray="1,5" points="8,-70 8,-268 2429,-268 2429,-70 8,-70"/>
</g>
<g id="clust3" class="cluster">
<title>cluster_ToolLaunchModule_imports</title>
<polygon fill="none" stroke="black" points="1184,-78 1184,-130 2421,-130 2421,-78 1184,-78"/>
</g>
<g id="clust6" class="cluster">
<title>cluster_ToolLaunchModule_providers</title>
<polygon fill="none" stroke="black" points="16,-78 16,-130 1176,-130 1176,-78 16,-78"/>
</g>
<g id="clust4" class="cluster">
<title>cluster_ToolLaunchModule_exports</title>
<polygon fill="none" stroke="black" points="1309,-208 1309,-260 1455,-260 1455,-208 1309,-208"/>
</g>
<!-- CommonToolModule -->
<g id="node1" class="node">
<title>CommonToolModule</title>
<polygon fill="#8dd3c7" stroke="black" points="2413.11,-122 2410.11,-126 2389.11,-126 2386.11,-122 2274.89,-122 2274.89,-86 2413.11,-86 2413.11,-122"/>
<text text-anchor="middle" x="2344" y="-99.8" font-family="Times,serif" font-size="14.00">CommonToolModule</text>
</g>
<!-- ToolLaunchModule -->
<g id="node9" class="node">
<title>ToolLaunchModule</title>
<polygon fill="#8dd3c7" stroke="black" points="1445.97,-187 1442.97,-191 1421.97,-191 1418.97,-187 1318.03,-187 1318.03,-151 1445.97,-151 1445.97,-187"/>
<text text-anchor="middle" x="1382" y="-164.8" font-family="Times,serif" font-size="14.00">ToolLaunchModule</text>
</g>
<!-- CommonToolModule&#45;&gt;ToolLaunchModule -->
<g id="edge1" class="edge">
<title>CommonToolModule&#45;&gt;ToolLaunchModule</title>
<path fill="none" stroke="black" d="M2344,-122.09C2344,-145.13 2344,-182 2344,-182 2344,-182 1456.24,-182 1456.24,-182"/>
<polygon fill="black" stroke="black" points="1456.24,-178.5 1446.24,-182 1456.24,-185.5 1456.24,-178.5"/>
</g>
<!-- ContextExternalToolModule -->
<g id="node2" class="node">
<title>ContextExternalToolModule</title>
<polygon fill="#8dd3c7" stroke="black" points="2256.75,-122 2253.75,-126 2232.75,-126 2229.75,-122 2079.25,-122 2079.25,-86 2256.75,-86 2256.75,-122"/>
<text text-anchor="middle" x="2168" y="-99.8" font-family="Times,serif" font-size="14.00">ContextExternalToolModule</text>
</g>
<!-- ContextExternalToolModule&#45;&gt;ToolLaunchModule -->
<g id="edge2" class="edge">
<title>ContextExternalToolModule&#45;&gt;ToolLaunchModule</title>
<path fill="none" stroke="black" d="M2168,-122.04C2168,-143.66 2168,-177 2168,-177 2168,-177 1455.99,-177 1455.99,-177"/>
<polygon fill="black" stroke="black" points="1455.99,-173.5 1445.99,-177 1455.99,-180.5 1455.99,-173.5"/>
</g>
<!-- ExternalToolModule -->
<g id="node3" class="node">
<title>ExternalToolModule</title>
<polygon fill="#8dd3c7" stroke="black" points="2060.92,-122 2057.92,-126 2036.92,-126 2033.92,-122 1927.08,-122 1927.08,-86 2060.92,-86 2060.92,-122"/>
<text text-anchor="middle" x="1994" y="-99.8" font-family="Times,serif" font-size="14.00">ExternalToolModule</text>
</g>
<!-- ExternalToolModule&#45;&gt;ToolLaunchModule -->
<g id="edge3" class="edge">
<title>ExternalToolModule&#45;&gt;ToolLaunchModule</title>
<path fill="none" stroke="black" d="M1994,-122.22C1994,-142.37 1994,-172 1994,-172 1994,-172 1456.05,-172 1456.05,-172"/>
<polygon fill="black" stroke="black" points="1456.05,-168.5 1446.05,-172 1456.05,-175.5 1456.05,-168.5"/>
</g>
<!-- LearnroomModule -->
<g id="node4" class="node">
<title>LearnroomModule</title>
<polygon fill="#8dd3c7" stroke="black" points="1908.74,-122 1905.74,-126 1884.74,-126 1881.74,-122 1787.26,-122 1787.26,-86 1908.74,-86 1908.74,-122"/>
<text text-anchor="middle" x="1848" y="-99.8" font-family="Times,serif" font-size="14.00">LearnroomModule</text>
</g>
<!-- LearnroomModule&#45;&gt;ToolLaunchModule -->
<g id="edge4" class="edge">
<title>LearnroomModule&#45;&gt;ToolLaunchModule</title>
<path fill="none" stroke="black" d="M1848,-122.22C1848,-140.83 1848,-167 1848,-167 1848,-167 1456.31,-167 1456.31,-167"/>
<polygon fill="black" stroke="black" points="1456.31,-163.5 1446.31,-167 1456.31,-170.5 1456.31,-163.5"/>
</g>
<!-- LegacySchoolModule -->
<g id="node5" class="node">
<title>LegacySchoolModule</title>
<polygon fill="#8dd3c7" stroke="black" points="1768.63,-122 1765.63,-126 1744.63,-126 1741.63,-122 1629.37,-122 1629.37,-86 1768.63,-86 1768.63,-122"/>
<text text-anchor="middle" x="1699" y="-99.8" font-family="Times,serif" font-size="14.00">LegacySchoolModule</text>
</g>
<!-- LegacySchoolModule&#45;&gt;ToolLaunchModule -->
<g id="edge5" class="edge">
<title>LegacySchoolModule&#45;&gt;ToolLaunchModule</title>
<path fill="none" stroke="black" d="M1699,-122.03C1699,-139.06 1699,-162 1699,-162 1699,-162 1456.15,-162 1456.15,-162"/>
<polygon fill="black" stroke="black" points="1456.15,-158.5 1446.15,-162 1456.15,-165.5 1456.15,-158.5"/>
</g>
<!-- PseudonymModule -->
<g id="node6" class="node">
<title>PseudonymModule</title>
<polygon fill="#8dd3c7" stroke="black" points="1611.38,-122 1608.38,-126 1587.38,-126 1584.38,-122 1486.62,-122 1486.62,-86 1611.38,-86 1611.38,-122"/>
<text text-anchor="middle" x="1549" y="-99.8" font-family="Times,serif" font-size="14.00">PseudonymModule</text>
</g>
<!-- PseudonymModule&#45;&gt;ToolLaunchModule -->
<g id="edge6" class="edge">
<title>PseudonymModule&#45;&gt;ToolLaunchModule</title>
<path fill="none" stroke="black" d="M1549,-122.24C1549,-137.57 1549,-157 1549,-157 1549,-157 1456.09,-157 1456.09,-157"/>
<polygon fill="black" stroke="black" points="1456.09,-153.5 1446.09,-157 1456.09,-160.5 1456.09,-153.5"/>
</g>
<!-- SchoolExternalToolModule -->
<g id="node7" class="node">
<title>SchoolExternalToolModule</title>
<polygon fill="#8dd3c7" stroke="black" points="1468.3,-122 1465.3,-126 1444.3,-126 1441.3,-122 1295.7,-122 1295.7,-86 1468.3,-86 1468.3,-122"/>
<text text-anchor="middle" x="1382" y="-99.8" font-family="Times,serif" font-size="14.00">SchoolExternalToolModule</text>
</g>
<!-- SchoolExternalToolModule&#45;&gt;ToolLaunchModule -->
<g id="edge7" class="edge">
<title>SchoolExternalToolModule&#45;&gt;ToolLaunchModule</title>
<path fill="none" stroke="black" d="M1382,-122.11C1382,-122.11 1382,-140.99 1382,-140.99"/>
<polygon fill="black" stroke="black" points="1378.5,-140.99 1382,-150.99 1385.5,-140.99 1378.5,-140.99"/>
</g>
<!-- UserModule -->
<g id="node8" class="node">
<title>UserModule</title>
<polygon fill="#8dd3c7" stroke="black" points="1277.98,-122 1274.98,-126 1253.98,-126 1250.98,-122 1192.02,-122 1192.02,-86 1277.98,-86 1277.98,-122"/>
<text text-anchor="middle" x="1235" y="-99.8" font-family="Times,serif" font-size="14.00">UserModule</text>
</g>
<!-- UserModule&#45;&gt;ToolLaunchModule -->
<g id="edge8" class="edge">
<title>UserModule&#45;&gt;ToolLaunchModule</title>
<path fill="none" stroke="black" d="M1235,-122.24C1235,-137.57 1235,-157 1235,-157 1235,-157 1307.95,-157 1307.95,-157"/>
<polygon fill="black" stroke="black" points="1307.95,-160.5 1317.95,-157 1307.95,-153.5 1307.95,-160.5"/>
</g>
<!-- ToolLaunchService  -->
<g id="node10" class="node">
<title>ToolLaunchService </title>
<polygon fill="#fb8072" stroke="black" points="1446.9,-252 1317.1,-252 1317.1,-216 1446.9,-216 1446.9,-252"/>
<text text-anchor="middle" x="1382" y="-229.8" font-family="Times,serif" font-size="14.00">ToolLaunchService </text>
</g>
<!-- ToolLaunchModule&#45;&gt;ToolLaunchService  -->
<g id="edge9" class="edge">
<title>ToolLaunchModule&#45;&gt;ToolLaunchService </title>
<path fill="none" stroke="black" stroke-dasharray="5,2" d="M1382,-187.11C1382,-187.11 1382,-205.99 1382,-205.99"/>
<polygon fill="black" stroke="black" points="1378.5,-205.99 1382,-215.99 1385.5,-205.99 1378.5,-205.99"/>
</g>
<!-- BasicToolLaunchStrategy -->
<g id="node11" class="node">
<title>BasicToolLaunchStrategy</title>
<ellipse fill="#fdb462" stroke="black" cx="1056" cy="-104" rx="111.74" ry="18"/>
<text text-anchor="middle" x="1056" y="-99.8" font-family="Times,serif" font-size="14.00">BasicToolLaunchStrategy</text>
</g>
<!-- BasicToolLaunchStrategy&#45;&gt;ToolLaunchModule -->
<g id="edge10" class="edge">
<title>BasicToolLaunchStrategy&#45;&gt;ToolLaunchModule</title>
<path fill="none" stroke="black" d="M1056,-122.03C1056,-139.06 1056,-162 1056,-162 1056,-162 1307.98,-162 1307.98,-162"/>
<polygon fill="black" stroke="black" points="1307.98,-165.5 1317.98,-162 1307.98,-158.5 1307.98,-165.5"/>
</g>
<!-- Lti11EncryptionService -->
<g id="node12" class="node">
<title>Lti11EncryptionService</title>
<ellipse fill="#fdb462" stroke="black" cx="822" cy="-104" rx="103.65" ry="18"/>
<text text-anchor="middle" x="822" y="-99.8" font-family="Times,serif" font-size="14.00">Lti11EncryptionService</text>
</g>
<!-- Lti11EncryptionService&#45;&gt;ToolLaunchModule -->
<g id="edge11" class="edge">
<title>Lti11EncryptionService&#45;&gt;ToolLaunchModule</title>
<path fill="none" stroke="black" d="M822,-122.22C822,-140.83 822,-167 822,-167 822,-167 1307.76,-167 1307.76,-167"/>
<polygon fill="black" stroke="black" points="1307.76,-170.5 1317.76,-167 1307.76,-163.5 1307.76,-170.5"/>
</g>
<!-- Lti11ToolLaunchStrategy -->
<g id="node13" class="node">
<title>Lti11ToolLaunchStrategy</title>
<ellipse fill="#fdb462" stroke="black" cx="589" cy="-104" rx="111.18" ry="18"/>
<text text-anchor="middle" x="589" y="-99.8" font-family="Times,serif" font-size="14.00">Lti11ToolLaunchStrategy</text>
</g>
<!-- Lti11ToolLaunchStrategy&#45;&gt;ToolLaunchModule -->
<g id="edge12" class="edge">
<title>Lti11ToolLaunchStrategy&#45;&gt;ToolLaunchModule</title>
<path fill="none" stroke="black" d="M589,-122.22C589,-142.37 589,-172 589,-172 589,-172 1307.78,-172 1307.78,-172"/>
<polygon fill="black" stroke="black" points="1307.78,-175.5 1317.78,-172 1307.78,-168.5 1307.78,-175.5"/>
</g>
<!-- OAuth2ToolLaunchStrategy -->
<g id="node14" class="node">
<title>OAuth2ToolLaunchStrategy</title>
<ellipse fill="#fdb462" stroke="black" cx="338" cy="-104" rx="121.55" ry="18"/>
<text text-anchor="middle" x="338" y="-99.8" font-family="Times,serif" font-size="14.00">OAuth2ToolLaunchStrategy</text>
</g>
<!-- OAuth2ToolLaunchStrategy&#45;&gt;ToolLaunchModule -->
<g id="edge13" class="edge">
<title>OAuth2ToolLaunchStrategy&#45;&gt;ToolLaunchModule</title>
<path fill="none" stroke="black" d="M338,-122.04C338,-143.66 338,-177 338,-177 338,-177 1307.87,-177 1307.87,-177"/>
<polygon fill="black" stroke="black" points="1307.87,-180.5 1317.87,-177 1307.87,-173.5 1307.87,-180.5"/>
</g>
<!-- ToolLaunchService -->
<g id="node15" class="node">
<title>ToolLaunchService</title>
<ellipse fill="#fdb462" stroke="black" cx="111" cy="-104" rx="87.38" ry="18"/>
<text text-anchor="middle" x="111" y="-99.8" font-family="Times,serif" font-size="14.00">ToolLaunchService</text>
</g>
<!-- ToolLaunchService&#45;&gt;ToolLaunchModule -->
<g id="edge14" class="edge">
<title>ToolLaunchService&#45;&gt;ToolLaunchModule</title>
<path fill="none" stroke="black" d="M111,-122.09C111,-145.13 111,-182 111,-182 111,-182 1307.66,-182 1307.66,-182"/>
<polygon fill="black" stroke="black" points="1307.66,-185.5 1317.66,-182 1307.66,-178.5 1307.66,-185.5"/>
</g>
</g>
</svg>
