<?xml version="1.0" encoding="UTF-8" standalone="no"?>
<!DOCTYPE svg PUBLIC "-//W3C//DTD SVG 1.1//EN"
 "http://www.w3.org/Graphics/SVG/1.1/DTD/svg11.dtd">
<!-- Generated by graphviz version 2.47.0 (20210316.0004)
 -->
<!-- Title: dependencies Pages: 1 -->
<svg width="3357pt" height="284pt"
 viewBox="0.00 0.00 3357.00 284.00" xmlns="http://www.w3.org/2000/svg" xmlns:xlink="http://www.w3.org/1999/xlink">
<g id="graph0" class="graph" transform="scale(1 1) rotate(0) translate(4 280)">
<title>dependencies</title>
<polygon fill="white" stroke="transparent" points="-4,4 -4,-280 3353,-280 3353,4 -4,4"/>
<text text-anchor="start" x="1653.51" y="-42.4" font-family="Times-12" font-weight="bold" font-size="14.00">Legend</text>
<polygon fill="#ffffb3" stroke="transparent" points="1440.5,-10 1440.5,-30 1460.5,-30 1460.5,-10 1440.5,-10"/>
<text text-anchor="start" x="1464.13" y="-15.4" font-family="Times-12" font-size="14.00"> &#160;Declarations</text>
<polygon fill="#8dd3c7" stroke="transparent" points="1553.5,-10 1553.5,-30 1573.5,-30 1573.5,-10 1553.5,-10"/>
<text text-anchor="start" x="1577.23" y="-15.4" font-family="Times-12" font-size="14.00"> &#160;Module</text>
<polygon fill="#80b1d3" stroke="transparent" points="1639.5,-10 1639.5,-30 1659.5,-30 1659.5,-10 1639.5,-10"/>
<text text-anchor="start" x="1663.28" y="-15.4" font-family="Times-12" font-size="14.00"> &#160;Bootstrap</text>
<polygon fill="#fdb462" stroke="transparent" points="1736.5,-10 1736.5,-30 1756.5,-30 1756.5,-10 1736.5,-10"/>
<text text-anchor="start" x="1760.17" y="-15.4" font-family="Times-12" font-size="14.00"> &#160;Providers</text>
<polygon fill="#fb8072" stroke="transparent" points="1832.5,-10 1832.5,-30 1852.5,-30 1852.5,-10 1832.5,-10"/>
<text text-anchor="start" x="1856.23" y="-15.4" font-family="Times-12" font-size="14.00"> &#160;Exports</text>
<g id="clust1" class="cluster">
<title>cluster_ToolLaunchModule</title>
<polygon fill="none" stroke="black" stroke-dasharray="1,5" points="8,-70 8,-268 3341,-268 3341,-70 8,-70"/>
</g>
<g id="clust4" class="cluster">
<title>cluster_ToolLaunchModule_exports</title>
<polygon fill="none" stroke="black" points="1937,-208 1937,-260 2083,-260 2083,-208 1937,-208"/>
</g>
<g id="clust3" class="cluster">
<title>cluster_ToolLaunchModule_imports</title>
<polygon fill="none" stroke="black" points="2127,-78 2127,-130 3333,-130 3333,-78 2127,-78"/>
</g>
<g id="clust6" class="cluster">
<title>cluster_ToolLaunchModule_providers</title>
<polygon fill="none" stroke="black" points="16,-78 16,-130 2119,-130 2119,-78 16,-78"/>
</g>
<!-- BoardModule -->
<g id="node1" class="node">
<title>BoardModule</title>
<polygon fill="#8dd3c7" stroke="black" points="3324.76,-122 3321.76,-126 3300.76,-126 3297.76,-122 3231.24,-122 3231.24,-86 3324.76,-86 3324.76,-122"/>
<text text-anchor="middle" x="3278" y="-99.8" font-family="Times,serif" font-size="14.00">BoardModule</text>
</g>
<!-- ToolLaunchModule -->
<g id="node9" class="node">
<title>ToolLaunchModule</title>
<polygon fill="#8dd3c7" stroke="black" points="2073.97,-187 2070.97,-191 2049.97,-191 2046.97,-187 1946.03,-187 1946.03,-151 2073.97,-151 2073.97,-187"/>
<text text-anchor="middle" x="2010" y="-164.8" font-family="Times,serif" font-size="14.00">ToolLaunchModule</text>
</g>
<!-- BoardModule&#45;&gt;ToolLaunchModule -->
<g id="edge1" class="edge">
<title>BoardModule&#45;&gt;ToolLaunchModule</title>
<path fill="none" stroke="black" d="M3278,-122.32C3278,-145.66 3278,-183 3278,-183 3278,-183 2084.19,-183 2084.19,-183"/>
<polygon fill="black" stroke="black" points="2084.19,-179.5 2074.19,-183 2084.19,-186.5 2084.19,-179.5"/>
</g>
<!-- CommonToolModule -->
<g id="node2" class="node">
<title>CommonToolModule</title>
<polygon fill="#8dd3c7" stroke="black" points="3213.11,-122 3210.11,-126 3189.11,-126 3186.11,-122 3074.89,-122 3074.89,-86 3213.11,-86 3213.11,-122"/>
<text text-anchor="middle" x="3144" y="-99.8" font-family="Times,serif" font-size="14.00">CommonToolModule</text>
</g>
<!-- CommonToolModule&#45;&gt;ToolLaunchModule -->
<g id="edge2" class="edge">
<title>CommonToolModule&#45;&gt;ToolLaunchModule</title>
<path fill="none" stroke="black" d="M3144,-122.16C3144,-144.35 3144,-179 3144,-179 3144,-179 2084.22,-179 2084.22,-179"/>
<polygon fill="black" stroke="black" points="2084.22,-175.5 2074.22,-179 2084.22,-182.5 2084.22,-175.5"/>
</g>
<!-- ContextExternalToolModule -->
<g id="node3" class="node">
<title>ContextExternalToolModule</title>
<polygon fill="#8dd3c7" stroke="black" points="3056.75,-122 3053.75,-126 3032.75,-126 3029.75,-122 2879.25,-122 2879.25,-86 3056.75,-86 3056.75,-122"/>
<text text-anchor="middle" x="2968" y="-99.8" font-family="Times,serif" font-size="14.00">ContextExternalToolModule</text>
</g>
<!-- ContextExternalToolModule&#45;&gt;ToolLaunchModule -->
<g id="edge3" class="edge">
<title>ContextExternalToolModule&#45;&gt;ToolLaunchModule</title>
<path fill="none" stroke="black" d="M2968,-122.28C2968,-143.32 2968,-175 2968,-175 2968,-175 2084.34,-175 2084.34,-175"/>
<polygon fill="black" stroke="black" points="2084.34,-171.5 2074.34,-175 2084.34,-178.5 2084.34,-171.5"/>
</g>
<!-- ExternalToolModule -->
<g id="node4" class="node">
<title>ExternalToolModule</title>
<polygon fill="#8dd3c7" stroke="black" points="2860.92,-122 2857.92,-126 2836.92,-126 2833.92,-122 2727.08,-122 2727.08,-86 2860.92,-86 2860.92,-122"/>
<text text-anchor="middle" x="2794" y="-99.8" font-family="Times,serif" font-size="14.00">ExternalToolModule</text>
</g>
<!-- ExternalToolModule&#45;&gt;ToolLaunchModule -->
<g id="edge4" class="edge">
<title>ExternalToolModule&#45;&gt;ToolLaunchModule</title>
<path fill="none" stroke="black" d="M2794,-122.31C2794,-142.15 2794,-171 2794,-171 2794,-171 2084.16,-171 2084.16,-171"/>
<polygon fill="black" stroke="black" points="2084.16,-167.5 2074.16,-171 2084.16,-174.5 2084.16,-167.5"/>
</g>
<!-- LearnroomModule -->
<g id="node5" class="node">
<title>LearnroomModule</title>
<polygon fill="#8dd3c7" stroke="black" points="2708.74,-122 2705.74,-126 2684.74,-126 2681.74,-122 2587.26,-122 2587.26,-86 2708.74,-86 2708.74,-122"/>
<text text-anchor="middle" x="2648" y="-99.8" font-family="Times,serif" font-size="14.00">LearnroomModule</text>
</g>
<!-- LearnroomModule&#45;&gt;ToolLaunchModule -->
<g id="edge5" class="edge">
<title>LearnroomModule&#45;&gt;ToolLaunchModule</title>
<path fill="none" stroke="black" d="M2648,-122.22C2648,-140.83 2648,-167 2648,-167 2648,-167 2084.1,-167 2084.1,-167"/>
<polygon fill="black" stroke="black" points="2084.1,-163.5 2074.1,-167 2084.09,-170.5 2084.1,-163.5"/>
</g>
<!-- LegacySchoolModule -->
<g id="node6" class="node">
<title>LegacySchoolModule</title>
<polygon fill="#8dd3c7" stroke="black" points="2568.63,-122 2565.63,-126 2544.63,-126 2541.63,-122 2429.37,-122 2429.37,-86 2568.63,-86 2568.63,-122"/>
<text text-anchor="middle" x="2499" y="-99.8" font-family="Times,serif" font-size="14.00">LegacySchoolModule</text>
</g>
<!-- LegacySchoolModule&#45;&gt;ToolLaunchModule -->
<g id="edge6" class="edge">
<title>LegacySchoolModule&#45;&gt;ToolLaunchModule</title>
<path fill="none" stroke="black" d="M2499,-122.02C2499,-139.37 2499,-163 2499,-163 2499,-163 2084.18,-163 2084.18,-163"/>
<polygon fill="black" stroke="black" points="2084.18,-159.5 2074.18,-163 2084.18,-166.5 2084.18,-159.5"/>
</g>
<!-- SchoolExternalToolModule -->
<g id="node7" class="node">
<title>SchoolExternalToolModule</title>
<polygon fill="#8dd3c7" stroke="black" points="2411.3,-122 2408.3,-126 2387.3,-126 2384.3,-122 2238.7,-122 2238.7,-86 2411.3,-86 2411.3,-122"/>
<text text-anchor="middle" x="2325" y="-99.8" font-family="Times,serif" font-size="14.00">SchoolExternalToolModule</text>
</g>
<!-- SchoolExternalToolModule&#45;&gt;ToolLaunchModule -->
<g id="edge7" class="edge">
<title>SchoolExternalToolModule&#45;&gt;ToolLaunchModule</title>
<path fill="none" stroke="black" d="M2325,-122.01C2325,-138.05 2325,-159 2325,-159 2325,-159 2084.12,-159 2084.12,-159"/>
<polygon fill="black" stroke="black" points="2084.12,-155.5 2074.12,-159 2084.12,-162.5 2084.12,-155.5"/>
</g>
<!-- UserModule -->
<g id="node8" class="node">
<title>UserModule</title>
<polygon fill="#8dd3c7" stroke="black" points="2220.98,-122 2217.98,-126 2196.98,-126 2193.98,-122 2135.02,-122 2135.02,-86 2220.98,-86 2220.98,-122"/>
<text text-anchor="middle" x="2178" y="-99.8" font-family="Times,serif" font-size="14.00">UserModule</text>
</g>
<!-- UserModule&#45;&gt;ToolLaunchModule -->
<g id="edge8" class="edge">
<title>UserModule&#45;&gt;ToolLaunchModule</title>
<path fill="none" stroke="black" d="M2178,-122.12C2178,-136.78 2178,-155 2178,-155 2178,-155 2083.99,-155 2083.99,-155"/>
<polygon fill="black" stroke="black" points="2083.99,-151.5 2073.99,-155 2083.99,-158.5 2083.99,-151.5"/>
</g>
<!-- ToolLaunchService  -->
<g id="node10" class="node">
<title>ToolLaunchService </title>
<polygon fill="#fb8072" stroke="black" points="2074.9,-252 1945.1,-252 1945.1,-216 2074.9,-216 2074.9,-252"/>
<text text-anchor="middle" x="2010" y="-229.8" font-family="Times,serif" font-size="14.00">ToolLaunchService </text>
</g>
<!-- ToolLaunchModule&#45;&gt;ToolLaunchService  -->
<g id="edge9" class="edge">
<title>ToolLaunchModule&#45;&gt;ToolLaunchService </title>
<path fill="none" stroke="black" stroke-dasharray="5,2" d="M2010,-187.11C2010,-187.11 2010,-205.99 2010,-205.99"/>
<polygon fill="black" stroke="black" points="2006.5,-205.99 2010,-215.99 2013.5,-205.99 2006.5,-205.99"/>
</g>
<!-- AutoContextIdStrategy -->
<g id="node11" class="node">
<title>AutoContextIdStrategy</title>
<ellipse fill="#fdb462" stroke="black" cx="2010" cy="-104" rx="101.3" ry="18"/>
<text text-anchor="middle" x="2010" y="-99.8" font-family="Times,serif" font-size="14.00">AutoContextIdStrategy</text>
</g>
<!-- AutoContextIdStrategy&#45;&gt;ToolLaunchModule -->
<g id="edge10" class="edge">
<title>AutoContextIdStrategy&#45;&gt;ToolLaunchModule</title>
<path fill="none" stroke="black" d="M2010,-122.11C2010,-122.11 2010,-140.99 2010,-140.99"/>
<polygon fill="black" stroke="black" points="2006.5,-140.99 2010,-150.99 2013.5,-140.99 2006.5,-140.99"/>
</g>
<!-- AutoContextNameStrategy -->
<g id="node12" class="node">
<title>AutoContextNameStrategy</title>
<ellipse fill="#fdb462" stroke="black" cx="1775" cy="-104" rx="116.33" ry="18"/>
<text text-anchor="middle" x="1775" y="-99.8" font-family="Times,serif" font-size="14.00">AutoContextNameStrategy</text>
</g>
<!-- AutoContextNameStrategy&#45;&gt;ToolLaunchModule -->
<g id="edge11" class="edge">
<title>AutoContextNameStrategy&#45;&gt;ToolLaunchModule</title>
<path fill="none" stroke="black" d="M1775,-122.12C1775,-136.78 1775,-155 1775,-155 1775,-155 1935.79,-155 1935.79,-155"/>
<polygon fill="black" stroke="black" points="1935.79,-158.5 1945.79,-155 1935.79,-151.5 1935.79,-158.5"/>
</g>
<!-- AutoSchoolIdStrategy -->
<g id="node13" class="node">
<title>AutoSchoolIdStrategy</title>
<ellipse fill="#fdb462" stroke="black" cx="1543" cy="-104" rx="97.29" ry="18"/>
<text text-anchor="middle" x="1543" y="-99.8" font-family="Times,serif" font-size="14.00">AutoSchoolIdStrategy</text>
</g>
<!-- AutoSchoolIdStrategy&#45;&gt;ToolLaunchModule -->
<g id="edge12" class="edge">
<title>AutoSchoolIdStrategy&#45;&gt;ToolLaunchModule</title>
<path fill="none" stroke="black" d="M1543,-122.01C1543,-138.05 1543,-159 1543,-159 1543,-159 1935.56,-159 1935.56,-159"/>
<polygon fill="black" stroke="black" points="1935.56,-162.5 1945.56,-159 1935.56,-155.5 1935.56,-162.5"/>
</g>
<!-- AutoSchoolNumberStrategy -->
<g id="node14" class="node">
<title>AutoSchoolNumberStrategy</title>
<ellipse fill="#fdb462" stroke="black" cx="1307" cy="-104" rx="120.99" ry="18"/>
<text text-anchor="middle" x="1307" y="-99.8" font-family="Times,serif" font-size="14.00">AutoSchoolNumberStrategy</text>
</g>
<!-- AutoSchoolNumberStrategy&#45;&gt;ToolLaunchModule -->
<g id="edge13" class="edge">
<title>AutoSchoolNumberStrategy&#45;&gt;ToolLaunchModule</title>
<path fill="none" stroke="black" d="M1307,-122.02C1307,-139.37 1307,-163 1307,-163 1307,-163 1935.75,-163 1935.75,-163"/>
<polygon fill="black" stroke="black" points="1935.75,-166.5 1945.75,-163 1935.75,-159.5 1935.75,-166.5"/>
</g>
<!-- BasicToolLaunchStrategy -->
<g id="node15" class="node">
<title>BasicToolLaunchStrategy</title>
<ellipse fill="#fdb462" stroke="black" cx="1056" cy="-104" rx="111.74" ry="18"/>
<text text-anchor="middle" x="1056" y="-99.8" font-family="Times,serif" font-size="14.00">BasicToolLaunchStrategy</text>
</g>
<!-- BasicToolLaunchStrategy&#45;&gt;ToolLaunchModule -->
<g id="edge14" class="edge">
<title>BasicToolLaunchStrategy&#45;&gt;ToolLaunchModule</title>
<path fill="none" stroke="black" d="M1056,-122.22C1056,-140.83 1056,-167 1056,-167 1056,-167 1935.92,-167 1935.92,-167"/>
<polygon fill="black" stroke="black" points="1935.92,-170.5 1945.92,-167 1935.92,-163.5 1935.92,-170.5"/>
</g>
<!-- Lti11EncryptionService -->
<g id="node16" class="node">
<title>Lti11EncryptionService</title>
<ellipse fill="#fdb462" stroke="black" cx="822" cy="-104" rx="103.65" ry="18"/>
<text text-anchor="middle" x="822" y="-99.8" font-family="Times,serif" font-size="14.00">Lti11EncryptionService</text>
</g>
<!-- Lti11EncryptionService&#45;&gt;ToolLaunchModule -->
<g id="edge15" class="edge">
<title>Lti11EncryptionService&#45;&gt;ToolLaunchModule</title>
<path fill="none" stroke="black" d="M822,-122.31C822,-142.15 822,-171 822,-171 822,-171 1935.71,-171 1935.71,-171"/>
<polygon fill="black" stroke="black" points="1935.71,-174.5 1945.71,-171 1935.71,-167.5 1935.71,-174.5"/>
</g>
<!-- Lti11ToolLaunchStrategy -->
<g id="node17" class="node">
<title>Lti11ToolLaunchStrategy</title>
<ellipse fill="#fdb462" stroke="black" cx="589" cy="-104" rx="111.18" ry="18"/>
<text text-anchor="middle" x="589" y="-99.8" font-family="Times,serif" font-size="14.00">Lti11ToolLaunchStrategy</text>
</g>
<!-- Lti11ToolLaunchStrategy&#45;&gt;ToolLaunchModule -->
<g id="edge16" class="edge">
<title>Lti11ToolLaunchStrategy&#45;&gt;ToolLaunchModule</title>
<path fill="none" stroke="black" d="M589,-122.28C589,-143.32 589,-175 589,-175 589,-175 1935.72,-175 1935.72,-175"/>
<polygon fill="black" stroke="black" points="1935.72,-178.5 1945.72,-175 1935.72,-171.5 1935.72,-178.5"/>
</g>
<!-- OAuth2ToolLaunchStrategy -->
<g id="node18" class="node">
<title>OAuth2ToolLaunchStrategy</title>
<ellipse fill="#fdb462" stroke="black" cx="338" cy="-104" rx="121.55" ry="18"/>
<text text-anchor="middle" x="338" y="-99.8" font-family="Times,serif" font-size="14.00">OAuth2ToolLaunchStrategy</text>
</g>
<!-- OAuth2ToolLaunchStrategy&#45;&gt;ToolLaunchModule -->
<g id="edge17" class="edge">
<title>OAuth2ToolLaunchStrategy&#45;&gt;ToolLaunchModule</title>
<path fill="none" stroke="black" d="M338,-122.16C338,-144.35 338,-179 338,-179 338,-179 1935.99,-179 1935.99,-179"/>
<polygon fill="black" stroke="black" points="1935.99,-182.5 1945.99,-179 1935.99,-175.5 1935.99,-182.5"/>
</g>
<!-- ToolLaunchService -->
<g id="node19" class="node">
<title>ToolLaunchService</title>
<ellipse fill="#fdb462" stroke="black" cx="111" cy="-104" rx="87.38" ry="18"/>
<text text-anchor="middle" x="111" y="-99.8" font-family="Times,serif" font-size="14.00">ToolLaunchService</text>
</g>
<!-- ToolLaunchService&#45;&gt;ToolLaunchModule -->
<g id="edge18" class="edge">
<title>ToolLaunchService&#45;&gt;ToolLaunchModule</title>
<path fill="none" stroke="black" d="M111,-122.32C111,-145.66 111,-183 111,-183 111,-183 1936,-183 1936,-183"/>
<polygon fill="black" stroke="black" points="1936,-186.5 1946,-183 1936,-179.5 1936,-186.5"/>
</g>
</g>
</svg>
