<?xml version="1.0" encoding="UTF-8" standalone="no"?>
<!DOCTYPE svg PUBLIC "-//W3C//DTD SVG 1.1//EN"
 "http://www.w3.org/Graphics/SVG/1.1/DTD/svg11.dtd">
<!-- Generated by graphviz version 2.47.0 (20210316.0004)
 -->
<!-- Title: dependencies Pages: 1 -->
<svg width="2399pt" height="284pt"
 viewBox="0.00 0.00 2399.00 284.00" xmlns="http://www.w3.org/2000/svg" xmlns:xlink="http://www.w3.org/1999/xlink">
<g id="graph0" class="graph" transform="scale(1 1) rotate(0) translate(4 280)">
<title>dependencies</title>
<polygon fill="white" stroke="transparent" points="-4,4 -4,-280 2395,-280 2395,4 -4,4"/>
<text text-anchor="start" x="1174.51" y="-42.4" font-family="Times-12" font-weight="bold" font-size="14.00">Legend</text>
<polygon fill="#ffffb3" stroke="transparent" points="961.5,-10 961.5,-30 981.5,-30 981.5,-10 961.5,-10"/>
<text text-anchor="start" x="985.13" y="-15.4" font-family="Times-12" font-size="14.00"> &#160;Declarations</text>
<polygon fill="#8dd3c7" stroke="transparent" points="1074.5,-10 1074.5,-30 1094.5,-30 1094.5,-10 1074.5,-10"/>
<text text-anchor="start" x="1098.23" y="-15.4" font-family="Times-12" font-size="14.00"> &#160;Module</text>
<polygon fill="#80b1d3" stroke="transparent" points="1160.5,-10 1160.5,-30 1180.5,-30 1180.5,-10 1160.5,-10"/>
<text text-anchor="start" x="1184.28" y="-15.4" font-family="Times-12" font-size="14.00"> &#160;Bootstrap</text>
<polygon fill="#fdb462" stroke="transparent" points="1257.5,-10 1257.5,-30 1277.5,-30 1277.5,-10 1257.5,-10"/>
<text text-anchor="start" x="1281.17" y="-15.4" font-family="Times-12" font-size="14.00"> &#160;Providers</text>
<polygon fill="#fb8072" stroke="transparent" points="1353.5,-10 1353.5,-30 1373.5,-30 1373.5,-10 1353.5,-10"/>
<text text-anchor="start" x="1377.23" y="-15.4" font-family="Times-12" font-size="14.00"> &#160;Exports</text>
<g id="clust1" class="cluster">
<title>cluster_ToolLaunchModule</title>
<polygon fill="none" stroke="black" stroke-dasharray="1,5" points="8,-70 8,-268 2383,-268 2383,-70 8,-70"/>
</g>
<g id="clust6" class="cluster">
<title>cluster_ToolLaunchModule_providers</title>
<polygon fill="none" stroke="black" points="1079,-78 1079,-130 2375,-130 2375,-78 1079,-78"/>
</g>
<g id="clust3" class="cluster">
<title>cluster_ToolLaunchModule_imports</title>
<polygon fill="none" stroke="black" points="16,-78 16,-130 1071,-130 1071,-78 16,-78"/>
</g>
<g id="clust4" class="cluster">
<title>cluster_ToolLaunchModule_exports</title>
<polygon fill="none" stroke="black" points="921,-208 921,-260 1067,-260 1067,-208 921,-208"/>
</g>
<!-- CommonToolModule -->
<g id="node1" class="node">
<title>CommonToolModule</title>
<polygon fill="#8dd3c7" stroke="black" points="1063.11,-122 1060.11,-126 1039.11,-126 1036.11,-122 924.89,-122 924.89,-86 1063.11,-86 1063.11,-122"/>
<text text-anchor="middle" x="994" y="-99.8" font-family="Times,serif" font-size="14.00">CommonToolModule</text>
</g>
<!-- ToolLaunchModule -->
<g id="node8" class="node">
<title>ToolLaunchModule</title>
<polygon fill="#8dd3c7" stroke="black" points="1057.97,-187 1054.97,-191 1033.97,-191 1030.97,-187 930.03,-187 930.03,-151 1057.97,-151 1057.97,-187"/>
<text text-anchor="middle" x="994" y="-164.8" font-family="Times,serif" font-size="14.00">ToolLaunchModule</text>
</g>
<!-- CommonToolModule&#45;&gt;ToolLaunchModule -->
<g id="edge1" class="edge">
<title>CommonToolModule&#45;&gt;ToolLaunchModule</title>
<path fill="none" stroke="black" d="M994,-122.11C994,-122.11 994,-140.99 994,-140.99"/>
<polygon fill="black" stroke="black" points="990.5,-140.99 994,-150.99 997.5,-140.99 990.5,-140.99"/>
</g>
<!-- ContextExternalToolModule -->
<g id="node2" class="node">
<title>ContextExternalToolModule</title>
<polygon fill="#8dd3c7" stroke="black" points="906.75,-122 903.75,-126 882.75,-126 879.75,-122 729.25,-122 729.25,-86 906.75,-86 906.75,-122"/>
<text text-anchor="middle" x="818" y="-99.8" font-family="Times,serif" font-size="14.00">ContextExternalToolModule</text>
</g>
<!-- ContextExternalToolModule&#45;&gt;ToolLaunchModule -->
<g id="edge2" class="edge">
<title>ContextExternalToolModule&#45;&gt;ToolLaunchModule</title>
<path fill="none" stroke="black" d="M818,-122.24C818,-137.57 818,-157 818,-157 818,-157 919.96,-157 919.96,-157"/>
<polygon fill="black" stroke="black" points="919.96,-160.5 929.96,-157 919.96,-153.5 919.96,-160.5"/>
</g>
<!-- ExternalToolModule -->
<g id="node3" class="node">
<title>ExternalToolModule</title>
<polygon fill="#8dd3c7" stroke="black" points="710.92,-122 707.92,-126 686.92,-126 683.92,-122 577.08,-122 577.08,-86 710.92,-86 710.92,-122"/>
<text text-anchor="middle" x="644" y="-99.8" font-family="Times,serif" font-size="14.00">ExternalToolModule</text>
</g>
<!-- ExternalToolModule&#45;&gt;ToolLaunchModule -->
<g id="edge3" class="edge">
<title>ExternalToolModule&#45;&gt;ToolLaunchModule</title>
<path fill="none" stroke="black" d="M644,-122.03C644,-139.06 644,-162 644,-162 644,-162 919.8,-162 919.8,-162"/>
<polygon fill="black" stroke="black" points="919.8,-165.5 929.8,-162 919.8,-158.5 919.8,-165.5"/>
</g>
<!-- PseudonymModule -->
<g id="node4" class="node">
<title>PseudonymModule</title>
<polygon fill="#8dd3c7" stroke="black" points="559.38,-122 556.38,-126 535.38,-126 532.38,-122 434.62,-122 434.62,-86 559.38,-86 559.38,-122"/>
<text text-anchor="middle" x="497" y="-99.8" font-family="Times,serif" font-size="14.00">PseudonymModule</text>
</g>
<!-- PseudonymModule&#45;&gt;ToolLaunchModule -->
<g id="edge4" class="edge">
<title>PseudonymModule&#45;&gt;ToolLaunchModule</title>
<path fill="none" stroke="black" d="M497,-122.22C497,-140.83 497,-167 497,-167 497,-167 919.79,-167 919.79,-167"/>
<polygon fill="black" stroke="black" points="919.79,-170.5 929.79,-167 919.79,-163.5 919.79,-170.5"/>
</g>
<!-- SchoolExternalToolModule -->
<g id="node5" class="node">
<title>SchoolExternalToolModule</title>
<polygon fill="#8dd3c7" stroke="black" points="416.3,-122 413.3,-126 392.3,-126 389.3,-122 243.7,-122 243.7,-86 416.3,-86 416.3,-122"/>
<text text-anchor="middle" x="330" y="-99.8" font-family="Times,serif" font-size="14.00">SchoolExternalToolModule</text>
</g>
<!-- SchoolExternalToolModule&#45;&gt;ToolLaunchModule -->
<g id="edge5" class="edge">
<title>SchoolExternalToolModule&#45;&gt;ToolLaunchModule</title>
<path fill="none" stroke="black" d="M330,-122.22C330,-142.37 330,-172 330,-172 330,-172 919.73,-172 919.73,-172"/>
<polygon fill="black" stroke="black" points="919.73,-175.5 929.73,-172 919.73,-168.5 919.73,-175.5"/>
</g>
<!-- SchoolModule -->
<g id="node6" class="node">
<title>SchoolModule</title>
<polygon fill="#8dd3c7" stroke="black" points="226.44,-122 223.44,-126 202.44,-126 199.44,-122 127.56,-122 127.56,-86 226.44,-86 226.44,-122"/>
<text text-anchor="middle" x="177" y="-99.8" font-family="Times,serif" font-size="14.00">SchoolModule</text>
</g>
<!-- SchoolModule&#45;&gt;ToolLaunchModule -->
<g id="edge6" class="edge">
<title>SchoolModule&#45;&gt;ToolLaunchModule</title>
<path fill="none" stroke="black" d="M177,-122.04C177,-143.66 177,-177 177,-177 177,-177 919.89,-177 919.89,-177"/>
<polygon fill="black" stroke="black" points="919.89,-180.5 929.89,-177 919.89,-173.5 919.89,-180.5"/>
</g>
<!-- UserModule -->
<g id="node7" class="node">
<title>UserModule</title>
<polygon fill="#8dd3c7" stroke="black" points="109.98,-122 106.98,-126 85.98,-126 82.98,-122 24.02,-122 24.02,-86 109.98,-86 109.98,-122"/>
<text text-anchor="middle" x="67" y="-99.8" font-family="Times,serif" font-size="14.00">UserModule</text>
</g>
<!-- UserModule&#45;&gt;ToolLaunchModule -->
<g id="edge7" class="edge">
<title>UserModule&#45;&gt;ToolLaunchModule</title>
<path fill="none" stroke="black" d="M67,-122.09C67,-145.13 67,-182 67,-182 67,-182 919.92,-182 919.92,-182"/>
<polygon fill="black" stroke="black" points="919.92,-185.5 929.92,-182 919.92,-178.5 919.92,-185.5"/>
</g>
<!-- ToolLaunchService  -->
<g id="node9" class="node">
<title>ToolLaunchService </title>
<polygon fill="#fb8072" stroke="black" points="1058.9,-252 929.1,-252 929.1,-216 1058.9,-216 1058.9,-252"/>
<text text-anchor="middle" x="994" y="-229.8" font-family="Times,serif" font-size="14.00">ToolLaunchService </text>
</g>
<!-- ToolLaunchModule&#45;&gt;ToolLaunchService  -->
<g id="edge8" class="edge">
<title>ToolLaunchModule&#45;&gt;ToolLaunchService </title>
<path fill="none" stroke="black" stroke-dasharray="5,2" d="M994,-187.11C994,-187.11 994,-205.99 994,-205.99"/>
<polygon fill="black" stroke="black" points="990.5,-205.99 994,-215.99 997.5,-205.99 990.5,-205.99"/>
</g>
<!-- BasicToolLaunchStrategy -->
<g id="node10" class="node">
<title>BasicToolLaunchStrategy</title>
<ellipse fill="#fdb462" stroke="black" cx="2255" cy="-104" rx="111.74" ry="18"/>
<text text-anchor="middle" x="2255" y="-99.8" font-family="Times,serif" font-size="14.00">BasicToolLaunchStrategy</text>
</g>
<!-- BasicToolLaunchStrategy&#45;&gt;ToolLaunchModule -->
<g id="edge9" class="edge">
<title>BasicToolLaunchStrategy&#45;&gt;ToolLaunchModule</title>
<path fill="none" stroke="black" d="M2255,-122.09C2255,-145.13 2255,-182 2255,-182 2255,-182 1068.27,-182 1068.27,-182"/>
<polygon fill="black" stroke="black" points="1068.27,-178.5 1058.27,-182 1068.27,-185.5 1068.27,-178.5"/>
</g>
<!-- CourseRepo -->
<g id="node11" class="node">
<title>CourseRepo</title>
<ellipse fill="#fdb462" stroke="black" cx="2066" cy="-104" rx="58.55" ry="18"/>
<text text-anchor="middle" x="2066" y="-99.8" font-family="Times,serif" font-size="14.00">CourseRepo</text>
</g>
<!-- CourseRepo&#45;&gt;ToolLaunchModule -->
<g id="edge10" class="edge">
<title>CourseRepo&#45;&gt;ToolLaunchModule</title>
<path fill="none" stroke="black" d="M2066,-122.04C2066,-143.66 2066,-177 2066,-177 2066,-177 1068.25,-177 1068.25,-177"/>
<polygon fill="black" stroke="black" points="1068.25,-173.5 1058.25,-177 1068.25,-180.5 1068.25,-173.5"/>
</g>
<!-- Lti11EncryptionService -->
<g id="node12" class="node">
<title>Lti11EncryptionService</title>
<ellipse fill="#fdb462" stroke="black" cx="1885" cy="-104" rx="103.65" ry="18"/>
<text text-anchor="middle" x="1885" y="-99.8" font-family="Times,serif" font-size="14.00">Lti11EncryptionService</text>
</g>
<!-- Lti11EncryptionService&#45;&gt;ToolLaunchModule -->
<g id="edge11" class="edge">
<title>Lti11EncryptionService&#45;&gt;ToolLaunchModule</title>
<path fill="none" stroke="black" d="M1885,-122.22C1885,-142.37 1885,-172 1885,-172 1885,-172 1068.08,-172 1068.08,-172"/>
<polygon fill="black" stroke="black" points="1068.08,-168.5 1058.08,-172 1068.08,-175.5 1068.08,-168.5"/>
</g>
<!-- Lti11ToolLaunchStrategy -->
<g id="node13" class="node">
<title>Lti11ToolLaunchStrategy</title>
<ellipse fill="#fdb462" stroke="black" cx="1652" cy="-104" rx="111.18" ry="18"/>
<text text-anchor="middle" x="1652" y="-99.8" font-family="Times,serif" font-size="14.00">Lti11ToolLaunchStrategy</text>
</g>
<!-- Lti11ToolLaunchStrategy&#45;&gt;ToolLaunchModule -->
<g id="edge12" class="edge">
<title>Lti11ToolLaunchStrategy&#45;&gt;ToolLaunchModule</title>
<path fill="none" stroke="black" d="M1652,-122.22C1652,-140.83 1652,-167 1652,-167 1652,-167 1067.99,-167 1067.99,-167"/>
<polygon fill="black" stroke="black" points="1067.99,-163.5 1057.99,-167 1067.99,-170.5 1067.99,-163.5"/>
</g>
<!-- OAuth2ToolLaunchStrategy -->
<g id="node14" class="node">
<title>OAuth2ToolLaunchStrategy</title>
<ellipse fill="#fdb462" stroke="black" cx="1401" cy="-104" rx="121.55" ry="18"/>
<text text-anchor="middle" x="1401" y="-99.8" font-family="Times,serif" font-size="14.00">OAuth2ToolLaunchStrategy</text>
</g>
<!-- OAuth2ToolLaunchStrategy&#45;&gt;ToolLaunchModule -->
<g id="edge13" class="edge">
<title>OAuth2ToolLaunchStrategy&#45;&gt;ToolLaunchModule</title>
<path fill="none" stroke="black" d="M1401,-122.03C1401,-139.06 1401,-162 1401,-162 1401,-162 1068.04,-162 1068.04,-162"/>
<polygon fill="black" stroke="black" points="1068.04,-158.5 1058.04,-162 1068.04,-165.5 1068.04,-158.5"/>
</g>
<!-- ToolLaunchService -->
<g id="node15" class="node">
<title>ToolLaunchService</title>
<ellipse fill="#fdb462" stroke="black" cx="1174" cy="-104" rx="87.38" ry="18"/>
<text text-anchor="middle" x="1174" y="-99.8" font-family="Times,serif" font-size="14.00">ToolLaunchService</text>
</g>
<!-- ToolLaunchService&#45;&gt;ToolLaunchModule -->
<g id="edge14" class="edge">
<title>ToolLaunchService&#45;&gt;ToolLaunchModule</title>
<path fill="none" stroke="black" d="M1174,-122.24C1174,-137.57 1174,-157 1174,-157 1174,-157 1068.22,-157 1068.22,-157"/>
<polygon fill="black" stroke="black" points="1068.22,-153.5 1058.22,-157 1068.22,-160.5 1068.22,-153.5"/>
</g>
</g>
</svg>
