<?xml version="1.0" encoding="UTF-8" standalone="no"?>
<!DOCTYPE svg PUBLIC "-//W3C//DTD SVG 1.1//EN"
 "http://www.w3.org/Graphics/SVG/1.1/DTD/svg11.dtd">
<!-- Generated by graphviz version 2.47.0 (20210316.0004)
 -->
<!-- Title: dependencies Pages: 1 -->
<svg width="3357pt" height="284pt"
 viewBox="0.00 0.00 3357.00 284.00" xmlns="http://www.w3.org/2000/svg" xmlns:xlink="http://www.w3.org/1999/xlink">
<g id="graph0" class="graph" transform="scale(1 1) rotate(0) translate(4 280)">
<title>dependencies</title>
<polygon fill="white" stroke="transparent" points="-4,4 -4,-280 3353,-280 3353,4 -4,4"/>
<text text-anchor="start" x="1653.51" y="-42.4" font-family="Times-12" font-weight="bold" font-size="14.00">Legend</text>
<polygon fill="#ffffb3" stroke="transparent" points="1440.5,-10 1440.5,-30 1460.5,-30 1460.5,-10 1440.5,-10"/>
<text text-anchor="start" x="1464.13" y="-15.4" font-family="Times-12" font-size="14.00"> &#160;Declarations</text>
<polygon fill="#8dd3c7" stroke="transparent" points="1553.5,-10 1553.5,-30 1573.5,-30 1573.5,-10 1553.5,-10"/>
<text text-anchor="start" x="1577.23" y="-15.4" font-family="Times-12" font-size="14.00"> &#160;Module</text>
<polygon fill="#80b1d3" stroke="transparent" points="1639.5,-10 1639.5,-30 1659.5,-30 1659.5,-10 1639.5,-10"/>
<text text-anchor="start" x="1663.28" y="-15.4" font-family="Times-12" font-size="14.00"> &#160;Bootstrap</text>
<polygon fill="#fdb462" stroke="transparent" points="1736.5,-10 1736.5,-30 1756.5,-30 1756.5,-10 1736.5,-10"/>
<text text-anchor="start" x="1760.17" y="-15.4" font-family="Times-12" font-size="14.00"> &#160;Providers</text>
<polygon fill="#fb8072" stroke="transparent" points="1832.5,-10 1832.5,-30 1852.5,-30 1852.5,-10 1832.5,-10"/>
<text text-anchor="start" x="1856.23" y="-15.4" font-family="Times-12" font-size="14.00"> &#160;Exports</text>
<g id="clust1" class="cluster">
<title>cluster_ToolLaunchModule</title>
<polygon fill="none" stroke="black" stroke-dasharray="1,5" points="8,-70 8,-268 3341,-268 3341,-70 8,-70"/>
</g>
<g id="clust6" class="cluster">
<title>cluster_ToolLaunchModule_providers</title>
<polygon fill="none" stroke="black" points="1230,-78 1230,-130 3333,-130 3333,-78 1230,-78"/>
</g>
<g id="clust3" class="cluster">
<title>cluster_ToolLaunchModule_imports</title>
<polygon fill="none" stroke="black" points="16,-78 16,-130 1222,-130 1222,-78 16,-78"/>
</g>
<g id="clust4" class="cluster">
<title>cluster_ToolLaunchModule_exports</title>
<polygon fill="none" stroke="black" points="1252,-208 1252,-260 1398,-260 1398,-208 1252,-208"/>
</g>
<!-- BoardModule -->
<g id="node1" class="node">
<title>BoardModule</title>
<polygon fill="#8dd3c7" stroke="black" points="1213.76,-122 1210.76,-126 1189.76,-126 1186.76,-122 1120.24,-122 1120.24,-86 1213.76,-86 1213.76,-122"/>
<text text-anchor="middle" x="1167" y="-99.8" font-family="Times,serif" font-size="14.00">BoardModule</text>
</g>
<!-- ToolLaunchModule -->
<g id="node9" class="node">
<title>ToolLaunchModule</title>
<polygon fill="#8dd3c7" stroke="black" points="1388.97,-187 1385.97,-191 1364.97,-191 1361.97,-187 1261.03,-187 1261.03,-151 1388.97,-151 1388.97,-187"/>
<text text-anchor="middle" x="1325" y="-164.8" font-family="Times,serif" font-size="14.00">ToolLaunchModule</text>
</g>
<!-- BoardModule&#45;&gt;ToolLaunchModule -->
<g id="edge1" class="edge">
<title>BoardModule&#45;&gt;ToolLaunchModule</title>
<path fill="none" stroke="black" d="M1167,-122.12C1167,-136.78 1167,-155 1167,-155 1167,-155 1250.74,-155 1250.74,-155"/>
<polygon fill="black" stroke="black" points="1250.74,-158.5 1260.74,-155 1250.74,-151.5 1250.74,-158.5"/>
</g>
<!-- CommonToolModule -->
<g id="node2" class="node">
<title>CommonToolModule</title>
<polygon fill="#8dd3c7" stroke="black" points="1102.11,-122 1099.11,-126 1078.11,-126 1075.11,-122 963.89,-122 963.89,-86 1102.11,-86 1102.11,-122"/>
<text text-anchor="middle" x="1033" y="-99.8" font-family="Times,serif" font-size="14.00">CommonToolModule</text>
</g>
<!-- CommonToolModule&#45;&gt;ToolLaunchModule -->
<g id="edge2" class="edge">
<title>CommonToolModule&#45;&gt;ToolLaunchModule</title>
<path fill="none" stroke="black" d="M1033,-122.01C1033,-138.05 1033,-159 1033,-159 1033,-159 1250.92,-159 1250.92,-159"/>
<polygon fill="black" stroke="black" points="1250.92,-162.5 1260.92,-159 1250.92,-155.5 1250.92,-162.5"/>
</g>
<!-- ContextExternalToolModule -->
<g id="node3" class="node">
<title>ContextExternalToolModule</title>
<polygon fill="#8dd3c7" stroke="black" points="945.75,-122 942.75,-126 921.75,-126 918.75,-122 768.25,-122 768.25,-86 945.75,-86 945.75,-122"/>
<text text-anchor="middle" x="857" y="-99.8" font-family="Times,serif" font-size="14.00">ContextExternalToolModule</text>
</g>
<!-- ContextExternalToolModule&#45;&gt;ToolLaunchModule -->
<g id="edge3" class="edge">
<title>ContextExternalToolModule&#45;&gt;ToolLaunchModule</title>
<path fill="none" stroke="black" d="M857,-122.02C857,-139.37 857,-163 857,-163 857,-163 1250.91,-163 1250.91,-163"/>
<polygon fill="black" stroke="black" points="1250.91,-166.5 1260.91,-163 1250.91,-159.5 1250.91,-166.5"/>
</g>
<!-- ExternalToolModule -->
<g id="node4" class="node">
<title>ExternalToolModule</title>
<polygon fill="#8dd3c7" stroke="black" points="749.92,-122 746.92,-126 725.92,-126 722.92,-122 616.08,-122 616.08,-86 749.92,-86 749.92,-122"/>
<text text-anchor="middle" x="683" y="-99.8" font-family="Times,serif" font-size="14.00">ExternalToolModule</text>
</g>
<!-- ExternalToolModule&#45;&gt;ToolLaunchModule -->
<g id="edge4" class="edge">
<title>ExternalToolModule&#45;&gt;ToolLaunchModule</title>
<path fill="none" stroke="black" d="M683,-122.22C683,-140.83 683,-167 683,-167 683,-167 1250.8,-167 1250.8,-167"/>
<polygon fill="black" stroke="black" points="1250.8,-170.5 1260.8,-167 1250.8,-163.5 1250.8,-170.5"/>
</g>
<!-- LearnroomModule -->
<g id="node5" class="node">
<title>LearnroomModule</title>
<polygon fill="#8dd3c7" stroke="black" points="597.74,-122 594.74,-126 573.74,-126 570.74,-122 476.26,-122 476.26,-86 597.74,-86 597.74,-122"/>
<text text-anchor="middle" x="537" y="-99.8" font-family="Times,serif" font-size="14.00">LearnroomModule</text>
</g>
<!-- LearnroomModule&#45;&gt;ToolLaunchModule -->
<g id="edge5" class="edge">
<title>LearnroomModule&#45;&gt;ToolLaunchModule</title>
<path fill="none" stroke="black" d="M537,-122.31C537,-142.15 537,-171 537,-171 537,-171 1250.85,-171 1250.85,-171"/>
<polygon fill="black" stroke="black" points="1250.85,-174.5 1260.85,-171 1250.85,-167.5 1250.85,-174.5"/>
</g>
<!-- LegacySchoolModule -->
<g id="node6" class="node">
<title>LegacySchoolModule</title>
<polygon fill="#8dd3c7" stroke="black" points="457.63,-122 454.63,-126 433.63,-126 430.63,-122 318.37,-122 318.37,-86 457.63,-86 457.63,-122"/>
<text text-anchor="middle" x="388" y="-99.8" font-family="Times,serif" font-size="14.00">LegacySchoolModule</text>
</g>
<!-- LegacySchoolModule&#45;&gt;ToolLaunchModule -->
<g id="edge6" class="edge">
<title>LegacySchoolModule&#45;&gt;ToolLaunchModule</title>
<path fill="none" stroke="black" d="M388,-122.28C388,-143.32 388,-175 388,-175 388,-175 1250.96,-175 1250.96,-175"/>
<polygon fill="black" stroke="black" points="1250.97,-178.5 1260.96,-175 1250.96,-171.5 1250.97,-178.5"/>
</g>
<!-- SchoolExternalToolModule -->
<g id="node7" class="node">
<title>SchoolExternalToolModule</title>
<polygon fill="#8dd3c7" stroke="black" points="300.3,-122 297.3,-126 276.3,-126 273.3,-122 127.7,-122 127.7,-86 300.3,-86 300.3,-122"/>
<text text-anchor="middle" x="214" y="-99.8" font-family="Times,serif" font-size="14.00">SchoolExternalToolModule</text>
</g>
<!-- SchoolExternalToolModule&#45;&gt;ToolLaunchModule -->
<g id="edge7" class="edge">
<title>SchoolExternalToolModule&#45;&gt;ToolLaunchModule</title>
<path fill="none" stroke="black" d="M214,-122.16C214,-144.35 214,-179 214,-179 214,-179 1250.87,-179 1250.87,-179"/>
<polygon fill="black" stroke="black" points="1250.87,-182.5 1260.87,-179 1250.87,-175.5 1250.87,-182.5"/>
</g>
<!-- UserModule -->
<g id="node8" class="node">
<title>UserModule</title>
<polygon fill="#8dd3c7" stroke="black" points="109.98,-122 106.98,-126 85.98,-126 82.98,-122 24.02,-122 24.02,-86 109.98,-86 109.98,-122"/>
<text text-anchor="middle" x="67" y="-99.8" font-family="Times,serif" font-size="14.00">UserModule</text>
</g>
<!-- UserModule&#45;&gt;ToolLaunchModule -->
<g id="edge8" class="edge">
<title>UserModule&#45;&gt;ToolLaunchModule</title>
<path fill="none" stroke="black" d="M67,-122.32C67,-145.66 67,-183 67,-183 67,-183 1250.89,-183 1250.89,-183"/>
<polygon fill="black" stroke="black" points="1250.89,-186.5 1260.89,-183 1250.89,-179.5 1250.89,-186.5"/>
</g>
<!-- ToolLaunchService  -->
<g id="node10" class="node">
<title>ToolLaunchService </title>
<polygon fill="#fb8072" stroke="black" points="1389.9,-252 1260.1,-252 1260.1,-216 1389.9,-216 1389.9,-252"/>
<text text-anchor="middle" x="1325" y="-229.8" font-family="Times,serif" font-size="14.00">ToolLaunchService </text>
</g>
<!-- ToolLaunchModule&#45;&gt;ToolLaunchService  -->
<g id="edge9" class="edge">
<title>ToolLaunchModule&#45;&gt;ToolLaunchService </title>
<path fill="none" stroke="black" stroke-dasharray="5,2" d="M1325,-187.11C1325,-187.11 1325,-205.99 1325,-205.99"/>
<polygon fill="black" stroke="black" points="1321.5,-205.99 1325,-215.99 1328.5,-205.99 1321.5,-205.99"/>
</g>
<!-- AutoContextIdStrategy -->
<g id="node11" class="node">
<title>AutoContextIdStrategy</title>
<ellipse fill="#fdb462" stroke="black" cx="3224" cy="-104" rx="101.3" ry="18"/>
<text text-anchor="middle" x="3224" y="-99.8" font-family="Times,serif" font-size="14.00">AutoContextIdStrategy</text>
</g>
<!-- AutoContextIdStrategy&#45;&gt;ToolLaunchModule -->
<g id="edge10" class="edge">
<title>AutoContextIdStrategy&#45;&gt;ToolLaunchModule</title>
<path fill="none" stroke="black" d="M3224,-122.32C3224,-145.66 3224,-183 3224,-183 3224,-183 1399,-183 1399,-183"/>
<polygon fill="black" stroke="black" points="1399,-179.5 1389,-183 1399,-186.5 1399,-179.5"/>
</g>
<!-- AutoContextNameStrategy -->
<g id="node12" class="node">
<title>AutoContextNameStrategy</title>
<ellipse fill="#fdb462" stroke="black" cx="2989" cy="-104" rx="116.33" ry="18"/>
<text text-anchor="middle" x="2989" y="-99.8" font-family="Times,serif" font-size="14.00">AutoContextNameStrategy</text>
</g>
<!-- AutoContextNameStrategy&#45;&gt;ToolLaunchModule -->
<g id="edge11" class="edge">
<title>AutoContextNameStrategy&#45;&gt;ToolLaunchModule</title>
<path fill="none" stroke="black" d="M2989,-122.16C2989,-144.35 2989,-179 2989,-179 2989,-179 1399.21,-179 1399.21,-179"/>
<polygon fill="black" stroke="black" points="1399.21,-175.5 1389.21,-179 1399.21,-182.5 1399.21,-175.5"/>
</g>
<!-- AutoSchoolIdStrategy -->
<g id="node13" class="node">
<title>AutoSchoolIdStrategy</title>
<ellipse fill="#fdb462" stroke="black" cx="2757" cy="-104" rx="97.29" ry="18"/>
<text text-anchor="middle" x="2757" y="-99.8" font-family="Times,serif" font-size="14.00">AutoSchoolIdStrategy</text>
</g>
<!-- AutoSchoolIdStrategy&#45;&gt;ToolLaunchModule -->
<g id="edge12" class="edge">
<title>AutoSchoolIdStrategy&#45;&gt;ToolLaunchModule</title>
<path fill="none" stroke="black" d="M2757,-122.28C2757,-143.32 2757,-175 2757,-175 2757,-175 1399.31,-175 1399.31,-175"/>
<polygon fill="black" stroke="black" points="1399.31,-171.5 1389.31,-175 1399.31,-178.5 1399.31,-171.5"/>
</g>
<!-- AutoSchoolNumberStrategy -->
<g id="node14" class="node">
<title>AutoSchoolNumberStrategy</title>
<ellipse fill="#fdb462" stroke="black" cx="2521" cy="-104" rx="120.99" ry="18"/>
<text text-anchor="middle" x="2521" y="-99.8" font-family="Times,serif" font-size="14.00">AutoSchoolNumberStrategy</text>
</g>
<!-- AutoSchoolNumberStrategy&#45;&gt;ToolLaunchModule -->
<g id="edge13" class="edge">
<title>AutoSchoolNumberStrategy&#45;&gt;ToolLaunchModule</title>
<path fill="none" stroke="black" d="M2521,-122.31C2521,-142.15 2521,-171 2521,-171 2521,-171 1399.3,-171 1399.3,-171"/>
<polygon fill="black" stroke="black" points="1399.3,-167.5 1389.3,-171 1399.3,-174.5 1399.3,-167.5"/>
</g>
<!-- BasicToolLaunchStrategy -->
<g id="node15" class="node">
<title>BasicToolLaunchStrategy</title>
<ellipse fill="#fdb462" stroke="black" cx="2270" cy="-104" rx="111.74" ry="18"/>
<text text-anchor="middle" x="2270" y="-99.8" font-family="Times,serif" font-size="14.00">BasicToolLaunchStrategy</text>
</g>
<!-- BasicToolLaunchStrategy&#45;&gt;ToolLaunchModule -->
<g id="edge14" class="edge">
<title>BasicToolLaunchStrategy&#45;&gt;ToolLaunchModule</title>
<path fill="none" stroke="black" d="M2270,-122.22C2270,-140.83 2270,-167 2270,-167 2270,-167 1399.21,-167 1399.21,-167"/>
<polygon fill="black" stroke="black" points="1399.21,-163.5 1389.21,-167 1399.21,-170.5 1399.21,-163.5"/>
</g>
<!-- Lti11EncryptionService -->
<g id="node16" class="node">
<title>Lti11EncryptionService</title>
<ellipse fill="#fdb462" stroke="black" cx="2036" cy="-104" rx="103.65" ry="18"/>
<text text-anchor="middle" x="2036" y="-99.8" font-family="Times,serif" font-size="14.00">Lti11EncryptionService</text>
</g>
<!-- Lti11EncryptionService&#45;&gt;ToolLaunchModule -->
<g id="edge15" class="edge">
<title>Lti11EncryptionService&#45;&gt;ToolLaunchModule</title>
<path fill="none" stroke="black" d="M2036,-122.02C2036,-139.37 2036,-163 2036,-163 2036,-163 1399.04,-163 1399.04,-163"/>
<polygon fill="black" stroke="black" points="1399.04,-159.5 1389.04,-163 1399.04,-166.5 1399.04,-159.5"/>
</g>
<!-- Lti11ToolLaunchStrategy -->
<g id="node17" class="node">
<title>Lti11ToolLaunchStrategy</title>
<ellipse fill="#fdb462" stroke="black" cx="1803" cy="-104" rx="111.18" ry="18"/>
<text text-anchor="middle" x="1803" y="-99.8" font-family="Times,serif" font-size="14.00">Lti11ToolLaunchStrategy</text>
</g>
<!-- Lti11ToolLaunchStrategy&#45;&gt;ToolLaunchModule -->
<g id="edge16" class="edge">
<title>Lti11ToolLaunchStrategy&#45;&gt;ToolLaunchModule</title>
<path fill="none" stroke="black" d="M1803,-122.01C1803,-138.05 1803,-159 1803,-159 1803,-159 1399.47,-159 1399.47,-159"/>
<polygon fill="black" stroke="black" points="1399.47,-155.5 1389.47,-159 1399.47,-162.5 1399.47,-155.5"/>
</g>
<!-- OAuth2ToolLaunchStrategy -->
<g id="node18" class="node">
<title>OAuth2ToolLaunchStrategy</title>
<ellipse fill="#fdb462" stroke="black" cx="1552" cy="-104" rx="121.55" ry="18"/>
<text text-anchor="middle" x="1552" y="-99.8" font-family="Times,serif" font-size="14.00">OAuth2ToolLaunchStrategy</text>
</g>
<!-- OAuth2ToolLaunchStrategy&#45;&gt;ToolLaunchModule -->
<g id="edge17" class="edge">
<title>OAuth2ToolLaunchStrategy&#45;&gt;ToolLaunchModule</title>
<path fill="none" stroke="black" d="M1552,-122.12C1552,-136.78 1552,-155 1552,-155 1552,-155 1399.14,-155 1399.14,-155"/>
<polygon fill="black" stroke="black" points="1399.14,-151.5 1389.14,-155 1399.14,-158.5 1399.14,-151.5"/>
</g>
<!-- ToolLaunchService -->
<g id="node19" class="node">
<title>ToolLaunchService</title>
<ellipse fill="#fdb462" stroke="black" cx="1325" cy="-104" rx="87.38" ry="18"/>
<text text-anchor="middle" x="1325" y="-99.8" font-family="Times,serif" font-size="14.00">ToolLaunchService</text>
</g>
<!-- ToolLaunchService&#45;&gt;ToolLaunchModule -->
<g id="edge18" class="edge">
<title>ToolLaunchService&#45;&gt;ToolLaunchModule</title>
<path fill="none" stroke="black" d="M1325,-122.11C1325,-122.11 1325,-140.99 1325,-140.99"/>
<polygon fill="black" stroke="black" points="1321.5,-140.99 1325,-150.99 1328.5,-140.99 1321.5,-140.99"/>
</g>
</g>
</svg>
