<?xml version="1.0" encoding="UTF-8" standalone="no"?>
<!DOCTYPE svg PUBLIC "-//W3C//DTD SVG 1.1//EN"
 "http://www.w3.org/Graphics/SVG/1.1/DTD/svg11.dtd">
<!-- Generated by graphviz version 2.47.0 (20210316.0004)
 -->
<!-- Title: dependencies Pages: 1 -->
<svg width="2302pt" height="284pt"
 viewBox="0.00 0.00 2302.00 284.00" xmlns="http://www.w3.org/2000/svg" xmlns:xlink="http://www.w3.org/1999/xlink">
<g id="graph0" class="graph" transform="scale(1 1) rotate(0) translate(4 280)">
<title>dependencies</title>
<polygon fill="white" stroke="transparent" points="-4,4 -4,-280 2298,-280 2298,4 -4,4"/>
<text text-anchor="start" x="1126.01" y="-42.4" font-family="Times-12" font-weight="bold" font-size="14.00">Legend</text>
<polygon fill="#ffffb3" stroke="transparent" points="913,-10 913,-30 933,-30 933,-10 913,-10"/>
<text text-anchor="start" x="936.63" y="-15.4" font-family="Times-12" font-size="14.00"> &#160;Declarations</text>
<polygon fill="#8dd3c7" stroke="transparent" points="1026,-10 1026,-30 1046,-30 1046,-10 1026,-10"/>
<text text-anchor="start" x="1049.73" y="-15.4" font-family="Times-12" font-size="14.00"> &#160;Module</text>
<polygon fill="#80b1d3" stroke="transparent" points="1112,-10 1112,-30 1132,-30 1132,-10 1112,-10"/>
<text text-anchor="start" x="1135.78" y="-15.4" font-family="Times-12" font-size="14.00"> &#160;Bootstrap</text>
<polygon fill="#fdb462" stroke="transparent" points="1209,-10 1209,-30 1229,-30 1229,-10 1209,-10"/>
<text text-anchor="start" x="1232.67" y="-15.4" font-family="Times-12" font-size="14.00"> &#160;Providers</text>
<polygon fill="#fb8072" stroke="transparent" points="1305,-10 1305,-30 1325,-30 1325,-10 1305,-10"/>
<text text-anchor="start" x="1328.73" y="-15.4" font-family="Times-12" font-size="14.00"> &#160;Exports</text>
<g id="clust1" class="cluster">
<title>cluster_ToolLaunchModule</title>
<polygon fill="none" stroke="black" stroke-dasharray="1,5" points="8,-70 8,-268 2286,-268 2286,-70 8,-70"/>
</g>
<g id="clust4" class="cluster">
<title>cluster_ToolLaunchModule_exports</title>
<polygon fill="none" stroke="black" points="1235,-208 1235,-260 1381,-260 1381,-208 1235,-208"/>
</g>
<g id="clust3" class="cluster">
<title>cluster_ToolLaunchModule_imports</title>
<polygon fill="none" stroke="black" points="1184,-78 1184,-130 2278,-130 2278,-78 1184,-78"/>
</g>
<g id="clust6" class="cluster">
<title>cluster_ToolLaunchModule_providers</title>
<polygon fill="none" stroke="black" points="16,-78 16,-130 1176,-130 1176,-78 16,-78"/>
</g>
<!-- CommonToolModule -->
<g id="node1" class="node">
<title>CommonToolModule</title>
<polygon fill="#8dd3c7" stroke="black" points="2270.11,-122 2267.11,-126 2246.11,-126 2243.11,-122 2131.89,-122 2131.89,-86 2270.11,-86 2270.11,-122"/>
<text text-anchor="middle" x="2201" y="-99.8" font-family="Times,serif" font-size="14.00">CommonToolModule</text>
</g>
<!-- ToolLaunchModule -->
<g id="node8" class="node">
<title>ToolLaunchModule</title>
<polygon fill="#8dd3c7" stroke="black" points="1371.97,-187 1368.97,-191 1347.97,-191 1344.97,-187 1244.03,-187 1244.03,-151 1371.97,-151 1371.97,-187"/>
<text text-anchor="middle" x="1308" y="-164.8" font-family="Times,serif" font-size="14.00">ToolLaunchModule</text>
</g>
<!-- CommonToolModule&#45;&gt;ToolLaunchModule -->
<g id="edge1" class="edge">
<title>CommonToolModule&#45;&gt;ToolLaunchModule</title>
<path fill="none" stroke="black" d="M2201,-122.25C2201,-145.02 2201,-181 2201,-181 2201,-181 1382.22,-181 1382.22,-181"/>
<polygon fill="black" stroke="black" points="1382.22,-177.5 1372.22,-181 1382.22,-184.5 1382.22,-177.5"/>
</g>
<!-- ContextExternalToolModule -->
<g id="node2" class="node">
<title>ContextExternalToolModule</title>
<polygon fill="#8dd3c7" stroke="black" points="2113.75,-122 2110.75,-126 2089.75,-126 2086.75,-122 1936.25,-122 1936.25,-86 2113.75,-86 2113.75,-122"/>
<text text-anchor="middle" x="2025" y="-99.8" font-family="Times,serif" font-size="14.00">ContextExternalToolModule</text>
</g>
<!-- ContextExternalToolModule&#45;&gt;ToolLaunchModule -->
<g id="edge2" class="edge">
<title>ContextExternalToolModule&#45;&gt;ToolLaunchModule</title>
<path fill="none" stroke="black" d="M2025,-122.28C2025,-143.32 2025,-175 2025,-175 2025,-175 1382.26,-175 1382.26,-175"/>
<polygon fill="black" stroke="black" points="1382.26,-171.5 1372.26,-175 1382.26,-178.5 1382.26,-171.5"/>
</g>
<!-- ExternalToolModule -->
<g id="node3" class="node">
<title>ExternalToolModule</title>
<polygon fill="#8dd3c7" stroke="black" points="1917.92,-122 1914.92,-126 1893.92,-126 1890.92,-122 1784.08,-122 1784.08,-86 1917.92,-86 1917.92,-122"/>
<text text-anchor="middle" x="1851" y="-99.8" font-family="Times,serif" font-size="14.00">ExternalToolModule</text>
</g>
<!-- ExternalToolModule&#45;&gt;ToolLaunchModule -->
<g id="edge3" class="edge">
<title>ExternalToolModule&#45;&gt;ToolLaunchModule</title>
<path fill="none" stroke="black" d="M1851,-122.11C1851,-141.34 1851,-169 1851,-169 1851,-169 1382.15,-169 1382.15,-169"/>
<polygon fill="black" stroke="black" points="1382.15,-165.5 1372.15,-169 1382.15,-172.5 1382.15,-165.5"/>
</g>
<!-- LearnroomModule -->
<g id="node4" class="node">
<title>LearnroomModule</title>
<polygon fill="#8dd3c7" stroke="black" points="1765.74,-122 1762.74,-126 1741.74,-126 1738.74,-122 1644.26,-122 1644.26,-86 1765.74,-86 1765.74,-122"/>
<text text-anchor="middle" x="1705" y="-99.8" font-family="Times,serif" font-size="14.00">LearnroomModule</text>
</g>
<!-- LearnroomModule&#45;&gt;ToolLaunchModule -->
<g id="edge4" class="edge">
<title>LearnroomModule&#45;&gt;ToolLaunchModule</title>
<path fill="none" stroke="black" d="M1705,-122.02C1705,-139.37 1705,-163 1705,-163 1705,-163 1382.23,-163 1382.23,-163"/>
<polygon fill="black" stroke="black" points="1382.23,-159.5 1372.23,-163 1382.23,-166.5 1382.23,-159.5"/>
</g>
<!-- LegacySchoolModule -->
<g id="node5" class="node">
<title>LegacySchoolModule</title>
<polygon fill="#8dd3c7" stroke="black" points="1625.63,-122 1622.63,-126 1601.63,-126 1598.63,-122 1486.37,-122 1486.37,-86 1625.63,-86 1625.63,-122"/>
<text text-anchor="middle" x="1556" y="-99.8" font-family="Times,serif" font-size="14.00">LegacySchoolModule</text>
</g>
<!-- LegacySchoolModule&#45;&gt;ToolLaunchModule -->
<g id="edge5" class="edge">
<title>LegacySchoolModule&#45;&gt;ToolLaunchModule</title>
<path fill="none" stroke="black" d="M1556,-122.24C1556,-137.57 1556,-157 1556,-157 1556,-157 1382.19,-157 1382.19,-157"/>
<polygon fill="black" stroke="black" points="1382.19,-153.5 1372.19,-157 1382.19,-160.5 1382.19,-153.5"/>
</g>
<!-- SchoolExternalToolModule -->
<g id="node6" class="node">
<title>SchoolExternalToolModule</title>
<polygon fill="#8dd3c7" stroke="black" points="1468.3,-122 1465.3,-126 1444.3,-126 1441.3,-122 1295.7,-122 1295.7,-86 1468.3,-86 1468.3,-122"/>
<text text-anchor="middle" x="1382" y="-99.8" font-family="Times,serif" font-size="14.00">SchoolExternalToolModule</text>
</g>
<!-- SchoolExternalToolModule&#45;&gt;ToolLaunchModule -->
<g id="edge6" class="edge">
<title>SchoolExternalToolModule&#45;&gt;ToolLaunchModule</title>
<path fill="none" stroke="black" d="M1333.92,-122.11C1333.92,-122.11 1333.92,-140.99 1333.92,-140.99"/>
<polygon fill="black" stroke="black" points="1330.42,-140.99 1333.92,-150.99 1337.42,-140.99 1330.42,-140.99"/>
</g>
<!-- UserModule -->
<g id="node7" class="node">
<title>UserModule</title>
<polygon fill="#8dd3c7" stroke="black" points="1277.98,-122 1274.98,-126 1253.98,-126 1250.98,-122 1192.02,-122 1192.02,-86 1277.98,-86 1277.98,-122"/>
<text text-anchor="middle" x="1235" y="-99.8" font-family="Times,serif" font-size="14.00">UserModule</text>
</g>
<!-- UserModule&#45;&gt;ToolLaunchModule -->
<g id="edge7" class="edge">
<title>UserModule&#45;&gt;ToolLaunchModule</title>
<path fill="none" stroke="black" d="M1261,-122.11C1261,-122.11 1261,-140.99 1261,-140.99"/>
<polygon fill="black" stroke="black" points="1257.5,-140.99 1261,-150.99 1264.5,-140.99 1257.5,-140.99"/>
</g>
<!-- ToolLaunchService  -->
<g id="node9" class="node">
<title>ToolLaunchService </title>
<polygon fill="#fb8072" stroke="black" points="1372.9,-252 1243.1,-252 1243.1,-216 1372.9,-216 1372.9,-252"/>
<text text-anchor="middle" x="1308" y="-229.8" font-family="Times,serif" font-size="14.00">ToolLaunchService </text>
</g>
<!-- ToolLaunchModule&#45;&gt;ToolLaunchService  -->
<g id="edge8" class="edge">
<title>ToolLaunchModule&#45;&gt;ToolLaunchService </title>
<path fill="none" stroke="black" stroke-dasharray="5,2" d="M1308,-187.11C1308,-187.11 1308,-205.99 1308,-205.99"/>
<polygon fill="black" stroke="black" points="1304.5,-205.99 1308,-215.99 1311.5,-205.99 1304.5,-205.99"/>
</g>
<!-- BasicToolLaunchStrategy -->
<g id="node10" class="node">
<title>BasicToolLaunchStrategy</title>
<ellipse fill="#fdb462" stroke="black" cx="1056" cy="-104" rx="111.74" ry="18"/>
<text text-anchor="middle" x="1056" y="-99.8" font-family="Times,serif" font-size="14.00">BasicToolLaunchStrategy</text>
</g>
<!-- BasicToolLaunchStrategy&#45;&gt;ToolLaunchModule -->
<g id="edge9" class="edge">
<title>BasicToolLaunchStrategy&#45;&gt;ToolLaunchModule</title>
<path fill="none" stroke="black" d="M1056,-122.24C1056,-137.57 1056,-157 1056,-157 1056,-157 1233.76,-157 1233.76,-157"/>
<polygon fill="black" stroke="black" points="1233.76,-160.5 1243.76,-157 1233.76,-153.5 1233.76,-160.5"/>
</g>
<!-- Lti11EncryptionService -->
<g id="node11" class="node">
<title>Lti11EncryptionService</title>
<ellipse fill="#fdb462" stroke="black" cx="822" cy="-104" rx="103.65" ry="18"/>
<text text-anchor="middle" x="822" y="-99.8" font-family="Times,serif" font-size="14.00">Lti11EncryptionService</text>
</g>
<!-- Lti11EncryptionService&#45;&gt;ToolLaunchModule -->
<g id="edge10" class="edge">
<title>Lti11EncryptionService&#45;&gt;ToolLaunchModule</title>
<path fill="none" stroke="black" d="M822,-122.02C822,-139.37 822,-163 822,-163 822,-163 1233.96,-163 1233.96,-163"/>
<polygon fill="black" stroke="black" points="1233.96,-166.5 1243.96,-163 1233.96,-159.5 1233.96,-166.5"/>
</g>
<!-- Lti11ToolLaunchStrategy -->
<g id="node12" class="node">
<title>Lti11ToolLaunchStrategy</title>
<ellipse fill="#fdb462" stroke="black" cx="589" cy="-104" rx="111.18" ry="18"/>
<text text-anchor="middle" x="589" y="-99.8" font-family="Times,serif" font-size="14.00">Lti11ToolLaunchStrategy</text>
</g>
<!-- Lti11ToolLaunchStrategy&#45;&gt;ToolLaunchModule -->
<g id="edge11" class="edge">
<title>Lti11ToolLaunchStrategy&#45;&gt;ToolLaunchModule</title>
<path fill="none" stroke="black" d="M589,-122.11C589,-141.34 589,-169 589,-169 589,-169 1233.88,-169 1233.88,-169"/>
<polygon fill="black" stroke="black" points="1233.88,-172.5 1243.88,-169 1233.88,-165.5 1233.88,-172.5"/>
</g>
<!-- OAuth2ToolLaunchStrategy -->
<g id="node13" class="node">
<title>OAuth2ToolLaunchStrategy</title>
<ellipse fill="#fdb462" stroke="black" cx="338" cy="-104" rx="121.55" ry="18"/>
<text text-anchor="middle" x="338" y="-99.8" font-family="Times,serif" font-size="14.00">OAuth2ToolLaunchStrategy</text>
</g>
<!-- OAuth2ToolLaunchStrategy&#45;&gt;ToolLaunchModule -->
<g id="edge12" class="edge">
<title>OAuth2ToolLaunchStrategy&#45;&gt;ToolLaunchModule</title>
<path fill="none" stroke="black" d="M338,-122.28C338,-143.32 338,-175 338,-175 338,-175 1233.98,-175 1233.98,-175"/>
<polygon fill="black" stroke="black" points="1233.98,-178.5 1243.98,-175 1233.98,-171.5 1233.98,-178.5"/>
</g>
<!-- ToolLaunchService -->
<g id="node14" class="node">
<title>ToolLaunchService</title>
<ellipse fill="#fdb462" stroke="black" cx="111" cy="-104" rx="87.38" ry="18"/>
<text text-anchor="middle" x="111" y="-99.8" font-family="Times,serif" font-size="14.00">ToolLaunchService</text>
</g>
<!-- ToolLaunchService&#45;&gt;ToolLaunchModule -->
<g id="edge13" class="edge">
<title>ToolLaunchService&#45;&gt;ToolLaunchModule</title>
<path fill="none" stroke="black" d="M111,-122.25C111,-145.02 111,-181 111,-181 111,-181 1233.64,-181 1233.64,-181"/>
<polygon fill="black" stroke="black" points="1233.64,-184.5 1243.64,-181 1233.64,-177.5 1233.64,-184.5"/>
</g>
</g>
</svg>
