<?xml version="1.0" encoding="UTF-8" standalone="no"?>
<!DOCTYPE svg PUBLIC "-//W3C//DTD SVG 1.1//EN"
 "http://www.w3.org/Graphics/SVG/1.1/DTD/svg11.dtd">
<!-- Generated by graphviz version 2.47.0 (20210316.0004)
 -->
<!-- Title: dependencies Pages: 1 -->
<svg width="3581pt" height="284pt"
 viewBox="0.00 0.00 3581.00 284.00" xmlns="http://www.w3.org/2000/svg" xmlns:xlink="http://www.w3.org/1999/xlink">
<g id="graph0" class="graph" transform="scale(1 1) rotate(0) translate(4 280)">
<title>dependencies</title>
<polygon fill="white" stroke="transparent" points="-4,4 -4,-280 3577,-280 3577,4 -4,4"/>
<text text-anchor="start" x="1765.51" y="-42.4" font-family="Times-12" font-weight="bold" font-size="14.00">Legend</text>
<polygon fill="#ffffb3" stroke="transparent" points="1552.5,-10 1552.5,-30 1572.5,-30 1572.5,-10 1552.5,-10"/>
<text text-anchor="start" x="1576.13" y="-15.4" font-family="Times-12" font-size="14.00"> &#160;Declarations</text>
<polygon fill="#8dd3c7" stroke="transparent" points="1665.5,-10 1665.5,-30 1685.5,-30 1685.5,-10 1665.5,-10"/>
<text text-anchor="start" x="1689.23" y="-15.4" font-family="Times-12" font-size="14.00"> &#160;Module</text>
<polygon fill="#80b1d3" stroke="transparent" points="1751.5,-10 1751.5,-30 1771.5,-30 1771.5,-10 1751.5,-10"/>
<text text-anchor="start" x="1775.28" y="-15.4" font-family="Times-12" font-size="14.00"> &#160;Bootstrap</text>
<polygon fill="#fdb462" stroke="transparent" points="1848.5,-10 1848.5,-30 1868.5,-30 1868.5,-10 1848.5,-10"/>
<text text-anchor="start" x="1872.17" y="-15.4" font-family="Times-12" font-size="14.00"> &#160;Providers</text>
<polygon fill="#fb8072" stroke="transparent" points="1944.5,-10 1944.5,-30 1964.5,-30 1964.5,-10 1944.5,-10"/>
<text text-anchor="start" x="1968.23" y="-15.4" font-family="Times-12" font-size="14.00"> &#160;Exports</text>
<g id="clust1" class="cluster">
<title>cluster_ToolLaunchModule</title>
<polygon fill="none" stroke="black" stroke-dasharray="1,5" points="8,-70 8,-268 3565,-268 3565,-70 8,-70"/>
</g>
<g id="clust3" class="cluster">
<title>cluster_ToolLaunchModule_imports</title>
<polygon fill="none" stroke="black" points="2351,-78 2351,-130 3557,-130 3557,-78 2351,-78"/>
</g>
<g id="clust6" class="cluster">
<title>cluster_ToolLaunchModule_providers</title>
<polygon fill="none" stroke="black" points="16,-78 16,-130 2343,-130 2343,-78 16,-78"/>
</g>
<g id="clust4" class="cluster">
<title>cluster_ToolLaunchModule_exports</title>
<polygon fill="none" stroke="black" points="2043,-208 2043,-260 2189,-260 2189,-208 2043,-208"/>
</g>
<!-- BoardModule -->
<g id="node1" class="node">
<title>BoardModule</title>
<polygon fill="#8dd3c7" stroke="black" points="3548.76,-122 3545.76,-126 3524.76,-126 3521.76,-122 3455.24,-122 3455.24,-86 3548.76,-86 3548.76,-122"/>
<text text-anchor="middle" x="3502" y="-99.8" font-family="Times,serif" font-size="14.00">BoardModule</text>
</g>
<!-- ToolLaunchModule -->
<g id="node9" class="node">
<title>ToolLaunchModule</title>
<polygon fill="#8dd3c7" stroke="black" points="2179.97,-187 2176.97,-191 2155.97,-191 2152.97,-187 2052.03,-187 2052.03,-151 2179.97,-151 2179.97,-187"/>
<text text-anchor="middle" x="2116" y="-164.8" font-family="Times,serif" font-size="14.00">ToolLaunchModule</text>
</g>
<!-- BoardModule&#45;&gt;ToolLaunchModule -->
<g id="edge1" class="edge">
<title>BoardModule&#45;&gt;ToolLaunchModule</title>
<path fill="none" stroke="black" d="M3502,-122.32C3502,-145.66 3502,-183 3502,-183 3502,-183 2190.07,-183 2190.07,-183"/>
<polygon fill="black" stroke="black" points="2190.07,-179.5 2180.07,-183 2190.07,-186.5 2190.07,-179.5"/>
</g>
<!-- CommonToolModule -->
<g id="node2" class="node">
<title>CommonToolModule</title>
<polygon fill="#8dd3c7" stroke="black" points="3437.11,-122 3434.11,-126 3413.11,-126 3410.11,-122 3298.89,-122 3298.89,-86 3437.11,-86 3437.11,-122"/>
<text text-anchor="middle" x="3368" y="-99.8" font-family="Times,serif" font-size="14.00">CommonToolModule</text>
</g>
<!-- CommonToolModule&#45;&gt;ToolLaunchModule -->
<g id="edge2" class="edge">
<title>CommonToolModule&#45;&gt;ToolLaunchModule</title>
<path fill="none" stroke="black" d="M3368,-122.16C3368,-144.35 3368,-179 3368,-179 3368,-179 2190.24,-179 2190.24,-179"/>
<polygon fill="black" stroke="black" points="2190.24,-175.5 2180.24,-179 2190.24,-182.5 2190.24,-175.5"/>
</g>
<!-- ContextExternalToolModule -->
<g id="node3" class="node">
<title>ContextExternalToolModule</title>
<polygon fill="#8dd3c7" stroke="black" points="3280.75,-122 3277.75,-126 3256.75,-126 3253.75,-122 3103.25,-122 3103.25,-86 3280.75,-86 3280.75,-122"/>
<text text-anchor="middle" x="3192" y="-99.8" font-family="Times,serif" font-size="14.00">ContextExternalToolModule</text>
</g>
<!-- ContextExternalToolModule&#45;&gt;ToolLaunchModule -->
<g id="edge3" class="edge">
<title>ContextExternalToolModule&#45;&gt;ToolLaunchModule</title>
<path fill="none" stroke="black" d="M3192,-122.28C3192,-143.32 3192,-175 3192,-175 3192,-175 2190.09,-175 2190.09,-175"/>
<polygon fill="black" stroke="black" points="2190.09,-171.5 2180.09,-175 2190.09,-178.5 2190.09,-171.5"/>
</g>
<!-- ExternalToolModule -->
<g id="node4" class="node">
<title>ExternalToolModule</title>
<polygon fill="#8dd3c7" stroke="black" points="3084.92,-122 3081.92,-126 3060.92,-126 3057.92,-122 2951.08,-122 2951.08,-86 3084.92,-86 3084.92,-122"/>
<text text-anchor="middle" x="3018" y="-99.8" font-family="Times,serif" font-size="14.00">ExternalToolModule</text>
</g>
<!-- ExternalToolModule&#45;&gt;ToolLaunchModule -->
<g id="edge4" class="edge">
<title>ExternalToolModule&#45;&gt;ToolLaunchModule</title>
<path fill="none" stroke="black" d="M3018,-122.31C3018,-142.15 3018,-171 3018,-171 3018,-171 2190.15,-171 2190.15,-171"/>
<polygon fill="black" stroke="black" points="2190.15,-167.5 2180.15,-171 2190.15,-174.5 2190.15,-167.5"/>
</g>
<!-- LearnroomModule -->
<g id="node5" class="node">
<title>LearnroomModule</title>
<polygon fill="#8dd3c7" stroke="black" points="2932.74,-122 2929.74,-126 2908.74,-126 2905.74,-122 2811.26,-122 2811.26,-86 2932.74,-86 2932.74,-122"/>
<text text-anchor="middle" x="2872" y="-99.8" font-family="Times,serif" font-size="14.00">LearnroomModule</text>
</g>
<!-- LearnroomModule&#45;&gt;ToolLaunchModule -->
<g id="edge5" class="edge">
<title>LearnroomModule&#45;&gt;ToolLaunchModule</title>
<path fill="none" stroke="black" d="M2872,-122.22C2872,-140.83 2872,-167 2872,-167 2872,-167 2190.13,-167 2190.13,-167"/>
<polygon fill="black" stroke="black" points="2190.13,-163.5 2180.13,-167 2190.13,-170.5 2190.13,-163.5"/>
</g>
<!-- LegacySchoolModule -->
<g id="node6" class="node">
<title>LegacySchoolModule</title>
<polygon fill="#8dd3c7" stroke="black" points="2792.63,-122 2789.63,-126 2768.63,-126 2765.63,-122 2653.37,-122 2653.37,-86 2792.63,-86 2792.63,-122"/>
<text text-anchor="middle" x="2723" y="-99.8" font-family="Times,serif" font-size="14.00">LegacySchoolModule</text>
</g>
<!-- LegacySchoolModule&#45;&gt;ToolLaunchModule -->
<g id="edge6" class="edge">
<title>LegacySchoolModule&#45;&gt;ToolLaunchModule</title>
<path fill="none" stroke="black" d="M2723,-122.02C2723,-139.37 2723,-163 2723,-163 2723,-163 2190.1,-163 2190.1,-163"/>
<polygon fill="black" stroke="black" points="2190.1,-159.5 2180.1,-163 2190.1,-166.5 2190.1,-159.5"/>
</g>
<!-- SchoolExternalToolModule -->
<g id="node7" class="node">
<title>SchoolExternalToolModule</title>
<polygon fill="#8dd3c7" stroke="black" points="2635.3,-122 2632.3,-126 2611.3,-126 2608.3,-122 2462.7,-122 2462.7,-86 2635.3,-86 2635.3,-122"/>
<text text-anchor="middle" x="2549" y="-99.8" font-family="Times,serif" font-size="14.00">SchoolExternalToolModule</text>
</g>
<!-- SchoolExternalToolModule&#45;&gt;ToolLaunchModule -->
<g id="edge7" class="edge">
<title>SchoolExternalToolModule&#45;&gt;ToolLaunchModule</title>
<path fill="none" stroke="black" d="M2549,-122.01C2549,-138.05 2549,-159 2549,-159 2549,-159 2190.36,-159 2190.36,-159"/>
<polygon fill="black" stroke="black" points="2190.36,-155.5 2180.36,-159 2190.36,-162.5 2190.36,-155.5"/>
</g>
<!-- UserModule -->
<g id="node8" class="node">
<title>UserModule</title>
<polygon fill="#8dd3c7" stroke="black" points="2444.98,-122 2441.98,-126 2420.98,-126 2417.98,-122 2359.02,-122 2359.02,-86 2444.98,-86 2444.98,-122"/>
<text text-anchor="middle" x="2402" y="-99.8" font-family="Times,serif" font-size="14.00">UserModule</text>
</g>
<!-- UserModule&#45;&gt;ToolLaunchModule -->
<g id="edge8" class="edge">
<title>UserModule&#45;&gt;ToolLaunchModule</title>
<path fill="none" stroke="black" d="M2402,-122.12C2402,-136.78 2402,-155 2402,-155 2402,-155 2190.18,-155 2190.18,-155"/>
<polygon fill="black" stroke="black" points="2190.18,-151.5 2180.18,-155 2190.18,-158.5 2190.18,-151.5"/>
</g>
<!-- ToolLaunchService  -->
<g id="node10" class="node">
<title>ToolLaunchService </title>
<polygon fill="#fb8072" stroke="black" points="2180.9,-252 2051.1,-252 2051.1,-216 2180.9,-216 2180.9,-252"/>
<text text-anchor="middle" x="2116" y="-229.8" font-family="Times,serif" font-size="14.00">ToolLaunchService </text>
</g>
<!-- ToolLaunchModule&#45;&gt;ToolLaunchService  -->
<g id="edge9" class="edge">
<title>ToolLaunchModule&#45;&gt;ToolLaunchService </title>
<path fill="none" stroke="black" stroke-dasharray="5,2" d="M2116,-187.11C2116,-187.11 2116,-205.99 2116,-205.99"/>
<polygon fill="black" stroke="black" points="2112.5,-205.99 2116,-215.99 2119.5,-205.99 2112.5,-205.99"/>
</g>
<!-- AutoContextIdStrategy -->
<g id="node11" class="node">
<title>AutoContextIdStrategy</title>
<ellipse fill="#fdb462" stroke="black" cx="2234" cy="-104" rx="101.3" ry="18"/>
<text text-anchor="middle" x="2234" y="-99.8" font-family="Times,serif" font-size="14.00">AutoContextIdStrategy</text>
</g>
<!-- AutoContextIdStrategy&#45;&gt;ToolLaunchModule -->
<g id="edge10" class="edge">
<title>AutoContextIdStrategy&#45;&gt;ToolLaunchModule</title>
<path fill="none" stroke="black" d="M2156.42,-115.62C2156.42,-115.62 2156.42,-140.85 2156.42,-140.85"/>
<polygon fill="black" stroke="black" points="2152.92,-140.85 2156.42,-150.85 2159.92,-140.85 2152.92,-140.85"/>
</g>
<!-- AutoContextNameStrategy -->
<g id="node12" class="node">
<title>AutoContextNameStrategy</title>
<ellipse fill="#fdb462" stroke="black" cx="1999" cy="-104" rx="116.33" ry="18"/>
<text text-anchor="middle" x="1999" y="-99.8" font-family="Times,serif" font-size="14.00">AutoContextNameStrategy</text>
</g>
<!-- AutoContextNameStrategy&#45;&gt;ToolLaunchModule -->
<g id="edge11" class="edge">
<title>AutoContextNameStrategy&#45;&gt;ToolLaunchModule</title>
<path fill="none" stroke="black" d="M2083.59,-116.53C2083.59,-116.53 2083.59,-140.85 2083.59,-140.85"/>
<polygon fill="black" stroke="black" points="2080.09,-140.85 2083.59,-150.85 2087.09,-140.85 2080.09,-140.85"/>
</g>
<!-- AutoMediumIdStrategy -->
<g id="node13" class="node">
<title>AutoMediumIdStrategy</title>
<ellipse fill="#fdb462" stroke="black" cx="1762" cy="-104" rx="103.09" ry="18"/>
<text text-anchor="middle" x="1762" y="-99.8" font-family="Times,serif" font-size="14.00">AutoMediumIdStrategy</text>
</g>
<!-- AutoMediumIdStrategy&#45;&gt;ToolLaunchModule -->
<g id="edge12" class="edge">
<title>AutoMediumIdStrategy&#45;&gt;ToolLaunchModule</title>
<path fill="none" stroke="black" d="M1762,-122.12C1762,-136.78 1762,-155 1762,-155 1762,-155 2041.89,-155 2041.89,-155"/>
<polygon fill="black" stroke="black" points="2041.89,-158.5 2051.89,-155 2041.89,-151.5 2041.89,-158.5"/>
</g>
<!-- AutoSchoolIdStrategy -->
<g id="node14" class="node">
<title>AutoSchoolIdStrategy</title>
<ellipse fill="#fdb462" stroke="black" cx="1543" cy="-104" rx="97.29" ry="18"/>
<text text-anchor="middle" x="1543" y="-99.8" font-family="Times,serif" font-size="14.00">AutoSchoolIdStrategy</text>
</g>
<!-- AutoSchoolIdStrategy&#45;&gt;ToolLaunchModule -->
<g id="edge13" class="edge">
<title>AutoSchoolIdStrategy&#45;&gt;ToolLaunchModule</title>
<path fill="none" stroke="black" d="M1543,-122.01C1543,-138.05 1543,-159 1543,-159 1543,-159 2041.94,-159 2041.94,-159"/>
<polygon fill="black" stroke="black" points="2041.94,-162.5 2051.94,-159 2041.94,-155.5 2041.94,-162.5"/>
</g>
<!-- AutoSchoolNumberStrategy -->
<g id="node15" class="node">
<title>AutoSchoolNumberStrategy</title>
<ellipse fill="#fdb462" stroke="black" cx="1307" cy="-104" rx="120.99" ry="18"/>
<text text-anchor="middle" x="1307" y="-99.8" font-family="Times,serif" font-size="14.00">AutoSchoolNumberStrategy</text>
</g>
<!-- AutoSchoolNumberStrategy&#45;&gt;ToolLaunchModule -->
<g id="edge14" class="edge">
<title>AutoSchoolNumberStrategy&#45;&gt;ToolLaunchModule</title>
<path fill="none" stroke="black" d="M1307,-122.02C1307,-139.37 1307,-163 1307,-163 1307,-163 2041.84,-163 2041.84,-163"/>
<polygon fill="black" stroke="black" points="2041.84,-166.5 2051.84,-163 2041.84,-159.5 2041.84,-166.5"/>
</g>
<!-- BasicToolLaunchStrategy -->
<g id="node16" class="node">
<title>BasicToolLaunchStrategy</title>
<ellipse fill="#fdb462" stroke="black" cx="1056" cy="-104" rx="111.74" ry="18"/>
<text text-anchor="middle" x="1056" y="-99.8" font-family="Times,serif" font-size="14.00">BasicToolLaunchStrategy</text>
</g>
<!-- BasicToolLaunchStrategy&#45;&gt;ToolLaunchModule -->
<g id="edge15" class="edge">
<title>BasicToolLaunchStrategy&#45;&gt;ToolLaunchModule</title>
<path fill="none" stroke="black" d="M1056,-122.22C1056,-140.83 1056,-167 1056,-167 1056,-167 2041.68,-167 2041.68,-167"/>
<polygon fill="black" stroke="black" points="2041.68,-170.5 2051.68,-167 2041.68,-163.5 2041.68,-170.5"/>
</g>
<!-- Lti11EncryptionService -->
<g id="node17" class="node">
<title>Lti11EncryptionService</title>
<ellipse fill="#fdb462" stroke="black" cx="822" cy="-104" rx="103.65" ry="18"/>
<text text-anchor="middle" x="822" y="-99.8" font-family="Times,serif" font-size="14.00">Lti11EncryptionService</text>
</g>
<!-- Lti11EncryptionService&#45;&gt;ToolLaunchModule -->
<g id="edge16" class="edge">
<title>Lti11EncryptionService&#45;&gt;ToolLaunchModule</title>
<path fill="none" stroke="black" d="M822,-122.31C822,-142.15 822,-171 822,-171 822,-171 2041.83,-171 2041.83,-171"/>
<polygon fill="black" stroke="black" points="2041.83,-174.5 2051.83,-171 2041.83,-167.5 2041.83,-174.5"/>
</g>
<!-- Lti11ToolLaunchStrategy -->
<g id="node18" class="node">
<title>Lti11ToolLaunchStrategy</title>
<ellipse fill="#fdb462" stroke="black" cx="589" cy="-104" rx="111.18" ry="18"/>
<text text-anchor="middle" x="589" y="-99.8" font-family="Times,serif" font-size="14.00">Lti11ToolLaunchStrategy</text>
</g>
<!-- Lti11ToolLaunchStrategy&#45;&gt;ToolLaunchModule -->
<g id="edge17" class="edge">
<title>Lti11ToolLaunchStrategy&#45;&gt;ToolLaunchModule</title>
<path fill="none" stroke="black" d="M589,-122.28C589,-143.32 589,-175 589,-175 589,-175 2041.85,-175 2041.85,-175"/>
<polygon fill="black" stroke="black" points="2041.85,-178.5 2051.85,-175 2041.85,-171.5 2041.85,-178.5"/>
</g>
<!-- OAuth2ToolLaunchStrategy -->
<g id="node19" class="node">
<title>OAuth2ToolLaunchStrategy</title>
<ellipse fill="#fdb462" stroke="black" cx="338" cy="-104" rx="121.55" ry="18"/>
<text text-anchor="middle" x="338" y="-99.8" font-family="Times,serif" font-size="14.00">OAuth2ToolLaunchStrategy</text>
</g>
<!-- OAuth2ToolLaunchStrategy&#45;&gt;ToolLaunchModule -->
<g id="edge18" class="edge">
<title>OAuth2ToolLaunchStrategy&#45;&gt;ToolLaunchModule</title>
<path fill="none" stroke="black" d="M338,-122.16C338,-144.35 338,-179 338,-179 338,-179 2041.93,-179 2041.93,-179"/>
<polygon fill="black" stroke="black" points="2041.93,-182.5 2051.93,-179 2041.93,-175.5 2041.93,-182.5"/>
</g>
<!-- ToolLaunchService -->
<g id="node20" class="node">
<title>ToolLaunchService</title>
<ellipse fill="#fdb462" stroke="black" cx="111" cy="-104" rx="87.38" ry="18"/>
<text text-anchor="middle" x="111" y="-99.8" font-family="Times,serif" font-size="14.00">ToolLaunchService</text>
</g>
<!-- ToolLaunchService&#45;&gt;ToolLaunchModule -->
<g id="edge19" class="edge">
<title>ToolLaunchService&#45;&gt;ToolLaunchModule</title>
<path fill="none" stroke="black" d="M111,-122.32C111,-145.66 111,-183 111,-183 111,-183 2041.84,-183 2041.84,-183"/>
<polygon fill="black" stroke="black" points="2041.84,-186.5 2051.84,-183 2041.84,-179.5 2041.84,-186.5"/>
</g>
</g>
</svg>
