<?xml version="1.0" encoding="UTF-8" standalone="no"?>
<!DOCTYPE svg PUBLIC "-//W3C//DTD SVG 1.1//EN"
 "http://www.w3.org/Graphics/SVG/1.1/DTD/svg11.dtd">
<!-- Generated by graphviz version 2.47.0 (20210316.0004)
 -->
<!-- Title: dependencies Pages: 1 -->
<svg width="2445pt" height="284pt"
 viewBox="0.00 0.00 2445.00 284.00" xmlns="http://www.w3.org/2000/svg" xmlns:xlink="http://www.w3.org/1999/xlink">
<g id="graph0" class="graph" transform="scale(1 1) rotate(0) translate(4 280)">
<title>dependencies</title>
<polygon fill="white" stroke="transparent" points="-4,4 -4,-280 2441,-280 2441,4 -4,4"/>
<text text-anchor="start" x="1197.51" y="-42.4" font-family="Times-12" font-weight="bold" font-size="14.00">Legend</text>
<polygon fill="#ffffb3" stroke="transparent" points="984.5,-10 984.5,-30 1004.5,-30 1004.5,-10 984.5,-10"/>
<text text-anchor="start" x="1008.13" y="-15.4" font-family="Times-12" font-size="14.00"> &#160;Declarations</text>
<polygon fill="#8dd3c7" stroke="transparent" points="1097.5,-10 1097.5,-30 1117.5,-30 1117.5,-10 1097.5,-10"/>
<text text-anchor="start" x="1121.23" y="-15.4" font-family="Times-12" font-size="14.00"> &#160;Module</text>
<polygon fill="#80b1d3" stroke="transparent" points="1183.5,-10 1183.5,-30 1203.5,-30 1203.5,-10 1183.5,-10"/>
<text text-anchor="start" x="1207.28" y="-15.4" font-family="Times-12" font-size="14.00"> &#160;Bootstrap</text>
<polygon fill="#fdb462" stroke="transparent" points="1280.5,-10 1280.5,-30 1300.5,-30 1300.5,-10 1280.5,-10"/>
<text text-anchor="start" x="1304.17" y="-15.4" font-family="Times-12" font-size="14.00"> &#160;Providers</text>
<polygon fill="#fb8072" stroke="transparent" points="1376.5,-10 1376.5,-30 1396.5,-30 1396.5,-10 1376.5,-10"/>
<text text-anchor="start" x="1400.23" y="-15.4" font-family="Times-12" font-size="14.00"> &#160;Exports</text>
<g id="clust1" class="cluster">
<title>cluster_ToolLaunchModule</title>
<polygon fill="none" stroke="black" stroke-dasharray="1,5" points="8,-70 8,-268 2429,-268 2429,-70 8,-70"/>
</g>
<g id="clust6" class="cluster">
<title>cluster_ToolLaunchModule_providers</title>
<polygon fill="none" stroke="black" points="1261,-78 1261,-130 2421,-130 2421,-78 1261,-78"/>
</g>
<g id="clust4" class="cluster">
<title>cluster_ToolLaunchModule_exports</title>
<polygon fill="none" stroke="black" points="927,-208 927,-260 1073,-260 1073,-208 927,-208"/>
</g>
<g id="clust3" class="cluster">
<title>cluster_ToolLaunchModule_imports</title>
<polygon fill="none" stroke="black" points="16,-78 16,-130 1253,-130 1253,-78 16,-78"/>
</g>
<!-- CommonToolModule -->
<g id="node1" class="node">
<title>CommonToolModule</title>
<polygon fill="#8dd3c7" stroke="black" points="1245.11,-122 1242.11,-126 1221.11,-126 1218.11,-122 1106.89,-122 1106.89,-86 1245.11,-86 1245.11,-122"/>
<text text-anchor="middle" x="1176" y="-99.8" font-family="Times,serif" font-size="14.00">CommonToolModule</text>
</g>
<!-- ToolLaunchModule -->
<g id="node9" class="node">
<title>ToolLaunchModule</title>
<polygon fill="#8dd3c7" stroke="black" points="1063.97,-187 1060.97,-191 1039.97,-191 1036.97,-187 936.03,-187 936.03,-151 1063.97,-151 1063.97,-187"/>
<text text-anchor="middle" x="1000" y="-164.8" font-family="Times,serif" font-size="14.00">ToolLaunchModule</text>
</g>
<!-- CommonToolModule&#45;&gt;ToolLaunchModule -->
<g id="edge1" class="edge">
<title>CommonToolModule&#45;&gt;ToolLaunchModule</title>
<path fill="none" stroke="black" d="M1176,-122.24C1176,-137.57 1176,-157 1176,-157 1176,-157 1074.04,-157 1074.04,-157"/>
<polygon fill="black" stroke="black" points="1074.04,-153.5 1064.04,-157 1074.04,-160.5 1074.04,-153.5"/>
</g>
<!-- ContextExternalToolModule -->
<g id="node2" class="node">
<title>ContextExternalToolModule</title>
<polygon fill="#8dd3c7" stroke="black" points="1088.75,-122 1085.75,-126 1064.75,-126 1061.75,-122 911.25,-122 911.25,-86 1088.75,-86 1088.75,-122"/>
<text text-anchor="middle" x="1000" y="-99.8" font-family="Times,serif" font-size="14.00">ContextExternalToolModule</text>
</g>
<!-- ContextExternalToolModule&#45;&gt;ToolLaunchModule -->
<g id="edge2" class="edge">
<title>ContextExternalToolModule&#45;&gt;ToolLaunchModule</title>
<path fill="none" stroke="black" d="M1000,-122.11C1000,-122.11 1000,-140.99 1000,-140.99"/>
<polygon fill="black" stroke="black" points="996.5,-140.99 1000,-150.99 1003.5,-140.99 996.5,-140.99"/>
</g>
<!-- ExternalToolModule -->
<g id="node3" class="node">
<title>ExternalToolModule</title>
<polygon fill="#8dd3c7" stroke="black" points="892.92,-122 889.92,-126 868.92,-126 865.92,-122 759.08,-122 759.08,-86 892.92,-86 892.92,-122"/>
<text text-anchor="middle" x="826" y="-99.8" font-family="Times,serif" font-size="14.00">ExternalToolModule</text>
</g>
<!-- ExternalToolModule&#45;&gt;ToolLaunchModule -->
<g id="edge3" class="edge">
<title>ExternalToolModule&#45;&gt;ToolLaunchModule</title>
<path fill="none" stroke="black" d="M826,-122.24C826,-137.57 826,-157 826,-157 826,-157 925.7,-157 925.7,-157"/>
<polygon fill="black" stroke="black" points="925.7,-160.5 935.7,-157 925.7,-153.5 925.7,-160.5"/>
</g>
<!-- LearnroomModule -->
<g id="node4" class="node">
<title>LearnroomModule</title>
<polygon fill="#8dd3c7" stroke="black" points="740.74,-122 737.74,-126 716.74,-126 713.74,-122 619.26,-122 619.26,-86 740.74,-86 740.74,-122"/>
<text text-anchor="middle" x="680" y="-99.8" font-family="Times,serif" font-size="14.00">LearnroomModule</text>
</g>
<!-- LearnroomModule&#45;&gt;ToolLaunchModule -->
<g id="edge4" class="edge">
<title>LearnroomModule&#45;&gt;ToolLaunchModule</title>
<path fill="none" stroke="black" d="M680,-122.03C680,-139.06 680,-162 680,-162 680,-162 926.01,-162 926.01,-162"/>
<polygon fill="black" stroke="black" points="926.01,-165.5 936.01,-162 926.01,-158.5 926.01,-165.5"/>
</g>
<!-- LegacySchoolModule -->
<g id="node5" class="node">
<title>LegacySchoolModule</title>
<polygon fill="#8dd3c7" stroke="black" points="600.63,-122 597.63,-126 576.63,-126 573.63,-122 461.37,-122 461.37,-86 600.63,-86 600.63,-122"/>
<text text-anchor="middle" x="531" y="-99.8" font-family="Times,serif" font-size="14.00">LegacySchoolModule</text>
</g>
<!-- LegacySchoolModule&#45;&gt;ToolLaunchModule -->
<g id="edge5" class="edge">
<title>LegacySchoolModule&#45;&gt;ToolLaunchModule</title>
<path fill="none" stroke="black" d="M531,-122.22C531,-140.83 531,-167 531,-167 531,-167 925.77,-167 925.77,-167"/>
<polygon fill="black" stroke="black" points="925.77,-170.5 935.77,-167 925.77,-163.5 925.77,-170.5"/>
</g>
<!-- PseudonymModule -->
<g id="node6" class="node">
<title>PseudonymModule</title>
<polygon fill="#8dd3c7" stroke="black" points="443.38,-122 440.38,-126 419.38,-126 416.38,-122 318.62,-122 318.62,-86 443.38,-86 443.38,-122"/>
<text text-anchor="middle" x="381" y="-99.8" font-family="Times,serif" font-size="14.00">PseudonymModule</text>
</g>
<!-- PseudonymModule&#45;&gt;ToolLaunchModule -->
<g id="edge6" class="edge">
<title>PseudonymModule&#45;&gt;ToolLaunchModule</title>
<path fill="none" stroke="black" d="M381,-122.22C381,-142.37 381,-172 381,-172 381,-172 925.8,-172 925.8,-172"/>
<polygon fill="black" stroke="black" points="925.8,-175.5 935.8,-172 925.8,-168.5 925.8,-175.5"/>
</g>
<!-- SchoolExternalToolModule -->
<g id="node7" class="node">
<title>SchoolExternalToolModule</title>
<polygon fill="#8dd3c7" stroke="black" points="300.3,-122 297.3,-126 276.3,-126 273.3,-122 127.7,-122 127.7,-86 300.3,-86 300.3,-122"/>
<text text-anchor="middle" x="214" y="-99.8" font-family="Times,serif" font-size="14.00">SchoolExternalToolModule</text>
</g>
<!-- SchoolExternalToolModule&#45;&gt;ToolLaunchModule -->
<g id="edge7" class="edge">
<title>SchoolExternalToolModule&#45;&gt;ToolLaunchModule</title>
<path fill="none" stroke="black" d="M214,-122.04C214,-143.66 214,-177 214,-177 214,-177 926.01,-177 926.01,-177"/>
<polygon fill="black" stroke="black" points="926.01,-180.5 936.01,-177 926.01,-173.5 926.01,-180.5"/>
</g>
<!-- UserModule -->
<g id="node8" class="node">
<title>UserModule</title>
<polygon fill="#8dd3c7" stroke="black" points="109.98,-122 106.98,-126 85.98,-126 82.98,-122 24.02,-122 24.02,-86 109.98,-86 109.98,-122"/>
<text text-anchor="middle" x="67" y="-99.8" font-family="Times,serif" font-size="14.00">UserModule</text>
</g>
<!-- UserModule&#45;&gt;ToolLaunchModule -->
<g id="edge8" class="edge">
<title>UserModule&#45;&gt;ToolLaunchModule</title>
<path fill="none" stroke="black" d="M67,-122.09C67,-145.13 67,-182 67,-182 67,-182 925.87,-182 925.87,-182"/>
<polygon fill="black" stroke="black" points="925.87,-185.5 935.87,-182 925.87,-178.5 925.87,-185.5"/>
</g>
<!-- ToolLaunchService  -->
<g id="node10" class="node">
<title>ToolLaunchService </title>
<polygon fill="#fb8072" stroke="black" points="1064.9,-252 935.1,-252 935.1,-216 1064.9,-216 1064.9,-252"/>
<text text-anchor="middle" x="1000" y="-229.8" font-family="Times,serif" font-size="14.00">ToolLaunchService </text>
</g>
<!-- ToolLaunchModule&#45;&gt;ToolLaunchService  -->
<g id="edge9" class="edge">
<title>ToolLaunchModule&#45;&gt;ToolLaunchService </title>
<path fill="none" stroke="black" stroke-dasharray="5,2" d="M1000,-187.11C1000,-187.11 1000,-205.99 1000,-205.99"/>
<polygon fill="black" stroke="black" points="996.5,-205.99 1000,-215.99 1003.5,-205.99 996.5,-205.99"/>
</g>
<!-- BasicToolLaunchStrategy -->
<g id="node11" class="node">
<title>BasicToolLaunchStrategy</title>
<ellipse fill="#fdb462" stroke="black" cx="2301" cy="-104" rx="111.74" ry="18"/>
<text text-anchor="middle" x="2301" y="-99.8" font-family="Times,serif" font-size="14.00">BasicToolLaunchStrategy</text>
</g>
<!-- BasicToolLaunchStrategy&#45;&gt;ToolLaunchModule -->
<g id="edge10" class="edge">
<title>BasicToolLaunchStrategy&#45;&gt;ToolLaunchModule</title>
<path fill="none" stroke="black" d="M2301,-122.09C2301,-145.13 2301,-182 2301,-182 2301,-182 1074.07,-182 1074.07,-182"/>
<polygon fill="black" stroke="black" points="1074.07,-178.5 1064.07,-182 1074.07,-185.5 1074.07,-178.5"/>
</g>
<!-- Lti11EncryptionService -->
<g id="node12" class="node">
<title>Lti11EncryptionService</title>
<ellipse fill="#fdb462" stroke="black" cx="2067" cy="-104" rx="103.65" ry="18"/>
<text text-anchor="middle" x="2067" y="-99.8" font-family="Times,serif" font-size="14.00">Lti11EncryptionService</text>
</g>
<!-- Lti11EncryptionService&#45;&gt;ToolLaunchModule -->
<g id="edge11" class="edge">
<title>Lti11EncryptionService&#45;&gt;ToolLaunchModule</title>
<path fill="none" stroke="black" d="M2067,-122.04C2067,-143.66 2067,-177 2067,-177 2067,-177 1074.34,-177 1074.34,-177"/>
<polygon fill="black" stroke="black" points="1074.34,-173.5 1064.34,-177 1074.34,-180.5 1074.34,-173.5"/>
</g>
<!-- Lti11ToolLaunchStrategy -->
<g id="node13" class="node">
<title>Lti11ToolLaunchStrategy</title>
<ellipse fill="#fdb462" stroke="black" cx="1834" cy="-104" rx="111.18" ry="18"/>
<text text-anchor="middle" x="1834" y="-99.8" font-family="Times,serif" font-size="14.00">Lti11ToolLaunchStrategy</text>
</g>
<!-- Lti11ToolLaunchStrategy&#45;&gt;ToolLaunchModule -->
<g id="edge12" class="edge">
<title>Lti11ToolLaunchStrategy&#45;&gt;ToolLaunchModule</title>
<path fill="none" stroke="black" d="M1834,-122.22C1834,-142.37 1834,-172 1834,-172 1834,-172 1074.06,-172 1074.06,-172"/>
<polygon fill="black" stroke="black" points="1074.06,-168.5 1064.06,-172 1074.06,-175.5 1074.06,-168.5"/>
</g>
<!-- OAuth2ToolLaunchStrategy -->
<g id="node14" class="node">
<title>OAuth2ToolLaunchStrategy</title>
<ellipse fill="#fdb462" stroke="black" cx="1583" cy="-104" rx="121.55" ry="18"/>
<text text-anchor="middle" x="1583" y="-99.8" font-family="Times,serif" font-size="14.00">OAuth2ToolLaunchStrategy</text>
</g>
<!-- OAuth2ToolLaunchStrategy&#45;&gt;ToolLaunchModule -->
<g id="edge13" class="edge">
<title>OAuth2ToolLaunchStrategy&#45;&gt;ToolLaunchModule</title>
<path fill="none" stroke="black" d="M1583,-122.22C1583,-140.83 1583,-167 1583,-167 1583,-167 1074.06,-167 1074.06,-167"/>
<polygon fill="black" stroke="black" points="1074.06,-163.5 1064.06,-167 1074.06,-170.5 1074.06,-163.5"/>
</g>
<!-- ToolLaunchService -->
<g id="node15" class="node">
<title>ToolLaunchService</title>
<ellipse fill="#fdb462" stroke="black" cx="1356" cy="-104" rx="87.38" ry="18"/>
<text text-anchor="middle" x="1356" y="-99.8" font-family="Times,serif" font-size="14.00">ToolLaunchService</text>
</g>
<!-- ToolLaunchService&#45;&gt;ToolLaunchModule -->
<g id="edge14" class="edge">
<title>ToolLaunchService&#45;&gt;ToolLaunchModule</title>
<path fill="none" stroke="black" d="M1356,-122.03C1356,-139.06 1356,-162 1356,-162 1356,-162 1074.06,-162 1074.06,-162"/>
<polygon fill="black" stroke="black" points="1074.06,-158.5 1064.06,-162 1074.06,-165.5 1074.06,-158.5"/>
</g>
</g>
</svg>
