<?xml version="1.0" encoding="UTF-8" standalone="no"?>
<!DOCTYPE svg PUBLIC "-//W3C//DTD SVG 1.1//EN"
 "http://www.w3.org/Graphics/SVG/1.1/DTD/svg11.dtd">
<!-- Generated by graphviz version 2.47.0 (20210316.0004)
 -->
<!-- Title: dependencies Pages: 1 -->
<svg width="538pt" height="284pt"
 viewBox="0.00 0.00 538.00 284.00" xmlns="http://www.w3.org/2000/svg" xmlns:xlink="http://www.w3.org/1999/xlink">
<g id="graph0" class="graph" transform="scale(1 1) rotate(0) translate(4 280)">
<title>dependencies</title>
<polygon fill="white" stroke="transparent" points="-4,4 -4,-280 534,-280 534,4 -4,4"/>
<text text-anchor="start" x="244.01" y="-42.4" font-family="Times-12" font-weight="bold" font-size="14.00">Legend</text>
<polygon fill="#ffffb3" stroke="transparent" points="31,-10 31,-30 51,-30 51,-10 31,-10"/>
<text text-anchor="start" x="54.63" y="-15.4" font-family="Times-12" font-size="14.00"> &#160;Declarations</text>
<polygon fill="#8dd3c7" stroke="transparent" points="144,-10 144,-30 164,-30 164,-10 144,-10"/>
<text text-anchor="start" x="167.73" y="-15.4" font-family="Times-12" font-size="14.00"> &#160;Module</text>
<polygon fill="#80b1d3" stroke="transparent" points="230,-10 230,-30 250,-30 250,-10 230,-10"/>
<text text-anchor="start" x="253.78" y="-15.4" font-family="Times-12" font-size="14.00"> &#160;Bootstrap</text>
<polygon fill="#fdb462" stroke="transparent" points="327,-10 327,-30 347,-30 347,-10 327,-10"/>
<text text-anchor="start" x="350.67" y="-15.4" font-family="Times-12" font-size="14.00"> &#160;Providers</text>
<polygon fill="#fb8072" stroke="transparent" points="423,-10 423,-30 443,-30 443,-10 423,-10"/>
<text text-anchor="start" x="446.73" y="-15.4" font-family="Times-12" font-size="14.00"> &#160;Exports</text>
<g id="clust1" class="cluster">
<title>cluster_CoreModule</title>
<polygon fill="none" stroke="black" stroke-dasharray="1,5" points="8,-70 8,-268 522,-268 522,-70 8,-70"/>
</g>
<g id="clust3" class="cluster">
<title>cluster_CoreModule_imports</title>
<polygon fill="none" stroke="black" points="16,-78 16,-130 514,-130 514,-78 16,-78"/>
</g>
<g id="clust4" class="cluster">
<title>cluster_CoreModule_exports</title>
<polygon fill="none" stroke="black" points="214,-208 214,-260 334,-260 334,-208 214,-208"/>
</g>
<!-- ErrorModule -->
<g id="node1" class="node">
<title>ErrorModule</title>
<polygon fill="#8dd3c7" stroke="black" points="505.58,-122 502.58,-126 481.58,-126 478.58,-122 416.42,-122 416.42,-86 505.58,-86 505.58,-122"/>
<text text-anchor="middle" x="461" y="-99.8" font-family="Times,serif" font-size="14.00">ErrorModule</text>
</g>
<!-- CoreModule -->
<g id="node5" class="node">
<title>CoreModule</title>
<polygon fill="#8dd3c7" stroke="black" points="317.26,-187 314.26,-191 293.26,-191 290.26,-187 230.74,-187 230.74,-151 317.26,-151 317.26,-187"/>
<text text-anchor="middle" x="274" y="-164.8" font-family="Times,serif" font-size="14.00">CoreModule</text>
</g>
<!-- ErrorModule&#45;&gt;CoreModule -->
<g id="edge1" class="edge">
<title>ErrorModule&#45;&gt;CoreModule</title>
<path fill="none" stroke="black" d="M461,-122.11C461,-141.34 461,-169 461,-169 461,-169 327.37,-169 327.37,-169"/>
<polygon fill="black" stroke="black" points="327.37,-165.5 317.37,-169 327.37,-172.5 327.37,-165.5"/>
</g>
<!-- InterceptorModule -->
<g id="node2" class="node">
<title>InterceptorModule</title>
<polygon fill="#8dd3c7" stroke="black" points="398.46,-122 395.46,-126 374.46,-126 371.46,-122 277.54,-122 277.54,-86 398.46,-86 398.46,-122"/>
<text text-anchor="middle" x="338" y="-99.8" font-family="Times,serif" font-size="14.00">InterceptorModule</text>
</g>
<!-- InterceptorModule&#45;&gt;CoreModule -->
<g id="edge2" class="edge">
<title>InterceptorModule&#45;&gt;CoreModule</title>
<path fill="none" stroke="black" d="M297.45,-122.11C297.45,-122.11 297.45,-140.99 297.45,-140.99"/>
<polygon fill="black" stroke="black" points="293.95,-140.99 297.45,-150.99 300.95,-140.99 293.95,-140.99"/>
</g>
<!-- LoggerModule -->
<g id="node3" class="node">
<title>LoggerModule</title>
<polygon fill="#8dd3c7" stroke="black" points="259.98,-122 256.98,-126 235.98,-126 232.98,-122 160.02,-122 160.02,-86 259.98,-86 259.98,-122"/>
<text text-anchor="middle" x="210" y="-99.8" font-family="Times,serif" font-size="14.00">LoggerModule</text>
</g>
<!-- LoggerModule&#45;&gt;CoreModule -->
<g id="edge3" class="edge">
<title>LoggerModule&#45;&gt;CoreModule</title>
<path fill="none" stroke="black" d="M245.3,-122.11C245.3,-122.11 245.3,-140.99 245.3,-140.99"/>
<polygon fill="black" stroke="black" points="241.8,-140.99 245.3,-150.99 248.8,-140.99 241.8,-140.99"/>
</g>
<!-- ValidationModule -->
<g id="node4" class="node">
<title>ValidationModule</title>
<polygon fill="#8dd3c7" stroke="black" points="142.15,-122 139.15,-126 118.15,-126 115.15,-122 23.85,-122 23.85,-86 142.15,-86 142.15,-122"/>
<text text-anchor="middle" x="83" y="-99.8" font-family="Times,serif" font-size="14.00">ValidationModule</text>
</g>
<!-- ValidationModule&#45;&gt;CoreModule -->
<g id="edge4" class="edge">
<title>ValidationModule&#45;&gt;CoreModule</title>
<path fill="none" stroke="black" d="M83,-122.11C83,-141.34 83,-169 83,-169 83,-169 220.66,-169 220.66,-169"/>
<polygon fill="black" stroke="black" points="220.66,-172.5 230.66,-169 220.66,-165.5 220.66,-172.5"/>
</g>
<!-- LoggerModule  -->
<g id="node6" class="node">
<title>LoggerModule </title>
<polygon fill="#fb8072" stroke="black" points="325.98,-252 222.02,-252 222.02,-216 325.98,-216 325.98,-252"/>
<text text-anchor="middle" x="274" y="-229.8" font-family="Times,serif" font-size="14.00">LoggerModule </text>
</g>
<!-- CoreModule&#45;&gt;LoggerModule  -->
<g id="edge5" class="edge">
<title>CoreModule&#45;&gt;LoggerModule </title>
<path fill="none" stroke="black" stroke-dasharray="5,2" d="M274,-187.11C274,-187.11 274,-205.99 274,-205.99"/>
<polygon fill="black" stroke="black" points="270.5,-205.99 274,-215.99 277.5,-205.99 270.5,-205.99"/>
</g>
</g>
</svg>
