<?xml version="1.0" encoding="UTF-8" standalone="no"?>
<!DOCTYPE svg PUBLIC "-//W3C//DTD SVG 1.1//EN"
 "http://www.w3.org/Graphics/SVG/1.1/DTD/svg11.dtd">
<!-- Generated by graphviz version 2.47.0 (20210316.0004)
 -->
<!-- Title: dependencies Pages: 1 -->
<svg width="2391pt" height="211pt"
 viewBox="0.00 0.00 2391.00 211.00" xmlns="http://www.w3.org/2000/svg" xmlns:xlink="http://www.w3.org/1999/xlink">
<g id="graph0" class="graph" transform="scale(1 1) rotate(0) translate(4 207)">
<title>dependencies</title>
<polygon fill="white" stroke="transparent" points="-4,4 -4,-207 2387,-207 2387,4 -4,4"/>
<text text-anchor="start" x="1170.51" y="-42.4" font-family="Times-12" font-weight="bold" font-size="14.00">Legend</text>
<polygon fill="#ffffb3" stroke="transparent" points="957.5,-10 957.5,-30 977.5,-30 977.5,-10 957.5,-10"/>
<text text-anchor="start" x="981.13" y="-15.4" font-family="Times-12" font-size="14.00"> &#160;Declarations</text>
<polygon fill="#8dd3c7" stroke="transparent" points="1070.5,-10 1070.5,-30 1090.5,-30 1090.5,-10 1070.5,-10"/>
<text text-anchor="start" x="1094.23" y="-15.4" font-family="Times-12" font-size="14.00"> &#160;Module</text>
<polygon fill="#80b1d3" stroke="transparent" points="1156.5,-10 1156.5,-30 1176.5,-30 1176.5,-10 1156.5,-10"/>
<text text-anchor="start" x="1180.28" y="-15.4" font-family="Times-12" font-size="14.00"> &#160;Bootstrap</text>
<polygon fill="#fdb462" stroke="transparent" points="1253.5,-10 1253.5,-30 1273.5,-30 1273.5,-10 1253.5,-10"/>
<text text-anchor="start" x="1277.17" y="-15.4" font-family="Times-12" font-size="14.00"> &#160;Providers</text>
<polygon fill="#fb8072" stroke="transparent" points="1349.5,-10 1349.5,-30 1369.5,-30 1369.5,-10 1349.5,-10"/>
<text text-anchor="start" x="1373.23" y="-15.4" font-family="Times-12" font-size="14.00"> &#160;Exports</text>
<g id="clust1" class="cluster">
<title>cluster_UserLoginMigrationApiModule</title>
<polygon fill="none" stroke="black" stroke-dasharray="1,5" points="8,-70 8,-195 2375,-195 2375,-70 8,-70"/>
</g>
<g id="clust3" class="cluster">
<title>cluster_UserLoginMigrationApiModule_imports</title>
<polygon fill="none" stroke="black" points="1324,-78 1324,-130 2367,-130 2367,-78 1324,-78"/>
</g>
<g id="clust6" class="cluster">
<title>cluster_UserLoginMigrationApiModule_providers</title>
<polygon fill="none" stroke="black" points="16,-78 16,-130 1316,-130 1316,-78 16,-78"/>
</g>
<!-- AuthenticationModule -->
<g id="node1" class="node">
<title>AuthenticationModule</title>
<polygon fill="#8dd3c7" stroke="black" points="2359.25,-122 2356.25,-126 2335.25,-126 2332.25,-122 2216.75,-122 2216.75,-86 2359.25,-86 2359.25,-122"/>
<text text-anchor="middle" x="2288" y="-99.8" font-family="Times,serif" font-size="14.00">AuthenticationModule</text>
</g>
<!-- UserLoginMigrationApiModule -->
<g id="node8" class="node">
<title>UserLoginMigrationApiModule</title>
<polygon fill="#8dd3c7" stroke="black" points="1603.41,-187 1600.41,-191 1579.41,-191 1576.41,-187 1406.59,-187 1406.59,-151 1603.41,-151 1603.41,-187"/>
<text text-anchor="middle" x="1505" y="-164.8" font-family="Times,serif" font-size="14.00">UserLoginMigrationApiModule</text>
</g>
<!-- AuthenticationModule&#45;&gt;UserLoginMigrationApiModule -->
<g id="edge1" class="edge">
<title>AuthenticationModule&#45;&gt;UserLoginMigrationApiModule</title>
<path fill="none" stroke="black" d="M2288,-122.09C2288,-145.13 2288,-182 2288,-182 2288,-182 1613.37,-182 1613.37,-182"/>
<polygon fill="black" stroke="black" points="1613.37,-178.5 1603.37,-182 1613.37,-185.5 1613.37,-178.5"/>
</g>
<!-- AuthorizationModule -->
<g id="node2" class="node">
<title>AuthorizationModule</title>
<polygon fill="#8dd3c7" stroke="black" points="2198.81,-122 2195.81,-126 2174.81,-126 2171.81,-122 2061.19,-122 2061.19,-86 2198.81,-86 2198.81,-122"/>
<text text-anchor="middle" x="2130" y="-99.8" font-family="Times,serif" font-size="14.00">AuthorizationModule</text>
</g>
<!-- AuthorizationModule&#45;&gt;UserLoginMigrationApiModule -->
<g id="edge2" class="edge">
<title>AuthorizationModule&#45;&gt;UserLoginMigrationApiModule</title>
<path fill="none" stroke="black" d="M2130,-122.28C2130,-143.32 2130,-175 2130,-175 2130,-175 1613.34,-175 1613.34,-175"/>
<polygon fill="black" stroke="black" points="1613.34,-171.5 1603.34,-175 1613.34,-178.5 1613.34,-171.5"/>
</g>
<!-- LegacySchoolModule -->
<g id="node3" class="node">
<title>LegacySchoolModule</title>
<polygon fill="#8dd3c7" stroke="black" points="2043.63,-122 2040.63,-126 2019.63,-126 2016.63,-122 1904.37,-122 1904.37,-86 2043.63,-86 2043.63,-122"/>
<text text-anchor="middle" x="1974" y="-99.8" font-family="Times,serif" font-size="14.00">LegacySchoolModule</text>
</g>
<!-- LegacySchoolModule&#45;&gt;UserLoginMigrationApiModule -->
<g id="edge3" class="edge">
<title>LegacySchoolModule&#45;&gt;UserLoginMigrationApiModule</title>
<path fill="none" stroke="black" d="M1974,-122.11C1974,-141.34 1974,-169 1974,-169 1974,-169 1613.32,-169 1613.32,-169"/>
<polygon fill="black" stroke="black" points="1613.32,-165.5 1603.32,-169 1613.32,-172.5 1613.32,-165.5"/>
</g>
<!-- LoggerModule -->
<g id="node4" class="node">
<title>LoggerModule</title>
<polygon fill="#8dd3c7" stroke="black" points="1885.98,-122 1882.98,-126 1861.98,-126 1858.98,-122 1786.02,-122 1786.02,-86 1885.98,-86 1885.98,-122"/>
<text text-anchor="middle" x="1836" y="-99.8" font-family="Times,serif" font-size="14.00">LoggerModule</text>
</g>
<!-- LoggerModule&#45;&gt;UserLoginMigrationApiModule -->
<g id="edge4" class="edge">
<title>LoggerModule&#45;&gt;UserLoginMigrationApiModule</title>
<path fill="none" stroke="black" d="M1836,-122.02C1836,-139.37 1836,-163 1836,-163 1836,-163 1613.41,-163 1613.41,-163"/>
<polygon fill="black" stroke="black" points="1613.41,-159.5 1603.41,-163 1613.41,-166.5 1613.41,-159.5"/>
</g>
<!-- OauthModule -->
<g id="node5" class="node">
<title>OauthModule</title>
<polygon fill="#8dd3c7" stroke="black" points="1767.76,-122 1764.76,-126 1743.76,-126 1740.76,-122 1674.24,-122 1674.24,-86 1767.76,-86 1767.76,-122"/>
<text text-anchor="middle" x="1721" y="-99.8" font-family="Times,serif" font-size="14.00">OauthModule</text>
</g>
<!-- OauthModule&#45;&gt;UserLoginMigrationApiModule -->
<g id="edge5" class="edge">
<title>OauthModule&#45;&gt;UserLoginMigrationApiModule</title>
<path fill="none" stroke="black" d="M1721,-122.24C1721,-137.57 1721,-157 1721,-157 1721,-157 1613.52,-157 1613.52,-157"/>
<polygon fill="black" stroke="black" points="1613.52,-153.5 1603.52,-157 1613.52,-160.5 1613.52,-153.5"/>
</g>
<!-- ProvisioningModule -->
<g id="node6" class="node">
<title>ProvisioningModule</title>
<polygon fill="#8dd3c7" stroke="black" points="1656.61,-122 1653.61,-126 1632.61,-126 1629.61,-122 1525.39,-122 1525.39,-86 1656.61,-86 1656.61,-122"/>
<text text-anchor="middle" x="1591" y="-99.8" font-family="Times,serif" font-size="14.00">ProvisioningModule</text>
</g>
<!-- ProvisioningModule&#45;&gt;UserLoginMigrationApiModule -->
<g id="edge6" class="edge">
<title>ProvisioningModule&#45;&gt;UserLoginMigrationApiModule</title>
<path fill="none" stroke="black" d="M1564.32,-122.11C1564.32,-122.11 1564.32,-140.99 1564.32,-140.99"/>
<polygon fill="black" stroke="black" points="1560.82,-140.99 1564.32,-150.99 1567.82,-140.99 1560.82,-140.99"/>
</g>
<!-- UserLoginMigrationModule -->
<g id="node7" class="node">
<title>UserLoginMigrationModule</title>
<polygon fill="#8dd3c7" stroke="black" points="1507.91,-122 1504.91,-126 1483.91,-126 1480.91,-122 1332.09,-122 1332.09,-86 1507.91,-86 1507.91,-122"/>
<text text-anchor="middle" x="1420" y="-99.8" font-family="Times,serif" font-size="14.00">UserLoginMigrationModule</text>
</g>
<!-- UserLoginMigrationModule&#45;&gt;UserLoginMigrationApiModule -->
<g id="edge7" class="edge">
<title>UserLoginMigrationModule&#45;&gt;UserLoginMigrationApiModule</title>
<path fill="none" stroke="black" d="M1457.25,-122.11C1457.25,-122.11 1457.25,-140.99 1457.25,-140.99"/>
<polygon fill="black" stroke="black" points="1453.75,-140.99 1457.25,-150.99 1460.75,-140.99 1453.75,-140.99"/>
</g>
<!-- CloseUserLoginMigrationUc -->
<g id="node9" class="node">
<title>CloseUserLoginMigrationUc</title>
<ellipse fill="#fdb462" stroke="black" cx="1184" cy="-104" rx="124.42" ry="18"/>
<text text-anchor="middle" x="1184" y="-99.8" font-family="Times,serif" font-size="14.00">CloseUserLoginMigrationUc</text>
</g>
<!-- CloseUserLoginMigrationUc&#45;&gt;UserLoginMigrationApiModule -->
<g id="edge8" class="edge">
<title>CloseUserLoginMigrationUc&#45;&gt;UserLoginMigrationApiModule</title>
<path fill="none" stroke="black" d="M1184,-122.24C1184,-137.57 1184,-157 1184,-157 1184,-157 1396.51,-157 1396.51,-157"/>
<polygon fill="black" stroke="black" points="1396.51,-160.5 1406.51,-157 1396.51,-153.5 1396.51,-160.5"/>
</g>
<!-- RestartUserLoginMigrationUc -->
<g id="node10" class="node">
<title>RestartUserLoginMigrationUc</title>
<ellipse fill="#fdb462" stroke="black" cx="912" cy="-104" rx="129.63" ry="18"/>
<text text-anchor="middle" x="912" y="-99.8" font-family="Times,serif" font-size="14.00">RestartUserLoginMigrationUc</text>
</g>
<!-- RestartUserLoginMigrationUc&#45;&gt;UserLoginMigrationApiModule -->
<g id="edge9" class="edge">
<title>RestartUserLoginMigrationUc&#45;&gt;UserLoginMigrationApiModule</title>
<path fill="none" stroke="black" d="M912,-122.02C912,-139.37 912,-163 912,-163 912,-163 1396.75,-163 1396.75,-163"/>
<polygon fill="black" stroke="black" points="1396.75,-166.5 1406.75,-163 1396.75,-159.5 1396.75,-166.5"/>
</g>
<!-- StartUserLoginMigrationUc -->
<g id="node11" class="node">
<title>StartUserLoginMigrationUc</title>
<ellipse fill="#fdb462" stroke="black" cx="644" cy="-104" rx="120.4" ry="18"/>
<text text-anchor="middle" x="644" y="-99.8" font-family="Times,serif" font-size="14.00">StartUserLoginMigrationUc</text>
</g>
<!-- StartUserLoginMigrationUc&#45;&gt;UserLoginMigrationApiModule -->
<g id="edge10" class="edge">
<title>StartUserLoginMigrationUc&#45;&gt;UserLoginMigrationApiModule</title>
<path fill="none" stroke="black" d="M644,-122.11C644,-141.34 644,-169 644,-169 644,-169 1396.65,-169 1396.65,-169"/>
<polygon fill="black" stroke="black" points="1396.65,-172.5 1406.65,-169 1396.65,-165.5 1396.65,-172.5"/>
</g>
<!-- ToggleUserLoginMigrationUc -->
<g id="node12" class="node">
<title>ToggleUserLoginMigrationUc</title>
<ellipse fill="#fdb462" stroke="black" cx="376" cy="-104" rx="129.64" ry="18"/>
<text text-anchor="middle" x="376" y="-99.8" font-family="Times,serif" font-size="14.00">ToggleUserLoginMigrationUc</text>
</g>
<!-- ToggleUserLoginMigrationUc&#45;&gt;UserLoginMigrationApiModule -->
<g id="edge11" class="edge">
<title>ToggleUserLoginMigrationUc&#45;&gt;UserLoginMigrationApiModule</title>
<path fill="none" stroke="black" d="M376,-122.28C376,-143.32 376,-175 376,-175 376,-175 1396.78,-175 1396.78,-175"/>
<polygon fill="black" stroke="black" points="1396.78,-178.5 1406.78,-175 1396.78,-171.5 1396.78,-178.5"/>
</g>
<!-- UserLoginMigrationUc -->
<g id="node13" class="node">
<title>UserLoginMigrationUc</title>
<ellipse fill="#fdb462" stroke="black" cx="126" cy="-104" rx="102.43" ry="18"/>
<text text-anchor="middle" x="126" y="-99.8" font-family="Times,serif" font-size="14.00">UserLoginMigrationUc</text>
</g>
<!-- UserLoginMigrationUc&#45;&gt;UserLoginMigrationApiModule -->
<g id="edge12" class="edge">
<title>UserLoginMigrationUc&#45;&gt;UserLoginMigrationApiModule</title>
<path fill="none" stroke="black" d="M126,-122.09C126,-145.13 126,-182 126,-182 126,-182 1396.66,-182 1396.66,-182"/>
<polygon fill="black" stroke="black" points="1396.66,-185.5 1406.66,-182 1396.66,-178.5 1396.66,-185.5"/>
</g>
</g>
</svg>
