<?xml version="1.0" encoding="UTF-8" standalone="no"?>
<!DOCTYPE svg PUBLIC "-//W3C//DTD SVG 1.1//EN"
 "http://www.w3.org/Graphics/SVG/1.1/DTD/svg11.dtd">
<!-- Generated by graphviz version 5.0.0 (20220707.1540)
 -->
<!-- Title: dependencies Pages: 1 -->
<svg width="1197pt" height="174pt"
 viewBox="0.00 0.00 1197.00 173.80" xmlns="http://www.w3.org/2000/svg" xmlns:xlink="http://www.w3.org/1999/xlink">
<g id="graph0" class="graph" transform="scale(1 1) rotate(0) translate(4 169.8)">
<title>dependencies</title>
<polygon fill="white" stroke="transparent" points="-4,4 -4,-169.8 1193,-169.8 1193,4 -4,4"/>
<text text-anchor="middle" x="594.5" y="-8.2" font-family="sans-serif" font-size="14.00">dependencies</text>
<g id="clust1" class="cluster">
<title>cluster_UserLoginMigrationApiModule</title>
<polygon fill="none" stroke="black" stroke-dasharray="1,5" points="8,-32.8 8,-157.8 1181,-157.8 1181,-32.8 8,-32.8"/>
</g>
<g id="clust6" class="cluster">
<title>cluster_UserLoginMigrationApiModule_providers</title>
<polygon fill="none" stroke="black" points="754,-40.8 754,-92.8 1173,-92.8 1173,-40.8 754,-40.8"/>
</g>
<g id="clust3" class="cluster">
<title>cluster_UserLoginMigrationApiModule_imports</title>
<polygon fill="none" stroke="black" points="16,-40.8 16,-92.8 746,-92.8 746,-40.8 16,-40.8"/>
</g>
<!-- AuthenticationModule -->
<g id="node1" class="node">
<title>AuthenticationModule</title>
<polygon fill="#8dd3c7" stroke="black" points="738.25,-84.8 735.25,-88.8 714.25,-88.8 711.25,-84.8 595.75,-84.8 595.75,-48.8 738.25,-48.8 738.25,-84.8"/>
<text text-anchor="middle" x="667" y="-62.6" font-family="Times,serif" font-size="14.00">AuthenticationModule</text>
</g>
<!-- UserLoginMigrationApiModule -->
<g id="node6" class="node">
<title>UserLoginMigrationApiModule</title>
<polygon fill="#8dd3c7" stroke="black" points="626.42,-149.8 623.42,-153.8 602.42,-153.8 599.42,-149.8 429.58,-149.8 429.58,-113.8 626.42,-113.8 626.42,-149.8"/>
<text text-anchor="middle" x="528" y="-127.6" font-family="Times,serif" font-size="14.00">UserLoginMigrationApiModule</text>
</g>
<!-- AuthenticationModule&#45;&gt;UserLoginMigrationApiModule -->
<g id="edge1" class="edge">
<title>AuthenticationModule&#45;&gt;UserLoginMigrationApiModule</title>
<path fill="none" stroke="black" d="M610.92,-84.91C610.92,-84.91 610.92,-103.79 610.92,-103.79"/>
<polygon fill="black" stroke="black" points="607.42,-103.79 610.92,-113.79 614.42,-103.79 607.42,-103.79"/>
</g>
<!-- LoggerModule -->
<g id="node2" class="node">
<title>LoggerModule</title>
<polygon fill="#8dd3c7" stroke="black" points="577.98,-84.8 574.98,-88.8 553.98,-88.8 550.98,-84.8 478.02,-84.8 478.02,-48.8 577.98,-48.8 577.98,-84.8"/>
<text text-anchor="middle" x="528" y="-62.6" font-family="Times,serif" font-size="14.00">LoggerModule</text>
</g>
<!-- LoggerModule&#45;&gt;UserLoginMigrationApiModule -->
<g id="edge2" class="edge">
<title>LoggerModule&#45;&gt;UserLoginMigrationApiModule</title>
<path fill="none" stroke="black" d="M528,-84.91C528,-84.91 528,-103.79 528,-103.79"/>
<polygon fill="black" stroke="black" points="524.5,-103.79 528,-113.79 531.5,-103.79 524.5,-103.79"/>
</g>
<!-- OauthModule -->
<g id="node3" class="node">
<title>OauthModule</title>
<polygon fill="#8dd3c7" stroke="black" points="459.77,-84.8 456.77,-88.8 435.77,-88.8 432.77,-84.8 366.23,-84.8 366.23,-48.8 459.77,-48.8 459.77,-84.8"/>
<text text-anchor="middle" x="413" y="-62.6" font-family="Times,serif" font-size="14.00">OauthModule</text>
</g>
<!-- OauthModule&#45;&gt;UserLoginMigrationApiModule -->
<g id="edge3" class="edge">
<title>OauthModule&#45;&gt;UserLoginMigrationApiModule</title>
<path fill="none" stroke="black" d="M444.84,-84.91C444.84,-84.91 444.84,-103.79 444.84,-103.79"/>
<polygon fill="black" stroke="black" points="441.34,-103.79 444.84,-113.79 448.34,-103.79 441.34,-103.79"/>
</g>
<!-- ProvisioningModule -->
<g id="node4" class="node">
<title>ProvisioningModule</title>
<polygon fill="#8dd3c7" stroke="black" points="348.62,-84.8 345.62,-88.8 324.62,-88.8 321.62,-84.8 217.38,-84.8 217.38,-48.8 348.62,-48.8 348.62,-84.8"/>
<text text-anchor="middle" x="283" y="-62.6" font-family="Times,serif" font-size="14.00">ProvisioningModule</text>
</g>
<!-- ProvisioningModule&#45;&gt;UserLoginMigrationApiModule -->
<g id="edge4" class="edge">
<title>ProvisioningModule&#45;&gt;UserLoginMigrationApiModule</title>
<path fill="none" stroke="black" d="M283,-84.82C283,-102.17 283,-125.8 283,-125.8 283,-125.8 419.76,-125.8 419.76,-125.8"/>
<polygon fill="black" stroke="black" points="419.76,-129.3 429.76,-125.8 419.76,-122.3 419.76,-129.3"/>
</g>
<!-- UserLoginMigrationModule -->
<g id="node5" class="node">
<title>UserLoginMigrationModule</title>
<polygon fill="#8dd3c7" stroke="black" points="199.92,-84.8 196.92,-88.8 175.92,-88.8 172.92,-84.8 24.08,-84.8 24.08,-48.8 199.92,-48.8 199.92,-84.8"/>
<text text-anchor="middle" x="112" y="-62.6" font-family="Times,serif" font-size="14.00">UserLoginMigrationModule</text>
</g>
<!-- UserLoginMigrationModule&#45;&gt;UserLoginMigrationApiModule -->
<g id="edge5" class="edge">
<title>UserLoginMigrationModule&#45;&gt;UserLoginMigrationApiModule</title>
<path fill="none" stroke="black" d="M112,-85.08C112,-106.12 112,-137.8 112,-137.8 112,-137.8 419.68,-137.8 419.68,-137.8"/>
<polygon fill="black" stroke="black" points="419.68,-141.3 429.68,-137.8 419.68,-134.3 419.68,-141.3"/>
</g>
<!-- PageContentMapper -->
<g id="node7" class="node">
<title>PageContentMapper</title>
<ellipse fill="#fdb462" stroke="black" cx="1075" cy="-66.8" rx="90.34" ry="18"/>
<text text-anchor="middle" x="1075" y="-62.6" font-family="Times,serif" font-size="14.00">PageContentMapper</text>
</g>
<!-- PageContentMapper&#45;&gt;UserLoginMigrationApiModule -->
<g id="edge6" class="edge">
<title>PageContentMapper&#45;&gt;UserLoginMigrationApiModule</title>
<path fill="none" stroke="black" d="M1075,-85.08C1075,-106.12 1075,-137.8 1075,-137.8 1075,-137.8 636.42,-137.8 636.42,-137.8"/>
<polygon fill="black" stroke="black" points="636.42,-134.3 626.42,-137.8 636.42,-141.3 636.42,-134.3"/>
</g>
<!-- UserLoginMigrationUc -->
<g id="node8" class="node">
<title>UserLoginMigrationUc</title>
<ellipse fill="#fdb462" stroke="black" cx="864" cy="-66.8" rx="102.44" ry="18"/>
<text text-anchor="middle" x="864" y="-62.6" font-family="Times,serif" font-size="14.00">UserLoginMigrationUc</text>
</g>
<!-- UserLoginMigrationUc&#45;&gt;UserLoginMigrationApiModule -->
<g id="edge7" class="edge">
<title>UserLoginMigrationUc&#45;&gt;UserLoginMigrationApiModule</title>
<path fill="none" stroke="black" d="M864,-84.82C864,-102.17 864,-125.8 864,-125.8 864,-125.8 636.54,-125.8 636.54,-125.8"/>
<polygon fill="black" stroke="black" points="636.54,-122.3 626.54,-125.8 636.54,-129.3 636.54,-122.3"/>
</g>
</g>
</svg>
