<?xml version="1.0" encoding="UTF-8" standalone="no"?>
<!DOCTYPE svg PUBLIC "-//W3C//DTD SVG 1.1//EN"
 "http://www.w3.org/Graphics/SVG/1.1/DTD/svg11.dtd">
<!-- Generated by graphviz version 5.0.0 (20220707.1540)
 -->
<!-- Title: dependencies Pages: 1 -->
<svg width="1197pt" height="174pt"
 viewBox="0.00 0.00 1197.00 173.80" xmlns="http://www.w3.org/2000/svg" xmlns:xlink="http://www.w3.org/1999/xlink">
<g id="graph0" class="graph" transform="scale(1 1) rotate(0) translate(4 169.8)">
<title>dependencies</title>
<polygon fill="white" stroke="transparent" points="-4,4 -4,-169.8 1193,-169.8 1193,4 -4,4"/>
<text text-anchor="middle" x="594.5" y="-8.2" font-family="sans-serif" font-size="14.00">dependencies</text>
<g id="clust1" class="cluster">
<title>cluster_UserLoginMigrationApiModule</title>
<polygon fill="none" stroke="black" stroke-dasharray="1,5" points="8,-32.8 8,-157.8 1181,-157.8 1181,-32.8 8,-32.8"/>
</g>
<g id="clust3" class="cluster">
<title>cluster_UserLoginMigrationApiModule_imports</title>
<polygon fill="none" stroke="black" points="443,-40.8 443,-92.8 1173,-92.8 1173,-40.8 443,-40.8"/>
</g>
<g id="clust6" class="cluster">
<title>cluster_UserLoginMigrationApiModule_providers</title>
<polygon fill="none" stroke="black" points="16,-40.8 16,-92.8 435,-92.8 435,-40.8 16,-40.8"/>
</g>
<!-- AuthenticationModule -->
<g id="node1" class="node">
<title>AuthenticationModule</title>
<polygon fill="#8dd3c7" stroke="black" points="1165.25,-84.8 1162.25,-88.8 1141.25,-88.8 1138.25,-84.8 1022.75,-84.8 1022.75,-48.8 1165.25,-48.8 1165.25,-84.8"/>
<text text-anchor="middle" x="1094" y="-62.6" font-family="Times,serif" font-size="14.00">AuthenticationModule</text>
</g>
<!-- UserLoginMigrationApiModule -->
<g id="node6" class="node">
<title>UserLoginMigrationApiModule</title>
<polygon fill="#8dd3c7" stroke="black" points="808.42,-149.8 805.42,-153.8 784.42,-153.8 781.42,-149.8 611.58,-149.8 611.58,-113.8 808.42,-113.8 808.42,-149.8"/>
<text text-anchor="middle" x="710" y="-127.6" font-family="Times,serif" font-size="14.00">UserLoginMigrationApiModule</text>
</g>
<!-- AuthenticationModule&#45;&gt;UserLoginMigrationApiModule -->
<g id="edge1" class="edge">
<title>AuthenticationModule&#45;&gt;UserLoginMigrationApiModule</title>
<path fill="none" stroke="black" d="M1094,-85.08C1094,-106.12 1094,-137.8 1094,-137.8 1094,-137.8 818.39,-137.8 818.39,-137.8"/>
<polygon fill="black" stroke="black" points="818.39,-134.3 808.39,-137.8 818.39,-141.3 818.39,-134.3"/>
</g>
<!-- LoggerModule -->
<g id="node2" class="node">
<title>LoggerModule</title>
<polygon fill="#8dd3c7" stroke="black" points="1004.98,-84.8 1001.98,-88.8 980.98,-88.8 977.98,-84.8 905.02,-84.8 905.02,-48.8 1004.98,-48.8 1004.98,-84.8"/>
<text text-anchor="middle" x="955" y="-62.6" font-family="Times,serif" font-size="14.00">LoggerModule</text>
</g>
<!-- LoggerModule&#45;&gt;UserLoginMigrationApiModule -->
<g id="edge2" class="edge">
<title>LoggerModule&#45;&gt;UserLoginMigrationApiModule</title>
<path fill="none" stroke="black" d="M955,-84.82C955,-102.17 955,-125.8 955,-125.8 955,-125.8 818.24,-125.8 818.24,-125.8"/>
<polygon fill="black" stroke="black" points="818.24,-122.3 808.24,-125.8 818.24,-129.3 818.24,-122.3"/>
</g>
<!-- OauthModule -->
<g id="node3" class="node">
<title>OauthModule</title>
<polygon fill="#8dd3c7" stroke="black" points="886.77,-84.8 883.77,-88.8 862.77,-88.8 859.77,-84.8 793.23,-84.8 793.23,-48.8 886.77,-48.8 886.77,-84.8"/>
<text text-anchor="middle" x="840" y="-62.6" font-family="Times,serif" font-size="14.00">OauthModule</text>
</g>
<!-- OauthModule&#45;&gt;UserLoginMigrationApiModule -->
<g id="edge3" class="edge">
<title>OauthModule&#45;&gt;UserLoginMigrationApiModule</title>
<path fill="none" stroke="black" d="M800.66,-84.91C800.66,-84.91 800.66,-103.79 800.66,-103.79"/>
<polygon fill="black" stroke="black" points="797.16,-103.79 800.66,-113.79 804.16,-103.79 797.16,-103.79"/>
</g>
<!-- ProvisioningModule -->
<g id="node4" class="node">
<title>ProvisioningModule</title>
<polygon fill="#8dd3c7" stroke="black" points="775.62,-84.8 772.62,-88.8 751.62,-88.8 748.62,-84.8 644.38,-84.8 644.38,-48.8 775.62,-48.8 775.62,-84.8"/>
<text text-anchor="middle" x="710" y="-62.6" font-family="Times,serif" font-size="14.00">ProvisioningModule</text>
</g>
<!-- ProvisioningModule&#45;&gt;UserLoginMigrationApiModule -->
<g id="edge4" class="edge">
<title>ProvisioningModule&#45;&gt;UserLoginMigrationApiModule</title>
<path fill="none" stroke="black" d="M710,-84.91C710,-84.91 710,-103.79 710,-103.79"/>
<polygon fill="black" stroke="black" points="706.5,-103.79 710,-113.79 713.5,-103.79 706.5,-103.79"/>
</g>
<!-- UserLoginMigrationModule -->
<g id="node5" class="node">
<title>UserLoginMigrationModule</title>
<polygon fill="#8dd3c7" stroke="black" points="626.92,-84.8 623.92,-88.8 602.92,-88.8 599.92,-84.8 451.08,-84.8 451.08,-48.8 626.92,-48.8 626.92,-84.8"/>
<text text-anchor="middle" x="539" y="-62.6" font-family="Times,serif" font-size="14.00">UserLoginMigrationModule</text>
</g>
<!-- UserLoginMigrationModule&#45;&gt;UserLoginMigrationApiModule -->
<g id="edge5" class="edge">
<title>UserLoginMigrationModule&#45;&gt;UserLoginMigrationApiModule</title>
<path fill="none" stroke="black" d="M619.25,-84.91C619.25,-84.91 619.25,-103.79 619.25,-103.79"/>
<polygon fill="black" stroke="black" points="615.75,-103.79 619.25,-113.79 622.75,-103.79 615.75,-103.79"/>
</g>
<!-- PageContentMapper -->
<g id="node7" class="node">
<title>PageContentMapper</title>
<ellipse fill="#fdb462" stroke="black" cx="337" cy="-66.8" rx="90.34" ry="18"/>
<text text-anchor="middle" x="337" y="-62.6" font-family="Times,serif" font-size="14.00">PageContentMapper</text>
</g>
<!-- PageContentMapper&#45;&gt;UserLoginMigrationApiModule -->
<g id="edge6" class="edge">
<title>PageContentMapper&#45;&gt;UserLoginMigrationApiModule</title>
<path fill="none" stroke="black" d="M337,-84.82C337,-102.17 337,-125.8 337,-125.8 337,-125.8 601.51,-125.8 601.51,-125.8"/>
<polygon fill="black" stroke="black" points="601.51,-129.3 611.51,-125.8 601.51,-122.3 601.51,-129.3"/>
</g>
<!-- UserLoginMigrationUc -->
<g id="node8" class="node">
<title>UserLoginMigrationUc</title>
<ellipse fill="#fdb462" stroke="black" cx="126" cy="-66.8" rx="102.44" ry="18"/>
<text text-anchor="middle" x="126" y="-62.6" font-family="Times,serif" font-size="14.00">UserLoginMigrationUc</text>
</g>
<!-- UserLoginMigrationUc&#45;&gt;UserLoginMigrationApiModule -->
<g id="edge7" class="edge">
<title>UserLoginMigrationUc&#45;&gt;UserLoginMigrationApiModule</title>
<path fill="none" stroke="black" d="M126,-85.08C126,-106.12 126,-137.8 126,-137.8 126,-137.8 601.59,-137.8 601.59,-137.8"/>
<polygon fill="black" stroke="black" points="601.59,-141.3 611.59,-137.8 601.59,-134.3 601.59,-141.3"/>
</g>
</g>
</svg>
