<?xml version="1.0" encoding="UTF-8" standalone="no"?>
<!DOCTYPE svg PUBLIC "-//W3C//DTD SVG 1.1//EN"
 "http://www.w3.org/Graphics/SVG/1.1/DTD/svg11.dtd">
<!-- Generated by graphviz version 2.47.0 (20210316.0004)
 -->
<!-- Title: dependencies Pages: 1 -->
<svg width="1197pt" height="211pt"
 viewBox="0.00 0.00 1197.00 211.00" xmlns="http://www.w3.org/2000/svg" xmlns:xlink="http://www.w3.org/1999/xlink">
<g id="graph0" class="graph" transform="scale(1 1) rotate(0) translate(4 207)">
<title>dependencies</title>
<polygon fill="white" stroke="transparent" points="-4,4 -4,-207 1193,-207 1193,4 -4,4"/>
<text text-anchor="start" x="573.51" y="-42.4" font-family="Times-12" font-weight="bold" font-size="14.00">Legend</text>
<polygon fill="#ffffb3" stroke="transparent" points="360.5,-10 360.5,-30 380.5,-30 380.5,-10 360.5,-10"/>
<text text-anchor="start" x="384.13" y="-15.4" font-family="Times-12" font-size="14.00"> &#160;Declarations</text>
<polygon fill="#8dd3c7" stroke="transparent" points="473.5,-10 473.5,-30 493.5,-30 493.5,-10 473.5,-10"/>
<text text-anchor="start" x="497.23" y="-15.4" font-family="Times-12" font-size="14.00"> &#160;Module</text>
<polygon fill="#80b1d3" stroke="transparent" points="559.5,-10 559.5,-30 579.5,-30 579.5,-10 559.5,-10"/>
<text text-anchor="start" x="583.28" y="-15.4" font-family="Times-12" font-size="14.00"> &#160;Bootstrap</text>
<polygon fill="#fdb462" stroke="transparent" points="656.5,-10 656.5,-30 676.5,-30 676.5,-10 656.5,-10"/>
<text text-anchor="start" x="680.17" y="-15.4" font-family="Times-12" font-size="14.00"> &#160;Providers</text>
<polygon fill="#fb8072" stroke="transparent" points="752.5,-10 752.5,-30 772.5,-30 772.5,-10 752.5,-10"/>
<text text-anchor="start" x="776.23" y="-15.4" font-family="Times-12" font-size="14.00"> &#160;Exports</text>
<g id="clust1" class="cluster">
<title>cluster_UserLoginMigrationApiModule</title>
<polygon fill="none" stroke="black" stroke-dasharray="1,5" points="8,-70 8,-195 1181,-195 1181,-70 8,-70"/>
</g>
<g id="clust3" class="cluster">
<title>cluster_UserLoginMigrationApiModule_imports</title>
<polygon fill="none" stroke="black" points="443,-78 443,-130 1173,-130 1173,-78 443,-78"/>
</g>
<g id="clust6" class="cluster">
<title>cluster_UserLoginMigrationApiModule_providers</title>
<polygon fill="none" stroke="black" points="16,-78 16,-130 435,-130 435,-78 16,-78"/>
</g>
<!-- AuthenticationModule -->
<g id="node1" class="node">
<title>AuthenticationModule</title>
<polygon fill="#8dd3c7" stroke="black" points="1165.25,-122 1162.25,-126 1141.25,-126 1138.25,-122 1022.75,-122 1022.75,-86 1165.25,-86 1165.25,-122"/>
<text text-anchor="middle" x="1094" y="-99.8" font-family="Times,serif" font-size="14.00">AuthenticationModule</text>
</g>
<!-- UserLoginMigrationApiModule -->
<g id="node6" class="node">
<title>UserLoginMigrationApiModule</title>
<polygon fill="#8dd3c7" stroke="black" points="808.41,-187 805.41,-191 784.41,-191 781.41,-187 611.59,-187 611.59,-151 808.41,-151 808.41,-187"/>
<text text-anchor="middle" x="710" y="-164.8" font-family="Times,serif" font-size="14.00">UserLoginMigrationApiModule</text>
</g>
<!-- AuthenticationModule&#45;&gt;UserLoginMigrationApiModule -->
<g id="edge1" class="edge">
<title>AuthenticationModule&#45;&gt;UserLoginMigrationApiModule</title>
<path fill="none" stroke="black" d="M1094,-122.28C1094,-143.32 1094,-175 1094,-175 1094,-175 818.39,-175 818.39,-175"/>
<polygon fill="black" stroke="black" points="818.39,-171.5 808.39,-175 818.39,-178.5 818.39,-171.5"/>
</g>
<!-- LoggerModule -->
<g id="node2" class="node">
<title>LoggerModule</title>
<polygon fill="#8dd3c7" stroke="black" points="1004.98,-122 1001.98,-126 980.98,-126 977.98,-122 905.02,-122 905.02,-86 1004.98,-86 1004.98,-122"/>
<text text-anchor="middle" x="955" y="-99.8" font-family="Times,serif" font-size="14.00">LoggerModule</text>
</g>
<!-- LoggerModule&#45;&gt;UserLoginMigrationApiModule -->
<g id="edge2" class="edge">
<title>LoggerModule&#45;&gt;UserLoginMigrationApiModule</title>
<path fill="none" stroke="black" d="M955,-122.02C955,-139.37 955,-163 955,-163 955,-163 818.24,-163 818.24,-163"/>
<polygon fill="black" stroke="black" points="818.24,-159.5 808.24,-163 818.24,-166.5 818.24,-159.5"/>
</g>
<!-- OauthModule -->
<g id="node3" class="node">
<title>OauthModule</title>
<polygon fill="#8dd3c7" stroke="black" points="886.76,-122 883.76,-126 862.76,-126 859.76,-122 793.24,-122 793.24,-86 886.76,-86 886.76,-122"/>
<text text-anchor="middle" x="840" y="-99.8" font-family="Times,serif" font-size="14.00">OauthModule</text>
</g>
<!-- OauthModule&#45;&gt;UserLoginMigrationApiModule -->
<g id="edge3" class="edge">
<title>OauthModule&#45;&gt;UserLoginMigrationApiModule</title>
<path fill="none" stroke="black" d="M800.66,-122.11C800.66,-122.11 800.66,-140.99 800.66,-140.99"/>
<polygon fill="black" stroke="black" points="797.16,-140.99 800.66,-150.99 804.16,-140.99 797.16,-140.99"/>
</g>
<!-- ProvisioningModule -->
<g id="node4" class="node">
<title>ProvisioningModule</title>
<polygon fill="#8dd3c7" stroke="black" points="775.61,-122 772.61,-126 751.61,-126 748.61,-122 644.39,-122 644.39,-86 775.61,-86 775.61,-122"/>
<text text-anchor="middle" x="710" y="-99.8" font-family="Times,serif" font-size="14.00">ProvisioningModule</text>
</g>
<!-- ProvisioningModule&#45;&gt;UserLoginMigrationApiModule -->
<g id="edge4" class="edge">
<title>ProvisioningModule&#45;&gt;UserLoginMigrationApiModule</title>
<path fill="none" stroke="black" d="M710,-122.11C710,-122.11 710,-140.99 710,-140.99"/>
<polygon fill="black" stroke="black" points="706.5,-140.99 710,-150.99 713.5,-140.99 706.5,-140.99"/>
</g>
<!-- UserLoginMigrationModule -->
<g id="node5" class="node">
<title>UserLoginMigrationModule</title>
<polygon fill="#8dd3c7" stroke="black" points="626.91,-122 623.91,-126 602.91,-126 599.91,-122 451.09,-122 451.09,-86 626.91,-86 626.91,-122"/>
<text text-anchor="middle" x="539" y="-99.8" font-family="Times,serif" font-size="14.00">UserLoginMigrationModule</text>
</g>
<!-- UserLoginMigrationModule&#45;&gt;UserLoginMigrationApiModule -->
<g id="edge5" class="edge">
<title>UserLoginMigrationModule&#45;&gt;UserLoginMigrationApiModule</title>
<path fill="none" stroke="black" d="M619.25,-122.11C619.25,-122.11 619.25,-140.99 619.25,-140.99"/>
<polygon fill="black" stroke="black" points="615.75,-140.99 619.25,-150.99 622.75,-140.99 615.75,-140.99"/>
</g>
<!-- PageContentMapper -->
<g id="node7" class="node">
<title>PageContentMapper</title>
<ellipse fill="#fdb462" stroke="black" cx="337" cy="-104" rx="90.33" ry="18"/>
<text text-anchor="middle" x="337" y="-99.8" font-family="Times,serif" font-size="14.00">PageContentMapper</text>
</g>
<!-- PageContentMapper&#45;&gt;UserLoginMigrationApiModule -->
<g id="edge6" class="edge">
<title>PageContentMapper&#45;&gt;UserLoginMigrationApiModule</title>
<path fill="none" stroke="black" d="M337,-122.02C337,-139.37 337,-163 337,-163 337,-163 601.51,-163 601.51,-163"/>
<polygon fill="black" stroke="black" points="601.51,-166.5 611.51,-163 601.51,-159.5 601.51,-166.5"/>
</g>
<!-- UserLoginMigrationUc -->
<g id="node8" class="node">
<title>UserLoginMigrationUc</title>
<ellipse fill="#fdb462" stroke="black" cx="126" cy="-104" rx="102.43" ry="18"/>
<text text-anchor="middle" x="126" y="-99.8" font-family="Times,serif" font-size="14.00">UserLoginMigrationUc</text>
</g>
<!-- UserLoginMigrationUc&#45;&gt;UserLoginMigrationApiModule -->
<g id="edge7" class="edge">
<title>UserLoginMigrationUc&#45;&gt;UserLoginMigrationApiModule</title>
<path fill="none" stroke="black" d="M126,-122.28C126,-143.32 126,-175 126,-175 126,-175 601.59,-175 601.59,-175"/>
<polygon fill="black" stroke="black" points="601.59,-178.5 611.59,-175 601.59,-171.5 601.59,-178.5"/>
</g>
</g>
</svg>
