<?xml version="1.0" encoding="UTF-8" standalone="no"?>
<!DOCTYPE svg PUBLIC "-//W3C//DTD SVG 1.1//EN"
 "http://www.w3.org/Graphics/SVG/1.1/DTD/svg11.dtd">
<!-- Generated by graphviz version 2.47.0 (20210316.0004)
 -->
<!-- Title: dependencies Pages: 1 -->
<svg width="3171pt" height="211pt"
 viewBox="0.00 0.00 3171.00 211.00" xmlns="http://www.w3.org/2000/svg" xmlns:xlink="http://www.w3.org/1999/xlink">
<g id="graph0" class="graph" transform="scale(1 1) rotate(0) translate(4 207)">
<title>dependencies</title>
<polygon fill="white" stroke="transparent" points="-4,4 -4,-207 3167,-207 3167,4 -4,4"/>
<text text-anchor="start" x="1560.51" y="-42.4" font-family="Times-12" font-weight="bold" font-size="14.00">Legend</text>
<polygon fill="#ffffb3" stroke="transparent" points="1347.5,-10 1347.5,-30 1367.5,-30 1367.5,-10 1347.5,-10"/>
<text text-anchor="start" x="1371.13" y="-15.4" font-family="Times-12" font-size="14.00"> &#160;Declarations</text>
<polygon fill="#8dd3c7" stroke="transparent" points="1460.5,-10 1460.5,-30 1480.5,-30 1480.5,-10 1460.5,-10"/>
<text text-anchor="start" x="1484.23" y="-15.4" font-family="Times-12" font-size="14.00"> &#160;Module</text>
<polygon fill="#80b1d3" stroke="transparent" points="1546.5,-10 1546.5,-30 1566.5,-30 1566.5,-10 1546.5,-10"/>
<text text-anchor="start" x="1570.28" y="-15.4" font-family="Times-12" font-size="14.00"> &#160;Bootstrap</text>
<polygon fill="#fdb462" stroke="transparent" points="1643.5,-10 1643.5,-30 1663.5,-30 1663.5,-10 1643.5,-10"/>
<text text-anchor="start" x="1667.17" y="-15.4" font-family="Times-12" font-size="14.00"> &#160;Providers</text>
<polygon fill="#fb8072" stroke="transparent" points="1739.5,-10 1739.5,-30 1759.5,-30 1759.5,-10 1739.5,-10"/>
<text text-anchor="start" x="1763.23" y="-15.4" font-family="Times-12" font-size="14.00"> &#160;Exports</text>
<g id="clust1" class="cluster">
<title>cluster_UserLoginMigrationApiModule</title>
<polygon fill="none" stroke="black" stroke-dasharray="1,5" points="8,-70 8,-195 3155,-195 3155,-70 8,-70"/>
</g>
<g id="clust6" class="cluster">
<title>cluster_UserLoginMigrationApiModule_providers</title>
<polygon fill="none" stroke="black" points="1314,-78 1314,-130 3147,-130 3147,-78 1314,-78"/>
</g>
<g id="clust3" class="cluster">
<title>cluster_UserLoginMigrationApiModule_imports</title>
<polygon fill="none" stroke="black" points="16,-78 16,-130 1306,-130 1306,-78 16,-78"/>
</g>
<!-- AuthenticationModule -->
<g id="node1" class="node">
<title>AuthenticationModule</title>
<polygon fill="#8dd3c7" stroke="black" points="1298.25,-122 1295.25,-126 1274.25,-126 1271.25,-122 1155.75,-122 1155.75,-86 1298.25,-86 1298.25,-122"/>
<text text-anchor="middle" x="1227" y="-99.8" font-family="Times,serif" font-size="14.00">AuthenticationModule</text>
</g>
<!-- UserLoginMigrationApiModule -->
<g id="node10" class="node">
<title>UserLoginMigrationApiModule</title>
<polygon fill="#8dd3c7" stroke="black" points="1246.41,-187 1243.41,-191 1222.41,-191 1219.41,-187 1049.59,-187 1049.59,-151 1246.41,-151 1246.41,-187"/>
<text text-anchor="middle" x="1148" y="-164.8" font-family="Times,serif" font-size="14.00">UserLoginMigrationApiModule</text>
</g>
<!-- AuthenticationModule&#45;&gt;UserLoginMigrationApiModule -->
<g id="edge1" class="edge">
<title>AuthenticationModule&#45;&gt;UserLoginMigrationApiModule</title>
<path fill="none" stroke="black" d="M1200.91,-122.11C1200.91,-122.11 1200.91,-140.99 1200.91,-140.99"/>
<polygon fill="black" stroke="black" points="1197.41,-140.99 1200.91,-150.99 1204.41,-140.99 1197.41,-140.99"/>
</g>
<!-- AuthorizationModule -->
<g id="node2" class="node">
<title>AuthorizationModule</title>
<polygon fill="#8dd3c7" stroke="black" points="1137.81,-122 1134.81,-126 1113.81,-126 1110.81,-122 1000.19,-122 1000.19,-86 1137.81,-86 1137.81,-122"/>
<text text-anchor="middle" x="1069" y="-99.8" font-family="Times,serif" font-size="14.00">AuthorizationModule</text>
</g>
<!-- AuthorizationModule&#45;&gt;UserLoginMigrationApiModule -->
<g id="edge2" class="edge">
<title>AuthorizationModule&#45;&gt;UserLoginMigrationApiModule</title>
<path fill="none" stroke="black" d="M1093.73,-122.11C1093.73,-122.11 1093.73,-140.99 1093.73,-140.99"/>
<polygon fill="black" stroke="black" points="1090.23,-140.99 1093.73,-150.99 1097.23,-140.99 1090.23,-140.99"/>
</g>
<!-- ImportUserModule -->
<g id="node3" class="node">
<title>ImportUserModule</title>
<polygon fill="#8dd3c7" stroke="black" points="982.08,-122 979.08,-126 958.08,-126 955.08,-122 857.92,-122 857.92,-86 982.08,-86 982.08,-122"/>
<text text-anchor="middle" x="920" y="-99.8" font-family="Times,serif" font-size="14.00">ImportUserModule</text>
</g>
<!-- ImportUserModule&#45;&gt;UserLoginMigrationApiModule -->
<g id="edge3" class="edge">
<title>ImportUserModule&#45;&gt;UserLoginMigrationApiModule</title>
<path fill="none" stroke="black" d="M920,-122.19C920,-137.18 920,-156 920,-156 920,-156 1039.65,-156 1039.65,-156"/>
<polygon fill="black" stroke="black" points="1039.65,-159.5 1049.65,-156 1039.65,-152.5 1039.65,-159.5"/>
</g>
<!-- LegacySchoolModule -->
<g id="node4" class="node">
<title>LegacySchoolModule</title>
<polygon fill="#8dd3c7" stroke="black" points="839.63,-122 836.63,-126 815.63,-126 812.63,-122 700.37,-122 700.37,-86 839.63,-86 839.63,-122"/>
<text text-anchor="middle" x="770" y="-99.8" font-family="Times,serif" font-size="14.00">LegacySchoolModule</text>
</g>
<!-- LegacySchoolModule&#45;&gt;UserLoginMigrationApiModule -->
<g id="edge4" class="edge">
<title>LegacySchoolModule&#45;&gt;UserLoginMigrationApiModule</title>
<path fill="none" stroke="black" d="M770,-122.03C770,-138.4 770,-160 770,-160 770,-160 1039.67,-160 1039.67,-160"/>
<polygon fill="black" stroke="black" points="1039.67,-163.5 1049.67,-160 1039.67,-156.5 1039.67,-163.5"/>
</g>
<!-- LoggerModule -->
<g id="node5" class="node">
<title>LoggerModule</title>
<polygon fill="#8dd3c7" stroke="black" points="681.98,-122 678.98,-126 657.98,-126 654.98,-122 582.02,-122 582.02,-86 681.98,-86 681.98,-122"/>
<text text-anchor="middle" x="632" y="-99.8" font-family="Times,serif" font-size="14.00">LoggerModule</text>
</g>
<!-- LoggerModule&#45;&gt;UserLoginMigrationApiModule -->
<g id="edge5" class="edge">
<title>LoggerModule&#45;&gt;UserLoginMigrationApiModule</title>
<path fill="none" stroke="black" d="M632,-122.3C632,-140.27 632,-165 632,-165 632,-165 1039.73,-165 1039.73,-165"/>
<polygon fill="black" stroke="black" points="1039.73,-168.5 1049.73,-165 1039.73,-161.5 1039.73,-168.5"/>
</g>
<!-- OauthModule -->
<g id="node6" class="node">
<title>OauthModule</title>
<polygon fill="#8dd3c7" stroke="black" points="563.76,-122 560.76,-126 539.76,-126 536.76,-122 470.24,-122 470.24,-86 563.76,-86 563.76,-122"/>
<text text-anchor="middle" x="517" y="-99.8" font-family="Times,serif" font-size="14.00">OauthModule</text>
</g>
<!-- OauthModule&#45;&gt;UserLoginMigrationApiModule -->
<g id="edge6" class="edge">
<title>OauthModule&#45;&gt;UserLoginMigrationApiModule</title>
<path fill="none" stroke="black" d="M517,-122.11C517,-141.34 517,-169 517,-169 517,-169 1039.75,-169 1039.75,-169"/>
<polygon fill="black" stroke="black" points="1039.75,-172.5 1049.75,-169 1039.75,-165.5 1039.75,-172.5"/>
</g>
<!-- ProvisioningModule -->
<g id="node7" class="node">
<title>ProvisioningModule</title>
<polygon fill="#8dd3c7" stroke="black" points="452.61,-122 449.61,-126 428.61,-126 425.61,-122 321.39,-122 321.39,-86 452.61,-86 452.61,-122"/>
<text text-anchor="middle" x="387" y="-99.8" font-family="Times,serif" font-size="14.00">ProvisioningModule</text>
</g>
<!-- ProvisioningModule&#45;&gt;UserLoginMigrationApiModule -->
<g id="edge7" class="edge">
<title>ProvisioningModule&#45;&gt;UserLoginMigrationApiModule</title>
<path fill="none" stroke="black" d="M387,-122.03C387,-142.77 387,-174 387,-174 387,-174 1039.68,-174 1039.68,-174"/>
<polygon fill="black" stroke="black" points="1039.68,-177.5 1049.68,-174 1039.68,-170.5 1039.68,-177.5"/>
</g>
<!-- UserLoginMigrationModule -->
<g id="node8" class="node">
<title>UserLoginMigrationModule</title>
<polygon fill="#8dd3c7" stroke="black" points="303.91,-122 300.91,-126 279.91,-126 276.91,-122 128.09,-122 128.09,-86 303.91,-86 303.91,-122"/>
<text text-anchor="middle" x="216" y="-99.8" font-family="Times,serif" font-size="14.00">UserLoginMigrationModule</text>
</g>
<!-- UserLoginMigrationModule&#45;&gt;UserLoginMigrationApiModule -->
<g id="edge8" class="edge">
<title>UserLoginMigrationModule&#45;&gt;UserLoginMigrationApiModule</title>
<path fill="none" stroke="black" d="M216,-122.29C216,-144.21 216,-178 216,-178 216,-178 1039.58,-178 1039.58,-178"/>
<polygon fill="black" stroke="black" points="1039.58,-181.5 1049.58,-178 1039.58,-174.5 1039.58,-181.5"/>
</g>
<!-- UserModule -->
<g id="node9" class="node">
<title>UserModule</title>
<polygon fill="#8dd3c7" stroke="black" points="109.98,-122 106.98,-126 85.98,-126 82.98,-122 24.02,-122 24.02,-86 109.98,-86 109.98,-122"/>
<text text-anchor="middle" x="67" y="-99.8" font-family="Times,serif" font-size="14.00">UserModule</text>
</g>
<!-- UserModule&#45;&gt;UserLoginMigrationApiModule -->
<g id="edge9" class="edge">
<title>UserModule&#45;&gt;UserLoginMigrationApiModule</title>
<path fill="none" stroke="black" d="M67,-122.32C67,-145.66 67,-183 67,-183 67,-183 1039.68,-183 1039.68,-183"/>
<polygon fill="black" stroke="black" points="1039.68,-186.5 1049.68,-183 1039.68,-179.5 1039.68,-186.5"/>
</g>
<!-- CloseMigrationWizardUc -->
<g id="node11" class="node">
<title>CloseMigrationWizardUc</title>
<ellipse fill="#fdb462" stroke="black" cx="3028" cy="-104" rx="111.15" ry="18"/>
<text text-anchor="middle" x="3028" y="-99.8" font-family="Times,serif" font-size="14.00">CloseMigrationWizardUc</text>
</g>
<!-- CloseMigrationWizardUc&#45;&gt;UserLoginMigrationApiModule -->
<g id="edge10" class="edge">
<title>CloseMigrationWizardUc&#45;&gt;UserLoginMigrationApiModule</title>
<path fill="none" stroke="black" d="M3028,-122.32C3028,-145.66 3028,-183 3028,-183 3028,-183 1256.43,-183 1256.43,-183"/>
<polygon fill="black" stroke="black" points="1256.43,-179.5 1246.43,-183 1256.43,-186.5 1256.43,-179.5"/>
</g>
<!-- CloseUserLoginMigrationUc -->
<g id="node12" class="node">
<title>CloseUserLoginMigrationUc</title>
<ellipse fill="#fdb462" stroke="black" cx="2774" cy="-104" rx="124.42" ry="18"/>
<text text-anchor="middle" x="2774" y="-99.8" font-family="Times,serif" font-size="14.00">CloseUserLoginMigrationUc</text>
</g>
<!-- CloseUserLoginMigrationUc&#45;&gt;UserLoginMigrationApiModule -->
<g id="edge11" class="edge">
<title>CloseUserLoginMigrationUc&#45;&gt;UserLoginMigrationApiModule</title>
<path fill="none" stroke="black" d="M2774,-122.29C2774,-144.21 2774,-178 2774,-178 2774,-178 1256.35,-178 1256.35,-178"/>
<polygon fill="black" stroke="black" points="1256.35,-174.5 1246.35,-178 1256.35,-181.5 1256.35,-174.5"/>
</g>
<!-- RestartUserLoginMigrationUc -->
<g id="node13" class="node">
<title>RestartUserLoginMigrationUc</title>
<ellipse fill="#fdb462" stroke="black" cx="2502" cy="-104" rx="129.63" ry="18"/>
<text text-anchor="middle" x="2502" y="-99.8" font-family="Times,serif" font-size="14.00">RestartUserLoginMigrationUc</text>
</g>
<!-- RestartUserLoginMigrationUc&#45;&gt;UserLoginMigrationApiModule -->
<g id="edge12" class="edge">
<title>RestartUserLoginMigrationUc&#45;&gt;UserLoginMigrationApiModule</title>
<path fill="none" stroke="black" d="M2502,-122.03C2502,-142.77 2502,-174 2502,-174 2502,-174 1256.47,-174 1256.47,-174"/>
<polygon fill="black" stroke="black" points="1256.47,-170.5 1246.47,-174 1256.47,-177.5 1256.47,-170.5"/>
</g>
<!-- StartUserLoginMigrationUc -->
<g id="node14" class="node">
<title>StartUserLoginMigrationUc</title>
<ellipse fill="#fdb462" stroke="black" cx="2234" cy="-104" rx="120.4" ry="18"/>
<text text-anchor="middle" x="2234" y="-99.8" font-family="Times,serif" font-size="14.00">StartUserLoginMigrationUc</text>
</g>
<!-- StartUserLoginMigrationUc&#45;&gt;UserLoginMigrationApiModule -->
<g id="edge13" class="edge">
<title>StartUserLoginMigrationUc&#45;&gt;UserLoginMigrationApiModule</title>
<path fill="none" stroke="black" d="M2234,-122.11C2234,-141.34 2234,-169 2234,-169 2234,-169 1256.29,-169 1256.29,-169"/>
<polygon fill="black" stroke="black" points="1256.29,-165.5 1246.29,-169 1256.29,-172.5 1256.29,-165.5"/>
</g>
<!-- ToggleUserLoginMigrationUc -->
<g id="node15" class="node">
<title>ToggleUserLoginMigrationUc</title>
<ellipse fill="#fdb462" stroke="black" cx="1966" cy="-104" rx="129.64" ry="18"/>
<text text-anchor="middle" x="1966" y="-99.8" font-family="Times,serif" font-size="14.00">ToggleUserLoginMigrationUc</text>
</g>
<!-- ToggleUserLoginMigrationUc&#45;&gt;UserLoginMigrationApiModule -->
<g id="edge14" class="edge">
<title>ToggleUserLoginMigrationUc&#45;&gt;UserLoginMigrationApiModule</title>
<path fill="none" stroke="black" d="M1966,-122.3C1966,-140.27 1966,-165 1966,-165 1966,-165 1256.26,-165 1256.26,-165"/>
<polygon fill="black" stroke="black" points="1256.26,-161.5 1246.26,-165 1256.26,-168.5 1256.26,-161.5"/>
</g>
<!-- UserLoginMigrationRollbackUc -->
<g id="node16" class="node">
<title>UserLoginMigrationRollbackUc</title>
<ellipse fill="#fdb462" stroke="black" cx="1681" cy="-104" rx="137.16" ry="18"/>
<text text-anchor="middle" x="1681" y="-99.8" font-family="Times,serif" font-size="14.00">UserLoginMigrationRollbackUc</text>
</g>
<!-- UserLoginMigrationRollbackUc&#45;&gt;UserLoginMigrationApiModule -->
<g id="edge15" class="edge">
<title>UserLoginMigrationRollbackUc&#45;&gt;UserLoginMigrationApiModule</title>
<path fill="none" stroke="black" d="M1681,-122.03C1681,-138.4 1681,-160 1681,-160 1681,-160 1256.38,-160 1256.38,-160"/>
<polygon fill="black" stroke="black" points="1256.38,-156.5 1246.38,-160 1256.38,-163.5 1256.38,-156.5"/>
</g>
<!-- UserLoginMigrationUc -->
<g id="node17" class="node">
<title>UserLoginMigrationUc</title>
<ellipse fill="#fdb462" stroke="black" cx="1424" cy="-104" rx="102.43" ry="18"/>
<text text-anchor="middle" x="1424" y="-99.8" font-family="Times,serif" font-size="14.00">UserLoginMigrationUc</text>
</g>
<!-- UserLoginMigrationUc&#45;&gt;UserLoginMigrationApiModule -->
<g id="edge16" class="edge">
<title>UserLoginMigrationUc&#45;&gt;UserLoginMigrationApiModule</title>
<path fill="none" stroke="black" d="M1424,-122.19C1424,-137.18 1424,-156 1424,-156 1424,-156 1256.47,-156 1256.47,-156"/>
<polygon fill="black" stroke="black" points="1256.47,-152.5 1246.47,-156 1256.47,-159.5 1256.47,-152.5"/>
</g>
</g>
</svg>
