<?xml version="1.0" encoding="UTF-8" standalone="no"?>
<!DOCTYPE svg PUBLIC "-//W3C//DTD SVG 1.1//EN"
 "http://www.w3.org/Graphics/SVG/1.1/DTD/svg11.dtd">
<!-- Generated by graphviz version 2.47.0 (20210316.0004)
 -->
<!-- Title: dependencies Pages: 1 -->
<svg width="2550pt" height="211pt"
 viewBox="0.00 0.00 2550.00 211.00" xmlns="http://www.w3.org/2000/svg" xmlns:xlink="http://www.w3.org/1999/xlink">
<g id="graph0" class="graph" transform="scale(1 1) rotate(0) translate(4 207)">
<title>dependencies</title>
<polygon fill="white" stroke="transparent" points="-4,4 -4,-207 2546,-207 2546,4 -4,4"/>
<text text-anchor="start" x="1250.01" y="-42.4" font-family="Times-12" font-weight="bold" font-size="14.00">Legend</text>
<polygon fill="#ffffb3" stroke="transparent" points="1037,-10 1037,-30 1057,-30 1057,-10 1037,-10"/>
<text text-anchor="start" x="1060.63" y="-15.4" font-family="Times-12" font-size="14.00"> &#160;Declarations</text>
<polygon fill="#8dd3c7" stroke="transparent" points="1150,-10 1150,-30 1170,-30 1170,-10 1150,-10"/>
<text text-anchor="start" x="1173.73" y="-15.4" font-family="Times-12" font-size="14.00"> &#160;Module</text>
<polygon fill="#80b1d3" stroke="transparent" points="1236,-10 1236,-30 1256,-30 1256,-10 1236,-10"/>
<text text-anchor="start" x="1259.78" y="-15.4" font-family="Times-12" font-size="14.00"> &#160;Bootstrap</text>
<polygon fill="#fdb462" stroke="transparent" points="1333,-10 1333,-30 1353,-30 1353,-10 1333,-10"/>
<text text-anchor="start" x="1356.67" y="-15.4" font-family="Times-12" font-size="14.00"> &#160;Providers</text>
<polygon fill="#fb8072" stroke="transparent" points="1429,-10 1429,-30 1449,-30 1449,-10 1429,-10"/>
<text text-anchor="start" x="1452.73" y="-15.4" font-family="Times-12" font-size="14.00"> &#160;Exports</text>
<g id="clust1" class="cluster">
<title>cluster_UserLoginMigrationApiModule</title>
<polygon fill="none" stroke="black" stroke-dasharray="1,5" points="8,-70 8,-195 2534,-195 2534,-70 8,-70"/>
</g>
<g id="clust3" class="cluster">
<title>cluster_UserLoginMigrationApiModule_imports</title>
<polygon fill="none" stroke="black" points="1523,-78 1523,-130 2526,-130 2526,-78 1523,-78"/>
</g>
<g id="clust6" class="cluster">
<title>cluster_UserLoginMigrationApiModule_providers</title>
<polygon fill="none" stroke="black" points="16,-78 16,-130 1515,-130 1515,-78 16,-78"/>
</g>
<!-- AuthenticationModule -->
<g id="node1" class="node">
<title>AuthenticationModule</title>
<polygon fill="#8dd3c7" stroke="black" points="2518.25,-122 2515.25,-126 2494.25,-126 2491.25,-122 2375.75,-122 2375.75,-86 2518.25,-86 2518.25,-122"/>
<text text-anchor="middle" x="2447" y="-99.8" font-family="Times,serif" font-size="14.00">AuthenticationModule</text>
</g>
<!-- UserLoginMigrationApiModule -->
<g id="node8" class="node">
<title>UserLoginMigrationApiModule</title>
<polygon fill="#8dd3c7" stroke="black" points="1717.41,-187 1714.41,-191 1693.41,-191 1690.41,-187 1520.59,-187 1520.59,-151 1717.41,-151 1717.41,-187"/>
<text text-anchor="middle" x="1619" y="-164.8" font-family="Times,serif" font-size="14.00">UserLoginMigrationApiModule</text>
</g>
<!-- AuthenticationModule&#45;&gt;UserLoginMigrationApiModule -->
<g id="edge1" class="edge">
<title>AuthenticationModule&#45;&gt;UserLoginMigrationApiModule</title>
<path fill="none" stroke="black" d="M2447,-122.09C2447,-145.13 2447,-182 2447,-182 2447,-182 1727.23,-182 1727.23,-182"/>
<polygon fill="black" stroke="black" points="1727.23,-178.5 1717.23,-182 1727.23,-185.5 1727.23,-178.5"/>
</g>
<!-- AuthorizationModule -->
<g id="node2" class="node">
<title>AuthorizationModule</title>
<polygon fill="#8dd3c7" stroke="black" points="2357.81,-122 2354.81,-126 2333.81,-126 2330.81,-122 2220.19,-122 2220.19,-86 2357.81,-86 2357.81,-122"/>
<text text-anchor="middle" x="2289" y="-99.8" font-family="Times,serif" font-size="14.00">AuthorizationModule</text>
</g>
<!-- AuthorizationModule&#45;&gt;UserLoginMigrationApiModule -->
<g id="edge2" class="edge">
<title>AuthorizationModule&#45;&gt;UserLoginMigrationApiModule</title>
<path fill="none" stroke="black" d="M2289,-122.28C2289,-143.32 2289,-175 2289,-175 2289,-175 1727.5,-175 1727.5,-175"/>
<polygon fill="black" stroke="black" points="1727.5,-171.5 1717.5,-175 1727.5,-178.5 1727.5,-171.5"/>
</g>
<!-- LoggerModule -->
<g id="node3" class="node">
<title>LoggerModule</title>
<polygon fill="#8dd3c7" stroke="black" points="2201.98,-122 2198.98,-126 2177.98,-126 2174.98,-122 2102.02,-122 2102.02,-86 2201.98,-86 2201.98,-122"/>
<text text-anchor="middle" x="2152" y="-99.8" font-family="Times,serif" font-size="14.00">LoggerModule</text>
</g>
<!-- LoggerModule&#45;&gt;UserLoginMigrationApiModule -->
<g id="edge3" class="edge">
<title>LoggerModule&#45;&gt;UserLoginMigrationApiModule</title>
<path fill="none" stroke="black" d="M2152,-122.11C2152,-141.34 2152,-169 2152,-169 2152,-169 1727.38,-169 1727.38,-169"/>
<polygon fill="black" stroke="black" points="1727.38,-165.5 1717.38,-169 1727.38,-172.5 1727.38,-165.5"/>
</g>
<!-- OauthModule -->
<g id="node4" class="node">
<title>OauthModule</title>
<polygon fill="#8dd3c7" stroke="black" points="2083.76,-122 2080.76,-126 2059.76,-126 2056.76,-122 1990.24,-122 1990.24,-86 2083.76,-86 2083.76,-122"/>
<text text-anchor="middle" x="2037" y="-99.8" font-family="Times,serif" font-size="14.00">OauthModule</text>
</g>
<!-- OauthModule&#45;&gt;UserLoginMigrationApiModule -->
<g id="edge4" class="edge">
<title>OauthModule&#45;&gt;UserLoginMigrationApiModule</title>
<path fill="none" stroke="black" d="M2037,-122.02C2037,-139.37 2037,-163 2037,-163 2037,-163 1727.27,-163 1727.27,-163"/>
<polygon fill="black" stroke="black" points="1727.27,-159.5 1717.27,-163 1727.27,-166.5 1727.27,-159.5"/>
</g>
<!-- ProvisioningModule -->
<g id="node5" class="node">
<title>ProvisioningModule</title>
<polygon fill="#8dd3c7" stroke="black" points="1972.61,-122 1969.61,-126 1948.61,-126 1945.61,-122 1841.39,-122 1841.39,-86 1972.61,-86 1972.61,-122"/>
<text text-anchor="middle" x="1907" y="-99.8" font-family="Times,serif" font-size="14.00">ProvisioningModule</text>
</g>
<!-- ProvisioningModule&#45;&gt;UserLoginMigrationApiModule -->
<g id="edge5" class="edge">
<title>ProvisioningModule&#45;&gt;UserLoginMigrationApiModule</title>
<path fill="none" stroke="black" d="M1907,-122.24C1907,-137.57 1907,-157 1907,-157 1907,-157 1727.31,-157 1727.31,-157"/>
<polygon fill="black" stroke="black" points="1727.31,-153.5 1717.31,-157 1727.31,-160.5 1727.31,-153.5"/>
</g>
<!-- SchoolModule -->
<g id="node6" class="node">
<title>SchoolModule</title>
<polygon fill="#8dd3c7" stroke="black" points="1823.44,-122 1820.44,-126 1799.44,-126 1796.44,-122 1724.56,-122 1724.56,-86 1823.44,-86 1823.44,-122"/>
<text text-anchor="middle" x="1774" y="-99.8" font-family="Times,serif" font-size="14.00">SchoolModule</text>
</g>
<!-- SchoolModule&#45;&gt;UserLoginMigrationApiModule -->
<g id="edge6" class="edge">
<title>SchoolModule&#45;&gt;UserLoginMigrationApiModule</title>
<path fill="none" stroke="black" d="M1724.51,-104C1717.14,-104 1711.95,-104 1711.95,-104 1711.95,-104 1711.95,-140.89 1711.95,-140.89"/>
<polygon fill="black" stroke="black" points="1708.45,-140.89 1711.95,-150.89 1715.45,-140.89 1708.45,-140.89"/>
</g>
<!-- UserLoginMigrationModule -->
<g id="node7" class="node">
<title>UserLoginMigrationModule</title>
<polygon fill="#8dd3c7" stroke="black" points="1706.91,-122 1703.91,-126 1682.91,-126 1679.91,-122 1531.09,-122 1531.09,-86 1706.91,-86 1706.91,-122"/>
<text text-anchor="middle" x="1619" y="-99.8" font-family="Times,serif" font-size="14.00">UserLoginMigrationModule</text>
</g>
<!-- UserLoginMigrationModule&#45;&gt;UserLoginMigrationApiModule -->
<g id="edge7" class="edge">
<title>UserLoginMigrationModule&#45;&gt;UserLoginMigrationApiModule</title>
<path fill="none" stroke="black" d="M1619,-122.11C1619,-122.11 1619,-140.99 1619,-140.99"/>
<polygon fill="black" stroke="black" points="1615.5,-140.99 1619,-150.99 1622.5,-140.99 1615.5,-140.99"/>
</g>
<!-- CloseUserLoginMigrationUc -->
<g id="node9" class="node">
<title>CloseUserLoginMigrationUc</title>
<ellipse fill="#fdb462" stroke="black" cx="1383" cy="-104" rx="124.42" ry="18"/>
<text text-anchor="middle" x="1383" y="-99.8" font-family="Times,serif" font-size="14.00">CloseUserLoginMigrationUc</text>
</g>
<!-- CloseUserLoginMigrationUc&#45;&gt;UserLoginMigrationApiModule -->
<g id="edge8" class="edge">
<title>CloseUserLoginMigrationUc&#45;&gt;UserLoginMigrationApiModule</title>
<path fill="none" stroke="black" d="M1507.34,-104C1518.7,-104 1526.05,-104 1526.05,-104 1526.05,-104 1526.05,-140.89 1526.05,-140.89"/>
<polygon fill="black" stroke="black" points="1522.55,-140.89 1526.05,-150.89 1529.55,-140.89 1522.55,-140.89"/>
</g>
<!-- PageContentMapper -->
<g id="node10" class="node">
<title>PageContentMapper</title>
<ellipse fill="#fdb462" stroke="black" cx="1150" cy="-104" rx="90.33" ry="18"/>
<text text-anchor="middle" x="1150" y="-99.8" font-family="Times,serif" font-size="14.00">PageContentMapper</text>
</g>
<!-- PageContentMapper&#45;&gt;UserLoginMigrationApiModule -->
<g id="edge9" class="edge">
<title>PageContentMapper&#45;&gt;UserLoginMigrationApiModule</title>
<path fill="none" stroke="black" d="M1150,-122.24C1150,-137.57 1150,-157 1150,-157 1150,-157 1510.68,-157 1510.68,-157"/>
<polygon fill="black" stroke="black" points="1510.68,-160.5 1520.68,-157 1510.68,-153.5 1510.68,-160.5"/>
</g>
<!-- RestartUserLoginMigrationUc -->
<g id="node11" class="node">
<title>RestartUserLoginMigrationUc</title>
<ellipse fill="#fdb462" stroke="black" cx="912" cy="-104" rx="129.63" ry="18"/>
<text text-anchor="middle" x="912" y="-99.8" font-family="Times,serif" font-size="14.00">RestartUserLoginMigrationUc</text>
</g>
<!-- RestartUserLoginMigrationUc&#45;&gt;UserLoginMigrationApiModule -->
<g id="edge10" class="edge">
<title>RestartUserLoginMigrationUc&#45;&gt;UserLoginMigrationApiModule</title>
<path fill="none" stroke="black" d="M912,-122.02C912,-139.37 912,-163 912,-163 912,-163 1510.69,-163 1510.69,-163"/>
<polygon fill="black" stroke="black" points="1510.69,-166.5 1520.69,-163 1510.69,-159.5 1510.69,-166.5"/>
</g>
<!-- StartUserLoginMigrationUc -->
<g id="node12" class="node">
<title>StartUserLoginMigrationUc</title>
<ellipse fill="#fdb462" stroke="black" cx="644" cy="-104" rx="120.4" ry="18"/>
<text text-anchor="middle" x="644" y="-99.8" font-family="Times,serif" font-size="14.00">StartUserLoginMigrationUc</text>
</g>
<!-- StartUserLoginMigrationUc&#45;&gt;UserLoginMigrationApiModule -->
<g id="edge11" class="edge">
<title>StartUserLoginMigrationUc&#45;&gt;UserLoginMigrationApiModule</title>
<path fill="none" stroke="black" d="M644,-122.11C644,-141.34 644,-169 644,-169 644,-169 1510.6,-169 1510.6,-169"/>
<polygon fill="black" stroke="black" points="1510.6,-172.5 1520.6,-169 1510.6,-165.5 1510.6,-172.5"/>
</g>
<!-- ToggleUserLoginMigrationUc -->
<g id="node13" class="node">
<title>ToggleUserLoginMigrationUc</title>
<ellipse fill="#fdb462" stroke="black" cx="376" cy="-104" rx="129.64" ry="18"/>
<text text-anchor="middle" x="376" y="-99.8" font-family="Times,serif" font-size="14.00">ToggleUserLoginMigrationUc</text>
</g>
<!-- ToggleUserLoginMigrationUc&#45;&gt;UserLoginMigrationApiModule -->
<g id="edge12" class="edge">
<title>ToggleUserLoginMigrationUc&#45;&gt;UserLoginMigrationApiModule</title>
<path fill="none" stroke="black" d="M376,-122.28C376,-143.32 376,-175 376,-175 376,-175 1510.69,-175 1510.69,-175"/>
<polygon fill="black" stroke="black" points="1510.69,-178.5 1520.69,-175 1510.69,-171.5 1510.69,-178.5"/>
</g>
<!-- UserLoginMigrationUc -->
<g id="node14" class="node">
<title>UserLoginMigrationUc</title>
<ellipse fill="#fdb462" stroke="black" cx="126" cy="-104" rx="102.43" ry="18"/>
<text text-anchor="middle" x="126" y="-99.8" font-family="Times,serif" font-size="14.00">UserLoginMigrationUc</text>
</g>
<!-- UserLoginMigrationUc&#45;&gt;UserLoginMigrationApiModule -->
<g id="edge13" class="edge">
<title>UserLoginMigrationUc&#45;&gt;UserLoginMigrationApiModule</title>
<path fill="none" stroke="black" d="M126,-122.09C126,-145.13 126,-182 126,-182 126,-182 1510.75,-182 1510.75,-182"/>
<polygon fill="black" stroke="black" points="1510.75,-185.5 1520.75,-182 1510.75,-178.5 1510.75,-185.5"/>
</g>
</g>
</svg>
