<?xml version="1.0" encoding="UTF-8" standalone="no"?>
<!DOCTYPE svg PUBLIC "-//W3C//DTD SVG 1.1//EN"
 "http://www.w3.org/Graphics/SVG/1.1/DTD/svg11.dtd">
<!-- Generated by graphviz version 2.47.0 (20210316.0004)
 -->
<!-- Title: dependencies Pages: 1 -->
<svg width="2283pt" height="211pt"
 viewBox="0.00 0.00 2283.00 211.00" xmlns="http://www.w3.org/2000/svg" xmlns:xlink="http://www.w3.org/1999/xlink">
<g id="graph0" class="graph" transform="scale(1 1) rotate(0) translate(4 207)">
<title>dependencies</title>
<polygon fill="white" stroke="transparent" points="-4,4 -4,-207 2279,-207 2279,4 -4,4"/>
<text text-anchor="start" x="1116.51" y="-42.4" font-family="Times-12" font-weight="bold" font-size="14.00">Legend</text>
<polygon fill="#ffffb3" stroke="transparent" points="903.5,-10 903.5,-30 923.5,-30 923.5,-10 903.5,-10"/>
<text text-anchor="start" x="927.13" y="-15.4" font-family="Times-12" font-size="14.00"> &#160;Declarations</text>
<polygon fill="#8dd3c7" stroke="transparent" points="1016.5,-10 1016.5,-30 1036.5,-30 1036.5,-10 1016.5,-10"/>
<text text-anchor="start" x="1040.23" y="-15.4" font-family="Times-12" font-size="14.00"> &#160;Module</text>
<polygon fill="#80b1d3" stroke="transparent" points="1102.5,-10 1102.5,-30 1122.5,-30 1122.5,-10 1102.5,-10"/>
<text text-anchor="start" x="1126.28" y="-15.4" font-family="Times-12" font-size="14.00"> &#160;Bootstrap</text>
<polygon fill="#fdb462" stroke="transparent" points="1199.5,-10 1199.5,-30 1219.5,-30 1219.5,-10 1199.5,-10"/>
<text text-anchor="start" x="1223.17" y="-15.4" font-family="Times-12" font-size="14.00"> &#160;Providers</text>
<polygon fill="#fb8072" stroke="transparent" points="1295.5,-10 1295.5,-30 1315.5,-30 1315.5,-10 1295.5,-10"/>
<text text-anchor="start" x="1319.23" y="-15.4" font-family="Times-12" font-size="14.00"> &#160;Exports</text>
<g id="clust1" class="cluster">
<title>cluster_UserLoginMigrationApiModule</title>
<polygon fill="none" stroke="black" stroke-dasharray="1,5" points="8,-70 8,-195 2267,-195 2267,-70 8,-70"/>
</g>
<g id="clust3" class="cluster">
<title>cluster_UserLoginMigrationApiModule_imports</title>
<polygon fill="none" stroke="black" points="1256,-78 1256,-130 2259,-130 2259,-78 1256,-78"/>
</g>
<g id="clust6" class="cluster">
<title>cluster_UserLoginMigrationApiModule_providers</title>
<polygon fill="none" stroke="black" points="16,-78 16,-130 1248,-130 1248,-78 16,-78"/>
</g>
<!-- AuthenticationModule -->
<g id="node1" class="node">
<title>AuthenticationModule</title>
<polygon fill="#8dd3c7" stroke="black" points="2251.25,-122 2248.25,-126 2227.25,-126 2224.25,-122 2108.75,-122 2108.75,-86 2251.25,-86 2251.25,-122"/>
<text text-anchor="middle" x="2180" y="-99.8" font-family="Times,serif" font-size="14.00">AuthenticationModule</text>
</g>
<!-- UserLoginMigrationApiModule -->
<g id="node8" class="node">
<title>UserLoginMigrationApiModule</title>
<polygon fill="#8dd3c7" stroke="black" points="1527.41,-187 1524.41,-191 1503.41,-191 1500.41,-187 1330.59,-187 1330.59,-151 1527.41,-151 1527.41,-187"/>
<text text-anchor="middle" x="1429" y="-164.8" font-family="Times,serif" font-size="14.00">UserLoginMigrationApiModule</text>
</g>
<!-- AuthenticationModule&#45;&gt;UserLoginMigrationApiModule -->
<g id="edge1" class="edge">
<title>AuthenticationModule&#45;&gt;UserLoginMigrationApiModule</title>
<path fill="none" stroke="black" d="M2180,-122.09C2180,-145.13 2180,-182 2180,-182 2180,-182 1537.57,-182 1537.57,-182"/>
<polygon fill="black" stroke="black" points="1537.57,-178.5 1527.57,-182 1537.57,-185.5 1537.57,-178.5"/>
</g>
<!-- AuthorizationModule -->
<g id="node2" class="node">
<title>AuthorizationModule</title>
<polygon fill="#8dd3c7" stroke="black" points="2090.81,-122 2087.81,-126 2066.81,-126 2063.81,-122 1953.19,-122 1953.19,-86 2090.81,-86 2090.81,-122"/>
<text text-anchor="middle" x="2022" y="-99.8" font-family="Times,serif" font-size="14.00">AuthorizationModule</text>
</g>
<!-- AuthorizationModule&#45;&gt;UserLoginMigrationApiModule -->
<g id="edge2" class="edge">
<title>AuthorizationModule&#45;&gt;UserLoginMigrationApiModule</title>
<path fill="none" stroke="black" d="M2022,-122.28C2022,-143.32 2022,-175 2022,-175 2022,-175 1537.25,-175 1537.25,-175"/>
<polygon fill="black" stroke="black" points="1537.25,-171.5 1527.25,-175 1537.25,-178.5 1537.25,-171.5"/>
</g>
<!-- LoggerModule -->
<g id="node3" class="node">
<title>LoggerModule</title>
<polygon fill="#8dd3c7" stroke="black" points="1934.98,-122 1931.98,-126 1910.98,-126 1907.98,-122 1835.02,-122 1835.02,-86 1934.98,-86 1934.98,-122"/>
<text text-anchor="middle" x="1885" y="-99.8" font-family="Times,serif" font-size="14.00">LoggerModule</text>
</g>
<!-- LoggerModule&#45;&gt;UserLoginMigrationApiModule -->
<g id="edge3" class="edge">
<title>LoggerModule&#45;&gt;UserLoginMigrationApiModule</title>
<path fill="none" stroke="black" d="M1885,-122.11C1885,-141.34 1885,-169 1885,-169 1885,-169 1537.38,-169 1537.38,-169"/>
<polygon fill="black" stroke="black" points="1537.38,-165.5 1527.38,-169 1537.38,-172.5 1537.38,-165.5"/>
</g>
<!-- OauthModule -->
<g id="node4" class="node">
<title>OauthModule</title>
<polygon fill="#8dd3c7" stroke="black" points="1816.76,-122 1813.76,-126 1792.76,-126 1789.76,-122 1723.24,-122 1723.24,-86 1816.76,-86 1816.76,-122"/>
<text text-anchor="middle" x="1770" y="-99.8" font-family="Times,serif" font-size="14.00">OauthModule</text>
</g>
<!-- OauthModule&#45;&gt;UserLoginMigrationApiModule -->
<g id="edge4" class="edge">
<title>OauthModule&#45;&gt;UserLoginMigrationApiModule</title>
<path fill="none" stroke="black" d="M1770,-122.02C1770,-139.37 1770,-163 1770,-163 1770,-163 1537.63,-163 1537.63,-163"/>
<polygon fill="black" stroke="black" points="1537.63,-159.5 1527.63,-163 1537.63,-166.5 1537.63,-159.5"/>
</g>
<!-- ProvisioningModule -->
<g id="node5" class="node">
<title>ProvisioningModule</title>
<polygon fill="#8dd3c7" stroke="black" points="1705.61,-122 1702.61,-126 1681.61,-126 1678.61,-122 1574.39,-122 1574.39,-86 1705.61,-86 1705.61,-122"/>
<text text-anchor="middle" x="1640" y="-99.8" font-family="Times,serif" font-size="14.00">ProvisioningModule</text>
</g>
<!-- ProvisioningModule&#45;&gt;UserLoginMigrationApiModule -->
<g id="edge5" class="edge">
<title>ProvisioningModule&#45;&gt;UserLoginMigrationApiModule</title>
<path fill="none" stroke="black" d="M1640,-122.24C1640,-137.57 1640,-157 1640,-157 1640,-157 1537.4,-157 1537.4,-157"/>
<polygon fill="black" stroke="black" points="1537.4,-153.5 1527.4,-157 1537.4,-160.5 1537.4,-153.5"/>
</g>
<!-- SchoolModule -->
<g id="node6" class="node">
<title>SchoolModule</title>
<polygon fill="#8dd3c7" stroke="black" points="1556.44,-122 1553.44,-126 1532.44,-126 1529.44,-122 1457.56,-122 1457.56,-86 1556.44,-86 1556.44,-122"/>
<text text-anchor="middle" x="1507" y="-99.8" font-family="Times,serif" font-size="14.00">SchoolModule</text>
</g>
<!-- SchoolModule&#45;&gt;UserLoginMigrationApiModule -->
<g id="edge6" class="edge">
<title>SchoolModule&#45;&gt;UserLoginMigrationApiModule</title>
<path fill="none" stroke="black" d="M1492.49,-122.11C1492.49,-122.11 1492.49,-140.99 1492.49,-140.99"/>
<polygon fill="black" stroke="black" points="1488.99,-140.99 1492.49,-150.99 1495.99,-140.99 1488.99,-140.99"/>
</g>
<!-- UserLoginMigrationModule -->
<g id="node7" class="node">
<title>UserLoginMigrationModule</title>
<polygon fill="#8dd3c7" stroke="black" points="1439.91,-122 1436.91,-126 1415.91,-126 1412.91,-122 1264.09,-122 1264.09,-86 1439.91,-86 1439.91,-122"/>
<text text-anchor="middle" x="1352" y="-99.8" font-family="Times,serif" font-size="14.00">UserLoginMigrationModule</text>
</g>
<!-- UserLoginMigrationModule&#45;&gt;UserLoginMigrationApiModule -->
<g id="edge7" class="edge">
<title>UserLoginMigrationModule&#45;&gt;UserLoginMigrationApiModule</title>
<path fill="none" stroke="black" d="M1385.25,-122.11C1385.25,-122.11 1385.25,-140.99 1385.25,-140.99"/>
<polygon fill="black" stroke="black" points="1381.75,-140.99 1385.25,-150.99 1388.75,-140.99 1381.75,-140.99"/>
</g>
<!-- PageContentMapper -->
<g id="node9" class="node">
<title>PageContentMapper</title>
<ellipse fill="#fdb462" stroke="black" cx="1150" cy="-104" rx="90.33" ry="18"/>
<text text-anchor="middle" x="1150" y="-99.8" font-family="Times,serif" font-size="14.00">PageContentMapper</text>
</g>
<!-- PageContentMapper&#45;&gt;UserLoginMigrationApiModule -->
<g id="edge8" class="edge">
<title>PageContentMapper&#45;&gt;UserLoginMigrationApiModule</title>
<path fill="none" stroke="black" d="M1150,-122.24C1150,-137.57 1150,-157 1150,-157 1150,-157 1320.64,-157 1320.64,-157"/>
<polygon fill="black" stroke="black" points="1320.64,-160.5 1330.64,-157 1320.64,-153.5 1320.64,-160.5"/>
</g>
<!-- RestartUserLoginMigrationUc -->
<g id="node10" class="node">
<title>RestartUserLoginMigrationUc</title>
<ellipse fill="#fdb462" stroke="black" cx="912" cy="-104" rx="129.63" ry="18"/>
<text text-anchor="middle" x="912" y="-99.8" font-family="Times,serif" font-size="14.00">RestartUserLoginMigrationUc</text>
</g>
<!-- RestartUserLoginMigrationUc&#45;&gt;UserLoginMigrationApiModule -->
<g id="edge9" class="edge">
<title>RestartUserLoginMigrationUc&#45;&gt;UserLoginMigrationApiModule</title>
<path fill="none" stroke="black" d="M912,-122.02C912,-139.37 912,-163 912,-163 912,-163 1320.54,-163 1320.54,-163"/>
<polygon fill="black" stroke="black" points="1320.54,-166.5 1330.54,-163 1320.54,-159.5 1320.54,-166.5"/>
</g>
<!-- StartUserLoginMigrationUc -->
<g id="node11" class="node">
<title>StartUserLoginMigrationUc</title>
<ellipse fill="#fdb462" stroke="black" cx="644" cy="-104" rx="120.4" ry="18"/>
<text text-anchor="middle" x="644" y="-99.8" font-family="Times,serif" font-size="14.00">StartUserLoginMigrationUc</text>
</g>
<!-- StartUserLoginMigrationUc&#45;&gt;UserLoginMigrationApiModule -->
<g id="edge10" class="edge">
<title>StartUserLoginMigrationUc&#45;&gt;UserLoginMigrationApiModule</title>
<path fill="none" stroke="black" d="M644,-122.11C644,-141.34 644,-169 644,-169 644,-169 1320.77,-169 1320.77,-169"/>
<polygon fill="black" stroke="black" points="1320.77,-172.5 1330.77,-169 1320.77,-165.5 1320.77,-172.5"/>
</g>
<!-- ToggleUserLoginMigrationUc -->
<g id="node12" class="node">
<title>ToggleUserLoginMigrationUc</title>
<ellipse fill="#fdb462" stroke="black" cx="376" cy="-104" rx="129.64" ry="18"/>
<text text-anchor="middle" x="376" y="-99.8" font-family="Times,serif" font-size="14.00">ToggleUserLoginMigrationUc</text>
</g>
<!-- ToggleUserLoginMigrationUc&#45;&gt;UserLoginMigrationApiModule -->
<g id="edge11" class="edge">
<title>ToggleUserLoginMigrationUc&#45;&gt;UserLoginMigrationApiModule</title>
<path fill="none" stroke="black" d="M376,-122.28C376,-143.32 376,-175 376,-175 376,-175 1320.41,-175 1320.41,-175"/>
<polygon fill="black" stroke="black" points="1320.41,-178.5 1330.41,-175 1320.41,-171.5 1320.41,-178.5"/>
</g>
<!-- UserLoginMigrationUc -->
<g id="node13" class="node">
<title>UserLoginMigrationUc</title>
<ellipse fill="#fdb462" stroke="black" cx="126" cy="-104" rx="102.43" ry="18"/>
<text text-anchor="middle" x="126" y="-99.8" font-family="Times,serif" font-size="14.00">UserLoginMigrationUc</text>
</g>
<!-- UserLoginMigrationUc&#45;&gt;UserLoginMigrationApiModule -->
<g id="edge12" class="edge">
<title>UserLoginMigrationUc&#45;&gt;UserLoginMigrationApiModule</title>
<path fill="none" stroke="black" d="M126,-122.09C126,-145.13 126,-182 126,-182 126,-182 1320.53,-182 1320.53,-182"/>
<polygon fill="black" stroke="black" points="1320.53,-185.5 1330.53,-182 1320.53,-178.5 1320.53,-185.5"/>
</g>
</g>
</svg>
