<?xml version="1.0" encoding="UTF-8" standalone="no"?>
<!DOCTYPE svg PUBLIC "-//W3C//DTD SVG 1.1//EN"
 "http://www.w3.org/Graphics/SVG/1.1/DTD/svg11.dtd">
<!-- Generated by graphviz version 2.47.0 (20210316.0004)
 -->
<!-- Title: dependencies Pages: 1 -->
<svg width="1729pt" height="211pt"
 viewBox="0.00 0.00 1729.00 211.00" xmlns="http://www.w3.org/2000/svg" xmlns:xlink="http://www.w3.org/1999/xlink">
<g id="graph0" class="graph" transform="scale(1 1) rotate(0) translate(4 207)">
<title>dependencies</title>
<polygon fill="white" stroke="transparent" points="-4,4 -4,-207 1725,-207 1725,4 -4,4"/>
<text text-anchor="start" x="839.51" y="-42.4" font-family="Times-12" font-weight="bold" font-size="14.00">Legend</text>
<polygon fill="#ffffb3" stroke="transparent" points="626.5,-10 626.5,-30 646.5,-30 646.5,-10 626.5,-10"/>
<text text-anchor="start" x="650.13" y="-15.4" font-family="Times-12" font-size="14.00"> &#160;Declarations</text>
<polygon fill="#8dd3c7" stroke="transparent" points="739.5,-10 739.5,-30 759.5,-30 759.5,-10 739.5,-10"/>
<text text-anchor="start" x="763.23" y="-15.4" font-family="Times-12" font-size="14.00"> &#160;Module</text>
<polygon fill="#80b1d3" stroke="transparent" points="825.5,-10 825.5,-30 845.5,-30 845.5,-10 825.5,-10"/>
<text text-anchor="start" x="849.28" y="-15.4" font-family="Times-12" font-size="14.00"> &#160;Bootstrap</text>
<polygon fill="#fdb462" stroke="transparent" points="922.5,-10 922.5,-30 942.5,-30 942.5,-10 922.5,-10"/>
<text text-anchor="start" x="946.17" y="-15.4" font-family="Times-12" font-size="14.00"> &#160;Providers</text>
<polygon fill="#fb8072" stroke="transparent" points="1018.5,-10 1018.5,-30 1038.5,-30 1038.5,-10 1018.5,-10"/>
<text text-anchor="start" x="1042.23" y="-15.4" font-family="Times-12" font-size="14.00"> &#160;Exports</text>
<g id="clust1" class="cluster">
<title>cluster_UserLoginMigrationApiModule</title>
<polygon fill="none" stroke="black" stroke-dasharray="1,5" points="8,-70 8,-195 1713,-195 1713,-70 8,-70"/>
</g>
<g id="clust6" class="cluster">
<title>cluster_UserLoginMigrationApiModule_providers</title>
<polygon fill="none" stroke="black" points="1027,-78 1027,-130 1705,-130 1705,-78 1027,-78"/>
</g>
<g id="clust3" class="cluster">
<title>cluster_UserLoginMigrationApiModule_imports</title>
<polygon fill="none" stroke="black" points="16,-78 16,-130 1019,-130 1019,-78 16,-78"/>
</g>
<!-- AuthenticationModule -->
<g id="node1" class="node">
<title>AuthenticationModule</title>
<polygon fill="#8dd3c7" stroke="black" points="1011.25,-122 1008.25,-126 987.25,-126 984.25,-122 868.75,-122 868.75,-86 1011.25,-86 1011.25,-122"/>
<text text-anchor="middle" x="940" y="-99.8" font-family="Times,serif" font-size="14.00">AuthenticationModule</text>
</g>
<!-- UserLoginMigrationApiModule -->
<g id="node8" class="node">
<title>UserLoginMigrationApiModule</title>
<polygon fill="#8dd3c7" stroke="black" points="811.41,-187 808.41,-191 787.41,-191 784.41,-187 614.59,-187 614.59,-151 811.41,-151 811.41,-187"/>
<text text-anchor="middle" x="713" y="-164.8" font-family="Times,serif" font-size="14.00">UserLoginMigrationApiModule</text>
</g>
<!-- AuthenticationModule&#45;&gt;UserLoginMigrationApiModule -->
<g id="edge1" class="edge">
<title>AuthenticationModule&#45;&gt;UserLoginMigrationApiModule</title>
<path fill="none" stroke="black" d="M940,-122.01C940,-138.05 940,-159 940,-159 940,-159 821.25,-159 821.25,-159"/>
<polygon fill="black" stroke="black" points="821.25,-155.5 811.25,-159 821.25,-162.5 821.25,-155.5"/>
</g>
<!-- AuthorizationModule -->
<g id="node2" class="node">
<title>AuthorizationModule</title>
<polygon fill="#8dd3c7" stroke="black" points="850.81,-122 847.81,-126 826.81,-126 823.81,-122 713.19,-122 713.19,-86 850.81,-86 850.81,-122"/>
<text text-anchor="middle" x="782" y="-99.8" font-family="Times,serif" font-size="14.00">AuthorizationModule</text>
</g>
<!-- AuthorizationModule&#45;&gt;UserLoginMigrationApiModule -->
<g id="edge2" class="edge">
<title>AuthorizationModule&#45;&gt;UserLoginMigrationApiModule</title>
<path fill="none" stroke="black" d="M762.27,-122.11C762.27,-122.11 762.27,-140.99 762.27,-140.99"/>
<polygon fill="black" stroke="black" points="758.77,-140.99 762.27,-150.99 765.77,-140.99 758.77,-140.99"/>
</g>
<!-- LoggerModule -->
<g id="node3" class="node">
<title>LoggerModule</title>
<polygon fill="#8dd3c7" stroke="black" points="694.98,-122 691.98,-126 670.98,-126 667.98,-122 595.02,-122 595.02,-86 694.98,-86 694.98,-122"/>
<text text-anchor="middle" x="645" y="-99.8" font-family="Times,serif" font-size="14.00">LoggerModule</text>
</g>
<!-- LoggerModule&#45;&gt;UserLoginMigrationApiModule -->
<g id="edge3" class="edge">
<title>LoggerModule&#45;&gt;UserLoginMigrationApiModule</title>
<path fill="none" stroke="black" d="M654.89,-122.11C654.89,-122.11 654.89,-140.99 654.89,-140.99"/>
<polygon fill="black" stroke="black" points="651.39,-140.99 654.89,-150.99 658.39,-140.99 651.39,-140.99"/>
</g>
<!-- OauthModule -->
<g id="node4" class="node">
<title>OauthModule</title>
<polygon fill="#8dd3c7" stroke="black" points="576.76,-122 573.76,-126 552.76,-126 549.76,-122 483.24,-122 483.24,-86 576.76,-86 576.76,-122"/>
<text text-anchor="middle" x="530" y="-99.8" font-family="Times,serif" font-size="14.00">OauthModule</text>
</g>
<!-- OauthModule&#45;&gt;UserLoginMigrationApiModule -->
<g id="edge4" class="edge">
<title>OauthModule&#45;&gt;UserLoginMigrationApiModule</title>
<path fill="none" stroke="black" d="M530,-122.01C530,-138.05 530,-159 530,-159 530,-159 604.54,-159 604.54,-159"/>
<polygon fill="black" stroke="black" points="604.54,-162.5 614.54,-159 604.54,-155.5 604.54,-162.5"/>
</g>
<!-- ProvisioningModule -->
<g id="node5" class="node">
<title>ProvisioningModule</title>
<polygon fill="#8dd3c7" stroke="black" points="465.61,-122 462.61,-126 441.61,-126 438.61,-122 334.39,-122 334.39,-86 465.61,-86 465.61,-122"/>
<text text-anchor="middle" x="400" y="-99.8" font-family="Times,serif" font-size="14.00">ProvisioningModule</text>
</g>
<!-- ProvisioningModule&#45;&gt;UserLoginMigrationApiModule -->
<g id="edge5" class="edge">
<title>ProvisioningModule&#45;&gt;UserLoginMigrationApiModule</title>
<path fill="none" stroke="black" d="M400,-122.27C400,-140.56 400,-166 400,-166 400,-166 604.39,-166 604.39,-166"/>
<polygon fill="black" stroke="black" points="604.39,-169.5 614.39,-166 604.39,-162.5 604.39,-169.5"/>
</g>
<!-- SchoolModule -->
<g id="node6" class="node">
<title>SchoolModule</title>
<polygon fill="#8dd3c7" stroke="black" points="316.44,-122 313.44,-126 292.44,-126 289.44,-122 217.56,-122 217.56,-86 316.44,-86 316.44,-122"/>
<text text-anchor="middle" x="267" y="-99.8" font-family="Times,serif" font-size="14.00">SchoolModule</text>
</g>
<!-- SchoolModule&#45;&gt;UserLoginMigrationApiModule -->
<g id="edge6" class="edge">
<title>SchoolModule&#45;&gt;UserLoginMigrationApiModule</title>
<path fill="none" stroke="black" d="M267,-122.13C267,-142.57 267,-173 267,-173 267,-173 604.57,-173 604.57,-173"/>
<polygon fill="black" stroke="black" points="604.57,-176.5 614.57,-173 604.57,-169.5 604.57,-176.5"/>
</g>
<!-- UserLoginMigrationModule -->
<g id="node7" class="node">
<title>UserLoginMigrationModule</title>
<polygon fill="#8dd3c7" stroke="black" points="199.91,-122 196.91,-126 175.91,-126 172.91,-122 24.09,-122 24.09,-86 199.91,-86 199.91,-122"/>
<text text-anchor="middle" x="112" y="-99.8" font-family="Times,serif" font-size="14.00">UserLoginMigrationModule</text>
</g>
<!-- UserLoginMigrationModule&#45;&gt;UserLoginMigrationApiModule -->
<g id="edge7" class="edge">
<title>UserLoginMigrationModule&#45;&gt;UserLoginMigrationApiModule</title>
<path fill="none" stroke="black" d="M112,-122.01C112,-144.49 112,-180 112,-180 112,-180 604.77,-180 604.77,-180"/>
<polygon fill="black" stroke="black" points="604.77,-183.5 614.77,-180 604.77,-176.5 604.77,-183.5"/>
</g>
<!-- PageContentMapper -->
<g id="node9" class="node">
<title>PageContentMapper</title>
<ellipse fill="#fdb462" stroke="black" cx="1607" cy="-104" rx="90.33" ry="18"/>
<text text-anchor="middle" x="1607" y="-99.8" font-family="Times,serif" font-size="14.00">PageContentMapper</text>
</g>
<!-- PageContentMapper&#45;&gt;UserLoginMigrationApiModule -->
<g id="edge8" class="edge">
<title>PageContentMapper&#45;&gt;UserLoginMigrationApiModule</title>
<path fill="none" stroke="black" d="M1607,-122.01C1607,-144.49 1607,-180 1607,-180 1607,-180 821.23,-180 821.23,-180"/>
<polygon fill="black" stroke="black" points="821.23,-176.5 811.23,-180 821.23,-183.5 821.23,-176.5"/>
</g>
<!-- StartUserLoginMigrationUc -->
<g id="node10" class="node">
<title>StartUserLoginMigrationUc</title>
<ellipse fill="#fdb462" stroke="black" cx="1378" cy="-104" rx="120.4" ry="18"/>
<text text-anchor="middle" x="1378" y="-99.8" font-family="Times,serif" font-size="14.00">StartUserLoginMigrationUc</text>
</g>
<!-- StartUserLoginMigrationUc&#45;&gt;UserLoginMigrationApiModule -->
<g id="edge9" class="edge">
<title>StartUserLoginMigrationUc&#45;&gt;UserLoginMigrationApiModule</title>
<path fill="none" stroke="black" d="M1378,-122.13C1378,-142.57 1378,-173 1378,-173 1378,-173 821.48,-173 821.48,-173"/>
<polygon fill="black" stroke="black" points="821.48,-169.5 811.48,-173 821.48,-176.5 821.48,-169.5"/>
</g>
<!-- UserLoginMigrationUc -->
<g id="node11" class="node">
<title>UserLoginMigrationUc</title>
<ellipse fill="#fdb462" stroke="black" cx="1137" cy="-104" rx="102.43" ry="18"/>
<text text-anchor="middle" x="1137" y="-99.8" font-family="Times,serif" font-size="14.00">UserLoginMigrationUc</text>
</g>
<!-- UserLoginMigrationUc&#45;&gt;UserLoginMigrationApiModule -->
<g id="edge10" class="edge">
<title>UserLoginMigrationUc&#45;&gt;UserLoginMigrationApiModule</title>
<path fill="none" stroke="black" d="M1137,-122.27C1137,-140.56 1137,-166 1137,-166 1137,-166 821.34,-166 821.34,-166"/>
<polygon fill="black" stroke="black" points="821.34,-162.5 811.34,-166 821.34,-169.5 821.34,-162.5"/>
</g>
</g>
</svg>
