<?xml version="1.0" encoding="UTF-8" standalone="no"?>
<!DOCTYPE svg PUBLIC "-//W3C//DTD SVG 1.1//EN"
 "http://www.w3.org/Graphics/SVG/1.1/DTD/svg11.dtd">
<!-- Generated by graphviz version 2.47.0 (20210316.0004)
 -->
<!-- Title: dependencies Pages: 1 -->
<svg width="1729pt" height="211pt"
 viewBox="0.00 0.00 1729.00 211.00" xmlns="http://www.w3.org/2000/svg" xmlns:xlink="http://www.w3.org/1999/xlink">
<g id="graph0" class="graph" transform="scale(1 1) rotate(0) translate(4 207)">
<title>dependencies</title>
<polygon fill="white" stroke="transparent" points="-4,4 -4,-207 1725,-207 1725,4 -4,4"/>
<text text-anchor="start" x="839.51" y="-42.4" font-family="Times-12" font-weight="bold" font-size="14.00">Legend</text>
<polygon fill="#ffffb3" stroke="transparent" points="626.5,-10 626.5,-30 646.5,-30 646.5,-10 626.5,-10"/>
<text text-anchor="start" x="650.13" y="-15.4" font-family="Times-12" font-size="14.00"> &#160;Declarations</text>
<polygon fill="#8dd3c7" stroke="transparent" points="739.5,-10 739.5,-30 759.5,-30 759.5,-10 739.5,-10"/>
<text text-anchor="start" x="763.23" y="-15.4" font-family="Times-12" font-size="14.00"> &#160;Module</text>
<polygon fill="#80b1d3" stroke="transparent" points="825.5,-10 825.5,-30 845.5,-30 845.5,-10 825.5,-10"/>
<text text-anchor="start" x="849.28" y="-15.4" font-family="Times-12" font-size="14.00"> &#160;Bootstrap</text>
<polygon fill="#fdb462" stroke="transparent" points="922.5,-10 922.5,-30 942.5,-30 942.5,-10 922.5,-10"/>
<text text-anchor="start" x="946.17" y="-15.4" font-family="Times-12" font-size="14.00"> &#160;Providers</text>
<polygon fill="#fb8072" stroke="transparent" points="1018.5,-10 1018.5,-30 1038.5,-30 1038.5,-10 1018.5,-10"/>
<text text-anchor="start" x="1042.23" y="-15.4" font-family="Times-12" font-size="14.00"> &#160;Exports</text>
<g id="clust1" class="cluster">
<title>cluster_UserLoginMigrationApiModule</title>
<polygon fill="none" stroke="black" stroke-dasharray="1,5" points="8,-70 8,-195 1713,-195 1713,-70 8,-70"/>
</g>
<g id="clust3" class="cluster">
<title>cluster_UserLoginMigrationApiModule_imports</title>
<polygon fill="none" stroke="black" points="702,-78 702,-130 1705,-130 1705,-78 702,-78"/>
</g>
<g id="clust6" class="cluster">
<title>cluster_UserLoginMigrationApiModule_providers</title>
<polygon fill="none" stroke="black" points="16,-78 16,-130 694,-130 694,-78 16,-78"/>
</g>
<!-- AuthenticationModule -->
<g id="node1" class="node">
<title>AuthenticationModule</title>
<polygon fill="#8dd3c7" stroke="black" points="1697.25,-122 1694.25,-126 1673.25,-126 1670.25,-122 1554.75,-122 1554.75,-86 1697.25,-86 1697.25,-122"/>
<text text-anchor="middle" x="1626" y="-99.8" font-family="Times,serif" font-size="14.00">AuthenticationModule</text>
</g>
<!-- UserLoginMigrationApiModule -->
<g id="node8" class="node">
<title>UserLoginMigrationApiModule</title>
<polygon fill="#8dd3c7" stroke="black" points="1117.41,-187 1114.41,-191 1093.41,-191 1090.41,-187 920.59,-187 920.59,-151 1117.41,-151 1117.41,-187"/>
<text text-anchor="middle" x="1019" y="-164.8" font-family="Times,serif" font-size="14.00">UserLoginMigrationApiModule</text>
</g>
<!-- AuthenticationModule&#45;&gt;UserLoginMigrationApiModule -->
<g id="edge1" class="edge">
<title>AuthenticationModule&#45;&gt;UserLoginMigrationApiModule</title>
<path fill="none" stroke="black" d="M1626,-122.01C1626,-144.49 1626,-180 1626,-180 1626,-180 1127.54,-180 1127.54,-180"/>
<polygon fill="black" stroke="black" points="1127.54,-176.5 1117.54,-180 1127.54,-183.5 1127.54,-176.5"/>
</g>
<!-- AuthorizationModule -->
<g id="node2" class="node">
<title>AuthorizationModule</title>
<polygon fill="#8dd3c7" stroke="black" points="1536.81,-122 1533.81,-126 1512.81,-126 1509.81,-122 1399.19,-122 1399.19,-86 1536.81,-86 1536.81,-122"/>
<text text-anchor="middle" x="1468" y="-99.8" font-family="Times,serif" font-size="14.00">AuthorizationModule</text>
</g>
<!-- AuthorizationModule&#45;&gt;UserLoginMigrationApiModule -->
<g id="edge2" class="edge">
<title>AuthorizationModule&#45;&gt;UserLoginMigrationApiModule</title>
<path fill="none" stroke="black" d="M1468,-122.13C1468,-142.57 1468,-173 1468,-173 1468,-173 1127.26,-173 1127.26,-173"/>
<polygon fill="black" stroke="black" points="1127.26,-169.5 1117.26,-173 1127.26,-176.5 1127.26,-169.5"/>
</g>
<!-- LoggerModule -->
<g id="node3" class="node">
<title>LoggerModule</title>
<polygon fill="#8dd3c7" stroke="black" points="1380.98,-122 1377.98,-126 1356.98,-126 1353.98,-122 1281.02,-122 1281.02,-86 1380.98,-86 1380.98,-122"/>
<text text-anchor="middle" x="1331" y="-99.8" font-family="Times,serif" font-size="14.00">LoggerModule</text>
</g>
<!-- LoggerModule&#45;&gt;UserLoginMigrationApiModule -->
<g id="edge3" class="edge">
<title>LoggerModule&#45;&gt;UserLoginMigrationApiModule</title>
<path fill="none" stroke="black" d="M1331,-122.27C1331,-140.56 1331,-166 1331,-166 1331,-166 1127.29,-166 1127.29,-166"/>
<polygon fill="black" stroke="black" points="1127.29,-162.5 1117.29,-166 1127.29,-169.5 1127.29,-162.5"/>
</g>
<!-- OauthModule -->
<g id="node4" class="node">
<title>OauthModule</title>
<polygon fill="#8dd3c7" stroke="black" points="1262.76,-122 1259.76,-126 1238.76,-126 1235.76,-122 1169.24,-122 1169.24,-86 1262.76,-86 1262.76,-122"/>
<text text-anchor="middle" x="1216" y="-99.8" font-family="Times,serif" font-size="14.00">OauthModule</text>
</g>
<!-- OauthModule&#45;&gt;UserLoginMigrationApiModule -->
<g id="edge4" class="edge">
<title>OauthModule&#45;&gt;UserLoginMigrationApiModule</title>
<path fill="none" stroke="black" d="M1216,-122.01C1216,-138.05 1216,-159 1216,-159 1216,-159 1127.21,-159 1127.21,-159"/>
<polygon fill="black" stroke="black" points="1127.21,-155.5 1117.21,-159 1127.21,-162.5 1127.21,-155.5"/>
</g>
<!-- ProvisioningModule -->
<g id="node5" class="node">
<title>ProvisioningModule</title>
<polygon fill="#8dd3c7" stroke="black" points="1151.61,-122 1148.61,-126 1127.61,-126 1124.61,-122 1020.39,-122 1020.39,-86 1151.61,-86 1151.61,-122"/>
<text text-anchor="middle" x="1086" y="-99.8" font-family="Times,serif" font-size="14.00">ProvisioningModule</text>
</g>
<!-- ProvisioningModule&#45;&gt;UserLoginMigrationApiModule -->
<g id="edge5" class="edge">
<title>ProvisioningModule&#45;&gt;UserLoginMigrationApiModule</title>
<path fill="none" stroke="black" d="M1068.82,-122.11C1068.82,-122.11 1068.82,-140.99 1068.82,-140.99"/>
<polygon fill="black" stroke="black" points="1065.32,-140.99 1068.82,-150.99 1072.32,-140.99 1065.32,-140.99"/>
</g>
<!-- SchoolModule -->
<g id="node6" class="node">
<title>SchoolModule</title>
<polygon fill="#8dd3c7" stroke="black" points="1002.44,-122 999.44,-126 978.44,-126 975.44,-122 903.56,-122 903.56,-86 1002.44,-86 1002.44,-122"/>
<text text-anchor="middle" x="953" y="-99.8" font-family="Times,serif" font-size="14.00">SchoolModule</text>
</g>
<!-- SchoolModule&#45;&gt;UserLoginMigrationApiModule -->
<g id="edge6" class="edge">
<title>SchoolModule&#45;&gt;UserLoginMigrationApiModule</title>
<path fill="none" stroke="black" d="M961.51,-122.11C961.51,-122.11 961.51,-140.99 961.51,-140.99"/>
<polygon fill="black" stroke="black" points="958.01,-140.99 961.51,-150.99 965.01,-140.99 958.01,-140.99"/>
</g>
<!-- UserLoginMigrationModule -->
<g id="node7" class="node">
<title>UserLoginMigrationModule</title>
<polygon fill="#8dd3c7" stroke="black" points="885.91,-122 882.91,-126 861.91,-126 858.91,-122 710.09,-122 710.09,-86 885.91,-86 885.91,-122"/>
<text text-anchor="middle" x="798" y="-99.8" font-family="Times,serif" font-size="14.00">UserLoginMigrationModule</text>
</g>
<!-- UserLoginMigrationModule&#45;&gt;UserLoginMigrationApiModule -->
<g id="edge7" class="edge">
<title>UserLoginMigrationModule&#45;&gt;UserLoginMigrationApiModule</title>
<path fill="none" stroke="black" d="M798,-122.01C798,-138.05 798,-159 798,-159 798,-159 910.78,-159 910.78,-159"/>
<polygon fill="black" stroke="black" points="910.78,-162.5 920.78,-159 910.78,-155.5 910.78,-162.5"/>
</g>
<!-- PageContentMapper -->
<g id="node9" class="node">
<title>PageContentMapper</title>
<ellipse fill="#fdb462" stroke="black" cx="596" cy="-104" rx="90.33" ry="18"/>
<text text-anchor="middle" x="596" y="-99.8" font-family="Times,serif" font-size="14.00">PageContentMapper</text>
</g>
<!-- PageContentMapper&#45;&gt;UserLoginMigrationApiModule -->
<g id="edge8" class="edge">
<title>PageContentMapper&#45;&gt;UserLoginMigrationApiModule</title>
<path fill="none" stroke="black" d="M596,-122.27C596,-140.56 596,-166 596,-166 596,-166 910.63,-166 910.63,-166"/>
<polygon fill="black" stroke="black" points="910.63,-169.5 920.63,-166 910.63,-162.5 910.63,-169.5"/>
</g>
<!-- StartUserLoginMigrationUc -->
<g id="node10" class="node">
<title>StartUserLoginMigrationUc</title>
<ellipse fill="#fdb462" stroke="black" cx="367" cy="-104" rx="120.4" ry="18"/>
<text text-anchor="middle" x="367" y="-99.8" font-family="Times,serif" font-size="14.00">StartUserLoginMigrationUc</text>
</g>
<!-- StartUserLoginMigrationUc&#45;&gt;UserLoginMigrationApiModule -->
<g id="edge9" class="edge">
<title>StartUserLoginMigrationUc&#45;&gt;UserLoginMigrationApiModule</title>
<path fill="none" stroke="black" d="M367,-122.13C367,-142.57 367,-173 367,-173 367,-173 910.68,-173 910.68,-173"/>
<polygon fill="black" stroke="black" points="910.68,-176.5 920.68,-173 910.68,-169.5 910.68,-176.5"/>
</g>
<!-- UserLoginMigrationUc -->
<g id="node11" class="node">
<title>UserLoginMigrationUc</title>
<ellipse fill="#fdb462" stroke="black" cx="126" cy="-104" rx="102.43" ry="18"/>
<text text-anchor="middle" x="126" y="-99.8" font-family="Times,serif" font-size="14.00">UserLoginMigrationUc</text>
</g>
<!-- UserLoginMigrationUc&#45;&gt;UserLoginMigrationApiModule -->
<g id="edge10" class="edge">
<title>UserLoginMigrationUc&#45;&gt;UserLoginMigrationApiModule</title>
<path fill="none" stroke="black" d="M126,-122.01C126,-144.49 126,-180 126,-180 126,-180 910.45,-180 910.45,-180"/>
<polygon fill="black" stroke="black" points="910.45,-183.5 920.45,-180 910.45,-176.5 910.45,-183.5"/>
</g>
</g>
</svg>
