<?xml version="1.0" encoding="UTF-8" standalone="no"?>
<!DOCTYPE svg PUBLIC "-//W3C//DTD SVG 1.1//EN"
 "http://www.w3.org/Graphics/SVG/1.1/DTD/svg11.dtd">
<!-- Generated by graphviz version 2.47.0 (20210316.0004)
 -->
<!-- Title: dependencies Pages: 1 -->
<svg width="3171pt" height="211pt"
 viewBox="0.00 0.00 3171.00 211.00" xmlns="http://www.w3.org/2000/svg" xmlns:xlink="http://www.w3.org/1999/xlink">
<g id="graph0" class="graph" transform="scale(1 1) rotate(0) translate(4 207)">
<title>dependencies</title>
<polygon fill="white" stroke="transparent" points="-4,4 -4,-207 3167,-207 3167,4 -4,4"/>
<text text-anchor="start" x="1560.51" y="-42.4" font-family="Times-12" font-weight="bold" font-size="14.00">Legend</text>
<polygon fill="#ffffb3" stroke="transparent" points="1347.5,-10 1347.5,-30 1367.5,-30 1367.5,-10 1347.5,-10"/>
<text text-anchor="start" x="1371.13" y="-15.4" font-family="Times-12" font-size="14.00"> &#160;Declarations</text>
<polygon fill="#8dd3c7" stroke="transparent" points="1460.5,-10 1460.5,-30 1480.5,-30 1480.5,-10 1460.5,-10"/>
<text text-anchor="start" x="1484.23" y="-15.4" font-family="Times-12" font-size="14.00"> &#160;Module</text>
<polygon fill="#80b1d3" stroke="transparent" points="1546.5,-10 1546.5,-30 1566.5,-30 1566.5,-10 1546.5,-10"/>
<text text-anchor="start" x="1570.28" y="-15.4" font-family="Times-12" font-size="14.00"> &#160;Bootstrap</text>
<polygon fill="#fdb462" stroke="transparent" points="1643.5,-10 1643.5,-30 1663.5,-30 1663.5,-10 1643.5,-10"/>
<text text-anchor="start" x="1667.17" y="-15.4" font-family="Times-12" font-size="14.00"> &#160;Providers</text>
<polygon fill="#fb8072" stroke="transparent" points="1739.5,-10 1739.5,-30 1759.5,-30 1759.5,-10 1739.5,-10"/>
<text text-anchor="start" x="1763.23" y="-15.4" font-family="Times-12" font-size="14.00"> &#160;Exports</text>
<g id="clust1" class="cluster">
<title>cluster_UserLoginMigrationApiModule</title>
<polygon fill="none" stroke="black" stroke-dasharray="1,5" points="8,-70 8,-195 3155,-195 3155,-70 8,-70"/>
</g>
<g id="clust3" class="cluster">
<title>cluster_UserLoginMigrationApiModule_imports</title>
<polygon fill="none" stroke="black" points="1857,-78 1857,-130 3147,-130 3147,-78 1857,-78"/>
</g>
<g id="clust6" class="cluster">
<title>cluster_UserLoginMigrationApiModule_providers</title>
<polygon fill="none" stroke="black" points="16,-78 16,-130 1849,-130 1849,-78 16,-78"/>
</g>
<!-- AuthenticationModule -->
<g id="node1" class="node">
<title>AuthenticationModule</title>
<polygon fill="#8dd3c7" stroke="black" points="3139.25,-122 3136.25,-126 3115.25,-126 3112.25,-122 2996.75,-122 2996.75,-86 3139.25,-86 3139.25,-122"/>
<text text-anchor="middle" x="3068" y="-99.8" font-family="Times,serif" font-size="14.00">AuthenticationModule</text>
</g>
<!-- UserLoginMigrationApiModule -->
<g id="node10" class="node">
<title>UserLoginMigrationApiModule</title>
<polygon fill="#8dd3c7" stroke="black" points="2080.41,-187 2077.41,-191 2056.41,-191 2053.41,-187 1883.59,-187 1883.59,-151 2080.41,-151 2080.41,-187"/>
<text text-anchor="middle" x="1982" y="-164.8" font-family="Times,serif" font-size="14.00">UserLoginMigrationApiModule</text>
</g>
<!-- AuthenticationModule&#45;&gt;UserLoginMigrationApiModule -->
<g id="edge1" class="edge">
<title>AuthenticationModule&#45;&gt;UserLoginMigrationApiModule</title>
<path fill="none" stroke="black" d="M3068,-122.32C3068,-145.66 3068,-183 3068,-183 3068,-183 2090.29,-183 2090.29,-183"/>
<polygon fill="black" stroke="black" points="2090.29,-179.5 2080.29,-183 2090.29,-186.5 2090.29,-179.5"/>
</g>
<!-- AuthorizationModule -->
<g id="node2" class="node">
<title>AuthorizationModule</title>
<polygon fill="#8dd3c7" stroke="black" points="2978.81,-122 2975.81,-126 2954.81,-126 2951.81,-122 2841.19,-122 2841.19,-86 2978.81,-86 2978.81,-122"/>
<text text-anchor="middle" x="2910" y="-99.8" font-family="Times,serif" font-size="14.00">AuthorizationModule</text>
</g>
<!-- AuthorizationModule&#45;&gt;UserLoginMigrationApiModule -->
<g id="edge2" class="edge">
<title>AuthorizationModule&#45;&gt;UserLoginMigrationApiModule</title>
<path fill="none" stroke="black" d="M2910,-122.29C2910,-144.21 2910,-178 2910,-178 2910,-178 2090.43,-178 2090.43,-178"/>
<polygon fill="black" stroke="black" points="2090.43,-174.5 2080.43,-178 2090.43,-181.5 2090.43,-174.5"/>
</g>
<!-- ImportUserModule -->
<g id="node3" class="node">
<title>ImportUserModule</title>
<polygon fill="#8dd3c7" stroke="black" points="2823.08,-122 2820.08,-126 2799.08,-126 2796.08,-122 2698.92,-122 2698.92,-86 2823.08,-86 2823.08,-122"/>
<text text-anchor="middle" x="2761" y="-99.8" font-family="Times,serif" font-size="14.00">ImportUserModule</text>
</g>
<!-- ImportUserModule&#45;&gt;UserLoginMigrationApiModule -->
<g id="edge3" class="edge">
<title>ImportUserModule&#45;&gt;UserLoginMigrationApiModule</title>
<path fill="none" stroke="black" d="M2761,-122.03C2761,-142.77 2761,-174 2761,-174 2761,-174 2090.27,-174 2090.27,-174"/>
<polygon fill="black" stroke="black" points="2090.27,-170.5 2080.27,-174 2090.27,-177.5 2090.27,-170.5"/>
</g>
<!-- LegacySchoolModule -->
<g id="node4" class="node">
<title>LegacySchoolModule</title>
<polygon fill="#8dd3c7" stroke="black" points="2680.63,-122 2677.63,-126 2656.63,-126 2653.63,-122 2541.37,-122 2541.37,-86 2680.63,-86 2680.63,-122"/>
<text text-anchor="middle" x="2611" y="-99.8" font-family="Times,serif" font-size="14.00">LegacySchoolModule</text>
</g>
<!-- LegacySchoolModule&#45;&gt;UserLoginMigrationApiModule -->
<g id="edge4" class="edge">
<title>LegacySchoolModule&#45;&gt;UserLoginMigrationApiModule</title>
<path fill="none" stroke="black" d="M2611,-122.11C2611,-141.34 2611,-169 2611,-169 2611,-169 2090.28,-169 2090.28,-169"/>
<polygon fill="black" stroke="black" points="2090.28,-165.5 2080.28,-169 2090.28,-172.5 2090.28,-165.5"/>
</g>
<!-- LoggerModule -->
<g id="node5" class="node">
<title>LoggerModule</title>
<polygon fill="#8dd3c7" stroke="black" points="2522.98,-122 2519.98,-126 2498.98,-126 2495.98,-122 2423.02,-122 2423.02,-86 2522.98,-86 2522.98,-122"/>
<text text-anchor="middle" x="2473" y="-99.8" font-family="Times,serif" font-size="14.00">LoggerModule</text>
</g>
<!-- LoggerModule&#45;&gt;UserLoginMigrationApiModule -->
<g id="edge5" class="edge">
<title>LoggerModule&#45;&gt;UserLoginMigrationApiModule</title>
<path fill="none" stroke="black" d="M2473,-122.3C2473,-140.27 2473,-165 2473,-165 2473,-165 2090.48,-165 2090.48,-165"/>
<polygon fill="black" stroke="black" points="2090.48,-161.5 2080.48,-165 2090.48,-168.5 2090.48,-161.5"/>
</g>
<!-- OauthModule -->
<g id="node6" class="node">
<title>OauthModule</title>
<polygon fill="#8dd3c7" stroke="black" points="2404.76,-122 2401.76,-126 2380.76,-126 2377.76,-122 2311.24,-122 2311.24,-86 2404.76,-86 2404.76,-122"/>
<text text-anchor="middle" x="2358" y="-99.8" font-family="Times,serif" font-size="14.00">OauthModule</text>
</g>
<!-- OauthModule&#45;&gt;UserLoginMigrationApiModule -->
<g id="edge6" class="edge">
<title>OauthModule&#45;&gt;UserLoginMigrationApiModule</title>
<path fill="none" stroke="black" d="M2358,-122.03C2358,-138.4 2358,-160 2358,-160 2358,-160 2090.3,-160 2090.3,-160"/>
<polygon fill="black" stroke="black" points="2090.3,-156.5 2080.3,-160 2090.3,-163.5 2090.3,-156.5"/>
</g>
<!-- ProvisioningModule -->
<g id="node7" class="node">
<title>ProvisioningModule</title>
<polygon fill="#8dd3c7" stroke="black" points="2293.61,-122 2290.61,-126 2269.61,-126 2266.61,-122 2162.39,-122 2162.39,-86 2293.61,-86 2293.61,-122"/>
<text text-anchor="middle" x="2228" y="-99.8" font-family="Times,serif" font-size="14.00">ProvisioningModule</text>
</g>
<!-- ProvisioningModule&#45;&gt;UserLoginMigrationApiModule -->
<g id="edge7" class="edge">
<title>ProvisioningModule&#45;&gt;UserLoginMigrationApiModule</title>
<path fill="none" stroke="black" d="M2228,-122.19C2228,-137.18 2228,-156 2228,-156 2228,-156 2090.29,-156 2090.29,-156"/>
<polygon fill="black" stroke="black" points="2090.29,-152.5 2080.29,-156 2090.29,-159.5 2090.29,-152.5"/>
</g>
<!-- UserLoginMigrationModule -->
<g id="node8" class="node">
<title>UserLoginMigrationModule</title>
<polygon fill="#8dd3c7" stroke="black" points="2144.91,-122 2141.91,-126 2120.91,-126 2117.91,-122 1969.09,-122 1969.09,-86 2144.91,-86 2144.91,-122"/>
<text text-anchor="middle" x="2057" y="-99.8" font-family="Times,serif" font-size="14.00">UserLoginMigrationModule</text>
</g>
<!-- UserLoginMigrationModule&#45;&gt;UserLoginMigrationApiModule -->
<g id="edge8" class="edge">
<title>UserLoginMigrationModule&#45;&gt;UserLoginMigrationApiModule</title>
<path fill="none" stroke="black" d="M2024.75,-122.11C2024.75,-122.11 2024.75,-140.99 2024.75,-140.99"/>
<polygon fill="black" stroke="black" points="2021.25,-140.99 2024.75,-150.99 2028.25,-140.99 2021.25,-140.99"/>
</g>
<!-- UserModule -->
<g id="node9" class="node">
<title>UserModule</title>
<polygon fill="#8dd3c7" stroke="black" points="1950.98,-122 1947.98,-126 1926.98,-126 1923.98,-122 1865.02,-122 1865.02,-86 1950.98,-86 1950.98,-122"/>
<text text-anchor="middle" x="1908" y="-99.8" font-family="Times,serif" font-size="14.00">UserModule</text>
</g>
<!-- UserModule&#45;&gt;UserLoginMigrationApiModule -->
<g id="edge9" class="edge">
<title>UserModule&#45;&gt;UserLoginMigrationApiModule</title>
<path fill="none" stroke="black" d="M1917.39,-122.11C1917.39,-122.11 1917.39,-140.99 1917.39,-140.99"/>
<polygon fill="black" stroke="black" points="1913.89,-140.99 1917.39,-150.99 1920.89,-140.99 1913.89,-140.99"/>
</g>
<!-- CloseMigrationWizardUc -->
<g id="node11" class="node">
<title>CloseMigrationWizardUc</title>
<ellipse fill="#fdb462" stroke="black" cx="1730" cy="-104" rx="111.15" ry="18"/>
<text text-anchor="middle" x="1730" y="-99.8" font-family="Times,serif" font-size="14.00">CloseMigrationWizardUc</text>
</g>
<!-- CloseMigrationWizardUc&#45;&gt;UserLoginMigrationApiModule -->
<g id="edge10" class="edge">
<title>CloseMigrationWizardUc&#45;&gt;UserLoginMigrationApiModule</title>
<path fill="none" stroke="black" d="M1730,-122.19C1730,-137.18 1730,-156 1730,-156 1730,-156 1873.49,-156 1873.49,-156"/>
<polygon fill="black" stroke="black" points="1873.49,-159.5 1883.49,-156 1873.49,-152.5 1873.49,-159.5"/>
</g>
<!-- CloseUserLoginMigrationUc -->
<g id="node12" class="node">
<title>CloseUserLoginMigrationUc</title>
<ellipse fill="#fdb462" stroke="black" cx="1476" cy="-104" rx="124.42" ry="18"/>
<text text-anchor="middle" x="1476" y="-99.8" font-family="Times,serif" font-size="14.00">CloseUserLoginMigrationUc</text>
</g>
<!-- CloseUserLoginMigrationUc&#45;&gt;UserLoginMigrationApiModule -->
<g id="edge11" class="edge">
<title>CloseUserLoginMigrationUc&#45;&gt;UserLoginMigrationApiModule</title>
<path fill="none" stroke="black" d="M1476,-122.03C1476,-138.4 1476,-160 1476,-160 1476,-160 1873.54,-160 1873.54,-160"/>
<polygon fill="black" stroke="black" points="1873.54,-163.5 1883.54,-160 1873.54,-156.5 1873.54,-163.5"/>
</g>
<!-- RestartUserLoginMigrationUc -->
<g id="node13" class="node">
<title>RestartUserLoginMigrationUc</title>
<ellipse fill="#fdb462" stroke="black" cx="1204" cy="-104" rx="129.63" ry="18"/>
<text text-anchor="middle" x="1204" y="-99.8" font-family="Times,serif" font-size="14.00">RestartUserLoginMigrationUc</text>
</g>
<!-- RestartUserLoginMigrationUc&#45;&gt;UserLoginMigrationApiModule -->
<g id="edge12" class="edge">
<title>RestartUserLoginMigrationUc&#45;&gt;UserLoginMigrationApiModule</title>
<path fill="none" stroke="black" d="M1204,-122.3C1204,-140.27 1204,-165 1204,-165 1204,-165 1873.47,-165 1873.47,-165"/>
<polygon fill="black" stroke="black" points="1873.47,-168.5 1883.47,-165 1873.47,-161.5 1873.47,-168.5"/>
</g>
<!-- StartUserLoginMigrationUc -->
<g id="node14" class="node">
<title>StartUserLoginMigrationUc</title>
<ellipse fill="#fdb462" stroke="black" cx="936" cy="-104" rx="120.4" ry="18"/>
<text text-anchor="middle" x="936" y="-99.8" font-family="Times,serif" font-size="14.00">StartUserLoginMigrationUc</text>
</g>
<!-- StartUserLoginMigrationUc&#45;&gt;UserLoginMigrationApiModule -->
<g id="edge13" class="edge">
<title>StartUserLoginMigrationUc&#45;&gt;UserLoginMigrationApiModule</title>
<path fill="none" stroke="black" d="M936,-122.11C936,-141.34 936,-169 936,-169 936,-169 1873.59,-169 1873.59,-169"/>
<polygon fill="black" stroke="black" points="1873.59,-172.5 1883.59,-169 1873.59,-165.5 1873.59,-172.5"/>
</g>
<!-- ToggleUserLoginMigrationUc -->
<g id="node15" class="node">
<title>ToggleUserLoginMigrationUc</title>
<ellipse fill="#fdb462" stroke="black" cx="668" cy="-104" rx="129.64" ry="18"/>
<text text-anchor="middle" x="668" y="-99.8" font-family="Times,serif" font-size="14.00">ToggleUserLoginMigrationUc</text>
</g>
<!-- ToggleUserLoginMigrationUc&#45;&gt;UserLoginMigrationApiModule -->
<g id="edge14" class="edge">
<title>ToggleUserLoginMigrationUc&#45;&gt;UserLoginMigrationApiModule</title>
<path fill="none" stroke="black" d="M668,-122.03C668,-142.77 668,-174 668,-174 668,-174 1873.77,-174 1873.77,-174"/>
<polygon fill="black" stroke="black" points="1873.77,-177.5 1883.77,-174 1873.77,-170.5 1873.77,-177.5"/>
</g>
<!-- UserLoginMigrationRollbackUc -->
<g id="node16" class="node">
<title>UserLoginMigrationRollbackUc</title>
<ellipse fill="#fdb462" stroke="black" cx="383" cy="-104" rx="137.16" ry="18"/>
<text text-anchor="middle" x="383" y="-99.8" font-family="Times,serif" font-size="14.00">UserLoginMigrationRollbackUc</text>
</g>
<!-- UserLoginMigrationRollbackUc&#45;&gt;UserLoginMigrationApiModule -->
<g id="edge15" class="edge">
<title>UserLoginMigrationRollbackUc&#45;&gt;UserLoginMigrationApiModule</title>
<path fill="none" stroke="black" d="M383,-122.29C383,-144.21 383,-178 383,-178 383,-178 1873.78,-178 1873.78,-178"/>
<polygon fill="black" stroke="black" points="1873.78,-181.5 1883.78,-178 1873.78,-174.5 1873.78,-181.5"/>
</g>
<!-- UserLoginMigrationUc -->
<g id="node17" class="node">
<title>UserLoginMigrationUc</title>
<ellipse fill="#fdb462" stroke="black" cx="126" cy="-104" rx="102.43" ry="18"/>
<text text-anchor="middle" x="126" y="-99.8" font-family="Times,serif" font-size="14.00">UserLoginMigrationUc</text>
</g>
<!-- UserLoginMigrationUc&#45;&gt;UserLoginMigrationApiModule -->
<g id="edge16" class="edge">
<title>UserLoginMigrationUc&#45;&gt;UserLoginMigrationApiModule</title>
<path fill="none" stroke="black" d="M126,-122.32C126,-145.66 126,-183 126,-183 126,-183 1873.52,-183 1873.52,-183"/>
<polygon fill="black" stroke="black" points="1873.52,-186.5 1883.52,-183 1873.52,-179.5 1873.52,-186.5"/>
</g>
</g>
</svg>
