<?xml version="1.0" encoding="UTF-8" standalone="no"?>
<!DOCTYPE svg PUBLIC "-//W3C//DTD SVG 1.1//EN"
 "http://www.w3.org/Graphics/SVG/1.1/DTD/svg11.dtd">
<!-- Generated by graphviz version 2.47.0 (20210316.0004)
 -->
<!-- Title: dependencies Pages: 1 -->
<svg width="2550pt" height="211pt"
 viewBox="0.00 0.00 2550.00 211.00" xmlns="http://www.w3.org/2000/svg" xmlns:xlink="http://www.w3.org/1999/xlink">
<g id="graph0" class="graph" transform="scale(1 1) rotate(0) translate(4 207)">
<title>dependencies</title>
<polygon fill="white" stroke="transparent" points="-4,4 -4,-207 2546,-207 2546,4 -4,4"/>
<text text-anchor="start" x="1250.01" y="-42.4" font-family="Times-12" font-weight="bold" font-size="14.00">Legend</text>
<polygon fill="#ffffb3" stroke="transparent" points="1037,-10 1037,-30 1057,-30 1057,-10 1037,-10"/>
<text text-anchor="start" x="1060.63" y="-15.4" font-family="Times-12" font-size="14.00"> &#160;Declarations</text>
<polygon fill="#8dd3c7" stroke="transparent" points="1150,-10 1150,-30 1170,-30 1170,-10 1150,-10"/>
<text text-anchor="start" x="1173.73" y="-15.4" font-family="Times-12" font-size="14.00"> &#160;Module</text>
<polygon fill="#80b1d3" stroke="transparent" points="1236,-10 1236,-30 1256,-30 1256,-10 1236,-10"/>
<text text-anchor="start" x="1259.78" y="-15.4" font-family="Times-12" font-size="14.00"> &#160;Bootstrap</text>
<polygon fill="#fdb462" stroke="transparent" points="1333,-10 1333,-30 1353,-30 1353,-10 1333,-10"/>
<text text-anchor="start" x="1356.67" y="-15.4" font-family="Times-12" font-size="14.00"> &#160;Providers</text>
<polygon fill="#fb8072" stroke="transparent" points="1429,-10 1429,-30 1449,-30 1449,-10 1429,-10"/>
<text text-anchor="start" x="1452.73" y="-15.4" font-family="Times-12" font-size="14.00"> &#160;Exports</text>
<g id="clust1" class="cluster">
<title>cluster_UserLoginMigrationApiModule</title>
<polygon fill="none" stroke="black" stroke-dasharray="1,5" points="8,-70 8,-195 2534,-195 2534,-70 8,-70"/>
</g>
<g id="clust6" class="cluster">
<title>cluster_UserLoginMigrationApiModule_providers</title>
<polygon fill="none" stroke="black" points="1027,-78 1027,-130 2526,-130 2526,-78 1027,-78"/>
</g>
<g id="clust3" class="cluster">
<title>cluster_UserLoginMigrationApiModule_imports</title>
<polygon fill="none" stroke="black" points="16,-78 16,-130 1019,-130 1019,-78 16,-78"/>
</g>
<!-- AuthenticationModule -->
<g id="node1" class="node">
<title>AuthenticationModule</title>
<polygon fill="#8dd3c7" stroke="black" points="1011.25,-122 1008.25,-126 987.25,-126 984.25,-122 868.75,-122 868.75,-86 1011.25,-86 1011.25,-122"/>
<text text-anchor="middle" x="940" y="-99.8" font-family="Times,serif" font-size="14.00">AuthenticationModule</text>
</g>
<!-- UserLoginMigrationApiModule -->
<g id="node8" class="node">
<title>UserLoginMigrationApiModule</title>
<polygon fill="#8dd3c7" stroke="black" points="1038.41,-187 1035.41,-191 1014.41,-191 1011.41,-187 841.59,-187 841.59,-151 1038.41,-151 1038.41,-187"/>
<text text-anchor="middle" x="940" y="-164.8" font-family="Times,serif" font-size="14.00">UserLoginMigrationApiModule</text>
</g>
<!-- AuthenticationModule&#45;&gt;UserLoginMigrationApiModule -->
<g id="edge1" class="edge">
<title>AuthenticationModule&#45;&gt;UserLoginMigrationApiModule</title>
<path fill="none" stroke="black" d="M940,-122.11C940,-122.11 940,-140.99 940,-140.99"/>
<polygon fill="black" stroke="black" points="936.5,-140.99 940,-150.99 943.5,-140.99 936.5,-140.99"/>
</g>
<!-- AuthorizationModule -->
<g id="node2" class="node">
<title>AuthorizationModule</title>
<polygon fill="#8dd3c7" stroke="black" points="850.81,-122 847.81,-126 826.81,-126 823.81,-122 713.19,-122 713.19,-86 850.81,-86 850.81,-122"/>
<text text-anchor="middle" x="782" y="-99.8" font-family="Times,serif" font-size="14.00">AuthorizationModule</text>
</g>
<!-- AuthorizationModule&#45;&gt;UserLoginMigrationApiModule -->
<g id="edge2" class="edge">
<title>AuthorizationModule&#45;&gt;UserLoginMigrationApiModule</title>
<path fill="none" stroke="black" d="M846.23,-122.11C846.23,-122.11 846.23,-140.99 846.23,-140.99"/>
<polygon fill="black" stroke="black" points="842.73,-140.99 846.23,-150.99 849.73,-140.99 842.73,-140.99"/>
</g>
<!-- LoggerModule -->
<g id="node3" class="node">
<title>LoggerModule</title>
<polygon fill="#8dd3c7" stroke="black" points="694.98,-122 691.98,-126 670.98,-126 667.98,-122 595.02,-122 595.02,-86 694.98,-86 694.98,-122"/>
<text text-anchor="middle" x="645" y="-99.8" font-family="Times,serif" font-size="14.00">LoggerModule</text>
</g>
<!-- LoggerModule&#45;&gt;UserLoginMigrationApiModule -->
<g id="edge3" class="edge">
<title>LoggerModule&#45;&gt;UserLoginMigrationApiModule</title>
<path fill="none" stroke="black" d="M645,-122.24C645,-137.57 645,-157 645,-157 645,-157 831.77,-157 831.77,-157"/>
<polygon fill="black" stroke="black" points="831.77,-160.5 841.77,-157 831.77,-153.5 831.77,-160.5"/>
</g>
<!-- OauthModule -->
<g id="node4" class="node">
<title>OauthModule</title>
<polygon fill="#8dd3c7" stroke="black" points="576.76,-122 573.76,-126 552.76,-126 549.76,-122 483.24,-122 483.24,-86 576.76,-86 576.76,-122"/>
<text text-anchor="middle" x="530" y="-99.8" font-family="Times,serif" font-size="14.00">OauthModule</text>
</g>
<!-- OauthModule&#45;&gt;UserLoginMigrationApiModule -->
<g id="edge4" class="edge">
<title>OauthModule&#45;&gt;UserLoginMigrationApiModule</title>
<path fill="none" stroke="black" d="M530,-122.02C530,-139.37 530,-163 530,-163 530,-163 831.79,-163 831.79,-163"/>
<polygon fill="black" stroke="black" points="831.79,-166.5 841.79,-163 831.79,-159.5 831.79,-166.5"/>
</g>
<!-- ProvisioningModule -->
<g id="node5" class="node">
<title>ProvisioningModule</title>
<polygon fill="#8dd3c7" stroke="black" points="465.61,-122 462.61,-126 441.61,-126 438.61,-122 334.39,-122 334.39,-86 465.61,-86 465.61,-122"/>
<text text-anchor="middle" x="400" y="-99.8" font-family="Times,serif" font-size="14.00">ProvisioningModule</text>
</g>
<!-- ProvisioningModule&#45;&gt;UserLoginMigrationApiModule -->
<g id="edge5" class="edge">
<title>ProvisioningModule&#45;&gt;UserLoginMigrationApiModule</title>
<path fill="none" stroke="black" d="M400,-122.11C400,-141.34 400,-169 400,-169 400,-169 831.58,-169 831.58,-169"/>
<polygon fill="black" stroke="black" points="831.58,-172.5 841.58,-169 831.58,-165.5 831.58,-172.5"/>
</g>
<!-- SchoolModule -->
<g id="node6" class="node">
<title>SchoolModule</title>
<polygon fill="#8dd3c7" stroke="black" points="316.44,-122 313.44,-126 292.44,-126 289.44,-122 217.56,-122 217.56,-86 316.44,-86 316.44,-122"/>
<text text-anchor="middle" x="267" y="-99.8" font-family="Times,serif" font-size="14.00">SchoolModule</text>
</g>
<!-- SchoolModule&#45;&gt;UserLoginMigrationApiModule -->
<g id="edge6" class="edge">
<title>SchoolModule&#45;&gt;UserLoginMigrationApiModule</title>
<path fill="none" stroke="black" d="M267,-122.28C267,-143.32 267,-175 267,-175 267,-175 831.78,-175 831.78,-175"/>
<polygon fill="black" stroke="black" points="831.78,-178.5 841.78,-175 831.78,-171.5 831.78,-178.5"/>
</g>
<!-- UserLoginMigrationModule -->
<g id="node7" class="node">
<title>UserLoginMigrationModule</title>
<polygon fill="#8dd3c7" stroke="black" points="199.91,-122 196.91,-126 175.91,-126 172.91,-122 24.09,-122 24.09,-86 199.91,-86 199.91,-122"/>
<text text-anchor="middle" x="112" y="-99.8" font-family="Times,serif" font-size="14.00">UserLoginMigrationModule</text>
</g>
<!-- UserLoginMigrationModule&#45;&gt;UserLoginMigrationApiModule -->
<g id="edge7" class="edge">
<title>UserLoginMigrationModule&#45;&gt;UserLoginMigrationApiModule</title>
<path fill="none" stroke="black" d="M112,-122.09C112,-145.13 112,-182 112,-182 112,-182 831.77,-182 831.77,-182"/>
<polygon fill="black" stroke="black" points="831.77,-185.5 841.77,-182 831.77,-178.5 831.77,-185.5"/>
</g>
<!-- CloseUserLoginMigrationUc -->
<g id="node9" class="node">
<title>CloseUserLoginMigrationUc</title>
<ellipse fill="#fdb462" stroke="black" cx="2394" cy="-104" rx="124.42" ry="18"/>
<text text-anchor="middle" x="2394" y="-99.8" font-family="Times,serif" font-size="14.00">CloseUserLoginMigrationUc</text>
</g>
<!-- CloseUserLoginMigrationUc&#45;&gt;UserLoginMigrationApiModule -->
<g id="edge8" class="edge">
<title>CloseUserLoginMigrationUc&#45;&gt;UserLoginMigrationApiModule</title>
<path fill="none" stroke="black" d="M2394,-122.09C2394,-145.13 2394,-182 2394,-182 2394,-182 1048.23,-182 1048.23,-182"/>
<polygon fill="black" stroke="black" points="1048.23,-178.5 1038.23,-182 1048.23,-185.5 1048.23,-178.5"/>
</g>
<!-- PageContentMapper -->
<g id="node10" class="node">
<title>PageContentMapper</title>
<ellipse fill="#fdb462" stroke="black" cx="2161" cy="-104" rx="90.33" ry="18"/>
<text text-anchor="middle" x="2161" y="-99.8" font-family="Times,serif" font-size="14.00">PageContentMapper</text>
</g>
<!-- PageContentMapper&#45;&gt;UserLoginMigrationApiModule -->
<g id="edge9" class="edge">
<title>PageContentMapper&#45;&gt;UserLoginMigrationApiModule</title>
<path fill="none" stroke="black" d="M2161,-122.28C2161,-143.32 2161,-175 2161,-175 2161,-175 1048.37,-175 1048.37,-175"/>
<polygon fill="black" stroke="black" points="1048.37,-171.5 1038.37,-175 1048.37,-178.5 1048.37,-171.5"/>
</g>
<!-- RestartUserLoginMigrationUc -->
<g id="node11" class="node">
<title>RestartUserLoginMigrationUc</title>
<ellipse fill="#fdb462" stroke="black" cx="1923" cy="-104" rx="129.63" ry="18"/>
<text text-anchor="middle" x="1923" y="-99.8" font-family="Times,serif" font-size="14.00">RestartUserLoginMigrationUc</text>
</g>
<!-- RestartUserLoginMigrationUc&#45;&gt;UserLoginMigrationApiModule -->
<g id="edge10" class="edge">
<title>RestartUserLoginMigrationUc&#45;&gt;UserLoginMigrationApiModule</title>
<path fill="none" stroke="black" d="M1923,-122.11C1923,-141.34 1923,-169 1923,-169 1923,-169 1048.3,-169 1048.3,-169"/>
<polygon fill="black" stroke="black" points="1048.3,-165.5 1038.3,-169 1048.3,-172.5 1048.3,-165.5"/>
</g>
<!-- StartUserLoginMigrationUc -->
<g id="node12" class="node">
<title>StartUserLoginMigrationUc</title>
<ellipse fill="#fdb462" stroke="black" cx="1655" cy="-104" rx="120.4" ry="18"/>
<text text-anchor="middle" x="1655" y="-99.8" font-family="Times,serif" font-size="14.00">StartUserLoginMigrationUc</text>
</g>
<!-- StartUserLoginMigrationUc&#45;&gt;UserLoginMigrationApiModule -->
<g id="edge11" class="edge">
<title>StartUserLoginMigrationUc&#45;&gt;UserLoginMigrationApiModule</title>
<path fill="none" stroke="black" d="M1655,-122.02C1655,-139.37 1655,-163 1655,-163 1655,-163 1048.29,-163 1048.29,-163"/>
<polygon fill="black" stroke="black" points="1048.29,-159.5 1038.29,-163 1048.29,-166.5 1048.29,-159.5"/>
</g>
<!-- ToggleUserLoginMigrationUc -->
<g id="node13" class="node">
<title>ToggleUserLoginMigrationUc</title>
<ellipse fill="#fdb462" stroke="black" cx="1387" cy="-104" rx="129.64" ry="18"/>
<text text-anchor="middle" x="1387" y="-99.8" font-family="Times,serif" font-size="14.00">ToggleUserLoginMigrationUc</text>
</g>
<!-- ToggleUserLoginMigrationUc&#45;&gt;UserLoginMigrationApiModule -->
<g id="edge12" class="edge">
<title>ToggleUserLoginMigrationUc&#45;&gt;UserLoginMigrationApiModule</title>
<path fill="none" stroke="black" d="M1387,-122.24C1387,-137.57 1387,-157 1387,-157 1387,-157 1048.37,-157 1048.37,-157"/>
<polygon fill="black" stroke="black" points="1048.37,-153.5 1038.37,-157 1048.37,-160.5 1048.37,-153.5"/>
</g>
<!-- UserLoginMigrationUc -->
<g id="node14" class="node">
<title>UserLoginMigrationUc</title>
<ellipse fill="#fdb462" stroke="black" cx="1137" cy="-104" rx="102.43" ry="18"/>
<text text-anchor="middle" x="1137" y="-99.8" font-family="Times,serif" font-size="14.00">UserLoginMigrationUc</text>
</g>
<!-- UserLoginMigrationUc&#45;&gt;UserLoginMigrationApiModule -->
<g id="edge13" class="edge">
<title>UserLoginMigrationUc&#45;&gt;UserLoginMigrationApiModule</title>
<path fill="none" stroke="black" d="M1034.42,-104C1027.43,-104 1023.08,-104 1023.08,-104 1023.08,-104 1023.08,-140.89 1023.08,-140.89"/>
<polygon fill="black" stroke="black" points="1019.58,-140.89 1023.08,-150.89 1026.58,-140.89 1019.58,-140.89"/>
</g>
</g>
</svg>
