<?xml version="1.0" encoding="UTF-8" standalone="no"?>
<!DOCTYPE svg PUBLIC "-//W3C//DTD SVG 1.1//EN"
 "http://www.w3.org/Graphics/SVG/1.1/DTD/svg11.dtd">
<!-- Generated by graphviz version 2.47.0 (20210316.0004)
 -->
<!-- Title: dependencies Pages: 1 -->
<svg width="3067pt" height="211pt"
 viewBox="0.00 0.00 3067.00 211.00" xmlns="http://www.w3.org/2000/svg" xmlns:xlink="http://www.w3.org/1999/xlink">
<g id="graph0" class="graph" transform="scale(1 1) rotate(0) translate(4 207)">
<title>dependencies</title>
<polygon fill="white" stroke="transparent" points="-4,4 -4,-207 3063,-207 3063,4 -4,4"/>
<text text-anchor="start" x="1508.51" y="-42.4" font-family="Times-12" font-weight="bold" font-size="14.00">Legend</text>
<polygon fill="#ffffb3" stroke="transparent" points="1295.5,-10 1295.5,-30 1315.5,-30 1315.5,-10 1295.5,-10"/>
<text text-anchor="start" x="1319.13" y="-15.4" font-family="Times-12" font-size="14.00"> &#160;Declarations</text>
<polygon fill="#8dd3c7" stroke="transparent" points="1408.5,-10 1408.5,-30 1428.5,-30 1428.5,-10 1408.5,-10"/>
<text text-anchor="start" x="1432.23" y="-15.4" font-family="Times-12" font-size="14.00"> &#160;Module</text>
<polygon fill="#80b1d3" stroke="transparent" points="1494.5,-10 1494.5,-30 1514.5,-30 1514.5,-10 1494.5,-10"/>
<text text-anchor="start" x="1518.28" y="-15.4" font-family="Times-12" font-size="14.00"> &#160;Bootstrap</text>
<polygon fill="#fdb462" stroke="transparent" points="1591.5,-10 1591.5,-30 1611.5,-30 1611.5,-10 1591.5,-10"/>
<text text-anchor="start" x="1615.17" y="-15.4" font-family="Times-12" font-size="14.00"> &#160;Providers</text>
<polygon fill="#fb8072" stroke="transparent" points="1687.5,-10 1687.5,-30 1707.5,-30 1707.5,-10 1687.5,-10"/>
<text text-anchor="start" x="1711.23" y="-15.4" font-family="Times-12" font-size="14.00"> &#160;Exports</text>
<g id="clust1" class="cluster">
<title>cluster_UserLoginMigrationApiModule</title>
<polygon fill="none" stroke="black" stroke-dasharray="1,5" points="8,-70 8,-195 3051,-195 3051,-70 8,-70"/>
</g>
<g id="clust3" class="cluster">
<title>cluster_UserLoginMigrationApiModule_imports</title>
<polygon fill="none" stroke="black" points="1857,-78 1857,-130 3043,-130 3043,-78 1857,-78"/>
</g>
<g id="clust6" class="cluster">
<title>cluster_UserLoginMigrationApiModule_providers</title>
<polygon fill="none" stroke="black" points="16,-78 16,-130 1849,-130 1849,-78 16,-78"/>
</g>
<!-- AuthenticationModule -->
<g id="node1" class="node">
<title>AuthenticationModule</title>
<polygon fill="#8dd3c7" stroke="black" points="3035.25,-122 3032.25,-126 3011.25,-126 3008.25,-122 2892.75,-122 2892.75,-86 3035.25,-86 3035.25,-122"/>
<text text-anchor="middle" x="2964" y="-99.8" font-family="Times,serif" font-size="14.00">AuthenticationModule</text>
</g>
<!-- UserLoginMigrationApiModule -->
<g id="node9" class="node">
<title>UserLoginMigrationApiModule</title>
<polygon fill="#8dd3c7" stroke="black" points="2051.41,-187 2048.41,-191 2027.41,-191 2024.41,-187 1854.59,-187 1854.59,-151 2051.41,-151 2051.41,-187"/>
<text text-anchor="middle" x="1953" y="-164.8" font-family="Times,serif" font-size="14.00">UserLoginMigrationApiModule</text>
</g>
<!-- AuthenticationModule&#45;&gt;UserLoginMigrationApiModule -->
<g id="edge1" class="edge">
<title>AuthenticationModule&#45;&gt;UserLoginMigrationApiModule</title>
<path fill="none" stroke="black" d="M2964,-122.09C2964,-145.13 2964,-182 2964,-182 2964,-182 2061.32,-182 2061.32,-182"/>
<polygon fill="black" stroke="black" points="2061.32,-178.5 2051.32,-182 2061.32,-185.5 2061.32,-178.5"/>
</g>
<!-- AuthorizationModule -->
<g id="node2" class="node">
<title>AuthorizationModule</title>
<polygon fill="#8dd3c7" stroke="black" points="2874.81,-122 2871.81,-126 2850.81,-126 2847.81,-122 2737.19,-122 2737.19,-86 2874.81,-86 2874.81,-122"/>
<text text-anchor="middle" x="2806" y="-99.8" font-family="Times,serif" font-size="14.00">AuthorizationModule</text>
</g>
<!-- AuthorizationModule&#45;&gt;UserLoginMigrationApiModule -->
<g id="edge2" class="edge">
<title>AuthorizationModule&#45;&gt;UserLoginMigrationApiModule</title>
<path fill="none" stroke="black" d="M2806,-122.04C2806,-143.66 2806,-177 2806,-177 2806,-177 2061.27,-177 2061.27,-177"/>
<polygon fill="black" stroke="black" points="2061.27,-173.5 2051.27,-177 2061.27,-180.5 2061.27,-173.5"/>
</g>
<!-- ImportUserModule -->
<g id="node3" class="node">
<title>ImportUserModule</title>
<polygon fill="#8dd3c7" stroke="black" points="2719.08,-122 2716.08,-126 2695.08,-126 2692.08,-122 2594.92,-122 2594.92,-86 2719.08,-86 2719.08,-122"/>
<text text-anchor="middle" x="2657" y="-99.8" font-family="Times,serif" font-size="14.00">ImportUserModule</text>
</g>
<!-- ImportUserModule&#45;&gt;UserLoginMigrationApiModule -->
<g id="edge3" class="edge">
<title>ImportUserModule&#45;&gt;UserLoginMigrationApiModule</title>
<path fill="none" stroke="black" d="M2657,-122.22C2657,-142.37 2657,-172 2657,-172 2657,-172 2061.26,-172 2061.26,-172"/>
<polygon fill="black" stroke="black" points="2061.26,-168.5 2051.26,-172 2061.26,-175.5 2061.26,-168.5"/>
</g>
<!-- LegacySchoolModule -->
<g id="node4" class="node">
<title>LegacySchoolModule</title>
<polygon fill="#8dd3c7" stroke="black" points="2576.63,-122 2573.63,-126 2552.63,-126 2549.63,-122 2437.37,-122 2437.37,-86 2576.63,-86 2576.63,-122"/>
<text text-anchor="middle" x="2507" y="-99.8" font-family="Times,serif" font-size="14.00">LegacySchoolModule</text>
</g>
<!-- LegacySchoolModule&#45;&gt;UserLoginMigrationApiModule -->
<g id="edge4" class="edge">
<title>LegacySchoolModule&#45;&gt;UserLoginMigrationApiModule</title>
<path fill="none" stroke="black" d="M2507,-122.22C2507,-140.83 2507,-167 2507,-167 2507,-167 2061.41,-167 2061.41,-167"/>
<polygon fill="black" stroke="black" points="2061.41,-163.5 2051.41,-167 2061.41,-170.5 2061.41,-163.5"/>
</g>
<!-- LoggerModule -->
<g id="node5" class="node">
<title>LoggerModule</title>
<polygon fill="#8dd3c7" stroke="black" points="2418.98,-122 2415.98,-126 2394.98,-126 2391.98,-122 2319.02,-122 2319.02,-86 2418.98,-86 2418.98,-122"/>
<text text-anchor="middle" x="2369" y="-99.8" font-family="Times,serif" font-size="14.00">LoggerModule</text>
</g>
<!-- LoggerModule&#45;&gt;UserLoginMigrationApiModule -->
<g id="edge5" class="edge">
<title>LoggerModule&#45;&gt;UserLoginMigrationApiModule</title>
<path fill="none" stroke="black" d="M2369,-122.03C2369,-139.06 2369,-162 2369,-162 2369,-162 2061.32,-162 2061.32,-162"/>
<polygon fill="black" stroke="black" points="2061.32,-158.5 2051.32,-162 2061.32,-165.5 2061.32,-158.5"/>
</g>
<!-- OauthModule -->
<g id="node6" class="node">
<title>OauthModule</title>
<polygon fill="#8dd3c7" stroke="black" points="2300.76,-122 2297.76,-126 2276.76,-126 2273.76,-122 2207.24,-122 2207.24,-86 2300.76,-86 2300.76,-122"/>
<text text-anchor="middle" x="2254" y="-99.8" font-family="Times,serif" font-size="14.00">OauthModule</text>
</g>
<!-- OauthModule&#45;&gt;UserLoginMigrationApiModule -->
<g id="edge6" class="edge">
<title>OauthModule&#45;&gt;UserLoginMigrationApiModule</title>
<path fill="none" stroke="black" d="M2254,-122.24C2254,-137.57 2254,-157 2254,-157 2254,-157 2061.56,-157 2061.56,-157"/>
<polygon fill="black" stroke="black" points="2061.56,-153.5 2051.56,-157 2061.56,-160.5 2061.56,-153.5"/>
</g>
<!-- ProvisioningModule -->
<g id="node7" class="node">
<title>ProvisioningModule</title>
<polygon fill="#8dd3c7" stroke="black" points="2189.61,-122 2186.61,-126 2165.61,-126 2162.61,-122 2058.39,-122 2058.39,-86 2189.61,-86 2189.61,-122"/>
<text text-anchor="middle" x="2124" y="-99.8" font-family="Times,serif" font-size="14.00">ProvisioningModule</text>
</g>
<!-- ProvisioningModule&#45;&gt;UserLoginMigrationApiModule -->
<g id="edge7" class="edge">
<title>ProvisioningModule&#45;&gt;UserLoginMigrationApiModule</title>
<path fill="none" stroke="black" d="M2058.15,-104C2050.83,-104 2045.95,-104 2045.95,-104 2045.95,-104 2045.95,-140.89 2045.95,-140.89"/>
<polygon fill="black" stroke="black" points="2042.45,-140.89 2045.95,-150.89 2049.45,-140.89 2042.45,-140.89"/>
</g>
<!-- UserLoginMigrationModule -->
<g id="node8" class="node">
<title>UserLoginMigrationModule</title>
<polygon fill="#8dd3c7" stroke="black" points="2040.91,-122 2037.91,-126 2016.91,-126 2013.91,-122 1865.09,-122 1865.09,-86 2040.91,-86 2040.91,-122"/>
<text text-anchor="middle" x="1953" y="-99.8" font-family="Times,serif" font-size="14.00">UserLoginMigrationModule</text>
</g>
<!-- UserLoginMigrationModule&#45;&gt;UserLoginMigrationApiModule -->
<g id="edge8" class="edge">
<title>UserLoginMigrationModule&#45;&gt;UserLoginMigrationApiModule</title>
<path fill="none" stroke="black" d="M1953,-122.11C1953,-122.11 1953,-140.99 1953,-140.99"/>
<polygon fill="black" stroke="black" points="1949.5,-140.99 1953,-150.99 1956.5,-140.99 1949.5,-140.99"/>
</g>
<!-- CloseMigrationWizardUc -->
<g id="node10" class="node">
<title>CloseMigrationWizardUc</title>
<ellipse fill="#fdb462" stroke="black" cx="1730" cy="-104" rx="111.15" ry="18"/>
<text text-anchor="middle" x="1730" y="-99.8" font-family="Times,serif" font-size="14.00">CloseMigrationWizardUc</text>
</g>
<!-- CloseMigrationWizardUc&#45;&gt;UserLoginMigrationApiModule -->
<g id="edge9" class="edge">
<title>CloseMigrationWizardUc&#45;&gt;UserLoginMigrationApiModule</title>
<path fill="none" stroke="black" d="M1841.41,-104C1852.66,-104 1860.05,-104 1860.05,-104 1860.05,-104 1860.05,-140.89 1860.05,-140.89"/>
<polygon fill="black" stroke="black" points="1856.55,-140.89 1860.05,-150.89 1863.55,-140.89 1856.55,-140.89"/>
</g>
<!-- CloseUserLoginMigrationUc -->
<g id="node11" class="node">
<title>CloseUserLoginMigrationUc</title>
<ellipse fill="#fdb462" stroke="black" cx="1476" cy="-104" rx="124.42" ry="18"/>
<text text-anchor="middle" x="1476" y="-99.8" font-family="Times,serif" font-size="14.00">CloseUserLoginMigrationUc</text>
</g>
<!-- CloseUserLoginMigrationUc&#45;&gt;UserLoginMigrationApiModule -->
<g id="edge10" class="edge">
<title>CloseUserLoginMigrationUc&#45;&gt;UserLoginMigrationApiModule</title>
<path fill="none" stroke="black" d="M1476,-122.24C1476,-137.57 1476,-157 1476,-157 1476,-157 1844.74,-157 1844.74,-157"/>
<polygon fill="black" stroke="black" points="1844.74,-160.5 1854.74,-157 1844.74,-153.5 1844.74,-160.5"/>
</g>
<!-- RestartUserLoginMigrationUc -->
<g id="node12" class="node">
<title>RestartUserLoginMigrationUc</title>
<ellipse fill="#fdb462" stroke="black" cx="1204" cy="-104" rx="129.63" ry="18"/>
<text text-anchor="middle" x="1204" y="-99.8" font-family="Times,serif" font-size="14.00">RestartUserLoginMigrationUc</text>
</g>
<!-- RestartUserLoginMigrationUc&#45;&gt;UserLoginMigrationApiModule -->
<g id="edge11" class="edge">
<title>RestartUserLoginMigrationUc&#45;&gt;UserLoginMigrationApiModule</title>
<path fill="none" stroke="black" d="M1204,-122.03C1204,-139.06 1204,-162 1204,-162 1204,-162 1844.7,-162 1844.7,-162"/>
<polygon fill="black" stroke="black" points="1844.7,-165.5 1854.7,-162 1844.7,-158.5 1844.7,-165.5"/>
</g>
<!-- StartUserLoginMigrationUc -->
<g id="node13" class="node">
<title>StartUserLoginMigrationUc</title>
<ellipse fill="#fdb462" stroke="black" cx="936" cy="-104" rx="120.4" ry="18"/>
<text text-anchor="middle" x="936" y="-99.8" font-family="Times,serif" font-size="14.00">StartUserLoginMigrationUc</text>
</g>
<!-- StartUserLoginMigrationUc&#45;&gt;UserLoginMigrationApiModule -->
<g id="edge12" class="edge">
<title>StartUserLoginMigrationUc&#45;&gt;UserLoginMigrationApiModule</title>
<path fill="none" stroke="black" d="M936,-122.22C936,-140.83 936,-167 936,-167 936,-167 1844.56,-167 1844.56,-167"/>
<polygon fill="black" stroke="black" points="1844.56,-170.5 1854.56,-167 1844.56,-163.5 1844.56,-170.5"/>
</g>
<!-- ToggleUserLoginMigrationUc -->
<g id="node14" class="node">
<title>ToggleUserLoginMigrationUc</title>
<ellipse fill="#fdb462" stroke="black" cx="668" cy="-104" rx="129.64" ry="18"/>
<text text-anchor="middle" x="668" y="-99.8" font-family="Times,serif" font-size="14.00">ToggleUserLoginMigrationUc</text>
</g>
<!-- ToggleUserLoginMigrationUc&#45;&gt;UserLoginMigrationApiModule -->
<g id="edge13" class="edge">
<title>ToggleUserLoginMigrationUc&#45;&gt;UserLoginMigrationApiModule</title>
<path fill="none" stroke="black" d="M668,-122.22C668,-142.37 668,-172 668,-172 668,-172 1844.57,-172 1844.57,-172"/>
<polygon fill="black" stroke="black" points="1844.57,-175.5 1854.57,-172 1844.57,-168.5 1844.57,-175.5"/>
</g>
<!-- UserLoginMigrationRollbackUc -->
<g id="node15" class="node">
<title>UserLoginMigrationRollbackUc</title>
<ellipse fill="#fdb462" stroke="black" cx="383" cy="-104" rx="137.16" ry="18"/>
<text text-anchor="middle" x="383" y="-99.8" font-family="Times,serif" font-size="14.00">UserLoginMigrationRollbackUc</text>
</g>
<!-- UserLoginMigrationRollbackUc&#45;&gt;UserLoginMigrationApiModule -->
<g id="edge14" class="edge">
<title>UserLoginMigrationRollbackUc&#45;&gt;UserLoginMigrationApiModule</title>
<path fill="none" stroke="black" d="M383,-122.04C383,-143.66 383,-177 383,-177 383,-177 1844.79,-177 1844.79,-177"/>
<polygon fill="black" stroke="black" points="1844.79,-180.5 1854.79,-177 1844.79,-173.5 1844.79,-180.5"/>
</g>
<!-- UserLoginMigrationUc -->
<g id="node16" class="node">
<title>UserLoginMigrationUc</title>
<ellipse fill="#fdb462" stroke="black" cx="126" cy="-104" rx="102.43" ry="18"/>
<text text-anchor="middle" x="126" y="-99.8" font-family="Times,serif" font-size="14.00">UserLoginMigrationUc</text>
</g>
<!-- UserLoginMigrationUc&#45;&gt;UserLoginMigrationApiModule -->
<g id="edge15" class="edge">
<title>UserLoginMigrationUc&#45;&gt;UserLoginMigrationApiModule</title>
<path fill="none" stroke="black" d="M126,-122.09C126,-145.13 126,-182 126,-182 126,-182 1844.77,-182 1844.77,-182"/>
<polygon fill="black" stroke="black" points="1844.77,-185.5 1854.77,-182 1844.77,-178.5 1844.77,-185.5"/>
</g>
</g>
</svg>
