<?xml version="1.0" encoding="UTF-8" standalone="no"?>
<!DOCTYPE svg PUBLIC "-//W3C//DTD SVG 1.1//EN"
 "http://www.w3.org/Graphics/SVG/1.1/DTD/svg11.dtd">
<!-- Generated by graphviz version 2.47.0 (20210316.0004)
 -->
<!-- Title: dependencies Pages: 1 -->
<svg width="2006pt" height="211pt"
 viewBox="0.00 0.00 2006.00 211.00" xmlns="http://www.w3.org/2000/svg" xmlns:xlink="http://www.w3.org/1999/xlink">
<g id="graph0" class="graph" transform="scale(1 1) rotate(0) translate(4 207)">
<title>dependencies</title>
<polygon fill="white" stroke="transparent" points="-4,4 -4,-207 2002,-207 2002,4 -4,4"/>
<text text-anchor="start" x="978.01" y="-42.4" font-family="Times-12" font-weight="bold" font-size="14.00">Legend</text>
<polygon fill="#ffffb3" stroke="transparent" points="765,-10 765,-30 785,-30 785,-10 765,-10"/>
<text text-anchor="start" x="788.63" y="-15.4" font-family="Times-12" font-size="14.00"> &#160;Declarations</text>
<polygon fill="#8dd3c7" stroke="transparent" points="878,-10 878,-30 898,-30 898,-10 878,-10"/>
<text text-anchor="start" x="901.73" y="-15.4" font-family="Times-12" font-size="14.00"> &#160;Module</text>
<polygon fill="#80b1d3" stroke="transparent" points="964,-10 964,-30 984,-30 984,-10 964,-10"/>
<text text-anchor="start" x="987.78" y="-15.4" font-family="Times-12" font-size="14.00"> &#160;Bootstrap</text>
<polygon fill="#fdb462" stroke="transparent" points="1061,-10 1061,-30 1081,-30 1081,-10 1061,-10"/>
<text text-anchor="start" x="1084.67" y="-15.4" font-family="Times-12" font-size="14.00"> &#160;Providers</text>
<polygon fill="#fb8072" stroke="transparent" points="1157,-10 1157,-30 1177,-30 1177,-10 1157,-10"/>
<text text-anchor="start" x="1180.73" y="-15.4" font-family="Times-12" font-size="14.00"> &#160;Exports</text>
<g id="clust1" class="cluster">
<title>cluster_UserLoginMigrationApiModule</title>
<polygon fill="none" stroke="black" stroke-dasharray="1,5" points="8,-70 8,-195 1990,-195 1990,-70 8,-70"/>
</g>
<g id="clust3" class="cluster">
<title>cluster_UserLoginMigrationApiModule_imports</title>
<polygon fill="none" stroke="black" points="979,-78 979,-130 1982,-130 1982,-78 979,-78"/>
</g>
<g id="clust6" class="cluster">
<title>cluster_UserLoginMigrationApiModule_providers</title>
<polygon fill="none" stroke="black" points="16,-78 16,-130 971,-130 971,-78 16,-78"/>
</g>
<!-- AuthenticationModule -->
<g id="node1" class="node">
<title>AuthenticationModule</title>
<polygon fill="#8dd3c7" stroke="black" points="1974.25,-122 1971.25,-126 1950.25,-126 1947.25,-122 1831.75,-122 1831.75,-86 1974.25,-86 1974.25,-122"/>
<text text-anchor="middle" x="1903" y="-99.8" font-family="Times,serif" font-size="14.00">AuthenticationModule</text>
</g>
<!-- UserLoginMigrationApiModule -->
<g id="node8" class="node">
<title>UserLoginMigrationApiModule</title>
<polygon fill="#8dd3c7" stroke="black" points="1328.41,-187 1325.41,-191 1304.41,-191 1301.41,-187 1131.59,-187 1131.59,-151 1328.41,-151 1328.41,-187"/>
<text text-anchor="middle" x="1230" y="-164.8" font-family="Times,serif" font-size="14.00">UserLoginMigrationApiModule</text>
</g>
<!-- AuthenticationModule&#45;&gt;UserLoginMigrationApiModule -->
<g id="edge1" class="edge">
<title>AuthenticationModule&#45;&gt;UserLoginMigrationApiModule</title>
<path fill="none" stroke="black" d="M1903,-122.01C1903,-144.49 1903,-180 1903,-180 1903,-180 1338.22,-180 1338.22,-180"/>
<polygon fill="black" stroke="black" points="1338.22,-176.5 1328.22,-180 1338.22,-183.5 1338.22,-176.5"/>
</g>
<!-- AuthorizationModule -->
<g id="node2" class="node">
<title>AuthorizationModule</title>
<polygon fill="#8dd3c7" stroke="black" points="1813.81,-122 1810.81,-126 1789.81,-126 1786.81,-122 1676.19,-122 1676.19,-86 1813.81,-86 1813.81,-122"/>
<text text-anchor="middle" x="1745" y="-99.8" font-family="Times,serif" font-size="14.00">AuthorizationModule</text>
</g>
<!-- AuthorizationModule&#45;&gt;UserLoginMigrationApiModule -->
<g id="edge2" class="edge">
<title>AuthorizationModule&#45;&gt;UserLoginMigrationApiModule</title>
<path fill="none" stroke="black" d="M1745,-122.13C1745,-142.57 1745,-173 1745,-173 1745,-173 1338.38,-173 1338.38,-173"/>
<polygon fill="black" stroke="black" points="1338.38,-169.5 1328.38,-173 1338.38,-176.5 1338.38,-169.5"/>
</g>
<!-- LoggerModule -->
<g id="node3" class="node">
<title>LoggerModule</title>
<polygon fill="#8dd3c7" stroke="black" points="1657.98,-122 1654.98,-126 1633.98,-126 1630.98,-122 1558.02,-122 1558.02,-86 1657.98,-86 1657.98,-122"/>
<text text-anchor="middle" x="1608" y="-99.8" font-family="Times,serif" font-size="14.00">LoggerModule</text>
</g>
<!-- LoggerModule&#45;&gt;UserLoginMigrationApiModule -->
<g id="edge3" class="edge">
<title>LoggerModule&#45;&gt;UserLoginMigrationApiModule</title>
<path fill="none" stroke="black" d="M1608,-122.27C1608,-140.56 1608,-166 1608,-166 1608,-166 1338.33,-166 1338.33,-166"/>
<polygon fill="black" stroke="black" points="1338.33,-162.5 1328.33,-166 1338.33,-169.5 1338.33,-162.5"/>
</g>
<!-- OauthModule -->
<g id="node4" class="node">
<title>OauthModule</title>
<polygon fill="#8dd3c7" stroke="black" points="1539.76,-122 1536.76,-126 1515.76,-126 1512.76,-122 1446.24,-122 1446.24,-86 1539.76,-86 1539.76,-122"/>
<text text-anchor="middle" x="1493" y="-99.8" font-family="Times,serif" font-size="14.00">OauthModule</text>
</g>
<!-- OauthModule&#45;&gt;UserLoginMigrationApiModule -->
<g id="edge4" class="edge">
<title>OauthModule&#45;&gt;UserLoginMigrationApiModule</title>
<path fill="none" stroke="black" d="M1493,-122.01C1493,-138.05 1493,-159 1493,-159 1493,-159 1338.31,-159 1338.31,-159"/>
<polygon fill="black" stroke="black" points="1338.31,-155.5 1328.31,-159 1338.31,-162.5 1338.31,-155.5"/>
</g>
<!-- ProvisioningModule -->
<g id="node5" class="node">
<title>ProvisioningModule</title>
<polygon fill="#8dd3c7" stroke="black" points="1428.61,-122 1425.61,-126 1404.61,-126 1401.61,-122 1297.39,-122 1297.39,-86 1428.61,-86 1428.61,-122"/>
<text text-anchor="middle" x="1363" y="-99.8" font-family="Times,serif" font-size="14.00">ProvisioningModule</text>
</g>
<!-- ProvisioningModule&#45;&gt;UserLoginMigrationApiModule -->
<g id="edge5" class="edge">
<title>ProvisioningModule&#45;&gt;UserLoginMigrationApiModule</title>
<path fill="none" stroke="black" d="M1312.82,-122.11C1312.82,-122.11 1312.82,-140.99 1312.82,-140.99"/>
<polygon fill="black" stroke="black" points="1309.32,-140.99 1312.82,-150.99 1316.32,-140.99 1309.32,-140.99"/>
</g>
<!-- SchoolModule -->
<g id="node6" class="node">
<title>SchoolModule</title>
<polygon fill="#8dd3c7" stroke="black" points="1279.44,-122 1276.44,-126 1255.44,-126 1252.44,-122 1180.56,-122 1180.56,-86 1279.44,-86 1279.44,-122"/>
<text text-anchor="middle" x="1230" y="-99.8" font-family="Times,serif" font-size="14.00">SchoolModule</text>
</g>
<!-- SchoolModule&#45;&gt;UserLoginMigrationApiModule -->
<g id="edge6" class="edge">
<title>SchoolModule&#45;&gt;UserLoginMigrationApiModule</title>
<path fill="none" stroke="black" d="M1230,-122.11C1230,-122.11 1230,-140.99 1230,-140.99"/>
<polygon fill="black" stroke="black" points="1226.5,-140.99 1230,-150.99 1233.5,-140.99 1226.5,-140.99"/>
</g>
<!-- UserLoginMigrationModule -->
<g id="node7" class="node">
<title>UserLoginMigrationModule</title>
<polygon fill="#8dd3c7" stroke="black" points="1162.91,-122 1159.91,-126 1138.91,-126 1135.91,-122 987.09,-122 987.09,-86 1162.91,-86 1162.91,-122"/>
<text text-anchor="middle" x="1075" y="-99.8" font-family="Times,serif" font-size="14.00">UserLoginMigrationModule</text>
</g>
<!-- UserLoginMigrationModule&#45;&gt;UserLoginMigrationApiModule -->
<g id="edge7" class="edge">
<title>UserLoginMigrationModule&#45;&gt;UserLoginMigrationApiModule</title>
<path fill="none" stroke="black" d="M1147.25,-122.11C1147.25,-122.11 1147.25,-140.99 1147.25,-140.99"/>
<polygon fill="black" stroke="black" points="1143.75,-140.99 1147.25,-150.99 1150.75,-140.99 1143.75,-140.99"/>
</g>
<!-- PageContentMapper -->
<g id="node9" class="node">
<title>PageContentMapper</title>
<ellipse fill="#fdb462" stroke="black" cx="873" cy="-104" rx="90.33" ry="18"/>
<text text-anchor="middle" x="873" y="-99.8" font-family="Times,serif" font-size="14.00">PageContentMapper</text>
</g>
<!-- PageContentMapper&#45;&gt;UserLoginMigrationApiModule -->
<g id="edge8" class="edge">
<title>PageContentMapper&#45;&gt;UserLoginMigrationApiModule</title>
<path fill="none" stroke="black" d="M873,-122.01C873,-138.05 873,-159 873,-159 873,-159 1121.5,-159 1121.5,-159"/>
<polygon fill="black" stroke="black" points="1121.5,-162.5 1131.5,-159 1121.5,-155.5 1121.5,-162.5"/>
</g>
<!-- RestartUserLoginMigrationUc -->
<g id="node10" class="node">
<title>RestartUserLoginMigrationUc</title>
<ellipse fill="#fdb462" stroke="black" cx="635" cy="-104" rx="129.63" ry="18"/>
<text text-anchor="middle" x="635" y="-99.8" font-family="Times,serif" font-size="14.00">RestartUserLoginMigrationUc</text>
</g>
<!-- RestartUserLoginMigrationUc&#45;&gt;UserLoginMigrationApiModule -->
<g id="edge9" class="edge">
<title>RestartUserLoginMigrationUc&#45;&gt;UserLoginMigrationApiModule</title>
<path fill="none" stroke="black" d="M635,-122.27C635,-140.56 635,-166 635,-166 635,-166 1121.75,-166 1121.75,-166"/>
<polygon fill="black" stroke="black" points="1121.75,-169.5 1131.75,-166 1121.75,-162.5 1121.75,-169.5"/>
</g>
<!-- StartUserLoginMigrationUc -->
<g id="node11" class="node">
<title>StartUserLoginMigrationUc</title>
<ellipse fill="#fdb462" stroke="black" cx="367" cy="-104" rx="120.4" ry="18"/>
<text text-anchor="middle" x="367" y="-99.8" font-family="Times,serif" font-size="14.00">StartUserLoginMigrationUc</text>
</g>
<!-- StartUserLoginMigrationUc&#45;&gt;UserLoginMigrationApiModule -->
<g id="edge10" class="edge">
<title>StartUserLoginMigrationUc&#45;&gt;UserLoginMigrationApiModule</title>
<path fill="none" stroke="black" d="M367,-122.13C367,-142.57 367,-173 367,-173 367,-173 1121.42,-173 1121.42,-173"/>
<polygon fill="black" stroke="black" points="1121.42,-176.5 1131.42,-173 1121.42,-169.5 1121.42,-176.5"/>
</g>
<!-- UserLoginMigrationUc -->
<g id="node12" class="node">
<title>UserLoginMigrationUc</title>
<ellipse fill="#fdb462" stroke="black" cx="126" cy="-104" rx="102.43" ry="18"/>
<text text-anchor="middle" x="126" y="-99.8" font-family="Times,serif" font-size="14.00">UserLoginMigrationUc</text>
</g>
<!-- UserLoginMigrationUc&#45;&gt;UserLoginMigrationApiModule -->
<g id="edge11" class="edge">
<title>UserLoginMigrationUc&#45;&gt;UserLoginMigrationApiModule</title>
<path fill="none" stroke="black" d="M126,-122.01C126,-144.49 126,-180 126,-180 126,-180 1121.54,-180 1121.54,-180"/>
<polygon fill="black" stroke="black" points="1121.54,-183.5 1131.54,-180 1121.54,-176.5 1121.54,-183.5"/>
</g>
</g>
</svg>
