<?xml version="1.0" encoding="UTF-8" standalone="no"?>
<!DOCTYPE svg PUBLIC "-//W3C//DTD SVG 1.1//EN"
 "http://www.w3.org/Graphics/SVG/1.1/DTD/svg11.dtd">
<!-- Generated by graphviz version 2.47.0 (20210316.0004)
 -->
<!-- Title: dependencies Pages: 1 -->
<svg width="722pt" height="284pt"
 viewBox="0.00 0.00 722.00 284.00" xmlns="http://www.w3.org/2000/svg" xmlns:xlink="http://www.w3.org/1999/xlink">
<g id="graph0" class="graph" transform="scale(1 1) rotate(0) translate(4 280)">
<title>dependencies</title>
<polygon fill="white" stroke="transparent" points="-4,4 -4,-280 718,-280 718,4 -4,4"/>
<text text-anchor="start" x="336.01" y="-42.4" font-family="Times-12" font-weight="bold" font-size="14.00">Legend</text>
<polygon fill="#ffffb3" stroke="transparent" points="123,-10 123,-30 143,-30 143,-10 123,-10"/>
<text text-anchor="start" x="146.63" y="-15.4" font-family="Times-12" font-size="14.00"> &#160;Declarations</text>
<polygon fill="#8dd3c7" stroke="transparent" points="236,-10 236,-30 256,-30 256,-10 236,-10"/>
<text text-anchor="start" x="259.73" y="-15.4" font-family="Times-12" font-size="14.00"> &#160;Module</text>
<polygon fill="#80b1d3" stroke="transparent" points="322,-10 322,-30 342,-30 342,-10 322,-10"/>
<text text-anchor="start" x="345.78" y="-15.4" font-family="Times-12" font-size="14.00"> &#160;Bootstrap</text>
<polygon fill="#fdb462" stroke="transparent" points="419,-10 419,-30 439,-30 439,-10 419,-10"/>
<text text-anchor="start" x="442.67" y="-15.4" font-family="Times-12" font-size="14.00"> &#160;Providers</text>
<polygon fill="#fb8072" stroke="transparent" points="515,-10 515,-30 535,-30 535,-10 515,-10"/>
<text text-anchor="start" x="538.73" y="-15.4" font-family="Times-12" font-size="14.00"> &#160;Exports</text>
<g id="clust1" class="cluster">
<title>cluster_SystemModule</title>
<polygon fill="none" stroke="black" stroke-dasharray="1,5" points="8,-70 8,-268 706,-268 706,-70 8,-70"/>
</g>
<g id="clust4" class="cluster">
<title>cluster_SystemModule_exports</title>
<polygon fill="none" stroke="black" points="239,-208 239,-260 505,-260 505,-208 239,-208"/>
</g>
<g id="clust6" class="cluster">
<title>cluster_SystemModule_providers</title>
<polygon fill="none" stroke="black" points="216,-78 216,-130 698,-130 698,-78 216,-78"/>
</g>
<g id="clust3" class="cluster">
<title>cluster_SystemModule_imports</title>
<polygon fill="none" stroke="black" points="16,-78 16,-130 208,-130 208,-78 16,-78"/>
</g>
<!-- IdentityManagementModule -->
<g id="node1" class="node">
<title>IdentityManagementModule</title>
<polygon fill="#8dd3c7" stroke="black" points="200.18,-122 197.18,-126 176.18,-126 173.18,-122 23.82,-122 23.82,-86 200.18,-86 200.18,-122"/>
<text text-anchor="middle" x="112" y="-99.8" font-family="Times,serif" font-size="14.00">IdentityManagementModule</text>
</g>
<!-- SystemModule -->
<g id="node2" class="node">
<title>SystemModule</title>
<polygon fill="#8dd3c7" stroke="black" points="415.27,-187 412.27,-191 391.27,-191 388.27,-187 314.73,-187 314.73,-151 415.27,-151 415.27,-187"/>
<text text-anchor="middle" x="365" y="-164.8" font-family="Times,serif" font-size="14.00">SystemModule</text>
</g>
<!-- IdentityManagementModule&#45;&gt;SystemModule -->
<g id="edge1" class="edge">
<title>IdentityManagementModule&#45;&gt;SystemModule</title>
<path fill="none" stroke="black" d="M112,-122.11C112,-141.34 112,-169 112,-169 112,-169 304.71,-169 304.71,-169"/>
<polygon fill="black" stroke="black" points="304.71,-172.5 314.71,-169 304.71,-165.5 304.71,-172.5"/>
</g>
<!-- SystemOidcService  -->
<g id="node3" class="node">
<title>SystemOidcService </title>
<polygon fill="#fb8072" stroke="black" points="496.91,-252 367.09,-252 367.09,-216 496.91,-216 496.91,-252"/>
<text text-anchor="middle" x="432" y="-229.8" font-family="Times,serif" font-size="14.00">SystemOidcService </text>
</g>
<!-- SystemModule&#45;&gt;SystemOidcService  -->
<g id="edge2" class="edge">
<title>SystemModule&#45;&gt;SystemOidcService </title>
<path fill="none" stroke="black" stroke-dasharray="5,2" d="M391.22,-187.11C391.22,-187.11 391.22,-205.99 391.22,-205.99"/>
<polygon fill="black" stroke="black" points="387.72,-205.99 391.22,-215.99 394.72,-205.99 387.72,-205.99"/>
</g>
<!-- SystemService  -->
<g id="node4" class="node">
<title>SystemService </title>
<polygon fill="#fb8072" stroke="black" points="349.2,-252 246.8,-252 246.8,-216 349.2,-216 349.2,-252"/>
<text text-anchor="middle" x="298" y="-229.8" font-family="Times,serif" font-size="14.00">SystemService </text>
</g>
<!-- SystemModule&#45;&gt;SystemService  -->
<g id="edge3" class="edge">
<title>SystemModule&#45;&gt;SystemService </title>
<path fill="none" stroke="black" stroke-dasharray="5,2" d="M331.98,-187.11C331.98,-187.11 331.98,-205.99 331.98,-205.99"/>
<polygon fill="black" stroke="black" points="328.48,-205.99 331.98,-215.99 335.48,-205.99 328.48,-205.99"/>
</g>
<!-- SystemOidcService -->
<g id="node5" class="node">
<title>SystemOidcService</title>
<ellipse fill="#fdb462" stroke="black" cx="603" cy="-104" rx="87.39" ry="18"/>
<text text-anchor="middle" x="603" y="-99.8" font-family="Times,serif" font-size="14.00">SystemOidcService</text>
</g>
<!-- SystemOidcService&#45;&gt;SystemModule -->
<g id="edge4" class="edge">
<title>SystemOidcService&#45;&gt;SystemModule</title>
<path fill="none" stroke="black" d="M603,-122.11C603,-141.34 603,-169 603,-169 603,-169 425.47,-169 425.47,-169"/>
<polygon fill="black" stroke="black" points="425.47,-165.5 415.47,-169 425.47,-172.5 425.47,-165.5"/>
</g>
<!-- SystemRepo -->
<g id="node6" class="node">
<title>SystemRepo</title>
<ellipse fill="#fdb462" stroke="black" cx="438" cy="-104" rx="59.71" ry="18"/>
<text text-anchor="middle" x="438" y="-99.8" font-family="Times,serif" font-size="14.00">SystemRepo</text>
</g>
<!-- SystemRepo&#45;&gt;SystemModule -->
<g id="edge5" class="edge">
<title>SystemRepo&#45;&gt;SystemModule</title>
<path fill="none" stroke="black" d="M396.77,-117.15C396.77,-117.15 396.77,-140.69 396.77,-140.69"/>
<polygon fill="black" stroke="black" points="393.27,-140.69 396.77,-150.69 400.27,-140.69 393.27,-140.69"/>
</g>
<!-- SystemService -->
<g id="node7" class="node">
<title>SystemService</title>
<ellipse fill="#fdb462" stroke="black" cx="292" cy="-104" rx="68.35" ry="18"/>
<text text-anchor="middle" x="292" y="-99.8" font-family="Times,serif" font-size="14.00">SystemService</text>
</g>
<!-- SystemService&#45;&gt;SystemModule -->
<g id="edge6" class="edge">
<title>SystemService&#45;&gt;SystemModule</title>
<path fill="none" stroke="black" d="M337.52,-117.47C337.52,-117.47 337.52,-140.86 337.52,-140.86"/>
<polygon fill="black" stroke="black" points="334.02,-140.86 337.52,-150.86 341.02,-140.86 334.02,-140.86"/>
</g>
</g>
</svg>
