<?xml version="1.0" encoding="UTF-8" standalone="no"?>
<!DOCTYPE svg PUBLIC "-//W3C//DTD SVG 1.1//EN"
 "http://www.w3.org/Graphics/SVG/1.1/DTD/svg11.dtd">
<!-- Generated by graphviz version 2.47.0 (20210316.0004)
 -->
<!-- Title: dependencies Pages: 1 -->
<svg width="722pt" height="284pt"
 viewBox="0.00 0.00 722.00 284.00" xmlns="http://www.w3.org/2000/svg" xmlns:xlink="http://www.w3.org/1999/xlink">
<g id="graph0" class="graph" transform="scale(1 1) rotate(0) translate(4 280)">
<title>dependencies</title>
<polygon fill="white" stroke="transparent" points="-4,4 -4,-280 718,-280 718,4 -4,4"/>
<text text-anchor="start" x="336.01" y="-42.4" font-family="Times-12" font-weight="bold" font-size="14.00">Legend</text>
<polygon fill="#ffffb3" stroke="transparent" points="123,-10 123,-30 143,-30 143,-10 123,-10"/>
<text text-anchor="start" x="146.63" y="-15.4" font-family="Times-12" font-size="14.00"> &#160;Declarations</text>
<polygon fill="#8dd3c7" stroke="transparent" points="236,-10 236,-30 256,-30 256,-10 236,-10"/>
<text text-anchor="start" x="259.73" y="-15.4" font-family="Times-12" font-size="14.00"> &#160;Module</text>
<polygon fill="#80b1d3" stroke="transparent" points="322,-10 322,-30 342,-30 342,-10 322,-10"/>
<text text-anchor="start" x="345.78" y="-15.4" font-family="Times-12" font-size="14.00"> &#160;Bootstrap</text>
<polygon fill="#fdb462" stroke="transparent" points="419,-10 419,-30 439,-30 439,-10 419,-10"/>
<text text-anchor="start" x="442.67" y="-15.4" font-family="Times-12" font-size="14.00"> &#160;Providers</text>
<polygon fill="#fb8072" stroke="transparent" points="515,-10 515,-30 535,-30 535,-10 515,-10"/>
<text text-anchor="start" x="538.73" y="-15.4" font-family="Times-12" font-size="14.00"> &#160;Exports</text>
<g id="clust1" class="cluster">
<title>cluster_SystemModule</title>
<polygon fill="none" stroke="black" stroke-dasharray="1,5" points="8,-70 8,-268 706,-268 706,-70 8,-70"/>
</g>
<g id="clust3" class="cluster">
<title>cluster_SystemModule_imports</title>
<polygon fill="none" stroke="black" points="506,-78 506,-130 698,-130 698,-78 506,-78"/>
</g>
<g id="clust6" class="cluster">
<title>cluster_SystemModule_providers</title>
<polygon fill="none" stroke="black" points="16,-78 16,-130 498,-130 498,-78 16,-78"/>
</g>
<g id="clust4" class="cluster">
<title>cluster_SystemModule_exports</title>
<polygon fill="none" stroke="black" points="194,-208 194,-260 460,-260 460,-208 194,-208"/>
</g>
<!-- IdentityManagementModule -->
<g id="node1" class="node">
<title>IdentityManagementModule</title>
<polygon fill="#8dd3c7" stroke="black" points="690.18,-122 687.18,-126 666.18,-126 663.18,-122 513.82,-122 513.82,-86 690.18,-86 690.18,-122"/>
<text text-anchor="middle" x="602" y="-99.8" font-family="Times,serif" font-size="14.00">IdentityManagementModule</text>
</g>
<!-- SystemModule -->
<g id="node2" class="node">
<title>SystemModule</title>
<polygon fill="#8dd3c7" stroke="black" points="370.27,-187 367.27,-191 346.27,-191 343.27,-187 269.73,-187 269.73,-151 370.27,-151 370.27,-187"/>
<text text-anchor="middle" x="320" y="-164.8" font-family="Times,serif" font-size="14.00">SystemModule</text>
</g>
<!-- IdentityManagementModule&#45;&gt;SystemModule -->
<g id="edge1" class="edge">
<title>IdentityManagementModule&#45;&gt;SystemModule</title>
<path fill="none" stroke="black" d="M602,-122.11C602,-141.34 602,-169 602,-169 602,-169 380.42,-169 380.42,-169"/>
<polygon fill="black" stroke="black" points="380.42,-165.5 370.42,-169 380.42,-172.5 380.42,-165.5"/>
</g>
<!-- SystemOidcService  -->
<g id="node3" class="node">
<title>SystemOidcService </title>
<polygon fill="#fb8072" stroke="black" points="451.91,-252 322.09,-252 322.09,-216 451.91,-216 451.91,-252"/>
<text text-anchor="middle" x="387" y="-229.8" font-family="Times,serif" font-size="14.00">SystemOidcService </text>
</g>
<!-- SystemModule&#45;&gt;SystemOidcService  -->
<g id="edge2" class="edge">
<title>SystemModule&#45;&gt;SystemOidcService </title>
<path fill="none" stroke="black" stroke-dasharray="5,2" d="M346.22,-187.11C346.22,-187.11 346.22,-205.99 346.22,-205.99"/>
<polygon fill="black" stroke="black" points="342.72,-205.99 346.22,-215.99 349.72,-205.99 342.72,-205.99"/>
</g>
<!-- SystemService  -->
<g id="node4" class="node">
<title>SystemService </title>
<polygon fill="#fb8072" stroke="black" points="304.2,-252 201.8,-252 201.8,-216 304.2,-216 304.2,-252"/>
<text text-anchor="middle" x="253" y="-229.8" font-family="Times,serif" font-size="14.00">SystemService </text>
</g>
<!-- SystemModule&#45;&gt;SystemService  -->
<g id="edge3" class="edge">
<title>SystemModule&#45;&gt;SystemService </title>
<path fill="none" stroke="black" stroke-dasharray="5,2" d="M286.98,-187.11C286.98,-187.11 286.98,-205.99 286.98,-205.99"/>
<polygon fill="black" stroke="black" points="283.48,-205.99 286.98,-215.99 290.48,-205.99 283.48,-205.99"/>
</g>
<!-- SystemOidcService -->
<g id="node5" class="node">
<title>SystemOidcService</title>
<ellipse fill="#fdb462" stroke="black" cx="403" cy="-104" rx="87.39" ry="18"/>
<text text-anchor="middle" x="403" y="-99.8" font-family="Times,serif" font-size="14.00">SystemOidcService</text>
</g>
<!-- SystemOidcService&#45;&gt;SystemModule -->
<g id="edge4" class="edge">
<title>SystemOidcService&#45;&gt;SystemModule</title>
<path fill="none" stroke="black" d="M343.09,-117.15C343.09,-117.15 343.09,-140.69 343.09,-140.69"/>
<polygon fill="black" stroke="black" points="339.59,-140.69 343.09,-150.69 346.59,-140.69 339.59,-140.69"/>
</g>
<!-- SystemRepo -->
<g id="node6" class="node">
<title>SystemRepo</title>
<ellipse fill="#fdb462" stroke="black" cx="238" cy="-104" rx="59.71" ry="18"/>
<text text-anchor="middle" x="238" y="-99.8" font-family="Times,serif" font-size="14.00">SystemRepo</text>
</g>
<!-- SystemRepo&#45;&gt;SystemModule -->
<g id="edge5" class="edge">
<title>SystemRepo&#45;&gt;SystemModule</title>
<path fill="none" stroke="black" d="M283.73,-115.62C283.73,-115.62 283.73,-140.85 283.73,-140.85"/>
<polygon fill="black" stroke="black" points="280.23,-140.85 283.73,-150.85 287.23,-140.85 280.23,-140.85"/>
</g>
<!-- SystemService -->
<g id="node7" class="node">
<title>SystemService</title>
<ellipse fill="#fdb462" stroke="black" cx="92" cy="-104" rx="68.35" ry="18"/>
<text text-anchor="middle" x="92" y="-99.8" font-family="Times,serif" font-size="14.00">SystemService</text>
</g>
<!-- SystemService&#45;&gt;SystemModule -->
<g id="edge6" class="edge">
<title>SystemService&#45;&gt;SystemModule</title>
<path fill="none" stroke="black" d="M92,-122.11C92,-141.34 92,-169 92,-169 92,-169 259.68,-169 259.68,-169"/>
<polygon fill="black" stroke="black" points="259.68,-172.5 269.68,-169 259.68,-165.5 259.68,-172.5"/>
</g>
</g>
</svg>
