<?xml version="1.0" encoding="UTF-8" standalone="no"?>
<!DOCTYPE svg PUBLIC "-//W3C//DTD SVG 1.1//EN"
 "http://www.w3.org/Graphics/SVG/1.1/DTD/svg11.dtd">
<!-- Generated by graphviz version 2.47.0 (20210316.0004)
 -->
<!-- Title: dependencies Pages: 1 -->
<svg width="1128pt" height="284pt"
 viewBox="0.00 0.00 1128.00 284.00" xmlns="http://www.w3.org/2000/svg" xmlns:xlink="http://www.w3.org/1999/xlink">
<g id="graph0" class="graph" transform="scale(1 1) rotate(0) translate(4 280)">
<title>dependencies</title>
<polygon fill="white" stroke="transparent" points="-4,4 -4,-280 1124,-280 1124,4 -4,4"/>
<text text-anchor="start" x="539.01" y="-42.4" font-family="Times-12" font-weight="bold" font-size="14.00">Legend</text>
<polygon fill="#ffffb3" stroke="transparent" points="326,-10 326,-30 346,-30 346,-10 326,-10"/>
<text text-anchor="start" x="349.63" y="-15.4" font-family="Times-12" font-size="14.00"> &#160;Declarations</text>
<polygon fill="#8dd3c7" stroke="transparent" points="439,-10 439,-30 459,-30 459,-10 439,-10"/>
<text text-anchor="start" x="462.73" y="-15.4" font-family="Times-12" font-size="14.00"> &#160;Module</text>
<polygon fill="#80b1d3" stroke="transparent" points="525,-10 525,-30 545,-30 545,-10 525,-10"/>
<text text-anchor="start" x="548.78" y="-15.4" font-family="Times-12" font-size="14.00"> &#160;Bootstrap</text>
<polygon fill="#fdb462" stroke="transparent" points="622,-10 622,-30 642,-30 642,-10 622,-10"/>
<text text-anchor="start" x="645.67" y="-15.4" font-family="Times-12" font-size="14.00"> &#160;Providers</text>
<polygon fill="#fb8072" stroke="transparent" points="718,-10 718,-30 738,-30 738,-10 718,-10"/>
<text text-anchor="start" x="741.73" y="-15.4" font-family="Times-12" font-size="14.00"> &#160;Exports</text>
<g id="clust1" class="cluster">
<title>cluster_SystemModule</title>
<polygon fill="none" stroke="black" stroke-dasharray="1,5" points="8,-70 8,-268 1112,-268 1112,-70 8,-70"/>
</g>
<g id="clust6" class="cluster">
<title>cluster_SystemModule_providers</title>
<polygon fill="none" stroke="black" points="216,-78 216,-130 1104,-130 1104,-78 216,-78"/>
</g>
<g id="clust4" class="cluster">
<title>cluster_SystemModule_exports</title>
<polygon fill="none" stroke="black" points="327,-208 327,-260 755,-260 755,-208 327,-208"/>
</g>
<g id="clust3" class="cluster">
<title>cluster_SystemModule_imports</title>
<polygon fill="none" stroke="black" points="16,-78 16,-130 208,-130 208,-78 16,-78"/>
</g>
<!-- IdentityManagementModule -->
<g id="node1" class="node">
<title>IdentityManagementModule</title>
<polygon fill="#8dd3c7" stroke="black" points="200.18,-122 197.18,-126 176.18,-126 173.18,-122 23.82,-122 23.82,-86 200.18,-86 200.18,-122"/>
<text text-anchor="middle" x="112" y="-99.8" font-family="Times,serif" font-size="14.00">IdentityManagementModule</text>
</g>
<!-- SystemModule -->
<g id="node2" class="node">
<title>SystemModule</title>
<polygon fill="#8dd3c7" stroke="black" points="570.27,-187 567.27,-191 546.27,-191 543.27,-187 469.73,-187 469.73,-151 570.27,-151 570.27,-187"/>
<text text-anchor="middle" x="520" y="-164.8" font-family="Times,serif" font-size="14.00">SystemModule</text>
</g>
<!-- IdentityManagementModule&#45;&gt;SystemModule -->
<g id="edge1" class="edge">
<title>IdentityManagementModule&#45;&gt;SystemModule</title>
<path fill="none" stroke="black" d="M112,-122.11C112,-141.34 112,-169 112,-169 112,-169 459.56,-169 459.56,-169"/>
<polygon fill="black" stroke="black" points="459.56,-172.5 469.56,-169 459.56,-165.5 459.56,-172.5"/>
</g>
<!-- LegacySystemService  -->
<g id="node3" class="node">
<title>LegacySystemService </title>
<polygon fill="#fb8072" stroke="black" points="746.9,-252 603.1,-252 603.1,-216 746.9,-216 746.9,-252"/>
<text text-anchor="middle" x="675" y="-229.8" font-family="Times,serif" font-size="14.00">LegacySystemService </text>
</g>
<!-- SystemModule&#45;&gt;LegacySystemService  -->
<g id="edge2" class="edge">
<title>SystemModule&#45;&gt;LegacySystemService </title>
<path fill="none" stroke="black" stroke-dasharray="5,2" d="M570.41,-178C605.72,-178 646.62,-178 646.62,-178 646.62,-178 646.62,-205.97 646.62,-205.97"/>
<polygon fill="black" stroke="black" points="643.12,-205.97 646.62,-215.97 650.12,-205.97 643.12,-205.97"/>
</g>
<!-- SystemOidcService  -->
<g id="node4" class="node">
<title>SystemOidcService </title>
<polygon fill="#fb8072" stroke="black" points="584.91,-252 455.09,-252 455.09,-216 584.91,-216 584.91,-252"/>
<text text-anchor="middle" x="520" y="-229.8" font-family="Times,serif" font-size="14.00">SystemOidcService </text>
</g>
<!-- SystemModule&#45;&gt;SystemOidcService  -->
<g id="edge3" class="edge">
<title>SystemModule&#45;&gt;SystemOidcService </title>
<path fill="none" stroke="black" stroke-dasharray="5,2" d="M520,-187.11C520,-187.11 520,-205.99 520,-205.99"/>
<polygon fill="black" stroke="black" points="516.5,-205.99 520,-215.99 523.5,-205.99 516.5,-205.99"/>
</g>
<!-- SystemService  -->
<g id="node5" class="node">
<title>SystemService </title>
<polygon fill="#fb8072" stroke="black" points="437.2,-252 334.8,-252 334.8,-216 437.2,-216 437.2,-252"/>
<text text-anchor="middle" x="386" y="-229.8" font-family="Times,serif" font-size="14.00">SystemService </text>
</g>
<!-- SystemModule&#45;&gt;SystemService  -->
<g id="edge4" class="edge">
<title>SystemModule&#45;&gt;SystemService </title>
<path fill="none" stroke="black" stroke-dasharray="5,2" d="M469.46,-178C439.66,-178 407.75,-178 407.75,-178 407.75,-178 407.75,-205.97 407.75,-205.97"/>
<polygon fill="black" stroke="black" points="404.25,-205.97 407.75,-215.97 411.25,-205.97 404.25,-205.97"/>
</g>
<!-- LegacySystemRepo -->
<g id="node6" class="node">
<title>LegacySystemRepo</title>
<ellipse fill="#fdb462" stroke="black" cx="1008" cy="-104" rx="88.04" ry="18"/>
<text text-anchor="middle" x="1008" y="-99.8" font-family="Times,serif" font-size="14.00">LegacySystemRepo</text>
</g>
<!-- LegacySystemRepo&#45;&gt;SystemModule -->
<g id="edge5" class="edge">
<title>LegacySystemRepo&#45;&gt;SystemModule</title>
<path fill="none" stroke="black" d="M1008,-122.11C1008,-141.34 1008,-169 1008,-169 1008,-169 580.39,-169 580.39,-169"/>
<polygon fill="black" stroke="black" points="580.39,-165.5 570.39,-169 580.39,-172.5 580.39,-165.5"/>
</g>
<!-- LegacySystemService -->
<g id="node7" class="node">
<title>LegacySystemService</title>
<ellipse fill="#fdb462" stroke="black" cx="805" cy="-104" rx="96.69" ry="18"/>
<text text-anchor="middle" x="805" y="-99.8" font-family="Times,serif" font-size="14.00">LegacySystemService</text>
</g>
<!-- LegacySystemService&#45;&gt;SystemModule -->
<g id="edge6" class="edge">
<title>LegacySystemService&#45;&gt;SystemModule</title>
<path fill="none" stroke="black" d="M727.55,-115.06C727.55,-131.38 727.55,-160 727.55,-160 727.55,-160 580.51,-160 580.51,-160"/>
<polygon fill="black" stroke="black" points="580.51,-156.5 570.51,-160 580.51,-163.5 580.51,-156.5"/>
</g>
<!-- SystemOidcService -->
<g id="node8" class="node">
<title>SystemOidcService</title>
<ellipse fill="#fdb462" stroke="black" cx="603" cy="-104" rx="87.39" ry="18"/>
<text text-anchor="middle" x="603" y="-99.8" font-family="Times,serif" font-size="14.00">SystemOidcService</text>
</g>
<!-- SystemOidcService&#45;&gt;SystemModule -->
<g id="edge7" class="edge">
<title>SystemOidcService&#45;&gt;SystemModule</title>
<path fill="none" stroke="black" d="M543.09,-117.15C543.09,-117.15 543.09,-140.69 543.09,-140.69"/>
<polygon fill="black" stroke="black" points="539.59,-140.69 543.09,-150.69 546.59,-140.69 539.59,-140.69"/>
</g>
<!-- SystemRepo -->
<g id="node9" class="node">
<title>SystemRepo</title>
<ellipse fill="#fdb462" stroke="black" cx="438" cy="-104" rx="59.71" ry="18"/>
<text text-anchor="middle" x="438" y="-99.8" font-family="Times,serif" font-size="14.00">SystemRepo</text>
</g>
<!-- SystemRepo&#45;&gt;SystemModule -->
<g id="edge8" class="edge">
<title>SystemRepo&#45;&gt;SystemModule</title>
<path fill="none" stroke="black" d="M483.73,-115.62C483.73,-115.62 483.73,-140.85 483.73,-140.85"/>
<polygon fill="black" stroke="black" points="480.23,-140.85 483.73,-150.85 487.23,-140.85 480.23,-140.85"/>
</g>
<!-- SystemService -->
<g id="node10" class="node">
<title>SystemService</title>
<ellipse fill="#fdb462" stroke="black" cx="292" cy="-104" rx="68.35" ry="18"/>
<text text-anchor="middle" x="292" y="-99.8" font-family="Times,serif" font-size="14.00">SystemService</text>
</g>
<!-- SystemService&#45;&gt;SystemModule -->
<g id="edge9" class="edge">
<title>SystemService&#45;&gt;SystemModule</title>
<path fill="none" stroke="black" d="M347.54,-114.53C347.54,-130.76 347.54,-160 347.54,-160 347.54,-160 459.65,-160 459.65,-160"/>
<polygon fill="black" stroke="black" points="459.65,-163.5 469.65,-160 459.65,-156.5 459.65,-163.5"/>
</g>
</g>
</svg>
