<?xml version="1.0" encoding="UTF-8" standalone="no"?>
<!DOCTYPE svg PUBLIC "-//W3C//DTD SVG 1.1//EN"
 "http://www.w3.org/Graphics/SVG/1.1/DTD/svg11.dtd">
<!-- Generated by graphviz version 5.0.0 (20220707.1540)
 -->
<!-- Title: dependencies Pages: 1 -->
<svg width="722pt" height="247pt"
 viewBox="0.00 0.00 722.00 246.80" xmlns="http://www.w3.org/2000/svg" xmlns:xlink="http://www.w3.org/1999/xlink">
<g id="graph0" class="graph" transform="scale(1 1) rotate(0) translate(4 242.8)">
<title>dependencies</title>
<polygon fill="white" stroke="transparent" points="-4,4 -4,-242.8 718,-242.8 718,4 -4,4"/>
<text text-anchor="middle" x="357" y="-8.2" font-family="sans-serif" font-size="14.00">dependencies</text>
<g id="clust1" class="cluster">
<title>cluster_SystemModule</title>
<polygon fill="none" stroke="black" stroke-dasharray="1,5" points="8,-32.8 8,-230.8 706,-230.8 706,-32.8 8,-32.8"/>
</g>
<g id="clust6" class="cluster">
<title>cluster_SystemModule_providers</title>
<polygon fill="none" stroke="black" points="216,-40.8 216,-92.8 698,-92.8 698,-40.8 216,-40.8"/>
</g>
<g id="clust3" class="cluster">
<title>cluster_SystemModule_imports</title>
<polygon fill="none" stroke="black" points="16,-40.8 16,-92.8 208,-92.8 208,-40.8 16,-40.8"/>
</g>
<g id="clust4" class="cluster">
<title>cluster_SystemModule_exports</title>
<polygon fill="none" stroke="black" points="239,-170.8 239,-222.8 505,-222.8 505,-170.8 239,-170.8"/>
</g>
<!-- IdentityManagementModule -->
<g id="node1" class="node">
<title>IdentityManagementModule</title>
<polygon fill="#8dd3c7" stroke="black" points="200.18,-84.8 197.18,-88.8 176.18,-88.8 173.18,-84.8 23.82,-84.8 23.82,-48.8 200.18,-48.8 200.18,-84.8"/>
<text text-anchor="middle" x="112" y="-62.6" font-family="Times,serif" font-size="14.00">IdentityManagementModule</text>
</g>
<!-- SystemModule -->
<g id="node2" class="node">
<title>SystemModule</title>
<polygon fill="#8dd3c7" stroke="black" points="415.28,-149.8 412.28,-153.8 391.28,-153.8 388.28,-149.8 314.72,-149.8 314.72,-113.8 415.28,-113.8 415.28,-149.8"/>
<text text-anchor="middle" x="365" y="-127.6" font-family="Times,serif" font-size="14.00">SystemModule</text>
</g>
<!-- IdentityManagementModule&#45;&gt;SystemModule -->
<g id="edge1" class="edge">
<title>IdentityManagementModule&#45;&gt;SystemModule</title>
<path fill="none" stroke="black" d="M112,-84.91C112,-104.14 112,-131.8 112,-131.8 112,-131.8 304.71,-131.8 304.71,-131.8"/>
<polygon fill="black" stroke="black" points="304.71,-135.3 314.71,-131.8 304.71,-128.3 304.71,-135.3"/>
</g>
<!-- SystemOidcService  -->
<g id="node3" class="node">
<title>SystemOidcService </title>
<polygon fill="#fb8072" stroke="black" points="496.92,-214.8 367.08,-214.8 367.08,-178.8 496.92,-178.8 496.92,-214.8"/>
<text text-anchor="middle" x="432" y="-192.6" font-family="Times,serif" font-size="14.00">SystemOidcService </text>
</g>
<!-- SystemModule&#45;&gt;SystemOidcService  -->
<g id="edge2" class="edge">
<title>SystemModule&#45;&gt;SystemOidcService </title>
<path fill="none" stroke="black" stroke-dasharray="5,2" d="M391.21,-149.91C391.21,-149.91 391.21,-168.79 391.21,-168.79"/>
<polygon fill="black" stroke="black" points="387.71,-168.79 391.21,-178.79 394.71,-168.79 387.71,-168.79"/>
</g>
<!-- SystemService  -->
<g id="node4" class="node">
<title>SystemService </title>
<polygon fill="#fb8072" stroke="black" points="349.21,-214.8 246.79,-214.8 246.79,-178.8 349.21,-178.8 349.21,-214.8"/>
<text text-anchor="middle" x="298" y="-192.6" font-family="Times,serif" font-size="14.00">SystemService </text>
</g>
<!-- SystemModule&#45;&gt;SystemService  -->
<g id="edge3" class="edge">
<title>SystemModule&#45;&gt;SystemService </title>
<path fill="none" stroke="black" stroke-dasharray="5,2" d="M331.98,-149.91C331.98,-149.91 331.98,-168.79 331.98,-168.79"/>
<polygon fill="black" stroke="black" points="328.48,-168.79 331.98,-178.79 335.48,-168.79 328.48,-168.79"/>
</g>
<!-- SystemOidcService -->
<g id="node5" class="node">
<title>SystemOidcService</title>
<ellipse fill="#fdb462" stroke="black" cx="603" cy="-66.8" rx="87.41" ry="18"/>
<text text-anchor="middle" x="603" y="-62.6" font-family="Times,serif" font-size="14.00">SystemOidcService</text>
</g>
<!-- SystemOidcService&#45;&gt;SystemModule -->
<g id="edge4" class="edge">
<title>SystemOidcService&#45;&gt;SystemModule</title>
<path fill="none" stroke="black" d="M603,-84.91C603,-104.14 603,-131.8 603,-131.8 603,-131.8 425.47,-131.8 425.47,-131.8"/>
<polygon fill="black" stroke="black" points="425.47,-128.3 415.47,-131.8 425.47,-135.3 425.47,-128.3"/>
</g>
<!-- SystemRepo -->
<g id="node6" class="node">
<title>SystemRepo</title>
<ellipse fill="#fdb462" stroke="black" cx="438" cy="-66.8" rx="59.72" ry="18"/>
<text text-anchor="middle" x="438" y="-62.6" font-family="Times,serif" font-size="14.00">SystemRepo</text>
</g>
<!-- SystemRepo&#45;&gt;SystemModule -->
<g id="edge5" class="edge">
<title>SystemRepo&#45;&gt;SystemModule</title>
<path fill="none" stroke="black" d="M396.77,-79.95C396.77,-79.95 396.77,-103.49 396.77,-103.49"/>
<polygon fill="black" stroke="black" points="393.27,-103.49 396.77,-113.49 400.27,-103.49 393.27,-103.49"/>
</g>
<!-- SystemService -->
<g id="node7" class="node">
<title>SystemService</title>
<ellipse fill="#fdb462" stroke="black" cx="292" cy="-66.8" rx="68.36" ry="18"/>
<text text-anchor="middle" x="292" y="-62.6" font-family="Times,serif" font-size="14.00">SystemService</text>
</g>
<!-- SystemService&#45;&gt;SystemModule -->
<g id="edge6" class="edge">
<title>SystemService&#45;&gt;SystemModule</title>
<path fill="none" stroke="black" d="M337.52,-80.27C337.52,-80.27 337.52,-103.66 337.52,-103.66"/>
<polygon fill="black" stroke="black" points="334.02,-103.66 337.52,-113.66 341.02,-103.66 334.02,-103.66"/>
</g>
</g>
</svg>
