<?xml version="1.0" encoding="UTF-8" standalone="no"?>
<!DOCTYPE svg PUBLIC "-//W3C//DTD SVG 1.1//EN"
 "http://www.w3.org/Graphics/SVG/1.1/DTD/svg11.dtd">
<!-- Generated by graphviz version 5.0.0 (20220707.1540)
 -->
<!-- Title: dependencies Pages: 1 -->
<svg width="842pt" height="247pt"
 viewBox="0.00 0.00 842.00 246.80" xmlns="http://www.w3.org/2000/svg" xmlns:xlink="http://www.w3.org/1999/xlink">
<g id="graph0" class="graph" transform="scale(1 1) rotate(0) translate(4 242.8)">
<title>dependencies</title>
<polygon fill="white" stroke="transparent" points="-4,4 -4,-242.8 838,-242.8 838,4 -4,4"/>
<text text-anchor="middle" x="417" y="-8.2" font-family="sans-serif" font-size="14.00">dependencies</text>
<g id="clust1" class="cluster">
<title>cluster_SystemModule</title>
<polygon fill="none" stroke="black" stroke-dasharray="1,5" points="8,-32.8 8,-230.8 826,-230.8 826,-32.8 8,-32.8"/>
</g>
<g id="clust3" class="cluster">
<title>cluster_SystemModule_imports</title>
<polygon fill="none" stroke="black" points="626,-40.8 626,-92.8 818,-92.8 818,-40.8 626,-40.8"/>
</g>
<g id="clust6" class="cluster">
<title>cluster_SystemModule_providers</title>
<polygon fill="none" stroke="black" points="16,-40.8 16,-92.8 618,-92.8 618,-40.8 16,-40.8"/>
</g>
<g id="clust4" class="cluster">
<title>cluster_SystemModule_exports</title>
<polygon fill="none" stroke="black" points="203,-170.8 203,-222.8 565,-222.8 565,-170.8 203,-170.8"/>
</g>
<!-- IdentityManagementModule -->
<g id="node1" class="node">
<title>IdentityManagementModule</title>
<polygon fill="#8dd3c7" stroke="black" points="810.18,-84.8 807.18,-88.8 786.18,-88.8 783.18,-84.8 633.82,-84.8 633.82,-48.8 810.18,-48.8 810.18,-84.8"/>
<text text-anchor="middle" x="722" y="-62.6" font-family="Times,serif" font-size="14.00">IdentityManagementModule</text>
</g>
<!-- SystemModule -->
<g id="node2" class="node">
<title>SystemModule</title>
<polygon fill="#8dd3c7" stroke="black" points="408.28,-149.8 405.28,-153.8 384.28,-153.8 381.28,-149.8 307.72,-149.8 307.72,-113.8 408.28,-113.8 408.28,-149.8"/>
<text text-anchor="middle" x="358" y="-127.6" font-family="Times,serif" font-size="14.00">SystemModule</text>
</g>
<!-- IdentityManagementModule&#45;&gt;SystemModule -->
<g id="edge1" class="edge">
<title>IdentityManagementModule&#45;&gt;SystemModule</title>
<path fill="none" stroke="black" d="M722,-84.91C722,-104.14 722,-131.8 722,-131.8 722,-131.8 418.61,-131.8 418.61,-131.8"/>
<polygon fill="black" stroke="black" points="418.61,-128.3 408.61,-131.8 418.61,-135.3 418.61,-128.3"/>
</g>
<!-- SystemOidcService  -->
<g id="node3" class="node">
<title>SystemOidcService </title>
<polygon fill="#fb8072" stroke="black" points="556.92,-214.8 427.08,-214.8 427.08,-178.8 556.92,-178.8 556.92,-214.8"/>
<text text-anchor="middle" x="492" y="-192.6" font-family="Times,serif" font-size="14.00">SystemOidcService </text>
</g>
<!-- SystemModule&#45;&gt;SystemOidcService  -->
<g id="edge2" class="edge">
<title>SystemModule&#45;&gt;SystemOidcService </title>
<path fill="none" stroke="black" stroke-dasharray="5,2" d="M408.59,-140.8C421.31,-140.8 431.42,-140.8 431.42,-140.8 431.42,-140.8 431.42,-168.77 431.42,-168.77"/>
<polygon fill="black" stroke="black" points="427.92,-168.77 431.42,-178.77 434.92,-168.77 427.92,-168.77"/>
</g>
<!-- SystemService  -->
<g id="node4" class="node">
<title>SystemService </title>
<polygon fill="#fb8072" stroke="black" points="409.21,-214.8 306.79,-214.8 306.79,-178.8 409.21,-178.8 409.21,-214.8"/>
<text text-anchor="middle" x="358" y="-192.6" font-family="Times,serif" font-size="14.00">SystemService </text>
</g>
<!-- SystemModule&#45;&gt;SystemService  -->
<g id="edge3" class="edge">
<title>SystemModule&#45;&gt;SystemService </title>
<path fill="none" stroke="black" stroke-dasharray="5,2" d="M358,-149.91C358,-149.91 358,-168.79 358,-168.79"/>
<polygon fill="black" stroke="black" points="354.5,-168.79 358,-178.79 361.5,-168.79 354.5,-168.79"/>
</g>
<!-- SystemUc  -->
<g id="node5" class="node">
<title>SystemUc </title>
<polygon fill="#fb8072" stroke="black" points="288.55,-214.8 211.45,-214.8 211.45,-178.8 288.55,-178.8 288.55,-214.8"/>
<text text-anchor="middle" x="250" y="-192.6" font-family="Times,serif" font-size="14.00">SystemUc </text>
</g>
<!-- SystemModule&#45;&gt;SystemUc  -->
<g id="edge4" class="edge">
<title>SystemModule&#45;&gt;SystemUc </title>
<path fill="none" stroke="black" stroke-dasharray="5,2" d="M307.34,-140.8C294.6,-140.8 284.48,-140.8 284.48,-140.8 284.48,-140.8 284.48,-168.77 284.48,-168.77"/>
<polygon fill="black" stroke="black" points="280.98,-168.77 284.48,-178.77 287.98,-168.77 280.98,-168.77"/>
</g>
<!-- SystemOidcService -->
<g id="node6" class="node">
<title>SystemOidcService</title>
<ellipse fill="#fdb462" stroke="black" cx="523" cy="-66.8" rx="87.41" ry="18"/>
<text text-anchor="middle" x="523" y="-62.6" font-family="Times,serif" font-size="14.00">SystemOidcService</text>
</g>
<!-- SystemOidcService&#45;&gt;SystemModule -->
<g id="edge5" class="edge">
<title>SystemOidcService&#45;&gt;SystemModule</title>
<path fill="none" stroke="black" d="M496.38,-84.21C496.38,-100.65 496.38,-122.8 496.38,-122.8 496.38,-122.8 418.35,-122.8 418.35,-122.8"/>
<polygon fill="black" stroke="black" points="418.35,-119.3 408.35,-122.8 418.35,-126.3 418.35,-119.3"/>
</g>
<!-- SystemRepo -->
<g id="node7" class="node">
<title>SystemRepo</title>
<ellipse fill="#fdb462" stroke="black" cx="358" cy="-66.8" rx="59.72" ry="18"/>
<text text-anchor="middle" x="358" y="-62.6" font-family="Times,serif" font-size="14.00">SystemRepo</text>
</g>
<!-- SystemRepo&#45;&gt;SystemModule -->
<g id="edge6" class="edge">
<title>SystemRepo&#45;&gt;SystemModule</title>
<path fill="none" stroke="black" d="M358,-84.91C358,-84.91 358,-103.79 358,-103.79"/>
<polygon fill="black" stroke="black" points="354.5,-103.79 358,-113.79 361.5,-103.79 354.5,-103.79"/>
</g>
<!-- SystemService -->
<g id="node8" class="node">
<title>SystemService</title>
<ellipse fill="#fdb462" stroke="black" cx="212" cy="-66.8" rx="68.36" ry="18"/>
<text text-anchor="middle" x="212" y="-62.6" font-family="Times,serif" font-size="14.00">SystemService</text>
</g>
<!-- SystemService&#45;&gt;SystemModule -->
<g id="edge7" class="edge">
<title>SystemService&#45;&gt;SystemModule</title>
<path fill="none" stroke="black" d="M245.95,-82.7C245.95,-99.25 245.95,-122.8 245.95,-122.8 245.95,-122.8 297.55,-122.8 297.55,-122.8"/>
<polygon fill="black" stroke="black" points="297.55,-126.3 307.55,-122.8 297.55,-119.3 297.55,-126.3"/>
</g>
<!-- SystemUc -->
<g id="node9" class="node">
<title>SystemUc</title>
<ellipse fill="#fdb462" stroke="black" cx="75" cy="-66.8" rx="50.97" ry="18"/>
<text text-anchor="middle" x="75" y="-62.6" font-family="Times,serif" font-size="14.00">SystemUc</text>
</g>
<!-- SystemUc&#45;&gt;SystemModule -->
<g id="edge8" class="edge">
<title>SystemUc&#45;&gt;SystemModule</title>
<path fill="none" stroke="black" d="M75,-84.91C75,-104.14 75,-131.8 75,-131.8 75,-131.8 297.41,-131.8 297.41,-131.8"/>
<polygon fill="black" stroke="black" points="297.41,-135.3 307.41,-131.8 297.41,-128.3 297.41,-135.3"/>
</g>
</g>
</svg>
