<?xml version="1.0" encoding="UTF-8" standalone="no"?>
<!DOCTYPE svg PUBLIC "-//W3C//DTD SVG 1.1//EN"
 "http://www.w3.org/Graphics/SVG/1.1/DTD/svg11.dtd">
<!-- Generated by graphviz version 5.0.0 (20220707.1540)
 -->
<!-- Title: dependencies Pages: 1 -->
<svg width="722pt" height="247pt"
 viewBox="0.00 0.00 722.00 246.80" xmlns="http://www.w3.org/2000/svg" xmlns:xlink="http://www.w3.org/1999/xlink">
<g id="graph0" class="graph" transform="scale(1 1) rotate(0) translate(4 242.8)">
<title>dependencies</title>
<polygon fill="white" stroke="transparent" points="-4,4 -4,-242.8 718,-242.8 718,4 -4,4"/>
<text text-anchor="middle" x="357" y="-8.2" font-family="sans-serif" font-size="14.00">dependencies</text>
<g id="clust1" class="cluster">
<title>cluster_SystemModule</title>
<polygon fill="none" stroke="black" stroke-dasharray="1,5" points="8,-32.8 8,-230.8 706,-230.8 706,-32.8 8,-32.8"/>
</g>
<g id="clust3" class="cluster">
<title>cluster_SystemModule_imports</title>
<polygon fill="none" stroke="black" points="506,-40.8 506,-92.8 698,-92.8 698,-40.8 506,-40.8"/>
</g>
<g id="clust4" class="cluster">
<title>cluster_SystemModule_exports</title>
<polygon fill="none" stroke="black" points="194,-170.8 194,-222.8 460,-222.8 460,-170.8 194,-170.8"/>
</g>
<g id="clust6" class="cluster">
<title>cluster_SystemModule_providers</title>
<polygon fill="none" stroke="black" points="16,-40.8 16,-92.8 498,-92.8 498,-40.8 16,-40.8"/>
</g>
<!-- IdentityManagementModule -->
<g id="node1" class="node">
<title>IdentityManagementModule</title>
<polygon fill="#8dd3c7" stroke="black" points="690.18,-84.8 687.18,-88.8 666.18,-88.8 663.18,-84.8 513.82,-84.8 513.82,-48.8 690.18,-48.8 690.18,-84.8"/>
<text text-anchor="middle" x="602" y="-62.6" font-family="Times,serif" font-size="14.00">IdentityManagementModule</text>
</g>
<!-- SystemModule -->
<g id="node2" class="node">
<title>SystemModule</title>
<polygon fill="#8dd3c7" stroke="black" points="370.28,-149.8 367.28,-153.8 346.28,-153.8 343.28,-149.8 269.72,-149.8 269.72,-113.8 370.28,-113.8 370.28,-149.8"/>
<text text-anchor="middle" x="320" y="-127.6" font-family="Times,serif" font-size="14.00">SystemModule</text>
</g>
<!-- IdentityManagementModule&#45;&gt;SystemModule -->
<g id="edge1" class="edge">
<title>IdentityManagementModule&#45;&gt;SystemModule</title>
<path fill="none" stroke="black" d="M602,-84.91C602,-104.14 602,-131.8 602,-131.8 602,-131.8 380.42,-131.8 380.42,-131.8"/>
<polygon fill="black" stroke="black" points="380.42,-128.3 370.42,-131.8 380.42,-135.3 380.42,-128.3"/>
</g>
<!-- SystemOidcService  -->
<g id="node3" class="node">
<title>SystemOidcService </title>
<polygon fill="#fb8072" stroke="black" points="451.92,-214.8 322.08,-214.8 322.08,-178.8 451.92,-178.8 451.92,-214.8"/>
<text text-anchor="middle" x="387" y="-192.6" font-family="Times,serif" font-size="14.00">SystemOidcService </text>
</g>
<!-- SystemModule&#45;&gt;SystemOidcService  -->
<g id="edge2" class="edge">
<title>SystemModule&#45;&gt;SystemOidcService </title>
<path fill="none" stroke="black" stroke-dasharray="5,2" d="M346.21,-149.91C346.21,-149.91 346.21,-168.79 346.21,-168.79"/>
<polygon fill="black" stroke="black" points="342.71,-168.79 346.21,-178.79 349.71,-168.79 342.71,-168.79"/>
</g>
<!-- SystemService  -->
<g id="node4" class="node">
<title>SystemService </title>
<polygon fill="#fb8072" stroke="black" points="304.21,-214.8 201.79,-214.8 201.79,-178.8 304.21,-178.8 304.21,-214.8"/>
<text text-anchor="middle" x="253" y="-192.6" font-family="Times,serif" font-size="14.00">SystemService </text>
</g>
<!-- SystemModule&#45;&gt;SystemService  -->
<g id="edge3" class="edge">
<title>SystemModule&#45;&gt;SystemService </title>
<path fill="none" stroke="black" stroke-dasharray="5,2" d="M286.98,-149.91C286.98,-149.91 286.98,-168.79 286.98,-168.79"/>
<polygon fill="black" stroke="black" points="283.48,-168.79 286.98,-178.79 290.48,-168.79 283.48,-168.79"/>
</g>
<!-- SystemOidcService -->
<g id="node5" class="node">
<title>SystemOidcService</title>
<ellipse fill="#fdb462" stroke="black" cx="403" cy="-66.8" rx="87.41" ry="18"/>
<text text-anchor="middle" x="403" y="-62.6" font-family="Times,serif" font-size="14.00">SystemOidcService</text>
</g>
<!-- SystemOidcService&#45;&gt;SystemModule -->
<g id="edge4" class="edge">
<title>SystemOidcService&#45;&gt;SystemModule</title>
<path fill="none" stroke="black" d="M343.09,-79.95C343.09,-79.95 343.09,-103.49 343.09,-103.49"/>
<polygon fill="black" stroke="black" points="339.59,-103.49 343.09,-113.49 346.59,-103.49 339.59,-103.49"/>
</g>
<!-- SystemRepo -->
<g id="node6" class="node">
<title>SystemRepo</title>
<ellipse fill="#fdb462" stroke="black" cx="238" cy="-66.8" rx="59.72" ry="18"/>
<text text-anchor="middle" x="238" y="-62.6" font-family="Times,serif" font-size="14.00">SystemRepo</text>
</g>
<!-- SystemRepo&#45;&gt;SystemModule -->
<g id="edge5" class="edge">
<title>SystemRepo&#45;&gt;SystemModule</title>
<path fill="none" stroke="black" d="M283.73,-78.42C283.73,-78.42 283.73,-103.65 283.73,-103.65"/>
<polygon fill="black" stroke="black" points="280.23,-103.65 283.73,-113.65 287.23,-103.65 280.23,-103.65"/>
</g>
<!-- SystemService -->
<g id="node7" class="node">
<title>SystemService</title>
<ellipse fill="#fdb462" stroke="black" cx="92" cy="-66.8" rx="68.36" ry="18"/>
<text text-anchor="middle" x="92" y="-62.6" font-family="Times,serif" font-size="14.00">SystemService</text>
</g>
<!-- SystemService&#45;&gt;SystemModule -->
<g id="edge6" class="edge">
<title>SystemService&#45;&gt;SystemModule</title>
<path fill="none" stroke="black" d="M92,-84.91C92,-104.14 92,-131.8 92,-131.8 92,-131.8 259.68,-131.8 259.68,-131.8"/>
<polygon fill="black" stroke="black" points="259.68,-135.3 269.68,-131.8 259.68,-128.3 259.68,-135.3"/>
</g>
</g>
</svg>
