<?xml version="1.0" encoding="UTF-8" standalone="no"?>
<!DOCTYPE svg PUBLIC "-//W3C//DTD SVG 1.1//EN"
 "http://www.w3.org/Graphics/SVG/1.1/DTD/svg11.dtd">
<!-- Generated by graphviz version 2.47.0 (20210316.0004)
 -->
<!-- Title: dependencies Pages: 1 -->
<svg width="991pt" height="284pt"
 viewBox="0.00 0.00 991.00 284.00" xmlns="http://www.w3.org/2000/svg" xmlns:xlink="http://www.w3.org/1999/xlink">
<g id="graph0" class="graph" transform="scale(1 1) rotate(0) translate(4 280)">
<title>dependencies</title>
<polygon fill="white" stroke="transparent" points="-4,4 -4,-280 987,-280 987,4 -4,4"/>
<text text-anchor="start" x="470.51" y="-42.4" font-family="Times-12" font-weight="bold" font-size="14.00">Legend</text>
<polygon fill="#ffffb3" stroke="transparent" points="257.5,-10 257.5,-30 277.5,-30 277.5,-10 257.5,-10"/>
<text text-anchor="start" x="281.13" y="-15.4" font-family="Times-12" font-size="14.00"> &#160;Declarations</text>
<polygon fill="#8dd3c7" stroke="transparent" points="370.5,-10 370.5,-30 390.5,-30 390.5,-10 370.5,-10"/>
<text text-anchor="start" x="394.23" y="-15.4" font-family="Times-12" font-size="14.00"> &#160;Module</text>
<polygon fill="#80b1d3" stroke="transparent" points="456.5,-10 456.5,-30 476.5,-30 476.5,-10 456.5,-10"/>
<text text-anchor="start" x="480.28" y="-15.4" font-family="Times-12" font-size="14.00"> &#160;Bootstrap</text>
<polygon fill="#fdb462" stroke="transparent" points="553.5,-10 553.5,-30 573.5,-30 573.5,-10 553.5,-10"/>
<text text-anchor="start" x="577.17" y="-15.4" font-family="Times-12" font-size="14.00"> &#160;Providers</text>
<polygon fill="#fb8072" stroke="transparent" points="649.5,-10 649.5,-30 669.5,-30 669.5,-10 649.5,-10"/>
<text text-anchor="start" x="673.23" y="-15.4" font-family="Times-12" font-size="14.00"> &#160;Exports</text>
<g id="clust1" class="cluster">
<title>cluster_SystemModule</title>
<polygon fill="none" stroke="black" stroke-dasharray="1,5" points="8,-70 8,-268 975,-268 975,-70 8,-70"/>
</g>
<g id="clust6" class="cluster">
<title>cluster_SystemModule_providers</title>
<polygon fill="none" stroke="black" points="216,-78 216,-130 967,-130 967,-78 216,-78"/>
</g>
<g id="clust4" class="cluster">
<title>cluster_SystemModule_exports</title>
<polygon fill="none" stroke="black" points="273,-208 273,-260 701,-260 701,-208 273,-208"/>
</g>
<g id="clust3" class="cluster">
<title>cluster_SystemModule_imports</title>
<polygon fill="none" stroke="black" points="16,-78 16,-130 208,-130 208,-78 16,-78"/>
</g>
<!-- IdentityManagementModule -->
<g id="node1" class="node">
<title>IdentityManagementModule</title>
<polygon fill="#8dd3c7" stroke="black" points="200.18,-122 197.18,-126 176.18,-126 173.18,-122 23.82,-122 23.82,-86 200.18,-86 200.18,-122"/>
<text text-anchor="middle" x="112" y="-99.8" font-family="Times,serif" font-size="14.00">IdentityManagementModule</text>
</g>
<!-- SystemModule -->
<g id="node2" class="node">
<title>SystemModule</title>
<polygon fill="#8dd3c7" stroke="black" points="516.27,-187 513.27,-191 492.27,-191 489.27,-187 415.73,-187 415.73,-151 516.27,-151 516.27,-187"/>
<text text-anchor="middle" x="466" y="-164.8" font-family="Times,serif" font-size="14.00">SystemModule</text>
</g>
<!-- IdentityManagementModule&#45;&gt;SystemModule -->
<g id="edge1" class="edge">
<title>IdentityManagementModule&#45;&gt;SystemModule</title>
<path fill="none" stroke="black" d="M112,-122.11C112,-141.34 112,-169 112,-169 112,-169 405.66,-169 405.66,-169"/>
<polygon fill="black" stroke="black" points="405.66,-172.5 415.66,-169 405.66,-165.5 405.66,-172.5"/>
</g>
<!-- LegacySystemService  -->
<g id="node3" class="node">
<title>LegacySystemService </title>
<polygon fill="#fb8072" stroke="black" points="692.9,-252 549.1,-252 549.1,-216 692.9,-216 692.9,-252"/>
<text text-anchor="middle" x="621" y="-229.8" font-family="Times,serif" font-size="14.00">LegacySystemService </text>
</g>
<!-- SystemModule&#45;&gt;LegacySystemService  -->
<g id="edge2" class="edge">
<title>SystemModule&#45;&gt;LegacySystemService </title>
<path fill="none" stroke="black" stroke-dasharray="5,2" d="M516.34,-178C539.61,-178 562.18,-178 562.18,-178 562.18,-178 562.18,-205.97 562.18,-205.97"/>
<polygon fill="black" stroke="black" points="558.68,-205.97 562.18,-215.97 565.68,-205.97 558.68,-205.97"/>
</g>
<!-- SystemOidcService  -->
<g id="node4" class="node">
<title>SystemOidcService </title>
<polygon fill="#fb8072" stroke="black" points="530.91,-252 401.09,-252 401.09,-216 530.91,-216 530.91,-252"/>
<text text-anchor="middle" x="466" y="-229.8" font-family="Times,serif" font-size="14.00">SystemOidcService </text>
</g>
<!-- SystemModule&#45;&gt;SystemOidcService  -->
<g id="edge3" class="edge">
<title>SystemModule&#45;&gt;SystemOidcService </title>
<path fill="none" stroke="black" stroke-dasharray="5,2" d="M466,-187.11C466,-187.11 466,-205.99 466,-205.99"/>
<polygon fill="black" stroke="black" points="462.5,-205.99 466,-215.99 469.5,-205.99 462.5,-205.99"/>
</g>
<!-- SystemService  -->
<g id="node5" class="node">
<title>SystemService </title>
<polygon fill="#fb8072" stroke="black" points="383.2,-252 280.8,-252 280.8,-216 383.2,-216 383.2,-252"/>
<text text-anchor="middle" x="332" y="-229.8" font-family="Times,serif" font-size="14.00">SystemService </text>
</g>
<!-- SystemModule&#45;&gt;SystemService  -->
<g id="edge4" class="edge">
<title>SystemModule&#45;&gt;SystemService </title>
<path fill="none" stroke="black" stroke-dasharray="5,2" d="M415.55,-178C392.23,-178 369.61,-178 369.61,-178 369.61,-178 369.61,-205.97 369.61,-205.97"/>
<polygon fill="black" stroke="black" points="366.11,-205.97 369.61,-215.97 373.11,-205.97 366.11,-205.97"/>
</g>
<!-- LegacySystemRepo -->
<g id="node6" class="node">
<title>LegacySystemRepo</title>
<ellipse fill="#fdb462" stroke="black" cx="871" cy="-104" rx="88.04" ry="18"/>
<text text-anchor="middle" x="871" y="-99.8" font-family="Times,serif" font-size="14.00">LegacySystemRepo</text>
</g>
<!-- LegacySystemRepo&#45;&gt;SystemModule -->
<g id="edge5" class="edge">
<title>LegacySystemRepo&#45;&gt;SystemModule</title>
<path fill="none" stroke="black" d="M871,-122.11C871,-141.34 871,-169 871,-169 871,-169 526.47,-169 526.47,-169"/>
<polygon fill="black" stroke="black" points="526.47,-165.5 516.47,-169 526.47,-172.5 526.47,-165.5"/>
</g>
<!-- LegacySystemService -->
<g id="node7" class="node">
<title>LegacySystemService</title>
<ellipse fill="#fdb462" stroke="black" cx="668" cy="-104" rx="96.69" ry="18"/>
<text text-anchor="middle" x="668" y="-99.8" font-family="Times,serif" font-size="14.00">LegacySystemService</text>
</g>
<!-- LegacySystemService&#45;&gt;SystemModule -->
<g id="edge6" class="edge">
<title>LegacySystemService&#45;&gt;SystemModule</title>
<path fill="none" stroke="black" d="M632.05,-120.8C632.05,-137.3 632.05,-160 632.05,-160 632.05,-160 526.72,-160 526.72,-160"/>
<polygon fill="black" stroke="black" points="526.72,-156.5 516.72,-160 526.72,-163.5 526.72,-156.5"/>
</g>
<!-- SystemOidcService -->
<g id="node8" class="node">
<title>SystemOidcService</title>
<ellipse fill="#fdb462" stroke="black" cx="466" cy="-104" rx="87.39" ry="18"/>
<text text-anchor="middle" x="466" y="-99.8" font-family="Times,serif" font-size="14.00">SystemOidcService</text>
</g>
<!-- SystemOidcService&#45;&gt;SystemModule -->
<g id="edge7" class="edge">
<title>SystemOidcService&#45;&gt;SystemModule</title>
<path fill="none" stroke="black" d="M466,-122.11C466,-122.11 466,-140.99 466,-140.99"/>
<polygon fill="black" stroke="black" points="462.5,-140.99 466,-150.99 469.5,-140.99 462.5,-140.99"/>
</g>
<!-- SystemService -->
<g id="node9" class="node">
<title>SystemService</title>
<ellipse fill="#fdb462" stroke="black" cx="292" cy="-104" rx="68.35" ry="18"/>
<text text-anchor="middle" x="292" y="-99.8" font-family="Times,serif" font-size="14.00">SystemService</text>
</g>
<!-- SystemService&#45;&gt;SystemModule -->
<g id="edge8" class="edge">
<title>SystemService&#45;&gt;SystemModule</title>
<path fill="none" stroke="black" d="M320.54,-120.5C320.54,-137.02 320.54,-160 320.54,-160 320.54,-160 405.53,-160 405.53,-160"/>
<polygon fill="black" stroke="black" points="405.53,-163.5 415.53,-160 405.53,-156.5 405.53,-163.5"/>
</g>
</g>
</svg>
