<?xml version="1.0" encoding="UTF-8" standalone="no"?>
<!DOCTYPE svg PUBLIC "-//W3C//DTD SVG 1.1//EN"
 "http://www.w3.org/Graphics/SVG/1.1/DTD/svg11.dtd">
<!-- Generated by graphviz version 5.0.0 (20220707.1540)
 -->
<!-- Title: dependencies Pages: 1 -->
<svg width="842pt" height="247pt"
 viewBox="0.00 0.00 842.00 246.80" xmlns="http://www.w3.org/2000/svg" xmlns:xlink="http://www.w3.org/1999/xlink">
<g id="graph0" class="graph" transform="scale(1 1) rotate(0) translate(4 242.8)">
<title>dependencies</title>
<polygon fill="white" stroke="transparent" points="-4,4 -4,-242.8 838,-242.8 838,4 -4,4"/>
<text text-anchor="middle" x="417" y="-8.2" font-family="sans-serif" font-size="14.00">dependencies</text>
<g id="clust1" class="cluster">
<title>cluster_SystemModule</title>
<polygon fill="none" stroke="black" stroke-dasharray="1,5" points="8,-32.8 8,-230.8 826,-230.8 826,-32.8 8,-32.8"/>
</g>
<g id="clust6" class="cluster">
<title>cluster_SystemModule_providers</title>
<polygon fill="none" stroke="black" points="216,-40.8 216,-92.8 818,-92.8 818,-40.8 216,-40.8"/>
</g>
<g id="clust3" class="cluster">
<title>cluster_SystemModule_imports</title>
<polygon fill="none" stroke="black" points="16,-40.8 16,-92.8 208,-92.8 208,-40.8 16,-40.8"/>
</g>
<g id="clust4" class="cluster">
<title>cluster_SystemModule_exports</title>
<polygon fill="none" stroke="black" points="257,-170.8 257,-222.8 619,-222.8 619,-170.8 257,-170.8"/>
</g>
<!-- IdentityManagementModule -->
<g id="node1" class="node">
<title>IdentityManagementModule</title>
<polygon fill="#8dd3c7" stroke="black" points="200.18,-84.8 197.18,-88.8 176.18,-88.8 173.18,-84.8 23.82,-84.8 23.82,-48.8 200.18,-48.8 200.18,-84.8"/>
<text text-anchor="middle" x="112" y="-62.6" font-family="Times,serif" font-size="14.00">IdentityManagementModule</text>
</g>
<!-- SystemModule -->
<g id="node2" class="node">
<title>SystemModule</title>
<polygon fill="#8dd3c7" stroke="black" points="462.28,-149.8 459.28,-153.8 438.28,-153.8 435.28,-149.8 361.72,-149.8 361.72,-113.8 462.28,-113.8 462.28,-149.8"/>
<text text-anchor="middle" x="412" y="-127.6" font-family="Times,serif" font-size="14.00">SystemModule</text>
</g>
<!-- IdentityManagementModule&#45;&gt;SystemModule -->
<g id="edge1" class="edge">
<title>IdentityManagementModule&#45;&gt;SystemModule</title>
<path fill="none" stroke="black" d="M112,-84.91C112,-104.14 112,-131.8 112,-131.8 112,-131.8 351.45,-131.8 351.45,-131.8"/>
<polygon fill="black" stroke="black" points="351.45,-135.3 361.45,-131.8 351.45,-128.3 351.45,-135.3"/>
</g>
<!-- SystemOidcService  -->
<g id="node3" class="node">
<title>SystemOidcService </title>
<polygon fill="#fb8072" stroke="black" points="610.92,-214.8 481.08,-214.8 481.08,-178.8 610.92,-178.8 610.92,-214.8"/>
<text text-anchor="middle" x="546" y="-192.6" font-family="Times,serif" font-size="14.00">SystemOidcService </text>
</g>
<!-- SystemModule&#45;&gt;SystemOidcService  -->
<g id="edge2" class="edge">
<title>SystemModule&#45;&gt;SystemOidcService </title>
<path fill="none" stroke="black" stroke-dasharray="5,2" d="M462.45,-140.8C477.27,-140.8 489.59,-140.8 489.59,-140.8 489.59,-140.8 489.59,-168.77 489.59,-168.77"/>
<polygon fill="black" stroke="black" points="486.09,-168.77 489.59,-178.77 493.09,-168.77 486.09,-168.77"/>
</g>
<!-- SystemService  -->
<g id="node4" class="node">
<title>SystemService </title>
<polygon fill="#fb8072" stroke="black" points="463.21,-214.8 360.79,-214.8 360.79,-178.8 463.21,-178.8 463.21,-214.8"/>
<text text-anchor="middle" x="412" y="-192.6" font-family="Times,serif" font-size="14.00">SystemService </text>
</g>
<!-- SystemModule&#45;&gt;SystemService  -->
<g id="edge3" class="edge">
<title>SystemModule&#45;&gt;SystemService </title>
<path fill="none" stroke="black" stroke-dasharray="5,2" d="M412,-149.91C412,-149.91 412,-168.79 412,-168.79"/>
<polygon fill="black" stroke="black" points="408.5,-168.79 412,-178.79 415.5,-168.79 408.5,-168.79"/>
</g>
<!-- SystemUc  -->
<g id="node5" class="node">
<title>SystemUc </title>
<polygon fill="#fb8072" stroke="black" points="342.55,-214.8 265.45,-214.8 265.45,-178.8 342.55,-178.8 342.55,-214.8"/>
<text text-anchor="middle" x="304" y="-192.6" font-family="Times,serif" font-size="14.00">SystemUc </text>
</g>
<!-- SystemModule&#45;&gt;SystemUc  -->
<g id="edge4" class="edge">
<title>SystemModule&#45;&gt;SystemUc </title>
<path fill="none" stroke="black" stroke-dasharray="5,2" d="M361.37,-140.8C346.49,-140.8 334.13,-140.8 334.13,-140.8 334.13,-140.8 334.13,-168.77 334.13,-168.77"/>
<polygon fill="black" stroke="black" points="330.63,-168.77 334.13,-178.77 337.63,-168.77 330.63,-168.77"/>
</g>
<!-- SystemOidcService -->
<g id="node6" class="node">
<title>SystemOidcService</title>
<ellipse fill="#fdb462" stroke="black" cx="723" cy="-66.8" rx="87.41" ry="18"/>
<text text-anchor="middle" x="723" y="-62.6" font-family="Times,serif" font-size="14.00">SystemOidcService</text>
</g>
<!-- SystemOidcService&#45;&gt;SystemModule -->
<g id="edge5" class="edge">
<title>SystemOidcService&#45;&gt;SystemModule</title>
<path fill="none" stroke="black" d="M723,-84.91C723,-104.14 723,-131.8 723,-131.8 723,-131.8 472.31,-131.8 472.31,-131.8"/>
<polygon fill="black" stroke="black" points="472.31,-128.3 462.31,-131.8 472.31,-135.3 472.31,-128.3"/>
</g>
<!-- SystemRepo -->
<g id="node7" class="node">
<title>SystemRepo</title>
<ellipse fill="#fdb462" stroke="black" cx="558" cy="-66.8" rx="59.72" ry="18"/>
<text text-anchor="middle" x="558" y="-62.6" font-family="Times,serif" font-size="14.00">SystemRepo</text>
</g>
<!-- SystemRepo&#45;&gt;SystemModule -->
<g id="edge6" class="edge">
<title>SystemRepo&#45;&gt;SystemModule</title>
<path fill="none" stroke="black" d="M554.55,-84.83C554.55,-101.2 554.55,-122.8 554.55,-122.8 554.55,-122.8 472.66,-122.8 472.66,-122.8"/>
<polygon fill="black" stroke="black" points="472.66,-119.3 462.66,-122.8 472.66,-126.3 472.66,-119.3"/>
</g>
<!-- SystemService -->
<g id="node8" class="node">
<title>SystemService</title>
<ellipse fill="#fdb462" stroke="black" cx="412" cy="-66.8" rx="68.36" ry="18"/>
<text text-anchor="middle" x="412" y="-62.6" font-family="Times,serif" font-size="14.00">SystemService</text>
</g>
<!-- SystemService&#45;&gt;SystemModule -->
<g id="edge7" class="edge">
<title>SystemService&#45;&gt;SystemModule</title>
<path fill="none" stroke="black" d="M412,-84.91C412,-84.91 412,-103.79 412,-103.79"/>
<polygon fill="black" stroke="black" points="408.5,-103.79 412,-113.79 415.5,-103.79 408.5,-103.79"/>
</g>
<!-- SystemUc -->
<g id="node9" class="node">
<title>SystemUc</title>
<ellipse fill="#fdb462" stroke="black" cx="275" cy="-66.8" rx="50.97" ry="18"/>
<text text-anchor="middle" x="275" y="-62.6" font-family="Times,serif" font-size="14.00">SystemUc</text>
</g>
<!-- SystemUc&#45;&gt;SystemModule -->
<g id="edge8" class="edge">
<title>SystemUc&#45;&gt;SystemModule</title>
<path fill="none" stroke="black" d="M295.6,-83.3C295.6,-99.82 295.6,-122.8 295.6,-122.8 295.6,-122.8 351.62,-122.8 351.62,-122.8"/>
<polygon fill="black" stroke="black" points="351.62,-126.3 361.62,-122.8 351.62,-119.3 351.62,-126.3"/>
</g>
</g>
</svg>
