<?xml version="1.0" encoding="UTF-8" standalone="no"?>
<!DOCTYPE svg PUBLIC "-//W3C//DTD SVG 1.1//EN"
 "http://www.w3.org/Graphics/SVG/1.1/DTD/svg11.dtd">
<!-- Generated by graphviz version 2.47.0 (20210316.0004)
 -->
<!-- Title: dependencies Pages: 1 -->
<svg width="1128pt" height="284pt"
 viewBox="0.00 0.00 1128.00 284.00" xmlns="http://www.w3.org/2000/svg" xmlns:xlink="http://www.w3.org/1999/xlink">
<g id="graph0" class="graph" transform="scale(1 1) rotate(0) translate(4 280)">
<title>dependencies</title>
<polygon fill="white" stroke="transparent" points="-4,4 -4,-280 1124,-280 1124,4 -4,4"/>
<text text-anchor="start" x="539.01" y="-42.4" font-family="Times-12" font-weight="bold" font-size="14.00">Legend</text>
<polygon fill="#ffffb3" stroke="transparent" points="326,-10 326,-30 346,-30 346,-10 326,-10"/>
<text text-anchor="start" x="349.63" y="-15.4" font-family="Times-12" font-size="14.00"> &#160;Declarations</text>
<polygon fill="#8dd3c7" stroke="transparent" points="439,-10 439,-30 459,-30 459,-10 439,-10"/>
<text text-anchor="start" x="462.73" y="-15.4" font-family="Times-12" font-size="14.00"> &#160;Module</text>
<polygon fill="#80b1d3" stroke="transparent" points="525,-10 525,-30 545,-30 545,-10 525,-10"/>
<text text-anchor="start" x="548.78" y="-15.4" font-family="Times-12" font-size="14.00"> &#160;Bootstrap</text>
<polygon fill="#fdb462" stroke="transparent" points="622,-10 622,-30 642,-30 642,-10 622,-10"/>
<text text-anchor="start" x="645.67" y="-15.4" font-family="Times-12" font-size="14.00"> &#160;Providers</text>
<polygon fill="#fb8072" stroke="transparent" points="718,-10 718,-30 738,-30 738,-10 718,-10"/>
<text text-anchor="start" x="741.73" y="-15.4" font-family="Times-12" font-size="14.00"> &#160;Exports</text>
<g id="clust1" class="cluster">
<title>cluster_SystemModule</title>
<polygon fill="none" stroke="black" stroke-dasharray="1,5" points="8,-70 8,-268 1112,-268 1112,-70 8,-70"/>
</g>
<g id="clust4" class="cluster">
<title>cluster_SystemModule_exports</title>
<polygon fill="none" stroke="black" points="311,-208 311,-260 739,-260 739,-208 311,-208"/>
</g>
<g id="clust3" class="cluster">
<title>cluster_SystemModule_imports</title>
<polygon fill="none" stroke="black" points="912,-78 912,-130 1104,-130 1104,-78 912,-78"/>
</g>
<g id="clust6" class="cluster">
<title>cluster_SystemModule_providers</title>
<polygon fill="none" stroke="black" points="16,-78 16,-130 904,-130 904,-78 16,-78"/>
</g>
<!-- IdentityManagementModule -->
<g id="node1" class="node">
<title>IdentityManagementModule</title>
<polygon fill="#8dd3c7" stroke="black" points="1096.18,-122 1093.18,-126 1072.18,-126 1069.18,-122 919.82,-122 919.82,-86 1096.18,-86 1096.18,-122"/>
<text text-anchor="middle" x="1008" y="-99.8" font-family="Times,serif" font-size="14.00">IdentityManagementModule</text>
</g>
<!-- SystemModule -->
<g id="node2" class="node">
<title>SystemModule</title>
<polygon fill="#8dd3c7" stroke="black" points="554.27,-187 551.27,-191 530.27,-191 527.27,-187 453.73,-187 453.73,-151 554.27,-151 554.27,-187"/>
<text text-anchor="middle" x="504" y="-164.8" font-family="Times,serif" font-size="14.00">SystemModule</text>
</g>
<!-- IdentityManagementModule&#45;&gt;SystemModule -->
<g id="edge1" class="edge">
<title>IdentityManagementModule&#45;&gt;SystemModule</title>
<path fill="none" stroke="black" d="M1008,-122.11C1008,-141.34 1008,-169 1008,-169 1008,-169 564.63,-169 564.63,-169"/>
<polygon fill="black" stroke="black" points="564.63,-165.5 554.63,-169 564.63,-172.5 564.63,-165.5"/>
</g>
<!-- LegacySystemService  -->
<g id="node3" class="node">
<title>LegacySystemService </title>
<polygon fill="#fb8072" stroke="black" points="730.9,-252 587.1,-252 587.1,-216 730.9,-216 730.9,-252"/>
<text text-anchor="middle" x="659" y="-229.8" font-family="Times,serif" font-size="14.00">LegacySystemService </text>
</g>
<!-- SystemModule&#45;&gt;LegacySystemService  -->
<g id="edge2" class="edge">
<title>SystemModule&#45;&gt;LegacySystemService </title>
<path fill="none" stroke="black" stroke-dasharray="5,2" d="M554.31,-178C594.61,-178 644.45,-178 644.45,-178 644.45,-178 644.45,-205.97 644.45,-205.97"/>
<polygon fill="black" stroke="black" points="640.95,-205.97 644.45,-215.97 647.95,-205.97 640.95,-205.97"/>
</g>
<!-- SystemOidcService  -->
<g id="node4" class="node">
<title>SystemOidcService </title>
<polygon fill="#fb8072" stroke="black" points="568.91,-252 439.09,-252 439.09,-216 568.91,-216 568.91,-252"/>
<text text-anchor="middle" x="504" y="-229.8" font-family="Times,serif" font-size="14.00">SystemOidcService </text>
</g>
<!-- SystemModule&#45;&gt;SystemOidcService  -->
<g id="edge3" class="edge">
<title>SystemModule&#45;&gt;SystemOidcService </title>
<path fill="none" stroke="black" stroke-dasharray="5,2" d="M504,-187.11C504,-187.11 504,-205.99 504,-205.99"/>
<polygon fill="black" stroke="black" points="500.5,-205.99 504,-215.99 507.5,-205.99 500.5,-205.99"/>
</g>
<!-- SystemService  -->
<g id="node5" class="node">
<title>SystemService </title>
<polygon fill="#fb8072" stroke="black" points="421.2,-252 318.8,-252 318.8,-216 421.2,-216 421.2,-252"/>
<text text-anchor="middle" x="370" y="-229.8" font-family="Times,serif" font-size="14.00">SystemService </text>
</g>
<!-- SystemModule&#45;&gt;SystemService  -->
<g id="edge4" class="edge">
<title>SystemModule&#45;&gt;SystemService </title>
<path fill="none" stroke="black" stroke-dasharray="5,2" d="M453.72,-178C415.7,-178 370,-178 370,-178 370,-178 370,-205.97 370,-205.97"/>
<polygon fill="black" stroke="black" points="366.5,-205.97 370,-215.97 373.5,-205.97 366.5,-205.97"/>
</g>
<!-- LegacySystemRepo -->
<g id="node6" class="node">
<title>LegacySystemRepo</title>
<ellipse fill="#fdb462" stroke="black" cx="808" cy="-104" rx="88.04" ry="18"/>
<text text-anchor="middle" x="808" y="-99.8" font-family="Times,serif" font-size="14.00">LegacySystemRepo</text>
</g>
<!-- LegacySystemRepo&#45;&gt;SystemModule -->
<g id="edge5" class="edge">
<title>LegacySystemRepo&#45;&gt;SystemModule</title>
<path fill="none" stroke="black" d="M725.34,-110.42C725.34,-125.13 725.34,-160 725.34,-160 725.34,-160 564.5,-160 564.5,-160"/>
<polygon fill="black" stroke="black" points="564.5,-156.5 554.5,-160 564.5,-163.5 564.5,-156.5"/>
</g>
<!-- LegacySystemService -->
<g id="node7" class="node">
<title>LegacySystemService</title>
<ellipse fill="#fdb462" stroke="black" cx="605" cy="-104" rx="96.69" ry="18"/>
<text text-anchor="middle" x="605" y="-99.8" font-family="Times,serif" font-size="14.00">LegacySystemService</text>
</g>
<!-- LegacySystemService&#45;&gt;SystemModule -->
<g id="edge6" class="edge">
<title>LegacySystemService&#45;&gt;SystemModule</title>
<path fill="none" stroke="black" d="M531.27,-115.92C531.27,-115.92 531.27,-140.77 531.27,-140.77"/>
<polygon fill="black" stroke="black" points="527.77,-140.77 531.27,-150.77 534.77,-140.77 527.77,-140.77"/>
</g>
<!-- SystemOidcService -->
<g id="node8" class="node">
<title>SystemOidcService</title>
<ellipse fill="#fdb462" stroke="black" cx="403" cy="-104" rx="87.39" ry="18"/>
<text text-anchor="middle" x="403" y="-99.8" font-family="Times,serif" font-size="14.00">SystemOidcService</text>
</g>
<!-- SystemOidcService&#45;&gt;SystemModule -->
<g id="edge7" class="edge">
<title>SystemOidcService&#45;&gt;SystemModule</title>
<path fill="none" stroke="black" d="M471.91,-115.32C471.91,-115.32 471.91,-140.94 471.91,-140.94"/>
<polygon fill="black" stroke="black" points="468.41,-140.94 471.91,-150.94 475.41,-140.94 468.41,-140.94"/>
</g>
<!-- SystemRepo -->
<g id="node9" class="node">
<title>SystemRepo</title>
<ellipse fill="#fdb462" stroke="black" cx="238" cy="-104" rx="59.71" ry="18"/>
<text text-anchor="middle" x="238" y="-99.8" font-family="Times,serif" font-size="14.00">SystemRepo</text>
</g>
<!-- SystemRepo&#45;&gt;SystemModule -->
<g id="edge8" class="edge">
<title>SystemRepo&#45;&gt;SystemModule</title>
<path fill="none" stroke="black" d="M238,-122.03C238,-138.4 238,-160 238,-160 238,-160 443.65,-160 443.65,-160"/>
<polygon fill="black" stroke="black" points="443.65,-163.5 453.65,-160 443.65,-156.5 443.65,-163.5"/>
</g>
<!-- SystemService -->
<g id="node10" class="node">
<title>SystemService</title>
<ellipse fill="#fdb462" stroke="black" cx="92" cy="-104" rx="68.35" ry="18"/>
<text text-anchor="middle" x="92" y="-99.8" font-family="Times,serif" font-size="14.00">SystemService</text>
</g>
<!-- SystemService&#45;&gt;SystemModule -->
<g id="edge9" class="edge">
<title>SystemService&#45;&gt;SystemModule</title>
<path fill="none" stroke="black" d="M92,-122.11C92,-141.34 92,-169 92,-169 92,-169 443.48,-169 443.48,-169"/>
<polygon fill="black" stroke="black" points="443.48,-172.5 453.48,-169 443.48,-165.5 443.48,-172.5"/>
</g>
</g>
</svg>
