<?xml version="1.0" encoding="UTF-8" standalone="no"?>
<!DOCTYPE svg PUBLIC "-//W3C//DTD SVG 1.1//EN"
 "http://www.w3.org/Graphics/SVG/1.1/DTD/svg11.dtd">
<!-- Generated by graphviz version 2.47.0 (20210316.0004)
 -->
<!-- Title: dependencies Pages: 1 -->
<svg width="504pt" height="284pt"
 viewBox="0.00 0.00 504.00 284.00" xmlns="http://www.w3.org/2000/svg" xmlns:xlink="http://www.w3.org/1999/xlink">
<g id="graph0" class="graph" transform="scale(1 1) rotate(0) translate(4 280)">
<title>dependencies</title>
<polygon fill="white" stroke="transparent" points="-4,4 -4,-280 500,-280 500,4 -4,4"/>
<text text-anchor="start" x="227.01" y="-42.4" font-family="Times-12" font-weight="bold" font-size="14.00">Legend</text>
<polygon fill="#ffffb3" stroke="transparent" points="14,-10 14,-30 34,-30 34,-10 14,-10"/>
<text text-anchor="start" x="37.63" y="-15.4" font-family="Times-12" font-size="14.00"> &#160;Declarations</text>
<polygon fill="#8dd3c7" stroke="transparent" points="127,-10 127,-30 147,-30 147,-10 127,-10"/>
<text text-anchor="start" x="150.73" y="-15.4" font-family="Times-12" font-size="14.00"> &#160;Module</text>
<polygon fill="#80b1d3" stroke="transparent" points="213,-10 213,-30 233,-30 233,-10 213,-10"/>
<text text-anchor="start" x="236.78" y="-15.4" font-family="Times-12" font-size="14.00"> &#160;Bootstrap</text>
<polygon fill="#fdb462" stroke="transparent" points="310,-10 310,-30 330,-30 330,-10 310,-10"/>
<text text-anchor="start" x="333.67" y="-15.4" font-family="Times-12" font-size="14.00"> &#160;Providers</text>
<polygon fill="#fb8072" stroke="transparent" points="406,-10 406,-30 426,-30 426,-10 406,-10"/>
<text text-anchor="start" x="429.73" y="-15.4" font-family="Times-12" font-size="14.00"> &#160;Exports</text>
<g id="clust1" class="cluster">
<title>cluster_SystemModule</title>
<polygon fill="none" stroke="black" stroke-dasharray="1,5" points="64,-70 64,-268 432,-268 432,-70 64,-70"/>
</g>
<g id="clust4" class="cluster">
<title>cluster_SystemModule_exports</title>
<polygon fill="none" stroke="black" points="199,-208 199,-260 317,-260 317,-208 199,-208"/>
</g>
<g id="clust6" class="cluster">
<title>cluster_SystemModule_providers</title>
<polygon fill="none" stroke="black" points="272,-78 272,-130 424,-130 424,-78 272,-78"/>
</g>
<g id="clust3" class="cluster">
<title>cluster_SystemModule_imports</title>
<polygon fill="none" stroke="black" points="72,-78 72,-130 264,-130 264,-78 72,-78"/>
</g>
<!-- IdentityManagementModule -->
<g id="node1" class="node">
<title>IdentityManagementModule</title>
<polygon fill="#8dd3c7" stroke="black" points="256.18,-122 253.18,-126 232.18,-126 229.18,-122 79.82,-122 79.82,-86 256.18,-86 256.18,-122"/>
<text text-anchor="middle" x="168" y="-99.8" font-family="Times,serif" font-size="14.00">IdentityManagementModule</text>
</g>
<!-- SystemModule -->
<g id="node2" class="node">
<title>SystemModule</title>
<polygon fill="#8dd3c7" stroke="black" points="308.27,-187 305.27,-191 284.27,-191 281.27,-187 207.73,-187 207.73,-151 308.27,-151 308.27,-187"/>
<text text-anchor="middle" x="258" y="-164.8" font-family="Times,serif" font-size="14.00">SystemModule</text>
</g>
<!-- IdentityManagementModule&#45;&gt;SystemModule -->
<g id="edge1" class="edge">
<title>IdentityManagementModule&#45;&gt;SystemModule</title>
<path fill="none" stroke="black" d="M231.85,-122.11C231.85,-122.11 231.85,-140.99 231.85,-140.99"/>
<polygon fill="black" stroke="black" points="228.35,-140.99 231.85,-150.99 235.35,-140.99 228.35,-140.99"/>
</g>
<!-- SystemService  -->
<g id="node3" class="node">
<title>SystemService </title>
<polygon fill="#fb8072" stroke="black" points="309.2,-252 206.8,-252 206.8,-216 309.2,-216 309.2,-252"/>
<text text-anchor="middle" x="258" y="-229.8" font-family="Times,serif" font-size="14.00">SystemService </text>
</g>
<!-- SystemModule&#45;&gt;SystemService  -->
<g id="edge2" class="edge">
<title>SystemModule&#45;&gt;SystemService </title>
<path fill="none" stroke="black" stroke-dasharray="5,2" d="M258,-187.11C258,-187.11 258,-205.99 258,-205.99"/>
<polygon fill="black" stroke="black" points="254.5,-205.99 258,-215.99 261.5,-205.99 254.5,-205.99"/>
</g>
<!-- SystemService -->
<g id="node4" class="node">
<title>SystemService</title>
<ellipse fill="#fdb462" stroke="black" cx="348" cy="-104" rx="68.35" ry="18"/>
<text text-anchor="middle" x="348" y="-99.8" font-family="Times,serif" font-size="14.00">SystemService</text>
</g>
<!-- SystemService&#45;&gt;SystemModule -->
<g id="edge3" class="edge">
<title>SystemService&#45;&gt;SystemModule</title>
<path fill="none" stroke="black" d="M293.98,-115.32C293.98,-115.32 293.98,-140.94 293.98,-140.94"/>
<polygon fill="black" stroke="black" points="290.48,-140.94 293.98,-150.94 297.48,-140.94 290.48,-140.94"/>
</g>
</g>
</svg>
