<?xml version="1.0" encoding="UTF-8" standalone="no"?>
<!DOCTYPE svg PUBLIC "-//W3C//DTD SVG 1.1//EN"
 "http://www.w3.org/Graphics/SVG/1.1/DTD/svg11.dtd">
<!-- Generated by graphviz version 2.47.0 (20210316.0004)
 -->
<!-- Title: dependencies Pages: 1 -->
<svg width="504pt" height="211pt"
 viewBox="0.00 0.00 504.00 211.00" xmlns="http://www.w3.org/2000/svg" xmlns:xlink="http://www.w3.org/1999/xlink">
<g id="graph0" class="graph" transform="scale(1 1) rotate(0) translate(4 207)">
<title>dependencies</title>
<polygon fill="white" stroke="transparent" points="-4,4 -4,-207 500,-207 500,4 -4,4"/>
<text text-anchor="start" x="227.01" y="-42.4" font-family="Times-12" font-weight="bold" font-size="14.00">Legend</text>
<polygon fill="#ffffb3" stroke="transparent" points="14,-10 14,-30 34,-30 34,-10 14,-10"/>
<text text-anchor="start" x="37.63" y="-15.4" font-family="Times-12" font-size="14.00"> &#160;Declarations</text>
<polygon fill="#8dd3c7" stroke="transparent" points="127,-10 127,-30 147,-30 147,-10 127,-10"/>
<text text-anchor="start" x="150.73" y="-15.4" font-family="Times-12" font-size="14.00"> &#160;Module</text>
<polygon fill="#80b1d3" stroke="transparent" points="213,-10 213,-30 233,-30 233,-10 213,-10"/>
<text text-anchor="start" x="236.78" y="-15.4" font-family="Times-12" font-size="14.00"> &#160;Bootstrap</text>
<polygon fill="#fdb462" stroke="transparent" points="310,-10 310,-30 330,-30 330,-10 310,-10"/>
<text text-anchor="start" x="333.67" y="-15.4" font-family="Times-12" font-size="14.00"> &#160;Providers</text>
<polygon fill="#fb8072" stroke="transparent" points="406,-10 406,-30 426,-30 426,-10 406,-10"/>
<text text-anchor="start" x="429.73" y="-15.4" font-family="Times-12" font-size="14.00"> &#160;Exports</text>
<g id="clust1" class="cluster">
<title>cluster_LessonApiModule</title>
<polygon fill="none" stroke="black" stroke-dasharray="1,5" points="40.5,-70 40.5,-195 455.5,-195 455.5,-70 40.5,-70"/>
</g>
<g id="clust3" class="cluster">
<title>cluster_LessonApiModule_imports</title>
<polygon fill="none" stroke="black" points="176.5,-78 176.5,-130 447.5,-130 447.5,-78 176.5,-78"/>
</g>
<g id="clust6" class="cluster">
<title>cluster_LessonApiModule_providers</title>
<polygon fill="none" stroke="black" points="48.5,-78 48.5,-130 168.5,-130 168.5,-78 48.5,-78"/>
</g>
<!-- AuthorizationModule -->
<g id="node1" class="node">
<title>AuthorizationModule</title>
<polygon fill="#8dd3c7" stroke="black" points="439.31,-122 436.31,-126 415.31,-126 412.31,-122 301.69,-122 301.69,-86 439.31,-86 439.31,-122"/>
<text text-anchor="middle" x="370.5" y="-99.8" font-family="Times,serif" font-size="14.00">AuthorizationModule</text>
</g>
<!-- LessonApiModule -->
<g id="node3" class="node">
<title>LessonApiModule</title>
<polygon fill="#8dd3c7" stroke="black" points="294.7,-187 291.7,-191 270.7,-191 267.7,-187 174.3,-187 174.3,-151 294.7,-151 294.7,-187"/>
<text text-anchor="middle" x="234.5" y="-164.8" font-family="Times,serif" font-size="14.00">LessonApiModule</text>
</g>
<!-- AuthorizationModule&#45;&gt;LessonApiModule -->
<g id="edge1" class="edge">
<title>AuthorizationModule&#45;&gt;LessonApiModule</title>
<path fill="none" stroke="black" d="M301.68,-104C294.27,-104 289.35,-104 289.35,-104 289.35,-104 289.35,-140.89 289.35,-140.89"/>
<polygon fill="black" stroke="black" points="285.85,-140.89 289.35,-150.89 292.85,-140.89 285.85,-140.89"/>
</g>
<!-- LessonModule -->
<g id="node2" class="node">
<title>LessonModule</title>
<polygon fill="#8dd3c7" stroke="black" points="284.21,-122 281.21,-126 260.21,-126 257.21,-122 184.79,-122 184.79,-86 284.21,-86 284.21,-122"/>
<text text-anchor="middle" x="234.5" y="-99.8" font-family="Times,serif" font-size="14.00">LessonModule</text>
</g>
<!-- LessonModule&#45;&gt;LessonApiModule -->
<g id="edge2" class="edge">
<title>LessonModule&#45;&gt;LessonApiModule</title>
<path fill="none" stroke="black" d="M234.5,-122.11C234.5,-122.11 234.5,-140.99 234.5,-140.99"/>
<polygon fill="black" stroke="black" points="231,-140.99 234.5,-150.99 238,-140.99 231,-140.99"/>
</g>
<!-- LessonUC -->
<g id="node4" class="node">
<title>LessonUC</title>
<ellipse fill="#fdb462" stroke="black" cx="108.5" cy="-104" rx="51.61" ry="18"/>
<text text-anchor="middle" x="108.5" y="-99.8" font-family="Times,serif" font-size="14.00">LessonUC</text>
</g>
<!-- LessonUC&#45;&gt;LessonApiModule -->
<g id="edge3" class="edge">
<title>LessonUC&#45;&gt;LessonApiModule</title>
<path fill="none" stroke="black" d="M160.58,-104C171.43,-104 179.65,-104 179.65,-104 179.65,-104 179.65,-140.89 179.65,-140.89"/>
<polygon fill="black" stroke="black" points="176.15,-140.89 179.65,-150.89 183.15,-140.89 176.15,-140.89"/>
</g>
</g>
</svg>
