<?xml version="1.0" encoding="UTF-8" standalone="no"?>
<!DOCTYPE svg PUBLIC "-//W3C//DTD SVG 1.1//EN"
 "http://www.w3.org/Graphics/SVG/1.1/DTD/svg11.dtd">
<!-- Generated by graphviz version 5.0.0 (20220707.1540)
 -->
<!-- Title: dependencies Pages: 1 -->
<svg width="439pt" height="174pt"
 viewBox="0.00 0.00 439.00 173.80" xmlns="http://www.w3.org/2000/svg" xmlns:xlink="http://www.w3.org/1999/xlink">
<g id="graph0" class="graph" transform="scale(1 1) rotate(0) translate(4 169.8)">
<title>dependencies</title>
<polygon fill="white" stroke="transparent" points="-4,4 -4,-169.8 435,-169.8 435,4 -4,4"/>
<text text-anchor="middle" x="215.5" y="-8.2" font-family="sans-serif" font-size="14.00">dependencies</text>
<g id="clust1" class="cluster">
<title>cluster_LessonApiModule</title>
<polygon fill="none" stroke="black" stroke-dasharray="1,5" points="8,-32.8 8,-157.8 423,-157.8 423,-32.8 8,-32.8"/>
</g>
<g id="clust6" class="cluster">
<title>cluster_LessonApiModule_providers</title>
<polygon fill="none" stroke="black" points="295,-40.8 295,-92.8 415,-92.8 415,-40.8 295,-40.8"/>
</g>
<g id="clust3" class="cluster">
<title>cluster_LessonApiModule_imports</title>
<polygon fill="none" stroke="black" points="16,-40.8 16,-92.8 287,-92.8 287,-40.8 16,-40.8"/>
</g>
<!-- AuthorizationModule -->
<g id="node1" class="node">
<title>AuthorizationModule</title>
<polygon fill="#8dd3c7" stroke="black" points="278.81,-84.8 275.81,-88.8 254.81,-88.8 251.81,-84.8 141.19,-84.8 141.19,-48.8 278.81,-48.8 278.81,-84.8"/>
<text text-anchor="middle" x="210" y="-62.6" font-family="Times,serif" font-size="14.00">AuthorizationModule</text>
</g>
<!-- LessonApiModule -->
<g id="node3" class="node">
<title>LessonApiModule</title>
<polygon fill="#8dd3c7" stroke="black" points="270.21,-149.8 267.21,-153.8 246.21,-153.8 243.21,-149.8 149.79,-149.8 149.79,-113.8 270.21,-113.8 270.21,-149.8"/>
<text text-anchor="middle" x="210" y="-127.6" font-family="Times,serif" font-size="14.00">LessonApiModule</text>
</g>
<!-- AuthorizationModule&#45;&gt;LessonApiModule -->
<g id="edge1" class="edge">
<title>AuthorizationModule&#45;&gt;LessonApiModule</title>
<path fill="none" stroke="black" d="M210,-84.91C210,-84.91 210,-103.79 210,-103.79"/>
<polygon fill="black" stroke="black" points="206.5,-103.79 210,-113.79 213.5,-103.79 206.5,-103.79"/>
</g>
<!-- LessonModule -->
<g id="node2" class="node">
<title>LessonModule</title>
<polygon fill="#8dd3c7" stroke="black" points="123.71,-84.8 120.71,-88.8 99.71,-88.8 96.71,-84.8 24.29,-84.8 24.29,-48.8 123.71,-48.8 123.71,-84.8"/>
<text text-anchor="middle" x="74" y="-62.6" font-family="Times,serif" font-size="14.00">LessonModule</text>
</g>
<!-- LessonModule&#45;&gt;LessonApiModule -->
<g id="edge2" class="edge">
<title>LessonModule&#45;&gt;LessonApiModule</title>
<path fill="none" stroke="black" d="M74,-84.91C74,-104.14 74,-131.8 74,-131.8 74,-131.8 139.56,-131.8 139.56,-131.8"/>
<polygon fill="black" stroke="black" points="139.56,-135.3 149.56,-131.8 139.56,-128.3 139.56,-135.3"/>
</g>
<!-- LessonUC -->
<g id="node4" class="node">
<title>LessonUC</title>
<ellipse fill="#fdb462" stroke="black" cx="355" cy="-66.8" rx="51.62" ry="18"/>
<text text-anchor="middle" x="355" y="-62.6" font-family="Times,serif" font-size="14.00">LessonUC</text>
</g>
<!-- LessonUC&#45;&gt;LessonApiModule -->
<g id="edge3" class="edge">
<title>LessonUC&#45;&gt;LessonApiModule</title>
<path fill="none" stroke="black" d="M355,-84.91C355,-104.14 355,-131.8 355,-131.8 355,-131.8 280.23,-131.8 280.23,-131.8"/>
<polygon fill="black" stroke="black" points="280.23,-128.3 270.23,-131.8 280.23,-135.3 280.23,-128.3"/>
</g>
</g>
</svg>
