<?xml version="1.0" encoding="UTF-8" standalone="no"?>
<!DOCTYPE svg PUBLIC "-//W3C//DTD SVG 1.1//EN"
 "http://www.w3.org/Graphics/SVG/1.1/DTD/svg11.dtd">
<!-- Generated by graphviz version 2.47.0 (20210316.0004)
 -->
<!-- Title: dependencies Pages: 1 -->
<svg width="579pt" height="211pt"
 viewBox="0.00 0.00 579.00 211.00" xmlns="http://www.w3.org/2000/svg" xmlns:xlink="http://www.w3.org/1999/xlink">
<g id="graph0" class="graph" transform="scale(1 1) rotate(0) translate(4 207)">
<title>dependencies</title>
<polygon fill="white" stroke="transparent" points="-4,4 -4,-207 575,-207 575,4 -4,4"/>
<text text-anchor="start" x="264.51" y="-42.4" font-family="Times-12" font-weight="bold" font-size="14.00">Legend</text>
<polygon fill="#ffffb3" stroke="transparent" points="51.5,-10 51.5,-30 71.5,-30 71.5,-10 51.5,-10"/>
<text text-anchor="start" x="75.13" y="-15.4" font-family="Times-12" font-size="14.00"> &#160;Declarations</text>
<polygon fill="#8dd3c7" stroke="transparent" points="164.5,-10 164.5,-30 184.5,-30 184.5,-10 164.5,-10"/>
<text text-anchor="start" x="188.23" y="-15.4" font-family="Times-12" font-size="14.00"> &#160;Module</text>
<polygon fill="#80b1d3" stroke="transparent" points="250.5,-10 250.5,-30 270.5,-30 270.5,-10 250.5,-10"/>
<text text-anchor="start" x="274.28" y="-15.4" font-family="Times-12" font-size="14.00"> &#160;Bootstrap</text>
<polygon fill="#fdb462" stroke="transparent" points="347.5,-10 347.5,-30 367.5,-30 367.5,-10 347.5,-10"/>
<text text-anchor="start" x="371.17" y="-15.4" font-family="Times-12" font-size="14.00"> &#160;Providers</text>
<polygon fill="#fb8072" stroke="transparent" points="443.5,-10 443.5,-30 463.5,-30 463.5,-10 443.5,-10"/>
<text text-anchor="start" x="467.23" y="-15.4" font-family="Times-12" font-size="14.00"> &#160;Exports</text>
<g id="clust1" class="cluster">
<title>cluster_LessonApiModule</title>
<polygon fill="none" stroke="black" stroke-dasharray="1,5" points="8,-70 8,-195 563,-195 563,-70 8,-70"/>
</g>
<g id="clust3" class="cluster">
<title>cluster_LessonApiModule_imports</title>
<polygon fill="none" stroke="black" points="144,-78 144,-130 555,-130 555,-78 144,-78"/>
</g>
<g id="clust6" class="cluster">
<title>cluster_LessonApiModule_providers</title>
<polygon fill="none" stroke="black" points="16,-78 16,-130 136,-130 136,-78 16,-78"/>
</g>
<!-- AuthorizationModule -->
<g id="node1" class="node">
<title>AuthorizationModule</title>
<polygon fill="#8dd3c7" stroke="black" points="546.81,-122 543.81,-126 522.81,-126 519.81,-122 409.19,-122 409.19,-86 546.81,-86 546.81,-122"/>
<text text-anchor="middle" x="478" y="-99.8" font-family="Times,serif" font-size="14.00">AuthorizationModule</text>
</g>
<!-- LessonApiModule -->
<g id="node4" class="node">
<title>LessonApiModule</title>
<polygon fill="#8dd3c7" stroke="black" points="326.2,-187 323.2,-191 302.2,-191 299.2,-187 205.8,-187 205.8,-151 326.2,-151 326.2,-187"/>
<text text-anchor="middle" x="266" y="-164.8" font-family="Times,serif" font-size="14.00">LessonApiModule</text>
</g>
<!-- AuthorizationModule&#45;&gt;LessonApiModule -->
<g id="edge1" class="edge">
<title>AuthorizationModule&#45;&gt;LessonApiModule</title>
<path fill="none" stroke="black" d="M478,-122.11C478,-141.34 478,-169 478,-169 478,-169 336.18,-169 336.18,-169"/>
<polygon fill="black" stroke="black" points="336.18,-165.5 326.18,-169 336.18,-172.5 336.18,-165.5"/>
</g>
<!-- LearnroomModule -->
<g id="node2" class="node">
<title>LearnroomModule</title>
<polygon fill="#8dd3c7" stroke="black" points="390.74,-122 387.74,-126 366.74,-126 363.74,-122 269.26,-122 269.26,-86 390.74,-86 390.74,-122"/>
<text text-anchor="middle" x="330" y="-99.8" font-family="Times,serif" font-size="14.00">LearnroomModule</text>
</g>
<!-- LearnroomModule&#45;&gt;LessonApiModule -->
<g id="edge2" class="edge">
<title>LearnroomModule&#45;&gt;LessonApiModule</title>
<path fill="none" stroke="black" d="M297.62,-122.11C297.62,-122.11 297.62,-140.99 297.62,-140.99"/>
<polygon fill="black" stroke="black" points="294.12,-140.99 297.62,-150.99 301.12,-140.99 294.12,-140.99"/>
</g>
<!-- LessonModule -->
<g id="node3" class="node">
<title>LessonModule</title>
<polygon fill="#8dd3c7" stroke="black" points="251.71,-122 248.71,-126 227.71,-126 224.71,-122 152.29,-122 152.29,-86 251.71,-86 251.71,-122"/>
<text text-anchor="middle" x="202" y="-99.8" font-family="Times,serif" font-size="14.00">LessonModule</text>
</g>
<!-- LessonModule&#45;&gt;LessonApiModule -->
<g id="edge3" class="edge">
<title>LessonModule&#45;&gt;LessonApiModule</title>
<path fill="none" stroke="black" d="M228.75,-122.11C228.75,-122.11 228.75,-140.99 228.75,-140.99"/>
<polygon fill="black" stroke="black" points="225.25,-140.99 228.75,-150.99 232.25,-140.99 225.25,-140.99"/>
</g>
<!-- LessonUC -->
<g id="node5" class="node">
<title>LessonUC</title>
<ellipse fill="#fdb462" stroke="black" cx="76" cy="-104" rx="51.61" ry="18"/>
<text text-anchor="middle" x="76" y="-99.8" font-family="Times,serif" font-size="14.00">LessonUC</text>
</g>
<!-- LessonUC&#45;&gt;LessonApiModule -->
<g id="edge4" class="edge">
<title>LessonUC&#45;&gt;LessonApiModule</title>
<path fill="none" stroke="black" d="M76,-122.11C76,-141.34 76,-169 76,-169 76,-169 195.88,-169 195.88,-169"/>
<polygon fill="black" stroke="black" points="195.88,-172.5 205.88,-169 195.88,-165.5 195.88,-172.5"/>
</g>
</g>
</svg>
