<?xml version="1.0" encoding="UTF-8" standalone="no"?>
<!DOCTYPE svg PUBLIC "-//W3C//DTD SVG 1.1//EN"
 "http://www.w3.org/Graphics/SVG/1.1/DTD/svg11.dtd">
<!-- Generated by graphviz version 5.0.0 (20220707.1540)
 -->
<!-- Title: dependencies Pages: 1 -->
<svg width="439pt" height="174pt"
 viewBox="0.00 0.00 439.00 173.80" xmlns="http://www.w3.org/2000/svg" xmlns:xlink="http://www.w3.org/1999/xlink">
<g id="graph0" class="graph" transform="scale(1 1) rotate(0) translate(4 169.8)">
<title>dependencies</title>
<polygon fill="white" stroke="transparent" points="-4,4 -4,-169.8 435,-169.8 435,4 -4,4"/>
<text text-anchor="middle" x="215.5" y="-8.2" font-family="sans-serif" font-size="14.00">dependencies</text>
<g id="clust1" class="cluster">
<title>cluster_LessonApiModule</title>
<polygon fill="none" stroke="black" stroke-dasharray="1,5" points="8,-32.8 8,-157.8 423,-157.8 423,-32.8 8,-32.8"/>
</g>
<g id="clust3" class="cluster">
<title>cluster_LessonApiModule_imports</title>
<polygon fill="none" stroke="black" points="144,-40.8 144,-92.8 415,-92.8 415,-40.8 144,-40.8"/>
</g>
<g id="clust6" class="cluster">
<title>cluster_LessonApiModule_providers</title>
<polygon fill="none" stroke="black" points="16,-40.8 16,-92.8 136,-92.8 136,-40.8 16,-40.8"/>
</g>
<!-- AuthorizationModule -->
<g id="node1" class="node">
<title>AuthorizationModule</title>
<polygon fill="#8dd3c7" stroke="black" points="406.81,-84.8 403.81,-88.8 382.81,-88.8 379.81,-84.8 269.19,-84.8 269.19,-48.8 406.81,-48.8 406.81,-84.8"/>
<text text-anchor="middle" x="338" y="-62.6" font-family="Times,serif" font-size="14.00">AuthorizationModule</text>
</g>
<!-- LessonApiModule -->
<g id="node3" class="node">
<title>LessonApiModule</title>
<polygon fill="#8dd3c7" stroke="black" points="262.21,-149.8 259.21,-153.8 238.21,-153.8 235.21,-149.8 141.79,-149.8 141.79,-113.8 262.21,-113.8 262.21,-149.8"/>
<text text-anchor="middle" x="202" y="-127.6" font-family="Times,serif" font-size="14.00">LessonApiModule</text>
</g>
<!-- AuthorizationModule&#45;&gt;LessonApiModule -->
<g id="edge1" class="edge">
<title>AuthorizationModule&#45;&gt;LessonApiModule</title>
<path fill="none" stroke="black" d="M269.18,-66.8C261.77,-66.8 256.86,-66.8 256.86,-66.8 256.86,-66.8 256.86,-103.69 256.86,-103.69"/>
<polygon fill="black" stroke="black" points="253.36,-103.69 256.86,-113.69 260.36,-103.69 253.36,-103.69"/>
</g>
<!-- LessonModule -->
<g id="node2" class="node">
<title>LessonModule</title>
<polygon fill="#8dd3c7" stroke="black" points="251.71,-84.8 248.71,-88.8 227.71,-88.8 224.71,-84.8 152.29,-84.8 152.29,-48.8 251.71,-48.8 251.71,-84.8"/>
<text text-anchor="middle" x="202" y="-62.6" font-family="Times,serif" font-size="14.00">LessonModule</text>
</g>
<!-- LessonModule&#45;&gt;LessonApiModule -->
<g id="edge2" class="edge">
<title>LessonModule&#45;&gt;LessonApiModule</title>
<path fill="none" stroke="black" d="M202,-84.91C202,-84.91 202,-103.79 202,-103.79"/>
<polygon fill="black" stroke="black" points="198.5,-103.79 202,-113.79 205.5,-103.79 198.5,-103.79"/>
</g>
<!-- LessonUC -->
<g id="node4" class="node">
<title>LessonUC</title>
<ellipse fill="#fdb462" stroke="black" cx="76" cy="-66.8" rx="51.62" ry="18"/>
<text text-anchor="middle" x="76" y="-62.6" font-family="Times,serif" font-size="14.00">LessonUC</text>
</g>
<!-- LessonUC&#45;&gt;LessonApiModule -->
<g id="edge3" class="edge">
<title>LessonUC&#45;&gt;LessonApiModule</title>
<path fill="none" stroke="black" d="M128.08,-66.8C138.93,-66.8 147.14,-66.8 147.14,-66.8 147.14,-66.8 147.14,-103.69 147.14,-103.69"/>
<polygon fill="black" stroke="black" points="143.64,-103.69 147.14,-113.69 150.64,-103.69 143.64,-103.69"/>
</g>
</g>
</svg>
