<?xml version="1.0" encoding="UTF-8" standalone="no"?>
<!DOCTYPE svg PUBLIC "-//W3C//DTD SVG 1.1//EN"
 "http://www.w3.org/Graphics/SVG/1.1/DTD/svg11.dtd">
<!-- Generated by graphviz version 2.47.0 (20210316.0004)
 -->
<!-- Title: dependencies Pages: 1 -->
<svg width="546pt" height="211pt"
 viewBox="0.00 0.00 546.00 211.00" xmlns="http://www.w3.org/2000/svg" xmlns:xlink="http://www.w3.org/1999/xlink">
<g id="graph0" class="graph" transform="scale(1 1) rotate(0) translate(4 207)">
<title>dependencies</title>
<polygon fill="white" stroke="transparent" points="-4,4 -4,-207 542,-207 542,4 -4,4"/>
<text text-anchor="start" x="248.01" y="-42.4" font-family="Times-12" font-weight="bold" font-size="14.00">Legend</text>
<polygon fill="#ffffb3" stroke="transparent" points="35,-10 35,-30 55,-30 55,-10 35,-10"/>
<text text-anchor="start" x="58.63" y="-15.4" font-family="Times-12" font-size="14.00"> &#160;Declarations</text>
<polygon fill="#8dd3c7" stroke="transparent" points="148,-10 148,-30 168,-30 168,-10 148,-10"/>
<text text-anchor="start" x="171.73" y="-15.4" font-family="Times-12" font-size="14.00"> &#160;Module</text>
<polygon fill="#80b1d3" stroke="transparent" points="234,-10 234,-30 254,-30 254,-10 234,-10"/>
<text text-anchor="start" x="257.78" y="-15.4" font-family="Times-12" font-size="14.00"> &#160;Bootstrap</text>
<polygon fill="#fdb462" stroke="transparent" points="331,-10 331,-30 351,-30 351,-10 331,-10"/>
<text text-anchor="start" x="354.67" y="-15.4" font-family="Times-12" font-size="14.00"> &#160;Providers</text>
<polygon fill="#fb8072" stroke="transparent" points="427,-10 427,-30 447,-30 447,-10 427,-10"/>
<text text-anchor="start" x="450.73" y="-15.4" font-family="Times-12" font-size="14.00"> &#160;Exports</text>
<g id="clust1" class="cluster">
<title>cluster_MetaTagExtractorApiModule</title>
<polygon fill="none" stroke="black" stroke-dasharray="1,5" points="8,-70 8,-195 530,-195 530,-70 8,-70"/>
</g>
<g id="clust6" class="cluster">
<title>cluster_MetaTagExtractorApiModule_providers</title>
<polygon fill="none" stroke="black" points="320,-78 320,-130 522,-130 522,-78 320,-78"/>
</g>
<g id="clust3" class="cluster">
<title>cluster_MetaTagExtractorApiModule_imports</title>
<polygon fill="none" stroke="black" points="16,-78 16,-130 312,-130 312,-78 16,-78"/>
</g>
<!-- LoggerModule -->
<g id="node1" class="node">
<title>LoggerModule</title>
<polygon fill="#8dd3c7" stroke="black" points="303.98,-122 300.98,-126 279.98,-126 276.98,-122 204.02,-122 204.02,-86 303.98,-86 303.98,-122"/>
<text text-anchor="middle" x="254" y="-99.8" font-family="Times,serif" font-size="14.00">LoggerModule</text>
</g>
<!-- MetaTagExtractorApiModule -->
<g id="node3" class="node">
<title>MetaTagExtractorApiModule</title>
<polygon fill="#8dd3c7" stroke="black" points="345.66,-187 342.66,-191 321.66,-191 318.66,-187 162.34,-187 162.34,-151 345.66,-151 345.66,-187"/>
<text text-anchor="middle" x="254" y="-164.8" font-family="Times,serif" font-size="14.00">MetaTagExtractorApiModule</text>
</g>
<!-- LoggerModule&#45;&gt;MetaTagExtractorApiModule -->
<g id="edge1" class="edge">
<title>LoggerModule&#45;&gt;MetaTagExtractorApiModule</title>
<path fill="none" stroke="black" d="M254,-122.11C254,-122.11 254,-140.99 254,-140.99"/>
<polygon fill="black" stroke="black" points="250.5,-140.99 254,-150.99 257.5,-140.99 250.5,-140.99"/>
</g>
<!-- MetaTagExtractorModule -->
<g id="node2" class="node">
<title>MetaTagExtractorModule</title>
<polygon fill="#8dd3c7" stroke="black" points="186.17,-122 183.17,-126 162.17,-126 159.17,-122 23.83,-122 23.83,-86 186.17,-86 186.17,-122"/>
<text text-anchor="middle" x="105" y="-99.8" font-family="Times,serif" font-size="14.00">MetaTagExtractorModule</text>
</g>
<!-- MetaTagExtractorModule&#45;&gt;MetaTagExtractorApiModule -->
<g id="edge2" class="edge">
<title>MetaTagExtractorModule&#45;&gt;MetaTagExtractorApiModule</title>
<path fill="none" stroke="black" d="M174.25,-122.11C174.25,-122.11 174.25,-140.99 174.25,-140.99"/>
<polygon fill="black" stroke="black" points="170.75,-140.99 174.25,-150.99 177.75,-140.99 170.75,-140.99"/>
</g>
<!-- MetaTagExtractorUc -->
<g id="node4" class="node">
<title>MetaTagExtractorUc</title>
<ellipse fill="#fdb462" stroke="black" cx="421" cy="-104" rx="93.15" ry="18"/>
<text text-anchor="middle" x="421" y="-99.8" font-family="Times,serif" font-size="14.00">MetaTagExtractorUc</text>
</g>
<!-- MetaTagExtractorUc&#45;&gt;MetaTagExtractorApiModule -->
<g id="edge3" class="edge">
<title>MetaTagExtractorUc&#45;&gt;MetaTagExtractorApiModule</title>
<path fill="none" stroke="black" d="M336.75,-111.71C336.75,-111.71 336.75,-140.99 336.75,-140.99"/>
<polygon fill="black" stroke="black" points="333.25,-140.99 336.75,-150.99 340.25,-140.99 333.25,-140.99"/>
</g>
</g>
</svg>
