<?xml version="1.0" encoding="UTF-8" standalone="no"?>
<!DOCTYPE svg PUBLIC "-//W3C//DTD SVG 1.1//EN"
 "http://www.w3.org/Graphics/SVG/1.1/DTD/svg11.dtd">
<!-- Generated by graphviz version 2.47.0 (20210316.0004)
 -->
<!-- Title: dependencies Pages: 1 -->
<svg width="504pt" height="211pt"
 viewBox="0.00 0.00 504.00 211.00" xmlns="http://www.w3.org/2000/svg" xmlns:xlink="http://www.w3.org/1999/xlink">
<g id="graph0" class="graph" transform="scale(1 1) rotate(0) translate(4 207)">
<title>dependencies</title>
<polygon fill="white" stroke="transparent" points="-4,4 -4,-207 500,-207 500,4 -4,4"/>
<text text-anchor="start" x="227.01" y="-42.4" font-family="Times-12" font-weight="bold" font-size="14.00">Legend</text>
<polygon fill="#ffffb3" stroke="transparent" points="14,-10 14,-30 34,-30 34,-10 14,-10"/>
<text text-anchor="start" x="37.63" y="-15.4" font-family="Times-12" font-size="14.00"> &#160;Declarations</text>
<polygon fill="#8dd3c7" stroke="transparent" points="127,-10 127,-30 147,-30 147,-10 127,-10"/>
<text text-anchor="start" x="150.73" y="-15.4" font-family="Times-12" font-size="14.00"> &#160;Module</text>
<polygon fill="#80b1d3" stroke="transparent" points="213,-10 213,-30 233,-30 233,-10 213,-10"/>
<text text-anchor="start" x="236.78" y="-15.4" font-family="Times-12" font-size="14.00"> &#160;Bootstrap</text>
<polygon fill="#fdb462" stroke="transparent" points="310,-10 310,-30 330,-30 330,-10 310,-10"/>
<text text-anchor="start" x="333.67" y="-15.4" font-family="Times-12" font-size="14.00"> &#160;Providers</text>
<polygon fill="#fb8072" stroke="transparent" points="406,-10 406,-30 426,-30 426,-10 406,-10"/>
<text text-anchor="start" x="429.73" y="-15.4" font-family="Times-12" font-size="14.00"> &#160;Exports</text>
<g id="clust1" class="cluster">
<title>cluster_LegacySchoolAdminApiModule</title>
<polygon fill="none" stroke="black" stroke-dasharray="1,5" points="60,-70 60,-195 436,-195 436,-70 60,-70"/>
</g>
<g id="clust6" class="cluster">
<title>cluster_LegacySchoolAdminApiModule_providers</title>
<polygon fill="none" stroke="black" points="232,-78 232,-130 428,-130 428,-78 232,-78"/>
</g>
<g id="clust3" class="cluster">
<title>cluster_LegacySchoolAdminApiModule_imports</title>
<polygon fill="none" stroke="black" points="68,-78 68,-130 224,-130 224,-78 68,-78"/>
</g>
<!-- LegacySchoolModule -->
<g id="node1" class="node">
<title>LegacySchoolModule</title>
<polygon fill="#8dd3c7" stroke="black" points="215.63,-122 212.63,-126 191.63,-126 188.63,-122 76.37,-122 76.37,-86 215.63,-86 215.63,-122"/>
<text text-anchor="middle" x="146" y="-99.8" font-family="Times,serif" font-size="14.00">LegacySchoolModule</text>
</g>
<!-- LegacySchoolAdminApiModule -->
<g id="node2" class="node">
<title>LegacySchoolAdminApiModule</title>
<polygon fill="#8dd3c7" stroke="black" points="347.52,-187 344.52,-191 323.52,-191 320.52,-187 148.48,-187 148.48,-151 347.52,-151 347.52,-187"/>
<text text-anchor="middle" x="248" y="-164.8" font-family="Times,serif" font-size="14.00">LegacySchoolAdminApiModule</text>
</g>
<!-- LegacySchoolModule&#45;&gt;LegacySchoolAdminApiModule -->
<g id="edge1" class="edge">
<title>LegacySchoolModule&#45;&gt;LegacySchoolAdminApiModule</title>
<path fill="none" stroke="black" d="M182.03,-122.11C182.03,-122.11 182.03,-140.99 182.03,-140.99"/>
<polygon fill="black" stroke="black" points="178.53,-140.99 182.03,-150.99 185.53,-140.99 178.53,-140.99"/>
</g>
<!-- AdminApiSchoolUc -->
<g id="node3" class="node">
<title>AdminApiSchoolUc</title>
<ellipse fill="#fdb462" stroke="black" cx="330" cy="-104" rx="90.35" ry="18"/>
<text text-anchor="middle" x="330" y="-99.8" font-family="Times,serif" font-size="14.00">AdminApiSchoolUc</text>
</g>
<!-- AdminApiSchoolUc&#45;&gt;LegacySchoolAdminApiModule -->
<g id="edge2" class="edge">
<title>AdminApiSchoolUc&#45;&gt;LegacySchoolAdminApiModule</title>
<path fill="none" stroke="black" d="M293.67,-120.74C293.67,-120.74 293.67,-140.72 293.67,-140.72"/>
<polygon fill="black" stroke="black" points="290.17,-140.72 293.67,-150.72 297.17,-140.72 290.17,-140.72"/>
</g>
</g>
</svg>
