<?xml version="1.0" encoding="UTF-8" standalone="no"?>
<!DOCTYPE svg PUBLIC "-//W3C//DTD SVG 1.1//EN"
 "http://www.w3.org/Graphics/SVG/1.1/DTD/svg11.dtd">
<!-- Generated by graphviz version 5.0.0 (20220707.1540)
 -->
<!-- Title: dependencies Pages: 1 -->
<svg width="308pt" height="247pt"
 viewBox="0.00 0.00 308.00 246.80" xmlns="http://www.w3.org/2000/svg" xmlns:xlink="http://www.w3.org/1999/xlink">
<g id="graph0" class="graph" transform="scale(1 1) rotate(0) translate(4 242.8)">
<title>dependencies</title>
<polygon fill="white" stroke="transparent" points="-4,4 -4,-242.8 304,-242.8 304,4 -4,4"/>
<text text-anchor="middle" x="150" y="-8.2" font-family="sans-serif" font-size="14.00">dependencies</text>
<g id="clust1" class="cluster">
<title>cluster_DatabaseManagementModule</title>
<polygon fill="none" stroke="black" stroke-dasharray="1,5" points="8,-32.8 8,-230.8 292,-230.8 292,-32.8 8,-32.8"/>
</g>
<g id="clust4" class="cluster">
<title>cluster_DatabaseManagementModule_exports</title>
<polygon fill="none" stroke="black" points="49,-170.8 49,-222.8 251,-222.8 251,-170.8 49,-170.8"/>
</g>
<g id="clust6" class="cluster">
<title>cluster_DatabaseManagementModule_providers</title>
<polygon fill="none" stroke="black" points="16,-40.8 16,-92.8 284,-92.8 284,-40.8 16,-40.8"/>
</g>
<!-- DatabaseManagementService  -->
<g id="node1" class="node">
<title>DatabaseManagementService </title>
<polygon fill="#fb8072" stroke="black" points="242.87,-214.8 57.13,-214.8 57.13,-178.8 242.87,-178.8 242.87,-214.8"/>
<text text-anchor="middle" x="150" y="-192.6" font-family="Times,serif" font-size="14.00">DatabaseManagementService </text>
</g>
<!-- DatabaseManagementModule -->
<g id="node2" class="node">
<title>DatabaseManagementModule</title>
<polygon fill="#8dd3c7" stroke="black" points="241.94,-149.8 238.94,-153.8 217.94,-153.8 214.94,-149.8 58.06,-149.8 58.06,-113.8 241.94,-113.8 241.94,-149.8"/>
<text text-anchor="middle" x="150" y="-127.6" font-family="Times,serif" font-size="14.00">DatabaseManagementModule</text>
</g>
<!-- DatabaseManagementModule&#45;&gt;DatabaseManagementService  -->
<g id="edge1" class="edge">
<title>DatabaseManagementModule&#45;&gt;DatabaseManagementService </title>
<path fill="none" stroke="black" stroke-dasharray="5,2" d="M150,-149.91C150,-149.91 150,-168.79 150,-168.79"/>
<polygon fill="black" stroke="black" points="146.5,-168.79 150,-178.79 153.5,-168.79 146.5,-168.79"/>
</g>
<!-- DatabaseManagementService -->
<g id="node3" class="node">
<title>DatabaseManagementService</title>
<ellipse fill="#fdb462" stroke="black" cx="150" cy="-66.8" rx="125.59" ry="18"/>
<text text-anchor="middle" x="150" y="-62.6" font-family="Times,serif" font-size="14.00">DatabaseManagementService</text>
</g>
<!-- DatabaseManagementService&#45;&gt;DatabaseManagementModule -->
<g id="edge2" class="edge">
<title>DatabaseManagementService&#45;&gt;DatabaseManagementModule</title>
<path fill="none" stroke="black" d="M150,-84.91C150,-84.91 150,-103.79 150,-103.79"/>
<polygon fill="black" stroke="black" points="146.5,-103.79 150,-113.79 153.5,-103.79 146.5,-103.79"/>
</g>
</g>
</svg>
