<?xml version="1.0" encoding="UTF-8" standalone="no"?>
<!DOCTYPE svg PUBLIC "-//W3C//DTD SVG 1.1//EN"
 "http://www.w3.org/Graphics/SVG/1.1/DTD/svg11.dtd">
<!-- Generated by graphviz version 2.47.0 (20210316.0004)
 -->
<!-- Title: dependencies Pages: 1 -->
<svg width="1425pt" height="284pt"
 viewBox="0.00 0.00 1425.00 284.00" xmlns="http://www.w3.org/2000/svg" xmlns:xlink="http://www.w3.org/1999/xlink">
<g id="graph0" class="graph" transform="scale(1 1) rotate(0) translate(4 280)">
<title>dependencies</title>
<polygon fill="white" stroke="transparent" points="-4,4 -4,-280 1421,-280 1421,4 -4,4"/>
<text text-anchor="start" x="687.51" y="-42.4" font-family="Times-12" font-weight="bold" font-size="14.00">Legend</text>
<polygon fill="#ffffb3" stroke="transparent" points="474.5,-10 474.5,-30 494.5,-30 494.5,-10 474.5,-10"/>
<text text-anchor="start" x="498.13" y="-15.4" font-family="Times-12" font-size="14.00"> &#160;Declarations</text>
<polygon fill="#8dd3c7" stroke="transparent" points="587.5,-10 587.5,-30 607.5,-30 607.5,-10 587.5,-10"/>
<text text-anchor="start" x="611.23" y="-15.4" font-family="Times-12" font-size="14.00"> &#160;Module</text>
<polygon fill="#80b1d3" stroke="transparent" points="673.5,-10 673.5,-30 693.5,-30 693.5,-10 673.5,-10"/>
<text text-anchor="start" x="697.28" y="-15.4" font-family="Times-12" font-size="14.00"> &#160;Bootstrap</text>
<polygon fill="#fdb462" stroke="transparent" points="770.5,-10 770.5,-30 790.5,-30 790.5,-10 770.5,-10"/>
<text text-anchor="start" x="794.17" y="-15.4" font-family="Times-12" font-size="14.00"> &#160;Providers</text>
<polygon fill="#fb8072" stroke="transparent" points="866.5,-10 866.5,-30 886.5,-30 886.5,-10 866.5,-10"/>
<text text-anchor="start" x="890.23" y="-15.4" font-family="Times-12" font-size="14.00"> &#160;Exports</text>
<g id="clust1" class="cluster">
<title>cluster_CollaborativeStorageAdapterModule</title>
<polygon fill="none" stroke="black" stroke-dasharray="1,5" points="8,-70 8,-268 1409,-268 1409,-70 8,-70"/>
</g>
<g id="clust3" class="cluster">
<title>cluster_CollaborativeStorageAdapterModule_imports</title>
<polygon fill="none" stroke="black" points="1285,-78 1285,-130 1401,-130 1401,-78 1285,-78"/>
</g>
<g id="clust6" class="cluster">
<title>cluster_CollaborativeStorageAdapterModule_providers</title>
<polygon fill="none" stroke="black" points="16,-78 16,-130 1277,-130 1277,-78 16,-78"/>
</g>
<g id="clust4" class="cluster">
<title>cluster_CollaborativeStorageAdapterModule_exports</title>
<polygon fill="none" stroke="black" points="516,-208 516,-260 716,-260 716,-208 516,-208"/>
</g>
<!-- LoggerModule -->
<g id="node1" class="node">
<title>LoggerModule</title>
<polygon fill="#8dd3c7" stroke="black" points="1392.98,-122 1389.98,-126 1368.98,-126 1365.98,-122 1293.02,-122 1293.02,-86 1392.98,-86 1392.98,-122"/>
<text text-anchor="middle" x="1343" y="-99.8" font-family="Times,serif" font-size="14.00">LoggerModule</text>
</g>
<!-- CollaborativeStorageAdapterModule -->
<g id="node2" class="node">
<title>CollaborativeStorageAdapterModule</title>
<polygon fill="#8dd3c7" stroke="black" points="727.6,-187 724.6,-191 703.6,-191 700.6,-187 504.4,-187 504.4,-151 727.6,-151 727.6,-187"/>
<text text-anchor="middle" x="616" y="-164.8" font-family="Times,serif" font-size="14.00">CollaborativeStorageAdapterModule</text>
</g>
<!-- LoggerModule&#45;&gt;CollaborativeStorageAdapterModule -->
<g id="edge1" class="edge">
<title>LoggerModule&#45;&gt;CollaborativeStorageAdapterModule</title>
<path fill="none" stroke="black" d="M1343,-122.28C1343,-143.32 1343,-175 1343,-175 1343,-175 738,-175 738,-175"/>
<polygon fill="black" stroke="black" points="738,-171.5 728,-175 738,-178.5 738,-171.5"/>
</g>
<!-- CollaborativeStorageAdapter  -->
<g id="node3" class="node">
<title>CollaborativeStorageAdapter </title>
<polygon fill="#fb8072" stroke="black" points="707.55,-252 524.45,-252 524.45,-216 707.55,-216 707.55,-252"/>
<text text-anchor="middle" x="616" y="-229.8" font-family="Times,serif" font-size="14.00">CollaborativeStorageAdapter </text>
</g>
<!-- CollaborativeStorageAdapterModule&#45;&gt;CollaborativeStorageAdapter  -->
<g id="edge2" class="edge">
<title>CollaborativeStorageAdapterModule&#45;&gt;CollaborativeStorageAdapter </title>
<path fill="none" stroke="black" stroke-dasharray="5,2" d="M616,-187.11C616,-187.11 616,-205.99 616,-205.99"/>
<polygon fill="black" stroke="black" points="612.5,-205.99 616,-215.99 619.5,-205.99 612.5,-205.99"/>
</g>
<!-- CollaborativeStorageAdapter -->
<g id="node4" class="node">
<title>CollaborativeStorageAdapter</title>
<ellipse fill="#fdb462" stroke="black" cx="1145" cy="-104" rx="124.4" ry="18"/>
<text text-anchor="middle" x="1145" y="-99.8" font-family="Times,serif" font-size="14.00">CollaborativeStorageAdapter</text>
</g>
<!-- CollaborativeStorageAdapter&#45;&gt;CollaborativeStorageAdapterModule -->
<g id="edge3" class="edge">
<title>CollaborativeStorageAdapter&#45;&gt;CollaborativeStorageAdapterModule</title>
<path fill="none" stroke="black" d="M1145,-122.02C1145,-139.37 1145,-163 1145,-163 1145,-163 737.86,-163 737.86,-163"/>
<polygon fill="black" stroke="black" points="737.86,-159.5 727.86,-163 737.86,-166.5 737.86,-159.5"/>
</g>
<!-- CollaborativeStorageAdapterMapper -->
<g id="node5" class="node">
<title>CollaborativeStorageAdapterMapper</title>
<ellipse fill="#fdb462" stroke="black" cx="849" cy="-104" rx="154.45" ry="18"/>
<text text-anchor="middle" x="849" y="-99.8" font-family="Times,serif" font-size="14.00">CollaborativeStorageAdapterMapper</text>
</g>
<!-- CollaborativeStorageAdapterMapper&#45;&gt;CollaborativeStorageAdapterModule -->
<g id="edge4" class="edge">
<title>CollaborativeStorageAdapterMapper&#45;&gt;CollaborativeStorageAdapterModule</title>
<path fill="none" stroke="black" d="M711.29,-112.23C711.29,-112.23 711.29,-140.76 711.29,-140.76"/>
<polygon fill="black" stroke="black" points="707.79,-140.76 711.29,-150.76 714.79,-140.76 707.79,-140.76"/>
</g>
<!-- LtiToolRepo -->
<g id="node6" class="node">
<title>LtiToolRepo</title>
<ellipse fill="#fdb462" stroke="black" cx="616" cy="-104" rx="60.85" ry="18"/>
<text text-anchor="middle" x="616" y="-99.8" font-family="Times,serif" font-size="14.00">LtiToolRepo</text>
</g>
<!-- LtiToolRepo&#45;&gt;CollaborativeStorageAdapterModule -->
<g id="edge5" class="edge">
<title>LtiToolRepo&#45;&gt;CollaborativeStorageAdapterModule</title>
<path fill="none" stroke="black" d="M616,-122.11C616,-122.11 616,-140.99 616,-140.99"/>
<polygon fill="black" stroke="black" points="612.5,-140.99 616,-150.99 619.5,-140.99 612.5,-140.99"/>
</g>
<!-- NextcloudClient -->
<g id="node7" class="node">
<title>NextcloudClient</title>
<ellipse fill="#fdb462" stroke="black" cx="462" cy="-104" rx="74.74" ry="18"/>
<text text-anchor="middle" x="462" y="-99.8" font-family="Times,serif" font-size="14.00">NextcloudClient</text>
</g>
<!-- NextcloudClient&#45;&gt;CollaborativeStorageAdapterModule -->
<g id="edge6" class="edge">
<title>NextcloudClient&#45;&gt;CollaborativeStorageAdapterModule</title>
<path fill="none" stroke="black" d="M520.53,-115.32C520.53,-115.32 520.53,-140.94 520.53,-140.94"/>
<polygon fill="black" stroke="black" points="517.03,-140.94 520.53,-150.94 524.03,-140.94 517.03,-140.94"/>
</g>
<!-- NextcloudStrategy -->
<g id="node8" class="node">
<title>NextcloudStrategy</title>
<ellipse fill="#fdb462" stroke="black" cx="286" cy="-104" rx="83.39" ry="18"/>
<text text-anchor="middle" x="286" y="-99.8" font-family="Times,serif" font-size="14.00">NextcloudStrategy</text>
</g>
<!-- NextcloudStrategy&#45;&gt;CollaborativeStorageAdapterModule -->
<g id="edge7" class="edge">
<title>NextcloudStrategy&#45;&gt;CollaborativeStorageAdapterModule</title>
<path fill="none" stroke="black" d="M286,-122.02C286,-139.37 286,-163 286,-163 286,-163 494.28,-163 494.28,-163"/>
<polygon fill="black" stroke="black" points="494.28,-166.5 504.28,-163 494.28,-159.5 494.28,-166.5"/>
</g>
<!-- PseudonymsRepo -->
<g id="node9" class="node">
<title>PseudonymsRepo</title>
<ellipse fill="#fdb462" stroke="black" cx="104" cy="-104" rx="80.48" ry="18"/>
<text text-anchor="middle" x="104" y="-99.8" font-family="Times,serif" font-size="14.00">PseudonymsRepo</text>
</g>
<!-- PseudonymsRepo&#45;&gt;CollaborativeStorageAdapterModule -->
<g id="edge8" class="edge">
<title>PseudonymsRepo&#45;&gt;CollaborativeStorageAdapterModule</title>
<path fill="none" stroke="black" d="M104,-122.28C104,-143.32 104,-175 104,-175 104,-175 494.27,-175 494.27,-175"/>
<polygon fill="black" stroke="black" points="494.27,-178.5 504.27,-175 494.27,-171.5 494.27,-178.5"/>
</g>
</g>
</svg>
