<?xml version="1.0" encoding="UTF-8" standalone="no"?>
<!DOCTYPE svg PUBLIC "-//W3C//DTD SVG 1.1//EN"
 "http://www.w3.org/Graphics/SVG/1.1/DTD/svg11.dtd">
<!-- Generated by graphviz version 5.0.0 (20220707.1540)
 -->
<!-- Title: dependencies Pages: 1 -->
<svg width="1425pt" height="247pt"
 viewBox="0.00 0.00 1425.00 246.80" xmlns="http://www.w3.org/2000/svg" xmlns:xlink="http://www.w3.org/1999/xlink">
<g id="graph0" class="graph" transform="scale(1 1) rotate(0) translate(4 242.8)">
<title>dependencies</title>
<polygon fill="white" stroke="transparent" points="-4,4 -4,-242.8 1421,-242.8 1421,4 -4,4"/>
<text text-anchor="middle" x="708.5" y="-8.2" font-family="sans-serif" font-size="14.00">dependencies</text>
<g id="clust1" class="cluster">
<title>cluster_CollaborativeStorageAdapterModule</title>
<polygon fill="none" stroke="black" stroke-dasharray="1,5" points="8,-32.8 8,-230.8 1409,-230.8 1409,-32.8 8,-32.8"/>
</g>
<g id="clust6" class="cluster">
<title>cluster_CollaborativeStorageAdapterModule_providers</title>
<polygon fill="none" stroke="black" points="140,-40.8 140,-92.8 1401,-92.8 1401,-40.8 140,-40.8"/>
</g>
<g id="clust3" class="cluster">
<title>cluster_CollaborativeStorageAdapterModule_imports</title>
<polygon fill="none" stroke="black" points="16,-40.8 16,-92.8 132,-92.8 132,-40.8 16,-40.8"/>
</g>
<g id="clust4" class="cluster">
<title>cluster_CollaborativeStorageAdapterModule_exports</title>
<polygon fill="none" stroke="black" points="486,-170.8 486,-222.8 686,-222.8 686,-170.8 486,-170.8"/>
</g>
<!-- LoggerModule -->
<g id="node1" class="node">
<title>LoggerModule</title>
<polygon fill="#8dd3c7" stroke="black" points="123.98,-84.8 120.98,-88.8 99.98,-88.8 96.98,-84.8 24.02,-84.8 24.02,-48.8 123.98,-48.8 123.98,-84.8"/>
<text text-anchor="middle" x="74" y="-62.6" font-family="Times,serif" font-size="14.00">LoggerModule</text>
</g>
<!-- CollaborativeStorageAdapterModule -->
<g id="node2" class="node">
<title>CollaborativeStorageAdapterModule</title>
<polygon fill="#8dd3c7" stroke="black" points="697.61,-149.8 694.61,-153.8 673.61,-153.8 670.61,-149.8 474.39,-149.8 474.39,-113.8 697.61,-113.8 697.61,-149.8"/>
<text text-anchor="middle" x="586" y="-127.6" font-family="Times,serif" font-size="14.00">CollaborativeStorageAdapterModule</text>
</g>
<!-- LoggerModule&#45;&gt;CollaborativeStorageAdapterModule -->
<g id="edge1" class="edge">
<title>LoggerModule&#45;&gt;CollaborativeStorageAdapterModule</title>
<path fill="none" stroke="black" d="M74,-85.08C74,-106.12 74,-137.8 74,-137.8 74,-137.8 464.27,-137.8 464.27,-137.8"/>
<polygon fill="black" stroke="black" points="464.27,-141.3 474.27,-137.8 464.27,-134.3 464.27,-141.3"/>
</g>
<!-- CollaborativeStorageAdapter  -->
<g id="node3" class="node">
<title>CollaborativeStorageAdapter </title>
<polygon fill="#fb8072" stroke="black" points="677.56,-214.8 494.44,-214.8 494.44,-178.8 677.56,-178.8 677.56,-214.8"/>
<text text-anchor="middle" x="586" y="-192.6" font-family="Times,serif" font-size="14.00">CollaborativeStorageAdapter </text>
</g>
<!-- CollaborativeStorageAdapterModule&#45;&gt;CollaborativeStorageAdapter  -->
<g id="edge2" class="edge">
<title>CollaborativeStorageAdapterModule&#45;&gt;CollaborativeStorageAdapter </title>
<path fill="none" stroke="black" stroke-dasharray="5,2" d="M586,-149.91C586,-149.91 586,-168.79 586,-168.79"/>
<polygon fill="black" stroke="black" points="582.5,-168.79 586,-178.79 589.5,-168.79 582.5,-168.79"/>
</g>
<!-- CollaborativeStorageAdapter -->
<g id="node4" class="node">
<title>CollaborativeStorageAdapter</title>
<ellipse fill="#fdb462" stroke="black" cx="1269" cy="-66.8" rx="124.4" ry="18"/>
<text text-anchor="middle" x="1269" y="-62.6" font-family="Times,serif" font-size="14.00">CollaborativeStorageAdapter</text>
</g>
<!-- CollaborativeStorageAdapter&#45;&gt;CollaborativeStorageAdapterModule -->
<g id="edge3" class="edge">
<title>CollaborativeStorageAdapter&#45;&gt;CollaborativeStorageAdapterModule</title>
<path fill="none" stroke="black" d="M1269,-85.08C1269,-106.12 1269,-137.8 1269,-137.8 1269,-137.8 707.64,-137.8 707.64,-137.8"/>
<polygon fill="black" stroke="black" points="707.64,-134.3 697.64,-137.8 707.64,-141.3 707.64,-134.3"/>
</g>
<!-- CollaborativeStorageAdapterMapper -->
<g id="node5" class="node">
<title>CollaborativeStorageAdapterMapper</title>
<ellipse fill="#fdb462" stroke="black" cx="973" cy="-66.8" rx="154.46" ry="18"/>
<text text-anchor="middle" x="973" y="-62.6" font-family="Times,serif" font-size="14.00">CollaborativeStorageAdapterMapper</text>
</g>
<!-- CollaborativeStorageAdapterMapper&#45;&gt;CollaborativeStorageAdapterModule -->
<g id="edge4" class="edge">
<title>CollaborativeStorageAdapterMapper&#45;&gt;CollaborativeStorageAdapterModule</title>
<path fill="none" stroke="black" d="M973,-84.82C973,-102.17 973,-125.8 973,-125.8 973,-125.8 707.68,-125.8 707.68,-125.8"/>
<polygon fill="black" stroke="black" points="707.68,-122.3 697.68,-125.8 707.68,-129.3 707.68,-122.3"/>
</g>
<!-- LtiToolRepo -->
<g id="node6" class="node">
<title>LtiToolRepo</title>
<ellipse fill="#fdb462" stroke="black" cx="740" cy="-66.8" rx="60.85" ry="18"/>
<text text-anchor="middle" x="740" y="-62.6" font-family="Times,serif" font-size="14.00">LtiToolRepo</text>
</g>
<!-- LtiToolRepo&#45;&gt;CollaborativeStorageAdapterModule -->
<g id="edge5" class="edge">
<title>LtiToolRepo&#45;&gt;CollaborativeStorageAdapterModule</title>
<path fill="none" stroke="black" d="M688.44,-76.39C688.44,-76.39 688.44,-103.55 688.44,-103.55"/>
<polygon fill="black" stroke="black" points="684.94,-103.55 688.44,-113.55 691.94,-103.55 684.94,-103.55"/>
</g>
<!-- NextcloudClient -->
<g id="node7" class="node">
<title>NextcloudClient</title>
<ellipse fill="#fdb462" stroke="black" cx="586" cy="-66.8" rx="74.74" ry="18"/>
<text text-anchor="middle" x="586" y="-62.6" font-family="Times,serif" font-size="14.00">NextcloudClient</text>
</g>
<!-- NextcloudClient&#45;&gt;CollaborativeStorageAdapterModule -->
<g id="edge6" class="edge">
<title>NextcloudClient&#45;&gt;CollaborativeStorageAdapterModule</title>
<path fill="none" stroke="black" d="M586,-84.91C586,-84.91 586,-103.79 586,-103.79"/>
<polygon fill="black" stroke="black" points="582.5,-103.79 586,-113.79 589.5,-103.79 582.5,-103.79"/>
</g>
<!-- NextcloudStrategy -->
<g id="node8" class="node">
<title>NextcloudStrategy</title>
<ellipse fill="#fdb462" stroke="black" cx="410" cy="-66.8" rx="83.39" ry="18"/>
<text text-anchor="middle" x="410" y="-62.6" font-family="Times,serif" font-size="14.00">NextcloudStrategy</text>
</g>
<!-- NextcloudStrategy&#45;&gt;CollaborativeStorageAdapterModule -->
<g id="edge7" class="edge">
<title>NextcloudStrategy&#45;&gt;CollaborativeStorageAdapterModule</title>
<path fill="none" stroke="black" d="M483.82,-75.3C483.82,-75.3 483.82,-103.71 483.82,-103.71"/>
<polygon fill="black" stroke="black" points="480.32,-103.71 483.82,-113.71 487.32,-103.71 480.32,-103.71"/>
</g>
<!-- PseudonymsRepo -->
<g id="node9" class="node">
<title>PseudonymsRepo</title>
<ellipse fill="#fdb462" stroke="black" cx="228" cy="-66.8" rx="80.5" ry="18"/>
<text text-anchor="middle" x="228" y="-62.6" font-family="Times,serif" font-size="14.00">PseudonymsRepo</text>
</g>
<!-- PseudonymsRepo&#45;&gt;CollaborativeStorageAdapterModule -->
<g id="edge8" class="edge">
<title>PseudonymsRepo&#45;&gt;CollaborativeStorageAdapterModule</title>
<path fill="none" stroke="black" d="M228,-84.82C228,-102.17 228,-125.8 228,-125.8 228,-125.8 464.2,-125.8 464.2,-125.8"/>
<polygon fill="black" stroke="black" points="464.2,-129.3 474.2,-125.8 464.2,-122.3 464.2,-129.3"/>
</g>
</g>
</svg>
