<?xml version="1.0" encoding="UTF-8" standalone="no"?>
<!DOCTYPE svg PUBLIC "-//W3C//DTD SVG 1.1//EN"
 "http://www.w3.org/Graphics/SVG/1.1/DTD/svg11.dtd">
<!-- Generated by graphviz version 2.47.0 (20210316.0004)
 -->
<!-- Title: dependencies Pages: 1 -->
<svg width="722pt" height="284pt"
 viewBox="0.00 0.00 722.00 284.00" xmlns="http://www.w3.org/2000/svg" xmlns:xlink="http://www.w3.org/1999/xlink">
<g id="graph0" class="graph" transform="scale(1 1) rotate(0) translate(4 280)">
<title>dependencies</title>
<polygon fill="white" stroke="transparent" points="-4,4 -4,-280 718,-280 718,4 -4,4"/>
<text text-anchor="start" x="336.01" y="-42.4" font-family="Times-12" font-weight="bold" font-size="14.00">Legend</text>
<polygon fill="#ffffb3" stroke="transparent" points="123,-10 123,-30 143,-30 143,-10 123,-10"/>
<text text-anchor="start" x="146.63" y="-15.4" font-family="Times-12" font-size="14.00"> &#160;Declarations</text>
<polygon fill="#8dd3c7" stroke="transparent" points="236,-10 236,-30 256,-30 256,-10 236,-10"/>
<text text-anchor="start" x="259.73" y="-15.4" font-family="Times-12" font-size="14.00"> &#160;Module</text>
<polygon fill="#80b1d3" stroke="transparent" points="322,-10 322,-30 342,-30 342,-10 322,-10"/>
<text text-anchor="start" x="345.78" y="-15.4" font-family="Times-12" font-size="14.00"> &#160;Bootstrap</text>
<polygon fill="#fdb462" stroke="transparent" points="419,-10 419,-30 439,-30 439,-10 419,-10"/>
<text text-anchor="start" x="442.67" y="-15.4" font-family="Times-12" font-size="14.00"> &#160;Providers</text>
<polygon fill="#fb8072" stroke="transparent" points="515,-10 515,-30 535,-30 535,-10 515,-10"/>
<text text-anchor="start" x="538.73" y="-15.4" font-family="Times-12" font-size="14.00"> &#160;Exports</text>
<g id="clust1" class="cluster">
<title>cluster_SchoolModule</title>
<polygon fill="none" stroke="black" stroke-dasharray="1,5" points="8,-70 8,-268 706,-268 706,-70 8,-70"/>
</g>
<g id="clust6" class="cluster">
<title>cluster_SchoolModule_providers</title>
<polygon fill="none" stroke="black" points="140,-78 140,-130 698,-130 698,-78 140,-78"/>
</g>
<g id="clust4" class="cluster">
<title>cluster_SchoolModule_exports</title>
<polygon fill="none" stroke="black" points="213,-208 213,-260 475,-260 475,-208 213,-208"/>
</g>
<g id="clust3" class="cluster">
<title>cluster_SchoolModule_imports</title>
<polygon fill="none" stroke="black" points="16,-78 16,-130 132,-130 132,-78 16,-78"/>
</g>
<!-- SystemModule -->
<g id="node1" class="node">
<title>SystemModule</title>
<polygon fill="#8dd3c7" stroke="black" points="124.27,-122 121.27,-126 100.27,-126 97.27,-122 23.73,-122 23.73,-86 124.27,-86 124.27,-122"/>
<text text-anchor="middle" x="74" y="-99.8" font-family="Times,serif" font-size="14.00">SystemModule</text>
</g>
<!-- SchoolModule -->
<g id="node2" class="node">
<title>SchoolModule</title>
<polygon fill="#8dd3c7" stroke="black" points="400.44,-187 397.44,-191 376.44,-191 373.44,-187 301.56,-187 301.56,-151 400.44,-151 400.44,-187"/>
<text text-anchor="middle" x="351" y="-164.8" font-family="Times,serif" font-size="14.00">SchoolModule</text>
</g>
<!-- SystemModule&#45;&gt;SchoolModule -->
<g id="edge1" class="edge">
<title>SystemModule&#45;&gt;SchoolModule</title>
<path fill="none" stroke="black" d="M74,-122.11C74,-141.34 74,-169 74,-169 74,-169 291.48,-169 291.48,-169"/>
<polygon fill="black" stroke="black" points="291.48,-172.5 301.48,-169 291.48,-165.5 291.48,-172.5"/>
</g>
<!-- SchoolService  -->
<g id="node3" class="node">
<title>SchoolService </title>
<polygon fill="#fb8072" stroke="black" points="467.37,-252 366.63,-252 366.63,-216 467.37,-216 467.37,-252"/>
<text text-anchor="middle" x="417" y="-229.8" font-family="Times,serif" font-size="14.00">SchoolService </text>
</g>
<!-- SchoolModule&#45;&gt;SchoolService  -->
<g id="edge2" class="edge">
<title>SchoolModule&#45;&gt;SchoolService </title>
<path fill="none" stroke="black" stroke-dasharray="5,2" d="M383.52,-187.11C383.52,-187.11 383.52,-205.99 383.52,-205.99"/>
<polygon fill="black" stroke="black" points="380.02,-205.99 383.52,-215.99 387.02,-205.99 380.02,-205.99"/>
</g>
<!-- SchoolYearService  -->
<g id="node4" class="node">
<title>SchoolYearService </title>
<polygon fill="#fb8072" stroke="black" points="348.56,-252 221.44,-252 221.44,-216 348.56,-216 348.56,-252"/>
<text text-anchor="middle" x="285" y="-229.8" font-family="Times,serif" font-size="14.00">SchoolYearService </text>
</g>
<!-- SchoolModule&#45;&gt;SchoolYearService  -->
<g id="edge3" class="edge">
<title>SchoolModule&#45;&gt;SchoolYearService </title>
<path fill="none" stroke="black" stroke-dasharray="5,2" d="M325.28,-187.11C325.28,-187.11 325.28,-205.99 325.28,-205.99"/>
<polygon fill="black" stroke="black" points="321.78,-205.99 325.28,-215.99 328.78,-205.99 321.78,-205.99"/>
</g>
<!-- SchoolService -->
<g id="node5" class="node">
<title>SchoolService</title>
<ellipse fill="#fdb462" stroke="black" cx="623" cy="-104" rx="66.63" ry="18"/>
<text text-anchor="middle" x="623" y="-99.8" font-family="Times,serif" font-size="14.00">SchoolService</text>
</g>
<!-- SchoolService&#45;&gt;SchoolModule -->
<g id="edge4" class="edge">
<title>SchoolService&#45;&gt;SchoolModule</title>
<path fill="none" stroke="black" d="M623,-122.11C623,-141.34 623,-169 623,-169 623,-169 410.26,-169 410.26,-169"/>
<polygon fill="black" stroke="black" points="410.26,-165.5 400.26,-169 410.26,-172.5 410.26,-165.5"/>
</g>
<!-- SchoolYearService -->
<g id="node6" class="node">
<title>SchoolYearService</title>
<ellipse fill="#fdb462" stroke="black" cx="453" cy="-104" rx="85.65" ry="18"/>
<text text-anchor="middle" x="453" y="-99.8" font-family="Times,serif" font-size="14.00">SchoolYearService</text>
</g>
<!-- SchoolYearService&#45;&gt;SchoolModule -->
<g id="edge5" class="edge">
<title>SchoolYearService&#45;&gt;SchoolModule</title>
<path fill="none" stroke="black" d="M383.82,-114.73C383.82,-114.73 383.82,-140.87 383.82,-140.87"/>
<polygon fill="black" stroke="black" points="380.32,-140.87 383.82,-150.87 387.32,-140.87 380.32,-140.87"/>
</g>
<!-- SystemDeletedHandler -->
<g id="node7" class="node">
<title>SystemDeletedHandler</title>
<ellipse fill="#fdb462" stroke="black" cx="249" cy="-104" rx="100.7" ry="18"/>
<text text-anchor="middle" x="249" y="-99.8" font-family="Times,serif" font-size="14.00">SystemDeletedHandler</text>
</g>
<!-- SystemDeletedHandler&#45;&gt;SchoolModule -->
<g id="edge6" class="edge">
<title>SystemDeletedHandler&#45;&gt;SchoolModule</title>
<path fill="none" stroke="black" d="M325.69,-115.92C325.69,-115.92 325.69,-140.77 325.69,-140.77"/>
<polygon fill="black" stroke="black" points="322.19,-140.77 325.69,-150.77 329.19,-140.77 322.19,-140.77"/>
</g>
</g>
</svg>
