<?xml version="1.0" encoding="UTF-8" standalone="no"?>
<!DOCTYPE svg PUBLIC "-//W3C//DTD SVG 1.1//EN"
 "http://www.w3.org/Graphics/SVG/1.1/DTD/svg11.dtd">
<!-- Generated by graphviz version 2.47.0 (20210316.0004)
 -->
<!-- Title: dependencies Pages: 1 -->
<svg width="1530pt" height="284pt"
 viewBox="0.00 0.00 1530.00 284.00" xmlns="http://www.w3.org/2000/svg" xmlns:xlink="http://www.w3.org/1999/xlink">
<g id="graph0" class="graph" transform="scale(1 1) rotate(0) translate(4 280)">
<title>dependencies</title>
<polygon fill="white" stroke="transparent" points="-4,4 -4,-280 1526,-280 1526,4 -4,4"/>
<text text-anchor="start" x="740.01" y="-42.4" font-family="Times-12" font-weight="bold" font-size="14.00">Legend</text>
<polygon fill="#ffffb3" stroke="transparent" points="527,-10 527,-30 547,-30 547,-10 527,-10"/>
<text text-anchor="start" x="550.63" y="-15.4" font-family="Times-12" font-size="14.00"> &#160;Declarations</text>
<polygon fill="#8dd3c7" stroke="transparent" points="640,-10 640,-30 660,-30 660,-10 640,-10"/>
<text text-anchor="start" x="663.73" y="-15.4" font-family="Times-12" font-size="14.00"> &#160;Module</text>
<polygon fill="#80b1d3" stroke="transparent" points="726,-10 726,-30 746,-30 746,-10 726,-10"/>
<text text-anchor="start" x="749.78" y="-15.4" font-family="Times-12" font-size="14.00"> &#160;Bootstrap</text>
<polygon fill="#fdb462" stroke="transparent" points="823,-10 823,-30 843,-30 843,-10 823,-10"/>
<text text-anchor="start" x="846.67" y="-15.4" font-family="Times-12" font-size="14.00"> &#160;Providers</text>
<polygon fill="#fb8072" stroke="transparent" points="919,-10 919,-30 939,-30 939,-10 919,-10"/>
<text text-anchor="start" x="942.73" y="-15.4" font-family="Times-12" font-size="14.00"> &#160;Exports</text>
<g id="clust1" class="cluster">
<title>cluster_SchoolModule</title>
<polygon fill="none" stroke="black" stroke-dasharray="1,5" points="8,-70 8,-268 1514,-268 1514,-70 8,-70"/>
</g>
<g id="clust6" class="cluster">
<title>cluster_SchoolModule_providers</title>
<polygon fill="none" stroke="black" points="140,-78 140,-130 1506,-130 1506,-78 140,-78"/>
</g>
<g id="clust3" class="cluster">
<title>cluster_SchoolModule_imports</title>
<polygon fill="none" stroke="black" points="16,-78 16,-130 132,-130 132,-78 16,-78"/>
</g>
<g id="clust4" class="cluster">
<title>cluster_SchoolModule_exports</title>
<polygon fill="none" stroke="black" points="503,-208 503,-260 957,-260 957,-208 503,-208"/>
</g>
<!-- LoggerModule -->
<g id="node1" class="node">
<title>LoggerModule</title>
<polygon fill="#8dd3c7" stroke="black" points="123.98,-122 120.98,-126 99.98,-126 96.98,-122 24.02,-122 24.02,-86 123.98,-86 123.98,-122"/>
<text text-anchor="middle" x="74" y="-99.8" font-family="Times,serif" font-size="14.00">LoggerModule</text>
</g>
<!-- SchoolModule -->
<g id="node2" class="node">
<title>SchoolModule</title>
<polygon fill="#8dd3c7" stroke="black" points="777.44,-187 774.44,-191 753.44,-191 750.44,-187 678.56,-187 678.56,-151 777.44,-151 777.44,-187"/>
<text text-anchor="middle" x="728" y="-164.8" font-family="Times,serif" font-size="14.00">SchoolModule</text>
</g>
<!-- LoggerModule&#45;&gt;SchoolModule -->
<g id="edge1" class="edge">
<title>LoggerModule&#45;&gt;SchoolModule</title>
<path fill="none" stroke="black" d="M74,-122.13C74,-142.57 74,-173 74,-173 74,-173 668.58,-173 668.58,-173"/>
<polygon fill="black" stroke="black" points="668.58,-176.5 678.58,-173 668.58,-169.5 668.58,-176.5"/>
</g>
<!-- FederalStateService  -->
<g id="node3" class="node">
<title>FederalStateService </title>
<polygon fill="#fb8072" stroke="black" points="948.95,-252 817.05,-252 817.05,-216 948.95,-216 948.95,-252"/>
<text text-anchor="middle" x="883" y="-229.8" font-family="Times,serif" font-size="14.00">FederalStateService </text>
</g>
<!-- SchoolModule&#45;&gt;FederalStateService  -->
<g id="edge2" class="edge">
<title>SchoolModule&#45;&gt;FederalStateService </title>
<path fill="none" stroke="black" stroke-dasharray="5,2" d="M777.61,-180C820.54,-180 875.75,-180 875.75,-180 875.75,-180 875.75,-205.72 875.75,-205.72"/>
<polygon fill="black" stroke="black" points="872.25,-205.72 875.75,-215.72 879.25,-205.72 872.25,-205.72"/>
</g>
<!-- LegacySchoolService  -->
<g id="node4" class="node">
<title>LegacySchoolService </title>
<polygon fill="#fb8072" stroke="black" points="798.56,-252 657.44,-252 657.44,-216 798.56,-216 798.56,-252"/>
<text text-anchor="middle" x="728" y="-229.8" font-family="Times,serif" font-size="14.00">LegacySchoolService </text>
</g>
<!-- SchoolModule&#45;&gt;LegacySchoolService  -->
<g id="edge3" class="edge">
<title>SchoolModule&#45;&gt;LegacySchoolService </title>
<path fill="none" stroke="black" stroke-dasharray="5,2" d="M728,-187.11C728,-187.11 728,-205.99 728,-205.99"/>
<polygon fill="black" stroke="black" points="724.5,-205.99 728,-215.99 731.5,-205.99 724.5,-205.99"/>
</g>
<!-- SchoolYearService  -->
<g id="node5" class="node">
<title>SchoolYearService </title>
<polygon fill="#fb8072" stroke="black" points="638.56,-252 511.44,-252 511.44,-216 638.56,-216 638.56,-252"/>
<text text-anchor="middle" x="575" y="-229.8" font-family="Times,serif" font-size="14.00">SchoolYearService </text>
</g>
<!-- SchoolModule&#45;&gt;SchoolYearService  -->
<g id="edge4" class="edge">
<title>SchoolModule&#45;&gt;SchoolYearService </title>
<path fill="none" stroke="black" stroke-dasharray="5,2" d="M678.75,-180C634.02,-180 575,-180 575,-180 575,-180 575,-205.72 575,-205.72"/>
<polygon fill="black" stroke="black" points="571.5,-205.72 575,-215.72 578.5,-205.72 571.5,-205.72"/>
</g>
<!-- FederalStateRepo -->
<g id="node6" class="node">
<title>FederalStateRepo</title>
<ellipse fill="#fdb462" stroke="black" cx="1418" cy="-104" rx="79.87" ry="18"/>
<text text-anchor="middle" x="1418" y="-99.8" font-family="Times,serif" font-size="14.00">FederalStateRepo</text>
</g>
<!-- FederalStateRepo&#45;&gt;SchoolModule -->
<g id="edge5" class="edge">
<title>FederalStateRepo&#45;&gt;SchoolModule</title>
<path fill="none" stroke="black" d="M1418,-122.13C1418,-142.57 1418,-173 1418,-173 1418,-173 787.35,-173 787.35,-173"/>
<polygon fill="black" stroke="black" points="787.35,-169.5 777.35,-173 787.35,-176.5 787.35,-169.5"/>
</g>
<!-- FederalStateService -->
<g id="node7" class="node">
<title>FederalStateService</title>
<ellipse fill="#fdb462" stroke="black" cx="1232" cy="-104" rx="88.01" ry="18"/>
<text text-anchor="middle" x="1232" y="-99.8" font-family="Times,serif" font-size="14.00">FederalStateService</text>
</g>
<!-- FederalStateService&#45;&gt;SchoolModule -->
<g id="edge6" class="edge">
<title>FederalStateService&#45;&gt;SchoolModule</title>
<path fill="none" stroke="black" d="M1232,-122.27C1232,-140.56 1232,-166 1232,-166 1232,-166 787.24,-166 787.24,-166"/>
<polygon fill="black" stroke="black" points="787.24,-162.5 777.24,-166 787.24,-169.5 787.24,-162.5"/>
</g>
<!-- LegacySchoolRepo -->
<g id="node8" class="node">
<title>LegacySchoolRepo</title>
<ellipse fill="#fdb462" stroke="black" cx="1039" cy="-104" rx="86.82" ry="18"/>
<text text-anchor="middle" x="1039" y="-99.8" font-family="Times,serif" font-size="14.00">LegacySchoolRepo</text>
</g>
<!-- LegacySchoolRepo&#45;&gt;SchoolModule -->
<g id="edge7" class="edge">
<title>LegacySchoolRepo&#45;&gt;SchoolModule</title>
<path fill="none" stroke="black" d="M1039,-122.01C1039,-138.05 1039,-159 1039,-159 1039,-159 787.28,-159 787.28,-159"/>
<polygon fill="black" stroke="black" points="787.28,-155.5 777.28,-159 787.28,-162.5 787.28,-155.5"/>
</g>
<!-- LegacySchoolService -->
<g id="node9" class="node">
<title>LegacySchoolService</title>
<ellipse fill="#fdb462" stroke="black" cx="839" cy="-104" rx="95.47" ry="18"/>
<text text-anchor="middle" x="839" y="-99.8" font-family="Times,serif" font-size="14.00">LegacySchoolService</text>
</g>
<!-- LegacySchoolService&#45;&gt;SchoolModule -->
<g id="edge8" class="edge">
<title>LegacySchoolService&#45;&gt;SchoolModule</title>
<path fill="none" stroke="black" d="M760.49,-114.44C760.49,-114.44 760.49,-140.97 760.49,-140.97"/>
<polygon fill="black" stroke="black" points="756.99,-140.97 760.49,-150.97 763.99,-140.97 756.99,-140.97"/>
</g>
<!-- SchoolValidationService -->
<g id="node10" class="node">
<title>SchoolValidationService</title>
<ellipse fill="#fdb462" stroke="black" cx="618" cy="-104" rx="107.66" ry="18"/>
<text text-anchor="middle" x="618" y="-99.8" font-family="Times,serif" font-size="14.00">SchoolValidationService</text>
</g>
<!-- SchoolValidationService&#45;&gt;SchoolModule -->
<g id="edge9" class="edge">
<title>SchoolValidationService&#45;&gt;SchoolModule</title>
<path fill="none" stroke="black" d="M702.18,-115.32C702.18,-115.32 702.18,-140.94 702.18,-140.94"/>
<polygon fill="black" stroke="black" points="698.68,-140.94 702.18,-150.94 705.68,-140.94 698.68,-140.94"/>
</g>
<!-- SchoolYearRepo -->
<g id="node11" class="node">
<title>SchoolYearRepo</title>
<ellipse fill="#fdb462" stroke="black" cx="415" cy="-104" rx="77.01" ry="18"/>
<text text-anchor="middle" x="415" y="-99.8" font-family="Times,serif" font-size="14.00">SchoolYearRepo</text>
</g>
<!-- SchoolYearRepo&#45;&gt;SchoolModule -->
<g id="edge10" class="edge">
<title>SchoolYearRepo&#45;&gt;SchoolModule</title>
<path fill="none" stroke="black" d="M415,-122.01C415,-138.05 415,-159 415,-159 415,-159 668.75,-159 668.75,-159"/>
<polygon fill="black" stroke="black" points="668.75,-162.5 678.75,-159 668.75,-155.5 668.75,-162.5"/>
</g>
<!-- SchoolYearService -->
<g id="node12" class="node">
<title>SchoolYearService</title>
<ellipse fill="#fdb462" stroke="black" cx="234" cy="-104" rx="85.65" ry="18"/>
<text text-anchor="middle" x="234" y="-99.8" font-family="Times,serif" font-size="14.00">SchoolYearService</text>
</g>
<!-- SchoolYearService&#45;&gt;SchoolModule -->
<g id="edge11" class="edge">
<title>SchoolYearService&#45;&gt;SchoolModule</title>
<path fill="none" stroke="black" d="M234,-122.27C234,-140.56 234,-166 234,-166 234,-166 668.37,-166 668.37,-166"/>
<polygon fill="black" stroke="black" points="668.37,-169.5 678.37,-166 668.37,-162.5 668.37,-169.5"/>
</g>
</g>
</svg>
