<?xml version="1.0" encoding="UTF-8" standalone="no"?>
<!DOCTYPE svg PUBLIC "-//W3C//DTD SVG 1.1//EN"
 "http://www.w3.org/Graphics/SVG/1.1/DTD/svg11.dtd">
<!-- Generated by graphviz version 2.47.0 (20210316.0004)
 -->
<!-- Title: dependencies Pages: 1 -->
<svg width="722pt" height="284pt"
 viewBox="0.00 0.00 722.00 284.00" xmlns="http://www.w3.org/2000/svg" xmlns:xlink="http://www.w3.org/1999/xlink">
<g id="graph0" class="graph" transform="scale(1 1) rotate(0) translate(4 280)">
<title>dependencies</title>
<polygon fill="white" stroke="transparent" points="-4,4 -4,-280 718,-280 718,4 -4,4"/>
<text text-anchor="start" x="336.01" y="-42.4" font-family="Times-12" font-weight="bold" font-size="14.00">Legend</text>
<polygon fill="#ffffb3" stroke="transparent" points="123,-10 123,-30 143,-30 143,-10 123,-10"/>
<text text-anchor="start" x="146.63" y="-15.4" font-family="Times-12" font-size="14.00"> &#160;Declarations</text>
<polygon fill="#8dd3c7" stroke="transparent" points="236,-10 236,-30 256,-30 256,-10 236,-10"/>
<text text-anchor="start" x="259.73" y="-15.4" font-family="Times-12" font-size="14.00"> &#160;Module</text>
<polygon fill="#80b1d3" stroke="transparent" points="322,-10 322,-30 342,-30 342,-10 322,-10"/>
<text text-anchor="start" x="345.78" y="-15.4" font-family="Times-12" font-size="14.00"> &#160;Bootstrap</text>
<polygon fill="#fdb462" stroke="transparent" points="419,-10 419,-30 439,-30 439,-10 419,-10"/>
<text text-anchor="start" x="442.67" y="-15.4" font-family="Times-12" font-size="14.00"> &#160;Providers</text>
<polygon fill="#fb8072" stroke="transparent" points="515,-10 515,-30 535,-30 535,-10 515,-10"/>
<text text-anchor="start" x="538.73" y="-15.4" font-family="Times-12" font-size="14.00"> &#160;Exports</text>
<g id="clust1" class="cluster">
<title>cluster_SchoolModule</title>
<polygon fill="none" stroke="black" stroke-dasharray="1,5" points="8,-70 8,-268 706,-268 706,-70 8,-70"/>
</g>
<g id="clust3" class="cluster">
<title>cluster_SchoolModule_imports</title>
<polygon fill="none" stroke="black" points="582,-78 582,-130 698,-130 698,-78 582,-78"/>
</g>
<g id="clust6" class="cluster">
<title>cluster_SchoolModule_providers</title>
<polygon fill="none" stroke="black" points="16,-78 16,-130 574,-130 574,-78 16,-78"/>
</g>
<g id="clust4" class="cluster">
<title>cluster_SchoolModule_exports</title>
<polygon fill="none" stroke="black" points="276,-208 276,-260 538,-260 538,-208 276,-208"/>
</g>
<!-- SystemModule -->
<g id="node1" class="node">
<title>SystemModule</title>
<polygon fill="#8dd3c7" stroke="black" points="690.27,-122 687.27,-126 666.27,-126 663.27,-122 589.73,-122 589.73,-86 690.27,-86 690.27,-122"/>
<text text-anchor="middle" x="640" y="-99.8" font-family="Times,serif" font-size="14.00">SystemModule</text>
</g>
<!-- SchoolModule -->
<g id="node2" class="node">
<title>SchoolModule</title>
<polygon fill="#8dd3c7" stroke="black" points="463.44,-187 460.44,-191 439.44,-191 436.44,-187 364.56,-187 364.56,-151 463.44,-151 463.44,-187"/>
<text text-anchor="middle" x="414" y="-164.8" font-family="Times,serif" font-size="14.00">SchoolModule</text>
</g>
<!-- SystemModule&#45;&gt;SchoolModule -->
<g id="edge1" class="edge">
<title>SystemModule&#45;&gt;SchoolModule</title>
<path fill="none" stroke="black" d="M640,-122.11C640,-141.34 640,-169 640,-169 640,-169 473.32,-169 473.32,-169"/>
<polygon fill="black" stroke="black" points="473.32,-165.5 463.32,-169 473.32,-172.5 473.32,-165.5"/>
</g>
<!-- SchoolService  -->
<g id="node3" class="node">
<title>SchoolService </title>
<polygon fill="#fb8072" stroke="black" points="530.37,-252 429.63,-252 429.63,-216 530.37,-216 530.37,-252"/>
<text text-anchor="middle" x="480" y="-229.8" font-family="Times,serif" font-size="14.00">SchoolService </text>
</g>
<!-- SchoolModule&#45;&gt;SchoolService  -->
<g id="edge2" class="edge">
<title>SchoolModule&#45;&gt;SchoolService </title>
<path fill="none" stroke="black" stroke-dasharray="5,2" d="M446.52,-187.11C446.52,-187.11 446.52,-205.99 446.52,-205.99"/>
<polygon fill="black" stroke="black" points="443.02,-205.99 446.52,-215.99 450.02,-205.99 443.02,-205.99"/>
</g>
<!-- SchoolYearService  -->
<g id="node4" class="node">
<title>SchoolYearService </title>
<polygon fill="#fb8072" stroke="black" points="411.56,-252 284.44,-252 284.44,-216 411.56,-216 411.56,-252"/>
<text text-anchor="middle" x="348" y="-229.8" font-family="Times,serif" font-size="14.00">SchoolYearService </text>
</g>
<!-- SchoolModule&#45;&gt;SchoolYearService  -->
<g id="edge3" class="edge">
<title>SchoolModule&#45;&gt;SchoolYearService </title>
<path fill="none" stroke="black" stroke-dasharray="5,2" d="M388.28,-187.11C388.28,-187.11 388.28,-205.99 388.28,-205.99"/>
<polygon fill="black" stroke="black" points="384.78,-205.99 388.28,-215.99 391.78,-205.99 384.78,-205.99"/>
</g>
<!-- SchoolService -->
<g id="node5" class="node">
<title>SchoolService</title>
<ellipse fill="#fdb462" stroke="black" cx="499" cy="-104" rx="66.63" ry="18"/>
<text text-anchor="middle" x="499" y="-99.8" font-family="Times,serif" font-size="14.00">SchoolService</text>
</g>
<!-- SchoolService&#45;&gt;SchoolModule -->
<g id="edge4" class="edge">
<title>SchoolService&#45;&gt;SchoolModule</title>
<path fill="none" stroke="black" d="M447.7,-115.62C447.7,-115.62 447.7,-140.85 447.7,-140.85"/>
<polygon fill="black" stroke="black" points="444.2,-140.85 447.7,-150.85 451.2,-140.85 444.2,-140.85"/>
</g>
<!-- SchoolYearService -->
<g id="node6" class="node">
<title>SchoolYearService</title>
<ellipse fill="#fdb462" stroke="black" cx="329" cy="-104" rx="85.65" ry="18"/>
<text text-anchor="middle" x="329" y="-99.8" font-family="Times,serif" font-size="14.00">SchoolYearService</text>
</g>
<!-- SchoolYearService&#45;&gt;SchoolModule -->
<g id="edge5" class="edge">
<title>SchoolYearService&#45;&gt;SchoolModule</title>
<path fill="none" stroke="black" d="M389.68,-116.84C389.68,-116.84 389.68,-140.52 389.68,-140.52"/>
<polygon fill="black" stroke="black" points="386.18,-140.52 389.68,-150.52 393.18,-140.52 386.18,-140.52"/>
</g>
<!-- SystemDeletedHandler -->
<g id="node7" class="node">
<title>SystemDeletedHandler</title>
<ellipse fill="#fdb462" stroke="black" cx="125" cy="-104" rx="100.7" ry="18"/>
<text text-anchor="middle" x="125" y="-99.8" font-family="Times,serif" font-size="14.00">SystemDeletedHandler</text>
</g>
<!-- SystemDeletedHandler&#45;&gt;SchoolModule -->
<g id="edge6" class="edge">
<title>SystemDeletedHandler&#45;&gt;SchoolModule</title>
<path fill="none" stroke="black" d="M125,-122.11C125,-141.34 125,-169 125,-169 125,-169 354.65,-169 354.65,-169"/>
<polygon fill="black" stroke="black" points="354.65,-172.5 364.65,-169 354.65,-165.5 354.65,-172.5"/>
</g>
</g>
</svg>
