<?xml version="1.0" encoding="UTF-8" standalone="no"?>
<!DOCTYPE svg PUBLIC "-//W3C//DTD SVG 1.1//EN"
 "http://www.w3.org/Graphics/SVG/1.1/DTD/svg11.dtd">
<!-- Generated by graphviz version 2.47.0 (20210316.0004)
 -->
<!-- Title: dependencies Pages: 1 -->
<svg width="504pt" height="284pt"
 viewBox="0.00 0.00 504.00 284.00" xmlns="http://www.w3.org/2000/svg" xmlns:xlink="http://www.w3.org/1999/xlink">
<g id="graph0" class="graph" transform="scale(1 1) rotate(0) translate(4 280)">
<title>dependencies</title>
<polygon fill="white" stroke="transparent" points="-4,4 -4,-280 500,-280 500,4 -4,4"/>
<text text-anchor="start" x="227.01" y="-42.4" font-family="Times-12" font-weight="bold" font-size="14.00">Legend</text>
<polygon fill="#ffffb3" stroke="transparent" points="14,-10 14,-30 34,-30 34,-10 14,-10"/>
<text text-anchor="start" x="37.63" y="-15.4" font-family="Times-12" font-size="14.00"> &#160;Declarations</text>
<polygon fill="#8dd3c7" stroke="transparent" points="127,-10 127,-30 147,-30 147,-10 127,-10"/>
<text text-anchor="start" x="150.73" y="-15.4" font-family="Times-12" font-size="14.00"> &#160;Module</text>
<polygon fill="#80b1d3" stroke="transparent" points="213,-10 213,-30 233,-30 233,-10 213,-10"/>
<text text-anchor="start" x="236.78" y="-15.4" font-family="Times-12" font-size="14.00"> &#160;Bootstrap</text>
<polygon fill="#fdb462" stroke="transparent" points="310,-10 310,-30 330,-30 330,-10 310,-10"/>
<text text-anchor="start" x="333.67" y="-15.4" font-family="Times-12" font-size="14.00"> &#160;Providers</text>
<polygon fill="#fb8072" stroke="transparent" points="406,-10 406,-30 426,-30 426,-10 406,-10"/>
<text text-anchor="start" x="429.73" y="-15.4" font-family="Times-12" font-size="14.00"> &#160;Exports</text>
<g id="clust1" class="cluster">
<title>cluster_SchoolModule</title>
<polygon fill="none" stroke="black" stroke-dasharray="1,5" points="70.5,-70 70.5,-268 425.5,-268 425.5,-70 70.5,-70"/>
</g>
<g id="clust4" class="cluster">
<title>cluster_SchoolModule_exports</title>
<polygon fill="none" stroke="black" points="103.5,-208 103.5,-260 365.5,-260 365.5,-208 103.5,-208"/>
</g>
<g id="clust6" class="cluster">
<title>cluster_SchoolModule_providers</title>
<polygon fill="none" stroke="black" points="78.5,-78 78.5,-130 417.5,-130 417.5,-78 78.5,-78"/>
</g>
<!-- SchoolService  -->
<g id="node1" class="node">
<title>SchoolService </title>
<polygon fill="#fb8072" stroke="black" points="357.87,-252 257.13,-252 257.13,-216 357.87,-216 357.87,-252"/>
<text text-anchor="middle" x="307.5" y="-229.8" font-family="Times,serif" font-size="14.00">SchoolService </text>
</g>
<!-- SchoolYearService  -->
<g id="node2" class="node">
<title>SchoolYearService </title>
<polygon fill="#fb8072" stroke="black" points="239.06,-252 111.94,-252 111.94,-216 239.06,-216 239.06,-252"/>
<text text-anchor="middle" x="175.5" y="-229.8" font-family="Times,serif" font-size="14.00">SchoolYearService </text>
</g>
<!-- SchoolModule -->
<g id="node3" class="node">
<title>SchoolModule</title>
<polygon fill="#8dd3c7" stroke="black" points="248.94,-187 245.94,-191 224.94,-191 221.94,-187 150.06,-187 150.06,-151 248.94,-151 248.94,-187"/>
<text text-anchor="middle" x="199.5" y="-164.8" font-family="Times,serif" font-size="14.00">SchoolModule</text>
</g>
<!-- SchoolModule&#45;&gt;SchoolService  -->
<g id="edge1" class="edge">
<title>SchoolModule&#45;&gt;SchoolService </title>
<path fill="none" stroke="black" stroke-dasharray="5,2" d="M244,-187.11C244,-206.34 244,-234 244,-234 244,-234 247.16,-234 247.16,-234"/>
<polygon fill="black" stroke="black" points="247.16,-237.5 257.16,-234 247.16,-230.5 247.16,-237.5"/>
</g>
<!-- SchoolModule&#45;&gt;SchoolYearService  -->
<g id="edge2" class="edge">
<title>SchoolModule&#45;&gt;SchoolYearService </title>
<path fill="none" stroke="black" stroke-dasharray="5,2" d="M194.78,-187.11C194.78,-187.11 194.78,-205.99 194.78,-205.99"/>
<polygon fill="black" stroke="black" points="191.28,-205.99 194.78,-215.99 198.28,-205.99 191.28,-205.99"/>
</g>
<!-- SchoolService -->
<g id="node4" class="node">
<title>SchoolService</title>
<ellipse fill="#fdb462" stroke="black" cx="342.5" cy="-104" rx="66.63" ry="18"/>
<text text-anchor="middle" x="342.5" y="-99.8" font-family="Times,serif" font-size="14.00">SchoolService</text>
</g>
<!-- SchoolService&#45;&gt;SchoolModule -->
<g id="edge3" class="edge">
<title>SchoolService&#45;&gt;SchoolModule</title>
<path fill="none" stroke="black" d="M316.68,-120.74C316.68,-140 316.68,-169 316.68,-169 316.68,-169 258.86,-169 258.86,-169"/>
<polygon fill="black" stroke="black" points="258.86,-165.5 248.86,-169 258.86,-172.5 258.86,-165.5"/>
</g>
<!-- SchoolYearService -->
<g id="node5" class="node">
<title>SchoolYearService</title>
<ellipse fill="#fdb462" stroke="black" cx="172.5" cy="-104" rx="85.65" ry="18"/>
<text text-anchor="middle" x="172.5" y="-99.8" font-family="Times,serif" font-size="14.00">SchoolYearService</text>
</g>
<!-- SchoolYearService&#45;&gt;SchoolModule -->
<g id="edge4" class="edge">
<title>SchoolYearService&#45;&gt;SchoolModule</title>
<path fill="none" stroke="black" d="M199.5,-121.42C199.5,-121.42 199.5,-140.62 199.5,-140.62"/>
<polygon fill="black" stroke="black" points="196,-140.62 199.5,-150.62 203,-140.62 196,-140.62"/>
</g>
</g>
</svg>
