<?xml version="1.0" encoding="UTF-8" standalone="no"?>
<!DOCTYPE svg PUBLIC "-//W3C//DTD SVG 1.1//EN"
 "http://www.w3.org/Graphics/SVG/1.1/DTD/svg11.dtd">
<!-- Generated by graphviz version 2.47.0 (20210316.0004)
 -->
<!-- Title: dependencies Pages: 1 -->
<svg width="1183pt" height="284pt"
 viewBox="0.00 0.00 1183.00 284.00" xmlns="http://www.w3.org/2000/svg" xmlns:xlink="http://www.w3.org/1999/xlink">
<g id="graph0" class="graph" transform="scale(1 1) rotate(0) translate(4 280)">
<title>dependencies</title>
<polygon fill="white" stroke="transparent" points="-4,4 -4,-280 1179,-280 1179,4 -4,4"/>
<text text-anchor="start" x="566.51" y="-42.4" font-family="Times-12" font-weight="bold" font-size="14.00">Legend</text>
<polygon fill="#ffffb3" stroke="transparent" points="353.5,-10 353.5,-30 373.5,-30 373.5,-10 353.5,-10"/>
<text text-anchor="start" x="377.13" y="-15.4" font-family="Times-12" font-size="14.00"> &#160;Declarations</text>
<polygon fill="#8dd3c7" stroke="transparent" points="466.5,-10 466.5,-30 486.5,-30 486.5,-10 466.5,-10"/>
<text text-anchor="start" x="490.23" y="-15.4" font-family="Times-12" font-size="14.00"> &#160;Module</text>
<polygon fill="#80b1d3" stroke="transparent" points="552.5,-10 552.5,-30 572.5,-30 572.5,-10 552.5,-10"/>
<text text-anchor="start" x="576.28" y="-15.4" font-family="Times-12" font-size="14.00"> &#160;Bootstrap</text>
<polygon fill="#fdb462" stroke="transparent" points="649.5,-10 649.5,-30 669.5,-30 669.5,-10 649.5,-10"/>
<text text-anchor="start" x="673.17" y="-15.4" font-family="Times-12" font-size="14.00"> &#160;Providers</text>
<polygon fill="#fb8072" stroke="transparent" points="745.5,-10 745.5,-30 765.5,-30 765.5,-10 745.5,-10"/>
<text text-anchor="start" x="769.23" y="-15.4" font-family="Times-12" font-size="14.00"> &#160;Exports</text>
<g id="clust1" class="cluster">
<title>cluster_SchoolModule</title>
<polygon fill="none" stroke="black" stroke-dasharray="1,5" points="8,-70 8,-268 1167,-268 1167,-70 8,-70"/>
</g>
<g id="clust6" class="cluster">
<title>cluster_SchoolModule_providers</title>
<polygon fill="none" stroke="black" points="140,-78 140,-130 1159,-130 1159,-78 140,-78"/>
</g>
<g id="clust4" class="cluster">
<title>cluster_SchoolModule_exports</title>
<polygon fill="none" stroke="black" points="373,-208 373,-260 785,-260 785,-208 373,-208"/>
</g>
<g id="clust3" class="cluster">
<title>cluster_SchoolModule_imports</title>
<polygon fill="none" stroke="black" points="16,-78 16,-130 132,-130 132,-78 16,-78"/>
</g>
<!-- LoggerModule -->
<g id="node1" class="node">
<title>LoggerModule</title>
<polygon fill="#8dd3c7" stroke="black" points="123.98,-122 120.98,-126 99.98,-126 96.98,-122 24.02,-122 24.02,-86 123.98,-86 123.98,-122"/>
<text text-anchor="middle" x="74" y="-99.8" font-family="Times,serif" font-size="14.00">LoggerModule</text>
</g>
<!-- SchoolModule -->
<g id="node2" class="node">
<title>SchoolModule</title>
<polygon fill="#8dd3c7" stroke="black" points="626.44,-187 623.44,-191 602.44,-191 599.44,-187 527.56,-187 527.56,-151 626.44,-151 626.44,-187"/>
<text text-anchor="middle" x="577" y="-164.8" font-family="Times,serif" font-size="14.00">SchoolModule</text>
</g>
<!-- LoggerModule&#45;&gt;SchoolModule -->
<g id="edge1" class="edge">
<title>LoggerModule&#45;&gt;SchoolModule</title>
<path fill="none" stroke="black" d="M74,-122.13C74,-142.57 74,-173 74,-173 74,-173 517.39,-173 517.39,-173"/>
<polygon fill="black" stroke="black" points="517.39,-176.5 527.39,-173 517.39,-169.5 517.39,-176.5"/>
</g>
<!-- FederalStateService  -->
<g id="node3" class="node">
<title>FederalStateService </title>
<polygon fill="#fb8072" stroke="black" points="776.95,-252 645.05,-252 645.05,-216 776.95,-216 776.95,-252"/>
<text text-anchor="middle" x="711" y="-229.8" font-family="Times,serif" font-size="14.00">FederalStateService </text>
</g>
<!-- SchoolModule&#45;&gt;FederalStateService  -->
<g id="edge2" class="edge">
<title>SchoolModule&#45;&gt;FederalStateService </title>
<path fill="none" stroke="black" stroke-dasharray="5,2" d="M626.32,-180C641.13,-180 653.52,-180 653.52,-180 653.52,-180 653.52,-205.72 653.52,-205.72"/>
<polygon fill="black" stroke="black" points="650.02,-205.72 653.52,-215.72 657.02,-205.72 650.02,-205.72"/>
</g>
<!-- SchoolService  -->
<g id="node4" class="node">
<title>SchoolService </title>
<polygon fill="#fb8072" stroke="black" points="627.37,-252 526.63,-252 526.63,-216 627.37,-216 627.37,-252"/>
<text text-anchor="middle" x="577" y="-229.8" font-family="Times,serif" font-size="14.00">SchoolService </text>
</g>
<!-- SchoolModule&#45;&gt;SchoolService  -->
<g id="edge3" class="edge">
<title>SchoolModule&#45;&gt;SchoolService </title>
<path fill="none" stroke="black" stroke-dasharray="5,2" d="M577,-187.11C577,-187.11 577,-205.99 577,-205.99"/>
<polygon fill="black" stroke="black" points="573.5,-205.99 577,-215.99 580.5,-205.99 573.5,-205.99"/>
</g>
<!-- SchoolYearService  -->
<g id="node5" class="node">
<title>SchoolYearService </title>
<polygon fill="#fb8072" stroke="black" points="508.56,-252 381.44,-252 381.44,-216 508.56,-216 508.56,-252"/>
<text text-anchor="middle" x="445" y="-229.8" font-family="Times,serif" font-size="14.00">SchoolYearService </text>
</g>
<!-- SchoolModule&#45;&gt;SchoolYearService  -->
<g id="edge4" class="edge">
<title>SchoolModule&#45;&gt;SchoolYearService </title>
<path fill="none" stroke="black" stroke-dasharray="5,2" d="M527.62,-180C512.79,-180 500.39,-180 500.39,-180 500.39,-180 500.39,-205.72 500.39,-205.72"/>
<polygon fill="black" stroke="black" points="496.89,-205.72 500.39,-215.72 503.89,-205.72 496.89,-205.72"/>
</g>
<!-- FederalStateRepo -->
<g id="node6" class="node">
<title>FederalStateRepo</title>
<ellipse fill="#fdb462" stroke="black" cx="1071" cy="-104" rx="79.87" ry="18"/>
<text text-anchor="middle" x="1071" y="-99.8" font-family="Times,serif" font-size="14.00">FederalStateRepo</text>
</g>
<!-- FederalStateRepo&#45;&gt;SchoolModule -->
<g id="edge5" class="edge">
<title>FederalStateRepo&#45;&gt;SchoolModule</title>
<path fill="none" stroke="black" d="M1071,-122.13C1071,-142.57 1071,-173 1071,-173 1071,-173 636.63,-173 636.63,-173"/>
<polygon fill="black" stroke="black" points="636.63,-169.5 626.63,-173 636.63,-176.5 636.63,-169.5"/>
</g>
<!-- FederalStateService -->
<g id="node7" class="node">
<title>FederalStateService</title>
<ellipse fill="#fdb462" stroke="black" cx="885" cy="-104" rx="88.01" ry="18"/>
<text text-anchor="middle" x="885" y="-99.8" font-family="Times,serif" font-size="14.00">FederalStateService</text>
</g>
<!-- FederalStateService&#45;&gt;SchoolModule -->
<g id="edge6" class="edge">
<title>FederalStateService&#45;&gt;SchoolModule</title>
<path fill="none" stroke="black" d="M885,-122.27C885,-140.56 885,-166 885,-166 885,-166 636.49,-166 636.49,-166"/>
<polygon fill="black" stroke="black" points="636.49,-162.5 626.49,-166 636.49,-169.5 636.49,-162.5"/>
</g>
<!-- SchoolRepo -->
<g id="node8" class="node">
<title>SchoolRepo</title>
<ellipse fill="#fdb462" stroke="black" cx="720" cy="-104" rx="58.49" ry="18"/>
<text text-anchor="middle" x="720" y="-99.8" font-family="Times,serif" font-size="14.00">SchoolRepo</text>
</g>
<!-- SchoolRepo&#45;&gt;SchoolModule -->
<g id="edge7" class="edge">
<title>SchoolRepo&#45;&gt;SchoolModule</title>
<path fill="none" stroke="black" d="M719.24,-122.01C719.24,-138.05 719.24,-159 719.24,-159 719.24,-159 636.35,-159 636.35,-159"/>
<polygon fill="black" stroke="black" points="636.35,-155.5 626.35,-159 636.35,-162.5 636.35,-155.5"/>
</g>
<!-- SchoolService -->
<g id="node9" class="node">
<title>SchoolService</title>
<ellipse fill="#fdb462" stroke="black" cx="577" cy="-104" rx="66.63" ry="18"/>
<text text-anchor="middle" x="577" y="-99.8" font-family="Times,serif" font-size="14.00">SchoolService</text>
</g>
<!-- SchoolService&#45;&gt;SchoolModule -->
<g id="edge8" class="edge">
<title>SchoolService&#45;&gt;SchoolModule</title>
<path fill="none" stroke="black" d="M577,-122.11C577,-122.11 577,-140.99 577,-140.99"/>
<polygon fill="black" stroke="black" points="573.5,-140.99 577,-150.99 580.5,-140.99 573.5,-140.99"/>
</g>
<!-- SchoolYearRepo -->
<g id="node10" class="node">
<title>SchoolYearRepo</title>
<ellipse fill="#fdb462" stroke="black" cx="415" cy="-104" rx="77.01" ry="18"/>
<text text-anchor="middle" x="415" y="-99.8" font-family="Times,serif" font-size="14.00">SchoolYearRepo</text>
</g>
<!-- SchoolYearRepo&#45;&gt;SchoolModule -->
<g id="edge9" class="edge">
<title>SchoolYearRepo&#45;&gt;SchoolModule</title>
<path fill="none" stroke="black" d="M436.61,-121.4C436.61,-137.52 436.61,-159 436.61,-159 436.61,-159 517.5,-159 517.5,-159"/>
<polygon fill="black" stroke="black" points="517.5,-162.5 527.5,-159 517.5,-155.5 517.5,-162.5"/>
</g>
<!-- SchoolYearService -->
<g id="node11" class="node">
<title>SchoolYearService</title>
<ellipse fill="#fdb462" stroke="black" cx="234" cy="-104" rx="85.65" ry="18"/>
<text text-anchor="middle" x="234" y="-99.8" font-family="Times,serif" font-size="14.00">SchoolYearService</text>
</g>
<!-- SchoolYearService&#45;&gt;SchoolModule -->
<g id="edge10" class="edge">
<title>SchoolYearService&#45;&gt;SchoolModule</title>
<path fill="none" stroke="black" d="M234,-122.27C234,-140.56 234,-166 234,-166 234,-166 517.49,-166 517.49,-166"/>
<polygon fill="black" stroke="black" points="517.49,-169.5 527.49,-166 517.49,-162.5 517.49,-169.5"/>
</g>
</g>
</svg>
