<?xml version="1.0" encoding="UTF-8" standalone="no"?>
<!DOCTYPE svg PUBLIC "-//W3C//DTD SVG 1.1//EN"
 "http://www.w3.org/Graphics/SVG/1.1/DTD/svg11.dtd">
<!-- Generated by graphviz version 2.47.0 (20210316.0004)
 -->
<!-- Title: dependencies Pages: 1 -->
<svg width="1183pt" height="284pt"
 viewBox="0.00 0.00 1183.00 284.00" xmlns="http://www.w3.org/2000/svg" xmlns:xlink="http://www.w3.org/1999/xlink">
<g id="graph0" class="graph" transform="scale(1 1) rotate(0) translate(4 280)">
<title>dependencies</title>
<polygon fill="white" stroke="transparent" points="-4,4 -4,-280 1179,-280 1179,4 -4,4"/>
<text text-anchor="start" x="566.51" y="-42.4" font-family="Times-12" font-weight="bold" font-size="14.00">Legend</text>
<polygon fill="#ffffb3" stroke="transparent" points="353.5,-10 353.5,-30 373.5,-30 373.5,-10 353.5,-10"/>
<text text-anchor="start" x="377.13" y="-15.4" font-family="Times-12" font-size="14.00"> &#160;Declarations</text>
<polygon fill="#8dd3c7" stroke="transparent" points="466.5,-10 466.5,-30 486.5,-30 486.5,-10 466.5,-10"/>
<text text-anchor="start" x="490.23" y="-15.4" font-family="Times-12" font-size="14.00"> &#160;Module</text>
<polygon fill="#80b1d3" stroke="transparent" points="552.5,-10 552.5,-30 572.5,-30 572.5,-10 552.5,-10"/>
<text text-anchor="start" x="576.28" y="-15.4" font-family="Times-12" font-size="14.00"> &#160;Bootstrap</text>
<polygon fill="#fdb462" stroke="transparent" points="649.5,-10 649.5,-30 669.5,-30 669.5,-10 649.5,-10"/>
<text text-anchor="start" x="673.17" y="-15.4" font-family="Times-12" font-size="14.00"> &#160;Providers</text>
<polygon fill="#fb8072" stroke="transparent" points="745.5,-10 745.5,-30 765.5,-30 765.5,-10 745.5,-10"/>
<text text-anchor="start" x="769.23" y="-15.4" font-family="Times-12" font-size="14.00"> &#160;Exports</text>
<g id="clust1" class="cluster">
<title>cluster_SchoolModule</title>
<polygon fill="none" stroke="black" stroke-dasharray="1,5" points="8,-70 8,-268 1167,-268 1167,-70 8,-70"/>
</g>
<g id="clust3" class="cluster">
<title>cluster_SchoolModule_imports</title>
<polygon fill="none" stroke="black" points="1043,-78 1043,-130 1159,-130 1159,-78 1043,-78"/>
</g>
<g id="clust4" class="cluster">
<title>cluster_SchoolModule_exports</title>
<polygon fill="none" stroke="black" points="392,-208 392,-260 804,-260 804,-208 392,-208"/>
</g>
<g id="clust6" class="cluster">
<title>cluster_SchoolModule_providers</title>
<polygon fill="none" stroke="black" points="16,-78 16,-130 1035,-130 1035,-78 16,-78"/>
</g>
<!-- LoggerModule -->
<g id="node1" class="node">
<title>LoggerModule</title>
<polygon fill="#8dd3c7" stroke="black" points="1150.98,-122 1147.98,-126 1126.98,-126 1123.98,-122 1051.02,-122 1051.02,-86 1150.98,-86 1150.98,-122"/>
<text text-anchor="middle" x="1101" y="-99.8" font-family="Times,serif" font-size="14.00">LoggerModule</text>
</g>
<!-- SchoolModule -->
<g id="node2" class="node">
<title>SchoolModule</title>
<polygon fill="#8dd3c7" stroke="black" points="645.44,-187 642.44,-191 621.44,-191 618.44,-187 546.56,-187 546.56,-151 645.44,-151 645.44,-187"/>
<text text-anchor="middle" x="596" y="-164.8" font-family="Times,serif" font-size="14.00">SchoolModule</text>
</g>
<!-- LoggerModule&#45;&gt;SchoolModule -->
<g id="edge1" class="edge">
<title>LoggerModule&#45;&gt;SchoolModule</title>
<path fill="none" stroke="black" d="M1101,-122.13C1101,-142.57 1101,-173 1101,-173 1101,-173 655.34,-173 655.34,-173"/>
<polygon fill="black" stroke="black" points="655.34,-169.5 645.34,-173 655.34,-176.5 655.34,-169.5"/>
</g>
<!-- FederalStateService  -->
<g id="node3" class="node">
<title>FederalStateService </title>
<polygon fill="#fb8072" stroke="black" points="795.95,-252 664.05,-252 664.05,-216 795.95,-216 795.95,-252"/>
<text text-anchor="middle" x="730" y="-229.8" font-family="Times,serif" font-size="14.00">FederalStateService </text>
</g>
<!-- SchoolModule&#45;&gt;FederalStateService  -->
<g id="edge2" class="edge">
<title>SchoolModule&#45;&gt;FederalStateService </title>
<path fill="none" stroke="black" stroke-dasharray="5,2" d="M645.57,-180C658.31,-180 668.51,-180 668.51,-180 668.51,-180 668.51,-205.72 668.51,-205.72"/>
<polygon fill="black" stroke="black" points="665.01,-205.72 668.51,-215.72 672.01,-205.72 665.01,-205.72"/>
</g>
<!-- SchoolService  -->
<g id="node4" class="node">
<title>SchoolService </title>
<polygon fill="#fb8072" stroke="black" points="646.37,-252 545.63,-252 545.63,-216 646.37,-216 646.37,-252"/>
<text text-anchor="middle" x="596" y="-229.8" font-family="Times,serif" font-size="14.00">SchoolService </text>
</g>
<!-- SchoolModule&#45;&gt;SchoolService  -->
<g id="edge3" class="edge">
<title>SchoolModule&#45;&gt;SchoolService </title>
<path fill="none" stroke="black" stroke-dasharray="5,2" d="M596,-187.11C596,-187.11 596,-205.99 596,-205.99"/>
<polygon fill="black" stroke="black" points="592.5,-205.99 596,-215.99 599.5,-205.99 592.5,-205.99"/>
</g>
<!-- SchoolYearService  -->
<g id="node5" class="node">
<title>SchoolYearService </title>
<polygon fill="#fb8072" stroke="black" points="527.56,-252 400.44,-252 400.44,-216 527.56,-216 527.56,-252"/>
<text text-anchor="middle" x="464" y="-229.8" font-family="Times,serif" font-size="14.00">SchoolYearService </text>
</g>
<!-- SchoolModule&#45;&gt;SchoolYearService  -->
<g id="edge4" class="edge">
<title>SchoolModule&#45;&gt;SchoolYearService </title>
<path fill="none" stroke="black" stroke-dasharray="5,2" d="M546.64,-180C533.95,-180 523.8,-180 523.8,-180 523.8,-180 523.8,-205.72 523.8,-205.72"/>
<polygon fill="black" stroke="black" points="520.3,-205.72 523.8,-215.72 527.3,-205.72 520.3,-205.72"/>
</g>
<!-- FederalStateRepo -->
<g id="node6" class="node">
<title>FederalStateRepo</title>
<ellipse fill="#fdb462" stroke="black" cx="947" cy="-104" rx="79.87" ry="18"/>
<text text-anchor="middle" x="947" y="-99.8" font-family="Times,serif" font-size="14.00">FederalStateRepo</text>
</g>
<!-- FederalStateRepo&#45;&gt;SchoolModule -->
<g id="edge5" class="edge">
<title>FederalStateRepo&#45;&gt;SchoolModule</title>
<path fill="none" stroke="black" d="M947,-122.27C947,-140.56 947,-166 947,-166 947,-166 655.55,-166 655.55,-166"/>
<polygon fill="black" stroke="black" points="655.55,-162.5 645.55,-166 655.55,-169.5 655.55,-162.5"/>
</g>
<!-- FederalStateService -->
<g id="node7" class="node">
<title>FederalStateService</title>
<ellipse fill="#fdb462" stroke="black" cx="761" cy="-104" rx="88.01" ry="18"/>
<text text-anchor="middle" x="761" y="-99.8" font-family="Times,serif" font-size="14.00">FederalStateService</text>
</g>
<!-- FederalStateService&#45;&gt;SchoolModule -->
<g id="edge6" class="edge">
<title>FederalStateService&#45;&gt;SchoolModule</title>
<path fill="none" stroke="black" d="M734.23,-121.4C734.23,-137.52 734.23,-159 734.23,-159 734.23,-159 655.52,-159 655.52,-159"/>
<polygon fill="black" stroke="black" points="655.52,-155.5 645.52,-159 655.52,-162.5 655.52,-155.5"/>
</g>
<!-- SchoolRepo -->
<g id="node8" class="node">
<title>SchoolRepo</title>
<ellipse fill="#fdb462" stroke="black" cx="596" cy="-104" rx="58.49" ry="18"/>
<text text-anchor="middle" x="596" y="-99.8" font-family="Times,serif" font-size="14.00">SchoolRepo</text>
</g>
<!-- SchoolRepo&#45;&gt;SchoolModule -->
<g id="edge7" class="edge">
<title>SchoolRepo&#45;&gt;SchoolModule</title>
<path fill="none" stroke="black" d="M596,-122.11C596,-122.11 596,-140.99 596,-140.99"/>
<polygon fill="black" stroke="black" points="592.5,-140.99 596,-150.99 599.5,-140.99 592.5,-140.99"/>
</g>
<!-- SchoolService -->
<g id="node9" class="node">
<title>SchoolService</title>
<ellipse fill="#fdb462" stroke="black" cx="453" cy="-104" rx="66.63" ry="18"/>
<text text-anchor="middle" x="453" y="-99.8" font-family="Times,serif" font-size="14.00">SchoolService</text>
</g>
<!-- SchoolService&#45;&gt;SchoolModule -->
<g id="edge8" class="edge">
<title>SchoolService&#45;&gt;SchoolModule</title>
<path fill="none" stroke="black" d="M460.02,-122.01C460.02,-138.05 460.02,-159 460.02,-159 460.02,-159 536.52,-159 536.52,-159"/>
<polygon fill="black" stroke="black" points="536.52,-162.5 546.52,-159 536.52,-155.5 536.52,-162.5"/>
</g>
<!-- SchoolYearRepo -->
<g id="node10" class="node">
<title>SchoolYearRepo</title>
<ellipse fill="#fdb462" stroke="black" cx="291" cy="-104" rx="77.01" ry="18"/>
<text text-anchor="middle" x="291" y="-99.8" font-family="Times,serif" font-size="14.00">SchoolYearRepo</text>
</g>
<!-- SchoolYearRepo&#45;&gt;SchoolModule -->
<g id="edge9" class="edge">
<title>SchoolYearRepo&#45;&gt;SchoolModule</title>
<path fill="none" stroke="black" d="M291,-122.27C291,-140.56 291,-166 291,-166 291,-166 536.66,-166 536.66,-166"/>
<polygon fill="black" stroke="black" points="536.66,-169.5 546.66,-166 536.66,-162.5 536.66,-169.5"/>
</g>
<!-- SchoolYearService -->
<g id="node11" class="node">
<title>SchoolYearService</title>
<ellipse fill="#fdb462" stroke="black" cx="110" cy="-104" rx="85.65" ry="18"/>
<text text-anchor="middle" x="110" y="-99.8" font-family="Times,serif" font-size="14.00">SchoolYearService</text>
</g>
<!-- SchoolYearService&#45;&gt;SchoolModule -->
<g id="edge10" class="edge">
<title>SchoolYearService&#45;&gt;SchoolModule</title>
<path fill="none" stroke="black" d="M110,-122.13C110,-142.57 110,-173 110,-173 110,-173 536.73,-173 536.73,-173"/>
<polygon fill="black" stroke="black" points="536.73,-176.5 546.73,-173 536.73,-169.5 536.73,-176.5"/>
</g>
</g>
</svg>
