<?xml version="1.0" encoding="UTF-8" standalone="no"?>
<!DOCTYPE svg PUBLIC "-//W3C//DTD SVG 1.1//EN"
 "http://www.w3.org/Graphics/SVG/1.1/DTD/svg11.dtd">
<!-- Generated by graphviz version 2.47.0 (20210316.0004)
 -->
<!-- Title: dependencies Pages: 1 -->
<svg width="504pt" height="284pt"
 viewBox="0.00 0.00 504.00 284.00" xmlns="http://www.w3.org/2000/svg" xmlns:xlink="http://www.w3.org/1999/xlink">
<g id="graph0" class="graph" transform="scale(1 1) rotate(0) translate(4 280)">
<title>dependencies</title>
<polygon fill="white" stroke="transparent" points="-4,4 -4,-280 500,-280 500,4 -4,4"/>
<text text-anchor="start" x="227.01" y="-42.4" font-family="Times-12" font-weight="bold" font-size="14.00">Legend</text>
<polygon fill="#ffffb3" stroke="transparent" points="14,-10 14,-30 34,-30 34,-10 14,-10"/>
<text text-anchor="start" x="37.63" y="-15.4" font-family="Times-12" font-size="14.00"> &#160;Declarations</text>
<polygon fill="#8dd3c7" stroke="transparent" points="127,-10 127,-30 147,-30 147,-10 127,-10"/>
<text text-anchor="start" x="150.73" y="-15.4" font-family="Times-12" font-size="14.00"> &#160;Module</text>
<polygon fill="#80b1d3" stroke="transparent" points="213,-10 213,-30 233,-30 233,-10 213,-10"/>
<text text-anchor="start" x="236.78" y="-15.4" font-family="Times-12" font-size="14.00"> &#160;Bootstrap</text>
<polygon fill="#fdb462" stroke="transparent" points="310,-10 310,-30 330,-30 330,-10 310,-10"/>
<text text-anchor="start" x="333.67" y="-15.4" font-family="Times-12" font-size="14.00"> &#160;Providers</text>
<polygon fill="#fb8072" stroke="transparent" points="406,-10 406,-30 426,-30 426,-10 406,-10"/>
<text text-anchor="start" x="429.73" y="-15.4" font-family="Times-12" font-size="14.00"> &#160;Exports</text>
<g id="clust1" class="cluster">
<title>cluster_SchoolModule</title>
<polygon fill="none" stroke="black" stroke-dasharray="1,5" points="8.5,-70 8.5,-268 487.5,-268 487.5,-70 8.5,-70"/>
</g>
<g id="clust3" class="cluster">
<title>cluster_SchoolModule_imports</title>
<polygon fill="none" stroke="black" points="363.5,-78 363.5,-130 479.5,-130 479.5,-78 363.5,-78"/>
</g>
<g id="clust6" class="cluster">
<title>cluster_SchoolModule_providers</title>
<polygon fill="none" stroke="black" points="16.5,-78 16.5,-130 355.5,-130 355.5,-78 16.5,-78"/>
</g>
<g id="clust4" class="cluster">
<title>cluster_SchoolModule_exports</title>
<polygon fill="none" stroke="black" points="142.5,-208 142.5,-260 404.5,-260 404.5,-208 142.5,-208"/>
</g>
<!-- SystemModule -->
<g id="node1" class="node">
<title>SystemModule</title>
<polygon fill="#8dd3c7" stroke="black" points="471.77,-122 468.77,-126 447.77,-126 444.77,-122 371.23,-122 371.23,-86 471.77,-86 471.77,-122"/>
<text text-anchor="middle" x="421.5" y="-99.8" font-family="Times,serif" font-size="14.00">SystemModule</text>
</g>
<!-- SchoolModule -->
<g id="node2" class="node">
<title>SchoolModule</title>
<polygon fill="#8dd3c7" stroke="black" points="329.94,-187 326.94,-191 305.94,-191 302.94,-187 231.06,-187 231.06,-151 329.94,-151 329.94,-187"/>
<text text-anchor="middle" x="280.5" y="-164.8" font-family="Times,serif" font-size="14.00">SchoolModule</text>
</g>
<!-- SystemModule&#45;&gt;SchoolModule -->
<g id="edge1" class="edge">
<title>SystemModule&#45;&gt;SchoolModule</title>
<path fill="none" stroke="black" d="M383.9,-122.11C383.9,-141.34 383.9,-169 383.9,-169 383.9,-169 339.78,-169 339.78,-169"/>
<polygon fill="black" stroke="black" points="339.78,-165.5 329.78,-169 339.78,-172.5 339.78,-165.5"/>
</g>
<!-- SchoolService  -->
<g id="node3" class="node">
<title>SchoolService </title>
<polygon fill="#fb8072" stroke="black" points="396.87,-252 296.13,-252 296.13,-216 396.87,-216 396.87,-252"/>
<text text-anchor="middle" x="346.5" y="-229.8" font-family="Times,serif" font-size="14.00">SchoolService </text>
</g>
<!-- SchoolModule&#45;&gt;SchoolService  -->
<g id="edge2" class="edge">
<title>SchoolModule&#45;&gt;SchoolService </title>
<path fill="none" stroke="black" stroke-dasharray="5,2" d="M313.02,-187.11C313.02,-187.11 313.02,-205.99 313.02,-205.99"/>
<polygon fill="black" stroke="black" points="309.52,-205.99 313.02,-215.99 316.52,-205.99 309.52,-205.99"/>
</g>
<!-- SchoolYearService  -->
<g id="node4" class="node">
<title>SchoolYearService </title>
<polygon fill="#fb8072" stroke="black" points="278.06,-252 150.94,-252 150.94,-216 278.06,-216 278.06,-252"/>
<text text-anchor="middle" x="214.5" y="-229.8" font-family="Times,serif" font-size="14.00">SchoolYearService </text>
</g>
<!-- SchoolModule&#45;&gt;SchoolYearService  -->
<g id="edge3" class="edge">
<title>SchoolModule&#45;&gt;SchoolYearService </title>
<path fill="none" stroke="black" stroke-dasharray="5,2" d="M254.78,-187.11C254.78,-187.11 254.78,-205.99 254.78,-205.99"/>
<polygon fill="black" stroke="black" points="251.28,-205.99 254.78,-215.99 258.28,-205.99 251.28,-205.99"/>
</g>
<!-- SchoolService -->
<g id="node5" class="node">
<title>SchoolService</title>
<ellipse fill="#fdb462" stroke="black" cx="280.5" cy="-104" rx="66.63" ry="18"/>
<text text-anchor="middle" x="280.5" y="-99.8" font-family="Times,serif" font-size="14.00">SchoolService</text>
</g>
<!-- SchoolService&#45;&gt;SchoolModule -->
<g id="edge4" class="edge">
<title>SchoolService&#45;&gt;SchoolModule</title>
<path fill="none" stroke="black" d="M280.5,-122.11C280.5,-122.11 280.5,-140.99 280.5,-140.99"/>
<polygon fill="black" stroke="black" points="277,-140.99 280.5,-150.99 284,-140.99 277,-140.99"/>
</g>
<!-- SchoolYearService -->
<g id="node6" class="node">
<title>SchoolYearService</title>
<ellipse fill="#fdb462" stroke="black" cx="110.5" cy="-104" rx="85.65" ry="18"/>
<text text-anchor="middle" x="110.5" y="-99.8" font-family="Times,serif" font-size="14.00">SchoolYearService</text>
</g>
<!-- SchoolYearService&#45;&gt;SchoolModule -->
<g id="edge5" class="edge">
<title>SchoolYearService&#45;&gt;SchoolModule</title>
<path fill="none" stroke="black" d="M173.4,-116.23C173.4,-135.05 173.4,-169 173.4,-169 173.4,-169 221.02,-169 221.02,-169"/>
<polygon fill="black" stroke="black" points="221.02,-172.5 231.02,-169 221.02,-165.5 221.02,-172.5"/>
</g>
</g>
</svg>
