<?xml version="1.0" encoding="UTF-8" standalone="no"?>
<!DOCTYPE svg PUBLIC "-//W3C//DTD SVG 1.1//EN"
 "http://www.w3.org/Graphics/SVG/1.1/DTD/svg11.dtd">
<!-- Generated by graphviz version 5.0.0 (20220707.1540)
 -->
<!-- Title: dependencies Pages: 1 -->
<svg width="448pt" height="247pt"
 viewBox="0.00 0.00 448.00 246.80" xmlns="http://www.w3.org/2000/svg" xmlns:xlink="http://www.w3.org/1999/xlink">
<g id="graph0" class="graph" transform="scale(1 1) rotate(0) translate(4 242.8)">
<title>dependencies</title>
<polygon fill="white" stroke="transparent" points="-4,4 -4,-242.8 444,-242.8 444,4 -4,4"/>
<text text-anchor="middle" x="220" y="-8.2" font-family="sans-serif" font-size="14.00">dependencies</text>
<g id="clust1" class="cluster">
<title>cluster_SchoolModule</title>
<polygon fill="none" stroke="black" stroke-dasharray="1,5" points="8,-32.8 8,-230.8 432,-230.8 432,-32.8 8,-32.8"/>
</g>
<g id="clust6" class="cluster">
<title>cluster_SchoolModule_providers</title>
<polygon fill="none" stroke="black" points="140,-40.8 140,-92.8 424,-92.8 424,-40.8 140,-40.8"/>
</g>
<g id="clust4" class="cluster">
<title>cluster_SchoolModule_exports</title>
<polygon fill="none" stroke="black" points="157,-170.8 157,-222.8 273,-222.8 273,-170.8 157,-170.8"/>
</g>
<g id="clust3" class="cluster">
<title>cluster_SchoolModule_imports</title>
<polygon fill="none" stroke="black" points="16,-40.8 16,-92.8 132,-92.8 132,-40.8 16,-40.8"/>
</g>
<!-- LoggerModule -->
<g id="node1" class="node">
<title>LoggerModule</title>
<polygon fill="#8dd3c7" stroke="black" points="123.98,-84.8 120.98,-88.8 99.98,-88.8 96.98,-84.8 24.02,-84.8 24.02,-48.8 123.98,-48.8 123.98,-84.8"/>
<text text-anchor="middle" x="74" y="-62.6" font-family="Times,serif" font-size="14.00">LoggerModule</text>
</g>
<!-- SchoolModule -->
<g id="node2" class="node">
<title>SchoolModule</title>
<polygon fill="#8dd3c7" stroke="black" points="264.44,-149.8 261.44,-153.8 240.44,-153.8 237.44,-149.8 165.56,-149.8 165.56,-113.8 264.44,-113.8 264.44,-149.8"/>
<text text-anchor="middle" x="215" y="-127.6" font-family="Times,serif" font-size="14.00">SchoolModule</text>
</g>
<!-- LoggerModule&#45;&gt;SchoolModule -->
<g id="edge1" class="edge">
<title>LoggerModule&#45;&gt;SchoolModule</title>
<path fill="none" stroke="black" d="M74,-84.91C74,-104.14 74,-131.8 74,-131.8 74,-131.8 155.69,-131.8 155.69,-131.8"/>
<polygon fill="black" stroke="black" points="155.69,-135.3 165.69,-131.8 155.69,-128.3 155.69,-135.3"/>
</g>
<!-- SchoolService  -->
<g id="node3" class="node">
<title>SchoolService </title>
<polygon fill="#fb8072" stroke="black" points="265.37,-214.8 164.63,-214.8 164.63,-178.8 265.37,-178.8 265.37,-214.8"/>
<text text-anchor="middle" x="215" y="-192.6" font-family="Times,serif" font-size="14.00">SchoolService </text>
</g>
<!-- SchoolModule&#45;&gt;SchoolService  -->
<g id="edge2" class="edge">
<title>SchoolModule&#45;&gt;SchoolService </title>
<path fill="none" stroke="black" stroke-dasharray="5,2" d="M215,-149.91C215,-149.91 215,-168.79 215,-168.79"/>
<polygon fill="black" stroke="black" points="211.5,-168.79 215,-178.79 218.5,-168.79 211.5,-168.79"/>
</g>
<!-- SchoolRepo -->
<g id="node4" class="node">
<title>SchoolRepo</title>
<ellipse fill="#fdb462" stroke="black" cx="358" cy="-66.8" rx="58.49" ry="18"/>
<text text-anchor="middle" x="358" y="-62.6" font-family="Times,serif" font-size="14.00">SchoolRepo</text>
</g>
<!-- SchoolRepo&#45;&gt;SchoolModule -->
<g id="edge3" class="edge">
<title>SchoolRepo&#45;&gt;SchoolModule</title>
<path fill="none" stroke="black" d="M358,-84.91C358,-104.14 358,-131.8 358,-131.8 358,-131.8 274.61,-131.8 274.61,-131.8"/>
<polygon fill="black" stroke="black" points="274.61,-128.3 264.61,-131.8 274.61,-135.3 274.61,-128.3"/>
</g>
<!-- SchoolService -->
<g id="node5" class="node">
<title>SchoolService</title>
<ellipse fill="#fdb462" stroke="black" cx="215" cy="-66.8" rx="66.64" ry="18"/>
<text text-anchor="middle" x="215" y="-62.6" font-family="Times,serif" font-size="14.00">SchoolService</text>
</g>
<!-- SchoolService&#45;&gt;SchoolModule -->
<g id="edge4" class="edge">
<title>SchoolService&#45;&gt;SchoolModule</title>
<path fill="none" stroke="black" d="M215,-84.91C215,-84.91 215,-103.79 215,-103.79"/>
<polygon fill="black" stroke="black" points="211.5,-103.79 215,-113.79 218.5,-103.79 211.5,-103.79"/>
</g>
</g>
</svg>
