<?xml version="1.0" encoding="UTF-8" standalone="no"?>
<!DOCTYPE svg PUBLIC "-//W3C//DTD SVG 1.1//EN"
 "http://www.w3.org/Graphics/SVG/1.1/DTD/svg11.dtd">
<!-- Generated by graphviz version 2.47.0 (20210316.0004)
 -->
<!-- Title: dependencies Pages: 1 -->
<svg width="1416pt" height="284pt"
 viewBox="0.00 0.00 1416.00 284.00" xmlns="http://www.w3.org/2000/svg" xmlns:xlink="http://www.w3.org/1999/xlink">
<g id="graph0" class="graph" transform="scale(1 1) rotate(0) translate(4 280)">
<title>dependencies</title>
<polygon fill="white" stroke="transparent" points="-4,4 -4,-280 1412,-280 1412,4 -4,4"/>
<text text-anchor="start" x="683.01" y="-42.4" font-family="Times-12" font-weight="bold" font-size="14.00">Legend</text>
<polygon fill="#ffffb3" stroke="transparent" points="470,-10 470,-30 490,-30 490,-10 470,-10"/>
<text text-anchor="start" x="493.63" y="-15.4" font-family="Times-12" font-size="14.00"> &#160;Declarations</text>
<polygon fill="#8dd3c7" stroke="transparent" points="583,-10 583,-30 603,-30 603,-10 583,-10"/>
<text text-anchor="start" x="606.73" y="-15.4" font-family="Times-12" font-size="14.00"> &#160;Module</text>
<polygon fill="#80b1d3" stroke="transparent" points="669,-10 669,-30 689,-30 689,-10 669,-10"/>
<text text-anchor="start" x="692.78" y="-15.4" font-family="Times-12" font-size="14.00"> &#160;Bootstrap</text>
<polygon fill="#fdb462" stroke="transparent" points="766,-10 766,-30 786,-30 786,-10 766,-10"/>
<text text-anchor="start" x="789.67" y="-15.4" font-family="Times-12" font-size="14.00"> &#160;Providers</text>
<polygon fill="#fb8072" stroke="transparent" points="862,-10 862,-30 882,-30 882,-10 862,-10"/>
<text text-anchor="start" x="885.73" y="-15.4" font-family="Times-12" font-size="14.00"> &#160;Exports</text>
<g id="clust1" class="cluster">
<title>cluster_SchoolModule</title>
<polygon fill="none" stroke="black" stroke-dasharray="1,5" points="8,-70 8,-268 1400,-268 1400,-70 8,-70"/>
</g>
<g id="clust3" class="cluster">
<title>cluster_SchoolModule_imports</title>
<polygon fill="none" stroke="black" points="1276,-78 1276,-130 1392,-130 1392,-78 1276,-78"/>
</g>
<g id="clust6" class="cluster">
<title>cluster_SchoolModule_providers</title>
<polygon fill="none" stroke="black" points="16,-78 16,-130 1268,-130 1268,-78 16,-78"/>
</g>
<g id="clust4" class="cluster">
<title>cluster_SchoolModule_exports</title>
<polygon fill="none" stroke="black" points="553,-208 553,-260 965,-260 965,-208 553,-208"/>
</g>
<!-- LoggerModule -->
<g id="node1" class="node">
<title>LoggerModule</title>
<polygon fill="#8dd3c7" stroke="black" points="1383.98,-122 1380.98,-126 1359.98,-126 1356.98,-122 1284.02,-122 1284.02,-86 1383.98,-86 1383.98,-122"/>
<text text-anchor="middle" x="1334" y="-99.8" font-family="Times,serif" font-size="14.00">LoggerModule</text>
</g>
<!-- SchoolModule -->
<g id="node2" class="node">
<title>SchoolModule</title>
<polygon fill="#8dd3c7" stroke="black" points="806.44,-187 803.44,-191 782.44,-191 779.44,-187 707.56,-187 707.56,-151 806.44,-151 806.44,-187"/>
<text text-anchor="middle" x="757" y="-164.8" font-family="Times,serif" font-size="14.00">SchoolModule</text>
</g>
<!-- LoggerModule&#45;&gt;SchoolModule -->
<g id="edge1" class="edge">
<title>LoggerModule&#45;&gt;SchoolModule</title>
<path fill="none" stroke="black" d="M1334,-122.13C1334,-142.57 1334,-173 1334,-173 1334,-173 816.44,-173 816.44,-173"/>
<polygon fill="black" stroke="black" points="816.44,-169.5 806.44,-173 816.44,-176.5 816.44,-169.5"/>
</g>
<!-- FederalStateService  -->
<g id="node3" class="node">
<title>FederalStateService </title>
<polygon fill="#fb8072" stroke="black" points="956.95,-252 825.05,-252 825.05,-216 956.95,-216 956.95,-252"/>
<text text-anchor="middle" x="891" y="-229.8" font-family="Times,serif" font-size="14.00">FederalStateService </text>
</g>
<!-- SchoolModule&#45;&gt;FederalStateService  -->
<g id="edge2" class="edge">
<title>SchoolModule&#45;&gt;FederalStateService </title>
<path fill="none" stroke="black" stroke-dasharray="5,2" d="M806.34,-180C831.25,-180 856.26,-180 856.26,-180 856.26,-180 856.26,-205.72 856.26,-205.72"/>
<polygon fill="black" stroke="black" points="852.76,-205.72 856.26,-215.72 859.76,-205.72 852.76,-205.72"/>
</g>
<!-- SchoolService  -->
<g id="node4" class="node">
<title>SchoolService </title>
<polygon fill="#fb8072" stroke="black" points="807.37,-252 706.63,-252 706.63,-216 807.37,-216 807.37,-252"/>
<text text-anchor="middle" x="757" y="-229.8" font-family="Times,serif" font-size="14.00">SchoolService </text>
</g>
<!-- SchoolModule&#45;&gt;SchoolService  -->
<g id="edge3" class="edge">
<title>SchoolModule&#45;&gt;SchoolService </title>
<path fill="none" stroke="black" stroke-dasharray="5,2" d="M757,-187.11C757,-187.11 757,-205.99 757,-205.99"/>
<polygon fill="black" stroke="black" points="753.5,-205.99 757,-215.99 760.5,-205.99 753.5,-205.99"/>
</g>
<!-- SchoolYearService  -->
<g id="node5" class="node">
<title>SchoolYearService </title>
<polygon fill="#fb8072" stroke="black" points="688.56,-252 561.44,-252 561.44,-216 688.56,-216 688.56,-252"/>
<text text-anchor="middle" x="625" y="-229.8" font-family="Times,serif" font-size="14.00">SchoolYearService </text>
</g>
<!-- SchoolModule&#45;&gt;SchoolYearService  -->
<g id="edge4" class="edge">
<title>SchoolModule&#45;&gt;SchoolYearService </title>
<path fill="none" stroke="black" stroke-dasharray="5,2" d="M707.6,-180C681.16,-180 653.98,-180 653.98,-180 653.98,-180 653.98,-205.72 653.98,-205.72"/>
<polygon fill="black" stroke="black" points="650.48,-205.72 653.98,-215.72 657.48,-205.72 650.48,-205.72"/>
</g>
<!-- FederalStateRepo -->
<g id="node6" class="node">
<title>FederalStateRepo</title>
<ellipse fill="#fdb462" stroke="black" cx="1180" cy="-104" rx="79.87" ry="18"/>
<text text-anchor="middle" x="1180" y="-99.8" font-family="Times,serif" font-size="14.00">FederalStateRepo</text>
</g>
<!-- FederalStateRepo&#45;&gt;SchoolModule -->
<g id="edge5" class="edge">
<title>FederalStateRepo&#45;&gt;SchoolModule</title>
<path fill="none" stroke="black" d="M1180,-122.27C1180,-140.56 1180,-166 1180,-166 1180,-166 816.35,-166 816.35,-166"/>
<polygon fill="black" stroke="black" points="816.35,-162.5 806.35,-166 816.35,-169.5 816.35,-162.5"/>
</g>
<!-- FederalStateService -->
<g id="node7" class="node">
<title>FederalStateService</title>
<ellipse fill="#fdb462" stroke="black" cx="994" cy="-104" rx="88.01" ry="18"/>
<text text-anchor="middle" x="994" y="-99.8" font-family="Times,serif" font-size="14.00">FederalStateService</text>
</g>
<!-- FederalStateService&#45;&gt;SchoolModule -->
<g id="edge6" class="edge">
<title>FederalStateService&#45;&gt;SchoolModule</title>
<path fill="none" stroke="black" d="M931.23,-116.76C931.23,-133 931.23,-159 931.23,-159 931.23,-159 816.46,-159 816.46,-159"/>
<polygon fill="black" stroke="black" points="816.46,-155.5 806.46,-159 816.46,-162.5 816.46,-155.5"/>
</g>
<!-- SchoolRepo -->
<g id="node8" class="node">
<title>SchoolRepo</title>
<ellipse fill="#fdb462" stroke="black" cx="829" cy="-104" rx="58.49" ry="18"/>
<text text-anchor="middle" x="829" y="-99.8" font-family="Times,serif" font-size="14.00">SchoolRepo</text>
</g>
<!-- SchoolRepo&#45;&gt;SchoolModule -->
<g id="edge7" class="edge">
<title>SchoolRepo&#45;&gt;SchoolModule</title>
<path fill="none" stroke="black" d="M788.49,-117.15C788.49,-117.15 788.49,-140.69 788.49,-140.69"/>
<polygon fill="black" stroke="black" points="784.99,-140.69 788.49,-150.69 791.99,-140.69 784.99,-140.69"/>
</g>
<!-- SchoolService -->
<g id="node9" class="node">
<title>SchoolService</title>
<ellipse fill="#fdb462" stroke="black" cx="686" cy="-104" rx="66.63" ry="18"/>
<text text-anchor="middle" x="686" y="-99.8" font-family="Times,serif" font-size="14.00">SchoolService</text>
</g>
<!-- SchoolService&#45;&gt;SchoolModule -->
<g id="edge8" class="edge">
<title>SchoolService&#45;&gt;SchoolModule</title>
<path fill="none" stroke="black" d="M730.3,-117.78C730.3,-117.78 730.3,-140.55 730.3,-140.55"/>
<polygon fill="black" stroke="black" points="726.8,-140.55 730.3,-150.55 733.8,-140.55 726.8,-140.55"/>
</g>
<!-- SchoolValidationService -->
<g id="node10" class="node">
<title>SchoolValidationService</title>
<ellipse fill="#fdb462" stroke="black" cx="494" cy="-104" rx="107.66" ry="18"/>
<text text-anchor="middle" x="494" y="-99.8" font-family="Times,serif" font-size="14.00">SchoolValidationService</text>
</g>
<!-- SchoolValidationService&#45;&gt;SchoolModule -->
<g id="edge9" class="edge">
<title>SchoolValidationService&#45;&gt;SchoolModule</title>
<path fill="none" stroke="black" d="M581.4,-114.6C581.4,-130.59 581.4,-159 581.4,-159 581.4,-159 697.62,-159 697.62,-159"/>
<polygon fill="black" stroke="black" points="697.62,-162.5 707.62,-159 697.62,-155.5 697.62,-162.5"/>
</g>
<!-- SchoolYearRepo -->
<g id="node11" class="node">
<title>SchoolYearRepo</title>
<ellipse fill="#fdb462" stroke="black" cx="291" cy="-104" rx="77.01" ry="18"/>
<text text-anchor="middle" x="291" y="-99.8" font-family="Times,serif" font-size="14.00">SchoolYearRepo</text>
</g>
<!-- SchoolYearRepo&#45;&gt;SchoolModule -->
<g id="edge10" class="edge">
<title>SchoolYearRepo&#45;&gt;SchoolModule</title>
<path fill="none" stroke="black" d="M291,-122.27C291,-140.56 291,-166 291,-166 291,-166 697.57,-166 697.57,-166"/>
<polygon fill="black" stroke="black" points="697.57,-169.5 707.57,-166 697.57,-162.5 697.57,-169.5"/>
</g>
<!-- SchoolYearService -->
<g id="node12" class="node">
<title>SchoolYearService</title>
<ellipse fill="#fdb462" stroke="black" cx="110" cy="-104" rx="85.65" ry="18"/>
<text text-anchor="middle" x="110" y="-99.8" font-family="Times,serif" font-size="14.00">SchoolYearService</text>
</g>
<!-- SchoolYearService&#45;&gt;SchoolModule -->
<g id="edge11" class="edge">
<title>SchoolYearService&#45;&gt;SchoolModule</title>
<path fill="none" stroke="black" d="M110,-122.13C110,-142.57 110,-173 110,-173 110,-173 697.57,-173 697.57,-173"/>
<polygon fill="black" stroke="black" points="697.57,-176.5 707.57,-173 697.57,-169.5 697.57,-176.5"/>
</g>
</g>
</svg>
