<?xml version="1.0" encoding="UTF-8" standalone="no"?>
<!DOCTYPE svg PUBLIC "-//W3C//DTD SVG 1.1//EN"
 "http://www.w3.org/Graphics/SVG/1.1/DTD/svg11.dtd">
<!-- Generated by graphviz version 2.47.0 (20210316.0004)
 -->
<!-- Title: dependencies Pages: 1 -->
<svg width="1416pt" height="284pt"
 viewBox="0.00 0.00 1416.00 284.00" xmlns="http://www.w3.org/2000/svg" xmlns:xlink="http://www.w3.org/1999/xlink">
<g id="graph0" class="graph" transform="scale(1 1) rotate(0) translate(4 280)">
<title>dependencies</title>
<polygon fill="white" stroke="transparent" points="-4,4 -4,-280 1412,-280 1412,4 -4,4"/>
<text text-anchor="start" x="683.01" y="-42.4" font-family="Times-12" font-weight="bold" font-size="14.00">Legend</text>
<polygon fill="#ffffb3" stroke="transparent" points="470,-10 470,-30 490,-30 490,-10 470,-10"/>
<text text-anchor="start" x="493.63" y="-15.4" font-family="Times-12" font-size="14.00"> &#160;Declarations</text>
<polygon fill="#8dd3c7" stroke="transparent" points="583,-10 583,-30 603,-30 603,-10 583,-10"/>
<text text-anchor="start" x="606.73" y="-15.4" font-family="Times-12" font-size="14.00"> &#160;Module</text>
<polygon fill="#80b1d3" stroke="transparent" points="669,-10 669,-30 689,-30 689,-10 669,-10"/>
<text text-anchor="start" x="692.78" y="-15.4" font-family="Times-12" font-size="14.00"> &#160;Bootstrap</text>
<polygon fill="#fdb462" stroke="transparent" points="766,-10 766,-30 786,-30 786,-10 766,-10"/>
<text text-anchor="start" x="789.67" y="-15.4" font-family="Times-12" font-size="14.00"> &#160;Providers</text>
<polygon fill="#fb8072" stroke="transparent" points="862,-10 862,-30 882,-30 882,-10 862,-10"/>
<text text-anchor="start" x="885.73" y="-15.4" font-family="Times-12" font-size="14.00"> &#160;Exports</text>
<g id="clust1" class="cluster">
<title>cluster_SchoolModule</title>
<polygon fill="none" stroke="black" stroke-dasharray="1,5" points="8,-70 8,-268 1400,-268 1400,-70 8,-70"/>
</g>
<g id="clust6" class="cluster">
<title>cluster_SchoolModule_providers</title>
<polygon fill="none" stroke="black" points="140,-78 140,-130 1392,-130 1392,-78 140,-78"/>
</g>
<g id="clust4" class="cluster">
<title>cluster_SchoolModule_exports</title>
<polygon fill="none" stroke="black" points="510,-208 510,-260 922,-260 922,-208 510,-208"/>
</g>
<g id="clust3" class="cluster">
<title>cluster_SchoolModule_imports</title>
<polygon fill="none" stroke="black" points="16,-78 16,-130 132,-130 132,-78 16,-78"/>
</g>
<!-- LoggerModule -->
<g id="node1" class="node">
<title>LoggerModule</title>
<polygon fill="#8dd3c7" stroke="black" points="123.98,-122 120.98,-126 99.98,-126 96.98,-122 24.02,-122 24.02,-86 123.98,-86 123.98,-122"/>
<text text-anchor="middle" x="74" y="-99.8" font-family="Times,serif" font-size="14.00">LoggerModule</text>
</g>
<!-- SchoolModule -->
<g id="node2" class="node">
<title>SchoolModule</title>
<polygon fill="#8dd3c7" stroke="black" points="763.44,-187 760.44,-191 739.44,-191 736.44,-187 664.56,-187 664.56,-151 763.44,-151 763.44,-187"/>
<text text-anchor="middle" x="714" y="-164.8" font-family="Times,serif" font-size="14.00">SchoolModule</text>
</g>
<!-- LoggerModule&#45;&gt;SchoolModule -->
<g id="edge1" class="edge">
<title>LoggerModule&#45;&gt;SchoolModule</title>
<path fill="none" stroke="black" d="M74,-122.13C74,-142.57 74,-173 74,-173 74,-173 654.58,-173 654.58,-173"/>
<polygon fill="black" stroke="black" points="654.58,-176.5 664.58,-173 654.58,-169.5 654.58,-176.5"/>
</g>
<!-- FederalStateService  -->
<g id="node3" class="node">
<title>FederalStateService </title>
<polygon fill="#fb8072" stroke="black" points="913.95,-252 782.05,-252 782.05,-216 913.95,-216 913.95,-252"/>
<text text-anchor="middle" x="848" y="-229.8" font-family="Times,serif" font-size="14.00">FederalStateService </text>
</g>
<!-- SchoolModule&#45;&gt;FederalStateService  -->
<g id="edge2" class="edge">
<title>SchoolModule&#45;&gt;FederalStateService </title>
<path fill="none" stroke="black" stroke-dasharray="5,2" d="M763.34,-180C794.74,-180 829.55,-180 829.55,-180 829.55,-180 829.55,-205.72 829.55,-205.72"/>
<polygon fill="black" stroke="black" points="826.05,-205.72 829.55,-215.72 833.05,-205.72 826.05,-205.72"/>
</g>
<!-- SchoolService  -->
<g id="node4" class="node">
<title>SchoolService </title>
<polygon fill="#fb8072" stroke="black" points="764.37,-252 663.63,-252 663.63,-216 764.37,-216 764.37,-252"/>
<text text-anchor="middle" x="714" y="-229.8" font-family="Times,serif" font-size="14.00">SchoolService </text>
</g>
<!-- SchoolModule&#45;&gt;SchoolService  -->
<g id="edge3" class="edge">
<title>SchoolModule&#45;&gt;SchoolService </title>
<path fill="none" stroke="black" stroke-dasharray="5,2" d="M714,-187.11C714,-187.11 714,-205.99 714,-205.99"/>
<polygon fill="black" stroke="black" points="710.5,-205.99 714,-215.99 717.5,-205.99 710.5,-205.99"/>
</g>
<!-- SchoolYearService  -->
<g id="node5" class="node">
<title>SchoolYearService </title>
<polygon fill="#fb8072" stroke="black" points="645.56,-252 518.44,-252 518.44,-216 645.56,-216 645.56,-252"/>
<text text-anchor="middle" x="582" y="-229.8" font-family="Times,serif" font-size="14.00">SchoolYearService </text>
</g>
<!-- SchoolModule&#45;&gt;SchoolYearService  -->
<g id="edge4" class="edge">
<title>SchoolModule&#45;&gt;SchoolYearService </title>
<path fill="none" stroke="black" stroke-dasharray="5,2" d="M664.47,-180C627.02,-180 582,-180 582,-180 582,-180 582,-205.72 582,-205.72"/>
<polygon fill="black" stroke="black" points="578.5,-205.72 582,-215.72 585.5,-205.72 578.5,-205.72"/>
</g>
<!-- FederalStateRepo -->
<g id="node6" class="node">
<title>FederalStateRepo</title>
<ellipse fill="#fdb462" stroke="black" cx="1304" cy="-104" rx="79.87" ry="18"/>
<text text-anchor="middle" x="1304" y="-99.8" font-family="Times,serif" font-size="14.00">FederalStateRepo</text>
</g>
<!-- FederalStateRepo&#45;&gt;SchoolModule -->
<g id="edge5" class="edge">
<title>FederalStateRepo&#45;&gt;SchoolModule</title>
<path fill="none" stroke="black" d="M1304,-122.13C1304,-142.57 1304,-173 1304,-173 1304,-173 773.29,-173 773.29,-173"/>
<polygon fill="black" stroke="black" points="773.29,-169.5 763.29,-173 773.29,-176.5 773.29,-169.5"/>
</g>
<!-- FederalStateService -->
<g id="node7" class="node">
<title>FederalStateService</title>
<ellipse fill="#fdb462" stroke="black" cx="1118" cy="-104" rx="88.01" ry="18"/>
<text text-anchor="middle" x="1118" y="-99.8" font-family="Times,serif" font-size="14.00">FederalStateService</text>
</g>
<!-- FederalStateService&#45;&gt;SchoolModule -->
<g id="edge6" class="edge">
<title>FederalStateService&#45;&gt;SchoolModule</title>
<path fill="none" stroke="black" d="M1118,-122.27C1118,-140.56 1118,-166 1118,-166 1118,-166 773.54,-166 773.54,-166"/>
<polygon fill="black" stroke="black" points="773.54,-162.5 763.54,-166 773.54,-169.5 773.54,-162.5"/>
</g>
<!-- SchoolRepo -->
<g id="node8" class="node">
<title>SchoolRepo</title>
<ellipse fill="#fdb462" stroke="black" cx="953" cy="-104" rx="58.49" ry="18"/>
<text text-anchor="middle" x="953" y="-99.8" font-family="Times,serif" font-size="14.00">SchoolRepo</text>
</g>
<!-- SchoolRepo&#45;&gt;SchoolModule -->
<g id="edge7" class="edge">
<title>SchoolRepo&#45;&gt;SchoolModule</title>
<path fill="none" stroke="black" d="M904.24,-114.09C904.24,-129.97 904.24,-159 904.24,-159 904.24,-159 773.49,-159 773.49,-159"/>
<polygon fill="black" stroke="black" points="773.49,-155.5 763.49,-159 773.49,-162.5 773.49,-155.5"/>
</g>
<!-- SchoolService -->
<g id="node9" class="node">
<title>SchoolService</title>
<ellipse fill="#fdb462" stroke="black" cx="810" cy="-104" rx="66.63" ry="18"/>
<text text-anchor="middle" x="810" y="-99.8" font-family="Times,serif" font-size="14.00">SchoolService</text>
</g>
<!-- SchoolService&#45;&gt;SchoolModule -->
<g id="edge8" class="edge">
<title>SchoolService&#45;&gt;SchoolModule</title>
<path fill="none" stroke="black" d="M753.2,-113.59C753.2,-113.59 753.2,-140.75 753.2,-140.75"/>
<polygon fill="black" stroke="black" points="749.7,-140.75 753.2,-150.75 756.7,-140.75 749.7,-140.75"/>
</g>
<!-- SchoolValidationService -->
<g id="node10" class="node">
<title>SchoolValidationService</title>
<ellipse fill="#fdb462" stroke="black" cx="618" cy="-104" rx="107.66" ry="18"/>
<text text-anchor="middle" x="618" y="-99.8" font-family="Times,serif" font-size="14.00">SchoolValidationService</text>
</g>
<!-- SchoolValidationService&#45;&gt;SchoolModule -->
<g id="edge9" class="edge">
<title>SchoolValidationService&#45;&gt;SchoolModule</title>
<path fill="none" stroke="black" d="M695.18,-116.84C695.18,-116.84 695.18,-140.52 695.18,-140.52"/>
<polygon fill="black" stroke="black" points="691.68,-140.52 695.18,-150.52 698.68,-140.52 691.68,-140.52"/>
</g>
<!-- SchoolYearRepo -->
<g id="node11" class="node">
<title>SchoolYearRepo</title>
<ellipse fill="#fdb462" stroke="black" cx="415" cy="-104" rx="77.01" ry="18"/>
<text text-anchor="middle" x="415" y="-99.8" font-family="Times,serif" font-size="14.00">SchoolYearRepo</text>
</g>
<!-- SchoolYearRepo&#45;&gt;SchoolModule -->
<g id="edge10" class="edge">
<title>SchoolYearRepo&#45;&gt;SchoolModule</title>
<path fill="none" stroke="black" d="M415,-122.01C415,-138.05 415,-159 415,-159 415,-159 654.63,-159 654.63,-159"/>
<polygon fill="black" stroke="black" points="654.63,-162.5 664.63,-159 654.63,-155.5 654.63,-162.5"/>
</g>
<!-- SchoolYearService -->
<g id="node12" class="node">
<title>SchoolYearService</title>
<ellipse fill="#fdb462" stroke="black" cx="234" cy="-104" rx="85.65" ry="18"/>
<text text-anchor="middle" x="234" y="-99.8" font-family="Times,serif" font-size="14.00">SchoolYearService</text>
</g>
<!-- SchoolYearService&#45;&gt;SchoolModule -->
<g id="edge11" class="edge">
<title>SchoolYearService&#45;&gt;SchoolModule</title>
<path fill="none" stroke="black" d="M234,-122.27C234,-140.56 234,-166 234,-166 234,-166 654.44,-166 654.44,-166"/>
<polygon fill="black" stroke="black" points="654.44,-169.5 664.44,-166 654.44,-162.5 654.44,-169.5"/>
</g>
</g>
</svg>
