<?xml version="1.0" encoding="UTF-8" standalone="no"?>
<!DOCTYPE svg PUBLIC "-//W3C//DTD SVG 1.1//EN"
 "http://www.w3.org/Graphics/SVG/1.1/DTD/svg11.dtd">
<!-- Generated by graphviz version 2.47.0 (20210316.0004)
 -->
<!-- Title: dependencies Pages: 1 -->
<svg width="504pt" height="284pt"
 viewBox="0.00 0.00 504.00 284.00" xmlns="http://www.w3.org/2000/svg" xmlns:xlink="http://www.w3.org/1999/xlink">
<g id="graph0" class="graph" transform="scale(1 1) rotate(0) translate(4 280)">
<title>dependencies</title>
<polygon fill="white" stroke="transparent" points="-4,4 -4,-280 500,-280 500,4 -4,4"/>
<text text-anchor="start" x="227.01" y="-42.4" font-family="Times-12" font-weight="bold" font-size="14.00">Legend</text>
<polygon fill="#ffffb3" stroke="transparent" points="14,-10 14,-30 34,-30 34,-10 14,-10"/>
<text text-anchor="start" x="37.63" y="-15.4" font-family="Times-12" font-size="14.00"> &#160;Declarations</text>
<polygon fill="#8dd3c7" stroke="transparent" points="127,-10 127,-30 147,-30 147,-10 127,-10"/>
<text text-anchor="start" x="150.73" y="-15.4" font-family="Times-12" font-size="14.00"> &#160;Module</text>
<polygon fill="#80b1d3" stroke="transparent" points="213,-10 213,-30 233,-30 233,-10 213,-10"/>
<text text-anchor="start" x="236.78" y="-15.4" font-family="Times-12" font-size="14.00"> &#160;Bootstrap</text>
<polygon fill="#fdb462" stroke="transparent" points="310,-10 310,-30 330,-30 330,-10 310,-10"/>
<text text-anchor="start" x="333.67" y="-15.4" font-family="Times-12" font-size="14.00"> &#160;Providers</text>
<polygon fill="#fb8072" stroke="transparent" points="406,-10 406,-30 426,-30 426,-10 406,-10"/>
<text text-anchor="start" x="429.73" y="-15.4" font-family="Times-12" font-size="14.00"> &#160;Exports</text>
<g id="clust1" class="cluster">
<title>cluster_SchoolModule</title>
<polygon fill="none" stroke="black" stroke-dasharray="1,5" points="8.5,-70 8.5,-268 487.5,-268 487.5,-70 8.5,-70"/>
</g>
<g id="clust6" class="cluster">
<title>cluster_SchoolModule_providers</title>
<polygon fill="none" stroke="black" points="140.5,-78 140.5,-130 479.5,-130 479.5,-78 140.5,-78"/>
</g>
<g id="clust4" class="cluster">
<title>cluster_SchoolModule_exports</title>
<polygon fill="none" stroke="black" points="96.5,-208 96.5,-260 358.5,-260 358.5,-208 96.5,-208"/>
</g>
<g id="clust3" class="cluster">
<title>cluster_SchoolModule_imports</title>
<polygon fill="none" stroke="black" points="16.5,-78 16.5,-130 132.5,-130 132.5,-78 16.5,-78"/>
</g>
<!-- SystemModule -->
<g id="node1" class="node">
<title>SystemModule</title>
<polygon fill="#8dd3c7" stroke="black" points="124.77,-122 121.77,-126 100.77,-126 97.77,-122 24.23,-122 24.23,-86 124.77,-86 124.77,-122"/>
<text text-anchor="middle" x="74.5" y="-99.8" font-family="Times,serif" font-size="14.00">SystemModule</text>
</g>
<!-- SchoolModule -->
<g id="node2" class="node">
<title>SchoolModule</title>
<polygon fill="#8dd3c7" stroke="black" points="283.94,-187 280.94,-191 259.94,-191 256.94,-187 185.06,-187 185.06,-151 283.94,-151 283.94,-187"/>
<text text-anchor="middle" x="234.5" y="-164.8" font-family="Times,serif" font-size="14.00">SchoolModule</text>
</g>
<!-- SystemModule&#45;&gt;SchoolModule -->
<g id="edge1" class="edge">
<title>SystemModule&#45;&gt;SchoolModule</title>
<path fill="none" stroke="black" d="M114.8,-122.11C114.8,-141.34 114.8,-169 114.8,-169 114.8,-169 175.12,-169 175.12,-169"/>
<polygon fill="black" stroke="black" points="175.12,-172.5 185.12,-169 175.12,-165.5 175.12,-172.5"/>
</g>
<!-- SchoolService  -->
<g id="node3" class="node">
<title>SchoolService </title>
<polygon fill="#fb8072" stroke="black" points="350.87,-252 250.13,-252 250.13,-216 350.87,-216 350.87,-252"/>
<text text-anchor="middle" x="300.5" y="-229.8" font-family="Times,serif" font-size="14.00">SchoolService </text>
</g>
<!-- SchoolModule&#45;&gt;SchoolService  -->
<g id="edge2" class="edge">
<title>SchoolModule&#45;&gt;SchoolService </title>
<path fill="none" stroke="black" stroke-dasharray="5,2" d="M267.02,-187.11C267.02,-187.11 267.02,-205.99 267.02,-205.99"/>
<polygon fill="black" stroke="black" points="263.52,-205.99 267.02,-215.99 270.52,-205.99 263.52,-205.99"/>
</g>
<!-- SchoolYearService  -->
<g id="node4" class="node">
<title>SchoolYearService </title>
<polygon fill="#fb8072" stroke="black" points="232.06,-252 104.94,-252 104.94,-216 232.06,-216 232.06,-252"/>
<text text-anchor="middle" x="168.5" y="-229.8" font-family="Times,serif" font-size="14.00">SchoolYearService </text>
</g>
<!-- SchoolModule&#45;&gt;SchoolYearService  -->
<g id="edge3" class="edge">
<title>SchoolModule&#45;&gt;SchoolYearService </title>
<path fill="none" stroke="black" stroke-dasharray="5,2" d="M208.78,-187.11C208.78,-187.11 208.78,-205.99 208.78,-205.99"/>
<polygon fill="black" stroke="black" points="205.28,-205.99 208.78,-215.99 212.28,-205.99 205.28,-205.99"/>
</g>
<!-- SchoolService -->
<g id="node5" class="node">
<title>SchoolService</title>
<ellipse fill="#fdb462" stroke="black" cx="404.5" cy="-104" rx="66.63" ry="18"/>
<text text-anchor="middle" x="404.5" y="-99.8" font-family="Times,serif" font-size="14.00">SchoolService</text>
</g>
<!-- SchoolService&#45;&gt;SchoolModule -->
<g id="edge4" class="edge">
<title>SchoolService&#45;&gt;SchoolModule</title>
<path fill="none" stroke="black" d="M344.18,-111.97C344.18,-129.33 344.18,-169 344.18,-169 344.18,-169 293.89,-169 293.89,-169"/>
<polygon fill="black" stroke="black" points="293.89,-165.5 283.89,-169 293.89,-172.5 293.89,-165.5"/>
</g>
<!-- SchoolYearService -->
<g id="node6" class="node">
<title>SchoolYearService</title>
<ellipse fill="#fdb462" stroke="black" cx="234.5" cy="-104" rx="85.65" ry="18"/>
<text text-anchor="middle" x="234.5" y="-99.8" font-family="Times,serif" font-size="14.00">SchoolYearService</text>
</g>
<!-- SchoolYearService&#45;&gt;SchoolModule -->
<g id="edge5" class="edge">
<title>SchoolYearService&#45;&gt;SchoolModule</title>
<path fill="none" stroke="black" d="M234.5,-122.11C234.5,-122.11 234.5,-140.99 234.5,-140.99"/>
<polygon fill="black" stroke="black" points="231,-140.99 234.5,-150.99 238,-140.99 231,-140.99"/>
</g>
</g>
</svg>
