<?xml version="1.0" encoding="UTF-8" standalone="no"?>
<!DOCTYPE svg PUBLIC "-//W3C//DTD SVG 1.1//EN"
 "http://www.w3.org/Graphics/SVG/1.1/DTD/svg11.dtd">
<!-- Generated by graphviz version 5.0.0 (20220707.1540)
 -->
<!-- Title: dependencies Pages: 1 -->
<svg width="448pt" height="247pt"
 viewBox="0.00 0.00 448.00 246.80" xmlns="http://www.w3.org/2000/svg" xmlns:xlink="http://www.w3.org/1999/xlink">
<g id="graph0" class="graph" transform="scale(1 1) rotate(0) translate(4 242.8)">
<title>dependencies</title>
<polygon fill="white" stroke="transparent" points="-4,4 -4,-242.8 444,-242.8 444,4 -4,4"/>
<text text-anchor="middle" x="220" y="-8.2" font-family="sans-serif" font-size="14.00">dependencies</text>
<g id="clust1" class="cluster">
<title>cluster_SchoolModule</title>
<polygon fill="none" stroke="black" stroke-dasharray="1,5" points="8,-32.8 8,-230.8 432,-230.8 432,-32.8 8,-32.8"/>
</g>
<g id="clust3" class="cluster">
<title>cluster_SchoolModule_imports</title>
<polygon fill="none" stroke="black" points="308,-40.8 308,-92.8 424,-92.8 424,-40.8 308,-40.8"/>
</g>
<g id="clust4" class="cluster">
<title>cluster_SchoolModule_exports</title>
<polygon fill="none" stroke="black" points="176,-170.8 176,-222.8 292,-222.8 292,-170.8 176,-170.8"/>
</g>
<g id="clust6" class="cluster">
<title>cluster_SchoolModule_providers</title>
<polygon fill="none" stroke="black" points="16,-40.8 16,-92.8 300,-92.8 300,-40.8 16,-40.8"/>
</g>
<!-- LoggerModule -->
<g id="node1" class="node">
<title>LoggerModule</title>
<polygon fill="#8dd3c7" stroke="black" points="415.98,-84.8 412.98,-88.8 391.98,-88.8 388.98,-84.8 316.02,-84.8 316.02,-48.8 415.98,-48.8 415.98,-84.8"/>
<text text-anchor="middle" x="366" y="-62.6" font-family="Times,serif" font-size="14.00">LoggerModule</text>
</g>
<!-- SchoolModule -->
<g id="node2" class="node">
<title>SchoolModule</title>
<polygon fill="#8dd3c7" stroke="black" points="283.44,-149.8 280.44,-153.8 259.44,-153.8 256.44,-149.8 184.56,-149.8 184.56,-113.8 283.44,-113.8 283.44,-149.8"/>
<text text-anchor="middle" x="234" y="-127.6" font-family="Times,serif" font-size="14.00">SchoolModule</text>
</g>
<!-- LoggerModule&#45;&gt;SchoolModule -->
<g id="edge1" class="edge">
<title>LoggerModule&#45;&gt;SchoolModule</title>
<path fill="none" stroke="black" d="M366,-84.91C366,-104.14 366,-131.8 366,-131.8 366,-131.8 293.53,-131.8 293.53,-131.8"/>
<polygon fill="black" stroke="black" points="293.53,-128.3 283.53,-131.8 293.53,-135.3 293.53,-128.3"/>
</g>
<!-- SchoolService  -->
<g id="node3" class="node">
<title>SchoolService </title>
<polygon fill="#fb8072" stroke="black" points="284.37,-214.8 183.63,-214.8 183.63,-178.8 284.37,-178.8 284.37,-214.8"/>
<text text-anchor="middle" x="234" y="-192.6" font-family="Times,serif" font-size="14.00">SchoolService </text>
</g>
<!-- SchoolModule&#45;&gt;SchoolService  -->
<g id="edge2" class="edge">
<title>SchoolModule&#45;&gt;SchoolService </title>
<path fill="none" stroke="black" stroke-dasharray="5,2" d="M234,-149.91C234,-149.91 234,-168.79 234,-168.79"/>
<polygon fill="black" stroke="black" points="230.5,-168.79 234,-178.79 237.5,-168.79 230.5,-168.79"/>
</g>
<!-- SchoolRepo -->
<g id="node4" class="node">
<title>SchoolRepo</title>
<ellipse fill="#fdb462" stroke="black" cx="234" cy="-66.8" rx="58.49" ry="18"/>
<text text-anchor="middle" x="234" y="-62.6" font-family="Times,serif" font-size="14.00">SchoolRepo</text>
</g>
<!-- SchoolRepo&#45;&gt;SchoolModule -->
<g id="edge3" class="edge">
<title>SchoolRepo&#45;&gt;SchoolModule</title>
<path fill="none" stroke="black" d="M234,-84.91C234,-84.91 234,-103.79 234,-103.79"/>
<polygon fill="black" stroke="black" points="230.5,-103.79 234,-113.79 237.5,-103.79 230.5,-103.79"/>
</g>
<!-- SchoolService -->
<g id="node5" class="node">
<title>SchoolService</title>
<ellipse fill="#fdb462" stroke="black" cx="91" cy="-66.8" rx="66.64" ry="18"/>
<text text-anchor="middle" x="91" y="-62.6" font-family="Times,serif" font-size="14.00">SchoolService</text>
</g>
<!-- SchoolService&#45;&gt;SchoolModule -->
<g id="edge4" class="edge">
<title>SchoolService&#45;&gt;SchoolModule</title>
<path fill="none" stroke="black" d="M91,-84.91C91,-104.14 91,-131.8 91,-131.8 91,-131.8 174.39,-131.8 174.39,-131.8"/>
<polygon fill="black" stroke="black" points="174.39,-135.3 184.39,-131.8 174.39,-128.3 174.39,-135.3"/>
</g>
</g>
</svg>
