<?xml version="1.0" encoding="UTF-8" standalone="no"?>
<!DOCTYPE svg PUBLIC "-//W3C//DTD SVG 1.1//EN"
 "http://www.w3.org/Graphics/SVG/1.1/DTD/svg11.dtd">
<!-- Generated by graphviz version 5.0.0 (20220707.1540)
 -->
<!-- Title: dependencies Pages: 1 -->
<svg width="228pt" height="247pt"
 viewBox="0.00 0.00 228.00 246.80" xmlns="http://www.w3.org/2000/svg" xmlns:xlink="http://www.w3.org/1999/xlink">
<g id="graph0" class="graph" transform="scale(1 1) rotate(0) translate(4 242.8)">
<title>dependencies</title>
<polygon fill="white" stroke="transparent" points="-4,4 -4,-242.8 224,-242.8 224,4 -4,4"/>
<text text-anchor="middle" x="110" y="-8.2" font-family="sans-serif" font-size="14.00">dependencies</text>
<g id="clust1" class="cluster">
<title>cluster_FileSystemModule</title>
<polygon fill="none" stroke="black" stroke-dasharray="1,5" points="8,-32.8 8,-230.8 212,-230.8 212,-32.8 8,-32.8"/>
</g>
<g id="clust6" class="cluster">
<title>cluster_FileSystemModule_providers</title>
<polygon fill="none" stroke="black" points="16,-40.8 16,-92.8 204,-92.8 204,-40.8 16,-40.8"/>
</g>
<g id="clust4" class="cluster">
<title>cluster_FileSystemModule_exports</title>
<polygon fill="none" stroke="black" points="38,-170.8 38,-222.8 182,-222.8 182,-170.8 38,-170.8"/>
</g>
<!-- FileSystemAdapter  -->
<g id="node1" class="node">
<title>FileSystemAdapter </title>
<polygon fill="#fb8072" stroke="black" points="173.6,-214.8 46.4,-214.8 46.4,-178.8 173.6,-178.8 173.6,-214.8"/>
<text text-anchor="middle" x="110" y="-192.6" font-family="Times,serif" font-size="14.00">FileSystemAdapter </text>
</g>
<!-- FileSystemModule -->
<g id="node2" class="node">
<title>FileSystemModule</title>
<polygon fill="#8dd3c7" stroke="black" points="171.06,-149.8 168.06,-153.8 147.06,-153.8 144.06,-149.8 48.94,-149.8 48.94,-113.8 171.06,-113.8 171.06,-149.8"/>
<text text-anchor="middle" x="110" y="-127.6" font-family="Times,serif" font-size="14.00">FileSystemModule</text>
</g>
<!-- FileSystemModule&#45;&gt;FileSystemAdapter  -->
<g id="edge1" class="edge">
<title>FileSystemModule&#45;&gt;FileSystemAdapter </title>
<path fill="none" stroke="black" stroke-dasharray="5,2" d="M110,-149.91C110,-149.91 110,-168.79 110,-168.79"/>
<polygon fill="black" stroke="black" points="106.5,-168.79 110,-178.79 113.5,-168.79 106.5,-168.79"/>
</g>
<!-- FileSystemAdapter -->
<g id="node3" class="node">
<title>FileSystemAdapter</title>
<ellipse fill="#fdb462" stroke="black" cx="110" cy="-66.8" rx="85.7" ry="18"/>
<text text-anchor="middle" x="110" y="-62.6" font-family="Times,serif" font-size="14.00">FileSystemAdapter</text>
</g>
<!-- FileSystemAdapter&#45;&gt;FileSystemModule -->
<g id="edge2" class="edge">
<title>FileSystemAdapter&#45;&gt;FileSystemModule</title>
<path fill="none" stroke="black" d="M110,-84.91C110,-84.91 110,-103.79 110,-103.79"/>
<polygon fill="black" stroke="black" points="106.5,-103.79 110,-113.79 113.5,-103.79 106.5,-103.79"/>
</g>
</g>
</svg>
